<?xml version="1.0" encoding="UTF-8" standalone="no"?>
<!DOCTYPE svg PUBLIC "-//W3C//DTD SVG 1.1//EN"
 "http://www.w3.org/Graphics/SVG/1.1/DTD/svg11.dtd">
<!-- Generated by graphviz version 2.43.0 (0)
 -->
<!-- Title: tree Pages: 1 -->
<svg width="5431pt" height="1303pt"
 viewBox="0.00 0.00 5430.79 1303.44" xmlns="http://www.w3.org/2000/svg" xmlns:xlink="http://www.w3.org/1999/xlink">
<g id="graph0" class="graph" transform="scale(1 1) rotate(0) translate(4 1299.44)">
<title>tree</title>
<polygon fill="white" stroke="transparent" points="-4,4 -4,-1299.44 5426.79,-1299.44 5426.79,4 -4,4"/>
<!-- n9 -->
<g id="node1" class="node">
<title>n9</title>
<ellipse fill="#98D2A5" stroke="black" cx="1415.87" cy="-1257.96" rx="190.84" ry="37.45"/>
<text text-anchor="middle" x="1415.87" y="-1269.26" font-family="Times,serif" font-size="14.00">acusa</text>
<text text-anchor="middle" x="1415.87" y="-1254.26" font-family="Times,serif" font-size="14.00">vmip3s0 (root)</text>
<text text-anchor="middle" x="1415.87" y="-1239.26" font-family="Times,serif" font-size="14.00">rep=no, t=no, r=yes, m=yes, c=no</text>
</g>
<!-- n1 -->
<g id="node2" class="node">
<title>n1</title>
<ellipse fill="#98D2A5" stroke="black" cx="195.87" cy="-1147.01" rx="195.74" ry="37.45"/>
<text text-anchor="middle" x="195.87" y="-1158.31" font-family="Times,serif" font-size="14.00">El</text>
<text text-anchor="middle" x="195.87" y="-1143.31" font-family="Times,serif" font-size="14.00">da0ms0 (nsubj)</text>
<text text-anchor="middle" x="195.87" y="-1128.31" font-family="Times,serif" font-size="14.00">rep=no, t=yes, r=no, m=yes, c=yes</text>
</g>
<!-- n9&#45;&gt;n1 -->
<g id="edge1" class="edge">
<title>n9&#45;&gt;n1</title>
<path fill="none" stroke="black" d="M1229.62,-1249.52C1025.61,-1240.01 689.04,-1220.31 400.87,-1184.49 381.53,-1182.08 361.26,-1179.07 341.29,-1175.82"/>
<polygon fill="black" stroke="black" points="341.63,-1172.33 331.2,-1174.16 340.49,-1179.24 341.63,-1172.33"/>
</g>
<!-- n2 -->
<g id="node3" class="node">
<title>n2</title>
<ellipse fill="#98D2A5" stroke="black" cx="605.87" cy="-1147.01" rx="195.74" ry="37.45"/>
<text text-anchor="middle" x="605.87" y="-1158.31" font-family="Times,serif" font-size="14.00">presidente</text>
<text text-anchor="middle" x="605.87" y="-1143.31" font-family="Times,serif" font-size="14.00">ncms000 (nsubj)</text>
<text text-anchor="middle" x="605.87" y="-1128.31" font-family="Times,serif" font-size="14.00">rep=no, t=yes, r=no, m=yes, c=yes</text>
</g>
<!-- n9&#45;&gt;n2 -->
<g id="edge2" class="edge">
<title>n9&#45;&gt;n2</title>
<path fill="none" stroke="black" d="M1249.26,-1239.58C1127.55,-1226.26 958.66,-1206.47 810.87,-1184.49 792.37,-1181.74 772.98,-1178.61 753.81,-1175.36"/>
<polygon fill="black" stroke="black" points="754.25,-1171.89 743.81,-1173.66 753.08,-1178.79 754.25,-1171.89"/>
</g>
<!-- n5 -->
<g id="node4" class="node">
<title>n5</title>
<ellipse fill="#98D2A5" stroke="black" cx="1010.87" cy="-1147.01" rx="190.84" ry="37.45"/>
<text text-anchor="middle" x="1010.87" y="-1158.31" font-family="Times,serif" font-size="14.00">y</text>
<text text-anchor="middle" x="1010.87" y="-1143.31" font-family="Times,serif" font-size="14.00">cc (coord_fixed)</text>
<text text-anchor="middle" x="1010.87" y="-1128.31" font-family="Times,serif" font-size="14.00">rep=no, t=yes, r=no, m=yes, c=no</text>
</g>
<!-- n9&#45;&gt;n5 -->
<g id="edge3" class="edge">
<title>n9&#45;&gt;n5</title>
<path fill="none" stroke="black" d="M1305.74,-1227.34C1251.6,-1212.77 1186.25,-1195.19 1130.85,-1180.29"/>
<polygon fill="black" stroke="black" points="1131.55,-1176.85 1120.98,-1177.63 1129.73,-1183.61 1131.55,-1176.85"/>
</g>
<!-- n6 -->
<g id="node5" class="node">
<title>n6</title>
<ellipse fill="#98D2A5" stroke="black" cx="1415.87" cy="-1147.01" rx="195.74" ry="37.45"/>
<text text-anchor="middle" x="1415.87" y="-1158.31" font-family="Times,serif" font-size="14.00">alcalde</text>
<text text-anchor="middle" x="1415.87" y="-1143.31" font-family="Times,serif" font-size="14.00">ncms000 (nsubj)</text>
<text text-anchor="middle" x="1415.87" y="-1128.31" font-family="Times,serif" font-size="14.00">rep=no, t=yes, r=no, m=yes, c=yes</text>
</g>
<!-- n9&#45;&gt;n6 -->
<g id="edge4" class="edge">
<title>n9&#45;&gt;n6</title>
<path fill="none" stroke="black" d="M1415.87,-1220.38C1415.87,-1212.21 1415.87,-1203.43 1415.87,-1194.9"/>
<polygon fill="black" stroke="black" points="1419.37,-1194.68 1415.87,-1184.68 1412.37,-1194.68 1419.37,-1194.68"/>
</g>
<!-- n10 -->
<g id="node6" class="node">
<title>n10</title>
<ellipse fill="#98D2A5" stroke="black" cx="1820.87" cy="-1147.01" rx="190.84" ry="37.45"/>
<text text-anchor="middle" x="1820.87" y="-1158.31" font-family="Times,serif" font-size="14.00">a</text>
<text text-anchor="middle" x="1820.87" y="-1143.31" font-family="Times,serif" font-size="14.00">sps00 (dobj)</text>
<text text-anchor="middle" x="1820.87" y="-1128.31" font-family="Times,serif" font-size="14.00">rep=no, t=no, r=yes, m=yes, c=no</text>
</g>
<!-- n9&#45;&gt;n10 -->
<g id="edge5" class="edge">
<title>n9&#45;&gt;n10</title>
<path fill="none" stroke="black" d="M1526,-1227.34C1580.14,-1212.77 1645.49,-1195.19 1700.89,-1180.29"/>
<polygon fill="black" stroke="black" points="1702.01,-1183.61 1710.76,-1177.63 1700.19,-1176.85 1702.01,-1183.61"/>
</g>
<!-- n15 -->
<g id="node7" class="node">
<title>n15</title>
<ellipse fill="#98D2A5" stroke="black" cx="2220.87" cy="-1147.01" rx="190.84" ry="37.45"/>
<text text-anchor="middle" x="2220.87" y="-1158.31" font-family="Times,serif" font-size="14.00">de</text>
<text text-anchor="middle" x="2220.87" y="-1143.31" font-family="Times,serif" font-size="14.00">sps00 (oobj)</text>
<text text-anchor="middle" x="2220.87" y="-1128.31" font-family="Times,serif" font-size="14.00">rep=no, t=no, r=yes, m=yes, c=no</text>
</g>
<!-- n9&#45;&gt;n15 -->
<g id="edge6" class="edge">
<title>n9&#45;&gt;n15</title>
<path fill="none" stroke="black" d="M1582.83,-1239.74C1704.53,-1226.51 1873.25,-1206.77 2020.87,-1184.49 2038.91,-1181.76 2057.83,-1178.65 2076.53,-1175.42"/>
<polygon fill="black" stroke="black" points="2077.33,-1178.83 2086.58,-1173.67 2076.13,-1171.94 2077.33,-1178.83"/>
</g>
<!-- n42 -->
<g id="node8" class="node">
<title>n42</title>
<ellipse fill="none" stroke="black" cx="2611.87" cy="-1147.01" rx="181.95" ry="37.45"/>
<text text-anchor="middle" x="2611.87" y="-1158.31" font-family="Times,serif" font-size="14.00">.</text>
<text text-anchor="middle" x="2611.87" y="-1143.31" font-family="Times,serif" font-size="14.00">fp (punct)</text>
<text text-anchor="middle" x="2611.87" y="-1128.31" font-family="Times,serif" font-size="14.00">rep=no, t=no, r=no, m=no, c=no</text>
</g>
<!-- n9&#45;&gt;n42 -->
<g id="edge7" class="edge">
<title>n9&#45;&gt;n42</title>
<path fill="none" stroke="black" d="M1602.68,-1250.02C1804.98,-1240.97 2136.85,-1221.72 2420.87,-1184.49 2438.89,-1182.12 2457.77,-1179.14 2476.36,-1175.91"/>
<polygon fill="black" stroke="black" points="2477.11,-1179.33 2486.35,-1174.14 2475.89,-1172.44 2477.11,-1179.33"/>
</g>
<!-- n3 -->
<g id="node9" class="node">
<title>n3</title>
<ellipse fill="#98D2A5" stroke="black" cx="605.87" cy="-1036.06" rx="190.84" ry="37.45"/>
<text text-anchor="middle" x="605.87" y="-1047.36" font-family="Times,serif" font-size="14.00">del</text>
<text text-anchor="middle" x="605.87" y="-1032.36" font-family="Times,serif" font-size="14.00">spcms (prepn)</text>
<text text-anchor="middle" x="605.87" y="-1017.36" font-family="Times,serif" font-size="14.00">rep=no, t=yes, r=no, m=yes, c=no</text>
</g>
<!-- n2&#45;&gt;n3 -->
<g id="edge8" class="edge">
<title>n2&#45;&gt;n3</title>
<path fill="none" stroke="black" d="M605.87,-1109.43C605.87,-1101.25 605.87,-1092.47 605.87,-1083.95"/>
<polygon fill="black" stroke="black" points="609.37,-1083.73 605.87,-1073.73 602.37,-1083.73 609.37,-1083.73"/>
</g>
<!-- n7 -->
<g id="node11" class="node">
<title>n7</title>
<ellipse fill="#98D2A5" stroke="black" cx="1218.87" cy="-1036.06" rx="190.84" ry="37.45"/>
<text text-anchor="middle" x="1218.87" y="-1047.36" font-family="Times,serif" font-size="14.00">de</text>
<text text-anchor="middle" x="1218.87" y="-1032.36" font-family="Times,serif" font-size="14.00">sps00 (prepn)</text>
<text text-anchor="middle" x="1218.87" y="-1017.36" font-family="Times,serif" font-size="14.00">rep=no, t=yes, r=no, m=yes, c=no</text>
</g>
<!-- n6&#45;&gt;n7 -->
<g id="edge10" class="edge">
<title>n6&#45;&gt;n7</title>
<path fill="none" stroke="black" d="M1353.27,-1111.39C1333.24,-1100.31 1310.93,-1087.97 1290.33,-1076.58"/>
<polygon fill="black" stroke="black" points="1291.75,-1073.37 1281.31,-1071.59 1288.37,-1079.49 1291.75,-1073.37"/>
</g>
<!-- n13 -->
<g id="node13" class="node">
<title>n13</title>
<ellipse fill="#98D2A5" stroke="black" cx="1820.87" cy="-1036.06" rx="190.84" ry="37.45"/>
<text text-anchor="middle" x="1820.87" y="-1047.36" font-family="Times,serif" font-size="14.00">dirigentes</text>
<text text-anchor="middle" x="1820.87" y="-1032.36" font-family="Times,serif" font-size="14.00">nccp000 (pobj)</text>
<text text-anchor="middle" x="1820.87" y="-1017.36" font-family="Times,serif" font-size="14.00">rep=no, t=no, r=yes, m=yes, c=no</text>
</g>
<!-- n10&#45;&gt;n13 -->
<g id="edge12" class="edge">
<title>n10&#45;&gt;n13</title>
<path fill="none" stroke="black" d="M1820.87,-1109.43C1820.87,-1101.25 1820.87,-1092.47 1820.87,-1083.95"/>
<polygon fill="black" stroke="black" points="1824.37,-1083.73 1820.87,-1073.73 1817.37,-1083.73 1824.37,-1083.73"/>
</g>
<!-- n17 -->
<g id="node17" class="node">
<title>n17</title>
<ellipse fill="#98D2A5" stroke="black" cx="2820.87" cy="-1036.06" rx="190.84" ry="37.45"/>
<text text-anchor="middle" x="2820.87" y="-1047.36" font-family="Times,serif" font-size="14.00">delitos</text>
<text text-anchor="middle" x="2820.87" y="-1032.36" font-family="Times,serif" font-size="14.00">ncmp000 (pobj)</text>
<text text-anchor="middle" x="2820.87" y="-1017.36" font-family="Times,serif" font-size="14.00">rep=no, t=no, r=yes, m=yes, c=no</text>
</g>
<!-- n15&#45;&gt;n17 -->
<g id="edge16" class="edge">
<title>n15&#45;&gt;n17</title>
<path fill="none" stroke="black" d="M2358.31,-1120.92C2379.26,-1117.1 2400.64,-1113.21 2420.87,-1109.53 2504.27,-1094.37 2597.46,-1077.48 2672.89,-1063.83"/>
<polygon fill="black" stroke="black" points="2673.73,-1067.23 2682.95,-1062.01 2672.48,-1060.34 2673.73,-1067.23"/>
</g>
<!-- n4 -->
<g id="node10" class="node">
<title>n4</title>
<ellipse fill="#98D2A5" stroke="black" cx="605.87" cy="-925.1" rx="190.84" ry="37.45"/>
<text text-anchor="middle" x="605.87" y="-936.4" font-family="Times,serif" font-size="14.00">GIL</text>
<text text-anchor="middle" x="605.87" y="-921.4" font-family="Times,serif" font-size="14.00">np00000 (pobj)</text>
<text text-anchor="middle" x="605.87" y="-906.4" font-family="Times,serif" font-size="14.00">rep=no, t=yes, r=no, m=yes, c=no</text>
</g>
<!-- n3&#45;&gt;n4 -->
<g id="edge9" class="edge">
<title>n3&#45;&gt;n4</title>
<path fill="none" stroke="black" d="M605.87,-998.47C605.87,-990.3 605.87,-981.52 605.87,-972.99"/>
<polygon fill="black" stroke="black" points="609.37,-972.78 605.87,-962.78 602.37,-972.78 609.37,-972.78"/>
</g>
<!-- n8 -->
<g id="node12" class="node">
<title>n8</title>
<ellipse fill="#98D2A5" stroke="black" cx="1020.87" cy="-925.1" rx="190.84" ry="37.45"/>
<text text-anchor="middle" x="1020.87" y="-936.4" font-family="Times,serif" font-size="14.00">Marbella</text>
<text text-anchor="middle" x="1020.87" y="-921.4" font-family="Times,serif" font-size="14.00">np00000 (pobj)</text>
<text text-anchor="middle" x="1020.87" y="-906.4" font-family="Times,serif" font-size="14.00">rep=no, t=yes, r=no, m=yes, c=no</text>
</g>
<!-- n7&#45;&gt;n8 -->
<g id="edge11" class="edge">
<title>n7&#45;&gt;n8</title>
<path fill="none" stroke="black" d="M1156.22,-1000.58C1135.9,-989.4 1113.2,-976.91 1092.29,-965.4"/>
<polygon fill="black" stroke="black" points="1093.9,-962.29 1083.45,-960.54 1090.52,-968.43 1093.9,-962.29"/>
</g>
<!-- n11 -->
<g id="node14" class="node">
<title>n11</title>
<ellipse fill="#98D2A5" stroke="black" cx="1420.87" cy="-925.1" rx="190.84" ry="37.45"/>
<text text-anchor="middle" x="1420.87" y="-936.4" font-family="Times,serif" font-size="14.00">los</text>
<text text-anchor="middle" x="1420.87" y="-921.4" font-family="Times,serif" font-size="14.00">da0mp0 (det)</text>
<text text-anchor="middle" x="1420.87" y="-906.4" font-family="Times,serif" font-size="14.00">rep=no, t=no, r=yes, m=yes, c=no</text>
</g>
<!-- n13&#45;&gt;n11 -->
<g id="edge13" class="edge">
<title>n13&#45;&gt;n11</title>
<path fill="none" stroke="black" d="M1711.57,-1005.28C1658.43,-990.81 1594.46,-973.39 1540.07,-958.57"/>
<polygon fill="black" stroke="black" points="1540.95,-955.18 1530.39,-955.93 1539.11,-961.94 1540.95,-955.18"/>
</g>
<!-- n12 -->
<g id="node15" class="node">
<title>n12</title>
<ellipse fill="#98D2A5" stroke="black" cx="1820.87" cy="-925.1" rx="190.84" ry="37.45"/>
<text text-anchor="middle" x="1820.87" y="-936.4" font-family="Times,serif" font-size="14.00">dos</text>
<text text-anchor="middle" x="1820.87" y="-921.4" font-family="Times,serif" font-size="14.00">dn0cp0 (det)</text>
<text text-anchor="middle" x="1820.87" y="-906.4" font-family="Times,serif" font-size="14.00">rep=no, t=no, r=yes, m=yes, c=no</text>
</g>
<!-- n13&#45;&gt;n12 -->
<g id="edge14" class="edge">
<title>n13&#45;&gt;n12</title>
<path fill="none" stroke="black" d="M1820.87,-998.47C1820.87,-990.3 1820.87,-981.52 1820.87,-972.99"/>
<polygon fill="black" stroke="black" points="1824.37,-972.78 1820.87,-962.78 1817.37,-972.78 1824.37,-972.78"/>
</g>
<!-- n14 -->
<g id="node16" class="node">
<title>n14</title>
<ellipse fill="#98D2A5" stroke="black" cx="2220.87" cy="-925.1" rx="190.84" ry="37.45"/>
<text text-anchor="middle" x="2220.87" y="-936.4" font-family="Times,serif" font-size="14.00">socialistas</text>
<text text-anchor="middle" x="2220.87" y="-921.4" font-family="Times,serif" font-size="14.00">aq0cp0 (amod)</text>
<text text-anchor="middle" x="2220.87" y="-906.4" font-family="Times,serif" font-size="14.00">rep=no, t=no, r=yes, m=yes, c=no</text>
</g>
<!-- n13&#45;&gt;n14 -->
<g id="edge15" class="edge">
<title>n13&#45;&gt;n14</title>
<path fill="none" stroke="black" d="M1930.17,-1005.28C1983.3,-990.81 2047.28,-973.39 2101.66,-958.57"/>
<polygon fill="black" stroke="black" points="2102.62,-961.94 2111.35,-955.93 2100.78,-955.18 2102.62,-961.94"/>
</g>
<!-- n16 -->
<g id="node18" class="node">
<title>n16</title>
<ellipse fill="#98D2A5" stroke="black" cx="2620.87" cy="-925.1" rx="190.84" ry="37.45"/>
<text text-anchor="middle" x="2620.87" y="-936.4" font-family="Times,serif" font-size="14.00">los</text>
<text text-anchor="middle" x="2620.87" y="-921.4" font-family="Times,serif" font-size="14.00">da0mp0 (det)</text>
<text text-anchor="middle" x="2620.87" y="-906.4" font-family="Times,serif" font-size="14.00">rep=no, t=no, r=yes, m=yes, c=no</text>
</g>
<!-- n17&#45;&gt;n16 -->
<g id="edge17" class="edge">
<title>n17&#45;&gt;n16</title>
<path fill="none" stroke="black" d="M2757.59,-1000.58C2737.06,-989.4 2714.13,-976.91 2693.01,-965.4"/>
<polygon fill="black" stroke="black" points="2694.54,-962.25 2684.08,-960.54 2691.19,-968.4 2694.54,-962.25"/>
</g>
<!-- n18 -->
<g id="node19" class="node">
<title>n18</title>
<ellipse fill="#98D2A5" stroke="black" cx="3020.87" cy="-925.1" rx="190.84" ry="37.45"/>
<text text-anchor="middle" x="3020.87" y="-936.4" font-family="Times,serif" font-size="14.00">de</text>
<text text-anchor="middle" x="3020.87" y="-921.4" font-family="Times,serif" font-size="14.00">sps00 (prepn)</text>
<text text-anchor="middle" x="3020.87" y="-906.4" font-family="Times,serif" font-size="14.00">rep=no, t=no, r=yes, m=yes, c=no</text>
</g>
<!-- n17&#45;&gt;n18 -->
<g id="edge18" class="edge">
<title>n17&#45;&gt;n18</title>
<path fill="none" stroke="black" d="M2884.15,-1000.58C2904.68,-989.4 2927.6,-976.91 2948.73,-965.4"/>
<polygon fill="black" stroke="black" points="2950.55,-968.4 2957.66,-960.54 2947.2,-962.25 2950.55,-968.4"/>
</g>
<!-- n22 -->
<g id="node20" class="node">
<title>n22</title>
<ellipse fill="#98D2A5" stroke="black" cx="3625.87" cy="-925.1" rx="190.84" ry="37.45"/>
<text text-anchor="middle" x="3625.87" y="-936.4" font-family="Times,serif" font-size="14.00">por</text>
<text text-anchor="middle" x="3625.87" y="-921.4" font-family="Times,serif" font-size="14.00">sps00 (prepn)</text>
<text text-anchor="middle" x="3625.87" y="-906.4" font-family="Times,serif" font-size="14.00">rep=no, t=no, r=yes, m=yes, c=no</text>
</g>
<!-- n17&#45;&gt;n22 -->
<g id="edge19" class="edge">
<title>n17&#45;&gt;n22</title>
<path fill="none" stroke="black" d="M2976.08,-1014.05C3115.18,-995.22 3318.6,-967.69 3460.67,-948.46"/>
<polygon fill="black" stroke="black" points="3461.35,-951.9 3470.79,-947.09 3460.41,-944.97 3461.35,-951.9"/>
</g>
<!-- n19 -->
<g id="node21" class="node">
<title>n19</title>
<ellipse fill="#98D2A5" stroke="black" cx="2518.87" cy="-814.15" rx="190.84" ry="37.45"/>
<text text-anchor="middle" x="2518.87" y="-825.45" font-family="Times,serif" font-size="14.00">injurias</text>
<text text-anchor="middle" x="2518.87" y="-810.45" font-family="Times,serif" font-size="14.00">ncfp000 (pobj)</text>
<text text-anchor="middle" x="2518.87" y="-795.45" font-family="Times,serif" font-size="14.00">rep=no, t=no, r=yes, m=yes, c=no</text>
</g>
<!-- n18&#45;&gt;n19 -->
<g id="edge20" class="edge">
<title>n18&#45;&gt;n19</title>
<path fill="none" stroke="black" d="M2895.16,-896.82C2821.93,-880.93 2729.55,-860.88 2654.65,-844.62"/>
<polygon fill="black" stroke="black" points="2655.18,-841.15 2644.67,-842.45 2653.7,-848 2655.18,-841.15"/>
</g>
<!-- n20 -->
<g id="node22" class="node">
<title>n20</title>
<ellipse fill="#98D2A5" stroke="black" cx="2918.87" cy="-814.15" rx="190.84" ry="37.45"/>
<text text-anchor="middle" x="2918.87" y="-825.45" font-family="Times,serif" font-size="14.00">y</text>
<text text-anchor="middle" x="2918.87" y="-810.45" font-family="Times,serif" font-size="14.00">cc (coord_fixed)</text>
<text text-anchor="middle" x="2918.87" y="-795.45" font-family="Times,serif" font-size="14.00">rep=no, t=no, r=yes, m=yes, c=no</text>
</g>
<!-- n18&#45;&gt;n20 -->
<g id="edge21" class="edge">
<title>n18&#45;&gt;n20</title>
<path fill="none" stroke="black" d="M2987.19,-888.13C2978.31,-878.64 2968.64,-868.31 2959.44,-858.48"/>
<polygon fill="black" stroke="black" points="2961.9,-856 2952.51,-851.09 2956.79,-860.78 2961.9,-856"/>
</g>
<!-- n21 -->
<g id="node23" class="node">
<title>n21</title>
<ellipse fill="#98D2A5" stroke="black" cx="3323.87" cy="-814.15" rx="195.74" ry="37.45"/>
<text text-anchor="middle" x="3323.87" y="-825.45" font-family="Times,serif" font-size="14.00">calumnias</text>
<text text-anchor="middle" x="3323.87" y="-810.45" font-family="Times,serif" font-size="14.00">ncfp000 (pobj)</text>
<text text-anchor="middle" x="3323.87" y="-795.45" font-family="Times,serif" font-size="14.00">rep=no, t=no, r=yes, m=yes, c=yes</text>
</g>
<!-- n18&#45;&gt;n21 -->
<g id="edge22" class="edge">
<title>n18&#45;&gt;n21</title>
<path fill="none" stroke="black" d="M3110.55,-891.86C3146.27,-879.01 3187.53,-864.18 3224.19,-850.99"/>
<polygon fill="black" stroke="black" points="3225.67,-854.18 3233.89,-847.5 3223.3,-847.59 3225.67,-854.18"/>
</g>
<!-- n23 -->
<g id="node24" class="node">
<title>n23</title>
<ellipse fill="#98D2A5" stroke="black" cx="3728.87" cy="-814.15" rx="190.84" ry="37.45"/>
<text text-anchor="middle" x="3728.87" y="-825.45" font-family="Times,serif" font-size="14.00">referirse</text>
<text text-anchor="middle" x="3728.87" y="-810.45" font-family="Times,serif" font-size="14.00">vmn0000 (pobj)</text>
<text text-anchor="middle" x="3728.87" y="-795.45" font-family="Times,serif" font-size="14.00">rep=no, t=no, r=yes, m=yes, c=no</text>
</g>
<!-- n22&#45;&gt;n23 -->
<g id="edge23" class="edge">
<title>n22&#45;&gt;n23</title>
<path fill="none" stroke="black" d="M3659.88,-888.13C3668.85,-878.64 3678.61,-868.31 3687.9,-858.48"/>
<polygon fill="black" stroke="black" points="3690.57,-860.76 3694.89,-851.09 3685.48,-855.95 3690.57,-860.76"/>
</g>
<!-- n24 -->
<g id="node25" class="node">
<title>n24</title>
<ellipse fill="#98D2A5" stroke="black" cx="3528.87" cy="-703.2" rx="190.84" ry="37.45"/>
<text text-anchor="middle" x="3528.87" y="-714.5" font-family="Times,serif" font-size="14.00">a</text>
<text text-anchor="middle" x="3528.87" y="-699.5" font-family="Times,serif" font-size="14.00">sps00 (oobj)</text>
<text text-anchor="middle" x="3528.87" y="-684.5" font-family="Times,serif" font-size="14.00">rep=no, t=no, r=yes, m=yes, c=no</text>
</g>
<!-- n23&#45;&gt;n24 -->
<g id="edge24" class="edge">
<title>n23&#45;&gt;n24</title>
<path fill="none" stroke="black" d="M3665.59,-778.68C3645.06,-767.49 3622.13,-755 3601.01,-743.5"/>
<polygon fill="black" stroke="black" points="3602.54,-740.34 3592.08,-738.63 3599.19,-746.49 3602.54,-740.34"/>
</g>
<!-- n27 -->
<g id="node26" class="node">
<title>n27</title>
<ellipse fill="#98D2A5" stroke="black" cx="3928.87" cy="-703.2" rx="190.84" ry="37.45"/>
<text text-anchor="middle" x="3928.87" y="-714.5" font-family="Times,serif" font-size="14.00">utilizando</text>
<text text-anchor="middle" x="3928.87" y="-699.5" font-family="Times,serif" font-size="14.00">vmg0000 (advcl)</text>
<text text-anchor="middle" x="3928.87" y="-684.5" font-family="Times,serif" font-size="14.00">rep=no, t=no, r=yes, m=yes, c=no</text>
</g>
<!-- n23&#45;&gt;n27 -->
<g id="edge25" class="edge">
<title>n23&#45;&gt;n27</title>
<path fill="none" stroke="black" d="M3792.15,-778.68C3812.68,-767.49 3835.6,-755 3856.73,-743.5"/>
<polygon fill="black" stroke="black" points="3858.55,-746.49 3865.66,-738.63 3855.2,-740.34 3858.55,-746.49"/>
</g>
<!-- n26 -->
<g id="node27" class="node">
<title>n26</title>
<ellipse fill="#98D2A5" stroke="black" cx="3528.87" cy="-592.24" rx="190.84" ry="37.45"/>
<text text-anchor="middle" x="3528.87" y="-603.54" font-family="Times,serif" font-size="14.00">partido</text>
<text text-anchor="middle" x="3528.87" y="-588.54" font-family="Times,serif" font-size="14.00">ncms000 (pobj)</text>
<text text-anchor="middle" x="3528.87" y="-573.54" font-family="Times,serif" font-size="14.00">rep=no, t=no, r=yes, m=yes, c=no</text>
</g>
<!-- n24&#45;&gt;n26 -->
<g id="edge26" class="edge">
<title>n24&#45;&gt;n26</title>
<path fill="none" stroke="black" d="M3528.87,-665.61C3528.87,-657.44 3528.87,-648.66 3528.87,-640.13"/>
<polygon fill="black" stroke="black" points="3532.37,-639.92 3528.87,-629.92 3525.37,-639.92 3532.37,-639.92"/>
</g>
<!-- n29 -->
<g id="node29" class="node">
<title>n29</title>
<ellipse fill="#98D2A5" stroke="black" cx="3928.87" cy="-592.24" rx="190.84" ry="37.45"/>
<text text-anchor="middle" x="3928.87" y="-603.54" font-family="Times,serif" font-size="14.00">términos</text>
<text text-anchor="middle" x="3928.87" y="-588.54" font-family="Times,serif" font-size="14.00">ncmp000 (dobj)</text>
<text text-anchor="middle" x="3928.87" y="-573.54" font-family="Times,serif" font-size="14.00">rep=no, t=no, r=yes, m=yes, c=no</text>
</g>
<!-- n27&#45;&gt;n29 -->
<g id="edge28" class="edge">
<title>n27&#45;&gt;n29</title>
<path fill="none" stroke="black" d="M3928.87,-665.61C3928.87,-657.44 3928.87,-648.66 3928.87,-640.13"/>
<polygon fill="black" stroke="black" points="3932.37,-639.92 3928.87,-629.92 3925.37,-639.92 3932.37,-639.92"/>
</g>
<!-- n25 -->
<g id="node28" class="node">
<title>n25</title>
<ellipse fill="#98D2A5" stroke="black" cx="3528.87" cy="-481.29" rx="190.84" ry="37.45"/>
<text text-anchor="middle" x="3528.87" y="-492.59" font-family="Times,serif" font-size="14.00">su</text>
<text text-anchor="middle" x="3528.87" y="-477.59" font-family="Times,serif" font-size="14.00">dp3cs0 (poss)</text>
<text text-anchor="middle" x="3528.87" y="-462.59" font-family="Times,serif" font-size="14.00">rep=no, t=no, r=yes, m=yes, c=no</text>
</g>
<!-- n26&#45;&gt;n25 -->
<g id="edge27" class="edge">
<title>n26&#45;&gt;n25</title>
<path fill="none" stroke="black" d="M3528.87,-554.66C3528.87,-546.49 3528.87,-537.71 3528.87,-529.18"/>
<polygon fill="black" stroke="black" points="3532.37,-528.96 3528.87,-518.96 3525.37,-528.96 3532.37,-528.96"/>
</g>
<!-- n28 -->
<g id="node30" class="node">
<title>n28</title>
<ellipse fill="#98D2A5" stroke="black" cx="3928.87" cy="-481.29" rx="190.84" ry="37.45"/>
<text text-anchor="middle" x="3928.87" y="-492.59" font-family="Times,serif" font-size="14.00">los</text>
<text text-anchor="middle" x="3928.87" y="-477.59" font-family="Times,serif" font-size="14.00">da0mp0 (det)</text>
<text text-anchor="middle" x="3928.87" y="-462.59" font-family="Times,serif" font-size="14.00">rep=no, t=no, r=yes, m=yes, c=no</text>
</g>
<!-- n29&#45;&gt;n28 -->
<g id="edge29" class="edge">
<title>n29&#45;&gt;n28</title>
<path fill="none" stroke="black" d="M3928.87,-554.66C3928.87,-546.49 3928.87,-537.71 3928.87,-529.18"/>
<polygon fill="black" stroke="black" points="3932.37,-528.96 3928.87,-518.96 3925.37,-528.96 3932.37,-528.96"/>
</g>
<!-- n30 -->
<g id="node31" class="node">
<title>n30</title>
<ellipse fill="#98D2A5" stroke="black" cx="4328.87" cy="-481.29" rx="190.84" ry="37.45"/>
<text text-anchor="middle" x="4328.87" y="-492.59" font-family="Times,serif" font-size="14.00">de</text>
<text text-anchor="middle" x="4328.87" y="-477.59" font-family="Times,serif" font-size="14.00">sps00 (prepn)</text>
<text text-anchor="middle" x="4328.87" y="-462.59" font-family="Times,serif" font-size="14.00">rep=no, t=no, r=yes, m=yes, c=no</text>
</g>
<!-- n29&#45;&gt;n30 -->
<g id="edge30" class="edge">
<title>n29&#45;&gt;n30</title>
<path fill="none" stroke="black" d="M4038.17,-561.47C4091.3,-547 4155.28,-529.57 4209.66,-514.76"/>
<polygon fill="black" stroke="black" points="4210.62,-518.13 4219.35,-512.12 4208.78,-511.37 4210.62,-518.13"/>
</g>
<!-- n32 -->
<g id="node32" class="node">
<title>n32</title>
<ellipse fill="#98D2A5" stroke="black" cx="3826.87" cy="-370.34" rx="195.74" ry="37.45"/>
<text text-anchor="middle" x="3826.87" y="-381.64" font-family="Times,serif" font-size="14.00">organización</text>
<text text-anchor="middle" x="3826.87" y="-366.64" font-family="Times,serif" font-size="14.00">ncfs000 (pobj)</text>
<text text-anchor="middle" x="3826.87" y="-351.64" font-family="Times,serif" font-size="14.00">rep=no, t=no, r=yes, m=yes, c=yes</text>
</g>
<!-- n30&#45;&gt;n32 -->
<g id="edge31" class="edge">
<title>n30&#45;&gt;n32</title>
<path fill="none" stroke="black" d="M4203.16,-453.01C4130.34,-437.2 4038.6,-417.29 3963.93,-401.08"/>
<polygon fill="black" stroke="black" points="3964.49,-397.63 3953.98,-398.92 3963.01,-404.47 3964.49,-397.63"/>
</g>
<!-- n35 -->
<g id="node33" class="node">
<title>n35</title>
<ellipse fill="#98D2A5" stroke="black" cx="4328.87" cy="-370.34" rx="190.84" ry="37.45"/>
<text text-anchor="middle" x="4328.87" y="-381.64" font-family="Times,serif" font-size="14.00">y</text>
<text text-anchor="middle" x="4328.87" y="-366.64" font-family="Times,serif" font-size="14.00">cc (coord_fixed)</text>
<text text-anchor="middle" x="4328.87" y="-351.64" font-family="Times,serif" font-size="14.00">rep=no, t=no, r=yes, m=yes, c=no</text>
</g>
<!-- n30&#45;&gt;n35 -->
<g id="edge32" class="edge">
<title>n30&#45;&gt;n35</title>
<path fill="none" stroke="black" d="M4328.87,-443.71C4328.87,-435.53 4328.87,-426.75 4328.87,-418.23"/>
<polygon fill="black" stroke="black" points="4332.37,-418.01 4328.87,-408.01 4325.37,-418.01 4332.37,-418.01"/>
</g>
<!-- n37 -->
<g id="node34" class="node">
<title>n37</title>
<ellipse fill="#98D2A5" stroke="black" cx="4782.87" cy="-370.34" rx="195.74" ry="37.45"/>
<text text-anchor="middle" x="4782.87" y="-381.64" font-family="Times,serif" font-size="14.00">organización</text>
<text text-anchor="middle" x="4782.87" y="-366.64" font-family="Times,serif" font-size="14.00">ncfs000 (pobj)</text>
<text text-anchor="middle" x="4782.87" y="-351.64" font-family="Times,serif" font-size="14.00">rep=no, t=no, r=yes, m=yes, c=yes</text>
</g>
<!-- n30&#45;&gt;n37 -->
<g id="edge33" class="edge">
<title>n30&#45;&gt;n37</title>
<path fill="none" stroke="black" d="M4447.26,-451.88C4510.49,-436.7 4588.42,-418 4653.26,-402.44"/>
<polygon fill="black" stroke="black" points="4654.24,-405.81 4663.14,-400.07 4652.6,-399 4654.24,-405.81"/>
</g>
<!-- n31 -->
<g id="node35" class="node">
<title>n31</title>
<ellipse fill="#98D2A5" stroke="black" cx="3231.87" cy="-259.38" rx="190.84" ry="37.45"/>
<text text-anchor="middle" x="3231.87" y="-270.68" font-family="Times,serif" font-size="14.00">&quot;</text>
<text text-anchor="middle" x="3231.87" y="-255.68" font-family="Times,serif" font-size="14.00">fe (punct)</text>
<text text-anchor="middle" x="3231.87" y="-240.68" font-family="Times,serif" font-size="14.00">rep=no, t=no, r=yes, m=yes, c=no</text>
</g>
<!-- n32&#45;&gt;n31 -->
<g id="edge34" class="edge">
<title>n32&#45;&gt;n31</title>
<path fill="none" stroke="black" d="M3687.74,-343.86C3595.03,-326.88 3473.36,-304.6 3379.03,-287.33"/>
<polygon fill="black" stroke="black" points="3379.59,-283.88 3369.13,-285.52 3378.33,-290.76 3379.59,-283.88"/>
</g>
<!-- n33 -->
<g id="node36" class="node">
<title>n33</title>
<ellipse fill="#98D2A5" stroke="black" cx="3631.87" cy="-259.38" rx="190.84" ry="37.45"/>
<text text-anchor="middle" x="3631.87" y="-270.68" font-family="Times,serif" font-size="14.00">mafiosa</text>
<text text-anchor="middle" x="3631.87" y="-255.68" font-family="Times,serif" font-size="14.00">aq0fs0 (amod)</text>
<text text-anchor="middle" x="3631.87" y="-240.68" font-family="Times,serif" font-size="14.00">rep=no, t=no, r=yes, m=yes, c=no</text>
</g>
<!-- n32&#45;&gt;n33 -->
<g id="edge35" class="edge">
<title>n32&#45;&gt;n33</title>
<path fill="none" stroke="black" d="M3764.9,-334.71C3745.08,-323.64 3723,-311.3 3702.6,-299.91"/>
<polygon fill="black" stroke="black" points="3704.11,-296.74 3693.67,-294.92 3700.7,-302.85 3704.11,-296.74"/>
</g>
<!-- n34 -->
<g id="node37" class="node">
<title>n34</title>
<ellipse fill="#98D2A5" stroke="black" cx="4031.87" cy="-259.38" rx="190.84" ry="37.45"/>
<text text-anchor="middle" x="4031.87" y="-270.68" font-family="Times,serif" font-size="14.00">&quot;</text>
<text text-anchor="middle" x="4031.87" y="-255.68" font-family="Times,serif" font-size="14.00">fe (punct)</text>
<text text-anchor="middle" x="4031.87" y="-240.68" font-family="Times,serif" font-size="14.00">rep=no, t=no, r=yes, m=yes, c=no</text>
</g>
<!-- n32&#45;&gt;n34 -->
<g id="edge36" class="edge">
<title>n32&#45;&gt;n34</title>
<path fill="none" stroke="black" d="M3891.73,-334.86C3912.87,-323.63 3936.48,-311.08 3958.21,-299.53"/>
<polygon fill="black" stroke="black" points="3959.89,-302.6 3967.08,-294.82 3956.6,-296.42 3959.89,-302.6"/>
</g>
<!-- n36 -->
<g id="node38" class="node">
<title>n36</title>
<ellipse fill="#98D2A5" stroke="black" cx="4431.87" cy="-259.38" rx="190.84" ry="37.45"/>
<text text-anchor="middle" x="4431.87" y="-270.68" font-family="Times,serif" font-size="14.00">&quot;</text>
<text text-anchor="middle" x="4431.87" y="-255.68" font-family="Times,serif" font-size="14.00">fe (punct)</text>
<text text-anchor="middle" x="4431.87" y="-240.68" font-family="Times,serif" font-size="14.00">rep=no, t=no, r=yes, m=yes, c=no</text>
</g>
<!-- n37&#45;&gt;n36 -->
<g id="edge37" class="edge">
<title>n37&#45;&gt;n36</title>
<path fill="none" stroke="black" d="M4682.29,-338.11C4638.31,-324.47 4586.61,-308.42 4541.64,-294.46"/>
<polygon fill="black" stroke="black" points="4542.45,-291.04 4531.86,-291.42 4540.37,-297.73 4542.45,-291.04"/>
</g>
<!-- n38 -->
<g id="node39" class="node">
<title>n38</title>
<ellipse fill="#98D2A5" stroke="black" cx="4831.87" cy="-259.38" rx="190.84" ry="37.45"/>
<text text-anchor="middle" x="4831.87" y="-270.68" font-family="Times,serif" font-size="14.00">de</text>
<text text-anchor="middle" x="4831.87" y="-255.68" font-family="Times,serif" font-size="14.00">sps00 (prepn)</text>
<text text-anchor="middle" x="4831.87" y="-240.68" font-family="Times,serif" font-size="14.00">rep=no, t=no, r=yes, m=yes, c=no</text>
</g>
<!-- n37&#45;&gt;n38 -->
<g id="edge38" class="edge">
<title>n37&#45;&gt;n38</title>
<path fill="none" stroke="black" d="M4799.32,-332.75C4803.12,-324.31 4807.21,-315.22 4811.16,-306.43"/>
<polygon fill="black" stroke="black" points="4814.47,-307.61 4815.38,-297.06 4808.08,-304.74 4814.47,-307.61"/>
</g>
<!-- n41 -->
<g id="node40" class="node">
<title>n41</title>
<ellipse fill="#98D2A5" stroke="black" cx="5231.87" cy="-259.38" rx="190.84" ry="37.45"/>
<text text-anchor="middle" x="5231.87" y="-270.68" font-family="Times,serif" font-size="14.00">&quot;</text>
<text text-anchor="middle" x="5231.87" y="-255.68" font-family="Times,serif" font-size="14.00">fe (punct)</text>
<text text-anchor="middle" x="5231.87" y="-240.68" font-family="Times,serif" font-size="14.00">rep=no, t=no, r=yes, m=yes, c=no</text>
</g>
<!-- n37&#45;&gt;n41 -->
<g id="edge39" class="edge">
<title>n37&#45;&gt;n41</title>
<path fill="none" stroke="black" d="M4901.72,-340.5C4963.99,-325.39 5040.31,-306.87 5103.88,-291.44"/>
<polygon fill="black" stroke="black" points="5105.07,-294.75 5113.96,-288.99 5103.42,-287.95 5105.07,-294.75"/>
</g>
<!-- n39 -->
<g id="node41" class="node">
<title>n39</title>
<ellipse fill="#98D2A5" stroke="black" cx="4831.87" cy="-148.43" rx="190.84" ry="37.45"/>
<text text-anchor="middle" x="4831.87" y="-159.73" font-family="Times,serif" font-size="14.00">métodos</text>
<text text-anchor="middle" x="4831.87" y="-144.73" font-family="Times,serif" font-size="14.00">ncmp000 (pobj)</text>
<text text-anchor="middle" x="4831.87" y="-129.73" font-family="Times,serif" font-size="14.00">rep=no, t=no, r=yes, m=yes, c=no</text>
</g>
<!-- n38&#45;&gt;n39 -->
<g id="edge40" class="edge">
<title>n38&#45;&gt;n39</title>
<path fill="none" stroke="black" d="M4831.87,-221.8C4831.87,-213.63 4831.87,-204.85 4831.87,-196.32"/>
<polygon fill="black" stroke="black" points="4835.37,-196.1 4831.87,-186.1 4828.37,-196.1 4835.37,-196.1"/>
</g>
<!-- n40 -->
<g id="node42" class="node">
<title>n40</title>
<ellipse fill="#98D2A5" stroke="black" cx="4831.87" cy="-37.48" rx="190.84" ry="37.45"/>
<text text-anchor="middle" x="4831.87" y="-48.78" font-family="Times,serif" font-size="14.00">gansteriles</text>
<text text-anchor="middle" x="4831.87" y="-33.78" font-family="Times,serif" font-size="14.00">aq0cp0 (amod)</text>
<text text-anchor="middle" x="4831.87" y="-18.78" font-family="Times,serif" font-size="14.00">rep=no, t=no, r=yes, m=yes, c=no</text>
</g>
<!-- n39&#45;&gt;n40 -->
<g id="edge41" class="edge">
<title>n39&#45;&gt;n40</title>
<path fill="none" stroke="black" d="M4831.87,-110.85C4831.87,-102.67 4831.87,-93.89 4831.87,-85.37"/>
<polygon fill="black" stroke="black" points="4835.37,-85.15 4831.87,-75.15 4828.37,-85.15 4835.37,-85.15"/>
</g>
</g>
</svg>
