<?xml version="1.0" encoding="UTF-8" standalone="no"?>
<!DOCTYPE svg PUBLIC "-//W3C//DTD SVG 1.1//EN"
 "http://www.w3.org/Graphics/SVG/1.1/DTD/svg11.dtd">
<!-- Generated by graphviz version 2.43.0 (0)
 -->
<!-- Title: tree Pages: 1 -->
<svg width="2495pt" height="749pt"
 viewBox="0.00 0.00 2494.70 748.67" xmlns="http://www.w3.org/2000/svg" xmlns:xlink="http://www.w3.org/1999/xlink">
<g id="graph0" class="graph" transform="scale(1 1) rotate(0) translate(4 744.67)">
<title>tree</title>
<polygon fill="white" stroke="transparent" points="-4,4 -4,-744.67 2490.7,-744.67 2490.7,4 -4,4"/>
<!-- n2 -->
<g id="node1" class="node">
<title>n2</title>
<ellipse fill="none" stroke="black" cx="1154.97" cy="-703.2" rx="185.94" ry="37.45"/>
<text text-anchor="middle" x="1154.97" y="-714.5" font-family="Times,serif" font-size="14.00">hay</text>
<text text-anchor="middle" x="1154.97" y="-699.5" font-family="Times,serif" font-size="14.00">vaip3s0 (root)</text>
<text text-anchor="middle" x="1154.97" y="-684.5" font-family="Times,serif" font-size="14.00">rep=no, t=no, r=no, m=yes, c=no</text>
</g>
<!-- n1 -->
<g id="node2" class="node">
<title>n1</title>
<ellipse fill="none" stroke="black" cx="185.97" cy="-592.24" rx="185.94" ry="37.45"/>
<text text-anchor="middle" x="185.97" y="-603.54" font-family="Times,serif" font-size="14.00">Pero</text>
<text text-anchor="middle" x="185.97" y="-588.54" font-family="Times,serif" font-size="14.00">cc (coord_fixed)</text>
<text text-anchor="middle" x="185.97" y="-573.54" font-family="Times,serif" font-size="14.00">rep=no, t=no, r=no, m=yes, c=no</text>
</g>
<!-- n2&#45;&gt;n1 -->
<g id="edge1" class="edge">
<title>n2&#45;&gt;n1</title>
<path fill="none" stroke="black" d="M979.99,-690.41C822.77,-678.72 585.8,-658.41 380.97,-629.72 362.97,-627.2 344.11,-624.17 325.5,-620.94"/>
<polygon fill="black" stroke="black" points="325.95,-617.47 315.5,-619.19 324.74,-624.36 325.95,-617.47"/>
</g>
<!-- n4 -->
<g id="node3" class="node">
<title>n4</title>
<ellipse fill="none" stroke="black" cx="575.97" cy="-592.24" rx="185.94" ry="37.45"/>
<text text-anchor="middle" x="575.97" y="-603.54" font-family="Times,serif" font-size="14.00">capítulo</text>
<text text-anchor="middle" x="575.97" y="-588.54" font-family="Times,serif" font-size="14.00">ncms000 (dobj)</text>
<text text-anchor="middle" x="575.97" y="-573.54" font-family="Times,serif" font-size="14.00">rep=no, t=no, r=no, m=yes, c=no</text>
</g>
<!-- n2&#45;&gt;n4 -->
<g id="edge2" class="edge">
<title>n2&#45;&gt;n4</title>
<path fill="none" stroke="black" d="M1021.41,-677.06C931.1,-660.07 811.94,-637.65 719.59,-620.27"/>
<polygon fill="black" stroke="black" points="720.08,-616.8 709.61,-618.39 718.79,-623.68 720.08,-616.8"/>
</g>
<!-- n5 -->
<g id="node4" class="node">
<title>n5</title>
<ellipse fill="none" stroke="black" cx="961.97" cy="-592.24" rx="181.95" ry="37.45"/>
<text text-anchor="middle" x="961.97" y="-603.54" font-family="Times,serif" font-size="14.00">en</text>
<text text-anchor="middle" x="961.97" y="-588.54" font-family="Times,serif" font-size="14.00">sps00 (prepv)</text>
<text text-anchor="middle" x="961.97" y="-573.54" font-family="Times,serif" font-size="14.00">rep=no, t=no, r=no, m=no, c=no</text>
</g>
<!-- n2&#45;&gt;n5 -->
<g id="edge3" class="edge">
<title>n2&#45;&gt;n5</title>
<path fill="none" stroke="black" d="M1093.9,-667.72C1074.18,-656.59 1052.17,-644.16 1031.86,-632.7"/>
<polygon fill="black" stroke="black" points="1033.4,-629.55 1022.97,-627.68 1029.96,-635.64 1033.4,-629.55"/>
</g>
<!-- n8 -->
<g id="node5" class="node">
<title>n8</title>
<ellipse fill="none" stroke="black" cx="1347.97" cy="-592.24" rx="185.94" ry="37.45"/>
<text text-anchor="middle" x="1347.97" y="-603.54" font-family="Times,serif" font-size="14.00">que</text>
<text text-anchor="middle" x="1347.97" y="-588.54" font-family="Times,serif" font-size="14.00">pr0cn000 (nsubj)</text>
<text text-anchor="middle" x="1347.97" y="-573.54" font-family="Times,serif" font-size="14.00">rep=no, t=no, r=no, m=yes, c=no</text>
</g>
<!-- n2&#45;&gt;n8 -->
<g id="edge4" class="edge">
<title>n2&#45;&gt;n8</title>
<path fill="none" stroke="black" d="M1216.04,-667.72C1235.76,-656.59 1257.77,-644.16 1278.08,-632.7"/>
<polygon fill="black" stroke="black" points="1279.98,-635.64 1286.97,-627.68 1276.54,-629.55 1279.98,-635.64"/>
</g>
<!-- n9 -->
<g id="node6" class="node">
<title>n9</title>
<ellipse fill="none" stroke="black" cx="1733.97" cy="-592.24" rx="181.95" ry="37.45"/>
<text text-anchor="middle" x="1733.97" y="-603.54" font-family="Times,serif" font-size="14.00">establece</text>
<text text-anchor="middle" x="1733.97" y="-588.54" font-family="Times,serif" font-size="14.00">vmip3s0 (rcmod)</text>
<text text-anchor="middle" x="1733.97" y="-573.54" font-family="Times,serif" font-size="14.00">rep=no, t=no, r=no, m=no, c=no</text>
</g>
<!-- n2&#45;&gt;n9 -->
<g id="edge5" class="edge">
<title>n2&#45;&gt;n9</title>
<path fill="none" stroke="black" d="M1289.22,-677.26C1363.94,-663.34 1458.63,-645.65 1542.97,-629.72 1559.26,-626.64 1576.33,-623.4 1593.28,-620.18"/>
<polygon fill="black" stroke="black" points="1594.07,-623.59 1603.24,-618.28 1592.76,-616.71 1594.07,-623.59"/>
</g>
<!-- n20 -->
<g id="node7" class="node">
<title>n20</title>
<ellipse fill="none" stroke="black" cx="2114.97" cy="-592.24" rx="181.95" ry="37.45"/>
<text text-anchor="middle" x="2114.97" y="-603.54" font-family="Times,serif" font-size="14.00">.</text>
<text text-anchor="middle" x="2114.97" y="-588.54" font-family="Times,serif" font-size="14.00">fp (punct)</text>
<text text-anchor="middle" x="2114.97" y="-573.54" font-family="Times,serif" font-size="14.00">rep=no, t=no, r=no, m=no, c=no</text>
</g>
<!-- n2&#45;&gt;n20 -->
<g id="edge6" class="edge">
<title>n2&#45;&gt;n20</title>
<path fill="none" stroke="black" d="M1330.23,-690.51C1486.66,-678.93 1721.76,-658.72 1924.97,-629.72 1942.43,-627.23 1960.73,-624.22 1978.78,-621.02"/>
<polygon fill="black" stroke="black" points="1979.56,-624.44 1988.78,-619.22 1978.32,-617.55 1979.56,-624.44"/>
</g>
<!-- n3 -->
<g id="node8" class="node">
<title>n3</title>
<ellipse fill="none" stroke="black" cx="575.97" cy="-481.29" rx="185.94" ry="37.45"/>
<text text-anchor="middle" x="575.97" y="-492.59" font-family="Times,serif" font-size="14.00">un</text>
<text text-anchor="middle" x="575.97" y="-477.59" font-family="Times,serif" font-size="14.00">di0ms0 (det)</text>
<text text-anchor="middle" x="575.97" y="-462.59" font-family="Times,serif" font-size="14.00">rep=no, t=no, r=no, m=yes, c=no</text>
</g>
<!-- n4&#45;&gt;n3 -->
<g id="edge7" class="edge">
<title>n4&#45;&gt;n3</title>
<path fill="none" stroke="black" d="M575.97,-554.66C575.97,-546.49 575.97,-537.71 575.97,-529.18"/>
<polygon fill="black" stroke="black" points="579.47,-528.96 575.97,-518.96 572.47,-528.96 579.47,-528.96"/>
</g>
<!-- n7 -->
<g id="node9" class="node">
<title>n7</title>
<ellipse fill="none" stroke="black" cx="961.97" cy="-481.29" rx="181.95" ry="37.45"/>
<text text-anchor="middle" x="961.97" y="-492.59" font-family="Times,serif" font-size="14.00">Constitución</text>
<text text-anchor="middle" x="961.97" y="-477.59" font-family="Times,serif" font-size="14.00">np00000 (pobj)</text>
<text text-anchor="middle" x="961.97" y="-462.59" font-family="Times,serif" font-size="14.00">rep=no, t=no, r=no, m=no, c=no</text>
</g>
<!-- n5&#45;&gt;n7 -->
<g id="edge8" class="edge">
<title>n5&#45;&gt;n7</title>
<path fill="none" stroke="black" d="M961.97,-554.66C961.97,-546.49 961.97,-537.71 961.97,-529.18"/>
<polygon fill="black" stroke="black" points="965.47,-528.96 961.97,-518.96 958.47,-528.96 965.47,-528.96"/>
</g>
<!-- n10 -->
<g id="node11" class="node">
<title>n10</title>
<ellipse fill="none" stroke="black" cx="1733.97" cy="-481.29" rx="181.95" ry="37.45"/>
<text text-anchor="middle" x="1733.97" y="-492.59" font-family="Times,serif" font-size="14.00">que</text>
<text text-anchor="middle" x="1733.97" y="-477.59" font-family="Times,serif" font-size="14.00">cs (dobj)</text>
<text text-anchor="middle" x="1733.97" y="-462.59" font-family="Times,serif" font-size="14.00">rep=no, t=no, r=no, m=no, c=no</text>
</g>
<!-- n9&#45;&gt;n10 -->
<g id="edge10" class="edge">
<title>n9&#45;&gt;n10</title>
<path fill="none" stroke="black" d="M1733.97,-554.66C1733.97,-546.49 1733.97,-537.71 1733.97,-529.18"/>
<polygon fill="black" stroke="black" points="1737.47,-528.96 1733.97,-518.96 1730.47,-528.96 1737.47,-528.96"/>
</g>
<!-- n6 -->
<g id="node10" class="node">
<title>n6</title>
<ellipse fill="none" stroke="black" cx="961.97" cy="-370.34" rx="181.95" ry="37.45"/>
<text text-anchor="middle" x="961.97" y="-381.64" font-family="Times,serif" font-size="14.00">la</text>
<text text-anchor="middle" x="961.97" y="-366.64" font-family="Times,serif" font-size="14.00">da0fs0 (det)</text>
<text text-anchor="middle" x="961.97" y="-351.64" font-family="Times,serif" font-size="14.00">rep=no, t=no, r=no, m=no, c=no</text>
</g>
<!-- n7&#45;&gt;n6 -->
<g id="edge9" class="edge">
<title>n7&#45;&gt;n6</title>
<path fill="none" stroke="black" d="M961.97,-443.71C961.97,-435.53 961.97,-426.75 961.97,-418.23"/>
<polygon fill="black" stroke="black" points="965.47,-418.01 961.97,-408.01 958.47,-418.01 965.47,-418.01"/>
</g>
<!-- n15 -->
<g id="node12" class="node">
<title>n15</title>
<ellipse fill="none" stroke="black" cx="1733.97" cy="-370.34" rx="181.95" ry="37.45"/>
<text text-anchor="middle" x="1733.97" y="-381.64" font-family="Times,serif" font-size="14.00">son</text>
<text text-anchor="middle" x="1733.97" y="-366.64" font-family="Times,serif" font-size="14.00">vsip3p0 (cobj)</text>
<text text-anchor="middle" x="1733.97" y="-351.64" font-family="Times,serif" font-size="14.00">rep=no, t=no, r=no, m=no, c=no</text>
</g>
<!-- n10&#45;&gt;n15 -->
<g id="edge11" class="edge">
<title>n10&#45;&gt;n15</title>
<path fill="none" stroke="black" d="M1733.97,-443.71C1733.97,-435.53 1733.97,-426.75 1733.97,-418.23"/>
<polygon fill="black" stroke="black" points="1737.47,-418.01 1733.97,-408.01 1730.47,-418.01 1737.47,-418.01"/>
</g>
<!-- n11 -->
<g id="node13" class="node">
<title>n11</title>
<ellipse fill="none" stroke="black" cx="1352.97" cy="-259.38" rx="181.95" ry="37.45"/>
<text text-anchor="middle" x="1352.97" y="-270.68" font-family="Times,serif" font-size="14.00">en</text>
<text text-anchor="middle" x="1352.97" y="-255.68" font-family="Times,serif" font-size="14.00">sps00 (prepv)</text>
<text text-anchor="middle" x="1352.97" y="-240.68" font-family="Times,serif" font-size="14.00">rep=no, t=no, r=no, m=no, c=no</text>
</g>
<!-- n15&#45;&gt;n11 -->
<g id="edge12" class="edge">
<title>n15&#45;&gt;n11</title>
<path fill="none" stroke="black" d="M1629.86,-339.56C1579.35,-325.12 1518.57,-307.74 1466.84,-292.95"/>
<polygon fill="black" stroke="black" points="1467.53,-289.5 1456.95,-290.12 1465.61,-296.23 1467.53,-289.5"/>
</g>
<!-- n16 -->
<g id="node14" class="node">
<title>n16</title>
<ellipse fill="none" stroke="black" cx="1733.97" cy="-259.38" rx="181.95" ry="37.45"/>
<text text-anchor="middle" x="1733.97" y="-270.68" font-family="Times,serif" font-size="14.00">vigentes</text>
<text text-anchor="middle" x="1733.97" y="-255.68" font-family="Times,serif" font-size="14.00">aq0cp0 (attr)</text>
<text text-anchor="middle" x="1733.97" y="-240.68" font-family="Times,serif" font-size="14.00">rep=no, t=no, r=no, m=no, c=no</text>
</g>
<!-- n15&#45;&gt;n16 -->
<g id="edge13" class="edge">
<title>n15&#45;&gt;n16</title>
<path fill="none" stroke="black" d="M1733.97,-332.75C1733.97,-324.58 1733.97,-315.8 1733.97,-307.27"/>
<polygon fill="black" stroke="black" points="1737.47,-307.06 1733.97,-297.06 1730.47,-307.06 1737.47,-307.06"/>
</g>
<!-- n18 -->
<g id="node15" class="node">
<title>n18</title>
<ellipse fill="none" stroke="black" cx="2114.97" cy="-259.38" rx="181.95" ry="37.45"/>
<text text-anchor="middle" x="2114.97" y="-270.68" font-family="Times,serif" font-size="14.00">leyes</text>
<text text-anchor="middle" x="2114.97" y="-255.68" font-family="Times,serif" font-size="14.00">ncfp000 (nsubj)</text>
<text text-anchor="middle" x="2114.97" y="-240.68" font-family="Times,serif" font-size="14.00">rep=no, t=no, r=no, m=no, c=no</text>
</g>
<!-- n15&#45;&gt;n18 -->
<g id="edge14" class="edge">
<title>n15&#45;&gt;n18</title>
<path fill="none" stroke="black" d="M1838.08,-339.56C1888.58,-325.12 1949.37,-307.74 2001.1,-292.95"/>
<polygon fill="black" stroke="black" points="2002.33,-296.23 2010.99,-290.12 2000.41,-289.5 2002.33,-296.23"/>
</g>
<!-- n13 -->
<g id="node16" class="node">
<title>n13</title>
<ellipse fill="none" stroke="black" cx="1352.97" cy="-148.43" rx="181.95" ry="37.45"/>
<text text-anchor="middle" x="1352.97" y="-159.73" font-family="Times,serif" font-size="14.00">periodo</text>
<text text-anchor="middle" x="1352.97" y="-144.73" font-family="Times,serif" font-size="14.00">ncms000 (pobj)</text>
<text text-anchor="middle" x="1352.97" y="-129.73" font-family="Times,serif" font-size="14.00">rep=no, t=no, r=no, m=no, c=no</text>
</g>
<!-- n11&#45;&gt;n13 -->
<g id="edge15" class="edge">
<title>n11&#45;&gt;n13</title>
<path fill="none" stroke="black" d="M1352.97,-221.8C1352.97,-213.63 1352.97,-204.85 1352.97,-196.32"/>
<polygon fill="black" stroke="black" points="1356.47,-196.1 1352.97,-186.1 1349.47,-196.1 1356.47,-196.1"/>
</g>
<!-- n17 -->
<g id="node19" class="node">
<title>n17</title>
<ellipse fill="none" stroke="black" cx="1923.97" cy="-148.43" rx="181.95" ry="37.45"/>
<text text-anchor="middle" x="1923.97" y="-159.73" font-family="Times,serif" font-size="14.00">las</text>
<text text-anchor="middle" x="1923.97" y="-144.73" font-family="Times,serif" font-size="14.00">da0fp0 (det)</text>
<text text-anchor="middle" x="1923.97" y="-129.73" font-family="Times,serif" font-size="14.00">rep=no, t=no, r=no, m=no, c=no</text>
</g>
<!-- n18&#45;&gt;n17 -->
<g id="edge18" class="edge">
<title>n18&#45;&gt;n17</title>
<path fill="none" stroke="black" d="M2054.54,-223.91C2035.02,-212.78 2013.23,-200.35 1993.14,-188.89"/>
<polygon fill="black" stroke="black" points="1994.76,-185.78 1984.34,-183.87 1991.29,-191.86 1994.76,-185.78"/>
</g>
<!-- n19 -->
<g id="node20" class="node">
<title>n19</title>
<ellipse fill="none" stroke="black" cx="2304.97" cy="-148.43" rx="181.95" ry="37.45"/>
<text text-anchor="middle" x="2304.97" y="-159.73" font-family="Times,serif" font-size="14.00">anteriores</text>
<text text-anchor="middle" x="2304.97" y="-144.73" font-family="Times,serif" font-size="14.00">aq0cp0 (amod)</text>
<text text-anchor="middle" x="2304.97" y="-129.73" font-family="Times,serif" font-size="14.00">rep=no, t=no, r=no, m=no, c=no</text>
</g>
<!-- n18&#45;&gt;n19 -->
<g id="edge19" class="edge">
<title>n18&#45;&gt;n19</title>
<path fill="none" stroke="black" d="M2175.09,-223.91C2194.5,-212.78 2216.17,-200.35 2236.16,-188.89"/>
<polygon fill="black" stroke="black" points="2237.98,-191.88 2244.92,-183.87 2234.5,-185.8 2237.98,-191.88"/>
</g>
<!-- n12 -->
<g id="node17" class="node">
<title>n12</title>
<ellipse fill="none" stroke="black" cx="1162.97" cy="-37.48" rx="181.95" ry="37.45"/>
<text text-anchor="middle" x="1162.97" y="-48.78" font-family="Times,serif" font-size="14.00">el</text>
<text text-anchor="middle" x="1162.97" y="-33.78" font-family="Times,serif" font-size="14.00">da0ms0 (det)</text>
<text text-anchor="middle" x="1162.97" y="-18.78" font-family="Times,serif" font-size="14.00">rep=no, t=no, r=no, m=no, c=no</text>
</g>
<!-- n13&#45;&gt;n12 -->
<g id="edge16" class="edge">
<title>n13&#45;&gt;n12</title>
<path fill="none" stroke="black" d="M1292.85,-112.96C1273.44,-101.82 1251.77,-89.4 1231.77,-77.93"/>
<polygon fill="black" stroke="black" points="1233.44,-74.85 1223.02,-72.91 1229.95,-80.92 1233.44,-74.85"/>
</g>
<!-- n14 -->
<g id="node18" class="node">
<title>n14</title>
<ellipse fill="none" stroke="black" cx="1543.97" cy="-37.48" rx="181.95" ry="37.45"/>
<text text-anchor="middle" x="1543.97" y="-48.78" font-family="Times,serif" font-size="14.00">transitorio</text>
<text text-anchor="middle" x="1543.97" y="-33.78" font-family="Times,serif" font-size="14.00">aq0ms0 (amod)</text>
<text text-anchor="middle" x="1543.97" y="-18.78" font-family="Times,serif" font-size="14.00">rep=no, t=no, r=no, m=no, c=no</text>
</g>
<!-- n13&#45;&gt;n14 -->
<g id="edge17" class="edge">
<title>n13&#45;&gt;n14</title>
<path fill="none" stroke="black" d="M1413.4,-112.96C1432.92,-101.82 1454.7,-89.4 1474.8,-77.93"/>
<polygon fill="black" stroke="black" points="1476.65,-80.91 1483.6,-72.91 1473.18,-74.83 1476.65,-80.91"/>
</g>
</g>
</svg>
