<?xml version="1.0" encoding="UTF-8" standalone="no"?>
<!DOCTYPE svg PUBLIC "-//W3C//DTD SVG 1.1//EN"
 "http://www.w3.org/Graphics/SVG/1.1/DTD/svg11.dtd">
<!-- Generated by graphviz version 2.43.0 (0)
 -->
<!-- Title: tree Pages: 1 -->
<svg width="3737pt" height="1414pt"
 viewBox="0.00 0.00 3736.94 1414.39" xmlns="http://www.w3.org/2000/svg" xmlns:xlink="http://www.w3.org/1999/xlink">
<g id="graph0" class="graph" transform="scale(1 1) rotate(0) translate(4 1410.39)">
<title>tree</title>
<polygon fill="white" stroke="transparent" points="-4,4 -4,-1410.39 3732.94,-1410.39 3732.94,4 -4,4"/>
<!-- n30 -->
<g id="node1" class="node">
<title>n30</title>
<ellipse fill="none" stroke="black" cx="2175.97" cy="-1368.92" rx="185.94" ry="37.45"/>
<text text-anchor="middle" x="2175.97" y="-1380.22" font-family="Times,serif" font-size="14.00">pero</text>
<text text-anchor="middle" x="2175.97" y="-1365.22" font-family="Times,serif" font-size="14.00">cc (root)</text>
<text text-anchor="middle" x="2175.97" y="-1350.22" font-family="Times,serif" font-size="14.00">rep=no, t=no, r=no, m=yes, c=no</text>
</g>
<!-- n8 -->
<g id="node2" class="node">
<title>n8</title>
<ellipse fill="#DA79E8" stroke="black" cx="1170.97" cy="-1257.96" rx="190.84" ry="37.45"/>
<text text-anchor="middle" x="1170.97" y="-1269.26" font-family="Times,serif" font-size="14.00">dedicaron</text>
<text text-anchor="middle" x="1170.97" y="-1254.26" font-family="Times,serif" font-size="14.00">vmis3p0 (coord)</text>
<text text-anchor="middle" x="1170.97" y="-1239.26" font-family="Times,serif" font-size="14.00">rep=no, t=no, r=yes, m=yes, c=no</text>
</g>
<!-- n30&#45;&gt;n8 -->
<g id="edge1" class="edge">
<title>n30&#45;&gt;n8</title>
<path fill="none" stroke="black" d="M2014.22,-1350.38C1831.28,-1330.55 1534.42,-1298.36 1346.12,-1277.95"/>
<polygon fill="black" stroke="black" points="1346.44,-1274.47 1336.12,-1276.87 1345.68,-1281.42 1346.44,-1274.47"/>
</g>
<!-- n34 -->
<g id="node3" class="node">
<title>n34</title>
<ellipse fill="none" stroke="black" cx="2175.97" cy="-1257.96" rx="185.94" ry="37.45"/>
<text text-anchor="middle" x="2175.97" y="-1269.26" font-family="Times,serif" font-size="14.00">han</text>
<text text-anchor="middle" x="2175.97" y="-1254.26" font-family="Times,serif" font-size="14.00">vaip3p0 (coord)</text>
<text text-anchor="middle" x="2175.97" y="-1239.26" font-family="Times,serif" font-size="14.00">rep=no, t=no, r=no, m=yes, c=no</text>
</g>
<!-- n30&#45;&gt;n34 -->
<g id="edge2" class="edge">
<title>n30&#45;&gt;n34</title>
<path fill="none" stroke="black" d="M2175.97,-1331.33C2175.97,-1323.16 2175.97,-1314.38 2175.97,-1305.85"/>
<polygon fill="black" stroke="black" points="2179.47,-1305.64 2175.97,-1295.64 2172.47,-1305.64 2179.47,-1305.64"/>
</g>
<!-- n44 -->
<g id="node4" class="node">
<title>n44</title>
<ellipse fill="none" stroke="black" cx="2561.97" cy="-1257.96" rx="181.95" ry="37.45"/>
<text text-anchor="middle" x="2561.97" y="-1269.26" font-family="Times,serif" font-size="14.00">.</text>
<text text-anchor="middle" x="2561.97" y="-1254.26" font-family="Times,serif" font-size="14.00">fp (punct)</text>
<text text-anchor="middle" x="2561.97" y="-1239.26" font-family="Times,serif" font-size="14.00">rep=no, t=no, r=no, m=no, c=no</text>
</g>
<!-- n30&#45;&gt;n44 -->
<g id="edge3" class="edge">
<title>n30&#45;&gt;n44</title>
<path fill="none" stroke="black" d="M2281.7,-1338.07C2332.97,-1323.6 2394.65,-1306.19 2447.08,-1291.39"/>
<polygon fill="black" stroke="black" points="2448.08,-1294.75 2456.75,-1288.66 2446.18,-1288.01 2448.08,-1294.75"/>
</g>
<!-- n1 -->
<g id="node5" class="node">
<title>n1</title>
<ellipse fill="none" stroke="black" cx="185.97" cy="-1147.01" rx="185.94" ry="37.45"/>
<text text-anchor="middle" x="185.97" y="-1158.31" font-family="Times,serif" font-size="14.00">En</text>
<text text-anchor="middle" x="185.97" y="-1143.31" font-family="Times,serif" font-size="14.00">sps00 (prepv)</text>
<text text-anchor="middle" x="185.97" y="-1128.31" font-family="Times,serif" font-size="14.00">rep=no, t=no, r=no, m=yes, c=no</text>
</g>
<!-- n8&#45;&gt;n1 -->
<g id="edge4" class="edge">
<title>n8&#45;&gt;n1</title>
<path fill="none" stroke="black" d="M991.19,-1245.28C830.71,-1233.7 589.51,-1213.49 380.97,-1184.49 362.97,-1181.98 344.1,-1178.96 325.5,-1175.74"/>
<polygon fill="black" stroke="black" points="325.95,-1172.27 315.5,-1173.99 324.74,-1179.16 325.95,-1172.27"/>
</g>
<!-- n4 -->
<g id="node6" class="node">
<title>n4</title>
<ellipse fill="none" stroke="black" cx="575.97" cy="-1147.01" rx="185.94" ry="37.45"/>
<text text-anchor="middle" x="575.97" y="-1158.31" font-family="Times,serif" font-size="14.00">,</text>
<text text-anchor="middle" x="575.97" y="-1143.31" font-family="Times,serif" font-size="14.00">fc (punct)</text>
<text text-anchor="middle" x="575.97" y="-1128.31" font-family="Times,serif" font-size="14.00">rep=no, t=no, r=no, m=yes, c=no</text>
</g>
<!-- n8&#45;&gt;n4 -->
<g id="edge5" class="edge">
<title>n8&#45;&gt;n4</title>
<path fill="none" stroke="black" d="M1032.56,-1232.08C955.52,-1218.19 857.9,-1200.49 770.97,-1184.49 754.4,-1181.44 737.05,-1178.22 719.82,-1175.01"/>
<polygon fill="black" stroke="black" points="720.17,-1171.52 709.69,-1173.13 718.88,-1178.4 720.17,-1171.52"/>
</g>
<!-- n6 -->
<g id="node7" class="node">
<title>n6</title>
<ellipse fill="#BEDA48" stroke="black" cx="970.97" cy="-1147.01" rx="190.84" ry="37.45"/>
<text text-anchor="middle" x="970.97" y="-1158.31" font-family="Times,serif" font-size="14.00">cosmonautas</text>
<text text-anchor="middle" x="970.97" y="-1143.31" font-family="Times,serif" font-size="14.00">nccp000 (nsubj)</text>
<text text-anchor="middle" x="970.97" y="-1128.31" font-family="Times,serif" font-size="14.00">rep=no, t=yes, r=no, m=yes, c=no</text>
</g>
<!-- n8&#45;&gt;n6 -->
<g id="edge6" class="edge">
<title>n8&#45;&gt;n6</title>
<path fill="none" stroke="black" d="M1107.69,-1222.49C1087.16,-1211.31 1064.23,-1198.82 1043.11,-1187.31"/>
<polygon fill="black" stroke="black" points="1044.64,-1184.16 1034.18,-1182.45 1041.29,-1190.3 1044.64,-1184.16"/>
</g>
<!-- n7 -->
<g id="node8" class="node">
<title>n7</title>
<ellipse fill="#DA79E8" stroke="black" cx="1370.97" cy="-1147.01" rx="190.84" ry="37.45"/>
<text text-anchor="middle" x="1370.97" y="-1158.31" font-family="Times,serif" font-size="14.00">se</text>
<text text-anchor="middle" x="1370.97" y="-1143.31" font-family="Times,serif" font-size="14.00">p0300000 (reflec)</text>
<text text-anchor="middle" x="1370.97" y="-1128.31" font-family="Times,serif" font-size="14.00">rep=no, t=no, r=yes, m=yes, c=no</text>
</g>
<!-- n8&#45;&gt;n7 -->
<g id="edge7" class="edge">
<title>n8&#45;&gt;n7</title>
<path fill="none" stroke="black" d="M1234.25,-1222.49C1254.78,-1211.31 1277.7,-1198.82 1298.83,-1187.31"/>
<polygon fill="black" stroke="black" points="1300.65,-1190.3 1307.76,-1182.45 1297.3,-1184.16 1300.65,-1190.3"/>
</g>
<!-- n9 -->
<g id="node9" class="node">
<title>n9</title>
<ellipse fill="#DA79E8" stroke="black" cx="1770.97" cy="-1147.01" rx="190.84" ry="37.45"/>
<text text-anchor="middle" x="1770.97" y="-1158.31" font-family="Times,serif" font-size="14.00">a</text>
<text text-anchor="middle" x="1770.97" y="-1143.31" font-family="Times,serif" font-size="14.00">sps00 (oobj)</text>
<text text-anchor="middle" x="1770.97" y="-1128.31" font-family="Times,serif" font-size="14.00">rep=no, t=no, r=yes, m=yes, c=no</text>
</g>
<!-- n8&#45;&gt;n9 -->
<g id="edge8" class="edge">
<title>n8&#45;&gt;n9</title>
<path fill="none" stroke="black" d="M1308.89,-1232.01C1385.99,-1218.06 1483.83,-1200.33 1570.97,-1184.49 1588.04,-1181.38 1605.92,-1178.13 1623.68,-1174.89"/>
<polygon fill="black" stroke="black" points="1624.32,-1178.33 1633.53,-1173.1 1623.07,-1171.45 1624.32,-1178.33"/>
</g>
<!-- n29 -->
<g id="node32" class="node">
<title>n29</title>
<ellipse fill="none" stroke="black" cx="2175.97" cy="-1147.01" rx="185.94" ry="37.45"/>
<text text-anchor="middle" x="2175.97" y="-1158.31" font-family="Times,serif" font-size="14.00">,</text>
<text text-anchor="middle" x="2175.97" y="-1143.31" font-family="Times,serif" font-size="14.00">fc (punct)</text>
<text text-anchor="middle" x="2175.97" y="-1128.31" font-family="Times,serif" font-size="14.00">rep=no, t=no, r=no, m=yes, c=no</text>
</g>
<!-- n34&#45;&gt;n29 -->
<g id="edge31" class="edge">
<title>n34&#45;&gt;n29</title>
<path fill="none" stroke="black" d="M2175.97,-1220.38C2175.97,-1212.21 2175.97,-1203.43 2175.97,-1194.9"/>
<polygon fill="black" stroke="black" points="2179.47,-1194.68 2175.97,-1184.68 2172.47,-1194.68 2179.47,-1194.68"/>
</g>
<!-- n35 -->
<g id="node33" class="node">
<title>n35</title>
<ellipse fill="none" stroke="black" cx="2570.97" cy="-1147.01" rx="185.94" ry="37.45"/>
<text text-anchor="middle" x="2570.97" y="-1158.31" font-family="Times,serif" font-size="14.00">pasado</text>
<text text-anchor="middle" x="2570.97" y="-1143.31" font-family="Times,serif" font-size="14.00">vmp00sm (vobj)</text>
<text text-anchor="middle" x="2570.97" y="-1128.31" font-family="Times,serif" font-size="14.00">rep=no, t=no, r=no, m=yes, c=no</text>
</g>
<!-- n34&#45;&gt;n35 -->
<g id="edge32" class="edge">
<title>n34&#45;&gt;n35</title>
<path fill="none" stroke="black" d="M2283.38,-1227.34C2336.07,-1212.8 2399.65,-1195.26 2453.62,-1180.38"/>
<polygon fill="black" stroke="black" points="2454.87,-1183.67 2463.58,-1177.63 2453.01,-1176.92 2454.87,-1183.67"/>
</g>
<!-- n2 -->
<g id="node10" class="node">
<title>n2</title>
<ellipse fill="none" stroke="black" cx="185.97" cy="-1036.06" rx="185.94" ry="37.45"/>
<text text-anchor="middle" x="185.97" y="-1047.36" font-family="Times,serif" font-size="14.00">misiones</text>
<text text-anchor="middle" x="185.97" y="-1032.36" font-family="Times,serif" font-size="14.00">ncfp000 (pobj)</text>
<text text-anchor="middle" x="185.97" y="-1017.36" font-family="Times,serif" font-size="14.00">rep=no, t=no, r=no, m=yes, c=no</text>
</g>
<!-- n1&#45;&gt;n2 -->
<g id="edge9" class="edge">
<title>n1&#45;&gt;n2</title>
<path fill="none" stroke="black" d="M185.97,-1109.43C185.97,-1101.25 185.97,-1092.47 185.97,-1083.95"/>
<polygon fill="black" stroke="black" points="189.47,-1083.73 185.97,-1073.73 182.47,-1083.73 189.47,-1083.73"/>
</g>
<!-- n5 -->
<g id="node12" class="node">
<title>n5</title>
<ellipse fill="#BEDA48" stroke="black" cx="970.97" cy="-1036.06" rx="190.84" ry="37.45"/>
<text text-anchor="middle" x="970.97" y="-1047.36" font-family="Times,serif" font-size="14.00">los</text>
<text text-anchor="middle" x="970.97" y="-1032.36" font-family="Times,serif" font-size="14.00">da0mp0 (det)</text>
<text text-anchor="middle" x="970.97" y="-1017.36" font-family="Times,serif" font-size="14.00">rep=no, t=yes, r=no, m=yes, c=no</text>
</g>
<!-- n6&#45;&gt;n5 -->
<g id="edge11" class="edge">
<title>n6&#45;&gt;n5</title>
<path fill="none" stroke="black" d="M970.97,-1109.43C970.97,-1101.25 970.97,-1092.47 970.97,-1083.95"/>
<polygon fill="black" stroke="black" points="974.47,-1083.73 970.97,-1073.73 967.47,-1083.73 974.47,-1083.73"/>
</g>
<!-- n10 -->
<g id="node13" class="node">
<title>n10</title>
<ellipse fill="#DA79E8" stroke="black" cx="1476.97" cy="-1036.06" rx="190.84" ry="37.45"/>
<text text-anchor="middle" x="1476.97" y="-1047.36" font-family="Times,serif" font-size="14.00">reparar</text>
<text text-anchor="middle" x="1476.97" y="-1032.36" font-family="Times,serif" font-size="14.00">vmn0000 (pobj)</text>
<text text-anchor="middle" x="1476.97" y="-1017.36" font-family="Times,serif" font-size="14.00">rep=no, t=no, r=yes, m=yes, c=no</text>
</g>
<!-- n9&#45;&gt;n10 -->
<g id="edge12" class="edge">
<title>n9&#45;&gt;n10</title>
<path fill="none" stroke="black" d="M1683.56,-1113.62C1648.98,-1100.8 1609.12,-1086.03 1573.69,-1072.9"/>
<polygon fill="black" stroke="black" points="1574.89,-1069.61 1564.3,-1069.42 1572.46,-1076.18 1574.89,-1069.61"/>
</g>
<!-- n3 -->
<g id="node11" class="node">
<title>n3</title>
<ellipse fill="none" stroke="black" cx="185.97" cy="-925.1" rx="185.94" ry="37.45"/>
<text text-anchor="middle" x="185.97" y="-936.4" font-family="Times,serif" font-size="14.00">precedentes</text>
<text text-anchor="middle" x="185.97" y="-921.4" font-family="Times,serif" font-size="14.00">aq0cp0 (amod)</text>
<text text-anchor="middle" x="185.97" y="-906.4" font-family="Times,serif" font-size="14.00">rep=no, t=no, r=no, m=yes, c=no</text>
</g>
<!-- n2&#45;&gt;n3 -->
<g id="edge10" class="edge">
<title>n2&#45;&gt;n3</title>
<path fill="none" stroke="black" d="M185.97,-998.47C185.97,-990.3 185.97,-981.52 185.97,-972.99"/>
<polygon fill="black" stroke="black" points="189.47,-972.78 185.97,-962.78 182.47,-972.78 189.47,-972.78"/>
</g>
<!-- n13 -->
<g id="node14" class="node">
<title>n13</title>
<ellipse fill="#DA79E8" stroke="black" cx="772.97" cy="-925.1" rx="195.74" ry="37.45"/>
<text text-anchor="middle" x="772.97" y="-936.4" font-family="Times,serif" font-size="14.00">incidentes</text>
<text text-anchor="middle" x="772.97" y="-921.4" font-family="Times,serif" font-size="14.00">nccp000 (dobj)</text>
<text text-anchor="middle" x="772.97" y="-906.4" font-family="Times,serif" font-size="14.00">rep=no, t=no, r=yes, m=yes, c=yes</text>
</g>
<!-- n10&#45;&gt;n13 -->
<g id="edge13" class="edge">
<title>n10&#45;&gt;n13</title>
<path fill="none" stroke="black" d="M1322.52,-1013.92C1223.84,-1000.09 1093.23,-981.2 977.97,-962.58 959.97,-959.67 941.11,-956.49 922.42,-953.27"/>
<polygon fill="black" stroke="black" points="922.81,-949.78 912.36,-951.52 921.62,-956.68 922.81,-949.78"/>
</g>
<!-- n14 -->
<g id="node15" class="node">
<title>n14</title>
<ellipse fill="#DA79E8" stroke="black" cx="1177.97" cy="-925.1" rx="190.84" ry="37.45"/>
<text text-anchor="middle" x="1177.97" y="-936.4" font-family="Times,serif" font-size="14.00">y</text>
<text text-anchor="middle" x="1177.97" y="-921.4" font-family="Times,serif" font-size="14.00">cc (coord_fixed)</text>
<text text-anchor="middle" x="1177.97" y="-906.4" font-family="Times,serif" font-size="14.00">rep=no, t=no, r=yes, m=yes, c=no</text>
</g>
<!-- n10&#45;&gt;n14 -->
<g id="edge14" class="edge">
<title>n10&#45;&gt;n14</title>
<path fill="none" stroke="black" d="M1388.47,-1002.81C1353.14,-989.94 1312.33,-975.06 1276.09,-961.86"/>
<polygon fill="black" stroke="black" points="1277.09,-958.5 1266.5,-958.36 1274.69,-965.07 1277.09,-958.5"/>
</g>
<!-- n15 -->
<g id="node16" class="node">
<title>n15</title>
<ellipse fill="#DA79E8" stroke="black" cx="1582.97" cy="-925.1" rx="195.74" ry="37.45"/>
<text text-anchor="middle" x="1582.97" y="-936.4" font-family="Times,serif" font-size="14.00">averías</text>
<text text-anchor="middle" x="1582.97" y="-921.4" font-family="Times,serif" font-size="14.00">ncfp000 (dobj)</text>
<text text-anchor="middle" x="1582.97" y="-906.4" font-family="Times,serif" font-size="14.00">rep=no, t=no, r=yes, m=yes, c=yes</text>
</g>
<!-- n10&#45;&gt;n15 -->
<g id="edge15" class="edge">
<title>n10&#45;&gt;n15</title>
<path fill="none" stroke="black" d="M1511.97,-999.08C1521.2,-989.6 1531.25,-979.26 1540.81,-969.44"/>
<polygon fill="black" stroke="black" points="1543.54,-971.65 1548,-962.04 1538.52,-966.77 1543.54,-971.65"/>
</g>
<!-- n11 -->
<g id="node17" class="node">
<title>n11</title>
<ellipse fill="#DA79E8" stroke="black" cx="377.97" cy="-814.15" rx="190.84" ry="37.45"/>
<text text-anchor="middle" x="377.97" y="-825.45" font-family="Times,serif" font-size="14.00">los</text>
<text text-anchor="middle" x="377.97" y="-810.45" font-family="Times,serif" font-size="14.00">da0mp0 (det)</text>
<text text-anchor="middle" x="377.97" y="-795.45" font-family="Times,serif" font-size="14.00">rep=no, t=no, r=yes, m=yes, c=no</text>
</g>
<!-- n13&#45;&gt;n11 -->
<g id="edge16" class="edge">
<title>n13&#45;&gt;n11</title>
<path fill="none" stroke="black" d="M663.73,-893.97C611.71,-879.62 549.4,-862.44 496.27,-847.78"/>
<polygon fill="black" stroke="black" points="497.03,-844.36 486.46,-845.07 495.17,-851.11 497.03,-844.36"/>
</g>
<!-- n12 -->
<g id="node18" class="node">
<title>n12</title>
<ellipse fill="#DA79E8" stroke="black" cx="777.97" cy="-814.15" rx="190.84" ry="37.45"/>
<text text-anchor="middle" x="777.97" y="-825.45" font-family="Times,serif" font-size="14.00">numerosos</text>
<text text-anchor="middle" x="777.97" y="-810.45" font-family="Times,serif" font-size="14.00">aq0mp0 (amod)</text>
<text text-anchor="middle" x="777.97" y="-795.45" font-family="Times,serif" font-size="14.00">rep=no, t=no, r=yes, m=yes, c=no</text>
</g>
<!-- n13&#45;&gt;n12 -->
<g id="edge17" class="edge">
<title>n13&#45;&gt;n12</title>
<path fill="none" stroke="black" d="M774.65,-887.52C775.02,-879.35 775.43,-870.57 775.82,-862.04"/>
<polygon fill="black" stroke="black" points="779.32,-861.97 776.29,-851.82 772.33,-861.65 779.32,-861.97"/>
</g>
<!-- n17 -->
<g id="node19" class="node">
<title>n17</title>
<ellipse fill="none" stroke="black" cx="1177.97" cy="-814.15" rx="185.94" ry="37.45"/>
<text text-anchor="middle" x="1177.97" y="-825.45" font-family="Times,serif" font-size="14.00">ha</text>
<text text-anchor="middle" x="1177.97" y="-810.45" font-family="Times,serif" font-size="14.00">vaip3s0 (rcmod)</text>
<text text-anchor="middle" x="1177.97" y="-795.45" font-family="Times,serif" font-size="14.00">rep=no, t=no, r=no, m=yes, c=no</text>
</g>
<!-- n14&#45;&gt;n17 -->
<g id="edge18" class="edge">
<title>n14&#45;&gt;n17</title>
<path fill="none" stroke="black" d="M1177.97,-887.52C1177.97,-879.35 1177.97,-870.57 1177.97,-862.04"/>
<polygon fill="black" stroke="black" points="1181.47,-861.82 1177.97,-851.82 1174.47,-861.82 1181.47,-861.82"/>
</g>
<!-- n18 -->
<g id="node20" class="node">
<title>n18</title>
<ellipse fill="none" stroke="black" cx="982.97" cy="-703.2" rx="185.94" ry="37.45"/>
<text text-anchor="middle" x="982.97" y="-714.5" font-family="Times,serif" font-size="14.00">sufrido</text>
<text text-anchor="middle" x="982.97" y="-699.5" font-family="Times,serif" font-size="14.00">vmp00sm (vobj)</text>
<text text-anchor="middle" x="982.97" y="-684.5" font-family="Times,serif" font-size="14.00">rep=no, t=no, r=no, m=yes, c=no</text>
</g>
<!-- n17&#45;&gt;n18 -->
<g id="edge19" class="edge">
<title>n17&#45;&gt;n18</title>
<path fill="none" stroke="black" d="M1116.27,-778.68C1096.34,-767.54 1074.1,-755.12 1053.58,-743.65"/>
<polygon fill="black" stroke="black" points="1055.04,-740.45 1044.6,-738.63 1051.62,-746.57 1055.04,-740.45"/>
</g>
<!-- n20 -->
<g id="node21" class="node">
<title>n20</title>
<ellipse fill="none" stroke="black" cx="1372.97" cy="-703.2" rx="185.94" ry="37.45"/>
<text text-anchor="middle" x="1372.97" y="-714.5" font-family="Times,serif" font-size="14.00">estación</text>
<text text-anchor="middle" x="1372.97" y="-699.5" font-family="Times,serif" font-size="14.00">ncfs000 (nsubj)</text>
<text text-anchor="middle" x="1372.97" y="-684.5" font-family="Times,serif" font-size="14.00">rep=no, t=no, r=no, m=yes, c=no</text>
</g>
<!-- n17&#45;&gt;n20 -->
<g id="edge20" class="edge">
<title>n17&#45;&gt;n20</title>
<path fill="none" stroke="black" d="M1239.67,-778.68C1259.59,-767.54 1281.84,-755.12 1302.35,-743.65"/>
<polygon fill="black" stroke="black" points="1304.31,-746.57 1311.34,-738.63 1300.9,-740.45 1304.31,-746.57"/>
</g>
<!-- n16 -->
<g id="node22" class="node">
<title>n16</title>
<ellipse fill="none" stroke="black" cx="592.97" cy="-592.24" rx="185.94" ry="37.45"/>
<text text-anchor="middle" x="592.97" y="-603.54" font-family="Times,serif" font-size="14.00">que</text>
<text text-anchor="middle" x="592.97" y="-588.54" font-family="Times,serif" font-size="14.00">pr0cn000 (dobj)</text>
<text text-anchor="middle" x="592.97" y="-573.54" font-family="Times,serif" font-size="14.00">rep=no, t=no, r=no, m=yes, c=no</text>
</g>
<!-- n18&#45;&gt;n16 -->
<g id="edge21" class="edge">
<title>n18&#45;&gt;n16</title>
<path fill="none" stroke="black" d="M876.4,-672.42C824.59,-657.95 762.23,-640.53 709.2,-625.71"/>
<polygon fill="black" stroke="black" points="709.98,-622.3 699.41,-622.98 708.1,-629.04 709.98,-622.3"/>
</g>
<!-- n21 -->
<g id="node23" class="node">
<title>n21</title>
<ellipse fill="none" stroke="black" cx="982.97" cy="-592.24" rx="185.94" ry="37.45"/>
<text text-anchor="middle" x="982.97" y="-603.54" font-family="Times,serif" font-size="14.00">a</text>
<text text-anchor="middle" x="982.97" y="-588.54" font-family="Times,serif" font-size="14.00">sps00 (prepv)</text>
<text text-anchor="middle" x="982.97" y="-573.54" font-family="Times,serif" font-size="14.00">rep=no, t=no, r=no, m=yes, c=no</text>
</g>
<!-- n18&#45;&gt;n21 -->
<g id="edge22" class="edge">
<title>n18&#45;&gt;n21</title>
<path fill="none" stroke="black" d="M982.97,-665.61C982.97,-657.44 982.97,-648.66 982.97,-640.13"/>
<polygon fill="black" stroke="black" points="986.47,-639.92 982.97,-629.92 979.47,-639.92 986.47,-639.92"/>
</g>
<!-- n19 -->
<g id="node31" class="node">
<title>n19</title>
<ellipse fill="none" stroke="black" cx="1372.97" cy="-592.24" rx="185.94" ry="37.45"/>
<text text-anchor="middle" x="1372.97" y="-603.54" font-family="Times,serif" font-size="14.00">la</text>
<text text-anchor="middle" x="1372.97" y="-588.54" font-family="Times,serif" font-size="14.00">da0fs0 (det)</text>
<text text-anchor="middle" x="1372.97" y="-573.54" font-family="Times,serif" font-size="14.00">rep=no, t=no, r=no, m=yes, c=no</text>
</g>
<!-- n20&#45;&gt;n19 -->
<g id="edge30" class="edge">
<title>n20&#45;&gt;n19</title>
<path fill="none" stroke="black" d="M1372.97,-665.61C1372.97,-657.44 1372.97,-648.66 1372.97,-640.13"/>
<polygon fill="black" stroke="black" points="1376.47,-639.92 1372.97,-629.92 1369.47,-639.92 1376.47,-639.92"/>
</g>
<!-- n22 -->
<g id="node24" class="node">
<title>n22</title>
<ellipse fill="none" stroke="black" cx="982.97" cy="-481.29" rx="185.94" ry="37.45"/>
<text text-anchor="middle" x="982.97" y="-492.59" font-family="Times,serif" font-size="14.00">causa</text>
<text text-anchor="middle" x="982.97" y="-477.59" font-family="Times,serif" font-size="14.00">ncfs000 (pobj)</text>
<text text-anchor="middle" x="982.97" y="-462.59" font-family="Times,serif" font-size="14.00">rep=no, t=no, r=no, m=yes, c=no</text>
</g>
<!-- n21&#45;&gt;n22 -->
<g id="edge23" class="edge">
<title>n21&#45;&gt;n22</title>
<path fill="none" stroke="black" d="M982.97,-554.66C982.97,-546.49 982.97,-537.71 982.97,-529.18"/>
<polygon fill="black" stroke="black" points="986.47,-528.96 982.97,-518.96 979.47,-528.96 986.47,-528.96"/>
</g>
<!-- n23 -->
<g id="node25" class="node">
<title>n23</title>
<ellipse fill="none" stroke="black" cx="982.97" cy="-370.34" rx="185.94" ry="37.45"/>
<text text-anchor="middle" x="982.97" y="-381.64" font-family="Times,serif" font-size="14.00">de</text>
<text text-anchor="middle" x="982.97" y="-366.64" font-family="Times,serif" font-size="14.00">sps00 (prepn)</text>
<text text-anchor="middle" x="982.97" y="-351.64" font-family="Times,serif" font-size="14.00">rep=no, t=no, r=no, m=yes, c=no</text>
</g>
<!-- n22&#45;&gt;n23 -->
<g id="edge24" class="edge">
<title>n22&#45;&gt;n23</title>
<path fill="none" stroke="black" d="M982.97,-443.71C982.97,-435.53 982.97,-426.75 982.97,-418.23"/>
<polygon fill="black" stroke="black" points="986.47,-418.01 982.97,-408.01 979.47,-418.01 986.47,-418.01"/>
</g>
<!-- n26 -->
<g id="node26" class="node">
<title>n26</title>
<ellipse fill="none" stroke="black" cx="982.97" cy="-259.38" rx="185.94" ry="37.45"/>
<text text-anchor="middle" x="982.97" y="-270.68" font-family="Times,serif" font-size="14.00">años</text>
<text text-anchor="middle" x="982.97" y="-255.68" font-family="Times,serif" font-size="14.00">ncmp000 (pobj)</text>
<text text-anchor="middle" x="982.97" y="-240.68" font-family="Times,serif" font-size="14.00">rep=no, t=no, r=no, m=yes, c=no</text>
</g>
<!-- n23&#45;&gt;n26 -->
<g id="edge25" class="edge">
<title>n23&#45;&gt;n26</title>
<path fill="none" stroke="black" d="M982.97,-332.75C982.97,-324.58 982.97,-315.8 982.97,-307.27"/>
<polygon fill="black" stroke="black" points="986.47,-307.06 982.97,-297.06 979.47,-307.06 986.47,-307.06"/>
</g>
<!-- n24 -->
<g id="node27" class="node">
<title>n24</title>
<ellipse fill="none" stroke="black" cx="592.97" cy="-148.43" rx="185.94" ry="37.45"/>
<text text-anchor="middle" x="592.97" y="-159.73" font-family="Times,serif" font-size="14.00">sus</text>
<text text-anchor="middle" x="592.97" y="-144.73" font-family="Times,serif" font-size="14.00">dp3cp0 (poss)</text>
<text text-anchor="middle" x="592.97" y="-129.73" font-family="Times,serif" font-size="14.00">rep=no, t=no, r=no, m=yes, c=no</text>
</g>
<!-- n26&#45;&gt;n24 -->
<g id="edge26" class="edge">
<title>n26&#45;&gt;n24</title>
<path fill="none" stroke="black" d="M876.4,-228.61C824.59,-214.14 762.23,-196.71 709.2,-181.9"/>
<polygon fill="black" stroke="black" points="709.98,-178.49 699.41,-179.17 708.1,-185.23 709.98,-178.49"/>
</g>
<!-- n25 -->
<g id="node28" class="node">
<title>n25</title>
<ellipse fill="none" stroke="black" cx="982.97" cy="-148.43" rx="185.94" ry="37.45"/>
<text text-anchor="middle" x="982.97" y="-159.73" font-family="Times,serif" font-size="14.00">muchos</text>
<text text-anchor="middle" x="982.97" y="-144.73" font-family="Times,serif" font-size="14.00">di0mp0 (det)</text>
<text text-anchor="middle" x="982.97" y="-129.73" font-family="Times,serif" font-size="14.00">rep=no, t=no, r=no, m=yes, c=no</text>
</g>
<!-- n26&#45;&gt;n25 -->
<g id="edge27" class="edge">
<title>n26&#45;&gt;n25</title>
<path fill="none" stroke="black" d="M982.97,-221.8C982.97,-213.63 982.97,-204.85 982.97,-196.32"/>
<polygon fill="black" stroke="black" points="986.47,-196.1 982.97,-186.1 979.47,-196.1 986.47,-196.1"/>
</g>
<!-- n27 -->
<g id="node29" class="node">
<title>n27</title>
<ellipse fill="none" stroke="black" cx="1372.97" cy="-148.43" rx="185.94" ry="37.45"/>
<text text-anchor="middle" x="1372.97" y="-159.73" font-family="Times,serif" font-size="14.00">de</text>
<text text-anchor="middle" x="1372.97" y="-144.73" font-family="Times,serif" font-size="14.00">sps00 (prepn)</text>
<text text-anchor="middle" x="1372.97" y="-129.73" font-family="Times,serif" font-size="14.00">rep=no, t=no, r=no, m=yes, c=no</text>
</g>
<!-- n26&#45;&gt;n27 -->
<g id="edge28" class="edge">
<title>n26&#45;&gt;n27</title>
<path fill="none" stroke="black" d="M1089.54,-228.61C1141.34,-214.14 1203.71,-196.71 1256.74,-181.9"/>
<polygon fill="black" stroke="black" points="1257.84,-185.23 1266.53,-179.17 1255.96,-178.49 1257.84,-185.23"/>
</g>
<!-- n28 -->
<g id="node30" class="node">
<title>n28</title>
<ellipse fill="none" stroke="black" cx="1372.97" cy="-37.48" rx="185.94" ry="37.45"/>
<text text-anchor="middle" x="1372.97" y="-48.78" font-family="Times,serif" font-size="14.00">vida</text>
<text text-anchor="middle" x="1372.97" y="-33.78" font-family="Times,serif" font-size="14.00">ncfs000 (pobj)</text>
<text text-anchor="middle" x="1372.97" y="-18.78" font-family="Times,serif" font-size="14.00">rep=no, t=no, r=no, m=yes, c=no</text>
</g>
<!-- n27&#45;&gt;n28 -->
<g id="edge29" class="edge">
<title>n27&#45;&gt;n28</title>
<path fill="none" stroke="black" d="M1372.97,-110.85C1372.97,-102.67 1372.97,-93.89 1372.97,-85.37"/>
<polygon fill="black" stroke="black" points="1376.47,-85.15 1372.97,-75.15 1369.47,-85.15 1376.47,-85.15"/>
</g>
<!-- n31 -->
<g id="node34" class="node">
<title>n31</title>
<ellipse fill="none" stroke="black" cx="2081.97" cy="-1036.06" rx="185.94" ry="37.45"/>
<text text-anchor="middle" x="2081.97" y="-1047.36" font-family="Times,serif" font-size="14.00">en</text>
<text text-anchor="middle" x="2081.97" y="-1032.36" font-family="Times,serif" font-size="14.00">sps00 (prepv)</text>
<text text-anchor="middle" x="2081.97" y="-1017.36" font-family="Times,serif" font-size="14.00">rep=no, t=no, r=no, m=yes, c=no</text>
</g>
<!-- n35&#45;&gt;n31 -->
<g id="edge33" class="edge">
<title>n35&#45;&gt;n31</title>
<path fill="none" stroke="black" d="M2448.52,-1118.73C2377.32,-1102.86 2287.56,-1082.86 2214.68,-1066.63"/>
<polygon fill="black" stroke="black" points="2215.03,-1063.12 2204.51,-1064.36 2213.51,-1069.95 2215.03,-1063.12"/>
</g>
<!-- n38 -->
<g id="node35" class="node">
<title>n38</title>
<ellipse fill="none" stroke="black" cx="2666.97" cy="-1036.06" rx="185.94" ry="37.45"/>
<text text-anchor="middle" x="2666.97" y="-1047.36" font-family="Times,serif" font-size="14.00">parte</text>
<text text-anchor="middle" x="2666.97" y="-1032.36" font-family="Times,serif" font-size="14.00">ncfs000 (dobj)</text>
<text text-anchor="middle" x="2666.97" y="-1017.36" font-family="Times,serif" font-size="14.00">rep=no, t=no, r=no, m=yes, c=no</text>
</g>
<!-- n35&#45;&gt;n38 -->
<g id="edge34" class="edge">
<title>n35&#45;&gt;n38</title>
<path fill="none" stroke="black" d="M2602.67,-1110.03C2610.94,-1100.64 2619.95,-1090.42 2628.53,-1080.68"/>
<polygon fill="black" stroke="black" points="2631.32,-1082.81 2635.3,-1073 2626.07,-1078.19 2631.32,-1082.81"/>
</g>
<!-- n41 -->
<g id="node36" class="node">
<title>n41</title>
<ellipse fill="none" stroke="black" cx="3253.97" cy="-1036.06" rx="185.94" ry="37.45"/>
<text text-anchor="middle" x="3253.97" y="-1047.36" font-family="Times,serif" font-size="14.00">haciendo</text>
<text text-anchor="middle" x="3253.97" y="-1032.36" font-family="Times,serif" font-size="14.00">vmg0000 (advcl)</text>
<text text-anchor="middle" x="3253.97" y="-1017.36" font-family="Times,serif" font-size="14.00">rep=no, t=no, r=no, m=yes, c=no</text>
</g>
<!-- n35&#45;&gt;n41 -->
<g id="edge35" class="edge">
<title>n35&#45;&gt;n41</title>
<path fill="none" stroke="black" d="M2714.56,-1123.1C2827.67,-1105.06 2985.01,-1079.96 3100.57,-1061.53"/>
<polygon fill="black" stroke="black" points="3101.24,-1064.96 3110.57,-1059.93 3100.14,-1058.05 3101.24,-1064.96"/>
</g>
<!-- n33 -->
<g id="node37" class="node">
<title>n33</title>
<ellipse fill="none" stroke="black" cx="1982.97" cy="-925.1" rx="185.94" ry="37.45"/>
<text text-anchor="middle" x="1982.97" y="-936.4" font-family="Times,serif" font-size="14.00">ocasión</text>
<text text-anchor="middle" x="1982.97" y="-921.4" font-family="Times,serif" font-size="14.00">ncfs000 (pobj)</text>
<text text-anchor="middle" x="1982.97" y="-906.4" font-family="Times,serif" font-size="14.00">rep=no, t=no, r=no, m=yes, c=no</text>
</g>
<!-- n31&#45;&gt;n33 -->
<g id="edge36" class="edge">
<title>n31&#45;&gt;n33</title>
<path fill="none" stroke="black" d="M2049.28,-999.08C2040.75,-989.69 2031.46,-979.47 2022.61,-969.73"/>
<polygon fill="black" stroke="black" points="2024.94,-967.09 2015.63,-962.04 2019.76,-971.8 2024.94,-967.09"/>
</g>
<!-- n36 -->
<g id="node39" class="node">
<title>n36</title>
<ellipse fill="none" stroke="black" cx="2372.97" cy="-925.1" rx="185.94" ry="37.45"/>
<text text-anchor="middle" x="2372.97" y="-936.4" font-family="Times,serif" font-size="14.00">la</text>
<text text-anchor="middle" x="2372.97" y="-921.4" font-family="Times,serif" font-size="14.00">da0fs0 (det)</text>
<text text-anchor="middle" x="2372.97" y="-906.4" font-family="Times,serif" font-size="14.00">rep=no, t=no, r=no, m=yes, c=no</text>
</g>
<!-- n38&#45;&gt;n36 -->
<g id="edge38" class="edge">
<title>n38&#45;&gt;n36</title>
<path fill="none" stroke="black" d="M2579.95,-1002.81C2545.14,-989.91 2504.9,-975 2469.21,-961.77"/>
<polygon fill="black" stroke="black" points="2470.36,-958.46 2459.76,-958.27 2467.92,-965.02 2470.36,-958.46"/>
</g>
<!-- n37 -->
<g id="node40" class="node">
<title>n37</title>
<ellipse fill="none" stroke="black" cx="2762.97" cy="-925.1" rx="185.94" ry="37.45"/>
<text text-anchor="middle" x="2762.97" y="-936.4" font-family="Times,serif" font-size="14.00">mayor</text>
<text text-anchor="middle" x="2762.97" y="-921.4" font-family="Times,serif" font-size="14.00">aq0cs0 (amod)</text>
<text text-anchor="middle" x="2762.97" y="-906.4" font-family="Times,serif" font-size="14.00">rep=no, t=no, r=no, m=yes, c=no</text>
</g>
<!-- n38&#45;&gt;n37 -->
<g id="edge39" class="edge">
<title>n38&#45;&gt;n37</title>
<path fill="none" stroke="black" d="M2698.67,-999.08C2706.94,-989.69 2715.95,-979.47 2724.53,-969.73"/>
<polygon fill="black" stroke="black" points="2727.32,-971.86 2731.3,-962.04 2722.07,-967.23 2727.32,-971.86"/>
</g>
<!-- n39 -->
<g id="node41" class="node">
<title>n39</title>
<ellipse fill="none" stroke="black" cx="3152.97" cy="-925.1" rx="185.94" ry="37.45"/>
<text text-anchor="middle" x="3152.97" y="-936.4" font-family="Times,serif" font-size="14.00">del</text>
<text text-anchor="middle" x="3152.97" y="-921.4" font-family="Times,serif" font-size="14.00">spcms (prepn)</text>
<text text-anchor="middle" x="3152.97" y="-906.4" font-family="Times,serif" font-size="14.00">rep=no, t=no, r=no, m=yes, c=no</text>
</g>
<!-- n38&#45;&gt;n39 -->
<g id="edge40" class="edge">
<title>n38&#45;&gt;n39</title>
<path fill="none" stroke="black" d="M2788.98,-1007.7C2859.61,-991.87 2948.54,-971.93 3020.82,-955.73"/>
<polygon fill="black" stroke="black" points="3021.92,-959.07 3030.91,-953.47 3020.38,-952.24 3021.92,-959.07"/>
</g>
<!-- n42 -->
<g id="node43" class="node">
<title>n42</title>
<ellipse fill="none" stroke="black" cx="3542.97" cy="-925.1" rx="185.94" ry="37.45"/>
<text text-anchor="middle" x="3542.97" y="-936.4" font-family="Times,serif" font-size="14.00">estudios</text>
<text text-anchor="middle" x="3542.97" y="-921.4" font-family="Times,serif" font-size="14.00">ncmp000 (dobj)</text>
<text text-anchor="middle" x="3542.97" y="-906.4" font-family="Times,serif" font-size="14.00">rep=no, t=no, r=no, m=yes, c=no</text>
</g>
<!-- n41&#45;&gt;n42 -->
<g id="edge42" class="edge">
<title>n41&#45;&gt;n42</title>
<path fill="none" stroke="black" d="M3339.9,-1002.66C3373.66,-989.93 3412.56,-975.27 3447.22,-962.2"/>
<polygon fill="black" stroke="black" points="3448.75,-965.36 3456.87,-958.56 3446.28,-958.81 3448.75,-965.36"/>
</g>
<!-- n32 -->
<g id="node38" class="node">
<title>n32</title>
<ellipse fill="none" stroke="black" cx="1982.97" cy="-814.15" rx="185.94" ry="37.45"/>
<text text-anchor="middle" x="1982.97" y="-825.45" font-family="Times,serif" font-size="14.00">esta</text>
<text text-anchor="middle" x="1982.97" y="-810.45" font-family="Times,serif" font-size="14.00">dd0fs0 (det)</text>
<text text-anchor="middle" x="1982.97" y="-795.45" font-family="Times,serif" font-size="14.00">rep=no, t=no, r=no, m=yes, c=no</text>
</g>
<!-- n33&#45;&gt;n32 -->
<g id="edge37" class="edge">
<title>n33&#45;&gt;n32</title>
<path fill="none" stroke="black" d="M1982.97,-887.52C1982.97,-879.35 1982.97,-870.57 1982.97,-862.04"/>
<polygon fill="black" stroke="black" points="1986.47,-861.82 1982.97,-851.82 1979.47,-861.82 1986.47,-861.82"/>
</g>
<!-- n40 -->
<g id="node42" class="node">
<title>n40</title>
<ellipse fill="none" stroke="black" cx="3152.97" cy="-814.15" rx="185.94" ry="37.45"/>
<text text-anchor="middle" x="3152.97" y="-825.45" font-family="Times,serif" font-size="14.00">tiempo</text>
<text text-anchor="middle" x="3152.97" y="-810.45" font-family="Times,serif" font-size="14.00">ncms000 (pobj)</text>
<text text-anchor="middle" x="3152.97" y="-795.45" font-family="Times,serif" font-size="14.00">rep=no, t=no, r=no, m=yes, c=no</text>
</g>
<!-- n39&#45;&gt;n40 -->
<g id="edge41" class="edge">
<title>n39&#45;&gt;n40</title>
<path fill="none" stroke="black" d="M3152.97,-887.52C3152.97,-879.35 3152.97,-870.57 3152.97,-862.04"/>
<polygon fill="black" stroke="black" points="3156.47,-861.82 3152.97,-851.82 3149.47,-861.82 3156.47,-861.82"/>
</g>
<!-- n43 -->
<g id="node44" class="node">
<title>n43</title>
<ellipse fill="none" stroke="black" cx="3542.97" cy="-814.15" rx="185.94" ry="37.45"/>
<text text-anchor="middle" x="3542.97" y="-825.45" font-family="Times,serif" font-size="14.00">científicos</text>
<text text-anchor="middle" x="3542.97" y="-810.45" font-family="Times,serif" font-size="14.00">aq0mp0 (amod)</text>
<text text-anchor="middle" x="3542.97" y="-795.45" font-family="Times,serif" font-size="14.00">rep=no, t=no, r=no, m=yes, c=no</text>
</g>
<!-- n42&#45;&gt;n43 -->
<g id="edge43" class="edge">
<title>n42&#45;&gt;n43</title>
<path fill="none" stroke="black" d="M3542.97,-887.52C3542.97,-879.35 3542.97,-870.57 3542.97,-862.04"/>
<polygon fill="black" stroke="black" points="3546.47,-861.82 3542.97,-851.82 3539.47,-861.82 3546.47,-861.82"/>
</g>
</g>
</svg>
