<?xml version="1.0" encoding="UTF-8" standalone="no"?>
<!DOCTYPE svg PUBLIC "-//W3C//DTD SVG 1.1//EN"
 "http://www.w3.org/Graphics/SVG/1.1/DTD/svg11.dtd">
<!-- Generated by graphviz version 2.43.0 (0)
 -->
<!-- Title: tree Pages: 1 -->
<svg width="2555pt" height="860pt"
 viewBox="0.00 0.00 2554.89 859.63" xmlns="http://www.w3.org/2000/svg" xmlns:xlink="http://www.w3.org/1999/xlink">
<g id="graph0" class="graph" transform="scale(1 1) rotate(0) translate(4 855.63)">
<title>tree</title>
<polygon fill="white" stroke="transparent" points="-4,4 -4,-855.63 2550.89,-855.63 2550.89,4 -4,4"/>
<!-- n11 -->
<g id="node1" class="node">
<title>n11</title>
<ellipse fill="none" stroke="black" cx="1085.92" cy="-814.15" rx="185.94" ry="37.45"/>
<text text-anchor="middle" x="1085.92" y="-825.45" font-family="Times,serif" font-size="14.00">y</text>
<text text-anchor="middle" x="1085.92" y="-810.45" font-family="Times,serif" font-size="14.00">cc (root)</text>
<text text-anchor="middle" x="1085.92" y="-795.45" font-family="Times,serif" font-size="14.00">rep=no, t=no, r=no, m=yes, c=no</text>
</g>
<!-- n2 -->
<g id="node2" class="node">
<title>n2</title>
<ellipse fill="#DA79E8" stroke="black" cx="640.92" cy="-703.2" rx="190.84" ry="37.45"/>
<text text-anchor="middle" x="640.92" y="-714.5" font-family="Times,serif" font-size="14.00">ha</text>
<text text-anchor="middle" x="640.92" y="-699.5" font-family="Times,serif" font-size="14.00">vaip3s0 (coord)</text>
<text text-anchor="middle" x="640.92" y="-684.5" font-family="Times,serif" font-size="14.00">rep=no, t=no, r=yes, m=yes, c=no</text>
</g>
<!-- n11&#45;&gt;n2 -->
<g id="edge1" class="edge">
<title>n11&#45;&gt;n2</title>
<path fill="none" stroke="black" d="M970.16,-784.81C908.2,-769.64 831.75,-750.92 768.13,-735.34"/>
<polygon fill="black" stroke="black" points="768.57,-731.85 758.03,-732.87 766.91,-738.65 768.57,-731.85"/>
</g>
<!-- n12 -->
<g id="node3" class="node">
<title>n12</title>
<ellipse fill="none" stroke="black" cx="1085.92" cy="-703.2" rx="185.94" ry="37.45"/>
<text text-anchor="middle" x="1085.92" y="-714.5" font-family="Times,serif" font-size="14.00">ha</text>
<text text-anchor="middle" x="1085.92" y="-699.5" font-family="Times,serif" font-size="14.00">vaip3s0 (coord)</text>
<text text-anchor="middle" x="1085.92" y="-684.5" font-family="Times,serif" font-size="14.00">rep=no, t=no, r=no, m=yes, c=no</text>
</g>
<!-- n11&#45;&gt;n12 -->
<g id="edge2" class="edge">
<title>n11&#45;&gt;n12</title>
<path fill="none" stroke="black" d="M1085.92,-776.57C1085.92,-768.39 1085.92,-759.61 1085.92,-751.09"/>
<polygon fill="black" stroke="black" points="1089.42,-750.87 1085.92,-740.87 1082.42,-750.87 1089.42,-750.87"/>
</g>
<!-- n22 -->
<g id="node4" class="node">
<title>n22</title>
<ellipse fill="none" stroke="black" cx="1471.92" cy="-703.2" rx="181.95" ry="37.45"/>
<text text-anchor="middle" x="1471.92" y="-714.5" font-family="Times,serif" font-size="14.00">.</text>
<text text-anchor="middle" x="1471.92" y="-699.5" font-family="Times,serif" font-size="14.00">fp (punct)</text>
<text text-anchor="middle" x="1471.92" y="-684.5" font-family="Times,serif" font-size="14.00">rep=no, t=no, r=no, m=no, c=no</text>
</g>
<!-- n11&#45;&gt;n22 -->
<g id="edge3" class="edge">
<title>n11&#45;&gt;n22</title>
<path fill="none" stroke="black" d="M1191.65,-783.31C1242.92,-768.83 1304.6,-751.42 1357.03,-736.63"/>
<polygon fill="black" stroke="black" points="1358.03,-739.98 1366.7,-733.89 1356.13,-733.24 1358.03,-739.98"/>
</g>
<!-- n1 -->
<g id="node5" class="node">
<title>n1</title>
<ellipse fill="#BEDA48" stroke="black" cx="240.92" cy="-592.24" rx="190.84" ry="37.45"/>
<text text-anchor="middle" x="240.92" y="-603.54" font-family="Times,serif" font-size="14.00">Wiranto</text>
<text text-anchor="middle" x="240.92" y="-588.54" font-family="Times,serif" font-size="14.00">np00000 (nsubj)</text>
<text text-anchor="middle" x="240.92" y="-573.54" font-family="Times,serif" font-size="14.00">rep=no, t=yes, r=no, m=yes, c=no</text>
</g>
<!-- n2&#45;&gt;n1 -->
<g id="edge4" class="edge">
<title>n2&#45;&gt;n1</title>
<path fill="none" stroke="black" d="M531.62,-672.42C478.48,-657.95 414.51,-640.53 360.12,-625.71"/>
<polygon fill="black" stroke="black" points="361,-622.32 350.44,-623.07 359.16,-629.08 361,-622.32"/>
</g>
<!-- n3 -->
<g id="node6" class="node">
<title>n3</title>
<ellipse fill="#DA79E8" stroke="black" cx="640.92" cy="-592.24" rx="190.84" ry="37.45"/>
<text text-anchor="middle" x="640.92" y="-603.54" font-family="Times,serif" font-size="14.00">negado</text>
<text text-anchor="middle" x="640.92" y="-588.54" font-family="Times,serif" font-size="14.00">vmp00sm (vobj)</text>
<text text-anchor="middle" x="640.92" y="-573.54" font-family="Times,serif" font-size="14.00">rep=no, t=no, r=yes, m=yes, c=no</text>
</g>
<!-- n2&#45;&gt;n3 -->
<g id="edge5" class="edge">
<title>n2&#45;&gt;n3</title>
<path fill="none" stroke="black" d="M640.92,-665.61C640.92,-657.44 640.92,-648.66 640.92,-640.13"/>
<polygon fill="black" stroke="black" points="644.42,-639.92 640.92,-629.92 637.42,-639.92 644.42,-639.92"/>
</g>
<!-- n13 -->
<g id="node14" class="node">
<title>n13</title>
<ellipse fill="none" stroke="black" cx="1285.92" cy="-592.24" rx="185.94" ry="37.45"/>
<text text-anchor="middle" x="1285.92" y="-603.54" font-family="Times,serif" font-size="14.00">defendido</text>
<text text-anchor="middle" x="1285.92" y="-588.54" font-family="Times,serif" font-size="14.00">vmp00sm (vobj)</text>
<text text-anchor="middle" x="1285.92" y="-573.54" font-family="Times,serif" font-size="14.00">rep=no, t=no, r=no, m=yes, c=no</text>
</g>
<!-- n12&#45;&gt;n13 -->
<g id="edge13" class="edge">
<title>n12&#45;&gt;n13</title>
<path fill="none" stroke="black" d="M1148.93,-667.87C1169.56,-656.63 1192.65,-644.05 1213.9,-632.48"/>
<polygon fill="black" stroke="black" points="1215.78,-635.44 1222.89,-627.58 1212.43,-629.29 1215.78,-635.44"/>
</g>
<!-- n6 -->
<g id="node7" class="node">
<title>n6</title>
<ellipse fill="#DA79E8" stroke="black" cx="615.92" cy="-481.29" rx="190.84" ry="37.45"/>
<text text-anchor="middle" x="615.92" y="-492.59" font-family="Times,serif" font-size="14.00">acusaciones</text>
<text text-anchor="middle" x="615.92" y="-477.59" font-family="Times,serif" font-size="14.00">ncfp000 (dobj)</text>
<text text-anchor="middle" x="615.92" y="-462.59" font-family="Times,serif" font-size="14.00">rep=no, t=no, r=yes, m=yes, c=no</text>
</g>
<!-- n3&#45;&gt;n6 -->
<g id="edge6" class="edge">
<title>n3&#45;&gt;n6</title>
<path fill="none" stroke="black" d="M632.52,-554.66C630.63,-546.4 628.59,-537.51 626.61,-528.9"/>
<polygon fill="black" stroke="black" points="629.98,-527.93 624.33,-518.96 623.16,-529.49 629.98,-527.93"/>
</g>
<!-- n4 -->
<g id="node8" class="node">
<title>n4</title>
<ellipse fill="#DA79E8" stroke="black" cx="190.92" cy="-370.34" rx="190.84" ry="37.45"/>
<text text-anchor="middle" x="190.92" y="-381.64" font-family="Times,serif" font-size="14.00">todas</text>
<text text-anchor="middle" x="190.92" y="-366.64" font-family="Times,serif" font-size="14.00">di0fp0 (det)</text>
<text text-anchor="middle" x="190.92" y="-351.64" font-family="Times,serif" font-size="14.00">rep=no, t=no, r=yes, m=yes, c=no</text>
</g>
<!-- n6&#45;&gt;n4 -->
<g id="edge7" class="edge">
<title>n6&#45;&gt;n4</title>
<path fill="none" stroke="black" d="M502.31,-451.16C444.31,-436.3 373.66,-418.18 314.33,-402.97"/>
<polygon fill="black" stroke="black" points="315.09,-399.56 304.53,-400.46 313.35,-406.34 315.09,-399.56"/>
</g>
<!-- n5 -->
<g id="node9" class="node">
<title>n5</title>
<ellipse fill="#DA79E8" stroke="black" cx="590.92" cy="-370.34" rx="190.84" ry="37.45"/>
<text text-anchor="middle" x="590.92" y="-381.64" font-family="Times,serif" font-size="14.00">las</text>
<text text-anchor="middle" x="590.92" y="-366.64" font-family="Times,serif" font-size="14.00">da0fp0 (det)</text>
<text text-anchor="middle" x="590.92" y="-351.64" font-family="Times,serif" font-size="14.00">rep=no, t=no, r=yes, m=yes, c=no</text>
</g>
<!-- n6&#45;&gt;n5 -->
<g id="edge8" class="edge">
<title>n6&#45;&gt;n5</title>
<path fill="none" stroke="black" d="M607.52,-443.71C605.63,-435.44 603.59,-426.56 601.61,-417.95"/>
<polygon fill="black" stroke="black" points="604.98,-416.97 599.33,-408.01 598.16,-418.54 604.98,-416.97"/>
</g>
<!-- n7 -->
<g id="node10" class="node">
<title>n7</title>
<ellipse fill="#DA79E8" stroke="black" cx="990.92" cy="-370.34" rx="190.84" ry="37.45"/>
<text text-anchor="middle" x="990.92" y="-381.64" font-family="Times,serif" font-size="14.00">formuladas</text>
<text text-anchor="middle" x="990.92" y="-366.64" font-family="Times,serif" font-size="14.00">aq0fpp (amod)</text>
<text text-anchor="middle" x="990.92" y="-351.64" font-family="Times,serif" font-size="14.00">rep=no, t=no, r=yes, m=yes, c=no</text>
</g>
<!-- n6&#45;&gt;n7 -->
<g id="edge9" class="edge">
<title>n6&#45;&gt;n7</title>
<path fill="none" stroke="black" d="M720.88,-449.8C769.32,-435.72 826.96,-418.97 876.51,-404.58"/>
<polygon fill="black" stroke="black" points="877.69,-407.88 886.31,-401.73 875.73,-401.16 877.69,-407.88"/>
</g>
<!-- n8 -->
<g id="node11" class="node">
<title>n8</title>
<ellipse fill="#DA79E8" stroke="black" cx="990.92" cy="-259.38" rx="190.84" ry="37.45"/>
<text text-anchor="middle" x="990.92" y="-270.68" font-family="Times,serif" font-size="14.00">en</text>
<text text-anchor="middle" x="990.92" y="-255.68" font-family="Times,serif" font-size="14.00">sps00 (prepa)</text>
<text text-anchor="middle" x="990.92" y="-240.68" font-family="Times,serif" font-size="14.00">rep=no, t=no, r=yes, m=yes, c=no</text>
</g>
<!-- n7&#45;&gt;n8 -->
<g id="edge10" class="edge">
<title>n7&#45;&gt;n8</title>
<path fill="none" stroke="black" d="M990.92,-332.75C990.92,-324.58 990.92,-315.8 990.92,-307.27"/>
<polygon fill="black" stroke="black" points="994.42,-307.06 990.92,-297.06 987.42,-307.06 994.42,-307.06"/>
</g>
<!-- n10 -->
<g id="node12" class="node">
<title>n10</title>
<ellipse fill="#DA79E8" stroke="black" cx="990.92" cy="-148.43" rx="190.84" ry="37.45"/>
<text text-anchor="middle" x="990.92" y="-159.73" font-family="Times,serif" font-size="14.00">contra</text>
<text text-anchor="middle" x="990.92" y="-144.73" font-family="Times,serif" font-size="14.00">ncfs000 (pobj)</text>
<text text-anchor="middle" x="990.92" y="-129.73" font-family="Times,serif" font-size="14.00">rep=no, t=no, r=yes, m=yes, c=no</text>
</g>
<!-- n8&#45;&gt;n10 -->
<g id="edge11" class="edge">
<title>n8&#45;&gt;n10</title>
<path fill="none" stroke="black" d="M990.92,-221.8C990.92,-213.63 990.92,-204.85 990.92,-196.32"/>
<polygon fill="black" stroke="black" points="994.42,-196.1 990.92,-186.1 987.42,-196.1 994.42,-196.1"/>
</g>
<!-- n9 -->
<g id="node13" class="node">
<title>n9</title>
<ellipse fill="#DA79E8" stroke="black" cx="990.92" cy="-37.48" rx="190.84" ry="37.45"/>
<text text-anchor="middle" x="990.92" y="-48.78" font-family="Times,serif" font-size="14.00">su</text>
<text text-anchor="middle" x="990.92" y="-33.78" font-family="Times,serif" font-size="14.00">dp3cs0 (poss)</text>
<text text-anchor="middle" x="990.92" y="-18.78" font-family="Times,serif" font-size="14.00">rep=no, t=no, r=yes, m=yes, c=no</text>
</g>
<!-- n10&#45;&gt;n9 -->
<g id="edge12" class="edge">
<title>n10&#45;&gt;n9</title>
<path fill="none" stroke="black" d="M990.92,-110.85C990.92,-102.67 990.92,-93.89 990.92,-85.37"/>
<polygon fill="black" stroke="black" points="994.42,-85.15 990.92,-75.15 987.42,-85.15 994.42,-85.15"/>
</g>
<!-- n15 -->
<g id="node15" class="node">
<title>n15</title>
<ellipse fill="none" stroke="black" cx="1385.92" cy="-481.29" rx="185.94" ry="37.45"/>
<text text-anchor="middle" x="1385.92" y="-492.59" font-family="Times,serif" font-size="14.00">gestión</text>
<text text-anchor="middle" x="1385.92" y="-477.59" font-family="Times,serif" font-size="14.00">ncfs000 (dobj)</text>
<text text-anchor="middle" x="1385.92" y="-462.59" font-family="Times,serif" font-size="14.00">rep=no, t=no, r=no, m=yes, c=no</text>
</g>
<!-- n13&#45;&gt;n15 -->
<g id="edge14" class="edge">
<title>n13&#45;&gt;n15</title>
<path fill="none" stroke="black" d="M1318.94,-555.27C1327.64,-545.78 1337.13,-535.45 1346.15,-525.62"/>
<polygon fill="black" stroke="black" points="1348.75,-527.96 1352.93,-518.23 1343.59,-523.23 1348.75,-527.96"/>
</g>
<!-- n14 -->
<g id="node16" class="node">
<title>n14</title>
<ellipse fill="none" stroke="black" cx="1385.92" cy="-370.34" rx="185.94" ry="37.45"/>
<text text-anchor="middle" x="1385.92" y="-381.64" font-family="Times,serif" font-size="14.00">su</text>
<text text-anchor="middle" x="1385.92" y="-366.64" font-family="Times,serif" font-size="14.00">dp3cs0 (poss)</text>
<text text-anchor="middle" x="1385.92" y="-351.64" font-family="Times,serif" font-size="14.00">rep=no, t=no, r=no, m=yes, c=no</text>
</g>
<!-- n15&#45;&gt;n14 -->
<g id="edge15" class="edge">
<title>n15&#45;&gt;n14</title>
<path fill="none" stroke="black" d="M1385.92,-443.71C1385.92,-435.53 1385.92,-426.75 1385.92,-418.23"/>
<polygon fill="black" stroke="black" points="1389.42,-418.01 1385.92,-408.01 1382.42,-418.01 1389.42,-418.01"/>
</g>
<!-- n16 -->
<g id="node17" class="node">
<title>n16</title>
<ellipse fill="none" stroke="black" cx="1775.92" cy="-370.34" rx="185.94" ry="37.45"/>
<text text-anchor="middle" x="1775.92" y="-381.64" font-family="Times,serif" font-size="14.00">al</text>
<text text-anchor="middle" x="1775.92" y="-366.64" font-family="Times,serif" font-size="14.00">sps00 (prepn)</text>
<text text-anchor="middle" x="1775.92" y="-351.64" font-family="Times,serif" font-size="14.00">rep=no, t=no, r=no, m=yes, c=no</text>
</g>
<!-- n15&#45;&gt;n16 -->
<g id="edge16" class="edge">
<title>n15&#45;&gt;n16</title>
<path fill="none" stroke="black" d="M1492.49,-450.52C1544.29,-436.05 1606.66,-418.62 1659.69,-403.81"/>
<polygon fill="black" stroke="black" points="1660.79,-407.13 1669.48,-401.07 1658.91,-400.39 1660.79,-407.13"/>
</g>
<!-- n17 -->
<g id="node18" class="node">
<title>n17</title>
<ellipse fill="none" stroke="black" cx="1580.92" cy="-259.38" rx="185.94" ry="37.45"/>
<text text-anchor="middle" x="1580.92" y="-270.68" font-family="Times,serif" font-size="14.00">frente</text>
<text text-anchor="middle" x="1580.92" y="-255.68" font-family="Times,serif" font-size="14.00">rg (advmod)</text>
<text text-anchor="middle" x="1580.92" y="-240.68" font-family="Times,serif" font-size="14.00">rep=no, t=no, r=no, m=yes, c=no</text>
</g>
<!-- n16&#45;&gt;n17 -->
<g id="edge17" class="edge">
<title>n16&#45;&gt;n17</title>
<path fill="none" stroke="black" d="M1714.22,-334.86C1694.29,-323.73 1672.05,-311.3 1651.53,-299.84"/>
<polygon fill="black" stroke="black" points="1652.99,-296.64 1642.55,-294.82 1649.57,-302.75 1652.99,-296.64"/>
</g>
<!-- n20 -->
<g id="node19" class="node">
<title>n20</title>
<ellipse fill="none" stroke="black" cx="1970.92" cy="-259.38" rx="185.94" ry="37.45"/>
<text text-anchor="middle" x="1970.92" y="-270.68" font-family="Times,serif" font-size="14.00">Fuerzas</text>
<text text-anchor="middle" x="1970.92" y="-255.68" font-family="Times,serif" font-size="14.00">ncms000 (pobj)</text>
<text text-anchor="middle" x="1970.92" y="-240.68" font-family="Times,serif" font-size="14.00">rep=no, t=no, r=no, m=yes, c=no</text>
</g>
<!-- n16&#45;&gt;n20 -->
<g id="edge18" class="edge">
<title>n16&#45;&gt;n20</title>
<path fill="none" stroke="black" d="M1837.62,-334.86C1857.54,-323.73 1879.79,-311.3 1900.3,-299.84"/>
<polygon fill="black" stroke="black" points="1902.26,-302.75 1909.29,-294.82 1898.85,-296.64 1902.26,-302.75"/>
</g>
<!-- n18 -->
<g id="node20" class="node">
<title>n18</title>
<ellipse fill="none" stroke="black" cx="1580.92" cy="-148.43" rx="185.94" ry="37.45"/>
<text text-anchor="middle" x="1580.92" y="-159.73" font-family="Times,serif" font-size="14.00">de</text>
<text text-anchor="middle" x="1580.92" y="-144.73" font-family="Times,serif" font-size="14.00">spcms (prep)</text>
<text text-anchor="middle" x="1580.92" y="-129.73" font-family="Times,serif" font-size="14.00">rep=no, t=no, r=no, m=yes, c=no</text>
</g>
<!-- n17&#45;&gt;n18 -->
<g id="edge19" class="edge">
<title>n17&#45;&gt;n18</title>
<path fill="none" stroke="black" d="M1580.92,-221.8C1580.92,-213.63 1580.92,-204.85 1580.92,-196.32"/>
<polygon fill="black" stroke="black" points="1584.42,-196.1 1580.92,-186.1 1577.42,-196.1 1584.42,-196.1"/>
</g>
<!-- n19 -->
<g id="node21" class="node">
<title>n19</title>
<ellipse fill="none" stroke="black" cx="1970.92" cy="-148.43" rx="185.94" ry="37.45"/>
<text text-anchor="middle" x="1970.92" y="-159.73" font-family="Times,serif" font-size="14.00">las</text>
<text text-anchor="middle" x="1970.92" y="-144.73" font-family="Times,serif" font-size="14.00">da0fp0 (det)</text>
<text text-anchor="middle" x="1970.92" y="-129.73" font-family="Times,serif" font-size="14.00">rep=no, t=no, r=no, m=yes, c=no</text>
</g>
<!-- n20&#45;&gt;n19 -->
<g id="edge20" class="edge">
<title>n20&#45;&gt;n19</title>
<path fill="none" stroke="black" d="M1970.92,-221.8C1970.92,-213.63 1970.92,-204.85 1970.92,-196.32"/>
<polygon fill="black" stroke="black" points="1974.42,-196.1 1970.92,-186.1 1967.42,-196.1 1974.42,-196.1"/>
</g>
<!-- n21 -->
<g id="node22" class="node">
<title>n21</title>
<ellipse fill="none" stroke="black" cx="2360.92" cy="-148.43" rx="185.94" ry="37.45"/>
<text text-anchor="middle" x="2360.92" y="-159.73" font-family="Times,serif" font-size="14.00">Armadas</text>
<text text-anchor="middle" x="2360.92" y="-144.73" font-family="Times,serif" font-size="14.00">aq0ms0 (amod)</text>
<text text-anchor="middle" x="2360.92" y="-129.73" font-family="Times,serif" font-size="14.00">rep=no, t=no, r=no, m=yes, c=no</text>
</g>
<!-- n20&#45;&gt;n21 -->
<g id="edge21" class="edge">
<title>n20&#45;&gt;n21</title>
<path fill="none" stroke="black" d="M2077.49,-228.61C2129.29,-214.14 2191.66,-196.71 2244.69,-181.9"/>
<polygon fill="black" stroke="black" points="2245.79,-185.23 2254.48,-179.17 2243.91,-178.49 2245.79,-185.23"/>
</g>
</g>
</svg>
