<?xml version="1.0" encoding="UTF-8" standalone="no"?>
<!DOCTYPE svg PUBLIC "-//W3C//DTD SVG 1.1//EN"
 "http://www.w3.org/Graphics/SVG/1.1/DTD/svg11.dtd">
<!-- Generated by graphviz version 2.43.0 (0)
 -->
<!-- Title: tree Pages: 1 -->
<svg width="4626pt" height="1858pt"
 viewBox="0.00 0.00 4625.89 1858.21" xmlns="http://www.w3.org/2000/svg" xmlns:xlink="http://www.w3.org/1999/xlink">
<g id="graph0" class="graph" transform="scale(1 1) rotate(0) translate(4 1854.21)">
<title>tree</title>
<polygon fill="white" stroke="transparent" points="-4,4 -4,-1854.21 4621.89,-1854.21 4621.89,4 -4,4"/>
<!-- n7 -->
<g id="node1" class="node">
<title>n7</title>
<ellipse fill="#DA79E8" stroke="black" cx="990.92" cy="-1812.73" rx="190.84" ry="37.45"/>
<text text-anchor="middle" x="990.92" y="-1824.03" font-family="Times,serif" font-size="14.00">ha</text>
<text text-anchor="middle" x="990.92" y="-1809.03" font-family="Times,serif" font-size="14.00">vaip3s0 (root)</text>
<text text-anchor="middle" x="990.92" y="-1794.03" font-family="Times,serif" font-size="14.00">rep=no, t=no, r=yes, m=yes, c=no</text>
</g>
<!-- n2 -->
<g id="node2" class="node">
<title>n2</title>
<ellipse fill="#BEDA48" stroke="black" cx="590.92" cy="-1701.78" rx="190.84" ry="37.45"/>
<text text-anchor="middle" x="590.92" y="-1713.08" font-family="Times,serif" font-size="14.00">redacción</text>
<text text-anchor="middle" x="590.92" y="-1698.08" font-family="Times,serif" font-size="14.00">ncfs000 (nsubj)</text>
<text text-anchor="middle" x="590.92" y="-1683.08" font-family="Times,serif" font-size="14.00">rep=no, t=yes, r=no, m=yes, c=no</text>
</g>
<!-- n7&#45;&gt;n2 -->
<g id="edge1" class="edge">
<title>n7&#45;&gt;n2</title>
<path fill="none" stroke="black" d="M881.62,-1781.96C828.48,-1767.48 764.51,-1750.06 710.12,-1735.25"/>
<polygon fill="black" stroke="black" points="711,-1731.86 700.44,-1732.61 709.16,-1738.61 711,-1731.86"/>
</g>
<!-- n8 -->
<g id="node3" class="node">
<title>n8</title>
<ellipse fill="#DA79E8" stroke="black" cx="990.92" cy="-1701.78" rx="190.84" ry="37.45"/>
<text text-anchor="middle" x="990.92" y="-1713.08" font-family="Times,serif" font-size="14.00">denunciado</text>
<text text-anchor="middle" x="990.92" y="-1698.08" font-family="Times,serif" font-size="14.00">vmp00sm (vobj)</text>
<text text-anchor="middle" x="990.92" y="-1683.08" font-family="Times,serif" font-size="14.00">rep=no, t=no, r=yes, m=yes, c=no</text>
</g>
<!-- n7&#45;&gt;n8 -->
<g id="edge2" class="edge">
<title>n7&#45;&gt;n8</title>
<path fill="none" stroke="black" d="M990.92,-1775.15C990.92,-1766.97 990.92,-1758.19 990.92,-1749.67"/>
<polygon fill="black" stroke="black" points="994.42,-1749.45 990.92,-1739.45 987.42,-1749.45 994.42,-1749.45"/>
</g>
<!-- n53 -->
<g id="node4" class="node">
<title>n53</title>
<ellipse fill="none" stroke="black" cx="1381.92" cy="-1701.78" rx="181.95" ry="37.45"/>
<text text-anchor="middle" x="1381.92" y="-1713.08" font-family="Times,serif" font-size="14.00">.</text>
<text text-anchor="middle" x="1381.92" y="-1698.08" font-family="Times,serif" font-size="14.00">fp (punct)</text>
<text text-anchor="middle" x="1381.92" y="-1683.08" font-family="Times,serif" font-size="14.00">rep=no, t=no, r=no, m=no, c=no</text>
</g>
<!-- n7&#45;&gt;n53 -->
<g id="edge3" class="edge">
<title>n7&#45;&gt;n53</title>
<path fill="none" stroke="black" d="M1098.54,-1781.74C1150.57,-1767.24 1213.09,-1749.82 1266.16,-1735.03"/>
<polygon fill="black" stroke="black" points="1267.26,-1738.36 1275.95,-1732.31 1265.38,-1731.62 1267.26,-1738.36"/>
</g>
<!-- n1 -->
<g id="node5" class="node">
<title>n1</title>
<ellipse fill="#BEDA48" stroke="black" cx="190.92" cy="-1590.82" rx="190.84" ry="37.45"/>
<text text-anchor="middle" x="190.92" y="-1602.12" font-family="Times,serif" font-size="14.00">La</text>
<text text-anchor="middle" x="190.92" y="-1587.12" font-family="Times,serif" font-size="14.00">da0fs0 (det)</text>
<text text-anchor="middle" x="190.92" y="-1572.12" font-family="Times,serif" font-size="14.00">rep=no, t=yes, r=no, m=yes, c=no</text>
</g>
<!-- n2&#45;&gt;n1 -->
<g id="edge4" class="edge">
<title>n2&#45;&gt;n1</title>
<path fill="none" stroke="black" d="M481.62,-1671C428.48,-1656.53 364.51,-1639.11 310.12,-1624.29"/>
<polygon fill="black" stroke="black" points="311,-1620.9 300.44,-1621.65 309.16,-1627.66 311,-1620.9"/>
</g>
<!-- n3 -->
<g id="node6" class="node">
<title>n3</title>
<ellipse fill="#BEDA48" stroke="black" cx="590.92" cy="-1590.82" rx="190.84" ry="37.45"/>
<text text-anchor="middle" x="590.92" y="-1602.12" font-family="Times,serif" font-size="14.00">de</text>
<text text-anchor="middle" x="590.92" y="-1587.12" font-family="Times,serif" font-size="14.00">sps00 (prepn)</text>
<text text-anchor="middle" x="590.92" y="-1572.12" font-family="Times,serif" font-size="14.00">rep=no, t=yes, r=no, m=yes, c=no</text>
</g>
<!-- n2&#45;&gt;n3 -->
<g id="edge5" class="edge">
<title>n2&#45;&gt;n3</title>
<path fill="none" stroke="black" d="M590.92,-1664.19C590.92,-1656.02 590.92,-1647.24 590.92,-1638.71"/>
<polygon fill="black" stroke="black" points="594.42,-1638.49 590.92,-1628.49 587.42,-1638.5 594.42,-1638.49"/>
</g>
<!-- n10 -->
<g id="node10" class="node">
<title>n10</title>
<ellipse fill="#DA79E8" stroke="black" cx="990.92" cy="-1590.82" rx="190.84" ry="37.45"/>
<text text-anchor="middle" x="990.92" y="-1602.12" font-family="Times,serif" font-size="14.00">manipulación</text>
<text text-anchor="middle" x="990.92" y="-1587.12" font-family="Times,serif" font-size="14.00">ncfs000 (dobj)</text>
<text text-anchor="middle" x="990.92" y="-1572.12" font-family="Times,serif" font-size="14.00">rep=no, t=no, r=yes, m=yes, c=no</text>
</g>
<!-- n8&#45;&gt;n10 -->
<g id="edge9" class="edge">
<title>n8&#45;&gt;n10</title>
<path fill="none" stroke="black" d="M990.92,-1664.19C990.92,-1656.02 990.92,-1647.24 990.92,-1638.71"/>
<polygon fill="black" stroke="black" points="994.42,-1638.49 990.92,-1628.49 987.42,-1638.5 994.42,-1638.49"/>
</g>
<!-- n5 -->
<g id="node7" class="node">
<title>n5</title>
<ellipse fill="#BEDA48" stroke="black" cx="590.92" cy="-1479.87" rx="190.84" ry="37.45"/>
<text text-anchor="middle" x="590.92" y="-1491.17" font-family="Times,serif" font-size="14.00">revista</text>
<text text-anchor="middle" x="590.92" y="-1476.17" font-family="Times,serif" font-size="14.00">ncfs000 (pobj)</text>
<text text-anchor="middle" x="590.92" y="-1461.17" font-family="Times,serif" font-size="14.00">rep=no, t=yes, r=no, m=yes, c=no</text>
</g>
<!-- n3&#45;&gt;n5 -->
<g id="edge6" class="edge">
<title>n3&#45;&gt;n5</title>
<path fill="none" stroke="black" d="M590.92,-1553.24C590.92,-1545.07 590.92,-1536.29 590.92,-1527.76"/>
<polygon fill="black" stroke="black" points="594.42,-1527.54 590.92,-1517.54 587.42,-1527.54 594.42,-1527.54"/>
</g>
<!-- n4 -->
<g id="node8" class="node">
<title>n4</title>
<ellipse fill="#BEDA48" stroke="black" cx="290.92" cy="-1368.92" rx="190.84" ry="37.45"/>
<text text-anchor="middle" x="290.92" y="-1380.22" font-family="Times,serif" font-size="14.00">la</text>
<text text-anchor="middle" x="290.92" y="-1365.22" font-family="Times,serif" font-size="14.00">da0fs0 (det)</text>
<text text-anchor="middle" x="290.92" y="-1350.22" font-family="Times,serif" font-size="14.00">rep=no, t=yes, r=no, m=yes, c=no</text>
</g>
<!-- n5&#45;&gt;n4 -->
<g id="edge7" class="edge">
<title>n5&#45;&gt;n4</title>
<path fill="none" stroke="black" d="M502.13,-1446.62C466.68,-1433.75 425.73,-1418.88 389.37,-1405.67"/>
<polygon fill="black" stroke="black" points="390.34,-1402.3 379.74,-1402.18 387.95,-1408.88 390.34,-1402.3"/>
</g>
<!-- n6 -->
<g id="node9" class="node">
<title>n6</title>
<ellipse fill="#BEDA48" stroke="black" cx="690.92" cy="-1368.92" rx="190.84" ry="37.45"/>
<text text-anchor="middle" x="690.92" y="-1380.22" font-family="Times,serif" font-size="14.00">Interviú</text>
<text text-anchor="middle" x="690.92" y="-1365.22" font-family="Times,serif" font-size="14.00">np00000 (appos)</text>
<text text-anchor="middle" x="690.92" y="-1350.22" font-family="Times,serif" font-size="14.00">rep=no, t=yes, r=no, m=yes, c=no</text>
</g>
<!-- n5&#45;&gt;n6 -->
<g id="edge8" class="edge">
<title>n5&#45;&gt;n6</title>
<path fill="none" stroke="black" d="M623.94,-1442.89C632.64,-1433.41 642.13,-1423.08 651.15,-1413.25"/>
<polygon fill="black" stroke="black" points="653.75,-1415.59 657.93,-1405.86 648.59,-1410.86 653.75,-1415.59"/>
</g>
<!-- n9 -->
<g id="node11" class="node">
<title>n9</title>
<ellipse fill="#DA79E8" stroke="black" cx="990.92" cy="-1479.87" rx="190.84" ry="37.45"/>
<text text-anchor="middle" x="990.92" y="-1491.17" font-family="Times,serif" font-size="14.00">la</text>
<text text-anchor="middle" x="990.92" y="-1476.17" font-family="Times,serif" font-size="14.00">da0fs0 (det)</text>
<text text-anchor="middle" x="990.92" y="-1461.17" font-family="Times,serif" font-size="14.00">rep=no, t=no, r=yes, m=yes, c=no</text>
</g>
<!-- n10&#45;&gt;n9 -->
<g id="edge10" class="edge">
<title>n10&#45;&gt;n9</title>
<path fill="none" stroke="black" d="M990.92,-1553.24C990.92,-1545.07 990.92,-1536.29 990.92,-1527.76"/>
<polygon fill="black" stroke="black" points="994.42,-1527.54 990.92,-1517.54 987.42,-1527.54 994.42,-1527.54"/>
</g>
<!-- n11 -->
<g id="node12" class="node">
<title>n11</title>
<ellipse fill="#DA79E8" stroke="black" cx="1390.92" cy="-1479.87" rx="190.84" ry="37.45"/>
<text text-anchor="middle" x="1390.92" y="-1491.17" font-family="Times,serif" font-size="14.00">llevada</text>
<text text-anchor="middle" x="1390.92" y="-1476.17" font-family="Times,serif" font-size="14.00">aq0ms0 (amod)</text>
<text text-anchor="middle" x="1390.92" y="-1461.17" font-family="Times,serif" font-size="14.00">rep=no, t=no, r=yes, m=yes, c=no</text>
</g>
<!-- n10&#45;&gt;n11 -->
<g id="edge11" class="edge">
<title>n10&#45;&gt;n11</title>
<path fill="none" stroke="black" d="M1100.22,-1560.05C1153.36,-1545.58 1217.33,-1528.15 1271.71,-1513.34"/>
<polygon fill="black" stroke="black" points="1272.67,-1516.71 1281.4,-1510.7 1270.83,-1509.95 1272.67,-1516.71"/>
</g>
<!-- n12 -->
<g id="node13" class="node">
<title>n12</title>
<ellipse fill="#DA79E8" stroke="black" cx="1290.92" cy="-1368.92" rx="190.84" ry="37.45"/>
<text text-anchor="middle" x="1290.92" y="-1380.22" font-family="Times,serif" font-size="14.00">a</text>
<text text-anchor="middle" x="1290.92" y="-1365.22" font-family="Times,serif" font-size="14.00">sps00 (prepa)</text>
<text text-anchor="middle" x="1290.92" y="-1350.22" font-family="Times,serif" font-size="14.00">rep=no, t=no, r=yes, m=yes, c=no</text>
</g>
<!-- n11&#45;&gt;n12 -->
<g id="edge12" class="edge">
<title>n11&#45;&gt;n12</title>
<path fill="none" stroke="black" d="M1357.9,-1442.89C1349.19,-1433.41 1339.71,-1423.08 1330.69,-1413.25"/>
<polygon fill="black" stroke="black" points="1333.25,-1410.86 1323.91,-1405.86 1328.09,-1415.59 1333.25,-1410.86"/>
</g>
<!-- n14 -->
<g id="node14" class="node">
<title>n14</title>
<ellipse fill="#DA79E8" stroke="black" cx="1690.92" cy="-1368.92" rx="190.84" ry="37.45"/>
<text text-anchor="middle" x="1690.92" y="-1380.22" font-family="Times,serif" font-size="14.00">por</text>
<text text-anchor="middle" x="1690.92" y="-1365.22" font-family="Times,serif" font-size="14.00">sps00 (agent)</text>
<text text-anchor="middle" x="1690.92" y="-1350.22" font-family="Times,serif" font-size="14.00">rep=no, t=no, r=yes, m=yes, c=no</text>
</g>
<!-- n11&#45;&gt;n14 -->
<g id="edge13" class="edge">
<title>n11&#45;&gt;n14</title>
<path fill="none" stroke="black" d="M1479.71,-1446.62C1515.16,-1433.75 1556.11,-1418.88 1592.47,-1405.67"/>
<polygon fill="black" stroke="black" points="1593.89,-1408.88 1602.1,-1402.18 1591.5,-1402.3 1593.89,-1408.88"/>
</g>
<!-- n13 -->
<g id="node15" class="node">
<title>n13</title>
<ellipse fill="#DA79E8" stroke="black" cx="1290.92" cy="-1257.96" rx="190.84" ry="37.45"/>
<text text-anchor="middle" x="1290.92" y="-1269.26" font-family="Times,serif" font-size="14.00">cabo</text>
<text text-anchor="middle" x="1290.92" y="-1254.26" font-family="Times,serif" font-size="14.00">ncfs000 (pobj)</text>
<text text-anchor="middle" x="1290.92" y="-1239.26" font-family="Times,serif" font-size="14.00">rep=no, t=no, r=yes, m=yes, c=no</text>
</g>
<!-- n12&#45;&gt;n13 -->
<g id="edge14" class="edge">
<title>n12&#45;&gt;n13</title>
<path fill="none" stroke="black" d="M1290.92,-1331.33C1290.92,-1323.16 1290.92,-1314.38 1290.92,-1305.85"/>
<polygon fill="black" stroke="black" points="1294.42,-1305.64 1290.92,-1295.64 1287.42,-1305.64 1294.42,-1305.64"/>
</g>
<!-- n16 -->
<g id="node16" class="node">
<title>n16</title>
<ellipse fill="#DA79E8" stroke="black" cx="1690.92" cy="-1257.96" rx="190.84" ry="37.45"/>
<text text-anchor="middle" x="1690.92" y="-1269.26" font-family="Times,serif" font-size="14.00">diario</text>
<text text-anchor="middle" x="1690.92" y="-1254.26" font-family="Times,serif" font-size="14.00">ncms000 (pobj)</text>
<text text-anchor="middle" x="1690.92" y="-1239.26" font-family="Times,serif" font-size="14.00">rep=no, t=no, r=yes, m=yes, c=no</text>
</g>
<!-- n14&#45;&gt;n16 -->
<g id="edge15" class="edge">
<title>n14&#45;&gt;n16</title>
<path fill="none" stroke="black" d="M1690.92,-1331.33C1690.92,-1323.16 1690.92,-1314.38 1690.92,-1305.85"/>
<polygon fill="black" stroke="black" points="1694.42,-1305.64 1690.92,-1295.64 1687.42,-1305.64 1694.42,-1305.64"/>
</g>
<!-- n15 -->
<g id="node17" class="node">
<title>n15</title>
<ellipse fill="#DA79E8" stroke="black" cx="1090.92" cy="-1147.01" rx="190.84" ry="37.45"/>
<text text-anchor="middle" x="1090.92" y="-1158.31" font-family="Times,serif" font-size="14.00">el</text>
<text text-anchor="middle" x="1090.92" y="-1143.31" font-family="Times,serif" font-size="14.00">da0ms0 (det)</text>
<text text-anchor="middle" x="1090.92" y="-1128.31" font-family="Times,serif" font-size="14.00">rep=no, t=no, r=yes, m=yes, c=no</text>
</g>
<!-- n16&#45;&gt;n15 -->
<g id="edge16" class="edge">
<title>n16&#45;&gt;n15</title>
<path fill="none" stroke="black" d="M1553.48,-1231.85C1532.53,-1228.04 1511.15,-1224.15 1490.92,-1220.49 1402.05,-1204.38 1379.79,-1200.59 1290.92,-1184.49 1273.85,-1181.39 1255.96,-1178.14 1238.2,-1174.91"/>
<polygon fill="black" stroke="black" points="1238.82,-1171.47 1228.35,-1173.12 1237.56,-1178.35 1238.82,-1171.47"/>
</g>
<!-- n17 -->
<g id="node18" class="node">
<title>n17</title>
<ellipse fill="#DA79E8" stroke="black" cx="1490.92" cy="-1147.01" rx="190.84" ry="37.45"/>
<text text-anchor="middle" x="1490.92" y="-1158.31" font-family="Times,serif" font-size="14.00">Gara</text>
<text text-anchor="middle" x="1490.92" y="-1143.31" font-family="Times,serif" font-size="14.00">np00000 (appos)</text>
<text text-anchor="middle" x="1490.92" y="-1128.31" font-family="Times,serif" font-size="14.00">rep=no, t=no, r=yes, m=yes, c=no</text>
</g>
<!-- n16&#45;&gt;n17 -->
<g id="edge17" class="edge">
<title>n16&#45;&gt;n17</title>
<path fill="none" stroke="black" d="M1627.64,-1222.49C1607.11,-1211.31 1584.18,-1198.82 1563.06,-1187.31"/>
<polygon fill="black" stroke="black" points="1564.59,-1184.16 1554.13,-1182.45 1561.24,-1190.3 1564.59,-1184.16"/>
</g>
<!-- n18 -->
<g id="node19" class="node">
<title>n18</title>
<ellipse fill="#DA79E8" stroke="black" cx="1890.92" cy="-1147.01" rx="190.84" ry="37.45"/>
<text text-anchor="middle" x="1890.92" y="-1158.31" font-family="Times,serif" font-size="14.00">,</text>
<text text-anchor="middle" x="1890.92" y="-1143.31" font-family="Times,serif" font-size="14.00">fc (punct)</text>
<text text-anchor="middle" x="1890.92" y="-1128.31" font-family="Times,serif" font-size="14.00">rep=no, t=no, r=yes, m=yes, c=no</text>
</g>
<!-- n16&#45;&gt;n18 -->
<g id="edge18" class="edge">
<title>n16&#45;&gt;n18</title>
<path fill="none" stroke="black" d="M1754.2,-1222.49C1774.73,-1211.31 1797.65,-1198.82 1818.78,-1187.31"/>
<polygon fill="black" stroke="black" points="1820.6,-1190.3 1827.71,-1182.45 1817.25,-1184.16 1820.6,-1190.3"/>
</g>
<!-- n25 -->
<g id="node20" class="node">
<title>n25</title>
<ellipse fill="none" stroke="black" cx="2285.92" cy="-1147.01" rx="185.94" ry="37.45"/>
<text text-anchor="middle" x="2285.92" y="-1158.31" font-family="Times,serif" font-size="14.00">publicó</text>
<text text-anchor="middle" x="2285.92" y="-1143.31" font-family="Times,serif" font-size="14.00">vmis3s0 (rcmod)</text>
<text text-anchor="middle" x="2285.92" y="-1128.31" font-family="Times,serif" font-size="14.00">rep=no, t=no, r=no, m=yes, c=no</text>
</g>
<!-- n16&#45;&gt;n25 -->
<g id="edge19" class="edge">
<title>n16&#45;&gt;n25</title>
<path fill="none" stroke="black" d="M1829.33,-1232.08C1906.37,-1218.19 2003.98,-1200.49 2090.92,-1184.49 2107.48,-1181.44 2124.83,-1178.22 2142.07,-1175.01"/>
<polygon fill="black" stroke="black" points="2143,-1178.4 2152.19,-1173.13 2141.72,-1171.52 2143,-1178.4"/>
</g>
<!-- n19 -->
<g id="node21" class="node">
<title>n19</title>
<ellipse fill="none" stroke="black" cx="1895.92" cy="-1036.06" rx="185.94" ry="37.45"/>
<text text-anchor="middle" x="1895.92" y="-1047.36" font-family="Times,serif" font-size="14.00">que</text>
<text text-anchor="middle" x="1895.92" y="-1032.36" font-family="Times,serif" font-size="14.00">pr0cn000 (nsubj)</text>
<text text-anchor="middle" x="1895.92" y="-1017.36" font-family="Times,serif" font-size="14.00">rep=no, t=no, r=no, m=yes, c=no</text>
</g>
<!-- n25&#45;&gt;n19 -->
<g id="edge20" class="edge">
<title>n25&#45;&gt;n19</title>
<path fill="none" stroke="black" d="M2179.35,-1116.24C2127.54,-1101.77 2065.17,-1084.34 2012.15,-1069.53"/>
<polygon fill="black" stroke="black" points="2012.93,-1066.11 2002.36,-1066.79 2011.05,-1072.85 2012.93,-1066.11"/>
</g>
<!-- n20 -->
<g id="node22" class="node">
<title>n20</title>
<ellipse fill="none" stroke="black" cx="2285.92" cy="-1036.06" rx="185.94" ry="37.45"/>
<text text-anchor="middle" x="2285.92" y="-1047.36" font-family="Times,serif" font-size="14.00">en</text>
<text text-anchor="middle" x="2285.92" y="-1032.36" font-family="Times,serif" font-size="14.00">sps00 (prepv)</text>
<text text-anchor="middle" x="2285.92" y="-1017.36" font-family="Times,serif" font-size="14.00">rep=no, t=no, r=no, m=yes, c=no</text>
</g>
<!-- n25&#45;&gt;n20 -->
<g id="edge21" class="edge">
<title>n25&#45;&gt;n20</title>
<path fill="none" stroke="black" d="M2285.92,-1109.43C2285.92,-1101.25 2285.92,-1092.47 2285.92,-1083.95"/>
<polygon fill="black" stroke="black" points="2289.42,-1083.73 2285.92,-1073.73 2282.42,-1083.73 2289.42,-1083.73"/>
</g>
<!-- n27 -->
<g id="node23" class="node">
<title>n27</title>
<ellipse fill="none" stroke="black" cx="2870.92" cy="-1036.06" rx="185.94" ry="37.45"/>
<text text-anchor="middle" x="2870.92" y="-1047.36" font-family="Times,serif" font-size="14.00">manifiesto</text>
<text text-anchor="middle" x="2870.92" y="-1032.36" font-family="Times,serif" font-size="14.00">ncms000 (dobj)</text>
<text text-anchor="middle" x="2870.92" y="-1017.36" font-family="Times,serif" font-size="14.00">rep=no, t=no, r=no, m=yes, c=no</text>
</g>
<!-- n25&#45;&gt;n27 -->
<g id="edge22" class="edge">
<title>n25&#45;&gt;n27</title>
<path fill="none" stroke="black" d="M2420.13,-1121.01C2511.84,-1103.93 2633.26,-1081.32 2726.98,-1063.86"/>
<polygon fill="black" stroke="black" points="2727.64,-1067.3 2736.83,-1062.03 2726.36,-1060.42 2727.64,-1067.3"/>
</g>
<!-- n22 -->
<g id="node24" class="node">
<title>n22</title>
<ellipse fill="none" stroke="black" cx="2188.92" cy="-925.1" rx="185.94" ry="37.45"/>
<text text-anchor="middle" x="2188.92" y="-936.4" font-family="Times,serif" font-size="14.00">edición</text>
<text text-anchor="middle" x="2188.92" y="-921.4" font-family="Times,serif" font-size="14.00">ncfs000 (pobj)</text>
<text text-anchor="middle" x="2188.92" y="-906.4" font-family="Times,serif" font-size="14.00">rep=no, t=no, r=no, m=yes, c=no</text>
</g>
<!-- n20&#45;&gt;n22 -->
<g id="edge23" class="edge">
<title>n20&#45;&gt;n22</title>
<path fill="none" stroke="black" d="M2253.89,-999.08C2245.53,-989.69 2236.43,-979.47 2227.76,-969.73"/>
<polygon fill="black" stroke="black" points="2230.18,-967.18 2220.92,-962.04 2224.95,-971.84 2230.18,-967.18"/>
</g>
<!-- n26 -->
<g id="node28" class="node">
<title>n26</title>
<ellipse fill="none" stroke="black" cx="2578.92" cy="-925.1" rx="185.94" ry="37.45"/>
<text text-anchor="middle" x="2578.92" y="-936.4" font-family="Times,serif" font-size="14.00">un</text>
<text text-anchor="middle" x="2578.92" y="-921.4" font-family="Times,serif" font-size="14.00">di0ms0 (det)</text>
<text text-anchor="middle" x="2578.92" y="-906.4" font-family="Times,serif" font-size="14.00">rep=no, t=no, r=no, m=yes, c=no</text>
</g>
<!-- n27&#45;&gt;n26 -->
<g id="edge27" class="edge">
<title>n27&#45;&gt;n26</title>
<path fill="none" stroke="black" d="M2784.49,-1002.81C2749.99,-989.94 2710.13,-975.06 2674.75,-961.86"/>
<polygon fill="black" stroke="black" points="2675.97,-958.58 2665.37,-958.36 2673.52,-965.14 2675.97,-958.58"/>
</g>
<!-- n28 -->
<g id="node29" class="node">
<title>n28</title>
<ellipse fill="none" stroke="black" cx="2968.92" cy="-925.1" rx="185.94" ry="37.45"/>
<text text-anchor="middle" x="2968.92" y="-936.4" font-family="Times,serif" font-size="14.00">en</text>
<text text-anchor="middle" x="2968.92" y="-921.4" font-family="Times,serif" font-size="14.00">sps00 (prepn)</text>
<text text-anchor="middle" x="2968.92" y="-906.4" font-family="Times,serif" font-size="14.00">rep=no, t=no, r=no, m=yes, c=no</text>
</g>
<!-- n27&#45;&gt;n28 -->
<g id="edge28" class="edge">
<title>n27&#45;&gt;n28</title>
<path fill="none" stroke="black" d="M2903.28,-999.08C2911.73,-989.69 2920.92,-979.47 2929.68,-969.73"/>
<polygon fill="black" stroke="black" points="2932.51,-971.82 2936.59,-962.04 2927.3,-967.14 2932.51,-971.82"/>
</g>
<!-- n45 -->
<g id="node30" class="node">
<title>n45</title>
<ellipse fill="none" stroke="black" cx="3553.92" cy="-925.1" rx="185.94" ry="37.45"/>
<text text-anchor="middle" x="3553.92" y="-936.4" font-family="Times,serif" font-size="14.00">figuran</text>
<text text-anchor="middle" x="3553.92" y="-921.4" font-family="Times,serif" font-size="14.00">vmip3p0 (dep)</text>
<text text-anchor="middle" x="3553.92" y="-906.4" font-family="Times,serif" font-size="14.00">rep=no, t=no, r=no, m=yes, c=no</text>
</g>
<!-- n27&#45;&gt;n45 -->
<g id="edge29" class="edge">
<title>n27&#45;&gt;n45</title>
<path fill="none" stroke="black" d="M3014.51,-1012.15C3127.62,-994.11 3284.96,-969.01 3400.52,-950.57"/>
<polygon fill="black" stroke="black" points="3401.19,-954.01 3410.52,-948.98 3400.09,-947.1 3401.19,-954.01"/>
</g>
<!-- n21 -->
<g id="node25" class="node">
<title>n21</title>
<ellipse fill="none" stroke="black" cx="1896.92" cy="-814.15" rx="185.94" ry="37.45"/>
<text text-anchor="middle" x="1896.92" y="-825.45" font-family="Times,serif" font-size="14.00">su</text>
<text text-anchor="middle" x="1896.92" y="-810.45" font-family="Times,serif" font-size="14.00">dp3cs0 (poss)</text>
<text text-anchor="middle" x="1896.92" y="-795.45" font-family="Times,serif" font-size="14.00">rep=no, t=no, r=no, m=yes, c=no</text>
</g>
<!-- n22&#45;&gt;n21 -->
<g id="edge24" class="edge">
<title>n22&#45;&gt;n21</title>
<path fill="none" stroke="black" d="M2102.49,-891.86C2067.99,-878.98 2028.13,-864.11 1992.75,-850.91"/>
<polygon fill="black" stroke="black" points="1993.97,-847.63 1983.37,-847.41 1991.52,-854.18 1993.97,-847.63"/>
</g>
<!-- n23 -->
<g id="node26" class="node">
<title>n23</title>
<ellipse fill="none" stroke="black" cx="2286.92" cy="-814.15" rx="185.94" ry="37.45"/>
<text text-anchor="middle" x="2286.92" y="-825.45" font-family="Times,serif" font-size="14.00">de</text>
<text text-anchor="middle" x="2286.92" y="-810.45" font-family="Times,serif" font-size="14.00">sps00 (prepn)</text>
<text text-anchor="middle" x="2286.92" y="-795.45" font-family="Times,serif" font-size="14.00">rep=no, t=no, r=no, m=yes, c=no</text>
</g>
<!-- n22&#45;&gt;n23 -->
<g id="edge25" class="edge">
<title>n22&#45;&gt;n23</title>
<path fill="none" stroke="black" d="M2221.28,-888.13C2229.73,-878.74 2238.92,-868.51 2247.68,-858.77"/>
<polygon fill="black" stroke="black" points="2250.51,-860.87 2254.59,-851.09 2245.3,-856.18 2250.51,-860.87"/>
</g>
<!-- n24 -->
<g id="node27" class="node">
<title>n24</title>
<ellipse fill="none" stroke="black" cx="2286.92" cy="-703.2" rx="185.94" ry="37.45"/>
<text text-anchor="middle" x="2286.92" y="-714.5" font-family="Times,serif" font-size="14.00">ayer</text>
<text text-anchor="middle" x="2286.92" y="-699.5" font-family="Times,serif" font-size="14.00">rg (advmod)</text>
<text text-anchor="middle" x="2286.92" y="-684.5" font-family="Times,serif" font-size="14.00">rep=no, t=no, r=no, m=yes, c=no</text>
</g>
<!-- n23&#45;&gt;n24 -->
<g id="edge26" class="edge">
<title>n23&#45;&gt;n24</title>
<path fill="none" stroke="black" d="M2286.92,-776.57C2286.92,-768.39 2286.92,-759.61 2286.92,-751.09"/>
<polygon fill="black" stroke="black" points="2290.42,-750.87 2286.92,-740.87 2283.42,-750.87 2290.42,-750.87"/>
</g>
<!-- n29 -->
<g id="node31" class="node">
<title>n29</title>
<ellipse fill="none" stroke="black" cx="2871.92" cy="-814.15" rx="185.94" ry="37.45"/>
<text text-anchor="middle" x="2871.92" y="-825.45" font-family="Times,serif" font-size="14.00">favor</text>
<text text-anchor="middle" x="2871.92" y="-810.45" font-family="Times,serif" font-size="14.00">ncfs000 (pobj)</text>
<text text-anchor="middle" x="2871.92" y="-795.45" font-family="Times,serif" font-size="14.00">rep=no, t=no, r=no, m=yes, c=no</text>
</g>
<!-- n28&#45;&gt;n29 -->
<g id="edge30" class="edge">
<title>n28&#45;&gt;n29</title>
<path fill="none" stroke="black" d="M2936.89,-888.13C2928.53,-878.74 2919.43,-868.51 2910.76,-858.77"/>
<polygon fill="black" stroke="black" points="2913.18,-856.23 2903.92,-851.09 2907.95,-860.89 2913.18,-856.23"/>
</g>
<!-- n42 -->
<g id="node44" class="node">
<title>n42</title>
<ellipse fill="none" stroke="black" cx="3261.92" cy="-814.15" rx="185.94" ry="37.45"/>
<text text-anchor="middle" x="3261.92" y="-825.45" font-family="Times,serif" font-size="14.00">en</text>
<text text-anchor="middle" x="3261.92" y="-810.45" font-family="Times,serif" font-size="14.00">sps00 (prepv)</text>
<text text-anchor="middle" x="3261.92" y="-795.45" font-family="Times,serif" font-size="14.00">rep=no, t=no, r=no, m=yes, c=no</text>
</g>
<!-- n45&#45;&gt;n42 -->
<g id="edge43" class="edge">
<title>n45&#45;&gt;n42</title>
<path fill="none" stroke="black" d="M3467.49,-891.86C3432.99,-878.98 3393.13,-864.11 3357.75,-850.91"/>
<polygon fill="black" stroke="black" points="3358.97,-847.63 3348.37,-847.41 3356.52,-854.18 3358.97,-847.63"/>
</g>
<!-- n46 -->
<g id="node45" class="node">
<title>n46</title>
<ellipse fill="none" stroke="black" cx="3651.92" cy="-814.15" rx="185.94" ry="37.45"/>
<text text-anchor="middle" x="3651.92" y="-825.45" font-family="Times,serif" font-size="14.00">como</text>
<text text-anchor="middle" x="3651.92" y="-810.45" font-family="Times,serif" font-size="14.00">cs (dep)</text>
<text text-anchor="middle" x="3651.92" y="-795.45" font-family="Times,serif" font-size="14.00">rep=no, t=no, r=no, m=yes, c=no</text>
</g>
<!-- n45&#45;&gt;n46 -->
<g id="edge44" class="edge">
<title>n45&#45;&gt;n46</title>
<path fill="none" stroke="black" d="M3586.28,-888.13C3594.73,-878.74 3603.92,-868.51 3612.68,-858.77"/>
<polygon fill="black" stroke="black" points="3615.51,-860.87 3619.59,-851.09 3610.3,-856.18 3615.51,-860.87"/>
</g>
<!-- n49 -->
<g id="node46" class="node">
<title>n49</title>
<ellipse fill="none" stroke="black" cx="4041.92" cy="-814.15" rx="185.94" ry="37.45"/>
<text text-anchor="middle" x="4041.92" y="-825.45" font-family="Times,serif" font-size="14.00">profesionales</text>
<text text-anchor="middle" x="4041.92" y="-810.45" font-family="Times,serif" font-size="14.00">nccp000 (nsubj)</text>
<text text-anchor="middle" x="4041.92" y="-795.45" font-family="Times,serif" font-size="14.00">rep=no, t=no, r=no, m=yes, c=no</text>
</g>
<!-- n45&#45;&gt;n49 -->
<g id="edge45" class="edge">
<title>n45&#45;&gt;n49</title>
<path fill="none" stroke="black" d="M3676.12,-896.82C3747.17,-880.96 3836.75,-860.96 3909.48,-844.72"/>
<polygon fill="black" stroke="black" points="3910.63,-848.05 3919.63,-842.45 3909.1,-841.22 3910.63,-848.05"/>
</g>
<!-- n30 -->
<g id="node32" class="node">
<title>n30</title>
<ellipse fill="none" stroke="black" cx="2871.92" cy="-703.2" rx="185.94" ry="37.45"/>
<text text-anchor="middle" x="2871.92" y="-714.5" font-family="Times,serif" font-size="14.00">del</text>
<text text-anchor="middle" x="2871.92" y="-699.5" font-family="Times,serif" font-size="14.00">sps00 (prepn)</text>
<text text-anchor="middle" x="2871.92" y="-684.5" font-family="Times,serif" font-size="14.00">rep=no, t=no, r=no, m=yes, c=no</text>
</g>
<!-- n29&#45;&gt;n30 -->
<g id="edge31" class="edge">
<title>n29&#45;&gt;n30</title>
<path fill="none" stroke="black" d="M2871.92,-776.57C2871.92,-768.39 2871.92,-759.61 2871.92,-751.09"/>
<polygon fill="black" stroke="black" points="2875.42,-750.87 2871.92,-740.87 2868.42,-750.87 2875.42,-750.87"/>
</g>
<!-- n31 -->
<g id="node33" class="node">
<title>n31</title>
<ellipse fill="none" stroke="black" cx="2871.92" cy="-592.24" rx="185.94" ry="37.45"/>
<text text-anchor="middle" x="2871.92" y="-603.54" font-family="Times,serif" font-size="14.00">periodista</text>
<text text-anchor="middle" x="2871.92" y="-588.54" font-family="Times,serif" font-size="14.00">nccs000 (pobj)</text>
<text text-anchor="middle" x="2871.92" y="-573.54" font-family="Times,serif" font-size="14.00">rep=no, t=no, r=no, m=yes, c=no</text>
</g>
<!-- n30&#45;&gt;n31 -->
<g id="edge32" class="edge">
<title>n30&#45;&gt;n31</title>
<path fill="none" stroke="black" d="M2871.92,-665.61C2871.92,-657.44 2871.92,-648.66 2871.92,-640.13"/>
<polygon fill="black" stroke="black" points="2875.42,-639.92 2871.92,-629.92 2868.42,-639.92 2875.42,-639.92"/>
</g>
<!-- n32 -->
<g id="node34" class="node">
<title>n32</title>
<ellipse fill="none" stroke="black" cx="2286.92" cy="-481.29" rx="185.94" ry="37.45"/>
<text text-anchor="middle" x="2286.92" y="-492.59" font-family="Times,serif" font-size="14.00">Pepe</text>
<text text-anchor="middle" x="2286.92" y="-477.59" font-family="Times,serif" font-size="14.00">np0000l (appos)</text>
<text text-anchor="middle" x="2286.92" y="-462.59" font-family="Times,serif" font-size="14.00">rep=no, t=no, r=no, m=yes, c=no</text>
</g>
<!-- n31&#45;&gt;n32 -->
<g id="edge33" class="edge">
<title>n31&#45;&gt;n32</title>
<path fill="none" stroke="black" d="M2737.44,-566.29C2662.27,-552.34 2566.88,-534.61 2481.92,-518.77 2465.43,-515.69 2448.16,-512.47 2431,-509.26"/>
<polygon fill="black" stroke="black" points="2431.39,-505.77 2420.92,-507.38 2430.11,-512.66 2431.39,-505.77"/>
</g>
<!-- n34 -->
<g id="node35" class="node">
<title>n34</title>
<ellipse fill="none" stroke="black" cx="2676.92" cy="-481.29" rx="185.94" ry="37.45"/>
<text text-anchor="middle" x="2676.92" y="-492.59" font-family="Times,serif" font-size="14.00">,</text>
<text text-anchor="middle" x="2676.92" y="-477.59" font-family="Times,serif" font-size="14.00">fc (punct)</text>
<text text-anchor="middle" x="2676.92" y="-462.59" font-family="Times,serif" font-size="14.00">rep=no, t=no, r=no, m=yes, c=no</text>
</g>
<!-- n31&#45;&gt;n34 -->
<g id="edge34" class="edge">
<title>n31&#45;&gt;n34</title>
<path fill="none" stroke="black" d="M2810.22,-556.77C2790.29,-545.64 2768.05,-533.21 2747.53,-521.75"/>
<polygon fill="black" stroke="black" points="2748.99,-518.55 2738.55,-516.73 2745.57,-524.66 2748.99,-518.55"/>
</g>
<!-- n35 -->
<g id="node36" class="node">
<title>n35</title>
<ellipse fill="none" stroke="black" cx="3066.92" cy="-481.29" rx="185.94" ry="37.45"/>
<text text-anchor="middle" x="3066.92" y="-492.59" font-family="Times,serif" font-size="14.00">encarcelado</text>
<text text-anchor="middle" x="3066.92" y="-477.59" font-family="Times,serif" font-size="14.00">aq0msp (amod)</text>
<text text-anchor="middle" x="3066.92" y="-462.59" font-family="Times,serif" font-size="14.00">rep=no, t=no, r=no, m=yes, c=no</text>
</g>
<!-- n31&#45;&gt;n35 -->
<g id="edge35" class="edge">
<title>n31&#45;&gt;n35</title>
<path fill="none" stroke="black" d="M2933.62,-556.77C2953.54,-545.64 2975.79,-533.21 2996.3,-521.75"/>
<polygon fill="black" stroke="black" points="2998.26,-524.66 3005.29,-516.73 2994.85,-518.55 2998.26,-524.66"/>
</g>
<!-- n41 -->
<g id="node37" class="node">
<title>n41</title>
<ellipse fill="none" stroke="black" cx="3456.92" cy="-481.29" rx="185.94" ry="37.45"/>
<text text-anchor="middle" x="3456.92" y="-492.59" font-family="Times,serif" font-size="14.00">,</text>
<text text-anchor="middle" x="3456.92" y="-477.59" font-family="Times,serif" font-size="14.00">fc (punct)</text>
<text text-anchor="middle" x="3456.92" y="-462.59" font-family="Times,serif" font-size="14.00">rep=no, t=no, r=no, m=yes, c=no</text>
</g>
<!-- n31&#45;&gt;n41 -->
<g id="edge36" class="edge">
<title>n31&#45;&gt;n41</title>
<path fill="none" stroke="black" d="M3005.65,-566.18C3026.17,-562.35 3047.11,-558.45 3066.92,-554.77 3153.57,-538.66 3175.27,-534.87 3261.92,-518.77 3278.48,-515.69 3295.83,-512.46 3313.06,-509.24"/>
<polygon fill="black" stroke="black" points="3314,-512.63 3323.18,-507.35 3312.71,-505.74 3314,-512.63"/>
</g>
<!-- n33 -->
<g id="node38" class="node">
<title>n33</title>
<ellipse fill="none" stroke="black" cx="2286.92" cy="-370.34" rx="185.94" ry="37.45"/>
<text text-anchor="middle" x="2286.92" y="-381.64" font-family="Times,serif" font-size="14.00">Rei</text>
<text text-anchor="middle" x="2286.92" y="-366.64" font-family="Times,serif" font-size="14.00">np0000l (appos)</text>
<text text-anchor="middle" x="2286.92" y="-351.64" font-family="Times,serif" font-size="14.00">rep=no, t=no, r=no, m=yes, c=no</text>
</g>
<!-- n32&#45;&gt;n33 -->
<g id="edge37" class="edge">
<title>n32&#45;&gt;n33</title>
<path fill="none" stroke="black" d="M2286.92,-443.71C2286.92,-435.53 2286.92,-426.75 2286.92,-418.23"/>
<polygon fill="black" stroke="black" points="2290.42,-418.01 2286.92,-408.01 2283.42,-418.01 2290.42,-418.01"/>
</g>
<!-- n36 -->
<g id="node39" class="node">
<title>n36</title>
<ellipse fill="none" stroke="black" cx="3066.92" cy="-370.34" rx="185.94" ry="37.45"/>
<text text-anchor="middle" x="3066.92" y="-381.64" font-family="Times,serif" font-size="14.00">como</text>
<text text-anchor="middle" x="3066.92" y="-366.64" font-family="Times,serif" font-size="14.00">cs (dep)</text>
<text text-anchor="middle" x="3066.92" y="-351.64" font-family="Times,serif" font-size="14.00">rep=no, t=no, r=no, m=yes, c=no</text>
</g>
<!-- n35&#45;&gt;n36 -->
<g id="edge38" class="edge">
<title>n35&#45;&gt;n36</title>
<path fill="none" stroke="black" d="M3066.92,-443.71C3066.92,-435.53 3066.92,-426.75 3066.92,-418.23"/>
<polygon fill="black" stroke="black" points="3070.42,-418.01 3066.92,-408.01 3063.42,-418.01 3070.42,-418.01"/>
</g>
<!-- n38 -->
<g id="node40" class="node">
<title>n38</title>
<ellipse fill="none" stroke="black" cx="3066.92" cy="-259.38" rx="185.94" ry="37.45"/>
<text text-anchor="middle" x="3066.92" y="-270.68" font-family="Times,serif" font-size="14.00">colaborador</text>
<text text-anchor="middle" x="3066.92" y="-255.68" font-family="Times,serif" font-size="14.00">ncms000 (cobj)</text>
<text text-anchor="middle" x="3066.92" y="-240.68" font-family="Times,serif" font-size="14.00">rep=no, t=no, r=no, m=yes, c=no</text>
</g>
<!-- n36&#45;&gt;n38 -->
<g id="edge39" class="edge">
<title>n36&#45;&gt;n38</title>
<path fill="none" stroke="black" d="M3066.92,-332.75C3066.92,-324.58 3066.92,-315.8 3066.92,-307.27"/>
<polygon fill="black" stroke="black" points="3070.42,-307.06 3066.92,-297.06 3063.42,-307.06 3070.42,-307.06"/>
</g>
<!-- n37 -->
<g id="node41" class="node">
<title>n37</title>
<ellipse fill="none" stroke="black" cx="2871.92" cy="-148.43" rx="185.94" ry="37.45"/>
<text text-anchor="middle" x="2871.92" y="-159.73" font-family="Times,serif" font-size="14.00">presunto</text>
<text text-anchor="middle" x="2871.92" y="-144.73" font-family="Times,serif" font-size="14.00">aq0ms0 (amod)</text>
<text text-anchor="middle" x="2871.92" y="-129.73" font-family="Times,serif" font-size="14.00">rep=no, t=no, r=no, m=yes, c=no</text>
</g>
<!-- n38&#45;&gt;n37 -->
<g id="edge40" class="edge">
<title>n38&#45;&gt;n37</title>
<path fill="none" stroke="black" d="M3005.22,-223.91C2985.29,-212.78 2963.05,-200.35 2942.53,-188.89"/>
<polygon fill="black" stroke="black" points="2943.99,-185.69 2933.55,-183.87 2940.57,-191.8 2943.99,-185.69"/>
</g>
<!-- n39 -->
<g id="node42" class="node">
<title>n39</title>
<ellipse fill="none" stroke="black" cx="3261.92" cy="-148.43" rx="185.94" ry="37.45"/>
<text text-anchor="middle" x="3261.92" y="-159.73" font-family="Times,serif" font-size="14.00">de</text>
<text text-anchor="middle" x="3261.92" y="-144.73" font-family="Times,serif" font-size="14.00">sps00 (prepn)</text>
<text text-anchor="middle" x="3261.92" y="-129.73" font-family="Times,serif" font-size="14.00">rep=no, t=no, r=no, m=yes, c=no</text>
</g>
<!-- n38&#45;&gt;n39 -->
<g id="edge41" class="edge">
<title>n38&#45;&gt;n39</title>
<path fill="none" stroke="black" d="M3128.62,-223.91C3148.54,-212.78 3170.79,-200.35 3191.3,-188.89"/>
<polygon fill="black" stroke="black" points="3193.26,-191.8 3200.29,-183.87 3189.85,-185.69 3193.26,-191.8"/>
</g>
<!-- n40 -->
<g id="node43" class="node">
<title>n40</title>
<ellipse fill="none" stroke="black" cx="3261.92" cy="-37.48" rx="185.94" ry="37.45"/>
<text text-anchor="middle" x="3261.92" y="-48.78" font-family="Times,serif" font-size="14.00">ETA</text>
<text text-anchor="middle" x="3261.92" y="-33.78" font-family="Times,serif" font-size="14.00">np00000 (pobj)</text>
<text text-anchor="middle" x="3261.92" y="-18.78" font-family="Times,serif" font-size="14.00">rep=no, t=no, r=no, m=yes, c=no</text>
</g>
<!-- n39&#45;&gt;n40 -->
<g id="edge42" class="edge">
<title>n39&#45;&gt;n40</title>
<path fill="none" stroke="black" d="M3261.92,-110.85C3261.92,-102.67 3261.92,-93.89 3261.92,-85.37"/>
<polygon fill="black" stroke="black" points="3265.42,-85.15 3261.92,-75.15 3258.42,-85.15 3265.42,-85.15"/>
</g>
<!-- n44 -->
<g id="node47" class="node">
<title>n44</title>
<ellipse fill="none" stroke="black" cx="3261.92" cy="-703.2" rx="185.94" ry="37.45"/>
<text text-anchor="middle" x="3261.92" y="-714.5" font-family="Times,serif" font-size="14.00">que</text>
<text text-anchor="middle" x="3261.92" y="-699.5" font-family="Times,serif" font-size="14.00">pr0cn000 (pobj)</text>
<text text-anchor="middle" x="3261.92" y="-684.5" font-family="Times,serif" font-size="14.00">rep=no, t=no, r=no, m=yes, c=no</text>
</g>
<!-- n42&#45;&gt;n44 -->
<g id="edge46" class="edge">
<title>n42&#45;&gt;n44</title>
<path fill="none" stroke="black" d="M3261.92,-776.57C3261.92,-768.39 3261.92,-759.61 3261.92,-751.09"/>
<polygon fill="black" stroke="black" points="3265.42,-750.87 3261.92,-740.87 3258.42,-750.87 3265.42,-750.87"/>
</g>
<!-- n47 -->
<g id="node49" class="node">
<title>n47</title>
<ellipse fill="none" stroke="black" cx="3651.92" cy="-703.2" rx="185.94" ry="37.45"/>
<text text-anchor="middle" x="3651.92" y="-714.5" font-family="Times,serif" font-size="14.00">firmantes</text>
<text text-anchor="middle" x="3651.92" y="-699.5" font-family="Times,serif" font-size="14.00">nccp000 (cobj)</text>
<text text-anchor="middle" x="3651.92" y="-684.5" font-family="Times,serif" font-size="14.00">rep=no, t=no, r=no, m=yes, c=no</text>
</g>
<!-- n46&#45;&gt;n47 -->
<g id="edge48" class="edge">
<title>n46&#45;&gt;n47</title>
<path fill="none" stroke="black" d="M3651.92,-776.57C3651.92,-768.39 3651.92,-759.61 3651.92,-751.09"/>
<polygon fill="black" stroke="black" points="3655.42,-750.87 3651.92,-740.87 3648.42,-750.87 3655.42,-750.87"/>
</g>
<!-- n48 -->
<g id="node50" class="node">
<title>n48</title>
<ellipse fill="none" stroke="black" cx="4041.92" cy="-703.2" rx="185.94" ry="37.45"/>
<text text-anchor="middle" x="4041.92" y="-714.5" font-family="Times,serif" font-size="14.00">27</text>
<text text-anchor="middle" x="4041.92" y="-699.5" font-family="Times,serif" font-size="14.00">z (num)</text>
<text text-anchor="middle" x="4041.92" y="-684.5" font-family="Times,serif" font-size="14.00">rep=no, t=no, r=no, m=yes, c=no</text>
</g>
<!-- n49&#45;&gt;n48 -->
<g id="edge49" class="edge">
<title>n49&#45;&gt;n48</title>
<path fill="none" stroke="black" d="M4041.92,-776.57C4041.92,-768.39 4041.92,-759.61 4041.92,-751.09"/>
<polygon fill="black" stroke="black" points="4045.42,-750.87 4041.92,-740.87 4038.42,-750.87 4045.42,-750.87"/>
</g>
<!-- n50 -->
<g id="node51" class="node">
<title>n50</title>
<ellipse fill="none" stroke="black" cx="4431.92" cy="-703.2" rx="185.94" ry="37.45"/>
<text text-anchor="middle" x="4431.92" y="-714.5" font-family="Times,serif" font-size="14.00">de</text>
<text text-anchor="middle" x="4431.92" y="-699.5" font-family="Times,serif" font-size="14.00">sps00 (prepn)</text>
<text text-anchor="middle" x="4431.92" y="-684.5" font-family="Times,serif" font-size="14.00">rep=no, t=no, r=no, m=yes, c=no</text>
</g>
<!-- n49&#45;&gt;n50 -->
<g id="edge50" class="edge">
<title>n49&#45;&gt;n50</title>
<path fill="none" stroke="black" d="M4148.49,-783.38C4200.29,-768.91 4262.66,-751.48 4315.69,-736.67"/>
<polygon fill="black" stroke="black" points="4316.79,-739.99 4325.48,-733.93 4314.91,-733.25 4316.79,-739.99"/>
</g>
<!-- n43 -->
<g id="node48" class="node">
<title>n43</title>
<ellipse fill="none" stroke="black" cx="3261.92" cy="-592.24" rx="185.94" ry="37.45"/>
<text text-anchor="middle" x="3261.92" y="-603.54" font-family="Times,serif" font-size="14.00">el</text>
<text text-anchor="middle" x="3261.92" y="-588.54" font-family="Times,serif" font-size="14.00">da0ms0 (det)</text>
<text text-anchor="middle" x="3261.92" y="-573.54" font-family="Times,serif" font-size="14.00">rep=no, t=no, r=no, m=yes, c=no</text>
</g>
<!-- n44&#45;&gt;n43 -->
<g id="edge47" class="edge">
<title>n44&#45;&gt;n43</title>
<path fill="none" stroke="black" d="M3261.92,-665.61C3261.92,-657.44 3261.92,-648.66 3261.92,-640.13"/>
<polygon fill="black" stroke="black" points="3265.42,-639.92 3261.92,-629.92 3258.42,-639.92 3265.42,-639.92"/>
</g>
<!-- n52 -->
<g id="node52" class="node">
<title>n52</title>
<ellipse fill="none" stroke="black" cx="4431.92" cy="-592.24" rx="185.94" ry="37.45"/>
<text text-anchor="middle" x="4431.92" y="-603.54" font-family="Times,serif" font-size="14.00">semanario</text>
<text text-anchor="middle" x="4431.92" y="-588.54" font-family="Times,serif" font-size="14.00">ncms000 (pobj)</text>
<text text-anchor="middle" x="4431.92" y="-573.54" font-family="Times,serif" font-size="14.00">rep=no, t=no, r=no, m=yes, c=no</text>
</g>
<!-- n50&#45;&gt;n52 -->
<g id="edge51" class="edge">
<title>n50&#45;&gt;n52</title>
<path fill="none" stroke="black" d="M4431.92,-665.61C4431.92,-657.44 4431.92,-648.66 4431.92,-640.13"/>
<polygon fill="black" stroke="black" points="4435.42,-639.92 4431.92,-629.92 4428.42,-639.92 4435.42,-639.92"/>
</g>
<!-- n51 -->
<g id="node53" class="node">
<title>n51</title>
<ellipse fill="none" stroke="black" cx="4431.92" cy="-481.29" rx="185.94" ry="37.45"/>
<text text-anchor="middle" x="4431.92" y="-492.59" font-family="Times,serif" font-size="14.00">aquel</text>
<text text-anchor="middle" x="4431.92" y="-477.59" font-family="Times,serif" font-size="14.00">dd0ms0 (det)</text>
<text text-anchor="middle" x="4431.92" y="-462.59" font-family="Times,serif" font-size="14.00">rep=no, t=no, r=no, m=yes, c=no</text>
</g>
<!-- n52&#45;&gt;n51 -->
<g id="edge52" class="edge">
<title>n52&#45;&gt;n51</title>
<path fill="none" stroke="black" d="M4431.92,-554.66C4431.92,-546.49 4431.92,-537.71 4431.92,-529.18"/>
<polygon fill="black" stroke="black" points="4435.42,-528.96 4431.92,-518.96 4428.42,-528.96 4435.42,-528.96"/>
</g>
</g>
</svg>
