<?xml version="1.0" encoding="UTF-8" standalone="no"?>
<!DOCTYPE svg PUBLIC "-//W3C//DTD SVG 1.1//EN"
 "http://www.w3.org/Graphics/SVG/1.1/DTD/svg11.dtd">
<!-- Generated by graphviz version 2.43.0 (0)
 -->
<!-- Title: tree Pages: 1 -->
<svg width="1949pt" height="1082pt"
 viewBox="0.00 0.00 1948.65 1081.53" xmlns="http://www.w3.org/2000/svg" xmlns:xlink="http://www.w3.org/1999/xlink">
<g id="graph0" class="graph" transform="scale(1 1) rotate(0) translate(4 1077.53)">
<title>tree</title>
<polygon fill="white" stroke="transparent" points="-4,4 -4,-1077.53 1944.65,-1077.53 1944.65,4 -4,4"/>
<!-- n21 -->
<g id="node1" class="node">
<title>n21</title>
<ellipse fill="none" stroke="black" cx="1171.92" cy="-1036.06" rx="185.94" ry="37.45"/>
<text text-anchor="middle" x="1171.92" y="-1047.36" font-family="Times,serif" font-size="14.00">dice</text>
<text text-anchor="middle" x="1171.92" y="-1032.36" font-family="Times,serif" font-size="14.00">vmip3s0 (root)</text>
<text text-anchor="middle" x="1171.92" y="-1017.36" font-family="Times,serif" font-size="14.00">rep=no, t=no, r=no, m=yes, c=no</text>
</g>
<!-- n2 -->
<g id="node2" class="node">
<title>n2</title>
<ellipse fill="none" stroke="black" cx="590.92" cy="-925.1" rx="185.94" ry="37.45"/>
<text text-anchor="middle" x="590.92" y="-936.4" font-family="Times,serif" font-size="14.00">Pienso</text>
<text text-anchor="middle" x="590.92" y="-921.4" font-family="Times,serif" font-size="14.00">vmip1s0 (dobj)</text>
<text text-anchor="middle" x="590.92" y="-906.4" font-family="Times,serif" font-size="14.00">rep=no, t=no, r=no, m=yes, c=no</text>
</g>
<!-- n21&#45;&gt;n2 -->
<g id="edge1" class="edge">
<title>n21&#45;&gt;n2</title>
<path fill="none" stroke="black" d="M1038.26,-1009.99C947.5,-992.97 827.56,-970.48 734.72,-953.07"/>
<polygon fill="black" stroke="black" points="735.16,-949.59 724.68,-951.19 733.87,-956.47 735.16,-949.59"/>
</g>
<!-- n20 -->
<g id="node3" class="node">
<title>n20</title>
<ellipse fill="none" stroke="black" cx="976.92" cy="-925.1" rx="181.95" ry="37.45"/>
<text text-anchor="middle" x="976.92" y="-936.4" font-family="Times,serif" font-size="14.00">,</text>
<text text-anchor="middle" x="976.92" y="-921.4" font-family="Times,serif" font-size="14.00">fc (punct)</text>
<text text-anchor="middle" x="976.92" y="-906.4" font-family="Times,serif" font-size="14.00">rep=no, t=no, r=no, m=no, c=no</text>
</g>
<!-- n21&#45;&gt;n20 -->
<g id="edge2" class="edge">
<title>n21&#45;&gt;n20</title>
<path fill="none" stroke="black" d="M1110.22,-1000.58C1090.29,-989.45 1068.05,-977.02 1047.53,-965.56"/>
<polygon fill="black" stroke="black" points="1048.99,-962.36 1038.55,-960.54 1045.57,-968.47 1048.99,-962.36"/>
</g>
<!-- n22 -->
<g id="node4" class="node">
<title>n22</title>
<ellipse fill="none" stroke="black" cx="1367.92" cy="-925.1" rx="190.84" ry="37.45"/>
<text text-anchor="middle" x="1367.92" y="-936.4" font-family="Times,serif" font-size="14.00">Marta</text>
<text text-anchor="middle" x="1367.92" y="-921.4" font-family="Times,serif" font-size="14.00">np00000 (nsubj)</text>
<text text-anchor="middle" x="1367.92" y="-906.4" font-family="Times,serif" font-size="14.00">rep=yes, t=no, r=no, m=yes, c=no</text>
</g>
<!-- n21&#45;&gt;n22 -->
<g id="edge3" class="edge">
<title>n21&#45;&gt;n22</title>
<path fill="none" stroke="black" d="M1233.93,-1000.58C1253.86,-989.5 1276.1,-977.14 1296.64,-965.73"/>
<polygon fill="black" stroke="black" points="1298.59,-968.64 1305.63,-960.73 1295.19,-962.53 1298.59,-968.64"/>
</g>
<!-- n23 -->
<g id="node5" class="node">
<title>n23</title>
<ellipse fill="none" stroke="black" cx="1758.92" cy="-925.1" rx="181.95" ry="37.45"/>
<text text-anchor="middle" x="1758.92" y="-936.4" font-family="Times,serif" font-size="14.00">.</text>
<text text-anchor="middle" x="1758.92" y="-921.4" font-family="Times,serif" font-size="14.00">fp (punct)</text>
<text text-anchor="middle" x="1758.92" y="-906.4" font-family="Times,serif" font-size="14.00">rep=no, t=no, r=no, m=no, c=no</text>
</g>
<!-- n21&#45;&gt;n23 -->
<g id="edge4" class="edge">
<title>n21&#45;&gt;n23</title>
<path fill="none" stroke="black" d="M1308.05,-1010.41C1384.46,-996.51 1481.53,-978.73 1567.92,-962.58 1584.22,-959.53 1601.29,-956.31 1618.24,-953.1"/>
<polygon fill="black" stroke="black" points="1619.03,-956.51 1628.2,-951.21 1617.72,-949.63 1619.03,-956.51"/>
</g>
<!-- n1 -->
<g id="node6" class="node">
<title>n1</title>
<ellipse fill="none" stroke="black" cx="200.92" cy="-814.15" rx="185.94" ry="37.45"/>
<text text-anchor="middle" x="200.92" y="-825.45" font-family="Times,serif" font-size="14.00">&quot;</text>
<text text-anchor="middle" x="200.92" y="-810.45" font-family="Times,serif" font-size="14.00">fe (punct)</text>
<text text-anchor="middle" x="200.92" y="-795.45" font-family="Times,serif" font-size="14.00">rep=no, t=no, r=no, m=yes, c=no</text>
</g>
<!-- n2&#45;&gt;n1 -->
<g id="edge5" class="edge">
<title>n2&#45;&gt;n1</title>
<path fill="none" stroke="black" d="M484.35,-894.33C432.54,-879.86 370.17,-862.43 317.15,-847.62"/>
<polygon fill="black" stroke="black" points="317.93,-844.21 307.36,-844.89 316.05,-850.95 317.93,-844.21"/>
</g>
<!-- n3 -->
<g id="node7" class="node">
<title>n3</title>
<ellipse fill="none" stroke="black" cx="590.92" cy="-814.15" rx="185.94" ry="37.45"/>
<text text-anchor="middle" x="590.92" y="-825.45" font-family="Times,serif" font-size="14.00">que</text>
<text text-anchor="middle" x="590.92" y="-810.45" font-family="Times,serif" font-size="14.00">cs (dobj)</text>
<text text-anchor="middle" x="590.92" y="-795.45" font-family="Times,serif" font-size="14.00">rep=no, t=no, r=no, m=yes, c=no</text>
</g>
<!-- n2&#45;&gt;n3 -->
<g id="edge6" class="edge">
<title>n2&#45;&gt;n3</title>
<path fill="none" stroke="black" d="M590.92,-887.52C590.92,-879.35 590.92,-870.57 590.92,-862.04"/>
<polygon fill="black" stroke="black" points="594.42,-861.82 590.92,-851.82 587.42,-861.82 594.42,-861.82"/>
</g>
<!-- n19 -->
<g id="node8" class="node">
<title>n19</title>
<ellipse fill="none" stroke="black" cx="980.92" cy="-814.15" rx="185.94" ry="37.45"/>
<text text-anchor="middle" x="980.92" y="-825.45" font-family="Times,serif" font-size="14.00">&quot;</text>
<text text-anchor="middle" x="980.92" y="-810.45" font-family="Times,serif" font-size="14.00">fe (punct)</text>
<text text-anchor="middle" x="980.92" y="-795.45" font-family="Times,serif" font-size="14.00">rep=no, t=no, r=no, m=yes, c=no</text>
</g>
<!-- n2&#45;&gt;n19 -->
<g id="edge7" class="edge">
<title>n2&#45;&gt;n19</title>
<path fill="none" stroke="black" d="M697.49,-894.33C749.29,-879.86 811.66,-862.43 864.69,-847.62"/>
<polygon fill="black" stroke="black" points="865.79,-850.95 874.48,-844.89 863.91,-844.21 865.79,-850.95"/>
</g>
<!-- n4 -->
<g id="node9" class="node">
<title>n4</title>
<ellipse fill="none" stroke="black" cx="590.92" cy="-703.2" rx="185.94" ry="37.45"/>
<text text-anchor="middle" x="590.92" y="-714.5" font-family="Times,serif" font-size="14.00">es</text>
<text text-anchor="middle" x="590.92" y="-699.5" font-family="Times,serif" font-size="14.00">vsip3s0 (cobj)</text>
<text text-anchor="middle" x="590.92" y="-684.5" font-family="Times,serif" font-size="14.00">rep=no, t=no, r=no, m=yes, c=no</text>
</g>
<!-- n3&#45;&gt;n4 -->
<g id="edge8" class="edge">
<title>n3&#45;&gt;n4</title>
<path fill="none" stroke="black" d="M590.92,-776.57C590.92,-768.39 590.92,-759.61 590.92,-751.09"/>
<polygon fill="black" stroke="black" points="594.42,-750.87 590.92,-740.87 587.42,-750.87 594.42,-750.87"/>
</g>
<!-- n7 -->
<g id="node10" class="node">
<title>n7</title>
<ellipse fill="#DA79E8" stroke="black" cx="590.92" cy="-592.24" rx="190.84" ry="37.45"/>
<text text-anchor="middle" x="590.92" y="-603.54" font-family="Times,serif" font-size="14.00">bajar</text>
<text text-anchor="middle" x="590.92" y="-588.54" font-family="Times,serif" font-size="14.00">vmn0000 (cobj)</text>
<text text-anchor="middle" x="590.92" y="-573.54" font-family="Times,serif" font-size="14.00">rep=no, t=no, r=yes, m=yes, c=no</text>
</g>
<!-- n4&#45;&gt;n7 -->
<g id="edge9" class="edge">
<title>n4&#45;&gt;n7</title>
<path fill="none" stroke="black" d="M590.92,-665.61C590.92,-657.44 590.92,-648.66 590.92,-640.13"/>
<polygon fill="black" stroke="black" points="594.42,-639.92 590.92,-629.92 587.42,-639.92 594.42,-639.92"/>
</g>
<!-- n6 -->
<g id="node11" class="node">
<title>n6</title>
<ellipse fill="#BEDA48" stroke="black" cx="190.92" cy="-481.29" rx="190.84" ry="37.45"/>
<text text-anchor="middle" x="190.92" y="-492.59" font-family="Times,serif" font-size="14.00">locura</text>
<text text-anchor="middle" x="190.92" y="-477.59" font-family="Times,serif" font-size="14.00">ncfs000 (nsubj)</text>
<text text-anchor="middle" x="190.92" y="-462.59" font-family="Times,serif" font-size="14.00">rep=no, t=yes, r=no, m=yes, c=no</text>
</g>
<!-- n7&#45;&gt;n6 -->
<g id="edge10" class="edge">
<title>n7&#45;&gt;n6</title>
<path fill="none" stroke="black" d="M481.62,-561.47C428.48,-547 364.51,-529.57 310.12,-514.76"/>
<polygon fill="black" stroke="black" points="311,-511.37 300.44,-512.12 309.16,-518.13 311,-511.37"/>
</g>
<!-- n8 -->
<g id="node12" class="node">
<title>n8</title>
<ellipse fill="#DA79E8" stroke="black" cx="590.92" cy="-481.29" rx="190.84" ry="37.45"/>
<text text-anchor="middle" x="590.92" y="-492.59" font-family="Times,serif" font-size="14.00">a</text>
<text text-anchor="middle" x="590.92" y="-477.59" font-family="Times,serif" font-size="14.00">sps00 (prepv)</text>
<text text-anchor="middle" x="590.92" y="-462.59" font-family="Times,serif" font-size="14.00">rep=no, t=no, r=yes, m=yes, c=no</text>
</g>
<!-- n7&#45;&gt;n8 -->
<g id="edge11" class="edge">
<title>n7&#45;&gt;n8</title>
<path fill="none" stroke="black" d="M590.92,-554.66C590.92,-546.49 590.92,-537.71 590.92,-529.18"/>
<polygon fill="black" stroke="black" points="594.42,-528.96 590.92,-518.96 587.42,-528.96 594.42,-528.96"/>
</g>
<!-- n11 -->
<g id="node13" class="node">
<title>n11</title>
<ellipse fill="#DA79E8" stroke="black" cx="990.92" cy="-481.29" rx="190.84" ry="37.45"/>
<text text-anchor="middle" x="990.92" y="-492.59" font-family="Times,serif" font-size="14.00">hasta</text>
<text text-anchor="middle" x="990.92" y="-477.59" font-family="Times,serif" font-size="14.00">sps00 (prepv)</text>
<text text-anchor="middle" x="990.92" y="-462.59" font-family="Times,serif" font-size="14.00">rep=no, t=no, r=yes, m=yes, c=no</text>
</g>
<!-- n7&#45;&gt;n11 -->
<g id="edge12" class="edge">
<title>n7&#45;&gt;n11</title>
<path fill="none" stroke="black" d="M700.22,-561.47C753.36,-547 817.33,-529.57 871.71,-514.76"/>
<polygon fill="black" stroke="black" points="872.67,-518.13 881.4,-512.12 870.83,-511.37 872.67,-518.13"/>
</g>
<!-- n5 -->
<g id="node14" class="node">
<title>n5</title>
<ellipse fill="#BEDA48" stroke="black" cx="190.92" cy="-370.34" rx="190.84" ry="37.45"/>
<text text-anchor="middle" x="190.92" y="-381.64" font-family="Times,serif" font-size="14.00">una</text>
<text text-anchor="middle" x="190.92" y="-366.64" font-family="Times,serif" font-size="14.00">di0fs0 (det)</text>
<text text-anchor="middle" x="190.92" y="-351.64" font-family="Times,serif" font-size="14.00">rep=no, t=yes, r=no, m=yes, c=no</text>
</g>
<!-- n6&#45;&gt;n5 -->
<g id="edge13" class="edge">
<title>n6&#45;&gt;n5</title>
<path fill="none" stroke="black" d="M190.92,-443.71C190.92,-435.53 190.92,-426.75 190.92,-418.23"/>
<polygon fill="black" stroke="black" points="194.42,-418.01 190.92,-408.01 187.42,-418.01 194.42,-418.01"/>
</g>
<!-- n10 -->
<g id="node15" class="node">
<title>n10</title>
<ellipse fill="#DA79E8" stroke="black" cx="590.92" cy="-370.34" rx="190.84" ry="37.45"/>
<text text-anchor="middle" x="590.92" y="-381.64" font-family="Times,serif" font-size="14.00">playa</text>
<text text-anchor="middle" x="590.92" y="-366.64" font-family="Times,serif" font-size="14.00">ncfs000 (pobj)</text>
<text text-anchor="middle" x="590.92" y="-351.64" font-family="Times,serif" font-size="14.00">rep=no, t=no, r=yes, m=yes, c=no</text>
</g>
<!-- n8&#45;&gt;n10 -->
<g id="edge14" class="edge">
<title>n8&#45;&gt;n10</title>
<path fill="none" stroke="black" d="M590.92,-443.71C590.92,-435.53 590.92,-426.75 590.92,-418.23"/>
<polygon fill="black" stroke="black" points="594.42,-418.01 590.92,-408.01 587.42,-418.01 594.42,-418.01"/>
</g>
<!-- n12 -->
<g id="node17" class="node">
<title>n12</title>
<ellipse fill="#DA79E8" stroke="black" cx="990.92" cy="-370.34" rx="190.84" ry="37.45"/>
<text text-anchor="middle" x="990.92" y="-381.64" font-family="Times,serif" font-size="14.00">que</text>
<text text-anchor="middle" x="990.92" y="-366.64" font-family="Times,serif" font-size="14.00">cs (pobj)</text>
<text text-anchor="middle" x="990.92" y="-351.64" font-family="Times,serif" font-size="14.00">rep=no, t=no, r=yes, m=yes, c=no</text>
</g>
<!-- n11&#45;&gt;n12 -->
<g id="edge16" class="edge">
<title>n11&#45;&gt;n12</title>
<path fill="none" stroke="black" d="M990.92,-443.71C990.92,-435.53 990.92,-426.75 990.92,-418.23"/>
<polygon fill="black" stroke="black" points="994.42,-418.01 990.92,-408.01 987.42,-418.01 994.42,-418.01"/>
</g>
<!-- n9 -->
<g id="node16" class="node">
<title>n9</title>
<ellipse fill="#DA79E8" stroke="black" cx="590.92" cy="-259.38" rx="190.84" ry="37.45"/>
<text text-anchor="middle" x="590.92" y="-270.68" font-family="Times,serif" font-size="14.00">la</text>
<text text-anchor="middle" x="590.92" y="-255.68" font-family="Times,serif" font-size="14.00">da0fs0 (det)</text>
<text text-anchor="middle" x="590.92" y="-240.68" font-family="Times,serif" font-size="14.00">rep=no, t=no, r=yes, m=yes, c=no</text>
</g>
<!-- n10&#45;&gt;n9 -->
<g id="edge15" class="edge">
<title>n10&#45;&gt;n9</title>
<path fill="none" stroke="black" d="M590.92,-332.75C590.92,-324.58 590.92,-315.8 590.92,-307.27"/>
<polygon fill="black" stroke="black" points="594.42,-307.06 590.92,-297.06 587.42,-307.06 594.42,-307.06"/>
</g>
<!-- n15 -->
<g id="node18" class="node">
<title>n15</title>
<ellipse fill="#DA79E8" stroke="black" cx="990.92" cy="-259.38" rx="190.84" ry="37.45"/>
<text text-anchor="middle" x="990.92" y="-270.68" font-family="Times,serif" font-size="14.00">haya</text>
<text text-anchor="middle" x="990.92" y="-255.68" font-family="Times,serif" font-size="14.00">vasp3s0 (cobj)</text>
<text text-anchor="middle" x="990.92" y="-240.68" font-family="Times,serif" font-size="14.00">rep=no, t=no, r=yes, m=yes, c=no</text>
</g>
<!-- n12&#45;&gt;n15 -->
<g id="edge17" class="edge">
<title>n12&#45;&gt;n15</title>
<path fill="none" stroke="black" d="M990.92,-332.75C990.92,-324.58 990.92,-315.8 990.92,-307.27"/>
<polygon fill="black" stroke="black" points="994.42,-307.06 990.92,-297.06 987.42,-307.06 994.42,-307.06"/>
</g>
<!-- n13 -->
<g id="node19" class="node">
<title>n13</title>
<ellipse fill="#DA79E8" stroke="black" cx="390.92" cy="-148.43" rx="190.84" ry="37.45"/>
<text text-anchor="middle" x="390.92" y="-159.73" font-family="Times,serif" font-size="14.00">no</text>
<text text-anchor="middle" x="390.92" y="-144.73" font-family="Times,serif" font-size="14.00">rn (neg)</text>
<text text-anchor="middle" x="390.92" y="-129.73" font-family="Times,serif" font-size="14.00">rep=no, t=no, r=yes, m=yes, c=no</text>
</g>
<!-- n15&#45;&gt;n13 -->
<g id="edge18" class="edge">
<title>n15&#45;&gt;n13</title>
<path fill="none" stroke="black" d="M853.48,-233.27C832.53,-229.46 811.15,-225.57 790.92,-221.91 702.05,-205.8 679.79,-202.01 590.92,-185.91 573.85,-182.81 555.96,-179.56 538.2,-176.33"/>
<polygon fill="black" stroke="black" points="538.82,-172.89 528.35,-174.54 537.56,-179.77 538.82,-172.89"/>
</g>
<!-- n14 -->
<g id="node20" class="node">
<title>n14</title>
<ellipse fill="#DA79E8" stroke="black" cx="790.92" cy="-148.43" rx="190.84" ry="37.45"/>
<text text-anchor="middle" x="790.92" y="-159.73" font-family="Times,serif" font-size="14.00">se</text>
<text text-anchor="middle" x="790.92" y="-144.73" font-family="Times,serif" font-size="14.00">p0000000 (reflec)</text>
<text text-anchor="middle" x="790.92" y="-129.73" font-family="Times,serif" font-size="14.00">rep=no, t=no, r=yes, m=yes, c=no</text>
</g>
<!-- n15&#45;&gt;n14 -->
<g id="edge19" class="edge">
<title>n15&#45;&gt;n14</title>
<path fill="none" stroke="black" d="M927.64,-223.91C907.11,-212.73 884.18,-200.24 863.06,-188.73"/>
<polygon fill="black" stroke="black" points="864.59,-185.58 854.13,-183.87 861.24,-191.72 864.59,-185.58"/>
</g>
<!-- n16 -->
<g id="node21" class="node">
<title>n16</title>
<ellipse fill="#DA79E8" stroke="black" cx="1190.92" cy="-148.43" rx="190.84" ry="37.45"/>
<text text-anchor="middle" x="1190.92" y="-159.73" font-family="Times,serif" font-size="14.00">resuelto</text>
<text text-anchor="middle" x="1190.92" y="-144.73" font-family="Times,serif" font-size="14.00">vmp00sm (vobj)</text>
<text text-anchor="middle" x="1190.92" y="-129.73" font-family="Times,serif" font-size="14.00">rep=no, t=no, r=yes, m=yes, c=no</text>
</g>
<!-- n15&#45;&gt;n16 -->
<g id="edge20" class="edge">
<title>n15&#45;&gt;n16</title>
<path fill="none" stroke="black" d="M1054.2,-223.91C1074.73,-212.73 1097.65,-200.24 1118.78,-188.73"/>
<polygon fill="black" stroke="black" points="1120.6,-191.72 1127.71,-183.87 1117.25,-185.58 1120.6,-191.72"/>
</g>
<!-- n18 -->
<g id="node22" class="node">
<title>n18</title>
<ellipse fill="#DA79E8" stroke="black" cx="1590.92" cy="-148.43" rx="190.84" ry="37.45"/>
<text text-anchor="middle" x="1590.92" y="-159.73" font-family="Times,serif" font-size="14.00">caso</text>
<text text-anchor="middle" x="1590.92" y="-144.73" font-family="Times,serif" font-size="14.00">ncms000 (nsubj)</text>
<text text-anchor="middle" x="1590.92" y="-129.73" font-family="Times,serif" font-size="14.00">rep=no, t=no, r=yes, m=yes, c=no</text>
</g>
<!-- n15&#45;&gt;n18 -->
<g id="edge21" class="edge">
<title>n15&#45;&gt;n18</title>
<path fill="none" stroke="black" d="M1128.84,-233.43C1205.94,-219.48 1303.78,-201.75 1390.92,-185.91 1407.99,-182.8 1425.87,-179.55 1443.63,-176.31"/>
<polygon fill="black" stroke="black" points="1444.27,-179.75 1453.48,-174.52 1443.02,-172.87 1444.27,-179.75"/>
</g>
<!-- n17 -->
<g id="node23" class="node">
<title>n17</title>
<ellipse fill="#DA79E8" stroke="black" cx="1590.92" cy="-37.48" rx="190.84" ry="37.45"/>
<text text-anchor="middle" x="1590.92" y="-48.78" font-family="Times,serif" font-size="14.00">el</text>
<text text-anchor="middle" x="1590.92" y="-33.78" font-family="Times,serif" font-size="14.00">da0ms0 (det)</text>
<text text-anchor="middle" x="1590.92" y="-18.78" font-family="Times,serif" font-size="14.00">rep=no, t=no, r=yes, m=yes, c=no</text>
</g>
<!-- n18&#45;&gt;n17 -->
<g id="edge22" class="edge">
<title>n18&#45;&gt;n17</title>
<path fill="none" stroke="black" d="M1590.92,-110.85C1590.92,-102.67 1590.92,-93.89 1590.92,-85.37"/>
<polygon fill="black" stroke="black" points="1594.42,-85.15 1590.92,-75.15 1587.42,-85.15 1594.42,-85.15"/>
</g>
</g>
</svg>
