<?xml version="1.0" encoding="UTF-8" standalone="no"?>
<!DOCTYPE svg PUBLIC "-//W3C//DTD SVG 1.1//EN"
 "http://www.w3.org/Graphics/SVG/1.1/DTD/svg11.dtd">
<!-- Generated by graphviz version 2.43.0 (0)
 -->
<!-- Title: tree Pages: 1 -->
<svg width="4644pt" height="1192pt"
 viewBox="0.00 0.00 4643.70 1192.49" xmlns="http://www.w3.org/2000/svg" xmlns:xlink="http://www.w3.org/1999/xlink">
<g id="graph0" class="graph" transform="scale(1 1) rotate(0) translate(4 1188.49)">
<title>tree</title>
<polygon fill="white" stroke="transparent" points="-4,4 -4,-1188.49 4639.7,-1188.49 4639.7,4 -4,4"/>
<!-- n17 -->
<g id="node1" class="node">
<title>n17</title>
<ellipse fill="none" stroke="black" cx="1338.73" cy="-1147.01" rx="181.95" ry="37.45"/>
<text text-anchor="middle" x="1338.73" y="-1158.31" font-family="Times,serif" font-size="14.00">reconocieron</text>
<text text-anchor="middle" x="1338.73" y="-1143.31" font-family="Times,serif" font-size="14.00">vmis3p0 (root)</text>
<text text-anchor="middle" x="1338.73" y="-1128.31" font-family="Times,serif" font-size="14.00">rep=no, t=no, r=no, m=no, c=no</text>
</g>
<!-- n1 -->
<g id="node2" class="node">
<title>n1</title>
<ellipse fill="none" stroke="black" cx="567.73" cy="-1036.06" rx="181.95" ry="37.45"/>
<text text-anchor="middle" x="567.73" y="-1047.36" font-family="Times,serif" font-size="14.00">Aunque</text>
<text text-anchor="middle" x="567.73" y="-1032.36" font-family="Times,serif" font-size="14.00">cs (advcl)</text>
<text text-anchor="middle" x="567.73" y="-1017.36" font-family="Times,serif" font-size="14.00">rep=no, t=no, r=no, m=no, c=no</text>
</g>
<!-- n17&#45;&gt;n1 -->
<g id="edge1" class="edge">
<title>n17&#45;&gt;n1</title>
<path fill="none" stroke="black" d="M1180.09,-1128.72C1063.98,-1115.42 902.74,-1095.63 761.73,-1073.53 743.93,-1070.75 725.27,-1067.57 706.84,-1064.27"/>
<polygon fill="black" stroke="black" points="707.4,-1060.81 696.94,-1062.48 706.16,-1067.7 707.4,-1060.81"/>
</g>
<!-- n12 -->
<g id="node3" class="node">
<title>n12</title>
<ellipse fill="none" stroke="black" cx="952.73" cy="-1036.06" rx="181.95" ry="37.45"/>
<text text-anchor="middle" x="952.73" y="-1047.36" font-family="Times,serif" font-size="14.00">,</text>
<text text-anchor="middle" x="952.73" y="-1032.36" font-family="Times,serif" font-size="14.00">fc (punct)</text>
<text text-anchor="middle" x="952.73" y="-1017.36" font-family="Times,serif" font-size="14.00">rep=no, t=no, r=no, m=no, c=no</text>
</g>
<!-- n17&#45;&gt;n12 -->
<g id="edge2" class="edge">
<title>n17&#45;&gt;n12</title>
<path fill="none" stroke="black" d="M1233.76,-1116.38C1182.27,-1101.85 1120.14,-1084.31 1067.4,-1069.43"/>
<polygon fill="black" stroke="black" points="1068.25,-1066.03 1057.67,-1066.68 1066.35,-1072.76 1068.25,-1066.03"/>
</g>
<!-- n13 -->
<g id="node4" class="node">
<title>n13</title>
<ellipse fill="none" stroke="black" cx="1338.73" cy="-1036.06" rx="185.94" ry="37.45"/>
<text text-anchor="middle" x="1338.73" y="-1047.36" font-family="Times,serif" font-size="14.00">fuentes</text>
<text text-anchor="middle" x="1338.73" y="-1032.36" font-family="Times,serif" font-size="14.00">ncfp000 (nsubj)</text>
<text text-anchor="middle" x="1338.73" y="-1017.36" font-family="Times,serif" font-size="14.00">rep=yes, t=no, r=no, m=no, c=no</text>
</g>
<!-- n17&#45;&gt;n13 -->
<g id="edge3" class="edge">
<title>n17&#45;&gt;n13</title>
<path fill="none" stroke="black" d="M1338.73,-1109.43C1338.73,-1101.25 1338.73,-1092.47 1338.73,-1083.95"/>
<polygon fill="black" stroke="black" points="1342.23,-1083.73 1338.73,-1073.73 1335.23,-1083.73 1342.23,-1083.73"/>
</g>
<!-- n18 -->
<g id="node5" class="node">
<title>n18</title>
<ellipse fill="none" stroke="black" cx="1733.73" cy="-1036.06" rx="181.95" ry="37.45"/>
<text text-anchor="middle" x="1733.73" y="-1047.36" font-family="Times,serif" font-size="14.00">que</text>
<text text-anchor="middle" x="1733.73" y="-1032.36" font-family="Times,serif" font-size="14.00">cs (dobj)</text>
<text text-anchor="middle" x="1733.73" y="-1017.36" font-family="Times,serif" font-size="14.00">rep=no, t=no, r=no, m=no, c=no</text>
</g>
<!-- n17&#45;&gt;n18 -->
<g id="edge4" class="edge">
<title>n17&#45;&gt;n18</title>
<path fill="none" stroke="black" d="M1445.36,-1116.6C1498.49,-1101.94 1562.84,-1084.19 1617.27,-1069.18"/>
<polygon fill="black" stroke="black" points="1618.25,-1072.54 1626.96,-1066.51 1616.39,-1065.79 1618.25,-1072.54"/>
</g>
<!-- n45 -->
<g id="node6" class="node">
<title>n45</title>
<ellipse fill="none" stroke="black" cx="2114.73" cy="-1036.06" rx="181.95" ry="37.45"/>
<text text-anchor="middle" x="2114.73" y="-1047.36" font-family="Times,serif" font-size="14.00">.</text>
<text text-anchor="middle" x="2114.73" y="-1032.36" font-family="Times,serif" font-size="14.00">fp (punct)</text>
<text text-anchor="middle" x="2114.73" y="-1017.36" font-family="Times,serif" font-size="14.00">rep=no, t=no, r=no, m=no, c=no</text>
</g>
<!-- n17&#45;&gt;n45 -->
<g id="edge5" class="edge">
<title>n17&#45;&gt;n45</title>
<path fill="none" stroke="black" d="M1498.62,-1129.14C1616.65,-1115.99 1781.06,-1096.18 1924.73,-1073.53 1941.64,-1070.87 1959.36,-1067.81 1976.89,-1064.64"/>
<polygon fill="black" stroke="black" points="1977.97,-1068 1987.18,-1062.75 1976.71,-1061.11 1977.97,-1068"/>
</g>
<!-- n3 -->
<g id="node7" class="node">
<title>n3</title>
<ellipse fill="none" stroke="black" cx="562.73" cy="-925.1" rx="181.95" ry="37.45"/>
<text text-anchor="middle" x="562.73" y="-936.4" font-family="Times,serif" font-size="14.00">justificó</text>
<text text-anchor="middle" x="562.73" y="-921.4" font-family="Times,serif" font-size="14.00">vmis3s0 (cobj)</text>
<text text-anchor="middle" x="562.73" y="-906.4" font-family="Times,serif" font-size="14.00">rep=no, t=no, r=no, m=no, c=no</text>
</g>
<!-- n1&#45;&gt;n3 -->
<g id="edge6" class="edge">
<title>n1&#45;&gt;n3</title>
<path fill="none" stroke="black" d="M566.05,-998.47C565.67,-990.3 565.27,-981.52 564.88,-972.99"/>
<polygon fill="black" stroke="black" points="568.36,-972.6 564.41,-962.78 561.37,-972.93 568.36,-972.6"/>
</g>
<!-- n14 -->
<g id="node17" class="node">
<title>n14</title>
<ellipse fill="none" stroke="black" cx="948.73" cy="-925.1" rx="185.94" ry="37.45"/>
<text text-anchor="middle" x="948.73" y="-936.4" font-family="Times,serif" font-size="14.00">municipales</text>
<text text-anchor="middle" x="948.73" y="-921.4" font-family="Times,serif" font-size="14.00">aq0cp0 (amod)</text>
<text text-anchor="middle" x="948.73" y="-906.4" font-family="Times,serif" font-size="14.00">rep=yes, t=no, r=no, m=no, c=no</text>
</g>
<!-- n13&#45;&gt;n14 -->
<g id="edge16" class="edge">
<title>n13&#45;&gt;n14</title>
<path fill="none" stroke="black" d="M1232.16,-1005.28C1180.35,-990.81 1117.98,-973.39 1064.95,-958.57"/>
<polygon fill="black" stroke="black" points="1065.74,-955.16 1055.17,-955.84 1063.86,-961.9 1065.74,-955.16"/>
</g>
<!-- n15 -->
<g id="node18" class="node">
<title>n15</title>
<ellipse fill="none" stroke="black" cx="1338.73" cy="-925.1" rx="185.94" ry="37.45"/>
<text text-anchor="middle" x="1338.73" y="-936.4" font-family="Times,serif" font-size="14.00">de</text>
<text text-anchor="middle" x="1338.73" y="-921.4" font-family="Times,serif" font-size="14.00">sps00 (prepn)</text>
<text text-anchor="middle" x="1338.73" y="-906.4" font-family="Times,serif" font-size="14.00">rep=yes, t=no, r=no, m=no, c=no</text>
</g>
<!-- n13&#45;&gt;n15 -->
<g id="edge17" class="edge">
<title>n13&#45;&gt;n15</title>
<path fill="none" stroke="black" d="M1338.73,-998.47C1338.73,-990.3 1338.73,-981.52 1338.73,-972.99"/>
<polygon fill="black" stroke="black" points="1342.23,-972.78 1338.73,-962.78 1335.23,-972.78 1342.23,-972.78"/>
</g>
<!-- n22 -->
<g id="node20" class="node">
<title>n22</title>
<ellipse fill="none" stroke="black" cx="1733.73" cy="-925.1" rx="190.84" ry="37.45"/>
<text text-anchor="middle" x="1733.73" y="-936.4" font-family="Times,serif" font-size="14.00">había</text>
<text text-anchor="middle" x="1733.73" y="-921.4" font-family="Times,serif" font-size="14.00">vaii3s0 (cobj)</text>
<text text-anchor="middle" x="1733.73" y="-906.4" font-family="Times,serif" font-size="14.00">rep=no, t=no, r=no, m=yes, c=yes</text>
</g>
<!-- n18&#45;&gt;n22 -->
<g id="edge19" class="edge">
<title>n18&#45;&gt;n22</title>
<path fill="none" stroke="black" d="M1733.73,-998.47C1733.73,-990.3 1733.73,-981.52 1733.73,-972.99"/>
<polygon fill="black" stroke="black" points="1737.23,-972.78 1733.73,-962.78 1730.23,-972.78 1737.23,-972.78"/>
</g>
<!-- n28 -->
<g id="node21" class="node">
<title>n28</title>
<ellipse fill="none" stroke="black" cx="2128.73" cy="-925.1" rx="185.94" ry="37.45"/>
<text text-anchor="middle" x="2128.73" y="-936.4" font-family="Times,serif" font-size="14.00">y</text>
<text text-anchor="middle" x="2128.73" y="-921.4" font-family="Times,serif" font-size="14.00">cc (coord_fixed)</text>
<text text-anchor="middle" x="2128.73" y="-906.4" font-family="Times,serif" font-size="14.00">rep=no, t=no, r=no, m=yes, c=no</text>
</g>
<!-- n18&#45;&gt;n28 -->
<g id="edge20" class="edge">
<title>n18&#45;&gt;n28</title>
<path fill="none" stroke="black" d="M1840.36,-1005.64C1893.28,-991.05 1957.32,-973.38 2011.6,-958.41"/>
<polygon fill="black" stroke="black" points="2012.56,-961.78 2021.27,-955.74 2010.7,-955.03 2012.56,-961.78"/>
</g>
<!-- n30 -->
<g id="node22" class="node">
<title>n30</title>
<ellipse fill="none" stroke="black" cx="2706.73" cy="-925.1" rx="190.84" ry="37.45"/>
<text text-anchor="middle" x="2706.73" y="-936.4" font-family="Times,serif" font-size="14.00">quería</text>
<text text-anchor="middle" x="2706.73" y="-921.4" font-family="Times,serif" font-size="14.00">vmii3s0 (cobj)</text>
<text text-anchor="middle" x="2706.73" y="-906.4" font-family="Times,serif" font-size="14.00">rep=no, t=no, r=no, m=yes, c=yes</text>
</g>
<!-- n18&#45;&gt;n30 -->
<g id="edge21" class="edge">
<title>n18&#45;&gt;n30</title>
<path fill="none" stroke="black" d="M1859.91,-1009.01C1881.15,-1005.14 1903.02,-1001.49 1923.73,-998.58 2100.48,-973.72 2145.99,-979.04 2323.73,-962.58 2390.01,-956.44 2462.74,-949.55 2526.84,-943.43"/>
<polygon fill="black" stroke="black" points="2527.43,-946.89 2537.06,-942.45 2526.77,-939.92 2527.43,-946.89"/>
</g>
<!-- n2 -->
<g id="node8" class="node">
<title>n2</title>
<ellipse fill="none" stroke="black" cx="181.73" cy="-814.15" rx="181.95" ry="37.45"/>
<text text-anchor="middle" x="181.73" y="-825.45" font-family="Times,serif" font-size="14.00">se</text>
<text text-anchor="middle" x="181.73" y="-810.45" font-family="Times,serif" font-size="14.00">p0000000 (reflec)</text>
<text text-anchor="middle" x="181.73" y="-795.45" font-family="Times,serif" font-size="14.00">rep=no, t=no, r=no, m=no, c=no</text>
</g>
<!-- n3&#45;&gt;n2 -->
<g id="edge7" class="edge">
<title>n3&#45;&gt;n2</title>
<path fill="none" stroke="black" d="M458.62,-894.33C408.11,-879.89 347.33,-862.51 295.6,-847.71"/>
<polygon fill="black" stroke="black" points="296.29,-844.27 285.71,-844.89 294.36,-851 296.29,-844.27"/>
</g>
<!-- n5 -->
<g id="node9" class="node">
<title>n5</title>
<ellipse fill="none" stroke="black" cx="562.73" cy="-814.15" rx="181.95" ry="37.45"/>
<text text-anchor="middle" x="562.73" y="-825.45" font-family="Times,serif" font-size="14.00">discreción</text>
<text text-anchor="middle" x="562.73" y="-810.45" font-family="Times,serif" font-size="14.00">ncfs000 (nsubj)</text>
<text text-anchor="middle" x="562.73" y="-795.45" font-family="Times,serif" font-size="14.00">rep=no, t=no, r=no, m=no, c=no</text>
</g>
<!-- n3&#45;&gt;n5 -->
<g id="edge8" class="edge">
<title>n3&#45;&gt;n5</title>
<path fill="none" stroke="black" d="M562.73,-887.52C562.73,-879.35 562.73,-870.57 562.73,-862.04"/>
<polygon fill="black" stroke="black" points="566.23,-861.82 562.73,-851.82 559.23,-861.82 566.23,-861.82"/>
</g>
<!-- n6 -->
<g id="node10" class="node">
<title>n6</title>
<ellipse fill="none" stroke="black" cx="943.73" cy="-814.15" rx="181.95" ry="37.45"/>
<text text-anchor="middle" x="943.73" y="-825.45" font-family="Times,serif" font-size="14.00">en</text>
<text text-anchor="middle" x="943.73" y="-810.45" font-family="Times,serif" font-size="14.00">sps00 (prepv)</text>
<text text-anchor="middle" x="943.73" y="-795.45" font-family="Times,serif" font-size="14.00">rep=no, t=no, r=no, m=no, c=no</text>
</g>
<!-- n3&#45;&gt;n6 -->
<g id="edge9" class="edge">
<title>n3&#45;&gt;n6</title>
<path fill="none" stroke="black" d="M666.84,-894.33C717.34,-879.89 778.12,-862.51 829.86,-847.71"/>
<polygon fill="black" stroke="black" points="831.09,-851 839.74,-844.89 829.17,-844.27 831.09,-851"/>
</g>
<!-- n4 -->
<g id="node11" class="node">
<title>n4</title>
<ellipse fill="none" stroke="black" cx="562.73" cy="-703.2" rx="181.95" ry="37.45"/>
<text text-anchor="middle" x="562.73" y="-714.5" font-family="Times,serif" font-size="14.00">la</text>
<text text-anchor="middle" x="562.73" y="-699.5" font-family="Times,serif" font-size="14.00">da0fs0 (det)</text>
<text text-anchor="middle" x="562.73" y="-684.5" font-family="Times,serif" font-size="14.00">rep=no, t=no, r=no, m=no, c=no</text>
</g>
<!-- n5&#45;&gt;n4 -->
<g id="edge10" class="edge">
<title>n5&#45;&gt;n4</title>
<path fill="none" stroke="black" d="M562.73,-776.57C562.73,-768.39 562.73,-759.61 562.73,-751.09"/>
<polygon fill="black" stroke="black" points="566.23,-750.87 562.73,-740.87 559.23,-750.87 566.23,-750.87"/>
</g>
<!-- n7 -->
<g id="node12" class="node">
<title>n7</title>
<ellipse fill="none" stroke="black" cx="943.73" cy="-703.2" rx="181.95" ry="37.45"/>
<text text-anchor="middle" x="943.73" y="-714.5" font-family="Times,serif" font-size="14.00">necesidades</text>
<text text-anchor="middle" x="943.73" y="-699.5" font-family="Times,serif" font-size="14.00">ncfp000 (pobj)</text>
<text text-anchor="middle" x="943.73" y="-684.5" font-family="Times,serif" font-size="14.00">rep=no, t=no, r=no, m=no, c=no</text>
</g>
<!-- n6&#45;&gt;n7 -->
<g id="edge11" class="edge">
<title>n6&#45;&gt;n7</title>
<path fill="none" stroke="black" d="M943.73,-776.57C943.73,-768.39 943.73,-759.61 943.73,-751.09"/>
<polygon fill="black" stroke="black" points="947.23,-750.87 943.73,-740.87 940.23,-750.87 947.23,-750.87"/>
</g>
<!-- n8 -->
<g id="node13" class="node">
<title>n8</title>
<ellipse fill="none" stroke="black" cx="943.73" cy="-592.24" rx="181.95" ry="37.45"/>
<text text-anchor="middle" x="943.73" y="-603.54" font-family="Times,serif" font-size="14.00">de</text>
<text text-anchor="middle" x="943.73" y="-588.54" font-family="Times,serif" font-size="14.00">sps00 (prepn)</text>
<text text-anchor="middle" x="943.73" y="-573.54" font-family="Times,serif" font-size="14.00">rep=no, t=no, r=no, m=no, c=no</text>
</g>
<!-- n7&#45;&gt;n8 -->
<g id="edge12" class="edge">
<title>n7&#45;&gt;n8</title>
<path fill="none" stroke="black" d="M943.73,-665.61C943.73,-657.44 943.73,-648.66 943.73,-640.13"/>
<polygon fill="black" stroke="black" points="947.23,-639.92 943.73,-629.92 940.23,-639.92 947.23,-639.92"/>
</g>
<!-- n11 -->
<g id="node14" class="node">
<title>n11</title>
<ellipse fill="none" stroke="black" cx="943.73" cy="-481.29" rx="181.95" ry="37.45"/>
<text text-anchor="middle" x="943.73" y="-492.59" font-family="Times,serif" font-size="14.00">investigación</text>
<text text-anchor="middle" x="943.73" y="-477.59" font-family="Times,serif" font-size="14.00">ncfs000 (pobj)</text>
<text text-anchor="middle" x="943.73" y="-462.59" font-family="Times,serif" font-size="14.00">rep=no, t=no, r=no, m=no, c=no</text>
</g>
<!-- n8&#45;&gt;n11 -->
<g id="edge13" class="edge">
<title>n8&#45;&gt;n11</title>
<path fill="none" stroke="black" d="M943.73,-554.66C943.73,-546.49 943.73,-537.71 943.73,-529.18"/>
<polygon fill="black" stroke="black" points="947.23,-528.96 943.73,-518.96 940.23,-528.96 947.23,-528.96"/>
</g>
<!-- n9 -->
<g id="node15" class="node">
<title>n9</title>
<ellipse fill="none" stroke="black" cx="753.73" cy="-370.34" rx="181.95" ry="37.45"/>
<text text-anchor="middle" x="753.73" y="-381.64" font-family="Times,serif" font-size="14.00">la</text>
<text text-anchor="middle" x="753.73" y="-366.64" font-family="Times,serif" font-size="14.00">da0fs0 (det)</text>
<text text-anchor="middle" x="753.73" y="-351.64" font-family="Times,serif" font-size="14.00">rep=no, t=no, r=no, m=no, c=no</text>
</g>
<!-- n11&#45;&gt;n9 -->
<g id="edge14" class="edge">
<title>n11&#45;&gt;n9</title>
<path fill="none" stroke="black" d="M883.61,-445.82C864.19,-434.68 842.52,-422.26 822.53,-410.79"/>
<polygon fill="black" stroke="black" points="824.19,-407.71 813.78,-405.77 820.71,-413.78 824.19,-407.71"/>
</g>
<!-- n10 -->
<g id="node16" class="node">
<title>n10</title>
<ellipse fill="none" stroke="black" cx="1134.73" cy="-370.34" rx="181.95" ry="37.45"/>
<text text-anchor="middle" x="1134.73" y="-381.64" font-family="Times,serif" font-size="14.00">propia</text>
<text text-anchor="middle" x="1134.73" y="-366.64" font-family="Times,serif" font-size="14.00">di0fs0 (det)</text>
<text text-anchor="middle" x="1134.73" y="-351.64" font-family="Times,serif" font-size="14.00">rep=no, t=no, r=no, m=no, c=no</text>
</g>
<!-- n11&#45;&gt;n10 -->
<g id="edge15" class="edge">
<title>n11&#45;&gt;n10</title>
<path fill="none" stroke="black" d="M1004.16,-445.82C1023.68,-434.68 1045.46,-422.26 1065.56,-410.79"/>
<polygon fill="black" stroke="black" points="1067.41,-413.77 1074.36,-405.77 1063.94,-407.69 1067.41,-413.77"/>
</g>
<!-- n16 -->
<g id="node19" class="node">
<title>n16</title>
<ellipse fill="none" stroke="black" cx="1329.73" cy="-814.15" rx="185.94" ry="37.45"/>
<text text-anchor="middle" x="1329.73" y="-825.45" font-family="Times,serif" font-size="14.00">Salou</text>
<text text-anchor="middle" x="1329.73" y="-810.45" font-family="Times,serif" font-size="14.00">np00000 (pobj)</text>
<text text-anchor="middle" x="1329.73" y="-795.45" font-family="Times,serif" font-size="14.00">rep=yes, t=no, r=no, m=no, c=no</text>
</g>
<!-- n15&#45;&gt;n16 -->
<g id="edge18" class="edge">
<title>n15&#45;&gt;n16</title>
<path fill="none" stroke="black" d="M1335.7,-887.52C1335.03,-879.35 1334.3,-870.57 1333.6,-862.04"/>
<polygon fill="black" stroke="black" points="1337.07,-861.5 1332.76,-851.82 1330.09,-862.08 1337.07,-861.5"/>
</g>
<!-- n20 -->
<g id="node23" class="node">
<title>n20</title>
<ellipse fill="none" stroke="black" cx="1719.73" cy="-814.15" rx="185.94" ry="37.45"/>
<text text-anchor="middle" x="1719.73" y="-825.45" font-family="Times,serif" font-size="14.00">no</text>
<text text-anchor="middle" x="1719.73" y="-810.45" font-family="Times,serif" font-size="14.00">rn (neg)</text>
<text text-anchor="middle" x="1719.73" y="-795.45" font-family="Times,serif" font-size="14.00">rep=no, t=no, r=no, m=yes, c=no</text>
</g>
<!-- n22&#45;&gt;n20 -->
<g id="edge22" class="edge">
<title>n22&#45;&gt;n20</title>
<path fill="none" stroke="black" d="M1729.03,-887.52C1727.96,-879.26 1726.82,-870.37 1725.72,-861.76"/>
<polygon fill="black" stroke="black" points="1729.18,-861.29 1724.44,-851.82 1722.24,-862.19 1729.18,-861.29"/>
</g>
<!-- n23 -->
<g id="node24" class="node">
<title>n23</title>
<ellipse fill="none" stroke="black" cx="2109.73" cy="-814.15" rx="185.94" ry="37.45"/>
<text text-anchor="middle" x="2109.73" y="-825.45" font-family="Times,serif" font-size="14.00">dado</text>
<text text-anchor="middle" x="2109.73" y="-810.45" font-family="Times,serif" font-size="14.00">vmp00sm (vobj)</text>
<text text-anchor="middle" x="2109.73" y="-795.45" font-family="Times,serif" font-size="14.00">rep=no, t=no, r=no, m=yes, c=no</text>
</g>
<!-- n22&#45;&gt;n23 -->
<g id="edge23" class="edge">
<title>n22&#45;&gt;n23</title>
<path fill="none" stroke="black" d="M1838.46,-893.75C1887.46,-879.56 1945.9,-862.62 1995.98,-848.11"/>
<polygon fill="black" stroke="black" points="1997.25,-851.39 2005.88,-845.24 1995.3,-844.66 1997.25,-851.39"/>
</g>
<!-- n31 -->
<g id="node31" class="node">
<title>n31</title>
<ellipse fill="none" stroke="black" cx="3084.73" cy="-814.15" rx="185.94" ry="37.45"/>
<text text-anchor="middle" x="3084.73" y="-825.45" font-family="Times,serif" font-size="14.00">evitar</text>
<text text-anchor="middle" x="3084.73" y="-810.45" font-family="Times,serif" font-size="14.00">vmn0000 (dobj)</text>
<text text-anchor="middle" x="3084.73" y="-795.45" font-family="Times,serif" font-size="14.00">rep=no, t=no, r=no, m=yes, c=no</text>
</g>
<!-- n30&#45;&gt;n31 -->
<g id="edge30" class="edge">
<title>n30&#45;&gt;n31</title>
<path fill="none" stroke="black" d="M2812.02,-893.75C2861.38,-879.53 2920.28,-862.55 2970.69,-848.02"/>
<polygon fill="black" stroke="black" points="2971.68,-851.38 2980.32,-845.24 2969.75,-844.65 2971.68,-851.38"/>
</g>
<!-- n19 -->
<g id="node25" class="node">
<title>n19</title>
<ellipse fill="none" stroke="black" cx="1329.73" cy="-703.2" rx="185.94" ry="37.45"/>
<text text-anchor="middle" x="1329.73" y="-714.5" font-family="Times,serif" font-size="14.00">inicialmente</text>
<text text-anchor="middle" x="1329.73" y="-699.5" font-family="Times,serif" font-size="14.00">rg (advmod)</text>
<text text-anchor="middle" x="1329.73" y="-684.5" font-family="Times,serif" font-size="14.00">rep=no, t=no, r=no, m=yes, c=no</text>
</g>
<!-- n23&#45;&gt;n19 -->
<g id="edge24" class="edge">
<title>n23&#45;&gt;n19</title>
<path fill="none" stroke="black" d="M1980.2,-787.18C1958.4,-783.31 1935.96,-779.63 1914.73,-776.67 1742.32,-752.64 1697.13,-764.7 1524.73,-740.67 1506.73,-738.16 1487.86,-735.14 1469.26,-731.92"/>
<polygon fill="black" stroke="black" points="1469.71,-728.45 1459.25,-730.17 1468.5,-735.34 1469.71,-728.45"/>
</g>
<!-- n21 -->
<g id="node26" class="node">
<title>n21</title>
<ellipse fill="none" stroke="black" cx="1719.73" cy="-703.2" rx="185.94" ry="37.45"/>
<text text-anchor="middle" x="1719.73" y="-714.5" font-family="Times,serif" font-size="14.00">se</text>
<text text-anchor="middle" x="1719.73" y="-699.5" font-family="Times,serif" font-size="14.00">p0000000 (reflec)</text>
<text text-anchor="middle" x="1719.73" y="-684.5" font-family="Times,serif" font-size="14.00">rep=no, t=no, r=no, m=yes, c=no</text>
</g>
<!-- n23&#45;&gt;n21 -->
<g id="edge25" class="edge">
<title>n23&#45;&gt;n21</title>
<path fill="none" stroke="black" d="M2003.16,-783.38C1951.35,-768.91 1888.98,-751.48 1835.95,-736.67"/>
<polygon fill="black" stroke="black" points="1836.74,-733.25 1826.17,-733.93 1834.86,-739.99 1836.74,-733.25"/>
</g>
<!-- n24 -->
<g id="node27" class="node">
<title>n24</title>
<ellipse fill="none" stroke="black" cx="2109.73" cy="-703.2" rx="185.94" ry="37.45"/>
<text text-anchor="middle" x="2109.73" y="-714.5" font-family="Times,serif" font-size="14.00">credibilidad</text>
<text text-anchor="middle" x="2109.73" y="-699.5" font-family="Times,serif" font-size="14.00">ncfs000 (dobj)</text>
<text text-anchor="middle" x="2109.73" y="-684.5" font-family="Times,serif" font-size="14.00">rep=no, t=no, r=no, m=yes, c=no</text>
</g>
<!-- n23&#45;&gt;n24 -->
<g id="edge26" class="edge">
<title>n23&#45;&gt;n24</title>
<path fill="none" stroke="black" d="M2109.73,-776.57C2109.73,-768.39 2109.73,-759.61 2109.73,-751.09"/>
<polygon fill="black" stroke="black" points="2113.23,-750.87 2109.73,-740.87 2106.23,-750.87 2113.23,-750.87"/>
</g>
<!-- n25 -->
<g id="node28" class="node">
<title>n25</title>
<ellipse fill="none" stroke="black" cx="2499.73" cy="-703.2" rx="185.94" ry="37.45"/>
<text text-anchor="middle" x="2499.73" y="-714.5" font-family="Times,serif" font-size="14.00">a</text>
<text text-anchor="middle" x="2499.73" y="-699.5" font-family="Times,serif" font-size="14.00">sps00 (iobj)</text>
<text text-anchor="middle" x="2499.73" y="-684.5" font-family="Times,serif" font-size="14.00">rep=no, t=no, r=no, m=yes, c=no</text>
</g>
<!-- n23&#45;&gt;n25 -->
<g id="edge27" class="edge">
<title>n23&#45;&gt;n25</title>
<path fill="none" stroke="black" d="M2216.3,-783.38C2268.1,-768.91 2330.47,-751.48 2383.5,-736.67"/>
<polygon fill="black" stroke="black" points="2384.6,-739.99 2393.29,-733.93 2382.71,-733.25 2384.6,-739.99"/>
</g>
<!-- n27 -->
<g id="node29" class="node">
<title>n27</title>
<ellipse fill="none" stroke="black" cx="2499.73" cy="-592.24" rx="185.94" ry="37.45"/>
<text text-anchor="middle" x="2499.73" y="-603.54" font-family="Times,serif" font-size="14.00">extorsión</text>
<text text-anchor="middle" x="2499.73" y="-588.54" font-family="Times,serif" font-size="14.00">ncfs000 (pobj)</text>
<text text-anchor="middle" x="2499.73" y="-573.54" font-family="Times,serif" font-size="14.00">rep=no, t=no, r=no, m=yes, c=no</text>
</g>
<!-- n25&#45;&gt;n27 -->
<g id="edge28" class="edge">
<title>n25&#45;&gt;n27</title>
<path fill="none" stroke="black" d="M2499.73,-665.61C2499.73,-657.44 2499.73,-648.66 2499.73,-640.13"/>
<polygon fill="black" stroke="black" points="2503.23,-639.92 2499.73,-629.92 2496.23,-639.92 2503.23,-639.92"/>
</g>
<!-- n26 -->
<g id="node30" class="node">
<title>n26</title>
<ellipse fill="none" stroke="black" cx="2499.73" cy="-481.29" rx="185.94" ry="37.45"/>
<text text-anchor="middle" x="2499.73" y="-492.59" font-family="Times,serif" font-size="14.00">la</text>
<text text-anchor="middle" x="2499.73" y="-477.59" font-family="Times,serif" font-size="14.00">da0fs0 (det)</text>
<text text-anchor="middle" x="2499.73" y="-462.59" font-family="Times,serif" font-size="14.00">rep=no, t=no, r=no, m=yes, c=no</text>
</g>
<!-- n27&#45;&gt;n26 -->
<g id="edge29" class="edge">
<title>n27&#45;&gt;n26</title>
<path fill="none" stroke="black" d="M2499.73,-554.66C2499.73,-546.49 2499.73,-537.71 2499.73,-529.18"/>
<polygon fill="black" stroke="black" points="2503.23,-528.96 2499.73,-518.96 2496.23,-528.96 2503.23,-528.96"/>
</g>
<!-- n29 -->
<g id="node32" class="node">
<title>n29</title>
<ellipse fill="none" stroke="black" cx="2889.73" cy="-703.2" rx="185.94" ry="37.45"/>
<text text-anchor="middle" x="2889.73" y="-714.5" font-family="Times,serif" font-size="14.00">se</text>
<text text-anchor="middle" x="2889.73" y="-699.5" font-family="Times,serif" font-size="14.00">p0000000 (reflec)</text>
<text text-anchor="middle" x="2889.73" y="-684.5" font-family="Times,serif" font-size="14.00">rep=no, t=no, r=no, m=yes, c=no</text>
</g>
<!-- n31&#45;&gt;n29 -->
<g id="edge31" class="edge">
<title>n31&#45;&gt;n29</title>
<path fill="none" stroke="black" d="M3023.03,-778.68C3003.1,-767.54 2980.86,-755.12 2960.34,-743.65"/>
<polygon fill="black" stroke="black" points="2961.8,-740.45 2951.36,-738.63 2958.38,-746.57 2961.8,-740.45"/>
</g>
<!-- n33 -->
<g id="node33" class="node">
<title>n33</title>
<ellipse fill="none" stroke="black" cx="3279.73" cy="-703.2" rx="185.94" ry="37.45"/>
<text text-anchor="middle" x="3279.73" y="-714.5" font-family="Times,serif" font-size="14.00">alarma</text>
<text text-anchor="middle" x="3279.73" y="-699.5" font-family="Times,serif" font-size="14.00">ncfs000 (dobj)</text>
<text text-anchor="middle" x="3279.73" y="-684.5" font-family="Times,serif" font-size="14.00">rep=no, t=no, r=no, m=yes, c=no</text>
</g>
<!-- n31&#45;&gt;n33 -->
<g id="edge32" class="edge">
<title>n31&#45;&gt;n33</title>
<path fill="none" stroke="black" d="M3146.43,-778.68C3166.35,-767.54 3188.59,-755.12 3209.11,-743.65"/>
<polygon fill="black" stroke="black" points="3211.07,-746.57 3218.09,-738.63 3207.66,-740.45 3211.07,-746.57"/>
</g>
<!-- n34 -->
<g id="node34" class="node">
<title>n34</title>
<ellipse fill="none" stroke="black" cx="3669.73" cy="-703.2" rx="185.94" ry="37.45"/>
<text text-anchor="middle" x="3669.73" y="-714.5" font-family="Times,serif" font-size="14.00">por</text>
<text text-anchor="middle" x="3669.73" y="-699.5" font-family="Times,serif" font-size="14.00">sps00 (prepv)</text>
<text text-anchor="middle" x="3669.73" y="-684.5" font-family="Times,serif" font-size="14.00">rep=no, t=no, r=no, m=yes, c=no</text>
</g>
<!-- n31&#45;&gt;n34 -->
<g id="edge33" class="edge">
<title>n31&#45;&gt;n34</title>
<path fill="none" stroke="black" d="M3219.2,-788.2C3294.37,-774.24 3389.76,-756.51 3474.73,-740.67 3491.21,-737.6 3508.48,-734.38 3525.64,-731.17"/>
<polygon fill="black" stroke="black" points="3526.54,-734.56 3535.72,-729.28 3525.25,-727.68 3526.54,-734.56"/>
</g>
<!-- n32 -->
<g id="node35" class="node">
<title>n32</title>
<ellipse fill="none" stroke="black" cx="3279.73" cy="-592.24" rx="185.94" ry="37.45"/>
<text text-anchor="middle" x="3279.73" y="-603.54" font-family="Times,serif" font-size="14.00">la</text>
<text text-anchor="middle" x="3279.73" y="-588.54" font-family="Times,serif" font-size="14.00">da0fs0 (det)</text>
<text text-anchor="middle" x="3279.73" y="-573.54" font-family="Times,serif" font-size="14.00">rep=no, t=no, r=no, m=yes, c=no</text>
</g>
<!-- n33&#45;&gt;n32 -->
<g id="edge34" class="edge">
<title>n33&#45;&gt;n32</title>
<path fill="none" stroke="black" d="M3279.73,-665.61C3279.73,-657.44 3279.73,-648.66 3279.73,-640.13"/>
<polygon fill="black" stroke="black" points="3283.23,-639.92 3279.73,-629.92 3276.23,-639.92 3283.23,-639.92"/>
</g>
<!-- n37 -->
<g id="node36" class="node">
<title>n37</title>
<ellipse fill="none" stroke="black" cx="3669.73" cy="-592.24" rx="185.94" ry="37.45"/>
<text text-anchor="middle" x="3669.73" y="-603.54" font-family="Times,serif" font-size="14.00">consecuencias</text>
<text text-anchor="middle" x="3669.73" y="-588.54" font-family="Times,serif" font-size="14.00">ncfp000 (pobj)</text>
<text text-anchor="middle" x="3669.73" y="-573.54" font-family="Times,serif" font-size="14.00">rep=no, t=no, r=no, m=yes, c=no</text>
</g>
<!-- n34&#45;&gt;n37 -->
<g id="edge35" class="edge">
<title>n34&#45;&gt;n37</title>
<path fill="none" stroke="black" d="M3669.73,-665.61C3669.73,-657.44 3669.73,-648.66 3669.73,-640.13"/>
<polygon fill="black" stroke="black" points="3673.23,-639.92 3669.73,-629.92 3666.23,-639.92 3673.23,-639.92"/>
</g>
<!-- n35 -->
<g id="node37" class="node">
<title>n35</title>
<ellipse fill="none" stroke="black" cx="3279.73" cy="-481.29" rx="185.94" ry="37.45"/>
<text text-anchor="middle" x="3279.73" y="-492.59" font-family="Times,serif" font-size="14.00">las</text>
<text text-anchor="middle" x="3279.73" y="-477.59" font-family="Times,serif" font-size="14.00">da0fp0 (det)</text>
<text text-anchor="middle" x="3279.73" y="-462.59" font-family="Times,serif" font-size="14.00">rep=no, t=no, r=no, m=yes, c=no</text>
</g>
<!-- n37&#45;&gt;n35 -->
<g id="edge36" class="edge">
<title>n37&#45;&gt;n35</title>
<path fill="none" stroke="black" d="M3563.16,-561.47C3511.35,-547 3448.98,-529.57 3395.95,-514.76"/>
<polygon fill="black" stroke="black" points="3396.74,-511.35 3386.17,-512.03 3394.86,-518.09 3396.74,-511.35"/>
</g>
<!-- n36 -->
<g id="node38" class="node">
<title>n36</title>
<ellipse fill="none" stroke="black" cx="3669.73" cy="-481.29" rx="185.94" ry="37.45"/>
<text text-anchor="middle" x="3669.73" y="-492.59" font-family="Times,serif" font-size="14.00">negativas</text>
<text text-anchor="middle" x="3669.73" y="-477.59" font-family="Times,serif" font-size="14.00">aq0fp0 (amod)</text>
<text text-anchor="middle" x="3669.73" y="-462.59" font-family="Times,serif" font-size="14.00">rep=no, t=no, r=no, m=yes, c=no</text>
</g>
<!-- n37&#45;&gt;n36 -->
<g id="edge37" class="edge">
<title>n37&#45;&gt;n36</title>
<path fill="none" stroke="black" d="M3669.73,-554.66C3669.73,-546.49 3669.73,-537.71 3669.73,-529.18"/>
<polygon fill="black" stroke="black" points="3673.23,-528.96 3669.73,-518.96 3666.23,-528.96 3673.23,-528.96"/>
</g>
<!-- n39 -->
<g id="node39" class="node">
<title>n39</title>
<ellipse fill="none" stroke="black" cx="4059.73" cy="-481.29" rx="185.94" ry="37.45"/>
<text text-anchor="middle" x="4059.73" y="-492.59" font-family="Times,serif" font-size="14.00">pudiera</text>
<text text-anchor="middle" x="4059.73" y="-477.59" font-family="Times,serif" font-size="14.00">vmsi3s0 (rcmod)</text>
<text text-anchor="middle" x="4059.73" y="-462.59" font-family="Times,serif" font-size="14.00">rep=no, t=no, r=no, m=yes, c=no</text>
</g>
<!-- n37&#45;&gt;n39 -->
<g id="edge38" class="edge">
<title>n37&#45;&gt;n39</title>
<path fill="none" stroke="black" d="M3776.3,-561.47C3828.1,-547 3890.47,-529.57 3943.5,-514.76"/>
<polygon fill="black" stroke="black" points="3944.6,-518.09 3953.29,-512.03 3942.71,-511.35 3944.6,-518.09"/>
</g>
<!-- n40 -->
<g id="node40" class="node">
<title>n40</title>
<ellipse fill="none" stroke="black" cx="4059.73" cy="-370.34" rx="185.94" ry="37.45"/>
<text text-anchor="middle" x="4059.73" y="-381.64" font-family="Times,serif" font-size="14.00">tener</text>
<text text-anchor="middle" x="4059.73" y="-366.64" font-family="Times,serif" font-size="14.00">vmn0000 (dobj)</text>
<text text-anchor="middle" x="4059.73" y="-351.64" font-family="Times,serif" font-size="14.00">rep=no, t=no, r=no, m=yes, c=no</text>
</g>
<!-- n39&#45;&gt;n40 -->
<g id="edge39" class="edge">
<title>n39&#45;&gt;n40</title>
<path fill="none" stroke="black" d="M4059.73,-443.71C4059.73,-435.53 4059.73,-426.75 4059.73,-418.23"/>
<polygon fill="black" stroke="black" points="4063.23,-418.01 4059.73,-408.01 4056.23,-418.01 4063.23,-418.01"/>
</g>
<!-- n38 -->
<g id="node41" class="node">
<title>n38</title>
<ellipse fill="none" stroke="black" cx="3864.73" cy="-259.38" rx="185.94" ry="37.45"/>
<text text-anchor="middle" x="3864.73" y="-270.68" font-family="Times,serif" font-size="14.00">que</text>
<text text-anchor="middle" x="3864.73" y="-255.68" font-family="Times,serif" font-size="14.00">pr0cn000 (dobj)</text>
<text text-anchor="middle" x="3864.73" y="-240.68" font-family="Times,serif" font-size="14.00">rep=no, t=no, r=no, m=yes, c=no</text>
</g>
<!-- n40&#45;&gt;n38 -->
<g id="edge40" class="edge">
<title>n40&#45;&gt;n38</title>
<path fill="none" stroke="black" d="M3998.03,-334.86C3978.1,-323.73 3955.86,-311.3 3935.34,-299.84"/>
<polygon fill="black" stroke="black" points="3936.8,-296.64 3926.36,-294.82 3933.38,-302.75 3936.8,-296.64"/>
</g>
<!-- n41 -->
<g id="node42" class="node">
<title>n41</title>
<ellipse fill="none" stroke="black" cx="4254.73" cy="-259.38" rx="185.94" ry="37.45"/>
<text text-anchor="middle" x="4254.73" y="-270.68" font-family="Times,serif" font-size="14.00">en</text>
<text text-anchor="middle" x="4254.73" y="-255.68" font-family="Times,serif" font-size="14.00">sps00 (prepv)</text>
<text text-anchor="middle" x="4254.73" y="-240.68" font-family="Times,serif" font-size="14.00">rep=no, t=no, r=no, m=yes, c=no</text>
</g>
<!-- n40&#45;&gt;n41 -->
<g id="edge41" class="edge">
<title>n40&#45;&gt;n41</title>
<path fill="none" stroke="black" d="M4121.43,-334.86C4141.35,-323.73 4163.59,-311.3 4184.11,-299.84"/>
<polygon fill="black" stroke="black" points="4186.07,-302.75 4193.09,-294.82 4182.66,-296.64 4186.07,-302.75"/>
</g>
<!-- n43 -->
<g id="node43" class="node">
<title>n43</title>
<ellipse fill="none" stroke="black" cx="4254.73" cy="-148.43" rx="185.94" ry="37.45"/>
<text text-anchor="middle" x="4254.73" y="-159.73" font-family="Times,serif" font-size="14.00">sector</text>
<text text-anchor="middle" x="4254.73" y="-144.73" font-family="Times,serif" font-size="14.00">ncms000 (pobj)</text>
<text text-anchor="middle" x="4254.73" y="-129.73" font-family="Times,serif" font-size="14.00">rep=no, t=no, r=no, m=yes, c=no</text>
</g>
<!-- n41&#45;&gt;n43 -->
<g id="edge42" class="edge">
<title>n41&#45;&gt;n43</title>
<path fill="none" stroke="black" d="M4254.73,-221.8C4254.73,-213.63 4254.73,-204.85 4254.73,-196.32"/>
<polygon fill="black" stroke="black" points="4258.23,-196.1 4254.73,-186.1 4251.23,-196.1 4258.23,-196.1"/>
</g>
<!-- n42 -->
<g id="node44" class="node">
<title>n42</title>
<ellipse fill="none" stroke="black" cx="4059.73" cy="-37.48" rx="185.94" ry="37.45"/>
<text text-anchor="middle" x="4059.73" y="-48.78" font-family="Times,serif" font-size="14.00">el</text>
<text text-anchor="middle" x="4059.73" y="-33.78" font-family="Times,serif" font-size="14.00">da0ms0 (det)</text>
<text text-anchor="middle" x="4059.73" y="-18.78" font-family="Times,serif" font-size="14.00">rep=no, t=no, r=no, m=yes, c=no</text>
</g>
<!-- n43&#45;&gt;n42 -->
<g id="edge43" class="edge">
<title>n43&#45;&gt;n42</title>
<path fill="none" stroke="black" d="M4193.03,-112.96C4173.1,-101.82 4150.86,-89.4 4130.34,-77.93"/>
<polygon fill="black" stroke="black" points="4131.8,-74.74 4121.36,-72.91 4128.38,-80.85 4131.8,-74.74"/>
</g>
<!-- n44 -->
<g id="node45" class="node">
<title>n44</title>
<ellipse fill="none" stroke="black" cx="4449.73" cy="-37.48" rx="185.94" ry="37.45"/>
<text text-anchor="middle" x="4449.73" y="-48.78" font-family="Times,serif" font-size="14.00">turístico</text>
<text text-anchor="middle" x="4449.73" y="-33.78" font-family="Times,serif" font-size="14.00">aq0ms0 (amod)</text>
<text text-anchor="middle" x="4449.73" y="-18.78" font-family="Times,serif" font-size="14.00">rep=no, t=no, r=no, m=yes, c=no</text>
</g>
<!-- n43&#45;&gt;n44 -->
<g id="edge44" class="edge">
<title>n43&#45;&gt;n44</title>
<path fill="none" stroke="black" d="M4316.43,-112.96C4336.35,-101.82 4358.59,-89.4 4379.11,-77.93"/>
<polygon fill="black" stroke="black" points="4381.07,-80.85 4388.09,-72.91 4377.66,-74.74 4381.07,-80.85"/>
</g>
</g>
</svg>
