<?xml version="1.0" encoding="UTF-8" standalone="no"?>
<!DOCTYPE svg PUBLIC "-//W3C//DTD SVG 1.1//EN"
 "http://www.w3.org/Graphics/SVG/1.1/DTD/svg11.dtd">
<!-- Generated by graphviz version 2.43.0 (0)
 -->
<!-- Title: tree Pages: 1 -->
<svg width="5172pt" height="527pt"
 viewBox="0.00 0.00 5171.84 526.77" xmlns="http://www.w3.org/2000/svg" xmlns:xlink="http://www.w3.org/1999/xlink">
<g id="graph0" class="graph" transform="scale(1 1) rotate(0) translate(4 522.77)">
<title>tree</title>
<polygon fill="white" stroke="transparent" points="-4,4 -4,-522.77 5167.84,-522.77 5167.84,4 -4,4"/>
<!-- n5 -->
<g id="node1" class="node">
<title>n5</title>
<ellipse fill="#98D2A5" stroke="black" cx="1390.92" cy="-481.29" rx="190.84" ry="37.45"/>
<text text-anchor="middle" x="1390.92" y="-492.59" font-family="Times,serif" font-size="14.00">dejan</text>
<text text-anchor="middle" x="1390.92" y="-477.59" font-family="Times,serif" font-size="14.00">vmip3p0 (root)</text>
<text text-anchor="middle" x="1390.92" y="-462.59" font-family="Times,serif" font-size="14.00">rep=no, t=no, r=yes, m=yes, c=no</text>
</g>
<!-- n1 -->
<g id="node2" class="node">
<title>n1</title>
<ellipse fill="none" stroke="black" cx="199.92" cy="-370.34" rx="181.95" ry="37.45"/>
<text text-anchor="middle" x="199.92" y="-381.64" font-family="Times,serif" font-size="14.00">Ultimamente</text>
<text text-anchor="middle" x="199.92" y="-366.64" font-family="Times,serif" font-size="14.00">rg (advmod)</text>
<text text-anchor="middle" x="199.92" y="-351.64" font-family="Times,serif" font-size="14.00">rep=no, t=no, r=no, m=no, c=no</text>
</g>
<!-- n5&#45;&gt;n1 -->
<g id="edge1" class="edge">
<title>n5&#45;&gt;n1</title>
<path fill="none" stroke="black" d="M1204.12,-473.25C1002.74,-464.15 673.1,-444.86 390.92,-407.81 372.9,-405.45 354.02,-402.47 335.43,-399.23"/>
<polygon fill="black" stroke="black" points="335.9,-395.76 325.44,-397.46 334.68,-402.65 335.9,-395.76"/>
</g>
<!-- n3 -->
<g id="node3" class="node">
<title>n3</title>
<ellipse fill="#98D2A5" stroke="black" cx="590.92" cy="-370.34" rx="190.84" ry="37.45"/>
<text text-anchor="middle" x="590.92" y="-381.64" font-family="Times,serif" font-size="14.00">ellos</text>
<text text-anchor="middle" x="590.92" y="-366.64" font-family="Times,serif" font-size="14.00">pp3mp000 (nsubj)</text>
<text text-anchor="middle" x="590.92" y="-351.64" font-family="Times,serif" font-size="14.00">rep=no, t=yes, r=no, m=yes, c=no</text>
</g>
<!-- n5&#45;&gt;n3 -->
<g id="edge2" class="edge">
<title>n5&#45;&gt;n3</title>
<path fill="none" stroke="black" d="M1224.38,-462.89C1103.76,-449.63 936.93,-429.93 790.92,-407.81 772.87,-405.08 753.96,-401.96 735.26,-398.73"/>
<polygon fill="black" stroke="black" points="735.66,-395.25 725.21,-396.98 734.46,-402.14 735.66,-395.25"/>
</g>
<!-- n4 -->
<g id="node4" class="node">
<title>n4</title>
<ellipse fill="#98D2A5" stroke="black" cx="990.92" cy="-370.34" rx="190.84" ry="37.45"/>
<text text-anchor="middle" x="990.92" y="-381.64" font-family="Times,serif" font-size="14.00">me</text>
<text text-anchor="middle" x="990.92" y="-366.64" font-family="Times,serif" font-size="14.00">pp1cs000 (iobj)</text>
<text text-anchor="middle" x="990.92" y="-351.64" font-family="Times,serif" font-size="14.00">rep=no, t=no, r=yes, m=yes, c=no</text>
</g>
<!-- n5&#45;&gt;n4 -->
<g id="edge3" class="edge">
<title>n5&#45;&gt;n4</title>
<path fill="none" stroke="black" d="M1281.62,-450.52C1228.48,-436.04 1164.51,-418.62 1110.12,-403.81"/>
<polygon fill="black" stroke="black" points="1111,-400.42 1100.44,-401.17 1109.16,-407.17 1111,-400.42"/>
</g>
<!-- n6 -->
<g id="node5" class="node">
<title>n6</title>
<ellipse fill="#98D2A5" stroke="black" cx="1390.92" cy="-370.34" rx="190.84" ry="37.45"/>
<text text-anchor="middle" x="1390.92" y="-381.64" font-family="Times,serif" font-size="14.00">mensajes</text>
<text text-anchor="middle" x="1390.92" y="-366.64" font-family="Times,serif" font-size="14.00">ncmp000 (dobj)</text>
<text text-anchor="middle" x="1390.92" y="-351.64" font-family="Times,serif" font-size="14.00">rep=no, t=no, r=yes, m=yes, c=no</text>
</g>
<!-- n5&#45;&gt;n6 -->
<g id="edge4" class="edge">
<title>n5&#45;&gt;n6</title>
<path fill="none" stroke="black" d="M1390.92,-443.71C1390.92,-435.53 1390.92,-426.75 1390.92,-418.23"/>
<polygon fill="black" stroke="black" points="1394.42,-418.01 1390.92,-408.01 1387.42,-418.01 1394.42,-418.01"/>
</g>
<!-- n7 -->
<g id="node6" class="node">
<title>n7</title>
<ellipse fill="none" stroke="black" cx="1781.92" cy="-370.34" rx="181.95" ry="37.45"/>
<text text-anchor="middle" x="1781.92" y="-381.64" font-family="Times,serif" font-size="14.00">en</text>
<text text-anchor="middle" x="1781.92" y="-366.64" font-family="Times,serif" font-size="14.00">sps00 (prepv)</text>
<text text-anchor="middle" x="1781.92" y="-351.64" font-family="Times,serif" font-size="14.00">rep=no, t=no, r=no, m=no, c=no</text>
</g>
<!-- n5&#45;&gt;n7 -->
<g id="edge5" class="edge">
<title>n5&#45;&gt;n7</title>
<path fill="none" stroke="black" d="M1498.54,-450.3C1550.57,-435.8 1613.09,-418.38 1666.16,-403.59"/>
<polygon fill="black" stroke="black" points="1667.26,-406.92 1675.95,-400.87 1665.38,-400.18 1667.26,-406.92"/>
</g>
<!-- n27 -->
<g id="node7" class="node">
<title>n27</title>
<ellipse fill="#98D2A5" stroke="black" cx="2572.92" cy="-370.34" rx="190.84" ry="37.45"/>
<text text-anchor="middle" x="2572.92" y="-381.64" font-family="Times,serif" font-size="14.00">tenemos</text>
<text text-anchor="middle" x="2572.92" y="-366.64" font-family="Times,serif" font-size="14.00">vmip1p0 (cobj)</text>
<text text-anchor="middle" x="2572.92" y="-351.64" font-family="Times,serif" font-size="14.00">rep=no, t=no, r=yes, m=yes, c=no</text>
</g>
<!-- n5&#45;&gt;n27 -->
<g id="edge6" class="edge">
<title>n5&#45;&gt;n27</title>
<path fill="none" stroke="black" d="M1561.84,-464.53C1782.89,-444.16 2166.21,-408.83 2392.01,-388.01"/>
<polygon fill="black" stroke="black" points="2392.34,-391.5 2401.98,-387.09 2391.7,-384.53 2392.34,-391.5"/>
</g>
<!-- n30 -->
<g id="node8" class="node">
<title>n30</title>
<ellipse fill="none" stroke="black" cx="2963.92" cy="-370.34" rx="181.95" ry="37.45"/>
<text text-anchor="middle" x="2963.92" y="-381.64" font-family="Times,serif" font-size="14.00">&#39;</text>
<text text-anchor="middle" x="2963.92" y="-366.64" font-family="Times,serif" font-size="14.00">fz (punct)</text>
<text text-anchor="middle" x="2963.92" y="-351.64" font-family="Times,serif" font-size="14.00">rep=no, t=no, r=no, m=no, c=no</text>
</g>
<!-- n5&#45;&gt;n30 -->
<g id="edge7" class="edge">
<title>n5&#45;&gt;n30</title>
<path fill="none" stroke="black" d="M1581.36,-478.5C1848.53,-474.12 2349.4,-459.12 2772.92,-407.81 2791.17,-405.6 2810.3,-402.68 2829.11,-399.45"/>
<polygon fill="black" stroke="black" points="2829.97,-402.86 2839.21,-397.68 2828.76,-395.96 2829.97,-402.86"/>
</g>
<!-- n2 -->
<g id="node9" class="node">
<title>n2</title>
<ellipse fill="#98D2A5" stroke="black" cx="190.92" cy="-259.38" rx="190.84" ry="37.45"/>
<text text-anchor="middle" x="190.92" y="-270.68" font-family="Times,serif" font-size="14.00">todos</text>
<text text-anchor="middle" x="190.92" y="-255.68" font-family="Times,serif" font-size="14.00">di0mp0 (det)</text>
<text text-anchor="middle" x="190.92" y="-240.68" font-family="Times,serif" font-size="14.00">rep=no, t=yes, r=no, m=yes, c=no</text>
</g>
<!-- n3&#45;&gt;n2 -->
<g id="edge8" class="edge">
<title>n3&#45;&gt;n2</title>
<path fill="none" stroke="black" d="M481.62,-339.56C428.48,-325.09 364.51,-307.67 310.12,-292.85"/>
<polygon fill="black" stroke="black" points="311,-289.46 300.44,-290.21 309.16,-296.22 311,-289.46"/>
</g>
<!-- n9 -->
<g id="node10" class="node">
<title>n9</title>
<ellipse fill="none" stroke="black" cx="581.92" cy="-259.38" rx="181.95" ry="37.45"/>
<text text-anchor="middle" x="581.92" y="-270.68" font-family="Times,serif" font-size="14.00">contestador</text>
<text text-anchor="middle" x="581.92" y="-255.68" font-family="Times,serif" font-size="14.00">ncms000 (pobj)</text>
<text text-anchor="middle" x="581.92" y="-240.68" font-family="Times,serif" font-size="14.00">rep=no, t=no, r=no, m=no, c=no</text>
</g>
<!-- n7&#45;&gt;n9 -->
<g id="edge9" class="edge">
<title>n7&#45;&gt;n9</title>
<path fill="none" stroke="black" d="M1657.75,-342.93C1635.58,-338.98 1612.63,-335.4 1590.92,-332.86 1229.47,-290.62 1134.37,-339.1 772.92,-296.86 754.43,-294.7 735.05,-291.78 716.01,-288.52"/>
<polygon fill="black" stroke="black" points="716.54,-285.06 706.09,-286.79 715.34,-291.96 716.54,-285.06"/>
</g>
<!-- n10 -->
<g id="node12" class="node">
<title>n10</title>
<ellipse fill="#98D2A5" stroke="black" cx="972.92" cy="-259.38" rx="190.84" ry="37.45"/>
<text text-anchor="middle" x="972.92" y="-270.68" font-family="Times,serif" font-size="14.00">:</text>
<text text-anchor="middle" x="972.92" y="-255.68" font-family="Times,serif" font-size="14.00">fd (punct)</text>
<text text-anchor="middle" x="972.92" y="-240.68" font-family="Times,serif" font-size="14.00">rep=no, t=no, r=yes, m=yes, c=no</text>
</g>
<!-- n27&#45;&gt;n10 -->
<g id="edge11" class="edge">
<title>n27&#45;&gt;n10</title>
<path fill="none" stroke="black" d="M2393.12,-357.66C2273.95,-350.11 2114.13,-340.33 1972.92,-332.86 1617.5,-314.06 1526.58,-336.88 1172.92,-296.86 1153.57,-294.67 1133.27,-291.73 1113.32,-288.46"/>
<polygon fill="black" stroke="black" points="1113.69,-284.98 1103.25,-286.78 1112.54,-291.88 1113.69,-284.98"/>
</g>
<!-- n11 -->
<g id="node13" class="node">
<title>n11</title>
<ellipse fill="#98D2A5" stroke="black" cx="1372.92" cy="-259.38" rx="190.84" ry="37.45"/>
<text text-anchor="middle" x="1372.92" y="-270.68" font-family="Times,serif" font-size="14.00">&#39;</text>
<text text-anchor="middle" x="1372.92" y="-255.68" font-family="Times,serif" font-size="14.00">fz (punct)</text>
<text text-anchor="middle" x="1372.92" y="-240.68" font-family="Times,serif" font-size="14.00">rep=no, t=no, r=yes, m=yes, c=no</text>
</g>
<!-- n27&#45;&gt;n11 -->
<g id="edge12" class="edge">
<title>n27&#45;&gt;n11</title>
<path fill="none" stroke="black" d="M2391.47,-358.55C2147.36,-343.62 1726.12,-316.32 1572.92,-296.86 1554.13,-294.47 1534.44,-291.49 1515.04,-288.25"/>
<polygon fill="black" stroke="black" points="1515.37,-284.76 1504.93,-286.54 1514.21,-291.66 1515.37,-284.76"/>
</g>
<!-- n12 -->
<g id="node14" class="node">
<title>n12</title>
<ellipse fill="#98D2A5" stroke="black" cx="1772.92" cy="-259.38" rx="190.84" ry="37.45"/>
<text text-anchor="middle" x="1772.92" y="-270.68" font-family="Times,serif" font-size="14.00">¡</text>
<text text-anchor="middle" x="1772.92" y="-255.68" font-family="Times,serif" font-size="14.00">faa (punct)</text>
<text text-anchor="middle" x="1772.92" y="-240.68" font-family="Times,serif" font-size="14.00">rep=no, t=no, r=yes, m=yes, c=no</text>
</g>
<!-- n27&#45;&gt;n12 -->
<g id="edge13" class="edge">
<title>n27&#45;&gt;n12</title>
<path fill="none" stroke="black" d="M2406.38,-351.94C2285.76,-338.68 2118.93,-318.97 1972.92,-296.86 1954.87,-294.13 1935.96,-291.01 1917.26,-287.78"/>
<polygon fill="black" stroke="black" points="1917.66,-284.29 1907.21,-286.02 1916.46,-291.19 1917.66,-284.29"/>
</g>
<!-- n13 -->
<g id="node15" class="node">
<title>n13</title>
<ellipse fill="#98D2A5" stroke="black" cx="2172.92" cy="-259.38" rx="190.84" ry="37.45"/>
<text text-anchor="middle" x="2172.92" y="-270.68" font-family="Times,serif" font-size="14.00">Hey</text>
<text text-anchor="middle" x="2172.92" y="-255.68" font-family="Times,serif" font-size="14.00">ncms000 (dobj)</text>
<text text-anchor="middle" x="2172.92" y="-240.68" font-family="Times,serif" font-size="14.00">rep=no, t=no, r=yes, m=yes, c=no</text>
</g>
<!-- n27&#45;&gt;n13 -->
<g id="edge14" class="edge">
<title>n27&#45;&gt;n13</title>
<path fill="none" stroke="black" d="M2463.62,-339.56C2410.48,-325.09 2346.51,-307.67 2292.12,-292.85"/>
<polygon fill="black" stroke="black" points="2293,-289.46 2282.44,-290.21 2291.16,-296.22 2293,-289.46"/>
</g>
<!-- n15 -->
<g id="node16" class="node">
<title>n15</title>
<ellipse fill="#98D2A5" stroke="black" cx="2572.92" cy="-259.38" rx="190.84" ry="37.45"/>
<text text-anchor="middle" x="2572.92" y="-270.68" font-family="Times,serif" font-size="14.00">Bill</text>
<text text-anchor="middle" x="2572.92" y="-255.68" font-family="Times,serif" font-size="14.00">ncms000 (dobj)</text>
<text text-anchor="middle" x="2572.92" y="-240.68" font-family="Times,serif" font-size="14.00">rep=no, t=no, r=yes, m=yes, c=no</text>
</g>
<!-- n27&#45;&gt;n15 -->
<g id="edge15" class="edge">
<title>n27&#45;&gt;n15</title>
<path fill="none" stroke="black" d="M2572.92,-332.75C2572.92,-324.58 2572.92,-315.8 2572.92,-307.27"/>
<polygon fill="black" stroke="black" points="2576.42,-307.06 2572.92,-297.06 2569.42,-307.06 2576.42,-307.06"/>
</g>
<!-- n16 -->
<g id="node17" class="node">
<title>n16</title>
<ellipse fill="#98D2A5" stroke="black" cx="2972.92" cy="-259.38" rx="190.84" ry="37.45"/>
<text text-anchor="middle" x="2972.92" y="-270.68" font-family="Times,serif" font-size="14.00">,</text>
<text text-anchor="middle" x="2972.92" y="-255.68" font-family="Times,serif" font-size="14.00">fc (punct)</text>
<text text-anchor="middle" x="2972.92" y="-240.68" font-family="Times,serif" font-size="14.00">rep=no, t=no, r=yes, m=yes, c=no</text>
</g>
<!-- n27&#45;&gt;n16 -->
<g id="edge16" class="edge">
<title>n27&#45;&gt;n16</title>
<path fill="none" stroke="black" d="M2682.22,-339.56C2735.36,-325.09 2799.33,-307.67 2853.71,-292.85"/>
<polygon fill="black" stroke="black" points="2854.67,-296.22 2863.4,-290.21 2852.83,-289.46 2854.67,-296.22"/>
</g>
<!-- n17 -->
<g id="node18" class="node">
<title>n17</title>
<ellipse fill="#98D2A5" stroke="black" cx="3372.92" cy="-259.38" rx="190.84" ry="37.45"/>
<text text-anchor="middle" x="3372.92" y="-270.68" font-family="Times,serif" font-size="14.00">si</text>
<text text-anchor="middle" x="3372.92" y="-255.68" font-family="Times,serif" font-size="14.00">cs (advcl)</text>
<text text-anchor="middle" x="3372.92" y="-240.68" font-family="Times,serif" font-size="14.00">rep=no, t=no, r=yes, m=yes, c=no</text>
</g>
<!-- n27&#45;&gt;n17 -->
<g id="edge17" class="edge">
<title>n27&#45;&gt;n17</title>
<path fill="none" stroke="black" d="M2705.78,-343.37C2728.14,-339.5 2751.15,-335.82 2772.92,-332.86 2949.79,-308.82 2996.05,-320.9 3172.92,-296.86 3191.46,-294.34 3210.9,-291.3 3230.06,-288.06"/>
<polygon fill="black" stroke="black" points="3230.79,-291.49 3240.06,-286.35 3229.61,-284.59 3230.79,-291.49"/>
</g>
<!-- n22 -->
<g id="node19" class="node">
<title>n22</title>
<ellipse fill="#98D2A5" stroke="black" cx="3772.92" cy="-259.38" rx="190.84" ry="37.45"/>
<text text-anchor="middle" x="3772.92" y="-270.68" font-family="Times,serif" font-size="14.00">,</text>
<text text-anchor="middle" x="3772.92" y="-255.68" font-family="Times,serif" font-size="14.00">fc (punct)</text>
<text text-anchor="middle" x="3772.92" y="-240.68" font-family="Times,serif" font-size="14.00">rep=no, t=no, r=yes, m=yes, c=no</text>
</g>
<!-- n27&#45;&gt;n22 -->
<g id="edge18" class="edge">
<title>n27&#45;&gt;n22</title>
<path fill="none" stroke="black" d="M2703.25,-342.94C2726.38,-339.01 2750.3,-335.42 2772.92,-332.86 3126.58,-292.84 3219.26,-336.88 3572.92,-296.86 3592.27,-294.67 3612.57,-291.73 3632.51,-288.46"/>
<polygon fill="black" stroke="black" points="3633.3,-291.88 3642.58,-286.78 3632.14,-284.98 3633.3,-291.88"/>
</g>
<!-- n24 -->
<g id="node20" class="node">
<title>n24</title>
<ellipse fill="#98D2A5" stroke="black" cx="4172.92" cy="-259.38" rx="190.84" ry="37.45"/>
<text text-anchor="middle" x="4172.92" y="-270.68" font-family="Times,serif" font-size="14.00">año</text>
<text text-anchor="middle" x="4172.92" y="-255.68" font-family="Times,serif" font-size="14.00">ncms000 (tmod)</text>
<text text-anchor="middle" x="4172.92" y="-240.68" font-family="Times,serif" font-size="14.00">rep=no, t=no, r=yes, m=yes, c=no</text>
</g>
<!-- n27&#45;&gt;n24 -->
<g id="edge19" class="edge">
<title>n27&#45;&gt;n24</title>
<path fill="none" stroke="black" d="M2702.42,-342.79C2725.8,-338.83 2750.02,-335.28 2772.92,-332.86 3303.54,-276.83 3442.3,-352.89 3972.92,-296.86 3992.6,-294.78 4013.26,-291.86 4033.51,-288.57"/>
<polygon fill="black" stroke="black" points="4034.13,-292.02 4043.42,-286.93 4032.98,-285.11 4034.13,-292.02"/>
</g>
<!-- n28 -->
<g id="node21" class="node">
<title>n28</title>
<ellipse fill="#98D2A5" stroke="black" cx="4572.92" cy="-259.38" rx="190.84" ry="37.45"/>
<text text-anchor="middle" x="4572.92" y="-270.68" font-family="Times,serif" font-size="14.00">gira</text>
<text text-anchor="middle" x="4572.92" y="-255.68" font-family="Times,serif" font-size="14.00">ncfs000 (dobj)</text>
<text text-anchor="middle" x="4572.92" y="-240.68" font-family="Times,serif" font-size="14.00">rep=no, t=no, r=yes, m=yes, c=no</text>
</g>
<!-- n27&#45;&gt;n28 -->
<g id="edge20" class="edge">
<title>n27&#45;&gt;n28</title>
<path fill="none" stroke="black" d="M2702.13,-342.69C2725.6,-338.73 2749.92,-335.2 2772.92,-332.86 3480.55,-260.82 3665.28,-368.9 4372.92,-296.86 4392.68,-294.85 4413.43,-291.96 4433.76,-288.67"/>
<polygon fill="black" stroke="black" points="4434.41,-292.11 4443.7,-287.03 4433.27,-285.21 4434.41,-292.11"/>
</g>
<!-- n29 -->
<g id="node22" class="node">
<title>n29</title>
<ellipse fill="#98D2A5" stroke="black" cx="4972.92" cy="-259.38" rx="190.84" ry="37.45"/>
<text text-anchor="middle" x="4972.92" y="-270.68" font-family="Times,serif" font-size="14.00">!</text>
<text text-anchor="middle" x="4972.92" y="-255.68" font-family="Times,serif" font-size="14.00">fat (punct)</text>
<text text-anchor="middle" x="4972.92" y="-240.68" font-family="Times,serif" font-size="14.00">rep=no, t=no, r=yes, m=yes, c=no</text>
</g>
<!-- n27&#45;&gt;n29 -->
<g id="edge21" class="edge">
<title>n27&#45;&gt;n29</title>
<path fill="none" stroke="black" d="M2701.86,-342.65C2725.4,-338.68 2749.83,-335.16 2772.92,-332.86 3657.58,-244.81 3888.26,-384.91 4772.92,-296.86 4792.76,-294.88 4813.59,-292 4834,-288.72"/>
<polygon fill="black" stroke="black" points="4834.68,-292.15 4843.98,-287.07 4833.55,-285.24 4834.68,-292.15"/>
</g>
<!-- n8 -->
<g id="node11" class="node">
<title>n8</title>
<ellipse fill="none" stroke="black" cx="581.92" cy="-148.43" rx="181.95" ry="37.45"/>
<text text-anchor="middle" x="581.92" y="-159.73" font-family="Times,serif" font-size="14.00">el</text>
<text text-anchor="middle" x="581.92" y="-144.73" font-family="Times,serif" font-size="14.00">da0ms0 (det)</text>
<text text-anchor="middle" x="581.92" y="-129.73" font-family="Times,serif" font-size="14.00">rep=no, t=no, r=no, m=no, c=no</text>
</g>
<!-- n9&#45;&gt;n8 -->
<g id="edge10" class="edge">
<title>n9&#45;&gt;n8</title>
<path fill="none" stroke="black" d="M581.92,-221.8C581.92,-213.63 581.92,-204.85 581.92,-196.32"/>
<polygon fill="black" stroke="black" points="585.42,-196.1 581.92,-186.1 578.42,-196.1 585.42,-196.1"/>
</g>
<!-- n14 -->
<g id="node23" class="node">
<title>n14</title>
<ellipse fill="#98D2A5" stroke="black" cx="2572.92" cy="-148.43" rx="190.84" ry="37.45"/>
<text text-anchor="middle" x="2572.92" y="-159.73" font-family="Times,serif" font-size="14.00">,</text>
<text text-anchor="middle" x="2572.92" y="-144.73" font-family="Times,serif" font-size="14.00">fc (punct)</text>
<text text-anchor="middle" x="2572.92" y="-129.73" font-family="Times,serif" font-size="14.00">rep=no, t=no, r=yes, m=yes, c=no</text>
</g>
<!-- n15&#45;&gt;n14 -->
<g id="edge22" class="edge">
<title>n15&#45;&gt;n14</title>
<path fill="none" stroke="black" d="M2572.92,-221.8C2572.92,-213.63 2572.92,-204.85 2572.92,-196.32"/>
<polygon fill="black" stroke="black" points="2576.42,-196.1 2572.92,-186.1 2569.42,-196.1 2576.42,-196.1"/>
</g>
<!-- n19 -->
<g id="node24" class="node">
<title>n19</title>
<ellipse fill="#98D2A5" stroke="black" cx="3372.92" cy="-148.43" rx="190.84" ry="37.45"/>
<text text-anchor="middle" x="3372.92" y="-159.73" font-family="Times,serif" font-size="14.00">hace</text>
<text text-anchor="middle" x="3372.92" y="-144.73" font-family="Times,serif" font-size="14.00">vmip3s0 (cobj)</text>
<text text-anchor="middle" x="3372.92" y="-129.73" font-family="Times,serif" font-size="14.00">rep=no, t=no, r=yes, m=yes, c=no</text>
</g>
<!-- n17&#45;&gt;n19 -->
<g id="edge23" class="edge">
<title>n17&#45;&gt;n19</title>
<path fill="none" stroke="black" d="M3372.92,-221.8C3372.92,-213.63 3372.92,-204.85 3372.92,-196.32"/>
<polygon fill="black" stroke="black" points="3376.42,-196.1 3372.92,-186.1 3369.42,-196.1 3376.42,-196.1"/>
</g>
<!-- n23 -->
<g id="node28" class="node">
<title>n23</title>
<ellipse fill="#98D2A5" stroke="black" cx="3974.92" cy="-148.43" rx="190.84" ry="37.45"/>
<text text-anchor="middle" x="3974.92" y="-159.73" font-family="Times,serif" font-size="14.00">el</text>
<text text-anchor="middle" x="3974.92" y="-144.73" font-family="Times,serif" font-size="14.00">da0ms0 (det)</text>
<text text-anchor="middle" x="3974.92" y="-129.73" font-family="Times,serif" font-size="14.00">rep=no, t=no, r=yes, m=yes, c=no</text>
</g>
<!-- n24&#45;&gt;n23 -->
<g id="edge27" class="edge">
<title>n24&#45;&gt;n23</title>
<path fill="none" stroke="black" d="M4110.27,-223.91C4089.95,-212.73 4067.25,-200.24 4046.34,-188.73"/>
<polygon fill="black" stroke="black" points="4047.95,-185.62 4037.5,-183.87 4044.57,-191.75 4047.95,-185.62"/>
</g>
<!-- n26 -->
<g id="node29" class="node">
<title>n26</title>
<ellipse fill="#98D2A5" stroke="black" cx="4369.92" cy="-148.43" rx="185.94" ry="37.45"/>
<text text-anchor="middle" x="4369.92" y="-159.73" font-family="Times,serif" font-size="14.00">viene</text>
<text text-anchor="middle" x="4369.92" y="-144.73" font-family="Times,serif" font-size="14.00">vmip3s0 (rcmod)</text>
<text text-anchor="middle" x="4369.92" y="-129.73" font-family="Times,serif" font-size="14.00">rep=no, t=no, r=no, m=yes, c=no</text>
</g>
<!-- n24&#45;&gt;n26 -->
<g id="edge28" class="edge">
<title>n24&#45;&gt;n26</title>
<path fill="none" stroke="black" d="M4235.25,-223.91C4255.47,-212.73 4278.05,-200.24 4298.86,-188.73"/>
<polygon fill="black" stroke="black" points="4300.6,-191.77 4307.65,-183.87 4297.21,-185.64 4300.6,-191.77"/>
</g>
<!-- n18 -->
<g id="node25" class="node">
<title>n18</title>
<ellipse fill="#98D2A5" stroke="black" cx="2972.92" cy="-37.48" rx="190.84" ry="37.45"/>
<text text-anchor="middle" x="2972.92" y="-48.78" font-family="Times,serif" font-size="14.00">te</text>
<text text-anchor="middle" x="2972.92" y="-33.78" font-family="Times,serif" font-size="14.00">pp2cs000 (iobj)</text>
<text text-anchor="middle" x="2972.92" y="-18.78" font-family="Times,serif" font-size="14.00">rep=no, t=no, r=yes, m=yes, c=no</text>
</g>
<!-- n19&#45;&gt;n18 -->
<g id="edge24" class="edge">
<title>n19&#45;&gt;n18</title>
<path fill="none" stroke="black" d="M3263.62,-117.66C3210.48,-103.19 3146.51,-85.76 3092.12,-70.95"/>
<polygon fill="black" stroke="black" points="3093,-67.56 3082.44,-68.31 3091.16,-74.31 3093,-67.56"/>
</g>
<!-- n20 -->
<g id="node26" class="node">
<title>n20</title>
<ellipse fill="#98D2A5" stroke="black" cx="3372.92" cy="-37.48" rx="190.84" ry="37.45"/>
<text text-anchor="middle" x="3372.92" y="-48.78" font-family="Times,serif" font-size="14.00">falta</text>
<text text-anchor="middle" x="3372.92" y="-33.78" font-family="Times,serif" font-size="14.00">vmn0000 (dobj)</text>
<text text-anchor="middle" x="3372.92" y="-18.78" font-family="Times,serif" font-size="14.00">rep=no, t=no, r=yes, m=yes, c=no</text>
</g>
<!-- n19&#45;&gt;n20 -->
<g id="edge25" class="edge">
<title>n19&#45;&gt;n20</title>
<path fill="none" stroke="black" d="M3372.92,-110.85C3372.92,-102.67 3372.92,-93.89 3372.92,-85.37"/>
<polygon fill="black" stroke="black" points="3376.42,-85.15 3372.92,-75.15 3369.42,-85.15 3376.42,-85.15"/>
</g>
<!-- n21 -->
<g id="node27" class="node">
<title>n21</title>
<ellipse fill="#98D2A5" stroke="black" cx="3772.92" cy="-37.48" rx="190.84" ry="37.45"/>
<text text-anchor="middle" x="3772.92" y="-48.78" font-family="Times,serif" font-size="14.00">trabajo</text>
<text text-anchor="middle" x="3772.92" y="-33.78" font-family="Times,serif" font-size="14.00">ncms000 (nsubj)</text>
<text text-anchor="middle" x="3772.92" y="-18.78" font-family="Times,serif" font-size="14.00">rep=no, t=no, r=yes, m=yes, c=no</text>
</g>
<!-- n19&#45;&gt;n21 -->
<g id="edge26" class="edge">
<title>n19&#45;&gt;n21</title>
<path fill="none" stroke="black" d="M3482.22,-117.66C3535.36,-103.19 3599.33,-85.76 3653.71,-70.95"/>
<polygon fill="black" stroke="black" points="3654.67,-74.31 3663.4,-68.31 3652.83,-67.56 3654.67,-74.31"/>
</g>
<!-- n25 -->
<g id="node30" class="node">
<title>n25</title>
<ellipse fill="#98D2A5" stroke="black" cx="4369.92" cy="-37.48" rx="185.94" ry="37.45"/>
<text text-anchor="middle" x="4369.92" y="-48.78" font-family="Times,serif" font-size="14.00">que</text>
<text text-anchor="middle" x="4369.92" y="-33.78" font-family="Times,serif" font-size="14.00">pr0cn000 (nsubj)</text>
<text text-anchor="middle" x="4369.92" y="-18.78" font-family="Times,serif" font-size="14.00">rep=no, t=no, r=no, m=yes, c=no</text>
</g>
<!-- n26&#45;&gt;n25 -->
<g id="edge29" class="edge">
<title>n26&#45;&gt;n25</title>
<path fill="none" stroke="black" d="M4369.92,-110.85C4369.92,-102.67 4369.92,-93.89 4369.92,-85.37"/>
<polygon fill="black" stroke="black" points="4373.42,-85.15 4369.92,-75.15 4366.42,-85.15 4373.42,-85.15"/>
</g>
</g>
</svg>
