<?xml version="1.0" encoding="UTF-8" standalone="no"?>
<!DOCTYPE svg PUBLIC "-//W3C//DTD SVG 1.1//EN"
 "http://www.w3.org/Graphics/SVG/1.1/DTD/svg11.dtd">
<!-- Generated by graphviz version 2.43.0 (0)
 -->
<!-- Title: tree Pages: 1 -->
<svg width="2314pt" height="527pt"
 viewBox="0.00 0.00 2313.70 526.77" xmlns="http://www.w3.org/2000/svg" xmlns:xlink="http://www.w3.org/1999/xlink">
<g id="graph0" class="graph" transform="scale(1 1) rotate(0) translate(4 522.77)">
<title>tree</title>
<polygon fill="white" stroke="transparent" points="-4,4 -4,-522.77 2309.7,-522.77 2309.7,4 -4,4"/>
<!-- n5 -->
<g id="node1" class="node">
<title>n5</title>
<ellipse fill="#98D2A5" stroke="black" cx="1152.97" cy="-481.29" rx="185.94" ry="37.45"/>
<text text-anchor="middle" x="1152.97" y="-492.59" font-family="Times,serif" font-size="14.00">tardamos</text>
<text text-anchor="middle" x="1152.97" y="-477.59" font-family="Times,serif" font-size="14.00">vmip1p0 (root)</text>
<text text-anchor="middle" x="1152.97" y="-462.59" font-family="Times,serif" font-size="14.00">rep=no, t=no, r=no, m=yes, c=no</text>
</g>
<!-- n1 -->
<g id="node2" class="node">
<title>n1</title>
<ellipse fill="#98D2A5" stroke="black" cx="185.97" cy="-370.34" rx="185.94" ry="37.45"/>
<text text-anchor="middle" x="185.97" y="-381.64" font-family="Times,serif" font-size="14.00">Y</text>
<text text-anchor="middle" x="185.97" y="-366.64" font-family="Times,serif" font-size="14.00">cc (coord_fixed)</text>
<text text-anchor="middle" x="185.97" y="-351.64" font-family="Times,serif" font-size="14.00">rep=no, t=no, r=no, m=yes, c=no</text>
</g>
<!-- n5&#45;&gt;n1 -->
<g id="edge1" class="edge">
<title>n5&#45;&gt;n1</title>
<path fill="none" stroke="black" d="M978.06,-468.45C821.24,-456.74 585.11,-436.43 380.97,-407.81 362.97,-405.29 344.11,-402.26 325.5,-399.03"/>
<polygon fill="black" stroke="black" points="325.96,-395.56 315.5,-397.28 324.74,-402.45 325.96,-395.56"/>
</g>
<!-- n2 -->
<g id="node3" class="node">
<title>n2</title>
<ellipse fill="none" stroke="black" cx="571.97" cy="-370.34" rx="181.95" ry="37.45"/>
<text text-anchor="middle" x="571.97" y="-381.64" font-family="Times,serif" font-size="14.00">desde</text>
<text text-anchor="middle" x="571.97" y="-366.64" font-family="Times,serif" font-size="14.00">sps00 (advmod)</text>
<text text-anchor="middle" x="571.97" y="-351.64" font-family="Times,serif" font-size="14.00">rep=no, t=no, r=no, m=no, c=no</text>
</g>
<!-- n5&#45;&gt;n2 -->
<g id="edge2" class="edge">
<title>n5&#45;&gt;n2</title>
<path fill="none" stroke="black" d="M1018.02,-455.38C942.91,-441.48 847.73,-423.78 762.97,-407.81 746.68,-404.74 729.61,-401.51 712.65,-398.29"/>
<polygon fill="black" stroke="black" points="713.17,-394.82 702.69,-396.39 711.86,-401.7 713.17,-394.82"/>
</g>
<!-- n4 -->
<g id="node4" class="node">
<title>n4</title>
<ellipse fill="#98D2A5" stroke="black" cx="957.97" cy="-370.34" rx="185.94" ry="37.45"/>
<text text-anchor="middle" x="957.97" y="-381.64" font-family="Times,serif" font-size="14.00">no</text>
<text text-anchor="middle" x="957.97" y="-366.64" font-family="Times,serif" font-size="14.00">rn (neg)</text>
<text text-anchor="middle" x="957.97" y="-351.64" font-family="Times,serif" font-size="14.00">rep=no, t=no, r=no, m=yes, c=no</text>
</g>
<!-- n5&#45;&gt;n4 -->
<g id="edge3" class="edge">
<title>n5&#45;&gt;n4</title>
<path fill="none" stroke="black" d="M1091.27,-445.82C1071.34,-434.68 1049.1,-422.26 1028.58,-410.79"/>
<polygon fill="black" stroke="black" points="1030.04,-407.59 1019.6,-405.77 1026.62,-413.71 1030.04,-407.59"/>
</g>
<!-- n7 -->
<g id="node5" class="node">
<title>n7</title>
<ellipse fill="#98D2A5" stroke="black" cx="1347.97" cy="-370.34" rx="185.94" ry="37.45"/>
<text text-anchor="middle" x="1347.97" y="-381.64" font-family="Times,serif" font-size="14.00">años</text>
<text text-anchor="middle" x="1347.97" y="-366.64" font-family="Times,serif" font-size="14.00">ncmp000 (dobj)</text>
<text text-anchor="middle" x="1347.97" y="-351.64" font-family="Times,serif" font-size="14.00">rep=no, t=no, r=no, m=yes, c=no</text>
</g>
<!-- n5&#45;&gt;n7 -->
<g id="edge4" class="edge">
<title>n5&#45;&gt;n7</title>
<path fill="none" stroke="black" d="M1214.67,-445.82C1234.59,-434.68 1256.84,-422.26 1277.35,-410.79"/>
<polygon fill="black" stroke="black" points="1279.31,-413.71 1286.34,-405.77 1275.9,-407.59 1279.31,-413.71"/>
</g>
<!-- n8 -->
<g id="node6" class="node">
<title>n8</title>
<ellipse fill="#98D2A5" stroke="black" cx="1737.97" cy="-370.34" rx="185.94" ry="37.45"/>
<text text-anchor="middle" x="1737.97" y="-381.64" font-family="Times,serif" font-size="14.00">en</text>
<text text-anchor="middle" x="1737.97" y="-366.64" font-family="Times,serif" font-size="14.00">sps00 (oobj)</text>
<text text-anchor="middle" x="1737.97" y="-351.64" font-family="Times,serif" font-size="14.00">rep=no, t=no, r=no, m=yes, c=no</text>
</g>
<!-- n5&#45;&gt;n8 -->
<g id="edge5" class="edge">
<title>n5&#45;&gt;n8</title>
<path fill="none" stroke="black" d="M1287.44,-455.34C1362.62,-441.38 1458,-423.65 1542.97,-407.81 1559.46,-404.74 1576.73,-401.52 1593.88,-398.31"/>
<polygon fill="black" stroke="black" points="1594.78,-401.7 1603.97,-396.42 1593.49,-394.82 1594.78,-401.7"/>
</g>
<!-- n12 -->
<g id="node7" class="node">
<title>n12</title>
<ellipse fill="none" stroke="black" cx="2123.97" cy="-370.34" rx="181.95" ry="37.45"/>
<text text-anchor="middle" x="2123.97" y="-381.64" font-family="Times,serif" font-size="14.00">.</text>
<text text-anchor="middle" x="2123.97" y="-366.64" font-family="Times,serif" font-size="14.00">fp (punct)</text>
<text text-anchor="middle" x="2123.97" y="-351.64" font-family="Times,serif" font-size="14.00">rep=no, t=no, r=no, m=no, c=no</text>
</g>
<!-- n5&#45;&gt;n12 -->
<g id="edge6" class="edge">
<title>n5&#45;&gt;n12</title>
<path fill="none" stroke="black" d="M1328.56,-468.82C1487.01,-457.31 1726.27,-437.08 1932.97,-407.81 1950.6,-405.32 1969.07,-402.3 1987.28,-399.09"/>
<polygon fill="black" stroke="black" points="1988.14,-402.49 1997.37,-397.28 1986.91,-395.6 1988.14,-402.49"/>
</g>
<!-- n3 -->
<g id="node8" class="node">
<title>n3</title>
<ellipse fill="none" stroke="black" cx="571.97" cy="-259.38" rx="181.95" ry="37.45"/>
<text text-anchor="middle" x="571.97" y="-270.68" font-family="Times,serif" font-size="14.00">luego</text>
<text text-anchor="middle" x="571.97" y="-255.68" font-family="Times,serif" font-size="14.00">rg (advmod)</text>
<text text-anchor="middle" x="571.97" y="-240.68" font-family="Times,serif" font-size="14.00">rep=no, t=no, r=no, m=no, c=no</text>
</g>
<!-- n2&#45;&gt;n3 -->
<g id="edge7" class="edge">
<title>n2&#45;&gt;n3</title>
<path fill="none" stroke="black" d="M571.97,-332.75C571.97,-324.58 571.97,-315.8 571.97,-307.27"/>
<polygon fill="black" stroke="black" points="575.47,-307.06 571.97,-297.06 568.47,-307.06 575.47,-307.06"/>
</g>
<!-- n6 -->
<g id="node9" class="node">
<title>n6</title>
<ellipse fill="#98D2A5" stroke="black" cx="1347.97" cy="-259.38" rx="185.94" ry="37.45"/>
<text text-anchor="middle" x="1347.97" y="-270.68" font-family="Times,serif" font-size="14.00">dos</text>
<text text-anchor="middle" x="1347.97" y="-255.68" font-family="Times,serif" font-size="14.00">dn0cp0 (det)</text>
<text text-anchor="middle" x="1347.97" y="-240.68" font-family="Times,serif" font-size="14.00">rep=no, t=no, r=no, m=yes, c=no</text>
</g>
<!-- n7&#45;&gt;n6 -->
<g id="edge8" class="edge">
<title>n7&#45;&gt;n6</title>
<path fill="none" stroke="black" d="M1347.97,-332.75C1347.97,-324.58 1347.97,-315.8 1347.97,-307.27"/>
<polygon fill="black" stroke="black" points="1351.47,-307.06 1347.97,-297.06 1344.47,-307.06 1351.47,-307.06"/>
</g>
<!-- n9 -->
<g id="node10" class="node">
<title>n9</title>
<ellipse fill="#98D2A5" stroke="black" cx="1737.97" cy="-259.38" rx="185.94" ry="37.45"/>
<text text-anchor="middle" x="1737.97" y="-270.68" font-family="Times,serif" font-size="14.00">hacer</text>
<text text-anchor="middle" x="1737.97" y="-255.68" font-family="Times,serif" font-size="14.00">vmn0000 (pobj)</text>
<text text-anchor="middle" x="1737.97" y="-240.68" font-family="Times,serif" font-size="14.00">rep=no, t=no, r=no, m=yes, c=no</text>
</g>
<!-- n8&#45;&gt;n9 -->
<g id="edge9" class="edge">
<title>n8&#45;&gt;n9</title>
<path fill="none" stroke="black" d="M1737.97,-332.75C1737.97,-324.58 1737.97,-315.8 1737.97,-307.27"/>
<polygon fill="black" stroke="black" points="1741.47,-307.06 1737.97,-297.06 1734.47,-307.06 1741.47,-307.06"/>
</g>
<!-- n11 -->
<g id="node11" class="node">
<title>n11</title>
<ellipse fill="#98D2A5" stroke="black" cx="1737.97" cy="-148.43" rx="185.94" ry="37.45"/>
<text text-anchor="middle" x="1737.97" y="-159.73" font-family="Times,serif" font-size="14.00">disco</text>
<text text-anchor="middle" x="1737.97" y="-144.73" font-family="Times,serif" font-size="14.00">ncms000 (dobj)</text>
<text text-anchor="middle" x="1737.97" y="-129.73" font-family="Times,serif" font-size="14.00">rep=no, t=no, r=no, m=yes, c=no</text>
</g>
<!-- n9&#45;&gt;n11 -->
<g id="edge10" class="edge">
<title>n9&#45;&gt;n11</title>
<path fill="none" stroke="black" d="M1737.97,-221.8C1737.97,-213.63 1737.97,-204.85 1737.97,-196.32"/>
<polygon fill="black" stroke="black" points="1741.47,-196.1 1737.97,-186.1 1734.47,-196.1 1741.47,-196.1"/>
</g>
<!-- n10 -->
<g id="node12" class="node">
<title>n10</title>
<ellipse fill="#98D2A5" stroke="black" cx="1737.97" cy="-37.48" rx="185.94" ry="37.45"/>
<text text-anchor="middle" x="1737.97" y="-48.78" font-family="Times,serif" font-size="14.00">un</text>
<text text-anchor="middle" x="1737.97" y="-33.78" font-family="Times,serif" font-size="14.00">di0ms0 (det)</text>
<text text-anchor="middle" x="1737.97" y="-18.78" font-family="Times,serif" font-size="14.00">rep=no, t=no, r=no, m=yes, c=no</text>
</g>
<!-- n11&#45;&gt;n10 -->
<g id="edge11" class="edge">
<title>n11&#45;&gt;n10</title>
<path fill="none" stroke="black" d="M1737.97,-110.85C1737.97,-102.67 1737.97,-93.89 1737.97,-85.37"/>
<polygon fill="black" stroke="black" points="1741.47,-85.15 1737.97,-75.15 1734.47,-85.15 1741.47,-85.15"/>
</g>
</g>
</svg>
