<?xml version="1.0" encoding="UTF-8" standalone="no"?>
<!DOCTYPE svg PUBLIC "-//W3C//DTD SVG 1.1//EN"
 "http://www.w3.org/Graphics/SVG/1.1/DTD/svg11.dtd">
<!-- Generated by graphviz version 2.43.0 (0)
 -->
<!-- Title: tree Pages: 1 -->
<svg width="3457pt" height="194pt"
 viewBox="0.00 0.00 3457.45 193.91" xmlns="http://www.w3.org/2000/svg" xmlns:xlink="http://www.w3.org/1999/xlink">
<g id="graph0" class="graph" transform="scale(1 1) rotate(0) translate(4 189.91)">
<title>tree</title>
<polygon fill="white" stroke="transparent" points="-4,4 -4,-189.91 3453.45,-189.91 3453.45,4 -4,4"/>
<!-- n9 -->
<g id="node1" class="node">
<title>n9</title>
<ellipse fill="#98D2A5" stroke="black" cx="1715.73" cy="-148.43" rx="185.94" ry="37.45"/>
<text text-anchor="middle" x="1715.73" y="-159.73" font-family="Times,serif" font-size="14.00">recuerde</text>
<text text-anchor="middle" x="1715.73" y="-144.73" font-family="Times,serif" font-size="14.00">vmsp3s0 (root)</text>
<text text-anchor="middle" x="1715.73" y="-129.73" font-family="Times,serif" font-size="14.00">rep=no, t=no, r=no, m=yes, c=no</text>
</g>
<!-- n1 -->
<g id="node2" class="node">
<title>n1</title>
<ellipse fill="none" stroke="black" cx="181.73" cy="-37.48" rx="181.95" ry="37.45"/>
<text text-anchor="middle" x="181.73" y="-48.78" font-family="Times,serif" font-size="14.00">&#45;</text>
<text text-anchor="middle" x="181.73" y="-33.78" font-family="Times,serif" font-size="14.00">fg (punct)</text>
<text text-anchor="middle" x="181.73" y="-18.78" font-family="Times,serif" font-size="14.00">rep=no, t=no, r=no, m=no, c=no</text>
</g>
<!-- n9&#45;&gt;n1 -->
<g id="edge1" class="edge">
<title>n9&#45;&gt;n1</title>
<path fill="none" stroke="black" d="M1530.24,-145.38C1270.34,-140.7 783.42,-125.34 371.73,-74.95 353.64,-72.74 334.69,-69.83 316.05,-66.61"/>
<polygon fill="black" stroke="black" points="316.49,-63.13 306.03,-64.85 315.27,-70.03 316.49,-63.13"/>
</g>
<!-- n2 -->
<g id="node3" class="node">
<title>n2</title>
<ellipse fill="none" stroke="black" cx="562.73" cy="-37.48" rx="181.95" ry="37.45"/>
<text text-anchor="middle" x="562.73" y="-48.78" font-family="Times,serif" font-size="14.00">&#45;</text>
<text text-anchor="middle" x="562.73" y="-33.78" font-family="Times,serif" font-size="14.00">fg (punct)</text>
<text text-anchor="middle" x="562.73" y="-18.78" font-family="Times,serif" font-size="14.00">rep=no, t=no, r=no, m=no, c=no</text>
</g>
<!-- n9&#45;&gt;n2 -->
<g id="edge2" class="edge">
<title>n9&#45;&gt;n2</title>
<path fill="none" stroke="black" d="M1534.24,-139.91C1340.36,-130.43 1024.36,-110.87 753.73,-74.95 735.78,-72.57 716.98,-69.59 698.46,-66.36"/>
<polygon fill="black" stroke="black" points="698.97,-62.89 688.51,-64.6 697.75,-69.79 698.97,-62.89"/>
</g>
<!-- n3 -->
<g id="node4" class="node">
<title>n3</title>
<ellipse fill="#98D2A5" stroke="black" cx="948.73" cy="-37.48" rx="185.94" ry="37.45"/>
<text text-anchor="middle" x="948.73" y="-48.78" font-family="Times,serif" font-size="14.00">Ja</text>
<text text-anchor="middle" x="948.73" y="-33.78" font-family="Times,serif" font-size="14.00">ncms000 (dobj)</text>
<text text-anchor="middle" x="948.73" y="-18.78" font-family="Times,serif" font-size="14.00">rep=no, t=no, r=no, m=yes, c=no</text>
</g>
<!-- n9&#45;&gt;n3 -->
<g id="edge3" class="edge">
<title>n9&#45;&gt;n3</title>
<path fill="none" stroke="black" d="M1554.8,-129.6C1439.98,-116.26 1282.05,-96.64 1143.73,-74.95 1126.29,-72.22 1108.01,-69.12 1089.94,-65.91"/>
<polygon fill="black" stroke="black" points="1090.38,-62.43 1079.92,-64.11 1089.15,-69.32 1090.38,-62.43"/>
</g>
<!-- n4 -->
<g id="node5" class="node">
<title>n4</title>
<ellipse fill="none" stroke="black" cx="1334.73" cy="-37.48" rx="181.95" ry="37.45"/>
<text text-anchor="middle" x="1334.73" y="-48.78" font-family="Times,serif" font-size="14.00">,</text>
<text text-anchor="middle" x="1334.73" y="-33.78" font-family="Times,serif" font-size="14.00">fc (punct)</text>
<text text-anchor="middle" x="1334.73" y="-18.78" font-family="Times,serif" font-size="14.00">rep=no, t=no, r=no, m=no, c=no</text>
</g>
<!-- n9&#45;&gt;n4 -->
<g id="edge4" class="edge">
<title>n9&#45;&gt;n4</title>
<path fill="none" stroke="black" d="M1610.86,-117.44C1560.57,-103.06 1500.23,-85.81 1448.8,-71.1"/>
<polygon fill="black" stroke="black" points="1449.55,-67.67 1438.97,-68.29 1447.63,-74.4 1449.55,-67.67"/>
</g>
<!-- n5 -->
<g id="node6" class="node">
<title>n5</title>
<ellipse fill="none" stroke="black" cx="1715.73" cy="-37.48" rx="181.95" ry="37.45"/>
<text text-anchor="middle" x="1715.73" y="-48.78" font-family="Times,serif" font-size="14.00">ยก</text>
<text text-anchor="middle" x="1715.73" y="-33.78" font-family="Times,serif" font-size="14.00">faa (punct)</text>
<text text-anchor="middle" x="1715.73" y="-18.78" font-family="Times,serif" font-size="14.00">rep=no, t=no, r=no, m=no, c=no</text>
</g>
<!-- n9&#45;&gt;n5 -->
<g id="edge5" class="edge">
<title>n9&#45;&gt;n5</title>
<path fill="none" stroke="black" d="M1715.73,-110.85C1715.73,-102.67 1715.73,-93.89 1715.73,-85.37"/>
<polygon fill="black" stroke="black" points="1719.23,-85.15 1715.73,-75.15 1712.23,-85.15 1719.23,-85.15"/>
</g>
<!-- n6 -->
<g id="node7" class="node">
<title>n6</title>
<ellipse fill="#98D2A5" stroke="black" cx="2101.73" cy="-37.48" rx="185.94" ry="37.45"/>
<text text-anchor="middle" x="2101.73" y="-48.78" font-family="Times,serif" font-size="14.00">no</text>
<text text-anchor="middle" x="2101.73" y="-33.78" font-family="Times,serif" font-size="14.00">rn (neg)</text>
<text text-anchor="middle" x="2101.73" y="-18.78" font-family="Times,serif" font-size="14.00">rep=no, t=no, r=no, m=yes, c=no</text>
</g>
<!-- n9&#45;&gt;n6 -->
<g id="edge6" class="edge">
<title>n9&#45;&gt;n6</title>
<path fill="none" stroke="black" d="M1821.46,-117.59C1872.52,-103.17 1933.9,-85.85 1986.19,-71.09"/>
<polygon fill="black" stroke="black" points="1987.17,-74.45 1995.84,-68.36 1985.27,-67.71 1987.17,-74.45"/>
</g>
<!-- n7 -->
<g id="node8" class="node">
<title>n7</title>
<ellipse fill="#98D2A5" stroke="black" cx="2491.73" cy="-37.48" rx="185.94" ry="37.45"/>
<text text-anchor="middle" x="2491.73" y="-48.78" font-family="Times,serif" font-size="14.00">me</text>
<text text-anchor="middle" x="2491.73" y="-33.78" font-family="Times,serif" font-size="14.00">pp1cs000 (iobj)</text>
<text text-anchor="middle" x="2491.73" y="-18.78" font-family="Times,serif" font-size="14.00">rep=no, t=no, r=no, m=yes, c=no</text>
</g>
<!-- n9&#45;&gt;n7 -->
<g id="edge7" class="edge">
<title>n9&#45;&gt;n7</title>
<path fill="none" stroke="black" d="M1877.63,-129.91C1994.39,-116.62 2155.61,-96.93 2296.73,-74.95 2314.24,-72.23 2332.6,-69.12 2350.74,-65.9"/>
<polygon fill="black" stroke="black" points="2351.57,-69.31 2360.8,-64.1 2350.34,-62.42 2351.57,-69.31"/>
</g>
<!-- n8 -->
<g id="node9" class="node">
<title>n8</title>
<ellipse fill="#98D2A5" stroke="black" cx="2881.73" cy="-37.48" rx="185.94" ry="37.45"/>
<text text-anchor="middle" x="2881.73" y="-48.78" font-family="Times,serif" font-size="14.00">lo</text>
<text text-anchor="middle" x="2881.73" y="-33.78" font-family="Times,serif" font-size="14.00">pp3msa00 (dobj)</text>
<text text-anchor="middle" x="2881.73" y="-18.78" font-family="Times,serif" font-size="14.00">rep=no, t=no, r=no, m=yes, c=no</text>
</g>
<!-- n9&#45;&gt;n8 -->
<g id="edge8" class="edge">
<title>n9&#45;&gt;n8</title>
<path fill="none" stroke="black" d="M1897.08,-139.88C2092.6,-130.35 2412.66,-110.7 2686.73,-74.95 2705.12,-72.55 2724.41,-69.55 2743.4,-66.3"/>
<polygon fill="black" stroke="black" points="2744.04,-69.74 2753.29,-64.58 2742.84,-62.84 2744.04,-69.74"/>
</g>
<!-- n10 -->
<g id="node10" class="node">
<title>n10</title>
<ellipse fill="none" stroke="black" cx="3267.73" cy="-37.48" rx="181.95" ry="37.45"/>
<text text-anchor="middle" x="3267.73" y="-48.78" font-family="Times,serif" font-size="14.00">!</text>
<text text-anchor="middle" x="3267.73" y="-33.78" font-family="Times,serif" font-size="14.00">fat (punct)</text>
<text text-anchor="middle" x="3267.73" y="-18.78" font-family="Times,serif" font-size="14.00">rep=no, t=no, r=no, m=no, c=no</text>
</g>
<!-- n9&#45;&gt;n10 -->
<g id="edge9" class="edge">
<title>n9&#45;&gt;n10</title>
<path fill="none" stroke="black" d="M1901.33,-145.5C2163.96,-140.96 2658.62,-125.77 3076.73,-74.95 3094.98,-72.73 3114.11,-69.81 3132.92,-66.58"/>
<polygon fill="black" stroke="black" points="3133.77,-69.98 3143.02,-64.81 3132.57,-63.09 3133.77,-69.98"/>
</g>
</g>
</svg>
