<?xml version="1.0" encoding="UTF-8" standalone="no"?>
<!DOCTYPE svg PUBLIC "-//W3C//DTD SVG 1.1//EN"
 "http://www.w3.org/Graphics/SVG/1.1/DTD/svg11.dtd">
<!-- Generated by graphviz version 2.43.0 (0)
 -->
<!-- Title: tree Pages: 1 -->
<svg width="3447pt" height="1192pt"
 viewBox="0.00 0.00 3447.45 1192.49" xmlns="http://www.w3.org/2000/svg" xmlns:xlink="http://www.w3.org/1999/xlink">
<g id="graph0" class="graph" transform="scale(1 1) rotate(0) translate(4 1188.49)">
<title>tree</title>
<polygon fill="white" stroke="transparent" points="-4,4 -4,-1188.49 3443.45,-1188.49 3443.45,4 -4,4"/>
<!-- n6 -->
<g id="node1" class="node">
<title>n6</title>
<ellipse fill="#98D2A5" stroke="black" cx="1719.73" cy="-1147.01" rx="185.94" ry="37.45"/>
<text text-anchor="middle" x="1719.73" y="-1158.31" font-family="Times,serif" font-size="14.00">siente</text>
<text text-anchor="middle" x="1719.73" y="-1143.31" font-family="Times,serif" font-size="14.00">vmip3s0 (root)</text>
<text text-anchor="middle" x="1719.73" y="-1128.31" font-family="Times,serif" font-size="14.00">rep=no, t=no, r=no, m=yes, c=no</text>
</g>
<!-- n1 -->
<g id="node2" class="node">
<title>n1</title>
<ellipse fill="none" stroke="black" cx="181.73" cy="-1036.06" rx="181.95" ry="37.45"/>
<text text-anchor="middle" x="181.73" y="-1047.36" font-family="Times,serif" font-size="14.00">&#45;</text>
<text text-anchor="middle" x="181.73" y="-1032.36" font-family="Times,serif" font-size="14.00">fg (punct)</text>
<text text-anchor="middle" x="181.73" y="-1017.36" font-family="Times,serif" font-size="14.00">rep=no, t=no, r=no, m=no, c=no</text>
</g>
<!-- n6&#45;&gt;n1 -->
<g id="edge1" class="edge">
<title>n6&#45;&gt;n1</title>
<path fill="none" stroke="black" d="M1534.24,-1144C1273.7,-1139.37 784.94,-1124.07 371.73,-1073.53 353.64,-1071.32 334.69,-1068.41 316.05,-1065.19"/>
<polygon fill="black" stroke="black" points="316.49,-1061.72 306.03,-1063.43 315.27,-1068.61 316.49,-1061.72"/>
</g>
<!-- n2 -->
<g id="node3" class="node">
<title>n2</title>
<ellipse fill="none" stroke="black" cx="562.73" cy="-1036.06" rx="181.95" ry="37.45"/>
<text text-anchor="middle" x="562.73" y="-1047.36" font-family="Times,serif" font-size="14.00">&#45;</text>
<text text-anchor="middle" x="562.73" y="-1032.36" font-family="Times,serif" font-size="14.00">fg (punct)</text>
<text text-anchor="middle" x="562.73" y="-1017.36" font-family="Times,serif" font-size="14.00">rep=no, t=no, r=no, m=no, c=no</text>
</g>
<!-- n6&#45;&gt;n2 -->
<g id="edge2" class="edge">
<title>n6&#45;&gt;n2</title>
<path fill="none" stroke="black" d="M1538.19,-1138.63C1343.37,-1129.27 1025.16,-1109.77 752.73,-1073.53 734.95,-1071.17 716.32,-1068.2 697.96,-1064.99"/>
<polygon fill="black" stroke="black" points="698.56,-1061.54 688.1,-1063.24 697.34,-1068.43 698.56,-1061.54"/>
</g>
<!-- n3 -->
<g id="node4" class="node">
<title>n3</title>
<ellipse fill="none" stroke="black" cx="943.73" cy="-1036.06" rx="181.95" ry="37.45"/>
<text text-anchor="middle" x="943.73" y="-1047.36" font-family="Times,serif" font-size="14.00">¿</text>
<text text-anchor="middle" x="943.73" y="-1032.36" font-family="Times,serif" font-size="14.00">fia (punct)</text>
<text text-anchor="middle" x="943.73" y="-1017.36" font-family="Times,serif" font-size="14.00">rep=no, t=no, r=no, m=no, c=no</text>
</g>
<!-- n6&#45;&gt;n3 -->
<g id="edge3" class="edge">
<title>n6&#45;&gt;n3</title>
<path fill="none" stroke="black" d="M1556.99,-1128.74C1439.39,-1115.56 1276.89,-1095.89 1134.73,-1073.53 1117.49,-1070.82 1099.43,-1067.72 1081.58,-1064.49"/>
<polygon fill="black" stroke="black" points="1082.16,-1061.04 1071.69,-1062.69 1080.9,-1067.93 1082.16,-1061.04"/>
</g>
<!-- n4 -->
<g id="node5" class="node">
<title>n4</title>
<ellipse fill="#98D2A5" stroke="black" cx="1329.73" cy="-1036.06" rx="185.94" ry="37.45"/>
<text text-anchor="middle" x="1329.73" y="-1047.36" font-family="Times,serif" font-size="14.00">No</text>
<text text-anchor="middle" x="1329.73" y="-1032.36" font-family="Times,serif" font-size="14.00">rn (neg)</text>
<text text-anchor="middle" x="1329.73" y="-1017.36" font-family="Times,serif" font-size="14.00">rep=no, t=no, r=no, m=yes, c=no</text>
</g>
<!-- n6&#45;&gt;n4 -->
<g id="edge4" class="edge">
<title>n6&#45;&gt;n4</title>
<path fill="none" stroke="black" d="M1613.16,-1116.24C1561.35,-1101.77 1498.98,-1084.34 1445.95,-1069.53"/>
<polygon fill="black" stroke="black" points="1446.74,-1066.11 1436.17,-1066.79 1444.86,-1072.85 1446.74,-1066.11"/>
</g>
<!-- n5 -->
<g id="node6" class="node">
<title>n5</title>
<ellipse fill="#98D2A5" stroke="black" cx="1719.73" cy="-1036.06" rx="185.94" ry="37.45"/>
<text text-anchor="middle" x="1719.73" y="-1047.36" font-family="Times,serif" font-size="14.00">se</text>
<text text-anchor="middle" x="1719.73" y="-1032.36" font-family="Times,serif" font-size="14.00">p0300000 (reflec)</text>
<text text-anchor="middle" x="1719.73" y="-1017.36" font-family="Times,serif" font-size="14.00">rep=no, t=no, r=no, m=yes, c=no</text>
</g>
<!-- n6&#45;&gt;n5 -->
<g id="edge5" class="edge">
<title>n6&#45;&gt;n5</title>
<path fill="none" stroke="black" d="M1719.73,-1109.43C1719.73,-1101.25 1719.73,-1092.47 1719.73,-1083.95"/>
<polygon fill="black" stroke="black" points="1723.23,-1083.73 1719.73,-1073.73 1716.23,-1083.73 1723.23,-1083.73"/>
</g>
<!-- n7 -->
<g id="node7" class="node">
<title>n7</title>
<ellipse fill="#98D2A5" stroke="black" cx="2109.73" cy="-1036.06" rx="185.94" ry="37.45"/>
<text text-anchor="middle" x="2109.73" y="-1047.36" font-family="Times,serif" font-size="14.00">frustrado</text>
<text text-anchor="middle" x="2109.73" y="-1032.36" font-family="Times,serif" font-size="14.00">aq0msp (cpred)</text>
<text text-anchor="middle" x="2109.73" y="-1017.36" font-family="Times,serif" font-size="14.00">rep=no, t=no, r=no, m=yes, c=no</text>
</g>
<!-- n6&#45;&gt;n7 -->
<g id="edge6" class="edge">
<title>n6&#45;&gt;n7</title>
<path fill="none" stroke="black" d="M1826.3,-1116.24C1878.1,-1101.77 1940.47,-1084.34 1993.5,-1069.53"/>
<polygon fill="black" stroke="black" points="1994.6,-1072.85 2003.29,-1066.79 1992.71,-1066.11 1994.6,-1072.85"/>
</g>
<!-- n25 -->
<g id="node8" class="node">
<title>n25</title>
<ellipse fill="none" stroke="black" cx="2495.73" cy="-1036.06" rx="181.95" ry="37.45"/>
<text text-anchor="middle" x="2495.73" y="-1047.36" font-family="Times,serif" font-size="14.00">?</text>
<text text-anchor="middle" x="2495.73" y="-1032.36" font-family="Times,serif" font-size="14.00">fit (punct)</text>
<text text-anchor="middle" x="2495.73" y="-1017.36" font-family="Times,serif" font-size="14.00">rep=no, t=no, r=no, m=no, c=no</text>
</g>
<!-- n6&#45;&gt;n25 -->
<g id="edge7" class="edge">
<title>n6&#45;&gt;n25</title>
<path fill="none" stroke="black" d="M1882.46,-1128.74C2000.06,-1115.56 2162.56,-1095.89 2304.73,-1073.53 2321.96,-1070.82 2340.02,-1067.72 2357.87,-1064.49"/>
<polygon fill="black" stroke="black" points="2358.55,-1067.93 2367.76,-1062.69 2357.29,-1061.04 2358.55,-1067.93"/>
</g>
<!-- n26 -->
<g id="node9" class="node">
<title>n26</title>
<ellipse fill="none" stroke="black" cx="2876.73" cy="-1036.06" rx="181.95" ry="37.45"/>
<text text-anchor="middle" x="2876.73" y="-1047.36" font-family="Times,serif" font-size="14.00">&#45;</text>
<text text-anchor="middle" x="2876.73" y="-1032.36" font-family="Times,serif" font-size="14.00">fg (punct)</text>
<text text-anchor="middle" x="2876.73" y="-1017.36" font-family="Times,serif" font-size="14.00">rep=no, t=no, r=no, m=no, c=no</text>
</g>
<!-- n6&#45;&gt;n26 -->
<g id="edge8" class="edge">
<title>n6&#45;&gt;n26</title>
<path fill="none" stroke="black" d="M1901.26,-1138.63C2096.08,-1129.27 2414.29,-1109.77 2686.73,-1073.53 2704.51,-1071.17 2723.14,-1068.2 2741.49,-1064.99"/>
<polygon fill="black" stroke="black" points="2742.12,-1068.43 2751.35,-1063.24 2740.89,-1061.54 2742.12,-1068.43"/>
</g>
<!-- n27 -->
<g id="node10" class="node">
<title>n27</title>
<ellipse fill="none" stroke="black" cx="3257.73" cy="-1036.06" rx="181.95" ry="37.45"/>
<text text-anchor="middle" x="3257.73" y="-1047.36" font-family="Times,serif" font-size="14.00">&#45;</text>
<text text-anchor="middle" x="3257.73" y="-1032.36" font-family="Times,serif" font-size="14.00">fg (punct)</text>
<text text-anchor="middle" x="3257.73" y="-1017.36" font-family="Times,serif" font-size="14.00">rep=no, t=no, r=no, m=no, c=no</text>
</g>
<!-- n6&#45;&gt;n27 -->
<g id="edge9" class="edge">
<title>n6&#45;&gt;n27</title>
<path fill="none" stroke="black" d="M1905.21,-1144C2165.75,-1139.37 2654.51,-1124.07 3067.73,-1073.53 3085.81,-1071.32 3104.77,-1068.41 3123.41,-1065.19"/>
<polygon fill="black" stroke="black" points="3124.18,-1068.61 3133.42,-1063.43 3122.97,-1061.72 3124.18,-1068.61"/>
</g>
<!-- n8 -->
<g id="node11" class="node">
<title>n8</title>
<ellipse fill="#98D2A5" stroke="black" cx="2109.73" cy="-925.1" rx="185.94" ry="37.45"/>
<text text-anchor="middle" x="2109.73" y="-936.4" font-family="Times,serif" font-size="14.00">de</text>
<text text-anchor="middle" x="2109.73" y="-921.4" font-family="Times,serif" font-size="14.00">sps00 (prepa)</text>
<text text-anchor="middle" x="2109.73" y="-906.4" font-family="Times,serif" font-size="14.00">rep=no, t=no, r=no, m=yes, c=no</text>
</g>
<!-- n7&#45;&gt;n8 -->
<g id="edge10" class="edge">
<title>n7&#45;&gt;n8</title>
<path fill="none" stroke="black" d="M2109.73,-998.47C2109.73,-990.3 2109.73,-981.52 2109.73,-972.99"/>
<polygon fill="black" stroke="black" points="2113.23,-972.78 2109.73,-962.78 2106.23,-972.78 2113.23,-972.78"/>
</g>
<!-- n9 -->
<g id="node12" class="node">
<title>n9</title>
<ellipse fill="#98D2A5" stroke="black" cx="2109.73" cy="-814.15" rx="185.94" ry="37.45"/>
<text text-anchor="middle" x="2109.73" y="-825.45" font-family="Times,serif" font-size="14.00">tener</text>
<text text-anchor="middle" x="2109.73" y="-810.45" font-family="Times,serif" font-size="14.00">vmn0000 (pobj)</text>
<text text-anchor="middle" x="2109.73" y="-795.45" font-family="Times,serif" font-size="14.00">rep=no, t=no, r=no, m=yes, c=no</text>
</g>
<!-- n8&#45;&gt;n9 -->
<g id="edge11" class="edge">
<title>n8&#45;&gt;n9</title>
<path fill="none" stroke="black" d="M2109.73,-887.52C2109.73,-879.35 2109.73,-870.57 2109.73,-862.04"/>
<polygon fill="black" stroke="black" points="2113.23,-861.82 2109.73,-851.82 2106.23,-861.82 2113.23,-861.82"/>
</g>
<!-- n10 -->
<g id="node13" class="node">
<title>n10</title>
<ellipse fill="#98D2A5" stroke="black" cx="1914.73" cy="-703.2" rx="185.94" ry="37.45"/>
<text text-anchor="middle" x="1914.73" y="-714.5" font-family="Times,serif" font-size="14.00">que</text>
<text text-anchor="middle" x="1914.73" y="-699.5" font-family="Times,serif" font-size="14.00">cs (conj)</text>
<text text-anchor="middle" x="1914.73" y="-684.5" font-family="Times,serif" font-size="14.00">rep=no, t=no, r=no, m=yes, c=no</text>
</g>
<!-- n9&#45;&gt;n10 -->
<g id="edge12" class="edge">
<title>n9&#45;&gt;n10</title>
<path fill="none" stroke="black" d="M2048.03,-778.68C2028.1,-767.54 2005.86,-755.12 1985.34,-743.65"/>
<polygon fill="black" stroke="black" points="1986.8,-740.45 1976.36,-738.63 1983.38,-746.57 1986.8,-740.45"/>
</g>
<!-- n15 -->
<g id="node14" class="node">
<title>n15</title>
<ellipse fill="#98D2A5" stroke="black" cx="2304.73" cy="-703.2" rx="185.94" ry="37.45"/>
<text text-anchor="middle" x="2304.73" y="-714.5" font-family="Times,serif" font-size="14.00">tras</text>
<text text-anchor="middle" x="2304.73" y="-699.5" font-family="Times,serif" font-size="14.00">sps00 (prepv)</text>
<text text-anchor="middle" x="2304.73" y="-684.5" font-family="Times,serif" font-size="14.00">rep=no, t=no, r=no, m=yes, c=no</text>
</g>
<!-- n9&#45;&gt;n15 -->
<g id="edge13" class="edge">
<title>n9&#45;&gt;n15</title>
<path fill="none" stroke="black" d="M2171.43,-778.68C2191.35,-767.54 2213.59,-755.12 2234.11,-743.65"/>
<polygon fill="black" stroke="black" points="2236.07,-746.57 2243.09,-738.63 2232.66,-740.45 2236.07,-746.57"/>
</g>
<!-- n11 -->
<g id="node15" class="node">
<title>n11</title>
<ellipse fill="#98D2A5" stroke="black" cx="1914.73" cy="-592.24" rx="185.94" ry="37.45"/>
<text text-anchor="middle" x="1914.73" y="-603.54" font-family="Times,serif" font-size="14.00">vivir</text>
<text text-anchor="middle" x="1914.73" y="-588.54" font-family="Times,serif" font-size="14.00">vmn0000 (cobj)</text>
<text text-anchor="middle" x="1914.73" y="-573.54" font-family="Times,serif" font-size="14.00">rep=no, t=no, r=no, m=yes, c=no</text>
</g>
<!-- n10&#45;&gt;n11 -->
<g id="edge14" class="edge">
<title>n10&#45;&gt;n11</title>
<path fill="none" stroke="black" d="M1914.73,-665.61C1914.73,-657.44 1914.73,-648.66 1914.73,-640.13"/>
<polygon fill="black" stroke="black" points="1918.23,-639.92 1914.73,-629.92 1911.23,-639.92 1918.23,-639.92"/>
</g>
<!-- n16 -->
<g id="node19" class="node">
<title>n16</title>
<ellipse fill="#98D2A5" stroke="black" cx="2304.73" cy="-592.24" rx="185.94" ry="37.45"/>
<text text-anchor="middle" x="2304.73" y="-603.54" font-family="Times,serif" font-size="14.00">haber</text>
<text text-anchor="middle" x="2304.73" y="-588.54" font-family="Times,serif" font-size="14.00">van0000 (pobj)</text>
<text text-anchor="middle" x="2304.73" y="-573.54" font-family="Times,serif" font-size="14.00">rep=no, t=no, r=no, m=yes, c=no</text>
</g>
<!-- n15&#45;&gt;n16 -->
<g id="edge18" class="edge">
<title>n15&#45;&gt;n16</title>
<path fill="none" stroke="black" d="M2304.73,-665.61C2304.73,-657.44 2304.73,-648.66 2304.73,-640.13"/>
<polygon fill="black" stroke="black" points="2308.23,-639.92 2304.73,-629.92 2301.23,-639.92 2308.23,-639.92"/>
</g>
<!-- n12 -->
<g id="node16" class="node">
<title>n12</title>
<ellipse fill="#98D2A5" stroke="black" cx="1914.73" cy="-481.29" rx="185.94" ry="37.45"/>
<text text-anchor="middle" x="1914.73" y="-492.59" font-family="Times,serif" font-size="14.00">como</text>
<text text-anchor="middle" x="1914.73" y="-477.59" font-family="Times,serif" font-size="14.00">cs (dep)</text>
<text text-anchor="middle" x="1914.73" y="-462.59" font-family="Times,serif" font-size="14.00">rep=no, t=no, r=no, m=yes, c=no</text>
</g>
<!-- n11&#45;&gt;n12 -->
<g id="edge15" class="edge">
<title>n11&#45;&gt;n12</title>
<path fill="none" stroke="black" d="M1914.73,-554.66C1914.73,-546.49 1914.73,-537.71 1914.73,-529.18"/>
<polygon fill="black" stroke="black" points="1918.23,-528.96 1914.73,-518.96 1911.23,-528.96 1918.23,-528.96"/>
</g>
<!-- n14 -->
<g id="node17" class="node">
<title>n14</title>
<ellipse fill="#98D2A5" stroke="black" cx="1914.73" cy="-370.34" rx="185.94" ry="37.45"/>
<text text-anchor="middle" x="1914.73" y="-381.64" font-family="Times,serif" font-size="14.00">recluso</text>
<text text-anchor="middle" x="1914.73" y="-366.64" font-family="Times,serif" font-size="14.00">ncms000 (cobj)</text>
<text text-anchor="middle" x="1914.73" y="-351.64" font-family="Times,serif" font-size="14.00">rep=no, t=no, r=no, m=yes, c=no</text>
</g>
<!-- n12&#45;&gt;n14 -->
<g id="edge16" class="edge">
<title>n12&#45;&gt;n14</title>
<path fill="none" stroke="black" d="M1914.73,-443.71C1914.73,-435.53 1914.73,-426.75 1914.73,-418.23"/>
<polygon fill="black" stroke="black" points="1918.23,-418.01 1914.73,-408.01 1911.23,-418.01 1918.23,-418.01"/>
</g>
<!-- n13 -->
<g id="node18" class="node">
<title>n13</title>
<ellipse fill="#98D2A5" stroke="black" cx="1914.73" cy="-259.38" rx="185.94" ry="37.45"/>
<text text-anchor="middle" x="1914.73" y="-270.68" font-family="Times,serif" font-size="14.00">un</text>
<text text-anchor="middle" x="1914.73" y="-255.68" font-family="Times,serif" font-size="14.00">di0ms0 (det)</text>
<text text-anchor="middle" x="1914.73" y="-240.68" font-family="Times,serif" font-size="14.00">rep=no, t=no, r=no, m=yes, c=no</text>
</g>
<!-- n14&#45;&gt;n13 -->
<g id="edge17" class="edge">
<title>n14&#45;&gt;n13</title>
<path fill="none" stroke="black" d="M1914.73,-332.75C1914.73,-324.58 1914.73,-315.8 1914.73,-307.27"/>
<polygon fill="black" stroke="black" points="1918.23,-307.06 1914.73,-297.06 1911.23,-307.06 1918.23,-307.06"/>
</g>
<!-- n17 -->
<g id="node20" class="node">
<title>n17</title>
<ellipse fill="#98D2A5" stroke="black" cx="2304.73" cy="-481.29" rx="185.94" ry="37.45"/>
<text text-anchor="middle" x="2304.73" y="-492.59" font-family="Times,serif" font-size="14.00">participado</text>
<text text-anchor="middle" x="2304.73" y="-477.59" font-family="Times,serif" font-size="14.00">vmp00sm (vobj)</text>
<text text-anchor="middle" x="2304.73" y="-462.59" font-family="Times,serif" font-size="14.00">rep=no, t=no, r=no, m=yes, c=no</text>
</g>
<!-- n16&#45;&gt;n17 -->
<g id="edge19" class="edge">
<title>n16&#45;&gt;n17</title>
<path fill="none" stroke="black" d="M2304.73,-554.66C2304.73,-546.49 2304.73,-537.71 2304.73,-529.18"/>
<polygon fill="black" stroke="black" points="2308.23,-528.96 2304.73,-518.96 2301.23,-528.96 2308.23,-528.96"/>
</g>
<!-- n18 -->
<g id="node21" class="node">
<title>n18</title>
<ellipse fill="#98D2A5" stroke="black" cx="2304.73" cy="-370.34" rx="185.94" ry="37.45"/>
<text text-anchor="middle" x="2304.73" y="-381.64" font-family="Times,serif" font-size="14.00">activamente</text>
<text text-anchor="middle" x="2304.73" y="-366.64" font-family="Times,serif" font-size="14.00">rg (advmod)</text>
<text text-anchor="middle" x="2304.73" y="-351.64" font-family="Times,serif" font-size="14.00">rep=no, t=no, r=no, m=yes, c=no</text>
</g>
<!-- n17&#45;&gt;n18 -->
<g id="edge20" class="edge">
<title>n17&#45;&gt;n18</title>
<path fill="none" stroke="black" d="M2304.73,-443.71C2304.73,-435.53 2304.73,-426.75 2304.73,-418.23"/>
<polygon fill="black" stroke="black" points="2308.23,-418.01 2304.73,-408.01 2301.23,-418.01 2308.23,-418.01"/>
</g>
<!-- n19 -->
<g id="node22" class="node">
<title>n19</title>
<ellipse fill="#98D2A5" stroke="black" cx="2694.73" cy="-370.34" rx="185.94" ry="37.45"/>
<text text-anchor="middle" x="2694.73" y="-381.64" font-family="Times,serif" font-size="14.00">en</text>
<text text-anchor="middle" x="2694.73" y="-366.64" font-family="Times,serif" font-size="14.00">sps00 (oobj)</text>
<text text-anchor="middle" x="2694.73" y="-351.64" font-family="Times,serif" font-size="14.00">rep=no, t=no, r=no, m=yes, c=no</text>
</g>
<!-- n17&#45;&gt;n19 -->
<g id="edge21" class="edge">
<title>n17&#45;&gt;n19</title>
<path fill="none" stroke="black" d="M2411.3,-450.52C2463.1,-436.05 2525.47,-418.62 2578.5,-403.81"/>
<polygon fill="black" stroke="black" points="2579.6,-407.13 2588.29,-401.07 2577.71,-400.39 2579.6,-407.13"/>
</g>
<!-- n21 -->
<g id="node23" class="node">
<title>n21</title>
<ellipse fill="#98D2A5" stroke="black" cx="2694.73" cy="-259.38" rx="185.94" ry="37.45"/>
<text text-anchor="middle" x="2694.73" y="-270.68" font-family="Times,serif" font-size="14.00">revolución</text>
<text text-anchor="middle" x="2694.73" y="-255.68" font-family="Times,serif" font-size="14.00">ncfs000 (pobj)</text>
<text text-anchor="middle" x="2694.73" y="-240.68" font-family="Times,serif" font-size="14.00">rep=no, t=no, r=no, m=yes, c=no</text>
</g>
<!-- n19&#45;&gt;n21 -->
<g id="edge22" class="edge">
<title>n19&#45;&gt;n21</title>
<path fill="none" stroke="black" d="M2694.73,-332.75C2694.73,-324.58 2694.73,-315.8 2694.73,-307.27"/>
<polygon fill="black" stroke="black" points="2698.23,-307.06 2694.73,-297.06 2691.23,-307.06 2698.23,-307.06"/>
</g>
<!-- n20 -->
<g id="node24" class="node">
<title>n20</title>
<ellipse fill="#98D2A5" stroke="black" cx="2499.73" cy="-148.43" rx="185.94" ry="37.45"/>
<text text-anchor="middle" x="2499.73" y="-159.73" font-family="Times,serif" font-size="14.00">una</text>
<text text-anchor="middle" x="2499.73" y="-144.73" font-family="Times,serif" font-size="14.00">di0fs0 (det)</text>
<text text-anchor="middle" x="2499.73" y="-129.73" font-family="Times,serif" font-size="14.00">rep=no, t=no, r=no, m=yes, c=no</text>
</g>
<!-- n21&#45;&gt;n20 -->
<g id="edge23" class="edge">
<title>n21&#45;&gt;n20</title>
<path fill="none" stroke="black" d="M2633.03,-223.91C2613.1,-212.78 2590.86,-200.35 2570.34,-188.89"/>
<polygon fill="black" stroke="black" points="2571.8,-185.69 2561.36,-183.87 2568.38,-191.8 2571.8,-185.69"/>
</g>
<!-- n24 -->
<g id="node25" class="node">
<title>n24</title>
<ellipse fill="#98D2A5" stroke="black" cx="2889.73" cy="-148.43" rx="185.94" ry="37.45"/>
<text text-anchor="middle" x="2889.73" y="-159.73" font-family="Times,serif" font-size="14.00">funcionó</text>
<text text-anchor="middle" x="2889.73" y="-144.73" font-family="Times,serif" font-size="14.00">vmis3s0 (rcmod)</text>
<text text-anchor="middle" x="2889.73" y="-129.73" font-family="Times,serif" font-size="14.00">rep=no, t=no, r=no, m=yes, c=no</text>
</g>
<!-- n21&#45;&gt;n24 -->
<g id="edge24" class="edge">
<title>n21&#45;&gt;n24</title>
<path fill="none" stroke="black" d="M2756.43,-223.91C2776.35,-212.78 2798.59,-200.35 2819.11,-188.89"/>
<polygon fill="black" stroke="black" points="2821.07,-191.8 2828.09,-183.87 2817.66,-185.69 2821.07,-191.8"/>
</g>
<!-- n22 -->
<g id="node26" class="node">
<title>n22</title>
<ellipse fill="#98D2A5" stroke="black" cx="2694.73" cy="-37.48" rx="185.94" ry="37.45"/>
<text text-anchor="middle" x="2694.73" y="-48.78" font-family="Times,serif" font-size="14.00">que</text>
<text text-anchor="middle" x="2694.73" y="-33.78" font-family="Times,serif" font-size="14.00">pr0cn000 (nsubj)</text>
<text text-anchor="middle" x="2694.73" y="-18.78" font-family="Times,serif" font-size="14.00">rep=no, t=no, r=no, m=yes, c=no</text>
</g>
<!-- n24&#45;&gt;n22 -->
<g id="edge25" class="edge">
<title>n24&#45;&gt;n22</title>
<path fill="none" stroke="black" d="M2828.03,-112.96C2808.1,-101.82 2785.86,-89.4 2765.34,-77.93"/>
<polygon fill="black" stroke="black" points="2766.8,-74.74 2756.36,-72.91 2763.38,-80.85 2766.8,-74.74"/>
</g>
<!-- n23 -->
<g id="node27" class="node">
<title>n23</title>
<ellipse fill="#98D2A5" stroke="black" cx="3084.73" cy="-37.48" rx="185.94" ry="37.45"/>
<text text-anchor="middle" x="3084.73" y="-48.78" font-family="Times,serif" font-size="14.00">no</text>
<text text-anchor="middle" x="3084.73" y="-33.78" font-family="Times,serif" font-size="14.00">rn (neg)</text>
<text text-anchor="middle" x="3084.73" y="-18.78" font-family="Times,serif" font-size="14.00">rep=no, t=no, r=no, m=yes, c=no</text>
</g>
<!-- n24&#45;&gt;n23 -->
<g id="edge26" class="edge">
<title>n24&#45;&gt;n23</title>
<path fill="none" stroke="black" d="M2951.43,-112.96C2971.35,-101.82 2993.59,-89.4 3014.11,-77.93"/>
<polygon fill="black" stroke="black" points="3016.07,-80.85 3023.09,-72.91 3012.66,-74.74 3016.07,-80.85"/>
</g>
</g>
</svg>
