<?xml version="1.0" encoding="UTF-8" standalone="no"?>
<!DOCTYPE svg PUBLIC "-//W3C//DTD SVG 1.1//EN"
 "http://www.w3.org/Graphics/SVG/1.1/DTD/svg11.dtd">
<!-- Generated by graphviz version 2.43.0 (0)
 -->
<!-- Title: tree Pages: 1 -->
<svg width="2348pt" height="527pt"
 viewBox="0.00 0.00 2347.89 526.77" xmlns="http://www.w3.org/2000/svg" xmlns:xlink="http://www.w3.org/1999/xlink">
<g id="graph0" class="graph" transform="scale(1 1) rotate(0) translate(4 522.77)">
<title>tree</title>
<polygon fill="white" stroke="transparent" points="-4,4 -4,-522.77 2343.89,-522.77 2343.89,4 -4,4"/>
<!-- n1 -->
<g id="node1" class="node">
<title>n1</title>
<ellipse fill="#98D2A5" stroke="black" cx="1158.97" cy="-481.29" rx="185.94" ry="37.45"/>
<text text-anchor="middle" x="1158.97" y="-492.59" font-family="Times,serif" font-size="14.00">Atravieso</text>
<text text-anchor="middle" x="1158.97" y="-477.59" font-family="Times,serif" font-size="14.00">vmip1s0 (root)</text>
<text text-anchor="middle" x="1158.97" y="-462.59" font-family="Times,serif" font-size="14.00">rep=no, t=no, r=no, m=yes, c=no</text>
</g>
<!-- n4 -->
<g id="node2" class="node">
<title>n4</title>
<ellipse fill="#98D2A5" stroke="black" cx="965.97" cy="-370.34" rx="185.94" ry="37.45"/>
<text text-anchor="middle" x="965.97" y="-381.64" font-family="Times,serif" font-size="14.00">época</text>
<text text-anchor="middle" x="965.97" y="-366.64" font-family="Times,serif" font-size="14.00">ncfs000 (dobj)</text>
<text text-anchor="middle" x="965.97" y="-351.64" font-family="Times,serif" font-size="14.00">rep=no, t=no, r=no, m=yes, c=no</text>
</g>
<!-- n1&#45;&gt;n4 -->
<g id="edge1" class="edge">
<title>n1&#45;&gt;n4</title>
<path fill="none" stroke="black" d="M1097.9,-445.82C1078.18,-434.68 1056.17,-422.26 1035.86,-410.79"/>
<polygon fill="black" stroke="black" points="1037.4,-407.64 1026.97,-405.77 1033.96,-413.74 1037.4,-407.64"/>
</g>
<!-- n15 -->
<g id="node3" class="node">
<title>n15</title>
<ellipse fill="none" stroke="black" cx="1351.97" cy="-370.34" rx="181.95" ry="37.45"/>
<text text-anchor="middle" x="1351.97" y="-381.64" font-family="Times,serif" font-size="14.00">.</text>
<text text-anchor="middle" x="1351.97" y="-366.64" font-family="Times,serif" font-size="14.00">fp (punct)</text>
<text text-anchor="middle" x="1351.97" y="-351.64" font-family="Times,serif" font-size="14.00">rep=no, t=no, r=no, m=no, c=no</text>
</g>
<!-- n1&#45;&gt;n15 -->
<g id="edge2" class="edge">
<title>n1&#45;&gt;n15</title>
<path fill="none" stroke="black" d="M1220.04,-445.82C1239.76,-434.68 1261.77,-422.26 1282.08,-410.79"/>
<polygon fill="black" stroke="black" points="1283.98,-413.74 1290.97,-405.77 1280.54,-407.64 1283.98,-413.74"/>
</g>
<!-- n2 -->
<g id="node4" class="node">
<title>n2</title>
<ellipse fill="#98D2A5" stroke="black" cx="185.97" cy="-259.38" rx="185.94" ry="37.45"/>
<text text-anchor="middle" x="185.97" y="-270.68" font-family="Times,serif" font-size="14.00">la</text>
<text text-anchor="middle" x="185.97" y="-255.68" font-family="Times,serif" font-size="14.00">da0fs0 (det)</text>
<text text-anchor="middle" x="185.97" y="-240.68" font-family="Times,serif" font-size="14.00">rep=no, t=no, r=no, m=yes, c=no</text>
</g>
<!-- n4&#45;&gt;n2 -->
<g id="edge3" class="edge">
<title>n4&#45;&gt;n2</title>
<path fill="none" stroke="black" d="M803.57,-351.94C685.96,-338.67 523.3,-318.97 380.97,-296.86 363.45,-294.14 345.1,-291.04 326.95,-287.82"/>
<polygon fill="black" stroke="black" points="327.35,-284.34 316.89,-286.02 326.12,-291.23 327.35,-284.34"/>
</g>
<!-- n3 -->
<g id="node5" class="node">
<title>n3</title>
<ellipse fill="#98D2A5" stroke="black" cx="575.97" cy="-259.38" rx="185.94" ry="37.45"/>
<text text-anchor="middle" x="575.97" y="-270.68" font-family="Times,serif" font-size="14.00">mejor</text>
<text text-anchor="middle" x="575.97" y="-255.68" font-family="Times,serif" font-size="14.00">aq0cs0 (amod)</text>
<text text-anchor="middle" x="575.97" y="-240.68" font-family="Times,serif" font-size="14.00">rep=no, t=no, r=no, m=yes, c=no</text>
</g>
<!-- n4&#45;&gt;n3 -->
<g id="edge4" class="edge">
<title>n4&#45;&gt;n3</title>
<path fill="none" stroke="black" d="M859.4,-339.56C807.59,-325.09 745.23,-307.67 692.2,-292.85"/>
<polygon fill="black" stroke="black" points="692.98,-289.44 682.41,-290.12 691.1,-296.18 692.98,-289.44"/>
</g>
<!-- n5 -->
<g id="node6" class="node">
<title>n5</title>
<ellipse fill="#98D2A5" stroke="black" cx="965.97" cy="-259.38" rx="185.94" ry="37.45"/>
<text text-anchor="middle" x="965.97" y="-270.68" font-family="Times,serif" font-size="14.00">de</text>
<text text-anchor="middle" x="965.97" y="-255.68" font-family="Times,serif" font-size="14.00">sps00 (prepn)</text>
<text text-anchor="middle" x="965.97" y="-240.68" font-family="Times,serif" font-size="14.00">rep=no, t=no, r=no, m=yes, c=no</text>
</g>
<!-- n4&#45;&gt;n5 -->
<g id="edge5" class="edge">
<title>n4&#45;&gt;n5</title>
<path fill="none" stroke="black" d="M965.97,-332.75C965.97,-324.58 965.97,-315.8 965.97,-307.27"/>
<polygon fill="black" stroke="black" points="969.47,-307.06 965.97,-297.06 962.47,-307.06 969.47,-307.06"/>
</g>
<!-- n8 -->
<g id="node7" class="node">
<title>n8</title>
<ellipse fill="#98D2A5" stroke="black" cx="1355.97" cy="-259.38" rx="185.94" ry="37.45"/>
<text text-anchor="middle" x="1355.97" y="-270.68" font-family="Times,serif" font-size="14.00">,</text>
<text text-anchor="middle" x="1355.97" y="-255.68" font-family="Times,serif" font-size="14.00">fc (punct)</text>
<text text-anchor="middle" x="1355.97" y="-240.68" font-family="Times,serif" font-size="14.00">rep=no, t=no, r=no, m=yes, c=no</text>
</g>
<!-- n4&#45;&gt;n8 -->
<g id="edge6" class="edge">
<title>n4&#45;&gt;n8</title>
<path fill="none" stroke="black" d="M1072.54,-339.56C1124.34,-325.09 1186.71,-307.67 1239.74,-292.85"/>
<polygon fill="black" stroke="black" points="1240.84,-296.18 1249.53,-290.12 1238.96,-289.44 1240.84,-296.18"/>
</g>
<!-- n9 -->
<g id="node8" class="node">
<title>n9</title>
<ellipse fill="#98D2A5" stroke="black" cx="1750.97" cy="-259.38" rx="185.94" ry="37.45"/>
<text text-anchor="middle" x="1750.97" y="-270.68" font-family="Times,serif" font-size="14.00">llena</text>
<text text-anchor="middle" x="1750.97" y="-255.68" font-family="Times,serif" font-size="14.00">aq0fs0 (amod)</text>
<text text-anchor="middle" x="1750.97" y="-240.68" font-family="Times,serif" font-size="14.00">rep=no, t=no, r=no, m=yes, c=no</text>
</g>
<!-- n4&#45;&gt;n9 -->
<g id="edge7" class="edge">
<title>n4&#45;&gt;n9</title>
<path fill="none" stroke="black" d="M1095.5,-343.37C1117.3,-339.5 1139.73,-335.82 1160.97,-332.86 1333.37,-308.83 1378.51,-320.5 1550.97,-296.86 1570.04,-294.25 1590.06,-291.09 1609.76,-287.74"/>
<polygon fill="black" stroke="black" points="1610.45,-291.18 1619.72,-286.03 1609.27,-284.28 1610.45,-291.18"/>
</g>
<!-- n7 -->
<g id="node9" class="node">
<title>n7</title>
<ellipse fill="#98D2A5" stroke="black" cx="963.97" cy="-148.43" rx="185.94" ry="37.45"/>
<text text-anchor="middle" x="963.97" y="-159.73" font-family="Times,serif" font-size="14.00">vida</text>
<text text-anchor="middle" x="963.97" y="-144.73" font-family="Times,serif" font-size="14.00">ncfs000 (pobj)</text>
<text text-anchor="middle" x="963.97" y="-129.73" font-family="Times,serif" font-size="14.00">rep=no, t=no, r=no, m=yes, c=no</text>
</g>
<!-- n5&#45;&gt;n7 -->
<g id="edge8" class="edge">
<title>n5&#45;&gt;n7</title>
<path fill="none" stroke="black" d="M965.3,-221.8C965.15,-213.63 964.99,-204.85 964.83,-196.32"/>
<polygon fill="black" stroke="black" points="968.33,-196.04 964.64,-186.1 961.33,-196.16 968.33,-196.04"/>
</g>
<!-- n10 -->
<g id="node11" class="node">
<title>n10</title>
<ellipse fill="#98D2A5" stroke="black" cx="1358.97" cy="-148.43" rx="190.84" ry="37.45"/>
<text text-anchor="middle" x="1358.97" y="-159.73" font-family="Times,serif" font-size="14.00">de</text>
<text text-anchor="middle" x="1358.97" y="-144.73" font-family="Times,serif" font-size="14.00">sps00 (dep)</text>
<text text-anchor="middle" x="1358.97" y="-129.73" font-family="Times,serif" font-size="14.00">rep=no, t=no, r=no, m=yes, c=yes</text>
</g>
<!-- n9&#45;&gt;n10 -->
<g id="edge10" class="edge">
<title>n9&#45;&gt;n10</title>
<path fill="none" stroke="black" d="M1644.11,-228.68C1592.25,-214.27 1529.81,-196.91 1476.6,-182.12"/>
<polygon fill="black" stroke="black" points="1477.34,-178.7 1466.77,-179.39 1475.47,-185.44 1477.34,-178.7"/>
</g>
<!-- n12 -->
<g id="node12" class="node">
<title>n12</title>
<ellipse fill="#98D2A5" stroke="black" cx="1753.97" cy="-148.43" rx="185.94" ry="37.45"/>
<text text-anchor="middle" x="1753.97" y="-159.73" font-family="Times,serif" font-size="14.00">y</text>
<text text-anchor="middle" x="1753.97" y="-144.73" font-family="Times,serif" font-size="14.00">cc (coord_fixed)</text>
<text text-anchor="middle" x="1753.97" y="-129.73" font-family="Times,serif" font-size="14.00">rep=no, t=no, r=no, m=yes, c=no</text>
</g>
<!-- n9&#45;&gt;n12 -->
<g id="edge11" class="edge">
<title>n9&#45;&gt;n12</title>
<path fill="none" stroke="black" d="M1751.98,-221.8C1752.2,-213.63 1752.44,-204.85 1752.68,-196.32"/>
<polygon fill="black" stroke="black" points="1756.18,-196.19 1752.96,-186.1 1749.19,-196 1756.18,-196.19"/>
</g>
<!-- n13 -->
<g id="node13" class="node">
<title>n13</title>
<ellipse fill="#98D2A5" stroke="black" cx="2148.97" cy="-148.43" rx="190.84" ry="37.45"/>
<text text-anchor="middle" x="2148.97" y="-159.73" font-family="Times,serif" font-size="14.00">de</text>
<text text-anchor="middle" x="2148.97" y="-144.73" font-family="Times,serif" font-size="14.00">sps00 (dep)</text>
<text text-anchor="middle" x="2148.97" y="-129.73" font-family="Times,serif" font-size="14.00">rep=no, t=no, r=no, m=yes, c=yes</text>
</g>
<!-- n9&#45;&gt;n13 -->
<g id="edge12" class="edge">
<title>n9&#45;&gt;n13</title>
<path fill="none" stroke="black" d="M1858.94,-228.83C1911.92,-214.32 1975.89,-196.81 2030.25,-181.93"/>
<polygon fill="black" stroke="black" points="2031.21,-185.3 2039.93,-179.28 2029.36,-178.54 2031.21,-185.3"/>
</g>
<!-- n6 -->
<g id="node10" class="node">
<title>n6</title>
<ellipse fill="#98D2A5" stroke="black" cx="963.97" cy="-37.48" rx="185.94" ry="37.45"/>
<text text-anchor="middle" x="963.97" y="-48.78" font-family="Times,serif" font-size="14.00">mi</text>
<text text-anchor="middle" x="963.97" y="-33.78" font-family="Times,serif" font-size="14.00">dp1css (poss)</text>
<text text-anchor="middle" x="963.97" y="-18.78" font-family="Times,serif" font-size="14.00">rep=no, t=no, r=no, m=yes, c=no</text>
</g>
<!-- n7&#45;&gt;n6 -->
<g id="edge9" class="edge">
<title>n7&#45;&gt;n6</title>
<path fill="none" stroke="black" d="M963.97,-110.85C963.97,-102.67 963.97,-93.89 963.97,-85.37"/>
<polygon fill="black" stroke="black" points="967.47,-85.15 963.97,-75.15 960.47,-85.15 967.47,-85.15"/>
</g>
<!-- n11 -->
<g id="node14" class="node">
<title>n11</title>
<ellipse fill="#98D2A5" stroke="black" cx="1358.97" cy="-37.48" rx="185.94" ry="37.45"/>
<text text-anchor="middle" x="1358.97" y="-48.78" font-family="Times,serif" font-size="14.00">amor</text>
<text text-anchor="middle" x="1358.97" y="-33.78" font-family="Times,serif" font-size="14.00">ncms000 (pobj)</text>
<text text-anchor="middle" x="1358.97" y="-18.78" font-family="Times,serif" font-size="14.00">rep=no, t=no, r=no, m=yes, c=no</text>
</g>
<!-- n10&#45;&gt;n11 -->
<g id="edge13" class="edge">
<title>n10&#45;&gt;n11</title>
<path fill="none" stroke="black" d="M1358.97,-110.85C1358.97,-102.67 1358.97,-93.89 1358.97,-85.37"/>
<polygon fill="black" stroke="black" points="1362.47,-85.15 1358.97,-75.15 1355.47,-85.15 1362.47,-85.15"/>
</g>
<!-- n14 -->
<g id="node15" class="node">
<title>n14</title>
<ellipse fill="#98D2A5" stroke="black" cx="2148.97" cy="-37.48" rx="185.94" ry="37.45"/>
<text text-anchor="middle" x="2148.97" y="-48.78" font-family="Times,serif" font-size="14.00">proyectos</text>
<text text-anchor="middle" x="2148.97" y="-33.78" font-family="Times,serif" font-size="14.00">ncmp000 (pobj)</text>
<text text-anchor="middle" x="2148.97" y="-18.78" font-family="Times,serif" font-size="14.00">rep=no, t=no, r=no, m=yes, c=no</text>
</g>
<!-- n13&#45;&gt;n14 -->
<g id="edge14" class="edge">
<title>n13&#45;&gt;n14</title>
<path fill="none" stroke="black" d="M2148.97,-110.85C2148.97,-102.67 2148.97,-93.89 2148.97,-85.37"/>
<polygon fill="black" stroke="black" points="2152.47,-85.15 2148.97,-75.15 2145.47,-85.15 2152.47,-85.15"/>
</g>
</g>
</svg>
