<?xml version="1.0" encoding="UTF-8" standalone="no"?>
<!DOCTYPE svg PUBLIC "-//W3C//DTD SVG 1.1//EN"
 "http://www.w3.org/Graphics/SVG/1.1/DTD/svg11.dtd">
<!-- Generated by graphviz version 2.43.0 (0)
 -->
<!-- Title: tree Pages: 1 -->
<svg width="2971pt" height="860pt"
 viewBox="0.00 0.00 2970.70 859.63" xmlns="http://www.w3.org/2000/svg" xmlns:xlink="http://www.w3.org/1999/xlink">
<g id="graph0" class="graph" transform="scale(1 1) rotate(0) translate(4 855.63)">
<title>tree</title>
<polygon fill="white" stroke="transparent" points="-4,4 -4,-855.63 2966.7,-855.63 2966.7,4 -4,4"/>
<!-- n2 -->
<g id="node1" class="node">
<title>n2</title>
<ellipse fill="#98D2A5" stroke="black" cx="1158.97" cy="-814.15" rx="185.94" ry="37.45"/>
<text text-anchor="middle" x="1158.97" y="-825.45" font-family="Times,serif" font-size="14.00">es</text>
<text text-anchor="middle" x="1158.97" y="-810.45" font-family="Times,serif" font-size="14.00">vsip3s0 (root)</text>
<text text-anchor="middle" x="1158.97" y="-795.45" font-family="Times,serif" font-size="14.00">rep=no, t=no, r=no, m=yes, c=no</text>
</g>
<!-- n1 -->
<g id="node2" class="node">
<title>n1</title>
<ellipse fill="#98D2A5" stroke="black" cx="185.97" cy="-703.2" rx="185.94" ry="37.45"/>
<text text-anchor="middle" x="185.97" y="-714.5" font-family="Times,serif" font-size="14.00">Y</text>
<text text-anchor="middle" x="185.97" y="-699.5" font-family="Times,serif" font-size="14.00">cc (coord_fixed)</text>
<text text-anchor="middle" x="185.97" y="-684.5" font-family="Times,serif" font-size="14.00">rep=no, t=no, r=no, m=yes, c=no</text>
</g>
<!-- n2&#45;&gt;n1 -->
<g id="edge1" class="edge">
<title>n2&#45;&gt;n1</title>
<path fill="none" stroke="black" d="M983.86,-801.46C825.82,-789.82 587.19,-769.5 380.97,-740.67 362.97,-738.16 344.11,-735.13 325.5,-731.91"/>
<polygon fill="black" stroke="black" points="325.95,-728.43 315.5,-730.15 324.74,-735.33 325.95,-728.43"/>
</g>
<!-- n3 -->
<g id="node3" class="node">
<title>n3</title>
<ellipse fill="#98D2A5" stroke="black" cx="575.97" cy="-703.2" rx="185.94" ry="37.45"/>
<text text-anchor="middle" x="575.97" y="-714.5" font-family="Times,serif" font-size="14.00">frustrante</text>
<text text-anchor="middle" x="575.97" y="-699.5" font-family="Times,serif" font-size="14.00">aq0cs0 (attr)</text>
<text text-anchor="middle" x="575.97" y="-684.5" font-family="Times,serif" font-size="14.00">rep=no, t=no, r=no, m=yes, c=no</text>
</g>
<!-- n2&#45;&gt;n3 -->
<g id="edge2" class="edge">
<title>n2&#45;&gt;n3</title>
<path fill="none" stroke="black" d="M1024.74,-788.09C950.03,-774.13 855.34,-756.44 770.97,-740.67 754.48,-737.59 737.22,-734.36 720.06,-731.15"/>
<polygon fill="black" stroke="black" points="720.45,-727.67 709.97,-729.27 719.16,-734.55 720.45,-727.67"/>
</g>
<!-- n4 -->
<g id="node4" class="node">
<title>n4</title>
<ellipse fill="#98D2A5" stroke="black" cx="965.97" cy="-703.2" rx="185.94" ry="37.45"/>
<text text-anchor="middle" x="965.97" y="-714.5" font-family="Times,serif" font-size="14.00">pasarte</text>
<text text-anchor="middle" x="965.97" y="-699.5" font-family="Times,serif" font-size="14.00">vmn0000 (attr)</text>
<text text-anchor="middle" x="965.97" y="-684.5" font-family="Times,serif" font-size="14.00">rep=no, t=no, r=no, m=yes, c=no</text>
</g>
<!-- n2&#45;&gt;n4 -->
<g id="edge3" class="edge">
<title>n2&#45;&gt;n4</title>
<path fill="none" stroke="black" d="M1097.9,-778.68C1078.18,-767.54 1056.17,-755.12 1035.86,-743.65"/>
<polygon fill="black" stroke="black" points="1037.4,-740.5 1026.97,-738.63 1033.96,-746.6 1037.4,-740.5"/>
</g>
<!-- n8 -->
<g id="node5" class="node">
<title>n8</title>
<ellipse fill="none" stroke="black" cx="1351.97" cy="-703.2" rx="181.95" ry="37.45"/>
<text text-anchor="middle" x="1351.97" y="-714.5" font-family="Times,serif" font-size="14.00">,</text>
<text text-anchor="middle" x="1351.97" y="-699.5" font-family="Times,serif" font-size="14.00">fc (punct)</text>
<text text-anchor="middle" x="1351.97" y="-684.5" font-family="Times,serif" font-size="14.00">rep=no, t=no, r=no, m=no, c=no</text>
</g>
<!-- n2&#45;&gt;n8 -->
<g id="edge4" class="edge">
<title>n2&#45;&gt;n8</title>
<path fill="none" stroke="black" d="M1220.04,-778.68C1239.76,-767.54 1261.77,-755.12 1282.08,-743.65"/>
<polygon fill="black" stroke="black" points="1283.98,-746.6 1290.97,-738.63 1280.54,-740.5 1283.98,-746.6"/>
</g>
<!-- n10 -->
<g id="node6" class="node">
<title>n10</title>
<ellipse fill="none" stroke="black" cx="1732.97" cy="-703.2" rx="181.95" ry="37.45"/>
<text text-anchor="middle" x="1732.97" y="-714.5" font-family="Times,serif" font-size="14.00">que</text>
<text text-anchor="middle" x="1732.97" y="-699.5" font-family="Times,serif" font-size="14.00">pi0ms000 (advmod)</text>
<text text-anchor="middle" x="1732.97" y="-684.5" font-family="Times,serif" font-size="14.00">rep=no, t=no, r=no, m=no, c=no</text>
</g>
<!-- n2&#45;&gt;n10 -->
<g id="edge5" class="edge">
<title>n2&#45;&gt;n10</title>
<path fill="none" stroke="black" d="M1292.72,-788.01C1366.53,-774.11 1459.83,-756.5 1542.97,-740.67 1559.04,-737.61 1575.86,-734.4 1592.58,-731.2"/>
<polygon fill="black" stroke="black" points="1593.25,-734.64 1602.41,-729.32 1591.93,-727.76 1593.25,-734.64"/>
</g>
<!-- n22 -->
<g id="node7" class="node">
<title>n22</title>
<ellipse fill="none" stroke="black" cx="2113.97" cy="-703.2" rx="181.95" ry="37.45"/>
<text text-anchor="middle" x="2113.97" y="-714.5" font-family="Times,serif" font-size="14.00">.</text>
<text text-anchor="middle" x="2113.97" y="-699.5" font-family="Times,serif" font-size="14.00">fp (punct)</text>
<text text-anchor="middle" x="2113.97" y="-684.5" font-family="Times,serif" font-size="14.00">rep=no, t=no, r=no, m=no, c=no</text>
</g>
<!-- n2&#45;&gt;n22 -->
<g id="edge6" class="edge">
<title>n2&#45;&gt;n22</title>
<path fill="none" stroke="black" d="M1333.85,-801.34C1489.27,-789.72 1722.41,-769.5 1923.97,-740.67 1941.43,-738.18 1959.73,-735.17 1977.78,-731.96"/>
<polygon fill="black" stroke="black" points="1978.55,-735.38 1987.78,-730.16 1977.31,-728.49 1978.55,-735.38"/>
</g>
<!-- n6 -->
<g id="node8" class="node">
<title>n6</title>
<ellipse fill="#98D2A5" stroke="black" cx="671.97" cy="-592.24" rx="185.94" ry="37.45"/>
<text text-anchor="middle" x="671.97" y="-603.54" font-family="Times,serif" font-size="14.00">vida</text>
<text text-anchor="middle" x="671.97" y="-588.54" font-family="Times,serif" font-size="14.00">ncfs000 (dobj)</text>
<text text-anchor="middle" x="671.97" y="-573.54" font-family="Times,serif" font-size="14.00">rep=no, t=no, r=no, m=yes, c=no</text>
</g>
<!-- n4&#45;&gt;n6 -->
<g id="edge7" class="edge">
<title>n4&#45;&gt;n6</title>
<path fill="none" stroke="black" d="M878.95,-669.95C844.14,-657.05 803.9,-642.14 768.21,-628.91"/>
<polygon fill="black" stroke="black" points="769.36,-625.6 758.76,-625.41 766.92,-632.16 769.36,-625.6"/>
</g>
<!-- n7 -->
<g id="node9" class="node">
<title>n7</title>
<ellipse fill="#98D2A5" stroke="black" cx="1061.97" cy="-592.24" rx="185.94" ry="37.45"/>
<text text-anchor="middle" x="1061.97" y="-603.54" font-family="Times,serif" font-size="14.00">preocupado</text>
<text text-anchor="middle" x="1061.97" y="-588.54" font-family="Times,serif" font-size="14.00">aq0msp (cpred)</text>
<text text-anchor="middle" x="1061.97" y="-573.54" font-family="Times,serif" font-size="14.00">rep=no, t=no, r=no, m=yes, c=no</text>
</g>
<!-- n4&#45;&gt;n7 -->
<g id="edge8" class="edge">
<title>n4&#45;&gt;n7</title>
<path fill="none" stroke="black" d="M997.67,-666.22C1005.94,-656.83 1014.95,-646.61 1023.53,-636.87"/>
<polygon fill="black" stroke="black" points="1026.32,-639 1030.3,-629.18 1021.07,-634.37 1026.32,-639"/>
</g>
<!-- n9 -->
<g id="node11" class="node">
<title>n9</title>
<ellipse fill="none" stroke="black" cx="1637.97" cy="-592.24" rx="181.95" ry="37.45"/>
<text text-anchor="middle" x="1637.97" y="-603.54" font-family="Times,serif" font-size="14.00">así</text>
<text text-anchor="middle" x="1637.97" y="-588.54" font-family="Times,serif" font-size="14.00">rg (advmod)</text>
<text text-anchor="middle" x="1637.97" y="-573.54" font-family="Times,serif" font-size="14.00">rep=no, t=no, r=no, m=no, c=no</text>
</g>
<!-- n10&#45;&gt;n9 -->
<g id="edge10" class="edge">
<title>n10&#45;&gt;n9</title>
<path fill="none" stroke="black" d="M1701.6,-666.22C1693.41,-656.83 1684.5,-646.61 1676,-636.87"/>
<polygon fill="black" stroke="black" points="1678.52,-634.42 1669.31,-629.18 1673.24,-639.02 1678.52,-634.42"/>
</g>
<!-- n13 -->
<g id="node12" class="node">
<title>n13</title>
<ellipse fill="none" stroke="black" cx="2018.97" cy="-592.24" rx="181.95" ry="37.45"/>
<text text-anchor="middle" x="2018.97" y="-603.54" font-family="Times,serif" font-size="14.00">es</text>
<text text-anchor="middle" x="2018.97" y="-588.54" font-family="Times,serif" font-size="14.00">vsip3s0 (dep)</text>
<text text-anchor="middle" x="2018.97" y="-573.54" font-family="Times,serif" font-size="14.00">rep=no, t=no, r=no, m=no, c=no</text>
</g>
<!-- n10&#45;&gt;n13 -->
<g id="edge11" class="edge">
<title>n10&#45;&gt;n13</title>
<path fill="none" stroke="black" d="M1817.62,-669.95C1851.19,-657.16 1889.95,-642.39 1924.44,-629.26"/>
<polygon fill="black" stroke="black" points="1925.94,-632.43 1934.04,-625.6 1923.45,-625.89 1925.94,-632.43"/>
</g>
<!-- n5 -->
<g id="node10" class="node">
<title>n5</title>
<ellipse fill="#98D2A5" stroke="black" cx="671.97" cy="-481.29" rx="185.94" ry="37.45"/>
<text text-anchor="middle" x="671.97" y="-492.59" font-family="Times,serif" font-size="14.00">la</text>
<text text-anchor="middle" x="671.97" y="-477.59" font-family="Times,serif" font-size="14.00">da0fs0 (det)</text>
<text text-anchor="middle" x="671.97" y="-462.59" font-family="Times,serif" font-size="14.00">rep=no, t=no, r=no, m=yes, c=no</text>
</g>
<!-- n6&#45;&gt;n5 -->
<g id="edge9" class="edge">
<title>n6&#45;&gt;n5</title>
<path fill="none" stroke="black" d="M671.97,-554.66C671.97,-546.49 671.97,-537.71 671.97,-529.18"/>
<polygon fill="black" stroke="black" points="675.47,-528.96 671.97,-518.96 668.47,-528.96 675.47,-528.96"/>
</g>
<!-- n12 -->
<g id="node13" class="node">
<title>n12</title>
<ellipse fill="none" stroke="black" cx="1827.97" cy="-481.29" rx="181.95" ry="37.45"/>
<text text-anchor="middle" x="1827.97" y="-492.59" font-family="Times,serif" font-size="14.00">mejor</text>
<text text-anchor="middle" x="1827.97" y="-477.59" font-family="Times,serif" font-size="14.00">aq0cs0 (nsubj)</text>
<text text-anchor="middle" x="1827.97" y="-462.59" font-family="Times,serif" font-size="14.00">rep=no, t=no, r=no, m=no, c=no</text>
</g>
<!-- n13&#45;&gt;n12 -->
<g id="edge12" class="edge">
<title>n13&#45;&gt;n12</title>
<path fill="none" stroke="black" d="M1958.54,-556.77C1939.02,-545.64 1917.23,-533.21 1897.14,-521.75"/>
<polygon fill="black" stroke="black" points="1898.76,-518.64 1888.34,-516.73 1895.29,-524.72 1898.76,-518.64"/>
</g>
<!-- n17 -->
<g id="node14" class="node">
<title>n17</title>
<ellipse fill="none" stroke="black" cx="2208.97" cy="-481.29" rx="181.95" ry="37.45"/>
<text text-anchor="middle" x="2208.97" y="-492.59" font-family="Times,serif" font-size="14.00">y</text>
<text text-anchor="middle" x="2208.97" y="-477.59" font-family="Times,serif" font-size="14.00">cc (coord_fixed)</text>
<text text-anchor="middle" x="2208.97" y="-462.59" font-family="Times,serif" font-size="14.00">rep=no, t=no, r=no, m=no, c=no</text>
</g>
<!-- n13&#45;&gt;n17 -->
<g id="edge13" class="edge">
<title>n13&#45;&gt;n17</title>
<path fill="none" stroke="black" d="M2079.09,-556.77C2098.5,-545.64 2120.17,-533.21 2140.16,-521.75"/>
<polygon fill="black" stroke="black" points="2141.98,-524.74 2148.92,-516.73 2138.5,-518.66 2141.98,-524.74"/>
</g>
<!-- n11 -->
<g id="node15" class="node">
<title>n11</title>
<ellipse fill="none" stroke="black" cx="1827.97" cy="-370.34" rx="181.95" ry="37.45"/>
<text text-anchor="middle" x="1827.97" y="-381.64" font-family="Times,serif" font-size="14.00">lo</text>
<text text-anchor="middle" x="1827.97" y="-366.64" font-family="Times,serif" font-size="14.00">da0ns0 (det)</text>
<text text-anchor="middle" x="1827.97" y="-351.64" font-family="Times,serif" font-size="14.00">rep=no, t=no, r=no, m=no, c=no</text>
</g>
<!-- n12&#45;&gt;n11 -->
<g id="edge14" class="edge">
<title>n12&#45;&gt;n11</title>
<path fill="none" stroke="black" d="M1827.97,-443.71C1827.97,-435.53 1827.97,-426.75 1827.97,-418.23"/>
<polygon fill="black" stroke="black" points="1831.47,-418.01 1827.97,-408.01 1824.47,-418.01 1831.47,-418.01"/>
</g>
<!-- n14 -->
<g id="node16" class="node">
<title>n14</title>
<ellipse fill="none" stroke="black" cx="2208.97" cy="-370.34" rx="181.95" ry="37.45"/>
<text text-anchor="middle" x="2208.97" y="-381.64" font-family="Times,serif" font-size="14.00">seguir</text>
<text text-anchor="middle" x="2208.97" y="-366.64" font-family="Times,serif" font-size="14.00">vmn0000 (cobj)</text>
<text text-anchor="middle" x="2208.97" y="-351.64" font-family="Times,serif" font-size="14.00">rep=no, t=no, r=no, m=no, c=no</text>
</g>
<!-- n17&#45;&gt;n14 -->
<g id="edge15" class="edge">
<title>n17&#45;&gt;n14</title>
<path fill="none" stroke="black" d="M2208.97,-443.71C2208.97,-435.53 2208.97,-426.75 2208.97,-418.23"/>
<polygon fill="black" stroke="black" points="2212.47,-418.01 2208.97,-408.01 2205.47,-418.01 2212.47,-418.01"/>
</g>
<!-- n16 -->
<g id="node17" class="node">
<title>n16</title>
<ellipse fill="none" stroke="black" cx="2018.97" cy="-259.38" rx="181.95" ry="37.45"/>
<text text-anchor="middle" x="2018.97" y="-270.68" font-family="Times,serif" font-size="14.00">vida</text>
<text text-anchor="middle" x="2018.97" y="-255.68" font-family="Times,serif" font-size="14.00">ncfs000 (dobj)</text>
<text text-anchor="middle" x="2018.97" y="-240.68" font-family="Times,serif" font-size="14.00">rep=no, t=no, r=no, m=no, c=no</text>
</g>
<!-- n14&#45;&gt;n16 -->
<g id="edge16" class="edge">
<title>n14&#45;&gt;n16</title>
<path fill="none" stroke="black" d="M2148.85,-334.86C2129.44,-323.73 2107.77,-311.3 2087.77,-299.84"/>
<polygon fill="black" stroke="black" points="2089.44,-296.76 2079.02,-294.82 2085.95,-302.83 2089.44,-296.76"/>
</g>
<!-- n18 -->
<g id="node18" class="node">
<title>n18</title>
<ellipse fill="none" stroke="black" cx="2399.97" cy="-259.38" rx="181.95" ry="37.45"/>
<text text-anchor="middle" x="2399.97" y="-270.68" font-family="Times,serif" font-size="14.00">hacerlo</text>
<text text-anchor="middle" x="2399.97" y="-255.68" font-family="Times,serif" font-size="14.00">vmn0000 (cobj)</text>
<text text-anchor="middle" x="2399.97" y="-240.68" font-family="Times,serif" font-size="14.00">rep=no, t=no, r=no, m=no, c=no</text>
</g>
<!-- n14&#45;&gt;n18 -->
<g id="edge17" class="edge">
<title>n14&#45;&gt;n18</title>
<path fill="none" stroke="black" d="M2269.4,-334.86C2288.92,-323.73 2310.7,-311.3 2330.8,-299.84"/>
<polygon fill="black" stroke="black" points="2332.65,-302.81 2339.6,-294.82 2329.18,-296.73 2332.65,-302.81"/>
</g>
<!-- n15 -->
<g id="node19" class="node">
<title>n15</title>
<ellipse fill="none" stroke="black" cx="2018.97" cy="-148.43" rx="181.95" ry="37.45"/>
<text text-anchor="middle" x="2018.97" y="-159.73" font-family="Times,serif" font-size="14.00">tu</text>
<text text-anchor="middle" x="2018.97" y="-144.73" font-family="Times,serif" font-size="14.00">dp2css (poss)</text>
<text text-anchor="middle" x="2018.97" y="-129.73" font-family="Times,serif" font-size="14.00">rep=no, t=no, r=no, m=no, c=no</text>
</g>
<!-- n16&#45;&gt;n15 -->
<g id="edge18" class="edge">
<title>n16&#45;&gt;n15</title>
<path fill="none" stroke="black" d="M2018.97,-221.8C2018.97,-213.63 2018.97,-204.85 2018.97,-196.32"/>
<polygon fill="black" stroke="black" points="2022.47,-196.1 2018.97,-186.1 2015.47,-196.1 2022.47,-196.1"/>
</g>
<!-- n20 -->
<g id="node20" class="node">
<title>n20</title>
<ellipse fill="none" stroke="black" cx="2399.97" cy="-148.43" rx="181.95" ry="37.45"/>
<text text-anchor="middle" x="2399.97" y="-159.73" font-family="Times,serif" font-size="14.00">mejor</text>
<text text-anchor="middle" x="2399.97" y="-144.73" font-family="Times,serif" font-size="14.00">aq0cs0 (cpred)</text>
<text text-anchor="middle" x="2399.97" y="-129.73" font-family="Times,serif" font-size="14.00">rep=no, t=no, r=no, m=no, c=no</text>
</g>
<!-- n18&#45;&gt;n20 -->
<g id="edge19" class="edge">
<title>n18&#45;&gt;n20</title>
<path fill="none" stroke="black" d="M2399.97,-221.8C2399.97,-213.63 2399.97,-204.85 2399.97,-196.32"/>
<polygon fill="black" stroke="black" points="2403.47,-196.1 2399.97,-186.1 2396.47,-196.1 2403.47,-196.1"/>
</g>
<!-- n21 -->
<g id="node21" class="node">
<title>n21</title>
<ellipse fill="none" stroke="black" cx="2780.97" cy="-148.43" rx="181.95" ry="37.45"/>
<text text-anchor="middle" x="2780.97" y="-159.73" font-family="Times,serif" font-size="14.00">posible</text>
<text text-anchor="middle" x="2780.97" y="-144.73" font-family="Times,serif" font-size="14.00">aq0cs0 (cpred)</text>
<text text-anchor="middle" x="2780.97" y="-129.73" font-family="Times,serif" font-size="14.00">rep=no, t=no, r=no, m=no, c=no</text>
</g>
<!-- n18&#45;&gt;n21 -->
<g id="edge20" class="edge">
<title>n18&#45;&gt;n21</title>
<path fill="none" stroke="black" d="M2504.08,-228.61C2554.58,-214.17 2615.37,-196.79 2667.1,-181.99"/>
<polygon fill="black" stroke="black" points="2668.33,-185.28 2676.99,-179.17 2666.41,-178.55 2668.33,-185.28"/>
</g>
<!-- n19 -->
<g id="node22" class="node">
<title>n19</title>
<ellipse fill="none" stroke="black" cx="2399.97" cy="-37.48" rx="181.95" ry="37.45"/>
<text text-anchor="middle" x="2399.97" y="-48.78" font-family="Times,serif" font-size="14.00">lo</text>
<text text-anchor="middle" x="2399.97" y="-33.78" font-family="Times,serif" font-size="14.00">da0ns0 (det)</text>
<text text-anchor="middle" x="2399.97" y="-18.78" font-family="Times,serif" font-size="14.00">rep=no, t=no, r=no, m=no, c=no</text>
</g>
<!-- n20&#45;&gt;n19 -->
<g id="edge21" class="edge">
<title>n20&#45;&gt;n19</title>
<path fill="none" stroke="black" d="M2399.97,-110.85C2399.97,-102.67 2399.97,-93.89 2399.97,-85.37"/>
<polygon fill="black" stroke="black" points="2403.47,-85.15 2399.97,-75.15 2396.47,-85.15 2403.47,-85.15"/>
</g>
</g>
</svg>
