<?xml version="1.0" encoding="UTF-8" standalone="no"?>
<!DOCTYPE svg PUBLIC "-//W3C//DTD SVG 1.1//EN"
 "http://www.w3.org/Graphics/SVG/1.1/DTD/svg11.dtd">
<!-- Generated by graphviz version 2.43.0 (0)
 -->
<!-- Title: tree Pages: 1 -->
<svg width="1780pt" height="971pt"
 viewBox="0.00 0.00 1779.89 970.58" xmlns="http://www.w3.org/2000/svg" xmlns:xlink="http://www.w3.org/1999/xlink">
<g id="graph0" class="graph" transform="scale(1 1) rotate(0) translate(4 966.58)">
<title>tree</title>
<polygon fill="white" stroke="transparent" points="-4,4 -4,-966.58 1775.89,-966.58 1775.89,4 -4,4"/>
<!-- n5 -->
<g id="node1" class="node">
<title>n5</title>
<ellipse fill="#98D2A5" stroke="black" cx="780.97" cy="-925.1" rx="190.84" ry="37.45"/>
<text text-anchor="middle" x="780.97" y="-936.4" font-family="Times,serif" font-size="14.00">llega</text>
<text text-anchor="middle" x="780.97" y="-921.4" font-family="Times,serif" font-size="14.00">vmip3s0 (root)</text>
<text text-anchor="middle" x="780.97" y="-906.4" font-family="Times,serif" font-size="14.00">rep=no, t=no, r=yes, m=yes, c=no</text>
</g>
<!-- n1 -->
<g id="node2" class="node">
<title>n1</title>
<ellipse fill="#98D2A5" stroke="black" cx="185.97" cy="-814.15" rx="185.94" ry="37.45"/>
<text text-anchor="middle" x="185.97" y="-825.45" font-family="Times,serif" font-size="14.00">Con</text>
<text text-anchor="middle" x="185.97" y="-810.45" font-family="Times,serif" font-size="14.00">sps00 (prepv)</text>
<text text-anchor="middle" x="185.97" y="-795.45" font-family="Times,serif" font-size="14.00">rep=no, t=no, r=no, m=yes, c=no</text>
</g>
<!-- n5&#45;&gt;n1 -->
<g id="edge1" class="edge">
<title>n5&#45;&gt;n1</title>
<path fill="none" stroke="black" d="M642.56,-899.22C565.52,-885.33 467.9,-867.63 380.97,-851.63 364.4,-848.58 347.05,-845.36 329.82,-842.15"/>
<polygon fill="black" stroke="black" points="330.17,-838.66 319.69,-840.27 328.88,-845.54 330.17,-838.66"/>
</g>
<!-- n4 -->
<g id="node3" class="node">
<title>n4</title>
<ellipse fill="#98D2A5" stroke="black" cx="580.97" cy="-814.15" rx="190.84" ry="37.45"/>
<text text-anchor="middle" x="580.97" y="-825.45" font-family="Times,serif" font-size="14.00">uno</text>
<text text-anchor="middle" x="580.97" y="-810.45" font-family="Times,serif" font-size="14.00">pi0ms000 (nsubj)</text>
<text text-anchor="middle" x="580.97" y="-795.45" font-family="Times,serif" font-size="14.00">rep=no, t=yes, r=no, m=yes, c=no</text>
</g>
<!-- n5&#45;&gt;n4 -->
<g id="edge2" class="edge">
<title>n5&#45;&gt;n4</title>
<path fill="none" stroke="black" d="M717.69,-889.63C697.16,-878.45 674.23,-865.96 653.11,-854.45"/>
<polygon fill="black" stroke="black" points="654.64,-851.3 644.18,-849.59 651.29,-857.44 654.64,-851.3"/>
</g>
<!-- n6 -->
<g id="node4" class="node">
<title>n6</title>
<ellipse fill="#98D2A5" stroke="black" cx="980.97" cy="-814.15" rx="190.84" ry="37.45"/>
<text text-anchor="middle" x="980.97" y="-825.45" font-family="Times,serif" font-size="14.00">a</text>
<text text-anchor="middle" x="980.97" y="-810.45" font-family="Times,serif" font-size="14.00">sps00 (oobj)</text>
<text text-anchor="middle" x="980.97" y="-795.45" font-family="Times,serif" font-size="14.00">rep=no, t=no, r=yes, m=yes, c=no</text>
</g>
<!-- n5&#45;&gt;n6 -->
<g id="edge3" class="edge">
<title>n5&#45;&gt;n6</title>
<path fill="none" stroke="black" d="M844.25,-889.63C864.78,-878.45 887.7,-865.96 908.83,-854.45"/>
<polygon fill="black" stroke="black" points="910.65,-857.44 917.76,-849.59 907.3,-851.3 910.65,-857.44"/>
</g>
<!-- n17 -->
<g id="node5" class="node">
<title>n17</title>
<ellipse fill="none" stroke="black" cx="1371.97" cy="-814.15" rx="181.95" ry="37.45"/>
<text text-anchor="middle" x="1371.97" y="-825.45" font-family="Times,serif" font-size="14.00">.</text>
<text text-anchor="middle" x="1371.97" y="-810.45" font-family="Times,serif" font-size="14.00">fp (punct)</text>
<text text-anchor="middle" x="1371.97" y="-795.45" font-family="Times,serif" font-size="14.00">rep=no, t=no, r=no, m=no, c=no</text>
</g>
<!-- n5&#45;&gt;n17 -->
<g id="edge4" class="edge">
<title>n5&#45;&gt;n17</title>
<path fill="none" stroke="black" d="M919.87,-899.27C996.84,-885.42 1094.24,-867.77 1180.97,-851.63 1197.27,-848.59 1214.34,-845.38 1231.3,-842.17"/>
<polygon fill="black" stroke="black" points="1232.09,-845.58 1241.26,-840.28 1230.78,-838.71 1232.09,-845.58"/>
</g>
<!-- n3 -->
<g id="node6" class="node">
<title>n3</title>
<ellipse fill="#98D2A5" stroke="black" cx="185.97" cy="-703.2" rx="185.94" ry="37.45"/>
<text text-anchor="middle" x="185.97" y="-714.5" font-family="Times,serif" font-size="14.00">edad</text>
<text text-anchor="middle" x="185.97" y="-699.5" font-family="Times,serif" font-size="14.00">ncfs000 (pobj)</text>
<text text-anchor="middle" x="185.97" y="-684.5" font-family="Times,serif" font-size="14.00">rep=no, t=no, r=no, m=yes, c=no</text>
</g>
<!-- n1&#45;&gt;n3 -->
<g id="edge5" class="edge">
<title>n1&#45;&gt;n3</title>
<path fill="none" stroke="black" d="M185.97,-776.57C185.97,-768.39 185.97,-759.61 185.97,-751.09"/>
<polygon fill="black" stroke="black" points="189.47,-750.87 185.97,-740.87 182.47,-750.87 189.47,-750.87"/>
</g>
<!-- n8 -->
<g id="node8" class="node">
<title>n8</title>
<ellipse fill="#98D2A5" stroke="black" cx="980.97" cy="-703.2" rx="190.84" ry="37.45"/>
<text text-anchor="middle" x="980.97" y="-714.5" font-family="Times,serif" font-size="14.00">conclusión</text>
<text text-anchor="middle" x="980.97" y="-699.5" font-family="Times,serif" font-size="14.00">ncfs000 (pobj)</text>
<text text-anchor="middle" x="980.97" y="-684.5" font-family="Times,serif" font-size="14.00">rep=no, t=no, r=yes, m=yes, c=no</text>
</g>
<!-- n6&#45;&gt;n8 -->
<g id="edge7" class="edge">
<title>n6&#45;&gt;n8</title>
<path fill="none" stroke="black" d="M980.97,-776.57C980.97,-768.39 980.97,-759.61 980.97,-751.09"/>
<polygon fill="black" stroke="black" points="984.47,-750.87 980.97,-740.87 977.47,-750.87 984.47,-750.87"/>
</g>
<!-- n2 -->
<g id="node7" class="node">
<title>n2</title>
<ellipse fill="#98D2A5" stroke="black" cx="185.97" cy="-592.24" rx="185.94" ry="37.45"/>
<text text-anchor="middle" x="185.97" y="-603.54" font-family="Times,serif" font-size="14.00">la</text>
<text text-anchor="middle" x="185.97" y="-588.54" font-family="Times,serif" font-size="14.00">da0fs0 (det)</text>
<text text-anchor="middle" x="185.97" y="-573.54" font-family="Times,serif" font-size="14.00">rep=no, t=no, r=no, m=yes, c=no</text>
</g>
<!-- n3&#45;&gt;n2 -->
<g id="edge6" class="edge">
<title>n3&#45;&gt;n2</title>
<path fill="none" stroke="black" d="M185.97,-665.61C185.97,-657.44 185.97,-648.66 185.97,-640.13"/>
<polygon fill="black" stroke="black" points="189.47,-639.92 185.97,-629.92 182.47,-639.92 189.47,-639.92"/>
</g>
<!-- n7 -->
<g id="node9" class="node">
<title>n7</title>
<ellipse fill="#98D2A5" stroke="black" cx="780.97" cy="-592.24" rx="190.84" ry="37.45"/>
<text text-anchor="middle" x="780.97" y="-603.54" font-family="Times,serif" font-size="14.00">la</text>
<text text-anchor="middle" x="780.97" y="-588.54" font-family="Times,serif" font-size="14.00">da0fs0 (det)</text>
<text text-anchor="middle" x="780.97" y="-573.54" font-family="Times,serif" font-size="14.00">rep=no, t=no, r=yes, m=yes, c=no</text>
</g>
<!-- n8&#45;&gt;n7 -->
<g id="edge8" class="edge">
<title>n8&#45;&gt;n7</title>
<path fill="none" stroke="black" d="M917.69,-667.72C897.16,-656.54 874.23,-644.05 853.11,-632.54"/>
<polygon fill="black" stroke="black" points="854.64,-629.39 844.18,-627.68 851.29,-635.54 854.64,-629.39"/>
</g>
<!-- n9 -->
<g id="node10" class="node">
<title>n9</title>
<ellipse fill="#98D2A5" stroke="black" cx="1180.97" cy="-592.24" rx="190.84" ry="37.45"/>
<text text-anchor="middle" x="1180.97" y="-603.54" font-family="Times,serif" font-size="14.00">de</text>
<text text-anchor="middle" x="1180.97" y="-588.54" font-family="Times,serif" font-size="14.00">sps00 (prepn)</text>
<text text-anchor="middle" x="1180.97" y="-573.54" font-family="Times,serif" font-size="14.00">rep=no, t=no, r=yes, m=yes, c=no</text>
</g>
<!-- n8&#45;&gt;n9 -->
<g id="edge9" class="edge">
<title>n8&#45;&gt;n9</title>
<path fill="none" stroke="black" d="M1044.25,-667.72C1064.78,-656.54 1087.7,-644.05 1108.83,-632.54"/>
<polygon fill="black" stroke="black" points="1110.65,-635.54 1117.76,-627.68 1107.3,-629.39 1110.65,-635.54"/>
</g>
<!-- n10 -->
<g id="node11" class="node">
<title>n10</title>
<ellipse fill="#98D2A5" stroke="black" cx="1180.97" cy="-481.29" rx="190.84" ry="37.45"/>
<text text-anchor="middle" x="1180.97" y="-492.59" font-family="Times,serif" font-size="14.00">que</text>
<text text-anchor="middle" x="1180.97" y="-477.59" font-family="Times,serif" font-size="14.00">cs (pobj)</text>
<text text-anchor="middle" x="1180.97" y="-462.59" font-family="Times,serif" font-size="14.00">rep=no, t=no, r=yes, m=yes, c=no</text>
</g>
<!-- n9&#45;&gt;n10 -->
<g id="edge10" class="edge">
<title>n9&#45;&gt;n10</title>
<path fill="none" stroke="black" d="M1180.97,-554.66C1180.97,-546.49 1180.97,-537.71 1180.97,-529.18"/>
<polygon fill="black" stroke="black" points="1184.47,-528.96 1180.97,-518.96 1177.47,-528.96 1184.47,-528.96"/>
</g>
<!-- n11 -->
<g id="node12" class="node">
<title>n11</title>
<ellipse fill="#98D2A5" stroke="black" cx="1180.97" cy="-370.34" rx="190.84" ry="37.45"/>
<text text-anchor="middle" x="1180.97" y="-381.64" font-family="Times,serif" font-size="14.00">es</text>
<text text-anchor="middle" x="1180.97" y="-366.64" font-family="Times,serif" font-size="14.00">vsip3s0 (cobj)</text>
<text text-anchor="middle" x="1180.97" y="-351.64" font-family="Times,serif" font-size="14.00">rep=no, t=no, r=yes, m=yes, c=no</text>
</g>
<!-- n10&#45;&gt;n11 -->
<g id="edge11" class="edge">
<title>n10&#45;&gt;n11</title>
<path fill="none" stroke="black" d="M1180.97,-443.71C1180.97,-435.53 1180.97,-426.75 1180.97,-418.23"/>
<polygon fill="black" stroke="black" points="1184.47,-418.01 1180.97,-408.01 1177.47,-418.01 1184.47,-418.01"/>
</g>
<!-- n13 -->
<g id="node13" class="node">
<title>n13</title>
<ellipse fill="#98D2A5" stroke="black" cx="1180.97" cy="-259.38" rx="190.84" ry="37.45"/>
<text text-anchor="middle" x="1180.97" y="-270.68" font-family="Times,serif" font-size="14.00">cambiar</text>
<text text-anchor="middle" x="1180.97" y="-255.68" font-family="Times,serif" font-size="14.00">vmn0000 (cobj)</text>
<text text-anchor="middle" x="1180.97" y="-240.68" font-family="Times,serif" font-size="14.00">rep=no, t=no, r=yes, m=yes, c=no</text>
</g>
<!-- n11&#45;&gt;n13 -->
<g id="edge12" class="edge">
<title>n11&#45;&gt;n13</title>
<path fill="none" stroke="black" d="M1180.97,-332.75C1180.97,-324.58 1180.97,-315.8 1180.97,-307.27"/>
<polygon fill="black" stroke="black" points="1184.47,-307.06 1180.97,-297.06 1177.47,-307.06 1184.47,-307.06"/>
</g>
<!-- n12 -->
<g id="node14" class="node">
<title>n12</title>
<ellipse fill="#98D2A5" stroke="black" cx="980.97" cy="-148.43" rx="190.84" ry="37.45"/>
<text text-anchor="middle" x="980.97" y="-159.73" font-family="Times,serif" font-size="14.00">imposible</text>
<text text-anchor="middle" x="980.97" y="-144.73" font-family="Times,serif" font-size="14.00">aq0cs0 (cpred)</text>
<text text-anchor="middle" x="980.97" y="-129.73" font-family="Times,serif" font-size="14.00">rep=no, t=no, r=yes, m=yes, c=no</text>
</g>
<!-- n13&#45;&gt;n12 -->
<g id="edge13" class="edge">
<title>n13&#45;&gt;n12</title>
<path fill="none" stroke="black" d="M1117.69,-223.91C1097.16,-212.73 1074.23,-200.24 1053.11,-188.73"/>
<polygon fill="black" stroke="black" points="1054.64,-185.58 1044.18,-183.87 1051.29,-191.72 1054.64,-185.58"/>
</g>
<!-- n15 -->
<g id="node15" class="node">
<title>n15</title>
<ellipse fill="#98D2A5" stroke="black" cx="1380.97" cy="-148.43" rx="190.84" ry="37.45"/>
<text text-anchor="middle" x="1380.97" y="-159.73" font-family="Times,serif" font-size="14.00">cosas</text>
<text text-anchor="middle" x="1380.97" y="-144.73" font-family="Times,serif" font-size="14.00">ncfp000 (dobj)</text>
<text text-anchor="middle" x="1380.97" y="-129.73" font-family="Times,serif" font-size="14.00">rep=no, t=no, r=yes, m=yes, c=no</text>
</g>
<!-- n13&#45;&gt;n15 -->
<g id="edge14" class="edge">
<title>n13&#45;&gt;n15</title>
<path fill="none" stroke="black" d="M1244.25,-223.91C1264.78,-212.73 1287.7,-200.24 1308.83,-188.73"/>
<polygon fill="black" stroke="black" points="1310.65,-191.72 1317.76,-183.87 1307.3,-185.58 1310.65,-191.72"/>
</g>
<!-- n14 -->
<g id="node16" class="node">
<title>n14</title>
<ellipse fill="#98D2A5" stroke="black" cx="1180.97" cy="-37.48" rx="190.84" ry="37.45"/>
<text text-anchor="middle" x="1180.97" y="-48.78" font-family="Times,serif" font-size="14.00">las</text>
<text text-anchor="middle" x="1180.97" y="-33.78" font-family="Times,serif" font-size="14.00">da0fp0 (det)</text>
<text text-anchor="middle" x="1180.97" y="-18.78" font-family="Times,serif" font-size="14.00">rep=no, t=no, r=yes, m=yes, c=no</text>
</g>
<!-- n15&#45;&gt;n14 -->
<g id="edge15" class="edge">
<title>n15&#45;&gt;n14</title>
<path fill="none" stroke="black" d="M1317.69,-112.96C1297.16,-101.77 1274.23,-89.28 1253.11,-77.78"/>
<polygon fill="black" stroke="black" points="1254.64,-74.62 1244.18,-72.91 1251.29,-80.77 1254.64,-74.62"/>
</g>
<!-- n16 -->
<g id="node17" class="node">
<title>n16</title>
<ellipse fill="#98D2A5" stroke="black" cx="1580.97" cy="-37.48" rx="190.84" ry="37.45"/>
<text text-anchor="middle" x="1580.97" y="-48.78" font-family="Times,serif" font-size="14.00">importantes</text>
<text text-anchor="middle" x="1580.97" y="-33.78" font-family="Times,serif" font-size="14.00">aq0cp0 (amod)</text>
<text text-anchor="middle" x="1580.97" y="-18.78" font-family="Times,serif" font-size="14.00">rep=no, t=no, r=yes, m=yes, c=no</text>
</g>
<!-- n15&#45;&gt;n16 -->
<g id="edge16" class="edge">
<title>n15&#45;&gt;n16</title>
<path fill="none" stroke="black" d="M1444.25,-112.96C1464.78,-101.77 1487.7,-89.28 1508.83,-77.78"/>
<polygon fill="black" stroke="black" points="1510.65,-80.77 1517.76,-72.91 1507.3,-74.62 1510.65,-80.77"/>
</g>
</g>
</svg>
