<?xml version="1.0" encoding="UTF-8" standalone="no"?>
<!DOCTYPE svg PUBLIC "-//W3C//DTD SVG 1.1//EN"
 "http://www.w3.org/Graphics/SVG/1.1/DTD/svg11.dtd">
<!-- Generated by graphviz version 2.43.0 (0)
 -->
<!-- Title: tree Pages: 1 -->
<svg width="2792pt" height="860pt"
 viewBox="0.00 0.00 2791.84 859.63" xmlns="http://www.w3.org/2000/svg" xmlns:xlink="http://www.w3.org/1999/xlink">
<g id="graph0" class="graph" transform="scale(1 1) rotate(0) translate(4 855.63)">
<title>tree</title>
<polygon fill="white" stroke="transparent" points="-4,4 -4,-855.63 2787.84,-855.63 2787.84,4 -4,4"/>
<!-- n3 -->
<g id="node1" class="node">
<title>n3</title>
<ellipse fill="#DA79E8" stroke="black" cx="1584.92" cy="-814.15" rx="190.84" ry="37.45"/>
<text text-anchor="middle" x="1584.92" y="-825.45" font-family="Times,serif" font-size="14.00">obligó</text>
<text text-anchor="middle" x="1584.92" y="-810.45" font-family="Times,serif" font-size="14.00">vmis3s0 (root)</text>
<text text-anchor="middle" x="1584.92" y="-795.45" font-family="Times,serif" font-size="14.00">rep=no, t=no, r=yes, m=yes, c=no</text>
</g>
<!-- n2 -->
<g id="node2" class="node">
<title>n2</title>
<ellipse fill="#BEDA48" stroke="black" cx="1184.92" cy="-703.2" rx="190.84" ry="37.45"/>
<text text-anchor="middle" x="1184.92" y="-714.5" font-family="Times,serif" font-size="14.00">hecho</text>
<text text-anchor="middle" x="1184.92" y="-699.5" font-family="Times,serif" font-size="14.00">ncms000 (nsubj)</text>
<text text-anchor="middle" x="1184.92" y="-684.5" font-family="Times,serif" font-size="14.00">rep=no, t=yes, r=no, m=yes, c=no</text>
</g>
<!-- n3&#45;&gt;n2 -->
<g id="edge1" class="edge">
<title>n3&#45;&gt;n2</title>
<path fill="none" stroke="black" d="M1475.62,-783.38C1422.48,-768.9 1358.51,-751.48 1304.12,-736.67"/>
<polygon fill="black" stroke="black" points="1305,-733.28 1294.44,-734.03 1303.16,-740.03 1305,-733.28"/>
</g>
<!-- n4 -->
<g id="node3" class="node">
<title>n4</title>
<ellipse fill="#DA79E8" stroke="black" cx="1584.92" cy="-703.2" rx="190.84" ry="37.45"/>
<text text-anchor="middle" x="1584.92" y="-714.5" font-family="Times,serif" font-size="14.00">a</text>
<text text-anchor="middle" x="1584.92" y="-699.5" font-family="Times,serif" font-size="14.00">sps00 (oobj)</text>
<text text-anchor="middle" x="1584.92" y="-684.5" font-family="Times,serif" font-size="14.00">rep=no, t=no, r=yes, m=yes, c=no</text>
</g>
<!-- n3&#45;&gt;n4 -->
<g id="edge2" class="edge">
<title>n3&#45;&gt;n4</title>
<path fill="none" stroke="black" d="M1584.92,-776.57C1584.92,-768.39 1584.92,-759.61 1584.92,-751.09"/>
<polygon fill="black" stroke="black" points="1588.42,-750.87 1584.92,-740.87 1581.42,-750.87 1588.42,-750.87"/>
</g>
<!-- n27 -->
<g id="node4" class="node">
<title>n27</title>
<ellipse fill="none" stroke="black" cx="1975.92" cy="-703.2" rx="181.95" ry="37.45"/>
<text text-anchor="middle" x="1975.92" y="-714.5" font-family="Times,serif" font-size="14.00">.</text>
<text text-anchor="middle" x="1975.92" y="-699.5" font-family="Times,serif" font-size="14.00">fp (punct)</text>
<text text-anchor="middle" x="1975.92" y="-684.5" font-family="Times,serif" font-size="14.00">rep=no, t=no, r=no, m=no, c=no</text>
</g>
<!-- n3&#45;&gt;n27 -->
<g id="edge3" class="edge">
<title>n3&#45;&gt;n27</title>
<path fill="none" stroke="black" d="M1692.54,-783.16C1744.57,-768.66 1807.09,-751.24 1860.16,-736.45"/>
<polygon fill="black" stroke="black" points="1861.26,-739.78 1869.95,-733.73 1859.38,-733.04 1861.26,-739.78"/>
</g>
<!-- n1 -->
<g id="node5" class="node">
<title>n1</title>
<ellipse fill="#BEDA48" stroke="black" cx="1184.92" cy="-592.24" rx="190.84" ry="37.45"/>
<text text-anchor="middle" x="1184.92" y="-603.54" font-family="Times,serif" font-size="14.00">El</text>
<text text-anchor="middle" x="1184.92" y="-588.54" font-family="Times,serif" font-size="14.00">da0ms0 (det)</text>
<text text-anchor="middle" x="1184.92" y="-573.54" font-family="Times,serif" font-size="14.00">rep=no, t=yes, r=no, m=yes, c=no</text>
</g>
<!-- n2&#45;&gt;n1 -->
<g id="edge4" class="edge">
<title>n2&#45;&gt;n1</title>
<path fill="none" stroke="black" d="M1184.92,-665.61C1184.92,-657.44 1184.92,-648.66 1184.92,-640.13"/>
<polygon fill="black" stroke="black" points="1188.42,-639.92 1184.92,-629.92 1181.42,-639.92 1188.42,-639.92"/>
</g>
<!-- n5 -->
<g id="node6" class="node">
<title>n5</title>
<ellipse fill="#DA79E8" stroke="black" cx="1584.92" cy="-592.24" rx="190.84" ry="37.45"/>
<text text-anchor="middle" x="1584.92" y="-603.54" font-family="Times,serif" font-size="14.00">desalojar</text>
<text text-anchor="middle" x="1584.92" y="-588.54" font-family="Times,serif" font-size="14.00">vmn0000 (pobj)</text>
<text text-anchor="middle" x="1584.92" y="-573.54" font-family="Times,serif" font-size="14.00">rep=no, t=no, r=yes, m=yes, c=no</text>
</g>
<!-- n4&#45;&gt;n5 -->
<g id="edge5" class="edge">
<title>n4&#45;&gt;n5</title>
<path fill="none" stroke="black" d="M1584.92,-665.61C1584.92,-657.44 1584.92,-648.66 1584.92,-640.13"/>
<polygon fill="black" stroke="black" points="1588.42,-639.92 1584.92,-629.92 1581.42,-639.92 1588.42,-639.92"/>
</g>
<!-- n7 -->
<g id="node7" class="node">
<title>n7</title>
<ellipse fill="#DA79E8" stroke="black" cx="590.92" cy="-481.29" rx="195.74" ry="37.45"/>
<text text-anchor="middle" x="590.92" y="-492.59" font-family="Times,serif" font-size="14.00">tienda</text>
<text text-anchor="middle" x="590.92" y="-477.59" font-family="Times,serif" font-size="14.00">ncfs000 (dobj)</text>
<text text-anchor="middle" x="590.92" y="-462.59" font-family="Times,serif" font-size="14.00">rep=no, t=no, r=yes, m=yes, c=yes</text>
</g>
<!-- n5&#45;&gt;n7 -->
<g id="edge6" class="edge">
<title>n5&#45;&gt;n7</title>
<path fill="none" stroke="black" d="M1452.05,-565.3C1429.7,-561.42 1406.69,-557.74 1384.92,-554.77 1180.9,-526.91 945.88,-506.95 784.78,-495.12"/>
<polygon fill="black" stroke="black" points="784.98,-491.63 774.75,-494.39 784.47,-498.61 784.98,-491.63"/>
</g>
<!-- n14 -->
<g id="node8" class="node">
<title>n14</title>
<ellipse fill="#DA79E8" stroke="black" cx="1382.92" cy="-481.29" rx="195.74" ry="37.45"/>
<text text-anchor="middle" x="1382.92" y="-492.59" font-family="Times,serif" font-size="14.00">oficina</text>
<text text-anchor="middle" x="1382.92" y="-477.59" font-family="Times,serif" font-size="14.00">ncfs000 (dobj)</text>
<text text-anchor="middle" x="1382.92" y="-462.59" font-family="Times,serif" font-size="14.00">rep=no, t=no, r=yes, m=yes, c=yes</text>
</g>
<!-- n5&#45;&gt;n14 -->
<g id="edge7" class="edge">
<title>n5&#45;&gt;n14</title>
<path fill="none" stroke="black" d="M1521,-556.77C1500.27,-545.59 1477.12,-533.1 1455.78,-521.59"/>
<polygon fill="black" stroke="black" points="1457.23,-518.39 1446.76,-516.73 1453.9,-524.55 1457.23,-518.39"/>
</g>
<!-- n18 -->
<g id="node9" class="node">
<title>n18</title>
<ellipse fill="#DA79E8" stroke="black" cx="1787.92" cy="-481.29" rx="190.84" ry="37.45"/>
<text text-anchor="middle" x="1787.92" y="-492.59" font-family="Times,serif" font-size="14.00">y</text>
<text text-anchor="middle" x="1787.92" y="-477.59" font-family="Times,serif" font-size="14.00">cc (coord_fixed)</text>
<text text-anchor="middle" x="1787.92" y="-462.59" font-family="Times,serif" font-size="14.00">rep=no, t=no, r=yes, m=yes, c=no</text>
</g>
<!-- n5&#45;&gt;n18 -->
<g id="edge8" class="edge">
<title>n5&#45;&gt;n18</title>
<path fill="none" stroke="black" d="M1648.87,-556.92C1669.91,-545.63 1693.46,-532.99 1715.11,-521.37"/>
<polygon fill="black" stroke="black" points="1716.78,-524.44 1723.94,-516.63 1713.47,-518.27 1716.78,-524.44"/>
</g>
<!-- n19 -->
<g id="node10" class="node">
<title>n19</title>
<ellipse fill="#DA79E8" stroke="black" cx="2192.92" cy="-481.29" rx="195.74" ry="37.45"/>
<text text-anchor="middle" x="2192.92" y="-492.59" font-family="Times,serif" font-size="14.00">a</text>
<text text-anchor="middle" x="2192.92" y="-477.59" font-family="Times,serif" font-size="14.00">sps00 (dobj)</text>
<text text-anchor="middle" x="2192.92" y="-462.59" font-family="Times,serif" font-size="14.00">rep=no, t=no, r=yes, m=yes, c=yes</text>
</g>
<!-- n5&#45;&gt;n19 -->
<g id="edge9" class="edge">
<title>n5&#45;&gt;n19</title>
<path fill="none" stroke="black" d="M1723.64,-566.38C1818.77,-549.34 1944.93,-526.73 2042.47,-509.25"/>
<polygon fill="black" stroke="black" points="2043.19,-512.68 2052.42,-507.47 2041.96,-505.79 2043.19,-512.68"/>
</g>
<!-- n6 -->
<g id="node11" class="node">
<title>n6</title>
<ellipse fill="#DA79E8" stroke="black" cx="190.92" cy="-370.34" rx="190.84" ry="37.45"/>
<text text-anchor="middle" x="190.92" y="-381.64" font-family="Times,serif" font-size="14.00">una</text>
<text text-anchor="middle" x="190.92" y="-366.64" font-family="Times,serif" font-size="14.00">di0fs0 (det)</text>
<text text-anchor="middle" x="190.92" y="-351.64" font-family="Times,serif" font-size="14.00">rep=no, t=no, r=yes, m=yes, c=no</text>
</g>
<!-- n7&#45;&gt;n6 -->
<g id="edge10" class="edge">
<title>n7&#45;&gt;n6</title>
<path fill="none" stroke="black" d="M480.56,-450.23C427.66,-435.82 364.21,-418.54 310.2,-403.83"/>
<polygon fill="black" stroke="black" points="310.8,-400.36 300.23,-401.11 308.96,-407.12 310.8,-400.36"/>
</g>
<!-- n8 -->
<g id="node12" class="node">
<title>n8</title>
<ellipse fill="#DA79E8" stroke="black" cx="590.92" cy="-370.34" rx="190.84" ry="37.45"/>
<text text-anchor="middle" x="590.92" y="-381.64" font-family="Times,serif" font-size="14.00">en</text>
<text text-anchor="middle" x="590.92" y="-366.64" font-family="Times,serif" font-size="14.00">sps00 (prepn)</text>
<text text-anchor="middle" x="590.92" y="-351.64" font-family="Times,serif" font-size="14.00">rep=no, t=no, r=yes, m=yes, c=no</text>
</g>
<!-- n7&#45;&gt;n8 -->
<g id="edge11" class="edge">
<title>n7&#45;&gt;n8</title>
<path fill="none" stroke="black" d="M590.92,-443.71C590.92,-435.53 590.92,-426.75 590.92,-418.23"/>
<polygon fill="black" stroke="black" points="594.42,-418.01 590.92,-408.01 587.42,-418.01 594.42,-418.01"/>
</g>
<!-- n13 -->
<g id="node16" class="node">
<title>n13</title>
<ellipse fill="#DA79E8" stroke="black" cx="990.92" cy="-370.34" rx="190.84" ry="37.45"/>
<text text-anchor="middle" x="990.92" y="-381.64" font-family="Times,serif" font-size="14.00">una</text>
<text text-anchor="middle" x="990.92" y="-366.64" font-family="Times,serif" font-size="14.00">di0fs0 (det)</text>
<text text-anchor="middle" x="990.92" y="-351.64" font-family="Times,serif" font-size="14.00">rep=no, t=no, r=yes, m=yes, c=no</text>
</g>
<!-- n14&#45;&gt;n13 -->
<g id="edge15" class="edge">
<title>n14&#45;&gt;n13</title>
<path fill="none" stroke="black" d="M1274.25,-450.09C1222.73,-435.77 1161.1,-418.64 1108.5,-404.02"/>
<polygon fill="black" stroke="black" points="1109.36,-400.62 1098.78,-401.32 1107.48,-407.37 1109.36,-400.62"/>
</g>
<!-- n15 -->
<g id="node17" class="node">
<title>n15</title>
<ellipse fill="#DA79E8" stroke="black" cx="1390.92" cy="-370.34" rx="190.84" ry="37.45"/>
<text text-anchor="middle" x="1390.92" y="-381.64" font-family="Times,serif" font-size="14.00">del</text>
<text text-anchor="middle" x="1390.92" y="-366.64" font-family="Times,serif" font-size="14.00">spcms (prepn)</text>
<text text-anchor="middle" x="1390.92" y="-351.64" font-family="Times,serif" font-size="14.00">rep=no, t=no, r=yes, m=yes, c=no</text>
</g>
<!-- n14&#45;&gt;n15 -->
<g id="edge16" class="edge">
<title>n14&#45;&gt;n15</title>
<path fill="none" stroke="black" d="M1385.6,-443.71C1386.21,-435.53 1386.85,-426.75 1387.48,-418.23"/>
<polygon fill="black" stroke="black" points="1390.98,-418.24 1388.23,-408.01 1384,-417.73 1390.98,-418.24"/>
</g>
<!-- n12 -->
<g id="node20" class="node">
<title>n12</title>
<ellipse fill="#DA79E8" stroke="black" cx="1790.92" cy="-370.34" rx="190.84" ry="37.45"/>
<text text-anchor="middle" x="1790.92" y="-381.64" font-family="Times,serif" font-size="14.00">,</text>
<text text-anchor="middle" x="1790.92" y="-366.64" font-family="Times,serif" font-size="14.00">fc (punct)</text>
<text text-anchor="middle" x="1790.92" y="-351.64" font-family="Times,serif" font-size="14.00">rep=no, t=no, r=yes, m=yes, c=no</text>
</g>
<!-- n18&#45;&gt;n12 -->
<g id="edge19" class="edge">
<title>n18&#45;&gt;n12</title>
<path fill="none" stroke="black" d="M1788.93,-443.71C1789.15,-435.53 1789.39,-426.75 1789.63,-418.23"/>
<polygon fill="black" stroke="black" points="1793.13,-418.1 1789.91,-408.01 1786.14,-417.91 1793.13,-418.1"/>
</g>
<!-- n21 -->
<g id="node21" class="node">
<title>n21</title>
<ellipse fill="#DA79E8" stroke="black" cx="2192.92" cy="-370.34" rx="190.84" ry="37.45"/>
<text text-anchor="middle" x="2192.92" y="-381.64" font-family="Times,serif" font-size="14.00">mujer</text>
<text text-anchor="middle" x="2192.92" y="-366.64" font-family="Times,serif" font-size="14.00">ncfs000 (pobj)</text>
<text text-anchor="middle" x="2192.92" y="-351.64" font-family="Times,serif" font-size="14.00">rep=no, t=no, r=yes, m=yes, c=no</text>
</g>
<!-- n19&#45;&gt;n21 -->
<g id="edge20" class="edge">
<title>n19&#45;&gt;n21</title>
<path fill="none" stroke="black" d="M2192.92,-443.71C2192.92,-435.53 2192.92,-426.75 2192.92,-418.23"/>
<polygon fill="black" stroke="black" points="2196.42,-418.01 2192.92,-408.01 2189.42,-418.01 2196.42,-418.01"/>
</g>
<!-- n10 -->
<g id="node13" class="node">
<title>n10</title>
<ellipse fill="#DA79E8" stroke="black" cx="590.92" cy="-259.38" rx="190.84" ry="37.45"/>
<text text-anchor="middle" x="590.92" y="-270.68" font-family="Times,serif" font-size="14.00">planta</text>
<text text-anchor="middle" x="590.92" y="-255.68" font-family="Times,serif" font-size="14.00">ncfs000 (pobj)</text>
<text text-anchor="middle" x="590.92" y="-240.68" font-family="Times,serif" font-size="14.00">rep=no, t=no, r=yes, m=yes, c=no</text>
</g>
<!-- n8&#45;&gt;n10 -->
<g id="edge12" class="edge">
<title>n8&#45;&gt;n10</title>
<path fill="none" stroke="black" d="M590.92,-332.75C590.92,-324.58 590.92,-315.8 590.92,-307.27"/>
<polygon fill="black" stroke="black" points="594.42,-307.06 590.92,-297.06 587.42,-307.06 594.42,-307.06"/>
</g>
<!-- n9 -->
<g id="node14" class="node">
<title>n9</title>
<ellipse fill="#DA79E8" stroke="black" cx="390.92" cy="-148.43" rx="190.84" ry="37.45"/>
<text text-anchor="middle" x="390.92" y="-159.73" font-family="Times,serif" font-size="14.00">la</text>
<text text-anchor="middle" x="390.92" y="-144.73" font-family="Times,serif" font-size="14.00">da0fs0 (det)</text>
<text text-anchor="middle" x="390.92" y="-129.73" font-family="Times,serif" font-size="14.00">rep=no, t=no, r=yes, m=yes, c=no</text>
</g>
<!-- n10&#45;&gt;n9 -->
<g id="edge13" class="edge">
<title>n10&#45;&gt;n9</title>
<path fill="none" stroke="black" d="M527.64,-223.91C507.11,-212.73 484.18,-200.24 463.06,-188.73"/>
<polygon fill="black" stroke="black" points="464.59,-185.58 454.13,-183.87 461.24,-191.72 464.59,-185.58"/>
</g>
<!-- n11 -->
<g id="node15" class="node">
<title>n11</title>
<ellipse fill="#DA79E8" stroke="black" cx="790.92" cy="-148.43" rx="190.84" ry="37.45"/>
<text text-anchor="middle" x="790.92" y="-159.73" font-family="Times,serif" font-size="14.00">baja</text>
<text text-anchor="middle" x="790.92" y="-144.73" font-family="Times,serif" font-size="14.00">aq0fs0 (amod)</text>
<text text-anchor="middle" x="790.92" y="-129.73" font-family="Times,serif" font-size="14.00">rep=no, t=no, r=yes, m=yes, c=no</text>
</g>
<!-- n10&#45;&gt;n11 -->
<g id="edge14" class="edge">
<title>n10&#45;&gt;n11</title>
<path fill="none" stroke="black" d="M654.2,-223.91C674.73,-212.73 697.65,-200.24 718.78,-188.73"/>
<polygon fill="black" stroke="black" points="720.6,-191.72 727.71,-183.87 717.25,-185.58 720.6,-191.72"/>
</g>
<!-- n17 -->
<g id="node18" class="node">
<title>n17</title>
<ellipse fill="#DA79E8" stroke="black" cx="1390.92" cy="-259.38" rx="190.84" ry="37.45"/>
<text text-anchor="middle" x="1390.92" y="-270.68" font-family="Times,serif" font-size="14.00">piso</text>
<text text-anchor="middle" x="1390.92" y="-255.68" font-family="Times,serif" font-size="14.00">ncms000 (pobj)</text>
<text text-anchor="middle" x="1390.92" y="-240.68" font-family="Times,serif" font-size="14.00">rep=no, t=no, r=yes, m=yes, c=no</text>
</g>
<!-- n15&#45;&gt;n17 -->
<g id="edge17" class="edge">
<title>n15&#45;&gt;n17</title>
<path fill="none" stroke="black" d="M1390.92,-332.75C1390.92,-324.58 1390.92,-315.8 1390.92,-307.27"/>
<polygon fill="black" stroke="black" points="1394.42,-307.06 1390.92,-297.06 1387.42,-307.06 1394.42,-307.06"/>
</g>
<!-- n16 -->
<g id="node19" class="node">
<title>n16</title>
<ellipse fill="#DA79E8" stroke="black" cx="1390.92" cy="-148.43" rx="190.84" ry="37.45"/>
<text text-anchor="middle" x="1390.92" y="-159.73" font-family="Times,serif" font-size="14.00">primer</text>
<text text-anchor="middle" x="1390.92" y="-144.73" font-family="Times,serif" font-size="14.00">ao0ms0 (amod)</text>
<text text-anchor="middle" x="1390.92" y="-129.73" font-family="Times,serif" font-size="14.00">rep=no, t=no, r=yes, m=yes, c=no</text>
</g>
<!-- n17&#45;&gt;n16 -->
<g id="edge18" class="edge">
<title>n17&#45;&gt;n16</title>
<path fill="none" stroke="black" d="M1390.92,-221.8C1390.92,-213.63 1390.92,-204.85 1390.92,-196.32"/>
<polygon fill="black" stroke="black" points="1394.42,-196.1 1390.92,-186.1 1387.42,-196.1 1394.42,-196.1"/>
</g>
<!-- n20 -->
<g id="node22" class="node">
<title>n20</title>
<ellipse fill="#DA79E8" stroke="black" cx="1792.92" cy="-259.38" rx="190.84" ry="37.45"/>
<text text-anchor="middle" x="1792.92" y="-270.68" font-family="Times,serif" font-size="14.00">una</text>
<text text-anchor="middle" x="1792.92" y="-255.68" font-family="Times,serif" font-size="14.00">di0fs0 (det)</text>
<text text-anchor="middle" x="1792.92" y="-240.68" font-family="Times,serif" font-size="14.00">rep=no, t=no, r=yes, m=yes, c=no</text>
</g>
<!-- n21&#45;&gt;n20 -->
<g id="edge21" class="edge">
<title>n21&#45;&gt;n20</title>
<path fill="none" stroke="black" d="M2083.62,-339.56C2030.48,-325.09 1966.51,-307.67 1912.12,-292.85"/>
<polygon fill="black" stroke="black" points="1913,-289.46 1902.44,-290.21 1911.16,-296.22 1913,-289.46"/>
</g>
<!-- n22 -->
<g id="node23" class="node">
<title>n22</title>
<ellipse fill="#DA79E8" stroke="black" cx="2192.92" cy="-259.38" rx="190.84" ry="37.45"/>
<text text-anchor="middle" x="2192.92" y="-270.68" font-family="Times,serif" font-size="14.00">de</text>
<text text-anchor="middle" x="2192.92" y="-255.68" font-family="Times,serif" font-size="14.00">sps00 (prepn)</text>
<text text-anchor="middle" x="2192.92" y="-240.68" font-family="Times,serif" font-size="14.00">rep=no, t=no, r=yes, m=yes, c=no</text>
</g>
<!-- n21&#45;&gt;n22 -->
<g id="edge22" class="edge">
<title>n21&#45;&gt;n22</title>
<path fill="none" stroke="black" d="M2192.92,-332.75C2192.92,-324.58 2192.92,-315.8 2192.92,-307.27"/>
<polygon fill="black" stroke="black" points="2196.42,-307.06 2192.92,-297.06 2189.42,-307.06 2196.42,-307.06"/>
</g>
<!-- n25 -->
<g id="node24" class="node">
<title>n25</title>
<ellipse fill="#DA79E8" stroke="black" cx="2592.92" cy="-259.38" rx="190.84" ry="37.45"/>
<text text-anchor="middle" x="2592.92" y="-270.68" font-family="Times,serif" font-size="14.00">del</text>
<text text-anchor="middle" x="2592.92" y="-255.68" font-family="Times,serif" font-size="14.00">spcms (prepn)</text>
<text text-anchor="middle" x="2592.92" y="-240.68" font-family="Times,serif" font-size="14.00">rep=no, t=no, r=yes, m=yes, c=no</text>
</g>
<!-- n21&#45;&gt;n25 -->
<g id="edge23" class="edge">
<title>n21&#45;&gt;n25</title>
<path fill="none" stroke="black" d="M2302.22,-339.56C2355.36,-325.09 2419.33,-307.67 2473.71,-292.85"/>
<polygon fill="black" stroke="black" points="2474.67,-296.22 2483.4,-290.21 2472.83,-289.46 2474.67,-296.22"/>
</g>
<!-- n24 -->
<g id="node25" class="node">
<title>n24</title>
<ellipse fill="#DA79E8" stroke="black" cx="2192.92" cy="-148.43" rx="190.84" ry="37.45"/>
<text text-anchor="middle" x="2192.92" y="-159.73" font-family="Times,serif" font-size="14.00">años</text>
<text text-anchor="middle" x="2192.92" y="-144.73" font-family="Times,serif" font-size="14.00">ncmp000 (pobj)</text>
<text text-anchor="middle" x="2192.92" y="-129.73" font-family="Times,serif" font-size="14.00">rep=no, t=no, r=yes, m=yes, c=no</text>
</g>
<!-- n22&#45;&gt;n24 -->
<g id="edge24" class="edge">
<title>n22&#45;&gt;n24</title>
<path fill="none" stroke="black" d="M2192.92,-221.8C2192.92,-213.63 2192.92,-204.85 2192.92,-196.32"/>
<polygon fill="black" stroke="black" points="2196.42,-196.1 2192.92,-186.1 2189.42,-196.1 2196.42,-196.1"/>
</g>
<!-- n26 -->
<g id="node27" class="node">
<title>n26</title>
<ellipse fill="#DA79E8" stroke="black" cx="2592.92" cy="-148.43" rx="190.84" ry="37.45"/>
<text text-anchor="middle" x="2592.92" y="-159.73" font-family="Times,serif" font-size="14.00">segundo</text>
<text text-anchor="middle" x="2592.92" y="-144.73" font-family="Times,serif" font-size="14.00">ao0ms0 (pobj)</text>
<text text-anchor="middle" x="2592.92" y="-129.73" font-family="Times,serif" font-size="14.00">rep=no, t=no, r=yes, m=yes, c=no</text>
</g>
<!-- n25&#45;&gt;n26 -->
<g id="edge26" class="edge">
<title>n25&#45;&gt;n26</title>
<path fill="none" stroke="black" d="M2592.92,-221.8C2592.92,-213.63 2592.92,-204.85 2592.92,-196.32"/>
<polygon fill="black" stroke="black" points="2596.42,-196.1 2592.92,-186.1 2589.42,-196.1 2596.42,-196.1"/>
</g>
<!-- n23 -->
<g id="node26" class="node">
<title>n23</title>
<ellipse fill="#DA79E8" stroke="black" cx="2192.92" cy="-37.48" rx="190.84" ry="37.45"/>
<text text-anchor="middle" x="2192.92" y="-48.78" font-family="Times,serif" font-size="14.00">81</text>
<text text-anchor="middle" x="2192.92" y="-33.78" font-family="Times,serif" font-size="14.00">z (num)</text>
<text text-anchor="middle" x="2192.92" y="-18.78" font-family="Times,serif" font-size="14.00">rep=no, t=no, r=yes, m=yes, c=no</text>
</g>
<!-- n24&#45;&gt;n23 -->
<g id="edge25" class="edge">
<title>n24&#45;&gt;n23</title>
<path fill="none" stroke="black" d="M2192.92,-110.85C2192.92,-102.67 2192.92,-93.89 2192.92,-85.37"/>
<polygon fill="black" stroke="black" points="2196.42,-85.15 2192.92,-75.15 2189.42,-85.15 2196.42,-85.15"/>
</g>
</g>
</svg>
