<?xml version="1.0" encoding="UTF-8" standalone="no"?>
<!DOCTYPE svg PUBLIC "-//W3C//DTD SVG 1.1//EN"
 "http://www.w3.org/Graphics/SVG/1.1/DTD/svg11.dtd">
<!-- Generated by graphviz version 2.43.0 (0)
 -->
<!-- Title: tree Pages: 1 -->
<svg width="2370pt" height="1192pt"
 viewBox="0.00 0.00 2369.89 1192.49" xmlns="http://www.w3.org/2000/svg" xmlns:xlink="http://www.w3.org/1999/xlink">
<g id="graph0" class="graph" transform="scale(1 1) rotate(0) translate(4 1188.49)">
<title>tree</title>
<polygon fill="white" stroke="transparent" points="-4,4 -4,-1188.49 2365.89,-1188.49 2365.89,4 -4,4"/>
<!-- n4 -->
<g id="node1" class="node">
<title>n4</title>
<ellipse fill="#98D2A5" stroke="black" cx="790.92" cy="-1147.01" rx="190.84" ry="37.45"/>
<text text-anchor="middle" x="790.92" y="-1158.31" font-family="Times,serif" font-size="14.00">produjo</text>
<text text-anchor="middle" x="790.92" y="-1143.31" font-family="Times,serif" font-size="14.00">vmis3s0 (root)</text>
<text text-anchor="middle" x="790.92" y="-1128.31" font-family="Times,serif" font-size="14.00">rep=no, t=no, r=yes, m=yes, c=no</text>
</g>
<!-- n2 -->
<g id="node2" class="node">
<title>n2</title>
<ellipse fill="#98D2A5" stroke="black" cx="190.92" cy="-1036.06" rx="190.84" ry="37.45"/>
<text text-anchor="middle" x="190.92" y="-1047.36" font-family="Times,serif" font-size="14.00">incidente</text>
<text text-anchor="middle" x="190.92" y="-1032.36" font-family="Times,serif" font-size="14.00">nccs000 (nsubj)</text>
<text text-anchor="middle" x="190.92" y="-1017.36" font-family="Times,serif" font-size="14.00">rep=no, t=yes, r=no, m=yes, c=no</text>
</g>
<!-- n4&#45;&gt;n2 -->
<g id="edge1" class="edge">
<title>n4&#45;&gt;n2</title>
<path fill="none" stroke="black" d="M653,-1121.06C575.9,-1107.1 478.06,-1089.37 390.92,-1073.53 373.85,-1070.43 355.97,-1067.17 338.21,-1063.94"/>
<polygon fill="black" stroke="black" points="338.82,-1060.49 328.36,-1062.14 337.57,-1067.38 338.82,-1060.49"/>
</g>
<!-- n3 -->
<g id="node3" class="node">
<title>n3</title>
<ellipse fill="#98D2A5" stroke="black" cx="590.92" cy="-1036.06" rx="190.84" ry="37.45"/>
<text text-anchor="middle" x="590.92" y="-1047.36" font-family="Times,serif" font-size="14.00">se</text>
<text text-anchor="middle" x="590.92" y="-1032.36" font-family="Times,serif" font-size="14.00">p0300000 (reflec)</text>
<text text-anchor="middle" x="590.92" y="-1017.36" font-family="Times,serif" font-size="14.00">rep=no, t=no, r=yes, m=yes, c=no</text>
</g>
<!-- n4&#45;&gt;n3 -->
<g id="edge2" class="edge">
<title>n4&#45;&gt;n3</title>
<path fill="none" stroke="black" d="M727.64,-1111.54C707.11,-1100.35 684.18,-1087.86 663.06,-1076.36"/>
<polygon fill="black" stroke="black" points="664.59,-1073.2 654.13,-1071.49 661.24,-1079.35 664.59,-1073.2"/>
</g>
<!-- n7 -->
<g id="node4" class="node">
<title>n7</title>
<ellipse fill="#98D2A5" stroke="black" cx="990.92" cy="-1036.06" rx="190.84" ry="37.45"/>
<text text-anchor="middle" x="990.92" y="-1047.36" font-family="Times,serif" font-size="14.00">lunes</text>
<text text-anchor="middle" x="990.92" y="-1032.36" font-family="Times,serif" font-size="14.00">ncms000 (dobj)</text>
<text text-anchor="middle" x="990.92" y="-1017.36" font-family="Times,serif" font-size="14.00">rep=no, t=no, r=yes, m=yes, c=no</text>
</g>
<!-- n4&#45;&gt;n7 -->
<g id="edge3" class="edge">
<title>n4&#45;&gt;n7</title>
<path fill="none" stroke="black" d="M854.2,-1111.54C874.73,-1100.35 897.65,-1087.86 918.78,-1076.36"/>
<polygon fill="black" stroke="black" points="920.6,-1079.35 927.71,-1071.49 917.25,-1073.2 920.6,-1079.35"/>
</g>
<!-- n25 -->
<g id="node5" class="node">
<title>n25</title>
<ellipse fill="none" stroke="black" cx="1381.92" cy="-1036.06" rx="181.95" ry="37.45"/>
<text text-anchor="middle" x="1381.92" y="-1047.36" font-family="Times,serif" font-size="14.00">.</text>
<text text-anchor="middle" x="1381.92" y="-1032.36" font-family="Times,serif" font-size="14.00">fp (punct)</text>
<text text-anchor="middle" x="1381.92" y="-1017.36" font-family="Times,serif" font-size="14.00">rep=no, t=no, r=no, m=no, c=no</text>
</g>
<!-- n4&#45;&gt;n25 -->
<g id="edge4" class="edge">
<title>n4&#45;&gt;n25</title>
<path fill="none" stroke="black" d="M929.82,-1121.18C1006.79,-1107.33 1104.19,-1089.67 1190.92,-1073.53 1207.22,-1070.5 1224.29,-1067.29 1241.25,-1064.08"/>
<polygon fill="black" stroke="black" points="1242.03,-1067.49 1251.21,-1062.19 1240.73,-1060.61 1242.03,-1067.49"/>
</g>
<!-- n1 -->
<g id="node6" class="node">
<title>n1</title>
<ellipse fill="#98D2A5" stroke="black" cx="190.92" cy="-925.1" rx="190.84" ry="37.45"/>
<text text-anchor="middle" x="190.92" y="-936.4" font-family="Times,serif" font-size="14.00">El</text>
<text text-anchor="middle" x="190.92" y="-921.4" font-family="Times,serif" font-size="14.00">da0ms0 (det)</text>
<text text-anchor="middle" x="190.92" y="-906.4" font-family="Times,serif" font-size="14.00">rep=no, t=yes, r=no, m=yes, c=no</text>
</g>
<!-- n2&#45;&gt;n1 -->
<g id="edge5" class="edge">
<title>n2&#45;&gt;n1</title>
<path fill="none" stroke="black" d="M190.92,-998.47C190.92,-990.3 190.92,-981.52 190.92,-972.99"/>
<polygon fill="black" stroke="black" points="194.42,-972.78 190.92,-962.78 187.42,-972.78 194.42,-972.78"/>
</g>
<!-- n5 -->
<g id="node7" class="node">
<title>n5</title>
<ellipse fill="#98D2A5" stroke="black" cx="590.92" cy="-925.1" rx="190.84" ry="37.45"/>
<text text-anchor="middle" x="590.92" y="-936.4" font-family="Times,serif" font-size="14.00">el</text>
<text text-anchor="middle" x="590.92" y="-921.4" font-family="Times,serif" font-size="14.00">da0ms0 (det)</text>
<text text-anchor="middle" x="590.92" y="-906.4" font-family="Times,serif" font-size="14.00">rep=no, t=no, r=yes, m=yes, c=no</text>
</g>
<!-- n7&#45;&gt;n5 -->
<g id="edge6" class="edge">
<title>n7&#45;&gt;n5</title>
<path fill="none" stroke="black" d="M881.62,-1005.28C828.48,-990.81 764.51,-973.39 710.12,-958.57"/>
<polygon fill="black" stroke="black" points="711,-955.18 700.44,-955.93 709.16,-961.94 711,-955.18"/>
</g>
<!-- n6 -->
<g id="node8" class="node">
<title>n6</title>
<ellipse fill="#98D2A5" stroke="black" cx="990.92" cy="-925.1" rx="190.84" ry="37.45"/>
<text text-anchor="middle" x="990.92" y="-936.4" font-family="Times,serif" font-size="14.00">pasado</text>
<text text-anchor="middle" x="990.92" y="-921.4" font-family="Times,serif" font-size="14.00">aq0msp (amod)</text>
<text text-anchor="middle" x="990.92" y="-906.4" font-family="Times,serif" font-size="14.00">rep=no, t=no, r=yes, m=yes, c=no</text>
</g>
<!-- n7&#45;&gt;n6 -->
<g id="edge7" class="edge">
<title>n7&#45;&gt;n6</title>
<path fill="none" stroke="black" d="M990.92,-998.47C990.92,-990.3 990.92,-981.52 990.92,-972.99"/>
<polygon fill="black" stroke="black" points="994.42,-972.78 990.92,-962.78 987.42,-972.78 994.42,-972.78"/>
</g>
<!-- n8 -->
<g id="node9" class="node">
<title>n8</title>
<ellipse fill="#98D2A5" stroke="black" cx="1390.92" cy="-925.1" rx="190.84" ry="37.45"/>
<text text-anchor="middle" x="1390.92" y="-936.4" font-family="Times,serif" font-size="14.00">,</text>
<text text-anchor="middle" x="1390.92" y="-921.4" font-family="Times,serif" font-size="14.00">fc (punct)</text>
<text text-anchor="middle" x="1390.92" y="-906.4" font-family="Times,serif" font-size="14.00">rep=no, t=no, r=yes, m=yes, c=no</text>
</g>
<!-- n7&#45;&gt;n8 -->
<g id="edge8" class="edge">
<title>n7&#45;&gt;n8</title>
<path fill="none" stroke="black" d="M1100.22,-1005.28C1153.36,-990.81 1217.33,-973.39 1271.71,-958.57"/>
<polygon fill="black" stroke="black" points="1272.67,-961.94 1281.4,-955.93 1270.83,-955.18 1272.67,-961.94"/>
</g>
<!-- n21 -->
<g id="node10" class="node">
<title>n21</title>
<ellipse fill="#98D2A5" stroke="black" cx="1785.92" cy="-925.1" rx="185.94" ry="37.45"/>
<text text-anchor="middle" x="1785.92" y="-936.4" font-family="Times,serif" font-size="14.00">chocó</text>
<text text-anchor="middle" x="1785.92" y="-921.4" font-family="Times,serif" font-size="14.00">vmis3s0 (rcmod)</text>
<text text-anchor="middle" x="1785.92" y="-906.4" font-family="Times,serif" font-size="14.00">rep=no, t=no, r=no, m=yes, c=no</text>
</g>
<!-- n7&#45;&gt;n21 -->
<g id="edge9" class="edge">
<title>n7&#45;&gt;n21</title>
<path fill="none" stroke="black" d="M1123.78,-1009.09C1146.14,-1005.22 1169.15,-1001.54 1190.92,-998.58 1367.79,-974.54 1414.1,-987.02 1590.92,-962.58 1608.99,-960.08 1627.94,-957.06 1646.62,-953.83"/>
<polygon fill="black" stroke="black" points="1647.41,-957.24 1656.66,-952.07 1646.21,-950.35 1647.41,-957.24"/>
</g>
<!-- n9 -->
<g id="node11" class="node">
<title>n9</title>
<ellipse fill="#98D2A5" stroke="black" cx="1395.92" cy="-814.15" rx="185.94" ry="37.45"/>
<text text-anchor="middle" x="1395.92" y="-825.45" font-family="Times,serif" font-size="14.00">cuando</text>
<text text-anchor="middle" x="1395.92" y="-810.45" font-family="Times,serif" font-size="14.00">pr000000 (dobj)</text>
<text text-anchor="middle" x="1395.92" y="-795.45" font-family="Times,serif" font-size="14.00">rep=no, t=no, r=no, m=yes, c=no</text>
</g>
<!-- n21&#45;&gt;n9 -->
<g id="edge10" class="edge">
<title>n21&#45;&gt;n9</title>
<path fill="none" stroke="black" d="M1679.35,-894.33C1627.54,-879.86 1565.17,-862.43 1512.15,-847.62"/>
<polygon fill="black" stroke="black" points="1512.93,-844.21 1502.36,-844.89 1511.05,-850.95 1512.93,-844.21"/>
</g>
<!-- n11 -->
<g id="node12" class="node">
<title>n11</title>
<ellipse fill="#98D2A5" stroke="black" cx="1785.92" cy="-814.15" rx="185.94" ry="37.45"/>
<text text-anchor="middle" x="1785.92" y="-825.45" font-family="Times,serif" font-size="14.00">vehículo</text>
<text text-anchor="middle" x="1785.92" y="-810.45" font-family="Times,serif" font-size="14.00">ncms000 (nsubj)</text>
<text text-anchor="middle" x="1785.92" y="-795.45" font-family="Times,serif" font-size="14.00">rep=no, t=no, r=no, m=yes, c=no</text>
</g>
<!-- n21&#45;&gt;n11 -->
<g id="edge11" class="edge">
<title>n21&#45;&gt;n11</title>
<path fill="none" stroke="black" d="M1785.92,-887.52C1785.92,-879.35 1785.92,-870.57 1785.92,-862.04"/>
<polygon fill="black" stroke="black" points="1789.42,-861.82 1785.92,-851.82 1782.42,-861.82 1789.42,-861.82"/>
</g>
<!-- n22 -->
<g id="node13" class="node">
<title>n22</title>
<ellipse fill="#98D2A5" stroke="black" cx="2175.92" cy="-814.15" rx="185.94" ry="37.45"/>
<text text-anchor="middle" x="2175.92" y="-825.45" font-family="Times,serif" font-size="14.00">contra</text>
<text text-anchor="middle" x="2175.92" y="-810.45" font-family="Times,serif" font-size="14.00">sps00 (prepv)</text>
<text text-anchor="middle" x="2175.92" y="-795.45" font-family="Times,serif" font-size="14.00">rep=no, t=no, r=no, m=yes, c=no</text>
</g>
<!-- n21&#45;&gt;n22 -->
<g id="edge12" class="edge">
<title>n21&#45;&gt;n22</title>
<path fill="none" stroke="black" d="M1892.49,-894.33C1944.29,-879.86 2006.66,-862.43 2059.69,-847.62"/>
<polygon fill="black" stroke="black" points="2060.79,-850.95 2069.48,-844.89 2058.91,-844.21 2060.79,-850.95"/>
</g>
<!-- n10 -->
<g id="node14" class="node">
<title>n10</title>
<ellipse fill="#98D2A5" stroke="black" cx="1395.92" cy="-703.2" rx="185.94" ry="37.45"/>
<text text-anchor="middle" x="1395.92" y="-714.5" font-family="Times,serif" font-size="14.00">el</text>
<text text-anchor="middle" x="1395.92" y="-699.5" font-family="Times,serif" font-size="14.00">da0ms0 (det)</text>
<text text-anchor="middle" x="1395.92" y="-684.5" font-family="Times,serif" font-size="14.00">rep=no, t=no, r=no, m=yes, c=no</text>
</g>
<!-- n11&#45;&gt;n10 -->
<g id="edge13" class="edge">
<title>n11&#45;&gt;n10</title>
<path fill="none" stroke="black" d="M1679.35,-783.38C1627.54,-768.91 1565.17,-751.48 1512.15,-736.67"/>
<polygon fill="black" stroke="black" points="1512.93,-733.25 1502.36,-733.93 1511.05,-739.99 1512.93,-733.25"/>
</g>
<!-- n13 -->
<g id="node15" class="node">
<title>n13</title>
<ellipse fill="#98D2A5" stroke="black" cx="1785.92" cy="-703.2" rx="185.94" ry="37.45"/>
<text text-anchor="middle" x="1785.92" y="-714.5" font-family="Times,serif" font-size="14.00">abría</text>
<text text-anchor="middle" x="1785.92" y="-699.5" font-family="Times,serif" font-size="14.00">vmii3s0 (rcmod)</text>
<text text-anchor="middle" x="1785.92" y="-684.5" font-family="Times,serif" font-size="14.00">rep=no, t=no, r=no, m=yes, c=no</text>
</g>
<!-- n11&#45;&gt;n13 -->
<g id="edge14" class="edge">
<title>n11&#45;&gt;n13</title>
<path fill="none" stroke="black" d="M1785.92,-776.57C1785.92,-768.39 1785.92,-759.61 1785.92,-751.09"/>
<polygon fill="black" stroke="black" points="1789.42,-750.87 1785.92,-740.87 1782.42,-750.87 1789.42,-750.87"/>
</g>
<!-- n24 -->
<g id="node24" class="node">
<title>n24</title>
<ellipse fill="#98D2A5" stroke="black" cx="2175.92" cy="-703.2" rx="185.94" ry="37.45"/>
<text text-anchor="middle" x="2175.92" y="-714.5" font-family="Times,serif" font-size="14.00">camión</text>
<text text-anchor="middle" x="2175.92" y="-699.5" font-family="Times,serif" font-size="14.00">ncms000 (pobj)</text>
<text text-anchor="middle" x="2175.92" y="-684.5" font-family="Times,serif" font-size="14.00">rep=no, t=no, r=no, m=yes, c=no</text>
</g>
<!-- n22&#45;&gt;n24 -->
<g id="edge23" class="edge">
<title>n22&#45;&gt;n24</title>
<path fill="none" stroke="black" d="M2175.92,-776.57C2175.92,-768.39 2175.92,-759.61 2175.92,-751.09"/>
<polygon fill="black" stroke="black" points="2179.42,-750.87 2175.92,-740.87 2172.42,-750.87 2179.42,-750.87"/>
</g>
<!-- n12 -->
<g id="node16" class="node">
<title>n12</title>
<ellipse fill="#98D2A5" stroke="black" cx="1395.92" cy="-592.24" rx="185.94" ry="37.45"/>
<text text-anchor="middle" x="1395.92" y="-603.54" font-family="Times,serif" font-size="14.00">que</text>
<text text-anchor="middle" x="1395.92" y="-588.54" font-family="Times,serif" font-size="14.00">pr0cn000 (nsubj)</text>
<text text-anchor="middle" x="1395.92" y="-573.54" font-family="Times,serif" font-size="14.00">rep=no, t=no, r=no, m=yes, c=no</text>
</g>
<!-- n13&#45;&gt;n12 -->
<g id="edge15" class="edge">
<title>n13&#45;&gt;n12</title>
<path fill="none" stroke="black" d="M1679.35,-672.42C1627.54,-657.95 1565.17,-640.53 1512.15,-625.71"/>
<polygon fill="black" stroke="black" points="1512.93,-622.3 1502.36,-622.98 1511.05,-629.04 1512.93,-622.3"/>
</g>
<!-- n15 -->
<g id="node17" class="node">
<title>n15</title>
<ellipse fill="#98D2A5" stroke="black" cx="1785.92" cy="-592.24" rx="185.94" ry="37.45"/>
<text text-anchor="middle" x="1785.92" y="-603.54" font-family="Times,serif" font-size="14.00">comitiva</text>
<text text-anchor="middle" x="1785.92" y="-588.54" font-family="Times,serif" font-size="14.00">ncfs000 (dobj)</text>
<text text-anchor="middle" x="1785.92" y="-573.54" font-family="Times,serif" font-size="14.00">rep=no, t=no, r=no, m=yes, c=no</text>
</g>
<!-- n13&#45;&gt;n15 -->
<g id="edge16" class="edge">
<title>n13&#45;&gt;n15</title>
<path fill="none" stroke="black" d="M1785.92,-665.61C1785.92,-657.44 1785.92,-648.66 1785.92,-640.13"/>
<polygon fill="black" stroke="black" points="1789.42,-639.92 1785.92,-629.92 1782.42,-639.92 1789.42,-639.92"/>
</g>
<!-- n14 -->
<g id="node18" class="node">
<title>n14</title>
<ellipse fill="#98D2A5" stroke="black" cx="1590.92" cy="-481.29" rx="185.94" ry="37.45"/>
<text text-anchor="middle" x="1590.92" y="-492.59" font-family="Times,serif" font-size="14.00">la</text>
<text text-anchor="middle" x="1590.92" y="-477.59" font-family="Times,serif" font-size="14.00">da0fs0 (det)</text>
<text text-anchor="middle" x="1590.92" y="-462.59" font-family="Times,serif" font-size="14.00">rep=no, t=no, r=no, m=yes, c=no</text>
</g>
<!-- n15&#45;&gt;n14 -->
<g id="edge17" class="edge">
<title>n15&#45;&gt;n14</title>
<path fill="none" stroke="black" d="M1724.22,-556.77C1704.29,-545.64 1682.05,-533.21 1661.53,-521.75"/>
<polygon fill="black" stroke="black" points="1662.99,-518.55 1652.55,-516.73 1659.57,-524.66 1662.99,-518.55"/>
</g>
<!-- n16 -->
<g id="node19" class="node">
<title>n16</title>
<ellipse fill="#98D2A5" stroke="black" cx="1980.92" cy="-481.29" rx="185.94" ry="37.45"/>
<text text-anchor="middle" x="1980.92" y="-492.59" font-family="Times,serif" font-size="14.00">del</text>
<text text-anchor="middle" x="1980.92" y="-477.59" font-family="Times,serif" font-size="14.00">spcms (prepn)</text>
<text text-anchor="middle" x="1980.92" y="-462.59" font-family="Times,serif" font-size="14.00">rep=no, t=no, r=no, m=yes, c=no</text>
</g>
<!-- n15&#45;&gt;n16 -->
<g id="edge18" class="edge">
<title>n15&#45;&gt;n16</title>
<path fill="none" stroke="black" d="M1847.62,-556.77C1867.54,-545.64 1889.79,-533.21 1910.3,-521.75"/>
<polygon fill="black" stroke="black" points="1912.26,-524.66 1919.29,-516.73 1908.85,-518.55 1912.26,-524.66"/>
</g>
<!-- n17 -->
<g id="node20" class="node">
<title>n17</title>
<ellipse fill="#98D2A5" stroke="black" cx="1980.92" cy="-370.34" rx="185.94" ry="37.45"/>
<text text-anchor="middle" x="1980.92" y="-381.64" font-family="Times,serif" font-size="14.00">presidente</text>
<text text-anchor="middle" x="1980.92" y="-366.64" font-family="Times,serif" font-size="14.00">ncms000 (pobj)</text>
<text text-anchor="middle" x="1980.92" y="-351.64" font-family="Times,serif" font-size="14.00">rep=no, t=no, r=no, m=yes, c=no</text>
</g>
<!-- n16&#45;&gt;n17 -->
<g id="edge19" class="edge">
<title>n16&#45;&gt;n17</title>
<path fill="none" stroke="black" d="M1980.92,-443.71C1980.92,-435.53 1980.92,-426.75 1980.92,-418.23"/>
<polygon fill="black" stroke="black" points="1984.42,-418.01 1980.92,-408.01 1977.42,-418.01 1984.42,-418.01"/>
</g>
<!-- n18 -->
<g id="node21" class="node">
<title>n18</title>
<ellipse fill="#98D2A5" stroke="black" cx="1980.92" cy="-259.38" rx="185.94" ry="37.45"/>
<text text-anchor="middle" x="1980.92" y="-270.68" font-family="Times,serif" font-size="14.00">de</text>
<text text-anchor="middle" x="1980.92" y="-255.68" font-family="Times,serif" font-size="14.00">sps00 (prepn)</text>
<text text-anchor="middle" x="1980.92" y="-240.68" font-family="Times,serif" font-size="14.00">rep=no, t=no, r=no, m=yes, c=no</text>
</g>
<!-- n17&#45;&gt;n18 -->
<g id="edge20" class="edge">
<title>n17&#45;&gt;n18</title>
<path fill="none" stroke="black" d="M1980.92,-332.75C1980.92,-324.58 1980.92,-315.8 1980.92,-307.27"/>
<polygon fill="black" stroke="black" points="1984.42,-307.06 1980.92,-297.06 1977.42,-307.06 1984.42,-307.06"/>
</g>
<!-- n20 -->
<g id="node22" class="node">
<title>n20</title>
<ellipse fill="#98D2A5" stroke="black" cx="1980.92" cy="-148.43" rx="185.94" ry="37.45"/>
<text text-anchor="middle" x="1980.92" y="-159.73" font-family="Times,serif" font-size="14.00">Generalitat</text>
<text text-anchor="middle" x="1980.92" y="-144.73" font-family="Times,serif" font-size="14.00">np00000 (pobj)</text>
<text text-anchor="middle" x="1980.92" y="-129.73" font-family="Times,serif" font-size="14.00">rep=no, t=no, r=no, m=yes, c=no</text>
</g>
<!-- n18&#45;&gt;n20 -->
<g id="edge21" class="edge">
<title>n18&#45;&gt;n20</title>
<path fill="none" stroke="black" d="M1980.92,-221.8C1980.92,-213.63 1980.92,-204.85 1980.92,-196.32"/>
<polygon fill="black" stroke="black" points="1984.42,-196.1 1980.92,-186.1 1977.42,-196.1 1984.42,-196.1"/>
</g>
<!-- n19 -->
<g id="node23" class="node">
<title>n19</title>
<ellipse fill="#98D2A5" stroke="black" cx="1980.92" cy="-37.48" rx="185.94" ry="37.45"/>
<text text-anchor="middle" x="1980.92" y="-48.78" font-family="Times,serif" font-size="14.00">la</text>
<text text-anchor="middle" x="1980.92" y="-33.78" font-family="Times,serif" font-size="14.00">da0fs0 (det)</text>
<text text-anchor="middle" x="1980.92" y="-18.78" font-family="Times,serif" font-size="14.00">rep=no, t=no, r=no, m=yes, c=no</text>
</g>
<!-- n20&#45;&gt;n19 -->
<g id="edge22" class="edge">
<title>n20&#45;&gt;n19</title>
<path fill="none" stroke="black" d="M1980.92,-110.85C1980.92,-102.67 1980.92,-93.89 1980.92,-85.37"/>
<polygon fill="black" stroke="black" points="1984.42,-85.15 1980.92,-75.15 1977.42,-85.15 1984.42,-85.15"/>
</g>
<!-- n23 -->
<g id="node25" class="node">
<title>n23</title>
<ellipse fill="#98D2A5" stroke="black" cx="2175.92" cy="-592.24" rx="185.94" ry="37.45"/>
<text text-anchor="middle" x="2175.92" y="-603.54" font-family="Times,serif" font-size="14.00">un</text>
<text text-anchor="middle" x="2175.92" y="-588.54" font-family="Times,serif" font-size="14.00">di0ms0 (det)</text>
<text text-anchor="middle" x="2175.92" y="-573.54" font-family="Times,serif" font-size="14.00">rep=no, t=no, r=no, m=yes, c=no</text>
</g>
<!-- n24&#45;&gt;n23 -->
<g id="edge24" class="edge">
<title>n24&#45;&gt;n23</title>
<path fill="none" stroke="black" d="M2175.92,-665.61C2175.92,-657.44 2175.92,-648.66 2175.92,-640.13"/>
<polygon fill="black" stroke="black" points="2179.42,-639.92 2175.92,-629.92 2172.42,-639.92 2179.42,-639.92"/>
</g>
</g>
</svg>
