<?xml version="1.0" encoding="UTF-8" standalone="no"?>
<!DOCTYPE svg PUBLIC "-//W3C//DTD SVG 1.1//EN"
 "http://www.w3.org/Graphics/SVG/1.1/DTD/svg11.dtd">
<!-- Generated by graphviz version 2.43.0 (0)
 -->
<!-- Title: tree Pages: 1 -->
<svg width="3479pt" height="638pt"
 viewBox="0.00 0.00 3478.70 637.72" xmlns="http://www.w3.org/2000/svg" xmlns:xlink="http://www.w3.org/1999/xlink">
<g id="graph0" class="graph" transform="scale(1 1) rotate(0) translate(4 633.72)">
<title>tree</title>
<polygon fill="white" stroke="transparent" points="-4,4 -4,-633.72 3474.7,-633.72 3474.7,4 -4,4"/>
<!-- n5 -->
<g id="node1" class="node">
<title>n5</title>
<ellipse fill="none" stroke="black" cx="1533.73" cy="-592.24" rx="185.94" ry="37.45"/>
<text text-anchor="middle" x="1533.73" y="-603.54" font-family="Times,serif" font-size="14.00">sería</text>
<text text-anchor="middle" x="1533.73" y="-588.54" font-family="Times,serif" font-size="14.00">vsic3s0 (root)</text>
<text text-anchor="middle" x="1533.73" y="-573.54" font-family="Times,serif" font-size="14.00">rep=no, t=no, r=no, m=yes, c=no</text>
</g>
<!-- n1 -->
<g id="node2" class="node">
<title>n1</title>
<ellipse fill="none" stroke="black" cx="181.73" cy="-481.29" rx="181.95" ry="37.45"/>
<text text-anchor="middle" x="181.73" y="-492.59" font-family="Times,serif" font-size="14.00">Según</text>
<text text-anchor="middle" x="181.73" y="-477.59" font-family="Times,serif" font-size="14.00">sps00 (advcl)</text>
<text text-anchor="middle" x="181.73" y="-462.59" font-family="Times,serif" font-size="14.00">rep=no, t=no, r=no, m=no, c=no</text>
</g>
<!-- n5&#45;&gt;n1 -->
<g id="edge1" class="edge">
<title>n5&#45;&gt;n1</title>
<path fill="none" stroke="black" d="M1349.4,-586.99C1119.67,-580.02 715.38,-562.29 371.73,-518.77 353.79,-516.49 335,-513.57 316.5,-510.36"/>
<polygon fill="black" stroke="black" points="317.02,-506.89 306.56,-508.6 315.8,-513.79 317.02,-506.89"/>
</g>
<!-- n4 -->
<g id="node3" class="node">
<title>n4</title>
<ellipse fill="none" stroke="black" cx="562.73" cy="-481.29" rx="181.95" ry="37.45"/>
<text text-anchor="middle" x="562.73" y="-492.59" font-family="Times,serif" font-size="14.00">,</text>
<text text-anchor="middle" x="562.73" y="-477.59" font-family="Times,serif" font-size="14.00">fc (punct)</text>
<text text-anchor="middle" x="562.73" y="-462.59" font-family="Times,serif" font-size="14.00">rep=no, t=no, r=no, m=no, c=no</text>
</g>
<!-- n5&#45;&gt;n4 -->
<g id="edge2" class="edge">
<title>n5&#45;&gt;n4</title>
<path fill="none" stroke="black" d="M1358.14,-579.77C1199.68,-568.26 960.42,-548.04 753.73,-518.77 736.1,-516.27 717.63,-513.25 699.41,-510.04"/>
<polygon fill="black" stroke="black" points="699.79,-506.55 689.33,-508.23 698.55,-513.44 699.79,-506.55"/>
</g>
<!-- n6 -->
<g id="node4" class="node">
<title>n6</title>
<ellipse fill="none" stroke="black" cx="948.73" cy="-481.29" rx="185.94" ry="37.45"/>
<text text-anchor="middle" x="948.73" y="-492.59" font-family="Times,serif" font-size="14.00">peligroso</text>
<text text-anchor="middle" x="948.73" y="-477.59" font-family="Times,serif" font-size="14.00">aq0ms0 (attr)</text>
<text text-anchor="middle" x="948.73" y="-462.59" font-family="Times,serif" font-size="14.00">rep=no, t=no, r=no, m=yes, c=no</text>
</g>
<!-- n5&#45;&gt;n6 -->
<g id="edge3" class="edge">
<title>n5&#45;&gt;n6</title>
<path fill="none" stroke="black" d="M1399.25,-566.29C1324.08,-552.34 1228.69,-534.61 1143.73,-518.77 1127.24,-515.69 1109.97,-512.47 1092.81,-509.26"/>
<polygon fill="black" stroke="black" points="1093.2,-505.77 1082.73,-507.38 1091.92,-512.66 1093.2,-505.77"/>
</g>
<!-- n7 -->
<g id="node5" class="node">
<title>n7</title>
<ellipse fill="none" stroke="black" cx="1338.73" cy="-481.29" rx="185.94" ry="37.45"/>
<text text-anchor="middle" x="1338.73" y="-492.59" font-family="Times,serif" font-size="14.00">para</text>
<text text-anchor="middle" x="1338.73" y="-477.59" font-family="Times,serif" font-size="14.00">sps00 (prepv)</text>
<text text-anchor="middle" x="1338.73" y="-462.59" font-family="Times,serif" font-size="14.00">rep=no, t=no, r=no, m=yes, c=no</text>
</g>
<!-- n5&#45;&gt;n7 -->
<g id="edge4" class="edge">
<title>n5&#45;&gt;n7</title>
<path fill="none" stroke="black" d="M1472.03,-556.77C1452.1,-545.64 1429.86,-533.21 1409.34,-521.75"/>
<polygon fill="black" stroke="black" points="1410.8,-518.55 1400.36,-516.73 1407.38,-524.66 1410.8,-518.55"/>
</g>
<!-- n9 -->
<g id="node6" class="node">
<title>n9</title>
<ellipse fill="none" stroke="black" cx="1728.73" cy="-481.29" rx="185.94" ry="37.45"/>
<text text-anchor="middle" x="1728.73" y="-492.59" font-family="Times,serif" font-size="14.00">retrasar</text>
<text text-anchor="middle" x="1728.73" y="-477.59" font-family="Times,serif" font-size="14.00">vmn0000 (attr)</text>
<text text-anchor="middle" x="1728.73" y="-462.59" font-family="Times,serif" font-size="14.00">rep=no, t=no, r=no, m=yes, c=no</text>
</g>
<!-- n5&#45;&gt;n9 -->
<g id="edge5" class="edge">
<title>n5&#45;&gt;n9</title>
<path fill="none" stroke="black" d="M1595.43,-556.77C1615.35,-545.64 1637.59,-533.21 1658.11,-521.75"/>
<polygon fill="black" stroke="black" points="1660.07,-524.66 1667.09,-516.73 1656.66,-518.55 1660.07,-524.66"/>
</g>
<!-- n13 -->
<g id="node7" class="node">
<title>n13</title>
<ellipse fill="none" stroke="black" cx="2114.73" cy="-481.29" rx="181.95" ry="37.45"/>
<text text-anchor="middle" x="2114.73" y="-492.59" font-family="Times,serif" font-size="14.00">,</text>
<text text-anchor="middle" x="2114.73" y="-477.59" font-family="Times,serif" font-size="14.00">fc (punct)</text>
<text text-anchor="middle" x="2114.73" y="-462.59" font-family="Times,serif" font-size="14.00">rep=no, t=no, r=no, m=no, c=no</text>
</g>
<!-- n5&#45;&gt;n13 -->
<g id="edge6" class="edge">
<title>n5&#45;&gt;n13</title>
<path fill="none" stroke="black" d="M1668.67,-566.34C1743.78,-552.43 1838.96,-534.74 1923.73,-518.77 1940.02,-515.7 1957.09,-512.46 1974.04,-509.24"/>
<polygon fill="black" stroke="black" points="1974.83,-512.65 1984,-507.34 1973.52,-505.78 1974.83,-512.65"/>
</g>
<!-- n14 -->
<g id="node8" class="node">
<title>n14</title>
<ellipse fill="none" stroke="black" cx="2500.73" cy="-481.29" rx="185.94" ry="37.45"/>
<text text-anchor="middle" x="2500.73" y="-492.59" font-family="Times,serif" font-size="14.00">por</text>
<text text-anchor="middle" x="2500.73" y="-477.59" font-family="Times,serif" font-size="14.00">sps00 (prepv)</text>
<text text-anchor="middle" x="2500.73" y="-462.59" font-family="Times,serif" font-size="14.00">rep=no, t=no, r=no, m=yes, c=no</text>
</g>
<!-- n5&#45;&gt;n14 -->
<g id="edge7" class="edge">
<title>n5&#45;&gt;n14</title>
<path fill="none" stroke="black" d="M1708.64,-579.4C1865.46,-567.69 2101.59,-547.38 2305.73,-518.77 2323.72,-516.24 2342.59,-513.21 2361.19,-509.99"/>
<polygon fill="black" stroke="black" points="2361.95,-513.41 2371.19,-508.23 2360.74,-506.51 2361.95,-513.41"/>
</g>
<!-- n22 -->
<g id="node9" class="node">
<title>n22</title>
<ellipse fill="none" stroke="black" cx="2886.73" cy="-481.29" rx="181.95" ry="37.45"/>
<text text-anchor="middle" x="2886.73" y="-492.59" font-family="Times,serif" font-size="14.00">.</text>
<text text-anchor="middle" x="2886.73" y="-477.59" font-family="Times,serif" font-size="14.00">fp (punct)</text>
<text text-anchor="middle" x="2886.73" y="-462.59" font-family="Times,serif" font-size="14.00">rep=no, t=no, r=no, m=no, c=no</text>
</g>
<!-- n5&#45;&gt;n22 -->
<g id="edge8" class="edge">
<title>n5&#45;&gt;n22</title>
<path fill="none" stroke="black" d="M1718.04,-586.93C1947.77,-579.91 2352.05,-562.12 2695.73,-518.77 2713.9,-516.47 2732.94,-513.52 2751.68,-510.28"/>
<polygon fill="black" stroke="black" points="2752.5,-513.68 2761.74,-508.5 2751.29,-506.79 2752.5,-513.68"/>
</g>
<!-- n3 -->
<g id="node10" class="node">
<title>n3</title>
<ellipse fill="none" stroke="black" cx="181.73" cy="-370.34" rx="181.95" ry="37.45"/>
<text text-anchor="middle" x="181.73" y="-381.64" font-family="Times,serif" font-size="14.00">analistas</text>
<text text-anchor="middle" x="181.73" y="-366.64" font-family="Times,serif" font-size="14.00">nccp000 (pobj)</text>
<text text-anchor="middle" x="181.73" y="-351.64" font-family="Times,serif" font-size="14.00">rep=no, t=no, r=no, m=no, c=no</text>
</g>
<!-- n1&#45;&gt;n3 -->
<g id="edge9" class="edge">
<title>n1&#45;&gt;n3</title>
<path fill="none" stroke="black" d="M181.73,-443.71C181.73,-435.53 181.73,-426.75 181.73,-418.23"/>
<polygon fill="black" stroke="black" points="185.23,-418.01 181.73,-408.01 178.23,-418.01 185.23,-418.01"/>
</g>
<!-- n8 -->
<g id="node12" class="node">
<title>n8</title>
<ellipse fill="none" stroke="black" cx="1334.73" cy="-370.34" rx="185.94" ry="37.45"/>
<text text-anchor="middle" x="1334.73" y="-381.64" font-family="Times,serif" font-size="14.00">Bouchard</text>
<text text-anchor="middle" x="1334.73" y="-366.64" font-family="Times,serif" font-size="14.00">np00000 (pobj)</text>
<text text-anchor="middle" x="1334.73" y="-351.64" font-family="Times,serif" font-size="14.00">rep=no, t=no, r=no, m=yes, c=no</text>
</g>
<!-- n7&#45;&gt;n8 -->
<g id="edge11" class="edge">
<title>n7&#45;&gt;n8</title>
<path fill="none" stroke="black" d="M1337.38,-443.71C1337.08,-435.53 1336.76,-426.75 1336.45,-418.23"/>
<polygon fill="black" stroke="black" points="1339.94,-417.87 1336.07,-408.01 1332.94,-418.13 1339.94,-417.87"/>
</g>
<!-- n10 -->
<g id="node13" class="node">
<title>n10</title>
<ellipse fill="none" stroke="black" cx="1724.73" cy="-370.34" rx="185.94" ry="37.45"/>
<text text-anchor="middle" x="1724.73" y="-381.64" font-family="Times,serif" font-size="14.00">mucho</text>
<text text-anchor="middle" x="1724.73" y="-366.64" font-family="Times,serif" font-size="14.00">rg (advmod)</text>
<text text-anchor="middle" x="1724.73" y="-351.64" font-family="Times,serif" font-size="14.00">rep=no, t=no, r=no, m=yes, c=no</text>
</g>
<!-- n9&#45;&gt;n10 -->
<g id="edge12" class="edge">
<title>n9&#45;&gt;n10</title>
<path fill="none" stroke="black" d="M1727.38,-443.71C1727.08,-435.53 1726.76,-426.75 1726.45,-418.23"/>
<polygon fill="black" stroke="black" points="1729.94,-417.87 1726.07,-408.01 1722.94,-418.13 1729.94,-417.87"/>
</g>
<!-- n12 -->
<g id="node14" class="node">
<title>n12</title>
<ellipse fill="none" stroke="black" cx="2114.73" cy="-370.34" rx="185.94" ry="37.45"/>
<text text-anchor="middle" x="2114.73" y="-381.64" font-family="Times,serif" font-size="14.00">referendo</text>
<text text-anchor="middle" x="2114.73" y="-366.64" font-family="Times,serif" font-size="14.00">ncms000 (dobj)</text>
<text text-anchor="middle" x="2114.73" y="-351.64" font-family="Times,serif" font-size="14.00">rep=no, t=no, r=no, m=yes, c=no</text>
</g>
<!-- n9&#45;&gt;n12 -->
<g id="edge13" class="edge">
<title>n9&#45;&gt;n12</title>
<path fill="none" stroke="black" d="M1834.46,-450.45C1885.52,-436.03 1946.9,-418.71 1999.19,-403.95"/>
<polygon fill="black" stroke="black" points="2000.17,-407.31 2008.84,-401.22 1998.27,-400.57 2000.17,-407.31"/>
</g>
<!-- n16 -->
<g id="node16" class="node">
<title>n16</title>
<ellipse fill="none" stroke="black" cx="2504.73" cy="-370.34" rx="185.94" ry="37.45"/>
<text text-anchor="middle" x="2504.73" y="-381.64" font-family="Times,serif" font-size="14.00">desgaste</text>
<text text-anchor="middle" x="2504.73" y="-366.64" font-family="Times,serif" font-size="14.00">ncms000 (pobj)</text>
<text text-anchor="middle" x="2504.73" y="-351.64" font-family="Times,serif" font-size="14.00">rep=no, t=no, r=no, m=yes, c=no</text>
</g>
<!-- n14&#45;&gt;n16 -->
<g id="edge15" class="edge">
<title>n14&#45;&gt;n16</title>
<path fill="none" stroke="black" d="M2502.07,-443.71C2502.37,-435.53 2502.69,-426.75 2503,-418.23"/>
<polygon fill="black" stroke="black" points="2506.51,-418.13 2503.38,-408.01 2499.52,-417.87 2506.51,-418.13"/>
</g>
<!-- n2 -->
<g id="node11" class="node">
<title>n2</title>
<ellipse fill="none" stroke="black" cx="181.73" cy="-259.38" rx="181.95" ry="37.45"/>
<text text-anchor="middle" x="181.73" y="-270.68" font-family="Times,serif" font-size="14.00">los</text>
<text text-anchor="middle" x="181.73" y="-255.68" font-family="Times,serif" font-size="14.00">da0mp0 (det)</text>
<text text-anchor="middle" x="181.73" y="-240.68" font-family="Times,serif" font-size="14.00">rep=no, t=no, r=no, m=no, c=no</text>
</g>
<!-- n3&#45;&gt;n2 -->
<g id="edge10" class="edge">
<title>n3&#45;&gt;n2</title>
<path fill="none" stroke="black" d="M181.73,-332.75C181.73,-324.58 181.73,-315.8 181.73,-307.27"/>
<polygon fill="black" stroke="black" points="185.23,-307.06 181.73,-297.06 178.23,-307.06 185.23,-307.06"/>
</g>
<!-- n11 -->
<g id="node15" class="node">
<title>n11</title>
<ellipse fill="none" stroke="black" cx="2114.73" cy="-259.38" rx="185.94" ry="37.45"/>
<text text-anchor="middle" x="2114.73" y="-270.68" font-family="Times,serif" font-size="14.00">el</text>
<text text-anchor="middle" x="2114.73" y="-255.68" font-family="Times,serif" font-size="14.00">da0ms0 (det)</text>
<text text-anchor="middle" x="2114.73" y="-240.68" font-family="Times,serif" font-size="14.00">rep=no, t=no, r=no, m=yes, c=no</text>
</g>
<!-- n12&#45;&gt;n11 -->
<g id="edge14" class="edge">
<title>n12&#45;&gt;n11</title>
<path fill="none" stroke="black" d="M2114.73,-332.75C2114.73,-324.58 2114.73,-315.8 2114.73,-307.27"/>
<polygon fill="black" stroke="black" points="2118.23,-307.06 2114.73,-297.06 2111.23,-307.06 2118.23,-307.06"/>
</g>
<!-- n15 -->
<g id="node17" class="node">
<title>n15</title>
<ellipse fill="none" stroke="black" cx="2504.73" cy="-259.38" rx="185.94" ry="37.45"/>
<text text-anchor="middle" x="2504.73" y="-270.68" font-family="Times,serif" font-size="14.00">el</text>
<text text-anchor="middle" x="2504.73" y="-255.68" font-family="Times,serif" font-size="14.00">da0ms0 (det)</text>
<text text-anchor="middle" x="2504.73" y="-240.68" font-family="Times,serif" font-size="14.00">rep=no, t=no, r=no, m=yes, c=no</text>
</g>
<!-- n16&#45;&gt;n15 -->
<g id="edge16" class="edge">
<title>n16&#45;&gt;n15</title>
<path fill="none" stroke="black" d="M2504.73,-332.75C2504.73,-324.58 2504.73,-315.8 2504.73,-307.27"/>
<polygon fill="black" stroke="black" points="2508.23,-307.06 2504.73,-297.06 2501.23,-307.06 2508.23,-307.06"/>
</g>
<!-- n18 -->
<g id="node18" class="node">
<title>n18</title>
<ellipse fill="none" stroke="black" cx="2894.73" cy="-259.38" rx="185.94" ry="37.45"/>
<text text-anchor="middle" x="2894.73" y="-270.68" font-family="Times,serif" font-size="14.00">sufriría</text>
<text text-anchor="middle" x="2894.73" y="-255.68" font-family="Times,serif" font-size="14.00">vmic3s0 (rcmod)</text>
<text text-anchor="middle" x="2894.73" y="-240.68" font-family="Times,serif" font-size="14.00">rep=no, t=no, r=no, m=yes, c=no</text>
</g>
<!-- n16&#45;&gt;n18 -->
<g id="edge17" class="edge">
<title>n16&#45;&gt;n18</title>
<path fill="none" stroke="black" d="M2611.3,-339.56C2663.1,-325.09 2725.47,-307.67 2778.5,-292.85"/>
<polygon fill="black" stroke="black" points="2779.6,-296.18 2788.29,-290.12 2777.71,-289.44 2779.6,-296.18"/>
</g>
<!-- n17 -->
<g id="node19" class="node">
<title>n17</title>
<ellipse fill="none" stroke="black" cx="2504.73" cy="-148.43" rx="185.94" ry="37.45"/>
<text text-anchor="middle" x="2504.73" y="-159.73" font-family="Times,serif" font-size="14.00">que</text>
<text text-anchor="middle" x="2504.73" y="-144.73" font-family="Times,serif" font-size="14.00">pr0cn000 (dobj)</text>
<text text-anchor="middle" x="2504.73" y="-129.73" font-family="Times,serif" font-size="14.00">rep=no, t=no, r=no, m=yes, c=no</text>
</g>
<!-- n18&#45;&gt;n17 -->
<g id="edge18" class="edge">
<title>n18&#45;&gt;n17</title>
<path fill="none" stroke="black" d="M2788.16,-228.61C2736.35,-214.14 2673.98,-196.71 2620.95,-181.9"/>
<polygon fill="black" stroke="black" points="2621.74,-178.49 2611.17,-179.17 2619.86,-185.23 2621.74,-178.49"/>
</g>
<!-- n19 -->
<g id="node20" class="node">
<title>n19</title>
<ellipse fill="none" stroke="black" cx="2894.73" cy="-148.43" rx="185.94" ry="37.45"/>
<text text-anchor="middle" x="2894.73" y="-159.73" font-family="Times,serif" font-size="14.00">paralelamente</text>
<text text-anchor="middle" x="2894.73" y="-144.73" font-family="Times,serif" font-size="14.00">rg (advmod)</text>
<text text-anchor="middle" x="2894.73" y="-129.73" font-family="Times,serif" font-size="14.00">rep=no, t=no, r=no, m=yes, c=no</text>
</g>
<!-- n18&#45;&gt;n19 -->
<g id="edge19" class="edge">
<title>n18&#45;&gt;n19</title>
<path fill="none" stroke="black" d="M2894.73,-221.8C2894.73,-213.63 2894.73,-204.85 2894.73,-196.32"/>
<polygon fill="black" stroke="black" points="2898.23,-196.1 2894.73,-186.1 2891.23,-196.1 2898.23,-196.1"/>
</g>
<!-- n21 -->
<g id="node21" class="node">
<title>n21</title>
<ellipse fill="none" stroke="black" cx="3284.73" cy="-148.43" rx="185.94" ry="37.45"/>
<text text-anchor="middle" x="3284.73" y="-159.73" font-family="Times,serif" font-size="14.00">Gobierno</text>
<text text-anchor="middle" x="3284.73" y="-144.73" font-family="Times,serif" font-size="14.00">np00000 (nsubj)</text>
<text text-anchor="middle" x="3284.73" y="-129.73" font-family="Times,serif" font-size="14.00">rep=no, t=no, r=no, m=yes, c=no</text>
</g>
<!-- n18&#45;&gt;n21 -->
<g id="edge20" class="edge">
<title>n18&#45;&gt;n21</title>
<path fill="none" stroke="black" d="M3001.3,-228.61C3053.1,-214.14 3115.47,-196.71 3168.5,-181.9"/>
<polygon fill="black" stroke="black" points="3169.6,-185.23 3178.29,-179.17 3167.71,-178.49 3169.6,-185.23"/>
</g>
<!-- n20 -->
<g id="node22" class="node">
<title>n20</title>
<ellipse fill="none" stroke="black" cx="3284.73" cy="-37.48" rx="185.94" ry="37.45"/>
<text text-anchor="middle" x="3284.73" y="-48.78" font-family="Times,serif" font-size="14.00">su</text>
<text text-anchor="middle" x="3284.73" y="-33.78" font-family="Times,serif" font-size="14.00">dp3cs0 (poss)</text>
<text text-anchor="middle" x="3284.73" y="-18.78" font-family="Times,serif" font-size="14.00">rep=no, t=no, r=no, m=yes, c=no</text>
</g>
<!-- n21&#45;&gt;n20 -->
<g id="edge21" class="edge">
<title>n21&#45;&gt;n20</title>
<path fill="none" stroke="black" d="M3284.73,-110.85C3284.73,-102.67 3284.73,-93.89 3284.73,-85.37"/>
<polygon fill="black" stroke="black" points="3288.23,-85.15 3284.73,-75.15 3281.23,-85.15 3288.23,-85.15"/>
</g>
</g>
</svg>
