<?xml version="1.0" encoding="UTF-8" standalone="no"?>
<!DOCTYPE svg PUBLIC "-//W3C//DTD SVG 1.1//EN"
 "http://www.w3.org/Graphics/SVG/1.1/DTD/svg11.dtd">
<!-- Generated by graphviz version 2.43.0 (0)
 -->
<!-- Title: tree Pages: 1 -->
<svg width="7070pt" height="749pt"
 viewBox="0.00 0.00 7069.89 748.67" xmlns="http://www.w3.org/2000/svg" xmlns:xlink="http://www.w3.org/1999/xlink">
<g id="graph0" class="graph" transform="scale(1 1) rotate(0) translate(4 744.67)">
<title>tree</title>
<polygon fill="white" stroke="transparent" points="-4,4 -4,-744.67 7065.89,-744.67 7065.89,4 -4,4"/>
<!-- n14 -->
<g id="node1" class="node">
<title>n14</title>
<ellipse fill="none" stroke="black" cx="3918.97" cy="-703.2" rx="185.94" ry="37.45"/>
<text text-anchor="middle" x="3918.97" y="-714.5" font-family="Times,serif" font-size="14.00">pero</text>
<text text-anchor="middle" x="3918.97" y="-699.5" font-family="Times,serif" font-size="14.00">cc (root)</text>
<text text-anchor="middle" x="3918.97" y="-684.5" font-family="Times,serif" font-size="14.00">rep=no, t=no, r=no, m=yes, c=no</text>
</g>
<!-- n9 -->
<g id="node2" class="node">
<title>n9</title>
<ellipse fill="#DA79E8" stroke="black" cx="1170.97" cy="-592.24" rx="190.84" ry="37.45"/>
<text text-anchor="middle" x="1170.97" y="-603.54" font-family="Times,serif" font-size="14.00">eximió</text>
<text text-anchor="middle" x="1170.97" y="-588.54" font-family="Times,serif" font-size="14.00">vmis3s0 (coord)</text>
<text text-anchor="middle" x="1170.97" y="-573.54" font-family="Times,serif" font-size="14.00">rep=no, t=no, r=yes, m=yes, c=no</text>
</g>
<!-- n14&#45;&gt;n9 -->
<g id="edge1" class="edge">
<title>n14&#45;&gt;n9</title>
<path fill="none" stroke="black" d="M3737.34,-695C3243.27,-675.41 1877.88,-621.27 1367.15,-601.02"/>
<polygon fill="black" stroke="black" points="1367.23,-597.52 1357.1,-600.62 1366.95,-604.52 1367.23,-597.52"/>
</g>
<!-- n16 -->
<g id="node3" class="node">
<title>n16</title>
<ellipse fill="none" stroke="black" cx="3725.97" cy="-592.24" rx="185.94" ry="37.45"/>
<text text-anchor="middle" x="3725.97" y="-603.54" font-family="Times,serif" font-size="14.00">indicó</text>
<text text-anchor="middle" x="3725.97" y="-588.54" font-family="Times,serif" font-size="14.00">vmis3s0 (coord)</text>
<text text-anchor="middle" x="3725.97" y="-573.54" font-family="Times,serif" font-size="14.00">rep=no, t=no, r=no, m=yes, c=no</text>
</g>
<!-- n14&#45;&gt;n16 -->
<g id="edge2" class="edge">
<title>n14&#45;&gt;n16</title>
<path fill="none" stroke="black" d="M3857.9,-667.72C3838.18,-656.59 3816.17,-644.16 3795.86,-632.7"/>
<polygon fill="black" stroke="black" points="3797.4,-629.55 3786.97,-627.68 3793.96,-635.64 3797.4,-629.55"/>
</g>
<!-- n23 -->
<g id="node4" class="node">
<title>n23</title>
<ellipse fill="none" stroke="black" cx="4111.97" cy="-592.24" rx="181.95" ry="37.45"/>
<text text-anchor="middle" x="4111.97" y="-603.54" font-family="Times,serif" font-size="14.00">:</text>
<text text-anchor="middle" x="4111.97" y="-588.54" font-family="Times,serif" font-size="14.00">fd (punct)</text>
<text text-anchor="middle" x="4111.97" y="-573.54" font-family="Times,serif" font-size="14.00">rep=no, t=no, r=no, m=no, c=no</text>
</g>
<!-- n14&#45;&gt;n23 -->
<g id="edge3" class="edge">
<title>n14&#45;&gt;n23</title>
<path fill="none" stroke="black" d="M3980.04,-667.72C3999.76,-656.59 4021.77,-644.16 4042.08,-632.7"/>
<polygon fill="black" stroke="black" points="4043.98,-635.64 4050.97,-627.68 4040.54,-629.55 4043.98,-635.64"/>
</g>
<!-- n56 -->
<g id="node5" class="node">
<title>n56</title>
<ellipse fill="none" stroke="black" cx="4492.97" cy="-592.24" rx="181.95" ry="37.45"/>
<text text-anchor="middle" x="4492.97" y="-603.54" font-family="Times,serif" font-size="14.00">.</text>
<text text-anchor="middle" x="4492.97" y="-588.54" font-family="Times,serif" font-size="14.00">fp (punct)</text>
<text text-anchor="middle" x="4492.97" y="-573.54" font-family="Times,serif" font-size="14.00">rep=no, t=no, r=no, m=no, c=no</text>
</g>
<!-- n14&#45;&gt;n56 -->
<g id="edge4" class="edge">
<title>n14&#45;&gt;n56</title>
<path fill="none" stroke="black" d="M4052.72,-677.06C4126.53,-663.16 4219.83,-645.55 4302.97,-629.72 4319.04,-626.66 4335.86,-623.45 4352.58,-620.25"/>
<polygon fill="black" stroke="black" points="4353.25,-623.68 4362.41,-618.36 4351.93,-616.81 4353.25,-623.68"/>
</g>
<!-- n2 -->
<g id="node6" class="node">
<title>n2</title>
<ellipse fill="none" stroke="black" cx="185.97" cy="-481.29" rx="185.94" ry="37.45"/>
<text text-anchor="middle" x="185.97" y="-492.59" font-family="Times,serif" font-size="14.00">después</text>
<text text-anchor="middle" x="185.97" y="-477.59" font-family="Times,serif" font-size="14.00">rg (advmod)</text>
<text text-anchor="middle" x="185.97" y="-462.59" font-family="Times,serif" font-size="14.00">rep=no, t=no, r=no, m=yes, c=no</text>
</g>
<!-- n9&#45;&gt;n2 -->
<g id="edge5" class="edge">
<title>n9&#45;&gt;n2</title>
<path fill="none" stroke="black" d="M991.19,-579.56C830.71,-567.98 589.51,-547.77 380.97,-518.77 362.97,-516.26 344.1,-513.24 325.5,-510.02"/>
<polygon fill="black" stroke="black" points="325.95,-506.55 315.5,-508.27 324.74,-513.44 325.95,-506.55"/>
</g>
<!-- n3 -->
<g id="node7" class="node">
<title>n3</title>
<ellipse fill="none" stroke="black" cx="575.97" cy="-481.29" rx="185.94" ry="37.45"/>
<text text-anchor="middle" x="575.97" y="-492.59" font-family="Times,serif" font-size="14.00">,</text>
<text text-anchor="middle" x="575.97" y="-477.59" font-family="Times,serif" font-size="14.00">fc (punct)</text>
<text text-anchor="middle" x="575.97" y="-462.59" font-family="Times,serif" font-size="14.00">rep=no, t=no, r=no, m=yes, c=no</text>
</g>
<!-- n9&#45;&gt;n3 -->
<g id="edge6" class="edge">
<title>n9&#45;&gt;n3</title>
<path fill="none" stroke="black" d="M1032.56,-566.36C955.52,-552.47 857.9,-534.77 770.97,-518.77 754.4,-515.72 737.05,-512.5 719.82,-509.29"/>
<polygon fill="black" stroke="black" points="720.17,-505.8 709.69,-507.41 718.88,-512.68 720.17,-505.8"/>
</g>
<!-- n5 -->
<g id="node8" class="node">
<title>n5</title>
<ellipse fill="#BEDA48" stroke="black" cx="970.97" cy="-481.29" rx="190.84" ry="37.45"/>
<text text-anchor="middle" x="970.97" y="-492.59" font-family="Times,serif" font-size="14.00">presidente</text>
<text text-anchor="middle" x="970.97" y="-477.59" font-family="Times,serif" font-size="14.00">ncms000 (nsubj)</text>
<text text-anchor="middle" x="970.97" y="-462.59" font-family="Times,serif" font-size="14.00">rep=no, t=yes, r=no, m=yes, c=no</text>
</g>
<!-- n9&#45;&gt;n5 -->
<g id="edge7" class="edge">
<title>n9&#45;&gt;n5</title>
<path fill="none" stroke="black" d="M1107.69,-556.77C1087.16,-545.59 1064.23,-533.1 1043.11,-521.59"/>
<polygon fill="black" stroke="black" points="1044.64,-518.44 1034.18,-516.73 1041.29,-524.58 1044.64,-518.44"/>
</g>
<!-- n8 -->
<g id="node9" class="node">
<title>n8</title>
<ellipse fill="#DA79E8" stroke="black" cx="1370.97" cy="-481.29" rx="190.84" ry="37.45"/>
<text text-anchor="middle" x="1370.97" y="-492.59" font-family="Times,serif" font-size="14.00">le</text>
<text text-anchor="middle" x="1370.97" y="-477.59" font-family="Times,serif" font-size="14.00">pp30sa00 (iobj)</text>
<text text-anchor="middle" x="1370.97" y="-462.59" font-family="Times,serif" font-size="14.00">rep=no, t=no, r=yes, m=yes, c=no</text>
</g>
<!-- n9&#45;&gt;n8 -->
<g id="edge8" class="edge">
<title>n9&#45;&gt;n8</title>
<path fill="none" stroke="black" d="M1234.25,-556.77C1254.78,-545.59 1277.7,-533.1 1298.83,-521.59"/>
<polygon fill="black" stroke="black" points="1300.65,-524.58 1307.76,-516.73 1297.3,-518.44 1300.65,-524.58"/>
</g>
<!-- n10 -->
<g id="node10" class="node">
<title>n10</title>
<ellipse fill="#DA79E8" stroke="black" cx="1770.97" cy="-481.29" rx="190.84" ry="37.45"/>
<text text-anchor="middle" x="1770.97" y="-492.59" font-family="Times,serif" font-size="14.00">de</text>
<text text-anchor="middle" x="1770.97" y="-477.59" font-family="Times,serif" font-size="14.00">sps00 (oobj)</text>
<text text-anchor="middle" x="1770.97" y="-462.59" font-family="Times,serif" font-size="14.00">rep=no, t=no, r=yes, m=yes, c=no</text>
</g>
<!-- n9&#45;&gt;n10 -->
<g id="edge9" class="edge">
<title>n9&#45;&gt;n10</title>
<path fill="none" stroke="black" d="M1308.89,-566.29C1385.99,-552.34 1483.83,-534.61 1570.97,-518.77 1588.04,-515.66 1605.92,-512.41 1623.68,-509.17"/>
<polygon fill="black" stroke="black" points="1624.32,-512.61 1633.53,-507.38 1623.07,-505.73 1624.32,-512.61"/>
</g>
<!-- n13 -->
<g id="node17" class="node">
<title>n13</title>
<ellipse fill="none" stroke="black" cx="2165.97" cy="-481.29" rx="185.94" ry="37.45"/>
<text text-anchor="middle" x="2165.97" y="-492.59" font-family="Times,serif" font-size="14.00">,</text>
<text text-anchor="middle" x="2165.97" y="-477.59" font-family="Times,serif" font-size="14.00">fc (punct)</text>
<text text-anchor="middle" x="2165.97" y="-462.59" font-family="Times,serif" font-size="14.00">rep=no, t=no, r=no, m=yes, c=no</text>
</g>
<!-- n16&#45;&gt;n13 -->
<g id="edge16" class="edge">
<title>n16&#45;&gt;n13</title>
<path fill="none" stroke="black" d="M3540.4,-589.13C3277.18,-584.38 2780.69,-568.94 2360.97,-518.77 2342.26,-516.53 2322.64,-513.58 2303.35,-510.33"/>
<polygon fill="black" stroke="black" points="2303.75,-506.85 2293.3,-508.61 2302.57,-513.75 2303.75,-506.85"/>
</g>
<!-- n15 -->
<g id="node18" class="node">
<title>n15</title>
<ellipse fill="none" stroke="black" cx="2555.97" cy="-481.29" rx="185.94" ry="37.45"/>
<text text-anchor="middle" x="2555.97" y="-492.59" font-family="Times,serif" font-size="14.00">le</text>
<text text-anchor="middle" x="2555.97" y="-477.59" font-family="Times,serif" font-size="14.00">pp3csd00 (iobj)</text>
<text text-anchor="middle" x="2555.97" y="-462.59" font-family="Times,serif" font-size="14.00">rep=no, t=no, r=no, m=yes, c=no</text>
</g>
<!-- n16&#45;&gt;n15 -->
<g id="edge17" class="edge">
<title>n16&#45;&gt;n15</title>
<path fill="none" stroke="black" d="M3544.76,-583.78C3348.53,-574.3 3026.59,-554.68 2750.97,-518.77 2732.57,-516.37 2713.29,-513.37 2694.3,-510.12"/>
<polygon fill="black" stroke="black" points="2694.85,-506.66 2684.4,-508.4 2693.66,-513.56 2694.85,-506.66"/>
</g>
<!-- n19 -->
<g id="node19" class="node">
<title>n19</title>
<ellipse fill="none" stroke="black" cx="2945.97" cy="-481.29" rx="185.94" ry="37.45"/>
<text text-anchor="middle" x="2945.97" y="-492.59" font-family="Times,serif" font-size="14.00">había</text>
<text text-anchor="middle" x="2945.97" y="-477.59" font-family="Times,serif" font-size="14.00">vaii3s0 (dobj)</text>
<text text-anchor="middle" x="2945.97" y="-462.59" font-family="Times,serif" font-size="14.00">rep=no, t=no, r=no, m=yes, c=no</text>
</g>
<!-- n16&#45;&gt;n19 -->
<g id="edge18" class="edge">
<title>n16&#45;&gt;n19</title>
<path fill="none" stroke="black" d="M3563.57,-573.84C3445.96,-560.58 3283.3,-540.87 3140.97,-518.77 3123.45,-516.05 3105.1,-512.94 3086.95,-509.73"/>
<polygon fill="black" stroke="black" points="3087.35,-506.24 3076.89,-507.93 3086.12,-513.13 3087.35,-506.24"/>
</g>
<!-- n24 -->
<g id="node20" class="node">
<title>n24</title>
<ellipse fill="none" stroke="black" cx="3335.97" cy="-481.29" rx="185.94" ry="37.45"/>
<text text-anchor="middle" x="3335.97" y="-492.59" font-family="Times,serif" font-size="14.00">&quot;</text>
<text text-anchor="middle" x="3335.97" y="-477.59" font-family="Times,serif" font-size="14.00">fe (punct)</text>
<text text-anchor="middle" x="3335.97" y="-462.59" font-family="Times,serif" font-size="14.00">rep=no, t=no, r=no, m=yes, c=no</text>
</g>
<!-- n16&#45;&gt;n24 -->
<g id="edge19" class="edge">
<title>n16&#45;&gt;n24</title>
<path fill="none" stroke="black" d="M3619.4,-561.47C3567.59,-547 3505.23,-529.57 3452.2,-514.76"/>
<polygon fill="black" stroke="black" points="3452.98,-511.35 3442.41,-512.03 3451.1,-518.09 3452.98,-511.35"/>
</g>
<!-- n26 -->
<g id="node21" class="node">
<title>n26</title>
<ellipse fill="none" stroke="black" cx="3725.97" cy="-481.29" rx="185.94" ry="37.45"/>
<text text-anchor="middle" x="3725.97" y="-492.59" font-family="Times,serif" font-size="14.00">tienes</text>
<text text-anchor="middle" x="3725.97" y="-477.59" font-family="Times,serif" font-size="14.00">vmip2s0 (dobj)</text>
<text text-anchor="middle" x="3725.97" y="-462.59" font-family="Times,serif" font-size="14.00">rep=no, t=no, r=no, m=yes, c=no</text>
</g>
<!-- n16&#45;&gt;n26 -->
<g id="edge20" class="edge">
<title>n16&#45;&gt;n26</title>
<path fill="none" stroke="black" d="M3725.97,-554.66C3725.97,-546.49 3725.97,-537.71 3725.97,-529.18"/>
<polygon fill="black" stroke="black" points="3729.47,-528.96 3725.97,-518.96 3722.47,-528.96 3729.47,-528.96"/>
</g>
<!-- n30 -->
<g id="node22" class="node">
<title>n30</title>
<ellipse fill="none" stroke="black" cx="4115.97" cy="-481.29" rx="185.94" ry="37.45"/>
<text text-anchor="middle" x="4115.97" y="-492.59" font-family="Times,serif" font-size="14.00">.</text>
<text text-anchor="middle" x="4115.97" y="-477.59" font-family="Times,serif" font-size="14.00">fp (punct)</text>
<text text-anchor="middle" x="4115.97" y="-462.59" font-family="Times,serif" font-size="14.00">rep=no, t=no, r=no, m=yes, c=no</text>
</g>
<!-- n16&#45;&gt;n30 -->
<g id="edge21" class="edge">
<title>n16&#45;&gt;n30</title>
<path fill="none" stroke="black" d="M3832.54,-561.47C3884.34,-547 3946.71,-529.57 3999.74,-514.76"/>
<polygon fill="black" stroke="black" points="4000.84,-518.09 4009.53,-512.03 3998.96,-511.35 4000.84,-518.09"/>
</g>
<!-- n31 -->
<g id="node23" class="node">
<title>n31</title>
<ellipse fill="none" stroke="black" cx="4505.97" cy="-481.29" rx="185.94" ry="37.45"/>
<text text-anchor="middle" x="4505.97" y="-492.59" font-family="Times,serif" font-size="14.00">Estás</text>
<text text-anchor="middle" x="4505.97" y="-477.59" font-family="Times,serif" font-size="14.00">vmip2s0 (dobj)</text>
<text text-anchor="middle" x="4505.97" y="-462.59" font-family="Times,serif" font-size="14.00">rep=no, t=no, r=no, m=yes, c=no</text>
</g>
<!-- n16&#45;&gt;n31 -->
<g id="edge22" class="edge">
<title>n16&#45;&gt;n31</title>
<path fill="none" stroke="black" d="M3855.5,-565.27C3877.3,-561.4 3899.73,-557.73 3920.97,-554.77 4093.37,-530.74 4138.57,-542.8 4310.97,-518.77 4328.97,-516.26 4347.83,-513.23 4366.44,-510.01"/>
<polygon fill="black" stroke="black" points="4367.2,-513.43 4376.44,-508.26 4365.99,-506.54 4367.2,-513.43"/>
</g>
<!-- n41 -->
<g id="node24" class="node">
<title>n41</title>
<ellipse fill="none" stroke="black" cx="4895.97" cy="-481.29" rx="185.94" ry="37.45"/>
<text text-anchor="middle" x="4895.97" y="-492.59" font-family="Times,serif" font-size="14.00">.</text>
<text text-anchor="middle" x="4895.97" y="-477.59" font-family="Times,serif" font-size="14.00">fp (punct)</text>
<text text-anchor="middle" x="4895.97" y="-462.59" font-family="Times,serif" font-size="14.00">rep=no, t=no, r=no, m=yes, c=no</text>
</g>
<!-- n16&#45;&gt;n41 -->
<g id="edge23" class="edge">
<title>n16&#45;&gt;n41</title>
<path fill="none" stroke="black" d="M3853.03,-564.84C3875.58,-560.91 3898.9,-557.33 3920.97,-554.77 4265.69,-514.77 4356.25,-558.77 4700.97,-518.77 4719.76,-516.59 4739.46,-513.66 4758.82,-510.41"/>
<polygon fill="black" stroke="black" points="4759.64,-513.82 4768.91,-508.69 4758.46,-506.93 4759.64,-513.82"/>
</g>
<!-- n43 -->
<g id="node25" class="node">
<title>n43</title>
<ellipse fill="none" stroke="black" cx="5285.97" cy="-481.29" rx="185.94" ry="37.45"/>
<text text-anchor="middle" x="5285.97" y="-492.59" font-family="Times,serif" font-size="14.00">debes</text>
<text text-anchor="middle" x="5285.97" y="-477.59" font-family="Times,serif" font-size="14.00">vmip2s0 (dobj)</text>
<text text-anchor="middle" x="5285.97" y="-462.59" font-family="Times,serif" font-size="14.00">rep=no, t=no, r=no, m=yes, c=no</text>
</g>
<!-- n16&#45;&gt;n43 -->
<g id="edge24" class="edge">
<title>n16&#45;&gt;n43</title>
<path fill="none" stroke="black" d="M3852.21,-564.7C3875.01,-560.74 3898.63,-557.19 3920.97,-554.77 4438.19,-498.77 4573.75,-574.76 5090.97,-518.77 5110.08,-516.7 5130.13,-513.8 5149.8,-510.52"/>
<polygon fill="black" stroke="black" points="5150.46,-513.96 5159.73,-508.84 5149.28,-507.06 5150.46,-513.96"/>
</g>
<!-- n55 -->
<g id="node26" class="node">
<title>n55</title>
<ellipse fill="none" stroke="black" cx="5675.97" cy="-481.29" rx="185.94" ry="37.45"/>
<text text-anchor="middle" x="5675.97" y="-492.59" font-family="Times,serif" font-size="14.00">&quot;</text>
<text text-anchor="middle" x="5675.97" y="-477.59" font-family="Times,serif" font-size="14.00">fe (punct)</text>
<text text-anchor="middle" x="5675.97" y="-462.59" font-family="Times,serif" font-size="14.00">rep=no, t=no, r=no, m=yes, c=no</text>
</g>
<!-- n16&#45;&gt;n55 -->
<g id="edge25" class="edge">
<title>n16&#45;&gt;n55</title>
<path fill="none" stroke="black" d="M3851.93,-564.6C3874.81,-560.64 3898.53,-557.11 3920.97,-554.77 4610.74,-482.77 4791.2,-590.76 5480.97,-518.77 5500.16,-516.76 5520.3,-513.89 5540.04,-510.62"/>
<polygon fill="black" stroke="black" points="5540.73,-514.05 5550.01,-508.93 5539.56,-507.15 5540.73,-514.05"/>
</g>
<!-- n1 -->
<g id="node11" class="node">
<title>n1</title>
<ellipse fill="none" stroke="black" cx="185.97" cy="-370.34" rx="185.94" ry="37.45"/>
<text text-anchor="middle" x="185.97" y="-381.64" font-family="Times,serif" font-size="14.00">Poco</text>
<text text-anchor="middle" x="185.97" y="-366.64" font-family="Times,serif" font-size="14.00">rg (advmod)</text>
<text text-anchor="middle" x="185.97" y="-351.64" font-family="Times,serif" font-size="14.00">rep=no, t=no, r=no, m=yes, c=no</text>
</g>
<!-- n2&#45;&gt;n1 -->
<g id="edge10" class="edge">
<title>n2&#45;&gt;n1</title>
<path fill="none" stroke="black" d="M185.97,-443.71C185.97,-435.53 185.97,-426.75 185.97,-418.23"/>
<polygon fill="black" stroke="black" points="189.47,-418.01 185.97,-408.01 182.47,-418.01 189.47,-418.01"/>
</g>
<!-- n4 -->
<g id="node12" class="node">
<title>n4</title>
<ellipse fill="#BEDA48" stroke="black" cx="775.97" cy="-370.34" rx="190.84" ry="37.45"/>
<text text-anchor="middle" x="775.97" y="-381.64" font-family="Times,serif" font-size="14.00">el</text>
<text text-anchor="middle" x="775.97" y="-366.64" font-family="Times,serif" font-size="14.00">da0ms0 (det)</text>
<text text-anchor="middle" x="775.97" y="-351.64" font-family="Times,serif" font-size="14.00">rep=no, t=yes, r=no, m=yes, c=no</text>
</g>
<!-- n5&#45;&gt;n4 -->
<g id="edge11" class="edge">
<title>n5&#45;&gt;n4</title>
<path fill="none" stroke="black" d="M909.27,-445.82C889.44,-434.74 867.32,-422.38 846.88,-410.96"/>
<polygon fill="black" stroke="black" points="848.37,-407.78 837.94,-405.96 844.96,-413.89 848.37,-407.78"/>
</g>
<!-- n6 -->
<g id="node13" class="node">
<title>n6</title>
<ellipse fill="#BEDA48" stroke="black" cx="1175.97" cy="-370.34" rx="190.84" ry="37.45"/>
<text text-anchor="middle" x="1175.97" y="-381.64" font-family="Times,serif" font-size="14.00">del</text>
<text text-anchor="middle" x="1175.97" y="-366.64" font-family="Times,serif" font-size="14.00">spcms (prepn)</text>
<text text-anchor="middle" x="1175.97" y="-351.64" font-family="Times,serif" font-size="14.00">rep=no, t=yes, r=no, m=yes, c=no</text>
</g>
<!-- n5&#45;&gt;n6 -->
<g id="edge12" class="edge">
<title>n5&#45;&gt;n6</title>
<path fill="none" stroke="black" d="M1035.55,-445.97C1056.8,-434.67 1080.58,-422.03 1102.44,-410.41"/>
<polygon fill="black" stroke="black" points="1104.17,-413.46 1111.36,-405.68 1100.89,-407.28 1104.17,-413.46"/>
</g>
<!-- n12 -->
<g id="node15" class="node">
<title>n12</title>
<ellipse fill="#DA79E8" stroke="black" cx="1770.97" cy="-370.34" rx="190.84" ry="37.45"/>
<text text-anchor="middle" x="1770.97" y="-381.64" font-family="Times,serif" font-size="14.00">deuda</text>
<text text-anchor="middle" x="1770.97" y="-366.64" font-family="Times,serif" font-size="14.00">ncfs000 (pobj)</text>
<text text-anchor="middle" x="1770.97" y="-351.64" font-family="Times,serif" font-size="14.00">rep=no, t=no, r=yes, m=yes, c=no</text>
</g>
<!-- n10&#45;&gt;n12 -->
<g id="edge14" class="edge">
<title>n10&#45;&gt;n12</title>
<path fill="none" stroke="black" d="M1770.97,-443.71C1770.97,-435.53 1770.97,-426.75 1770.97,-418.23"/>
<polygon fill="black" stroke="black" points="1774.47,-418.01 1770.97,-408.01 1767.47,-418.01 1774.47,-418.01"/>
</g>
<!-- n7 -->
<g id="node14" class="node">
<title>n7</title>
<ellipse fill="#BEDA48" stroke="black" cx="1175.97" cy="-259.38" rx="190.84" ry="37.45"/>
<text text-anchor="middle" x="1175.97" y="-270.68" font-family="Times,serif" font-size="14.00">PP</text>
<text text-anchor="middle" x="1175.97" y="-255.68" font-family="Times,serif" font-size="14.00">np00000 (pobj)</text>
<text text-anchor="middle" x="1175.97" y="-240.68" font-family="Times,serif" font-size="14.00">rep=no, t=yes, r=no, m=yes, c=no</text>
</g>
<!-- n6&#45;&gt;n7 -->
<g id="edge13" class="edge">
<title>n6&#45;&gt;n7</title>
<path fill="none" stroke="black" d="M1175.97,-332.75C1175.97,-324.58 1175.97,-315.8 1175.97,-307.27"/>
<polygon fill="black" stroke="black" points="1179.47,-307.06 1175.97,-297.06 1172.47,-307.06 1179.47,-307.06"/>
</g>
<!-- n11 -->
<g id="node16" class="node">
<title>n11</title>
<ellipse fill="#DA79E8" stroke="black" cx="1770.97" cy="-259.38" rx="190.84" ry="37.45"/>
<text text-anchor="middle" x="1770.97" y="-270.68" font-family="Times,serif" font-size="14.00">la</text>
<text text-anchor="middle" x="1770.97" y="-255.68" font-family="Times,serif" font-size="14.00">da0fs0 (det)</text>
<text text-anchor="middle" x="1770.97" y="-240.68" font-family="Times,serif" font-size="14.00">rep=no, t=no, r=yes, m=yes, c=no</text>
</g>
<!-- n12&#45;&gt;n11 -->
<g id="edge15" class="edge">
<title>n12&#45;&gt;n11</title>
<path fill="none" stroke="black" d="M1770.97,-332.75C1770.97,-324.58 1770.97,-315.8 1770.97,-307.27"/>
<polygon fill="black" stroke="black" points="1774.47,-307.06 1770.97,-297.06 1767.47,-307.06 1774.47,-307.06"/>
</g>
<!-- n20 -->
<g id="node27" class="node">
<title>n20</title>
<ellipse fill="none" stroke="black" cx="2945.97" cy="-370.34" rx="185.94" ry="37.45"/>
<text text-anchor="middle" x="2945.97" y="-381.64" font-family="Times,serif" font-size="14.00">sido</text>
<text text-anchor="middle" x="2945.97" y="-366.64" font-family="Times,serif" font-size="14.00">vsp00sm (cobj)</text>
<text text-anchor="middle" x="2945.97" y="-351.64" font-family="Times,serif" font-size="14.00">rep=no, t=no, r=no, m=yes, c=no</text>
</g>
<!-- n19&#45;&gt;n20 -->
<g id="edge26" class="edge">
<title>n19&#45;&gt;n20</title>
<path fill="none" stroke="black" d="M2945.97,-443.71C2945.97,-435.53 2945.97,-426.75 2945.97,-418.23"/>
<polygon fill="black" stroke="black" points="2949.47,-418.01 2945.97,-408.01 2942.47,-418.01 2949.47,-418.01"/>
</g>
<!-- n25 -->
<g id="node32" class="node">
<title>n25</title>
<ellipse fill="none" stroke="black" cx="3335.97" cy="-370.34" rx="185.94" ry="37.45"/>
<text text-anchor="middle" x="3335.97" y="-381.64" font-family="Times,serif" font-size="14.00">No</text>
<text text-anchor="middle" x="3335.97" y="-366.64" font-family="Times,serif" font-size="14.00">rn (neg)</text>
<text text-anchor="middle" x="3335.97" y="-351.64" font-family="Times,serif" font-size="14.00">rep=no, t=no, r=no, m=yes, c=no</text>
</g>
<!-- n26&#45;&gt;n25 -->
<g id="edge31" class="edge">
<title>n26&#45;&gt;n25</title>
<path fill="none" stroke="black" d="M3619.4,-450.52C3567.59,-436.05 3505.23,-418.62 3452.2,-403.81"/>
<polygon fill="black" stroke="black" points="3452.98,-400.39 3442.41,-401.07 3451.1,-407.13 3452.98,-400.39"/>
</g>
<!-- n27 -->
<g id="node33" class="node">
<title>n27</title>
<ellipse fill="none" stroke="black" cx="3725.97" cy="-370.34" rx="185.94" ry="37.45"/>
<text text-anchor="middle" x="3725.97" y="-381.64" font-family="Times,serif" font-size="14.00">que</text>
<text text-anchor="middle" x="3725.97" y="-366.64" font-family="Times,serif" font-size="14.00">cs (conj)</text>
<text text-anchor="middle" x="3725.97" y="-351.64" font-family="Times,serif" font-size="14.00">rep=no, t=no, r=no, m=yes, c=no</text>
</g>
<!-- n26&#45;&gt;n27 -->
<g id="edge32" class="edge">
<title>n26&#45;&gt;n27</title>
<path fill="none" stroke="black" d="M3725.97,-443.71C3725.97,-435.53 3725.97,-426.75 3725.97,-418.23"/>
<polygon fill="black" stroke="black" points="3729.47,-418.01 3725.97,-408.01 3722.47,-418.01 3729.47,-418.01"/>
</g>
<!-- n32 -->
<g id="node36" class="node">
<title>n32</title>
<ellipse fill="none" stroke="black" cx="4118.97" cy="-370.34" rx="185.94" ry="37.45"/>
<text text-anchor="middle" x="4118.97" y="-381.64" font-family="Times,serif" font-size="14.00">ahí</text>
<text text-anchor="middle" x="4118.97" y="-366.64" font-family="Times,serif" font-size="14.00">rg (advmod)</text>
<text text-anchor="middle" x="4118.97" y="-351.64" font-family="Times,serif" font-size="14.00">rep=no, t=no, r=no, m=yes, c=no</text>
</g>
<!-- n31&#45;&gt;n32 -->
<g id="edge35" class="edge">
<title>n31&#45;&gt;n32</title>
<path fill="none" stroke="black" d="M4399.96,-450.45C4348.77,-436.03 4287.23,-418.71 4234.81,-403.95"/>
<polygon fill="black" stroke="black" points="4235.7,-400.56 4225.13,-401.22 4233.81,-407.3 4235.7,-400.56"/>
</g>
<!-- n33 -->
<g id="node37" class="node">
<title>n33</title>
<ellipse fill="none" stroke="black" cx="4508.97" cy="-370.34" rx="185.94" ry="37.45"/>
<text text-anchor="middle" x="4508.97" y="-381.64" font-family="Times,serif" font-size="14.00">por</text>
<text text-anchor="middle" x="4508.97" y="-366.64" font-family="Times,serif" font-size="14.00">sps00 (prepv)</text>
<text text-anchor="middle" x="4508.97" y="-351.64" font-family="Times,serif" font-size="14.00">rep=no, t=no, r=no, m=yes, c=no</text>
</g>
<!-- n31&#45;&gt;n33 -->
<g id="edge36" class="edge">
<title>n31&#45;&gt;n33</title>
<path fill="none" stroke="black" d="M4506.98,-443.71C4507.2,-435.53 4507.44,-426.75 4507.68,-418.23"/>
<polygon fill="black" stroke="black" points="4511.18,-418.1 4507.96,-408.01 4504.19,-417.91 4511.18,-418.1"/>
</g>
<!-- n42 -->
<g id="node45" class="node">
<title>n42</title>
<ellipse fill="none" stroke="black" cx="5285.97" cy="-370.34" rx="185.94" ry="37.45"/>
<text text-anchor="middle" x="5285.97" y="-381.64" font-family="Times,serif" font-size="14.00">No</text>
<text text-anchor="middle" x="5285.97" y="-366.64" font-family="Times,serif" font-size="14.00">rn (neg)</text>
<text text-anchor="middle" x="5285.97" y="-351.64" font-family="Times,serif" font-size="14.00">rep=no, t=no, r=no, m=yes, c=no</text>
</g>
<!-- n43&#45;&gt;n42 -->
<g id="edge44" class="edge">
<title>n43&#45;&gt;n42</title>
<path fill="none" stroke="black" d="M5285.97,-443.71C5285.97,-435.53 5285.97,-426.75 5285.97,-418.23"/>
<polygon fill="black" stroke="black" points="5289.47,-418.01 5285.97,-408.01 5282.47,-418.01 5289.47,-418.01"/>
</g>
<!-- n44 -->
<g id="node46" class="node">
<title>n44</title>
<ellipse fill="none" stroke="black" cx="5680.97" cy="-370.34" rx="185.94" ry="37.45"/>
<text text-anchor="middle" x="5680.97" y="-381.64" font-family="Times,serif" font-size="14.00">olvidar</text>
<text text-anchor="middle" x="5680.97" y="-366.64" font-family="Times,serif" font-size="14.00">vmn0000 (dobj)</text>
<text text-anchor="middle" x="5680.97" y="-351.64" font-family="Times,serif" font-size="14.00">rep=no, t=no, r=no, m=yes, c=no</text>
</g>
<!-- n43&#45;&gt;n44 -->
<g id="edge45" class="edge">
<title>n43&#45;&gt;n44</title>
<path fill="none" stroke="black" d="M5393.38,-450.66C5446.07,-436.13 5509.65,-418.59 5563.62,-403.71"/>
<polygon fill="black" stroke="black" points="5564.87,-406.99 5573.58,-400.96 5563.01,-400.24 5564.87,-406.99"/>
</g>
<!-- n17 -->
<g id="node28" class="node">
<title>n17</title>
<ellipse fill="none" stroke="black" cx="2745.97" cy="-259.38" rx="185.94" ry="37.45"/>
<text text-anchor="middle" x="2745.97" y="-270.68" font-family="Times,serif" font-size="14.00">por</text>
<text text-anchor="middle" x="2745.97" y="-255.68" font-family="Times,serif" font-size="14.00">sps00 (prepv)</text>
<text text-anchor="middle" x="2745.97" y="-240.68" font-family="Times,serif" font-size="14.00">rep=no, t=no, r=no, m=yes, c=no</text>
</g>
<!-- n20&#45;&gt;n17 -->
<g id="edge27" class="edge">
<title>n20&#45;&gt;n17</title>
<path fill="none" stroke="black" d="M2882.96,-335.01C2862.32,-323.77 2839.24,-311.19 2817.99,-299.62"/>
<polygon fill="black" stroke="black" points="2819.46,-296.43 2809,-294.72 2816.11,-302.58 2819.46,-296.43"/>
</g>
<!-- n22 -->
<g id="node29" class="node">
<title>n22</title>
<ellipse fill="none" stroke="black" cx="3135.97" cy="-259.38" rx="185.94" ry="37.45"/>
<text text-anchor="middle" x="3135.97" y="-270.68" font-family="Times,serif" font-size="14.00">elegido</text>
<text text-anchor="middle" x="3135.97" y="-255.68" font-family="Times,serif" font-size="14.00">ncms000 (attr)</text>
<text text-anchor="middle" x="3135.97" y="-240.68" font-family="Times,serif" font-size="14.00">rep=no, t=no, r=no, m=yes, c=no</text>
</g>
<!-- n20&#45;&gt;n22 -->
<g id="edge28" class="edge">
<title>n20&#45;&gt;n22</title>
<path fill="none" stroke="black" d="M3006.09,-334.86C3025.41,-323.78 3046.96,-311.42 3066.87,-300.01"/>
<polygon fill="black" stroke="black" points="3068.66,-303.02 3075.59,-295.01 3065.17,-296.94 3068.66,-303.02"/>
</g>
<!-- n18 -->
<g id="node30" class="node">
<title>n18</title>
<ellipse fill="none" stroke="black" cx="2745.97" cy="-148.43" rx="185.94" ry="37.45"/>
<text text-anchor="middle" x="2745.97" y="-159.73" font-family="Times,serif" font-size="14.00">qué</text>
<text text-anchor="middle" x="2745.97" y="-144.73" font-family="Times,serif" font-size="14.00">pt0cs000 (pobj)</text>
<text text-anchor="middle" x="2745.97" y="-129.73" font-family="Times,serif" font-size="14.00">rep=no, t=no, r=no, m=yes, c=no</text>
</g>
<!-- n17&#45;&gt;n18 -->
<g id="edge29" class="edge">
<title>n17&#45;&gt;n18</title>
<path fill="none" stroke="black" d="M2745.97,-221.8C2745.97,-213.63 2745.97,-204.85 2745.97,-196.32"/>
<polygon fill="black" stroke="black" points="2749.47,-196.1 2745.97,-186.1 2742.47,-196.1 2749.47,-196.1"/>
</g>
<!-- n21 -->
<g id="node31" class="node">
<title>n21</title>
<ellipse fill="none" stroke="black" cx="3135.97" cy="-148.43" rx="185.94" ry="37.45"/>
<text text-anchor="middle" x="3135.97" y="-159.73" font-family="Times,serif" font-size="14.00">el</text>
<text text-anchor="middle" x="3135.97" y="-144.73" font-family="Times,serif" font-size="14.00">da0ms0 (det)</text>
<text text-anchor="middle" x="3135.97" y="-129.73" font-family="Times,serif" font-size="14.00">rep=no, t=no, r=no, m=yes, c=no</text>
</g>
<!-- n22&#45;&gt;n21 -->
<g id="edge30" class="edge">
<title>n22&#45;&gt;n21</title>
<path fill="none" stroke="black" d="M3135.97,-221.8C3135.97,-213.63 3135.97,-204.85 3135.97,-196.32"/>
<polygon fill="black" stroke="black" points="3139.47,-196.1 3135.97,-186.1 3132.47,-196.1 3139.47,-196.1"/>
</g>
<!-- n28 -->
<g id="node34" class="node">
<title>n28</title>
<ellipse fill="none" stroke="black" cx="3718.97" cy="-259.38" rx="185.94" ry="37.45"/>
<text text-anchor="middle" x="3718.97" y="-270.68" font-family="Times,serif" font-size="14.00">devolverme</text>
<text text-anchor="middle" x="3718.97" y="-255.68" font-family="Times,serif" font-size="14.00">vmn0000 (cobj)</text>
<text text-anchor="middle" x="3718.97" y="-240.68" font-family="Times,serif" font-size="14.00">rep=no, t=no, r=no, m=yes, c=no</text>
</g>
<!-- n27&#45;&gt;n28 -->
<g id="edge33" class="edge">
<title>n27&#45;&gt;n28</title>
<path fill="none" stroke="black" d="M3723.62,-332.75C3723.09,-324.58 3722.53,-315.8 3721.98,-307.27"/>
<polygon fill="black" stroke="black" points="3725.46,-306.81 3721.33,-297.06 3718.47,-307.26 3725.46,-306.81"/>
</g>
<!-- n29 -->
<g id="node35" class="node">
<title>n29</title>
<ellipse fill="none" stroke="black" cx="3718.97" cy="-148.43" rx="185.94" ry="37.45"/>
<text text-anchor="middle" x="3718.97" y="-159.73" font-family="Times,serif" font-size="14.00">nada</text>
<text text-anchor="middle" x="3718.97" y="-144.73" font-family="Times,serif" font-size="14.00">pi0cs000 (dobj)</text>
<text text-anchor="middle" x="3718.97" y="-129.73" font-family="Times,serif" font-size="14.00">rep=no, t=no, r=no, m=yes, c=no</text>
</g>
<!-- n28&#45;&gt;n29 -->
<g id="edge34" class="edge">
<title>n28&#45;&gt;n29</title>
<path fill="none" stroke="black" d="M3718.97,-221.8C3718.97,-213.63 3718.97,-204.85 3718.97,-196.32"/>
<polygon fill="black" stroke="black" points="3722.47,-196.1 3718.97,-186.1 3715.47,-196.1 3722.47,-196.1"/>
</g>
<!-- n35 -->
<g id="node38" class="node">
<title>n35</title>
<ellipse fill="none" stroke="black" cx="4113.97" cy="-259.38" rx="190.84" ry="37.45"/>
<text text-anchor="middle" x="4113.97" y="-270.68" font-family="Times,serif" font-size="14.00">capacidad</text>
<text text-anchor="middle" x="4113.97" y="-255.68" font-family="Times,serif" font-size="14.00">ncfs000 (pobj)</text>
<text text-anchor="middle" x="4113.97" y="-240.68" font-family="Times,serif" font-size="14.00">rep=no, t=no, r=no, m=yes, c=yes</text>
</g>
<!-- n33&#45;&gt;n35 -->
<g id="edge37" class="edge">
<title>n33&#45;&gt;n35</title>
<path fill="none" stroke="black" d="M4401.56,-339.71C4349.19,-325.26 4286.06,-307.85 4232.31,-293.03"/>
<polygon fill="black" stroke="black" points="4232.96,-289.57 4222.39,-290.29 4231.1,-296.32 4232.96,-289.57"/>
</g>
<!-- n38 -->
<g id="node39" class="node">
<title>n38</title>
<ellipse fill="none" stroke="black" cx="4508.97" cy="-259.38" rx="185.94" ry="37.45"/>
<text text-anchor="middle" x="4508.97" y="-270.68" font-family="Times,serif" font-size="14.00">y</text>
<text text-anchor="middle" x="4508.97" y="-255.68" font-family="Times,serif" font-size="14.00">cc (coord_fixed)</text>
<text text-anchor="middle" x="4508.97" y="-240.68" font-family="Times,serif" font-size="14.00">rep=no, t=no, r=no, m=yes, c=no</text>
</g>
<!-- n33&#45;&gt;n38 -->
<g id="edge38" class="edge">
<title>n33&#45;&gt;n38</title>
<path fill="none" stroke="black" d="M4508.97,-332.75C4508.97,-324.58 4508.97,-315.8 4508.97,-307.27"/>
<polygon fill="black" stroke="black" points="4512.47,-307.06 4508.97,-297.06 4505.47,-307.06 4512.47,-307.06"/>
</g>
<!-- n40 -->
<g id="node40" class="node">
<title>n40</title>
<ellipse fill="none" stroke="black" cx="4903.97" cy="-259.38" rx="190.84" ry="37.45"/>
<text text-anchor="middle" x="4903.97" y="-270.68" font-family="Times,serif" font-size="14.00">competencia</text>
<text text-anchor="middle" x="4903.97" y="-255.68" font-family="Times,serif" font-size="14.00">ncfs000 (pobj)</text>
<text text-anchor="middle" x="4903.97" y="-240.68" font-family="Times,serif" font-size="14.00">rep=no, t=no, r=no, m=yes, c=yes</text>
</g>
<!-- n33&#45;&gt;n40 -->
<g id="edge39" class="edge">
<title>n33&#45;&gt;n40</title>
<path fill="none" stroke="black" d="M4616.38,-339.71C4668.75,-325.26 4731.87,-307.85 4785.62,-293.03"/>
<polygon fill="black" stroke="black" points="4786.84,-296.32 4795.55,-290.29 4784.98,-289.57 4786.84,-296.32"/>
</g>
<!-- n34 -->
<g id="node41" class="node">
<title>n34</title>
<ellipse fill="none" stroke="black" cx="4111.97" cy="-148.43" rx="185.94" ry="37.45"/>
<text text-anchor="middle" x="4111.97" y="-159.73" font-family="Times,serif" font-size="14.00">tu</text>
<text text-anchor="middle" x="4111.97" y="-144.73" font-family="Times,serif" font-size="14.00">dp2css (poss)</text>
<text text-anchor="middle" x="4111.97" y="-129.73" font-family="Times,serif" font-size="14.00">rep=no, t=no, r=no, m=yes, c=no</text>
</g>
<!-- n35&#45;&gt;n34 -->
<g id="edge40" class="edge">
<title>n35&#45;&gt;n34</title>
<path fill="none" stroke="black" d="M4113.3,-221.8C4113.15,-213.63 4112.99,-204.85 4112.83,-196.32"/>
<polygon fill="black" stroke="black" points="4116.33,-196.04 4112.64,-186.1 4109.33,-196.16 4116.33,-196.04"/>
</g>
<!-- n36 -->
<g id="node42" class="node">
<title>n36</title>
<ellipse fill="none" stroke="black" cx="4501.97" cy="-148.43" rx="185.94" ry="37.45"/>
<text text-anchor="middle" x="4501.97" y="-159.73" font-family="Times,serif" font-size="14.00">de</text>
<text text-anchor="middle" x="4501.97" y="-144.73" font-family="Times,serif" font-size="14.00">sps00 (prepn)</text>
<text text-anchor="middle" x="4501.97" y="-129.73" font-family="Times,serif" font-size="14.00">rep=no, t=no, r=no, m=yes, c=no</text>
</g>
<!-- n35&#45;&gt;n36 -->
<g id="edge41" class="edge">
<title>n35&#45;&gt;n36</title>
<path fill="none" stroke="black" d="M4221.02,-228.32C4272.23,-213.94 4333.62,-196.7 4385.95,-182.01"/>
<polygon fill="black" stroke="black" points="4386.92,-185.37 4395.6,-179.3 4385.03,-178.63 4386.92,-185.37"/>
</g>
<!-- n39 -->
<g id="node44" class="node">
<title>n39</title>
<ellipse fill="none" stroke="black" cx="4895.97" cy="-148.43" rx="185.94" ry="37.45"/>
<text text-anchor="middle" x="4895.97" y="-159.73" font-family="Times,serif" font-size="14.00">tu</text>
<text text-anchor="middle" x="4895.97" y="-144.73" font-family="Times,serif" font-size="14.00">dp2css (poss)</text>
<text text-anchor="middle" x="4895.97" y="-129.73" font-family="Times,serif" font-size="14.00">rep=no, t=no, r=no, m=yes, c=no</text>
</g>
<!-- n40&#45;&gt;n39 -->
<g id="edge43" class="edge">
<title>n40&#45;&gt;n39</title>
<path fill="none" stroke="black" d="M4901.28,-221.8C4900.68,-213.63 4900.04,-204.85 4899.41,-196.32"/>
<polygon fill="black" stroke="black" points="4902.88,-195.82 4898.66,-186.1 4895.9,-196.33 4902.88,-195.82"/>
</g>
<!-- n37 -->
<g id="node43" class="node">
<title>n37</title>
<ellipse fill="none" stroke="black" cx="4501.97" cy="-37.48" rx="185.94" ry="37.45"/>
<text text-anchor="middle" x="4501.97" y="-48.78" font-family="Times,serif" font-size="14.00">trabajo</text>
<text text-anchor="middle" x="4501.97" y="-33.78" font-family="Times,serif" font-size="14.00">ncms000 (pobj)</text>
<text text-anchor="middle" x="4501.97" y="-18.78" font-family="Times,serif" font-size="14.00">rep=no, t=no, r=no, m=yes, c=no</text>
</g>
<!-- n36&#45;&gt;n37 -->
<g id="edge42" class="edge">
<title>n36&#45;&gt;n37</title>
<path fill="none" stroke="black" d="M4501.97,-110.85C4501.97,-102.67 4501.97,-93.89 4501.97,-85.37"/>
<polygon fill="black" stroke="black" points="4505.47,-85.15 4501.97,-75.15 4498.47,-85.15 4505.47,-85.15"/>
</g>
<!-- n46 -->
<g id="node47" class="node">
<title>n46</title>
<ellipse fill="none" stroke="black" cx="5684.97" cy="-259.38" rx="185.94" ry="37.45"/>
<text text-anchor="middle" x="5684.97" y="-270.68" font-family="Times,serif" font-size="14.00">lealtad</text>
<text text-anchor="middle" x="5684.97" y="-255.68" font-family="Times,serif" font-size="14.00">ncfs000 (dobj)</text>
<text text-anchor="middle" x="5684.97" y="-240.68" font-family="Times,serif" font-size="14.00">rep=no, t=no, r=no, m=yes, c=no</text>
</g>
<!-- n44&#45;&gt;n46 -->
<g id="edge46" class="edge">
<title>n44&#45;&gt;n46</title>
<path fill="none" stroke="black" d="M5682.31,-332.75C5682.61,-324.58 5682.93,-315.8 5683.25,-307.27"/>
<polygon fill="black" stroke="black" points="5686.75,-307.18 5683.62,-297.06 5679.76,-306.92 5686.75,-307.18"/>
</g>
<!-- n45 -->
<g id="node48" class="node">
<title>n45</title>
<ellipse fill="none" stroke="black" cx="5285.97" cy="-148.43" rx="185.94" ry="37.45"/>
<text text-anchor="middle" x="5285.97" y="-159.73" font-family="Times,serif" font-size="14.00">tu</text>
<text text-anchor="middle" x="5285.97" y="-144.73" font-family="Times,serif" font-size="14.00">dp2css (poss)</text>
<text text-anchor="middle" x="5285.97" y="-129.73" font-family="Times,serif" font-size="14.00">rep=no, t=no, r=no, m=yes, c=no</text>
</g>
<!-- n46&#45;&gt;n45 -->
<g id="edge47" class="edge">
<title>n46&#45;&gt;n45</title>
<path fill="none" stroke="black" d="M5576.73,-228.83C5523.28,-214.23 5458.7,-196.6 5403.98,-181.66"/>
<polygon fill="black" stroke="black" points="5404.81,-178.25 5394.24,-179 5402.96,-185.01 5404.81,-178.25"/>
</g>
<!-- n47 -->
<g id="node49" class="node">
<title>n47</title>
<ellipse fill="none" stroke="black" cx="5680.97" cy="-148.43" rx="190.84" ry="37.45"/>
<text text-anchor="middle" x="5680.97" y="-159.73" font-family="Times,serif" font-size="14.00">al</text>
<text text-anchor="middle" x="5680.97" y="-144.73" font-family="Times,serif" font-size="14.00">spcms (prepn)</text>
<text text-anchor="middle" x="5680.97" y="-129.73" font-family="Times,serif" font-size="14.00">rep=no, t=no, r=no, m=yes, c=yes</text>
</g>
<!-- n46&#45;&gt;n47 -->
<g id="edge48" class="edge">
<title>n46&#45;&gt;n47</title>
<path fill="none" stroke="black" d="M5683.63,-221.8C5683.33,-213.63 5683,-204.85 5682.69,-196.32"/>
<polygon fill="black" stroke="black" points="5686.18,-195.97 5682.32,-186.1 5679.18,-196.22 5686.18,-195.97"/>
</g>
<!-- n50 -->
<g id="node50" class="node">
<title>n50</title>
<ellipse fill="none" stroke="black" cx="6080.97" cy="-148.43" rx="190.84" ry="37.45"/>
<text text-anchor="middle" x="6080.97" y="-159.73" font-family="Times,serif" font-size="14.00">al</text>
<text text-anchor="middle" x="6080.97" y="-144.73" font-family="Times,serif" font-size="14.00">spcms (prepn)</text>
<text text-anchor="middle" x="6080.97" y="-129.73" font-family="Times,serif" font-size="14.00">rep=no, t=no, r=no, m=yes, c=yes</text>
</g>
<!-- n46&#45;&gt;n50 -->
<g id="edge49" class="edge">
<title>n46&#45;&gt;n50</title>
<path fill="none" stroke="black" d="M5792.65,-228.76C5845.16,-214.31 5908.44,-196.9 5962.33,-182.07"/>
<polygon fill="black" stroke="black" points="5963.56,-185.36 5972.27,-179.34 5961.7,-178.61 5963.56,-185.36"/>
</g>
<!-- n52 -->
<g id="node51" class="node">
<title>n52</title>
<ellipse fill="none" stroke="black" cx="6475.97" cy="-148.43" rx="185.94" ry="37.45"/>
<text text-anchor="middle" x="6475.97" y="-159.73" font-family="Times,serif" font-size="14.00">y</text>
<text text-anchor="middle" x="6475.97" y="-144.73" font-family="Times,serif" font-size="14.00">cc (coord_fixed)</text>
<text text-anchor="middle" x="6475.97" y="-129.73" font-family="Times,serif" font-size="14.00">rep=no, t=no, r=no, m=yes, c=no</text>
</g>
<!-- n46&#45;&gt;n52 -->
<g id="edge50" class="edge">
<title>n46&#45;&gt;n52</title>
<path fill="none" stroke="black" d="M5848.2,-241.38C5968.19,-228.19 6135.07,-208.4 6280.97,-185.91 6298.49,-183.21 6316.85,-180.12 6335,-176.9"/>
<polygon fill="black" stroke="black" points="6335.82,-180.31 6345.05,-175.11 6334.59,-173.42 6335.82,-180.31"/>
</g>
<!-- n53 -->
<g id="node52" class="node">
<title>n53</title>
<ellipse fill="none" stroke="black" cx="6870.97" cy="-148.43" rx="190.84" ry="37.45"/>
<text text-anchor="middle" x="6870.97" y="-159.73" font-family="Times,serif" font-size="14.00">al</text>
<text text-anchor="middle" x="6870.97" y="-144.73" font-family="Times,serif" font-size="14.00">spcms (prepn)</text>
<text text-anchor="middle" x="6870.97" y="-129.73" font-family="Times,serif" font-size="14.00">rep=no, t=no, r=no, m=yes, c=yes</text>
</g>
<!-- n46&#45;&gt;n53 -->
<g id="edge51" class="edge">
<title>n46&#45;&gt;n53</title>
<path fill="none" stroke="black" d="M5866.37,-250.88C6064.62,-241.31 6391.31,-221.58 6670.97,-185.91 6689.75,-183.51 6709.45,-180.52 6728.84,-177.28"/>
<polygon fill="black" stroke="black" points="6729.68,-180.69 6738.95,-175.57 6728.51,-173.79 6729.68,-180.69"/>
</g>
<!-- n48 -->
<g id="node53" class="node">
<title>n48</title>
<ellipse fill="none" stroke="black" cx="5680.97" cy="-37.48" rx="185.94" ry="37.45"/>
<text text-anchor="middle" x="5680.97" y="-48.78" font-family="Times,serif" font-size="14.00">partido</text>
<text text-anchor="middle" x="5680.97" y="-33.78" font-family="Times,serif" font-size="14.00">ncms000 (pobj)</text>
<text text-anchor="middle" x="5680.97" y="-18.78" font-family="Times,serif" font-size="14.00">rep=no, t=no, r=no, m=yes, c=no</text>
</g>
<!-- n47&#45;&gt;n48 -->
<g id="edge52" class="edge">
<title>n47&#45;&gt;n48</title>
<path fill="none" stroke="black" d="M5680.97,-110.85C5680.97,-102.67 5680.97,-93.89 5680.97,-85.37"/>
<polygon fill="black" stroke="black" points="5684.47,-85.15 5680.97,-75.15 5677.47,-85.15 5684.47,-85.15"/>
</g>
<!-- n51 -->
<g id="node54" class="node">
<title>n51</title>
<ellipse fill="none" stroke="black" cx="6080.97" cy="-37.48" rx="185.94" ry="37.45"/>
<text text-anchor="middle" x="6080.97" y="-48.78" font-family="Times,serif" font-size="14.00">proyecto</text>
<text text-anchor="middle" x="6080.97" y="-33.78" font-family="Times,serif" font-size="14.00">ncms000 (pobj)</text>
<text text-anchor="middle" x="6080.97" y="-18.78" font-family="Times,serif" font-size="14.00">rep=no, t=no, r=no, m=yes, c=no</text>
</g>
<!-- n50&#45;&gt;n51 -->
<g id="edge53" class="edge">
<title>n50&#45;&gt;n51</title>
<path fill="none" stroke="black" d="M6080.97,-110.85C6080.97,-102.67 6080.97,-93.89 6080.97,-85.37"/>
<polygon fill="black" stroke="black" points="6084.47,-85.15 6080.97,-75.15 6077.47,-85.15 6084.47,-85.15"/>
</g>
<!-- n49 -->
<g id="node55" class="node">
<title>n49</title>
<ellipse fill="none" stroke="black" cx="6475.97" cy="-37.48" rx="185.94" ry="37.45"/>
<text text-anchor="middle" x="6475.97" y="-48.78" font-family="Times,serif" font-size="14.00">,</text>
<text text-anchor="middle" x="6475.97" y="-33.78" font-family="Times,serif" font-size="14.00">fc (punct)</text>
<text text-anchor="middle" x="6475.97" y="-18.78" font-family="Times,serif" font-size="14.00">rep=no, t=no, r=no, m=yes, c=no</text>
</g>
<!-- n52&#45;&gt;n49 -->
<g id="edge54" class="edge">
<title>n52&#45;&gt;n49</title>
<path fill="none" stroke="black" d="M6475.97,-110.85C6475.97,-102.67 6475.97,-93.89 6475.97,-85.37"/>
<polygon fill="black" stroke="black" points="6479.47,-85.15 6475.97,-75.15 6472.47,-85.15 6479.47,-85.15"/>
</g>
<!-- n54 -->
<g id="node56" class="node">
<title>n54</title>
<ellipse fill="none" stroke="black" cx="6870.97" cy="-37.48" rx="185.94" ry="37.45"/>
<text text-anchor="middle" x="6870.97" y="-48.78" font-family="Times,serif" font-size="14.00">país</text>
<text text-anchor="middle" x="6870.97" y="-33.78" font-family="Times,serif" font-size="14.00">ncms000 (pobj)</text>
<text text-anchor="middle" x="6870.97" y="-18.78" font-family="Times,serif" font-size="14.00">rep=no, t=no, r=no, m=yes, c=no</text>
</g>
<!-- n53&#45;&gt;n54 -->
<g id="edge55" class="edge">
<title>n53&#45;&gt;n54</title>
<path fill="none" stroke="black" d="M6870.97,-110.85C6870.97,-102.67 6870.97,-93.89 6870.97,-85.37"/>
<polygon fill="black" stroke="black" points="6874.47,-85.15 6870.97,-75.15 6867.47,-85.15 6874.47,-85.15"/>
</g>
</g>
</svg>
