<?xml version="1.0" encoding="UTF-8" standalone="no"?>
<!DOCTYPE svg PUBLIC "-//W3C//DTD SVG 1.1//EN"
 "http://www.w3.org/Graphics/SVG/1.1/DTD/svg11.dtd">
<!-- Generated by graphviz version 2.43.0 (0)
 -->
<!-- Title: tree Pages: 1 -->
<svg width="4125pt" height="971pt"
 viewBox="0.00 0.00 4124.89 970.58" xmlns="http://www.w3.org/2000/svg" xmlns:xlink="http://www.w3.org/1999/xlink">
<g id="graph0" class="graph" transform="scale(1 1) rotate(0) translate(4 966.58)">
<title>tree</title>
<polygon fill="white" stroke="transparent" points="-4,4 -4,-966.58 4120.89,-966.58 4120.89,4 -4,4"/>
<!-- n18 -->
<g id="node1" class="node">
<title>n18</title>
<ellipse fill="#98D2A5" stroke="black" cx="1745.97" cy="-925.1" rx="185.94" ry="37.45"/>
<text text-anchor="middle" x="1745.97" y="-936.4" font-family="Times,serif" font-size="14.00">dijo</text>
<text text-anchor="middle" x="1745.97" y="-921.4" font-family="Times,serif" font-size="14.00">vmis3s0 (root)</text>
<text text-anchor="middle" x="1745.97" y="-906.4" font-family="Times,serif" font-size="14.00">rep=no, t=no, r=no, m=yes, c=no</text>
</g>
<!-- n17 -->
<g id="node2" class="node">
<title>n17</title>
<ellipse fill="none" stroke="black" cx="1359.97" cy="-814.15" rx="181.95" ry="37.45"/>
<text text-anchor="middle" x="1359.97" y="-825.45" font-family="Times,serif" font-size="14.00">,</text>
<text text-anchor="middle" x="1359.97" y="-810.45" font-family="Times,serif" font-size="14.00">fc (punct)</text>
<text text-anchor="middle" x="1359.97" y="-795.45" font-family="Times,serif" font-size="14.00">rep=no, t=no, r=no, m=no, c=no</text>
</g>
<!-- n18&#45;&gt;n17 -->
<g id="edge1" class="edge">
<title>n18&#45;&gt;n17</title>
<path fill="none" stroke="black" d="M1640.24,-894.26C1588.97,-879.79 1527.29,-862.38 1474.86,-847.58"/>
<polygon fill="black" stroke="black" points="1475.76,-844.2 1465.18,-844.85 1473.86,-850.93 1475.76,-844.2"/>
</g>
<!-- n19 -->
<g id="node3" class="node">
<title>n19</title>
<ellipse fill="#98D2A5" stroke="black" cx="1745.97" cy="-814.15" rx="185.94" ry="37.45"/>
<text text-anchor="middle" x="1745.97" y="-825.45" font-family="Times,serif" font-size="14.00">Moussaoui</text>
<text text-anchor="middle" x="1745.97" y="-810.45" font-family="Times,serif" font-size="14.00">np00000 (nsubj)</text>
<text text-anchor="middle" x="1745.97" y="-795.45" font-family="Times,serif" font-size="14.00">rep=no, t=no, r=no, m=yes, c=no</text>
</g>
<!-- n18&#45;&gt;n19 -->
<g id="edge2" class="edge">
<title>n18&#45;&gt;n19</title>
<path fill="none" stroke="black" d="M1745.97,-887.52C1745.97,-879.35 1745.97,-870.57 1745.97,-862.04"/>
<polygon fill="black" stroke="black" points="1749.47,-861.82 1745.97,-851.82 1742.47,-861.82 1749.47,-861.82"/>
</g>
<!-- n33 -->
<g id="node4" class="node">
<title>n33</title>
<ellipse fill="none" stroke="black" cx="2131.97" cy="-814.15" rx="181.95" ry="37.45"/>
<text text-anchor="middle" x="2131.97" y="-825.45" font-family="Times,serif" font-size="14.00">.</text>
<text text-anchor="middle" x="2131.97" y="-810.45" font-family="Times,serif" font-size="14.00">fp (punct)</text>
<text text-anchor="middle" x="2131.97" y="-795.45" font-family="Times,serif" font-size="14.00">rep=no, t=no, r=no, m=no, c=no</text>
</g>
<!-- n18&#45;&gt;n33 -->
<g id="edge3" class="edge">
<title>n18&#45;&gt;n33</title>
<path fill="none" stroke="black" d="M1851.7,-894.26C1902.97,-879.79 1964.65,-862.38 2017.08,-847.58"/>
<polygon fill="black" stroke="black" points="2018.08,-850.93 2026.75,-844.85 2016.18,-844.2 2018.08,-850.93"/>
</g>
<!-- n1 -->
<g id="node5" class="node">
<title>n1</title>
<ellipse fill="#98D2A5" stroke="black" cx="575.97" cy="-703.2" rx="185.94" ry="37.45"/>
<text text-anchor="middle" x="575.97" y="-714.5" font-family="Times,serif" font-size="14.00">&quot;</text>
<text text-anchor="middle" x="575.97" y="-699.5" font-family="Times,serif" font-size="14.00">fe (punct)</text>
<text text-anchor="middle" x="575.97" y="-684.5" font-family="Times,serif" font-size="14.00">rep=no, t=no, r=no, m=yes, c=no</text>
</g>
<!-- n19&#45;&gt;n1 -->
<g id="edge4" class="edge">
<title>n19&#45;&gt;n1</title>
<path fill="none" stroke="black" d="M1618.91,-786.75C1596.36,-782.82 1573.04,-779.23 1550.97,-776.67 1206.25,-736.67 1115.69,-780.67 770.97,-740.67 752.18,-738.49 732.47,-735.57 713.11,-732.32"/>
<polygon fill="black" stroke="black" points="713.47,-728.83 703.03,-730.59 712.29,-735.73 713.47,-728.83"/>
</g>
<!-- n8 -->
<g id="node6" class="node">
<title>n8</title>
<ellipse fill="#98D2A5" stroke="black" cx="965.97" cy="-703.2" rx="185.94" ry="37.45"/>
<text text-anchor="middle" x="965.97" y="-714.5" font-family="Times,serif" font-size="14.00">tengo</text>
<text text-anchor="middle" x="965.97" y="-699.5" font-family="Times,serif" font-size="14.00">vmip1s0 (dep)</text>
<text text-anchor="middle" x="965.97" y="-684.5" font-family="Times,serif" font-size="14.00">rep=no, t=no, r=no, m=yes, c=no</text>
</g>
<!-- n19&#45;&gt;n8 -->
<g id="edge5" class="edge">
<title>n19&#45;&gt;n8</title>
<path fill="none" stroke="black" d="M1616.44,-787.18C1594.64,-783.31 1572.2,-779.63 1550.97,-776.67 1378.57,-752.64 1333.37,-764.7 1160.97,-740.67 1142.97,-738.16 1124.11,-735.14 1105.5,-731.92"/>
<polygon fill="black" stroke="black" points="1105.95,-728.45 1095.5,-730.17 1104.74,-735.34 1105.95,-728.45"/>
</g>
<!-- n12 -->
<g id="node7" class="node">
<title>n12</title>
<ellipse fill="#98D2A5" stroke="black" cx="1355.97" cy="-703.2" rx="185.94" ry="37.45"/>
<text text-anchor="middle" x="1355.97" y="-714.5" font-family="Times,serif" font-size="14.00">;</text>
<text text-anchor="middle" x="1355.97" y="-699.5" font-family="Times,serif" font-size="14.00">fx (punct)</text>
<text text-anchor="middle" x="1355.97" y="-684.5" font-family="Times,serif" font-size="14.00">rep=no, t=no, r=no, m=yes, c=no</text>
</g>
<!-- n19&#45;&gt;n12 -->
<g id="edge6" class="edge">
<title>n19&#45;&gt;n12</title>
<path fill="none" stroke="black" d="M1639.4,-783.38C1587.59,-768.91 1525.23,-751.48 1472.2,-736.67"/>
<polygon fill="black" stroke="black" points="1472.98,-733.25 1462.41,-733.93 1471.1,-739.99 1472.98,-733.25"/>
</g>
<!-- n14 -->
<g id="node8" class="node">
<title>n14</title>
<ellipse fill="#98D2A5" stroke="black" cx="1745.97" cy="-703.2" rx="185.94" ry="37.45"/>
<text text-anchor="middle" x="1745.97" y="-714.5" font-family="Times,serif" font-size="14.00">declaro</text>
<text text-anchor="middle" x="1745.97" y="-699.5" font-family="Times,serif" font-size="14.00">vmip1s0 (dep)</text>
<text text-anchor="middle" x="1745.97" y="-684.5" font-family="Times,serif" font-size="14.00">rep=no, t=no, r=no, m=yes, c=no</text>
</g>
<!-- n19&#45;&gt;n14 -->
<g id="edge7" class="edge">
<title>n19&#45;&gt;n14</title>
<path fill="none" stroke="black" d="M1745.97,-776.57C1745.97,-768.39 1745.97,-759.61 1745.97,-751.09"/>
<polygon fill="black" stroke="black" points="1749.47,-750.87 1745.97,-740.87 1742.47,-750.87 1749.47,-750.87"/>
</g>
<!-- n16 -->
<g id="node9" class="node">
<title>n16</title>
<ellipse fill="#98D2A5" stroke="black" cx="2135.97" cy="-703.2" rx="185.94" ry="37.45"/>
<text text-anchor="middle" x="2135.97" y="-714.5" font-family="Times,serif" font-size="14.00">&quot;</text>
<text text-anchor="middle" x="2135.97" y="-699.5" font-family="Times,serif" font-size="14.00">fe (punct)</text>
<text text-anchor="middle" x="2135.97" y="-684.5" font-family="Times,serif" font-size="14.00">rep=no, t=no, r=no, m=yes, c=no</text>
</g>
<!-- n19&#45;&gt;n16 -->
<g id="edge8" class="edge">
<title>n19&#45;&gt;n16</title>
<path fill="none" stroke="black" d="M1852.54,-783.38C1904.34,-768.91 1966.71,-751.48 2019.74,-736.67"/>
<polygon fill="black" stroke="black" points="2020.84,-739.99 2029.53,-733.93 2018.96,-733.25 2020.84,-739.99"/>
</g>
<!-- n20 -->
<g id="node10" class="node">
<title>n20</title>
<ellipse fill="#98D2A5" stroke="black" cx="2525.97" cy="-703.2" rx="185.94" ry="37.45"/>
<text text-anchor="middle" x="2525.97" y="-714.5" font-family="Times,serif" font-size="14.00">,</text>
<text text-anchor="middle" x="2525.97" y="-699.5" font-family="Times,serif" font-size="14.00">fc (punct)</text>
<text text-anchor="middle" x="2525.97" y="-684.5" font-family="Times,serif" font-size="14.00">rep=no, t=no, r=no, m=yes, c=no</text>
</g>
<!-- n19&#45;&gt;n20 -->
<g id="edge9" class="edge">
<title>n19&#45;&gt;n20</title>
<path fill="none" stroke="black" d="M1875.5,-787.18C1897.3,-783.31 1919.73,-779.63 1940.97,-776.67 2113.37,-752.64 2158.57,-764.7 2330.97,-740.67 2348.97,-738.16 2367.83,-735.14 2386.44,-731.92"/>
<polygon fill="black" stroke="black" points="2387.2,-735.34 2396.44,-730.17 2385.99,-728.45 2387.2,-735.34"/>
</g>
<!-- n22 -->
<g id="node11" class="node">
<title>n22</title>
<ellipse fill="#98D2A5" stroke="black" cx="2920.97" cy="-703.2" rx="190.84" ry="37.45"/>
<text text-anchor="middle" x="2920.97" y="-714.5" font-family="Times,serif" font-size="14.00">vestía</text>
<text text-anchor="middle" x="2920.97" y="-699.5" font-family="Times,serif" font-size="14.00">vmii3s0 (rcmod)</text>
<text text-anchor="middle" x="2920.97" y="-684.5" font-family="Times,serif" font-size="14.00">rep=no, t=no, r=yes, m=yes, c=no</text>
</g>
<!-- n19&#45;&gt;n22 -->
<g id="edge10" class="edge">
<title>n19&#45;&gt;n22</title>
<path fill="none" stroke="black" d="M1873.03,-786.75C1895.58,-782.82 1918.9,-779.23 1940.97,-776.67 2285.69,-736.67 2376.16,-779.89 2720.97,-740.67 2740.24,-738.48 2760.46,-735.55 2780.33,-732.29"/>
<polygon fill="black" stroke="black" points="2781.08,-735.72 2790.36,-730.62 2779.92,-728.81 2781.08,-735.72"/>
</g>
<!-- n2 -->
<g id="node12" class="node">
<title>n2</title>
<ellipse fill="#98D2A5" stroke="black" cx="185.97" cy="-592.24" rx="185.94" ry="37.45"/>
<text text-anchor="middle" x="185.97" y="-603.54" font-family="Times,serif" font-size="14.00">En</text>
<text text-anchor="middle" x="185.97" y="-588.54" font-family="Times,serif" font-size="14.00">sps00 (prepv)</text>
<text text-anchor="middle" x="185.97" y="-573.54" font-family="Times,serif" font-size="14.00">rep=no, t=no, r=no, m=yes, c=no</text>
</g>
<!-- n8&#45;&gt;n2 -->
<g id="edge11" class="edge">
<title>n8&#45;&gt;n2</title>
<path fill="none" stroke="black" d="M836.44,-676.23C814.64,-672.36 792.2,-668.68 770.97,-665.72 598.57,-641.69 553.37,-653.75 380.97,-629.72 362.97,-627.21 344.11,-624.19 325.5,-620.97"/>
<polygon fill="black" stroke="black" points="325.95,-617.49 315.5,-619.21 324.74,-624.39 325.95,-617.49"/>
</g>
<!-- n6 -->
<g id="node13" class="node">
<title>n6</title>
<ellipse fill="#98D2A5" stroke="black" cx="575.97" cy="-592.24" rx="185.94" ry="37.45"/>
<text text-anchor="middle" x="575.97" y="-603.54" font-family="Times,serif" font-size="14.00">,</text>
<text text-anchor="middle" x="575.97" y="-588.54" font-family="Times,serif" font-size="14.00">fc (punct)</text>
<text text-anchor="middle" x="575.97" y="-573.54" font-family="Times,serif" font-size="14.00">rep=no, t=no, r=no, m=yes, c=no</text>
</g>
<!-- n8&#45;&gt;n6 -->
<g id="edge12" class="edge">
<title>n8&#45;&gt;n6</title>
<path fill="none" stroke="black" d="M859.4,-672.42C807.59,-657.95 745.23,-640.53 692.2,-625.71"/>
<polygon fill="black" stroke="black" points="692.98,-622.3 682.41,-622.98 691.1,-629.04 692.98,-622.3"/>
</g>
<!-- n7 -->
<g id="node14" class="node">
<title>n7</title>
<ellipse fill="#98D2A5" stroke="black" cx="965.97" cy="-592.24" rx="185.94" ry="37.45"/>
<text text-anchor="middle" x="965.97" y="-603.54" font-family="Times,serif" font-size="14.00">no</text>
<text text-anchor="middle" x="965.97" y="-588.54" font-family="Times,serif" font-size="14.00">rn (neg)</text>
<text text-anchor="middle" x="965.97" y="-573.54" font-family="Times,serif" font-size="14.00">rep=no, t=no, r=no, m=yes, c=no</text>
</g>
<!-- n8&#45;&gt;n7 -->
<g id="edge13" class="edge">
<title>n8&#45;&gt;n7</title>
<path fill="none" stroke="black" d="M965.97,-665.61C965.97,-657.44 965.97,-648.66 965.97,-640.13"/>
<polygon fill="black" stroke="black" points="969.47,-639.92 965.97,-629.92 962.47,-639.92 969.47,-639.92"/>
</g>
<!-- n9 -->
<g id="node15" class="node">
<title>n9</title>
<ellipse fill="#98D2A5" stroke="black" cx="1355.97" cy="-592.24" rx="185.94" ry="37.45"/>
<text text-anchor="middle" x="1355.97" y="-603.54" font-family="Times,serif" font-size="14.00">nada</text>
<text text-anchor="middle" x="1355.97" y="-588.54" font-family="Times,serif" font-size="14.00">pi0cs000 (dobj)</text>
<text text-anchor="middle" x="1355.97" y="-573.54" font-family="Times,serif" font-size="14.00">rep=no, t=no, r=no, m=yes, c=no</text>
</g>
<!-- n8&#45;&gt;n9 -->
<g id="edge14" class="edge">
<title>n8&#45;&gt;n9</title>
<path fill="none" stroke="black" d="M1072.54,-672.42C1124.34,-657.95 1186.71,-640.53 1239.74,-625.71"/>
<polygon fill="black" stroke="black" points="1240.84,-629.04 1249.53,-622.98 1238.96,-622.3 1240.84,-629.04"/>
</g>
<!-- n13 -->
<g id="node21" class="node">
<title>n13</title>
<ellipse fill="#98D2A5" stroke="black" cx="1745.97" cy="-592.24" rx="185.94" ry="37.45"/>
<text text-anchor="middle" x="1745.97" y="-603.54" font-family="Times,serif" font-size="14.00">no</text>
<text text-anchor="middle" x="1745.97" y="-588.54" font-family="Times,serif" font-size="14.00">rn (neg)</text>
<text text-anchor="middle" x="1745.97" y="-573.54" font-family="Times,serif" font-size="14.00">rep=no, t=no, r=no, m=yes, c=no</text>
</g>
<!-- n14&#45;&gt;n13 -->
<g id="edge20" class="edge">
<title>n14&#45;&gt;n13</title>
<path fill="none" stroke="black" d="M1745.97,-665.61C1745.97,-657.44 1745.97,-648.66 1745.97,-640.13"/>
<polygon fill="black" stroke="black" points="1749.47,-639.92 1745.97,-629.92 1742.47,-639.92 1749.47,-639.92"/>
</g>
<!-- n15 -->
<g id="node22" class="node">
<title>n15</title>
<ellipse fill="#98D2A5" stroke="black" cx="2135.97" cy="-592.24" rx="185.94" ry="37.45"/>
<text text-anchor="middle" x="2135.97" y="-603.54" font-family="Times,serif" font-size="14.00">nada</text>
<text text-anchor="middle" x="2135.97" y="-588.54" font-family="Times,serif" font-size="14.00">pi0cs000 (dobj)</text>
<text text-anchor="middle" x="2135.97" y="-573.54" font-family="Times,serif" font-size="14.00">rep=no, t=no, r=no, m=yes, c=no</text>
</g>
<!-- n14&#45;&gt;n15 -->
<g id="edge21" class="edge">
<title>n14&#45;&gt;n15</title>
<path fill="none" stroke="black" d="M1852.54,-672.42C1904.34,-657.95 1966.71,-640.53 2019.74,-625.71"/>
<polygon fill="black" stroke="black" points="2020.84,-629.04 2029.53,-622.98 2018.96,-622.3 2020.84,-629.04"/>
</g>
<!-- n21 -->
<g id="node23" class="node">
<title>n21</title>
<ellipse fill="#98D2A5" stroke="black" cx="2725.97" cy="-592.24" rx="190.84" ry="37.45"/>
<text text-anchor="middle" x="2725.97" y="-603.54" font-family="Times,serif" font-size="14.00">que</text>
<text text-anchor="middle" x="2725.97" y="-588.54" font-family="Times,serif" font-size="14.00">pr0cn000 (nsubj)</text>
<text text-anchor="middle" x="2725.97" y="-573.54" font-family="Times,serif" font-size="14.00">rep=no, t=yes, r=no, m=yes, c=no</text>
</g>
<!-- n22&#45;&gt;n21 -->
<g id="edge22" class="edge">
<title>n22&#45;&gt;n21</title>
<path fill="none" stroke="black" d="M2859.27,-667.72C2839.44,-656.64 2817.32,-644.28 2796.88,-632.87"/>
<polygon fill="black" stroke="black" points="2798.37,-629.69 2787.94,-627.87 2794.96,-635.8 2798.37,-629.69"/>
</g>
<!-- n24 -->
<g id="node24" class="node">
<title>n24</title>
<ellipse fill="#98D2A5" stroke="black" cx="3125.97" cy="-592.24" rx="190.84" ry="37.45"/>
<text text-anchor="middle" x="3125.97" y="-603.54" font-family="Times,serif" font-size="14.00">sudadera</text>
<text text-anchor="middle" x="3125.97" y="-588.54" font-family="Times,serif" font-size="14.00">ncfs000 (dobj)</text>
<text text-anchor="middle" x="3125.97" y="-573.54" font-family="Times,serif" font-size="14.00">rep=no, t=no, r=yes, m=yes, c=no</text>
</g>
<!-- n22&#45;&gt;n24 -->
<g id="edge23" class="edge">
<title>n22&#45;&gt;n24</title>
<path fill="none" stroke="black" d="M2985.55,-667.87C3006.8,-656.58 3030.58,-643.94 3052.44,-632.32"/>
<polygon fill="black" stroke="black" points="3054.17,-635.37 3061.36,-627.58 3050.89,-629.18 3054.17,-635.37"/>
</g>
<!-- n3 -->
<g id="node16" class="node">
<title>n3</title>
<ellipse fill="#98D2A5" stroke="black" cx="185.97" cy="-481.29" rx="185.94" ry="37.45"/>
<text text-anchor="middle" x="185.97" y="-492.59" font-family="Times,serif" font-size="14.00">nombre</text>
<text text-anchor="middle" x="185.97" y="-477.59" font-family="Times,serif" font-size="14.00">ncms000 (pobj)</text>
<text text-anchor="middle" x="185.97" y="-462.59" font-family="Times,serif" font-size="14.00">rep=no, t=no, r=no, m=yes, c=no</text>
</g>
<!-- n2&#45;&gt;n3 -->
<g id="edge15" class="edge">
<title>n2&#45;&gt;n3</title>
<path fill="none" stroke="black" d="M185.97,-554.66C185.97,-546.49 185.97,-537.71 185.97,-529.18"/>
<polygon fill="black" stroke="black" points="189.47,-528.96 185.97,-518.96 182.47,-528.96 189.47,-528.96"/>
</g>
<!-- n11 -->
<g id="node19" class="node">
<title>n11</title>
<ellipse fill="#98D2A5" stroke="black" cx="1355.97" cy="-481.29" rx="185.94" ry="37.45"/>
<text text-anchor="middle" x="1355.97" y="-492.59" font-family="Times,serif" font-size="14.00">declarar</text>
<text text-anchor="middle" x="1355.97" y="-477.59" font-family="Times,serif" font-size="14.00">vmn0000 (rcmod)</text>
<text text-anchor="middle" x="1355.97" y="-462.59" font-family="Times,serif" font-size="14.00">rep=no, t=no, r=no, m=yes, c=no</text>
</g>
<!-- n9&#45;&gt;n11 -->
<g id="edge18" class="edge">
<title>n9&#45;&gt;n11</title>
<path fill="none" stroke="black" d="M1355.97,-554.66C1355.97,-546.49 1355.97,-537.71 1355.97,-529.18"/>
<polygon fill="black" stroke="black" points="1359.47,-528.96 1355.97,-518.96 1352.47,-528.96 1359.47,-528.96"/>
</g>
<!-- n4 -->
<g id="node17" class="node">
<title>n4</title>
<ellipse fill="#98D2A5" stroke="black" cx="185.97" cy="-370.34" rx="185.94" ry="37.45"/>
<text text-anchor="middle" x="185.97" y="-381.64" font-family="Times,serif" font-size="14.00">de</text>
<text text-anchor="middle" x="185.97" y="-366.64" font-family="Times,serif" font-size="14.00">sps00 (prepn)</text>
<text text-anchor="middle" x="185.97" y="-351.64" font-family="Times,serif" font-size="14.00">rep=no, t=no, r=no, m=yes, c=no</text>
</g>
<!-- n3&#45;&gt;n4 -->
<g id="edge16" class="edge">
<title>n3&#45;&gt;n4</title>
<path fill="none" stroke="black" d="M185.97,-443.71C185.97,-435.53 185.97,-426.75 185.97,-418.23"/>
<polygon fill="black" stroke="black" points="189.47,-418.01 185.97,-408.01 182.47,-418.01 189.47,-418.01"/>
</g>
<!-- n5 -->
<g id="node18" class="node">
<title>n5</title>
<ellipse fill="#98D2A5" stroke="black" cx="185.97" cy="-259.38" rx="185.94" ry="37.45"/>
<text text-anchor="middle" x="185.97" y="-270.68" font-family="Times,serif" font-size="14.00">Alá</text>
<text text-anchor="middle" x="185.97" y="-255.68" font-family="Times,serif" font-size="14.00">np00000 (pobj)</text>
<text text-anchor="middle" x="185.97" y="-240.68" font-family="Times,serif" font-size="14.00">rep=no, t=no, r=no, m=yes, c=no</text>
</g>
<!-- n4&#45;&gt;n5 -->
<g id="edge17" class="edge">
<title>n4&#45;&gt;n5</title>
<path fill="none" stroke="black" d="M185.97,-332.75C185.97,-324.58 185.97,-315.8 185.97,-307.27"/>
<polygon fill="black" stroke="black" points="189.47,-307.06 185.97,-297.06 182.47,-307.06 189.47,-307.06"/>
</g>
<!-- n10 -->
<g id="node20" class="node">
<title>n10</title>
<ellipse fill="#98D2A5" stroke="black" cx="1355.97" cy="-370.34" rx="185.94" ry="37.45"/>
<text text-anchor="middle" x="1355.97" y="-381.64" font-family="Times,serif" font-size="14.00">que</text>
<text text-anchor="middle" x="1355.97" y="-366.64" font-family="Times,serif" font-size="14.00">pr0cn000 (dobj)</text>
<text text-anchor="middle" x="1355.97" y="-351.64" font-family="Times,serif" font-size="14.00">rep=no, t=no, r=no, m=yes, c=no</text>
</g>
<!-- n11&#45;&gt;n10 -->
<g id="edge19" class="edge">
<title>n11&#45;&gt;n10</title>
<path fill="none" stroke="black" d="M1355.97,-443.71C1355.97,-435.53 1355.97,-426.75 1355.97,-418.23"/>
<polygon fill="black" stroke="black" points="1359.47,-418.01 1355.97,-408.01 1352.47,-418.01 1359.47,-418.01"/>
</g>
<!-- n23 -->
<g id="node25" class="node">
<title>n23</title>
<ellipse fill="#98D2A5" stroke="black" cx="2725.97" cy="-481.29" rx="190.84" ry="37.45"/>
<text text-anchor="middle" x="2725.97" y="-492.59" font-family="Times,serif" font-size="14.00">una</text>
<text text-anchor="middle" x="2725.97" y="-477.59" font-family="Times,serif" font-size="14.00">di0fs0 (det)</text>
<text text-anchor="middle" x="2725.97" y="-462.59" font-family="Times,serif" font-size="14.00">rep=no, t=no, r=yes, m=yes, c=no</text>
</g>
<!-- n24&#45;&gt;n23 -->
<g id="edge24" class="edge">
<title>n24&#45;&gt;n23</title>
<path fill="none" stroke="black" d="M3016.67,-561.47C2963.53,-547 2899.56,-529.57 2845.17,-514.76"/>
<polygon fill="black" stroke="black" points="2846.05,-511.37 2835.49,-512.12 2844.21,-518.13 2846.05,-511.37"/>
</g>
<!-- n25 -->
<g id="node26" class="node">
<title>n25</title>
<ellipse fill="#98D2A5" stroke="black" cx="3125.97" cy="-481.29" rx="190.84" ry="37.45"/>
<text text-anchor="middle" x="3125.97" y="-492.59" font-family="Times,serif" font-size="14.00">verde</text>
<text text-anchor="middle" x="3125.97" y="-477.59" font-family="Times,serif" font-size="14.00">aq0cs0 (amod)</text>
<text text-anchor="middle" x="3125.97" y="-462.59" font-family="Times,serif" font-size="14.00">rep=no, t=no, r=yes, m=yes, c=no</text>
</g>
<!-- n24&#45;&gt;n25 -->
<g id="edge25" class="edge">
<title>n24&#45;&gt;n25</title>
<path fill="none" stroke="black" d="M3125.97,-554.66C3125.97,-546.49 3125.97,-537.71 3125.97,-529.18"/>
<polygon fill="black" stroke="black" points="3129.47,-528.96 3125.97,-518.96 3122.47,-528.96 3129.47,-528.96"/>
</g>
<!-- n26 -->
<g id="node27" class="node">
<title>n26</title>
<ellipse fill="#98D2A5" stroke="black" cx="3525.97" cy="-481.29" rx="190.84" ry="37.45"/>
<text text-anchor="middle" x="3525.97" y="-492.59" font-family="Times,serif" font-size="14.00">con</text>
<text text-anchor="middle" x="3525.97" y="-477.59" font-family="Times,serif" font-size="14.00">sps00 (prepn)</text>
<text text-anchor="middle" x="3525.97" y="-462.59" font-family="Times,serif" font-size="14.00">rep=no, t=no, r=yes, m=yes, c=no</text>
</g>
<!-- n24&#45;&gt;n26 -->
<g id="edge26" class="edge">
<title>n24&#45;&gt;n26</title>
<path fill="none" stroke="black" d="M3235.27,-561.47C3288.41,-547 3352.38,-529.57 3406.76,-514.76"/>
<polygon fill="black" stroke="black" points="3407.72,-518.13 3416.45,-512.12 3405.88,-511.37 3407.72,-518.13"/>
</g>
<!-- n28 -->
<g id="node28" class="node">
<title>n28</title>
<ellipse fill="#98D2A5" stroke="black" cx="3525.97" cy="-370.34" rx="190.84" ry="37.45"/>
<text text-anchor="middle" x="3525.97" y="-381.64" font-family="Times,serif" font-size="14.00">palabra</text>
<text text-anchor="middle" x="3525.97" y="-366.64" font-family="Times,serif" font-size="14.00">ncfs000 (pobj)</text>
<text text-anchor="middle" x="3525.97" y="-351.64" font-family="Times,serif" font-size="14.00">rep=no, t=no, r=yes, m=yes, c=no</text>
</g>
<!-- n26&#45;&gt;n28 -->
<g id="edge27" class="edge">
<title>n26&#45;&gt;n28</title>
<path fill="none" stroke="black" d="M3525.97,-443.71C3525.97,-435.53 3525.97,-426.75 3525.97,-418.23"/>
<polygon fill="black" stroke="black" points="3529.47,-418.01 3525.97,-408.01 3522.47,-418.01 3529.47,-418.01"/>
</g>
<!-- n27 -->
<g id="node29" class="node">
<title>n27</title>
<ellipse fill="#98D2A5" stroke="black" cx="3125.97" cy="-259.38" rx="190.84" ry="37.45"/>
<text text-anchor="middle" x="3125.97" y="-270.68" font-family="Times,serif" font-size="14.00">la</text>
<text text-anchor="middle" x="3125.97" y="-255.68" font-family="Times,serif" font-size="14.00">da0fs0 (det)</text>
<text text-anchor="middle" x="3125.97" y="-240.68" font-family="Times,serif" font-size="14.00">rep=no, t=no, r=yes, m=yes, c=no</text>
</g>
<!-- n28&#45;&gt;n27 -->
<g id="edge28" class="edge">
<title>n28&#45;&gt;n27</title>
<path fill="none" stroke="black" d="M3416.67,-339.56C3363.53,-325.09 3299.56,-307.67 3245.17,-292.85"/>
<polygon fill="black" stroke="black" points="3246.05,-289.46 3235.49,-290.21 3244.21,-296.22 3246.05,-289.46"/>
</g>
<!-- n29 -->
<g id="node30" class="node">
<title>n29</title>
<ellipse fill="#98D2A5" stroke="black" cx="3525.97" cy="-259.38" rx="190.84" ry="37.45"/>
<text text-anchor="middle" x="3525.97" y="-270.68" font-family="Times,serif" font-size="14.00">prisionero</text>
<text text-anchor="middle" x="3525.97" y="-255.68" font-family="Times,serif" font-size="14.00">ncms000 (appos)</text>
<text text-anchor="middle" x="3525.97" y="-240.68" font-family="Times,serif" font-size="14.00">rep=no, t=no, r=yes, m=yes, c=no</text>
</g>
<!-- n28&#45;&gt;n29 -->
<g id="edge29" class="edge">
<title>n28&#45;&gt;n29</title>
<path fill="none" stroke="black" d="M3525.97,-332.75C3525.97,-324.58 3525.97,-315.8 3525.97,-307.27"/>
<polygon fill="black" stroke="black" points="3529.47,-307.06 3525.97,-297.06 3522.47,-307.06 3529.47,-307.06"/>
</g>
<!-- n30 -->
<g id="node31" class="node">
<title>n30</title>
<ellipse fill="#98D2A5" stroke="black" cx="3925.97" cy="-259.38" rx="190.84" ry="37.45"/>
<text text-anchor="middle" x="3925.97" y="-270.68" font-family="Times,serif" font-size="14.00">en</text>
<text text-anchor="middle" x="3925.97" y="-255.68" font-family="Times,serif" font-size="14.00">sps00 (prepn)</text>
<text text-anchor="middle" x="3925.97" y="-240.68" font-family="Times,serif" font-size="14.00">rep=no, t=no, r=yes, m=yes, c=no</text>
</g>
<!-- n28&#45;&gt;n30 -->
<g id="edge30" class="edge">
<title>n28&#45;&gt;n30</title>
<path fill="none" stroke="black" d="M3635.27,-339.56C3688.41,-325.09 3752.38,-307.67 3806.76,-292.85"/>
<polygon fill="black" stroke="black" points="3807.72,-296.22 3816.45,-290.21 3805.88,-289.46 3807.72,-296.22"/>
</g>
<!-- n32 -->
<g id="node32" class="node">
<title>n32</title>
<ellipse fill="#98D2A5" stroke="black" cx="3925.97" cy="-148.43" rx="190.84" ry="37.45"/>
<text text-anchor="middle" x="3925.97" y="-159.73" font-family="Times,serif" font-size="14.00">espalda</text>
<text text-anchor="middle" x="3925.97" y="-144.73" font-family="Times,serif" font-size="14.00">ncfs000 (pobj)</text>
<text text-anchor="middle" x="3925.97" y="-129.73" font-family="Times,serif" font-size="14.00">rep=no, t=no, r=yes, m=yes, c=no</text>
</g>
<!-- n30&#45;&gt;n32 -->
<g id="edge31" class="edge">
<title>n30&#45;&gt;n32</title>
<path fill="none" stroke="black" d="M3925.97,-221.8C3925.97,-213.63 3925.97,-204.85 3925.97,-196.32"/>
<polygon fill="black" stroke="black" points="3929.47,-196.1 3925.97,-186.1 3922.47,-196.1 3929.47,-196.1"/>
</g>
<!-- n31 -->
<g id="node33" class="node">
<title>n31</title>
<ellipse fill="#98D2A5" stroke="black" cx="3925.97" cy="-37.48" rx="190.84" ry="37.45"/>
<text text-anchor="middle" x="3925.97" y="-48.78" font-family="Times,serif" font-size="14.00">la</text>
<text text-anchor="middle" x="3925.97" y="-33.78" font-family="Times,serif" font-size="14.00">da0fs0 (det)</text>
<text text-anchor="middle" x="3925.97" y="-18.78" font-family="Times,serif" font-size="14.00">rep=no, t=no, r=yes, m=yes, c=no</text>
</g>
<!-- n32&#45;&gt;n31 -->
<g id="edge32" class="edge">
<title>n32&#45;&gt;n31</title>
<path fill="none" stroke="black" d="M3925.97,-110.85C3925.97,-102.67 3925.97,-93.89 3925.97,-85.37"/>
<polygon fill="black" stroke="black" points="3929.47,-85.15 3925.97,-75.15 3922.47,-85.15 3929.47,-85.15"/>
</g>
</g>
</svg>
