<?xml version="1.0" encoding="UTF-8" standalone="no"?>
<!DOCTYPE svg PUBLIC "-//W3C//DTD SVG 1.1//EN"
 "http://www.w3.org/Graphics/SVG/1.1/DTD/svg11.dtd">
<!-- Generated by graphviz version 2.43.0 (0)
 -->
<!-- Title: tree Pages: 1 -->
<svg width="3790pt" height="860pt"
 viewBox="0.00 0.00 3789.84 859.63" xmlns="http://www.w3.org/2000/svg" xmlns:xlink="http://www.w3.org/1999/xlink">
<g id="graph0" class="graph" transform="scale(1 1) rotate(0) translate(4 855.63)">
<title>tree</title>
<polygon fill="white" stroke="transparent" points="-4,4 -4,-855.63 3785.84,-855.63 3785.84,4 -4,4"/>
<!-- n4 -->
<g id="node1" class="node">
<title>n4</title>
<ellipse fill="#DA79E8" stroke="black" cx="1190.92" cy="-814.15" rx="190.84" ry="37.45"/>
<text text-anchor="middle" x="1190.92" y="-825.45" font-family="Times,serif" font-size="14.00">fue</text>
<text text-anchor="middle" x="1190.92" y="-810.45" font-family="Times,serif" font-size="14.00">vsis3s0 (root)</text>
<text text-anchor="middle" x="1190.92" y="-795.45" font-family="Times,serif" font-size="14.00">rep=no, t=no, r=yes, m=yes, c=no</text>
</g>
<!-- n2 -->
<g id="node2" class="node">
<title>n2</title>
<ellipse fill="#BEDA48" stroke="black" cx="590.92" cy="-703.2" rx="190.84" ry="37.45"/>
<text text-anchor="middle" x="590.92" y="-714.5" font-family="Times,serif" font-size="14.00">provincia</text>
<text text-anchor="middle" x="590.92" y="-699.5" font-family="Times,serif" font-size="14.00">ncfs000 (nsubj)</text>
<text text-anchor="middle" x="590.92" y="-684.5" font-family="Times,serif" font-size="14.00">rep=no, t=yes, r=no, m=yes, c=no</text>
</g>
<!-- n4&#45;&gt;n2 -->
<g id="edge1" class="edge">
<title>n4&#45;&gt;n2</title>
<path fill="none" stroke="black" d="M1053.27,-788.15C959.29,-771.09 834.89,-748.5 738.8,-731.05"/>
<polygon fill="black" stroke="black" points="739.17,-727.56 728.71,-729.22 737.92,-734.45 739.17,-727.56"/>
</g>
<!-- n5 -->
<g id="node3" class="node">
<title>n5</title>
<ellipse fill="#DA79E8" stroke="black" cx="1190.92" cy="-703.2" rx="190.84" ry="37.45"/>
<text text-anchor="middle" x="1190.92" y="-714.5" font-family="Times,serif" font-size="14.00">autorizada</text>
<text text-anchor="middle" x="1190.92" y="-699.5" font-family="Times,serif" font-size="14.00">vmp00sf (attr)</text>
<text text-anchor="middle" x="1190.92" y="-684.5" font-family="Times,serif" font-size="14.00">rep=no, t=no, r=yes, m=yes, c=no</text>
</g>
<!-- n4&#45;&gt;n5 -->
<g id="edge2" class="edge">
<title>n4&#45;&gt;n5</title>
<path fill="none" stroke="black" d="M1190.92,-776.57C1190.92,-768.39 1190.92,-759.61 1190.92,-751.09"/>
<polygon fill="black" stroke="black" points="1194.42,-750.87 1190.92,-740.87 1187.42,-750.87 1194.42,-750.87"/>
</g>
<!-- n37 -->
<g id="node4" class="node">
<title>n37</title>
<ellipse fill="none" stroke="black" cx="1581.92" cy="-703.2" rx="181.95" ry="37.45"/>
<text text-anchor="middle" x="1581.92" y="-714.5" font-family="Times,serif" font-size="14.00">.</text>
<text text-anchor="middle" x="1581.92" y="-699.5" font-family="Times,serif" font-size="14.00">fp (punct)</text>
<text text-anchor="middle" x="1581.92" y="-684.5" font-family="Times,serif" font-size="14.00">rep=no, t=no, r=no, m=no, c=no</text>
</g>
<!-- n4&#45;&gt;n37 -->
<g id="edge3" class="edge">
<title>n4&#45;&gt;n37</title>
<path fill="none" stroke="black" d="M1298.54,-783.16C1350.57,-768.66 1413.09,-751.24 1466.16,-736.45"/>
<polygon fill="black" stroke="black" points="1467.26,-739.78 1475.95,-733.73 1465.38,-733.04 1467.26,-739.78"/>
</g>
<!-- n1 -->
<g id="node5" class="node">
<title>n1</title>
<ellipse fill="#BEDA48" stroke="black" cx="190.92" cy="-592.24" rx="190.84" ry="37.45"/>
<text text-anchor="middle" x="190.92" y="-603.54" font-family="Times,serif" font-size="14.00">La</text>
<text text-anchor="middle" x="190.92" y="-588.54" font-family="Times,serif" font-size="14.00">da0fs0 (det)</text>
<text text-anchor="middle" x="190.92" y="-573.54" font-family="Times,serif" font-size="14.00">rep=no, t=yes, r=no, m=yes, c=no</text>
</g>
<!-- n2&#45;&gt;n1 -->
<g id="edge4" class="edge">
<title>n2&#45;&gt;n1</title>
<path fill="none" stroke="black" d="M481.62,-672.42C428.48,-657.95 364.51,-640.53 310.12,-625.71"/>
<polygon fill="black" stroke="black" points="311,-622.32 300.44,-623.07 309.16,-629.08 311,-622.32"/>
</g>
<!-- n3 -->
<g id="node6" class="node">
<title>n3</title>
<ellipse fill="#BEDA48" stroke="black" cx="590.92" cy="-592.24" rx="190.84" ry="37.45"/>
<text text-anchor="middle" x="590.92" y="-603.54" font-family="Times,serif" font-size="14.00">británica</text>
<text text-anchor="middle" x="590.92" y="-588.54" font-family="Times,serif" font-size="14.00">aq0fs0 (amod)</text>
<text text-anchor="middle" x="590.92" y="-573.54" font-family="Times,serif" font-size="14.00">rep=no, t=yes, r=no, m=yes, c=no</text>
</g>
<!-- n2&#45;&gt;n3 -->
<g id="edge5" class="edge">
<title>n2&#45;&gt;n3</title>
<path fill="none" stroke="black" d="M590.92,-665.61C590.92,-657.44 590.92,-648.66 590.92,-640.13"/>
<polygon fill="black" stroke="black" points="594.42,-639.92 590.92,-629.92 587.42,-639.92 594.42,-639.92"/>
</g>
<!-- n6 -->
<g id="node7" class="node">
<title>n6</title>
<ellipse fill="#DA79E8" stroke="black" cx="990.92" cy="-592.24" rx="190.84" ry="37.45"/>
<text text-anchor="middle" x="990.92" y="-603.54" font-family="Times,serif" font-size="14.00">a</text>
<text text-anchor="middle" x="990.92" y="-588.54" font-family="Times,serif" font-size="14.00">sps00 (oobj)</text>
<text text-anchor="middle" x="990.92" y="-573.54" font-family="Times,serif" font-size="14.00">rep=no, t=no, r=yes, m=yes, c=no</text>
</g>
<!-- n5&#45;&gt;n6 -->
<g id="edge6" class="edge">
<title>n5&#45;&gt;n6</title>
<path fill="none" stroke="black" d="M1127.64,-667.72C1107.11,-656.54 1084.18,-644.05 1063.06,-632.54"/>
<polygon fill="black" stroke="black" points="1064.59,-629.39 1054.13,-627.68 1061.24,-635.54 1064.59,-629.39"/>
</g>
<!-- n11 -->
<g id="node8" class="node">
<title>n11</title>
<ellipse fill="#DA79E8" stroke="black" cx="1390.92" cy="-592.24" rx="190.84" ry="37.45"/>
<text text-anchor="middle" x="1390.92" y="-603.54" font-family="Times,serif" font-size="14.00">hace</text>
<text text-anchor="middle" x="1390.92" y="-588.54" font-family="Times,serif" font-size="14.00">vmip3s0 (attr)</text>
<text text-anchor="middle" x="1390.92" y="-573.54" font-family="Times,serif" font-size="14.00">rep=no, t=no, r=yes, m=yes, c=no</text>
</g>
<!-- n5&#45;&gt;n11 -->
<g id="edge7" class="edge">
<title>n5&#45;&gt;n11</title>
<path fill="none" stroke="black" d="M1254.2,-667.72C1274.73,-656.54 1297.65,-644.05 1318.78,-632.54"/>
<polygon fill="black" stroke="black" points="1320.6,-635.54 1327.71,-627.68 1317.25,-629.39 1320.6,-635.54"/>
</g>
<!-- n22 -->
<g id="node9" class="node">
<title>n22</title>
<ellipse fill="#DA79E8" stroke="black" cx="2390.92" cy="-592.24" rx="190.84" ry="37.45"/>
<text text-anchor="middle" x="2390.92" y="-603.54" font-family="Times,serif" font-size="14.00">porque</text>
<text text-anchor="middle" x="2390.92" y="-588.54" font-family="Times,serif" font-size="14.00">cs (advcl)</text>
<text text-anchor="middle" x="2390.92" y="-573.54" font-family="Times,serif" font-size="14.00">rep=no, t=no, r=yes, m=yes, c=no</text>
</g>
<!-- n5&#45;&gt;n22 -->
<g id="edge8" class="edge">
<title>n5&#45;&gt;n22</title>
<path fill="none" stroke="black" d="M1322.93,-676.04C1345.55,-672.15 1368.86,-668.52 1390.92,-665.72 1668.77,-630.42 1992.41,-610.86 2194.51,-601.2"/>
<polygon fill="black" stroke="black" points="2194.81,-604.69 2204.64,-600.72 2194.48,-597.7 2194.81,-604.69"/>
</g>
<!-- n7 -->
<g id="node10" class="node">
<title>n7</title>
<ellipse fill="#DA79E8" stroke="black" cx="390.92" cy="-481.29" rx="190.84" ry="37.45"/>
<text text-anchor="middle" x="390.92" y="-492.59" font-family="Times,serif" font-size="14.00">exportar</text>
<text text-anchor="middle" x="390.92" y="-477.59" font-family="Times,serif" font-size="14.00">vmn0000 (pobj)</text>
<text text-anchor="middle" x="390.92" y="-462.59" font-family="Times,serif" font-size="14.00">rep=no, t=no, r=yes, m=yes, c=no</text>
</g>
<!-- n6&#45;&gt;n7 -->
<g id="edge9" class="edge">
<title>n6&#45;&gt;n7</title>
<path fill="none" stroke="black" d="M853.48,-566.13C832.53,-562.32 811.15,-558.43 790.92,-554.77 702.05,-538.66 679.79,-534.87 590.92,-518.77 573.85,-515.67 555.96,-512.42 538.2,-509.19"/>
<polygon fill="black" stroke="black" points="538.82,-505.75 528.35,-507.4 537.56,-512.63 538.82,-505.75"/>
</g>
<!-- n15 -->
<g id="node14" class="node">
<title>n15</title>
<ellipse fill="#DA79E8" stroke="black" cx="790.92" cy="-481.29" rx="190.84" ry="37.45"/>
<text text-anchor="middle" x="790.92" y="-492.59" font-family="Times,serif" font-size="14.00">año</text>
<text text-anchor="middle" x="790.92" y="-477.59" font-family="Times,serif" font-size="14.00">ncms000 (dobj)</text>
<text text-anchor="middle" x="790.92" y="-462.59" font-family="Times,serif" font-size="14.00">rep=no, t=no, r=yes, m=yes, c=no</text>
</g>
<!-- n11&#45;&gt;n15 -->
<g id="edge13" class="edge">
<title>n11&#45;&gt;n15</title>
<path fill="none" stroke="black" d="M1253.48,-566.13C1232.53,-562.32 1211.15,-558.43 1190.92,-554.77 1102.05,-538.66 1079.79,-534.87 990.92,-518.77 973.85,-515.67 955.96,-512.42 938.2,-509.19"/>
<polygon fill="black" stroke="black" points="938.82,-505.75 928.35,-507.4 937.56,-512.63 938.82,-505.75"/>
</g>
<!-- n16 -->
<g id="node15" class="node">
<title>n16</title>
<ellipse fill="#DA79E8" stroke="black" cx="1190.92" cy="-481.29" rx="190.84" ry="37.45"/>
<text text-anchor="middle" x="1190.92" y="-492.59" font-family="Times,serif" font-size="14.00">,</text>
<text text-anchor="middle" x="1190.92" y="-477.59" font-family="Times,serif" font-size="14.00">fc (punct)</text>
<text text-anchor="middle" x="1190.92" y="-462.59" font-family="Times,serif" font-size="14.00">rep=no, t=no, r=yes, m=yes, c=no</text>
</g>
<!-- n11&#45;&gt;n16 -->
<g id="edge14" class="edge">
<title>n11&#45;&gt;n16</title>
<path fill="none" stroke="black" d="M1327.64,-556.77C1307.11,-545.59 1284.18,-533.1 1263.06,-521.59"/>
<polygon fill="black" stroke="black" points="1264.59,-518.44 1254.13,-516.73 1261.24,-524.58 1264.59,-518.44"/>
</g>
<!-- n17 -->
<g id="node16" class="node">
<title>n17</title>
<ellipse fill="#DA79E8" stroke="black" cx="1590.92" cy="-481.29" rx="190.84" ry="37.45"/>
<text text-anchor="middle" x="1590.92" y="-492.59" font-family="Times,serif" font-size="14.00">en</text>
<text text-anchor="middle" x="1590.92" y="-477.59" font-family="Times,serif" font-size="14.00">sps00 (prepv)</text>
<text text-anchor="middle" x="1590.92" y="-462.59" font-family="Times,serif" font-size="14.00">rep=no, t=no, r=yes, m=yes, c=no</text>
</g>
<!-- n11&#45;&gt;n17 -->
<g id="edge15" class="edge">
<title>n11&#45;&gt;n17</title>
<path fill="none" stroke="black" d="M1454.2,-556.77C1474.73,-545.59 1497.65,-533.1 1518.78,-521.59"/>
<polygon fill="black" stroke="black" points="1520.6,-524.58 1527.71,-516.73 1517.25,-518.44 1520.6,-524.58"/>
</g>
<!-- n21 -->
<g id="node17" class="node">
<title>n21</title>
<ellipse fill="#DA79E8" stroke="black" cx="1990.92" cy="-481.29" rx="190.84" ry="37.45"/>
<text text-anchor="middle" x="1990.92" y="-492.59" font-family="Times,serif" font-size="14.00">,</text>
<text text-anchor="middle" x="1990.92" y="-477.59" font-family="Times,serif" font-size="14.00">fc (punct)</text>
<text text-anchor="middle" x="1990.92" y="-462.59" font-family="Times,serif" font-size="14.00">rep=no, t=no, r=yes, m=yes, c=no</text>
</g>
<!-- n11&#45;&gt;n21 -->
<g id="edge16" class="edge">
<title>n11&#45;&gt;n21</title>
<path fill="none" stroke="black" d="M1528.84,-566.29C1605.94,-552.34 1703.78,-534.61 1790.92,-518.77 1807.99,-515.66 1825.87,-512.41 1843.63,-509.17"/>
<polygon fill="black" stroke="black" points="1844.27,-512.61 1853.48,-507.38 1843.02,-505.73 1844.27,-512.61"/>
</g>
<!-- n25 -->
<g id="node24" class="node">
<title>n25</title>
<ellipse fill="#DA79E8" stroke="black" cx="2390.92" cy="-481.29" rx="190.84" ry="37.45"/>
<text text-anchor="middle" x="2390.92" y="-492.59" font-family="Times,serif" font-size="14.00">causó</text>
<text text-anchor="middle" x="2390.92" y="-477.59" font-family="Times,serif" font-size="14.00">vmis3s0 (cobj)</text>
<text text-anchor="middle" x="2390.92" y="-462.59" font-family="Times,serif" font-size="14.00">rep=no, t=no, r=yes, m=yes, c=no</text>
</g>
<!-- n22&#45;&gt;n25 -->
<g id="edge23" class="edge">
<title>n22&#45;&gt;n25</title>
<path fill="none" stroke="black" d="M2390.92,-554.66C2390.92,-546.49 2390.92,-537.71 2390.92,-529.18"/>
<polygon fill="black" stroke="black" points="2394.42,-528.96 2390.92,-518.96 2387.42,-528.96 2394.42,-528.96"/>
</g>
<!-- n29 -->
<g id="node25" class="node">
<title>n29</title>
<ellipse fill="#DA79E8" stroke="black" cx="2790.92" cy="-481.29" rx="190.84" ry="37.45"/>
<text text-anchor="middle" x="2790.92" y="-492.59" font-family="Times,serif" font-size="14.00">,</text>
<text text-anchor="middle" x="2790.92" y="-477.59" font-family="Times,serif" font-size="14.00">fc (punct)</text>
<text text-anchor="middle" x="2790.92" y="-462.59" font-family="Times,serif" font-size="14.00">rep=no, t=no, r=yes, m=yes, c=no</text>
</g>
<!-- n22&#45;&gt;n29 -->
<g id="edge24" class="edge">
<title>n22&#45;&gt;n29</title>
<path fill="none" stroke="black" d="M2500.22,-561.47C2553.36,-547 2617.33,-529.57 2671.71,-514.76"/>
<polygon fill="black" stroke="black" points="2672.67,-518.13 2681.4,-512.12 2670.83,-511.37 2672.67,-518.13"/>
</g>
<!-- n8 -->
<g id="node11" class="node">
<title>n8</title>
<ellipse fill="#DA79E8" stroke="black" cx="390.92" cy="-370.34" rx="190.84" ry="37.45"/>
<text text-anchor="middle" x="390.92" y="-381.64" font-family="Times,serif" font-size="14.00">carne</text>
<text text-anchor="middle" x="390.92" y="-366.64" font-family="Times,serif" font-size="14.00">ncfs000 (dobj)</text>
<text text-anchor="middle" x="390.92" y="-351.64" font-family="Times,serif" font-size="14.00">rep=no, t=no, r=yes, m=yes, c=no</text>
</g>
<!-- n7&#45;&gt;n8 -->
<g id="edge10" class="edge">
<title>n7&#45;&gt;n8</title>
<path fill="none" stroke="black" d="M390.92,-443.71C390.92,-435.53 390.92,-426.75 390.92,-418.23"/>
<polygon fill="black" stroke="black" points="394.42,-418.01 390.92,-408.01 387.42,-418.01 394.42,-418.01"/>
</g>
<!-- n9 -->
<g id="node12" class="node">
<title>n9</title>
<ellipse fill="#DA79E8" stroke="black" cx="390.92" cy="-259.38" rx="190.84" ry="37.45"/>
<text text-anchor="middle" x="390.92" y="-270.68" font-family="Times,serif" font-size="14.00">de</text>
<text text-anchor="middle" x="390.92" y="-255.68" font-family="Times,serif" font-size="14.00">sps00 (prepn)</text>
<text text-anchor="middle" x="390.92" y="-240.68" font-family="Times,serif" font-size="14.00">rep=no, t=no, r=yes, m=yes, c=no</text>
</g>
<!-- n8&#45;&gt;n9 -->
<g id="edge11" class="edge">
<title>n8&#45;&gt;n9</title>
<path fill="none" stroke="black" d="M390.92,-332.75C390.92,-324.58 390.92,-315.8 390.92,-307.27"/>
<polygon fill="black" stroke="black" points="394.42,-307.06 390.92,-297.06 387.42,-307.06 394.42,-307.06"/>
</g>
<!-- n10 -->
<g id="node13" class="node">
<title>n10</title>
<ellipse fill="#DA79E8" stroke="black" cx="390.92" cy="-148.43" rx="190.84" ry="37.45"/>
<text text-anchor="middle" x="390.92" y="-159.73" font-family="Times,serif" font-size="14.00">vacuno</text>
<text text-anchor="middle" x="390.92" y="-144.73" font-family="Times,serif" font-size="14.00">ncms000 (pobj)</text>
<text text-anchor="middle" x="390.92" y="-129.73" font-family="Times,serif" font-size="14.00">rep=no, t=no, r=yes, m=yes, c=no</text>
</g>
<!-- n9&#45;&gt;n10 -->
<g id="edge12" class="edge">
<title>n9&#45;&gt;n10</title>
<path fill="none" stroke="black" d="M390.92,-221.8C390.92,-213.63 390.92,-204.85 390.92,-196.32"/>
<polygon fill="black" stroke="black" points="394.42,-196.1 390.92,-186.1 387.42,-196.1 394.42,-196.1"/>
</g>
<!-- n14 -->
<g id="node18" class="node">
<title>n14</title>
<ellipse fill="#DA79E8" stroke="black" cx="790.92" cy="-370.34" rx="190.84" ry="37.45"/>
<text text-anchor="middle" x="790.92" y="-381.64" font-family="Times,serif" font-size="14.00">un</text>
<text text-anchor="middle" x="790.92" y="-366.64" font-family="Times,serif" font-size="14.00">di0ms0 (det)</text>
<text text-anchor="middle" x="790.92" y="-351.64" font-family="Times,serif" font-size="14.00">rep=no, t=no, r=yes, m=yes, c=no</text>
</g>
<!-- n15&#45;&gt;n14 -->
<g id="edge17" class="edge">
<title>n15&#45;&gt;n14</title>
<path fill="none" stroke="black" d="M790.92,-443.71C790.92,-435.53 790.92,-426.75 790.92,-418.23"/>
<polygon fill="black" stroke="black" points="794.42,-418.01 790.92,-408.01 787.42,-418.01 794.42,-418.01"/>
</g>
<!-- n18 -->
<g id="node21" class="node">
<title>n18</title>
<ellipse fill="#DA79E8" stroke="black" cx="1590.92" cy="-370.34" rx="190.84" ry="37.45"/>
<text text-anchor="middle" x="1590.92" y="-381.64" font-family="Times,serif" font-size="14.00">junio</text>
<text text-anchor="middle" x="1590.92" y="-366.64" font-family="Times,serif" font-size="14.00">ncfs000 (pobj)</text>
<text text-anchor="middle" x="1590.92" y="-351.64" font-family="Times,serif" font-size="14.00">rep=no, t=no, r=yes, m=yes, c=no</text>
</g>
<!-- n17&#45;&gt;n18 -->
<g id="edge20" class="edge">
<title>n17&#45;&gt;n18</title>
<path fill="none" stroke="black" d="M1590.92,-443.71C1590.92,-435.53 1590.92,-426.75 1590.92,-418.23"/>
<polygon fill="black" stroke="black" points="1594.42,-418.01 1590.92,-408.01 1587.42,-418.01 1594.42,-418.01"/>
</g>
<!-- n12 -->
<g id="node19" class="node">
<title>n12</title>
<ellipse fill="#DA79E8" stroke="black" cx="790.92" cy="-259.38" rx="190.84" ry="37.45"/>
<text text-anchor="middle" x="790.92" y="-270.68" font-family="Times,serif" font-size="14.00">más</text>
<text text-anchor="middle" x="790.92" y="-255.68" font-family="Times,serif" font-size="14.00">rg (advmod)</text>
<text text-anchor="middle" x="790.92" y="-240.68" font-family="Times,serif" font-size="14.00">rep=no, t=no, r=yes, m=yes, c=no</text>
</g>
<!-- n14&#45;&gt;n12 -->
<g id="edge18" class="edge">
<title>n14&#45;&gt;n12</title>
<path fill="none" stroke="black" d="M790.92,-332.75C790.92,-324.58 790.92,-315.8 790.92,-307.27"/>
<polygon fill="black" stroke="black" points="794.42,-307.06 790.92,-297.06 787.42,-307.06 794.42,-307.06"/>
</g>
<!-- n13 -->
<g id="node20" class="node">
<title>n13</title>
<ellipse fill="#DA79E8" stroke="black" cx="790.92" cy="-148.43" rx="190.84" ry="37.45"/>
<text text-anchor="middle" x="790.92" y="-159.73" font-family="Times,serif" font-size="14.00">de</text>
<text text-anchor="middle" x="790.92" y="-144.73" font-family="Times,serif" font-size="14.00">sps00 (prep)</text>
<text text-anchor="middle" x="790.92" y="-129.73" font-family="Times,serif" font-size="14.00">rep=no, t=no, r=yes, m=yes, c=no</text>
</g>
<!-- n12&#45;&gt;n13 -->
<g id="edge19" class="edge">
<title>n12&#45;&gt;n13</title>
<path fill="none" stroke="black" d="M790.92,-221.8C790.92,-213.63 790.92,-204.85 790.92,-196.32"/>
<polygon fill="black" stroke="black" points="794.42,-196.1 790.92,-186.1 787.42,-196.1 794.42,-196.1"/>
</g>
<!-- n19 -->
<g id="node22" class="node">
<title>n19</title>
<ellipse fill="#DA79E8" stroke="black" cx="1590.92" cy="-259.38" rx="190.84" ry="37.45"/>
<text text-anchor="middle" x="1590.92" y="-270.68" font-family="Times,serif" font-size="14.00">de</text>
<text text-anchor="middle" x="1590.92" y="-255.68" font-family="Times,serif" font-size="14.00">spcms (prepn)</text>
<text text-anchor="middle" x="1590.92" y="-240.68" font-family="Times,serif" font-size="14.00">rep=no, t=no, r=yes, m=yes, c=no</text>
</g>
<!-- n18&#45;&gt;n19 -->
<g id="edge21" class="edge">
<title>n18&#45;&gt;n19</title>
<path fill="none" stroke="black" d="M1590.92,-332.75C1590.92,-324.58 1590.92,-315.8 1590.92,-307.27"/>
<polygon fill="black" stroke="black" points="1594.42,-307.06 1590.92,-297.06 1587.42,-307.06 1594.42,-307.06"/>
</g>
<!-- n20 -->
<g id="node23" class="node">
<title>n20</title>
<ellipse fill="#DA79E8" stroke="black" cx="1590.92" cy="-148.43" rx="190.84" ry="37.45"/>
<text text-anchor="middle" x="1590.92" y="-159.73" font-family="Times,serif" font-size="14.00">1998</text>
<text text-anchor="middle" x="1590.92" y="-144.73" font-family="Times,serif" font-size="14.00">zp (pobj)</text>
<text text-anchor="middle" x="1590.92" y="-129.73" font-family="Times,serif" font-size="14.00">rep=no, t=no, r=yes, m=yes, c=no</text>
</g>
<!-- n19&#45;&gt;n20 -->
<g id="edge22" class="edge">
<title>n19&#45;&gt;n20</title>
<path fill="none" stroke="black" d="M1590.92,-221.8C1590.92,-213.63 1590.92,-204.85 1590.92,-196.32"/>
<polygon fill="black" stroke="black" points="1594.42,-196.1 1590.92,-186.1 1587.42,-196.1 1594.42,-196.1"/>
</g>
<!-- n24 -->
<g id="node26" class="node">
<title>n24</title>
<ellipse fill="#DA79E8" stroke="black" cx="1990.92" cy="-370.34" rx="190.84" ry="37.45"/>
<text text-anchor="middle" x="1990.92" y="-381.64" font-family="Times,serif" font-size="14.00">epidemia</text>
<text text-anchor="middle" x="1990.92" y="-366.64" font-family="Times,serif" font-size="14.00">ncfs000 (nsubj)</text>
<text text-anchor="middle" x="1990.92" y="-351.64" font-family="Times,serif" font-size="14.00">rep=no, t=no, r=yes, m=yes, c=no</text>
</g>
<!-- n25&#45;&gt;n24 -->
<g id="edge25" class="edge">
<title>n25&#45;&gt;n24</title>
<path fill="none" stroke="black" d="M2281.62,-450.52C2228.48,-436.04 2164.51,-418.62 2110.12,-403.81"/>
<polygon fill="black" stroke="black" points="2111,-400.42 2100.44,-401.17 2109.16,-407.17 2111,-400.42"/>
</g>
<!-- n26 -->
<g id="node27" class="node">
<title>n26</title>
<ellipse fill="#DA79E8" stroke="black" cx="2390.92" cy="-370.34" rx="190.84" ry="37.45"/>
<text text-anchor="middle" x="2390.92" y="-381.64" font-family="Times,serif" font-size="14.00">allí</text>
<text text-anchor="middle" x="2390.92" y="-366.64" font-family="Times,serif" font-size="14.00">rg (advmod)</text>
<text text-anchor="middle" x="2390.92" y="-351.64" font-family="Times,serif" font-size="14.00">rep=no, t=no, r=yes, m=yes, c=no</text>
</g>
<!-- n25&#45;&gt;n26 -->
<g id="edge26" class="edge">
<title>n25&#45;&gt;n26</title>
<path fill="none" stroke="black" d="M2390.92,-443.71C2390.92,-435.53 2390.92,-426.75 2390.92,-418.23"/>
<polygon fill="black" stroke="black" points="2394.42,-418.01 2390.92,-408.01 2387.42,-418.01 2394.42,-418.01"/>
</g>
<!-- n28 -->
<g id="node28" class="node">
<title>n28</title>
<ellipse fill="#DA79E8" stroke="black" cx="2790.92" cy="-370.34" rx="190.84" ry="37.45"/>
<text text-anchor="middle" x="2790.92" y="-381.64" font-family="Times,serif" font-size="14.00">estragos</text>
<text text-anchor="middle" x="2790.92" y="-366.64" font-family="Times,serif" font-size="14.00">ncmp000 (dobj)</text>
<text text-anchor="middle" x="2790.92" y="-351.64" font-family="Times,serif" font-size="14.00">rep=no, t=no, r=yes, m=yes, c=no</text>
</g>
<!-- n25&#45;&gt;n28 -->
<g id="edge27" class="edge">
<title>n25&#45;&gt;n28</title>
<path fill="none" stroke="black" d="M2500.22,-450.52C2553.36,-436.04 2617.33,-418.62 2671.71,-403.81"/>
<polygon fill="black" stroke="black" points="2672.67,-407.17 2681.4,-401.17 2670.83,-400.42 2672.67,-407.17"/>
</g>
<!-- n30 -->
<g id="node29" class="node">
<title>n30</title>
<ellipse fill="#DA79E8" stroke="black" cx="3190.92" cy="-370.34" rx="190.84" ry="37.45"/>
<text text-anchor="middle" x="3190.92" y="-381.64" font-family="Times,serif" font-size="14.00">pero</text>
<text text-anchor="middle" x="3190.92" y="-366.64" font-family="Times,serif" font-size="14.00">cc (coord_fixed)</text>
<text text-anchor="middle" x="3190.92" y="-351.64" font-family="Times,serif" font-size="14.00">rep=no, t=no, r=yes, m=yes, c=no</text>
</g>
<!-- n25&#45;&gt;n30 -->
<g id="edge28" class="edge">
<title>n25&#45;&gt;n30</title>
<path fill="none" stroke="black" d="M2523.78,-454.32C2546.14,-450.45 2569.15,-446.77 2590.92,-443.81 2767.79,-419.78 2814.05,-431.85 2990.92,-407.81 3009.46,-405.29 3028.9,-402.25 3048.06,-399.02"/>
<polygon fill="black" stroke="black" points="3048.79,-402.44 3058.06,-397.31 3047.61,-395.54 3048.79,-402.44"/>
</g>
<!-- n23 -->
<g id="node30" class="node">
<title>n23</title>
<ellipse fill="#DA79E8" stroke="black" cx="1990.92" cy="-259.38" rx="190.84" ry="37.45"/>
<text text-anchor="middle" x="1990.92" y="-270.68" font-family="Times,serif" font-size="14.00">la</text>
<text text-anchor="middle" x="1990.92" y="-255.68" font-family="Times,serif" font-size="14.00">da0fs0 (det)</text>
<text text-anchor="middle" x="1990.92" y="-240.68" font-family="Times,serif" font-size="14.00">rep=no, t=no, r=yes, m=yes, c=no</text>
</g>
<!-- n24&#45;&gt;n23 -->
<g id="edge29" class="edge">
<title>n24&#45;&gt;n23</title>
<path fill="none" stroke="black" d="M1990.92,-332.75C1990.92,-324.58 1990.92,-315.8 1990.92,-307.27"/>
<polygon fill="black" stroke="black" points="1994.42,-307.06 1990.92,-297.06 1987.42,-307.06 1994.42,-307.06"/>
</g>
<!-- n27 -->
<g id="node31" class="node">
<title>n27</title>
<ellipse fill="#DA79E8" stroke="black" cx="2790.92" cy="-259.38" rx="190.84" ry="37.45"/>
<text text-anchor="middle" x="2790.92" y="-270.68" font-family="Times,serif" font-size="14.00">menos</text>
<text text-anchor="middle" x="2790.92" y="-255.68" font-family="Times,serif" font-size="14.00">rg (advmod)</text>
<text text-anchor="middle" x="2790.92" y="-240.68" font-family="Times,serif" font-size="14.00">rep=no, t=no, r=yes, m=yes, c=no</text>
</g>
<!-- n28&#45;&gt;n27 -->
<g id="edge30" class="edge">
<title>n28&#45;&gt;n27</title>
<path fill="none" stroke="black" d="M2790.92,-332.75C2790.92,-324.58 2790.92,-315.8 2790.92,-307.27"/>
<polygon fill="black" stroke="black" points="2794.42,-307.06 2790.92,-297.06 2787.42,-307.06 2794.42,-307.06"/>
</g>
<!-- n33 -->
<g id="node32" class="node">
<title>n33</title>
<ellipse fill="#DA79E8" stroke="black" cx="3190.92" cy="-259.38" rx="190.84" ry="37.45"/>
<text text-anchor="middle" x="3190.92" y="-270.68" font-family="Times,serif" font-size="14.00">siguen</text>
<text text-anchor="middle" x="3190.92" y="-255.68" font-family="Times,serif" font-size="14.00">vmip3p0 (cobj)</text>
<text text-anchor="middle" x="3190.92" y="-240.68" font-family="Times,serif" font-size="14.00">rep=no, t=no, r=yes, m=yes, c=no</text>
</g>
<!-- n30&#45;&gt;n33 -->
<g id="edge31" class="edge">
<title>n30&#45;&gt;n33</title>
<path fill="none" stroke="black" d="M3190.92,-332.75C3190.92,-324.58 3190.92,-315.8 3190.92,-307.27"/>
<polygon fill="black" stroke="black" points="3194.42,-307.06 3190.92,-297.06 3187.42,-307.06 3194.42,-307.06"/>
</g>
<!-- n32 -->
<g id="node33" class="node">
<title>n32</title>
<ellipse fill="#DA79E8" stroke="black" cx="2790.92" cy="-148.43" rx="190.84" ry="37.45"/>
<text text-anchor="middle" x="2790.92" y="-159.73" font-family="Times,serif" font-size="14.00">ventas</text>
<text text-anchor="middle" x="2790.92" y="-144.73" font-family="Times,serif" font-size="14.00">ncfp000 (nsubj)</text>
<text text-anchor="middle" x="2790.92" y="-129.73" font-family="Times,serif" font-size="14.00">rep=no, t=no, r=yes, m=yes, c=no</text>
</g>
<!-- n33&#45;&gt;n32 -->
<g id="edge32" class="edge">
<title>n33&#45;&gt;n32</title>
<path fill="none" stroke="black" d="M3081.62,-228.61C3028.48,-214.14 2964.51,-196.71 2910.12,-181.9"/>
<polygon fill="black" stroke="black" points="2911,-178.51 2900.44,-179.26 2909.16,-185.27 2911,-178.51"/>
</g>
<!-- n34 -->
<g id="node34" class="node">
<title>n34</title>
<ellipse fill="#DA79E8" stroke="black" cx="3190.92" cy="-148.43" rx="190.84" ry="37.45"/>
<text text-anchor="middle" x="3190.92" y="-159.73" font-family="Times,serif" font-size="14.00">siendo</text>
<text text-anchor="middle" x="3190.92" y="-144.73" font-family="Times,serif" font-size="14.00">vsg0000 (dobj)</text>
<text text-anchor="middle" x="3190.92" y="-129.73" font-family="Times,serif" font-size="14.00">rep=no, t=no, r=yes, m=yes, c=no</text>
</g>
<!-- n33&#45;&gt;n34 -->
<g id="edge33" class="edge">
<title>n33&#45;&gt;n34</title>
<path fill="none" stroke="black" d="M3190.92,-221.8C3190.92,-213.63 3190.92,-204.85 3190.92,-196.32"/>
<polygon fill="black" stroke="black" points="3194.42,-196.1 3190.92,-186.1 3187.42,-196.1 3194.42,-196.1"/>
</g>
<!-- n36 -->
<g id="node35" class="node">
<title>n36</title>
<ellipse fill="#DA79E8" stroke="black" cx="3590.92" cy="-148.43" rx="190.84" ry="37.45"/>
<text text-anchor="middle" x="3590.92" y="-159.73" font-family="Times,serif" font-size="14.00">nulas</text>
<text text-anchor="middle" x="3590.92" y="-144.73" font-family="Times,serif" font-size="14.00">aq0fp0 (cpred)</text>
<text text-anchor="middle" x="3590.92" y="-129.73" font-family="Times,serif" font-size="14.00">rep=no, t=no, r=yes, m=yes, c=no</text>
</g>
<!-- n33&#45;&gt;n36 -->
<g id="edge34" class="edge">
<title>n33&#45;&gt;n36</title>
<path fill="none" stroke="black" d="M3300.22,-228.61C3353.36,-214.14 3417.33,-196.71 3471.71,-181.9"/>
<polygon fill="black" stroke="black" points="3472.67,-185.27 3481.4,-179.26 3470.83,-178.51 3472.67,-185.27"/>
</g>
<!-- n31 -->
<g id="node36" class="node">
<title>n31</title>
<ellipse fill="#DA79E8" stroke="black" cx="2790.92" cy="-37.48" rx="190.84" ry="37.45"/>
<text text-anchor="middle" x="2790.92" y="-48.78" font-family="Times,serif" font-size="14.00">sus</text>
<text text-anchor="middle" x="2790.92" y="-33.78" font-family="Times,serif" font-size="14.00">dp3cp0 (poss)</text>
<text text-anchor="middle" x="2790.92" y="-18.78" font-family="Times,serif" font-size="14.00">rep=no, t=no, r=yes, m=yes, c=no</text>
</g>
<!-- n32&#45;&gt;n31 -->
<g id="edge35" class="edge">
<title>n32&#45;&gt;n31</title>
<path fill="none" stroke="black" d="M2790.92,-110.85C2790.92,-102.67 2790.92,-93.89 2790.92,-85.37"/>
<polygon fill="black" stroke="black" points="2794.42,-85.15 2790.92,-75.15 2787.42,-85.15 2794.42,-85.15"/>
</g>
<!-- n35 -->
<g id="node37" class="node">
<title>n35</title>
<ellipse fill="#DA79E8" stroke="black" cx="3590.92" cy="-37.48" rx="190.84" ry="37.45"/>
<text text-anchor="middle" x="3590.92" y="-48.78" font-family="Times,serif" font-size="14.00">casi</text>
<text text-anchor="middle" x="3590.92" y="-33.78" font-family="Times,serif" font-size="14.00">rg (advmod)</text>
<text text-anchor="middle" x="3590.92" y="-18.78" font-family="Times,serif" font-size="14.00">rep=no, t=no, r=yes, m=yes, c=no</text>
</g>
<!-- n36&#45;&gt;n35 -->
<g id="edge36" class="edge">
<title>n36&#45;&gt;n35</title>
<path fill="none" stroke="black" d="M3590.92,-110.85C3590.92,-102.67 3590.92,-93.89 3590.92,-85.37"/>
<polygon fill="black" stroke="black" points="3594.42,-85.15 3590.92,-75.15 3587.42,-85.15 3594.42,-85.15"/>
</g>
</g>
</svg>
