<?xml version="1.0" encoding="UTF-8" standalone="no"?>
<!DOCTYPE svg PUBLIC "-//W3C//DTD SVG 1.1//EN"
 "http://www.w3.org/Graphics/SVG/1.1/DTD/svg11.dtd">
<!-- Generated by graphviz version 2.43.0 (0)
 -->
<!-- Title: tree Pages: 1 -->
<svg width="1372pt" height="860pt"
 viewBox="0.00 0.00 1371.65 859.63" xmlns="http://www.w3.org/2000/svg" xmlns:xlink="http://www.w3.org/1999/xlink">
<g id="graph0" class="graph" transform="scale(1 1) rotate(0) translate(4 855.63)">
<title>tree</title>
<polygon fill="white" stroke="transparent" points="-4,4 -4,-855.63 1367.65,-855.63 1367.65,4 -4,4"/>
<!-- n10 -->
<g id="node1" class="node">
<title>n10</title>
<ellipse fill="#DA79E8" stroke="black" cx="790.92" cy="-814.15" rx="190.84" ry="37.45"/>
<text text-anchor="middle" x="790.92" y="-825.45" font-family="Times,serif" font-size="14.00">continúa</text>
<text text-anchor="middle" x="790.92" y="-810.45" font-family="Times,serif" font-size="14.00">vmip3s0 (root)</text>
<text text-anchor="middle" x="790.92" y="-795.45" font-family="Times,serif" font-size="14.00">rep=no, t=no, r=yes, m=yes, c=no</text>
</g>
<!-- n2 -->
<g id="node2" class="node">
<title>n2</title>
<ellipse fill="#BEDA48" stroke="black" cx="390.92" cy="-703.2" rx="190.84" ry="37.45"/>
<text text-anchor="middle" x="390.92" y="-714.5" font-family="Times,serif" font-size="14.00">prohibición</text>
<text text-anchor="middle" x="390.92" y="-699.5" font-family="Times,serif" font-size="14.00">ncfs000 (nsubj)</text>
<text text-anchor="middle" x="390.92" y="-684.5" font-family="Times,serif" font-size="14.00">rep=no, t=yes, r=no, m=yes, c=no</text>
</g>
<!-- n10&#45;&gt;n2 -->
<g id="edge1" class="edge">
<title>n10&#45;&gt;n2</title>
<path fill="none" stroke="black" d="M681.62,-783.38C628.48,-768.9 564.51,-751.48 510.12,-736.67"/>
<polygon fill="black" stroke="black" points="511,-733.28 500.44,-734.03 509.16,-740.03 511,-733.28"/>
</g>
<!-- n11 -->
<g id="node3" class="node">
<title>n11</title>
<ellipse fill="#DA79E8" stroke="black" cx="790.92" cy="-703.2" rx="190.84" ry="37.45"/>
<text text-anchor="middle" x="790.92" y="-714.5" font-family="Times,serif" font-size="14.00">vigente</text>
<text text-anchor="middle" x="790.92" y="-699.5" font-family="Times,serif" font-size="14.00">aq0cs0 (cpred)</text>
<text text-anchor="middle" x="790.92" y="-684.5" font-family="Times,serif" font-size="14.00">rep=no, t=no, r=yes, m=yes, c=no</text>
</g>
<!-- n10&#45;&gt;n11 -->
<g id="edge2" class="edge">
<title>n10&#45;&gt;n11</title>
<path fill="none" stroke="black" d="M790.92,-776.57C790.92,-768.39 790.92,-759.61 790.92,-751.09"/>
<polygon fill="black" stroke="black" points="794.42,-750.87 790.92,-740.87 787.42,-750.87 794.42,-750.87"/>
</g>
<!-- n12 -->
<g id="node4" class="node">
<title>n12</title>
<ellipse fill="none" stroke="black" cx="1181.92" cy="-703.2" rx="181.95" ry="37.45"/>
<text text-anchor="middle" x="1181.92" y="-714.5" font-family="Times,serif" font-size="14.00">.</text>
<text text-anchor="middle" x="1181.92" y="-699.5" font-family="Times,serif" font-size="14.00">fp (punct)</text>
<text text-anchor="middle" x="1181.92" y="-684.5" font-family="Times,serif" font-size="14.00">rep=no, t=no, r=no, m=no, c=no</text>
</g>
<!-- n10&#45;&gt;n12 -->
<g id="edge3" class="edge">
<title>n10&#45;&gt;n12</title>
<path fill="none" stroke="black" d="M898.54,-783.16C950.57,-768.66 1013.09,-751.24 1066.16,-736.45"/>
<polygon fill="black" stroke="black" points="1067.26,-739.78 1075.95,-733.73 1065.38,-733.04 1067.26,-739.78"/>
</g>
<!-- n1 -->
<g id="node5" class="node">
<title>n1</title>
<ellipse fill="#BEDA48" stroke="black" cx="190.92" cy="-592.24" rx="190.84" ry="37.45"/>
<text text-anchor="middle" x="190.92" y="-603.54" font-family="Times,serif" font-size="14.00">La</text>
<text text-anchor="middle" x="190.92" y="-588.54" font-family="Times,serif" font-size="14.00">da0fs0 (det)</text>
<text text-anchor="middle" x="190.92" y="-573.54" font-family="Times,serif" font-size="14.00">rep=no, t=yes, r=no, m=yes, c=no</text>
</g>
<!-- n2&#45;&gt;n1 -->
<g id="edge4" class="edge">
<title>n2&#45;&gt;n1</title>
<path fill="none" stroke="black" d="M327.64,-667.72C307.11,-656.54 284.18,-644.05 263.06,-632.54"/>
<polygon fill="black" stroke="black" points="264.59,-629.39 254.13,-627.68 261.24,-635.54 264.59,-629.39"/>
</g>
<!-- n3 -->
<g id="node6" class="node">
<title>n3</title>
<ellipse fill="#BEDA48" stroke="black" cx="590.92" cy="-592.24" rx="190.84" ry="37.45"/>
<text text-anchor="middle" x="590.92" y="-603.54" font-family="Times,serif" font-size="14.00">impuesta</text>
<text text-anchor="middle" x="590.92" y="-588.54" font-family="Times,serif" font-size="14.00">aq0fsp (amod)</text>
<text text-anchor="middle" x="590.92" y="-573.54" font-family="Times,serif" font-size="14.00">rep=no, t=yes, r=no, m=yes, c=no</text>
</g>
<!-- n2&#45;&gt;n3 -->
<g id="edge5" class="edge">
<title>n2&#45;&gt;n3</title>
<path fill="none" stroke="black" d="M454.2,-667.72C474.73,-656.54 497.65,-644.05 518.78,-632.54"/>
<polygon fill="black" stroke="black" points="520.6,-635.54 527.71,-627.68 517.25,-629.39 520.6,-635.54"/>
</g>
<!-- n4 -->
<g id="node7" class="node">
<title>n4</title>
<ellipse fill="#BEDA48" stroke="black" cx="590.92" cy="-481.29" rx="190.84" ry="37.45"/>
<text text-anchor="middle" x="590.92" y="-492.59" font-family="Times,serif" font-size="14.00">a</text>
<text text-anchor="middle" x="590.92" y="-477.59" font-family="Times,serif" font-size="14.00">sps00 (iobj)</text>
<text text-anchor="middle" x="590.92" y="-462.59" font-family="Times,serif" font-size="14.00">rep=no, t=yes, r=no, m=yes, c=no</text>
</g>
<!-- n3&#45;&gt;n4 -->
<g id="edge6" class="edge">
<title>n3&#45;&gt;n4</title>
<path fill="none" stroke="black" d="M590.92,-554.66C590.92,-546.49 590.92,-537.71 590.92,-529.18"/>
<polygon fill="black" stroke="black" points="594.42,-528.96 590.92,-518.96 587.42,-528.96 594.42,-528.96"/>
</g>
<!-- n6 -->
<g id="node8" class="node">
<title>n6</title>
<ellipse fill="#BEDA48" stroke="black" cx="590.92" cy="-370.34" rx="190.84" ry="37.45"/>
<text text-anchor="middle" x="590.92" y="-381.64" font-family="Times,serif" font-size="14.00">exportaciones</text>
<text text-anchor="middle" x="590.92" y="-366.64" font-family="Times,serif" font-size="14.00">ncfp000 (pobj)</text>
<text text-anchor="middle" x="590.92" y="-351.64" font-family="Times,serif" font-size="14.00">rep=no, t=yes, r=no, m=yes, c=no</text>
</g>
<!-- n4&#45;&gt;n6 -->
<g id="edge7" class="edge">
<title>n4&#45;&gt;n6</title>
<path fill="none" stroke="black" d="M590.92,-443.71C590.92,-435.53 590.92,-426.75 590.92,-418.23"/>
<polygon fill="black" stroke="black" points="594.42,-418.01 590.92,-408.01 587.42,-418.01 594.42,-418.01"/>
</g>
<!-- n5 -->
<g id="node9" class="node">
<title>n5</title>
<ellipse fill="#BEDA48" stroke="black" cx="390.92" cy="-259.38" rx="190.84" ry="37.45"/>
<text text-anchor="middle" x="390.92" y="-270.68" font-family="Times,serif" font-size="14.00">las</text>
<text text-anchor="middle" x="390.92" y="-255.68" font-family="Times,serif" font-size="14.00">da0fp0 (det)</text>
<text text-anchor="middle" x="390.92" y="-240.68" font-family="Times,serif" font-size="14.00">rep=no, t=yes, r=no, m=yes, c=no</text>
</g>
<!-- n6&#45;&gt;n5 -->
<g id="edge8" class="edge">
<title>n6&#45;&gt;n5</title>
<path fill="none" stroke="black" d="M527.64,-334.86C507.11,-323.68 484.18,-311.19 463.06,-299.68"/>
<polygon fill="black" stroke="black" points="464.59,-296.53 454.13,-294.82 461.24,-302.68 464.59,-296.53"/>
</g>
<!-- n7 -->
<g id="node10" class="node">
<title>n7</title>
<ellipse fill="#BEDA48" stroke="black" cx="790.92" cy="-259.38" rx="190.84" ry="37.45"/>
<text text-anchor="middle" x="790.92" y="-270.68" font-family="Times,serif" font-size="14.00">de</text>
<text text-anchor="middle" x="790.92" y="-255.68" font-family="Times,serif" font-size="14.00">sps00 (prepn)</text>
<text text-anchor="middle" x="790.92" y="-240.68" font-family="Times,serif" font-size="14.00">rep=no, t=yes, r=no, m=yes, c=no</text>
</g>
<!-- n6&#45;&gt;n7 -->
<g id="edge9" class="edge">
<title>n6&#45;&gt;n7</title>
<path fill="none" stroke="black" d="M654.2,-334.86C674.73,-323.68 697.65,-311.19 718.78,-299.68"/>
<polygon fill="black" stroke="black" points="720.6,-302.68 727.71,-294.82 717.25,-296.53 720.6,-302.68"/>
</g>
<!-- n8 -->
<g id="node11" class="node">
<title>n8</title>
<ellipse fill="#BEDA48" stroke="black" cx="790.92" cy="-148.43" rx="190.84" ry="37.45"/>
<text text-anchor="middle" x="790.92" y="-159.73" font-family="Times,serif" font-size="14.00">ganado</text>
<text text-anchor="middle" x="790.92" y="-144.73" font-family="Times,serif" font-size="14.00">ncms000 (pobj)</text>
<text text-anchor="middle" x="790.92" y="-129.73" font-family="Times,serif" font-size="14.00">rep=no, t=yes, r=no, m=yes, c=no</text>
</g>
<!-- n7&#45;&gt;n8 -->
<g id="edge10" class="edge">
<title>n7&#45;&gt;n8</title>
<path fill="none" stroke="black" d="M790.92,-221.8C790.92,-213.63 790.92,-204.85 790.92,-196.32"/>
<polygon fill="black" stroke="black" points="794.42,-196.1 790.92,-186.1 787.42,-196.1 794.42,-196.1"/>
</g>
<!-- n9 -->
<g id="node12" class="node">
<title>n9</title>
<ellipse fill="#BEDA48" stroke="black" cx="790.92" cy="-37.48" rx="190.84" ry="37.45"/>
<text text-anchor="middle" x="790.92" y="-48.78" font-family="Times,serif" font-size="14.00">vivo</text>
<text text-anchor="middle" x="790.92" y="-33.78" font-family="Times,serif" font-size="14.00">aq0ms0 (amod)</text>
<text text-anchor="middle" x="790.92" y="-18.78" font-family="Times,serif" font-size="14.00">rep=no, t=yes, r=no, m=yes, c=no</text>
</g>
<!-- n8&#45;&gt;n9 -->
<g id="edge11" class="edge">
<title>n8&#45;&gt;n9</title>
<path fill="none" stroke="black" d="M790.92,-110.85C790.92,-102.67 790.92,-93.89 790.92,-85.37"/>
<polygon fill="black" stroke="black" points="794.42,-85.15 790.92,-75.15 787.42,-85.15 794.42,-85.15"/>
</g>
</g>
</svg>
