<?xml version="1.0" encoding="UTF-8" standalone="no"?>
<!DOCTYPE svg PUBLIC "-//W3C//DTD SVG 1.1//EN"
 "http://www.w3.org/Graphics/SVG/1.1/DTD/svg11.dtd">
<!-- Generated by graphviz version 2.43.0 (0)
 -->
<!-- Title: tree Pages: 1 -->
<svg width="1752pt" height="971pt"
 viewBox="0.00 0.00 1751.94 970.58" xmlns="http://www.w3.org/2000/svg" xmlns:xlink="http://www.w3.org/1999/xlink">
<g id="graph0" class="graph" transform="scale(1 1) rotate(0) translate(4 966.58)">
<title>tree</title>
<polygon fill="white" stroke="transparent" points="-4,4 -4,-966.58 1747.94,-966.58 1747.94,4 -4,4"/>
<!-- n3 -->
<g id="node1" class="node">
<title>n3</title>
<ellipse fill="none" stroke="black" cx="777.97" cy="-925.1" rx="181.95" ry="37.45"/>
<text text-anchor="middle" x="777.97" y="-936.4" font-family="Times,serif" font-size="14.00">denunció</text>
<text text-anchor="middle" x="777.97" y="-921.4" font-family="Times,serif" font-size="14.00">vmis3s0 (root)</text>
<text text-anchor="middle" x="777.97" y="-906.4" font-family="Times,serif" font-size="14.00">rep=no, t=no, r=no, m=no, c=no</text>
</g>
<!-- n1 -->
<g id="node2" class="node">
<title>n1</title>
<ellipse fill="none" stroke="black" cx="387.97" cy="-814.15" rx="185.94" ry="37.45"/>
<text text-anchor="middle" x="387.97" y="-825.45" font-family="Times,serif" font-size="14.00">A.</text>
<text text-anchor="middle" x="387.97" y="-810.45" font-family="Times,serif" font-size="14.00">np0000l (nsubj)</text>
<text text-anchor="middle" x="387.97" y="-795.45" font-family="Times,serif" font-size="14.00">rep=yes, t=no, r=no, m=no, c=no</text>
</g>
<!-- n3&#45;&gt;n1 -->
<g id="edge1" class="edge">
<title>n3&#45;&gt;n1</title>
<path fill="none" stroke="black" d="M672.17,-894.55C620.25,-880.04 557.58,-862.53 504.31,-847.65"/>
<polygon fill="black" stroke="black" points="505.05,-844.22 494.48,-844.9 503.16,-850.97 505.05,-844.22"/>
</g>
<!-- n4 -->
<g id="node3" class="node">
<title>n4</title>
<ellipse fill="none" stroke="black" cx="777.97" cy="-814.15" rx="181.95" ry="37.45"/>
<text text-anchor="middle" x="777.97" y="-825.45" font-family="Times,serif" font-size="14.00">que</text>
<text text-anchor="middle" x="777.97" y="-810.45" font-family="Times,serif" font-size="14.00">cs (dobj)</text>
<text text-anchor="middle" x="777.97" y="-795.45" font-family="Times,serif" font-size="14.00">rep=no, t=no, r=no, m=no, c=no</text>
</g>
<!-- n3&#45;&gt;n4 -->
<g id="edge2" class="edge">
<title>n3&#45;&gt;n4</title>
<path fill="none" stroke="black" d="M777.97,-887.52C777.97,-879.35 777.97,-870.57 777.97,-862.04"/>
<polygon fill="black" stroke="black" points="781.47,-861.82 777.97,-851.82 774.47,-861.82 781.47,-861.82"/>
</g>
<!-- n19 -->
<g id="node4" class="node">
<title>n19</title>
<ellipse fill="none" stroke="black" cx="1158.97" cy="-814.15" rx="181.95" ry="37.45"/>
<text text-anchor="middle" x="1158.97" y="-825.45" font-family="Times,serif" font-size="14.00">.</text>
<text text-anchor="middle" x="1158.97" y="-810.45" font-family="Times,serif" font-size="14.00">fp (punct)</text>
<text text-anchor="middle" x="1158.97" y="-795.45" font-family="Times,serif" font-size="14.00">rep=no, t=no, r=no, m=no, c=no</text>
</g>
<!-- n3&#45;&gt;n19 -->
<g id="edge3" class="edge">
<title>n3&#45;&gt;n19</title>
<path fill="none" stroke="black" d="M882.08,-894.33C932.58,-879.89 993.37,-862.51 1045.1,-847.71"/>
<polygon fill="black" stroke="black" points="1046.33,-851 1054.99,-844.89 1044.41,-844.27 1046.33,-851"/>
</g>
<!-- n2 -->
<g id="node5" class="node">
<title>n2</title>
<ellipse fill="none" stroke="black" cx="185.97" cy="-703.2" rx="185.94" ry="37.45"/>
<text text-anchor="middle" x="185.97" y="-714.5" font-family="Times,serif" font-size="14.00">T.</text>
<text text-anchor="middle" x="185.97" y="-699.5" font-family="Times,serif" font-size="14.00">np0000l (appos)</text>
<text text-anchor="middle" x="185.97" y="-684.5" font-family="Times,serif" font-size="14.00">rep=yes, t=no, r=no, m=no, c=no</text>
</g>
<!-- n1&#45;&gt;n2 -->
<g id="edge4" class="edge">
<title>n1&#45;&gt;n2</title>
<path fill="none" stroke="black" d="M324.33,-778.83C303.49,-767.58 280.17,-755.01 258.71,-743.43"/>
<polygon fill="black" stroke="black" points="260.1,-740.2 249.63,-738.54 256.77,-746.36 260.1,-740.2"/>
</g>
<!-- n5 -->
<g id="node6" class="node">
<title>n5</title>
<ellipse fill="none" stroke="black" cx="580.97" cy="-703.2" rx="190.84" ry="37.45"/>
<text text-anchor="middle" x="580.97" y="-714.5" font-family="Times,serif" font-size="14.00">había</text>
<text text-anchor="middle" x="580.97" y="-699.5" font-family="Times,serif" font-size="14.00">vaii3s0 (cobj)</text>
<text text-anchor="middle" x="580.97" y="-684.5" font-family="Times,serif" font-size="14.00">rep=no, t=no, r=no, m=yes, c=yes</text>
</g>
<!-- n4&#45;&gt;n5 -->
<g id="edge5" class="edge">
<title>n4&#45;&gt;n5</title>
<path fill="none" stroke="black" d="M715.91,-778.83C695.68,-767.64 673.06,-755.13 652.21,-743.6"/>
<polygon fill="black" stroke="black" points="653.84,-740.5 643.4,-738.72 650.45,-746.62 653.84,-740.5"/>
</g>
<!-- n8 -->
<g id="node7" class="node">
<title>n8</title>
<ellipse fill="none" stroke="black" cx="975.97" cy="-703.2" rx="185.94" ry="37.45"/>
<text text-anchor="middle" x="975.97" y="-714.5" font-family="Times,serif" font-size="14.00">y</text>
<text text-anchor="middle" x="975.97" y="-699.5" font-family="Times,serif" font-size="14.00">cc (coord_fixed)</text>
<text text-anchor="middle" x="975.97" y="-684.5" font-family="Times,serif" font-size="14.00">rep=no, t=no, r=no, m=yes, c=no</text>
</g>
<!-- n4&#45;&gt;n8 -->
<g id="edge6" class="edge">
<title>n4&#45;&gt;n8</title>
<path fill="none" stroke="black" d="M840.35,-778.83C860.78,-767.58 883.63,-755.01 904.67,-743.43"/>
<polygon fill="black" stroke="black" points="906.49,-746.42 913.57,-738.54 903.12,-740.29 906.49,-746.42"/>
</g>
<!-- n9 -->
<g id="node8" class="node">
<title>n9</title>
<ellipse fill="none" stroke="black" cx="1370.97" cy="-703.2" rx="190.84" ry="37.45"/>
<text text-anchor="middle" x="1370.97" y="-714.5" font-family="Times,serif" font-size="14.00">violada</text>
<text text-anchor="middle" x="1370.97" y="-699.5" font-family="Times,serif" font-size="14.00">vmp00sf (cobj)</text>
<text text-anchor="middle" x="1370.97" y="-684.5" font-family="Times,serif" font-size="14.00">rep=no, t=no, r=no, m=yes, c=yes</text>
</g>
<!-- n4&#45;&gt;n9 -->
<g id="edge7" class="edge">
<title>n4&#45;&gt;n9</title>
<path fill="none" stroke="black" d="M907.98,-787.94C928.06,-784.12 948.56,-780.26 967.97,-776.67 1058.08,-760.03 1080.79,-756.89 1170.97,-740.67 1188.12,-737.59 1206.08,-734.34 1223.92,-731.1"/>
<polygon fill="black" stroke="black" points="1224.6,-734.53 1233.81,-729.3 1223.35,-727.65 1224.6,-734.53"/>
</g>
<!-- n6 -->
<g id="node9" class="node">
<title>n6</title>
<ellipse fill="none" stroke="black" cx="580.97" cy="-592.24" rx="185.94" ry="37.45"/>
<text text-anchor="middle" x="580.97" y="-603.54" font-family="Times,serif" font-size="14.00">sido</text>
<text text-anchor="middle" x="580.97" y="-588.54" font-family="Times,serif" font-size="14.00">vsp00sm (vobj)</text>
<text text-anchor="middle" x="580.97" y="-573.54" font-family="Times,serif" font-size="14.00">rep=no, t=no, r=no, m=yes, c=no</text>
</g>
<!-- n5&#45;&gt;n6 -->
<g id="edge8" class="edge">
<title>n5&#45;&gt;n6</title>
<path fill="none" stroke="black" d="M580.97,-665.61C580.97,-657.44 580.97,-648.66 580.97,-640.13"/>
<polygon fill="black" stroke="black" points="584.47,-639.92 580.97,-629.92 577.47,-639.92 584.47,-639.92"/>
</g>
<!-- n10 -->
<g id="node11" class="node">
<title>n10</title>
<ellipse fill="none" stroke="black" cx="975.97" cy="-592.24" rx="185.94" ry="37.45"/>
<text text-anchor="middle" x="975.97" y="-603.54" font-family="Times,serif" font-size="14.00">por</text>
<text text-anchor="middle" x="975.97" y="-588.54" font-family="Times,serif" font-size="14.00">sps00 (cobj)</text>
<text text-anchor="middle" x="975.97" y="-573.54" font-family="Times,serif" font-size="14.00">rep=no, t=no, r=no, m=yes, c=no</text>
</g>
<!-- n8&#45;&gt;n10 -->
<g id="edge10" class="edge">
<title>n8&#45;&gt;n10</title>
<path fill="none" stroke="black" d="M975.97,-665.61C975.97,-657.44 975.97,-648.66 975.97,-640.13"/>
<polygon fill="black" stroke="black" points="979.47,-639.92 975.97,-629.92 972.47,-639.92 979.47,-639.92"/>
</g>
<!-- n7 -->
<g id="node10" class="node">
<title>n7</title>
<ellipse fill="none" stroke="black" cx="580.97" cy="-481.29" rx="185.94" ry="37.45"/>
<text text-anchor="middle" x="580.97" y="-492.59" font-family="Times,serif" font-size="14.00">maltratada</text>
<text text-anchor="middle" x="580.97" y="-477.59" font-family="Times,serif" font-size="14.00">vmp00sf (attr)</text>
<text text-anchor="middle" x="580.97" y="-462.59" font-family="Times,serif" font-size="14.00">rep=no, t=no, r=no, m=yes, c=no</text>
</g>
<!-- n6&#45;&gt;n7 -->
<g id="edge9" class="edge">
<title>n6&#45;&gt;n7</title>
<path fill="none" stroke="black" d="M580.97,-554.66C580.97,-546.49 580.97,-537.71 580.97,-529.18"/>
<polygon fill="black" stroke="black" points="584.47,-528.96 580.97,-518.96 577.47,-528.96 584.47,-528.96"/>
</g>
<!-- n11 -->
<g id="node12" class="node">
<title>n11</title>
<ellipse fill="none" stroke="black" cx="972.97" cy="-481.29" rx="185.94" ry="37.45"/>
<text text-anchor="middle" x="972.97" y="-492.59" font-family="Times,serif" font-size="14.00">Abdeljlak</text>
<text text-anchor="middle" x="972.97" y="-477.59" font-family="Times,serif" font-size="14.00">np0000l (pobj)</text>
<text text-anchor="middle" x="972.97" y="-462.59" font-family="Times,serif" font-size="14.00">rep=no, t=no, r=no, m=yes, c=no</text>
</g>
<!-- n10&#45;&gt;n11 -->
<g id="edge11" class="edge">
<title>n10&#45;&gt;n11</title>
<path fill="none" stroke="black" d="M974.96,-554.66C974.74,-546.49 974.49,-537.71 974.26,-529.18"/>
<polygon fill="black" stroke="black" points="977.75,-528.86 973.98,-518.96 970.76,-529.05 977.75,-528.86"/>
</g>
<!-- n13 -->
<g id="node13" class="node">
<title>n13</title>
<ellipse fill="none" stroke="black" cx="1362.97" cy="-481.29" rx="185.94" ry="37.45"/>
<text text-anchor="middle" x="1362.97" y="-492.59" font-family="Times,serif" font-size="14.00">durante</text>
<text text-anchor="middle" x="1362.97" y="-477.59" font-family="Times,serif" font-size="14.00">sps00 (cobj)</text>
<text text-anchor="middle" x="1362.97" y="-462.59" font-family="Times,serif" font-size="14.00">rep=no, t=no, r=no, m=yes, c=no</text>
</g>
<!-- n10&#45;&gt;n13 -->
<g id="edge12" class="edge">
<title>n10&#45;&gt;n13</title>
<path fill="none" stroke="black" d="M1081.97,-561.4C1133.17,-546.99 1194.71,-529.66 1247.13,-514.9"/>
<polygon fill="black" stroke="black" points="1248.13,-518.26 1256.81,-512.18 1246.24,-511.52 1248.13,-518.26"/>
</g>
<!-- n12 -->
<g id="node14" class="node">
<title>n12</title>
<ellipse fill="none" stroke="black" cx="972.97" cy="-370.34" rx="185.94" ry="37.45"/>
<text text-anchor="middle" x="972.97" y="-381.64" font-family="Times,serif" font-size="14.00">B.</text>
<text text-anchor="middle" x="972.97" y="-366.64" font-family="Times,serif" font-size="14.00">np0000l (appos)</text>
<text text-anchor="middle" x="972.97" y="-351.64" font-family="Times,serif" font-size="14.00">rep=no, t=no, r=no, m=yes, c=no</text>
</g>
<!-- n11&#45;&gt;n12 -->
<g id="edge13" class="edge">
<title>n11&#45;&gt;n12</title>
<path fill="none" stroke="black" d="M972.97,-443.71C972.97,-435.53 972.97,-426.75 972.97,-418.23"/>
<polygon fill="black" stroke="black" points="976.47,-418.01 972.97,-408.01 969.47,-418.01 976.47,-418.01"/>
</g>
<!-- n15 -->
<g id="node15" class="node">
<title>n15</title>
<ellipse fill="none" stroke="black" cx="1362.97" cy="-370.34" rx="185.94" ry="37.45"/>
<text text-anchor="middle" x="1362.97" y="-381.64" font-family="Times,serif" font-size="14.00">ausencias</text>
<text text-anchor="middle" x="1362.97" y="-366.64" font-family="Times,serif" font-size="14.00">ncfp000 (pobj)</text>
<text text-anchor="middle" x="1362.97" y="-351.64" font-family="Times,serif" font-size="14.00">rep=no, t=no, r=no, m=yes, c=no</text>
</g>
<!-- n13&#45;&gt;n15 -->
<g id="edge14" class="edge">
<title>n13&#45;&gt;n15</title>
<path fill="none" stroke="black" d="M1362.97,-443.71C1362.97,-435.53 1362.97,-426.75 1362.97,-418.23"/>
<polygon fill="black" stroke="black" points="1366.47,-418.01 1362.97,-408.01 1359.47,-418.01 1366.47,-418.01"/>
</g>
<!-- n14 -->
<g id="node16" class="node">
<title>n14</title>
<ellipse fill="none" stroke="black" cx="1167.97" cy="-259.38" rx="185.94" ry="37.45"/>
<text text-anchor="middle" x="1167.97" y="-270.68" font-family="Times,serif" font-size="14.00">las</text>
<text text-anchor="middle" x="1167.97" y="-255.68" font-family="Times,serif" font-size="14.00">da0fp0 (det)</text>
<text text-anchor="middle" x="1167.97" y="-240.68" font-family="Times,serif" font-size="14.00">rep=no, t=no, r=no, m=yes, c=no</text>
</g>
<!-- n15&#45;&gt;n14 -->
<g id="edge15" class="edge">
<title>n15&#45;&gt;n14</title>
<path fill="none" stroke="black" d="M1301.27,-334.86C1281.34,-323.73 1259.1,-311.3 1238.58,-299.84"/>
<polygon fill="black" stroke="black" points="1240.04,-296.64 1229.6,-294.82 1236.62,-302.75 1240.04,-296.64"/>
</g>
<!-- n16 -->
<g id="node17" class="node">
<title>n16</title>
<ellipse fill="none" stroke="black" cx="1557.97" cy="-259.38" rx="185.94" ry="37.45"/>
<text text-anchor="middle" x="1557.97" y="-270.68" font-family="Times,serif" font-size="14.00">de</text>
<text text-anchor="middle" x="1557.97" y="-255.68" font-family="Times,serif" font-size="14.00">sps00 (prepn)</text>
<text text-anchor="middle" x="1557.97" y="-240.68" font-family="Times,serif" font-size="14.00">rep=no, t=no, r=no, m=yes, c=no</text>
</g>
<!-- n15&#45;&gt;n16 -->
<g id="edge16" class="edge">
<title>n15&#45;&gt;n16</title>
<path fill="none" stroke="black" d="M1424.67,-334.86C1444.59,-323.73 1466.84,-311.3 1487.35,-299.84"/>
<polygon fill="black" stroke="black" points="1489.31,-302.75 1496.34,-294.82 1485.9,-296.64 1489.31,-302.75"/>
</g>
<!-- n18 -->
<g id="node18" class="node">
<title>n18</title>
<ellipse fill="none" stroke="black" cx="1557.97" cy="-148.43" rx="185.94" ry="37.45"/>
<text text-anchor="middle" x="1557.97" y="-159.73" font-family="Times,serif" font-size="14.00">esposa</text>
<text text-anchor="middle" x="1557.97" y="-144.73" font-family="Times,serif" font-size="14.00">ncfs000 (pobj)</text>
<text text-anchor="middle" x="1557.97" y="-129.73" font-family="Times,serif" font-size="14.00">rep=no, t=no, r=no, m=yes, c=no</text>
</g>
<!-- n16&#45;&gt;n18 -->
<g id="edge17" class="edge">
<title>n16&#45;&gt;n18</title>
<path fill="none" stroke="black" d="M1557.97,-221.8C1557.97,-213.63 1557.97,-204.85 1557.97,-196.32"/>
<polygon fill="black" stroke="black" points="1561.47,-196.1 1557.97,-186.1 1554.47,-196.1 1561.47,-196.1"/>
</g>
<!-- n17 -->
<g id="node19" class="node">
<title>n17</title>
<ellipse fill="none" stroke="black" cx="1557.97" cy="-37.48" rx="185.94" ry="37.45"/>
<text text-anchor="middle" x="1557.97" y="-48.78" font-family="Times,serif" font-size="14.00">la</text>
<text text-anchor="middle" x="1557.97" y="-33.78" font-family="Times,serif" font-size="14.00">da0fs0 (det)</text>
<text text-anchor="middle" x="1557.97" y="-18.78" font-family="Times,serif" font-size="14.00">rep=no, t=no, r=no, m=yes, c=no</text>
</g>
<!-- n18&#45;&gt;n17 -->
<g id="edge18" class="edge">
<title>n18&#45;&gt;n17</title>
<path fill="none" stroke="black" d="M1557.97,-110.85C1557.97,-102.67 1557.97,-93.89 1557.97,-85.37"/>
<polygon fill="black" stroke="black" points="1561.47,-85.15 1557.97,-75.15 1554.47,-85.15 1561.47,-85.15"/>
</g>
</g>
</svg>
