<?xml version="1.0" encoding="UTF-8" standalone="no"?>
<!DOCTYPE svg PUBLIC "-//W3C//DTD SVG 1.1//EN"
 "http://www.w3.org/Graphics/SVG/1.1/DTD/svg11.dtd">
<!-- Generated by graphviz version 2.43.0 (0)
 -->
<!-- Title: tree Pages: 1 -->
<svg width="4969pt" height="1414pt"
 viewBox="0.00 0.00 4968.89 1414.39" xmlns="http://www.w3.org/2000/svg" xmlns:xlink="http://www.w3.org/1999/xlink">
<g id="graph0" class="graph" transform="scale(1 1) rotate(0) translate(4 1410.39)">
<title>tree</title>
<polygon fill="white" stroke="transparent" points="-4,4 -4,-1410.39 4964.89,-1410.39 4964.89,4 -4,4"/>
<!-- n31 -->
<g id="node1" class="node">
<title>n31</title>
<ellipse fill="none" stroke="black" cx="2387.92" cy="-1368.92" rx="185.94" ry="37.45"/>
<text text-anchor="middle" x="2387.92" y="-1380.22" font-family="Times,serif" font-size="14.00">quedó</text>
<text text-anchor="middle" x="2387.92" y="-1365.22" font-family="Times,serif" font-size="14.00">vmis3s0 (root)</text>
<text text-anchor="middle" x="2387.92" y="-1350.22" font-family="Times,serif" font-size="14.00">rep=no, t=no, r=no, m=yes, c=no</text>
</g>
<!-- n1 -->
<g id="node2" class="node">
<title>n1</title>
<ellipse fill="none" stroke="black" cx="1800.92" cy="-1257.96" rx="185.94" ry="37.45"/>
<text text-anchor="middle" x="1800.92" y="-1269.26" font-family="Times,serif" font-size="14.00">Que</text>
<text text-anchor="middle" x="1800.92" y="-1254.26" font-family="Times,serif" font-size="14.00">cs (csubj)</text>
<text text-anchor="middle" x="1800.92" y="-1239.26" font-family="Times,serif" font-size="14.00">rep=no, t=no, r=no, m=yes, c=no</text>
</g>
<!-- n31&#45;&gt;n1 -->
<g id="edge1" class="edge">
<title>n31&#45;&gt;n1</title>
<path fill="none" stroke="black" d="M2253.62,-1342.99C2161.52,-1325.9 2039.45,-1303.24 1945.27,-1285.76"/>
<polygon fill="black" stroke="black" points="1945.85,-1282.3 1935.38,-1283.92 1944.57,-1289.19 1945.85,-1282.3"/>
</g>
<!-- n33 -->
<g id="node3" class="node">
<title>n33</title>
<ellipse fill="none" stroke="black" cx="2192.92" cy="-1257.96" rx="185.94" ry="37.45"/>
<text text-anchor="middle" x="2192.92" y="-1269.26" font-family="Times,serif" font-size="14.00">claro</text>
<text text-anchor="middle" x="2192.92" y="-1254.26" font-family="Times,serif" font-size="14.00">aq0ms0 (cpred)</text>
<text text-anchor="middle" x="2192.92" y="-1239.26" font-family="Times,serif" font-size="14.00">rep=no, t=no, r=no, m=yes, c=no</text>
</g>
<!-- n31&#45;&gt;n33 -->
<g id="edge2" class="edge">
<title>n31&#45;&gt;n33</title>
<path fill="none" stroke="black" d="M2326.22,-1333.44C2306.29,-1322.31 2284.05,-1309.88 2263.53,-1298.42"/>
<polygon fill="black" stroke="black" points="2264.99,-1295.22 2254.55,-1293.4 2261.57,-1301.33 2264.99,-1295.22"/>
</g>
<!-- n34 -->
<g id="node4" class="node">
<title>n34</title>
<ellipse fill="none" stroke="black" cx="2582.92" cy="-1257.96" rx="185.94" ry="37.45"/>
<text text-anchor="middle" x="2582.92" y="-1269.26" font-family="Times,serif" font-size="14.00">durante</text>
<text text-anchor="middle" x="2582.92" y="-1254.26" font-family="Times,serif" font-size="14.00">sps00 (prepv)</text>
<text text-anchor="middle" x="2582.92" y="-1239.26" font-family="Times,serif" font-size="14.00">rep=no, t=no, r=no, m=yes, c=no</text>
</g>
<!-- n31&#45;&gt;n34 -->
<g id="edge3" class="edge">
<title>n31&#45;&gt;n34</title>
<path fill="none" stroke="black" d="M2449.62,-1333.44C2469.54,-1322.31 2491.79,-1309.88 2512.3,-1298.42"/>
<polygon fill="black" stroke="black" points="2514.26,-1301.33 2521.29,-1293.4 2510.85,-1295.22 2514.26,-1301.33"/>
</g>
<!-- n54 -->
<g id="node5" class="node">
<title>n54</title>
<ellipse fill="none" stroke="black" cx="2968.92" cy="-1257.96" rx="181.95" ry="37.45"/>
<text text-anchor="middle" x="2968.92" y="-1269.26" font-family="Times,serif" font-size="14.00">.</text>
<text text-anchor="middle" x="2968.92" y="-1254.26" font-family="Times,serif" font-size="14.00">fp (punct)</text>
<text text-anchor="middle" x="2968.92" y="-1239.26" font-family="Times,serif" font-size="14.00">rep=no, t=no, r=no, m=no, c=no</text>
</g>
<!-- n31&#45;&gt;n54 -->
<g id="edge4" class="edge">
<title>n31&#45;&gt;n54</title>
<path fill="none" stroke="black" d="M2522.87,-1343.01C2597.98,-1329.1 2693.15,-1311.41 2777.92,-1295.44 2794.21,-1292.37 2811.28,-1289.14 2828.23,-1285.91"/>
<polygon fill="black" stroke="black" points="2829.02,-1289.33 2838.19,-1284.02 2827.72,-1282.45 2829.02,-1289.33"/>
</g>
<!-- n7 -->
<g id="node6" class="node">
<title>n7</title>
<ellipse fill="#DA79E8" stroke="black" cx="1795.92" cy="-1147.01" rx="190.84" ry="37.45"/>
<text text-anchor="middle" x="1795.92" y="-1158.31" font-family="Times,serif" font-size="14.00">tiene</text>
<text text-anchor="middle" x="1795.92" y="-1143.31" font-family="Times,serif" font-size="14.00">vmip3s0 (cobj)</text>
<text text-anchor="middle" x="1795.92" y="-1128.31" font-family="Times,serif" font-size="14.00">rep=no, t=no, r=yes, m=yes, c=no</text>
</g>
<!-- n1&#45;&gt;n7 -->
<g id="edge5" class="edge">
<title>n1&#45;&gt;n7</title>
<path fill="none" stroke="black" d="M1799.24,-1220.38C1798.86,-1212.21 1798.46,-1203.43 1798.07,-1194.9"/>
<polygon fill="black" stroke="black" points="1801.56,-1194.51 1797.6,-1184.68 1794.56,-1194.83 1801.56,-1194.51"/>
</g>
<!-- n32 -->
<g id="node35" class="node">
<title>n32</title>
<ellipse fill="none" stroke="black" cx="2192.92" cy="-1147.01" rx="185.94" ry="37.45"/>
<text text-anchor="middle" x="2192.92" y="-1158.31" font-family="Times,serif" font-size="14.00">meridianamente</text>
<text text-anchor="middle" x="2192.92" y="-1143.31" font-family="Times,serif" font-size="14.00">rg (advmod)</text>
<text text-anchor="middle" x="2192.92" y="-1128.31" font-family="Times,serif" font-size="14.00">rep=no, t=no, r=no, m=yes, c=no</text>
</g>
<!-- n33&#45;&gt;n32 -->
<g id="edge34" class="edge">
<title>n33&#45;&gt;n32</title>
<path fill="none" stroke="black" d="M2192.92,-1220.38C2192.92,-1212.21 2192.92,-1203.43 2192.92,-1194.9"/>
<polygon fill="black" stroke="black" points="2196.42,-1194.68 2192.92,-1184.68 2189.42,-1194.68 2196.42,-1194.68"/>
</g>
<!-- n36 -->
<g id="node36" class="node">
<title>n36</title>
<ellipse fill="none" stroke="black" cx="2589.92" cy="-1147.01" rx="185.94" ry="37.45"/>
<text text-anchor="middle" x="2589.92" y="-1158.31" font-family="Times,serif" font-size="14.00">congreso</text>
<text text-anchor="middle" x="2589.92" y="-1143.31" font-family="Times,serif" font-size="14.00">ncms000 (pobj)</text>
<text text-anchor="middle" x="2589.92" y="-1128.31" font-family="Times,serif" font-size="14.00">rep=no, t=no, r=no, m=yes, c=no</text>
</g>
<!-- n34&#45;&gt;n36 -->
<g id="edge35" class="edge">
<title>n34&#45;&gt;n36</title>
<path fill="none" stroke="black" d="M2585.27,-1220.38C2585.79,-1212.21 2586.36,-1203.43 2586.91,-1194.9"/>
<polygon fill="black" stroke="black" points="2590.41,-1194.89 2587.56,-1184.68 2583.43,-1194.44 2590.41,-1194.89"/>
</g>
<!-- n3 -->
<g id="node7" class="node">
<title>n3</title>
<ellipse fill="#BEDA48" stroke="black" cx="1190.92" cy="-1036.06" rx="190.84" ry="37.45"/>
<text text-anchor="middle" x="1190.92" y="-1047.36" font-family="Times,serif" font-size="14.00">crisis</text>
<text text-anchor="middle" x="1190.92" y="-1032.36" font-family="Times,serif" font-size="14.00">ncfn000 (nsubj)</text>
<text text-anchor="middle" x="1190.92" y="-1017.36" font-family="Times,serif" font-size="14.00">rep=no, t=yes, r=no, m=yes, c=no</text>
</g>
<!-- n7&#45;&gt;n3 -->
<g id="edge6" class="edge">
<title>n7&#45;&gt;n3</title>
<path fill="none" stroke="black" d="M1657.5,-1121.08C1562.4,-1103.96 1436.28,-1081.24 1339.15,-1063.75"/>
<polygon fill="black" stroke="black" points="1339.7,-1060.29 1329.24,-1061.97 1338.46,-1067.18 1339.7,-1060.29"/>
</g>
<!-- n9 -->
<g id="node8" class="node">
<title>n9</title>
<ellipse fill="#DA79E8" stroke="black" cx="1790.92" cy="-1036.06" rx="190.84" ry="37.45"/>
<text text-anchor="middle" x="1790.92" y="-1047.36" font-family="Times,serif" font-size="14.00">orígenes</text>
<text text-anchor="middle" x="1790.92" y="-1032.36" font-family="Times,serif" font-size="14.00">ncmp000 (dobj)</text>
<text text-anchor="middle" x="1790.92" y="-1017.36" font-family="Times,serif" font-size="14.00">rep=no, t=no, r=yes, m=yes, c=no</text>
</g>
<!-- n7&#45;&gt;n9 -->
<g id="edge7" class="edge">
<title>n7&#45;&gt;n9</title>
<path fill="none" stroke="black" d="M1794.24,-1109.43C1793.86,-1101.25 1793.46,-1092.47 1793.07,-1083.95"/>
<polygon fill="black" stroke="black" points="1796.56,-1083.56 1792.6,-1073.73 1789.56,-1083.88 1796.56,-1083.56"/>
</g>
<!-- n10 -->
<g id="node9" class="node">
<title>n10</title>
<ellipse fill="#DA79E8" stroke="black" cx="2190.92" cy="-1036.06" rx="190.84" ry="37.45"/>
<text text-anchor="middle" x="2190.92" y="-1047.36" font-family="Times,serif" font-size="14.00">en</text>
<text text-anchor="middle" x="2190.92" y="-1032.36" font-family="Times,serif" font-size="14.00">sps00 (prepv)</text>
<text text-anchor="middle" x="2190.92" y="-1017.36" font-family="Times,serif" font-size="14.00">rep=no, t=no, r=yes, m=yes, c=no</text>
</g>
<!-- n7&#45;&gt;n10 -->
<g id="edge8" class="edge">
<title>n7&#45;&gt;n10</title>
<path fill="none" stroke="black" d="M1904.38,-1116.09C1956.52,-1101.71 2019.13,-1084.44 2072.51,-1069.72"/>
<polygon fill="black" stroke="black" points="2073.65,-1073.03 2082.36,-1067 2071.79,-1066.29 2073.65,-1073.03"/>
</g>
<!-- n2 -->
<g id="node10" class="node">
<title>n2</title>
<ellipse fill="#BEDA48" stroke="black" cx="590.92" cy="-925.1" rx="190.84" ry="37.45"/>
<text text-anchor="middle" x="590.92" y="-936.4" font-family="Times,serif" font-size="14.00">la</text>
<text text-anchor="middle" x="590.92" y="-921.4" font-family="Times,serif" font-size="14.00">da0fs0 (det)</text>
<text text-anchor="middle" x="590.92" y="-906.4" font-family="Times,serif" font-size="14.00">rep=no, t=yes, r=no, m=yes, c=no</text>
</g>
<!-- n3&#45;&gt;n2 -->
<g id="edge9" class="edge">
<title>n3&#45;&gt;n2</title>
<path fill="none" stroke="black" d="M1053,-1010.11C975.9,-996.15 878.06,-978.42 790.92,-962.58 773.85,-959.48 755.97,-956.22 738.21,-952.99"/>
<polygon fill="black" stroke="black" points="738.82,-949.54 728.36,-951.19 737.57,-956.43 738.82,-949.54"/>
</g>
<!-- n4 -->
<g id="node11" class="node">
<title>n4</title>
<ellipse fill="#BEDA48" stroke="black" cx="990.92" cy="-925.1" rx="190.84" ry="37.45"/>
<text text-anchor="middle" x="990.92" y="-936.4" font-family="Times,serif" font-size="14.00">institucional</text>
<text text-anchor="middle" x="990.92" y="-921.4" font-family="Times,serif" font-size="14.00">aq0cs0 (amod)</text>
<text text-anchor="middle" x="990.92" y="-906.4" font-family="Times,serif" font-size="14.00">rep=no, t=yes, r=no, m=yes, c=no</text>
</g>
<!-- n3&#45;&gt;n4 -->
<g id="edge10" class="edge">
<title>n3&#45;&gt;n4</title>
<path fill="none" stroke="black" d="M1127.64,-1000.58C1107.11,-989.4 1084.18,-976.91 1063.06,-965.4"/>
<polygon fill="black" stroke="black" points="1064.59,-962.25 1054.13,-960.54 1061.24,-968.4 1064.59,-962.25"/>
</g>
<!-- n5 -->
<g id="node12" class="node">
<title>n5</title>
<ellipse fill="#BEDA48" stroke="black" cx="1390.92" cy="-925.1" rx="190.84" ry="37.45"/>
<text text-anchor="middle" x="1390.92" y="-936.4" font-family="Times,serif" font-size="14.00">de</text>
<text text-anchor="middle" x="1390.92" y="-921.4" font-family="Times,serif" font-size="14.00">sps00 (prepn)</text>
<text text-anchor="middle" x="1390.92" y="-906.4" font-family="Times,serif" font-size="14.00">rep=no, t=yes, r=no, m=yes, c=no</text>
</g>
<!-- n3&#45;&gt;n5 -->
<g id="edge11" class="edge">
<title>n3&#45;&gt;n5</title>
<path fill="none" stroke="black" d="M1254.2,-1000.58C1274.73,-989.4 1297.65,-976.91 1318.78,-965.4"/>
<polygon fill="black" stroke="black" points="1320.6,-968.4 1327.71,-960.54 1317.25,-962.25 1320.6,-968.4"/>
</g>
<!-- n8 -->
<g id="node14" class="node">
<title>n8</title>
<ellipse fill="#DA79E8" stroke="black" cx="1790.92" cy="-925.1" rx="190.84" ry="37.45"/>
<text text-anchor="middle" x="1790.92" y="-936.4" font-family="Times,serif" font-size="14.00">sus</text>
<text text-anchor="middle" x="1790.92" y="-921.4" font-family="Times,serif" font-size="14.00">dp3cp0 (poss)</text>
<text text-anchor="middle" x="1790.92" y="-906.4" font-family="Times,serif" font-size="14.00">rep=no, t=no, r=yes, m=yes, c=no</text>
</g>
<!-- n9&#45;&gt;n8 -->
<g id="edge13" class="edge">
<title>n9&#45;&gt;n8</title>
<path fill="none" stroke="black" d="M1790.92,-998.47C1790.92,-990.3 1790.92,-981.52 1790.92,-972.99"/>
<polygon fill="black" stroke="black" points="1794.42,-972.78 1790.92,-962.78 1787.42,-972.78 1794.42,-972.78"/>
</g>
<!-- n12 -->
<g id="node15" class="node">
<title>n12</title>
<ellipse fill="#DA79E8" stroke="black" cx="2190.92" cy="-925.1" rx="190.84" ry="37.45"/>
<text text-anchor="middle" x="2190.92" y="-936.4" font-family="Times,serif" font-size="14.00">manejos</text>
<text text-anchor="middle" x="2190.92" y="-921.4" font-family="Times,serif" font-size="14.00">ncmp000 (pobj)</text>
<text text-anchor="middle" x="2190.92" y="-906.4" font-family="Times,serif" font-size="14.00">rep=no, t=no, r=yes, m=yes, c=no</text>
</g>
<!-- n10&#45;&gt;n12 -->
<g id="edge14" class="edge">
<title>n10&#45;&gt;n12</title>
<path fill="none" stroke="black" d="M2190.92,-998.47C2190.92,-990.3 2190.92,-981.52 2190.92,-972.99"/>
<polygon fill="black" stroke="black" points="2194.42,-972.78 2190.92,-962.78 2187.42,-972.78 2194.42,-972.78"/>
</g>
<!-- n6 -->
<g id="node13" class="node">
<title>n6</title>
<ellipse fill="#BEDA48" stroke="black" cx="1390.92" cy="-814.15" rx="190.84" ry="37.45"/>
<text text-anchor="middle" x="1390.92" y="-825.45" font-family="Times,serif" font-size="14.00">Asturias</text>
<text text-anchor="middle" x="1390.92" y="-810.45" font-family="Times,serif" font-size="14.00">np00000 (pobj)</text>
<text text-anchor="middle" x="1390.92" y="-795.45" font-family="Times,serif" font-size="14.00">rep=no, t=yes, r=no, m=yes, c=no</text>
</g>
<!-- n5&#45;&gt;n6 -->
<g id="edge12" class="edge">
<title>n5&#45;&gt;n6</title>
<path fill="none" stroke="black" d="M1390.92,-887.52C1390.92,-879.35 1390.92,-870.57 1390.92,-862.04"/>
<polygon fill="black" stroke="black" points="1394.42,-861.82 1390.92,-851.82 1387.42,-861.82 1394.42,-861.82"/>
</g>
<!-- n11 -->
<g id="node16" class="node">
<title>n11</title>
<ellipse fill="#DA79E8" stroke="black" cx="1790.92" cy="-814.15" rx="190.84" ry="37.45"/>
<text text-anchor="middle" x="1790.92" y="-825.45" font-family="Times,serif" font-size="14.00">los</text>
<text text-anchor="middle" x="1790.92" y="-810.45" font-family="Times,serif" font-size="14.00">da0mp0 (det)</text>
<text text-anchor="middle" x="1790.92" y="-795.45" font-family="Times,serif" font-size="14.00">rep=no, t=no, r=yes, m=yes, c=no</text>
</g>
<!-- n12&#45;&gt;n11 -->
<g id="edge15" class="edge">
<title>n12&#45;&gt;n11</title>
<path fill="none" stroke="black" d="M2081.62,-894.33C2028.48,-879.86 1964.51,-862.43 1910.12,-847.62"/>
<polygon fill="black" stroke="black" points="1911,-844.23 1900.44,-844.98 1909.16,-850.99 1911,-844.23"/>
</g>
<!-- n13 -->
<g id="node17" class="node">
<title>n13</title>
<ellipse fill="#DA79E8" stroke="black" cx="2190.92" cy="-814.15" rx="190.84" ry="37.45"/>
<text text-anchor="middle" x="2190.92" y="-825.45" font-family="Times,serif" font-size="14.00">del</text>
<text text-anchor="middle" x="2190.92" y="-810.45" font-family="Times,serif" font-size="14.00">spcms (prepn)</text>
<text text-anchor="middle" x="2190.92" y="-795.45" font-family="Times,serif" font-size="14.00">rep=no, t=no, r=yes, m=yes, c=no</text>
</g>
<!-- n12&#45;&gt;n13 -->
<g id="edge16" class="edge">
<title>n12&#45;&gt;n13</title>
<path fill="none" stroke="black" d="M2190.92,-887.52C2190.92,-879.35 2190.92,-870.57 2190.92,-862.04"/>
<polygon fill="black" stroke="black" points="2194.42,-861.82 2190.92,-851.82 2187.42,-861.82 2194.42,-861.82"/>
</g>
<!-- n14 -->
<g id="node18" class="node">
<title>n14</title>
<ellipse fill="#DA79E8" stroke="black" cx="590.92" cy="-703.2" rx="190.84" ry="37.45"/>
<text text-anchor="middle" x="590.92" y="-714.5" font-family="Times,serif" font-size="14.00">vicepresidente</text>
<text text-anchor="middle" x="590.92" y="-699.5" font-family="Times,serif" font-size="14.00">ncms000 (pobj)</text>
<text text-anchor="middle" x="590.92" y="-684.5" font-family="Times,serif" font-size="14.00">rep=no, t=no, r=yes, m=yes, c=no</text>
</g>
<!-- n13&#45;&gt;n14 -->
<g id="edge17" class="edge">
<title>n13&#45;&gt;n14</title>
<path fill="none" stroke="black" d="M2060.58,-786.75C2037.46,-782.82 2013.54,-779.23 1990.92,-776.67 1637.26,-736.65 1546.34,-759.47 1190.92,-740.67 1053.71,-733.42 898.93,-723.97 780.94,-716.52"/>
<polygon fill="black" stroke="black" points="780.92,-713.01 770.72,-715.87 780.48,-719.99 780.92,-713.01"/>
</g>
<!-- n19 -->
<g id="node19" class="node">
<title>n19</title>
<ellipse fill="#DA79E8" stroke="black" cx="1390.92" cy="-703.2" rx="190.84" ry="37.45"/>
<text text-anchor="middle" x="1390.92" y="-714.5" font-family="Times,serif" font-size="14.00">y</text>
<text text-anchor="middle" x="1390.92" y="-699.5" font-family="Times,serif" font-size="14.00">cc (coord_fixed)</text>
<text text-anchor="middle" x="1390.92" y="-684.5" font-family="Times,serif" font-size="14.00">rep=no, t=no, r=yes, m=yes, c=no</text>
</g>
<!-- n13&#45;&gt;n19 -->
<g id="edge18" class="edge">
<title>n13&#45;&gt;n19</title>
<path fill="none" stroke="black" d="M2056.63,-787.51C2034.7,-783.66 2012.21,-779.9 1990.92,-776.67 1848.9,-755.16 1687.18,-735.93 1567.46,-722.69"/>
<polygon fill="black" stroke="black" points="1567.78,-719.21 1557.46,-721.59 1567.02,-726.17 1567.78,-719.21"/>
</g>
<!-- n21 -->
<g id="node20" class="node">
<title>n21</title>
<ellipse fill="#DA79E8" stroke="black" cx="2190.92" cy="-703.2" rx="195.74" ry="37.45"/>
<text text-anchor="middle" x="2190.92" y="-714.5" font-family="Times,serif" font-size="14.00">secretario</text>
<text text-anchor="middle" x="2190.92" y="-699.5" font-family="Times,serif" font-size="14.00">ncms000 (pobj)</text>
<text text-anchor="middle" x="2190.92" y="-684.5" font-family="Times,serif" font-size="14.00">rep=no, t=no, r=yes, m=yes, c=yes</text>
</g>
<!-- n13&#45;&gt;n21 -->
<g id="edge19" class="edge">
<title>n13&#45;&gt;n21</title>
<path fill="none" stroke="black" d="M2190.92,-776.57C2190.92,-768.39 2190.92,-759.61 2190.92,-751.09"/>
<polygon fill="black" stroke="black" points="2194.42,-750.87 2190.92,-740.87 2187.42,-750.87 2194.42,-750.87"/>
</g>
<!-- n27 -->
<g id="node21" class="node">
<title>n27</title>
<ellipse fill="#DA79E8" stroke="black" cx="2990.92" cy="-703.2" rx="195.74" ry="37.45"/>
<text text-anchor="middle" x="2990.92" y="-714.5" font-family="Times,serif" font-size="14.00">asturiano</text>
<text text-anchor="middle" x="2990.92" y="-699.5" font-family="Times,serif" font-size="14.00">ncms000 (pobj)</text>
<text text-anchor="middle" x="2990.92" y="-684.5" font-family="Times,serif" font-size="14.00">rep=no, t=no, r=yes, m=yes, c=yes</text>
</g>
<!-- n13&#45;&gt;n27 -->
<g id="edge20" class="edge">
<title>n13&#45;&gt;n27</title>
<path fill="none" stroke="black" d="M2345.64,-792.08C2482.81,-773.4 2682.67,-746.18 2823.54,-726.99"/>
<polygon fill="black" stroke="black" points="2824.14,-730.44 2833.58,-725.63 2823.19,-723.51 2824.14,-730.44"/>
</g>
<!-- n15 -->
<g id="node22" class="node">
<title>n15</title>
<ellipse fill="#DA79E8" stroke="black" cx="190.92" cy="-592.24" rx="190.84" ry="37.45"/>
<text text-anchor="middle" x="190.92" y="-603.54" font-family="Times,serif" font-size="14.00">primero</text>
<text text-anchor="middle" x="190.92" y="-588.54" font-family="Times,serif" font-size="14.00">ao0ms0 (amod)</text>
<text text-anchor="middle" x="190.92" y="-573.54" font-family="Times,serif" font-size="14.00">rep=no, t=no, r=yes, m=yes, c=no</text>
</g>
<!-- n14&#45;&gt;n15 -->
<g id="edge21" class="edge">
<title>n14&#45;&gt;n15</title>
<path fill="none" stroke="black" d="M481.62,-672.42C428.48,-657.95 364.51,-640.53 310.12,-625.71"/>
<polygon fill="black" stroke="black" points="311,-622.32 300.44,-623.07 309.16,-629.08 311,-622.32"/>
</g>
<!-- n16 -->
<g id="node23" class="node">
<title>n16</title>
<ellipse fill="#DA79E8" stroke="black" cx="590.92" cy="-592.24" rx="190.84" ry="37.45"/>
<text text-anchor="middle" x="590.92" y="-603.54" font-family="Times,serif" font-size="14.00">del</text>
<text text-anchor="middle" x="590.92" y="-588.54" font-family="Times,serif" font-size="14.00">spcms (prepn)</text>
<text text-anchor="middle" x="590.92" y="-573.54" font-family="Times,serif" font-size="14.00">rep=no, t=no, r=yes, m=yes, c=no</text>
</g>
<!-- n14&#45;&gt;n16 -->
<g id="edge22" class="edge">
<title>n14&#45;&gt;n16</title>
<path fill="none" stroke="black" d="M590.92,-665.61C590.92,-657.44 590.92,-648.66 590.92,-640.13"/>
<polygon fill="black" stroke="black" points="594.42,-639.92 590.92,-629.92 587.42,-639.92 594.42,-639.92"/>
</g>
<!-- n25 -->
<g id="node26" class="node">
<title>n25</title>
<ellipse fill="#DA79E8" stroke="black" cx="990.92" cy="-592.24" rx="190.84" ry="37.45"/>
<text text-anchor="middle" x="990.92" y="-603.54" font-family="Times,serif" font-size="14.00">,</text>
<text text-anchor="middle" x="990.92" y="-588.54" font-family="Times,serif" font-size="14.00">fc (punct)</text>
<text text-anchor="middle" x="990.92" y="-573.54" font-family="Times,serif" font-size="14.00">rep=no, t=no, r=yes, m=yes, c=no</text>
</g>
<!-- n19&#45;&gt;n25 -->
<g id="edge25" class="edge">
<title>n19&#45;&gt;n25</title>
<path fill="none" stroke="black" d="M1281.62,-672.42C1228.48,-657.95 1164.51,-640.53 1110.12,-625.71"/>
<polygon fill="black" stroke="black" points="1111,-622.32 1100.44,-623.07 1109.16,-629.08 1111,-622.32"/>
</g>
<!-- n30 -->
<g id="node27" class="node">
<title>n30</title>
<ellipse fill="#DA79E8" stroke="black" cx="1390.92" cy="-592.24" rx="190.84" ry="37.45"/>
<text text-anchor="middle" x="1390.92" y="-603.54" font-family="Times,serif" font-size="14.00">,</text>
<text text-anchor="middle" x="1390.92" y="-588.54" font-family="Times,serif" font-size="14.00">fc (punct)</text>
<text text-anchor="middle" x="1390.92" y="-573.54" font-family="Times,serif" font-size="14.00">rep=no, t=no, r=yes, m=yes, c=no</text>
</g>
<!-- n19&#45;&gt;n30 -->
<g id="edge26" class="edge">
<title>n19&#45;&gt;n30</title>
<path fill="none" stroke="black" d="M1390.92,-665.61C1390.92,-657.44 1390.92,-648.66 1390.92,-640.13"/>
<polygon fill="black" stroke="black" points="1394.42,-639.92 1390.92,-629.92 1387.42,-639.92 1394.42,-639.92"/>
</g>
<!-- n20 -->
<g id="node28" class="node">
<title>n20</title>
<ellipse fill="#DA79E8" stroke="black" cx="1790.92" cy="-592.24" rx="190.84" ry="37.45"/>
<text text-anchor="middle" x="1790.92" y="-603.54" font-family="Times,serif" font-size="14.00">ex</text>
<text text-anchor="middle" x="1790.92" y="-588.54" font-family="Times,serif" font-size="14.00">aq0cn0 (amod)</text>
<text text-anchor="middle" x="1790.92" y="-573.54" font-family="Times,serif" font-size="14.00">rep=no, t=no, r=yes, m=yes, c=no</text>
</g>
<!-- n21&#45;&gt;n20 -->
<g id="edge27" class="edge">
<title>n21&#45;&gt;n20</title>
<path fill="none" stroke="black" d="M2080.56,-672.14C2027.66,-657.73 1964.21,-640.44 1910.2,-625.73"/>
<polygon fill="black" stroke="black" points="1910.8,-622.27 1900.23,-623.02 1908.96,-629.02 1910.8,-622.27"/>
</g>
<!-- n22 -->
<g id="node29" class="node">
<title>n22</title>
<ellipse fill="#DA79E8" stroke="black" cx="2190.92" cy="-592.24" rx="190.84" ry="37.45"/>
<text text-anchor="middle" x="2190.92" y="-603.54" font-family="Times,serif" font-size="14.00">general</text>
<text text-anchor="middle" x="2190.92" y="-588.54" font-family="Times,serif" font-size="14.00">aq0cs0 (amod)</text>
<text text-anchor="middle" x="2190.92" y="-573.54" font-family="Times,serif" font-size="14.00">rep=no, t=no, r=yes, m=yes, c=no</text>
</g>
<!-- n21&#45;&gt;n22 -->
<g id="edge28" class="edge">
<title>n21&#45;&gt;n22</title>
<path fill="none" stroke="black" d="M2190.92,-665.61C2190.92,-657.44 2190.92,-648.66 2190.92,-640.13"/>
<polygon fill="black" stroke="black" points="2194.42,-639.92 2190.92,-629.92 2187.42,-639.92 2194.42,-639.92"/>
</g>
<!-- n23 -->
<g id="node30" class="node">
<title>n23</title>
<ellipse fill="#DA79E8" stroke="black" cx="2590.92" cy="-592.24" rx="190.84" ry="37.45"/>
<text text-anchor="middle" x="2590.92" y="-603.54" font-family="Times,serif" font-size="14.00">del</text>
<text text-anchor="middle" x="2590.92" y="-588.54" font-family="Times,serif" font-size="14.00">spcms (prepn)</text>
<text text-anchor="middle" x="2590.92" y="-573.54" font-family="Times,serif" font-size="14.00">rep=no, t=no, r=yes, m=yes, c=no</text>
</g>
<!-- n21&#45;&gt;n23 -->
<g id="edge29" class="edge">
<title>n21&#45;&gt;n23</title>
<path fill="none" stroke="black" d="M2301.28,-672.14C2354.18,-657.73 2417.63,-640.44 2471.64,-625.73"/>
<polygon fill="black" stroke="black" points="2472.88,-629.02 2481.61,-623.02 2471.04,-622.27 2472.88,-629.02"/>
</g>
<!-- n26 -->
<g id="node32" class="node">
<title>n26</title>
<ellipse fill="#DA79E8" stroke="black" cx="2990.92" cy="-592.24" rx="190.84" ry="37.45"/>
<text text-anchor="middle" x="2990.92" y="-603.54" font-family="Times,serif" font-size="14.00">el</text>
<text text-anchor="middle" x="2990.92" y="-588.54" font-family="Times,serif" font-size="14.00">da0ms0 (det)</text>
<text text-anchor="middle" x="2990.92" y="-573.54" font-family="Times,serif" font-size="14.00">rep=no, t=no, r=yes, m=yes, c=no</text>
</g>
<!-- n27&#45;&gt;n26 -->
<g id="edge31" class="edge">
<title>n27&#45;&gt;n26</title>
<path fill="none" stroke="black" d="M2990.92,-665.61C2990.92,-657.44 2990.92,-648.66 2990.92,-640.13"/>
<polygon fill="black" stroke="black" points="2994.42,-639.92 2990.92,-629.92 2987.42,-639.92 2994.42,-639.92"/>
</g>
<!-- n28 -->
<g id="node33" class="node">
<title>n28</title>
<ellipse fill="#DA79E8" stroke="black" cx="3390.92" cy="-592.24" rx="190.84" ry="37.45"/>
<text text-anchor="middle" x="3390.92" y="-603.54" font-family="Times,serif" font-size="14.00">Francisco</text>
<text text-anchor="middle" x="3390.92" y="-588.54" font-family="Times,serif" font-size="14.00">np0000l (appos)</text>
<text text-anchor="middle" x="3390.92" y="-573.54" font-family="Times,serif" font-size="14.00">rep=no, t=no, r=yes, m=yes, c=no</text>
</g>
<!-- n27&#45;&gt;n28 -->
<g id="edge32" class="edge">
<title>n27&#45;&gt;n28</title>
<path fill="none" stroke="black" d="M3101.28,-672.14C3154.18,-657.73 3217.63,-640.44 3271.64,-625.73"/>
<polygon fill="black" stroke="black" points="3272.88,-629.02 3281.61,-623.02 3271.04,-622.27 3272.88,-629.02"/>
</g>
<!-- n17 -->
<g id="node24" class="node">
<title>n17</title>
<ellipse fill="#DA79E8" stroke="black" cx="590.92" cy="-481.29" rx="190.84" ry="37.45"/>
<text text-anchor="middle" x="590.92" y="-492.59" font-family="Times,serif" font-size="14.00">Gobierno</text>
<text text-anchor="middle" x="590.92" y="-477.59" font-family="Times,serif" font-size="14.00">np00000 (pobj)</text>
<text text-anchor="middle" x="590.92" y="-462.59" font-family="Times,serif" font-size="14.00">rep=no, t=no, r=yes, m=yes, c=no</text>
</g>
<!-- n16&#45;&gt;n17 -->
<g id="edge23" class="edge">
<title>n16&#45;&gt;n17</title>
<path fill="none" stroke="black" d="M590.92,-554.66C590.92,-546.49 590.92,-537.71 590.92,-529.18"/>
<polygon fill="black" stroke="black" points="594.42,-528.96 590.92,-518.96 587.42,-528.96 594.42,-528.96"/>
</g>
<!-- n18 -->
<g id="node25" class="node">
<title>n18</title>
<ellipse fill="#DA79E8" stroke="black" cx="590.92" cy="-370.34" rx="190.84" ry="37.45"/>
<text text-anchor="middle" x="590.92" y="-381.64" font-family="Times,serif" font-size="14.00">central</text>
<text text-anchor="middle" x="590.92" y="-366.64" font-family="Times,serif" font-size="14.00">aq0cs0 (amod)</text>
<text text-anchor="middle" x="590.92" y="-351.64" font-family="Times,serif" font-size="14.00">rep=no, t=no, r=yes, m=yes, c=no</text>
</g>
<!-- n17&#45;&gt;n18 -->
<g id="edge24" class="edge">
<title>n17&#45;&gt;n18</title>
<path fill="none" stroke="black" d="M590.92,-443.71C590.92,-435.53 590.92,-426.75 590.92,-418.23"/>
<polygon fill="black" stroke="black" points="594.42,-418.01 590.92,-408.01 587.42,-418.01 594.42,-418.01"/>
</g>
<!-- n24 -->
<g id="node31" class="node">
<title>n24</title>
<ellipse fill="#DA79E8" stroke="black" cx="2590.92" cy="-481.29" rx="190.84" ry="37.45"/>
<text text-anchor="middle" x="2590.92" y="-492.59" font-family="Times,serif" font-size="14.00">PP</text>
<text text-anchor="middle" x="2590.92" y="-477.59" font-family="Times,serif" font-size="14.00">np00000 (pobj)</text>
<text text-anchor="middle" x="2590.92" y="-462.59" font-family="Times,serif" font-size="14.00">rep=no, t=no, r=yes, m=yes, c=no</text>
</g>
<!-- n23&#45;&gt;n24 -->
<g id="edge30" class="edge">
<title>n23&#45;&gt;n24</title>
<path fill="none" stroke="black" d="M2590.92,-554.66C2590.92,-546.49 2590.92,-537.71 2590.92,-529.18"/>
<polygon fill="black" stroke="black" points="2594.42,-528.96 2590.92,-518.96 2587.42,-528.96 2594.42,-528.96"/>
</g>
<!-- n29 -->
<g id="node34" class="node">
<title>n29</title>
<ellipse fill="#DA79E8" stroke="black" cx="3389.92" cy="-481.29" rx="190.84" ry="37.45"/>
<text text-anchor="middle" x="3389.92" y="-492.59" font-family="Times,serif" font-size="14.00">Alvarez&#45;Cascos</text>
<text text-anchor="middle" x="3389.92" y="-477.59" font-family="Times,serif" font-size="14.00">np0000l (appos)</text>
<text text-anchor="middle" x="3389.92" y="-462.59" font-family="Times,serif" font-size="14.00">rep=no, t=no, r=yes, m=yes, c=no</text>
</g>
<!-- n28&#45;&gt;n29 -->
<g id="edge33" class="edge">
<title>n28&#45;&gt;n29</title>
<path fill="none" stroke="black" d="M3390.58,-554.66C3390.51,-546.49 3390.43,-537.71 3390.35,-529.18"/>
<polygon fill="black" stroke="black" points="3393.85,-528.93 3390.26,-518.96 3386.85,-528.99 3393.85,-528.93"/>
</g>
<!-- n35 -->
<g id="node37" class="node">
<title>n35</title>
<ellipse fill="none" stroke="black" cx="2589.92" cy="-1036.06" rx="185.94" ry="37.45"/>
<text text-anchor="middle" x="2589.92" y="-1047.36" font-family="Times,serif" font-size="14.00">el</text>
<text text-anchor="middle" x="2589.92" y="-1032.36" font-family="Times,serif" font-size="14.00">da0ms0 (det)</text>
<text text-anchor="middle" x="2589.92" y="-1017.36" font-family="Times,serif" font-size="14.00">rep=no, t=no, r=no, m=yes, c=no</text>
</g>
<!-- n36&#45;&gt;n35 -->
<g id="edge36" class="edge">
<title>n36&#45;&gt;n35</title>
<path fill="none" stroke="black" d="M2589.92,-1109.43C2589.92,-1101.25 2589.92,-1092.47 2589.92,-1083.95"/>
<polygon fill="black" stroke="black" points="2593.42,-1083.73 2589.92,-1073.73 2586.42,-1083.73 2593.42,-1083.73"/>
</g>
<!-- n37 -->
<g id="node38" class="node">
<title>n37</title>
<ellipse fill="none" stroke="black" cx="2981.92" cy="-1036.06" rx="185.94" ry="37.45"/>
<text text-anchor="middle" x="2981.92" y="-1047.36" font-family="Times,serif" font-size="14.00">de</text>
<text text-anchor="middle" x="2981.92" y="-1032.36" font-family="Times,serif" font-size="14.00">sps00 (prepn)</text>
<text text-anchor="middle" x="2981.92" y="-1017.36" font-family="Times,serif" font-size="14.00">rep=no, t=no, r=no, m=yes, c=no</text>
</g>
<!-- n36&#45;&gt;n37 -->
<g id="edge37" class="edge">
<title>n36&#45;&gt;n37</title>
<path fill="none" stroke="black" d="M2696.78,-1116.31C2748.85,-1101.84 2811.59,-1084.4 2864.95,-1069.57"/>
<polygon fill="black" stroke="black" points="2866.1,-1072.88 2874.8,-1066.83 2864.22,-1066.14 2866.1,-1072.88"/>
</g>
<!-- n39 -->
<g id="node39" class="node">
<title>n39</title>
<ellipse fill="none" stroke="black" cx="2988.92" cy="-925.1" rx="185.94" ry="37.45"/>
<text text-anchor="middle" x="2988.92" y="-936.4" font-family="Times,serif" font-size="14.00">Uras</text>
<text text-anchor="middle" x="2988.92" y="-921.4" font-family="Times,serif" font-size="14.00">np00000 (pobj)</text>
<text text-anchor="middle" x="2988.92" y="-906.4" font-family="Times,serif" font-size="14.00">rep=no, t=no, r=no, m=yes, c=no</text>
</g>
<!-- n37&#45;&gt;n39 -->
<g id="edge38" class="edge">
<title>n37&#45;&gt;n39</title>
<path fill="none" stroke="black" d="M2984.27,-998.47C2984.79,-990.3 2985.36,-981.52 2985.91,-972.99"/>
<polygon fill="black" stroke="black" points="2989.41,-972.98 2986.56,-962.78 2982.43,-972.53 2989.41,-972.98"/>
</g>
<!-- n38 -->
<g id="node40" class="node">
<title>n38</title>
<ellipse fill="none" stroke="black" cx="2791.92" cy="-814.15" rx="185.94" ry="37.45"/>
<text text-anchor="middle" x="2791.92" y="-825.45" font-family="Times,serif" font-size="14.00">la</text>
<text text-anchor="middle" x="2791.92" y="-810.45" font-family="Times,serif" font-size="14.00">da0fs0 (det)</text>
<text text-anchor="middle" x="2791.92" y="-795.45" font-family="Times,serif" font-size="14.00">rep=no, t=no, r=no, m=yes, c=no</text>
</g>
<!-- n39&#45;&gt;n38 -->
<g id="edge39" class="edge">
<title>n39&#45;&gt;n38</title>
<path fill="none" stroke="black" d="M2926.59,-889.63C2906.37,-878.45 2883.79,-865.96 2862.98,-854.45"/>
<polygon fill="black" stroke="black" points="2864.63,-851.36 2854.18,-849.59 2861.24,-857.49 2864.63,-851.36"/>
</g>
<!-- n40 -->
<g id="node41" class="node">
<title>n40</title>
<ellipse fill="none" stroke="black" cx="3181.92" cy="-814.15" rx="185.94" ry="37.45"/>
<text text-anchor="middle" x="3181.92" y="-825.45" font-family="Times,serif" font-size="14.00">,</text>
<text text-anchor="middle" x="3181.92" y="-810.45" font-family="Times,serif" font-size="14.00">fc (punct)</text>
<text text-anchor="middle" x="3181.92" y="-795.45" font-family="Times,serif" font-size="14.00">rep=no, t=no, r=no, m=yes, c=no</text>
</g>
<!-- n39&#45;&gt;n40 -->
<g id="edge40" class="edge">
<title>n39&#45;&gt;n40</title>
<path fill="none" stroke="black" d="M3049.99,-889.63C3069.71,-878.5 3091.72,-866.07 3112.03,-854.61"/>
<polygon fill="black" stroke="black" points="3113.93,-857.55 3120.92,-849.59 3110.49,-851.45 3113.93,-857.55"/>
</g>
<!-- n43 -->
<g id="node42" class="node">
<title>n43</title>
<ellipse fill="none" stroke="black" cx="3585.92" cy="-814.15" rx="185.94" ry="37.45"/>
<text text-anchor="middle" x="3585.92" y="-825.45" font-family="Times,serif" font-size="14.00">partido</text>
<text text-anchor="middle" x="3585.92" y="-810.45" font-family="Times,serif" font-size="14.00">ncms000 (appos)</text>
<text text-anchor="middle" x="3585.92" y="-795.45" font-family="Times,serif" font-size="14.00">rep=no, t=no, r=no, m=yes, c=no</text>
</g>
<!-- n39&#45;&gt;n43 -->
<g id="edge41" class="edge">
<title>n39&#45;&gt;n43</title>
<path fill="none" stroke="black" d="M3124.39,-899.38C3218.58,-882.19 3344.03,-859.3 3440.36,-841.72"/>
<polygon fill="black" stroke="black" points="3441.26,-845.11 3450.47,-839.87 3440,-838.22 3441.26,-845.11"/>
</g>
<!-- n41 -->
<g id="node43" class="node">
<title>n41</title>
<ellipse fill="none" stroke="black" cx="3391.92" cy="-703.2" rx="185.94" ry="37.45"/>
<text text-anchor="middle" x="3391.92" y="-714.5" font-family="Times,serif" font-size="14.00">el</text>
<text text-anchor="middle" x="3391.92" y="-699.5" font-family="Times,serif" font-size="14.00">da0ms0 (det)</text>
<text text-anchor="middle" x="3391.92" y="-684.5" font-family="Times,serif" font-size="14.00">rep=no, t=no, r=no, m=yes, c=no</text>
</g>
<!-- n43&#45;&gt;n41 -->
<g id="edge42" class="edge">
<title>n43&#45;&gt;n41</title>
<path fill="none" stroke="black" d="M3524.54,-778.68C3504.71,-767.54 3482.59,-755.12 3462.17,-743.65"/>
<polygon fill="black" stroke="black" points="3463.67,-740.48 3453.24,-738.63 3460.24,-746.58 3463.67,-740.48"/>
</g>
<!-- n42 -->
<g id="node44" class="node">
<title>n42</title>
<ellipse fill="none" stroke="black" cx="3781.92" cy="-703.2" rx="185.94" ry="37.45"/>
<text text-anchor="middle" x="3781.92" y="-714.5" font-family="Times,serif" font-size="14.00">nuevo</text>
<text text-anchor="middle" x="3781.92" y="-699.5" font-family="Times,serif" font-size="14.00">aq0ms0 (amod)</text>
<text text-anchor="middle" x="3781.92" y="-684.5" font-family="Times,serif" font-size="14.00">rep=no, t=no, r=no, m=yes, c=no</text>
</g>
<!-- n43&#45;&gt;n42 -->
<g id="edge43" class="edge">
<title>n43&#45;&gt;n42</title>
<path fill="none" stroke="black" d="M3647.93,-778.68C3668.05,-767.49 3690.52,-755 3711.22,-743.5"/>
<polygon fill="black" stroke="black" points="3712.93,-746.55 3719.97,-738.63 3709.53,-740.43 3712.93,-746.55"/>
</g>
<!-- n44 -->
<g id="node45" class="node">
<title>n44</title>
<ellipse fill="none" stroke="black" cx="4175.92" cy="-703.2" rx="185.94" ry="37.45"/>
<text text-anchor="middle" x="4175.92" y="-714.5" font-family="Times,serif" font-size="14.00">creado</text>
<text text-anchor="middle" x="4175.92" y="-699.5" font-family="Times,serif" font-size="14.00">aq0msp (amod)</text>
<text text-anchor="middle" x="4175.92" y="-684.5" font-family="Times,serif" font-size="14.00">rep=no, t=no, r=no, m=yes, c=no</text>
</g>
<!-- n43&#45;&gt;n44 -->
<g id="edge44" class="edge">
<title>n43&#45;&gt;n44</title>
<path fill="none" stroke="black" d="M3720.54,-788.29C3813.25,-771.17 3936.33,-748.44 4031.16,-730.93"/>
<polygon fill="black" stroke="black" points="4031.92,-734.35 4041.11,-729.09 4030.64,-727.46 4031.92,-734.35"/>
</g>
<!-- n45 -->
<g id="node46" class="node">
<title>n45</title>
<ellipse fill="none" stroke="black" cx="4182.92" cy="-592.24" rx="185.94" ry="37.45"/>
<text text-anchor="middle" x="4182.92" y="-603.54" font-family="Times,serif" font-size="14.00">por</text>
<text text-anchor="middle" x="4182.92" y="-588.54" font-family="Times,serif" font-size="14.00">sps00 (agent)</text>
<text text-anchor="middle" x="4182.92" y="-573.54" font-family="Times,serif" font-size="14.00">rep=no, t=no, r=no, m=yes, c=no</text>
</g>
<!-- n44&#45;&gt;n45 -->
<g id="edge45" class="edge">
<title>n44&#45;&gt;n45</title>
<path fill="none" stroke="black" d="M4178.27,-665.61C4178.79,-657.44 4179.36,-648.66 4179.91,-640.13"/>
<polygon fill="black" stroke="black" points="4183.41,-640.12 4180.56,-629.92 4176.43,-639.67 4183.41,-640.12"/>
</g>
<!-- n46 -->
<g id="node47" class="node">
<title>n46</title>
<ellipse fill="none" stroke="black" cx="3789.92" cy="-481.29" rx="190.84" ry="37.45"/>
<text text-anchor="middle" x="3789.92" y="-492.59" font-family="Times,serif" font-size="14.00">Marqués</text>
<text text-anchor="middle" x="3789.92" y="-477.59" font-family="Times,serif" font-size="14.00">np00000 (pobj)</text>
<text text-anchor="middle" x="3789.92" y="-462.59" font-family="Times,serif" font-size="14.00">rep=no, t=no, r=no, m=yes, c=yes</text>
</g>
<!-- n45&#45;&gt;n46 -->
<g id="edge46" class="edge">
<title>n45&#45;&gt;n46</title>
<path fill="none" stroke="black" d="M4075.79,-561.54C4023.8,-547.13 3961.2,-529.77 3907.85,-514.98"/>
<polygon fill="black" stroke="black" points="3908.57,-511.55 3898,-512.25 3906.7,-518.3 3908.57,-511.55"/>
</g>
<!-- n47 -->
<g id="node48" class="node">
<title>n47</title>
<ellipse fill="none" stroke="black" cx="4184.92" cy="-481.29" rx="185.94" ry="37.45"/>
<text text-anchor="middle" x="4184.92" y="-492.59" font-family="Times,serif" font-size="14.00">y</text>
<text text-anchor="middle" x="4184.92" y="-477.59" font-family="Times,serif" font-size="14.00">cc (coord_fixed)</text>
<text text-anchor="middle" x="4184.92" y="-462.59" font-family="Times,serif" font-size="14.00">rep=no, t=no, r=no, m=yes, c=no</text>
</g>
<!-- n45&#45;&gt;n47 -->
<g id="edge47" class="edge">
<title>n45&#45;&gt;n47</title>
<path fill="none" stroke="black" d="M4183.59,-554.66C4183.74,-546.49 4183.9,-537.71 4184.06,-529.18"/>
<polygon fill="black" stroke="black" points="4187.56,-529.02 4184.25,-518.96 4180.56,-528.9 4187.56,-529.02"/>
</g>
<!-- n49 -->
<g id="node49" class="node">
<title>n49</title>
<ellipse fill="none" stroke="black" cx="4579.92" cy="-481.29" rx="190.84" ry="37.45"/>
<text text-anchor="middle" x="4579.92" y="-492.59" font-family="Times,serif" font-size="14.00">seguidores</text>
<text text-anchor="middle" x="4579.92" y="-477.59" font-family="Times,serif" font-size="14.00">ncmp000 (pobj)</text>
<text text-anchor="middle" x="4579.92" y="-462.59" font-family="Times,serif" font-size="14.00">rep=no, t=no, r=no, m=yes, c=yes</text>
</g>
<!-- n45&#45;&gt;n49 -->
<g id="edge48" class="edge">
<title>n45&#45;&gt;n49</title>
<path fill="none" stroke="black" d="M4290.61,-561.69C4343.47,-547.18 4407.27,-529.67 4461.5,-514.79"/>
<polygon fill="black" stroke="black" points="4462.44,-518.16 4471.16,-512.14 4460.59,-511.41 4462.44,-518.16"/>
</g>
<!-- n48 -->
<g id="node50" class="node">
<title>n48</title>
<ellipse fill="none" stroke="black" cx="4384.92" cy="-370.34" rx="185.94" ry="37.45"/>
<text text-anchor="middle" x="4384.92" y="-381.64" font-family="Times,serif" font-size="14.00">sus</text>
<text text-anchor="middle" x="4384.92" y="-366.64" font-family="Times,serif" font-size="14.00">dp3cp0 (poss)</text>
<text text-anchor="middle" x="4384.92" y="-351.64" font-family="Times,serif" font-size="14.00">rep=no, t=no, r=no, m=yes, c=no</text>
</g>
<!-- n49&#45;&gt;n48 -->
<g id="edge49" class="edge">
<title>n49&#45;&gt;n48</title>
<path fill="none" stroke="black" d="M4518.22,-445.82C4498.29,-434.68 4476.05,-422.26 4455.53,-410.79"/>
<polygon fill="black" stroke="black" points="4456.99,-407.59 4446.55,-405.77 4453.57,-413.71 4456.99,-407.59"/>
</g>
<!-- n50 -->
<g id="node51" class="node">
<title>n50</title>
<ellipse fill="none" stroke="black" cx="4774.92" cy="-370.34" rx="185.94" ry="37.45"/>
<text text-anchor="middle" x="4774.92" y="-381.64" font-family="Times,serif" font-size="14.00">escindidos</text>
<text text-anchor="middle" x="4774.92" y="-366.64" font-family="Times,serif" font-size="14.00">aq0mpp (amod)</text>
<text text-anchor="middle" x="4774.92" y="-351.64" font-family="Times,serif" font-size="14.00">rep=no, t=no, r=no, m=yes, c=no</text>
</g>
<!-- n49&#45;&gt;n50 -->
<g id="edge50" class="edge">
<title>n49&#45;&gt;n50</title>
<path fill="none" stroke="black" d="M4641.62,-445.82C4661.54,-434.68 4683.79,-422.26 4704.3,-410.79"/>
<polygon fill="black" stroke="black" points="4706.26,-413.71 4713.29,-405.77 4702.85,-407.59 4706.26,-413.71"/>
</g>
<!-- n51 -->
<g id="node52" class="node">
<title>n51</title>
<ellipse fill="none" stroke="black" cx="4774.92" cy="-259.38" rx="185.94" ry="37.45"/>
<text text-anchor="middle" x="4774.92" y="-270.68" font-family="Times,serif" font-size="14.00">del</text>
<text text-anchor="middle" x="4774.92" y="-255.68" font-family="Times,serif" font-size="14.00">spcms (oobj)</text>
<text text-anchor="middle" x="4774.92" y="-240.68" font-family="Times,serif" font-size="14.00">rep=no, t=no, r=no, m=yes, c=no</text>
</g>
<!-- n50&#45;&gt;n51 -->
<g id="edge51" class="edge">
<title>n50&#45;&gt;n51</title>
<path fill="none" stroke="black" d="M4774.92,-332.75C4774.92,-324.58 4774.92,-315.8 4774.92,-307.27"/>
<polygon fill="black" stroke="black" points="4778.42,-307.06 4774.92,-297.06 4771.42,-307.06 4778.42,-307.06"/>
</g>
<!-- n52 -->
<g id="node53" class="node">
<title>n52</title>
<ellipse fill="none" stroke="black" cx="4774.92" cy="-148.43" rx="185.94" ry="37.45"/>
<text text-anchor="middle" x="4774.92" y="-159.73" font-family="Times,serif" font-size="14.00">Partido</text>
<text text-anchor="middle" x="4774.92" y="-144.73" font-family="Times,serif" font-size="14.00">ncms000 (pobj)</text>
<text text-anchor="middle" x="4774.92" y="-129.73" font-family="Times,serif" font-size="14.00">rep=no, t=no, r=no, m=yes, c=no</text>
</g>
<!-- n51&#45;&gt;n52 -->
<g id="edge52" class="edge">
<title>n51&#45;&gt;n52</title>
<path fill="none" stroke="black" d="M4774.92,-221.8C4774.92,-213.63 4774.92,-204.85 4774.92,-196.32"/>
<polygon fill="black" stroke="black" points="4778.42,-196.1 4774.92,-186.1 4771.42,-196.1 4778.42,-196.1"/>
</g>
<!-- n53 -->
<g id="node54" class="node">
<title>n53</title>
<ellipse fill="none" stroke="black" cx="4774.92" cy="-37.48" rx="185.94" ry="37.45"/>
<text text-anchor="middle" x="4774.92" y="-48.78" font-family="Times,serif" font-size="14.00">Popular</text>
<text text-anchor="middle" x="4774.92" y="-33.78" font-family="Times,serif" font-size="14.00">aq0ms0 (amod)</text>
<text text-anchor="middle" x="4774.92" y="-18.78" font-family="Times,serif" font-size="14.00">rep=no, t=no, r=no, m=yes, c=no</text>
</g>
<!-- n52&#45;&gt;n53 -->
<g id="edge53" class="edge">
<title>n52&#45;&gt;n53</title>
<path fill="none" stroke="black" d="M4774.92,-110.85C4774.92,-102.67 4774.92,-93.89 4774.92,-85.37"/>
<polygon fill="black" stroke="black" points="4778.42,-85.15 4774.92,-75.15 4771.42,-85.15 4778.42,-85.15"/>
</g>
</g>
</svg>
