<?xml version="1.0" encoding="UTF-8" standalone="no"?>
<!DOCTYPE svg PUBLIC "-//W3C//DTD SVG 1.1//EN"
 "http://www.w3.org/Graphics/SVG/1.1/DTD/svg11.dtd">
<!-- Generated by graphviz version 2.43.0 (0)
 -->
<!-- Title: tree Pages: 1 -->
<svg width="1572pt" height="527pt"
 viewBox="0.00 0.00 1571.65 526.77" xmlns="http://www.w3.org/2000/svg" xmlns:xlink="http://www.w3.org/1999/xlink">
<g id="graph0" class="graph" transform="scale(1 1) rotate(0) translate(4 522.77)">
<title>tree</title>
<polygon fill="white" stroke="transparent" points="-4,4 -4,-522.77 1567.65,-522.77 1567.65,4 -4,4"/>
<!-- n5 -->
<g id="node1" class="node">
<title>n5</title>
<ellipse fill="#98D2A5" stroke="black" cx="790.92" cy="-481.29" rx="190.84" ry="37.45"/>
<text text-anchor="middle" x="790.92" y="-492.59" font-family="Times,serif" font-size="14.00">distribuirán</text>
<text text-anchor="middle" x="790.92" y="-477.59" font-family="Times,serif" font-size="14.00">vmif3p0 (root)</text>
<text text-anchor="middle" x="790.92" y="-462.59" font-family="Times,serif" font-size="14.00">rep=no, t=no, r=yes, m=yes, c=no</text>
</g>
<!-- n3 -->
<g id="node2" class="node">
<title>n3</title>
<ellipse fill="#98D2A5" stroke="black" cx="190.92" cy="-370.34" rx="190.84" ry="37.45"/>
<text text-anchor="middle" x="190.92" y="-381.64" font-family="Times,serif" font-size="14.00">policías</text>
<text text-anchor="middle" x="190.92" y="-366.64" font-family="Times,serif" font-size="14.00">nccp000 (nsubj)</text>
<text text-anchor="middle" x="190.92" y="-351.64" font-family="Times,serif" font-size="14.00">rep=no, t=yes, r=no, m=yes, c=no</text>
</g>
<!-- n5&#45;&gt;n3 -->
<g id="edge1" class="edge">
<title>n5&#45;&gt;n3</title>
<path fill="none" stroke="black" d="M653,-455.34C575.9,-441.38 478.06,-423.65 390.92,-407.81 373.85,-404.71 355.97,-401.45 338.21,-398.22"/>
<polygon fill="black" stroke="black" points="338.82,-394.77 328.36,-396.42 337.57,-401.66 338.82,-394.77"/>
</g>
<!-- n4 -->
<g id="node3" class="node">
<title>n4</title>
<ellipse fill="#98D2A5" stroke="black" cx="590.92" cy="-370.34" rx="190.84" ry="37.45"/>
<text text-anchor="middle" x="590.92" y="-381.64" font-family="Times,serif" font-size="14.00">se</text>
<text text-anchor="middle" x="590.92" y="-366.64" font-family="Times,serif" font-size="14.00">p0300000 (reflec)</text>
<text text-anchor="middle" x="590.92" y="-351.64" font-family="Times,serif" font-size="14.00">rep=no, t=no, r=yes, m=yes, c=no</text>
</g>
<!-- n5&#45;&gt;n4 -->
<g id="edge2" class="edge">
<title>n5&#45;&gt;n4</title>
<path fill="none" stroke="black" d="M727.64,-445.82C707.11,-434.63 684.18,-422.14 663.06,-410.64"/>
<polygon fill="black" stroke="black" points="664.59,-407.48 654.13,-405.77 661.24,-413.63 664.59,-407.48"/>
</g>
<!-- n6 -->
<g id="node4" class="node">
<title>n6</title>
<ellipse fill="#98D2A5" stroke="black" cx="990.92" cy="-370.34" rx="190.84" ry="37.45"/>
<text text-anchor="middle" x="990.92" y="-381.64" font-family="Times,serif" font-size="14.00">en</text>
<text text-anchor="middle" x="990.92" y="-366.64" font-family="Times,serif" font-size="14.00">sps00 (prepv)</text>
<text text-anchor="middle" x="990.92" y="-351.64" font-family="Times,serif" font-size="14.00">rep=no, t=no, r=yes, m=yes, c=no</text>
</g>
<!-- n5&#45;&gt;n6 -->
<g id="edge3" class="edge">
<title>n5&#45;&gt;n6</title>
<path fill="none" stroke="black" d="M854.2,-445.82C874.73,-434.63 897.65,-422.14 918.78,-410.64"/>
<polygon fill="black" stroke="black" points="920.6,-413.63 927.71,-405.77 917.25,-407.48 920.6,-413.63"/>
</g>
<!-- n11 -->
<g id="node5" class="node">
<title>n11</title>
<ellipse fill="none" stroke="black" cx="1381.92" cy="-370.34" rx="181.95" ry="37.45"/>
<text text-anchor="middle" x="1381.92" y="-381.64" font-family="Times,serif" font-size="14.00">.</text>
<text text-anchor="middle" x="1381.92" y="-366.64" font-family="Times,serif" font-size="14.00">fp (punct)</text>
<text text-anchor="middle" x="1381.92" y="-351.64" font-family="Times,serif" font-size="14.00">rep=no, t=no, r=no, m=no, c=no</text>
</g>
<!-- n5&#45;&gt;n11 -->
<g id="edge4" class="edge">
<title>n5&#45;&gt;n11</title>
<path fill="none" stroke="black" d="M929.82,-455.46C1006.79,-441.61 1104.19,-423.95 1190.92,-407.81 1207.22,-404.78 1224.29,-401.57 1241.25,-398.36"/>
<polygon fill="black" stroke="black" points="1242.03,-401.77 1251.21,-396.47 1240.73,-394.89 1242.03,-401.77"/>
</g>
<!-- n1 -->
<g id="node6" class="node">
<title>n1</title>
<ellipse fill="#98D2A5" stroke="black" cx="190.92" cy="-259.38" rx="190.84" ry="37.45"/>
<text text-anchor="middle" x="190.92" y="-270.68" font-family="Times,serif" font-size="14.00">Los</text>
<text text-anchor="middle" x="190.92" y="-255.68" font-family="Times,serif" font-size="14.00">da0mp0 (det)</text>
<text text-anchor="middle" x="190.92" y="-240.68" font-family="Times,serif" font-size="14.00">rep=no, t=yes, r=no, m=yes, c=no</text>
</g>
<!-- n3&#45;&gt;n1 -->
<g id="edge5" class="edge">
<title>n3&#45;&gt;n1</title>
<path fill="none" stroke="black" d="M190.92,-332.75C190.92,-324.58 190.92,-315.8 190.92,-307.27"/>
<polygon fill="black" stroke="black" points="194.42,-307.06 190.92,-297.06 187.42,-307.06 194.42,-307.06"/>
</g>
<!-- n8 -->
<g id="node8" class="node">
<title>n8</title>
<ellipse fill="#98D2A5" stroke="black" cx="990.92" cy="-259.38" rx="190.84" ry="37.45"/>
<text text-anchor="middle" x="990.92" y="-270.68" font-family="Times,serif" font-size="14.00">turnos</text>
<text text-anchor="middle" x="990.92" y="-255.68" font-family="Times,serif" font-size="14.00">ncmp000 (pobj)</text>
<text text-anchor="middle" x="990.92" y="-240.68" font-family="Times,serif" font-size="14.00">rep=no, t=no, r=yes, m=yes, c=no</text>
</g>
<!-- n6&#45;&gt;n8 -->
<g id="edge7" class="edge">
<title>n6&#45;&gt;n8</title>
<path fill="none" stroke="black" d="M990.92,-332.75C990.92,-324.58 990.92,-315.8 990.92,-307.27"/>
<polygon fill="black" stroke="black" points="994.42,-307.06 990.92,-297.06 987.42,-307.06 994.42,-307.06"/>
</g>
<!-- n2 -->
<g id="node7" class="node">
<title>n2</title>
<ellipse fill="#98D2A5" stroke="black" cx="190.92" cy="-148.43" rx="190.84" ry="37.45"/>
<text text-anchor="middle" x="190.92" y="-159.73" font-family="Times,serif" font-size="14.00">72</text>
<text text-anchor="middle" x="190.92" y="-144.73" font-family="Times,serif" font-size="14.00">z (num)</text>
<text text-anchor="middle" x="190.92" y="-129.73" font-family="Times,serif" font-size="14.00">rep=no, t=yes, r=no, m=yes, c=no</text>
</g>
<!-- n1&#45;&gt;n2 -->
<g id="edge6" class="edge">
<title>n1&#45;&gt;n2</title>
<path fill="none" stroke="black" d="M190.92,-221.8C190.92,-213.63 190.92,-204.85 190.92,-196.32"/>
<polygon fill="black" stroke="black" points="194.42,-196.1 190.92,-186.1 187.42,-196.1 194.42,-196.1"/>
</g>
<!-- n7 -->
<g id="node9" class="node">
<title>n7</title>
<ellipse fill="#98D2A5" stroke="black" cx="790.92" cy="-148.43" rx="190.84" ry="37.45"/>
<text text-anchor="middle" x="790.92" y="-159.73" font-family="Times,serif" font-size="14.00">tres</text>
<text text-anchor="middle" x="790.92" y="-144.73" font-family="Times,serif" font-size="14.00">dn0cp0 (det)</text>
<text text-anchor="middle" x="790.92" y="-129.73" font-family="Times,serif" font-size="14.00">rep=no, t=no, r=yes, m=yes, c=no</text>
</g>
<!-- n8&#45;&gt;n7 -->
<g id="edge8" class="edge">
<title>n8&#45;&gt;n7</title>
<path fill="none" stroke="black" d="M927.64,-223.91C907.11,-212.73 884.18,-200.24 863.06,-188.73"/>
<polygon fill="black" stroke="black" points="864.59,-185.58 854.13,-183.87 861.24,-191.72 864.59,-185.58"/>
</g>
<!-- n9 -->
<g id="node10" class="node">
<title>n9</title>
<ellipse fill="#98D2A5" stroke="black" cx="1190.92" cy="-148.43" rx="190.84" ry="37.45"/>
<text text-anchor="middle" x="1190.92" y="-159.73" font-family="Times,serif" font-size="14.00">de</text>
<text text-anchor="middle" x="1190.92" y="-144.73" font-family="Times,serif" font-size="14.00">sps00 (prepn)</text>
<text text-anchor="middle" x="1190.92" y="-129.73" font-family="Times,serif" font-size="14.00">rep=no, t=no, r=yes, m=yes, c=no</text>
</g>
<!-- n8&#45;&gt;n9 -->
<g id="edge9" class="edge">
<title>n8&#45;&gt;n9</title>
<path fill="none" stroke="black" d="M1054.2,-223.91C1074.73,-212.73 1097.65,-200.24 1118.78,-188.73"/>
<polygon fill="black" stroke="black" points="1120.6,-191.72 1127.71,-183.87 1117.25,-185.58 1120.6,-191.72"/>
</g>
<!-- n10 -->
<g id="node11" class="node">
<title>n10</title>
<ellipse fill="#98D2A5" stroke="black" cx="1190.92" cy="-37.48" rx="190.84" ry="37.45"/>
<text text-anchor="middle" x="1190.92" y="-48.78" font-family="Times,serif" font-size="14.00">24</text>
<text text-anchor="middle" x="1190.92" y="-33.78" font-family="Times,serif" font-size="14.00">z (pobj)</text>
<text text-anchor="middle" x="1190.92" y="-18.78" font-family="Times,serif" font-size="14.00">rep=no, t=no, r=yes, m=yes, c=no</text>
</g>
<!-- n9&#45;&gt;n10 -->
<g id="edge10" class="edge">
<title>n9&#45;&gt;n10</title>
<path fill="none" stroke="black" d="M1190.92,-110.85C1190.92,-102.67 1190.92,-93.89 1190.92,-85.37"/>
<polygon fill="black" stroke="black" points="1194.42,-85.15 1190.92,-75.15 1187.42,-85.15 1194.42,-85.15"/>
</g>
</g>
</svg>
