<?xml version="1.0" encoding="UTF-8" standalone="no"?>
<!DOCTYPE svg PUBLIC "-//W3C//DTD SVG 1.1//EN"
 "http://www.w3.org/Graphics/SVG/1.1/DTD/svg11.dtd">
<!-- Generated by graphviz version 2.43.0 (0)
 -->
<!-- Title: tree Pages: 1 -->
<svg width="1347pt" height="1082pt"
 viewBox="0.00 0.00 1346.70 1081.53" xmlns="http://www.w3.org/2000/svg" xmlns:xlink="http://www.w3.org/1999/xlink">
<g id="graph0" class="graph" transform="scale(1 1) rotate(0) translate(4 1077.53)">
<title>tree</title>
<polygon fill="white" stroke="transparent" points="-4,4 -4,-1077.53 1342.7,-1077.53 1342.7,4 -4,4"/>
<!-- n5 -->
<g id="node1" class="node">
<title>n5</title>
<ellipse fill="#98D2A5" stroke="black" cx="567.73" cy="-1036.06" rx="185.94" ry="37.45"/>
<text text-anchor="middle" x="567.73" y="-1047.36" font-family="Times,serif" font-size="14.00">ha</text>
<text text-anchor="middle" x="567.73" y="-1032.36" font-family="Times,serif" font-size="14.00">vaip3s0 (root)</text>
<text text-anchor="middle" x="567.73" y="-1017.36" font-family="Times,serif" font-size="14.00">rep=no, t=no, r=no, m=yes, c=no</text>
</g>
<!-- n4 -->
<g id="node2" class="node">
<title>n4</title>
<ellipse fill="none" stroke="black" cx="181.73" cy="-925.1" rx="181.95" ry="37.45"/>
<text text-anchor="middle" x="181.73" y="-936.4" font-family="Times,serif" font-size="14.00">,</text>
<text text-anchor="middle" x="181.73" y="-921.4" font-family="Times,serif" font-size="14.00">fc (punct)</text>
<text text-anchor="middle" x="181.73" y="-906.4" font-family="Times,serif" font-size="14.00">rep=no, t=no, r=no, m=no, c=no</text>
</g>
<!-- n5&#45;&gt;n4 -->
<g id="edge1" class="edge">
<title>n5&#45;&gt;n4</title>
<path fill="none" stroke="black" d="M462,-1005.21C410.72,-990.74 349.05,-973.33 296.62,-958.53"/>
<polygon fill="black" stroke="black" points="297.52,-955.15 286.94,-955.8 295.61,-961.89 297.52,-955.15"/>
</g>
<!-- n6 -->
<g id="node3" class="node">
<title>n6</title>
<ellipse fill="#98D2A5" stroke="black" cx="567.73" cy="-925.1" rx="185.94" ry="37.45"/>
<text text-anchor="middle" x="567.73" y="-936.4" font-family="Times,serif" font-size="14.00">optado</text>
<text text-anchor="middle" x="567.73" y="-921.4" font-family="Times,serif" font-size="14.00">vmp00sm (vobj)</text>
<text text-anchor="middle" x="567.73" y="-906.4" font-family="Times,serif" font-size="14.00">rep=no, t=no, r=no, m=yes, c=no</text>
</g>
<!-- n5&#45;&gt;n6 -->
<g id="edge2" class="edge">
<title>n5&#45;&gt;n6</title>
<path fill="none" stroke="black" d="M567.73,-998.47C567.73,-990.3 567.73,-981.52 567.73,-972.99"/>
<polygon fill="black" stroke="black" points="571.23,-972.78 567.73,-962.78 564.23,-972.78 571.23,-972.78"/>
</g>
<!-- n23 -->
<g id="node4" class="node">
<title>n23</title>
<ellipse fill="none" stroke="black" cx="953.73" cy="-925.1" rx="181.95" ry="37.45"/>
<text text-anchor="middle" x="953.73" y="-936.4" font-family="Times,serif" font-size="14.00">.</text>
<text text-anchor="middle" x="953.73" y="-921.4" font-family="Times,serif" font-size="14.00">fp (punct)</text>
<text text-anchor="middle" x="953.73" y="-906.4" font-family="Times,serif" font-size="14.00">rep=no, t=no, r=no, m=no, c=no</text>
</g>
<!-- n5&#45;&gt;n23 -->
<g id="edge3" class="edge">
<title>n5&#45;&gt;n23</title>
<path fill="none" stroke="black" d="M673.46,-1005.21C724.73,-990.74 786.41,-973.33 838.83,-958.53"/>
<polygon fill="black" stroke="black" points="839.84,-961.89 848.51,-955.8 837.94,-955.15 839.84,-961.89"/>
</g>
<!-- n1 -->
<g id="node5" class="node">
<title>n1</title>
<ellipse fill="#98D2A5" stroke="black" cx="372.73" cy="-814.15" rx="185.94" ry="37.45"/>
<text text-anchor="middle" x="372.73" y="-825.45" font-family="Times,serif" font-size="14.00">Por</text>
<text text-anchor="middle" x="372.73" y="-810.45" font-family="Times,serif" font-size="14.00">sps00 (prepv)</text>
<text text-anchor="middle" x="372.73" y="-795.45" font-family="Times,serif" font-size="14.00">rep=no, t=no, r=no, m=yes, c=no</text>
</g>
<!-- n6&#45;&gt;n1 -->
<g id="edge4" class="edge">
<title>n6&#45;&gt;n1</title>
<path fill="none" stroke="black" d="M506.03,-889.63C486.1,-878.5 463.86,-866.07 443.34,-854.61"/>
<polygon fill="black" stroke="black" points="444.8,-851.41 434.36,-849.59 441.38,-857.52 444.8,-851.41"/>
</g>
<!-- n7 -->
<g id="node6" class="node">
<title>n7</title>
<ellipse fill="#98D2A5" stroke="black" cx="762.73" cy="-814.15" rx="185.94" ry="37.45"/>
<text text-anchor="middle" x="762.73" y="-825.45" font-family="Times,serif" font-size="14.00">por</text>
<text text-anchor="middle" x="762.73" y="-810.45" font-family="Times,serif" font-size="14.00">sps00 (oobj)</text>
<text text-anchor="middle" x="762.73" y="-795.45" font-family="Times,serif" font-size="14.00">rep=no, t=no, r=no, m=yes, c=no</text>
</g>
<!-- n6&#45;&gt;n7 -->
<g id="edge5" class="edge">
<title>n6&#45;&gt;n7</title>
<path fill="none" stroke="black" d="M629.43,-889.63C649.35,-878.5 671.59,-866.07 692.11,-854.61"/>
<polygon fill="black" stroke="black" points="694.07,-857.52 701.09,-849.59 690.66,-851.41 694.07,-857.52"/>
</g>
<!-- n3 -->
<g id="node7" class="node">
<title>n3</title>
<ellipse fill="#98D2A5" stroke="black" cx="372.73" cy="-703.2" rx="185.94" ry="37.45"/>
<text text-anchor="middle" x="372.73" y="-714.5" font-family="Times,serif" font-size="14.00">momento</text>
<text text-anchor="middle" x="372.73" y="-699.5" font-family="Times,serif" font-size="14.00">ncms000 (pobj)</text>
<text text-anchor="middle" x="372.73" y="-684.5" font-family="Times,serif" font-size="14.00">rep=no, t=no, r=no, m=yes, c=no</text>
</g>
<!-- n1&#45;&gt;n3 -->
<g id="edge6" class="edge">
<title>n1&#45;&gt;n3</title>
<path fill="none" stroke="black" d="M372.73,-776.57C372.73,-768.39 372.73,-759.61 372.73,-751.09"/>
<polygon fill="black" stroke="black" points="376.23,-750.87 372.73,-740.87 369.23,-750.87 376.23,-750.87"/>
</g>
<!-- n8 -->
<g id="node9" class="node">
<title>n8</title>
<ellipse fill="#98D2A5" stroke="black" cx="762.73" cy="-703.2" rx="185.94" ry="37.45"/>
<text text-anchor="middle" x="762.73" y="-714.5" font-family="Times,serif" font-size="14.00">reforzar</text>
<text text-anchor="middle" x="762.73" y="-699.5" font-family="Times,serif" font-size="14.00">vmn0000 (pobj)</text>
<text text-anchor="middle" x="762.73" y="-684.5" font-family="Times,serif" font-size="14.00">rep=no, t=no, r=no, m=yes, c=no</text>
</g>
<!-- n7&#45;&gt;n8 -->
<g id="edge8" class="edge">
<title>n7&#45;&gt;n8</title>
<path fill="none" stroke="black" d="M762.73,-776.57C762.73,-768.39 762.73,-759.61 762.73,-751.09"/>
<polygon fill="black" stroke="black" points="766.23,-750.87 762.73,-740.87 759.23,-750.87 766.23,-750.87"/>
</g>
<!-- n2 -->
<g id="node8" class="node">
<title>n2</title>
<ellipse fill="#98D2A5" stroke="black" cx="372.73" cy="-592.24" rx="185.94" ry="37.45"/>
<text text-anchor="middle" x="372.73" y="-603.54" font-family="Times,serif" font-size="14.00">el</text>
<text text-anchor="middle" x="372.73" y="-588.54" font-family="Times,serif" font-size="14.00">da0ms0 (det)</text>
<text text-anchor="middle" x="372.73" y="-573.54" font-family="Times,serif" font-size="14.00">rep=no, t=no, r=no, m=yes, c=no</text>
</g>
<!-- n3&#45;&gt;n2 -->
<g id="edge7" class="edge">
<title>n3&#45;&gt;n2</title>
<path fill="none" stroke="black" d="M372.73,-665.61C372.73,-657.44 372.73,-648.66 372.73,-640.13"/>
<polygon fill="black" stroke="black" points="376.23,-639.92 372.73,-629.92 369.23,-639.92 376.23,-639.92"/>
</g>
<!-- n10 -->
<g id="node10" class="node">
<title>n10</title>
<ellipse fill="#98D2A5" stroke="black" cx="762.73" cy="-592.24" rx="185.94" ry="37.45"/>
<text text-anchor="middle" x="762.73" y="-603.54" font-family="Times,serif" font-size="14.00">plantilla</text>
<text text-anchor="middle" x="762.73" y="-588.54" font-family="Times,serif" font-size="14.00">ncfs000 (dobj)</text>
<text text-anchor="middle" x="762.73" y="-573.54" font-family="Times,serif" font-size="14.00">rep=no, t=no, r=no, m=yes, c=no</text>
</g>
<!-- n8&#45;&gt;n10 -->
<g id="edge9" class="edge">
<title>n8&#45;&gt;n10</title>
<path fill="none" stroke="black" d="M762.73,-665.61C762.73,-657.44 762.73,-648.66 762.73,-640.13"/>
<polygon fill="black" stroke="black" points="766.23,-639.92 762.73,-629.92 759.23,-639.92 766.23,-639.92"/>
</g>
<!-- n17 -->
<g id="node11" class="node">
<title>n17</title>
<ellipse fill="#98D2A5" stroke="black" cx="1152.73" cy="-592.24" rx="185.94" ry="37.45"/>
<text text-anchor="middle" x="1152.73" y="-603.54" font-family="Times,serif" font-size="14.00">con</text>
<text text-anchor="middle" x="1152.73" y="-588.54" font-family="Times,serif" font-size="14.00">sps00 (prepv)</text>
<text text-anchor="middle" x="1152.73" y="-573.54" font-family="Times,serif" font-size="14.00">rep=no, t=no, r=no, m=yes, c=no</text>
</g>
<!-- n8&#45;&gt;n17 -->
<g id="edge10" class="edge">
<title>n8&#45;&gt;n17</title>
<path fill="none" stroke="black" d="M869.3,-672.42C921.1,-657.95 983.47,-640.53 1036.5,-625.71"/>
<polygon fill="black" stroke="black" points="1037.6,-629.04 1046.29,-622.98 1035.71,-622.3 1037.6,-629.04"/>
</g>
<!-- n9 -->
<g id="node12" class="node">
<title>n9</title>
<ellipse fill="#98D2A5" stroke="black" cx="372.73" cy="-481.29" rx="185.94" ry="37.45"/>
<text text-anchor="middle" x="372.73" y="-492.59" font-family="Times,serif" font-size="14.00">la</text>
<text text-anchor="middle" x="372.73" y="-477.59" font-family="Times,serif" font-size="14.00">da0fs0 (det)</text>
<text text-anchor="middle" x="372.73" y="-462.59" font-family="Times,serif" font-size="14.00">rep=no, t=no, r=no, m=yes, c=no</text>
</g>
<!-- n10&#45;&gt;n9 -->
<g id="edge11" class="edge">
<title>n10&#45;&gt;n9</title>
<path fill="none" stroke="black" d="M656.16,-561.47C604.35,-547 541.98,-529.57 488.95,-514.76"/>
<polygon fill="black" stroke="black" points="489.74,-511.35 479.17,-512.03 487.86,-518.09 489.74,-511.35"/>
</g>
<!-- n11 -->
<g id="node13" class="node">
<title>n11</title>
<ellipse fill="#98D2A5" stroke="black" cx="762.73" cy="-481.29" rx="185.94" ry="37.45"/>
<text text-anchor="middle" x="762.73" y="-492.59" font-family="Times,serif" font-size="14.00">de</text>
<text text-anchor="middle" x="762.73" y="-477.59" font-family="Times,serif" font-size="14.00">sps00 (prepn)</text>
<text text-anchor="middle" x="762.73" y="-462.59" font-family="Times,serif" font-size="14.00">rep=no, t=no, r=no, m=yes, c=no</text>
</g>
<!-- n10&#45;&gt;n11 -->
<g id="edge12" class="edge">
<title>n10&#45;&gt;n11</title>
<path fill="none" stroke="black" d="M762.73,-554.66C762.73,-546.49 762.73,-537.71 762.73,-529.18"/>
<polygon fill="black" stroke="black" points="766.23,-528.96 762.73,-518.96 759.23,-528.96 766.23,-528.96"/>
</g>
<!-- n18 -->
<g id="node19" class="node">
<title>n18</title>
<ellipse fill="#98D2A5" stroke="black" cx="1152.73" cy="-481.29" rx="185.94" ry="37.45"/>
<text text-anchor="middle" x="1152.73" y="-492.59" font-family="Times,serif" font-size="14.00">funcionarios</text>
<text text-anchor="middle" x="1152.73" y="-477.59" font-family="Times,serif" font-size="14.00">ncmp000 (pobj)</text>
<text text-anchor="middle" x="1152.73" y="-462.59" font-family="Times,serif" font-size="14.00">rep=no, t=no, r=no, m=yes, c=no</text>
</g>
<!-- n17&#45;&gt;n18 -->
<g id="edge18" class="edge">
<title>n17&#45;&gt;n18</title>
<path fill="none" stroke="black" d="M1152.73,-554.66C1152.73,-546.49 1152.73,-537.71 1152.73,-529.18"/>
<polygon fill="black" stroke="black" points="1156.23,-528.96 1152.73,-518.96 1149.23,-528.96 1156.23,-528.96"/>
</g>
<!-- n13 -->
<g id="node14" class="node">
<title>n13</title>
<ellipse fill="#98D2A5" stroke="black" cx="762.73" cy="-370.34" rx="185.94" ry="37.45"/>
<text text-anchor="middle" x="762.73" y="-381.64" font-family="Times,serif" font-size="14.00">cárcel</text>
<text text-anchor="middle" x="762.73" y="-366.64" font-family="Times,serif" font-size="14.00">ncfs000 (pobj)</text>
<text text-anchor="middle" x="762.73" y="-351.64" font-family="Times,serif" font-size="14.00">rep=no, t=no, r=no, m=yes, c=no</text>
</g>
<!-- n11&#45;&gt;n13 -->
<g id="edge13" class="edge">
<title>n11&#45;&gt;n13</title>
<path fill="none" stroke="black" d="M762.73,-443.71C762.73,-435.53 762.73,-426.75 762.73,-418.23"/>
<polygon fill="black" stroke="black" points="766.23,-418.01 762.73,-408.01 759.23,-418.01 766.23,-418.01"/>
</g>
<!-- n12 -->
<g id="node15" class="node">
<title>n12</title>
<ellipse fill="#98D2A5" stroke="black" cx="372.73" cy="-259.38" rx="185.94" ry="37.45"/>
<text text-anchor="middle" x="372.73" y="-270.68" font-family="Times,serif" font-size="14.00">la</text>
<text text-anchor="middle" x="372.73" y="-255.68" font-family="Times,serif" font-size="14.00">da0fs0 (det)</text>
<text text-anchor="middle" x="372.73" y="-240.68" font-family="Times,serif" font-size="14.00">rep=no, t=no, r=no, m=yes, c=no</text>
</g>
<!-- n13&#45;&gt;n12 -->
<g id="edge14" class="edge">
<title>n13&#45;&gt;n12</title>
<path fill="none" stroke="black" d="M656.16,-339.56C604.35,-325.09 541.98,-307.67 488.95,-292.85"/>
<polygon fill="black" stroke="black" points="489.74,-289.44 479.17,-290.12 487.86,-296.18 489.74,-289.44"/>
</g>
<!-- n14 -->
<g id="node16" class="node">
<title>n14</title>
<ellipse fill="#98D2A5" stroke="black" cx="762.73" cy="-259.38" rx="185.94" ry="37.45"/>
<text text-anchor="middle" x="762.73" y="-270.68" font-family="Times,serif" font-size="14.00">de</text>
<text text-anchor="middle" x="762.73" y="-255.68" font-family="Times,serif" font-size="14.00">sps00 (prepn)</text>
<text text-anchor="middle" x="762.73" y="-240.68" font-family="Times,serif" font-size="14.00">rep=no, t=no, r=no, m=yes, c=no</text>
</g>
<!-- n13&#45;&gt;n14 -->
<g id="edge15" class="edge">
<title>n13&#45;&gt;n14</title>
<path fill="none" stroke="black" d="M762.73,-332.75C762.73,-324.58 762.73,-315.8 762.73,-307.27"/>
<polygon fill="black" stroke="black" points="766.23,-307.06 762.73,-297.06 759.23,-307.06 766.23,-307.06"/>
</g>
<!-- n16 -->
<g id="node17" class="node">
<title>n16</title>
<ellipse fill="#98D2A5" stroke="black" cx="762.73" cy="-148.43" rx="185.94" ry="37.45"/>
<text text-anchor="middle" x="762.73" y="-159.73" font-family="Times,serif" font-size="14.00">Roca</text>
<text text-anchor="middle" x="762.73" y="-144.73" font-family="Times,serif" font-size="14.00">np0000o (pobj)</text>
<text text-anchor="middle" x="762.73" y="-129.73" font-family="Times,serif" font-size="14.00">rep=no, t=no, r=no, m=yes, c=no</text>
</g>
<!-- n14&#45;&gt;n16 -->
<g id="edge16" class="edge">
<title>n14&#45;&gt;n16</title>
<path fill="none" stroke="black" d="M762.73,-221.8C762.73,-213.63 762.73,-204.85 762.73,-196.32"/>
<polygon fill="black" stroke="black" points="766.23,-196.1 762.73,-186.1 759.23,-196.1 766.23,-196.1"/>
</g>
<!-- n15 -->
<g id="node18" class="node">
<title>n15</title>
<ellipse fill="#98D2A5" stroke="black" cx="762.73" cy="-37.48" rx="185.94" ry="37.45"/>
<text text-anchor="middle" x="762.73" y="-48.78" font-family="Times,serif" font-size="14.00">La</text>
<text text-anchor="middle" x="762.73" y="-33.78" font-family="Times,serif" font-size="14.00">da0ms0 (det)</text>
<text text-anchor="middle" x="762.73" y="-18.78" font-family="Times,serif" font-size="14.00">rep=no, t=no, r=no, m=yes, c=no</text>
</g>
<!-- n16&#45;&gt;n15 -->
<g id="edge17" class="edge">
<title>n16&#45;&gt;n15</title>
<path fill="none" stroke="black" d="M762.73,-110.85C762.73,-102.67 762.73,-93.89 762.73,-85.37"/>
<polygon fill="black" stroke="black" points="766.23,-85.15 762.73,-75.15 759.23,-85.15 766.23,-85.15"/>
</g>
<!-- n19 -->
<g id="node20" class="node">
<title>n19</title>
<ellipse fill="#98D2A5" stroke="black" cx="1152.73" cy="-370.34" rx="185.94" ry="37.45"/>
<text text-anchor="middle" x="1152.73" y="-381.64" font-family="Times,serif" font-size="14.00">del</text>
<text text-anchor="middle" x="1152.73" y="-366.64" font-family="Times,serif" font-size="14.00">spcms (prepn)</text>
<text text-anchor="middle" x="1152.73" y="-351.64" font-family="Times,serif" font-size="14.00">rep=no, t=no, r=no, m=yes, c=no</text>
</g>
<!-- n18&#45;&gt;n19 -->
<g id="edge19" class="edge">
<title>n18&#45;&gt;n19</title>
<path fill="none" stroke="black" d="M1152.73,-443.71C1152.73,-435.53 1152.73,-426.75 1152.73,-418.23"/>
<polygon fill="black" stroke="black" points="1156.23,-418.01 1152.73,-408.01 1149.23,-418.01 1156.23,-418.01"/>
</g>
<!-- n20 -->
<g id="node21" class="node">
<title>n20</title>
<ellipse fill="#98D2A5" stroke="black" cx="1152.73" cy="-259.38" rx="185.94" ry="37.45"/>
<text text-anchor="middle" x="1152.73" y="-270.68" font-family="Times,serif" font-size="14.00">resto</text>
<text text-anchor="middle" x="1152.73" y="-255.68" font-family="Times,serif" font-size="14.00">ncms000 (pobj)</text>
<text text-anchor="middle" x="1152.73" y="-240.68" font-family="Times,serif" font-size="14.00">rep=no, t=no, r=no, m=yes, c=no</text>
</g>
<!-- n19&#45;&gt;n20 -->
<g id="edge20" class="edge">
<title>n19&#45;&gt;n20</title>
<path fill="none" stroke="black" d="M1152.73,-332.75C1152.73,-324.58 1152.73,-315.8 1152.73,-307.27"/>
<polygon fill="black" stroke="black" points="1156.23,-307.06 1152.73,-297.06 1149.23,-307.06 1156.23,-307.06"/>
</g>
<!-- n21 -->
<g id="node22" class="node">
<title>n21</title>
<ellipse fill="#98D2A5" stroke="black" cx="1152.73" cy="-148.43" rx="185.94" ry="37.45"/>
<text text-anchor="middle" x="1152.73" y="-159.73" font-family="Times,serif" font-size="14.00">de</text>
<text text-anchor="middle" x="1152.73" y="-144.73" font-family="Times,serif" font-size="14.00">sps00 (prepn)</text>
<text text-anchor="middle" x="1152.73" y="-129.73" font-family="Times,serif" font-size="14.00">rep=no, t=no, r=no, m=yes, c=no</text>
</g>
<!-- n20&#45;&gt;n21 -->
<g id="edge21" class="edge">
<title>n20&#45;&gt;n21</title>
<path fill="none" stroke="black" d="M1152.73,-221.8C1152.73,-213.63 1152.73,-204.85 1152.73,-196.32"/>
<polygon fill="black" stroke="black" points="1156.23,-196.1 1152.73,-186.1 1149.23,-196.1 1156.23,-196.1"/>
</g>
<!-- n22 -->
<g id="node23" class="node">
<title>n22</title>
<ellipse fill="#98D2A5" stroke="black" cx="1152.73" cy="-37.48" rx="185.94" ry="37.45"/>
<text text-anchor="middle" x="1152.73" y="-48.78" font-family="Times,serif" font-size="14.00">centros</text>
<text text-anchor="middle" x="1152.73" y="-33.78" font-family="Times,serif" font-size="14.00">ncmp000 (pobj)</text>
<text text-anchor="middle" x="1152.73" y="-18.78" font-family="Times,serif" font-size="14.00">rep=no, t=no, r=no, m=yes, c=no</text>
</g>
<!-- n21&#45;&gt;n22 -->
<g id="edge22" class="edge">
<title>n21&#45;&gt;n22</title>
<path fill="none" stroke="black" d="M1152.73,-110.85C1152.73,-102.67 1152.73,-93.89 1152.73,-85.37"/>
<polygon fill="black" stroke="black" points="1156.23,-85.15 1152.73,-75.15 1149.23,-85.15 1156.23,-85.15"/>
</g>
</g>
</svg>
