<?xml version="1.0" encoding="UTF-8" standalone="no"?>
<!DOCTYPE svg PUBLIC "-//W3C//DTD SVG 1.1//EN"
 "http://www.w3.org/Graphics/SVG/1.1/DTD/svg11.dtd">
<!-- Generated by graphviz version 2.43.0 (0)
 -->
<!-- Title: tree Pages: 1 -->
<svg width="4820pt" height="971pt"
 viewBox="0.00 0.00 4819.84 970.58" xmlns="http://www.w3.org/2000/svg" xmlns:xlink="http://www.w3.org/1999/xlink">
<g id="graph0" class="graph" transform="scale(1 1) rotate(0) translate(4 966.58)">
<title>tree</title>
<polygon fill="white" stroke="transparent" points="-4,4 -4,-966.58 4815.84,-966.58 4815.84,4 -4,4"/>
<!-- n14 -->
<g id="node1" class="node">
<title>n14</title>
<ellipse fill="#98D2A5" stroke="black" cx="2412.92" cy="-925.1" rx="190.84" ry="37.45"/>
<text text-anchor="middle" x="2412.92" y="-936.4" font-family="Times,serif" font-size="14.00">piden</text>
<text text-anchor="middle" x="2412.92" y="-921.4" font-family="Times,serif" font-size="14.00">vmip3p0 (root)</text>
<text text-anchor="middle" x="2412.92" y="-906.4" font-family="Times,serif" font-size="14.00">rep=no, t=no, r=yes, m=yes, c=no</text>
</g>
<!-- n2 -->
<g id="node2" class="node">
<title>n2</title>
<ellipse fill="#98D2A5" stroke="black" cx="590.92" cy="-814.15" rx="195.74" ry="37.45"/>
<text text-anchor="middle" x="590.92" y="-825.45" font-family="Times,serif" font-size="14.00">obispo</text>
<text text-anchor="middle" x="590.92" y="-810.45" font-family="Times,serif" font-size="14.00">ncms000 (nsubj)</text>
<text text-anchor="middle" x="590.92" y="-795.45" font-family="Times,serif" font-size="14.00">rep=no, t=yes, r=no, m=yes, c=yes</text>
</g>
<!-- n14&#45;&gt;n2 -->
<g id="edge1" class="edge">
<title>n14&#45;&gt;n2</title>
<path fill="none" stroke="black" d="M2231.56,-913.26C1887.31,-892.67 1141.93,-848.1 786.76,-826.86"/>
<polygon fill="black" stroke="black" points="786.82,-823.36 776.63,-826.26 786.4,-830.35 786.82,-823.36"/>
</g>
<!-- n5 -->
<g id="node3" class="node">
<title>n5</title>
<ellipse fill="#98D2A5" stroke="black" cx="1805.92" cy="-814.15" rx="190.84" ry="37.45"/>
<text text-anchor="middle" x="1805.92" y="-825.45" font-family="Times,serif" font-size="14.00">y</text>
<text text-anchor="middle" x="1805.92" y="-810.45" font-family="Times,serif" font-size="14.00">cc (coord_fixed)</text>
<text text-anchor="middle" x="1805.92" y="-795.45" font-family="Times,serif" font-size="14.00">rep=no, t=yes, r=no, m=yes, c=no</text>
</g>
<!-- n14&#45;&gt;n5 -->
<g id="edge2" class="edge">
<title>n14&#45;&gt;n5</title>
<path fill="none" stroke="black" d="M2273.5,-899.42C2194.9,-885.47 2094.92,-867.67 2005.92,-851.63 1988.77,-848.54 1970.8,-845.28 1952.97,-842.04"/>
<polygon fill="black" stroke="black" points="1953.54,-838.59 1943.08,-840.24 1952.29,-845.48 1953.54,-838.59"/>
</g>
<!-- n7 -->
<g id="node4" class="node">
<title>n7</title>
<ellipse fill="#98D2A5" stroke="black" cx="2210.92" cy="-814.15" rx="195.74" ry="37.45"/>
<text text-anchor="middle" x="2210.92" y="-825.45" font-family="Times,serif" font-size="14.00">de</text>
<text text-anchor="middle" x="2210.92" y="-810.45" font-family="Times,serif" font-size="14.00">sps00 (nsubj)</text>
<text text-anchor="middle" x="2210.92" y="-795.45" font-family="Times,serif" font-size="14.00">rep=no, t=yes, r=no, m=yes, c=yes</text>
</g>
<!-- n14&#45;&gt;n7 -->
<g id="edge3" class="edge">
<title>n14&#45;&gt;n7</title>
<path fill="none" stroke="black" d="M2349,-889.63C2328.27,-878.45 2305.12,-865.96 2283.78,-854.45"/>
<polygon fill="black" stroke="black" points="2285.23,-851.25 2274.76,-849.59 2281.9,-857.41 2285.23,-851.25"/>
</g>
<!-- n15 -->
<g id="node5" class="node">
<title>n15</title>
<ellipse fill="#98D2A5" stroke="black" cx="2817.92" cy="-814.15" rx="190.84" ry="37.45"/>
<text text-anchor="middle" x="2817.92" y="-825.45" font-family="Times,serif" font-size="14.00">a</text>
<text text-anchor="middle" x="2817.92" y="-810.45" font-family="Times,serif" font-size="14.00">sps00 (iobj)</text>
<text text-anchor="middle" x="2817.92" y="-795.45" font-family="Times,serif" font-size="14.00">rep=no, t=no, r=yes, m=yes, c=no</text>
</g>
<!-- n14&#45;&gt;n15 -->
<g id="edge4" class="edge">
<title>n14&#45;&gt;n15</title>
<path fill="none" stroke="black" d="M2523.05,-894.48C2577.19,-879.91 2642.54,-862.33 2697.94,-847.43"/>
<polygon fill="black" stroke="black" points="2699.06,-850.75 2707.81,-844.77 2697.24,-843.99 2699.06,-850.75"/>
</g>
<!-- n26 -->
<g id="node6" class="node">
<title>n26</title>
<ellipse fill="#98D2A5" stroke="black" cx="3318.92" cy="-814.15" rx="190.84" ry="37.45"/>
<text text-anchor="middle" x="3318.92" y="-825.45" font-family="Times,serif" font-size="14.00">y</text>
<text text-anchor="middle" x="3318.92" y="-810.45" font-family="Times,serif" font-size="14.00">cc (coord_fixed)</text>
<text text-anchor="middle" x="3318.92" y="-795.45" font-family="Times,serif" font-size="14.00">rep=no, t=no, r=yes, m=yes, c=no</text>
</g>
<!-- n14&#45;&gt;n26 -->
<g id="edge5" class="edge">
<title>n14&#45;&gt;n26</title>
<path fill="none" stroke="black" d="M2573.74,-904.9C2695.66,-890.32 2867.34,-869.77 3017.92,-851.63 3060.34,-846.51 3106.13,-840.98 3148.88,-835.8"/>
<polygon fill="black" stroke="black" points="3149.3,-839.27 3158.81,-834.59 3148.46,-832.32 3149.3,-839.27"/>
</g>
<!-- n35 -->
<g id="node7" class="node">
<title>n35</title>
<ellipse fill="none" stroke="black" cx="3709.92" cy="-814.15" rx="181.95" ry="37.45"/>
<text text-anchor="middle" x="3709.92" y="-825.45" font-family="Times,serif" font-size="14.00">.</text>
<text text-anchor="middle" x="3709.92" y="-810.45" font-family="Times,serif" font-size="14.00">fp (punct)</text>
<text text-anchor="middle" x="3709.92" y="-795.45" font-family="Times,serif" font-size="14.00">rep=no, t=no, r=no, m=no, c=no</text>
</g>
<!-- n14&#45;&gt;n35 -->
<g id="edge6" class="edge">
<title>n14&#45;&gt;n35</title>
<path fill="none" stroke="black" d="M2601.46,-918.82C2822.14,-911.01 3198.25,-892.59 3518.92,-851.63 3537.01,-849.31 3555.98,-846.35 3574.64,-843.12"/>
<polygon fill="black" stroke="black" points="3575.43,-846.54 3584.67,-841.35 3574.22,-839.64 3575.43,-846.54"/>
</g>
<!-- n1 -->
<g id="node8" class="node">
<title>n1</title>
<ellipse fill="#98D2A5" stroke="black" cx="190.92" cy="-703.2" rx="190.84" ry="37.45"/>
<text text-anchor="middle" x="190.92" y="-714.5" font-family="Times,serif" font-size="14.00">El</text>
<text text-anchor="middle" x="190.92" y="-699.5" font-family="Times,serif" font-size="14.00">da0ms0 (det)</text>
<text text-anchor="middle" x="190.92" y="-684.5" font-family="Times,serif" font-size="14.00">rep=no, t=yes, r=no, m=yes, c=no</text>
</g>
<!-- n2&#45;&gt;n1 -->
<g id="edge7" class="edge">
<title>n2&#45;&gt;n1</title>
<path fill="none" stroke="black" d="M480.56,-783.09C427.66,-768.68 364.21,-751.4 310.2,-736.69"/>
<polygon fill="black" stroke="black" points="310.8,-733.22 300.23,-733.97 308.96,-739.98 310.8,-733.22"/>
</g>
<!-- n3 -->
<g id="node9" class="node">
<title>n3</title>
<ellipse fill="#98D2A5" stroke="black" cx="590.92" cy="-703.2" rx="190.84" ry="37.45"/>
<text text-anchor="middle" x="590.92" y="-714.5" font-family="Times,serif" font-size="14.00">de</text>
<text text-anchor="middle" x="590.92" y="-699.5" font-family="Times,serif" font-size="14.00">sps00 (prepn)</text>
<text text-anchor="middle" x="590.92" y="-684.5" font-family="Times,serif" font-size="14.00">rep=no, t=yes, r=no, m=yes, c=no</text>
</g>
<!-- n2&#45;&gt;n3 -->
<g id="edge8" class="edge">
<title>n2&#45;&gt;n3</title>
<path fill="none" stroke="black" d="M590.92,-776.57C590.92,-768.39 590.92,-759.61 590.92,-751.09"/>
<polygon fill="black" stroke="black" points="594.42,-750.87 590.92,-740.87 587.42,-750.87 594.42,-750.87"/>
</g>
<!-- n6 -->
<g id="node11" class="node">
<title>n6</title>
<ellipse fill="#98D2A5" stroke="black" cx="990.92" cy="-703.2" rx="190.84" ry="37.45"/>
<text text-anchor="middle" x="990.92" y="-714.5" font-family="Times,serif" font-size="14.00">los</text>
<text text-anchor="middle" x="990.92" y="-699.5" font-family="Times,serif" font-size="14.00">da0mp0 (pobj)</text>
<text text-anchor="middle" x="990.92" y="-684.5" font-family="Times,serif" font-size="14.00">rep=no, t=yes, r=no, m=yes, c=no</text>
</g>
<!-- n7&#45;&gt;n6 -->
<g id="edge10" class="edge">
<title>n7&#45;&gt;n6</title>
<path fill="none" stroke="black" d="M2077.03,-786.71C2053.41,-782.79 2029,-779.23 2005.92,-776.67 1645.54,-736.83 1551.21,-781.29 1190.92,-740.67 1171.57,-738.49 1151.27,-735.56 1131.32,-732.29"/>
<polygon fill="black" stroke="black" points="1131.69,-728.81 1121.25,-730.61 1130.54,-735.71 1131.69,-728.81"/>
</g>
<!-- n8 -->
<g id="node12" class="node">
<title>n8</title>
<ellipse fill="#98D2A5" stroke="black" cx="1395.92" cy="-703.2" rx="195.74" ry="37.45"/>
<text text-anchor="middle" x="1395.92" y="-714.5" font-family="Times,serif" font-size="14.00">Bilbao</text>
<text text-anchor="middle" x="1395.92" y="-699.5" font-family="Times,serif" font-size="14.00">np00000 (pobj)</text>
<text text-anchor="middle" x="1395.92" y="-684.5" font-family="Times,serif" font-size="14.00">rep=no, t=yes, r=no, m=yes, c=yes</text>
</g>
<!-- n7&#45;&gt;n8 -->
<g id="edge11" class="edge">
<title>n7&#45;&gt;n8</title>
<path fill="none" stroke="black" d="M2074.72,-787.2C2051.8,-783.33 2028.22,-779.64 2005.92,-776.67 1826.79,-752.82 1780.05,-764.52 1600.92,-740.67 1581.84,-738.13 1561.82,-735.07 1542.09,-731.81"/>
<polygon fill="black" stroke="black" points="1542.56,-728.34 1532.12,-730.15 1541.41,-735.25 1542.56,-728.34"/>
</g>
<!-- n10 -->
<g id="node13" class="node">
<title>n10</title>
<ellipse fill="#98D2A5" stroke="black" cx="1805.92" cy="-703.2" rx="195.74" ry="37.45"/>
<text text-anchor="middle" x="1805.92" y="-714.5" font-family="Times,serif" font-size="14.00">San</text>
<text text-anchor="middle" x="1805.92" y="-699.5" font-family="Times,serif" font-size="14.00">np0000l (pobj)</text>
<text text-anchor="middle" x="1805.92" y="-684.5" font-family="Times,serif" font-size="14.00">rep=no, t=yes, r=no, m=yes, c=yes</text>
</g>
<!-- n7&#45;&gt;n10 -->
<g id="edge12" class="edge">
<title>n7&#45;&gt;n10</title>
<path fill="none" stroke="black" d="M2099.72,-783.23C2046.14,-768.82 1981.79,-751.51 1926.99,-736.77"/>
<polygon fill="black" stroke="black" points="1927.79,-733.36 1917.23,-734.14 1925.97,-740.12 1927.79,-733.36"/>
</g>
<!-- n12 -->
<g id="node14" class="node">
<title>n12</title>
<ellipse fill="#98D2A5" stroke="black" cx="2210.92" cy="-703.2" rx="190.84" ry="37.45"/>
<text text-anchor="middle" x="2210.92" y="-714.5" font-family="Times,serif" font-size="14.00">y</text>
<text text-anchor="middle" x="2210.92" y="-699.5" font-family="Times,serif" font-size="14.00">cc (coord_fixed)</text>
<text text-anchor="middle" x="2210.92" y="-684.5" font-family="Times,serif" font-size="14.00">rep=no, t=yes, r=no, m=yes, c=no</text>
</g>
<!-- n7&#45;&gt;n12 -->
<g id="edge13" class="edge">
<title>n7&#45;&gt;n12</title>
<path fill="none" stroke="black" d="M2210.92,-776.57C2210.92,-768.39 2210.92,-759.61 2210.92,-751.09"/>
<polygon fill="black" stroke="black" points="2214.42,-750.87 2210.92,-740.87 2207.42,-750.87 2214.42,-750.87"/>
</g>
<!-- n13 -->
<g id="node15" class="node">
<title>n13</title>
<ellipse fill="#98D2A5" stroke="black" cx="2615.92" cy="-703.2" rx="195.74" ry="37.45"/>
<text text-anchor="middle" x="2615.92" y="-714.5" font-family="Times,serif" font-size="14.00">Vitoria</text>
<text text-anchor="middle" x="2615.92" y="-699.5" font-family="Times,serif" font-size="14.00">np00000 (pobj)</text>
<text text-anchor="middle" x="2615.92" y="-684.5" font-family="Times,serif" font-size="14.00">rep=no, t=yes, r=no, m=yes, c=yes</text>
</g>
<!-- n7&#45;&gt;n13 -->
<g id="edge14" class="edge">
<title>n7&#45;&gt;n13</title>
<path fill="none" stroke="black" d="M2322.12,-783.23C2375.69,-768.82 2440.04,-751.51 2494.85,-736.77"/>
<polygon fill="black" stroke="black" points="2495.86,-740.12 2504.61,-734.14 2494.05,-733.36 2495.86,-740.12"/>
</g>
<!-- n16 -->
<g id="node18" class="node">
<title>n16</title>
<ellipse fill="#98D2A5" stroke="black" cx="3020.92" cy="-703.2" rx="190.84" ry="37.45"/>
<text text-anchor="middle" x="3020.92" y="-714.5" font-family="Times,serif" font-size="14.00">ETA</text>
<text text-anchor="middle" x="3020.92" y="-699.5" font-family="Times,serif" font-size="14.00">np00000 (pobj)</text>
<text text-anchor="middle" x="3020.92" y="-684.5" font-family="Times,serif" font-size="14.00">rep=no, t=no, r=yes, m=yes, c=no</text>
</g>
<!-- n15&#45;&gt;n16 -->
<g id="edge17" class="edge">
<title>n15&#45;&gt;n16</title>
<path fill="none" stroke="black" d="M2881.87,-778.83C2902.91,-767.53 2926.46,-754.89 2948.11,-743.27"/>
<polygon fill="black" stroke="black" points="2949.78,-746.35 2956.94,-738.54 2946.47,-740.18 2949.78,-746.35"/>
</g>
<!-- n17 -->
<g id="node19" class="node">
<title>n17</title>
<ellipse fill="#98D2A5" stroke="black" cx="3420.92" cy="-703.2" rx="190.84" ry="37.45"/>
<text text-anchor="middle" x="3420.92" y="-714.5" font-family="Times,serif" font-size="14.00">que</text>
<text text-anchor="middle" x="3420.92" y="-699.5" font-family="Times,serif" font-size="14.00">cs (conj)</text>
<text text-anchor="middle" x="3420.92" y="-684.5" font-family="Times,serif" font-size="14.00">rep=no, t=no, r=yes, m=yes, c=no</text>
</g>
<!-- n26&#45;&gt;n17 -->
<g id="edge18" class="edge">
<title>n26&#45;&gt;n17</title>
<path fill="none" stroke="black" d="M3352.6,-777.17C3361.48,-767.69 3371.15,-757.36 3380.35,-747.53"/>
<polygon fill="black" stroke="black" points="3382.99,-749.83 3387.27,-740.14 3377.88,-745.04 3382.99,-749.83"/>
</g>
<!-- n27 -->
<g id="node20" class="node">
<title>n27</title>
<ellipse fill="#98D2A5" stroke="black" cx="3820.92" cy="-703.2" rx="190.84" ry="37.45"/>
<text text-anchor="middle" x="3820.92" y="-714.5" font-family="Times,serif" font-size="14.00">que</text>
<text text-anchor="middle" x="3820.92" y="-699.5" font-family="Times,serif" font-size="14.00">cs (conj)</text>
<text text-anchor="middle" x="3820.92" y="-684.5" font-family="Times,serif" font-size="14.00">rep=no, t=no, r=yes, m=yes, c=no</text>
</g>
<!-- n26&#45;&gt;n27 -->
<g id="edge19" class="edge">
<title>n26&#45;&gt;n27</title>
<path fill="none" stroke="black" d="M3444.62,-785.87C3517.86,-769.97 3610.24,-749.92 3685.14,-733.67"/>
<polygon fill="black" stroke="black" points="3686.09,-737.04 3695.12,-731.5 3684.6,-730.2 3686.09,-737.04"/>
</g>
<!-- n4 -->
<g id="node10" class="node">
<title>n4</title>
<ellipse fill="#98D2A5" stroke="black" cx="590.92" cy="-592.24" rx="190.84" ry="37.45"/>
<text text-anchor="middle" x="590.92" y="-603.54" font-family="Times,serif" font-size="14.00">Pamplona</text>
<text text-anchor="middle" x="590.92" y="-588.54" font-family="Times,serif" font-size="14.00">np00000 (pobj)</text>
<text text-anchor="middle" x="590.92" y="-573.54" font-family="Times,serif" font-size="14.00">rep=no, t=yes, r=no, m=yes, c=no</text>
</g>
<!-- n3&#45;&gt;n4 -->
<g id="edge9" class="edge">
<title>n3&#45;&gt;n4</title>
<path fill="none" stroke="black" d="M590.92,-665.61C590.92,-657.44 590.92,-648.66 590.92,-640.13"/>
<polygon fill="black" stroke="black" points="594.42,-639.92 590.92,-629.92 587.42,-639.92 594.42,-639.92"/>
</g>
<!-- n11 -->
<g id="node16" class="node">
<title>n11</title>
<ellipse fill="#98D2A5" stroke="black" cx="1805.92" cy="-592.24" rx="190.84" ry="37.45"/>
<text text-anchor="middle" x="1805.92" y="-603.54" font-family="Times,serif" font-size="14.00">Sebastián</text>
<text text-anchor="middle" x="1805.92" y="-588.54" font-family="Times,serif" font-size="14.00">np0000l (appos)</text>
<text text-anchor="middle" x="1805.92" y="-573.54" font-family="Times,serif" font-size="14.00">rep=no, t=yes, r=no, m=yes, c=no</text>
</g>
<!-- n10&#45;&gt;n11 -->
<g id="edge15" class="edge">
<title>n10&#45;&gt;n11</title>
<path fill="none" stroke="black" d="M1805.92,-665.61C1805.92,-657.44 1805.92,-648.66 1805.92,-640.13"/>
<polygon fill="black" stroke="black" points="1809.42,-639.92 1805.92,-629.92 1802.42,-639.92 1809.42,-639.92"/>
</g>
<!-- n9 -->
<g id="node17" class="node">
<title>n9</title>
<ellipse fill="#98D2A5" stroke="black" cx="2210.92" cy="-592.24" rx="190.84" ry="37.45"/>
<text text-anchor="middle" x="2210.92" y="-603.54" font-family="Times,serif" font-size="14.00">,</text>
<text text-anchor="middle" x="2210.92" y="-588.54" font-family="Times,serif" font-size="14.00">fc (punct)</text>
<text text-anchor="middle" x="2210.92" y="-573.54" font-family="Times,serif" font-size="14.00">rep=no, t=yes, r=no, m=yes, c=no</text>
</g>
<!-- n12&#45;&gt;n9 -->
<g id="edge16" class="edge">
<title>n12&#45;&gt;n9</title>
<path fill="none" stroke="black" d="M2210.92,-665.61C2210.92,-657.44 2210.92,-648.66 2210.92,-640.13"/>
<polygon fill="black" stroke="black" points="2214.42,-639.92 2210.92,-629.92 2207.42,-639.92 2214.42,-639.92"/>
</g>
<!-- n19 -->
<g id="node21" class="node">
<title>n19</title>
<ellipse fill="#98D2A5" stroke="black" cx="3420.92" cy="-592.24" rx="190.84" ry="37.45"/>
<text text-anchor="middle" x="3420.92" y="-603.54" font-family="Times,serif" font-size="14.00">replantee</text>
<text text-anchor="middle" x="3420.92" y="-588.54" font-family="Times,serif" font-size="14.00">vmsp3s0 (cobj)</text>
<text text-anchor="middle" x="3420.92" y="-573.54" font-family="Times,serif" font-size="14.00">rep=no, t=no, r=yes, m=yes, c=no</text>
</g>
<!-- n17&#45;&gt;n19 -->
<g id="edge20" class="edge">
<title>n17&#45;&gt;n19</title>
<path fill="none" stroke="black" d="M3420.92,-665.61C3420.92,-657.44 3420.92,-648.66 3420.92,-640.13"/>
<polygon fill="black" stroke="black" points="3424.42,-639.92 3420.92,-629.92 3417.42,-639.92 3424.42,-639.92"/>
</g>
<!-- n28 -->
<g id="node29" class="node">
<title>n28</title>
<ellipse fill="#98D2A5" stroke="black" cx="3820.92" cy="-592.24" rx="190.84" ry="37.45"/>
<text text-anchor="middle" x="3820.92" y="-603.54" font-family="Times,serif" font-size="14.00">anuncie</text>
<text text-anchor="middle" x="3820.92" y="-588.54" font-family="Times,serif" font-size="14.00">vmsp3s0 (cobj)</text>
<text text-anchor="middle" x="3820.92" y="-573.54" font-family="Times,serif" font-size="14.00">rep=no, t=no, r=yes, m=yes, c=no</text>
</g>
<!-- n27&#45;&gt;n28 -->
<g id="edge28" class="edge">
<title>n27&#45;&gt;n28</title>
<path fill="none" stroke="black" d="M3820.92,-665.61C3820.92,-657.44 3820.92,-648.66 3820.92,-640.13"/>
<polygon fill="black" stroke="black" points="3824.42,-639.92 3820.92,-629.92 3817.42,-639.92 3824.42,-639.92"/>
</g>
<!-- n18 -->
<g id="node22" class="node">
<title>n18</title>
<ellipse fill="#98D2A5" stroke="black" cx="3020.92" cy="-481.29" rx="190.84" ry="37.45"/>
<text text-anchor="middle" x="3020.92" y="-492.59" font-family="Times,serif" font-size="14.00">se</text>
<text text-anchor="middle" x="3020.92" y="-477.59" font-family="Times,serif" font-size="14.00">p0300000 (reflec)</text>
<text text-anchor="middle" x="3020.92" y="-462.59" font-family="Times,serif" font-size="14.00">rep=no, t=no, r=yes, m=yes, c=no</text>
</g>
<!-- n19&#45;&gt;n18 -->
<g id="edge21" class="edge">
<title>n19&#45;&gt;n18</title>
<path fill="none" stroke="black" d="M3311.62,-561.47C3258.48,-547 3194.51,-529.57 3140.12,-514.76"/>
<polygon fill="black" stroke="black" points="3141,-511.37 3130.44,-512.12 3139.16,-518.13 3141,-511.37"/>
</g>
<!-- n21 -->
<g id="node23" class="node">
<title>n21</title>
<ellipse fill="#98D2A5" stroke="black" cx="3420.92" cy="-481.29" rx="190.84" ry="37.45"/>
<text text-anchor="middle" x="3420.92" y="-492.59" font-family="Times,serif" font-size="14.00">decisión</text>
<text text-anchor="middle" x="3420.92" y="-477.59" font-family="Times,serif" font-size="14.00">ncfs000 (dobj)</text>
<text text-anchor="middle" x="3420.92" y="-462.59" font-family="Times,serif" font-size="14.00">rep=no, t=no, r=yes, m=yes, c=no</text>
</g>
<!-- n19&#45;&gt;n21 -->
<g id="edge22" class="edge">
<title>n19&#45;&gt;n21</title>
<path fill="none" stroke="black" d="M3420.92,-554.66C3420.92,-546.49 3420.92,-537.71 3420.92,-529.18"/>
<polygon fill="black" stroke="black" points="3424.42,-528.96 3420.92,-518.96 3417.42,-528.96 3424.42,-528.96"/>
</g>
<!-- n20 -->
<g id="node24" class="node">
<title>n20</title>
<ellipse fill="#98D2A5" stroke="black" cx="3420.92" cy="-370.34" rx="190.84" ry="37.45"/>
<text text-anchor="middle" x="3420.92" y="-381.64" font-family="Times,serif" font-size="14.00">su</text>
<text text-anchor="middle" x="3420.92" y="-366.64" font-family="Times,serif" font-size="14.00">dp3cs0 (poss)</text>
<text text-anchor="middle" x="3420.92" y="-351.64" font-family="Times,serif" font-size="14.00">rep=no, t=no, r=yes, m=yes, c=no</text>
</g>
<!-- n21&#45;&gt;n20 -->
<g id="edge23" class="edge">
<title>n21&#45;&gt;n20</title>
<path fill="none" stroke="black" d="M3420.92,-443.71C3420.92,-435.53 3420.92,-426.75 3420.92,-418.23"/>
<polygon fill="black" stroke="black" points="3424.42,-418.01 3420.92,-408.01 3417.42,-418.01 3424.42,-418.01"/>
</g>
<!-- n22 -->
<g id="node25" class="node">
<title>n22</title>
<ellipse fill="#98D2A5" stroke="black" cx="3820.92" cy="-370.34" rx="190.84" ry="37.45"/>
<text text-anchor="middle" x="3820.92" y="-381.64" font-family="Times,serif" font-size="14.00">de</text>
<text text-anchor="middle" x="3820.92" y="-366.64" font-family="Times,serif" font-size="14.00">sps00 (prepn)</text>
<text text-anchor="middle" x="3820.92" y="-351.64" font-family="Times,serif" font-size="14.00">rep=no, t=no, r=yes, m=yes, c=no</text>
</g>
<!-- n21&#45;&gt;n22 -->
<g id="edge24" class="edge">
<title>n21&#45;&gt;n22</title>
<path fill="none" stroke="black" d="M3530.22,-450.52C3583.36,-436.04 3647.33,-418.62 3701.71,-403.81"/>
<polygon fill="black" stroke="black" points="3702.67,-407.17 3711.4,-401.17 3700.83,-400.42 3702.67,-407.17"/>
</g>
<!-- n23 -->
<g id="node26" class="node">
<title>n23</title>
<ellipse fill="#98D2A5" stroke="black" cx="3820.92" cy="-259.38" rx="190.84" ry="37.45"/>
<text text-anchor="middle" x="3820.92" y="-270.68" font-family="Times,serif" font-size="14.00">romper</text>
<text text-anchor="middle" x="3820.92" y="-255.68" font-family="Times,serif" font-size="14.00">vmn0000 (pobj)</text>
<text text-anchor="middle" x="3820.92" y="-240.68" font-family="Times,serif" font-size="14.00">rep=no, t=no, r=yes, m=yes, c=no</text>
</g>
<!-- n22&#45;&gt;n23 -->
<g id="edge25" class="edge">
<title>n22&#45;&gt;n23</title>
<path fill="none" stroke="black" d="M3820.92,-332.75C3820.92,-324.58 3820.92,-315.8 3820.92,-307.27"/>
<polygon fill="black" stroke="black" points="3824.42,-307.06 3820.92,-297.06 3817.42,-307.06 3824.42,-307.06"/>
</g>
<!-- n25 -->
<g id="node27" class="node">
<title>n25</title>
<ellipse fill="#98D2A5" stroke="black" cx="3820.92" cy="-148.43" rx="190.84" ry="37.45"/>
<text text-anchor="middle" x="3820.92" y="-159.73" font-family="Times,serif" font-size="14.00">tregua</text>
<text text-anchor="middle" x="3820.92" y="-144.73" font-family="Times,serif" font-size="14.00">ncfs000 (dobj)</text>
<text text-anchor="middle" x="3820.92" y="-129.73" font-family="Times,serif" font-size="14.00">rep=no, t=no, r=yes, m=yes, c=no</text>
</g>
<!-- n23&#45;&gt;n25 -->
<g id="edge26" class="edge">
<title>n23&#45;&gt;n25</title>
<path fill="none" stroke="black" d="M3820.92,-221.8C3820.92,-213.63 3820.92,-204.85 3820.92,-196.32"/>
<polygon fill="black" stroke="black" points="3824.42,-196.1 3820.92,-186.1 3817.42,-196.1 3824.42,-196.1"/>
</g>
<!-- n24 -->
<g id="node28" class="node">
<title>n24</title>
<ellipse fill="#98D2A5" stroke="black" cx="3820.92" cy="-37.48" rx="190.84" ry="37.45"/>
<text text-anchor="middle" x="3820.92" y="-48.78" font-family="Times,serif" font-size="14.00">la</text>
<text text-anchor="middle" x="3820.92" y="-33.78" font-family="Times,serif" font-size="14.00">da0fs0 (det)</text>
<text text-anchor="middle" x="3820.92" y="-18.78" font-family="Times,serif" font-size="14.00">rep=no, t=no, r=yes, m=yes, c=no</text>
</g>
<!-- n25&#45;&gt;n24 -->
<g id="edge27" class="edge">
<title>n25&#45;&gt;n24</title>
<path fill="none" stroke="black" d="M3820.92,-110.85C3820.92,-102.67 3820.92,-93.89 3820.92,-85.37"/>
<polygon fill="black" stroke="black" points="3824.42,-85.15 3820.92,-75.15 3817.42,-85.15 3824.42,-85.15"/>
</g>
<!-- n29 -->
<g id="node30" class="node">
<title>n29</title>
<ellipse fill="#98D2A5" stroke="black" cx="3820.92" cy="-481.29" rx="190.84" ry="37.45"/>
<text text-anchor="middle" x="3820.92" y="-492.59" font-family="Times,serif" font-size="14.00">definitivamente</text>
<text text-anchor="middle" x="3820.92" y="-477.59" font-family="Times,serif" font-size="14.00">rg (advmod)</text>
<text text-anchor="middle" x="3820.92" y="-462.59" font-family="Times,serif" font-size="14.00">rep=no, t=no, r=yes, m=yes, c=no</text>
</g>
<!-- n28&#45;&gt;n29 -->
<g id="edge29" class="edge">
<title>n28&#45;&gt;n29</title>
<path fill="none" stroke="black" d="M3820.92,-554.66C3820.92,-546.49 3820.92,-537.71 3820.92,-529.18"/>
<polygon fill="black" stroke="black" points="3824.42,-528.96 3820.92,-518.96 3817.42,-528.96 3824.42,-528.96"/>
</g>
<!-- n31 -->
<g id="node31" class="node">
<title>n31</title>
<ellipse fill="#98D2A5" stroke="black" cx="4220.92" cy="-481.29" rx="190.84" ry="37.45"/>
<text text-anchor="middle" x="4220.92" y="-492.59" font-family="Times,serif" font-size="14.00">cese</text>
<text text-anchor="middle" x="4220.92" y="-477.59" font-family="Times,serif" font-size="14.00">ncms000 (dobj)</text>
<text text-anchor="middle" x="4220.92" y="-462.59" font-family="Times,serif" font-size="14.00">rep=no, t=no, r=yes, m=yes, c=no</text>
</g>
<!-- n28&#45;&gt;n31 -->
<g id="edge30" class="edge">
<title>n28&#45;&gt;n31</title>
<path fill="none" stroke="black" d="M3930.22,-561.47C3983.36,-547 4047.33,-529.57 4101.71,-514.76"/>
<polygon fill="black" stroke="black" points="4102.67,-518.13 4111.4,-512.12 4100.83,-511.37 4102.67,-518.13"/>
</g>
<!-- n30 -->
<g id="node32" class="node">
<title>n30</title>
<ellipse fill="#98D2A5" stroke="black" cx="4220.92" cy="-370.34" rx="190.84" ry="37.45"/>
<text text-anchor="middle" x="4220.92" y="-381.64" font-family="Times,serif" font-size="14.00">el</text>
<text text-anchor="middle" x="4220.92" y="-366.64" font-family="Times,serif" font-size="14.00">da0ms0 (det)</text>
<text text-anchor="middle" x="4220.92" y="-351.64" font-family="Times,serif" font-size="14.00">rep=no, t=no, r=yes, m=yes, c=no</text>
</g>
<!-- n31&#45;&gt;n30 -->
<g id="edge31" class="edge">
<title>n31&#45;&gt;n30</title>
<path fill="none" stroke="black" d="M4220.92,-443.71C4220.92,-435.53 4220.92,-426.75 4220.92,-418.23"/>
<polygon fill="black" stroke="black" points="4224.42,-418.01 4220.92,-408.01 4217.42,-418.01 4224.42,-418.01"/>
</g>
<!-- n32 -->
<g id="node33" class="node">
<title>n32</title>
<ellipse fill="#98D2A5" stroke="black" cx="4620.92" cy="-370.34" rx="190.84" ry="37.45"/>
<text text-anchor="middle" x="4620.92" y="-381.64" font-family="Times,serif" font-size="14.00">de</text>
<text text-anchor="middle" x="4620.92" y="-366.64" font-family="Times,serif" font-size="14.00">sps00 (prepn)</text>
<text text-anchor="middle" x="4620.92" y="-351.64" font-family="Times,serif" font-size="14.00">rep=no, t=no, r=yes, m=yes, c=no</text>
</g>
<!-- n31&#45;&gt;n32 -->
<g id="edge32" class="edge">
<title>n31&#45;&gt;n32</title>
<path fill="none" stroke="black" d="M4330.22,-450.52C4383.36,-436.04 4447.33,-418.62 4501.71,-403.81"/>
<polygon fill="black" stroke="black" points="4502.67,-407.17 4511.4,-401.17 4500.83,-400.42 4502.67,-407.17"/>
</g>
<!-- n34 -->
<g id="node34" class="node">
<title>n34</title>
<ellipse fill="#98D2A5" stroke="black" cx="4620.92" cy="-259.38" rx="190.84" ry="37.45"/>
<text text-anchor="middle" x="4620.92" y="-270.68" font-family="Times,serif" font-size="14.00">violencia</text>
<text text-anchor="middle" x="4620.92" y="-255.68" font-family="Times,serif" font-size="14.00">ncfs000 (pobj)</text>
<text text-anchor="middle" x="4620.92" y="-240.68" font-family="Times,serif" font-size="14.00">rep=no, t=no, r=yes, m=yes, c=no</text>
</g>
<!-- n32&#45;&gt;n34 -->
<g id="edge33" class="edge">
<title>n32&#45;&gt;n34</title>
<path fill="none" stroke="black" d="M4620.92,-332.75C4620.92,-324.58 4620.92,-315.8 4620.92,-307.27"/>
<polygon fill="black" stroke="black" points="4624.42,-307.06 4620.92,-297.06 4617.42,-307.06 4624.42,-307.06"/>
</g>
<!-- n33 -->
<g id="node35" class="node">
<title>n33</title>
<ellipse fill="#98D2A5" stroke="black" cx="4620.92" cy="-148.43" rx="190.84" ry="37.45"/>
<text text-anchor="middle" x="4620.92" y="-159.73" font-family="Times,serif" font-size="14.00">la</text>
<text text-anchor="middle" x="4620.92" y="-144.73" font-family="Times,serif" font-size="14.00">da0fs0 (det)</text>
<text text-anchor="middle" x="4620.92" y="-129.73" font-family="Times,serif" font-size="14.00">rep=no, t=no, r=yes, m=yes, c=no</text>
</g>
<!-- n34&#45;&gt;n33 -->
<g id="edge34" class="edge">
<title>n34&#45;&gt;n33</title>
<path fill="none" stroke="black" d="M4620.92,-221.8C4620.92,-213.63 4620.92,-204.85 4620.92,-196.32"/>
<polygon fill="black" stroke="black" points="4624.42,-196.1 4620.92,-186.1 4617.42,-196.1 4624.42,-196.1"/>
</g>
</g>
</svg>
