<?xml version="1.0" encoding="UTF-8" standalone="no"?>
<!DOCTYPE svg PUBLIC "-//W3C//DTD SVG 1.1//EN"
 "http://www.w3.org/Graphics/SVG/1.1/DTD/svg11.dtd">
<!-- Generated by graphviz version 2.43.0 (0)
 -->
<!-- Title: tree Pages: 1 -->
<svg width="3798pt" height="1525pt"
 viewBox="0.00 0.00 3797.84 1525.35" xmlns="http://www.w3.org/2000/svg" xmlns:xlink="http://www.w3.org/1999/xlink">
<g id="graph0" class="graph" transform="scale(1 1) rotate(0) translate(4 1521.35)">
<title>tree</title>
<polygon fill="white" stroke="transparent" points="-4,4 -4,-1521.35 3793.84,-1521.35 3793.84,4 -4,4"/>
<!-- n9 -->
<g id="node1" class="node">
<title>n9</title>
<ellipse fill="#98D2A5" stroke="black" cx="1297.92" cy="-1479.87" rx="190.84" ry="37.45"/>
<text text-anchor="middle" x="1297.92" y="-1491.17" font-family="Times,serif" font-size="14.00">han</text>
<text text-anchor="middle" x="1297.92" y="-1476.17" font-family="Times,serif" font-size="14.00">vaip3p0 (root)</text>
<text text-anchor="middle" x="1297.92" y="-1461.17" font-family="Times,serif" font-size="14.00">rep=no, t=no, r=yes, m=yes, c=no</text>
</g>
<!-- n2 -->
<g id="node2" class="node">
<title>n2</title>
<ellipse fill="#98D2A5" stroke="black" cx="692.92" cy="-1368.92" rx="190.84" ry="37.45"/>
<text text-anchor="middle" x="692.92" y="-1380.22" font-family="Times,serif" font-size="14.00">obispos</text>
<text text-anchor="middle" x="692.92" y="-1365.22" font-family="Times,serif" font-size="14.00">ncmp000 (nsubj)</text>
<text text-anchor="middle" x="692.92" y="-1350.22" font-family="Times,serif" font-size="14.00">rep=no, t=yes, r=no, m=yes, c=no</text>
</g>
<!-- n9&#45;&gt;n2 -->
<g id="edge1" class="edge">
<title>n9&#45;&gt;n2</title>
<path fill="none" stroke="black" d="M1159.5,-1453.94C1064.4,-1436.82 938.28,-1414.1 841.15,-1396.61"/>
<polygon fill="black" stroke="black" points="841.7,-1393.15 831.24,-1394.83 840.46,-1400.04 841.7,-1393.15"/>
</g>
<!-- n10 -->
<g id="node3" class="node">
<title>n10</title>
<ellipse fill="#98D2A5" stroke="black" cx="1297.92" cy="-1368.92" rx="190.84" ry="37.45"/>
<text text-anchor="middle" x="1297.92" y="-1380.22" font-family="Times,serif" font-size="14.00">redactado</text>
<text text-anchor="middle" x="1297.92" y="-1365.22" font-family="Times,serif" font-size="14.00">vmp00sm (vobj)</text>
<text text-anchor="middle" x="1297.92" y="-1350.22" font-family="Times,serif" font-size="14.00">rep=no, t=no, r=yes, m=yes, c=no</text>
</g>
<!-- n9&#45;&gt;n10 -->
<g id="edge2" class="edge">
<title>n9&#45;&gt;n10</title>
<path fill="none" stroke="black" d="M1297.92,-1442.29C1297.92,-1434.11 1297.92,-1425.33 1297.92,-1416.81"/>
<polygon fill="black" stroke="black" points="1301.42,-1416.59 1297.92,-1406.59 1294.42,-1416.59 1301.42,-1416.59"/>
</g>
<!-- n38 -->
<g id="node4" class="node">
<title>n38</title>
<ellipse fill="none" stroke="black" cx="1688.92" cy="-1368.92" rx="181.95" ry="37.45"/>
<text text-anchor="middle" x="1688.92" y="-1380.22" font-family="Times,serif" font-size="14.00">.</text>
<text text-anchor="middle" x="1688.92" y="-1365.22" font-family="Times,serif" font-size="14.00">fp (punct)</text>
<text text-anchor="middle" x="1688.92" y="-1350.22" font-family="Times,serif" font-size="14.00">rep=no, t=no, r=no, m=no, c=no</text>
</g>
<!-- n9&#45;&gt;n38 -->
<g id="edge3" class="edge">
<title>n9&#45;&gt;n38</title>
<path fill="none" stroke="black" d="M1405.54,-1448.88C1457.57,-1434.38 1520.09,-1416.96 1573.16,-1402.17"/>
<polygon fill="black" stroke="black" points="1574.26,-1405.5 1582.95,-1399.45 1572.38,-1398.76 1574.26,-1405.5"/>
</g>
<!-- n1 -->
<g id="node5" class="node">
<title>n1</title>
<ellipse fill="#98D2A5" stroke="black" cx="292.92" cy="-1257.96" rx="190.84" ry="37.45"/>
<text text-anchor="middle" x="292.92" y="-1269.26" font-family="Times,serif" font-size="14.00">Los</text>
<text text-anchor="middle" x="292.92" y="-1254.26" font-family="Times,serif" font-size="14.00">da0mp0 (det)</text>
<text text-anchor="middle" x="292.92" y="-1239.26" font-family="Times,serif" font-size="14.00">rep=no, t=yes, r=no, m=yes, c=no</text>
</g>
<!-- n2&#45;&gt;n1 -->
<g id="edge4" class="edge">
<title>n2&#45;&gt;n1</title>
<path fill="none" stroke="black" d="M583.62,-1338.14C530.48,-1323.67 466.51,-1306.25 412.12,-1291.43"/>
<polygon fill="black" stroke="black" points="413,-1288.04 402.44,-1288.79 411.16,-1294.8 413,-1288.04"/>
</g>
<!-- n3 -->
<g id="node6" class="node">
<title>n3</title>
<ellipse fill="#98D2A5" stroke="black" cx="692.92" cy="-1257.96" rx="190.84" ry="37.45"/>
<text text-anchor="middle" x="692.92" y="-1269.26" font-family="Times,serif" font-size="14.00">de</text>
<text text-anchor="middle" x="692.92" y="-1254.26" font-family="Times,serif" font-size="14.00">sps00 (prepn)</text>
<text text-anchor="middle" x="692.92" y="-1239.26" font-family="Times,serif" font-size="14.00">rep=no, t=yes, r=no, m=yes, c=no</text>
</g>
<!-- n2&#45;&gt;n3 -->
<g id="edge5" class="edge">
<title>n2&#45;&gt;n3</title>
<path fill="none" stroke="black" d="M692.92,-1331.33C692.92,-1323.16 692.92,-1314.38 692.92,-1305.85"/>
<polygon fill="black" stroke="black" points="696.42,-1305.64 692.92,-1295.64 689.42,-1305.64 696.42,-1305.64"/>
</g>
<!-- n12 -->
<g id="node12" class="node">
<title>n12</title>
<ellipse fill="#98D2A5" stroke="black" cx="1600.92" cy="-1257.96" rx="190.84" ry="37.45"/>
<text text-anchor="middle" x="1600.92" y="-1269.26" font-family="Times,serif" font-size="14.00">comunicado</text>
<text text-anchor="middle" x="1600.92" y="-1254.26" font-family="Times,serif" font-size="14.00">ncms000 (dobj)</text>
<text text-anchor="middle" x="1600.92" y="-1239.26" font-family="Times,serif" font-size="14.00">rep=no, t=no, r=yes, m=yes, c=no</text>
</g>
<!-- n10&#45;&gt;n12 -->
<g id="edge11" class="edge">
<title>n10&#45;&gt;n12</title>
<path fill="none" stroke="black" d="M1387.6,-1335.67C1423.48,-1322.77 1464.95,-1307.86 1501.73,-1294.63"/>
<polygon fill="black" stroke="black" points="1503.24,-1297.81 1511.47,-1291.13 1500.87,-1291.22 1503.24,-1297.81"/>
</g>
<!-- n4 -->
<g id="node7" class="node">
<title>n4</title>
<ellipse fill="#98D2A5" stroke="black" cx="190.92" cy="-1147.01" rx="190.84" ry="37.45"/>
<text text-anchor="middle" x="190.92" y="-1158.31" font-family="Times,serif" font-size="14.00">Navarra</text>
<text text-anchor="middle" x="190.92" y="-1143.31" font-family="Times,serif" font-size="14.00">np00000 (pobj)</text>
<text text-anchor="middle" x="190.92" y="-1128.31" font-family="Times,serif" font-size="14.00">rep=no, t=yes, r=no, m=yes, c=no</text>
</g>
<!-- n3&#45;&gt;n4 -->
<g id="edge6" class="edge">
<title>n3&#45;&gt;n4</title>
<path fill="none" stroke="black" d="M567.21,-1229.68C493.98,-1213.79 401.6,-1193.74 326.7,-1177.48"/>
<polygon fill="black" stroke="black" points="327.23,-1174.01 316.72,-1175.31 325.75,-1180.86 327.23,-1174.01"/>
</g>
<!-- n5 -->
<g id="node8" class="node">
<title>n5</title>
<ellipse fill="#98D2A5" stroke="black" cx="590.92" cy="-1147.01" rx="190.84" ry="37.45"/>
<text text-anchor="middle" x="590.92" y="-1158.31" font-family="Times,serif" font-size="14.00">y</text>
<text text-anchor="middle" x="590.92" y="-1143.31" font-family="Times,serif" font-size="14.00">cc (coord_fixed)</text>
<text text-anchor="middle" x="590.92" y="-1128.31" font-family="Times,serif" font-size="14.00">rep=no, t=yes, r=no, m=yes, c=no</text>
</g>
<!-- n3&#45;&gt;n5 -->
<g id="edge7" class="edge">
<title>n3&#45;&gt;n5</title>
<path fill="none" stroke="black" d="M659.24,-1220.99C650.36,-1211.5 640.69,-1201.17 631.49,-1191.34"/>
<polygon fill="black" stroke="black" points="633.95,-1188.86 624.56,-1183.95 628.84,-1193.64 633.95,-1188.86"/>
</g>
<!-- n7 -->
<g id="node9" class="node">
<title>n7</title>
<ellipse fill="#98D2A5" stroke="black" cx="995.92" cy="-1147.01" rx="195.74" ry="37.45"/>
<text text-anchor="middle" x="995.92" y="-1158.31" font-family="Times,serif" font-size="14.00">País</text>
<text text-anchor="middle" x="995.92" y="-1143.31" font-family="Times,serif" font-size="14.00">np00000 (pobj)</text>
<text text-anchor="middle" x="995.92" y="-1128.31" font-family="Times,serif" font-size="14.00">rep=no, t=yes, r=no, m=yes, c=yes</text>
</g>
<!-- n3&#45;&gt;n7 -->
<g id="edge8" class="edge">
<title>n3&#45;&gt;n7</title>
<path fill="none" stroke="black" d="M782.6,-1224.72C818.32,-1211.87 859.58,-1197.04 896.24,-1183.85"/>
<polygon fill="black" stroke="black" points="897.72,-1187.04 905.95,-1180.36 895.35,-1180.45 897.72,-1187.04"/>
</g>
<!-- n6 -->
<g id="node10" class="node">
<title>n6</title>
<ellipse fill="#98D2A5" stroke="black" cx="795.92" cy="-1036.06" rx="190.84" ry="37.45"/>
<text text-anchor="middle" x="795.92" y="-1047.36" font-family="Times,serif" font-size="14.00">el</text>
<text text-anchor="middle" x="795.92" y="-1032.36" font-family="Times,serif" font-size="14.00">da0ms0 (det)</text>
<text text-anchor="middle" x="795.92" y="-1017.36" font-family="Times,serif" font-size="14.00">rep=no, t=yes, r=no, m=yes, c=no</text>
</g>
<!-- n7&#45;&gt;n6 -->
<g id="edge9" class="edge">
<title>n7&#45;&gt;n6</title>
<path fill="none" stroke="black" d="M932.64,-1111.54C912.11,-1100.35 889.18,-1087.86 868.06,-1076.36"/>
<polygon fill="black" stroke="black" points="869.59,-1073.2 859.13,-1071.49 866.24,-1079.35 869.59,-1073.2"/>
</g>
<!-- n8 -->
<g id="node11" class="node">
<title>n8</title>
<ellipse fill="#98D2A5" stroke="black" cx="1195.92" cy="-1036.06" rx="190.84" ry="37.45"/>
<text text-anchor="middle" x="1195.92" y="-1047.36" font-family="Times,serif" font-size="14.00">Vasco</text>
<text text-anchor="middle" x="1195.92" y="-1032.36" font-family="Times,serif" font-size="14.00">ncms000 (appos)</text>
<text text-anchor="middle" x="1195.92" y="-1017.36" font-family="Times,serif" font-size="14.00">rep=no, t=yes, r=no, m=yes, c=no</text>
</g>
<!-- n7&#45;&gt;n8 -->
<g id="edge10" class="edge">
<title>n7&#45;&gt;n8</title>
<path fill="none" stroke="black" d="M1059.2,-1111.54C1079.73,-1100.35 1102.65,-1087.86 1123.78,-1076.36"/>
<polygon fill="black" stroke="black" points="1125.6,-1079.35 1132.71,-1071.49 1122.25,-1073.2 1125.6,-1079.35"/>
</g>
<!-- n11 -->
<g id="node13" class="node">
<title>n11</title>
<ellipse fill="#98D2A5" stroke="black" cx="1400.92" cy="-1147.01" rx="190.84" ry="37.45"/>
<text text-anchor="middle" x="1400.92" y="-1158.31" font-family="Times,serif" font-size="14.00">un</text>
<text text-anchor="middle" x="1400.92" y="-1143.31" font-family="Times,serif" font-size="14.00">di0ms0 (det)</text>
<text text-anchor="middle" x="1400.92" y="-1128.31" font-family="Times,serif" font-size="14.00">rep=no, t=no, r=yes, m=yes, c=no</text>
</g>
<!-- n12&#45;&gt;n11 -->
<g id="edge12" class="edge">
<title>n12&#45;&gt;n11</title>
<path fill="none" stroke="black" d="M1537.64,-1222.49C1517.11,-1211.31 1494.18,-1198.82 1473.06,-1187.31"/>
<polygon fill="black" stroke="black" points="1474.59,-1184.16 1464.13,-1182.45 1471.24,-1190.3 1474.59,-1184.16"/>
</g>
<!-- n13 -->
<g id="node14" class="node">
<title>n13</title>
<ellipse fill="#98D2A5" stroke="black" cx="1800.92" cy="-1147.01" rx="190.84" ry="37.45"/>
<text text-anchor="middle" x="1800.92" y="-1158.31" font-family="Times,serif" font-size="14.00">conjunto</text>
<text text-anchor="middle" x="1800.92" y="-1143.31" font-family="Times,serif" font-size="14.00">aq0ms0 (amod)</text>
<text text-anchor="middle" x="1800.92" y="-1128.31" font-family="Times,serif" font-size="14.00">rep=no, t=no, r=yes, m=yes, c=no</text>
</g>
<!-- n12&#45;&gt;n13 -->
<g id="edge13" class="edge">
<title>n12&#45;&gt;n13</title>
<path fill="none" stroke="black" d="M1664.2,-1222.49C1684.73,-1211.31 1707.65,-1198.82 1728.78,-1187.31"/>
<polygon fill="black" stroke="black" points="1730.6,-1190.3 1737.71,-1182.45 1727.25,-1184.16 1730.6,-1190.3"/>
</g>
<!-- n17 -->
<g id="node15" class="node">
<title>n17</title>
<ellipse fill="#98D2A5" stroke="black" cx="2200.92" cy="-1147.01" rx="190.84" ry="37.45"/>
<text text-anchor="middle" x="2200.92" y="-1158.31" font-family="Times,serif" font-size="14.00">reiteran</text>
<text text-anchor="middle" x="2200.92" y="-1143.31" font-family="Times,serif" font-size="14.00">vmip3p0 (prepn)</text>
<text text-anchor="middle" x="2200.92" y="-1128.31" font-family="Times,serif" font-size="14.00">rep=no, t=no, r=yes, m=yes, c=no</text>
</g>
<!-- n12&#45;&gt;n17 -->
<g id="edge14" class="edge">
<title>n12&#45;&gt;n17</title>
<path fill="none" stroke="black" d="M1738.84,-1232.01C1815.94,-1218.06 1913.78,-1200.33 2000.92,-1184.49 2017.99,-1181.38 2035.87,-1178.13 2053.63,-1174.89"/>
<polygon fill="black" stroke="black" points="2054.27,-1178.33 2063.48,-1173.1 2053.02,-1171.45 2054.27,-1178.33"/>
</g>
<!-- n14 -->
<g id="node16" class="node">
<title>n14</title>
<ellipse fill="#98D2A5" stroke="black" cx="2000.92" cy="-1036.06" rx="190.84" ry="37.45"/>
<text text-anchor="middle" x="2000.92" y="-1047.36" font-family="Times,serif" font-size="14.00">en</text>
<text text-anchor="middle" x="2000.92" y="-1032.36" font-family="Times,serif" font-size="14.00">sps00 (prepv)</text>
<text text-anchor="middle" x="2000.92" y="-1017.36" font-family="Times,serif" font-size="14.00">rep=no, t=no, r=yes, m=yes, c=no</text>
</g>
<!-- n17&#45;&gt;n14 -->
<g id="edge15" class="edge">
<title>n17&#45;&gt;n14</title>
<path fill="none" stroke="black" d="M2137.64,-1111.54C2117.11,-1100.35 2094.18,-1087.86 2073.06,-1076.36"/>
<polygon fill="black" stroke="black" points="2074.59,-1073.2 2064.13,-1071.49 2071.24,-1079.35 2074.59,-1073.2"/>
</g>
<!-- n19 -->
<g id="node17" class="node">
<title>n19</title>
<ellipse fill="#98D2A5" stroke="black" cx="2400.92" cy="-1036.06" rx="190.84" ry="37.45"/>
<text text-anchor="middle" x="2400.92" y="-1047.36" font-family="Times,serif" font-size="14.00">disposición</text>
<text text-anchor="middle" x="2400.92" y="-1032.36" font-family="Times,serif" font-size="14.00">ncfs000 (dobj)</text>
<text text-anchor="middle" x="2400.92" y="-1017.36" font-family="Times,serif" font-size="14.00">rep=no, t=no, r=yes, m=yes, c=no</text>
</g>
<!-- n17&#45;&gt;n19 -->
<g id="edge16" class="edge">
<title>n17&#45;&gt;n19</title>
<path fill="none" stroke="black" d="M2264.2,-1111.54C2284.73,-1100.35 2307.65,-1087.86 2328.78,-1076.36"/>
<polygon fill="black" stroke="black" points="2330.6,-1079.35 2337.71,-1071.49 2327.25,-1073.2 2330.6,-1079.35"/>
</g>
<!-- n16 -->
<g id="node18" class="node">
<title>n16</title>
<ellipse fill="#98D2A5" stroke="black" cx="2000.92" cy="-925.1" rx="190.84" ry="37.45"/>
<text text-anchor="middle" x="2000.92" y="-936.4" font-family="Times,serif" font-size="14.00">que</text>
<text text-anchor="middle" x="2000.92" y="-921.4" font-family="Times,serif" font-size="14.00">pr0cn000 (pobj)</text>
<text text-anchor="middle" x="2000.92" y="-906.4" font-family="Times,serif" font-size="14.00">rep=no, t=no, r=yes, m=yes, c=no</text>
</g>
<!-- n14&#45;&gt;n16 -->
<g id="edge17" class="edge">
<title>n14&#45;&gt;n16</title>
<path fill="none" stroke="black" d="M2000.92,-998.47C2000.92,-990.3 2000.92,-981.52 2000.92,-972.99"/>
<polygon fill="black" stroke="black" points="2004.42,-972.78 2000.92,-962.78 1997.42,-972.78 2004.42,-972.78"/>
</g>
<!-- n18 -->
<g id="node20" class="node">
<title>n18</title>
<ellipse fill="#98D2A5" stroke="black" cx="2400.92" cy="-925.1" rx="190.84" ry="37.45"/>
<text text-anchor="middle" x="2400.92" y="-936.4" font-family="Times,serif" font-size="14.00">su</text>
<text text-anchor="middle" x="2400.92" y="-921.4" font-family="Times,serif" font-size="14.00">dp3cs0 (poss)</text>
<text text-anchor="middle" x="2400.92" y="-906.4" font-family="Times,serif" font-size="14.00">rep=no, t=no, r=yes, m=yes, c=no</text>
</g>
<!-- n19&#45;&gt;n18 -->
<g id="edge19" class="edge">
<title>n19&#45;&gt;n18</title>
<path fill="none" stroke="black" d="M2400.92,-998.47C2400.92,-990.3 2400.92,-981.52 2400.92,-972.99"/>
<polygon fill="black" stroke="black" points="2404.42,-972.78 2400.92,-962.78 2397.42,-972.78 2404.42,-972.78"/>
</g>
<!-- n20 -->
<g id="node21" class="node">
<title>n20</title>
<ellipse fill="#98D2A5" stroke="black" cx="2800.92" cy="-925.1" rx="190.84" ry="37.45"/>
<text text-anchor="middle" x="2800.92" y="-936.4" font-family="Times,serif" font-size="14.00">a</text>
<text text-anchor="middle" x="2800.92" y="-921.4" font-family="Times,serif" font-size="14.00">sps00 (prepn)</text>
<text text-anchor="middle" x="2800.92" y="-906.4" font-family="Times,serif" font-size="14.00">rep=no, t=no, r=yes, m=yes, c=no</text>
</g>
<!-- n19&#45;&gt;n20 -->
<g id="edge20" class="edge">
<title>n19&#45;&gt;n20</title>
<path fill="none" stroke="black" d="M2510.22,-1005.28C2563.36,-990.81 2627.33,-973.39 2681.71,-958.57"/>
<polygon fill="black" stroke="black" points="2682.67,-961.94 2691.4,-955.93 2680.83,-955.18 2682.67,-961.94"/>
</g>
<!-- n15 -->
<g id="node19" class="node">
<title>n15</title>
<ellipse fill="#98D2A5" stroke="black" cx="2000.92" cy="-814.15" rx="190.84" ry="37.45"/>
<text text-anchor="middle" x="2000.92" y="-825.45" font-family="Times,serif" font-size="14.00">el</text>
<text text-anchor="middle" x="2000.92" y="-810.45" font-family="Times,serif" font-size="14.00">da0ms0 (det)</text>
<text text-anchor="middle" x="2000.92" y="-795.45" font-family="Times,serif" font-size="14.00">rep=no, t=no, r=yes, m=yes, c=no</text>
</g>
<!-- n16&#45;&gt;n15 -->
<g id="edge18" class="edge">
<title>n16&#45;&gt;n15</title>
<path fill="none" stroke="black" d="M2000.92,-887.52C2000.92,-879.35 2000.92,-870.57 2000.92,-862.04"/>
<polygon fill="black" stroke="black" points="2004.42,-861.82 2000.92,-851.82 1997.42,-861.82 2004.42,-861.82"/>
</g>
<!-- n21 -->
<g id="node22" class="node">
<title>n21</title>
<ellipse fill="#98D2A5" stroke="black" cx="2800.92" cy="-814.15" rx="190.84" ry="37.45"/>
<text text-anchor="middle" x="2800.92" y="-825.45" font-family="Times,serif" font-size="14.00">hacer</text>
<text text-anchor="middle" x="2800.92" y="-810.45" font-family="Times,serif" font-size="14.00">vmn0000 (pobj)</text>
<text text-anchor="middle" x="2800.92" y="-795.45" font-family="Times,serif" font-size="14.00">rep=no, t=no, r=yes, m=yes, c=no</text>
</g>
<!-- n20&#45;&gt;n21 -->
<g id="edge21" class="edge">
<title>n20&#45;&gt;n21</title>
<path fill="none" stroke="black" d="M2800.92,-887.52C2800.92,-879.35 2800.92,-870.57 2800.92,-862.04"/>
<polygon fill="black" stroke="black" points="2804.42,-861.82 2800.92,-851.82 2797.42,-861.82 2804.42,-861.82"/>
</g>
<!-- n23 -->
<g id="node23" class="node">
<title>n23</title>
<ellipse fill="#98D2A5" stroke="black" cx="2603.92" cy="-703.2" rx="185.94" ry="37.45"/>
<text text-anchor="middle" x="2603.92" y="-714.5" font-family="Times,serif" font-size="14.00">esté</text>
<text text-anchor="middle" x="2603.92" y="-699.5" font-family="Times,serif" font-size="14.00">vmsp3s0 (rcmod)</text>
<text text-anchor="middle" x="2603.92" y="-684.5" font-family="Times,serif" font-size="14.00">rep=no, t=no, r=no, m=yes, c=no</text>
</g>
<!-- n21&#45;&gt;n23 -->
<g id="edge22" class="edge">
<title>n21&#45;&gt;n23</title>
<path fill="none" stroke="black" d="M2738.59,-778.68C2718.37,-767.49 2695.79,-755 2674.98,-743.5"/>
<polygon fill="black" stroke="black" points="2676.63,-740.41 2666.18,-738.63 2673.24,-746.54 2676.63,-740.41"/>
</g>
<!-- n27 -->
<g id="node24" class="node">
<title>n27</title>
<ellipse fill="#98D2A5" stroke="black" cx="2998.92" cy="-703.2" rx="190.84" ry="37.45"/>
<text text-anchor="middle" x="2998.92" y="-714.5" font-family="Times,serif" font-size="14.00">para</text>
<text text-anchor="middle" x="2998.92" y="-699.5" font-family="Times,serif" font-size="14.00">sps00 (prepv)</text>
<text text-anchor="middle" x="2998.92" y="-684.5" font-family="Times,serif" font-size="14.00">rep=no, t=no, r=yes, m=yes, c=no</text>
</g>
<!-- n21&#45;&gt;n27 -->
<g id="edge23" class="edge">
<title>n21&#45;&gt;n27</title>
<path fill="none" stroke="black" d="M2863.57,-778.68C2883.89,-767.49 2906.59,-755 2927.5,-743.5"/>
<polygon fill="black" stroke="black" points="2929.26,-746.52 2936.34,-738.63 2925.89,-740.39 2929.26,-746.52"/>
</g>
<!-- n22 -->
<g id="node25" class="node">
<title>n22</title>
<ellipse fill="#98D2A5" stroke="black" cx="2213.92" cy="-592.24" rx="185.94" ry="37.45"/>
<text text-anchor="middle" x="2213.92" y="-603.54" font-family="Times,serif" font-size="14.00">cuanto</text>
<text text-anchor="middle" x="2213.92" y="-588.54" font-family="Times,serif" font-size="14.00">pr0ms000 (nsubj)</text>
<text text-anchor="middle" x="2213.92" y="-573.54" font-family="Times,serif" font-size="14.00">rep=no, t=no, r=no, m=yes, c=no</text>
</g>
<!-- n23&#45;&gt;n22 -->
<g id="edge24" class="edge">
<title>n23&#45;&gt;n22</title>
<path fill="none" stroke="black" d="M2497.35,-672.42C2445.54,-657.95 2383.17,-640.53 2330.15,-625.71"/>
<polygon fill="black" stroke="black" points="2330.93,-622.3 2320.36,-622.98 2329.05,-629.04 2330.93,-622.3"/>
</g>
<!-- n24 -->
<g id="node26" class="node">
<title>n24</title>
<ellipse fill="#98D2A5" stroke="black" cx="2603.92" cy="-592.24" rx="185.94" ry="37.45"/>
<text text-anchor="middle" x="2603.92" y="-603.54" font-family="Times,serif" font-size="14.00">en</text>
<text text-anchor="middle" x="2603.92" y="-588.54" font-family="Times,serif" font-size="14.00">sps00 (prepv)</text>
<text text-anchor="middle" x="2603.92" y="-573.54" font-family="Times,serif" font-size="14.00">rep=no, t=no, r=no, m=yes, c=no</text>
</g>
<!-- n23&#45;&gt;n24 -->
<g id="edge25" class="edge">
<title>n23&#45;&gt;n24</title>
<path fill="none" stroke="black" d="M2603.92,-665.61C2603.92,-657.44 2603.92,-648.66 2603.92,-640.13"/>
<polygon fill="black" stroke="black" points="2607.42,-639.92 2603.92,-629.92 2600.42,-639.92 2607.42,-639.92"/>
</g>
<!-- n28 -->
<g id="node29" class="node">
<title>n28</title>
<ellipse fill="#98D2A5" stroke="black" cx="2998.92" cy="-592.24" rx="190.84" ry="37.45"/>
<text text-anchor="middle" x="2998.92" y="-603.54" font-family="Times,serif" font-size="14.00">facilitar</text>
<text text-anchor="middle" x="2998.92" y="-588.54" font-family="Times,serif" font-size="14.00">vmn0000 (pobj)</text>
<text text-anchor="middle" x="2998.92" y="-573.54" font-family="Times,serif" font-size="14.00">rep=no, t=no, r=yes, m=yes, c=no</text>
</g>
<!-- n27&#45;&gt;n28 -->
<g id="edge28" class="edge">
<title>n27&#45;&gt;n28</title>
<path fill="none" stroke="black" d="M2998.92,-665.61C2998.92,-657.44 2998.92,-648.66 2998.92,-640.13"/>
<polygon fill="black" stroke="black" points="3002.42,-639.92 2998.92,-629.92 2995.42,-639.92 3002.42,-639.92"/>
</g>
<!-- n26 -->
<g id="node27" class="node">
<title>n26</title>
<ellipse fill="#98D2A5" stroke="black" cx="2603.92" cy="-481.29" rx="185.94" ry="37.45"/>
<text text-anchor="middle" x="2603.92" y="-492.59" font-family="Times,serif" font-size="14.00">mano</text>
<text text-anchor="middle" x="2603.92" y="-477.59" font-family="Times,serif" font-size="14.00">ncfs000 (pobj)</text>
<text text-anchor="middle" x="2603.92" y="-462.59" font-family="Times,serif" font-size="14.00">rep=no, t=no, r=no, m=yes, c=no</text>
</g>
<!-- n24&#45;&gt;n26 -->
<g id="edge26" class="edge">
<title>n24&#45;&gt;n26</title>
<path fill="none" stroke="black" d="M2603.92,-554.66C2603.92,-546.49 2603.92,-537.71 2603.92,-529.18"/>
<polygon fill="black" stroke="black" points="2607.42,-528.96 2603.92,-518.96 2600.42,-528.96 2607.42,-528.96"/>
</g>
<!-- n25 -->
<g id="node28" class="node">
<title>n25</title>
<ellipse fill="#98D2A5" stroke="black" cx="2403.92" cy="-370.34" rx="185.94" ry="37.45"/>
<text text-anchor="middle" x="2403.92" y="-381.64" font-family="Times,serif" font-size="14.00">su</text>
<text text-anchor="middle" x="2403.92" y="-366.64" font-family="Times,serif" font-size="14.00">dp3cs0 (poss)</text>
<text text-anchor="middle" x="2403.92" y="-351.64" font-family="Times,serif" font-size="14.00">rep=no, t=no, r=no, m=yes, c=no</text>
</g>
<!-- n26&#45;&gt;n25 -->
<g id="edge27" class="edge">
<title>n26&#45;&gt;n25</title>
<path fill="none" stroke="black" d="M2540.91,-445.97C2520.27,-434.72 2497.19,-422.15 2475.94,-410.57"/>
<polygon fill="black" stroke="black" points="2477.41,-407.39 2466.95,-405.68 2474.06,-413.53 2477.41,-407.39"/>
</g>
<!-- n30 -->
<g id="node30" class="node">
<title>n30</title>
<ellipse fill="#98D2A5" stroke="black" cx="2998.92" cy="-481.29" rx="190.84" ry="37.45"/>
<text text-anchor="middle" x="2998.92" y="-492.59" font-family="Times,serif" font-size="14.00">salida</text>
<text text-anchor="middle" x="2998.92" y="-477.59" font-family="Times,serif" font-size="14.00">ncfs000 (dobj)</text>
<text text-anchor="middle" x="2998.92" y="-462.59" font-family="Times,serif" font-size="14.00">rep=no, t=no, r=yes, m=yes, c=no</text>
</g>
<!-- n28&#45;&gt;n30 -->
<g id="edge29" class="edge">
<title>n28&#45;&gt;n30</title>
<path fill="none" stroke="black" d="M2998.92,-554.66C2998.92,-546.49 2998.92,-537.71 2998.92,-529.18"/>
<polygon fill="black" stroke="black" points="3002.42,-528.96 2998.92,-518.96 2995.42,-528.96 3002.42,-528.96"/>
</g>
<!-- n29 -->
<g id="node31" class="node">
<title>n29</title>
<ellipse fill="#98D2A5" stroke="black" cx="2798.92" cy="-370.34" rx="190.84" ry="37.45"/>
<text text-anchor="middle" x="2798.92" y="-381.64" font-family="Times,serif" font-size="14.00">una</text>
<text text-anchor="middle" x="2798.92" y="-366.64" font-family="Times,serif" font-size="14.00">di0fs0 (det)</text>
<text text-anchor="middle" x="2798.92" y="-351.64" font-family="Times,serif" font-size="14.00">rep=no, t=no, r=yes, m=yes, c=no</text>
</g>
<!-- n30&#45;&gt;n29 -->
<g id="edge30" class="edge">
<title>n30&#45;&gt;n29</title>
<path fill="none" stroke="black" d="M2935.64,-445.82C2915.11,-434.63 2892.18,-422.14 2871.06,-410.64"/>
<polygon fill="black" stroke="black" points="2872.59,-407.48 2862.13,-405.77 2869.24,-413.63 2872.59,-407.48"/>
</g>
<!-- n32 -->
<g id="node32" class="node">
<title>n32</title>
<ellipse fill="#98D2A5" stroke="black" cx="3198.92" cy="-370.34" rx="190.84" ry="37.45"/>
<text text-anchor="middle" x="3198.92" y="-381.64" font-family="Times,serif" font-size="14.00">justa</text>
<text text-anchor="middle" x="3198.92" y="-366.64" font-family="Times,serif" font-size="14.00">aq0fs0 (amod)</text>
<text text-anchor="middle" x="3198.92" y="-351.64" font-family="Times,serif" font-size="14.00">rep=no, t=no, r=yes, m=yes, c=no</text>
</g>
<!-- n30&#45;&gt;n32 -->
<g id="edge31" class="edge">
<title>n30&#45;&gt;n32</title>
<path fill="none" stroke="black" d="M3062.2,-445.82C3082.73,-434.63 3105.65,-422.14 3126.78,-410.64"/>
<polygon fill="black" stroke="black" points="3128.6,-413.63 3135.71,-405.77 3125.25,-407.48 3128.6,-413.63"/>
</g>
<!-- n34 -->
<g id="node33" class="node">
<title>n34</title>
<ellipse fill="#98D2A5" stroke="black" cx="3598.92" cy="-370.34" rx="190.84" ry="37.45"/>
<text text-anchor="middle" x="3598.92" y="-381.64" font-family="Times,serif" font-size="14.00">al</text>
<text text-anchor="middle" x="3598.92" y="-366.64" font-family="Times,serif" font-size="14.00">spcms (prepn)</text>
<text text-anchor="middle" x="3598.92" y="-351.64" font-family="Times,serif" font-size="14.00">rep=no, t=no, r=yes, m=yes, c=no</text>
</g>
<!-- n30&#45;&gt;n34 -->
<g id="edge32" class="edge">
<title>n30&#45;&gt;n34</title>
<path fill="none" stroke="black" d="M3136.84,-455.34C3213.94,-441.38 3311.78,-423.65 3398.92,-407.81 3415.99,-404.71 3433.87,-401.45 3451.63,-398.22"/>
<polygon fill="black" stroke="black" points="3452.27,-401.66 3461.48,-396.42 3451.02,-394.77 3452.27,-401.66"/>
</g>
<!-- n31 -->
<g id="node34" class="node">
<title>n31</title>
<ellipse fill="#98D2A5" stroke="black" cx="2798.92" cy="-259.38" rx="190.84" ry="37.45"/>
<text text-anchor="middle" x="2798.92" y="-270.68" font-family="Times,serif" font-size="14.00">&quot;</text>
<text text-anchor="middle" x="2798.92" y="-255.68" font-family="Times,serif" font-size="14.00">fe (punct)</text>
<text text-anchor="middle" x="2798.92" y="-240.68" font-family="Times,serif" font-size="14.00">rep=no, t=no, r=yes, m=yes, c=no</text>
</g>
<!-- n32&#45;&gt;n31 -->
<g id="edge33" class="edge">
<title>n32&#45;&gt;n31</title>
<path fill="none" stroke="black" d="M3089.62,-339.56C3036.48,-325.09 2972.51,-307.67 2918.12,-292.85"/>
<polygon fill="black" stroke="black" points="2919,-289.46 2908.44,-290.21 2917.16,-296.22 2919,-289.46"/>
</g>
<!-- n33 -->
<g id="node35" class="node">
<title>n33</title>
<ellipse fill="#98D2A5" stroke="black" cx="3198.92" cy="-259.38" rx="190.84" ry="37.45"/>
<text text-anchor="middle" x="3198.92" y="-270.68" font-family="Times,serif" font-size="14.00">&quot;</text>
<text text-anchor="middle" x="3198.92" y="-255.68" font-family="Times,serif" font-size="14.00">fe (punct)</text>
<text text-anchor="middle" x="3198.92" y="-240.68" font-family="Times,serif" font-size="14.00">rep=no, t=no, r=yes, m=yes, c=no</text>
</g>
<!-- n32&#45;&gt;n33 -->
<g id="edge34" class="edge">
<title>n32&#45;&gt;n33</title>
<path fill="none" stroke="black" d="M3198.92,-332.75C3198.92,-324.58 3198.92,-315.8 3198.92,-307.27"/>
<polygon fill="black" stroke="black" points="3202.42,-307.06 3198.92,-297.06 3195.42,-307.06 3202.42,-307.06"/>
</g>
<!-- n35 -->
<g id="node36" class="node">
<title>n35</title>
<ellipse fill="#98D2A5" stroke="black" cx="3598.92" cy="-259.38" rx="190.84" ry="37.45"/>
<text text-anchor="middle" x="3598.92" y="-270.68" font-family="Times,serif" font-size="14.00">problema</text>
<text text-anchor="middle" x="3598.92" y="-255.68" font-family="Times,serif" font-size="14.00">ncms000 (pobj)</text>
<text text-anchor="middle" x="3598.92" y="-240.68" font-family="Times,serif" font-size="14.00">rep=no, t=no, r=yes, m=yes, c=no</text>
</g>
<!-- n34&#45;&gt;n35 -->
<g id="edge35" class="edge">
<title>n34&#45;&gt;n35</title>
<path fill="none" stroke="black" d="M3598.92,-332.75C3598.92,-324.58 3598.92,-315.8 3598.92,-307.27"/>
<polygon fill="black" stroke="black" points="3602.42,-307.06 3598.92,-297.06 3595.42,-307.06 3602.42,-307.06"/>
</g>
<!-- n36 -->
<g id="node37" class="node">
<title>n36</title>
<ellipse fill="#98D2A5" stroke="black" cx="3598.92" cy="-148.43" rx="190.84" ry="37.45"/>
<text text-anchor="middle" x="3598.92" y="-159.73" font-family="Times,serif" font-size="14.00">del</text>
<text text-anchor="middle" x="3598.92" y="-144.73" font-family="Times,serif" font-size="14.00">spcms (prepn)</text>
<text text-anchor="middle" x="3598.92" y="-129.73" font-family="Times,serif" font-size="14.00">rep=no, t=no, r=yes, m=yes, c=no</text>
</g>
<!-- n35&#45;&gt;n36 -->
<g id="edge36" class="edge">
<title>n35&#45;&gt;n36</title>
<path fill="none" stroke="black" d="M3598.92,-221.8C3598.92,-213.63 3598.92,-204.85 3598.92,-196.32"/>
<polygon fill="black" stroke="black" points="3602.42,-196.1 3598.92,-186.1 3595.42,-196.1 3602.42,-196.1"/>
</g>
<!-- n37 -->
<g id="node38" class="node">
<title>n37</title>
<ellipse fill="#98D2A5" stroke="black" cx="3598.92" cy="-37.48" rx="190.84" ry="37.45"/>
<text text-anchor="middle" x="3598.92" y="-48.78" font-family="Times,serif" font-size="14.00">terrorismo</text>
<text text-anchor="middle" x="3598.92" y="-33.78" font-family="Times,serif" font-size="14.00">ncms000 (pobj)</text>
<text text-anchor="middle" x="3598.92" y="-18.78" font-family="Times,serif" font-size="14.00">rep=no, t=no, r=yes, m=yes, c=no</text>
</g>
<!-- n36&#45;&gt;n37 -->
<g id="edge37" class="edge">
<title>n36&#45;&gt;n37</title>
<path fill="none" stroke="black" d="M3598.92,-110.85C3598.92,-102.67 3598.92,-93.89 3598.92,-85.37"/>
<polygon fill="black" stroke="black" points="3602.42,-85.15 3598.92,-75.15 3595.42,-85.15 3602.42,-85.15"/>
</g>
</g>
</svg>
