<?xml version="1.0" encoding="UTF-8" standalone="no"?>
<!DOCTYPE svg PUBLIC "-//W3C//DTD SVG 1.1//EN"
 "http://www.w3.org/Graphics/SVG/1.1/DTD/svg11.dtd">
<!-- Generated by graphviz version 2.43.0 (0)
 -->
<!-- Title: tree Pages: 1 -->
<svg width="3727pt" height="1082pt"
 viewBox="0.00 0.00 3726.65 1081.53" xmlns="http://www.w3.org/2000/svg" xmlns:xlink="http://www.w3.org/1999/xlink">
<g id="graph0" class="graph" transform="scale(1 1) rotate(0) translate(4 1077.53)">
<title>tree</title>
<polygon fill="white" stroke="transparent" points="-4,4 -4,-1077.53 3722.65,-1077.53 3722.65,4 -4,4"/>
<!-- n31 -->
<g id="node1" class="node">
<title>n31</title>
<ellipse fill="#98D2A5" stroke="black" cx="2957.92" cy="-1036.06" rx="185.94" ry="37.45"/>
<text text-anchor="middle" x="2957.92" y="-1047.36" font-family="Times,serif" font-size="14.00">escribe</text>
<text text-anchor="middle" x="2957.92" y="-1032.36" font-family="Times,serif" font-size="14.00">vmip3s0 (root)</text>
<text text-anchor="middle" x="2957.92" y="-1017.36" font-family="Times,serif" font-size="14.00">rep=no, t=no, r=no, m=yes, c=no</text>
</g>
<!-- n23 -->
<g id="node2" class="node">
<title>n23</title>
<ellipse fill="#98D2A5" stroke="black" cx="2277.92" cy="-925.1" rx="185.94" ry="37.45"/>
<text text-anchor="middle" x="2277.92" y="-936.4" font-family="Times,serif" font-size="14.00">impone</text>
<text text-anchor="middle" x="2277.92" y="-921.4" font-family="Times,serif" font-size="14.00">vmip3s0 (dobj)</text>
<text text-anchor="middle" x="2277.92" y="-906.4" font-family="Times,serif" font-size="14.00">rep=no, t=no, r=no, m=yes, c=no</text>
</g>
<!-- n31&#45;&gt;n23 -->
<g id="edge1" class="edge">
<title>n31&#45;&gt;n23</title>
<path fill="none" stroke="black" d="M2814.54,-1012.08C2702.09,-994.07 2545.92,-969.04 2431.04,-950.64"/>
<polygon fill="black" stroke="black" points="2431.53,-947.17 2421.1,-949.04 2430.42,-954.08 2431.53,-947.17"/>
</g>
<!-- n30 -->
<g id="node3" class="node">
<title>n30</title>
<ellipse fill="none" stroke="black" cx="2764.92" cy="-925.1" rx="181.95" ry="37.45"/>
<text text-anchor="middle" x="2764.92" y="-936.4" font-family="Times,serif" font-size="14.00">,</text>
<text text-anchor="middle" x="2764.92" y="-921.4" font-family="Times,serif" font-size="14.00">fc (punct)</text>
<text text-anchor="middle" x="2764.92" y="-906.4" font-family="Times,serif" font-size="14.00">rep=no, t=no, r=no, m=no, c=no</text>
</g>
<!-- n31&#45;&gt;n30 -->
<g id="edge2" class="edge">
<title>n31&#45;&gt;n30</title>
<path fill="none" stroke="black" d="M2896.85,-1000.58C2877.13,-989.45 2855.12,-977.02 2834.81,-965.56"/>
<polygon fill="black" stroke="black" points="2836.35,-962.41 2825.92,-960.54 2832.91,-968.5 2836.35,-962.41"/>
</g>
<!-- n33 -->
<g id="node4" class="node">
<title>n33</title>
<ellipse fill="#98D2A5" stroke="black" cx="3150.92" cy="-925.1" rx="185.94" ry="37.45"/>
<text text-anchor="middle" x="3150.92" y="-936.4" font-family="Times,serif" font-size="14.00">Papa</text>
<text text-anchor="middle" x="3150.92" y="-921.4" font-family="Times,serif" font-size="14.00">np00000 (nsubj)</text>
<text text-anchor="middle" x="3150.92" y="-906.4" font-family="Times,serif" font-size="14.00">rep=no, t=no, r=no, m=yes, c=no</text>
</g>
<!-- n31&#45;&gt;n33 -->
<g id="edge3" class="edge">
<title>n31&#45;&gt;n33</title>
<path fill="none" stroke="black" d="M3018.99,-1000.58C3038.71,-989.45 3060.72,-977.02 3081.03,-965.56"/>
<polygon fill="black" stroke="black" points="3082.93,-968.5 3089.92,-960.54 3079.49,-962.41 3082.93,-968.5"/>
</g>
<!-- n34 -->
<g id="node5" class="node">
<title>n34</title>
<ellipse fill="none" stroke="black" cx="3536.92" cy="-925.1" rx="181.95" ry="37.45"/>
<text text-anchor="middle" x="3536.92" y="-936.4" font-family="Times,serif" font-size="14.00">.</text>
<text text-anchor="middle" x="3536.92" y="-921.4" font-family="Times,serif" font-size="14.00">fp (punct)</text>
<text text-anchor="middle" x="3536.92" y="-906.4" font-family="Times,serif" font-size="14.00">rep=no, t=no, r=no, m=no, c=no</text>
</g>
<!-- n31&#45;&gt;n34 -->
<g id="edge4" class="edge">
<title>n31&#45;&gt;n34</title>
<path fill="none" stroke="black" d="M3092.17,-1010.12C3166.89,-996.2 3261.58,-978.51 3345.92,-962.58 3362.21,-959.5 3379.28,-956.26 3396.23,-953.04"/>
<polygon fill="black" stroke="black" points="3397.02,-956.45 3406.19,-951.14 3395.71,-949.57 3397.02,-956.45"/>
</g>
<!-- n1 -->
<g id="node6" class="node">
<title>n1</title>
<ellipse fill="#98D2A5" stroke="black" cx="1302.92" cy="-814.15" rx="185.94" ry="37.45"/>
<text text-anchor="middle" x="1302.92" y="-825.45" font-family="Times,serif" font-size="14.00">Si</text>
<text text-anchor="middle" x="1302.92" y="-810.45" font-family="Times,serif" font-size="14.00">cs (advcl)</text>
<text text-anchor="middle" x="1302.92" y="-795.45" font-family="Times,serif" font-size="14.00">rep=no, t=no, r=no, m=yes, c=no</text>
</g>
<!-- n23&#45;&gt;n1 -->
<g id="edge5" class="edge">
<title>n23&#45;&gt;n1</title>
<path fill="none" stroke="black" d="M2102.74,-912.47C1944.31,-900.84 1704.84,-880.53 1497.92,-851.63 1479.92,-849.11 1461.06,-846.08 1442.45,-842.86"/>
<polygon fill="black" stroke="black" points="1442.9,-839.39 1432.45,-841.11 1441.69,-846.28 1442.9,-839.39"/>
</g>
<!-- n21 -->
<g id="node7" class="node">
<title>n21</title>
<ellipse fill="#98D2A5" stroke="black" cx="1692.92" cy="-814.15" rx="185.94" ry="37.45"/>
<text text-anchor="middle" x="1692.92" y="-825.45" font-family="Times,serif" font-size="14.00">,</text>
<text text-anchor="middle" x="1692.92" y="-810.45" font-family="Times,serif" font-size="14.00">fc (punct)</text>
<text text-anchor="middle" x="1692.92" y="-795.45" font-family="Times,serif" font-size="14.00">rep=no, t=no, r=no, m=yes, c=no</text>
</g>
<!-- n23&#45;&gt;n21 -->
<g id="edge6" class="edge">
<title>n23&#45;&gt;n21</title>
<path fill="none" stroke="black" d="M2143.44,-899.15C2068.27,-885.2 1972.88,-867.47 1887.92,-851.63 1871.43,-848.55 1854.16,-845.33 1837,-842.12"/>
<polygon fill="black" stroke="black" points="1837.39,-838.63 1826.92,-840.24 1836.11,-845.52 1837.39,-838.63"/>
</g>
<!-- n22 -->
<g id="node8" class="node">
<title>n22</title>
<ellipse fill="#98D2A5" stroke="black" cx="2082.92" cy="-814.15" rx="185.94" ry="37.45"/>
<text text-anchor="middle" x="2082.92" y="-825.45" font-family="Times,serif" font-size="14.00">esto</text>
<text text-anchor="middle" x="2082.92" y="-810.45" font-family="Times,serif" font-size="14.00">pd0ns000 (nsubj)</text>
<text text-anchor="middle" x="2082.92" y="-795.45" font-family="Times,serif" font-size="14.00">rep=no, t=no, r=no, m=yes, c=no</text>
</g>
<!-- n23&#45;&gt;n22 -->
<g id="edge7" class="edge">
<title>n23&#45;&gt;n22</title>
<path fill="none" stroke="black" d="M2216.22,-889.63C2196.29,-878.5 2174.05,-866.07 2153.53,-854.61"/>
<polygon fill="black" stroke="black" points="2154.99,-851.41 2144.55,-849.59 2151.57,-857.52 2154.99,-851.41"/>
</g>
<!-- n25 -->
<g id="node9" class="node">
<title>n25</title>
<ellipse fill="#98D2A5" stroke="black" cx="2472.92" cy="-814.15" rx="185.94" ry="37.45"/>
<text text-anchor="middle" x="2472.92" y="-825.45" font-family="Times,serif" font-size="14.00">revisi칩n</text>
<text text-anchor="middle" x="2472.92" y="-810.45" font-family="Times,serif" font-size="14.00">ncfs000 (dobj)</text>
<text text-anchor="middle" x="2472.92" y="-795.45" font-family="Times,serif" font-size="14.00">rep=no, t=no, r=no, m=yes, c=no</text>
</g>
<!-- n23&#45;&gt;n25 -->
<g id="edge8" class="edge">
<title>n23&#45;&gt;n25</title>
<path fill="none" stroke="black" d="M2339.62,-889.63C2359.54,-878.5 2381.79,-866.07 2402.3,-854.61"/>
<polygon fill="black" stroke="black" points="2404.26,-857.52 2411.29,-849.59 2400.85,-851.41 2404.26,-857.52"/>
</g>
<!-- n29 -->
<g id="node10" class="node">
<title>n29</title>
<ellipse fill="#98D2A5" stroke="black" cx="2862.92" cy="-814.15" rx="185.94" ry="37.45"/>
<text text-anchor="middle" x="2862.92" y="-825.45" font-family="Times,serif" font-size="14.00">&quot;</text>
<text text-anchor="middle" x="2862.92" y="-810.45" font-family="Times,serif" font-size="14.00">fe (punct)</text>
<text text-anchor="middle" x="2862.92" y="-795.45" font-family="Times,serif" font-size="14.00">rep=no, t=no, r=no, m=yes, c=no</text>
</g>
<!-- n23&#45;&gt;n29 -->
<g id="edge9" class="edge">
<title>n23&#45;&gt;n29</title>
<path fill="none" stroke="black" d="M2412.39,-899.15C2487.57,-885.2 2582.95,-867.47 2667.92,-851.63 2684.41,-848.55 2701.68,-845.33 2718.83,-842.12"/>
<polygon fill="black" stroke="black" points="2719.73,-845.52 2728.92,-840.24 2718.44,-838.63 2719.73,-845.52"/>
</g>
<!-- n32 -->
<g id="node34" class="node">
<title>n32</title>
<ellipse fill="#98D2A5" stroke="black" cx="3252.92" cy="-814.15" rx="185.94" ry="37.45"/>
<text text-anchor="middle" x="3252.92" y="-825.45" font-family="Times,serif" font-size="14.00">el</text>
<text text-anchor="middle" x="3252.92" y="-810.45" font-family="Times,serif" font-size="14.00">da0ms0 (det)</text>
<text text-anchor="middle" x="3252.92" y="-795.45" font-family="Times,serif" font-size="14.00">rep=no, t=no, r=no, m=yes, c=no</text>
</g>
<!-- n33&#45;&gt;n32 -->
<g id="edge33" class="edge">
<title>n33&#45;&gt;n32</title>
<path fill="none" stroke="black" d="M3184.6,-888.13C3193.48,-878.64 3203.15,-868.31 3212.35,-858.48"/>
<polygon fill="black" stroke="black" points="3214.99,-860.78 3219.27,-851.09 3209.88,-856 3214.99,-860.78"/>
</g>
<!-- n18 -->
<g id="node11" class="node">
<title>n18</title>
<ellipse fill="#98D2A5" stroke="black" cx="1302.92" cy="-703.2" rx="185.94" ry="37.45"/>
<text text-anchor="middle" x="1302.92" y="-714.5" font-family="Times,serif" font-size="14.00">sino</text>
<text text-anchor="middle" x="1302.92" y="-699.5" font-family="Times,serif" font-size="14.00">cc (coord_fixed)</text>
<text text-anchor="middle" x="1302.92" y="-684.5" font-family="Times,serif" font-size="14.00">rep=no, t=no, r=no, m=yes, c=no</text>
</g>
<!-- n1&#45;&gt;n18 -->
<g id="edge10" class="edge">
<title>n1&#45;&gt;n18</title>
<path fill="none" stroke="black" d="M1302.92,-776.57C1302.92,-768.39 1302.92,-759.61 1302.92,-751.09"/>
<polygon fill="black" stroke="black" points="1306.42,-750.87 1302.92,-740.87 1299.42,-750.87 1306.42,-750.87"/>
</g>
<!-- n24 -->
<g id="node30" class="node">
<title>n24</title>
<ellipse fill="#98D2A5" stroke="black" cx="2289.92" cy="-703.2" rx="185.94" ry="37.45"/>
<text text-anchor="middle" x="2289.92" y="-714.5" font-family="Times,serif" font-size="14.00">una</text>
<text text-anchor="middle" x="2289.92" y="-699.5" font-family="Times,serif" font-size="14.00">di0fs0 (det)</text>
<text text-anchor="middle" x="2289.92" y="-684.5" font-family="Times,serif" font-size="14.00">rep=no, t=no, r=no, m=yes, c=no</text>
</g>
<!-- n25&#45;&gt;n24 -->
<g id="edge29" class="edge">
<title>n25&#45;&gt;n24</title>
<path fill="none" stroke="black" d="M2414.77,-778.53C2396.34,-767.56 2375.83,-755.34 2356.84,-744.04"/>
<polygon fill="black" stroke="black" points="2358.62,-741.03 2348.24,-738.92 2355.04,-747.04 2358.62,-741.03"/>
</g>
<!-- n26 -->
<g id="node31" class="node">
<title>n26</title>
<ellipse fill="#98D2A5" stroke="black" cx="2679.92" cy="-703.2" rx="185.94" ry="37.45"/>
<text text-anchor="middle" x="2679.92" y="-714.5" font-family="Times,serif" font-size="14.00">del</text>
<text text-anchor="middle" x="2679.92" y="-699.5" font-family="Times,serif" font-size="14.00">spcms (prepn)</text>
<text text-anchor="middle" x="2679.92" y="-684.5" font-family="Times,serif" font-size="14.00">rep=no, t=no, r=no, m=yes, c=no</text>
</g>
<!-- n25&#45;&gt;n26 -->
<g id="edge30" class="edge">
<title>n25&#45;&gt;n26</title>
<path fill="none" stroke="black" d="M2537.85,-778.98C2559.42,-767.62 2583.6,-754.89 2605.81,-743.2"/>
<polygon fill="black" stroke="black" points="2607.65,-746.19 2614.87,-738.44 2604.39,-740 2607.65,-746.19"/>
</g>
<!-- n5 -->
<g id="node12" class="node">
<title>n5</title>
<ellipse fill="#98D2A5" stroke="black" cx="1302.92" cy="-592.24" rx="190.84" ry="37.45"/>
<text text-anchor="middle" x="1302.92" y="-603.54" font-family="Times,serif" font-size="14.00">tiene</text>
<text text-anchor="middle" x="1302.92" y="-588.54" font-family="Times,serif" font-size="14.00">vmip3s0 (cobj)</text>
<text text-anchor="middle" x="1302.92" y="-573.54" font-family="Times,serif" font-size="14.00">rep=no, t=no, r=yes, m=yes, c=no</text>
</g>
<!-- n18&#45;&gt;n5 -->
<g id="edge11" class="edge">
<title>n18&#45;&gt;n5</title>
<path fill="none" stroke="black" d="M1302.92,-665.61C1302.92,-657.44 1302.92,-648.66 1302.92,-640.13"/>
<polygon fill="black" stroke="black" points="1306.42,-639.92 1302.92,-629.92 1299.42,-639.92 1306.42,-639.92"/>
</g>
<!-- n3 -->
<g id="node13" class="node">
<title>n3</title>
<ellipse fill="#98D2A5" stroke="black" cx="502.92" cy="-481.29" rx="190.84" ry="37.45"/>
<text text-anchor="middle" x="502.92" y="-492.59" font-family="Times,serif" font-size="14.00">prisi칩n</text>
<text text-anchor="middle" x="502.92" y="-477.59" font-family="Times,serif" font-size="14.00">ncfs000 (nsubj)</text>
<text text-anchor="middle" x="502.92" y="-462.59" font-family="Times,serif" font-size="14.00">rep=no, t=yes, r=no, m=yes, c=no</text>
</g>
<!-- n5&#45;&gt;n3 -->
<g id="edge12" class="edge">
<title>n5&#45;&gt;n3</title>
<path fill="none" stroke="black" d="M1136.38,-573.85C1015.76,-560.59 848.93,-540.88 702.92,-518.77 684.87,-516.03 665.96,-512.92 647.26,-509.68"/>
<polygon fill="black" stroke="black" points="647.66,-506.2 637.21,-507.93 646.46,-513.1 647.66,-506.2"/>
</g>
<!-- n4 -->
<g id="node14" class="node">
<title>n4</title>
<ellipse fill="#98D2A5" stroke="black" cx="902.92" cy="-481.29" rx="190.84" ry="37.45"/>
<text text-anchor="middle" x="902.92" y="-492.59" font-family="Times,serif" font-size="14.00">no</text>
<text text-anchor="middle" x="902.92" y="-477.59" font-family="Times,serif" font-size="14.00">rn (neg)</text>
<text text-anchor="middle" x="902.92" y="-462.59" font-family="Times,serif" font-size="14.00">rep=no, t=no, r=yes, m=yes, c=no</text>
</g>
<!-- n5&#45;&gt;n4 -->
<g id="edge13" class="edge">
<title>n5&#45;&gt;n4</title>
<path fill="none" stroke="black" d="M1193.62,-561.47C1140.48,-547 1076.51,-529.57 1022.12,-514.76"/>
<polygon fill="black" stroke="black" points="1023,-511.37 1012.44,-512.12 1021.16,-518.13 1023,-511.37"/>
</g>
<!-- n6 -->
<g id="node15" class="node">
<title>n6</title>
<ellipse fill="#98D2A5" stroke="black" cx="1302.92" cy="-481.29" rx="190.84" ry="37.45"/>
<text text-anchor="middle" x="1302.92" y="-492.59" font-family="Times,serif" font-size="14.00">que</text>
<text text-anchor="middle" x="1302.92" y="-477.59" font-family="Times,serif" font-size="14.00">cs (conj)</text>
<text text-anchor="middle" x="1302.92" y="-462.59" font-family="Times,serif" font-size="14.00">rep=no, t=no, r=yes, m=yes, c=no</text>
</g>
<!-- n5&#45;&gt;n6 -->
<g id="edge14" class="edge">
<title>n5&#45;&gt;n6</title>
<path fill="none" stroke="black" d="M1302.92,-554.66C1302.92,-546.49 1302.92,-537.71 1302.92,-529.18"/>
<polygon fill="black" stroke="black" points="1306.42,-528.96 1302.92,-518.96 1299.42,-528.96 1306.42,-528.96"/>
</g>
<!-- n8 -->
<g id="node16" class="node">
<title>n8</title>
<ellipse fill="#98D2A5" stroke="black" cx="1702.92" cy="-481.29" rx="190.84" ry="37.45"/>
<text text-anchor="middle" x="1702.92" y="-492.59" font-family="Times,serif" font-size="14.00">&quot;</text>
<text text-anchor="middle" x="1702.92" y="-477.59" font-family="Times,serif" font-size="14.00">fe (punct)</text>
<text text-anchor="middle" x="1702.92" y="-462.59" font-family="Times,serif" font-size="14.00">rep=no, t=no, r=yes, m=yes, c=no</text>
</g>
<!-- n5&#45;&gt;n8 -->
<g id="edge15" class="edge">
<title>n5&#45;&gt;n8</title>
<path fill="none" stroke="black" d="M1412.22,-561.47C1465.36,-547 1529.33,-529.57 1583.71,-514.76"/>
<polygon fill="black" stroke="black" points="1584.67,-518.13 1593.4,-512.12 1582.83,-511.37 1584.67,-518.13"/>
</g>
<!-- n17 -->
<g id="node17" class="node">
<title>n17</title>
<ellipse fill="#98D2A5" stroke="black" cx="2102.92" cy="-481.29" rx="190.84" ry="37.45"/>
<text text-anchor="middle" x="2102.92" y="-492.59" font-family="Times,serif" font-size="14.00">,</text>
<text text-anchor="middle" x="2102.92" y="-477.59" font-family="Times,serif" font-size="14.00">fc (punct)</text>
<text text-anchor="middle" x="2102.92" y="-462.59" font-family="Times,serif" font-size="14.00">rep=no, t=no, r=yes, m=yes, c=no</text>
</g>
<!-- n5&#45;&gt;n17 -->
<g id="edge16" class="edge">
<title>n5&#45;&gt;n17</title>
<path fill="none" stroke="black" d="M1469.46,-573.85C1590.08,-560.59 1756.9,-540.88 1902.92,-518.77 1920.96,-516.03 1939.88,-512.92 1958.57,-509.68"/>
<polygon fill="black" stroke="black" points="1959.38,-513.1 1968.63,-507.93 1958.17,-506.2 1959.38,-513.1"/>
</g>
<!-- n2 -->
<g id="node18" class="node">
<title>n2</title>
<ellipse fill="#98D2A5" stroke="black" cx="502.92" cy="-370.34" rx="190.84" ry="37.45"/>
<text text-anchor="middle" x="502.92" y="-381.64" font-family="Times,serif" font-size="14.00">la</text>
<text text-anchor="middle" x="502.92" y="-366.64" font-family="Times,serif" font-size="14.00">da0fs0 (det)</text>
<text text-anchor="middle" x="502.92" y="-351.64" font-family="Times,serif" font-size="14.00">rep=no, t=yes, r=no, m=yes, c=no</text>
</g>
<!-- n3&#45;&gt;n2 -->
<g id="edge17" class="edge">
<title>n3&#45;&gt;n2</title>
<path fill="none" stroke="black" d="M502.92,-443.71C502.92,-435.53 502.92,-426.75 502.92,-418.23"/>
<polygon fill="black" stroke="black" points="506.42,-418.01 502.92,-408.01 499.42,-418.01 506.42,-418.01"/>
</g>
<!-- n7 -->
<g id="node19" class="node">
<title>n7</title>
<ellipse fill="#98D2A5" stroke="black" cx="1302.92" cy="-370.34" rx="190.84" ry="37.45"/>
<text text-anchor="middle" x="1302.92" y="-381.64" font-family="Times,serif" font-size="14.00">ser</text>
<text text-anchor="middle" x="1302.92" y="-366.64" font-family="Times,serif" font-size="14.00">vsn0000 (cobj)</text>
<text text-anchor="middle" x="1302.92" y="-351.64" font-family="Times,serif" font-size="14.00">rep=no, t=no, r=yes, m=yes, c=no</text>
</g>
<!-- n6&#45;&gt;n7 -->
<g id="edge18" class="edge">
<title>n6&#45;&gt;n7</title>
<path fill="none" stroke="black" d="M1302.92,-443.71C1302.92,-435.53 1302.92,-426.75 1302.92,-418.23"/>
<polygon fill="black" stroke="black" points="1306.42,-418.01 1302.92,-408.01 1299.42,-418.01 1306.42,-418.01"/>
</g>
<!-- n10 -->
<g id="node20" class="node">
<title>n10</title>
<ellipse fill="#98D2A5" stroke="black" cx="1000.92" cy="-259.38" rx="190.84" ry="37.45"/>
<text text-anchor="middle" x="1000.92" y="-270.68" font-family="Times,serif" font-size="14.00">lugar</text>
<text text-anchor="middle" x="1000.92" y="-255.68" font-family="Times,serif" font-size="14.00">ncms000 (dobj)</text>
<text text-anchor="middle" x="1000.92" y="-240.68" font-family="Times,serif" font-size="14.00">rep=no, t=no, r=yes, m=yes, c=no</text>
</g>
<!-- n7&#45;&gt;n10 -->
<g id="edge19" class="edge">
<title>n7&#45;&gt;n10</title>
<path fill="none" stroke="black" d="M1213.53,-337.09C1177.77,-324.19 1136.44,-309.28 1099.78,-296.05"/>
<polygon fill="black" stroke="black" points="1100.67,-292.65 1090.07,-292.55 1098.29,-299.23 1100.67,-292.65"/>
</g>
<!-- n19 -->
<g id="node21" class="node">
<title>n19</title>
<ellipse fill="#98D2A5" stroke="black" cx="1605.92" cy="-259.38" rx="190.84" ry="37.45"/>
<text text-anchor="middle" x="1605.92" y="-270.68" font-family="Times,serif" font-size="14.00">de</text>
<text text-anchor="middle" x="1605.92" y="-255.68" font-family="Times,serif" font-size="14.00">sps00 (prepv)</text>
<text text-anchor="middle" x="1605.92" y="-240.68" font-family="Times,serif" font-size="14.00">rep=no, t=no, r=yes, m=yes, c=no</text>
</g>
<!-- n7&#45;&gt;n19 -->
<g id="edge20" class="edge">
<title>n7&#45;&gt;n19</title>
<path fill="none" stroke="black" d="M1392.6,-337.09C1428.48,-324.19 1469.95,-309.28 1506.73,-296.05"/>
<polygon fill="black" stroke="black" points="1508.24,-299.23 1516.47,-292.55 1505.87,-292.64 1508.24,-299.23"/>
</g>
<!-- n9 -->
<g id="node22" class="node">
<title>n9</title>
<ellipse fill="#98D2A5" stroke="black" cx="190.92" cy="-148.43" rx="190.84" ry="37.45"/>
<text text-anchor="middle" x="190.92" y="-159.73" font-family="Times,serif" font-size="14.00">un</text>
<text text-anchor="middle" x="190.92" y="-144.73" font-family="Times,serif" font-size="14.00">di0ms0 (det)</text>
<text text-anchor="middle" x="190.92" y="-129.73" font-family="Times,serif" font-size="14.00">rep=no, t=no, r=yes, m=yes, c=no</text>
</g>
<!-- n10&#45;&gt;n9 -->
<g id="edge21" class="edge">
<title>n10&#45;&gt;n9</title>
<path fill="none" stroke="black" d="M833.55,-241.33C710.77,-228.13 540.15,-208.36 390.92,-185.91 372.87,-183.19 353.96,-180.09 335.26,-176.86"/>
<polygon fill="black" stroke="black" points="335.66,-173.37 325.2,-175.1 334.46,-180.27 335.66,-173.37"/>
</g>
<!-- n11 -->
<g id="node23" class="node">
<title>n11</title>
<ellipse fill="#98D2A5" stroke="black" cx="595.92" cy="-148.43" rx="195.74" ry="37.45"/>
<text text-anchor="middle" x="595.92" y="-159.73" font-family="Times,serif" font-size="14.00">de</text>
<text text-anchor="middle" x="595.92" y="-144.73" font-family="Times,serif" font-size="14.00">sps00 (dep)</text>
<text text-anchor="middle" x="595.92" y="-129.73" font-family="Times,serif" font-size="14.00">rep=no, t=no, r=yes, m=yes, c=yes</text>
</g>
<!-- n10&#45;&gt;n11 -->
<g id="edge22" class="edge">
<title>n10&#45;&gt;n11</title>
<path fill="none" stroke="black" d="M890.79,-228.76C836.98,-214.28 772.1,-196.83 716.92,-181.98"/>
<polygon fill="black" stroke="black" points="717.65,-178.55 707.09,-179.34 715.83,-185.31 717.65,-178.55"/>
</g>
<!-- n13 -->
<g id="node24" class="node">
<title>n13</title>
<ellipse fill="#98D2A5" stroke="black" cx="1000.92" cy="-148.43" rx="190.84" ry="37.45"/>
<text text-anchor="middle" x="1000.92" y="-159.73" font-family="Times,serif" font-size="14.00">y</text>
<text text-anchor="middle" x="1000.92" y="-144.73" font-family="Times,serif" font-size="14.00">cc (coord_fixed)</text>
<text text-anchor="middle" x="1000.92" y="-129.73" font-family="Times,serif" font-size="14.00">rep=no, t=no, r=yes, m=yes, c=no</text>
</g>
<!-- n10&#45;&gt;n13 -->
<g id="edge23" class="edge">
<title>n10&#45;&gt;n13</title>
<path fill="none" stroke="black" d="M1000.92,-221.8C1000.92,-213.63 1000.92,-204.85 1000.92,-196.32"/>
<polygon fill="black" stroke="black" points="1004.42,-196.1 1000.92,-186.1 997.42,-196.1 1004.42,-196.1"/>
</g>
<!-- n15 -->
<g id="node25" class="node">
<title>n15</title>
<ellipse fill="#98D2A5" stroke="black" cx="1405.92" cy="-148.43" rx="195.74" ry="37.45"/>
<text text-anchor="middle" x="1405.92" y="-159.73" font-family="Times,serif" font-size="14.00">de</text>
<text text-anchor="middle" x="1405.92" y="-144.73" font-family="Times,serif" font-size="14.00">sps00 (dep)</text>
<text text-anchor="middle" x="1405.92" y="-129.73" font-family="Times,serif" font-size="14.00">rep=no, t=no, r=yes, m=yes, c=yes</text>
</g>
<!-- n10&#45;&gt;n15 -->
<g id="edge24" class="edge">
<title>n10&#45;&gt;n15</title>
<path fill="none" stroke="black" d="M1111.05,-228.76C1164.86,-214.28 1229.74,-196.83 1284.92,-181.98"/>
<polygon fill="black" stroke="black" points="1286,-185.31 1294.75,-179.34 1284.19,-178.55 1286,-185.31"/>
</g>
<!-- n20 -->
<g id="node29" class="node">
<title>n20</title>
<ellipse fill="#98D2A5" stroke="black" cx="1810.92" cy="-148.43" rx="190.84" ry="37.45"/>
<text text-anchor="middle" x="1810.92" y="-159.73" font-family="Times,serif" font-size="14.00">redenci칩n</text>
<text text-anchor="middle" x="1810.92" y="-144.73" font-family="Times,serif" font-size="14.00">ncfs000 (pobj)</text>
<text text-anchor="middle" x="1810.92" y="-129.73" font-family="Times,serif" font-size="14.00">rep=no, t=no, r=yes, m=yes, c=no</text>
</g>
<!-- n19&#45;&gt;n20 -->
<g id="edge28" class="edge">
<title>n19&#45;&gt;n20</title>
<path fill="none" stroke="black" d="M1670.5,-224.06C1691.75,-212.77 1715.53,-200.13 1737.39,-188.51"/>
<polygon fill="black" stroke="black" points="1739.12,-191.55 1746.31,-183.77 1735.84,-185.37 1739.12,-191.55"/>
</g>
<!-- n12 -->
<g id="node26" class="node">
<title>n12</title>
<ellipse fill="#98D2A5" stroke="black" cx="595.92" cy="-37.48" rx="190.84" ry="37.45"/>
<text text-anchor="middle" x="595.92" y="-48.78" font-family="Times,serif" font-size="14.00">ocio</text>
<text text-anchor="middle" x="595.92" y="-33.78" font-family="Times,serif" font-size="14.00">ncms000 (pobj)</text>
<text text-anchor="middle" x="595.92" y="-18.78" font-family="Times,serif" font-size="14.00">rep=no, t=no, r=yes, m=yes, c=no</text>
</g>
<!-- n11&#45;&gt;n12 -->
<g id="edge25" class="edge">
<title>n11&#45;&gt;n12</title>
<path fill="none" stroke="black" d="M595.92,-110.85C595.92,-102.67 595.92,-93.89 595.92,-85.37"/>
<polygon fill="black" stroke="black" points="599.42,-85.15 595.92,-75.15 592.42,-85.15 599.42,-85.15"/>
</g>
<!-- n14 -->
<g id="node27" class="node">
<title>n14</title>
<ellipse fill="#98D2A5" stroke="black" cx="1205.92" cy="-37.48" rx="190.84" ry="37.45"/>
<text text-anchor="middle" x="1205.92" y="-48.78" font-family="Times,serif" font-size="14.00">quiz치</text>
<text text-anchor="middle" x="1205.92" y="-33.78" font-family="Times,serif" font-size="14.00">rg (advmod)</text>
<text text-anchor="middle" x="1205.92" y="-18.78" font-family="Times,serif" font-size="14.00">rep=no, t=no, r=yes, m=yes, c=no</text>
</g>
<!-- n15&#45;&gt;n14 -->
<g id="edge26" class="edge">
<title>n15&#45;&gt;n14</title>
<path fill="none" stroke="black" d="M1342.64,-112.96C1322.11,-101.77 1299.18,-89.28 1278.06,-77.78"/>
<polygon fill="black" stroke="black" points="1279.59,-74.62 1269.13,-72.91 1276.24,-80.77 1279.59,-74.62"/>
</g>
<!-- n16 -->
<g id="node28" class="node">
<title>n16</title>
<ellipse fill="#98D2A5" stroke="black" cx="1605.92" cy="-37.48" rx="190.84" ry="37.45"/>
<text text-anchor="middle" x="1605.92" y="-48.78" font-family="Times,serif" font-size="14.00">vicio</text>
<text text-anchor="middle" x="1605.92" y="-33.78" font-family="Times,serif" font-size="14.00">ncms000 (pobj)</text>
<text text-anchor="middle" x="1605.92" y="-18.78" font-family="Times,serif" font-size="14.00">rep=no, t=no, r=yes, m=yes, c=no</text>
</g>
<!-- n15&#45;&gt;n16 -->
<g id="edge27" class="edge">
<title>n15&#45;&gt;n16</title>
<path fill="none" stroke="black" d="M1469.2,-112.96C1489.73,-101.77 1512.65,-89.28 1533.78,-77.78"/>
<polygon fill="black" stroke="black" points="1535.6,-80.77 1542.71,-72.91 1532.25,-74.62 1535.6,-80.77"/>
</g>
<!-- n27 -->
<g id="node32" class="node">
<title>n27</title>
<ellipse fill="#98D2A5" stroke="black" cx="2679.92" cy="-592.24" rx="185.94" ry="37.45"/>
<text text-anchor="middle" x="2679.92" y="-603.54" font-family="Times,serif" font-size="14.00">sistema</text>
<text text-anchor="middle" x="2679.92" y="-588.54" font-family="Times,serif" font-size="14.00">ncms000 (pobj)</text>
<text text-anchor="middle" x="2679.92" y="-573.54" font-family="Times,serif" font-size="14.00">rep=no, t=no, r=no, m=yes, c=no</text>
</g>
<!-- n26&#45;&gt;n27 -->
<g id="edge31" class="edge">
<title>n26&#45;&gt;n27</title>
<path fill="none" stroke="black" d="M2679.92,-665.61C2679.92,-657.44 2679.92,-648.66 2679.92,-640.13"/>
<polygon fill="black" stroke="black" points="2683.42,-639.92 2679.92,-629.92 2676.42,-639.92 2683.42,-639.92"/>
</g>
<!-- n28 -->
<g id="node33" class="node">
<title>n28</title>
<ellipse fill="#98D2A5" stroke="black" cx="2679.92" cy="-481.29" rx="185.94" ry="37.45"/>
<text text-anchor="middle" x="2679.92" y="-492.59" font-family="Times,serif" font-size="14.00">penitenciario</text>
<text text-anchor="middle" x="2679.92" y="-477.59" font-family="Times,serif" font-size="14.00">aq0ms0 (amod)</text>
<text text-anchor="middle" x="2679.92" y="-462.59" font-family="Times,serif" font-size="14.00">rep=no, t=no, r=no, m=yes, c=no</text>
</g>
<!-- n27&#45;&gt;n28 -->
<g id="edge32" class="edge">
<title>n27&#45;&gt;n28</title>
<path fill="none" stroke="black" d="M2679.92,-554.66C2679.92,-546.49 2679.92,-537.71 2679.92,-529.18"/>
<polygon fill="black" stroke="black" points="2683.42,-528.96 2679.92,-518.96 2676.42,-528.96 2683.42,-528.96"/>
</g>
</g>
</svg>
