<?xml version="1.0" encoding="UTF-8" standalone="no"?>
<!DOCTYPE svg PUBLIC "-//W3C//DTD SVG 1.1//EN"
 "http://www.w3.org/Graphics/SVG/1.1/DTD/svg11.dtd">
<!-- Generated by graphviz version 2.43.0 (0)
 -->
<!-- Title: tree Pages: 1 -->
<svg width="2360pt" height="527pt"
 viewBox="0.00 0.00 2359.89 526.77" xmlns="http://www.w3.org/2000/svg" xmlns:xlink="http://www.w3.org/1999/xlink">
<g id="graph0" class="graph" transform="scale(1 1) rotate(0) translate(4 522.77)">
<title>tree</title>
<polygon fill="white" stroke="transparent" points="-4,4 -4,-522.77 2355.89,-522.77 2355.89,4 -4,4"/>
<!-- n4 -->
<g id="node1" class="node">
<title>n4</title>
<ellipse fill="none" stroke="black" cx="1370.97" cy="-481.29" rx="181.95" ry="37.45"/>
<text text-anchor="middle" x="1370.97" y="-492.59" font-family="Times,serif" font-size="14.00">agregaron</text>
<text text-anchor="middle" x="1370.97" y="-477.59" font-family="Times,serif" font-size="14.00">vmis3p0 (root)</text>
<text text-anchor="middle" x="1370.97" y="-462.59" font-family="Times,serif" font-size="14.00">rep=no, t=no, r=no, m=no, c=no</text>
</g>
<!-- n3 -->
<g id="node2" class="node">
<title>n3</title>
<ellipse fill="none" stroke="black" cx="575.97" cy="-370.34" rx="185.94" ry="37.45"/>
<text text-anchor="middle" x="575.97" y="-381.64" font-family="Times,serif" font-size="14.00">fuentes</text>
<text text-anchor="middle" x="575.97" y="-366.64" font-family="Times,serif" font-size="14.00">ncfp000 (nsubj)</text>
<text text-anchor="middle" x="575.97" y="-351.64" font-family="Times,serif" font-size="14.00">rep=yes, t=no, r=no, m=no, c=no</text>
</g>
<!-- n4&#45;&gt;n3 -->
<g id="edge1" class="edge">
<title>n4&#45;&gt;n3</title>
<path fill="none" stroke="black" d="M1221.44,-459.8C1083.51,-440.89 879.27,-412.9 737.62,-393.49"/>
<polygon fill="black" stroke="black" points="737.92,-390 727.53,-392.11 736.97,-396.93 737.92,-390"/>
</g>
<!-- n5 -->
<g id="node3" class="node">
<title>n5</title>
<ellipse fill="none" stroke="black" cx="1370.97" cy="-370.34" rx="181.95" ry="37.45"/>
<text text-anchor="middle" x="1370.97" y="-381.64" font-family="Times,serif" font-size="14.00">que</text>
<text text-anchor="middle" x="1370.97" y="-366.64" font-family="Times,serif" font-size="14.00">cs (dobj)</text>
<text text-anchor="middle" x="1370.97" y="-351.64" font-family="Times,serif" font-size="14.00">rep=no, t=no, r=no, m=no, c=no</text>
</g>
<!-- n4&#45;&gt;n5 -->
<g id="edge2" class="edge">
<title>n4&#45;&gt;n5</title>
<path fill="none" stroke="black" d="M1370.97,-443.71C1370.97,-435.53 1370.97,-426.75 1370.97,-418.23"/>
<polygon fill="black" stroke="black" points="1374.47,-418.01 1370.97,-408.01 1367.47,-418.01 1374.47,-418.01"/>
</g>
<!-- n16 -->
<g id="node4" class="node">
<title>n16</title>
<ellipse fill="none" stroke="black" cx="1751.97" cy="-370.34" rx="181.95" ry="37.45"/>
<text text-anchor="middle" x="1751.97" y="-381.64" font-family="Times,serif" font-size="14.00">.</text>
<text text-anchor="middle" x="1751.97" y="-366.64" font-family="Times,serif" font-size="14.00">fp (punct)</text>
<text text-anchor="middle" x="1751.97" y="-351.64" font-family="Times,serif" font-size="14.00">rep=no, t=no, r=no, m=no, c=no</text>
</g>
<!-- n4&#45;&gt;n16 -->
<g id="edge3" class="edge">
<title>n4&#45;&gt;n16</title>
<path fill="none" stroke="black" d="M1475.08,-450.52C1525.58,-436.08 1586.37,-418.69 1638.1,-403.9"/>
<polygon fill="black" stroke="black" points="1639.33,-407.19 1647.99,-401.07 1637.41,-400.46 1639.33,-407.19"/>
</g>
<!-- n1 -->
<g id="node5" class="node">
<title>n1</title>
<ellipse fill="none" stroke="black" cx="185.97" cy="-259.38" rx="185.94" ry="37.45"/>
<text text-anchor="middle" x="185.97" y="-270.68" font-family="Times,serif" font-size="14.00">Las</text>
<text text-anchor="middle" x="185.97" y="-255.68" font-family="Times,serif" font-size="14.00">da0fp0 (det)</text>
<text text-anchor="middle" x="185.97" y="-240.68" font-family="Times,serif" font-size="14.00">rep=yes, t=no, r=no, m=no, c=no</text>
</g>
<!-- n3&#45;&gt;n1 -->
<g id="edge4" class="edge">
<title>n3&#45;&gt;n1</title>
<path fill="none" stroke="black" d="M469.4,-339.56C417.59,-325.09 355.23,-307.67 302.2,-292.85"/>
<polygon fill="black" stroke="black" points="302.98,-289.44 292.41,-290.12 301.1,-296.18 302.98,-289.44"/>
</g>
<!-- n2 -->
<g id="node6" class="node">
<title>n2</title>
<ellipse fill="none" stroke="black" cx="575.97" cy="-259.38" rx="185.94" ry="37.45"/>
<text text-anchor="middle" x="575.97" y="-270.68" font-family="Times,serif" font-size="14.00">mismas</text>
<text text-anchor="middle" x="575.97" y="-255.68" font-family="Times,serif" font-size="14.00">di0fp0 (det)</text>
<text text-anchor="middle" x="575.97" y="-240.68" font-family="Times,serif" font-size="14.00">rep=yes, t=no, r=no, m=no, c=no</text>
</g>
<!-- n3&#45;&gt;n2 -->
<g id="edge5" class="edge">
<title>n3&#45;&gt;n2</title>
<path fill="none" stroke="black" d="M575.97,-332.75C575.97,-324.58 575.97,-315.8 575.97,-307.27"/>
<polygon fill="black" stroke="black" points="579.47,-307.06 575.97,-297.06 572.47,-307.06 579.47,-307.06"/>
</g>
<!-- n8 -->
<g id="node7" class="node">
<title>n8</title>
<ellipse fill="none" stroke="black" cx="970.97" cy="-259.38" rx="190.84" ry="37.45"/>
<text text-anchor="middle" x="970.97" y="-270.68" font-family="Times,serif" font-size="14.00">buscaban</text>
<text text-anchor="middle" x="970.97" y="-255.68" font-family="Times,serif" font-size="14.00">vmii3p0 (cobj)</text>
<text text-anchor="middle" x="970.97" y="-240.68" font-family="Times,serif" font-size="14.00">rep=no, t=no, r=no, m=yes, c=yes</text>
</g>
<!-- n5&#45;&gt;n8 -->
<g id="edge6" class="edge">
<title>n5&#45;&gt;n8</title>
<path fill="none" stroke="black" d="M1263.51,-340.07C1210.03,-325.5 1145.22,-307.85 1090.21,-292.86"/>
<polygon fill="black" stroke="black" points="1090.98,-289.44 1080.41,-290.19 1089.14,-296.2 1090.98,-289.44"/>
</g>
<!-- n9 -->
<g id="node8" class="node">
<title>n9</title>
<ellipse fill="none" stroke="black" cx="1370.97" cy="-259.38" rx="190.84" ry="37.45"/>
<text text-anchor="middle" x="1370.97" y="-270.68" font-family="Times,serif" font-size="14.00">joyas</text>
<text text-anchor="middle" x="1370.97" y="-255.68" font-family="Times,serif" font-size="14.00">ncfp000 (cobj)</text>
<text text-anchor="middle" x="1370.97" y="-240.68" font-family="Times,serif" font-size="14.00">rep=no, t=no, r=no, m=yes, c=yes</text>
</g>
<!-- n5&#45;&gt;n9 -->
<g id="edge7" class="edge">
<title>n5&#45;&gt;n9</title>
<path fill="none" stroke="black" d="M1370.97,-332.75C1370.97,-324.58 1370.97,-315.8 1370.97,-307.27"/>
<polygon fill="black" stroke="black" points="1374.47,-307.06 1370.97,-297.06 1367.47,-307.06 1374.47,-307.06"/>
</g>
<!-- n10 -->
<g id="node9" class="node">
<title>n10</title>
<ellipse fill="none" stroke="black" cx="1765.97" cy="-259.38" rx="185.94" ry="37.45"/>
<text text-anchor="middle" x="1765.97" y="-270.68" font-family="Times,serif" font-size="14.00">y</text>
<text text-anchor="middle" x="1765.97" y="-255.68" font-family="Times,serif" font-size="14.00">cc (coord_fixed)</text>
<text text-anchor="middle" x="1765.97" y="-240.68" font-family="Times,serif" font-size="14.00">rep=no, t=no, r=no, m=yes, c=no</text>
</g>
<!-- n5&#45;&gt;n10 -->
<g id="edge8" class="edge">
<title>n5&#45;&gt;n10</title>
<path fill="none" stroke="black" d="M1477.6,-339.92C1530.52,-325.33 1594.57,-307.66 1648.85,-292.69"/>
<polygon fill="black" stroke="black" points="1649.8,-296.06 1658.51,-290.02 1647.94,-289.31 1649.8,-296.06"/>
</g>
<!-- n11 -->
<g id="node10" class="node">
<title>n11</title>
<ellipse fill="none" stroke="black" cx="2160.97" cy="-259.38" rx="190.84" ry="37.45"/>
<text text-anchor="middle" x="2160.97" y="-270.68" font-family="Times,serif" font-size="14.00">dinero</text>
<text text-anchor="middle" x="2160.97" y="-255.68" font-family="Times,serif" font-size="14.00">ncms000 (cobj)</text>
<text text-anchor="middle" x="2160.97" y="-240.68" font-family="Times,serif" font-size="14.00">rep=no, t=no, r=no, m=yes, c=yes</text>
</g>
<!-- n5&#45;&gt;n11 -->
<g id="edge9" class="edge">
<title>n5&#45;&gt;n11</title>
<path fill="none" stroke="black" d="M1497.15,-343.29C1518.39,-339.42 1540.26,-335.77 1560.97,-332.86 1737.73,-308 1784.1,-320.9 1960.97,-296.86 1979.51,-294.34 1998.95,-291.3 2018.11,-288.06"/>
<polygon fill="black" stroke="black" points="2018.84,-291.49 2028.11,-286.35 2017.66,-284.59 2018.84,-291.49"/>
</g>
<!-- n7 -->
<g id="node11" class="node">
<title>n7</title>
<ellipse fill="#BEDA48" stroke="black" cx="970.97" cy="-148.43" rx="190.84" ry="37.45"/>
<text text-anchor="middle" x="970.97" y="-159.73" font-family="Times,serif" font-size="14.00">ladrones</text>
<text text-anchor="middle" x="970.97" y="-144.73" font-family="Times,serif" font-size="14.00">ncmp000 (nsubj)</text>
<text text-anchor="middle" x="970.97" y="-129.73" font-family="Times,serif" font-size="14.00">rep=no, t=yes, r=no, m=yes, c=no</text>
</g>
<!-- n8&#45;&gt;n7 -->
<g id="edge10" class="edge">
<title>n8&#45;&gt;n7</title>
<path fill="none" stroke="black" d="M970.97,-221.8C970.97,-213.63 970.97,-204.85 970.97,-196.32"/>
<polygon fill="black" stroke="black" points="974.47,-196.1 970.97,-186.1 967.47,-196.1 974.47,-196.1"/>
</g>
<!-- n12 -->
<g id="node13" class="node">
<title>n12</title>
<ellipse fill="none" stroke="black" cx="1570.97" cy="-148.43" rx="185.94" ry="37.45"/>
<text text-anchor="middle" x="1570.97" y="-159.73" font-family="Times,serif" font-size="14.00">,</text>
<text text-anchor="middle" x="1570.97" y="-144.73" font-family="Times,serif" font-size="14.00">fc (punct)</text>
<text text-anchor="middle" x="1570.97" y="-129.73" font-family="Times,serif" font-size="14.00">rep=no, t=no, r=no, m=yes, c=no</text>
</g>
<!-- n10&#45;&gt;n12 -->
<g id="edge12" class="edge">
<title>n10&#45;&gt;n12</title>
<path fill="none" stroke="black" d="M1704.27,-223.91C1684.34,-212.78 1662.1,-200.35 1641.58,-188.89"/>
<polygon fill="black" stroke="black" points="1643.04,-185.69 1632.6,-183.87 1639.62,-191.8 1643.04,-185.69"/>
</g>
<!-- n15 -->
<g id="node14" class="node">
<title>n15</title>
<ellipse fill="none" stroke="black" cx="1960.97" cy="-148.43" rx="185.94" ry="37.45"/>
<text text-anchor="middle" x="1960.97" y="-159.73" font-family="Times,serif" font-size="14.00">hallaron</text>
<text text-anchor="middle" x="1960.97" y="-144.73" font-family="Times,serif" font-size="14.00">vmis3p0 (rcmod)</text>
<text text-anchor="middle" x="1960.97" y="-129.73" font-family="Times,serif" font-size="14.00">rep=no, t=no, r=no, m=yes, c=no</text>
</g>
<!-- n10&#45;&gt;n15 -->
<g id="edge13" class="edge">
<title>n10&#45;&gt;n15</title>
<path fill="none" stroke="black" d="M1827.67,-223.91C1847.59,-212.78 1869.84,-200.35 1890.35,-188.89"/>
<polygon fill="black" stroke="black" points="1892.31,-191.8 1899.34,-183.87 1888.9,-185.69 1892.31,-191.8"/>
</g>
<!-- n6 -->
<g id="node12" class="node">
<title>n6</title>
<ellipse fill="#BEDA48" stroke="black" cx="970.97" cy="-37.48" rx="190.84" ry="37.45"/>
<text text-anchor="middle" x="970.97" y="-48.78" font-family="Times,serif" font-size="14.00">los</text>
<text text-anchor="middle" x="970.97" y="-33.78" font-family="Times,serif" font-size="14.00">da0mp0 (det)</text>
<text text-anchor="middle" x="970.97" y="-18.78" font-family="Times,serif" font-size="14.00">rep=no, t=yes, r=no, m=yes, c=no</text>
</g>
<!-- n7&#45;&gt;n6 -->
<g id="edge11" class="edge">
<title>n7&#45;&gt;n6</title>
<path fill="none" stroke="black" d="M970.97,-110.85C970.97,-102.67 970.97,-93.89 970.97,-85.37"/>
<polygon fill="black" stroke="black" points="974.47,-85.15 970.97,-75.15 967.47,-85.15 974.47,-85.15"/>
</g>
<!-- n13 -->
<g id="node15" class="node">
<title>n13</title>
<ellipse fill="none" stroke="black" cx="1765.97" cy="-37.48" rx="185.94" ry="37.45"/>
<text text-anchor="middle" x="1765.97" y="-48.78" font-family="Times,serif" font-size="14.00">que</text>
<text text-anchor="middle" x="1765.97" y="-33.78" font-family="Times,serif" font-size="14.00">pr0cn000 (dobj)</text>
<text text-anchor="middle" x="1765.97" y="-18.78" font-family="Times,serif" font-size="14.00">rep=no, t=no, r=no, m=yes, c=no</text>
</g>
<!-- n15&#45;&gt;n13 -->
<g id="edge14" class="edge">
<title>n15&#45;&gt;n13</title>
<path fill="none" stroke="black" d="M1899.27,-112.96C1879.34,-101.82 1857.1,-89.4 1836.58,-77.93"/>
<polygon fill="black" stroke="black" points="1838.04,-74.74 1827.6,-72.91 1834.62,-80.85 1838.04,-74.74"/>
</g>
<!-- n14 -->
<g id="node16" class="node">
<title>n14</title>
<ellipse fill="none" stroke="black" cx="2155.97" cy="-37.48" rx="185.94" ry="37.45"/>
<text text-anchor="middle" x="2155.97" y="-48.78" font-family="Times,serif" font-size="14.00">no</text>
<text text-anchor="middle" x="2155.97" y="-33.78" font-family="Times,serif" font-size="14.00">rn (neg)</text>
<text text-anchor="middle" x="2155.97" y="-18.78" font-family="Times,serif" font-size="14.00">rep=no, t=no, r=no, m=yes, c=no</text>
</g>
<!-- n15&#45;&gt;n14 -->
<g id="edge15" class="edge">
<title>n15&#45;&gt;n14</title>
<path fill="none" stroke="black" d="M2022.67,-112.96C2042.59,-101.82 2064.84,-89.4 2085.35,-77.93"/>
<polygon fill="black" stroke="black" points="2087.31,-80.85 2094.34,-72.91 2083.9,-74.74 2087.31,-80.85"/>
</g>
</g>
</svg>
