<?xml version="1.0" encoding="UTF-8" standalone="no"?>
<!DOCTYPE svg PUBLIC "-//W3C//DTD SVG 1.1//EN"
 "http://www.w3.org/Graphics/SVG/1.1/DTD/svg11.dtd">
<!-- Generated by graphviz version 2.43.0 (0)
 -->
<!-- Title: tree Pages: 1 -->
<svg width="2428pt" height="860pt"
 viewBox="0.00 0.00 2427.89 859.63" xmlns="http://www.w3.org/2000/svg" xmlns:xlink="http://www.w3.org/1999/xlink">
<g id="graph0" class="graph" transform="scale(1 1) rotate(0) translate(4 855.63)">
<title>tree</title>
<polygon fill="white" stroke="transparent" points="-4,4 -4,-855.63 2423.89,-855.63 2423.89,4 -4,4"/>
<!-- n5 -->
<g id="node1" class="node">
<title>n5</title>
<ellipse fill="none" stroke="black" cx="1147.97" cy="-814.15" rx="181.95" ry="37.45"/>
<text text-anchor="middle" x="1147.97" y="-825.45" font-family="Times,serif" font-size="14.00">desmintieron</text>
<text text-anchor="middle" x="1147.97" y="-810.45" font-family="Times,serif" font-size="14.00">vmis3p0 (root)</text>
<text text-anchor="middle" x="1147.97" y="-795.45" font-family="Times,serif" font-size="14.00">rep=no, t=no, r=no, m=no, c=no</text>
</g>
<!-- n2 -->
<g id="node2" class="node">
<title>n2</title>
<ellipse fill="none" stroke="black" cx="380.97" cy="-703.2" rx="185.94" ry="37.45"/>
<text text-anchor="middle" x="380.97" y="-714.5" font-family="Times,serif" font-size="14.00">autoridades</text>
<text text-anchor="middle" x="380.97" y="-699.5" font-family="Times,serif" font-size="14.00">ncfp000 (nsubj)</text>
<text text-anchor="middle" x="380.97" y="-684.5" font-family="Times,serif" font-size="14.00">rep=yes, t=no, r=no, m=no, c=no</text>
</g>
<!-- n5&#45;&gt;n2 -->
<g id="edge1" class="edge">
<title>n5&#45;&gt;n2</title>
<path fill="none" stroke="black" d="M989.8,-795.64C874.77,-782.3 715.41,-762.53 575.97,-740.67 558.53,-737.94 540.25,-734.84 522.18,-731.63"/>
<polygon fill="black" stroke="black" points="522.63,-728.15 512.16,-729.83 521.39,-735.04 522.63,-728.15"/>
</g>
<!-- n4 -->
<g id="node3" class="node">
<title>n4</title>
<ellipse fill="none" stroke="black" cx="766.97" cy="-703.2" rx="181.95" ry="37.45"/>
<text text-anchor="middle" x="766.97" y="-714.5" font-family="Times,serif" font-size="14.00">no</text>
<text text-anchor="middle" x="766.97" y="-699.5" font-family="Times,serif" font-size="14.00">rn (neg)</text>
<text text-anchor="middle" x="766.97" y="-684.5" font-family="Times,serif" font-size="14.00">rep=no, t=no, r=no, m=no, c=no</text>
</g>
<!-- n5&#45;&gt;n4 -->
<g id="edge2" class="edge">
<title>n5&#45;&gt;n4</title>
<path fill="none" stroke="black" d="M1043.86,-783.38C993.35,-768.94 932.57,-751.55 880.84,-736.76"/>
<polygon fill="black" stroke="black" points="881.53,-733.32 870.95,-733.93 879.61,-740.05 881.53,-733.32"/>
</g>
<!-- n6 -->
<g id="node4" class="node">
<title>n6</title>
<ellipse fill="none" stroke="black" cx="1147.97" cy="-703.2" rx="181.95" ry="37.45"/>
<text text-anchor="middle" x="1147.97" y="-714.5" font-family="Times,serif" font-size="14.00">ayer</text>
<text text-anchor="middle" x="1147.97" y="-699.5" font-family="Times,serif" font-size="14.00">rg (advmod)</text>
<text text-anchor="middle" x="1147.97" y="-684.5" font-family="Times,serif" font-size="14.00">rep=no, t=no, r=no, m=no, c=no</text>
</g>
<!-- n5&#45;&gt;n6 -->
<g id="edge3" class="edge">
<title>n5&#45;&gt;n6</title>
<path fill="none" stroke="black" d="M1147.97,-776.57C1147.97,-768.39 1147.97,-759.61 1147.97,-751.09"/>
<polygon fill="black" stroke="black" points="1151.47,-750.87 1147.97,-740.87 1144.47,-750.87 1151.47,-750.87"/>
</g>
<!-- n7 -->
<g id="node5" class="node">
<title>n7</title>
<ellipse fill="none" stroke="black" cx="1528.97" cy="-703.2" rx="181.95" ry="37.45"/>
<text text-anchor="middle" x="1528.97" y="-714.5" font-family="Times,serif" font-size="14.00">que</text>
<text text-anchor="middle" x="1528.97" y="-699.5" font-family="Times,serif" font-size="14.00">cs (dobj)</text>
<text text-anchor="middle" x="1528.97" y="-684.5" font-family="Times,serif" font-size="14.00">rep=no, t=no, r=no, m=no, c=no</text>
</g>
<!-- n5&#45;&gt;n7 -->
<g id="edge4" class="edge">
<title>n5&#45;&gt;n7</title>
<path fill="none" stroke="black" d="M1252.08,-783.38C1302.58,-768.94 1363.37,-751.55 1415.1,-736.76"/>
<polygon fill="black" stroke="black" points="1416.33,-740.05 1424.99,-733.93 1414.41,-733.32 1416.33,-740.05"/>
</g>
<!-- n21 -->
<g id="node6" class="node">
<title>n21</title>
<ellipse fill="none" stroke="black" cx="1909.97" cy="-703.2" rx="181.95" ry="37.45"/>
<text text-anchor="middle" x="1909.97" y="-714.5" font-family="Times,serif" font-size="14.00">.</text>
<text text-anchor="middle" x="1909.97" y="-699.5" font-family="Times,serif" font-size="14.00">fp (punct)</text>
<text text-anchor="middle" x="1909.97" y="-684.5" font-family="Times,serif" font-size="14.00">rep=no, t=no, r=no, m=no, c=no</text>
</g>
<!-- n5&#45;&gt;n21 -->
<g id="edge5" class="edge">
<title>n5&#45;&gt;n21</title>
<path fill="none" stroke="black" d="M1306.47,-795.81C1421.5,-782.56 1580.71,-762.84 1719.97,-740.67 1736.81,-737.99 1754.45,-734.94 1771.91,-731.77"/>
<polygon fill="black" stroke="black" points="1772.95,-735.13 1782.16,-729.89 1771.69,-728.25 1772.95,-735.13"/>
</g>
<!-- n1 -->
<g id="node7" class="node">
<title>n1</title>
<ellipse fill="none" stroke="black" cx="185.97" cy="-592.24" rx="185.94" ry="37.45"/>
<text text-anchor="middle" x="185.97" y="-603.54" font-family="Times,serif" font-size="14.00">Las</text>
<text text-anchor="middle" x="185.97" y="-588.54" font-family="Times,serif" font-size="14.00">da0fp0 (det)</text>
<text text-anchor="middle" x="185.97" y="-573.54" font-family="Times,serif" font-size="14.00">rep=yes, t=no, r=no, m=no, c=no</text>
</g>
<!-- n2&#45;&gt;n1 -->
<g id="edge6" class="edge">
<title>n2&#45;&gt;n1</title>
<path fill="none" stroke="black" d="M319.27,-667.72C299.34,-656.59 277.1,-644.16 256.58,-632.7"/>
<polygon fill="black" stroke="black" points="258.04,-629.5 247.6,-627.68 254.62,-635.61 258.04,-629.5"/>
</g>
<!-- n3 -->
<g id="node8" class="node">
<title>n3</title>
<ellipse fill="none" stroke="black" cx="575.97" cy="-592.24" rx="185.94" ry="37.45"/>
<text text-anchor="middle" x="575.97" y="-603.54" font-family="Times,serif" font-size="14.00">israelís</text>
<text text-anchor="middle" x="575.97" y="-588.54" font-family="Times,serif" font-size="14.00">aq0cp0 (amod)</text>
<text text-anchor="middle" x="575.97" y="-573.54" font-family="Times,serif" font-size="14.00">rep=yes, t=no, r=no, m=no, c=no</text>
</g>
<!-- n2&#45;&gt;n3 -->
<g id="edge7" class="edge">
<title>n2&#45;&gt;n3</title>
<path fill="none" stroke="black" d="M442.67,-667.72C462.59,-656.59 484.84,-644.16 505.35,-632.7"/>
<polygon fill="black" stroke="black" points="507.31,-635.61 514.34,-627.68 503.9,-629.5 507.31,-635.61"/>
</g>
<!-- n9 -->
<g id="node9" class="node">
<title>n9</title>
<ellipse fill="#98D2A5" stroke="black" cx="1528.97" cy="-592.24" rx="190.84" ry="37.45"/>
<text text-anchor="middle" x="1528.97" y="-603.54" font-family="Times,serif" font-size="14.00">traspase</text>
<text text-anchor="middle" x="1528.97" y="-588.54" font-family="Times,serif" font-size="14.00">vmsp3s0 (cobj)</text>
<text text-anchor="middle" x="1528.97" y="-573.54" font-family="Times,serif" font-size="14.00">rep=no, t=no, r=yes, m=yes, c=no</text>
</g>
<!-- n7&#45;&gt;n9 -->
<g id="edge8" class="edge">
<title>n7&#45;&gt;n9</title>
<path fill="none" stroke="black" d="M1528.97,-665.61C1528.97,-657.44 1528.97,-648.66 1528.97,-640.13"/>
<polygon fill="black" stroke="black" points="1532.47,-639.92 1528.97,-629.92 1525.47,-639.92 1532.47,-639.92"/>
</g>
<!-- n8 -->
<g id="node10" class="node">
<title>n8</title>
<ellipse fill="#98D2A5" stroke="black" cx="1128.97" cy="-481.29" rx="190.84" ry="37.45"/>
<text text-anchor="middle" x="1128.97" y="-492.59" font-family="Times,serif" font-size="14.00">Barak</text>
<text text-anchor="middle" x="1128.97" y="-477.59" font-family="Times,serif" font-size="14.00">np00000 (nsubj)</text>
<text text-anchor="middle" x="1128.97" y="-462.59" font-family="Times,serif" font-size="14.00">rep=no, t=yes, r=no, m=yes, c=no</text>
</g>
<!-- n9&#45;&gt;n8 -->
<g id="edge9" class="edge">
<title>n9&#45;&gt;n8</title>
<path fill="none" stroke="black" d="M1419.67,-561.47C1366.53,-547 1302.56,-529.57 1248.17,-514.76"/>
<polygon fill="black" stroke="black" points="1249.05,-511.37 1238.49,-512.12 1247.21,-518.13 1249.05,-511.37"/>
</g>
<!-- n11 -->
<g id="node11" class="node">
<title>n11</title>
<ellipse fill="#98D2A5" stroke="black" cx="1528.97" cy="-481.29" rx="190.84" ry="37.45"/>
<text text-anchor="middle" x="1528.97" y="-492.59" font-family="Times,serif" font-size="14.00">barrios</text>
<text text-anchor="middle" x="1528.97" y="-477.59" font-family="Times,serif" font-size="14.00">ncmp000 (dobj)</text>
<text text-anchor="middle" x="1528.97" y="-462.59" font-family="Times,serif" font-size="14.00">rep=no, t=no, r=yes, m=yes, c=no</text>
</g>
<!-- n9&#45;&gt;n11 -->
<g id="edge10" class="edge">
<title>n9&#45;&gt;n11</title>
<path fill="none" stroke="black" d="M1528.97,-554.66C1528.97,-546.49 1528.97,-537.71 1528.97,-529.18"/>
<polygon fill="black" stroke="black" points="1532.47,-528.96 1528.97,-518.96 1525.47,-528.96 1532.47,-528.96"/>
</g>
<!-- n18 -->
<g id="node12" class="node">
<title>n18</title>
<ellipse fill="#98D2A5" stroke="black" cx="2128.97" cy="-481.29" rx="190.84" ry="37.45"/>
<text text-anchor="middle" x="2128.97" y="-492.59" font-family="Times,serif" font-size="14.00">al</text>
<text text-anchor="middle" x="2128.97" y="-477.59" font-family="Times,serif" font-size="14.00">spcms (prepv)</text>
<text text-anchor="middle" x="2128.97" y="-462.59" font-family="Times,serif" font-size="14.00">rep=no, t=no, r=yes, m=yes, c=no</text>
</g>
<!-- n9&#45;&gt;n18 -->
<g id="edge11" class="edge">
<title>n9&#45;&gt;n18</title>
<path fill="none" stroke="black" d="M1666.62,-566.25C1760.6,-549.18 1885,-526.59 1981.09,-509.14"/>
<polygon fill="black" stroke="black" points="1981.97,-512.54 1991.18,-507.31 1980.72,-505.65 1981.97,-512.54"/>
</g>
<!-- n10 -->
<g id="node13" class="node">
<title>n10</title>
<ellipse fill="#98D2A5" stroke="black" cx="1028.97" cy="-370.34" rx="190.84" ry="37.45"/>
<text text-anchor="middle" x="1028.97" y="-381.64" font-family="Times,serif" font-size="14.00">tres</text>
<text text-anchor="middle" x="1028.97" y="-366.64" font-family="Times,serif" font-size="14.00">dn0cp0 (det)</text>
<text text-anchor="middle" x="1028.97" y="-351.64" font-family="Times,serif" font-size="14.00">rep=no, t=no, r=yes, m=yes, c=no</text>
</g>
<!-- n11&#45;&gt;n10 -->
<g id="edge12" class="edge">
<title>n11&#45;&gt;n10</title>
<path fill="none" stroke="black" d="M1403.44,-452.94C1330.63,-437.07 1238.91,-417.08 1164.47,-400.86"/>
<polygon fill="black" stroke="black" points="1165.06,-397.41 1154.55,-398.7 1163.57,-404.25 1165.06,-397.41"/>
</g>
<!-- n12 -->
<g id="node14" class="node">
<title>n12</title>
<ellipse fill="#98D2A5" stroke="black" cx="1428.97" cy="-370.34" rx="190.84" ry="37.45"/>
<text text-anchor="middle" x="1428.97" y="-381.64" font-family="Times,serif" font-size="14.00">árabes</text>
<text text-anchor="middle" x="1428.97" y="-366.64" font-family="Times,serif" font-size="14.00">aq0cp0 (amod)</text>
<text text-anchor="middle" x="1428.97" y="-351.64" font-family="Times,serif" font-size="14.00">rep=no, t=no, r=yes, m=yes, c=no</text>
</g>
<!-- n11&#45;&gt;n12 -->
<g id="edge13" class="edge">
<title>n11&#45;&gt;n12</title>
<path fill="none" stroke="black" d="M1495.95,-444.31C1487.24,-434.83 1477.76,-424.5 1468.74,-414.67"/>
<polygon fill="black" stroke="black" points="1471.3,-412.28 1461.96,-407.28 1466.14,-417.01 1471.3,-412.28"/>
</g>
<!-- n13 -->
<g id="node15" class="node">
<title>n13</title>
<ellipse fill="#98D2A5" stroke="black" cx="1828.97" cy="-370.34" rx="190.84" ry="37.45"/>
<text text-anchor="middle" x="1828.97" y="-381.64" font-family="Times,serif" font-size="14.00">de</text>
<text text-anchor="middle" x="1828.97" y="-366.64" font-family="Times,serif" font-size="14.00">sps00 (prepn)</text>
<text text-anchor="middle" x="1828.97" y="-351.64" font-family="Times,serif" font-size="14.00">rep=no, t=no, r=yes, m=yes, c=no</text>
</g>
<!-- n11&#45;&gt;n13 -->
<g id="edge14" class="edge">
<title>n11&#45;&gt;n13</title>
<path fill="none" stroke="black" d="M1617.76,-448.04C1653.21,-435.17 1694.16,-420.3 1730.52,-407.09"/>
<polygon fill="black" stroke="black" points="1731.94,-410.3 1740.15,-403.6 1729.55,-403.72 1731.94,-410.3"/>
</g>
<!-- n19 -->
<g id="node20" class="node">
<title>n19</title>
<ellipse fill="#98D2A5" stroke="black" cx="2228.97" cy="-370.34" rx="190.84" ry="37.45"/>
<text text-anchor="middle" x="2228.97" y="-381.64" font-family="Times,serif" font-size="14.00">control</text>
<text text-anchor="middle" x="2228.97" y="-366.64" font-family="Times,serif" font-size="14.00">ncms000 (pobj)</text>
<text text-anchor="middle" x="2228.97" y="-351.64" font-family="Times,serif" font-size="14.00">rep=no, t=no, r=yes, m=yes, c=no</text>
</g>
<!-- n18&#45;&gt;n19 -->
<g id="edge19" class="edge">
<title>n18&#45;&gt;n19</title>
<path fill="none" stroke="black" d="M2161.99,-444.31C2170.69,-434.83 2180.18,-424.5 2189.2,-414.67"/>
<polygon fill="black" stroke="black" points="2191.8,-417.01 2195.98,-407.28 2186.64,-412.28 2191.8,-417.01"/>
</g>
<!-- n15 -->
<g id="node16" class="node">
<title>n15</title>
<ellipse fill="#98D2A5" stroke="black" cx="1828.97" cy="-259.38" rx="190.84" ry="37.45"/>
<text text-anchor="middle" x="1828.97" y="-270.68" font-family="Times,serif" font-size="14.00">alrededores</text>
<text text-anchor="middle" x="1828.97" y="-255.68" font-family="Times,serif" font-size="14.00">ncmp000 (pobj)</text>
<text text-anchor="middle" x="1828.97" y="-240.68" font-family="Times,serif" font-size="14.00">rep=no, t=no, r=yes, m=yes, c=no</text>
</g>
<!-- n13&#45;&gt;n15 -->
<g id="edge15" class="edge">
<title>n13&#45;&gt;n15</title>
<path fill="none" stroke="black" d="M1828.97,-332.75C1828.97,-324.58 1828.97,-315.8 1828.97,-307.27"/>
<polygon fill="black" stroke="black" points="1832.47,-307.06 1828.97,-297.06 1825.47,-307.06 1832.47,-307.06"/>
</g>
<!-- n14 -->
<g id="node17" class="node">
<title>n14</title>
<ellipse fill="#98D2A5" stroke="black" cx="1628.97" cy="-148.43" rx="190.84" ry="37.45"/>
<text text-anchor="middle" x="1628.97" y="-159.73" font-family="Times,serif" font-size="14.00">los</text>
<text text-anchor="middle" x="1628.97" y="-144.73" font-family="Times,serif" font-size="14.00">da0mp0 (det)</text>
<text text-anchor="middle" x="1628.97" y="-129.73" font-family="Times,serif" font-size="14.00">rep=no, t=no, r=yes, m=yes, c=no</text>
</g>
<!-- n15&#45;&gt;n14 -->
<g id="edge16" class="edge">
<title>n15&#45;&gt;n14</title>
<path fill="none" stroke="black" d="M1765.69,-223.91C1745.16,-212.73 1722.23,-200.24 1701.11,-188.73"/>
<polygon fill="black" stroke="black" points="1702.64,-185.58 1692.18,-183.87 1699.29,-191.72 1702.64,-185.58"/>
</g>
<!-- n16 -->
<g id="node18" class="node">
<title>n16</title>
<ellipse fill="#98D2A5" stroke="black" cx="2028.97" cy="-148.43" rx="190.84" ry="37.45"/>
<text text-anchor="middle" x="2028.97" y="-159.73" font-family="Times,serif" font-size="14.00">de</text>
<text text-anchor="middle" x="2028.97" y="-144.73" font-family="Times,serif" font-size="14.00">sps00 (prepn)</text>
<text text-anchor="middle" x="2028.97" y="-129.73" font-family="Times,serif" font-size="14.00">rep=no, t=no, r=yes, m=yes, c=no</text>
</g>
<!-- n15&#45;&gt;n16 -->
<g id="edge17" class="edge">
<title>n15&#45;&gt;n16</title>
<path fill="none" stroke="black" d="M1892.25,-223.91C1912.78,-212.73 1935.7,-200.24 1956.83,-188.73"/>
<polygon fill="black" stroke="black" points="1958.65,-191.72 1965.76,-183.87 1955.3,-185.58 1958.65,-191.72"/>
</g>
<!-- n17 -->
<g id="node19" class="node">
<title>n17</title>
<ellipse fill="#98D2A5" stroke="black" cx="2028.97" cy="-37.48" rx="190.84" ry="37.45"/>
<text text-anchor="middle" x="2028.97" y="-48.78" font-family="Times,serif" font-size="14.00">Jerusalén</text>
<text text-anchor="middle" x="2028.97" y="-33.78" font-family="Times,serif" font-size="14.00">np00000 (pobj)</text>
<text text-anchor="middle" x="2028.97" y="-18.78" font-family="Times,serif" font-size="14.00">rep=no, t=no, r=yes, m=yes, c=no</text>
</g>
<!-- n16&#45;&gt;n17 -->
<g id="edge18" class="edge">
<title>n16&#45;&gt;n17</title>
<path fill="none" stroke="black" d="M2028.97,-110.85C2028.97,-102.67 2028.97,-93.89 2028.97,-85.37"/>
<polygon fill="black" stroke="black" points="2032.47,-85.15 2028.97,-75.15 2025.47,-85.15 2032.47,-85.15"/>
</g>
<!-- n20 -->
<g id="node21" class="node">
<title>n20</title>
<ellipse fill="#98D2A5" stroke="black" cx="2228.97" cy="-259.38" rx="190.84" ry="37.45"/>
<text text-anchor="middle" x="2228.97" y="-270.68" font-family="Times,serif" font-size="14.00">palestino</text>
<text text-anchor="middle" x="2228.97" y="-255.68" font-family="Times,serif" font-size="14.00">aq0ms0 (amod)</text>
<text text-anchor="middle" x="2228.97" y="-240.68" font-family="Times,serif" font-size="14.00">rep=no, t=no, r=yes, m=yes, c=no</text>
</g>
<!-- n19&#45;&gt;n20 -->
<g id="edge20" class="edge">
<title>n19&#45;&gt;n20</title>
<path fill="none" stroke="black" d="M2228.97,-332.75C2228.97,-324.58 2228.97,-315.8 2228.97,-307.27"/>
<polygon fill="black" stroke="black" points="2232.47,-307.06 2228.97,-297.06 2225.47,-307.06 2232.47,-307.06"/>
</g>
</g>
</svg>
