<?xml version="1.0" encoding="UTF-8" standalone="no"?>
<!DOCTYPE svg PUBLIC "-//W3C//DTD SVG 1.1//EN"
 "http://www.w3.org/Graphics/SVG/1.1/DTD/svg11.dtd">
<!-- Generated by graphviz version 2.43.0 (0)
 -->
<!-- Title: tree Pages: 1 -->
<svg width="3580pt" height="749pt"
 viewBox="0.00 0.00 3579.89 748.67" xmlns="http://www.w3.org/2000/svg" xmlns:xlink="http://www.w3.org/1999/xlink">
<g id="graph0" class="graph" transform="scale(1 1) rotate(0) translate(4 744.67)">
<title>tree</title>
<polygon fill="white" stroke="transparent" points="-4,4 -4,-744.67 3575.89,-744.67 3575.89,4 -4,4"/>
<!-- n14 -->
<g id="node1" class="node">
<title>n14</title>
<ellipse fill="#98D2A5" stroke="black" cx="2384.97" cy="-703.2" rx="185.94" ry="37.45"/>
<text text-anchor="middle" x="2384.97" y="-714.5" font-family="Times,serif" font-size="14.00">reaccionó</text>
<text text-anchor="middle" x="2384.97" y="-699.5" font-family="Times,serif" font-size="14.00">vmis3s0 (root)</text>
<text text-anchor="middle" x="2384.97" y="-684.5" font-family="Times,serif" font-size="14.00">rep=no, t=no, r=no, m=yes, c=no</text>
</g>
<!-- n5 -->
<g id="node2" class="node">
<title>n5</title>
<ellipse fill="#98D2A5" stroke="black" cx="1180.97" cy="-592.24" rx="190.84" ry="37.45"/>
<text text-anchor="middle" x="1180.97" y="-603.54" font-family="Times,serif" font-size="14.00">están</text>
<text text-anchor="middle" x="1180.97" y="-588.54" font-family="Times,serif" font-size="14.00">vmip3p0 (dobj)</text>
<text text-anchor="middle" x="1180.97" y="-573.54" font-family="Times,serif" font-size="14.00">rep=no, t=no, r=yes, m=yes, c=no</text>
</g>
<!-- n14&#45;&gt;n5 -->
<g id="edge1" class="edge">
<title>n14&#45;&gt;n5</title>
<path fill="none" stroke="black" d="M2216.92,-686.99C1992,-666.64 1594.56,-630.67 1362.82,-609.7"/>
<polygon fill="black" stroke="black" points="1362.87,-606.19 1352.59,-608.77 1362.24,-613.16 1362.87,-606.19"/>
</g>
<!-- n13 -->
<g id="node3" class="node">
<title>n13</title>
<ellipse fill="none" stroke="black" cx="2189.97" cy="-592.24" rx="181.95" ry="37.45"/>
<text text-anchor="middle" x="2189.97" y="-603.54" font-family="Times,serif" font-size="14.00">,</text>
<text text-anchor="middle" x="2189.97" y="-588.54" font-family="Times,serif" font-size="14.00">fc (punct)</text>
<text text-anchor="middle" x="2189.97" y="-573.54" font-family="Times,serif" font-size="14.00">rep=no, t=no, r=no, m=no, c=no</text>
</g>
<!-- n14&#45;&gt;n13 -->
<g id="edge2" class="edge">
<title>n14&#45;&gt;n13</title>
<path fill="none" stroke="black" d="M2323.27,-667.72C2303.34,-656.59 2281.1,-644.16 2260.58,-632.7"/>
<polygon fill="black" stroke="black" points="2262.04,-629.5 2251.6,-627.68 2258.62,-635.61 2262.04,-629.5"/>
</g>
<!-- n16 -->
<g id="node4" class="node">
<title>n16</title>
<ellipse fill="#98D2A5" stroke="black" cx="2580.97" cy="-592.24" rx="190.84" ry="37.45"/>
<text text-anchor="middle" x="2580.97" y="-603.54" font-family="Times,serif" font-size="14.00">jefe</text>
<text text-anchor="middle" x="2580.97" y="-588.54" font-family="Times,serif" font-size="14.00">ncms000 (nsubj)</text>
<text text-anchor="middle" x="2580.97" y="-573.54" font-family="Times,serif" font-size="14.00">rep=yes, t=no, r=no, m=yes, c=no</text>
</g>
<!-- n14&#45;&gt;n16 -->
<g id="edge3" class="edge">
<title>n14&#45;&gt;n16</title>
<path fill="none" stroke="black" d="M2446.98,-667.72C2466.91,-656.64 2489.15,-644.28 2509.69,-632.87"/>
<polygon fill="black" stroke="black" points="2511.64,-635.78 2518.68,-627.87 2508.24,-629.67 2511.64,-635.78"/>
</g>
<!-- n25 -->
<g id="node5" class="node">
<title>n25</title>
<ellipse fill="none" stroke="black" cx="2971.97" cy="-592.24" rx="181.95" ry="37.45"/>
<text text-anchor="middle" x="2971.97" y="-603.54" font-family="Times,serif" font-size="14.00">.</text>
<text text-anchor="middle" x="2971.97" y="-588.54" font-family="Times,serif" font-size="14.00">fp (punct)</text>
<text text-anchor="middle" x="2971.97" y="-573.54" font-family="Times,serif" font-size="14.00">rep=no, t=no, r=no, m=no, c=no</text>
</g>
<!-- n14&#45;&gt;n25 -->
<g id="edge4" class="edge">
<title>n14&#45;&gt;n25</title>
<path fill="none" stroke="black" d="M2521.1,-677.55C2597.51,-663.65 2694.58,-645.87 2780.97,-629.72 2797.27,-626.67 2814.34,-623.45 2831.29,-620.24"/>
<polygon fill="black" stroke="black" points="2832.08,-623.65 2841.25,-618.35 2830.78,-616.77 2832.08,-623.65"/>
</g>
<!-- n1 -->
<g id="node6" class="node">
<title>n1</title>
<ellipse fill="#98D2A5" stroke="black" cx="185.97" cy="-481.29" rx="185.94" ry="37.45"/>
<text text-anchor="middle" x="185.97" y="-492.59" font-family="Times,serif" font-size="14.00">&quot;</text>
<text text-anchor="middle" x="185.97" y="-477.59" font-family="Times,serif" font-size="14.00">fe (punct)</text>
<text text-anchor="middle" x="185.97" y="-462.59" font-family="Times,serif" font-size="14.00">rep=no, t=no, r=no, m=yes, c=no</text>
</g>
<!-- n5&#45;&gt;n1 -->
<g id="edge5" class="edge">
<title>n5&#45;&gt;n1</title>
<path fill="none" stroke="black" d="M1000.5,-579.79C837.99,-568.31 592.84,-548.11 380.97,-518.77 362.9,-516.26 343.95,-513.23 325.27,-510"/>
<polygon fill="black" stroke="black" points="325.68,-506.52 315.23,-508.24 324.48,-513.42 325.68,-506.52"/>
</g>
<!-- n3 -->
<g id="node7" class="node">
<title>n3</title>
<ellipse fill="#98D2A5" stroke="black" cx="580.97" cy="-481.29" rx="190.84" ry="37.45"/>
<text text-anchor="middle" x="580.97" y="-492.59" font-family="Times,serif" font-size="14.00">israelís</text>
<text text-anchor="middle" x="580.97" y="-477.59" font-family="Times,serif" font-size="14.00">nccp000 (nsubj)</text>
<text text-anchor="middle" x="580.97" y="-462.59" font-family="Times,serif" font-size="14.00">rep=no, t=yes, r=no, m=yes, c=no</text>
</g>
<!-- n5&#45;&gt;n3 -->
<g id="edge6" class="edge">
<title>n5&#45;&gt;n3</title>
<path fill="none" stroke="black" d="M1043.05,-566.29C965.95,-552.34 868.11,-534.61 780.97,-518.77 763.9,-515.66 746.02,-512.41 728.26,-509.17"/>
<polygon fill="black" stroke="black" points="728.87,-505.73 718.41,-507.38 727.62,-512.61 728.87,-505.73"/>
</g>
<!-- n4 -->
<g id="node8" class="node">
<title>n4</title>
<ellipse fill="#98D2A5" stroke="black" cx="980.97" cy="-481.29" rx="190.84" ry="37.45"/>
<text text-anchor="middle" x="980.97" y="-492.59" font-family="Times,serif" font-size="14.00">no</text>
<text text-anchor="middle" x="980.97" y="-477.59" font-family="Times,serif" font-size="14.00">rn (neg)</text>
<text text-anchor="middle" x="980.97" y="-462.59" font-family="Times,serif" font-size="14.00">rep=no, t=no, r=yes, m=yes, c=no</text>
</g>
<!-- n5&#45;&gt;n4 -->
<g id="edge7" class="edge">
<title>n5&#45;&gt;n4</title>
<path fill="none" stroke="black" d="M1117.69,-556.77C1097.16,-545.59 1074.23,-533.1 1053.11,-521.59"/>
<polygon fill="black" stroke="black" points="1054.64,-518.44 1044.18,-516.73 1051.29,-524.58 1054.64,-518.44"/>
</g>
<!-- n6 -->
<g id="node9" class="node">
<title>n6</title>
<ellipse fill="#98D2A5" stroke="black" cx="1380.97" cy="-481.29" rx="190.84" ry="37.45"/>
<text text-anchor="middle" x="1380.97" y="-492.59" font-family="Times,serif" font-size="14.00">concentrados</text>
<text text-anchor="middle" x="1380.97" y="-477.59" font-family="Times,serif" font-size="14.00">aq0mpp (attr)</text>
<text text-anchor="middle" x="1380.97" y="-462.59" font-family="Times,serif" font-size="14.00">rep=no, t=no, r=yes, m=yes, c=no</text>
</g>
<!-- n5&#45;&gt;n6 -->
<g id="edge8" class="edge">
<title>n5&#45;&gt;n6</title>
<path fill="none" stroke="black" d="M1244.25,-556.77C1264.78,-545.59 1287.7,-533.1 1308.83,-521.59"/>
<polygon fill="black" stroke="black" points="1310.65,-524.58 1317.76,-516.73 1307.3,-518.44 1310.65,-524.58"/>
</g>
<!-- n12 -->
<g id="node10" class="node">
<title>n12</title>
<ellipse fill="#98D2A5" stroke="black" cx="1780.97" cy="-481.29" rx="190.84" ry="37.45"/>
<text text-anchor="middle" x="1780.97" y="-492.59" font-family="Times,serif" font-size="14.00">&quot;</text>
<text text-anchor="middle" x="1780.97" y="-477.59" font-family="Times,serif" font-size="14.00">fe (punct)</text>
<text text-anchor="middle" x="1780.97" y="-462.59" font-family="Times,serif" font-size="14.00">rep=no, t=no, r=yes, m=yes, c=no</text>
</g>
<!-- n5&#45;&gt;n12 -->
<g id="edge9" class="edge">
<title>n5&#45;&gt;n12</title>
<path fill="none" stroke="black" d="M1318.89,-566.29C1395.99,-552.34 1493.83,-534.61 1580.97,-518.77 1598.04,-515.66 1615.92,-512.41 1633.68,-509.17"/>
<polygon fill="black" stroke="black" points="1634.32,-512.61 1643.53,-507.38 1633.07,-505.73 1634.32,-512.61"/>
</g>
<!-- n15 -->
<g id="node17" class="node">
<title>n15</title>
<ellipse fill="#98D2A5" stroke="black" cx="2180.97" cy="-481.29" rx="190.84" ry="37.45"/>
<text text-anchor="middle" x="2180.97" y="-492.59" font-family="Times,serif" font-size="14.00">el</text>
<text text-anchor="middle" x="2180.97" y="-477.59" font-family="Times,serif" font-size="14.00">da0ms0 (det)</text>
<text text-anchor="middle" x="2180.97" y="-462.59" font-family="Times,serif" font-size="14.00">rep=yes, t=no, r=no, m=yes, c=no</text>
</g>
<!-- n16&#45;&gt;n15 -->
<g id="edge16" class="edge">
<title>n16&#45;&gt;n15</title>
<path fill="none" stroke="black" d="M2471.67,-561.47C2418.53,-547 2354.56,-529.57 2300.17,-514.76"/>
<polygon fill="black" stroke="black" points="2301.05,-511.37 2290.49,-512.12 2299.21,-518.13 2301.05,-511.37"/>
</g>
<!-- n17 -->
<g id="node18" class="node">
<title>n17</title>
<ellipse fill="#98D2A5" stroke="black" cx="2580.97" cy="-481.29" rx="190.84" ry="37.45"/>
<text text-anchor="middle" x="2580.97" y="-492.59" font-family="Times,serif" font-size="14.00">de</text>
<text text-anchor="middle" x="2580.97" y="-477.59" font-family="Times,serif" font-size="14.00">sps00 (prepn)</text>
<text text-anchor="middle" x="2580.97" y="-462.59" font-family="Times,serif" font-size="14.00">rep=yes, t=no, r=no, m=yes, c=no</text>
</g>
<!-- n16&#45;&gt;n17 -->
<g id="edge17" class="edge">
<title>n16&#45;&gt;n17</title>
<path fill="none" stroke="black" d="M2580.97,-554.66C2580.97,-546.49 2580.97,-537.71 2580.97,-529.18"/>
<polygon fill="black" stroke="black" points="2584.47,-528.96 2580.97,-518.96 2577.47,-528.96 2584.47,-528.96"/>
</g>
<!-- n21 -->
<g id="node19" class="node">
<title>n21</title>
<ellipse fill="#98D2A5" stroke="black" cx="2980.97" cy="-481.29" rx="190.84" ry="37.45"/>
<text text-anchor="middle" x="2980.97" y="-492.59" font-family="Times,serif" font-size="14.00">,</text>
<text text-anchor="middle" x="2980.97" y="-477.59" font-family="Times,serif" font-size="14.00">fc (punct)</text>
<text text-anchor="middle" x="2980.97" y="-462.59" font-family="Times,serif" font-size="14.00">rep=yes, t=no, r=no, m=yes, c=no</text>
</g>
<!-- n16&#45;&gt;n21 -->
<g id="edge18" class="edge">
<title>n16&#45;&gt;n21</title>
<path fill="none" stroke="black" d="M2690.27,-561.47C2743.41,-547 2807.38,-529.57 2861.76,-514.76"/>
<polygon fill="black" stroke="black" points="2862.72,-518.13 2871.45,-512.12 2860.88,-511.37 2862.72,-518.13"/>
</g>
<!-- n22 -->
<g id="node20" class="node">
<title>n22</title>
<ellipse fill="#98D2A5" stroke="black" cx="3380.97" cy="-481.29" rx="190.84" ry="37.45"/>
<text text-anchor="middle" x="3380.97" y="-492.59" font-family="Times,serif" font-size="14.00">Yaser</text>
<text text-anchor="middle" x="3380.97" y="-477.59" font-family="Times,serif" font-size="14.00">ncfs000 (appos)</text>
<text text-anchor="middle" x="3380.97" y="-462.59" font-family="Times,serif" font-size="14.00">rep=yes, t=no, r=no, m=yes, c=no</text>
</g>
<!-- n16&#45;&gt;n22 -->
<g id="edge19" class="edge">
<title>n16&#45;&gt;n22</title>
<path fill="none" stroke="black" d="M2713.83,-565.27C2736.19,-561.4 2759.2,-557.73 2780.97,-554.77 2957.84,-530.73 3004.1,-542.8 3180.97,-518.77 3199.51,-516.25 3218.95,-513.21 3238.11,-509.97"/>
<polygon fill="black" stroke="black" points="3238.84,-513.4 3248.11,-508.26 3237.66,-506.5 3238.84,-513.4"/>
</g>
<!-- n2 -->
<g id="node11" class="node">
<title>n2</title>
<ellipse fill="#98D2A5" stroke="black" cx="580.97" cy="-370.34" rx="190.84" ry="37.45"/>
<text text-anchor="middle" x="580.97" y="-381.64" font-family="Times,serif" font-size="14.00">Los</text>
<text text-anchor="middle" x="580.97" y="-366.64" font-family="Times,serif" font-size="14.00">da0mp0 (det)</text>
<text text-anchor="middle" x="580.97" y="-351.64" font-family="Times,serif" font-size="14.00">rep=no, t=yes, r=no, m=yes, c=no</text>
</g>
<!-- n3&#45;&gt;n2 -->
<g id="edge10" class="edge">
<title>n3&#45;&gt;n2</title>
<path fill="none" stroke="black" d="M580.97,-443.71C580.97,-435.53 580.97,-426.75 580.97,-418.23"/>
<polygon fill="black" stroke="black" points="584.47,-418.01 580.97,-408.01 577.47,-418.01 584.47,-418.01"/>
</g>
<!-- n7 -->
<g id="node12" class="node">
<title>n7</title>
<ellipse fill="#98D2A5" stroke="black" cx="1380.97" cy="-370.34" rx="190.84" ry="37.45"/>
<text text-anchor="middle" x="1380.97" y="-381.64" font-family="Times,serif" font-size="14.00">en</text>
<text text-anchor="middle" x="1380.97" y="-366.64" font-family="Times,serif" font-size="14.00">sps00 (prepa)</text>
<text text-anchor="middle" x="1380.97" y="-351.64" font-family="Times,serif" font-size="14.00">rep=no, t=no, r=yes, m=yes, c=no</text>
</g>
<!-- n6&#45;&gt;n7 -->
<g id="edge11" class="edge">
<title>n6&#45;&gt;n7</title>
<path fill="none" stroke="black" d="M1380.97,-443.71C1380.97,-435.53 1380.97,-426.75 1380.97,-418.23"/>
<polygon fill="black" stroke="black" points="1384.47,-418.01 1380.97,-408.01 1377.47,-418.01 1384.47,-418.01"/>
</g>
<!-- n9 -->
<g id="node13" class="node">
<title>n9</title>
<ellipse fill="#98D2A5" stroke="black" cx="1380.97" cy="-259.38" rx="190.84" ry="37.45"/>
<text text-anchor="middle" x="1380.97" y="-270.68" font-family="Times,serif" font-size="14.00">proceso</text>
<text text-anchor="middle" x="1380.97" y="-255.68" font-family="Times,serif" font-size="14.00">ncms000 (pobj)</text>
<text text-anchor="middle" x="1380.97" y="-240.68" font-family="Times,serif" font-size="14.00">rep=no, t=no, r=yes, m=yes, c=no</text>
</g>
<!-- n7&#45;&gt;n9 -->
<g id="edge12" class="edge">
<title>n7&#45;&gt;n9</title>
<path fill="none" stroke="black" d="M1380.97,-332.75C1380.97,-324.58 1380.97,-315.8 1380.97,-307.27"/>
<polygon fill="black" stroke="black" points="1384.47,-307.06 1380.97,-297.06 1377.47,-307.06 1384.47,-307.06"/>
</g>
<!-- n8 -->
<g id="node14" class="node">
<title>n8</title>
<ellipse fill="#98D2A5" stroke="black" cx="1180.97" cy="-148.43" rx="190.84" ry="37.45"/>
<text text-anchor="middle" x="1180.97" y="-159.73" font-family="Times,serif" font-size="14.00">este</text>
<text text-anchor="middle" x="1180.97" y="-144.73" font-family="Times,serif" font-size="14.00">dd0ms0 (det)</text>
<text text-anchor="middle" x="1180.97" y="-129.73" font-family="Times,serif" font-size="14.00">rep=no, t=no, r=yes, m=yes, c=no</text>
</g>
<!-- n9&#45;&gt;n8 -->
<g id="edge13" class="edge">
<title>n9&#45;&gt;n8</title>
<path fill="none" stroke="black" d="M1317.69,-223.91C1297.16,-212.73 1274.23,-200.24 1253.11,-188.73"/>
<polygon fill="black" stroke="black" points="1254.64,-185.58 1244.18,-183.87 1251.29,-191.72 1254.64,-185.58"/>
</g>
<!-- n10 -->
<g id="node15" class="node">
<title>n10</title>
<ellipse fill="#98D2A5" stroke="black" cx="1580.97" cy="-148.43" rx="190.84" ry="37.45"/>
<text text-anchor="middle" x="1580.97" y="-159.73" font-family="Times,serif" font-size="14.00">de</text>
<text text-anchor="middle" x="1580.97" y="-144.73" font-family="Times,serif" font-size="14.00">sps00 (prepn)</text>
<text text-anchor="middle" x="1580.97" y="-129.73" font-family="Times,serif" font-size="14.00">rep=no, t=no, r=yes, m=yes, c=no</text>
</g>
<!-- n9&#45;&gt;n10 -->
<g id="edge14" class="edge">
<title>n9&#45;&gt;n10</title>
<path fill="none" stroke="black" d="M1444.25,-223.91C1464.78,-212.73 1487.7,-200.24 1508.83,-188.73"/>
<polygon fill="black" stroke="black" points="1510.65,-191.72 1517.76,-183.87 1507.3,-185.58 1510.65,-191.72"/>
</g>
<!-- n11 -->
<g id="node16" class="node">
<title>n11</title>
<ellipse fill="#98D2A5" stroke="black" cx="1580.97" cy="-37.48" rx="190.84" ry="37.45"/>
<text text-anchor="middle" x="1580.97" y="-48.78" font-family="Times,serif" font-size="14.00">paz</text>
<text text-anchor="middle" x="1580.97" y="-33.78" font-family="Times,serif" font-size="14.00">ncfs000 (pobj)</text>
<text text-anchor="middle" x="1580.97" y="-18.78" font-family="Times,serif" font-size="14.00">rep=no, t=no, r=yes, m=yes, c=no</text>
</g>
<!-- n10&#45;&gt;n11 -->
<g id="edge15" class="edge">
<title>n10&#45;&gt;n11</title>
<path fill="none" stroke="black" d="M1580.97,-110.85C1580.97,-102.67 1580.97,-93.89 1580.97,-85.37"/>
<polygon fill="black" stroke="black" points="1584.47,-85.15 1580.97,-75.15 1577.47,-85.15 1584.47,-85.15"/>
</g>
<!-- n19 -->
<g id="node21" class="node">
<title>n19</title>
<ellipse fill="#98D2A5" stroke="black" cx="2580.97" cy="-370.34" rx="190.84" ry="37.45"/>
<text text-anchor="middle" x="2580.97" y="-381.64" font-family="Times,serif" font-size="14.00">negociadores</text>
<text text-anchor="middle" x="2580.97" y="-366.64" font-family="Times,serif" font-size="14.00">ncmp000 (pobj)</text>
<text text-anchor="middle" x="2580.97" y="-351.64" font-family="Times,serif" font-size="14.00">rep=yes, t=no, r=no, m=yes, c=no</text>
</g>
<!-- n17&#45;&gt;n19 -->
<g id="edge20" class="edge">
<title>n17&#45;&gt;n19</title>
<path fill="none" stroke="black" d="M2580.97,-443.71C2580.97,-435.53 2580.97,-426.75 2580.97,-418.23"/>
<polygon fill="black" stroke="black" points="2584.47,-418.01 2580.97,-408.01 2577.47,-418.01 2584.47,-418.01"/>
</g>
<!-- n23 -->
<g id="node24" class="node">
<title>n23</title>
<ellipse fill="#98D2A5" stroke="black" cx="3380.97" cy="-370.34" rx="190.84" ry="37.45"/>
<text text-anchor="middle" x="3380.97" y="-381.64" font-family="Times,serif" font-size="14.00">Abed</text>
<text text-anchor="middle" x="3380.97" y="-366.64" font-family="Times,serif" font-size="14.00">ncms000 (appos)</text>
<text text-anchor="middle" x="3380.97" y="-351.64" font-family="Times,serif" font-size="14.00">rep=yes, t=no, r=no, m=yes, c=no</text>
</g>
<!-- n22&#45;&gt;n23 -->
<g id="edge23" class="edge">
<title>n22&#45;&gt;n23</title>
<path fill="none" stroke="black" d="M3380.97,-443.71C3380.97,-435.53 3380.97,-426.75 3380.97,-418.23"/>
<polygon fill="black" stroke="black" points="3384.47,-418.01 3380.97,-408.01 3377.47,-418.01 3384.47,-418.01"/>
</g>
<!-- n18 -->
<g id="node22" class="node">
<title>n18</title>
<ellipse fill="#98D2A5" stroke="black" cx="2380.97" cy="-259.38" rx="190.84" ry="37.45"/>
<text text-anchor="middle" x="2380.97" y="-270.68" font-family="Times,serif" font-size="14.00">los</text>
<text text-anchor="middle" x="2380.97" y="-255.68" font-family="Times,serif" font-size="14.00">da0mp0 (det)</text>
<text text-anchor="middle" x="2380.97" y="-240.68" font-family="Times,serif" font-size="14.00">rep=yes, t=no, r=no, m=yes, c=no</text>
</g>
<!-- n19&#45;&gt;n18 -->
<g id="edge21" class="edge">
<title>n19&#45;&gt;n18</title>
<path fill="none" stroke="black" d="M2517.69,-334.86C2497.16,-323.68 2474.23,-311.19 2453.11,-299.68"/>
<polygon fill="black" stroke="black" points="2454.64,-296.53 2444.18,-294.82 2451.29,-302.68 2454.64,-296.53"/>
</g>
<!-- n20 -->
<g id="node23" class="node">
<title>n20</title>
<ellipse fill="#98D2A5" stroke="black" cx="2780.97" cy="-259.38" rx="190.84" ry="37.45"/>
<text text-anchor="middle" x="2780.97" y="-270.68" font-family="Times,serif" font-size="14.00">palestinos</text>
<text text-anchor="middle" x="2780.97" y="-255.68" font-family="Times,serif" font-size="14.00">aq0mp0 (amod)</text>
<text text-anchor="middle" x="2780.97" y="-240.68" font-family="Times,serif" font-size="14.00">rep=yes, t=no, r=no, m=yes, c=no</text>
</g>
<!-- n19&#45;&gt;n20 -->
<g id="edge22" class="edge">
<title>n19&#45;&gt;n20</title>
<path fill="none" stroke="black" d="M2644.25,-334.86C2664.78,-323.68 2687.7,-311.19 2708.83,-299.68"/>
<polygon fill="black" stroke="black" points="2710.65,-302.68 2717.76,-294.82 2707.3,-296.53 2710.65,-302.68"/>
</g>
<!-- n24 -->
<g id="node25" class="node">
<title>n24</title>
<ellipse fill="#98D2A5" stroke="black" cx="3380.97" cy="-259.38" rx="190.84" ry="37.45"/>
<text text-anchor="middle" x="3380.97" y="-270.68" font-family="Times,serif" font-size="14.00">Rabbo</text>
<text text-anchor="middle" x="3380.97" y="-255.68" font-family="Times,serif" font-size="14.00">np00000 (appos)</text>
<text text-anchor="middle" x="3380.97" y="-240.68" font-family="Times,serif" font-size="14.00">rep=yes, t=no, r=no, m=yes, c=no</text>
</g>
<!-- n23&#45;&gt;n24 -->
<g id="edge24" class="edge">
<title>n23&#45;&gt;n24</title>
<path fill="none" stroke="black" d="M3380.97,-332.75C3380.97,-324.58 3380.97,-315.8 3380.97,-307.27"/>
<polygon fill="black" stroke="black" points="3384.47,-307.06 3380.97,-297.06 3377.47,-307.06 3384.47,-307.06"/>
</g>
</g>
</svg>
