<?xml version="1.0" encoding="UTF-8" standalone="no"?>
<!DOCTYPE svg PUBLIC "-//W3C//DTD SVG 1.1//EN"
 "http://www.w3.org/Graphics/SVG/1.1/DTD/svg11.dtd">
<!-- Generated by graphviz version 2.43.0 (0)
 -->
<!-- Title: tree Pages: 1 -->
<svg width="2590pt" height="860pt"
 viewBox="0.00 0.00 2589.84 859.63" xmlns="http://www.w3.org/2000/svg" xmlns:xlink="http://www.w3.org/1999/xlink">
<g id="graph0" class="graph" transform="scale(1 1) rotate(0) translate(4 855.63)">
<title>tree</title>
<polygon fill="white" stroke="transparent" points="-4,4 -4,-855.63 2585.84,-855.63 2585.84,4 -4,4"/>
<!-- n3 -->
<g id="node1" class="node">
<title>n3</title>
<ellipse fill="none" stroke="black" cx="987.92" cy="-814.15" rx="181.95" ry="37.45"/>
<text text-anchor="middle" x="987.92" y="-825.45" font-family="Times,serif" font-size="14.00">precisó</text>
<text text-anchor="middle" x="987.92" y="-810.45" font-family="Times,serif" font-size="14.00">vmis3s0 (root)</text>
<text text-anchor="middle" x="987.92" y="-795.45" font-family="Times,serif" font-size="14.00">rep=no, t=no, r=no, m=no, c=no</text>
</g>
<!-- n1 -->
<g id="node2" class="node">
<title>n1</title>
<ellipse fill="none" stroke="black" cx="599.92" cy="-703.2" rx="185.94" ry="37.45"/>
<text text-anchor="middle" x="599.92" y="-714.5" font-family="Times,serif" font-size="14.00">Kenneth</text>
<text text-anchor="middle" x="599.92" y="-699.5" font-family="Times,serif" font-size="14.00">np00000 (nsubj)</text>
<text text-anchor="middle" x="599.92" y="-684.5" font-family="Times,serif" font-size="14.00">rep=yes, t=no, r=no, m=no, c=no</text>
</g>
<!-- n3&#45;&gt;n1 -->
<g id="edge1" class="edge">
<title>n3&#45;&gt;n1</title>
<path fill="none" stroke="black" d="M882.66,-783.59C831.12,-769.12 768.91,-751.65 715.99,-736.79"/>
<polygon fill="black" stroke="black" points="716.79,-733.38 706.22,-734.05 714.9,-740.12 716.79,-733.38"/>
</g>
<!-- n4 -->
<g id="node3" class="node">
<title>n4</title>
<ellipse fill="none" stroke="black" cx="987.92" cy="-703.2" rx="181.95" ry="37.45"/>
<text text-anchor="middle" x="987.92" y="-714.5" font-family="Times,serif" font-size="14.00">que</text>
<text text-anchor="middle" x="987.92" y="-699.5" font-family="Times,serif" font-size="14.00">cs (dobj)</text>
<text text-anchor="middle" x="987.92" y="-684.5" font-family="Times,serif" font-size="14.00">rep=no, t=no, r=no, m=no, c=no</text>
</g>
<!-- n3&#45;&gt;n4 -->
<g id="edge2" class="edge">
<title>n3&#45;&gt;n4</title>
<path fill="none" stroke="black" d="M987.92,-776.57C987.92,-768.39 987.92,-759.61 987.92,-751.09"/>
<polygon fill="black" stroke="black" points="991.42,-750.87 987.92,-740.87 984.42,-750.87 991.42,-750.87"/>
</g>
<!-- n19 -->
<g id="node4" class="node">
<title>n19</title>
<ellipse fill="none" stroke="black" cx="1368.92" cy="-703.2" rx="181.95" ry="37.45"/>
<text text-anchor="middle" x="1368.92" y="-714.5" font-family="Times,serif" font-size="14.00">.</text>
<text text-anchor="middle" x="1368.92" y="-699.5" font-family="Times,serif" font-size="14.00">fp (punct)</text>
<text text-anchor="middle" x="1368.92" y="-684.5" font-family="Times,serif" font-size="14.00">rep=no, t=no, r=no, m=no, c=no</text>
</g>
<!-- n3&#45;&gt;n19 -->
<g id="edge3" class="edge">
<title>n3&#45;&gt;n19</title>
<path fill="none" stroke="black" d="M1092.03,-783.38C1142.53,-768.94 1203.32,-751.55 1255.05,-736.76"/>
<polygon fill="black" stroke="black" points="1256.28,-740.05 1264.93,-733.93 1254.36,-733.32 1256.28,-740.05"/>
</g>
<!-- n2 -->
<g id="node5" class="node">
<title>n2</title>
<ellipse fill="none" stroke="black" cx="595.92" cy="-592.24" rx="185.94" ry="37.45"/>
<text text-anchor="middle" x="595.92" y="-603.54" font-family="Times,serif" font-size="14.00">Bacon</text>
<text text-anchor="middle" x="595.92" y="-588.54" font-family="Times,serif" font-size="14.00">ncms000 (appos)</text>
<text text-anchor="middle" x="595.92" y="-573.54" font-family="Times,serif" font-size="14.00">rep=yes, t=no, r=no, m=no, c=no</text>
</g>
<!-- n1&#45;&gt;n2 -->
<g id="edge4" class="edge">
<title>n1&#45;&gt;n2</title>
<path fill="none" stroke="black" d="M598.58,-665.61C598.28,-657.44 597.95,-648.66 597.64,-640.13"/>
<polygon fill="black" stroke="black" points="601.13,-639.78 597.27,-629.92 594.13,-640.04 601.13,-639.78"/>
</g>
<!-- n10 -->
<g id="node6" class="node">
<title>n10</title>
<ellipse fill="#98D2A5" stroke="black" cx="990.92" cy="-592.24" rx="190.84" ry="37.45"/>
<text text-anchor="middle" x="990.92" y="-603.54" font-family="Times,serif" font-size="14.00">atiene</text>
<text text-anchor="middle" x="990.92" y="-588.54" font-family="Times,serif" font-size="14.00">vmip3s0 (cobj)</text>
<text text-anchor="middle" x="990.92" y="-573.54" font-family="Times,serif" font-size="14.00">rep=no, t=no, r=yes, m=yes, c=no</text>
</g>
<!-- n4&#45;&gt;n10 -->
<g id="edge5" class="edge">
<title>n4&#45;&gt;n10</title>
<path fill="none" stroke="black" d="M988.93,-665.61C989.15,-657.44 989.39,-648.66 989.63,-640.13"/>
<polygon fill="black" stroke="black" points="993.13,-640.01 989.91,-629.92 986.14,-639.81 993.13,-640.01"/>
</g>
<!-- n6 -->
<g id="node7" class="node">
<title>n6</title>
<ellipse fill="#98D2A5" stroke="black" cx="190.92" cy="-481.29" rx="190.84" ry="37.45"/>
<text text-anchor="middle" x="190.92" y="-492.59" font-family="Times,serif" font-size="14.00">plan</text>
<text text-anchor="middle" x="190.92" y="-477.59" font-family="Times,serif" font-size="14.00">ncms000 (nsubj)</text>
<text text-anchor="middle" x="190.92" y="-462.59" font-family="Times,serif" font-size="14.00">rep=no, t=yes, r=no, m=yes, c=no</text>
</g>
<!-- n10&#45;&gt;n6 -->
<g id="edge6" class="edge">
<title>n10&#45;&gt;n6</title>
<path fill="none" stroke="black" d="M858.06,-565.27C835.7,-561.4 812.69,-557.73 790.92,-554.77 614.05,-530.73 567.79,-542.8 390.92,-518.77 372.38,-516.25 352.94,-513.21 333.77,-509.97"/>
<polygon fill="black" stroke="black" points="334.23,-506.5 323.78,-508.26 333.05,-513.4 334.23,-506.5"/>
</g>
<!-- n7 -->
<g id="node8" class="node">
<title>n7</title>
<ellipse fill="#98D2A5" stroke="black" cx="590.92" cy="-481.29" rx="190.84" ry="37.45"/>
<text text-anchor="middle" x="590.92" y="-492.59" font-family="Times,serif" font-size="14.00">&quot;</text>
<text text-anchor="middle" x="590.92" y="-477.59" font-family="Times,serif" font-size="14.00">fe (punct)</text>
<text text-anchor="middle" x="590.92" y="-462.59" font-family="Times,serif" font-size="14.00">rep=no, t=no, r=yes, m=yes, c=no</text>
</g>
<!-- n10&#45;&gt;n7 -->
<g id="edge7" class="edge">
<title>n10&#45;&gt;n7</title>
<path fill="none" stroke="black" d="M881.62,-561.47C828.48,-547 764.51,-529.57 710.12,-514.76"/>
<polygon fill="black" stroke="black" points="711,-511.37 700.44,-512.12 709.16,-518.13 711,-511.37"/>
</g>
<!-- n8 -->
<g id="node9" class="node">
<title>n8</title>
<ellipse fill="#98D2A5" stroke="black" cx="990.92" cy="-481.29" rx="190.84" ry="37.45"/>
<text text-anchor="middle" x="990.92" y="-492.59" font-family="Times,serif" font-size="14.00">no</text>
<text text-anchor="middle" x="990.92" y="-477.59" font-family="Times,serif" font-size="14.00">rn (neg)</text>
<text text-anchor="middle" x="990.92" y="-462.59" font-family="Times,serif" font-size="14.00">rep=no, t=no, r=yes, m=yes, c=no</text>
</g>
<!-- n10&#45;&gt;n8 -->
<g id="edge8" class="edge">
<title>n10&#45;&gt;n8</title>
<path fill="none" stroke="black" d="M990.92,-554.66C990.92,-546.49 990.92,-537.71 990.92,-529.18"/>
<polygon fill="black" stroke="black" points="994.42,-528.96 990.92,-518.96 987.42,-528.96 994.42,-528.96"/>
</g>
<!-- n9 -->
<g id="node10" class="node">
<title>n9</title>
<ellipse fill="#98D2A5" stroke="black" cx="1390.92" cy="-481.29" rx="190.84" ry="37.45"/>
<text text-anchor="middle" x="1390.92" y="-492.59" font-family="Times,serif" font-size="14.00">se</text>
<text text-anchor="middle" x="1390.92" y="-477.59" font-family="Times,serif" font-size="14.00">p0300000 (reflec)</text>
<text text-anchor="middle" x="1390.92" y="-462.59" font-family="Times,serif" font-size="14.00">rep=no, t=no, r=yes, m=yes, c=no</text>
</g>
<!-- n10&#45;&gt;n9 -->
<g id="edge9" class="edge">
<title>n10&#45;&gt;n9</title>
<path fill="none" stroke="black" d="M1100.22,-561.47C1153.36,-547 1217.33,-529.57 1271.71,-514.76"/>
<polygon fill="black" stroke="black" points="1272.67,-518.13 1281.4,-512.12 1270.83,-511.37 1272.67,-518.13"/>
</g>
<!-- n11 -->
<g id="node11" class="node">
<title>n11</title>
<ellipse fill="#98D2A5" stroke="black" cx="1790.92" cy="-481.29" rx="190.84" ry="37.45"/>
<text text-anchor="middle" x="1790.92" y="-492.59" font-family="Times,serif" font-size="14.00">a</text>
<text text-anchor="middle" x="1790.92" y="-477.59" font-family="Times,serif" font-size="14.00">sps00 (oobj)</text>
<text text-anchor="middle" x="1790.92" y="-462.59" font-family="Times,serif" font-size="14.00">rep=no, t=no, r=yes, m=yes, c=no</text>
</g>
<!-- n10&#45;&gt;n11 -->
<g id="edge10" class="edge">
<title>n10&#45;&gt;n11</title>
<path fill="none" stroke="black" d="M1157.46,-573.85C1278.08,-560.59 1444.9,-540.88 1590.92,-518.77 1608.96,-516.03 1627.88,-512.92 1646.57,-509.68"/>
<polygon fill="black" stroke="black" points="1647.38,-513.1 1656.63,-507.93 1646.17,-506.2 1647.38,-513.1"/>
</g>
<!-- n5 -->
<g id="node12" class="node">
<title>n5</title>
<ellipse fill="#98D2A5" stroke="black" cx="190.92" cy="-370.34" rx="190.84" ry="37.45"/>
<text text-anchor="middle" x="190.92" y="-381.64" font-family="Times,serif" font-size="14.00">el</text>
<text text-anchor="middle" x="190.92" y="-366.64" font-family="Times,serif" font-size="14.00">da0ms0 (det)</text>
<text text-anchor="middle" x="190.92" y="-351.64" font-family="Times,serif" font-size="14.00">rep=no, t=yes, r=no, m=yes, c=no</text>
</g>
<!-- n6&#45;&gt;n5 -->
<g id="edge11" class="edge">
<title>n6&#45;&gt;n5</title>
<path fill="none" stroke="black" d="M190.92,-443.71C190.92,-435.53 190.92,-426.75 190.92,-418.23"/>
<polygon fill="black" stroke="black" points="194.42,-418.01 190.92,-408.01 187.42,-418.01 194.42,-418.01"/>
</g>
<!-- n13 -->
<g id="node13" class="node">
<title>n13</title>
<ellipse fill="#98D2A5" stroke="black" cx="1790.92" cy="-370.34" rx="190.84" ry="37.45"/>
<text text-anchor="middle" x="1790.92" y="-381.64" font-family="Times,serif" font-size="14.00">exigencias</text>
<text text-anchor="middle" x="1790.92" y="-366.64" font-family="Times,serif" font-size="14.00">ncfp000 (pobj)</text>
<text text-anchor="middle" x="1790.92" y="-351.64" font-family="Times,serif" font-size="14.00">rep=no, t=no, r=yes, m=yes, c=no</text>
</g>
<!-- n11&#45;&gt;n13 -->
<g id="edge12" class="edge">
<title>n11&#45;&gt;n13</title>
<path fill="none" stroke="black" d="M1790.92,-443.71C1790.92,-435.53 1790.92,-426.75 1790.92,-418.23"/>
<polygon fill="black" stroke="black" points="1794.42,-418.01 1790.92,-408.01 1787.42,-418.01 1794.42,-418.01"/>
</g>
<!-- n12 -->
<g id="node14" class="node">
<title>n12</title>
<ellipse fill="#98D2A5" stroke="black" cx="1190.92" cy="-259.38" rx="190.84" ry="37.45"/>
<text text-anchor="middle" x="1190.92" y="-270.68" font-family="Times,serif" font-size="14.00">las</text>
<text text-anchor="middle" x="1190.92" y="-255.68" font-family="Times,serif" font-size="14.00">da0fp0 (det)</text>
<text text-anchor="middle" x="1190.92" y="-240.68" font-family="Times,serif" font-size="14.00">rep=no, t=no, r=yes, m=yes, c=no</text>
</g>
<!-- n13&#45;&gt;n12 -->
<g id="edge13" class="edge">
<title>n13&#45;&gt;n12</title>
<path fill="none" stroke="black" d="M1653,-344.39C1575.9,-330.43 1478.06,-312.7 1390.92,-296.86 1373.85,-293.76 1355.97,-290.5 1338.21,-287.27"/>
<polygon fill="black" stroke="black" points="1338.82,-283.82 1328.36,-285.47 1337.57,-290.71 1338.82,-283.82"/>
</g>
<!-- n14 -->
<g id="node15" class="node">
<title>n14</title>
<ellipse fill="#98D2A5" stroke="black" cx="1590.92" cy="-259.38" rx="190.84" ry="37.45"/>
<text text-anchor="middle" x="1590.92" y="-270.68" font-family="Times,serif" font-size="14.00">fundamentales</text>
<text text-anchor="middle" x="1590.92" y="-255.68" font-family="Times,serif" font-size="14.00">aq0cp0 (amod)</text>
<text text-anchor="middle" x="1590.92" y="-240.68" font-family="Times,serif" font-size="14.00">rep=no, t=no, r=yes, m=yes, c=no</text>
</g>
<!-- n13&#45;&gt;n14 -->
<g id="edge14" class="edge">
<title>n13&#45;&gt;n14</title>
<path fill="none" stroke="black" d="M1727.64,-334.86C1707.11,-323.68 1684.18,-311.19 1663.06,-299.68"/>
<polygon fill="black" stroke="black" points="1664.59,-296.53 1654.13,-294.82 1661.24,-302.68 1664.59,-296.53"/>
</g>
<!-- n15 -->
<g id="node16" class="node">
<title>n15</title>
<ellipse fill="#98D2A5" stroke="black" cx="1990.92" cy="-259.38" rx="190.84" ry="37.45"/>
<text text-anchor="middle" x="1990.92" y="-270.68" font-family="Times,serif" font-size="14.00">&quot;</text>
<text text-anchor="middle" x="1990.92" y="-255.68" font-family="Times,serif" font-size="14.00">fe (punct)</text>
<text text-anchor="middle" x="1990.92" y="-240.68" font-family="Times,serif" font-size="14.00">rep=no, t=no, r=yes, m=yes, c=no</text>
</g>
<!-- n13&#45;&gt;n15 -->
<g id="edge15" class="edge">
<title>n13&#45;&gt;n15</title>
<path fill="none" stroke="black" d="M1854.2,-334.86C1874.73,-323.68 1897.65,-311.19 1918.78,-299.68"/>
<polygon fill="black" stroke="black" points="1920.6,-302.68 1927.71,-294.82 1917.25,-296.53 1920.6,-302.68"/>
</g>
<!-- n16 -->
<g id="node17" class="node">
<title>n16</title>
<ellipse fill="#98D2A5" stroke="black" cx="2390.92" cy="-259.38" rx="190.84" ry="37.45"/>
<text text-anchor="middle" x="2390.92" y="-270.68" font-family="Times,serif" font-size="14.00">de</text>
<text text-anchor="middle" x="2390.92" y="-255.68" font-family="Times,serif" font-size="14.00">sps00 (prepn)</text>
<text text-anchor="middle" x="2390.92" y="-240.68" font-family="Times,serif" font-size="14.00">rep=no, t=no, r=yes, m=yes, c=no</text>
</g>
<!-- n13&#45;&gt;n16 -->
<g id="edge16" class="edge">
<title>n13&#45;&gt;n16</title>
<path fill="none" stroke="black" d="M1928.84,-344.39C2005.94,-330.43 2103.78,-312.7 2190.92,-296.86 2207.99,-293.76 2225.87,-290.5 2243.63,-287.27"/>
<polygon fill="black" stroke="black" points="2244.27,-290.71 2253.48,-285.47 2243.02,-283.82 2244.27,-290.71"/>
</g>
<!-- n18 -->
<g id="node18" class="node">
<title>n18</title>
<ellipse fill="#98D2A5" stroke="black" cx="2390.92" cy="-148.43" rx="190.84" ry="37.45"/>
<text text-anchor="middle" x="2390.92" y="-159.73" font-family="Times,serif" font-size="14.00">Alianza</text>
<text text-anchor="middle" x="2390.92" y="-144.73" font-family="Times,serif" font-size="14.00">np00000 (pobj)</text>
<text text-anchor="middle" x="2390.92" y="-129.73" font-family="Times,serif" font-size="14.00">rep=no, t=no, r=yes, m=yes, c=no</text>
</g>
<!-- n16&#45;&gt;n18 -->
<g id="edge17" class="edge">
<title>n16&#45;&gt;n18</title>
<path fill="none" stroke="black" d="M2390.92,-221.8C2390.92,-213.63 2390.92,-204.85 2390.92,-196.32"/>
<polygon fill="black" stroke="black" points="2394.42,-196.1 2390.92,-186.1 2387.42,-196.1 2394.42,-196.1"/>
</g>
<!-- n17 -->
<g id="node19" class="node">
<title>n17</title>
<ellipse fill="#98D2A5" stroke="black" cx="2390.92" cy="-37.48" rx="190.84" ry="37.45"/>
<text text-anchor="middle" x="2390.92" y="-48.78" font-family="Times,serif" font-size="14.00">la</text>
<text text-anchor="middle" x="2390.92" y="-33.78" font-family="Times,serif" font-size="14.00">da0fs0 (det)</text>
<text text-anchor="middle" x="2390.92" y="-18.78" font-family="Times,serif" font-size="14.00">rep=no, t=no, r=yes, m=yes, c=no</text>
</g>
<!-- n18&#45;&gt;n17 -->
<g id="edge18" class="edge">
<title>n18&#45;&gt;n17</title>
<path fill="none" stroke="black" d="M2390.92,-110.85C2390.92,-102.67 2390.92,-93.89 2390.92,-85.37"/>
<polygon fill="black" stroke="black" points="2394.42,-85.15 2390.92,-75.15 2387.42,-85.15 2394.42,-85.15"/>
</g>
</g>
</svg>
