<?xml version="1.0" encoding="UTF-8" standalone="no"?>
<!DOCTYPE svg PUBLIC "-//W3C//DTD SVG 1.1//EN"
 "http://www.w3.org/Graphics/SVG/1.1/DTD/svg11.dtd">
<!-- Generated by graphviz version 2.43.0 (0)
 -->
<!-- Title: tree Pages: 1 -->
<svg width="3704pt" height="860pt"
 viewBox="0.00 0.00 3703.65 859.63" xmlns="http://www.w3.org/2000/svg" xmlns:xlink="http://www.w3.org/1999/xlink">
<g id="graph0" class="graph" transform="scale(1 1) rotate(0) translate(4 855.63)">
<title>tree</title>
<polygon fill="white" stroke="transparent" points="-4,4 -4,-855.63 3699.65,-855.63 3699.65,4 -4,4"/>
<!-- n7 -->
<g id="node1" class="node">
<title>n7</title>
<ellipse fill="none" stroke="black" cx="1154.73" cy="-814.15" rx="181.95" ry="37.45"/>
<text text-anchor="middle" x="1154.73" y="-825.45" font-family="Times,serif" font-size="14.00">miran</text>
<text text-anchor="middle" x="1154.73" y="-810.45" font-family="Times,serif" font-size="14.00">vmip3p0 (root)</text>
<text text-anchor="middle" x="1154.73" y="-795.45" font-family="Times,serif" font-size="14.00">rep=no, t=no, r=no, m=no, c=no</text>
</g>
<!-- n1 -->
<g id="node2" class="node">
<title>n1</title>
<ellipse fill="none" stroke="black" cx="188.73" cy="-703.2" rx="181.95" ry="37.45"/>
<text text-anchor="middle" x="188.73" y="-714.5" font-family="Times,serif" font-size="14.00">Sin</text>
<text text-anchor="middle" x="188.73" y="-699.5" font-family="Times,serif" font-size="14.00">sps00 (advmod)</text>
<text text-anchor="middle" x="188.73" y="-684.5" font-family="Times,serif" font-size="14.00">rep=no, t=no, r=no, m=no, c=no</text>
</g>
<!-- n7&#45;&gt;n1 -->
<g id="edge1" class="edge">
<title>n7&#45;&gt;n1</title>
<path fill="none" stroke="black" d="M983.25,-801.61C826.46,-789.98 588.35,-769.59 382.73,-740.67 364.38,-738.09 345.12,-734.97 326.16,-731.66"/>
<polygon fill="black" stroke="black" points="326.74,-728.21 316.28,-729.91 325.52,-735.1 326.74,-728.21"/>
</g>
<!-- n3 -->
<g id="node3" class="node">
<title>n3</title>
<ellipse fill="none" stroke="black" cx="573.73" cy="-703.2" rx="181.95" ry="37.45"/>
<text text-anchor="middle" x="573.73" y="-714.5" font-family="Times,serif" font-size="14.00">,</text>
<text text-anchor="middle" x="573.73" y="-699.5" font-family="Times,serif" font-size="14.00">fc (punct)</text>
<text text-anchor="middle" x="573.73" y="-684.5" font-family="Times,serif" font-size="14.00">rep=no, t=no, r=no, m=no, c=no</text>
</g>
<!-- n7&#45;&gt;n3 -->
<g id="edge2" class="edge">
<title>n7&#45;&gt;n3</title>
<path fill="none" stroke="black" d="M1021.57,-788.57C946.19,-774.62 850.17,-756.77 764.73,-740.67 748.43,-737.6 731.36,-734.37 714.41,-731.15"/>
<polygon fill="black" stroke="black" points="714.93,-727.68 704.45,-729.25 713.62,-734.56 714.93,-727.68"/>
</g>
<!-- n5 -->
<g id="node4" class="node">
<title>n5</title>
<ellipse fill="none" stroke="black" cx="959.73" cy="-703.2" rx="185.94" ry="37.45"/>
<text text-anchor="middle" x="959.73" y="-714.5" font-family="Times,serif" font-size="14.00">consumidores</text>
<text text-anchor="middle" x="959.73" y="-699.5" font-family="Times,serif" font-size="14.00">ncmp000 (nsubj)</text>
<text text-anchor="middle" x="959.73" y="-684.5" font-family="Times,serif" font-size="14.00">rep=yes, t=no, r=no, m=no, c=no</text>
</g>
<!-- n7&#45;&gt;n5 -->
<g id="edge3" class="edge">
<title>n7&#45;&gt;n5</title>
<path fill="none" stroke="black" d="M1093.29,-778.83C1073.36,-767.69 1051.08,-755.24 1030.52,-743.75"/>
<polygon fill="black" stroke="black" points="1031.96,-740.54 1021.52,-738.72 1028.54,-746.66 1031.96,-740.54"/>
</g>
<!-- n8 -->
<g id="node5" class="node">
<title>n8</title>
<ellipse fill="none" stroke="black" cx="1542.73" cy="-703.2" rx="181.95" ry="37.45"/>
<text text-anchor="middle" x="1542.73" y="-714.5" font-family="Times,serif" font-size="14.00">con</text>
<text text-anchor="middle" x="1542.73" y="-699.5" font-family="Times,serif" font-size="14.00">sps00 (prepv)</text>
<text text-anchor="middle" x="1542.73" y="-684.5" font-family="Times,serif" font-size="14.00">rep=no, t=no, r=no, m=no, c=no</text>
</g>
<!-- n7&#45;&gt;n8 -->
<g id="edge4" class="edge">
<title>n7&#45;&gt;n8</title>
<path fill="none" stroke="black" d="M1259.98,-783.59C1311.85,-769.03 1374.5,-751.44 1427.63,-736.52"/>
<polygon fill="black" stroke="black" points="1428.76,-739.83 1437.44,-733.76 1426.87,-733.1 1428.76,-739.83"/>
</g>
<!-- n13 -->
<g id="node6" class="node">
<title>n13</title>
<ellipse fill="none" stroke="black" cx="1923.73" cy="-703.2" rx="181.95" ry="37.45"/>
<text text-anchor="middle" x="1923.73" y="-714.5" font-family="Times,serif" font-size="14.00">que</text>
<text text-anchor="middle" x="1923.73" y="-699.5" font-family="Times,serif" font-size="14.00">cs (dobj)</text>
<text text-anchor="middle" x="1923.73" y="-684.5" font-family="Times,serif" font-size="14.00">rep=no, t=no, r=no, m=no, c=no</text>
</g>
<!-- n7&#45;&gt;n13 -->
<g id="edge5" class="edge">
<title>n7&#45;&gt;n13</title>
<path fill="none" stroke="black" d="M1313.94,-796.05C1430.47,-782.84 1592.27,-763.08 1733.73,-740.67 1750.57,-738 1768.21,-734.96 1785.67,-731.79"/>
<polygon fill="black" stroke="black" points="1786.71,-735.16 1795.92,-729.91 1785.45,-728.27 1786.71,-735.16"/>
</g>
<!-- n25 -->
<g id="node7" class="node">
<title>n25</title>
<ellipse fill="none" stroke="black" cx="2304.73" cy="-703.2" rx="181.95" ry="37.45"/>
<text text-anchor="middle" x="2304.73" y="-714.5" font-family="Times,serif" font-size="14.00">.</text>
<text text-anchor="middle" x="2304.73" y="-699.5" font-family="Times,serif" font-size="14.00">fp (punct)</text>
<text text-anchor="middle" x="2304.73" y="-684.5" font-family="Times,serif" font-size="14.00">rep=no, t=no, r=no, m=no, c=no</text>
</g>
<!-- n7&#45;&gt;n25 -->
<g id="edge6" class="edge">
<title>n7&#45;&gt;n25</title>
<path fill="none" stroke="black" d="M1332.29,-805.83C1525.45,-796.45 1843.02,-776.89 2114.73,-740.67 2132.51,-738.3 2151.14,-735.33 2169.49,-732.12"/>
<polygon fill="black" stroke="black" points="2170.12,-735.56 2179.35,-730.37 2168.89,-728.67 2170.12,-735.56"/>
</g>
<!-- n2 -->
<g id="node8" class="node">
<title>n2</title>
<ellipse fill="none" stroke="black" cx="181.73" cy="-592.24" rx="181.95" ry="37.45"/>
<text text-anchor="middle" x="181.73" y="-603.54" font-family="Times,serif" font-size="14.00">embargo</text>
<text text-anchor="middle" x="181.73" y="-588.54" font-family="Times,serif" font-size="14.00">ncmp000 (pobj)</text>
<text text-anchor="middle" x="181.73" y="-573.54" font-family="Times,serif" font-size="14.00">rep=no, t=no, r=no, m=no, c=no</text>
</g>
<!-- n1&#45;&gt;n2 -->
<g id="edge7" class="edge">
<title>n1&#45;&gt;n2</title>
<path fill="none" stroke="black" d="M186.38,-665.61C185.85,-657.44 185.29,-648.66 184.74,-640.13"/>
<polygon fill="black" stroke="black" points="188.22,-639.67 184.08,-629.92 181.23,-640.12 188.22,-639.67"/>
</g>
<!-- n4 -->
<g id="node9" class="node">
<title>n4</title>
<ellipse fill="none" stroke="black" cx="567.73" cy="-592.24" rx="185.94" ry="37.45"/>
<text text-anchor="middle" x="567.73" y="-603.54" font-family="Times,serif" font-size="14.00">los</text>
<text text-anchor="middle" x="567.73" y="-588.54" font-family="Times,serif" font-size="14.00">da0mp0 (det)</text>
<text text-anchor="middle" x="567.73" y="-573.54" font-family="Times,serif" font-size="14.00">rep=yes, t=no, r=no, m=no, c=no</text>
</g>
<!-- n5&#45;&gt;n4 -->
<g id="edge8" class="edge">
<title>n5&#45;&gt;n4</title>
<path fill="none" stroke="black" d="M852.87,-672.5C800.8,-658.02 738.05,-640.58 684.7,-625.75"/>
<polygon fill="black" stroke="black" points="685.42,-622.32 674.85,-623.02 683.55,-629.07 685.42,-622.32"/>
</g>
<!-- n6 -->
<g id="node10" class="node">
<title>n6</title>
<ellipse fill="none" stroke="black" cx="957.73" cy="-592.24" rx="185.94" ry="37.45"/>
<text text-anchor="middle" x="957.73" y="-603.54" font-family="Times,serif" font-size="14.00">suecos</text>
<text text-anchor="middle" x="957.73" y="-588.54" font-family="Times,serif" font-size="14.00">aq0mp0 (amod)</text>
<text text-anchor="middle" x="957.73" y="-573.54" font-family="Times,serif" font-size="14.00">rep=yes, t=no, r=no, m=no, c=no</text>
</g>
<!-- n5&#45;&gt;n6 -->
<g id="edge9" class="edge">
<title>n5&#45;&gt;n6</title>
<path fill="none" stroke="black" d="M959.05,-665.61C958.9,-657.44 958.74,-648.66 958.59,-640.13"/>
<polygon fill="black" stroke="black" points="962.08,-639.85 958.4,-629.92 955.08,-639.98 962.08,-639.85"/>
</g>
<!-- n9 -->
<g id="node11" class="node">
<title>n9</title>
<ellipse fill="none" stroke="black" cx="1347.73" cy="-592.24" rx="185.94" ry="37.45"/>
<text text-anchor="middle" x="1347.73" y="-603.54" font-family="Times,serif" font-size="14.00">cierta</text>
<text text-anchor="middle" x="1347.73" y="-588.54" font-family="Times,serif" font-size="14.00">di0fs0 (pobj)</text>
<text text-anchor="middle" x="1347.73" y="-573.54" font-family="Times,serif" font-size="14.00">rep=no, t=no, r=no, m=no, c=yes</text>
</g>
<!-- n8&#45;&gt;n9 -->
<g id="edge10" class="edge">
<title>n8&#45;&gt;n9</title>
<path fill="none" stroke="black" d="M1481.29,-667.87C1461.36,-656.73 1439.08,-644.29 1418.52,-632.8"/>
<polygon fill="black" stroke="black" points="1419.96,-629.59 1409.52,-627.77 1416.54,-635.7 1419.96,-629.59"/>
</g>
<!-- n10 -->
<g id="node12" class="node">
<title>n10</title>
<ellipse fill="none" stroke="black" cx="1737.73" cy="-592.24" rx="185.94" ry="37.45"/>
<text text-anchor="middle" x="1737.73" y="-603.54" font-family="Times,serif" font-size="14.00">incredulidad</text>
<text text-anchor="middle" x="1737.73" y="-588.54" font-family="Times,serif" font-size="14.00">ncfs000 (pobj)</text>
<text text-anchor="middle" x="1737.73" y="-573.54" font-family="Times,serif" font-size="14.00">rep=no, t=no, r=no, m=no, c=yes</text>
</g>
<!-- n8&#45;&gt;n10 -->
<g id="edge11" class="edge">
<title>n8&#45;&gt;n10</title>
<path fill="none" stroke="black" d="M1604.16,-667.87C1624.09,-656.73 1646.37,-644.29 1666.93,-632.8"/>
<polygon fill="black" stroke="black" points="1668.91,-635.7 1675.93,-627.77 1665.5,-629.59 1668.91,-635.7"/>
</g>
<!-- n11 -->
<g id="node13" class="node">
<title>n11</title>
<ellipse fill="none" stroke="black" cx="2123.73" cy="-592.24" rx="181.95" ry="37.45"/>
<text text-anchor="middle" x="2123.73" y="-603.54" font-family="Times,serif" font-size="14.00">y</text>
<text text-anchor="middle" x="2123.73" y="-588.54" font-family="Times,serif" font-size="14.00">cc (coord_fixed)</text>
<text text-anchor="middle" x="2123.73" y="-573.54" font-family="Times,serif" font-size="14.00">rep=no, t=no, r=no, m=no, c=no</text>
</g>
<!-- n8&#45;&gt;n11 -->
<g id="edge12" class="edge">
<title>n8&#45;&gt;n11</title>
<path fill="none" stroke="black" d="M1673,-676.98C1693,-673.17 1713.41,-669.31 1732.73,-665.72 1821.52,-649.21 1843.92,-646.19 1932.73,-629.72 1949.1,-626.68 1966.25,-623.46 1983.27,-620.24"/>
<polygon fill="black" stroke="black" points="1984.1,-623.65 1993.28,-618.35 1982.8,-616.77 1984.1,-623.65"/>
</g>
<!-- n12 -->
<g id="node14" class="node">
<title>n12</title>
<ellipse fill="none" stroke="black" cx="2509.73" cy="-592.24" rx="185.94" ry="37.45"/>
<text text-anchor="middle" x="2509.73" y="-603.54" font-family="Times,serif" font-size="14.00">sorpresa</text>
<text text-anchor="middle" x="2509.73" y="-588.54" font-family="Times,serif" font-size="14.00">ncfs000 (pobj)</text>
<text text-anchor="middle" x="2509.73" y="-573.54" font-family="Times,serif" font-size="14.00">rep=no, t=no, r=no, m=no, c=yes</text>
</g>
<!-- n8&#45;&gt;n12 -->
<g id="edge13" class="edge">
<title>n8&#45;&gt;n12</title>
<path fill="none" stroke="black" d="M1667.56,-675.88C1689.21,-671.99 1711.57,-668.39 1732.73,-665.72 1989.84,-633.22 2057.53,-661.61 2314.73,-629.72 2333.28,-627.42 2352.74,-624.45 2371.87,-621.21"/>
<polygon fill="black" stroke="black" points="2372.59,-624.64 2381.85,-619.49 2371.4,-617.74 2372.59,-624.64"/>
</g>
<!-- n18 -->
<g id="node15" class="node">
<title>n18</title>
<ellipse fill="#DA79E8" stroke="black" cx="2904.73" cy="-592.24" rx="190.84" ry="37.45"/>
<text text-anchor="middle" x="2904.73" y="-603.54" font-family="Times,serif" font-size="14.00">existan</text>
<text text-anchor="middle" x="2904.73" y="-588.54" font-family="Times,serif" font-size="14.00">vmsp3p0 (cobj)</text>
<text text-anchor="middle" x="2904.73" y="-573.54" font-family="Times,serif" font-size="14.00">rep=no, t=no, r=yes, m=yes, c=no</text>
</g>
<!-- n13&#45;&gt;n18 -->
<g id="edge14" class="edge">
<title>n13&#45;&gt;n18</title>
<path fill="none" stroke="black" d="M2048.3,-675.91C2070.04,-672 2092.48,-668.39 2113.73,-665.72 2374.82,-632.84 2443.48,-661.38 2704.73,-629.72 2723.84,-627.4 2743.88,-624.42 2763.59,-621.16"/>
<polygon fill="black" stroke="black" points="2764.27,-624.59 2773.55,-619.48 2763.11,-617.69 2764.27,-624.59"/>
</g>
<!-- n15 -->
<g id="node16" class="node">
<title>n15</title>
<ellipse fill="#BEDA48" stroke="black" cx="2704.73" cy="-481.29" rx="190.84" ry="37.45"/>
<text text-anchor="middle" x="2704.73" y="-492.59" font-family="Times,serif" font-size="14.00">acuerdos</text>
<text text-anchor="middle" x="2704.73" y="-477.59" font-family="Times,serif" font-size="14.00">ncmp000 (nsubj)</text>
<text text-anchor="middle" x="2704.73" y="-462.59" font-family="Times,serif" font-size="14.00">rep=no, t=yes, r=no, m=yes, c=no</text>
</g>
<!-- n18&#45;&gt;n15 -->
<g id="edge15" class="edge">
<title>n18&#45;&gt;n15</title>
<path fill="none" stroke="black" d="M2841.45,-556.77C2820.92,-545.59 2797.99,-533.1 2776.87,-521.59"/>
<polygon fill="black" stroke="black" points="2778.39,-518.44 2767.94,-516.73 2775.05,-524.58 2778.39,-518.44"/>
</g>
<!-- n19 -->
<g id="node17" class="node">
<title>n19</title>
<ellipse fill="#DA79E8" stroke="black" cx="3104.73" cy="-481.29" rx="190.84" ry="37.45"/>
<text text-anchor="middle" x="3104.73" y="-492.59" font-family="Times,serif" font-size="14.00">entre</text>
<text text-anchor="middle" x="3104.73" y="-477.59" font-family="Times,serif" font-size="14.00">sps00 (prepv)</text>
<text text-anchor="middle" x="3104.73" y="-462.59" font-family="Times,serif" font-size="14.00">rep=no, t=no, r=yes, m=yes, c=no</text>
</g>
<!-- n18&#45;&gt;n19 -->
<g id="edge16" class="edge">
<title>n18&#45;&gt;n19</title>
<path fill="none" stroke="black" d="M2968.01,-556.77C2988.54,-545.59 3011.46,-533.1 3032.58,-521.59"/>
<polygon fill="black" stroke="black" points="3034.41,-524.58 3041.51,-516.73 3031.06,-518.44 3034.41,-524.58"/>
</g>
<!-- n14 -->
<g id="node18" class="node">
<title>n14</title>
<ellipse fill="#BEDA48" stroke="black" cx="2304.73" cy="-370.34" rx="190.84" ry="37.45"/>
<text text-anchor="middle" x="2304.73" y="-381.64" font-family="Times,serif" font-size="14.00">estos</text>
<text text-anchor="middle" x="2304.73" y="-366.64" font-family="Times,serif" font-size="14.00">dd0mp0 (det)</text>
<text text-anchor="middle" x="2304.73" y="-351.64" font-family="Times,serif" font-size="14.00">rep=no, t=yes, r=no, m=yes, c=no</text>
</g>
<!-- n15&#45;&gt;n14 -->
<g id="edge17" class="edge">
<title>n15&#45;&gt;n14</title>
<path fill="none" stroke="black" d="M2595.42,-450.52C2542.29,-436.04 2478.32,-418.62 2423.93,-403.81"/>
<polygon fill="black" stroke="black" points="2424.81,-400.42 2414.24,-401.17 2422.97,-407.17 2424.81,-400.42"/>
</g>
<!-- n16 -->
<g id="node19" class="node">
<title>n16</title>
<ellipse fill="#BEDA48" stroke="black" cx="2704.73" cy="-370.34" rx="190.84" ry="37.45"/>
<text text-anchor="middle" x="2704.73" y="-381.64" font-family="Times,serif" font-size="14.00">de</text>
<text text-anchor="middle" x="2704.73" y="-366.64" font-family="Times,serif" font-size="14.00">sps00 (prepn)</text>
<text text-anchor="middle" x="2704.73" y="-351.64" font-family="Times,serif" font-size="14.00">rep=no, t=yes, r=no, m=yes, c=no</text>
</g>
<!-- n15&#45;&gt;n16 -->
<g id="edge18" class="edge">
<title>n15&#45;&gt;n16</title>
<path fill="none" stroke="black" d="M2704.73,-443.71C2704.73,-435.53 2704.73,-426.75 2704.73,-418.23"/>
<polygon fill="black" stroke="black" points="2708.23,-418.01 2704.73,-408.01 2701.23,-418.01 2708.23,-418.01"/>
</g>
<!-- n21 -->
<g id="node21" class="node">
<title>n21</title>
<ellipse fill="#DA79E8" stroke="black" cx="3104.73" cy="-370.34" rx="190.84" ry="37.45"/>
<text text-anchor="middle" x="3104.73" y="-381.64" font-family="Times,serif" font-size="14.00">empresas</text>
<text text-anchor="middle" x="3104.73" y="-366.64" font-family="Times,serif" font-size="14.00">ncfp000 (pobj)</text>
<text text-anchor="middle" x="3104.73" y="-351.64" font-family="Times,serif" font-size="14.00">rep=no, t=no, r=yes, m=yes, c=no</text>
</g>
<!-- n19&#45;&gt;n21 -->
<g id="edge20" class="edge">
<title>n19&#45;&gt;n21</title>
<path fill="none" stroke="black" d="M3104.73,-443.71C3104.73,-435.53 3104.73,-426.75 3104.73,-418.23"/>
<polygon fill="black" stroke="black" points="3108.23,-418.01 3104.73,-408.01 3101.23,-418.01 3108.23,-418.01"/>
</g>
<!-- n17 -->
<g id="node20" class="node">
<title>n17</title>
<ellipse fill="#BEDA48" stroke="black" cx="2704.73" cy="-259.38" rx="190.84" ry="37.45"/>
<text text-anchor="middle" x="2704.73" y="-270.68" font-family="Times,serif" font-size="14.00">precios</text>
<text text-anchor="middle" x="2704.73" y="-255.68" font-family="Times,serif" font-size="14.00">ncmp000 (pobj)</text>
<text text-anchor="middle" x="2704.73" y="-240.68" font-family="Times,serif" font-size="14.00">rep=no, t=yes, r=no, m=yes, c=no</text>
</g>
<!-- n16&#45;&gt;n17 -->
<g id="edge19" class="edge">
<title>n16&#45;&gt;n17</title>
<path fill="none" stroke="black" d="M2704.73,-332.75C2704.73,-324.58 2704.73,-315.8 2704.73,-307.27"/>
<polygon fill="black" stroke="black" points="2708.23,-307.06 2704.73,-297.06 2701.23,-307.06 2708.23,-307.06"/>
</g>
<!-- n20 -->
<g id="node22" class="node">
<title>n20</title>
<ellipse fill="#DA79E8" stroke="black" cx="3104.73" cy="-259.38" rx="190.84" ry="37.45"/>
<text text-anchor="middle" x="3104.73" y="-270.68" font-family="Times,serif" font-size="14.00">las</text>
<text text-anchor="middle" x="3104.73" y="-255.68" font-family="Times,serif" font-size="14.00">da0fp0 (det)</text>
<text text-anchor="middle" x="3104.73" y="-240.68" font-family="Times,serif" font-size="14.00">rep=no, t=no, r=yes, m=yes, c=no</text>
</g>
<!-- n21&#45;&gt;n20 -->
<g id="edge21" class="edge">
<title>n21&#45;&gt;n20</title>
<path fill="none" stroke="black" d="M3104.73,-332.75C3104.73,-324.58 3104.73,-315.8 3104.73,-307.27"/>
<polygon fill="black" stroke="black" points="3108.23,-307.06 3104.73,-297.06 3101.23,-307.06 3108.23,-307.06"/>
</g>
<!-- n22 -->
<g id="node23" class="node">
<title>n22</title>
<ellipse fill="#DA79E8" stroke="black" cx="3504.73" cy="-259.38" rx="190.84" ry="37.45"/>
<text text-anchor="middle" x="3504.73" y="-270.68" font-family="Times,serif" font-size="14.00">de</text>
<text text-anchor="middle" x="3504.73" y="-255.68" font-family="Times,serif" font-size="14.00">sps00 (prepn)</text>
<text text-anchor="middle" x="3504.73" y="-240.68" font-family="Times,serif" font-size="14.00">rep=no, t=no, r=yes, m=yes, c=no</text>
</g>
<!-- n21&#45;&gt;n22 -->
<g id="edge22" class="edge">
<title>n21&#45;&gt;n22</title>
<path fill="none" stroke="black" d="M3214.03,-339.56C3267.16,-325.09 3331.13,-307.67 3385.52,-292.85"/>
<polygon fill="black" stroke="black" points="3386.48,-296.22 3395.21,-290.21 3384.64,-289.46 3386.48,-296.22"/>
</g>
<!-- n24 -->
<g id="node24" class="node">
<title>n24</title>
<ellipse fill="#DA79E8" stroke="black" cx="3504.73" cy="-148.43" rx="190.84" ry="37.45"/>
<text text-anchor="middle" x="3504.73" y="-159.73" font-family="Times,serif" font-size="14.00">país</text>
<text text-anchor="middle" x="3504.73" y="-144.73" font-family="Times,serif" font-size="14.00">ncms000 (pobj)</text>
<text text-anchor="middle" x="3504.73" y="-129.73" font-family="Times,serif" font-size="14.00">rep=no, t=no, r=yes, m=yes, c=no</text>
</g>
<!-- n22&#45;&gt;n24 -->
<g id="edge23" class="edge">
<title>n22&#45;&gt;n24</title>
<path fill="none" stroke="black" d="M3504.73,-221.8C3504.73,-213.63 3504.73,-204.85 3504.73,-196.32"/>
<polygon fill="black" stroke="black" points="3508.23,-196.1 3504.73,-186.1 3501.23,-196.1 3508.23,-196.1"/>
</g>
<!-- n23 -->
<g id="node25" class="node">
<title>n23</title>
<ellipse fill="#DA79E8" stroke="black" cx="3504.73" cy="-37.48" rx="190.84" ry="37.45"/>
<text text-anchor="middle" x="3504.73" y="-48.78" font-family="Times,serif" font-size="14.00">su</text>
<text text-anchor="middle" x="3504.73" y="-33.78" font-family="Times,serif" font-size="14.00">dp3cs0 (poss)</text>
<text text-anchor="middle" x="3504.73" y="-18.78" font-family="Times,serif" font-size="14.00">rep=no, t=no, r=yes, m=yes, c=no</text>
</g>
<!-- n24&#45;&gt;n23 -->
<g id="edge24" class="edge">
<title>n24&#45;&gt;n23</title>
<path fill="none" stroke="black" d="M3504.73,-110.85C3504.73,-102.67 3504.73,-93.89 3504.73,-85.37"/>
<polygon fill="black" stroke="black" points="3508.23,-85.15 3504.73,-75.15 3501.23,-85.15 3508.23,-85.15"/>
</g>
</g>
</svg>
