<?xml version="1.0" encoding="UTF-8" standalone="no"?>
<!DOCTYPE svg PUBLIC "-//W3C//DTD SVG 1.1//EN"
 "http://www.w3.org/Graphics/SVG/1.1/DTD/svg11.dtd">
<!-- Generated by graphviz version 2.43.0 (0)
 -->
<!-- Title: tree Pages: 1 -->
<svg width="3315pt" height="1082pt"
 viewBox="0.00 0.00 3314.89 1081.53" xmlns="http://www.w3.org/2000/svg" xmlns:xlink="http://www.w3.org/1999/xlink">
<g id="graph0" class="graph" transform="scale(1 1) rotate(0) translate(4 1077.53)">
<title>tree</title>
<polygon fill="white" stroke="transparent" points="-4,4 -4,-1077.53 3310.89,-1077.53 3310.89,4 -4,4"/>
<!-- n15 -->
<g id="node1" class="node">
<title>n15</title>
<ellipse fill="none" stroke="black" cx="2340.92" cy="-1036.06" rx="185.94" ry="37.45"/>
<text text-anchor="middle" x="2340.92" y="-1047.36" font-family="Times,serif" font-size="14.00">y</text>
<text text-anchor="middle" x="2340.92" y="-1032.36" font-family="Times,serif" font-size="14.00">cc (root)</text>
<text text-anchor="middle" x="2340.92" y="-1017.36" font-family="Times,serif" font-size="14.00">rep=no, t=no, r=no, m=yes, c=no</text>
</g>
<!-- n14 -->
<g id="node2" class="node">
<title>n14</title>
<ellipse fill="none" stroke="black" cx="1365.92" cy="-925.1" rx="185.94" ry="37.45"/>
<text text-anchor="middle" x="1365.92" y="-936.4" font-family="Times,serif" font-size="14.00">varían</text>
<text text-anchor="middle" x="1365.92" y="-921.4" font-family="Times,serif" font-size="14.00">vmip3p0 (coord)</text>
<text text-anchor="middle" x="1365.92" y="-906.4" font-family="Times,serif" font-size="14.00">rep=no, t=no, r=no, m=yes, c=no</text>
</g>
<!-- n15&#45;&gt;n14 -->
<g id="edge1" class="edge">
<title>n15&#45;&gt;n14</title>
<path fill="none" stroke="black" d="M2180.19,-1017.1C2002.68,-997.26 1718.03,-965.45 1536.62,-945.18"/>
<polygon fill="black" stroke="black" points="1536.77,-941.67 1526.44,-944.04 1535.99,-948.63 1536.77,-941.67"/>
</g>
<!-- n26 -->
<g id="node3" class="node">
<title>n26</title>
<ellipse fill="none" stroke="black" cx="2340.92" cy="-925.1" rx="185.94" ry="37.45"/>
<text text-anchor="middle" x="2340.92" y="-936.4" font-family="Times,serif" font-size="14.00">es</text>
<text text-anchor="middle" x="2340.92" y="-921.4" font-family="Times,serif" font-size="14.00">vsip3s0 (coord)</text>
<text text-anchor="middle" x="2340.92" y="-906.4" font-family="Times,serif" font-size="14.00">rep=no, t=no, r=no, m=yes, c=no</text>
</g>
<!-- n15&#45;&gt;n26 -->
<g id="edge2" class="edge">
<title>n15&#45;&gt;n26</title>
<path fill="none" stroke="black" d="M2340.92,-998.47C2340.92,-990.3 2340.92,-981.52 2340.92,-972.99"/>
<polygon fill="black" stroke="black" points="2344.42,-972.78 2340.92,-962.78 2337.42,-972.78 2344.42,-972.78"/>
</g>
<!-- n30 -->
<g id="node4" class="node">
<title>n30</title>
<ellipse fill="none" stroke="black" cx="2726.92" cy="-925.1" rx="181.95" ry="37.45"/>
<text text-anchor="middle" x="2726.92" y="-936.4" font-family="Times,serif" font-size="14.00">.</text>
<text text-anchor="middle" x="2726.92" y="-921.4" font-family="Times,serif" font-size="14.00">fp (punct)</text>
<text text-anchor="middle" x="2726.92" y="-906.4" font-family="Times,serif" font-size="14.00">rep=no, t=no, r=no, m=no, c=no</text>
</g>
<!-- n15&#45;&gt;n30 -->
<g id="edge3" class="edge">
<title>n15&#45;&gt;n30</title>
<path fill="none" stroke="black" d="M2446.65,-1005.21C2497.92,-990.74 2559.6,-973.33 2612.03,-958.53"/>
<polygon fill="black" stroke="black" points="2613.03,-961.89 2621.7,-955.8 2611.13,-955.15 2613.03,-961.89"/>
</g>
<!-- n1 -->
<g id="node5" class="node">
<title>n1</title>
<ellipse fill="none" stroke="black" cx="390.92" cy="-814.15" rx="185.94" ry="37.45"/>
<text text-anchor="middle" x="390.92" y="-825.45" font-family="Times,serif" font-size="14.00">Sea</text>
<text text-anchor="middle" x="390.92" y="-810.45" font-family="Times,serif" font-size="14.00">vsm03s0 (advcl)</text>
<text text-anchor="middle" x="390.92" y="-795.45" font-family="Times,serif" font-size="14.00">rep=no, t=no, r=no, m=yes, c=no</text>
</g>
<!-- n14&#45;&gt;n1 -->
<g id="edge4" class="edge">
<title>n14&#45;&gt;n1</title>
<path fill="none" stroke="black" d="M1190.74,-912.47C1032.31,-900.84 792.84,-880.53 585.92,-851.63 567.92,-849.11 549.06,-846.08 530.45,-842.86"/>
<polygon fill="black" stroke="black" points="530.9,-839.39 520.45,-841.11 529.69,-846.28 530.9,-839.39"/>
</g>
<!-- n8 -->
<g id="node6" class="node">
<title>n8</title>
<ellipse fill="none" stroke="black" cx="780.92" cy="-814.15" rx="185.94" ry="37.45"/>
<text text-anchor="middle" x="780.92" y="-825.45" font-family="Times,serif" font-size="14.00">,</text>
<text text-anchor="middle" x="780.92" y="-810.45" font-family="Times,serif" font-size="14.00">fc (punct)</text>
<text text-anchor="middle" x="780.92" y="-795.45" font-family="Times,serif" font-size="14.00">rep=no, t=no, r=no, m=yes, c=no</text>
</g>
<!-- n14&#45;&gt;n8 -->
<g id="edge5" class="edge">
<title>n14&#45;&gt;n8</title>
<path fill="none" stroke="black" d="M1231.44,-899.15C1156.27,-885.2 1060.88,-867.47 975.92,-851.63 959.43,-848.55 942.16,-845.33 925,-842.12"/>
<polygon fill="black" stroke="black" points="925.39,-838.63 914.92,-840.24 924.11,-845.52 925.39,-838.63"/>
</g>
<!-- n9 -->
<g id="node7" class="node">
<title>n9</title>
<ellipse fill="none" stroke="black" cx="1170.92" cy="-814.15" rx="185.94" ry="37.45"/>
<text text-anchor="middle" x="1170.92" y="-825.45" font-family="Times,serif" font-size="14.00">en</text>
<text text-anchor="middle" x="1170.92" y="-810.45" font-family="Times,serif" font-size="14.00">sps00 (prepv)</text>
<text text-anchor="middle" x="1170.92" y="-795.45" font-family="Times,serif" font-size="14.00">rep=no, t=no, r=no, m=yes, c=no</text>
</g>
<!-- n14&#45;&gt;n9 -->
<g id="edge6" class="edge">
<title>n14&#45;&gt;n9</title>
<path fill="none" stroke="black" d="M1304.22,-889.63C1284.29,-878.5 1262.05,-866.07 1241.53,-854.61"/>
<polygon fill="black" stroke="black" points="1242.99,-851.41 1232.55,-849.59 1239.57,-857.52 1242.99,-851.41"/>
</g>
<!-- n12 -->
<g id="node8" class="node">
<title>n12</title>
<ellipse fill="none" stroke="black" cx="1560.92" cy="-814.15" rx="185.94" ry="37.45"/>
<text text-anchor="middle" x="1560.92" y="-825.45" font-family="Times,serif" font-size="14.00">precios</text>
<text text-anchor="middle" x="1560.92" y="-810.45" font-family="Times,serif" font-size="14.00">ncmp000 (nsubj)</text>
<text text-anchor="middle" x="1560.92" y="-795.45" font-family="Times,serif" font-size="14.00">rep=no, t=no, r=no, m=yes, c=no</text>
</g>
<!-- n14&#45;&gt;n12 -->
<g id="edge7" class="edge">
<title>n14&#45;&gt;n12</title>
<path fill="none" stroke="black" d="M1427.62,-889.63C1447.54,-878.5 1469.79,-866.07 1490.3,-854.61"/>
<polygon fill="black" stroke="black" points="1492.26,-857.52 1499.29,-849.59 1488.85,-851.41 1492.26,-857.52"/>
</g>
<!-- n13 -->
<g id="node9" class="node">
<title>n13</title>
<ellipse fill="none" stroke="black" cx="1950.92" cy="-814.15" rx="185.94" ry="37.45"/>
<text text-anchor="middle" x="1950.92" y="-825.45" font-family="Times,serif" font-size="14.00">no</text>
<text text-anchor="middle" x="1950.92" y="-810.45" font-family="Times,serif" font-size="14.00">rn (neg)</text>
<text text-anchor="middle" x="1950.92" y="-795.45" font-family="Times,serif" font-size="14.00">rep=no, t=no, r=no, m=yes, c=no</text>
</g>
<!-- n14&#45;&gt;n13 -->
<g id="edge8" class="edge">
<title>n14&#45;&gt;n13</title>
<path fill="none" stroke="black" d="M1500.39,-899.15C1575.57,-885.2 1670.95,-867.47 1755.92,-851.63 1772.41,-848.55 1789.68,-845.33 1806.83,-842.12"/>
<polygon fill="black" stroke="black" points="1807.73,-845.52 1816.92,-840.24 1806.44,-838.63 1807.73,-845.52"/>
</g>
<!-- n17 -->
<g id="node18" class="node">
<title>n17</title>
<ellipse fill="none" stroke="black" cx="2340.92" cy="-814.15" rx="185.94" ry="37.45"/>
<text text-anchor="middle" x="2340.92" y="-825.45" font-family="Times,serif" font-size="14.00">sospechas</text>
<text text-anchor="middle" x="2340.92" y="-810.45" font-family="Times,serif" font-size="14.00">ncfp000 (nsubj)</text>
<text text-anchor="middle" x="2340.92" y="-795.45" font-family="Times,serif" font-size="14.00">rep=no, t=no, r=no, m=yes, c=no</text>
</g>
<!-- n26&#45;&gt;n17 -->
<g id="edge17" class="edge">
<title>n26&#45;&gt;n17</title>
<path fill="none" stroke="black" d="M2340.92,-887.52C2340.92,-879.35 2340.92,-870.57 2340.92,-862.04"/>
<polygon fill="black" stroke="black" points="2344.42,-861.82 2340.92,-851.82 2337.42,-861.82 2344.42,-861.82"/>
</g>
<!-- n28 -->
<g id="node19" class="node">
<title>n28</title>
<ellipse fill="none" stroke="black" cx="2730.92" cy="-814.15" rx="185.94" ry="37.45"/>
<text text-anchor="middle" x="2730.92" y="-825.45" font-family="Times,serif" font-size="14.00">hecho</text>
<text text-anchor="middle" x="2730.92" y="-810.45" font-family="Times,serif" font-size="14.00">ncms000 (attr)</text>
<text text-anchor="middle" x="2730.92" y="-795.45" font-family="Times,serif" font-size="14.00">rep=no, t=no, r=no, m=yes, c=no</text>
</g>
<!-- n26&#45;&gt;n28 -->
<g id="edge18" class="edge">
<title>n26&#45;&gt;n28</title>
<path fill="none" stroke="black" d="M2447.49,-894.33C2499.29,-879.86 2561.66,-862.43 2614.69,-847.62"/>
<polygon fill="black" stroke="black" points="2615.79,-850.95 2624.48,-844.89 2613.91,-844.21 2615.79,-850.95"/>
</g>
<!-- n3 -->
<g id="node10" class="node">
<title>n3</title>
<ellipse fill="none" stroke="black" cx="193.92" cy="-703.2" rx="185.94" ry="37.45"/>
<text text-anchor="middle" x="193.92" y="-714.5" font-family="Times,serif" font-size="14.00">sea</text>
<text text-anchor="middle" x="193.92" y="-699.5" font-family="Times,serif" font-size="14.00">vssp3s0 (attr)</text>
<text text-anchor="middle" x="193.92" y="-684.5" font-family="Times,serif" font-size="14.00">rep=no, t=no, r=no, m=yes, c=no</text>
</g>
<!-- n1&#45;&gt;n3 -->
<g id="edge9" class="edge">
<title>n1&#45;&gt;n3</title>
<path fill="none" stroke="black" d="M328.59,-778.68C308.37,-767.49 285.79,-755 264.98,-743.5"/>
<polygon fill="black" stroke="black" points="266.63,-740.41 256.18,-738.63 263.24,-746.54 266.63,-740.41"/>
</g>
<!-- n5 -->
<g id="node11" class="node">
<title>n5</title>
<ellipse fill="none" stroke="black" cx="585.92" cy="-703.2" rx="185.94" ry="37.45"/>
<text text-anchor="middle" x="585.92" y="-714.5" font-family="Times,serif" font-size="14.00">marca</text>
<text text-anchor="middle" x="585.92" y="-699.5" font-family="Times,serif" font-size="14.00">ncfs000 (nsubj)</text>
<text text-anchor="middle" x="585.92" y="-684.5" font-family="Times,serif" font-size="14.00">rep=no, t=no, r=no, m=yes, c=no</text>
</g>
<!-- n1&#45;&gt;n5 -->
<g id="edge10" class="edge">
<title>n1&#45;&gt;n5</title>
<path fill="none" stroke="black" d="M452.62,-778.68C472.54,-767.54 494.79,-755.12 515.3,-743.65"/>
<polygon fill="black" stroke="black" points="517.26,-746.57 524.29,-738.63 513.85,-740.45 517.26,-746.57"/>
</g>
<!-- n10 -->
<g id="node16" class="node">
<title>n10</title>
<ellipse fill="none" stroke="black" cx="1170.92" cy="-703.2" rx="185.94" ry="37.45"/>
<text text-anchor="middle" x="1170.92" y="-714.5" font-family="Times,serif" font-size="14.00">Suecia</text>
<text text-anchor="middle" x="1170.92" y="-699.5" font-family="Times,serif" font-size="14.00">np00000 (pobj)</text>
<text text-anchor="middle" x="1170.92" y="-684.5" font-family="Times,serif" font-size="14.00">rep=no, t=no, r=no, m=yes, c=no</text>
</g>
<!-- n9&#45;&gt;n10 -->
<g id="edge15" class="edge">
<title>n9&#45;&gt;n10</title>
<path fill="none" stroke="black" d="M1170.92,-776.57C1170.92,-768.39 1170.92,-759.61 1170.92,-751.09"/>
<polygon fill="black" stroke="black" points="1174.42,-750.87 1170.92,-740.87 1167.42,-750.87 1174.42,-750.87"/>
</g>
<!-- n11 -->
<g id="node17" class="node">
<title>n11</title>
<ellipse fill="none" stroke="black" cx="1560.92" cy="-703.2" rx="185.94" ry="37.45"/>
<text text-anchor="middle" x="1560.92" y="-714.5" font-family="Times,serif" font-size="14.00">los</text>
<text text-anchor="middle" x="1560.92" y="-699.5" font-family="Times,serif" font-size="14.00">da0mp0 (det)</text>
<text text-anchor="middle" x="1560.92" y="-684.5" font-family="Times,serif" font-size="14.00">rep=no, t=no, r=no, m=yes, c=no</text>
</g>
<!-- n12&#45;&gt;n11 -->
<g id="edge16" class="edge">
<title>n12&#45;&gt;n11</title>
<path fill="none" stroke="black" d="M1560.92,-776.57C1560.92,-768.39 1560.92,-759.61 1560.92,-751.09"/>
<polygon fill="black" stroke="black" points="1564.42,-750.87 1560.92,-740.87 1557.42,-750.87 1564.42,-750.87"/>
</g>
<!-- n2 -->
<g id="node12" class="node">
<title>n2</title>
<ellipse fill="#BEDA48" stroke="black" cx="190.92" cy="-592.24" rx="190.84" ry="37.45"/>
<text text-anchor="middle" x="190.92" y="-603.54" font-family="Times,serif" font-size="14.00">cual</text>
<text text-anchor="middle" x="190.92" y="-588.54" font-family="Times,serif" font-size="14.00">pr0cs000 (nsubj)</text>
<text text-anchor="middle" x="190.92" y="-573.54" font-family="Times,serif" font-size="14.00">rep=no, t=yes, r=no, m=yes, c=no</text>
</g>
<!-- n3&#45;&gt;n2 -->
<g id="edge11" class="edge">
<title>n3&#45;&gt;n2</title>
<path fill="none" stroke="black" d="M192.91,-665.61C192.69,-657.44 192.44,-648.66 192.21,-640.13"/>
<polygon fill="black" stroke="black" points="195.7,-639.81 191.93,-629.92 188.71,-640.01 195.7,-639.81"/>
</g>
<!-- n4 -->
<g id="node13" class="node">
<title>n4</title>
<ellipse fill="none" stroke="black" cx="585.92" cy="-592.24" rx="185.94" ry="37.45"/>
<text text-anchor="middle" x="585.92" y="-603.54" font-family="Times,serif" font-size="14.00">la</text>
<text text-anchor="middle" x="585.92" y="-588.54" font-family="Times,serif" font-size="14.00">da0fs0 (det)</text>
<text text-anchor="middle" x="585.92" y="-573.54" font-family="Times,serif" font-size="14.00">rep=no, t=no, r=no, m=yes, c=no</text>
</g>
<!-- n5&#45;&gt;n4 -->
<g id="edge12" class="edge">
<title>n5&#45;&gt;n4</title>
<path fill="none" stroke="black" d="M585.92,-665.61C585.92,-657.44 585.92,-648.66 585.92,-640.13"/>
<polygon fill="black" stroke="black" points="589.42,-639.92 585.92,-629.92 582.42,-639.92 589.42,-639.92"/>
</g>
<!-- n6 -->
<g id="node14" class="node">
<title>n6</title>
<ellipse fill="none" stroke="black" cx="975.92" cy="-592.24" rx="185.94" ry="37.45"/>
<text text-anchor="middle" x="975.92" y="-603.54" font-family="Times,serif" font-size="14.00">del</text>
<text text-anchor="middle" x="975.92" y="-588.54" font-family="Times,serif" font-size="14.00">spcms (prepn)</text>
<text text-anchor="middle" x="975.92" y="-573.54" font-family="Times,serif" font-size="14.00">rep=no, t=no, r=no, m=yes, c=no</text>
</g>
<!-- n5&#45;&gt;n6 -->
<g id="edge13" class="edge">
<title>n5&#45;&gt;n6</title>
<path fill="none" stroke="black" d="M692.49,-672.42C744.29,-657.95 806.66,-640.53 859.69,-625.71"/>
<polygon fill="black" stroke="black" points="860.79,-629.04 869.48,-622.98 858.91,-622.3 860.79,-629.04"/>
</g>
<!-- n7 -->
<g id="node15" class="node">
<title>n7</title>
<ellipse fill="none" stroke="black" cx="975.92" cy="-481.29" rx="185.94" ry="37.45"/>
<text text-anchor="middle" x="975.92" y="-492.59" font-family="Times,serif" font-size="14.00">combustible</text>
<text text-anchor="middle" x="975.92" y="-477.59" font-family="Times,serif" font-size="14.00">ncms000 (pobj)</text>
<text text-anchor="middle" x="975.92" y="-462.59" font-family="Times,serif" font-size="14.00">rep=no, t=no, r=no, m=yes, c=no</text>
</g>
<!-- n6&#45;&gt;n7 -->
<g id="edge14" class="edge">
<title>n6&#45;&gt;n7</title>
<path fill="none" stroke="black" d="M975.92,-554.66C975.92,-546.49 975.92,-537.71 975.92,-529.18"/>
<polygon fill="black" stroke="black" points="979.42,-528.96 975.92,-518.96 972.42,-528.96 979.42,-528.96"/>
</g>
<!-- n16 -->
<g id="node20" class="node">
<title>n16</title>
<ellipse fill="none" stroke="black" cx="1950.92" cy="-703.2" rx="185.94" ry="37.45"/>
<text text-anchor="middle" x="1950.92" y="-714.5" font-family="Times,serif" font-size="14.00">las</text>
<text text-anchor="middle" x="1950.92" y="-699.5" font-family="Times,serif" font-size="14.00">da0fp0 (det)</text>
<text text-anchor="middle" x="1950.92" y="-684.5" font-family="Times,serif" font-size="14.00">rep=no, t=no, r=no, m=yes, c=no</text>
</g>
<!-- n17&#45;&gt;n16 -->
<g id="edge19" class="edge">
<title>n17&#45;&gt;n16</title>
<path fill="none" stroke="black" d="M2234.35,-783.38C2182.54,-768.91 2120.17,-751.48 2067.15,-736.67"/>
<polygon fill="black" stroke="black" points="2067.93,-733.25 2057.36,-733.93 2066.05,-739.99 2067.93,-733.25"/>
</g>
<!-- n18 -->
<g id="node21" class="node">
<title>n18</title>
<ellipse fill="none" stroke="black" cx="2340.92" cy="-703.2" rx="185.94" ry="37.45"/>
<text text-anchor="middle" x="2340.92" y="-714.5" font-family="Times,serif" font-size="14.00">de</text>
<text text-anchor="middle" x="2340.92" y="-699.5" font-family="Times,serif" font-size="14.00">sps00 (prepn)</text>
<text text-anchor="middle" x="2340.92" y="-684.5" font-family="Times,serif" font-size="14.00">rep=no, t=no, r=no, m=yes, c=no</text>
</g>
<!-- n17&#45;&gt;n18 -->
<g id="edge20" class="edge">
<title>n17&#45;&gt;n18</title>
<path fill="none" stroke="black" d="M2340.92,-776.57C2340.92,-768.39 2340.92,-759.61 2340.92,-751.09"/>
<polygon fill="black" stroke="black" points="2344.42,-750.87 2340.92,-740.87 2337.42,-750.87 2344.42,-750.87"/>
</g>
<!-- n27 -->
<g id="node29" class="node">
<title>n27</title>
<ellipse fill="none" stroke="black" cx="2730.92" cy="-703.2" rx="185.94" ry="37.45"/>
<text text-anchor="middle" x="2730.92" y="-714.5" font-family="Times,serif" font-size="14.00">un</text>
<text text-anchor="middle" x="2730.92" y="-699.5" font-family="Times,serif" font-size="14.00">di0ms0 (det)</text>
<text text-anchor="middle" x="2730.92" y="-684.5" font-family="Times,serif" font-size="14.00">rep=no, t=no, r=no, m=yes, c=no</text>
</g>
<!-- n28&#45;&gt;n27 -->
<g id="edge28" class="edge">
<title>n28&#45;&gt;n27</title>
<path fill="none" stroke="black" d="M2730.92,-776.57C2730.92,-768.39 2730.92,-759.61 2730.92,-751.09"/>
<polygon fill="black" stroke="black" points="2734.42,-750.87 2730.92,-740.87 2727.42,-750.87 2734.42,-750.87"/>
</g>
<!-- n29 -->
<g id="node30" class="node">
<title>n29</title>
<ellipse fill="none" stroke="black" cx="3120.92" cy="-703.2" rx="185.94" ry="37.45"/>
<text text-anchor="middle" x="3120.92" y="-714.5" font-family="Times,serif" font-size="14.00">probado</text>
<text text-anchor="middle" x="3120.92" y="-699.5" font-family="Times,serif" font-size="14.00">aq0msp (amod)</text>
<text text-anchor="middle" x="3120.92" y="-684.5" font-family="Times,serif" font-size="14.00">rep=no, t=no, r=no, m=yes, c=no</text>
</g>
<!-- n28&#45;&gt;n29 -->
<g id="edge29" class="edge">
<title>n28&#45;&gt;n29</title>
<path fill="none" stroke="black" d="M2837.49,-783.38C2889.29,-768.91 2951.66,-751.48 3004.69,-736.67"/>
<polygon fill="black" stroke="black" points="3005.79,-739.99 3014.48,-733.93 3003.91,-733.25 3005.79,-739.99"/>
</g>
<!-- n20 -->
<g id="node22" class="node">
<title>n20</title>
<ellipse fill="none" stroke="black" cx="2340.92" cy="-592.24" rx="185.94" ry="37.45"/>
<text text-anchor="middle" x="2340.92" y="-603.54" font-family="Times,serif" font-size="14.00">existencia</text>
<text text-anchor="middle" x="2340.92" y="-588.54" font-family="Times,serif" font-size="14.00">ncfs000 (pobj)</text>
<text text-anchor="middle" x="2340.92" y="-573.54" font-family="Times,serif" font-size="14.00">rep=no, t=no, r=no, m=yes, c=no</text>
</g>
<!-- n18&#45;&gt;n20 -->
<g id="edge21" class="edge">
<title>n18&#45;&gt;n20</title>
<path fill="none" stroke="black" d="M2340.92,-665.61C2340.92,-657.44 2340.92,-648.66 2340.92,-640.13"/>
<polygon fill="black" stroke="black" points="2344.42,-639.92 2340.92,-629.92 2337.42,-639.92 2344.42,-639.92"/>
</g>
<!-- n19 -->
<g id="node23" class="node">
<title>n19</title>
<ellipse fill="none" stroke="black" cx="2145.92" cy="-481.29" rx="185.94" ry="37.45"/>
<text text-anchor="middle" x="2145.92" y="-492.59" font-family="Times,serif" font-size="14.00">la</text>
<text text-anchor="middle" x="2145.92" y="-477.59" font-family="Times,serif" font-size="14.00">da0fs0 (det)</text>
<text text-anchor="middle" x="2145.92" y="-462.59" font-family="Times,serif" font-size="14.00">rep=no, t=no, r=no, m=yes, c=no</text>
</g>
<!-- n20&#45;&gt;n19 -->
<g id="edge22" class="edge">
<title>n20&#45;&gt;n19</title>
<path fill="none" stroke="black" d="M2279.22,-556.77C2259.29,-545.64 2237.05,-533.21 2216.53,-521.75"/>
<polygon fill="black" stroke="black" points="2217.99,-518.55 2207.55,-516.73 2214.57,-524.66 2217.99,-518.55"/>
</g>
<!-- n21 -->
<g id="node24" class="node">
<title>n21</title>
<ellipse fill="none" stroke="black" cx="2535.92" cy="-481.29" rx="185.94" ry="37.45"/>
<text text-anchor="middle" x="2535.92" y="-492.59" font-family="Times,serif" font-size="14.00">de</text>
<text text-anchor="middle" x="2535.92" y="-477.59" font-family="Times,serif" font-size="14.00">sps00 (prepn)</text>
<text text-anchor="middle" x="2535.92" y="-462.59" font-family="Times,serif" font-size="14.00">rep=no, t=no, r=no, m=yes, c=no</text>
</g>
<!-- n20&#45;&gt;n21 -->
<g id="edge23" class="edge">
<title>n20&#45;&gt;n21</title>
<path fill="none" stroke="black" d="M2402.62,-556.77C2422.54,-545.64 2444.79,-533.21 2465.3,-521.75"/>
<polygon fill="black" stroke="black" points="2467.26,-524.66 2474.29,-516.73 2463.85,-518.55 2467.26,-524.66"/>
</g>
<!-- n22 -->
<g id="node25" class="node">
<title>n22</title>
<ellipse fill="none" stroke="black" cx="2535.92" cy="-370.34" rx="185.94" ry="37.45"/>
<text text-anchor="middle" x="2535.92" y="-381.64" font-family="Times,serif" font-size="14.00">acuerdos</text>
<text text-anchor="middle" x="2535.92" y="-366.64" font-family="Times,serif" font-size="14.00">ncmp000 (pobj)</text>
<text text-anchor="middle" x="2535.92" y="-351.64" font-family="Times,serif" font-size="14.00">rep=no, t=no, r=no, m=yes, c=no</text>
</g>
<!-- n21&#45;&gt;n22 -->
<g id="edge24" class="edge">
<title>n21&#45;&gt;n22</title>
<path fill="none" stroke="black" d="M2535.92,-443.71C2535.92,-435.53 2535.92,-426.75 2535.92,-418.23"/>
<polygon fill="black" stroke="black" points="2539.42,-418.01 2535.92,-408.01 2532.42,-418.01 2539.42,-418.01"/>
</g>
<!-- n23 -->
<g id="node26" class="node">
<title>n23</title>
<ellipse fill="none" stroke="black" cx="2535.92" cy="-259.38" rx="185.94" ry="37.45"/>
<text text-anchor="middle" x="2535.92" y="-270.68" font-family="Times,serif" font-size="14.00">entre</text>
<text text-anchor="middle" x="2535.92" y="-255.68" font-family="Times,serif" font-size="14.00">sps00 (prepn)</text>
<text text-anchor="middle" x="2535.92" y="-240.68" font-family="Times,serif" font-size="14.00">rep=no, t=no, r=no, m=yes, c=no</text>
</g>
<!-- n22&#45;&gt;n23 -->
<g id="edge25" class="edge">
<title>n22&#45;&gt;n23</title>
<path fill="none" stroke="black" d="M2535.92,-332.75C2535.92,-324.58 2535.92,-315.8 2535.92,-307.27"/>
<polygon fill="black" stroke="black" points="2539.42,-307.06 2535.92,-297.06 2532.42,-307.06 2539.42,-307.06"/>
</g>
<!-- n25 -->
<g id="node27" class="node">
<title>n25</title>
<ellipse fill="none" stroke="black" cx="2535.92" cy="-148.43" rx="185.94" ry="37.45"/>
<text text-anchor="middle" x="2535.92" y="-159.73" font-family="Times,serif" font-size="14.00">gasolineras</text>
<text text-anchor="middle" x="2535.92" y="-144.73" font-family="Times,serif" font-size="14.00">ncfp000 (pobj)</text>
<text text-anchor="middle" x="2535.92" y="-129.73" font-family="Times,serif" font-size="14.00">rep=no, t=no, r=no, m=yes, c=no</text>
</g>
<!-- n23&#45;&gt;n25 -->
<g id="edge26" class="edge">
<title>n23&#45;&gt;n25</title>
<path fill="none" stroke="black" d="M2535.92,-221.8C2535.92,-213.63 2535.92,-204.85 2535.92,-196.32"/>
<polygon fill="black" stroke="black" points="2539.42,-196.1 2535.92,-186.1 2532.42,-196.1 2539.42,-196.1"/>
</g>
<!-- n24 -->
<g id="node28" class="node">
<title>n24</title>
<ellipse fill="none" stroke="black" cx="2535.92" cy="-37.48" rx="185.94" ry="37.45"/>
<text text-anchor="middle" x="2535.92" y="-48.78" font-family="Times,serif" font-size="14.00">las</text>
<text text-anchor="middle" x="2535.92" y="-33.78" font-family="Times,serif" font-size="14.00">da0fp0 (det)</text>
<text text-anchor="middle" x="2535.92" y="-18.78" font-family="Times,serif" font-size="14.00">rep=no, t=no, r=no, m=yes, c=no</text>
</g>
<!-- n25&#45;&gt;n24 -->
<g id="edge27" class="edge">
<title>n25&#45;&gt;n24</title>
<path fill="none" stroke="black" d="M2535.92,-110.85C2535.92,-102.67 2535.92,-93.89 2535.92,-85.37"/>
<polygon fill="black" stroke="black" points="2539.42,-85.15 2535.92,-75.15 2532.42,-85.15 2539.42,-85.15"/>
</g>
</g>
</svg>
