<?xml version="1.0" encoding="UTF-8" standalone="no"?>
<!DOCTYPE svg PUBLIC "-//W3C//DTD SVG 1.1//EN"
 "http://www.w3.org/Graphics/SVG/1.1/DTD/svg11.dtd">
<!-- Generated by graphviz version 2.43.0 (0)
 -->
<!-- Title: tree Pages: 1 -->
<svg width="2720pt" height="1192pt"
 viewBox="0.00 0.00 2719.94 1192.49" xmlns="http://www.w3.org/2000/svg" xmlns:xlink="http://www.w3.org/1999/xlink">
<g id="graph0" class="graph" transform="scale(1 1) rotate(0) translate(4 1188.49)">
<title>tree</title>
<polygon fill="white" stroke="transparent" points="-4,4 -4,-1188.49 2715.94,-1188.49 2715.94,4 -4,4"/>
<!-- n6 -->
<g id="node1" class="node">
<title>n6</title>
<ellipse fill="none" stroke="black" cx="965.97" cy="-1147.01" rx="185.94" ry="37.45"/>
<text text-anchor="middle" x="965.97" y="-1158.31" font-family="Times,serif" font-size="14.00">inició</text>
<text text-anchor="middle" x="965.97" y="-1143.31" font-family="Times,serif" font-size="14.00">vmis3s0 (root)</text>
<text text-anchor="middle" x="965.97" y="-1128.31" font-family="Times,serif" font-size="14.00">rep=no, t=no, r=no, m=yes, c=no</text>
</g>
<!-- n1 -->
<g id="node2" class="node">
<title>n1</title>
<ellipse fill="none" stroke="black" cx="185.97" cy="-1036.06" rx="185.94" ry="37.45"/>
<text text-anchor="middle" x="185.97" y="-1047.36" font-family="Times,serif" font-size="14.00">En</text>
<text text-anchor="middle" x="185.97" y="-1032.36" font-family="Times,serif" font-size="14.00">sps00 (prepv)</text>
<text text-anchor="middle" x="185.97" y="-1017.36" font-family="Times,serif" font-size="14.00">rep=no, t=no, r=no, m=yes, c=no</text>
</g>
<!-- n6&#45;&gt;n1 -->
<g id="edge1" class="edge">
<title>n6&#45;&gt;n1</title>
<path fill="none" stroke="black" d="M803.57,-1128.61C685.96,-1115.35 523.3,-1095.64 380.97,-1073.53 363.45,-1070.81 345.1,-1067.71 326.95,-1064.49"/>
<polygon fill="black" stroke="black" points="327.35,-1061.01 316.89,-1062.69 326.12,-1067.9 327.35,-1061.01"/>
</g>
<!-- n5 -->
<g id="node3" class="node">
<title>n5</title>
<ellipse fill="none" stroke="black" cx="575.97" cy="-1036.06" rx="185.94" ry="37.45"/>
<text text-anchor="middle" x="575.97" y="-1047.36" font-family="Times,serif" font-size="14.00">se</text>
<text text-anchor="middle" x="575.97" y="-1032.36" font-family="Times,serif" font-size="14.00">p0000000 (reflec)</text>
<text text-anchor="middle" x="575.97" y="-1017.36" font-family="Times,serif" font-size="14.00">rep=no, t=no, r=no, m=yes, c=no</text>
</g>
<!-- n6&#45;&gt;n5 -->
<g id="edge2" class="edge">
<title>n6&#45;&gt;n5</title>
<path fill="none" stroke="black" d="M859.4,-1116.24C807.59,-1101.77 745.23,-1084.34 692.2,-1069.53"/>
<polygon fill="black" stroke="black" points="692.98,-1066.11 682.41,-1066.79 691.1,-1072.85 692.98,-1066.11"/>
</g>
<!-- n9 -->
<g id="node4" class="node">
<title>n9</title>
<ellipse fill="none" stroke="black" cx="965.97" cy="-1036.06" rx="185.94" ry="37.45"/>
<text text-anchor="middle" x="965.97" y="-1047.36" font-family="Times,serif" font-size="14.00">investigación</text>
<text text-anchor="middle" x="965.97" y="-1032.36" font-family="Times,serif" font-size="14.00">ncfs000 (nsubj)</text>
<text text-anchor="middle" x="965.97" y="-1017.36" font-family="Times,serif" font-size="14.00">rep=no, t=no, r=no, m=yes, c=no</text>
</g>
<!-- n6&#45;&gt;n9 -->
<g id="edge3" class="edge">
<title>n6&#45;&gt;n9</title>
<path fill="none" stroke="black" d="M965.97,-1109.43C965.97,-1101.25 965.97,-1092.47 965.97,-1083.95"/>
<polygon fill="black" stroke="black" points="969.47,-1083.73 965.97,-1073.73 962.47,-1083.73 969.47,-1083.73"/>
</g>
<!-- n10 -->
<g id="node5" class="node">
<title>n10</title>
<ellipse fill="none" stroke="black" cx="1355.97" cy="-1036.06" rx="185.94" ry="37.45"/>
<text text-anchor="middle" x="1355.97" y="-1047.36" font-family="Times,serif" font-size="14.00">ante</text>
<text text-anchor="middle" x="1355.97" y="-1032.36" font-family="Times,serif" font-size="14.00">sps00 (prepv)</text>
<text text-anchor="middle" x="1355.97" y="-1017.36" font-family="Times,serif" font-size="14.00">rep=no, t=no, r=no, m=yes, c=no</text>
</g>
<!-- n6&#45;&gt;n10 -->
<g id="edge4" class="edge">
<title>n6&#45;&gt;n10</title>
<path fill="none" stroke="black" d="M1072.54,-1116.24C1124.34,-1101.77 1186.71,-1084.34 1239.74,-1069.53"/>
<polygon fill="black" stroke="black" points="1240.84,-1072.85 1249.53,-1066.79 1238.96,-1066.11 1240.84,-1072.85"/>
</g>
<!-- n26 -->
<g id="node6" class="node">
<title>n26</title>
<ellipse fill="none" stroke="black" cx="1741.97" cy="-1036.06" rx="181.95" ry="37.45"/>
<text text-anchor="middle" x="1741.97" y="-1047.36" font-family="Times,serif" font-size="14.00">.</text>
<text text-anchor="middle" x="1741.97" y="-1032.36" font-family="Times,serif" font-size="14.00">fp (punct)</text>
<text text-anchor="middle" x="1741.97" y="-1017.36" font-family="Times,serif" font-size="14.00">rep=no, t=no, r=no, m=no, c=no</text>
</g>
<!-- n6&#45;&gt;n26 -->
<g id="edge5" class="edge">
<title>n6&#45;&gt;n26</title>
<path fill="none" stroke="black" d="M1128.71,-1128.74C1246.3,-1115.56 1408.8,-1095.89 1550.97,-1073.53 1568.2,-1070.82 1586.26,-1067.72 1604.11,-1064.49"/>
<polygon fill="black" stroke="black" points="1604.79,-1067.93 1614,-1062.69 1603.54,-1061.04 1604.79,-1067.93"/>
</g>
<!-- n2 -->
<g id="node7" class="node">
<title>n2</title>
<ellipse fill="none" stroke="black" cx="185.97" cy="-925.1" rx="185.94" ry="37.45"/>
<text text-anchor="middle" x="185.97" y="-936.4" font-family="Times,serif" font-size="14.00">noviembre</text>
<text text-anchor="middle" x="185.97" y="-921.4" font-family="Times,serif" font-size="14.00">ncfs000 (pobj)</text>
<text text-anchor="middle" x="185.97" y="-906.4" font-family="Times,serif" font-size="14.00">rep=no, t=no, r=no, m=yes, c=no</text>
</g>
<!-- n1&#45;&gt;n2 -->
<g id="edge6" class="edge">
<title>n1&#45;&gt;n2</title>
<path fill="none" stroke="black" d="M185.97,-998.47C185.97,-990.3 185.97,-981.52 185.97,-972.99"/>
<polygon fill="black" stroke="black" points="189.47,-972.78 185.97,-962.78 182.47,-972.78 189.47,-972.78"/>
</g>
<!-- n7 -->
<g id="node10" class="node">
<title>n7</title>
<ellipse fill="none" stroke="black" cx="575.97" cy="-925.1" rx="185.94" ry="37.45"/>
<text text-anchor="middle" x="575.97" y="-936.4" font-family="Times,serif" font-size="14.00">una</text>
<text text-anchor="middle" x="575.97" y="-921.4" font-family="Times,serif" font-size="14.00">di0fs0 (det)</text>
<text text-anchor="middle" x="575.97" y="-906.4" font-family="Times,serif" font-size="14.00">rep=no, t=no, r=no, m=yes, c=no</text>
</g>
<!-- n9&#45;&gt;n7 -->
<g id="edge9" class="edge">
<title>n9&#45;&gt;n7</title>
<path fill="none" stroke="black" d="M859.4,-1005.28C807.59,-990.81 745.23,-973.39 692.2,-958.57"/>
<polygon fill="black" stroke="black" points="692.98,-955.16 682.41,-955.84 691.1,-961.9 692.98,-955.16"/>
</g>
<!-- n8 -->
<g id="node11" class="node">
<title>n8</title>
<ellipse fill="none" stroke="black" cx="965.97" cy="-925.1" rx="185.94" ry="37.45"/>
<text text-anchor="middle" x="965.97" y="-936.4" font-family="Times,serif" font-size="14.00">nueva</text>
<text text-anchor="middle" x="965.97" y="-921.4" font-family="Times,serif" font-size="14.00">aq0fs0 (amod)</text>
<text text-anchor="middle" x="965.97" y="-906.4" font-family="Times,serif" font-size="14.00">rep=no, t=no, r=no, m=yes, c=no</text>
</g>
<!-- n9&#45;&gt;n8 -->
<g id="edge10" class="edge">
<title>n9&#45;&gt;n8</title>
<path fill="none" stroke="black" d="M965.97,-998.47C965.97,-990.3 965.97,-981.52 965.97,-972.99"/>
<polygon fill="black" stroke="black" points="969.47,-972.78 965.97,-962.78 962.47,-972.78 969.47,-972.78"/>
</g>
<!-- n13 -->
<g id="node12" class="node">
<title>n13</title>
<ellipse fill="none" stroke="black" cx="1355.97" cy="-925.1" rx="185.94" ry="37.45"/>
<text text-anchor="middle" x="1355.97" y="-936.4" font-family="Times,serif" font-size="14.00">sospecha</text>
<text text-anchor="middle" x="1355.97" y="-921.4" font-family="Times,serif" font-size="14.00">ncfs000 (pobj)</text>
<text text-anchor="middle" x="1355.97" y="-906.4" font-family="Times,serif" font-size="14.00">rep=no, t=no, r=no, m=yes, c=no</text>
</g>
<!-- n10&#45;&gt;n13 -->
<g id="edge11" class="edge">
<title>n10&#45;&gt;n13</title>
<path fill="none" stroke="black" d="M1355.97,-998.47C1355.97,-990.3 1355.97,-981.52 1355.97,-972.99"/>
<polygon fill="black" stroke="black" points="1359.47,-972.78 1355.97,-962.78 1352.47,-972.78 1359.47,-972.78"/>
</g>
<!-- n3 -->
<g id="node8" class="node">
<title>n3</title>
<ellipse fill="none" stroke="black" cx="185.97" cy="-814.15" rx="185.94" ry="37.45"/>
<text text-anchor="middle" x="185.97" y="-825.45" font-family="Times,serif" font-size="14.00">del</text>
<text text-anchor="middle" x="185.97" y="-810.45" font-family="Times,serif" font-size="14.00">spcms (prepn)</text>
<text text-anchor="middle" x="185.97" y="-795.45" font-family="Times,serif" font-size="14.00">rep=no, t=no, r=no, m=yes, c=no</text>
</g>
<!-- n2&#45;&gt;n3 -->
<g id="edge7" class="edge">
<title>n2&#45;&gt;n3</title>
<path fill="none" stroke="black" d="M185.97,-887.52C185.97,-879.35 185.97,-870.57 185.97,-862.04"/>
<polygon fill="black" stroke="black" points="189.47,-861.82 185.97,-851.82 182.47,-861.82 189.47,-861.82"/>
</g>
<!-- n4 -->
<g id="node9" class="node">
<title>n4</title>
<ellipse fill="none" stroke="black" cx="185.97" cy="-703.2" rx="185.94" ry="37.45"/>
<text text-anchor="middle" x="185.97" y="-714.5" font-family="Times,serif" font-size="14.00">2000</text>
<text text-anchor="middle" x="185.97" y="-699.5" font-family="Times,serif" font-size="14.00">zp (pobj)</text>
<text text-anchor="middle" x="185.97" y="-684.5" font-family="Times,serif" font-size="14.00">rep=no, t=no, r=no, m=yes, c=no</text>
</g>
<!-- n3&#45;&gt;n4 -->
<g id="edge8" class="edge">
<title>n3&#45;&gt;n4</title>
<path fill="none" stroke="black" d="M185.97,-776.57C185.97,-768.39 185.97,-759.61 185.97,-751.09"/>
<polygon fill="black" stroke="black" points="189.47,-750.87 185.97,-740.87 182.47,-750.87 189.47,-750.87"/>
</g>
<!-- n11 -->
<g id="node13" class="node">
<title>n11</title>
<ellipse fill="none" stroke="black" cx="965.97" cy="-814.15" rx="185.94" ry="37.45"/>
<text text-anchor="middle" x="965.97" y="-825.45" font-family="Times,serif" font-size="14.00">la</text>
<text text-anchor="middle" x="965.97" y="-810.45" font-family="Times,serif" font-size="14.00">da0fs0 (det)</text>
<text text-anchor="middle" x="965.97" y="-795.45" font-family="Times,serif" font-size="14.00">rep=no, t=no, r=no, m=yes, c=no</text>
</g>
<!-- n13&#45;&gt;n11 -->
<g id="edge12" class="edge">
<title>n13&#45;&gt;n11</title>
<path fill="none" stroke="black" d="M1249.4,-894.33C1197.59,-879.86 1135.23,-862.43 1082.2,-847.62"/>
<polygon fill="black" stroke="black" points="1082.98,-844.21 1072.41,-844.89 1081.1,-850.95 1082.98,-844.21"/>
</g>
<!-- n12 -->
<g id="node14" class="node">
<title>n12</title>
<ellipse fill="none" stroke="black" cx="1355.97" cy="-814.15" rx="185.94" ry="37.45"/>
<text text-anchor="middle" x="1355.97" y="-825.45" font-family="Times,serif" font-size="14.00">nueva</text>
<text text-anchor="middle" x="1355.97" y="-810.45" font-family="Times,serif" font-size="14.00">aq0fs0 (amod)</text>
<text text-anchor="middle" x="1355.97" y="-795.45" font-family="Times,serif" font-size="14.00">rep=no, t=no, r=no, m=yes, c=no</text>
</g>
<!-- n13&#45;&gt;n12 -->
<g id="edge13" class="edge">
<title>n13&#45;&gt;n12</title>
<path fill="none" stroke="black" d="M1355.97,-887.52C1355.97,-879.35 1355.97,-870.57 1355.97,-862.04"/>
<polygon fill="black" stroke="black" points="1359.47,-861.82 1355.97,-851.82 1352.47,-861.82 1359.47,-861.82"/>
</g>
<!-- n14 -->
<g id="node15" class="node">
<title>n14</title>
<ellipse fill="none" stroke="black" cx="1745.97" cy="-814.15" rx="185.94" ry="37.45"/>
<text text-anchor="middle" x="1745.97" y="-825.45" font-family="Times,serif" font-size="14.00">de</text>
<text text-anchor="middle" x="1745.97" y="-810.45" font-family="Times,serif" font-size="14.00">sps00 (prepn)</text>
<text text-anchor="middle" x="1745.97" y="-795.45" font-family="Times,serif" font-size="14.00">rep=no, t=no, r=no, m=yes, c=no</text>
</g>
<!-- n13&#45;&gt;n14 -->
<g id="edge14" class="edge">
<title>n13&#45;&gt;n14</title>
<path fill="none" stroke="black" d="M1462.54,-894.33C1514.34,-879.86 1576.71,-862.43 1629.74,-847.62"/>
<polygon fill="black" stroke="black" points="1630.84,-850.95 1639.53,-844.89 1628.96,-844.21 1630.84,-850.95"/>
</g>
<!-- n16 -->
<g id="node16" class="node">
<title>n16</title>
<ellipse fill="none" stroke="black" cx="1745.97" cy="-703.2" rx="185.94" ry="37.45"/>
<text text-anchor="middle" x="1745.97" y="-714.5" font-family="Times,serif" font-size="14.00">existencia</text>
<text text-anchor="middle" x="1745.97" y="-699.5" font-family="Times,serif" font-size="14.00">ncfs000 (pobj)</text>
<text text-anchor="middle" x="1745.97" y="-684.5" font-family="Times,serif" font-size="14.00">rep=no, t=no, r=no, m=yes, c=no</text>
</g>
<!-- n14&#45;&gt;n16 -->
<g id="edge15" class="edge">
<title>n14&#45;&gt;n16</title>
<path fill="none" stroke="black" d="M1745.97,-776.57C1745.97,-768.39 1745.97,-759.61 1745.97,-751.09"/>
<polygon fill="black" stroke="black" points="1749.47,-750.87 1745.97,-740.87 1742.47,-750.87 1749.47,-750.87"/>
</g>
<!-- n15 -->
<g id="node17" class="node">
<title>n15</title>
<ellipse fill="none" stroke="black" cx="1550.97" cy="-592.24" rx="185.94" ry="37.45"/>
<text text-anchor="middle" x="1550.97" y="-603.54" font-family="Times,serif" font-size="14.00">la</text>
<text text-anchor="middle" x="1550.97" y="-588.54" font-family="Times,serif" font-size="14.00">da0fs0 (det)</text>
<text text-anchor="middle" x="1550.97" y="-573.54" font-family="Times,serif" font-size="14.00">rep=no, t=no, r=no, m=yes, c=no</text>
</g>
<!-- n16&#45;&gt;n15 -->
<g id="edge16" class="edge">
<title>n16&#45;&gt;n15</title>
<path fill="none" stroke="black" d="M1684.27,-667.72C1664.34,-656.59 1642.1,-644.16 1621.58,-632.7"/>
<polygon fill="black" stroke="black" points="1623.04,-629.5 1612.6,-627.68 1619.62,-635.61 1623.04,-629.5"/>
</g>
<!-- n17 -->
<g id="node18" class="node">
<title>n17</title>
<ellipse fill="none" stroke="black" cx="1940.97" cy="-592.24" rx="185.94" ry="37.45"/>
<text text-anchor="middle" x="1940.97" y="-603.54" font-family="Times,serif" font-size="14.00">de</text>
<text text-anchor="middle" x="1940.97" y="-588.54" font-family="Times,serif" font-size="14.00">sps00 (prepn)</text>
<text text-anchor="middle" x="1940.97" y="-573.54" font-family="Times,serif" font-size="14.00">rep=no, t=no, r=no, m=yes, c=no</text>
</g>
<!-- n16&#45;&gt;n17 -->
<g id="edge17" class="edge">
<title>n16&#45;&gt;n17</title>
<path fill="none" stroke="black" d="M1807.67,-667.72C1827.59,-656.59 1849.84,-644.16 1870.35,-632.7"/>
<polygon fill="black" stroke="black" points="1872.31,-635.61 1879.34,-627.68 1868.9,-629.5 1872.31,-635.61"/>
</g>
<!-- n19 -->
<g id="node19" class="node">
<title>n19</title>
<ellipse fill="none" stroke="black" cx="1940.97" cy="-481.29" rx="185.94" ry="37.45"/>
<text text-anchor="middle" x="1940.97" y="-492.59" font-family="Times,serif" font-size="14.00">pacto</text>
<text text-anchor="middle" x="1940.97" y="-477.59" font-family="Times,serif" font-size="14.00">ncms000 (pobj)</text>
<text text-anchor="middle" x="1940.97" y="-462.59" font-family="Times,serif" font-size="14.00">rep=no, t=no, r=no, m=yes, c=no</text>
</g>
<!-- n17&#45;&gt;n19 -->
<g id="edge18" class="edge">
<title>n17&#45;&gt;n19</title>
<path fill="none" stroke="black" d="M1940.97,-554.66C1940.97,-546.49 1940.97,-537.71 1940.97,-529.18"/>
<polygon fill="black" stroke="black" points="1944.47,-528.96 1940.97,-518.96 1937.47,-528.96 1944.47,-528.96"/>
</g>
<!-- n18 -->
<g id="node20" class="node">
<title>n18</title>
<ellipse fill="none" stroke="black" cx="1550.97" cy="-370.34" rx="185.94" ry="37.45"/>
<text text-anchor="middle" x="1550.97" y="-381.64" font-family="Times,serif" font-size="14.00">un</text>
<text text-anchor="middle" x="1550.97" y="-366.64" font-family="Times,serif" font-size="14.00">di0ms0 (det)</text>
<text text-anchor="middle" x="1550.97" y="-351.64" font-family="Times,serif" font-size="14.00">rep=no, t=no, r=no, m=yes, c=no</text>
</g>
<!-- n19&#45;&gt;n18 -->
<g id="edge19" class="edge">
<title>n19&#45;&gt;n18</title>
<path fill="none" stroke="black" d="M1834.4,-450.52C1782.59,-436.05 1720.23,-418.62 1667.2,-403.81"/>
<polygon fill="black" stroke="black" points="1667.98,-400.39 1657.41,-401.07 1666.1,-407.13 1667.98,-400.39"/>
</g>
<!-- n20 -->
<g id="node21" class="node">
<title>n20</title>
<ellipse fill="none" stroke="black" cx="1940.97" cy="-370.34" rx="185.94" ry="37.45"/>
<text text-anchor="middle" x="1940.97" y="-381.64" font-family="Times,serif" font-size="14.00">secreto</text>
<text text-anchor="middle" x="1940.97" y="-366.64" font-family="Times,serif" font-size="14.00">aq0ms0 (amod)</text>
<text text-anchor="middle" x="1940.97" y="-351.64" font-family="Times,serif" font-size="14.00">rep=no, t=no, r=no, m=yes, c=no</text>
</g>
<!-- n19&#45;&gt;n20 -->
<g id="edge20" class="edge">
<title>n19&#45;&gt;n20</title>
<path fill="none" stroke="black" d="M1940.97,-443.71C1940.97,-435.53 1940.97,-426.75 1940.97,-418.23"/>
<polygon fill="black" stroke="black" points="1944.47,-418.01 1940.97,-408.01 1937.47,-418.01 1944.47,-418.01"/>
</g>
<!-- n21 -->
<g id="node22" class="node">
<title>n21</title>
<ellipse fill="none" stroke="black" cx="2330.97" cy="-370.34" rx="185.94" ry="37.45"/>
<text text-anchor="middle" x="2330.97" y="-381.64" font-family="Times,serif" font-size="14.00">en</text>
<text text-anchor="middle" x="2330.97" y="-366.64" font-family="Times,serif" font-size="14.00">sps00 (prepn)</text>
<text text-anchor="middle" x="2330.97" y="-351.64" font-family="Times,serif" font-size="14.00">rep=no, t=no, r=no, m=yes, c=no</text>
</g>
<!-- n19&#45;&gt;n21 -->
<g id="edge21" class="edge">
<title>n19&#45;&gt;n21</title>
<path fill="none" stroke="black" d="M2047.54,-450.52C2099.34,-436.05 2161.71,-418.62 2214.74,-403.81"/>
<polygon fill="black" stroke="black" points="2215.84,-407.13 2224.53,-401.07 2213.96,-400.39 2215.84,-407.13"/>
</g>
<!-- n23 -->
<g id="node23" class="node">
<title>n23</title>
<ellipse fill="none" stroke="black" cx="2330.97" cy="-259.38" rx="185.94" ry="37.45"/>
<text text-anchor="middle" x="2330.97" y="-270.68" font-family="Times,serif" font-size="14.00">precios</text>
<text text-anchor="middle" x="2330.97" y="-255.68" font-family="Times,serif" font-size="14.00">ncmp000 (pobj)</text>
<text text-anchor="middle" x="2330.97" y="-240.68" font-family="Times,serif" font-size="14.00">rep=no, t=no, r=no, m=yes, c=no</text>
</g>
<!-- n21&#45;&gt;n23 -->
<g id="edge22" class="edge">
<title>n21&#45;&gt;n23</title>
<path fill="none" stroke="black" d="M2330.97,-332.75C2330.97,-324.58 2330.97,-315.8 2330.97,-307.27"/>
<polygon fill="black" stroke="black" points="2334.47,-307.06 2330.97,-297.06 2327.47,-307.06 2334.47,-307.06"/>
</g>
<!-- n22 -->
<g id="node24" class="node">
<title>n22</title>
<ellipse fill="none" stroke="black" cx="2135.97" cy="-148.43" rx="185.94" ry="37.45"/>
<text text-anchor="middle" x="2135.97" y="-159.73" font-family="Times,serif" font-size="14.00">los</text>
<text text-anchor="middle" x="2135.97" y="-144.73" font-family="Times,serif" font-size="14.00">da0mp0 (det)</text>
<text text-anchor="middle" x="2135.97" y="-129.73" font-family="Times,serif" font-size="14.00">rep=no, t=no, r=no, m=yes, c=no</text>
</g>
<!-- n23&#45;&gt;n22 -->
<g id="edge23" class="edge">
<title>n23&#45;&gt;n22</title>
<path fill="none" stroke="black" d="M2269.27,-223.91C2249.34,-212.78 2227.1,-200.35 2206.58,-188.89"/>
<polygon fill="black" stroke="black" points="2208.04,-185.69 2197.6,-183.87 2204.62,-191.8 2208.04,-185.69"/>
</g>
<!-- n24 -->
<g id="node25" class="node">
<title>n24</title>
<ellipse fill="none" stroke="black" cx="2525.97" cy="-148.43" rx="185.94" ry="37.45"/>
<text text-anchor="middle" x="2525.97" y="-159.73" font-family="Times,serif" font-size="14.00">del</text>
<text text-anchor="middle" x="2525.97" y="-144.73" font-family="Times,serif" font-size="14.00">spcms (prepn)</text>
<text text-anchor="middle" x="2525.97" y="-129.73" font-family="Times,serif" font-size="14.00">rep=no, t=no, r=no, m=yes, c=no</text>
</g>
<!-- n23&#45;&gt;n24 -->
<g id="edge24" class="edge">
<title>n23&#45;&gt;n24</title>
<path fill="none" stroke="black" d="M2392.67,-223.91C2412.59,-212.78 2434.84,-200.35 2455.35,-188.89"/>
<polygon fill="black" stroke="black" points="2457.31,-191.8 2464.34,-183.87 2453.9,-185.69 2457.31,-191.8"/>
</g>
<!-- n25 -->
<g id="node26" class="node">
<title>n25</title>
<ellipse fill="none" stroke="black" cx="2525.97" cy="-37.48" rx="185.94" ry="37.45"/>
<text text-anchor="middle" x="2525.97" y="-48.78" font-family="Times,serif" font-size="14.00">gasóleo</text>
<text text-anchor="middle" x="2525.97" y="-33.78" font-family="Times,serif" font-size="14.00">ncms000 (pobj)</text>
<text text-anchor="middle" x="2525.97" y="-18.78" font-family="Times,serif" font-size="14.00">rep=no, t=no, r=no, m=yes, c=no</text>
</g>
<!-- n24&#45;&gt;n25 -->
<g id="edge25" class="edge">
<title>n24&#45;&gt;n25</title>
<path fill="none" stroke="black" d="M2525.97,-110.85C2525.97,-102.67 2525.97,-93.89 2525.97,-85.37"/>
<polygon fill="black" stroke="black" points="2529.47,-85.15 2525.97,-75.15 2522.47,-85.15 2529.47,-85.15"/>
</g>
</g>
</svg>
