<?xml version="1.0" encoding="UTF-8" standalone="no"?>
<!DOCTYPE svg PUBLIC "-//W3C//DTD SVG 1.1//EN"
 "http://www.w3.org/Graphics/SVG/1.1/DTD/svg11.dtd">
<!-- Generated by graphviz version 2.43.0 (0)
 -->
<!-- Title: tree Pages: 1 -->
<svg width="3468pt" height="638pt"
 viewBox="0.00 0.00 3467.70 637.72" xmlns="http://www.w3.org/2000/svg" xmlns:xlink="http://www.w3.org/1999/xlink">
<g id="graph0" class="graph" transform="scale(1 1) rotate(0) translate(4 633.72)">
<title>tree</title>
<polygon fill="white" stroke="transparent" points="-4,4 -4,-633.72 3463.7,-633.72 3463.7,4 -4,4"/>
<!-- n17 -->
<g id="node1" class="node">
<title>n17</title>
<ellipse fill="#98D2A5" stroke="black" cx="1734.97" cy="-592.24" rx="185.94" ry="37.45"/>
<text text-anchor="middle" x="1734.97" y="-603.54" font-family="Times,serif" font-size="14.00">y</text>
<text text-anchor="middle" x="1734.97" y="-588.54" font-family="Times,serif" font-size="14.00">cc (root)</text>
<text text-anchor="middle" x="1734.97" y="-573.54" font-family="Times,serif" font-size="14.00">rep=no, t=no, r=no, m=yes, c=no</text>
</g>
<!-- n1 -->
<g id="node2" class="node">
<title>n1</title>
<ellipse fill="#98D2A5" stroke="black" cx="185.97" cy="-481.29" rx="185.94" ry="37.45"/>
<text text-anchor="middle" x="185.97" y="-492.59" font-family="Times,serif" font-size="14.00">Según</text>
<text text-anchor="middle" x="185.97" y="-477.59" font-family="Times,serif" font-size="14.00">sps00 (coord)</text>
<text text-anchor="middle" x="185.97" y="-462.59" font-family="Times,serif" font-size="14.00">rep=no, t=no, r=no, m=yes, c=no</text>
</g>
<!-- n17&#45;&gt;n1 -->
<g id="edge1" class="edge">
<title>n17&#45;&gt;n1</title>
<path fill="none" stroke="black" d="M1549.52,-589.02C1288.07,-584.14 796.58,-568.54 380.97,-518.77 362.33,-516.53 342.79,-513.6 323.58,-510.36"/>
<polygon fill="black" stroke="black" points="324.02,-506.89 313.57,-508.64 322.83,-513.79 324.02,-506.89"/>
</g>
<!-- n4 -->
<g id="node3" class="node">
<title>n4</title>
<ellipse fill="none" stroke="black" cx="571.97" cy="-481.29" rx="181.95" ry="37.45"/>
<text text-anchor="middle" x="571.97" y="-492.59" font-family="Times,serif" font-size="14.00">,</text>
<text text-anchor="middle" x="571.97" y="-477.59" font-family="Times,serif" font-size="14.00">fc (punct)</text>
<text text-anchor="middle" x="571.97" y="-462.59" font-family="Times,serif" font-size="14.00">rep=no, t=no, r=no, m=no, c=no</text>
</g>
<!-- n17&#45;&gt;n4 -->
<g id="edge2" class="edge">
<title>n17&#45;&gt;n4</title>
<path fill="none" stroke="black" d="M1553.2,-583.97C1357.26,-574.67 1036.51,-555.22 761.97,-518.77 744.19,-516.41 725.56,-513.44 707.21,-510.23"/>
<polygon fill="black" stroke="black" points="707.8,-506.78 697.34,-508.48 706.58,-513.67 707.8,-506.78"/>
</g>
<!-- n5 -->
<g id="node4" class="node">
<title>n5</title>
<ellipse fill="none" stroke="black" cx="952.97" cy="-481.29" rx="181.95" ry="37.45"/>
<text text-anchor="middle" x="952.97" y="-492.59" font-family="Times,serif" font-size="14.00">&quot;</text>
<text text-anchor="middle" x="952.97" y="-477.59" font-family="Times,serif" font-size="14.00">fe (punct)</text>
<text text-anchor="middle" x="952.97" y="-462.59" font-family="Times,serif" font-size="14.00">rep=no, t=no, r=no, m=no, c=no</text>
</g>
<!-- n17&#45;&gt;n5 -->
<g id="edge3" class="edge">
<title>n17&#45;&gt;n5</title>
<path fill="none" stroke="black" d="M1571.82,-574.2C1452.92,-561.05 1288.1,-541.34 1143.97,-518.77 1126.73,-516.07 1108.67,-512.97 1090.82,-509.75"/>
<polygon fill="black" stroke="black" points="1091.4,-506.3 1080.93,-507.95 1090.14,-513.18 1091.4,-506.3"/>
</g>
<!-- n10 -->
<g id="node5" class="node">
<title>n10</title>
<ellipse fill="#98D2A5" stroke="black" cx="1343.97" cy="-481.29" rx="190.84" ry="37.45"/>
<text text-anchor="middle" x="1343.97" y="-492.59" font-family="Times,serif" font-size="14.00">nació</text>
<text text-anchor="middle" x="1343.97" y="-477.59" font-family="Times,serif" font-size="14.00">vmis3s0 (coord)</text>
<text text-anchor="middle" x="1343.97" y="-462.59" font-family="Times,serif" font-size="14.00">rep=no, t=no, r=yes, m=yes, c=no</text>
</g>
<!-- n17&#45;&gt;n10 -->
<g id="edge4" class="edge">
<title>n17&#45;&gt;n10</title>
<path fill="none" stroke="black" d="M1628.13,-561.47C1576.51,-547.09 1514.43,-529.79 1461.48,-515.03"/>
<polygon fill="black" stroke="black" points="1462.27,-511.62 1451.7,-512.31 1460.39,-518.37 1462.27,-511.62"/>
</g>
<!-- n13 -->
<g id="node6" class="node">
<title>n13</title>
<ellipse fill="none" stroke="black" cx="1734.97" cy="-481.29" rx="181.95" ry="37.45"/>
<text text-anchor="middle" x="1734.97" y="-492.59" font-family="Times,serif" font-size="14.00">,</text>
<text text-anchor="middle" x="1734.97" y="-477.59" font-family="Times,serif" font-size="14.00">fc (punct)</text>
<text text-anchor="middle" x="1734.97" y="-462.59" font-family="Times,serif" font-size="14.00">rep=no, t=no, r=no, m=no, c=no</text>
</g>
<!-- n17&#45;&gt;n13 -->
<g id="edge5" class="edge">
<title>n17&#45;&gt;n13</title>
<path fill="none" stroke="black" d="M1734.97,-554.66C1734.97,-546.49 1734.97,-537.71 1734.97,-529.18"/>
<polygon fill="black" stroke="black" points="1738.47,-528.96 1734.97,-518.96 1731.47,-528.96 1738.47,-528.96"/>
</g>
<!-- n14 -->
<g id="node7" class="node">
<title>n14</title>
<ellipse fill="#98D2A5" stroke="black" cx="2120.97" cy="-481.29" rx="185.94" ry="37.45"/>
<text text-anchor="middle" x="2120.97" y="-492.59" font-family="Times,serif" font-size="14.00">vive</text>
<text text-anchor="middle" x="2120.97" y="-477.59" font-family="Times,serif" font-size="14.00">vmip3s0 (coord)</text>
<text text-anchor="middle" x="2120.97" y="-462.59" font-family="Times,serif" font-size="14.00">rep=no, t=no, r=no, m=yes, c=no</text>
</g>
<!-- n17&#45;&gt;n14 -->
<g id="edge6" class="edge">
<title>n17&#45;&gt;n14</title>
<path fill="none" stroke="black" d="M1840.7,-561.4C1891.76,-546.99 1953.14,-529.66 2005.43,-514.9"/>
<polygon fill="black" stroke="black" points="2006.41,-518.26 2015.08,-512.18 2004.51,-511.53 2006.41,-518.26"/>
</g>
<!-- n18 -->
<g id="node8" class="node">
<title>n18</title>
<ellipse fill="#98D2A5" stroke="black" cx="2510.97" cy="-481.29" rx="185.94" ry="37.45"/>
<text text-anchor="middle" x="2510.97" y="-492.59" font-family="Times,serif" font-size="14.00">es</text>
<text text-anchor="middle" x="2510.97" y="-477.59" font-family="Times,serif" font-size="14.00">vsip3s0 (coord)</text>
<text text-anchor="middle" x="2510.97" y="-462.59" font-family="Times,serif" font-size="14.00">rep=no, t=no, r=no, m=yes, c=no</text>
</g>
<!-- n17&#45;&gt;n18 -->
<g id="edge7" class="edge">
<title>n17&#45;&gt;n18</title>
<path fill="none" stroke="black" d="M1896.88,-573.72C2013.63,-560.43 2174.85,-540.75 2315.97,-518.77 2333.48,-516.04 2351.84,-512.93 2369.99,-509.71"/>
<polygon fill="black" stroke="black" points="2370.81,-513.12 2380.04,-507.91 2369.58,-506.23 2370.81,-513.12"/>
</g>
<!-- n25 -->
<g id="node9" class="node">
<title>n25</title>
<ellipse fill="none" stroke="black" cx="2896.97" cy="-481.29" rx="181.95" ry="37.45"/>
<text text-anchor="middle" x="2896.97" y="-492.59" font-family="Times,serif" font-size="14.00">&quot;</text>
<text text-anchor="middle" x="2896.97" y="-477.59" font-family="Times,serif" font-size="14.00">fe (punct)</text>
<text text-anchor="middle" x="2896.97" y="-462.59" font-family="Times,serif" font-size="14.00">rep=no, t=no, r=no, m=no, c=no</text>
</g>
<!-- n17&#45;&gt;n25 -->
<g id="edge8" class="edge">
<title>n17&#45;&gt;n25</title>
<path fill="none" stroke="black" d="M1916.35,-583.9C2111.89,-574.54 2431.97,-555.04 2705.97,-518.77 2723.91,-516.39 2742.72,-513.41 2761.24,-510.18"/>
<polygon fill="black" stroke="black" points="2761.95,-513.61 2771.19,-508.42 2760.73,-506.72 2761.95,-513.61"/>
</g>
<!-- n26 -->
<g id="node10" class="node">
<title>n26</title>
<ellipse fill="none" stroke="black" cx="3277.97" cy="-481.29" rx="181.95" ry="37.45"/>
<text text-anchor="middle" x="3277.97" y="-492.59" font-family="Times,serif" font-size="14.00">.</text>
<text text-anchor="middle" x="3277.97" y="-477.59" font-family="Times,serif" font-size="14.00">fp (punct)</text>
<text text-anchor="middle" x="3277.97" y="-462.59" font-family="Times,serif" font-size="14.00">rep=no, t=no, r=no, m=no, c=no</text>
</g>
<!-- n17&#45;&gt;n26 -->
<g id="edge9" class="edge">
<title>n17&#45;&gt;n26</title>
<path fill="none" stroke="black" d="M1920.59,-589.28C2181.96,-584.71 2672.93,-569.48 3087.97,-518.77 3106.06,-516.56 3125.01,-513.64 3143.65,-510.43"/>
<polygon fill="black" stroke="black" points="3144.42,-513.85 3153.66,-508.67 3143.21,-506.95 3144.42,-513.85"/>
</g>
<!-- n3 -->
<g id="node11" class="node">
<title>n3</title>
<ellipse fill="#98D2A5" stroke="black" cx="185.97" cy="-370.34" rx="185.94" ry="37.45"/>
<text text-anchor="middle" x="185.97" y="-381.64" font-family="Times,serif" font-size="14.00">poeta</text>
<text text-anchor="middle" x="185.97" y="-366.64" font-family="Times,serif" font-size="14.00">ncms000 (pobj)</text>
<text text-anchor="middle" x="185.97" y="-351.64" font-family="Times,serif" font-size="14.00">rep=no, t=no, r=no, m=yes, c=no</text>
</g>
<!-- n1&#45;&gt;n3 -->
<g id="edge10" class="edge">
<title>n1&#45;&gt;n3</title>
<path fill="none" stroke="black" d="M185.97,-443.71C185.97,-435.53 185.97,-426.75 185.97,-418.23"/>
<polygon fill="black" stroke="black" points="189.47,-418.01 185.97,-408.01 182.47,-418.01 189.47,-418.01"/>
</g>
<!-- n7 -->
<g id="node13" class="node">
<title>n7</title>
<ellipse fill="#98D2A5" stroke="black" cx="1325.97" cy="-370.34" rx="190.84" ry="37.45"/>
<text text-anchor="middle" x="1325.97" y="-381.64" font-family="Times,serif" font-size="14.00">persona</text>
<text text-anchor="middle" x="1325.97" y="-366.64" font-family="Times,serif" font-size="14.00">ncfs000 (nsubj)</text>
<text text-anchor="middle" x="1325.97" y="-351.64" font-family="Times,serif" font-size="14.00">rep=no, t=yes, r=no, m=yes, c=no</text>
</g>
<!-- n10&#45;&gt;n7 -->
<g id="edge12" class="edge">
<title>n10&#45;&gt;n7</title>
<path fill="none" stroke="black" d="M1337.93,-443.71C1336.56,-435.44 1335.09,-426.56 1333.67,-417.95"/>
<polygon fill="black" stroke="black" points="1337.11,-417.3 1332.03,-408.01 1330.2,-418.45 1337.11,-417.3"/>
</g>
<!-- n11 -->
<g id="node14" class="node">
<title>n11</title>
<ellipse fill="#98D2A5" stroke="black" cx="1725.97" cy="-370.34" rx="190.84" ry="37.45"/>
<text text-anchor="middle" x="1725.97" y="-381.64" font-family="Times,serif" font-size="14.00">en</text>
<text text-anchor="middle" x="1725.97" y="-366.64" font-family="Times,serif" font-size="14.00">sps00 (prepv)</text>
<text text-anchor="middle" x="1725.97" y="-351.64" font-family="Times,serif" font-size="14.00">rep=no, t=no, r=yes, m=yes, c=no</text>
</g>
<!-- n10&#45;&gt;n11 -->
<g id="edge13" class="edge">
<title>n10&#45;&gt;n11</title>
<path fill="none" stroke="black" d="M1449.87,-450.09C1499.65,-435.89 1559.13,-418.92 1610.12,-404.38"/>
<polygon fill="black" stroke="black" points="1611.21,-407.71 1619.86,-401.6 1609.29,-400.98 1611.21,-407.71"/>
</g>
<!-- n15 -->
<g id="node19" class="node">
<title>n15</title>
<ellipse fill="#98D2A5" stroke="black" cx="2120.97" cy="-370.34" rx="185.94" ry="37.45"/>
<text text-anchor="middle" x="2120.97" y="-381.64" font-family="Times,serif" font-size="14.00">en</text>
<text text-anchor="middle" x="2120.97" y="-366.64" font-family="Times,serif" font-size="14.00">sps00 (prepv)</text>
<text text-anchor="middle" x="2120.97" y="-351.64" font-family="Times,serif" font-size="14.00">rep=no, t=no, r=no, m=yes, c=no</text>
</g>
<!-- n14&#45;&gt;n15 -->
<g id="edge18" class="edge">
<title>n14&#45;&gt;n15</title>
<path fill="none" stroke="black" d="M2120.97,-443.71C2120.97,-435.53 2120.97,-426.75 2120.97,-418.23"/>
<polygon fill="black" stroke="black" points="2124.47,-418.01 2120.97,-408.01 2117.47,-418.01 2124.47,-418.01"/>
</g>
<!-- n20 -->
<g id="node21" class="node">
<title>n20</title>
<ellipse fill="#98D2A5" stroke="black" cx="2510.97" cy="-370.34" rx="185.94" ry="37.45"/>
<text text-anchor="middle" x="2510.97" y="-381.64" font-family="Times,serif" font-size="14.00">querida</text>
<text text-anchor="middle" x="2510.97" y="-366.64" font-family="Times,serif" font-size="14.00">aq0fsp (attr)</text>
<text text-anchor="middle" x="2510.97" y="-351.64" font-family="Times,serif" font-size="14.00">rep=no, t=no, r=no, m=yes, c=no</text>
</g>
<!-- n18&#45;&gt;n20 -->
<g id="edge20" class="edge">
<title>n18&#45;&gt;n20</title>
<path fill="none" stroke="black" d="M2510.97,-443.71C2510.97,-435.53 2510.97,-426.75 2510.97,-418.23"/>
<polygon fill="black" stroke="black" points="2514.47,-418.01 2510.97,-408.01 2507.47,-418.01 2514.47,-418.01"/>
</g>
<!-- n2 -->
<g id="node12" class="node">
<title>n2</title>
<ellipse fill="#98D2A5" stroke="black" cx="185.97" cy="-259.38" rx="185.94" ry="37.45"/>
<text text-anchor="middle" x="185.97" y="-270.68" font-family="Times,serif" font-size="14.00">el</text>
<text text-anchor="middle" x="185.97" y="-255.68" font-family="Times,serif" font-size="14.00">da0ms0 (det)</text>
<text text-anchor="middle" x="185.97" y="-240.68" font-family="Times,serif" font-size="14.00">rep=no, t=no, r=no, m=yes, c=no</text>
</g>
<!-- n3&#45;&gt;n2 -->
<g id="edge11" class="edge">
<title>n3&#45;&gt;n2</title>
<path fill="none" stroke="black" d="M185.97,-332.75C185.97,-324.58 185.97,-315.8 185.97,-307.27"/>
<polygon fill="black" stroke="black" points="189.47,-307.06 185.97,-297.06 182.47,-307.06 189.47,-307.06"/>
</g>
<!-- n6 -->
<g id="node15" class="node">
<title>n6</title>
<ellipse fill="#98D2A5" stroke="black" cx="925.97" cy="-259.38" rx="190.84" ry="37.45"/>
<text text-anchor="middle" x="925.97" y="-270.68" font-family="Times,serif" font-size="14.00">la</text>
<text text-anchor="middle" x="925.97" y="-255.68" font-family="Times,serif" font-size="14.00">da0fs0 (det)</text>
<text text-anchor="middle" x="925.97" y="-240.68" font-family="Times,serif" font-size="14.00">rep=no, t=yes, r=no, m=yes, c=no</text>
</g>
<!-- n7&#45;&gt;n6 -->
<g id="edge14" class="edge">
<title>n7&#45;&gt;n6</title>
<path fill="none" stroke="black" d="M1216.67,-339.56C1163.53,-325.09 1099.56,-307.67 1045.17,-292.85"/>
<polygon fill="black" stroke="black" points="1046.05,-289.46 1035.49,-290.21 1044.21,-296.22 1046.05,-289.46"/>
</g>
<!-- n9 -->
<g id="node16" class="node">
<title>n9</title>
<ellipse fill="#98D2A5" stroke="black" cx="1325.97" cy="-259.38" rx="190.84" ry="37.45"/>
<text text-anchor="middle" x="1325.97" y="-270.68" font-family="Times,serif" font-size="14.00">busco</text>
<text text-anchor="middle" x="1325.97" y="-255.68" font-family="Times,serif" font-size="14.00">vmip1s0 (rcmod)</text>
<text text-anchor="middle" x="1325.97" y="-240.68" font-family="Times,serif" font-size="14.00">rep=no, t=yes, r=no, m=yes, c=no</text>
</g>
<!-- n7&#45;&gt;n9 -->
<g id="edge15" class="edge">
<title>n7&#45;&gt;n9</title>
<path fill="none" stroke="black" d="M1325.97,-332.75C1325.97,-324.58 1325.97,-315.8 1325.97,-307.27"/>
<polygon fill="black" stroke="black" points="1329.47,-307.06 1325.97,-297.06 1322.47,-307.06 1329.47,-307.06"/>
</g>
<!-- n12 -->
<g id="node18" class="node">
<title>n12</title>
<ellipse fill="#98D2A5" stroke="black" cx="1725.97" cy="-259.38" rx="190.84" ry="37.45"/>
<text text-anchor="middle" x="1725.97" y="-270.68" font-family="Times,serif" font-size="14.00">Uruguay</text>
<text text-anchor="middle" x="1725.97" y="-255.68" font-family="Times,serif" font-size="14.00">np00000 (pobj)</text>
<text text-anchor="middle" x="1725.97" y="-240.68" font-family="Times,serif" font-size="14.00">rep=no, t=no, r=yes, m=yes, c=no</text>
</g>
<!-- n11&#45;&gt;n12 -->
<g id="edge17" class="edge">
<title>n11&#45;&gt;n12</title>
<path fill="none" stroke="black" d="M1725.97,-332.75C1725.97,-324.58 1725.97,-315.8 1725.97,-307.27"/>
<polygon fill="black" stroke="black" points="1729.47,-307.06 1725.97,-297.06 1722.47,-307.06 1729.47,-307.06"/>
</g>
<!-- n8 -->
<g id="node17" class="node">
<title>n8</title>
<ellipse fill="#98D2A5" stroke="black" cx="1325.97" cy="-148.43" rx="190.84" ry="37.45"/>
<text text-anchor="middle" x="1325.97" y="-159.73" font-family="Times,serif" font-size="14.00">que</text>
<text text-anchor="middle" x="1325.97" y="-144.73" font-family="Times,serif" font-size="14.00">pr0cn000 (dobj)</text>
<text text-anchor="middle" x="1325.97" y="-129.73" font-family="Times,serif" font-size="14.00">rep=no, t=yes, r=no, m=yes, c=no</text>
</g>
<!-- n9&#45;&gt;n8 -->
<g id="edge16" class="edge">
<title>n9&#45;&gt;n8</title>
<path fill="none" stroke="black" d="M1325.97,-221.8C1325.97,-213.63 1325.97,-204.85 1325.97,-196.32"/>
<polygon fill="black" stroke="black" points="1329.47,-196.1 1325.97,-186.1 1322.47,-196.1 1329.47,-196.1"/>
</g>
<!-- n16 -->
<g id="node20" class="node">
<title>n16</title>
<ellipse fill="#98D2A5" stroke="black" cx="2120.97" cy="-259.38" rx="185.94" ry="37.45"/>
<text text-anchor="middle" x="2120.97" y="-270.68" font-family="Times,serif" font-size="14.00">Uruguay</text>
<text text-anchor="middle" x="2120.97" y="-255.68" font-family="Times,serif" font-size="14.00">np00000 (pobj)</text>
<text text-anchor="middle" x="2120.97" y="-240.68" font-family="Times,serif" font-size="14.00">rep=no, t=no, r=no, m=yes, c=no</text>
</g>
<!-- n15&#45;&gt;n16 -->
<g id="edge19" class="edge">
<title>n15&#45;&gt;n16</title>
<path fill="none" stroke="black" d="M2120.97,-332.75C2120.97,-324.58 2120.97,-315.8 2120.97,-307.27"/>
<polygon fill="black" stroke="black" points="2124.47,-307.06 2120.97,-297.06 2117.47,-307.06 2124.47,-307.06"/>
</g>
<!-- n19 -->
<g id="node22" class="node">
<title>n19</title>
<ellipse fill="#98D2A5" stroke="black" cx="2510.97" cy="-259.38" rx="185.94" ry="37.45"/>
<text text-anchor="middle" x="2510.97" y="-270.68" font-family="Times,serif" font-size="14.00">muy</text>
<text text-anchor="middle" x="2510.97" y="-255.68" font-family="Times,serif" font-size="14.00">rg (advmod)</text>
<text text-anchor="middle" x="2510.97" y="-240.68" font-family="Times,serif" font-size="14.00">rep=no, t=no, r=no, m=yes, c=no</text>
</g>
<!-- n20&#45;&gt;n19 -->
<g id="edge21" class="edge">
<title>n20&#45;&gt;n19</title>
<path fill="none" stroke="black" d="M2510.97,-332.75C2510.97,-324.58 2510.97,-315.8 2510.97,-307.27"/>
<polygon fill="black" stroke="black" points="2514.47,-307.06 2510.97,-297.06 2507.47,-307.06 2514.47,-307.06"/>
</g>
<!-- n21 -->
<g id="node23" class="node">
<title>n21</title>
<ellipse fill="#98D2A5" stroke="black" cx="2900.97" cy="-259.38" rx="185.94" ry="37.45"/>
<text text-anchor="middle" x="2900.97" y="-270.68" font-family="Times,serif" font-size="14.00">por</text>
<text text-anchor="middle" x="2900.97" y="-255.68" font-family="Times,serif" font-size="14.00">sps00 (agent)</text>
<text text-anchor="middle" x="2900.97" y="-240.68" font-family="Times,serif" font-size="14.00">rep=no, t=no, r=no, m=yes, c=no</text>
</g>
<!-- n20&#45;&gt;n21 -->
<g id="edge22" class="edge">
<title>n20&#45;&gt;n21</title>
<path fill="none" stroke="black" d="M2617.54,-339.56C2669.34,-325.09 2731.71,-307.67 2784.74,-292.85"/>
<polygon fill="black" stroke="black" points="2785.84,-296.18 2794.53,-290.12 2783.96,-289.44 2785.84,-296.18"/>
</g>
<!-- n23 -->
<g id="node24" class="node">
<title>n23</title>
<ellipse fill="#98D2A5" stroke="black" cx="2900.97" cy="-148.43" rx="185.94" ry="37.45"/>
<text text-anchor="middle" x="2900.97" y="-159.73" font-family="Times,serif" font-size="14.00">padres</text>
<text text-anchor="middle" x="2900.97" y="-144.73" font-family="Times,serif" font-size="14.00">ncmp000 (pobj)</text>
<text text-anchor="middle" x="2900.97" y="-129.73" font-family="Times,serif" font-size="14.00">rep=no, t=no, r=no, m=yes, c=no</text>
</g>
<!-- n21&#45;&gt;n23 -->
<g id="edge23" class="edge">
<title>n21&#45;&gt;n23</title>
<path fill="none" stroke="black" d="M2900.97,-221.8C2900.97,-213.63 2900.97,-204.85 2900.97,-196.32"/>
<polygon fill="black" stroke="black" points="2904.47,-196.1 2900.97,-186.1 2897.47,-196.1 2904.47,-196.1"/>
</g>
<!-- n22 -->
<g id="node25" class="node">
<title>n22</title>
<ellipse fill="#98D2A5" stroke="black" cx="2705.97" cy="-37.48" rx="185.94" ry="37.45"/>
<text text-anchor="middle" x="2705.97" y="-48.78" font-family="Times,serif" font-size="14.00">sus</text>
<text text-anchor="middle" x="2705.97" y="-33.78" font-family="Times,serif" font-size="14.00">dp3cp0 (poss)</text>
<text text-anchor="middle" x="2705.97" y="-18.78" font-family="Times,serif" font-size="14.00">rep=no, t=no, r=no, m=yes, c=no</text>
</g>
<!-- n23&#45;&gt;n22 -->
<g id="edge24" class="edge">
<title>n23&#45;&gt;n22</title>
<path fill="none" stroke="black" d="M2839.27,-112.96C2819.34,-101.82 2797.1,-89.4 2776.58,-77.93"/>
<polygon fill="black" stroke="black" points="2778.04,-74.74 2767.6,-72.91 2774.62,-80.85 2778.04,-74.74"/>
</g>
<!-- n24 -->
<g id="node26" class="node">
<title>n24</title>
<ellipse fill="#98D2A5" stroke="black" cx="3095.97" cy="-37.48" rx="185.94" ry="37.45"/>
<text text-anchor="middle" x="3095.97" y="-48.78" font-family="Times,serif" font-size="14.00">adoptivos</text>
<text text-anchor="middle" x="3095.97" y="-33.78" font-family="Times,serif" font-size="14.00">aq0mp0 (amod)</text>
<text text-anchor="middle" x="3095.97" y="-18.78" font-family="Times,serif" font-size="14.00">rep=no, t=no, r=no, m=yes, c=no</text>
</g>
<!-- n23&#45;&gt;n24 -->
<g id="edge25" class="edge">
<title>n23&#45;&gt;n24</title>
<path fill="none" stroke="black" d="M2962.67,-112.96C2982.59,-101.82 3004.84,-89.4 3025.35,-77.93"/>
<polygon fill="black" stroke="black" points="3027.31,-80.85 3034.34,-72.91 3023.9,-74.74 3027.31,-80.85"/>
</g>
</g>
</svg>
