<?xml version="1.0" encoding="UTF-8" standalone="no"?>
<!DOCTYPE svg PUBLIC "-//W3C//DTD SVG 1.1//EN"
 "http://www.w3.org/Graphics/SVG/1.1/DTD/svg11.dtd">
<!-- Generated by graphviz version 2.43.0 (0)
 -->
<!-- Title: tree Pages: 1 -->
<svg width="1550pt" height="860pt"
 viewBox="0.00 0.00 1549.94 859.63" xmlns="http://www.w3.org/2000/svg" xmlns:xlink="http://www.w3.org/1999/xlink">
<g id="graph0" class="graph" transform="scale(1 1) rotate(0) translate(4 855.63)">
<title>tree</title>
<polygon fill="white" stroke="transparent" points="-4,4 -4,-855.63 1545.94,-855.63 1545.94,4 -4,4"/>
<!-- n11 -->
<g id="node1" class="node">
<title>n11</title>
<ellipse fill="#98D2A5" stroke="black" cx="965.97" cy="-814.15" rx="185.94" ry="37.45"/>
<text text-anchor="middle" x="965.97" y="-825.45" font-family="Times,serif" font-size="14.00">y</text>
<text text-anchor="middle" x="965.97" y="-810.45" font-family="Times,serif" font-size="14.00">cc (root)</text>
<text text-anchor="middle" x="965.97" y="-795.45" font-family="Times,serif" font-size="14.00">rep=no, t=no, r=no, m=yes, c=no</text>
</g>
<!-- n2 -->
<g id="node2" class="node">
<title>n2</title>
<ellipse fill="#98D2A5" stroke="black" cx="575.97" cy="-703.2" rx="185.94" ry="37.45"/>
<text text-anchor="middle" x="575.97" y="-714.5" font-family="Times,serif" font-size="14.00">fue</text>
<text text-anchor="middle" x="575.97" y="-699.5" font-family="Times,serif" font-size="14.00">vsis3s0 (coord)</text>
<text text-anchor="middle" x="575.97" y="-684.5" font-family="Times,serif" font-size="14.00">rep=no, t=no, r=no, m=yes, c=no</text>
</g>
<!-- n11&#45;&gt;n2 -->
<g id="edge1" class="edge">
<title>n11&#45;&gt;n2</title>
<path fill="none" stroke="black" d="M859.4,-783.38C807.59,-768.91 745.23,-751.48 692.2,-736.67"/>
<polygon fill="black" stroke="black" points="692.98,-733.25 682.41,-733.93 691.1,-739.99 692.98,-733.25"/>
</g>
<!-- n12 -->
<g id="node3" class="node">
<title>n12</title>
<ellipse fill="#98D2A5" stroke="black" cx="965.97" cy="-703.2" rx="185.94" ry="37.45"/>
<text text-anchor="middle" x="965.97" y="-714.5" font-family="Times,serif" font-size="14.00">trasladada</text>
<text text-anchor="middle" x="965.97" y="-699.5" font-family="Times,serif" font-size="14.00">vmp00sf (coord)</text>
<text text-anchor="middle" x="965.97" y="-684.5" font-family="Times,serif" font-size="14.00">rep=no, t=no, r=no, m=yes, c=no</text>
</g>
<!-- n11&#45;&gt;n12 -->
<g id="edge2" class="edge">
<title>n11&#45;&gt;n12</title>
<path fill="none" stroke="black" d="M965.97,-776.57C965.97,-768.39 965.97,-759.61 965.97,-751.09"/>
<polygon fill="black" stroke="black" points="969.47,-750.87 965.97,-740.87 962.47,-750.87 969.47,-750.87"/>
</g>
<!-- n18 -->
<g id="node4" class="node">
<title>n18</title>
<ellipse fill="none" stroke="black" cx="1351.97" cy="-703.2" rx="181.95" ry="37.45"/>
<text text-anchor="middle" x="1351.97" y="-714.5" font-family="Times,serif" font-size="14.00">.</text>
<text text-anchor="middle" x="1351.97" y="-699.5" font-family="Times,serif" font-size="14.00">fp (punct)</text>
<text text-anchor="middle" x="1351.97" y="-684.5" font-family="Times,serif" font-size="14.00">rep=no, t=no, r=no, m=no, c=no</text>
</g>
<!-- n11&#45;&gt;n18 -->
<g id="edge3" class="edge">
<title>n11&#45;&gt;n18</title>
<path fill="none" stroke="black" d="M1071.7,-783.31C1122.97,-768.83 1184.65,-751.42 1237.08,-736.63"/>
<polygon fill="black" stroke="black" points="1238.08,-739.98 1246.75,-733.89 1236.18,-733.24 1238.08,-739.98"/>
</g>
<!-- n3 -->
<g id="node5" class="node">
<title>n3</title>
<ellipse fill="#98D2A5" stroke="black" cx="575.97" cy="-592.24" rx="185.94" ry="37.45"/>
<text text-anchor="middle" x="575.97" y="-603.54" font-family="Times,serif" font-size="14.00">encarcelada</text>
<text text-anchor="middle" x="575.97" y="-588.54" font-family="Times,serif" font-size="14.00">vmp00sf (attr)</text>
<text text-anchor="middle" x="575.97" y="-573.54" font-family="Times,serif" font-size="14.00">rep=no, t=no, r=no, m=yes, c=no</text>
</g>
<!-- n2&#45;&gt;n3 -->
<g id="edge4" class="edge">
<title>n2&#45;&gt;n3</title>
<path fill="none" stroke="black" d="M575.97,-665.61C575.97,-657.44 575.97,-648.66 575.97,-640.13"/>
<polygon fill="black" stroke="black" points="579.47,-639.92 575.97,-629.92 572.47,-639.92 579.47,-639.92"/>
</g>
<!-- n13 -->
<g id="node14" class="node">
<title>n13</title>
<ellipse fill="#98D2A5" stroke="black" cx="965.97" cy="-592.24" rx="185.94" ry="37.45"/>
<text text-anchor="middle" x="965.97" y="-603.54" font-family="Times,serif" font-size="14.00">a</text>
<text text-anchor="middle" x="965.97" y="-588.54" font-family="Times,serif" font-size="14.00">sps00 (prepv)</text>
<text text-anchor="middle" x="965.97" y="-573.54" font-family="Times,serif" font-size="14.00">rep=no, t=no, r=no, m=yes, c=no</text>
</g>
<!-- n12&#45;&gt;n13 -->
<g id="edge13" class="edge">
<title>n12&#45;&gt;n13</title>
<path fill="none" stroke="black" d="M965.97,-665.61C965.97,-657.44 965.97,-648.66 965.97,-640.13"/>
<polygon fill="black" stroke="black" points="969.47,-639.92 965.97,-629.92 962.47,-639.92 969.47,-639.92"/>
</g>
<!-- n1 -->
<g id="node6" class="node">
<title>n1</title>
<ellipse fill="#98D2A5" stroke="black" cx="185.97" cy="-481.29" rx="185.94" ry="37.45"/>
<text text-anchor="middle" x="185.97" y="-492.59" font-family="Times,serif" font-size="14.00">Después</text>
<text text-anchor="middle" x="185.97" y="-477.59" font-family="Times,serif" font-size="14.00">rg (advmod)</text>
<text text-anchor="middle" x="185.97" y="-462.59" font-family="Times,serif" font-size="14.00">rep=no, t=no, r=no, m=yes, c=no</text>
</g>
<!-- n3&#45;&gt;n1 -->
<g id="edge5" class="edge">
<title>n3&#45;&gt;n1</title>
<path fill="none" stroke="black" d="M469.4,-561.47C417.59,-547 355.23,-529.57 302.2,-514.76"/>
<polygon fill="black" stroke="black" points="302.98,-511.35 292.41,-512.03 301.1,-518.09 302.98,-511.35"/>
</g>
<!-- n4 -->
<g id="node7" class="node">
<title>n4</title>
<ellipse fill="#98D2A5" stroke="black" cx="575.97" cy="-481.29" rx="185.94" ry="37.45"/>
<text text-anchor="middle" x="575.97" y="-492.59" font-family="Times,serif" font-size="14.00">en</text>
<text text-anchor="middle" x="575.97" y="-477.59" font-family="Times,serif" font-size="14.00">sps00 (prepv)</text>
<text text-anchor="middle" x="575.97" y="-462.59" font-family="Times,serif" font-size="14.00">rep=no, t=no, r=no, m=yes, c=no</text>
</g>
<!-- n3&#45;&gt;n4 -->
<g id="edge6" class="edge">
<title>n3&#45;&gt;n4</title>
<path fill="none" stroke="black" d="M575.97,-554.66C575.97,-546.49 575.97,-537.71 575.97,-529.18"/>
<polygon fill="black" stroke="black" points="579.47,-528.96 575.97,-518.96 572.47,-528.96 579.47,-528.96"/>
</g>
<!-- n6 -->
<g id="node8" class="node">
<title>n6</title>
<ellipse fill="#98D2A5" stroke="black" cx="575.97" cy="-370.34" rx="185.94" ry="37.45"/>
<text text-anchor="middle" x="575.97" y="-381.64" font-family="Times,serif" font-size="14.00">centro</text>
<text text-anchor="middle" x="575.97" y="-366.64" font-family="Times,serif" font-size="14.00">ncms000 (pobj)</text>
<text text-anchor="middle" x="575.97" y="-351.64" font-family="Times,serif" font-size="14.00">rep=no, t=no, r=no, m=yes, c=no</text>
</g>
<!-- n4&#45;&gt;n6 -->
<g id="edge7" class="edge">
<title>n4&#45;&gt;n6</title>
<path fill="none" stroke="black" d="M575.97,-443.71C575.97,-435.53 575.97,-426.75 575.97,-418.23"/>
<polygon fill="black" stroke="black" points="579.47,-418.01 575.97,-408.01 572.47,-418.01 579.47,-418.01"/>
</g>
<!-- n5 -->
<g id="node9" class="node">
<title>n5</title>
<ellipse fill="#98D2A5" stroke="black" cx="185.97" cy="-259.38" rx="185.94" ry="37.45"/>
<text text-anchor="middle" x="185.97" y="-270.68" font-family="Times,serif" font-size="14.00">un</text>
<text text-anchor="middle" x="185.97" y="-255.68" font-family="Times,serif" font-size="14.00">di0ms0 (det)</text>
<text text-anchor="middle" x="185.97" y="-240.68" font-family="Times,serif" font-size="14.00">rep=no, t=no, r=no, m=yes, c=no</text>
</g>
<!-- n6&#45;&gt;n5 -->
<g id="edge8" class="edge">
<title>n6&#45;&gt;n5</title>
<path fill="none" stroke="black" d="M469.4,-339.56C417.59,-325.09 355.23,-307.67 302.2,-292.85"/>
<polygon fill="black" stroke="black" points="302.98,-289.44 292.41,-290.12 301.1,-296.18 302.98,-289.44"/>
</g>
<!-- n7 -->
<g id="node10" class="node">
<title>n7</title>
<ellipse fill="#98D2A5" stroke="black" cx="575.97" cy="-259.38" rx="185.94" ry="37.45"/>
<text text-anchor="middle" x="575.97" y="-270.68" font-family="Times,serif" font-size="14.00">clandestino</text>
<text text-anchor="middle" x="575.97" y="-255.68" font-family="Times,serif" font-size="14.00">aq0ms0 (amod)</text>
<text text-anchor="middle" x="575.97" y="-240.68" font-family="Times,serif" font-size="14.00">rep=no, t=no, r=no, m=yes, c=no</text>
</g>
<!-- n6&#45;&gt;n7 -->
<g id="edge9" class="edge">
<title>n6&#45;&gt;n7</title>
<path fill="none" stroke="black" d="M575.97,-332.75C575.97,-324.58 575.97,-315.8 575.97,-307.27"/>
<polygon fill="black" stroke="black" points="579.47,-307.06 575.97,-297.06 572.47,-307.06 579.47,-307.06"/>
</g>
<!-- n8 -->
<g id="node11" class="node">
<title>n8</title>
<ellipse fill="#98D2A5" stroke="black" cx="965.97" cy="-259.38" rx="185.94" ry="37.45"/>
<text text-anchor="middle" x="965.97" y="-270.68" font-family="Times,serif" font-size="14.00">de</text>
<text text-anchor="middle" x="965.97" y="-255.68" font-family="Times,serif" font-size="14.00">sps00 (prepn)</text>
<text text-anchor="middle" x="965.97" y="-240.68" font-family="Times,serif" font-size="14.00">rep=no, t=no, r=no, m=yes, c=no</text>
</g>
<!-- n6&#45;&gt;n8 -->
<g id="edge10" class="edge">
<title>n6&#45;&gt;n8</title>
<path fill="none" stroke="black" d="M682.54,-339.56C734.34,-325.09 796.71,-307.67 849.74,-292.85"/>
<polygon fill="black" stroke="black" points="850.84,-296.18 859.53,-290.12 848.96,-289.44 850.84,-296.18"/>
</g>
<!-- n10 -->
<g id="node12" class="node">
<title>n10</title>
<ellipse fill="#98D2A5" stroke="black" cx="965.97" cy="-148.43" rx="185.94" ry="37.45"/>
<text text-anchor="middle" x="965.97" y="-159.73" font-family="Times,serif" font-size="14.00">Aires</text>
<text text-anchor="middle" x="965.97" y="-144.73" font-family="Times,serif" font-size="14.00">ncms000 (pobj)</text>
<text text-anchor="middle" x="965.97" y="-129.73" font-family="Times,serif" font-size="14.00">rep=no, t=no, r=no, m=yes, c=no</text>
</g>
<!-- n8&#45;&gt;n10 -->
<g id="edge11" class="edge">
<title>n8&#45;&gt;n10</title>
<path fill="none" stroke="black" d="M965.97,-221.8C965.97,-213.63 965.97,-204.85 965.97,-196.32"/>
<polygon fill="black" stroke="black" points="969.47,-196.1 965.97,-186.1 962.47,-196.1 969.47,-196.1"/>
</g>
<!-- n9 -->
<g id="node13" class="node">
<title>n9</title>
<ellipse fill="#98D2A5" stroke="black" cx="965.97" cy="-37.48" rx="185.94" ry="37.45"/>
<text text-anchor="middle" x="965.97" y="-48.78" font-family="Times,serif" font-size="14.00">Buenos</text>
<text text-anchor="middle" x="965.97" y="-33.78" font-family="Times,serif" font-size="14.00">aq0ms0 (amod)</text>
<text text-anchor="middle" x="965.97" y="-18.78" font-family="Times,serif" font-size="14.00">rep=no, t=no, r=no, m=yes, c=no</text>
</g>
<!-- n10&#45;&gt;n9 -->
<g id="edge12" class="edge">
<title>n10&#45;&gt;n9</title>
<path fill="none" stroke="black" d="M965.97,-110.85C965.97,-102.67 965.97,-93.89 965.97,-85.37"/>
<polygon fill="black" stroke="black" points="969.47,-85.15 965.97,-75.15 962.47,-85.15 969.47,-85.15"/>
</g>
<!-- n15 -->
<g id="node15" class="node">
<title>n15</title>
<ellipse fill="#98D2A5" stroke="black" cx="965.97" cy="-481.29" rx="185.94" ry="37.45"/>
<text text-anchor="middle" x="965.97" y="-492.59" font-family="Times,serif" font-size="14.00">hospital</text>
<text text-anchor="middle" x="965.97" y="-477.59" font-family="Times,serif" font-size="14.00">ncms000 (pobj)</text>
<text text-anchor="middle" x="965.97" y="-462.59" font-family="Times,serif" font-size="14.00">rep=no, t=no, r=no, m=yes, c=no</text>
</g>
<!-- n13&#45;&gt;n15 -->
<g id="edge14" class="edge">
<title>n13&#45;&gt;n15</title>
<path fill="none" stroke="black" d="M965.97,-554.66C965.97,-546.49 965.97,-537.71 965.97,-529.18"/>
<polygon fill="black" stroke="black" points="969.47,-528.96 965.97,-518.96 962.47,-528.96 969.47,-528.96"/>
</g>
<!-- n14 -->
<g id="node16" class="node">
<title>n14</title>
<ellipse fill="#98D2A5" stroke="black" cx="965.97" cy="-370.34" rx="185.94" ry="37.45"/>
<text text-anchor="middle" x="965.97" y="-381.64" font-family="Times,serif" font-size="14.00">un</text>
<text text-anchor="middle" x="965.97" y="-366.64" font-family="Times,serif" font-size="14.00">di0ms0 (det)</text>
<text text-anchor="middle" x="965.97" y="-351.64" font-family="Times,serif" font-size="14.00">rep=no, t=no, r=no, m=yes, c=no</text>
</g>
<!-- n15&#45;&gt;n14 -->
<g id="edge15" class="edge">
<title>n15&#45;&gt;n14</title>
<path fill="none" stroke="black" d="M965.97,-443.71C965.97,-435.53 965.97,-426.75 965.97,-418.23"/>
<polygon fill="black" stroke="black" points="969.47,-418.01 965.97,-408.01 962.47,-418.01 969.47,-418.01"/>
</g>
<!-- n16 -->
<g id="node17" class="node">
<title>n16</title>
<ellipse fill="#98D2A5" stroke="black" cx="1355.97" cy="-370.34" rx="185.94" ry="37.45"/>
<text text-anchor="middle" x="1355.97" y="-381.64" font-family="Times,serif" font-size="14.00">de</text>
<text text-anchor="middle" x="1355.97" y="-366.64" font-family="Times,serif" font-size="14.00">sps00 (prepn)</text>
<text text-anchor="middle" x="1355.97" y="-351.64" font-family="Times,serif" font-size="14.00">rep=no, t=no, r=no, m=yes, c=no</text>
</g>
<!-- n15&#45;&gt;n16 -->
<g id="edge16" class="edge">
<title>n15&#45;&gt;n16</title>
<path fill="none" stroke="black" d="M1072.54,-450.52C1124.34,-436.05 1186.71,-418.62 1239.74,-403.81"/>
<polygon fill="black" stroke="black" points="1240.84,-407.13 1249.53,-401.07 1238.96,-400.39 1240.84,-407.13"/>
</g>
<!-- n17 -->
<g id="node18" class="node">
<title>n17</title>
<ellipse fill="#98D2A5" stroke="black" cx="1355.97" cy="-259.38" rx="185.94" ry="37.45"/>
<text text-anchor="middle" x="1355.97" y="-270.68" font-family="Times,serif" font-size="14.00">Montevideo</text>
<text text-anchor="middle" x="1355.97" y="-255.68" font-family="Times,serif" font-size="14.00">np00000 (pobj)</text>
<text text-anchor="middle" x="1355.97" y="-240.68" font-family="Times,serif" font-size="14.00">rep=no, t=no, r=no, m=yes, c=no</text>
</g>
<!-- n16&#45;&gt;n17 -->
<g id="edge17" class="edge">
<title>n16&#45;&gt;n17</title>
<path fill="none" stroke="black" d="M1355.97,-332.75C1355.97,-324.58 1355.97,-315.8 1355.97,-307.27"/>
<polygon fill="black" stroke="black" points="1359.47,-307.06 1355.97,-297.06 1352.47,-307.06 1359.47,-307.06"/>
</g>
</g>
</svg>
