<?xml version="1.0" encoding="UTF-8" standalone="no"?>
<!DOCTYPE svg PUBLIC "-//W3C//DTD SVG 1.1//EN"
 "http://www.w3.org/Graphics/SVG/1.1/DTD/svg11.dtd">
<!-- Generated by graphviz version 2.43.0 (0)
 -->
<!-- Title: tree Pages: 1 -->
<svg width="1834pt" height="638pt"
 viewBox="0.00 0.00 1833.70 637.72" xmlns="http://www.w3.org/2000/svg" xmlns:xlink="http://www.w3.org/1999/xlink">
<g id="graph0" class="graph" transform="scale(1 1) rotate(0) translate(4 633.72)">
<title>tree</title>
<polygon fill="white" stroke="transparent" points="-4,4 -4,-633.72 1829.7,-633.72 1829.7,4 -4,4"/>
<!-- n10 -->
<g id="node1" class="node">
<title>n10</title>
<ellipse fill="#98D2A5" stroke="black" cx="1257.97" cy="-592.24" rx="185.94" ry="37.45"/>
<text text-anchor="middle" x="1257.97" y="-603.54" font-family="Times,serif" font-size="14.00">y</text>
<text text-anchor="middle" x="1257.97" y="-588.54" font-family="Times,serif" font-size="14.00">cc (root)</text>
<text text-anchor="middle" x="1257.97" y="-573.54" font-family="Times,serif" font-size="14.00">rep=no, t=no, r=no, m=yes, c=no</text>
</g>
<!-- n2 -->
<g id="node2" class="node">
<title>n2</title>
<ellipse fill="#98D2A5" stroke="black" cx="770.97" cy="-481.29" rx="185.94" ry="37.45"/>
<text text-anchor="middle" x="770.97" y="-492.59" font-family="Times,serif" font-size="14.00">dejó</text>
<text text-anchor="middle" x="770.97" y="-477.59" font-family="Times,serif" font-size="14.00">vmis3s0 (coord)</text>
<text text-anchor="middle" x="770.97" y="-462.59" font-family="Times,serif" font-size="14.00">rep=no, t=no, r=no, m=yes, c=no</text>
</g>
<!-- n10&#45;&gt;n2 -->
<g id="edge1" class="edge">
<title>n10&#45;&gt;n2</title>
<path fill="none" stroke="black" d="M1135.71,-563.89C1064.93,-548.06 975.82,-528.12 903.39,-511.91"/>
<polygon fill="black" stroke="black" points="903.8,-508.42 893.28,-509.65 902.28,-515.25 903.8,-508.42"/>
</g>
<!-- n12 -->
<g id="node3" class="node">
<title>n12</title>
<ellipse fill="#98D2A5" stroke="black" cx="1257.97" cy="-481.29" rx="185.94" ry="37.45"/>
<text text-anchor="middle" x="1257.97" y="-492.59" font-family="Times,serif" font-size="14.00">esfumó</text>
<text text-anchor="middle" x="1257.97" y="-477.59" font-family="Times,serif" font-size="14.00">vmis3s0 (coord)</text>
<text text-anchor="middle" x="1257.97" y="-462.59" font-family="Times,serif" font-size="14.00">rep=no, t=no, r=no, m=yes, c=no</text>
</g>
<!-- n10&#45;&gt;n12 -->
<g id="edge2" class="edge">
<title>n10&#45;&gt;n12</title>
<path fill="none" stroke="black" d="M1257.97,-554.66C1257.97,-546.49 1257.97,-537.71 1257.97,-529.18"/>
<polygon fill="black" stroke="black" points="1261.47,-528.96 1257.97,-518.96 1254.47,-528.96 1261.47,-528.96"/>
</g>
<!-- n13 -->
<g id="node4" class="node">
<title>n13</title>
<ellipse fill="none" stroke="black" cx="1643.97" cy="-481.29" rx="181.95" ry="37.45"/>
<text text-anchor="middle" x="1643.97" y="-492.59" font-family="Times,serif" font-size="14.00">.</text>
<text text-anchor="middle" x="1643.97" y="-477.59" font-family="Times,serif" font-size="14.00">fp (punct)</text>
<text text-anchor="middle" x="1643.97" y="-462.59" font-family="Times,serif" font-size="14.00">rep=no, t=no, r=no, m=no, c=no</text>
</g>
<!-- n10&#45;&gt;n13 -->
<g id="edge3" class="edge">
<title>n10&#45;&gt;n13</title>
<path fill="none" stroke="black" d="M1363.7,-561.4C1414.97,-546.93 1476.65,-529.52 1529.08,-514.72"/>
<polygon fill="black" stroke="black" points="1530.08,-518.07 1538.75,-511.99 1528.18,-511.34 1530.08,-518.07"/>
</g>
<!-- n1 -->
<g id="node5" class="node">
<title>n1</title>
<ellipse fill="#98D2A5" stroke="black" cx="185.97" cy="-370.34" rx="185.94" ry="37.45"/>
<text text-anchor="middle" x="185.97" y="-381.64" font-family="Times,serif" font-size="14.00">Pero</text>
<text text-anchor="middle" x="185.97" y="-366.64" font-family="Times,serif" font-size="14.00">cc (coord_fixed)</text>
<text text-anchor="middle" x="185.97" y="-351.64" font-family="Times,serif" font-size="14.00">rep=no, t=no, r=no, m=yes, c=no</text>
</g>
<!-- n2&#45;&gt;n1 -->
<g id="edge4" class="edge">
<title>n2&#45;&gt;n1</title>
<path fill="none" stroke="black" d="M636.49,-455.34C561.32,-441.38 465.93,-423.65 380.97,-407.81 364.48,-404.74 347.21,-401.52 330.05,-398.31"/>
<polygon fill="black" stroke="black" points="330.44,-394.82 319.97,-396.42 329.16,-401.7 330.44,-394.82"/>
</g>
<!-- n3 -->
<g id="node6" class="node">
<title>n3</title>
<ellipse fill="#98D2A5" stroke="black" cx="575.97" cy="-370.34" rx="185.94" ry="37.45"/>
<text text-anchor="middle" x="575.97" y="-381.64" font-family="Times,serif" font-size="14.00">a</text>
<text text-anchor="middle" x="575.97" y="-366.64" font-family="Times,serif" font-size="14.00">sps00 (dobj)</text>
<text text-anchor="middle" x="575.97" y="-351.64" font-family="Times,serif" font-size="14.00">rep=no, t=no, r=no, m=yes, c=no</text>
</g>
<!-- n2&#45;&gt;n3 -->
<g id="edge5" class="edge">
<title>n2&#45;&gt;n3</title>
<path fill="none" stroke="black" d="M709.27,-445.82C689.34,-434.68 667.1,-422.26 646.58,-410.79"/>
<polygon fill="black" stroke="black" points="648.04,-407.59 637.6,-405.77 644.62,-413.71 648.04,-407.59"/>
</g>
<!-- n6 -->
<g id="node7" class="node">
<title>n6</title>
<ellipse fill="#98D2A5" stroke="black" cx="965.97" cy="-370.34" rx="185.94" ry="37.45"/>
<text text-anchor="middle" x="965.97" y="-381.64" font-family="Times,serif" font-size="14.00">plantada</text>
<text text-anchor="middle" x="965.97" y="-366.64" font-family="Times,serif" font-size="14.00">aq0fsp (cpred)</text>
<text text-anchor="middle" x="965.97" y="-351.64" font-family="Times,serif" font-size="14.00">rep=no, t=no, r=no, m=yes, c=no</text>
</g>
<!-- n2&#45;&gt;n6 -->
<g id="edge6" class="edge">
<title>n2&#45;&gt;n6</title>
<path fill="none" stroke="black" d="M832.67,-445.82C852.59,-434.68 874.84,-422.26 895.35,-410.79"/>
<polygon fill="black" stroke="black" points="897.31,-413.71 904.34,-405.77 893.9,-407.59 897.31,-413.71"/>
</g>
<!-- n11 -->
<g id="node13" class="node">
<title>n11</title>
<ellipse fill="#98D2A5" stroke="black" cx="1355.97" cy="-370.34" rx="185.94" ry="37.45"/>
<text text-anchor="middle" x="1355.97" y="-381.64" font-family="Times,serif" font-size="14.00">se</text>
<text text-anchor="middle" x="1355.97" y="-366.64" font-family="Times,serif" font-size="14.00">p0300000 (reflec)</text>
<text text-anchor="middle" x="1355.97" y="-351.64" font-family="Times,serif" font-size="14.00">rep=no, t=no, r=no, m=yes, c=no</text>
</g>
<!-- n12&#45;&gt;n11 -->
<g id="edge12" class="edge">
<title>n12&#45;&gt;n11</title>
<path fill="none" stroke="black" d="M1290.33,-444.31C1298.78,-434.92 1307.97,-424.7 1316.73,-414.96"/>
<polygon fill="black" stroke="black" points="1319.56,-417.05 1323.64,-407.28 1314.35,-412.37 1319.56,-417.05"/>
</g>
<!-- n5 -->
<g id="node8" class="node">
<title>n5</title>
<ellipse fill="#98D2A5" stroke="black" cx="575.97" cy="-259.38" rx="185.94" ry="37.45"/>
<text text-anchor="middle" x="575.97" y="-270.68" font-family="Times,serif" font-size="14.00">novia</text>
<text text-anchor="middle" x="575.97" y="-255.68" font-family="Times,serif" font-size="14.00">ncfs000 (pobj)</text>
<text text-anchor="middle" x="575.97" y="-240.68" font-family="Times,serif" font-size="14.00">rep=no, t=no, r=no, m=yes, c=no</text>
</g>
<!-- n3&#45;&gt;n5 -->
<g id="edge7" class="edge">
<title>n3&#45;&gt;n5</title>
<path fill="none" stroke="black" d="M575.97,-332.75C575.97,-324.58 575.97,-315.8 575.97,-307.27"/>
<polygon fill="black" stroke="black" points="579.47,-307.06 575.97,-297.06 572.47,-307.06 579.47,-307.06"/>
</g>
<!-- n7 -->
<g id="node10" class="node">
<title>n7</title>
<ellipse fill="#98D2A5" stroke="black" cx="965.97" cy="-259.38" rx="185.94" ry="37.45"/>
<text text-anchor="middle" x="965.97" y="-270.68" font-family="Times,serif" font-size="14.00">en</text>
<text text-anchor="middle" x="965.97" y="-255.68" font-family="Times,serif" font-size="14.00">sps00 (prepa)</text>
<text text-anchor="middle" x="965.97" y="-240.68" font-family="Times,serif" font-size="14.00">rep=no, t=no, r=no, m=yes, c=no</text>
</g>
<!-- n6&#45;&gt;n7 -->
<g id="edge9" class="edge">
<title>n6&#45;&gt;n7</title>
<path fill="none" stroke="black" d="M965.97,-332.75C965.97,-324.58 965.97,-315.8 965.97,-307.27"/>
<polygon fill="black" stroke="black" points="969.47,-307.06 965.97,-297.06 962.47,-307.06 969.47,-307.06"/>
</g>
<!-- n4 -->
<g id="node9" class="node">
<title>n4</title>
<ellipse fill="#98D2A5" stroke="black" cx="575.97" cy="-148.43" rx="185.94" ry="37.45"/>
<text text-anchor="middle" x="575.97" y="-159.73" font-family="Times,serif" font-size="14.00">su</text>
<text text-anchor="middle" x="575.97" y="-144.73" font-family="Times,serif" font-size="14.00">dp3cs0 (poss)</text>
<text text-anchor="middle" x="575.97" y="-129.73" font-family="Times,serif" font-size="14.00">rep=no, t=no, r=no, m=yes, c=no</text>
</g>
<!-- n5&#45;&gt;n4 -->
<g id="edge8" class="edge">
<title>n5&#45;&gt;n4</title>
<path fill="none" stroke="black" d="M575.97,-221.8C575.97,-213.63 575.97,-204.85 575.97,-196.32"/>
<polygon fill="black" stroke="black" points="579.47,-196.1 575.97,-186.1 572.47,-196.1 579.47,-196.1"/>
</g>
<!-- n9 -->
<g id="node11" class="node">
<title>n9</title>
<ellipse fill="#98D2A5" stroke="black" cx="965.97" cy="-148.43" rx="185.94" ry="37.45"/>
<text text-anchor="middle" x="965.97" y="-159.73" font-family="Times,serif" font-size="14.00">altar</text>
<text text-anchor="middle" x="965.97" y="-144.73" font-family="Times,serif" font-size="14.00">ncms000 (pobj)</text>
<text text-anchor="middle" x="965.97" y="-129.73" font-family="Times,serif" font-size="14.00">rep=no, t=no, r=no, m=yes, c=no</text>
</g>
<!-- n7&#45;&gt;n9 -->
<g id="edge10" class="edge">
<title>n7&#45;&gt;n9</title>
<path fill="none" stroke="black" d="M965.97,-221.8C965.97,-213.63 965.97,-204.85 965.97,-196.32"/>
<polygon fill="black" stroke="black" points="969.47,-196.1 965.97,-186.1 962.47,-196.1 969.47,-196.1"/>
</g>
<!-- n8 -->
<g id="node12" class="node">
<title>n8</title>
<ellipse fill="#98D2A5" stroke="black" cx="965.97" cy="-37.48" rx="185.94" ry="37.45"/>
<text text-anchor="middle" x="965.97" y="-48.78" font-family="Times,serif" font-size="14.00">el</text>
<text text-anchor="middle" x="965.97" y="-33.78" font-family="Times,serif" font-size="14.00">da0ms0 (det)</text>
<text text-anchor="middle" x="965.97" y="-18.78" font-family="Times,serif" font-size="14.00">rep=no, t=no, r=no, m=yes, c=no</text>
</g>
<!-- n9&#45;&gt;n8 -->
<g id="edge11" class="edge">
<title>n9&#45;&gt;n8</title>
<path fill="none" stroke="black" d="M965.97,-110.85C965.97,-102.67 965.97,-93.89 965.97,-85.37"/>
<polygon fill="black" stroke="black" points="969.47,-85.15 965.97,-75.15 962.47,-85.15 969.47,-85.15"/>
</g>
</g>
</svg>
