<?xml version="1.0" encoding="UTF-8" standalone="no"?>
<!DOCTYPE svg PUBLIC "-//W3C//DTD SVG 1.1//EN"
 "http://www.w3.org/Graphics/SVG/1.1/DTD/svg11.dtd">
<!-- Generated by graphviz version 2.43.0 (0)
 -->
<!-- Title: tree Pages: 1 -->
<svg width="2350pt" height="860pt"
 viewBox="0.00 0.00 2349.89 859.63" xmlns="http://www.w3.org/2000/svg" xmlns:xlink="http://www.w3.org/1999/xlink">
<g id="graph0" class="graph" transform="scale(1 1) rotate(0) translate(4 855.63)">
<title>tree</title>
<polygon fill="white" stroke="transparent" points="-4,4 -4,-855.63 2345.89,-855.63 2345.89,4 -4,4"/>
<!-- n8 -->
<g id="node1" class="node">
<title>n8</title>
<ellipse fill="#98D2A5" stroke="black" cx="1159.97" cy="-814.15" rx="185.94" ry="37.45"/>
<text text-anchor="middle" x="1159.97" y="-825.45" font-family="Times,serif" font-size="14.00">,</text>
<text text-anchor="middle" x="1159.97" y="-810.45" font-family="Times,serif" font-size="14.00">fc (root)</text>
<text text-anchor="middle" x="1159.97" y="-795.45" font-family="Times,serif" font-size="14.00">rep=no, t=no, r=no, m=yes, c=no</text>
</g>
<!-- n4 -->
<g id="node2" class="node">
<title>n4</title>
<ellipse fill="#98D2A5" stroke="black" cx="575.97" cy="-703.2" rx="185.94" ry="37.45"/>
<text text-anchor="middle" x="575.97" y="-714.5" font-family="Times,serif" font-size="14.00">Está</text>
<text text-anchor="middle" x="575.97" y="-699.5" font-family="Times,serif" font-size="14.00">vmip3s0 (coord)</text>
<text text-anchor="middle" x="575.97" y="-684.5" font-family="Times,serif" font-size="14.00">rep=no, t=no, r=no, m=yes, c=no</text>
</g>
<!-- n8&#45;&gt;n4 -->
<g id="edge1" class="edge">
<title>n8&#45;&gt;n4</title>
<path fill="none" stroke="black" d="M1025.99,-788.15C934.61,-771.11 813.68,-748.54 720.19,-731.1"/>
<polygon fill="black" stroke="black" points="720.56,-727.61 710.08,-729.22 719.27,-734.49 720.56,-727.61"/>
</g>
<!-- n13 -->
<g id="node3" class="node">
<title>n13</title>
<ellipse fill="none" stroke="black" cx="964.97" cy="-703.2" rx="181.95" ry="37.45"/>
<text text-anchor="middle" x="964.97" y="-714.5" font-family="Times,serif" font-size="14.00">!</text>
<text text-anchor="middle" x="964.97" y="-699.5" font-family="Times,serif" font-size="14.00">fat (punct)</text>
<text text-anchor="middle" x="964.97" y="-684.5" font-family="Times,serif" font-size="14.00">rep=no, t=no, r=no, m=no, c=no</text>
</g>
<!-- n8&#45;&gt;n13 -->
<g id="edge2" class="edge">
<title>n8&#45;&gt;n13</title>
<path fill="none" stroke="black" d="M1098.27,-778.68C1078.34,-767.54 1056.1,-755.12 1035.58,-743.65"/>
<polygon fill="black" stroke="black" points="1037.04,-740.45 1026.6,-738.63 1033.62,-746.57 1037.04,-740.45"/>
</g>
<!-- n16 -->
<g id="node4" class="node">
<title>n16</title>
<ellipse fill="#98D2A5" stroke="black" cx="1355.97" cy="-703.2" rx="190.84" ry="37.45"/>
<text text-anchor="middle" x="1355.97" y="-714.5" font-family="Times,serif" font-size="14.00">estuvieran</text>
<text text-anchor="middle" x="1355.97" y="-699.5" font-family="Times,serif" font-size="14.00">vmsi3p0 (coord)</text>
<text text-anchor="middle" x="1355.97" y="-684.5" font-family="Times,serif" font-size="14.00">rep=no, t=no, r=yes, m=yes, c=no</text>
</g>
<!-- n8&#45;&gt;n16 -->
<g id="edge3" class="edge">
<title>n8&#45;&gt;n16</title>
<path fill="none" stroke="black" d="M1221.98,-778.68C1241.91,-767.6 1264.15,-755.24 1284.69,-743.82"/>
<polygon fill="black" stroke="black" points="1286.64,-746.74 1293.68,-738.82 1283.24,-740.62 1286.64,-746.74"/>
</g>
<!-- n18 -->
<g id="node5" class="node">
<title>n18</title>
<ellipse fill="none" stroke="black" cx="1746.97" cy="-703.2" rx="181.95" ry="37.45"/>
<text text-anchor="middle" x="1746.97" y="-714.5" font-family="Times,serif" font-size="14.00">.</text>
<text text-anchor="middle" x="1746.97" y="-699.5" font-family="Times,serif" font-size="14.00">fp (punct)</text>
<text text-anchor="middle" x="1746.97" y="-684.5" font-family="Times,serif" font-size="14.00">rep=no, t=no, r=no, m=no, c=no</text>
</g>
<!-- n8&#45;&gt;n18 -->
<g id="edge4" class="edge">
<title>n8&#45;&gt;n18</title>
<path fill="none" stroke="black" d="M1296.1,-788.5C1372.51,-774.6 1469.58,-756.83 1555.97,-740.67 1572.27,-737.63 1589.34,-734.41 1606.29,-731.19"/>
<polygon fill="black" stroke="black" points="1607.08,-734.6 1616.25,-729.3 1605.78,-727.73 1607.08,-734.6"/>
</g>
<!-- n3 -->
<g id="node6" class="node">
<title>n3</title>
<ellipse fill="#98D2A5" stroke="black" cx="185.97" cy="-592.24" rx="185.94" ry="37.45"/>
<text text-anchor="middle" x="185.97" y="-603.54" font-family="Times,serif" font-size="14.00">¡</text>
<text text-anchor="middle" x="185.97" y="-588.54" font-family="Times,serif" font-size="14.00">faa (punct)</text>
<text text-anchor="middle" x="185.97" y="-573.54" font-family="Times,serif" font-size="14.00">rep=no, t=no, r=no, m=yes, c=no</text>
</g>
<!-- n4&#45;&gt;n3 -->
<g id="edge5" class="edge">
<title>n4&#45;&gt;n3</title>
<path fill="none" stroke="black" d="M469.4,-672.42C417.59,-657.95 355.23,-640.53 302.2,-625.71"/>
<polygon fill="black" stroke="black" points="302.98,-622.3 292.41,-622.98 301.1,-629.04 302.98,-622.3"/>
</g>
<!-- n5 -->
<g id="node7" class="node">
<title>n5</title>
<ellipse fill="#98D2A5" stroke="black" cx="575.97" cy="-592.24" rx="185.94" ry="37.45"/>
<text text-anchor="middle" x="575.97" y="-603.54" font-family="Times,serif" font-size="14.00">escondida</text>
<text text-anchor="middle" x="575.97" y="-588.54" font-family="Times,serif" font-size="14.00">aq0fsp (attr)</text>
<text text-anchor="middle" x="575.97" y="-573.54" font-family="Times,serif" font-size="14.00">rep=no, t=no, r=no, m=yes, c=no</text>
</g>
<!-- n4&#45;&gt;n5 -->
<g id="edge6" class="edge">
<title>n4&#45;&gt;n5</title>
<path fill="none" stroke="black" d="M575.97,-665.61C575.97,-657.44 575.97,-648.66 575.97,-640.13"/>
<polygon fill="black" stroke="black" points="579.47,-639.92 575.97,-629.92 572.47,-639.92 579.47,-639.92"/>
</g>
<!-- n1 -->
<g id="node14" class="node">
<title>n1</title>
<ellipse fill="#98D2A5" stroke="black" cx="965.97" cy="-592.24" rx="185.94" ry="37.45"/>
<text text-anchor="middle" x="965.97" y="-603.54" font-family="Times,serif" font-size="14.00">&#45;</text>
<text text-anchor="middle" x="965.97" y="-588.54" font-family="Times,serif" font-size="14.00">fg (punct)</text>
<text text-anchor="middle" x="965.97" y="-573.54" font-family="Times,serif" font-size="14.00">rep=no, t=no, r=no, m=yes, c=no</text>
</g>
<!-- n16&#45;&gt;n1 -->
<g id="edge13" class="edge">
<title>n16&#45;&gt;n1</title>
<path fill="none" stroke="black" d="M1248.37,-672.14C1196.79,-657.73 1134.93,-640.44 1082.27,-625.73"/>
<polygon fill="black" stroke="black" points="1083.12,-622.34 1072.54,-623.02 1081.23,-629.08 1083.12,-622.34"/>
</g>
<!-- n2 -->
<g id="node15" class="node">
<title>n2</title>
<ellipse fill="#98D2A5" stroke="black" cx="1355.97" cy="-592.24" rx="185.94" ry="37.45"/>
<text text-anchor="middle" x="1355.97" y="-603.54" font-family="Times,serif" font-size="14.00">&#45;</text>
<text text-anchor="middle" x="1355.97" y="-588.54" font-family="Times,serif" font-size="14.00">fg (punct)</text>
<text text-anchor="middle" x="1355.97" y="-573.54" font-family="Times,serif" font-size="14.00">rep=no, t=no, r=no, m=yes, c=no</text>
</g>
<!-- n16&#45;&gt;n2 -->
<g id="edge14" class="edge">
<title>n16&#45;&gt;n2</title>
<path fill="none" stroke="black" d="M1355.97,-665.61C1355.97,-657.44 1355.97,-648.66 1355.97,-640.13"/>
<polygon fill="black" stroke="black" points="1359.47,-639.92 1355.97,-629.92 1352.47,-639.92 1359.47,-639.92"/>
</g>
<!-- n15 -->
<g id="node16" class="node">
<title>n15</title>
<ellipse fill="#98D2A5" stroke="black" cx="1750.97" cy="-592.24" rx="190.84" ry="37.45"/>
<text text-anchor="middle" x="1750.97" y="-603.54" font-family="Times,serif" font-size="14.00">camiones</text>
<text text-anchor="middle" x="1750.97" y="-588.54" font-family="Times,serif" font-size="14.00">ncmp000 (nsubj)</text>
<text text-anchor="middle" x="1750.97" y="-573.54" font-family="Times,serif" font-size="14.00">rep=no, t=yes, r=no, m=yes, c=no</text>
</g>
<!-- n16&#45;&gt;n15 -->
<g id="edge15" class="edge">
<title>n16&#45;&gt;n15</title>
<path fill="none" stroke="black" d="M1464.43,-672.28C1516.57,-657.9 1579.18,-640.63 1632.56,-625.91"/>
<polygon fill="black" stroke="black" points="1633.7,-629.22 1642.41,-623.19 1631.84,-622.47 1633.7,-629.22"/>
</g>
<!-- n17 -->
<g id="node17" class="node">
<title>n17</title>
<ellipse fill="#98D2A5" stroke="black" cx="2150.97" cy="-592.24" rx="190.84" ry="37.45"/>
<text text-anchor="middle" x="2150.97" y="-603.54" font-family="Times,serif" font-size="14.00">parados</text>
<text text-anchor="middle" x="2150.97" y="-588.54" font-family="Times,serif" font-size="14.00">aq0mpp (attr)</text>
<text text-anchor="middle" x="2150.97" y="-573.54" font-family="Times,serif" font-size="14.00">rep=no, t=no, r=yes, m=yes, c=no</text>
</g>
<!-- n16&#45;&gt;n17 -->
<g id="edge16" class="edge">
<title>n16&#45;&gt;n17</title>
<path fill="none" stroke="black" d="M1488.83,-676.25C1511.19,-672.37 1534.2,-668.69 1555.97,-665.72 1730.63,-641.88 1776.31,-653.56 1950.97,-629.72 1969.51,-627.19 1988.94,-624.14 2008.11,-620.9"/>
<polygon fill="black" stroke="black" points="2008.84,-624.33 2018.1,-619.19 2007.66,-617.43 2008.84,-624.33"/>
</g>
<!-- n6 -->
<g id="node8" class="node">
<title>n6</title>
<ellipse fill="#98D2A5" stroke="black" cx="575.97" cy="-481.29" rx="185.94" ry="37.45"/>
<text text-anchor="middle" x="575.97" y="-492.59" font-family="Times,serif" font-size="14.00">en</text>
<text text-anchor="middle" x="575.97" y="-477.59" font-family="Times,serif" font-size="14.00">sps00 (prepa)</text>
<text text-anchor="middle" x="575.97" y="-462.59" font-family="Times,serif" font-size="14.00">rep=no, t=no, r=no, m=yes, c=no</text>
</g>
<!-- n5&#45;&gt;n6 -->
<g id="edge7" class="edge">
<title>n5&#45;&gt;n6</title>
<path fill="none" stroke="black" d="M575.97,-554.66C575.97,-546.49 575.97,-537.71 575.97,-529.18"/>
<polygon fill="black" stroke="black" points="579.47,-528.96 575.97,-518.96 572.47,-528.96 579.47,-528.96"/>
</g>
<!-- n7 -->
<g id="node9" class="node">
<title>n7</title>
<ellipse fill="#98D2A5" stroke="black" cx="575.97" cy="-370.34" rx="185.94" ry="37.45"/>
<text text-anchor="middle" x="575.97" y="-381.64" font-family="Times,serif" font-size="14.00">Ruzafa</text>
<text text-anchor="middle" x="575.97" y="-366.64" font-family="Times,serif" font-size="14.00">np00000 (pobj)</text>
<text text-anchor="middle" x="575.97" y="-351.64" font-family="Times,serif" font-size="14.00">rep=no, t=no, r=no, m=yes, c=no</text>
</g>
<!-- n6&#45;&gt;n7 -->
<g id="edge8" class="edge">
<title>n6&#45;&gt;n7</title>
<path fill="none" stroke="black" d="M575.97,-443.71C575.97,-435.53 575.97,-426.75 575.97,-418.23"/>
<polygon fill="black" stroke="black" points="579.47,-418.01 575.97,-408.01 572.47,-418.01 579.47,-418.01"/>
</g>
<!-- n10 -->
<g id="node10" class="node">
<title>n10</title>
<ellipse fill="#98D2A5" stroke="black" cx="575.97" cy="-259.38" rx="185.94" ry="37.45"/>
<text text-anchor="middle" x="575.97" y="-270.68" font-family="Times,serif" font-size="14.00">corazoncito</text>
<text text-anchor="middle" x="575.97" y="-255.68" font-family="Times,serif" font-size="14.00">ncms000 (appos)</text>
<text text-anchor="middle" x="575.97" y="-240.68" font-family="Times,serif" font-size="14.00">rep=no, t=no, r=no, m=yes, c=no</text>
</g>
<!-- n7&#45;&gt;n10 -->
<g id="edge9" class="edge">
<title>n7&#45;&gt;n10</title>
<path fill="none" stroke="black" d="M575.97,-332.75C575.97,-324.58 575.97,-315.8 575.97,-307.27"/>
<polygon fill="black" stroke="black" points="579.47,-307.06 575.97,-297.06 572.47,-307.06 579.47,-307.06"/>
</g>
<!-- n9 -->
<g id="node11" class="node">
<title>n9</title>
<ellipse fill="#98D2A5" stroke="black" cx="380.97" cy="-148.43" rx="185.94" ry="37.45"/>
<text text-anchor="middle" x="380.97" y="-159.73" font-family="Times,serif" font-size="14.00">el</text>
<text text-anchor="middle" x="380.97" y="-144.73" font-family="Times,serif" font-size="14.00">da0ms0 (det)</text>
<text text-anchor="middle" x="380.97" y="-129.73" font-family="Times,serif" font-size="14.00">rep=no, t=no, r=no, m=yes, c=no</text>
</g>
<!-- n10&#45;&gt;n9 -->
<g id="edge10" class="edge">
<title>n10&#45;&gt;n9</title>
<path fill="none" stroke="black" d="M514.27,-223.91C494.34,-212.78 472.1,-200.35 451.58,-188.89"/>
<polygon fill="black" stroke="black" points="453.04,-185.69 442.6,-183.87 449.62,-191.8 453.04,-185.69"/>
</g>
<!-- n11 -->
<g id="node12" class="node">
<title>n11</title>
<ellipse fill="#98D2A5" stroke="black" cx="770.97" cy="-148.43" rx="185.94" ry="37.45"/>
<text text-anchor="middle" x="770.97" y="-159.73" font-family="Times,serif" font-size="14.00">de</text>
<text text-anchor="middle" x="770.97" y="-144.73" font-family="Times,serif" font-size="14.00">sps00 (prepn)</text>
<text text-anchor="middle" x="770.97" y="-129.73" font-family="Times,serif" font-size="14.00">rep=no, t=no, r=no, m=yes, c=no</text>
</g>
<!-- n10&#45;&gt;n11 -->
<g id="edge11" class="edge">
<title>n10&#45;&gt;n11</title>
<path fill="none" stroke="black" d="M637.67,-223.91C657.59,-212.78 679.84,-200.35 700.35,-188.89"/>
<polygon fill="black" stroke="black" points="702.31,-191.8 709.34,-183.87 698.9,-185.69 702.31,-191.8"/>
</g>
<!-- n12 -->
<g id="node13" class="node">
<title>n12</title>
<ellipse fill="#98D2A5" stroke="black" cx="770.97" cy="-37.48" rx="185.94" ry="37.45"/>
<text text-anchor="middle" x="770.97" y="-48.78" font-family="Times,serif" font-size="14.00">Valencia</text>
<text text-anchor="middle" x="770.97" y="-33.78" font-family="Times,serif" font-size="14.00">np00000 (pobj)</text>
<text text-anchor="middle" x="770.97" y="-18.78" font-family="Times,serif" font-size="14.00">rep=no, t=no, r=no, m=yes, c=no</text>
</g>
<!-- n11&#45;&gt;n12 -->
<g id="edge12" class="edge">
<title>n11&#45;&gt;n12</title>
<path fill="none" stroke="black" d="M770.97,-110.85C770.97,-102.67 770.97,-93.89 770.97,-85.37"/>
<polygon fill="black" stroke="black" points="774.47,-85.15 770.97,-75.15 767.47,-85.15 774.47,-85.15"/>
</g>
<!-- n14 -->
<g id="node18" class="node">
<title>n14</title>
<ellipse fill="#98D2A5" stroke="black" cx="1750.97" cy="-481.29" rx="190.84" ry="37.45"/>
<text text-anchor="middle" x="1750.97" y="-492.59" font-family="Times,serif" font-size="14.00">los</text>
<text text-anchor="middle" x="1750.97" y="-477.59" font-family="Times,serif" font-size="14.00">da0mp0 (det)</text>
<text text-anchor="middle" x="1750.97" y="-462.59" font-family="Times,serif" font-size="14.00">rep=no, t=yes, r=no, m=yes, c=no</text>
</g>
<!-- n15&#45;&gt;n14 -->
<g id="edge17" class="edge">
<title>n15&#45;&gt;n14</title>
<path fill="none" stroke="black" d="M1750.97,-554.66C1750.97,-546.49 1750.97,-537.71 1750.97,-529.18"/>
<polygon fill="black" stroke="black" points="1754.47,-528.96 1750.97,-518.96 1747.47,-528.96 1754.47,-528.96"/>
</g>
</g>
</svg>
