<?xml version="1.0" encoding="UTF-8" standalone="no"?>
<!DOCTYPE svg PUBLIC "-//W3C//DTD SVG 1.1//EN"
 "http://www.w3.org/Graphics/SVG/1.1/DTD/svg11.dtd">
<!-- Generated by graphviz version 2.43.0 (0)
 -->
<!-- Title: tree Pages: 1 -->
<svg width="1533pt" height="971pt"
 viewBox="0.00 0.00 1532.70 970.58" xmlns="http://www.w3.org/2000/svg" xmlns:xlink="http://www.w3.org/1999/xlink">
<g id="graph0" class="graph" transform="scale(1 1) rotate(0) translate(4 966.58)">
<title>tree</title>
<polygon fill="white" stroke="transparent" points="-4,4 -4,-966.58 1528.7,-966.58 1528.7,4 -4,4"/>
<!-- n3 -->
<g id="node1" class="node">
<title>n3</title>
<ellipse fill="#98D2A5" stroke="black" cx="755.73" cy="-925.1" rx="185.94" ry="37.45"/>
<text text-anchor="middle" x="755.73" y="-936.4" font-family="Times,serif" font-size="14.00">escribí</text>
<text text-anchor="middle" x="755.73" y="-921.4" font-family="Times,serif" font-size="14.00">vmis1s0 (root)</text>
<text text-anchor="middle" x="755.73" y="-906.4" font-family="Times,serif" font-size="14.00">rep=no, t=no, r=no, m=yes, c=no</text>
</g>
<!-- n1 -->
<g id="node2" class="node">
<title>n1</title>
<ellipse fill="none" stroke="black" cx="181.73" cy="-814.15" rx="181.95" ry="37.45"/>
<text text-anchor="middle" x="181.73" y="-825.45" font-family="Times,serif" font-size="14.00">Antes</text>
<text text-anchor="middle" x="181.73" y="-810.45" font-family="Times,serif" font-size="14.00">rg (advmod)</text>
<text text-anchor="middle" x="181.73" y="-795.45" font-family="Times,serif" font-size="14.00">rep=no, t=no, r=no, m=no, c=no</text>
</g>
<!-- n3&#45;&gt;n1 -->
<g id="edge1" class="edge">
<title>n3&#45;&gt;n1</title>
<path fill="none" stroke="black" d="M621.98,-898.97C548.17,-885.07 454.87,-867.45 371.73,-851.63 355.66,-848.57 338.83,-845.35 322.11,-842.15"/>
<polygon fill="black" stroke="black" points="322.77,-838.71 312.29,-840.27 321.45,-845.59 322.77,-838.71"/>
</g>
<!-- n2 -->
<g id="node3" class="node">
<title>n2</title>
<ellipse fill="none" stroke="black" cx="562.73" cy="-814.15" rx="181.95" ry="37.45"/>
<text text-anchor="middle" x="562.73" y="-825.45" font-family="Times,serif" font-size="14.00">ya</text>
<text text-anchor="middle" x="562.73" y="-810.45" font-family="Times,serif" font-size="14.00">rg (advmod)</text>
<text text-anchor="middle" x="562.73" y="-795.45" font-family="Times,serif" font-size="14.00">rep=no, t=no, r=no, m=no, c=no</text>
</g>
<!-- n3&#45;&gt;n2 -->
<g id="edge2" class="edge">
<title>n3&#45;&gt;n2</title>
<path fill="none" stroke="black" d="M694.66,-889.63C674.94,-878.5 652.93,-866.07 632.62,-854.61"/>
<polygon fill="black" stroke="black" points="634.16,-851.45 623.73,-849.59 630.71,-857.55 634.16,-851.45"/>
</g>
<!-- n5 -->
<g id="node4" class="node">
<title>n5</title>
<ellipse fill="#98D2A5" stroke="black" cx="948.73" cy="-814.15" rx="185.94" ry="37.45"/>
<text text-anchor="middle" x="948.73" y="-825.45" font-family="Times,serif" font-size="14.00">cuento</text>
<text text-anchor="middle" x="948.73" y="-810.45" font-family="Times,serif" font-size="14.00">ncms000 (dobj)</text>
<text text-anchor="middle" x="948.73" y="-795.45" font-family="Times,serif" font-size="14.00">rep=no, t=no, r=no, m=yes, c=no</text>
</g>
<!-- n3&#45;&gt;n5 -->
<g id="edge3" class="edge">
<title>n3&#45;&gt;n5</title>
<path fill="none" stroke="black" d="M816.79,-889.63C836.51,-878.5 858.53,-866.07 878.84,-854.61"/>
<polygon fill="black" stroke="black" points="880.74,-857.55 887.73,-849.59 877.3,-851.45 880.74,-857.55"/>
</g>
<!-- n14 -->
<g id="node5" class="node">
<title>n14</title>
<ellipse fill="none" stroke="black" cx="1334.73" cy="-814.15" rx="181.95" ry="37.45"/>
<text text-anchor="middle" x="1334.73" y="-825.45" font-family="Times,serif" font-size="14.00">.</text>
<text text-anchor="middle" x="1334.73" y="-810.45" font-family="Times,serif" font-size="14.00">fp (punct)</text>
<text text-anchor="middle" x="1334.73" y="-795.45" font-family="Times,serif" font-size="14.00">rep=no, t=no, r=no, m=no, c=no</text>
</g>
<!-- n3&#45;&gt;n14 -->
<g id="edge4" class="edge">
<title>n3&#45;&gt;n14</title>
<path fill="none" stroke="black" d="M889.98,-899.16C964.7,-885.25 1059.39,-867.56 1143.73,-851.63 1160.02,-848.55 1177.09,-845.31 1194.04,-842.08"/>
<polygon fill="black" stroke="black" points="1194.83,-845.5 1204,-840.19 1193.52,-838.62 1194.83,-845.5"/>
</g>
<!-- n4 -->
<g id="node6" class="node">
<title>n4</title>
<ellipse fill="#98D2A5" stroke="black" cx="753.73" cy="-703.2" rx="185.94" ry="37.45"/>
<text text-anchor="middle" x="753.73" y="-714.5" font-family="Times,serif" font-size="14.00">un</text>
<text text-anchor="middle" x="753.73" y="-699.5" font-family="Times,serif" font-size="14.00">di0ms0 (det)</text>
<text text-anchor="middle" x="753.73" y="-684.5" font-family="Times,serif" font-size="14.00">rep=no, t=no, r=no, m=yes, c=no</text>
</g>
<!-- n5&#45;&gt;n4 -->
<g id="edge5" class="edge">
<title>n5&#45;&gt;n4</title>
<path fill="none" stroke="black" d="M887.03,-778.68C867.1,-767.54 844.86,-755.12 824.34,-743.65"/>
<polygon fill="black" stroke="black" points="825.8,-740.45 815.36,-738.63 822.38,-746.57 825.8,-740.45"/>
</g>
<!-- n6 -->
<g id="node7" class="node">
<title>n6</title>
<ellipse fill="#98D2A5" stroke="black" cx="1143.73" cy="-703.2" rx="185.94" ry="37.45"/>
<text text-anchor="middle" x="1143.73" y="-714.5" font-family="Times,serif" font-size="14.00">protagonizado</text>
<text text-anchor="middle" x="1143.73" y="-699.5" font-family="Times,serif" font-size="14.00">aq0msp (amod)</text>
<text text-anchor="middle" x="1143.73" y="-684.5" font-family="Times,serif" font-size="14.00">rep=no, t=no, r=no, m=yes, c=no</text>
</g>
<!-- n5&#45;&gt;n6 -->
<g id="edge6" class="edge">
<title>n5&#45;&gt;n6</title>
<path fill="none" stroke="black" d="M1010.43,-778.68C1030.35,-767.54 1052.59,-755.12 1073.11,-743.65"/>
<polygon fill="black" stroke="black" points="1075.07,-746.57 1082.09,-738.63 1071.66,-740.45 1075.07,-746.57"/>
</g>
<!-- n7 -->
<g id="node8" class="node">
<title>n7</title>
<ellipse fill="#98D2A5" stroke="black" cx="1143.73" cy="-592.24" rx="185.94" ry="37.45"/>
<text text-anchor="middle" x="1143.73" y="-603.54" font-family="Times,serif" font-size="14.00">por</text>
<text text-anchor="middle" x="1143.73" y="-588.54" font-family="Times,serif" font-size="14.00">sps00 (agent)</text>
<text text-anchor="middle" x="1143.73" y="-573.54" font-family="Times,serif" font-size="14.00">rep=no, t=no, r=no, m=yes, c=no</text>
</g>
<!-- n6&#45;&gt;n7 -->
<g id="edge7" class="edge">
<title>n6&#45;&gt;n7</title>
<path fill="none" stroke="black" d="M1143.73,-665.61C1143.73,-657.44 1143.73,-648.66 1143.73,-640.13"/>
<polygon fill="black" stroke="black" points="1147.23,-639.92 1143.73,-629.92 1140.23,-639.92 1147.23,-639.92"/>
</g>
<!-- n9 -->
<g id="node9" class="node">
<title>n9</title>
<ellipse fill="#98D2A5" stroke="black" cx="1143.73" cy="-481.29" rx="185.94" ry="37.45"/>
<text text-anchor="middle" x="1143.73" y="-492.59" font-family="Times,serif" font-size="14.00">personaje</text>
<text text-anchor="middle" x="1143.73" y="-477.59" font-family="Times,serif" font-size="14.00">ncms000 (pobj)</text>
<text text-anchor="middle" x="1143.73" y="-462.59" font-family="Times,serif" font-size="14.00">rep=no, t=no, r=no, m=yes, c=no</text>
</g>
<!-- n7&#45;&gt;n9 -->
<g id="edge8" class="edge">
<title>n7&#45;&gt;n9</title>
<path fill="none" stroke="black" d="M1143.73,-554.66C1143.73,-546.49 1143.73,-537.71 1143.73,-529.18"/>
<polygon fill="black" stroke="black" points="1147.23,-528.96 1143.73,-518.96 1140.23,-528.96 1147.23,-528.96"/>
</g>
<!-- n8 -->
<g id="node10" class="node">
<title>n8</title>
<ellipse fill="#98D2A5" stroke="black" cx="948.73" cy="-370.34" rx="185.94" ry="37.45"/>
<text text-anchor="middle" x="948.73" y="-381.64" font-family="Times,serif" font-size="14.00">un</text>
<text text-anchor="middle" x="948.73" y="-366.64" font-family="Times,serif" font-size="14.00">di0ms0 (det)</text>
<text text-anchor="middle" x="948.73" y="-351.64" font-family="Times,serif" font-size="14.00">rep=no, t=no, r=no, m=yes, c=no</text>
</g>
<!-- n9&#45;&gt;n8 -->
<g id="edge9" class="edge">
<title>n9&#45;&gt;n8</title>
<path fill="none" stroke="black" d="M1082.03,-445.82C1062.1,-434.68 1039.86,-422.26 1019.34,-410.79"/>
<polygon fill="black" stroke="black" points="1020.8,-407.59 1010.36,-405.77 1017.38,-413.71 1020.8,-407.59"/>
</g>
<!-- n10 -->
<g id="node11" class="node">
<title>n10</title>
<ellipse fill="#98D2A5" stroke="black" cx="1338.73" cy="-370.34" rx="185.94" ry="37.45"/>
<text text-anchor="middle" x="1338.73" y="-381.64" font-family="Times,serif" font-size="14.00">con</text>
<text text-anchor="middle" x="1338.73" y="-366.64" font-family="Times,serif" font-size="14.00">sps00 (prepn)</text>
<text text-anchor="middle" x="1338.73" y="-351.64" font-family="Times,serif" font-size="14.00">rep=no, t=no, r=no, m=yes, c=no</text>
</g>
<!-- n9&#45;&gt;n10 -->
<g id="edge10" class="edge">
<title>n9&#45;&gt;n10</title>
<path fill="none" stroke="black" d="M1205.43,-445.82C1225.35,-434.68 1247.59,-422.26 1268.11,-410.79"/>
<polygon fill="black" stroke="black" points="1270.07,-413.71 1277.09,-405.77 1266.66,-407.59 1270.07,-413.71"/>
</g>
<!-- n11 -->
<g id="node12" class="node">
<title>n11</title>
<ellipse fill="#98D2A5" stroke="black" cx="1338.73" cy="-259.38" rx="185.94" ry="37.45"/>
<text text-anchor="middle" x="1338.73" y="-270.68" font-family="Times,serif" font-size="14.00">síndrome</text>
<text text-anchor="middle" x="1338.73" y="-255.68" font-family="Times,serif" font-size="14.00">ncfs000 (pobj)</text>
<text text-anchor="middle" x="1338.73" y="-240.68" font-family="Times,serif" font-size="14.00">rep=no, t=no, r=no, m=yes, c=no</text>
</g>
<!-- n10&#45;&gt;n11 -->
<g id="edge11" class="edge">
<title>n10&#45;&gt;n11</title>
<path fill="none" stroke="black" d="M1338.73,-332.75C1338.73,-324.58 1338.73,-315.8 1338.73,-307.27"/>
<polygon fill="black" stroke="black" points="1342.23,-307.06 1338.73,-297.06 1335.23,-307.06 1342.23,-307.06"/>
</g>
<!-- n12 -->
<g id="node13" class="node">
<title>n12</title>
<ellipse fill="#98D2A5" stroke="black" cx="1338.73" cy="-148.43" rx="185.94" ry="37.45"/>
<text text-anchor="middle" x="1338.73" y="-159.73" font-family="Times,serif" font-size="14.00">de</text>
<text text-anchor="middle" x="1338.73" y="-144.73" font-family="Times,serif" font-size="14.00">sps00 (prepn)</text>
<text text-anchor="middle" x="1338.73" y="-129.73" font-family="Times,serif" font-size="14.00">rep=no, t=no, r=no, m=yes, c=no</text>
</g>
<!-- n11&#45;&gt;n12 -->
<g id="edge12" class="edge">
<title>n11&#45;&gt;n12</title>
<path fill="none" stroke="black" d="M1338.73,-221.8C1338.73,-213.63 1338.73,-204.85 1338.73,-196.32"/>
<polygon fill="black" stroke="black" points="1342.23,-196.1 1338.73,-186.1 1335.23,-196.1 1342.23,-196.1"/>
</g>
<!-- n13 -->
<g id="node14" class="node">
<title>n13</title>
<ellipse fill="#98D2A5" stroke="black" cx="1338.73" cy="-37.48" rx="185.94" ry="37.45"/>
<text text-anchor="middle" x="1338.73" y="-48.78" font-family="Times,serif" font-size="14.00">Down</text>
<text text-anchor="middle" x="1338.73" y="-33.78" font-family="Times,serif" font-size="14.00">np00000 (pobj)</text>
<text text-anchor="middle" x="1338.73" y="-18.78" font-family="Times,serif" font-size="14.00">rep=no, t=no, r=no, m=yes, c=no</text>
</g>
<!-- n12&#45;&gt;n13 -->
<g id="edge13" class="edge">
<title>n12&#45;&gt;n13</title>
<path fill="none" stroke="black" d="M1338.73,-110.85C1338.73,-102.67 1338.73,-93.89 1338.73,-85.37"/>
<polygon fill="black" stroke="black" points="1342.23,-85.15 1338.73,-75.15 1335.23,-85.15 1342.23,-85.15"/>
</g>
</g>
</svg>
