<?xml version="1.0" encoding="UTF-8" standalone="no"?>
<!DOCTYPE svg PUBLIC "-//W3C//DTD SVG 1.1//EN"
 "http://www.w3.org/Graphics/SVG/1.1/DTD/svg11.dtd">
<!-- Generated by graphviz version 2.43.0 (0)
 -->
<!-- Title: tree Pages: 1 -->
<svg width="1390pt" height="860pt"
 viewBox="0.00 0.00 1389.84 859.63" xmlns="http://www.w3.org/2000/svg" xmlns:xlink="http://www.w3.org/1999/xlink">
<g id="graph0" class="graph" transform="scale(1 1) rotate(0) translate(4 855.63)">
<title>tree</title>
<polygon fill="white" stroke="transparent" points="-4,4 -4,-855.63 1385.84,-855.63 1385.84,4 -4,4"/>
<!-- n3 -->
<g id="node1" class="node">
<title>n3</title>
<ellipse fill="none" stroke="black" cx="392.92" cy="-814.15" rx="181.95" ry="37.45"/>
<text text-anchor="middle" x="392.92" y="-825.45" font-family="Times,serif" font-size="14.00">asume</text>
<text text-anchor="middle" x="392.92" y="-810.45" font-family="Times,serif" font-size="14.00">vmip3s0 (root)</text>
<text text-anchor="middle" x="392.92" y="-795.45" font-family="Times,serif" font-size="14.00">rep=no, t=no, r=no, m=no, c=no</text>
</g>
<!-- n2 -->
<g id="node2" class="node">
<title>n2</title>
<ellipse fill="none" stroke="black" cx="199.92" cy="-703.2" rx="185.94" ry="37.45"/>
<text text-anchor="middle" x="199.92" y="-714.5" font-family="Times,serif" font-size="14.00">Generalitat</text>
<text text-anchor="middle" x="199.92" y="-699.5" font-family="Times,serif" font-size="14.00">np00000 (nsubj)</text>
<text text-anchor="middle" x="199.92" y="-684.5" font-family="Times,serif" font-size="14.00">rep=yes, t=no, r=no, m=no, c=no</text>
</g>
<!-- n3&#45;&gt;n2 -->
<g id="edge1" class="edge">
<title>n3&#45;&gt;n2</title>
<path fill="none" stroke="black" d="M332.12,-778.83C312.39,-767.69 290.34,-755.24 269.99,-743.75"/>
<polygon fill="black" stroke="black" points="271.51,-740.59 261.08,-738.72 268.07,-746.69 271.51,-740.59"/>
</g>
<!-- n4 -->
<g id="node3" class="node">
<title>n4</title>
<ellipse fill="none" stroke="black" cx="587.92" cy="-703.2" rx="181.95" ry="37.45"/>
<text text-anchor="middle" x="587.92" y="-714.5" font-family="Times,serif" font-size="14.00">que</text>
<text text-anchor="middle" x="587.92" y="-699.5" font-family="Times,serif" font-size="14.00">cs (dobj)</text>
<text text-anchor="middle" x="587.92" y="-684.5" font-family="Times,serif" font-size="14.00">rep=no, t=no, r=no, m=no, c=no</text>
</g>
<!-- n3&#45;&gt;n4 -->
<g id="edge2" class="edge">
<title>n3&#45;&gt;n4</title>
<path fill="none" stroke="black" d="M454.35,-778.83C474.47,-767.58 496.98,-755.01 517.7,-743.43"/>
<polygon fill="black" stroke="black" points="519.44,-746.47 526.46,-738.54 516.02,-740.36 519.44,-746.47"/>
</g>
<!-- n1 -->
<g id="node4" class="node">
<title>n1</title>
<ellipse fill="none" stroke="black" cx="195.92" cy="-592.24" rx="185.94" ry="37.45"/>
<text text-anchor="middle" x="195.92" y="-603.54" font-family="Times,serif" font-size="14.00">La</text>
<text text-anchor="middle" x="195.92" y="-588.54" font-family="Times,serif" font-size="14.00">da0fs0 (det)</text>
<text text-anchor="middle" x="195.92" y="-573.54" font-family="Times,serif" font-size="14.00">rep=yes, t=no, r=no, m=no, c=no</text>
</g>
<!-- n2&#45;&gt;n1 -->
<g id="edge3" class="edge">
<title>n2&#45;&gt;n1</title>
<path fill="none" stroke="black" d="M198.58,-665.61C198.28,-657.44 197.95,-648.66 197.64,-640.13"/>
<polygon fill="black" stroke="black" points="201.13,-639.78 197.27,-629.92 194.13,-640.04 201.13,-639.78"/>
</g>
<!-- n8 -->
<g id="node5" class="node">
<title>n8</title>
<ellipse fill="#98D2A5" stroke="black" cx="590.92" cy="-592.24" rx="190.84" ry="37.45"/>
<text text-anchor="middle" x="590.92" y="-603.54" font-family="Times,serif" font-size="14.00">confía</text>
<text text-anchor="middle" x="590.92" y="-588.54" font-family="Times,serif" font-size="14.00">vmip3s0 (cobj)</text>
<text text-anchor="middle" x="590.92" y="-573.54" font-family="Times,serif" font-size="14.00">rep=no, t=no, r=yes, m=yes, c=no</text>
</g>
<!-- n4&#45;&gt;n8 -->
<g id="edge4" class="edge">
<title>n4&#45;&gt;n8</title>
<path fill="none" stroke="black" d="M588.93,-665.61C589.15,-657.44 589.39,-648.66 589.63,-640.13"/>
<polygon fill="black" stroke="black" points="593.13,-640.01 589.91,-629.92 586.14,-639.81 593.13,-640.01"/>
</g>
<!-- n6 -->
<g id="node6" class="node">
<title>n6</title>
<ellipse fill="#98D2A5" stroke="black" cx="190.92" cy="-481.29" rx="190.84" ry="37.45"/>
<text text-anchor="middle" x="190.92" y="-492.59" font-family="Times,serif" font-size="14.00">usuario</text>
<text text-anchor="middle" x="190.92" y="-477.59" font-family="Times,serif" font-size="14.00">ncms000 (nsubj)</text>
<text text-anchor="middle" x="190.92" y="-462.59" font-family="Times,serif" font-size="14.00">rep=no, t=yes, r=no, m=yes, c=no</text>
</g>
<!-- n8&#45;&gt;n6 -->
<g id="edge5" class="edge">
<title>n8&#45;&gt;n6</title>
<path fill="none" stroke="black" d="M481.62,-561.47C428.48,-547 364.51,-529.57 310.12,-514.76"/>
<polygon fill="black" stroke="black" points="311,-511.37 300.44,-512.12 309.16,-518.13 311,-511.37"/>
</g>
<!-- n7 -->
<g id="node7" class="node">
<title>n7</title>
<ellipse fill="#98D2A5" stroke="black" cx="590.92" cy="-481.29" rx="190.84" ry="37.45"/>
<text text-anchor="middle" x="590.92" y="-492.59" font-family="Times,serif" font-size="14.00">no</text>
<text text-anchor="middle" x="590.92" y="-477.59" font-family="Times,serif" font-size="14.00">rn (neg)</text>
<text text-anchor="middle" x="590.92" y="-462.59" font-family="Times,serif" font-size="14.00">rep=no, t=no, r=yes, m=yes, c=no</text>
</g>
<!-- n8&#45;&gt;n7 -->
<g id="edge6" class="edge">
<title>n8&#45;&gt;n7</title>
<path fill="none" stroke="black" d="M590.92,-554.66C590.92,-546.49 590.92,-537.71 590.92,-529.18"/>
<polygon fill="black" stroke="black" points="594.42,-528.96 590.92,-518.96 587.42,-528.96 594.42,-528.96"/>
</g>
<!-- n9 -->
<g id="node8" class="node">
<title>n9</title>
<ellipse fill="#98D2A5" stroke="black" cx="990.92" cy="-481.29" rx="190.84" ry="37.45"/>
<text text-anchor="middle" x="990.92" y="-492.59" font-family="Times,serif" font-size="14.00">en</text>
<text text-anchor="middle" x="990.92" y="-477.59" font-family="Times,serif" font-size="14.00">sps00 (oobj)</text>
<text text-anchor="middle" x="990.92" y="-462.59" font-family="Times,serif" font-size="14.00">rep=no, t=no, r=yes, m=yes, c=no</text>
</g>
<!-- n8&#45;&gt;n9 -->
<g id="edge7" class="edge">
<title>n8&#45;&gt;n9</title>
<path fill="none" stroke="black" d="M700.22,-561.47C753.36,-547 817.33,-529.57 871.71,-514.76"/>
<polygon fill="black" stroke="black" points="872.67,-518.13 881.4,-512.12 870.83,-511.37 872.67,-518.13"/>
</g>
<!-- n5 -->
<g id="node9" class="node">
<title>n5</title>
<ellipse fill="#98D2A5" stroke="black" cx="190.92" cy="-370.34" rx="190.84" ry="37.45"/>
<text text-anchor="middle" x="190.92" y="-381.64" font-family="Times,serif" font-size="14.00">el</text>
<text text-anchor="middle" x="190.92" y="-366.64" font-family="Times,serif" font-size="14.00">da0ms0 (det)</text>
<text text-anchor="middle" x="190.92" y="-351.64" font-family="Times,serif" font-size="14.00">rep=no, t=yes, r=no, m=yes, c=no</text>
</g>
<!-- n6&#45;&gt;n5 -->
<g id="edge8" class="edge">
<title>n6&#45;&gt;n5</title>
<path fill="none" stroke="black" d="M190.92,-443.71C190.92,-435.53 190.92,-426.75 190.92,-418.23"/>
<polygon fill="black" stroke="black" points="194.42,-418.01 190.92,-408.01 187.42,-418.01 194.42,-418.01"/>
</g>
<!-- n11 -->
<g id="node10" class="node">
<title>n11</title>
<ellipse fill="#98D2A5" stroke="black" cx="990.92" cy="-370.34" rx="190.84" ry="37.45"/>
<text text-anchor="middle" x="990.92" y="-381.64" font-family="Times,serif" font-size="14.00">CAC</text>
<text text-anchor="middle" x="990.92" y="-366.64" font-family="Times,serif" font-size="14.00">np00000 (pobj)</text>
<text text-anchor="middle" x="990.92" y="-351.64" font-family="Times,serif" font-size="14.00">rep=no, t=no, r=yes, m=yes, c=no</text>
</g>
<!-- n9&#45;&gt;n11 -->
<g id="edge9" class="edge">
<title>n9&#45;&gt;n11</title>
<path fill="none" stroke="black" d="M990.92,-443.71C990.92,-435.53 990.92,-426.75 990.92,-418.23"/>
<polygon fill="black" stroke="black" points="994.42,-418.01 990.92,-408.01 987.42,-418.01 994.42,-418.01"/>
</g>
<!-- n10 -->
<g id="node11" class="node">
<title>n10</title>
<ellipse fill="#98D2A5" stroke="black" cx="790.92" cy="-259.38" rx="190.84" ry="37.45"/>
<text text-anchor="middle" x="790.92" y="-270.68" font-family="Times,serif" font-size="14.00">los</text>
<text text-anchor="middle" x="790.92" y="-255.68" font-family="Times,serif" font-size="14.00">da0mp0 (det)</text>
<text text-anchor="middle" x="790.92" y="-240.68" font-family="Times,serif" font-size="14.00">rep=no, t=no, r=yes, m=yes, c=no</text>
</g>
<!-- n11&#45;&gt;n10 -->
<g id="edge10" class="edge">
<title>n11&#45;&gt;n10</title>
<path fill="none" stroke="black" d="M927.64,-334.86C907.11,-323.68 884.18,-311.19 863.06,-299.68"/>
<polygon fill="black" stroke="black" points="864.59,-296.53 854.13,-294.82 861.24,-302.68 864.59,-296.53"/>
</g>
<!-- n12 -->
<g id="node12" class="node">
<title>n12</title>
<ellipse fill="#98D2A5" stroke="black" cx="1190.92" cy="-259.38" rx="190.84" ry="37.45"/>
<text text-anchor="middle" x="1190.92" y="-270.68" font-family="Times,serif" font-size="14.00">de</text>
<text text-anchor="middle" x="1190.92" y="-255.68" font-family="Times,serif" font-size="14.00">sps00 (prepn)</text>
<text text-anchor="middle" x="1190.92" y="-240.68" font-family="Times,serif" font-size="14.00">rep=no, t=no, r=yes, m=yes, c=no</text>
</g>
<!-- n11&#45;&gt;n12 -->
<g id="edge11" class="edge">
<title>n11&#45;&gt;n12</title>
<path fill="none" stroke="black" d="M1054.2,-334.86C1074.73,-323.68 1097.65,-311.19 1118.78,-299.68"/>
<polygon fill="black" stroke="black" points="1120.6,-302.68 1127.71,-294.82 1117.25,-296.53 1120.6,-302.68"/>
</g>
<!-- n14 -->
<g id="node13" class="node">
<title>n14</title>
<ellipse fill="#98D2A5" stroke="black" cx="1190.92" cy="-148.43" rx="190.84" ry="37.45"/>
<text text-anchor="middle" x="1190.92" y="-159.73" font-family="Times,serif" font-size="14.00">barrios</text>
<text text-anchor="middle" x="1190.92" y="-144.73" font-family="Times,serif" font-size="14.00">ncmp000 (pobj)</text>
<text text-anchor="middle" x="1190.92" y="-129.73" font-family="Times,serif" font-size="14.00">rep=no, t=no, r=yes, m=yes, c=no</text>
</g>
<!-- n12&#45;&gt;n14 -->
<g id="edge12" class="edge">
<title>n12&#45;&gt;n14</title>
<path fill="none" stroke="black" d="M1190.92,-221.8C1190.92,-213.63 1190.92,-204.85 1190.92,-196.32"/>
<polygon fill="black" stroke="black" points="1194.42,-196.1 1190.92,-186.1 1187.42,-196.1 1194.42,-196.1"/>
</g>
<!-- n13 -->
<g id="node14" class="node">
<title>n13</title>
<ellipse fill="#98D2A5" stroke="black" cx="1190.92" cy="-37.48" rx="190.84" ry="37.45"/>
<text text-anchor="middle" x="1190.92" y="-48.78" font-family="Times,serif" font-size="14.00">los</text>
<text text-anchor="middle" x="1190.92" y="-33.78" font-family="Times,serif" font-size="14.00">da0mp0 (det)</text>
<text text-anchor="middle" x="1190.92" y="-18.78" font-family="Times,serif" font-size="14.00">rep=no, t=no, r=yes, m=yes, c=no</text>
</g>
<!-- n14&#45;&gt;n13 -->
<g id="edge13" class="edge">
<title>n14&#45;&gt;n13</title>
<path fill="none" stroke="black" d="M1190.92,-110.85C1190.92,-102.67 1190.92,-93.89 1190.92,-85.37"/>
<polygon fill="black" stroke="black" points="1194.42,-85.15 1190.92,-75.15 1187.42,-85.15 1194.42,-85.15"/>
</g>
</g>
</svg>
