<?xml version="1.0" encoding="UTF-8" standalone="no"?>
<!DOCTYPE svg PUBLIC "-//W3C//DTD SVG 1.1//EN"
 "http://www.w3.org/Graphics/SVG/1.1/DTD/svg11.dtd">
<!-- Generated by graphviz version 2.43.0 (0)
 -->
<!-- Title: tree Pages: 1 -->
<svg width="1178pt" height="527pt"
 viewBox="0.00 0.00 1177.89 526.77" xmlns="http://www.w3.org/2000/svg" xmlns:xlink="http://www.w3.org/1999/xlink">
<g id="graph0" class="graph" transform="scale(1 1) rotate(0) translate(4 522.77)">
<title>tree</title>
<polygon fill="white" stroke="transparent" points="-4,4 -4,-522.77 1173.89,-522.77 1173.89,4 -4,4"/>
<!-- n3 -->
<g id="node1" class="node">
<title>n3</title>
<ellipse fill="#DA79E8" stroke="black" cx="590.92" cy="-481.29" rx="190.84" ry="37.45"/>
<text text-anchor="middle" x="590.92" y="-492.59" font-family="Times,serif" font-size="14.00">busca</text>
<text text-anchor="middle" x="590.92" y="-477.59" font-family="Times,serif" font-size="14.00">vmip3s0 (root)</text>
<text text-anchor="middle" x="590.92" y="-462.59" font-family="Times,serif" font-size="14.00">rep=no, t=no, r=yes, m=yes, c=no</text>
</g>
<!-- n2 -->
<g id="node2" class="node">
<title>n2</title>
<ellipse fill="#BEDA48" stroke="black" cx="190.92" cy="-370.34" rx="190.84" ry="37.45"/>
<text text-anchor="middle" x="190.92" y="-381.64" font-family="Times,serif" font-size="14.00">policía</text>
<text text-anchor="middle" x="190.92" y="-366.64" font-family="Times,serif" font-size="14.00">nccs000 (nsubj)</text>
<text text-anchor="middle" x="190.92" y="-351.64" font-family="Times,serif" font-size="14.00">rep=no, t=yes, r=no, m=yes, c=no</text>
</g>
<!-- n3&#45;&gt;n2 -->
<g id="edge1" class="edge">
<title>n3&#45;&gt;n2</title>
<path fill="none" stroke="black" d="M481.62,-450.52C428.48,-436.04 364.51,-418.62 310.12,-403.81"/>
<polygon fill="black" stroke="black" points="311,-400.42 300.44,-401.17 309.16,-407.17 311,-400.42"/>
</g>
<!-- n4 -->
<g id="node3" class="node">
<title>n4</title>
<ellipse fill="#DA79E8" stroke="black" cx="590.92" cy="-370.34" rx="190.84" ry="37.45"/>
<text text-anchor="middle" x="590.92" y="-381.64" font-family="Times,serif" font-size="14.00">al</text>
<text text-anchor="middle" x="590.92" y="-366.64" font-family="Times,serif" font-size="14.00">spcms (dobj)</text>
<text text-anchor="middle" x="590.92" y="-351.64" font-family="Times,serif" font-size="14.00">rep=no, t=no, r=yes, m=yes, c=no</text>
</g>
<!-- n3&#45;&gt;n4 -->
<g id="edge2" class="edge">
<title>n3&#45;&gt;n4</title>
<path fill="none" stroke="black" d="M590.92,-443.71C590.92,-435.53 590.92,-426.75 590.92,-418.23"/>
<polygon fill="black" stroke="black" points="594.42,-418.01 590.92,-408.01 587.42,-418.01 594.42,-418.01"/>
</g>
<!-- n10 -->
<g id="node4" class="node">
<title>n10</title>
<ellipse fill="none" stroke="black" cx="981.92" cy="-370.34" rx="181.95" ry="37.45"/>
<text text-anchor="middle" x="981.92" y="-381.64" font-family="Times,serif" font-size="14.00">.</text>
<text text-anchor="middle" x="981.92" y="-366.64" font-family="Times,serif" font-size="14.00">fp (punct)</text>
<text text-anchor="middle" x="981.92" y="-351.64" font-family="Times,serif" font-size="14.00">rep=no, t=no, r=no, m=no, c=no</text>
</g>
<!-- n3&#45;&gt;n10 -->
<g id="edge3" class="edge">
<title>n3&#45;&gt;n10</title>
<path fill="none" stroke="black" d="M698.54,-450.3C750.57,-435.8 813.09,-418.38 866.16,-403.59"/>
<polygon fill="black" stroke="black" points="867.26,-406.92 875.95,-400.87 865.38,-400.18 867.26,-406.92"/>
</g>
<!-- n1 -->
<g id="node5" class="node">
<title>n1</title>
<ellipse fill="#BEDA48" stroke="black" cx="190.92" cy="-259.38" rx="190.84" ry="37.45"/>
<text text-anchor="middle" x="190.92" y="-270.68" font-family="Times,serif" font-size="14.00">La</text>
<text text-anchor="middle" x="190.92" y="-255.68" font-family="Times,serif" font-size="14.00">da0fs0 (det)</text>
<text text-anchor="middle" x="190.92" y="-240.68" font-family="Times,serif" font-size="14.00">rep=no, t=yes, r=no, m=yes, c=no</text>
</g>
<!-- n2&#45;&gt;n1 -->
<g id="edge4" class="edge">
<title>n2&#45;&gt;n1</title>
<path fill="none" stroke="black" d="M190.92,-332.75C190.92,-324.58 190.92,-315.8 190.92,-307.27"/>
<polygon fill="black" stroke="black" points="194.42,-307.06 190.92,-297.06 187.42,-307.06 194.42,-307.06"/>
</g>
<!-- n5 -->
<g id="node6" class="node">
<title>n5</title>
<ellipse fill="#DA79E8" stroke="black" cx="590.92" cy="-259.38" rx="190.84" ry="37.45"/>
<text text-anchor="middle" x="590.92" y="-270.68" font-family="Times,serif" font-size="14.00">tractorista</text>
<text text-anchor="middle" x="590.92" y="-255.68" font-family="Times,serif" font-size="14.00">nccs000 (pobj)</text>
<text text-anchor="middle" x="590.92" y="-240.68" font-family="Times,serif" font-size="14.00">rep=no, t=no, r=yes, m=yes, c=no</text>
</g>
<!-- n4&#45;&gt;n5 -->
<g id="edge5" class="edge">
<title>n4&#45;&gt;n5</title>
<path fill="none" stroke="black" d="M590.92,-332.75C590.92,-324.58 590.92,-315.8 590.92,-307.27"/>
<polygon fill="black" stroke="black" points="594.42,-307.06 590.92,-297.06 587.42,-307.06 594.42,-307.06"/>
</g>
<!-- n6 -->
<g id="node7" class="node">
<title>n6</title>
<ellipse fill="#DA79E8" stroke="black" cx="393.92" cy="-148.43" rx="190.84" ry="37.45"/>
<text text-anchor="middle" x="393.92" y="-159.73" font-family="Times,serif" font-size="14.00">,</text>
<text text-anchor="middle" x="393.92" y="-144.73" font-family="Times,serif" font-size="14.00">fc (punct)</text>
<text text-anchor="middle" x="393.92" y="-129.73" font-family="Times,serif" font-size="14.00">rep=no, t=no, r=yes, m=yes, c=no</text>
</g>
<!-- n5&#45;&gt;n6 -->
<g id="edge6" class="edge">
<title>n5&#45;&gt;n6</title>
<path fill="none" stroke="black" d="M528.59,-223.91C508.37,-212.73 485.79,-200.24 464.98,-188.73"/>
<polygon fill="black" stroke="black" points="466.63,-185.64 456.18,-183.87 463.24,-191.77 466.63,-185.64"/>
</g>
<!-- n9 -->
<g id="node8" class="node">
<title>n9</title>
<ellipse fill="none" stroke="black" cx="788.92" cy="-148.43" rx="185.94" ry="37.45"/>
<text text-anchor="middle" x="788.92" y="-159.73" font-family="Times,serif" font-size="14.00">fugó</text>
<text text-anchor="middle" x="788.92" y="-144.73" font-family="Times,serif" font-size="14.00">vmis3s0 (rcmod)</text>
<text text-anchor="middle" x="788.92" y="-129.73" font-family="Times,serif" font-size="14.00">rep=no, t=no, r=no, m=yes, c=no</text>
</g>
<!-- n5&#45;&gt;n9 -->
<g id="edge7" class="edge">
<title>n5&#45;&gt;n9</title>
<path fill="none" stroke="black" d="M653.57,-223.91C673.89,-212.73 696.59,-200.24 717.5,-188.73"/>
<polygon fill="black" stroke="black" points="719.26,-191.75 726.34,-183.87 715.89,-185.62 719.26,-191.75"/>
</g>
<!-- n7 -->
<g id="node9" class="node">
<title>n7</title>
<ellipse fill="none" stroke="black" cx="593.92" cy="-37.48" rx="185.94" ry="37.45"/>
<text text-anchor="middle" x="593.92" y="-48.78" font-family="Times,serif" font-size="14.00">que</text>
<text text-anchor="middle" x="593.92" y="-33.78" font-family="Times,serif" font-size="14.00">pr0cn000 (nsubj)</text>
<text text-anchor="middle" x="593.92" y="-18.78" font-family="Times,serif" font-size="14.00">rep=no, t=no, r=no, m=yes, c=no</text>
</g>
<!-- n9&#45;&gt;n7 -->
<g id="edge8" class="edge">
<title>n9&#45;&gt;n7</title>
<path fill="none" stroke="black" d="M727.22,-112.96C707.29,-101.82 685.05,-89.4 664.53,-77.93"/>
<polygon fill="black" stroke="black" points="665.99,-74.74 655.55,-72.91 662.57,-80.85 665.99,-74.74"/>
</g>
<!-- n8 -->
<g id="node10" class="node">
<title>n8</title>
<ellipse fill="none" stroke="black" cx="983.92" cy="-37.48" rx="185.94" ry="37.45"/>
<text text-anchor="middle" x="983.92" y="-48.78" font-family="Times,serif" font-size="14.00">se</text>
<text text-anchor="middle" x="983.92" y="-33.78" font-family="Times,serif" font-size="14.00">p0300000 (reflec)</text>
<text text-anchor="middle" x="983.92" y="-18.78" font-family="Times,serif" font-size="14.00">rep=no, t=no, r=no, m=yes, c=no</text>
</g>
<!-- n9&#45;&gt;n8 -->
<g id="edge9" class="edge">
<title>n9&#45;&gt;n8</title>
<path fill="none" stroke="black" d="M850.62,-112.96C870.54,-101.82 892.79,-89.4 913.3,-77.93"/>
<polygon fill="black" stroke="black" points="915.26,-80.85 922.29,-72.91 911.85,-74.74 915.26,-80.85"/>
</g>
</g>
</svg>
