<?xml version="1.0" encoding="UTF-8" standalone="no"?>
<!DOCTYPE svg PUBLIC "-//W3C//DTD SVG 1.1//EN"
 "http://www.w3.org/Graphics/SVG/1.1/DTD/svg11.dtd">
<!-- Generated by graphviz version 2.43.0 (0)
 -->
<!-- Title: tree Pages: 1 -->
<svg width="2750pt" height="638pt"
 viewBox="0.00 0.00 2749.94 637.72" xmlns="http://www.w3.org/2000/svg" xmlns:xlink="http://www.w3.org/1999/xlink">
<g id="graph0" class="graph" transform="scale(1 1) rotate(0) translate(4 633.72)">
<title>tree</title>
<polygon fill="white" stroke="transparent" points="-4,4 -4,-633.72 2745.94,-633.72 2745.94,4 -4,4"/>
<!-- n12 -->
<g id="node1" class="node">
<title>n12</title>
<ellipse fill="none" stroke="black" cx="1865.97" cy="-592.24" rx="185.94" ry="37.45"/>
<text text-anchor="middle" x="1865.97" y="-603.54" font-family="Times,serif" font-size="14.00">y</text>
<text text-anchor="middle" x="1865.97" y="-588.54" font-family="Times,serif" font-size="14.00">cc (root)</text>
<text text-anchor="middle" x="1865.97" y="-573.54" font-family="Times,serif" font-size="14.00">rep=no, t=no, r=no, m=yes, c=no</text>
</g>
<!-- n8 -->
<g id="node2" class="node">
<title>n8</title>
<ellipse fill="#DA79E8" stroke="black" cx="1170.97" cy="-481.29" rx="190.84" ry="37.45"/>
<text text-anchor="middle" x="1170.97" y="-492.59" font-family="Times,serif" font-size="14.00">dio</text>
<text text-anchor="middle" x="1170.97" y="-477.59" font-family="Times,serif" font-size="14.00">vmis3s0 (coord)</text>
<text text-anchor="middle" x="1170.97" y="-462.59" font-family="Times,serif" font-size="14.00">rep=no, t=no, r=yes, m=yes, c=no</text>
</g>
<!-- n12&#45;&gt;n8 -->
<g id="edge1" class="edge">
<title>n12&#45;&gt;n8</title>
<path fill="none" stroke="black" d="M1721.54,-568.6C1606.67,-550.59 1446.19,-525.44 1328.12,-506.93"/>
<polygon fill="black" stroke="black" points="1328.32,-503.42 1317.9,-505.32 1327.24,-510.33 1328.32,-503.42"/>
</g>
<!-- n14 -->
<g id="node3" class="node">
<title>n14</title>
<ellipse fill="none" stroke="black" cx="1865.97" cy="-481.29" rx="185.94" ry="37.45"/>
<text text-anchor="middle" x="1865.97" y="-492.59" font-family="Times,serif" font-size="14.00">es</text>
<text text-anchor="middle" x="1865.97" y="-477.59" font-family="Times,serif" font-size="14.00">vsip3s0 (coord)</text>
<text text-anchor="middle" x="1865.97" y="-462.59" font-family="Times,serif" font-size="14.00">rep=no, t=no, r=no, m=yes, c=no</text>
</g>
<!-- n12&#45;&gt;n14 -->
<g id="edge2" class="edge">
<title>n12&#45;&gt;n14</title>
<path fill="none" stroke="black" d="M1865.97,-554.66C1865.97,-546.49 1865.97,-537.71 1865.97,-529.18"/>
<polygon fill="black" stroke="black" points="1869.47,-528.96 1865.97,-518.96 1862.47,-528.96 1869.47,-528.96"/>
</g>
<!-- n19 -->
<g id="node4" class="node">
<title>n19</title>
<ellipse fill="none" stroke="black" cx="2251.97" cy="-481.29" rx="181.95" ry="37.45"/>
<text text-anchor="middle" x="2251.97" y="-492.59" font-family="Times,serif" font-size="14.00">.</text>
<text text-anchor="middle" x="2251.97" y="-477.59" font-family="Times,serif" font-size="14.00">fp (punct)</text>
<text text-anchor="middle" x="2251.97" y="-462.59" font-family="Times,serif" font-size="14.00">rep=no, t=no, r=no, m=no, c=no</text>
</g>
<!-- n12&#45;&gt;n19 -->
<g id="edge3" class="edge">
<title>n12&#45;&gt;n19</title>
<path fill="none" stroke="black" d="M1971.7,-561.4C2022.97,-546.93 2084.65,-529.52 2137.08,-514.72"/>
<polygon fill="black" stroke="black" points="2138.08,-518.07 2146.75,-511.99 2136.18,-511.34 2138.08,-518.07"/>
</g>
<!-- n1 -->
<g id="node5" class="node">
<title>n1</title>
<ellipse fill="none" stroke="black" cx="185.97" cy="-370.34" rx="185.94" ry="37.45"/>
<text text-anchor="middle" x="185.97" y="-381.64" font-family="Times,serif" font-size="14.00">Tras</text>
<text text-anchor="middle" x="185.97" y="-366.64" font-family="Times,serif" font-size="14.00">sps00 (prepv)</text>
<text text-anchor="middle" x="185.97" y="-351.64" font-family="Times,serif" font-size="14.00">rep=no, t=no, r=no, m=yes, c=no</text>
</g>
<!-- n8&#45;&gt;n1 -->
<g id="edge4" class="edge">
<title>n8&#45;&gt;n1</title>
<path fill="none" stroke="black" d="M991.19,-468.6C830.71,-457.03 589.51,-436.82 380.97,-407.81 362.97,-405.31 344.1,-402.29 325.5,-399.07"/>
<polygon fill="black" stroke="black" points="325.95,-395.6 315.5,-397.32 324.74,-402.49 325.95,-395.6"/>
</g>
<!-- n4 -->
<g id="node6" class="node">
<title>n4</title>
<ellipse fill="none" stroke="black" cx="575.97" cy="-370.34" rx="185.94" ry="37.45"/>
<text text-anchor="middle" x="575.97" y="-381.64" font-family="Times,serif" font-size="14.00">,</text>
<text text-anchor="middle" x="575.97" y="-366.64" font-family="Times,serif" font-size="14.00">fc (punct)</text>
<text text-anchor="middle" x="575.97" y="-351.64" font-family="Times,serif" font-size="14.00">rep=no, t=no, r=no, m=yes, c=no</text>
</g>
<!-- n8&#45;&gt;n4 -->
<g id="edge5" class="edge">
<title>n8&#45;&gt;n4</title>
<path fill="none" stroke="black" d="M1032.56,-455.41C955.52,-441.51 857.9,-423.82 770.97,-407.81 754.4,-404.76 737.05,-401.55 719.82,-398.34"/>
<polygon fill="black" stroke="black" points="720.17,-394.84 709.69,-396.45 718.88,-401.73 720.17,-394.84"/>
</g>
<!-- n6 -->
<g id="node7" class="node">
<title>n6</title>
<ellipse fill="#BEDA48" stroke="black" cx="970.97" cy="-370.34" rx="190.84" ry="37.45"/>
<text text-anchor="middle" x="970.97" y="-381.64" font-family="Times,serif" font-size="14.00">conductor</text>
<text text-anchor="middle" x="970.97" y="-366.64" font-family="Times,serif" font-size="14.00">ncms000 (nsubj)</text>
<text text-anchor="middle" x="970.97" y="-351.64" font-family="Times,serif" font-size="14.00">rep=no, t=yes, r=no, m=yes, c=no</text>
</g>
<!-- n8&#45;&gt;n6 -->
<g id="edge6" class="edge">
<title>n8&#45;&gt;n6</title>
<path fill="none" stroke="black" d="M1107.69,-445.82C1087.16,-434.63 1064.23,-422.14 1043.11,-410.64"/>
<polygon fill="black" stroke="black" points="1044.64,-407.48 1034.18,-405.77 1041.29,-413.63 1044.64,-407.48"/>
</g>
<!-- n7 -->
<g id="node8" class="node">
<title>n7</title>
<ellipse fill="#DA79E8" stroke="black" cx="1370.97" cy="-370.34" rx="190.84" ry="37.45"/>
<text text-anchor="middle" x="1370.97" y="-381.64" font-family="Times,serif" font-size="14.00">se</text>
<text text-anchor="middle" x="1370.97" y="-366.64" font-family="Times,serif" font-size="14.00">p0300000 (reflec)</text>
<text text-anchor="middle" x="1370.97" y="-351.64" font-family="Times,serif" font-size="14.00">rep=no, t=no, r=yes, m=yes, c=no</text>
</g>
<!-- n8&#45;&gt;n7 -->
<g id="edge7" class="edge">
<title>n8&#45;&gt;n7</title>
<path fill="none" stroke="black" d="M1234.25,-445.82C1254.78,-434.63 1277.7,-422.14 1298.83,-410.64"/>
<polygon fill="black" stroke="black" points="1300.65,-413.63 1307.76,-405.77 1297.3,-407.48 1300.65,-413.63"/>
</g>
<!-- n9 -->
<g id="node9" class="node">
<title>n9</title>
<ellipse fill="#DA79E8" stroke="black" cx="1770.97" cy="-370.34" rx="190.84" ry="37.45"/>
<text text-anchor="middle" x="1770.97" y="-381.64" font-family="Times,serif" font-size="14.00">a</text>
<text text-anchor="middle" x="1770.97" y="-366.64" font-family="Times,serif" font-size="14.00">sps00 (prepv)</text>
<text text-anchor="middle" x="1770.97" y="-351.64" font-family="Times,serif" font-size="14.00">rep=no, t=no, r=yes, m=yes, c=no</text>
</g>
<!-- n8&#45;&gt;n9 -->
<g id="edge8" class="edge">
<title>n8&#45;&gt;n9</title>
<path fill="none" stroke="black" d="M1308.89,-455.34C1385.99,-441.38 1483.83,-423.65 1570.97,-407.81 1588.04,-404.71 1605.92,-401.45 1623.68,-398.22"/>
<polygon fill="black" stroke="black" points="1624.32,-401.66 1633.53,-396.42 1623.07,-394.77 1624.32,-401.66"/>
</g>
<!-- n15 -->
<g id="node15" class="node">
<title>n15</title>
<ellipse fill="none" stroke="black" cx="2165.97" cy="-370.34" rx="185.94" ry="37.45"/>
<text text-anchor="middle" x="2165.97" y="-381.64" font-family="Times,serif" font-size="14.00">buscado</text>
<text text-anchor="middle" x="2165.97" y="-366.64" font-family="Times,serif" font-size="14.00">vmp00sm (attr)</text>
<text text-anchor="middle" x="2165.97" y="-351.64" font-family="Times,serif" font-size="14.00">rep=no, t=no, r=no, m=yes, c=no</text>
</g>
<!-- n14&#45;&gt;n15 -->
<g id="edge14" class="edge">
<title>n14&#45;&gt;n15</title>
<path fill="none" stroke="black" d="M1954.36,-448.19C1990.05,-435.22 2031.39,-420.21 2068,-406.92"/>
<polygon fill="black" stroke="black" points="2069.49,-410.1 2077.7,-403.4 2067.1,-403.52 2069.49,-410.1"/>
</g>
<!-- n3 -->
<g id="node10" class="node">
<title>n3</title>
<ellipse fill="none" stroke="black" cx="185.97" cy="-259.38" rx="185.94" ry="37.45"/>
<text text-anchor="middle" x="185.97" y="-270.68" font-family="Times,serif" font-size="14.00">choque</text>
<text text-anchor="middle" x="185.97" y="-255.68" font-family="Times,serif" font-size="14.00">ncms000 (pobj)</text>
<text text-anchor="middle" x="185.97" y="-240.68" font-family="Times,serif" font-size="14.00">rep=no, t=no, r=no, m=yes, c=no</text>
</g>
<!-- n1&#45;&gt;n3 -->
<g id="edge9" class="edge">
<title>n1&#45;&gt;n3</title>
<path fill="none" stroke="black" d="M185.97,-332.75C185.97,-324.58 185.97,-315.8 185.97,-307.27"/>
<polygon fill="black" stroke="black" points="189.47,-307.06 185.97,-297.06 182.47,-307.06 189.47,-307.06"/>
</g>
<!-- n5 -->
<g id="node12" class="node">
<title>n5</title>
<ellipse fill="#BEDA48" stroke="black" cx="970.97" cy="-259.38" rx="190.84" ry="37.45"/>
<text text-anchor="middle" x="970.97" y="-270.68" font-family="Times,serif" font-size="14.00">el</text>
<text text-anchor="middle" x="970.97" y="-255.68" font-family="Times,serif" font-size="14.00">da0ms0 (det)</text>
<text text-anchor="middle" x="970.97" y="-240.68" font-family="Times,serif" font-size="14.00">rep=no, t=yes, r=no, m=yes, c=no</text>
</g>
<!-- n6&#45;&gt;n5 -->
<g id="edge11" class="edge">
<title>n6&#45;&gt;n5</title>
<path fill="none" stroke="black" d="M970.97,-332.75C970.97,-324.58 970.97,-315.8 970.97,-307.27"/>
<polygon fill="black" stroke="black" points="974.47,-307.06 970.97,-297.06 967.47,-307.06 974.47,-307.06"/>
</g>
<!-- n11 -->
<g id="node13" class="node">
<title>n11</title>
<ellipse fill="#DA79E8" stroke="black" cx="1770.97" cy="-259.38" rx="190.84" ry="37.45"/>
<text text-anchor="middle" x="1770.97" y="-270.68" font-family="Times,serif" font-size="14.00">fuga</text>
<text text-anchor="middle" x="1770.97" y="-255.68" font-family="Times,serif" font-size="14.00">ncfs000 (pobj)</text>
<text text-anchor="middle" x="1770.97" y="-240.68" font-family="Times,serif" font-size="14.00">rep=no, t=no, r=yes, m=yes, c=no</text>
</g>
<!-- n9&#45;&gt;n11 -->
<g id="edge12" class="edge">
<title>n9&#45;&gt;n11</title>
<path fill="none" stroke="black" d="M1770.97,-332.75C1770.97,-324.58 1770.97,-315.8 1770.97,-307.27"/>
<polygon fill="black" stroke="black" points="1774.47,-307.06 1770.97,-297.06 1767.47,-307.06 1774.47,-307.06"/>
</g>
<!-- n2 -->
<g id="node11" class="node">
<title>n2</title>
<ellipse fill="none" stroke="black" cx="185.97" cy="-148.43" rx="185.94" ry="37.45"/>
<text text-anchor="middle" x="185.97" y="-159.73" font-family="Times,serif" font-size="14.00">el</text>
<text text-anchor="middle" x="185.97" y="-144.73" font-family="Times,serif" font-size="14.00">da0ms0 (det)</text>
<text text-anchor="middle" x="185.97" y="-129.73" font-family="Times,serif" font-size="14.00">rep=no, t=no, r=no, m=yes, c=no</text>
</g>
<!-- n3&#45;&gt;n2 -->
<g id="edge10" class="edge">
<title>n3&#45;&gt;n2</title>
<path fill="none" stroke="black" d="M185.97,-221.8C185.97,-213.63 185.97,-204.85 185.97,-196.32"/>
<polygon fill="black" stroke="black" points="189.47,-196.1 185.97,-186.1 182.47,-196.1 189.47,-196.1"/>
</g>
<!-- n10 -->
<g id="node14" class="node">
<title>n10</title>
<ellipse fill="#DA79E8" stroke="black" cx="1770.97" cy="-148.43" rx="190.84" ry="37.45"/>
<text text-anchor="middle" x="1770.97" y="-159.73" font-family="Times,serif" font-size="14.00">la</text>
<text text-anchor="middle" x="1770.97" y="-144.73" font-family="Times,serif" font-size="14.00">da0fs0 (det)</text>
<text text-anchor="middle" x="1770.97" y="-129.73" font-family="Times,serif" font-size="14.00">rep=no, t=no, r=yes, m=yes, c=no</text>
</g>
<!-- n11&#45;&gt;n10 -->
<g id="edge13" class="edge">
<title>n11&#45;&gt;n10</title>
<path fill="none" stroke="black" d="M1770.97,-221.8C1770.97,-213.63 1770.97,-204.85 1770.97,-196.32"/>
<polygon fill="black" stroke="black" points="1774.47,-196.1 1770.97,-186.1 1767.47,-196.1 1774.47,-196.1"/>
</g>
<!-- n13 -->
<g id="node16" class="node">
<title>n13</title>
<ellipse fill="none" stroke="black" cx="2165.97" cy="-259.38" rx="185.94" ry="37.45"/>
<text text-anchor="middle" x="2165.97" y="-270.68" font-family="Times,serif" font-size="14.00">actualmente</text>
<text text-anchor="middle" x="2165.97" y="-255.68" font-family="Times,serif" font-size="14.00">rg (advmod)</text>
<text text-anchor="middle" x="2165.97" y="-240.68" font-family="Times,serif" font-size="14.00">rep=no, t=no, r=no, m=yes, c=no</text>
</g>
<!-- n15&#45;&gt;n13 -->
<g id="edge15" class="edge">
<title>n15&#45;&gt;n13</title>
<path fill="none" stroke="black" d="M2165.97,-332.75C2165.97,-324.58 2165.97,-315.8 2165.97,-307.27"/>
<polygon fill="black" stroke="black" points="2169.47,-307.06 2165.97,-297.06 2162.47,-307.06 2169.47,-307.06"/>
</g>
<!-- n16 -->
<g id="node17" class="node">
<title>n16</title>
<ellipse fill="none" stroke="black" cx="2555.97" cy="-259.38" rx="185.94" ry="37.45"/>
<text text-anchor="middle" x="2555.97" y="-270.68" font-family="Times,serif" font-size="14.00">por</text>
<text text-anchor="middle" x="2555.97" y="-255.68" font-family="Times,serif" font-size="14.00">sps00 (agent)</text>
<text text-anchor="middle" x="2555.97" y="-240.68" font-family="Times,serif" font-size="14.00">rep=no, t=no, r=no, m=yes, c=no</text>
</g>
<!-- n15&#45;&gt;n16 -->
<g id="edge16" class="edge">
<title>n15&#45;&gt;n16</title>
<path fill="none" stroke="black" d="M2272.54,-339.56C2324.34,-325.09 2386.71,-307.67 2439.74,-292.85"/>
<polygon fill="black" stroke="black" points="2440.84,-296.18 2449.53,-290.12 2438.96,-289.44 2440.84,-296.18"/>
</g>
<!-- n18 -->
<g id="node18" class="node">
<title>n18</title>
<ellipse fill="none" stroke="black" cx="2555.97" cy="-148.43" rx="185.94" ry="37.45"/>
<text text-anchor="middle" x="2555.97" y="-159.73" font-family="Times,serif" font-size="14.00">policía</text>
<text text-anchor="middle" x="2555.97" y="-144.73" font-family="Times,serif" font-size="14.00">nccs000 (pobj)</text>
<text text-anchor="middle" x="2555.97" y="-129.73" font-family="Times,serif" font-size="14.00">rep=no, t=no, r=no, m=yes, c=no</text>
</g>
<!-- n16&#45;&gt;n18 -->
<g id="edge17" class="edge">
<title>n16&#45;&gt;n18</title>
<path fill="none" stroke="black" d="M2555.97,-221.8C2555.97,-213.63 2555.97,-204.85 2555.97,-196.32"/>
<polygon fill="black" stroke="black" points="2559.47,-196.1 2555.97,-186.1 2552.47,-196.1 2559.47,-196.1"/>
</g>
<!-- n17 -->
<g id="node19" class="node">
<title>n17</title>
<ellipse fill="none" stroke="black" cx="2555.97" cy="-37.48" rx="185.94" ry="37.45"/>
<text text-anchor="middle" x="2555.97" y="-48.78" font-family="Times,serif" font-size="14.00">la</text>
<text text-anchor="middle" x="2555.97" y="-33.78" font-family="Times,serif" font-size="14.00">da0fs0 (det)</text>
<text text-anchor="middle" x="2555.97" y="-18.78" font-family="Times,serif" font-size="14.00">rep=no, t=no, r=no, m=yes, c=no</text>
</g>
<!-- n18&#45;&gt;n17 -->
<g id="edge18" class="edge">
<title>n18&#45;&gt;n17</title>
<path fill="none" stroke="black" d="M2555.97,-110.85C2555.97,-102.67 2555.97,-93.89 2555.97,-85.37"/>
<polygon fill="black" stroke="black" points="2559.47,-85.15 2555.97,-75.15 2552.47,-85.15 2559.47,-85.15"/>
</g>
</g>
</svg>
