<?xml version="1.0" encoding="UTF-8" standalone="no"?>
<!DOCTYPE svg PUBLIC "-//W3C//DTD SVG 1.1//EN"
 "http://www.w3.org/Graphics/SVG/1.1/DTD/svg11.dtd">
<!-- Generated by graphviz version 2.43.0 (0)
 -->
<!-- Title: tree Pages: 1 -->
<svg width="2652pt" height="749pt"
 viewBox="0.00 0.00 2651.89 748.67" xmlns="http://www.w3.org/2000/svg" xmlns:xlink="http://www.w3.org/1999/xlink">
<g id="graph0" class="graph" transform="scale(1 1) rotate(0) translate(4 744.67)">
<title>tree</title>
<polygon fill="white" stroke="transparent" points="-4,4 -4,-744.67 2647.89,-744.67 2647.89,4 -4,4"/>
<!-- n10 -->
<g id="node1" class="node">
<title>n10</title>
<ellipse fill="#98D2A5" stroke="black" cx="1775.92" cy="-703.2" rx="185.94" ry="37.45"/>
<text text-anchor="middle" x="1775.92" y="-714.5" font-family="Times,serif" font-size="14.00">y</text>
<text text-anchor="middle" x="1775.92" y="-699.5" font-family="Times,serif" font-size="14.00">cc (root)</text>
<text text-anchor="middle" x="1775.92" y="-684.5" font-family="Times,serif" font-size="14.00">rep=no, t=no, r=no, m=yes, c=no</text>
</g>
<!-- n2 -->
<g id="node2" class="node">
<title>n2</title>
<ellipse fill="#98D2A5" stroke="black" cx="985.92" cy="-592.24" rx="190.84" ry="37.45"/>
<text text-anchor="middle" x="985.92" y="-603.54" font-family="Times,serif" font-size="14.00">añade</text>
<text text-anchor="middle" x="985.92" y="-588.54" font-family="Times,serif" font-size="14.00">vmip3s0 (coord)</text>
<text text-anchor="middle" x="985.92" y="-573.54" font-family="Times,serif" font-size="14.00">rep=no, t=no, r=yes, m=yes, c=no</text>
</g>
<!-- n10&#45;&gt;n2 -->
<g id="edge1" class="edge">
<title>n10&#45;&gt;n2</title>
<path fill="none" stroke="black" d="M1624.53,-681.32C1488.57,-662.57 1289.43,-635.1 1149.77,-615.84"/>
<polygon fill="black" stroke="black" points="1150.21,-612.37 1139.82,-614.47 1149.25,-619.3 1150.21,-612.37"/>
</g>
<!-- n11 -->
<g id="node3" class="node">
<title>n11</title>
<ellipse fill="#98D2A5" stroke="black" cx="1775.92" cy="-592.24" rx="185.94" ry="37.45"/>
<text text-anchor="middle" x="1775.92" y="-603.54" font-family="Times,serif" font-size="14.00">convierte</text>
<text text-anchor="middle" x="1775.92" y="-588.54" font-family="Times,serif" font-size="14.00">vmip3s0 (coord)</text>
<text text-anchor="middle" x="1775.92" y="-573.54" font-family="Times,serif" font-size="14.00">rep=no, t=no, r=no, m=yes, c=no</text>
</g>
<!-- n10&#45;&gt;n11 -->
<g id="edge2" class="edge">
<title>n10&#45;&gt;n11</title>
<path fill="none" stroke="black" d="M1775.92,-665.61C1775.92,-657.44 1775.92,-648.66 1775.92,-640.13"/>
<polygon fill="black" stroke="black" points="1779.42,-639.92 1775.92,-629.92 1772.42,-639.92 1779.42,-639.92"/>
</g>
<!-- n19 -->
<g id="node4" class="node">
<title>n19</title>
<ellipse fill="none" stroke="black" cx="2161.92" cy="-592.24" rx="181.95" ry="37.45"/>
<text text-anchor="middle" x="2161.92" y="-603.54" font-family="Times,serif" font-size="14.00">.</text>
<text text-anchor="middle" x="2161.92" y="-588.54" font-family="Times,serif" font-size="14.00">fp (punct)</text>
<text text-anchor="middle" x="2161.92" y="-573.54" font-family="Times,serif" font-size="14.00">rep=no, t=no, r=no, m=no, c=no</text>
</g>
<!-- n10&#45;&gt;n19 -->
<g id="edge3" class="edge">
<title>n10&#45;&gt;n19</title>
<path fill="none" stroke="black" d="M1881.65,-672.35C1932.92,-657.88 1994.6,-640.47 2047.03,-625.67"/>
<polygon fill="black" stroke="black" points="2048.03,-629.03 2056.7,-622.94 2046.13,-622.29 2048.03,-629.03"/>
</g>
<!-- n1 -->
<g id="node5" class="node">
<title>n1</title>
<ellipse fill="#98D2A5" stroke="black" cx="190.92" cy="-481.29" rx="190.84" ry="37.45"/>
<text text-anchor="middle" x="190.92" y="-492.59" font-family="Times,serif" font-size="14.00">Esto</text>
<text text-anchor="middle" x="190.92" y="-477.59" font-family="Times,serif" font-size="14.00">pd0ns000 (nsubj)</text>
<text text-anchor="middle" x="190.92" y="-462.59" font-family="Times,serif" font-size="14.00">rep=no, t=yes, r=no, m=yes, c=no</text>
</g>
<!-- n2&#45;&gt;n1 -->
<g id="edge4" class="edge">
<title>n2&#45;&gt;n1</title>
<path fill="none" stroke="black" d="M819.81,-573.67C700.28,-560.38 535.34,-540.71 390.92,-518.77 372.95,-516.04 354.12,-512.93 335.5,-509.7"/>
<polygon fill="black" stroke="black" points="335.94,-506.23 325.48,-507.96 334.73,-513.12 335.94,-506.23"/>
</g>
<!-- n4 -->
<g id="node6" class="node">
<title>n4</title>
<ellipse fill="#98D2A5" stroke="black" cx="590.92" cy="-481.29" rx="190.84" ry="37.45"/>
<text text-anchor="middle" x="590.92" y="-492.59" font-family="Times,serif" font-size="14.00">sabor</text>
<text text-anchor="middle" x="590.92" y="-477.59" font-family="Times,serif" font-size="14.00">ncms000 (dobj)</text>
<text text-anchor="middle" x="590.92" y="-462.59" font-family="Times,serif" font-size="14.00">rep=no, t=no, r=yes, m=yes, c=no</text>
</g>
<!-- n2&#45;&gt;n4 -->
<g id="edge5" class="edge">
<title>n2&#45;&gt;n4</title>
<path fill="none" stroke="black" d="M877.46,-561.33C825.32,-546.95 762.71,-529.68 709.33,-514.95"/>
<polygon fill="black" stroke="black" points="710.05,-511.52 699.48,-512.23 708.19,-518.27 710.05,-511.52"/>
</g>
<!-- n5 -->
<g id="node7" class="node">
<title>n5</title>
<ellipse fill="#98D2A5" stroke="black" cx="985.92" cy="-481.29" rx="185.94" ry="37.45"/>
<text text-anchor="middle" x="985.92" y="-492.59" font-family="Times,serif" font-size="14.00">aún</text>
<text text-anchor="middle" x="985.92" y="-477.59" font-family="Times,serif" font-size="14.00">rg (advmod)</text>
<text text-anchor="middle" x="985.92" y="-462.59" font-family="Times,serif" font-size="14.00">rep=no, t=no, r=no, m=yes, c=no</text>
</g>
<!-- n2&#45;&gt;n5 -->
<g id="edge6" class="edge">
<title>n2&#45;&gt;n5</title>
<path fill="none" stroke="black" d="M985.92,-554.66C985.92,-546.49 985.92,-537.71 985.92,-529.18"/>
<polygon fill="black" stroke="black" points="989.42,-528.96 985.92,-518.96 982.42,-528.96 989.42,-528.96"/>
</g>
<!-- n6 -->
<g id="node8" class="node">
<title>n6</title>
<ellipse fill="#98D2A5" stroke="black" cx="1380.92" cy="-481.29" rx="190.84" ry="37.45"/>
<text text-anchor="middle" x="1380.92" y="-492.59" font-family="Times,serif" font-size="14.00">a</text>
<text text-anchor="middle" x="1380.92" y="-477.59" font-family="Times,serif" font-size="14.00">sps00 (iobj)</text>
<text text-anchor="middle" x="1380.92" y="-462.59" font-family="Times,serif" font-size="14.00">rep=no, t=no, r=yes, m=yes, c=no</text>
</g>
<!-- n2&#45;&gt;n6 -->
<g id="edge7" class="edge">
<title>n2&#45;&gt;n6</title>
<path fill="none" stroke="black" d="M1094.38,-561.33C1146.52,-546.95 1209.13,-529.68 1262.51,-514.95"/>
<polygon fill="black" stroke="black" points="1263.65,-518.27 1272.36,-512.23 1261.79,-511.52 1263.65,-518.27"/>
</g>
<!-- n12 -->
<g id="node13" class="node">
<title>n12</title>
<ellipse fill="#98D2A5" stroke="black" cx="1775.92" cy="-481.29" rx="185.94" ry="37.45"/>
<text text-anchor="middle" x="1775.92" y="-492.59" font-family="Times,serif" font-size="14.00">todo</text>
<text text-anchor="middle" x="1775.92" y="-477.59" font-family="Times,serif" font-size="14.00">pi0ms000 (dobj)</text>
<text text-anchor="middle" x="1775.92" y="-462.59" font-family="Times,serif" font-size="14.00">rep=no, t=no, r=no, m=yes, c=no</text>
</g>
<!-- n11&#45;&gt;n12 -->
<g id="edge12" class="edge">
<title>n11&#45;&gt;n12</title>
<path fill="none" stroke="black" d="M1775.92,-554.66C1775.92,-546.49 1775.92,-537.71 1775.92,-529.18"/>
<polygon fill="black" stroke="black" points="1779.42,-528.96 1775.92,-518.96 1772.42,-528.96 1779.42,-528.96"/>
</g>
<!-- n13 -->
<g id="node14" class="node">
<title>n13</title>
<ellipse fill="#98D2A5" stroke="black" cx="2165.92" cy="-481.29" rx="185.94" ry="37.45"/>
<text text-anchor="middle" x="2165.92" y="-492.59" font-family="Times,serif" font-size="14.00">en</text>
<text text-anchor="middle" x="2165.92" y="-477.59" font-family="Times,serif" font-size="14.00">sps00 (oobj)</text>
<text text-anchor="middle" x="2165.92" y="-462.59" font-family="Times,serif" font-size="14.00">rep=no, t=no, r=no, m=yes, c=no</text>
</g>
<!-- n11&#45;&gt;n13 -->
<g id="edge13" class="edge">
<title>n11&#45;&gt;n13</title>
<path fill="none" stroke="black" d="M1882.49,-561.47C1934.29,-547 1996.66,-529.57 2049.69,-514.76"/>
<polygon fill="black" stroke="black" points="2050.79,-518.09 2059.48,-512.03 2048.91,-511.35 2050.79,-518.09"/>
</g>
<!-- n3 -->
<g id="node9" class="node">
<title>n3</title>
<ellipse fill="#98D2A5" stroke="black" cx="590.92" cy="-370.34" rx="190.84" ry="37.45"/>
<text text-anchor="middle" x="590.92" y="-381.64" font-family="Times,serif" font-size="14.00">más</text>
<text text-anchor="middle" x="590.92" y="-366.64" font-family="Times,serif" font-size="14.00">rg (advmod)</text>
<text text-anchor="middle" x="590.92" y="-351.64" font-family="Times,serif" font-size="14.00">rep=no, t=no, r=yes, m=yes, c=no</text>
</g>
<!-- n4&#45;&gt;n3 -->
<g id="edge8" class="edge">
<title>n4&#45;&gt;n3</title>
<path fill="none" stroke="black" d="M590.92,-443.71C590.92,-435.53 590.92,-426.75 590.92,-418.23"/>
<polygon fill="black" stroke="black" points="594.42,-418.01 590.92,-408.01 587.42,-418.01 594.42,-418.01"/>
</g>
<!-- n8 -->
<g id="node10" class="node">
<title>n8</title>
<ellipse fill="#98D2A5" stroke="black" cx="1380.92" cy="-370.34" rx="190.84" ry="37.45"/>
<text text-anchor="middle" x="1380.92" y="-381.64" font-family="Times,serif" font-size="14.00">ingredientes</text>
<text text-anchor="middle" x="1380.92" y="-366.64" font-family="Times,serif" font-size="14.00">ncmp000 (pobj)</text>
<text text-anchor="middle" x="1380.92" y="-351.64" font-family="Times,serif" font-size="14.00">rep=no, t=no, r=yes, m=yes, c=no</text>
</g>
<!-- n6&#45;&gt;n8 -->
<g id="edge9" class="edge">
<title>n6&#45;&gt;n8</title>
<path fill="none" stroke="black" d="M1380.92,-443.71C1380.92,-435.53 1380.92,-426.75 1380.92,-418.23"/>
<polygon fill="black" stroke="black" points="1384.42,-418.01 1380.92,-408.01 1377.42,-418.01 1384.42,-418.01"/>
</g>
<!-- n7 -->
<g id="node11" class="node">
<title>n7</title>
<ellipse fill="#98D2A5" stroke="black" cx="1077.92" cy="-259.38" rx="190.84" ry="37.45"/>
<text text-anchor="middle" x="1077.92" y="-270.68" font-family="Times,serif" font-size="14.00">los</text>
<text text-anchor="middle" x="1077.92" y="-255.68" font-family="Times,serif" font-size="14.00">da0mp0 (det)</text>
<text text-anchor="middle" x="1077.92" y="-240.68" font-family="Times,serif" font-size="14.00">rep=no, t=no, r=yes, m=yes, c=no</text>
</g>
<!-- n8&#45;&gt;n7 -->
<g id="edge10" class="edge">
<title>n8&#45;&gt;n7</title>
<path fill="none" stroke="black" d="M1291.24,-337.09C1255.36,-324.19 1213.89,-309.28 1177.11,-296.05"/>
<polygon fill="black" stroke="black" points="1177.96,-292.64 1167.37,-292.55 1175.59,-299.23 1177.96,-292.64"/>
</g>
<!-- n9 -->
<g id="node12" class="node">
<title>n9</title>
<ellipse fill="#98D2A5" stroke="black" cx="1477.92" cy="-259.38" rx="190.84" ry="37.45"/>
<text text-anchor="middle" x="1477.92" y="-270.68" font-family="Times,serif" font-size="14.00">anteriores</text>
<text text-anchor="middle" x="1477.92" y="-255.68" font-family="Times,serif" font-size="14.00">aq0cp0 (amod)</text>
<text text-anchor="middle" x="1477.92" y="-240.68" font-family="Times,serif" font-size="14.00">rep=no, t=no, r=yes, m=yes, c=no</text>
</g>
<!-- n8&#45;&gt;n9 -->
<g id="edge11" class="edge">
<title>n8&#45;&gt;n9</title>
<path fill="none" stroke="black" d="M1412.95,-333.36C1421.22,-324.07 1430.22,-313.96 1438.81,-304.31"/>
<polygon fill="black" stroke="black" points="1441.56,-306.49 1445.59,-296.7 1436.33,-301.84 1441.56,-306.49"/>
</g>
<!-- n15 -->
<g id="node15" class="node">
<title>n15</title>
<ellipse fill="#98D2A5" stroke="black" cx="2165.92" cy="-370.34" rx="185.94" ry="37.45"/>
<text text-anchor="middle" x="2165.92" y="-381.64" font-family="Times,serif" font-size="14.00">son</text>
<text text-anchor="middle" x="2165.92" y="-366.64" font-family="Times,serif" font-size="14.00">ncms000 (pobj)</text>
<text text-anchor="middle" x="2165.92" y="-351.64" font-family="Times,serif" font-size="14.00">rep=no, t=no, r=no, m=yes, c=no</text>
</g>
<!-- n13&#45;&gt;n15 -->
<g id="edge14" class="edge">
<title>n13&#45;&gt;n15</title>
<path fill="none" stroke="black" d="M2165.92,-443.71C2165.92,-435.53 2165.92,-426.75 2165.92,-418.23"/>
<polygon fill="black" stroke="black" points="2169.42,-418.01 2165.92,-408.01 2162.42,-418.01 2169.42,-418.01"/>
</g>
<!-- n14 -->
<g id="node16" class="node">
<title>n14</title>
<ellipse fill="#98D2A5" stroke="black" cx="2067.92" cy="-259.38" rx="185.94" ry="37.45"/>
<text text-anchor="middle" x="2067.92" y="-270.68" font-family="Times,serif" font-size="14.00">el</text>
<text text-anchor="middle" x="2067.92" y="-255.68" font-family="Times,serif" font-size="14.00">da0ms0 (det)</text>
<text text-anchor="middle" x="2067.92" y="-240.68" font-family="Times,serif" font-size="14.00">rep=no, t=no, r=no, m=yes, c=no</text>
</g>
<!-- n15&#45;&gt;n14 -->
<g id="edge15" class="edge">
<title>n15&#45;&gt;n14</title>
<path fill="none" stroke="black" d="M2133.56,-333.36C2125.11,-323.97 2115.92,-313.75 2107.16,-304.01"/>
<polygon fill="black" stroke="black" points="2109.54,-301.42 2100.25,-296.32 2104.33,-306.1 2109.54,-301.42"/>
</g>
<!-- n16 -->
<g id="node17" class="node">
<title>n16</title>
<ellipse fill="#98D2A5" stroke="black" cx="2457.92" cy="-259.38" rx="185.94" ry="37.45"/>
<text text-anchor="middle" x="2457.92" y="-270.68" font-family="Times,serif" font-size="14.00">de</text>
<text text-anchor="middle" x="2457.92" y="-255.68" font-family="Times,serif" font-size="14.00">sps00 (prepn)</text>
<text text-anchor="middle" x="2457.92" y="-240.68" font-family="Times,serif" font-size="14.00">rep=no, t=no, r=no, m=yes, c=no</text>
</g>
<!-- n15&#45;&gt;n16 -->
<g id="edge16" class="edge">
<title>n15&#45;&gt;n16</title>
<path fill="none" stroke="black" d="M2252.34,-337.09C2286.85,-324.22 2326.71,-309.34 2362.09,-296.14"/>
<polygon fill="black" stroke="black" points="2363.32,-299.42 2371.46,-292.64 2360.87,-292.86 2363.32,-299.42"/>
</g>
<!-- n18 -->
<g id="node18" class="node">
<title>n18</title>
<ellipse fill="#98D2A5" stroke="black" cx="2457.92" cy="-148.43" rx="185.94" ry="37.45"/>
<text text-anchor="middle" x="2457.92" y="-159.73" font-family="Times,serif" font-size="14.00">marimba</text>
<text text-anchor="middle" x="2457.92" y="-144.73" font-family="Times,serif" font-size="14.00">ncfs000 (pobj)</text>
<text text-anchor="middle" x="2457.92" y="-129.73" font-family="Times,serif" font-size="14.00">rep=no, t=no, r=no, m=yes, c=no</text>
</g>
<!-- n16&#45;&gt;n18 -->
<g id="edge17" class="edge">
<title>n16&#45;&gt;n18</title>
<path fill="none" stroke="black" d="M2457.92,-221.8C2457.92,-213.63 2457.92,-204.85 2457.92,-196.32"/>
<polygon fill="black" stroke="black" points="2461.42,-196.1 2457.92,-186.1 2454.42,-196.1 2461.42,-196.1"/>
</g>
<!-- n17 -->
<g id="node19" class="node">
<title>n17</title>
<ellipse fill="#98D2A5" stroke="black" cx="2457.92" cy="-37.48" rx="185.94" ry="37.45"/>
<text text-anchor="middle" x="2457.92" y="-48.78" font-family="Times,serif" font-size="14.00">la</text>
<text text-anchor="middle" x="2457.92" y="-33.78" font-family="Times,serif" font-size="14.00">da0fs0 (det)</text>
<text text-anchor="middle" x="2457.92" y="-18.78" font-family="Times,serif" font-size="14.00">rep=no, t=no, r=no, m=yes, c=no</text>
</g>
<!-- n18&#45;&gt;n17 -->
<g id="edge18" class="edge">
<title>n18&#45;&gt;n17</title>
<path fill="none" stroke="black" d="M2457.92,-110.85C2457.92,-102.67 2457.92,-93.89 2457.92,-85.37"/>
<polygon fill="black" stroke="black" points="2461.42,-85.15 2457.92,-75.15 2454.42,-85.15 2461.42,-85.15"/>
</g>
</g>
</svg>
