<?xml version="1.0" encoding="UTF-8" standalone="no"?>
<!DOCTYPE svg PUBLIC "-//W3C//DTD SVG 1.1//EN"
 "http://www.w3.org/Graphics/SVG/1.1/DTD/svg11.dtd">
<!-- Generated by graphviz version 2.43.0 (0)
 -->
<!-- Title: tree Pages: 1 -->
<svg width="2590pt" height="1082pt"
 viewBox="0.00 0.00 2589.84 1081.53" xmlns="http://www.w3.org/2000/svg" xmlns:xlink="http://www.w3.org/1999/xlink">
<g id="graph0" class="graph" transform="scale(1 1) rotate(0) translate(4 1077.53)">
<title>tree</title>
<polygon fill="white" stroke="transparent" points="-4,4 -4,-1077.53 2585.84,-1077.53 2585.84,4 -4,4"/>
<!-- n1 -->
<g id="node1" class="node">
<title>n1</title>
<ellipse fill="#98D2A5" stroke="black" cx="987.92" cy="-1036.06" rx="185.94" ry="37.45"/>
<text text-anchor="middle" x="987.92" y="-1047.36" font-family="Times,serif" font-size="14.00">Since</text>
<text text-anchor="middle" x="987.92" y="-1032.36" font-family="Times,serif" font-size="14.00">IN (root)</text>
<text text-anchor="middle" x="987.92" y="-1017.36" font-family="Times,serif" font-size="14.00">rep=no, t=no, r=no, m=yes, c=no</text>
</g>
<!-- n5 -->
<g id="node2" class="node">
<title>n5</title>
<ellipse fill="#98D2A5" stroke="black" cx="790.92" cy="-925.1" rx="190.84" ry="37.45"/>
<text text-anchor="middle" x="790.92" y="-936.4" font-family="Times,serif" font-size="14.00">is</text>
<text text-anchor="middle" x="790.92" y="-921.4" font-family="Times,serif" font-size="14.00">VBZ (SUB)</text>
<text text-anchor="middle" x="790.92" y="-906.4" font-family="Times,serif" font-size="14.00">rep=no, t=no, r=yes, m=yes, c=no</text>
</g>
<!-- n1&#45;&gt;n5 -->
<g id="edge1" class="edge">
<title>n1&#45;&gt;n5</title>
<path fill="none" stroke="black" d="M925.59,-1000.58C905.37,-989.4 882.79,-976.91 861.98,-965.4"/>
<polygon fill="black" stroke="black" points="863.63,-962.32 853.18,-960.54 860.24,-968.44 863.63,-962.32"/>
</g>
<!-- n27 -->
<g id="node3" class="node">
<title>n27</title>
<ellipse fill="#98D2A5" stroke="black" cx="1185.92" cy="-925.1" rx="185.94" ry="37.45"/>
<text text-anchor="middle" x="1185.92" y="-936.4" font-family="Times,serif" font-size="14.00">.</text>
<text text-anchor="middle" x="1185.92" y="-921.4" font-family="Times,serif" font-size="14.00">Fp (P)</text>
<text text-anchor="middle" x="1185.92" y="-906.4" font-family="Times,serif" font-size="14.00">rep=no, t=no, r=no, m=yes, c=no</text>
</g>
<!-- n1&#45;&gt;n27 -->
<g id="edge2" class="edge">
<title>n1&#45;&gt;n27</title>
<path fill="none" stroke="black" d="M1050.3,-1000.73C1070.73,-989.49 1093.58,-976.91 1114.62,-965.34"/>
<polygon fill="black" stroke="black" points="1116.44,-968.33 1123.52,-960.44 1113.07,-962.2 1116.44,-968.33"/>
</g>
<!-- n4 -->
<g id="node4" class="node">
<title>n4</title>
<ellipse fill="#98D2A5" stroke="black" cx="590.92" cy="-814.15" rx="190.84" ry="37.45"/>
<text text-anchor="middle" x="590.92" y="-825.45" font-family="Times,serif" font-size="14.00">machine</text>
<text text-anchor="middle" x="590.92" y="-810.45" font-family="Times,serif" font-size="14.00">NN (SBJ)</text>
<text text-anchor="middle" x="590.92" y="-795.45" font-family="Times,serif" font-size="14.00">rep=no, t=yes, r=no, m=yes, c=no</text>
</g>
<!-- n5&#45;&gt;n4 -->
<g id="edge3" class="edge">
<title>n5&#45;&gt;n4</title>
<path fill="none" stroke="black" d="M727.64,-889.63C707.11,-878.45 684.18,-865.96 663.06,-854.45"/>
<polygon fill="black" stroke="black" points="664.59,-851.3 654.13,-849.59 661.24,-857.44 664.59,-851.3"/>
</g>
<!-- n6 -->
<g id="node5" class="node">
<title>n6</title>
<ellipse fill="#98D2A5" stroke="black" cx="990.92" cy="-814.15" rx="190.84" ry="37.45"/>
<text text-anchor="middle" x="990.92" y="-825.45" font-family="Times,serif" font-size="14.00">separated</text>
<text text-anchor="middle" x="990.92" y="-810.45" font-family="Times,serif" font-size="14.00">VBN (VC)</text>
<text text-anchor="middle" x="990.92" y="-795.45" font-family="Times,serif" font-size="14.00">rep=no, t=no, r=yes, m=yes, c=no</text>
</g>
<!-- n5&#45;&gt;n6 -->
<g id="edge4" class="edge">
<title>n5&#45;&gt;n6</title>
<path fill="none" stroke="black" d="M854.2,-889.63C874.73,-878.45 897.65,-865.96 918.78,-854.45"/>
<polygon fill="black" stroke="black" points="920.6,-857.44 927.71,-849.59 917.25,-851.3 920.6,-857.44"/>
</g>
<!-- n2 -->
<g id="node6" class="node">
<title>n2</title>
<ellipse fill="#98D2A5" stroke="black" cx="190.92" cy="-703.2" rx="190.84" ry="37.45"/>
<text text-anchor="middle" x="190.92" y="-714.5" font-family="Times,serif" font-size="14.00">the</text>
<text text-anchor="middle" x="190.92" y="-699.5" font-family="Times,serif" font-size="14.00">DT (NMOD)</text>
<text text-anchor="middle" x="190.92" y="-684.5" font-family="Times,serif" font-size="14.00">rep=no, t=yes, r=no, m=yes, c=no</text>
</g>
<!-- n4&#45;&gt;n2 -->
<g id="edge5" class="edge">
<title>n4&#45;&gt;n2</title>
<path fill="none" stroke="black" d="M481.62,-783.38C428.48,-768.9 364.51,-751.48 310.12,-736.67"/>
<polygon fill="black" stroke="black" points="311,-733.28 300.44,-734.03 309.16,-740.03 311,-733.28"/>
</g>
<!-- n3 -->
<g id="node7" class="node">
<title>n3</title>
<ellipse fill="#98D2A5" stroke="black" cx="590.92" cy="-703.2" rx="190.84" ry="37.45"/>
<text text-anchor="middle" x="590.92" y="-714.5" font-family="Times,serif" font-size="14.00">virtual</text>
<text text-anchor="middle" x="590.92" y="-699.5" font-family="Times,serif" font-size="14.00">JJ (NMOD)</text>
<text text-anchor="middle" x="590.92" y="-684.5" font-family="Times,serif" font-size="14.00">rep=no, t=yes, r=no, m=yes, c=no</text>
</g>
<!-- n4&#45;&gt;n3 -->
<g id="edge6" class="edge">
<title>n4&#45;&gt;n3</title>
<path fill="none" stroke="black" d="M590.92,-776.57C590.92,-768.39 590.92,-759.61 590.92,-751.09"/>
<polygon fill="black" stroke="black" points="594.42,-750.87 590.92,-740.87 587.42,-750.87 594.42,-750.87"/>
</g>
<!-- n7 -->
<g id="node8" class="node">
<title>n7</title>
<ellipse fill="#98D2A5" stroke="black" cx="990.92" cy="-703.2" rx="190.84" ry="37.45"/>
<text text-anchor="middle" x="990.92" y="-714.5" font-family="Times,serif" font-size="14.00">from</text>
<text text-anchor="middle" x="990.92" y="-699.5" font-family="Times,serif" font-size="14.00">IN (ADV)</text>
<text text-anchor="middle" x="990.92" y="-684.5" font-family="Times,serif" font-size="14.00">rep=no, t=no, r=yes, m=yes, c=no</text>
</g>
<!-- n6&#45;&gt;n7 -->
<g id="edge7" class="edge">
<title>n6&#45;&gt;n7</title>
<path fill="none" stroke="black" d="M990.92,-776.57C990.92,-768.39 990.92,-759.61 990.92,-751.09"/>
<polygon fill="black" stroke="black" points="994.42,-750.87 990.92,-740.87 987.42,-750.87 994.42,-750.87"/>
</g>
<!-- n9 -->
<g id="node9" class="node">
<title>n9</title>
<ellipse fill="#98D2A5" stroke="black" cx="990.92" cy="-592.24" rx="190.84" ry="37.45"/>
<text text-anchor="middle" x="990.92" y="-603.54" font-family="Times,serif" font-size="14.00">rest</text>
<text text-anchor="middle" x="990.92" y="-588.54" font-family="Times,serif" font-size="14.00">NN (PMOD)</text>
<text text-anchor="middle" x="990.92" y="-573.54" font-family="Times,serif" font-size="14.00">rep=no, t=no, r=yes, m=yes, c=no</text>
</g>
<!-- n7&#45;&gt;n9 -->
<g id="edge8" class="edge">
<title>n7&#45;&gt;n9</title>
<path fill="none" stroke="black" d="M990.92,-665.61C990.92,-657.44 990.92,-648.66 990.92,-640.13"/>
<polygon fill="black" stroke="black" points="994.42,-639.92 990.92,-629.92 987.42,-639.92 994.42,-639.92"/>
</g>
<!-- n8 -->
<g id="node10" class="node">
<title>n8</title>
<ellipse fill="#98D2A5" stroke="black" cx="390.92" cy="-481.29" rx="190.84" ry="37.45"/>
<text text-anchor="middle" x="390.92" y="-492.59" font-family="Times,serif" font-size="14.00">the</text>
<text text-anchor="middle" x="390.92" y="-477.59" font-family="Times,serif" font-size="14.00">DT (NMOD)</text>
<text text-anchor="middle" x="390.92" y="-462.59" font-family="Times,serif" font-size="14.00">rep=no, t=no, r=yes, m=yes, c=no</text>
</g>
<!-- n9&#45;&gt;n8 -->
<g id="edge9" class="edge">
<title>n9&#45;&gt;n8</title>
<path fill="none" stroke="black" d="M853,-566.29C775.9,-552.34 678.06,-534.61 590.92,-518.77 573.85,-515.66 555.97,-512.41 538.21,-509.17"/>
<polygon fill="black" stroke="black" points="538.82,-505.73 528.36,-507.38 537.57,-512.61 538.82,-505.73"/>
</g>
<!-- n10 -->
<g id="node11" class="node">
<title>n10</title>
<ellipse fill="#98D2A5" stroke="black" cx="790.92" cy="-481.29" rx="190.84" ry="37.45"/>
<text text-anchor="middle" x="790.92" y="-492.59" font-family="Times,serif" font-size="14.00">of</text>
<text text-anchor="middle" x="790.92" y="-477.59" font-family="Times,serif" font-size="14.00">IN (NMOD)</text>
<text text-anchor="middle" x="790.92" y="-462.59" font-family="Times,serif" font-size="14.00">rep=no, t=no, r=yes, m=yes, c=no</text>
</g>
<!-- n9&#45;&gt;n10 -->
<g id="edge10" class="edge">
<title>n9&#45;&gt;n10</title>
<path fill="none" stroke="black" d="M927.64,-556.77C907.11,-545.59 884.18,-533.1 863.06,-521.59"/>
<polygon fill="black" stroke="black" points="864.59,-518.44 854.13,-516.73 861.24,-524.58 864.59,-518.44"/>
</g>
<!-- n13 -->
<g id="node12" class="node">
<title>n13</title>
<ellipse fill="#98D2A5" stroke="black" cx="1190.92" cy="-481.29" rx="190.84" ry="37.45"/>
<text text-anchor="middle" x="1190.92" y="-492.59" font-family="Times,serif" font-size="14.00">,</text>
<text text-anchor="middle" x="1190.92" y="-477.59" font-family="Times,serif" font-size="14.00">Fc (P)</text>
<text text-anchor="middle" x="1190.92" y="-462.59" font-family="Times,serif" font-size="14.00">rep=no, t=no, r=yes, m=yes, c=no</text>
</g>
<!-- n9&#45;&gt;n13 -->
<g id="edge11" class="edge">
<title>n9&#45;&gt;n13</title>
<path fill="none" stroke="black" d="M1054.2,-556.77C1074.73,-545.59 1097.65,-533.1 1118.78,-521.59"/>
<polygon fill="black" stroke="black" points="1120.6,-524.58 1127.71,-516.73 1117.25,-518.44 1120.6,-524.58"/>
</g>
<!-- n20 -->
<g id="node13" class="node">
<title>n20</title>
<ellipse fill="#98D2A5" stroke="black" cx="1590.92" cy="-481.29" rx="190.84" ry="37.45"/>
<text text-anchor="middle" x="1590.92" y="-492.59" font-family="Times,serif" font-size="14.00">can</text>
<text text-anchor="middle" x="1590.92" y="-477.59" font-family="Times,serif" font-size="14.00">MD (NMOD)</text>
<text text-anchor="middle" x="1590.92" y="-462.59" font-family="Times,serif" font-size="14.00">rep=no, t=no, r=yes, m=yes, c=no</text>
</g>
<!-- n9&#45;&gt;n20 -->
<g id="edge12" class="edge">
<title>n9&#45;&gt;n20</title>
<path fill="none" stroke="black" d="M1128.84,-566.29C1205.94,-552.34 1303.78,-534.61 1390.92,-518.77 1407.99,-515.66 1425.87,-512.41 1443.63,-509.17"/>
<polygon fill="black" stroke="black" points="1444.27,-512.61 1453.48,-507.38 1443.02,-505.73 1444.27,-512.61"/>
</g>
<!-- n12 -->
<g id="node14" class="node">
<title>n12</title>
<ellipse fill="#98D2A5" stroke="black" cx="790.92" cy="-370.34" rx="190.84" ry="37.45"/>
<text text-anchor="middle" x="790.92" y="-381.64" font-family="Times,serif" font-size="14.00">system</text>
<text text-anchor="middle" x="790.92" y="-366.64" font-family="Times,serif" font-size="14.00">NN (PMOD)</text>
<text text-anchor="middle" x="790.92" y="-351.64" font-family="Times,serif" font-size="14.00">rep=no, t=no, r=yes, m=yes, c=no</text>
</g>
<!-- n10&#45;&gt;n12 -->
<g id="edge13" class="edge">
<title>n10&#45;&gt;n12</title>
<path fill="none" stroke="black" d="M790.92,-443.71C790.92,-435.53 790.92,-426.75 790.92,-418.23"/>
<polygon fill="black" stroke="black" points="794.42,-418.01 790.92,-408.01 787.42,-418.01 794.42,-418.01"/>
</g>
<!-- n15 -->
<g id="node16" class="node">
<title>n15</title>
<ellipse fill="#98D2A5" stroke="black" cx="1190.92" cy="-370.34" rx="190.84" ry="37.45"/>
<text text-anchor="middle" x="1190.92" y="-381.64" font-family="Times,serif" font-size="14.00">software</text>
<text text-anchor="middle" x="1190.92" y="-366.64" font-family="Times,serif" font-size="14.00">NN (SBJ)</text>
<text text-anchor="middle" x="1190.92" y="-351.64" font-family="Times,serif" font-size="14.00">rep=no, t=no, r=yes, m=yes, c=no</text>
</g>
<!-- n20&#45;&gt;n15 -->
<g id="edge15" class="edge">
<title>n20&#45;&gt;n15</title>
<path fill="none" stroke="black" d="M1481.62,-450.52C1428.48,-436.04 1364.51,-418.62 1310.12,-403.81"/>
<polygon fill="black" stroke="black" points="1311,-400.42 1300.44,-401.17 1309.16,-407.17 1311,-400.42"/>
</g>
<!-- n21 -->
<g id="node17" class="node">
<title>n21</title>
<ellipse fill="#98D2A5" stroke="black" cx="1590.92" cy="-370.34" rx="190.84" ry="37.45"/>
<text text-anchor="middle" x="1590.92" y="-381.64" font-family="Times,serif" font-size="14.00">not</text>
<text text-anchor="middle" x="1590.92" y="-366.64" font-family="Times,serif" font-size="14.00">RB (ADV)</text>
<text text-anchor="middle" x="1590.92" y="-351.64" font-family="Times,serif" font-size="14.00">rep=no, t=no, r=yes, m=yes, c=no</text>
</g>
<!-- n20&#45;&gt;n21 -->
<g id="edge16" class="edge">
<title>n20&#45;&gt;n21</title>
<path fill="none" stroke="black" d="M1590.92,-443.71C1590.92,-435.53 1590.92,-426.75 1590.92,-418.23"/>
<polygon fill="black" stroke="black" points="1594.42,-418.01 1590.92,-408.01 1587.42,-418.01 1594.42,-418.01"/>
</g>
<!-- n22 -->
<g id="node18" class="node">
<title>n22</title>
<ellipse fill="#98D2A5" stroke="black" cx="1990.92" cy="-370.34" rx="190.84" ry="37.45"/>
<text text-anchor="middle" x="1990.92" y="-381.64" font-family="Times,serif" font-size="14.00">tamper</text>
<text text-anchor="middle" x="1990.92" y="-366.64" font-family="Times,serif" font-size="14.00">VB (VC)</text>
<text text-anchor="middle" x="1990.92" y="-351.64" font-family="Times,serif" font-size="14.00">rep=no, t=no, r=yes, m=yes, c=no</text>
</g>
<!-- n20&#45;&gt;n22 -->
<g id="edge17" class="edge">
<title>n20&#45;&gt;n22</title>
<path fill="none" stroke="black" d="M1700.22,-450.52C1753.36,-436.04 1817.33,-418.62 1871.71,-403.81"/>
<polygon fill="black" stroke="black" points="1872.67,-407.17 1881.4,-401.17 1870.83,-400.42 1872.67,-407.17"/>
</g>
<!-- n11 -->
<g id="node15" class="node">
<title>n11</title>
<ellipse fill="#98D2A5" stroke="black" cx="790.92" cy="-259.38" rx="190.84" ry="37.45"/>
<text text-anchor="middle" x="790.92" y="-270.68" font-family="Times,serif" font-size="14.00">the</text>
<text text-anchor="middle" x="790.92" y="-255.68" font-family="Times,serif" font-size="14.00">DT (NMOD)</text>
<text text-anchor="middle" x="790.92" y="-240.68" font-family="Times,serif" font-size="14.00">rep=no, t=no, r=yes, m=yes, c=no</text>
</g>
<!-- n12&#45;&gt;n11 -->
<g id="edge14" class="edge">
<title>n12&#45;&gt;n11</title>
<path fill="none" stroke="black" d="M790.92,-332.75C790.92,-324.58 790.92,-315.8 790.92,-307.27"/>
<polygon fill="black" stroke="black" points="794.42,-307.06 790.92,-297.06 787.42,-307.06 794.42,-307.06"/>
</g>
<!-- n14 -->
<g id="node19" class="node">
<title>n14</title>
<ellipse fill="#98D2A5" stroke="black" cx="1190.92" cy="-259.38" rx="190.84" ry="37.45"/>
<text text-anchor="middle" x="1190.92" y="-270.68" font-family="Times,serif" font-size="14.00">the</text>
<text text-anchor="middle" x="1190.92" y="-255.68" font-family="Times,serif" font-size="14.00">DT (NMOD)</text>
<text text-anchor="middle" x="1190.92" y="-240.68" font-family="Times,serif" font-size="14.00">rep=no, t=no, r=yes, m=yes, c=no</text>
</g>
<!-- n15&#45;&gt;n14 -->
<g id="edge18" class="edge">
<title>n15&#45;&gt;n14</title>
<path fill="none" stroke="black" d="M1190.92,-332.75C1190.92,-324.58 1190.92,-315.8 1190.92,-307.27"/>
<polygon fill="black" stroke="black" points="1194.42,-307.06 1190.92,-297.06 1187.42,-307.06 1194.42,-307.06"/>
</g>
<!-- n16 -->
<g id="node20" class="node">
<title>n16</title>
<ellipse fill="#98D2A5" stroke="black" cx="1590.92" cy="-259.38" rx="190.84" ry="37.45"/>
<text text-anchor="middle" x="1590.92" y="-270.68" font-family="Times,serif" font-size="14.00">inside</text>
<text text-anchor="middle" x="1590.92" y="-255.68" font-family="Times,serif" font-size="14.00">IN (LOC)</text>
<text text-anchor="middle" x="1590.92" y="-240.68" font-family="Times,serif" font-size="14.00">rep=no, t=no, r=yes, m=yes, c=no</text>
</g>
<!-- n15&#45;&gt;n16 -->
<g id="edge19" class="edge">
<title>n15&#45;&gt;n16</title>
<path fill="none" stroke="black" d="M1300.22,-339.56C1353.36,-325.09 1417.33,-307.67 1471.71,-292.85"/>
<polygon fill="black" stroke="black" points="1472.67,-296.22 1481.4,-290.21 1470.83,-289.46 1472.67,-296.22"/>
</g>
<!-- n23 -->
<g id="node24" class="node">
<title>n23</title>
<ellipse fill="#98D2A5" stroke="black" cx="1990.92" cy="-259.38" rx="190.84" ry="37.45"/>
<text text-anchor="middle" x="1990.92" y="-270.68" font-family="Times,serif" font-size="14.00">with</text>
<text text-anchor="middle" x="1990.92" y="-255.68" font-family="Times,serif" font-size="14.00">IN (ADV)</text>
<text text-anchor="middle" x="1990.92" y="-240.68" font-family="Times,serif" font-size="14.00">rep=no, t=no, r=yes, m=yes, c=no</text>
</g>
<!-- n22&#45;&gt;n23 -->
<g id="edge23" class="edge">
<title>n22&#45;&gt;n23</title>
<path fill="none" stroke="black" d="M1990.92,-332.75C1990.92,-324.58 1990.92,-315.8 1990.92,-307.27"/>
<polygon fill="black" stroke="black" points="1994.42,-307.06 1990.92,-297.06 1987.42,-307.06 1994.42,-307.06"/>
</g>
<!-- n19 -->
<g id="node21" class="node">
<title>n19</title>
<ellipse fill="#98D2A5" stroke="black" cx="1590.92" cy="-148.43" rx="190.84" ry="37.45"/>
<text text-anchor="middle" x="1590.92" y="-159.73" font-family="Times,serif" font-size="14.00">machine</text>
<text text-anchor="middle" x="1590.92" y="-144.73" font-family="Times,serif" font-size="14.00">NN (PMOD)</text>
<text text-anchor="middle" x="1590.92" y="-129.73" font-family="Times,serif" font-size="14.00">rep=no, t=no, r=yes, m=yes, c=no</text>
</g>
<!-- n16&#45;&gt;n19 -->
<g id="edge20" class="edge">
<title>n16&#45;&gt;n19</title>
<path fill="none" stroke="black" d="M1590.92,-221.8C1590.92,-213.63 1590.92,-204.85 1590.92,-196.32"/>
<polygon fill="black" stroke="black" points="1594.42,-196.1 1590.92,-186.1 1587.42,-196.1 1594.42,-196.1"/>
</g>
<!-- n17 -->
<g id="node22" class="node">
<title>n17</title>
<ellipse fill="#98D2A5" stroke="black" cx="1190.92" cy="-37.48" rx="190.84" ry="37.45"/>
<text text-anchor="middle" x="1190.92" y="-48.78" font-family="Times,serif" font-size="14.00">the</text>
<text text-anchor="middle" x="1190.92" y="-33.78" font-family="Times,serif" font-size="14.00">DT (NMOD)</text>
<text text-anchor="middle" x="1190.92" y="-18.78" font-family="Times,serif" font-size="14.00">rep=no, t=no, r=yes, m=yes, c=no</text>
</g>
<!-- n19&#45;&gt;n17 -->
<g id="edge21" class="edge">
<title>n19&#45;&gt;n17</title>
<path fill="none" stroke="black" d="M1481.62,-117.66C1428.48,-103.19 1364.51,-85.76 1310.12,-70.95"/>
<polygon fill="black" stroke="black" points="1311,-67.56 1300.44,-68.31 1309.16,-74.31 1311,-67.56"/>
</g>
<!-- n18 -->
<g id="node23" class="node">
<title>n18</title>
<ellipse fill="#98D2A5" stroke="black" cx="1590.92" cy="-37.48" rx="190.84" ry="37.45"/>
<text text-anchor="middle" x="1590.92" y="-48.78" font-family="Times,serif" font-size="14.00">virtual</text>
<text text-anchor="middle" x="1590.92" y="-33.78" font-family="Times,serif" font-size="14.00">JJ (NMOD)</text>
<text text-anchor="middle" x="1590.92" y="-18.78" font-family="Times,serif" font-size="14.00">rep=no, t=no, r=yes, m=yes, c=no</text>
</g>
<!-- n19&#45;&gt;n18 -->
<g id="edge22" class="edge">
<title>n19&#45;&gt;n18</title>
<path fill="none" stroke="black" d="M1590.92,-110.85C1590.92,-102.67 1590.92,-93.89 1590.92,-85.37"/>
<polygon fill="black" stroke="black" points="1594.42,-85.15 1590.92,-75.15 1587.42,-85.15 1594.42,-85.15"/>
</g>
<!-- n26 -->
<g id="node25" class="node">
<title>n26</title>
<ellipse fill="#98D2A5" stroke="black" cx="1990.92" cy="-148.43" rx="190.84" ry="37.45"/>
<text text-anchor="middle" x="1990.92" y="-159.73" font-family="Times,serif" font-size="14.00">computer</text>
<text text-anchor="middle" x="1990.92" y="-144.73" font-family="Times,serif" font-size="14.00">NN (PMOD)</text>
<text text-anchor="middle" x="1990.92" y="-129.73" font-family="Times,serif" font-size="14.00">rep=no, t=no, r=yes, m=yes, c=no</text>
</g>
<!-- n23&#45;&gt;n26 -->
<g id="edge24" class="edge">
<title>n23&#45;&gt;n26</title>
<path fill="none" stroke="black" d="M1990.92,-221.8C1990.92,-213.63 1990.92,-204.85 1990.92,-196.32"/>
<polygon fill="black" stroke="black" points="1994.42,-196.1 1990.92,-186.1 1987.42,-196.1 1994.42,-196.1"/>
</g>
<!-- n24 -->
<g id="node26" class="node">
<title>n24</title>
<ellipse fill="#98D2A5" stroke="black" cx="1990.92" cy="-37.48" rx="190.84" ry="37.45"/>
<text text-anchor="middle" x="1990.92" y="-48.78" font-family="Times,serif" font-size="14.00">the</text>
<text text-anchor="middle" x="1990.92" y="-33.78" font-family="Times,serif" font-size="14.00">DT (NMOD)</text>
<text text-anchor="middle" x="1990.92" y="-18.78" font-family="Times,serif" font-size="14.00">rep=no, t=no, r=yes, m=yes, c=no</text>
</g>
<!-- n26&#45;&gt;n24 -->
<g id="edge25" class="edge">
<title>n26&#45;&gt;n24</title>
<path fill="none" stroke="black" d="M1990.92,-110.85C1990.92,-102.67 1990.92,-93.89 1990.92,-85.37"/>
<polygon fill="black" stroke="black" points="1994.42,-85.15 1990.92,-75.15 1987.42,-85.15 1994.42,-85.15"/>
</g>
<!-- n25 -->
<g id="node27" class="node">
<title>n25</title>
<ellipse fill="#98D2A5" stroke="black" cx="2390.92" cy="-37.48" rx="190.84" ry="37.45"/>
<text text-anchor="middle" x="2390.92" y="-48.78" font-family="Times,serif" font-size="14.00">host</text>
<text text-anchor="middle" x="2390.92" y="-33.78" font-family="Times,serif" font-size="14.00">NN (NMOD)</text>
<text text-anchor="middle" x="2390.92" y="-18.78" font-family="Times,serif" font-size="14.00">rep=no, t=no, r=yes, m=yes, c=no</text>
</g>
<!-- n26&#45;&gt;n25 -->
<g id="edge26" class="edge">
<title>n26&#45;&gt;n25</title>
<path fill="none" stroke="black" d="M2100.22,-117.66C2153.36,-103.19 2217.33,-85.76 2271.71,-70.95"/>
<polygon fill="black" stroke="black" points="2272.67,-74.31 2281.4,-68.31 2270.83,-67.56 2272.67,-74.31"/>
</g>
</g>
</svg>
