<?xml version="1.0" encoding="UTF-8" standalone="no"?>
<!DOCTYPE svg PUBLIC "-//W3C//DTD SVG 1.1//EN"
 "http://www.w3.org/Graphics/SVG/1.1/DTD/svg11.dtd">
<!-- Generated by graphviz version 2.43.0 (0)
 -->
<!-- Title: tree Pages: 1 -->
<svg width="2990pt" height="638pt"
 viewBox="0.00 0.00 2989.84 637.72" xmlns="http://www.w3.org/2000/svg" xmlns:xlink="http://www.w3.org/1999/xlink">
<g id="graph0" class="graph" transform="scale(1 1) rotate(0) translate(4 633.72)">
<title>tree</title>
<polygon fill="white" stroke="transparent" points="-4,4 -4,-633.72 2985.84,-633.72 2985.84,4 -4,4"/>
<!-- n2 -->
<g id="node1" class="node">
<title>n2</title>
<ellipse fill="#98D2A5" stroke="black" cx="1190.92" cy="-592.24" rx="190.84" ry="37.45"/>
<text text-anchor="middle" x="1190.92" y="-603.54" font-family="Times,serif" font-size="14.00">means</text>
<text text-anchor="middle" x="1190.92" y="-588.54" font-family="Times,serif" font-size="14.00">VBZ (root)</text>
<text text-anchor="middle" x="1190.92" y="-573.54" font-family="Times,serif" font-size="14.00">rep=no, t=no, r=yes, m=yes, c=no</text>
</g>
<!-- n1 -->
<g id="node2" class="node">
<title>n1</title>
<ellipse fill="#98D2A5" stroke="black" cx="790.92" cy="-481.29" rx="190.84" ry="37.45"/>
<text text-anchor="middle" x="790.92" y="-492.59" font-family="Times,serif" font-size="14.00">This</text>
<text text-anchor="middle" x="790.92" y="-477.59" font-family="Times,serif" font-size="14.00">DT (SBJ)</text>
<text text-anchor="middle" x="790.92" y="-462.59" font-family="Times,serif" font-size="14.00">rep=no, t=yes, r=no, m=yes, c=no</text>
</g>
<!-- n2&#45;&gt;n1 -->
<g id="edge1" class="edge">
<title>n2&#45;&gt;n1</title>
<path fill="none" stroke="black" d="M1081.62,-561.47C1028.48,-547 964.51,-529.57 910.12,-514.76"/>
<polygon fill="black" stroke="black" points="911,-511.37 900.44,-512.12 909.16,-518.13 911,-511.37"/>
</g>
<!-- n12 -->
<g id="node3" class="node">
<title>n12</title>
<ellipse fill="#98D2A5" stroke="black" cx="1190.92" cy="-481.29" rx="190.84" ry="37.45"/>
<text text-anchor="middle" x="1190.92" y="-492.59" font-family="Times,serif" font-size="14.00">can</text>
<text text-anchor="middle" x="1190.92" y="-477.59" font-family="Times,serif" font-size="14.00">MD (OBJ)</text>
<text text-anchor="middle" x="1190.92" y="-462.59" font-family="Times,serif" font-size="14.00">rep=no, t=no, r=yes, m=yes, c=no</text>
</g>
<!-- n2&#45;&gt;n12 -->
<g id="edge2" class="edge">
<title>n2&#45;&gt;n12</title>
<path fill="none" stroke="black" d="M1190.92,-554.66C1190.92,-546.49 1190.92,-537.71 1190.92,-529.18"/>
<polygon fill="black" stroke="black" points="1194.42,-528.96 1190.92,-518.96 1187.42,-528.96 1194.42,-528.96"/>
</g>
<!-- n18 -->
<g id="node4" class="node">
<title>n18</title>
<ellipse fill="#98D2A5" stroke="black" cx="1590.92" cy="-481.29" rx="190.84" ry="37.45"/>
<text text-anchor="middle" x="1590.92" y="-492.59" font-family="Times,serif" font-size="14.00">.</text>
<text text-anchor="middle" x="1590.92" y="-477.59" font-family="Times,serif" font-size="14.00">Fp (P)</text>
<text text-anchor="middle" x="1590.92" y="-462.59" font-family="Times,serif" font-size="14.00">rep=no, t=no, r=yes, m=yes, c=no</text>
</g>
<!-- n2&#45;&gt;n18 -->
<g id="edge3" class="edge">
<title>n2&#45;&gt;n18</title>
<path fill="none" stroke="black" d="M1300.22,-561.47C1353.36,-547 1417.33,-529.57 1471.71,-514.76"/>
<polygon fill="black" stroke="black" points="1472.67,-518.13 1481.4,-512.12 1470.83,-511.37 1472.67,-518.13"/>
</g>
<!-- n3 -->
<g id="node5" class="node">
<title>n3</title>
<ellipse fill="#98D2A5" stroke="black" cx="190.92" cy="-370.34" rx="190.84" ry="37.45"/>
<text text-anchor="middle" x="190.92" y="-381.64" font-family="Times,serif" font-size="14.00">that</text>
<text text-anchor="middle" x="190.92" y="-366.64" font-family="Times,serif" font-size="14.00">WDT (DEP)</text>
<text text-anchor="middle" x="190.92" y="-351.64" font-family="Times,serif" font-size="14.00">rep=no, t=no, r=yes, m=yes, c=no</text>
</g>
<!-- n12&#45;&gt;n3 -->
<g id="edge4" class="edge">
<title>n12&#45;&gt;n3</title>
<path fill="none" stroke="black" d="M1059.74,-454.04C1036.87,-450.13 1013.26,-446.51 990.92,-443.81 725.7,-411.79 656.14,-439.84 390.92,-407.81 371.81,-405.51 351.76,-402.53 332.05,-399.27"/>
<polygon fill="black" stroke="black" points="332.54,-395.8 322.09,-397.59 331.37,-402.7 332.54,-395.8"/>
</g>
<!-- n4 -->
<g id="node6" class="node">
<title>n4</title>
<ellipse fill="#98D2A5" stroke="black" cx="590.92" cy="-370.34" rx="190.84" ry="37.45"/>
<text text-anchor="middle" x="590.92" y="-381.64" font-family="Times,serif" font-size="14.00">,</text>
<text text-anchor="middle" x="590.92" y="-366.64" font-family="Times,serif" font-size="14.00">Fc (P)</text>
<text text-anchor="middle" x="590.92" y="-351.64" font-family="Times,serif" font-size="14.00">rep=no, t=no, r=yes, m=yes, c=no</text>
</g>
<!-- n12&#45;&gt;n4 -->
<g id="edge5" class="edge">
<title>n12&#45;&gt;n4</title>
<path fill="none" stroke="black" d="M1053.48,-455.18C1032.53,-451.36 1011.15,-447.48 990.92,-443.81 902.05,-427.71 879.79,-423.92 790.92,-407.81 773.85,-404.72 755.96,-401.47 738.2,-398.24"/>
<polygon fill="black" stroke="black" points="738.82,-394.79 728.35,-396.45 737.56,-401.68 738.82,-394.79"/>
</g>
<!-- n5 -->
<g id="node7" class="node">
<title>n5</title>
<ellipse fill="#98D2A5" stroke="black" cx="990.92" cy="-370.34" rx="190.84" ry="37.45"/>
<text text-anchor="middle" x="990.92" y="-381.64" font-family="Times,serif" font-size="14.00">for_example</text>
<text text-anchor="middle" x="990.92" y="-366.64" font-family="Times,serif" font-size="14.00">RB (ADV)</text>
<text text-anchor="middle" x="990.92" y="-351.64" font-family="Times,serif" font-size="14.00">rep=no, t=no, r=yes, m=yes, c=no</text>
</g>
<!-- n12&#45;&gt;n5 -->
<g id="edge6" class="edge">
<title>n12&#45;&gt;n5</title>
<path fill="none" stroke="black" d="M1127.64,-445.82C1107.11,-434.63 1084.18,-422.14 1063.06,-410.64"/>
<polygon fill="black" stroke="black" points="1064.59,-407.48 1054.13,-405.77 1061.24,-413.63 1064.59,-407.48"/>
</g>
<!-- n6 -->
<g id="node8" class="node">
<title>n6</title>
<ellipse fill="#98D2A5" stroke="black" cx="1390.92" cy="-370.34" rx="190.84" ry="37.45"/>
<text text-anchor="middle" x="1390.92" y="-381.64" font-family="Times,serif" font-size="14.00">,</text>
<text text-anchor="middle" x="1390.92" y="-366.64" font-family="Times,serif" font-size="14.00">Fc (P)</text>
<text text-anchor="middle" x="1390.92" y="-351.64" font-family="Times,serif" font-size="14.00">rep=no, t=no, r=yes, m=yes, c=no</text>
</g>
<!-- n12&#45;&gt;n6 -->
<g id="edge7" class="edge">
<title>n12&#45;&gt;n6</title>
<path fill="none" stroke="black" d="M1254.2,-445.82C1274.73,-434.63 1297.65,-422.14 1318.78,-410.64"/>
<polygon fill="black" stroke="black" points="1320.6,-413.63 1327.71,-405.77 1317.25,-407.48 1320.6,-413.63"/>
</g>
<!-- n11 -->
<g id="node9" class="node">
<title>n11</title>
<ellipse fill="#98D2A5" stroke="black" cx="1790.92" cy="-370.34" rx="190.84" ry="37.45"/>
<text text-anchor="middle" x="1790.92" y="-381.64" font-family="Times,serif" font-size="14.00">machine</text>
<text text-anchor="middle" x="1790.92" y="-366.64" font-family="Times,serif" font-size="14.00">NN (SBJ)</text>
<text text-anchor="middle" x="1790.92" y="-351.64" font-family="Times,serif" font-size="14.00">rep=no, t=no, r=yes, m=yes, c=no</text>
</g>
<!-- n12&#45;&gt;n11 -->
<g id="edge8" class="edge">
<title>n12&#45;&gt;n11</title>
<path fill="none" stroke="black" d="M1328.35,-455.18C1349.31,-451.36 1370.69,-447.48 1390.92,-443.81 1479.79,-427.71 1502.05,-423.92 1590.92,-407.81 1607.99,-404.72 1625.87,-401.47 1643.64,-398.24"/>
<polygon fill="black" stroke="black" points="1644.27,-401.68 1653.48,-396.45 1643.02,-394.79 1644.27,-401.68"/>
</g>
<!-- n13 -->
<g id="node10" class="node">
<title>n13</title>
<ellipse fill="#98D2A5" stroke="black" cx="2390.92" cy="-370.34" rx="190.84" ry="37.45"/>
<text text-anchor="middle" x="2390.92" y="-381.64" font-family="Times,serif" font-size="14.00">run</text>
<text text-anchor="middle" x="2390.92" y="-366.64" font-family="Times,serif" font-size="14.00">VB (VC)</text>
<text text-anchor="middle" x="2390.92" y="-351.64" font-family="Times,serif" font-size="14.00">rep=no, t=no, r=yes, m=yes, c=no</text>
</g>
<!-- n12&#45;&gt;n13 -->
<g id="edge9" class="edge">
<title>n12&#45;&gt;n13</title>
<path fill="none" stroke="black" d="M1322.09,-454.04C1344.97,-450.13 1368.58,-446.51 1390.92,-443.81 1656.14,-411.79 1724.53,-427.95 1990.92,-407.81 2063.32,-402.34 2143.01,-395.29 2212.07,-388.84"/>
<polygon fill="black" stroke="black" points="2212.55,-392.31 2222.18,-387.89 2211.89,-385.34 2212.55,-392.31"/>
</g>
<!-- n7 -->
<g id="node11" class="node">
<title>n7</title>
<ellipse fill="#98D2A5" stroke="black" cx="990.92" cy="-259.38" rx="190.84" ry="37.45"/>
<text text-anchor="middle" x="990.92" y="-270.68" font-family="Times,serif" font-size="14.00">a</text>
<text text-anchor="middle" x="990.92" y="-255.68" font-family="Times,serif" font-size="14.00">DT (NMOD)</text>
<text text-anchor="middle" x="990.92" y="-240.68" font-family="Times,serif" font-size="14.00">rep=no, t=no, r=yes, m=yes, c=no</text>
</g>
<!-- n11&#45;&gt;n7 -->
<g id="edge10" class="edge">
<title>n11&#45;&gt;n7</title>
<path fill="none" stroke="black" d="M1658.06,-343.37C1635.7,-339.5 1612.69,-335.82 1590.92,-332.86 1414.05,-308.82 1367.79,-320.9 1190.92,-296.86 1172.38,-294.34 1152.94,-291.3 1133.77,-288.06"/>
<polygon fill="black" stroke="black" points="1134.23,-284.59 1123.78,-286.35 1133.05,-291.49 1134.23,-284.59"/>
</g>
<!-- n8 -->
<g id="node12" class="node">
<title>n8</title>
<ellipse fill="#98D2A5" stroke="black" cx="1390.92" cy="-259.38" rx="190.84" ry="37.45"/>
<text text-anchor="middle" x="1390.92" y="-270.68" font-family="Times,serif" font-size="14.00">virtual</text>
<text text-anchor="middle" x="1390.92" y="-255.68" font-family="Times,serif" font-size="14.00">JJ (NMOD)</text>
<text text-anchor="middle" x="1390.92" y="-240.68" font-family="Times,serif" font-size="14.00">rep=no, t=no, r=yes, m=yes, c=no</text>
</g>
<!-- n11&#45;&gt;n8 -->
<g id="edge11" class="edge">
<title>n11&#45;&gt;n8</title>
<path fill="none" stroke="black" d="M1681.62,-339.56C1628.48,-325.09 1564.51,-307.67 1510.12,-292.85"/>
<polygon fill="black" stroke="black" points="1511,-289.46 1500.44,-290.21 1509.16,-296.22 1511,-289.46"/>
</g>
<!-- n9 -->
<g id="node13" class="node">
<title>n9</title>
<ellipse fill="#98D2A5" stroke="black" cx="1790.92" cy="-259.38" rx="190.84" ry="37.45"/>
<text text-anchor="middle" x="1790.92" y="-270.68" font-family="Times,serif" font-size="14.00">MacOS</text>
<text text-anchor="middle" x="1790.92" y="-255.68" font-family="Times,serif" font-size="14.00">NP00V00 (NMOD)</text>
<text text-anchor="middle" x="1790.92" y="-240.68" font-family="Times,serif" font-size="14.00">rep=no, t=no, r=yes, m=yes, c=no</text>
</g>
<!-- n11&#45;&gt;n9 -->
<g id="edge12" class="edge">
<title>n11&#45;&gt;n9</title>
<path fill="none" stroke="black" d="M1790.92,-332.75C1790.92,-324.58 1790.92,-315.8 1790.92,-307.27"/>
<polygon fill="black" stroke="black" points="1794.42,-307.06 1790.92,-297.06 1787.42,-307.06 1794.42,-307.06"/>
</g>
<!-- n10 -->
<g id="node14" class="node">
<title>n10</title>
<ellipse fill="#98D2A5" stroke="black" cx="2190.92" cy="-259.38" rx="190.84" ry="37.45"/>
<text text-anchor="middle" x="2190.92" y="-270.68" font-family="Times,serif" font-size="14.00">virtual</text>
<text text-anchor="middle" x="2190.92" y="-255.68" font-family="Times,serif" font-size="14.00">JJ (NMOD)</text>
<text text-anchor="middle" x="2190.92" y="-240.68" font-family="Times,serif" font-size="14.00">rep=no, t=no, r=yes, m=yes, c=no</text>
</g>
<!-- n11&#45;&gt;n10 -->
<g id="edge13" class="edge">
<title>n11&#45;&gt;n10</title>
<path fill="none" stroke="black" d="M1900.22,-339.56C1953.36,-325.09 2017.33,-307.67 2071.71,-292.85"/>
<polygon fill="black" stroke="black" points="2072.67,-296.22 2081.4,-290.21 2070.83,-289.46 2072.67,-296.22"/>
</g>
<!-- n14 -->
<g id="node15" class="node">
<title>n14</title>
<ellipse fill="#98D2A5" stroke="black" cx="2590.92" cy="-259.38" rx="190.84" ry="37.45"/>
<text text-anchor="middle" x="2590.92" y="-270.68" font-family="Times,serif" font-size="14.00">on</text>
<text text-anchor="middle" x="2590.92" y="-255.68" font-family="Times,serif" font-size="14.00">IN (LOC)</text>
<text text-anchor="middle" x="2590.92" y="-240.68" font-family="Times,serif" font-size="14.00">rep=no, t=no, r=yes, m=yes, c=no</text>
</g>
<!-- n13&#45;&gt;n14 -->
<g id="edge14" class="edge">
<title>n13&#45;&gt;n14</title>
<path fill="none" stroke="black" d="M2454.2,-334.86C2474.73,-323.68 2497.65,-311.19 2518.78,-299.68"/>
<polygon fill="black" stroke="black" points="2520.6,-302.68 2527.71,-294.82 2517.25,-296.53 2520.6,-302.68"/>
</g>
<!-- n17 -->
<g id="node16" class="node">
<title>n17</title>
<ellipse fill="#98D2A5" stroke="black" cx="2590.92" cy="-148.43" rx="190.84" ry="37.45"/>
<text text-anchor="middle" x="2590.92" y="-159.73" font-family="Times,serif" font-size="14.00">PC</text>
<text text-anchor="middle" x="2590.92" y="-144.73" font-family="Times,serif" font-size="14.00">NP00O00 (PMOD)</text>
<text text-anchor="middle" x="2590.92" y="-129.73" font-family="Times,serif" font-size="14.00">rep=no, t=no, r=yes, m=yes, c=no</text>
</g>
<!-- n14&#45;&gt;n17 -->
<g id="edge15" class="edge">
<title>n14&#45;&gt;n17</title>
<path fill="none" stroke="black" d="M2590.92,-221.8C2590.92,-213.63 2590.92,-204.85 2590.92,-196.32"/>
<polygon fill="black" stroke="black" points="2594.42,-196.1 2590.92,-186.1 2587.42,-196.1 2594.42,-196.1"/>
</g>
<!-- n15 -->
<g id="node17" class="node">
<title>n15</title>
<ellipse fill="#98D2A5" stroke="black" cx="2390.92" cy="-37.48" rx="190.84" ry="37.45"/>
<text text-anchor="middle" x="2390.92" y="-48.78" font-family="Times,serif" font-size="14.00">a</text>
<text text-anchor="middle" x="2390.92" y="-33.78" font-family="Times,serif" font-size="14.00">DT (NMOD)</text>
<text text-anchor="middle" x="2390.92" y="-18.78" font-family="Times,serif" font-size="14.00">rep=no, t=no, r=yes, m=yes, c=no</text>
</g>
<!-- n17&#45;&gt;n15 -->
<g id="edge16" class="edge">
<title>n17&#45;&gt;n15</title>
<path fill="none" stroke="black" d="M2527.64,-112.96C2507.11,-101.77 2484.18,-89.28 2463.06,-77.78"/>
<polygon fill="black" stroke="black" points="2464.59,-74.62 2454.13,-72.91 2461.24,-80.77 2464.59,-74.62"/>
</g>
<!-- n16 -->
<g id="node18" class="node">
<title>n16</title>
<ellipse fill="#98D2A5" stroke="black" cx="2790.92" cy="-37.48" rx="190.84" ry="37.45"/>
<text text-anchor="middle" x="2790.92" y="-48.78" font-family="Times,serif" font-size="14.00">physical</text>
<text text-anchor="middle" x="2790.92" y="-33.78" font-family="Times,serif" font-size="14.00">JJ (NMOD)</text>
<text text-anchor="middle" x="2790.92" y="-18.78" font-family="Times,serif" font-size="14.00">rep=no, t=no, r=yes, m=yes, c=no</text>
</g>
<!-- n17&#45;&gt;n16 -->
<g id="edge17" class="edge">
<title>n17&#45;&gt;n16</title>
<path fill="none" stroke="black" d="M2654.2,-112.96C2674.73,-101.77 2697.65,-89.28 2718.78,-77.78"/>
<polygon fill="black" stroke="black" points="2720.6,-80.77 2727.71,-72.91 2717.25,-74.62 2720.6,-80.77"/>
</g>
</g>
</svg>
