<?xml version="1.0" encoding="UTF-8" standalone="no"?>
<!DOCTYPE svg PUBLIC "-//W3C//DTD SVG 1.1//EN"
 "http://www.w3.org/Graphics/SVG/1.1/DTD/svg11.dtd">
<!-- Generated by graphviz version 2.43.0 (0)
 -->
<!-- Title: tree Pages: 1 -->
<svg width="1160pt" height="305pt"
 viewBox="0.00 0.00 1159.94 304.86" xmlns="http://www.w3.org/2000/svg" xmlns:xlink="http://www.w3.org/1999/xlink">
<g id="graph0" class="graph" transform="scale(1 1) rotate(0) translate(4 300.86)">
<title>tree</title>
<polygon fill="white" stroke="transparent" points="-4,4 -4,-300.86 1155.94,-300.86 1155.94,4 -4,4"/>
<!-- n2 -->
<g id="node1" class="node">
<title>n2</title>
<ellipse fill="#98D2A5" stroke="black" cx="575.97" cy="-259.38" rx="185.94" ry="37.45"/>
<text text-anchor="middle" x="575.97" y="-270.68" font-family="Times,serif" font-size="14.00">is</text>
<text text-anchor="middle" x="575.97" y="-255.68" font-family="Times,serif" font-size="14.00">VBZ (root)</text>
<text text-anchor="middle" x="575.97" y="-240.68" font-family="Times,serif" font-size="14.00">rep=no, t=no, r=no, m=yes, c=no</text>
</g>
<!-- n1 -->
<g id="node2" class="node">
<title>n1</title>
<ellipse fill="#98D2A5" stroke="black" cx="185.97" cy="-148.43" rx="185.94" ry="37.45"/>
<text text-anchor="middle" x="185.97" y="-159.73" font-family="Times,serif" font-size="14.00">What</text>
<text text-anchor="middle" x="185.97" y="-144.73" font-family="Times,serif" font-size="14.00">WP (PRD)</text>
<text text-anchor="middle" x="185.97" y="-129.73" font-family="Times,serif" font-size="14.00">rep=no, t=no, r=no, m=yes, c=no</text>
</g>
<!-- n2&#45;&gt;n1 -->
<g id="edge1" class="edge">
<title>n2&#45;&gt;n1</title>
<path fill="none" stroke="black" d="M469.4,-228.61C417.59,-214.14 355.23,-196.71 302.2,-181.9"/>
<polygon fill="black" stroke="black" points="302.98,-178.49 292.41,-179.17 301.1,-185.23 302.98,-178.49"/>
</g>
<!-- n5 -->
<g id="node3" class="node">
<title>n5</title>
<ellipse fill="#98D2A5" stroke="black" cx="575.97" cy="-148.43" rx="185.94" ry="37.45"/>
<text text-anchor="middle" x="575.97" y="-159.73" font-family="Times,serif" font-size="14.00">machine</text>
<text text-anchor="middle" x="575.97" y="-144.73" font-family="Times,serif" font-size="14.00">NN (SBJ)</text>
<text text-anchor="middle" x="575.97" y="-129.73" font-family="Times,serif" font-size="14.00">rep=no, t=no, r=no, m=yes, c=no</text>
</g>
<!-- n2&#45;&gt;n5 -->
<g id="edge2" class="edge">
<title>n2&#45;&gt;n5</title>
<path fill="none" stroke="black" d="M575.97,-221.8C575.97,-213.63 575.97,-204.85 575.97,-196.32"/>
<polygon fill="black" stroke="black" points="579.47,-196.1 575.97,-186.1 572.47,-196.1 579.47,-196.1"/>
</g>
<!-- n6 -->
<g id="node4" class="node">
<title>n6</title>
<ellipse fill="#98D2A5" stroke="black" cx="965.97" cy="-148.43" rx="185.94" ry="37.45"/>
<text text-anchor="middle" x="965.97" y="-159.73" font-family="Times,serif" font-size="14.00">?</text>
<text text-anchor="middle" x="965.97" y="-144.73" font-family="Times,serif" font-size="14.00">Fit (P)</text>
<text text-anchor="middle" x="965.97" y="-129.73" font-family="Times,serif" font-size="14.00">rep=no, t=no, r=no, m=yes, c=no</text>
</g>
<!-- n2&#45;&gt;n6 -->
<g id="edge3" class="edge">
<title>n2&#45;&gt;n6</title>
<path fill="none" stroke="black" d="M682.54,-228.61C734.34,-214.14 796.71,-196.71 849.74,-181.9"/>
<polygon fill="black" stroke="black" points="850.84,-185.23 859.53,-179.17 848.96,-178.49 850.84,-185.23"/>
</g>
<!-- n3 -->
<g id="node5" class="node">
<title>n3</title>
<ellipse fill="#98D2A5" stroke="black" cx="380.97" cy="-37.48" rx="185.94" ry="37.45"/>
<text text-anchor="middle" x="380.97" y="-48.78" font-family="Times,serif" font-size="14.00">a</text>
<text text-anchor="middle" x="380.97" y="-33.78" font-family="Times,serif" font-size="14.00">DT (NMOD)</text>
<text text-anchor="middle" x="380.97" y="-18.78" font-family="Times,serif" font-size="14.00">rep=no, t=no, r=no, m=yes, c=no</text>
</g>
<!-- n5&#45;&gt;n3 -->
<g id="edge4" class="edge">
<title>n5&#45;&gt;n3</title>
<path fill="none" stroke="black" d="M514.27,-112.96C494.34,-101.82 472.1,-89.4 451.58,-77.93"/>
<polygon fill="black" stroke="black" points="453.04,-74.74 442.6,-72.91 449.62,-80.85 453.04,-74.74"/>
</g>
<!-- n4 -->
<g id="node6" class="node">
<title>n4</title>
<ellipse fill="#98D2A5" stroke="black" cx="770.97" cy="-37.48" rx="185.94" ry="37.45"/>
<text text-anchor="middle" x="770.97" y="-48.78" font-family="Times,serif" font-size="14.00">virtual</text>
<text text-anchor="middle" x="770.97" y="-33.78" font-family="Times,serif" font-size="14.00">JJ (NMOD)</text>
<text text-anchor="middle" x="770.97" y="-18.78" font-family="Times,serif" font-size="14.00">rep=no, t=no, r=no, m=yes, c=no</text>
</g>
<!-- n5&#45;&gt;n4 -->
<g id="edge5" class="edge">
<title>n5&#45;&gt;n4</title>
<path fill="none" stroke="black" d="M637.67,-112.96C657.59,-101.82 679.84,-89.4 700.35,-77.93"/>
<polygon fill="black" stroke="black" points="702.31,-80.85 709.34,-72.91 698.9,-74.74 702.31,-80.85"/>
</g>
</g>
</svg>
