<?xml version="1.0" encoding="UTF-8" standalone="no"?>
<!DOCTYPE svg PUBLIC "-//W3C//DTD SVG 1.1//EN"
 "http://www.w3.org/Graphics/SVG/1.1/DTD/svg11.dtd">
<!-- Generated by graphviz version 2.43.0 (0)
 -->
<!-- Title: tree Pages: 1 -->
<svg width="2762pt" height="1082pt"
 viewBox="0.00 0.00 2761.65 1081.53" xmlns="http://www.w3.org/2000/svg" xmlns:xlink="http://www.w3.org/1999/xlink">
<g id="graph0" class="graph" transform="scale(1 1) rotate(0) translate(4 1077.53)">
<title>tree</title>
<polygon fill="white" stroke="transparent" points="-4,4 -4,-1077.53 2757.65,-1077.53 2757.65,4 -4,4"/>
<!-- n5 -->
<g id="node1" class="node">
<title>n5</title>
<ellipse fill="#98D2A5" stroke="black" cx="962.73" cy="-1036.06" rx="190.84" ry="37.45"/>
<text text-anchor="middle" x="962.73" y="-1047.36" font-family="Times,serif" font-size="14.00">can</text>
<text text-anchor="middle" x="962.73" y="-1032.36" font-family="Times,serif" font-size="14.00">MD (root)</text>
<text text-anchor="middle" x="962.73" y="-1017.36" font-family="Times,serif" font-size="14.00">rep=no, t=no, r=yes, m=yes, c=no</text>
</g>
<!-- n1 -->
<g id="node2" class="node">
<title>n1</title>
<ellipse fill="none" stroke="black" cx="181.73" cy="-925.1" rx="181.95" ry="37.45"/>
<text text-anchor="middle" x="181.73" y="-936.4" font-family="Times,serif" font-size="14.00">Additionally</text>
<text text-anchor="middle" x="181.73" y="-921.4" font-family="Times,serif" font-size="14.00">RB (ADV)</text>
<text text-anchor="middle" x="181.73" y="-906.4" font-family="Times,serif" font-size="14.00">rep=no, t=no, r=no, m=no, c=no</text>
</g>
<!-- n5&#45;&gt;n1 -->
<g id="edge1" class="edge">
<title>n5&#45;&gt;n1</title>
<path fill="none" stroke="black" d="M796.38,-1017.61C677.95,-1004.46 515.21,-984.91 372.73,-962.58 355.49,-959.88 337.43,-956.78 319.58,-953.56"/>
<polygon fill="black" stroke="black" points="320.16,-950.11 309.69,-951.76 318.9,-956.99 320.16,-950.11"/>
</g>
<!-- n2 -->
<g id="node3" class="node">
<title>n2</title>
<ellipse fill="#98D2A5" stroke="black" cx="567.73" cy="-925.1" rx="185.94" ry="37.45"/>
<text text-anchor="middle" x="567.73" y="-936.4" font-family="Times,serif" font-size="14.00">,</text>
<text text-anchor="middle" x="567.73" y="-921.4" font-family="Times,serif" font-size="14.00">Fc (P)</text>
<text text-anchor="middle" x="567.73" y="-906.4" font-family="Times,serif" font-size="14.00">rep=no, t=no, r=no, m=yes, c=no</text>
</g>
<!-- n5&#45;&gt;n2 -->
<g id="edge2" class="edge">
<title>n5&#45;&gt;n2</title>
<path fill="none" stroke="black" d="M854.27,-1005.14C801.81,-990.67 738.74,-973.27 685.15,-958.49"/>
<polygon fill="black" stroke="black" points="685.83,-955.05 675.26,-955.76 683.97,-961.8 685.83,-955.05"/>
</g>
<!-- n4 -->
<g id="node4" class="node">
<title>n4</title>
<ellipse fill="#98D2A5" stroke="black" cx="962.73" cy="-925.1" rx="190.84" ry="37.45"/>
<text text-anchor="middle" x="962.73" y="-936.4" font-family="Times,serif" font-size="14.00">machines</text>
<text text-anchor="middle" x="962.73" y="-921.4" font-family="Times,serif" font-size="14.00">NNS (SBJ)</text>
<text text-anchor="middle" x="962.73" y="-906.4" font-family="Times,serif" font-size="14.00">rep=no, t=yes, r=no, m=yes, c=no</text>
</g>
<!-- n5&#45;&gt;n4 -->
<g id="edge3" class="edge">
<title>n5&#45;&gt;n4</title>
<path fill="none" stroke="black" d="M962.73,-998.47C962.73,-990.3 962.73,-981.52 962.73,-972.99"/>
<polygon fill="black" stroke="black" points="966.23,-972.78 962.73,-962.78 959.23,-972.78 966.23,-972.78"/>
</g>
<!-- n6 -->
<g id="node5" class="node">
<title>n6</title>
<ellipse fill="#98D2A5" stroke="black" cx="1362.73" cy="-925.1" rx="190.84" ry="37.45"/>
<text text-anchor="middle" x="1362.73" y="-936.4" font-family="Times,serif" font-size="14.00">perform</text>
<text text-anchor="middle" x="1362.73" y="-921.4" font-family="Times,serif" font-size="14.00">VB (VC)</text>
<text text-anchor="middle" x="1362.73" y="-906.4" font-family="Times,serif" font-size="14.00">rep=no, t=no, r=yes, m=yes, c=no</text>
</g>
<!-- n5&#45;&gt;n6 -->
<g id="edge4" class="edge">
<title>n5&#45;&gt;n6</title>
<path fill="none" stroke="black" d="M1072.03,-1005.28C1125.16,-990.81 1189.13,-973.39 1243.52,-958.57"/>
<polygon fill="black" stroke="black" points="1244.48,-961.94 1253.21,-955.93 1242.64,-955.18 1244.48,-961.94"/>
</g>
<!-- n29 -->
<g id="node6" class="node">
<title>n29</title>
<ellipse fill="#98D2A5" stroke="black" cx="1762.73" cy="-925.1" rx="190.84" ry="37.45"/>
<text text-anchor="middle" x="1762.73" y="-936.4" font-family="Times,serif" font-size="14.00">.</text>
<text text-anchor="middle" x="1762.73" y="-921.4" font-family="Times,serif" font-size="14.00">Fp (P)</text>
<text text-anchor="middle" x="1762.73" y="-906.4" font-family="Times,serif" font-size="14.00">rep=no, t=no, r=yes, m=yes, c=no</text>
</g>
<!-- n5&#45;&gt;n29 -->
<g id="edge5" class="edge">
<title>n5&#45;&gt;n29</title>
<path fill="none" stroke="black" d="M1129.27,-1017.66C1249.88,-1004.4 1416.71,-984.69 1562.73,-962.58 1580.77,-959.85 1599.68,-956.73 1618.38,-953.5"/>
<polygon fill="black" stroke="black" points="1619.19,-956.91 1628.44,-951.74 1617.98,-950.01 1619.19,-956.91"/>
</g>
<!-- n3 -->
<g id="node7" class="node">
<title>n3</title>
<ellipse fill="#98D2A5" stroke="black" cx="962.73" cy="-814.15" rx="190.84" ry="37.45"/>
<text text-anchor="middle" x="962.73" y="-825.45" font-family="Times,serif" font-size="14.00">virtual</text>
<text text-anchor="middle" x="962.73" y="-810.45" font-family="Times,serif" font-size="14.00">JJ (NMOD)</text>
<text text-anchor="middle" x="962.73" y="-795.45" font-family="Times,serif" font-size="14.00">rep=no, t=yes, r=no, m=yes, c=no</text>
</g>
<!-- n4&#45;&gt;n3 -->
<g id="edge6" class="edge">
<title>n4&#45;&gt;n3</title>
<path fill="none" stroke="black" d="M962.73,-887.52C962.73,-879.35 962.73,-870.57 962.73,-862.04"/>
<polygon fill="black" stroke="black" points="966.23,-861.82 962.73,-851.82 959.23,-861.82 966.23,-861.82"/>
</g>
<!-- n8 -->
<g id="node8" class="node">
<title>n8</title>
<ellipse fill="#98D2A5" stroke="black" cx="1362.73" cy="-814.15" rx="190.84" ry="37.45"/>
<text text-anchor="middle" x="1362.73" y="-825.45" font-family="Times,serif" font-size="14.00">tasks</text>
<text text-anchor="middle" x="1362.73" y="-810.45" font-family="Times,serif" font-size="14.00">NNS (OBJ)</text>
<text text-anchor="middle" x="1362.73" y="-795.45" font-family="Times,serif" font-size="14.00">rep=no, t=no, r=yes, m=yes, c=no</text>
</g>
<!-- n6&#45;&gt;n8 -->
<g id="edge7" class="edge">
<title>n6&#45;&gt;n8</title>
<path fill="none" stroke="black" d="M1362.73,-887.52C1362.73,-879.35 1362.73,-870.57 1362.73,-862.04"/>
<polygon fill="black" stroke="black" points="1366.23,-861.82 1362.73,-851.82 1359.23,-861.82 1366.23,-861.82"/>
</g>
<!-- n7 -->
<g id="node9" class="node">
<title>n7</title>
<ellipse fill="#98D2A5" stroke="black" cx="762.73" cy="-703.2" rx="190.84" ry="37.45"/>
<text text-anchor="middle" x="762.73" y="-714.5" font-family="Times,serif" font-size="14.00">specific</text>
<text text-anchor="middle" x="762.73" y="-699.5" font-family="Times,serif" font-size="14.00">JJ (NMOD)</text>
<text text-anchor="middle" x="762.73" y="-684.5" font-family="Times,serif" font-size="14.00">rep=no, t=no, r=yes, m=yes, c=no</text>
</g>
<!-- n8&#45;&gt;n7 -->
<g id="edge8" class="edge">
<title>n8&#45;&gt;n7</title>
<path fill="none" stroke="black" d="M1225.29,-788.04C1204.33,-784.22 1182.96,-780.34 1162.73,-776.67 1073.86,-760.57 1051.6,-756.78 962.73,-740.67 945.66,-737.58 927.77,-734.33 910.01,-731.1"/>
<polygon fill="black" stroke="black" points="910.63,-727.65 900.16,-729.31 909.37,-734.54 910.63,-727.65"/>
</g>
<!-- n9 -->
<g id="node10" class="node">
<title>n9</title>
<ellipse fill="#98D2A5" stroke="black" cx="1162.73" cy="-703.2" rx="190.84" ry="37.45"/>
<text text-anchor="middle" x="1162.73" y="-714.5" font-family="Times,serif" font-size="14.00">considered</text>
<text text-anchor="middle" x="1162.73" y="-699.5" font-family="Times,serif" font-size="14.00">VBN (APPO)</text>
<text text-anchor="middle" x="1162.73" y="-684.5" font-family="Times,serif" font-size="14.00">rep=no, t=no, r=yes, m=yes, c=no</text>
</g>
<!-- n8&#45;&gt;n9 -->
<g id="edge9" class="edge">
<title>n8&#45;&gt;n9</title>
<path fill="none" stroke="black" d="M1299.45,-778.68C1278.92,-767.49 1255.99,-755 1234.87,-743.5"/>
<polygon fill="black" stroke="black" points="1236.39,-740.34 1225.94,-738.63 1233.05,-746.49 1236.39,-740.34"/>
</g>
<!-- n19 -->
<g id="node11" class="node">
<title>n19</title>
<ellipse fill="#98D2A5" stroke="black" cx="1562.73" cy="-703.2" rx="190.84" ry="37.45"/>
<text text-anchor="middle" x="1562.73" y="-714.5" font-family="Times,serif" font-size="14.00">,</text>
<text text-anchor="middle" x="1562.73" y="-699.5" font-family="Times,serif" font-size="14.00">Fc (P)</text>
<text text-anchor="middle" x="1562.73" y="-684.5" font-family="Times,serif" font-size="14.00">rep=no, t=no, r=yes, m=yes, c=no</text>
</g>
<!-- n8&#45;&gt;n19 -->
<g id="edge10" class="edge">
<title>n8&#45;&gt;n19</title>
<path fill="none" stroke="black" d="M1426.01,-778.68C1446.54,-767.49 1469.46,-755 1490.58,-743.5"/>
<polygon fill="black" stroke="black" points="1492.41,-746.49 1499.51,-738.63 1489.06,-740.34 1492.41,-746.49"/>
</g>
<!-- n21 -->
<g id="node12" class="node">
<title>n21</title>
<ellipse fill="#98D2A5" stroke="black" cx="1962.73" cy="-703.2" rx="190.84" ry="37.45"/>
<text text-anchor="middle" x="1962.73" y="-714.5" font-family="Times,serif" font-size="14.00">as</text>
<text text-anchor="middle" x="1962.73" y="-699.5" font-family="Times,serif" font-size="14.00">IN (NMOD)</text>
<text text-anchor="middle" x="1962.73" y="-684.5" font-family="Times,serif" font-size="14.00">rep=no, t=no, r=yes, m=yes, c=no</text>
</g>
<!-- n8&#45;&gt;n21 -->
<g id="edge11" class="edge">
<title>n8&#45;&gt;n21</title>
<path fill="none" stroke="black" d="M1500.65,-788.2C1577.75,-774.24 1675.58,-756.51 1762.73,-740.67 1779.79,-737.57 1797.68,-734.31 1815.44,-731.08"/>
<polygon fill="black" stroke="black" points="1816.08,-734.52 1825.29,-729.28 1814.82,-727.63 1816.08,-734.52"/>
</g>
<!-- n11 -->
<g id="node13" class="node">
<title>n11</title>
<ellipse fill="#98D2A5" stroke="black" cx="1162.73" cy="-592.24" rx="190.84" ry="37.45"/>
<text text-anchor="middle" x="1162.73" y="-603.54" font-family="Times,serif" font-size="14.00">risky</text>
<text text-anchor="middle" x="1162.73" y="-588.54" font-family="Times,serif" font-size="14.00">JJ (OPRD)</text>
<text text-anchor="middle" x="1162.73" y="-573.54" font-family="Times,serif" font-size="14.00">rep=no, t=no, r=yes, m=yes, c=no</text>
</g>
<!-- n9&#45;&gt;n11 -->
<g id="edge12" class="edge">
<title>n9&#45;&gt;n11</title>
<path fill="none" stroke="black" d="M1162.73,-665.61C1162.73,-657.44 1162.73,-648.66 1162.73,-640.13"/>
<polygon fill="black" stroke="black" points="1166.23,-639.92 1162.73,-629.92 1159.23,-639.92 1166.23,-639.92"/>
</g>
<!-- n20 -->
<g id="node22" class="node">
<title>n20</title>
<ellipse fill="#98D2A5" stroke="black" cx="1662.73" cy="-592.24" rx="190.84" ry="37.45"/>
<text text-anchor="middle" x="1662.73" y="-603.54" font-family="Times,serif" font-size="14.00">such</text>
<text text-anchor="middle" x="1662.73" y="-588.54" font-family="Times,serif" font-size="14.00">JJ (DEP)</text>
<text text-anchor="middle" x="1662.73" y="-573.54" font-family="Times,serif" font-size="14.00">rep=no, t=no, r=yes, m=yes, c=no</text>
</g>
<!-- n21&#45;&gt;n20 -->
<g id="edge21" class="edge">
<title>n21&#45;&gt;n20</title>
<path fill="none" stroke="black" d="M1873.93,-669.95C1838.49,-657.08 1797.53,-642.2 1761.18,-629"/>
<polygon fill="black" stroke="black" points="1762.14,-625.63 1751.55,-625.5 1759.75,-632.21 1762.14,-625.63"/>
</g>
<!-- n22 -->
<g id="node23" class="node">
<title>n22</title>
<ellipse fill="#98D2A5" stroke="black" cx="2062.73" cy="-592.24" rx="190.84" ry="37.45"/>
<text text-anchor="middle" x="2062.73" y="-603.54" font-family="Times,serif" font-size="14.00">accessing</text>
<text text-anchor="middle" x="2062.73" y="-588.54" font-family="Times,serif" font-size="14.00">VBG (PMOD)</text>
<text text-anchor="middle" x="2062.73" y="-573.54" font-family="Times,serif" font-size="14.00">rep=no, t=no, r=yes, m=yes, c=no</text>
</g>
<!-- n21&#45;&gt;n22 -->
<g id="edge22" class="edge">
<title>n21&#45;&gt;n22</title>
<path fill="none" stroke="black" d="M1995.75,-666.22C2004.45,-656.74 2013.93,-646.4 2022.95,-636.58"/>
<polygon fill="black" stroke="black" points="2025.56,-638.92 2029.74,-629.18 2020.4,-634.18 2025.56,-638.92"/>
</g>
<!-- n10 -->
<g id="node14" class="node">
<title>n10</title>
<ellipse fill="#98D2A5" stroke="black" cx="1062.73" cy="-481.29" rx="190.84" ry="37.45"/>
<text text-anchor="middle" x="1062.73" y="-492.59" font-family="Times,serif" font-size="14.00">too</text>
<text text-anchor="middle" x="1062.73" y="-477.59" font-family="Times,serif" font-size="14.00">RB (AMOD)</text>
<text text-anchor="middle" x="1062.73" y="-462.59" font-family="Times,serif" font-size="14.00">rep=no, t=no, r=yes, m=yes, c=no</text>
</g>
<!-- n11&#45;&gt;n10 -->
<g id="edge13" class="edge">
<title>n11&#45;&gt;n10</title>
<path fill="none" stroke="black" d="M1129.71,-555.27C1121,-545.78 1111.52,-535.45 1102.5,-525.62"/>
<polygon fill="black" stroke="black" points="1105.05,-523.23 1095.71,-518.23 1099.9,-527.96 1105.05,-523.23"/>
</g>
<!-- n12 -->
<g id="node15" class="node">
<title>n12</title>
<ellipse fill="#98D2A5" stroke="black" cx="1462.73" cy="-481.29" rx="190.84" ry="37.45"/>
<text text-anchor="middle" x="1462.73" y="-492.59" font-family="Times,serif" font-size="14.00">to</text>
<text text-anchor="middle" x="1462.73" y="-477.59" font-family="Times,serif" font-size="14.00">TO (AMOD)</text>
<text text-anchor="middle" x="1462.73" y="-462.59" font-family="Times,serif" font-size="14.00">rep=no, t=no, r=yes, m=yes, c=no</text>
</g>
<!-- n11&#45;&gt;n12 -->
<g id="edge14" class="edge">
<title>n11&#45;&gt;n12</title>
<path fill="none" stroke="black" d="M1251.52,-559C1286.97,-546.12 1327.92,-531.25 1364.27,-518.05"/>
<polygon fill="black" stroke="black" points="1365.7,-521.25 1373.9,-514.55 1363.31,-514.67 1365.7,-521.25"/>
</g>
<!-- n13 -->
<g id="node16" class="node">
<title>n13</title>
<ellipse fill="#98D2A5" stroke="black" cx="1462.73" cy="-370.34" rx="190.84" ry="37.45"/>
<text text-anchor="middle" x="1462.73" y="-381.64" font-family="Times,serif" font-size="14.00">carry</text>
<text text-anchor="middle" x="1462.73" y="-366.64" font-family="Times,serif" font-size="14.00">VB (IM)</text>
<text text-anchor="middle" x="1462.73" y="-351.64" font-family="Times,serif" font-size="14.00">rep=no, t=no, r=yes, m=yes, c=no</text>
</g>
<!-- n12&#45;&gt;n13 -->
<g id="edge15" class="edge">
<title>n12&#45;&gt;n13</title>
<path fill="none" stroke="black" d="M1462.73,-443.71C1462.73,-435.53 1462.73,-426.75 1462.73,-418.23"/>
<polygon fill="black" stroke="black" points="1466.23,-418.01 1462.73,-408.01 1459.23,-418.01 1466.23,-418.01"/>
</g>
<!-- n14 -->
<g id="node17" class="node">
<title>n14</title>
<ellipse fill="#98D2A5" stroke="black" cx="1162.73" cy="-259.38" rx="190.84" ry="37.45"/>
<text text-anchor="middle" x="1162.73" y="-270.68" font-family="Times,serif" font-size="14.00">out</text>
<text text-anchor="middle" x="1162.73" y="-255.68" font-family="Times,serif" font-size="14.00">RP (PRT)</text>
<text text-anchor="middle" x="1162.73" y="-240.68" font-family="Times,serif" font-size="14.00">rep=no, t=no, r=yes, m=yes, c=no</text>
</g>
<!-- n13&#45;&gt;n14 -->
<g id="edge16" class="edge">
<title>n13&#45;&gt;n14</title>
<path fill="none" stroke="black" d="M1373.93,-337.09C1338.49,-324.22 1297.53,-309.34 1261.18,-296.14"/>
<polygon fill="black" stroke="black" points="1262.14,-292.77 1251.55,-292.64 1259.75,-299.35 1262.14,-292.77"/>
</g>
<!-- n15 -->
<g id="node18" class="node">
<title>n15</title>
<ellipse fill="#98D2A5" stroke="black" cx="1562.73" cy="-259.38" rx="190.84" ry="37.45"/>
<text text-anchor="middle" x="1562.73" y="-270.68" font-family="Times,serif" font-size="14.00">in</text>
<text text-anchor="middle" x="1562.73" y="-255.68" font-family="Times,serif" font-size="14.00">IN (LOC)</text>
<text text-anchor="middle" x="1562.73" y="-240.68" font-family="Times,serif" font-size="14.00">rep=no, t=no, r=yes, m=yes, c=no</text>
</g>
<!-- n13&#45;&gt;n15 -->
<g id="edge17" class="edge">
<title>n13&#45;&gt;n15</title>
<path fill="none" stroke="black" d="M1495.75,-333.36C1504.45,-323.88 1513.93,-313.54 1522.95,-303.72"/>
<polygon fill="black" stroke="black" points="1525.56,-306.06 1529.74,-296.32 1520.4,-301.32 1525.56,-306.06"/>
</g>
<!-- n18 -->
<g id="node19" class="node">
<title>n18</title>
<ellipse fill="#98D2A5" stroke="black" cx="1562.73" cy="-148.43" rx="190.84" ry="37.45"/>
<text text-anchor="middle" x="1562.73" y="-159.73" font-family="Times,serif" font-size="14.00">environment</text>
<text text-anchor="middle" x="1562.73" y="-144.73" font-family="Times,serif" font-size="14.00">NN (PMOD)</text>
<text text-anchor="middle" x="1562.73" y="-129.73" font-family="Times,serif" font-size="14.00">rep=no, t=no, r=yes, m=yes, c=no</text>
</g>
<!-- n15&#45;&gt;n18 -->
<g id="edge18" class="edge">
<title>n15&#45;&gt;n18</title>
<path fill="none" stroke="black" d="M1562.73,-221.8C1562.73,-213.63 1562.73,-204.85 1562.73,-196.32"/>
<polygon fill="black" stroke="black" points="1566.23,-196.1 1562.73,-186.1 1559.23,-196.1 1566.23,-196.1"/>
</g>
<!-- n16 -->
<g id="node20" class="node">
<title>n16</title>
<ellipse fill="#98D2A5" stroke="black" cx="1362.73" cy="-37.48" rx="190.84" ry="37.45"/>
<text text-anchor="middle" x="1362.73" y="-48.78" font-family="Times,serif" font-size="14.00">a</text>
<text text-anchor="middle" x="1362.73" y="-33.78" font-family="Times,serif" font-size="14.00">DT (NMOD)</text>
<text text-anchor="middle" x="1362.73" y="-18.78" font-family="Times,serif" font-size="14.00">rep=no, t=no, r=yes, m=yes, c=no</text>
</g>
<!-- n18&#45;&gt;n16 -->
<g id="edge19" class="edge">
<title>n18&#45;&gt;n16</title>
<path fill="none" stroke="black" d="M1499.45,-112.96C1478.92,-101.77 1455.99,-89.28 1434.87,-77.78"/>
<polygon fill="black" stroke="black" points="1436.39,-74.62 1425.94,-72.91 1433.05,-80.77 1436.39,-74.62"/>
</g>
<!-- n17 -->
<g id="node21" class="node">
<title>n17</title>
<ellipse fill="#98D2A5" stroke="black" cx="1762.73" cy="-37.48" rx="190.84" ry="37.45"/>
<text text-anchor="middle" x="1762.73" y="-48.78" font-family="Times,serif" font-size="14.00">host</text>
<text text-anchor="middle" x="1762.73" y="-33.78" font-family="Times,serif" font-size="14.00">NN (NMOD)</text>
<text text-anchor="middle" x="1762.73" y="-18.78" font-family="Times,serif" font-size="14.00">rep=no, t=no, r=yes, m=yes, c=no</text>
</g>
<!-- n18&#45;&gt;n17 -->
<g id="edge20" class="edge">
<title>n18&#45;&gt;n17</title>
<path fill="none" stroke="black" d="M1626.01,-112.96C1646.54,-101.77 1669.46,-89.28 1690.58,-77.78"/>
<polygon fill="black" stroke="black" points="1692.41,-80.77 1699.51,-72.91 1689.06,-74.62 1692.41,-80.77"/>
</g>
<!-- n24 -->
<g id="node24" class="node">
<title>n24</title>
<ellipse fill="#98D2A5" stroke="black" cx="2062.73" cy="-481.29" rx="190.84" ry="37.45"/>
<text text-anchor="middle" x="2062.73" y="-492.59" font-family="Times,serif" font-size="14.00">data</text>
<text text-anchor="middle" x="2062.73" y="-477.59" font-family="Times,serif" font-size="14.00">NNS (OBJ)</text>
<text text-anchor="middle" x="2062.73" y="-462.59" font-family="Times,serif" font-size="14.00">rep=no, t=no, r=yes, m=yes, c=no</text>
</g>
<!-- n22&#45;&gt;n24 -->
<g id="edge23" class="edge">
<title>n22&#45;&gt;n24</title>
<path fill="none" stroke="black" d="M2062.73,-554.66C2062.73,-546.49 2062.73,-537.71 2062.73,-529.18"/>
<polygon fill="black" stroke="black" points="2066.23,-528.96 2062.73,-518.96 2059.23,-528.96 2066.23,-528.96"/>
</g>
<!-- n23 -->
<g id="node25" class="node">
<title>n23</title>
<ellipse fill="#98D2A5" stroke="black" cx="2012.73" cy="-370.34" rx="190.84" ry="37.45"/>
<text text-anchor="middle" x="2012.73" y="-381.64" font-family="Times,serif" font-size="14.00">virus&#45;infected</text>
<text text-anchor="middle" x="2012.73" y="-366.64" font-family="Times,serif" font-size="14.00">VBN (NMOD)</text>
<text text-anchor="middle" x="2012.73" y="-351.64" font-family="Times,serif" font-size="14.00">rep=no, t=no, r=yes, m=yes, c=no</text>
</g>
<!-- n24&#45;&gt;n23 -->
<g id="edge24" class="edge">
<title>n24&#45;&gt;n23</title>
<path fill="none" stroke="black" d="M2045.94,-443.71C2042.02,-435.17 2037.8,-425.98 2033.73,-417.1"/>
<polygon fill="black" stroke="black" points="2036.91,-415.64 2029.56,-408.01 2030.55,-418.56 2036.91,-415.64"/>
</g>
<!-- n25 -->
<g id="node26" class="node">
<title>n25</title>
<ellipse fill="#98D2A5" stroke="black" cx="2412.73" cy="-370.34" rx="190.84" ry="37.45"/>
<text text-anchor="middle" x="2412.73" y="-381.64" font-family="Times,serif" font-size="14.00">or</text>
<text text-anchor="middle" x="2412.73" y="-366.64" font-family="Times,serif" font-size="14.00">CC (COORD)</text>
<text text-anchor="middle" x="2412.73" y="-351.64" font-family="Times,serif" font-size="14.00">rep=no, t=no, r=yes, m=yes, c=no</text>
</g>
<!-- n24&#45;&gt;n25 -->
<g id="edge25" class="edge">
<title>n24&#45;&gt;n25</title>
<path fill="none" stroke="black" d="M2162.55,-449.21C2206.51,-435.53 2258.27,-419.42 2303.28,-405.41"/>
<polygon fill="black" stroke="black" points="2304.56,-408.67 2313.07,-402.36 2302.48,-401.99 2304.56,-408.67"/>
</g>
<!-- n28 -->
<g id="node27" class="node">
<title>n28</title>
<ellipse fill="#98D2A5" stroke="black" cx="2412.73" cy="-259.38" rx="190.84" ry="37.45"/>
<text text-anchor="middle" x="2412.73" y="-270.68" font-family="Times,serif" font-size="14.00">systems</text>
<text text-anchor="middle" x="2412.73" y="-255.68" font-family="Times,serif" font-size="14.00">NNS (CONJ)</text>
<text text-anchor="middle" x="2412.73" y="-240.68" font-family="Times,serif" font-size="14.00">rep=no, t=no, r=yes, m=yes, c=no</text>
</g>
<!-- n25&#45;&gt;n28 -->
<g id="edge26" class="edge">
<title>n25&#45;&gt;n28</title>
<path fill="none" stroke="black" d="M2412.73,-332.75C2412.73,-324.58 2412.73,-315.8 2412.73,-307.27"/>
<polygon fill="black" stroke="black" points="2416.23,-307.06 2412.73,-297.06 2409.23,-307.06 2416.23,-307.06"/>
</g>
<!-- n26 -->
<g id="node28" class="node">
<title>n26</title>
<ellipse fill="#98D2A5" stroke="black" cx="2162.73" cy="-148.43" rx="190.84" ry="37.45"/>
<text text-anchor="middle" x="2162.73" y="-159.73" font-family="Times,serif" font-size="14.00">testing</text>
<text text-anchor="middle" x="2162.73" y="-144.73" font-family="Times,serif" font-size="14.00">VBG (NMOD)</text>
<text text-anchor="middle" x="2162.73" y="-129.73" font-family="Times,serif" font-size="14.00">rep=no, t=no, r=yes, m=yes, c=no</text>
</g>
<!-- n28&#45;&gt;n26 -->
<g id="edge27" class="edge">
<title>n28&#45;&gt;n26</title>
<path fill="none" stroke="black" d="M2336.02,-224.95C2308.42,-212.93 2277.12,-199.28 2248.78,-186.93"/>
<polygon fill="black" stroke="black" points="2249.85,-183.58 2239.29,-182.8 2247.06,-190 2249.85,-183.58"/>
</g>
<!-- n27 -->
<g id="node29" class="node">
<title>n27</title>
<ellipse fill="#98D2A5" stroke="black" cx="2562.73" cy="-148.43" rx="190.84" ry="37.45"/>
<text text-anchor="middle" x="2562.73" y="-159.73" font-family="Times,serif" font-size="14.00">operating</text>
<text text-anchor="middle" x="2562.73" y="-144.73" font-family="Times,serif" font-size="14.00">VBG (NMOD)</text>
<text text-anchor="middle" x="2562.73" y="-129.73" font-family="Times,serif" font-size="14.00">rep=no, t=no, r=yes, m=yes, c=no</text>
</g>
<!-- n28&#45;&gt;n27 -->
<g id="edge28" class="edge">
<title>n28&#45;&gt;n27</title>
<path fill="none" stroke="black" d="M2461.43,-223.01C2475.51,-212.78 2491.02,-201.51 2505.57,-190.94"/>
<polygon fill="black" stroke="black" points="2507.98,-193.52 2514.01,-184.81 2503.87,-187.86 2507.98,-193.52"/>
</g>
</g>
</svg>
