<?xml version="1.0" encoding="UTF-8" standalone="no"?>
<!DOCTYPE svg PUBLIC "-//W3C//DTD SVG 1.1//EN"
 "http://www.w3.org/Graphics/SVG/1.1/DTD/svg11.dtd">
<!-- Generated by graphviz version 2.43.0 (0)
 -->
<!-- Title: tree Pages: 1 -->
<svg width="2790pt" height="1858pt"
 viewBox="0.00 0.00 2789.84 1858.21" xmlns="http://www.w3.org/2000/svg" xmlns:xlink="http://www.w3.org/1999/xlink">
<g id="graph0" class="graph" transform="scale(1 1) rotate(0) translate(4 1854.21)">
<title>tree</title>
<polygon fill="white" stroke="transparent" points="-4,4 -4,-1854.21 2785.84,-1854.21 2785.84,4 -4,4"/>
<!-- n2 -->
<g id="node1" class="node">
<title>n2</title>
<ellipse fill="#98D2A5" stroke="black" cx="590.92" cy="-1812.73" rx="190.84" ry="37.45"/>
<text text-anchor="middle" x="590.92" y="-1824.03" font-family="Times,serif" font-size="14.00">have</text>
<text text-anchor="middle" x="590.92" y="-1809.03" font-family="Times,serif" font-size="14.00">VBP (root)</text>
<text text-anchor="middle" x="590.92" y="-1794.03" font-family="Times,serif" font-size="14.00">rep=no, t=no, r=yes, m=yes, c=no</text>
</g>
<!-- n1 -->
<g id="node2" class="node">
<title>n1</title>
<ellipse fill="#98D2A5" stroke="black" cx="190.92" cy="-1701.78" rx="190.84" ry="37.45"/>
<text text-anchor="middle" x="190.92" y="-1713.08" font-family="Times,serif" font-size="14.00">Containers</text>
<text text-anchor="middle" x="190.92" y="-1698.08" font-family="Times,serif" font-size="14.00">NNS (SBJ)</text>
<text text-anchor="middle" x="190.92" y="-1683.08" font-family="Times,serif" font-size="14.00">rep=no, t=yes, r=no, m=yes, c=no</text>
</g>
<!-- n2&#45;&gt;n1 -->
<g id="edge1" class="edge">
<title>n2&#45;&gt;n1</title>
<path fill="none" stroke="black" d="M481.62,-1781.96C428.48,-1767.48 364.51,-1750.06 310.12,-1735.25"/>
<polygon fill="black" stroke="black" points="311,-1731.86 300.44,-1732.61 309.16,-1738.61 311,-1731.86"/>
</g>
<!-- n3 -->
<g id="node3" class="node">
<title>n3</title>
<ellipse fill="#98D2A5" stroke="black" cx="590.92" cy="-1701.78" rx="190.84" ry="37.45"/>
<text text-anchor="middle" x="590.92" y="-1713.08" font-family="Times,serif" font-size="14.00">become</text>
<text text-anchor="middle" x="590.92" y="-1698.08" font-family="Times,serif" font-size="14.00">VBN (VC)</text>
<text text-anchor="middle" x="590.92" y="-1683.08" font-family="Times,serif" font-size="14.00">rep=no, t=no, r=yes, m=yes, c=no</text>
</g>
<!-- n2&#45;&gt;n3 -->
<g id="edge2" class="edge">
<title>n2&#45;&gt;n3</title>
<path fill="none" stroke="black" d="M590.92,-1775.15C590.92,-1766.97 590.92,-1758.19 590.92,-1749.67"/>
<polygon fill="black" stroke="black" points="594.42,-1749.45 590.92,-1739.45 587.42,-1749.45 594.42,-1749.45"/>
</g>
<!-- n29 -->
<g id="node4" class="node">
<title>n29</title>
<ellipse fill="#98D2A5" stroke="black" cx="990.92" cy="-1701.78" rx="190.84" ry="37.45"/>
<text text-anchor="middle" x="990.92" y="-1713.08" font-family="Times,serif" font-size="14.00">.</text>
<text text-anchor="middle" x="990.92" y="-1698.08" font-family="Times,serif" font-size="14.00">Fp (P)</text>
<text text-anchor="middle" x="990.92" y="-1683.08" font-family="Times,serif" font-size="14.00">rep=no, t=no, r=yes, m=yes, c=no</text>
</g>
<!-- n2&#45;&gt;n29 -->
<g id="edge3" class="edge">
<title>n2&#45;&gt;n29</title>
<path fill="none" stroke="black" d="M700.22,-1781.96C753.36,-1767.48 817.33,-1750.06 871.71,-1735.25"/>
<polygon fill="black" stroke="black" points="872.67,-1738.61 881.4,-1732.61 870.83,-1731.86 872.67,-1738.61"/>
</g>
<!-- n4 -->
<g id="node5" class="node">
<title>n4</title>
<ellipse fill="#98D2A5" stroke="black" cx="590.92" cy="-1590.82" rx="190.84" ry="37.45"/>
<text text-anchor="middle" x="590.92" y="-1602.12" font-family="Times,serif" font-size="14.00">popluar</text>
<text text-anchor="middle" x="590.92" y="-1587.12" font-family="Times,serif" font-size="14.00">NN (PRD)</text>
<text text-anchor="middle" x="590.92" y="-1572.12" font-family="Times,serif" font-size="14.00">rep=no, t=no, r=yes, m=yes, c=no</text>
</g>
<!-- n3&#45;&gt;n4 -->
<g id="edge4" class="edge">
<title>n3&#45;&gt;n4</title>
<path fill="none" stroke="black" d="M590.92,-1664.19C590.92,-1656.02 590.92,-1647.24 590.92,-1638.71"/>
<polygon fill="black" stroke="black" points="594.42,-1638.49 590.92,-1628.49 587.42,-1638.5 594.42,-1638.49"/>
</g>
<!-- n5 -->
<g id="node6" class="node">
<title>n5</title>
<ellipse fill="#98D2A5" stroke="black" cx="590.92" cy="-1479.87" rx="190.84" ry="37.45"/>
<text text-anchor="middle" x="590.92" y="-1491.17" font-family="Times,serif" font-size="14.00">for</text>
<text text-anchor="middle" x="590.92" y="-1476.17" font-family="Times,serif" font-size="14.00">IN (NMOD)</text>
<text text-anchor="middle" x="590.92" y="-1461.17" font-family="Times,serif" font-size="14.00">rep=no, t=no, r=yes, m=yes, c=no</text>
</g>
<!-- n4&#45;&gt;n5 -->
<g id="edge5" class="edge">
<title>n4&#45;&gt;n5</title>
<path fill="none" stroke="black" d="M590.92,-1553.24C590.92,-1545.07 590.92,-1536.29 590.92,-1527.76"/>
<polygon fill="black" stroke="black" points="594.42,-1527.54 590.92,-1517.54 587.42,-1527.54 594.42,-1527.54"/>
</g>
<!-- n7 -->
<g id="node7" class="node">
<title>n7</title>
<ellipse fill="#98D2A5" stroke="black" cx="590.92" cy="-1368.92" rx="190.84" ry="37.45"/>
<text text-anchor="middle" x="590.92" y="-1380.22" font-family="Times,serif" font-size="14.00">cases</text>
<text text-anchor="middle" x="590.92" y="-1365.22" font-family="Times,serif" font-size="14.00">NNS (PMOD)</text>
<text text-anchor="middle" x="590.92" y="-1350.22" font-family="Times,serif" font-size="14.00">rep=no, t=no, r=yes, m=yes, c=no</text>
</g>
<!-- n5&#45;&gt;n7 -->
<g id="edge6" class="edge">
<title>n5&#45;&gt;n7</title>
<path fill="none" stroke="black" d="M590.92,-1442.29C590.92,-1434.11 590.92,-1425.33 590.92,-1416.81"/>
<polygon fill="black" stroke="black" points="594.42,-1416.59 590.92,-1406.59 587.42,-1416.59 594.42,-1416.59"/>
</g>
<!-- n6 -->
<g id="node8" class="node">
<title>n6</title>
<ellipse fill="#98D2A5" stroke="black" cx="390.92" cy="-1257.96" rx="190.84" ry="37.45"/>
<text text-anchor="middle" x="390.92" y="-1269.26" font-family="Times,serif" font-size="14.00">use</text>
<text text-anchor="middle" x="390.92" y="-1254.26" font-family="Times,serif" font-size="14.00">NN (NMOD)</text>
<text text-anchor="middle" x="390.92" y="-1239.26" font-family="Times,serif" font-size="14.00">rep=no, t=no, r=yes, m=yes, c=no</text>
</g>
<!-- n7&#45;&gt;n6 -->
<g id="edge7" class="edge">
<title>n7&#45;&gt;n6</title>
<path fill="none" stroke="black" d="M527.64,-1333.44C507.11,-1322.26 484.18,-1309.77 463.06,-1298.26"/>
<polygon fill="black" stroke="black" points="464.59,-1295.11 454.13,-1293.4 461.24,-1301.26 464.59,-1295.11"/>
</g>
<!-- n9 -->
<g id="node9" class="node">
<title>n9</title>
<ellipse fill="#98D2A5" stroke="black" cx="790.92" cy="-1257.96" rx="190.84" ry="37.45"/>
<text text-anchor="middle" x="790.92" y="-1269.26" font-family="Times,serif" font-size="14.00">as</text>
<text text-anchor="middle" x="790.92" y="-1254.26" font-family="Times,serif" font-size="14.00">IN (NMOD)</text>
<text text-anchor="middle" x="790.92" y="-1239.26" font-family="Times,serif" font-size="14.00">rep=no, t=no, r=yes, m=yes, c=no</text>
</g>
<!-- n7&#45;&gt;n9 -->
<g id="edge8" class="edge">
<title>n7&#45;&gt;n9</title>
<path fill="none" stroke="black" d="M654.2,-1333.44C674.73,-1322.26 697.65,-1309.77 718.78,-1298.26"/>
<polygon fill="black" stroke="black" points="720.6,-1301.26 727.71,-1293.4 717.25,-1295.11 720.6,-1301.26"/>
</g>
<!-- n8 -->
<g id="node10" class="node">
<title>n8</title>
<ellipse fill="#98D2A5" stroke="black" cx="590.92" cy="-1147.01" rx="190.84" ry="37.45"/>
<text text-anchor="middle" x="590.92" y="-1158.31" font-family="Times,serif" font-size="14.00">such</text>
<text text-anchor="middle" x="590.92" y="-1143.31" font-family="Times,serif" font-size="14.00">JJ (DEP)</text>
<text text-anchor="middle" x="590.92" y="-1128.31" font-family="Times,serif" font-size="14.00">rep=no, t=no, r=yes, m=yes, c=no</text>
</g>
<!-- n9&#45;&gt;n8 -->
<g id="edge9" class="edge">
<title>n9&#45;&gt;n8</title>
<path fill="none" stroke="black" d="M727.64,-1222.49C707.11,-1211.31 684.18,-1198.82 663.06,-1187.31"/>
<polygon fill="black" stroke="black" points="664.59,-1184.16 654.13,-1182.45 661.24,-1190.3 664.59,-1184.16"/>
</g>
<!-- n11 -->
<g id="node11" class="node">
<title>n11</title>
<ellipse fill="#98D2A5" stroke="black" cx="990.92" cy="-1147.01" rx="190.84" ry="37.45"/>
<text text-anchor="middle" x="990.92" y="-1158.31" font-family="Times,serif" font-size="14.00">applications</text>
<text text-anchor="middle" x="990.92" y="-1143.31" font-family="Times,serif" font-size="14.00">NNS (PMOD)</text>
<text text-anchor="middle" x="990.92" y="-1128.31" font-family="Times,serif" font-size="14.00">rep=no, t=no, r=yes, m=yes, c=no</text>
</g>
<!-- n9&#45;&gt;n11 -->
<g id="edge10" class="edge">
<title>n9&#45;&gt;n11</title>
<path fill="none" stroke="black" d="M854.2,-1222.49C874.73,-1211.31 897.65,-1198.82 918.78,-1187.31"/>
<polygon fill="black" stroke="black" points="920.6,-1190.3 927.71,-1182.45 917.25,-1184.16 920.6,-1190.3"/>
</g>
<!-- n10 -->
<g id="node12" class="node">
<title>n10</title>
<ellipse fill="#98D2A5" stroke="black" cx="590.92" cy="-1036.06" rx="190.84" ry="37.45"/>
<text text-anchor="middle" x="590.92" y="-1047.36" font-family="Times,serif" font-size="14.00">web</text>
<text text-anchor="middle" x="590.92" y="-1032.36" font-family="Times,serif" font-size="14.00">NN (NMOD)</text>
<text text-anchor="middle" x="590.92" y="-1017.36" font-family="Times,serif" font-size="14.00">rep=no, t=no, r=yes, m=yes, c=no</text>
</g>
<!-- n11&#45;&gt;n10 -->
<g id="edge11" class="edge">
<title>n11&#45;&gt;n10</title>
<path fill="none" stroke="black" d="M881.62,-1116.24C828.48,-1101.76 764.51,-1084.34 710.12,-1069.53"/>
<polygon fill="black" stroke="black" points="711,-1066.14 700.44,-1066.89 709.16,-1072.89 711,-1066.14"/>
</g>
<!-- n12 -->
<g id="node13" class="node">
<title>n12</title>
<ellipse fill="#98D2A5" stroke="black" cx="990.92" cy="-1036.06" rx="190.84" ry="37.45"/>
<text text-anchor="middle" x="990.92" y="-1047.36" font-family="Times,serif" font-size="14.00">,</text>
<text text-anchor="middle" x="990.92" y="-1032.36" font-family="Times,serif" font-size="14.00">Fc (P)</text>
<text text-anchor="middle" x="990.92" y="-1017.36" font-family="Times,serif" font-size="14.00">rep=no, t=no, r=yes, m=yes, c=no</text>
</g>
<!-- n11&#45;&gt;n12 -->
<g id="edge12" class="edge">
<title>n11&#45;&gt;n12</title>
<path fill="none" stroke="black" d="M990.92,-1109.43C990.92,-1101.25 990.92,-1092.47 990.92,-1083.95"/>
<polygon fill="black" stroke="black" points="994.42,-1083.73 990.92,-1073.73 987.42,-1083.73 994.42,-1083.73"/>
</g>
<!-- n14 -->
<g id="node14" class="node">
<title>n14</title>
<ellipse fill="#98D2A5" stroke="black" cx="1390.92" cy="-1036.06" rx="190.84" ry="37.45"/>
<text text-anchor="middle" x="1390.92" y="-1047.36" font-family="Times,serif" font-size="14.00">testing</text>
<text text-anchor="middle" x="1390.92" y="-1032.36" font-family="Times,serif" font-size="14.00">NN (COORD)</text>
<text text-anchor="middle" x="1390.92" y="-1017.36" font-family="Times,serif" font-size="14.00">rep=no, t=no, r=yes, m=yes, c=no</text>
</g>
<!-- n11&#45;&gt;n14 -->
<g id="edge13" class="edge">
<title>n11&#45;&gt;n14</title>
<path fill="none" stroke="black" d="M1100.22,-1116.24C1153.36,-1101.76 1217.33,-1084.34 1271.71,-1069.53"/>
<polygon fill="black" stroke="black" points="1272.67,-1072.89 1281.4,-1066.89 1270.83,-1066.14 1272.67,-1072.89"/>
</g>
<!-- n13 -->
<g id="node15" class="node">
<title>n13</title>
<ellipse fill="#98D2A5" stroke="black" cx="990.92" cy="-925.1" rx="190.84" ry="37.45"/>
<text text-anchor="middle" x="990.92" y="-936.4" font-family="Times,serif" font-size="14.00">DevOps</text>
<text text-anchor="middle" x="990.92" y="-921.4" font-family="Times,serif" font-size="14.00">NP00V00 (NMOD)</text>
<text text-anchor="middle" x="990.92" y="-906.4" font-family="Times,serif" font-size="14.00">rep=no, t=no, r=yes, m=yes, c=no</text>
</g>
<!-- n14&#45;&gt;n13 -->
<g id="edge14" class="edge">
<title>n14&#45;&gt;n13</title>
<path fill="none" stroke="black" d="M1281.62,-1005.28C1228.48,-990.81 1164.51,-973.39 1110.12,-958.57"/>
<polygon fill="black" stroke="black" points="1111,-955.18 1100.44,-955.93 1109.16,-961.94 1111,-955.18"/>
</g>
<!-- n15 -->
<g id="node16" class="node">
<title>n15</title>
<ellipse fill="#98D2A5" stroke="black" cx="1390.92" cy="-925.1" rx="190.84" ry="37.45"/>
<text text-anchor="middle" x="1390.92" y="-936.4" font-family="Times,serif" font-size="14.00">,</text>
<text text-anchor="middle" x="1390.92" y="-921.4" font-family="Times,serif" font-size="14.00">Fc (P)</text>
<text text-anchor="middle" x="1390.92" y="-906.4" font-family="Times,serif" font-size="14.00">rep=no, t=no, r=yes, m=yes, c=no</text>
</g>
<!-- n14&#45;&gt;n15 -->
<g id="edge15" class="edge">
<title>n14&#45;&gt;n15</title>
<path fill="none" stroke="black" d="M1390.92,-998.47C1390.92,-990.3 1390.92,-981.52 1390.92,-972.99"/>
<polygon fill="black" stroke="black" points="1394.42,-972.78 1390.92,-962.78 1387.42,-972.78 1394.42,-972.78"/>
</g>
<!-- n16 -->
<g id="node17" class="node">
<title>n16</title>
<ellipse fill="#98D2A5" stroke="black" cx="1790.92" cy="-925.1" rx="190.84" ry="37.45"/>
<text text-anchor="middle" x="1790.92" y="-936.4" font-family="Times,serif" font-size="14.00">microservices</text>
<text text-anchor="middle" x="1790.92" y="-921.4" font-family="Times,serif" font-size="14.00">NNS (COORD)</text>
<text text-anchor="middle" x="1790.92" y="-906.4" font-family="Times,serif" font-size="14.00">rep=no, t=no, r=yes, m=yes, c=no</text>
</g>
<!-- n14&#45;&gt;n16 -->
<g id="edge16" class="edge">
<title>n14&#45;&gt;n16</title>
<path fill="none" stroke="black" d="M1500.22,-1005.28C1553.36,-990.81 1617.33,-973.39 1671.71,-958.57"/>
<polygon fill="black" stroke="black" points="1672.67,-961.94 1681.4,-955.93 1670.83,-955.18 1672.67,-961.94"/>
</g>
<!-- n17 -->
<g id="node18" class="node">
<title>n17</title>
<ellipse fill="#98D2A5" stroke="black" cx="1790.92" cy="-814.15" rx="190.84" ry="37.45"/>
<text text-anchor="middle" x="1790.92" y="-825.45" font-family="Times,serif" font-size="14.00">and</text>
<text text-anchor="middle" x="1790.92" y="-810.45" font-family="Times,serif" font-size="14.00">CC (COORD)</text>
<text text-anchor="middle" x="1790.92" y="-795.45" font-family="Times,serif" font-size="14.00">rep=no, t=no, r=yes, m=yes, c=no</text>
</g>
<!-- n16&#45;&gt;n17 -->
<g id="edge17" class="edge">
<title>n16&#45;&gt;n17</title>
<path fill="none" stroke="black" d="M1790.92,-887.52C1790.92,-879.35 1790.92,-870.57 1790.92,-862.04"/>
<polygon fill="black" stroke="black" points="1794.42,-861.82 1790.92,-851.82 1787.42,-861.82 1794.42,-861.82"/>
</g>
<!-- n18 -->
<g id="node19" class="node">
<title>n18</title>
<ellipse fill="#98D2A5" stroke="black" cx="1790.92" cy="-703.2" rx="190.84" ry="37.45"/>
<text text-anchor="middle" x="1790.92" y="-714.5" font-family="Times,serif" font-size="14.00">maximizing</text>
<text text-anchor="middle" x="1790.92" y="-699.5" font-family="Times,serif" font-size="14.00">VBG (CONJ)</text>
<text text-anchor="middle" x="1790.92" y="-684.5" font-family="Times,serif" font-size="14.00">rep=no, t=no, r=yes, m=yes, c=no</text>
</g>
<!-- n17&#45;&gt;n18 -->
<g id="edge18" class="edge">
<title>n17&#45;&gt;n18</title>
<path fill="none" stroke="black" d="M1790.92,-776.57C1790.92,-768.39 1790.92,-759.61 1790.92,-751.09"/>
<polygon fill="black" stroke="black" points="1794.42,-750.87 1790.92,-740.87 1787.42,-750.87 1794.42,-750.87"/>
</g>
<!-- n20 -->
<g id="node20" class="node">
<title>n20</title>
<ellipse fill="#98D2A5" stroke="black" cx="1790.92" cy="-592.24" rx="190.84" ry="37.45"/>
<text text-anchor="middle" x="1790.92" y="-603.54" font-family="Times,serif" font-size="14.00">number</text>
<text text-anchor="middle" x="1790.92" y="-588.54" font-family="Times,serif" font-size="14.00">NN (OBJ)</text>
<text text-anchor="middle" x="1790.92" y="-573.54" font-family="Times,serif" font-size="14.00">rep=no, t=no, r=yes, m=yes, c=no</text>
</g>
<!-- n18&#45;&gt;n20 -->
<g id="edge19" class="edge">
<title>n18&#45;&gt;n20</title>
<path fill="none" stroke="black" d="M1790.92,-665.61C1790.92,-657.44 1790.92,-648.66 1790.92,-640.13"/>
<polygon fill="black" stroke="black" points="1794.42,-639.92 1790.92,-629.92 1787.42,-639.92 1794.42,-639.92"/>
</g>
<!-- n19 -->
<g id="node21" class="node">
<title>n19</title>
<ellipse fill="#98D2A5" stroke="black" cx="1390.92" cy="-481.29" rx="190.84" ry="37.45"/>
<text text-anchor="middle" x="1390.92" y="-492.59" font-family="Times,serif" font-size="14.00">the</text>
<text text-anchor="middle" x="1390.92" y="-477.59" font-family="Times,serif" font-size="14.00">DT (NMOD)</text>
<text text-anchor="middle" x="1390.92" y="-462.59" font-family="Times,serif" font-size="14.00">rep=no, t=no, r=yes, m=yes, c=no</text>
</g>
<!-- n20&#45;&gt;n19 -->
<g id="edge20" class="edge">
<title>n20&#45;&gt;n19</title>
<path fill="none" stroke="black" d="M1681.62,-561.47C1628.48,-547 1564.51,-529.57 1510.12,-514.76"/>
<polygon fill="black" stroke="black" points="1511,-511.37 1500.44,-512.12 1509.16,-518.13 1511,-511.37"/>
</g>
<!-- n21 -->
<g id="node22" class="node">
<title>n21</title>
<ellipse fill="#98D2A5" stroke="black" cx="1790.92" cy="-481.29" rx="190.84" ry="37.45"/>
<text text-anchor="middle" x="1790.92" y="-492.59" font-family="Times,serif" font-size="14.00">of</text>
<text text-anchor="middle" x="1790.92" y="-477.59" font-family="Times,serif" font-size="14.00">IN (NMOD)</text>
<text text-anchor="middle" x="1790.92" y="-462.59" font-family="Times,serif" font-size="14.00">rep=no, t=no, r=yes, m=yes, c=no</text>
</g>
<!-- n20&#45;&gt;n21 -->
<g id="edge21" class="edge">
<title>n20&#45;&gt;n21</title>
<path fill="none" stroke="black" d="M1790.92,-554.66C1790.92,-546.49 1790.92,-537.71 1790.92,-529.18"/>
<polygon fill="black" stroke="black" points="1794.42,-528.96 1790.92,-518.96 1787.42,-528.96 1794.42,-528.96"/>
</g>
<!-- n24 -->
<g id="node23" class="node">
<title>n24</title>
<ellipse fill="#98D2A5" stroke="black" cx="2190.92" cy="-481.29" rx="190.84" ry="37.45"/>
<text text-anchor="middle" x="2190.92" y="-492.59" font-family="Times,serif" font-size="14.00">can</text>
<text text-anchor="middle" x="2190.92" y="-477.59" font-family="Times,serif" font-size="14.00">MD (NMOD)</text>
<text text-anchor="middle" x="2190.92" y="-462.59" font-family="Times,serif" font-size="14.00">rep=no, t=no, r=yes, m=yes, c=no</text>
</g>
<!-- n20&#45;&gt;n24 -->
<g id="edge22" class="edge">
<title>n20&#45;&gt;n24</title>
<path fill="none" stroke="black" d="M1900.22,-561.47C1953.36,-547 2017.33,-529.57 2071.71,-514.76"/>
<polygon fill="black" stroke="black" points="2072.67,-518.13 2081.4,-512.12 2070.83,-511.37 2072.67,-518.13"/>
</g>
<!-- n22 -->
<g id="node24" class="node">
<title>n22</title>
<ellipse fill="#98D2A5" stroke="black" cx="1790.92" cy="-370.34" rx="190.84" ry="37.45"/>
<text text-anchor="middle" x="1790.92" y="-381.64" font-family="Times,serif" font-size="14.00">apps</text>
<text text-anchor="middle" x="1790.92" y="-366.64" font-family="Times,serif" font-size="14.00">NNS (PMOD)</text>
<text text-anchor="middle" x="1790.92" y="-351.64" font-family="Times,serif" font-size="14.00">rep=no, t=no, r=yes, m=yes, c=no</text>
</g>
<!-- n21&#45;&gt;n22 -->
<g id="edge23" class="edge">
<title>n21&#45;&gt;n22</title>
<path fill="none" stroke="black" d="M1790.92,-443.71C1790.92,-435.53 1790.92,-426.75 1790.92,-418.23"/>
<polygon fill="black" stroke="black" points="1794.42,-418.01 1790.92,-408.01 1787.42,-418.01 1794.42,-418.01"/>
</g>
<!-- n23 -->
<g id="node25" class="node">
<title>n23</title>
<ellipse fill="#98D2A5" stroke="black" cx="2190.92" cy="-370.34" rx="190.84" ry="37.45"/>
<text text-anchor="middle" x="2190.92" y="-381.64" font-family="Times,serif" font-size="14.00">that</text>
<text text-anchor="middle" x="2190.92" y="-366.64" font-family="Times,serif" font-size="14.00">WDT (SBJ)</text>
<text text-anchor="middle" x="2190.92" y="-351.64" font-family="Times,serif" font-size="14.00">rep=no, t=no, r=yes, m=yes, c=no</text>
</g>
<!-- n24&#45;&gt;n23 -->
<g id="edge24" class="edge">
<title>n24&#45;&gt;n23</title>
<path fill="none" stroke="black" d="M2190.92,-443.71C2190.92,-435.53 2190.92,-426.75 2190.92,-418.23"/>
<polygon fill="black" stroke="black" points="2194.42,-418.01 2190.92,-408.01 2187.42,-418.01 2194.42,-418.01"/>
</g>
<!-- n25 -->
<g id="node26" class="node">
<title>n25</title>
<ellipse fill="#98D2A5" stroke="black" cx="2590.92" cy="-370.34" rx="190.84" ry="37.45"/>
<text text-anchor="middle" x="2590.92" y="-381.64" font-family="Times,serif" font-size="14.00">be</text>
<text text-anchor="middle" x="2590.92" y="-366.64" font-family="Times,serif" font-size="14.00">VB (VC)</text>
<text text-anchor="middle" x="2590.92" y="-351.64" font-family="Times,serif" font-size="14.00">rep=no, t=no, r=yes, m=yes, c=no</text>
</g>
<!-- n24&#45;&gt;n25 -->
<g id="edge25" class="edge">
<title>n24&#45;&gt;n25</title>
<path fill="none" stroke="black" d="M2300.22,-450.52C2353.36,-436.04 2417.33,-418.62 2471.71,-403.81"/>
<polygon fill="black" stroke="black" points="2472.67,-407.17 2481.4,-401.17 2470.83,-400.42 2472.67,-407.17"/>
</g>
<!-- n26 -->
<g id="node27" class="node">
<title>n26</title>
<ellipse fill="#98D2A5" stroke="black" cx="2590.92" cy="-259.38" rx="190.84" ry="37.45"/>
<text text-anchor="middle" x="2590.92" y="-270.68" font-family="Times,serif" font-size="14.00">deployed</text>
<text text-anchor="middle" x="2590.92" y="-255.68" font-family="Times,serif" font-size="14.00">VBN (VC)</text>
<text text-anchor="middle" x="2590.92" y="-240.68" font-family="Times,serif" font-size="14.00">rep=no, t=no, r=yes, m=yes, c=no</text>
</g>
<!-- n25&#45;&gt;n26 -->
<g id="edge26" class="edge">
<title>n25&#45;&gt;n26</title>
<path fill="none" stroke="black" d="M2590.92,-332.75C2590.92,-324.58 2590.92,-315.8 2590.92,-307.27"/>
<polygon fill="black" stroke="black" points="2594.42,-307.06 2590.92,-297.06 2587.42,-307.06 2594.42,-307.06"/>
</g>
<!-- n27 -->
<g id="node28" class="node">
<title>n27</title>
<ellipse fill="#98D2A5" stroke="black" cx="2590.92" cy="-148.43" rx="190.84" ry="37.45"/>
<text text-anchor="middle" x="2590.92" y="-159.73" font-family="Times,serif" font-size="14.00">per</text>
<text text-anchor="middle" x="2590.92" y="-144.73" font-family="Times,serif" font-size="14.00">IN (MNR)</text>
<text text-anchor="middle" x="2590.92" y="-129.73" font-family="Times,serif" font-size="14.00">rep=no, t=no, r=yes, m=yes, c=no</text>
</g>
<!-- n26&#45;&gt;n27 -->
<g id="edge27" class="edge">
<title>n26&#45;&gt;n27</title>
<path fill="none" stroke="black" d="M2590.92,-221.8C2590.92,-213.63 2590.92,-204.85 2590.92,-196.32"/>
<polygon fill="black" stroke="black" points="2594.42,-196.1 2590.92,-186.1 2587.42,-196.1 2594.42,-196.1"/>
</g>
<!-- n28 -->
<g id="node29" class="node">
<title>n28</title>
<ellipse fill="#98D2A5" stroke="black" cx="2590.92" cy="-37.48" rx="190.84" ry="37.45"/>
<text text-anchor="middle" x="2590.92" y="-48.78" font-family="Times,serif" font-size="14.00">server</text>
<text text-anchor="middle" x="2590.92" y="-33.78" font-family="Times,serif" font-size="14.00">NN (PMOD)</text>
<text text-anchor="middle" x="2590.92" y="-18.78" font-family="Times,serif" font-size="14.00">rep=no, t=no, r=yes, m=yes, c=no</text>
</g>
<!-- n27&#45;&gt;n28 -->
<g id="edge28" class="edge">
<title>n27&#45;&gt;n28</title>
<path fill="none" stroke="black" d="M2590.92,-110.85C2590.92,-102.67 2590.92,-93.89 2590.92,-85.37"/>
<polygon fill="black" stroke="black" points="2594.42,-85.15 2590.92,-75.15 2587.42,-85.15 2594.42,-85.15"/>
</g>
</g>
</svg>
