<?xml version="1.0" encoding="UTF-8" standalone="no"?>
<!DOCTYPE svg PUBLIC "-//W3C//DTD SVG 1.1//EN"
 "http://www.w3.org/Graphics/SVG/1.1/DTD/svg11.dtd">
<!-- Generated by graphviz version 2.43.0 (0)
 -->
<!-- Title: tree Pages: 1 -->
<svg width="5390pt" height="1525pt"
 viewBox="0.00 0.00 5389.84 1525.35" xmlns="http://www.w3.org/2000/svg" xmlns:xlink="http://www.w3.org/1999/xlink">
<g id="graph0" class="graph" transform="scale(1 1) rotate(0) translate(4 1521.35)">
<title>tree</title>
<polygon fill="white" stroke="transparent" points="-4,4 -4,-1521.35 5385.84,-1521.35 5385.84,4 -4,4"/>
<!-- n12 -->
<g id="node1" class="node">
<title>n12</title>
<ellipse fill="#98D2A5" stroke="black" cx="1290.92" cy="-1479.87" rx="190.84" ry="37.45"/>
<text text-anchor="middle" x="1290.92" y="-1491.17" font-family="Times,serif" font-size="14.00">can</text>
<text text-anchor="middle" x="1290.92" y="-1476.17" font-family="Times,serif" font-size="14.00">MD (root)</text>
<text text-anchor="middle" x="1290.92" y="-1461.17" font-family="Times,serif" font-size="14.00">rep=no, t=no, r=yes, m=yes, c=no</text>
</g>
<!-- n3 -->
<g id="node2" class="node">
<title>n3</title>
<ellipse fill="#98D2A5" stroke="black" cx="790.92" cy="-1368.92" rx="190.84" ry="37.45"/>
<text text-anchor="middle" x="790.92" y="-1380.22" font-family="Times,serif" font-size="14.00">components</text>
<text text-anchor="middle" x="790.92" y="-1365.22" font-family="Times,serif" font-size="14.00">NNS (SBJ)</text>
<text text-anchor="middle" x="790.92" y="-1350.22" font-family="Times,serif" font-size="14.00">rep=no, t=yes, r=no, m=yes, c=no</text>
</g>
<!-- n12&#45;&gt;n3 -->
<g id="edge1" class="edge">
<title>n12&#45;&gt;n3</title>
<path fill="none" stroke="black" d="M1165.39,-1451.52C1092.58,-1435.65 1000.86,-1415.66 926.42,-1399.44"/>
<polygon fill="black" stroke="black" points="927.01,-1395.99 916.5,-1397.28 925.52,-1402.83 927.01,-1395.99"/>
</g>
<!-- n13 -->
<g id="node3" class="node">
<title>n13</title>
<ellipse fill="#98D2A5" stroke="black" cx="1290.92" cy="-1368.92" rx="190.84" ry="37.45"/>
<text text-anchor="middle" x="1290.92" y="-1380.22" font-family="Times,serif" font-size="14.00">be</text>
<text text-anchor="middle" x="1290.92" y="-1365.22" font-family="Times,serif" font-size="14.00">VB (VC)</text>
<text text-anchor="middle" x="1290.92" y="-1350.22" font-family="Times,serif" font-size="14.00">rep=no, t=no, r=yes, m=yes, c=no</text>
</g>
<!-- n12&#45;&gt;n13 -->
<g id="edge2" class="edge">
<title>n12&#45;&gt;n13</title>
<path fill="none" stroke="black" d="M1290.92,-1442.29C1290.92,-1434.11 1290.92,-1425.33 1290.92,-1416.81"/>
<polygon fill="black" stroke="black" points="1294.42,-1416.59 1290.92,-1406.59 1287.42,-1416.59 1294.42,-1416.59"/>
</g>
<!-- n53 -->
<g id="node4" class="node">
<title>n53</title>
<ellipse fill="#98D2A5" stroke="black" cx="1690.92" cy="-1368.92" rx="190.84" ry="37.45"/>
<text text-anchor="middle" x="1690.92" y="-1380.22" font-family="Times,serif" font-size="14.00">.</text>
<text text-anchor="middle" x="1690.92" y="-1365.22" font-family="Times,serif" font-size="14.00">Fp (P)</text>
<text text-anchor="middle" x="1690.92" y="-1350.22" font-family="Times,serif" font-size="14.00">rep=no, t=no, r=yes, m=yes, c=no</text>
</g>
<!-- n12&#45;&gt;n53 -->
<g id="edge3" class="edge">
<title>n12&#45;&gt;n53</title>
<path fill="none" stroke="black" d="M1400.22,-1449.1C1453.36,-1434.62 1517.33,-1417.2 1571.71,-1402.39"/>
<polygon fill="black" stroke="black" points="1572.67,-1405.75 1581.4,-1399.75 1570.83,-1399 1572.67,-1405.75"/>
</g>
<!-- n1 -->
<g id="node5" class="node">
<title>n1</title>
<ellipse fill="#98D2A5" stroke="black" cx="190.92" cy="-1257.96" rx="190.84" ry="37.45"/>
<text text-anchor="middle" x="190.92" y="-1269.26" font-family="Times,serif" font-size="14.00">All</text>
<text text-anchor="middle" x="190.92" y="-1254.26" font-family="Times,serif" font-size="14.00">DT (NMOD)</text>
<text text-anchor="middle" x="190.92" y="-1239.26" font-family="Times,serif" font-size="14.00">rep=no, t=yes, r=no, m=yes, c=no</text>
</g>
<!-- n3&#45;&gt;n1 -->
<g id="edge4" class="edge">
<title>n3&#45;&gt;n1</title>
<path fill="none" stroke="black" d="M653,-1342.97C575.9,-1329.01 478.06,-1311.28 390.92,-1295.44 373.85,-1292.34 355.97,-1289.08 338.21,-1285.85"/>
<polygon fill="black" stroke="black" points="338.82,-1282.4 328.36,-1284.05 337.57,-1289.29 338.82,-1282.4"/>
</g>
<!-- n2 -->
<g id="node6" class="node">
<title>n2</title>
<ellipse fill="#98D2A5" stroke="black" cx="590.92" cy="-1257.96" rx="190.84" ry="37.45"/>
<text text-anchor="middle" x="590.92" y="-1269.26" font-family="Times,serif" font-size="14.00">the</text>
<text text-anchor="middle" x="590.92" y="-1254.26" font-family="Times,serif" font-size="14.00">DT (NMOD)</text>
<text text-anchor="middle" x="590.92" y="-1239.26" font-family="Times,serif" font-size="14.00">rep=no, t=yes, r=no, m=yes, c=no</text>
</g>
<!-- n3&#45;&gt;n2 -->
<g id="edge5" class="edge">
<title>n3&#45;&gt;n2</title>
<path fill="none" stroke="black" d="M727.64,-1333.44C707.11,-1322.26 684.18,-1309.77 663.06,-1298.26"/>
<polygon fill="black" stroke="black" points="664.59,-1295.11 654.13,-1293.4 661.24,-1301.26 664.59,-1295.11"/>
</g>
<!-- n4 -->
<g id="node7" class="node">
<title>n4</title>
<ellipse fill="#98D2A5" stroke="black" cx="990.92" cy="-1257.96" rx="190.84" ry="37.45"/>
<text text-anchor="middle" x="990.92" y="-1269.26" font-family="Times,serif" font-size="14.00">of</text>
<text text-anchor="middle" x="990.92" y="-1254.26" font-family="Times,serif" font-size="14.00">IN (NMOD)</text>
<text text-anchor="middle" x="990.92" y="-1239.26" font-family="Times,serif" font-size="14.00">rep=no, t=yes, r=no, m=yes, c=no</text>
</g>
<!-- n3&#45;&gt;n4 -->
<g id="edge6" class="edge">
<title>n3&#45;&gt;n4</title>
<path fill="none" stroke="black" d="M854.2,-1333.44C874.73,-1322.26 897.65,-1309.77 918.78,-1298.26"/>
<polygon fill="black" stroke="black" points="920.6,-1301.26 927.71,-1293.4 917.25,-1295.11 920.6,-1301.26"/>
</g>
<!-- n14 -->
<g id="node15" class="node">
<title>n14</title>
<ellipse fill="#98D2A5" stroke="black" cx="1390.92" cy="-1257.96" rx="190.84" ry="37.45"/>
<text text-anchor="middle" x="1390.92" y="-1269.26" font-family="Times,serif" font-size="14.00">virtualized</text>
<text text-anchor="middle" x="1390.92" y="-1254.26" font-family="Times,serif" font-size="14.00">VBN (VC)</text>
<text text-anchor="middle" x="1390.92" y="-1239.26" font-family="Times,serif" font-size="14.00">rep=no, t=no, r=yes, m=yes, c=no</text>
</g>
<!-- n13&#45;&gt;n14 -->
<g id="edge14" class="edge">
<title>n13&#45;&gt;n14</title>
<path fill="none" stroke="black" d="M1323.94,-1331.94C1332.64,-1322.46 1342.13,-1312.12 1351.15,-1302.3"/>
<polygon fill="black" stroke="black" points="1353.75,-1304.64 1357.93,-1294.9 1348.59,-1299.9 1353.75,-1304.64"/>
</g>
<!-- n11 -->
<g id="node8" class="node">
<title>n11</title>
<ellipse fill="#98D2A5" stroke="black" cx="790.92" cy="-1147.01" rx="190.84" ry="37.45"/>
<text text-anchor="middle" x="790.92" y="-1158.31" font-family="Times,serif" font-size="14.00">infrastructure</text>
<text text-anchor="middle" x="790.92" y="-1143.31" font-family="Times,serif" font-size="14.00">NN (PMOD)</text>
<text text-anchor="middle" x="790.92" y="-1128.31" font-family="Times,serif" font-size="14.00">rep=no, t=yes, r=no, m=yes, c=no</text>
</g>
<!-- n4&#45;&gt;n11 -->
<g id="edge7" class="edge">
<title>n4&#45;&gt;n11</title>
<path fill="none" stroke="black" d="M927.64,-1222.49C907.11,-1211.31 884.18,-1198.82 863.06,-1187.31"/>
<polygon fill="black" stroke="black" points="864.59,-1184.16 854.13,-1182.45 861.24,-1190.3 864.59,-1184.16"/>
</g>
<!-- n5 -->
<g id="node9" class="node">
<title>n5</title>
<ellipse fill="#98D2A5" stroke="black" cx="390.92" cy="-1036.06" rx="190.84" ry="37.45"/>
<text text-anchor="middle" x="390.92" y="-1047.36" font-family="Times,serif" font-size="14.00">a</text>
<text text-anchor="middle" x="390.92" y="-1032.36" font-family="Times,serif" font-size="14.00">DT (NMOD)</text>
<text text-anchor="middle" x="390.92" y="-1017.36" font-family="Times,serif" font-size="14.00">rep=no, t=yes, r=no, m=yes, c=no</text>
</g>
<!-- n11&#45;&gt;n5 -->
<g id="edge8" class="edge">
<title>n11&#45;&gt;n5</title>
<path fill="none" stroke="black" d="M681.62,-1116.24C628.48,-1101.76 564.51,-1084.34 510.12,-1069.53"/>
<polygon fill="black" stroke="black" points="511,-1066.14 500.44,-1066.89 509.16,-1072.89 511,-1066.14"/>
</g>
<!-- n6 -->
<g id="node10" class="node">
<title>n6</title>
<ellipse fill="#98D2A5" stroke="black" cx="790.92" cy="-1036.06" rx="190.84" ry="37.45"/>
<text text-anchor="middle" x="790.92" y="-1047.36" font-family="Times,serif" font-size="14.00">traditional</text>
<text text-anchor="middle" x="790.92" y="-1032.36" font-family="Times,serif" font-size="14.00">JJ (NMOD)</text>
<text text-anchor="middle" x="790.92" y="-1017.36" font-family="Times,serif" font-size="14.00">rep=no, t=yes, r=no, m=yes, c=no</text>
</g>
<!-- n11&#45;&gt;n6 -->
<g id="edge9" class="edge">
<title>n11&#45;&gt;n6</title>
<path fill="none" stroke="black" d="M790.92,-1109.43C790.92,-1101.25 790.92,-1092.47 790.92,-1083.95"/>
<polygon fill="black" stroke="black" points="794.42,-1083.73 790.92,-1073.73 787.42,-1083.73 794.42,-1083.73"/>
</g>
<!-- n8 -->
<g id="node11" class="node">
<title>n8</title>
<ellipse fill="#98D2A5" stroke="black" cx="1190.92" cy="-1036.06" rx="190.84" ry="37.45"/>
<text text-anchor="middle" x="1190.92" y="-1047.36" font-family="Times,serif" font-size="14.00">center</text>
<text text-anchor="middle" x="1190.92" y="-1032.36" font-family="Times,serif" font-size="14.00">NN (NMOD)</text>
<text text-anchor="middle" x="1190.92" y="-1017.36" font-family="Times,serif" font-size="14.00">rep=no, t=yes, r=no, m=yes, c=no</text>
</g>
<!-- n11&#45;&gt;n8 -->
<g id="edge10" class="edge">
<title>n11&#45;&gt;n8</title>
<path fill="none" stroke="black" d="M900.22,-1116.24C953.36,-1101.76 1017.33,-1084.34 1071.71,-1069.53"/>
<polygon fill="black" stroke="black" points="1072.67,-1072.89 1081.4,-1066.89 1070.83,-1066.14 1072.67,-1072.89"/>
</g>
<!-- n7 -->
<g id="node12" class="node">
<title>n7</title>
<ellipse fill="#98D2A5" stroke="black" cx="790.92" cy="-925.1" rx="190.84" ry="37.45"/>
<text text-anchor="middle" x="790.92" y="-936.4" font-family="Times,serif" font-size="14.00">data</text>
<text text-anchor="middle" x="790.92" y="-921.4" font-family="Times,serif" font-size="14.00">NN (NMOD)</text>
<text text-anchor="middle" x="790.92" y="-906.4" font-family="Times,serif" font-size="14.00">rep=no, t=yes, r=no, m=yes, c=no</text>
</g>
<!-- n8&#45;&gt;n7 -->
<g id="edge11" class="edge">
<title>n8&#45;&gt;n7</title>
<path fill="none" stroke="black" d="M1081.62,-1005.28C1028.48,-990.81 964.51,-973.39 910.12,-958.57"/>
<polygon fill="black" stroke="black" points="911,-955.18 900.44,-955.93 909.16,-961.94 911,-955.18"/>
</g>
<!-- n9 -->
<g id="node13" class="node">
<title>n9</title>
<ellipse fill="#98D2A5" stroke="black" cx="1190.92" cy="-925.1" rx="190.84" ry="37.45"/>
<text text-anchor="middle" x="1190.92" y="-936.4" font-family="Times,serif" font-size="14.00">or</text>
<text text-anchor="middle" x="1190.92" y="-921.4" font-family="Times,serif" font-size="14.00">CC (COORD)</text>
<text text-anchor="middle" x="1190.92" y="-906.4" font-family="Times,serif" font-size="14.00">rep=no, t=yes, r=no, m=yes, c=no</text>
</g>
<!-- n8&#45;&gt;n9 -->
<g id="edge12" class="edge">
<title>n8&#45;&gt;n9</title>
<path fill="none" stroke="black" d="M1190.92,-998.47C1190.92,-990.3 1190.92,-981.52 1190.92,-972.99"/>
<polygon fill="black" stroke="black" points="1194.42,-972.78 1190.92,-962.78 1187.42,-972.78 1194.42,-972.78"/>
</g>
<!-- n10 -->
<g id="node14" class="node">
<title>n10</title>
<ellipse fill="#98D2A5" stroke="black" cx="1090.92" cy="-814.15" rx="190.84" ry="37.45"/>
<text text-anchor="middle" x="1090.92" y="-825.45" font-family="Times,serif" font-size="14.00">IT</text>
<text text-anchor="middle" x="1090.92" y="-810.45" font-family="Times,serif" font-size="14.00">PRP (CONJ)</text>
<text text-anchor="middle" x="1090.92" y="-795.45" font-family="Times,serif" font-size="14.00">rep=no, t=yes, r=no, m=yes, c=no</text>
</g>
<!-- n9&#45;&gt;n10 -->
<g id="edge13" class="edge">
<title>n9&#45;&gt;n10</title>
<path fill="none" stroke="black" d="M1157.9,-888.13C1149.19,-878.64 1139.71,-868.31 1130.69,-858.48"/>
<polygon fill="black" stroke="black" points="1133.25,-856.09 1123.91,-851.09 1128.09,-860.82 1133.25,-856.09"/>
</g>
<!-- n15 -->
<g id="node16" class="node">
<title>n15</title>
<ellipse fill="#98D2A5" stroke="black" cx="1190.92" cy="-1147.01" rx="190.84" ry="37.45"/>
<text text-anchor="middle" x="1190.92" y="-1158.31" font-family="Times,serif" font-size="14.00">today</text>
<text text-anchor="middle" x="1190.92" y="-1143.31" font-family="Times,serif" font-size="14.00">NN (TMP)</text>
<text text-anchor="middle" x="1190.92" y="-1128.31" font-family="Times,serif" font-size="14.00">rep=no, t=no, r=yes, m=yes, c=no</text>
</g>
<!-- n14&#45;&gt;n15 -->
<g id="edge15" class="edge">
<title>n14&#45;&gt;n15</title>
<path fill="none" stroke="black" d="M1327.64,-1222.49C1307.11,-1211.31 1284.18,-1198.82 1263.06,-1187.31"/>
<polygon fill="black" stroke="black" points="1264.59,-1184.16 1254.13,-1182.45 1261.24,-1190.3 1264.59,-1184.16"/>
</g>
<!-- n16 -->
<g id="node17" class="node">
<title>n16</title>
<ellipse fill="#98D2A5" stroke="black" cx="1590.92" cy="-1147.01" rx="190.84" ry="37.45"/>
<text text-anchor="middle" x="1590.92" y="-1158.31" font-family="Times,serif" font-size="14.00">,</text>
<text text-anchor="middle" x="1590.92" y="-1143.31" font-family="Times,serif" font-size="14.00">Fc (P)</text>
<text text-anchor="middle" x="1590.92" y="-1128.31" font-family="Times,serif" font-size="14.00">rep=no, t=no, r=yes, m=yes, c=no</text>
</g>
<!-- n14&#45;&gt;n16 -->
<g id="edge16" class="edge">
<title>n14&#45;&gt;n16</title>
<path fill="none" stroke="black" d="M1454.2,-1222.49C1474.73,-1211.31 1497.65,-1198.82 1518.78,-1187.31"/>
<polygon fill="black" stroke="black" points="1520.6,-1190.3 1527.71,-1182.45 1517.25,-1184.16 1520.6,-1190.3"/>
</g>
<!-- n17 -->
<g id="node18" class="node">
<title>n17</title>
<ellipse fill="#98D2A5" stroke="black" cx="1990.92" cy="-1147.01" rx="190.84" ry="37.45"/>
<text text-anchor="middle" x="1990.92" y="-1158.31" font-family="Times,serif" font-size="14.00">with</text>
<text text-anchor="middle" x="1990.92" y="-1143.31" font-family="Times,serif" font-size="14.00">IN (ADV)</text>
<text text-anchor="middle" x="1990.92" y="-1128.31" font-family="Times,serif" font-size="14.00">rep=no, t=no, r=yes, m=yes, c=no</text>
</g>
<!-- n14&#45;&gt;n17 -->
<g id="edge17" class="edge">
<title>n14&#45;&gt;n17</title>
<path fill="none" stroke="black" d="M1528.84,-1232.01C1605.94,-1218.06 1703.78,-1200.33 1790.92,-1184.49 1807.99,-1181.38 1825.87,-1178.13 1843.63,-1174.89"/>
<polygon fill="black" stroke="black" points="1844.27,-1178.33 1853.48,-1173.1 1843.02,-1171.45 1844.27,-1178.33"/>
</g>
<!-- n25 -->
<g id="node19" class="node">
<title>n25</title>
<ellipse fill="#98D2A5" stroke="black" cx="1990.92" cy="-1036.06" rx="190.84" ry="37.45"/>
<text text-anchor="middle" x="1990.92" y="-1047.36" font-family="Times,serif" font-size="14.00">virtualization</text>
<text text-anchor="middle" x="1990.92" y="-1032.36" font-family="Times,serif" font-size="14.00">NN (PMOD)</text>
<text text-anchor="middle" x="1990.92" y="-1017.36" font-family="Times,serif" font-size="14.00">rep=no, t=no, r=yes, m=yes, c=no</text>
</g>
<!-- n17&#45;&gt;n25 -->
<g id="edge18" class="edge">
<title>n17&#45;&gt;n25</title>
<path fill="none" stroke="black" d="M1990.92,-1109.43C1990.92,-1101.25 1990.92,-1092.47 1990.92,-1083.95"/>
<polygon fill="black" stroke="black" points="1994.42,-1083.73 1990.92,-1073.73 1987.42,-1083.73 1994.42,-1083.73"/>
</g>
<!-- n20 -->
<g id="node20" class="node">
<title>n20</title>
<ellipse fill="#98D2A5" stroke="black" cx="1590.92" cy="-925.1" rx="190.84" ry="37.45"/>
<text text-anchor="middle" x="1590.92" y="-936.4" font-family="Times,serif" font-size="14.00">types</text>
<text text-anchor="middle" x="1590.92" y="-921.4" font-family="Times,serif" font-size="14.00">NNS (NMOD)</text>
<text text-anchor="middle" x="1590.92" y="-906.4" font-family="Times,serif" font-size="14.00">rep=no, t=no, r=yes, m=yes, c=no</text>
</g>
<!-- n25&#45;&gt;n20 -->
<g id="edge19" class="edge">
<title>n25&#45;&gt;n20</title>
<path fill="none" stroke="black" d="M1881.62,-1005.28C1828.48,-990.81 1764.51,-973.39 1710.12,-958.57"/>
<polygon fill="black" stroke="black" points="1711,-955.18 1700.44,-955.93 1709.16,-961.94 1711,-955.18"/>
</g>
<!-- n23 -->
<g id="node21" class="node">
<title>n23</title>
<ellipse fill="#98D2A5" stroke="black" cx="1990.92" cy="-925.1" rx="190.84" ry="37.45"/>
<text text-anchor="middle" x="1990.92" y="-936.4" font-family="Times,serif" font-size="14.00">:</text>
<text text-anchor="middle" x="1990.92" y="-921.4" font-family="Times,serif" font-size="14.00">Fd (P)</text>
<text text-anchor="middle" x="1990.92" y="-906.4" font-family="Times,serif" font-size="14.00">rep=no, t=no, r=yes, m=yes, c=no</text>
</g>
<!-- n25&#45;&gt;n23 -->
<g id="edge20" class="edge">
<title>n25&#45;&gt;n23</title>
<path fill="none" stroke="black" d="M1990.92,-998.47C1990.92,-990.3 1990.92,-981.52 1990.92,-972.99"/>
<polygon fill="black" stroke="black" points="1994.42,-972.78 1990.92,-962.78 1987.42,-972.78 1994.42,-972.78"/>
</g>
<!-- n24 -->
<g id="node22" class="node">
<title>n24</title>
<ellipse fill="#98D2A5" stroke="black" cx="2390.92" cy="-925.1" rx="190.84" ry="37.45"/>
<text text-anchor="middle" x="2390.92" y="-936.4" font-family="Times,serif" font-size="14.00">Hardware</text>
<text text-anchor="middle" x="2390.92" y="-921.4" font-family="Times,serif" font-size="14.00">NN (NMOD)</text>
<text text-anchor="middle" x="2390.92" y="-906.4" font-family="Times,serif" font-size="14.00">rep=no, t=no, r=yes, m=yes, c=no</text>
</g>
<!-- n25&#45;&gt;n24 -->
<g id="edge21" class="edge">
<title>n25&#45;&gt;n24</title>
<path fill="none" stroke="black" d="M2100.22,-1005.28C2153.36,-990.81 2217.33,-973.39 2271.71,-958.57"/>
<polygon fill="black" stroke="black" points="2272.67,-961.94 2281.4,-955.93 2270.83,-955.18 2272.67,-961.94"/>
</g>
<!-- n26 -->
<g id="node23" class="node">
<title>n26</title>
<ellipse fill="#98D2A5" stroke="black" cx="2790.92" cy="-925.1" rx="190.84" ry="37.45"/>
<text text-anchor="middle" x="2790.92" y="-936.4" font-family="Times,serif" font-size="14.00">:</text>
<text text-anchor="middle" x="2790.92" y="-921.4" font-family="Times,serif" font-size="14.00">Fd (P)</text>
<text text-anchor="middle" x="2790.92" y="-906.4" font-family="Times,serif" font-size="14.00">rep=no, t=no, r=yes, m=yes, c=no</text>
</g>
<!-- n25&#45;&gt;n26 -->
<g id="edge22" class="edge">
<title>n25&#45;&gt;n26</title>
<path fill="none" stroke="black" d="M2157.46,-1017.66C2278.08,-1004.4 2444.9,-984.69 2590.92,-962.58 2608.96,-959.85 2627.88,-956.73 2646.57,-953.5"/>
<polygon fill="black" stroke="black" points="2647.38,-956.91 2656.63,-951.74 2646.17,-950.01 2647.38,-956.91"/>
</g>
<!-- n28 -->
<g id="node24" class="node">
<title>n28</title>
<ellipse fill="#98D2A5" stroke="black" cx="3190.92" cy="-925.1" rx="190.84" ry="37.45"/>
<text text-anchor="middle" x="3190.92" y="-936.4" font-family="Times,serif" font-size="14.00">virtualizing</text>
<text text-anchor="middle" x="3190.92" y="-921.4" font-family="Times,serif" font-size="14.00">VBG (NMOD)</text>
<text text-anchor="middle" x="3190.92" y="-906.4" font-family="Times,serif" font-size="14.00">rep=no, t=no, r=yes, m=yes, c=no</text>
</g>
<!-- n25&#45;&gt;n28 -->
<g id="edge23" class="edge">
<title>n25&#45;&gt;n28</title>
<path fill="none" stroke="black" d="M2177.2,-1027.58C2378.49,-1018.1 2708.37,-998.48 2990.92,-962.58 3009.7,-960.19 3029.4,-957.21 3048.8,-953.97"/>
<polygon fill="black" stroke="black" points="3049.63,-957.38 3058.91,-952.26 3048.46,-950.48 3049.63,-957.38"/>
</g>
<!-- n18 -->
<g id="node25" class="node">
<title>n18</title>
<ellipse fill="#98D2A5" stroke="black" cx="1490.92" cy="-814.15" rx="190.84" ry="37.45"/>
<text text-anchor="middle" x="1490.92" y="-825.45" font-family="Times,serif" font-size="14.00">various</text>
<text text-anchor="middle" x="1490.92" y="-810.45" font-family="Times,serif" font-size="14.00">JJ (NMOD)</text>
<text text-anchor="middle" x="1490.92" y="-795.45" font-family="Times,serif" font-size="14.00">rep=no, t=no, r=yes, m=yes, c=no</text>
</g>
<!-- n20&#45;&gt;n18 -->
<g id="edge24" class="edge">
<title>n20&#45;&gt;n18</title>
<path fill="none" stroke="black" d="M1557.9,-888.13C1549.19,-878.64 1539.71,-868.31 1530.69,-858.48"/>
<polygon fill="black" stroke="black" points="1533.25,-856.09 1523.91,-851.09 1528.09,-860.82 1533.25,-856.09"/>
</g>
<!-- n19 -->
<g id="node26" class="node">
<title>n19</title>
<ellipse fill="#98D2A5" stroke="black" cx="1890.92" cy="-814.15" rx="190.84" ry="37.45"/>
<text text-anchor="middle" x="1890.92" y="-825.45" font-family="Times,serif" font-size="14.00">specific</text>
<text text-anchor="middle" x="1890.92" y="-810.45" font-family="Times,serif" font-size="14.00">JJ (NMOD)</text>
<text text-anchor="middle" x="1890.92" y="-795.45" font-family="Times,serif" font-size="14.00">rep=no, t=no, r=yes, m=yes, c=no</text>
</g>
<!-- n20&#45;&gt;n19 -->
<g id="edge25" class="edge">
<title>n20&#45;&gt;n19</title>
<path fill="none" stroke="black" d="M1679.71,-891.86C1715.16,-878.98 1756.11,-864.11 1792.47,-850.91"/>
<polygon fill="black" stroke="black" points="1793.89,-854.11 1802.1,-847.41 1791.5,-847.53 1793.89,-854.11"/>
</g>
<!-- n21 -->
<g id="node27" class="node">
<title>n21</title>
<ellipse fill="#98D2A5" stroke="black" cx="2290.92" cy="-814.15" rx="190.84" ry="37.45"/>
<text text-anchor="middle" x="2290.92" y="-825.45" font-family="Times,serif" font-size="14.00">of</text>
<text text-anchor="middle" x="2290.92" y="-810.45" font-family="Times,serif" font-size="14.00">IN (NMOD)</text>
<text text-anchor="middle" x="2290.92" y="-795.45" font-family="Times,serif" font-size="14.00">rep=no, t=no, r=yes, m=yes, c=no</text>
</g>
<!-- n20&#45;&gt;n21 -->
<g id="edge26" class="edge">
<title>n20&#45;&gt;n21</title>
<path fill="none" stroke="black" d="M1725.21,-898.45C1747.13,-894.6 1769.63,-890.84 1790.92,-887.63 1923.7,-867.57 1958.14,-871.68 2090.92,-851.63 2108.96,-848.9 2127.88,-845.79 2146.58,-842.56"/>
<polygon fill="black" stroke="black" points="2147.38,-845.97 2156.63,-840.8 2146.18,-839.07 2147.38,-845.97"/>
</g>
<!-- n27 -->
<g id="node29" class="node">
<title>n27</title>
<ellipse fill="#98D2A5" stroke="black" cx="2890.92" cy="-814.15" rx="190.84" ry="37.45"/>
<text text-anchor="middle" x="2890.92" y="-825.45" font-family="Times,serif" font-size="14.00">When</text>
<text text-anchor="middle" x="2890.92" y="-810.45" font-family="Times,serif" font-size="14.00">WRB (TMP)</text>
<text text-anchor="middle" x="2890.92" y="-795.45" font-family="Times,serif" font-size="14.00">rep=no, t=no, r=yes, m=yes, c=no</text>
</g>
<!-- n28&#45;&gt;n27 -->
<g id="edge28" class="edge">
<title>n28&#45;&gt;n27</title>
<path fill="none" stroke="black" d="M3102.13,-891.86C3066.68,-878.98 3025.73,-864.11 2989.37,-850.91"/>
<polygon fill="black" stroke="black" points="2990.34,-847.53 2979.74,-847.41 2987.95,-854.11 2990.34,-847.53"/>
</g>
<!-- n29 -->
<g id="node30" class="node">
<title>n29</title>
<ellipse fill="#98D2A5" stroke="black" cx="3290.92" cy="-814.15" rx="190.84" ry="37.45"/>
<text text-anchor="middle" x="3290.92" y="-825.45" font-family="Times,serif" font-size="14.00">hardware</text>
<text text-anchor="middle" x="3290.92" y="-810.45" font-family="Times,serif" font-size="14.00">NN (OBJ)</text>
<text text-anchor="middle" x="3290.92" y="-795.45" font-family="Times,serif" font-size="14.00">rep=no, t=no, r=yes, m=yes, c=no</text>
</g>
<!-- n28&#45;&gt;n29 -->
<g id="edge29" class="edge">
<title>n28&#45;&gt;n29</title>
<path fill="none" stroke="black" d="M3223.94,-888.13C3232.64,-878.64 3242.13,-868.31 3251.15,-858.48"/>
<polygon fill="black" stroke="black" points="3253.75,-860.82 3257.93,-851.09 3248.59,-856.09 3253.75,-860.82"/>
</g>
<!-- n22 -->
<g id="node28" class="node">
<title>n22</title>
<ellipse fill="#98D2A5" stroke="black" cx="2290.92" cy="-703.2" rx="190.84" ry="37.45"/>
<text text-anchor="middle" x="2290.92" y="-714.5" font-family="Times,serif" font-size="14.00">virtualization</text>
<text text-anchor="middle" x="2290.92" y="-699.5" font-family="Times,serif" font-size="14.00">NN (PMOD)</text>
<text text-anchor="middle" x="2290.92" y="-684.5" font-family="Times,serif" font-size="14.00">rep=no, t=no, r=yes, m=yes, c=no</text>
</g>
<!-- n21&#45;&gt;n22 -->
<g id="edge27" class="edge">
<title>n21&#45;&gt;n22</title>
<path fill="none" stroke="black" d="M2290.92,-776.57C2290.92,-768.39 2290.92,-759.61 2290.92,-751.09"/>
<polygon fill="black" stroke="black" points="2294.42,-750.87 2290.92,-740.87 2287.42,-750.87 2294.42,-750.87"/>
</g>
<!-- n30 -->
<g id="node31" class="node">
<title>n30</title>
<ellipse fill="#98D2A5" stroke="black" cx="3090.92" cy="-703.2" rx="190.84" ry="37.45"/>
<text text-anchor="middle" x="3090.92" y="-714.5" font-family="Times,serif" font-size="14.00">,</text>
<text text-anchor="middle" x="3090.92" y="-699.5" font-family="Times,serif" font-size="14.00">Fc (P)</text>
<text text-anchor="middle" x="3090.92" y="-684.5" font-family="Times,serif" font-size="14.00">rep=no, t=no, r=yes, m=yes, c=no</text>
</g>
<!-- n29&#45;&gt;n30 -->
<g id="edge30" class="edge">
<title>n29&#45;&gt;n30</title>
<path fill="none" stroke="black" d="M3227.64,-778.68C3207.11,-767.49 3184.18,-755 3163.06,-743.5"/>
<polygon fill="black" stroke="black" points="3164.59,-740.34 3154.13,-738.63 3161.24,-746.49 3164.59,-740.34"/>
</g>
<!-- n41 -->
<g id="node32" class="node">
<title>n41</title>
<ellipse fill="#98D2A5" stroke="black" cx="3490.92" cy="-703.2" rx="190.84" ry="37.45"/>
<text text-anchor="middle" x="3490.92" y="-714.5" font-family="Times,serif" font-size="14.00">are</text>
<text text-anchor="middle" x="3490.92" y="-699.5" font-family="Times,serif" font-size="14.00">VBP (NMOD)</text>
<text text-anchor="middle" x="3490.92" y="-684.5" font-family="Times,serif" font-size="14.00">rep=no, t=no, r=yes, m=yes, c=no</text>
</g>
<!-- n29&#45;&gt;n41 -->
<g id="edge31" class="edge">
<title>n29&#45;&gt;n41</title>
<path fill="none" stroke="black" d="M3354.2,-778.68C3374.73,-767.49 3397.65,-755 3418.78,-743.5"/>
<polygon fill="black" stroke="black" points="3420.6,-746.49 3427.71,-738.63 3417.25,-740.34 3420.6,-746.49"/>
</g>
<!-- n32 -->
<g id="node33" class="node">
<title>n32</title>
<ellipse fill="#98D2A5" stroke="black" cx="2990.92" cy="-592.24" rx="190.84" ry="37.45"/>
<text text-anchor="middle" x="2990.92" y="-603.54" font-family="Times,serif" font-size="14.00">versions</text>
<text text-anchor="middle" x="2990.92" y="-588.54" font-family="Times,serif" font-size="14.00">NNS (SBJ)</text>
<text text-anchor="middle" x="2990.92" y="-573.54" font-family="Times,serif" font-size="14.00">rep=no, t=no, r=yes, m=yes, c=no</text>
</g>
<!-- n41&#45;&gt;n32 -->
<g id="edge32" class="edge">
<title>n41&#45;&gt;n32</title>
<path fill="none" stroke="black" d="M3365.39,-674.84C3292.58,-658.98 3200.86,-638.99 3126.42,-622.77"/>
<polygon fill="black" stroke="black" points="3127.01,-619.32 3116.5,-620.61 3125.52,-626.16 3127.01,-619.32"/>
</g>
<!-- n42 -->
<g id="node34" class="node">
<title>n42</title>
<ellipse fill="#98D2A5" stroke="black" cx="3790.92" cy="-592.24" rx="190.84" ry="37.45"/>
<text text-anchor="middle" x="3790.92" y="-603.54" font-family="Times,serif" font-size="14.00">created</text>
<text text-anchor="middle" x="3790.92" y="-588.54" font-family="Times,serif" font-size="14.00">VBN (VC)</text>
<text text-anchor="middle" x="3790.92" y="-573.54" font-family="Times,serif" font-size="14.00">rep=no, t=no, r=yes, m=yes, c=no</text>
</g>
<!-- n41&#45;&gt;n42 -->
<g id="edge33" class="edge">
<title>n41&#45;&gt;n42</title>
<path fill="none" stroke="black" d="M3579.71,-669.95C3615.16,-657.08 3656.11,-642.2 3692.47,-629"/>
<polygon fill="black" stroke="black" points="3693.89,-632.21 3702.1,-625.5 3691.5,-625.63 3693.89,-632.21"/>
</g>
<!-- n31 -->
<g id="node35" class="node">
<title>n31</title>
<ellipse fill="#98D2A5" stroke="black" cx="2390.92" cy="-481.29" rx="190.84" ry="37.45"/>
<text text-anchor="middle" x="2390.92" y="-492.59" font-family="Times,serif" font-size="14.00">virtual</text>
<text text-anchor="middle" x="2390.92" y="-477.59" font-family="Times,serif" font-size="14.00">JJ (NMOD)</text>
<text text-anchor="middle" x="2390.92" y="-462.59" font-family="Times,serif" font-size="14.00">rep=no, t=no, r=yes, m=yes, c=no</text>
</g>
<!-- n32&#45;&gt;n31 -->
<g id="edge34" class="edge">
<title>n32&#45;&gt;n31</title>
<path fill="none" stroke="black" d="M2853,-566.29C2775.9,-552.34 2678.06,-534.61 2590.92,-518.77 2573.85,-515.66 2555.97,-512.41 2538.21,-509.17"/>
<polygon fill="black" stroke="black" points="2538.82,-505.73 2528.36,-507.38 2537.57,-512.61 2538.82,-505.73"/>
</g>
<!-- n33 -->
<g id="node36" class="node">
<title>n33</title>
<ellipse fill="#98D2A5" stroke="black" cx="2790.92" cy="-481.29" rx="190.84" ry="37.45"/>
<text text-anchor="middle" x="2790.92" y="-492.59" font-family="Times,serif" font-size="14.00">of</text>
<text text-anchor="middle" x="2790.92" y="-477.59" font-family="Times,serif" font-size="14.00">IN (NMOD)</text>
<text text-anchor="middle" x="2790.92" y="-462.59" font-family="Times,serif" font-size="14.00">rep=no, t=no, r=yes, m=yes, c=no</text>
</g>
<!-- n32&#45;&gt;n33 -->
<g id="edge35" class="edge">
<title>n32&#45;&gt;n33</title>
<path fill="none" stroke="black" d="M2927.64,-556.77C2907.11,-545.59 2884.18,-533.1 2863.06,-521.59"/>
<polygon fill="black" stroke="black" points="2864.59,-518.44 2854.13,-516.73 2861.24,-524.58 2864.59,-518.44"/>
</g>
<!-- n39 -->
<g id="node37" class="node">
<title>n39</title>
<ellipse fill="#98D2A5" stroke="black" cx="3190.92" cy="-481.29" rx="190.84" ry="37.45"/>
<text text-anchor="middle" x="3190.92" y="-492.59" font-family="Times,serif" font-size="14.00">VMs</text>
<text text-anchor="middle" x="3190.92" y="-477.59" font-family="Times,serif" font-size="14.00">NP00V00 (PRN)</text>
<text text-anchor="middle" x="3190.92" y="-462.59" font-family="Times,serif" font-size="14.00">rep=no, t=no, r=yes, m=yes, c=no</text>
</g>
<!-- n32&#45;&gt;n39 -->
<g id="edge36" class="edge">
<title>n32&#45;&gt;n39</title>
<path fill="none" stroke="black" d="M3054.2,-556.77C3074.73,-545.59 3097.65,-533.1 3118.78,-521.59"/>
<polygon fill="black" stroke="black" points="3120.6,-524.58 3127.71,-516.73 3117.25,-518.44 3120.6,-524.58"/>
</g>
<!-- n43 -->
<g id="node44" class="node">
<title>n43</title>
<ellipse fill="#98D2A5" stroke="black" cx="3790.92" cy="-481.29" rx="190.84" ry="37.45"/>
<text text-anchor="middle" x="3790.92" y="-492.59" font-family="Times,serif" font-size="14.00">and</text>
<text text-anchor="middle" x="3790.92" y="-477.59" font-family="Times,serif" font-size="14.00">CC (COORD)</text>
<text text-anchor="middle" x="3790.92" y="-462.59" font-family="Times,serif" font-size="14.00">rep=no, t=no, r=yes, m=yes, c=no</text>
</g>
<!-- n42&#45;&gt;n43 -->
<g id="edge43" class="edge">
<title>n42&#45;&gt;n43</title>
<path fill="none" stroke="black" d="M3790.92,-554.66C3790.92,-546.49 3790.92,-537.71 3790.92,-529.18"/>
<polygon fill="black" stroke="black" points="3794.42,-528.96 3790.92,-518.96 3787.42,-528.96 3794.42,-528.96"/>
</g>
<!-- n45 -->
<g id="node45" class="node">
<title>n45</title>
<ellipse fill="#98D2A5" stroke="black" cx="4190.92" cy="-481.29" rx="190.84" ry="37.45"/>
<text text-anchor="middle" x="4190.92" y="-492.59" font-family="Times,serif" font-size="14.00">into</text>
<text text-anchor="middle" x="4190.92" y="-477.59" font-family="Times,serif" font-size="14.00">IN (ADV)</text>
<text text-anchor="middle" x="4190.92" y="-462.59" font-family="Times,serif" font-size="14.00">rep=no, t=no, r=yes, m=yes, c=no</text>
</g>
<!-- n42&#45;&gt;n45 -->
<g id="edge44" class="edge">
<title>n42&#45;&gt;n45</title>
<path fill="none" stroke="black" d="M3900.22,-561.47C3953.36,-547 4017.33,-529.57 4071.71,-514.76"/>
<polygon fill="black" stroke="black" points="4072.67,-518.13 4081.4,-512.12 4070.83,-511.37 4072.67,-518.13"/>
</g>
<!-- n34 -->
<g id="node38" class="node">
<title>n34</title>
<ellipse fill="#98D2A5" stroke="black" cx="2590.92" cy="-370.34" rx="190.84" ry="37.45"/>
<text text-anchor="middle" x="2590.92" y="-381.64" font-family="Times,serif" font-size="14.00">computers</text>
<text text-anchor="middle" x="2590.92" y="-366.64" font-family="Times,serif" font-size="14.00">NNS (PMOD)</text>
<text text-anchor="middle" x="2590.92" y="-351.64" font-family="Times,serif" font-size="14.00">rep=no, t=no, r=yes, m=yes, c=no</text>
</g>
<!-- n33&#45;&gt;n34 -->
<g id="edge37" class="edge">
<title>n33&#45;&gt;n34</title>
<path fill="none" stroke="black" d="M2727.64,-445.82C2707.11,-434.63 2684.18,-422.14 2663.06,-410.64"/>
<polygon fill="black" stroke="black" points="2664.59,-407.48 2654.13,-405.77 2661.24,-413.63 2664.59,-407.48"/>
</g>
<!-- n38 -->
<g id="node42" class="node">
<title>n38</title>
<ellipse fill="#98D2A5" stroke="black" cx="2990.92" cy="-370.34" rx="190.84" ry="37.45"/>
<text text-anchor="middle" x="2990.92" y="-381.64" font-family="Times,serif" font-size="14.00">(</text>
<text text-anchor="middle" x="2990.92" y="-366.64" font-family="Times,serif" font-size="14.00">Fpa (P)</text>
<text text-anchor="middle" x="2990.92" y="-351.64" font-family="Times,serif" font-size="14.00">rep=no, t=no, r=yes, m=yes, c=no</text>
</g>
<!-- n39&#45;&gt;n38 -->
<g id="edge41" class="edge">
<title>n39&#45;&gt;n38</title>
<path fill="none" stroke="black" d="M3127.64,-445.82C3107.11,-434.63 3084.18,-422.14 3063.06,-410.64"/>
<polygon fill="black" stroke="black" points="3064.59,-407.48 3054.13,-405.77 3061.24,-413.63 3064.59,-407.48"/>
</g>
<!-- n40 -->
<g id="node43" class="node">
<title>n40</title>
<ellipse fill="#98D2A5" stroke="black" cx="3390.92" cy="-370.34" rx="190.84" ry="37.45"/>
<text text-anchor="middle" x="3390.92" y="-381.64" font-family="Times,serif" font-size="14.00">)</text>
<text text-anchor="middle" x="3390.92" y="-366.64" font-family="Times,serif" font-size="14.00">Fpt (P)</text>
<text text-anchor="middle" x="3390.92" y="-351.64" font-family="Times,serif" font-size="14.00">rep=no, t=no, r=yes, m=yes, c=no</text>
</g>
<!-- n39&#45;&gt;n40 -->
<g id="edge42" class="edge">
<title>n39&#45;&gt;n40</title>
<path fill="none" stroke="black" d="M3254.2,-445.82C3274.73,-434.63 3297.65,-422.14 3318.78,-410.64"/>
<polygon fill="black" stroke="black" points="3320.6,-413.63 3327.71,-405.77 3317.25,-407.48 3320.6,-413.63"/>
</g>
<!-- n35 -->
<g id="node39" class="node">
<title>n35</title>
<ellipse fill="#98D2A5" stroke="black" cx="2590.92" cy="-259.38" rx="190.84" ry="37.45"/>
<text text-anchor="middle" x="2590.92" y="-270.68" font-family="Times,serif" font-size="14.00">and</text>
<text text-anchor="middle" x="2590.92" y="-255.68" font-family="Times,serif" font-size="14.00">CC (COORD)</text>
<text text-anchor="middle" x="2590.92" y="-240.68" font-family="Times,serif" font-size="14.00">rep=no, t=no, r=yes, m=yes, c=no</text>
</g>
<!-- n34&#45;&gt;n35 -->
<g id="edge38" class="edge">
<title>n34&#45;&gt;n35</title>
<path fill="none" stroke="black" d="M2590.92,-332.75C2590.92,-324.58 2590.92,-315.8 2590.92,-307.27"/>
<polygon fill="black" stroke="black" points="2594.42,-307.06 2590.92,-297.06 2587.42,-307.06 2594.42,-307.06"/>
</g>
<!-- n37 -->
<g id="node40" class="node">
<title>n37</title>
<ellipse fill="#98D2A5" stroke="black" cx="2590.92" cy="-148.43" rx="190.84" ry="37.45"/>
<text text-anchor="middle" x="2590.92" y="-159.73" font-family="Times,serif" font-size="14.00">systems</text>
<text text-anchor="middle" x="2590.92" y="-144.73" font-family="Times,serif" font-size="14.00">NNS (CONJ)</text>
<text text-anchor="middle" x="2590.92" y="-129.73" font-family="Times,serif" font-size="14.00">rep=no, t=no, r=yes, m=yes, c=no</text>
</g>
<!-- n35&#45;&gt;n37 -->
<g id="edge39" class="edge">
<title>n35&#45;&gt;n37</title>
<path fill="none" stroke="black" d="M2590.92,-221.8C2590.92,-213.63 2590.92,-204.85 2590.92,-196.32"/>
<polygon fill="black" stroke="black" points="2594.42,-196.1 2590.92,-186.1 2587.42,-196.1 2594.42,-196.1"/>
</g>
<!-- n36 -->
<g id="node41" class="node">
<title>n36</title>
<ellipse fill="#98D2A5" stroke="black" cx="2590.92" cy="-37.48" rx="190.84" ry="37.45"/>
<text text-anchor="middle" x="2590.92" y="-48.78" font-family="Times,serif" font-size="14.00">operating</text>
<text text-anchor="middle" x="2590.92" y="-33.78" font-family="Times,serif" font-size="14.00">VBG (NMOD)</text>
<text text-anchor="middle" x="2590.92" y="-18.78" font-family="Times,serif" font-size="14.00">rep=no, t=no, r=yes, m=yes, c=no</text>
</g>
<!-- n37&#45;&gt;n36 -->
<g id="edge40" class="edge">
<title>n37&#45;&gt;n36</title>
<path fill="none" stroke="black" d="M2590.92,-110.85C2590.92,-102.67 2590.92,-93.89 2590.92,-85.37"/>
<polygon fill="black" stroke="black" points="2594.42,-85.15 2590.92,-75.15 2587.42,-85.15 2594.42,-85.15"/>
</g>
<!-- n44 -->
<g id="node46" class="node">
<title>n44</title>
<ellipse fill="#98D2A5" stroke="black" cx="3790.92" cy="-370.34" rx="190.84" ry="37.45"/>
<text text-anchor="middle" x="3790.92" y="-381.64" font-family="Times,serif" font-size="14.00">consolidated</text>
<text text-anchor="middle" x="3790.92" y="-366.64" font-family="Times,serif" font-size="14.00">VBN (CONJ)</text>
<text text-anchor="middle" x="3790.92" y="-351.64" font-family="Times,serif" font-size="14.00">rep=no, t=no, r=yes, m=yes, c=no</text>
</g>
<!-- n43&#45;&gt;n44 -->
<g id="edge45" class="edge">
<title>n43&#45;&gt;n44</title>
<path fill="none" stroke="black" d="M3790.92,-443.71C3790.92,-435.53 3790.92,-426.75 3790.92,-418.23"/>
<polygon fill="black" stroke="black" points="3794.42,-418.01 3790.92,-408.01 3787.42,-418.01 3794.42,-418.01"/>
</g>
<!-- n52 -->
<g id="node47" class="node">
<title>n52</title>
<ellipse fill="#98D2A5" stroke="black" cx="4190.92" cy="-370.34" rx="190.84" ry="37.45"/>
<text text-anchor="middle" x="4190.92" y="-381.64" font-family="Times,serif" font-size="14.00">server</text>
<text text-anchor="middle" x="4190.92" y="-366.64" font-family="Times,serif" font-size="14.00">NN (PMOD)</text>
<text text-anchor="middle" x="4190.92" y="-351.64" font-family="Times,serif" font-size="14.00">rep=no, t=no, r=yes, m=yes, c=no</text>
</g>
<!-- n45&#45;&gt;n52 -->
<g id="edge46" class="edge">
<title>n45&#45;&gt;n52</title>
<path fill="none" stroke="black" d="M4190.92,-443.71C4190.92,-435.53 4190.92,-426.75 4190.92,-418.23"/>
<polygon fill="black" stroke="black" points="4194.42,-418.01 4190.92,-408.01 4187.42,-418.01 4194.42,-418.01"/>
</g>
<!-- n46 -->
<g id="node48" class="node">
<title>n46</title>
<ellipse fill="#98D2A5" stroke="black" cx="3190.92" cy="-259.38" rx="190.84" ry="37.45"/>
<text text-anchor="middle" x="3190.92" y="-270.68" font-family="Times,serif" font-size="14.00">a</text>
<text text-anchor="middle" x="3190.92" y="-255.68" font-family="Times,serif" font-size="14.00">DT (NMOD)</text>
<text text-anchor="middle" x="3190.92" y="-240.68" font-family="Times,serif" font-size="14.00">rep=no, t=no, r=yes, m=yes, c=no</text>
</g>
<!-- n52&#45;&gt;n46 -->
<g id="edge47" class="edge">
<title>n52&#45;&gt;n46</title>
<path fill="none" stroke="black" d="M4059.74,-343.08C4036.87,-339.17 4013.26,-335.56 3990.92,-332.86 3725.7,-300.84 3656.14,-328.88 3390.92,-296.86 3371.81,-294.55 3351.76,-291.57 3332.05,-288.31"/>
<polygon fill="black" stroke="black" points="3332.54,-284.84 3322.09,-286.64 3331.37,-291.75 3332.54,-284.84"/>
</g>
<!-- n47 -->
<g id="node49" class="node">
<title>n47</title>
<ellipse fill="#98D2A5" stroke="black" cx="3590.92" cy="-259.38" rx="190.84" ry="37.45"/>
<text text-anchor="middle" x="3590.92" y="-270.68" font-family="Times,serif" font-size="14.00">single</text>
<text text-anchor="middle" x="3590.92" y="-255.68" font-family="Times,serif" font-size="14.00">JJ (NMOD)</text>
<text text-anchor="middle" x="3590.92" y="-240.68" font-family="Times,serif" font-size="14.00">rep=no, t=no, r=yes, m=yes, c=no</text>
</g>
<!-- n52&#45;&gt;n47 -->
<g id="edge48" class="edge">
<title>n52&#45;&gt;n47</title>
<path fill="none" stroke="black" d="M4053.48,-344.23C4032.53,-340.41 4011.15,-336.53 3990.92,-332.86 3902.05,-316.76 3879.79,-312.96 3790.92,-296.86 3773.85,-293.77 3755.96,-290.52 3738.2,-287.29"/>
<polygon fill="black" stroke="black" points="3738.82,-283.84 3728.35,-285.49 3737.56,-290.73 3738.82,-283.84"/>
</g>
<!-- n48 -->
<g id="node50" class="node">
<title>n48</title>
<ellipse fill="#98D2A5" stroke="black" cx="3990.92" cy="-259.38" rx="190.84" ry="37.45"/>
<text text-anchor="middle" x="3990.92" y="-270.68" font-family="Times,serif" font-size="14.00">,</text>
<text text-anchor="middle" x="3990.92" y="-255.68" font-family="Times,serif" font-size="14.00">Fc (P)</text>
<text text-anchor="middle" x="3990.92" y="-240.68" font-family="Times,serif" font-size="14.00">rep=no, t=no, r=yes, m=yes, c=no</text>
</g>
<!-- n52&#45;&gt;n48 -->
<g id="edge49" class="edge">
<title>n52&#45;&gt;n48</title>
<path fill="none" stroke="black" d="M4127.64,-334.86C4107.11,-323.68 4084.18,-311.19 4063.06,-299.68"/>
<polygon fill="black" stroke="black" points="4064.59,-296.53 4054.13,-294.82 4061.24,-302.68 4064.59,-296.53"/>
</g>
<!-- n49 -->
<g id="node51" class="node">
<title>n49</title>
<ellipse fill="#98D2A5" stroke="black" cx="4390.92" cy="-259.38" rx="190.84" ry="37.45"/>
<text text-anchor="middle" x="4390.92" y="-270.68" font-family="Times,serif" font-size="14.00">primary</text>
<text text-anchor="middle" x="4390.92" y="-255.68" font-family="Times,serif" font-size="14.00">JJ (NMOD)</text>
<text text-anchor="middle" x="4390.92" y="-240.68" font-family="Times,serif" font-size="14.00">rep=no, t=no, r=yes, m=yes, c=no</text>
</g>
<!-- n52&#45;&gt;n49 -->
<g id="edge50" class="edge">
<title>n52&#45;&gt;n49</title>
<path fill="none" stroke="black" d="M4254.2,-334.86C4274.73,-323.68 4297.65,-311.19 4318.78,-299.68"/>
<polygon fill="black" stroke="black" points="4320.6,-302.68 4327.71,-294.82 4317.25,-296.53 4320.6,-302.68"/>
</g>
<!-- n50 -->
<g id="node52" class="node">
<title>n50</title>
<ellipse fill="#98D2A5" stroke="black" cx="4790.92" cy="-259.38" rx="190.84" ry="37.45"/>
<text text-anchor="middle" x="4790.92" y="-270.68" font-family="Times,serif" font-size="14.00">,</text>
<text text-anchor="middle" x="4790.92" y="-255.68" font-family="Times,serif" font-size="14.00">Fc (P)</text>
<text text-anchor="middle" x="4790.92" y="-240.68" font-family="Times,serif" font-size="14.00">rep=no, t=no, r=yes, m=yes, c=no</text>
</g>
<!-- n52&#45;&gt;n50 -->
<g id="edge51" class="edge">
<title>n52&#45;&gt;n50</title>
<path fill="none" stroke="black" d="M4328.84,-344.39C4405.94,-330.43 4503.78,-312.7 4590.92,-296.86 4607.99,-293.76 4625.87,-290.5 4643.63,-287.27"/>
<polygon fill="black" stroke="black" points="4644.27,-290.71 4653.48,-285.47 4643.02,-283.82 4644.27,-290.71"/>
</g>
<!-- n51 -->
<g id="node53" class="node">
<title>n51</title>
<ellipse fill="#98D2A5" stroke="black" cx="5190.92" cy="-259.38" rx="190.84" ry="37.45"/>
<text text-anchor="middle" x="5190.92" y="-270.68" font-family="Times,serif" font-size="14.00">physical</text>
<text text-anchor="middle" x="5190.92" y="-255.68" font-family="Times,serif" font-size="14.00">JJ (NMOD)</text>
<text text-anchor="middle" x="5190.92" y="-240.68" font-family="Times,serif" font-size="14.00">rep=no, t=no, r=yes, m=yes, c=no</text>
</g>
<!-- n52&#45;&gt;n51 -->
<g id="edge52" class="edge">
<title>n52&#45;&gt;n51</title>
<path fill="none" stroke="black" d="M4370.96,-357.68C4533.44,-346.05 4778.81,-325.75 4990.92,-296.86 5009.46,-294.33 5028.89,-291.29 5048.06,-288.05"/>
<polygon fill="black" stroke="black" points="5048.79,-291.48 5058.05,-286.34 5047.61,-284.58 5048.79,-291.48"/>
</g>
</g>
</svg>
