<?xml version="1.0" encoding="UTF-8" standalone="no"?>
<!DOCTYPE svg PUBLIC "-//W3C//DTD SVG 1.1//EN"
 "http://www.w3.org/Graphics/SVG/1.1/DTD/svg11.dtd">
<!-- Generated by graphviz version 2.43.0 (0)
 -->
<!-- Title: tree Pages: 1 -->
<svg width="5778pt" height="1192pt"
 viewBox="0.00 0.00 5777.84 1192.49" xmlns="http://www.w3.org/2000/svg" xmlns:xlink="http://www.w3.org/1999/xlink">
<g id="graph0" class="graph" transform="scale(1 1) rotate(0) translate(4 1188.49)">
<title>tree</title>
<polygon fill="white" stroke="transparent" points="-4,4 -4,-1188.49 5773.84,-1188.49 5773.84,4 -4,4"/>
<!-- n8 -->
<g id="node1" class="node">
<title>n8</title>
<ellipse fill="#98D2A5" stroke="black" cx="2040.92" cy="-1147.01" rx="190.84" ry="37.45"/>
<text text-anchor="middle" x="2040.92" y="-1158.31" font-family="Times,serif" font-size="14.00">can</text>
<text text-anchor="middle" x="2040.92" y="-1143.31" font-family="Times,serif" font-size="14.00">MD (root)</text>
<text text-anchor="middle" x="2040.92" y="-1128.31" font-family="Times,serif" font-size="14.00">rep=no, t=no, r=yes, m=yes, c=no</text>
</g>
<!-- n3 -->
<g id="node2" class="node">
<title>n3</title>
<ellipse fill="#98D2A5" stroke="black" cx="790.92" cy="-1036.06" rx="190.84" ry="37.45"/>
<text text-anchor="middle" x="790.92" y="-1047.36" font-family="Times,serif" font-size="14.00">types</text>
<text text-anchor="middle" x="790.92" y="-1032.36" font-family="Times,serif" font-size="14.00">NNS (SBJ)</text>
<text text-anchor="middle" x="790.92" y="-1017.36" font-family="Times,serif" font-size="14.00">rep=no, t=yes, r=no, m=yes, c=no</text>
</g>
<!-- n8&#45;&gt;n3 -->
<g id="edge1" class="edge">
<title>n8&#45;&gt;n3</title>
<path fill="none" stroke="black" d="M1868.1,-1130.95C1632.95,-1110.45 1214.04,-1073.94 973.79,-1053"/>
<polygon fill="black" stroke="black" points="973.82,-1049.49 963.55,-1052.1 973.21,-1056.46 973.82,-1049.49"/>
</g>
<!-- n9 -->
<g id="node3" class="node">
<title>n9</title>
<ellipse fill="#98D2A5" stroke="black" cx="1440.92" cy="-1036.06" rx="190.84" ry="37.45"/>
<text text-anchor="middle" x="1440.92" y="-1047.36" font-family="Times,serif" font-size="14.00">choose</text>
<text text-anchor="middle" x="1440.92" y="-1032.36" font-family="Times,serif" font-size="14.00">VB (VC)</text>
<text text-anchor="middle" x="1440.92" y="-1017.36" font-family="Times,serif" font-size="14.00">rep=no, t=no, r=yes, m=yes, c=no</text>
</g>
<!-- n8&#45;&gt;n9 -->
<g id="edge2" class="edge">
<title>n8&#45;&gt;n9</title>
<path fill="none" stroke="black" d="M1903.27,-1121.01C1809.29,-1103.95 1684.89,-1081.36 1588.8,-1063.91"/>
<polygon fill="black" stroke="black" points="1589.17,-1060.42 1578.71,-1062.08 1587.92,-1067.31 1589.17,-1060.42"/>
</g>
<!-- n23 -->
<g id="node4" class="node">
<title>n23</title>
<ellipse fill="#98D2A5" stroke="black" cx="2040.92" cy="-1036.06" rx="190.84" ry="37.45"/>
<text text-anchor="middle" x="2040.92" y="-1047.36" font-family="Times,serif" font-size="14.00">:</text>
<text text-anchor="middle" x="2040.92" y="-1032.36" font-family="Times,serif" font-size="14.00">Fd (P)</text>
<text text-anchor="middle" x="2040.92" y="-1017.36" font-family="Times,serif" font-size="14.00">rep=no, t=no, r=yes, m=yes, c=no</text>
</g>
<!-- n8&#45;&gt;n23 -->
<g id="edge3" class="edge">
<title>n8&#45;&gt;n23</title>
<path fill="none" stroke="black" d="M2040.92,-1109.43C2040.92,-1101.25 2040.92,-1092.47 2040.92,-1083.95"/>
<polygon fill="black" stroke="black" points="2044.42,-1083.73 2040.92,-1073.73 2037.42,-1083.73 2044.42,-1083.73"/>
</g>
<!-- n28 -->
<g id="node5" class="node">
<title>n28</title>
<ellipse fill="#98D2A5" stroke="black" cx="2540.92" cy="-1036.06" rx="190.84" ry="37.45"/>
<text text-anchor="middle" x="2540.92" y="-1047.36" font-family="Times,serif" font-size="14.00">allows</text>
<text text-anchor="middle" x="2540.92" y="-1032.36" font-family="Times,serif" font-size="14.00">VBZ (COORD)</text>
<text text-anchor="middle" x="2540.92" y="-1017.36" font-family="Times,serif" font-size="14.00">rep=no, t=no, r=yes, m=yes, c=no</text>
</g>
<!-- n8&#45;&gt;n28 -->
<g id="edge4" class="edge">
<title>n8&#45;&gt;n28</title>
<path fill="none" stroke="black" d="M2166.44,-1118.66C2239.26,-1102.79 2330.98,-1082.8 2405.42,-1066.58"/>
<polygon fill="black" stroke="black" points="2406.32,-1069.97 2415.34,-1064.42 2404.83,-1063.13 2406.32,-1069.97"/>
</g>
<!-- n58 -->
<g id="node6" class="node">
<title>n58</title>
<ellipse fill="#98D2A5" stroke="black" cx="2940.92" cy="-1036.06" rx="190.84" ry="37.45"/>
<text text-anchor="middle" x="2940.92" y="-1047.36" font-family="Times,serif" font-size="14.00">.</text>
<text text-anchor="middle" x="2940.92" y="-1032.36" font-family="Times,serif" font-size="14.00">Fp (P)</text>
<text text-anchor="middle" x="2940.92" y="-1017.36" font-family="Times,serif" font-size="14.00">rep=no, t=no, r=yes, m=yes, c=no</text>
</g>
<!-- n8&#45;&gt;n58 -->
<g id="edge5" class="edge">
<title>n8&#45;&gt;n58</title>
<path fill="none" stroke="black" d="M2215.42,-1131.71C2357.31,-1119.18 2562.52,-1099 2740.92,-1073.53 2759.29,-1070.91 2778.56,-1067.83 2797.57,-1064.58"/>
<polygon fill="black" stroke="black" points="2798.22,-1068.02 2807.48,-1062.87 2797.03,-1061.12 2798.22,-1068.02"/>
</g>
<!-- n1 -->
<g id="node7" class="node">
<title>n1</title>
<ellipse fill="#98D2A5" stroke="black" cx="190.92" cy="-925.1" rx="190.84" ry="37.45"/>
<text text-anchor="middle" x="190.92" y="-936.4" font-family="Times,serif" font-size="14.00">The</text>
<text text-anchor="middle" x="190.92" y="-921.4" font-family="Times,serif" font-size="14.00">DT (NMOD)</text>
<text text-anchor="middle" x="190.92" y="-906.4" font-family="Times,serif" font-size="14.00">rep=no, t=yes, r=no, m=yes, c=no</text>
</g>
<!-- n3&#45;&gt;n1 -->
<g id="edge6" class="edge">
<title>n3&#45;&gt;n1</title>
<path fill="none" stroke="black" d="M653,-1010.11C575.9,-996.15 478.06,-978.42 390.92,-962.58 373.85,-959.48 355.97,-956.22 338.21,-952.99"/>
<polygon fill="black" stroke="black" points="338.82,-949.54 328.36,-951.19 337.57,-956.43 338.82,-949.54"/>
</g>
<!-- n2 -->
<g id="node8" class="node">
<title>n2</title>
<ellipse fill="#98D2A5" stroke="black" cx="590.92" cy="-925.1" rx="190.84" ry="37.45"/>
<text text-anchor="middle" x="590.92" y="-936.4" font-family="Times,serif" font-size="14.00">two</text>
<text text-anchor="middle" x="590.92" y="-921.4" font-family="Times,serif" font-size="14.00">Z (NMOD)</text>
<text text-anchor="middle" x="590.92" y="-906.4" font-family="Times,serif" font-size="14.00">rep=no, t=yes, r=no, m=yes, c=no</text>
</g>
<!-- n3&#45;&gt;n2 -->
<g id="edge7" class="edge">
<title>n3&#45;&gt;n2</title>
<path fill="none" stroke="black" d="M727.64,-1000.58C707.11,-989.4 684.18,-976.91 663.06,-965.4"/>
<polygon fill="black" stroke="black" points="664.59,-962.25 654.13,-960.54 661.24,-968.4 664.59,-962.25"/>
</g>
<!-- n4 -->
<g id="node9" class="node">
<title>n4</title>
<ellipse fill="#98D2A5" stroke="black" cx="990.92" cy="-925.1" rx="190.84" ry="37.45"/>
<text text-anchor="middle" x="990.92" y="-936.4" font-family="Times,serif" font-size="14.00">of</text>
<text text-anchor="middle" x="990.92" y="-921.4" font-family="Times,serif" font-size="14.00">IN (NMOD)</text>
<text text-anchor="middle" x="990.92" y="-906.4" font-family="Times,serif" font-size="14.00">rep=no, t=yes, r=no, m=yes, c=no</text>
</g>
<!-- n3&#45;&gt;n4 -->
<g id="edge8" class="edge">
<title>n3&#45;&gt;n4</title>
<path fill="none" stroke="black" d="M854.2,-1000.58C874.73,-989.4 897.65,-976.91 918.78,-965.4"/>
<polygon fill="black" stroke="black" points="920.6,-968.4 927.71,-960.54 917.25,-962.25 920.6,-968.4"/>
</g>
<!-- n10 -->
<g id="node13" class="node">
<title>n10</title>
<ellipse fill="#98D2A5" stroke="black" cx="1390.92" cy="-925.1" rx="190.84" ry="37.45"/>
<text text-anchor="middle" x="1390.92" y="-936.4" font-family="Times,serif" font-size="14.00">from</text>
<text text-anchor="middle" x="1390.92" y="-921.4" font-family="Times,serif" font-size="14.00">IN (ADV)</text>
<text text-anchor="middle" x="1390.92" y="-906.4" font-family="Times,serif" font-size="14.00">rep=no, t=no, r=yes, m=yes, c=no</text>
</g>
<!-- n9&#45;&gt;n10 -->
<g id="edge12" class="edge">
<title>n9&#45;&gt;n10</title>
<path fill="none" stroke="black" d="M1424.13,-998.47C1420.21,-989.94 1416,-980.75 1411.92,-971.87"/>
<polygon fill="black" stroke="black" points="1415.1,-970.4 1407.75,-962.78 1408.74,-973.32 1415.1,-970.4"/>
</g>
<!-- n27 -->
<g id="node26" class="node">
<title>n27</title>
<ellipse fill="#98D2A5" stroke="black" cx="2365.92" cy="-925.1" rx="190.84" ry="37.45"/>
<text text-anchor="middle" x="2365.92" y="-936.4" font-family="Times,serif" font-size="14.00">machine</text>
<text text-anchor="middle" x="2365.92" y="-921.4" font-family="Times,serif" font-size="14.00">NN (SBJ)</text>
<text text-anchor="middle" x="2365.92" y="-906.4" font-family="Times,serif" font-size="14.00">rep=no, t=no, r=yes, m=yes, c=no</text>
</g>
<!-- n28&#45;&gt;n27 -->
<g id="edge25" class="edge">
<title>n28&#45;&gt;n27</title>
<path fill="none" stroke="black" d="M2484.58,-999.98C2467.41,-989.29 2448.4,-977.45 2430.71,-966.44"/>
<polygon fill="black" stroke="black" points="2432.49,-963.42 2422.15,-961.11 2428.79,-969.37 2432.49,-963.42"/>
</g>
<!-- n31 -->
<g id="node27" class="node">
<title>n31</title>
<ellipse fill="#98D2A5" stroke="black" cx="2878.92" cy="-925.1" rx="190.84" ry="37.45"/>
<text text-anchor="middle" x="2878.92" y="-936.4" font-family="Times,serif" font-size="14.00">process</text>
<text text-anchor="middle" x="2878.92" y="-921.4" font-family="Times,serif" font-size="14.00">NN (OBJ)</text>
<text text-anchor="middle" x="2878.92" y="-906.4" font-family="Times,serif" font-size="14.00">rep=no, t=no, r=yes, m=yes, c=no</text>
</g>
<!-- n28&#45;&gt;n31 -->
<g id="edge26" class="edge">
<title>n28&#45;&gt;n31</title>
<path fill="none" stroke="black" d="M2638.23,-1003.69C2680.11,-990.19 2729.21,-974.36 2772.09,-960.54"/>
<polygon fill="black" stroke="black" points="2773.27,-963.84 2781.71,-957.44 2771.12,-957.17 2773.27,-963.84"/>
</g>
<!-- n41 -->
<g id="node28" class="node">
<title>n41</title>
<ellipse fill="#98D2A5" stroke="black" cx="3278.92" cy="-925.1" rx="190.84" ry="37.45"/>
<text text-anchor="middle" x="3278.92" y="-936.4" font-family="Times,serif" font-size="14.00">,</text>
<text text-anchor="middle" x="3278.92" y="-921.4" font-family="Times,serif" font-size="14.00">Fc (P)</text>
<text text-anchor="middle" x="3278.92" y="-906.4" font-family="Times,serif" font-size="14.00">rep=no, t=no, r=yes, m=yes, c=no</text>
</g>
<!-- n28&#45;&gt;n41 -->
<g id="edge27" class="edge">
<title>n28&#45;&gt;n41</title>
<path fill="none" stroke="black" d="M2674.63,-1009.25C2696.73,-1005.39 2719.43,-1001.68 2740.92,-998.58 2890.44,-977.01 2929.39,-984.15 3078.92,-962.58 3097.21,-959.94 3116.39,-956.86 3135.33,-953.62"/>
<polygon fill="black" stroke="black" points="3135.95,-957.06 3145.21,-951.91 3134.76,-950.16 3135.95,-957.06"/>
</g>
<!-- n42 -->
<g id="node29" class="node">
<title>n42</title>
<ellipse fill="#98D2A5" stroke="black" cx="4178.92" cy="-925.1" rx="190.84" ry="37.45"/>
<text text-anchor="middle" x="4178.92" y="-936.4" font-family="Times,serif" font-size="14.00">providing</text>
<text text-anchor="middle" x="4178.92" y="-921.4" font-family="Times,serif" font-size="14.00">VBG (ADV)</text>
<text text-anchor="middle" x="4178.92" y="-906.4" font-family="Times,serif" font-size="14.00">rep=no, t=no, r=yes, m=yes, c=no</text>
</g>
<!-- n28&#45;&gt;n42 -->
<g id="edge28" class="edge">
<title>n28&#45;&gt;n42</title>
<path fill="none" stroke="black" d="M2671.53,-1008.68C2694.57,-1004.76 2718.39,-1001.17 2740.92,-998.58 3067.16,-961.04 3150.95,-979.12 3478.92,-962.58 3650.28,-953.94 3845.21,-943.75 3985.77,-936.34"/>
<polygon fill="black" stroke="black" points="3986,-939.83 3995.8,-935.81 3985.63,-932.84 3986,-939.83"/>
</g>
<!-- n6 -->
<g id="node10" class="node">
<title>n6</title>
<ellipse fill="#98D2A5" stroke="black" cx="778.92" cy="-814.15" rx="190.84" ry="37.45"/>
<text text-anchor="middle" x="778.92" y="-825.45" font-family="Times,serif" font-size="14.00">machines</text>
<text text-anchor="middle" x="778.92" y="-810.45" font-family="Times,serif" font-size="14.00">NNS (PMOD)</text>
<text text-anchor="middle" x="778.92" y="-795.45" font-family="Times,serif" font-size="14.00">rep=no, t=yes, r=no, m=yes, c=no</text>
</g>
<!-- n4&#45;&gt;n6 -->
<g id="edge9" class="edge">
<title>n4&#45;&gt;n6</title>
<path fill="none" stroke="black" d="M924.42,-889.93C902.23,-878.52 877.35,-865.73 854.52,-854"/>
<polygon fill="black" stroke="black" points="856.04,-850.85 845.54,-849.39 852.84,-857.07 856.04,-850.85"/>
</g>
<!-- n5 -->
<g id="node11" class="node">
<title>n5</title>
<ellipse fill="#98D2A5" stroke="black" cx="378.92" cy="-703.2" rx="190.84" ry="37.45"/>
<text text-anchor="middle" x="378.92" y="-714.5" font-family="Times,serif" font-size="14.00">virtual</text>
<text text-anchor="middle" x="378.92" y="-699.5" font-family="Times,serif" font-size="14.00">JJ (NMOD)</text>
<text text-anchor="middle" x="378.92" y="-684.5" font-family="Times,serif" font-size="14.00">rep=no, t=yes, r=no, m=yes, c=no</text>
</g>
<!-- n6&#45;&gt;n5 -->
<g id="edge10" class="edge">
<title>n6&#45;&gt;n5</title>
<path fill="none" stroke="black" d="M669.62,-783.38C616.48,-768.9 552.51,-751.48 498.12,-736.67"/>
<polygon fill="black" stroke="black" points="499,-733.28 488.44,-734.03 497.16,-740.03 499,-733.28"/>
</g>
<!-- n7 -->
<g id="node12" class="node">
<title>n7</title>
<ellipse fill="#98D2A5" stroke="black" cx="778.92" cy="-703.2" rx="190.84" ry="37.45"/>
<text text-anchor="middle" x="778.92" y="-714.5" font-family="Times,serif" font-size="14.00">Users</text>
<text text-anchor="middle" x="778.92" y="-699.5" font-family="Times,serif" font-size="14.00">NP00V00 (APPO)</text>
<text text-anchor="middle" x="778.92" y="-684.5" font-family="Times,serif" font-size="14.00">rep=no, t=yes, r=no, m=yes, c=no</text>
</g>
<!-- n6&#45;&gt;n7 -->
<g id="edge11" class="edge">
<title>n6&#45;&gt;n7</title>
<path fill="none" stroke="black" d="M778.92,-776.57C778.92,-768.39 778.92,-759.61 778.92,-751.09"/>
<polygon fill="black" stroke="black" points="782.42,-750.87 778.92,-740.87 775.42,-750.87 782.42,-750.87"/>
</g>
<!-- n13 -->
<g id="node14" class="node">
<title>n13</title>
<ellipse fill="#98D2A5" stroke="black" cx="1278.92" cy="-814.15" rx="190.84" ry="37.45"/>
<text text-anchor="middle" x="1278.92" y="-825.45" font-family="Times,serif" font-size="14.00">types</text>
<text text-anchor="middle" x="1278.92" y="-810.45" font-family="Times,serif" font-size="14.00">NNS (PMOD)</text>
<text text-anchor="middle" x="1278.92" y="-795.45" font-family="Times,serif" font-size="14.00">rep=no, t=no, r=yes, m=yes, c=no</text>
</g>
<!-- n10&#45;&gt;n13 -->
<g id="edge13" class="edge">
<title>n10&#45;&gt;n13</title>
<path fill="none" stroke="black" d="M1353.94,-888.13C1344.09,-878.55 1333.36,-868.11 1323.17,-858.19"/>
<polygon fill="black" stroke="black" points="1325.47,-855.55 1315.86,-851.09 1320.59,-860.57 1325.47,-855.55"/>
</g>
<!-- n11 -->
<g id="node15" class="node">
<title>n11</title>
<ellipse fill="#98D2A5" stroke="black" cx="1178.92" cy="-703.2" rx="190.84" ry="37.45"/>
<text text-anchor="middle" x="1178.92" y="-714.5" font-family="Times,serif" font-size="14.00">two</text>
<text text-anchor="middle" x="1178.92" y="-699.5" font-family="Times,serif" font-size="14.00">Z (NMOD)</text>
<text text-anchor="middle" x="1178.92" y="-684.5" font-family="Times,serif" font-size="14.00">rep=no, t=no, r=yes, m=yes, c=no</text>
</g>
<!-- n13&#45;&gt;n11 -->
<g id="edge14" class="edge">
<title>n13&#45;&gt;n11</title>
<path fill="none" stroke="black" d="M1245.9,-777.17C1237.19,-767.69 1227.71,-757.36 1218.69,-747.53"/>
<polygon fill="black" stroke="black" points="1221.25,-745.14 1211.91,-740.14 1216.09,-749.87 1221.25,-745.14"/>
</g>
<!-- n12 -->
<g id="node16" class="node">
<title>n12</title>
<ellipse fill="#98D2A5" stroke="black" cx="1578.92" cy="-703.2" rx="190.84" ry="37.45"/>
<text text-anchor="middle" x="1578.92" y="-714.5" font-family="Times,serif" font-size="14.00">different</text>
<text text-anchor="middle" x="1578.92" y="-699.5" font-family="Times,serif" font-size="14.00">JJ (NMOD)</text>
<text text-anchor="middle" x="1578.92" y="-684.5" font-family="Times,serif" font-size="14.00">rep=no, t=no, r=yes, m=yes, c=no</text>
</g>
<!-- n13&#45;&gt;n12 -->
<g id="edge15" class="edge">
<title>n13&#45;&gt;n12</title>
<path fill="none" stroke="black" d="M1367.71,-780.9C1403.16,-768.03 1444.11,-753.16 1480.47,-739.95"/>
<polygon fill="black" stroke="black" points="1481.89,-743.16 1490.1,-736.46 1479.5,-736.58 1481.89,-743.16"/>
</g>
<!-- n14 -->
<g id="node17" class="node">
<title>n14</title>
<ellipse fill="#98D2A5" stroke="black" cx="1978.92" cy="-703.2" rx="190.84" ry="37.45"/>
<text text-anchor="middle" x="1978.92" y="-714.5" font-family="Times,serif" font-size="14.00">of</text>
<text text-anchor="middle" x="1978.92" y="-699.5" font-family="Times,serif" font-size="14.00">IN (NMOD)</text>
<text text-anchor="middle" x="1978.92" y="-684.5" font-family="Times,serif" font-size="14.00">rep=no, t=no, r=yes, m=yes, c=no</text>
</g>
<!-- n13&#45;&gt;n14 -->
<g id="edge16" class="edge">
<title>n13&#45;&gt;n14</title>
<path fill="none" stroke="black" d="M1413.21,-787.5C1435.13,-783.64 1457.63,-779.89 1478.92,-776.67 1611.7,-756.62 1646.14,-760.73 1778.92,-740.67 1796.96,-737.95 1815.88,-734.83 1834.58,-731.6"/>
<polygon fill="black" stroke="black" points="1835.38,-735.02 1844.63,-729.85 1834.18,-728.12 1835.38,-735.02"/>
</g>
<!-- n19 -->
<g id="node18" class="node">
<title>n19</title>
<ellipse fill="#98D2A5" stroke="black" cx="1978.92" cy="-592.24" rx="190.84" ry="37.45"/>
<text text-anchor="middle" x="1978.92" y="-603.54" font-family="Times,serif" font-size="14.00">VMs</text>
<text text-anchor="middle" x="1978.92" y="-588.54" font-family="Times,serif" font-size="14.00">NP00V00 (PMOD)</text>
<text text-anchor="middle" x="1978.92" y="-573.54" font-family="Times,serif" font-size="14.00">rep=no, t=no, r=yes, m=yes, c=no</text>
</g>
<!-- n14&#45;&gt;n19 -->
<g id="edge17" class="edge">
<title>n14&#45;&gt;n19</title>
<path fill="none" stroke="black" d="M1978.92,-665.61C1978.92,-657.44 1978.92,-648.66 1978.92,-640.13"/>
<polygon fill="black" stroke="black" points="1982.42,-639.92 1978.92,-629.92 1975.42,-639.92 1982.42,-639.92"/>
</g>
<!-- n16 -->
<g id="node19" class="node">
<title>n16</title>
<ellipse fill="#98D2A5" stroke="black" cx="1578.92" cy="-481.29" rx="190.84" ry="37.45"/>
<text text-anchor="middle" x="1578.92" y="-492.59" font-family="Times,serif" font-size="14.00">machines</text>
<text text-anchor="middle" x="1578.92" y="-477.59" font-family="Times,serif" font-size="14.00">NNS (NMOD)</text>
<text text-anchor="middle" x="1578.92" y="-462.59" font-family="Times,serif" font-size="14.00">rep=no, t=no, r=yes, m=yes, c=no</text>
</g>
<!-- n19&#45;&gt;n16 -->
<g id="edge18" class="edge">
<title>n19&#45;&gt;n16</title>
<path fill="none" stroke="black" d="M1869.62,-561.47C1816.48,-547 1752.51,-529.57 1698.12,-514.76"/>
<polygon fill="black" stroke="black" points="1699,-511.37 1688.44,-512.12 1697.16,-518.13 1699,-511.37"/>
</g>
<!-- n18 -->
<g id="node20" class="node">
<title>n18</title>
<ellipse fill="#98D2A5" stroke="black" cx="1978.92" cy="-481.29" rx="190.84" ry="37.45"/>
<text text-anchor="middle" x="1978.92" y="-492.59" font-family="Times,serif" font-size="14.00">process</text>
<text text-anchor="middle" x="1978.92" y="-477.59" font-family="Times,serif" font-size="14.00">NN (NMOD)</text>
<text text-anchor="middle" x="1978.92" y="-462.59" font-family="Times,serif" font-size="14.00">rep=no, t=no, r=yes, m=yes, c=no</text>
</g>
<!-- n19&#45;&gt;n18 -->
<g id="edge19" class="edge">
<title>n19&#45;&gt;n18</title>
<path fill="none" stroke="black" d="M1978.92,-554.66C1978.92,-546.49 1978.92,-537.71 1978.92,-529.18"/>
<polygon fill="black" stroke="black" points="1982.42,-528.96 1978.92,-518.96 1975.42,-528.96 1982.42,-528.96"/>
</g>
<!-- n20 -->
<g id="node21" class="node">
<title>n20</title>
<ellipse fill="#98D2A5" stroke="black" cx="2378.92" cy="-481.29" rx="190.84" ry="37.45"/>
<text text-anchor="middle" x="2378.92" y="-492.59" font-family="Times,serif" font-size="14.00">and</text>
<text text-anchor="middle" x="2378.92" y="-477.59" font-family="Times,serif" font-size="14.00">CC (COORD)</text>
<text text-anchor="middle" x="2378.92" y="-462.59" font-family="Times,serif" font-size="14.00">rep=no, t=no, r=yes, m=yes, c=no</text>
</g>
<!-- n19&#45;&gt;n20 -->
<g id="edge20" class="edge">
<title>n19&#45;&gt;n20</title>
<path fill="none" stroke="black" d="M2088.22,-561.47C2141.36,-547 2205.33,-529.57 2259.71,-514.76"/>
<polygon fill="black" stroke="black" points="2260.67,-518.13 2269.4,-512.12 2258.83,-511.37 2260.67,-518.13"/>
</g>
<!-- n15 -->
<g id="node22" class="node">
<title>n15</title>
<ellipse fill="#98D2A5" stroke="black" cx="1578.92" cy="-370.34" rx="190.84" ry="37.45"/>
<text text-anchor="middle" x="1578.92" y="-381.64" font-family="Times,serif" font-size="14.00">virtual</text>
<text text-anchor="middle" x="1578.92" y="-366.64" font-family="Times,serif" font-size="14.00">JJ (NMOD)</text>
<text text-anchor="middle" x="1578.92" y="-351.64" font-family="Times,serif" font-size="14.00">rep=no, t=no, r=yes, m=yes, c=no</text>
</g>
<!-- n16&#45;&gt;n15 -->
<g id="edge21" class="edge">
<title>n16&#45;&gt;n15</title>
<path fill="none" stroke="black" d="M1578.92,-443.71C1578.92,-435.53 1578.92,-426.75 1578.92,-418.23"/>
<polygon fill="black" stroke="black" points="1582.42,-418.01 1578.92,-408.01 1575.42,-418.01 1582.42,-418.01"/>
</g>
<!-- n17 -->
<g id="node23" class="node">
<title>n17</title>
<ellipse fill="#98D2A5" stroke="black" cx="1978.92" cy="-370.34" rx="190.84" ry="37.45"/>
<text text-anchor="middle" x="1978.92" y="-381.64" font-family="Times,serif" font-size="14.00">—</text>
<text text-anchor="middle" x="1978.92" y="-366.64" font-family="Times,serif" font-size="14.00">Fz (NMOD)</text>
<text text-anchor="middle" x="1978.92" y="-351.64" font-family="Times,serif" font-size="14.00">rep=no, t=no, r=yes, m=yes, c=no</text>
</g>
<!-- n18&#45;&gt;n17 -->
<g id="edge22" class="edge">
<title>n18&#45;&gt;n17</title>
<path fill="none" stroke="black" d="M1978.92,-443.71C1978.92,-435.53 1978.92,-426.75 1978.92,-418.23"/>
<polygon fill="black" stroke="black" points="1982.42,-418.01 1978.92,-408.01 1975.42,-418.01 1982.42,-418.01"/>
</g>
<!-- n22 -->
<g id="node24" class="node">
<title>n22</title>
<ellipse fill="#98D2A5" stroke="black" cx="2378.92" cy="-370.34" rx="190.84" ry="37.45"/>
<text text-anchor="middle" x="2378.92" y="-381.64" font-family="Times,serif" font-size="14.00">VMs</text>
<text text-anchor="middle" x="2378.92" y="-366.64" font-family="Times,serif" font-size="14.00">NNS (CONJ)</text>
<text text-anchor="middle" x="2378.92" y="-351.64" font-family="Times,serif" font-size="14.00">rep=no, t=no, r=yes, m=yes, c=no</text>
</g>
<!-- n20&#45;&gt;n22 -->
<g id="edge23" class="edge">
<title>n20&#45;&gt;n22</title>
<path fill="none" stroke="black" d="M2378.92,-443.71C2378.92,-435.53 2378.92,-426.75 2378.92,-418.23"/>
<polygon fill="black" stroke="black" points="2382.42,-418.01 2378.92,-408.01 2375.42,-418.01 2382.42,-418.01"/>
</g>
<!-- n21 -->
<g id="node25" class="node">
<title>n21</title>
<ellipse fill="#98D2A5" stroke="black" cx="2378.92" cy="-259.38" rx="190.84" ry="37.45"/>
<text text-anchor="middle" x="2378.92" y="-270.68" font-family="Times,serif" font-size="14.00">system</text>
<text text-anchor="middle" x="2378.92" y="-255.68" font-family="Times,serif" font-size="14.00">NN (NMOD)</text>
<text text-anchor="middle" x="2378.92" y="-240.68" font-family="Times,serif" font-size="14.00">rep=no, t=no, r=yes, m=yes, c=no</text>
</g>
<!-- n22&#45;&gt;n21 -->
<g id="edge24" class="edge">
<title>n22&#45;&gt;n21</title>
<path fill="none" stroke="black" d="M2378.92,-332.75C2378.92,-324.58 2378.92,-315.8 2378.92,-307.27"/>
<polygon fill="black" stroke="black" points="2382.42,-307.06 2378.92,-297.06 2375.42,-307.06 2382.42,-307.06"/>
</g>
<!-- n24 -->
<g id="node30" class="node">
<title>n24</title>
<ellipse fill="#98D2A5" stroke="black" cx="1678.92" cy="-814.15" rx="190.84" ry="37.45"/>
<text text-anchor="middle" x="1678.92" y="-825.45" font-family="Times,serif" font-size="14.00">A</text>
<text text-anchor="middle" x="1678.92" y="-810.45" font-family="Times,serif" font-size="14.00">DT (NMOD)</text>
<text text-anchor="middle" x="1678.92" y="-795.45" font-family="Times,serif" font-size="14.00">rep=no, t=no, r=yes, m=yes, c=no</text>
</g>
<!-- n27&#45;&gt;n24 -->
<g id="edge29" class="edge">
<title>n27&#45;&gt;n24</title>
<path fill="none" stroke="black" d="M2213,-902.65C2116.95,-888.86 1990.55,-870.11 1878.92,-851.63 1861.28,-848.71 1842.8,-845.51 1824.49,-842.27"/>
<polygon fill="black" stroke="black" points="1825.1,-838.83 1814.64,-840.52 1823.87,-845.72 1825.1,-838.83"/>
</g>
<!-- n25 -->
<g id="node31" class="node">
<title>n25</title>
<ellipse fill="#98D2A5" stroke="black" cx="2078.92" cy="-814.15" rx="190.84" ry="37.45"/>
<text text-anchor="middle" x="2078.92" y="-825.45" font-family="Times,serif" font-size="14.00">process</text>
<text text-anchor="middle" x="2078.92" y="-810.45" font-family="Times,serif" font-size="14.00">NN (NMOD)</text>
<text text-anchor="middle" x="2078.92" y="-795.45" font-family="Times,serif" font-size="14.00">rep=no, t=no, r=yes, m=yes, c=no</text>
</g>
<!-- n27&#45;&gt;n25 -->
<g id="edge30" class="edge">
<title>n27&#45;&gt;n25</title>
<path fill="none" stroke="black" d="M2280.2,-891.56C2246.83,-878.89 2208.46,-864.33 2174.23,-851.33"/>
<polygon fill="black" stroke="black" points="2175.28,-847.99 2164.69,-847.71 2172.8,-854.53 2175.28,-847.99"/>
</g>
<!-- n26 -->
<g id="node32" class="node">
<title>n26</title>
<ellipse fill="#98D2A5" stroke="black" cx="2478.92" cy="-814.15" rx="190.84" ry="37.45"/>
<text text-anchor="middle" x="2478.92" y="-825.45" font-family="Times,serif" font-size="14.00">virtual</text>
<text text-anchor="middle" x="2478.92" y="-810.45" font-family="Times,serif" font-size="14.00">JJ (NMOD)</text>
<text text-anchor="middle" x="2478.92" y="-795.45" font-family="Times,serif" font-size="14.00">rep=no, t=no, r=yes, m=yes, c=no</text>
</g>
<!-- n27&#45;&gt;n26 -->
<g id="edge31" class="edge">
<title>n27&#45;&gt;n26</title>
<path fill="none" stroke="black" d="M2403.23,-888.13C2413.16,-878.55 2423.99,-868.11 2434.28,-858.19"/>
<polygon fill="black" stroke="black" points="2436.87,-860.55 2441.64,-851.09 2432.02,-855.51 2436.87,-860.55"/>
</g>
<!-- n29 -->
<g id="node33" class="node">
<title>n29</title>
<ellipse fill="#98D2A5" stroke="black" cx="2878.92" cy="-814.15" rx="190.84" ry="37.45"/>
<text text-anchor="middle" x="2878.92" y="-825.45" font-family="Times,serif" font-size="14.00">a</text>
<text text-anchor="middle" x="2878.92" y="-810.45" font-family="Times,serif" font-size="14.00">DT (NMOD)</text>
<text text-anchor="middle" x="2878.92" y="-795.45" font-family="Times,serif" font-size="14.00">rep=no, t=no, r=yes, m=yes, c=no</text>
</g>
<!-- n31&#45;&gt;n29 -->
<g id="edge32" class="edge">
<title>n31&#45;&gt;n29</title>
<path fill="none" stroke="black" d="M2878.92,-887.52C2878.92,-879.35 2878.92,-870.57 2878.92,-862.04"/>
<polygon fill="black" stroke="black" points="2882.42,-861.82 2878.92,-851.82 2875.42,-861.82 2882.42,-861.82"/>
</g>
<!-- n30 -->
<g id="node34" class="node">
<title>n30</title>
<ellipse fill="#98D2A5" stroke="black" cx="3278.92" cy="-814.15" rx="190.84" ry="37.45"/>
<text text-anchor="middle" x="3278.92" y="-825.45" font-family="Times,serif" font-size="14.00">single</text>
<text text-anchor="middle" x="3278.92" y="-810.45" font-family="Times,serif" font-size="14.00">JJ (NMOD)</text>
<text text-anchor="middle" x="3278.92" y="-795.45" font-family="Times,serif" font-size="14.00">rep=no, t=no, r=yes, m=yes, c=no</text>
</g>
<!-- n31&#45;&gt;n30 -->
<g id="edge33" class="edge">
<title>n31&#45;&gt;n30</title>
<path fill="none" stroke="black" d="M2988.22,-894.33C3041.36,-879.86 3105.33,-862.43 3159.71,-847.62"/>
<polygon fill="black" stroke="black" points="3160.67,-850.99 3169.4,-844.98 3158.83,-844.23 3160.67,-850.99"/>
</g>
<!-- n32 -->
<g id="node35" class="node">
<title>n32</title>
<ellipse fill="#98D2A5" stroke="black" cx="3678.92" cy="-814.15" rx="190.84" ry="37.45"/>
<text text-anchor="middle" x="3678.92" y="-825.45" font-family="Times,serif" font-size="14.00">to</text>
<text text-anchor="middle" x="3678.92" y="-810.45" font-family="Times,serif" font-size="14.00">TO (NMOD)</text>
<text text-anchor="middle" x="3678.92" y="-795.45" font-family="Times,serif" font-size="14.00">rep=no, t=no, r=yes, m=yes, c=no</text>
</g>
<!-- n31&#45;&gt;n32 -->
<g id="edge34" class="edge">
<title>n31&#45;&gt;n32</title>
<path fill="none" stroke="black" d="M3011.78,-898.13C3034.14,-894.26 3057.15,-890.59 3078.92,-887.63 3255.79,-863.59 3302.05,-875.66 3478.92,-851.63 3497.46,-849.11 3516.9,-846.07 3536.06,-842.83"/>
<polygon fill="black" stroke="black" points="3536.79,-846.26 3546.06,-841.12 3535.61,-839.36 3536.79,-846.26"/>
</g>
<!-- n46 -->
<g id="node44" class="node">
<title>n46</title>
<ellipse fill="#98D2A5" stroke="black" cx="4178.92" cy="-814.15" rx="190.84" ry="37.45"/>
<text text-anchor="middle" x="4178.92" y="-825.45" font-family="Times,serif" font-size="14.00">environment</text>
<text text-anchor="middle" x="4178.92" y="-810.45" font-family="Times,serif" font-size="14.00">NN (OBJ)</text>
<text text-anchor="middle" x="4178.92" y="-795.45" font-family="Times,serif" font-size="14.00">rep=no, t=no, r=yes, m=yes, c=no</text>
</g>
<!-- n42&#45;&gt;n46 -->
<g id="edge43" class="edge">
<title>n42&#45;&gt;n46</title>
<path fill="none" stroke="black" d="M4178.92,-887.52C4178.92,-879.35 4178.92,-870.57 4178.92,-862.04"/>
<polygon fill="black" stroke="black" points="4182.42,-861.82 4178.92,-851.82 4175.42,-861.82 4182.42,-861.82"/>
</g>
<!-- n47 -->
<g id="node45" class="node">
<title>n47</title>
<ellipse fill="#98D2A5" stroke="black" cx="4778.92" cy="-814.15" rx="190.84" ry="37.45"/>
<text text-anchor="middle" x="4778.92" y="-825.45" font-family="Times,serif" font-size="14.00">by</text>
<text text-anchor="middle" x="4778.92" y="-810.45" font-family="Times,serif" font-size="14.00">IN (LGS)</text>
<text text-anchor="middle" x="4778.92" y="-795.45" font-family="Times,serif" font-size="14.00">rep=no, t=no, r=yes, m=yes, c=no</text>
</g>
<!-- n42&#45;&gt;n47 -->
<g id="edge44" class="edge">
<title>n42&#45;&gt;n47</title>
<path fill="none" stroke="black" d="M4316.57,-899.11C4410.55,-882.04 4534.95,-859.45 4631.04,-842"/>
<polygon fill="black" stroke="black" points="4631.92,-845.4 4641.13,-840.17 4630.66,-838.51 4631.92,-845.4"/>
</g>
<!-- n33 -->
<g id="node36" class="node">
<title>n33</title>
<ellipse fill="#98D2A5" stroke="black" cx="3378.92" cy="-703.2" rx="190.84" ry="37.45"/>
<text text-anchor="middle" x="3378.92" y="-714.5" font-family="Times,serif" font-size="14.00">run</text>
<text text-anchor="middle" x="3378.92" y="-699.5" font-family="Times,serif" font-size="14.00">VB (IM)</text>
<text text-anchor="middle" x="3378.92" y="-684.5" font-family="Times,serif" font-size="14.00">rep=no, t=no, r=yes, m=yes, c=no</text>
</g>
<!-- n32&#45;&gt;n33 -->
<g id="edge35" class="edge">
<title>n32&#45;&gt;n33</title>
<path fill="none" stroke="black" d="M3590.13,-780.9C3554.68,-768.03 3513.73,-753.16 3477.37,-739.95"/>
<polygon fill="black" stroke="black" points="3478.34,-736.58 3467.74,-736.46 3475.95,-743.16 3478.34,-736.58"/>
</g>
<!-- n36 -->
<g id="node37" class="node">
<title>n36</title>
<ellipse fill="#98D2A5" stroke="black" cx="3378.92" cy="-592.24" rx="190.84" ry="37.45"/>
<text text-anchor="middle" x="3378.92" y="-603.54" font-family="Times,serif" font-size="14.00">application</text>
<text text-anchor="middle" x="3378.92" y="-588.54" font-family="Times,serif" font-size="14.00">NN (OBJ)</text>
<text text-anchor="middle" x="3378.92" y="-573.54" font-family="Times,serif" font-size="14.00">rep=no, t=no, r=yes, m=yes, c=no</text>
</g>
<!-- n33&#45;&gt;n36 -->
<g id="edge36" class="edge">
<title>n33&#45;&gt;n36</title>
<path fill="none" stroke="black" d="M3378.92,-665.61C3378.92,-657.44 3378.92,-648.66 3378.92,-640.13"/>
<polygon fill="black" stroke="black" points="3382.42,-639.92 3378.92,-629.92 3375.42,-639.92 3382.42,-639.92"/>
</g>
<!-- n34 -->
<g id="node38" class="node">
<title>n34</title>
<ellipse fill="#98D2A5" stroke="black" cx="2978.92" cy="-481.29" rx="190.84" ry="37.45"/>
<text text-anchor="middle" x="2978.92" y="-492.59" font-family="Times,serif" font-size="14.00">as</text>
<text text-anchor="middle" x="2978.92" y="-477.59" font-family="Times,serif" font-size="14.00">IN (NMOD)</text>
<text text-anchor="middle" x="2978.92" y="-462.59" font-family="Times,serif" font-size="14.00">rep=no, t=no, r=yes, m=yes, c=no</text>
</g>
<!-- n36&#45;&gt;n34 -->
<g id="edge37" class="edge">
<title>n36&#45;&gt;n34</title>
<path fill="none" stroke="black" d="M3269.62,-561.47C3216.48,-547 3152.51,-529.57 3098.12,-514.76"/>
<polygon fill="black" stroke="black" points="3099,-511.37 3088.44,-512.12 3097.16,-518.13 3099,-511.37"/>
</g>
<!-- n35 -->
<g id="node39" class="node">
<title>n35</title>
<ellipse fill="#98D2A5" stroke="black" cx="3378.92" cy="-481.29" rx="190.84" ry="37.45"/>
<text text-anchor="middle" x="3378.92" y="-492.59" font-family="Times,serif" font-size="14.00">an</text>
<text text-anchor="middle" x="3378.92" y="-477.59" font-family="Times,serif" font-size="14.00">DT (NMOD)</text>
<text text-anchor="middle" x="3378.92" y="-462.59" font-family="Times,serif" font-size="14.00">rep=no, t=no, r=yes, m=yes, c=no</text>
</g>
<!-- n36&#45;&gt;n35 -->
<g id="edge38" class="edge">
<title>n36&#45;&gt;n35</title>
<path fill="none" stroke="black" d="M3378.92,-554.66C3378.92,-546.49 3378.92,-537.71 3378.92,-529.18"/>
<polygon fill="black" stroke="black" points="3382.42,-528.96 3378.92,-518.96 3375.42,-528.96 3382.42,-528.96"/>
</g>
<!-- n37 -->
<g id="node40" class="node">
<title>n37</title>
<ellipse fill="#98D2A5" stroke="black" cx="3778.92" cy="-481.29" rx="190.84" ry="37.45"/>
<text text-anchor="middle" x="3778.92" y="-492.59" font-family="Times,serif" font-size="14.00">on</text>
<text text-anchor="middle" x="3778.92" y="-477.59" font-family="Times,serif" font-size="14.00">IN (NMOD)</text>
<text text-anchor="middle" x="3778.92" y="-462.59" font-family="Times,serif" font-size="14.00">rep=no, t=no, r=yes, m=yes, c=no</text>
</g>
<!-- n36&#45;&gt;n37 -->
<g id="edge39" class="edge">
<title>n36&#45;&gt;n37</title>
<path fill="none" stroke="black" d="M3488.22,-561.47C3541.36,-547 3605.33,-529.57 3659.71,-514.76"/>
<polygon fill="black" stroke="black" points="3660.67,-518.13 3669.4,-512.12 3658.83,-511.37 3660.67,-518.13"/>
</g>
<!-- n40 -->
<g id="node41" class="node">
<title>n40</title>
<ellipse fill="#98D2A5" stroke="black" cx="3778.92" cy="-370.34" rx="190.84" ry="37.45"/>
<text text-anchor="middle" x="3778.92" y="-381.64" font-family="Times,serif" font-size="14.00">machine</text>
<text text-anchor="middle" x="3778.92" y="-366.64" font-family="Times,serif" font-size="14.00">NN (PMOD)</text>
<text text-anchor="middle" x="3778.92" y="-351.64" font-family="Times,serif" font-size="14.00">rep=no, t=no, r=yes, m=yes, c=no</text>
</g>
<!-- n37&#45;&gt;n40 -->
<g id="edge40" class="edge">
<title>n37&#45;&gt;n40</title>
<path fill="none" stroke="black" d="M3778.92,-443.71C3778.92,-435.53 3778.92,-426.75 3778.92,-418.23"/>
<polygon fill="black" stroke="black" points="3782.42,-418.01 3778.92,-408.01 3775.42,-418.01 3782.42,-418.01"/>
</g>
<!-- n38 -->
<g id="node42" class="node">
<title>n38</title>
<ellipse fill="#98D2A5" stroke="black" cx="3578.92" cy="-259.38" rx="190.84" ry="37.45"/>
<text text-anchor="middle" x="3578.92" y="-270.68" font-family="Times,serif" font-size="14.00">a</text>
<text text-anchor="middle" x="3578.92" y="-255.68" font-family="Times,serif" font-size="14.00">DT (NMOD)</text>
<text text-anchor="middle" x="3578.92" y="-240.68" font-family="Times,serif" font-size="14.00">rep=no, t=no, r=yes, m=yes, c=no</text>
</g>
<!-- n40&#45;&gt;n38 -->
<g id="edge41" class="edge">
<title>n40&#45;&gt;n38</title>
<path fill="none" stroke="black" d="M3715.64,-334.86C3695.11,-323.68 3672.18,-311.19 3651.06,-299.68"/>
<polygon fill="black" stroke="black" points="3652.59,-296.53 3642.13,-294.82 3649.24,-302.68 3652.59,-296.53"/>
</g>
<!-- n39 -->
<g id="node43" class="node">
<title>n39</title>
<ellipse fill="#98D2A5" stroke="black" cx="3978.92" cy="-259.38" rx="190.84" ry="37.45"/>
<text text-anchor="middle" x="3978.92" y="-270.68" font-family="Times,serif" font-size="14.00">host</text>
<text text-anchor="middle" x="3978.92" y="-255.68" font-family="Times,serif" font-size="14.00">NN (NMOD)</text>
<text text-anchor="middle" x="3978.92" y="-240.68" font-family="Times,serif" font-size="14.00">rep=no, t=no, r=yes, m=yes, c=no</text>
</g>
<!-- n40&#45;&gt;n39 -->
<g id="edge42" class="edge">
<title>n40&#45;&gt;n39</title>
<path fill="none" stroke="black" d="M3842.2,-334.86C3862.73,-323.68 3885.65,-311.19 3906.78,-299.68"/>
<polygon fill="black" stroke="black" points="3908.6,-302.68 3915.71,-294.82 3905.25,-296.53 3908.6,-302.68"/>
</g>
<!-- n43 -->
<g id="node46" class="node">
<title>n43</title>
<ellipse fill="#98D2A5" stroke="black" cx="3778.92" cy="-703.2" rx="190.84" ry="37.45"/>
<text text-anchor="middle" x="3778.92" y="-714.5" font-family="Times,serif" font-size="14.00">a</text>
<text text-anchor="middle" x="3778.92" y="-699.5" font-family="Times,serif" font-size="14.00">DT (NMOD)</text>
<text text-anchor="middle" x="3778.92" y="-684.5" font-family="Times,serif" font-size="14.00">rep=no, t=no, r=yes, m=yes, c=no</text>
</g>
<!-- n46&#45;&gt;n43 -->
<g id="edge45" class="edge">
<title>n46&#45;&gt;n43</title>
<path fill="none" stroke="black" d="M4069.62,-783.38C4016.48,-768.9 3952.51,-751.48 3898.12,-736.67"/>
<polygon fill="black" stroke="black" points="3899,-733.28 3888.44,-734.03 3897.16,-740.03 3899,-733.28"/>
</g>
<!-- n44 -->
<g id="node47" class="node">
<title>n44</title>
<ellipse fill="#98D2A5" stroke="black" cx="4178.92" cy="-703.2" rx="190.84" ry="37.45"/>
<text text-anchor="middle" x="4178.92" y="-714.5" font-family="Times,serif" font-size="14.00">platform&#45;independent</text>
<text text-anchor="middle" x="4178.92" y="-699.5" font-family="Times,serif" font-size="14.00">JJ (NMOD)</text>
<text text-anchor="middle" x="4178.92" y="-684.5" font-family="Times,serif" font-size="14.00">rep=no, t=no, r=yes, m=yes, c=no</text>
</g>
<!-- n46&#45;&gt;n44 -->
<g id="edge46" class="edge">
<title>n46&#45;&gt;n44</title>
<path fill="none" stroke="black" d="M4178.92,-776.57C4178.92,-768.39 4178.92,-759.61 4178.92,-751.09"/>
<polygon fill="black" stroke="black" points="4182.42,-750.87 4178.92,-740.87 4175.42,-750.87 4182.42,-750.87"/>
</g>
<!-- n45 -->
<g id="node48" class="node">
<title>n45</title>
<ellipse fill="#98D2A5" stroke="black" cx="4578.92" cy="-703.2" rx="190.84" ry="37.45"/>
<text text-anchor="middle" x="4578.92" y="-714.5" font-family="Times,serif" font-size="14.00">programming</text>
<text text-anchor="middle" x="4578.92" y="-699.5" font-family="Times,serif" font-size="14.00">NN (NMOD)</text>
<text text-anchor="middle" x="4578.92" y="-684.5" font-family="Times,serif" font-size="14.00">rep=no, t=no, r=yes, m=yes, c=no</text>
</g>
<!-- n46&#45;&gt;n45 -->
<g id="edge47" class="edge">
<title>n46&#45;&gt;n45</title>
<path fill="none" stroke="black" d="M4288.22,-783.38C4341.36,-768.9 4405.33,-751.48 4459.71,-736.67"/>
<polygon fill="black" stroke="black" points="4460.67,-740.03 4469.4,-734.03 4458.83,-733.28 4460.67,-740.03"/>
</g>
<!-- n48 -->
<g id="node49" class="node">
<title>n48</title>
<ellipse fill="#98D2A5" stroke="black" cx="4978.92" cy="-703.2" rx="190.84" ry="37.45"/>
<text text-anchor="middle" x="4978.92" y="-714.5" font-family="Times,serif" font-size="14.00">masking</text>
<text text-anchor="middle" x="4978.92" y="-699.5" font-family="Times,serif" font-size="14.00">VBG (PMOD)</text>
<text text-anchor="middle" x="4978.92" y="-684.5" font-family="Times,serif" font-size="14.00">rep=no, t=no, r=yes, m=yes, c=no</text>
</g>
<!-- n47&#45;&gt;n48 -->
<g id="edge48" class="edge">
<title>n47&#45;&gt;n48</title>
<path fill="none" stroke="black" d="M4842.2,-778.68C4862.73,-767.49 4885.65,-755 4906.78,-743.5"/>
<polygon fill="black" stroke="black" points="4908.6,-746.49 4915.71,-738.63 4905.25,-740.34 4908.6,-746.49"/>
</g>
<!-- n50 -->
<g id="node50" class="node">
<title>n50</title>
<ellipse fill="#98D2A5" stroke="black" cx="4978.92" cy="-592.24" rx="190.84" ry="37.45"/>
<text text-anchor="middle" x="4978.92" y="-603.54" font-family="Times,serif" font-size="14.00">information</text>
<text text-anchor="middle" x="4978.92" y="-588.54" font-family="Times,serif" font-size="14.00">NN (APPO)</text>
<text text-anchor="middle" x="4978.92" y="-573.54" font-family="Times,serif" font-size="14.00">rep=no, t=no, r=yes, m=yes, c=no</text>
</g>
<!-- n48&#45;&gt;n50 -->
<g id="edge49" class="edge">
<title>n48&#45;&gt;n50</title>
<path fill="none" stroke="black" d="M4978.92,-665.61C4978.92,-657.44 4978.92,-648.66 4978.92,-640.13"/>
<polygon fill="black" stroke="black" points="4982.42,-639.92 4978.92,-629.92 4975.42,-639.92 4982.42,-639.92"/>
</g>
<!-- n49 -->
<g id="node51" class="node">
<title>n49</title>
<ellipse fill="#98D2A5" stroke="black" cx="4778.92" cy="-481.29" rx="190.84" ry="37.45"/>
<text text-anchor="middle" x="4778.92" y="-492.59" font-family="Times,serif" font-size="14.00">the</text>
<text text-anchor="middle" x="4778.92" y="-477.59" font-family="Times,serif" font-size="14.00">DT (NMOD)</text>
<text text-anchor="middle" x="4778.92" y="-462.59" font-family="Times,serif" font-size="14.00">rep=no, t=no, r=yes, m=yes, c=no</text>
</g>
<!-- n50&#45;&gt;n49 -->
<g id="edge50" class="edge">
<title>n50&#45;&gt;n49</title>
<path fill="none" stroke="black" d="M4915.64,-556.77C4895.11,-545.59 4872.18,-533.1 4851.06,-521.59"/>
<polygon fill="black" stroke="black" points="4852.59,-518.44 4842.13,-516.73 4849.24,-524.58 4852.59,-518.44"/>
</g>
<!-- n51 -->
<g id="node52" class="node">
<title>n51</title>
<ellipse fill="#98D2A5" stroke="black" cx="5178.92" cy="-481.29" rx="190.84" ry="37.45"/>
<text text-anchor="middle" x="5178.92" y="-492.59" font-family="Times,serif" font-size="14.00">of</text>
<text text-anchor="middle" x="5178.92" y="-477.59" font-family="Times,serif" font-size="14.00">IN (NMOD)</text>
<text text-anchor="middle" x="5178.92" y="-462.59" font-family="Times,serif" font-size="14.00">rep=no, t=no, r=yes, m=yes, c=no</text>
</g>
<!-- n50&#45;&gt;n51 -->
<g id="edge51" class="edge">
<title>n50&#45;&gt;n51</title>
<path fill="none" stroke="black" d="M5042.2,-556.77C5062.73,-545.59 5085.65,-533.1 5106.78,-521.59"/>
<polygon fill="black" stroke="black" points="5108.6,-524.58 5115.71,-516.73 5105.25,-518.44 5108.6,-524.58"/>
</g>
<!-- n54 -->
<g id="node53" class="node">
<title>n54</title>
<ellipse fill="#98D2A5" stroke="black" cx="5178.92" cy="-370.34" rx="190.84" ry="37.45"/>
<text text-anchor="middle" x="5178.92" y="-381.64" font-family="Times,serif" font-size="14.00">hardware</text>
<text text-anchor="middle" x="5178.92" y="-366.64" font-family="Times,serif" font-size="14.00">NN (PMOD)</text>
<text text-anchor="middle" x="5178.92" y="-351.64" font-family="Times,serif" font-size="14.00">rep=no, t=no, r=yes, m=yes, c=no</text>
</g>
<!-- n51&#45;&gt;n54 -->
<g id="edge52" class="edge">
<title>n51&#45;&gt;n54</title>
<path fill="none" stroke="black" d="M5178.92,-443.71C5178.92,-435.53 5178.92,-426.75 5178.92,-418.23"/>
<polygon fill="black" stroke="black" points="5182.42,-418.01 5178.92,-408.01 5175.42,-418.01 5182.42,-418.01"/>
</g>
<!-- n52 -->
<g id="node54" class="node">
<title>n52</title>
<ellipse fill="#98D2A5" stroke="black" cx="4778.92" cy="-259.38" rx="190.84" ry="37.45"/>
<text text-anchor="middle" x="4778.92" y="-270.68" font-family="Times,serif" font-size="14.00">the</text>
<text text-anchor="middle" x="4778.92" y="-255.68" font-family="Times,serif" font-size="14.00">DT (NMOD)</text>
<text text-anchor="middle" x="4778.92" y="-240.68" font-family="Times,serif" font-size="14.00">rep=no, t=no, r=yes, m=yes, c=no</text>
</g>
<!-- n54&#45;&gt;n52 -->
<g id="edge53" class="edge">
<title>n54&#45;&gt;n52</title>
<path fill="none" stroke="black" d="M5069.62,-339.56C5016.48,-325.09 4952.51,-307.67 4898.12,-292.85"/>
<polygon fill="black" stroke="black" points="4899,-289.46 4888.44,-290.21 4897.16,-296.22 4899,-289.46"/>
</g>
<!-- n53 -->
<g id="node55" class="node">
<title>n53</title>
<ellipse fill="#98D2A5" stroke="black" cx="5178.92" cy="-259.38" rx="190.84" ry="37.45"/>
<text text-anchor="middle" x="5178.92" y="-270.68" font-family="Times,serif" font-size="14.00">underlying</text>
<text text-anchor="middle" x="5178.92" y="-255.68" font-family="Times,serif" font-size="14.00">VBG (NMOD)</text>
<text text-anchor="middle" x="5178.92" y="-240.68" font-family="Times,serif" font-size="14.00">rep=no, t=no, r=yes, m=yes, c=no</text>
</g>
<!-- n54&#45;&gt;n53 -->
<g id="edge54" class="edge">
<title>n54&#45;&gt;n53</title>
<path fill="none" stroke="black" d="M5178.92,-332.75C5178.92,-324.58 5178.92,-315.8 5178.92,-307.27"/>
<polygon fill="black" stroke="black" points="5182.42,-307.06 5178.92,-297.06 5175.42,-307.06 5182.42,-307.06"/>
</g>
<!-- n55 -->
<g id="node56" class="node">
<title>n55</title>
<ellipse fill="#98D2A5" stroke="black" cx="5578.92" cy="-259.38" rx="190.84" ry="37.45"/>
<text text-anchor="middle" x="5578.92" y="-270.68" font-family="Times,serif" font-size="14.00">or</text>
<text text-anchor="middle" x="5578.92" y="-255.68" font-family="Times,serif" font-size="14.00">CC (COORD)</text>
<text text-anchor="middle" x="5578.92" y="-240.68" font-family="Times,serif" font-size="14.00">rep=no, t=no, r=yes, m=yes, c=no</text>
</g>
<!-- n54&#45;&gt;n55 -->
<g id="edge55" class="edge">
<title>n54&#45;&gt;n55</title>
<path fill="none" stroke="black" d="M5288.22,-339.56C5341.36,-325.09 5405.33,-307.67 5459.71,-292.85"/>
<polygon fill="black" stroke="black" points="5460.67,-296.22 5469.4,-290.21 5458.83,-289.46 5460.67,-296.22"/>
</g>
<!-- n57 -->
<g id="node57" class="node">
<title>n57</title>
<ellipse fill="#98D2A5" stroke="black" cx="5578.92" cy="-148.43" rx="190.84" ry="37.45"/>
<text text-anchor="middle" x="5578.92" y="-159.73" font-family="Times,serif" font-size="14.00">system</text>
<text text-anchor="middle" x="5578.92" y="-144.73" font-family="Times,serif" font-size="14.00">NN (CONJ)</text>
<text text-anchor="middle" x="5578.92" y="-129.73" font-family="Times,serif" font-size="14.00">rep=no, t=no, r=yes, m=yes, c=no</text>
</g>
<!-- n55&#45;&gt;n57 -->
<g id="edge56" class="edge">
<title>n55&#45;&gt;n57</title>
<path fill="none" stroke="black" d="M5578.92,-221.8C5578.92,-213.63 5578.92,-204.85 5578.92,-196.32"/>
<polygon fill="black" stroke="black" points="5582.42,-196.1 5578.92,-186.1 5575.42,-196.1 5582.42,-196.1"/>
</g>
<!-- n56 -->
<g id="node58" class="node">
<title>n56</title>
<ellipse fill="#98D2A5" stroke="black" cx="5578.92" cy="-37.48" rx="190.84" ry="37.45"/>
<text text-anchor="middle" x="5578.92" y="-48.78" font-family="Times,serif" font-size="14.00">operating</text>
<text text-anchor="middle" x="5578.92" y="-33.78" font-family="Times,serif" font-size="14.00">VBG (NMOD)</text>
<text text-anchor="middle" x="5578.92" y="-18.78" font-family="Times,serif" font-size="14.00">rep=no, t=no, r=yes, m=yes, c=no</text>
</g>
<!-- n57&#45;&gt;n56 -->
<g id="edge57" class="edge">
<title>n57&#45;&gt;n56</title>
<path fill="none" stroke="black" d="M5578.92,-110.85C5578.92,-102.67 5578.92,-93.89 5578.92,-85.37"/>
<polygon fill="black" stroke="black" points="5582.42,-85.15 5578.92,-75.15 5575.42,-85.15 5582.42,-85.15"/>
</g>
</g>
</svg>
