<?xml version="1.0" encoding="UTF-8" standalone="no"?>
<!DOCTYPE svg PUBLIC "-//W3C//DTD SVG 1.1//EN"
 "http://www.w3.org/Graphics/SVG/1.1/DTD/svg11.dtd">
<!-- Generated by graphviz version 2.43.0 (0)
 -->
<!-- Title: tree Pages: 1 -->
<svg width="1990pt" height="1414pt"
 viewBox="0.00 0.00 1989.84 1414.39" xmlns="http://www.w3.org/2000/svg" xmlns:xlink="http://www.w3.org/1999/xlink">
<g id="graph0" class="graph" transform="scale(1 1) rotate(0) translate(4 1410.39)">
<title>tree</title>
<polygon fill="white" stroke="transparent" points="-4,4 -4,-1410.39 1985.84,-1410.39 1985.84,4 -4,4"/>
<!-- n3 -->
<g id="node1" class="node">
<title>n3</title>
<ellipse fill="#98D2A5" stroke="black" cx="590.92" cy="-1368.92" rx="190.84" ry="37.45"/>
<text text-anchor="middle" x="590.92" y="-1380.22" font-family="Times,serif" font-size="14.00">can</text>
<text text-anchor="middle" x="590.92" y="-1365.22" font-family="Times,serif" font-size="14.00">MD (root)</text>
<text text-anchor="middle" x="590.92" y="-1350.22" font-family="Times,serif" font-size="14.00">rep=no, t=no, r=yes, m=yes, c=no</text>
</g>
<!-- n2 -->
<g id="node2" class="node">
<title>n2</title>
<ellipse fill="#98D2A5" stroke="black" cx="190.92" cy="-1257.96" rx="190.84" ry="37.45"/>
<text text-anchor="middle" x="190.92" y="-1269.26" font-family="Times,serif" font-size="14.00">virtualization</text>
<text text-anchor="middle" x="190.92" y="-1254.26" font-family="Times,serif" font-size="14.00">NN (SBJ)</text>
<text text-anchor="middle" x="190.92" y="-1239.26" font-family="Times,serif" font-size="14.00">rep=no, t=yes, r=no, m=yes, c=no</text>
</g>
<!-- n3&#45;&gt;n2 -->
<g id="edge1" class="edge">
<title>n3&#45;&gt;n2</title>
<path fill="none" stroke="black" d="M481.62,-1338.14C428.48,-1323.67 364.51,-1306.25 310.12,-1291.43"/>
<polygon fill="black" stroke="black" points="311,-1288.04 300.44,-1288.79 309.16,-1294.8 311,-1288.04"/>
</g>
<!-- n4 -->
<g id="node3" class="node">
<title>n4</title>
<ellipse fill="#98D2A5" stroke="black" cx="590.92" cy="-1257.96" rx="190.84" ry="37.45"/>
<text text-anchor="middle" x="590.92" y="-1269.26" font-family="Times,serif" font-size="14.00">be</text>
<text text-anchor="middle" x="590.92" y="-1254.26" font-family="Times,serif" font-size="14.00">VB (VC)</text>
<text text-anchor="middle" x="590.92" y="-1239.26" font-family="Times,serif" font-size="14.00">rep=no, t=no, r=yes, m=yes, c=no</text>
</g>
<!-- n3&#45;&gt;n4 -->
<g id="edge2" class="edge">
<title>n3&#45;&gt;n4</title>
<path fill="none" stroke="black" d="M590.92,-1331.33C590.92,-1323.16 590.92,-1314.38 590.92,-1305.85"/>
<polygon fill="black" stroke="black" points="594.42,-1305.64 590.92,-1295.64 587.42,-1305.64 594.42,-1305.64"/>
</g>
<!-- n22 -->
<g id="node4" class="node">
<title>n22</title>
<ellipse fill="#98D2A5" stroke="black" cx="990.92" cy="-1257.96" rx="190.84" ry="37.45"/>
<text text-anchor="middle" x="990.92" y="-1269.26" font-family="Times,serif" font-size="14.00">.</text>
<text text-anchor="middle" x="990.92" y="-1254.26" font-family="Times,serif" font-size="14.00">Fp (P)</text>
<text text-anchor="middle" x="990.92" y="-1239.26" font-family="Times,serif" font-size="14.00">rep=no, t=no, r=yes, m=yes, c=no</text>
</g>
<!-- n3&#45;&gt;n22 -->
<g id="edge3" class="edge">
<title>n3&#45;&gt;n22</title>
<path fill="none" stroke="black" d="M700.22,-1338.14C753.36,-1323.67 817.33,-1306.25 871.71,-1291.43"/>
<polygon fill="black" stroke="black" points="872.67,-1294.8 881.4,-1288.79 870.83,-1288.04 872.67,-1294.8"/>
</g>
<!-- n1 -->
<g id="node5" class="node">
<title>n1</title>
<ellipse fill="#98D2A5" stroke="black" cx="190.92" cy="-1147.01" rx="190.84" ry="37.45"/>
<text text-anchor="middle" x="190.92" y="-1158.31" font-family="Times,serif" font-size="14.00">Network</text>
<text text-anchor="middle" x="190.92" y="-1143.31" font-family="Times,serif" font-size="14.00">NN (NMOD)</text>
<text text-anchor="middle" x="190.92" y="-1128.31" font-family="Times,serif" font-size="14.00">rep=no, t=yes, r=no, m=yes, c=no</text>
</g>
<!-- n2&#45;&gt;n1 -->
<g id="edge4" class="edge">
<title>n2&#45;&gt;n1</title>
<path fill="none" stroke="black" d="M190.92,-1220.38C190.92,-1212.21 190.92,-1203.43 190.92,-1194.9"/>
<polygon fill="black" stroke="black" points="194.42,-1194.68 190.92,-1184.68 187.42,-1194.68 194.42,-1194.68"/>
</g>
<!-- n7 -->
<g id="node6" class="node">
<title>n7</title>
<ellipse fill="#98D2A5" stroke="black" cx="590.92" cy="-1147.01" rx="190.84" ry="37.45"/>
<text text-anchor="middle" x="590.92" y="-1158.31" font-family="Times,serif" font-size="14.00">choice</text>
<text text-anchor="middle" x="590.92" y="-1143.31" font-family="Times,serif" font-size="14.00">NN (PRD)</text>
<text text-anchor="middle" x="590.92" y="-1128.31" font-family="Times,serif" font-size="14.00">rep=no, t=no, r=yes, m=yes, c=no</text>
</g>
<!-- n4&#45;&gt;n7 -->
<g id="edge5" class="edge">
<title>n4&#45;&gt;n7</title>
<path fill="none" stroke="black" d="M590.92,-1220.38C590.92,-1212.21 590.92,-1203.43 590.92,-1194.9"/>
<polygon fill="black" stroke="black" points="594.42,-1194.68 590.92,-1184.68 587.42,-1194.68 594.42,-1194.68"/>
</g>
<!-- n5 -->
<g id="node7" class="node">
<title>n5</title>
<ellipse fill="#98D2A5" stroke="black" cx="190.92" cy="-1036.06" rx="190.84" ry="37.45"/>
<text text-anchor="middle" x="190.92" y="-1047.36" font-family="Times,serif" font-size="14.00">a</text>
<text text-anchor="middle" x="190.92" y="-1032.36" font-family="Times,serif" font-size="14.00">DT (NMOD)</text>
<text text-anchor="middle" x="190.92" y="-1017.36" font-family="Times,serif" font-size="14.00">rep=no, t=no, r=yes, m=yes, c=no</text>
</g>
<!-- n7&#45;&gt;n5 -->
<g id="edge6" class="edge">
<title>n7&#45;&gt;n5</title>
<path fill="none" stroke="black" d="M481.62,-1116.24C428.48,-1101.76 364.51,-1084.34 310.12,-1069.53"/>
<polygon fill="black" stroke="black" points="311,-1066.14 300.44,-1066.89 309.16,-1072.89 311,-1066.14"/>
</g>
<!-- n6 -->
<g id="node8" class="node">
<title>n6</title>
<ellipse fill="#98D2A5" stroke="black" cx="590.92" cy="-1036.06" rx="190.84" ry="37.45"/>
<text text-anchor="middle" x="590.92" y="-1047.36" font-family="Times,serif" font-size="14.00">good</text>
<text text-anchor="middle" x="590.92" y="-1032.36" font-family="Times,serif" font-size="14.00">JJ (NMOD)</text>
<text text-anchor="middle" x="590.92" y="-1017.36" font-family="Times,serif" font-size="14.00">rep=no, t=no, r=yes, m=yes, c=no</text>
</g>
<!-- n7&#45;&gt;n6 -->
<g id="edge7" class="edge">
<title>n7&#45;&gt;n6</title>
<path fill="none" stroke="black" d="M590.92,-1109.43C590.92,-1101.25 590.92,-1092.47 590.92,-1083.95"/>
<polygon fill="black" stroke="black" points="594.42,-1083.73 590.92,-1073.73 587.42,-1083.73 594.42,-1083.73"/>
</g>
<!-- n8 -->
<g id="node9" class="node">
<title>n8</title>
<ellipse fill="#98D2A5" stroke="black" cx="990.92" cy="-1036.06" rx="190.84" ry="37.45"/>
<text text-anchor="middle" x="990.92" y="-1047.36" font-family="Times,serif" font-size="14.00">for</text>
<text text-anchor="middle" x="990.92" y="-1032.36" font-family="Times,serif" font-size="14.00">IN (NMOD)</text>
<text text-anchor="middle" x="990.92" y="-1017.36" font-family="Times,serif" font-size="14.00">rep=no, t=no, r=yes, m=yes, c=no</text>
</g>
<!-- n7&#45;&gt;n8 -->
<g id="edge8" class="edge">
<title>n7&#45;&gt;n8</title>
<path fill="none" stroke="black" d="M700.22,-1116.24C753.36,-1101.76 817.33,-1084.34 871.71,-1069.53"/>
<polygon fill="black" stroke="black" points="872.67,-1072.89 881.4,-1066.89 870.83,-1066.14 872.67,-1072.89"/>
</g>
<!-- n9 -->
<g id="node10" class="node">
<title>n9</title>
<ellipse fill="#98D2A5" stroke="black" cx="990.92" cy="-925.1" rx="190.84" ry="37.45"/>
<text text-anchor="middle" x="990.92" y="-936.4" font-family="Times,serif" font-size="14.00">companies</text>
<text text-anchor="middle" x="990.92" y="-921.4" font-family="Times,serif" font-size="14.00">NNS (PMOD)</text>
<text text-anchor="middle" x="990.92" y="-906.4" font-family="Times,serif" font-size="14.00">rep=no, t=no, r=yes, m=yes, c=no</text>
</g>
<!-- n8&#45;&gt;n9 -->
<g id="edge9" class="edge">
<title>n8&#45;&gt;n9</title>
<path fill="none" stroke="black" d="M990.92,-998.47C990.92,-990.3 990.92,-981.52 990.92,-972.99"/>
<polygon fill="black" stroke="black" points="994.42,-972.78 990.92,-962.78 987.42,-972.78 994.42,-972.78"/>
</g>
<!-- n10 -->
<g id="node11" class="node">
<title>n10</title>
<ellipse fill="#98D2A5" stroke="black" cx="990.92" cy="-814.15" rx="190.84" ry="37.45"/>
<text text-anchor="middle" x="990.92" y="-825.45" font-family="Times,serif" font-size="14.00">with</text>
<text text-anchor="middle" x="990.92" y="-810.45" font-family="Times,serif" font-size="14.00">IN (NMOD)</text>
<text text-anchor="middle" x="990.92" y="-795.45" font-family="Times,serif" font-size="14.00">rep=no, t=no, r=yes, m=yes, c=no</text>
</g>
<!-- n9&#45;&gt;n10 -->
<g id="edge10" class="edge">
<title>n9&#45;&gt;n10</title>
<path fill="none" stroke="black" d="M990.92,-887.52C990.92,-879.35 990.92,-870.57 990.92,-862.04"/>
<polygon fill="black" stroke="black" points="994.42,-861.82 990.92,-851.82 987.42,-861.82 994.42,-861.82"/>
</g>
<!-- n13 -->
<g id="node12" class="node">
<title>n13</title>
<ellipse fill="#98D2A5" stroke="black" cx="990.92" cy="-703.2" rx="190.84" ry="37.45"/>
<text text-anchor="middle" x="990.92" y="-714.5" font-family="Times,serif" font-size="14.00">volume</text>
<text text-anchor="middle" x="990.92" y="-699.5" font-family="Times,serif" font-size="14.00">NN (PMOD)</text>
<text text-anchor="middle" x="990.92" y="-684.5" font-family="Times,serif" font-size="14.00">rep=no, t=no, r=yes, m=yes, c=no</text>
</g>
<!-- n10&#45;&gt;n13 -->
<g id="edge11" class="edge">
<title>n10&#45;&gt;n13</title>
<path fill="none" stroke="black" d="M990.92,-776.57C990.92,-768.39 990.92,-759.61 990.92,-751.09"/>
<polygon fill="black" stroke="black" points="994.42,-750.87 990.92,-740.87 987.42,-750.87 994.42,-750.87"/>
</g>
<!-- n11 -->
<g id="node13" class="node">
<title>n11</title>
<ellipse fill="#98D2A5" stroke="black" cx="590.92" cy="-592.24" rx="190.84" ry="37.45"/>
<text text-anchor="middle" x="590.92" y="-603.54" font-family="Times,serif" font-size="14.00">a</text>
<text text-anchor="middle" x="590.92" y="-588.54" font-family="Times,serif" font-size="14.00">DT (NMOD)</text>
<text text-anchor="middle" x="590.92" y="-573.54" font-family="Times,serif" font-size="14.00">rep=no, t=no, r=yes, m=yes, c=no</text>
</g>
<!-- n13&#45;&gt;n11 -->
<g id="edge12" class="edge">
<title>n13&#45;&gt;n11</title>
<path fill="none" stroke="black" d="M881.62,-672.42C828.48,-657.95 764.51,-640.53 710.12,-625.71"/>
<polygon fill="black" stroke="black" points="711,-622.32 700.44,-623.07 709.16,-629.08 711,-622.32"/>
</g>
<!-- n12 -->
<g id="node14" class="node">
<title>n12</title>
<ellipse fill="#98D2A5" stroke="black" cx="990.92" cy="-592.24" rx="190.84" ry="37.45"/>
<text text-anchor="middle" x="990.92" y="-603.54" font-family="Times,serif" font-size="14.00">high</text>
<text text-anchor="middle" x="990.92" y="-588.54" font-family="Times,serif" font-size="14.00">JJ (NMOD)</text>
<text text-anchor="middle" x="990.92" y="-573.54" font-family="Times,serif" font-size="14.00">rep=no, t=no, r=yes, m=yes, c=no</text>
</g>
<!-- n13&#45;&gt;n12 -->
<g id="edge13" class="edge">
<title>n13&#45;&gt;n12</title>
<path fill="none" stroke="black" d="M990.92,-665.61C990.92,-657.44 990.92,-648.66 990.92,-640.13"/>
<polygon fill="black" stroke="black" points="994.42,-639.92 990.92,-629.92 987.42,-639.92 994.42,-639.92"/>
</g>
<!-- n14 -->
<g id="node15" class="node">
<title>n14</title>
<ellipse fill="#98D2A5" stroke="black" cx="1390.92" cy="-592.24" rx="190.84" ry="37.45"/>
<text text-anchor="middle" x="1390.92" y="-603.54" font-family="Times,serif" font-size="14.00">of</text>
<text text-anchor="middle" x="1390.92" y="-588.54" font-family="Times,serif" font-size="14.00">IN (NMOD)</text>
<text text-anchor="middle" x="1390.92" y="-573.54" font-family="Times,serif" font-size="14.00">rep=no, t=no, r=yes, m=yes, c=no</text>
</g>
<!-- n13&#45;&gt;n14 -->
<g id="edge14" class="edge">
<title>n13&#45;&gt;n14</title>
<path fill="none" stroke="black" d="M1100.22,-672.42C1153.36,-657.95 1217.33,-640.53 1271.71,-625.71"/>
<polygon fill="black" stroke="black" points="1272.67,-629.08 1281.4,-623.07 1270.83,-622.32 1272.67,-629.08"/>
</g>
<!-- n15 -->
<g id="node16" class="node">
<title>n15</title>
<ellipse fill="#98D2A5" stroke="black" cx="1390.92" cy="-481.29" rx="190.84" ry="37.45"/>
<text text-anchor="middle" x="1390.92" y="-492.59" font-family="Times,serif" font-size="14.00">users</text>
<text text-anchor="middle" x="1390.92" y="-477.59" font-family="Times,serif" font-size="14.00">NNS (PMOD)</text>
<text text-anchor="middle" x="1390.92" y="-462.59" font-family="Times,serif" font-size="14.00">rep=no, t=no, r=yes, m=yes, c=no</text>
</g>
<!-- n14&#45;&gt;n15 -->
<g id="edge15" class="edge">
<title>n14&#45;&gt;n15</title>
<path fill="none" stroke="black" d="M1390.92,-554.66C1390.92,-546.49 1390.92,-537.71 1390.92,-529.18"/>
<polygon fill="black" stroke="black" points="1394.42,-528.96 1390.92,-518.96 1387.42,-528.96 1394.42,-528.96"/>
</g>
<!-- n17 -->
<g id="node17" class="node">
<title>n17</title>
<ellipse fill="#98D2A5" stroke="black" cx="1390.92" cy="-370.34" rx="190.84" ry="37.45"/>
<text text-anchor="middle" x="1390.92" y="-381.64" font-family="Times,serif" font-size="14.00">need</text>
<text text-anchor="middle" x="1390.92" y="-366.64" font-family="Times,serif" font-size="14.00">VBP (NMOD)</text>
<text text-anchor="middle" x="1390.92" y="-351.64" font-family="Times,serif" font-size="14.00">rep=no, t=no, r=yes, m=yes, c=no</text>
</g>
<!-- n15&#45;&gt;n17 -->
<g id="edge16" class="edge">
<title>n15&#45;&gt;n17</title>
<path fill="none" stroke="black" d="M1390.92,-443.71C1390.92,-435.53 1390.92,-426.75 1390.92,-418.23"/>
<polygon fill="black" stroke="black" points="1394.42,-418.01 1390.92,-408.01 1387.42,-418.01 1394.42,-418.01"/>
</g>
<!-- n16 -->
<g id="node18" class="node">
<title>n16</title>
<ellipse fill="#98D2A5" stroke="black" cx="990.92" cy="-259.38" rx="190.84" ry="37.45"/>
<text text-anchor="middle" x="990.92" y="-270.68" font-family="Times,serif" font-size="14.00">who</text>
<text text-anchor="middle" x="990.92" y="-255.68" font-family="Times,serif" font-size="14.00">WP (SBJ)</text>
<text text-anchor="middle" x="990.92" y="-240.68" font-family="Times,serif" font-size="14.00">rep=no, t=no, r=yes, m=yes, c=no</text>
</g>
<!-- n17&#45;&gt;n16 -->
<g id="edge17" class="edge">
<title>n17&#45;&gt;n16</title>
<path fill="none" stroke="black" d="M1281.62,-339.56C1228.48,-325.09 1164.51,-307.67 1110.12,-292.85"/>
<polygon fill="black" stroke="black" points="1111,-289.46 1100.44,-290.21 1109.16,-296.22 1111,-289.46"/>
</g>
<!-- n18 -->
<g id="node19" class="node">
<title>n18</title>
<ellipse fill="#98D2A5" stroke="black" cx="1390.92" cy="-259.38" rx="190.84" ry="37.45"/>
<text text-anchor="middle" x="1390.92" y="-270.68" font-family="Times,serif" font-size="14.00">access</text>
<text text-anchor="middle" x="1390.92" y="-255.68" font-family="Times,serif" font-size="14.00">NN (OBJ)</text>
<text text-anchor="middle" x="1390.92" y="-240.68" font-family="Times,serif" font-size="14.00">rep=no, t=no, r=yes, m=yes, c=no</text>
</g>
<!-- n17&#45;&gt;n18 -->
<g id="edge18" class="edge">
<title>n17&#45;&gt;n18</title>
<path fill="none" stroke="black" d="M1390.92,-332.75C1390.92,-324.58 1390.92,-315.8 1390.92,-307.27"/>
<polygon fill="black" stroke="black" points="1394.42,-307.06 1390.92,-297.06 1387.42,-307.06 1394.42,-307.06"/>
</g>
<!-- n19 -->
<g id="node20" class="node">
<title>n19</title>
<ellipse fill="#98D2A5" stroke="black" cx="1790.92" cy="-259.38" rx="190.84" ry="37.45"/>
<text text-anchor="middle" x="1790.92" y="-270.68" font-family="Times,serif" font-size="14.00">at</text>
<text text-anchor="middle" x="1790.92" y="-255.68" font-family="Times,serif" font-size="14.00">IN (TMP)</text>
<text text-anchor="middle" x="1790.92" y="-240.68" font-family="Times,serif" font-size="14.00">rep=no, t=no, r=yes, m=yes, c=no</text>
</g>
<!-- n17&#45;&gt;n19 -->
<g id="edge19" class="edge">
<title>n17&#45;&gt;n19</title>
<path fill="none" stroke="black" d="M1500.22,-339.56C1553.36,-325.09 1617.33,-307.67 1671.71,-292.85"/>
<polygon fill="black" stroke="black" points="1672.67,-296.22 1681.4,-290.21 1670.83,-289.46 1672.67,-296.22"/>
</g>
<!-- n21 -->
<g id="node21" class="node">
<title>n21</title>
<ellipse fill="#98D2A5" stroke="black" cx="1790.92" cy="-148.43" rx="190.84" ry="37.45"/>
<text text-anchor="middle" x="1790.92" y="-159.73" font-family="Times,serif" font-size="14.00">times</text>
<text text-anchor="middle" x="1790.92" y="-144.73" font-family="Times,serif" font-size="14.00">NNS (PMOD)</text>
<text text-anchor="middle" x="1790.92" y="-129.73" font-family="Times,serif" font-size="14.00">rep=no, t=no, r=yes, m=yes, c=no</text>
</g>
<!-- n19&#45;&gt;n21 -->
<g id="edge20" class="edge">
<title>n19&#45;&gt;n21</title>
<path fill="none" stroke="black" d="M1790.92,-221.8C1790.92,-213.63 1790.92,-204.85 1790.92,-196.32"/>
<polygon fill="black" stroke="black" points="1794.42,-196.1 1790.92,-186.1 1787.42,-196.1 1794.42,-196.1"/>
</g>
<!-- n20 -->
<g id="node22" class="node">
<title>n20</title>
<ellipse fill="#98D2A5" stroke="black" cx="1790.92" cy="-37.48" rx="190.84" ry="37.45"/>
<text text-anchor="middle" x="1790.92" y="-48.78" font-family="Times,serif" font-size="14.00">all</text>
<text text-anchor="middle" x="1790.92" y="-33.78" font-family="Times,serif" font-size="14.00">DT (NMOD)</text>
<text text-anchor="middle" x="1790.92" y="-18.78" font-family="Times,serif" font-size="14.00">rep=no, t=no, r=yes, m=yes, c=no</text>
</g>
<!-- n21&#45;&gt;n20 -->
<g id="edge21" class="edge">
<title>n21&#45;&gt;n20</title>
<path fill="none" stroke="black" d="M1790.92,-110.85C1790.92,-102.67 1790.92,-93.89 1790.92,-85.37"/>
<polygon fill="black" stroke="black" points="1794.42,-85.15 1790.92,-75.15 1787.42,-85.15 1794.42,-85.15"/>
</g>
</g>
</svg>
