<?xml version="1.0" encoding="UTF-8" standalone="no"?>
<!DOCTYPE svg PUBLIC "-//W3C//DTD SVG 1.1//EN"
 "http://www.w3.org/Graphics/SVG/1.1/DTD/svg11.dtd">
<!-- Generated by graphviz version 2.43.0 (0)
 -->
<!-- Title: tree Pages: 1 -->
<svg width="2099pt" height="1192pt"
 viewBox="0.00 0.00 2098.89 1192.49" xmlns="http://www.w3.org/2000/svg" xmlns:xlink="http://www.w3.org/1999/xlink">
<g id="graph0" class="graph" transform="scale(1 1) rotate(0) translate(4 1188.49)">
<title>tree</title>
<polygon fill="white" stroke="transparent" points="-4,4 -4,-1188.49 2094.89,-1188.49 2094.89,4 -4,4"/>
<!-- n15 -->
<g id="node1" class="node">
<title>n15</title>
<ellipse fill="#DA79E8" stroke="black" cx="1080.92" cy="-1147.01" rx="190.84" ry="37.45"/>
<text text-anchor="middle" x="1080.92" y="-1158.31" font-family="Times,serif" font-size="14.00">lograron</text>
<text text-anchor="middle" x="1080.92" y="-1143.31" font-family="Times,serif" font-size="14.00">vmis3p0 (root)</text>
<text text-anchor="middle" x="1080.92" y="-1128.31" font-family="Times,serif" font-size="14.00">rep=no, t=no, r=yes, m=yes, c=no</text>
</g>
<!-- n2 -->
<g id="node2" class="node">
<title>n2</title>
<ellipse fill="#BEDA48" stroke="black" cx="494.92" cy="-1036.06" rx="190.84" ry="37.45"/>
<text text-anchor="middle" x="494.92" y="-1047.36" font-family="Times,serif" font-size="14.00">1.500</text>
<text text-anchor="middle" x="494.92" y="-1032.36" font-family="Times,serif" font-size="14.00">z (nsubj)</text>
<text text-anchor="middle" x="494.92" y="-1017.36" font-family="Times,serif" font-size="14.00">rep=no, t=yes, r=no, m=yes, c=no</text>
</g>
<!-- n15&#45;&gt;n2 -->
<g id="edge1" class="edge">
<title>n15&#45;&gt;n2</title>
<path fill="none" stroke="black" d="M944.64,-1120.67C853.69,-1103.76 734.2,-1081.55 641.25,-1064.26"/>
<polygon fill="black" stroke="black" points="641.67,-1060.78 631.19,-1062.39 640.39,-1067.66 641.67,-1060.78"/>
</g>
<!-- n16 -->
<g id="node3" class="node">
<title>n16</title>
<ellipse fill="none" stroke="black" cx="885.92" cy="-1036.06" rx="181.95" ry="37.45"/>
<text text-anchor="middle" x="885.92" y="-1047.36" font-family="Times,serif" font-size="14.00">ayer</text>
<text text-anchor="middle" x="885.92" y="-1032.36" font-family="Times,serif" font-size="14.00">rg (advmod)</text>
<text text-anchor="middle" x="885.92" y="-1017.36" font-family="Times,serif" font-size="14.00">rep=no, t=no, r=no, m=no, c=no</text>
</g>
<!-- n15&#45;&gt;n16 -->
<g id="edge2" class="edge">
<title>n15&#45;&gt;n16</title>
<path fill="none" stroke="black" d="M1019.22,-1111.54C999.29,-1100.4 977.05,-1087.98 956.53,-1076.51"/>
<polygon fill="black" stroke="black" points="957.99,-1073.31 947.55,-1071.49 954.57,-1079.43 957.99,-1073.31"/>
</g>
<!-- n17 -->
<g id="node4" class="node">
<title>n17</title>
<ellipse fill="#DA79E8" stroke="black" cx="1276.92" cy="-1036.06" rx="190.84" ry="37.45"/>
<text text-anchor="middle" x="1276.92" y="-1047.36" font-family="Times,serif" font-size="14.00">recuperar</text>
<text text-anchor="middle" x="1276.92" y="-1032.36" font-family="Times,serif" font-size="14.00">vmn0000 (dobj)</text>
<text text-anchor="middle" x="1276.92" y="-1017.36" font-family="Times,serif" font-size="14.00">rep=no, t=no, r=yes, m=yes, c=no</text>
</g>
<!-- n15&#45;&gt;n17 -->
<g id="edge3" class="edge">
<title>n15&#45;&gt;n17</title>
<path fill="none" stroke="black" d="M1142.93,-1111.54C1162.86,-1100.46 1185.1,-1088.1 1205.64,-1076.68"/>
<polygon fill="black" stroke="black" points="1207.59,-1079.6 1214.63,-1071.68 1204.19,-1073.48 1207.59,-1079.6"/>
</g>
<!-- n27 -->
<g id="node5" class="node">
<title>n27</title>
<ellipse fill="none" stroke="black" cx="1667.92" cy="-1036.06" rx="181.95" ry="37.45"/>
<text text-anchor="middle" x="1667.92" y="-1047.36" font-family="Times,serif" font-size="14.00">.</text>
<text text-anchor="middle" x="1667.92" y="-1032.36" font-family="Times,serif" font-size="14.00">fp (punct)</text>
<text text-anchor="middle" x="1667.92" y="-1017.36" font-family="Times,serif" font-size="14.00">rep=no, t=no, r=no, m=no, c=no</text>
</g>
<!-- n15&#45;&gt;n27 -->
<g id="edge4" class="edge">
<title>n15&#45;&gt;n27</title>
<path fill="none" stroke="black" d="M1218.87,-1121.03C1295,-1107.18 1391.21,-1089.56 1476.92,-1073.53 1493.22,-1070.49 1510.29,-1067.27 1527.24,-1064.05"/>
<polygon fill="black" stroke="black" points="1528.03,-1067.46 1537.2,-1062.16 1526.72,-1060.59 1528.03,-1067.46"/>
</g>
<!-- n1 -->
<g id="node6" class="node">
<title>n1</title>
<ellipse fill="#BEDA48" stroke="black" cx="190.92" cy="-925.1" rx="190.84" ry="37.45"/>
<text text-anchor="middle" x="190.92" y="-936.4" font-family="Times,serif" font-size="14.00">Sólo</text>
<text text-anchor="middle" x="190.92" y="-921.4" font-family="Times,serif" font-size="14.00">rg (advmod)</text>
<text text-anchor="middle" x="190.92" y="-906.4" font-family="Times,serif" font-size="14.00">rep=no, t=yes, r=no, m=yes, c=no</text>
</g>
<!-- n2&#45;&gt;n1 -->
<g id="edge5" class="edge">
<title>n2&#45;&gt;n1</title>
<path fill="none" stroke="black" d="M405.35,-1002.96C369.26,-990.02 327.48,-975.05 290.44,-961.77"/>
<polygon fill="black" stroke="black" points="291.23,-958.34 280.63,-958.26 288.86,-964.93 291.23,-958.34"/>
</g>
<!-- n3 -->
<g id="node7" class="node">
<title>n3</title>
<ellipse fill="#BEDA48" stroke="black" cx="590.92" cy="-925.1" rx="190.84" ry="37.45"/>
<text text-anchor="middle" x="590.92" y="-936.4" font-family="Times,serif" font-size="14.00">de</text>
<text text-anchor="middle" x="590.92" y="-921.4" font-family="Times,serif" font-size="14.00">sps00 (prep)</text>
<text text-anchor="middle" x="590.92" y="-906.4" font-family="Times,serif" font-size="14.00">rep=no, t=yes, r=no, m=yes, c=no</text>
</g>
<!-- n2&#45;&gt;n3 -->
<g id="edge6" class="edge">
<title>n2&#45;&gt;n3</title>
<path fill="none" stroke="black" d="M526.62,-999.08C534.81,-989.79 543.71,-979.68 552.21,-970.03"/>
<polygon fill="black" stroke="black" points="554.94,-972.23 558.92,-962.42 549.69,-967.6 554.94,-972.23"/>
</g>
<!-- n19 -->
<g id="node19" class="node">
<title>n19</title>
<ellipse fill="#DA79E8" stroke="black" cx="1276.92" cy="-925.1" rx="190.84" ry="37.45"/>
<text text-anchor="middle" x="1276.92" y="-936.4" font-family="Times,serif" font-size="14.00">importe</text>
<text text-anchor="middle" x="1276.92" y="-921.4" font-family="Times,serif" font-size="14.00">ncms000 (dobj)</text>
<text text-anchor="middle" x="1276.92" y="-906.4" font-family="Times,serif" font-size="14.00">rep=no, t=no, r=yes, m=yes, c=no</text>
</g>
<!-- n17&#45;&gt;n19 -->
<g id="edge18" class="edge">
<title>n17&#45;&gt;n19</title>
<path fill="none" stroke="black" d="M1276.92,-998.47C1276.92,-990.3 1276.92,-981.52 1276.92,-972.99"/>
<polygon fill="black" stroke="black" points="1280.42,-972.78 1276.92,-962.78 1273.42,-972.78 1280.42,-972.78"/>
</g>
<!-- n6 -->
<g id="node8" class="node">
<title>n6</title>
<ellipse fill="#BEDA48" stroke="black" cx="590.92" cy="-814.15" rx="190.84" ry="37.45"/>
<text text-anchor="middle" x="590.92" y="-825.45" font-family="Times,serif" font-size="14.00">afectados</text>
<text text-anchor="middle" x="590.92" y="-810.45" font-family="Times,serif" font-size="14.00">aq0mpp (pobj)</text>
<text text-anchor="middle" x="590.92" y="-795.45" font-family="Times,serif" font-size="14.00">rep=no, t=yes, r=no, m=yes, c=no</text>
</g>
<!-- n3&#45;&gt;n6 -->
<g id="edge7" class="edge">
<title>n3&#45;&gt;n6</title>
<path fill="none" stroke="black" d="M590.92,-887.52C590.92,-879.35 590.92,-870.57 590.92,-862.04"/>
<polygon fill="black" stroke="black" points="594.42,-861.82 590.92,-851.82 587.42,-861.82 594.42,-861.82"/>
</g>
<!-- n4 -->
<g id="node9" class="node">
<title>n4</title>
<ellipse fill="#BEDA48" stroke="black" cx="365.92" cy="-703.2" rx="190.84" ry="37.45"/>
<text text-anchor="middle" x="365.92" y="-714.5" font-family="Times,serif" font-size="14.00">los</text>
<text text-anchor="middle" x="365.92" y="-699.5" font-family="Times,serif" font-size="14.00">da0mp0 (det)</text>
<text text-anchor="middle" x="365.92" y="-684.5" font-family="Times,serif" font-size="14.00">rep=no, t=yes, r=no, m=yes, c=no</text>
</g>
<!-- n6&#45;&gt;n4 -->
<g id="edge8" class="edge">
<title>n6&#45;&gt;n4</title>
<path fill="none" stroke="black" d="M520.96,-779.27C497.05,-767.7 470.14,-754.66 445.53,-742.75"/>
<polygon fill="black" stroke="black" points="446.75,-739.45 436.22,-738.24 443.7,-745.75 446.75,-739.45"/>
</g>
<!-- n7 -->
<g id="node10" class="node">
<title>n7</title>
<ellipse fill="#BEDA48" stroke="black" cx="765.92" cy="-703.2" rx="190.84" ry="37.45"/>
<text text-anchor="middle" x="765.92" y="-714.5" font-family="Times,serif" font-size="14.00">por</text>
<text text-anchor="middle" x="765.92" y="-699.5" font-family="Times,serif" font-size="14.00">sps00 (prepa)</text>
<text text-anchor="middle" x="765.92" y="-684.5" font-family="Times,serif" font-size="14.00">rep=no, t=yes, r=no, m=yes, c=no</text>
</g>
<!-- n6&#45;&gt;n7 -->
<g id="edge9" class="edge">
<title>n6&#45;&gt;n7</title>
<path fill="none" stroke="black" d="M647.25,-778.08C664.43,-767.38 683.44,-755.55 701.13,-744.53"/>
<polygon fill="black" stroke="black" points="703.05,-747.46 709.69,-739.2 699.35,-741.52 703.05,-747.46"/>
</g>
<!-- n5 -->
<g id="node11" class="node">
<title>n5</title>
<ellipse fill="#BEDA48" stroke="black" cx="365.92" cy="-592.24" rx="190.84" ry="37.45"/>
<text text-anchor="middle" x="365.92" y="-603.54" font-family="Times,serif" font-size="14.00">15.000</text>
<text text-anchor="middle" x="365.92" y="-588.54" font-family="Times,serif" font-size="14.00">z (num)</text>
<text text-anchor="middle" x="365.92" y="-573.54" font-family="Times,serif" font-size="14.00">rep=no, t=yes, r=no, m=yes, c=no</text>
</g>
<!-- n4&#45;&gt;n5 -->
<g id="edge10" class="edge">
<title>n4&#45;&gt;n5</title>
<path fill="none" stroke="black" d="M365.92,-665.61C365.92,-657.44 365.92,-648.66 365.92,-640.13"/>
<polygon fill="black" stroke="black" points="369.42,-639.92 365.92,-629.92 362.42,-639.92 369.42,-639.92"/>
</g>
<!-- n9 -->
<g id="node12" class="node">
<title>n9</title>
<ellipse fill="#BEDA48" stroke="black" cx="765.92" cy="-592.24" rx="190.84" ry="37.45"/>
<text text-anchor="middle" x="765.92" y="-603.54" font-family="Times,serif" font-size="14.00">suspensión</text>
<text text-anchor="middle" x="765.92" y="-588.54" font-family="Times,serif" font-size="14.00">ncfs000 (pobj)</text>
<text text-anchor="middle" x="765.92" y="-573.54" font-family="Times,serif" font-size="14.00">rep=no, t=yes, r=no, m=yes, c=no</text>
</g>
<!-- n7&#45;&gt;n9 -->
<g id="edge11" class="edge">
<title>n7&#45;&gt;n9</title>
<path fill="none" stroke="black" d="M765.92,-665.61C765.92,-657.44 765.92,-648.66 765.92,-640.13"/>
<polygon fill="black" stroke="black" points="769.42,-639.92 765.92,-629.92 762.42,-639.92 769.42,-639.92"/>
</g>
<!-- n8 -->
<g id="node13" class="node">
<title>n8</title>
<ellipse fill="#BEDA48" stroke="black" cx="714.92" cy="-481.29" rx="190.84" ry="37.45"/>
<text text-anchor="middle" x="714.92" y="-492.59" font-family="Times,serif" font-size="14.00">la</text>
<text text-anchor="middle" x="714.92" y="-477.59" font-family="Times,serif" font-size="14.00">da0fs0 (det)</text>
<text text-anchor="middle" x="714.92" y="-462.59" font-family="Times,serif" font-size="14.00">rep=no, t=yes, r=no, m=yes, c=no</text>
</g>
<!-- n9&#45;&gt;n8 -->
<g id="edge12" class="edge">
<title>n9&#45;&gt;n8</title>
<path fill="none" stroke="black" d="M748.79,-554.66C744.8,-546.13 740.5,-536.93 736.34,-528.06"/>
<polygon fill="black" stroke="black" points="739.49,-526.53 732.08,-518.96 733.15,-529.5 739.49,-526.53"/>
</g>
<!-- n10 -->
<g id="node14" class="node">
<title>n10</title>
<ellipse fill="#BEDA48" stroke="black" cx="1114.92" cy="-481.29" rx="190.84" ry="37.45"/>
<text text-anchor="middle" x="1114.92" y="-492.59" font-family="Times,serif" font-size="14.00">del</text>
<text text-anchor="middle" x="1114.92" y="-477.59" font-family="Times,serif" font-size="14.00">spcms (prepn)</text>
<text text-anchor="middle" x="1114.92" y="-462.59" font-family="Times,serif" font-size="14.00">rep=no, t=yes, r=no, m=yes, c=no</text>
</g>
<!-- n9&#45;&gt;n10 -->
<g id="edge13" class="edge">
<title>n9&#45;&gt;n10</title>
<path fill="none" stroke="black" d="M865.46,-560.17C909.29,-546.48 960.91,-530.37 1005.78,-516.36"/>
<polygon fill="black" stroke="black" points="1007.04,-519.63 1015.55,-513.31 1004.96,-512.95 1007.04,-519.63"/>
</g>
<!-- n11 -->
<g id="node15" class="node">
<title>n11</title>
<ellipse fill="#BEDA48" stroke="black" cx="1114.92" cy="-370.34" rx="190.84" ry="37.45"/>
<text text-anchor="middle" x="1114.92" y="-381.64" font-family="Times,serif" font-size="14.00">servicio</text>
<text text-anchor="middle" x="1114.92" y="-366.64" font-family="Times,serif" font-size="14.00">ncms000 (pobj)</text>
<text text-anchor="middle" x="1114.92" y="-351.64" font-family="Times,serif" font-size="14.00">rep=no, t=yes, r=no, m=yes, c=no</text>
</g>
<!-- n10&#45;&gt;n11 -->
<g id="edge14" class="edge">
<title>n10&#45;&gt;n11</title>
<path fill="none" stroke="black" d="M1114.92,-443.71C1114.92,-435.53 1114.92,-426.75 1114.92,-418.23"/>
<polygon fill="black" stroke="black" points="1118.42,-418.01 1114.92,-408.01 1111.42,-418.01 1118.42,-418.01"/>
</g>
<!-- n12 -->
<g id="node16" class="node">
<title>n12</title>
<ellipse fill="#BEDA48" stroke="black" cx="1114.92" cy="-259.38" rx="190.84" ry="37.45"/>
<text text-anchor="middle" x="1114.92" y="-270.68" font-family="Times,serif" font-size="14.00">del</text>
<text text-anchor="middle" x="1114.92" y="-255.68" font-family="Times,serif" font-size="14.00">spcms (prepn)</text>
<text text-anchor="middle" x="1114.92" y="-240.68" font-family="Times,serif" font-size="14.00">rep=no, t=yes, r=no, m=yes, c=no</text>
</g>
<!-- n11&#45;&gt;n12 -->
<g id="edge15" class="edge">
<title>n11&#45;&gt;n12</title>
<path fill="none" stroke="black" d="M1114.92,-332.75C1114.92,-324.58 1114.92,-315.8 1114.92,-307.27"/>
<polygon fill="black" stroke="black" points="1118.42,-307.06 1114.92,-297.06 1111.42,-307.06 1118.42,-307.06"/>
</g>
<!-- n13 -->
<g id="node17" class="node">
<title>n13</title>
<ellipse fill="#BEDA48" stroke="black" cx="1114.92" cy="-148.43" rx="190.84" ry="37.45"/>
<text text-anchor="middle" x="1114.92" y="-159.73" font-family="Times,serif" font-size="14.00">catamarán</text>
<text text-anchor="middle" x="1114.92" y="-144.73" font-family="Times,serif" font-size="14.00">ncms000 (pobj)</text>
<text text-anchor="middle" x="1114.92" y="-129.73" font-family="Times,serif" font-size="14.00">rep=no, t=yes, r=no, m=yes, c=no</text>
</g>
<!-- n12&#45;&gt;n13 -->
<g id="edge16" class="edge">
<title>n12&#45;&gt;n13</title>
<path fill="none" stroke="black" d="M1114.92,-221.8C1114.92,-213.63 1114.92,-204.85 1114.92,-196.32"/>
<polygon fill="black" stroke="black" points="1118.42,-196.1 1114.92,-186.1 1111.42,-196.1 1118.42,-196.1"/>
</g>
<!-- n14 -->
<g id="node18" class="node">
<title>n14</title>
<ellipse fill="#BEDA48" stroke="black" cx="1114.92" cy="-37.48" rx="190.84" ry="37.45"/>
<text text-anchor="middle" x="1114.92" y="-48.78" font-family="Times,serif" font-size="14.00">Turbocat</text>
<text text-anchor="middle" x="1114.92" y="-33.78" font-family="Times,serif" font-size="14.00">np00000 (appos)</text>
<text text-anchor="middle" x="1114.92" y="-18.78" font-family="Times,serif" font-size="14.00">rep=no, t=yes, r=no, m=yes, c=no</text>
</g>
<!-- n13&#45;&gt;n14 -->
<g id="edge17" class="edge">
<title>n13&#45;&gt;n14</title>
<path fill="none" stroke="black" d="M1114.92,-110.85C1114.92,-102.67 1114.92,-93.89 1114.92,-85.37"/>
<polygon fill="black" stroke="black" points="1118.42,-85.15 1114.92,-75.15 1111.42,-85.15 1118.42,-85.15"/>
</g>
<!-- n18 -->
<g id="node20" class="node">
<title>n18</title>
<ellipse fill="#DA79E8" stroke="black" cx="1181.92" cy="-814.15" rx="190.84" ry="37.45"/>
<text text-anchor="middle" x="1181.92" y="-825.45" font-family="Times,serif" font-size="14.00">el</text>
<text text-anchor="middle" x="1181.92" y="-810.45" font-family="Times,serif" font-size="14.00">da0ms0 (det)</text>
<text text-anchor="middle" x="1181.92" y="-795.45" font-family="Times,serif" font-size="14.00">rep=no, t=no, r=yes, m=yes, c=no</text>
</g>
<!-- n19&#45;&gt;n18 -->
<g id="edge19" class="edge">
<title>n19&#45;&gt;n18</title>
<path fill="none" stroke="black" d="M1245.55,-888.13C1237.45,-878.83 1228.63,-868.73 1220.22,-859.08"/>
<polygon fill="black" stroke="black" points="1222.79,-856.7 1213.58,-851.46 1217.51,-861.3 1222.79,-856.7"/>
</g>
<!-- n20 -->
<g id="node21" class="node">
<title>n20</title>
<ellipse fill="#DA79E8" stroke="black" cx="1581.92" cy="-814.15" rx="190.84" ry="37.45"/>
<text text-anchor="middle" x="1581.92" y="-825.45" font-family="Times,serif" font-size="14.00">de</text>
<text text-anchor="middle" x="1581.92" y="-810.45" font-family="Times,serif" font-size="14.00">sps00 (prepn)</text>
<text text-anchor="middle" x="1581.92" y="-795.45" font-family="Times,serif" font-size="14.00">rep=no, t=no, r=yes, m=yes, c=no</text>
</g>
<!-- n19&#45;&gt;n20 -->
<g id="edge20" class="edge">
<title>n19&#45;&gt;n20</title>
<path fill="none" stroke="black" d="M1366.78,-892C1402.99,-879.07 1444.91,-864.09 1482.07,-850.82"/>
<polygon fill="black" stroke="black" points="1483.67,-853.96 1491.91,-847.3 1481.32,-847.37 1483.67,-853.96"/>
</g>
<!-- n22 -->
<g id="node22" class="node">
<title>n22</title>
<ellipse fill="#DA79E8" stroke="black" cx="1581.92" cy="-703.2" rx="190.84" ry="37.45"/>
<text text-anchor="middle" x="1581.92" y="-714.5" font-family="Times,serif" font-size="14.00">pasajes</text>
<text text-anchor="middle" x="1581.92" y="-699.5" font-family="Times,serif" font-size="14.00">ncmp000 (pobj)</text>
<text text-anchor="middle" x="1581.92" y="-684.5" font-family="Times,serif" font-size="14.00">rep=no, t=no, r=yes, m=yes, c=no</text>
</g>
<!-- n20&#45;&gt;n22 -->
<g id="edge21" class="edge">
<title>n20&#45;&gt;n22</title>
<path fill="none" stroke="black" d="M1581.92,-776.57C1581.92,-768.39 1581.92,-759.61 1581.92,-751.09"/>
<polygon fill="black" stroke="black" points="1585.42,-750.87 1581.92,-740.87 1578.42,-750.87 1585.42,-750.87"/>
</g>
<!-- n21 -->
<g id="node23" class="node">
<title>n21</title>
<ellipse fill="#DA79E8" stroke="black" cx="1407.92" cy="-592.24" rx="190.84" ry="37.45"/>
<text text-anchor="middle" x="1407.92" y="-603.54" font-family="Times,serif" font-size="14.00">los</text>
<text text-anchor="middle" x="1407.92" y="-588.54" font-family="Times,serif" font-size="14.00">da0mp0 (det)</text>
<text text-anchor="middle" x="1407.92" y="-573.54" font-family="Times,serif" font-size="14.00">rep=no, t=no, r=yes, m=yes, c=no</text>
</g>
<!-- n22&#45;&gt;n21 -->
<g id="edge22" class="edge">
<title>n22&#45;&gt;n21</title>
<path fill="none" stroke="black" d="M1525.91,-667.12C1508.83,-656.43 1489.92,-644.59 1472.34,-633.58"/>
<polygon fill="black" stroke="black" points="1474.16,-630.59 1463.83,-628.25 1470.44,-636.52 1474.16,-630.59"/>
</g>
<!-- n25 -->
<g id="node24" class="node">
<title>n25</title>
<ellipse fill="none" stroke="black" cx="1802.92" cy="-592.24" rx="185.94" ry="37.45"/>
<text text-anchor="middle" x="1802.92" y="-603.54" font-family="Times,serif" font-size="14.00">habían</text>
<text text-anchor="middle" x="1802.92" y="-588.54" font-family="Times,serif" font-size="14.00">vaii3p0 (rcmod)</text>
<text text-anchor="middle" x="1802.92" y="-573.54" font-family="Times,serif" font-size="14.00">rep=no, t=no, r=no, m=yes, c=no</text>
</g>
<!-- n22&#45;&gt;n25 -->
<g id="edge23" class="edge">
<title>n22&#45;&gt;n25</title>
<path fill="none" stroke="black" d="M1650.94,-668.17C1674.41,-656.6 1700.8,-643.59 1724.92,-631.7"/>
<polygon fill="black" stroke="black" points="1726.62,-634.76 1734.05,-627.2 1723.53,-628.48 1726.62,-634.76"/>
</g>
<!-- n26 -->
<g id="node25" class="node">
<title>n26</title>
<ellipse fill="none" stroke="black" cx="1802.92" cy="-481.29" rx="185.94" ry="37.45"/>
<text text-anchor="middle" x="1802.92" y="-492.59" font-family="Times,serif" font-size="14.00">pagado</text>
<text text-anchor="middle" x="1802.92" y="-477.59" font-family="Times,serif" font-size="14.00">vmp00sm (vobj)</text>
<text text-anchor="middle" x="1802.92" y="-462.59" font-family="Times,serif" font-size="14.00">rep=no, t=no, r=no, m=yes, c=no</text>
</g>
<!-- n25&#45;&gt;n26 -->
<g id="edge24" class="edge">
<title>n25&#45;&gt;n26</title>
<path fill="none" stroke="black" d="M1802.92,-554.66C1802.92,-546.49 1802.92,-537.71 1802.92,-529.18"/>
<polygon fill="black" stroke="black" points="1806.42,-528.96 1802.92,-518.96 1799.42,-528.96 1806.42,-528.96"/>
</g>
<!-- n23 -->
<g id="node26" class="node">
<title>n23</title>
<ellipse fill="none" stroke="black" cx="1514.92" cy="-370.34" rx="185.94" ry="37.45"/>
<text text-anchor="middle" x="1514.92" y="-381.64" font-family="Times,serif" font-size="14.00">que</text>
<text text-anchor="middle" x="1514.92" y="-366.64" font-family="Times,serif" font-size="14.00">pr0cn000 (dobj)</text>
<text text-anchor="middle" x="1514.92" y="-351.64" font-family="Times,serif" font-size="14.00">rep=no, t=no, r=no, m=yes, c=no</text>
</g>
<!-- n26&#45;&gt;n23 -->
<g id="edge25" class="edge">
<title>n26&#45;&gt;n23</title>
<path fill="none" stroke="black" d="M1717.29,-447.9C1683.64,-435.17 1644.88,-420.5 1610.34,-407.43"/>
<polygon fill="black" stroke="black" points="1611.31,-404.06 1600.72,-403.79 1608.83,-410.61 1611.31,-404.06"/>
</g>
<!-- n24 -->
<g id="node27" class="node">
<title>n24</title>
<ellipse fill="none" stroke="black" cx="1904.92" cy="-370.34" rx="185.94" ry="37.45"/>
<text text-anchor="middle" x="1904.92" y="-381.64" font-family="Times,serif" font-size="14.00">ya</text>
<text text-anchor="middle" x="1904.92" y="-366.64" font-family="Times,serif" font-size="14.00">rg (advmod)</text>
<text text-anchor="middle" x="1904.92" y="-351.64" font-family="Times,serif" font-size="14.00">rep=no, t=no, r=no, m=yes, c=no</text>
</g>
<!-- n26&#45;&gt;n24 -->
<g id="edge26" class="edge">
<title>n26&#45;&gt;n24</title>
<path fill="none" stroke="black" d="M1836.6,-444.31C1845.48,-434.83 1855.15,-424.5 1864.35,-414.67"/>
<polygon fill="black" stroke="black" points="1866.99,-416.97 1871.27,-407.28 1861.88,-412.18 1866.99,-416.97"/>
</g>
</g>
</svg>
