<?xml version="1.0" encoding="UTF-8" standalone="no"?>
<!DOCTYPE svg PUBLIC "-//W3C//DTD SVG 1.1//EN"
 "http://www.w3.org/Graphics/SVG/1.1/DTD/svg11.dtd">
<!-- Generated by graphviz version 2.43.0 (0)
 -->
<!-- Title: tree Pages: 1 -->
<svg width="4760pt" height="1525pt"
 viewBox="0.00 0.00 4759.89 1525.35" xmlns="http://www.w3.org/2000/svg" xmlns:xlink="http://www.w3.org/1999/xlink">
<g id="graph0" class="graph" transform="scale(1 1) rotate(0) translate(4 1521.35)">
<title>tree</title>
<polygon fill="white" stroke="transparent" points="-4,4 -4,-1521.35 4755.89,-1521.35 4755.89,4 -4,4"/>
<!-- n15 -->
<g id="node1" class="node">
<title>n15</title>
<ellipse fill="none" stroke="black" cx="1595.92" cy="-1479.87" rx="181.95" ry="37.45"/>
<text text-anchor="middle" x="1595.92" y="-1491.17" font-family="Times,serif" font-size="14.00">declaró</text>
<text text-anchor="middle" x="1595.92" y="-1476.17" font-family="Times,serif" font-size="14.00">vmis3s0 (root)</text>
<text text-anchor="middle" x="1595.92" y="-1461.17" font-family="Times,serif" font-size="14.00">rep=no, t=no, r=no, m=no, c=no</text>
</g>
<!-- n1 -->
<g id="node2" class="node">
<title>n1</title>
<ellipse fill="none" stroke="black" cx="1020.92" cy="-1368.92" rx="181.95" ry="37.45"/>
<text text-anchor="middle" x="1020.92" y="-1380.22" font-family="Times,serif" font-size="14.00">Tras</text>
<text text-anchor="middle" x="1020.92" y="-1365.22" font-family="Times,serif" font-size="14.00">sps00 (prepv)</text>
<text text-anchor="middle" x="1020.92" y="-1350.22" font-family="Times,serif" font-size="14.00">rep=no, t=no, r=no, m=no, c=no</text>
</g>
<!-- n15&#45;&gt;n1 -->
<g id="edge1" class="edge">
<title>n15&#45;&gt;n1</title>
<path fill="none" stroke="black" d="M1464.36,-1453.94C1374.16,-1436.85 1254.6,-1414.2 1162.36,-1396.72"/>
<polygon fill="black" stroke="black" points="1162.86,-1393.25 1152.38,-1394.83 1161.56,-1400.13 1162.86,-1393.25"/>
</g>
<!-- n4 -->
<g id="node3" class="node">
<title>n4</title>
<ellipse fill="none" stroke="black" cx="1405.92" cy="-1368.92" rx="181.95" ry="37.45"/>
<text text-anchor="middle" x="1405.92" y="-1380.22" font-family="Times,serif" font-size="14.00">,</text>
<text text-anchor="middle" x="1405.92" y="-1365.22" font-family="Times,serif" font-size="14.00">fc (punct)</text>
<text text-anchor="middle" x="1405.92" y="-1350.22" font-family="Times,serif" font-size="14.00">rep=no, t=no, r=no, m=no, c=no</text>
</g>
<!-- n15&#45;&gt;n4 -->
<g id="edge2" class="edge">
<title>n15&#45;&gt;n4</title>
<path fill="none" stroke="black" d="M1535.8,-1444.4C1516.39,-1433.26 1494.72,-1420.84 1474.72,-1409.37"/>
<polygon fill="black" stroke="black" points="1476.39,-1406.29 1465.97,-1404.35 1472.9,-1412.36 1476.39,-1406.29"/>
</g>
<!-- n16 -->
<g id="node4" class="node">
<title>n16</title>
<ellipse fill="none" stroke="black" cx="1786.92" cy="-1368.92" rx="181.95" ry="37.45"/>
<text text-anchor="middle" x="1786.92" y="-1380.22" font-family="Times,serif" font-size="14.00">que</text>
<text text-anchor="middle" x="1786.92" y="-1365.22" font-family="Times,serif" font-size="14.00">cs (dobj)</text>
<text text-anchor="middle" x="1786.92" y="-1350.22" font-family="Times,serif" font-size="14.00">rep=no, t=no, r=no, m=no, c=no</text>
</g>
<!-- n15&#45;&gt;n16 -->
<g id="edge3" class="edge">
<title>n15&#45;&gt;n16</title>
<path fill="none" stroke="black" d="M1656.35,-1444.4C1675.87,-1433.26 1697.65,-1420.84 1717.75,-1409.37"/>
<polygon fill="black" stroke="black" points="1719.6,-1412.35 1726.55,-1404.35 1716.13,-1406.27 1719.6,-1412.35"/>
</g>
<!-- n40 -->
<g id="node5" class="node">
<title>n40</title>
<ellipse fill="none" stroke="black" cx="2167.92" cy="-1368.92" rx="181.95" ry="37.45"/>
<text text-anchor="middle" x="2167.92" y="-1380.22" font-family="Times,serif" font-size="14.00">.</text>
<text text-anchor="middle" x="2167.92" y="-1365.22" font-family="Times,serif" font-size="14.00">fp (punct)</text>
<text text-anchor="middle" x="2167.92" y="-1350.22" font-family="Times,serif" font-size="14.00">rep=no, t=no, r=no, m=no, c=no</text>
</g>
<!-- n15&#45;&gt;n40 -->
<g id="edge4" class="edge">
<title>n15&#45;&gt;n40</title>
<path fill="none" stroke="black" d="M1727.64,-1453.95C1801.27,-1440 1894.71,-1422.27 1977.92,-1406.39 1993.98,-1403.33 2010.81,-1400.11 2027.53,-1396.9"/>
<polygon fill="black" stroke="black" points="2028.19,-1400.34 2037.36,-1395.02 2026.88,-1393.47 2028.19,-1400.34"/>
</g>
<!-- n3 -->
<g id="node6" class="node">
<title>n3</title>
<ellipse fill="none" stroke="black" cx="1013.92" cy="-1257.96" rx="181.95" ry="37.45"/>
<text text-anchor="middle" x="1013.92" y="-1269.26" font-family="Times,serif" font-size="14.00">encuentro</text>
<text text-anchor="middle" x="1013.92" y="-1254.26" font-family="Times,serif" font-size="14.00">ncms000 (pobj)</text>
<text text-anchor="middle" x="1013.92" y="-1239.26" font-family="Times,serif" font-size="14.00">rep=no, t=no, r=no, m=no, c=no</text>
</g>
<!-- n1&#45;&gt;n3 -->
<g id="edge5" class="edge">
<title>n1&#45;&gt;n3</title>
<path fill="none" stroke="black" d="M1018.57,-1331.33C1018.04,-1323.16 1017.48,-1314.38 1016.93,-1305.85"/>
<polygon fill="black" stroke="black" points="1020.41,-1305.39 1016.27,-1295.64 1013.42,-1305.84 1020.41,-1305.39"/>
</g>
<!-- n18 -->
<g id="node8" class="node">
<title>n18</title>
<ellipse fill="#98D2A5" stroke="black" cx="1788.92" cy="-1257.96" rx="190.84" ry="37.45"/>
<text text-anchor="middle" x="1788.92" y="-1269.26" font-family="Times,serif" font-size="14.00">veía</text>
<text text-anchor="middle" x="1788.92" y="-1254.26" font-family="Times,serif" font-size="14.00">vmii3s0 (cobj)</text>
<text text-anchor="middle" x="1788.92" y="-1239.26" font-family="Times,serif" font-size="14.00">rep=no, t=no, r=yes, m=yes, c=no</text>
</g>
<!-- n16&#45;&gt;n18 -->
<g id="edge7" class="edge">
<title>n16&#45;&gt;n18</title>
<path fill="none" stroke="black" d="M1787.59,-1331.33C1787.74,-1323.16 1787.9,-1314.38 1788.06,-1305.85"/>
<polygon fill="black" stroke="black" points="1791.56,-1305.7 1788.25,-1295.64 1784.56,-1305.57 1791.56,-1305.7"/>
</g>
<!-- n2 -->
<g id="node7" class="node">
<title>n2</title>
<ellipse fill="none" stroke="black" cx="999.92" cy="-1147.01" rx="181.95" ry="37.45"/>
<text text-anchor="middle" x="999.92" y="-1158.31" font-family="Times,serif" font-size="14.00">el</text>
<text text-anchor="middle" x="999.92" y="-1143.31" font-family="Times,serif" font-size="14.00">da0ms0 (det)</text>
<text text-anchor="middle" x="999.92" y="-1128.31" font-family="Times,serif" font-size="14.00">rep=no, t=no, r=no, m=no, c=no</text>
</g>
<!-- n3&#45;&gt;n2 -->
<g id="edge6" class="edge">
<title>n3&#45;&gt;n2</title>
<path fill="none" stroke="black" d="M1009.22,-1220.38C1008.16,-1212.12 1007.01,-1203.23 1005.91,-1194.62"/>
<polygon fill="black" stroke="black" points="1009.38,-1194.15 1004.63,-1184.68 1002.43,-1195.05 1009.38,-1194.15"/>
</g>
<!-- n6 -->
<g id="node9" class="node">
<title>n6</title>
<ellipse fill="#98D2A5" stroke="black" cx="1390.92" cy="-1147.01" rx="190.84" ry="37.45"/>
<text text-anchor="middle" x="1390.92" y="-1158.31" font-family="Times,serif" font-size="14.00">ministro</text>
<text text-anchor="middle" x="1390.92" y="-1143.31" font-family="Times,serif" font-size="14.00">ncms000 (nsubj)</text>
<text text-anchor="middle" x="1390.92" y="-1128.31" font-family="Times,serif" font-size="14.00">rep=no, t=yes, r=no, m=yes, c=no</text>
</g>
<!-- n18&#45;&gt;n6 -->
<g id="edge8" class="edge">
<title>n18&#45;&gt;n6</title>
<path fill="none" stroke="black" d="M1679.9,-1227.12C1627.14,-1212.68 1563.7,-1195.31 1509.72,-1180.53"/>
<polygon fill="black" stroke="black" points="1510.32,-1177.07 1499.75,-1177.8 1508.47,-1183.82 1510.32,-1177.07"/>
</g>
<!-- n17 -->
<g id="node10" class="node">
<title>n17</title>
<ellipse fill="#98D2A5" stroke="black" cx="1790.92" cy="-1147.01" rx="190.84" ry="37.45"/>
<text text-anchor="middle" x="1790.92" y="-1158.31" font-family="Times,serif" font-size="14.00">no</text>
<text text-anchor="middle" x="1790.92" y="-1143.31" font-family="Times,serif" font-size="14.00">rn (neg)</text>
<text text-anchor="middle" x="1790.92" y="-1128.31" font-family="Times,serif" font-size="14.00">rep=no, t=no, r=yes, m=yes, c=no</text>
</g>
<!-- n18&#45;&gt;n17 -->
<g id="edge9" class="edge">
<title>n18&#45;&gt;n17</title>
<path fill="none" stroke="black" d="M1789.59,-1220.38C1789.74,-1212.21 1789.9,-1203.43 1790.06,-1194.9"/>
<polygon fill="black" stroke="black" points="1793.56,-1194.74 1790.25,-1184.68 1786.56,-1194.62 1793.56,-1194.74"/>
</g>
<!-- n21 -->
<g id="node11" class="node">
<title>n21</title>
<ellipse fill="#98D2A5" stroke="black" cx="3190.92" cy="-1147.01" rx="190.84" ry="37.45"/>
<text text-anchor="middle" x="3190.92" y="-1158.31" font-family="Times,serif" font-size="14.00">señal</text>
<text text-anchor="middle" x="3190.92" y="-1143.31" font-family="Times,serif" font-size="14.00">ncfs000 (dobj)</text>
<text text-anchor="middle" x="3190.92" y="-1128.31" font-family="Times,serif" font-size="14.00">rep=no, t=no, r=yes, m=yes, c=no</text>
</g>
<!-- n18&#45;&gt;n21 -->
<g id="edge10" class="edge">
<title>n18&#45;&gt;n21</title>
<path fill="none" stroke="black" d="M1964.71,-1243.3C2230.74,-1222.63 2733.33,-1183.57 3005.15,-1162.45"/>
<polygon fill="black" stroke="black" points="3005.42,-1165.94 3015.12,-1161.67 3004.88,-1158.96 3005.42,-1165.94"/>
</g>
<!-- n5 -->
<g id="node12" class="node">
<title>n5</title>
<ellipse fill="#98D2A5" stroke="black" cx="190.92" cy="-1036.06" rx="190.84" ry="37.45"/>
<text text-anchor="middle" x="190.92" y="-1047.36" font-family="Times,serif" font-size="14.00">el</text>
<text text-anchor="middle" x="190.92" y="-1032.36" font-family="Times,serif" font-size="14.00">da0ms0 (det)</text>
<text text-anchor="middle" x="190.92" y="-1017.36" font-family="Times,serif" font-size="14.00">rep=no, t=yes, r=no, m=yes, c=no</text>
</g>
<!-- n6&#45;&gt;n5 -->
<g id="edge11" class="edge">
<title>n6&#45;&gt;n5</title>
<path fill="none" stroke="black" d="M1260.58,-1119.61C1237.46,-1115.68 1213.54,-1112.09 1190.92,-1109.53 837.26,-1069.51 744.58,-1113.55 390.92,-1073.53 371.57,-1071.34 351.27,-1068.4 331.32,-1065.14"/>
<polygon fill="black" stroke="black" points="331.69,-1061.65 321.25,-1063.46 330.54,-1068.55 331.69,-1061.65"/>
</g>
<!-- n7 -->
<g id="node13" class="node">
<title>n7</title>
<ellipse fill="#98D2A5" stroke="black" cx="590.92" cy="-1036.06" rx="190.84" ry="37.45"/>
<text text-anchor="middle" x="590.92" y="-1047.36" font-family="Times,serif" font-size="14.00">egipcio</text>
<text text-anchor="middle" x="590.92" y="-1032.36" font-family="Times,serif" font-size="14.00">aq0ms0 (amod)</text>
<text text-anchor="middle" x="590.92" y="-1017.36" font-family="Times,serif" font-size="14.00">rep=no, t=yes, r=no, m=yes, c=no</text>
</g>
<!-- n6&#45;&gt;n7 -->
<g id="edge12" class="edge">
<title>n6&#45;&gt;n7</title>
<path fill="none" stroke="black" d="M1258.06,-1120.04C1235.7,-1116.17 1212.69,-1112.49 1190.92,-1109.53 1014.05,-1085.5 967.79,-1097.57 790.92,-1073.53 772.38,-1071.01 752.94,-1067.97 733.77,-1064.74"/>
<polygon fill="black" stroke="black" points="734.23,-1061.26 723.78,-1063.03 733.05,-1068.16 734.23,-1061.26"/>
</g>
<!-- n8 -->
<g id="node14" class="node">
<title>n8</title>
<ellipse fill="#98D2A5" stroke="black" cx="990.92" cy="-1036.06" rx="190.84" ry="37.45"/>
<text text-anchor="middle" x="990.92" y="-1047.36" font-family="Times,serif" font-size="14.00">de</text>
<text text-anchor="middle" x="990.92" y="-1032.36" font-family="Times,serif" font-size="14.00">sps00 (prepn)</text>
<text text-anchor="middle" x="990.92" y="-1017.36" font-family="Times,serif" font-size="14.00">rep=no, t=yes, r=no, m=yes, c=no</text>
</g>
<!-- n6&#45;&gt;n8 -->
<g id="edge13" class="edge">
<title>n6&#45;&gt;n8</title>
<path fill="none" stroke="black" d="M1281.62,-1116.24C1228.48,-1101.76 1164.51,-1084.34 1110.12,-1069.53"/>
<polygon fill="black" stroke="black" points="1111,-1066.14 1100.44,-1066.89 1109.16,-1072.89 1111,-1066.14"/>
</g>
<!-- n11 -->
<g id="node15" class="node">
<title>n11</title>
<ellipse fill="#98D2A5" stroke="black" cx="1390.92" cy="-1036.06" rx="190.84" ry="37.45"/>
<text text-anchor="middle" x="1390.92" y="-1047.36" font-family="Times,serif" font-size="14.00">,</text>
<text text-anchor="middle" x="1390.92" y="-1032.36" font-family="Times,serif" font-size="14.00">fc (punct)</text>
<text text-anchor="middle" x="1390.92" y="-1017.36" font-family="Times,serif" font-size="14.00">rep=no, t=yes, r=no, m=yes, c=no</text>
</g>
<!-- n6&#45;&gt;n11 -->
<g id="edge14" class="edge">
<title>n6&#45;&gt;n11</title>
<path fill="none" stroke="black" d="M1390.92,-1109.43C1390.92,-1101.25 1390.92,-1092.47 1390.92,-1083.95"/>
<polygon fill="black" stroke="black" points="1394.42,-1083.73 1390.92,-1073.73 1387.42,-1083.73 1394.42,-1083.73"/>
</g>
<!-- n12 -->
<g id="node16" class="node">
<title>n12</title>
<ellipse fill="#98D2A5" stroke="black" cx="1790.92" cy="-1036.06" rx="190.84" ry="37.45"/>
<text text-anchor="middle" x="1790.92" y="-1047.36" font-family="Times,serif" font-size="14.00">Amr</text>
<text text-anchor="middle" x="1790.92" y="-1032.36" font-family="Times,serif" font-size="14.00">np0000l (appos)</text>
<text text-anchor="middle" x="1790.92" y="-1017.36" font-family="Times,serif" font-size="14.00">rep=no, t=yes, r=no, m=yes, c=no</text>
</g>
<!-- n6&#45;&gt;n12 -->
<g id="edge15" class="edge">
<title>n6&#45;&gt;n12</title>
<path fill="none" stroke="black" d="M1500.22,-1116.24C1553.36,-1101.76 1617.33,-1084.34 1671.71,-1069.53"/>
<polygon fill="black" stroke="black" points="1672.67,-1072.89 1681.4,-1066.89 1670.83,-1066.14 1672.67,-1072.89"/>
</g>
<!-- n14 -->
<g id="node17" class="node">
<title>n14</title>
<ellipse fill="#98D2A5" stroke="black" cx="2190.92" cy="-1036.06" rx="190.84" ry="37.45"/>
<text text-anchor="middle" x="2190.92" y="-1047.36" font-family="Times,serif" font-size="14.00">,</text>
<text text-anchor="middle" x="2190.92" y="-1032.36" font-family="Times,serif" font-size="14.00">fc (punct)</text>
<text text-anchor="middle" x="2190.92" y="-1017.36" font-family="Times,serif" font-size="14.00">rep=no, t=yes, r=no, m=yes, c=no</text>
</g>
<!-- n6&#45;&gt;n14 -->
<g id="edge16" class="edge">
<title>n6&#45;&gt;n14</title>
<path fill="none" stroke="black" d="M1523.78,-1120.04C1546.14,-1116.17 1569.15,-1112.49 1590.92,-1109.53 1767.79,-1085.5 1814.05,-1097.57 1990.92,-1073.53 2009.46,-1071.01 2028.9,-1067.97 2048.06,-1064.74"/>
<polygon fill="black" stroke="black" points="2048.79,-1068.16 2058.06,-1063.03 2047.61,-1061.26 2048.79,-1068.16"/>
</g>
<!-- n19 -->
<g id="node21" class="node">
<title>n19</title>
<ellipse fill="#98D2A5" stroke="black" cx="2590.92" cy="-1036.06" rx="190.84" ry="37.45"/>
<text text-anchor="middle" x="2590.92" y="-1047.36" font-family="Times,serif" font-size="14.00">&quot;</text>
<text text-anchor="middle" x="2590.92" y="-1032.36" font-family="Times,serif" font-size="14.00">fe (punct)</text>
<text text-anchor="middle" x="2590.92" y="-1017.36" font-family="Times,serif" font-size="14.00">rep=no, t=no, r=yes, m=yes, c=no</text>
</g>
<!-- n21&#45;&gt;n19 -->
<g id="edge20" class="edge">
<title>n21&#45;&gt;n19</title>
<path fill="none" stroke="black" d="M3053,-1121.06C2975.9,-1107.1 2878.06,-1089.37 2790.92,-1073.53 2773.85,-1070.43 2755.97,-1067.17 2738.21,-1063.94"/>
<polygon fill="black" stroke="black" points="2738.82,-1060.49 2728.36,-1062.14 2737.57,-1067.38 2738.82,-1060.49"/>
</g>
<!-- n20 -->
<g id="node22" class="node">
<title>n20</title>
<ellipse fill="#98D2A5" stroke="black" cx="2990.92" cy="-1036.06" rx="190.84" ry="37.45"/>
<text text-anchor="middle" x="2990.92" y="-1047.36" font-family="Times,serif" font-size="14.00">ninguna</text>
<text text-anchor="middle" x="2990.92" y="-1032.36" font-family="Times,serif" font-size="14.00">di0fs0 (det)</text>
<text text-anchor="middle" x="2990.92" y="-1017.36" font-family="Times,serif" font-size="14.00">rep=no, t=no, r=yes, m=yes, c=no</text>
</g>
<!-- n21&#45;&gt;n20 -->
<g id="edge21" class="edge">
<title>n21&#45;&gt;n20</title>
<path fill="none" stroke="black" d="M3127.64,-1111.54C3107.11,-1100.35 3084.18,-1087.86 3063.06,-1076.36"/>
<polygon fill="black" stroke="black" points="3064.59,-1073.2 3054.13,-1071.49 3061.24,-1079.35 3064.59,-1073.2"/>
</g>
<!-- n22 -->
<g id="node23" class="node">
<title>n22</title>
<ellipse fill="#98D2A5" stroke="black" cx="3390.92" cy="-1036.06" rx="190.84" ry="37.45"/>
<text text-anchor="middle" x="3390.92" y="-1047.36" font-family="Times,serif" font-size="14.00">estimulante</text>
<text text-anchor="middle" x="3390.92" y="-1032.36" font-family="Times,serif" font-size="14.00">aq0cs0 (amod)</text>
<text text-anchor="middle" x="3390.92" y="-1017.36" font-family="Times,serif" font-size="14.00">rep=no, t=no, r=yes, m=yes, c=no</text>
</g>
<!-- n21&#45;&gt;n22 -->
<g id="edge22" class="edge">
<title>n21&#45;&gt;n22</title>
<path fill="none" stroke="black" d="M3254.2,-1111.54C3274.73,-1100.35 3297.65,-1087.86 3318.78,-1076.36"/>
<polygon fill="black" stroke="black" points="3320.6,-1079.35 3327.71,-1071.49 3317.25,-1073.2 3320.6,-1079.35"/>
</g>
<!-- n25 -->
<g id="node24" class="node">
<title>n25</title>
<ellipse fill="#98D2A5" stroke="black" cx="3785.92" cy="-1036.06" rx="185.94" ry="37.45"/>
<text text-anchor="middle" x="3785.92" y="-1047.36" font-family="Times,serif" font-size="14.00">permita</text>
<text text-anchor="middle" x="3785.92" y="-1032.36" font-family="Times,serif" font-size="14.00">vmsp3s0 (rcmod)</text>
<text text-anchor="middle" x="3785.92" y="-1017.36" font-family="Times,serif" font-size="14.00">rep=no, t=no, r=no, m=yes, c=no</text>
</g>
<!-- n21&#45;&gt;n25 -->
<g id="edge23" class="edge">
<title>n21&#45;&gt;n25</title>
<path fill="none" stroke="black" d="M3329.33,-1121.13C3406.37,-1107.23 3503.98,-1089.54 3590.92,-1073.53 3607.48,-1070.48 3624.83,-1067.27 3642.07,-1064.06"/>
<polygon fill="black" stroke="black" points="3643,-1067.45 3652.19,-1062.17 3641.72,-1060.56 3643,-1067.45"/>
</g>
<!-- n39 -->
<g id="node25" class="node">
<title>n39</title>
<ellipse fill="#98D2A5" stroke="black" cx="4180.92" cy="-1036.06" rx="190.84" ry="37.45"/>
<text text-anchor="middle" x="4180.92" y="-1047.36" font-family="Times,serif" font-size="14.00">&quot;</text>
<text text-anchor="middle" x="4180.92" y="-1032.36" font-family="Times,serif" font-size="14.00">fe (punct)</text>
<text text-anchor="middle" x="4180.92" y="-1017.36" font-family="Times,serif" font-size="14.00">rep=no, t=no, r=yes, m=yes, c=no</text>
</g>
<!-- n21&#45;&gt;n39 -->
<g id="edge24" class="edge">
<title>n21&#45;&gt;n39</title>
<path fill="none" stroke="black" d="M3370.28,-1134.12C3530.73,-1122.4 3772.14,-1102.09 3980.92,-1073.53 3999.46,-1071 4018.89,-1067.95 4038.06,-1064.71"/>
<polygon fill="black" stroke="black" points="4038.79,-1068.13 4048.05,-1062.99 4037.6,-1061.23 4038.79,-1068.13"/>
</g>
<!-- n9 -->
<g id="node18" class="node">
<title>n9</title>
<ellipse fill="#98D2A5" stroke="black" cx="990.92" cy="-925.1" rx="190.84" ry="37.45"/>
<text text-anchor="middle" x="990.92" y="-936.4" font-family="Times,serif" font-size="14.00">Asuntos</text>
<text text-anchor="middle" x="990.92" y="-921.4" font-family="Times,serif" font-size="14.00">ncms000 (pobj)</text>
<text text-anchor="middle" x="990.92" y="-906.4" font-family="Times,serif" font-size="14.00">rep=no, t=yes, r=no, m=yes, c=no</text>
</g>
<!-- n8&#45;&gt;n9 -->
<g id="edge17" class="edge">
<title>n8&#45;&gt;n9</title>
<path fill="none" stroke="black" d="M990.92,-998.47C990.92,-990.3 990.92,-981.52 990.92,-972.99"/>
<polygon fill="black" stroke="black" points="994.42,-972.78 990.92,-962.78 987.42,-972.78 994.42,-972.78"/>
</g>
<!-- n13 -->
<g id="node20" class="node">
<title>n13</title>
<ellipse fill="#98D2A5" stroke="black" cx="1790.92" cy="-925.1" rx="190.84" ry="37.45"/>
<text text-anchor="middle" x="1790.92" y="-936.4" font-family="Times,serif" font-size="14.00">Musa</text>
<text text-anchor="middle" x="1790.92" y="-921.4" font-family="Times,serif" font-size="14.00">np0000l (appos)</text>
<text text-anchor="middle" x="1790.92" y="-906.4" font-family="Times,serif" font-size="14.00">rep=no, t=yes, r=no, m=yes, c=no</text>
</g>
<!-- n12&#45;&gt;n13 -->
<g id="edge19" class="edge">
<title>n12&#45;&gt;n13</title>
<path fill="none" stroke="black" d="M1790.92,-998.47C1790.92,-990.3 1790.92,-981.52 1790.92,-972.99"/>
<polygon fill="black" stroke="black" points="1794.42,-972.78 1790.92,-962.78 1787.42,-972.78 1794.42,-972.78"/>
</g>
<!-- n10 -->
<g id="node19" class="node">
<title>n10</title>
<ellipse fill="#98D2A5" stroke="black" cx="990.92" cy="-814.15" rx="190.84" ry="37.45"/>
<text text-anchor="middle" x="990.92" y="-825.45" font-family="Times,serif" font-size="14.00">Exteriores</text>
<text text-anchor="middle" x="990.92" y="-810.45" font-family="Times,serif" font-size="14.00">aq0ms0 (amod)</text>
<text text-anchor="middle" x="990.92" y="-795.45" font-family="Times,serif" font-size="14.00">rep=no, t=yes, r=no, m=yes, c=no</text>
</g>
<!-- n9&#45;&gt;n10 -->
<g id="edge18" class="edge">
<title>n9&#45;&gt;n10</title>
<path fill="none" stroke="black" d="M990.92,-887.52C990.92,-879.35 990.92,-870.57 990.92,-862.04"/>
<polygon fill="black" stroke="black" points="994.42,-861.82 990.92,-851.82 987.42,-861.82 994.42,-861.82"/>
</g>
<!-- n23 -->
<g id="node26" class="node">
<title>n23</title>
<ellipse fill="#98D2A5" stroke="black" cx="3395.92" cy="-925.1" rx="185.94" ry="37.45"/>
<text text-anchor="middle" x="3395.92" y="-936.4" font-family="Times,serif" font-size="14.00">que</text>
<text text-anchor="middle" x="3395.92" y="-921.4" font-family="Times,serif" font-size="14.00">pr0cn000 (nsubj)</text>
<text text-anchor="middle" x="3395.92" y="-906.4" font-family="Times,serif" font-size="14.00">rep=no, t=no, r=no, m=yes, c=no</text>
</g>
<!-- n25&#45;&gt;n23 -->
<g id="edge25" class="edge">
<title>n25&#45;&gt;n23</title>
<path fill="none" stroke="black" d="M3679.35,-1005.28C3627.54,-990.81 3565.17,-973.39 3512.15,-958.57"/>
<polygon fill="black" stroke="black" points="3512.93,-955.16 3502.36,-955.84 3511.05,-961.9 3512.93,-955.16"/>
</g>
<!-- n24 -->
<g id="node27" class="node">
<title>n24</title>
<ellipse fill="#98D2A5" stroke="black" cx="3785.92" cy="-925.1" rx="185.94" ry="37.45"/>
<text text-anchor="middle" x="3785.92" y="-936.4" font-family="Times,serif" font-size="14.00">nos</text>
<text text-anchor="middle" x="3785.92" y="-921.4" font-family="Times,serif" font-size="14.00">pp1cp000 (iobj)</text>
<text text-anchor="middle" x="3785.92" y="-906.4" font-family="Times,serif" font-size="14.00">rep=no, t=no, r=no, m=yes, c=no</text>
</g>
<!-- n25&#45;&gt;n24 -->
<g id="edge26" class="edge">
<title>n25&#45;&gt;n24</title>
<path fill="none" stroke="black" d="M3785.92,-998.47C3785.92,-990.3 3785.92,-981.52 3785.92,-972.99"/>
<polygon fill="black" stroke="black" points="3789.42,-972.78 3785.92,-962.78 3782.42,-972.78 3789.42,-972.78"/>
</g>
<!-- n26 -->
<g id="node28" class="node">
<title>n26</title>
<ellipse fill="#98D2A5" stroke="black" cx="4175.92" cy="-925.1" rx="185.94" ry="37.45"/>
<text text-anchor="middle" x="4175.92" y="-936.4" font-family="Times,serif" font-size="14.00">decir</text>
<text text-anchor="middle" x="4175.92" y="-921.4" font-family="Times,serif" font-size="14.00">vmn0000 (dobj)</text>
<text text-anchor="middle" x="4175.92" y="-906.4" font-family="Times,serif" font-size="14.00">rep=no, t=no, r=no, m=yes, c=no</text>
</g>
<!-- n25&#45;&gt;n26 -->
<g id="edge27" class="edge">
<title>n25&#45;&gt;n26</title>
<path fill="none" stroke="black" d="M3892.49,-1005.28C3944.29,-990.81 4006.66,-973.39 4059.69,-958.57"/>
<polygon fill="black" stroke="black" points="4060.79,-961.9 4069.48,-955.84 4058.91,-955.16 4060.79,-961.9"/>
</g>
<!-- n27 -->
<g id="node29" class="node">
<title>n27</title>
<ellipse fill="#98D2A5" stroke="black" cx="4175.92" cy="-814.15" rx="185.94" ry="37.45"/>
<text text-anchor="middle" x="4175.92" y="-825.45" font-family="Times,serif" font-size="14.00">que</text>
<text text-anchor="middle" x="4175.92" y="-810.45" font-family="Times,serif" font-size="14.00">cs (dobj)</text>
<text text-anchor="middle" x="4175.92" y="-795.45" font-family="Times,serif" font-size="14.00">rep=no, t=no, r=no, m=yes, c=no</text>
</g>
<!-- n26&#45;&gt;n27 -->
<g id="edge28" class="edge">
<title>n26&#45;&gt;n27</title>
<path fill="none" stroke="black" d="M4175.92,-887.52C4175.92,-879.35 4175.92,-870.57 4175.92,-862.04"/>
<polygon fill="black" stroke="black" points="4179.42,-861.82 4175.92,-851.82 4172.42,-861.82 4179.42,-861.82"/>
</g>
<!-- n28 -->
<g id="node30" class="node">
<title>n28</title>
<ellipse fill="#98D2A5" stroke="black" cx="4175.92" cy="-703.2" rx="185.94" ry="37.45"/>
<text text-anchor="middle" x="4175.92" y="-714.5" font-family="Times,serif" font-size="14.00">es</text>
<text text-anchor="middle" x="4175.92" y="-699.5" font-family="Times,serif" font-size="14.00">vsip3s0 (cobj)</text>
<text text-anchor="middle" x="4175.92" y="-684.5" font-family="Times,serif" font-size="14.00">rep=no, t=no, r=no, m=yes, c=no</text>
</g>
<!-- n27&#45;&gt;n28 -->
<g id="edge29" class="edge">
<title>n27&#45;&gt;n28</title>
<path fill="none" stroke="black" d="M4175.92,-776.57C4175.92,-768.39 4175.92,-759.61 4175.92,-751.09"/>
<polygon fill="black" stroke="black" points="4179.42,-750.87 4175.92,-740.87 4172.42,-750.87 4179.42,-750.87"/>
</g>
<!-- n30 -->
<g id="node31" class="node">
<title>n30</title>
<ellipse fill="#98D2A5" stroke="black" cx="4175.92" cy="-592.24" rx="185.94" ry="37.45"/>
<text text-anchor="middle" x="4175.92" y="-603.54" font-family="Times,serif" font-size="14.00">llegar</text>
<text text-anchor="middle" x="4175.92" y="-588.54" font-family="Times,serif" font-size="14.00">vmn0000 (cobj)</text>
<text text-anchor="middle" x="4175.92" y="-573.54" font-family="Times,serif" font-size="14.00">rep=no, t=no, r=no, m=yes, c=no</text>
</g>
<!-- n28&#45;&gt;n30 -->
<g id="edge30" class="edge">
<title>n28&#45;&gt;n30</title>
<path fill="none" stroke="black" d="M4175.92,-665.61C4175.92,-657.44 4175.92,-648.66 4175.92,-640.13"/>
<polygon fill="black" stroke="black" points="4179.42,-639.92 4175.92,-629.92 4172.42,-639.92 4179.42,-639.92"/>
</g>
<!-- n29 -->
<g id="node32" class="node">
<title>n29</title>
<ellipse fill="#98D2A5" stroke="black" cx="3785.92" cy="-481.29" rx="185.94" ry="37.45"/>
<text text-anchor="middle" x="3785.92" y="-492.59" font-family="Times,serif" font-size="14.00">posible</text>
<text text-anchor="middle" x="3785.92" y="-477.59" font-family="Times,serif" font-size="14.00">aq0cs0 (cpred)</text>
<text text-anchor="middle" x="3785.92" y="-462.59" font-family="Times,serif" font-size="14.00">rep=no, t=no, r=no, m=yes, c=no</text>
</g>
<!-- n30&#45;&gt;n29 -->
<g id="edge31" class="edge">
<title>n30&#45;&gt;n29</title>
<path fill="none" stroke="black" d="M4069.35,-561.47C4017.54,-547 3955.17,-529.57 3902.15,-514.76"/>
<polygon fill="black" stroke="black" points="3902.93,-511.35 3892.36,-512.03 3901.05,-518.09 3902.93,-511.35"/>
</g>
<!-- n31 -->
<g id="node33" class="node">
<title>n31</title>
<ellipse fill="#98D2A5" stroke="black" cx="4175.92" cy="-481.29" rx="185.94" ry="37.45"/>
<text text-anchor="middle" x="4175.92" y="-492.59" font-family="Times,serif" font-size="14.00">a</text>
<text text-anchor="middle" x="4175.92" y="-477.59" font-family="Times,serif" font-size="14.00">sps00 (prepv)</text>
<text text-anchor="middle" x="4175.92" y="-462.59" font-family="Times,serif" font-size="14.00">rep=no, t=no, r=no, m=yes, c=no</text>
</g>
<!-- n30&#45;&gt;n31 -->
<g id="edge32" class="edge">
<title>n30&#45;&gt;n31</title>
<path fill="none" stroke="black" d="M4175.92,-554.66C4175.92,-546.49 4175.92,-537.71 4175.92,-529.18"/>
<polygon fill="black" stroke="black" points="4179.42,-528.96 4175.92,-518.96 4172.42,-528.96 4179.42,-528.96"/>
</g>
<!-- n34 -->
<g id="node34" class="node">
<title>n34</title>
<ellipse fill="#98D2A5" stroke="black" cx="4565.92" cy="-481.29" rx="185.94" ry="37.45"/>
<text text-anchor="middle" x="4565.92" y="-492.59" font-family="Times,serif" font-size="14.00">en</text>
<text text-anchor="middle" x="4565.92" y="-477.59" font-family="Times,serif" font-size="14.00">sps00 (prepv)</text>
<text text-anchor="middle" x="4565.92" y="-462.59" font-family="Times,serif" font-size="14.00">rep=no, t=no, r=no, m=yes, c=no</text>
</g>
<!-- n30&#45;&gt;n34 -->
<g id="edge33" class="edge">
<title>n30&#45;&gt;n34</title>
<path fill="none" stroke="black" d="M4282.49,-561.47C4334.29,-547 4396.66,-529.57 4449.69,-514.76"/>
<polygon fill="black" stroke="black" points="4450.79,-518.09 4459.48,-512.03 4448.91,-511.35 4450.79,-518.09"/>
</g>
<!-- n33 -->
<g id="node35" class="node">
<title>n33</title>
<ellipse fill="#98D2A5" stroke="black" cx="4175.92" cy="-370.34" rx="185.94" ry="37.45"/>
<text text-anchor="middle" x="4175.92" y="-381.64" font-family="Times,serif" font-size="14.00">acuerdo</text>
<text text-anchor="middle" x="4175.92" y="-366.64" font-family="Times,serif" font-size="14.00">ncms000 (pobj)</text>
<text text-anchor="middle" x="4175.92" y="-351.64" font-family="Times,serif" font-size="14.00">rep=no, t=no, r=no, m=yes, c=no</text>
</g>
<!-- n31&#45;&gt;n33 -->
<g id="edge34" class="edge">
<title>n31&#45;&gt;n33</title>
<path fill="none" stroke="black" d="M4175.92,-443.71C4175.92,-435.53 4175.92,-426.75 4175.92,-418.23"/>
<polygon fill="black" stroke="black" points="4179.42,-418.01 4175.92,-408.01 4172.42,-418.01 4179.42,-418.01"/>
</g>
<!-- n35 -->
<g id="node37" class="node">
<title>n35</title>
<ellipse fill="#98D2A5" stroke="black" cx="4565.92" cy="-370.34" rx="185.94" ry="37.45"/>
<text text-anchor="middle" x="4565.92" y="-381.64" font-family="Times,serif" font-size="14.00">menos</text>
<text text-anchor="middle" x="4565.92" y="-366.64" font-family="Times,serif" font-size="14.00">rg (advmod)</text>
<text text-anchor="middle" x="4565.92" y="-351.64" font-family="Times,serif" font-size="14.00">rep=no, t=no, r=no, m=yes, c=no</text>
</g>
<!-- n34&#45;&gt;n35 -->
<g id="edge36" class="edge">
<title>n34&#45;&gt;n35</title>
<path fill="none" stroke="black" d="M4565.92,-443.71C4565.92,-435.53 4565.92,-426.75 4565.92,-418.23"/>
<polygon fill="black" stroke="black" points="4569.42,-418.01 4565.92,-408.01 4562.42,-418.01 4569.42,-418.01"/>
</g>
<!-- n32 -->
<g id="node36" class="node">
<title>n32</title>
<ellipse fill="#98D2A5" stroke="black" cx="4175.92" cy="-259.38" rx="185.94" ry="37.45"/>
<text text-anchor="middle" x="4175.92" y="-270.68" font-family="Times,serif" font-size="14.00">un</text>
<text text-anchor="middle" x="4175.92" y="-255.68" font-family="Times,serif" font-size="14.00">di0ms0 (det)</text>
<text text-anchor="middle" x="4175.92" y="-240.68" font-family="Times,serif" font-size="14.00">rep=no, t=no, r=no, m=yes, c=no</text>
</g>
<!-- n33&#45;&gt;n32 -->
<g id="edge35" class="edge">
<title>n33&#45;&gt;n32</title>
<path fill="none" stroke="black" d="M4175.92,-332.75C4175.92,-324.58 4175.92,-315.8 4175.92,-307.27"/>
<polygon fill="black" stroke="black" points="4179.42,-307.06 4175.92,-297.06 4172.42,-307.06 4179.42,-307.06"/>
</g>
<!-- n36 -->
<g id="node38" class="node">
<title>n36</title>
<ellipse fill="#98D2A5" stroke="black" cx="4565.92" cy="-259.38" rx="185.94" ry="37.45"/>
<text text-anchor="middle" x="4565.92" y="-270.68" font-family="Times,serif" font-size="14.00">de</text>
<text text-anchor="middle" x="4565.92" y="-255.68" font-family="Times,serif" font-size="14.00">spcms (prep)</text>
<text text-anchor="middle" x="4565.92" y="-240.68" font-family="Times,serif" font-size="14.00">rep=no, t=no, r=no, m=yes, c=no</text>
</g>
<!-- n35&#45;&gt;n36 -->
<g id="edge37" class="edge">
<title>n35&#45;&gt;n36</title>
<path fill="none" stroke="black" d="M4565.92,-332.75C4565.92,-324.58 4565.92,-315.8 4565.92,-307.27"/>
<polygon fill="black" stroke="black" points="4569.42,-307.06 4565.92,-297.06 4562.42,-307.06 4569.42,-307.06"/>
</g>
<!-- n38 -->
<g id="node39" class="node">
<title>n38</title>
<ellipse fill="#98D2A5" stroke="black" cx="4565.92" cy="-148.43" rx="185.94" ry="37.45"/>
<text text-anchor="middle" x="4565.92" y="-159.73" font-family="Times,serif" font-size="14.00">días</text>
<text text-anchor="middle" x="4565.92" y="-144.73" font-family="Times,serif" font-size="14.00">ncmp000 (pobj)</text>
<text text-anchor="middle" x="4565.92" y="-129.73" font-family="Times,serif" font-size="14.00">rep=no, t=no, r=no, m=yes, c=no</text>
</g>
<!-- n36&#45;&gt;n38 -->
<g id="edge38" class="edge">
<title>n36&#45;&gt;n38</title>
<path fill="none" stroke="black" d="M4565.92,-221.8C4565.92,-213.63 4565.92,-204.85 4565.92,-196.32"/>
<polygon fill="black" stroke="black" points="4569.42,-196.1 4565.92,-186.1 4562.42,-196.1 4569.42,-196.1"/>
</g>
<!-- n37 -->
<g id="node40" class="node">
<title>n37</title>
<ellipse fill="#98D2A5" stroke="black" cx="4565.92" cy="-37.48" rx="185.94" ry="37.45"/>
<text text-anchor="middle" x="4565.92" y="-48.78" font-family="Times,serif" font-size="14.00">20</text>
<text text-anchor="middle" x="4565.92" y="-33.78" font-family="Times,serif" font-size="14.00">z (num)</text>
<text text-anchor="middle" x="4565.92" y="-18.78" font-family="Times,serif" font-size="14.00">rep=no, t=no, r=no, m=yes, c=no</text>
</g>
<!-- n38&#45;&gt;n37 -->
<g id="edge39" class="edge">
<title>n38&#45;&gt;n37</title>
<path fill="none" stroke="black" d="M4565.92,-110.85C4565.92,-102.67 4565.92,-93.89 4565.92,-85.37"/>
<polygon fill="black" stroke="black" points="4569.42,-85.15 4565.92,-75.15 4562.42,-85.15 4569.42,-85.15"/>
</g>
</g>
</svg>
