<?xml version="1.0" encoding="UTF-8" standalone="no"?>
<!DOCTYPE svg PUBLIC "-//W3C//DTD SVG 1.1//EN"
 "http://www.w3.org/Graphics/SVG/1.1/DTD/svg11.dtd">
<!-- Generated by graphviz version 2.43.0 (0)
 -->
<!-- Title: tree Pages: 1 -->
<svg width="2790pt" height="971pt"
 viewBox="0.00 0.00 2789.84 970.58" xmlns="http://www.w3.org/2000/svg" xmlns:xlink="http://www.w3.org/1999/xlink">
<g id="graph0" class="graph" transform="scale(1 1) rotate(0) translate(4 966.58)">
<title>tree</title>
<polygon fill="white" stroke="transparent" points="-4,4 -4,-966.58 2785.84,-966.58 2785.84,4 -4,4"/>
<!-- n2 -->
<g id="node1" class="node">
<title>n2</title>
<ellipse fill="#98D2A5" stroke="black" cx="390.92" cy="-925.1" rx="190.84" ry="37.45"/>
<text text-anchor="middle" x="390.92" y="-936.4" font-family="Times,serif" font-size="14.00">computed</text>
<text text-anchor="middle" x="390.92" y="-921.4" font-family="Times,serif" font-size="14.00">VBD (root)</text>
<text text-anchor="middle" x="390.92" y="-906.4" font-family="Times,serif" font-size="14.00">rep=no, t=no, r=yes, m=yes, c=no</text>
</g>
<!-- n1 -->
<g id="node2" class="node">
<title>n1</title>
<ellipse fill="#98D2A5" stroke="black" cx="190.92" cy="-814.15" rx="190.84" ry="37.45"/>
<text text-anchor="middle" x="190.92" y="-825.45" font-family="Times,serif" font-size="14.00">We</text>
<text text-anchor="middle" x="190.92" y="-810.45" font-family="Times,serif" font-size="14.00">PRP (SBJ)</text>
<text text-anchor="middle" x="190.92" y="-795.45" font-family="Times,serif" font-size="14.00">rep=no, t=yes, r=no, m=yes, c=no</text>
</g>
<!-- n2&#45;&gt;n1 -->
<g id="edge1" class="edge">
<title>n2&#45;&gt;n1</title>
<path fill="none" stroke="black" d="M327.64,-889.63C307.11,-878.45 284.18,-865.96 263.06,-854.45"/>
<polygon fill="black" stroke="black" points="264.59,-851.3 254.13,-849.59 261.24,-857.44 264.59,-851.3"/>
</g>
<!-- n4 -->
<g id="node3" class="node">
<title>n4</title>
<ellipse fill="#98D2A5" stroke="black" cx="590.92" cy="-814.15" rx="190.84" ry="37.45"/>
<text text-anchor="middle" x="590.92" y="-825.45" font-family="Times,serif" font-size="14.00">degree</text>
<text text-anchor="middle" x="590.92" y="-810.45" font-family="Times,serif" font-size="14.00">NN (OBJ)</text>
<text text-anchor="middle" x="590.92" y="-795.45" font-family="Times,serif" font-size="14.00">rep=no, t=no, r=yes, m=yes, c=no</text>
</g>
<!-- n2&#45;&gt;n4 -->
<g id="edge2" class="edge">
<title>n2&#45;&gt;n4</title>
<path fill="none" stroke="black" d="M454.2,-889.63C474.73,-878.45 497.65,-865.96 518.78,-854.45"/>
<polygon fill="black" stroke="black" points="520.6,-857.44 527.71,-849.59 517.25,-851.3 520.6,-857.44"/>
</g>
<!-- n3 -->
<g id="node4" class="node">
<title>n3</title>
<ellipse fill="#98D2A5" stroke="black" cx="190.92" cy="-703.2" rx="190.84" ry="37.45"/>
<text text-anchor="middle" x="190.92" y="-714.5" font-family="Times,serif" font-size="14.00">1</text>
<text text-anchor="middle" x="190.92" y="-699.5" font-family="Times,serif" font-size="14.00">Z (NMOD)</text>
<text text-anchor="middle" x="190.92" y="-684.5" font-family="Times,serif" font-size="14.00">rep=no, t=no, r=yes, m=yes, c=no</text>
</g>
<!-- n4&#45;&gt;n3 -->
<g id="edge3" class="edge">
<title>n4&#45;&gt;n3</title>
<path fill="none" stroke="black" d="M481.62,-783.38C428.48,-768.9 364.51,-751.48 310.12,-736.67"/>
<polygon fill="black" stroke="black" points="311,-733.28 300.44,-734.03 309.16,-740.03 311,-733.28"/>
</g>
<!-- n5 -->
<g id="node5" class="node">
<title>n5</title>
<ellipse fill="#98D2A5" stroke="black" cx="590.92" cy="-703.2" rx="190.84" ry="37.45"/>
<text text-anchor="middle" x="590.92" y="-714.5" font-family="Times,serif" font-size="14.00">of</text>
<text text-anchor="middle" x="590.92" y="-699.5" font-family="Times,serif" font-size="14.00">IN (NMOD)</text>
<text text-anchor="middle" x="590.92" y="-684.5" font-family="Times,serif" font-size="14.00">rep=no, t=no, r=yes, m=yes, c=no</text>
</g>
<!-- n4&#45;&gt;n5 -->
<g id="edge4" class="edge">
<title>n4&#45;&gt;n5</title>
<path fill="none" stroke="black" d="M590.92,-776.57C590.92,-768.39 590.92,-759.61 590.92,-751.09"/>
<polygon fill="black" stroke="black" points="594.42,-750.87 590.92,-740.87 587.42,-750.87 594.42,-750.87"/>
</g>
<!-- n14 -->
<g id="node6" class="node">
<title>n14</title>
<ellipse fill="#98D2A5" stroke="black" cx="990.92" cy="-703.2" rx="190.84" ry="37.45"/>
<text text-anchor="middle" x="990.92" y="-714.5" font-family="Times,serif" font-size="14.00">tests</text>
<text text-anchor="middle" x="990.92" y="-699.5" font-family="Times,serif" font-size="14.00">NNS (NMOD)</text>
<text text-anchor="middle" x="990.92" y="-684.5" font-family="Times,serif" font-size="14.00">rep=no, t=no, r=yes, m=yes, c=no</text>
</g>
<!-- n4&#45;&gt;n14 -->
<g id="edge5" class="edge">
<title>n4&#45;&gt;n14</title>
<path fill="none" stroke="black" d="M700.22,-783.38C753.36,-768.9 817.33,-751.48 871.71,-736.67"/>
<polygon fill="black" stroke="black" points="872.67,-740.03 881.4,-734.03 870.83,-733.28 872.67,-740.03"/>
</g>
<!-- n6 -->
<g id="node7" class="node">
<title>n6</title>
<ellipse fill="#98D2A5" stroke="black" cx="590.92" cy="-592.24" rx="190.84" ry="37.45"/>
<text text-anchor="middle" x="590.92" y="-603.54" font-family="Times,serif" font-size="14.00">freedom</text>
<text text-anchor="middle" x="590.92" y="-588.54" font-family="Times,serif" font-size="14.00">NN (PMOD)</text>
<text text-anchor="middle" x="590.92" y="-573.54" font-family="Times,serif" font-size="14.00">rep=no, t=no, r=yes, m=yes, c=no</text>
</g>
<!-- n5&#45;&gt;n6 -->
<g id="edge6" class="edge">
<title>n5&#45;&gt;n6</title>
<path fill="none" stroke="black" d="M590.92,-665.61C590.92,-657.44 590.92,-648.66 590.92,-640.13"/>
<polygon fill="black" stroke="black" points="594.42,-639.92 590.92,-629.92 587.42,-639.92 594.42,-639.92"/>
</g>
<!-- n13 -->
<g id="node8" class="node">
<title>n13</title>
<ellipse fill="#98D2A5" stroke="black" cx="990.92" cy="-592.24" rx="190.84" ry="37.45"/>
<text text-anchor="middle" x="990.92" y="-603.54" font-family="Times,serif" font-size="14.00">association</text>
<text text-anchor="middle" x="990.92" y="-588.54" font-family="Times,serif" font-size="14.00">NN (NMOD)</text>
<text text-anchor="middle" x="990.92" y="-573.54" font-family="Times,serif" font-size="14.00">rep=no, t=no, r=yes, m=yes, c=no</text>
</g>
<!-- n14&#45;&gt;n13 -->
<g id="edge7" class="edge">
<title>n14&#45;&gt;n13</title>
<path fill="none" stroke="black" d="M990.92,-665.61C990.92,-657.44 990.92,-648.66 990.92,-640.13"/>
<polygon fill="black" stroke="black" points="994.42,-639.92 990.92,-629.92 987.42,-639.92 994.42,-639.92"/>
</g>
<!-- n15 -->
<g id="node9" class="node">
<title>n15</title>
<ellipse fill="#98D2A5" stroke="black" cx="1390.92" cy="-592.24" rx="190.84" ry="37.45"/>
<text text-anchor="middle" x="1390.92" y="-603.54" font-family="Times,serif" font-size="14.00">for</text>
<text text-anchor="middle" x="1390.92" y="-588.54" font-family="Times,serif" font-size="14.00">IN (NMOD)</text>
<text text-anchor="middle" x="1390.92" y="-573.54" font-family="Times,serif" font-size="14.00">rep=no, t=no, r=yes, m=yes, c=no</text>
</g>
<!-- n14&#45;&gt;n15 -->
<g id="edge8" class="edge">
<title>n14&#45;&gt;n15</title>
<path fill="none" stroke="black" d="M1100.22,-672.42C1153.36,-657.95 1217.33,-640.53 1271.71,-625.71"/>
<polygon fill="black" stroke="black" points="1272.67,-629.08 1281.4,-623.07 1270.83,-622.32 1272.67,-629.08"/>
</g>
<!-- n8 -->
<g id="node10" class="node">
<title>n8</title>
<ellipse fill="#98D2A5" stroke="black" cx="1390.92" cy="-481.29" rx="190.84" ry="37.45"/>
<text text-anchor="middle" x="1390.92" y="-492.59" font-family="Times,serif" font-size="14.00">d</text>
<text text-anchor="middle" x="1390.92" y="-477.59" font-family="Times,serif" font-size="14.00">NN (PMOD)</text>
<text text-anchor="middle" x="1390.92" y="-462.59" font-family="Times,serif" font-size="14.00">rep=no, t=no, r=yes, m=yes, c=no</text>
</g>
<!-- n15&#45;&gt;n8 -->
<g id="edge9" class="edge">
<title>n15&#45;&gt;n8</title>
<path fill="none" stroke="black" d="M1390.92,-554.66C1390.92,-546.49 1390.92,-537.71 1390.92,-529.18"/>
<polygon fill="black" stroke="black" points="1394.42,-528.96 1390.92,-518.96 1387.42,-528.96 1394.42,-528.96"/>
</g>
<!-- n7 -->
<g id="node11" class="node">
<title>n7</title>
<ellipse fill="#98D2A5" stroke="black" cx="590.92" cy="-370.34" rx="190.84" ry="37.45"/>
<text text-anchor="middle" x="590.92" y="-381.64" font-family="Times,serif" font-size="14.00">(</text>
<text text-anchor="middle" x="590.92" y="-366.64" font-family="Times,serif" font-size="14.00">Fpa (P)</text>
<text text-anchor="middle" x="590.92" y="-351.64" font-family="Times,serif" font-size="14.00">rep=no, t=no, r=yes, m=yes, c=no</text>
</g>
<!-- n8&#45;&gt;n7 -->
<g id="edge10" class="edge">
<title>n8&#45;&gt;n7</title>
<path fill="none" stroke="black" d="M1224.38,-462.89C1103.76,-449.63 936.93,-429.93 790.92,-407.81 772.87,-405.08 753.96,-401.96 735.26,-398.73"/>
<polygon fill="black" stroke="black" points="735.66,-395.25 725.21,-396.98 734.46,-402.14 735.66,-395.25"/>
</g>
<!-- n9 -->
<g id="node12" class="node">
<title>n9</title>
<ellipse fill="#98D2A5" stroke="black" cx="990.92" cy="-370.34" rx="190.84" ry="37.45"/>
<text text-anchor="middle" x="990.92" y="-381.64" font-family="Times,serif" font-size="14.00">.</text>
<text text-anchor="middle" x="990.92" y="-366.64" font-family="Times,serif" font-size="14.00">Fp (GAP&#45;NMOD)</text>
<text text-anchor="middle" x="990.92" y="-351.64" font-family="Times,serif" font-size="14.00">rep=no, t=no, r=yes, m=yes, c=no</text>
</g>
<!-- n8&#45;&gt;n9 -->
<g id="edge11" class="edge">
<title>n8&#45;&gt;n9</title>
<path fill="none" stroke="black" d="M1281.62,-450.52C1228.48,-436.04 1164.51,-418.62 1110.12,-403.81"/>
<polygon fill="black" stroke="black" points="1111,-400.42 1100.44,-401.17 1109.16,-407.17 1111,-400.42"/>
</g>
<!-- n10 -->
<g id="node13" class="node">
<title>n10</title>
<ellipse fill="#98D2A5" stroke="black" cx="1390.92" cy="-370.34" rx="190.84" ry="37.45"/>
<text text-anchor="middle" x="1390.92" y="-381.64" font-family="Times,serif" font-size="14.00">f</text>
<text text-anchor="middle" x="1390.92" y="-366.64" font-family="Times,serif" font-size="14.00">NN (NMOD)</text>
<text text-anchor="middle" x="1390.92" y="-351.64" font-family="Times,serif" font-size="14.00">rep=no, t=no, r=yes, m=yes, c=no</text>
</g>
<!-- n8&#45;&gt;n10 -->
<g id="edge12" class="edge">
<title>n8&#45;&gt;n10</title>
<path fill="none" stroke="black" d="M1390.92,-443.71C1390.92,-435.53 1390.92,-426.75 1390.92,-418.23"/>
<polygon fill="black" stroke="black" points="1394.42,-418.01 1390.92,-408.01 1387.42,-418.01 1394.42,-418.01"/>
</g>
<!-- n16 -->
<g id="node14" class="node">
<title>n16</title>
<ellipse fill="#98D2A5" stroke="black" cx="1790.92" cy="-370.34" rx="190.84" ry="37.45"/>
<text text-anchor="middle" x="1790.92" y="-381.64" font-family="Times,serif" font-size="14.00">each</text>
<text text-anchor="middle" x="1790.92" y="-366.64" font-family="Times,serif" font-size="14.00">DT (NMOD)</text>
<text text-anchor="middle" x="1790.92" y="-351.64" font-family="Times,serif" font-size="14.00">rep=no, t=no, r=yes, m=yes, c=no</text>
</g>
<!-- n8&#45;&gt;n16 -->
<g id="edge13" class="edge">
<title>n8&#45;&gt;n16</title>
<path fill="none" stroke="black" d="M1500.22,-450.52C1553.36,-436.04 1617.33,-418.62 1671.71,-403.81"/>
<polygon fill="black" stroke="black" points="1672.67,-407.17 1681.4,-401.17 1670.83,-400.42 1672.67,-407.17"/>
</g>
<!-- n17 -->
<g id="node15" class="node">
<title>n17</title>
<ellipse fill="#98D2A5" stroke="black" cx="2190.92" cy="-370.34" rx="190.84" ry="37.45"/>
<text text-anchor="middle" x="2190.92" y="-381.64" font-family="Times,serif" font-size="14.00">SNP</text>
<text text-anchor="middle" x="2190.92" y="-366.64" font-family="Times,serif" font-size="14.00">NP00O00 (NMOD)</text>
<text text-anchor="middle" x="2190.92" y="-351.64" font-family="Times,serif" font-size="14.00">rep=no, t=no, r=yes, m=yes, c=no</text>
</g>
<!-- n8&#45;&gt;n17 -->
<g id="edge14" class="edge">
<title>n8&#45;&gt;n17</title>
<path fill="none" stroke="black" d="M1557.46,-462.89C1678.08,-449.63 1844.9,-429.93 1990.92,-407.81 2008.96,-405.08 2027.88,-401.96 2046.57,-398.73"/>
<polygon fill="black" stroke="black" points="2047.38,-402.14 2056.63,-396.98 2046.17,-395.25 2047.38,-402.14"/>
</g>
<!-- n11 -->
<g id="node16" class="node">
<title>n11</title>
<ellipse fill="#98D2A5" stroke="black" cx="990.92" cy="-259.38" rx="190.84" ry="37.45"/>
<text text-anchor="middle" x="990.92" y="-270.68" font-family="Times,serif" font-size="14.00">.</text>
<text text-anchor="middle" x="990.92" y="-255.68" font-family="Times,serif" font-size="14.00">Fp (P)</text>
<text text-anchor="middle" x="990.92" y="-240.68" font-family="Times,serif" font-size="14.00">rep=no, t=no, r=yes, m=yes, c=no</text>
</g>
<!-- n10&#45;&gt;n11 -->
<g id="edge15" class="edge">
<title>n10&#45;&gt;n11</title>
<path fill="none" stroke="black" d="M1281.62,-339.56C1228.48,-325.09 1164.51,-307.67 1110.12,-292.85"/>
<polygon fill="black" stroke="black" points="1111,-289.46 1100.44,-290.21 1109.16,-296.22 1111,-289.46"/>
</g>
<!-- n12 -->
<g id="node17" class="node">
<title>n12</title>
<ellipse fill="#98D2A5" stroke="black" cx="1390.92" cy="-259.38" rx="190.84" ry="37.45"/>
<text text-anchor="middle" x="1390.92" y="-270.68" font-family="Times,serif" font-size="14.00">)</text>
<text text-anchor="middle" x="1390.92" y="-255.68" font-family="Times,serif" font-size="14.00">Fpt (P)</text>
<text text-anchor="middle" x="1390.92" y="-240.68" font-family="Times,serif" font-size="14.00">rep=no, t=no, r=yes, m=yes, c=no</text>
</g>
<!-- n10&#45;&gt;n12 -->
<g id="edge16" class="edge">
<title>n10&#45;&gt;n12</title>
<path fill="none" stroke="black" d="M1390.92,-332.75C1390.92,-324.58 1390.92,-315.8 1390.92,-307.27"/>
<polygon fill="black" stroke="black" points="1394.42,-307.06 1390.92,-297.06 1387.42,-307.06 1394.42,-307.06"/>
</g>
<!-- n18 -->
<g id="node18" class="node">
<title>n18</title>
<ellipse fill="#98D2A5" stroke="black" cx="1790.92" cy="-259.38" rx="190.84" ry="37.45"/>
<text text-anchor="middle" x="1790.92" y="-270.68" font-family="Times,serif" font-size="14.00">,</text>
<text text-anchor="middle" x="1790.92" y="-255.68" font-family="Times,serif" font-size="14.00">Fc (P)</text>
<text text-anchor="middle" x="1790.92" y="-240.68" font-family="Times,serif" font-size="14.00">rep=no, t=no, r=yes, m=yes, c=no</text>
</g>
<!-- n17&#45;&gt;n18 -->
<g id="edge17" class="edge">
<title>n17&#45;&gt;n18</title>
<path fill="none" stroke="black" d="M2081.62,-339.56C2028.48,-325.09 1964.51,-307.67 1910.12,-292.85"/>
<polygon fill="black" stroke="black" points="1911,-289.46 1900.44,-290.21 1909.16,-296.22 1911,-289.46"/>
</g>
<!-- n20 -->
<g id="node19" class="node">
<title>n20</title>
<ellipse fill="#98D2A5" stroke="black" cx="2190.92" cy="-259.38" rx="190.84" ry="37.45"/>
<text text-anchor="middle" x="2190.92" y="-270.68" font-family="Times,serif" font-size="14.00">stages</text>
<text text-anchor="middle" x="2190.92" y="-255.68" font-family="Times,serif" font-size="14.00">NNS (COORD)</text>
<text text-anchor="middle" x="2190.92" y="-240.68" font-family="Times,serif" font-size="14.00">rep=no, t=no, r=yes, m=yes, c=no</text>
</g>
<!-- n17&#45;&gt;n20 -->
<g id="edge18" class="edge">
<title>n17&#45;&gt;n20</title>
<path fill="none" stroke="black" d="M2190.92,-332.75C2190.92,-324.58 2190.92,-315.8 2190.92,-307.27"/>
<polygon fill="black" stroke="black" points="2194.42,-307.06 2190.92,-297.06 2187.42,-307.06 2194.42,-307.06"/>
</g>
<!-- n24 -->
<g id="node20" class="node">
<title>n24</title>
<ellipse fill="#98D2A5" stroke="black" cx="2590.92" cy="-259.38" rx="190.84" ry="37.45"/>
<text text-anchor="middle" x="2590.92" y="-270.68" font-family="Times,serif" font-size="14.00">.</text>
<text text-anchor="middle" x="2590.92" y="-255.68" font-family="Times,serif" font-size="14.00">Fp (P)</text>
<text text-anchor="middle" x="2590.92" y="-240.68" font-family="Times,serif" font-size="14.00">rep=no, t=no, r=yes, m=yes, c=no</text>
</g>
<!-- n17&#45;&gt;n24 -->
<g id="edge19" class="edge">
<title>n17&#45;&gt;n24</title>
<path fill="none" stroke="black" d="M2300.22,-339.56C2353.36,-325.09 2417.33,-307.67 2471.71,-292.85"/>
<polygon fill="black" stroke="black" points="2472.67,-296.22 2481.4,-290.21 2470.83,-289.46 2472.67,-296.22"/>
</g>
<!-- n19 -->
<g id="node21" class="node">
<title>n19</title>
<ellipse fill="#98D2A5" stroke="black" cx="1790.92" cy="-148.43" rx="190.84" ry="37.45"/>
<text text-anchor="middle" x="1790.92" y="-159.73" font-family="Times,serif" font-size="14.00">combining</text>
<text text-anchor="middle" x="1790.92" y="-144.73" font-family="Times,serif" font-size="14.00">VBG (NMOD)</text>
<text text-anchor="middle" x="1790.92" y="-129.73" font-family="Times,serif" font-size="14.00">rep=no, t=no, r=yes, m=yes, c=no</text>
</g>
<!-- n20&#45;&gt;n19 -->
<g id="edge20" class="edge">
<title>n20&#45;&gt;n19</title>
<path fill="none" stroke="black" d="M2081.62,-228.61C2028.48,-214.14 1964.51,-196.71 1910.12,-181.9"/>
<polygon fill="black" stroke="black" points="1911,-178.51 1900.44,-179.26 1909.16,-185.27 1911,-178.51"/>
</g>
<!-- n21 -->
<g id="node22" class="node">
<title>n21</title>
<ellipse fill="#98D2A5" stroke="black" cx="2190.92" cy="-148.43" rx="190.84" ry="37.45"/>
<text text-anchor="middle" x="2190.92" y="-159.73" font-family="Times,serif" font-size="14.00">1</text>
<text text-anchor="middle" x="2190.92" y="-144.73" font-family="Times,serif" font-size="14.00">Z (NMOD)</text>
<text text-anchor="middle" x="2190.92" y="-129.73" font-family="Times,serif" font-size="14.00">rep=no, t=no, r=yes, m=yes, c=no</text>
</g>
<!-- n20&#45;&gt;n21 -->
<g id="edge21" class="edge">
<title>n20&#45;&gt;n21</title>
<path fill="none" stroke="black" d="M2190.92,-221.8C2190.92,-213.63 2190.92,-204.85 2190.92,-196.32"/>
<polygon fill="black" stroke="black" points="2194.42,-196.1 2190.92,-186.1 2187.42,-196.1 2194.42,-196.1"/>
</g>
<!-- n22 -->
<g id="node23" class="node">
<title>n22</title>
<ellipse fill="#98D2A5" stroke="black" cx="2590.92" cy="-148.43" rx="190.84" ry="37.45"/>
<text text-anchor="middle" x="2590.92" y="-159.73" font-family="Times,serif" font-size="14.00">and</text>
<text text-anchor="middle" x="2590.92" y="-144.73" font-family="Times,serif" font-size="14.00">CC (COORD)</text>
<text text-anchor="middle" x="2590.92" y="-129.73" font-family="Times,serif" font-size="14.00">rep=no, t=no, r=yes, m=yes, c=no</text>
</g>
<!-- n20&#45;&gt;n22 -->
<g id="edge22" class="edge">
<title>n20&#45;&gt;n22</title>
<path fill="none" stroke="black" d="M2300.22,-228.61C2353.36,-214.14 2417.33,-196.71 2471.71,-181.9"/>
<polygon fill="black" stroke="black" points="2472.67,-185.27 2481.4,-179.26 2470.83,-178.51 2472.67,-185.27"/>
</g>
<!-- n23 -->
<g id="node24" class="node">
<title>n23</title>
<ellipse fill="#98D2A5" stroke="black" cx="2590.92" cy="-37.48" rx="190.84" ry="37.45"/>
<text text-anchor="middle" x="2590.92" y="-48.78" font-family="Times,serif" font-size="14.00">2</text>
<text text-anchor="middle" x="2590.92" y="-33.78" font-family="Times,serif" font-size="14.00">Z (CONJ)</text>
<text text-anchor="middle" x="2590.92" y="-18.78" font-family="Times,serif" font-size="14.00">rep=no, t=no, r=yes, m=yes, c=no</text>
</g>
<!-- n22&#45;&gt;n23 -->
<g id="edge23" class="edge">
<title>n22&#45;&gt;n23</title>
<path fill="none" stroke="black" d="M2590.92,-110.85C2590.92,-102.67 2590.92,-93.89 2590.92,-85.37"/>
<polygon fill="black" stroke="black" points="2594.42,-85.15 2590.92,-75.15 2587.42,-85.15 2594.42,-85.15"/>
</g>
</g>
</svg>
