<?xml version="1.0" encoding="UTF-8" standalone="no"?>
<!DOCTYPE svg PUBLIC "-//W3C//DTD SVG 1.1//EN"
 "http://www.w3.org/Graphics/SVG/1.1/DTD/svg11.dtd">
<!-- Generated by graphviz version 2.43.0 (0)
 -->
<!-- Title: tree Pages: 1 -->
<svg width="2890pt" height="1303pt"
 viewBox="0.00 0.00 2889.84 1303.44" xmlns="http://www.w3.org/2000/svg" xmlns:xlink="http://www.w3.org/1999/xlink">
<g id="graph0" class="graph" transform="scale(1 1) rotate(0) translate(4 1299.44)">
<title>tree</title>
<polygon fill="white" stroke="transparent" points="-4,4 -4,-1299.44 2885.84,-1299.44 2885.84,4 -4,4"/>
<!-- n3 -->
<g id="node1" class="node">
<title>n3</title>
<ellipse fill="#98D2A5" stroke="black" cx="790.92" cy="-1257.96" rx="190.84" ry="37.45"/>
<text text-anchor="middle" x="790.92" y="-1269.26" font-family="Times,serif" font-size="14.00">is</text>
<text text-anchor="middle" x="790.92" y="-1254.26" font-family="Times,serif" font-size="14.00">VBZ (root)</text>
<text text-anchor="middle" x="790.92" y="-1239.26" font-family="Times,serif" font-size="14.00">rep=no, t=no, r=yes, m=yes, c=no</text>
</g>
<!-- n2 -->
<g id="node2" class="node">
<title>n2</title>
<ellipse fill="#98D2A5" stroke="black" cx="390.92" cy="-1147.01" rx="190.84" ry="37.45"/>
<text text-anchor="middle" x="390.92" y="-1158.31" font-family="Times,serif" font-size="14.00">cancer</text>
<text text-anchor="middle" x="390.92" y="-1143.31" font-family="Times,serif" font-size="14.00">NN (SBJ)</text>
<text text-anchor="middle" x="390.92" y="-1128.31" font-family="Times,serif" font-size="14.00">rep=no, t=yes, r=no, m=yes, c=no</text>
</g>
<!-- n3&#45;&gt;n2 -->
<g id="edge1" class="edge">
<title>n3&#45;&gt;n2</title>
<path fill="none" stroke="black" d="M681.62,-1227.19C628.48,-1212.72 564.51,-1195.29 510.12,-1180.48"/>
<polygon fill="black" stroke="black" points="511,-1177.09 500.44,-1177.84 509.16,-1183.85 511,-1177.09"/>
</g>
<!-- n5 -->
<g id="node3" class="node">
<title>n5</title>
<ellipse fill="#98D2A5" stroke="black" cx="790.92" cy="-1147.01" rx="190.84" ry="37.45"/>
<text text-anchor="middle" x="790.92" y="-1158.31" font-family="Times,serif" font-size="14.00">twice</text>
<text text-anchor="middle" x="790.92" y="-1143.31" font-family="Times,serif" font-size="14.00">RB (PRD)</text>
<text text-anchor="middle" x="790.92" y="-1128.31" font-family="Times,serif" font-size="14.00">rep=no, t=no, r=yes, m=yes, c=no</text>
</g>
<!-- n3&#45;&gt;n5 -->
<g id="edge2" class="edge">
<title>n3&#45;&gt;n5</title>
<path fill="none" stroke="black" d="M790.92,-1220.38C790.92,-1212.21 790.92,-1203.43 790.92,-1194.9"/>
<polygon fill="black" stroke="black" points="794.42,-1194.68 790.92,-1184.68 787.42,-1194.68 794.42,-1194.68"/>
</g>
<!-- n32 -->
<g id="node4" class="node">
<title>n32</title>
<ellipse fill="#98D2A5" stroke="black" cx="1190.92" cy="-1147.01" rx="190.84" ry="37.45"/>
<text text-anchor="middle" x="1190.92" y="-1158.31" font-family="Times,serif" font-size="14.00">.</text>
<text text-anchor="middle" x="1190.92" y="-1143.31" font-family="Times,serif" font-size="14.00">Fp (P)</text>
<text text-anchor="middle" x="1190.92" y="-1128.31" font-family="Times,serif" font-size="14.00">rep=no, t=no, r=yes, m=yes, c=no</text>
</g>
<!-- n3&#45;&gt;n32 -->
<g id="edge3" class="edge">
<title>n3&#45;&gt;n32</title>
<path fill="none" stroke="black" d="M900.22,-1227.19C953.36,-1212.72 1017.33,-1195.29 1071.71,-1180.48"/>
<polygon fill="black" stroke="black" points="1072.67,-1183.85 1081.4,-1177.84 1070.83,-1177.09 1072.67,-1183.85"/>
</g>
<!-- n1 -->
<g id="node5" class="node">
<title>n1</title>
<ellipse fill="#98D2A5" stroke="black" cx="190.92" cy="-1036.06" rx="190.84" ry="37.45"/>
<text text-anchor="middle" x="190.92" y="-1047.36" font-family="Times,serif" font-size="14.00">Breast</text>
<text text-anchor="middle" x="190.92" y="-1032.36" font-family="Times,serif" font-size="14.00">NN (NMOD)</text>
<text text-anchor="middle" x="190.92" y="-1017.36" font-family="Times,serif" font-size="14.00">rep=no, t=yes, r=no, m=yes, c=no</text>
</g>
<!-- n2&#45;&gt;n1 -->
<g id="edge4" class="edge">
<title>n2&#45;&gt;n1</title>
<path fill="none" stroke="black" d="M327.64,-1111.54C307.11,-1100.35 284.18,-1087.86 263.06,-1076.36"/>
<polygon fill="black" stroke="black" points="264.59,-1073.2 254.13,-1071.49 261.24,-1079.35 264.59,-1073.2"/>
</g>
<!-- n4 -->
<g id="node6" class="node">
<title>n4</title>
<ellipse fill="#98D2A5" stroke="black" cx="590.92" cy="-1036.06" rx="190.84" ry="37.45"/>
<text text-anchor="middle" x="590.92" y="-1047.36" font-family="Times,serif" font-size="14.00">about</text>
<text text-anchor="middle" x="590.92" y="-1032.36" font-family="Times,serif" font-size="14.00">RB (NMOD)</text>
<text text-anchor="middle" x="590.92" y="-1017.36" font-family="Times,serif" font-size="14.00">rep=no, t=no, r=yes, m=yes, c=no</text>
</g>
<!-- n5&#45;&gt;n4 -->
<g id="edge5" class="edge">
<title>n5&#45;&gt;n4</title>
<path fill="none" stroke="black" d="M727.64,-1111.54C707.11,-1100.35 684.18,-1087.86 663.06,-1076.36"/>
<polygon fill="black" stroke="black" points="664.59,-1073.2 654.13,-1071.49 661.24,-1079.35 664.59,-1073.2"/>
</g>
<!-- n6 -->
<g id="node7" class="node">
<title>n6</title>
<ellipse fill="#98D2A5" stroke="black" cx="990.92" cy="-1036.06" rx="190.84" ry="37.45"/>
<text text-anchor="middle" x="990.92" y="-1047.36" font-family="Times,serif" font-size="14.00">as</text>
<text text-anchor="middle" x="990.92" y="-1032.36" font-family="Times,serif" font-size="14.00">IN (NMOD)</text>
<text text-anchor="middle" x="990.92" y="-1017.36" font-family="Times,serif" font-size="14.00">rep=no, t=no, r=yes, m=yes, c=no</text>
</g>
<!-- n5&#45;&gt;n6 -->
<g id="edge6" class="edge">
<title>n5&#45;&gt;n6</title>
<path fill="none" stroke="black" d="M854.2,-1111.54C874.73,-1100.35 897.65,-1087.86 918.78,-1076.36"/>
<polygon fill="black" stroke="black" points="920.6,-1079.35 927.71,-1071.49 917.25,-1073.2 920.6,-1079.35"/>
</g>
<!-- n8 -->
<g id="node8" class="node">
<title>n8</title>
<ellipse fill="#98D2A5" stroke="black" cx="1390.92" cy="-1036.06" rx="190.84" ry="37.45"/>
<text text-anchor="middle" x="1390.92" y="-1047.36" font-family="Times,serif" font-size="14.00">in</text>
<text text-anchor="middle" x="1390.92" y="-1032.36" font-family="Times,serif" font-size="14.00">IN (LOC)</text>
<text text-anchor="middle" x="1390.92" y="-1017.36" font-family="Times,serif" font-size="14.00">rep=no, t=no, r=yes, m=yes, c=no</text>
</g>
<!-- n5&#45;&gt;n8 -->
<g id="edge7" class="edge">
<title>n5&#45;&gt;n8</title>
<path fill="none" stroke="black" d="M928.35,-1120.9C949.31,-1117.08 970.69,-1113.2 990.92,-1109.53 1079.79,-1093.43 1102.05,-1089.64 1190.92,-1073.53 1207.99,-1070.44 1225.87,-1067.19 1243.64,-1063.96"/>
<polygon fill="black" stroke="black" points="1244.27,-1067.4 1253.48,-1062.17 1243.02,-1060.51 1244.27,-1067.4"/>
</g>
<!-- n7 -->
<g id="node9" class="node">
<title>n7</title>
<ellipse fill="#98D2A5" stroke="black" cx="990.92" cy="-925.1" rx="190.84" ry="37.45"/>
<text text-anchor="middle" x="990.92" y="-936.4" font-family="Times,serif" font-size="14.00">common</text>
<text text-anchor="middle" x="990.92" y="-921.4" font-family="Times,serif" font-size="14.00">JJ (PMOD)</text>
<text text-anchor="middle" x="990.92" y="-906.4" font-family="Times,serif" font-size="14.00">rep=no, t=no, r=yes, m=yes, c=no</text>
</g>
<!-- n6&#45;&gt;n7 -->
<g id="edge8" class="edge">
<title>n6&#45;&gt;n7</title>
<path fill="none" stroke="black" d="M990.92,-998.47C990.92,-990.3 990.92,-981.52 990.92,-972.99"/>
<polygon fill="black" stroke="black" points="994.42,-972.78 990.92,-962.78 987.42,-972.78 994.42,-972.78"/>
</g>
<!-- n11 -->
<g id="node10" class="node">
<title>n11</title>
<ellipse fill="#98D2A5" stroke="black" cx="1390.92" cy="-925.1" rx="190.84" ry="37.45"/>
<text text-anchor="middle" x="1390.92" y="-936.4" font-family="Times,serif" font-size="14.00">relatives</text>
<text text-anchor="middle" x="1390.92" y="-921.4" font-family="Times,serif" font-size="14.00">NNS (PMOD)</text>
<text text-anchor="middle" x="1390.92" y="-906.4" font-family="Times,serif" font-size="14.00">rep=no, t=no, r=yes, m=yes, c=no</text>
</g>
<!-- n8&#45;&gt;n11 -->
<g id="edge9" class="edge">
<title>n8&#45;&gt;n11</title>
<path fill="none" stroke="black" d="M1390.92,-998.47C1390.92,-990.3 1390.92,-981.52 1390.92,-972.99"/>
<polygon fill="black" stroke="black" points="1394.42,-972.78 1390.92,-962.78 1387.42,-972.78 1394.42,-972.78"/>
</g>
<!-- n9 -->
<g id="node11" class="node">
<title>n9</title>
<ellipse fill="#98D2A5" stroke="black" cx="990.92" cy="-814.15" rx="190.84" ry="37.45"/>
<text text-anchor="middle" x="990.92" y="-825.45" font-family="Times,serif" font-size="14.00">the</text>
<text text-anchor="middle" x="990.92" y="-810.45" font-family="Times,serif" font-size="14.00">DT (NMOD)</text>
<text text-anchor="middle" x="990.92" y="-795.45" font-family="Times,serif" font-size="14.00">rep=no, t=no, r=yes, m=yes, c=no</text>
</g>
<!-- n11&#45;&gt;n9 -->
<g id="edge10" class="edge">
<title>n11&#45;&gt;n9</title>
<path fill="none" stroke="black" d="M1281.62,-894.33C1228.48,-879.86 1164.51,-862.43 1110.12,-847.62"/>
<polygon fill="black" stroke="black" points="1111,-844.23 1100.44,-844.98 1109.16,-850.99 1111,-844.23"/>
</g>
<!-- n10 -->
<g id="node12" class="node">
<title>n10</title>
<ellipse fill="#98D2A5" stroke="black" cx="1390.92" cy="-814.15" rx="190.84" ry="37.45"/>
<text text-anchor="middle" x="1390.92" y="-825.45" font-family="Times,serif" font-size="14.00">first&#45;degree</text>
<text text-anchor="middle" x="1390.92" y="-810.45" font-family="Times,serif" font-size="14.00">NN (NMOD)</text>
<text text-anchor="middle" x="1390.92" y="-795.45" font-family="Times,serif" font-size="14.00">rep=no, t=no, r=yes, m=yes, c=no</text>
</g>
<!-- n11&#45;&gt;n10 -->
<g id="edge11" class="edge">
<title>n11&#45;&gt;n10</title>
<path fill="none" stroke="black" d="M1390.92,-887.52C1390.92,-879.35 1390.92,-870.57 1390.92,-862.04"/>
<polygon fill="black" stroke="black" points="1394.42,-861.82 1390.92,-851.82 1387.42,-861.82 1394.42,-861.82"/>
</g>
<!-- n12 -->
<g id="node13" class="node">
<title>n12</title>
<ellipse fill="#98D2A5" stroke="black" cx="1790.92" cy="-814.15" rx="190.84" ry="37.45"/>
<text text-anchor="middle" x="1790.92" y="-825.45" font-family="Times,serif" font-size="14.00">of</text>
<text text-anchor="middle" x="1790.92" y="-810.45" font-family="Times,serif" font-size="14.00">IN (NMOD)</text>
<text text-anchor="middle" x="1790.92" y="-795.45" font-family="Times,serif" font-size="14.00">rep=no, t=no, r=yes, m=yes, c=no</text>
</g>
<!-- n11&#45;&gt;n12 -->
<g id="edge12" class="edge">
<title>n11&#45;&gt;n12</title>
<path fill="none" stroke="black" d="M1500.22,-894.33C1553.36,-879.86 1617.33,-862.43 1671.71,-847.62"/>
<polygon fill="black" stroke="black" points="1672.67,-850.99 1681.4,-844.98 1670.83,-844.23 1672.67,-850.99"/>
</g>
<!-- n13 -->
<g id="node14" class="node">
<title>n13</title>
<ellipse fill="#98D2A5" stroke="black" cx="1790.92" cy="-703.2" rx="190.84" ry="37.45"/>
<text text-anchor="middle" x="1790.92" y="-714.5" font-family="Times,serif" font-size="14.00">women</text>
<text text-anchor="middle" x="1790.92" y="-699.5" font-family="Times,serif" font-size="14.00">NNS (PMOD)</text>
<text text-anchor="middle" x="1790.92" y="-684.5" font-family="Times,serif" font-size="14.00">rep=no, t=no, r=yes, m=yes, c=no</text>
</g>
<!-- n12&#45;&gt;n13 -->
<g id="edge13" class="edge">
<title>n12&#45;&gt;n13</title>
<path fill="none" stroke="black" d="M1790.92,-776.57C1790.92,-768.39 1790.92,-759.61 1790.92,-751.09"/>
<polygon fill="black" stroke="black" points="1794.42,-750.87 1790.92,-740.87 1787.42,-750.87 1794.42,-750.87"/>
</g>
<!-- n14 -->
<g id="node15" class="node">
<title>n14</title>
<ellipse fill="#98D2A5" stroke="black" cx="1190.92" cy="-592.24" rx="190.84" ry="37.45"/>
<text text-anchor="middle" x="1190.92" y="-603.54" font-family="Times,serif" font-size="14.00">with</text>
<text text-anchor="middle" x="1190.92" y="-588.54" font-family="Times,serif" font-size="14.00">IN (NMOD)</text>
<text text-anchor="middle" x="1190.92" y="-573.54" font-family="Times,serif" font-size="14.00">rep=no, t=no, r=yes, m=yes, c=no</text>
</g>
<!-- n13&#45;&gt;n14 -->
<g id="edge14" class="edge">
<title>n13&#45;&gt;n14</title>
<path fill="none" stroke="black" d="M1653,-677.25C1575.9,-663.29 1478.06,-645.56 1390.92,-629.72 1373.85,-626.62 1355.97,-623.36 1338.21,-620.13"/>
<polygon fill="black" stroke="black" points="1338.82,-616.68 1328.36,-618.33 1337.57,-623.57 1338.82,-616.68"/>
</g>
<!-- n17 -->
<g id="node16" class="node">
<title>n17</title>
<ellipse fill="#98D2A5" stroke="black" cx="1590.92" cy="-592.24" rx="190.84" ry="37.45"/>
<text text-anchor="middle" x="1590.92" y="-603.54" font-family="Times,serif" font-size="14.00">as</text>
<text text-anchor="middle" x="1590.92" y="-588.54" font-family="Times,serif" font-size="14.00">IN (NMOD)</text>
<text text-anchor="middle" x="1590.92" y="-573.54" font-family="Times,serif" font-size="14.00">rep=no, t=no, r=yes, m=yes, c=no</text>
</g>
<!-- n13&#45;&gt;n17 -->
<g id="edge15" class="edge">
<title>n13&#45;&gt;n17</title>
<path fill="none" stroke="black" d="M1727.64,-667.72C1707.11,-656.54 1684.18,-644.05 1663.06,-632.54"/>
<polygon fill="black" stroke="black" points="1664.59,-629.39 1654.13,-627.68 1661.24,-635.54 1664.59,-629.39"/>
</g>
<!-- n22 -->
<g id="node17" class="node">
<title>n22</title>
<ellipse fill="#98D2A5" stroke="black" cx="1990.92" cy="-592.24" rx="190.84" ry="37.45"/>
<text text-anchor="middle" x="1990.92" y="-603.54" font-family="Times,serif" font-size="14.00">,</text>
<text text-anchor="middle" x="1990.92" y="-588.54" font-family="Times,serif" font-size="14.00">Fc (P)</text>
<text text-anchor="middle" x="1990.92" y="-573.54" font-family="Times,serif" font-size="14.00">rep=no, t=no, r=yes, m=yes, c=no</text>
</g>
<!-- n13&#45;&gt;n22 -->
<g id="edge16" class="edge">
<title>n13&#45;&gt;n22</title>
<path fill="none" stroke="black" d="M1854.2,-667.72C1874.73,-656.54 1897.65,-644.05 1918.78,-632.54"/>
<polygon fill="black" stroke="black" points="1920.6,-635.54 1927.71,-627.68 1917.25,-629.39 1920.6,-635.54"/>
</g>
<!-- n23 -->
<g id="node18" class="node">
<title>n23</title>
<ellipse fill="#98D2A5" stroke="black" cx="2390.92" cy="-592.24" rx="190.84" ry="37.45"/>
<text text-anchor="middle" x="2390.92" y="-603.54" font-family="Times,serif" font-size="14.00">consistent</text>
<text text-anchor="middle" x="2390.92" y="-588.54" font-family="Times,serif" font-size="14.00">JJ (APPO)</text>
<text text-anchor="middle" x="2390.92" y="-573.54" font-family="Times,serif" font-size="14.00">rep=no, t=no, r=yes, m=yes, c=no</text>
</g>
<!-- n13&#45;&gt;n23 -->
<g id="edge17" class="edge">
<title>n13&#45;&gt;n23</title>
<path fill="none" stroke="black" d="M1928.84,-677.25C2005.94,-663.29 2103.78,-645.56 2190.92,-629.72 2207.99,-626.62 2225.87,-623.36 2243.63,-620.13"/>
<polygon fill="black" stroke="black" points="2244.27,-623.57 2253.48,-618.33 2243.02,-616.68 2244.27,-623.57"/>
</g>
<!-- n16 -->
<g id="node19" class="node">
<title>n16</title>
<ellipse fill="#98D2A5" stroke="black" cx="1190.92" cy="-481.29" rx="190.84" ry="37.45"/>
<text text-anchor="middle" x="1190.92" y="-492.59" font-family="Times,serif" font-size="14.00">disease</text>
<text text-anchor="middle" x="1190.92" y="-477.59" font-family="Times,serif" font-size="14.00">NN (PMOD)</text>
<text text-anchor="middle" x="1190.92" y="-462.59" font-family="Times,serif" font-size="14.00">rep=no, t=no, r=yes, m=yes, c=no</text>
</g>
<!-- n14&#45;&gt;n16 -->
<g id="edge18" class="edge">
<title>n14&#45;&gt;n16</title>
<path fill="none" stroke="black" d="M1190.92,-554.66C1190.92,-546.49 1190.92,-537.71 1190.92,-529.18"/>
<polygon fill="black" stroke="black" points="1194.42,-528.96 1190.92,-518.96 1187.42,-528.96 1194.42,-528.96"/>
</g>
<!-- n18 -->
<g id="node21" class="node">
<title>n18</title>
<ellipse fill="#98D2A5" stroke="black" cx="1590.92" cy="-481.29" rx="190.84" ry="37.45"/>
<text text-anchor="middle" x="1590.92" y="-492.59" font-family="Times,serif" font-size="14.00">in</text>
<text text-anchor="middle" x="1590.92" y="-477.59" font-family="Times,serif" font-size="14.00">IN (LOC)</text>
<text text-anchor="middle" x="1590.92" y="-462.59" font-family="Times,serif" font-size="14.00">rep=no, t=no, r=yes, m=yes, c=no</text>
</g>
<!-- n17&#45;&gt;n18 -->
<g id="edge20" class="edge">
<title>n17&#45;&gt;n18</title>
<path fill="none" stroke="black" d="M1590.92,-554.66C1590.92,-546.49 1590.92,-537.71 1590.92,-529.18"/>
<polygon fill="black" stroke="black" points="1594.42,-528.96 1590.92,-518.96 1587.42,-528.96 1594.42,-528.96"/>
</g>
<!-- n24 -->
<g id="node25" class="node">
<title>n24</title>
<ellipse fill="#98D2A5" stroke="black" cx="2390.92" cy="-481.29" rx="190.84" ry="37.45"/>
<text text-anchor="middle" x="2390.92" y="-492.59" font-family="Times,serif" font-size="14.00">with</text>
<text text-anchor="middle" x="2390.92" y="-477.59" font-family="Times,serif" font-size="14.00">IN (AMOD)</text>
<text text-anchor="middle" x="2390.92" y="-462.59" font-family="Times,serif" font-size="14.00">rep=no, t=no, r=yes, m=yes, c=no</text>
</g>
<!-- n23&#45;&gt;n24 -->
<g id="edge24" class="edge">
<title>n23&#45;&gt;n24</title>
<path fill="none" stroke="black" d="M2390.92,-554.66C2390.92,-546.49 2390.92,-537.71 2390.92,-529.18"/>
<polygon fill="black" stroke="black" points="2394.42,-528.96 2390.92,-518.96 2387.42,-528.96 2394.42,-528.96"/>
</g>
<!-- n15 -->
<g id="node20" class="node">
<title>n15</title>
<ellipse fill="#98D2A5" stroke="black" cx="1190.92" cy="-370.34" rx="190.84" ry="37.45"/>
<text text-anchor="middle" x="1190.92" y="-381.64" font-family="Times,serif" font-size="14.00">the</text>
<text text-anchor="middle" x="1190.92" y="-366.64" font-family="Times,serif" font-size="14.00">DT (NMOD)</text>
<text text-anchor="middle" x="1190.92" y="-351.64" font-family="Times,serif" font-size="14.00">rep=no, t=no, r=yes, m=yes, c=no</text>
</g>
<!-- n16&#45;&gt;n15 -->
<g id="edge19" class="edge">
<title>n16&#45;&gt;n15</title>
<path fill="none" stroke="black" d="M1190.92,-443.71C1190.92,-435.53 1190.92,-426.75 1190.92,-418.23"/>
<polygon fill="black" stroke="black" points="1194.42,-418.01 1190.92,-408.01 1187.42,-418.01 1194.42,-418.01"/>
</g>
<!-- n21 -->
<g id="node22" class="node">
<title>n21</title>
<ellipse fill="#98D2A5" stroke="black" cx="1590.92" cy="-370.34" rx="190.84" ry="37.45"/>
<text text-anchor="middle" x="1590.92" y="-381.64" font-family="Times,serif" font-size="14.00">population</text>
<text text-anchor="middle" x="1590.92" y="-366.64" font-family="Times,serif" font-size="14.00">NN (PMOD)</text>
<text text-anchor="middle" x="1590.92" y="-351.64" font-family="Times,serif" font-size="14.00">rep=no, t=no, r=yes, m=yes, c=no</text>
</g>
<!-- n18&#45;&gt;n21 -->
<g id="edge21" class="edge">
<title>n18&#45;&gt;n21</title>
<path fill="none" stroke="black" d="M1590.92,-443.71C1590.92,-435.53 1590.92,-426.75 1590.92,-418.23"/>
<polygon fill="black" stroke="black" points="1594.42,-418.01 1590.92,-408.01 1587.42,-418.01 1594.42,-418.01"/>
</g>
<!-- n19 -->
<g id="node23" class="node">
<title>n19</title>
<ellipse fill="#98D2A5" stroke="black" cx="1290.92" cy="-259.38" rx="190.84" ry="37.45"/>
<text text-anchor="middle" x="1290.92" y="-270.68" font-family="Times,serif" font-size="14.00">the</text>
<text text-anchor="middle" x="1290.92" y="-255.68" font-family="Times,serif" font-size="14.00">DT (NMOD)</text>
<text text-anchor="middle" x="1290.92" y="-240.68" font-family="Times,serif" font-size="14.00">rep=no, t=no, r=yes, m=yes, c=no</text>
</g>
<!-- n21&#45;&gt;n19 -->
<g id="edge22" class="edge">
<title>n21&#45;&gt;n19</title>
<path fill="none" stroke="black" d="M1502.13,-337.09C1466.68,-324.22 1425.73,-309.34 1389.37,-296.14"/>
<polygon fill="black" stroke="black" points="1390.34,-292.77 1379.74,-292.64 1387.95,-299.35 1390.34,-292.77"/>
</g>
<!-- n20 -->
<g id="node24" class="node">
<title>n20</title>
<ellipse fill="#98D2A5" stroke="black" cx="1690.92" cy="-259.38" rx="190.84" ry="37.45"/>
<text text-anchor="middle" x="1690.92" y="-270.68" font-family="Times,serif" font-size="14.00">general</text>
<text text-anchor="middle" x="1690.92" y="-255.68" font-family="Times,serif" font-size="14.00">JJ (NMOD)</text>
<text text-anchor="middle" x="1690.92" y="-240.68" font-family="Times,serif" font-size="14.00">rep=no, t=no, r=yes, m=yes, c=no</text>
</g>
<!-- n21&#45;&gt;n20 -->
<g id="edge23" class="edge">
<title>n21&#45;&gt;n20</title>
<path fill="none" stroke="black" d="M1623.94,-333.36C1632.64,-323.88 1642.13,-313.54 1651.15,-303.72"/>
<polygon fill="black" stroke="black" points="1653.75,-306.06 1657.93,-296.32 1648.59,-301.32 1653.75,-306.06"/>
</g>
<!-- n25 -->
<g id="node26" class="node">
<title>n25</title>
<ellipse fill="#98D2A5" stroke="black" cx="2390.92" cy="-370.34" rx="190.84" ry="37.45"/>
<text text-anchor="middle" x="2390.92" y="-381.64" font-family="Times,serif" font-size="14.00">variation</text>
<text text-anchor="middle" x="2390.92" y="-366.64" font-family="Times,serif" font-size="14.00">NN (PMOD)</text>
<text text-anchor="middle" x="2390.92" y="-351.64" font-family="Times,serif" font-size="14.00">rep=no, t=no, r=yes, m=yes, c=no</text>
</g>
<!-- n24&#45;&gt;n25 -->
<g id="edge25" class="edge">
<title>n24&#45;&gt;n25</title>
<path fill="none" stroke="black" d="M2390.92,-443.71C2390.92,-435.53 2390.92,-426.75 2390.92,-418.23"/>
<polygon fill="black" stroke="black" points="2394.42,-418.01 2390.92,-408.01 2387.42,-418.01 2394.42,-418.01"/>
</g>
<!-- n26 -->
<g id="node27" class="node">
<title>n26</title>
<ellipse fill="#98D2A5" stroke="black" cx="2290.92" cy="-259.38" rx="190.84" ry="37.45"/>
<text text-anchor="middle" x="2290.92" y="-270.68" font-family="Times,serif" font-size="14.00">in</text>
<text text-anchor="middle" x="2290.92" y="-255.68" font-family="Times,serif" font-size="14.00">IN (LOC)</text>
<text text-anchor="middle" x="2290.92" y="-240.68" font-family="Times,serif" font-size="14.00">rep=no, t=no, r=yes, m=yes, c=no</text>
</g>
<!-- n25&#45;&gt;n26 -->
<g id="edge26" class="edge">
<title>n25&#45;&gt;n26</title>
<path fill="none" stroke="black" d="M2357.9,-333.36C2349.19,-323.88 2339.71,-313.54 2330.69,-303.72"/>
<polygon fill="black" stroke="black" points="2333.25,-301.32 2323.91,-296.32 2328.09,-306.06 2333.25,-301.32"/>
</g>
<!-- n29 -->
<g id="node28" class="node">
<title>n29</title>
<ellipse fill="#98D2A5" stroke="black" cx="2690.92" cy="-259.38" rx="190.84" ry="37.45"/>
<text text-anchor="middle" x="2690.92" y="-270.68" font-family="Times,serif" font-size="14.00">to</text>
<text text-anchor="middle" x="2690.92" y="-255.68" font-family="Times,serif" font-size="14.00">TO (NMOD)</text>
<text text-anchor="middle" x="2690.92" y="-240.68" font-family="Times,serif" font-size="14.00">rep=no, t=no, r=yes, m=yes, c=no</text>
</g>
<!-- n25&#45;&gt;n29 -->
<g id="edge27" class="edge">
<title>n25&#45;&gt;n29</title>
<path fill="none" stroke="black" d="M2479.71,-337.09C2515.16,-324.22 2556.11,-309.34 2592.47,-296.14"/>
<polygon fill="black" stroke="black" points="2593.89,-299.35 2602.1,-292.64 2591.5,-292.77 2593.89,-299.35"/>
</g>
<!-- n28 -->
<g id="node29" class="node">
<title>n28</title>
<ellipse fill="#98D2A5" stroke="black" cx="2290.92" cy="-148.43" rx="190.84" ry="37.45"/>
<text text-anchor="middle" x="2290.92" y="-159.73" font-family="Times,serif" font-size="14.00">susceptibility</text>
<text text-anchor="middle" x="2290.92" y="-144.73" font-family="Times,serif" font-size="14.00">NN (PMOD)</text>
<text text-anchor="middle" x="2290.92" y="-129.73" font-family="Times,serif" font-size="14.00">rep=no, t=no, r=yes, m=yes, c=no</text>
</g>
<!-- n26&#45;&gt;n28 -->
<g id="edge28" class="edge">
<title>n26&#45;&gt;n28</title>
<path fill="none" stroke="black" d="M2290.92,-221.8C2290.92,-213.63 2290.92,-204.85 2290.92,-196.32"/>
<polygon fill="black" stroke="black" points="2294.42,-196.1 2290.92,-186.1 2287.42,-196.1 2294.42,-196.1"/>
</g>
<!-- n31 -->
<g id="node31" class="node">
<title>n31</title>
<ellipse fill="#98D2A5" stroke="black" cx="2690.92" cy="-148.43" rx="190.84" ry="37.45"/>
<text text-anchor="middle" x="2690.92" y="-159.73" font-family="Times,serif" font-size="14.00">disease1</text>
<text text-anchor="middle" x="2690.92" y="-144.73" font-family="Times,serif" font-size="14.00">Z (PMOD)</text>
<text text-anchor="middle" x="2690.92" y="-129.73" font-family="Times,serif" font-size="14.00">rep=no, t=no, r=yes, m=yes, c=no</text>
</g>
<!-- n29&#45;&gt;n31 -->
<g id="edge30" class="edge">
<title>n29&#45;&gt;n31</title>
<path fill="none" stroke="black" d="M2690.92,-221.8C2690.92,-213.63 2690.92,-204.85 2690.92,-196.32"/>
<polygon fill="black" stroke="black" points="2694.42,-196.1 2690.92,-186.1 2687.42,-196.1 2694.42,-196.1"/>
</g>
<!-- n27 -->
<g id="node30" class="node">
<title>n27</title>
<ellipse fill="#98D2A5" stroke="black" cx="2290.92" cy="-37.48" rx="190.84" ry="37.45"/>
<text text-anchor="middle" x="2290.92" y="-48.78" font-family="Times,serif" font-size="14.00">genetic</text>
<text text-anchor="middle" x="2290.92" y="-33.78" font-family="Times,serif" font-size="14.00">JJ (NMOD)</text>
<text text-anchor="middle" x="2290.92" y="-18.78" font-family="Times,serif" font-size="14.00">rep=no, t=no, r=yes, m=yes, c=no</text>
</g>
<!-- n28&#45;&gt;n27 -->
<g id="edge29" class="edge">
<title>n28&#45;&gt;n27</title>
<path fill="none" stroke="black" d="M2290.92,-110.85C2290.92,-102.67 2290.92,-93.89 2290.92,-85.37"/>
<polygon fill="black" stroke="black" points="2294.42,-85.15 2290.92,-75.15 2287.42,-85.15 2294.42,-85.15"/>
</g>
<!-- n30 -->
<g id="node32" class="node">
<title>n30</title>
<ellipse fill="#98D2A5" stroke="black" cx="2690.92" cy="-37.48" rx="190.84" ry="37.45"/>
<text text-anchor="middle" x="2690.92" y="-48.78" font-family="Times,serif" font-size="14.00">the</text>
<text text-anchor="middle" x="2690.92" y="-33.78" font-family="Times,serif" font-size="14.00">DT (NMOD)</text>
<text text-anchor="middle" x="2690.92" y="-18.78" font-family="Times,serif" font-size="14.00">rep=no, t=no, r=yes, m=yes, c=no</text>
</g>
<!-- n31&#45;&gt;n30 -->
<g id="edge31" class="edge">
<title>n31&#45;&gt;n30</title>
<path fill="none" stroke="black" d="M2690.92,-110.85C2690.92,-102.67 2690.92,-93.89 2690.92,-85.37"/>
<polygon fill="black" stroke="black" points="2694.42,-85.15 2690.92,-75.15 2687.42,-85.15 2694.42,-85.15"/>
</g>
</g>
</svg>
