<?xml version="1.0" encoding="UTF-8" standalone="no"?>
<!DOCTYPE svg PUBLIC "-//W3C//DTD SVG 1.1//EN"
 "http://www.w3.org/Graphics/SVG/1.1/DTD/svg11.dtd">
<!-- Generated by graphviz version 2.43.0 (0)
 -->
<!-- Title: tree Pages: 1 -->
<svg width="2765pt" height="1082pt"
 viewBox="0.00 0.00 2764.89 1081.53" xmlns="http://www.w3.org/2000/svg" xmlns:xlink="http://www.w3.org/1999/xlink">
<g id="graph0" class="graph" transform="scale(1 1) rotate(0) translate(4 1077.53)">
<title>tree</title>
<polygon fill="white" stroke="transparent" points="-4,4 -4,-1077.53 2760.89,-1077.53 2760.89,4 -4,4"/>
<!-- n7 -->
<g id="node1" class="node">
<title>n7</title>
<ellipse fill="#98D2A5" stroke="black" cx="1165.97" cy="-1036.06" rx="190.84" ry="37.45"/>
<text text-anchor="middle" x="1165.97" y="-1047.36" font-family="Times,serif" font-size="14.00">used</text>
<text text-anchor="middle" x="1165.97" y="-1032.36" font-family="Times,serif" font-size="14.00">VBD (root)</text>
<text text-anchor="middle" x="1165.97" y="-1017.36" font-family="Times,serif" font-size="14.00">rep=no, t=no, r=yes, m=yes, c=no</text>
</g>
<!-- n1 -->
<g id="node2" class="node">
<title>n1</title>
<ellipse fill="#98D2A5" stroke="black" cx="380.97" cy="-925.1" rx="185.94" ry="37.45"/>
<text text-anchor="middle" x="380.97" y="-936.4" font-family="Times,serif" font-size="14.00">In</text>
<text text-anchor="middle" x="380.97" y="-921.4" font-family="Times,serif" font-size="14.00">IN (TMP)</text>
<text text-anchor="middle" x="380.97" y="-906.4" font-family="Times,serif" font-size="14.00">rep=no, t=no, r=no, m=yes, c=no</text>
</g>
<!-- n7&#45;&gt;n1 -->
<g id="edge1" class="edge">
<title>n7&#45;&gt;n1</title>
<path fill="none" stroke="black" d="M999.96,-1017.48C881.53,-1004.25 718.62,-984.66 575.97,-962.58 558.45,-959.87 540.1,-956.77 521.95,-953.56"/>
<polygon fill="black" stroke="black" points="522.35,-950.07 511.89,-951.76 521.12,-956.96 522.35,-950.07"/>
</g>
<!-- n5 -->
<g id="node3" class="node">
<title>n5</title>
<ellipse fill="#98D2A5" stroke="black" cx="770.97" cy="-925.1" rx="185.94" ry="37.45"/>
<text text-anchor="middle" x="770.97" y="-936.4" font-family="Times,serif" font-size="14.00">,</text>
<text text-anchor="middle" x="770.97" y="-921.4" font-family="Times,serif" font-size="14.00">Fc (P)</text>
<text text-anchor="middle" x="770.97" y="-906.4" font-family="Times,serif" font-size="14.00">rep=no, t=no, r=no, m=yes, c=no</text>
</g>
<!-- n7&#45;&gt;n5 -->
<g id="edge2" class="edge">
<title>n7&#45;&gt;n5</title>
<path fill="none" stroke="black" d="M1057.51,-1005.14C1005.05,-990.67 941.99,-973.27 888.39,-958.49"/>
<polygon fill="black" stroke="black" points="889.07,-955.05 878.5,-955.76 887.21,-961.8 889.07,-955.05"/>
</g>
<!-- n6 -->
<g id="node4" class="node">
<title>n6</title>
<ellipse fill="#98D2A5" stroke="black" cx="1165.97" cy="-925.1" rx="190.84" ry="37.45"/>
<text text-anchor="middle" x="1165.97" y="-936.4" font-family="Times,serif" font-size="14.00">we</text>
<text text-anchor="middle" x="1165.97" y="-921.4" font-family="Times,serif" font-size="14.00">PRP (SBJ)</text>
<text text-anchor="middle" x="1165.97" y="-906.4" font-family="Times,serif" font-size="14.00">rep=no, t=yes, r=no, m=yes, c=no</text>
</g>
<!-- n7&#45;&gt;n6 -->
<g id="edge3" class="edge">
<title>n7&#45;&gt;n6</title>
<path fill="none" stroke="black" d="M1165.97,-998.47C1165.97,-990.3 1165.97,-981.52 1165.97,-972.99"/>
<polygon fill="black" stroke="black" points="1169.47,-972.78 1165.97,-962.78 1162.47,-972.78 1169.47,-972.78"/>
</g>
<!-- n9 -->
<g id="node5" class="node">
<title>n9</title>
<ellipse fill="#98D2A5" stroke="black" cx="1565.97" cy="-925.1" rx="190.84" ry="37.45"/>
<text text-anchor="middle" x="1565.97" y="-936.4" font-family="Times,serif" font-size="14.00">panel</text>
<text text-anchor="middle" x="1565.97" y="-921.4" font-family="Times,serif" font-size="14.00">NN (OBJ)</text>
<text text-anchor="middle" x="1565.97" y="-906.4" font-family="Times,serif" font-size="14.00">rep=no, t=no, r=yes, m=yes, c=no</text>
</g>
<!-- n7&#45;&gt;n9 -->
<g id="edge4" class="edge">
<title>n7&#45;&gt;n9</title>
<path fill="none" stroke="black" d="M1275.27,-1005.28C1328.41,-990.81 1392.38,-973.39 1446.76,-958.57"/>
<polygon fill="black" stroke="black" points="1447.72,-961.94 1456.45,-955.93 1445.88,-955.18 1447.72,-961.94"/>
</g>
<!-- n24 -->
<g id="node6" class="node">
<title>n24</title>
<ellipse fill="#98D2A5" stroke="black" cx="1965.97" cy="-925.1" rx="190.84" ry="37.45"/>
<text text-anchor="middle" x="1965.97" y="-936.4" font-family="Times,serif" font-size="14.00">.</text>
<text text-anchor="middle" x="1965.97" y="-921.4" font-family="Times,serif" font-size="14.00">Fp (P)</text>
<text text-anchor="middle" x="1965.97" y="-906.4" font-family="Times,serif" font-size="14.00">rep=no, t=no, r=yes, m=yes, c=no</text>
</g>
<!-- n7&#45;&gt;n24 -->
<g id="edge5" class="edge">
<title>n7&#45;&gt;n24</title>
<path fill="none" stroke="black" d="M1332.51,-1017.66C1453.13,-1004.4 1619.95,-984.69 1765.97,-962.58 1784.01,-959.85 1802.93,-956.73 1821.62,-953.5"/>
<polygon fill="black" stroke="black" points="1822.43,-956.91 1831.68,-951.74 1821.22,-950.01 1822.43,-956.91"/>
</g>
<!-- n4 -->
<g id="node7" class="node">
<title>n4</title>
<ellipse fill="#98D2A5" stroke="black" cx="380.97" cy="-814.15" rx="185.94" ry="37.45"/>
<text text-anchor="middle" x="380.97" y="-825.45" font-family="Times,serif" font-size="14.00">stage</text>
<text text-anchor="middle" x="380.97" y="-810.45" font-family="Times,serif" font-size="14.00">NN (PMOD)</text>
<text text-anchor="middle" x="380.97" y="-795.45" font-family="Times,serif" font-size="14.00">rep=no, t=no, r=no, m=yes, c=no</text>
</g>
<!-- n1&#45;&gt;n4 -->
<g id="edge6" class="edge">
<title>n1&#45;&gt;n4</title>
<path fill="none" stroke="black" d="M380.97,-887.52C380.97,-879.35 380.97,-870.57 380.97,-862.04"/>
<polygon fill="black" stroke="black" points="384.47,-861.82 380.97,-851.82 377.47,-861.82 384.47,-861.82"/>
</g>
<!-- n8 -->
<g id="node10" class="node">
<title>n8</title>
<ellipse fill="#98D2A5" stroke="black" cx="1365.97" cy="-814.15" rx="190.84" ry="37.45"/>
<text text-anchor="middle" x="1365.97" y="-825.45" font-family="Times,serif" font-size="14.00">a</text>
<text text-anchor="middle" x="1365.97" y="-810.45" font-family="Times,serif" font-size="14.00">DT (NMOD)</text>
<text text-anchor="middle" x="1365.97" y="-795.45" font-family="Times,serif" font-size="14.00">rep=no, t=no, r=yes, m=yes, c=no</text>
</g>
<!-- n9&#45;&gt;n8 -->
<g id="edge9" class="edge">
<title>n9&#45;&gt;n8</title>
<path fill="none" stroke="black" d="M1502.69,-889.63C1482.16,-878.45 1459.23,-865.96 1438.11,-854.45"/>
<polygon fill="black" stroke="black" points="1439.64,-851.3 1429.18,-849.59 1436.29,-857.44 1439.64,-851.3"/>
</g>
<!-- n10 -->
<g id="node11" class="node">
<title>n10</title>
<ellipse fill="#98D2A5" stroke="black" cx="1765.97" cy="-814.15" rx="190.84" ry="37.45"/>
<text text-anchor="middle" x="1765.97" y="-825.45" font-family="Times,serif" font-size="14.00">of</text>
<text text-anchor="middle" x="1765.97" y="-810.45" font-family="Times,serif" font-size="14.00">IN (NMOD)</text>
<text text-anchor="middle" x="1765.97" y="-795.45" font-family="Times,serif" font-size="14.00">rep=no, t=no, r=yes, m=yes, c=no</text>
</g>
<!-- n9&#45;&gt;n10 -->
<g id="edge10" class="edge">
<title>n9&#45;&gt;n10</title>
<path fill="none" stroke="black" d="M1629.25,-889.63C1649.78,-878.45 1672.7,-865.96 1693.83,-854.45"/>
<polygon fill="black" stroke="black" points="1695.65,-857.44 1702.76,-849.59 1692.3,-851.3 1695.65,-857.44"/>
</g>
<!-- n2 -->
<g id="node8" class="node">
<title>n2</title>
<ellipse fill="#98D2A5" stroke="black" cx="185.97" cy="-703.2" rx="185.94" ry="37.45"/>
<text text-anchor="middle" x="185.97" y="-714.5" font-family="Times,serif" font-size="14.00">the</text>
<text text-anchor="middle" x="185.97" y="-699.5" font-family="Times,serif" font-size="14.00">DT (NMOD)</text>
<text text-anchor="middle" x="185.97" y="-684.5" font-family="Times,serif" font-size="14.00">rep=no, t=no, r=no, m=yes, c=no</text>
</g>
<!-- n4&#45;&gt;n2 -->
<g id="edge7" class="edge">
<title>n4&#45;&gt;n2</title>
<path fill="none" stroke="black" d="M319.27,-778.68C299.34,-767.54 277.1,-755.12 256.58,-743.65"/>
<polygon fill="black" stroke="black" points="258.04,-740.45 247.6,-738.63 254.62,-746.57 258.04,-740.45"/>
</g>
<!-- n3 -->
<g id="node9" class="node">
<title>n3</title>
<ellipse fill="#98D2A5" stroke="black" cx="575.97" cy="-703.2" rx="185.94" ry="37.45"/>
<text text-anchor="middle" x="575.97" y="-714.5" font-family="Times,serif" font-size="14.00">first</text>
<text text-anchor="middle" x="575.97" y="-699.5" font-family="Times,serif" font-size="14.00">JJ (NMOD)</text>
<text text-anchor="middle" x="575.97" y="-684.5" font-family="Times,serif" font-size="14.00">rep=no, t=no, r=no, m=yes, c=no</text>
</g>
<!-- n4&#45;&gt;n3 -->
<g id="edge8" class="edge">
<title>n4&#45;&gt;n3</title>
<path fill="none" stroke="black" d="M442.67,-778.68C462.59,-767.54 484.84,-755.12 505.35,-743.65"/>
<polygon fill="black" stroke="black" points="507.31,-746.57 514.34,-738.63 503.9,-740.45 507.31,-746.57"/>
</g>
<!-- n12 -->
<g id="node12" class="node">
<title>n12</title>
<ellipse fill="#98D2A5" stroke="black" cx="1765.97" cy="-703.2" rx="190.84" ry="37.45"/>
<text text-anchor="middle" x="1765.97" y="-714.5" font-family="Times,serif" font-size="14.00">SNPs</text>
<text text-anchor="middle" x="1765.97" y="-699.5" font-family="Times,serif" font-size="14.00">NP00V00 (PMOD)</text>
<text text-anchor="middle" x="1765.97" y="-684.5" font-family="Times,serif" font-size="14.00">rep=no, t=no, r=yes, m=yes, c=no</text>
</g>
<!-- n10&#45;&gt;n12 -->
<g id="edge11" class="edge">
<title>n10&#45;&gt;n12</title>
<path fill="none" stroke="black" d="M1765.97,-776.57C1765.97,-768.39 1765.97,-759.61 1765.97,-751.09"/>
<polygon fill="black" stroke="black" points="1769.47,-750.87 1765.97,-740.87 1762.47,-750.87 1769.47,-750.87"/>
</g>
<!-- n11 -->
<g id="node13" class="node">
<title>n11</title>
<ellipse fill="#98D2A5" stroke="black" cx="1365.97" cy="-592.24" rx="190.84" ry="37.45"/>
<text text-anchor="middle" x="1365.97" y="-603.54" font-family="Times,serif" font-size="14.00">266,722</text>
<text text-anchor="middle" x="1365.97" y="-588.54" font-family="Times,serif" font-size="14.00">Z (NMOD)</text>
<text text-anchor="middle" x="1365.97" y="-573.54" font-family="Times,serif" font-size="14.00">rep=no, t=no, r=yes, m=yes, c=no</text>
</g>
<!-- n12&#45;&gt;n11 -->
<g id="edge12" class="edge">
<title>n12&#45;&gt;n11</title>
<path fill="none" stroke="black" d="M1656.67,-672.42C1603.53,-657.95 1539.56,-640.53 1485.17,-625.71"/>
<polygon fill="black" stroke="black" points="1486.05,-622.32 1475.49,-623.07 1484.21,-629.08 1486.05,-622.32"/>
</g>
<!-- n13 -->
<g id="node14" class="node">
<title>n13</title>
<ellipse fill="#98D2A5" stroke="black" cx="1765.97" cy="-592.24" rx="190.84" ry="37.45"/>
<text text-anchor="middle" x="1765.97" y="-603.54" font-family="Times,serif" font-size="14.00">,</text>
<text text-anchor="middle" x="1765.97" y="-588.54" font-family="Times,serif" font-size="14.00">Fc (P)</text>
<text text-anchor="middle" x="1765.97" y="-573.54" font-family="Times,serif" font-size="14.00">rep=no, t=no, r=yes, m=yes, c=no</text>
</g>
<!-- n12&#45;&gt;n13 -->
<g id="edge13" class="edge">
<title>n12&#45;&gt;n13</title>
<path fill="none" stroke="black" d="M1765.97,-665.61C1765.97,-657.44 1765.97,-648.66 1765.97,-640.13"/>
<polygon fill="black" stroke="black" points="1769.47,-639.92 1765.97,-629.92 1762.47,-639.92 1769.47,-639.92"/>
</g>
<!-- n14 -->
<g id="node15" class="node">
<title>n14</title>
<ellipse fill="#98D2A5" stroke="black" cx="2165.97" cy="-592.24" rx="190.84" ry="37.45"/>
<text text-anchor="middle" x="2165.97" y="-603.54" font-family="Times,serif" font-size="14.00">selected</text>
<text text-anchor="middle" x="2165.97" y="-588.54" font-family="Times,serif" font-size="14.00">VBN (APPO)</text>
<text text-anchor="middle" x="2165.97" y="-573.54" font-family="Times,serif" font-size="14.00">rep=no, t=no, r=yes, m=yes, c=no</text>
</g>
<!-- n12&#45;&gt;n14 -->
<g id="edge14" class="edge">
<title>n12&#45;&gt;n14</title>
<path fill="none" stroke="black" d="M1875.27,-672.42C1928.41,-657.95 1992.38,-640.53 2046.76,-625.71"/>
<polygon fill="black" stroke="black" points="2047.72,-629.08 2056.45,-623.07 2045.88,-622.32 2047.72,-629.08"/>
</g>
<!-- n15 -->
<g id="node16" class="node">
<title>n15</title>
<ellipse fill="#98D2A5" stroke="black" cx="2165.97" cy="-481.29" rx="190.84" ry="37.45"/>
<text text-anchor="middle" x="2165.97" y="-492.59" font-family="Times,serif" font-size="14.00">to</text>
<text text-anchor="middle" x="2165.97" y="-477.59" font-family="Times,serif" font-size="14.00">TO (OPRD)</text>
<text text-anchor="middle" x="2165.97" y="-462.59" font-family="Times,serif" font-size="14.00">rep=no, t=no, r=yes, m=yes, c=no</text>
</g>
<!-- n14&#45;&gt;n15 -->
<g id="edge15" class="edge">
<title>n14&#45;&gt;n15</title>
<path fill="none" stroke="black" d="M2165.97,-554.66C2165.97,-546.49 2165.97,-537.71 2165.97,-529.18"/>
<polygon fill="black" stroke="black" points="2169.47,-528.96 2165.97,-518.96 2162.47,-528.96 2169.47,-528.96"/>
</g>
<!-- n16 -->
<g id="node17" class="node">
<title>n16</title>
<ellipse fill="#98D2A5" stroke="black" cx="2165.97" cy="-370.34" rx="190.84" ry="37.45"/>
<text text-anchor="middle" x="2165.97" y="-381.64" font-family="Times,serif" font-size="14.00">tag</text>
<text text-anchor="middle" x="2165.97" y="-366.64" font-family="Times,serif" font-size="14.00">VB (IM)</text>
<text text-anchor="middle" x="2165.97" y="-351.64" font-family="Times,serif" font-size="14.00">rep=no, t=no, r=yes, m=yes, c=no</text>
</g>
<!-- n15&#45;&gt;n16 -->
<g id="edge16" class="edge">
<title>n15&#45;&gt;n16</title>
<path fill="none" stroke="black" d="M2165.97,-443.71C2165.97,-435.53 2165.97,-426.75 2165.97,-418.23"/>
<polygon fill="black" stroke="black" points="2169.47,-418.01 2165.97,-408.01 2162.47,-418.01 2169.47,-418.01"/>
</g>
<!-- n19 -->
<g id="node18" class="node">
<title>n19</title>
<ellipse fill="#98D2A5" stroke="black" cx="1965.97" cy="-259.38" rx="190.84" ry="37.45"/>
<text text-anchor="middle" x="1965.97" y="-270.68" font-family="Times,serif" font-size="14.00">variants</text>
<text text-anchor="middle" x="1965.97" y="-255.68" font-family="Times,serif" font-size="14.00">NNS (OBJ)</text>
<text text-anchor="middle" x="1965.97" y="-240.68" font-family="Times,serif" font-size="14.00">rep=no, t=no, r=yes, m=yes, c=no</text>
</g>
<!-- n16&#45;&gt;n19 -->
<g id="edge17" class="edge">
<title>n16&#45;&gt;n19</title>
<path fill="none" stroke="black" d="M2102.69,-334.86C2082.16,-323.68 2059.23,-311.19 2038.11,-299.68"/>
<polygon fill="black" stroke="black" points="2039.64,-296.53 2029.18,-294.82 2036.29,-302.68 2039.64,-296.53"/>
</g>
<!-- n20 -->
<g id="node19" class="node">
<title>n20</title>
<ellipse fill="#98D2A5" stroke="black" cx="2365.97" cy="-259.38" rx="190.84" ry="37.45"/>
<text text-anchor="middle" x="2365.97" y="-270.68" font-family="Times,serif" font-size="14.00">across</text>
<text text-anchor="middle" x="2365.97" y="-255.68" font-family="Times,serif" font-size="14.00">IN (LOC)</text>
<text text-anchor="middle" x="2365.97" y="-240.68" font-family="Times,serif" font-size="14.00">rep=no, t=no, r=yes, m=yes, c=no</text>
</g>
<!-- n16&#45;&gt;n20 -->
<g id="edge18" class="edge">
<title>n16&#45;&gt;n20</title>
<path fill="none" stroke="black" d="M2229.25,-334.86C2249.78,-323.68 2272.7,-311.19 2293.83,-299.68"/>
<polygon fill="black" stroke="black" points="2295.65,-302.68 2302.76,-294.82 2292.3,-296.53 2295.65,-302.68"/>
</g>
<!-- n17 -->
<g id="node20" class="node">
<title>n17</title>
<ellipse fill="#98D2A5" stroke="black" cx="1565.97" cy="-148.43" rx="190.84" ry="37.45"/>
<text text-anchor="middle" x="1565.97" y="-159.73" font-family="Times,serif" font-size="14.00">known</text>
<text text-anchor="middle" x="1565.97" y="-144.73" font-family="Times,serif" font-size="14.00">VBN (NMOD)</text>
<text text-anchor="middle" x="1565.97" y="-129.73" font-family="Times,serif" font-size="14.00">rep=no, t=no, r=yes, m=yes, c=no</text>
</g>
<!-- n19&#45;&gt;n17 -->
<g id="edge19" class="edge">
<title>n19&#45;&gt;n17</title>
<path fill="none" stroke="black" d="M1856.67,-228.61C1803.53,-214.14 1739.56,-196.71 1685.17,-181.9"/>
<polygon fill="black" stroke="black" points="1686.05,-178.51 1675.49,-179.26 1684.21,-185.27 1686.05,-178.51"/>
</g>
<!-- n18 -->
<g id="node21" class="node">
<title>n18</title>
<ellipse fill="#98D2A5" stroke="black" cx="1965.97" cy="-148.43" rx="190.84" ry="37.45"/>
<text text-anchor="middle" x="1965.97" y="-159.73" font-family="Times,serif" font-size="14.00">common</text>
<text text-anchor="middle" x="1965.97" y="-144.73" font-family="Times,serif" font-size="14.00">JJ (NMOD)</text>
<text text-anchor="middle" x="1965.97" y="-129.73" font-family="Times,serif" font-size="14.00">rep=no, t=no, r=yes, m=yes, c=no</text>
</g>
<!-- n19&#45;&gt;n18 -->
<g id="edge20" class="edge">
<title>n19&#45;&gt;n18</title>
<path fill="none" stroke="black" d="M1965.97,-221.8C1965.97,-213.63 1965.97,-204.85 1965.97,-196.32"/>
<polygon fill="black" stroke="black" points="1969.47,-196.1 1965.97,-186.1 1962.47,-196.1 1969.47,-196.1"/>
</g>
<!-- n23 -->
<g id="node22" class="node">
<title>n23</title>
<ellipse fill="#98D2A5" stroke="black" cx="2365.97" cy="-148.43" rx="190.84" ry="37.45"/>
<text text-anchor="middle" x="2365.97" y="-159.73" font-family="Times,serif" font-size="14.00">genome18</text>
<text text-anchor="middle" x="2365.97" y="-144.73" font-family="Times,serif" font-size="14.00">Z (PMOD)</text>
<text text-anchor="middle" x="2365.97" y="-129.73" font-family="Times,serif" font-size="14.00">rep=no, t=no, r=yes, m=yes, c=no</text>
</g>
<!-- n20&#45;&gt;n23 -->
<g id="edge21" class="edge">
<title>n20&#45;&gt;n23</title>
<path fill="none" stroke="black" d="M2365.97,-221.8C2365.97,-213.63 2365.97,-204.85 2365.97,-196.32"/>
<polygon fill="black" stroke="black" points="2369.47,-196.1 2365.97,-186.1 2362.47,-196.1 2369.47,-196.1"/>
</g>
<!-- n21 -->
<g id="node23" class="node">
<title>n21</title>
<ellipse fill="#98D2A5" stroke="black" cx="2165.97" cy="-37.48" rx="190.84" ry="37.45"/>
<text text-anchor="middle" x="2165.97" y="-48.78" font-family="Times,serif" font-size="14.00">the</text>
<text text-anchor="middle" x="2165.97" y="-33.78" font-family="Times,serif" font-size="14.00">DT (NMOD)</text>
<text text-anchor="middle" x="2165.97" y="-18.78" font-family="Times,serif" font-size="14.00">rep=no, t=no, r=yes, m=yes, c=no</text>
</g>
<!-- n23&#45;&gt;n21 -->
<g id="edge22" class="edge">
<title>n23&#45;&gt;n21</title>
<path fill="none" stroke="black" d="M2302.69,-112.96C2282.16,-101.77 2259.23,-89.28 2238.11,-77.78"/>
<polygon fill="black" stroke="black" points="2239.64,-74.62 2229.18,-72.91 2236.29,-80.77 2239.64,-74.62"/>
</g>
<!-- n22 -->
<g id="node24" class="node">
<title>n22</title>
<ellipse fill="#98D2A5" stroke="black" cx="2565.97" cy="-37.48" rx="190.84" ry="37.45"/>
<text text-anchor="middle" x="2565.97" y="-48.78" font-family="Times,serif" font-size="14.00">entire</text>
<text text-anchor="middle" x="2565.97" y="-33.78" font-family="Times,serif" font-size="14.00">JJ (NMOD)</text>
<text text-anchor="middle" x="2565.97" y="-18.78" font-family="Times,serif" font-size="14.00">rep=no, t=no, r=yes, m=yes, c=no</text>
</g>
<!-- n23&#45;&gt;n22 -->
<g id="edge23" class="edge">
<title>n23&#45;&gt;n22</title>
<path fill="none" stroke="black" d="M2429.25,-112.96C2449.78,-101.77 2472.7,-89.28 2493.83,-77.78"/>
<polygon fill="black" stroke="black" points="2495.65,-80.77 2502.76,-72.91 2492.3,-74.62 2495.65,-80.77"/>
</g>
</g>
</svg>
