<?xml version="1.0" encoding="UTF-8" standalone="no"?>
<!DOCTYPE svg PUBLIC "-//W3C//DTD SVG 1.1//EN"
 "http://www.w3.org/Graphics/SVG/1.1/DTD/svg11.dtd">
<!-- Generated by graphviz version 2.43.0 (0)
 -->
<!-- Title: tree Pages: 1 -->
<svg width="1962pt" height="638pt"
 viewBox="0.00 0.00 1961.65 637.72" xmlns="http://www.w3.org/2000/svg" xmlns:xlink="http://www.w3.org/1999/xlink">
<g id="graph0" class="graph" transform="scale(1 1) rotate(0) translate(4 633.72)">
<title>tree</title>
<polygon fill="white" stroke="transparent" points="-4,4 -4,-633.72 1957.65,-633.72 1957.65,4 -4,4"/>
<!-- n9 -->
<g id="node1" class="node">
<title>n9</title>
<ellipse fill="#98D2A5" stroke="black" cx="962.73" cy="-592.24" rx="190.84" ry="37.45"/>
<text text-anchor="middle" x="962.73" y="-603.54" font-family="Times,serif" font-size="14.00">has</text>
<text text-anchor="middle" x="962.73" y="-588.54" font-family="Times,serif" font-size="14.00">VBZ (root)</text>
<text text-anchor="middle" x="962.73" y="-573.54" font-family="Times,serif" font-size="14.00">rep=no, t=no, r=yes, m=yes, c=no</text>
</g>
<!-- n1 -->
<g id="node2" class="node">
<title>n1</title>
<ellipse fill="none" stroke="black" cx="181.73" cy="-481.29" rx="181.95" ry="37.45"/>
<text text-anchor="middle" x="181.73" y="-492.59" font-family="Times,serif" font-size="14.00">However</text>
<text text-anchor="middle" x="181.73" y="-477.59" font-family="Times,serif" font-size="14.00">RB (ADV)</text>
<text text-anchor="middle" x="181.73" y="-462.59" font-family="Times,serif" font-size="14.00">rep=no, t=no, r=no, m=no, c=no</text>
</g>
<!-- n9&#45;&gt;n1 -->
<g id="edge1" class="edge">
<title>n9&#45;&gt;n1</title>
<path fill="none" stroke="black" d="M796.38,-573.8C677.95,-560.65 515.21,-541.1 372.73,-518.77 355.49,-516.07 337.43,-512.97 319.58,-509.74"/>
<polygon fill="black" stroke="black" points="320.16,-506.29 309.69,-507.94 318.9,-513.18 320.16,-506.29"/>
</g>
<!-- n2 -->
<g id="node3" class="node">
<title>n2</title>
<ellipse fill="#98D2A5" stroke="black" cx="567.73" cy="-481.29" rx="185.94" ry="37.45"/>
<text text-anchor="middle" x="567.73" y="-492.59" font-family="Times,serif" font-size="14.00">,</text>
<text text-anchor="middle" x="567.73" y="-477.59" font-family="Times,serif" font-size="14.00">Fc (P)</text>
<text text-anchor="middle" x="567.73" y="-462.59" font-family="Times,serif" font-size="14.00">rep=no, t=no, r=no, m=yes, c=no</text>
</g>
<!-- n9&#45;&gt;n2 -->
<g id="edge2" class="edge">
<title>n9&#45;&gt;n2</title>
<path fill="none" stroke="black" d="M854.27,-561.33C801.81,-546.86 738.74,-529.46 685.15,-514.68"/>
<polygon fill="black" stroke="black" points="685.83,-511.24 675.26,-511.95 683.97,-517.98 685.83,-511.24"/>
</g>
<!-- n3 -->
<g id="node4" class="node">
<title>n3</title>
<ellipse fill="#98D2A5" stroke="black" cx="962.73" cy="-481.29" rx="190.84" ry="37.45"/>
<text text-anchor="middle" x="962.73" y="-492.59" font-family="Times,serif" font-size="14.00">progress</text>
<text text-anchor="middle" x="962.73" y="-477.59" font-family="Times,serif" font-size="14.00">NN (SBJ)</text>
<text text-anchor="middle" x="962.73" y="-462.59" font-family="Times,serif" font-size="14.00">rep=no, t=yes, r=no, m=yes, c=no</text>
</g>
<!-- n9&#45;&gt;n3 -->
<g id="edge3" class="edge">
<title>n9&#45;&gt;n3</title>
<path fill="none" stroke="black" d="M962.73,-554.66C962.73,-546.49 962.73,-537.71 962.73,-529.18"/>
<polygon fill="black" stroke="black" points="966.23,-528.96 962.73,-518.96 959.23,-528.96 966.23,-528.96"/>
</g>
<!-- n10 -->
<g id="node5" class="node">
<title>n10</title>
<ellipse fill="#98D2A5" stroke="black" cx="1362.73" cy="-481.29" rx="190.84" ry="37.45"/>
<text text-anchor="middle" x="1362.73" y="-492.59" font-family="Times,serif" font-size="14.00">been</text>
<text text-anchor="middle" x="1362.73" y="-477.59" font-family="Times,serif" font-size="14.00">VBN (VC)</text>
<text text-anchor="middle" x="1362.73" y="-462.59" font-family="Times,serif" font-size="14.00">rep=no, t=no, r=yes, m=yes, c=no</text>
</g>
<!-- n9&#45;&gt;n10 -->
<g id="edge4" class="edge">
<title>n9&#45;&gt;n10</title>
<path fill="none" stroke="black" d="M1072.03,-561.47C1125.16,-547 1189.13,-529.57 1243.52,-514.76"/>
<polygon fill="black" stroke="black" points="1244.48,-518.13 1253.21,-512.12 1242.64,-511.37 1244.48,-518.13"/>
</g>
<!-- n12 -->
<g id="node6" class="node">
<title>n12</title>
<ellipse fill="#98D2A5" stroke="black" cx="1762.73" cy="-481.29" rx="190.84" ry="37.45"/>
<text text-anchor="middle" x="1762.73" y="-492.59" font-family="Times,serif" font-size="14.00">.</text>
<text text-anchor="middle" x="1762.73" y="-477.59" font-family="Times,serif" font-size="14.00">Fp (P)</text>
<text text-anchor="middle" x="1762.73" y="-462.59" font-family="Times,serif" font-size="14.00">rep=no, t=no, r=yes, m=yes, c=no</text>
</g>
<!-- n9&#45;&gt;n12 -->
<g id="edge5" class="edge">
<title>n9&#45;&gt;n12</title>
<path fill="none" stroke="black" d="M1129.27,-573.85C1249.88,-560.59 1416.71,-540.88 1562.73,-518.77 1580.77,-516.03 1599.68,-512.92 1618.38,-509.68"/>
<polygon fill="black" stroke="black" points="1619.19,-513.1 1628.44,-507.93 1617.98,-506.2 1619.19,-513.1"/>
</g>
<!-- n4 -->
<g id="node7" class="node">
<title>n4</title>
<ellipse fill="#98D2A5" stroke="black" cx="962.73" cy="-370.34" rx="190.84" ry="37.45"/>
<text text-anchor="middle" x="962.73" y="-381.64" font-family="Times,serif" font-size="14.00">in</text>
<text text-anchor="middle" x="962.73" y="-366.64" font-family="Times,serif" font-size="14.00">IN (NMOD)</text>
<text text-anchor="middle" x="962.73" y="-351.64" font-family="Times,serif" font-size="14.00">rep=no, t=yes, r=no, m=yes, c=no</text>
</g>
<!-- n3&#45;&gt;n4 -->
<g id="edge6" class="edge">
<title>n3&#45;&gt;n4</title>
<path fill="none" stroke="black" d="M962.73,-443.71C962.73,-435.53 962.73,-426.75 962.73,-418.23"/>
<polygon fill="black" stroke="black" points="966.23,-418.01 962.73,-408.01 959.23,-418.01 966.23,-418.01"/>
</g>
<!-- n11 -->
<g id="node12" class="node">
<title>n11</title>
<ellipse fill="#98D2A5" stroke="black" cx="1362.73" cy="-370.34" rx="190.84" ry="37.45"/>
<text text-anchor="middle" x="1362.73" y="-381.64" font-family="Times,serif" font-size="14.00">slow</text>
<text text-anchor="middle" x="1362.73" y="-366.64" font-family="Times,serif" font-size="14.00">JJ (PRD)</text>
<text text-anchor="middle" x="1362.73" y="-351.64" font-family="Times,serif" font-size="14.00">rep=no, t=no, r=yes, m=yes, c=no</text>
</g>
<!-- n10&#45;&gt;n11 -->
<g id="edge11" class="edge">
<title>n10&#45;&gt;n11</title>
<path fill="none" stroke="black" d="M1362.73,-443.71C1362.73,-435.53 1362.73,-426.75 1362.73,-418.23"/>
<polygon fill="black" stroke="black" points="1366.23,-418.01 1362.73,-408.01 1359.23,-418.01 1366.23,-418.01"/>
</g>
<!-- n5 -->
<g id="node8" class="node">
<title>n5</title>
<ellipse fill="#98D2A5" stroke="black" cx="962.73" cy="-259.38" rx="190.84" ry="37.45"/>
<text text-anchor="middle" x="962.73" y="-270.68" font-family="Times,serif" font-size="14.00">identifying</text>
<text text-anchor="middle" x="962.73" y="-255.68" font-family="Times,serif" font-size="14.00">VBG (PMOD)</text>
<text text-anchor="middle" x="962.73" y="-240.68" font-family="Times,serif" font-size="14.00">rep=no, t=yes, r=no, m=yes, c=no</text>
</g>
<!-- n4&#45;&gt;n5 -->
<g id="edge7" class="edge">
<title>n4&#45;&gt;n5</title>
<path fill="none" stroke="black" d="M962.73,-332.75C962.73,-324.58 962.73,-315.8 962.73,-307.27"/>
<polygon fill="black" stroke="black" points="966.23,-307.06 962.73,-297.06 959.23,-307.06 966.23,-307.06"/>
</g>
<!-- n8 -->
<g id="node9" class="node">
<title>n8</title>
<ellipse fill="#98D2A5" stroke="black" cx="962.73" cy="-148.43" rx="190.84" ry="37.45"/>
<text text-anchor="middle" x="962.73" y="-159.73" font-family="Times,serif" font-size="14.00">loci</text>
<text text-anchor="middle" x="962.73" y="-144.73" font-family="Times,serif" font-size="14.00">NNS (OBJ)</text>
<text text-anchor="middle" x="962.73" y="-129.73" font-family="Times,serif" font-size="14.00">rep=no, t=yes, r=no, m=yes, c=no</text>
</g>
<!-- n5&#45;&gt;n8 -->
<g id="edge8" class="edge">
<title>n5&#45;&gt;n8</title>
<path fill="none" stroke="black" d="M962.73,-221.8C962.73,-213.63 962.73,-204.85 962.73,-196.32"/>
<polygon fill="black" stroke="black" points="966.23,-196.1 962.73,-186.1 959.23,-196.1 966.23,-196.1"/>
</g>
<!-- n6 -->
<g id="node10" class="node">
<title>n6</title>
<ellipse fill="#98D2A5" stroke="black" cx="762.73" cy="-37.48" rx="190.84" ry="37.45"/>
<text text-anchor="middle" x="762.73" y="-48.78" font-family="Times,serif" font-size="14.00">the</text>
<text text-anchor="middle" x="762.73" y="-33.78" font-family="Times,serif" font-size="14.00">DT (NMOD)</text>
<text text-anchor="middle" x="762.73" y="-18.78" font-family="Times,serif" font-size="14.00">rep=no, t=yes, r=no, m=yes, c=no</text>
</g>
<!-- n8&#45;&gt;n6 -->
<g id="edge9" class="edge">
<title>n8&#45;&gt;n6</title>
<path fill="none" stroke="black" d="M899.45,-112.96C878.92,-101.77 855.99,-89.28 834.87,-77.78"/>
<polygon fill="black" stroke="black" points="836.39,-74.62 825.94,-72.91 833.05,-80.77 836.39,-74.62"/>
</g>
<!-- n7 -->
<g id="node11" class="node">
<title>n7</title>
<ellipse fill="#98D2A5" stroke="black" cx="1162.73" cy="-37.48" rx="190.84" ry="37.45"/>
<text text-anchor="middle" x="1162.73" y="-48.78" font-family="Times,serif" font-size="14.00">relevant</text>
<text text-anchor="middle" x="1162.73" y="-33.78" font-family="Times,serif" font-size="14.00">JJ (NMOD)</text>
<text text-anchor="middle" x="1162.73" y="-18.78" font-family="Times,serif" font-size="14.00">rep=no, t=yes, r=no, m=yes, c=no</text>
</g>
<!-- n8&#45;&gt;n7 -->
<g id="edge10" class="edge">
<title>n8&#45;&gt;n7</title>
<path fill="none" stroke="black" d="M1026.01,-112.96C1046.54,-101.77 1069.46,-89.28 1090.58,-77.78"/>
<polygon fill="black" stroke="black" points="1092.41,-80.77 1099.51,-72.91 1089.06,-74.62 1092.41,-80.77"/>
</g>
</g>
</svg>
