<?xml version="1.0" encoding="UTF-8" standalone="no"?>
<!DOCTYPE svg PUBLIC "-//W3C//DTD SVG 1.1//EN"
 "http://www.w3.org/Graphics/SVG/1.1/DTD/svg11.dtd">
<!-- Generated by graphviz version 2.43.0 (0)
 -->
<!-- Title: tree Pages: 1 -->
<svg width="2737pt" height="1303pt"
 viewBox="0.00 0.00 2736.65 1303.44" xmlns="http://www.w3.org/2000/svg" xmlns:xlink="http://www.w3.org/1999/xlink">
<g id="graph0" class="graph" transform="scale(1 1) rotate(0) translate(4 1299.44)">
<title>tree</title>
<polygon fill="white" stroke="transparent" points="-4,4 -4,-1299.44 2732.65,-1299.44 2732.65,4 -4,4"/>
<!-- n30 -->
<g id="node1" class="node">
<title>n30</title>
<ellipse fill="#DA79E8" stroke="black" cx="972.73" cy="-1257.96" rx="190.84" ry="37.45"/>
<text text-anchor="middle" x="972.73" y="-1269.26" font-family="Times,serif" font-size="14.00">ha</text>
<text text-anchor="middle" x="972.73" y="-1254.26" font-family="Times,serif" font-size="14.00">vaip3s0 (root)</text>
<text text-anchor="middle" x="972.73" y="-1239.26" font-family="Times,serif" font-size="14.00">rep=no, t=no, r=yes, m=yes, c=no</text>
</g>
<!-- n26 -->
<g id="node2" class="node">
<title>n26</title>
<ellipse fill="none" stroke="black" cx="181.73" cy="-1147.01" rx="181.95" ry="37.45"/>
<text text-anchor="middle" x="181.73" y="-1158.31" font-family="Times,serif" font-size="14.00">,</text>
<text text-anchor="middle" x="181.73" y="-1143.31" font-family="Times,serif" font-size="14.00">fc (punct)</text>
<text text-anchor="middle" x="181.73" y="-1128.31" font-family="Times,serif" font-size="14.00">rep=no, t=no, r=no, m=no, c=no</text>
</g>
<!-- n30&#45;&gt;n26 -->
<g id="edge1" class="edge">
<title>n30&#45;&gt;n26</title>
<path fill="none" stroke="black" d="M805.48,-1239.87C684.89,-1226.78 518.39,-1207.17 372.73,-1184.49 355.49,-1181.8 337.43,-1178.72 319.57,-1175.5"/>
<polygon fill="black" stroke="black" points="320.15,-1172.05 309.68,-1173.7 318.9,-1178.93 320.15,-1172.05"/>
</g>
<!-- n28 -->
<g id="node3" class="node">
<title>n28</title>
<ellipse fill="#BEDA48" stroke="black" cx="572.73" cy="-1147.01" rx="190.84" ry="37.45"/>
<text text-anchor="middle" x="572.73" y="-1158.31" font-family="Times,serif" font-size="14.00">GRAPO</text>
<text text-anchor="middle" x="572.73" y="-1143.31" font-family="Times,serif" font-size="14.00">np00000 (nsubj)</text>
<text text-anchor="middle" x="572.73" y="-1128.31" font-family="Times,serif" font-size="14.00">rep=no, t=yes, r=no, m=yes, c=no</text>
</g>
<!-- n30&#45;&gt;n28 -->
<g id="edge2" class="edge">
<title>n30&#45;&gt;n28</title>
<path fill="none" stroke="black" d="M863.42,-1227.19C810.29,-1212.72 746.32,-1195.29 691.93,-1180.48"/>
<polygon fill="black" stroke="black" points="692.81,-1177.09 682.24,-1177.84 690.97,-1183.85 692.81,-1177.09"/>
</g>
<!-- n29 -->
<g id="node4" class="node">
<title>n29</title>
<ellipse fill="#DA79E8" stroke="black" cx="972.73" cy="-1147.01" rx="190.84" ry="37.45"/>
<text text-anchor="middle" x="972.73" y="-1158.31" font-family="Times,serif" font-size="14.00">no</text>
<text text-anchor="middle" x="972.73" y="-1143.31" font-family="Times,serif" font-size="14.00">rn (neg)</text>
<text text-anchor="middle" x="972.73" y="-1128.31" font-family="Times,serif" font-size="14.00">rep=no, t=no, r=yes, m=yes, c=no</text>
</g>
<!-- n30&#45;&gt;n29 -->
<g id="edge3" class="edge">
<title>n30&#45;&gt;n29</title>
<path fill="none" stroke="black" d="M972.73,-1220.38C972.73,-1212.21 972.73,-1203.43 972.73,-1194.9"/>
<polygon fill="black" stroke="black" points="976.23,-1194.68 972.73,-1184.68 969.23,-1194.68 976.23,-1194.68"/>
</g>
<!-- n31 -->
<g id="node5" class="node">
<title>n31</title>
<ellipse fill="#DA79E8" stroke="black" cx="1372.73" cy="-1147.01" rx="190.84" ry="37.45"/>
<text text-anchor="middle" x="1372.73" y="-1158.31" font-family="Times,serif" font-size="14.00">dejado</text>
<text text-anchor="middle" x="1372.73" y="-1143.31" font-family="Times,serif" font-size="14.00">vmp00sm (vobj)</text>
<text text-anchor="middle" x="1372.73" y="-1128.31" font-family="Times,serif" font-size="14.00">rep=no, t=no, r=yes, m=yes, c=no</text>
</g>
<!-- n30&#45;&gt;n31 -->
<g id="edge4" class="edge">
<title>n30&#45;&gt;n31</title>
<path fill="none" stroke="black" d="M1082.03,-1227.19C1135.16,-1212.72 1199.13,-1195.29 1253.52,-1180.48"/>
<polygon fill="black" stroke="black" points="1254.48,-1183.85 1263.21,-1177.84 1252.64,-1177.09 1254.48,-1183.85"/>
</g>
<!-- n35 -->
<g id="node6" class="node">
<title>n35</title>
<ellipse fill="none" stroke="black" cx="1763.73" cy="-1147.01" rx="181.95" ry="37.45"/>
<text text-anchor="middle" x="1763.73" y="-1158.31" font-family="Times,serif" font-size="14.00">.</text>
<text text-anchor="middle" x="1763.73" y="-1143.31" font-family="Times,serif" font-size="14.00">fp (punct)</text>
<text text-anchor="middle" x="1763.73" y="-1128.31" font-family="Times,serif" font-size="14.00">rep=no, t=no, r=no, m=no, c=no</text>
</g>
<!-- n30&#45;&gt;n35 -->
<g id="edge5" class="edge">
<title>n30&#45;&gt;n35</title>
<path fill="none" stroke="black" d="M1139.97,-1239.87C1260.56,-1226.78 1427.06,-1207.17 1572.73,-1184.49 1589.97,-1181.8 1608.03,-1178.72 1625.88,-1175.5"/>
<polygon fill="black" stroke="black" points="1626.56,-1178.93 1635.77,-1173.7 1625.3,-1172.05 1626.56,-1178.93"/>
</g>
<!-- n27 -->
<g id="node7" class="node">
<title>n27</title>
<ellipse fill="#BEDA48" stroke="black" cx="362.73" cy="-1036.06" rx="190.84" ry="37.45"/>
<text text-anchor="middle" x="362.73" y="-1047.36" font-family="Times,serif" font-size="14.00">el</text>
<text text-anchor="middle" x="362.73" y="-1032.36" font-family="Times,serif" font-size="14.00">da0ms0 (det)</text>
<text text-anchor="middle" x="362.73" y="-1017.36" font-family="Times,serif" font-size="14.00">rep=no, t=yes, r=no, m=yes, c=no</text>
</g>
<!-- n28&#45;&gt;n27 -->
<g id="edge6" class="edge">
<title>n28&#45;&gt;n27</title>
<path fill="none" stroke="black" d="M506.57,-1111.69C484.8,-1100.39 460.44,-1087.75 438.05,-1076.13"/>
<polygon fill="black" stroke="black" points="439.4,-1072.89 428.91,-1071.4 436.18,-1079.11 439.4,-1072.89"/>
</g>
<!-- n1 -->
<g id="node8" class="node">
<title>n1</title>
<ellipse fill="#DA79E8" stroke="black" cx="767.73" cy="-1036.06" rx="195.74" ry="37.45"/>
<text text-anchor="middle" x="767.73" y="-1047.36" font-family="Times,serif" font-size="14.00">Desde</text>
<text text-anchor="middle" x="767.73" y="-1032.36" font-family="Times,serif" font-size="14.00">sps00 (advcl)</text>
<text text-anchor="middle" x="767.73" y="-1017.36" font-family="Times,serif" font-size="14.00">rep=no, t=no, r=yes, m=yes, c=yes</text>
</g>
<!-- n31&#45;&gt;n1 -->
<g id="edge7" class="edge">
<title>n31&#45;&gt;n1</title>
<path fill="none" stroke="black" d="M1235.57,-1120.93C1214.52,-1117.1 1193.05,-1113.2 1172.73,-1109.53 1088.81,-1094.37 995.07,-1077.59 918.94,-1063.99"/>
<polygon fill="black" stroke="black" points="919.25,-1060.49 908.79,-1062.18 918.02,-1067.38 919.25,-1060.49"/>
</g>
<!-- n12 -->
<g id="node9" class="node">
<title>n12</title>
<ellipse fill="#DA79E8" stroke="black" cx="1172.73" cy="-1036.06" rx="190.84" ry="37.45"/>
<text text-anchor="middle" x="1172.73" y="-1047.36" font-family="Times,serif" font-size="14.00">y</text>
<text text-anchor="middle" x="1172.73" y="-1032.36" font-family="Times,serif" font-size="14.00">cc (coord_fixed)</text>
<text text-anchor="middle" x="1172.73" y="-1017.36" font-family="Times,serif" font-size="14.00">rep=no, t=no, r=yes, m=yes, c=no</text>
</g>
<!-- n31&#45;&gt;n12 -->
<g id="edge8" class="edge">
<title>n31&#45;&gt;n12</title>
<path fill="none" stroke="black" d="M1309.45,-1111.54C1288.92,-1100.35 1265.99,-1087.86 1244.87,-1076.36"/>
<polygon fill="black" stroke="black" points="1246.39,-1073.2 1235.94,-1071.49 1243.05,-1079.35 1246.39,-1073.2"/>
</g>
<!-- n32 -->
<g id="node10" class="node">
<title>n32</title>
<ellipse fill="#DA79E8" stroke="black" cx="1572.73" cy="-1036.06" rx="190.84" ry="37.45"/>
<text text-anchor="middle" x="1572.73" y="-1047.36" font-family="Times,serif" font-size="14.00">de</text>
<text text-anchor="middle" x="1572.73" y="-1032.36" font-family="Times,serif" font-size="14.00">sps00 (prepv)</text>
<text text-anchor="middle" x="1572.73" y="-1017.36" font-family="Times,serif" font-size="14.00">rep=no, t=no, r=yes, m=yes, c=no</text>
</g>
<!-- n31&#45;&gt;n32 -->
<g id="edge9" class="edge">
<title>n31&#45;&gt;n32</title>
<path fill="none" stroke="black" d="M1436.01,-1111.54C1456.54,-1100.35 1479.46,-1087.86 1500.58,-1076.36"/>
<polygon fill="black" stroke="black" points="1502.41,-1079.35 1509.51,-1071.49 1499.06,-1073.2 1502.41,-1079.35"/>
</g>
<!-- n33 -->
<g id="node11" class="node">
<title>n33</title>
<ellipse fill="#DA79E8" stroke="black" cx="1972.73" cy="-1036.06" rx="190.84" ry="37.45"/>
<text text-anchor="middle" x="1972.73" y="-1047.36" font-family="Times,serif" font-size="14.00">perpetrar</text>
<text text-anchor="middle" x="1972.73" y="-1032.36" font-family="Times,serif" font-size="14.00">vmn0000 (vobj)</text>
<text text-anchor="middle" x="1972.73" y="-1017.36" font-family="Times,serif" font-size="14.00">rep=no, t=no, r=yes, m=yes, c=no</text>
</g>
<!-- n31&#45;&gt;n33 -->
<g id="edge10" class="edge">
<title>n31&#45;&gt;n33</title>
<path fill="none" stroke="black" d="M1510.16,-1120.9C1531.12,-1117.08 1552.5,-1113.2 1572.73,-1109.53 1661.6,-1093.43 1683.86,-1089.64 1772.73,-1073.53 1789.8,-1070.44 1807.68,-1067.19 1825.44,-1063.96"/>
<polygon fill="black" stroke="black" points="1826.08,-1067.4 1835.29,-1062.17 1824.83,-1060.51 1826.08,-1067.4"/>
</g>
<!-- n34 -->
<g id="node12" class="node">
<title>n34</title>
<ellipse fill="#DA79E8" stroke="black" cx="2372.73" cy="-1036.06" rx="190.84" ry="37.45"/>
<text text-anchor="middle" x="2372.73" y="-1047.36" font-family="Times,serif" font-size="14.00">atentados</text>
<text text-anchor="middle" x="2372.73" y="-1032.36" font-family="Times,serif" font-size="14.00">ncmp000 (dobj)</text>
<text text-anchor="middle" x="2372.73" y="-1017.36" font-family="Times,serif" font-size="14.00">rep=no, t=no, r=yes, m=yes, c=no</text>
</g>
<!-- n31&#45;&gt;n34 -->
<g id="edge11" class="edge">
<title>n31&#45;&gt;n34</title>
<path fill="none" stroke="black" d="M1503.9,-1119.76C1526.77,-1115.85 1550.39,-1112.23 1572.73,-1109.53 1837.95,-1077.51 1907.51,-1105.56 2172.73,-1073.53 2191.84,-1071.23 2211.88,-1068.25 2231.59,-1064.99"/>
<polygon fill="black" stroke="black" points="2232.27,-1068.42 2241.55,-1063.31 2231.11,-1061.52 2232.27,-1068.42"/>
</g>
<!-- n3 -->
<g id="node13" class="node">
<title>n3</title>
<ellipse fill="#DA79E8" stroke="black" cx="761.73" cy="-925.1" rx="190.84" ry="37.45"/>
<text text-anchor="middle" x="761.73" y="-936.4" font-family="Times,serif" font-size="14.00">aparición</text>
<text text-anchor="middle" x="761.73" y="-921.4" font-family="Times,serif" font-size="14.00">ncfs000 (pobj)</text>
<text text-anchor="middle" x="761.73" y="-906.4" font-family="Times,serif" font-size="14.00">rep=no, t=no, r=yes, m=yes, c=no</text>
</g>
<!-- n1&#45;&gt;n3 -->
<g id="edge12" class="edge">
<title>n1&#45;&gt;n3</title>
<path fill="none" stroke="black" d="M765.71,-998.47C765.26,-990.3 764.78,-981.52 764.31,-972.99"/>
<polygon fill="black" stroke="black" points="767.79,-972.57 763.75,-962.78 760.8,-972.95 767.79,-972.57"/>
</g>
<!-- n11 -->
<g id="node22" class="node">
<title>n11</title>
<ellipse fill="#DA79E8" stroke="black" cx="1172.73" cy="-925.1" rx="190.84" ry="37.45"/>
<text text-anchor="middle" x="1172.73" y="-936.4" font-family="Times,serif" font-size="14.00">,</text>
<text text-anchor="middle" x="1172.73" y="-921.4" font-family="Times,serif" font-size="14.00">fc (punct)</text>
<text text-anchor="middle" x="1172.73" y="-906.4" font-family="Times,serif" font-size="14.00">rep=no, t=no, r=yes, m=yes, c=no</text>
</g>
<!-- n12&#45;&gt;n11 -->
<g id="edge21" class="edge">
<title>n12&#45;&gt;n11</title>
<path fill="none" stroke="black" d="M1172.73,-998.47C1172.73,-990.3 1172.73,-981.52 1172.73,-972.99"/>
<polygon fill="black" stroke="black" points="1176.23,-972.78 1172.73,-962.78 1169.23,-972.78 1176.23,-972.78"/>
</g>
<!-- n13 -->
<g id="node23" class="node">
<title>n13</title>
<ellipse fill="#DA79E8" stroke="black" cx="1584.73" cy="-925.1" rx="190.84" ry="37.45"/>
<text text-anchor="middle" x="1584.73" y="-936.4" font-family="Times,serif" font-size="14.00">a</text>
<text text-anchor="middle" x="1584.73" y="-921.4" font-family="Times,serif" font-size="14.00">spcms (conj)</text>
<text text-anchor="middle" x="1584.73" y="-906.4" font-family="Times,serif" font-size="14.00">rep=no, t=no, r=yes, m=yes, c=no</text>
</g>
<!-- n12&#45;&gt;n13 -->
<g id="edge22" class="edge">
<title>n12&#45;&gt;n13</title>
<path fill="none" stroke="black" d="M1284.22,-1005.57C1339.64,-990.92 1406.71,-973.18 1463.41,-958.18"/>
<polygon fill="black" stroke="black" points="1464.37,-961.55 1473.14,-955.61 1462.58,-954.78 1464.37,-961.55"/>
</g>
<!-- n2 -->
<g id="node14" class="node">
<title>n2</title>
<ellipse fill="#DA79E8" stroke="black" cx="336.73" cy="-814.15" rx="190.84" ry="37.45"/>
<text text-anchor="middle" x="336.73" y="-825.45" font-family="Times,serif" font-size="14.00">su</text>
<text text-anchor="middle" x="336.73" y="-810.45" font-family="Times,serif" font-size="14.00">dp3cs0 (poss)</text>
<text text-anchor="middle" x="336.73" y="-795.45" font-family="Times,serif" font-size="14.00">rep=no, t=no, r=yes, m=yes, c=no</text>
</g>
<!-- n3&#45;&gt;n2 -->
<g id="edge13" class="edge">
<title>n3&#45;&gt;n2</title>
<path fill="none" stroke="black" d="M648.11,-894.98C590.12,-880.11 519.47,-862 460.14,-846.79"/>
<polygon fill="black" stroke="black" points="460.89,-843.37 450.34,-844.28 459.16,-850.15 460.89,-843.37"/>
</g>
<!-- n4 -->
<g id="node15" class="node">
<title>n4</title>
<ellipse fill="#DA79E8" stroke="black" cx="736.73" cy="-814.15" rx="190.84" ry="37.45"/>
<text text-anchor="middle" x="736.73" y="-825.45" font-family="Times,serif" font-size="14.00">,</text>
<text text-anchor="middle" x="736.73" y="-810.45" font-family="Times,serif" font-size="14.00">fc (punct)</text>
<text text-anchor="middle" x="736.73" y="-795.45" font-family="Times,serif" font-size="14.00">rep=no, t=no, r=yes, m=yes, c=no</text>
</g>
<!-- n3&#45;&gt;n4 -->
<g id="edge14" class="edge">
<title>n3&#45;&gt;n4</title>
<path fill="none" stroke="black" d="M753.33,-887.52C751.44,-879.26 749.4,-870.37 747.42,-861.76"/>
<polygon fill="black" stroke="black" points="750.79,-860.79 745.14,-851.82 743.97,-862.35 750.79,-860.79"/>
</g>
<!-- n6 -->
<g id="node16" class="node">
<title>n6</title>
<ellipse fill="#DA79E8" stroke="black" cx="1136.73" cy="-814.15" rx="190.84" ry="37.45"/>
<text text-anchor="middle" x="1136.73" y="-825.45" font-family="Times,serif" font-size="14.00">1</text>
<text text-anchor="middle" x="1136.73" y="-810.45" font-family="Times,serif" font-size="14.00">z (prepn)</text>
<text text-anchor="middle" x="1136.73" y="-795.45" font-family="Times,serif" font-size="14.00">rep=no, t=no, r=yes, m=yes, c=no</text>
</g>
<!-- n3&#45;&gt;n6 -->
<g id="edge15" class="edge">
<title>n3&#45;&gt;n6</title>
<path fill="none" stroke="black" d="M866.68,-893.61C915.13,-879.53 972.76,-862.79 1022.32,-848.39"/>
<polygon fill="black" stroke="black" points="1023.49,-851.69 1032.12,-845.54 1021.54,-844.97 1023.49,-851.69"/>
</g>
<!-- n5 -->
<g id="node17" class="node">
<title>n5</title>
<ellipse fill="#DA79E8" stroke="black" cx="736.73" cy="-703.2" rx="190.84" ry="37.45"/>
<text text-anchor="middle" x="736.73" y="-714.5" font-family="Times,serif" font-size="14.00">el</text>
<text text-anchor="middle" x="736.73" y="-699.5" font-family="Times,serif" font-size="14.00">da0ms0 (det)</text>
<text text-anchor="middle" x="736.73" y="-684.5" font-family="Times,serif" font-size="14.00">rep=no, t=no, r=yes, m=yes, c=no</text>
</g>
<!-- n6&#45;&gt;n5 -->
<g id="edge16" class="edge">
<title>n6&#45;&gt;n5</title>
<path fill="none" stroke="black" d="M1027.42,-783.38C974.29,-768.9 910.32,-751.48 855.93,-736.67"/>
<polygon fill="black" stroke="black" points="856.81,-733.28 846.24,-734.03 854.97,-740.03 856.81,-733.28"/>
</g>
<!-- n7 -->
<g id="node18" class="node">
<title>n7</title>
<ellipse fill="#DA79E8" stroke="black" cx="1136.73" cy="-703.2" rx="190.84" ry="37.45"/>
<text text-anchor="middle" x="1136.73" y="-714.5" font-family="Times,serif" font-size="14.00">de</text>
<text text-anchor="middle" x="1136.73" y="-699.5" font-family="Times,serif" font-size="14.00">sps00 (prep)</text>
<text text-anchor="middle" x="1136.73" y="-684.5" font-family="Times,serif" font-size="14.00">rep=no, t=no, r=yes, m=yes, c=no</text>
</g>
<!-- n6&#45;&gt;n7 -->
<g id="edge17" class="edge">
<title>n6&#45;&gt;n7</title>
<path fill="none" stroke="black" d="M1136.73,-776.57C1136.73,-768.39 1136.73,-759.61 1136.73,-751.09"/>
<polygon fill="black" stroke="black" points="1140.23,-750.87 1136.73,-740.87 1133.23,-750.87 1140.23,-750.87"/>
</g>
<!-- n8 -->
<g id="node19" class="node">
<title>n8</title>
<ellipse fill="#DA79E8" stroke="black" cx="1134.73" cy="-592.24" rx="190.84" ry="37.45"/>
<text text-anchor="middle" x="1134.73" y="-603.54" font-family="Times,serif" font-size="14.00">octubre</text>
<text text-anchor="middle" x="1134.73" y="-588.54" font-family="Times,serif" font-size="14.00">ncfp000 (pobj)</text>
<text text-anchor="middle" x="1134.73" y="-573.54" font-family="Times,serif" font-size="14.00">rep=no, t=no, r=yes, m=yes, c=no</text>
</g>
<!-- n7&#45;&gt;n8 -->
<g id="edge18" class="edge">
<title>n7&#45;&gt;n8</title>
<path fill="none" stroke="black" d="M1136.05,-665.61C1135.9,-657.44 1135.74,-648.66 1135.59,-640.13"/>
<polygon fill="black" stroke="black" points="1139.08,-639.85 1135.4,-629.92 1132.08,-639.98 1139.08,-639.85"/>
</g>
<!-- n9 -->
<g id="node20" class="node">
<title>n9</title>
<ellipse fill="#DA79E8" stroke="black" cx="937.73" cy="-481.29" rx="190.84" ry="37.45"/>
<text text-anchor="middle" x="937.73" y="-492.59" font-family="Times,serif" font-size="14.00">de</text>
<text text-anchor="middle" x="937.73" y="-477.59" font-family="Times,serif" font-size="14.00">sps00 (prepn)</text>
<text text-anchor="middle" x="937.73" y="-462.59" font-family="Times,serif" font-size="14.00">rep=no, t=no, r=yes, m=yes, c=no</text>
</g>
<!-- n8&#45;&gt;n9 -->
<g id="edge19" class="edge">
<title>n8&#45;&gt;n9</title>
<path fill="none" stroke="black" d="M1072.39,-556.77C1052.17,-545.59 1029.59,-533.1 1008.79,-521.59"/>
<polygon fill="black" stroke="black" points="1010.44,-518.5 999.99,-516.73 1007.05,-524.63 1010.44,-518.5"/>
</g>
<!-- n10 -->
<g id="node21" class="node">
<title>n10</title>
<ellipse fill="#DA79E8" stroke="black" cx="937.73" cy="-370.34" rx="190.84" ry="37.45"/>
<text text-anchor="middle" x="937.73" y="-381.64" font-family="Times,serif" font-size="14.00">1975</text>
<text text-anchor="middle" x="937.73" y="-366.64" font-family="Times,serif" font-size="14.00">z (pobj)</text>
<text text-anchor="middle" x="937.73" y="-351.64" font-family="Times,serif" font-size="14.00">rep=no, t=no, r=yes, m=yes, c=no</text>
</g>
<!-- n9&#45;&gt;n10 -->
<g id="edge20" class="edge">
<title>n9&#45;&gt;n10</title>
<path fill="none" stroke="black" d="M937.73,-443.71C937.73,-435.53 937.73,-426.75 937.73,-418.23"/>
<polygon fill="black" stroke="black" points="941.23,-418.01 937.73,-408.01 934.23,-418.01 941.23,-418.01"/>
</g>
<!-- n14 -->
<g id="node24" class="node">
<title>n14</title>
<ellipse fill="#DA79E8" stroke="black" cx="1633.73" cy="-814.15" rx="190.84" ry="37.45"/>
<text text-anchor="middle" x="1633.73" y="-825.45" font-family="Times,serif" font-size="14.00">pesar</text>
<text text-anchor="middle" x="1633.73" y="-810.45" font-family="Times,serif" font-size="14.00">vmn0000 (pobj)</text>
<text text-anchor="middle" x="1633.73" y="-795.45" font-family="Times,serif" font-size="14.00">rep=no, t=no, r=yes, m=yes, c=no</text>
</g>
<!-- n13&#45;&gt;n14 -->
<g id="edge23" class="edge">
<title>n13&#45;&gt;n14</title>
<path fill="none" stroke="black" d="M1601.18,-887.52C1604.98,-879.08 1609.06,-869.99 1613.02,-861.2"/>
<polygon fill="black" stroke="black" points="1616.32,-862.38 1617.23,-851.82 1609.94,-859.51 1616.32,-862.38"/>
</g>
<!-- n15 -->
<g id="node25" class="node">
<title>n15</title>
<ellipse fill="#DA79E8" stroke="black" cx="1636.73" cy="-703.2" rx="190.84" ry="37.45"/>
<text text-anchor="middle" x="1636.73" y="-714.5" font-family="Times,serif" font-size="14.00">de</text>
<text text-anchor="middle" x="1636.73" y="-699.5" font-family="Times,serif" font-size="14.00">sps00 (prepv)</text>
<text text-anchor="middle" x="1636.73" y="-684.5" font-family="Times,serif" font-size="14.00">rep=no, t=no, r=yes, m=yes, c=no</text>
</g>
<!-- n14&#45;&gt;n15 -->
<g id="edge24" class="edge">
<title>n14&#45;&gt;n15</title>
<path fill="none" stroke="black" d="M1634.73,-776.57C1634.96,-768.39 1635.2,-759.61 1635.44,-751.09"/>
<polygon fill="black" stroke="black" points="1638.94,-750.96 1635.72,-740.87 1631.94,-750.77 1638.94,-750.96"/>
</g>
<!-- n16 -->
<g id="node26" class="node">
<title>n16</title>
<ellipse fill="#DA79E8" stroke="black" cx="1735.73" cy="-592.24" rx="190.84" ry="37.45"/>
<text text-anchor="middle" x="1735.73" y="-603.54" font-family="Times,serif" font-size="14.00">que</text>
<text text-anchor="middle" x="1735.73" y="-588.54" font-family="Times,serif" font-size="14.00">pp3fs000 (pobj)</text>
<text text-anchor="middle" x="1735.73" y="-573.54" font-family="Times,serif" font-size="14.00">rep=no, t=no, r=yes, m=yes, c=no</text>
</g>
<!-- n15&#45;&gt;n16 -->
<g id="edge25" class="edge">
<title>n15&#45;&gt;n16</title>
<path fill="none" stroke="black" d="M1669.42,-666.22C1677.95,-656.83 1687.24,-646.61 1696.09,-636.87"/>
<polygon fill="black" stroke="black" points="1698.94,-638.94 1703.07,-629.18 1693.75,-634.23 1698.94,-638.94"/>
</g>
<!-- n17 -->
<g id="node27" class="node">
<title>n17</title>
<ellipse fill="#DA79E8" stroke="black" cx="1337.73" cy="-481.29" rx="190.84" ry="37.45"/>
<text text-anchor="middle" x="1337.73" y="-492.59" font-family="Times,serif" font-size="14.00">se</text>
<text text-anchor="middle" x="1337.73" y="-477.59" font-family="Times,serif" font-size="14.00">p0000000 (reflec)</text>
<text text-anchor="middle" x="1337.73" y="-462.59" font-family="Times,serif" font-size="14.00">rep=no, t=no, r=yes, m=yes, c=no</text>
</g>
<!-- n16&#45;&gt;n17 -->
<g id="edge26" class="edge">
<title>n16&#45;&gt;n17</title>
<path fill="none" stroke="black" d="M1626.71,-561.4C1573.95,-546.96 1510.51,-529.59 1456.52,-514.81"/>
<polygon fill="black" stroke="black" points="1457.13,-511.35 1446.56,-512.08 1455.28,-518.1 1457.13,-511.35"/>
</g>
<!-- n18 -->
<g id="node28" class="node">
<title>n18</title>
<ellipse fill="#DA79E8" stroke="black" cx="1737.73" cy="-481.29" rx="190.84" ry="37.45"/>
<text text-anchor="middle" x="1737.73" y="-492.59" font-family="Times,serif" font-size="14.00">le</text>
<text text-anchor="middle" x="1737.73" y="-477.59" font-family="Times,serif" font-size="14.00">pp3csd00 (iobj)</text>
<text text-anchor="middle" x="1737.73" y="-462.59" font-family="Times,serif" font-size="14.00">rep=no, t=no, r=yes, m=yes, c=no</text>
</g>
<!-- n16&#45;&gt;n18 -->
<g id="edge27" class="edge">
<title>n16&#45;&gt;n18</title>
<path fill="none" stroke="black" d="M1736.4,-554.66C1736.55,-546.49 1736.71,-537.71 1736.87,-529.18"/>
<polygon fill="black" stroke="black" points="1740.37,-529.02 1737.05,-518.96 1733.37,-528.9 1740.37,-529.02"/>
</g>
<!-- n19 -->
<g id="node29" class="node">
<title>n19</title>
<ellipse fill="#DA79E8" stroke="black" cx="2137.73" cy="-481.29" rx="190.84" ry="37.45"/>
<text text-anchor="middle" x="2137.73" y="-492.59" font-family="Times,serif" font-size="14.00">ha</text>
<text text-anchor="middle" x="2137.73" y="-477.59" font-family="Times,serif" font-size="14.00">vaip3s0 (cobj)</text>
<text text-anchor="middle" x="2137.73" y="-462.59" font-family="Times,serif" font-size="14.00">rep=no, t=no, r=yes, m=yes, c=no</text>
</g>
<!-- n16&#45;&gt;n19 -->
<g id="edge28" class="edge">
<title>n16&#45;&gt;n19</title>
<path fill="none" stroke="black" d="M1845.31,-561.54C1898.82,-547.04 1963.32,-529.56 2018.11,-514.71"/>
<polygon fill="black" stroke="black" points="2019.14,-518.06 2027.87,-512.06 2017.3,-511.3 2019.14,-518.06"/>
</g>
<!-- n20 -->
<g id="node30" class="node">
<title>n20</title>
<ellipse fill="#DA79E8" stroke="black" cx="1937.73" cy="-370.34" rx="190.84" ry="37.45"/>
<text text-anchor="middle" x="1937.73" y="-381.64" font-family="Times,serif" font-size="14.00">dado</text>
<text text-anchor="middle" x="1937.73" y="-366.64" font-family="Times,serif" font-size="14.00">vmp00sm (vobj)</text>
<text text-anchor="middle" x="1937.73" y="-351.64" font-family="Times,serif" font-size="14.00">rep=no, t=no, r=yes, m=yes, c=no</text>
</g>
<!-- n19&#45;&gt;n20 -->
<g id="edge29" class="edge">
<title>n19&#45;&gt;n20</title>
<path fill="none" stroke="black" d="M2074.45,-445.82C2053.92,-434.63 2030.99,-422.14 2009.87,-410.64"/>
<polygon fill="black" stroke="black" points="2011.39,-407.48 2000.94,-405.77 2008.05,-413.63 2011.39,-407.48"/>
</g>
<!-- n21 -->
<g id="node31" class="node">
<title>n21</title>
<ellipse fill="#DA79E8" stroke="black" cx="2337.73" cy="-370.34" rx="190.84" ry="37.45"/>
<text text-anchor="middle" x="2337.73" y="-381.64" font-family="Times,serif" font-size="14.00">por</text>
<text text-anchor="middle" x="2337.73" y="-366.64" font-family="Times,serif" font-size="14.00">sps00 (cobj)</text>
<text text-anchor="middle" x="2337.73" y="-351.64" font-family="Times,serif" font-size="14.00">rep=no, t=no, r=yes, m=yes, c=no</text>
</g>
<!-- n19&#45;&gt;n21 -->
<g id="edge30" class="edge">
<title>n19&#45;&gt;n21</title>
<path fill="none" stroke="black" d="M2201.01,-445.82C2221.54,-434.63 2244.46,-422.14 2265.58,-410.64"/>
<polygon fill="black" stroke="black" points="2267.41,-413.63 2274.51,-405.77 2264.06,-407.48 2267.41,-413.63"/>
</g>
<!-- n22 -->
<g id="node32" class="node">
<title>n22</title>
<ellipse fill="#DA79E8" stroke="black" cx="2137.73" cy="-259.38" rx="190.84" ry="37.45"/>
<text text-anchor="middle" x="2137.73" y="-270.68" font-family="Times,serif" font-size="14.00">desactivado</text>
<text text-anchor="middle" x="2137.73" y="-255.68" font-family="Times,serif" font-size="14.00">aq0msp (pobj)</text>
<text text-anchor="middle" x="2137.73" y="-240.68" font-family="Times,serif" font-size="14.00">rep=no, t=no, r=yes, m=yes, c=no</text>
</g>
<!-- n21&#45;&gt;n22 -->
<g id="edge31" class="edge">
<title>n21&#45;&gt;n22</title>
<path fill="none" stroke="black" d="M2274.45,-334.86C2253.92,-323.68 2230.99,-311.19 2209.87,-299.68"/>
<polygon fill="black" stroke="black" points="2211.39,-296.53 2200.94,-294.82 2208.05,-302.68 2211.39,-296.53"/>
</g>
<!-- n23 -->
<g id="node33" class="node">
<title>n23</title>
<ellipse fill="#DA79E8" stroke="black" cx="2537.73" cy="-259.38" rx="190.84" ry="37.45"/>
<text text-anchor="middle" x="2537.73" y="-270.68" font-family="Times,serif" font-size="14.00">en</text>
<text text-anchor="middle" x="2537.73" y="-255.68" font-family="Times,serif" font-size="14.00">sps00 (cobj)</text>
<text text-anchor="middle" x="2537.73" y="-240.68" font-family="Times,serif" font-size="14.00">rep=no, t=no, r=yes, m=yes, c=no</text>
</g>
<!-- n21&#45;&gt;n23 -->
<g id="edge32" class="edge">
<title>n21&#45;&gt;n23</title>
<path fill="none" stroke="black" d="M2401.01,-334.86C2421.54,-323.68 2444.46,-311.19 2465.58,-299.68"/>
<polygon fill="black" stroke="black" points="2467.41,-302.68 2474.51,-294.82 2464.06,-296.53 2467.41,-302.68"/>
</g>
<!-- n25 -->
<g id="node34" class="node">
<title>n25</title>
<ellipse fill="#DA79E8" stroke="black" cx="2537.73" cy="-148.43" rx="190.84" ry="37.45"/>
<text text-anchor="middle" x="2537.73" y="-159.73" font-family="Times,serif" font-size="14.00">ocasiones</text>
<text text-anchor="middle" x="2537.73" y="-144.73" font-family="Times,serif" font-size="14.00">ncfp000 (pobj)</text>
<text text-anchor="middle" x="2537.73" y="-129.73" font-family="Times,serif" font-size="14.00">rep=no, t=no, r=yes, m=yes, c=no</text>
</g>
<!-- n23&#45;&gt;n25 -->
<g id="edge33" class="edge">
<title>n23&#45;&gt;n25</title>
<path fill="none" stroke="black" d="M2537.73,-221.8C2537.73,-213.63 2537.73,-204.85 2537.73,-196.32"/>
<polygon fill="black" stroke="black" points="2541.23,-196.1 2537.73,-186.1 2534.23,-196.1 2541.23,-196.1"/>
</g>
<!-- n24 -->
<g id="node35" class="node">
<title>n24</title>
<ellipse fill="#DA79E8" stroke="black" cx="2537.73" cy="-37.48" rx="190.84" ry="37.45"/>
<text text-anchor="middle" x="2537.73" y="-48.78" font-family="Times,serif" font-size="14.00">numerosas</text>
<text text-anchor="middle" x="2537.73" y="-33.78" font-family="Times,serif" font-size="14.00">aq0fp0 (amod)</text>
<text text-anchor="middle" x="2537.73" y="-18.78" font-family="Times,serif" font-size="14.00">rep=no, t=no, r=yes, m=yes, c=no</text>
</g>
<!-- n25&#45;&gt;n24 -->
<g id="edge34" class="edge">
<title>n25&#45;&gt;n24</title>
<path fill="none" stroke="black" d="M2537.73,-110.85C2537.73,-102.67 2537.73,-93.89 2537.73,-85.37"/>
<polygon fill="black" stroke="black" points="2541.23,-85.15 2537.73,-75.15 2534.23,-85.15 2541.23,-85.15"/>
</g>
</g>
</svg>
