<?xml version="1.0" encoding="UTF-8" standalone="no"?>
<!DOCTYPE svg PUBLIC "-//W3C//DTD SVG 1.1//EN"
 "http://www.w3.org/Graphics/SVG/1.1/DTD/svg11.dtd">
<!-- Generated by graphviz version 2.43.0 (0)
 -->
<!-- Title: tree Pages: 1 -->
<svg width="4239pt" height="971pt"
 viewBox="0.00 0.00 4238.89 970.58" xmlns="http://www.w3.org/2000/svg" xmlns:xlink="http://www.w3.org/1999/xlink">
<g id="graph0" class="graph" transform="scale(1 1) rotate(0) translate(4 966.58)">
<title>tree</title>
<polygon fill="white" stroke="transparent" points="-4,4 -4,-966.58 4234.89,-966.58 4234.89,4 -4,4"/>
<!-- n11 -->
<g id="node1" class="node">
<title>n11</title>
<ellipse fill="#DA79E8" stroke="black" cx="1538.97" cy="-925.1" rx="190.84" ry="37.45"/>
<text text-anchor="middle" x="1538.97" y="-936.4" font-family="Times,serif" font-size="14.00">anunció</text>
<text text-anchor="middle" x="1538.97" y="-921.4" font-family="Times,serif" font-size="14.00">vmis3s0 (root)</text>
<text text-anchor="middle" x="1538.97" y="-906.4" font-family="Times,serif" font-size="14.00">rep=no, t=no, r=yes, m=yes, c=no</text>
</g>
<!-- n1 -->
<g id="node2" class="node">
<title>n1</title>
<ellipse fill="none" stroke="black" cx="571.97" cy="-814.15" rx="181.95" ry="37.45"/>
<text text-anchor="middle" x="571.97" y="-825.45" font-family="Times,serif" font-size="14.00">Con</text>
<text text-anchor="middle" x="571.97" y="-810.45" font-family="Times,serif" font-size="14.00">sps00 (prepv)</text>
<text text-anchor="middle" x="571.97" y="-795.45" font-family="Times,serif" font-size="14.00">rep=no, t=no, r=no, m=no, c=no</text>
</g>
<!-- n11&#45;&gt;n1 -->
<g id="edge1" class="edge">
<title>n11&#45;&gt;n1</title>
<path fill="none" stroke="black" d="M1359.4,-912.3C1201.54,-900.75 965.85,-880.64 761.97,-851.63 744.5,-849.14 726.21,-846.14 708.15,-842.94"/>
<polygon fill="black" stroke="black" points="708.62,-839.47 698.16,-841.14 707.38,-846.36 708.62,-839.47"/>
</g>
<!-- n9 -->
<g id="node3" class="node">
<title>n9</title>
<ellipse fill="none" stroke="black" cx="952.97" cy="-814.15" rx="181.95" ry="37.45"/>
<text text-anchor="middle" x="952.97" y="-825.45" font-family="Times,serif" font-size="14.00">,</text>
<text text-anchor="middle" x="952.97" y="-810.45" font-family="Times,serif" font-size="14.00">fc (punct)</text>
<text text-anchor="middle" x="952.97" y="-795.45" font-family="Times,serif" font-size="14.00">rep=no, t=no, r=no, m=no, c=no</text>
</g>
<!-- n11&#45;&gt;n9 -->
<g id="edge2" class="edge">
<title>n11&#45;&gt;n9</title>
<path fill="none" stroke="black" d="M1401.36,-899.11C1325.43,-885.25 1229.46,-867.63 1143.97,-851.63 1127.67,-848.58 1110.6,-845.35 1093.65,-842.14"/>
<polygon fill="black" stroke="black" points="1094.16,-838.67 1083.69,-840.24 1092.86,-845.55 1094.16,-838.67"/>
</g>
<!-- n10 -->
<g id="node4" class="node">
<title>n10</title>
<ellipse fill="#BEDA48" stroke="black" cx="1343.97" cy="-814.15" rx="190.84" ry="37.45"/>
<text text-anchor="middle" x="1343.97" y="-825.45" font-family="Times,serif" font-size="14.00">Israel</text>
<text text-anchor="middle" x="1343.97" y="-810.45" font-family="Times,serif" font-size="14.00">np00000 (nsubj)</text>
<text text-anchor="middle" x="1343.97" y="-795.45" font-family="Times,serif" font-size="14.00">rep=no, t=yes, r=no, m=yes, c=no</text>
</g>
<!-- n11&#45;&gt;n10 -->
<g id="edge3" class="edge">
<title>n11&#45;&gt;n10</title>
<path fill="none" stroke="black" d="M1477.27,-889.63C1457.44,-878.55 1435.32,-866.19 1414.88,-854.77"/>
<polygon fill="black" stroke="black" points="1416.37,-851.6 1405.94,-849.77 1412.96,-857.71 1416.37,-851.6"/>
</g>
<!-- n12 -->
<g id="node5" class="node">
<title>n12</title>
<ellipse fill="none" stroke="black" cx="1734.97" cy="-814.15" rx="181.95" ry="37.45"/>
<text text-anchor="middle" x="1734.97" y="-825.45" font-family="Times,serif" font-size="14.00">ayer</text>
<text text-anchor="middle" x="1734.97" y="-810.45" font-family="Times,serif" font-size="14.00">rg (advmod)</text>
<text text-anchor="middle" x="1734.97" y="-795.45" font-family="Times,serif" font-size="14.00">rep=no, t=no, r=no, m=no, c=no</text>
</g>
<!-- n11&#45;&gt;n12 -->
<g id="edge4" class="edge">
<title>n11&#45;&gt;n12</title>
<path fill="none" stroke="black" d="M1600.98,-889.63C1621.1,-878.45 1643.57,-865.96 1664.27,-854.45"/>
<polygon fill="black" stroke="black" points="1665.98,-857.5 1673.02,-849.59 1662.58,-851.39 1665.98,-857.5"/>
</g>
<!-- n15 -->
<g id="node6" class="node">
<title>n15</title>
<ellipse fill="#DA79E8" stroke="black" cx="2125.97" cy="-814.15" rx="190.84" ry="37.45"/>
<text text-anchor="middle" x="2125.97" y="-825.45" font-family="Times,serif" font-size="14.00">construcción</text>
<text text-anchor="middle" x="2125.97" y="-810.45" font-family="Times,serif" font-size="14.00">ncfs000 (dobj)</text>
<text text-anchor="middle" x="2125.97" y="-795.45" font-family="Times,serif" font-size="14.00">rep=no, t=no, r=yes, m=yes, c=no</text>
</g>
<!-- n11&#45;&gt;n15 -->
<g id="edge5" class="edge">
<title>n11&#45;&gt;n15</title>
<path fill="none" stroke="black" d="M1675.48,-898.76C1766.67,-881.84 1886.5,-859.6 1979.64,-842.31"/>
<polygon fill="black" stroke="black" points="1980.52,-845.71 1989.72,-840.44 1979.24,-838.82 1980.52,-845.71"/>
</g>
<!-- n34 -->
<g id="node7" class="node">
<title>n34</title>
<ellipse fill="none" stroke="black" cx="2516.97" cy="-814.15" rx="181.95" ry="37.45"/>
<text text-anchor="middle" x="2516.97" y="-825.45" font-family="Times,serif" font-size="14.00">.</text>
<text text-anchor="middle" x="2516.97" y="-810.45" font-family="Times,serif" font-size="14.00">fp (punct)</text>
<text text-anchor="middle" x="2516.97" y="-795.45" font-family="Times,serif" font-size="14.00">rep=no, t=no, r=no, m=no, c=no</text>
</g>
<!-- n11&#45;&gt;n34 -->
<g id="edge6" class="edge">
<title>n11&#45;&gt;n34</title>
<path fill="none" stroke="black" d="M1718.88,-912.52C1878.77,-901.03 2118.61,-880.91 2325.97,-851.63 2343.6,-849.14 2362.07,-846.13 2380.28,-842.91"/>
<polygon fill="black" stroke="black" points="2381.14,-846.32 2390.37,-841.11 2379.91,-839.42 2381.14,-846.32"/>
</g>
<!-- n2 -->
<g id="node8" class="node">
<title>n2</title>
<ellipse fill="none" stroke="black" cx="185.97" cy="-703.2" rx="185.94" ry="37.45"/>
<text text-anchor="middle" x="185.97" y="-714.5" font-family="Times,serif" font-size="14.00">una</text>
<text text-anchor="middle" x="185.97" y="-699.5" font-family="Times,serif" font-size="14.00">pi0fs000 (pobj)</text>
<text text-anchor="middle" x="185.97" y="-684.5" font-family="Times,serif" font-size="14.00">rep=no, t=no, r=no, m=no, c=yes</text>
</g>
<!-- n1&#45;&gt;n2 -->
<g id="edge7" class="edge">
<title>n1&#45;&gt;n2</title>
<path fill="none" stroke="black" d="M467,-783.52C415.83,-769.08 354.14,-751.67 301.62,-736.84"/>
<polygon fill="black" stroke="black" points="302.5,-733.45 291.92,-734.1 300.59,-740.19 302.5,-733.45"/>
</g>
<!-- n5 -->
<g id="node9" class="node">
<title>n5</title>
<ellipse fill="none" stroke="black" cx="571.97" cy="-703.2" rx="181.95" ry="37.45"/>
<text text-anchor="middle" x="571.97" y="-714.5" font-family="Times,serif" font-size="14.00">y</text>
<text text-anchor="middle" x="571.97" y="-699.5" font-family="Times,serif" font-size="14.00">cc (coord_fixed)</text>
<text text-anchor="middle" x="571.97" y="-684.5" font-family="Times,serif" font-size="14.00">rep=no, t=no, r=no, m=no, c=no</text>
</g>
<!-- n1&#45;&gt;n5 -->
<g id="edge8" class="edge">
<title>n1&#45;&gt;n5</title>
<path fill="none" stroke="black" d="M571.97,-776.57C571.97,-768.39 571.97,-759.61 571.97,-751.09"/>
<polygon fill="black" stroke="black" points="575.47,-750.87 571.97,-740.87 568.47,-750.87 575.47,-750.87"/>
</g>
<!-- n6 -->
<g id="node10" class="node">
<title>n6</title>
<ellipse fill="none" stroke="black" cx="957.97" cy="-703.2" rx="185.94" ry="37.45"/>
<text text-anchor="middle" x="957.97" y="-714.5" font-family="Times,serif" font-size="14.00">otra</text>
<text text-anchor="middle" x="957.97" y="-699.5" font-family="Times,serif" font-size="14.00">pi0fs000 (pobj)</text>
<text text-anchor="middle" x="957.97" y="-684.5" font-family="Times,serif" font-size="14.00">rep=no, t=no, r=no, m=no, c=yes</text>
</g>
<!-- n1&#45;&gt;n6 -->
<g id="edge9" class="edge">
<title>n1&#45;&gt;n6</title>
<path fill="none" stroke="black" d="M676.94,-783.52C728.11,-769.08 789.8,-751.67 842.32,-736.84"/>
<polygon fill="black" stroke="black" points="843.34,-740.19 852.02,-734.1 841.44,-733.45 843.34,-740.19"/>
</g>
<!-- n13 -->
<g id="node15" class="node">
<title>n13</title>
<ellipse fill="#DA79E8" stroke="black" cx="1539.97" cy="-703.2" rx="190.84" ry="37.45"/>
<text text-anchor="middle" x="1539.97" y="-714.5" font-family="Times,serif" font-size="14.00">la</text>
<text text-anchor="middle" x="1539.97" y="-699.5" font-family="Times,serif" font-size="14.00">da0fs0 (det)</text>
<text text-anchor="middle" x="1539.97" y="-684.5" font-family="Times,serif" font-size="14.00">rep=no, t=no, r=yes, m=yes, c=no</text>
</g>
<!-- n15&#45;&gt;n13 -->
<g id="edge14" class="edge">
<title>n15&#45;&gt;n13</title>
<path fill="none" stroke="black" d="M1989.69,-787.81C1898.74,-770.9 1779.25,-748.69 1686.3,-731.4"/>
<polygon fill="black" stroke="black" points="1686.72,-727.92 1676.24,-729.53 1685.44,-734.8 1686.72,-727.92"/>
</g>
<!-- n14 -->
<g id="node16" class="node">
<title>n14</title>
<ellipse fill="#DA79E8" stroke="black" cx="1939.97" cy="-703.2" rx="190.84" ry="37.45"/>
<text text-anchor="middle" x="1939.97" y="-714.5" font-family="Times,serif" font-size="14.00">próxima</text>
<text text-anchor="middle" x="1939.97" y="-699.5" font-family="Times,serif" font-size="14.00">aq0fs0 (amod)</text>
<text text-anchor="middle" x="1939.97" y="-684.5" font-family="Times,serif" font-size="14.00">rep=no, t=no, r=yes, m=yes, c=no</text>
</g>
<!-- n15&#45;&gt;n14 -->
<g id="edge15" class="edge">
<title>n15&#45;&gt;n14</title>
<path fill="none" stroke="black" d="M2066.61,-778.38C2047.98,-767.47 2027.28,-755.34 2008.1,-744.1"/>
<polygon fill="black" stroke="black" points="2009.8,-741.05 1999.41,-739.01 2006.27,-747.09 2009.8,-741.05"/>
</g>
<!-- n16 -->
<g id="node17" class="node">
<title>n16</title>
<ellipse fill="#DA79E8" stroke="black" cx="2339.97" cy="-703.2" rx="190.84" ry="37.45"/>
<text text-anchor="middle" x="2339.97" y="-714.5" font-family="Times,serif" font-size="14.00">de</text>
<text text-anchor="middle" x="2339.97" y="-699.5" font-family="Times,serif" font-size="14.00">sps00 (prepn)</text>
<text text-anchor="middle" x="2339.97" y="-684.5" font-family="Times,serif" font-size="14.00">rep=no, t=no, r=yes, m=yes, c=no</text>
</g>
<!-- n15&#45;&gt;n16 -->
<g id="edge16" class="edge">
<title>n15&#45;&gt;n16</title>
<path fill="none" stroke="black" d="M2193.09,-778.98C2215.49,-767.57 2240.61,-754.78 2263.66,-743.05"/>
<polygon fill="black" stroke="black" points="2265.39,-746.09 2272.72,-738.44 2262.22,-739.86 2265.39,-746.09"/>
</g>
<!-- n21 -->
<g id="node18" class="node">
<title>n21</title>
<ellipse fill="#DA79E8" stroke="black" cx="2939.97" cy="-703.2" rx="190.84" ry="37.45"/>
<text text-anchor="middle" x="2939.97" y="-714.5" font-family="Times,serif" font-size="14.00">en</text>
<text text-anchor="middle" x="2939.97" y="-699.5" font-family="Times,serif" font-size="14.00">sps00 (prepn)</text>
<text text-anchor="middle" x="2939.97" y="-684.5" font-family="Times,serif" font-size="14.00">rep=no, t=no, r=yes, m=yes, c=no</text>
</g>
<!-- n15&#45;&gt;n21 -->
<g id="edge17" class="edge">
<title>n15&#45;&gt;n21</title>
<path fill="none" stroke="black" d="M2260.25,-787.46C2282.18,-783.61 2304.68,-779.87 2325.97,-776.67 2472.32,-754.71 2639.13,-735.38 2761.9,-722.22"/>
<polygon fill="black" stroke="black" points="2762.58,-725.67 2772.15,-721.13 2761.84,-718.71 2762.58,-725.67"/>
</g>
<!-- n3 -->
<g id="node11" class="node">
<title>n3</title>
<ellipse fill="none" stroke="black" cx="185.97" cy="-592.24" rx="181.95" ry="37.45"/>
<text text-anchor="middle" x="185.97" y="-603.54" font-family="Times,serif" font-size="14.00">de</text>
<text text-anchor="middle" x="185.97" y="-588.54" font-family="Times,serif" font-size="14.00">sps00 (prepn)</text>
<text text-anchor="middle" x="185.97" y="-573.54" font-family="Times,serif" font-size="14.00">rep=no, t=no, r=no, m=no, c=no</text>
</g>
<!-- n2&#45;&gt;n3 -->
<g id="edge10" class="edge">
<title>n2&#45;&gt;n3</title>
<path fill="none" stroke="black" d="M185.97,-665.61C185.97,-657.44 185.97,-648.66 185.97,-640.13"/>
<polygon fill="black" stroke="black" points="189.47,-639.92 185.97,-629.92 182.47,-639.92 189.47,-639.92"/>
</g>
<!-- n7 -->
<g id="node13" class="node">
<title>n7</title>
<ellipse fill="none" stroke="black" cx="957.97" cy="-592.24" rx="181.95" ry="37.45"/>
<text text-anchor="middle" x="957.97" y="-603.54" font-family="Times,serif" font-size="14.00">de</text>
<text text-anchor="middle" x="957.97" y="-588.54" font-family="Times,serif" font-size="14.00">sps00 (prepn)</text>
<text text-anchor="middle" x="957.97" y="-573.54" font-family="Times,serif" font-size="14.00">rep=no, t=no, r=no, m=no, c=no</text>
</g>
<!-- n6&#45;&gt;n7 -->
<g id="edge12" class="edge">
<title>n6&#45;&gt;n7</title>
<path fill="none" stroke="black" d="M957.97,-665.61C957.97,-657.44 957.97,-648.66 957.97,-640.13"/>
<polygon fill="black" stroke="black" points="961.47,-639.92 957.97,-629.92 954.47,-639.92 961.47,-639.92"/>
</g>
<!-- n4 -->
<g id="node12" class="node">
<title>n4</title>
<ellipse fill="none" stroke="black" cx="185.97" cy="-481.29" rx="181.95" ry="37.45"/>
<text text-anchor="middle" x="185.97" y="-492.59" font-family="Times,serif" font-size="14.00">cal</text>
<text text-anchor="middle" x="185.97" y="-477.59" font-family="Times,serif" font-size="14.00">ncfs000 (pobj)</text>
<text text-anchor="middle" x="185.97" y="-462.59" font-family="Times,serif" font-size="14.00">rep=no, t=no, r=no, m=no, c=no</text>
</g>
<!-- n3&#45;&gt;n4 -->
<g id="edge11" class="edge">
<title>n3&#45;&gt;n4</title>
<path fill="none" stroke="black" d="M185.97,-554.66C185.97,-546.49 185.97,-537.71 185.97,-529.18"/>
<polygon fill="black" stroke="black" points="189.47,-528.96 185.97,-518.96 182.47,-528.96 189.47,-528.96"/>
</g>
<!-- n8 -->
<g id="node14" class="node">
<title>n8</title>
<ellipse fill="none" stroke="black" cx="957.97" cy="-481.29" rx="181.95" ry="37.45"/>
<text text-anchor="middle" x="957.97" y="-492.59" font-family="Times,serif" font-size="14.00">arena</text>
<text text-anchor="middle" x="957.97" y="-477.59" font-family="Times,serif" font-size="14.00">ncfs000 (pobj)</text>
<text text-anchor="middle" x="957.97" y="-462.59" font-family="Times,serif" font-size="14.00">rep=no, t=no, r=no, m=no, c=no</text>
</g>
<!-- n7&#45;&gt;n8 -->
<g id="edge13" class="edge">
<title>n7&#45;&gt;n8</title>
<path fill="none" stroke="black" d="M957.97,-554.66C957.97,-546.49 957.97,-537.71 957.97,-529.18"/>
<polygon fill="black" stroke="black" points="961.47,-528.96 957.97,-518.96 954.47,-528.96 961.47,-528.96"/>
</g>
<!-- n18 -->
<g id="node19" class="node">
<title>n18</title>
<ellipse fill="#DA79E8" stroke="black" cx="2239.97" cy="-592.24" rx="190.84" ry="37.45"/>
<text text-anchor="middle" x="2239.97" y="-603.54" font-family="Times,serif" font-size="14.00">viviendas</text>
<text text-anchor="middle" x="2239.97" y="-588.54" font-family="Times,serif" font-size="14.00">ncfp000 (pobj)</text>
<text text-anchor="middle" x="2239.97" y="-573.54" font-family="Times,serif" font-size="14.00">rep=no, t=no, r=yes, m=yes, c=no</text>
</g>
<!-- n16&#45;&gt;n18 -->
<g id="edge18" class="edge">
<title>n16&#45;&gt;n18</title>
<path fill="none" stroke="black" d="M2306.95,-666.22C2298.24,-656.74 2288.76,-646.4 2279.74,-636.58"/>
<polygon fill="black" stroke="black" points="2282.3,-634.18 2272.96,-629.18 2277.14,-638.92 2282.3,-634.18"/>
</g>
<!-- n23 -->
<g id="node23" class="node">
<title>n23</title>
<ellipse fill="#DA79E8" stroke="black" cx="3039.97" cy="-592.24" rx="190.84" ry="37.45"/>
<text text-anchor="middle" x="3039.97" y="-603.54" font-family="Times,serif" font-size="14.00">asentamiento</text>
<text text-anchor="middle" x="3039.97" y="-588.54" font-family="Times,serif" font-size="14.00">ncms000 (pobj)</text>
<text text-anchor="middle" x="3039.97" y="-573.54" font-family="Times,serif" font-size="14.00">rep=no, t=no, r=yes, m=yes, c=no</text>
</g>
<!-- n21&#45;&gt;n23 -->
<g id="edge22" class="edge">
<title>n21&#45;&gt;n23</title>
<path fill="none" stroke="black" d="M2972.99,-666.22C2981.69,-656.74 2991.18,-646.4 3000.2,-636.58"/>
<polygon fill="black" stroke="black" points="3002.8,-638.92 3006.98,-629.18 2997.64,-634.18 3002.8,-638.92"/>
</g>
<!-- n17 -->
<g id="node20" class="node">
<title>n17</title>
<ellipse fill="#DA79E8" stroke="black" cx="1839.97" cy="-481.29" rx="190.84" ry="37.45"/>
<text text-anchor="middle" x="1839.97" y="-492.59" font-family="Times,serif" font-size="14.00">174</text>
<text text-anchor="middle" x="1839.97" y="-477.59" font-family="Times,serif" font-size="14.00">z (num)</text>
<text text-anchor="middle" x="1839.97" y="-462.59" font-family="Times,serif" font-size="14.00">rep=no, t=no, r=yes, m=yes, c=no</text>
</g>
<!-- n18&#45;&gt;n17 -->
<g id="edge19" class="edge">
<title>n18&#45;&gt;n17</title>
<path fill="none" stroke="black" d="M2130.67,-561.47C2077.53,-547 2013.56,-529.57 1959.17,-514.76"/>
<polygon fill="black" stroke="black" points="1960.05,-511.37 1949.49,-512.12 1958.21,-518.13 1960.05,-511.37"/>
</g>
<!-- n19 -->
<g id="node21" class="node">
<title>n19</title>
<ellipse fill="#DA79E8" stroke="black" cx="2239.97" cy="-481.29" rx="190.84" ry="37.45"/>
<text text-anchor="middle" x="2239.97" y="-492.59" font-family="Times,serif" font-size="14.00">para</text>
<text text-anchor="middle" x="2239.97" y="-477.59" font-family="Times,serif" font-size="14.00">sps00 (prepn)</text>
<text text-anchor="middle" x="2239.97" y="-462.59" font-family="Times,serif" font-size="14.00">rep=no, t=no, r=yes, m=yes, c=no</text>
</g>
<!-- n18&#45;&gt;n19 -->
<g id="edge20" class="edge">
<title>n18&#45;&gt;n19</title>
<path fill="none" stroke="black" d="M2239.97,-554.66C2239.97,-546.49 2239.97,-537.71 2239.97,-529.18"/>
<polygon fill="black" stroke="black" points="2243.47,-528.96 2239.97,-518.96 2236.47,-528.96 2243.47,-528.96"/>
</g>
<!-- n20 -->
<g id="node22" class="node">
<title>n20</title>
<ellipse fill="#DA79E8" stroke="black" cx="2239.97" cy="-370.34" rx="190.84" ry="37.45"/>
<text text-anchor="middle" x="2239.97" y="-381.64" font-family="Times,serif" font-size="14.00">colonos</text>
<text text-anchor="middle" x="2239.97" y="-366.64" font-family="Times,serif" font-size="14.00">ncmp000 (pobj)</text>
<text text-anchor="middle" x="2239.97" y="-351.64" font-family="Times,serif" font-size="14.00">rep=no, t=no, r=yes, m=yes, c=no</text>
</g>
<!-- n19&#45;&gt;n20 -->
<g id="edge21" class="edge">
<title>n19&#45;&gt;n20</title>
<path fill="none" stroke="black" d="M2239.97,-443.71C2239.97,-435.53 2239.97,-426.75 2239.97,-418.23"/>
<polygon fill="black" stroke="black" points="2243.47,-418.01 2239.97,-408.01 2236.47,-418.01 2243.47,-418.01"/>
</g>
<!-- n22 -->
<g id="node24" class="node">
<title>n22</title>
<ellipse fill="#DA79E8" stroke="black" cx="2639.97" cy="-481.29" rx="190.84" ry="37.45"/>
<text text-anchor="middle" x="2639.97" y="-492.59" font-family="Times,serif" font-size="14.00">el</text>
<text text-anchor="middle" x="2639.97" y="-477.59" font-family="Times,serif" font-size="14.00">da0ms0 (det)</text>
<text text-anchor="middle" x="2639.97" y="-462.59" font-family="Times,serif" font-size="14.00">rep=no, t=no, r=yes, m=yes, c=no</text>
</g>
<!-- n23&#45;&gt;n22 -->
<g id="edge23" class="edge">
<title>n23&#45;&gt;n22</title>
<path fill="none" stroke="black" d="M2930.67,-561.47C2877.53,-547 2813.56,-529.57 2759.17,-514.76"/>
<polygon fill="black" stroke="black" points="2760.05,-511.37 2749.49,-512.12 2758.21,-518.13 2760.05,-511.37"/>
</g>
<!-- n24 -->
<g id="node25" class="node">
<title>n24</title>
<ellipse fill="#DA79E8" stroke="black" cx="3039.97" cy="-481.29" rx="190.84" ry="37.45"/>
<text text-anchor="middle" x="3039.97" y="-492.59" font-family="Times,serif" font-size="14.00">de</text>
<text text-anchor="middle" x="3039.97" y="-477.59" font-family="Times,serif" font-size="14.00">sps00 (prepn)</text>
<text text-anchor="middle" x="3039.97" y="-462.59" font-family="Times,serif" font-size="14.00">rep=no, t=no, r=yes, m=yes, c=no</text>
</g>
<!-- n23&#45;&gt;n24 -->
<g id="edge24" class="edge">
<title>n23&#45;&gt;n24</title>
<path fill="none" stroke="black" d="M3039.97,-554.66C3039.97,-546.49 3039.97,-537.71 3039.97,-529.18"/>
<polygon fill="black" stroke="black" points="3043.47,-528.96 3039.97,-518.96 3036.47,-528.96 3043.47,-528.96"/>
</g>
<!-- n27 -->
<g id="node26" class="node">
<title>n27</title>
<ellipse fill="#DA79E8" stroke="black" cx="3439.97" cy="-481.29" rx="190.84" ry="37.45"/>
<text text-anchor="middle" x="3439.97" y="-492.59" font-family="Times,serif" font-size="14.00">,</text>
<text text-anchor="middle" x="3439.97" y="-477.59" font-family="Times,serif" font-size="14.00">fc (punct)</text>
<text text-anchor="middle" x="3439.97" y="-462.59" font-family="Times,serif" font-size="14.00">rep=no, t=no, r=yes, m=yes, c=no</text>
</g>
<!-- n23&#45;&gt;n27 -->
<g id="edge25" class="edge">
<title>n23&#45;&gt;n27</title>
<path fill="none" stroke="black" d="M3149.27,-561.47C3202.41,-547 3266.38,-529.57 3320.76,-514.76"/>
<polygon fill="black" stroke="black" points="3321.72,-518.13 3330.45,-512.12 3319.88,-511.37 3321.72,-518.13"/>
</g>
<!-- n28 -->
<g id="node27" class="node">
<title>n28</title>
<ellipse fill="#DA79E8" stroke="black" cx="3839.97" cy="-481.29" rx="190.84" ry="37.45"/>
<text text-anchor="middle" x="3839.97" y="-492.59" font-family="Times,serif" font-size="14.00">situado</text>
<text text-anchor="middle" x="3839.97" y="-477.59" font-family="Times,serif" font-size="14.00">aq0msp (amod)</text>
<text text-anchor="middle" x="3839.97" y="-462.59" font-family="Times,serif" font-size="14.00">rep=no, t=no, r=yes, m=yes, c=no</text>
</g>
<!-- n23&#45;&gt;n28 -->
<g id="edge26" class="edge">
<title>n23&#45;&gt;n28</title>
<path fill="none" stroke="black" d="M3206.51,-573.85C3327.13,-560.59 3493.95,-540.88 3639.97,-518.77 3658.01,-516.03 3676.93,-512.92 3695.62,-509.68"/>
<polygon fill="black" stroke="black" points="3696.43,-513.1 3705.68,-507.93 3695.22,-506.2 3696.43,-513.1"/>
</g>
<!-- n25 -->
<g id="node28" class="node">
<title>n25</title>
<ellipse fill="#DA79E8" stroke="black" cx="3039.97" cy="-370.34" rx="190.84" ry="37.45"/>
<text text-anchor="middle" x="3039.97" y="-381.64" font-family="Times,serif" font-size="14.00">Maalé</text>
<text text-anchor="middle" x="3039.97" y="-366.64" font-family="Times,serif" font-size="14.00">np0000l (pobj)</text>
<text text-anchor="middle" x="3039.97" y="-351.64" font-family="Times,serif" font-size="14.00">rep=no, t=no, r=yes, m=yes, c=no</text>
</g>
<!-- n24&#45;&gt;n25 -->
<g id="edge27" class="edge">
<title>n24&#45;&gt;n25</title>
<path fill="none" stroke="black" d="M3039.97,-443.71C3039.97,-435.53 3039.97,-426.75 3039.97,-418.23"/>
<polygon fill="black" stroke="black" points="3043.47,-418.01 3039.97,-408.01 3036.47,-418.01 3043.47,-418.01"/>
</g>
<!-- n29 -->
<g id="node30" class="node">
<title>n29</title>
<ellipse fill="#DA79E8" stroke="black" cx="3839.97" cy="-370.34" rx="190.84" ry="37.45"/>
<text text-anchor="middle" x="3839.97" y="-381.64" font-family="Times,serif" font-size="14.00">a</text>
<text text-anchor="middle" x="3839.97" y="-366.64" font-family="Times,serif" font-size="14.00">sps00 (prepa)</text>
<text text-anchor="middle" x="3839.97" y="-351.64" font-family="Times,serif" font-size="14.00">rep=no, t=no, r=yes, m=yes, c=no</text>
</g>
<!-- n28&#45;&gt;n29 -->
<g id="edge29" class="edge">
<title>n28&#45;&gt;n29</title>
<path fill="none" stroke="black" d="M3839.97,-443.71C3839.97,-435.53 3839.97,-426.75 3839.97,-418.23"/>
<polygon fill="black" stroke="black" points="3843.47,-418.01 3839.97,-408.01 3836.47,-418.01 3843.47,-418.01"/>
</g>
<!-- n26 -->
<g id="node29" class="node">
<title>n26</title>
<ellipse fill="#DA79E8" stroke="black" cx="3039.97" cy="-259.38" rx="190.84" ry="37.45"/>
<text text-anchor="middle" x="3039.97" y="-270.68" font-family="Times,serif" font-size="14.00">Adumim</text>
<text text-anchor="middle" x="3039.97" y="-255.68" font-family="Times,serif" font-size="14.00">np0000l (appos)</text>
<text text-anchor="middle" x="3039.97" y="-240.68" font-family="Times,serif" font-size="14.00">rep=no, t=no, r=yes, m=yes, c=no</text>
</g>
<!-- n25&#45;&gt;n26 -->
<g id="edge28" class="edge">
<title>n25&#45;&gt;n26</title>
<path fill="none" stroke="black" d="M3039.97,-332.75C3039.97,-324.58 3039.97,-315.8 3039.97,-307.27"/>
<polygon fill="black" stroke="black" points="3043.47,-307.06 3039.97,-297.06 3036.47,-307.06 3043.47,-307.06"/>
</g>
<!-- n31 -->
<g id="node31" class="node">
<title>n31</title>
<ellipse fill="#DA79E8" stroke="black" cx="3839.97" cy="-259.38" rx="190.84" ry="37.45"/>
<text text-anchor="middle" x="3839.97" y="-270.68" font-family="Times,serif" font-size="14.00">kilómetros</text>
<text text-anchor="middle" x="3839.97" y="-255.68" font-family="Times,serif" font-size="14.00">ncmp000 (pobj)</text>
<text text-anchor="middle" x="3839.97" y="-240.68" font-family="Times,serif" font-size="14.00">rep=no, t=no, r=yes, m=yes, c=no</text>
</g>
<!-- n29&#45;&gt;n31 -->
<g id="edge30" class="edge">
<title>n29&#45;&gt;n31</title>
<path fill="none" stroke="black" d="M3839.97,-332.75C3839.97,-324.58 3839.97,-315.8 3839.97,-307.27"/>
<polygon fill="black" stroke="black" points="3843.47,-307.06 3839.97,-297.06 3836.47,-307.06 3843.47,-307.06"/>
</g>
<!-- n30 -->
<g id="node32" class="node">
<title>n30</title>
<ellipse fill="#DA79E8" stroke="black" cx="3639.97" cy="-148.43" rx="190.84" ry="37.45"/>
<text text-anchor="middle" x="3639.97" y="-159.73" font-family="Times,serif" font-size="14.00">pocos</text>
<text text-anchor="middle" x="3639.97" y="-144.73" font-family="Times,serif" font-size="14.00">di0mp0 (det)</text>
<text text-anchor="middle" x="3639.97" y="-129.73" font-family="Times,serif" font-size="14.00">rep=no, t=no, r=yes, m=yes, c=no</text>
</g>
<!-- n31&#45;&gt;n30 -->
<g id="edge31" class="edge">
<title>n31&#45;&gt;n30</title>
<path fill="none" stroke="black" d="M3776.69,-223.91C3756.16,-212.73 3733.23,-200.24 3712.11,-188.73"/>
<polygon fill="black" stroke="black" points="3713.64,-185.58 3703.18,-183.87 3710.29,-191.72 3713.64,-185.58"/>
</g>
<!-- n32 -->
<g id="node33" class="node">
<title>n32</title>
<ellipse fill="#DA79E8" stroke="black" cx="4039.97" cy="-148.43" rx="190.84" ry="37.45"/>
<text text-anchor="middle" x="4039.97" y="-159.73" font-family="Times,serif" font-size="14.00">de</text>
<text text-anchor="middle" x="4039.97" y="-144.73" font-family="Times,serif" font-size="14.00">sps00 (prepn)</text>
<text text-anchor="middle" x="4039.97" y="-129.73" font-family="Times,serif" font-size="14.00">rep=no, t=no, r=yes, m=yes, c=no</text>
</g>
<!-- n31&#45;&gt;n32 -->
<g id="edge32" class="edge">
<title>n31&#45;&gt;n32</title>
<path fill="none" stroke="black" d="M3903.25,-223.91C3923.78,-212.73 3946.7,-200.24 3967.83,-188.73"/>
<polygon fill="black" stroke="black" points="3969.65,-191.72 3976.76,-183.87 3966.3,-185.58 3969.65,-191.72"/>
</g>
<!-- n33 -->
<g id="node34" class="node">
<title>n33</title>
<ellipse fill="#DA79E8" stroke="black" cx="4039.97" cy="-37.48" rx="190.84" ry="37.45"/>
<text text-anchor="middle" x="4039.97" y="-48.78" font-family="Times,serif" font-size="14.00">Jerusalén</text>
<text text-anchor="middle" x="4039.97" y="-33.78" font-family="Times,serif" font-size="14.00">np00000 (pobj)</text>
<text text-anchor="middle" x="4039.97" y="-18.78" font-family="Times,serif" font-size="14.00">rep=no, t=no, r=yes, m=yes, c=no</text>
</g>
<!-- n32&#45;&gt;n33 -->
<g id="edge33" class="edge">
<title>n32&#45;&gt;n33</title>
<path fill="none" stroke="black" d="M4039.97,-110.85C4039.97,-102.67 4039.97,-93.89 4039.97,-85.37"/>
<polygon fill="black" stroke="black" points="4043.47,-85.15 4039.97,-75.15 4036.47,-85.15 4043.47,-85.15"/>
</g>
</g>
</svg>
