<?xml version="1.0" encoding="UTF-8" standalone="no"?>
<!DOCTYPE svg PUBLIC "-//W3C//DTD SVG 1.1//EN"
 "http://www.w3.org/Graphics/SVG/1.1/DTD/svg11.dtd">
<!-- Generated by graphviz version 2.43.0 (0)
 -->
<!-- Title: tree Pages: 1 -->
<svg width="3110pt" height="1082pt"
 viewBox="0.00 0.00 3109.94 1081.53" xmlns="http://www.w3.org/2000/svg" xmlns:xlink="http://www.w3.org/1999/xlink">
<g id="graph0" class="graph" transform="scale(1 1) rotate(0) translate(4 1077.53)">
<title>tree</title>
<polygon fill="white" stroke="transparent" points="-4,4 -4,-1077.53 3105.94,-1077.53 3105.94,4 -4,4"/>
<!-- n23 -->
<g id="node1" class="node">
<title>n23</title>
<ellipse fill="none" stroke="black" cx="965.97" cy="-1036.06" rx="185.94" ry="37.45"/>
<text text-anchor="middle" x="965.97" y="-1047.36" font-family="Times,serif" font-size="14.00">empiezan</text>
<text text-anchor="middle" x="965.97" y="-1032.36" font-family="Times,serif" font-size="14.00">vmip3p0 (root)</text>
<text text-anchor="middle" x="965.97" y="-1017.36" font-family="Times,serif" font-size="14.00">rep=no, t=no, r=no, m=yes, c=no</text>
</g>
<!-- n15 -->
<g id="node2" class="node">
<title>n15</title>
<ellipse fill="none" stroke="black" cx="384.97" cy="-925.1" rx="181.95" ry="37.45"/>
<text text-anchor="middle" x="384.97" y="-936.4" font-family="Times,serif" font-size="14.00">,</text>
<text text-anchor="middle" x="384.97" y="-921.4" font-family="Times,serif" font-size="14.00">fc (punct)</text>
<text text-anchor="middle" x="384.97" y="-906.4" font-family="Times,serif" font-size="14.00">rep=no, t=no, r=no, m=no, c=no</text>
</g>
<!-- n23&#45;&gt;n15 -->
<g id="edge1" class="edge">
<title>n23&#45;&gt;n15</title>
<path fill="none" stroke="black" d="M831.02,-1010.15C755.91,-996.24 660.73,-978.55 575.97,-962.58 559.68,-959.51 542.61,-956.28 525.65,-953.05"/>
<polygon fill="black" stroke="black" points="526.17,-949.59 515.69,-951.16 524.86,-956.47 526.17,-949.59"/>
</g>
<!-- n17 -->
<g id="node3" class="node">
<title>n17</title>
<ellipse fill="none" stroke="black" cx="770.97" cy="-925.1" rx="185.94" ry="37.45"/>
<text text-anchor="middle" x="770.97" y="-936.4" font-family="Times,serif" font-size="14.00">líderes</text>
<text text-anchor="middle" x="770.97" y="-921.4" font-family="Times,serif" font-size="14.00">nccp000 (nsubj)</text>
<text text-anchor="middle" x="770.97" y="-906.4" font-family="Times,serif" font-size="14.00">rep=no, t=no, r=no, m=yes, c=no</text>
</g>
<!-- n23&#45;&gt;n17 -->
<g id="edge2" class="edge">
<title>n23&#45;&gt;n17</title>
<path fill="none" stroke="black" d="M904.27,-1000.58C884.34,-989.45 862.1,-977.02 841.58,-965.56"/>
<polygon fill="black" stroke="black" points="843.04,-962.36 832.6,-960.54 839.62,-968.47 843.04,-962.36"/>
</g>
<!-- n24 -->
<g id="node4" class="node">
<title>n24</title>
<ellipse fill="none" stroke="black" cx="1160.97" cy="-925.1" rx="185.94" ry="37.45"/>
<text text-anchor="middle" x="1160.97" y="-936.4" font-family="Times,serif" font-size="14.00">a</text>
<text text-anchor="middle" x="1160.97" y="-921.4" font-family="Times,serif" font-size="14.00">sps00 (prepv)</text>
<text text-anchor="middle" x="1160.97" y="-906.4" font-family="Times,serif" font-size="14.00">rep=no, t=no, r=no, m=yes, c=no</text>
</g>
<!-- n23&#45;&gt;n24 -->
<g id="edge3" class="edge">
<title>n23&#45;&gt;n24</title>
<path fill="none" stroke="black" d="M1027.67,-1000.58C1047.59,-989.45 1069.84,-977.02 1090.35,-965.56"/>
<polygon fill="black" stroke="black" points="1092.31,-968.47 1099.34,-960.54 1088.9,-962.36 1092.31,-968.47"/>
</g>
<!-- n29 -->
<g id="node5" class="node">
<title>n29</title>
<ellipse fill="none" stroke="black" cx="1546.97" cy="-925.1" rx="181.95" ry="37.45"/>
<text text-anchor="middle" x="1546.97" y="-936.4" font-family="Times,serif" font-size="14.00">.</text>
<text text-anchor="middle" x="1546.97" y="-921.4" font-family="Times,serif" font-size="14.00">fp (punct)</text>
<text text-anchor="middle" x="1546.97" y="-906.4" font-family="Times,serif" font-size="14.00">rep=no, t=no, r=no, m=no, c=no</text>
</g>
<!-- n23&#45;&gt;n29 -->
<g id="edge4" class="edge">
<title>n23&#45;&gt;n29</title>
<path fill="none" stroke="black" d="M1100.92,-1010.15C1176.03,-996.24 1271.2,-978.55 1355.97,-962.58 1372.26,-959.51 1389.33,-956.28 1406.28,-953.05"/>
<polygon fill="black" stroke="black" points="1407.07,-956.47 1416.24,-951.16 1405.77,-949.59 1407.07,-956.47"/>
</g>
<!-- n16 -->
<g id="node6" class="node">
<title>n16</title>
<ellipse fill="none" stroke="black" cx="185.97" cy="-814.15" rx="185.94" ry="37.45"/>
<text text-anchor="middle" x="185.97" y="-825.45" font-family="Times,serif" font-size="14.00">los</text>
<text text-anchor="middle" x="185.97" y="-810.45" font-family="Times,serif" font-size="14.00">da0mp0 (det)</text>
<text text-anchor="middle" x="185.97" y="-795.45" font-family="Times,serif" font-size="14.00">rep=no, t=no, r=no, m=yes, c=no</text>
</g>
<!-- n17&#45;&gt;n16 -->
<g id="edge5" class="edge">
<title>n17&#45;&gt;n16</title>
<path fill="none" stroke="black" d="M637.23,-899.04C616.72,-895.21 595.78,-891.31 575.97,-887.63 489.32,-871.52 467.62,-867.73 380.97,-851.63 364.41,-848.55 347.06,-845.32 329.83,-842.1"/>
<polygon fill="black" stroke="black" points="330.18,-838.6 319.7,-840.21 328.89,-845.49 330.18,-838.6"/>
</g>
<!-- n19 -->
<g id="node7" class="node">
<title>n19</title>
<ellipse fill="none" stroke="black" cx="575.97" cy="-814.15" rx="185.94" ry="37.45"/>
<text text-anchor="middle" x="575.97" y="-825.45" font-family="Times,serif" font-size="14.00">extremistas</text>
<text text-anchor="middle" x="575.97" y="-810.45" font-family="Times,serif" font-size="14.00">aq0cp0 (amod)</text>
<text text-anchor="middle" x="575.97" y="-795.45" font-family="Times,serif" font-size="14.00">rep=no, t=no, r=no, m=yes, c=no</text>
</g>
<!-- n17&#45;&gt;n19 -->
<g id="edge6" class="edge">
<title>n17&#45;&gt;n19</title>
<path fill="none" stroke="black" d="M709.27,-889.63C689.34,-878.5 667.1,-866.07 646.58,-854.61"/>
<polygon fill="black" stroke="black" points="648.04,-851.41 637.6,-849.59 644.62,-857.52 648.04,-851.41"/>
</g>
<!-- n20 -->
<g id="node8" class="node">
<title>n20</title>
<ellipse fill="none" stroke="black" cx="965.97" cy="-814.15" rx="185.94" ry="37.45"/>
<text text-anchor="middle" x="965.97" y="-825.45" font-family="Times,serif" font-size="14.00">de</text>
<text text-anchor="middle" x="965.97" y="-810.45" font-family="Times,serif" font-size="14.00">sps00 (prepn)</text>
<text text-anchor="middle" x="965.97" y="-795.45" font-family="Times,serif" font-size="14.00">rep=no, t=no, r=no, m=yes, c=no</text>
</g>
<!-- n17&#45;&gt;n20 -->
<g id="edge7" class="edge">
<title>n17&#45;&gt;n20</title>
<path fill="none" stroke="black" d="M832.67,-889.63C852.59,-878.5 874.84,-866.07 895.35,-854.61"/>
<polygon fill="black" stroke="black" points="897.31,-857.52 904.34,-849.59 893.9,-851.41 897.31,-857.52"/>
</g>
<!-- n25 -->
<g id="node12" class="node">
<title>n25</title>
<ellipse fill="none" stroke="black" cx="1550.97" cy="-814.15" rx="185.94" ry="37.45"/>
<text text-anchor="middle" x="1550.97" y="-825.45" font-family="Times,serif" font-size="14.00">mostrar</text>
<text text-anchor="middle" x="1550.97" y="-810.45" font-family="Times,serif" font-size="14.00">vmn0000 (pobj)</text>
<text text-anchor="middle" x="1550.97" y="-795.45" font-family="Times,serif" font-size="14.00">rep=no, t=no, r=no, m=yes, c=no</text>
</g>
<!-- n24&#45;&gt;n25 -->
<g id="edge11" class="edge">
<title>n24&#45;&gt;n25</title>
<path fill="none" stroke="black" d="M1267.54,-894.33C1319.34,-879.86 1381.71,-862.43 1434.74,-847.62"/>
<polygon fill="black" stroke="black" points="1435.84,-850.95 1444.53,-844.89 1433.96,-844.21 1435.84,-850.95"/>
</g>
<!-- n18 -->
<g id="node9" class="node">
<title>n18</title>
<ellipse fill="none" stroke="black" cx="575.97" cy="-703.2" rx="185.94" ry="37.45"/>
<text text-anchor="middle" x="575.97" y="-714.5" font-family="Times,serif" font-size="14.00">más</text>
<text text-anchor="middle" x="575.97" y="-699.5" font-family="Times,serif" font-size="14.00">rg (advmod)</text>
<text text-anchor="middle" x="575.97" y="-684.5" font-family="Times,serif" font-size="14.00">rep=no, t=no, r=no, m=yes, c=no</text>
</g>
<!-- n19&#45;&gt;n18 -->
<g id="edge8" class="edge">
<title>n19&#45;&gt;n18</title>
<path fill="none" stroke="black" d="M575.97,-776.57C575.97,-768.39 575.97,-759.61 575.97,-751.09"/>
<polygon fill="black" stroke="black" points="579.47,-750.87 575.97,-740.87 572.47,-750.87 579.47,-750.87"/>
</g>
<!-- n22 -->
<g id="node10" class="node">
<title>n22</title>
<ellipse fill="none" stroke="black" cx="965.97" cy="-703.2" rx="185.94" ry="37.45"/>
<text text-anchor="middle" x="965.97" y="-714.5" font-family="Times,serif" font-size="14.00">colonos</text>
<text text-anchor="middle" x="965.97" y="-699.5" font-family="Times,serif" font-size="14.00">ncmp000 (pobj)</text>
<text text-anchor="middle" x="965.97" y="-684.5" font-family="Times,serif" font-size="14.00">rep=no, t=no, r=no, m=yes, c=no</text>
</g>
<!-- n20&#45;&gt;n22 -->
<g id="edge9" class="edge">
<title>n20&#45;&gt;n22</title>
<path fill="none" stroke="black" d="M965.97,-776.57C965.97,-768.39 965.97,-759.61 965.97,-751.09"/>
<polygon fill="black" stroke="black" points="969.47,-750.87 965.97,-740.87 962.47,-750.87 969.47,-750.87"/>
</g>
<!-- n21 -->
<g id="node11" class="node">
<title>n21</title>
<ellipse fill="none" stroke="black" cx="770.97" cy="-592.24" rx="185.94" ry="37.45"/>
<text text-anchor="middle" x="770.97" y="-603.54" font-family="Times,serif" font-size="14.00">los</text>
<text text-anchor="middle" x="770.97" y="-588.54" font-family="Times,serif" font-size="14.00">da0mp0 (det)</text>
<text text-anchor="middle" x="770.97" y="-573.54" font-family="Times,serif" font-size="14.00">rep=no, t=no, r=no, m=yes, c=no</text>
</g>
<!-- n22&#45;&gt;n21 -->
<g id="edge10" class="edge">
<title>n22&#45;&gt;n21</title>
<path fill="none" stroke="black" d="M904.27,-667.72C884.34,-656.59 862.1,-644.16 841.58,-632.7"/>
<polygon fill="black" stroke="black" points="843.04,-629.5 832.6,-627.68 839.62,-635.61 843.04,-629.5"/>
</g>
<!-- n3 -->
<g id="node13" class="node">
<title>n3</title>
<ellipse fill="none" stroke="black" cx="1550.97" cy="-703.2" rx="185.94" ry="37.45"/>
<text text-anchor="middle" x="1550.97" y="-714.5" font-family="Times,serif" font-size="14.00">acerca</text>
<text text-anchor="middle" x="1550.97" y="-699.5" font-family="Times,serif" font-size="14.00">vmip3s0 (dobj)</text>
<text text-anchor="middle" x="1550.97" y="-684.5" font-family="Times,serif" font-size="14.00">rep=no, t=no, r=no, m=yes, c=no</text>
</g>
<!-- n25&#45;&gt;n3 -->
<g id="edge12" class="edge">
<title>n25&#45;&gt;n3</title>
<path fill="none" stroke="black" d="M1550.97,-776.57C1550.97,-768.39 1550.97,-759.61 1550.97,-751.09"/>
<polygon fill="black" stroke="black" points="1554.47,-750.87 1550.97,-740.87 1547.47,-750.87 1554.47,-750.87"/>
</g>
<!-- n28 -->
<g id="node14" class="node">
<title>n28</title>
<ellipse fill="none" stroke="black" cx="2330.97" cy="-703.2" rx="185.94" ry="37.45"/>
<text text-anchor="middle" x="2330.97" y="-714.5" font-family="Times,serif" font-size="14.00">uñas</text>
<text text-anchor="middle" x="2330.97" y="-699.5" font-family="Times,serif" font-size="14.00">ncfp000 (dobj)</text>
<text text-anchor="middle" x="2330.97" y="-684.5" font-family="Times,serif" font-size="14.00">rep=no, t=no, r=no, m=yes, c=no</text>
</g>
<!-- n25&#45;&gt;n28 -->
<g id="edge13" class="edge">
<title>n25&#45;&gt;n28</title>
<path fill="none" stroke="black" d="M1701.82,-792.08C1836.3,-773.29 2032.56,-745.88 2170.02,-726.68"/>
<polygon fill="black" stroke="black" points="2170.8,-730.1 2180.22,-725.25 2169.84,-723.17 2170.8,-730.1"/>
</g>
<!-- n1 -->
<g id="node15" class="node">
<title>n1</title>
<ellipse fill="none" stroke="black" cx="1160.97" cy="-592.24" rx="185.94" ry="37.45"/>
<text text-anchor="middle" x="1160.97" y="-603.54" font-family="Times,serif" font-size="14.00">Conforme</text>
<text text-anchor="middle" x="1160.97" y="-588.54" font-family="Times,serif" font-size="14.00">rg (advmod)</text>
<text text-anchor="middle" x="1160.97" y="-573.54" font-family="Times,serif" font-size="14.00">rep=no, t=no, r=no, m=yes, c=no</text>
</g>
<!-- n3&#45;&gt;n1 -->
<g id="edge14" class="edge">
<title>n3&#45;&gt;n1</title>
<path fill="none" stroke="black" d="M1444.4,-672.42C1392.59,-657.95 1330.23,-640.53 1277.2,-625.71"/>
<polygon fill="black" stroke="black" points="1277.98,-622.3 1267.41,-622.98 1276.1,-629.04 1277.98,-622.3"/>
</g>
<!-- n2 -->
<g id="node16" class="node">
<title>n2</title>
<ellipse fill="none" stroke="black" cx="1550.97" cy="-592.24" rx="185.94" ry="37.45"/>
<text text-anchor="middle" x="1550.97" y="-603.54" font-family="Times,serif" font-size="14.00">se</text>
<text text-anchor="middle" x="1550.97" y="-588.54" font-family="Times,serif" font-size="14.00">p0300000 (reflec)</text>
<text text-anchor="middle" x="1550.97" y="-573.54" font-family="Times,serif" font-size="14.00">rep=no, t=no, r=no, m=yes, c=no</text>
</g>
<!-- n3&#45;&gt;n2 -->
<g id="edge15" class="edge">
<title>n3&#45;&gt;n2</title>
<path fill="none" stroke="black" d="M1550.97,-665.61C1550.97,-657.44 1550.97,-648.66 1550.97,-640.13"/>
<polygon fill="black" stroke="black" points="1554.47,-639.92 1550.97,-629.92 1547.47,-639.92 1554.47,-639.92"/>
</g>
<!-- n6 -->
<g id="node17" class="node">
<title>n6</title>
<ellipse fill="none" stroke="black" cx="1940.97" cy="-592.24" rx="185.94" ry="37.45"/>
<text text-anchor="middle" x="1940.97" y="-603.54" font-family="Times,serif" font-size="14.00">acuerdo</text>
<text text-anchor="middle" x="1940.97" y="-588.54" font-family="Times,serif" font-size="14.00">ncms000 (nsubj)</text>
<text text-anchor="middle" x="1940.97" y="-573.54" font-family="Times,serif" font-size="14.00">rep=no, t=no, r=no, m=yes, c=no</text>
</g>
<!-- n3&#45;&gt;n6 -->
<g id="edge16" class="edge">
<title>n3&#45;&gt;n6</title>
<path fill="none" stroke="black" d="M1657.54,-672.42C1709.34,-657.95 1771.71,-640.53 1824.74,-625.71"/>
<polygon fill="black" stroke="black" points="1825.84,-629.04 1834.53,-622.98 1823.96,-622.3 1825.84,-629.04"/>
</g>
<!-- n26 -->
<g id="node28" class="node">
<title>n26</title>
<ellipse fill="none" stroke="black" cx="2330.97" cy="-592.24" rx="185.94" ry="37.45"/>
<text text-anchor="middle" x="2330.97" y="-603.54" font-family="Times,serif" font-size="14.00">sus</text>
<text text-anchor="middle" x="2330.97" y="-588.54" font-family="Times,serif" font-size="14.00">dp3cp0 (poss)</text>
<text text-anchor="middle" x="2330.97" y="-573.54" font-family="Times,serif" font-size="14.00">rep=no, t=no, r=no, m=yes, c=no</text>
</g>
<!-- n28&#45;&gt;n26 -->
<g id="edge27" class="edge">
<title>n28&#45;&gt;n26</title>
<path fill="none" stroke="black" d="M2330.97,-665.61C2330.97,-657.44 2330.97,-648.66 2330.97,-640.13"/>
<polygon fill="black" stroke="black" points="2334.47,-639.92 2330.97,-629.92 2327.47,-639.92 2334.47,-639.92"/>
</g>
<!-- n27 -->
<g id="node29" class="node">
<title>n27</title>
<ellipse fill="none" stroke="black" cx="2720.97" cy="-592.24" rx="185.94" ry="37.45"/>
<text text-anchor="middle" x="2720.97" y="-603.54" font-family="Times,serif" font-size="14.00">afiladas</text>
<text text-anchor="middle" x="2720.97" y="-588.54" font-family="Times,serif" font-size="14.00">aq0fpp (amod)</text>
<text text-anchor="middle" x="2720.97" y="-573.54" font-family="Times,serif" font-size="14.00">rep=no, t=no, r=no, m=yes, c=no</text>
</g>
<!-- n28&#45;&gt;n27 -->
<g id="edge28" class="edge">
<title>n28&#45;&gt;n27</title>
<path fill="none" stroke="black" d="M2437.54,-672.42C2489.34,-657.95 2551.71,-640.53 2604.74,-625.71"/>
<polygon fill="black" stroke="black" points="2605.84,-629.04 2614.53,-622.98 2603.96,-622.3 2605.84,-629.04"/>
</g>
<!-- n4 -->
<g id="node18" class="node">
<title>n4</title>
<ellipse fill="none" stroke="black" cx="1550.97" cy="-481.29" rx="185.94" ry="37.45"/>
<text text-anchor="middle" x="1550.97" y="-492.59" font-family="Times,serif" font-size="14.00">un</text>
<text text-anchor="middle" x="1550.97" y="-477.59" font-family="Times,serif" font-size="14.00">di0ms0 (det)</text>
<text text-anchor="middle" x="1550.97" y="-462.59" font-family="Times,serif" font-size="14.00">rep=no, t=no, r=no, m=yes, c=no</text>
</g>
<!-- n6&#45;&gt;n4 -->
<g id="edge17" class="edge">
<title>n6&#45;&gt;n4</title>
<path fill="none" stroke="black" d="M1834.4,-561.47C1782.59,-547 1720.23,-529.57 1667.2,-514.76"/>
<polygon fill="black" stroke="black" points="1667.98,-511.35 1657.41,-512.03 1666.1,-518.09 1667.98,-511.35"/>
</g>
<!-- n5 -->
<g id="node19" class="node">
<title>n5</title>
<ellipse fill="none" stroke="black" cx="1940.97" cy="-481.29" rx="185.94" ry="37.45"/>
<text text-anchor="middle" x="1940.97" y="-492.59" font-family="Times,serif" font-size="14.00">posible</text>
<text text-anchor="middle" x="1940.97" y="-477.59" font-family="Times,serif" font-size="14.00">aq0cs0 (amod)</text>
<text text-anchor="middle" x="1940.97" y="-462.59" font-family="Times,serif" font-size="14.00">rep=no, t=no, r=no, m=yes, c=no</text>
</g>
<!-- n6&#45;&gt;n5 -->
<g id="edge18" class="edge">
<title>n6&#45;&gt;n5</title>
<path fill="none" stroke="black" d="M1940.97,-554.66C1940.97,-546.49 1940.97,-537.71 1940.97,-529.18"/>
<polygon fill="black" stroke="black" points="1944.47,-528.96 1940.97,-518.96 1937.47,-528.96 1944.47,-528.96"/>
</g>
<!-- n8 -->
<g id="node20" class="node">
<title>n8</title>
<ellipse fill="none" stroke="black" cx="2330.97" cy="-481.29" rx="185.94" ry="37.45"/>
<text text-anchor="middle" x="2330.97" y="-492.59" font-family="Times,serif" font-size="14.00">implique</text>
<text text-anchor="middle" x="2330.97" y="-477.59" font-family="Times,serif" font-size="14.00">vmsp3s0 (rcmod)</text>
<text text-anchor="middle" x="2330.97" y="-462.59" font-family="Times,serif" font-size="14.00">rep=no, t=no, r=no, m=yes, c=no</text>
</g>
<!-- n6&#45;&gt;n8 -->
<g id="edge19" class="edge">
<title>n6&#45;&gt;n8</title>
<path fill="none" stroke="black" d="M2047.54,-561.47C2099.34,-547 2161.71,-529.57 2214.74,-514.76"/>
<polygon fill="black" stroke="black" points="2215.84,-518.09 2224.53,-512.03 2213.96,-511.35 2215.84,-518.09"/>
</g>
<!-- n7 -->
<g id="node21" class="node">
<title>n7</title>
<ellipse fill="none" stroke="black" cx="2135.97" cy="-370.34" rx="185.94" ry="37.45"/>
<text text-anchor="middle" x="2135.97" y="-381.64" font-family="Times,serif" font-size="14.00">que</text>
<text text-anchor="middle" x="2135.97" y="-366.64" font-family="Times,serif" font-size="14.00">pr0cn000 (nsubj)</text>
<text text-anchor="middle" x="2135.97" y="-351.64" font-family="Times,serif" font-size="14.00">rep=no, t=no, r=no, m=yes, c=no</text>
</g>
<!-- n8&#45;&gt;n7 -->
<g id="edge20" class="edge">
<title>n8&#45;&gt;n7</title>
<path fill="none" stroke="black" d="M2269.27,-445.82C2249.34,-434.68 2227.1,-422.26 2206.58,-410.79"/>
<polygon fill="black" stroke="black" points="2208.04,-407.59 2197.6,-405.77 2204.62,-413.71 2208.04,-407.59"/>
</g>
<!-- n10 -->
<g id="node22" class="node">
<title>n10</title>
<ellipse fill="none" stroke="black" cx="2525.97" cy="-370.34" rx="185.94" ry="37.45"/>
<text text-anchor="middle" x="2525.97" y="-381.64" font-family="Times,serif" font-size="14.00">evacuación</text>
<text text-anchor="middle" x="2525.97" y="-366.64" font-family="Times,serif" font-size="14.00">ncfs000 (dobj)</text>
<text text-anchor="middle" x="2525.97" y="-351.64" font-family="Times,serif" font-size="14.00">rep=no, t=no, r=no, m=yes, c=no</text>
</g>
<!-- n8&#45;&gt;n10 -->
<g id="edge21" class="edge">
<title>n8&#45;&gt;n10</title>
<path fill="none" stroke="black" d="M2392.67,-445.82C2412.59,-434.68 2434.84,-422.26 2455.35,-410.79"/>
<polygon fill="black" stroke="black" points="2457.31,-413.71 2464.34,-405.77 2453.9,-407.59 2457.31,-413.71"/>
</g>
<!-- n9 -->
<g id="node23" class="node">
<title>n9</title>
<ellipse fill="none" stroke="black" cx="2330.97" cy="-259.38" rx="185.94" ry="37.45"/>
<text text-anchor="middle" x="2330.97" y="-270.68" font-family="Times,serif" font-size="14.00">la</text>
<text text-anchor="middle" x="2330.97" y="-255.68" font-family="Times,serif" font-size="14.00">da0fs0 (det)</text>
<text text-anchor="middle" x="2330.97" y="-240.68" font-family="Times,serif" font-size="14.00">rep=no, t=no, r=no, m=yes, c=no</text>
</g>
<!-- n10&#45;&gt;n9 -->
<g id="edge22" class="edge">
<title>n10&#45;&gt;n9</title>
<path fill="none" stroke="black" d="M2464.27,-334.86C2444.34,-323.73 2422.1,-311.3 2401.58,-299.84"/>
<polygon fill="black" stroke="black" points="2403.04,-296.64 2392.6,-294.82 2399.62,-302.75 2403.04,-296.64"/>
</g>
<!-- n11 -->
<g id="node24" class="node">
<title>n11</title>
<ellipse fill="none" stroke="black" cx="2720.97" cy="-259.38" rx="185.94" ry="37.45"/>
<text text-anchor="middle" x="2720.97" y="-270.68" font-family="Times,serif" font-size="14.00">de</text>
<text text-anchor="middle" x="2720.97" y="-255.68" font-family="Times,serif" font-size="14.00">sps00 (prepn)</text>
<text text-anchor="middle" x="2720.97" y="-240.68" font-family="Times,serif" font-size="14.00">rep=no, t=no, r=no, m=yes, c=no</text>
</g>
<!-- n10&#45;&gt;n11 -->
<g id="edge23" class="edge">
<title>n10&#45;&gt;n11</title>
<path fill="none" stroke="black" d="M2587.67,-334.86C2607.59,-323.73 2629.84,-311.3 2650.35,-299.84"/>
<polygon fill="black" stroke="black" points="2652.31,-302.75 2659.34,-294.82 2648.9,-296.64 2652.31,-302.75"/>
</g>
<!-- n13 -->
<g id="node25" class="node">
<title>n13</title>
<ellipse fill="none" stroke="black" cx="2720.97" cy="-148.43" rx="185.94" ry="37.45"/>
<text text-anchor="middle" x="2720.97" y="-159.73" font-family="Times,serif" font-size="14.00">asentamientos</text>
<text text-anchor="middle" x="2720.97" y="-144.73" font-family="Times,serif" font-size="14.00">ncmp000 (pobj)</text>
<text text-anchor="middle" x="2720.97" y="-129.73" font-family="Times,serif" font-size="14.00">rep=no, t=no, r=no, m=yes, c=no</text>
</g>
<!-- n11&#45;&gt;n13 -->
<g id="edge24" class="edge">
<title>n11&#45;&gt;n13</title>
<path fill="none" stroke="black" d="M2720.97,-221.8C2720.97,-213.63 2720.97,-204.85 2720.97,-196.32"/>
<polygon fill="black" stroke="black" points="2724.47,-196.1 2720.97,-186.1 2717.47,-196.1 2724.47,-196.1"/>
</g>
<!-- n12 -->
<g id="node26" class="node">
<title>n12</title>
<ellipse fill="none" stroke="black" cx="2525.97" cy="-37.48" rx="185.94" ry="37.45"/>
<text text-anchor="middle" x="2525.97" y="-48.78" font-family="Times,serif" font-size="14.00">los</text>
<text text-anchor="middle" x="2525.97" y="-33.78" font-family="Times,serif" font-size="14.00">da0mp0 (det)</text>
<text text-anchor="middle" x="2525.97" y="-18.78" font-family="Times,serif" font-size="14.00">rep=no, t=no, r=no, m=yes, c=no</text>
</g>
<!-- n13&#45;&gt;n12 -->
<g id="edge25" class="edge">
<title>n13&#45;&gt;n12</title>
<path fill="none" stroke="black" d="M2659.27,-112.96C2639.34,-101.82 2617.1,-89.4 2596.58,-77.93"/>
<polygon fill="black" stroke="black" points="2598.04,-74.74 2587.6,-72.91 2594.62,-80.85 2598.04,-74.74"/>
</g>
<!-- n14 -->
<g id="node27" class="node">
<title>n14</title>
<ellipse fill="none" stroke="black" cx="2915.97" cy="-37.48" rx="185.94" ry="37.45"/>
<text text-anchor="middle" x="2915.97" y="-48.78" font-family="Times,serif" font-size="14.00">judíos</text>
<text text-anchor="middle" x="2915.97" y="-33.78" font-family="Times,serif" font-size="14.00">aq0mp0 (amod)</text>
<text text-anchor="middle" x="2915.97" y="-18.78" font-family="Times,serif" font-size="14.00">rep=no, t=no, r=no, m=yes, c=no</text>
</g>
<!-- n13&#45;&gt;n14 -->
<g id="edge26" class="edge">
<title>n13&#45;&gt;n14</title>
<path fill="none" stroke="black" d="M2782.67,-112.96C2802.59,-101.82 2824.84,-89.4 2845.35,-77.93"/>
<polygon fill="black" stroke="black" points="2847.31,-80.85 2854.34,-72.91 2843.9,-74.74 2847.31,-80.85"/>
</g>
</g>
</svg>
