<?xml version="1.0" encoding="UTF-8" standalone="no"?>
<!DOCTYPE svg PUBLIC "-//W3C//DTD SVG 1.1//EN"
 "http://www.w3.org/Graphics/SVG/1.1/DTD/svg11.dtd">
<!-- Generated by graphviz version 2.43.0 (0)
 -->
<!-- Title: tree Pages: 1 -->
<svg width="4520pt" height="1082pt"
 viewBox="0.00 0.00 4519.89 1081.53" xmlns="http://www.w3.org/2000/svg" xmlns:xlink="http://www.w3.org/1999/xlink">
<g id="graph0" class="graph" transform="scale(1 1) rotate(0) translate(4 1077.53)">
<title>tree</title>
<polygon fill="white" stroke="transparent" points="-4,4 -4,-1077.53 4515.89,-1077.53 4515.89,4 -4,4"/>
<!-- n18 -->
<g id="node1" class="node">
<title>n18</title>
<ellipse fill="#98D2A5" stroke="black" cx="1875.92" cy="-1036.06" rx="185.94" ry="37.45"/>
<text text-anchor="middle" x="1875.92" y="-1047.36" font-family="Times,serif" font-size="14.00">,</text>
<text text-anchor="middle" x="1875.92" y="-1032.36" font-family="Times,serif" font-size="14.00">fc (root)</text>
<text text-anchor="middle" x="1875.92" y="-1017.36" font-family="Times,serif" font-size="14.00">rep=no, t=no, r=no, m=yes, c=no</text>
</g>
<!-- n2 -->
<g id="node2" class="node">
<title>n2</title>
<ellipse fill="none" stroke="black" cx="1294.92" cy="-925.1" rx="181.95" ry="37.45"/>
<text text-anchor="middle" x="1294.92" y="-936.4" font-family="Times,serif" font-size="14.00">,</text>
<text text-anchor="middle" x="1294.92" y="-921.4" font-family="Times,serif" font-size="14.00">fc (punct)</text>
<text text-anchor="middle" x="1294.92" y="-906.4" font-family="Times,serif" font-size="14.00">rep=no, t=no, r=no, m=no, c=no</text>
</g>
<!-- n18&#45;&gt;n2 -->
<g id="edge1" class="edge">
<title>n18&#45;&gt;n2</title>
<path fill="none" stroke="black" d="M1740.97,-1010.15C1665.86,-996.24 1570.68,-978.55 1485.92,-962.58 1469.63,-959.51 1452.56,-956.28 1435.6,-953.05"/>
<polygon fill="black" stroke="black" points="1436.12,-949.59 1425.64,-951.16 1434.81,-956.47 1436.12,-949.59"/>
</g>
<!-- n3 -->
<g id="node3" class="node">
<title>n3</title>
<ellipse fill="#98D2A5" stroke="black" cx="1680.92" cy="-925.1" rx="185.94" ry="37.45"/>
<text text-anchor="middle" x="1680.92" y="-936.4" font-family="Times,serif" font-size="14.00">si</text>
<text text-anchor="middle" x="1680.92" y="-921.4" font-family="Times,serif" font-size="14.00">cs (coord)</text>
<text text-anchor="middle" x="1680.92" y="-906.4" font-family="Times,serif" font-size="14.00">rep=no, t=no, r=no, m=yes, c=no</text>
</g>
<!-- n18&#45;&gt;n3 -->
<g id="edge2" class="edge">
<title>n18&#45;&gt;n3</title>
<path fill="none" stroke="black" d="M1814.22,-1000.58C1794.29,-989.45 1772.05,-977.02 1751.53,-965.56"/>
<polygon fill="black" stroke="black" points="1752.99,-962.36 1742.55,-960.54 1749.57,-968.47 1752.99,-962.36"/>
</g>
<!-- n21 -->
<g id="node4" class="node">
<title>n21</title>
<ellipse fill="#98D2A5" stroke="black" cx="2070.92" cy="-925.1" rx="185.94" ry="37.45"/>
<text text-anchor="middle" x="2070.92" y="-936.4" font-family="Times,serif" font-size="14.00">conciliar</text>
<text text-anchor="middle" x="2070.92" y="-921.4" font-family="Times,serif" font-size="14.00">vmn0000 (coord)</text>
<text text-anchor="middle" x="2070.92" y="-906.4" font-family="Times,serif" font-size="14.00">rep=no, t=no, r=no, m=yes, c=no</text>
</g>
<!-- n18&#45;&gt;n21 -->
<g id="edge3" class="edge">
<title>n18&#45;&gt;n21</title>
<path fill="none" stroke="black" d="M1937.62,-1000.58C1957.54,-989.45 1979.79,-977.02 2000.3,-965.56"/>
<polygon fill="black" stroke="black" points="2002.26,-968.47 2009.29,-960.54 1998.85,-962.36 2002.26,-968.47"/>
</g>
<!-- n38 -->
<g id="node5" class="node">
<title>n38</title>
<ellipse fill="none" stroke="black" cx="2456.92" cy="-925.1" rx="181.95" ry="37.45"/>
<text text-anchor="middle" x="2456.92" y="-936.4" font-family="Times,serif" font-size="14.00">.</text>
<text text-anchor="middle" x="2456.92" y="-921.4" font-family="Times,serif" font-size="14.00">fp (punct)</text>
<text text-anchor="middle" x="2456.92" y="-906.4" font-family="Times,serif" font-size="14.00">rep=no, t=no, r=no, m=no, c=no</text>
</g>
<!-- n18&#45;&gt;n38 -->
<g id="edge4" class="edge">
<title>n18&#45;&gt;n38</title>
<path fill="none" stroke="black" d="M2010.87,-1010.15C2085.98,-996.24 2181.15,-978.55 2265.92,-962.58 2282.21,-959.51 2299.28,-956.28 2316.23,-953.05"/>
<polygon fill="black" stroke="black" points="2317.02,-956.47 2326.19,-951.16 2315.72,-949.59 2317.02,-956.47"/>
</g>
<!-- n8 -->
<g id="node6" class="node">
<title>n8</title>
<ellipse fill="#98D2A5" stroke="black" cx="895.92" cy="-814.15" rx="190.84" ry="37.45"/>
<text text-anchor="middle" x="895.92" y="-825.45" font-family="Times,serif" font-size="14.00">es</text>
<text text-anchor="middle" x="895.92" y="-810.45" font-family="Times,serif" font-size="14.00">vsip3s0 (cobj)</text>
<text text-anchor="middle" x="895.92" y="-795.45" font-family="Times,serif" font-size="14.00">rep=no, t=no, r=yes, m=yes, c=no</text>
</g>
<!-- n3&#45;&gt;n8 -->
<g id="edge5" class="edge">
<title>n3&#45;&gt;n8</title>
<path fill="none" stroke="black" d="M1551.39,-898.13C1529.59,-894.26 1507.15,-890.59 1485.92,-887.63 1313.52,-863.6 1268.38,-875.27 1095.92,-851.63 1077.38,-849.09 1057.95,-846.03 1038.78,-842.79"/>
<polygon fill="black" stroke="black" points="1039.23,-839.32 1028.79,-841.08 1038.05,-846.22 1039.23,-839.32"/>
</g>
<!-- n1 -->
<g id="node20" class="node">
<title>n1</title>
<ellipse fill="#98D2A5" stroke="black" cx="1290.92" cy="-814.15" rx="185.94" ry="37.45"/>
<text text-anchor="middle" x="1290.92" y="-825.45" font-family="Times,serif" font-size="14.00">Pero</text>
<text text-anchor="middle" x="1290.92" y="-810.45" font-family="Times,serif" font-size="14.00">cc (coord_fixed)</text>
<text text-anchor="middle" x="1290.92" y="-795.45" font-family="Times,serif" font-size="14.00">rep=no, t=no, r=no, m=yes, c=no</text>
</g>
<!-- n21&#45;&gt;n1 -->
<g id="edge19" class="edge">
<title>n21&#45;&gt;n1</title>
<path fill="none" stroke="black" d="M1941.39,-898.13C1919.59,-894.26 1897.15,-890.59 1875.92,-887.63 1703.52,-863.6 1658.32,-875.66 1485.92,-851.63 1467.92,-849.12 1449.06,-846.09 1430.45,-842.87"/>
<polygon fill="black" stroke="black" points="1430.9,-839.4 1420.45,-841.12 1429.69,-846.29 1430.9,-839.4"/>
</g>
<!-- n19 -->
<g id="node21" class="node">
<title>n19</title>
<ellipse fill="#98D2A5" stroke="black" cx="1680.92" cy="-814.15" rx="185.94" ry="37.45"/>
<text text-anchor="middle" x="1680.92" y="-825.45" font-family="Times,serif" font-size="14.00">¿</text>
<text text-anchor="middle" x="1680.92" y="-810.45" font-family="Times,serif" font-size="14.00">fia (punct)</text>
<text text-anchor="middle" x="1680.92" y="-795.45" font-family="Times,serif" font-size="14.00">rep=no, t=no, r=no, m=yes, c=no</text>
</g>
<!-- n21&#45;&gt;n19 -->
<g id="edge20" class="edge">
<title>n21&#45;&gt;n19</title>
<path fill="none" stroke="black" d="M1964.35,-894.33C1912.54,-879.86 1850.17,-862.43 1797.15,-847.62"/>
<polygon fill="black" stroke="black" points="1797.93,-844.21 1787.36,-844.89 1796.05,-850.95 1797.93,-844.21"/>
</g>
<!-- n20 -->
<g id="node22" class="node">
<title>n20</title>
<ellipse fill="#98D2A5" stroke="black" cx="2070.92" cy="-814.15" rx="185.94" ry="37.45"/>
<text text-anchor="middle" x="2070.92" y="-825.45" font-family="Times,serif" font-size="14.00">cómo</text>
<text text-anchor="middle" x="2070.92" y="-810.45" font-family="Times,serif" font-size="14.00">pt000000 (dobj)</text>
<text text-anchor="middle" x="2070.92" y="-795.45" font-family="Times,serif" font-size="14.00">rep=no, t=no, r=no, m=yes, c=no</text>
</g>
<!-- n21&#45;&gt;n20 -->
<g id="edge21" class="edge">
<title>n21&#45;&gt;n20</title>
<path fill="none" stroke="black" d="M2070.92,-887.52C2070.92,-879.35 2070.92,-870.57 2070.92,-862.04"/>
<polygon fill="black" stroke="black" points="2074.42,-861.82 2070.92,-851.82 2067.42,-861.82 2074.42,-861.82"/>
</g>
<!-- n26 -->
<g id="node23" class="node">
<title>n26</title>
<ellipse fill="#98D2A5" stroke="black" cx="2460.92" cy="-814.15" rx="185.94" ry="37.45"/>
<text text-anchor="middle" x="2460.92" y="-825.45" font-family="Times,serif" font-size="14.00">derechos</text>
<text text-anchor="middle" x="2460.92" y="-810.45" font-family="Times,serif" font-size="14.00">ncmp000 (dobj)</text>
<text text-anchor="middle" x="2460.92" y="-795.45" font-family="Times,serif" font-size="14.00">rep=no, t=no, r=no, m=yes, c=no</text>
</g>
<!-- n21&#45;&gt;n26 -->
<g id="edge22" class="edge">
<title>n21&#45;&gt;n26</title>
<path fill="none" stroke="black" d="M2177.49,-894.33C2229.29,-879.86 2291.66,-862.43 2344.69,-847.62"/>
<polygon fill="black" stroke="black" points="2345.79,-850.95 2354.48,-844.89 2343.91,-844.21 2345.79,-850.95"/>
</g>
<!-- n30 -->
<g id="node24" class="node">
<title>n30</title>
<ellipse fill="#98D2A5" stroke="black" cx="2850.92" cy="-814.15" rx="185.94" ry="37.45"/>
<text text-anchor="middle" x="2850.92" y="-825.45" font-family="Times,serif" font-size="14.00">con</text>
<text text-anchor="middle" x="2850.92" y="-810.45" font-family="Times,serif" font-size="14.00">sps00 (prepv)</text>
<text text-anchor="middle" x="2850.92" y="-795.45" font-family="Times,serif" font-size="14.00">rep=no, t=no, r=no, m=yes, c=no</text>
</g>
<!-- n21&#45;&gt;n30 -->
<g id="edge23" class="edge">
<title>n21&#45;&gt;n30</title>
<path fill="none" stroke="black" d="M2200.45,-898.13C2222.25,-894.26 2244.68,-890.59 2265.92,-887.63 2438.32,-863.6 2483.52,-875.66 2655.92,-851.63 2673.92,-849.12 2692.78,-846.09 2711.39,-842.87"/>
<polygon fill="black" stroke="black" points="2712.15,-846.29 2721.39,-841.12 2710.94,-839.4 2712.15,-846.29"/>
</g>
<!-- n37 -->
<g id="node25" class="node">
<title>n37</title>
<ellipse fill="#98D2A5" stroke="black" cx="3240.92" cy="-814.15" rx="185.94" ry="37.45"/>
<text text-anchor="middle" x="3240.92" y="-825.45" font-family="Times,serif" font-size="14.00">?</text>
<text text-anchor="middle" x="3240.92" y="-810.45" font-family="Times,serif" font-size="14.00">fit (punct)</text>
<text text-anchor="middle" x="3240.92" y="-795.45" font-family="Times,serif" font-size="14.00">rep=no, t=no, r=no, m=yes, c=no</text>
</g>
<!-- n21&#45;&gt;n37 -->
<g id="edge24" class="edge">
<title>n21&#45;&gt;n37</title>
<path fill="none" stroke="black" d="M2197.98,-897.7C2220.53,-893.77 2243.85,-890.19 2265.92,-887.63 2610.64,-847.63 2701.2,-891.63 3045.92,-851.63 3064.71,-849.45 3084.41,-846.52 3103.77,-843.27"/>
<polygon fill="black" stroke="black" points="3104.59,-846.68 3113.86,-841.55 3103.41,-839.78 3104.59,-846.68"/>
</g>
<!-- n5 -->
<g id="node7" class="node">
<title>n5</title>
<ellipse fill="#98D2A5" stroke="black" cx="590.92" cy="-703.2" rx="190.84" ry="37.45"/>
<text text-anchor="middle" x="590.92" y="-714.5" font-family="Times,serif" font-size="14.00">agua</text>
<text text-anchor="middle" x="590.92" y="-699.5" font-family="Times,serif" font-size="14.00">ncfs000 (nsubj)</text>
<text text-anchor="middle" x="590.92" y="-684.5" font-family="Times,serif" font-size="14.00">rep=no, t=yes, r=no, m=yes, c=no</text>
</g>
<!-- n8&#45;&gt;n5 -->
<g id="edge6" class="edge">
<title>n8&#45;&gt;n5</title>
<path fill="none" stroke="black" d="M806.06,-781.05C769.85,-768.11 727.93,-753.14 690.77,-739.87"/>
<polygon fill="black" stroke="black" points="691.52,-736.42 680.93,-736.35 689.17,-743.01 691.52,-736.42"/>
</g>
<!-- n9 -->
<g id="node8" class="node">
<title>n9</title>
<ellipse fill="#98D2A5" stroke="black" cx="990.92" cy="-703.2" rx="190.84" ry="37.45"/>
<text text-anchor="middle" x="990.92" y="-714.5" font-family="Times,serif" font-size="14.00">imprescindible</text>
<text text-anchor="middle" x="990.92" y="-699.5" font-family="Times,serif" font-size="14.00">aq0cs0 (attr)</text>
<text text-anchor="middle" x="990.92" y="-684.5" font-family="Times,serif" font-size="14.00">rep=no, t=no, r=yes, m=yes, c=no</text>
</g>
<!-- n8&#45;&gt;n9 -->
<g id="edge7" class="edge">
<title>n8&#45;&gt;n9</title>
<path fill="none" stroke="black" d="M927.29,-777.17C935.39,-767.88 944.2,-757.77 952.62,-748.12"/>
<polygon fill="black" stroke="black" points="955.32,-750.35 959.26,-740.51 950.05,-745.75 955.32,-750.35"/>
</g>
<!-- n4 -->
<g id="node9" class="node">
<title>n4</title>
<ellipse fill="#98D2A5" stroke="black" cx="190.92" cy="-592.24" rx="190.84" ry="37.45"/>
<text text-anchor="middle" x="190.92" y="-603.54" font-family="Times,serif" font-size="14.00">el</text>
<text text-anchor="middle" x="190.92" y="-588.54" font-family="Times,serif" font-size="14.00">da0ms0 (det)</text>
<text text-anchor="middle" x="190.92" y="-573.54" font-family="Times,serif" font-size="14.00">rep=no, t=yes, r=no, m=yes, c=no</text>
</g>
<!-- n5&#45;&gt;n4 -->
<g id="edge8" class="edge">
<title>n5&#45;&gt;n4</title>
<path fill="none" stroke="black" d="M481.62,-672.42C428.48,-657.95 364.51,-640.53 310.12,-625.71"/>
<polygon fill="black" stroke="black" points="311,-622.32 300.44,-623.07 309.16,-629.08 311,-622.32"/>
</g>
<!-- n6 -->
<g id="node10" class="node">
<title>n6</title>
<ellipse fill="#98D2A5" stroke="black" cx="590.92" cy="-592.24" rx="190.84" ry="37.45"/>
<text text-anchor="middle" x="590.92" y="-603.54" font-family="Times,serif" font-size="14.00">del</text>
<text text-anchor="middle" x="590.92" y="-588.54" font-family="Times,serif" font-size="14.00">spcms (prepn)</text>
<text text-anchor="middle" x="590.92" y="-573.54" font-family="Times,serif" font-size="14.00">rep=no, t=yes, r=no, m=yes, c=no</text>
</g>
<!-- n5&#45;&gt;n6 -->
<g id="edge9" class="edge">
<title>n5&#45;&gt;n6</title>
<path fill="none" stroke="black" d="M590.92,-665.61C590.92,-657.44 590.92,-648.66 590.92,-640.13"/>
<polygon fill="black" stroke="black" points="594.42,-639.92 590.92,-629.92 587.42,-639.92 594.42,-639.92"/>
</g>
<!-- n10 -->
<g id="node12" class="node">
<title>n10</title>
<ellipse fill="#98D2A5" stroke="black" cx="990.92" cy="-592.24" rx="190.84" ry="37.45"/>
<text text-anchor="middle" x="990.92" y="-603.54" font-family="Times,serif" font-size="14.00">para</text>
<text text-anchor="middle" x="990.92" y="-588.54" font-family="Times,serif" font-size="14.00">sps00 (prepa)</text>
<text text-anchor="middle" x="990.92" y="-573.54" font-family="Times,serif" font-size="14.00">rep=no, t=no, r=yes, m=yes, c=no</text>
</g>
<!-- n9&#45;&gt;n10 -->
<g id="edge11" class="edge">
<title>n9&#45;&gt;n10</title>
<path fill="none" stroke="black" d="M990.92,-665.61C990.92,-657.44 990.92,-648.66 990.92,-640.13"/>
<polygon fill="black" stroke="black" points="994.42,-639.92 990.92,-629.92 987.42,-639.92 994.42,-639.92"/>
</g>
<!-- n7 -->
<g id="node11" class="node">
<title>n7</title>
<ellipse fill="#98D2A5" stroke="black" cx="590.92" cy="-481.29" rx="190.84" ry="37.45"/>
<text text-anchor="middle" x="590.92" y="-492.59" font-family="Times,serif" font-size="14.00">Ebro</text>
<text text-anchor="middle" x="590.92" y="-477.59" font-family="Times,serif" font-size="14.00">np00000 (pobj)</text>
<text text-anchor="middle" x="590.92" y="-462.59" font-family="Times,serif" font-size="14.00">rep=no, t=yes, r=no, m=yes, c=no</text>
</g>
<!-- n6&#45;&gt;n7 -->
<g id="edge10" class="edge">
<title>n6&#45;&gt;n7</title>
<path fill="none" stroke="black" d="M590.92,-554.66C590.92,-546.49 590.92,-537.71 590.92,-529.18"/>
<polygon fill="black" stroke="black" points="594.42,-528.96 590.92,-518.96 587.42,-528.96 594.42,-528.96"/>
</g>
<!-- n12 -->
<g id="node13" class="node">
<title>n12</title>
<ellipse fill="#98D2A5" stroke="black" cx="990.92" cy="-481.29" rx="190.84" ry="37.45"/>
<text text-anchor="middle" x="990.92" y="-492.59" font-family="Times,serif" font-size="14.00">desarrollo</text>
<text text-anchor="middle" x="990.92" y="-477.59" font-family="Times,serif" font-size="14.00">ncms000 (pobj)</text>
<text text-anchor="middle" x="990.92" y="-462.59" font-family="Times,serif" font-size="14.00">rep=no, t=no, r=yes, m=yes, c=no</text>
</g>
<!-- n10&#45;&gt;n12 -->
<g id="edge12" class="edge">
<title>n10&#45;&gt;n12</title>
<path fill="none" stroke="black" d="M990.92,-554.66C990.92,-546.49 990.92,-537.71 990.92,-529.18"/>
<polygon fill="black" stroke="black" points="994.42,-528.96 990.92,-518.96 987.42,-528.96 994.42,-528.96"/>
</g>
<!-- n11 -->
<g id="node14" class="node">
<title>n11</title>
<ellipse fill="#98D2A5" stroke="black" cx="790.92" cy="-370.34" rx="190.84" ry="37.45"/>
<text text-anchor="middle" x="790.92" y="-381.64" font-family="Times,serif" font-size="14.00">el</text>
<text text-anchor="middle" x="790.92" y="-366.64" font-family="Times,serif" font-size="14.00">da0ms0 (det)</text>
<text text-anchor="middle" x="790.92" y="-351.64" font-family="Times,serif" font-size="14.00">rep=no, t=no, r=yes, m=yes, c=no</text>
</g>
<!-- n12&#45;&gt;n11 -->
<g id="edge13" class="edge">
<title>n12&#45;&gt;n11</title>
<path fill="none" stroke="black" d="M927.64,-445.82C907.11,-434.63 884.18,-422.14 863.06,-410.64"/>
<polygon fill="black" stroke="black" points="864.59,-407.48 854.13,-405.77 861.24,-413.63 864.59,-407.48"/>
</g>
<!-- n13 -->
<g id="node15" class="node">
<title>n13</title>
<ellipse fill="#98D2A5" stroke="black" cx="1190.92" cy="-370.34" rx="190.84" ry="37.45"/>
<text text-anchor="middle" x="1190.92" y="-381.64" font-family="Times,serif" font-size="14.00">de</text>
<text text-anchor="middle" x="1190.92" y="-366.64" font-family="Times,serif" font-size="14.00">sps00 (prepn)</text>
<text text-anchor="middle" x="1190.92" y="-351.64" font-family="Times,serif" font-size="14.00">rep=no, t=no, r=yes, m=yes, c=no</text>
</g>
<!-- n12&#45;&gt;n13 -->
<g id="edge14" class="edge">
<title>n12&#45;&gt;n13</title>
<path fill="none" stroke="black" d="M1054.2,-445.82C1074.73,-434.63 1097.65,-422.14 1118.78,-410.64"/>
<polygon fill="black" stroke="black" points="1120.6,-413.63 1127.71,-405.77 1117.25,-407.48 1120.6,-413.63"/>
</g>
<!-- n15 -->
<g id="node16" class="node">
<title>n15</title>
<ellipse fill="#98D2A5" stroke="black" cx="1190.92" cy="-259.38" rx="190.84" ry="37.45"/>
<text text-anchor="middle" x="1190.92" y="-270.68" font-family="Times,serif" font-size="14.00">comunidades</text>
<text text-anchor="middle" x="1190.92" y="-255.68" font-family="Times,serif" font-size="14.00">ncfp000 (pobj)</text>
<text text-anchor="middle" x="1190.92" y="-240.68" font-family="Times,serif" font-size="14.00">rep=no, t=no, r=yes, m=yes, c=no</text>
</g>
<!-- n13&#45;&gt;n15 -->
<g id="edge15" class="edge">
<title>n13&#45;&gt;n15</title>
<path fill="none" stroke="black" d="M1190.92,-332.75C1190.92,-324.58 1190.92,-315.8 1190.92,-307.27"/>
<polygon fill="black" stroke="black" points="1194.42,-307.06 1190.92,-297.06 1187.42,-307.06 1194.42,-307.06"/>
</g>
<!-- n14 -->
<g id="node17" class="node">
<title>n14</title>
<ellipse fill="#98D2A5" stroke="black" cx="993.92" cy="-148.43" rx="190.84" ry="37.45"/>
<text text-anchor="middle" x="993.92" y="-159.73" font-family="Times,serif" font-size="14.00">las</text>
<text text-anchor="middle" x="993.92" y="-144.73" font-family="Times,serif" font-size="14.00">da0fp0 (det)</text>
<text text-anchor="middle" x="993.92" y="-129.73" font-family="Times,serif" font-size="14.00">rep=no, t=no, r=yes, m=yes, c=no</text>
</g>
<!-- n15&#45;&gt;n14 -->
<g id="edge16" class="edge">
<title>n15&#45;&gt;n14</title>
<path fill="none" stroke="black" d="M1128.59,-223.91C1108.37,-212.73 1085.79,-200.24 1064.98,-188.73"/>
<polygon fill="black" stroke="black" points="1066.63,-185.64 1056.18,-183.87 1063.24,-191.77 1066.63,-185.64"/>
</g>
<!-- n17 -->
<g id="node18" class="node">
<title>n17</title>
<ellipse fill="#98D2A5" stroke="black" cx="1388.92" cy="-148.43" rx="185.94" ry="37.45"/>
<text text-anchor="middle" x="1388.92" y="-159.73" font-family="Times,serif" font-size="14.00">riega</text>
<text text-anchor="middle" x="1388.92" y="-144.73" font-family="Times,serif" font-size="14.00">vmip3s0 (rcmod)</text>
<text text-anchor="middle" x="1388.92" y="-129.73" font-family="Times,serif" font-size="14.00">rep=no, t=no, r=no, m=yes, c=no</text>
</g>
<!-- n15&#45;&gt;n17 -->
<g id="edge17" class="edge">
<title>n15&#45;&gt;n17</title>
<path fill="none" stroke="black" d="M1253.57,-223.91C1273.89,-212.73 1296.59,-200.24 1317.5,-188.73"/>
<polygon fill="black" stroke="black" points="1319.26,-191.75 1326.34,-183.87 1315.89,-185.62 1319.26,-191.75"/>
</g>
<!-- n16 -->
<g id="node19" class="node">
<title>n16</title>
<ellipse fill="#98D2A5" stroke="black" cx="1388.92" cy="-37.48" rx="185.94" ry="37.45"/>
<text text-anchor="middle" x="1388.92" y="-48.78" font-family="Times,serif" font-size="14.00">que</text>
<text text-anchor="middle" x="1388.92" y="-33.78" font-family="Times,serif" font-size="14.00">pr0cn000 (dobj)</text>
<text text-anchor="middle" x="1388.92" y="-18.78" font-family="Times,serif" font-size="14.00">rep=no, t=no, r=no, m=yes, c=no</text>
</g>
<!-- n17&#45;&gt;n16 -->
<g id="edge18" class="edge">
<title>n17&#45;&gt;n16</title>
<path fill="none" stroke="black" d="M1388.92,-110.85C1388.92,-102.67 1388.92,-93.89 1388.92,-85.37"/>
<polygon fill="black" stroke="black" points="1392.42,-85.15 1388.92,-75.15 1385.42,-85.15 1392.42,-85.15"/>
</g>
<!-- n22 -->
<g id="node26" class="node">
<title>n22</title>
<ellipse fill="#98D2A5" stroke="black" cx="1575.92" cy="-703.2" rx="185.94" ry="37.45"/>
<text text-anchor="middle" x="1575.92" y="-714.5" font-family="Times,serif" font-size="14.00">los</text>
<text text-anchor="middle" x="1575.92" y="-699.5" font-family="Times,serif" font-size="14.00">da0mp0 (det)</text>
<text text-anchor="middle" x="1575.92" y="-684.5" font-family="Times,serif" font-size="14.00">rep=no, t=no, r=no, m=yes, c=no</text>
</g>
<!-- n26&#45;&gt;n22 -->
<g id="edge25" class="edge">
<title>n26&#45;&gt;n22</title>
<path fill="none" stroke="black" d="M2332.49,-787.01C2310.35,-783.11 2287.52,-779.47 2265.92,-776.67 2047.16,-748.35 1989.67,-769 1770.92,-740.67 1752.52,-738.29 1733.23,-735.3 1714.25,-732.05"/>
<polygon fill="black" stroke="black" points="1714.8,-728.6 1704.35,-730.34 1713.6,-735.49 1714.8,-728.6"/>
</g>
<!-- n23 -->
<g id="node27" class="node">
<title>n23</title>
<ellipse fill="#98D2A5" stroke="black" cx="1970.92" cy="-703.2" rx="190.84" ry="37.45"/>
<text text-anchor="middle" x="1970.92" y="-714.5" font-family="Times,serif" font-size="14.00">legítimos</text>
<text text-anchor="middle" x="1970.92" y="-699.5" font-family="Times,serif" font-size="14.00">aq0mp0 (dep)</text>
<text text-anchor="middle" x="1970.92" y="-684.5" font-family="Times,serif" font-size="14.00">rep=no, t=no, r=no, m=yes, c=yes</text>
</g>
<!-- n26&#45;&gt;n23 -->
<g id="edge26" class="edge">
<title>n26&#45;&gt;n23</title>
<path fill="none" stroke="black" d="M2338.22,-785.87C2267.28,-770.09 2177.95,-750.23 2105.15,-734.04"/>
<polygon fill="black" stroke="black" points="2105.51,-730.54 2094.99,-731.78 2103.99,-737.37 2105.51,-730.54"/>
</g>
<!-- n24 -->
<g id="node28" class="node">
<title>n24</title>
<ellipse fill="#98D2A5" stroke="black" cx="2365.92" cy="-703.2" rx="185.94" ry="37.45"/>
<text text-anchor="middle" x="2365.92" y="-714.5" font-family="Times,serif" font-size="14.00">y</text>
<text text-anchor="middle" x="2365.92" y="-699.5" font-family="Times,serif" font-size="14.00">cc (coord_fixed)</text>
<text text-anchor="middle" x="2365.92" y="-684.5" font-family="Times,serif" font-size="14.00">rep=no, t=no, r=no, m=yes, c=no</text>
</g>
<!-- n26&#45;&gt;n24 -->
<g id="edge27" class="edge">
<title>n26&#45;&gt;n24</title>
<path fill="none" stroke="black" d="M2429.55,-777.17C2421.45,-767.88 2412.63,-757.77 2404.22,-748.12"/>
<polygon fill="black" stroke="black" points="2406.79,-745.75 2397.58,-740.51 2401.51,-750.35 2406.79,-745.75"/>
</g>
<!-- n25 -->
<g id="node29" class="node">
<title>n25</title>
<ellipse fill="#98D2A5" stroke="black" cx="2760.92" cy="-703.2" rx="190.84" ry="37.45"/>
<text text-anchor="middle" x="2760.92" y="-714.5" font-family="Times,serif" font-size="14.00">comprensibles</text>
<text text-anchor="middle" x="2760.92" y="-699.5" font-family="Times,serif" font-size="14.00">aq0cp0 (dep)</text>
<text text-anchor="middle" x="2760.92" y="-684.5" font-family="Times,serif" font-size="14.00">rep=no, t=no, r=no, m=yes, c=yes</text>
</g>
<!-- n26&#45;&gt;n25 -->
<g id="edge28" class="edge">
<title>n26&#45;&gt;n25</title>
<path fill="none" stroke="black" d="M2549.31,-781.05C2584.85,-768.14 2625.97,-753.21 2662.46,-739.95"/>
<polygon fill="black" stroke="black" points="2663.92,-743.15 2672.13,-736.44 2661.53,-736.57 2663.92,-743.15"/>
</g>
<!-- n27 -->
<g id="node30" class="node">
<title>n27</title>
<ellipse fill="#98D2A5" stroke="black" cx="3155.92" cy="-703.2" rx="185.94" ry="37.45"/>
<text text-anchor="middle" x="3155.92" y="-714.5" font-family="Times,serif" font-size="14.00">del</text>
<text text-anchor="middle" x="3155.92" y="-699.5" font-family="Times,serif" font-size="14.00">spcms (prepn)</text>
<text text-anchor="middle" x="3155.92" y="-684.5" font-family="Times,serif" font-size="14.00">rep=no, t=no, r=no, m=yes, c=no</text>
</g>
<!-- n26&#45;&gt;n27 -->
<g id="edge29" class="edge">
<title>n26&#45;&gt;n27</title>
<path fill="none" stroke="black" d="M2591.56,-787.46C2613.03,-783.6 2635.06,-779.85 2655.92,-776.67 2790.86,-756.11 2825.98,-761.23 2960.92,-740.67 2978.51,-737.99 2996.95,-734.91 3015.18,-731.69"/>
<polygon fill="black" stroke="black" points="3016.04,-735.09 3025.27,-729.89 3014.81,-728.2 3016.04,-735.09"/>
</g>
<!-- n32 -->
<g id="node33" class="node">
<title>n32</title>
<ellipse fill="#98D2A5" stroke="black" cx="3545.92" cy="-703.2" rx="185.94" ry="37.45"/>
<text text-anchor="middle" x="3545.92" y="-714.5" font-family="Times,serif" font-size="14.00">de</text>
<text text-anchor="middle" x="3545.92" y="-699.5" font-family="Times,serif" font-size="14.00">sps00 (pobj)</text>
<text text-anchor="middle" x="3545.92" y="-684.5" font-family="Times,serif" font-size="14.00">rep=no, t=no, r=no, m=yes, c=no</text>
</g>
<!-- n30&#45;&gt;n32 -->
<g id="edge32" class="edge">
<title>n30&#45;&gt;n32</title>
<path fill="none" stroke="black" d="M2981.56,-787.46C3003.03,-783.6 3025.06,-779.85 3045.92,-776.67 3180.86,-756.11 3215.98,-761.23 3350.92,-740.67 3368.51,-737.99 3386.95,-734.91 3405.18,-731.69"/>
<polygon fill="black" stroke="black" points="3406.04,-735.09 3415.27,-729.89 3404.81,-728.2 3406.04,-735.09"/>
</g>
<!-- n28 -->
<g id="node31" class="node">
<title>n28</title>
<ellipse fill="#98D2A5" stroke="black" cx="3155.92" cy="-592.24" rx="185.94" ry="37.45"/>
<text text-anchor="middle" x="3155.92" y="-603.54" font-family="Times,serif" font-size="14.00">Gobierno</text>
<text text-anchor="middle" x="3155.92" y="-588.54" font-family="Times,serif" font-size="14.00">np00000 (pobj)</text>
<text text-anchor="middle" x="3155.92" y="-573.54" font-family="Times,serif" font-size="14.00">rep=no, t=no, r=no, m=yes, c=no</text>
</g>
<!-- n27&#45;&gt;n28 -->
<g id="edge30" class="edge">
<title>n27&#45;&gt;n28</title>
<path fill="none" stroke="black" d="M3155.92,-665.61C3155.92,-657.44 3155.92,-648.66 3155.92,-640.13"/>
<polygon fill="black" stroke="black" points="3159.42,-639.92 3155.92,-629.92 3152.42,-639.92 3159.42,-639.92"/>
</g>
<!-- n29 -->
<g id="node32" class="node">
<title>n29</title>
<ellipse fill="#98D2A5" stroke="black" cx="3155.92" cy="-481.29" rx="185.94" ry="37.45"/>
<text text-anchor="middle" x="3155.92" y="-492.59" font-family="Times,serif" font-size="14.00">aragonés</text>
<text text-anchor="middle" x="3155.92" y="-477.59" font-family="Times,serif" font-size="14.00">aq0ms0 (amod)</text>
<text text-anchor="middle" x="3155.92" y="-462.59" font-family="Times,serif" font-size="14.00">rep=no, t=no, r=no, m=yes, c=no</text>
</g>
<!-- n28&#45;&gt;n29 -->
<g id="edge31" class="edge">
<title>n28&#45;&gt;n29</title>
<path fill="none" stroke="black" d="M3155.92,-554.66C3155.92,-546.49 3155.92,-537.71 3155.92,-529.18"/>
<polygon fill="black" stroke="black" points="3159.42,-528.96 3155.92,-518.96 3152.42,-528.96 3159.42,-528.96"/>
</g>
<!-- n31 -->
<g id="node34" class="node">
<title>n31</title>
<ellipse fill="#98D2A5" stroke="black" cx="3545.92" cy="-592.24" rx="185.94" ry="37.45"/>
<text text-anchor="middle" x="3545.92" y="-603.54" font-family="Times,serif" font-size="14.00">los</text>
<text text-anchor="middle" x="3545.92" y="-588.54" font-family="Times,serif" font-size="14.00">da0mp0 (pobj)</text>
<text text-anchor="middle" x="3545.92" y="-573.54" font-family="Times,serif" font-size="14.00">rep=no, t=no, r=no, m=yes, c=no</text>
</g>
<!-- n32&#45;&gt;n31 -->
<g id="edge33" class="edge">
<title>n32&#45;&gt;n31</title>
<path fill="none" stroke="black" d="M3545.92,-665.61C3545.92,-657.44 3545.92,-648.66 3545.92,-640.13"/>
<polygon fill="black" stroke="black" points="3549.42,-639.92 3545.92,-629.92 3542.42,-639.92 3549.42,-639.92"/>
</g>
<!-- n35 -->
<g id="node35" class="node">
<title>n35</title>
<ellipse fill="#98D2A5" stroke="black" cx="3935.92" cy="-592.24" rx="185.94" ry="37.45"/>
<text text-anchor="middle" x="3935.92" y="-603.54" font-family="Times,serif" font-size="14.00">autonomías</text>
<text text-anchor="middle" x="3935.92" y="-588.54" font-family="Times,serif" font-size="14.00">ncfp000 (pobj)</text>
<text text-anchor="middle" x="3935.92" y="-573.54" font-family="Times,serif" font-size="14.00">rep=no, t=no, r=no, m=yes, c=no</text>
</g>
<!-- n32&#45;&gt;n35 -->
<g id="edge34" class="edge">
<title>n32&#45;&gt;n35</title>
<path fill="none" stroke="black" d="M3652.49,-672.42C3704.29,-657.95 3766.66,-640.53 3819.69,-625.71"/>
<polygon fill="black" stroke="black" points="3820.79,-629.04 3829.48,-622.98 3818.91,-622.3 3820.79,-629.04"/>
</g>
<!-- n33 -->
<g id="node36" class="node">
<title>n33</title>
<ellipse fill="#98D2A5" stroke="black" cx="3545.92" cy="-481.29" rx="185.94" ry="37.45"/>
<text text-anchor="middle" x="3545.92" y="-492.59" font-family="Times,serif" font-size="14.00">las</text>
<text text-anchor="middle" x="3545.92" y="-477.59" font-family="Times,serif" font-size="14.00">da0fp0 (det)</text>
<text text-anchor="middle" x="3545.92" y="-462.59" font-family="Times,serif" font-size="14.00">rep=no, t=no, r=no, m=yes, c=no</text>
</g>
<!-- n35&#45;&gt;n33 -->
<g id="edge35" class="edge">
<title>n35&#45;&gt;n33</title>
<path fill="none" stroke="black" d="M3829.35,-561.47C3777.54,-547 3715.17,-529.57 3662.15,-514.76"/>
<polygon fill="black" stroke="black" points="3662.93,-511.35 3652.36,-512.03 3661.05,-518.09 3662.93,-511.35"/>
</g>
<!-- n34 -->
<g id="node37" class="node">
<title>n34</title>
<ellipse fill="#98D2A5" stroke="black" cx="3935.92" cy="-481.29" rx="185.94" ry="37.45"/>
<text text-anchor="middle" x="3935.92" y="-492.59" font-family="Times,serif" font-size="14.00">otras</text>
<text text-anchor="middle" x="3935.92" y="-477.59" font-family="Times,serif" font-size="14.00">di0fp0 (det)</text>
<text text-anchor="middle" x="3935.92" y="-462.59" font-family="Times,serif" font-size="14.00">rep=no, t=no, r=no, m=yes, c=no</text>
</g>
<!-- n35&#45;&gt;n34 -->
<g id="edge36" class="edge">
<title>n35&#45;&gt;n34</title>
<path fill="none" stroke="black" d="M3935.92,-554.66C3935.92,-546.49 3935.92,-537.71 3935.92,-529.18"/>
<polygon fill="black" stroke="black" points="3939.42,-528.96 3935.92,-518.96 3932.42,-528.96 3939.42,-528.96"/>
</g>
<!-- n36 -->
<g id="node38" class="node">
<title>n36</title>
<ellipse fill="#98D2A5" stroke="black" cx="4325.92" cy="-481.29" rx="185.94" ry="37.45"/>
<text text-anchor="middle" x="4325.92" y="-492.59" font-family="Times,serif" font-size="14.00">sedientas</text>
<text text-anchor="middle" x="4325.92" y="-477.59" font-family="Times,serif" font-size="14.00">aq0fp0 (amod)</text>
<text text-anchor="middle" x="4325.92" y="-462.59" font-family="Times,serif" font-size="14.00">rep=no, t=no, r=no, m=yes, c=no</text>
</g>
<!-- n35&#45;&gt;n36 -->
<g id="edge37" class="edge">
<title>n35&#45;&gt;n36</title>
<path fill="none" stroke="black" d="M4042.49,-561.47C4094.29,-547 4156.66,-529.57 4209.69,-514.76"/>
<polygon fill="black" stroke="black" points="4210.79,-518.09 4219.48,-512.03 4208.91,-511.35 4210.79,-518.09"/>
</g>
</g>
</svg>
