<?xml version="1.0" encoding="UTF-8" standalone="no"?>
<!DOCTYPE svg PUBLIC "-//W3C//DTD SVG 1.1//EN"
 "http://www.w3.org/Graphics/SVG/1.1/DTD/svg11.dtd">
<!-- Generated by graphviz version 2.43.0 (0)
 -->
<!-- Title: tree Pages: 1 -->
<svg width="5375pt" height="971pt"
 viewBox="0.00 0.00 5374.89 970.58" xmlns="http://www.w3.org/2000/svg" xmlns:xlink="http://www.w3.org/1999/xlink">
<g id="graph0" class="graph" transform="scale(1 1) rotate(0) translate(4 966.58)">
<title>tree</title>
<polygon fill="white" stroke="transparent" points="-4,4 -4,-966.58 5370.89,-966.58 5370.89,4 -4,4"/>
<!-- n36 -->
<g id="node1" class="node">
<title>n36</title>
<ellipse fill="#98D2A5" stroke="black" cx="4595.92" cy="-925.1" rx="185.94" ry="37.45"/>
<text text-anchor="middle" x="4595.92" y="-936.4" font-family="Times,serif" font-size="14.00">pero</text>
<text text-anchor="middle" x="4595.92" y="-921.4" font-family="Times,serif" font-size="14.00">cc (root)</text>
<text text-anchor="middle" x="4595.92" y="-906.4" font-family="Times,serif" font-size="14.00">rep=no, t=no, r=no, m=yes, c=no</text>
</g>
<!-- n25 -->
<g id="node2" class="node">
<title>n25</title>
<ellipse fill="#98D2A5" stroke="black" cx="3385.92" cy="-814.15" rx="190.84" ry="37.45"/>
<text text-anchor="middle" x="3385.92" y="-825.45" font-family="Times,serif" font-size="14.00">puede</text>
<text text-anchor="middle" x="3385.92" y="-810.45" font-family="Times,serif" font-size="14.00">vmip3s0 (coord)</text>
<text text-anchor="middle" x="3385.92" y="-795.45" font-family="Times,serif" font-size="14.00">rep=no, t=no, r=yes, m=yes, c=no</text>
</g>
<!-- n36&#45;&gt;n25 -->
<g id="edge1" class="edge">
<title>n36&#45;&gt;n25</title>
<path fill="none" stroke="black" d="M4427.99,-908.98C4201.89,-888.62 3801.13,-852.54 3568,-831.55"/>
<polygon fill="black" stroke="black" points="3567.99,-828.03 3557.72,-830.62 3567.36,-835 3567.99,-828.03"/>
</g>
<!-- n40 -->
<g id="node3" class="node">
<title>n40</title>
<ellipse fill="#98D2A5" stroke="black" cx="4595.92" cy="-814.15" rx="185.94" ry="37.45"/>
<text text-anchor="middle" x="4595.92" y="-825.45" font-family="Times,serif" font-size="14.00">puede</text>
<text text-anchor="middle" x="4595.92" y="-810.45" font-family="Times,serif" font-size="14.00">vmip3s0 (coord)</text>
<text text-anchor="middle" x="4595.92" y="-795.45" font-family="Times,serif" font-size="14.00">rep=no, t=no, r=no, m=yes, c=no</text>
</g>
<!-- n36&#45;&gt;n40 -->
<g id="edge2" class="edge">
<title>n36&#45;&gt;n40</title>
<path fill="none" stroke="black" d="M4595.92,-887.52C4595.92,-879.35 4595.92,-870.57 4595.92,-862.04"/>
<polygon fill="black" stroke="black" points="4599.42,-861.82 4595.92,-851.82 4592.42,-861.82 4599.42,-861.82"/>
</g>
<!-- n47 -->
<g id="node4" class="node">
<title>n47</title>
<ellipse fill="none" stroke="black" cx="4981.92" cy="-814.15" rx="181.95" ry="37.45"/>
<text text-anchor="middle" x="4981.92" y="-825.45" font-family="Times,serif" font-size="14.00">.</text>
<text text-anchor="middle" x="4981.92" y="-810.45" font-family="Times,serif" font-size="14.00">fp (punct)</text>
<text text-anchor="middle" x="4981.92" y="-795.45" font-family="Times,serif" font-size="14.00">rep=no, t=no, r=no, m=no, c=no</text>
</g>
<!-- n36&#45;&gt;n47 -->
<g id="edge3" class="edge">
<title>n36&#45;&gt;n47</title>
<path fill="none" stroke="black" d="M4701.65,-894.26C4752.92,-879.79 4814.6,-862.38 4867.03,-847.58"/>
<polygon fill="black" stroke="black" points="4868.03,-850.93 4876.7,-844.85 4866.13,-844.2 4868.03,-850.93"/>
</g>
<!-- n2 -->
<g id="node5" class="node">
<title>n2</title>
<ellipse fill="#98D2A5" stroke="black" cx="790.92" cy="-703.2" rx="190.84" ry="37.45"/>
<text text-anchor="middle" x="790.92" y="-714.5" font-family="Times,serif" font-size="14.00">plan</text>
<text text-anchor="middle" x="790.92" y="-699.5" font-family="Times,serif" font-size="14.00">ncms000 (nsubj)</text>
<text text-anchor="middle" x="790.92" y="-684.5" font-family="Times,serif" font-size="14.00">rep=no, t=yes, r=no, m=yes, c=no</text>
</g>
<!-- n25&#45;&gt;n2 -->
<g id="edge4" class="edge">
<title>n25&#45;&gt;n2</title>
<path fill="none" stroke="black" d="M3200.07,-805.35C2725.6,-785.43 1472.76,-732.82 987.15,-712.44"/>
<polygon fill="black" stroke="black" points="987.01,-708.93 976.88,-712 986.72,-715.92 987.01,-708.93"/>
</g>
<!-- n26 -->
<g id="node6" class="node">
<title>n26</title>
<ellipse fill="#98D2A5" stroke="black" cx="2570.92" cy="-703.2" rx="190.84" ry="37.45"/>
<text text-anchor="middle" x="2570.92" y="-714.5" font-family="Times,serif" font-size="14.00">ser</text>
<text text-anchor="middle" x="2570.92" y="-699.5" font-family="Times,serif" font-size="14.00">vsn0000 (dobj)</text>
<text text-anchor="middle" x="2570.92" y="-684.5" font-family="Times,serif" font-size="14.00">rep=no, t=no, r=yes, m=yes, c=no</text>
</g>
<!-- n25&#45;&gt;n26 -->
<g id="edge5" class="edge">
<title>n25&#45;&gt;n26</title>
<path fill="none" stroke="black" d="M3217.83,-796.23C3094,-783.07 2921.63,-763.27 2770.92,-740.67 2752.87,-737.97 2733.95,-734.87 2715.26,-731.64"/>
<polygon fill="black" stroke="black" points="2715.65,-728.16 2705.2,-729.89 2714.45,-735.05 2715.65,-728.16"/>
</g>
<!-- n30 -->
<g id="node7" class="node">
<title>n30</title>
<ellipse fill="#98D2A5" stroke="black" cx="2975.92" cy="-703.2" rx="195.74" ry="37.45"/>
<text text-anchor="middle" x="2975.92" y="-714.5" font-family="Times,serif" font-size="14.00">correcto</text>
<text text-anchor="middle" x="2975.92" y="-699.5" font-family="Times,serif" font-size="14.00">aq0ms0 (attr)</text>
<text text-anchor="middle" x="2975.92" y="-684.5" font-family="Times,serif" font-size="14.00">rep=no, t=no, r=yes, m=yes, c=yes</text>
</g>
<!-- n25&#45;&gt;n30 -->
<g id="edge6" class="edge">
<title>n25&#45;&gt;n30</title>
<path fill="none" stroke="black" d="M3274.7,-783.59C3220,-769.06 3153.95,-751.51 3097.87,-736.61"/>
<polygon fill="black" stroke="black" points="3098.45,-733.14 3087.89,-733.95 3096.65,-739.9 3098.45,-733.14"/>
</g>
<!-- n32 -->
<g id="node8" class="node">
<title>n32</title>
<ellipse fill="#98D2A5" stroke="black" cx="3385.92" cy="-703.2" rx="195.74" ry="37.45"/>
<text text-anchor="middle" x="3385.92" y="-714.5" font-family="Times,serif" font-size="14.00">justo</text>
<text text-anchor="middle" x="3385.92" y="-699.5" font-family="Times,serif" font-size="14.00">aq0ms0 (attr)</text>
<text text-anchor="middle" x="3385.92" y="-684.5" font-family="Times,serif" font-size="14.00">rep=no, t=no, r=yes, m=yes, c=yes</text>
</g>
<!-- n25&#45;&gt;n32 -->
<g id="edge7" class="edge">
<title>n25&#45;&gt;n32</title>
<path fill="none" stroke="black" d="M3385.92,-776.57C3385.92,-768.39 3385.92,-759.61 3385.92,-751.09"/>
<polygon fill="black" stroke="black" points="3389.42,-750.87 3385.92,-740.87 3382.42,-750.87 3389.42,-750.87"/>
</g>
<!-- n33 -->
<g id="node9" class="node">
<title>n33</title>
<ellipse fill="#98D2A5" stroke="black" cx="3790.92" cy="-703.2" rx="190.84" ry="37.45"/>
<text text-anchor="middle" x="3790.92" y="-714.5" font-family="Times,serif" font-size="14.00">y</text>
<text text-anchor="middle" x="3790.92" y="-699.5" font-family="Times,serif" font-size="14.00">cc (coord_fixed)</text>
<text text-anchor="middle" x="3790.92" y="-684.5" font-family="Times,serif" font-size="14.00">rep=no, t=no, r=yes, m=yes, c=no</text>
</g>
<!-- n25&#45;&gt;n33 -->
<g id="edge8" class="edge">
<title>n25&#45;&gt;n33</title>
<path fill="none" stroke="black" d="M3496.05,-783.52C3550.19,-768.96 3615.54,-751.38 3670.94,-736.47"/>
<polygon fill="black" stroke="black" points="3672.06,-739.8 3680.81,-733.82 3670.24,-733.04 3672.06,-739.8"/>
</g>
<!-- n34 -->
<g id="node10" class="node">
<title>n34</title>
<ellipse fill="#98D2A5" stroke="black" cx="4195.92" cy="-703.2" rx="195.74" ry="37.45"/>
<text text-anchor="middle" x="4195.92" y="-714.5" font-family="Times,serif" font-size="14.00">necesario</text>
<text text-anchor="middle" x="4195.92" y="-699.5" font-family="Times,serif" font-size="14.00">aq0ms0 (attr)</text>
<text text-anchor="middle" x="4195.92" y="-684.5" font-family="Times,serif" font-size="14.00">rep=no, t=no, r=yes, m=yes, c=yes</text>
</g>
<!-- n25&#45;&gt;n34 -->
<g id="edge9" class="edge">
<title>n25&#45;&gt;n34</title>
<path fill="none" stroke="black" d="M3552.53,-795.77C3674.24,-782.45 3843.12,-762.66 3990.92,-740.67 4009.42,-737.92 4028.81,-734.79 4047.98,-731.55"/>
<polygon fill="black" stroke="black" points="4048.71,-734.98 4057.98,-729.85 4047.53,-728.08 4048.71,-734.98"/>
</g>
<!-- n35 -->
<g id="node38" class="node">
<title>n35</title>
<ellipse fill="#98D2A5" stroke="black" cx="4595.92" cy="-703.2" rx="185.94" ry="37.45"/>
<text text-anchor="middle" x="4595.92" y="-714.5" font-family="Times,serif" font-size="14.00">,</text>
<text text-anchor="middle" x="4595.92" y="-699.5" font-family="Times,serif" font-size="14.00">fc (punct)</text>
<text text-anchor="middle" x="4595.92" y="-684.5" font-family="Times,serif" font-size="14.00">rep=no, t=no, r=no, m=yes, c=no</text>
</g>
<!-- n40&#45;&gt;n35 -->
<g id="edge37" class="edge">
<title>n40&#45;&gt;n35</title>
<path fill="none" stroke="black" d="M4595.92,-776.57C4595.92,-768.39 4595.92,-759.61 4595.92,-751.09"/>
<polygon fill="black" stroke="black" points="4599.42,-750.87 4595.92,-740.87 4592.42,-750.87 4599.42,-750.87"/>
</g>
<!-- n41 -->
<g id="node39" class="node">
<title>n41</title>
<ellipse fill="#98D2A5" stroke="black" cx="4985.92" cy="-703.2" rx="185.94" ry="37.45"/>
<text text-anchor="middle" x="4985.92" y="-714.5" font-family="Times,serif" font-size="14.00">contener</text>
<text text-anchor="middle" x="4985.92" y="-699.5" font-family="Times,serif" font-size="14.00">vmn0000 (dobj)</text>
<text text-anchor="middle" x="4985.92" y="-684.5" font-family="Times,serif" font-size="14.00">rep=no, t=no, r=no, m=yes, c=no</text>
</g>
<!-- n40&#45;&gt;n41 -->
<g id="edge38" class="edge">
<title>n40&#45;&gt;n41</title>
<path fill="none" stroke="black" d="M4702.49,-783.38C4754.29,-768.91 4816.66,-751.48 4869.69,-736.67"/>
<polygon fill="black" stroke="black" points="4870.79,-739.99 4879.48,-733.93 4868.91,-733.25 4870.79,-739.99"/>
</g>
<!-- n1 -->
<g id="node11" class="node">
<title>n1</title>
<ellipse fill="#98D2A5" stroke="black" cx="390.92" cy="-592.24" rx="190.84" ry="37.45"/>
<text text-anchor="middle" x="390.92" y="-603.54" font-family="Times,serif" font-size="14.00">El</text>
<text text-anchor="middle" x="390.92" y="-588.54" font-family="Times,serif" font-size="14.00">da0ms0 (det)</text>
<text text-anchor="middle" x="390.92" y="-573.54" font-family="Times,serif" font-size="14.00">rep=no, t=yes, r=no, m=yes, c=no</text>
</g>
<!-- n2&#45;&gt;n1 -->
<g id="edge10" class="edge">
<title>n2&#45;&gt;n1</title>
<path fill="none" stroke="black" d="M681.62,-672.42C628.48,-657.95 564.51,-640.53 510.12,-625.71"/>
<polygon fill="black" stroke="black" points="511,-622.32 500.44,-623.07 509.16,-629.08 511,-622.32"/>
</g>
<!-- n8 -->
<g id="node12" class="node">
<title>n8</title>
<ellipse fill="#98D2A5" stroke="black" cx="790.92" cy="-592.24" rx="190.84" ry="37.45"/>
<text text-anchor="middle" x="790.92" y="-603.54" font-family="Times,serif" font-size="14.00">presentará</text>
<text text-anchor="middle" x="790.92" y="-588.54" font-family="Times,serif" font-size="14.00">vmif3s0 (rcmod)</text>
<text text-anchor="middle" x="790.92" y="-573.54" font-family="Times,serif" font-size="14.00">rep=no, t=yes, r=no, m=yes, c=no</text>
</g>
<!-- n2&#45;&gt;n8 -->
<g id="edge11" class="edge">
<title>n2&#45;&gt;n8</title>
<path fill="none" stroke="black" d="M790.92,-665.61C790.92,-657.44 790.92,-648.66 790.92,-640.13"/>
<polygon fill="black" stroke="black" points="794.42,-639.92 790.92,-629.92 787.42,-639.92 794.42,-639.92"/>
</g>
<!-- n17 -->
<g id="node22" class="node">
<title>n17</title>
<ellipse fill="#98D2A5" stroke="black" cx="2570.92" cy="-592.24" rx="190.84" ry="37.45"/>
<text text-anchor="middle" x="2570.92" y="-603.54" font-family="Times,serif" font-size="14.00">conviene</text>
<text text-anchor="middle" x="2570.92" y="-588.54" font-family="Times,serif" font-size="14.00">vmip3s0 (dobj)</text>
<text text-anchor="middle" x="2570.92" y="-573.54" font-family="Times,serif" font-size="14.00">rep=no, t=no, r=yes, m=yes, c=no</text>
</g>
<!-- n26&#45;&gt;n17 -->
<g id="edge21" class="edge">
<title>n26&#45;&gt;n17</title>
<path fill="none" stroke="black" d="M2570.92,-665.61C2570.92,-657.44 2570.92,-648.66 2570.92,-640.13"/>
<polygon fill="black" stroke="black" points="2574.42,-639.92 2570.92,-629.92 2567.42,-639.92 2574.42,-639.92"/>
</g>
<!-- n28 -->
<g id="node34" class="node">
<title>n28</title>
<ellipse fill="#98D2A5" stroke="black" cx="3790.92" cy="-592.24" rx="190.84" ry="37.45"/>
<text text-anchor="middle" x="3790.92" y="-603.54" font-family="Times,serif" font-size="14.00">o</text>
<text text-anchor="middle" x="3790.92" y="-588.54" font-family="Times,serif" font-size="14.00">cc (coord_fixed)</text>
<text text-anchor="middle" x="3790.92" y="-573.54" font-family="Times,serif" font-size="14.00">rep=no, t=no, r=yes, m=yes, c=no</text>
</g>
<!-- n33&#45;&gt;n28 -->
<g id="edge33" class="edge">
<title>n33&#45;&gt;n28</title>
<path fill="none" stroke="black" d="M3790.92,-665.61C3790.92,-657.44 3790.92,-648.66 3790.92,-640.13"/>
<polygon fill="black" stroke="black" points="3794.42,-639.92 3790.92,-629.92 3787.42,-639.92 3794.42,-639.92"/>
</g>
<!-- n31 -->
<g id="node35" class="node">
<title>n31</title>
<ellipse fill="#98D2A5" stroke="black" cx="4190.92" cy="-592.24" rx="190.84" ry="37.45"/>
<text text-anchor="middle" x="4190.92" y="-603.54" font-family="Times,serif" font-size="14.00">,</text>
<text text-anchor="middle" x="4190.92" y="-588.54" font-family="Times,serif" font-size="14.00">fc (punct)</text>
<text text-anchor="middle" x="4190.92" y="-573.54" font-family="Times,serif" font-size="14.00">rep=no, t=no, r=yes, m=yes, c=no</text>
</g>
<!-- n33&#45;&gt;n31 -->
<g id="edge34" class="edge">
<title>n33&#45;&gt;n31</title>
<path fill="none" stroke="black" d="M3900.22,-672.42C3953.36,-657.95 4017.33,-640.53 4071.71,-625.71"/>
<polygon fill="black" stroke="black" points="4072.67,-629.08 4081.4,-623.07 4070.83,-622.32 4072.67,-629.08"/>
</g>
<!-- n3 -->
<g id="node13" class="node">
<title>n3</title>
<ellipse fill="#98D2A5" stroke="black" cx="190.92" cy="-481.29" rx="190.84" ry="37.45"/>
<text text-anchor="middle" x="190.92" y="-492.59" font-family="Times,serif" font-size="14.00">que</text>
<text text-anchor="middle" x="190.92" y="-477.59" font-family="Times,serif" font-size="14.00">pr0cn000 (dobj)</text>
<text text-anchor="middle" x="190.92" y="-462.59" font-family="Times,serif" font-size="14.00">rep=no, t=yes, r=no, m=yes, c=no</text>
</g>
<!-- n8&#45;&gt;n3 -->
<g id="edge12" class="edge">
<title>n8&#45;&gt;n3</title>
<path fill="none" stroke="black" d="M653.48,-566.13C632.53,-562.32 611.15,-558.43 590.92,-554.77 502.05,-538.66 479.79,-534.87 390.92,-518.77 373.85,-515.67 355.96,-512.42 338.2,-509.19"/>
<polygon fill="black" stroke="black" points="338.82,-505.75 328.35,-507.4 337.56,-512.63 338.82,-505.75"/>
</g>
<!-- n5 -->
<g id="node14" class="node">
<title>n5</title>
<ellipse fill="#98D2A5" stroke="black" cx="590.92" cy="-481.29" rx="190.84" ry="37.45"/>
<text text-anchor="middle" x="590.92" y="-492.59" font-family="Times,serif" font-size="14.00">ministro</text>
<text text-anchor="middle" x="590.92" y="-477.59" font-family="Times,serif" font-size="14.00">ncms000 (nsubj)</text>
<text text-anchor="middle" x="590.92" y="-462.59" font-family="Times,serif" font-size="14.00">rep=no, t=yes, r=no, m=yes, c=no</text>
</g>
<!-- n8&#45;&gt;n5 -->
<g id="edge13" class="edge">
<title>n8&#45;&gt;n5</title>
<path fill="none" stroke="black" d="M727.64,-556.77C707.11,-545.59 684.18,-533.1 663.06,-521.59"/>
<polygon fill="black" stroke="black" points="664.59,-518.44 654.13,-516.73 661.24,-524.58 664.59,-518.44"/>
</g>
<!-- n10 -->
<g id="node15" class="node">
<title>n10</title>
<ellipse fill="#98D2A5" stroke="black" cx="990.92" cy="-481.29" rx="190.84" ry="37.45"/>
<text text-anchor="middle" x="990.92" y="-492.59" font-family="Times,serif" font-size="14.00">semana</text>
<text text-anchor="middle" x="990.92" y="-477.59" font-family="Times,serif" font-size="14.00">ncfs000 (tmod)</text>
<text text-anchor="middle" x="990.92" y="-462.59" font-family="Times,serif" font-size="14.00">rep=no, t=yes, r=no, m=yes, c=no</text>
</g>
<!-- n8&#45;&gt;n10 -->
<g id="edge14" class="edge">
<title>n8&#45;&gt;n10</title>
<path fill="none" stroke="black" d="M854.2,-556.77C874.73,-545.59 897.65,-533.1 918.78,-521.59"/>
<polygon fill="black" stroke="black" points="920.6,-524.58 927.71,-516.73 917.25,-518.44 920.6,-524.58"/>
</g>
<!-- n4 -->
<g id="node16" class="node">
<title>n4</title>
<ellipse fill="#98D2A5" stroke="black" cx="190.92" cy="-370.34" rx="190.84" ry="37.45"/>
<text text-anchor="middle" x="190.92" y="-381.64" font-family="Times,serif" font-size="14.00">el</text>
<text text-anchor="middle" x="190.92" y="-366.64" font-family="Times,serif" font-size="14.00">da0ms0 (det)</text>
<text text-anchor="middle" x="190.92" y="-351.64" font-family="Times,serif" font-size="14.00">rep=no, t=yes, r=no, m=yes, c=no</text>
</g>
<!-- n5&#45;&gt;n4 -->
<g id="edge15" class="edge">
<title>n5&#45;&gt;n4</title>
<path fill="none" stroke="black" d="M481.62,-450.52C428.48,-436.04 364.51,-418.62 310.12,-403.81"/>
<polygon fill="black" stroke="black" points="311,-400.42 300.44,-401.17 309.16,-407.17 311,-400.42"/>
</g>
<!-- n6 -->
<g id="node17" class="node">
<title>n6</title>
<ellipse fill="#98D2A5" stroke="black" cx="590.92" cy="-370.34" rx="190.84" ry="37.45"/>
<text text-anchor="middle" x="590.92" y="-381.64" font-family="Times,serif" font-size="14.00">Jaume</text>
<text text-anchor="middle" x="590.92" y="-366.64" font-family="Times,serif" font-size="14.00">np0000l (appos)</text>
<text text-anchor="middle" x="590.92" y="-351.64" font-family="Times,serif" font-size="14.00">rep=no, t=yes, r=no, m=yes, c=no</text>
</g>
<!-- n5&#45;&gt;n6 -->
<g id="edge16" class="edge">
<title>n5&#45;&gt;n6</title>
<path fill="none" stroke="black" d="M590.92,-443.71C590.92,-435.53 590.92,-426.75 590.92,-418.23"/>
<polygon fill="black" stroke="black" points="594.42,-418.01 590.92,-408.01 587.42,-418.01 594.42,-418.01"/>
</g>
<!-- n9 -->
<g id="node19" class="node">
<title>n9</title>
<ellipse fill="#98D2A5" stroke="black" cx="990.92" cy="-370.34" rx="190.84" ry="37.45"/>
<text text-anchor="middle" x="990.92" y="-381.64" font-family="Times,serif" font-size="14.00">la</text>
<text text-anchor="middle" x="990.92" y="-366.64" font-family="Times,serif" font-size="14.00">da0fs0 (det)</text>
<text text-anchor="middle" x="990.92" y="-351.64" font-family="Times,serif" font-size="14.00">rep=no, t=yes, r=no, m=yes, c=no</text>
</g>
<!-- n10&#45;&gt;n9 -->
<g id="edge18" class="edge">
<title>n10&#45;&gt;n9</title>
<path fill="none" stroke="black" d="M990.92,-443.71C990.92,-435.53 990.92,-426.75 990.92,-418.23"/>
<polygon fill="black" stroke="black" points="994.42,-418.01 990.92,-408.01 987.42,-418.01 994.42,-418.01"/>
</g>
<!-- n12 -->
<g id="node20" class="node">
<title>n12</title>
<ellipse fill="#98D2A5" stroke="black" cx="1390.92" cy="-370.34" rx="190.84" ry="37.45"/>
<text text-anchor="middle" x="1390.92" y="-381.64" font-family="Times,serif" font-size="14.00">viene</text>
<text text-anchor="middle" x="1390.92" y="-366.64" font-family="Times,serif" font-size="14.00">vmip3s0 (rcmod)</text>
<text text-anchor="middle" x="1390.92" y="-351.64" font-family="Times,serif" font-size="14.00">rep=no, t=yes, r=no, m=yes, c=no</text>
</g>
<!-- n10&#45;&gt;n12 -->
<g id="edge19" class="edge">
<title>n10&#45;&gt;n12</title>
<path fill="none" stroke="black" d="M1100.22,-450.52C1153.36,-436.04 1217.33,-418.62 1271.71,-403.81"/>
<polygon fill="black" stroke="black" points="1272.67,-407.17 1281.4,-401.17 1270.83,-400.42 1272.67,-407.17"/>
</g>
<!-- n7 -->
<g id="node18" class="node">
<title>n7</title>
<ellipse fill="#98D2A5" stroke="black" cx="590.92" cy="-259.38" rx="190.84" ry="37.45"/>
<text text-anchor="middle" x="590.92" y="-270.68" font-family="Times,serif" font-size="14.00">Matas</text>
<text text-anchor="middle" x="590.92" y="-255.68" font-family="Times,serif" font-size="14.00">np0000l (appos)</text>
<text text-anchor="middle" x="590.92" y="-240.68" font-family="Times,serif" font-size="14.00">rep=no, t=yes, r=no, m=yes, c=no</text>
</g>
<!-- n6&#45;&gt;n7 -->
<g id="edge17" class="edge">
<title>n6&#45;&gt;n7</title>
<path fill="none" stroke="black" d="M590.92,-332.75C590.92,-324.58 590.92,-315.8 590.92,-307.27"/>
<polygon fill="black" stroke="black" points="594.42,-307.06 590.92,-297.06 587.42,-307.06 594.42,-307.06"/>
</g>
<!-- n11 -->
<g id="node21" class="node">
<title>n11</title>
<ellipse fill="#98D2A5" stroke="black" cx="1390.92" cy="-259.38" rx="190.84" ry="37.45"/>
<text text-anchor="middle" x="1390.92" y="-270.68" font-family="Times,serif" font-size="14.00">que</text>
<text text-anchor="middle" x="1390.92" y="-255.68" font-family="Times,serif" font-size="14.00">pr0cn000 (nsubj)</text>
<text text-anchor="middle" x="1390.92" y="-240.68" font-family="Times,serif" font-size="14.00">rep=no, t=yes, r=no, m=yes, c=no</text>
</g>
<!-- n12&#45;&gt;n11 -->
<g id="edge20" class="edge">
<title>n12&#45;&gt;n11</title>
<path fill="none" stroke="black" d="M1390.92,-332.75C1390.92,-324.58 1390.92,-315.8 1390.92,-307.27"/>
<polygon fill="black" stroke="black" points="1394.42,-307.06 1390.92,-297.06 1387.42,-307.06 1394.42,-307.06"/>
</g>
<!-- n13 -->
<g id="node23" class="node">
<title>n13</title>
<ellipse fill="#98D2A5" stroke="black" cx="1390.92" cy="-481.29" rx="190.84" ry="37.45"/>
<text text-anchor="middle" x="1390.92" y="-492.59" font-family="Times,serif" font-size="14.00">&#45;</text>
<text text-anchor="middle" x="1390.92" y="-477.59" font-family="Times,serif" font-size="14.00">fg (punct)</text>
<text text-anchor="middle" x="1390.92" y="-462.59" font-family="Times,serif" font-size="14.00">rep=no, t=no, r=yes, m=yes, c=no</text>
</g>
<!-- n17&#45;&gt;n13 -->
<g id="edge22" class="edge">
<title>n17&#45;&gt;n13</title>
<path fill="none" stroke="black" d="M2385.19,-583.41C2187.65,-573.7 1866.34,-553.96 1590.92,-518.77 1572.14,-516.37 1552.44,-513.37 1533.04,-510.13"/>
<polygon fill="black" stroke="black" points="1533.38,-506.64 1522.93,-508.42 1532.21,-513.54 1533.38,-506.64"/>
</g>
<!-- n14 -->
<g id="node24" class="node">
<title>n14</title>
<ellipse fill="#98D2A5" stroke="black" cx="1790.92" cy="-481.29" rx="190.84" ry="37.45"/>
<text text-anchor="middle" x="1790.92" y="-492.59" font-family="Times,serif" font-size="14.00">&#45;</text>
<text text-anchor="middle" x="1790.92" y="-477.59" font-family="Times,serif" font-size="14.00">fg (punct)</text>
<text text-anchor="middle" x="1790.92" y="-462.59" font-family="Times,serif" font-size="14.00">rep=no, t=no, r=yes, m=yes, c=no</text>
</g>
<!-- n17&#45;&gt;n14 -->
<g id="edge23" class="edge">
<title>n17&#45;&gt;n14</title>
<path fill="none" stroke="black" d="M2406.51,-573.19C2290.21,-559.81 2130.71,-540.23 1990.92,-518.77 1972.95,-516.01 1954.12,-512.88 1935.5,-509.65"/>
<polygon fill="black" stroke="black" points="1935.94,-506.18 1925.49,-507.9 1934.74,-513.07 1935.94,-506.18"/>
</g>
<!-- n15 -->
<g id="node25" class="node">
<title>n15</title>
<ellipse fill="#98D2A5" stroke="black" cx="2190.92" cy="-481.29" rx="190.84" ry="37.45"/>
<text text-anchor="middle" x="2190.92" y="-492.59" font-family="Times,serif" font-size="14.00">hasta</text>
<text text-anchor="middle" x="2190.92" y="-477.59" font-family="Times,serif" font-size="14.00">sps00 (prepv)</text>
<text text-anchor="middle" x="2190.92" y="-462.59" font-family="Times,serif" font-size="14.00">rep=no, t=no, r=yes, m=yes, c=no</text>
</g>
<!-- n17&#45;&gt;n15 -->
<g id="edge24" class="edge">
<title>n17&#45;&gt;n15</title>
<path fill="none" stroke="black" d="M2465.32,-560.97C2415.9,-546.8 2356.93,-529.89 2306.34,-515.38"/>
<polygon fill="black" stroke="black" points="2307.24,-512 2296.67,-512.61 2305.31,-518.73 2307.24,-512"/>
</g>
<!-- n18 -->
<g id="node26" class="node">
<title>n18</title>
<ellipse fill="#98D2A5" stroke="black" cx="2590.92" cy="-481.29" rx="190.84" ry="37.45"/>
<text text-anchor="middle" x="2590.92" y="-492.59" font-family="Times,serif" font-size="14.00">ser</text>
<text text-anchor="middle" x="2590.92" y="-477.59" font-family="Times,serif" font-size="14.00">vsn0000 (dobj)</text>
<text text-anchor="middle" x="2590.92" y="-462.59" font-family="Times,serif" font-size="14.00">rep=no, t=no, r=yes, m=yes, c=no</text>
</g>
<!-- n17&#45;&gt;n18 -->
<g id="edge25" class="edge">
<title>n17&#45;&gt;n18</title>
<path fill="none" stroke="black" d="M2577.63,-554.66C2579.15,-546.4 2580.78,-537.51 2582.36,-528.9"/>
<polygon fill="black" stroke="black" points="2585.82,-529.43 2584.19,-518.96 2578.94,-528.17 2585.82,-529.43"/>
</g>
<!-- n23 -->
<g id="node27" class="node">
<title>n23</title>
<ellipse fill="#98D2A5" stroke="black" cx="2990.92" cy="-481.29" rx="190.84" ry="37.45"/>
<text text-anchor="middle" x="2990.92" y="-492.59" font-family="Times,serif" font-size="14.00">&#45;</text>
<text text-anchor="middle" x="2990.92" y="-477.59" font-family="Times,serif" font-size="14.00">fg (punct)</text>
<text text-anchor="middle" x="2990.92" y="-462.59" font-family="Times,serif" font-size="14.00">rep=no, t=no, r=yes, m=yes, c=no</text>
</g>
<!-- n17&#45;&gt;n23 -->
<g id="edge26" class="edge">
<title>n17&#45;&gt;n23</title>
<path fill="none" stroke="black" d="M2683.75,-561.97C2740.6,-547.23 2809.63,-529.32 2867.84,-514.22"/>
<polygon fill="black" stroke="black" points="2869.03,-517.52 2877.83,-511.63 2867.28,-510.75 2869.03,-517.52"/>
</g>
<!-- n24 -->
<g id="node28" class="node">
<title>n24</title>
<ellipse fill="#98D2A5" stroke="black" cx="3390.92" cy="-481.29" rx="190.84" ry="37.45"/>
<text text-anchor="middle" x="3390.92" y="-492.59" font-family="Times,serif" font-size="14.00">&#45;</text>
<text text-anchor="middle" x="3390.92" y="-477.59" font-family="Times,serif" font-size="14.00">fg (punct)</text>
<text text-anchor="middle" x="3390.92" y="-462.59" font-family="Times,serif" font-size="14.00">rep=no, t=no, r=yes, m=yes, c=no</text>
</g>
<!-- n17&#45;&gt;n24 -->
<g id="edge27" class="edge">
<title>n17&#45;&gt;n24</title>
<path fill="none" stroke="black" d="M2739.39,-574.5C2864.3,-561.36 3038.59,-541.54 3190.92,-518.77 3208.97,-516.07 3227.89,-512.97 3246.58,-509.75"/>
<polygon fill="black" stroke="black" points="3247.39,-513.16 3256.64,-508 3246.19,-506.27 3247.39,-513.16"/>
</g>
<!-- n16 -->
<g id="node29" class="node">
<title>n16</title>
<ellipse fill="#98D2A5" stroke="black" cx="2190.92" cy="-370.34" rx="190.84" ry="37.45"/>
<text text-anchor="middle" x="2190.92" y="-381.64" font-family="Times,serif" font-size="14.00">entonces</text>
<text text-anchor="middle" x="2190.92" y="-366.64" font-family="Times,serif" font-size="14.00">rg (advmod)</text>
<text text-anchor="middle" x="2190.92" y="-351.64" font-family="Times,serif" font-size="14.00">rep=no, t=no, r=yes, m=yes, c=no</text>
</g>
<!-- n15&#45;&gt;n16 -->
<g id="edge28" class="edge">
<title>n15&#45;&gt;n16</title>
<path fill="none" stroke="black" d="M2190.92,-443.71C2190.92,-435.53 2190.92,-426.75 2190.92,-418.23"/>
<polygon fill="black" stroke="black" points="2194.42,-418.01 2190.92,-408.01 2187.42,-418.01 2194.42,-418.01"/>
</g>
<!-- n19 -->
<g id="node30" class="node">
<title>n19</title>
<ellipse fill="#98D2A5" stroke="black" cx="2590.92" cy="-370.34" rx="190.84" ry="37.45"/>
<text text-anchor="middle" x="2590.92" y="-381.64" font-family="Times,serif" font-size="14.00">prudentes</text>
<text text-anchor="middle" x="2590.92" y="-366.64" font-family="Times,serif" font-size="14.00">aq0cp0 (attr)</text>
<text text-anchor="middle" x="2590.92" y="-351.64" font-family="Times,serif" font-size="14.00">rep=no, t=no, r=yes, m=yes, c=no</text>
</g>
<!-- n18&#45;&gt;n19 -->
<g id="edge29" class="edge">
<title>n18&#45;&gt;n19</title>
<path fill="none" stroke="black" d="M2590.92,-443.71C2590.92,-435.53 2590.92,-426.75 2590.92,-418.23"/>
<polygon fill="black" stroke="black" points="2594.42,-418.01 2590.92,-408.01 2587.42,-418.01 2594.42,-418.01"/>
</g>
<!-- n20 -->
<g id="node31" class="node">
<title>n20</title>
<ellipse fill="#98D2A5" stroke="black" cx="2590.92" cy="-259.38" rx="190.84" ry="37.45"/>
<text text-anchor="middle" x="2590.92" y="-270.68" font-family="Times,serif" font-size="14.00">en</text>
<text text-anchor="middle" x="2590.92" y="-255.68" font-family="Times,serif" font-size="14.00">sps00 (prepa)</text>
<text text-anchor="middle" x="2590.92" y="-240.68" font-family="Times,serif" font-size="14.00">rep=no, t=no, r=yes, m=yes, c=no</text>
</g>
<!-- n19&#45;&gt;n20 -->
<g id="edge30" class="edge">
<title>n19&#45;&gt;n20</title>
<path fill="none" stroke="black" d="M2590.92,-332.75C2590.92,-324.58 2590.92,-315.8 2590.92,-307.27"/>
<polygon fill="black" stroke="black" points="2594.42,-307.06 2590.92,-297.06 2587.42,-307.06 2594.42,-307.06"/>
</g>
<!-- n22 -->
<g id="node32" class="node">
<title>n22</title>
<ellipse fill="#98D2A5" stroke="black" cx="2590.92" cy="-148.43" rx="190.84" ry="37.45"/>
<text text-anchor="middle" x="2590.92" y="-159.73" font-family="Times,serif" font-size="14.00">apreciaciones</text>
<text text-anchor="middle" x="2590.92" y="-144.73" font-family="Times,serif" font-size="14.00">ncfp000 (pobj)</text>
<text text-anchor="middle" x="2590.92" y="-129.73" font-family="Times,serif" font-size="14.00">rep=no, t=no, r=yes, m=yes, c=no</text>
</g>
<!-- n20&#45;&gt;n22 -->
<g id="edge31" class="edge">
<title>n20&#45;&gt;n22</title>
<path fill="none" stroke="black" d="M2590.92,-221.8C2590.92,-213.63 2590.92,-204.85 2590.92,-196.32"/>
<polygon fill="black" stroke="black" points="2594.42,-196.1 2590.92,-186.1 2587.42,-196.1 2594.42,-196.1"/>
</g>
<!-- n21 -->
<g id="node33" class="node">
<title>n21</title>
<ellipse fill="#98D2A5" stroke="black" cx="2590.92" cy="-37.48" rx="190.84" ry="37.45"/>
<text text-anchor="middle" x="2590.92" y="-48.78" font-family="Times,serif" font-size="14.00">las</text>
<text text-anchor="middle" x="2590.92" y="-33.78" font-family="Times,serif" font-size="14.00">da0fp0 (det)</text>
<text text-anchor="middle" x="2590.92" y="-18.78" font-family="Times,serif" font-size="14.00">rep=no, t=no, r=yes, m=yes, c=no</text>
</g>
<!-- n22&#45;&gt;n21 -->
<g id="edge32" class="edge">
<title>n22&#45;&gt;n21</title>
<path fill="none" stroke="black" d="M2590.92,-110.85C2590.92,-102.67 2590.92,-93.89 2590.92,-85.37"/>
<polygon fill="black" stroke="black" points="2594.42,-85.15 2590.92,-75.15 2587.42,-85.15 2594.42,-85.15"/>
</g>
<!-- n27 -->
<g id="node36" class="node">
<title>n27</title>
<ellipse fill="#98D2A5" stroke="black" cx="3790.92" cy="-481.29" rx="190.84" ry="37.45"/>
<text text-anchor="middle" x="3790.92" y="-492.59" font-family="Times,serif" font-size="14.00">más</text>
<text text-anchor="middle" x="3790.92" y="-477.59" font-family="Times,serif" font-size="14.00">rg (advmod)</text>
<text text-anchor="middle" x="3790.92" y="-462.59" font-family="Times,serif" font-size="14.00">rep=no, t=no, r=yes, m=yes, c=no</text>
</g>
<!-- n28&#45;&gt;n27 -->
<g id="edge35" class="edge">
<title>n28&#45;&gt;n27</title>
<path fill="none" stroke="black" d="M3790.92,-554.66C3790.92,-546.49 3790.92,-537.71 3790.92,-529.18"/>
<polygon fill="black" stroke="black" points="3794.42,-528.96 3790.92,-518.96 3787.42,-528.96 3794.42,-528.96"/>
</g>
<!-- n29 -->
<g id="node37" class="node">
<title>n29</title>
<ellipse fill="#98D2A5" stroke="black" cx="4190.92" cy="-481.29" rx="190.84" ry="37.45"/>
<text text-anchor="middle" x="4190.92" y="-492.59" font-family="Times,serif" font-size="14.00">menos</text>
<text text-anchor="middle" x="4190.92" y="-477.59" font-family="Times,serif" font-size="14.00">rg (advmod)</text>
<text text-anchor="middle" x="4190.92" y="-462.59" font-family="Times,serif" font-size="14.00">rep=no, t=no, r=yes, m=yes, c=no</text>
</g>
<!-- n28&#45;&gt;n29 -->
<g id="edge36" class="edge">
<title>n28&#45;&gt;n29</title>
<path fill="none" stroke="black" d="M3900.22,-561.47C3953.36,-547 4017.33,-529.57 4071.71,-514.76"/>
<polygon fill="black" stroke="black" points="4072.67,-518.13 4081.4,-512.12 4070.83,-511.37 4072.67,-518.13"/>
</g>
<!-- n37 -->
<g id="node40" class="node">
<title>n37</title>
<ellipse fill="#98D2A5" stroke="black" cx="4790.92" cy="-592.24" rx="185.94" ry="37.45"/>
<text text-anchor="middle" x="4790.92" y="-603.54" font-family="Times,serif" font-size="14.00">en</text>
<text text-anchor="middle" x="4790.92" y="-588.54" font-family="Times,serif" font-size="14.00">sps00 (prepv)</text>
<text text-anchor="middle" x="4790.92" y="-573.54" font-family="Times,serif" font-size="14.00">rep=no, t=no, r=no, m=yes, c=no</text>
</g>
<!-- n41&#45;&gt;n37 -->
<g id="edge39" class="edge">
<title>n41&#45;&gt;n37</title>
<path fill="none" stroke="black" d="M4924.22,-667.72C4904.29,-656.59 4882.05,-644.16 4861.53,-632.7"/>
<polygon fill="black" stroke="black" points="4862.99,-629.5 4852.55,-627.68 4859.57,-635.61 4862.99,-629.5"/>
</g>
<!-- n42 -->
<g id="node41" class="node">
<title>n42</title>
<ellipse fill="#98D2A5" stroke="black" cx="5180.92" cy="-592.24" rx="185.94" ry="37.45"/>
<text text-anchor="middle" x="5180.92" y="-603.54" font-family="Times,serif" font-size="14.00">elementos</text>
<text text-anchor="middle" x="5180.92" y="-588.54" font-family="Times,serif" font-size="14.00">ncmp000 (dobj)</text>
<text text-anchor="middle" x="5180.92" y="-573.54" font-family="Times,serif" font-size="14.00">rep=no, t=no, r=no, m=yes, c=no</text>
</g>
<!-- n41&#45;&gt;n42 -->
<g id="edge40" class="edge">
<title>n41&#45;&gt;n42</title>
<path fill="none" stroke="black" d="M5047.62,-667.72C5067.54,-656.59 5089.79,-644.16 5110.3,-632.7"/>
<polygon fill="black" stroke="black" points="5112.26,-635.61 5119.29,-627.68 5108.85,-629.5 5112.26,-635.61"/>
</g>
<!-- n39 -->
<g id="node42" class="node">
<title>n39</title>
<ellipse fill="#98D2A5" stroke="black" cx="4790.92" cy="-481.29" rx="185.94" ry="37.45"/>
<text text-anchor="middle" x="4790.92" y="-492.59" font-family="Times,serif" font-size="14.00">caso</text>
<text text-anchor="middle" x="4790.92" y="-477.59" font-family="Times,serif" font-size="14.00">ncms000 (pobj)</text>
<text text-anchor="middle" x="4790.92" y="-462.59" font-family="Times,serif" font-size="14.00">rep=no, t=no, r=no, m=yes, c=no</text>
</g>
<!-- n37&#45;&gt;n39 -->
<g id="edge41" class="edge">
<title>n37&#45;&gt;n39</title>
<path fill="none" stroke="black" d="M4790.92,-554.66C4790.92,-546.49 4790.92,-537.71 4790.92,-529.18"/>
<polygon fill="black" stroke="black" points="4794.42,-528.96 4790.92,-518.96 4787.42,-528.96 4794.42,-528.96"/>
</g>
<!-- n43 -->
<g id="node44" class="node">
<title>n43</title>
<ellipse fill="#98D2A5" stroke="black" cx="5180.92" cy="-481.29" rx="185.94" ry="37.45"/>
<text text-anchor="middle" x="5180.92" y="-492.59" font-family="Times,serif" font-size="14.00">de</text>
<text text-anchor="middle" x="5180.92" y="-477.59" font-family="Times,serif" font-size="14.00">sps00 (prepn)</text>
<text text-anchor="middle" x="5180.92" y="-462.59" font-family="Times,serif" font-size="14.00">rep=no, t=no, r=no, m=yes, c=no</text>
</g>
<!-- n42&#45;&gt;n43 -->
<g id="edge43" class="edge">
<title>n42&#45;&gt;n43</title>
<path fill="none" stroke="black" d="M5180.92,-554.66C5180.92,-546.49 5180.92,-537.71 5180.92,-529.18"/>
<polygon fill="black" stroke="black" points="5184.42,-528.96 5180.92,-518.96 5177.42,-528.96 5184.42,-528.96"/>
</g>
<!-- n38 -->
<g id="node43" class="node">
<title>n38</title>
<ellipse fill="#98D2A5" stroke="black" cx="4790.92" cy="-370.34" rx="185.94" ry="37.45"/>
<text text-anchor="middle" x="4790.92" y="-381.64" font-family="Times,serif" font-size="14.00">ningún</text>
<text text-anchor="middle" x="4790.92" y="-366.64" font-family="Times,serif" font-size="14.00">di0ms0 (det)</text>
<text text-anchor="middle" x="4790.92" y="-351.64" font-family="Times,serif" font-size="14.00">rep=no, t=no, r=no, m=yes, c=no</text>
</g>
<!-- n39&#45;&gt;n38 -->
<g id="edge42" class="edge">
<title>n39&#45;&gt;n38</title>
<path fill="none" stroke="black" d="M4790.92,-443.71C4790.92,-435.53 4790.92,-426.75 4790.92,-418.23"/>
<polygon fill="black" stroke="black" points="4794.42,-418.01 4790.92,-408.01 4787.42,-418.01 4794.42,-418.01"/>
</g>
<!-- n44 -->
<g id="node45" class="node">
<title>n44</title>
<ellipse fill="#98D2A5" stroke="black" cx="5180.92" cy="-370.34" rx="185.94" ry="37.45"/>
<text text-anchor="middle" x="5180.92" y="-381.64" font-family="Times,serif" font-size="14.00">confrontación</text>
<text text-anchor="middle" x="5180.92" y="-366.64" font-family="Times,serif" font-size="14.00">ncfs000 (pobj)</text>
<text text-anchor="middle" x="5180.92" y="-351.64" font-family="Times,serif" font-size="14.00">rep=no, t=no, r=no, m=yes, c=no</text>
</g>
<!-- n43&#45;&gt;n44 -->
<g id="edge44" class="edge">
<title>n43&#45;&gt;n44</title>
<path fill="none" stroke="black" d="M5180.92,-443.71C5180.92,-435.53 5180.92,-426.75 5180.92,-418.23"/>
<polygon fill="black" stroke="black" points="5184.42,-418.01 5180.92,-408.01 5177.42,-418.01 5184.42,-418.01"/>
</g>
<!-- n45 -->
<g id="node46" class="node">
<title>n45</title>
<ellipse fill="#98D2A5" stroke="black" cx="5180.92" cy="-259.38" rx="185.94" ry="37.45"/>
<text text-anchor="middle" x="5180.92" y="-270.68" font-family="Times,serif" font-size="14.00">entre</text>
<text text-anchor="middle" x="5180.92" y="-255.68" font-family="Times,serif" font-size="14.00">sps00 (prepn)</text>
<text text-anchor="middle" x="5180.92" y="-240.68" font-family="Times,serif" font-size="14.00">rep=no, t=no, r=no, m=yes, c=no</text>
</g>
<!-- n44&#45;&gt;n45 -->
<g id="edge45" class="edge">
<title>n44&#45;&gt;n45</title>
<path fill="none" stroke="black" d="M5180.92,-332.75C5180.92,-324.58 5180.92,-315.8 5180.92,-307.27"/>
<polygon fill="black" stroke="black" points="5184.42,-307.06 5180.92,-297.06 5177.42,-307.06 5184.42,-307.06"/>
</g>
<!-- n46 -->
<g id="node47" class="node">
<title>n46</title>
<ellipse fill="#98D2A5" stroke="black" cx="5180.92" cy="-148.43" rx="185.94" ry="37.45"/>
<text text-anchor="middle" x="5180.92" y="-159.73" font-family="Times,serif" font-size="14.00">comunidades</text>
<text text-anchor="middle" x="5180.92" y="-144.73" font-family="Times,serif" font-size="14.00">ncfp000 (pobj)</text>
<text text-anchor="middle" x="5180.92" y="-129.73" font-family="Times,serif" font-size="14.00">rep=no, t=no, r=no, m=yes, c=no</text>
</g>
<!-- n45&#45;&gt;n46 -->
<g id="edge46" class="edge">
<title>n45&#45;&gt;n46</title>
<path fill="none" stroke="black" d="M5180.92,-221.8C5180.92,-213.63 5180.92,-204.85 5180.92,-196.32"/>
<polygon fill="black" stroke="black" points="5184.42,-196.1 5180.92,-186.1 5177.42,-196.1 5184.42,-196.1"/>
</g>
</g>
</svg>
