<?xml version="1.0" encoding="UTF-8" standalone="no"?>
<!DOCTYPE svg PUBLIC "-//W3C//DTD SVG 1.1//EN"
 "http://www.w3.org/Graphics/SVG/1.1/DTD/svg11.dtd">
<!-- Generated by graphviz version 2.43.0 (0)
 -->
<!-- Title: tree Pages: 1 -->
<svg width="3053pt" height="1525pt"
 viewBox="0.00 0.00 3052.89 1525.35" xmlns="http://www.w3.org/2000/svg" xmlns:xlink="http://www.w3.org/1999/xlink">
<g id="graph0" class="graph" transform="scale(1 1) rotate(0) translate(4 1521.35)">
<title>tree</title>
<polygon fill="white" stroke="transparent" points="-4,4 -4,-1521.35 3048.89,-1521.35 3048.89,4 -4,4"/>
<!-- n2 -->
<g id="node1" class="node">
<title>n2</title>
<ellipse fill="#DA79E8" stroke="black" cx="790.92" cy="-1479.87" rx="190.84" ry="37.45"/>
<text text-anchor="middle" x="790.92" y="-1491.17" font-family="Times,serif" font-size="14.00">propondrá</text>
<text text-anchor="middle" x="790.92" y="-1476.17" font-family="Times,serif" font-size="14.00">vmif3s0 (root)</text>
<text text-anchor="middle" x="790.92" y="-1461.17" font-family="Times,serif" font-size="14.00">rep=no, t=no, r=yes, m=yes, c=no</text>
</g>
<!-- n1 -->
<g id="node2" class="node">
<title>n1</title>
<ellipse fill="#BEDA48" stroke="black" cx="190.92" cy="-1368.92" rx="190.84" ry="37.45"/>
<text text-anchor="middle" x="190.92" y="-1380.22" font-family="Times,serif" font-size="14.00">Maragall</text>
<text text-anchor="middle" x="190.92" y="-1365.22" font-family="Times,serif" font-size="14.00">np00000 (nsubj)</text>
<text text-anchor="middle" x="190.92" y="-1350.22" font-family="Times,serif" font-size="14.00">rep=no, t=yes, r=no, m=yes, c=no</text>
</g>
<!-- n2&#45;&gt;n1 -->
<g id="edge1" class="edge">
<title>n2&#45;&gt;n1</title>
<path fill="none" stroke="black" d="M653,-1453.92C575.9,-1439.96 478.06,-1422.23 390.92,-1406.39 373.85,-1403.29 355.97,-1400.03 338.21,-1396.8"/>
<polygon fill="black" stroke="black" points="338.82,-1393.35 328.36,-1395 337.57,-1400.24 338.82,-1393.35"/>
</g>
<!-- n3 -->
<g id="node3" class="node">
<title>n3</title>
<ellipse fill="#DA79E8" stroke="black" cx="590.92" cy="-1368.92" rx="190.84" ry="37.45"/>
<text text-anchor="middle" x="590.92" y="-1380.22" font-family="Times,serif" font-size="14.00">al</text>
<text text-anchor="middle" x="590.92" y="-1365.22" font-family="Times,serif" font-size="14.00">spcms (iobj)</text>
<text text-anchor="middle" x="590.92" y="-1350.22" font-family="Times,serif" font-size="14.00">rep=no, t=no, r=yes, m=yes, c=no</text>
</g>
<!-- n2&#45;&gt;n3 -->
<g id="edge2" class="edge">
<title>n2&#45;&gt;n3</title>
<path fill="none" stroke="black" d="M727.64,-1444.4C707.11,-1433.21 684.18,-1420.72 663.06,-1409.22"/>
<polygon fill="black" stroke="black" points="664.59,-1406.06 654.13,-1404.35 661.24,-1412.21 664.59,-1406.06"/>
</g>
<!-- n6 -->
<g id="node4" class="node">
<title>n6</title>
<ellipse fill="#DA79E8" stroke="black" cx="990.92" cy="-1368.92" rx="190.84" ry="37.45"/>
<text text-anchor="middle" x="990.92" y="-1380.22" font-family="Times,serif" font-size="14.00">búsqueda</text>
<text text-anchor="middle" x="990.92" y="-1365.22" font-family="Times,serif" font-size="14.00">ncfs000 (dobj)</text>
<text text-anchor="middle" x="990.92" y="-1350.22" font-family="Times,serif" font-size="14.00">rep=no, t=no, r=yes, m=yes, c=no</text>
</g>
<!-- n2&#45;&gt;n6 -->
<g id="edge3" class="edge">
<title>n2&#45;&gt;n6</title>
<path fill="none" stroke="black" d="M854.2,-1444.4C874.73,-1433.21 897.65,-1420.72 918.78,-1409.22"/>
<polygon fill="black" stroke="black" points="920.6,-1412.21 927.71,-1404.35 917.25,-1406.06 920.6,-1412.21"/>
</g>
<!-- n30 -->
<g id="node5" class="node">
<title>n30</title>
<ellipse fill="none" stroke="black" cx="1381.92" cy="-1368.92" rx="181.95" ry="37.45"/>
<text text-anchor="middle" x="1381.92" y="-1380.22" font-family="Times,serif" font-size="14.00">.</text>
<text text-anchor="middle" x="1381.92" y="-1365.22" font-family="Times,serif" font-size="14.00">fp (punct)</text>
<text text-anchor="middle" x="1381.92" y="-1350.22" font-family="Times,serif" font-size="14.00">rep=no, t=no, r=no, m=no, c=no</text>
</g>
<!-- n2&#45;&gt;n30 -->
<g id="edge4" class="edge">
<title>n2&#45;&gt;n30</title>
<path fill="none" stroke="black" d="M929.82,-1454.04C1006.79,-1440.19 1104.19,-1422.53 1190.92,-1406.39 1207.22,-1403.36 1224.29,-1400.15 1241.25,-1396.94"/>
<polygon fill="black" stroke="black" points="1242.03,-1400.35 1251.21,-1395.05 1240.73,-1393.47 1242.03,-1400.35"/>
</g>
<!-- n4 -->
<g id="node6" class="node">
<title>n4</title>
<ellipse fill="#DA79E8" stroke="black" cx="590.92" cy="-1257.96" rx="190.84" ry="37.45"/>
<text text-anchor="middle" x="590.92" y="-1269.26" font-family="Times,serif" font-size="14.00">president</text>
<text text-anchor="middle" x="590.92" y="-1254.26" font-family="Times,serif" font-size="14.00">ncms000 (pobj)</text>
<text text-anchor="middle" x="590.92" y="-1239.26" font-family="Times,serif" font-size="14.00">rep=no, t=no, r=yes, m=yes, c=no</text>
</g>
<!-- n3&#45;&gt;n4 -->
<g id="edge5" class="edge">
<title>n3&#45;&gt;n4</title>
<path fill="none" stroke="black" d="M590.92,-1331.33C590.92,-1323.16 590.92,-1314.38 590.92,-1305.85"/>
<polygon fill="black" stroke="black" points="594.42,-1305.64 590.92,-1295.64 587.42,-1305.64 594.42,-1305.64"/>
</g>
<!-- n5 -->
<g id="node7" class="node">
<title>n5</title>
<ellipse fill="#DA79E8" stroke="black" cx="990.92" cy="-1257.96" rx="190.84" ry="37.45"/>
<text text-anchor="middle" x="990.92" y="-1269.26" font-family="Times,serif" font-size="14.00">la</text>
<text text-anchor="middle" x="990.92" y="-1254.26" font-family="Times,serif" font-size="14.00">da0fs0 (det)</text>
<text text-anchor="middle" x="990.92" y="-1239.26" font-family="Times,serif" font-size="14.00">rep=no, t=no, r=yes, m=yes, c=no</text>
</g>
<!-- n6&#45;&gt;n5 -->
<g id="edge6" class="edge">
<title>n6&#45;&gt;n5</title>
<path fill="none" stroke="black" d="M990.92,-1331.33C990.92,-1323.16 990.92,-1314.38 990.92,-1305.85"/>
<polygon fill="black" stroke="black" points="994.42,-1305.64 990.92,-1295.64 987.42,-1305.64 994.42,-1305.64"/>
</g>
<!-- n7 -->
<g id="node8" class="node">
<title>n7</title>
<ellipse fill="#DA79E8" stroke="black" cx="1390.92" cy="-1257.96" rx="190.84" ry="37.45"/>
<text text-anchor="middle" x="1390.92" y="-1269.26" font-family="Times,serif" font-size="14.00">de</text>
<text text-anchor="middle" x="1390.92" y="-1254.26" font-family="Times,serif" font-size="14.00">sps00 (prepn)</text>
<text text-anchor="middle" x="1390.92" y="-1239.26" font-family="Times,serif" font-size="14.00">rep=no, t=no, r=yes, m=yes, c=no</text>
</g>
<!-- n6&#45;&gt;n7 -->
<g id="edge7" class="edge">
<title>n6&#45;&gt;n7</title>
<path fill="none" stroke="black" d="M1100.22,-1338.14C1153.36,-1323.67 1217.33,-1306.25 1271.71,-1291.43"/>
<polygon fill="black" stroke="black" points="1272.67,-1294.8 1281.4,-1288.79 1270.83,-1288.04 1272.67,-1294.8"/>
</g>
<!-- n9 -->
<g id="node9" class="node">
<title>n9</title>
<ellipse fill="#DA79E8" stroke="black" cx="1390.92" cy="-1147.01" rx="190.84" ry="37.45"/>
<text text-anchor="middle" x="1390.92" y="-1158.31" font-family="Times,serif" font-size="14.00">consenso</text>
<text text-anchor="middle" x="1390.92" y="-1143.31" font-family="Times,serif" font-size="14.00">ncms000 (pobj)</text>
<text text-anchor="middle" x="1390.92" y="-1128.31" font-family="Times,serif" font-size="14.00">rep=no, t=no, r=yes, m=yes, c=no</text>
</g>
<!-- n7&#45;&gt;n9 -->
<g id="edge8" class="edge">
<title>n7&#45;&gt;n9</title>
<path fill="none" stroke="black" d="M1390.92,-1220.38C1390.92,-1212.21 1390.92,-1203.43 1390.92,-1194.9"/>
<polygon fill="black" stroke="black" points="1394.42,-1194.68 1390.92,-1184.68 1387.42,-1194.68 1394.42,-1194.68"/>
</g>
<!-- n8 -->
<g id="node10" class="node">
<title>n8</title>
<ellipse fill="#DA79E8" stroke="black" cx="990.92" cy="-1036.06" rx="190.84" ry="37.45"/>
<text text-anchor="middle" x="990.92" y="-1047.36" font-family="Times,serif" font-size="14.00">un</text>
<text text-anchor="middle" x="990.92" y="-1032.36" font-family="Times,serif" font-size="14.00">di0ms0 (det)</text>
<text text-anchor="middle" x="990.92" y="-1017.36" font-family="Times,serif" font-size="14.00">rep=no, t=no, r=yes, m=yes, c=no</text>
</g>
<!-- n9&#45;&gt;n8 -->
<g id="edge9" class="edge">
<title>n9&#45;&gt;n8</title>
<path fill="none" stroke="black" d="M1281.62,-1116.24C1228.48,-1101.76 1164.51,-1084.34 1110.12,-1069.53"/>
<polygon fill="black" stroke="black" points="1111,-1066.14 1100.44,-1066.89 1109.16,-1072.89 1111,-1066.14"/>
</g>
<!-- n10 -->
<g id="node11" class="node">
<title>n10</title>
<ellipse fill="#DA79E8" stroke="black" cx="1390.92" cy="-1036.06" rx="190.84" ry="37.45"/>
<text text-anchor="middle" x="1390.92" y="-1047.36" font-family="Times,serif" font-size="14.00">sobre</text>
<text text-anchor="middle" x="1390.92" y="-1032.36" font-family="Times,serif" font-size="14.00">sps00 (prepn)</text>
<text text-anchor="middle" x="1390.92" y="-1017.36" font-family="Times,serif" font-size="14.00">rep=no, t=no, r=yes, m=yes, c=no</text>
</g>
<!-- n9&#45;&gt;n10 -->
<g id="edge10" class="edge">
<title>n9&#45;&gt;n10</title>
<path fill="none" stroke="black" d="M1390.92,-1109.43C1390.92,-1101.25 1390.92,-1092.47 1390.92,-1083.95"/>
<polygon fill="black" stroke="black" points="1394.42,-1083.73 1390.92,-1073.73 1387.42,-1083.73 1394.42,-1083.73"/>
</g>
<!-- n16 -->
<g id="node12" class="node">
<title>n16</title>
<ellipse fill="none" stroke="black" cx="1785.92" cy="-1036.06" rx="185.94" ry="37.45"/>
<text text-anchor="middle" x="1785.92" y="-1047.36" font-family="Times,serif" font-size="14.00">incluya</text>
<text text-anchor="middle" x="1785.92" y="-1032.36" font-family="Times,serif" font-size="14.00">vmsp3s0 (rcmod)</text>
<text text-anchor="middle" x="1785.92" y="-1017.36" font-family="Times,serif" font-size="14.00">rep=no, t=no, r=no, m=yes, c=no</text>
</g>
<!-- n9&#45;&gt;n16 -->
<g id="edge11" class="edge">
<title>n9&#45;&gt;n16</title>
<path fill="none" stroke="black" d="M1499.38,-1116.09C1551.84,-1101.62 1614.9,-1084.23 1668.49,-1069.45"/>
<polygon fill="black" stroke="black" points="1669.68,-1072.75 1678.39,-1066.72 1667.82,-1066 1669.68,-1072.75"/>
</g>
<!-- n12 -->
<g id="node13" class="node">
<title>n12</title>
<ellipse fill="#DA79E8" stroke="black" cx="1390.92" cy="-925.1" rx="190.84" ry="37.45"/>
<text text-anchor="middle" x="1390.92" y="-936.4" font-family="Times,serif" font-size="14.00">modelo</text>
<text text-anchor="middle" x="1390.92" y="-921.4" font-family="Times,serif" font-size="14.00">ncms000 (pobj)</text>
<text text-anchor="middle" x="1390.92" y="-906.4" font-family="Times,serif" font-size="14.00">rep=no, t=no, r=yes, m=yes, c=no</text>
</g>
<!-- n10&#45;&gt;n12 -->
<g id="edge12" class="edge">
<title>n10&#45;&gt;n12</title>
<path fill="none" stroke="black" d="M1390.92,-998.47C1390.92,-990.3 1390.92,-981.52 1390.92,-972.99"/>
<polygon fill="black" stroke="black" points="1394.42,-972.78 1390.92,-962.78 1387.42,-972.78 1394.42,-972.78"/>
</g>
<!-- n15 -->
<g id="node17" class="node">
<title>n15</title>
<ellipse fill="none" stroke="black" cx="1785.92" cy="-925.1" rx="185.94" ry="37.45"/>
<text text-anchor="middle" x="1785.92" y="-936.4" font-family="Times,serif" font-size="14.00">que</text>
<text text-anchor="middle" x="1785.92" y="-921.4" font-family="Times,serif" font-size="14.00">pr0cn000 (nsubj)</text>
<text text-anchor="middle" x="1785.92" y="-906.4" font-family="Times,serif" font-size="14.00">rep=no, t=no, r=no, m=yes, c=no</text>
</g>
<!-- n16&#45;&gt;n15 -->
<g id="edge16" class="edge">
<title>n16&#45;&gt;n15</title>
<path fill="none" stroke="black" d="M1785.92,-998.47C1785.92,-990.3 1785.92,-981.52 1785.92,-972.99"/>
<polygon fill="black" stroke="black" points="1789.42,-972.78 1785.92,-962.78 1782.42,-972.78 1789.42,-972.78"/>
</g>
<!-- n19 -->
<g id="node18" class="node">
<title>n19</title>
<ellipse fill="none" stroke="black" cx="2175.92" cy="-925.1" rx="185.94" ry="37.45"/>
<text text-anchor="middle" x="2175.92" y="-936.4" font-family="Times,serif" font-size="14.00">propuesta</text>
<text text-anchor="middle" x="2175.92" y="-921.4" font-family="Times,serif" font-size="14.00">ncfs000 (dobj)</text>
<text text-anchor="middle" x="2175.92" y="-906.4" font-family="Times,serif" font-size="14.00">rep=no, t=no, r=no, m=yes, c=no</text>
</g>
<!-- n16&#45;&gt;n19 -->
<g id="edge17" class="edge">
<title>n16&#45;&gt;n19</title>
<path fill="none" stroke="black" d="M1892.49,-1005.28C1944.29,-990.81 2006.66,-973.39 2059.69,-958.57"/>
<polygon fill="black" stroke="black" points="2060.79,-961.9 2069.48,-955.84 2058.91,-955.16 2060.79,-961.9"/>
</g>
<!-- n11 -->
<g id="node14" class="node">
<title>n11</title>
<ellipse fill="#DA79E8" stroke="black" cx="1088.92" cy="-814.15" rx="190.84" ry="37.45"/>
<text text-anchor="middle" x="1088.92" y="-825.45" font-family="Times,serif" font-size="14.00">el</text>
<text text-anchor="middle" x="1088.92" y="-810.45" font-family="Times,serif" font-size="14.00">da0ms0 (det)</text>
<text text-anchor="middle" x="1088.92" y="-795.45" font-family="Times,serif" font-size="14.00">rep=no, t=no, r=yes, m=yes, c=no</text>
</g>
<!-- n12&#45;&gt;n11 -->
<g id="edge13" class="edge">
<title>n12&#45;&gt;n11</title>
<path fill="none" stroke="black" d="M1301.53,-891.86C1265.77,-878.95 1224.44,-864.04 1187.78,-850.82"/>
<polygon fill="black" stroke="black" points="1188.67,-847.42 1178.07,-847.31 1186.29,-854 1188.67,-847.42"/>
</g>
<!-- n13 -->
<g id="node15" class="node">
<title>n13</title>
<ellipse fill="#DA79E8" stroke="black" cx="1488.92" cy="-814.15" rx="190.84" ry="37.45"/>
<text text-anchor="middle" x="1488.92" y="-825.45" font-family="Times,serif" font-size="14.00">de</text>
<text text-anchor="middle" x="1488.92" y="-810.45" font-family="Times,serif" font-size="14.00">sps00 (prepn)</text>
<text text-anchor="middle" x="1488.92" y="-795.45" font-family="Times,serif" font-size="14.00">rep=no, t=no, r=yes, m=yes, c=no</text>
</g>
<!-- n12&#45;&gt;n13 -->
<g id="edge14" class="edge">
<title>n12&#45;&gt;n13</title>
<path fill="none" stroke="black" d="M1423.28,-888.13C1431.73,-878.74 1440.92,-868.51 1449.68,-858.77"/>
<polygon fill="black" stroke="black" points="1452.51,-860.87 1456.59,-851.09 1447.3,-856.18 1452.51,-860.87"/>
</g>
<!-- n14 -->
<g id="node16" class="node">
<title>n14</title>
<ellipse fill="#DA79E8" stroke="black" cx="1488.92" cy="-703.2" rx="190.84" ry="37.45"/>
<text text-anchor="middle" x="1488.92" y="-714.5" font-family="Times,serif" font-size="14.00">fiscal</text>
<text text-anchor="middle" x="1488.92" y="-699.5" font-family="Times,serif" font-size="14.00">nccs000 (pobj)</text>
<text text-anchor="middle" x="1488.92" y="-684.5" font-family="Times,serif" font-size="14.00">rep=no, t=no, r=yes, m=yes, c=no</text>
</g>
<!-- n13&#45;&gt;n14 -->
<g id="edge15" class="edge">
<title>n13&#45;&gt;n14</title>
<path fill="none" stroke="black" d="M1488.92,-776.57C1488.92,-768.39 1488.92,-759.61 1488.92,-751.09"/>
<polygon fill="black" stroke="black" points="1492.42,-750.87 1488.92,-740.87 1485.42,-750.87 1492.42,-750.87"/>
</g>
<!-- n18 -->
<g id="node19" class="node">
<title>n18</title>
<ellipse fill="none" stroke="black" cx="2078.92" cy="-814.15" rx="185.94" ry="37.45"/>
<text text-anchor="middle" x="2078.92" y="-825.45" font-family="Times,serif" font-size="14.00">una</text>
<text text-anchor="middle" x="2078.92" y="-810.45" font-family="Times,serif" font-size="14.00">di0fs0 (det)</text>
<text text-anchor="middle" x="2078.92" y="-795.45" font-family="Times,serif" font-size="14.00">rep=no, t=no, r=no, m=yes, c=no</text>
</g>
<!-- n19&#45;&gt;n18 -->
<g id="edge18" class="edge">
<title>n19&#45;&gt;n18</title>
<path fill="none" stroke="black" d="M2143.89,-888.13C2135.53,-878.74 2126.43,-868.51 2117.76,-858.77"/>
<polygon fill="black" stroke="black" points="2120.18,-856.23 2110.92,-851.09 2114.95,-860.89 2120.18,-856.23"/>
</g>
<!-- n20 -->
<g id="node20" class="node">
<title>n20</title>
<ellipse fill="none" stroke="black" cx="2468.92" cy="-814.15" rx="185.94" ry="37.45"/>
<text text-anchor="middle" x="2468.92" y="-825.45" font-family="Times,serif" font-size="14.00">para</text>
<text text-anchor="middle" x="2468.92" y="-810.45" font-family="Times,serif" font-size="14.00">sps00 (prepn)</text>
<text text-anchor="middle" x="2468.92" y="-795.45" font-family="Times,serif" font-size="14.00">rep=no, t=no, r=no, m=yes, c=no</text>
</g>
<!-- n19&#45;&gt;n20 -->
<g id="edge19" class="edge">
<title>n19&#45;&gt;n20</title>
<path fill="none" stroke="black" d="M2262.64,-891.86C2297.26,-878.98 2337.26,-864.11 2372.76,-850.91"/>
<polygon fill="black" stroke="black" points="2374.01,-854.17 2382.17,-847.41 2371.58,-847.61 2374.01,-854.17"/>
</g>
<!-- n17 -->
<g id="node21" class="node">
<title>n17</title>
<ellipse fill="none" stroke="black" cx="2078.92" cy="-703.2" rx="185.94" ry="37.45"/>
<text text-anchor="middle" x="2078.92" y="-714.5" font-family="Times,serif" font-size="14.00">también</text>
<text text-anchor="middle" x="2078.92" y="-699.5" font-family="Times,serif" font-size="14.00">rg (advmod)</text>
<text text-anchor="middle" x="2078.92" y="-684.5" font-family="Times,serif" font-size="14.00">rep=no, t=no, r=no, m=yes, c=no</text>
</g>
<!-- n18&#45;&gt;n17 -->
<g id="edge20" class="edge">
<title>n18&#45;&gt;n17</title>
<path fill="none" stroke="black" d="M2078.92,-776.57C2078.92,-768.39 2078.92,-759.61 2078.92,-751.09"/>
<polygon fill="black" stroke="black" points="2082.42,-750.87 2078.92,-740.87 2075.42,-750.87 2082.42,-750.87"/>
</g>
<!-- n21 -->
<g id="node22" class="node">
<title>n21</title>
<ellipse fill="none" stroke="black" cx="2468.92" cy="-703.2" rx="185.94" ry="37.45"/>
<text text-anchor="middle" x="2468.92" y="-714.5" font-family="Times,serif" font-size="14.00">solucionar</text>
<text text-anchor="middle" x="2468.92" y="-699.5" font-family="Times,serif" font-size="14.00">vmn0000 (pobj)</text>
<text text-anchor="middle" x="2468.92" y="-684.5" font-family="Times,serif" font-size="14.00">rep=no, t=no, r=no, m=yes, c=no</text>
</g>
<!-- n20&#45;&gt;n21 -->
<g id="edge21" class="edge">
<title>n20&#45;&gt;n21</title>
<path fill="none" stroke="black" d="M2468.92,-776.57C2468.92,-768.39 2468.92,-759.61 2468.92,-751.09"/>
<polygon fill="black" stroke="black" points="2472.42,-750.87 2468.92,-740.87 2465.42,-750.87 2472.42,-750.87"/>
</g>
<!-- n23 -->
<g id="node23" class="node">
<title>n23</title>
<ellipse fill="none" stroke="black" cx="2468.92" cy="-592.24" rx="185.94" ry="37.45"/>
<text text-anchor="middle" x="2468.92" y="-603.54" font-family="Times,serif" font-size="14.00">problema</text>
<text text-anchor="middle" x="2468.92" y="-588.54" font-family="Times,serif" font-size="14.00">ncms000 (dobj)</text>
<text text-anchor="middle" x="2468.92" y="-573.54" font-family="Times,serif" font-size="14.00">rep=no, t=no, r=no, m=yes, c=no</text>
</g>
<!-- n21&#45;&gt;n23 -->
<g id="edge22" class="edge">
<title>n21&#45;&gt;n23</title>
<path fill="none" stroke="black" d="M2468.92,-665.61C2468.92,-657.44 2468.92,-648.66 2468.92,-640.13"/>
<polygon fill="black" stroke="black" points="2472.42,-639.92 2468.92,-629.92 2465.42,-639.92 2472.42,-639.92"/>
</g>
<!-- n22 -->
<g id="node24" class="node">
<title>n22</title>
<ellipse fill="none" stroke="black" cx="2273.92" cy="-481.29" rx="185.94" ry="37.45"/>
<text text-anchor="middle" x="2273.92" y="-492.59" font-family="Times,serif" font-size="14.00">el</text>
<text text-anchor="middle" x="2273.92" y="-477.59" font-family="Times,serif" font-size="14.00">da0ms0 (det)</text>
<text text-anchor="middle" x="2273.92" y="-462.59" font-family="Times,serif" font-size="14.00">rep=no, t=no, r=no, m=yes, c=no</text>
</g>
<!-- n23&#45;&gt;n22 -->
<g id="edge23" class="edge">
<title>n23&#45;&gt;n22</title>
<path fill="none" stroke="black" d="M2407.22,-556.77C2387.29,-545.64 2365.05,-533.21 2344.53,-521.75"/>
<polygon fill="black" stroke="black" points="2345.99,-518.55 2335.55,-516.73 2342.57,-524.66 2345.99,-518.55"/>
</g>
<!-- n24 -->
<g id="node25" class="node">
<title>n24</title>
<ellipse fill="none" stroke="black" cx="2663.92" cy="-481.29" rx="185.94" ry="37.45"/>
<text text-anchor="middle" x="2663.92" y="-492.59" font-family="Times,serif" font-size="14.00">de</text>
<text text-anchor="middle" x="2663.92" y="-477.59" font-family="Times,serif" font-size="14.00">sps00 (prepn)</text>
<text text-anchor="middle" x="2663.92" y="-462.59" font-family="Times,serif" font-size="14.00">rep=no, t=no, r=no, m=yes, c=no</text>
</g>
<!-- n23&#45;&gt;n24 -->
<g id="edge24" class="edge">
<title>n23&#45;&gt;n24</title>
<path fill="none" stroke="black" d="M2530.62,-556.77C2550.54,-545.64 2572.79,-533.21 2593.3,-521.75"/>
<polygon fill="black" stroke="black" points="2595.26,-524.66 2602.29,-516.73 2591.85,-518.55 2595.26,-524.66"/>
</g>
<!-- n26 -->
<g id="node26" class="node">
<title>n26</title>
<ellipse fill="none" stroke="black" cx="2663.92" cy="-370.34" rx="185.94" ry="37.45"/>
<text text-anchor="middle" x="2663.92" y="-381.64" font-family="Times,serif" font-size="14.00">financiación</text>
<text text-anchor="middle" x="2663.92" y="-366.64" font-family="Times,serif" font-size="14.00">ncfs000 (pobj)</text>
<text text-anchor="middle" x="2663.92" y="-351.64" font-family="Times,serif" font-size="14.00">rep=no, t=no, r=no, m=yes, c=no</text>
</g>
<!-- n24&#45;&gt;n26 -->
<g id="edge25" class="edge">
<title>n24&#45;&gt;n26</title>
<path fill="none" stroke="black" d="M2663.92,-443.71C2663.92,-435.53 2663.92,-426.75 2663.92,-418.23"/>
<polygon fill="black" stroke="black" points="2667.42,-418.01 2663.92,-408.01 2660.42,-418.01 2667.42,-418.01"/>
</g>
<!-- n25 -->
<g id="node27" class="node">
<title>n25</title>
<ellipse fill="none" stroke="black" cx="2468.92" cy="-259.38" rx="185.94" ry="37.45"/>
<text text-anchor="middle" x="2468.92" y="-270.68" font-family="Times,serif" font-size="14.00">la</text>
<text text-anchor="middle" x="2468.92" y="-255.68" font-family="Times,serif" font-size="14.00">da0fs0 (det)</text>
<text text-anchor="middle" x="2468.92" y="-240.68" font-family="Times,serif" font-size="14.00">rep=no, t=no, r=no, m=yes, c=no</text>
</g>
<!-- n26&#45;&gt;n25 -->
<g id="edge26" class="edge">
<title>n26&#45;&gt;n25</title>
<path fill="none" stroke="black" d="M2602.22,-334.86C2582.29,-323.73 2560.05,-311.3 2539.53,-299.84"/>
<polygon fill="black" stroke="black" points="2540.99,-296.64 2530.55,-294.82 2537.57,-302.75 2540.99,-296.64"/>
</g>
<!-- n27 -->
<g id="node28" class="node">
<title>n27</title>
<ellipse fill="none" stroke="black" cx="2858.92" cy="-259.38" rx="185.94" ry="37.45"/>
<text text-anchor="middle" x="2858.92" y="-270.68" font-family="Times,serif" font-size="14.00">de</text>
<text text-anchor="middle" x="2858.92" y="-255.68" font-family="Times,serif" font-size="14.00">sps00 (prepn)</text>
<text text-anchor="middle" x="2858.92" y="-240.68" font-family="Times,serif" font-size="14.00">rep=no, t=no, r=no, m=yes, c=no</text>
</g>
<!-- n26&#45;&gt;n27 -->
<g id="edge27" class="edge">
<title>n26&#45;&gt;n27</title>
<path fill="none" stroke="black" d="M2725.62,-334.86C2745.54,-323.73 2767.79,-311.3 2788.3,-299.84"/>
<polygon fill="black" stroke="black" points="2790.26,-302.75 2797.29,-294.82 2786.85,-296.64 2790.26,-302.75"/>
</g>
<!-- n29 -->
<g id="node29" class="node">
<title>n29</title>
<ellipse fill="none" stroke="black" cx="2858.92" cy="-148.43" rx="185.94" ry="37.45"/>
<text text-anchor="middle" x="2858.92" y="-159.73" font-family="Times,serif" font-size="14.00">ayuntamientos</text>
<text text-anchor="middle" x="2858.92" y="-144.73" font-family="Times,serif" font-size="14.00">ncmp000 (pobj)</text>
<text text-anchor="middle" x="2858.92" y="-129.73" font-family="Times,serif" font-size="14.00">rep=no, t=no, r=no, m=yes, c=no</text>
</g>
<!-- n27&#45;&gt;n29 -->
<g id="edge28" class="edge">
<title>n27&#45;&gt;n29</title>
<path fill="none" stroke="black" d="M2858.92,-221.8C2858.92,-213.63 2858.92,-204.85 2858.92,-196.32"/>
<polygon fill="black" stroke="black" points="2862.42,-196.1 2858.92,-186.1 2855.42,-196.1 2862.42,-196.1"/>
</g>
<!-- n28 -->
<g id="node30" class="node">
<title>n28</title>
<ellipse fill="none" stroke="black" cx="2858.92" cy="-37.48" rx="185.94" ry="37.45"/>
<text text-anchor="middle" x="2858.92" y="-48.78" font-family="Times,serif" font-size="14.00">los</text>
<text text-anchor="middle" x="2858.92" y="-33.78" font-family="Times,serif" font-size="14.00">da0mp0 (det)</text>
<text text-anchor="middle" x="2858.92" y="-18.78" font-family="Times,serif" font-size="14.00">rep=no, t=no, r=no, m=yes, c=no</text>
</g>
<!-- n29&#45;&gt;n28 -->
<g id="edge29" class="edge">
<title>n29&#45;&gt;n28</title>
<path fill="none" stroke="black" d="M2858.92,-110.85C2858.92,-102.67 2858.92,-93.89 2858.92,-85.37"/>
<polygon fill="black" stroke="black" points="2862.42,-85.15 2858.92,-75.15 2855.42,-85.15 2862.42,-85.15"/>
</g>
</g>
</svg>
