<?xml version="1.0" encoding="UTF-8" standalone="no"?>
<!DOCTYPE svg PUBLIC "-//W3C//DTD SVG 1.1//EN"
 "http://www.w3.org/Graphics/SVG/1.1/DTD/svg11.dtd">
<!-- Generated by graphviz version 2.43.0 (0)
 -->
<!-- Title: tree Pages: 1 -->
<svg width="4177pt" height="2302pt"
 viewBox="0.00 0.00 4176.89 2302.02" xmlns="http://www.w3.org/2000/svg" xmlns:xlink="http://www.w3.org/1999/xlink">
<g id="graph0" class="graph" transform="scale(1 1) rotate(0) translate(4 2298.02)">
<title>tree</title>
<polygon fill="white" stroke="transparent" points="-4,4 -4,-2298.02 4172.89,-2298.02 4172.89,4 -4,4"/>
<!-- n3 -->
<g id="node1" class="node">
<title>n3</title>
<ellipse fill="#DA79E8" stroke="black" cx="1395.92" cy="-2256.54" rx="190.84" ry="37.45"/>
<text text-anchor="middle" x="1395.92" y="-2267.84" font-family="Times,serif" font-size="14.00">acudirá</text>
<text text-anchor="middle" x="1395.92" y="-2252.84" font-family="Times,serif" font-size="14.00">vmif3s0 (root)</text>
<text text-anchor="middle" x="1395.92" y="-2237.84" font-family="Times,serif" font-size="14.00">rep=no, t=no, r=yes, m=yes, c=no</text>
</g>
<!-- n1 -->
<g id="node2" class="node">
<title>n1</title>
<ellipse fill="#BEDA48" stroke="black" cx="190.92" cy="-2145.59" rx="190.84" ry="37.45"/>
<text text-anchor="middle" x="190.92" y="-2156.89" font-family="Times,serif" font-size="14.00">Pasqual</text>
<text text-anchor="middle" x="190.92" y="-2141.89" font-family="Times,serif" font-size="14.00">np0000l (nsubj)</text>
<text text-anchor="middle" x="190.92" y="-2126.89" font-family="Times,serif" font-size="14.00">rep=no, t=yes, r=no, m=yes, c=no</text>
</g>
<!-- n3&#45;&gt;n1 -->
<g id="edge1" class="edge">
<title>n3&#45;&gt;n1</title>
<path fill="none" stroke="black" d="M1209.63,-2248.16C1007.43,-2238.73 675.31,-2219.15 390.92,-2183.07 372.13,-2180.68 352.44,-2177.7 333.04,-2174.46"/>
<polygon fill="black" stroke="black" points="333.37,-2170.97 322.93,-2172.75 332.21,-2177.87 333.37,-2170.97"/>
</g>
<!-- n4 -->
<g id="node3" class="node">
<title>n4</title>
<ellipse fill="#DA79E8" stroke="black" cx="590.92" cy="-2145.59" rx="190.84" ry="37.45"/>
<text text-anchor="middle" x="590.92" y="-2156.89" font-family="Times,serif" font-size="14.00">a</text>
<text text-anchor="middle" x="590.92" y="-2141.89" font-family="Times,serif" font-size="14.00">sps00 (prepv)</text>
<text text-anchor="middle" x="590.92" y="-2126.89" font-family="Times,serif" font-size="14.00">rep=no, t=no, r=yes, m=yes, c=no</text>
</g>
<!-- n3&#45;&gt;n4 -->
<g id="edge2" class="edge">
<title>n3&#45;&gt;n4</title>
<path fill="none" stroke="black" d="M1228.96,-2238.32C1107.26,-2225.09 938.54,-2205.35 790.92,-2183.07 772.87,-2180.34 753.96,-2177.23 735.26,-2174"/>
<polygon fill="black" stroke="black" points="735.66,-2170.52 725.21,-2172.25 734.46,-2177.41 735.66,-2170.52"/>
</g>
<!-- n7 -->
<g id="node4" class="node">
<title>n7</title>
<ellipse fill="#DA79E8" stroke="black" cx="990.92" cy="-2145.59" rx="190.84" ry="37.45"/>
<text text-anchor="middle" x="990.92" y="-2156.89" font-family="Times,serif" font-size="14.00">con</text>
<text text-anchor="middle" x="990.92" y="-2141.89" font-family="Times,serif" font-size="14.00">sps00 (prepv)</text>
<text text-anchor="middle" x="990.92" y="-2126.89" font-family="Times,serif" font-size="14.00">rep=no, t=no, r=yes, m=yes, c=no</text>
</g>
<!-- n3&#45;&gt;n7 -->
<g id="edge3" class="edge">
<title>n3&#45;&gt;n7</title>
<path fill="none" stroke="black" d="M1285.79,-2225.91C1231.65,-2211.35 1166.3,-2193.77 1110.9,-2178.87"/>
<polygon fill="black" stroke="black" points="1111.6,-2175.43 1101.03,-2176.21 1109.78,-2182.19 1111.6,-2175.43"/>
</g>
<!-- n10 -->
<g id="node5" class="node">
<title>n10</title>
<ellipse fill="#DA79E8" stroke="black" cx="1395.92" cy="-2145.59" rx="195.74" ry="37.45"/>
<text text-anchor="middle" x="1395.92" y="-2156.89" font-family="Times,serif" font-size="14.00">con</text>
<text text-anchor="middle" x="1395.92" y="-2141.89" font-family="Times,serif" font-size="14.00">sps00 (dep)</text>
<text text-anchor="middle" x="1395.92" y="-2126.89" font-family="Times,serif" font-size="14.00">rep=no, t=no, r=yes, m=yes, c=yes</text>
</g>
<!-- n3&#45;&gt;n10 -->
<g id="edge4" class="edge">
<title>n3&#45;&gt;n10</title>
<path fill="none" stroke="black" d="M1395.92,-2218.96C1395.92,-2210.79 1395.92,-2202.01 1395.92,-2193.48"/>
<polygon fill="black" stroke="black" points="1399.42,-2193.26 1395.92,-2183.26 1392.42,-2193.26 1399.42,-2193.26"/>
</g>
<!-- n20 -->
<g id="node6" class="node">
<title>n20</title>
<ellipse fill="#DA79E8" stroke="black" cx="1800.92" cy="-2145.59" rx="190.84" ry="37.45"/>
<text text-anchor="middle" x="1800.92" y="-2156.89" font-family="Times,serif" font-size="14.00">y</text>
<text text-anchor="middle" x="1800.92" y="-2141.89" font-family="Times,serif" font-size="14.00">cc (coord_fixed)</text>
<text text-anchor="middle" x="1800.92" y="-2126.89" font-family="Times,serif" font-size="14.00">rep=no, t=no, r=yes, m=yes, c=no</text>
</g>
<!-- n3&#45;&gt;n20 -->
<g id="edge5" class="edge">
<title>n3&#45;&gt;n20</title>
<path fill="none" stroke="black" d="M1506.05,-2225.91C1560.19,-2211.35 1625.54,-2193.77 1680.94,-2178.87"/>
<polygon fill="black" stroke="black" points="1682.06,-2182.19 1690.81,-2176.21 1680.24,-2175.43 1682.06,-2182.19"/>
</g>
<!-- n21 -->
<g id="node7" class="node">
<title>n21</title>
<ellipse fill="#DA79E8" stroke="black" cx="2205.92" cy="-2145.59" rx="195.74" ry="37.45"/>
<text text-anchor="middle" x="2205.92" y="-2156.89" font-family="Times,serif" font-size="14.00">con</text>
<text text-anchor="middle" x="2205.92" y="-2141.89" font-family="Times,serif" font-size="14.00">sps00 (dep)</text>
<text text-anchor="middle" x="2205.92" y="-2126.89" font-family="Times,serif" font-size="14.00">rep=no, t=no, r=yes, m=yes, c=yes</text>
</g>
<!-- n3&#45;&gt;n21 -->
<g id="edge6" class="edge">
<title>n3&#45;&gt;n21</title>
<path fill="none" stroke="black" d="M1562.53,-2238.16C1684.24,-2224.84 1853.12,-2205.05 2000.92,-2183.07 2019.42,-2180.32 2038.81,-2177.19 2057.98,-2173.94"/>
<polygon fill="black" stroke="black" points="2058.71,-2177.37 2067.98,-2172.24 2057.53,-2170.47 2058.71,-2177.37"/>
</g>
<!-- n51 -->
<g id="node8" class="node">
<title>n51</title>
<ellipse fill="none" stroke="black" cx="2601.92" cy="-2145.59" rx="181.95" ry="37.45"/>
<text text-anchor="middle" x="2601.92" y="-2156.89" font-family="Times,serif" font-size="14.00">.</text>
<text text-anchor="middle" x="2601.92" y="-2141.89" font-family="Times,serif" font-size="14.00">fp (punct)</text>
<text text-anchor="middle" x="2601.92" y="-2126.89" font-family="Times,serif" font-size="14.00">rep=no, t=no, r=no, m=no, c=no</text>
</g>
<!-- n3&#45;&gt;n51 -->
<g id="edge7" class="edge">
<title>n3&#45;&gt;n51</title>
<path fill="none" stroke="black" d="M1582.72,-2248.78C1786.85,-2239.86 2123.2,-2220.68 2410.92,-2183.07 2428.94,-2180.71 2447.82,-2177.73 2466.41,-2174.5"/>
<polygon fill="black" stroke="black" points="2467.16,-2177.92 2476.4,-2172.73 2465.94,-2171.03 2467.16,-2177.92"/>
</g>
<!-- n2 -->
<g id="node9" class="node">
<title>n2</title>
<ellipse fill="#BEDA48" stroke="black" cx="190.92" cy="-2034.64" rx="190.84" ry="37.45"/>
<text text-anchor="middle" x="190.92" y="-2045.94" font-family="Times,serif" font-size="14.00">Maragall</text>
<text text-anchor="middle" x="190.92" y="-2030.94" font-family="Times,serif" font-size="14.00">np0000l (appos)</text>
<text text-anchor="middle" x="190.92" y="-2015.94" font-family="Times,serif" font-size="14.00">rep=no, t=yes, r=no, m=yes, c=no</text>
</g>
<!-- n1&#45;&gt;n2 -->
<g id="edge8" class="edge">
<title>n1&#45;&gt;n2</title>
<path fill="none" stroke="black" d="M190.92,-2108.01C190.92,-2099.83 190.92,-2091.05 190.92,-2082.53"/>
<polygon fill="black" stroke="black" points="194.42,-2082.31 190.92,-2072.31 187.42,-2082.31 194.42,-2082.31"/>
</g>
<!-- n6 -->
<g id="node10" class="node">
<title>n6</title>
<ellipse fill="#DA79E8" stroke="black" cx="590.92" cy="-2034.64" rx="190.84" ry="37.45"/>
<text text-anchor="middle" x="590.92" y="-2045.94" font-family="Times,serif" font-size="14.00">reunión</text>
<text text-anchor="middle" x="590.92" y="-2030.94" font-family="Times,serif" font-size="14.00">ncfs000 (pobj)</text>
<text text-anchor="middle" x="590.92" y="-2015.94" font-family="Times,serif" font-size="14.00">rep=no, t=no, r=yes, m=yes, c=no</text>
</g>
<!-- n4&#45;&gt;n6 -->
<g id="edge9" class="edge">
<title>n4&#45;&gt;n6</title>
<path fill="none" stroke="black" d="M590.92,-2108.01C590.92,-2099.83 590.92,-2091.05 590.92,-2082.53"/>
<polygon fill="black" stroke="black" points="594.42,-2082.31 590.92,-2072.31 587.42,-2082.31 594.42,-2082.31"/>
</g>
<!-- n8 -->
<g id="node12" class="node">
<title>n8</title>
<ellipse fill="#DA79E8" stroke="black" cx="990.92" cy="-2034.64" rx="190.84" ry="37.45"/>
<text text-anchor="middle" x="990.92" y="-2045.94" font-family="Times,serif" font-size="14.00">Jordi</text>
<text text-anchor="middle" x="990.92" y="-2030.94" font-family="Times,serif" font-size="14.00">np0000l (pobj)</text>
<text text-anchor="middle" x="990.92" y="-2015.94" font-family="Times,serif" font-size="14.00">rep=no, t=no, r=yes, m=yes, c=no</text>
</g>
<!-- n7&#45;&gt;n8 -->
<g id="edge11" class="edge">
<title>n7&#45;&gt;n8</title>
<path fill="none" stroke="black" d="M990.92,-2108.01C990.92,-2099.83 990.92,-2091.05 990.92,-2082.53"/>
<polygon fill="black" stroke="black" points="994.42,-2082.31 990.92,-2072.31 987.42,-2082.31 994.42,-2082.31"/>
</g>
<!-- n12 -->
<g id="node14" class="node">
<title>n12</title>
<ellipse fill="#DA79E8" stroke="black" cx="1400.92" cy="-2034.64" rx="190.84" ry="37.45"/>
<text text-anchor="middle" x="1400.92" y="-2045.94" font-family="Times,serif" font-size="14.00">paquete</text>
<text text-anchor="middle" x="1400.92" y="-2030.94" font-family="Times,serif" font-size="14.00">nccs000 (pobj)</text>
<text text-anchor="middle" x="1400.92" y="-2015.94" font-family="Times,serif" font-size="14.00">rep=no, t=no, r=yes, m=yes, c=no</text>
</g>
<!-- n10&#45;&gt;n12 -->
<g id="edge13" class="edge">
<title>n10&#45;&gt;n12</title>
<path fill="none" stroke="black" d="M1397.6,-2108.01C1397.97,-2099.83 1398.38,-2091.05 1398.77,-2082.53"/>
<polygon fill="black" stroke="black" points="1402.27,-2082.46 1399.24,-2072.31 1395.28,-2082.14 1402.27,-2082.46"/>
</g>
<!-- n23 -->
<g id="node23" class="node">
<title>n23</title>
<ellipse fill="#DA79E8" stroke="black" cx="2397.92" cy="-2034.64" rx="190.84" ry="37.45"/>
<text text-anchor="middle" x="2397.92" y="-2045.94" font-family="Times,serif" font-size="14.00">objetivo</text>
<text text-anchor="middle" x="2397.92" y="-2030.94" font-family="Times,serif" font-size="14.00">ncms000 (pobj)</text>
<text text-anchor="middle" x="2397.92" y="-2015.94" font-family="Times,serif" font-size="14.00">rep=no, t=no, r=yes, m=yes, c=no</text>
</g>
<!-- n21&#45;&gt;n23 -->
<g id="edge22" class="edge">
<title>n21&#45;&gt;n23</title>
<path fill="none" stroke="black" d="M2266.93,-2109.97C2286.45,-2098.89 2308.19,-2086.55 2328.27,-2075.16"/>
<polygon fill="black" stroke="black" points="2330.09,-2078.15 2337.06,-2070.17 2326.64,-2072.06 2330.09,-2078.15"/>
</g>
<!-- n5 -->
<g id="node11" class="node">
<title>n5</title>
<ellipse fill="#DA79E8" stroke="black" cx="397.92" cy="-1923.68" rx="190.84" ry="37.45"/>
<text text-anchor="middle" x="397.92" y="-1934.98" font-family="Times,serif" font-size="14.00">la</text>
<text text-anchor="middle" x="397.92" y="-1919.98" font-family="Times,serif" font-size="14.00">da0fs0 (det)</text>
<text text-anchor="middle" x="397.92" y="-1904.98" font-family="Times,serif" font-size="14.00">rep=no, t=no, r=yes, m=yes, c=no</text>
</g>
<!-- n6&#45;&gt;n5 -->
<g id="edge10" class="edge">
<title>n6&#45;&gt;n5</title>
<path fill="none" stroke="black" d="M529.59,-1999.01C509.97,-1987.94 488.11,-1975.6 467.93,-1964.21"/>
<polygon fill="black" stroke="black" points="469.52,-1961.08 459.09,-1959.22 466.08,-1967.18 469.52,-1961.08"/>
</g>
<!-- n9 -->
<g id="node13" class="node">
<title>n9</title>
<ellipse fill="#DA79E8" stroke="black" cx="797.92" cy="-1923.68" rx="190.84" ry="37.45"/>
<text text-anchor="middle" x="797.92" y="-1934.98" font-family="Times,serif" font-size="14.00">Pujol</text>
<text text-anchor="middle" x="797.92" y="-1919.98" font-family="Times,serif" font-size="14.00">np0000l (appos)</text>
<text text-anchor="middle" x="797.92" y="-1904.98" font-family="Times,serif" font-size="14.00">rep=no, t=no, r=yes, m=yes, c=no</text>
</g>
<!-- n8&#45;&gt;n9 -->
<g id="edge12" class="edge">
<title>n8&#45;&gt;n9</title>
<path fill="none" stroke="black" d="M929.59,-1999.01C909.97,-1987.94 888.11,-1975.6 867.93,-1964.21"/>
<polygon fill="black" stroke="black" points="869.52,-1961.08 859.09,-1959.22 866.08,-1967.18 869.52,-1961.08"/>
</g>
<!-- n11 -->
<g id="node15" class="node">
<title>n11</title>
<ellipse fill="#DA79E8" stroke="black" cx="1197.92" cy="-1923.68" rx="190.84" ry="37.45"/>
<text text-anchor="middle" x="1197.92" y="-1934.98" font-family="Times,serif" font-size="14.00">un</text>
<text text-anchor="middle" x="1197.92" y="-1919.98" font-family="Times,serif" font-size="14.00">di0ms0 (det)</text>
<text text-anchor="middle" x="1197.92" y="-1904.98" font-family="Times,serif" font-size="14.00">rep=no, t=no, r=yes, m=yes, c=no</text>
</g>
<!-- n12&#45;&gt;n11 -->
<g id="edge14" class="edge">
<title>n12&#45;&gt;n11</title>
<path fill="none" stroke="black" d="M1336.97,-1999.31C1315.93,-1988.02 1292.38,-1975.38 1270.73,-1963.76"/>
<polygon fill="black" stroke="black" points="1272.36,-1960.67 1261.9,-1959.02 1269.05,-1966.83 1272.36,-1960.67"/>
</g>
<!-- n13 -->
<g id="node16" class="node">
<title>n13</title>
<ellipse fill="#DA79E8" stroke="black" cx="1597.92" cy="-1923.68" rx="190.84" ry="37.45"/>
<text text-anchor="middle" x="1597.92" y="-1934.98" font-family="Times,serif" font-size="14.00">de</text>
<text text-anchor="middle" x="1597.92" y="-1919.98" font-family="Times,serif" font-size="14.00">sps00 (prepn)</text>
<text text-anchor="middle" x="1597.92" y="-1904.98" font-family="Times,serif" font-size="14.00">rep=no, t=no, r=yes, m=yes, c=no</text>
</g>
<!-- n12&#45;&gt;n13 -->
<g id="edge15" class="edge">
<title>n12&#45;&gt;n13</title>
<path fill="none" stroke="black" d="M1463.25,-1999.16C1483.47,-1987.98 1506.05,-1975.49 1526.86,-1963.98"/>
<polygon fill="black" stroke="black" points="1528.6,-1967.02 1535.65,-1959.12 1525.21,-1960.9 1528.6,-1967.02"/>
</g>
<!-- n17 -->
<g id="node17" class="node">
<title>n17</title>
<ellipse fill="#DA79E8" stroke="black" cx="1997.92" cy="-1923.68" rx="190.84" ry="37.45"/>
<text text-anchor="middle" x="1997.92" y="-1934.98" font-family="Times,serif" font-size="14.00">bajo</text>
<text text-anchor="middle" x="1997.92" y="-1919.98" font-family="Times,serif" font-size="14.00">sps00 (prepn)</text>
<text text-anchor="middle" x="1997.92" y="-1904.98" font-family="Times,serif" font-size="14.00">rep=no, t=no, r=yes, m=yes, c=no</text>
</g>
<!-- n12&#45;&gt;n17 -->
<g id="edge16" class="edge">
<title>n12&#45;&gt;n17</title>
<path fill="none" stroke="black" d="M1538.26,-2008.57C1631.62,-1991.53 1755.01,-1969.01 1850.45,-1951.6"/>
<polygon fill="black" stroke="black" points="1851.26,-1955.01 1860.47,-1949.77 1850,-1948.12 1851.26,-1955.01"/>
</g>
<!-- n14 -->
<g id="node18" class="node">
<title>n14</title>
<ellipse fill="#DA79E8" stroke="black" cx="1597.92" cy="-1812.73" rx="190.84" ry="37.45"/>
<text text-anchor="middle" x="1597.92" y="-1824.03" font-family="Times,serif" font-size="14.00">propuestas</text>
<text text-anchor="middle" x="1597.92" y="-1809.03" font-family="Times,serif" font-size="14.00">ncfp000 (pobj)</text>
<text text-anchor="middle" x="1597.92" y="-1794.03" font-family="Times,serif" font-size="14.00">rep=no, t=no, r=yes, m=yes, c=no</text>
</g>
<!-- n13&#45;&gt;n14 -->
<g id="edge17" class="edge">
<title>n13&#45;&gt;n14</title>
<path fill="none" stroke="black" d="M1597.92,-1886.1C1597.92,-1877.93 1597.92,-1869.15 1597.92,-1860.62"/>
<polygon fill="black" stroke="black" points="1601.42,-1860.4 1597.92,-1850.4 1594.42,-1860.4 1601.42,-1860.4"/>
</g>
<!-- n19 -->
<g id="node21" class="node">
<title>n19</title>
<ellipse fill="#DA79E8" stroke="black" cx="1997.92" cy="-1812.73" rx="190.84" ry="37.45"/>
<text text-anchor="middle" x="1997.92" y="-1824.03" font-family="Times,serif" font-size="14.00">brazo</text>
<text text-anchor="middle" x="1997.92" y="-1809.03" font-family="Times,serif" font-size="14.00">ncms000 (pobj)</text>
<text text-anchor="middle" x="1997.92" y="-1794.03" font-family="Times,serif" font-size="14.00">rep=no, t=no, r=yes, m=yes, c=no</text>
</g>
<!-- n17&#45;&gt;n19 -->
<g id="edge20" class="edge">
<title>n17&#45;&gt;n19</title>
<path fill="none" stroke="black" d="M1997.92,-1886.1C1997.92,-1877.93 1997.92,-1869.15 1997.92,-1860.62"/>
<polygon fill="black" stroke="black" points="2001.42,-1860.4 1997.92,-1850.4 1994.42,-1860.4 2001.42,-1860.4"/>
</g>
<!-- n15 -->
<g id="node19" class="node">
<title>n15</title>
<ellipse fill="#DA79E8" stroke="black" cx="1597.92" cy="-1701.78" rx="190.84" ry="37.45"/>
<text text-anchor="middle" x="1597.92" y="-1713.08" font-family="Times,serif" font-size="14.00">de</text>
<text text-anchor="middle" x="1597.92" y="-1698.08" font-family="Times,serif" font-size="14.00">sps00 (prepn)</text>
<text text-anchor="middle" x="1597.92" y="-1683.08" font-family="Times,serif" font-size="14.00">rep=no, t=no, r=yes, m=yes, c=no</text>
</g>
<!-- n14&#45;&gt;n15 -->
<g id="edge18" class="edge">
<title>n14&#45;&gt;n15</title>
<path fill="none" stroke="black" d="M1597.92,-1775.15C1597.92,-1766.97 1597.92,-1758.19 1597.92,-1749.67"/>
<polygon fill="black" stroke="black" points="1601.42,-1749.45 1597.92,-1739.45 1594.42,-1749.45 1601.42,-1749.45"/>
</g>
<!-- n16 -->
<g id="node20" class="node">
<title>n16</title>
<ellipse fill="#DA79E8" stroke="black" cx="1597.92" cy="-1590.82" rx="190.84" ry="37.45"/>
<text text-anchor="middle" x="1597.92" y="-1602.12" font-family="Times,serif" font-size="14.00">diálogo</text>
<text text-anchor="middle" x="1597.92" y="-1587.12" font-family="Times,serif" font-size="14.00">ncms000 (pobj)</text>
<text text-anchor="middle" x="1597.92" y="-1572.12" font-family="Times,serif" font-size="14.00">rep=no, t=no, r=yes, m=yes, c=no</text>
</g>
<!-- n15&#45;&gt;n16 -->
<g id="edge19" class="edge">
<title>n15&#45;&gt;n16</title>
<path fill="none" stroke="black" d="M1597.92,-1664.19C1597.92,-1656.02 1597.92,-1647.24 1597.92,-1638.71"/>
<polygon fill="black" stroke="black" points="1601.42,-1638.49 1597.92,-1628.49 1594.42,-1638.5 1601.42,-1638.49"/>
</g>
<!-- n18 -->
<g id="node22" class="node">
<title>n18</title>
<ellipse fill="#DA79E8" stroke="black" cx="1997.92" cy="-1701.78" rx="190.84" ry="37.45"/>
<text text-anchor="middle" x="1997.92" y="-1713.08" font-family="Times,serif" font-size="14.00">el</text>
<text text-anchor="middle" x="1997.92" y="-1698.08" font-family="Times,serif" font-size="14.00">da0ms0 (det)</text>
<text text-anchor="middle" x="1997.92" y="-1683.08" font-family="Times,serif" font-size="14.00">rep=no, t=no, r=yes, m=yes, c=no</text>
</g>
<!-- n19&#45;&gt;n18 -->
<g id="edge21" class="edge">
<title>n19&#45;&gt;n18</title>
<path fill="none" stroke="black" d="M1997.92,-1775.15C1997.92,-1766.97 1997.92,-1758.19 1997.92,-1749.67"/>
<polygon fill="black" stroke="black" points="2001.42,-1749.45 1997.92,-1739.45 1994.42,-1749.45 2001.42,-1749.45"/>
</g>
<!-- n22 -->
<g id="node24" class="node">
<title>n22</title>
<ellipse fill="#DA79E8" stroke="black" cx="2397.92" cy="-1923.68" rx="190.84" ry="37.45"/>
<text text-anchor="middle" x="2397.92" y="-1934.98" font-family="Times,serif" font-size="14.00">el</text>
<text text-anchor="middle" x="2397.92" y="-1919.98" font-family="Times,serif" font-size="14.00">da0ms0 (det)</text>
<text text-anchor="middle" x="2397.92" y="-1904.98" font-family="Times,serif" font-size="14.00">rep=no, t=no, r=yes, m=yes, c=no</text>
</g>
<!-- n23&#45;&gt;n22 -->
<g id="edge23" class="edge">
<title>n23&#45;&gt;n22</title>
<path fill="none" stroke="black" d="M2397.92,-1997.05C2397.92,-1988.88 2397.92,-1980.1 2397.92,-1971.57"/>
<polygon fill="black" stroke="black" points="2401.42,-1971.35 2397.92,-1961.35 2394.42,-1971.35 2401.42,-1971.35"/>
</g>
<!-- n24 -->
<g id="node25" class="node">
<title>n24</title>
<ellipse fill="#DA79E8" stroke="black" cx="2797.92" cy="-1923.68" rx="190.84" ry="37.45"/>
<text text-anchor="middle" x="2797.92" y="-1934.98" font-family="Times,serif" font-size="14.00">de</text>
<text text-anchor="middle" x="2797.92" y="-1919.98" font-family="Times,serif" font-size="14.00">sps00 (prepn)</text>
<text text-anchor="middle" x="2797.92" y="-1904.98" font-family="Times,serif" font-size="14.00">rep=no, t=no, r=yes, m=yes, c=no</text>
</g>
<!-- n23&#45;&gt;n24 -->
<g id="edge24" class="edge">
<title>n23&#45;&gt;n24</title>
<path fill="none" stroke="black" d="M2507.22,-2003.86C2560.36,-1989.39 2624.33,-1971.97 2678.71,-1957.15"/>
<polygon fill="black" stroke="black" points="2679.67,-1960.52 2688.4,-1954.51 2677.83,-1953.76 2679.67,-1960.52"/>
</g>
<!-- n25 -->
<g id="node26" class="node">
<title>n25</title>
<ellipse fill="#DA79E8" stroke="black" cx="2797.92" cy="-1812.73" rx="190.84" ry="37.45"/>
<text text-anchor="middle" x="2797.92" y="-1824.03" font-family="Times,serif" font-size="14.00">determinar</text>
<text text-anchor="middle" x="2797.92" y="-1809.03" font-family="Times,serif" font-size="14.00">vmn0000 (pobj)</text>
<text text-anchor="middle" x="2797.92" y="-1794.03" font-family="Times,serif" font-size="14.00">rep=no, t=no, r=yes, m=yes, c=no</text>
</g>
<!-- n24&#45;&gt;n25 -->
<g id="edge25" class="edge">
<title>n24&#45;&gt;n25</title>
<path fill="none" stroke="black" d="M2797.92,-1886.1C2797.92,-1877.93 2797.92,-1869.15 2797.92,-1860.62"/>
<polygon fill="black" stroke="black" points="2801.42,-1860.4 2797.92,-1850.4 2794.42,-1860.4 2801.42,-1860.4"/>
</g>
<!-- n26 -->
<g id="node27" class="node">
<title>n26</title>
<ellipse fill="#DA79E8" stroke="black" cx="2797.92" cy="-1701.78" rx="190.84" ry="37.45"/>
<text text-anchor="middle" x="2797.92" y="-1713.08" font-family="Times,serif" font-size="14.00">si</text>
<text text-anchor="middle" x="2797.92" y="-1698.08" font-family="Times,serif" font-size="14.00">cs (dobj)</text>
<text text-anchor="middle" x="2797.92" y="-1683.08" font-family="Times,serif" font-size="14.00">rep=no, t=no, r=yes, m=yes, c=no</text>
</g>
<!-- n25&#45;&gt;n26 -->
<g id="edge26" class="edge">
<title>n25&#45;&gt;n26</title>
<path fill="none" stroke="black" d="M2797.92,-1775.15C2797.92,-1766.97 2797.92,-1758.19 2797.92,-1749.67"/>
<polygon fill="black" stroke="black" points="2801.42,-1749.45 2797.92,-1739.45 2794.42,-1749.45 2801.42,-1749.45"/>
</g>
<!-- n27 -->
<g id="node28" class="node">
<title>n27</title>
<ellipse fill="#DA79E8" stroke="black" cx="2797.92" cy="-1590.82" rx="190.84" ry="37.45"/>
<text text-anchor="middle" x="2797.92" y="-1602.12" font-family="Times,serif" font-size="14.00">hay</text>
<text text-anchor="middle" x="2797.92" y="-1587.12" font-family="Times,serif" font-size="14.00">vaip3s0 (cobj)</text>
<text text-anchor="middle" x="2797.92" y="-1572.12" font-family="Times,serif" font-size="14.00">rep=no, t=no, r=yes, m=yes, c=no</text>
</g>
<!-- n26&#45;&gt;n27 -->
<g id="edge27" class="edge">
<title>n26&#45;&gt;n27</title>
<path fill="none" stroke="black" d="M2797.92,-1664.19C2797.92,-1656.02 2797.92,-1647.24 2797.92,-1638.71"/>
<polygon fill="black" stroke="black" points="2801.42,-1638.49 2797.92,-1628.49 2794.42,-1638.5 2801.42,-1638.49"/>
</g>
<!-- n28 -->
<g id="node29" class="node">
<title>n28</title>
<ellipse fill="#DA79E8" stroke="black" cx="2797.92" cy="-1479.87" rx="190.84" ry="37.45"/>
<text text-anchor="middle" x="2797.92" y="-1491.17" font-family="Times,serif" font-size="14.00">posibilidad</text>
<text text-anchor="middle" x="2797.92" y="-1476.17" font-family="Times,serif" font-size="14.00">ncfs000 (dobj)</text>
<text text-anchor="middle" x="2797.92" y="-1461.17" font-family="Times,serif" font-size="14.00">rep=no, t=no, r=yes, m=yes, c=no</text>
</g>
<!-- n27&#45;&gt;n28 -->
<g id="edge28" class="edge">
<title>n27&#45;&gt;n28</title>
<path fill="none" stroke="black" d="M2797.92,-1553.24C2797.92,-1545.07 2797.92,-1536.29 2797.92,-1527.76"/>
<polygon fill="black" stroke="black" points="2801.42,-1527.54 2797.92,-1517.54 2794.42,-1527.54 2801.42,-1527.54"/>
</g>
<!-- n29 -->
<g id="node30" class="node">
<title>n29</title>
<ellipse fill="#DA79E8" stroke="black" cx="2797.92" cy="-1368.92" rx="190.84" ry="37.45"/>
<text text-anchor="middle" x="2797.92" y="-1380.22" font-family="Times,serif" font-size="14.00">de</text>
<text text-anchor="middle" x="2797.92" y="-1365.22" font-family="Times,serif" font-size="14.00">sps00 (prepn)</text>
<text text-anchor="middle" x="2797.92" y="-1350.22" font-family="Times,serif" font-size="14.00">rep=no, t=no, r=yes, m=yes, c=no</text>
</g>
<!-- n28&#45;&gt;n29 -->
<g id="edge29" class="edge">
<title>n28&#45;&gt;n29</title>
<path fill="none" stroke="black" d="M2797.92,-1442.29C2797.92,-1434.11 2797.92,-1425.33 2797.92,-1416.81"/>
<polygon fill="black" stroke="black" points="2801.42,-1416.59 2797.92,-1406.59 2794.42,-1416.59 2801.42,-1416.59"/>
</g>
<!-- n30 -->
<g id="node31" class="node">
<title>n30</title>
<ellipse fill="#DA79E8" stroke="black" cx="2797.92" cy="-1257.96" rx="190.84" ry="37.45"/>
<text text-anchor="middle" x="2797.92" y="-1269.26" font-family="Times,serif" font-size="14.00">alcanzar</text>
<text text-anchor="middle" x="2797.92" y="-1254.26" font-family="Times,serif" font-size="14.00">vmn0000 (pobj)</text>
<text text-anchor="middle" x="2797.92" y="-1239.26" font-family="Times,serif" font-size="14.00">rep=no, t=no, r=yes, m=yes, c=no</text>
</g>
<!-- n29&#45;&gt;n30 -->
<g id="edge30" class="edge">
<title>n29&#45;&gt;n30</title>
<path fill="none" stroke="black" d="M2797.92,-1331.33C2797.92,-1323.16 2797.92,-1314.38 2797.92,-1305.85"/>
<polygon fill="black" stroke="black" points="2801.42,-1305.64 2797.92,-1295.64 2794.42,-1305.64 2801.42,-1305.64"/>
</g>
<!-- n31 -->
<g id="node32" class="node">
<title>n31</title>
<ellipse fill="#DA79E8" stroke="black" cx="2597.92" cy="-1147.01" rx="190.84" ry="37.45"/>
<text text-anchor="middle" x="2597.92" y="-1158.31" font-family="Times,serif" font-size="14.00">acuerdos</text>
<text text-anchor="middle" x="2597.92" y="-1143.31" font-family="Times,serif" font-size="14.00">ncmp000 (dobj)</text>
<text text-anchor="middle" x="2597.92" y="-1128.31" font-family="Times,serif" font-size="14.00">rep=no, t=no, r=yes, m=yes, c=no</text>
</g>
<!-- n30&#45;&gt;n31 -->
<g id="edge31" class="edge">
<title>n30&#45;&gt;n31</title>
<path fill="none" stroke="black" d="M2734.64,-1222.49C2714.11,-1211.31 2691.18,-1198.82 2670.06,-1187.31"/>
<polygon fill="black" stroke="black" points="2671.59,-1184.16 2661.13,-1182.45 2668.24,-1190.3 2671.59,-1184.16"/>
</g>
<!-- n32 -->
<g id="node33" class="node">
<title>n32</title>
<ellipse fill="#DA79E8" stroke="black" cx="2997.92" cy="-1147.01" rx="190.84" ry="37.45"/>
<text text-anchor="middle" x="2997.92" y="-1158.31" font-family="Times,serif" font-size="14.00">en</text>
<text text-anchor="middle" x="2997.92" y="-1143.31" font-family="Times,serif" font-size="14.00">sps00 (prepv)</text>
<text text-anchor="middle" x="2997.92" y="-1128.31" font-family="Times,serif" font-size="14.00">rep=no, t=no, r=yes, m=yes, c=no</text>
</g>
<!-- n30&#45;&gt;n32 -->
<g id="edge32" class="edge">
<title>n30&#45;&gt;n32</title>
<path fill="none" stroke="black" d="M2861.2,-1222.49C2881.73,-1211.31 2904.65,-1198.82 2925.78,-1187.31"/>
<polygon fill="black" stroke="black" points="2927.6,-1190.3 2934.71,-1182.45 2924.25,-1184.16 2927.6,-1190.3"/>
</g>
<!-- n34 -->
<g id="node34" class="node">
<title>n34</title>
<ellipse fill="#DA79E8" stroke="black" cx="2997.92" cy="-1036.06" rx="190.84" ry="37.45"/>
<text text-anchor="middle" x="2997.92" y="-1047.36" font-family="Times,serif" font-size="14.00">plazo</text>
<text text-anchor="middle" x="2997.92" y="-1032.36" font-family="Times,serif" font-size="14.00">ncms000 (pobj)</text>
<text text-anchor="middle" x="2997.92" y="-1017.36" font-family="Times,serif" font-size="14.00">rep=no, t=no, r=yes, m=yes, c=no</text>
</g>
<!-- n32&#45;&gt;n34 -->
<g id="edge33" class="edge">
<title>n32&#45;&gt;n34</title>
<path fill="none" stroke="black" d="M2997.92,-1109.43C2997.92,-1101.25 2997.92,-1092.47 2997.92,-1083.95"/>
<polygon fill="black" stroke="black" points="3001.42,-1083.73 2997.92,-1073.73 2994.42,-1083.73 3001.42,-1083.73"/>
</g>
<!-- n33 -->
<g id="node35" class="node">
<title>n33</title>
<ellipse fill="#DA79E8" stroke="black" cx="2397.92" cy="-925.1" rx="190.84" ry="37.45"/>
<text text-anchor="middle" x="2397.92" y="-936.4" font-family="Times,serif" font-size="14.00">un</text>
<text text-anchor="middle" x="2397.92" y="-921.4" font-family="Times,serif" font-size="14.00">di0ms0 (det)</text>
<text text-anchor="middle" x="2397.92" y="-906.4" font-family="Times,serif" font-size="14.00">rep=no, t=no, r=yes, m=yes, c=no</text>
</g>
<!-- n34&#45;&gt;n33 -->
<g id="edge34" class="edge">
<title>n34&#45;&gt;n33</title>
<path fill="none" stroke="black" d="M2860,-1010.11C2782.9,-996.15 2685.06,-978.42 2597.92,-962.58 2580.85,-959.48 2562.97,-956.22 2545.21,-952.99"/>
<polygon fill="black" stroke="black" points="2545.82,-949.54 2535.36,-951.19 2544.57,-956.43 2545.82,-949.54"/>
</g>
<!-- n35 -->
<g id="node36" class="node">
<title>n35</title>
<ellipse fill="#DA79E8" stroke="black" cx="2797.92" cy="-925.1" rx="190.84" ry="37.45"/>
<text text-anchor="middle" x="2797.92" y="-936.4" font-family="Times,serif" font-size="14.00">de</text>
<text text-anchor="middle" x="2797.92" y="-921.4" font-family="Times,serif" font-size="14.00">sps00 (prepn)</text>
<text text-anchor="middle" x="2797.92" y="-906.4" font-family="Times,serif" font-size="14.00">rep=no, t=no, r=yes, m=yes, c=no</text>
</g>
<!-- n34&#45;&gt;n35 -->
<g id="edge35" class="edge">
<title>n34&#45;&gt;n35</title>
<path fill="none" stroke="black" d="M2934.64,-1000.58C2914.11,-989.4 2891.18,-976.91 2870.06,-965.4"/>
<polygon fill="black" stroke="black" points="2871.59,-962.25 2861.13,-960.54 2868.24,-968.4 2871.59,-962.25"/>
</g>
<!-- n37 -->
<g id="node37" class="node">
<title>n37</title>
<ellipse fill="#DA79E8" stroke="black" cx="3197.92" cy="-925.1" rx="190.84" ry="37.45"/>
<text text-anchor="middle" x="3197.92" y="-936.4" font-family="Times,serif" font-size="14.00">,</text>
<text text-anchor="middle" x="3197.92" y="-921.4" font-family="Times,serif" font-size="14.00">fc (punct)</text>
<text text-anchor="middle" x="3197.92" y="-906.4" font-family="Times,serif" font-size="14.00">rep=no, t=no, r=yes, m=yes, c=no</text>
</g>
<!-- n34&#45;&gt;n37 -->
<g id="edge36" class="edge">
<title>n34&#45;&gt;n37</title>
<path fill="none" stroke="black" d="M3061.2,-1000.58C3081.73,-989.4 3104.65,-976.91 3125.78,-965.4"/>
<polygon fill="black" stroke="black" points="3127.6,-968.4 3134.71,-960.54 3124.25,-962.25 3127.6,-968.4"/>
</g>
<!-- n39 -->
<g id="node38" class="node">
<title>n39</title>
<ellipse fill="none" stroke="black" cx="3592.92" cy="-925.1" rx="185.94" ry="37.45"/>
<text text-anchor="middle" x="3592.92" y="-936.4" font-family="Times,serif" font-size="14.00">sitúa</text>
<text text-anchor="middle" x="3592.92" y="-921.4" font-family="Times,serif" font-size="14.00">vmip3s0 (rcmod)</text>
<text text-anchor="middle" x="3592.92" y="-906.4" font-family="Times,serif" font-size="14.00">rep=no, t=no, r=no, m=yes, c=no</text>
</g>
<!-- n34&#45;&gt;n39 -->
<g id="edge37" class="edge">
<title>n34&#45;&gt;n39</title>
<path fill="none" stroke="black" d="M3136.33,-1010.18C3213.37,-996.28 3310.98,-978.59 3397.92,-962.58 3414.48,-959.53 3431.83,-956.31 3449.07,-953.11"/>
<polygon fill="black" stroke="black" points="3450,-956.49 3459.19,-951.22 3448.72,-949.61 3450,-956.49"/>
</g>
<!-- n36 -->
<g id="node39" class="node">
<title>n36</title>
<ellipse fill="#DA79E8" stroke="black" cx="2797.92" cy="-814.15" rx="190.84" ry="37.45"/>
<text text-anchor="middle" x="2797.92" y="-825.45" font-family="Times,serif" font-size="14.00">tiempo</text>
<text text-anchor="middle" x="2797.92" y="-810.45" font-family="Times,serif" font-size="14.00">ncms000 (pobj)</text>
<text text-anchor="middle" x="2797.92" y="-795.45" font-family="Times,serif" font-size="14.00">rep=no, t=no, r=yes, m=yes, c=no</text>
</g>
<!-- n35&#45;&gt;n36 -->
<g id="edge38" class="edge">
<title>n35&#45;&gt;n36</title>
<path fill="none" stroke="black" d="M2797.92,-887.52C2797.92,-879.35 2797.92,-870.57 2797.92,-862.04"/>
<polygon fill="black" stroke="black" points="2801.42,-861.82 2797.92,-851.82 2794.42,-861.82 2801.42,-861.82"/>
</g>
<!-- n38 -->
<g id="node40" class="node">
<title>n38</title>
<ellipse fill="none" stroke="black" cx="3397.92" cy="-814.15" rx="185.94" ry="37.45"/>
<text text-anchor="middle" x="3397.92" y="-825.45" font-family="Times,serif" font-size="14.00">que</text>
<text text-anchor="middle" x="3397.92" y="-810.45" font-family="Times,serif" font-size="14.00">pr0cn000 (dobj)</text>
<text text-anchor="middle" x="3397.92" y="-795.45" font-family="Times,serif" font-size="14.00">rep=no, t=no, r=no, m=yes, c=no</text>
</g>
<!-- n39&#45;&gt;n38 -->
<g id="edge39" class="edge">
<title>n39&#45;&gt;n38</title>
<path fill="none" stroke="black" d="M3531.22,-889.63C3511.29,-878.5 3489.05,-866.07 3468.53,-854.61"/>
<polygon fill="black" stroke="black" points="3469.99,-851.41 3459.55,-849.59 3466.57,-857.52 3469.99,-851.41"/>
</g>
<!-- n40 -->
<g id="node41" class="node">
<title>n40</title>
<ellipse fill="none" stroke="black" cx="3787.92" cy="-814.15" rx="185.94" ry="37.45"/>
<text text-anchor="middle" x="3787.92" y="-825.45" font-family="Times,serif" font-size="14.00">antes</text>
<text text-anchor="middle" x="3787.92" y="-810.45" font-family="Times,serif" font-size="14.00">rg (advmod)</text>
<text text-anchor="middle" x="3787.92" y="-795.45" font-family="Times,serif" font-size="14.00">rep=no, t=no, r=no, m=yes, c=no</text>
</g>
<!-- n39&#45;&gt;n40 -->
<g id="edge40" class="edge">
<title>n39&#45;&gt;n40</title>
<path fill="none" stroke="black" d="M3654.62,-889.63C3674.54,-878.5 3696.79,-866.07 3717.3,-854.61"/>
<polygon fill="black" stroke="black" points="3719.26,-857.52 3726.29,-849.59 3715.85,-851.41 3719.26,-857.52"/>
</g>
<!-- n41 -->
<g id="node42" class="node">
<title>n41</title>
<ellipse fill="none" stroke="black" cx="3787.92" cy="-703.2" rx="185.94" ry="37.45"/>
<text text-anchor="middle" x="3787.92" y="-714.5" font-family="Times,serif" font-size="14.00">del</text>
<text text-anchor="middle" x="3787.92" y="-699.5" font-family="Times,serif" font-size="14.00">spcms (prep)</text>
<text text-anchor="middle" x="3787.92" y="-684.5" font-family="Times,serif" font-size="14.00">rep=no, t=no, r=no, m=yes, c=no</text>
</g>
<!-- n40&#45;&gt;n41 -->
<g id="edge41" class="edge">
<title>n40&#45;&gt;n41</title>
<path fill="none" stroke="black" d="M3787.92,-776.57C3787.92,-768.39 3787.92,-759.61 3787.92,-751.09"/>
<polygon fill="black" stroke="black" points="3791.42,-750.87 3787.92,-740.87 3784.42,-750.87 3791.42,-750.87"/>
</g>
<!-- n42 -->
<g id="node43" class="node">
<title>n42</title>
<ellipse fill="none" stroke="black" cx="3787.92" cy="-592.24" rx="185.94" ry="37.45"/>
<text text-anchor="middle" x="3787.92" y="-603.54" font-family="Times,serif" font-size="14.00">debate</text>
<text text-anchor="middle" x="3787.92" y="-588.54" font-family="Times,serif" font-size="14.00">ncms000 (pobj)</text>
<text text-anchor="middle" x="3787.92" y="-573.54" font-family="Times,serif" font-size="14.00">rep=no, t=no, r=no, m=yes, c=no</text>
</g>
<!-- n41&#45;&gt;n42 -->
<g id="edge42" class="edge">
<title>n41&#45;&gt;n42</title>
<path fill="none" stroke="black" d="M3787.92,-665.61C3787.92,-657.44 3787.92,-648.66 3787.92,-640.13"/>
<polygon fill="black" stroke="black" points="3791.42,-639.92 3787.92,-629.92 3784.42,-639.92 3791.42,-639.92"/>
</g>
<!-- n43 -->
<g id="node44" class="node">
<title>n43</title>
<ellipse fill="none" stroke="black" cx="3592.92" cy="-481.29" rx="185.94" ry="37.45"/>
<text text-anchor="middle" x="3592.92" y="-492.59" font-family="Times,serif" font-size="14.00">de</text>
<text text-anchor="middle" x="3592.92" y="-477.59" font-family="Times,serif" font-size="14.00">sps00 (prepn)</text>
<text text-anchor="middle" x="3592.92" y="-462.59" font-family="Times,serif" font-size="14.00">rep=no, t=no, r=no, m=yes, c=no</text>
</g>
<!-- n42&#45;&gt;n43 -->
<g id="edge43" class="edge">
<title>n42&#45;&gt;n43</title>
<path fill="none" stroke="black" d="M3726.22,-556.77C3706.29,-545.64 3684.05,-533.21 3663.53,-521.75"/>
<polygon fill="black" stroke="black" points="3664.99,-518.55 3654.55,-516.73 3661.57,-524.66 3664.99,-518.55"/>
</g>
<!-- n46 -->
<g id="node45" class="node">
<title>n46</title>
<ellipse fill="none" stroke="black" cx="3982.92" cy="-481.29" rx="185.94" ry="37.45"/>
<text text-anchor="middle" x="3982.92" y="-492.59" font-family="Times,serif" font-size="14.00">previsto</text>
<text text-anchor="middle" x="3982.92" y="-477.59" font-family="Times,serif" font-size="14.00">aq0msp (amod)</text>
<text text-anchor="middle" x="3982.92" y="-462.59" font-family="Times,serif" font-size="14.00">rep=no, t=no, r=no, m=yes, c=no</text>
</g>
<!-- n42&#45;&gt;n46 -->
<g id="edge44" class="edge">
<title>n42&#45;&gt;n46</title>
<path fill="none" stroke="black" d="M3849.62,-556.77C3869.54,-545.64 3891.79,-533.21 3912.3,-521.75"/>
<polygon fill="black" stroke="black" points="3914.26,-524.66 3921.29,-516.73 3910.85,-518.55 3914.26,-524.66"/>
</g>
<!-- n44 -->
<g id="node46" class="node">
<title>n44</title>
<ellipse fill="none" stroke="black" cx="3592.92" cy="-370.34" rx="185.94" ry="37.45"/>
<text text-anchor="middle" x="3592.92" y="-381.64" font-family="Times,serif" font-size="14.00">política</text>
<text text-anchor="middle" x="3592.92" y="-366.64" font-family="Times,serif" font-size="14.00">ncfs000 (pobj)</text>
<text text-anchor="middle" x="3592.92" y="-351.64" font-family="Times,serif" font-size="14.00">rep=no, t=no, r=no, m=yes, c=no</text>
</g>
<!-- n43&#45;&gt;n44 -->
<g id="edge45" class="edge">
<title>n43&#45;&gt;n44</title>
<path fill="none" stroke="black" d="M3592.92,-443.71C3592.92,-435.53 3592.92,-426.75 3592.92,-418.23"/>
<polygon fill="black" stroke="black" points="3596.42,-418.01 3592.92,-408.01 3589.42,-418.01 3596.42,-418.01"/>
</g>
<!-- n47 -->
<g id="node48" class="node">
<title>n47</title>
<ellipse fill="none" stroke="black" cx="3982.92" cy="-370.34" rx="185.94" ry="37.45"/>
<text text-anchor="middle" x="3982.92" y="-381.64" font-family="Times,serif" font-size="14.00">para</text>
<text text-anchor="middle" x="3982.92" y="-366.64" font-family="Times,serif" font-size="14.00">sps00 (prepa)</text>
<text text-anchor="middle" x="3982.92" y="-351.64" font-family="Times,serif" font-size="14.00">rep=no, t=no, r=no, m=yes, c=no</text>
</g>
<!-- n46&#45;&gt;n47 -->
<g id="edge47" class="edge">
<title>n46&#45;&gt;n47</title>
<path fill="none" stroke="black" d="M3982.92,-443.71C3982.92,-435.53 3982.92,-426.75 3982.92,-418.23"/>
<polygon fill="black" stroke="black" points="3986.42,-418.01 3982.92,-408.01 3979.42,-418.01 3986.42,-418.01"/>
</g>
<!-- n45 -->
<g id="node47" class="node">
<title>n45</title>
<ellipse fill="none" stroke="black" cx="3592.92" cy="-259.38" rx="185.94" ry="37.45"/>
<text text-anchor="middle" x="3592.92" y="-270.68" font-family="Times,serif" font-size="14.00">general</text>
<text text-anchor="middle" x="3592.92" y="-255.68" font-family="Times,serif" font-size="14.00">aq0cs0 (amod)</text>
<text text-anchor="middle" x="3592.92" y="-240.68" font-family="Times,serif" font-size="14.00">rep=no, t=no, r=no, m=yes, c=no</text>
</g>
<!-- n44&#45;&gt;n45 -->
<g id="edge46" class="edge">
<title>n44&#45;&gt;n45</title>
<path fill="none" stroke="black" d="M3592.92,-332.75C3592.92,-324.58 3592.92,-315.8 3592.92,-307.27"/>
<polygon fill="black" stroke="black" points="3596.42,-307.06 3592.92,-297.06 3589.42,-307.06 3596.42,-307.06"/>
</g>
<!-- n50 -->
<g id="node49" class="node">
<title>n50</title>
<ellipse fill="none" stroke="black" cx="3982.92" cy="-259.38" rx="185.94" ry="37.45"/>
<text text-anchor="middle" x="3982.92" y="-270.68" font-family="Times,serif" font-size="14.00">octubre</text>
<text text-anchor="middle" x="3982.92" y="-255.68" font-family="Times,serif" font-size="14.00">ncms000 (pobj)</text>
<text text-anchor="middle" x="3982.92" y="-240.68" font-family="Times,serif" font-size="14.00">rep=no, t=no, r=no, m=yes, c=no</text>
</g>
<!-- n47&#45;&gt;n50 -->
<g id="edge48" class="edge">
<title>n47&#45;&gt;n50</title>
<path fill="none" stroke="black" d="M3982.92,-332.75C3982.92,-324.58 3982.92,-315.8 3982.92,-307.27"/>
<polygon fill="black" stroke="black" points="3986.42,-307.06 3982.92,-297.06 3979.42,-307.06 3986.42,-307.06"/>
</g>
<!-- n48 -->
<g id="node50" class="node">
<title>n48</title>
<ellipse fill="none" stroke="black" cx="3982.92" cy="-148.43" rx="185.94" ry="37.45"/>
<text text-anchor="middle" x="3982.92" y="-159.73" font-family="Times,serif" font-size="14.00">mediados</text>
<text text-anchor="middle" x="3982.92" y="-144.73" font-family="Times,serif" font-size="14.00">aq0fsp (advmod)</text>
<text text-anchor="middle" x="3982.92" y="-129.73" font-family="Times,serif" font-size="14.00">rep=no, t=no, r=no, m=yes, c=no</text>
</g>
<!-- n50&#45;&gt;n48 -->
<g id="edge49" class="edge">
<title>n50&#45;&gt;n48</title>
<path fill="none" stroke="black" d="M3982.92,-221.8C3982.92,-213.63 3982.92,-204.85 3982.92,-196.32"/>
<polygon fill="black" stroke="black" points="3986.42,-196.1 3982.92,-186.1 3979.42,-196.1 3986.42,-196.1"/>
</g>
<!-- n49 -->
<g id="node51" class="node">
<title>n49</title>
<ellipse fill="none" stroke="black" cx="3982.92" cy="-37.48" rx="185.94" ry="37.45"/>
<text text-anchor="middle" x="3982.92" y="-48.78" font-family="Times,serif" font-size="14.00">de</text>
<text text-anchor="middle" x="3982.92" y="-33.78" font-family="Times,serif" font-size="14.00">sps00 (agent)</text>
<text text-anchor="middle" x="3982.92" y="-18.78" font-family="Times,serif" font-size="14.00">rep=no, t=no, r=no, m=yes, c=no</text>
</g>
<!-- n48&#45;&gt;n49 -->
<g id="edge50" class="edge">
<title>n48&#45;&gt;n49</title>
<path fill="none" stroke="black" d="M3982.92,-110.85C3982.92,-102.67 3982.92,-93.89 3982.92,-85.37"/>
<polygon fill="black" stroke="black" points="3986.42,-85.15 3982.92,-75.15 3979.42,-85.15 3986.42,-85.15"/>
</g>
</g>
</svg>
