<?xml version="1.0" encoding="UTF-8" standalone="no"?>
<!DOCTYPE svg PUBLIC "-//W3C//DTD SVG 1.1//EN"
 "http://www.w3.org/Graphics/SVG/1.1/DTD/svg11.dtd">
<!-- Generated by graphviz version 2.43.0 (0)
 -->
<!-- Title: tree Pages: 1 -->
<svg width="4658pt" height="971pt"
 viewBox="0.00 0.00 4657.89 970.58" xmlns="http://www.w3.org/2000/svg" xmlns:xlink="http://www.w3.org/1999/xlink">
<g id="graph0" class="graph" transform="scale(1 1) rotate(0) translate(4 966.58)">
<title>tree</title>
<polygon fill="white" stroke="transparent" points="-4,4 -4,-966.58 4653.89,-966.58 4653.89,4 -4,4"/>
<!-- n1 -->
<g id="node1" class="node">
<title>n1</title>
<ellipse fill="#98D2A5" stroke="black" cx="1180.97" cy="-925.1" rx="185.94" ry="37.45"/>
<text text-anchor="middle" x="1180.97" y="-936.4" font-family="Times,serif" font-size="14.00">Destacó</text>
<text text-anchor="middle" x="1180.97" y="-921.4" font-family="Times,serif" font-size="14.00">vmis3s0 (root)</text>
<text text-anchor="middle" x="1180.97" y="-906.4" font-family="Times,serif" font-size="14.00">rep=no, t=no, r=no, m=yes, c=no</text>
</g>
<!-- n2 -->
<g id="node2" class="node">
<title>n2</title>
<ellipse fill="none" stroke="black" cx="794.97" cy="-814.15" rx="181.95" ry="37.45"/>
<text text-anchor="middle" x="794.97" y="-825.45" font-family="Times,serif" font-size="14.00">de</text>
<text text-anchor="middle" x="794.97" y="-810.45" font-family="Times,serif" font-size="14.00">sps00 (advmod)</text>
<text text-anchor="middle" x="794.97" y="-795.45" font-family="Times,serif" font-size="14.00">rep=no, t=no, r=no, m=no, c=no</text>
</g>
<!-- n1&#45;&gt;n2 -->
<g id="edge1" class="edge">
<title>n1&#45;&gt;n2</title>
<path fill="none" stroke="black" d="M1075.24,-894.26C1023.97,-879.79 962.29,-862.38 909.86,-847.58"/>
<polygon fill="black" stroke="black" points="910.76,-844.2 900.18,-844.85 908.86,-850.93 910.76,-844.2"/>
</g>
<!-- n4 -->
<g id="node3" class="node">
<title>n4</title>
<ellipse fill="#98D2A5" stroke="black" cx="1180.97" cy="-814.15" rx="185.94" ry="37.45"/>
<text text-anchor="middle" x="1180.97" y="-825.45" font-family="Times,serif" font-size="14.00">que</text>
<text text-anchor="middle" x="1180.97" y="-810.45" font-family="Times,serif" font-size="14.00">cs (dobj)</text>
<text text-anchor="middle" x="1180.97" y="-795.45" font-family="Times,serif" font-size="14.00">rep=no, t=no, r=no, m=yes, c=no</text>
</g>
<!-- n1&#45;&gt;n4 -->
<g id="edge2" class="edge">
<title>n1&#45;&gt;n4</title>
<path fill="none" stroke="black" d="M1180.97,-887.52C1180.97,-879.35 1180.97,-870.57 1180.97,-862.04"/>
<polygon fill="black" stroke="black" points="1184.47,-861.82 1180.97,-851.82 1177.47,-861.82 1184.47,-861.82"/>
</g>
<!-- n33 -->
<g id="node4" class="node">
<title>n33</title>
<ellipse fill="none" stroke="black" cx="1566.97" cy="-814.15" rx="181.95" ry="37.45"/>
<text text-anchor="middle" x="1566.97" y="-825.45" font-family="Times,serif" font-size="14.00">.</text>
<text text-anchor="middle" x="1566.97" y="-810.45" font-family="Times,serif" font-size="14.00">fp (punct)</text>
<text text-anchor="middle" x="1566.97" y="-795.45" font-family="Times,serif" font-size="14.00">rep=no, t=no, r=no, m=no, c=no</text>
</g>
<!-- n1&#45;&gt;n33 -->
<g id="edge3" class="edge">
<title>n1&#45;&gt;n33</title>
<path fill="none" stroke="black" d="M1286.7,-894.26C1337.97,-879.79 1399.65,-862.38 1452.08,-847.58"/>
<polygon fill="black" stroke="black" points="1453.08,-850.93 1461.75,-844.85 1451.18,-844.2 1453.08,-850.93"/>
</g>
<!-- n3 -->
<g id="node5" class="node">
<title>n3</title>
<ellipse fill="none" stroke="black" cx="794.97" cy="-703.2" rx="181.95" ry="37.45"/>
<text text-anchor="middle" x="794.97" y="-714.5" font-family="Times,serif" font-size="14.00">entrada</text>
<text text-anchor="middle" x="794.97" y="-699.5" font-family="Times,serif" font-size="14.00">ncmp000 (pobj)</text>
<text text-anchor="middle" x="794.97" y="-684.5" font-family="Times,serif" font-size="14.00">rep=no, t=no, r=no, m=no, c=no</text>
</g>
<!-- n2&#45;&gt;n3 -->
<g id="edge4" class="edge">
<title>n2&#45;&gt;n3</title>
<path fill="none" stroke="black" d="M794.97,-776.57C794.97,-768.39 794.97,-759.61 794.97,-751.09"/>
<polygon fill="black" stroke="black" points="798.47,-750.87 794.97,-740.87 791.47,-750.87 798.47,-750.87"/>
</g>
<!-- n19 -->
<g id="node6" class="node">
<title>n19</title>
<ellipse fill="#98D2A5" stroke="black" cx="1180.97" cy="-703.2" rx="185.94" ry="37.45"/>
<text text-anchor="middle" x="1180.97" y="-714.5" font-family="Times,serif" font-size="14.00">y</text>
<text text-anchor="middle" x="1180.97" y="-699.5" font-family="Times,serif" font-size="14.00">cc (coord_fixed)</text>
<text text-anchor="middle" x="1180.97" y="-684.5" font-family="Times,serif" font-size="14.00">rep=no, t=no, r=no, m=yes, c=no</text>
</g>
<!-- n4&#45;&gt;n19 -->
<g id="edge5" class="edge">
<title>n4&#45;&gt;n19</title>
<path fill="none" stroke="black" d="M1180.97,-776.57C1180.97,-768.39 1180.97,-759.61 1180.97,-751.09"/>
<polygon fill="black" stroke="black" points="1184.47,-750.87 1180.97,-740.87 1177.47,-750.87 1184.47,-750.87"/>
</g>
<!-- n20 -->
<g id="node7" class="node">
<title>n20</title>
<ellipse fill="#98D2A5" stroke="black" cx="1180.97" cy="-592.24" rx="185.94" ry="37.45"/>
<text text-anchor="middle" x="1180.97" y="-603.54" font-family="Times,serif" font-size="14.00">que</text>
<text text-anchor="middle" x="1180.97" y="-588.54" font-family="Times,serif" font-size="14.00">cs (cobj)</text>
<text text-anchor="middle" x="1180.97" y="-573.54" font-family="Times,serif" font-size="14.00">rep=no, t=no, r=no, m=yes, c=no</text>
</g>
<!-- n19&#45;&gt;n20 -->
<g id="edge6" class="edge">
<title>n19&#45;&gt;n20</title>
<path fill="none" stroke="black" d="M1180.97,-665.61C1180.97,-657.44 1180.97,-648.66 1180.97,-640.13"/>
<polygon fill="black" stroke="black" points="1184.47,-639.92 1180.97,-629.92 1177.47,-639.92 1184.47,-639.92"/>
</g>
<!-- n8 -->
<g id="node8" class="node">
<title>n8</title>
<ellipse fill="#98D2A5" stroke="black" cx="1180.97" cy="-481.29" rx="190.84" ry="37.45"/>
<text text-anchor="middle" x="1180.97" y="-492.59" font-family="Times,serif" font-size="14.00">es</text>
<text text-anchor="middle" x="1180.97" y="-477.59" font-family="Times,serif" font-size="14.00">vsip3s0 (cobj)</text>
<text text-anchor="middle" x="1180.97" y="-462.59" font-family="Times,serif" font-size="14.00">rep=no, t=no, r=yes, m=yes, c=no</text>
</g>
<!-- n20&#45;&gt;n8 -->
<g id="edge7" class="edge">
<title>n20&#45;&gt;n8</title>
<path fill="none" stroke="black" d="M1180.97,-554.66C1180.97,-546.49 1180.97,-537.71 1180.97,-529.18"/>
<polygon fill="black" stroke="black" points="1184.47,-528.96 1180.97,-518.96 1177.47,-528.96 1184.47,-528.96"/>
</g>
<!-- n5 -->
<g id="node9" class="node">
<title>n5</title>
<ellipse fill="#98D2A5" stroke="black" cx="185.97" cy="-370.34" rx="185.94" ry="37.45"/>
<text text-anchor="middle" x="185.97" y="-381.64" font-family="Times,serif" font-size="14.00">&quot;</text>
<text text-anchor="middle" x="185.97" y="-366.64" font-family="Times,serif" font-size="14.00">fe (punct)</text>
<text text-anchor="middle" x="185.97" y="-351.64" font-family="Times,serif" font-size="14.00">rep=no, t=no, r=no, m=yes, c=no</text>
</g>
<!-- n8&#45;&gt;n5 -->
<g id="edge8" class="edge">
<title>n8&#45;&gt;n5</title>
<path fill="none" stroke="black" d="M1000.5,-468.83C837.99,-457.36 592.84,-437.16 380.97,-407.81 362.9,-405.31 343.95,-402.28 325.27,-399.05"/>
<polygon fill="black" stroke="black" points="325.68,-395.57 315.23,-397.29 324.48,-402.46 325.68,-395.57"/>
</g>
<!-- n7 -->
<g id="node10" class="node">
<title>n7</title>
<ellipse fill="#98D2A5" stroke="black" cx="580.97" cy="-370.34" rx="190.84" ry="37.45"/>
<text text-anchor="middle" x="580.97" y="-381.64" font-family="Times,serif" font-size="14.00">situación</text>
<text text-anchor="middle" x="580.97" y="-366.64" font-family="Times,serif" font-size="14.00">ncfs000 (nsubj)</text>
<text text-anchor="middle" x="580.97" y="-351.64" font-family="Times,serif" font-size="14.00">rep=no, t=yes, r=no, m=yes, c=no</text>
</g>
<!-- n8&#45;&gt;n7 -->
<g id="edge9" class="edge">
<title>n8&#45;&gt;n7</title>
<path fill="none" stroke="black" d="M1043.05,-455.34C965.95,-441.38 868.11,-423.65 780.97,-407.81 763.9,-404.71 746.02,-401.45 728.26,-398.22"/>
<polygon fill="black" stroke="black" points="728.87,-394.77 718.41,-396.42 727.62,-401.66 728.87,-394.77"/>
</g>
<!-- n10 -->
<g id="node11" class="node">
<title>n10</title>
<ellipse fill="#98D2A5" stroke="black" cx="980.97" cy="-370.34" rx="190.84" ry="37.45"/>
<text text-anchor="middle" x="980.97" y="-381.64" font-family="Times,serif" font-size="14.00">mejor</text>
<text text-anchor="middle" x="980.97" y="-366.64" font-family="Times,serif" font-size="14.00">aq0cs0 (attr)</text>
<text text-anchor="middle" x="980.97" y="-351.64" font-family="Times,serif" font-size="14.00">rep=no, t=no, r=yes, m=yes, c=no</text>
</g>
<!-- n8&#45;&gt;n10 -->
<g id="edge10" class="edge">
<title>n8&#45;&gt;n10</title>
<path fill="none" stroke="black" d="M1117.69,-445.82C1097.16,-434.63 1074.23,-422.14 1053.11,-410.64"/>
<polygon fill="black" stroke="black" points="1054.64,-407.48 1044.18,-405.77 1051.29,-413.63 1054.64,-407.48"/>
</g>
<!-- n17 -->
<g id="node12" class="node">
<title>n17</title>
<ellipse fill="#98D2A5" stroke="black" cx="1380.97" cy="-370.34" rx="190.84" ry="37.45"/>
<text text-anchor="middle" x="1380.97" y="-381.64" font-family="Times,serif" font-size="14.00">&quot;</text>
<text text-anchor="middle" x="1380.97" y="-366.64" font-family="Times,serif" font-size="14.00">fe (punct)</text>
<text text-anchor="middle" x="1380.97" y="-351.64" font-family="Times,serif" font-size="14.00">rep=no, t=no, r=yes, m=yes, c=no</text>
</g>
<!-- n8&#45;&gt;n17 -->
<g id="edge11" class="edge">
<title>n8&#45;&gt;n17</title>
<path fill="none" stroke="black" d="M1244.25,-445.82C1264.78,-434.63 1287.7,-422.14 1308.83,-410.64"/>
<polygon fill="black" stroke="black" points="1310.65,-413.63 1317.76,-405.77 1307.3,-407.48 1310.65,-413.63"/>
</g>
<!-- n18 -->
<g id="node13" class="node">
<title>n18</title>
<ellipse fill="#98D2A5" stroke="black" cx="1780.97" cy="-370.34" rx="190.84" ry="37.45"/>
<text text-anchor="middle" x="1780.97" y="-381.64" font-family="Times,serif" font-size="14.00">,</text>
<text text-anchor="middle" x="1780.97" y="-366.64" font-family="Times,serif" font-size="14.00">fc (punct)</text>
<text text-anchor="middle" x="1780.97" y="-351.64" font-family="Times,serif" font-size="14.00">rep=no, t=no, r=yes, m=yes, c=no</text>
</g>
<!-- n8&#45;&gt;n18 -->
<g id="edge12" class="edge">
<title>n8&#45;&gt;n18</title>
<path fill="none" stroke="black" d="M1318.89,-455.34C1395.99,-441.38 1493.83,-423.65 1580.97,-407.81 1598.04,-404.71 1615.92,-401.45 1633.68,-398.22"/>
<polygon fill="black" stroke="black" points="1634.32,-401.66 1643.53,-396.42 1633.07,-394.77 1634.32,-401.66"/>
</g>
<!-- n22 -->
<g id="node14" class="node">
<title>n22</title>
<ellipse fill="#98D2A5" stroke="black" cx="2382.97" cy="-370.34" rx="190.84" ry="37.45"/>
<text text-anchor="middle" x="2382.97" y="-381.64" font-family="Times,serif" font-size="14.00">atraviesa</text>
<text text-anchor="middle" x="2382.97" y="-366.64" font-family="Times,serif" font-size="14.00">vmip3s0 (cobj)</text>
<text text-anchor="middle" x="2382.97" y="-351.64" font-family="Times,serif" font-size="14.00">rep=no, t=no, r=yes, m=yes, c=no</text>
</g>
<!-- n8&#45;&gt;n22 -->
<g id="edge13" class="edge">
<title>n8&#45;&gt;n22</title>
<path fill="none" stroke="black" d="M1352.63,-464.75C1514.63,-450.07 1764.3,-427.46 1980.97,-407.81 2052.98,-401.28 2132.24,-394.09 2201.22,-387.83"/>
<polygon fill="black" stroke="black" points="2201.67,-391.31 2211.31,-386.92 2201.04,-384.34 2201.67,-391.31"/>
</g>
<!-- n6 -->
<g id="node15" class="node">
<title>n6</title>
<ellipse fill="#98D2A5" stroke="black" cx="479.97" cy="-259.38" rx="190.84" ry="37.45"/>
<text text-anchor="middle" x="479.97" y="-270.68" font-family="Times,serif" font-size="14.00">la</text>
<text text-anchor="middle" x="479.97" y="-255.68" font-family="Times,serif" font-size="14.00">da0fs0 (det)</text>
<text text-anchor="middle" x="479.97" y="-240.68" font-family="Times,serif" font-size="14.00">rep=no, t=yes, r=no, m=yes, c=no</text>
</g>
<!-- n7&#45;&gt;n6 -->
<g id="edge14" class="edge">
<title>n7&#45;&gt;n6</title>
<path fill="none" stroke="black" d="M547.62,-333.36C538.83,-323.88 529.25,-313.54 520.14,-303.72"/>
<polygon fill="black" stroke="black" points="522.65,-301.28 513.29,-296.32 517.52,-306.04 522.65,-301.28"/>
</g>
<!-- n9 -->
<g id="node16" class="node">
<title>n9</title>
<ellipse fill="#98D2A5" stroke="black" cx="879.97" cy="-259.38" rx="190.84" ry="37.45"/>
<text text-anchor="middle" x="879.97" y="-270.68" font-family="Times,serif" font-size="14.00">notablemente</text>
<text text-anchor="middle" x="879.97" y="-255.68" font-family="Times,serif" font-size="14.00">rg (advmod)</text>
<text text-anchor="middle" x="879.97" y="-240.68" font-family="Times,serif" font-size="14.00">rep=no, t=no, r=yes, m=yes, c=no</text>
</g>
<!-- n10&#45;&gt;n9 -->
<g id="edge15" class="edge">
<title>n10&#45;&gt;n9</title>
<path fill="none" stroke="black" d="M947.62,-333.36C938.83,-323.88 929.25,-313.54 920.14,-303.72"/>
<polygon fill="black" stroke="black" points="922.65,-301.28 913.29,-296.32 917.52,-306.04 922.65,-301.28"/>
</g>
<!-- n11 -->
<g id="node17" class="node">
<title>n11</title>
<ellipse fill="#98D2A5" stroke="black" cx="1279.97" cy="-259.38" rx="190.84" ry="37.45"/>
<text text-anchor="middle" x="1279.97" y="-270.68" font-family="Times,serif" font-size="14.00">que</text>
<text text-anchor="middle" x="1279.97" y="-255.68" font-family="Times,serif" font-size="14.00">cs (crobj)</text>
<text text-anchor="middle" x="1279.97" y="-240.68" font-family="Times,serif" font-size="14.00">rep=no, t=no, r=yes, m=yes, c=no</text>
</g>
<!-- n10&#45;&gt;n11 -->
<g id="edge16" class="edge">
<title>n10&#45;&gt;n11</title>
<path fill="none" stroke="black" d="M1069.47,-337.09C1104.8,-324.22 1145.61,-309.34 1181.85,-296.14"/>
<polygon fill="black" stroke="black" points="1183.24,-299.35 1191.44,-292.64 1180.85,-292.78 1183.24,-299.35"/>
</g>
<!-- n21 -->
<g id="node23" class="node">
<title>n21</title>
<ellipse fill="#98D2A5" stroke="black" cx="2382.97" cy="-259.38" rx="190.84" ry="37.45"/>
<text text-anchor="middle" x="2382.97" y="-270.68" font-family="Times,serif" font-size="14.00">Euskadi</text>
<text text-anchor="middle" x="2382.97" y="-255.68" font-family="Times,serif" font-size="14.00">np00000 (nsubj)</text>
<text text-anchor="middle" x="2382.97" y="-240.68" font-family="Times,serif" font-size="14.00">rep=no, t=no, r=yes, m=yes, c=no</text>
</g>
<!-- n22&#45;&gt;n21 -->
<g id="edge22" class="edge">
<title>n22&#45;&gt;n21</title>
<path fill="none" stroke="black" d="M2382.97,-332.75C2382.97,-324.58 2382.97,-315.8 2382.97,-307.27"/>
<polygon fill="black" stroke="black" points="2386.47,-307.06 2382.97,-297.06 2379.47,-307.06 2386.47,-307.06"/>
</g>
<!-- n26 -->
<g id="node24" class="node">
<title>n26</title>
<ellipse fill="#98D2A5" stroke="black" cx="2833.97" cy="-259.38" rx="190.84" ry="37.45"/>
<text text-anchor="middle" x="2833.97" y="-270.68" font-family="Times,serif" font-size="14.00">momento</text>
<text text-anchor="middle" x="2833.97" y="-255.68" font-family="Times,serif" font-size="14.00">ncms000 (dobj)</text>
<text text-anchor="middle" x="2833.97" y="-240.68" font-family="Times,serif" font-size="14.00">rep=no, t=no, r=yes, m=yes, c=no</text>
</g>
<!-- n22&#45;&gt;n26 -->
<g id="edge23" class="edge">
<title>n22&#45;&gt;n26</title>
<path fill="none" stroke="black" d="M2500.87,-340.85C2563.93,-325.62 2641.64,-306.85 2706.14,-291.26"/>
<polygon fill="black" stroke="black" points="2707.07,-294.64 2715.97,-288.89 2705.43,-287.84 2707.07,-294.64"/>
</g>
<!-- n13 -->
<g id="node18" class="node">
<title>n13</title>
<ellipse fill="#98D2A5" stroke="black" cx="1228.97" cy="-148.43" rx="190.84" ry="37.45"/>
<text text-anchor="middle" x="1228.97" y="-159.73" font-family="Times,serif" font-size="14.00">de</text>
<text text-anchor="middle" x="1228.97" y="-144.73" font-family="Times,serif" font-size="14.00">sps00 (cobj)</text>
<text text-anchor="middle" x="1228.97" y="-129.73" font-family="Times,serif" font-size="14.00">rep=no, t=no, r=yes, m=yes, c=no</text>
</g>
<!-- n11&#45;&gt;n13 -->
<g id="edge17" class="edge">
<title>n11&#45;&gt;n13</title>
<path fill="none" stroke="black" d="M1262.84,-221.8C1258.85,-213.27 1254.55,-204.07 1250.39,-195.2"/>
<polygon fill="black" stroke="black" points="1253.54,-193.67 1246.13,-186.1 1247.2,-196.64 1253.54,-193.67"/>
</g>
<!-- n12 -->
<g id="node19" class="node">
<title>n12</title>
<ellipse fill="#98D2A5" stroke="black" cx="628.97" cy="-37.48" rx="190.84" ry="37.45"/>
<text text-anchor="middle" x="628.97" y="-48.78" font-family="Times,serif" font-size="14.00">la</text>
<text text-anchor="middle" x="628.97" y="-33.78" font-family="Times,serif" font-size="14.00">da0fs0 (pobj)</text>
<text text-anchor="middle" x="628.97" y="-18.78" font-family="Times,serif" font-size="14.00">rep=no, t=no, r=yes, m=yes, c=no</text>
</g>
<!-- n13&#45;&gt;n12 -->
<g id="edge18" class="edge">
<title>n13&#45;&gt;n12</title>
<path fill="none" stroke="black" d="M1091.05,-122.48C1013.95,-108.52 916.11,-90.79 828.97,-74.95 811.9,-71.85 794.02,-68.59 776.26,-65.36"/>
<polygon fill="black" stroke="black" points="776.87,-61.91 766.41,-63.56 775.62,-68.8 776.87,-61.91"/>
</g>
<!-- n14 -->
<g id="node20" class="node">
<title>n14</title>
<ellipse fill="#98D2A5" stroke="black" cx="1028.97" cy="-37.48" rx="190.84" ry="37.45"/>
<text text-anchor="middle" x="1028.97" y="-48.78" font-family="Times,serif" font-size="14.00">hace</text>
<text text-anchor="middle" x="1028.97" y="-33.78" font-family="Times,serif" font-size="14.00">vmip3s0 (pobj)</text>
<text text-anchor="middle" x="1028.97" y="-18.78" font-family="Times,serif" font-size="14.00">rep=no, t=no, r=yes, m=yes, c=no</text>
</g>
<!-- n13&#45;&gt;n14 -->
<g id="edge19" class="edge">
<title>n13&#45;&gt;n14</title>
<path fill="none" stroke="black" d="M1165.69,-112.96C1145.16,-101.77 1122.23,-89.28 1101.11,-77.78"/>
<polygon fill="black" stroke="black" points="1102.64,-74.62 1092.18,-72.91 1099.29,-80.77 1102.64,-74.62"/>
</g>
<!-- n15 -->
<g id="node21" class="node">
<title>n15</title>
<ellipse fill="#98D2A5" stroke="black" cx="1428.97" cy="-37.48" rx="190.84" ry="37.45"/>
<text text-anchor="middle" x="1428.97" y="-48.78" font-family="Times,serif" font-size="14.00">un</text>
<text text-anchor="middle" x="1428.97" y="-33.78" font-family="Times,serif" font-size="14.00">di0ms0 (pobj)</text>
<text text-anchor="middle" x="1428.97" y="-18.78" font-family="Times,serif" font-size="14.00">rep=no, t=no, r=yes, m=yes, c=no</text>
</g>
<!-- n13&#45;&gt;n15 -->
<g id="edge20" class="edge">
<title>n13&#45;&gt;n15</title>
<path fill="none" stroke="black" d="M1292.25,-112.96C1312.78,-101.77 1335.7,-89.28 1356.83,-77.78"/>
<polygon fill="black" stroke="black" points="1358.65,-80.77 1365.76,-72.91 1355.3,-74.62 1358.65,-80.77"/>
</g>
<!-- n16 -->
<g id="node22" class="node">
<title>n16</title>
<ellipse fill="#98D2A5" stroke="black" cx="1828.97" cy="-37.48" rx="190.84" ry="37.45"/>
<text text-anchor="middle" x="1828.97" y="-48.78" font-family="Times,serif" font-size="14.00">año</text>
<text text-anchor="middle" x="1828.97" y="-33.78" font-family="Times,serif" font-size="14.00">ncms000 (pobj)</text>
<text text-anchor="middle" x="1828.97" y="-18.78" font-family="Times,serif" font-size="14.00">rep=no, t=no, r=yes, m=yes, c=no</text>
</g>
<!-- n13&#45;&gt;n16 -->
<g id="edge21" class="edge">
<title>n13&#45;&gt;n16</title>
<path fill="none" stroke="black" d="M1366.4,-122.32C1387.36,-118.5 1408.74,-114.62 1428.97,-110.95 1517.84,-94.85 1540.1,-91.06 1628.97,-74.95 1646.04,-71.86 1663.92,-68.61 1681.69,-65.38"/>
<polygon fill="black" stroke="black" points="1682.32,-68.82 1691.53,-63.59 1681.07,-61.93 1682.32,-68.82"/>
</g>
<!-- n23 -->
<g id="node25" class="node">
<title>n23</title>
<ellipse fill="#98D2A5" stroke="black" cx="1628.97" cy="-148.43" rx="190.84" ry="37.45"/>
<text text-anchor="middle" x="1628.97" y="-159.73" font-family="Times,serif" font-size="14.00">&quot;</text>
<text text-anchor="middle" x="1628.97" y="-144.73" font-family="Times,serif" font-size="14.00">fe (punct)</text>
<text text-anchor="middle" x="1628.97" y="-129.73" font-family="Times,serif" font-size="14.00">rep=no, t=no, r=yes, m=yes, c=no</text>
</g>
<!-- n26&#45;&gt;n23 -->
<g id="edge24" class="edge">
<title>n26&#45;&gt;n23</title>
<path fill="none" stroke="black" d="M2689.25,-234.92C2654.52,-229.96 2617.49,-225.23 2582.97,-221.91 2249.02,-189.74 2162.28,-224.09 1828.97,-185.91 1809.7,-183.7 1789.48,-180.76 1769.61,-177.5"/>
<polygon fill="black" stroke="black" points="1770.02,-174.02 1759.58,-175.82 1768.87,-180.92 1770.02,-174.02"/>
</g>
<!-- n24 -->
<g id="node26" class="node">
<title>n24</title>
<ellipse fill="#98D2A5" stroke="black" cx="2028.97" cy="-148.43" rx="190.84" ry="37.45"/>
<text text-anchor="middle" x="2028.97" y="-159.73" font-family="Times,serif" font-size="14.00">un</text>
<text text-anchor="middle" x="2028.97" y="-144.73" font-family="Times,serif" font-size="14.00">di0ms0 (det)</text>
<text text-anchor="middle" x="2028.97" y="-129.73" font-family="Times,serif" font-size="14.00">rep=no, t=no, r=yes, m=yes, c=no</text>
</g>
<!-- n26&#45;&gt;n24 -->
<g id="edge25" class="edge">
<title>n26&#45;&gt;n24</title>
<path fill="none" stroke="black" d="M2685.46,-235.72C2651.8,-230.89 2616.18,-226.01 2582.97,-221.91 2426.02,-202.53 2385.55,-208.11 2228.97,-185.91 2210.59,-183.3 2191.33,-180.23 2172.31,-176.99"/>
<polygon fill="black" stroke="black" points="2172.85,-173.53 2162.4,-175.28 2171.66,-180.42 2172.85,-173.53"/>
</g>
<!-- n25 -->
<g id="node27" class="node">
<title>n25</title>
<ellipse fill="#98D2A5" stroke="black" cx="2428.97" cy="-148.43" rx="190.84" ry="37.45"/>
<text text-anchor="middle" x="2428.97" y="-159.73" font-family="Times,serif" font-size="14.00">buen</text>
<text text-anchor="middle" x="2428.97" y="-144.73" font-family="Times,serif" font-size="14.00">aq0ms0 (amod)</text>
<text text-anchor="middle" x="2428.97" y="-129.73" font-family="Times,serif" font-size="14.00">rep=no, t=no, r=yes, m=yes, c=no</text>
</g>
<!-- n26&#45;&gt;n25 -->
<g id="edge26" class="edge">
<title>n26&#45;&gt;n25</title>
<path fill="none" stroke="black" d="M2723.84,-228.76C2669.7,-214.19 2604.35,-196.61 2548.95,-181.71"/>
<polygon fill="black" stroke="black" points="2549.65,-178.27 2539.08,-179.05 2547.83,-185.03 2549.65,-178.27"/>
</g>
<!-- n27 -->
<g id="node28" class="node">
<title>n27</title>
<ellipse fill="#98D2A5" stroke="black" cx="2833.97" cy="-148.43" rx="195.74" ry="37.45"/>
<text text-anchor="middle" x="2833.97" y="-159.73" font-family="Times,serif" font-size="14.00">económico</text>
<text text-anchor="middle" x="2833.97" y="-144.73" font-family="Times,serif" font-size="14.00">aq0ms0 (dep)</text>
<text text-anchor="middle" x="2833.97" y="-129.73" font-family="Times,serif" font-size="14.00">rep=no, t=no, r=yes, m=yes, c=yes</text>
</g>
<!-- n26&#45;&gt;n27 -->
<g id="edge27" class="edge">
<title>n26&#45;&gt;n27</title>
<path fill="none" stroke="black" d="M2833.97,-221.8C2833.97,-213.63 2833.97,-204.85 2833.97,-196.32"/>
<polygon fill="black" stroke="black" points="2837.47,-196.1 2833.97,-186.1 2830.47,-196.1 2837.47,-196.1"/>
</g>
<!-- n29 -->
<g id="node29" class="node">
<title>n29</title>
<ellipse fill="#98D2A5" stroke="black" cx="3243.97" cy="-148.43" rx="195.74" ry="37.45"/>
<text text-anchor="middle" x="3243.97" y="-159.73" font-family="Times,serif" font-size="14.00">social</text>
<text text-anchor="middle" x="3243.97" y="-144.73" font-family="Times,serif" font-size="14.00">aq0cs0 (dep)</text>
<text text-anchor="middle" x="3243.97" y="-129.73" font-family="Times,serif" font-size="14.00">rep=no, t=no, r=yes, m=yes, c=yes</text>
</g>
<!-- n26&#45;&gt;n29 -->
<g id="edge28" class="edge">
<title>n26&#45;&gt;n29</title>
<path fill="none" stroke="black" d="M2945.19,-228.83C2999.89,-214.29 3065.94,-196.74 3122.01,-181.84"/>
<polygon fill="black" stroke="black" points="3123.24,-185.14 3132,-179.18 3121.44,-178.37 3123.24,-185.14"/>
</g>
<!-- n30 -->
<g id="node30" class="node">
<title>n30</title>
<ellipse fill="#98D2A5" stroke="black" cx="3648.97" cy="-148.43" rx="190.84" ry="37.45"/>
<text text-anchor="middle" x="3648.97" y="-159.73" font-family="Times,serif" font-size="14.00">y</text>
<text text-anchor="middle" x="3648.97" y="-144.73" font-family="Times,serif" font-size="14.00">cc (coord_fixed)</text>
<text text-anchor="middle" x="3648.97" y="-129.73" font-family="Times,serif" font-size="14.00">rep=no, t=no, r=yes, m=yes, c=no</text>
</g>
<!-- n26&#45;&gt;n30 -->
<g id="edge29" class="edge">
<title>n26&#45;&gt;n30</title>
<path fill="none" stroke="black" d="M3002.06,-241.47C3125.89,-228.3 3298.26,-208.51 3448.97,-185.91 3467.02,-183.2 3485.93,-180.1 3504.63,-176.87"/>
<polygon fill="black" stroke="black" points="3505.43,-180.29 3514.69,-175.12 3504.23,-173.39 3505.43,-180.29"/>
</g>
<!-- n31 -->
<g id="node31" class="node">
<title>n31</title>
<ellipse fill="#98D2A5" stroke="black" cx="4053.97" cy="-148.43" rx="195.74" ry="37.45"/>
<text text-anchor="middle" x="4053.97" y="-159.73" font-family="Times,serif" font-size="14.00">político</text>
<text text-anchor="middle" x="4053.97" y="-144.73" font-family="Times,serif" font-size="14.00">aq0ms0 (dep)</text>
<text text-anchor="middle" x="4053.97" y="-129.73" font-family="Times,serif" font-size="14.00">rep=no, t=no, r=yes, m=yes, c=yes</text>
</g>
<!-- n26&#45;&gt;n31 -->
<g id="edge30" class="edge">
<title>n26&#45;&gt;n31</title>
<path fill="none" stroke="black" d="M3020.22,-250.94C3224.23,-241.43 3560.8,-221.73 3848.97,-185.91 3868.3,-183.5 3888.58,-180.49 3908.55,-177.24"/>
<polygon fill="black" stroke="black" points="3909.34,-180.66 3918.64,-175.58 3908.2,-173.75 3909.34,-180.66"/>
</g>
<!-- n32 -->
<g id="node32" class="node">
<title>n32</title>
<ellipse fill="#98D2A5" stroke="black" cx="4458.97" cy="-148.43" rx="190.84" ry="37.45"/>
<text text-anchor="middle" x="4458.97" y="-159.73" font-family="Times,serif" font-size="14.00">&quot;</text>
<text text-anchor="middle" x="4458.97" y="-144.73" font-family="Times,serif" font-size="14.00">fe (punct)</text>
<text text-anchor="middle" x="4458.97" y="-129.73" font-family="Times,serif" font-size="14.00">rep=no, t=no, r=yes, m=yes, c=no</text>
</g>
<!-- n26&#45;&gt;n32 -->
<g id="edge31" class="edge">
<title>n26&#45;&gt;n32</title>
<path fill="none" stroke="black" d="M3024.49,-256.52C3298.41,-252.08 3818.98,-237 4258.97,-185.91 4278.24,-183.67 4298.45,-180.71 4318.32,-177.44"/>
<polygon fill="black" stroke="black" points="4319.07,-180.87 4328.35,-175.76 4317.91,-173.96 4319.07,-180.87"/>
</g>
<!-- n28 -->
<g id="node33" class="node">
<title>n28</title>
<ellipse fill="#98D2A5" stroke="black" cx="3648.97" cy="-37.48" rx="190.84" ry="37.45"/>
<text text-anchor="middle" x="3648.97" y="-48.78" font-family="Times,serif" font-size="14.00">,</text>
<text text-anchor="middle" x="3648.97" y="-33.78" font-family="Times,serif" font-size="14.00">fc (punct)</text>
<text text-anchor="middle" x="3648.97" y="-18.78" font-family="Times,serif" font-size="14.00">rep=no, t=no, r=yes, m=yes, c=no</text>
</g>
<!-- n30&#45;&gt;n28 -->
<g id="edge32" class="edge">
<title>n30&#45;&gt;n28</title>
<path fill="none" stroke="black" d="M3648.97,-110.85C3648.97,-102.67 3648.97,-93.89 3648.97,-85.37"/>
<polygon fill="black" stroke="black" points="3652.47,-85.15 3648.97,-75.15 3645.47,-85.15 3652.47,-85.15"/>
</g>
</g>
</svg>
