<?xml version="1.0" encoding="UTF-8" standalone="no"?>
<!DOCTYPE svg PUBLIC "-//W3C//DTD SVG 1.1//EN"
 "http://www.w3.org/Graphics/SVG/1.1/DTD/svg11.dtd">
<!-- Generated by graphviz version 2.43.0 (0)
 -->
<!-- Title: tree Pages: 1 -->
<svg width="2190pt" height="971pt"
 viewBox="0.00 0.00 2189.84 970.58" xmlns="http://www.w3.org/2000/svg" xmlns:xlink="http://www.w3.org/1999/xlink">
<g id="graph0" class="graph" transform="scale(1 1) rotate(0) translate(4 966.58)">
<title>tree</title>
<polygon fill="white" stroke="transparent" points="-4,4 -4,-966.58 2185.84,-966.58 2185.84,4 -4,4"/>
<!-- n5 -->
<g id="node1" class="node">
<title>n5</title>
<ellipse fill="#98D2A5" stroke="black" cx="1290.92" cy="-925.1" rx="190.84" ry="37.45"/>
<text text-anchor="middle" x="1290.92" y="-936.4" font-family="Times,serif" font-size="14.00">advierte</text>
<text text-anchor="middle" x="1290.92" y="-921.4" font-family="Times,serif" font-size="14.00">vmip3s0 (root)</text>
<text text-anchor="middle" x="1290.92" y="-906.4" font-family="Times,serif" font-size="14.00">rep=no, t=no, r=yes, m=yes, c=no</text>
</g>
<!-- n3 -->
<g id="node2" class="node">
<title>n3</title>
<ellipse fill="#98D2A5" stroke="black" cx="790.92" cy="-814.15" rx="190.84" ry="37.45"/>
<text text-anchor="middle" x="790.92" y="-825.45" font-family="Times,serif" font-size="14.00">lehendakari</text>
<text text-anchor="middle" x="790.92" y="-810.45" font-family="Times,serif" font-size="14.00">nccs000 (nsubj)</text>
<text text-anchor="middle" x="790.92" y="-795.45" font-family="Times,serif" font-size="14.00">rep=no, t=yes, r=no, m=yes, c=no</text>
</g>
<!-- n5&#45;&gt;n3 -->
<g id="edge1" class="edge">
<title>n5&#45;&gt;n3</title>
<path fill="none" stroke="black" d="M1165.39,-896.75C1092.58,-880.88 1000.86,-860.9 926.42,-844.68"/>
<polygon fill="black" stroke="black" points="927.01,-841.22 916.5,-842.51 925.52,-848.06 927.01,-841.22"/>
</g>
<!-- n6 -->
<g id="node3" class="node">
<title>n6</title>
<ellipse fill="#98D2A5" stroke="black" cx="1290.92" cy="-814.15" rx="190.84" ry="37.45"/>
<text text-anchor="middle" x="1290.92" y="-825.45" font-family="Times,serif" font-size="14.00">de</text>
<text text-anchor="middle" x="1290.92" y="-810.45" font-family="Times,serif" font-size="14.00">sps00 (oobj)</text>
<text text-anchor="middle" x="1290.92" y="-795.45" font-family="Times,serif" font-size="14.00">rep=no, t=no, r=yes, m=yes, c=no</text>
</g>
<!-- n5&#45;&gt;n6 -->
<g id="edge2" class="edge">
<title>n5&#45;&gt;n6</title>
<path fill="none" stroke="black" d="M1290.92,-887.52C1290.92,-879.35 1290.92,-870.57 1290.92,-862.04"/>
<polygon fill="black" stroke="black" points="1294.42,-861.82 1290.92,-851.82 1287.42,-861.82 1294.42,-861.82"/>
</g>
<!-- n18 -->
<g id="node4" class="node">
<title>n18</title>
<ellipse fill="none" stroke="black" cx="1681.92" cy="-814.15" rx="181.95" ry="37.45"/>
<text text-anchor="middle" x="1681.92" y="-825.45" font-family="Times,serif" font-size="14.00">.</text>
<text text-anchor="middle" x="1681.92" y="-810.45" font-family="Times,serif" font-size="14.00">fp (punct)</text>
<text text-anchor="middle" x="1681.92" y="-795.45" font-family="Times,serif" font-size="14.00">rep=no, t=no, r=no, m=no, c=no</text>
</g>
<!-- n5&#45;&gt;n18 -->
<g id="edge3" class="edge">
<title>n5&#45;&gt;n18</title>
<path fill="none" stroke="black" d="M1398.54,-894.11C1450.57,-879.62 1513.09,-862.19 1566.16,-847.41"/>
<polygon fill="black" stroke="black" points="1567.26,-850.73 1575.95,-844.68 1565.38,-843.99 1567.26,-850.73"/>
</g>
<!-- n1 -->
<g id="node5" class="node">
<title>n1</title>
<ellipse fill="#98D2A5" stroke="black" cx="190.92" cy="-703.2" rx="190.84" ry="37.45"/>
<text text-anchor="middle" x="190.92" y="-714.5" font-family="Times,serif" font-size="14.00">El</text>
<text text-anchor="middle" x="190.92" y="-699.5" font-family="Times,serif" font-size="14.00">da0ms0 (det)</text>
<text text-anchor="middle" x="190.92" y="-684.5" font-family="Times,serif" font-size="14.00">rep=no, t=yes, r=no, m=yes, c=no</text>
</g>
<!-- n3&#45;&gt;n1 -->
<g id="edge4" class="edge">
<title>n3&#45;&gt;n1</title>
<path fill="none" stroke="black" d="M653,-788.2C575.9,-774.24 478.06,-756.51 390.92,-740.67 373.85,-737.57 355.97,-734.31 338.21,-731.08"/>
<polygon fill="black" stroke="black" points="338.82,-727.63 328.36,-729.28 337.57,-734.52 338.82,-727.63"/>
</g>
<!-- n2 -->
<g id="node6" class="node">
<title>n2</title>
<ellipse fill="#98D2A5" stroke="black" cx="590.92" cy="-703.2" rx="190.84" ry="37.45"/>
<text text-anchor="middle" x="590.92" y="-714.5" font-family="Times,serif" font-size="14.00">&#39;</text>
<text text-anchor="middle" x="590.92" y="-699.5" font-family="Times,serif" font-size="14.00">fz (punct)</text>
<text text-anchor="middle" x="590.92" y="-684.5" font-family="Times,serif" font-size="14.00">rep=no, t=yes, r=no, m=yes, c=no</text>
</g>
<!-- n3&#45;&gt;n2 -->
<g id="edge5" class="edge">
<title>n3&#45;&gt;n2</title>
<path fill="none" stroke="black" d="M727.64,-778.68C707.11,-767.49 684.18,-755 663.06,-743.5"/>
<polygon fill="black" stroke="black" points="664.59,-740.34 654.13,-738.63 661.24,-746.49 664.59,-740.34"/>
</g>
<!-- n4 -->
<g id="node7" class="node">
<title>n4</title>
<ellipse fill="#98D2A5" stroke="black" cx="990.92" cy="-703.2" rx="190.84" ry="37.45"/>
<text text-anchor="middle" x="990.92" y="-714.5" font-family="Times,serif" font-size="14.00">&#39;</text>
<text text-anchor="middle" x="990.92" y="-699.5" font-family="Times,serif" font-size="14.00">fz (punct)</text>
<text text-anchor="middle" x="990.92" y="-684.5" font-family="Times,serif" font-size="14.00">rep=no, t=yes, r=no, m=yes, c=no</text>
</g>
<!-- n3&#45;&gt;n4 -->
<g id="edge6" class="edge">
<title>n3&#45;&gt;n4</title>
<path fill="none" stroke="black" d="M854.2,-778.68C874.73,-767.49 897.65,-755 918.78,-743.5"/>
<polygon fill="black" stroke="black" points="920.6,-746.49 927.71,-738.63 917.25,-740.34 920.6,-746.49"/>
</g>
<!-- n7 -->
<g id="node8" class="node">
<title>n7</title>
<ellipse fill="#98D2A5" stroke="black" cx="1390.92" cy="-703.2" rx="190.84" ry="37.45"/>
<text text-anchor="middle" x="1390.92" y="-714.5" font-family="Times,serif" font-size="14.00">que</text>
<text text-anchor="middle" x="1390.92" y="-699.5" font-family="Times,serif" font-size="14.00">cs (pobj)</text>
<text text-anchor="middle" x="1390.92" y="-684.5" font-family="Times,serif" font-size="14.00">rep=no, t=no, r=yes, m=yes, c=no</text>
</g>
<!-- n6&#45;&gt;n7 -->
<g id="edge7" class="edge">
<title>n6&#45;&gt;n7</title>
<path fill="none" stroke="black" d="M1323.94,-777.17C1332.64,-767.69 1342.13,-757.36 1351.15,-747.53"/>
<polygon fill="black" stroke="black" points="1353.75,-749.87 1357.93,-740.14 1348.59,-745.14 1353.75,-749.87"/>
</g>
<!-- n10 -->
<g id="node9" class="node">
<title>n10</title>
<ellipse fill="#98D2A5" stroke="black" cx="1390.92" cy="-592.24" rx="190.84" ry="37.45"/>
<text text-anchor="middle" x="1390.92" y="-603.54" font-family="Times,serif" font-size="14.00">va</text>
<text text-anchor="middle" x="1390.92" y="-588.54" font-family="Times,serif" font-size="14.00">vmip3s0 (cobj)</text>
<text text-anchor="middle" x="1390.92" y="-573.54" font-family="Times,serif" font-size="14.00">rep=no, t=no, r=yes, m=yes, c=no</text>
</g>
<!-- n7&#45;&gt;n10 -->
<g id="edge8" class="edge">
<title>n7&#45;&gt;n10</title>
<path fill="none" stroke="black" d="M1390.92,-665.61C1390.92,-657.44 1390.92,-648.66 1390.92,-640.13"/>
<polygon fill="black" stroke="black" points="1394.42,-639.92 1390.92,-629.92 1387.42,-639.92 1394.42,-639.92"/>
</g>
<!-- n9 -->
<g id="node10" class="node">
<title>n9</title>
<ellipse fill="#98D2A5" stroke="black" cx="1190.92" cy="-481.29" rx="190.84" ry="37.45"/>
<text text-anchor="middle" x="1190.92" y="-492.59" font-family="Times,serif" font-size="14.00">debate</text>
<text text-anchor="middle" x="1190.92" y="-477.59" font-family="Times,serif" font-size="14.00">ncms000 (nsubj)</text>
<text text-anchor="middle" x="1190.92" y="-462.59" font-family="Times,serif" font-size="14.00">rep=no, t=no, r=yes, m=yes, c=no</text>
</g>
<!-- n10&#45;&gt;n9 -->
<g id="edge9" class="edge">
<title>n10&#45;&gt;n9</title>
<path fill="none" stroke="black" d="M1327.64,-556.77C1307.11,-545.59 1284.18,-533.1 1263.06,-521.59"/>
<polygon fill="black" stroke="black" points="1264.59,-518.44 1254.13,-516.73 1261.24,-524.58 1264.59,-518.44"/>
</g>
<!-- n11 -->
<g id="node11" class="node">
<title>n11</title>
<ellipse fill="#98D2A5" stroke="black" cx="1590.92" cy="-481.29" rx="190.84" ry="37.45"/>
<text text-anchor="middle" x="1590.92" y="-492.59" font-family="Times,serif" font-size="14.00">mejor</text>
<text text-anchor="middle" x="1590.92" y="-477.59" font-family="Times,serif" font-size="14.00">aq0cs0 (cpred)</text>
<text text-anchor="middle" x="1590.92" y="-462.59" font-family="Times,serif" font-size="14.00">rep=no, t=no, r=yes, m=yes, c=no</text>
</g>
<!-- n10&#45;&gt;n11 -->
<g id="edge10" class="edge">
<title>n10&#45;&gt;n11</title>
<path fill="none" stroke="black" d="M1454.2,-556.77C1474.73,-545.59 1497.65,-533.1 1518.78,-521.59"/>
<polygon fill="black" stroke="black" points="1520.6,-524.58 1527.71,-516.73 1517.25,-518.44 1520.6,-524.58"/>
</g>
<!-- n8 -->
<g id="node12" class="node">
<title>n8</title>
<ellipse fill="#98D2A5" stroke="black" cx="1190.92" cy="-370.34" rx="190.84" ry="37.45"/>
<text text-anchor="middle" x="1190.92" y="-381.64" font-family="Times,serif" font-size="14.00">el</text>
<text text-anchor="middle" x="1190.92" y="-366.64" font-family="Times,serif" font-size="14.00">da0ms0 (det)</text>
<text text-anchor="middle" x="1190.92" y="-351.64" font-family="Times,serif" font-size="14.00">rep=no, t=no, r=yes, m=yes, c=no</text>
</g>
<!-- n9&#45;&gt;n8 -->
<g id="edge11" class="edge">
<title>n9&#45;&gt;n8</title>
<path fill="none" stroke="black" d="M1190.92,-443.71C1190.92,-435.53 1190.92,-426.75 1190.92,-418.23"/>
<polygon fill="black" stroke="black" points="1194.42,-418.01 1190.92,-408.01 1187.42,-418.01 1194.42,-418.01"/>
</g>
<!-- n12 -->
<g id="node13" class="node">
<title>n12</title>
<ellipse fill="#98D2A5" stroke="black" cx="1590.92" cy="-370.34" rx="190.84" ry="37.45"/>
<text text-anchor="middle" x="1590.92" y="-381.64" font-family="Times,serif" font-size="14.00">en</text>
<text text-anchor="middle" x="1590.92" y="-366.64" font-family="Times,serif" font-size="14.00">sps00 (advmod)</text>
<text text-anchor="middle" x="1590.92" y="-351.64" font-family="Times,serif" font-size="14.00">rep=no, t=no, r=yes, m=yes, c=no</text>
</g>
<!-- n11&#45;&gt;n12 -->
<g id="edge12" class="edge">
<title>n11&#45;&gt;n12</title>
<path fill="none" stroke="black" d="M1590.92,-443.71C1590.92,-435.53 1590.92,-426.75 1590.92,-418.23"/>
<polygon fill="black" stroke="black" points="1594.42,-418.01 1590.92,-408.01 1587.42,-418.01 1594.42,-418.01"/>
</g>
<!-- n14 -->
<g id="node14" class="node">
<title>n14</title>
<ellipse fill="#98D2A5" stroke="black" cx="1990.92" cy="-370.34" rx="190.84" ry="37.45"/>
<text text-anchor="middle" x="1990.92" y="-381.64" font-family="Times,serif" font-size="14.00">de</text>
<text text-anchor="middle" x="1990.92" y="-366.64" font-family="Times,serif" font-size="14.00">sps00 (prepa)</text>
<text text-anchor="middle" x="1990.92" y="-351.64" font-family="Times,serif" font-size="14.00">rep=no, t=no, r=yes, m=yes, c=no</text>
</g>
<!-- n11&#45;&gt;n14 -->
<g id="edge13" class="edge">
<title>n11&#45;&gt;n14</title>
<path fill="none" stroke="black" d="M1700.22,-450.52C1753.36,-436.04 1817.33,-418.62 1871.71,-403.81"/>
<polygon fill="black" stroke="black" points="1872.67,-407.17 1881.4,-401.17 1870.83,-400.42 1872.67,-407.17"/>
</g>
<!-- n13 -->
<g id="node15" class="node">
<title>n13</title>
<ellipse fill="#98D2A5" stroke="black" cx="1590.92" cy="-259.38" rx="190.84" ry="37.45"/>
<text text-anchor="middle" x="1590.92" y="-270.68" font-family="Times,serif" font-size="14.00">privado</text>
<text text-anchor="middle" x="1590.92" y="-255.68" font-family="Times,serif" font-size="14.00">aq0msp (pobj)</text>
<text text-anchor="middle" x="1590.92" y="-240.68" font-family="Times,serif" font-size="14.00">rep=no, t=no, r=yes, m=yes, c=no</text>
</g>
<!-- n12&#45;&gt;n13 -->
<g id="edge14" class="edge">
<title>n12&#45;&gt;n13</title>
<path fill="none" stroke="black" d="M1590.92,-332.75C1590.92,-324.58 1590.92,-315.8 1590.92,-307.27"/>
<polygon fill="black" stroke="black" points="1594.42,-307.06 1590.92,-297.06 1587.42,-307.06 1594.42,-307.06"/>
</g>
<!-- n17 -->
<g id="node16" class="node">
<title>n17</title>
<ellipse fill="#98D2A5" stroke="black" cx="1990.92" cy="-259.38" rx="185.94" ry="37.45"/>
<text text-anchor="middle" x="1990.92" y="-270.68" font-family="Times,serif" font-size="14.00">trasciende</text>
<text text-anchor="middle" x="1990.92" y="-255.68" font-family="Times,serif" font-size="14.00">vmip3s0 (rcmod)</text>
<text text-anchor="middle" x="1990.92" y="-240.68" font-family="Times,serif" font-size="14.00">rep=no, t=no, r=no, m=yes, c=no</text>
</g>
<!-- n14&#45;&gt;n17 -->
<g id="edge15" class="edge">
<title>n14&#45;&gt;n17</title>
<path fill="none" stroke="black" d="M1990.92,-332.75C1990.92,-324.58 1990.92,-315.8 1990.92,-307.27"/>
<polygon fill="black" stroke="black" points="1994.42,-307.06 1990.92,-297.06 1987.42,-307.06 1994.42,-307.06"/>
</g>
<!-- n16 -->
<g id="node17" class="node">
<title>n16</title>
<ellipse fill="#98D2A5" stroke="black" cx="1990.92" cy="-148.43" rx="185.94" ry="37.45"/>
<text text-anchor="middle" x="1990.92" y="-159.73" font-family="Times,serif" font-size="14.00">que</text>
<text text-anchor="middle" x="1990.92" y="-144.73" font-family="Times,serif" font-size="14.00">pr0cn000 (nsubj)</text>
<text text-anchor="middle" x="1990.92" y="-129.73" font-family="Times,serif" font-size="14.00">rep=no, t=no, r=no, m=yes, c=no</text>
</g>
<!-- n17&#45;&gt;n16 -->
<g id="edge16" class="edge">
<title>n17&#45;&gt;n16</title>
<path fill="none" stroke="black" d="M1990.92,-221.8C1990.92,-213.63 1990.92,-204.85 1990.92,-196.32"/>
<polygon fill="black" stroke="black" points="1994.42,-196.1 1990.92,-186.1 1987.42,-196.1 1994.42,-196.1"/>
</g>
<!-- n15 -->
<g id="node18" class="node">
<title>n15</title>
<ellipse fill="#98D2A5" stroke="black" cx="1990.92" cy="-37.48" rx="185.94" ry="37.45"/>
<text text-anchor="middle" x="1990.92" y="-48.78" font-family="Times,serif" font-size="14.00">lo</text>
<text text-anchor="middle" x="1990.92" y="-33.78" font-family="Times,serif" font-size="14.00">da0ns0 (det)</text>
<text text-anchor="middle" x="1990.92" y="-18.78" font-family="Times,serif" font-size="14.00">rep=no, t=no, r=no, m=yes, c=no</text>
</g>
<!-- n16&#45;&gt;n15 -->
<g id="edge17" class="edge">
<title>n16&#45;&gt;n15</title>
<path fill="none" stroke="black" d="M1990.92,-110.85C1990.92,-102.67 1990.92,-93.89 1990.92,-85.37"/>
<polygon fill="black" stroke="black" points="1994.42,-85.15 1990.92,-75.15 1987.42,-85.15 1994.42,-85.15"/>
</g>
</g>
</svg>
