<?xml version="1.0" encoding="UTF-8" standalone="no"?>
<!DOCTYPE svg PUBLIC "-//W3C//DTD SVG 1.1//EN"
 "http://www.w3.org/Graphics/SVG/1.1/DTD/svg11.dtd">
<!-- Generated by graphviz version 2.43.0 (0)
 -->
<!-- Title: tree Pages: 1 -->
<svg width="4117pt" height="1082pt"
 viewBox="0.00 0.00 4116.89 1081.53" xmlns="http://www.w3.org/2000/svg" xmlns:xlink="http://www.w3.org/1999/xlink">
<g id="graph0" class="graph" transform="scale(1 1) rotate(0) translate(4 1077.53)">
<title>tree</title>
<polygon fill="white" stroke="transparent" points="-4,4 -4,-1077.53 4112.89,-1077.53 4112.89,4 -4,4"/>
<!-- n9 -->
<g id="node1" class="node">
<title>n9</title>
<ellipse fill="#98D2A5" stroke="black" cx="1994.92" cy="-1036.06" rx="190.84" ry="37.45"/>
<text text-anchor="middle" x="1994.92" y="-1047.36" font-family="Times,serif" font-size="14.00">enfrió</text>
<text text-anchor="middle" x="1994.92" y="-1032.36" font-family="Times,serif" font-size="14.00">vmis3s0 (root)</text>
<text text-anchor="middle" x="1994.92" y="-1017.36" font-family="Times,serif" font-size="14.00">rep=no, t=no, r=yes, m=yes, c=no</text>
</g>
<!-- n2 -->
<g id="node2" class="node">
<title>n2</title>
<ellipse fill="#98D2A5" stroke="black" cx="1190.92" cy="-925.1" rx="190.84" ry="37.45"/>
<text text-anchor="middle" x="1190.92" y="-936.4" font-family="Times,serif" font-size="14.00">ministro</text>
<text text-anchor="middle" x="1190.92" y="-921.4" font-family="Times,serif" font-size="14.00">ncms000 (nsubj)</text>
<text text-anchor="middle" x="1190.92" y="-906.4" font-family="Times,serif" font-size="14.00">rep=no, t=yes, r=no, m=yes, c=no</text>
</g>
<!-- n9&#45;&gt;n2 -->
<g id="edge1" class="edge">
<title>n9&#45;&gt;n2</title>
<path fill="none" stroke="black" d="M1839.9,-1014.05C1700.98,-995.22 1497.81,-967.69 1355.91,-948.46"/>
<polygon fill="black" stroke="black" points="1356.18,-944.97 1345.8,-947.09 1355.24,-951.9 1356.18,-944.97"/>
</g>
<!-- n10 -->
<g id="node3" class="node">
<title>n10</title>
<ellipse fill="none" stroke="black" cx="1799.92" cy="-925.1" rx="181.95" ry="37.45"/>
<text text-anchor="middle" x="1799.92" y="-936.4" font-family="Times,serif" font-size="14.00">ayer</text>
<text text-anchor="middle" x="1799.92" y="-921.4" font-family="Times,serif" font-size="14.00">rg (advmod)</text>
<text text-anchor="middle" x="1799.92" y="-906.4" font-family="Times,serif" font-size="14.00">rep=no, t=no, r=no, m=no, c=no</text>
</g>
<!-- n9&#45;&gt;n10 -->
<g id="edge2" class="edge">
<title>n9&#45;&gt;n10</title>
<path fill="none" stroke="black" d="M1933.22,-1000.58C1913.29,-989.45 1891.05,-977.02 1870.53,-965.56"/>
<polygon fill="black" stroke="black" points="1871.99,-962.36 1861.55,-960.54 1868.57,-968.47 1871.99,-962.36"/>
</g>
<!-- n12 -->
<g id="node4" class="node">
<title>n12</title>
<ellipse fill="#98D2A5" stroke="black" cx="2190.92" cy="-925.1" rx="190.84" ry="37.45"/>
<text text-anchor="middle" x="2190.92" y="-936.4" font-family="Times,serif" font-size="14.00">optimismo</text>
<text text-anchor="middle" x="2190.92" y="-921.4" font-family="Times,serif" font-size="14.00">ncms000 (dobj)</text>
<text text-anchor="middle" x="2190.92" y="-906.4" font-family="Times,serif" font-size="14.00">rep=no, t=no, r=yes, m=yes, c=no</text>
</g>
<!-- n9&#45;&gt;n12 -->
<g id="edge3" class="edge">
<title>n9&#45;&gt;n12</title>
<path fill="none" stroke="black" d="M2056.93,-1000.58C2076.86,-989.5 2099.1,-977.14 2119.64,-965.73"/>
<polygon fill="black" stroke="black" points="2121.59,-968.64 2128.63,-960.73 2118.19,-962.53 2121.59,-968.64"/>
</g>
<!-- n33 -->
<g id="node5" class="node">
<title>n33</title>
<ellipse fill="none" stroke="black" cx="2581.92" cy="-925.1" rx="181.95" ry="37.45"/>
<text text-anchor="middle" x="2581.92" y="-936.4" font-family="Times,serif" font-size="14.00">.</text>
<text text-anchor="middle" x="2581.92" y="-921.4" font-family="Times,serif" font-size="14.00">fp (punct)</text>
<text text-anchor="middle" x="2581.92" y="-906.4" font-family="Times,serif" font-size="14.00">rep=no, t=no, r=no, m=no, c=no</text>
</g>
<!-- n9&#45;&gt;n33 -->
<g id="edge4" class="edge">
<title>n9&#45;&gt;n33</title>
<path fill="none" stroke="black" d="M2132.87,-1010.08C2209,-996.22 2305.21,-978.61 2390.92,-962.58 2407.22,-959.53 2424.29,-956.31 2441.24,-953.1"/>
<polygon fill="black" stroke="black" points="2442.03,-956.51 2451.2,-951.21 2440.72,-949.63 2442.03,-956.51"/>
</g>
<!-- n1 -->
<g id="node6" class="node">
<title>n1</title>
<ellipse fill="#98D2A5" stroke="black" cx="190.92" cy="-814.15" rx="190.84" ry="37.45"/>
<text text-anchor="middle" x="190.92" y="-825.45" font-family="Times,serif" font-size="14.00">El</text>
<text text-anchor="middle" x="190.92" y="-810.45" font-family="Times,serif" font-size="14.00">da0ms0 (det)</text>
<text text-anchor="middle" x="190.92" y="-795.45" font-family="Times,serif" font-size="14.00">rep=no, t=yes, r=no, m=yes, c=no</text>
</g>
<!-- n2&#45;&gt;n1 -->
<g id="edge5" class="edge">
<title>n2&#45;&gt;n1</title>
<path fill="none" stroke="black" d="M1010.88,-912.45C848.4,-900.82 603.03,-880.52 390.92,-851.63 372.38,-849.1 352.94,-846.06 333.78,-842.82"/>
<polygon fill="black" stroke="black" points="334.23,-839.35 323.78,-841.11 333.05,-846.25 334.23,-839.35"/>
</g>
<!-- n3 -->
<g id="node7" class="node">
<title>n3</title>
<ellipse fill="#98D2A5" stroke="black" cx="590.92" cy="-814.15" rx="190.84" ry="37.45"/>
<text text-anchor="middle" x="590.92" y="-825.45" font-family="Times,serif" font-size="14.00">de</text>
<text text-anchor="middle" x="590.92" y="-810.45" font-family="Times,serif" font-size="14.00">sps00 (prepn)</text>
<text text-anchor="middle" x="590.92" y="-795.45" font-family="Times,serif" font-size="14.00">rep=no, t=yes, r=no, m=yes, c=no</text>
</g>
<!-- n2&#45;&gt;n3 -->
<g id="edge6" class="edge">
<title>n2&#45;&gt;n3</title>
<path fill="none" stroke="black" d="M1053,-899.15C975.9,-885.2 878.06,-867.47 790.92,-851.63 773.85,-848.52 755.97,-845.27 738.21,-842.03"/>
<polygon fill="black" stroke="black" points="738.82,-838.59 728.36,-840.24 737.57,-845.47 738.82,-838.59"/>
</g>
<!-- n5 -->
<g id="node8" class="node">
<title>n5</title>
<ellipse fill="#98D2A5" stroke="black" cx="990.92" cy="-814.15" rx="190.84" ry="37.45"/>
<text text-anchor="middle" x="990.92" y="-825.45" font-family="Times,serif" font-size="14.00">,</text>
<text text-anchor="middle" x="990.92" y="-810.45" font-family="Times,serif" font-size="14.00">fc (punct)</text>
<text text-anchor="middle" x="990.92" y="-795.45" font-family="Times,serif" font-size="14.00">rep=no, t=yes, r=no, m=yes, c=no</text>
</g>
<!-- n2&#45;&gt;n5 -->
<g id="edge7" class="edge">
<title>n2&#45;&gt;n5</title>
<path fill="none" stroke="black" d="M1127.64,-889.63C1107.11,-878.45 1084.18,-865.96 1063.06,-854.45"/>
<polygon fill="black" stroke="black" points="1064.59,-851.3 1054.13,-849.59 1061.24,-857.44 1064.59,-851.3"/>
</g>
<!-- n6 -->
<g id="node9" class="node">
<title>n6</title>
<ellipse fill="#98D2A5" stroke="black" cx="1390.92" cy="-814.15" rx="190.84" ry="37.45"/>
<text text-anchor="middle" x="1390.92" y="-825.45" font-family="Times,serif" font-size="14.00">Igor</text>
<text text-anchor="middle" x="1390.92" y="-810.45" font-family="Times,serif" font-size="14.00">np0000l (appos)</text>
<text text-anchor="middle" x="1390.92" y="-795.45" font-family="Times,serif" font-size="14.00">rep=no, t=yes, r=no, m=yes, c=no</text>
</g>
<!-- n2&#45;&gt;n6 -->
<g id="edge8" class="edge">
<title>n2&#45;&gt;n6</title>
<path fill="none" stroke="black" d="M1254.2,-889.63C1274.73,-878.45 1297.65,-865.96 1318.78,-854.45"/>
<polygon fill="black" stroke="black" points="1320.6,-857.44 1327.71,-849.59 1317.25,-851.3 1320.6,-857.44"/>
</g>
<!-- n8 -->
<g id="node10" class="node">
<title>n8</title>
<ellipse fill="#98D2A5" stroke="black" cx="1790.92" cy="-814.15" rx="190.84" ry="37.45"/>
<text text-anchor="middle" x="1790.92" y="-825.45" font-family="Times,serif" font-size="14.00">,</text>
<text text-anchor="middle" x="1790.92" y="-810.45" font-family="Times,serif" font-size="14.00">fc (punct)</text>
<text text-anchor="middle" x="1790.92" y="-795.45" font-family="Times,serif" font-size="14.00">rep=no, t=yes, r=no, m=yes, c=no</text>
</g>
<!-- n2&#45;&gt;n8 -->
<g id="edge9" class="edge">
<title>n2&#45;&gt;n8</title>
<path fill="none" stroke="black" d="M1328.84,-899.15C1405.94,-885.2 1503.78,-867.47 1590.92,-851.63 1607.99,-848.52 1625.87,-845.27 1643.63,-842.03"/>
<polygon fill="black" stroke="black" points="1644.27,-845.47 1653.48,-840.24 1643.02,-838.59 1644.27,-845.47"/>
</g>
<!-- n11 -->
<g id="node13" class="node">
<title>n11</title>
<ellipse fill="#98D2A5" stroke="black" cx="2190.92" cy="-814.15" rx="190.84" ry="37.45"/>
<text text-anchor="middle" x="2190.92" y="-825.45" font-family="Times,serif" font-size="14.00">el</text>
<text text-anchor="middle" x="2190.92" y="-810.45" font-family="Times,serif" font-size="14.00">da0ms0 (det)</text>
<text text-anchor="middle" x="2190.92" y="-795.45" font-family="Times,serif" font-size="14.00">rep=no, t=no, r=yes, m=yes, c=no</text>
</g>
<!-- n12&#45;&gt;n11 -->
<g id="edge12" class="edge">
<title>n12&#45;&gt;n11</title>
<path fill="none" stroke="black" d="M2190.92,-887.52C2190.92,-879.35 2190.92,-870.57 2190.92,-862.04"/>
<polygon fill="black" stroke="black" points="2194.42,-861.82 2190.92,-851.82 2187.42,-861.82 2194.42,-861.82"/>
</g>
<!-- n13 -->
<g id="node14" class="node">
<title>n13</title>
<ellipse fill="#98D2A5" stroke="black" cx="2590.92" cy="-814.15" rx="190.84" ry="37.45"/>
<text text-anchor="middle" x="2590.92" y="-825.45" font-family="Times,serif" font-size="14.00">de</text>
<text text-anchor="middle" x="2590.92" y="-810.45" font-family="Times,serif" font-size="14.00">sps00 (prepn)</text>
<text text-anchor="middle" x="2590.92" y="-795.45" font-family="Times,serif" font-size="14.00">rep=no, t=no, r=yes, m=yes, c=no</text>
</g>
<!-- n12&#45;&gt;n13 -->
<g id="edge13" class="edge">
<title>n12&#45;&gt;n13</title>
<path fill="none" stroke="black" d="M2300.22,-894.33C2353.36,-879.86 2417.33,-862.43 2471.71,-847.62"/>
<polygon fill="black" stroke="black" points="2472.67,-850.99 2481.4,-844.98 2470.83,-844.23 2472.67,-850.99"/>
</g>
<!-- n4 -->
<g id="node11" class="node">
<title>n4</title>
<ellipse fill="#98D2A5" stroke="black" cx="590.92" cy="-703.2" rx="190.84" ry="37.45"/>
<text text-anchor="middle" x="590.92" y="-714.5" font-family="Times,serif" font-size="14.00">Defensa</text>
<text text-anchor="middle" x="590.92" y="-699.5" font-family="Times,serif" font-size="14.00">np00000 (pobj)</text>
<text text-anchor="middle" x="590.92" y="-684.5" font-family="Times,serif" font-size="14.00">rep=no, t=yes, r=no, m=yes, c=no</text>
</g>
<!-- n3&#45;&gt;n4 -->
<g id="edge10" class="edge">
<title>n3&#45;&gt;n4</title>
<path fill="none" stroke="black" d="M590.92,-776.57C590.92,-768.39 590.92,-759.61 590.92,-751.09"/>
<polygon fill="black" stroke="black" points="594.42,-750.87 590.92,-740.87 587.42,-750.87 594.42,-750.87"/>
</g>
<!-- n7 -->
<g id="node12" class="node">
<title>n7</title>
<ellipse fill="#98D2A5" stroke="black" cx="1390.92" cy="-703.2" rx="190.84" ry="37.45"/>
<text text-anchor="middle" x="1390.92" y="-714.5" font-family="Times,serif" font-size="14.00">Sergueyev</text>
<text text-anchor="middle" x="1390.92" y="-699.5" font-family="Times,serif" font-size="14.00">np0000l (appos)</text>
<text text-anchor="middle" x="1390.92" y="-684.5" font-family="Times,serif" font-size="14.00">rep=no, t=yes, r=no, m=yes, c=no</text>
</g>
<!-- n6&#45;&gt;n7 -->
<g id="edge11" class="edge">
<title>n6&#45;&gt;n7</title>
<path fill="none" stroke="black" d="M1390.92,-776.57C1390.92,-768.39 1390.92,-759.61 1390.92,-751.09"/>
<polygon fill="black" stroke="black" points="1394.42,-750.87 1390.92,-740.87 1387.42,-750.87 1394.42,-750.87"/>
</g>
<!-- n15 -->
<g id="node15" class="node">
<title>n15</title>
<ellipse fill="#98D2A5" stroke="black" cx="2590.92" cy="-703.2" rx="190.84" ry="37.45"/>
<text text-anchor="middle" x="2590.92" y="-714.5" font-family="Times,serif" font-size="14.00">cúpula</text>
<text text-anchor="middle" x="2590.92" y="-699.5" font-family="Times,serif" font-size="14.00">ncfs000 (pobj)</text>
<text text-anchor="middle" x="2590.92" y="-684.5" font-family="Times,serif" font-size="14.00">rep=no, t=no, r=yes, m=yes, c=no</text>
</g>
<!-- n13&#45;&gt;n15 -->
<g id="edge14" class="edge">
<title>n13&#45;&gt;n15</title>
<path fill="none" stroke="black" d="M2590.92,-776.57C2590.92,-768.39 2590.92,-759.61 2590.92,-751.09"/>
<polygon fill="black" stroke="black" points="2594.42,-750.87 2590.92,-740.87 2587.42,-750.87 2594.42,-750.87"/>
</g>
<!-- n14 -->
<g id="node16" class="node">
<title>n14</title>
<ellipse fill="#98D2A5" stroke="black" cx="1790.92" cy="-592.24" rx="190.84" ry="37.45"/>
<text text-anchor="middle" x="1790.92" y="-603.54" font-family="Times,serif" font-size="14.00">la</text>
<text text-anchor="middle" x="1790.92" y="-588.54" font-family="Times,serif" font-size="14.00">da0fs0 (det)</text>
<text text-anchor="middle" x="1790.92" y="-573.54" font-family="Times,serif" font-size="14.00">rep=no, t=no, r=yes, m=yes, c=no</text>
</g>
<!-- n15&#45;&gt;n14 -->
<g id="edge15" class="edge">
<title>n15&#45;&gt;n14</title>
<path fill="none" stroke="black" d="M2424.38,-684.8C2303.76,-671.54 2136.93,-651.83 1990.92,-629.72 1972.87,-626.99 1953.96,-623.87 1935.26,-620.64"/>
<polygon fill="black" stroke="black" points="1935.66,-617.15 1925.21,-618.88 1934.46,-624.05 1935.66,-617.15"/>
</g>
<!-- n16 -->
<g id="node17" class="node">
<title>n16</title>
<ellipse fill="#98D2A5" stroke="black" cx="2190.92" cy="-592.24" rx="190.84" ry="37.45"/>
<text text-anchor="middle" x="2190.92" y="-603.54" font-family="Times,serif" font-size="14.00">militar</text>
<text text-anchor="middle" x="2190.92" y="-588.54" font-family="Times,serif" font-size="14.00">aq0cs0 (amod)</text>
<text text-anchor="middle" x="2190.92" y="-573.54" font-family="Times,serif" font-size="14.00">rep=no, t=no, r=yes, m=yes, c=no</text>
</g>
<!-- n15&#45;&gt;n16 -->
<g id="edge16" class="edge">
<title>n15&#45;&gt;n16</title>
<path fill="none" stroke="black" d="M2481.62,-672.42C2428.48,-657.95 2364.51,-640.53 2310.12,-625.71"/>
<polygon fill="black" stroke="black" points="2311,-622.32 2300.44,-623.07 2309.16,-629.08 2311,-622.32"/>
</g>
<!-- n17 -->
<g id="node18" class="node">
<title>n17</title>
<ellipse fill="#98D2A5" stroke="black" cx="2590.92" cy="-592.24" rx="190.84" ry="37.45"/>
<text text-anchor="middle" x="2590.92" y="-603.54" font-family="Times,serif" font-size="14.00">rusa</text>
<text text-anchor="middle" x="2590.92" y="-588.54" font-family="Times,serif" font-size="14.00">aq0fs0 (amod)</text>
<text text-anchor="middle" x="2590.92" y="-573.54" font-family="Times,serif" font-size="14.00">rep=no, t=no, r=yes, m=yes, c=no</text>
</g>
<!-- n15&#45;&gt;n17 -->
<g id="edge17" class="edge">
<title>n15&#45;&gt;n17</title>
<path fill="none" stroke="black" d="M2590.92,-665.61C2590.92,-657.44 2590.92,-648.66 2590.92,-640.13"/>
<polygon fill="black" stroke="black" points="2594.42,-639.92 2590.92,-629.92 2587.42,-639.92 2594.42,-639.92"/>
</g>
<!-- n18 -->
<g id="node19" class="node">
<title>n18</title>
<ellipse fill="#98D2A5" stroke="black" cx="2990.92" cy="-592.24" rx="190.84" ry="37.45"/>
<text text-anchor="middle" x="2990.92" y="-603.54" font-family="Times,serif" font-size="14.00">,</text>
<text text-anchor="middle" x="2990.92" y="-588.54" font-family="Times,serif" font-size="14.00">fc (punct)</text>
<text text-anchor="middle" x="2990.92" y="-573.54" font-family="Times,serif" font-size="14.00">rep=no, t=no, r=yes, m=yes, c=no</text>
</g>
<!-- n15&#45;&gt;n18 -->
<g id="edge18" class="edge">
<title>n15&#45;&gt;n18</title>
<path fill="none" stroke="black" d="M2700.22,-672.42C2753.36,-657.95 2817.33,-640.53 2871.71,-625.71"/>
<polygon fill="black" stroke="black" points="2872.67,-629.08 2881.4,-623.07 2870.83,-622.32 2872.67,-629.08"/>
</g>
<!-- n20 -->
<g id="node20" class="node">
<title>n20</title>
<ellipse fill="#98D2A5" stroke="black" cx="3385.92" cy="-592.24" rx="185.94" ry="37.45"/>
<text text-anchor="middle" x="3385.92" y="-603.54" font-family="Times,serif" font-size="14.00">esperaba</text>
<text text-anchor="middle" x="3385.92" y="-588.54" font-family="Times,serif" font-size="14.00">vmii3s0 (rcmod)</text>
<text text-anchor="middle" x="3385.92" y="-573.54" font-family="Times,serif" font-size="14.00">rep=no, t=no, r=no, m=yes, c=no</text>
</g>
<!-- n15&#45;&gt;n20 -->
<g id="edge19" class="edge">
<title>n15&#45;&gt;n20</title>
<path fill="none" stroke="black" d="M2757.81,-684.97C2878.42,-671.8 3045.08,-652.14 3190.92,-629.72 3208.44,-627.03 3226.8,-623.94 3244.95,-620.73"/>
<polygon fill="black" stroke="black" points="3245.77,-624.14 3255,-618.94 3244.54,-617.25 3245.77,-624.14"/>
</g>
<!-- n19 -->
<g id="node21" class="node">
<title>n19</title>
<ellipse fill="#98D2A5" stroke="black" cx="3190.92" cy="-481.29" rx="185.94" ry="37.45"/>
<text text-anchor="middle" x="3190.92" y="-492.59" font-family="Times,serif" font-size="14.00">que</text>
<text text-anchor="middle" x="3190.92" y="-477.59" font-family="Times,serif" font-size="14.00">pr0cn000 (nsubj)</text>
<text text-anchor="middle" x="3190.92" y="-462.59" font-family="Times,serif" font-size="14.00">rep=no, t=no, r=no, m=yes, c=no</text>
</g>
<!-- n20&#45;&gt;n19 -->
<g id="edge20" class="edge">
<title>n20&#45;&gt;n19</title>
<path fill="none" stroke="black" d="M3324.22,-556.77C3304.29,-545.64 3282.05,-533.21 3261.53,-521.75"/>
<polygon fill="black" stroke="black" points="3262.99,-518.55 3252.55,-516.73 3259.57,-524.66 3262.99,-518.55"/>
</g>
<!-- n21 -->
<g id="node22" class="node">
<title>n21</title>
<ellipse fill="#98D2A5" stroke="black" cx="3580.92" cy="-481.29" rx="185.94" ry="37.45"/>
<text text-anchor="middle" x="3580.92" y="-492.59" font-family="Times,serif" font-size="14.00">finalizar</text>
<text text-anchor="middle" x="3580.92" y="-477.59" font-family="Times,serif" font-size="14.00">vmn0000 (dobj)</text>
<text text-anchor="middle" x="3580.92" y="-462.59" font-family="Times,serif" font-size="14.00">rep=no, t=no, r=no, m=yes, c=no</text>
</g>
<!-- n20&#45;&gt;n21 -->
<g id="edge21" class="edge">
<title>n20&#45;&gt;n21</title>
<path fill="none" stroke="black" d="M3447.62,-556.77C3467.54,-545.64 3489.79,-533.21 3510.3,-521.75"/>
<polygon fill="black" stroke="black" points="3512.26,-524.66 3519.29,-516.73 3508.85,-518.55 3512.26,-524.66"/>
</g>
<!-- n23 -->
<g id="node23" class="node">
<title>n23</title>
<ellipse fill="#98D2A5" stroke="black" cx="3337.92" cy="-370.34" rx="185.94" ry="37.45"/>
<text text-anchor="middle" x="3337.92" y="-381.64" font-family="Times,serif" font-size="14.00">operación</text>
<text text-anchor="middle" x="3337.92" y="-366.64" font-family="Times,serif" font-size="14.00">ncfs000 (dobj)</text>
<text text-anchor="middle" x="3337.92" y="-351.64" font-family="Times,serif" font-size="14.00">rep=no, t=no, r=no, m=yes, c=no</text>
</g>
<!-- n21&#45;&gt;n23 -->
<g id="edge22" class="edge">
<title>n21&#45;&gt;n23</title>
<path fill="none" stroke="black" d="M3506.36,-446.86C3479.54,-434.83 3449.11,-421.19 3421.56,-408.84"/>
<polygon fill="black" stroke="black" points="3422.89,-405.6 3412.34,-404.7 3420.03,-411.99 3422.89,-405.6"/>
</g>
<!-- n29 -->
<g id="node24" class="node">
<title>n29</title>
<ellipse fill="#98D2A5" stroke="black" cx="3824.92" cy="-370.34" rx="185.94" ry="37.45"/>
<text text-anchor="middle" x="3824.92" y="-381.64" font-family="Times,serif" font-size="14.00">para</text>
<text text-anchor="middle" x="3824.92" y="-366.64" font-family="Times,serif" font-size="14.00">sps00 (prepv)</text>
<text text-anchor="middle" x="3824.92" y="-351.64" font-family="Times,serif" font-size="14.00">rep=no, t=no, r=no, m=yes, c=no</text>
</g>
<!-- n21&#45;&gt;n29 -->
<g id="edge23" class="edge">
<title>n21&#45;&gt;n29</title>
<path fill="none" stroke="black" d="M3655.79,-446.86C3682.72,-434.83 3713.27,-421.19 3740.93,-408.84"/>
<polygon fill="black" stroke="black" points="3742.49,-411.98 3750.19,-404.7 3739.64,-405.58 3742.49,-411.98"/>
</g>
<!-- n22 -->
<g id="node25" class="node">
<title>n22</title>
<ellipse fill="#98D2A5" stroke="black" cx="2752.92" cy="-259.38" rx="185.94" ry="37.45"/>
<text text-anchor="middle" x="2752.92" y="-270.68" font-family="Times,serif" font-size="14.00">la</text>
<text text-anchor="middle" x="2752.92" y="-255.68" font-family="Times,serif" font-size="14.00">da0fs0 (det)</text>
<text text-anchor="middle" x="2752.92" y="-240.68" font-family="Times,serif" font-size="14.00">rep=no, t=no, r=no, m=yes, c=no</text>
</g>
<!-- n23&#45;&gt;n22 -->
<g id="edge24" class="edge">
<title>n23&#45;&gt;n22</title>
<path fill="none" stroke="black" d="M3203.44,-344.39C3128.27,-330.43 3032.88,-312.7 2947.92,-296.86 2931.43,-293.79 2914.16,-290.56 2897,-287.36"/>
<polygon fill="black" stroke="black" points="2897.39,-283.87 2886.92,-285.47 2896.11,-290.75 2897.39,-283.87"/>
</g>
<!-- n24 -->
<g id="node26" class="node">
<title>n24</title>
<ellipse fill="#98D2A5" stroke="black" cx="3142.92" cy="-259.38" rx="185.94" ry="37.45"/>
<text text-anchor="middle" x="3142.92" y="-270.68" font-family="Times,serif" font-size="14.00">militar</text>
<text text-anchor="middle" x="3142.92" y="-255.68" font-family="Times,serif" font-size="14.00">aq0cs0 (amod)</text>
<text text-anchor="middle" x="3142.92" y="-240.68" font-family="Times,serif" font-size="14.00">rep=no, t=no, r=no, m=yes, c=no</text>
</g>
<!-- n23&#45;&gt;n24 -->
<g id="edge25" class="edge">
<title>n23&#45;&gt;n24</title>
<path fill="none" stroke="black" d="M3276.22,-334.86C3256.29,-323.73 3234.05,-311.3 3213.53,-299.84"/>
<polygon fill="black" stroke="black" points="3214.99,-296.64 3204.55,-294.82 3211.57,-302.75 3214.99,-296.64"/>
</g>
<!-- n25 -->
<g id="node27" class="node">
<title>n25</title>
<ellipse fill="#98D2A5" stroke="black" cx="3532.92" cy="-259.38" rx="185.94" ry="37.45"/>
<text text-anchor="middle" x="3532.92" y="-270.68" font-family="Times,serif" font-size="14.00">en</text>
<text text-anchor="middle" x="3532.92" y="-255.68" font-family="Times,serif" font-size="14.00">sps00 (prepn)</text>
<text text-anchor="middle" x="3532.92" y="-240.68" font-family="Times,serif" font-size="14.00">rep=no, t=no, r=no, m=yes, c=no</text>
</g>
<!-- n23&#45;&gt;n25 -->
<g id="edge26" class="edge">
<title>n23&#45;&gt;n25</title>
<path fill="none" stroke="black" d="M3399.62,-334.86C3419.54,-323.73 3441.79,-311.3 3462.3,-299.84"/>
<polygon fill="black" stroke="black" points="3464.26,-302.75 3471.29,-294.82 3460.85,-296.64 3464.26,-302.75"/>
</g>
<!-- n30 -->
<g id="node31" class="node">
<title>n30</title>
<ellipse fill="#98D2A5" stroke="black" cx="3922.92" cy="-259.38" rx="185.94" ry="37.45"/>
<text text-anchor="middle" x="3922.92" y="-270.68" font-family="Times,serif" font-size="14.00">fin</text>
<text text-anchor="middle" x="3922.92" y="-255.68" font-family="Times,serif" font-size="14.00">ncms000 (pobj)</text>
<text text-anchor="middle" x="3922.92" y="-240.68" font-family="Times,serif" font-size="14.00">rep=no, t=no, r=no, m=yes, c=no</text>
</g>
<!-- n29&#45;&gt;n30 -->
<g id="edge30" class="edge">
<title>n29&#45;&gt;n30</title>
<path fill="none" stroke="black" d="M3857.28,-333.36C3865.73,-323.97 3874.92,-313.75 3883.68,-304.01"/>
<polygon fill="black" stroke="black" points="3886.51,-306.1 3890.59,-296.32 3881.3,-301.42 3886.51,-306.1"/>
</g>
<!-- n27 -->
<g id="node28" class="node">
<title>n27</title>
<ellipse fill="#98D2A5" stroke="black" cx="3532.92" cy="-148.43" rx="185.94" ry="37.45"/>
<text text-anchor="middle" x="3532.92" y="-159.73" font-family="Times,serif" font-size="14.00">república</text>
<text text-anchor="middle" x="3532.92" y="-144.73" font-family="Times,serif" font-size="14.00">ncfs000 (pobj)</text>
<text text-anchor="middle" x="3532.92" y="-129.73" font-family="Times,serif" font-size="14.00">rep=no, t=no, r=no, m=yes, c=no</text>
</g>
<!-- n25&#45;&gt;n27 -->
<g id="edge27" class="edge">
<title>n25&#45;&gt;n27</title>
<path fill="none" stroke="black" d="M3532.92,-221.8C3532.92,-213.63 3532.92,-204.85 3532.92,-196.32"/>
<polygon fill="black" stroke="black" points="3536.42,-196.1 3532.92,-186.1 3529.42,-196.1 3536.42,-196.1"/>
</g>
<!-- n26 -->
<g id="node29" class="node">
<title>n26</title>
<ellipse fill="#98D2A5" stroke="black" cx="3142.92" cy="-37.48" rx="185.94" ry="37.45"/>
<text text-anchor="middle" x="3142.92" y="-48.78" font-family="Times,serif" font-size="14.00">la</text>
<text text-anchor="middle" x="3142.92" y="-33.78" font-family="Times,serif" font-size="14.00">da0fs0 (det)</text>
<text text-anchor="middle" x="3142.92" y="-18.78" font-family="Times,serif" font-size="14.00">rep=no, t=no, r=no, m=yes, c=no</text>
</g>
<!-- n27&#45;&gt;n26 -->
<g id="edge28" class="edge">
<title>n27&#45;&gt;n26</title>
<path fill="none" stroke="black" d="M3426.35,-117.66C3374.54,-103.19 3312.17,-85.76 3259.15,-70.95"/>
<polygon fill="black" stroke="black" points="3259.93,-67.53 3249.36,-68.21 3258.05,-74.27 3259.93,-67.53"/>
</g>
<!-- n28 -->
<g id="node30" class="node">
<title>n28</title>
<ellipse fill="#98D2A5" stroke="black" cx="3532.92" cy="-37.48" rx="185.94" ry="37.45"/>
<text text-anchor="middle" x="3532.92" y="-48.78" font-family="Times,serif" font-size="14.00">rebelde</text>
<text text-anchor="middle" x="3532.92" y="-33.78" font-family="Times,serif" font-size="14.00">aq0cs0 (amod)</text>
<text text-anchor="middle" x="3532.92" y="-18.78" font-family="Times,serif" font-size="14.00">rep=no, t=no, r=no, m=yes, c=no</text>
</g>
<!-- n27&#45;&gt;n28 -->
<g id="edge29" class="edge">
<title>n27&#45;&gt;n28</title>
<path fill="none" stroke="black" d="M3532.92,-110.85C3532.92,-102.67 3532.92,-93.89 3532.92,-85.37"/>
<polygon fill="black" stroke="black" points="3536.42,-85.15 3532.92,-75.15 3529.42,-85.15 3536.42,-85.15"/>
</g>
<!-- n31 -->
<g id="node32" class="node">
<title>n31</title>
<ellipse fill="#98D2A5" stroke="black" cx="3922.92" cy="-148.43" rx="185.94" ry="37.45"/>
<text text-anchor="middle" x="3922.92" y="-159.73" font-family="Times,serif" font-size="14.00">de</text>
<text text-anchor="middle" x="3922.92" y="-144.73" font-family="Times,serif" font-size="14.00">sps00 (prepn)</text>
<text text-anchor="middle" x="3922.92" y="-129.73" font-family="Times,serif" font-size="14.00">rep=no, t=no, r=no, m=yes, c=no</text>
</g>
<!-- n30&#45;&gt;n31 -->
<g id="edge31" class="edge">
<title>n30&#45;&gt;n31</title>
<path fill="none" stroke="black" d="M3922.92,-221.8C3922.92,-213.63 3922.92,-204.85 3922.92,-196.32"/>
<polygon fill="black" stroke="black" points="3926.42,-196.1 3922.92,-186.1 3919.42,-196.1 3926.42,-196.1"/>
</g>
<!-- n32 -->
<g id="node33" class="node">
<title>n32</title>
<ellipse fill="#98D2A5" stroke="black" cx="3922.92" cy="-37.48" rx="185.94" ry="37.45"/>
<text text-anchor="middle" x="3922.92" y="-48.78" font-family="Times,serif" font-size="14.00">año</text>
<text text-anchor="middle" x="3922.92" y="-33.78" font-family="Times,serif" font-size="14.00">ncms000 (pobj)</text>
<text text-anchor="middle" x="3922.92" y="-18.78" font-family="Times,serif" font-size="14.00">rep=no, t=no, r=no, m=yes, c=no</text>
</g>
<!-- n31&#45;&gt;n32 -->
<g id="edge32" class="edge">
<title>n31&#45;&gt;n32</title>
<path fill="none" stroke="black" d="M3922.92,-110.85C3922.92,-102.67 3922.92,-93.89 3922.92,-85.37"/>
<polygon fill="black" stroke="black" points="3926.42,-85.15 3922.92,-75.15 3919.42,-85.15 3926.42,-85.15"/>
</g>
</g>
</svg>
