<?xml version="1.0" encoding="UTF-8" standalone="no"?>
<!DOCTYPE svg PUBLIC "-//W3C//DTD SVG 1.1//EN"
 "http://www.w3.org/Graphics/SVG/1.1/DTD/svg11.dtd">
<!-- Generated by graphviz version 2.43.0 (0)
 -->
<!-- Title: tree Pages: 1 -->
<svg width="4700pt" height="1525pt"
 viewBox="0.00 0.00 4699.84 1525.35" xmlns="http://www.w3.org/2000/svg" xmlns:xlink="http://www.w3.org/1999/xlink">
<g id="graph0" class="graph" transform="scale(1 1) rotate(0) translate(4 1521.35)">
<title>tree</title>
<polygon fill="white" stroke="transparent" points="-4,4 -4,-1521.35 4695.84,-1521.35 4695.84,4 -4,4"/>
<!-- n8 -->
<g id="node1" class="node">
<title>n8</title>
<ellipse fill="#98D2A5" stroke="black" cx="1492.92" cy="-1479.87" rx="190.84" ry="37.45"/>
<text text-anchor="middle" x="1492.92" y="-1491.17" font-family="Times,serif" font-size="14.00">pasa</text>
<text text-anchor="middle" x="1492.92" y="-1476.17" font-family="Times,serif" font-size="14.00">vmip3s0 (root)</text>
<text text-anchor="middle" x="1492.92" y="-1461.17" font-family="Times,serif" font-size="14.00">rep=no, t=no, r=yes, m=yes, c=no</text>
</g>
<!-- n2 -->
<g id="node2" class="node">
<title>n2</title>
<ellipse fill="#98D2A5" stroke="black" cx="790.92" cy="-1368.92" rx="190.84" ry="37.45"/>
<text text-anchor="middle" x="790.92" y="-1380.22" font-family="Times,serif" font-size="14.00">modelo</text>
<text text-anchor="middle" x="790.92" y="-1365.22" font-family="Times,serif" font-size="14.00">ncms000 (nsubj)</text>
<text text-anchor="middle" x="790.92" y="-1350.22" font-family="Times,serif" font-size="14.00">rep=no, t=yes, r=no, m=yes, c=no</text>
</g>
<!-- n8&#45;&gt;n2 -->
<g id="edge1" class="edge">
<title>n8&#45;&gt;n2</title>
<path fill="none" stroke="black" d="M1345.33,-1455.96C1228.96,-1437.9 1067.04,-1412.77 948.23,-1394.33"/>
<polygon fill="black" stroke="black" points="948.73,-1390.87 938.31,-1392.79 947.66,-1397.78 948.73,-1390.87"/>
</g>
<!-- n9 -->
<g id="node3" class="node">
<title>n9</title>
<ellipse fill="#98D2A5" stroke="black" cx="1492.92" cy="-1368.92" rx="190.84" ry="37.45"/>
<text text-anchor="middle" x="1492.92" y="-1380.22" font-family="Times,serif" font-size="14.00">por</text>
<text text-anchor="middle" x="1492.92" y="-1365.22" font-family="Times,serif" font-size="14.00">sps00 (oobj)</text>
<text text-anchor="middle" x="1492.92" y="-1350.22" font-family="Times,serif" font-size="14.00">rep=no, t=no, r=yes, m=yes, c=no</text>
</g>
<!-- n8&#45;&gt;n9 -->
<g id="edge2" class="edge">
<title>n8&#45;&gt;n9</title>
<path fill="none" stroke="black" d="M1492.92,-1442.29C1492.92,-1434.11 1492.92,-1425.33 1492.92,-1416.81"/>
<polygon fill="black" stroke="black" points="1496.42,-1416.59 1492.92,-1406.59 1489.42,-1416.59 1496.42,-1416.59"/>
</g>
<!-- n46 -->
<g id="node4" class="node">
<title>n46</title>
<ellipse fill="none" stroke="black" cx="1883.92" cy="-1368.92" rx="181.95" ry="37.45"/>
<text text-anchor="middle" x="1883.92" y="-1380.22" font-family="Times,serif" font-size="14.00">.</text>
<text text-anchor="middle" x="1883.92" y="-1365.22" font-family="Times,serif" font-size="14.00">fp (punct)</text>
<text text-anchor="middle" x="1883.92" y="-1350.22" font-family="Times,serif" font-size="14.00">rep=no, t=no, r=no, m=no, c=no</text>
</g>
<!-- n8&#45;&gt;n46 -->
<g id="edge3" class="edge">
<title>n8&#45;&gt;n46</title>
<path fill="none" stroke="black" d="M1600.54,-1448.88C1652.57,-1434.38 1715.09,-1416.96 1768.16,-1402.17"/>
<polygon fill="black" stroke="black" points="1769.26,-1405.5 1777.95,-1399.45 1767.38,-1398.76 1769.26,-1405.5"/>
</g>
<!-- n1 -->
<g id="node5" class="node">
<title>n1</title>
<ellipse fill="#98D2A5" stroke="black" cx="190.92" cy="-1257.96" rx="190.84" ry="37.45"/>
<text text-anchor="middle" x="190.92" y="-1269.26" font-family="Times,serif" font-size="14.00">El</text>
<text text-anchor="middle" x="190.92" y="-1254.26" font-family="Times,serif" font-size="14.00">da0ms0 (det)</text>
<text text-anchor="middle" x="190.92" y="-1239.26" font-family="Times,serif" font-size="14.00">rep=no, t=yes, r=no, m=yes, c=no</text>
</g>
<!-- n2&#45;&gt;n1 -->
<g id="edge4" class="edge">
<title>n2&#45;&gt;n1</title>
<path fill="none" stroke="black" d="M653,-1342.97C575.9,-1329.01 478.06,-1311.28 390.92,-1295.44 373.85,-1292.34 355.97,-1289.08 338.21,-1285.85"/>
<polygon fill="black" stroke="black" points="338.82,-1282.4 328.36,-1284.05 337.57,-1289.29 338.82,-1282.4"/>
</g>
<!-- n3 -->
<g id="node6" class="node">
<title>n3</title>
<ellipse fill="#98D2A5" stroke="black" cx="590.92" cy="-1257.96" rx="190.84" ry="37.45"/>
<text text-anchor="middle" x="590.92" y="-1269.26" font-family="Times,serif" font-size="14.00">económico</text>
<text text-anchor="middle" x="590.92" y="-1254.26" font-family="Times,serif" font-size="14.00">aq0ms0 (amod)</text>
<text text-anchor="middle" x="590.92" y="-1239.26" font-family="Times,serif" font-size="14.00">rep=no, t=yes, r=no, m=yes, c=no</text>
</g>
<!-- n2&#45;&gt;n3 -->
<g id="edge5" class="edge">
<title>n2&#45;&gt;n3</title>
<path fill="none" stroke="black" d="M727.64,-1333.44C707.11,-1322.26 684.18,-1309.77 663.06,-1298.26"/>
<polygon fill="black" stroke="black" points="664.59,-1295.11 654.13,-1293.4 661.24,-1301.26 664.59,-1295.11"/>
</g>
<!-- n5 -->
<g id="node7" class="node">
<title>n5</title>
<ellipse fill="#98D2A5" stroke="black" cx="990.92" cy="-1257.96" rx="190.84" ry="37.45"/>
<text text-anchor="middle" x="990.92" y="-1269.26" font-family="Times,serif" font-size="14.00">defienden</text>
<text text-anchor="middle" x="990.92" y="-1254.26" font-family="Times,serif" font-size="14.00">vmip3p0 (rcmod)</text>
<text text-anchor="middle" x="990.92" y="-1239.26" font-family="Times,serif" font-size="14.00">rep=no, t=yes, r=no, m=yes, c=no</text>
</g>
<!-- n2&#45;&gt;n5 -->
<g id="edge6" class="edge">
<title>n2&#45;&gt;n5</title>
<path fill="none" stroke="black" d="M854.2,-1333.44C874.73,-1322.26 897.65,-1309.77 918.78,-1298.26"/>
<polygon fill="black" stroke="black" points="920.6,-1301.26 927.71,-1293.4 917.25,-1295.11 920.6,-1301.26"/>
</g>
<!-- n10 -->
<g id="node11" class="node">
<title>n10</title>
<ellipse fill="#98D2A5" stroke="black" cx="1795.92" cy="-1257.96" rx="190.84" ry="37.45"/>
<text text-anchor="middle" x="1795.92" y="-1269.26" font-family="Times,serif" font-size="14.00">dotar</text>
<text text-anchor="middle" x="1795.92" y="-1254.26" font-family="Times,serif" font-size="14.00">vmn0000 (pobj)</text>
<text text-anchor="middle" x="1795.92" y="-1239.26" font-family="Times,serif" font-size="14.00">rep=no, t=no, r=yes, m=yes, c=no</text>
</g>
<!-- n9&#45;&gt;n10 -->
<g id="edge10" class="edge">
<title>n9&#45;&gt;n10</title>
<path fill="none" stroke="black" d="M1582.6,-1335.67C1618.48,-1322.77 1659.95,-1307.86 1696.73,-1294.63"/>
<polygon fill="black" stroke="black" points="1698.24,-1297.81 1706.47,-1291.13 1695.87,-1291.22 1698.24,-1297.81"/>
</g>
<!-- n4 -->
<g id="node8" class="node">
<title>n4</title>
<ellipse fill="#98D2A5" stroke="black" cx="590.92" cy="-1147.01" rx="190.84" ry="37.45"/>
<text text-anchor="middle" x="590.92" y="-1158.31" font-family="Times,serif" font-size="14.00">que</text>
<text text-anchor="middle" x="590.92" y="-1143.31" font-family="Times,serif" font-size="14.00">pr0cn000 (dobj)</text>
<text text-anchor="middle" x="590.92" y="-1128.31" font-family="Times,serif" font-size="14.00">rep=no, t=yes, r=no, m=yes, c=no</text>
</g>
<!-- n5&#45;&gt;n4 -->
<g id="edge7" class="edge">
<title>n5&#45;&gt;n4</title>
<path fill="none" stroke="black" d="M881.62,-1227.19C828.48,-1212.72 764.51,-1195.29 710.12,-1180.48"/>
<polygon fill="black" stroke="black" points="711,-1177.09 700.44,-1177.84 709.16,-1183.85 711,-1177.09"/>
</g>
<!-- n7 -->
<g id="node9" class="node">
<title>n7</title>
<ellipse fill="#98D2A5" stroke="black" cx="990.92" cy="-1147.01" rx="190.84" ry="37.45"/>
<text text-anchor="middle" x="990.92" y="-1158.31" font-family="Times,serif" font-size="14.00">socialistas</text>
<text text-anchor="middle" x="990.92" y="-1143.31" font-family="Times,serif" font-size="14.00">nccp000 (nsubj)</text>
<text text-anchor="middle" x="990.92" y="-1128.31" font-family="Times,serif" font-size="14.00">rep=no, t=yes, r=no, m=yes, c=no</text>
</g>
<!-- n5&#45;&gt;n7 -->
<g id="edge8" class="edge">
<title>n5&#45;&gt;n7</title>
<path fill="none" stroke="black" d="M990.92,-1220.38C990.92,-1212.21 990.92,-1203.43 990.92,-1194.9"/>
<polygon fill="black" stroke="black" points="994.42,-1194.68 990.92,-1184.68 987.42,-1194.68 994.42,-1194.68"/>
</g>
<!-- n6 -->
<g id="node10" class="node">
<title>n6</title>
<ellipse fill="#98D2A5" stroke="black" cx="990.92" cy="-1036.06" rx="190.84" ry="37.45"/>
<text text-anchor="middle" x="990.92" y="-1047.36" font-family="Times,serif" font-size="14.00">los</text>
<text text-anchor="middle" x="990.92" y="-1032.36" font-family="Times,serif" font-size="14.00">da0mp0 (det)</text>
<text text-anchor="middle" x="990.92" y="-1017.36" font-family="Times,serif" font-size="14.00">rep=no, t=yes, r=no, m=yes, c=no</text>
</g>
<!-- n7&#45;&gt;n6 -->
<g id="edge9" class="edge">
<title>n7&#45;&gt;n6</title>
<path fill="none" stroke="black" d="M990.92,-1109.43C990.92,-1101.25 990.92,-1092.47 990.92,-1083.95"/>
<polygon fill="black" stroke="black" points="994.42,-1083.73 990.92,-1073.73 987.42,-1083.73 994.42,-1083.73"/>
</g>
<!-- n11 -->
<g id="node12" class="node">
<title>n11</title>
<ellipse fill="#98D2A5" stroke="black" cx="1390.92" cy="-1147.01" rx="190.84" ry="37.45"/>
<text text-anchor="middle" x="1390.92" y="-1158.31" font-family="Times,serif" font-size="14.00">a</text>
<text text-anchor="middle" x="1390.92" y="-1143.31" font-family="Times,serif" font-size="14.00">sps00 (dobj)</text>
<text text-anchor="middle" x="1390.92" y="-1128.31" font-family="Times,serif" font-size="14.00">rep=no, t=no, r=yes, m=yes, c=no</text>
</g>
<!-- n10&#45;&gt;n11 -->
<g id="edge11" class="edge">
<title>n10&#45;&gt;n11</title>
<path fill="none" stroke="black" d="M1685.79,-1227.34C1631.65,-1212.77 1566.3,-1195.19 1510.9,-1180.29"/>
<polygon fill="black" stroke="black" points="1511.6,-1176.85 1501.03,-1177.63 1509.78,-1183.61 1511.6,-1176.85"/>
</g>
<!-- n14 -->
<g id="node13" class="node">
<title>n14</title>
<ellipse fill="#98D2A5" stroke="black" cx="1795.92" cy="-1147.01" rx="195.74" ry="37.45"/>
<text text-anchor="middle" x="1795.92" y="-1158.31" font-family="Times,serif" font-size="14.00">de</text>
<text text-anchor="middle" x="1795.92" y="-1143.31" font-family="Times,serif" font-size="14.00">sps00 (oobj)</text>
<text text-anchor="middle" x="1795.92" y="-1128.31" font-family="Times,serif" font-size="14.00">rep=no, t=no, r=yes, m=yes, c=yes</text>
</g>
<!-- n10&#45;&gt;n14 -->
<g id="edge12" class="edge">
<title>n10&#45;&gt;n14</title>
<path fill="none" stroke="black" d="M1795.92,-1220.38C1795.92,-1212.21 1795.92,-1203.43 1795.92,-1194.9"/>
<polygon fill="black" stroke="black" points="1799.42,-1194.68 1795.92,-1184.68 1792.42,-1194.68 1799.42,-1194.68"/>
</g>
<!-- n17 -->
<g id="node14" class="node">
<title>n17</title>
<ellipse fill="#98D2A5" stroke="black" cx="2200.92" cy="-1147.01" rx="190.84" ry="37.45"/>
<text text-anchor="middle" x="2200.92" y="-1158.31" font-family="Times,serif" font-size="14.00">y</text>
<text text-anchor="middle" x="2200.92" y="-1143.31" font-family="Times,serif" font-size="14.00">cc (coord_fixed)</text>
<text text-anchor="middle" x="2200.92" y="-1128.31" font-family="Times,serif" font-size="14.00">rep=no, t=no, r=yes, m=yes, c=no</text>
</g>
<!-- n10&#45;&gt;n17 -->
<g id="edge13" class="edge">
<title>n10&#45;&gt;n17</title>
<path fill="none" stroke="black" d="M1906.05,-1227.34C1960.19,-1212.77 2025.54,-1195.19 2080.94,-1180.29"/>
<polygon fill="black" stroke="black" points="2082.06,-1183.61 2090.81,-1177.63 2080.24,-1176.85 2082.06,-1183.61"/>
</g>
<!-- n18 -->
<g id="node15" class="node">
<title>n18</title>
<ellipse fill="#98D2A5" stroke="black" cx="2801.92" cy="-1147.01" rx="195.74" ry="37.45"/>
<text text-anchor="middle" x="2801.92" y="-1158.31" font-family="Times,serif" font-size="14.00">de</text>
<text text-anchor="middle" x="2801.92" y="-1143.31" font-family="Times,serif" font-size="14.00">sps00 (oobj)</text>
<text text-anchor="middle" x="2801.92" y="-1128.31" font-family="Times,serif" font-size="14.00">rep=no, t=no, r=yes, m=yes, c=yes</text>
</g>
<!-- n10&#45;&gt;n18 -->
<g id="edge14" class="edge">
<title>n10&#45;&gt;n18</title>
<path fill="none" stroke="black" d="M1960.91,-1239.09C2143.27,-1219.34 2435.95,-1187.65 2623.51,-1167.33"/>
<polygon fill="black" stroke="black" points="2623.91,-1170.81 2633.48,-1166.25 2623.16,-1163.85 2623.91,-1170.81"/>
</g>
<!-- n13 -->
<g id="node16" class="node">
<title>n13</title>
<ellipse fill="#98D2A5" stroke="black" cx="1390.92" cy="-1036.06" rx="190.84" ry="37.45"/>
<text text-anchor="middle" x="1390.92" y="-1047.36" font-family="Times,serif" font-size="14.00">ayuntamientos</text>
<text text-anchor="middle" x="1390.92" y="-1032.36" font-family="Times,serif" font-size="14.00">ncmp000 (pobj)</text>
<text text-anchor="middle" x="1390.92" y="-1017.36" font-family="Times,serif" font-size="14.00">rep=no, t=no, r=yes, m=yes, c=no</text>
</g>
<!-- n11&#45;&gt;n13 -->
<g id="edge15" class="edge">
<title>n11&#45;&gt;n13</title>
<path fill="none" stroke="black" d="M1390.92,-1109.43C1390.92,-1101.25 1390.92,-1092.47 1390.92,-1083.95"/>
<polygon fill="black" stroke="black" points="1394.42,-1083.73 1390.92,-1073.73 1387.42,-1083.73 1394.42,-1083.73"/>
</g>
<!-- n16 -->
<g id="node18" class="node">
<title>n16</title>
<ellipse fill="#98D2A5" stroke="black" cx="1794.92" cy="-1036.06" rx="190.84" ry="37.45"/>
<text text-anchor="middle" x="1794.92" y="-1047.36" font-family="Times,serif" font-size="14.00">competencias</text>
<text text-anchor="middle" x="1794.92" y="-1032.36" font-family="Times,serif" font-size="14.00">ncfp000 (pobj)</text>
<text text-anchor="middle" x="1794.92" y="-1017.36" font-family="Times,serif" font-size="14.00">rep=no, t=no, r=yes, m=yes, c=no</text>
</g>
<!-- n14&#45;&gt;n16 -->
<g id="edge17" class="edge">
<title>n14&#45;&gt;n16</title>
<path fill="none" stroke="black" d="M1795.58,-1109.43C1795.51,-1101.25 1795.43,-1092.47 1795.35,-1083.95"/>
<polygon fill="black" stroke="black" points="1798.85,-1083.7 1795.26,-1073.73 1791.85,-1083.76 1798.85,-1083.7"/>
</g>
<!-- n21 -->
<g id="node20" class="node">
<title>n21</title>
<ellipse fill="#98D2A5" stroke="black" cx="2899.92" cy="-1036.06" rx="190.84" ry="37.45"/>
<text text-anchor="middle" x="2899.92" y="-1047.36" font-family="Times,serif" font-size="14.00">financiación</text>
<text text-anchor="middle" x="2899.92" y="-1032.36" font-family="Times,serif" font-size="14.00">ncfs000 (pobj)</text>
<text text-anchor="middle" x="2899.92" y="-1017.36" font-family="Times,serif" font-size="14.00">rep=no, t=no, r=yes, m=yes, c=no</text>
</g>
<!-- n18&#45;&gt;n21 -->
<g id="edge19" class="edge">
<title>n18&#45;&gt;n21</title>
<path fill="none" stroke="black" d="M2834.28,-1110.03C2842.73,-1100.64 2851.92,-1090.42 2860.68,-1080.68"/>
<polygon fill="black" stroke="black" points="2863.51,-1082.77 2867.59,-1073 2858.3,-1078.09 2863.51,-1082.77"/>
</g>
<!-- n12 -->
<g id="node17" class="node">
<title>n12</title>
<ellipse fill="#98D2A5" stroke="black" cx="1390.92" cy="-925.1" rx="190.84" ry="37.45"/>
<text text-anchor="middle" x="1390.92" y="-936.4" font-family="Times,serif" font-size="14.00">los</text>
<text text-anchor="middle" x="1390.92" y="-921.4" font-family="Times,serif" font-size="14.00">da0mp0 (det)</text>
<text text-anchor="middle" x="1390.92" y="-906.4" font-family="Times,serif" font-size="14.00">rep=no, t=no, r=yes, m=yes, c=no</text>
</g>
<!-- n13&#45;&gt;n12 -->
<g id="edge16" class="edge">
<title>n13&#45;&gt;n12</title>
<path fill="none" stroke="black" d="M1390.92,-998.47C1390.92,-990.3 1390.92,-981.52 1390.92,-972.99"/>
<polygon fill="black" stroke="black" points="1394.42,-972.78 1390.92,-962.78 1387.42,-972.78 1394.42,-972.78"/>
</g>
<!-- n15 -->
<g id="node19" class="node">
<title>n15</title>
<ellipse fill="#98D2A5" stroke="black" cx="1792.92" cy="-925.1" rx="190.84" ry="37.45"/>
<text text-anchor="middle" x="1792.92" y="-936.4" font-family="Times,serif" font-size="14.00">más</text>
<text text-anchor="middle" x="1792.92" y="-921.4" font-family="Times,serif" font-size="14.00">rg (advmod)</text>
<text text-anchor="middle" x="1792.92" y="-906.4" font-family="Times,serif" font-size="14.00">rep=no, t=no, r=yes, m=yes, c=no</text>
</g>
<!-- n16&#45;&gt;n15 -->
<g id="edge18" class="edge">
<title>n16&#45;&gt;n15</title>
<path fill="none" stroke="black" d="M1794.25,-998.47C1794.1,-990.3 1793.94,-981.52 1793.78,-972.99"/>
<polygon fill="black" stroke="black" points="1797.28,-972.71 1793.59,-962.78 1790.28,-972.84 1797.28,-972.71"/>
</g>
<!-- n19 -->
<g id="node21" class="node">
<title>n19</title>
<ellipse fill="#98D2A5" stroke="black" cx="2192.92" cy="-925.1" rx="190.84" ry="37.45"/>
<text text-anchor="middle" x="2192.92" y="-936.4" font-family="Times,serif" font-size="14.00">la</text>
<text text-anchor="middle" x="2192.92" y="-921.4" font-family="Times,serif" font-size="14.00">da0fs0 (det)</text>
<text text-anchor="middle" x="2192.92" y="-906.4" font-family="Times,serif" font-size="14.00">rep=no, t=no, r=yes, m=yes, c=no</text>
</g>
<!-- n21&#45;&gt;n19 -->
<g id="edge20" class="edge">
<title>n21&#45;&gt;n19</title>
<path fill="none" stroke="black" d="M2744.08,-1014.35C2643.67,-1000.63 2510.41,-981.68 2392.92,-962.58 2375.2,-959.7 2356.63,-956.52 2338.24,-953.28"/>
<polygon fill="black" stroke="black" points="2338.81,-949.83 2328.35,-951.53 2337.59,-956.72 2338.81,-949.83"/>
</g>
<!-- n20 -->
<g id="node22" class="node">
<title>n20</title>
<ellipse fill="#98D2A5" stroke="black" cx="2592.92" cy="-925.1" rx="190.84" ry="37.45"/>
<text text-anchor="middle" x="2592.92" y="-936.4" font-family="Times,serif" font-size="14.00">correspondiente</text>
<text text-anchor="middle" x="2592.92" y="-921.4" font-family="Times,serif" font-size="14.00">aq0cs0 (amod)</text>
<text text-anchor="middle" x="2592.92" y="-906.4" font-family="Times,serif" font-size="14.00">rep=no, t=no, r=yes, m=yes, c=no</text>
</g>
<!-- n21&#45;&gt;n20 -->
<g id="edge21" class="edge">
<title>n21&#45;&gt;n20</title>
<path fill="none" stroke="black" d="M2809.47,-1002.96C2772.78,-989.94 2730.28,-974.85 2692.7,-961.51"/>
<polygon fill="black" stroke="black" points="2693.85,-958.21 2683.25,-958.16 2691.51,-964.81 2693.85,-958.21"/>
</g>
<!-- n22 -->
<g id="node23" class="node">
<title>n22</title>
<ellipse fill="#98D2A5" stroke="black" cx="2997.92" cy="-925.1" rx="195.74" ry="37.45"/>
<text text-anchor="middle" x="2997.92" y="-936.4" font-family="Times,serif" font-size="14.00">para</text>
<text text-anchor="middle" x="2997.92" y="-921.4" font-family="Times,serif" font-size="14.00">sps00 (prepn)</text>
<text text-anchor="middle" x="2997.92" y="-906.4" font-family="Times,serif" font-size="14.00">rep=no, t=no, r=yes, m=yes, c=yes</text>
</g>
<!-- n21&#45;&gt;n22 -->
<g id="edge22" class="edge">
<title>n21&#45;&gt;n22</title>
<path fill="none" stroke="black" d="M2932.28,-999.08C2940.64,-989.79 2949.73,-979.68 2958.41,-970.03"/>
<polygon fill="black" stroke="black" points="2961.17,-972.19 2965.26,-962.42 2955.97,-967.51 2961.17,-972.19"/>
</g>
<!-- n37 -->
<g id="node24" class="node">
<title>n37</title>
<ellipse fill="#98D2A5" stroke="black" cx="3402.92" cy="-925.1" rx="190.84" ry="37.45"/>
<text text-anchor="middle" x="3402.92" y="-936.4" font-family="Times,serif" font-size="14.00">o</text>
<text text-anchor="middle" x="3402.92" y="-921.4" font-family="Times,serif" font-size="14.00">cc (coord_fixed)</text>
<text text-anchor="middle" x="3402.92" y="-906.4" font-family="Times,serif" font-size="14.00">rep=no, t=no, r=yes, m=yes, c=no</text>
</g>
<!-- n21&#45;&gt;n37 -->
<g id="edge23" class="edge">
<title>n21&#45;&gt;n37</title>
<path fill="none" stroke="black" d="M3025.87,-1007.77C3099.26,-991.88 3191.82,-971.83 3266.87,-955.57"/>
<polygon fill="black" stroke="black" points="3267.83,-958.94 3276.87,-953.41 3266.35,-952.1 3267.83,-958.94"/>
</g>
<!-- n38 -->
<g id="node25" class="node">
<title>n38</title>
<ellipse fill="#98D2A5" stroke="black" cx="3952.92" cy="-925.1" rx="195.74" ry="37.45"/>
<text text-anchor="middle" x="3952.92" y="-936.4" font-family="Times,serif" font-size="14.00">para</text>
<text text-anchor="middle" x="3952.92" y="-921.4" font-family="Times,serif" font-size="14.00">sps00 (prepn)</text>
<text text-anchor="middle" x="3952.92" y="-906.4" font-family="Times,serif" font-size="14.00">rep=no, t=no, r=yes, m=yes, c=yes</text>
</g>
<!-- n21&#45;&gt;n38 -->
<g id="edge24" class="edge">
<title>n21&#45;&gt;n38</title>
<path fill="none" stroke="black" d="M3067.18,-1017.87C3209.61,-1003.21 3419.7,-981.57 3602.92,-962.58 3658.12,-956.86 3718.22,-950.6 3772.79,-944.91"/>
<polygon fill="black" stroke="black" points="3773.33,-948.38 3782.91,-943.86 3772.6,-941.42 3773.33,-948.38"/>
</g>
<!-- n23 -->
<g id="node26" class="node">
<title>n23</title>
<ellipse fill="#98D2A5" stroke="black" cx="2925.92" cy="-814.15" rx="190.84" ry="37.45"/>
<text text-anchor="middle" x="2925.92" y="-825.45" font-family="Times,serif" font-size="14.00">hacer</text>
<text text-anchor="middle" x="2925.92" y="-810.45" font-family="Times,serif" font-size="14.00">vmsp3p0 (pobj)</text>
<text text-anchor="middle" x="2925.92" y="-795.45" font-family="Times,serif" font-size="14.00">rep=no, t=no, r=yes, m=yes, c=no</text>
</g>
<!-- n22&#45;&gt;n23 -->
<g id="edge25" class="edge">
<title>n22&#45;&gt;n23</title>
<path fill="none" stroke="black" d="M2973.94,-887.82C2968.06,-878.91 2961.68,-869.27 2955.56,-860.01"/>
<polygon fill="black" stroke="black" points="2958.47,-858.06 2950.03,-851.64 2952.63,-861.92 2958.47,-858.06"/>
</g>
<!-- n39 -->
<g id="node40" class="node">
<title>n39</title>
<ellipse fill="#98D2A5" stroke="black" cx="3988.92" cy="-814.15" rx="190.84" ry="37.45"/>
<text text-anchor="middle" x="3988.92" y="-825.45" font-family="Times,serif" font-size="14.00">poder</text>
<text text-anchor="middle" x="3988.92" y="-810.45" font-family="Times,serif" font-size="14.00">vmn0000 (pobj)</text>
<text text-anchor="middle" x="3988.92" y="-795.45" font-family="Times,serif" font-size="14.00">rep=no, t=no, r=yes, m=yes, c=no</text>
</g>
<!-- n38&#45;&gt;n39 -->
<g id="edge39" class="edge">
<title>n38&#45;&gt;n39</title>
<path fill="none" stroke="black" d="M3965.01,-887.52C3967.77,-879.17 3970.74,-870.18 3973.61,-861.48"/>
<polygon fill="black" stroke="black" points="3976.99,-862.41 3976.8,-851.82 3970.34,-860.22 3976.99,-862.41"/>
</g>
<!-- n24 -->
<g id="node27" class="node">
<title>n24</title>
<ellipse fill="#98D2A5" stroke="black" cx="1925.92" cy="-703.2" rx="190.84" ry="37.45"/>
<text text-anchor="middle" x="1925.92" y="-714.5" font-family="Times,serif" font-size="14.00">frente</text>
<text text-anchor="middle" x="1925.92" y="-699.5" font-family="Times,serif" font-size="14.00">rg (advmod)</text>
<text text-anchor="middle" x="1925.92" y="-684.5" font-family="Times,serif" font-size="14.00">rep=no, t=no, r=yes, m=yes, c=no</text>
</g>
<!-- n23&#45;&gt;n24 -->
<g id="edge26" class="edge">
<title>n23&#45;&gt;n24</title>
<path fill="none" stroke="black" d="M2745.88,-801.49C2583.4,-789.87 2338.03,-769.56 2125.92,-740.67 2107.38,-738.15 2087.94,-735.1 2068.78,-731.87"/>
<polygon fill="black" stroke="black" points="2069.23,-728.39 2058.78,-730.16 2068.05,-735.29 2069.23,-728.39"/>
</g>
<!-- n25 -->
<g id="node28" class="node">
<title>n25</title>
<ellipse fill="#98D2A5" stroke="black" cx="2325.92" cy="-703.2" rx="190.84" ry="37.45"/>
<text text-anchor="middle" x="2325.92" y="-714.5" font-family="Times,serif" font-size="14.00">,</text>
<text text-anchor="middle" x="2325.92" y="-699.5" font-family="Times,serif" font-size="14.00">fc (punct)</text>
<text text-anchor="middle" x="2325.92" y="-684.5" font-family="Times,serif" font-size="14.00">rep=no, t=no, r=yes, m=yes, c=no</text>
</g>
<!-- n23&#45;&gt;n25 -->
<g id="edge27" class="edge">
<title>n23&#45;&gt;n25</title>
<path fill="none" stroke="black" d="M2788,-788.2C2710.9,-774.24 2613.06,-756.51 2525.92,-740.67 2508.85,-737.57 2490.97,-734.31 2473.21,-731.08"/>
<polygon fill="black" stroke="black" points="2473.82,-727.63 2463.36,-729.28 2472.57,-734.52 2473.82,-727.63"/>
</g>
<!-- n26 -->
<g id="node29" class="node">
<title>n26</title>
<ellipse fill="#98D2A5" stroke="black" cx="2725.92" cy="-703.2" rx="190.84" ry="37.45"/>
<text text-anchor="middle" x="2725.92" y="-714.5" font-family="Times,serif" font-size="14.00">por</text>
<text text-anchor="middle" x="2725.92" y="-699.5" font-family="Times,serif" font-size="14.00">sps00 (advmod)</text>
<text text-anchor="middle" x="2725.92" y="-684.5" font-family="Times,serif" font-size="14.00">rep=no, t=no, r=yes, m=yes, c=no</text>
</g>
<!-- n23&#45;&gt;n26 -->
<g id="edge28" class="edge">
<title>n23&#45;&gt;n26</title>
<path fill="none" stroke="black" d="M2862.64,-778.68C2842.11,-767.49 2819.18,-755 2798.06,-743.5"/>
<polygon fill="black" stroke="black" points="2799.59,-740.34 2789.13,-738.63 2796.24,-746.49 2799.59,-740.34"/>
</g>
<!-- n28 -->
<g id="node30" class="node">
<title>n28</title>
<ellipse fill="#98D2A5" stroke="black" cx="3125.92" cy="-703.2" rx="190.84" ry="37.45"/>
<text text-anchor="middle" x="3125.92" y="-714.5" font-family="Times,serif" font-size="14.00">,</text>
<text text-anchor="middle" x="3125.92" y="-699.5" font-family="Times,serif" font-size="14.00">fc (punct)</text>
<text text-anchor="middle" x="3125.92" y="-684.5" font-family="Times,serif" font-size="14.00">rep=no, t=no, r=yes, m=yes, c=no</text>
</g>
<!-- n23&#45;&gt;n28 -->
<g id="edge29" class="edge">
<title>n23&#45;&gt;n28</title>
<path fill="none" stroke="black" d="M2989.2,-778.68C3009.73,-767.49 3032.65,-755 3053.78,-743.5"/>
<polygon fill="black" stroke="black" points="3055.6,-746.49 3062.71,-738.63 3052.25,-740.34 3055.6,-746.49"/>
</g>
<!-- n29 -->
<g id="node31" class="node">
<title>n29</title>
<ellipse fill="#98D2A5" stroke="black" cx="3525.92" cy="-703.2" rx="190.84" ry="37.45"/>
<text text-anchor="middle" x="3525.92" y="-714.5" font-family="Times,serif" font-size="14.00">a</text>
<text text-anchor="middle" x="3525.92" y="-699.5" font-family="Times,serif" font-size="14.00">sps00 (oobj)</text>
<text text-anchor="middle" x="3525.92" y="-684.5" font-family="Times,serif" font-size="14.00">rep=no, t=no, r=yes, m=yes, c=no</text>
</g>
<!-- n23&#45;&gt;n29 -->
<g id="edge30" class="edge">
<title>n23&#45;&gt;n29</title>
<path fill="none" stroke="black" d="M3063.84,-788.2C3140.94,-774.24 3238.78,-756.51 3325.92,-740.67 3342.99,-737.57 3360.87,-734.31 3378.63,-731.08"/>
<polygon fill="black" stroke="black" points="3379.27,-734.52 3388.48,-729.28 3378.02,-727.63 3379.27,-734.52"/>
</g>
<!-- n27 -->
<g id="node32" class="node">
<title>n27</title>
<ellipse fill="#98D2A5" stroke="black" cx="2725.92" cy="-592.24" rx="190.84" ry="37.45"/>
<text text-anchor="middle" x="2725.92" y="-603.54" font-family="Times,serif" font-size="14.00">ejemplo</text>
<text text-anchor="middle" x="2725.92" y="-588.54" font-family="Times,serif" font-size="14.00">ncmp000 (pobj)</text>
<text text-anchor="middle" x="2725.92" y="-573.54" font-family="Times,serif" font-size="14.00">rep=no, t=no, r=yes, m=yes, c=no</text>
</g>
<!-- n26&#45;&gt;n27 -->
<g id="edge31" class="edge">
<title>n26&#45;&gt;n27</title>
<path fill="none" stroke="black" d="M2725.92,-665.61C2725.92,-657.44 2725.92,-648.66 2725.92,-640.13"/>
<polygon fill="black" stroke="black" points="2729.42,-639.92 2725.92,-629.92 2722.42,-639.92 2729.42,-639.92"/>
</g>
<!-- n30 -->
<g id="node33" class="node">
<title>n30</title>
<ellipse fill="#98D2A5" stroke="black" cx="3325.92" cy="-592.24" rx="190.84" ry="37.45"/>
<text text-anchor="middle" x="3325.92" y="-603.54" font-family="Times,serif" font-size="14.00">problemas</text>
<text text-anchor="middle" x="3325.92" y="-588.54" font-family="Times,serif" font-size="14.00">ncmp000 (pobj)</text>
<text text-anchor="middle" x="3325.92" y="-573.54" font-family="Times,serif" font-size="14.00">rep=no, t=no, r=yes, m=yes, c=no</text>
</g>
<!-- n29&#45;&gt;n30 -->
<g id="edge32" class="edge">
<title>n29&#45;&gt;n30</title>
<path fill="none" stroke="black" d="M3462.64,-667.72C3442.11,-656.54 3419.18,-644.05 3398.06,-632.54"/>
<polygon fill="black" stroke="black" points="3399.59,-629.39 3389.13,-627.68 3396.24,-635.54 3399.59,-629.39"/>
</g>
<!-- n31 -->
<g id="node34" class="node">
<title>n31</title>
<ellipse fill="#98D2A5" stroke="black" cx="3300.92" cy="-481.29" rx="190.84" ry="37.45"/>
<text text-anchor="middle" x="3300.92" y="-492.59" font-family="Times,serif" font-size="14.00">como</text>
<text text-anchor="middle" x="3300.92" y="-477.59" font-family="Times,serif" font-size="14.00">cs (dep)</text>
<text text-anchor="middle" x="3300.92" y="-462.59" font-family="Times,serif" font-size="14.00">rep=no, t=no, r=yes, m=yes, c=no</text>
</g>
<!-- n30&#45;&gt;n31 -->
<g id="edge33" class="edge">
<title>n30&#45;&gt;n31</title>
<path fill="none" stroke="black" d="M3317.52,-554.66C3315.63,-546.4 3313.59,-537.51 3311.61,-528.9"/>
<polygon fill="black" stroke="black" points="3314.98,-527.93 3309.33,-518.96 3308.16,-529.49 3314.98,-527.93"/>
</g>
<!-- n33 -->
<g id="node35" class="node">
<title>n33</title>
<ellipse fill="#98D2A5" stroke="black" cx="3300.92" cy="-370.34" rx="190.84" ry="37.45"/>
<text text-anchor="middle" x="3300.92" y="-381.64" font-family="Times,serif" font-size="14.00">generados</text>
<text text-anchor="middle" x="3300.92" y="-366.64" font-family="Times,serif" font-size="14.00">aq0mpp (cobj)</text>
<text text-anchor="middle" x="3300.92" y="-351.64" font-family="Times,serif" font-size="14.00">rep=no, t=no, r=yes, m=yes, c=no</text>
</g>
<!-- n31&#45;&gt;n33 -->
<g id="edge34" class="edge">
<title>n31&#45;&gt;n33</title>
<path fill="none" stroke="black" d="M3300.92,-443.71C3300.92,-435.53 3300.92,-426.75 3300.92,-418.23"/>
<polygon fill="black" stroke="black" points="3304.42,-418.01 3300.92,-408.01 3297.42,-418.01 3304.42,-418.01"/>
</g>
<!-- n32 -->
<g id="node36" class="node">
<title>n32</title>
<ellipse fill="#98D2A5" stroke="black" cx="3100.92" cy="-259.38" rx="190.84" ry="37.45"/>
<text text-anchor="middle" x="3100.92" y="-270.68" font-family="Times,serif" font-size="14.00">los</text>
<text text-anchor="middle" x="3100.92" y="-255.68" font-family="Times,serif" font-size="14.00">da0mp0 (det)</text>
<text text-anchor="middle" x="3100.92" y="-240.68" font-family="Times,serif" font-size="14.00">rep=no, t=no, r=yes, m=yes, c=no</text>
</g>
<!-- n33&#45;&gt;n32 -->
<g id="edge35" class="edge">
<title>n33&#45;&gt;n32</title>
<path fill="none" stroke="black" d="M3237.64,-334.86C3217.11,-323.68 3194.18,-311.19 3173.06,-299.68"/>
<polygon fill="black" stroke="black" points="3174.59,-296.53 3164.13,-294.82 3171.24,-302.68 3174.59,-296.53"/>
</g>
<!-- n34 -->
<g id="node37" class="node">
<title>n34</title>
<ellipse fill="#98D2A5" stroke="black" cx="3500.92" cy="-259.38" rx="190.84" ry="37.45"/>
<text text-anchor="middle" x="3500.92" y="-270.68" font-family="Times,serif" font-size="14.00">por</text>
<text text-anchor="middle" x="3500.92" y="-255.68" font-family="Times,serif" font-size="14.00">sps00 (agent)</text>
<text text-anchor="middle" x="3500.92" y="-240.68" font-family="Times,serif" font-size="14.00">rep=no, t=no, r=yes, m=yes, c=no</text>
</g>
<!-- n33&#45;&gt;n34 -->
<g id="edge36" class="edge">
<title>n33&#45;&gt;n34</title>
<path fill="none" stroke="black" d="M3364.2,-334.86C3384.73,-323.68 3407.65,-311.19 3428.78,-299.68"/>
<polygon fill="black" stroke="black" points="3430.6,-302.68 3437.71,-294.82 3427.25,-296.53 3430.6,-302.68"/>
</g>
<!-- n36 -->
<g id="node38" class="node">
<title>n36</title>
<ellipse fill="#98D2A5" stroke="black" cx="3500.92" cy="-148.43" rx="190.84" ry="37.45"/>
<text text-anchor="middle" x="3500.92" y="-159.73" font-family="Times,serif" font-size="14.00">inmigración</text>
<text text-anchor="middle" x="3500.92" y="-144.73" font-family="Times,serif" font-size="14.00">ncfs000 (pobj)</text>
<text text-anchor="middle" x="3500.92" y="-129.73" font-family="Times,serif" font-size="14.00">rep=no, t=no, r=yes, m=yes, c=no</text>
</g>
<!-- n34&#45;&gt;n36 -->
<g id="edge37" class="edge">
<title>n34&#45;&gt;n36</title>
<path fill="none" stroke="black" d="M3500.92,-221.8C3500.92,-213.63 3500.92,-204.85 3500.92,-196.32"/>
<polygon fill="black" stroke="black" points="3504.42,-196.1 3500.92,-186.1 3497.42,-196.1 3504.42,-196.1"/>
</g>
<!-- n35 -->
<g id="node39" class="node">
<title>n35</title>
<ellipse fill="#98D2A5" stroke="black" cx="3500.92" cy="-37.48" rx="190.84" ry="37.45"/>
<text text-anchor="middle" x="3500.92" y="-48.78" font-family="Times,serif" font-size="14.00">la</text>
<text text-anchor="middle" x="3500.92" y="-33.78" font-family="Times,serif" font-size="14.00">da0fs0 (det)</text>
<text text-anchor="middle" x="3500.92" y="-18.78" font-family="Times,serif" font-size="14.00">rep=no, t=no, r=yes, m=yes, c=no</text>
</g>
<!-- n36&#45;&gt;n35 -->
<g id="edge38" class="edge">
<title>n36&#45;&gt;n35</title>
<path fill="none" stroke="black" d="M3500.92,-110.85C3500.92,-102.67 3500.92,-93.89 3500.92,-85.37"/>
<polygon fill="black" stroke="black" points="3504.42,-85.15 3500.92,-75.15 3497.42,-85.15 3504.42,-85.15"/>
</g>
<!-- n40 -->
<g id="node41" class="node">
<title>n40</title>
<ellipse fill="#98D2A5" stroke="black" cx="4025.92" cy="-703.2" rx="190.84" ry="37.45"/>
<text text-anchor="middle" x="4025.92" y="-714.5" font-family="Times,serif" font-size="14.00">desarrollar</text>
<text text-anchor="middle" x="4025.92" y="-699.5" font-family="Times,serif" font-size="14.00">vmn0000 (dobj)</text>
<text text-anchor="middle" x="4025.92" y="-684.5" font-family="Times,serif" font-size="14.00">rep=no, t=no, r=yes, m=yes, c=no</text>
</g>
<!-- n39&#45;&gt;n40 -->
<g id="edge40" class="edge">
<title>n39&#45;&gt;n40</title>
<path fill="none" stroke="black" d="M4001.34,-776.57C4004.18,-768.21 4007.23,-759.23 4010.19,-750.52"/>
<polygon fill="black" stroke="black" points="4013.56,-751.46 4013.47,-740.87 4006.94,-749.21 4013.56,-751.46"/>
</g>
<!-- n43 -->
<g id="node42" class="node">
<title>n43</title>
<ellipse fill="#98D2A5" stroke="black" cx="4075.92" cy="-592.24" rx="190.84" ry="37.45"/>
<text text-anchor="middle" x="4075.92" y="-603.54" font-family="Times,serif" font-size="14.00">política</text>
<text text-anchor="middle" x="4075.92" y="-588.54" font-family="Times,serif" font-size="14.00">ncfs000 (dobj)</text>
<text text-anchor="middle" x="4075.92" y="-573.54" font-family="Times,serif" font-size="14.00">rep=no, t=no, r=yes, m=yes, c=no</text>
</g>
<!-- n40&#45;&gt;n43 -->
<g id="edge41" class="edge">
<title>n40&#45;&gt;n43</title>
<path fill="none" stroke="black" d="M4042.71,-665.61C4046.62,-657.08 4050.84,-647.89 4054.92,-639.01"/>
<polygon fill="black" stroke="black" points="4058.1,-640.46 4059.09,-629.92 4051.74,-637.54 4058.1,-640.46"/>
</g>
<!-- n41 -->
<g id="node43" class="node">
<title>n41</title>
<ellipse fill="#98D2A5" stroke="black" cx="3700.92" cy="-481.29" rx="190.84" ry="37.45"/>
<text text-anchor="middle" x="3700.92" y="-492.59" font-family="Times,serif" font-size="14.00">su</text>
<text text-anchor="middle" x="3700.92" y="-477.59" font-family="Times,serif" font-size="14.00">dp3cs0 (poss)</text>
<text text-anchor="middle" x="3700.92" y="-462.59" font-family="Times,serif" font-size="14.00">rep=no, t=no, r=yes, m=yes, c=no</text>
</g>
<!-- n43&#45;&gt;n41 -->
<g id="edge42" class="edge">
<title>n43&#45;&gt;n41</title>
<path fill="none" stroke="black" d="M3970.96,-560.75C3922.51,-546.67 3864.88,-529.93 3815.32,-515.53"/>
<polygon fill="black" stroke="black" points="3816.11,-512.11 3805.53,-512.68 3814.15,-518.83 3816.11,-512.11"/>
</g>
<!-- n42 -->
<g id="node44" class="node">
<title>n42</title>
<ellipse fill="#98D2A5" stroke="black" cx="4100.92" cy="-481.29" rx="190.84" ry="37.45"/>
<text text-anchor="middle" x="4100.92" y="-492.59" font-family="Times,serif" font-size="14.00">propia</text>
<text text-anchor="middle" x="4100.92" y="-477.59" font-family="Times,serif" font-size="14.00">di0fs0 (det)</text>
<text text-anchor="middle" x="4100.92" y="-462.59" font-family="Times,serif" font-size="14.00">rep=no, t=no, r=yes, m=yes, c=no</text>
</g>
<!-- n43&#45;&gt;n42 -->
<g id="edge43" class="edge">
<title>n43&#45;&gt;n42</title>
<path fill="none" stroke="black" d="M4084.31,-554.66C4086.21,-546.4 4088.25,-537.51 4090.22,-528.9"/>
<polygon fill="black" stroke="black" points="4093.68,-529.49 4092.5,-518.96 4086.86,-527.93 4093.68,-529.49"/>
</g>
<!-- n44 -->
<g id="node45" class="node">
<title>n44</title>
<ellipse fill="#98D2A5" stroke="black" cx="4500.92" cy="-481.29" rx="190.84" ry="37.45"/>
<text text-anchor="middle" x="4500.92" y="-492.59" font-family="Times,serif" font-size="14.00">de</text>
<text text-anchor="middle" x="4500.92" y="-477.59" font-family="Times,serif" font-size="14.00">sps00 (prepn)</text>
<text text-anchor="middle" x="4500.92" y="-462.59" font-family="Times,serif" font-size="14.00">rep=no, t=no, r=yes, m=yes, c=no</text>
</g>
<!-- n43&#45;&gt;n44 -->
<g id="edge44" class="edge">
<title>n43&#45;&gt;n44</title>
<path fill="none" stroke="black" d="M4189.53,-562.12C4247.53,-547.25 4318.18,-529.14 4377.51,-513.93"/>
<polygon fill="black" stroke="black" points="4378.49,-517.29 4387.31,-511.42 4376.75,-510.51 4378.49,-517.29"/>
</g>
<!-- n45 -->
<g id="node46" class="node">
<title>n45</title>
<ellipse fill="#98D2A5" stroke="black" cx="4500.92" cy="-370.34" rx="190.84" ry="37.45"/>
<text text-anchor="middle" x="4500.92" y="-381.64" font-family="Times,serif" font-size="14.00">empleo</text>
<text text-anchor="middle" x="4500.92" y="-366.64" font-family="Times,serif" font-size="14.00">ncms000 (pobj)</text>
<text text-anchor="middle" x="4500.92" y="-351.64" font-family="Times,serif" font-size="14.00">rep=no, t=no, r=yes, m=yes, c=no</text>
</g>
<!-- n44&#45;&gt;n45 -->
<g id="edge45" class="edge">
<title>n44&#45;&gt;n45</title>
<path fill="none" stroke="black" d="M4500.92,-443.71C4500.92,-435.53 4500.92,-426.75 4500.92,-418.23"/>
<polygon fill="black" stroke="black" points="4504.42,-418.01 4500.92,-408.01 4497.42,-418.01 4504.42,-418.01"/>
</g>
</g>
</svg>
