<?xml version="1.0" encoding="UTF-8" standalone="no"?>
<!DOCTYPE svg PUBLIC "-//W3C//DTD SVG 1.1//EN"
 "http://www.w3.org/Graphics/SVG/1.1/DTD/svg11.dtd">
<!-- Generated by graphviz version 2.43.0 (0)
 -->
<!-- Title: tree Pages: 1 -->
<svg width="5054pt" height="638pt"
 viewBox="0.00 0.00 5053.70 637.72" xmlns="http://www.w3.org/2000/svg" xmlns:xlink="http://www.w3.org/1999/xlink">
<g id="graph0" class="graph" transform="scale(1 1) rotate(0) translate(4 633.72)">
<title>tree</title>
<polygon fill="white" stroke="transparent" points="-4,4 -4,-633.72 5049.7,-633.72 5049.7,4 -4,4"/>
<!-- n26 -->
<g id="node1" class="node">
<title>n26</title>
<ellipse fill="none" stroke="black" cx="2812.97" cy="-592.24" rx="181.95" ry="37.45"/>
<text text-anchor="middle" x="2812.97" y="-603.54" font-family="Times,serif" font-size="14.00">y</text>
<text text-anchor="middle" x="2812.97" y="-588.54" font-family="Times,serif" font-size="14.00">cc (root)</text>
<text text-anchor="middle" x="2812.97" y="-573.54" font-family="Times,serif" font-size="14.00">rep=no, t=no, r=no, m=no, c=no</text>
</g>
<!-- n20 -->
<g id="node2" class="node">
<title>n20</title>
<ellipse fill="none" stroke="black" cx="2137.97" cy="-481.29" rx="181.95" ry="37.45"/>
<text text-anchor="middle" x="2137.97" y="-492.59" font-family="Times,serif" font-size="14.00">harán</text>
<text text-anchor="middle" x="2137.97" y="-477.59" font-family="Times,serif" font-size="14.00">vmif3p0 (coord)</text>
<text text-anchor="middle" x="2137.97" y="-462.59" font-family="Times,serif" font-size="14.00">rep=no, t=no, r=no, m=no, c=no</text>
</g>
<!-- n26&#45;&gt;n20 -->
<g id="edge1" class="edge">
<title>n26&#45;&gt;n20</title>
<path fill="none" stroke="black" d="M2671.88,-568.47C2559.78,-550.38 2403.35,-525.13 2288.79,-506.63"/>
<polygon fill="black" stroke="black" points="2289.31,-503.17 2278.88,-505.03 2288.19,-510.08 2289.31,-503.17"/>
</g>
<!-- n25 -->
<g id="node3" class="node">
<title>n25</title>
<ellipse fill="none" stroke="black" cx="2622.97" cy="-481.29" rx="181.95" ry="37.45"/>
<text text-anchor="middle" x="2622.97" y="-492.59" font-family="Times,serif" font-size="14.00">,</text>
<text text-anchor="middle" x="2622.97" y="-477.59" font-family="Times,serif" font-size="14.00">fc (punct)</text>
<text text-anchor="middle" x="2622.97" y="-462.59" font-family="Times,serif" font-size="14.00">rep=no, t=no, r=no, m=no, c=no</text>
</g>
<!-- n26&#45;&gt;n25 -->
<g id="edge2" class="edge">
<title>n26&#45;&gt;n25</title>
<path fill="none" stroke="black" d="M2752.85,-556.77C2733.44,-545.64 2711.77,-533.21 2691.77,-521.75"/>
<polygon fill="black" stroke="black" points="2693.44,-518.66 2683.02,-516.73 2689.95,-524.74 2693.44,-518.66"/>
</g>
<!-- n27 -->
<g id="node4" class="node">
<title>n27</title>
<ellipse fill="none" stroke="black" cx="3003.97" cy="-481.29" rx="181.95" ry="37.45"/>
<text text-anchor="middle" x="3003.97" y="-492.59" font-family="Times,serif" font-size="14.00">contrastarán</text>
<text text-anchor="middle" x="3003.97" y="-477.59" font-family="Times,serif" font-size="14.00">vmif3p0 (coord)</text>
<text text-anchor="middle" x="3003.97" y="-462.59" font-family="Times,serif" font-size="14.00">rep=no, t=no, r=no, m=no, c=no</text>
</g>
<!-- n26&#45;&gt;n27 -->
<g id="edge3" class="edge">
<title>n26&#45;&gt;n27</title>
<path fill="none" stroke="black" d="M2873.4,-556.77C2892.92,-545.64 2914.7,-533.21 2934.8,-521.75"/>
<polygon fill="black" stroke="black" points="2936.65,-524.72 2943.6,-516.73 2933.18,-518.64 2936.65,-524.72"/>
</g>
<!-- n34 -->
<g id="node5" class="node">
<title>n34</title>
<ellipse fill="none" stroke="black" cx="3384.97" cy="-481.29" rx="181.95" ry="37.45"/>
<text text-anchor="middle" x="3384.97" y="-492.59" font-family="Times,serif" font-size="14.00">.</text>
<text text-anchor="middle" x="3384.97" y="-477.59" font-family="Times,serif" font-size="14.00">fp (punct)</text>
<text text-anchor="middle" x="3384.97" y="-462.59" font-family="Times,serif" font-size="14.00">rep=no, t=no, r=no, m=no, c=no</text>
</g>
<!-- n26&#45;&gt;n34 -->
<g id="edge4" class="edge">
<title>n26&#45;&gt;n34</title>
<path fill="none" stroke="black" d="M2944.69,-566.32C3018.32,-552.38 3111.76,-534.65 3194.97,-518.77 3211.03,-515.7 3227.86,-512.48 3244.58,-509.28"/>
<polygon fill="black" stroke="black" points="3245.24,-512.71 3254.41,-507.39 3243.93,-505.84 3245.24,-512.71"/>
</g>
<!-- n2 -->
<g id="node6" class="node">
<title>n2</title>
<ellipse fill="none" stroke="black" cx="575.97" cy="-370.34" rx="190.84" ry="37.45"/>
<text text-anchor="middle" x="575.97" y="-381.64" font-family="Times,serif" font-size="14.00">desorientación</text>
<text text-anchor="middle" x="575.97" y="-366.64" font-family="Times,serif" font-size="14.00">ncfs000 (nsubj)</text>
<text text-anchor="middle" x="575.97" y="-351.64" font-family="Times,serif" font-size="14.00">rep=yes, t=no, r=no, m=no, c=yes</text>
</g>
<!-- n20&#45;&gt;n2 -->
<g id="edge5" class="edge">
<title>n20&#45;&gt;n2</title>
<path fill="none" stroke="black" d="M1967.09,-468.37C1672.49,-447.82 1071.21,-405.88 764.7,-384.5"/>
<polygon fill="black" stroke="black" points="764.59,-380.99 754.37,-383.78 764.11,-387.97 764.59,-380.99"/>
</g>
<!-- n7 -->
<g id="node7" class="node">
<title>n7</title>
<ellipse fill="none" stroke="black" cx="1355.97" cy="-370.34" rx="190.84" ry="37.45"/>
<text text-anchor="middle" x="1355.97" y="-381.64" font-family="Times,serif" font-size="14.00">contradicciones</text>
<text text-anchor="middle" x="1355.97" y="-366.64" font-family="Times,serif" font-size="14.00">ncfp000 (nsubj)</text>
<text text-anchor="middle" x="1355.97" y="-351.64" font-family="Times,serif" font-size="14.00">rep=yes, t=no, r=no, m=no, c=yes</text>
</g>
<!-- n20&#45;&gt;n7 -->
<g id="edge6" class="edge">
<title>n20&#45;&gt;n7</title>
<path fill="none" stroke="black" d="M1989.5,-459.6C1855.43,-440.92 1658.47,-413.48 1519.83,-394.17"/>
<polygon fill="black" stroke="black" points="1519.92,-390.65 1509.53,-392.73 1518.96,-397.58 1519.92,-390.65"/>
</g>
<!-- n11 -->
<g id="node8" class="node">
<title>n11</title>
<ellipse fill="none" stroke="black" cx="1940.97" cy="-370.34" rx="185.94" ry="37.45"/>
<text text-anchor="middle" x="1940.97" y="-381.64" font-family="Times,serif" font-size="14.00">y</text>
<text text-anchor="middle" x="1940.97" y="-366.64" font-family="Times,serif" font-size="14.00">cc (coord_fixed)</text>
<text text-anchor="middle" x="1940.97" y="-351.64" font-family="Times,serif" font-size="14.00">rep=yes, t=no, r=no, m=no, c=no</text>
</g>
<!-- n20&#45;&gt;n11 -->
<g id="edge7" class="edge">
<title>n20&#45;&gt;n11</title>
<path fill="none" stroke="black" d="M2075.91,-445.97C2055.58,-434.72 2032.84,-422.15 2011.91,-410.57"/>
<polygon fill="black" stroke="black" points="2013.5,-407.45 2003.06,-405.68 2010.11,-413.58 2013.5,-407.45"/>
</g>
<!-- n13 -->
<g id="node9" class="node">
<title>n13</title>
<ellipse fill="none" stroke="black" cx="2430.97" cy="-370.34" rx="190.84" ry="37.45"/>
<text text-anchor="middle" x="2430.97" y="-381.64" font-family="Times,serif" font-size="14.00">iniciativas</text>
<text text-anchor="middle" x="2430.97" y="-366.64" font-family="Times,serif" font-size="14.00">ncfp000 (nsubj)</text>
<text text-anchor="middle" x="2430.97" y="-351.64" font-family="Times,serif" font-size="14.00">rep=yes, t=no, r=no, m=no, c=yes</text>
</g>
<!-- n20&#45;&gt;n13 -->
<g id="edge8" class="edge">
<title>n20&#45;&gt;n13</title>
<path fill="none" stroke="black" d="M2224.29,-448.19C2258.85,-435.34 2298.81,-420.48 2334.33,-407.27"/>
<polygon fill="black" stroke="black" points="2335.59,-410.54 2343.74,-403.77 2333.15,-403.98 2335.59,-410.54"/>
</g>
<!-- n21 -->
<g id="node10" class="node">
<title>n21</title>
<ellipse fill="none" stroke="black" cx="3065.97" cy="-370.34" rx="181.95" ry="37.45"/>
<text text-anchor="middle" x="3065.97" y="-381.64" font-family="Times,serif" font-size="14.00">que</text>
<text text-anchor="middle" x="3065.97" y="-366.64" font-family="Times,serif" font-size="14.00">cs (dobj)</text>
<text text-anchor="middle" x="3065.97" y="-351.64" font-family="Times,serif" font-size="14.00">rep=no, t=no, r=no, m=no, c=no</text>
</g>
<!-- n20&#45;&gt;n21 -->
<g id="edge9" class="edge">
<title>n20&#45;&gt;n21</title>
<path fill="none" stroke="black" d="M2290.91,-461.03C2336.3,-455.39 2386.13,-449.28 2431.97,-443.81 2589.82,-425 2769.9,-404.51 2897.7,-390.13"/>
<polygon fill="black" stroke="black" points="2898.42,-393.57 2907.96,-388.97 2897.63,-386.61 2898.42,-393.57"/>
</g>
<!-- n28 -->
<g id="node29" class="node">
<title>n28</title>
<ellipse fill="none" stroke="black" cx="3964.97" cy="-370.34" rx="181.95" ry="37.45"/>
<text text-anchor="middle" x="3964.97" y="-381.64" font-family="Times,serif" font-size="14.00">con</text>
<text text-anchor="middle" x="3964.97" y="-366.64" font-family="Times,serif" font-size="14.00">sps00 (oobj)</text>
<text text-anchor="middle" x="3964.97" y="-351.64" font-family="Times,serif" font-size="14.00">rep=no, t=no, r=no, m=no, c=no</text>
</g>
<!-- n27&#45;&gt;n28 -->
<g id="edge28" class="edge">
<title>n27&#45;&gt;n28</title>
<path fill="none" stroke="black" d="M3130.16,-454.31C3151.4,-450.44 3173.27,-446.77 3193.97,-443.81 3394.7,-415.18 3626.5,-395.13 3783.1,-383.49"/>
<polygon fill="black" stroke="black" points="3783.6,-386.96 3793.31,-382.73 3783.08,-379.98 3783.6,-386.96"/>
</g>
<!-- n1 -->
<g id="node11" class="node">
<title>n1</title>
<ellipse fill="none" stroke="black" cx="185.97" cy="-259.38" rx="185.94" ry="37.45"/>
<text text-anchor="middle" x="185.97" y="-270.68" font-family="Times,serif" font-size="14.00">La</text>
<text text-anchor="middle" x="185.97" y="-255.68" font-family="Times,serif" font-size="14.00">da0fs0 (det)</text>
<text text-anchor="middle" x="185.97" y="-240.68" font-family="Times,serif" font-size="14.00">rep=yes, t=no, r=no, m=no, c=no</text>
</g>
<!-- n2&#45;&gt;n1 -->
<g id="edge10" class="edge">
<title>n2&#45;&gt;n1</title>
<path fill="none" stroke="black" d="M468.37,-339.28C416.79,-324.87 354.93,-307.58 302.27,-292.87"/>
<polygon fill="black" stroke="black" points="303.12,-289.48 292.54,-290.16 301.23,-296.22 303.12,-289.48"/>
</g>
<!-- n3 -->
<g id="node12" class="node">
<title>n3</title>
<ellipse fill="none" stroke="black" cx="575.97" cy="-259.38" rx="185.94" ry="37.45"/>
<text text-anchor="middle" x="575.97" y="-270.68" font-family="Times,serif" font-size="14.00">del</text>
<text text-anchor="middle" x="575.97" y="-255.68" font-family="Times,serif" font-size="14.00">spcms (prepn)</text>
<text text-anchor="middle" x="575.97" y="-240.68" font-family="Times,serif" font-size="14.00">rep=yes, t=no, r=no, m=no, c=no</text>
</g>
<!-- n2&#45;&gt;n3 -->
<g id="edge11" class="edge">
<title>n2&#45;&gt;n3</title>
<path fill="none" stroke="black" d="M575.97,-332.75C575.97,-324.58 575.97,-315.8 575.97,-307.27"/>
<polygon fill="black" stroke="black" points="579.47,-307.06 575.97,-297.06 572.47,-307.06 579.47,-307.06"/>
</g>
<!-- n6 -->
<g id="node14" class="node">
<title>n6</title>
<ellipse fill="none" stroke="black" cx="965.97" cy="-259.38" rx="185.94" ry="37.45"/>
<text text-anchor="middle" x="965.97" y="-270.68" font-family="Times,serif" font-size="14.00">las</text>
<text text-anchor="middle" x="965.97" y="-255.68" font-family="Times,serif" font-size="14.00">da0fp0 (det)</text>
<text text-anchor="middle" x="965.97" y="-240.68" font-family="Times,serif" font-size="14.00">rep=yes, t=no, r=no, m=no, c=no</text>
</g>
<!-- n7&#45;&gt;n6 -->
<g id="edge13" class="edge">
<title>n7&#45;&gt;n6</title>
<path fill="none" stroke="black" d="M1248.37,-339.28C1196.79,-324.87 1134.93,-307.58 1082.27,-292.87"/>
<polygon fill="black" stroke="black" points="1083.12,-289.48 1072.54,-290.16 1081.23,-296.22 1083.12,-289.48"/>
</g>
<!-- n8 -->
<g id="node15" class="node">
<title>n8</title>
<ellipse fill="none" stroke="black" cx="1355.97" cy="-259.38" rx="185.94" ry="37.45"/>
<text text-anchor="middle" x="1355.97" y="-270.68" font-family="Times,serif" font-size="14.00">con</text>
<text text-anchor="middle" x="1355.97" y="-255.68" font-family="Times,serif" font-size="14.00">sps00 (prepn)</text>
<text text-anchor="middle" x="1355.97" y="-240.68" font-family="Times,serif" font-size="14.00">rep=yes, t=no, r=no, m=no, c=no</text>
</g>
<!-- n7&#45;&gt;n8 -->
<g id="edge14" class="edge">
<title>n7&#45;&gt;n8</title>
<path fill="none" stroke="black" d="M1355.97,-332.75C1355.97,-324.58 1355.97,-315.8 1355.97,-307.27"/>
<polygon fill="black" stroke="black" points="1359.47,-307.06 1355.97,-297.06 1352.47,-307.06 1359.47,-307.06"/>
</g>
<!-- n5 -->
<g id="node18" class="node">
<title>n5</title>
<ellipse fill="none" stroke="black" cx="1745.97" cy="-259.38" rx="185.94" ry="37.45"/>
<text text-anchor="middle" x="1745.97" y="-270.68" font-family="Times,serif" font-size="14.00">,</text>
<text text-anchor="middle" x="1745.97" y="-255.68" font-family="Times,serif" font-size="14.00">fc (punct)</text>
<text text-anchor="middle" x="1745.97" y="-240.68" font-family="Times,serif" font-size="14.00">rep=yes, t=no, r=no, m=no, c=no</text>
</g>
<!-- n11&#45;&gt;n5 -->
<g id="edge17" class="edge">
<title>n11&#45;&gt;n5</title>
<path fill="none" stroke="black" d="M1879.27,-334.86C1859.34,-323.73 1837.1,-311.3 1816.58,-299.84"/>
<polygon fill="black" stroke="black" points="1818.04,-296.64 1807.6,-294.82 1814.62,-302.75 1818.04,-296.64"/>
</g>
<!-- n12 -->
<g id="node19" class="node">
<title>n12</title>
<ellipse fill="none" stroke="black" cx="2135.97" cy="-259.38" rx="185.94" ry="37.45"/>
<text text-anchor="middle" x="2135.97" y="-270.68" font-family="Times,serif" font-size="14.00">las</text>
<text text-anchor="middle" x="2135.97" y="-255.68" font-family="Times,serif" font-size="14.00">da0fp0 (det)</text>
<text text-anchor="middle" x="2135.97" y="-240.68" font-family="Times,serif" font-size="14.00">rep=yes, t=no, r=no, m=no, c=no</text>
</g>
<!-- n13&#45;&gt;n12 -->
<g id="edge18" class="edge">
<title>n13&#45;&gt;n12</title>
<path fill="none" stroke="black" d="M2343.26,-336.94C2308.41,-324.07 2268.21,-309.22 2232.54,-296.05"/>
<polygon fill="black" stroke="black" points="2233.68,-292.74 2223.09,-292.56 2231.26,-299.31 2233.68,-292.74"/>
</g>
<!-- n14 -->
<g id="node20" class="node">
<title>n14</title>
<ellipse fill="none" stroke="black" cx="2525.97" cy="-259.38" rx="185.94" ry="37.45"/>
<text text-anchor="middle" x="2525.97" y="-270.68" font-family="Times,serif" font-size="14.00">de</text>
<text text-anchor="middle" x="2525.97" y="-255.68" font-family="Times,serif" font-size="14.00">sps00 (prepn)</text>
<text text-anchor="middle" x="2525.97" y="-240.68" font-family="Times,serif" font-size="14.00">rep=yes, t=no, r=no, m=no, c=no</text>
</g>
<!-- n13&#45;&gt;n14 -->
<g id="edge19" class="edge">
<title>n13&#45;&gt;n14</title>
<path fill="none" stroke="black" d="M2462.34,-333.36C2470.44,-324.07 2479.25,-313.96 2487.67,-304.31"/>
<polygon fill="black" stroke="black" points="2490.37,-306.53 2494.31,-296.7 2485.1,-301.93 2490.37,-306.53"/>
</g>
<!-- n17 -->
<g id="node21" class="node">
<title>n17</title>
<ellipse fill="none" stroke="black" cx="2915.97" cy="-259.38" rx="185.94" ry="37.45"/>
<text text-anchor="middle" x="2915.97" y="-270.68" font-family="Times,serif" font-size="14.00">de</text>
<text text-anchor="middle" x="2915.97" y="-255.68" font-family="Times,serif" font-size="14.00">sps00 (prepn)</text>
<text text-anchor="middle" x="2915.97" y="-240.68" font-family="Times,serif" font-size="14.00">rep=yes, t=no, r=no, m=no, c=no</text>
</g>
<!-- n13&#45;&gt;n17 -->
<g id="edge20" class="edge">
<title>n13&#45;&gt;n17</title>
<path fill="none" stroke="black" d="M2554.3,-341.63C2624.52,-325.86 2712.49,-306.09 2784.09,-290.01"/>
<polygon fill="black" stroke="black" points="2785.09,-293.37 2794.08,-287.77 2783.56,-286.54 2785.09,-293.37"/>
</g>
<!-- n23 -->
<g id="node26" class="node">
<title>n23</title>
<ellipse fill="#98D2A5" stroke="black" cx="3310.97" cy="-259.38" rx="190.84" ry="37.45"/>
<text text-anchor="middle" x="3310.97" y="-270.68" font-family="Times,serif" font-size="14.00">pierda</text>
<text text-anchor="middle" x="3310.97" y="-255.68" font-family="Times,serif" font-size="14.00">vmm03s0 (cobj)</text>
<text text-anchor="middle" x="3310.97" y="-240.68" font-family="Times,serif" font-size="14.00">rep=no, t=no, r=yes, m=yes, c=no</text>
</g>
<!-- n21&#45;&gt;n23 -->
<g id="edge25" class="edge">
<title>n21&#45;&gt;n23</title>
<path fill="none" stroke="black" d="M3140.81,-336.06C3167.86,-324.02 3198.6,-310.36 3226.43,-297.98"/>
<polygon fill="black" stroke="black" points="3228.03,-301.1 3235.74,-293.84 3225.18,-294.7 3228.03,-301.1"/>
</g>
<!-- n4 -->
<g id="node13" class="node">
<title>n4</title>
<ellipse fill="none" stroke="black" cx="575.97" cy="-148.43" rx="185.94" ry="37.45"/>
<text text-anchor="middle" x="575.97" y="-159.73" font-family="Times,serif" font-size="14.00">PSC</text>
<text text-anchor="middle" x="575.97" y="-144.73" font-family="Times,serif" font-size="14.00">np00000 (pobj)</text>
<text text-anchor="middle" x="575.97" y="-129.73" font-family="Times,serif" font-size="14.00">rep=yes, t=no, r=no, m=no, c=no</text>
</g>
<!-- n3&#45;&gt;n4 -->
<g id="edge12" class="edge">
<title>n3&#45;&gt;n4</title>
<path fill="none" stroke="black" d="M575.97,-221.8C575.97,-213.63 575.97,-204.85 575.97,-196.32"/>
<polygon fill="black" stroke="black" points="579.47,-196.1 575.97,-186.1 572.47,-196.1 579.47,-196.1"/>
</g>
<!-- n10 -->
<g id="node16" class="node">
<title>n10</title>
<ellipse fill="none" stroke="black" cx="1355.97" cy="-148.43" rx="185.94" ry="37.45"/>
<text text-anchor="middle" x="1355.97" y="-159.73" font-family="Times,serif" font-size="14.00">PSOE</text>
<text text-anchor="middle" x="1355.97" y="-144.73" font-family="Times,serif" font-size="14.00">np00000 (pobj)</text>
<text text-anchor="middle" x="1355.97" y="-129.73" font-family="Times,serif" font-size="14.00">rep=yes, t=no, r=no, m=no, c=no</text>
</g>
<!-- n8&#45;&gt;n10 -->
<g id="edge15" class="edge">
<title>n8&#45;&gt;n10</title>
<path fill="none" stroke="black" d="M1355.97,-221.8C1355.97,-213.63 1355.97,-204.85 1355.97,-196.32"/>
<polygon fill="black" stroke="black" points="1359.47,-196.1 1355.97,-186.1 1352.47,-196.1 1359.47,-196.1"/>
</g>
<!-- n9 -->
<g id="node17" class="node">
<title>n9</title>
<ellipse fill="none" stroke="black" cx="1355.97" cy="-37.48" rx="185.94" ry="37.45"/>
<text text-anchor="middle" x="1355.97" y="-48.78" font-family="Times,serif" font-size="14.00">el</text>
<text text-anchor="middle" x="1355.97" y="-33.78" font-family="Times,serif" font-size="14.00">da0ms0 (det)</text>
<text text-anchor="middle" x="1355.97" y="-18.78" font-family="Times,serif" font-size="14.00">rep=yes, t=no, r=no, m=no, c=no</text>
</g>
<!-- n10&#45;&gt;n9 -->
<g id="edge16" class="edge">
<title>n10&#45;&gt;n9</title>
<path fill="none" stroke="black" d="M1355.97,-110.85C1355.97,-102.67 1355.97,-93.89 1355.97,-85.37"/>
<polygon fill="black" stroke="black" points="1359.47,-85.15 1355.97,-75.15 1352.47,-85.15 1359.47,-85.15"/>
</g>
<!-- n15 -->
<g id="node22" class="node">
<title>n15</title>
<ellipse fill="none" stroke="black" cx="2525.97" cy="-148.43" rx="185.94" ry="37.45"/>
<text text-anchor="middle" x="2525.97" y="-159.73" font-family="Times,serif" font-size="14.00">corte</text>
<text text-anchor="middle" x="2525.97" y="-144.73" font-family="Times,serif" font-size="14.00">ncms000 (pobj)</text>
<text text-anchor="middle" x="2525.97" y="-129.73" font-family="Times,serif" font-size="14.00">rep=yes, t=no, r=no, m=no, c=no</text>
</g>
<!-- n14&#45;&gt;n15 -->
<g id="edge21" class="edge">
<title>n14&#45;&gt;n15</title>
<path fill="none" stroke="black" d="M2525.97,-221.8C2525.97,-213.63 2525.97,-204.85 2525.97,-196.32"/>
<polygon fill="black" stroke="black" points="2529.47,-196.1 2525.97,-186.1 2522.47,-196.1 2529.47,-196.1"/>
</g>
<!-- n18 -->
<g id="node24" class="node">
<title>n18</title>
<ellipse fill="none" stroke="black" cx="2915.97" cy="-148.43" rx="185.94" ry="37.45"/>
<text text-anchor="middle" x="2915.97" y="-159.73" font-family="Times,serif" font-size="14.00">Pasqual</text>
<text text-anchor="middle" x="2915.97" y="-144.73" font-family="Times,serif" font-size="14.00">np0000l (pobj)</text>
<text text-anchor="middle" x="2915.97" y="-129.73" font-family="Times,serif" font-size="14.00">rep=yes, t=no, r=no, m=no, c=no</text>
</g>
<!-- n17&#45;&gt;n18 -->
<g id="edge23" class="edge">
<title>n17&#45;&gt;n18</title>
<path fill="none" stroke="black" d="M2915.97,-221.8C2915.97,-213.63 2915.97,-204.85 2915.97,-196.32"/>
<polygon fill="black" stroke="black" points="2919.47,-196.1 2915.97,-186.1 2912.47,-196.1 2919.47,-196.1"/>
</g>
<!-- n16 -->
<g id="node23" class="node">
<title>n16</title>
<ellipse fill="none" stroke="black" cx="2525.97" cy="-37.48" rx="185.94" ry="37.45"/>
<text text-anchor="middle" x="2525.97" y="-48.78" font-family="Times,serif" font-size="14.00">nacionalista</text>
<text text-anchor="middle" x="2525.97" y="-33.78" font-family="Times,serif" font-size="14.00">aq0cs0 (amod)</text>
<text text-anchor="middle" x="2525.97" y="-18.78" font-family="Times,serif" font-size="14.00">rep=yes, t=no, r=no, m=no, c=no</text>
</g>
<!-- n15&#45;&gt;n16 -->
<g id="edge22" class="edge">
<title>n15&#45;&gt;n16</title>
<path fill="none" stroke="black" d="M2525.97,-110.85C2525.97,-102.67 2525.97,-93.89 2525.97,-85.37"/>
<polygon fill="black" stroke="black" points="2529.47,-85.15 2525.97,-75.15 2522.47,-85.15 2529.47,-85.15"/>
</g>
<!-- n19 -->
<g id="node25" class="node">
<title>n19</title>
<ellipse fill="none" stroke="black" cx="2915.97" cy="-37.48" rx="185.94" ry="37.45"/>
<text text-anchor="middle" x="2915.97" y="-48.78" font-family="Times,serif" font-size="14.00">Maragall</text>
<text text-anchor="middle" x="2915.97" y="-33.78" font-family="Times,serif" font-size="14.00">np0000l (appos)</text>
<text text-anchor="middle" x="2915.97" y="-18.78" font-family="Times,serif" font-size="14.00">rep=yes, t=no, r=no, m=no, c=no</text>
</g>
<!-- n18&#45;&gt;n19 -->
<g id="edge24" class="edge">
<title>n18&#45;&gt;n19</title>
<path fill="none" stroke="black" d="M2915.97,-110.85C2915.97,-102.67 2915.97,-93.89 2915.97,-85.37"/>
<polygon fill="black" stroke="black" points="2919.47,-85.15 2915.97,-75.15 2912.47,-85.15 2919.47,-85.15"/>
</g>
<!-- n22 -->
<g id="node27" class="node">
<title>n22</title>
<ellipse fill="#98D2A5" stroke="black" cx="3310.97" cy="-148.43" rx="190.84" ry="37.45"/>
<text text-anchor="middle" x="3310.97" y="-159.73" font-family="Times,serif" font-size="14.00">éste</text>
<text text-anchor="middle" x="3310.97" y="-144.73" font-family="Times,serif" font-size="14.00">pd0ms000 (nsubj)</text>
<text text-anchor="middle" x="3310.97" y="-129.73" font-family="Times,serif" font-size="14.00">rep=no, t=yes, r=no, m=yes, c=no</text>
</g>
<!-- n23&#45;&gt;n22 -->
<g id="edge26" class="edge">
<title>n23&#45;&gt;n22</title>
<path fill="none" stroke="black" d="M3310.97,-221.8C3310.97,-213.63 3310.97,-204.85 3310.97,-196.32"/>
<polygon fill="black" stroke="black" points="3314.47,-196.1 3310.97,-186.1 3307.47,-196.1 3314.47,-196.1"/>
</g>
<!-- n24 -->
<g id="node28" class="node">
<title>n24</title>
<ellipse fill="#98D2A5" stroke="black" cx="3710.97" cy="-148.43" rx="190.84" ry="37.45"/>
<text text-anchor="middle" x="3710.97" y="-159.73" font-family="Times,serif" font-size="14.00">protagonismo</text>
<text text-anchor="middle" x="3710.97" y="-144.73" font-family="Times,serif" font-size="14.00">ncms000 (dobj)</text>
<text text-anchor="middle" x="3710.97" y="-129.73" font-family="Times,serif" font-size="14.00">rep=no, t=no, r=yes, m=yes, c=no</text>
</g>
<!-- n23&#45;&gt;n24 -->
<g id="edge27" class="edge">
<title>n23&#45;&gt;n24</title>
<path fill="none" stroke="black" d="M3420.27,-228.61C3473.41,-214.14 3537.38,-196.71 3591.76,-181.9"/>
<polygon fill="black" stroke="black" points="3592.72,-185.27 3601.45,-179.26 3590.88,-178.51 3592.72,-185.27"/>
</g>
<!-- n30 -->
<g id="node30" class="node">
<title>n30</title>
<ellipse fill="none" stroke="black" cx="4292.97" cy="-259.38" rx="181.95" ry="37.45"/>
<text text-anchor="middle" x="4292.97" y="-270.68" font-family="Times,serif" font-size="14.00">actitud</text>
<text text-anchor="middle" x="4292.97" y="-255.68" font-family="Times,serif" font-size="14.00">ncfs000 (pobj)</text>
<text text-anchor="middle" x="4292.97" y="-240.68" font-family="Times,serif" font-size="14.00">rep=no, t=no, r=no, m=no, c=no</text>
</g>
<!-- n28&#45;&gt;n30 -->
<g id="edge29" class="edge">
<title>n28&#45;&gt;n30</title>
<path fill="none" stroke="black" d="M4058.96,-338.11C4099.79,-324.55 4147.75,-308.62 4189.59,-294.72"/>
<polygon fill="black" stroke="black" points="4190.86,-297.99 4199.25,-291.52 4188.65,-291.35 4190.86,-297.99"/>
</g>
<!-- n29 -->
<g id="node31" class="node">
<title>n29</title>
<ellipse fill="none" stroke="black" cx="4101.97" cy="-148.43" rx="181.95" ry="37.45"/>
<text text-anchor="middle" x="4101.97" y="-159.73" font-family="Times,serif" font-size="14.00">la</text>
<text text-anchor="middle" x="4101.97" y="-144.73" font-family="Times,serif" font-size="14.00">da0fs0 (det)</text>
<text text-anchor="middle" x="4101.97" y="-129.73" font-family="Times,serif" font-size="14.00">rep=no, t=no, r=no, m=no, c=no</text>
</g>
<!-- n30&#45;&gt;n29 -->
<g id="edge30" class="edge">
<title>n30&#45;&gt;n29</title>
<path fill="none" stroke="black" d="M4232.54,-223.91C4213.02,-212.78 4191.23,-200.35 4171.14,-188.89"/>
<polygon fill="black" stroke="black" points="4172.76,-185.78 4162.34,-183.87 4169.29,-191.86 4172.76,-185.78"/>
</g>
<!-- n31 -->
<g id="node32" class="node">
<title>n31</title>
<ellipse fill="none" stroke="black" cx="4482.97" cy="-148.43" rx="181.95" ry="37.45"/>
<text text-anchor="middle" x="4482.97" y="-159.73" font-family="Times,serif" font-size="14.00">coherente</text>
<text text-anchor="middle" x="4482.97" y="-144.73" font-family="Times,serif" font-size="14.00">aq0cs0 (amod)</text>
<text text-anchor="middle" x="4482.97" y="-129.73" font-family="Times,serif" font-size="14.00">rep=no, t=no, r=no, m=no, c=no</text>
</g>
<!-- n30&#45;&gt;n31 -->
<g id="edge31" class="edge">
<title>n30&#45;&gt;n31</title>
<path fill="none" stroke="black" d="M4353.09,-223.91C4372.5,-212.78 4394.17,-200.35 4414.16,-188.89"/>
<polygon fill="black" stroke="black" points="4415.98,-191.88 4422.92,-183.87 4412.5,-185.8 4415.98,-191.88"/>
</g>
<!-- n32 -->
<g id="node33" class="node">
<title>n32</title>
<ellipse fill="none" stroke="black" cx="4863.97" cy="-148.43" rx="181.95" ry="37.45"/>
<text text-anchor="middle" x="4863.97" y="-159.73" font-family="Times,serif" font-size="14.00">del</text>
<text text-anchor="middle" x="4863.97" y="-144.73" font-family="Times,serif" font-size="14.00">spcms (prepn)</text>
<text text-anchor="middle" x="4863.97" y="-129.73" font-family="Times,serif" font-size="14.00">rep=no, t=no, r=no, m=no, c=no</text>
</g>
<!-- n30&#45;&gt;n32 -->
<g id="edge32" class="edge">
<title>n30&#45;&gt;n32</title>
<path fill="none" stroke="black" d="M4424.34,-233.45C4497.78,-219.5 4590.97,-201.77 4673.97,-185.91 4690.03,-182.84 4706.86,-179.61 4723.58,-176.41"/>
<polygon fill="black" stroke="black" points="4724.24,-179.85 4733.4,-174.53 4722.92,-172.97 4724.24,-179.85"/>
</g>
<!-- n33 -->
<g id="node34" class="node">
<title>n33</title>
<ellipse fill="none" stroke="black" cx="4863.97" cy="-37.48" rx="181.95" ry="37.45"/>
<text text-anchor="middle" x="4863.97" y="-48.78" font-family="Times,serif" font-size="14.00">PP</text>
<text text-anchor="middle" x="4863.97" y="-33.78" font-family="Times,serif" font-size="14.00">np00000 (pobj)</text>
<text text-anchor="middle" x="4863.97" y="-18.78" font-family="Times,serif" font-size="14.00">rep=no, t=no, r=no, m=no, c=no</text>
</g>
<!-- n32&#45;&gt;n33 -->
<g id="edge33" class="edge">
<title>n32&#45;&gt;n33</title>
<path fill="none" stroke="black" d="M4863.97,-110.85C4863.97,-102.67 4863.97,-93.89 4863.97,-85.37"/>
<polygon fill="black" stroke="black" points="4867.47,-85.15 4863.97,-75.15 4860.47,-85.15 4867.47,-85.15"/>
</g>
</g>
</svg>
