<?xml version="1.0" encoding="UTF-8" standalone="no"?>
<!DOCTYPE svg PUBLIC "-//W3C//DTD SVG 1.1//EN"
 "http://www.w3.org/Graphics/SVG/1.1/DTD/svg11.dtd">
<!-- Generated by graphviz version 2.43.0 (0)
 -->
<!-- Title: tree Pages: 1 -->
<svg width="1754pt" height="527pt"
 viewBox="0.00 0.00 1753.65 526.77" xmlns="http://www.w3.org/2000/svg" xmlns:xlink="http://www.w3.org/1999/xlink">
<g id="graph0" class="graph" transform="scale(1 1) rotate(0) translate(4 522.77)">
<title>tree</title>
<polygon fill="white" stroke="transparent" points="-4,4 -4,-522.77 1749.65,-522.77 1749.65,4 -4,4"/>
<!-- n8 -->
<g id="node1" class="node">
<title>n8</title>
<ellipse fill="#98D2A5" stroke="black" cx="976.92" cy="-481.29" rx="190.84" ry="37.45"/>
<text text-anchor="middle" x="976.92" y="-492.59" font-family="Times,serif" font-size="14.00">será</text>
<text text-anchor="middle" x="976.92" y="-477.59" font-family="Times,serif" font-size="14.00">vsif3s0 (root)</text>
<text text-anchor="middle" x="976.92" y="-462.59" font-family="Times,serif" font-size="14.00">rep=no, t=no, r=yes, m=yes, c=no</text>
</g>
<!-- n2 -->
<g id="node2" class="node">
<title>n2</title>
<ellipse fill="#98D2A5" stroke="black" cx="390.92" cy="-370.34" rx="190.84" ry="37.45"/>
<text text-anchor="middle" x="390.92" y="-381.64" font-family="Times,serif" font-size="14.00">incorporación</text>
<text text-anchor="middle" x="390.92" y="-366.64" font-family="Times,serif" font-size="14.00">ncfs000 (nsubj)</text>
<text text-anchor="middle" x="390.92" y="-351.64" font-family="Times,serif" font-size="14.00">rep=no, t=yes, r=no, m=yes, c=no</text>
</g>
<!-- n8&#45;&gt;n2 -->
<g id="edge1" class="edge">
<title>n8&#45;&gt;n2</title>
<path fill="none" stroke="black" d="M840.64,-454.95C749.69,-438.04 630.2,-415.83 537.25,-398.54"/>
<polygon fill="black" stroke="black" points="537.67,-395.06 527.19,-396.67 536.39,-401.94 537.67,-395.06"/>
</g>
<!-- n6 -->
<g id="node3" class="node">
<title>n6</title>
<ellipse fill="none" stroke="black" cx="781.92" cy="-370.34" rx="181.95" ry="37.45"/>
<text text-anchor="middle" x="781.92" y="-381.64" font-family="Times,serif" font-size="14.00">también</text>
<text text-anchor="middle" x="781.92" y="-366.64" font-family="Times,serif" font-size="14.00">rg (advmod)</text>
<text text-anchor="middle" x="781.92" y="-351.64" font-family="Times,serif" font-size="14.00">rep=no, t=no, r=no, m=no, c=no</text>
</g>
<!-- n8&#45;&gt;n6 -->
<g id="edge2" class="edge">
<title>n8&#45;&gt;n6</title>
<path fill="none" stroke="black" d="M915.22,-445.82C895.29,-434.68 873.05,-422.26 852.53,-410.79"/>
<polygon fill="black" stroke="black" points="853.99,-407.59 843.55,-405.77 850.57,-413.71 853.99,-407.59"/>
</g>
<!-- n7 -->
<g id="node4" class="node">
<title>n7</title>
<ellipse fill="#98D2A5" stroke="black" cx="1172.92" cy="-370.34" rx="190.84" ry="37.45"/>
<text text-anchor="middle" x="1172.92" y="-381.64" font-family="Times,serif" font-size="14.00">lo</text>
<text text-anchor="middle" x="1172.92" y="-366.64" font-family="Times,serif" font-size="14.00">pp3cna00 (attr)</text>
<text text-anchor="middle" x="1172.92" y="-351.64" font-family="Times,serif" font-size="14.00">rep=no, t=no, r=yes, m=yes, c=no</text>
</g>
<!-- n8&#45;&gt;n7 -->
<g id="edge3" class="edge">
<title>n8&#45;&gt;n7</title>
<path fill="none" stroke="black" d="M1038.93,-445.82C1058.86,-434.74 1081.1,-422.38 1101.64,-410.96"/>
<polygon fill="black" stroke="black" points="1103.59,-413.88 1110.63,-405.96 1100.19,-407.76 1103.59,-413.88"/>
</g>
<!-- n9 -->
<g id="node5" class="node">
<title>n9</title>
<ellipse fill="none" stroke="black" cx="1563.92" cy="-370.34" rx="181.95" ry="37.45"/>
<text text-anchor="middle" x="1563.92" y="-381.64" font-family="Times,serif" font-size="14.00">.</text>
<text text-anchor="middle" x="1563.92" y="-366.64" font-family="Times,serif" font-size="14.00">fp (punct)</text>
<text text-anchor="middle" x="1563.92" y="-351.64" font-family="Times,serif" font-size="14.00">rep=no, t=no, r=no, m=no, c=no</text>
</g>
<!-- n8&#45;&gt;n9 -->
<g id="edge4" class="edge">
<title>n8&#45;&gt;n9</title>
<path fill="none" stroke="black" d="M1114.87,-455.31C1191,-441.46 1287.21,-423.84 1372.92,-407.81 1389.22,-404.77 1406.29,-401.55 1423.24,-398.33"/>
<polygon fill="black" stroke="black" points="1424.03,-401.74 1433.2,-396.44 1422.72,-394.87 1424.03,-401.74"/>
</g>
<!-- n1 -->
<g id="node6" class="node">
<title>n1</title>
<ellipse fill="#98D2A5" stroke="black" cx="190.92" cy="-259.38" rx="190.84" ry="37.45"/>
<text text-anchor="middle" x="190.92" y="-270.68" font-family="Times,serif" font-size="14.00">La</text>
<text text-anchor="middle" x="190.92" y="-255.68" font-family="Times,serif" font-size="14.00">da0fs0 (det)</text>
<text text-anchor="middle" x="190.92" y="-240.68" font-family="Times,serif" font-size="14.00">rep=no, t=yes, r=no, m=yes, c=no</text>
</g>
<!-- n2&#45;&gt;n1 -->
<g id="edge5" class="edge">
<title>n2&#45;&gt;n1</title>
<path fill="none" stroke="black" d="M327.64,-334.86C307.11,-323.68 284.18,-311.19 263.06,-299.68"/>
<polygon fill="black" stroke="black" points="264.59,-296.53 254.13,-294.82 261.24,-302.68 264.59,-296.53"/>
</g>
<!-- n3 -->
<g id="node7" class="node">
<title>n3</title>
<ellipse fill="#98D2A5" stroke="black" cx="590.92" cy="-259.38" rx="190.84" ry="37.45"/>
<text text-anchor="middle" x="590.92" y="-270.68" font-family="Times,serif" font-size="14.00">de</text>
<text text-anchor="middle" x="590.92" y="-255.68" font-family="Times,serif" font-size="14.00">sps00 (prepn)</text>
<text text-anchor="middle" x="590.92" y="-240.68" font-family="Times,serif" font-size="14.00">rep=no, t=yes, r=no, m=yes, c=no</text>
</g>
<!-- n2&#45;&gt;n3 -->
<g id="edge6" class="edge">
<title>n2&#45;&gt;n3</title>
<path fill="none" stroke="black" d="M454.2,-334.86C474.73,-323.68 497.65,-311.19 518.78,-299.68"/>
<polygon fill="black" stroke="black" points="520.6,-302.68 527.71,-294.82 517.25,-296.53 520.6,-302.68"/>
</g>
<!-- n4 -->
<g id="node8" class="node">
<title>n4</title>
<ellipse fill="#98D2A5" stroke="black" cx="590.92" cy="-148.43" rx="190.84" ry="37.45"/>
<text text-anchor="middle" x="590.92" y="-159.73" font-family="Times,serif" font-size="14.00">Anna</text>
<text text-anchor="middle" x="590.92" y="-144.73" font-family="Times,serif" font-size="14.00">np0000l (pobj)</text>
<text text-anchor="middle" x="590.92" y="-129.73" font-family="Times,serif" font-size="14.00">rep=no, t=yes, r=no, m=yes, c=no</text>
</g>
<!-- n3&#45;&gt;n4 -->
<g id="edge7" class="edge">
<title>n3&#45;&gt;n4</title>
<path fill="none" stroke="black" d="M590.92,-221.8C590.92,-213.63 590.92,-204.85 590.92,-196.32"/>
<polygon fill="black" stroke="black" points="594.42,-196.1 590.92,-186.1 587.42,-196.1 594.42,-196.1"/>
</g>
<!-- n5 -->
<g id="node9" class="node">
<title>n5</title>
<ellipse fill="#98D2A5" stroke="black" cx="590.92" cy="-37.48" rx="190.84" ry="37.45"/>
<text text-anchor="middle" x="590.92" y="-48.78" font-family="Times,serif" font-size="14.00">Birulés</text>
<text text-anchor="middle" x="590.92" y="-33.78" font-family="Times,serif" font-size="14.00">np0000l (appos)</text>
<text text-anchor="middle" x="590.92" y="-18.78" font-family="Times,serif" font-size="14.00">rep=no, t=yes, r=no, m=yes, c=no</text>
</g>
<!-- n4&#45;&gt;n5 -->
<g id="edge8" class="edge">
<title>n4&#45;&gt;n5</title>
<path fill="none" stroke="black" d="M590.92,-110.85C590.92,-102.67 590.92,-93.89 590.92,-85.37"/>
<polygon fill="black" stroke="black" points="594.42,-85.15 590.92,-75.15 587.42,-85.15 594.42,-85.15"/>
</g>
</g>
</svg>
