<?xml version="1.0" encoding="UTF-8" standalone="no"?>
<!DOCTYPE svg PUBLIC "-//W3C//DTD SVG 1.1//EN"
 "http://www.w3.org/Graphics/SVG/1.1/DTD/svg11.dtd">
<!-- Generated by graphviz version 2.43.0 (0)
 -->
<!-- Title: tree Pages: 1 -->
<svg width="1365pt" height="527pt"
 viewBox="0.00 0.00 1364.89 526.77" xmlns="http://www.w3.org/2000/svg" xmlns:xlink="http://www.w3.org/1999/xlink">
<g id="graph0" class="graph" transform="scale(1 1) rotate(0) translate(4 522.77)">
<title>tree</title>
<polygon fill="white" stroke="transparent" points="-4,4 -4,-522.77 1360.89,-522.77 1360.89,4 -4,4"/>
<!-- n1 -->
<g id="node1" class="node">
<title>n1</title>
<ellipse fill="#98D2A5" stroke="black" cx="575.97" cy="-481.29" rx="185.94" ry="37.45"/>
<text text-anchor="middle" x="575.97" y="-492.59" font-family="Times,serif" font-size="14.00">Seguiremos</text>
<text text-anchor="middle" x="575.97" y="-477.59" font-family="Times,serif" font-size="14.00">vmif1p0 (root)</text>
<text text-anchor="middle" x="575.97" y="-462.59" font-family="Times,serif" font-size="14.00">rep=no, t=no, r=no, m=yes, c=no</text>
</g>
<!-- n2 -->
<g id="node2" class="node">
<title>n2</title>
<ellipse fill="#98D2A5" stroke="black" cx="185.97" cy="-370.34" rx="185.94" ry="37.45"/>
<text text-anchor="middle" x="185.97" y="-381.64" font-family="Times,serif" font-size="14.00">defendiendo</text>
<text text-anchor="middle" x="185.97" y="-366.64" font-family="Times,serif" font-size="14.00">vmg0000 (dobj)</text>
<text text-anchor="middle" x="185.97" y="-351.64" font-family="Times,serif" font-size="14.00">rep=no, t=no, r=no, m=yes, c=no</text>
</g>
<!-- n1&#45;&gt;n2 -->
<g id="edge1" class="edge">
<title>n1&#45;&gt;n2</title>
<path fill="none" stroke="black" d="M469.4,-450.52C417.59,-436.05 355.23,-418.62 302.2,-403.81"/>
<polygon fill="black" stroke="black" points="302.98,-400.39 292.41,-401.07 301.1,-407.13 302.98,-400.39"/>
</g>
<!-- n4 -->
<g id="node3" class="node">
<title>n4</title>
<ellipse fill="#98D2A5" stroke="black" cx="575.97" cy="-370.34" rx="185.94" ry="37.45"/>
<text text-anchor="middle" x="575.97" y="-381.64" font-family="Times,serif" font-size="14.00">coexistencia</text>
<text text-anchor="middle" x="575.97" y="-366.64" font-family="Times,serif" font-size="14.00">ncfs000 (dobj)</text>
<text text-anchor="middle" x="575.97" y="-351.64" font-family="Times,serif" font-size="14.00">rep=no, t=no, r=no, m=yes, c=no</text>
</g>
<!-- n1&#45;&gt;n4 -->
<g id="edge2" class="edge">
<title>n1&#45;&gt;n4</title>
<path fill="none" stroke="black" d="M575.97,-443.71C575.97,-435.53 575.97,-426.75 575.97,-418.23"/>
<polygon fill="black" stroke="black" points="579.47,-418.01 575.97,-408.01 572.47,-418.01 579.47,-418.01"/>
</g>
<!-- n10 -->
<g id="node4" class="node">
<title>n10</title>
<ellipse fill="none" stroke="black" cx="961.97" cy="-370.34" rx="181.95" ry="37.45"/>
<text text-anchor="middle" x="961.97" y="-381.64" font-family="Times,serif" font-size="14.00">.</text>
<text text-anchor="middle" x="961.97" y="-366.64" font-family="Times,serif" font-size="14.00">fp (punct)</text>
<text text-anchor="middle" x="961.97" y="-351.64" font-family="Times,serif" font-size="14.00">rep=no, t=no, r=no, m=no, c=no</text>
</g>
<!-- n1&#45;&gt;n10 -->
<g id="edge3" class="edge">
<title>n1&#45;&gt;n10</title>
<path fill="none" stroke="black" d="M681.7,-450.45C732.97,-435.97 794.65,-418.56 847.08,-403.77"/>
<polygon fill="black" stroke="black" points="848.08,-407.12 856.75,-401.03 846.18,-400.38 848.08,-407.12"/>
</g>
<!-- n3 -->
<g id="node5" class="node">
<title>n3</title>
<ellipse fill="#98D2A5" stroke="black" cx="380.97" cy="-259.38" rx="185.94" ry="37.45"/>
<text text-anchor="middle" x="380.97" y="-270.68" font-family="Times,serif" font-size="14.00">la</text>
<text text-anchor="middle" x="380.97" y="-255.68" font-family="Times,serif" font-size="14.00">da0fs0 (det)</text>
<text text-anchor="middle" x="380.97" y="-240.68" font-family="Times,serif" font-size="14.00">rep=no, t=no, r=no, m=yes, c=no</text>
</g>
<!-- n4&#45;&gt;n3 -->
<g id="edge4" class="edge">
<title>n4&#45;&gt;n3</title>
<path fill="none" stroke="black" d="M514.27,-334.86C494.34,-323.73 472.1,-311.3 451.58,-299.84"/>
<polygon fill="black" stroke="black" points="453.04,-296.64 442.6,-294.82 449.62,-302.75 453.04,-296.64"/>
</g>
<!-- n5 -->
<g id="node6" class="node">
<title>n5</title>
<ellipse fill="#98D2A5" stroke="black" cx="770.97" cy="-259.38" rx="185.94" ry="37.45"/>
<text text-anchor="middle" x="770.97" y="-270.68" font-family="Times,serif" font-size="14.00">del</text>
<text text-anchor="middle" x="770.97" y="-255.68" font-family="Times,serif" font-size="14.00">spcms (prepn)</text>
<text text-anchor="middle" x="770.97" y="-240.68" font-family="Times,serif" font-size="14.00">rep=no, t=no, r=no, m=yes, c=no</text>
</g>
<!-- n4&#45;&gt;n5 -->
<g id="edge5" class="edge">
<title>n4&#45;&gt;n5</title>
<path fill="none" stroke="black" d="M637.67,-334.86C657.59,-323.73 679.84,-311.3 700.35,-299.84"/>
<polygon fill="black" stroke="black" points="702.31,-302.75 709.34,-294.82 698.9,-296.64 702.31,-302.75"/>
</g>
<!-- n6 -->
<g id="node7" class="node">
<title>n6</title>
<ellipse fill="#98D2A5" stroke="black" cx="380.97" cy="-148.43" rx="185.94" ry="37.45"/>
<text text-anchor="middle" x="380.97" y="-159.73" font-family="Times,serif" font-size="14.00">catalán</text>
<text text-anchor="middle" x="380.97" y="-144.73" font-family="Times,serif" font-size="14.00">ncms000 (pobj)</text>
<text text-anchor="middle" x="380.97" y="-129.73" font-family="Times,serif" font-size="14.00">rep=no, t=no, r=no, m=yes, c=no</text>
</g>
<!-- n5&#45;&gt;n6 -->
<g id="edge6" class="edge">
<title>n5&#45;&gt;n6</title>
<path fill="none" stroke="black" d="M664.4,-228.61C612.59,-214.14 550.23,-196.71 497.2,-181.9"/>
<polygon fill="black" stroke="black" points="497.98,-178.49 487.41,-179.17 496.1,-185.23 497.98,-178.49"/>
</g>
<!-- n7 -->
<g id="node8" class="node">
<title>n7</title>
<ellipse fill="#98D2A5" stroke="black" cx="770.97" cy="-148.43" rx="185.94" ry="37.45"/>
<text text-anchor="middle" x="770.97" y="-159.73" font-family="Times,serif" font-size="14.00">y</text>
<text text-anchor="middle" x="770.97" y="-144.73" font-family="Times,serif" font-size="14.00">cc (coord_fixed)</text>
<text text-anchor="middle" x="770.97" y="-129.73" font-family="Times,serif" font-size="14.00">rep=no, t=no, r=no, m=yes, c=no</text>
</g>
<!-- n5&#45;&gt;n7 -->
<g id="edge7" class="edge">
<title>n5&#45;&gt;n7</title>
<path fill="none" stroke="black" d="M770.97,-221.8C770.97,-213.63 770.97,-204.85 770.97,-196.32"/>
<polygon fill="black" stroke="black" points="774.47,-196.1 770.97,-186.1 767.47,-196.1 774.47,-196.1"/>
</g>
<!-- n9 -->
<g id="node9" class="node">
<title>n9</title>
<ellipse fill="#98D2A5" stroke="black" cx="1165.97" cy="-148.43" rx="190.84" ry="37.45"/>
<text text-anchor="middle" x="1165.97" y="-159.73" font-family="Times,serif" font-size="14.00">castellano</text>
<text text-anchor="middle" x="1165.97" y="-144.73" font-family="Times,serif" font-size="14.00">ncms000 (pobj)</text>
<text text-anchor="middle" x="1165.97" y="-129.73" font-family="Times,serif" font-size="14.00">rep=no, t=no, r=no, m=yes, c=yes</text>
</g>
<!-- n5&#45;&gt;n9 -->
<g id="edge8" class="edge">
<title>n5&#45;&gt;n9</title>
<path fill="none" stroke="black" d="M878.38,-228.76C930.75,-214.31 993.87,-196.9 1047.62,-182.07"/>
<polygon fill="black" stroke="black" points="1048.84,-185.37 1057.55,-179.34 1046.98,-178.62 1048.84,-185.37"/>
</g>
<!-- n8 -->
<g id="node10" class="node">
<title>n8</title>
<ellipse fill="#98D2A5" stroke="black" cx="1165.97" cy="-37.48" rx="185.94" ry="37.45"/>
<text text-anchor="middle" x="1165.97" y="-48.78" font-family="Times,serif" font-size="14.00">el</text>
<text text-anchor="middle" x="1165.97" y="-33.78" font-family="Times,serif" font-size="14.00">da0ms0 (det)</text>
<text text-anchor="middle" x="1165.97" y="-18.78" font-family="Times,serif" font-size="14.00">rep=no, t=no, r=no, m=yes, c=no</text>
</g>
<!-- n9&#45;&gt;n8 -->
<g id="edge9" class="edge">
<title>n9&#45;&gt;n8</title>
<path fill="none" stroke="black" d="M1165.97,-110.85C1165.97,-102.67 1165.97,-93.89 1165.97,-85.37"/>
<polygon fill="black" stroke="black" points="1169.47,-85.15 1165.97,-75.15 1162.47,-85.15 1169.47,-85.15"/>
</g>
</g>
</svg>
