<?xml version="1.0" encoding="UTF-8" standalone="no"?>
<!DOCTYPE svg PUBLIC "-//W3C//DTD SVG 1.1//EN"
 "http://www.w3.org/Graphics/SVG/1.1/DTD/svg11.dtd">
<!-- Generated by graphviz version 2.43.0 (0)
 -->
<!-- Title: tree Pages: 1 -->
<svg width="5764pt" height="1082pt"
 viewBox="0.00 0.00 5763.70 1081.53" xmlns="http://www.w3.org/2000/svg" xmlns:xlink="http://www.w3.org/1999/xlink">
<g id="graph0" class="graph" transform="scale(1 1) rotate(0) translate(4 1077.53)">
<title>tree</title>
<polygon fill="white" stroke="transparent" points="-4,4 -4,-1077.53 5759.7,-1077.53 5759.7,4 -4,4"/>
<!-- n36 -->
<g id="node1" class="node">
<title>n36</title>
<ellipse fill="none" stroke="black" cx="2644.73" cy="-1036.06" rx="185.94" ry="37.45"/>
<text text-anchor="middle" x="2644.73" y="-1047.36" font-family="Times,serif" font-size="14.00">decía</text>
<text text-anchor="middle" x="2644.73" y="-1032.36" font-family="Times,serif" font-size="14.00">vmii3s0 (root)</text>
<text text-anchor="middle" x="2644.73" y="-1017.36" font-family="Times,serif" font-size="14.00">rep=no, t=no, r=no, m=yes, c=no</text>
</g>
<!-- n1 -->
<g id="node2" class="node">
<title>n1</title>
<ellipse fill="none" stroke="black" cx="1292.73" cy="-925.1" rx="181.95" ry="37.45"/>
<text text-anchor="middle" x="1292.73" y="-936.4" font-family="Times,serif" font-size="14.00">Cuando</text>
<text text-anchor="middle" x="1292.73" y="-921.4" font-family="Times,serif" font-size="14.00">cs (advcl)</text>
<text text-anchor="middle" x="1292.73" y="-906.4" font-family="Times,serif" font-size="14.00">rep=no, t=no, r=no, m=no, c=no</text>
</g>
<!-- n36&#45;&gt;n1 -->
<g id="edge1" class="edge">
<title>n36&#45;&gt;n1</title>
<path fill="none" stroke="black" d="M2473.49,-1021.26C2216.16,-1000.52 1732.09,-961.51 1470.8,-940.45"/>
<polygon fill="black" stroke="black" points="1470.7,-936.93 1460.45,-939.62 1470.13,-943.91 1470.7,-936.93"/>
</g>
<!-- n33 -->
<g id="node3" class="node">
<title>n33</title>
<ellipse fill="none" stroke="black" cx="2258.73" cy="-925.1" rx="181.95" ry="37.45"/>
<text text-anchor="middle" x="2258.73" y="-936.4" font-family="Times,serif" font-size="14.00">,</text>
<text text-anchor="middle" x="2258.73" y="-921.4" font-family="Times,serif" font-size="14.00">fc (punct)</text>
<text text-anchor="middle" x="2258.73" y="-906.4" font-family="Times,serif" font-size="14.00">rep=no, t=no, r=no, m=no, c=no</text>
</g>
<!-- n36&#45;&gt;n33 -->
<g id="edge2" class="edge">
<title>n36&#45;&gt;n33</title>
<path fill="none" stroke="black" d="M2539,-1005.21C2487.72,-990.74 2426.05,-973.33 2373.62,-958.53"/>
<polygon fill="black" stroke="black" points="2374.52,-955.15 2363.94,-955.8 2372.61,-961.89 2374.52,-955.15"/>
</g>
<!-- n35 -->
<g id="node4" class="node">
<title>n35</title>
<ellipse fill="none" stroke="black" cx="2644.73" cy="-925.1" rx="185.94" ry="37.45"/>
<text text-anchor="middle" x="2644.73" y="-936.4" font-family="Times,serif" font-size="14.00">escéptico</text>
<text text-anchor="middle" x="2644.73" y="-921.4" font-family="Times,serif" font-size="14.00">ncms000 (nsubj)</text>
<text text-anchor="middle" x="2644.73" y="-906.4" font-family="Times,serif" font-size="14.00">rep=no, t=no, r=no, m=yes, c=no</text>
</g>
<!-- n36&#45;&gt;n35 -->
<g id="edge3" class="edge">
<title>n36&#45;&gt;n35</title>
<path fill="none" stroke="black" d="M2644.73,-998.47C2644.73,-990.3 2644.73,-981.52 2644.73,-972.99"/>
<polygon fill="black" stroke="black" points="2648.23,-972.78 2644.73,-962.78 2641.23,-972.78 2648.23,-972.78"/>
</g>
<!-- n46 -->
<g id="node5" class="node">
<title>n46</title>
<ellipse fill="none" stroke="black" cx="3619.73" cy="-925.1" rx="185.94" ry="37.45"/>
<text text-anchor="middle" x="3619.73" y="-936.4" font-family="Times,serif" font-size="14.00">haría</text>
<text text-anchor="middle" x="3619.73" y="-921.4" font-family="Times,serif" font-size="14.00">vmic3s0 (dobj)</text>
<text text-anchor="middle" x="3619.73" y="-906.4" font-family="Times,serif" font-size="14.00">rep=no, t=no, r=no, m=yes, c=no</text>
</g>
<!-- n36&#45;&gt;n46 -->
<g id="edge4" class="edge">
<title>n36&#45;&gt;n46</title>
<path fill="none" stroke="black" d="M2805.45,-1017.1C2982.97,-997.26 3267.61,-965.45 3449.03,-945.18"/>
<polygon fill="black" stroke="black" points="3449.65,-948.63 3459.2,-944.04 3448.88,-941.67 3449.65,-948.63"/>
</g>
<!-- n48 -->
<g id="node6" class="node">
<title>n48</title>
<ellipse fill="none" stroke="black" cx="4005.73" cy="-925.1" rx="181.95" ry="37.45"/>
<text text-anchor="middle" x="4005.73" y="-936.4" font-family="Times,serif" font-size="14.00">.</text>
<text text-anchor="middle" x="4005.73" y="-921.4" font-family="Times,serif" font-size="14.00">fp (punct)</text>
<text text-anchor="middle" x="4005.73" y="-906.4" font-family="Times,serif" font-size="14.00">rep=no, t=no, r=no, m=no, c=no</text>
</g>
<!-- n36&#45;&gt;n48 -->
<g id="edge5" class="edge">
<title>n36&#45;&gt;n48</title>
<path fill="none" stroke="black" d="M2829.05,-1030.86C3060.14,-1023.94 3468.06,-1006.24 3814.73,-962.58 3832.9,-960.29 3851.94,-957.33 3870.68,-954.1"/>
<polygon fill="black" stroke="black" points="3871.5,-957.5 3880.74,-952.32 3870.29,-950.61 3871.5,-957.5"/>
</g>
<!-- n3 -->
<g id="node7" class="node">
<title>n3</title>
<ellipse fill="none" stroke="black" cx="530.73" cy="-814.15" rx="181.95" ry="37.45"/>
<text text-anchor="middle" x="530.73" y="-825.45" font-family="Times,serif" font-size="14.00">,</text>
<text text-anchor="middle" x="530.73" y="-810.45" font-family="Times,serif" font-size="14.00">fc (punct)</text>
<text text-anchor="middle" x="530.73" y="-795.45" font-family="Times,serif" font-size="14.00">rep=no, t=no, r=no, m=no, c=no</text>
</g>
<!-- n1&#45;&gt;n3 -->
<g id="edge6" class="edge">
<title>n1&#45;&gt;n3</title>
<path fill="none" stroke="black" d="M1134.22,-906.76C1019.19,-893.51 859.99,-873.79 720.73,-851.63 703.88,-848.95 686.24,-845.89 668.79,-842.72"/>
<polygon fill="black" stroke="black" points="669.01,-839.2 658.54,-840.84 667.74,-846.09 669.01,-839.2"/>
</g>
<!-- n4 -->
<g id="node8" class="node">
<title>n4</title>
<ellipse fill="none" stroke="black" cx="911.73" cy="-814.15" rx="181.95" ry="37.45"/>
<text text-anchor="middle" x="911.73" y="-825.45" font-family="Times,serif" font-size="14.00">después</text>
<text text-anchor="middle" x="911.73" y="-810.45" font-family="Times,serif" font-size="14.00">rg (advmod)</text>
<text text-anchor="middle" x="911.73" y="-795.45" font-family="Times,serif" font-size="14.00">rep=no, t=no, r=no, m=no, c=no</text>
</g>
<!-- n1&#45;&gt;n4 -->
<g id="edge7" class="edge">
<title>n1&#45;&gt;n4</title>
<path fill="none" stroke="black" d="M1188.62,-894.33C1138.11,-879.89 1077.33,-862.51 1025.6,-847.71"/>
<polygon fill="black" stroke="black" points="1026.29,-844.27 1015.71,-844.89 1024.36,-851 1026.29,-844.27"/>
</g>
<!-- n19 -->
<g id="node9" class="node">
<title>n19</title>
<ellipse fill="none" stroke="black" cx="1292.73" cy="-814.15" rx="181.95" ry="37.45"/>
<text text-anchor="middle" x="1292.73" y="-825.45" font-family="Times,serif" font-size="14.00">,</text>
<text text-anchor="middle" x="1292.73" y="-810.45" font-family="Times,serif" font-size="14.00">fc (punct)</text>
<text text-anchor="middle" x="1292.73" y="-795.45" font-family="Times,serif" font-size="14.00">rep=no, t=no, r=no, m=no, c=no</text>
</g>
<!-- n1&#45;&gt;n19 -->
<g id="edge8" class="edge">
<title>n1&#45;&gt;n19</title>
<path fill="none" stroke="black" d="M1292.73,-887.52C1292.73,-879.35 1292.73,-870.57 1292.73,-862.04"/>
<polygon fill="black" stroke="black" points="1296.23,-861.82 1292.73,-851.82 1289.23,-861.82 1296.23,-861.82"/>
</g>
<!-- n20 -->
<g id="node10" class="node">
<title>n20</title>
<ellipse fill="none" stroke="black" cx="1673.73" cy="-814.15" rx="181.95" ry="37.45"/>
<text text-anchor="middle" x="1673.73" y="-825.45" font-family="Times,serif" font-size="14.00">llegó</text>
<text text-anchor="middle" x="1673.73" y="-810.45" font-family="Times,serif" font-size="14.00">vmis3s0 (cobj)</text>
<text text-anchor="middle" x="1673.73" y="-795.45" font-family="Times,serif" font-size="14.00">rep=no, t=no, r=no, m=no, c=no</text>
</g>
<!-- n1&#45;&gt;n20 -->
<g id="edge9" class="edge">
<title>n1&#45;&gt;n20</title>
<path fill="none" stroke="black" d="M1396.84,-894.33C1447.34,-879.89 1508.12,-862.51 1559.86,-847.71"/>
<polygon fill="black" stroke="black" points="1561.09,-851 1569.74,-844.89 1559.17,-844.27 1561.09,-851"/>
</g>
<!-- n34 -->
<g id="node38" class="node">
<title>n34</title>
<ellipse fill="none" stroke="black" cx="2059.73" cy="-814.15" rx="185.94" ry="37.45"/>
<text text-anchor="middle" x="2059.73" y="-825.45" font-family="Times,serif" font-size="14.00">algún</text>
<text text-anchor="middle" x="2059.73" y="-810.45" font-family="Times,serif" font-size="14.00">di0ms0 (det)</text>
<text text-anchor="middle" x="2059.73" y="-795.45" font-family="Times,serif" font-size="14.00">rep=no, t=no, r=no, m=yes, c=no</text>
</g>
<!-- n35&#45;&gt;n34 -->
<g id="edge37" class="edge">
<title>n35&#45;&gt;n34</title>
<path fill="none" stroke="black" d="M2510.99,-899.04C2490.47,-895.21 2469.54,-891.31 2449.73,-887.63 2363.08,-871.52 2341.37,-867.73 2254.73,-851.63 2238.17,-848.55 2220.82,-845.32 2203.59,-842.1"/>
<polygon fill="black" stroke="black" points="2203.93,-838.6 2193.46,-840.21 2202.65,-845.49 2203.93,-838.6"/>
</g>
<!-- n37 -->
<g id="node39" class="node">
<title>n37</title>
<ellipse fill="none" stroke="black" cx="2449.73" cy="-814.15" rx="185.94" ry="37.45"/>
<text text-anchor="middle" x="2449.73" y="-825.45" font-family="Times,serif" font-size="14.00">:</text>
<text text-anchor="middle" x="2449.73" y="-810.45" font-family="Times,serif" font-size="14.00">fd (punct)</text>
<text text-anchor="middle" x="2449.73" y="-795.45" font-family="Times,serif" font-size="14.00">rep=no, t=no, r=no, m=yes, c=no</text>
</g>
<!-- n46&#45;&gt;n37 -->
<g id="edge38" class="edge">
<title>n46&#45;&gt;n37</title>
<path fill="none" stroke="black" d="M3438.52,-916.64C3242.29,-907.16 2920.34,-887.54 2644.73,-851.63 2626.33,-849.23 2607.04,-846.23 2588.06,-842.98"/>
<polygon fill="black" stroke="black" points="2588.61,-839.52 2578.16,-841.26 2587.41,-846.42 2588.61,-839.52"/>
</g>
<!-- n38 -->
<g id="node40" class="node">
<title>n38</title>
<ellipse fill="none" stroke="black" cx="2839.73" cy="-814.15" rx="185.94" ry="37.45"/>
<text text-anchor="middle" x="2839.73" y="-825.45" font-family="Times,serif" font-size="14.00">&quot;</text>
<text text-anchor="middle" x="2839.73" y="-810.45" font-family="Times,serif" font-size="14.00">fe (punct)</text>
<text text-anchor="middle" x="2839.73" y="-795.45" font-family="Times,serif" font-size="14.00">rep=no, t=no, r=no, m=yes, c=no</text>
</g>
<!-- n46&#45;&gt;n38 -->
<g id="edge39" class="edge">
<title>n46&#45;&gt;n38</title>
<path fill="none" stroke="black" d="M3457.33,-906.7C3339.72,-893.44 3177.06,-873.73 3034.73,-851.63 3017.21,-848.91 2998.85,-845.8 2980.71,-842.59"/>
<polygon fill="black" stroke="black" points="2981.11,-839.1 2970.65,-840.79 2979.88,-845.99 2981.11,-839.1"/>
</g>
<!-- n39 -->
<g id="node41" class="node">
<title>n39</title>
<ellipse fill="none" stroke="black" cx="3229.73" cy="-814.15" rx="185.94" ry="37.45"/>
<text text-anchor="middle" x="3229.73" y="-825.45" font-family="Times,serif" font-size="14.00">¿</text>
<text text-anchor="middle" x="3229.73" y="-810.45" font-family="Times,serif" font-size="14.00">fia (punct)</text>
<text text-anchor="middle" x="3229.73" y="-795.45" font-family="Times,serif" font-size="14.00">rep=no, t=no, r=no, m=yes, c=no</text>
</g>
<!-- n46&#45;&gt;n39 -->
<g id="edge40" class="edge">
<title>n46&#45;&gt;n39</title>
<path fill="none" stroke="black" d="M3513.16,-894.33C3461.35,-879.86 3398.98,-862.43 3345.95,-847.62"/>
<polygon fill="black" stroke="black" points="3346.74,-844.21 3336.17,-844.89 3344.86,-850.95 3346.74,-844.21"/>
</g>
<!-- n40 -->
<g id="node42" class="node">
<title>n40</title>
<ellipse fill="none" stroke="black" cx="3619.73" cy="-814.15" rx="185.94" ry="37.45"/>
<text text-anchor="middle" x="3619.73" y="-825.45" font-family="Times,serif" font-size="14.00">Eso</text>
<text text-anchor="middle" x="3619.73" y="-810.45" font-family="Times,serif" font-size="14.00">pd0ns000 (dobj)</text>
<text text-anchor="middle" x="3619.73" y="-795.45" font-family="Times,serif" font-size="14.00">rep=no, t=no, r=no, m=yes, c=no</text>
</g>
<!-- n46&#45;&gt;n40 -->
<g id="edge41" class="edge">
<title>n46&#45;&gt;n40</title>
<path fill="none" stroke="black" d="M3619.73,-887.52C3619.73,-879.35 3619.73,-870.57 3619.73,-862.04"/>
<polygon fill="black" stroke="black" points="3623.23,-861.82 3619.73,-851.82 3616.23,-861.82 3623.23,-861.82"/>
</g>
<!-- n41 -->
<g id="node43" class="node">
<title>n41</title>
<ellipse fill="none" stroke="black" cx="4009.73" cy="-814.15" rx="185.94" ry="37.45"/>
<text text-anchor="middle" x="4009.73" y="-825.45" font-family="Times,serif" font-size="14.00">?</text>
<text text-anchor="middle" x="4009.73" y="-810.45" font-family="Times,serif" font-size="14.00">fit (punct)</text>
<text text-anchor="middle" x="4009.73" y="-795.45" font-family="Times,serif" font-size="14.00">rep=no, t=no, r=no, m=yes, c=no</text>
</g>
<!-- n46&#45;&gt;n41 -->
<g id="edge42" class="edge">
<title>n46&#45;&gt;n41</title>
<path fill="none" stroke="black" d="M3726.3,-894.33C3778.1,-879.86 3840.47,-862.43 3893.5,-847.62"/>
<polygon fill="black" stroke="black" points="3894.6,-850.95 3903.29,-844.89 3892.71,-844.21 3894.6,-850.95"/>
</g>
<!-- n43 -->
<g id="node44" class="node">
<title>n43</title>
<ellipse fill="none" stroke="black" cx="4399.73" cy="-814.15" rx="185.94" ry="37.45"/>
<text text-anchor="middle" x="4399.73" y="-825.45" font-family="Times,serif" font-size="14.00">hijo</text>
<text text-anchor="middle" x="4399.73" y="-810.45" font-family="Times,serif" font-size="14.00">ncms000 (nsubj)</text>
<text text-anchor="middle" x="4399.73" y="-795.45" font-family="Times,serif" font-size="14.00">rep=no, t=no, r=no, m=yes, c=no</text>
</g>
<!-- n46&#45;&gt;n43 -->
<g id="edge43" class="edge">
<title>n46&#45;&gt;n43</title>
<path fill="none" stroke="black" d="M3749.25,-898.13C3771.05,-894.26 3793.49,-890.59 3814.73,-887.63 3987.13,-863.6 4032.32,-875.66 4204.73,-851.63 4222.73,-849.12 4241.59,-846.09 4260.2,-842.87"/>
<polygon fill="black" stroke="black" points="4260.95,-846.29 4270.2,-841.12 4259.74,-839.4 4260.95,-846.29"/>
</g>
<!-- n44 -->
<g id="node45" class="node">
<title>n44</title>
<ellipse fill="none" stroke="black" cx="4789.73" cy="-814.15" rx="185.94" ry="37.45"/>
<text text-anchor="middle" x="4789.73" y="-825.45" font-family="Times,serif" font-size="14.00">también</text>
<text text-anchor="middle" x="4789.73" y="-810.45" font-family="Times,serif" font-size="14.00">rg (advmod)</text>
<text text-anchor="middle" x="4789.73" y="-795.45" font-family="Times,serif" font-size="14.00">rep=no, t=no, r=no, m=yes, c=no</text>
</g>
<!-- n46&#45;&gt;n44 -->
<g id="edge44" class="edge">
<title>n46&#45;&gt;n44</title>
<path fill="none" stroke="black" d="M3746.78,-897.7C3769.33,-893.77 3792.66,-890.19 3814.73,-887.63 4159.45,-847.63 4250,-891.63 4594.73,-851.63 4613.52,-849.45 4633.22,-846.52 4652.58,-843.27"/>
<polygon fill="black" stroke="black" points="4653.4,-846.68 4662.67,-841.55 4652.22,-839.78 4653.4,-846.68"/>
</g>
<!-- n45 -->
<g id="node46" class="node">
<title>n45</title>
<ellipse fill="none" stroke="black" cx="5179.73" cy="-814.15" rx="185.94" ry="37.45"/>
<text text-anchor="middle" x="5179.73" y="-825.45" font-family="Times,serif" font-size="14.00">lo</text>
<text text-anchor="middle" x="5179.73" y="-810.45" font-family="Times,serif" font-size="14.00">pp3msa00 (dobj)</text>
<text text-anchor="middle" x="5179.73" y="-795.45" font-family="Times,serif" font-size="14.00">rep=no, t=no, r=no, m=yes, c=no</text>
</g>
<!-- n46&#45;&gt;n45 -->
<g id="edge45" class="edge">
<title>n46&#45;&gt;n45</title>
<path fill="none" stroke="black" d="M3745.97,-897.56C3768.76,-893.6 3792.38,-890.05 3814.73,-887.63 4331.95,-831.63 4467.5,-907.62 4984.73,-851.63 5003.84,-849.56 5023.89,-846.66 5043.56,-843.38"/>
<polygon fill="black" stroke="black" points="5044.21,-846.82 5053.49,-841.7 5043.04,-839.92 5044.21,-846.82"/>
</g>
<!-- n47 -->
<g id="node47" class="node">
<title>n47</title>
<ellipse fill="none" stroke="black" cx="5569.73" cy="-814.15" rx="185.94" ry="37.45"/>
<text text-anchor="middle" x="5569.73" y="-825.45" font-family="Times,serif" font-size="14.00">&quot;</text>
<text text-anchor="middle" x="5569.73" y="-810.45" font-family="Times,serif" font-size="14.00">fe (punct)</text>
<text text-anchor="middle" x="5569.73" y="-795.45" font-family="Times,serif" font-size="14.00">rep=no, t=no, r=no, m=yes, c=no</text>
</g>
<!-- n46&#45;&gt;n47 -->
<g id="edge46" class="edge">
<title>n46&#45;&gt;n47</title>
<path fill="none" stroke="black" d="M3745.69,-897.46C3768.57,-893.5 3792.29,-889.97 3814.73,-887.63 4504.5,-815.63 4684.96,-923.62 5374.73,-851.63 5393.92,-849.62 5414.05,-846.75 5433.8,-843.48"/>
<polygon fill="black" stroke="black" points="5434.49,-846.91 5443.76,-841.79 5433.32,-840.01 5434.49,-846.91"/>
</g>
<!-- n5 -->
<g id="node11" class="node">
<title>n5</title>
<ellipse fill="none" stroke="black" cx="911.73" cy="-703.2" rx="181.95" ry="37.45"/>
<text text-anchor="middle" x="911.73" y="-714.5" font-family="Times,serif" font-size="14.00">de</text>
<text text-anchor="middle" x="911.73" y="-699.5" font-family="Times,serif" font-size="14.00">sps00 (prep)</text>
<text text-anchor="middle" x="911.73" y="-684.5" font-family="Times,serif" font-size="14.00">rep=no, t=no, r=no, m=no, c=no</text>
</g>
<!-- n4&#45;&gt;n5 -->
<g id="edge10" class="edge">
<title>n4&#45;&gt;n5</title>
<path fill="none" stroke="black" d="M911.73,-776.57C911.73,-768.39 911.73,-759.61 911.73,-751.09"/>
<polygon fill="black" stroke="black" points="915.23,-750.87 911.73,-740.87 908.23,-750.87 915.23,-750.87"/>
</g>
<!-- n2 -->
<g id="node25" class="node">
<title>n2</title>
<ellipse fill="none" stroke="black" cx="1490.73" cy="-703.2" rx="181.95" ry="37.45"/>
<text text-anchor="middle" x="1490.73" y="-714.5" font-family="Times,serif" font-size="14.00">Miró</text>
<text text-anchor="middle" x="1490.73" y="-699.5" font-family="Times,serif" font-size="14.00">np00000 (nsubj)</text>
<text text-anchor="middle" x="1490.73" y="-684.5" font-family="Times,serif" font-size="14.00">rep=no, t=no, r=no, m=no, c=no</text>
</g>
<!-- n20&#45;&gt;n2 -->
<g id="edge24" class="edge">
<title>n20&#45;&gt;n2</title>
<path fill="none" stroke="black" d="M1615.57,-778.53C1597.06,-767.5 1576.43,-755.22 1557.37,-743.87"/>
<polygon fill="black" stroke="black" points="1559.11,-740.84 1548.73,-738.73 1555.53,-746.85 1559.11,-740.84"/>
</g>
<!-- n21 -->
<g id="node26" class="node">
<title>n21</title>
<ellipse fill="none" stroke="black" cx="1871.73" cy="-703.2" rx="181.95" ry="37.45"/>
<text text-anchor="middle" x="1871.73" y="-714.5" font-family="Times,serif" font-size="14.00">a</text>
<text text-anchor="middle" x="1871.73" y="-699.5" font-family="Times,serif" font-size="14.00">sps00 (prepv)</text>
<text text-anchor="middle" x="1871.73" y="-684.5" font-family="Times,serif" font-size="14.00">rep=no, t=no, r=no, m=no, c=no</text>
</g>
<!-- n20&#45;&gt;n21 -->
<g id="edge25" class="edge">
<title>n20&#45;&gt;n21</title>
<path fill="none" stroke="black" d="M1736.1,-778.83C1756.54,-767.58 1779.39,-755.01 1800.43,-743.43"/>
<polygon fill="black" stroke="black" points="1802.25,-746.42 1809.32,-738.54 1798.87,-740.29 1802.25,-746.42"/>
</g>
<!-- n6 -->
<g id="node12" class="node">
<title>n6</title>
<ellipse fill="none" stroke="black" cx="911.73" cy="-592.24" rx="181.95" ry="37.45"/>
<text text-anchor="middle" x="911.73" y="-603.54" font-family="Times,serif" font-size="14.00">pasar</text>
<text text-anchor="middle" x="911.73" y="-588.54" font-family="Times,serif" font-size="14.00">vmn0000 (pobj)</text>
<text text-anchor="middle" x="911.73" y="-573.54" font-family="Times,serif" font-size="14.00">rep=no, t=no, r=no, m=no, c=no</text>
</g>
<!-- n5&#45;&gt;n6 -->
<g id="edge11" class="edge">
<title>n5&#45;&gt;n6</title>
<path fill="none" stroke="black" d="M911.73,-665.61C911.73,-657.44 911.73,-648.66 911.73,-640.13"/>
<polygon fill="black" stroke="black" points="915.23,-639.92 911.73,-629.92 908.23,-639.92 915.23,-639.92"/>
</g>
<!-- n7 -->
<g id="node13" class="node">
<title>n7</title>
<ellipse fill="none" stroke="black" cx="379.73" cy="-481.29" rx="181.95" ry="37.45"/>
<text text-anchor="middle" x="379.73" y="-492.59" font-family="Times,serif" font-size="14.00">en</text>
<text text-anchor="middle" x="379.73" y="-477.59" font-family="Times,serif" font-size="14.00">sps00 (prepv)</text>
<text text-anchor="middle" x="379.73" y="-462.59" font-family="Times,serif" font-size="14.00">rep=no, t=no, r=no, m=no, c=no</text>
</g>
<!-- n6&#45;&gt;n7 -->
<g id="edge12" class="edge">
<title>n6&#45;&gt;n7</title>
<path fill="none" stroke="black" d="M784.98,-565.28C704.06,-548.71 599.19,-527.24 516.41,-510.28"/>
<polygon fill="black" stroke="black" points="516.93,-506.82 506.43,-508.24 515.52,-513.67 516.93,-506.82"/>
</g>
<!-- n10 -->
<g id="node14" class="node">
<title>n10</title>
<ellipse fill="none" stroke="black" cx="957.73" cy="-481.29" rx="181.95" ry="37.45"/>
<text text-anchor="middle" x="957.73" y="-492.59" font-family="Times,serif" font-size="14.00">por</text>
<text text-anchor="middle" x="957.73" y="-477.59" font-family="Times,serif" font-size="14.00">sps00 (prepv)</text>
<text text-anchor="middle" x="957.73" y="-462.59" font-family="Times,serif" font-size="14.00">rep=no, t=no, r=no, m=no, c=no</text>
</g>
<!-- n6&#45;&gt;n10 -->
<g id="edge13" class="edge">
<title>n6&#45;&gt;n10</title>
<path fill="none" stroke="black" d="M927.17,-554.66C930.74,-546.22 934.57,-537.13 938.29,-528.34"/>
<polygon fill="black" stroke="black" points="941.58,-529.54 942.24,-518.96 935.13,-526.81 941.58,-529.54"/>
</g>
<!-- n9 -->
<g id="node15" class="node">
<title>n9</title>
<ellipse fill="none" stroke="black" cx="181.73" cy="-370.34" rx="181.95" ry="37.45"/>
<text text-anchor="middle" x="181.73" y="-381.64" font-family="Times,serif" font-size="14.00">juventud</text>
<text text-anchor="middle" x="181.73" y="-366.64" font-family="Times,serif" font-size="14.00">ncfs000 (pobj)</text>
<text text-anchor="middle" x="181.73" y="-351.64" font-family="Times,serif" font-size="14.00">rep=no, t=no, r=no, m=no, c=no</text>
</g>
<!-- n7&#45;&gt;n9 -->
<g id="edge14" class="edge">
<title>n7&#45;&gt;n9</title>
<path fill="none" stroke="black" d="M317.35,-445.97C296.92,-434.72 274.06,-422.15 253.02,-410.57"/>
<polygon fill="black" stroke="black" points="254.58,-407.43 244.13,-405.68 251.2,-413.56 254.58,-407.43"/>
</g>
<!-- n12 -->
<g id="node17" class="node">
<title>n12</title>
<ellipse fill="none" stroke="black" cx="567.73" cy="-370.34" rx="185.94" ry="37.45"/>
<text text-anchor="middle" x="567.73" y="-381.64" font-family="Times,serif" font-size="14.00">expresionismo</text>
<text text-anchor="middle" x="567.73" y="-366.64" font-family="Times,serif" font-size="14.00">ncms000 (pobj)</text>
<text text-anchor="middle" x="567.73" y="-351.64" font-family="Times,serif" font-size="14.00">rep=no, t=no, r=no, m=no, c=yes</text>
</g>
<!-- n10&#45;&gt;n12 -->
<g id="edge16" class="edge">
<title>n10&#45;&gt;n12</title>
<path fill="none" stroke="black" d="M851.93,-450.73C800.01,-436.23 737.33,-418.72 684.06,-403.84"/>
<polygon fill="black" stroke="black" points="684.81,-400.41 674.23,-401.09 682.92,-407.15 684.81,-400.41"/>
</g>
<!-- n15 -->
<g id="node18" class="node">
<title>n15</title>
<ellipse fill="none" stroke="black" cx="957.73" cy="-370.34" rx="185.94" ry="37.45"/>
<text text-anchor="middle" x="957.73" y="-381.64" font-family="Times,serif" font-size="14.00">cubismo</text>
<text text-anchor="middle" x="957.73" y="-366.64" font-family="Times,serif" font-size="14.00">ncms000 (pobj)</text>
<text text-anchor="middle" x="957.73" y="-351.64" font-family="Times,serif" font-size="14.00">rep=no, t=no, r=no, m=no, c=yes</text>
</g>
<!-- n10&#45;&gt;n15 -->
<g id="edge17" class="edge">
<title>n10&#45;&gt;n15</title>
<path fill="none" stroke="black" d="M957.73,-443.71C957.73,-435.53 957.73,-426.75 957.73,-418.23"/>
<polygon fill="black" stroke="black" points="961.23,-418.01 957.73,-408.01 954.23,-418.01 961.23,-418.01"/>
</g>
<!-- n16 -->
<g id="node19" class="node">
<title>n16</title>
<ellipse fill="none" stroke="black" cx="1343.73" cy="-370.34" rx="181.95" ry="37.45"/>
<text text-anchor="middle" x="1343.73" y="-381.64" font-family="Times,serif" font-size="14.00">y</text>
<text text-anchor="middle" x="1343.73" y="-366.64" font-family="Times,serif" font-size="14.00">cc (coord_fixed)</text>
<text text-anchor="middle" x="1343.73" y="-351.64" font-family="Times,serif" font-size="14.00">rep=no, t=no, r=no, m=no, c=no</text>
</g>
<!-- n10&#45;&gt;n16 -->
<g id="edge18" class="edge">
<title>n10&#45;&gt;n16</title>
<path fill="none" stroke="black" d="M1062.69,-450.66C1114.18,-436.13 1176.31,-418.59 1229.05,-403.71"/>
<polygon fill="black" stroke="black" points="1230.11,-407.04 1238.78,-400.96 1228.21,-400.31 1230.11,-407.04"/>
</g>
<!-- n18 -->
<g id="node20" class="node">
<title>n18</title>
<ellipse fill="none" stroke="black" cx="1729.73" cy="-370.34" rx="185.94" ry="37.45"/>
<text text-anchor="middle" x="1729.73" y="-381.64" font-family="Times,serif" font-size="14.00">fauvismo</text>
<text text-anchor="middle" x="1729.73" y="-366.64" font-family="Times,serif" font-size="14.00">ncms000 (pobj)</text>
<text text-anchor="middle" x="1729.73" y="-351.64" font-family="Times,serif" font-size="14.00">rep=no, t=no, r=no, m=no, c=yes</text>
</g>
<!-- n10&#45;&gt;n18 -->
<g id="edge19" class="edge">
<title>n10&#45;&gt;n18</title>
<path fill="none" stroke="black" d="M1116.35,-462.96C1232.47,-449.64 1393.7,-429.84 1534.73,-407.81 1552.17,-405.09 1570.44,-401.99 1588.52,-398.78"/>
<polygon fill="black" stroke="black" points="1589.31,-402.2 1598.53,-396.99 1588.07,-395.31 1589.31,-402.2"/>
</g>
<!-- n8 -->
<g id="node16" class="node">
<title>n8</title>
<ellipse fill="none" stroke="black" cx="181.73" cy="-259.38" rx="181.95" ry="37.45"/>
<text text-anchor="middle" x="181.73" y="-270.68" font-family="Times,serif" font-size="14.00">su</text>
<text text-anchor="middle" x="181.73" y="-255.68" font-family="Times,serif" font-size="14.00">dp3cs0 (poss)</text>
<text text-anchor="middle" x="181.73" y="-240.68" font-family="Times,serif" font-size="14.00">rep=no, t=no, r=no, m=no, c=no</text>
</g>
<!-- n9&#45;&gt;n8 -->
<g id="edge15" class="edge">
<title>n9&#45;&gt;n8</title>
<path fill="none" stroke="black" d="M181.73,-332.75C181.73,-324.58 181.73,-315.8 181.73,-307.27"/>
<polygon fill="black" stroke="black" points="185.23,-307.06 181.73,-297.06 178.23,-307.06 185.23,-307.06"/>
</g>
<!-- n11 -->
<g id="node21" class="node">
<title>n11</title>
<ellipse fill="none" stroke="black" cx="567.73" cy="-259.38" rx="181.95" ry="37.45"/>
<text text-anchor="middle" x="567.73" y="-270.68" font-family="Times,serif" font-size="14.00">el</text>
<text text-anchor="middle" x="567.73" y="-255.68" font-family="Times,serif" font-size="14.00">da0ms0 (det)</text>
<text text-anchor="middle" x="567.73" y="-240.68" font-family="Times,serif" font-size="14.00">rep=no, t=no, r=no, m=no, c=no</text>
</g>
<!-- n12&#45;&gt;n11 -->
<g id="edge20" class="edge">
<title>n12&#45;&gt;n11</title>
<path fill="none" stroke="black" d="M567.73,-332.75C567.73,-324.58 567.73,-315.8 567.73,-307.27"/>
<polygon fill="black" stroke="black" points="571.23,-307.06 567.73,-297.06 564.23,-307.06 571.23,-307.06"/>
</g>
<!-- n14 -->
<g id="node22" class="node">
<title>n14</title>
<ellipse fill="none" stroke="black" cx="957.73" cy="-259.38" rx="181.95" ry="37.45"/>
<text text-anchor="middle" x="957.73" y="-270.68" font-family="Times,serif" font-size="14.00">el</text>
<text text-anchor="middle" x="957.73" y="-255.68" font-family="Times,serif" font-size="14.00">da0ms0 (det)</text>
<text text-anchor="middle" x="957.73" y="-240.68" font-family="Times,serif" font-size="14.00">rep=no, t=no, r=no, m=no, c=no</text>
</g>
<!-- n15&#45;&gt;n14 -->
<g id="edge21" class="edge">
<title>n15&#45;&gt;n14</title>
<path fill="none" stroke="black" d="M957.73,-332.75C957.73,-324.58 957.73,-315.8 957.73,-307.27"/>
<polygon fill="black" stroke="black" points="961.23,-307.06 957.73,-297.06 954.23,-307.06 961.23,-307.06"/>
</g>
<!-- n13 -->
<g id="node23" class="node">
<title>n13</title>
<ellipse fill="none" stroke="black" cx="1343.73" cy="-259.38" rx="181.95" ry="37.45"/>
<text text-anchor="middle" x="1343.73" y="-270.68" font-family="Times,serif" font-size="14.00">,</text>
<text text-anchor="middle" x="1343.73" y="-255.68" font-family="Times,serif" font-size="14.00">fc (punct)</text>
<text text-anchor="middle" x="1343.73" y="-240.68" font-family="Times,serif" font-size="14.00">rep=no, t=no, r=no, m=no, c=no</text>
</g>
<!-- n16&#45;&gt;n13 -->
<g id="edge22" class="edge">
<title>n16&#45;&gt;n13</title>
<path fill="none" stroke="black" d="M1343.73,-332.75C1343.73,-324.58 1343.73,-315.8 1343.73,-307.27"/>
<polygon fill="black" stroke="black" points="1347.23,-307.06 1343.73,-297.06 1340.23,-307.06 1347.23,-307.06"/>
</g>
<!-- n17 -->
<g id="node24" class="node">
<title>n17</title>
<ellipse fill="none" stroke="black" cx="1729.73" cy="-259.38" rx="181.95" ry="37.45"/>
<text text-anchor="middle" x="1729.73" y="-270.68" font-family="Times,serif" font-size="14.00">el</text>
<text text-anchor="middle" x="1729.73" y="-255.68" font-family="Times,serif" font-size="14.00">da0ms0 (det)</text>
<text text-anchor="middle" x="1729.73" y="-240.68" font-family="Times,serif" font-size="14.00">rep=no, t=no, r=no, m=no, c=no</text>
</g>
<!-- n18&#45;&gt;n17 -->
<g id="edge23" class="edge">
<title>n18&#45;&gt;n17</title>
<path fill="none" stroke="black" d="M1729.73,-332.75C1729.73,-324.58 1729.73,-315.8 1729.73,-307.27"/>
<polygon fill="black" stroke="black" points="1733.23,-307.06 1729.73,-297.06 1726.23,-307.06 1733.23,-307.06"/>
</g>
<!-- n23 -->
<g id="node27" class="node">
<title>n23</title>
<ellipse fill="none" stroke="black" cx="1871.73" cy="-592.24" rx="181.95" ry="37.45"/>
<text text-anchor="middle" x="1871.73" y="-603.54" font-family="Times,serif" font-size="14.00">fase</text>
<text text-anchor="middle" x="1871.73" y="-588.54" font-family="Times,serif" font-size="14.00">ncfs000 (pobj)</text>
<text text-anchor="middle" x="1871.73" y="-573.54" font-family="Times,serif" font-size="14.00">rep=no, t=no, r=no, m=no, c=no</text>
</g>
<!-- n21&#45;&gt;n23 -->
<g id="edge26" class="edge">
<title>n21&#45;&gt;n23</title>
<path fill="none" stroke="black" d="M1871.73,-665.61C1871.73,-657.44 1871.73,-648.66 1871.73,-640.13"/>
<polygon fill="black" stroke="black" points="1875.23,-639.92 1871.73,-629.92 1868.23,-639.92 1875.23,-639.92"/>
</g>
<!-- n22 -->
<g id="node28" class="node">
<title>n22</title>
<ellipse fill="none" stroke="black" cx="1825.73" cy="-481.29" rx="181.95" ry="37.45"/>
<text text-anchor="middle" x="1825.73" y="-492.59" font-family="Times,serif" font-size="14.00">la</text>
<text text-anchor="middle" x="1825.73" y="-477.59" font-family="Times,serif" font-size="14.00">da0fs0 (det)</text>
<text text-anchor="middle" x="1825.73" y="-462.59" font-family="Times,serif" font-size="14.00">rep=no, t=no, r=no, m=no, c=no</text>
</g>
<!-- n23&#45;&gt;n22 -->
<g id="edge27" class="edge">
<title>n23&#45;&gt;n22</title>
<path fill="none" stroke="black" d="M1856.28,-554.66C1852.72,-546.22 1848.88,-537.13 1845.17,-528.34"/>
<polygon fill="black" stroke="black" points="1848.32,-526.81 1841.21,-518.96 1841.87,-529.54 1848.32,-526.81"/>
</g>
<!-- n24 -->
<g id="node29" class="node">
<title>n24</title>
<ellipse fill="none" stroke="black" cx="2206.73" cy="-481.29" rx="181.95" ry="37.45"/>
<text text-anchor="middle" x="2206.73" y="-492.59" font-family="Times,serif" font-size="14.00">de</text>
<text text-anchor="middle" x="2206.73" y="-477.59" font-family="Times,serif" font-size="14.00">sps00 (prepn)</text>
<text text-anchor="middle" x="2206.73" y="-462.59" font-family="Times,serif" font-size="14.00">rep=no, t=no, r=no, m=no, c=no</text>
</g>
<!-- n23&#45;&gt;n24 -->
<g id="edge28" class="edge">
<title>n23&#45;&gt;n24</title>
<path fill="none" stroke="black" d="M1967.28,-560.17C2009.26,-546.51 2058.69,-530.44 2101.7,-516.45"/>
<polygon fill="black" stroke="black" points="2102.91,-519.73 2111.34,-513.31 2100.75,-513.08 2102.91,-519.73"/>
</g>
<!-- n25 -->
<g id="node30" class="node">
<title>n25</title>
<ellipse fill="none" stroke="black" cx="2206.73" cy="-370.34" rx="181.95" ry="37.45"/>
<text text-anchor="middle" x="2206.73" y="-381.64" font-family="Times,serif" font-size="14.00">signos</text>
<text text-anchor="middle" x="2206.73" y="-366.64" font-family="Times,serif" font-size="14.00">ncmp000 (pobj)</text>
<text text-anchor="middle" x="2206.73" y="-351.64" font-family="Times,serif" font-size="14.00">rep=no, t=no, r=no, m=no, c=no</text>
</g>
<!-- n24&#45;&gt;n25 -->
<g id="edge29" class="edge">
<title>n24&#45;&gt;n25</title>
<path fill="none" stroke="black" d="M2206.73,-443.71C2206.73,-435.53 2206.73,-426.75 2206.73,-418.23"/>
<polygon fill="black" stroke="black" points="2210.23,-418.01 2206.73,-408.01 2203.23,-418.01 2210.23,-418.01"/>
</g>
<!-- n27 -->
<g id="node31" class="node">
<title>n27</title>
<ellipse fill="none" stroke="black" cx="2158.73" cy="-259.38" rx="181.95" ry="37.45"/>
<text text-anchor="middle" x="2158.73" y="-270.68" font-family="Times,serif" font-size="14.00">simples</text>
<text text-anchor="middle" x="2158.73" y="-255.68" font-family="Times,serif" font-size="14.00">aq0cp0 (amod)</text>
<text text-anchor="middle" x="2158.73" y="-240.68" font-family="Times,serif" font-size="14.00">rep=no, t=no, r=no, m=no, c=no</text>
</g>
<!-- n25&#45;&gt;n27 -->
<g id="edge30" class="edge">
<title>n25&#45;&gt;n27</title>
<path fill="none" stroke="black" d="M2190.61,-332.75C2186.89,-324.31 2182.88,-315.22 2179.01,-306.43"/>
<polygon fill="black" stroke="black" points="2182.12,-304.8 2174.88,-297.06 2175.71,-307.62 2182.12,-304.8"/>
</g>
<!-- n30 -->
<g id="node32" class="node">
<title>n30</title>
<ellipse fill="none" stroke="black" cx="2729.73" cy="-259.38" rx="181.95" ry="37.45"/>
<text text-anchor="middle" x="2729.73" y="-270.68" font-family="Times,serif" font-size="14.00">hicieron</text>
<text text-anchor="middle" x="2729.73" y="-255.68" font-family="Times,serif" font-size="14.00">vmis3p0 (rcmod)</text>
<text text-anchor="middle" x="2729.73" y="-240.68" font-family="Times,serif" font-size="14.00">rep=no, t=no, r=no, m=no, c=no</text>
</g>
<!-- n25&#45;&gt;n30 -->
<g id="edge31" class="edge">
<title>n25&#45;&gt;n30</title>
<path fill="none" stroke="black" d="M2332.33,-343.17C2411.31,-326.72 2513.19,-305.49 2594.02,-288.65"/>
<polygon fill="black" stroke="black" points="2595.2,-291.98 2604.27,-286.52 2593.77,-285.13 2595.2,-291.98"/>
</g>
<!-- n26 -->
<g id="node33" class="node">
<title>n26</title>
<ellipse fill="none" stroke="black" cx="2062.73" cy="-148.43" rx="181.95" ry="37.45"/>
<text text-anchor="middle" x="2062.73" y="-159.73" font-family="Times,serif" font-size="14.00">aparentemente</text>
<text text-anchor="middle" x="2062.73" y="-144.73" font-family="Times,serif" font-size="14.00">rg (advmod)</text>
<text text-anchor="middle" x="2062.73" y="-129.73" font-family="Times,serif" font-size="14.00">rep=no, t=no, r=no, m=no, c=no</text>
</g>
<!-- n27&#45;&gt;n26 -->
<g id="edge32" class="edge">
<title>n27&#45;&gt;n26</title>
<path fill="none" stroke="black" d="M2127.03,-222.41C2118.75,-213.02 2109.74,-202.79 2101.16,-193.05"/>
<polygon fill="black" stroke="black" points="2103.63,-190.56 2094.39,-185.37 2098.38,-195.19 2103.63,-190.56"/>
</g>
<!-- n28 -->
<g id="node34" class="node">
<title>n28</title>
<ellipse fill="none" stroke="black" cx="2443.73" cy="-148.43" rx="181.95" ry="37.45"/>
<text text-anchor="middle" x="2443.73" y="-159.73" font-family="Times,serif" font-size="14.00">que</text>
<text text-anchor="middle" x="2443.73" y="-144.73" font-family="Times,serif" font-size="14.00">pr0cn000 (nsubj)</text>
<text text-anchor="middle" x="2443.73" y="-129.73" font-family="Times,serif" font-size="14.00">rep=no, t=no, r=no, m=no, c=no</text>
</g>
<!-- n30&#45;&gt;n28 -->
<g id="edge33" class="edge">
<title>n30&#45;&gt;n28</title>
<path fill="none" stroke="black" d="M2645.08,-226.14C2611.5,-213.35 2572.75,-198.58 2538.26,-185.44"/>
<polygon fill="black" stroke="black" points="2539.24,-182.07 2528.65,-181.78 2536.75,-188.61 2539.24,-182.07"/>
</g>
<!-- n29 -->
<g id="node35" class="node">
<title>n29</title>
<ellipse fill="none" stroke="black" cx="2824.73" cy="-148.43" rx="181.95" ry="37.45"/>
<text text-anchor="middle" x="2824.73" y="-159.73" font-family="Times,serif" font-size="14.00">lo</text>
<text text-anchor="middle" x="2824.73" y="-144.73" font-family="Times,serif" font-size="14.00">pp3msa00 (dobj)</text>
<text text-anchor="middle" x="2824.73" y="-129.73" font-family="Times,serif" font-size="14.00">rep=no, t=no, r=no, m=no, c=no</text>
</g>
<!-- n30&#45;&gt;n29 -->
<g id="edge34" class="edge">
<title>n30&#45;&gt;n29</title>
<path fill="none" stroke="black" d="M2761.1,-222.41C2769.28,-213.02 2778.2,-202.79 2786.69,-193.05"/>
<polygon fill="black" stroke="black" points="2789.46,-195.21 2793.39,-185.37 2784.18,-190.61 2789.46,-195.21"/>
</g>
<!-- n32 -->
<g id="node36" class="node">
<title>n32</title>
<ellipse fill="none" stroke="black" cx="3205.73" cy="-148.43" rx="181.95" ry="37.45"/>
<text text-anchor="middle" x="3205.73" y="-159.73" font-family="Times,serif" font-size="14.00">famoso</text>
<text text-anchor="middle" x="3205.73" y="-144.73" font-family="Times,serif" font-size="14.00">aq0ms0 (cpred)</text>
<text text-anchor="middle" x="3205.73" y="-129.73" font-family="Times,serif" font-size="14.00">rep=no, t=no, r=no, m=no, c=no</text>
</g>
<!-- n30&#45;&gt;n32 -->
<g id="edge35" class="edge">
<title>n30&#45;&gt;n32</title>
<path fill="none" stroke="black" d="M2849.23,-231.03C2918.4,-215.2 3005.51,-195.26 3076.3,-179.05"/>
<polygon fill="black" stroke="black" points="3077.21,-182.44 3086.18,-176.79 3075.65,-175.61 3077.21,-182.44"/>
</g>
<!-- n31 -->
<g id="node37" class="node">
<title>n31</title>
<ellipse fill="none" stroke="black" cx="3205.73" cy="-37.48" rx="181.95" ry="37.45"/>
<text text-anchor="middle" x="3205.73" y="-48.78" font-family="Times,serif" font-size="14.00">tan</text>
<text text-anchor="middle" x="3205.73" y="-33.78" font-family="Times,serif" font-size="14.00">rg (advmod)</text>
<text text-anchor="middle" x="3205.73" y="-18.78" font-family="Times,serif" font-size="14.00">rep=no, t=no, r=no, m=no, c=no</text>
</g>
<!-- n32&#45;&gt;n31 -->
<g id="edge36" class="edge">
<title>n32&#45;&gt;n31</title>
<path fill="none" stroke="black" d="M3205.73,-110.85C3205.73,-102.67 3205.73,-93.89 3205.73,-85.37"/>
<polygon fill="black" stroke="black" points="3209.23,-85.15 3205.73,-75.15 3202.23,-85.15 3209.23,-85.15"/>
</g>
<!-- n42 -->
<g id="node48" class="node">
<title>n42</title>
<ellipse fill="none" stroke="black" cx="4399.73" cy="-703.2" rx="185.94" ry="37.45"/>
<text text-anchor="middle" x="4399.73" y="-714.5" font-family="Times,serif" font-size="14.00">Mi</text>
<text text-anchor="middle" x="4399.73" y="-699.5" font-family="Times,serif" font-size="14.00">dp1css (poss)</text>
<text text-anchor="middle" x="4399.73" y="-684.5" font-family="Times,serif" font-size="14.00">rep=no, t=no, r=no, m=yes, c=no</text>
</g>
<!-- n43&#45;&gt;n42 -->
<g id="edge47" class="edge">
<title>n43&#45;&gt;n42</title>
<path fill="none" stroke="black" d="M4399.73,-776.57C4399.73,-768.39 4399.73,-759.61 4399.73,-751.09"/>
<polygon fill="black" stroke="black" points="4403.23,-750.87 4399.73,-740.87 4396.23,-750.87 4403.23,-750.87"/>
</g>
</g>
</svg>
