<?xml version="1.0" encoding="UTF-8" standalone="no"?>
<!DOCTYPE svg PUBLIC "-//W3C//DTD SVG 1.1//EN"
 "http://www.w3.org/Graphics/SVG/1.1/DTD/svg11.dtd">
<!-- Generated by graphviz version 2.43.0 (0)
 -->
<!-- Title: tree Pages: 1 -->
<svg width="1960pt" height="527pt"
 viewBox="0.00 0.00 1959.89 526.77" xmlns="http://www.w3.org/2000/svg" xmlns:xlink="http://www.w3.org/1999/xlink">
<g id="graph0" class="graph" transform="scale(1 1) rotate(0) translate(4 522.77)">
<title>tree</title>
<polygon fill="white" stroke="transparent" points="-4,4 -4,-522.77 1955.89,-522.77 1955.89,4 -4,4"/>
<!-- n2 -->
<g id="node1" class="node">
<title>n2</title>
<ellipse fill="none" stroke="black" cx="970.97" cy="-481.29" rx="185.94" ry="37.45"/>
<text text-anchor="middle" x="970.97" y="-492.59" font-family="Times,serif" font-size="14.00">quería</text>
<text text-anchor="middle" x="970.97" y="-477.59" font-family="Times,serif" font-size="14.00">vmii3s0 (root)</text>
<text text-anchor="middle" x="970.97" y="-462.59" font-family="Times,serif" font-size="14.00">rep=no, t=no, r=no, m=yes, c=no</text>
</g>
<!-- n1 -->
<g id="node2" class="node">
<title>n1</title>
<ellipse fill="none" stroke="black" cx="580.97" cy="-370.34" rx="185.94" ry="37.45"/>
<text text-anchor="middle" x="580.97" y="-381.64" font-family="Times,serif" font-size="14.00">No</text>
<text text-anchor="middle" x="580.97" y="-366.64" font-family="Times,serif" font-size="14.00">rn (neg)</text>
<text text-anchor="middle" x="580.97" y="-351.64" font-family="Times,serif" font-size="14.00">rep=no, t=no, r=no, m=yes, c=no</text>
</g>
<!-- n2&#45;&gt;n1 -->
<g id="edge1" class="edge">
<title>n2&#45;&gt;n1</title>
<path fill="none" stroke="black" d="M864.4,-450.52C812.59,-436.05 750.23,-418.62 697.2,-403.81"/>
<polygon fill="black" stroke="black" points="697.98,-400.39 687.41,-401.07 696.1,-407.13 697.98,-400.39"/>
</g>
<!-- n3 -->
<g id="node3" class="node">
<title>n3</title>
<ellipse fill="none" stroke="black" cx="970.97" cy="-370.34" rx="185.94" ry="37.45"/>
<text text-anchor="middle" x="970.97" y="-381.64" font-family="Times,serif" font-size="14.00">seguir</text>
<text text-anchor="middle" x="970.97" y="-366.64" font-family="Times,serif" font-size="14.00">vmn0000 (dobj)</text>
<text text-anchor="middle" x="970.97" y="-351.64" font-family="Times,serif" font-size="14.00">rep=no, t=no, r=no, m=yes, c=no</text>
</g>
<!-- n2&#45;&gt;n3 -->
<g id="edge2" class="edge">
<title>n2&#45;&gt;n3</title>
<path fill="none" stroke="black" d="M970.97,-443.71C970.97,-435.53 970.97,-426.75 970.97,-418.23"/>
<polygon fill="black" stroke="black" points="974.47,-418.01 970.97,-408.01 967.47,-418.01 974.47,-418.01"/>
</g>
<!-- n14 -->
<g id="node4" class="node">
<title>n14</title>
<ellipse fill="none" stroke="black" cx="1356.97" cy="-370.34" rx="181.95" ry="37.45"/>
<text text-anchor="middle" x="1356.97" y="-381.64" font-family="Times,serif" font-size="14.00">.</text>
<text text-anchor="middle" x="1356.97" y="-366.64" font-family="Times,serif" font-size="14.00">fp (punct)</text>
<text text-anchor="middle" x="1356.97" y="-351.64" font-family="Times,serif" font-size="14.00">rep=no, t=no, r=no, m=no, c=no</text>
</g>
<!-- n2&#45;&gt;n14 -->
<g id="edge3" class="edge">
<title>n2&#45;&gt;n14</title>
<path fill="none" stroke="black" d="M1076.7,-450.45C1127.97,-435.97 1189.65,-418.56 1242.08,-403.77"/>
<polygon fill="black" stroke="black" points="1243.08,-407.12 1251.75,-401.03 1241.18,-400.38 1243.08,-407.12"/>
</g>
<!-- n4 -->
<g id="node5" class="node">
<title>n4</title>
<ellipse fill="none" stroke="black" cx="185.97" cy="-259.38" rx="185.94" ry="37.45"/>
<text text-anchor="middle" x="185.97" y="-270.68" font-family="Times,serif" font-size="14.00">tocando</text>
<text text-anchor="middle" x="185.97" y="-255.68" font-family="Times,serif" font-size="14.00">vmg0000 (cobj)</text>
<text text-anchor="middle" x="185.97" y="-240.68" font-family="Times,serif" font-size="14.00">rep=no, t=no, r=no, m=yes, c=no</text>
</g>
<!-- n3&#45;&gt;n4 -->
<g id="edge4" class="edge">
<title>n3&#45;&gt;n4</title>
<path fill="none" stroke="black" d="M841.71,-343.39C819.82,-339.51 797.29,-335.82 775.97,-332.86 601.36,-308.63 555.58,-321.09 380.97,-296.86 362.9,-294.35 343.95,-291.32 325.27,-288.09"/>
<polygon fill="black" stroke="black" points="325.69,-284.61 315.23,-286.33 324.48,-291.5 325.69,-284.61"/>
</g>
<!-- n6 -->
<g id="node6" class="node">
<title>n6</title>
<ellipse fill="none" stroke="black" cx="575.97" cy="-259.38" rx="185.94" ry="37.45"/>
<text text-anchor="middle" x="575.97" y="-270.68" font-family="Times,serif" font-size="14.00">noche</text>
<text text-anchor="middle" x="575.97" y="-255.68" font-family="Times,serif" font-size="14.00">ncfs000 (tmod)</text>
<text text-anchor="middle" x="575.97" y="-240.68" font-family="Times,serif" font-size="14.00">rep=no, t=no, r=no, m=yes, c=no</text>
</g>
<!-- n3&#45;&gt;n6 -->
<g id="edge5" class="edge">
<title>n3&#45;&gt;n6</title>
<path fill="none" stroke="black" d="M863.56,-339.71C810.86,-325.17 747.29,-307.64 693.32,-292.75"/>
<polygon fill="black" stroke="black" points="693.93,-289.29 683.36,-290.01 692.07,-296.04 693.93,-289.29"/>
</g>
<!-- n7 -->
<g id="node7" class="node">
<title>n7</title>
<ellipse fill="none" stroke="black" cx="970.97" cy="-259.38" rx="190.84" ry="37.45"/>
<text text-anchor="middle" x="970.97" y="-270.68" font-family="Times,serif" font-size="14.00">Jumpin</text>
<text text-anchor="middle" x="970.97" y="-255.68" font-family="Times,serif" font-size="14.00">ncfs000 (dobj)</text>
<text text-anchor="middle" x="970.97" y="-240.68" font-family="Times,serif" font-size="14.00">rep=no, t=no, r=no, m=yes, c=yes</text>
</g>
<!-- n3&#45;&gt;n7 -->
<g id="edge6" class="edge">
<title>n3&#45;&gt;n7</title>
<path fill="none" stroke="black" d="M970.97,-332.75C970.97,-324.58 970.97,-315.8 970.97,-307.27"/>
<polygon fill="black" stroke="black" points="974.47,-307.06 970.97,-297.06 967.47,-307.06 974.47,-307.06"/>
</g>
<!-- n10 -->
<g id="node8" class="node">
<title>n10</title>
<ellipse fill="none" stroke="black" cx="1365.97" cy="-259.38" rx="185.94" ry="37.45"/>
<text text-anchor="middle" x="1365.97" y="-270.68" font-family="Times,serif" font-size="14.00">y</text>
<text text-anchor="middle" x="1365.97" y="-255.68" font-family="Times,serif" font-size="14.00">cc (coord_fixed)</text>
<text text-anchor="middle" x="1365.97" y="-240.68" font-family="Times,serif" font-size="14.00">rep=no, t=no, r=no, m=yes, c=no</text>
</g>
<!-- n3&#45;&gt;n10 -->
<g id="edge7" class="edge">
<title>n3&#45;&gt;n10</title>
<path fill="none" stroke="black" d="M1078.38,-339.71C1131.07,-325.17 1194.65,-307.64 1248.62,-292.75"/>
<polygon fill="black" stroke="black" points="1249.87,-296.04 1258.58,-290.01 1248.01,-289.29 1249.87,-296.04"/>
</g>
<!-- n11 -->
<g id="node9" class="node">
<title>n11</title>
<ellipse fill="none" stroke="black" cx="1760.97" cy="-259.38" rx="190.84" ry="37.45"/>
<text text-anchor="middle" x="1760.97" y="-270.68" font-family="Times,serif" font-size="14.00">Honky</text>
<text text-anchor="middle" x="1760.97" y="-255.68" font-family="Times,serif" font-size="14.00">ncfs000 (dobj)</text>
<text text-anchor="middle" x="1760.97" y="-240.68" font-family="Times,serif" font-size="14.00">rep=no, t=no, r=no, m=yes, c=yes</text>
</g>
<!-- n3&#45;&gt;n11 -->
<g id="edge8" class="edge">
<title>n3&#45;&gt;n11</title>
<path fill="none" stroke="black" d="M1100.23,-343.39C1122.11,-339.51 1144.65,-335.82 1165.97,-332.86 1340.58,-308.63 1386.31,-320.7 1560.97,-296.86 1579.51,-294.33 1598.94,-291.28 1618.11,-288.04"/>
<polygon fill="black" stroke="black" points="1618.84,-291.47 1628.1,-286.33 1617.66,-284.57 1618.84,-291.47"/>
</g>
<!-- n5 -->
<g id="node10" class="node">
<title>n5</title>
<ellipse fill="none" stroke="black" cx="575.97" cy="-148.43" rx="185.94" ry="37.45"/>
<text text-anchor="middle" x="575.97" y="-159.73" font-family="Times,serif" font-size="14.00">cada</text>
<text text-anchor="middle" x="575.97" y="-144.73" font-family="Times,serif" font-size="14.00">di0cs0 (det)</text>
<text text-anchor="middle" x="575.97" y="-129.73" font-family="Times,serif" font-size="14.00">rep=no, t=no, r=no, m=yes, c=no</text>
</g>
<!-- n6&#45;&gt;n5 -->
<g id="edge9" class="edge">
<title>n6&#45;&gt;n5</title>
<path fill="none" stroke="black" d="M575.97,-221.8C575.97,-213.63 575.97,-204.85 575.97,-196.32"/>
<polygon fill="black" stroke="black" points="579.47,-196.1 575.97,-186.1 572.47,-196.1 579.47,-196.1"/>
</g>
<!-- n8 -->
<g id="node11" class="node">
<title>n8</title>
<ellipse fill="none" stroke="black" cx="970.97" cy="-148.43" rx="185.94" ry="37.45"/>
<text text-anchor="middle" x="970.97" y="-159.73" font-family="Times,serif" font-size="14.00">Jack</text>
<text text-anchor="middle" x="970.97" y="-144.73" font-family="Times,serif" font-size="14.00">ncms000 (appos)</text>
<text text-anchor="middle" x="970.97" y="-129.73" font-family="Times,serif" font-size="14.00">rep=no, t=no, r=no, m=yes, c=no</text>
</g>
<!-- n7&#45;&gt;n8 -->
<g id="edge10" class="edge">
<title>n7&#45;&gt;n8</title>
<path fill="none" stroke="black" d="M970.97,-221.8C970.97,-213.63 970.97,-204.85 970.97,-196.32"/>
<polygon fill="black" stroke="black" points="974.47,-196.1 970.97,-186.1 967.47,-196.1 974.47,-196.1"/>
</g>
<!-- n12 -->
<g id="node13" class="node">
<title>n12</title>
<ellipse fill="none" stroke="black" cx="1760.97" cy="-148.43" rx="185.94" ry="37.45"/>
<text text-anchor="middle" x="1760.97" y="-159.73" font-family="Times,serif" font-size="14.00">tonk</text>
<text text-anchor="middle" x="1760.97" y="-144.73" font-family="Times,serif" font-size="14.00">ncms000 (appos)</text>
<text text-anchor="middle" x="1760.97" y="-129.73" font-family="Times,serif" font-size="14.00">rep=no, t=no, r=no, m=yes, c=no</text>
</g>
<!-- n11&#45;&gt;n12 -->
<g id="edge12" class="edge">
<title>n11&#45;&gt;n12</title>
<path fill="none" stroke="black" d="M1760.97,-221.8C1760.97,-213.63 1760.97,-204.85 1760.97,-196.32"/>
<polygon fill="black" stroke="black" points="1764.47,-196.1 1760.97,-186.1 1757.47,-196.1 1764.47,-196.1"/>
</g>
<!-- n9 -->
<g id="node12" class="node">
<title>n9</title>
<ellipse fill="none" stroke="black" cx="970.97" cy="-37.48" rx="185.94" ry="37.45"/>
<text text-anchor="middle" x="970.97" y="-48.78" font-family="Times,serif" font-size="14.00">Flash</text>
<text text-anchor="middle" x="970.97" y="-33.78" font-family="Times,serif" font-size="14.00">np00000 (appos)</text>
<text text-anchor="middle" x="970.97" y="-18.78" font-family="Times,serif" font-size="14.00">rep=no, t=no, r=no, m=yes, c=no</text>
</g>
<!-- n8&#45;&gt;n9 -->
<g id="edge11" class="edge">
<title>n8&#45;&gt;n9</title>
<path fill="none" stroke="black" d="M970.97,-110.85C970.97,-102.67 970.97,-93.89 970.97,-85.37"/>
<polygon fill="black" stroke="black" points="974.47,-85.15 970.97,-75.15 967.47,-85.15 974.47,-85.15"/>
</g>
<!-- n13 -->
<g id="node14" class="node">
<title>n13</title>
<ellipse fill="none" stroke="black" cx="1760.97" cy="-37.48" rx="185.94" ry="37.45"/>
<text text-anchor="middle" x="1760.97" y="-48.78" font-family="Times,serif" font-size="14.00">woman</text>
<text text-anchor="middle" x="1760.97" y="-33.78" font-family="Times,serif" font-size="14.00">np00000 (appos)</text>
<text text-anchor="middle" x="1760.97" y="-18.78" font-family="Times,serif" font-size="14.00">rep=no, t=no, r=no, m=yes, c=no</text>
</g>
<!-- n12&#45;&gt;n13 -->
<g id="edge13" class="edge">
<title>n12&#45;&gt;n13</title>
<path fill="none" stroke="black" d="M1760.97,-110.85C1760.97,-102.67 1760.97,-93.89 1760.97,-85.37"/>
<polygon fill="black" stroke="black" points="1764.47,-85.15 1760.97,-75.15 1757.47,-85.15 1764.47,-85.15"/>
</g>
</g>
</svg>
