<?xml version="1.0" encoding="UTF-8" standalone="no"?>
<!DOCTYPE svg PUBLIC "-//W3C//DTD SVG 1.1//EN"
 "http://www.w3.org/Graphics/SVG/1.1/DTD/svg11.dtd">
<!-- Generated by graphviz version 2.43.0 (0)
 -->
<!-- Title: tree Pages: 1 -->
<svg width="2740pt" height="638pt"
 viewBox="0.00 0.00 2739.89 637.72" xmlns="http://www.w3.org/2000/svg" xmlns:xlink="http://www.w3.org/1999/xlink">
<g id="graph0" class="graph" transform="scale(1 1) rotate(0) translate(4 633.72)">
<title>tree</title>
<polygon fill="white" stroke="transparent" points="-4,4 -4,-633.72 2735.89,-633.72 2735.89,4 -4,4"/>
<!-- n6 -->
<g id="node1" class="node">
<title>n6</title>
<ellipse fill="none" stroke="black" cx="1552.97" cy="-592.24" rx="185.94" ry="37.45"/>
<text text-anchor="middle" x="1552.97" y="-603.54" font-family="Times,serif" font-size="14.00">y</text>
<text text-anchor="middle" x="1552.97" y="-588.54" font-family="Times,serif" font-size="14.00">cc (root)</text>
<text text-anchor="middle" x="1552.97" y="-573.54" font-family="Times,serif" font-size="14.00">rep=no, t=no, r=no, m=yes, c=no</text>
</g>
<!-- n1 -->
<g id="node2" class="node">
<title>n1</title>
<ellipse fill="none" stroke="black" cx="575.97" cy="-481.29" rx="185.94" ry="37.45"/>
<text text-anchor="middle" x="575.97" y="-492.59" font-family="Times,serif" font-size="14.00">Vendré</text>
<text text-anchor="middle" x="575.97" y="-477.59" font-family="Times,serif" font-size="14.00">vmif1s0 (coord)</text>
<text text-anchor="middle" x="575.97" y="-462.59" font-family="Times,serif" font-size="14.00">rep=no, t=no, r=no, m=yes, c=no</text>
</g>
<!-- n6&#45;&gt;n1 -->
<g id="edge1" class="edge">
<title>n6&#45;&gt;n1</title>
<path fill="none" stroke="black" d="M1392.18,-573.31C1214.36,-553.48 929,-521.66 747.12,-501.38"/>
<polygon fill="black" stroke="black" points="747.24,-497.87 736.92,-500.24 746.47,-504.83 747.24,-497.87"/>
</g>
<!-- n8 -->
<g id="node3" class="node">
<title>n8</title>
<ellipse fill="none" stroke="black" cx="1552.97" cy="-481.29" rx="185.94" ry="37.45"/>
<text text-anchor="middle" x="1552.97" y="-492.59" font-family="Times,serif" font-size="14.00">pare</text>
<text text-anchor="middle" x="1552.97" y="-477.59" font-family="Times,serif" font-size="14.00">vmip3s0 (coord)</text>
<text text-anchor="middle" x="1552.97" y="-462.59" font-family="Times,serif" font-size="14.00">rep=no, t=no, r=no, m=yes, c=no</text>
</g>
<!-- n6&#45;&gt;n8 -->
<g id="edge2" class="edge">
<title>n6&#45;&gt;n8</title>
<path fill="none" stroke="black" d="M1552.97,-554.66C1552.97,-546.49 1552.97,-537.71 1552.97,-529.18"/>
<polygon fill="black" stroke="black" points="1556.47,-528.96 1552.97,-518.96 1549.47,-528.96 1556.47,-528.96"/>
</g>
<!-- n18 -->
<g id="node4" class="node">
<title>n18</title>
<ellipse fill="none" stroke="black" cx="1938.97" cy="-481.29" rx="181.95" ry="37.45"/>
<text text-anchor="middle" x="1938.97" y="-492.59" font-family="Times,serif" font-size="14.00">.</text>
<text text-anchor="middle" x="1938.97" y="-477.59" font-family="Times,serif" font-size="14.00">fp (punct)</text>
<text text-anchor="middle" x="1938.97" y="-462.59" font-family="Times,serif" font-size="14.00">rep=no, t=no, r=no, m=no, c=no</text>
</g>
<!-- n6&#45;&gt;n18 -->
<g id="edge3" class="edge">
<title>n6&#45;&gt;n18</title>
<path fill="none" stroke="black" d="M1658.7,-561.4C1709.97,-546.93 1771.65,-529.52 1824.08,-514.72"/>
<polygon fill="black" stroke="black" points="1825.08,-518.07 1833.75,-511.99 1823.18,-511.34 1825.08,-518.07"/>
</g>
<!-- n2 -->
<g id="node5" class="node">
<title>n2</title>
<ellipse fill="none" stroke="black" cx="185.97" cy="-370.34" rx="185.94" ry="37.45"/>
<text text-anchor="middle" x="185.97" y="-381.64" font-family="Times,serif" font-size="14.00">en</text>
<text text-anchor="middle" x="185.97" y="-366.64" font-family="Times,serif" font-size="14.00">sps00 (prepv)</text>
<text text-anchor="middle" x="185.97" y="-351.64" font-family="Times,serif" font-size="14.00">rep=no, t=no, r=no, m=yes, c=no</text>
</g>
<!-- n1&#45;&gt;n2 -->
<g id="edge4" class="edge">
<title>n1&#45;&gt;n2</title>
<path fill="none" stroke="black" d="M469.4,-450.52C417.59,-436.05 355.23,-418.62 302.2,-403.81"/>
<polygon fill="black" stroke="black" points="302.98,-400.39 292.41,-401.07 301.1,-407.13 302.98,-400.39"/>
</g>
<!-- n4 -->
<g id="node6" class="node">
<title>n4</title>
<ellipse fill="none" stroke="black" cx="575.97" cy="-370.34" rx="185.94" ry="37.45"/>
<text text-anchor="middle" x="575.97" y="-381.64" font-family="Times,serif" font-size="14.00">desde</text>
<text text-anchor="middle" x="575.97" y="-366.64" font-family="Times,serif" font-size="14.00">sps00 (prepv)</text>
<text text-anchor="middle" x="575.97" y="-351.64" font-family="Times,serif" font-size="14.00">rep=no, t=no, r=no, m=yes, c=no</text>
</g>
<!-- n1&#45;&gt;n4 -->
<g id="edge5" class="edge">
<title>n1&#45;&gt;n4</title>
<path fill="none" stroke="black" d="M575.97,-443.71C575.97,-435.53 575.97,-426.75 575.97,-418.23"/>
<polygon fill="black" stroke="black" points="579.47,-418.01 575.97,-408.01 572.47,-418.01 579.47,-418.01"/>
</g>
<!-- n7 -->
<g id="node9" class="node">
<title>n7</title>
<ellipse fill="none" stroke="black" cx="965.97" cy="-370.34" rx="185.94" ry="37.45"/>
<text text-anchor="middle" x="965.97" y="-381.64" font-family="Times,serif" font-size="14.00">quizá</text>
<text text-anchor="middle" x="965.97" y="-366.64" font-family="Times,serif" font-size="14.00">rg (advmod)</text>
<text text-anchor="middle" x="965.97" y="-351.64" font-family="Times,serif" font-size="14.00">rep=no, t=no, r=no, m=yes, c=no</text>
</g>
<!-- n8&#45;&gt;n7 -->
<g id="edge8" class="edge">
<title>n8&#45;&gt;n7</title>
<path fill="none" stroke="black" d="M1418.25,-455.45C1342.62,-441.49 1246.53,-423.73 1160.97,-407.81 1144.41,-404.73 1127.06,-401.5 1109.83,-398.28"/>
<polygon fill="black" stroke="black" points="1110.18,-394.79 1099.71,-396.39 1108.89,-401.67 1110.18,-394.79"/>
</g>
<!-- n9 -->
<g id="node10" class="node">
<title>n9</title>
<ellipse fill="none" stroke="black" cx="1355.97" cy="-370.34" rx="185.94" ry="37.45"/>
<text text-anchor="middle" x="1355.97" y="-381.64" font-family="Times,serif" font-size="14.00">por</text>
<text text-anchor="middle" x="1355.97" y="-366.64" font-family="Times,serif" font-size="14.00">sps00 (prepv)</text>
<text text-anchor="middle" x="1355.97" y="-351.64" font-family="Times,serif" font-size="14.00">rep=no, t=no, r=no, m=yes, c=no</text>
</g>
<!-- n8&#45;&gt;n9 -->
<g id="edge9" class="edge">
<title>n8&#45;&gt;n9</title>
<path fill="none" stroke="black" d="M1490.64,-445.82C1470.42,-434.63 1447.84,-422.14 1427.03,-410.64"/>
<polygon fill="black" stroke="black" points="1428.68,-407.55 1418.23,-405.77 1425.29,-413.68 1428.68,-407.55"/>
</g>
<!-- n11 -->
<g id="node11" class="node">
<title>n11</title>
<ellipse fill="none" stroke="black" cx="1750.97" cy="-370.34" rx="190.84" ry="37.45"/>
<text text-anchor="middle" x="1750.97" y="-381.64" font-family="Times,serif" font-size="14.00">a</text>
<text text-anchor="middle" x="1750.97" y="-366.64" font-family="Times,serif" font-size="14.00">sps00 (dep)</text>
<text text-anchor="middle" x="1750.97" y="-351.64" font-family="Times,serif" font-size="14.00">rep=no, t=no, r=no, m=yes, c=yes</text>
</g>
<!-- n8&#45;&gt;n11 -->
<g id="edge10" class="edge">
<title>n8&#45;&gt;n11</title>
<path fill="none" stroke="black" d="M1615.35,-445.97C1635.68,-434.78 1658.41,-422.27 1679.37,-410.74"/>
<polygon fill="black" stroke="black" points="1681.15,-413.75 1688.23,-405.86 1677.78,-407.62 1681.15,-413.75"/>
</g>
<!-- n13 -->
<g id="node12" class="node">
<title>n13</title>
<ellipse fill="none" stroke="black" cx="2145.97" cy="-370.34" rx="185.94" ry="37.45"/>
<text text-anchor="middle" x="2145.97" y="-381.64" font-family="Times,serif" font-size="14.00">o</text>
<text text-anchor="middle" x="2145.97" y="-366.64" font-family="Times,serif" font-size="14.00">cc (coord_fixed)</text>
<text text-anchor="middle" x="2145.97" y="-351.64" font-family="Times,serif" font-size="14.00">rep=no, t=no, r=no, m=yes, c=no</text>
</g>
<!-- n8&#45;&gt;n13 -->
<g id="edge11" class="edge">
<title>n8&#45;&gt;n13</title>
<path fill="none" stroke="black" d="M1686.42,-455.15C1707.02,-451.32 1728.06,-447.44 1747.97,-443.81 1838.12,-427.39 1860.82,-424.24 1950.97,-407.81 1967.61,-404.78 1985.04,-401.57 2002.35,-398.36"/>
<polygon fill="black" stroke="black" points="2003.33,-401.74 2012.52,-396.47 2002.05,-394.86 2003.33,-401.74"/>
</g>
<!-- n14 -->
<g id="node13" class="node">
<title>n14</title>
<ellipse fill="none" stroke="black" cx="2540.97" cy="-370.34" rx="190.84" ry="37.45"/>
<text text-anchor="middle" x="2540.97" y="-381.64" font-family="Times,serif" font-size="14.00">a</text>
<text text-anchor="middle" x="2540.97" y="-366.64" font-family="Times,serif" font-size="14.00">sps00 (dep)</text>
<text text-anchor="middle" x="2540.97" y="-351.64" font-family="Times,serif" font-size="14.00">rep=no, t=no, r=no, m=yes, c=yes</text>
</g>
<!-- n8&#45;&gt;n14 -->
<g id="edge12" class="edge">
<title>n8&#45;&gt;n14</title>
<path fill="none" stroke="black" d="M1680.85,-454.02C1703.15,-450.11 1726.18,-446.5 1747.97,-443.81 2010.02,-411.48 2078.84,-439.56 2340.97,-407.81 2360.08,-405.5 2380.12,-402.52 2399.83,-399.25"/>
<polygon fill="black" stroke="black" points="2400.51,-402.69 2409.79,-397.58 2399.35,-395.79 2400.51,-402.69"/>
</g>
<!-- n3 -->
<g id="node7" class="node">
<title>n3</title>
<ellipse fill="none" stroke="black" cx="185.97" cy="-259.38" rx="185.94" ry="37.45"/>
<text text-anchor="middle" x="185.97" y="-270.68" font-family="Times,serif" font-size="14.00">coche</text>
<text text-anchor="middle" x="185.97" y="-255.68" font-family="Times,serif" font-size="14.00">ncms000 (pobj)</text>
<text text-anchor="middle" x="185.97" y="-240.68" font-family="Times,serif" font-size="14.00">rep=no, t=no, r=no, m=yes, c=no</text>
</g>
<!-- n2&#45;&gt;n3 -->
<g id="edge6" class="edge">
<title>n2&#45;&gt;n3</title>
<path fill="none" stroke="black" d="M185.97,-332.75C185.97,-324.58 185.97,-315.8 185.97,-307.27"/>
<polygon fill="black" stroke="black" points="189.47,-307.06 185.97,-297.06 182.47,-307.06 189.47,-307.06"/>
</g>
<!-- n5 -->
<g id="node8" class="node">
<title>n5</title>
<ellipse fill="none" stroke="black" cx="575.97" cy="-259.38" rx="185.94" ry="37.45"/>
<text text-anchor="middle" x="575.97" y="-270.68" font-family="Times,serif" font-size="14.00">Montreaux</text>
<text text-anchor="middle" x="575.97" y="-255.68" font-family="Times,serif" font-size="14.00">np00000 (pobj)</text>
<text text-anchor="middle" x="575.97" y="-240.68" font-family="Times,serif" font-size="14.00">rep=no, t=no, r=no, m=yes, c=no</text>
</g>
<!-- n4&#45;&gt;n5 -->
<g id="edge7" class="edge">
<title>n4&#45;&gt;n5</title>
<path fill="none" stroke="black" d="M575.97,-332.75C575.97,-324.58 575.97,-315.8 575.97,-307.27"/>
<polygon fill="black" stroke="black" points="579.47,-307.06 575.97,-297.06 572.47,-307.06 579.47,-307.06"/>
</g>
<!-- n10 -->
<g id="node14" class="node">
<title>n10</title>
<ellipse fill="none" stroke="black" cx="1355.97" cy="-259.38" rx="185.94" ry="37.45"/>
<text text-anchor="middle" x="1355.97" y="-270.68" font-family="Times,serif" font-size="14.00">ahí</text>
<text text-anchor="middle" x="1355.97" y="-255.68" font-family="Times,serif" font-size="14.00">rg (advmod)</text>
<text text-anchor="middle" x="1355.97" y="-240.68" font-family="Times,serif" font-size="14.00">rep=no, t=no, r=no, m=yes, c=no</text>
</g>
<!-- n9&#45;&gt;n10 -->
<g id="edge13" class="edge">
<title>n9&#45;&gt;n10</title>
<path fill="none" stroke="black" d="M1355.97,-332.75C1355.97,-324.58 1355.97,-315.8 1355.97,-307.27"/>
<polygon fill="black" stroke="black" points="1359.47,-307.06 1355.97,-297.06 1352.47,-307.06 1359.47,-307.06"/>
</g>
<!-- n12 -->
<g id="node15" class="node">
<title>n12</title>
<ellipse fill="none" stroke="black" cx="1750.97" cy="-259.38" rx="185.94" ry="37.45"/>
<text text-anchor="middle" x="1750.97" y="-270.68" font-family="Times,serif" font-size="14.00">comer</text>
<text text-anchor="middle" x="1750.97" y="-255.68" font-family="Times,serif" font-size="14.00">vmn0000 (pobj)</text>
<text text-anchor="middle" x="1750.97" y="-240.68" font-family="Times,serif" font-size="14.00">rep=no, t=no, r=no, m=yes, c=no</text>
</g>
<!-- n11&#45;&gt;n12 -->
<g id="edge14" class="edge">
<title>n11&#45;&gt;n12</title>
<path fill="none" stroke="black" d="M1750.97,-332.75C1750.97,-324.58 1750.97,-315.8 1750.97,-307.27"/>
<polygon fill="black" stroke="black" points="1754.47,-307.06 1750.97,-297.06 1747.47,-307.06 1754.47,-307.06"/>
</g>
<!-- n15 -->
<g id="node16" class="node">
<title>n15</title>
<ellipse fill="none" stroke="black" cx="2540.97" cy="-259.38" rx="185.94" ry="37.45"/>
<text text-anchor="middle" x="2540.97" y="-270.68" font-family="Times,serif" font-size="14.00">ver</text>
<text text-anchor="middle" x="2540.97" y="-255.68" font-family="Times,serif" font-size="14.00">vmn0000 (pobj)</text>
<text text-anchor="middle" x="2540.97" y="-240.68" font-family="Times,serif" font-size="14.00">rep=no, t=no, r=no, m=yes, c=no</text>
</g>
<!-- n14&#45;&gt;n15 -->
<g id="edge15" class="edge">
<title>n14&#45;&gt;n15</title>
<path fill="none" stroke="black" d="M2540.97,-332.75C2540.97,-324.58 2540.97,-315.8 2540.97,-307.27"/>
<polygon fill="black" stroke="black" points="2544.47,-307.06 2540.97,-297.06 2537.47,-307.06 2544.47,-307.06"/>
</g>
<!-- n17 -->
<g id="node17" class="node">
<title>n17</title>
<ellipse fill="none" stroke="black" cx="2540.97" cy="-148.43" rx="185.94" ry="37.45"/>
<text text-anchor="middle" x="2540.97" y="-159.73" font-family="Times,serif" font-size="14.00">cosa</text>
<text text-anchor="middle" x="2540.97" y="-144.73" font-family="Times,serif" font-size="14.00">ncfs000 (dobj)</text>
<text text-anchor="middle" x="2540.97" y="-129.73" font-family="Times,serif" font-size="14.00">rep=no, t=no, r=no, m=yes, c=no</text>
</g>
<!-- n15&#45;&gt;n17 -->
<g id="edge16" class="edge">
<title>n15&#45;&gt;n17</title>
<path fill="none" stroke="black" d="M2540.97,-221.8C2540.97,-213.63 2540.97,-204.85 2540.97,-196.32"/>
<polygon fill="black" stroke="black" points="2544.47,-196.1 2540.97,-186.1 2537.47,-196.1 2544.47,-196.1"/>
</g>
<!-- n16 -->
<g id="node18" class="node">
<title>n16</title>
<ellipse fill="none" stroke="black" cx="2540.97" cy="-37.48" rx="185.94" ry="37.45"/>
<text text-anchor="middle" x="2540.97" y="-48.78" font-family="Times,serif" font-size="14.00">alguna</text>
<text text-anchor="middle" x="2540.97" y="-33.78" font-family="Times,serif" font-size="14.00">di0fs0 (det)</text>
<text text-anchor="middle" x="2540.97" y="-18.78" font-family="Times,serif" font-size="14.00">rep=no, t=no, r=no, m=yes, c=no</text>
</g>
<!-- n17&#45;&gt;n16 -->
<g id="edge17" class="edge">
<title>n17&#45;&gt;n16</title>
<path fill="none" stroke="black" d="M2540.97,-110.85C2540.97,-102.67 2540.97,-93.89 2540.97,-85.37"/>
<polygon fill="black" stroke="black" points="2544.47,-85.15 2540.97,-75.15 2537.47,-85.15 2544.47,-85.15"/>
</g>
</g>
</svg>
