<?xml version="1.0" encoding="UTF-8" standalone="no"?>
<!DOCTYPE svg PUBLIC "-//W3C//DTD SVG 1.1//EN"
 "http://www.w3.org/Graphics/SVG/1.1/DTD/svg11.dtd">
<!-- Generated by graphviz version 2.43.0 (0)
 -->
<!-- Title: tree Pages: 1 -->
<svg width="2350pt" height="527pt"
 viewBox="0.00 0.00 2349.89 526.77" xmlns="http://www.w3.org/2000/svg" xmlns:xlink="http://www.w3.org/1999/xlink">
<g id="graph0" class="graph" transform="scale(1 1) rotate(0) translate(4 522.77)">
<title>tree</title>
<polygon fill="white" stroke="transparent" points="-4,4 -4,-522.77 2345.89,-522.77 2345.89,4 -4,4"/>
<!-- n7 -->
<g id="node1" class="node">
<title>n7</title>
<ellipse fill="none" stroke="black" cx="1473.92" cy="-481.29" rx="185.94" ry="37.45"/>
<text text-anchor="middle" x="1473.92" y="-492.59" font-family="Times,serif" font-size="14.00">y</text>
<text text-anchor="middle" x="1473.92" y="-477.59" font-family="Times,serif" font-size="14.00">cc (root)</text>
<text text-anchor="middle" x="1473.92" y="-462.59" font-family="Times,serif" font-size="14.00">rep=no, t=no, r=no, m=yes, c=no</text>
</g>
<!-- n3 -->
<g id="node2" class="node">
<title>n3</title>
<ellipse fill="#DA79E8" stroke="black" cx="881.92" cy="-370.34" rx="190.84" ry="37.45"/>
<text text-anchor="middle" x="881.92" y="-381.64" font-family="Times,serif" font-size="14.00">tengo</text>
<text text-anchor="middle" x="881.92" y="-366.64" font-family="Times,serif" font-size="14.00">vmip1s0 (coord)</text>
<text text-anchor="middle" x="881.92" y="-351.64" font-family="Times,serif" font-size="14.00">rep=no, t=no, r=yes, m=yes, c=no</text>
</g>
<!-- n7&#45;&gt;n3 -->
<g id="edge1" class="edge">
<title>n7&#45;&gt;n3</title>
<path fill="none" stroke="black" d="M1338.84,-455.43C1246.31,-438.4 1123.63,-415.82 1028.69,-398.35"/>
<polygon fill="black" stroke="black" points="1029.19,-394.88 1018.72,-396.51 1027.92,-401.77 1029.19,-394.88"/>
</g>
<!-- n9 -->
<g id="node3" class="node">
<title>n9</title>
<ellipse fill="none" stroke="black" cx="1473.92" cy="-370.34" rx="185.94" ry="37.45"/>
<text text-anchor="middle" x="1473.92" y="-381.64" font-family="Times,serif" font-size="14.00">cambiaría</text>
<text text-anchor="middle" x="1473.92" y="-366.64" font-family="Times,serif" font-size="14.00">vmic3s0 (coord)</text>
<text text-anchor="middle" x="1473.92" y="-351.64" font-family="Times,serif" font-size="14.00">rep=no, t=no, r=no, m=yes, c=no</text>
</g>
<!-- n7&#45;&gt;n9 -->
<g id="edge2" class="edge">
<title>n7&#45;&gt;n9</title>
<path fill="none" stroke="black" d="M1473.92,-443.71C1473.92,-435.53 1473.92,-426.75 1473.92,-418.23"/>
<polygon fill="black" stroke="black" points="1477.42,-418.01 1473.92,-408.01 1470.42,-418.01 1477.42,-418.01"/>
</g>
<!-- n13 -->
<g id="node4" class="node">
<title>n13</title>
<ellipse fill="none" stroke="black" cx="1859.92" cy="-370.34" rx="181.95" ry="37.45"/>
<text text-anchor="middle" x="1859.92" y="-381.64" font-family="Times,serif" font-size="14.00">.</text>
<text text-anchor="middle" x="1859.92" y="-366.64" font-family="Times,serif" font-size="14.00">fp (punct)</text>
<text text-anchor="middle" x="1859.92" y="-351.64" font-family="Times,serif" font-size="14.00">rep=no, t=no, r=no, m=no, c=no</text>
</g>
<!-- n7&#45;&gt;n13 -->
<g id="edge3" class="edge">
<title>n7&#45;&gt;n13</title>
<path fill="none" stroke="black" d="M1579.65,-450.45C1630.92,-435.97 1692.6,-418.56 1745.03,-403.77"/>
<polygon fill="black" stroke="black" points="1746.03,-407.12 1754.7,-401.03 1744.13,-400.38 1746.03,-407.12"/>
</g>
<!-- n1 -->
<g id="node5" class="node">
<title>n1</title>
<ellipse fill="#BEDA48" stroke="black" cx="190.92" cy="-259.38" rx="190.84" ry="37.45"/>
<text text-anchor="middle" x="190.92" y="-270.68" font-family="Times,serif" font-size="14.00">Yo</text>
<text text-anchor="middle" x="190.92" y="-255.68" font-family="Times,serif" font-size="14.00">pp1csn00 (nsubj)</text>
<text text-anchor="middle" x="190.92" y="-240.68" font-family="Times,serif" font-size="14.00">rep=no, t=yes, r=no, m=yes, c=no</text>
</g>
<!-- n3&#45;&gt;n1 -->
<g id="edge4" class="edge">
<title>n3&#45;&gt;n1</title>
<path fill="none" stroke="black" d="M728.28,-348.02C631.38,-334.24 503.67,-315.46 390.92,-296.86 373.28,-293.95 354.79,-290.76 336.48,-287.53"/>
<polygon fill="black" stroke="black" points="337.09,-284.08 326.64,-285.78 335.87,-290.97 337.09,-284.08"/>
</g>
<!-- n2 -->
<g id="node6" class="node">
<title>n2</title>
<ellipse fill="none" stroke="black" cx="585.92" cy="-259.38" rx="185.94" ry="37.45"/>
<text text-anchor="middle" x="585.92" y="-270.68" font-family="Times,serif" font-size="14.00">ahora</text>
<text text-anchor="middle" x="585.92" y="-255.68" font-family="Times,serif" font-size="14.00">rg (advmod)</text>
<text text-anchor="middle" x="585.92" y="-240.68" font-family="Times,serif" font-size="14.00">rep=no, t=no, r=no, m=yes, c=no</text>
</g>
<!-- n3&#45;&gt;n2 -->
<g id="edge5" class="edge">
<title>n3&#45;&gt;n2</title>
<path fill="none" stroke="black" d="M793.91,-336.94C758.95,-324.07 718.61,-309.22 682.81,-296.05"/>
<polygon fill="black" stroke="black" points="683.93,-292.73 673.33,-292.56 681.51,-299.3 683.93,-292.73"/>
</g>
<!-- n4 -->
<g id="node7" class="node">
<title>n4</title>
<ellipse fill="#DA79E8" stroke="black" cx="980.92" cy="-259.38" rx="190.84" ry="37.45"/>
<text text-anchor="middle" x="980.92" y="-270.68" font-family="Times,serif" font-size="14.00">a</text>
<text text-anchor="middle" x="980.92" y="-255.68" font-family="Times,serif" font-size="14.00">sps00 (dobj)</text>
<text text-anchor="middle" x="980.92" y="-240.68" font-family="Times,serif" font-size="14.00">rep=no, t=no, r=yes, m=yes, c=no</text>
</g>
<!-- n3&#45;&gt;n4 -->
<g id="edge6" class="edge">
<title>n3&#45;&gt;n4</title>
<path fill="none" stroke="black" d="M914.61,-333.36C923.14,-323.97 932.43,-313.75 941.28,-304.01"/>
<polygon fill="black" stroke="black" points="944.13,-306.08 948.26,-296.32 938.95,-301.37 944.13,-306.08"/>
</g>
<!-- n8 -->
<g id="node10" class="node">
<title>n8</title>
<ellipse fill="none" stroke="black" cx="1375.92" cy="-259.38" rx="185.94" ry="37.45"/>
<text text-anchor="middle" x="1375.92" y="-270.68" font-family="Times,serif" font-size="14.00">no</text>
<text text-anchor="middle" x="1375.92" y="-255.68" font-family="Times,serif" font-size="14.00">rn (neg)</text>
<text text-anchor="middle" x="1375.92" y="-240.68" font-family="Times,serif" font-size="14.00">rep=no, t=no, r=no, m=yes, c=no</text>
</g>
<!-- n9&#45;&gt;n8 -->
<g id="edge9" class="edge">
<title>n9&#45;&gt;n8</title>
<path fill="none" stroke="black" d="M1441.56,-333.36C1433.11,-323.97 1423.92,-313.75 1415.16,-304.01"/>
<polygon fill="black" stroke="black" points="1417.54,-301.42 1408.25,-296.32 1412.33,-306.1 1417.54,-301.42"/>
</g>
<!-- n10 -->
<g id="node11" class="node">
<title>n10</title>
<ellipse fill="none" stroke="black" cx="1765.92" cy="-259.38" rx="185.94" ry="37.45"/>
<text text-anchor="middle" x="1765.92" y="-270.68" font-family="Times,serif" font-size="14.00">eso</text>
<text text-anchor="middle" x="1765.92" y="-255.68" font-family="Times,serif" font-size="14.00">pd0ns000 (dobj)</text>
<text text-anchor="middle" x="1765.92" y="-240.68" font-family="Times,serif" font-size="14.00">rep=no, t=no, r=no, m=yes, c=no</text>
</g>
<!-- n9&#45;&gt;n10 -->
<g id="edge10" class="edge">
<title>n9&#45;&gt;n10</title>
<path fill="none" stroke="black" d="M1560.34,-337.09C1594.85,-324.22 1634.71,-309.34 1670.09,-296.14"/>
<polygon fill="black" stroke="black" points="1671.32,-299.42 1679.46,-292.64 1668.87,-292.86 1671.32,-299.42"/>
</g>
<!-- n11 -->
<g id="node12" class="node">
<title>n11</title>
<ellipse fill="none" stroke="black" cx="2155.92" cy="-259.38" rx="185.94" ry="37.45"/>
<text text-anchor="middle" x="2155.92" y="-270.68" font-family="Times,serif" font-size="14.00">por</text>
<text text-anchor="middle" x="2155.92" y="-255.68" font-family="Times,serif" font-size="14.00">sps00 (prepv)</text>
<text text-anchor="middle" x="2155.92" y="-240.68" font-family="Times,serif" font-size="14.00">rep=no, t=no, r=no, m=yes, c=no</text>
</g>
<!-- n9&#45;&gt;n11 -->
<g id="edge11" class="edge">
<title>n9&#45;&gt;n11</title>
<path fill="none" stroke="black" d="M1604.84,-343.69C1626.22,-339.83 1648.16,-336.08 1668.92,-332.86 1798.14,-312.83 1831.7,-316.89 1960.92,-296.86 1978.44,-294.14 1996.79,-291.05 2014.94,-287.83"/>
<polygon fill="black" stroke="black" points="2015.77,-291.24 2025,-286.03 2014.54,-284.35 2015.77,-291.24"/>
</g>
<!-- n6 -->
<g id="node8" class="node">
<title>n6</title>
<ellipse fill="#DA79E8" stroke="black" cx="980.92" cy="-148.43" rx="190.84" ry="37.45"/>
<text text-anchor="middle" x="980.92" y="-159.73" font-family="Times,serif" font-size="14.00">hijas</text>
<text text-anchor="middle" x="980.92" y="-144.73" font-family="Times,serif" font-size="14.00">ncfp000 (pobj)</text>
<text text-anchor="middle" x="980.92" y="-129.73" font-family="Times,serif" font-size="14.00">rep=no, t=no, r=yes, m=yes, c=no</text>
</g>
<!-- n4&#45;&gt;n6 -->
<g id="edge7" class="edge">
<title>n4&#45;&gt;n6</title>
<path fill="none" stroke="black" d="M980.92,-221.8C980.92,-213.63 980.92,-204.85 980.92,-196.32"/>
<polygon fill="black" stroke="black" points="984.42,-196.1 980.92,-186.1 977.42,-196.1 984.42,-196.1"/>
</g>
<!-- n5 -->
<g id="node9" class="node">
<title>n5</title>
<ellipse fill="#DA79E8" stroke="black" cx="980.92" cy="-37.48" rx="190.84" ry="37.45"/>
<text text-anchor="middle" x="980.92" y="-48.78" font-family="Times,serif" font-size="14.00">mis</text>
<text text-anchor="middle" x="980.92" y="-33.78" font-family="Times,serif" font-size="14.00">dp1cps (poss)</text>
<text text-anchor="middle" x="980.92" y="-18.78" font-family="Times,serif" font-size="14.00">rep=no, t=no, r=yes, m=yes, c=no</text>
</g>
<!-- n6&#45;&gt;n5 -->
<g id="edge8" class="edge">
<title>n6&#45;&gt;n5</title>
<path fill="none" stroke="black" d="M980.92,-110.85C980.92,-102.67 980.92,-93.89 980.92,-85.37"/>
<polygon fill="black" stroke="black" points="984.42,-85.15 980.92,-75.15 977.42,-85.15 984.42,-85.15"/>
</g>
<!-- n12 -->
<g id="node13" class="node">
<title>n12</title>
<ellipse fill="none" stroke="black" cx="2155.92" cy="-148.43" rx="185.94" ry="37.45"/>
<text text-anchor="middle" x="2155.92" y="-159.73" font-family="Times,serif" font-size="14.00">nada</text>
<text text-anchor="middle" x="2155.92" y="-144.73" font-family="Times,serif" font-size="14.00">pi0cs000 (pobj)</text>
<text text-anchor="middle" x="2155.92" y="-129.73" font-family="Times,serif" font-size="14.00">rep=no, t=no, r=no, m=yes, c=no</text>
</g>
<!-- n11&#45;&gt;n12 -->
<g id="edge12" class="edge">
<title>n11&#45;&gt;n12</title>
<path fill="none" stroke="black" d="M2155.92,-221.8C2155.92,-213.63 2155.92,-204.85 2155.92,-196.32"/>
<polygon fill="black" stroke="black" points="2159.42,-196.1 2155.92,-186.1 2152.42,-196.1 2159.42,-196.1"/>
</g>
</g>
</svg>
