<?xml version="1.0" encoding="UTF-8" standalone="no"?>
<!DOCTYPE svg PUBLIC "-//W3C//DTD SVG 1.1//EN"
 "http://www.w3.org/Graphics/SVG/1.1/DTD/svg11.dtd">
<!-- Generated by graphviz version 2.43.0 (0)
 -->
<!-- Title: tree Pages: 1 -->
<svg width="4191pt" height="527pt"
 viewBox="0.00 0.00 4191.45 526.77" xmlns="http://www.w3.org/2000/svg" xmlns:xlink="http://www.w3.org/1999/xlink">
<g id="graph0" class="graph" transform="scale(1 1) rotate(0) translate(4 522.77)">
<title>tree</title>
<polygon fill="white" stroke="transparent" points="-4,4 -4,-522.77 4187.45,-522.77 4187.45,4 -4,4"/>
<!-- n8 -->
<g id="node1" class="node">
<title>n8</title>
<ellipse fill="none" stroke="black" cx="2091.73" cy="-481.29" rx="181.95" ry="37.45"/>
<text text-anchor="middle" x="2091.73" y="-492.59" font-family="Times,serif" font-size="14.00">cree</text>
<text text-anchor="middle" x="2091.73" y="-477.59" font-family="Times,serif" font-size="14.00">vmip3s0 (root)</text>
<text text-anchor="middle" x="2091.73" y="-462.59" font-family="Times,serif" font-size="14.00">rep=no, t=no, r=no, m=no, c=no</text>
</g>
<!-- n1 -->
<g id="node2" class="node">
<title>n1</title>
<ellipse fill="none" stroke="black" cx="181.73" cy="-370.34" rx="181.95" ry="37.45"/>
<text text-anchor="middle" x="181.73" y="-381.64" font-family="Times,serif" font-size="14.00">&#45;</text>
<text text-anchor="middle" x="181.73" y="-366.64" font-family="Times,serif" font-size="14.00">fg (punct)</text>
<text text-anchor="middle" x="181.73" y="-351.64" font-family="Times,serif" font-size="14.00">rep=no, t=no, r=no, m=no, c=no</text>
</g>
<!-- n8&#45;&gt;n1 -->
<g id="edge1" class="edge">
<title>n8&#45;&gt;n1</title>
<path fill="none" stroke="black" d="M1911.77,-476.07C1533.27,-466.66 665.54,-442.02 371.73,-407.81 353.49,-405.69 334.37,-402.81 315.58,-399.59"/>
<polygon fill="black" stroke="black" points="315.95,-396.1 305.5,-397.83 314.74,-403 315.95,-396.1"/>
</g>
<!-- n2 -->
<g id="node3" class="node">
<title>n2</title>
<ellipse fill="none" stroke="black" cx="562.73" cy="-370.34" rx="181.95" ry="37.45"/>
<text text-anchor="middle" x="562.73" y="-381.64" font-family="Times,serif" font-size="14.00">&#45;</text>
<text text-anchor="middle" x="562.73" y="-366.64" font-family="Times,serif" font-size="14.00">fg (punct)</text>
<text text-anchor="middle" x="562.73" y="-351.64" font-family="Times,serif" font-size="14.00">rep=no, t=no, r=no, m=no, c=no</text>
</g>
<!-- n8&#45;&gt;n2 -->
<g id="edge2" class="edge">
<title>n8&#45;&gt;n2</title>
<path fill="none" stroke="black" d="M1910.47,-478.26C1652.44,-473.61 1164.77,-458.28 752.73,-407.81 734.64,-405.6 715.69,-402.68 697.05,-399.47"/>
<polygon fill="black" stroke="black" points="697.49,-395.99 687.03,-397.7 696.27,-402.88 697.49,-395.99"/>
</g>
<!-- n3 -->
<g id="node4" class="node">
<title>n3</title>
<ellipse fill="none" stroke="black" cx="943.73" cy="-370.34" rx="181.95" ry="37.45"/>
<text text-anchor="middle" x="943.73" y="-381.64" font-family="Times,serif" font-size="14.00">Hablando</text>
<text text-anchor="middle" x="943.73" y="-366.64" font-family="Times,serif" font-size="14.00">vmg0000 (dobj)</text>
<text text-anchor="middle" x="943.73" y="-351.64" font-family="Times,serif" font-size="14.00">rep=no, t=no, r=no, m=no, c=no</text>
</g>
<!-- n8&#45;&gt;n3 -->
<g id="edge3" class="edge">
<title>n8&#45;&gt;n3</title>
<path fill="none" stroke="black" d="M1914.53,-472.95C1721.77,-463.55 1404.87,-443.98 1133.73,-407.81 1115.95,-405.44 1097.32,-402.47 1078.97,-399.26"/>
<polygon fill="black" stroke="black" points="1079.56,-395.81 1069.1,-397.5 1078.34,-402.7 1079.56,-395.81"/>
</g>
<!-- n6 -->
<g id="node5" class="node">
<title>n6</title>
<ellipse fill="none" stroke="black" cx="1324.73" cy="-370.34" rx="181.95" ry="37.45"/>
<text text-anchor="middle" x="1324.73" y="-381.64" font-family="Times,serif" font-size="14.00">,</text>
<text text-anchor="middle" x="1324.73" y="-366.64" font-family="Times,serif" font-size="14.00">fc (punct)</text>
<text text-anchor="middle" x="1324.73" y="-351.64" font-family="Times,serif" font-size="14.00">rep=no, t=no, r=no, m=no, c=no</text>
</g>
<!-- n8&#45;&gt;n6 -->
<g id="edge4" class="edge">
<title>n8&#45;&gt;n6</title>
<path fill="none" stroke="black" d="M1932.76,-463.13C1816.65,-449.91 1655.57,-430.16 1514.73,-407.81 1497.88,-405.14 1480.24,-402.09 1462.79,-398.92"/>
<polygon fill="black" stroke="black" points="1463,-395.41 1452.54,-397.05 1461.74,-402.29 1463,-395.41"/>
</g>
<!-- n7 -->
<g id="node6" class="node">
<title>n7</title>
<ellipse fill="none" stroke="black" cx="1705.73" cy="-370.34" rx="181.95" ry="37.45"/>
<text text-anchor="middle" x="1705.73" y="-381.64" font-family="Times,serif" font-size="14.00">¿</text>
<text text-anchor="middle" x="1705.73" y="-366.64" font-family="Times,serif" font-size="14.00">fia (punct)</text>
<text text-anchor="middle" x="1705.73" y="-351.64" font-family="Times,serif" font-size="14.00">rep=no, t=no, r=no, m=no, c=no</text>
</g>
<!-- n8&#45;&gt;n7 -->
<g id="edge5" class="edge">
<title>n8&#45;&gt;n7</title>
<path fill="none" stroke="black" d="M1986.76,-450.66C1935.27,-436.13 1873.14,-418.59 1820.4,-403.71"/>
<polygon fill="black" stroke="black" points="1821.25,-400.31 1810.67,-400.96 1819.35,-407.04 1821.25,-400.31"/>
</g>
<!-- n9 -->
<g id="node7" class="node">
<title>n9</title>
<ellipse fill="none" stroke="black" cx="2091.73" cy="-370.34" rx="185.94" ry="37.45"/>
<text text-anchor="middle" x="2091.73" y="-381.64" font-family="Times,serif" font-size="14.00">usted</text>
<text text-anchor="middle" x="2091.73" y="-366.64" font-family="Times,serif" font-size="14.00">pp2cs00p (nsubj)</text>
<text text-anchor="middle" x="2091.73" y="-351.64" font-family="Times,serif" font-size="14.00">rep=yes, t=no, r=no, m=no, c=no</text>
</g>
<!-- n8&#45;&gt;n9 -->
<g id="edge6" class="edge">
<title>n8&#45;&gt;n9</title>
<path fill="none" stroke="black" d="M2091.73,-443.71C2091.73,-435.53 2091.73,-426.75 2091.73,-418.23"/>
<polygon fill="black" stroke="black" points="2095.23,-418.01 2091.73,-408.01 2088.23,-418.01 2095.23,-418.01"/>
</g>
<!-- n10 -->
<g id="node8" class="node">
<title>n10</title>
<ellipse fill="none" stroke="black" cx="2477.73" cy="-370.34" rx="181.95" ry="37.45"/>
<text text-anchor="middle" x="2477.73" y="-381.64" font-family="Times,serif" font-size="14.00">que</text>
<text text-anchor="middle" x="2477.73" y="-366.64" font-family="Times,serif" font-size="14.00">cs (dobj)</text>
<text text-anchor="middle" x="2477.73" y="-351.64" font-family="Times,serif" font-size="14.00">rep=no, t=no, r=no, m=no, c=no</text>
</g>
<!-- n8&#45;&gt;n10 -->
<g id="edge7" class="edge">
<title>n8&#45;&gt;n10</title>
<path fill="none" stroke="black" d="M2196.69,-450.66C2248.18,-436.13 2310.31,-418.59 2363.05,-403.71"/>
<polygon fill="black" stroke="black" points="2364.11,-407.04 2372.78,-400.96 2362.21,-400.31 2364.11,-407.04"/>
</g>
<!-- n21 -->
<g id="node9" class="node">
<title>n21</title>
<ellipse fill="none" stroke="black" cx="2858.73" cy="-370.34" rx="181.95" ry="37.45"/>
<text text-anchor="middle" x="2858.73" y="-381.64" font-family="Times,serif" font-size="14.00">?</text>
<text text-anchor="middle" x="2858.73" y="-366.64" font-family="Times,serif" font-size="14.00">fit (punct)</text>
<text text-anchor="middle" x="2858.73" y="-351.64" font-family="Times,serif" font-size="14.00">rep=no, t=no, r=no, m=no, c=no</text>
</g>
<!-- n8&#45;&gt;n21 -->
<g id="edge8" class="edge">
<title>n8&#45;&gt;n21</title>
<path fill="none" stroke="black" d="M2250.69,-463.13C2366.8,-449.91 2527.88,-430.16 2668.73,-407.81 2685.57,-405.14 2703.21,-402.09 2720.67,-398.92"/>
<polygon fill="black" stroke="black" points="2721.71,-402.29 2730.92,-397.05 2720.45,-395.41 2721.71,-402.29"/>
</g>
<!-- n22 -->
<g id="node10" class="node">
<title>n22</title>
<ellipse fill="none" stroke="black" cx="3239.73" cy="-370.34" rx="181.95" ry="37.45"/>
<text text-anchor="middle" x="3239.73" y="-381.64" font-family="Times,serif" font-size="14.00">&#45;</text>
<text text-anchor="middle" x="3239.73" y="-366.64" font-family="Times,serif" font-size="14.00">fg (punct)</text>
<text text-anchor="middle" x="3239.73" y="-351.64" font-family="Times,serif" font-size="14.00">rep=no, t=no, r=no, m=no, c=no</text>
</g>
<!-- n8&#45;&gt;n22 -->
<g id="edge9" class="edge">
<title>n8&#45;&gt;n22</title>
<path fill="none" stroke="black" d="M2268.92,-472.95C2461.68,-463.55 2778.58,-443.98 3049.73,-407.81 3067.51,-405.44 3086.14,-402.47 3104.49,-399.26"/>
<polygon fill="black" stroke="black" points="3105.12,-402.7 3114.35,-397.5 3103.89,-395.81 3105.12,-402.7"/>
</g>
<!-- n23 -->
<g id="node11" class="node">
<title>n23</title>
<ellipse fill="none" stroke="black" cx="3620.73" cy="-370.34" rx="181.95" ry="37.45"/>
<text text-anchor="middle" x="3620.73" y="-381.64" font-family="Times,serif" font-size="14.00">&#45;</text>
<text text-anchor="middle" x="3620.73" y="-366.64" font-family="Times,serif" font-size="14.00">fg (punct)</text>
<text text-anchor="middle" x="3620.73" y="-351.64" font-family="Times,serif" font-size="14.00">rep=no, t=no, r=no, m=no, c=no</text>
</g>
<!-- n8&#45;&gt;n23 -->
<g id="edge10" class="edge">
<title>n8&#45;&gt;n23</title>
<path fill="none" stroke="black" d="M2272.98,-478.26C2531.02,-473.61 3018.68,-458.28 3430.73,-407.81 3448.81,-405.6 3467.77,-402.68 3486.41,-399.47"/>
<polygon fill="black" stroke="black" points="3487.18,-402.88 3496.42,-397.7 3485.97,-395.99 3487.18,-402.88"/>
</g>
<!-- n24 -->
<g id="node12" class="node">
<title>n24</title>
<ellipse fill="none" stroke="black" cx="4001.73" cy="-370.34" rx="181.95" ry="37.45"/>
<text text-anchor="middle" x="4001.73" y="-381.64" font-family="Times,serif" font-size="14.00">.</text>
<text text-anchor="middle" x="4001.73" y="-366.64" font-family="Times,serif" font-size="14.00">fp (punct)</text>
<text text-anchor="middle" x="4001.73" y="-351.64" font-family="Times,serif" font-size="14.00">rep=no, t=no, r=no, m=no, c=no</text>
</g>
<!-- n8&#45;&gt;n24 -->
<g id="edge11" class="edge">
<title>n8&#45;&gt;n24</title>
<path fill="none" stroke="black" d="M2271.69,-476.07C2650.19,-466.66 3517.92,-442.02 3811.73,-407.81 3829.97,-405.69 3849.08,-402.81 3867.87,-399.59"/>
<polygon fill="black" stroke="black" points="3868.71,-403 3877.96,-397.83 3867.5,-396.1 3868.71,-403"/>
</g>
<!-- n4 -->
<g id="node13" class="node">
<title>n4</title>
<ellipse fill="none" stroke="black" cx="943.73" cy="-259.38" rx="181.95" ry="37.45"/>
<text text-anchor="middle" x="943.73" y="-270.68" font-family="Times,serif" font-size="14.00">de</text>
<text text-anchor="middle" x="943.73" y="-255.68" font-family="Times,serif" font-size="14.00">sps00 (oobj)</text>
<text text-anchor="middle" x="943.73" y="-240.68" font-family="Times,serif" font-size="14.00">rep=no, t=no, r=no, m=no, c=no</text>
</g>
<!-- n3&#45;&gt;n4 -->
<g id="edge12" class="edge">
<title>n3&#45;&gt;n4</title>
<path fill="none" stroke="black" d="M943.73,-332.75C943.73,-324.58 943.73,-315.8 943.73,-307.27"/>
<polygon fill="black" stroke="black" points="947.23,-307.06 943.73,-297.06 940.23,-307.06 947.23,-307.06"/>
</g>
<!-- n14 -->
<g id="node15" class="node">
<title>n14</title>
<ellipse fill="#DA79E8" stroke="black" cx="2477.73" cy="-259.38" rx="190.84" ry="37.45"/>
<text text-anchor="middle" x="2477.73" y="-270.68" font-family="Times,serif" font-size="14.00">volverán</text>
<text text-anchor="middle" x="2477.73" y="-255.68" font-family="Times,serif" font-size="14.00">vmif3p0 (cobj)</text>
<text text-anchor="middle" x="2477.73" y="-240.68" font-family="Times,serif" font-size="14.00">rep=no, t=no, r=yes, m=yes, c=no</text>
</g>
<!-- n10&#45;&gt;n14 -->
<g id="edge14" class="edge">
<title>n10&#45;&gt;n14</title>
<path fill="none" stroke="black" d="M2477.73,-332.75C2477.73,-324.58 2477.73,-315.8 2477.73,-307.27"/>
<polygon fill="black" stroke="black" points="2481.23,-307.06 2477.73,-297.06 2474.23,-307.06 2481.23,-307.06"/>
</g>
<!-- n5 -->
<g id="node14" class="node">
<title>n5</title>
<ellipse fill="none" stroke="black" cx="943.73" cy="-148.43" rx="181.95" ry="37.45"/>
<text text-anchor="middle" x="943.73" y="-159.73" font-family="Times,serif" font-size="14.00">grandezas</text>
<text text-anchor="middle" x="943.73" y="-144.73" font-family="Times,serif" font-size="14.00">ncfp000 (pobj)</text>
<text text-anchor="middle" x="943.73" y="-129.73" font-family="Times,serif" font-size="14.00">rep=no, t=no, r=no, m=no, c=no</text>
</g>
<!-- n4&#45;&gt;n5 -->
<g id="edge13" class="edge">
<title>n4&#45;&gt;n5</title>
<path fill="none" stroke="black" d="M943.73,-221.8C943.73,-213.63 943.73,-204.85 943.73,-196.32"/>
<polygon fill="black" stroke="black" points="947.23,-196.1 943.73,-186.1 940.23,-196.1 947.23,-196.1"/>
</g>
<!-- n12 -->
<g id="node16" class="node">
<title>n12</title>
<ellipse fill="#BEDA48" stroke="black" cx="1677.73" cy="-148.43" rx="190.84" ry="37.45"/>
<text text-anchor="middle" x="1677.73" y="-159.73" font-family="Times,serif" font-size="14.00">Rolling</text>
<text text-anchor="middle" x="1677.73" y="-144.73" font-family="Times,serif" font-size="14.00">np0000l (nsubj)</text>
<text text-anchor="middle" x="1677.73" y="-129.73" font-family="Times,serif" font-size="14.00">rep=no, t=yes, r=no, m=yes, c=no</text>
</g>
<!-- n14&#45;&gt;n12 -->
<g id="edge15" class="edge">
<title>n14&#45;&gt;n12</title>
<path fill="none" stroke="black" d="M2311.18,-240.99C2190.57,-227.73 2023.74,-208.02 1877.73,-185.91 1859.68,-183.17 1840.77,-180.06 1822.07,-176.82"/>
<polygon fill="black" stroke="black" points="1822.47,-173.34 1812.02,-175.07 1821.27,-180.24 1822.47,-173.34"/>
</g>
<!-- n15 -->
<g id="node17" class="node">
<title>n15</title>
<ellipse fill="#DA79E8" stroke="black" cx="2077.73" cy="-148.43" rx="190.84" ry="37.45"/>
<text text-anchor="middle" x="2077.73" y="-159.73" font-family="Times,serif" font-size="14.00">a</text>
<text text-anchor="middle" x="2077.73" y="-144.73" font-family="Times,serif" font-size="14.00">sps00 (prepv)</text>
<text text-anchor="middle" x="2077.73" y="-129.73" font-family="Times,serif" font-size="14.00">rep=no, t=no, r=yes, m=yes, c=no</text>
</g>
<!-- n14&#45;&gt;n15 -->
<g id="edge16" class="edge">
<title>n14&#45;&gt;n15</title>
<path fill="none" stroke="black" d="M2368.42,-228.61C2315.29,-214.14 2251.32,-196.71 2196.93,-181.9"/>
<polygon fill="black" stroke="black" points="2197.81,-178.51 2187.24,-179.26 2195.97,-185.27 2197.81,-178.51"/>
</g>
<!-- n16 -->
<g id="node18" class="node">
<title>n16</title>
<ellipse fill="#DA79E8" stroke="black" cx="2477.73" cy="-148.43" rx="190.84" ry="37.45"/>
<text text-anchor="middle" x="2477.73" y="-159.73" font-family="Times,serif" font-size="14.00">salir</text>
<text text-anchor="middle" x="2477.73" y="-144.73" font-family="Times,serif" font-size="14.00">vmn0000 (dobj)</text>
<text text-anchor="middle" x="2477.73" y="-129.73" font-family="Times,serif" font-size="14.00">rep=no, t=no, r=yes, m=yes, c=no</text>
</g>
<!-- n14&#45;&gt;n16 -->
<g id="edge17" class="edge">
<title>n14&#45;&gt;n16</title>
<path fill="none" stroke="black" d="M2477.73,-221.8C2477.73,-213.63 2477.73,-204.85 2477.73,-196.32"/>
<polygon fill="black" stroke="black" points="2481.23,-196.1 2477.73,-186.1 2474.23,-196.1 2481.23,-196.1"/>
</g>
<!-- n17 -->
<g id="node19" class="node">
<title>n17</title>
<ellipse fill="#DA79E8" stroke="black" cx="2877.73" cy="-148.43" rx="190.84" ry="37.45"/>
<text text-anchor="middle" x="2877.73" y="-159.73" font-family="Times,serif" font-size="14.00">de</text>
<text text-anchor="middle" x="2877.73" y="-144.73" font-family="Times,serif" font-size="14.00">sps00 (prepv)</text>
<text text-anchor="middle" x="2877.73" y="-129.73" font-family="Times,serif" font-size="14.00">rep=no, t=no, r=yes, m=yes, c=no</text>
</g>
<!-- n14&#45;&gt;n17 -->
<g id="edge18" class="edge">
<title>n14&#45;&gt;n17</title>
<path fill="none" stroke="black" d="M2587.03,-228.61C2640.16,-214.14 2704.13,-196.71 2758.52,-181.9"/>
<polygon fill="black" stroke="black" points="2759.48,-185.27 2768.21,-179.26 2757.64,-178.51 2759.48,-185.27"/>
</g>
<!-- n20 -->
<g id="node20" class="node">
<title>n20</title>
<ellipse fill="#DA79E8" stroke="black" cx="3277.73" cy="-148.43" rx="190.84" ry="37.45"/>
<text text-anchor="middle" x="3277.73" y="-159.73" font-family="Times,serif" font-size="14.00">vez</text>
<text text-anchor="middle" x="3277.73" y="-144.73" font-family="Times,serif" font-size="14.00">ncfs000 (tmod)</text>
<text text-anchor="middle" x="3277.73" y="-129.73" font-family="Times,serif" font-size="14.00">rep=no, t=no, r=yes, m=yes, c=no</text>
</g>
<!-- n14&#45;&gt;n20 -->
<g id="edge19" class="edge">
<title>n14&#45;&gt;n20</title>
<path fill="none" stroke="black" d="M2644.27,-240.99C2764.88,-227.73 2931.71,-208.02 3077.73,-185.91 3095.77,-183.17 3114.68,-180.06 3133.38,-176.82"/>
<polygon fill="black" stroke="black" points="3134.19,-180.24 3143.44,-175.07 3132.98,-173.34 3134.19,-180.24"/>
</g>
<!-- n11 -->
<g id="node21" class="node">
<title>n11</title>
<ellipse fill="#BEDA48" stroke="black" cx="1477.73" cy="-37.48" rx="190.84" ry="37.45"/>
<text text-anchor="middle" x="1477.73" y="-48.78" font-family="Times,serif" font-size="14.00">los</text>
<text text-anchor="middle" x="1477.73" y="-33.78" font-family="Times,serif" font-size="14.00">da0mp0 (det)</text>
<text text-anchor="middle" x="1477.73" y="-18.78" font-family="Times,serif" font-size="14.00">rep=no, t=yes, r=no, m=yes, c=no</text>
</g>
<!-- n12&#45;&gt;n11 -->
<g id="edge20" class="edge">
<title>n12&#45;&gt;n11</title>
<path fill="none" stroke="black" d="M1614.45,-112.96C1593.92,-101.77 1570.99,-89.28 1549.87,-77.78"/>
<polygon fill="black" stroke="black" points="1551.39,-74.62 1540.94,-72.91 1548.05,-80.77 1551.39,-74.62"/>
</g>
<!-- n13 -->
<g id="node22" class="node">
<title>n13</title>
<ellipse fill="#BEDA48" stroke="black" cx="1877.73" cy="-37.48" rx="190.84" ry="37.45"/>
<text text-anchor="middle" x="1877.73" y="-48.78" font-family="Times,serif" font-size="14.00">Stones</text>
<text text-anchor="middle" x="1877.73" y="-33.78" font-family="Times,serif" font-size="14.00">np0000l (appos)</text>
<text text-anchor="middle" x="1877.73" y="-18.78" font-family="Times,serif" font-size="14.00">rep=no, t=yes, r=no, m=yes, c=no</text>
</g>
<!-- n12&#45;&gt;n13 -->
<g id="edge21" class="edge">
<title>n12&#45;&gt;n13</title>
<path fill="none" stroke="black" d="M1741.01,-112.96C1761.54,-101.77 1784.46,-89.28 1805.58,-77.78"/>
<polygon fill="black" stroke="black" points="1807.41,-80.77 1814.51,-72.91 1804.06,-74.62 1807.41,-80.77"/>
</g>
<!-- n18 -->
<g id="node23" class="node">
<title>n18</title>
<ellipse fill="#DA79E8" stroke="black" cx="2877.73" cy="-37.48" rx="190.84" ry="37.45"/>
<text text-anchor="middle" x="2877.73" y="-48.78" font-family="Times,serif" font-size="14.00">gira</text>
<text text-anchor="middle" x="2877.73" y="-33.78" font-family="Times,serif" font-size="14.00">ncfs000 (pobj)</text>
<text text-anchor="middle" x="2877.73" y="-18.78" font-family="Times,serif" font-size="14.00">rep=no, t=no, r=yes, m=yes, c=no</text>
</g>
<!-- n17&#45;&gt;n18 -->
<g id="edge22" class="edge">
<title>n17&#45;&gt;n18</title>
<path fill="none" stroke="black" d="M2877.73,-110.85C2877.73,-102.67 2877.73,-93.89 2877.73,-85.37"/>
<polygon fill="black" stroke="black" points="2881.23,-85.15 2877.73,-75.15 2874.23,-85.15 2881.23,-85.15"/>
</g>
<!-- n19 -->
<g id="node24" class="node">
<title>n19</title>
<ellipse fill="#DA79E8" stroke="black" cx="3277.73" cy="-37.48" rx="190.84" ry="37.45"/>
<text text-anchor="middle" x="3277.73" y="-48.78" font-family="Times,serif" font-size="14.00">otra</text>
<text text-anchor="middle" x="3277.73" y="-33.78" font-family="Times,serif" font-size="14.00">di0fs0 (det)</text>
<text text-anchor="middle" x="3277.73" y="-18.78" font-family="Times,serif" font-size="14.00">rep=no, t=no, r=yes, m=yes, c=no</text>
</g>
<!-- n20&#45;&gt;n19 -->
<g id="edge23" class="edge">
<title>n20&#45;&gt;n19</title>
<path fill="none" stroke="black" d="M3277.73,-110.85C3277.73,-102.67 3277.73,-93.89 3277.73,-85.37"/>
<polygon fill="black" stroke="black" points="3281.23,-85.15 3277.73,-75.15 3274.23,-85.15 3281.23,-85.15"/>
</g>
</g>
</svg>
