<?xml version="1.0" encoding="UTF-8" standalone="no"?>
<!DOCTYPE svg PUBLIC "-//W3C//DTD SVG 1.1//EN"
 "http://www.w3.org/Graphics/SVG/1.1/DTD/svg11.dtd">
<!-- Generated by graphviz version 2.43.0 (0)
 -->
<!-- Title: tree Pages: 1 -->
<svg width="1745pt" height="416pt"
 viewBox="0.00 0.00 1744.94 415.81" xmlns="http://www.w3.org/2000/svg" xmlns:xlink="http://www.w3.org/1999/xlink">
<g id="graph0" class="graph" transform="scale(1 1) rotate(0) translate(4 411.81)">
<title>tree</title>
<polygon fill="white" stroke="transparent" points="-4,4 -4,-411.81 1740.94,-411.81 1740.94,4 -4,4"/>
<!-- n2 -->
<g id="node1" class="node">
<title>n2</title>
<ellipse fill="none" stroke="black" cx="770.97" cy="-370.34" rx="185.94" ry="37.45"/>
<text text-anchor="middle" x="770.97" y="-381.64" font-family="Times,serif" font-size="14.00">fuimos</text>
<text text-anchor="middle" x="770.97" y="-366.64" font-family="Times,serif" font-size="14.00">vmis1p0 (root)</text>
<text text-anchor="middle" x="770.97" y="-351.64" font-family="Times,serif" font-size="14.00">rep=no, t=no, r=no, m=yes, c=no</text>
</g>
<!-- n1 -->
<g id="node2" class="node">
<title>n1</title>
<ellipse fill="none" stroke="black" cx="384.97" cy="-259.38" rx="181.95" ry="37.45"/>
<text text-anchor="middle" x="384.97" y="-270.68" font-family="Times,serif" font-size="14.00">Siempre</text>
<text text-anchor="middle" x="384.97" y="-255.68" font-family="Times,serif" font-size="14.00">rg (advmod)</text>
<text text-anchor="middle" x="384.97" y="-240.68" font-family="Times,serif" font-size="14.00">rep=no, t=no, r=no, m=no, c=no</text>
</g>
<!-- n2&#45;&gt;n1 -->
<g id="edge1" class="edge">
<title>n2&#45;&gt;n1</title>
<path fill="none" stroke="black" d="M665.24,-339.49C613.97,-325.02 552.29,-307.61 499.86,-292.81"/>
<polygon fill="black" stroke="black" points="500.76,-289.43 490.18,-290.08 498.86,-296.17 500.76,-289.43"/>
</g>
<!-- n5 -->
<g id="node3" class="node">
<title>n5</title>
<ellipse fill="none" stroke="black" cx="770.97" cy="-259.38" rx="185.94" ry="37.45"/>
<text text-anchor="middle" x="770.97" y="-270.68" font-family="Times,serif" font-size="14.00">reservados</text>
<text text-anchor="middle" x="770.97" y="-255.68" font-family="Times,serif" font-size="14.00">aq0mpp (cpred)</text>
<text text-anchor="middle" x="770.97" y="-240.68" font-family="Times,serif" font-size="14.00">rep=no, t=no, r=no, m=yes, c=no</text>
</g>
<!-- n2&#45;&gt;n5 -->
<g id="edge2" class="edge">
<title>n2&#45;&gt;n5</title>
<path fill="none" stroke="black" d="M770.97,-332.75C770.97,-324.58 770.97,-315.8 770.97,-307.27"/>
<polygon fill="black" stroke="black" points="774.47,-307.06 770.97,-297.06 767.47,-307.06 774.47,-307.06"/>
</g>
<!-- n10 -->
<g id="node4" class="node">
<title>n10</title>
<ellipse fill="none" stroke="black" cx="1156.97" cy="-259.38" rx="181.95" ry="37.45"/>
<text text-anchor="middle" x="1156.97" y="-270.68" font-family="Times,serif" font-size="14.00">.</text>
<text text-anchor="middle" x="1156.97" y="-255.68" font-family="Times,serif" font-size="14.00">fp (punct)</text>
<text text-anchor="middle" x="1156.97" y="-240.68" font-family="Times,serif" font-size="14.00">rep=no, t=no, r=no, m=no, c=no</text>
</g>
<!-- n2&#45;&gt;n10 -->
<g id="edge3" class="edge">
<title>n2&#45;&gt;n10</title>
<path fill="none" stroke="black" d="M876.7,-339.49C927.97,-325.02 989.65,-307.61 1042.08,-292.81"/>
<polygon fill="black" stroke="black" points="1043.08,-296.17 1051.75,-290.08 1041.18,-289.43 1043.08,-296.17"/>
</g>
<!-- n3 -->
<g id="node5" class="node">
<title>n3</title>
<ellipse fill="none" stroke="black" cx="185.97" cy="-148.43" rx="185.94" ry="37.45"/>
<text text-anchor="middle" x="185.97" y="-159.73" font-family="Times,serif" font-size="14.00">los</text>
<text text-anchor="middle" x="185.97" y="-144.73" font-family="Times,serif" font-size="14.00">da0mp0 (det)</text>
<text text-anchor="middle" x="185.97" y="-129.73" font-family="Times,serif" font-size="14.00">rep=no, t=no, r=no, m=yes, c=no</text>
</g>
<!-- n5&#45;&gt;n3 -->
<g id="edge4" class="edge">
<title>n5&#45;&gt;n3</title>
<path fill="none" stroke="black" d="M637.23,-233.32C616.72,-229.49 595.78,-225.59 575.97,-221.91 489.32,-205.8 467.62,-202.01 380.97,-185.91 364.41,-182.83 347.06,-179.6 329.83,-176.38"/>
<polygon fill="black" stroke="black" points="330.18,-172.88 319.7,-174.49 328.89,-179.77 330.18,-172.88"/>
</g>
<!-- n4 -->
<g id="node6" class="node">
<title>n4</title>
<ellipse fill="none" stroke="black" cx="575.97" cy="-148.43" rx="185.94" ry="37.45"/>
<text text-anchor="middle" x="575.97" y="-159.73" font-family="Times,serif" font-size="14.00">más</text>
<text text-anchor="middle" x="575.97" y="-144.73" font-family="Times,serif" font-size="14.00">rg (advmod)</text>
<text text-anchor="middle" x="575.97" y="-129.73" font-family="Times,serif" font-size="14.00">rep=no, t=no, r=no, m=yes, c=no</text>
</g>
<!-- n5&#45;&gt;n4 -->
<g id="edge5" class="edge">
<title>n5&#45;&gt;n4</title>
<path fill="none" stroke="black" d="M709.27,-223.91C689.34,-212.78 667.1,-200.35 646.58,-188.89"/>
<polygon fill="black" stroke="black" points="648.04,-185.69 637.6,-183.87 644.62,-191.8 648.04,-185.69"/>
</g>
<!-- n6 -->
<g id="node7" class="node">
<title>n6</title>
<ellipse fill="none" stroke="black" cx="965.97" cy="-148.43" rx="185.94" ry="37.45"/>
<text text-anchor="middle" x="965.97" y="-159.73" font-family="Times,serif" font-size="14.00">,</text>
<text text-anchor="middle" x="965.97" y="-144.73" font-family="Times,serif" font-size="14.00">fc (punct)</text>
<text text-anchor="middle" x="965.97" y="-129.73" font-family="Times,serif" font-size="14.00">rep=no, t=no, r=no, m=yes, c=no</text>
</g>
<!-- n5&#45;&gt;n6 -->
<g id="edge6" class="edge">
<title>n5&#45;&gt;n6</title>
<path fill="none" stroke="black" d="M832.67,-223.91C852.59,-212.78 874.84,-200.35 895.35,-188.89"/>
<polygon fill="black" stroke="black" points="897.31,-191.8 904.34,-183.87 893.9,-185.69 897.31,-191.8"/>
</g>
<!-- n9 -->
<g id="node8" class="node">
<title>n9</title>
<ellipse fill="none" stroke="black" cx="1355.97" cy="-148.43" rx="185.94" ry="37.45"/>
<text text-anchor="middle" x="1355.97" y="-159.73" font-family="Times,serif" font-size="14.00">locos</text>
<text text-anchor="middle" x="1355.97" y="-144.73" font-family="Times,serif" font-size="14.00">aq0mp0 (amod)</text>
<text text-anchor="middle" x="1355.97" y="-129.73" font-family="Times,serif" font-size="14.00">rep=no, t=no, r=no, m=yes, c=no</text>
</g>
<!-- n5&#45;&gt;n9 -->
<g id="edge7" class="edge">
<title>n5&#45;&gt;n9</title>
<path fill="none" stroke="black" d="M904.7,-233.32C925.22,-229.49 946.16,-225.59 965.97,-221.91 1052.62,-205.8 1074.32,-202.01 1160.97,-185.91 1177.53,-182.83 1194.88,-179.6 1212.11,-176.38"/>
<polygon fill="black" stroke="black" points="1213.05,-179.77 1222.23,-174.49 1211.76,-172.88 1213.05,-179.77"/>
</g>
<!-- n7 -->
<g id="node9" class="node">
<title>n7</title>
<ellipse fill="none" stroke="black" cx="1160.97" cy="-37.48" rx="185.94" ry="37.45"/>
<text text-anchor="middle" x="1160.97" y="-48.78" font-family="Times,serif" font-size="14.00">los</text>
<text text-anchor="middle" x="1160.97" y="-33.78" font-family="Times,serif" font-size="14.00">da0mp0 (det)</text>
<text text-anchor="middle" x="1160.97" y="-18.78" font-family="Times,serif" font-size="14.00">rep=no, t=no, r=no, m=yes, c=no</text>
</g>
<!-- n9&#45;&gt;n7 -->
<g id="edge8" class="edge">
<title>n9&#45;&gt;n7</title>
<path fill="none" stroke="black" d="M1294.27,-112.96C1274.34,-101.82 1252.1,-89.4 1231.58,-77.93"/>
<polygon fill="black" stroke="black" points="1233.04,-74.74 1222.6,-72.91 1229.62,-80.85 1233.04,-74.74"/>
</g>
<!-- n8 -->
<g id="node10" class="node">
<title>n8</title>
<ellipse fill="none" stroke="black" cx="1550.97" cy="-37.48" rx="185.94" ry="37.45"/>
<text text-anchor="middle" x="1550.97" y="-48.78" font-family="Times,serif" font-size="14.00">menos</text>
<text text-anchor="middle" x="1550.97" y="-33.78" font-family="Times,serif" font-size="14.00">rg (advmod)</text>
<text text-anchor="middle" x="1550.97" y="-18.78" font-family="Times,serif" font-size="14.00">rep=no, t=no, r=no, m=yes, c=no</text>
</g>
<!-- n9&#45;&gt;n8 -->
<g id="edge9" class="edge">
<title>n9&#45;&gt;n8</title>
<path fill="none" stroke="black" d="M1417.67,-112.96C1437.59,-101.82 1459.84,-89.4 1480.35,-77.93"/>
<polygon fill="black" stroke="black" points="1482.31,-80.85 1489.34,-72.91 1478.9,-74.74 1482.31,-80.85"/>
</g>
</g>
</svg>
