<?xml version="1.0" encoding="UTF-8" standalone="no"?>
<!DOCTYPE svg PUBLIC "-//W3C//DTD SVG 1.1//EN"
 "http://www.w3.org/Graphics/SVG/1.1/DTD/svg11.dtd">
<!-- Generated by graphviz version 2.43.0 (0)
 -->
<!-- Title: tree Pages: 1 -->
<svg width="3482pt" height="749pt"
 viewBox="0.00 0.00 3481.70 748.67" xmlns="http://www.w3.org/2000/svg" xmlns:xlink="http://www.w3.org/1999/xlink">
<g id="graph0" class="graph" transform="scale(1 1) rotate(0) translate(4 744.67)">
<title>tree</title>
<polygon fill="white" stroke="transparent" points="-4,4 -4,-744.67 3477.7,-744.67 3477.7,4 -4,4"/>
<!-- n15 -->
<g id="node1" class="node">
<title>n15</title>
<ellipse fill="#98D2A5" stroke="black" cx="1324.73" cy="-703.2" rx="190.84" ry="37.45"/>
<text text-anchor="middle" x="1324.73" y="-714.5" font-family="Times,serif" font-size="14.00">acordaron</text>
<text text-anchor="middle" x="1324.73" y="-699.5" font-family="Times,serif" font-size="14.00">vmis3p0 (root)</text>
<text text-anchor="middle" x="1324.73" y="-684.5" font-family="Times,serif" font-size="14.00">rep=no, t=no, r=yes, m=yes, c=no</text>
</g>
<!-- n1 -->
<g id="node2" class="node">
<title>n1</title>
<ellipse fill="none" stroke="black" cx="181.73" cy="-592.24" rx="181.95" ry="37.45"/>
<text text-anchor="middle" x="181.73" y="-603.54" font-family="Times,serif" font-size="14.00">Además</text>
<text text-anchor="middle" x="181.73" y="-588.54" font-family="Times,serif" font-size="14.00">rg (advmod)</text>
<text text-anchor="middle" x="181.73" y="-573.54" font-family="Times,serif" font-size="14.00">rep=no, t=no, r=no, m=no, c=no</text>
</g>
<!-- n15&#45;&gt;n1 -->
<g id="edge1" class="edge">
<title>n15&#45;&gt;n1</title>
<path fill="none" stroke="black" d="M1139.15,-694.34C946.62,-684.73 637.14,-665.17 371.73,-629.72 353.95,-627.35 335.32,-624.37 316.97,-621.16"/>
<polygon fill="black" stroke="black" points="317.56,-617.71 307.11,-619.4 316.34,-624.6 317.56,-617.71"/>
</g>
<!-- n2 -->
<g id="node3" class="node">
<title>n2</title>
<ellipse fill="none" stroke="black" cx="562.73" cy="-592.24" rx="181.95" ry="37.45"/>
<text text-anchor="middle" x="562.73" y="-603.54" font-family="Times,serif" font-size="14.00">,</text>
<text text-anchor="middle" x="562.73" y="-588.54" font-family="Times,serif" font-size="14.00">fc (punct)</text>
<text text-anchor="middle" x="562.73" y="-573.54" font-family="Times,serif" font-size="14.00">rep=no, t=no, r=no, m=no, c=no</text>
</g>
<!-- n15&#45;&gt;n2 -->
<g id="edge2" class="edge">
<title>n15&#45;&gt;n2</title>
<path fill="none" stroke="black" d="M1160.06,-684.15C1045.55,-670.9 889.52,-651.49 752.73,-629.72 735.88,-627.04 718.24,-623.99 700.79,-620.81"/>
<polygon fill="black" stroke="black" points="701.01,-617.3 690.54,-618.93 699.74,-624.18 701.01,-617.3"/>
</g>
<!-- n3 -->
<g id="node4" class="node">
<title>n3</title>
<ellipse fill="none" stroke="black" cx="943.73" cy="-592.24" rx="181.95" ry="37.45"/>
<text text-anchor="middle" x="943.73" y="-603.54" font-family="Times,serif" font-size="14.00">con</text>
<text text-anchor="middle" x="943.73" y="-588.54" font-family="Times,serif" font-size="14.00">sps00 (prepv)</text>
<text text-anchor="middle" x="943.73" y="-573.54" font-family="Times,serif" font-size="14.00">rep=no, t=no, r=no, m=no, c=no</text>
</g>
<!-- n15&#45;&gt;n3 -->
<g id="edge3" class="edge">
<title>n15&#45;&gt;n3</title>
<path fill="none" stroke="black" d="M1218.85,-671.92C1168.68,-657.57 1108.69,-640.42 1057.55,-625.79"/>
<polygon fill="black" stroke="black" points="1058.35,-622.38 1047.77,-623 1056.43,-629.11 1058.35,-622.38"/>
</g>
<!-- n13 -->
<g id="node5" class="node">
<title>n13</title>
<ellipse fill="none" stroke="black" cx="1324.73" cy="-592.24" rx="181.95" ry="37.45"/>
<text text-anchor="middle" x="1324.73" y="-603.54" font-family="Times,serif" font-size="14.00">,</text>
<text text-anchor="middle" x="1324.73" y="-588.54" font-family="Times,serif" font-size="14.00">fc (punct)</text>
<text text-anchor="middle" x="1324.73" y="-573.54" font-family="Times,serif" font-size="14.00">rep=no, t=no, r=no, m=no, c=no</text>
</g>
<!-- n15&#45;&gt;n13 -->
<g id="edge4" class="edge">
<title>n15&#45;&gt;n13</title>
<path fill="none" stroke="black" d="M1324.73,-665.61C1324.73,-657.44 1324.73,-648.66 1324.73,-640.13"/>
<polygon fill="black" stroke="black" points="1328.23,-639.92 1324.73,-629.92 1321.23,-639.92 1328.23,-639.92"/>
</g>
<!-- n14 -->
<g id="node6" class="node">
<title>n14</title>
<ellipse fill="#98D2A5" stroke="black" cx="1715.73" cy="-592.24" rx="190.84" ry="37.45"/>
<text text-anchor="middle" x="1715.73" y="-603.54" font-family="Times,serif" font-size="14.00">ambos</text>
<text text-anchor="middle" x="1715.73" y="-588.54" font-family="Times,serif" font-size="14.00">pn0mp000 (nsubj)</text>
<text text-anchor="middle" x="1715.73" y="-573.54" font-family="Times,serif" font-size="14.00">rep=no, t=yes, r=no, m=yes, c=no</text>
</g>
<!-- n15&#45;&gt;n14 -->
<g id="edge5" class="edge">
<title>n15&#45;&gt;n14</title>
<path fill="none" stroke="black" d="M1432.34,-672.21C1483.85,-657.86 1545.62,-640.64 1598.33,-625.96"/>
<polygon fill="black" stroke="black" points="1599.37,-629.3 1608.06,-623.24 1597.49,-622.56 1599.37,-629.3"/>
</g>
<!-- n16 -->
<g id="node7" class="node">
<title>n16</title>
<ellipse fill="#98D2A5" stroke="black" cx="2115.73" cy="-592.24" rx="190.84" ry="37.45"/>
<text text-anchor="middle" x="2115.73" y="-603.54" font-family="Times,serif" font-size="14.00">mantener</text>
<text text-anchor="middle" x="2115.73" y="-588.54" font-family="Times,serif" font-size="14.00">vmn0000 (dobj)</text>
<text text-anchor="middle" x="2115.73" y="-573.54" font-family="Times,serif" font-size="14.00">rep=no, t=no, r=yes, m=yes, c=no</text>
</g>
<!-- n15&#45;&gt;n16 -->
<g id="edge6" class="edge">
<title>n15&#45;&gt;n16</title>
<path fill="none" stroke="black" d="M1490.35,-684.5C1609.03,-671.19 1772.53,-651.54 1915.73,-629.72 1933.69,-626.98 1952.53,-623.87 1971.15,-620.64"/>
<polygon fill="black" stroke="black" points="1971.91,-624.06 1981.16,-618.9 1970.71,-617.17 1971.91,-624.06"/>
</g>
<!-- n27 -->
<g id="node8" class="node">
<title>n27</title>
<ellipse fill="none" stroke="black" cx="2506.73" cy="-592.24" rx="181.95" ry="37.45"/>
<text text-anchor="middle" x="2506.73" y="-603.54" font-family="Times,serif" font-size="14.00">.</text>
<text text-anchor="middle" x="2506.73" y="-588.54" font-family="Times,serif" font-size="14.00">fp (punct)</text>
<text text-anchor="middle" x="2506.73" y="-573.54" font-family="Times,serif" font-size="14.00">rep=no, t=no, r=no, m=no, c=no</text>
</g>
<!-- n15&#45;&gt;n27 -->
<g id="edge7" class="edge">
<title>n15&#45;&gt;n27</title>
<path fill="none" stroke="black" d="M1511.22,-695C1710.91,-685.79 2036.73,-666.44 2315.73,-629.72 2333.74,-627.35 2352.63,-624.36 2371.22,-621.12"/>
<polygon fill="black" stroke="black" points="2371.97,-624.55 2381.2,-619.36 2370.75,-617.65 2371.97,-624.55"/>
</g>
<!-- n5 -->
<g id="node9" class="node">
<title>n5</title>
<ellipse fill="none" stroke="black" cx="943.73" cy="-481.29" rx="181.95" ry="37.45"/>
<text text-anchor="middle" x="943.73" y="-492.59" font-family="Times,serif" font-size="14.00">objetivo</text>
<text text-anchor="middle" x="943.73" y="-477.59" font-family="Times,serif" font-size="14.00">ncms000 (pobj)</text>
<text text-anchor="middle" x="943.73" y="-462.59" font-family="Times,serif" font-size="14.00">rep=no, t=no, r=no, m=no, c=no</text>
</g>
<!-- n3&#45;&gt;n5 -->
<g id="edge8" class="edge">
<title>n3&#45;&gt;n5</title>
<path fill="none" stroke="black" d="M943.73,-554.66C943.73,-546.49 943.73,-537.71 943.73,-529.18"/>
<polygon fill="black" stroke="black" points="947.23,-528.96 943.73,-518.96 940.23,-528.96 947.23,-528.96"/>
</g>
<!-- n17 -->
<g id="node18" class="node">
<title>n17</title>
<ellipse fill="#98D2A5" stroke="black" cx="1810.73" cy="-481.29" rx="190.84" ry="37.45"/>
<text text-anchor="middle" x="1810.73" y="-492.59" font-family="Times,serif" font-size="14.00">abiertos</text>
<text text-anchor="middle" x="1810.73" y="-477.59" font-family="Times,serif" font-size="14.00">aq0mpp (cpred)</text>
<text text-anchor="middle" x="1810.73" y="-462.59" font-family="Times,serif" font-size="14.00">rep=no, t=no, r=yes, m=yes, c=no</text>
</g>
<!-- n16&#45;&gt;n17 -->
<g id="edge17" class="edge">
<title>n16&#45;&gt;n17</title>
<path fill="none" stroke="black" d="M2025.87,-559.14C1989.65,-546.21 1947.74,-531.23 1910.58,-517.96"/>
<polygon fill="black" stroke="black" points="1911.33,-514.51 1900.73,-514.44 1908.97,-521.1 1911.33,-514.51"/>
</g>
<!-- n19 -->
<g id="node19" class="node">
<title>n19</title>
<ellipse fill="#98D2A5" stroke="black" cx="2210.73" cy="-481.29" rx="190.84" ry="37.45"/>
<text text-anchor="middle" x="2210.73" y="-492.59" font-family="Times,serif" font-size="14.00">cauces</text>
<text text-anchor="middle" x="2210.73" y="-477.59" font-family="Times,serif" font-size="14.00">ncmp000 (dobj)</text>
<text text-anchor="middle" x="2210.73" y="-462.59" font-family="Times,serif" font-size="14.00">rep=no, t=no, r=yes, m=yes, c=no</text>
</g>
<!-- n16&#45;&gt;n19 -->
<g id="edge18" class="edge">
<title>n16&#45;&gt;n19</title>
<path fill="none" stroke="black" d="M2147.1,-555.27C2155.2,-545.97 2164.01,-535.87 2172.43,-526.22"/>
<polygon fill="black" stroke="black" points="2175.13,-528.44 2179.06,-518.6 2169.85,-523.84 2175.13,-528.44"/>
</g>
<!-- n4 -->
<g id="node10" class="node">
<title>n4</title>
<ellipse fill="none" stroke="black" cx="848.73" cy="-370.34" rx="181.95" ry="37.45"/>
<text text-anchor="middle" x="848.73" y="-381.64" font-family="Times,serif" font-size="14.00">el</text>
<text text-anchor="middle" x="848.73" y="-366.64" font-family="Times,serif" font-size="14.00">da0ms0 (det)</text>
<text text-anchor="middle" x="848.73" y="-351.64" font-family="Times,serif" font-size="14.00">rep=no, t=no, r=no, m=no, c=no</text>
</g>
<!-- n5&#45;&gt;n4 -->
<g id="edge9" class="edge">
<title>n5&#45;&gt;n4</title>
<path fill="none" stroke="black" d="M912.36,-444.31C904.17,-434.92 895.26,-424.7 886.76,-414.96"/>
<polygon fill="black" stroke="black" points="889.27,-412.51 880.06,-407.28 884,-417.11 889.27,-412.51"/>
</g>
<!-- n6 -->
<g id="node11" class="node">
<title>n6</title>
<ellipse fill="none" stroke="black" cx="1229.73" cy="-370.34" rx="181.95" ry="37.45"/>
<text text-anchor="middle" x="1229.73" y="-381.64" font-family="Times,serif" font-size="14.00">de</text>
<text text-anchor="middle" x="1229.73" y="-366.64" font-family="Times,serif" font-size="14.00">sps00 (prepn)</text>
<text text-anchor="middle" x="1229.73" y="-351.64" font-family="Times,serif" font-size="14.00">rep=no, t=no, r=no, m=no, c=no</text>
</g>
<!-- n5&#45;&gt;n6 -->
<g id="edge10" class="edge">
<title>n5&#45;&gt;n6</title>
<path fill="none" stroke="black" d="M1028.38,-448.04C1061.95,-435.25 1100.71,-420.49 1135.19,-407.35"/>
<polygon fill="black" stroke="black" points="1136.7,-410.52 1144.8,-403.69 1134.21,-403.98 1136.7,-410.52"/>
</g>
<!-- n8 -->
<g id="node12" class="node">
<title>n8</title>
<ellipse fill="none" stroke="black" cx="1229.73" cy="-259.38" rx="181.95" ry="37.45"/>
<text text-anchor="middle" x="1229.73" y="-270.68" font-family="Times,serif" font-size="14.00">salvaguardar</text>
<text text-anchor="middle" x="1229.73" y="-255.68" font-family="Times,serif" font-size="14.00">vmn0000 (pobj)</text>
<text text-anchor="middle" x="1229.73" y="-240.68" font-family="Times,serif" font-size="14.00">rep=no, t=no, r=no, m=no, c=no</text>
</g>
<!-- n6&#45;&gt;n8 -->
<g id="edge11" class="edge">
<title>n6&#45;&gt;n8</title>
<path fill="none" stroke="black" d="M1229.73,-332.75C1229.73,-324.58 1229.73,-315.8 1229.73,-307.27"/>
<polygon fill="black" stroke="black" points="1233.23,-307.06 1229.73,-297.06 1226.23,-307.06 1233.23,-307.06"/>
</g>
<!-- n7 -->
<g id="node13" class="node">
<title>n7</title>
<ellipse fill="none" stroke="black" cx="848.73" cy="-148.43" rx="181.95" ry="37.45"/>
<text text-anchor="middle" x="848.73" y="-159.73" font-family="Times,serif" font-size="14.00">&quot;</text>
<text text-anchor="middle" x="848.73" y="-144.73" font-family="Times,serif" font-size="14.00">fe (punct)</text>
<text text-anchor="middle" x="848.73" y="-129.73" font-family="Times,serif" font-size="14.00">rep=no, t=no, r=no, m=no, c=no</text>
</g>
<!-- n8&#45;&gt;n7 -->
<g id="edge12" class="edge">
<title>n8&#45;&gt;n7</title>
<path fill="none" stroke="black" d="M1125.62,-228.61C1075.11,-214.17 1014.33,-196.79 962.6,-181.99"/>
<polygon fill="black" stroke="black" points="963.29,-178.55 952.71,-179.17 961.36,-185.28 963.29,-178.55"/>
</g>
<!-- n10 -->
<g id="node14" class="node">
<title>n10</title>
<ellipse fill="none" stroke="black" cx="1229.73" cy="-148.43" rx="181.95" ry="37.45"/>
<text text-anchor="middle" x="1229.73" y="-159.73" font-family="Times,serif" font-size="14.00">relación</text>
<text text-anchor="middle" x="1229.73" y="-144.73" font-family="Times,serif" font-size="14.00">ncfs000 (dobj)</text>
<text text-anchor="middle" x="1229.73" y="-129.73" font-family="Times,serif" font-size="14.00">rep=no, t=no, r=no, m=no, c=no</text>
</g>
<!-- n8&#45;&gt;n10 -->
<g id="edge13" class="edge">
<title>n8&#45;&gt;n10</title>
<path fill="none" stroke="black" d="M1229.73,-221.8C1229.73,-213.63 1229.73,-204.85 1229.73,-196.32"/>
<polygon fill="black" stroke="black" points="1233.23,-196.1 1229.73,-186.1 1226.23,-196.1 1233.23,-196.1"/>
</g>
<!-- n12 -->
<g id="node15" class="node">
<title>n12</title>
<ellipse fill="none" stroke="black" cx="1610.73" cy="-148.43" rx="181.95" ry="37.45"/>
<text text-anchor="middle" x="1610.73" y="-159.73" font-family="Times,serif" font-size="14.00">&quot;</text>
<text text-anchor="middle" x="1610.73" y="-144.73" font-family="Times,serif" font-size="14.00">fe (punct)</text>
<text text-anchor="middle" x="1610.73" y="-129.73" font-family="Times,serif" font-size="14.00">rep=no, t=no, r=no, m=no, c=no</text>
</g>
<!-- n8&#45;&gt;n12 -->
<g id="edge14" class="edge">
<title>n8&#45;&gt;n12</title>
<path fill="none" stroke="black" d="M1333.84,-228.61C1384.34,-214.17 1445.12,-196.79 1496.86,-181.99"/>
<polygon fill="black" stroke="black" points="1498.09,-185.28 1506.74,-179.17 1496.17,-178.55 1498.09,-185.28"/>
</g>
<!-- n9 -->
<g id="node16" class="node">
<title>n9</title>
<ellipse fill="none" stroke="black" cx="1039.73" cy="-37.48" rx="181.95" ry="37.45"/>
<text text-anchor="middle" x="1039.73" y="-48.78" font-family="Times,serif" font-size="14.00">la</text>
<text text-anchor="middle" x="1039.73" y="-33.78" font-family="Times,serif" font-size="14.00">da0fs0 (det)</text>
<text text-anchor="middle" x="1039.73" y="-18.78" font-family="Times,serif" font-size="14.00">rep=no, t=no, r=no, m=no, c=no</text>
</g>
<!-- n10&#45;&gt;n9 -->
<g id="edge15" class="edge">
<title>n10&#45;&gt;n9</title>
<path fill="none" stroke="black" d="M1169.61,-112.96C1150.19,-101.82 1128.52,-89.4 1108.53,-77.93"/>
<polygon fill="black" stroke="black" points="1110.19,-74.85 1099.78,-72.91 1106.71,-80.92 1110.19,-74.85"/>
</g>
<!-- n11 -->
<g id="node17" class="node">
<title>n11</title>
<ellipse fill="none" stroke="black" cx="1420.73" cy="-37.48" rx="181.95" ry="37.45"/>
<text text-anchor="middle" x="1420.73" y="-48.78" font-family="Times,serif" font-size="14.00">institucional</text>
<text text-anchor="middle" x="1420.73" y="-33.78" font-family="Times,serif" font-size="14.00">aq0cs0 (amod)</text>
<text text-anchor="middle" x="1420.73" y="-18.78" font-family="Times,serif" font-size="14.00">rep=no, t=no, r=no, m=no, c=no</text>
</g>
<!-- n10&#45;&gt;n11 -->
<g id="edge16" class="edge">
<title>n10&#45;&gt;n11</title>
<path fill="none" stroke="black" d="M1290.16,-112.96C1309.68,-101.82 1331.46,-89.4 1351.56,-77.93"/>
<polygon fill="black" stroke="black" points="1353.41,-80.91 1360.36,-72.91 1349.94,-74.83 1353.41,-80.91"/>
</g>
<!-- n18 -->
<g id="node20" class="node">
<title>n18</title>
<ellipse fill="#98D2A5" stroke="black" cx="1810.73" cy="-370.34" rx="190.84" ry="37.45"/>
<text text-anchor="middle" x="1810.73" y="-381.64" font-family="Times,serif" font-size="14.00">los</text>
<text text-anchor="middle" x="1810.73" y="-366.64" font-family="Times,serif" font-size="14.00">da0mp0 (det)</text>
<text text-anchor="middle" x="1810.73" y="-351.64" font-family="Times,serif" font-size="14.00">rep=no, t=no, r=yes, m=yes, c=no</text>
</g>
<!-- n19&#45;&gt;n18 -->
<g id="edge19" class="edge">
<title>n19&#45;&gt;n18</title>
<path fill="none" stroke="black" d="M2101.42,-450.52C2048.29,-436.04 1984.32,-418.62 1929.93,-403.81"/>
<polygon fill="black" stroke="black" points="1930.81,-400.42 1920.24,-401.17 1928.97,-407.17 1930.81,-400.42"/>
</g>
<!-- n20 -->
<g id="node21" class="node">
<title>n20</title>
<ellipse fill="#98D2A5" stroke="black" cx="2210.73" cy="-370.34" rx="190.84" ry="37.45"/>
<text text-anchor="middle" x="2210.73" y="-381.64" font-family="Times,serif" font-size="14.00">de</text>
<text text-anchor="middle" x="2210.73" y="-366.64" font-family="Times,serif" font-size="14.00">sps00 (prepn)</text>
<text text-anchor="middle" x="2210.73" y="-351.64" font-family="Times,serif" font-size="14.00">rep=no, t=no, r=yes, m=yes, c=no</text>
</g>
<!-- n19&#45;&gt;n20 -->
<g id="edge20" class="edge">
<title>n19&#45;&gt;n20</title>
<path fill="none" stroke="black" d="M2210.73,-443.71C2210.73,-435.53 2210.73,-426.75 2210.73,-418.23"/>
<polygon fill="black" stroke="black" points="2214.23,-418.01 2210.73,-408.01 2207.23,-418.01 2214.23,-418.01"/>
</g>
<!-- n24 -->
<g id="node22" class="node">
<title>n24</title>
<ellipse fill="#98D2A5" stroke="black" cx="2800.73" cy="-370.34" rx="185.94" ry="37.45"/>
<text text-anchor="middle" x="2800.73" y="-381.64" font-family="Times,serif" font-size="14.00">permita</text>
<text text-anchor="middle" x="2800.73" y="-366.64" font-family="Times,serif" font-size="14.00">vmsp3s0 (rcmod)</text>
<text text-anchor="middle" x="2800.73" y="-351.64" font-family="Times,serif" font-size="14.00">rep=no, t=no, r=no, m=yes, c=no</text>
</g>
<!-- n19&#45;&gt;n24 -->
<g id="edge21" class="edge">
<title>n19&#45;&gt;n24</title>
<path fill="none" stroke="black" d="M2347.57,-455.02C2440.04,-437.94 2561.94,-415.43 2656.02,-398.06"/>
<polygon fill="black" stroke="black" points="2656.7,-401.49 2665.9,-396.23 2655.43,-394.61 2656.7,-401.49"/>
</g>
<!-- n21 -->
<g id="node23" class="node">
<title>n21</title>
<ellipse fill="#98D2A5" stroke="black" cx="2112.73" cy="-259.38" rx="190.84" ry="37.45"/>
<text text-anchor="middle" x="2112.73" y="-270.68" font-family="Times,serif" font-size="14.00">comunicación</text>
<text text-anchor="middle" x="2112.73" y="-255.68" font-family="Times,serif" font-size="14.00">ncfs000 (pobj)</text>
<text text-anchor="middle" x="2112.73" y="-240.68" font-family="Times,serif" font-size="14.00">rep=no, t=no, r=yes, m=yes, c=no</text>
</g>
<!-- n20&#45;&gt;n21 -->
<g id="edge22" class="edge">
<title>n20&#45;&gt;n21</title>
<path fill="none" stroke="black" d="M2178.37,-333.36C2169.92,-323.97 2160.72,-313.75 2151.96,-304.01"/>
<polygon fill="black" stroke="black" points="2154.34,-301.42 2145.05,-296.32 2149.14,-306.1 2154.34,-301.42"/>
</g>
<!-- n22 -->
<g id="node24" class="node">
<title>n22</title>
<ellipse fill="#98D2A5" stroke="black" cx="2507.73" cy="-259.38" rx="185.94" ry="37.45"/>
<text text-anchor="middle" x="2507.73" y="-270.68" font-family="Times,serif" font-size="14.00">que</text>
<text text-anchor="middle" x="2507.73" y="-255.68" font-family="Times,serif" font-size="14.00">pr0cn000 (nsubj)</text>
<text text-anchor="middle" x="2507.73" y="-240.68" font-family="Times,serif" font-size="14.00">rep=no, t=no, r=no, m=yes, c=no</text>
</g>
<!-- n24&#45;&gt;n22 -->
<g id="edge23" class="edge">
<title>n24&#45;&gt;n22</title>
<path fill="none" stroke="black" d="M2714.01,-337.09C2679.38,-324.22 2639.39,-309.34 2603.88,-296.14"/>
<polygon fill="black" stroke="black" points="2605.07,-292.85 2594.48,-292.64 2602.63,-299.41 2605.07,-292.85"/>
</g>
<!-- n23 -->
<g id="node25" class="node">
<title>n23</title>
<ellipse fill="#98D2A5" stroke="black" cx="2897.73" cy="-259.38" rx="185.94" ry="37.45"/>
<text text-anchor="middle" x="2897.73" y="-270.68" font-family="Times,serif" font-size="14.00">les</text>
<text text-anchor="middle" x="2897.73" y="-255.68" font-family="Times,serif" font-size="14.00">pp3cpd00 (iobj)</text>
<text text-anchor="middle" x="2897.73" y="-240.68" font-family="Times,serif" font-size="14.00">rep=no, t=no, r=no, m=yes, c=no</text>
</g>
<!-- n24&#45;&gt;n23 -->
<g id="edge24" class="edge">
<title>n24&#45;&gt;n23</title>
<path fill="none" stroke="black" d="M2832.76,-333.36C2841.12,-323.97 2850.22,-313.75 2858.89,-304.01"/>
<polygon fill="black" stroke="black" points="2861.69,-306.12 2865.73,-296.32 2856.47,-301.46 2861.69,-306.12"/>
</g>
<!-- n25 -->
<g id="node26" class="node">
<title>n25</title>
<ellipse fill="#98D2A5" stroke="black" cx="3287.73" cy="-259.38" rx="185.94" ry="37.45"/>
<text text-anchor="middle" x="3287.73" y="-270.68" font-family="Times,serif" font-size="14.00">coordinar</text>
<text text-anchor="middle" x="3287.73" y="-255.68" font-family="Times,serif" font-size="14.00">vmn0000 (dobj)</text>
<text text-anchor="middle" x="3287.73" y="-240.68" font-family="Times,serif" font-size="14.00">rep=no, t=no, r=no, m=yes, c=no</text>
</g>
<!-- n24&#45;&gt;n25 -->
<g id="edge25" class="edge">
<title>n24&#45;&gt;n25</title>
<path fill="none" stroke="black" d="M2922.99,-341.98C2993.76,-326.15 3082.88,-306.21 3155.31,-290.01"/>
<polygon fill="black" stroke="black" points="3156.42,-293.35 3165.41,-287.75 3154.89,-286.52 3156.42,-293.35"/>
</g>
<!-- n26 -->
<g id="node27" class="node">
<title>n26</title>
<ellipse fill="#98D2A5" stroke="black" cx="3287.73" cy="-148.43" rx="185.94" ry="37.45"/>
<text text-anchor="middle" x="3287.73" y="-159.73" font-family="Times,serif" font-size="14.00">estrategias</text>
<text text-anchor="middle" x="3287.73" y="-144.73" font-family="Times,serif" font-size="14.00">ncfp000 (dobj)</text>
<text text-anchor="middle" x="3287.73" y="-129.73" font-family="Times,serif" font-size="14.00">rep=no, t=no, r=no, m=yes, c=no</text>
</g>
<!-- n25&#45;&gt;n26 -->
<g id="edge26" class="edge">
<title>n25&#45;&gt;n26</title>
<path fill="none" stroke="black" d="M3287.73,-221.8C3287.73,-213.63 3287.73,-204.85 3287.73,-196.32"/>
<polygon fill="black" stroke="black" points="3291.23,-196.1 3287.73,-186.1 3284.23,-196.1 3291.23,-196.1"/>
</g>
</g>
</svg>
