<?xml version="1.0" encoding="UTF-8" standalone="no"?>
<!DOCTYPE svg PUBLIC "-//W3C//DTD SVG 1.1//EN"
 "http://www.w3.org/Graphics/SVG/1.1/DTD/svg11.dtd">
<!-- Generated by graphviz version 2.43.0 (0)
 -->
<!-- Title: tree Pages: 1 -->
<svg width="2677pt" height="1525pt"
 viewBox="0.00 0.00 2677.45 1525.35" xmlns="http://www.w3.org/2000/svg" xmlns:xlink="http://www.w3.org/1999/xlink">
<g id="graph0" class="graph" transform="scale(1 1) rotate(0) translate(4 1521.35)">
<title>tree</title>
<polygon fill="white" stroke="transparent" points="-4,4 -4,-1521.35 2673.45,-1521.35 2673.45,4 -4,4"/>
<!-- n30 -->
<g id="node1" class="node">
<title>n30</title>
<ellipse fill="none" stroke="black" cx="950.73" cy="-1479.87" rx="181.95" ry="37.45"/>
<text text-anchor="middle" x="950.73" y="-1491.17" font-family="Times,serif" font-size="14.00">y</text>
<text text-anchor="middle" x="950.73" y="-1476.17" font-family="Times,serif" font-size="14.00">cc (root)</text>
<text text-anchor="middle" x="950.73" y="-1461.17" font-family="Times,serif" font-size="14.00">rep=no, t=no, r=no, m=no, c=no</text>
</g>
<!-- n1 -->
<g id="node2" class="node">
<title>n1</title>
<ellipse fill="none" stroke="black" cx="377.73" cy="-1368.92" rx="181.95" ry="37.45"/>
<text text-anchor="middle" x="377.73" y="-1380.22" font-family="Times,serif" font-size="14.00">Estrategia</text>
<text text-anchor="middle" x="377.73" y="-1365.22" font-family="Times,serif" font-size="14.00">ncfs000 (coord)</text>
<text text-anchor="middle" x="377.73" y="-1350.22" font-family="Times,serif" font-size="14.00">rep=no, t=no, r=no, m=no, c=no</text>
</g>
<!-- n30&#45;&gt;n1 -->
<g id="edge1" class="edge">
<title>n30&#45;&gt;n1</title>
<path fill="none" stroke="black" d="M819.27,-1453.87C729.53,-1436.81 610.75,-1414.22 518.99,-1396.78"/>
<polygon fill="black" stroke="black" points="519.55,-1393.32 509.07,-1394.89 518.24,-1400.2 519.55,-1393.32"/>
</g>
<!-- n5 -->
<g id="node3" class="node">
<title>n5</title>
<ellipse fill="none" stroke="black" cx="760.73" cy="-1368.92" rx="181.95" ry="37.45"/>
<text text-anchor="middle" x="760.73" y="-1380.22" font-family="Times,serif" font-size="14.00">adelantaron</text>
<text text-anchor="middle" x="760.73" y="-1365.22" font-family="Times,serif" font-size="14.00">vmis3p0 (coord)</text>
<text text-anchor="middle" x="760.73" y="-1350.22" font-family="Times,serif" font-size="14.00">rep=no, t=no, r=no, m=no, c=no</text>
</g>
<!-- n30&#45;&gt;n5 -->
<g id="edge2" class="edge">
<title>n30&#45;&gt;n5</title>
<path fill="none" stroke="black" d="M890.61,-1444.4C871.19,-1433.26 849.52,-1420.84 829.53,-1409.37"/>
<polygon fill="black" stroke="black" points="831.19,-1406.29 820.78,-1404.35 827.71,-1412.36 831.19,-1406.29"/>
</g>
<!-- n31 -->
<g id="node4" class="node">
<title>n31</title>
<ellipse fill="none" stroke="black" cx="1141.73" cy="-1368.92" rx="181.95" ry="37.45"/>
<text text-anchor="middle" x="1141.73" y="-1380.22" font-family="Times,serif" font-size="14.00">auguraron</text>
<text text-anchor="middle" x="1141.73" y="-1365.22" font-family="Times,serif" font-size="14.00">vmis3p0 (coord)</text>
<text text-anchor="middle" x="1141.73" y="-1350.22" font-family="Times,serif" font-size="14.00">rep=no, t=no, r=no, m=no, c=no</text>
</g>
<!-- n30&#45;&gt;n31 -->
<g id="edge3" class="edge">
<title>n30&#45;&gt;n31</title>
<path fill="none" stroke="black" d="M1011.16,-1444.4C1030.68,-1433.26 1052.46,-1420.84 1072.56,-1409.37"/>
<polygon fill="black" stroke="black" points="1074.41,-1412.35 1081.36,-1404.35 1070.94,-1406.27 1074.41,-1412.35"/>
</g>
<!-- n43 -->
<g id="node5" class="node">
<title>n43</title>
<ellipse fill="none" stroke="black" cx="1522.73" cy="-1368.92" rx="181.95" ry="37.45"/>
<text text-anchor="middle" x="1522.73" y="-1380.22" font-family="Times,serif" font-size="14.00">.</text>
<text text-anchor="middle" x="1522.73" y="-1365.22" font-family="Times,serif" font-size="14.00">fp (punct)</text>
<text text-anchor="middle" x="1522.73" y="-1350.22" font-family="Times,serif" font-size="14.00">rep=no, t=no, r=no, m=no, c=no</text>
</g>
<!-- n30&#45;&gt;n43 -->
<g id="edge4" class="edge">
<title>n30&#45;&gt;n43</title>
<path fill="none" stroke="black" d="M1082.45,-1453.95C1156.08,-1440 1249.51,-1422.27 1332.73,-1406.39 1348.79,-1403.33 1365.62,-1400.11 1382.34,-1396.9"/>
<polygon fill="black" stroke="black" points="1383,-1400.34 1392.16,-1395.02 1381.68,-1393.47 1383,-1400.34"/>
</g>
<!-- n2 -->
<g id="node6" class="node">
<title>n2</title>
<ellipse fill="none" stroke="black" cx="181.73" cy="-1257.96" rx="181.95" ry="37.45"/>
<text text-anchor="middle" x="181.73" y="-1269.26" font-family="Times,serif" font-size="14.00">agresiva</text>
<text text-anchor="middle" x="181.73" y="-1254.26" font-family="Times,serif" font-size="14.00">aq0fs0 (amod)</text>
<text text-anchor="middle" x="181.73" y="-1239.26" font-family="Times,serif" font-size="14.00">rep=no, t=no, r=no, m=no, c=no</text>
</g>
<!-- n1&#45;&gt;n2 -->
<g id="edge5" class="edge">
<title>n1&#45;&gt;n2</title>
<path fill="none" stroke="black" d="M315.98,-1333.59C295.75,-1322.35 273.13,-1309.77 252.3,-1298.2"/>
<polygon fill="black" stroke="black" points="253.94,-1295.1 243.5,-1293.3 250.54,-1301.22 253.94,-1295.1"/>
</g>
<!-- n4 -->
<g id="node7" class="node">
<title>n4</title>
<ellipse fill="none" stroke="black" cx="567.73" cy="-1257.96" rx="185.94" ry="37.45"/>
<text text-anchor="middle" x="567.73" y="-1269.26" font-family="Times,serif" font-size="14.00">analistas</text>
<text text-anchor="middle" x="567.73" y="-1254.26" font-family="Times,serif" font-size="14.00">nccp000 (nsubj)</text>
<text text-anchor="middle" x="567.73" y="-1239.26" font-family="Times,serif" font-size="14.00">rep=yes, t=no, r=no, m=no, c=no</text>
</g>
<!-- n5&#45;&gt;n4 -->
<g id="edge6" class="edge">
<title>n5&#45;&gt;n4</title>
<path fill="none" stroke="black" d="M699.92,-1333.59C680.19,-1322.45 658.14,-1310.01 637.8,-1298.52"/>
<polygon fill="black" stroke="black" points="639.31,-1295.36 628.89,-1293.49 635.87,-1301.45 639.31,-1295.36"/>
</g>
<!-- n6 -->
<g id="node8" class="node">
<title>n6</title>
<ellipse fill="none" stroke="black" cx="953.73" cy="-1257.96" rx="181.95" ry="37.45"/>
<text text-anchor="middle" x="953.73" y="-1269.26" font-family="Times,serif" font-size="14.00">que</text>
<text text-anchor="middle" x="953.73" y="-1254.26" font-family="Times,serif" font-size="14.00">cs (dobj)</text>
<text text-anchor="middle" x="953.73" y="-1239.26" font-family="Times,serif" font-size="14.00">rep=no, t=no, r=no, m=no, c=no</text>
</g>
<!-- n5&#45;&gt;n6 -->
<g id="edge7" class="edge">
<title>n5&#45;&gt;n6</title>
<path fill="none" stroke="black" d="M821.53,-1333.59C841.36,-1322.4 863.52,-1309.89 883.96,-1298.35"/>
<polygon fill="black" stroke="black" points="885.91,-1301.27 892.9,-1293.3 882.47,-1295.17 885.91,-1301.27"/>
</g>
<!-- n33 -->
<g id="node33" class="node">
<title>n33</title>
<ellipse fill="none" stroke="black" cx="1534.73" cy="-1257.96" rx="181.95" ry="37.45"/>
<text text-anchor="middle" x="1534.73" y="-1269.26" font-family="Times,serif" font-size="14.00">aumento</text>
<text text-anchor="middle" x="1534.73" y="-1254.26" font-family="Times,serif" font-size="14.00">ncms000 (dobj)</text>
<text text-anchor="middle" x="1534.73" y="-1239.26" font-family="Times,serif" font-size="14.00">rep=no, t=no, r=no, m=no, c=no</text>
</g>
<!-- n31&#45;&gt;n33 -->
<g id="edge32" class="edge">
<title>n31&#45;&gt;n33</title>
<path fill="none" stroke="black" d="M1248.08,-1338.43C1300.72,-1323.84 1364.39,-1306.19 1418.33,-1291.23"/>
<polygon fill="black" stroke="black" points="1419.59,-1294.52 1428.29,-1288.47 1417.72,-1287.77 1419.59,-1294.52"/>
</g>
<!-- n3 -->
<g id="node9" class="node">
<title>n3</title>
<ellipse fill="none" stroke="black" cx="558.73" cy="-1147.01" rx="185.94" ry="37.45"/>
<text text-anchor="middle" x="558.73" y="-1158.31" font-family="Times,serif" font-size="14.00">Los</text>
<text text-anchor="middle" x="558.73" y="-1143.31" font-family="Times,serif" font-size="14.00">da0mp0 (det)</text>
<text text-anchor="middle" x="558.73" y="-1128.31" font-family="Times,serif" font-size="14.00">rep=yes, t=no, r=no, m=no, c=no</text>
</g>
<!-- n4&#45;&gt;n3 -->
<g id="edge8" class="edge">
<title>n4&#45;&gt;n3</title>
<path fill="none" stroke="black" d="M564.7,-1220.38C564.03,-1212.21 563.3,-1203.43 562.6,-1194.9"/>
<polygon fill="black" stroke="black" points="566.07,-1194.36 561.76,-1184.68 559.09,-1194.94 566.07,-1194.36"/>
</g>
<!-- n8 -->
<g id="node10" class="node">
<title>n8</title>
<ellipse fill="#DA79E8" stroke="black" cx="953.73" cy="-1147.01" rx="190.84" ry="37.45"/>
<text text-anchor="middle" x="953.73" y="-1158.31" font-family="Times,serif" font-size="14.00">pudo</text>
<text text-anchor="middle" x="953.73" y="-1143.31" font-family="Times,serif" font-size="14.00">vmis3s0 (cobj)</text>
<text text-anchor="middle" x="953.73" y="-1128.31" font-family="Times,serif" font-size="14.00">rep=no, t=no, r=yes, m=yes, c=no</text>
</g>
<!-- n6&#45;&gt;n8 -->
<g id="edge9" class="edge">
<title>n6&#45;&gt;n8</title>
<path fill="none" stroke="black" d="M953.73,-1220.38C953.73,-1212.21 953.73,-1203.43 953.73,-1194.9"/>
<polygon fill="black" stroke="black" points="957.23,-1194.68 953.73,-1184.68 950.23,-1194.68 957.23,-1194.68"/>
</g>
<!-- n7 -->
<g id="node11" class="node">
<title>n7</title>
<ellipse fill="#BEDA48" stroke="black" cx="553.73" cy="-1036.06" rx="190.84" ry="37.45"/>
<text text-anchor="middle" x="553.73" y="-1047.36" font-family="Times,serif" font-size="14.00">Gore</text>
<text text-anchor="middle" x="553.73" y="-1032.36" font-family="Times,serif" font-size="14.00">np00000 (nsubj)</text>
<text text-anchor="middle" x="553.73" y="-1017.36" font-family="Times,serif" font-size="14.00">rep=no, t=yes, r=no, m=yes, c=no</text>
</g>
<!-- n8&#45;&gt;n7 -->
<g id="edge10" class="edge">
<title>n8&#45;&gt;n7</title>
<path fill="none" stroke="black" d="M844.42,-1116.24C791.29,-1101.76 727.32,-1084.34 672.93,-1069.53"/>
<polygon fill="black" stroke="black" points="673.81,-1066.14 663.24,-1066.89 671.97,-1072.89 673.81,-1066.14"/>
</g>
<!-- n9 -->
<g id="node12" class="node">
<title>n9</title>
<ellipse fill="#DA79E8" stroke="black" cx="953.73" cy="-1036.06" rx="190.84" ry="37.45"/>
<text text-anchor="middle" x="953.73" y="-1047.36" font-family="Times,serif" font-size="14.00">haberse</text>
<text text-anchor="middle" x="953.73" y="-1032.36" font-family="Times,serif" font-size="14.00">van0000 (dobj)</text>
<text text-anchor="middle" x="953.73" y="-1017.36" font-family="Times,serif" font-size="14.00">rep=no, t=no, r=yes, m=yes, c=no</text>
</g>
<!-- n8&#45;&gt;n9 -->
<g id="edge11" class="edge">
<title>n8&#45;&gt;n9</title>
<path fill="none" stroke="black" d="M953.73,-1109.43C953.73,-1101.25 953.73,-1092.47 953.73,-1083.95"/>
<polygon fill="black" stroke="black" points="957.23,-1083.73 953.73,-1073.73 950.23,-1083.73 957.23,-1083.73"/>
</g>
<!-- n10 -->
<g id="node13" class="node">
<title>n10</title>
<ellipse fill="#DA79E8" stroke="black" cx="953.73" cy="-925.1" rx="190.84" ry="37.45"/>
<text text-anchor="middle" x="953.73" y="-936.4" font-family="Times,serif" font-size="14.00">resentido</text>
<text text-anchor="middle" x="953.73" y="-921.4" font-family="Times,serif" font-size="14.00">vmp00sm (vobj)</text>
<text text-anchor="middle" x="953.73" y="-906.4" font-family="Times,serif" font-size="14.00">rep=no, t=no, r=yes, m=yes, c=no</text>
</g>
<!-- n9&#45;&gt;n10 -->
<g id="edge12" class="edge">
<title>n9&#45;&gt;n10</title>
<path fill="none" stroke="black" d="M953.73,-998.47C953.73,-990.3 953.73,-981.52 953.73,-972.99"/>
<polygon fill="black" stroke="black" points="957.23,-972.78 953.73,-962.78 950.23,-972.78 957.23,-972.78"/>
</g>
<!-- n11 -->
<g id="node14" class="node">
<title>n11</title>
<ellipse fill="#DA79E8" stroke="black" cx="953.73" cy="-814.15" rx="190.84" ry="37.45"/>
<text text-anchor="middle" x="953.73" y="-825.45" font-family="Times,serif" font-size="14.00">de</text>
<text text-anchor="middle" x="953.73" y="-810.45" font-family="Times,serif" font-size="14.00">sps00 (prepv)</text>
<text text-anchor="middle" x="953.73" y="-795.45" font-family="Times,serif" font-size="14.00">rep=no, t=no, r=yes, m=yes, c=no</text>
</g>
<!-- n10&#45;&gt;n11 -->
<g id="edge13" class="edge">
<title>n10&#45;&gt;n11</title>
<path fill="none" stroke="black" d="M953.73,-887.52C953.73,-879.35 953.73,-870.57 953.73,-862.04"/>
<polygon fill="black" stroke="black" points="957.23,-861.82 953.73,-851.82 950.23,-861.82 957.23,-861.82"/>
</g>
<!-- n13 -->
<g id="node15" class="node">
<title>n13</title>
<ellipse fill="#DA79E8" stroke="black" cx="953.73" cy="-703.2" rx="190.84" ry="37.45"/>
<text text-anchor="middle" x="953.73" y="-714.5" font-family="Times,serif" font-size="14.00">agresividad</text>
<text text-anchor="middle" x="953.73" y="-699.5" font-family="Times,serif" font-size="14.00">ncfs000 (pobj)</text>
<text text-anchor="middle" x="953.73" y="-684.5" font-family="Times,serif" font-size="14.00">rep=no, t=no, r=yes, m=yes, c=no</text>
</g>
<!-- n11&#45;&gt;n13 -->
<g id="edge14" class="edge">
<title>n11&#45;&gt;n13</title>
<path fill="none" stroke="black" d="M953.73,-776.57C953.73,-768.39 953.73,-759.61 953.73,-751.09"/>
<polygon fill="black" stroke="black" points="957.23,-750.87 953.73,-740.87 950.23,-750.87 957.23,-750.87"/>
</g>
<!-- n12 -->
<g id="node16" class="node">
<title>n12</title>
<ellipse fill="#DA79E8" stroke="black" cx="753.73" cy="-592.24" rx="190.84" ry="37.45"/>
<text text-anchor="middle" x="753.73" y="-603.54" font-family="Times,serif" font-size="14.00">la</text>
<text text-anchor="middle" x="753.73" y="-588.54" font-family="Times,serif" font-size="14.00">da0fs0 (det)</text>
<text text-anchor="middle" x="753.73" y="-573.54" font-family="Times,serif" font-size="14.00">rep=no, t=no, r=yes, m=yes, c=no</text>
</g>
<!-- n13&#45;&gt;n12 -->
<g id="edge15" class="edge">
<title>n13&#45;&gt;n12</title>
<path fill="none" stroke="black" d="M890.45,-667.72C869.92,-656.54 846.99,-644.05 825.87,-632.54"/>
<polygon fill="black" stroke="black" points="827.39,-629.39 816.94,-627.68 824.05,-635.54 827.39,-629.39"/>
</g>
<!-- n14 -->
<g id="node17" class="node">
<title>n14</title>
<ellipse fill="#DA79E8" stroke="black" cx="1153.73" cy="-592.24" rx="190.84" ry="37.45"/>
<text text-anchor="middle" x="1153.73" y="-603.54" font-family="Times,serif" font-size="14.00">exhibida</text>
<text text-anchor="middle" x="1153.73" y="-588.54" font-family="Times,serif" font-size="14.00">aq0msp (amod)</text>
<text text-anchor="middle" x="1153.73" y="-573.54" font-family="Times,serif" font-size="14.00">rep=no, t=no, r=yes, m=yes, c=no</text>
</g>
<!-- n13&#45;&gt;n14 -->
<g id="edge16" class="edge">
<title>n13&#45;&gt;n14</title>
<path fill="none" stroke="black" d="M1017.01,-667.72C1037.54,-656.54 1060.46,-644.05 1081.58,-632.54"/>
<polygon fill="black" stroke="black" points="1083.41,-635.54 1090.51,-627.68 1080.06,-629.39 1083.41,-635.54"/>
</g>
<!-- n15 -->
<g id="node18" class="node">
<title>n15</title>
<ellipse fill="#DA79E8" stroke="black" cx="953.73" cy="-481.29" rx="190.84" ry="37.45"/>
<text text-anchor="middle" x="953.73" y="-492.59" font-family="Times,serif" font-size="14.00">por</text>
<text text-anchor="middle" x="953.73" y="-477.59" font-family="Times,serif" font-size="14.00">sps00 (agent)</text>
<text text-anchor="middle" x="953.73" y="-462.59" font-family="Times,serif" font-size="14.00">rep=no, t=no, r=yes, m=yes, c=no</text>
</g>
<!-- n14&#45;&gt;n15 -->
<g id="edge17" class="edge">
<title>n14&#45;&gt;n15</title>
<path fill="none" stroke="black" d="M1090.45,-556.77C1069.92,-545.59 1046.99,-533.1 1025.87,-521.59"/>
<polygon fill="black" stroke="black" points="1027.39,-518.44 1016.94,-516.73 1024.05,-524.58 1027.39,-518.44"/>
</g>
<!-- n17 -->
<g id="node19" class="node">
<title>n17</title>
<ellipse fill="#DA79E8" stroke="black" cx="1353.73" cy="-481.29" rx="190.84" ry="37.45"/>
<text text-anchor="middle" x="1353.73" y="-492.59" font-family="Times,serif" font-size="14.00">durante</text>
<text text-anchor="middle" x="1353.73" y="-477.59" font-family="Times,serif" font-size="14.00">sps00 (prepa)</text>
<text text-anchor="middle" x="1353.73" y="-462.59" font-family="Times,serif" font-size="14.00">rep=no, t=no, r=yes, m=yes, c=no</text>
</g>
<!-- n14&#45;&gt;n17 -->
<g id="edge18" class="edge">
<title>n14&#45;&gt;n17</title>
<path fill="none" stroke="black" d="M1217.01,-556.77C1237.54,-545.59 1260.46,-533.1 1281.58,-521.59"/>
<polygon fill="black" stroke="black" points="1283.41,-524.58 1290.51,-516.73 1280.06,-518.44 1283.41,-524.58"/>
</g>
<!-- n16 -->
<g id="node20" class="node">
<title>n16</title>
<ellipse fill="#DA79E8" stroke="black" cx="953.73" cy="-370.34" rx="190.84" ry="37.45"/>
<text text-anchor="middle" x="953.73" y="-381.64" font-family="Times,serif" font-size="14.00">Bradley</text>
<text text-anchor="middle" x="953.73" y="-366.64" font-family="Times,serif" font-size="14.00">np00000 (pobj)</text>
<text text-anchor="middle" x="953.73" y="-351.64" font-family="Times,serif" font-size="14.00">rep=no, t=no, r=yes, m=yes, c=no</text>
</g>
<!-- n15&#45;&gt;n16 -->
<g id="edge19" class="edge">
<title>n15&#45;&gt;n16</title>
<path fill="none" stroke="black" d="M953.73,-443.71C953.73,-435.53 953.73,-426.75 953.73,-418.23"/>
<polygon fill="black" stroke="black" points="957.23,-418.01 953.73,-408.01 950.23,-418.01 957.23,-418.01"/>
</g>
<!-- n19 -->
<g id="node21" class="node">
<title>n19</title>
<ellipse fill="#DA79E8" stroke="black" cx="1353.73" cy="-370.34" rx="190.84" ry="37.45"/>
<text text-anchor="middle" x="1353.73" y="-381.64" font-family="Times,serif" font-size="14.00">fin</text>
<text text-anchor="middle" x="1353.73" y="-366.64" font-family="Times,serif" font-size="14.00">ncms000 (pobj)</text>
<text text-anchor="middle" x="1353.73" y="-351.64" font-family="Times,serif" font-size="14.00">rep=no, t=no, r=yes, m=yes, c=no</text>
</g>
<!-- n17&#45;&gt;n19 -->
<g id="edge20" class="edge">
<title>n17&#45;&gt;n19</title>
<path fill="none" stroke="black" d="M1353.73,-443.71C1353.73,-435.53 1353.73,-426.75 1353.73,-418.23"/>
<polygon fill="black" stroke="black" points="1357.23,-418.01 1353.73,-408.01 1350.23,-418.01 1357.23,-418.01"/>
</g>
<!-- n18 -->
<g id="node22" class="node">
<title>n18</title>
<ellipse fill="#DA79E8" stroke="black" cx="553.73" cy="-259.38" rx="190.84" ry="37.45"/>
<text text-anchor="middle" x="553.73" y="-270.68" font-family="Times,serif" font-size="14.00">el</text>
<text text-anchor="middle" x="553.73" y="-255.68" font-family="Times,serif" font-size="14.00">da0ms0 (det)</text>
<text text-anchor="middle" x="553.73" y="-240.68" font-family="Times,serif" font-size="14.00">rep=no, t=no, r=yes, m=yes, c=no</text>
</g>
<!-- n19&#45;&gt;n18 -->
<g id="edge21" class="edge">
<title>n19&#45;&gt;n18</title>
<path fill="none" stroke="black" d="M1220.86,-343.37C1198.51,-339.5 1175.5,-335.82 1153.73,-332.86 976.86,-308.82 930.6,-320.9 753.73,-296.86 735.19,-294.34 715.75,-291.3 696.58,-288.06"/>
<polygon fill="black" stroke="black" points="697.04,-284.59 686.59,-286.35 695.86,-291.49 697.04,-284.59"/>
</g>
<!-- n20 -->
<g id="node23" class="node">
<title>n20</title>
<ellipse fill="#DA79E8" stroke="black" cx="953.73" cy="-259.38" rx="190.84" ry="37.45"/>
<text text-anchor="middle" x="953.73" y="-270.68" font-family="Times,serif" font-size="14.00">de</text>
<text text-anchor="middle" x="953.73" y="-255.68" font-family="Times,serif" font-size="14.00">sps00 (prepn)</text>
<text text-anchor="middle" x="953.73" y="-240.68" font-family="Times,serif" font-size="14.00">rep=no, t=no, r=yes, m=yes, c=no</text>
</g>
<!-- n19&#45;&gt;n20 -->
<g id="edge22" class="edge">
<title>n19&#45;&gt;n20</title>
<path fill="none" stroke="black" d="M1244.42,-339.56C1191.29,-325.09 1127.32,-307.67 1072.93,-292.85"/>
<polygon fill="black" stroke="black" points="1073.81,-289.46 1063.24,-290.21 1071.97,-296.22 1073.81,-289.46"/>
</g>
<!-- n22 -->
<g id="node24" class="node">
<title>n22</title>
<ellipse fill="#DA79E8" stroke="black" cx="1353.73" cy="-259.38" rx="190.84" ry="37.45"/>
<text text-anchor="middle" x="1353.73" y="-270.68" font-family="Times,serif" font-size="14.00">,</text>
<text text-anchor="middle" x="1353.73" y="-255.68" font-family="Times,serif" font-size="14.00">fc (punct)</text>
<text text-anchor="middle" x="1353.73" y="-240.68" font-family="Times,serif" font-size="14.00">rep=no, t=no, r=yes, m=yes, c=no</text>
</g>
<!-- n19&#45;&gt;n22 -->
<g id="edge23" class="edge">
<title>n19&#45;&gt;n22</title>
<path fill="none" stroke="black" d="M1353.73,-332.75C1353.73,-324.58 1353.73,-315.8 1353.73,-307.27"/>
<polygon fill="black" stroke="black" points="1357.23,-307.06 1353.73,-297.06 1350.23,-307.06 1357.23,-307.06"/>
</g>
<!-- n24 -->
<g id="node25" class="node">
<title>n24</title>
<ellipse fill="none" stroke="black" cx="1748.73" cy="-259.38" rx="185.94" ry="37.45"/>
<text text-anchor="middle" x="1748.73" y="-270.68" font-family="Times,serif" font-size="14.00">atacó</text>
<text text-anchor="middle" x="1748.73" y="-255.68" font-family="Times,serif" font-size="14.00">vmis3s0 (rcmod)</text>
<text text-anchor="middle" x="1748.73" y="-240.68" font-family="Times,serif" font-size="14.00">rep=no, t=no, r=no, m=yes, c=no</text>
</g>
<!-- n19&#45;&gt;n24 -->
<g id="edge24" class="edge">
<title>n19&#45;&gt;n24</title>
<path fill="none" stroke="black" d="M1462.18,-339.42C1514.65,-324.95 1577.71,-307.56 1631.3,-292.77"/>
<polygon fill="black" stroke="black" points="1632.49,-296.08 1641.19,-290.04 1630.62,-289.33 1632.49,-296.08"/>
</g>
<!-- n29 -->
<g id="node26" class="node">
<title>n29</title>
<ellipse fill="#DA79E8" stroke="black" cx="2143.73" cy="-259.38" rx="190.84" ry="37.45"/>
<text text-anchor="middle" x="2143.73" y="-270.68" font-family="Times,serif" font-size="14.00">,</text>
<text text-anchor="middle" x="2143.73" y="-255.68" font-family="Times,serif" font-size="14.00">fc (punct)</text>
<text text-anchor="middle" x="2143.73" y="-240.68" font-family="Times,serif" font-size="14.00">rep=no, t=no, r=yes, m=yes, c=no</text>
</g>
<!-- n19&#45;&gt;n29 -->
<g id="edge25" class="edge">
<title>n19&#45;&gt;n29</title>
<path fill="none" stroke="black" d="M1519.39,-351.59C1637.83,-338.27 1800.9,-318.64 1943.73,-296.86 1961.69,-294.12 1980.53,-291.01 1999.15,-287.78"/>
<polygon fill="black" stroke="black" points="1999.91,-291.2 2009.16,-286.03 1998.71,-284.3 1999.91,-291.2"/>
</g>
<!-- n21 -->
<g id="node27" class="node">
<title>n21</title>
<ellipse fill="#DA79E8" stroke="black" cx="953.73" cy="-148.43" rx="190.84" ry="37.45"/>
<text text-anchor="middle" x="953.73" y="-159.73" font-family="Times,serif" font-size="14.00">semana</text>
<text text-anchor="middle" x="953.73" y="-144.73" font-family="Times,serif" font-size="14.00">ncfs000 (pobj)</text>
<text text-anchor="middle" x="953.73" y="-129.73" font-family="Times,serif" font-size="14.00">rep=no, t=no, r=yes, m=yes, c=no</text>
</g>
<!-- n20&#45;&gt;n21 -->
<g id="edge26" class="edge">
<title>n20&#45;&gt;n21</title>
<path fill="none" stroke="black" d="M953.73,-221.8C953.73,-213.63 953.73,-204.85 953.73,-196.32"/>
<polygon fill="black" stroke="black" points="957.23,-196.1 953.73,-186.1 950.23,-196.1 957.23,-196.1"/>
</g>
<!-- n23 -->
<g id="node28" class="node">
<title>n23</title>
<ellipse fill="none" stroke="black" cx="1358.73" cy="-148.43" rx="185.94" ry="37.45"/>
<text text-anchor="middle" x="1358.73" y="-159.73" font-family="Times,serif" font-size="14.00">cuando</text>
<text text-anchor="middle" x="1358.73" y="-144.73" font-family="Times,serif" font-size="14.00">pr000000 (dobj)</text>
<text text-anchor="middle" x="1358.73" y="-129.73" font-family="Times,serif" font-size="14.00">rep=no, t=no, r=no, m=yes, c=no</text>
</g>
<!-- n24&#45;&gt;n23 -->
<g id="edge27" class="edge">
<title>n24&#45;&gt;n23</title>
<path fill="none" stroke="black" d="M1642.16,-228.61C1590.35,-214.14 1527.98,-196.71 1474.95,-181.9"/>
<polygon fill="black" stroke="black" points="1475.74,-178.49 1465.17,-179.17 1473.86,-185.23 1475.74,-178.49"/>
</g>
<!-- n25 -->
<g id="node29" class="node">
<title>n25</title>
<ellipse fill="none" stroke="black" cx="1748.73" cy="-148.43" rx="185.94" ry="37.45"/>
<text text-anchor="middle" x="1748.73" y="-159.73" font-family="Times,serif" font-size="14.00">sin</text>
<text text-anchor="middle" x="1748.73" y="-144.73" font-family="Times,serif" font-size="14.00">sps00 (prepv)</text>
<text text-anchor="middle" x="1748.73" y="-129.73" font-family="Times,serif" font-size="14.00">rep=no, t=no, r=no, m=yes, c=no</text>
</g>
<!-- n24&#45;&gt;n25 -->
<g id="edge28" class="edge">
<title>n24&#45;&gt;n25</title>
<path fill="none" stroke="black" d="M1748.73,-221.8C1748.73,-213.63 1748.73,-204.85 1748.73,-196.32"/>
<polygon fill="black" stroke="black" points="1752.23,-196.1 1748.73,-186.1 1745.23,-196.1 1752.23,-196.1"/>
</g>
<!-- n28 -->
<g id="node30" class="node">
<title>n28</title>
<ellipse fill="none" stroke="black" cx="2138.73" cy="-148.43" rx="185.94" ry="37.45"/>
<text text-anchor="middle" x="2138.73" y="-159.73" font-family="Times,serif" font-size="14.00">carácter</text>
<text text-anchor="middle" x="2138.73" y="-144.73" font-family="Times,serif" font-size="14.00">ncms000 (dobj)</text>
<text text-anchor="middle" x="2138.73" y="-129.73" font-family="Times,serif" font-size="14.00">rep=no, t=no, r=no, m=yes, c=no</text>
</g>
<!-- n24&#45;&gt;n28 -->
<g id="edge29" class="edge">
<title>n24&#45;&gt;n28</title>
<path fill="none" stroke="black" d="M1855.3,-228.61C1907.1,-214.14 1969.47,-196.71 2022.5,-181.9"/>
<polygon fill="black" stroke="black" points="2023.6,-185.23 2032.29,-179.17 2021.71,-178.49 2023.6,-185.23"/>
</g>
<!-- n26 -->
<g id="node31" class="node">
<title>n26</title>
<ellipse fill="none" stroke="black" cx="1748.73" cy="-37.48" rx="185.94" ry="37.45"/>
<text text-anchor="middle" x="1748.73" y="-48.78" font-family="Times,serif" font-size="14.00">piedad</text>
<text text-anchor="middle" x="1748.73" y="-33.78" font-family="Times,serif" font-size="14.00">ncfs000 (pobj)</text>
<text text-anchor="middle" x="1748.73" y="-18.78" font-family="Times,serif" font-size="14.00">rep=no, t=no, r=no, m=yes, c=no</text>
</g>
<!-- n25&#45;&gt;n26 -->
<g id="edge30" class="edge">
<title>n25&#45;&gt;n26</title>
<path fill="none" stroke="black" d="M1748.73,-110.85C1748.73,-102.67 1748.73,-93.89 1748.73,-85.37"/>
<polygon fill="black" stroke="black" points="1752.23,-85.15 1748.73,-75.15 1745.23,-85.15 1752.23,-85.15"/>
</g>
<!-- n27 -->
<g id="node32" class="node">
<title>n27</title>
<ellipse fill="none" stroke="black" cx="2138.73" cy="-37.48" rx="185.94" ry="37.45"/>
<text text-anchor="middle" x="2138.73" y="-48.78" font-family="Times,serif" font-size="14.00">su</text>
<text text-anchor="middle" x="2138.73" y="-33.78" font-family="Times,serif" font-size="14.00">dp3cs0 (poss)</text>
<text text-anchor="middle" x="2138.73" y="-18.78" font-family="Times,serif" font-size="14.00">rep=no, t=no, r=no, m=yes, c=no</text>
</g>
<!-- n28&#45;&gt;n27 -->
<g id="edge31" class="edge">
<title>n28&#45;&gt;n27</title>
<path fill="none" stroke="black" d="M2138.73,-110.85C2138.73,-102.67 2138.73,-93.89 2138.73,-85.37"/>
<polygon fill="black" stroke="black" points="2142.23,-85.15 2138.73,-75.15 2135.23,-85.15 2142.23,-85.15"/>
</g>
<!-- n32 -->
<g id="node34" class="node">
<title>n32</title>
<ellipse fill="none" stroke="black" cx="1344.73" cy="-1147.01" rx="181.95" ry="37.45"/>
<text text-anchor="middle" x="1344.73" y="-1158.31" font-family="Times,serif" font-size="14.00">un</text>
<text text-anchor="middle" x="1344.73" y="-1143.31" font-family="Times,serif" font-size="14.00">di0ms0 (det)</text>
<text text-anchor="middle" x="1344.73" y="-1128.31" font-family="Times,serif" font-size="14.00">rep=no, t=no, r=no, m=no, c=no</text>
</g>
<!-- n33&#45;&gt;n32 -->
<g id="edge33" class="edge">
<title>n33&#45;&gt;n32</title>
<path fill="none" stroke="black" d="M1474.61,-1222.49C1455.19,-1211.36 1433.52,-1198.93 1413.53,-1187.46"/>
<polygon fill="black" stroke="black" points="1415.19,-1184.38 1404.78,-1182.45 1411.71,-1190.46 1415.19,-1184.38"/>
</g>
<!-- n34 -->
<g id="node35" class="node">
<title>n34</title>
<ellipse fill="none" stroke="black" cx="1725.73" cy="-1147.01" rx="181.95" ry="37.45"/>
<text text-anchor="middle" x="1725.73" y="-1158.31" font-family="Times,serif" font-size="14.00">de</text>
<text text-anchor="middle" x="1725.73" y="-1143.31" font-family="Times,serif" font-size="14.00">sps00 (prepn)</text>
<text text-anchor="middle" x="1725.73" y="-1128.31" font-family="Times,serif" font-size="14.00">rep=no, t=no, r=no, m=no, c=no</text>
</g>
<!-- n33&#45;&gt;n34 -->
<g id="edge34" class="edge">
<title>n33&#45;&gt;n34</title>
<path fill="none" stroke="black" d="M1595.16,-1222.49C1614.68,-1211.36 1636.46,-1198.93 1656.56,-1187.46"/>
<polygon fill="black" stroke="black" points="1658.41,-1190.44 1665.36,-1182.45 1654.94,-1184.36 1658.41,-1190.44"/>
</g>
<!-- n39 -->
<g id="node36" class="node">
<title>n39</title>
<ellipse fill="none" stroke="black" cx="2106.73" cy="-1147.01" rx="181.95" ry="37.45"/>
<text text-anchor="middle" x="2106.73" y="-1158.31" font-family="Times,serif" font-size="14.00">en</text>
<text text-anchor="middle" x="2106.73" y="-1143.31" font-family="Times,serif" font-size="14.00">sps00 (prepn)</text>
<text text-anchor="middle" x="2106.73" y="-1128.31" font-family="Times,serif" font-size="14.00">rep=no, t=no, r=no, m=no, c=no</text>
</g>
<!-- n33&#45;&gt;n39 -->
<g id="edge35" class="edge">
<title>n33&#45;&gt;n39</title>
<path fill="none" stroke="black" d="M1666.45,-1232.04C1740.08,-1218.1 1833.51,-1200.37 1916.73,-1184.49 1932.79,-1181.42 1949.62,-1178.2 1966.34,-1175"/>
<polygon fill="black" stroke="black" points="1967,-1178.43 1976.16,-1173.11 1965.68,-1171.56 1967,-1178.43"/>
</g>
<!-- n36 -->
<g id="node37" class="node">
<title>n36</title>
<ellipse fill="none" stroke="black" cx="1725.73" cy="-1036.06" rx="181.95" ry="37.45"/>
<text text-anchor="middle" x="1725.73" y="-1047.36" font-family="Times,serif" font-size="14.00">escaramuzas</text>
<text text-anchor="middle" x="1725.73" y="-1032.36" font-family="Times,serif" font-size="14.00">ncfp000 (pobj)</text>
<text text-anchor="middle" x="1725.73" y="-1017.36" font-family="Times,serif" font-size="14.00">rep=no, t=no, r=no, m=no, c=no</text>
</g>
<!-- n34&#45;&gt;n36 -->
<g id="edge36" class="edge">
<title>n34&#45;&gt;n36</title>
<path fill="none" stroke="black" d="M1725.73,-1109.43C1725.73,-1101.25 1725.73,-1092.47 1725.73,-1083.95"/>
<polygon fill="black" stroke="black" points="1729.23,-1083.73 1725.73,-1073.73 1722.23,-1083.73 1729.23,-1083.73"/>
</g>
<!-- n42 -->
<g id="node41" class="node">
<title>n42</title>
<ellipse fill="none" stroke="black" cx="2106.73" cy="-1036.06" rx="181.95" ry="37.45"/>
<text text-anchor="middle" x="2106.73" y="-1047.36" font-family="Times,serif" font-size="14.00">contiendas</text>
<text text-anchor="middle" x="2106.73" y="-1032.36" font-family="Times,serif" font-size="14.00">ncfp000 (pobj)</text>
<text text-anchor="middle" x="2106.73" y="-1017.36" font-family="Times,serif" font-size="14.00">rep=no, t=no, r=no, m=no, c=no</text>
</g>
<!-- n39&#45;&gt;n42 -->
<g id="edge40" class="edge">
<title>n39&#45;&gt;n42</title>
<path fill="none" stroke="black" d="M2106.73,-1109.43C2106.73,-1101.25 2106.73,-1092.47 2106.73,-1083.95"/>
<polygon fill="black" stroke="black" points="2110.23,-1083.73 2106.73,-1073.73 2103.23,-1083.73 2110.23,-1083.73"/>
</g>
<!-- n35 -->
<g id="node38" class="node">
<title>n35</title>
<ellipse fill="none" stroke="black" cx="1344.73" cy="-925.1" rx="181.95" ry="37.45"/>
<text text-anchor="middle" x="1344.73" y="-936.4" font-family="Times,serif" font-size="14.00">las</text>
<text text-anchor="middle" x="1344.73" y="-921.4" font-family="Times,serif" font-size="14.00">da0fp0 (det)</text>
<text text-anchor="middle" x="1344.73" y="-906.4" font-family="Times,serif" font-size="14.00">rep=no, t=no, r=no, m=no, c=no</text>
</g>
<!-- n36&#45;&gt;n35 -->
<g id="edge37" class="edge">
<title>n36&#45;&gt;n35</title>
<path fill="none" stroke="black" d="M1621.62,-1005.28C1571.11,-990.84 1510.33,-973.46 1458.6,-958.67"/>
<polygon fill="black" stroke="black" points="1459.29,-955.22 1448.71,-955.84 1457.36,-961.95 1459.29,-955.22"/>
</g>
<!-- n37 -->
<g id="node39" class="node">
<title>n37</title>
<ellipse fill="none" stroke="black" cx="1725.73" cy="-925.1" rx="181.95" ry="37.45"/>
<text text-anchor="middle" x="1725.73" y="-936.4" font-family="Times,serif" font-size="14.00">entre</text>
<text text-anchor="middle" x="1725.73" y="-921.4" font-family="Times,serif" font-size="14.00">sps00 (prepn)</text>
<text text-anchor="middle" x="1725.73" y="-906.4" font-family="Times,serif" font-size="14.00">rep=no, t=no, r=no, m=no, c=no</text>
</g>
<!-- n36&#45;&gt;n37 -->
<g id="edge38" class="edge">
<title>n36&#45;&gt;n37</title>
<path fill="none" stroke="black" d="M1725.73,-998.47C1725.73,-990.3 1725.73,-981.52 1725.73,-972.99"/>
<polygon fill="black" stroke="black" points="1729.23,-972.78 1725.73,-962.78 1722.23,-972.78 1729.23,-972.78"/>
</g>
<!-- n38 -->
<g id="node40" class="node">
<title>n38</title>
<ellipse fill="none" stroke="black" cx="1725.73" cy="-814.15" rx="181.95" ry="37.45"/>
<text text-anchor="middle" x="1725.73" y="-825.45" font-family="Times,serif" font-size="14.00">ambos</text>
<text text-anchor="middle" x="1725.73" y="-810.45" font-family="Times,serif" font-size="14.00">pn0mp000 (pobj)</text>
<text text-anchor="middle" x="1725.73" y="-795.45" font-family="Times,serif" font-size="14.00">rep=no, t=no, r=no, m=no, c=no</text>
</g>
<!-- n37&#45;&gt;n38 -->
<g id="edge39" class="edge">
<title>n37&#45;&gt;n38</title>
<path fill="none" stroke="black" d="M1725.73,-887.52C1725.73,-879.35 1725.73,-870.57 1725.73,-862.04"/>
<polygon fill="black" stroke="black" points="1729.23,-861.82 1725.73,-851.82 1722.23,-861.82 1729.23,-861.82"/>
</g>
<!-- n40 -->
<g id="node42" class="node">
<title>n40</title>
<ellipse fill="none" stroke="black" cx="2106.73" cy="-925.1" rx="181.95" ry="37.45"/>
<text text-anchor="middle" x="2106.73" y="-936.4" font-family="Times,serif" font-size="14.00">las</text>
<text text-anchor="middle" x="2106.73" y="-921.4" font-family="Times,serif" font-size="14.00">da0fp0 (det)</text>
<text text-anchor="middle" x="2106.73" y="-906.4" font-family="Times,serif" font-size="14.00">rep=no, t=no, r=no, m=no, c=no</text>
</g>
<!-- n42&#45;&gt;n40 -->
<g id="edge41" class="edge">
<title>n42&#45;&gt;n40</title>
<path fill="none" stroke="black" d="M2106.73,-998.47C2106.73,-990.3 2106.73,-981.52 2106.73,-972.99"/>
<polygon fill="black" stroke="black" points="2110.23,-972.78 2106.73,-962.78 2103.23,-972.78 2110.23,-972.78"/>
</g>
<!-- n41 -->
<g id="node43" class="node">
<title>n41</title>
<ellipse fill="none" stroke="black" cx="2487.73" cy="-925.1" rx="181.95" ry="37.45"/>
<text text-anchor="middle" x="2487.73" y="-936.4" font-family="Times,serif" font-size="14.00">próximas</text>
<text text-anchor="middle" x="2487.73" y="-921.4" font-family="Times,serif" font-size="14.00">aq0fp0 (amod)</text>
<text text-anchor="middle" x="2487.73" y="-906.4" font-family="Times,serif" font-size="14.00">rep=no, t=no, r=no, m=no, c=no</text>
</g>
<!-- n42&#45;&gt;n41 -->
<g id="edge42" class="edge">
<title>n42&#45;&gt;n41</title>
<path fill="none" stroke="black" d="M2210.84,-1005.28C2261.34,-990.84 2322.12,-973.46 2373.86,-958.67"/>
<polygon fill="black" stroke="black" points="2375.09,-961.95 2383.74,-955.84 2373.17,-955.22 2375.09,-961.95"/>
</g>
</g>
</svg>
