<?xml version="1.0" encoding="UTF-8" standalone="no"?>
<!DOCTYPE svg PUBLIC "-//W3C//DTD SVG 1.1//EN"
 "http://www.w3.org/Graphics/SVG/1.1/DTD/svg11.dtd">
<!-- Generated by graphviz version 2.43.0 (0)
 -->
<!-- Title: tree Pages: 1 -->
<svg width="5686pt" height="1303pt"
 viewBox="0.00 0.00 5685.70 1303.44" xmlns="http://www.w3.org/2000/svg" xmlns:xlink="http://www.w3.org/1999/xlink">
<g id="graph0" class="graph" transform="scale(1 1) rotate(0) translate(4 1299.44)">
<title>tree</title>
<polygon fill="white" stroke="transparent" points="-4,4 -4,-1299.44 5681.7,-1299.44 5681.7,4 -4,4"/>
<!-- n12 -->
<g id="node1" class="node">
<title>n12</title>
<ellipse fill="#DA79E8" stroke="black" cx="2980.97" cy="-1257.96" rx="190.84" ry="37.45"/>
<text text-anchor="middle" x="2980.97" y="-1269.26" font-family="Times,serif" font-size="14.00">llamó</text>
<text text-anchor="middle" x="2980.97" y="-1254.26" font-family="Times,serif" font-size="14.00">vmis3s0 (root)</text>
<text text-anchor="middle" x="2980.97" y="-1239.26" font-family="Times,serif" font-size="14.00">rep=no, t=no, r=yes, m=yes, c=no</text>
</g>
<!-- n1 -->
<g id="node2" class="node">
<title>n1</title>
<ellipse fill="none" stroke="black" cx="794.97" cy="-1147.01" rx="185.94" ry="37.45"/>
<text text-anchor="middle" x="794.97" y="-1158.31" font-family="Times,serif" font-size="14.00">Horas</text>
<text text-anchor="middle" x="794.97" y="-1143.31" font-family="Times,serif" font-size="14.00">ncfp000 (tmod)</text>
<text text-anchor="middle" x="794.97" y="-1128.31" font-family="Times,serif" font-size="14.00">rep=no, t=no, r=no, m=yes, c=no</text>
</g>
<!-- n12&#45;&gt;n1 -->
<g id="edge1" class="edge">
<title>n12&#45;&gt;n1</title>
<path fill="none" stroke="black" d="M2794.92,-1249.32C2499.18,-1236.96 1903.63,-1211.28 1398.97,-1184.49 1258.81,-1177.04 1100.43,-1167.43 981.03,-1159.95"/>
<polygon fill="black" stroke="black" points="980.89,-1156.43 970.69,-1159.3 980.45,-1163.42 980.89,-1156.43"/>
</g>
<!-- n3 -->
<g id="node3" class="node">
<title>n3</title>
<ellipse fill="none" stroke="black" cx="1589.97" cy="-1147.01" rx="181.95" ry="37.45"/>
<text text-anchor="middle" x="1589.97" y="-1158.31" font-family="Times,serif" font-size="14.00">,</text>
<text text-anchor="middle" x="1589.97" y="-1143.31" font-family="Times,serif" font-size="14.00">fc (punct)</text>
<text text-anchor="middle" x="1589.97" y="-1128.31" font-family="Times,serif" font-size="14.00">rep=no, t=no, r=no, m=no, c=no</text>
</g>
<!-- n12&#45;&gt;n3 -->
<g id="edge2" class="edge">
<title>n12&#45;&gt;n3</title>
<path fill="none" stroke="black" d="M2791.66,-1253.03C2554.6,-1246.39 2136.4,-1228.97 1780.97,-1184.49 1762.8,-1182.21 1743.75,-1179.26 1725.01,-1176.03"/>
<polygon fill="black" stroke="black" points="1725.4,-1172.54 1714.95,-1174.26 1724.19,-1179.44 1725.4,-1172.54"/>
</g>
<!-- n6 -->
<g id="node4" class="node">
<title>n6</title>
<ellipse fill="#BEDA48" stroke="black" cx="1980.97" cy="-1147.01" rx="190.84" ry="37.45"/>
<text text-anchor="middle" x="1980.97" y="-1158.31" font-family="Times,serif" font-size="14.00">ministro</text>
<text text-anchor="middle" x="1980.97" y="-1143.31" font-family="Times,serif" font-size="14.00">ncms000 (nsubj)</text>
<text text-anchor="middle" x="1980.97" y="-1128.31" font-family="Times,serif" font-size="14.00">rep=no, t=yes, r=no, m=yes, c=no</text>
</g>
<!-- n12&#45;&gt;n6 -->
<g id="edge3" class="edge">
<title>n12&#45;&gt;n6</title>
<path fill="none" stroke="black" d="M2816.12,-1239C2634.1,-1219.17 2342.26,-1187.37 2156.19,-1167.1"/>
<polygon fill="black" stroke="black" points="2156.35,-1163.6 2146.03,-1165.99 2155.59,-1170.56 2156.35,-1163.6"/>
</g>
<!-- n13 -->
<g id="node5" class="node">
<title>n13</title>
<ellipse fill="#DA79E8" stroke="black" cx="2780.97" cy="-1147.01" rx="190.84" ry="37.45"/>
<text text-anchor="middle" x="2780.97" y="-1158.31" font-family="Times,serif" font-size="14.00">a</text>
<text text-anchor="middle" x="2780.97" y="-1143.31" font-family="Times,serif" font-size="14.00">sps00 (dobj)</text>
<text text-anchor="middle" x="2780.97" y="-1128.31" font-family="Times,serif" font-size="14.00">rep=no, t=no, r=yes, m=yes, c=no</text>
</g>
<!-- n12&#45;&gt;n13 -->
<g id="edge4" class="edge">
<title>n12&#45;&gt;n13</title>
<path fill="none" stroke="black" d="M2917.69,-1222.49C2897.16,-1211.31 2874.23,-1198.82 2853.11,-1187.31"/>
<polygon fill="black" stroke="black" points="2854.64,-1184.16 2844.18,-1182.45 2851.29,-1190.3 2854.64,-1184.16"/>
</g>
<!-- n16 -->
<g id="node6" class="node">
<title>n16</title>
<ellipse fill="#DA79E8" stroke="black" cx="3180.97" cy="-1147.01" rx="190.84" ry="37.45"/>
<text text-anchor="middle" x="3180.97" y="-1158.31" font-family="Times,serif" font-size="14.00">a</text>
<text text-anchor="middle" x="3180.97" y="-1143.31" font-family="Times,serif" font-size="14.00">sps00 (oobj)</text>
<text text-anchor="middle" x="3180.97" y="-1128.31" font-family="Times,serif" font-size="14.00">rep=no, t=no, r=yes, m=yes, c=no</text>
</g>
<!-- n12&#45;&gt;n16 -->
<g id="edge5" class="edge">
<title>n12&#45;&gt;n16</title>
<path fill="none" stroke="black" d="M3044.25,-1222.49C3064.78,-1211.31 3087.7,-1198.82 3108.83,-1187.31"/>
<polygon fill="black" stroke="black" points="3110.65,-1190.3 3117.76,-1182.45 3107.3,-1184.16 3110.65,-1190.3"/>
</g>
<!-- n34 -->
<g id="node7" class="node">
<title>n34</title>
<ellipse fill="none" stroke="black" cx="3571.97" cy="-1147.01" rx="181.95" ry="37.45"/>
<text text-anchor="middle" x="3571.97" y="-1158.31" font-family="Times,serif" font-size="14.00">,</text>
<text text-anchor="middle" x="3571.97" y="-1143.31" font-family="Times,serif" font-size="14.00">fc (punct)</text>
<text text-anchor="middle" x="3571.97" y="-1128.31" font-family="Times,serif" font-size="14.00">rep=no, t=no, r=no, m=no, c=no</text>
</g>
<!-- n12&#45;&gt;n34 -->
<g id="edge6" class="edge">
<title>n12&#45;&gt;n34</title>
<path fill="none" stroke="black" d="M3119.87,-1232.13C3196.84,-1218.28 3294.24,-1200.63 3380.97,-1184.49 3397.27,-1181.45 3414.34,-1178.24 3431.3,-1175.03"/>
<polygon fill="black" stroke="black" points="3432.09,-1178.44 3441.26,-1173.14 3430.78,-1171.57 3432.09,-1178.44"/>
</g>
<!-- n35 -->
<g id="node8" class="node">
<title>n35</title>
<ellipse fill="none" stroke="black" cx="3952.97" cy="-1147.01" rx="181.95" ry="37.45"/>
<text text-anchor="middle" x="3952.97" y="-1158.31" font-family="Times,serif" font-size="14.00">si</text>
<text text-anchor="middle" x="3952.97" y="-1143.31" font-family="Times,serif" font-size="14.00">cs (advcl)</text>
<text text-anchor="middle" x="3952.97" y="-1128.31" font-family="Times,serif" font-size="14.00">rep=no, t=no, r=no, m=no, c=no</text>
</g>
<!-- n12&#45;&gt;n35 -->
<g id="edge7" class="edge">
<title>n12&#45;&gt;n35</title>
<path fill="none" stroke="black" d="M3160.91,-1245.28C3319.79,-1233.78 3557.44,-1213.67 3762.97,-1184.49 3780.44,-1182.01 3798.73,-1179.01 3816.79,-1175.81"/>
<polygon fill="black" stroke="black" points="3817.56,-1179.23 3826.78,-1174.01 3816.32,-1172.34 3817.56,-1179.23"/>
</g>
<!-- n52 -->
<g id="node9" class="node">
<title>n52</title>
<ellipse fill="none" stroke="black" cx="4333.97" cy="-1147.01" rx="181.95" ry="37.45"/>
<text text-anchor="middle" x="4333.97" y="-1158.31" font-family="Times,serif" font-size="14.00">.</text>
<text text-anchor="middle" x="4333.97" y="-1143.31" font-family="Times,serif" font-size="14.00">fp (punct)</text>
<text text-anchor="middle" x="4333.97" y="-1128.31" font-family="Times,serif" font-size="14.00">rep=no, t=no, r=no, m=no, c=no</text>
</g>
<!-- n12&#45;&gt;n52 -->
<g id="edge8" class="edge">
<title>n12&#45;&gt;n52</title>
<path fill="none" stroke="black" d="M3170,-1252.58C3400.7,-1245.53 3802.28,-1227.75 4143.97,-1184.49 4161.91,-1182.22 4180.7,-1179.29 4199.2,-1176.08"/>
<polygon fill="black" stroke="black" points="4199.89,-1179.51 4209.13,-1174.32 4198.68,-1172.61 4199.89,-1179.51"/>
</g>
<!-- n2 -->
<g id="node10" class="node">
<title>n2</title>
<ellipse fill="none" stroke="black" cx="185.97" cy="-1036.06" rx="185.94" ry="37.45"/>
<text text-anchor="middle" x="185.97" y="-1047.36" font-family="Times,serif" font-size="14.00">antes</text>
<text text-anchor="middle" x="185.97" y="-1032.36" font-family="Times,serif" font-size="14.00">rg (advmod)</text>
<text text-anchor="middle" x="185.97" y="-1017.36" font-family="Times,serif" font-size="14.00">rep=no, t=no, r=no, m=yes, c=no</text>
</g>
<!-- n1&#45;&gt;n2 -->
<g id="edge9" class="edge">
<title>n1&#45;&gt;n2</title>
<path fill="none" stroke="black" d="M655.95,-1122.09C575.57,-1108.15 472.51,-1090.11 380.97,-1073.53 364.33,-1070.52 346.89,-1067.32 329.58,-1064.12"/>
<polygon fill="black" stroke="black" points="329.88,-1060.61 319.41,-1062.23 328.61,-1067.5 329.88,-1060.61"/>
</g>
<!-- n4 -->
<g id="node11" class="node">
<title>n4</title>
<ellipse fill="#BEDA48" stroke="black" cx="580.97" cy="-1036.06" rx="190.84" ry="37.45"/>
<text text-anchor="middle" x="580.97" y="-1047.36" font-family="Times,serif" font-size="14.00">el</text>
<text text-anchor="middle" x="580.97" y="-1032.36" font-family="Times,serif" font-size="14.00">da0ms0 (det)</text>
<text text-anchor="middle" x="580.97" y="-1017.36" font-family="Times,serif" font-size="14.00">rep=no, t=yes, r=no, m=yes, c=no</text>
</g>
<!-- n6&#45;&gt;n4 -->
<g id="edge10" class="edge">
<title>n6&#45;&gt;n4</title>
<path fill="none" stroke="black" d="M1850.92,-1119.49C1827.71,-1115.55 1803.69,-1112 1780.97,-1109.53 1338.84,-1061.51 1223.1,-1121.56 780.97,-1073.53 761.53,-1071.42 741.14,-1068.52 721.13,-1065.26"/>
<polygon fill="black" stroke="black" points="721.45,-1061.77 711.02,-1063.58 720.31,-1068.67 721.45,-1061.77"/>
</g>
<!-- n5 -->
<g id="node12" class="node">
<title>n5</title>
<ellipse fill="#BEDA48" stroke="black" cx="980.97" cy="-1036.06" rx="190.84" ry="37.45"/>
<text text-anchor="middle" x="980.97" y="-1047.36" font-family="Times,serif" font-size="14.00">primer</text>
<text text-anchor="middle" x="980.97" y="-1032.36" font-family="Times,serif" font-size="14.00">ao0ms0 (amod)</text>
<text text-anchor="middle" x="980.97" y="-1017.36" font-family="Times,serif" font-size="14.00">rep=no, t=yes, r=no, m=yes, c=no</text>
</g>
<!-- n6&#45;&gt;n5 -->
<g id="edge11" class="edge">
<title>n6&#45;&gt;n5</title>
<path fill="none" stroke="black" d="M1849.79,-1119.76C1826.92,-1115.85 1803.31,-1112.23 1780.97,-1109.53 1515.75,-1077.51 1446.19,-1105.56 1180.97,-1073.53 1161.86,-1071.23 1141.82,-1068.25 1122.1,-1064.99"/>
<polygon fill="black" stroke="black" points="1122.59,-1061.52 1112.14,-1063.31 1121.43,-1068.42 1122.59,-1061.52"/>
</g>
<!-- n7 -->
<g id="node13" class="node">
<title>n7</title>
<ellipse fill="#BEDA48" stroke="black" cx="1380.97" cy="-1036.06" rx="190.84" ry="37.45"/>
<text text-anchor="middle" x="1380.97" y="-1047.36" font-family="Times,serif" font-size="14.00">israelí</text>
<text text-anchor="middle" x="1380.97" y="-1032.36" font-family="Times,serif" font-size="14.00">aq0cs0 (amod)</text>
<text text-anchor="middle" x="1380.97" y="-1017.36" font-family="Times,serif" font-size="14.00">rep=no, t=yes, r=no, m=yes, c=no</text>
</g>
<!-- n6&#45;&gt;n7 -->
<g id="edge12" class="edge">
<title>n6&#45;&gt;n7</title>
<path fill="none" stroke="black" d="M1843.53,-1120.9C1822.58,-1117.08 1801.2,-1113.2 1780.97,-1109.53 1692.1,-1093.43 1669.84,-1089.64 1580.97,-1073.53 1563.9,-1070.44 1546.01,-1067.19 1528.25,-1063.96"/>
<polygon fill="black" stroke="black" points="1528.87,-1060.51 1518.4,-1062.17 1527.61,-1067.4 1528.87,-1060.51"/>
</g>
<!-- n8 -->
<g id="node14" class="node">
<title>n8</title>
<ellipse fill="#BEDA48" stroke="black" cx="1780.97" cy="-1036.06" rx="190.84" ry="37.45"/>
<text text-anchor="middle" x="1780.97" y="-1047.36" font-family="Times,serif" font-size="14.00">,</text>
<text text-anchor="middle" x="1780.97" y="-1032.36" font-family="Times,serif" font-size="14.00">fc (punct)</text>
<text text-anchor="middle" x="1780.97" y="-1017.36" font-family="Times,serif" font-size="14.00">rep=no, t=yes, r=no, m=yes, c=no</text>
</g>
<!-- n6&#45;&gt;n8 -->
<g id="edge13" class="edge">
<title>n6&#45;&gt;n8</title>
<path fill="none" stroke="black" d="M1917.69,-1111.54C1897.16,-1100.35 1874.23,-1087.86 1853.11,-1076.36"/>
<polygon fill="black" stroke="black" points="1854.64,-1073.2 1844.18,-1071.49 1851.29,-1079.35 1854.64,-1073.2"/>
</g>
<!-- n9 -->
<g id="node15" class="node">
<title>n9</title>
<ellipse fill="#BEDA48" stroke="black" cx="2180.97" cy="-1036.06" rx="190.84" ry="37.45"/>
<text text-anchor="middle" x="2180.97" y="-1047.36" font-family="Times,serif" font-size="14.00">Ehud</text>
<text text-anchor="middle" x="2180.97" y="-1032.36" font-family="Times,serif" font-size="14.00">np0000l (appos)</text>
<text text-anchor="middle" x="2180.97" y="-1017.36" font-family="Times,serif" font-size="14.00">rep=no, t=yes, r=no, m=yes, c=no</text>
</g>
<!-- n6&#45;&gt;n9 -->
<g id="edge14" class="edge">
<title>n6&#45;&gt;n9</title>
<path fill="none" stroke="black" d="M2044.25,-1111.54C2064.78,-1100.35 2087.7,-1087.86 2108.83,-1076.36"/>
<polygon fill="black" stroke="black" points="2110.65,-1079.35 2117.76,-1071.49 2107.3,-1073.2 2110.65,-1079.35"/>
</g>
<!-- n11 -->
<g id="node16" class="node">
<title>n11</title>
<ellipse fill="#BEDA48" stroke="black" cx="2580.97" cy="-1036.06" rx="190.84" ry="37.45"/>
<text text-anchor="middle" x="2580.97" y="-1047.36" font-family="Times,serif" font-size="14.00">,</text>
<text text-anchor="middle" x="2580.97" y="-1032.36" font-family="Times,serif" font-size="14.00">fc (punct)</text>
<text text-anchor="middle" x="2580.97" y="-1017.36" font-family="Times,serif" font-size="14.00">rep=no, t=yes, r=no, m=yes, c=no</text>
</g>
<!-- n6&#45;&gt;n11 -->
<g id="edge15" class="edge">
<title>n6&#45;&gt;n11</title>
<path fill="none" stroke="black" d="M2118.89,-1121.06C2195.99,-1107.1 2293.83,-1089.37 2380.97,-1073.53 2398.04,-1070.43 2415.92,-1067.17 2433.68,-1063.94"/>
<polygon fill="black" stroke="black" points="2434.32,-1067.38 2443.53,-1062.14 2433.07,-1060.49 2434.32,-1067.38"/>
</g>
<!-- n15 -->
<g id="node18" class="node">
<title>n15</title>
<ellipse fill="#DA79E8" stroke="black" cx="2980.97" cy="-1036.06" rx="190.84" ry="37.45"/>
<text text-anchor="middle" x="2980.97" y="-1047.36" font-family="Times,serif" font-size="14.00">Ejército</text>
<text text-anchor="middle" x="2980.97" y="-1032.36" font-family="Times,serif" font-size="14.00">np00000 (pobj)</text>
<text text-anchor="middle" x="2980.97" y="-1017.36" font-family="Times,serif" font-size="14.00">rep=no, t=no, r=yes, m=yes, c=no</text>
</g>
<!-- n13&#45;&gt;n15 -->
<g id="edge17" class="edge">
<title>n13&#45;&gt;n15</title>
<path fill="none" stroke="black" d="M2844.25,-1111.54C2864.78,-1100.35 2887.7,-1087.86 2908.83,-1076.36"/>
<polygon fill="black" stroke="black" points="2910.65,-1079.35 2917.76,-1071.49 2907.3,-1073.2 2910.65,-1079.35"/>
</g>
<!-- n17 -->
<g id="node20" class="node">
<title>n17</title>
<ellipse fill="#DA79E8" stroke="black" cx="3380.97" cy="-1036.06" rx="190.84" ry="37.45"/>
<text text-anchor="middle" x="3380.97" y="-1047.36" font-family="Times,serif" font-size="14.00">prepararse</text>
<text text-anchor="middle" x="3380.97" y="-1032.36" font-family="Times,serif" font-size="14.00">vmn0000 (pobj)</text>
<text text-anchor="middle" x="3380.97" y="-1017.36" font-family="Times,serif" font-size="14.00">rep=no, t=no, r=yes, m=yes, c=no</text>
</g>
<!-- n16&#45;&gt;n17 -->
<g id="edge19" class="edge">
<title>n16&#45;&gt;n17</title>
<path fill="none" stroke="black" d="M3244.25,-1111.54C3264.78,-1100.35 3287.7,-1087.86 3308.83,-1076.36"/>
<polygon fill="black" stroke="black" points="3310.65,-1079.35 3317.76,-1071.49 3307.3,-1073.2 3310.65,-1079.35"/>
</g>
<!-- n42 -->
<g id="node37" class="node">
<title>n42</title>
<ellipse fill="none" stroke="black" cx="4352.97" cy="-1036.06" rx="181.95" ry="37.45"/>
<text text-anchor="middle" x="4352.97" y="-1047.36" font-family="Times,serif" font-size="14.00">logran</text>
<text text-anchor="middle" x="4352.97" y="-1032.36" font-family="Times,serif" font-size="14.00">vmip3p0 (cobj)</text>
<text text-anchor="middle" x="4352.97" y="-1017.36" font-family="Times,serif" font-size="14.00">rep=no, t=no, r=no, m=no, c=no</text>
</g>
<!-- n35&#45;&gt;n42 -->
<g id="edge36" class="edge">
<title>n35&#45;&gt;n42</title>
<path fill="none" stroke="black" d="M4060.42,-1116.74C4114.56,-1101.99 4180.31,-1084.09 4235.75,-1068.99"/>
<polygon fill="black" stroke="black" points="4236.89,-1072.3 4245.62,-1066.3 4235.05,-1065.55 4236.89,-1072.3"/>
</g>
<!-- n10 -->
<g id="node17" class="node">
<title>n10</title>
<ellipse fill="#BEDA48" stroke="black" cx="2180.97" cy="-925.1" rx="190.84" ry="37.45"/>
<text text-anchor="middle" x="2180.97" y="-936.4" font-family="Times,serif" font-size="14.00">Barak</text>
<text text-anchor="middle" x="2180.97" y="-921.4" font-family="Times,serif" font-size="14.00">np0000l (appos)</text>
<text text-anchor="middle" x="2180.97" y="-906.4" font-family="Times,serif" font-size="14.00">rep=no, t=yes, r=no, m=yes, c=no</text>
</g>
<!-- n9&#45;&gt;n10 -->
<g id="edge16" class="edge">
<title>n9&#45;&gt;n10</title>
<path fill="none" stroke="black" d="M2180.97,-998.47C2180.97,-990.3 2180.97,-981.52 2180.97,-972.99"/>
<polygon fill="black" stroke="black" points="2184.47,-972.78 2180.97,-962.78 2177.47,-972.78 2184.47,-972.78"/>
</g>
<!-- n14 -->
<g id="node19" class="node">
<title>n14</title>
<ellipse fill="#DA79E8" stroke="black" cx="2980.97" cy="-925.1" rx="190.84" ry="37.45"/>
<text text-anchor="middle" x="2980.97" y="-936.4" font-family="Times,serif" font-size="14.00">su</text>
<text text-anchor="middle" x="2980.97" y="-921.4" font-family="Times,serif" font-size="14.00">dp3cs0 (poss)</text>
<text text-anchor="middle" x="2980.97" y="-906.4" font-family="Times,serif" font-size="14.00">rep=no, t=no, r=yes, m=yes, c=no</text>
</g>
<!-- n15&#45;&gt;n14 -->
<g id="edge18" class="edge">
<title>n15&#45;&gt;n14</title>
<path fill="none" stroke="black" d="M2980.97,-998.47C2980.97,-990.3 2980.97,-981.52 2980.97,-972.99"/>
<polygon fill="black" stroke="black" points="2984.47,-972.78 2980.97,-962.78 2977.47,-972.78 2984.47,-972.78"/>
</g>
<!-- n18 -->
<g id="node21" class="node">
<title>n18</title>
<ellipse fill="#DA79E8" stroke="black" cx="3380.97" cy="-925.1" rx="190.84" ry="37.45"/>
<text text-anchor="middle" x="3380.97" y="-936.4" font-family="Times,serif" font-size="14.00">ante</text>
<text text-anchor="middle" x="3380.97" y="-921.4" font-family="Times,serif" font-size="14.00">sps00 (prepv)</text>
<text text-anchor="middle" x="3380.97" y="-906.4" font-family="Times,serif" font-size="14.00">rep=no, t=no, r=yes, m=yes, c=no</text>
</g>
<!-- n17&#45;&gt;n18 -->
<g id="edge20" class="edge">
<title>n17&#45;&gt;n18</title>
<path fill="none" stroke="black" d="M3380.97,-998.47C3380.97,-990.3 3380.97,-981.52 3380.97,-972.99"/>
<polygon fill="black" stroke="black" points="3384.47,-972.78 3380.97,-962.78 3377.47,-972.78 3384.47,-972.78"/>
</g>
<!-- n20 -->
<g id="node22" class="node">
<title>n20</title>
<ellipse fill="#DA79E8" stroke="black" cx="3181.97" cy="-814.15" rx="190.84" ry="37.45"/>
<text text-anchor="middle" x="3181.97" y="-825.45" font-family="Times,serif" font-size="14.00">escalada</text>
<text text-anchor="middle" x="3181.97" y="-810.45" font-family="Times,serif" font-size="14.00">ncfs000 (pobj)</text>
<text text-anchor="middle" x="3181.97" y="-795.45" font-family="Times,serif" font-size="14.00">rep=no, t=no, r=yes, m=yes, c=no</text>
</g>
<!-- n18&#45;&gt;n20 -->
<g id="edge21" class="edge">
<title>n18&#45;&gt;n20</title>
<path fill="none" stroke="black" d="M3318,-889.63C3297.58,-878.45 3274.77,-865.96 3253.75,-854.45"/>
<polygon fill="black" stroke="black" points="3255.32,-851.32 3244.87,-849.59 3251.96,-857.46 3255.32,-851.32"/>
</g>
<!-- n19 -->
<g id="node23" class="node">
<title>n19</title>
<ellipse fill="#DA79E8" stroke="black" cx="2181.97" cy="-703.2" rx="190.84" ry="37.45"/>
<text text-anchor="middle" x="2181.97" y="-714.5" font-family="Times,serif" font-size="14.00">una</text>
<text text-anchor="middle" x="2181.97" y="-699.5" font-family="Times,serif" font-size="14.00">di0fs0 (det)</text>
<text text-anchor="middle" x="2181.97" y="-684.5" font-family="Times,serif" font-size="14.00">rep=no, t=no, r=yes, m=yes, c=no</text>
</g>
<!-- n20&#45;&gt;n19 -->
<g id="edge22" class="edge">
<title>n20&#45;&gt;n19</title>
<path fill="none" stroke="black" d="M3001.93,-801.49C2839.45,-789.87 2594.08,-769.56 2381.97,-740.67 2363.43,-738.15 2343.99,-735.1 2324.83,-731.87"/>
<polygon fill="black" stroke="black" points="2325.28,-728.39 2314.83,-730.16 2324.1,-735.29 2325.28,-728.39"/>
</g>
<!-- n21 -->
<g id="node24" class="node">
<title>n21</title>
<ellipse fill="#DA79E8" stroke="black" cx="2581.97" cy="-703.2" rx="190.84" ry="37.45"/>
<text text-anchor="middle" x="2581.97" y="-714.5" font-family="Times,serif" font-size="14.00">de</text>
<text text-anchor="middle" x="2581.97" y="-699.5" font-family="Times,serif" font-size="14.00">sps00 (prepn)</text>
<text text-anchor="middle" x="2581.97" y="-684.5" font-family="Times,serif" font-size="14.00">rep=no, t=no, r=yes, m=yes, c=no</text>
</g>
<!-- n20&#45;&gt;n21 -->
<g id="edge23" class="edge">
<title>n20&#45;&gt;n21</title>
<path fill="none" stroke="black" d="M3044.05,-788.2C2966.95,-774.24 2869.11,-756.51 2781.97,-740.67 2764.9,-737.57 2747.02,-734.31 2729.26,-731.08"/>
<polygon fill="black" stroke="black" points="2729.87,-727.63 2719.41,-729.28 2728.62,-734.52 2729.87,-727.63"/>
</g>
<!-- n23 -->
<g id="node25" class="node">
<title>n23</title>
<ellipse fill="#DA79E8" stroke="black" cx="2981.97" cy="-703.2" rx="190.84" ry="37.45"/>
<text text-anchor="middle" x="2981.97" y="-714.5" font-family="Times,serif" font-size="14.00">importante</text>
<text text-anchor="middle" x="2981.97" y="-699.5" font-family="Times,serif" font-size="14.00">aq0cs0 (amod)</text>
<text text-anchor="middle" x="2981.97" y="-684.5" font-family="Times,serif" font-size="14.00">rep=no, t=no, r=yes, m=yes, c=no</text>
</g>
<!-- n20&#45;&gt;n23 -->
<g id="edge24" class="edge">
<title>n20&#45;&gt;n23</title>
<path fill="none" stroke="black" d="M3118.69,-778.68C3098.16,-767.49 3075.23,-755 3054.11,-743.5"/>
<polygon fill="black" stroke="black" points="3055.64,-740.34 3045.18,-738.63 3052.29,-746.49 3055.64,-740.34"/>
</g>
<!-- n24 -->
<g id="node26" class="node">
<title>n24</title>
<ellipse fill="#DA79E8" stroke="black" cx="3381.97" cy="-703.2" rx="190.84" ry="37.45"/>
<text text-anchor="middle" x="3381.97" y="-714.5" font-family="Times,serif" font-size="14.00">,</text>
<text text-anchor="middle" x="3381.97" y="-699.5" font-family="Times,serif" font-size="14.00">fc (punct)</text>
<text text-anchor="middle" x="3381.97" y="-684.5" font-family="Times,serif" font-size="14.00">rep=no, t=no, r=yes, m=yes, c=no</text>
</g>
<!-- n20&#45;&gt;n24 -->
<g id="edge25" class="edge">
<title>n20&#45;&gt;n24</title>
<path fill="none" stroke="black" d="M3245.25,-778.68C3265.78,-767.49 3288.7,-755 3309.83,-743.5"/>
<polygon fill="black" stroke="black" points="3311.65,-746.49 3318.76,-738.63 3308.3,-740.34 3311.65,-746.49"/>
</g>
<!-- n26 -->
<g id="node27" class="node">
<title>n26</title>
<ellipse fill="none" stroke="black" cx="3776.97" cy="-703.2" rx="185.94" ry="37.45"/>
<text text-anchor="middle" x="3776.97" y="-714.5" font-family="Times,serif" font-size="14.00">podría</text>
<text text-anchor="middle" x="3776.97" y="-699.5" font-family="Times,serif" font-size="14.00">vmic3s0 (rcmod)</text>
<text text-anchor="middle" x="3776.97" y="-684.5" font-family="Times,serif" font-size="14.00">rep=no, t=no, r=no, m=yes, c=no</text>
</g>
<!-- n20&#45;&gt;n26 -->
<g id="edge26" class="edge">
<title>n20&#45;&gt;n26</title>
<path fill="none" stroke="black" d="M3320.38,-788.27C3397.42,-774.37 3495.03,-756.68 3581.97,-740.67 3598.53,-737.62 3615.88,-734.41 3633.12,-731.2"/>
<polygon fill="black" stroke="black" points="3634.05,-734.59 3643.24,-729.31 3632.77,-727.7 3634.05,-734.59"/>
</g>
<!-- n22 -->
<g id="node28" class="node">
<title>n22</title>
<ellipse fill="#DA79E8" stroke="black" cx="2581.97" cy="-592.24" rx="190.84" ry="37.45"/>
<text text-anchor="middle" x="2581.97" y="-603.54" font-family="Times,serif" font-size="14.00">violencia</text>
<text text-anchor="middle" x="2581.97" y="-588.54" font-family="Times,serif" font-size="14.00">ncfs000 (pobj)</text>
<text text-anchor="middle" x="2581.97" y="-573.54" font-family="Times,serif" font-size="14.00">rep=no, t=no, r=yes, m=yes, c=no</text>
</g>
<!-- n21&#45;&gt;n22 -->
<g id="edge27" class="edge">
<title>n21&#45;&gt;n22</title>
<path fill="none" stroke="black" d="M2581.97,-665.61C2581.97,-657.44 2581.97,-648.66 2581.97,-640.13"/>
<polygon fill="black" stroke="black" points="2585.47,-639.92 2581.97,-629.92 2578.47,-639.92 2585.47,-639.92"/>
</g>
<!-- n25 -->
<g id="node29" class="node">
<title>n25</title>
<ellipse fill="none" stroke="black" cx="3581.97" cy="-592.24" rx="185.94" ry="37.45"/>
<text text-anchor="middle" x="3581.97" y="-603.54" font-family="Times,serif" font-size="14.00">que</text>
<text text-anchor="middle" x="3581.97" y="-588.54" font-family="Times,serif" font-size="14.00">pr0cn000 (nsubj)</text>
<text text-anchor="middle" x="3581.97" y="-573.54" font-family="Times,serif" font-size="14.00">rep=no, t=no, r=no, m=yes, c=no</text>
</g>
<!-- n26&#45;&gt;n25 -->
<g id="edge28" class="edge">
<title>n26&#45;&gt;n25</title>
<path fill="none" stroke="black" d="M3715.27,-667.72C3695.34,-656.59 3673.1,-644.16 3652.58,-632.7"/>
<polygon fill="black" stroke="black" points="3654.04,-629.5 3643.6,-627.68 3650.62,-635.61 3654.04,-629.5"/>
</g>
<!-- n27 -->
<g id="node30" class="node">
<title>n27</title>
<ellipse fill="none" stroke="black" cx="3971.97" cy="-592.24" rx="185.94" ry="37.45"/>
<text text-anchor="middle" x="3971.97" y="-603.54" font-family="Times,serif" font-size="14.00">extenderse</text>
<text text-anchor="middle" x="3971.97" y="-588.54" font-family="Times,serif" font-size="14.00">vmn0000 (dobj)</text>
<text text-anchor="middle" x="3971.97" y="-573.54" font-family="Times,serif" font-size="14.00">rep=no, t=no, r=no, m=yes, c=no</text>
</g>
<!-- n26&#45;&gt;n27 -->
<g id="edge29" class="edge">
<title>n26&#45;&gt;n27</title>
<path fill="none" stroke="black" d="M3838.67,-667.72C3858.59,-656.59 3880.84,-644.16 3901.35,-632.7"/>
<polygon fill="black" stroke="black" points="3903.31,-635.61 3910.34,-627.68 3899.9,-629.5 3903.31,-635.61"/>
</g>
<!-- n28 -->
<g id="node31" class="node">
<title>n28</title>
<ellipse fill="none" stroke="black" cx="3971.97" cy="-481.29" rx="185.94" ry="37.45"/>
<text text-anchor="middle" x="3971.97" y="-492.59" font-family="Times,serif" font-size="14.00">a</text>
<text text-anchor="middle" x="3971.97" y="-477.59" font-family="Times,serif" font-size="14.00">sps00 (prepv)</text>
<text text-anchor="middle" x="3971.97" y="-462.59" font-family="Times,serif" font-size="14.00">rep=no, t=no, r=no, m=yes, c=no</text>
</g>
<!-- n27&#45;&gt;n28 -->
<g id="edge30" class="edge">
<title>n27&#45;&gt;n28</title>
<path fill="none" stroke="black" d="M3971.97,-554.66C3971.97,-546.49 3971.97,-537.71 3971.97,-529.18"/>
<polygon fill="black" stroke="black" points="3975.47,-528.96 3971.97,-518.96 3968.47,-528.96 3975.47,-528.96"/>
</g>
<!-- n30 -->
<g id="node32" class="node">
<title>n30</title>
<ellipse fill="none" stroke="black" cx="3971.97" cy="-370.34" rx="185.94" ry="37.45"/>
<text text-anchor="middle" x="3971.97" y="-381.64" font-family="Times,serif" font-size="14.00">países</text>
<text text-anchor="middle" x="3971.97" y="-366.64" font-family="Times,serif" font-size="14.00">ncmp000 (pobj)</text>
<text text-anchor="middle" x="3971.97" y="-351.64" font-family="Times,serif" font-size="14.00">rep=no, t=no, r=no, m=yes, c=no</text>
</g>
<!-- n28&#45;&gt;n30 -->
<g id="edge31" class="edge">
<title>n28&#45;&gt;n30</title>
<path fill="none" stroke="black" d="M3971.97,-443.71C3971.97,-435.53 3971.97,-426.75 3971.97,-418.23"/>
<polygon fill="black" stroke="black" points="3975.47,-418.01 3971.97,-408.01 3968.47,-418.01 3975.47,-418.01"/>
</g>
<!-- n29 -->
<g id="node33" class="node">
<title>n29</title>
<ellipse fill="none" stroke="black" cx="3776.97" cy="-259.38" rx="185.94" ry="37.45"/>
<text text-anchor="middle" x="3776.97" y="-270.68" font-family="Times,serif" font-size="14.00">otros</text>
<text text-anchor="middle" x="3776.97" y="-255.68" font-family="Times,serif" font-size="14.00">di0mp0 (det)</text>
<text text-anchor="middle" x="3776.97" y="-240.68" font-family="Times,serif" font-size="14.00">rep=no, t=no, r=no, m=yes, c=no</text>
</g>
<!-- n30&#45;&gt;n29 -->
<g id="edge32" class="edge">
<title>n30&#45;&gt;n29</title>
<path fill="none" stroke="black" d="M3910.27,-334.86C3890.34,-323.73 3868.1,-311.3 3847.58,-299.84"/>
<polygon fill="black" stroke="black" points="3849.04,-296.64 3838.6,-294.82 3845.62,-302.75 3849.04,-296.64"/>
</g>
<!-- n31 -->
<g id="node34" class="node">
<title>n31</title>
<ellipse fill="none" stroke="black" cx="4166.97" cy="-259.38" rx="185.94" ry="37.45"/>
<text text-anchor="middle" x="4166.97" y="-270.68" font-family="Times,serif" font-size="14.00">de</text>
<text text-anchor="middle" x="4166.97" y="-255.68" font-family="Times,serif" font-size="14.00">sps00 (prepn)</text>
<text text-anchor="middle" x="4166.97" y="-240.68" font-family="Times,serif" font-size="14.00">rep=no, t=no, r=no, m=yes, c=no</text>
</g>
<!-- n30&#45;&gt;n31 -->
<g id="edge33" class="edge">
<title>n30&#45;&gt;n31</title>
<path fill="none" stroke="black" d="M4033.67,-334.86C4053.59,-323.73 4075.84,-311.3 4096.35,-299.84"/>
<polygon fill="black" stroke="black" points="4098.31,-302.75 4105.34,-294.82 4094.9,-296.64 4098.31,-302.75"/>
</g>
<!-- n33 -->
<g id="node35" class="node">
<title>n33</title>
<ellipse fill="none" stroke="black" cx="4166.97" cy="-148.43" rx="185.94" ry="37.45"/>
<text text-anchor="middle" x="4166.97" y="-159.73" font-family="Times,serif" font-size="14.00">zona</text>
<text text-anchor="middle" x="4166.97" y="-144.73" font-family="Times,serif" font-size="14.00">ncfs000 (pobj)</text>
<text text-anchor="middle" x="4166.97" y="-129.73" font-family="Times,serif" font-size="14.00">rep=no, t=no, r=no, m=yes, c=no</text>
</g>
<!-- n31&#45;&gt;n33 -->
<g id="edge34" class="edge">
<title>n31&#45;&gt;n33</title>
<path fill="none" stroke="black" d="M4166.97,-221.8C4166.97,-213.63 4166.97,-204.85 4166.97,-196.32"/>
<polygon fill="black" stroke="black" points="4170.47,-196.1 4166.97,-186.1 4163.47,-196.1 4170.47,-196.1"/>
</g>
<!-- n32 -->
<g id="node36" class="node">
<title>n32</title>
<ellipse fill="none" stroke="black" cx="4166.97" cy="-37.48" rx="185.94" ry="37.45"/>
<text text-anchor="middle" x="4166.97" y="-48.78" font-family="Times,serif" font-size="14.00">la</text>
<text text-anchor="middle" x="4166.97" y="-33.78" font-family="Times,serif" font-size="14.00">da0fs0 (det)</text>
<text text-anchor="middle" x="4166.97" y="-18.78" font-family="Times,serif" font-size="14.00">rep=no, t=no, r=no, m=yes, c=no</text>
</g>
<!-- n33&#45;&gt;n32 -->
<g id="edge35" class="edge">
<title>n33&#45;&gt;n32</title>
<path fill="none" stroke="black" d="M4166.97,-110.85C4166.97,-102.67 4166.97,-93.89 4166.97,-85.37"/>
<polygon fill="black" stroke="black" points="4170.47,-85.15 4166.97,-75.15 4163.47,-85.15 4170.47,-85.15"/>
</g>
<!-- n36 -->
<g id="node38" class="node">
<title>n36</title>
<ellipse fill="none" stroke="black" cx="3971.97" cy="-925.1" rx="181.95" ry="37.45"/>
<text text-anchor="middle" x="3971.97" y="-936.4" font-family="Times,serif" font-size="14.00">en</text>
<text text-anchor="middle" x="3971.97" y="-921.4" font-family="Times,serif" font-size="14.00">sps00 (prepv)</text>
<text text-anchor="middle" x="3971.97" y="-906.4" font-family="Times,serif" font-size="14.00">rep=no, t=no, r=no, m=no, c=no</text>
</g>
<!-- n42&#45;&gt;n36 -->
<g id="edge37" class="edge">
<title>n42&#45;&gt;n36</title>
<path fill="none" stroke="black" d="M4248.86,-1005.28C4198.35,-990.84 4137.57,-973.46 4085.84,-958.67"/>
<polygon fill="black" stroke="black" points="4086.53,-955.22 4075.95,-955.84 4084.61,-961.95 4086.53,-955.22"/>
</g>
<!-- n40 -->
<g id="node39" class="node">
<title>n40</title>
<ellipse fill="none" stroke="black" cx="4352.97" cy="-925.1" rx="181.95" ry="37.45"/>
<text text-anchor="middle" x="4352.97" y="-936.4" font-family="Times,serif" font-size="14.00">no</text>
<text text-anchor="middle" x="4352.97" y="-921.4" font-family="Times,serif" font-size="14.00">rn (neg)</text>
<text text-anchor="middle" x="4352.97" y="-906.4" font-family="Times,serif" font-size="14.00">rep=no, t=no, r=no, m=no, c=no</text>
</g>
<!-- n42&#45;&gt;n40 -->
<g id="edge38" class="edge">
<title>n42&#45;&gt;n40</title>
<path fill="none" stroke="black" d="M4352.97,-998.47C4352.97,-990.3 4352.97,-981.52 4352.97,-972.99"/>
<polygon fill="black" stroke="black" points="4356.47,-972.78 4352.97,-962.78 4349.47,-972.78 4356.47,-972.78"/>
</g>
<!-- n41 -->
<g id="node40" class="node">
<title>n41</title>
<ellipse fill="none" stroke="black" cx="4733.97" cy="-925.1" rx="181.95" ry="37.45"/>
<text text-anchor="middle" x="4733.97" y="-936.4" font-family="Times,serif" font-size="14.00">se</text>
<text text-anchor="middle" x="4733.97" y="-921.4" font-family="Times,serif" font-size="14.00">p0000000 (reflec)</text>
<text text-anchor="middle" x="4733.97" y="-906.4" font-family="Times,serif" font-size="14.00">rep=no, t=no, r=no, m=no, c=no</text>
</g>
<!-- n42&#45;&gt;n41 -->
<g id="edge39" class="edge">
<title>n42&#45;&gt;n41</title>
<path fill="none" stroke="black" d="M4457.08,-1005.28C4507.58,-990.84 4568.37,-973.46 4620.1,-958.67"/>
<polygon fill="black" stroke="black" points="4621.33,-961.95 4629.99,-955.84 4619.41,-955.22 4621.33,-961.95"/>
</g>
<!-- n43 -->
<g id="node41" class="node">
<title>n43</title>
<ellipse fill="none" stroke="black" cx="5114.97" cy="-925.1" rx="181.95" ry="37.45"/>
<text text-anchor="middle" x="5114.97" y="-936.4" font-family="Times,serif" font-size="14.00">avances</text>
<text text-anchor="middle" x="5114.97" y="-921.4" font-family="Times,serif" font-size="14.00">ncmp000 (nsubj)</text>
<text text-anchor="middle" x="5114.97" y="-906.4" font-family="Times,serif" font-size="14.00">rep=no, t=no, r=no, m=no, c=no</text>
</g>
<!-- n42&#45;&gt;n43 -->
<g id="edge40" class="edge">
<title>n42&#45;&gt;n43</title>
<path fill="none" stroke="black" d="M4511.47,-1017.72C4626.5,-1004.47 4785.71,-984.75 4924.97,-962.58 4941.81,-959.9 4959.45,-956.85 4976.91,-953.67"/>
<polygon fill="black" stroke="black" points="4977.95,-957.04 4987.16,-951.79 4976.69,-950.16 4977.95,-957.04"/>
</g>
<!-- n38 -->
<g id="node42" class="node">
<title>n38</title>
<ellipse fill="none" stroke="black" cx="4162.97" cy="-814.15" rx="181.95" ry="37.45"/>
<text text-anchor="middle" x="4162.97" y="-825.45" font-family="Times,serif" font-size="14.00">futuro</text>
<text text-anchor="middle" x="4162.97" y="-810.45" font-family="Times,serif" font-size="14.00">ncms000 (pobj)</text>
<text text-anchor="middle" x="4162.97" y="-795.45" font-family="Times,serif" font-size="14.00">rep=no, t=no, r=no, m=no, c=no</text>
</g>
<!-- n36&#45;&gt;n38 -->
<g id="edge41" class="edge">
<title>n36&#45;&gt;n38</title>
<path fill="none" stroke="black" d="M4032.4,-889.63C4051.92,-878.5 4073.7,-866.07 4093.8,-854.61"/>
<polygon fill="black" stroke="black" points="4095.65,-857.58 4102.6,-849.59 4092.18,-851.5 4095.65,-857.58"/>
</g>
<!-- n44 -->
<g id="node45" class="node">
<title>n44</title>
<ellipse fill="none" stroke="black" cx="5114.97" cy="-814.15" rx="181.95" ry="37.45"/>
<text text-anchor="middle" x="5114.97" y="-825.45" font-family="Times,serif" font-size="14.00">basados</text>
<text text-anchor="middle" x="5114.97" y="-810.45" font-family="Times,serif" font-size="14.00">aq0mpp (amod)</text>
<text text-anchor="middle" x="5114.97" y="-795.45" font-family="Times,serif" font-size="14.00">rep=no, t=no, r=no, m=no, c=no</text>
</g>
<!-- n43&#45;&gt;n44 -->
<g id="edge44" class="edge">
<title>n43&#45;&gt;n44</title>
<path fill="none" stroke="black" d="M5114.97,-887.52C5114.97,-879.35 5114.97,-870.57 5114.97,-862.04"/>
<polygon fill="black" stroke="black" points="5118.47,-861.82 5114.97,-851.82 5111.47,-861.82 5118.47,-861.82"/>
</g>
<!-- n37 -->
<g id="node43" class="node">
<title>n37</title>
<ellipse fill="none" stroke="black" cx="4162.97" cy="-703.2" rx="181.95" ry="37.45"/>
<text text-anchor="middle" x="4162.97" y="-714.5" font-family="Times,serif" font-size="14.00">un</text>
<text text-anchor="middle" x="4162.97" y="-699.5" font-family="Times,serif" font-size="14.00">di0ms0 (det)</text>
<text text-anchor="middle" x="4162.97" y="-684.5" font-family="Times,serif" font-size="14.00">rep=no, t=no, r=no, m=no, c=no</text>
</g>
<!-- n38&#45;&gt;n37 -->
<g id="edge42" class="edge">
<title>n38&#45;&gt;n37</title>
<path fill="none" stroke="black" d="M4162.97,-776.57C4162.97,-768.39 4162.97,-759.61 4162.97,-751.09"/>
<polygon fill="black" stroke="black" points="4166.47,-750.87 4162.97,-740.87 4159.47,-750.87 4166.47,-750.87"/>
</g>
<!-- n39 -->
<g id="node44" class="node">
<title>n39</title>
<ellipse fill="none" stroke="black" cx="4543.97" cy="-703.2" rx="181.95" ry="37.45"/>
<text text-anchor="middle" x="4543.97" y="-714.5" font-family="Times,serif" font-size="14.00">cercano</text>
<text text-anchor="middle" x="4543.97" y="-699.5" font-family="Times,serif" font-size="14.00">aq0ms0 (amod)</text>
<text text-anchor="middle" x="4543.97" y="-684.5" font-family="Times,serif" font-size="14.00">rep=no, t=no, r=no, m=no, c=no</text>
</g>
<!-- n38&#45;&gt;n39 -->
<g id="edge43" class="edge">
<title>n38&#45;&gt;n39</title>
<path fill="none" stroke="black" d="M4267.08,-783.38C4317.58,-768.94 4378.37,-751.55 4430.1,-736.76"/>
<polygon fill="black" stroke="black" points="4431.33,-740.05 4439.99,-733.93 4429.41,-733.32 4431.33,-740.05"/>
</g>
<!-- n45 -->
<g id="node46" class="node">
<title>n45</title>
<ellipse fill="none" stroke="black" cx="5114.97" cy="-703.2" rx="181.95" ry="37.45"/>
<text text-anchor="middle" x="5114.97" y="-714.5" font-family="Times,serif" font-size="14.00">en</text>
<text text-anchor="middle" x="5114.97" y="-699.5" font-family="Times,serif" font-size="14.00">sps00 (oobj)</text>
<text text-anchor="middle" x="5114.97" y="-684.5" font-family="Times,serif" font-size="14.00">rep=no, t=no, r=no, m=no, c=no</text>
</g>
<!-- n44&#45;&gt;n45 -->
<g id="edge45" class="edge">
<title>n44&#45;&gt;n45</title>
<path fill="none" stroke="black" d="M5114.97,-776.57C5114.97,-768.39 5114.97,-759.61 5114.97,-751.09"/>
<polygon fill="black" stroke="black" points="5118.47,-750.87 5114.97,-740.87 5111.47,-750.87 5118.47,-750.87"/>
</g>
<!-- n47 -->
<g id="node47" class="node">
<title>n47</title>
<ellipse fill="none" stroke="black" cx="5114.97" cy="-592.24" rx="181.95" ry="37.45"/>
<text text-anchor="middle" x="5114.97" y="-603.54" font-family="Times,serif" font-size="14.00">iniciativa</text>
<text text-anchor="middle" x="5114.97" y="-588.54" font-family="Times,serif" font-size="14.00">ncfs000 (pobj)</text>
<text text-anchor="middle" x="5114.97" y="-573.54" font-family="Times,serif" font-size="14.00">rep=no, t=no, r=no, m=no, c=no</text>
</g>
<!-- n45&#45;&gt;n47 -->
<g id="edge46" class="edge">
<title>n45&#45;&gt;n47</title>
<path fill="none" stroke="black" d="M5114.97,-665.61C5114.97,-657.44 5114.97,-648.66 5114.97,-640.13"/>
<polygon fill="black" stroke="black" points="5118.47,-639.92 5114.97,-629.92 5111.47,-639.92 5118.47,-639.92"/>
</g>
<!-- n46 -->
<g id="node48" class="node">
<title>n46</title>
<ellipse fill="none" stroke="black" cx="4733.97" cy="-481.29" rx="181.95" ry="37.45"/>
<text text-anchor="middle" x="4733.97" y="-492.59" font-family="Times,serif" font-size="14.00">la</text>
<text text-anchor="middle" x="4733.97" y="-477.59" font-family="Times,serif" font-size="14.00">da0fs0 (det)</text>
<text text-anchor="middle" x="4733.97" y="-462.59" font-family="Times,serif" font-size="14.00">rep=no, t=no, r=no, m=no, c=no</text>
</g>
<!-- n47&#45;&gt;n46 -->
<g id="edge47" class="edge">
<title>n47&#45;&gt;n46</title>
<path fill="none" stroke="black" d="M5010.86,-561.47C4960.35,-547.03 4899.57,-529.65 4847.84,-514.85"/>
<polygon fill="black" stroke="black" points="4848.53,-511.41 4837.95,-512.03 4846.61,-518.14 4848.53,-511.41"/>
</g>
<!-- n48 -->
<g id="node49" class="node">
<title>n48</title>
<ellipse fill="none" stroke="black" cx="5114.97" cy="-481.29" rx="181.95" ry="37.45"/>
<text text-anchor="middle" x="5114.97" y="-492.59" font-family="Times,serif" font-size="14.00">de</text>
<text text-anchor="middle" x="5114.97" y="-477.59" font-family="Times,serif" font-size="14.00">sps00 (prepn)</text>
<text text-anchor="middle" x="5114.97" y="-462.59" font-family="Times,serif" font-size="14.00">rep=no, t=no, r=no, m=no, c=no</text>
</g>
<!-- n47&#45;&gt;n48 -->
<g id="edge48" class="edge">
<title>n47&#45;&gt;n48</title>
<path fill="none" stroke="black" d="M5114.97,-554.66C5114.97,-546.49 5114.97,-537.71 5114.97,-529.18"/>
<polygon fill="black" stroke="black" points="5118.47,-528.96 5114.97,-518.96 5111.47,-528.96 5118.47,-528.96"/>
</g>
<!-- n50 -->
<g id="node50" class="node">
<title>n50</title>
<ellipse fill="none" stroke="black" cx="5495.97" cy="-481.29" rx="181.95" ry="37.45"/>
<text text-anchor="middle" x="5495.97" y="-492.59" font-family="Times,serif" font-size="14.00">de</text>
<text text-anchor="middle" x="5495.97" y="-477.59" font-family="Times,serif" font-size="14.00">sps00 (prepn)</text>
<text text-anchor="middle" x="5495.97" y="-462.59" font-family="Times,serif" font-size="14.00">rep=no, t=no, r=no, m=no, c=no</text>
</g>
<!-- n47&#45;&gt;n50 -->
<g id="edge49" class="edge">
<title>n47&#45;&gt;n50</title>
<path fill="none" stroke="black" d="M5219.08,-561.47C5269.58,-547.03 5330.37,-529.65 5382.1,-514.85"/>
<polygon fill="black" stroke="black" points="5383.33,-518.14 5391.99,-512.03 5381.41,-511.41 5383.33,-518.14"/>
</g>
<!-- n49 -->
<g id="node51" class="node">
<title>n49</title>
<ellipse fill="none" stroke="black" cx="5114.97" cy="-370.34" rx="181.95" ry="37.45"/>
<text text-anchor="middle" x="5114.97" y="-381.64" font-family="Times,serif" font-size="14.00">paz</text>
<text text-anchor="middle" x="5114.97" y="-366.64" font-family="Times,serif" font-size="14.00">ncfs000 (pobj)</text>
<text text-anchor="middle" x="5114.97" y="-351.64" font-family="Times,serif" font-size="14.00">rep=no, t=no, r=no, m=no, c=no</text>
</g>
<!-- n48&#45;&gt;n49 -->
<g id="edge50" class="edge">
<title>n48&#45;&gt;n49</title>
<path fill="none" stroke="black" d="M5114.97,-443.71C5114.97,-435.53 5114.97,-426.75 5114.97,-418.23"/>
<polygon fill="black" stroke="black" points="5118.47,-418.01 5114.97,-408.01 5111.47,-418.01 5118.47,-418.01"/>
</g>
<!-- n51 -->
<g id="node52" class="node">
<title>n51</title>
<ellipse fill="none" stroke="black" cx="5495.97" cy="-370.34" rx="181.95" ry="37.45"/>
<text text-anchor="middle" x="5495.97" y="-381.64" font-family="Times,serif" font-size="14.00">Clinton</text>
<text text-anchor="middle" x="5495.97" y="-366.64" font-family="Times,serif" font-size="14.00">np00000 (pobj)</text>
<text text-anchor="middle" x="5495.97" y="-351.64" font-family="Times,serif" font-size="14.00">rep=no, t=no, r=no, m=no, c=no</text>
</g>
<!-- n50&#45;&gt;n51 -->
<g id="edge51" class="edge">
<title>n50&#45;&gt;n51</title>
<path fill="none" stroke="black" d="M5495.97,-443.71C5495.97,-435.53 5495.97,-426.75 5495.97,-418.23"/>
<polygon fill="black" stroke="black" points="5499.47,-418.01 5495.97,-408.01 5492.47,-418.01 5499.47,-418.01"/>
</g>
</g>
</svg>
