<?xml version="1.0" encoding="UTF-8" standalone="no"?>
<!DOCTYPE svg PUBLIC "-//W3C//DTD SVG 1.1//EN"
 "http://www.w3.org/Graphics/SVG/1.1/DTD/svg11.dtd">
<!-- Generated by graphviz version 2.43.0 (0)
 -->
<!-- Title: tree Pages: 1 -->
<svg width="6990pt" height="1525pt"
 viewBox="0.00 0.00 6989.84 1525.35" xmlns="http://www.w3.org/2000/svg" xmlns:xlink="http://www.w3.org/1999/xlink">
<g id="graph0" class="graph" transform="scale(1 1) rotate(0) translate(4 1521.35)">
<title>tree</title>
<polygon fill="white" stroke="transparent" points="-4,4 -4,-1521.35 6985.84,-1521.35 6985.84,4 -4,4"/>
<!-- n18 -->
<g id="node1" class="node">
<title>n18</title>
<ellipse fill="#DA79E8" stroke="black" cx="2190.92" cy="-1479.87" rx="190.84" ry="37.45"/>
<text text-anchor="middle" x="2190.92" y="-1491.17" font-family="Times,serif" font-size="14.00">ha</text>
<text text-anchor="middle" x="2190.92" y="-1476.17" font-family="Times,serif" font-size="14.00">vaip3s0 (root)</text>
<text text-anchor="middle" x="2190.92" y="-1461.17" font-family="Times,serif" font-size="14.00">rep=no, t=no, r=yes, m=yes, c=no</text>
</g>
<!-- n7 -->
<g id="node2" class="node">
<title>n7</title>
<ellipse fill="none" stroke="black" cx="1199.92" cy="-1368.92" rx="181.95" ry="37.45"/>
<text text-anchor="middle" x="1199.92" y="-1380.22" font-family="Times,serif" font-size="14.00">,</text>
<text text-anchor="middle" x="1199.92" y="-1365.22" font-family="Times,serif" font-size="14.00">fc (punct)</text>
<text text-anchor="middle" x="1199.92" y="-1350.22" font-family="Times,serif" font-size="14.00">rep=no, t=no, r=no, m=no, c=no</text>
</g>
<!-- n18&#45;&gt;n7 -->
<g id="edge1" class="edge">
<title>n18&#45;&gt;n7</title>
<path fill="none" stroke="black" d="M2010.42,-1467.61C1847.9,-1456.26 1602.73,-1436.14 1390.92,-1406.39 1373.14,-1403.9 1354.5,-1400.86 1336.13,-1397.62"/>
<polygon fill="black" stroke="black" points="1336.71,-1394.17 1326.25,-1395.86 1335.48,-1401.06 1336.71,-1394.17"/>
</g>
<!-- n9 -->
<g id="node3" class="node">
<title>n9</title>
<ellipse fill="#BEDA48" stroke="black" cx="1590.92" cy="-1368.92" rx="190.84" ry="37.45"/>
<text text-anchor="middle" x="1590.92" y="-1380.22" font-family="Times,serif" font-size="14.00">consejero</text>
<text text-anchor="middle" x="1590.92" y="-1365.22" font-family="Times,serif" font-size="14.00">ncms000 (nsubj)</text>
<text text-anchor="middle" x="1590.92" y="-1350.22" font-family="Times,serif" font-size="14.00">rep=no, t=yes, r=no, m=yes, c=no</text>
</g>
<!-- n18&#45;&gt;n9 -->
<g id="edge2" class="edge">
<title>n18&#45;&gt;n9</title>
<path fill="none" stroke="black" d="M2053.27,-1453.87C1959.29,-1436.81 1834.89,-1414.22 1738.8,-1396.77"/>
<polygon fill="black" stroke="black" points="1739.17,-1393.28 1728.71,-1394.94 1737.92,-1400.17 1739.17,-1393.28"/>
</g>
<!-- n19 -->
<g id="node4" class="node">
<title>n19</title>
<ellipse fill="#DA79E8" stroke="black" cx="2790.92" cy="-1368.92" rx="190.84" ry="37.45"/>
<text text-anchor="middle" x="2790.92" y="-1380.22" font-family="Times,serif" font-size="14.00">escrito</text>
<text text-anchor="middle" x="2790.92" y="-1365.22" font-family="Times,serif" font-size="14.00">vmp00sm (vobj)</text>
<text text-anchor="middle" x="2790.92" y="-1350.22" font-family="Times,serif" font-size="14.00">rep=no, t=no, r=yes, m=yes, c=no</text>
</g>
<!-- n18&#45;&gt;n19 -->
<g id="edge3" class="edge">
<title>n18&#45;&gt;n19</title>
<path fill="none" stroke="black" d="M2328.57,-1453.87C2422.55,-1436.81 2546.95,-1414.22 2643.04,-1396.77"/>
<polygon fill="black" stroke="black" points="2643.92,-1400.17 2653.13,-1394.94 2642.66,-1393.28 2643.92,-1400.17"/>
</g>
<!-- n54 -->
<g id="node5" class="node">
<title>n54</title>
<ellipse fill="none" stroke="black" cx="3181.92" cy="-1368.92" rx="181.95" ry="37.45"/>
<text text-anchor="middle" x="3181.92" y="-1380.22" font-family="Times,serif" font-size="14.00">.</text>
<text text-anchor="middle" x="3181.92" y="-1365.22" font-family="Times,serif" font-size="14.00">fp (punct)</text>
<text text-anchor="middle" x="3181.92" y="-1350.22" font-family="Times,serif" font-size="14.00">rep=no, t=no, r=no, m=no, c=no</text>
</g>
<!-- n18&#45;&gt;n54 -->
<g id="edge4" class="edge">
<title>n18&#45;&gt;n54</title>
<path fill="none" stroke="black" d="M2371.41,-1467.61C2533.94,-1456.26 2779.1,-1436.14 2990.92,-1406.39 3008.7,-1403.9 3027.34,-1400.86 3045.71,-1397.62"/>
<polygon fill="black" stroke="black" points="3046.36,-1401.06 3055.58,-1395.86 3045.12,-1394.17 3046.36,-1401.06"/>
</g>
<!-- n8 -->
<g id="node6" class="node">
<title>n8</title>
<ellipse fill="#BEDA48" stroke="black" cx="190.92" cy="-1257.96" rx="190.84" ry="37.45"/>
<text text-anchor="middle" x="190.92" y="-1269.26" font-family="Times,serif" font-size="14.00">el</text>
<text text-anchor="middle" x="190.92" y="-1254.26" font-family="Times,serif" font-size="14.00">da0ms0 (det)</text>
<text text-anchor="middle" x="190.92" y="-1239.26" font-family="Times,serif" font-size="14.00">rep=no, t=yes, r=no, m=yes, c=no</text>
</g>
<!-- n9&#45;&gt;n8 -->
<g id="edge5" class="edge">
<title>n9&#45;&gt;n8</title>
<path fill="none" stroke="black" d="M1460.87,-1341.39C1437.66,-1337.46 1413.64,-1333.91 1390.92,-1331.44 948.79,-1283.42 833.05,-1343.46 390.92,-1295.44 371.48,-1293.33 351.09,-1290.42 331.07,-1287.17"/>
<polygon fill="black" stroke="black" points="331.4,-1283.67 320.97,-1285.49 330.26,-1290.58 331.4,-1283.67"/>
</g>
<!-- n10 -->
<g id="node7" class="node">
<title>n10</title>
<ellipse fill="#BEDA48" stroke="black" cx="590.92" cy="-1257.96" rx="190.84" ry="37.45"/>
<text text-anchor="middle" x="590.92" y="-1269.26" font-family="Times,serif" font-size="14.00">jurídico</text>
<text text-anchor="middle" x="590.92" y="-1254.26" font-family="Times,serif" font-size="14.00">aq0ms0 (amod)</text>
<text text-anchor="middle" x="590.92" y="-1239.26" font-family="Times,serif" font-size="14.00">rep=no, t=yes, r=no, m=yes, c=no</text>
</g>
<!-- n9&#45;&gt;n10 -->
<g id="edge6" class="edge">
<title>n9&#45;&gt;n10</title>
<path fill="none" stroke="black" d="M1459.74,-1341.66C1436.87,-1337.75 1413.26,-1334.14 1390.92,-1331.44 1125.7,-1299.42 1056.14,-1327.46 790.92,-1295.44 771.81,-1293.13 751.76,-1290.15 732.05,-1286.89"/>
<polygon fill="black" stroke="black" points="732.54,-1283.42 722.09,-1285.22 731.37,-1290.33 732.54,-1283.42"/>
</g>
<!-- n11 -->
<g id="node8" class="node">
<title>n11</title>
<ellipse fill="#BEDA48" stroke="black" cx="990.92" cy="-1257.96" rx="190.84" ry="37.45"/>
<text text-anchor="middle" x="990.92" y="-1269.26" font-family="Times,serif" font-size="14.00">del</text>
<text text-anchor="middle" x="990.92" y="-1254.26" font-family="Times,serif" font-size="14.00">spcms (prepn)</text>
<text text-anchor="middle" x="990.92" y="-1239.26" font-family="Times,serif" font-size="14.00">rep=no, t=yes, r=no, m=yes, c=no</text>
</g>
<!-- n9&#45;&gt;n11 -->
<g id="edge7" class="edge">
<title>n9&#45;&gt;n11</title>
<path fill="none" stroke="black" d="M1453.48,-1342.81C1432.53,-1338.99 1411.15,-1335.11 1390.92,-1331.44 1302.05,-1315.34 1279.79,-1311.54 1190.92,-1295.44 1173.85,-1292.35 1155.96,-1289.1 1138.2,-1285.86"/>
<polygon fill="black" stroke="black" points="1138.82,-1282.42 1128.35,-1284.07 1137.56,-1289.31 1138.82,-1282.42"/>
</g>
<!-- n14 -->
<g id="node9" class="node">
<title>n14</title>
<ellipse fill="#BEDA48" stroke="black" cx="1390.92" cy="-1257.96" rx="190.84" ry="37.45"/>
<text text-anchor="middle" x="1390.92" y="-1269.26" font-family="Times,serif" font-size="14.00">,</text>
<text text-anchor="middle" x="1390.92" y="-1254.26" font-family="Times,serif" font-size="14.00">fc (punct)</text>
<text text-anchor="middle" x="1390.92" y="-1239.26" font-family="Times,serif" font-size="14.00">rep=no, t=yes, r=no, m=yes, c=no</text>
</g>
<!-- n9&#45;&gt;n14 -->
<g id="edge8" class="edge">
<title>n9&#45;&gt;n14</title>
<path fill="none" stroke="black" d="M1527.64,-1333.44C1507.11,-1322.26 1484.18,-1309.77 1463.06,-1298.26"/>
<polygon fill="black" stroke="black" points="1464.59,-1295.11 1454.13,-1293.4 1461.24,-1301.26 1464.59,-1295.11"/>
</g>
<!-- n15 -->
<g id="node10" class="node">
<title>n15</title>
<ellipse fill="#BEDA48" stroke="black" cx="1790.92" cy="-1257.96" rx="190.84" ry="37.45"/>
<text text-anchor="middle" x="1790.92" y="-1269.26" font-family="Times,serif" font-size="14.00">Eliakim</text>
<text text-anchor="middle" x="1790.92" y="-1254.26" font-family="Times,serif" font-size="14.00">np0000l (appos)</text>
<text text-anchor="middle" x="1790.92" y="-1239.26" font-family="Times,serif" font-size="14.00">rep=no, t=yes, r=no, m=yes, c=no</text>
</g>
<!-- n9&#45;&gt;n15 -->
<g id="edge9" class="edge">
<title>n9&#45;&gt;n15</title>
<path fill="none" stroke="black" d="M1654.2,-1333.44C1674.73,-1322.26 1697.65,-1309.77 1718.78,-1298.26"/>
<polygon fill="black" stroke="black" points="1720.6,-1301.26 1727.71,-1293.4 1717.25,-1295.11 1720.6,-1301.26"/>
</g>
<!-- n17 -->
<g id="node11" class="node">
<title>n17</title>
<ellipse fill="#BEDA48" stroke="black" cx="2190.92" cy="-1257.96" rx="190.84" ry="37.45"/>
<text text-anchor="middle" x="2190.92" y="-1269.26" font-family="Times,serif" font-size="14.00">,</text>
<text text-anchor="middle" x="2190.92" y="-1254.26" font-family="Times,serif" font-size="14.00">fc (punct)</text>
<text text-anchor="middle" x="2190.92" y="-1239.26" font-family="Times,serif" font-size="14.00">rep=no, t=yes, r=no, m=yes, c=no</text>
</g>
<!-- n9&#45;&gt;n17 -->
<g id="edge10" class="edge">
<title>n9&#45;&gt;n17</title>
<path fill="none" stroke="black" d="M1728.84,-1342.97C1805.94,-1329.01 1903.78,-1311.28 1990.92,-1295.44 2007.99,-1292.34 2025.87,-1289.08 2043.63,-1285.85"/>
<polygon fill="black" stroke="black" points="2044.27,-1289.29 2053.48,-1284.05 2043.02,-1282.4 2044.27,-1289.29"/>
</g>
<!-- n1 -->
<g id="node15" class="node">
<title>n1</title>
<ellipse fill="#DA79E8" stroke="black" cx="2590.92" cy="-1257.96" rx="190.84" ry="37.45"/>
<text text-anchor="middle" x="2590.92" y="-1269.26" font-family="Times,serif" font-size="14.00">Para</text>
<text text-anchor="middle" x="2590.92" y="-1254.26" font-family="Times,serif" font-size="14.00">sps00 (prepv)</text>
<text text-anchor="middle" x="2590.92" y="-1239.26" font-family="Times,serif" font-size="14.00">rep=no, t=no, r=yes, m=yes, c=no</text>
</g>
<!-- n19&#45;&gt;n1 -->
<g id="edge14" class="edge">
<title>n19&#45;&gt;n1</title>
<path fill="none" stroke="black" d="M2727.64,-1333.44C2707.11,-1322.26 2684.18,-1309.77 2663.06,-1298.26"/>
<polygon fill="black" stroke="black" points="2664.59,-1295.11 2654.13,-1293.4 2661.24,-1301.26 2664.59,-1295.11"/>
</g>
<!-- n21 -->
<g id="node16" class="node">
<title>n21</title>
<ellipse fill="#DA79E8" stroke="black" cx="2990.92" cy="-1257.96" rx="190.84" ry="37.45"/>
<text text-anchor="middle" x="2990.92" y="-1269.26" font-family="Times,serif" font-size="14.00">carta</text>
<text text-anchor="middle" x="2990.92" y="-1254.26" font-family="Times,serif" font-size="14.00">ncfs000 (dobj)</text>
<text text-anchor="middle" x="2990.92" y="-1239.26" font-family="Times,serif" font-size="14.00">rep=no, t=no, r=yes, m=yes, c=no</text>
</g>
<!-- n19&#45;&gt;n21 -->
<g id="edge15" class="edge">
<title>n19&#45;&gt;n21</title>
<path fill="none" stroke="black" d="M2854.2,-1333.44C2874.73,-1322.26 2897.65,-1309.77 2918.78,-1298.26"/>
<polygon fill="black" stroke="black" points="2920.6,-1301.26 2927.71,-1293.4 2917.25,-1295.11 2920.6,-1301.26"/>
</g>
<!-- n22 -->
<g id="node17" class="node">
<title>n22</title>
<ellipse fill="#DA79E8" stroke="black" cx="3390.92" cy="-1257.96" rx="190.84" ry="37.45"/>
<text text-anchor="middle" x="3390.92" y="-1269.26" font-family="Times,serif" font-size="14.00">a</text>
<text text-anchor="middle" x="3390.92" y="-1254.26" font-family="Times,serif" font-size="14.00">sps00 (iobj)</text>
<text text-anchor="middle" x="3390.92" y="-1239.26" font-family="Times,serif" font-size="14.00">rep=no, t=no, r=yes, m=yes, c=no</text>
</g>
<!-- n19&#45;&gt;n22 -->
<g id="edge16" class="edge">
<title>n19&#45;&gt;n22</title>
<path fill="none" stroke="black" d="M2928.35,-1342.81C2949.31,-1338.99 2970.69,-1335.11 2990.92,-1331.44 3079.79,-1315.34 3102.05,-1311.54 3190.92,-1295.44 3207.99,-1292.35 3225.87,-1289.1 3243.64,-1285.86"/>
<polygon fill="black" stroke="black" points="3244.27,-1289.31 3253.48,-1284.07 3243.02,-1282.42 3244.27,-1289.31"/>
</g>
<!-- n27 -->
<g id="node18" class="node">
<title>n27</title>
<ellipse fill="#DA79E8" stroke="black" cx="3990.92" cy="-1257.96" rx="190.84" ry="37.45"/>
<text text-anchor="middle" x="3990.92" y="-1269.26" font-family="Times,serif" font-size="14.00">pone</text>
<text text-anchor="middle" x="3990.92" y="-1254.26" font-family="Times,serif" font-size="14.00">vmip3s0 (vobj)</text>
<text text-anchor="middle" x="3990.92" y="-1239.26" font-family="Times,serif" font-size="14.00">rep=no, t=no, r=yes, m=yes, c=no</text>
</g>
<!-- n19&#45;&gt;n27 -->
<g id="edge17" class="edge">
<title>n19&#45;&gt;n27</title>
<path fill="none" stroke="black" d="M2922.09,-1341.66C2944.97,-1337.75 2968.58,-1334.14 2990.92,-1331.44 3256.14,-1299.42 3324.53,-1315.57 3590.92,-1295.44 3663.32,-1289.97 3743.01,-1282.91 3812.07,-1276.47"/>
<polygon fill="black" stroke="black" points="3812.55,-1279.94 3822.18,-1275.52 3811.89,-1272.97 3812.55,-1279.94"/>
</g>
<!-- n12 -->
<g id="node12" class="node">
<title>n12</title>
<ellipse fill="#BEDA48" stroke="black" cx="990.92" cy="-1147.01" rx="190.84" ry="37.45"/>
<text text-anchor="middle" x="990.92" y="-1158.31" font-family="Times,serif" font-size="14.00">Gobierno</text>
<text text-anchor="middle" x="990.92" y="-1143.31" font-family="Times,serif" font-size="14.00">np00000 (pobj)</text>
<text text-anchor="middle" x="990.92" y="-1128.31" font-family="Times,serif" font-size="14.00">rep=no, t=yes, r=no, m=yes, c=no</text>
</g>
<!-- n11&#45;&gt;n12 -->
<g id="edge11" class="edge">
<title>n11&#45;&gt;n12</title>
<path fill="none" stroke="black" d="M990.92,-1220.38C990.92,-1212.21 990.92,-1203.43 990.92,-1194.9"/>
<polygon fill="black" stroke="black" points="994.42,-1194.68 990.92,-1184.68 987.42,-1194.68 994.42,-1194.68"/>
</g>
<!-- n16 -->
<g id="node14" class="node">
<title>n16</title>
<ellipse fill="#BEDA48" stroke="black" cx="1790.92" cy="-1147.01" rx="190.84" ry="37.45"/>
<text text-anchor="middle" x="1790.92" y="-1158.31" font-family="Times,serif" font-size="14.00">Rubinstein</text>
<text text-anchor="middle" x="1790.92" y="-1143.31" font-family="Times,serif" font-size="14.00">np0000l (appos)</text>
<text text-anchor="middle" x="1790.92" y="-1128.31" font-family="Times,serif" font-size="14.00">rep=no, t=yes, r=no, m=yes, c=no</text>
</g>
<!-- n15&#45;&gt;n16 -->
<g id="edge13" class="edge">
<title>n15&#45;&gt;n16</title>
<path fill="none" stroke="black" d="M1790.92,-1220.38C1790.92,-1212.21 1790.92,-1203.43 1790.92,-1194.9"/>
<polygon fill="black" stroke="black" points="1794.42,-1194.68 1790.92,-1184.68 1787.42,-1194.68 1794.42,-1194.68"/>
</g>
<!-- n13 -->
<g id="node13" class="node">
<title>n13</title>
<ellipse fill="#BEDA48" stroke="black" cx="990.92" cy="-1036.06" rx="190.84" ry="37.45"/>
<text text-anchor="middle" x="990.92" y="-1047.36" font-family="Times,serif" font-size="14.00">israelí</text>
<text text-anchor="middle" x="990.92" y="-1032.36" font-family="Times,serif" font-size="14.00">aq0cs0 (amod)</text>
<text text-anchor="middle" x="990.92" y="-1017.36" font-family="Times,serif" font-size="14.00">rep=no, t=yes, r=no, m=yes, c=no</text>
</g>
<!-- n12&#45;&gt;n13 -->
<g id="edge12" class="edge">
<title>n12&#45;&gt;n13</title>
<path fill="none" stroke="black" d="M990.92,-1109.43C990.92,-1101.25 990.92,-1092.47 990.92,-1083.95"/>
<polygon fill="black" stroke="black" points="994.42,-1083.73 990.92,-1073.73 987.42,-1083.73 994.42,-1083.73"/>
</g>
<!-- n2 -->
<g id="node19" class="node">
<title>n2</title>
<ellipse fill="#DA79E8" stroke="black" cx="2590.92" cy="-1147.01" rx="190.84" ry="37.45"/>
<text text-anchor="middle" x="2590.92" y="-1158.31" font-family="Times,serif" font-size="14.00">complicar</text>
<text text-anchor="middle" x="2590.92" y="-1143.31" font-family="Times,serif" font-size="14.00">vmn0000 (pobj)</text>
<text text-anchor="middle" x="2590.92" y="-1128.31" font-family="Times,serif" font-size="14.00">rep=no, t=no, r=yes, m=yes, c=no</text>
</g>
<!-- n1&#45;&gt;n2 -->
<g id="edge18" class="edge">
<title>n1&#45;&gt;n2</title>
<path fill="none" stroke="black" d="M2590.92,-1220.38C2590.92,-1212.21 2590.92,-1203.43 2590.92,-1194.9"/>
<polygon fill="black" stroke="black" points="2594.42,-1194.68 2590.92,-1184.68 2587.42,-1194.68 2594.42,-1194.68"/>
</g>
<!-- n20 -->
<g id="node24" class="node">
<title>n20</title>
<ellipse fill="#DA79E8" stroke="black" cx="2990.92" cy="-1147.01" rx="190.84" ry="37.45"/>
<text text-anchor="middle" x="2990.92" y="-1158.31" font-family="Times,serif" font-size="14.00">una</text>
<text text-anchor="middle" x="2990.92" y="-1143.31" font-family="Times,serif" font-size="14.00">di0fs0 (det)</text>
<text text-anchor="middle" x="2990.92" y="-1128.31" font-family="Times,serif" font-size="14.00">rep=no, t=no, r=yes, m=yes, c=no</text>
</g>
<!-- n21&#45;&gt;n20 -->
<g id="edge23" class="edge">
<title>n21&#45;&gt;n20</title>
<path fill="none" stroke="black" d="M2990.92,-1220.38C2990.92,-1212.21 2990.92,-1203.43 2990.92,-1194.9"/>
<polygon fill="black" stroke="black" points="2994.42,-1194.68 2990.92,-1184.68 2987.42,-1194.68 2994.42,-1194.68"/>
</g>
<!-- n23 -->
<g id="node25" class="node">
<title>n23</title>
<ellipse fill="#DA79E8" stroke="black" cx="3390.92" cy="-1147.01" rx="190.84" ry="37.45"/>
<text text-anchor="middle" x="3390.92" y="-1158.31" font-family="Times,serif" font-size="14.00">Barak</text>
<text text-anchor="middle" x="3390.92" y="-1143.31" font-family="Times,serif" font-size="14.00">np00000 (pobj)</text>
<text text-anchor="middle" x="3390.92" y="-1128.31" font-family="Times,serif" font-size="14.00">rep=no, t=no, r=yes, m=yes, c=no</text>
</g>
<!-- n22&#45;&gt;n23 -->
<g id="edge24" class="edge">
<title>n22&#45;&gt;n23</title>
<path fill="none" stroke="black" d="M3390.92,-1220.38C3390.92,-1212.21 3390.92,-1203.43 3390.92,-1194.9"/>
<polygon fill="black" stroke="black" points="3394.42,-1194.68 3390.92,-1184.68 3387.42,-1194.68 3394.42,-1194.68"/>
</g>
<!-- n24 -->
<g id="node26" class="node">
<title>n24</title>
<ellipse fill="#DA79E8" stroke="black" cx="3790.92" cy="-1147.01" rx="190.84" ry="37.45"/>
<text text-anchor="middle" x="3790.92" y="-1158.31" font-family="Times,serif" font-size="14.00">en</text>
<text text-anchor="middle" x="3790.92" y="-1143.31" font-family="Times,serif" font-size="14.00">sps00 (prepv)</text>
<text text-anchor="middle" x="3790.92" y="-1128.31" font-family="Times,serif" font-size="14.00">rep=no, t=no, r=yes, m=yes, c=no</text>
</g>
<!-- n27&#45;&gt;n24 -->
<g id="edge25" class="edge">
<title>n27&#45;&gt;n24</title>
<path fill="none" stroke="black" d="M3927.64,-1222.49C3907.11,-1211.31 3884.18,-1198.82 3863.06,-1187.31"/>
<polygon fill="black" stroke="black" points="3864.59,-1184.16 3854.13,-1182.45 3861.24,-1190.3 3864.59,-1184.16"/>
</g>
<!-- n28 -->
<g id="node27" class="node">
<title>n28</title>
<ellipse fill="#DA79E8" stroke="black" cx="4190.92" cy="-1147.01" rx="190.84" ry="37.45"/>
<text text-anchor="middle" x="4190.92" y="-1158.31" font-family="Times,serif" font-size="14.00">en</text>
<text text-anchor="middle" x="4190.92" y="-1143.31" font-family="Times,serif" font-size="14.00">sps00 (advmod)</text>
<text text-anchor="middle" x="4190.92" y="-1128.31" font-family="Times,serif" font-size="14.00">rep=no, t=no, r=yes, m=yes, c=no</text>
</g>
<!-- n27&#45;&gt;n28 -->
<g id="edge26" class="edge">
<title>n27&#45;&gt;n28</title>
<path fill="none" stroke="black" d="M4054.2,-1222.49C4074.73,-1211.31 4097.65,-1198.82 4118.78,-1187.31"/>
<polygon fill="black" stroke="black" points="4120.6,-1190.3 4127.71,-1182.45 4117.25,-1184.16 4120.6,-1190.3"/>
</g>
<!-- n31 -->
<g id="node28" class="node">
<title>n31</title>
<ellipse fill="#DA79E8" stroke="black" cx="4990.92" cy="-1147.01" rx="190.84" ry="37.45"/>
<text text-anchor="middle" x="4990.92" y="-1158.31" font-family="Times,serif" font-size="14.00">capacidad</text>
<text text-anchor="middle" x="4990.92" y="-1143.31" font-family="Times,serif" font-size="14.00">ncfs000 (dobj)</text>
<text text-anchor="middle" x="4990.92" y="-1128.31" font-family="Times,serif" font-size="14.00">rep=no, t=no, r=yes, m=yes, c=no</text>
</g>
<!-- n27&#45;&gt;n31 -->
<g id="edge27" class="edge">
<title>n27&#45;&gt;n31</title>
<path fill="none" stroke="black" d="M4155.77,-1239C4337.79,-1219.17 4629.63,-1187.37 4815.7,-1167.1"/>
<polygon fill="black" stroke="black" points="4816.3,-1170.56 4825.86,-1165.99 4815.54,-1163.6 4816.3,-1170.56"/>
</g>
<!-- n4 -->
<g id="node20" class="node">
<title>n4</title>
<ellipse fill="#DA79E8" stroke="black" cx="2390.92" cy="-1036.06" rx="190.84" ry="37.45"/>
<text text-anchor="middle" x="2390.92" y="-1047.36" font-family="Times,serif" font-size="14.00">más</text>
<text text-anchor="middle" x="2390.92" y="-1032.36" font-family="Times,serif" font-size="14.00">rg (advmod)</text>
<text text-anchor="middle" x="2390.92" y="-1017.36" font-family="Times,serif" font-size="14.00">rep=no, t=no, r=yes, m=yes, c=no</text>
</g>
<!-- n2&#45;&gt;n4 -->
<g id="edge19" class="edge">
<title>n2&#45;&gt;n4</title>
<path fill="none" stroke="black" d="M2527.64,-1111.54C2507.11,-1100.35 2484.18,-1087.86 2463.06,-1076.36"/>
<polygon fill="black" stroke="black" points="2464.59,-1073.2 2454.13,-1071.49 2461.24,-1079.35 2464.59,-1073.2"/>
</g>
<!-- n6 -->
<g id="node21" class="node">
<title>n6</title>
<ellipse fill="#DA79E8" stroke="black" cx="2790.92" cy="-1036.06" rx="190.84" ry="37.45"/>
<text text-anchor="middle" x="2790.92" y="-1047.36" font-family="Times,serif" font-size="14.00">cosas</text>
<text text-anchor="middle" x="2790.92" y="-1032.36" font-family="Times,serif" font-size="14.00">ncfp000 (dobj)</text>
<text text-anchor="middle" x="2790.92" y="-1017.36" font-family="Times,serif" font-size="14.00">rep=no, t=no, r=yes, m=yes, c=no</text>
</g>
<!-- n2&#45;&gt;n6 -->
<g id="edge20" class="edge">
<title>n2&#45;&gt;n6</title>
<path fill="none" stroke="black" d="M2654.2,-1111.54C2674.73,-1100.35 2697.65,-1087.86 2718.78,-1076.36"/>
<polygon fill="black" stroke="black" points="2720.6,-1079.35 2727.71,-1071.49 2717.25,-1073.2 2720.6,-1079.35"/>
</g>
<!-- n3 -->
<g id="node22" class="node">
<title>n3</title>
<ellipse fill="#DA79E8" stroke="black" cx="2390.92" cy="-925.1" rx="190.84" ry="37.45"/>
<text text-anchor="middle" x="2390.92" y="-936.4" font-family="Times,serif" font-size="14.00">aún</text>
<text text-anchor="middle" x="2390.92" y="-921.4" font-family="Times,serif" font-size="14.00">rg (advmod)</text>
<text text-anchor="middle" x="2390.92" y="-906.4" font-family="Times,serif" font-size="14.00">rep=no, t=no, r=yes, m=yes, c=no</text>
</g>
<!-- n4&#45;&gt;n3 -->
<g id="edge21" class="edge">
<title>n4&#45;&gt;n3</title>
<path fill="none" stroke="black" d="M2390.92,-998.47C2390.92,-990.3 2390.92,-981.52 2390.92,-972.99"/>
<polygon fill="black" stroke="black" points="2394.42,-972.78 2390.92,-962.78 2387.42,-972.78 2394.42,-972.78"/>
</g>
<!-- n5 -->
<g id="node23" class="node">
<title>n5</title>
<ellipse fill="#DA79E8" stroke="black" cx="2790.92" cy="-925.1" rx="190.84" ry="37.45"/>
<text text-anchor="middle" x="2790.92" y="-936.4" font-family="Times,serif" font-size="14.00">las</text>
<text text-anchor="middle" x="2790.92" y="-921.4" font-family="Times,serif" font-size="14.00">da0fp0 (det)</text>
<text text-anchor="middle" x="2790.92" y="-906.4" font-family="Times,serif" font-size="14.00">rep=no, t=no, r=yes, m=yes, c=no</text>
</g>
<!-- n6&#45;&gt;n5 -->
<g id="edge22" class="edge">
<title>n6&#45;&gt;n5</title>
<path fill="none" stroke="black" d="M2790.92,-998.47C2790.92,-990.3 2790.92,-981.52 2790.92,-972.99"/>
<polygon fill="black" stroke="black" points="2794.42,-972.78 2790.92,-962.78 2787.42,-972.78 2794.42,-972.78"/>
</g>
<!-- n26 -->
<g id="node29" class="node">
<title>n26</title>
<ellipse fill="#DA79E8" stroke="black" cx="3790.92" cy="-1036.06" rx="190.84" ry="37.45"/>
<text text-anchor="middle" x="3790.92" y="-1047.36" font-family="Times,serif" font-size="14.00">que</text>
<text text-anchor="middle" x="3790.92" y="-1032.36" font-family="Times,serif" font-size="14.00">pr0cn000 (pobj)</text>
<text text-anchor="middle" x="3790.92" y="-1017.36" font-family="Times,serif" font-size="14.00">rep=no, t=no, r=yes, m=yes, c=no</text>
</g>
<!-- n24&#45;&gt;n26 -->
<g id="edge28" class="edge">
<title>n24&#45;&gt;n26</title>
<path fill="none" stroke="black" d="M3790.92,-1109.43C3790.92,-1101.25 3790.92,-1092.47 3790.92,-1083.95"/>
<polygon fill="black" stroke="black" points="3794.42,-1083.73 3790.92,-1073.73 3787.42,-1083.73 3794.42,-1083.73"/>
</g>
<!-- n29 -->
<g id="node31" class="node">
<title>n29</title>
<ellipse fill="#DA79E8" stroke="black" cx="4190.92" cy="-1036.06" rx="190.84" ry="37.45"/>
<text text-anchor="middle" x="4190.92" y="-1047.36" font-family="Times,serif" font-size="14.00">entredicho</text>
<text text-anchor="middle" x="4190.92" y="-1032.36" font-family="Times,serif" font-size="14.00">ncmp000 (pobj)</text>
<text text-anchor="middle" x="4190.92" y="-1017.36" font-family="Times,serif" font-size="14.00">rep=no, t=no, r=yes, m=yes, c=no</text>
</g>
<!-- n28&#45;&gt;n29 -->
<g id="edge30" class="edge">
<title>n28&#45;&gt;n29</title>
<path fill="none" stroke="black" d="M4190.92,-1109.43C4190.92,-1101.25 4190.92,-1092.47 4190.92,-1083.95"/>
<polygon fill="black" stroke="black" points="4194.42,-1083.73 4190.92,-1073.73 4187.42,-1083.73 4194.42,-1083.73"/>
</g>
<!-- n30 -->
<g id="node32" class="node">
<title>n30</title>
<ellipse fill="#DA79E8" stroke="black" cx="4590.92" cy="-1036.06" rx="190.84" ry="37.45"/>
<text text-anchor="middle" x="4590.92" y="-1047.36" font-family="Times,serif" font-size="14.00">la</text>
<text text-anchor="middle" x="4590.92" y="-1032.36" font-family="Times,serif" font-size="14.00">da0fs0 (det)</text>
<text text-anchor="middle" x="4590.92" y="-1017.36" font-family="Times,serif" font-size="14.00">rep=no, t=no, r=yes, m=yes, c=no</text>
</g>
<!-- n31&#45;&gt;n30 -->
<g id="edge31" class="edge">
<title>n31&#45;&gt;n30</title>
<path fill="none" stroke="black" d="M4881.62,-1116.24C4828.48,-1101.76 4764.51,-1084.34 4710.12,-1069.53"/>
<polygon fill="black" stroke="black" points="4711,-1066.14 4700.44,-1066.89 4709.16,-1072.89 4711,-1066.14"/>
</g>
<!-- n32 -->
<g id="node33" class="node">
<title>n32</title>
<ellipse fill="#DA79E8" stroke="black" cx="4990.92" cy="-1036.06" rx="190.84" ry="37.45"/>
<text text-anchor="middle" x="4990.92" y="-1047.36" font-family="Times,serif" font-size="14.00">legal</text>
<text text-anchor="middle" x="4990.92" y="-1032.36" font-family="Times,serif" font-size="14.00">aq0cs0 (amod)</text>
<text text-anchor="middle" x="4990.92" y="-1017.36" font-family="Times,serif" font-size="14.00">rep=no, t=no, r=yes, m=yes, c=no</text>
</g>
<!-- n31&#45;&gt;n32 -->
<g id="edge32" class="edge">
<title>n31&#45;&gt;n32</title>
<path fill="none" stroke="black" d="M4990.92,-1109.43C4990.92,-1101.25 4990.92,-1092.47 4990.92,-1083.95"/>
<polygon fill="black" stroke="black" points="4994.42,-1083.73 4990.92,-1073.73 4987.42,-1083.73 4994.42,-1083.73"/>
</g>
<!-- n33 -->
<g id="node34" class="node">
<title>n33</title>
<ellipse fill="#DA79E8" stroke="black" cx="5390.92" cy="-1036.06" rx="190.84" ry="37.45"/>
<text text-anchor="middle" x="5390.92" y="-1047.36" font-family="Times,serif" font-size="14.00">del</text>
<text text-anchor="middle" x="5390.92" y="-1032.36" font-family="Times,serif" font-size="14.00">spcms (prepn)</text>
<text text-anchor="middle" x="5390.92" y="-1017.36" font-family="Times,serif" font-size="14.00">rep=no, t=no, r=yes, m=yes, c=no</text>
</g>
<!-- n31&#45;&gt;n33 -->
<g id="edge33" class="edge">
<title>n31&#45;&gt;n33</title>
<path fill="none" stroke="black" d="M5100.22,-1116.24C5153.36,-1101.76 5217.33,-1084.34 5271.71,-1069.53"/>
<polygon fill="black" stroke="black" points="5272.67,-1072.89 5281.4,-1066.89 5270.83,-1066.14 5272.67,-1072.89"/>
</g>
<!-- n36 -->
<g id="node35" class="node">
<title>n36</title>
<ellipse fill="#DA79E8" stroke="black" cx="5790.92" cy="-1036.06" rx="190.84" ry="37.45"/>
<text text-anchor="middle" x="5790.92" y="-1047.36" font-family="Times,serif" font-size="14.00">de</text>
<text text-anchor="middle" x="5790.92" y="-1032.36" font-family="Times,serif" font-size="14.00">sps00 (prepn)</text>
<text text-anchor="middle" x="5790.92" y="-1017.36" font-family="Times,serif" font-size="14.00">rep=no, t=no, r=yes, m=yes, c=no</text>
</g>
<!-- n31&#45;&gt;n36 -->
<g id="edge34" class="edge">
<title>n31&#45;&gt;n36</title>
<path fill="none" stroke="black" d="M5157.46,-1128.61C5278.08,-1115.35 5444.9,-1095.65 5590.92,-1073.53 5608.96,-1070.8 5627.88,-1067.68 5646.57,-1064.45"/>
<polygon fill="black" stroke="black" points="5647.38,-1067.86 5656.63,-1062.7 5646.17,-1060.97 5647.38,-1067.86"/>
</g>
<!-- n25 -->
<g id="node30" class="node">
<title>n25</title>
<ellipse fill="#DA79E8" stroke="black" cx="3790.92" cy="-925.1" rx="190.84" ry="37.45"/>
<text text-anchor="middle" x="3790.92" y="-936.4" font-family="Times,serif" font-size="14.00">la</text>
<text text-anchor="middle" x="3790.92" y="-921.4" font-family="Times,serif" font-size="14.00">da0fs0 (det)</text>
<text text-anchor="middle" x="3790.92" y="-906.4" font-family="Times,serif" font-size="14.00">rep=no, t=no, r=yes, m=yes, c=no</text>
</g>
<!-- n26&#45;&gt;n25 -->
<g id="edge29" class="edge">
<title>n26&#45;&gt;n25</title>
<path fill="none" stroke="black" d="M3790.92,-998.47C3790.92,-990.3 3790.92,-981.52 3790.92,-972.99"/>
<polygon fill="black" stroke="black" points="3794.42,-972.78 3790.92,-962.78 3787.42,-972.78 3794.42,-972.78"/>
</g>
<!-- n35 -->
<g id="node36" class="node">
<title>n35</title>
<ellipse fill="#DA79E8" stroke="black" cx="5390.92" cy="-925.1" rx="190.84" ry="37.45"/>
<text text-anchor="middle" x="5390.92" y="-936.4" font-family="Times,serif" font-size="14.00">ministro</text>
<text text-anchor="middle" x="5390.92" y="-921.4" font-family="Times,serif" font-size="14.00">ncms000 (pobj)</text>
<text text-anchor="middle" x="5390.92" y="-906.4" font-family="Times,serif" font-size="14.00">rep=no, t=no, r=yes, m=yes, c=no</text>
</g>
<!-- n33&#45;&gt;n35 -->
<g id="edge35" class="edge">
<title>n33&#45;&gt;n35</title>
<path fill="none" stroke="black" d="M5390.92,-998.47C5390.92,-990.3 5390.92,-981.52 5390.92,-972.99"/>
<polygon fill="black" stroke="black" points="5394.42,-972.78 5390.92,-962.78 5387.42,-972.78 5394.42,-972.78"/>
</g>
<!-- n37 -->
<g id="node38" class="node">
<title>n37</title>
<ellipse fill="#DA79E8" stroke="black" cx="5790.92" cy="-925.1" rx="190.84" ry="37.45"/>
<text text-anchor="middle" x="5790.92" y="-936.4" font-family="Times,serif" font-size="14.00">llegar</text>
<text text-anchor="middle" x="5790.92" y="-921.4" font-family="Times,serif" font-size="14.00">vmn0000 (pobj)</text>
<text text-anchor="middle" x="5790.92" y="-906.4" font-family="Times,serif" font-size="14.00">rep=no, t=no, r=yes, m=yes, c=no</text>
</g>
<!-- n36&#45;&gt;n37 -->
<g id="edge37" class="edge">
<title>n36&#45;&gt;n37</title>
<path fill="none" stroke="black" d="M5790.92,-998.47C5790.92,-990.3 5790.92,-981.52 5790.92,-972.99"/>
<polygon fill="black" stroke="black" points="5794.42,-972.78 5790.92,-962.78 5787.42,-972.78 5794.42,-972.78"/>
</g>
<!-- n34 -->
<g id="node37" class="node">
<title>n34</title>
<ellipse fill="#DA79E8" stroke="black" cx="5390.92" cy="-814.15" rx="190.84" ry="37.45"/>
<text text-anchor="middle" x="5390.92" y="-825.45" font-family="Times,serif" font-size="14.00">primer</text>
<text text-anchor="middle" x="5390.92" y="-810.45" font-family="Times,serif" font-size="14.00">ao0ms0 (amod)</text>
<text text-anchor="middle" x="5390.92" y="-795.45" font-family="Times,serif" font-size="14.00">rep=no, t=no, r=yes, m=yes, c=no</text>
</g>
<!-- n35&#45;&gt;n34 -->
<g id="edge36" class="edge">
<title>n35&#45;&gt;n34</title>
<path fill="none" stroke="black" d="M5390.92,-887.52C5390.92,-879.35 5390.92,-870.57 5390.92,-862.04"/>
<polygon fill="black" stroke="black" points="5394.42,-861.82 5390.92,-851.82 5387.42,-861.82 5394.42,-861.82"/>
</g>
<!-- n38 -->
<g id="node39" class="node">
<title>n38</title>
<ellipse fill="#DA79E8" stroke="black" cx="5790.92" cy="-814.15" rx="190.84" ry="37.45"/>
<text text-anchor="middle" x="5790.92" y="-825.45" font-family="Times,serif" font-size="14.00">a</text>
<text text-anchor="middle" x="5790.92" y="-810.45" font-family="Times,serif" font-size="14.00">sps00 (prepv)</text>
<text text-anchor="middle" x="5790.92" y="-795.45" font-family="Times,serif" font-size="14.00">rep=no, t=no, r=yes, m=yes, c=no</text>
</g>
<!-- n37&#45;&gt;n38 -->
<g id="edge38" class="edge">
<title>n37&#45;&gt;n38</title>
<path fill="none" stroke="black" d="M5790.92,-887.52C5790.92,-879.35 5790.92,-870.57 5790.92,-862.04"/>
<polygon fill="black" stroke="black" points="5794.42,-861.82 5790.92,-851.82 5787.42,-861.82 5794.42,-861.82"/>
</g>
<!-- n44 -->
<g id="node40" class="node">
<title>n44</title>
<ellipse fill="#DA79E8" stroke="black" cx="6190.92" cy="-814.15" rx="190.84" ry="37.45"/>
<text text-anchor="middle" x="6190.92" y="-825.45" font-family="Times,serif" font-size="14.00">antes</text>
<text text-anchor="middle" x="6190.92" y="-810.45" font-family="Times,serif" font-size="14.00">rg (advmod)</text>
<text text-anchor="middle" x="6190.92" y="-795.45" font-family="Times,serif" font-size="14.00">rep=no, t=no, r=yes, m=yes, c=no</text>
</g>
<!-- n37&#45;&gt;n44 -->
<g id="edge39" class="edge">
<title>n37&#45;&gt;n44</title>
<path fill="none" stroke="black" d="M5900.22,-894.33C5953.36,-879.86 6017.33,-862.43 6071.71,-847.62"/>
<polygon fill="black" stroke="black" points="6072.67,-850.99 6081.4,-844.98 6070.83,-844.23 6072.67,-850.99"/>
</g>
<!-- n40 -->
<g id="node41" class="node">
<title>n40</title>
<ellipse fill="#DA79E8" stroke="black" cx="5790.92" cy="-703.2" rx="190.84" ry="37.45"/>
<text text-anchor="middle" x="5790.92" y="-714.5" font-family="Times,serif" font-size="14.00">acuerdo</text>
<text text-anchor="middle" x="5790.92" y="-699.5" font-family="Times,serif" font-size="14.00">ncms000 (pobj)</text>
<text text-anchor="middle" x="5790.92" y="-684.5" font-family="Times,serif" font-size="14.00">rep=no, t=no, r=yes, m=yes, c=no</text>
</g>
<!-- n38&#45;&gt;n40 -->
<g id="edge40" class="edge">
<title>n38&#45;&gt;n40</title>
<path fill="none" stroke="black" d="M5790.92,-776.57C5790.92,-768.39 5790.92,-759.61 5790.92,-751.09"/>
<polygon fill="black" stroke="black" points="5794.42,-750.87 5790.92,-740.87 5787.42,-750.87 5794.42,-750.87"/>
</g>
<!-- n45 -->
<g id="node46" class="node">
<title>n45</title>
<ellipse fill="#DA79E8" stroke="black" cx="6190.92" cy="-703.2" rx="190.84" ry="37.45"/>
<text text-anchor="middle" x="6190.92" y="-714.5" font-family="Times,serif" font-size="14.00">de</text>
<text text-anchor="middle" x="6190.92" y="-699.5" font-family="Times,serif" font-size="14.00">sps00 (prep)</text>
<text text-anchor="middle" x="6190.92" y="-684.5" font-family="Times,serif" font-size="14.00">rep=no, t=no, r=yes, m=yes, c=no</text>
</g>
<!-- n44&#45;&gt;n45 -->
<g id="edge45" class="edge">
<title>n44&#45;&gt;n45</title>
<path fill="none" stroke="black" d="M6190.92,-776.57C6190.92,-768.39 6190.92,-759.61 6190.92,-751.09"/>
<polygon fill="black" stroke="black" points="6194.42,-750.87 6190.92,-740.87 6187.42,-750.87 6194.42,-750.87"/>
</g>
<!-- n39 -->
<g id="node42" class="node">
<title>n39</title>
<ellipse fill="#DA79E8" stroke="black" cx="5390.92" cy="-592.24" rx="190.84" ry="37.45"/>
<text text-anchor="middle" x="5390.92" y="-603.54" font-family="Times,serif" font-size="14.00">un</text>
<text text-anchor="middle" x="5390.92" y="-588.54" font-family="Times,serif" font-size="14.00">di0ms0 (det)</text>
<text text-anchor="middle" x="5390.92" y="-573.54" font-family="Times,serif" font-size="14.00">rep=no, t=no, r=yes, m=yes, c=no</text>
</g>
<!-- n40&#45;&gt;n39 -->
<g id="edge41" class="edge">
<title>n40&#45;&gt;n39</title>
<path fill="none" stroke="black" d="M5681.62,-672.42C5628.48,-657.95 5564.51,-640.53 5510.12,-625.71"/>
<polygon fill="black" stroke="black" points="5511,-622.32 5500.44,-623.07 5509.16,-629.08 5511,-622.32"/>
</g>
<!-- n41 -->
<g id="node43" class="node">
<title>n41</title>
<ellipse fill="#DA79E8" stroke="black" cx="5790.92" cy="-592.24" rx="190.84" ry="37.45"/>
<text text-anchor="middle" x="5790.92" y="-603.54" font-family="Times,serif" font-size="14.00">con</text>
<text text-anchor="middle" x="5790.92" y="-588.54" font-family="Times,serif" font-size="14.00">sps00 (prepn)</text>
<text text-anchor="middle" x="5790.92" y="-573.54" font-family="Times,serif" font-size="14.00">rep=no, t=no, r=yes, m=yes, c=no</text>
</g>
<!-- n40&#45;&gt;n41 -->
<g id="edge42" class="edge">
<title>n40&#45;&gt;n41</title>
<path fill="none" stroke="black" d="M5790.92,-665.61C5790.92,-657.44 5790.92,-648.66 5790.92,-640.13"/>
<polygon fill="black" stroke="black" points="5794.42,-639.92 5790.92,-629.92 5787.42,-639.92 5794.42,-639.92"/>
</g>
<!-- n43 -->
<g id="node44" class="node">
<title>n43</title>
<ellipse fill="#DA79E8" stroke="black" cx="5790.92" cy="-481.29" rx="190.84" ry="37.45"/>
<text text-anchor="middle" x="5790.92" y="-492.59" font-family="Times,serif" font-size="14.00">palestinos</text>
<text text-anchor="middle" x="5790.92" y="-477.59" font-family="Times,serif" font-size="14.00">ncmp000 (pobj)</text>
<text text-anchor="middle" x="5790.92" y="-462.59" font-family="Times,serif" font-size="14.00">rep=no, t=no, r=yes, m=yes, c=no</text>
</g>
<!-- n41&#45;&gt;n43 -->
<g id="edge43" class="edge">
<title>n41&#45;&gt;n43</title>
<path fill="none" stroke="black" d="M5790.92,-554.66C5790.92,-546.49 5790.92,-537.71 5790.92,-529.18"/>
<polygon fill="black" stroke="black" points="5794.42,-528.96 5790.92,-518.96 5787.42,-528.96 5794.42,-528.96"/>
</g>
<!-- n42 -->
<g id="node45" class="node">
<title>n42</title>
<ellipse fill="#DA79E8" stroke="black" cx="5790.92" cy="-370.34" rx="190.84" ry="37.45"/>
<text text-anchor="middle" x="5790.92" y="-381.64" font-family="Times,serif" font-size="14.00">los</text>
<text text-anchor="middle" x="5790.92" y="-366.64" font-family="Times,serif" font-size="14.00">da0mp0 (det)</text>
<text text-anchor="middle" x="5790.92" y="-351.64" font-family="Times,serif" font-size="14.00">rep=no, t=no, r=yes, m=yes, c=no</text>
</g>
<!-- n43&#45;&gt;n42 -->
<g id="edge44" class="edge">
<title>n43&#45;&gt;n42</title>
<path fill="none" stroke="black" d="M5790.92,-443.71C5790.92,-435.53 5790.92,-426.75 5790.92,-418.23"/>
<polygon fill="black" stroke="black" points="5794.42,-418.01 5790.92,-408.01 5787.42,-418.01 5794.42,-418.01"/>
</g>
<!-- n47 -->
<g id="node47" class="node">
<title>n47</title>
<ellipse fill="#DA79E8" stroke="black" cx="6190.92" cy="-592.24" rx="190.84" ry="37.45"/>
<text text-anchor="middle" x="6190.92" y="-603.54" font-family="Times,serif" font-size="14.00">elecciones</text>
<text text-anchor="middle" x="6190.92" y="-588.54" font-family="Times,serif" font-size="14.00">ncfp000 (pobj)</text>
<text text-anchor="middle" x="6190.92" y="-573.54" font-family="Times,serif" font-size="14.00">rep=no, t=no, r=yes, m=yes, c=no</text>
</g>
<!-- n45&#45;&gt;n47 -->
<g id="edge46" class="edge">
<title>n45&#45;&gt;n47</title>
<path fill="none" stroke="black" d="M6190.92,-665.61C6190.92,-657.44 6190.92,-648.66 6190.92,-640.13"/>
<polygon fill="black" stroke="black" points="6194.42,-639.92 6190.92,-629.92 6187.42,-639.92 6194.42,-639.92"/>
</g>
<!-- n46 -->
<g id="node48" class="node">
<title>n46</title>
<ellipse fill="#DA79E8" stroke="black" cx="6190.92" cy="-481.29" rx="190.84" ry="37.45"/>
<text text-anchor="middle" x="6190.92" y="-492.59" font-family="Times,serif" font-size="14.00">las</text>
<text text-anchor="middle" x="6190.92" y="-477.59" font-family="Times,serif" font-size="14.00">da0fp0 (det)</text>
<text text-anchor="middle" x="6190.92" y="-462.59" font-family="Times,serif" font-size="14.00">rep=no, t=no, r=yes, m=yes, c=no</text>
</g>
<!-- n47&#45;&gt;n46 -->
<g id="edge47" class="edge">
<title>n47&#45;&gt;n46</title>
<path fill="none" stroke="black" d="M6190.92,-554.66C6190.92,-546.49 6190.92,-537.71 6190.92,-529.18"/>
<polygon fill="black" stroke="black" points="6194.42,-528.96 6190.92,-518.96 6187.42,-528.96 6194.42,-528.96"/>
</g>
<!-- n48 -->
<g id="node49" class="node">
<title>n48</title>
<ellipse fill="#DA79E8" stroke="black" cx="6590.92" cy="-481.29" rx="190.84" ry="37.45"/>
<text text-anchor="middle" x="6590.92" y="-492.59" font-family="Times,serif" font-size="14.00">del</text>
<text text-anchor="middle" x="6590.92" y="-477.59" font-family="Times,serif" font-size="14.00">spcms (prepn)</text>
<text text-anchor="middle" x="6590.92" y="-462.59" font-family="Times,serif" font-size="14.00">rep=no, t=no, r=yes, m=yes, c=no</text>
</g>
<!-- n47&#45;&gt;n48 -->
<g id="edge48" class="edge">
<title>n47&#45;&gt;n48</title>
<path fill="none" stroke="black" d="M6300.22,-561.47C6353.36,-547 6417.33,-529.57 6471.71,-514.76"/>
<polygon fill="black" stroke="black" points="6472.67,-518.13 6481.4,-512.12 6470.83,-511.37 6472.67,-518.13"/>
</g>
<!-- n50 -->
<g id="node50" class="node">
<title>n50</title>
<ellipse fill="#DA79E8" stroke="black" cx="6590.92" cy="-370.34" rx="190.84" ry="37.45"/>
<text text-anchor="middle" x="6590.92" y="-381.64" font-family="Times,serif" font-size="14.00">día</text>
<text text-anchor="middle" x="6590.92" y="-366.64" font-family="Times,serif" font-size="14.00">ncfp000 (pobj)</text>
<text text-anchor="middle" x="6590.92" y="-351.64" font-family="Times,serif" font-size="14.00">rep=no, t=no, r=yes, m=yes, c=no</text>
</g>
<!-- n48&#45;&gt;n50 -->
<g id="edge49" class="edge">
<title>n48&#45;&gt;n50</title>
<path fill="none" stroke="black" d="M6590.92,-443.71C6590.92,-435.53 6590.92,-426.75 6590.92,-418.23"/>
<polygon fill="black" stroke="black" points="6594.42,-418.01 6590.92,-408.01 6587.42,-418.01 6594.42,-418.01"/>
</g>
<!-- n49 -->
<g id="node51" class="node">
<title>n49</title>
<ellipse fill="#DA79E8" stroke="black" cx="6390.92" cy="-259.38" rx="190.84" ry="37.45"/>
<text text-anchor="middle" x="6390.92" y="-270.68" font-family="Times,serif" font-size="14.00">próximo</text>
<text text-anchor="middle" x="6390.92" y="-255.68" font-family="Times,serif" font-size="14.00">aq0ms0 (amod)</text>
<text text-anchor="middle" x="6390.92" y="-240.68" font-family="Times,serif" font-size="14.00">rep=no, t=no, r=yes, m=yes, c=no</text>
</g>
<!-- n50&#45;&gt;n49 -->
<g id="edge50" class="edge">
<title>n50&#45;&gt;n49</title>
<path fill="none" stroke="black" d="M6527.64,-334.86C6507.11,-323.68 6484.18,-311.19 6463.06,-299.68"/>
<polygon fill="black" stroke="black" points="6464.59,-296.53 6454.13,-294.82 6461.24,-302.68 6464.59,-296.53"/>
</g>
<!-- n51 -->
<g id="node52" class="node">
<title>n51</title>
<ellipse fill="#DA79E8" stroke="black" cx="6790.92" cy="-259.38" rx="190.84" ry="37.45"/>
<text text-anchor="middle" x="6790.92" y="-270.68" font-family="Times,serif" font-size="14.00">6</text>
<text text-anchor="middle" x="6790.92" y="-255.68" font-family="Times,serif" font-size="14.00">z (num)</text>
<text text-anchor="middle" x="6790.92" y="-240.68" font-family="Times,serif" font-size="14.00">rep=no, t=no, r=yes, m=yes, c=no</text>
</g>
<!-- n50&#45;&gt;n51 -->
<g id="edge51" class="edge">
<title>n50&#45;&gt;n51</title>
<path fill="none" stroke="black" d="M6654.2,-334.86C6674.73,-323.68 6697.65,-311.19 6718.78,-299.68"/>
<polygon fill="black" stroke="black" points="6720.6,-302.68 6727.71,-294.82 6717.25,-296.53 6720.6,-302.68"/>
</g>
<!-- n52 -->
<g id="node53" class="node">
<title>n52</title>
<ellipse fill="#DA79E8" stroke="black" cx="6790.92" cy="-148.43" rx="190.84" ry="37.45"/>
<text text-anchor="middle" x="6790.92" y="-159.73" font-family="Times,serif" font-size="14.00">de</text>
<text text-anchor="middle" x="6790.92" y="-144.73" font-family="Times,serif" font-size="14.00">sps00 (prep)</text>
<text text-anchor="middle" x="6790.92" y="-129.73" font-family="Times,serif" font-size="14.00">rep=no, t=no, r=yes, m=yes, c=no</text>
</g>
<!-- n51&#45;&gt;n52 -->
<g id="edge52" class="edge">
<title>n51&#45;&gt;n52</title>
<path fill="none" stroke="black" d="M6790.92,-221.8C6790.92,-213.63 6790.92,-204.85 6790.92,-196.32"/>
<polygon fill="black" stroke="black" points="6794.42,-196.1 6790.92,-186.1 6787.42,-196.1 6794.42,-196.1"/>
</g>
<!-- n53 -->
<g id="node54" class="node">
<title>n53</title>
<ellipse fill="#DA79E8" stroke="black" cx="6790.92" cy="-37.48" rx="190.84" ry="37.45"/>
<text text-anchor="middle" x="6790.92" y="-48.78" font-family="Times,serif" font-size="14.00">febrero</text>
<text text-anchor="middle" x="6790.92" y="-33.78" font-family="Times,serif" font-size="14.00">ncfp000 (pobj)</text>
<text text-anchor="middle" x="6790.92" y="-18.78" font-family="Times,serif" font-size="14.00">rep=no, t=no, r=yes, m=yes, c=no</text>
</g>
<!-- n52&#45;&gt;n53 -->
<g id="edge53" class="edge">
<title>n52&#45;&gt;n53</title>
<path fill="none" stroke="black" d="M6790.92,-110.85C6790.92,-102.67 6790.92,-93.89 6790.92,-85.37"/>
<polygon fill="black" stroke="black" points="6794.42,-85.15 6790.92,-75.15 6787.42,-85.15 6794.42,-85.15"/>
</g>
</g>
</svg>
