<?xml version="1.0" encoding="UTF-8" standalone="no"?>
<!DOCTYPE svg PUBLIC "-//W3C//DTD SVG 1.1//EN"
 "http://www.w3.org/Graphics/SVG/1.1/DTD/svg11.dtd">
<!-- Generated by graphviz version 2.43.0 (0)
 -->
<!-- Title: tree Pages: 1 -->
<svg width="3110pt" height="971pt"
 viewBox="0.00 0.00 3109.94 970.58" xmlns="http://www.w3.org/2000/svg" xmlns:xlink="http://www.w3.org/1999/xlink">
<g id="graph0" class="graph" transform="scale(1 1) rotate(0) translate(4 966.58)">
<title>tree</title>
<polygon fill="white" stroke="transparent" points="-4,4 -4,-966.58 3105.94,-966.58 3105.94,4 -4,4"/>
<!-- n5 -->
<g id="node1" class="node">
<title>n5</title>
<ellipse fill="#98D2A5" stroke="black" cx="1160.97" cy="-925.1" rx="185.94" ry="37.45"/>
<text text-anchor="middle" x="1160.97" y="-936.4" font-family="Times,serif" font-size="14.00">produjeron</text>
<text text-anchor="middle" x="1160.97" y="-921.4" font-family="Times,serif" font-size="14.00">vmis3p0 (root)</text>
<text text-anchor="middle" x="1160.97" y="-906.4" font-family="Times,serif" font-size="14.00">rep=no, t=no, r=no, m=yes, c=no</text>
</g>
<!-- n3 -->
<g id="node2" class="node">
<title>n3</title>
<ellipse fill="#98D2A5" stroke="black" cx="575.97" cy="-814.15" rx="185.94" ry="37.45"/>
<text text-anchor="middle" x="575.97" y="-825.45" font-family="Times,serif" font-size="14.00">día</text>
<text text-anchor="middle" x="575.97" y="-810.45" font-family="Times,serif" font-size="14.00">ncms000 (tmod)</text>
<text text-anchor="middle" x="575.97" y="-795.45" font-family="Times,serif" font-size="14.00">rep=no, t=no, r=no, m=yes, c=no</text>
</g>
<!-- n5&#45;&gt;n3 -->
<g id="edge1" class="edge">
<title>n5&#45;&gt;n3</title>
<path fill="none" stroke="black" d="M1026.49,-899.15C951.32,-885.2 855.93,-867.47 770.97,-851.63 754.48,-848.55 737.21,-845.33 720.05,-842.12"/>
<polygon fill="black" stroke="black" points="720.44,-838.63 709.97,-840.24 719.16,-845.52 720.44,-838.63"/>
</g>
<!-- n4 -->
<g id="node3" class="node">
<title>n4</title>
<ellipse fill="#98D2A5" stroke="black" cx="965.97" cy="-814.15" rx="185.94" ry="37.45"/>
<text text-anchor="middle" x="965.97" y="-825.45" font-family="Times,serif" font-size="14.00">se</text>
<text text-anchor="middle" x="965.97" y="-810.45" font-family="Times,serif" font-size="14.00">p0300000 (reflec)</text>
<text text-anchor="middle" x="965.97" y="-795.45" font-family="Times,serif" font-size="14.00">rep=no, t=no, r=no, m=yes, c=no</text>
</g>
<!-- n5&#45;&gt;n4 -->
<g id="edge2" class="edge">
<title>n5&#45;&gt;n4</title>
<path fill="none" stroke="black" d="M1099.27,-889.63C1079.34,-878.5 1057.1,-866.07 1036.58,-854.61"/>
<polygon fill="black" stroke="black" points="1038.04,-851.41 1027.6,-849.59 1034.62,-857.52 1038.04,-851.41"/>
</g>
<!-- n8 -->
<g id="node4" class="node">
<title>n8</title>
<ellipse fill="#98D2A5" stroke="black" cx="1355.97" cy="-814.15" rx="185.94" ry="37.45"/>
<text text-anchor="middle" x="1355.97" y="-825.45" font-family="Times,serif" font-size="14.00">denuncias</text>
<text text-anchor="middle" x="1355.97" y="-810.45" font-family="Times,serif" font-size="14.00">ncfp000 (nsubj)</text>
<text text-anchor="middle" x="1355.97" y="-795.45" font-family="Times,serif" font-size="14.00">rep=no, t=no, r=no, m=yes, c=no</text>
</g>
<!-- n5&#45;&gt;n8 -->
<g id="edge3" class="edge">
<title>n5&#45;&gt;n8</title>
<path fill="none" stroke="black" d="M1222.67,-889.63C1242.59,-878.5 1264.84,-866.07 1285.35,-854.61"/>
<polygon fill="black" stroke="black" points="1287.31,-857.52 1294.34,-849.59 1283.9,-851.41 1287.31,-857.52"/>
</g>
<!-- n27 -->
<g id="node5" class="node">
<title>n27</title>
<ellipse fill="none" stroke="black" cx="1741.97" cy="-814.15" rx="181.95" ry="37.45"/>
<text text-anchor="middle" x="1741.97" y="-825.45" font-family="Times,serif" font-size="14.00">.</text>
<text text-anchor="middle" x="1741.97" y="-810.45" font-family="Times,serif" font-size="14.00">fp (punct)</text>
<text text-anchor="middle" x="1741.97" y="-795.45" font-family="Times,serif" font-size="14.00">rep=no, t=no, r=no, m=no, c=no</text>
</g>
<!-- n5&#45;&gt;n27 -->
<g id="edge4" class="edge">
<title>n5&#45;&gt;n27</title>
<path fill="none" stroke="black" d="M1295.92,-899.2C1371.03,-885.29 1466.2,-867.6 1550.97,-851.63 1567.26,-848.56 1584.33,-845.32 1601.28,-842.1"/>
<polygon fill="black" stroke="black" points="1602.07,-845.51 1611.24,-840.2 1600.77,-838.64 1602.07,-845.51"/>
</g>
<!-- n1 -->
<g id="node6" class="node">
<title>n1</title>
<ellipse fill="#98D2A5" stroke="black" cx="185.97" cy="-703.2" rx="185.94" ry="37.45"/>
<text text-anchor="middle" x="185.97" y="-714.5" font-family="Times,serif" font-size="14.00">Ese</text>
<text text-anchor="middle" x="185.97" y="-699.5" font-family="Times,serif" font-size="14.00">dd0ms0 (det)</text>
<text text-anchor="middle" x="185.97" y="-684.5" font-family="Times,serif" font-size="14.00">rep=no, t=no, r=no, m=yes, c=no</text>
</g>
<!-- n3&#45;&gt;n1 -->
<g id="edge5" class="edge">
<title>n3&#45;&gt;n1</title>
<path fill="none" stroke="black" d="M469.4,-783.38C417.59,-768.91 355.23,-751.48 302.2,-736.67"/>
<polygon fill="black" stroke="black" points="302.98,-733.25 292.41,-733.93 301.1,-739.99 302.98,-733.25"/>
</g>
<!-- n2 -->
<g id="node7" class="node">
<title>n2</title>
<ellipse fill="#98D2A5" stroke="black" cx="575.97" cy="-703.2" rx="185.94" ry="37.45"/>
<text text-anchor="middle" x="575.97" y="-714.5" font-family="Times,serif" font-size="14.00">mismo</text>
<text text-anchor="middle" x="575.97" y="-699.5" font-family="Times,serif" font-size="14.00">di0ms0 (det)</text>
<text text-anchor="middle" x="575.97" y="-684.5" font-family="Times,serif" font-size="14.00">rep=no, t=no, r=no, m=yes, c=no</text>
</g>
<!-- n3&#45;&gt;n2 -->
<g id="edge6" class="edge">
<title>n3&#45;&gt;n2</title>
<path fill="none" stroke="black" d="M575.97,-776.57C575.97,-768.39 575.97,-759.61 575.97,-751.09"/>
<polygon fill="black" stroke="black" points="579.47,-750.87 575.97,-740.87 572.47,-750.87 579.47,-750.87"/>
</g>
<!-- n6 -->
<g id="node8" class="node">
<title>n6</title>
<ellipse fill="#98D2A5" stroke="black" cx="965.97" cy="-703.2" rx="185.94" ry="37.45"/>
<text text-anchor="middle" x="965.97" y="-714.5" font-family="Times,serif" font-size="14.00">otras</text>
<text text-anchor="middle" x="965.97" y="-699.5" font-family="Times,serif" font-size="14.00">di0fp0 (det)</text>
<text text-anchor="middle" x="965.97" y="-684.5" font-family="Times,serif" font-size="14.00">rep=no, t=no, r=no, m=yes, c=no</text>
</g>
<!-- n8&#45;&gt;n6 -->
<g id="edge7" class="edge">
<title>n8&#45;&gt;n6</title>
<path fill="none" stroke="black" d="M1249.4,-783.38C1197.59,-768.91 1135.23,-751.48 1082.2,-736.67"/>
<polygon fill="black" stroke="black" points="1082.98,-733.25 1072.41,-733.93 1081.1,-739.99 1082.98,-733.25"/>
</g>
<!-- n7 -->
<g id="node9" class="node">
<title>n7</title>
<ellipse fill="#98D2A5" stroke="black" cx="1355.97" cy="-703.2" rx="185.94" ry="37.45"/>
<text text-anchor="middle" x="1355.97" y="-714.5" font-family="Times,serif" font-size="14.00">cuatro</text>
<text text-anchor="middle" x="1355.97" y="-699.5" font-family="Times,serif" font-size="14.00">dn0cp0 (det)</text>
<text text-anchor="middle" x="1355.97" y="-684.5" font-family="Times,serif" font-size="14.00">rep=no, t=no, r=no, m=yes, c=no</text>
</g>
<!-- n8&#45;&gt;n7 -->
<g id="edge8" class="edge">
<title>n8&#45;&gt;n7</title>
<path fill="none" stroke="black" d="M1355.97,-776.57C1355.97,-768.39 1355.97,-759.61 1355.97,-751.09"/>
<polygon fill="black" stroke="black" points="1359.47,-750.87 1355.97,-740.87 1352.47,-750.87 1359.47,-750.87"/>
</g>
<!-- n9 -->
<g id="node10" class="node">
<title>n9</title>
<ellipse fill="#98D2A5" stroke="black" cx="1745.97" cy="-703.2" rx="185.94" ry="37.45"/>
<text text-anchor="middle" x="1745.97" y="-714.5" font-family="Times,serif" font-size="14.00">de</text>
<text text-anchor="middle" x="1745.97" y="-699.5" font-family="Times,serif" font-size="14.00">sps00 (prepn)</text>
<text text-anchor="middle" x="1745.97" y="-684.5" font-family="Times,serif" font-size="14.00">rep=no, t=no, r=no, m=yes, c=no</text>
</g>
<!-- n8&#45;&gt;n9 -->
<g id="edge9" class="edge">
<title>n8&#45;&gt;n9</title>
<path fill="none" stroke="black" d="M1462.54,-783.38C1514.34,-768.91 1576.71,-751.48 1629.74,-736.67"/>
<polygon fill="black" stroke="black" points="1630.84,-739.99 1639.53,-733.93 1628.96,-733.25 1630.84,-739.99"/>
</g>
<!-- n17 -->
<g id="node11" class="node">
<title>n17</title>
<ellipse fill="#98D2A5" stroke="black" cx="2135.97" cy="-703.2" rx="185.94" ry="37.45"/>
<text text-anchor="middle" x="2135.97" y="-714.5" font-family="Times,serif" font-size="14.00">por</text>
<text text-anchor="middle" x="2135.97" y="-699.5" font-family="Times,serif" font-size="14.00">sps00 (prepn)</text>
<text text-anchor="middle" x="2135.97" y="-684.5" font-family="Times,serif" font-size="14.00">rep=no, t=no, r=no, m=yes, c=no</text>
</g>
<!-- n8&#45;&gt;n17 -->
<g id="edge10" class="edge">
<title>n8&#45;&gt;n17</title>
<path fill="none" stroke="black" d="M1485.5,-787.18C1507.3,-783.31 1529.73,-779.63 1550.97,-776.67 1723.37,-752.64 1768.57,-764.7 1940.97,-740.67 1958.97,-738.16 1977.83,-735.14 1996.44,-731.92"/>
<polygon fill="black" stroke="black" points="1997.2,-735.34 2006.44,-730.17 1995.99,-728.45 1997.2,-735.34"/>
</g>
<!-- n10 -->
<g id="node12" class="node">
<title>n10</title>
<ellipse fill="#98D2A5" stroke="black" cx="1745.97" cy="-592.24" rx="185.94" ry="37.45"/>
<text text-anchor="middle" x="1745.97" y="-603.54" font-family="Times,serif" font-size="14.00">personas</text>
<text text-anchor="middle" x="1745.97" y="-588.54" font-family="Times,serif" font-size="14.00">ncfp000 (pobj)</text>
<text text-anchor="middle" x="1745.97" y="-573.54" font-family="Times,serif" font-size="14.00">rep=no, t=no, r=no, m=yes, c=no</text>
</g>
<!-- n9&#45;&gt;n10 -->
<g id="edge11" class="edge">
<title>n9&#45;&gt;n10</title>
<path fill="none" stroke="black" d="M1745.97,-665.61C1745.97,-657.44 1745.97,-648.66 1745.97,-640.13"/>
<polygon fill="black" stroke="black" points="1749.47,-639.92 1745.97,-629.92 1742.47,-639.92 1749.47,-639.92"/>
</g>
<!-- n19 -->
<g id="node19" class="node">
<title>n19</title>
<ellipse fill="#98D2A5" stroke="black" cx="2135.97" cy="-592.24" rx="185.94" ry="37.45"/>
<text text-anchor="middle" x="2135.97" y="-603.54" font-family="Times,serif" font-size="14.00">delito</text>
<text text-anchor="middle" x="2135.97" y="-588.54" font-family="Times,serif" font-size="14.00">ncms000 (pobj)</text>
<text text-anchor="middle" x="2135.97" y="-573.54" font-family="Times,serif" font-size="14.00">rep=no, t=no, r=no, m=yes, c=no</text>
</g>
<!-- n17&#45;&gt;n19 -->
<g id="edge18" class="edge">
<title>n17&#45;&gt;n19</title>
<path fill="none" stroke="black" d="M2135.97,-665.61C2135.97,-657.44 2135.97,-648.66 2135.97,-640.13"/>
<polygon fill="black" stroke="black" points="2139.47,-639.92 2135.97,-629.92 2132.47,-639.92 2139.47,-639.92"/>
</g>
<!-- n11 -->
<g id="node13" class="node">
<title>n11</title>
<ellipse fill="#98D2A5" stroke="black" cx="1745.97" cy="-481.29" rx="185.94" ry="37.45"/>
<text text-anchor="middle" x="1745.97" y="-492.59" font-family="Times,serif" font-size="14.00">de</text>
<text text-anchor="middle" x="1745.97" y="-477.59" font-family="Times,serif" font-size="14.00">sps00 (prepn)</text>
<text text-anchor="middle" x="1745.97" y="-462.59" font-family="Times,serif" font-size="14.00">rep=no, t=no, r=no, m=yes, c=no</text>
</g>
<!-- n10&#45;&gt;n11 -->
<g id="edge12" class="edge">
<title>n10&#45;&gt;n11</title>
<path fill="none" stroke="black" d="M1745.97,-554.66C1745.97,-546.49 1745.97,-537.71 1745.97,-529.18"/>
<polygon fill="black" stroke="black" points="1749.47,-528.96 1745.97,-518.96 1742.47,-528.96 1749.47,-528.96"/>
</g>
<!-- n14 -->
<g id="node14" class="node">
<title>n14</title>
<ellipse fill="#98D2A5" stroke="black" cx="1745.97" cy="-370.34" rx="185.94" ry="37.45"/>
<text text-anchor="middle" x="1745.97" y="-381.64" font-family="Times,serif" font-size="14.00">urbanización</text>
<text text-anchor="middle" x="1745.97" y="-366.64" font-family="Times,serif" font-size="14.00">ncfs000 (pobj)</text>
<text text-anchor="middle" x="1745.97" y="-351.64" font-family="Times,serif" font-size="14.00">rep=no, t=no, r=no, m=yes, c=no</text>
</g>
<!-- n11&#45;&gt;n14 -->
<g id="edge13" class="edge">
<title>n11&#45;&gt;n14</title>
<path fill="none" stroke="black" d="M1745.97,-443.71C1745.97,-435.53 1745.97,-426.75 1745.97,-418.23"/>
<polygon fill="black" stroke="black" points="1749.47,-418.01 1745.97,-408.01 1742.47,-418.01 1749.47,-418.01"/>
</g>
<!-- n12 -->
<g id="node15" class="node">
<title>n12</title>
<ellipse fill="#98D2A5" stroke="black" cx="1355.97" cy="-259.38" rx="185.94" ry="37.45"/>
<text text-anchor="middle" x="1355.97" y="-270.68" font-family="Times,serif" font-size="14.00">la</text>
<text text-anchor="middle" x="1355.97" y="-255.68" font-family="Times,serif" font-size="14.00">da0fs0 (det)</text>
<text text-anchor="middle" x="1355.97" y="-240.68" font-family="Times,serif" font-size="14.00">rep=no, t=no, r=no, m=yes, c=no</text>
</g>
<!-- n14&#45;&gt;n12 -->
<g id="edge14" class="edge">
<title>n14&#45;&gt;n12</title>
<path fill="none" stroke="black" d="M1639.4,-339.56C1587.59,-325.09 1525.23,-307.67 1472.2,-292.85"/>
<polygon fill="black" stroke="black" points="1472.98,-289.44 1462.41,-290.12 1471.1,-296.18 1472.98,-289.44"/>
</g>
<!-- n13 -->
<g id="node16" class="node">
<title>n13</title>
<ellipse fill="#98D2A5" stroke="black" cx="1745.97" cy="-259.38" rx="185.94" ry="37.45"/>
<text text-anchor="middle" x="1745.97" y="-270.68" font-family="Times,serif" font-size="14.00">misma</text>
<text text-anchor="middle" x="1745.97" y="-255.68" font-family="Times,serif" font-size="14.00">di0fs0 (det)</text>
<text text-anchor="middle" x="1745.97" y="-240.68" font-family="Times,serif" font-size="14.00">rep=no, t=no, r=no, m=yes, c=no</text>
</g>
<!-- n14&#45;&gt;n13 -->
<g id="edge15" class="edge">
<title>n14&#45;&gt;n13</title>
<path fill="none" stroke="black" d="M1745.97,-332.75C1745.97,-324.58 1745.97,-315.8 1745.97,-307.27"/>
<polygon fill="black" stroke="black" points="1749.47,-307.06 1745.97,-297.06 1742.47,-307.06 1749.47,-307.06"/>
</g>
<!-- n15 -->
<g id="node17" class="node">
<title>n15</title>
<ellipse fill="#98D2A5" stroke="black" cx="2135.97" cy="-259.38" rx="185.94" ry="37.45"/>
<text text-anchor="middle" x="2135.97" y="-270.68" font-family="Times,serif" font-size="14.00">del</text>
<text text-anchor="middle" x="2135.97" y="-255.68" font-family="Times,serif" font-size="14.00">spcms (prepn)</text>
<text text-anchor="middle" x="2135.97" y="-240.68" font-family="Times,serif" font-size="14.00">rep=no, t=no, r=no, m=yes, c=no</text>
</g>
<!-- n14&#45;&gt;n15 -->
<g id="edge16" class="edge">
<title>n14&#45;&gt;n15</title>
<path fill="none" stroke="black" d="M1852.54,-339.56C1904.34,-325.09 1966.71,-307.67 2019.74,-292.85"/>
<polygon fill="black" stroke="black" points="2020.84,-296.18 2029.53,-290.12 2018.96,-289.44 2020.84,-296.18"/>
</g>
<!-- n16 -->
<g id="node18" class="node">
<title>n16</title>
<ellipse fill="#98D2A5" stroke="black" cx="2135.97" cy="-148.43" rx="185.94" ry="37.45"/>
<text text-anchor="middle" x="2135.97" y="-159.73" font-family="Times,serif" font-size="14.00">Maresme</text>
<text text-anchor="middle" x="2135.97" y="-144.73" font-family="Times,serif" font-size="14.00">np00000 (pobj)</text>
<text text-anchor="middle" x="2135.97" y="-129.73" font-family="Times,serif" font-size="14.00">rep=no, t=no, r=no, m=yes, c=no</text>
</g>
<!-- n15&#45;&gt;n16 -->
<g id="edge17" class="edge">
<title>n15&#45;&gt;n16</title>
<path fill="none" stroke="black" d="M2135.97,-221.8C2135.97,-213.63 2135.97,-204.85 2135.97,-196.32"/>
<polygon fill="black" stroke="black" points="2139.47,-196.1 2135.97,-186.1 2132.47,-196.1 2139.47,-196.1"/>
</g>
<!-- n18 -->
<g id="node20" class="node">
<title>n18</title>
<ellipse fill="#98D2A5" stroke="black" cx="2135.97" cy="-481.29" rx="185.94" ry="37.45"/>
<text text-anchor="middle" x="2135.97" y="-492.59" font-family="Times,serif" font-size="14.00">un</text>
<text text-anchor="middle" x="2135.97" y="-477.59" font-family="Times,serif" font-size="14.00">di0ms0 (det)</text>
<text text-anchor="middle" x="2135.97" y="-462.59" font-family="Times,serif" font-size="14.00">rep=no, t=no, r=no, m=yes, c=no</text>
</g>
<!-- n19&#45;&gt;n18 -->
<g id="edge19" class="edge">
<title>n19&#45;&gt;n18</title>
<path fill="none" stroke="black" d="M2135.97,-554.66C2135.97,-546.49 2135.97,-537.71 2135.97,-529.18"/>
<polygon fill="black" stroke="black" points="2139.47,-528.96 2135.97,-518.96 2132.47,-528.96 2139.47,-528.96"/>
</g>
<!-- n20 -->
<g id="node21" class="node">
<title>n20</title>
<ellipse fill="#98D2A5" stroke="black" cx="2525.97" cy="-481.29" rx="185.94" ry="37.45"/>
<text text-anchor="middle" x="2525.97" y="-492.59" font-family="Times,serif" font-size="14.00">de</text>
<text text-anchor="middle" x="2525.97" y="-477.59" font-family="Times,serif" font-size="14.00">sps00 (prepn)</text>
<text text-anchor="middle" x="2525.97" y="-462.59" font-family="Times,serif" font-size="14.00">rep=no, t=no, r=no, m=yes, c=no</text>
</g>
<!-- n19&#45;&gt;n20 -->
<g id="edge20" class="edge">
<title>n19&#45;&gt;n20</title>
<path fill="none" stroke="black" d="M2242.54,-561.47C2294.34,-547 2356.71,-529.57 2409.74,-514.76"/>
<polygon fill="black" stroke="black" points="2410.84,-518.09 2419.53,-512.03 2408.96,-511.35 2410.84,-518.09"/>
</g>
<!-- n21 -->
<g id="node22" class="node">
<title>n21</title>
<ellipse fill="#98D2A5" stroke="black" cx="2525.97" cy="-370.34" rx="185.94" ry="37.45"/>
<text text-anchor="middle" x="2525.97" y="-381.64" font-family="Times,serif" font-size="14.00">robo</text>
<text text-anchor="middle" x="2525.97" y="-366.64" font-family="Times,serif" font-size="14.00">ncms000 (pobj)</text>
<text text-anchor="middle" x="2525.97" y="-351.64" font-family="Times,serif" font-size="14.00">rep=no, t=no, r=no, m=yes, c=no</text>
</g>
<!-- n20&#45;&gt;n21 -->
<g id="edge21" class="edge">
<title>n20&#45;&gt;n21</title>
<path fill="none" stroke="black" d="M2525.97,-443.71C2525.97,-435.53 2525.97,-426.75 2525.97,-418.23"/>
<polygon fill="black" stroke="black" points="2529.47,-418.01 2525.97,-408.01 2522.47,-418.01 2529.47,-418.01"/>
</g>
<!-- n22 -->
<g id="node23" class="node">
<title>n22</title>
<ellipse fill="#98D2A5" stroke="black" cx="2525.97" cy="-259.38" rx="185.94" ry="37.45"/>
<text text-anchor="middle" x="2525.97" y="-270.68" font-family="Times,serif" font-size="14.00">con</text>
<text text-anchor="middle" x="2525.97" y="-255.68" font-family="Times,serif" font-size="14.00">sps00 (prepn)</text>
<text text-anchor="middle" x="2525.97" y="-240.68" font-family="Times,serif" font-size="14.00">rep=no, t=no, r=no, m=yes, c=no</text>
</g>
<!-- n21&#45;&gt;n22 -->
<g id="edge22" class="edge">
<title>n21&#45;&gt;n22</title>
<path fill="none" stroke="black" d="M2525.97,-332.75C2525.97,-324.58 2525.97,-315.8 2525.97,-307.27"/>
<polygon fill="black" stroke="black" points="2529.47,-307.06 2525.97,-297.06 2522.47,-307.06 2529.47,-307.06"/>
</g>
<!-- n24 -->
<g id="node24" class="node">
<title>n24</title>
<ellipse fill="#98D2A5" stroke="black" cx="2915.97" cy="-259.38" rx="185.94" ry="37.45"/>
<text text-anchor="middle" x="2915.97" y="-270.68" font-family="Times,serif" font-size="14.00">en</text>
<text text-anchor="middle" x="2915.97" y="-255.68" font-family="Times,serif" font-size="14.00">sps00 (prepn)</text>
<text text-anchor="middle" x="2915.97" y="-240.68" font-family="Times,serif" font-size="14.00">rep=no, t=no, r=no, m=yes, c=no</text>
</g>
<!-- n21&#45;&gt;n24 -->
<g id="edge23" class="edge">
<title>n21&#45;&gt;n24</title>
<path fill="none" stroke="black" d="M2632.54,-339.56C2684.34,-325.09 2746.71,-307.67 2799.74,-292.85"/>
<polygon fill="black" stroke="black" points="2800.84,-296.18 2809.53,-290.12 2798.96,-289.44 2800.84,-296.18"/>
</g>
<!-- n23 -->
<g id="node25" class="node">
<title>n23</title>
<ellipse fill="#98D2A5" stroke="black" cx="2525.97" cy="-148.43" rx="185.94" ry="37.45"/>
<text text-anchor="middle" x="2525.97" y="-159.73" font-family="Times,serif" font-size="14.00">fuerza</text>
<text text-anchor="middle" x="2525.97" y="-144.73" font-family="Times,serif" font-size="14.00">ncfs000 (pobj)</text>
<text text-anchor="middle" x="2525.97" y="-129.73" font-family="Times,serif" font-size="14.00">rep=no, t=no, r=no, m=yes, c=no</text>
</g>
<!-- n22&#45;&gt;n23 -->
<g id="edge24" class="edge">
<title>n22&#45;&gt;n23</title>
<path fill="none" stroke="black" d="M2525.97,-221.8C2525.97,-213.63 2525.97,-204.85 2525.97,-196.32"/>
<polygon fill="black" stroke="black" points="2529.47,-196.1 2525.97,-186.1 2522.47,-196.1 2529.47,-196.1"/>
</g>
<!-- n26 -->
<g id="node26" class="node">
<title>n26</title>
<ellipse fill="#98D2A5" stroke="black" cx="2915.97" cy="-148.43" rx="185.94" ry="37.45"/>
<text text-anchor="middle" x="2915.97" y="-159.73" font-family="Times,serif" font-size="14.00">cosas</text>
<text text-anchor="middle" x="2915.97" y="-144.73" font-family="Times,serif" font-size="14.00">ncfp000 (pobj)</text>
<text text-anchor="middle" x="2915.97" y="-129.73" font-family="Times,serif" font-size="14.00">rep=no, t=no, r=no, m=yes, c=no</text>
</g>
<!-- n24&#45;&gt;n26 -->
<g id="edge25" class="edge">
<title>n24&#45;&gt;n26</title>
<path fill="none" stroke="black" d="M2915.97,-221.8C2915.97,-213.63 2915.97,-204.85 2915.97,-196.32"/>
<polygon fill="black" stroke="black" points="2919.47,-196.1 2915.97,-186.1 2912.47,-196.1 2919.47,-196.1"/>
</g>
<!-- n25 -->
<g id="node27" class="node">
<title>n25</title>
<ellipse fill="#98D2A5" stroke="black" cx="2915.97" cy="-37.48" rx="185.94" ry="37.45"/>
<text text-anchor="middle" x="2915.97" y="-48.78" font-family="Times,serif" font-size="14.00">las</text>
<text text-anchor="middle" x="2915.97" y="-33.78" font-family="Times,serif" font-size="14.00">da0fp0 (det)</text>
<text text-anchor="middle" x="2915.97" y="-18.78" font-family="Times,serif" font-size="14.00">rep=no, t=no, r=no, m=yes, c=no</text>
</g>
<!-- n26&#45;&gt;n25 -->
<g id="edge26" class="edge">
<title>n26&#45;&gt;n25</title>
<path fill="none" stroke="black" d="M2915.97,-110.85C2915.97,-102.67 2915.97,-93.89 2915.97,-85.37"/>
<polygon fill="black" stroke="black" points="2919.47,-85.15 2915.97,-75.15 2912.47,-85.15 2919.47,-85.15"/>
</g>
</g>
</svg>
