<?xml version="1.0" encoding="UTF-8" standalone="no"?>
<!DOCTYPE svg PUBLIC "-//W3C//DTD SVG 1.1//EN"
 "http://www.w3.org/Graphics/SVG/1.1/DTD/svg11.dtd">
<!-- Generated by graphviz version 2.43.0 (0)
 -->
<!-- Title: tree Pages: 1 -->
<svg width="3735pt" height="749pt"
 viewBox="0.00 0.00 3734.89 748.67" xmlns="http://www.w3.org/2000/svg" xmlns:xlink="http://www.w3.org/1999/xlink">
<g id="graph0" class="graph" transform="scale(1 1) rotate(0) translate(4 744.67)">
<title>tree</title>
<polygon fill="white" stroke="transparent" points="-4,4 -4,-744.67 3730.89,-744.67 3730.89,4 -4,4"/>
<!-- n10 -->
<g id="node1" class="node">
<title>n10</title>
<ellipse fill="#98D2A5" stroke="black" cx="2175.92" cy="-703.2" rx="185.94" ry="37.45"/>
<text text-anchor="middle" x="2175.92" y="-714.5" font-family="Times,serif" font-size="14.00">y</text>
<text text-anchor="middle" x="2175.92" y="-699.5" font-family="Times,serif" font-size="14.00">cc (root)</text>
<text text-anchor="middle" x="2175.92" y="-684.5" font-family="Times,serif" font-size="14.00">rep=no, t=no, r=no, m=yes, c=no</text>
</g>
<!-- n7 -->
<g id="node2" class="node">
<title>n7</title>
<ellipse fill="#98D2A5" stroke="black" cx="1390.92" cy="-592.24" rx="190.84" ry="37.45"/>
<text text-anchor="middle" x="1390.92" y="-603.54" font-family="Times,serif" font-size="14.00">eran</text>
<text text-anchor="middle" x="1390.92" y="-588.54" font-family="Times,serif" font-size="14.00">vsii3p0 (coord)</text>
<text text-anchor="middle" x="1390.92" y="-573.54" font-family="Times,serif" font-size="14.00">rep=no, t=no, r=yes, m=yes, c=no</text>
</g>
<!-- n10&#45;&gt;n7 -->
<g id="edge1" class="edge">
<title>n10&#45;&gt;n7</title>
<path fill="none" stroke="black" d="M2025.03,-681.25C1890.34,-662.56 1693.52,-635.24 1554.96,-616.01"/>
<polygon fill="black" stroke="black" points="1555.06,-612.49 1544.67,-614.58 1554.1,-619.43 1555.06,-612.49"/>
</g>
<!-- n13 -->
<g id="node3" class="node">
<title>n13</title>
<ellipse fill="#98D2A5" stroke="black" cx="2175.92" cy="-592.24" rx="185.94" ry="37.45"/>
<text text-anchor="middle" x="2175.92" y="-603.54" font-family="Times,serif" font-size="14.00">Otto</text>
<text text-anchor="middle" x="2175.92" y="-588.54" font-family="Times,serif" font-size="14.00">np0000l (coord)</text>
<text text-anchor="middle" x="2175.92" y="-573.54" font-family="Times,serif" font-size="14.00">rep=no, t=no, r=no, m=yes, c=no</text>
</g>
<!-- n10&#45;&gt;n13 -->
<g id="edge2" class="edge">
<title>n10&#45;&gt;n13</title>
<path fill="none" stroke="black" d="M2175.92,-665.61C2175.92,-657.44 2175.92,-648.66 2175.92,-640.13"/>
<polygon fill="black" stroke="black" points="2179.42,-639.92 2175.92,-629.92 2172.42,-639.92 2179.42,-639.92"/>
</g>
<!-- n25 -->
<g id="node4" class="node">
<title>n25</title>
<ellipse fill="none" stroke="black" cx="2561.92" cy="-592.24" rx="181.95" ry="37.45"/>
<text text-anchor="middle" x="2561.92" y="-603.54" font-family="Times,serif" font-size="14.00">.</text>
<text text-anchor="middle" x="2561.92" y="-588.54" font-family="Times,serif" font-size="14.00">fp (punct)</text>
<text text-anchor="middle" x="2561.92" y="-573.54" font-family="Times,serif" font-size="14.00">rep=no, t=no, r=no, m=no, c=no</text>
</g>
<!-- n10&#45;&gt;n25 -->
<g id="edge3" class="edge">
<title>n10&#45;&gt;n25</title>
<path fill="none" stroke="black" d="M2281.65,-672.35C2332.92,-657.88 2394.6,-640.47 2447.03,-625.67"/>
<polygon fill="black" stroke="black" points="2448.03,-629.03 2456.7,-622.94 2446.13,-622.29 2448.03,-629.03"/>
</g>
<!-- n3 -->
<g id="node5" class="node">
<title>n3</title>
<ellipse fill="#98D2A5" stroke="black" cx="790.92" cy="-481.29" rx="190.84" ry="37.45"/>
<text text-anchor="middle" x="790.92" y="-492.59" font-family="Times,serif" font-size="14.00">animadores</text>
<text text-anchor="middle" x="790.92" y="-477.59" font-family="Times,serif" font-size="14.00">ncmp000 (nsubj)</text>
<text text-anchor="middle" x="790.92" y="-462.59" font-family="Times,serif" font-size="14.00">rep=no, t=yes, r=no, m=yes, c=no</text>
</g>
<!-- n7&#45;&gt;n3 -->
<g id="edge4" class="edge">
<title>n7&#45;&gt;n3</title>
<path fill="none" stroke="black" d="M1253.27,-566.25C1159.29,-549.18 1034.89,-526.59 938.8,-509.14"/>
<polygon fill="black" stroke="black" points="939.17,-505.65 928.71,-507.31 937.92,-512.54 939.17,-505.65"/>
</g>
<!-- n9 -->
<g id="node6" class="node">
<title>n9</title>
<ellipse fill="#98D2A5" stroke="black" cx="1390.92" cy="-481.29" rx="190.84" ry="37.45"/>
<text text-anchor="middle" x="1390.92" y="-492.59" font-family="Times,serif" font-size="14.00">alemanes</text>
<text text-anchor="middle" x="1390.92" y="-477.59" font-family="Times,serif" font-size="14.00">ncmp000 (attr)</text>
<text text-anchor="middle" x="1390.92" y="-462.59" font-family="Times,serif" font-size="14.00">rep=no, t=no, r=yes, m=yes, c=no</text>
</g>
<!-- n7&#45;&gt;n9 -->
<g id="edge5" class="edge">
<title>n7&#45;&gt;n9</title>
<path fill="none" stroke="black" d="M1390.92,-554.66C1390.92,-546.49 1390.92,-537.71 1390.92,-529.18"/>
<polygon fill="black" stroke="black" points="1394.42,-528.96 1390.92,-518.96 1387.42,-528.96 1394.42,-528.96"/>
</g>
<!-- n12 -->
<g id="node13" class="node">
<title>n12</title>
<ellipse fill="#98D2A5" stroke="black" cx="1785.92" cy="-481.29" rx="185.94" ry="37.45"/>
<text text-anchor="middle" x="1785.92" y="-492.59" font-family="Times,serif" font-size="14.00">concretamente</text>
<text text-anchor="middle" x="1785.92" y="-477.59" font-family="Times,serif" font-size="14.00">rg (advmod)</text>
<text text-anchor="middle" x="1785.92" y="-462.59" font-family="Times,serif" font-size="14.00">rep=no, t=no, r=no, m=yes, c=no</text>
</g>
<!-- n13&#45;&gt;n12 -->
<g id="edge12" class="edge">
<title>n13&#45;&gt;n12</title>
<path fill="none" stroke="black" d="M2069.35,-561.47C2017.54,-547 1955.17,-529.57 1902.15,-514.76"/>
<polygon fill="black" stroke="black" points="1902.93,-511.35 1892.36,-512.03 1901.05,-518.09 1902.93,-511.35"/>
</g>
<!-- n14 -->
<g id="node14" class="node">
<title>n14</title>
<ellipse fill="#98D2A5" stroke="black" cx="2175.92" cy="-481.29" rx="185.94" ry="37.45"/>
<text text-anchor="middle" x="2175.92" y="-492.59" font-family="Times,serif" font-size="14.00">Abtez</text>
<text text-anchor="middle" x="2175.92" y="-477.59" font-family="Times,serif" font-size="14.00">np0000l (appos)</text>
<text text-anchor="middle" x="2175.92" y="-462.59" font-family="Times,serif" font-size="14.00">rep=no, t=no, r=no, m=yes, c=no</text>
</g>
<!-- n13&#45;&gt;n14 -->
<g id="edge13" class="edge">
<title>n13&#45;&gt;n14</title>
<path fill="none" stroke="black" d="M2175.92,-554.66C2175.92,-546.49 2175.92,-537.71 2175.92,-529.18"/>
<polygon fill="black" stroke="black" points="2179.42,-528.96 2175.92,-518.96 2172.42,-528.96 2179.42,-528.96"/>
</g>
<!-- n15 -->
<g id="node15" class="node">
<title>n15</title>
<ellipse fill="#98D2A5" stroke="black" cx="2565.92" cy="-481.29" rx="185.94" ry="37.45"/>
<text text-anchor="middle" x="2565.92" y="-492.59" font-family="Times,serif" font-size="14.00">,</text>
<text text-anchor="middle" x="2565.92" y="-477.59" font-family="Times,serif" font-size="14.00">fc (punct)</text>
<text text-anchor="middle" x="2565.92" y="-462.59" font-family="Times,serif" font-size="14.00">rep=no, t=no, r=no, m=yes, c=no</text>
</g>
<!-- n13&#45;&gt;n15 -->
<g id="edge14" class="edge">
<title>n13&#45;&gt;n15</title>
<path fill="none" stroke="black" d="M2282.49,-561.47C2334.29,-547 2396.66,-529.57 2449.69,-514.76"/>
<polygon fill="black" stroke="black" points="2450.79,-518.09 2459.48,-512.03 2448.91,-511.35 2450.79,-518.09"/>
</g>
<!-- n17 -->
<g id="node16" class="node">
<title>n17</title>
<ellipse fill="#98D2A5" stroke="black" cx="2955.92" cy="-481.29" rx="185.94" ry="37.45"/>
<text text-anchor="middle" x="2955.92" y="-492.59" font-family="Times,serif" font-size="14.00">trabajaba</text>
<text text-anchor="middle" x="2955.92" y="-477.59" font-family="Times,serif" font-size="14.00">vmii3s0 (rcmod)</text>
<text text-anchor="middle" x="2955.92" y="-462.59" font-family="Times,serif" font-size="14.00">rep=no, t=no, r=no, m=yes, c=no</text>
</g>
<!-- n13&#45;&gt;n17 -->
<g id="edge15" class="edge">
<title>n13&#45;&gt;n17</title>
<path fill="none" stroke="black" d="M2305.45,-565.27C2327.25,-561.4 2349.68,-557.73 2370.92,-554.77 2543.32,-530.74 2588.52,-542.8 2760.92,-518.77 2778.92,-516.26 2797.78,-513.23 2816.39,-510.01"/>
<polygon fill="black" stroke="black" points="2817.15,-513.43 2826.39,-508.26 2815.94,-506.54 2817.15,-513.43"/>
</g>
<!-- n1 -->
<g id="node7" class="node">
<title>n1</title>
<ellipse fill="#98D2A5" stroke="black" cx="190.92" cy="-370.34" rx="190.84" ry="37.45"/>
<text text-anchor="middle" x="190.92" y="-381.64" font-family="Times,serif" font-size="14.00">Los</text>
<text text-anchor="middle" x="190.92" y="-366.64" font-family="Times,serif" font-size="14.00">da0mp0 (det)</text>
<text text-anchor="middle" x="190.92" y="-351.64" font-family="Times,serif" font-size="14.00">rep=no, t=yes, r=no, m=yes, c=no</text>
</g>
<!-- n3&#45;&gt;n1 -->
<g id="edge6" class="edge">
<title>n3&#45;&gt;n1</title>
<path fill="none" stroke="black" d="M653,-455.34C575.9,-441.38 478.06,-423.65 390.92,-407.81 373.85,-404.71 355.97,-401.45 338.21,-398.22"/>
<polygon fill="black" stroke="black" points="338.82,-394.77 328.36,-396.42 337.57,-401.66 338.82,-394.77"/>
</g>
<!-- n2 -->
<g id="node8" class="node">
<title>n2</title>
<ellipse fill="#98D2A5" stroke="black" cx="590.92" cy="-370.34" rx="190.84" ry="37.45"/>
<text text-anchor="middle" x="590.92" y="-381.64" font-family="Times,serif" font-size="14.00">grandes</text>
<text text-anchor="middle" x="590.92" y="-366.64" font-family="Times,serif" font-size="14.00">aq0cp0 (amod)</text>
<text text-anchor="middle" x="590.92" y="-351.64" font-family="Times,serif" font-size="14.00">rep=no, t=yes, r=no, m=yes, c=no</text>
</g>
<!-- n3&#45;&gt;n2 -->
<g id="edge7" class="edge">
<title>n3&#45;&gt;n2</title>
<path fill="none" stroke="black" d="M727.64,-445.82C707.11,-434.63 684.18,-422.14 663.06,-410.64"/>
<polygon fill="black" stroke="black" points="664.59,-407.48 654.13,-405.77 661.24,-413.63 664.59,-407.48"/>
</g>
<!-- n4 -->
<g id="node9" class="node">
<title>n4</title>
<ellipse fill="#98D2A5" stroke="black" cx="990.92" cy="-370.34" rx="190.84" ry="37.45"/>
<text text-anchor="middle" x="990.92" y="-381.64" font-family="Times,serif" font-size="14.00">de</text>
<text text-anchor="middle" x="990.92" y="-366.64" font-family="Times,serif" font-size="14.00">sps00 (prepn)</text>
<text text-anchor="middle" x="990.92" y="-351.64" font-family="Times,serif" font-size="14.00">rep=no, t=yes, r=no, m=yes, c=no</text>
</g>
<!-- n3&#45;&gt;n4 -->
<g id="edge8" class="edge">
<title>n3&#45;&gt;n4</title>
<path fill="none" stroke="black" d="M854.2,-445.82C874.73,-434.63 897.65,-422.14 918.78,-410.64"/>
<polygon fill="black" stroke="black" points="920.6,-413.63 927.71,-405.77 917.25,-407.48 920.6,-413.63"/>
</g>
<!-- n8 -->
<g id="node12" class="node">
<title>n8</title>
<ellipse fill="#98D2A5" stroke="black" cx="1390.92" cy="-370.34" rx="190.84" ry="37.45"/>
<text text-anchor="middle" x="1390.92" y="-381.64" font-family="Times,serif" font-size="14.00">los</text>
<text text-anchor="middle" x="1390.92" y="-366.64" font-family="Times,serif" font-size="14.00">da0mp0 (det)</text>
<text text-anchor="middle" x="1390.92" y="-351.64" font-family="Times,serif" font-size="14.00">rep=no, t=no, r=yes, m=yes, c=no</text>
</g>
<!-- n9&#45;&gt;n8 -->
<g id="edge11" class="edge">
<title>n9&#45;&gt;n8</title>
<path fill="none" stroke="black" d="M1390.92,-443.71C1390.92,-435.53 1390.92,-426.75 1390.92,-418.23"/>
<polygon fill="black" stroke="black" points="1394.42,-418.01 1390.92,-408.01 1387.42,-418.01 1394.42,-418.01"/>
</g>
<!-- n6 -->
<g id="node10" class="node">
<title>n6</title>
<ellipse fill="#98D2A5" stroke="black" cx="990.92" cy="-259.38" rx="190.84" ry="37.45"/>
<text text-anchor="middle" x="990.92" y="-270.68" font-family="Times,serif" font-size="14.00">pacifismo</text>
<text text-anchor="middle" x="990.92" y="-255.68" font-family="Times,serif" font-size="14.00">ncms000 (pobj)</text>
<text text-anchor="middle" x="990.92" y="-240.68" font-family="Times,serif" font-size="14.00">rep=no, t=yes, r=no, m=yes, c=no</text>
</g>
<!-- n4&#45;&gt;n6 -->
<g id="edge9" class="edge">
<title>n4&#45;&gt;n6</title>
<path fill="none" stroke="black" d="M990.92,-332.75C990.92,-324.58 990.92,-315.8 990.92,-307.27"/>
<polygon fill="black" stroke="black" points="994.42,-307.06 990.92,-297.06 987.42,-307.06 994.42,-307.06"/>
</g>
<!-- n5 -->
<g id="node11" class="node">
<title>n5</title>
<ellipse fill="#98D2A5" stroke="black" cx="990.92" cy="-148.43" rx="190.84" ry="37.45"/>
<text text-anchor="middle" x="990.92" y="-159.73" font-family="Times,serif" font-size="14.00">ese</text>
<text text-anchor="middle" x="990.92" y="-144.73" font-family="Times,serif" font-size="14.00">dd0ms0 (det)</text>
<text text-anchor="middle" x="990.92" y="-129.73" font-family="Times,serif" font-size="14.00">rep=no, t=yes, r=no, m=yes, c=no</text>
</g>
<!-- n6&#45;&gt;n5 -->
<g id="edge10" class="edge">
<title>n6&#45;&gt;n5</title>
<path fill="none" stroke="black" d="M990.92,-221.8C990.92,-213.63 990.92,-204.85 990.92,-196.32"/>
<polygon fill="black" stroke="black" points="994.42,-196.1 990.92,-186.1 987.42,-196.1 994.42,-196.1"/>
</g>
<!-- n11 -->
<g id="node17" class="node">
<title>n11</title>
<ellipse fill="#98D2A5" stroke="black" cx="1785.92" cy="-370.34" rx="185.94" ry="37.45"/>
<text text-anchor="middle" x="1785.92" y="-381.64" font-family="Times,serif" font-size="14.00">muy</text>
<text text-anchor="middle" x="1785.92" y="-366.64" font-family="Times,serif" font-size="14.00">rg (advmod)</text>
<text text-anchor="middle" x="1785.92" y="-351.64" font-family="Times,serif" font-size="14.00">rep=no, t=no, r=no, m=yes, c=no</text>
</g>
<!-- n12&#45;&gt;n11 -->
<g id="edge16" class="edge">
<title>n12&#45;&gt;n11</title>
<path fill="none" stroke="black" d="M1785.92,-443.71C1785.92,-435.53 1785.92,-426.75 1785.92,-418.23"/>
<polygon fill="black" stroke="black" points="1789.42,-418.01 1785.92,-408.01 1782.42,-418.01 1789.42,-418.01"/>
</g>
<!-- n16 -->
<g id="node18" class="node">
<title>n16</title>
<ellipse fill="#98D2A5" stroke="black" cx="2565.92" cy="-370.34" rx="185.94" ry="37.45"/>
<text text-anchor="middle" x="2565.92" y="-381.64" font-family="Times,serif" font-size="14.00">que</text>
<text text-anchor="middle" x="2565.92" y="-366.64" font-family="Times,serif" font-size="14.00">pr0cn000 (nsubj)</text>
<text text-anchor="middle" x="2565.92" y="-351.64" font-family="Times,serif" font-size="14.00">rep=no, t=no, r=no, m=yes, c=no</text>
</g>
<!-- n17&#45;&gt;n16 -->
<g id="edge17" class="edge">
<title>n17&#45;&gt;n16</title>
<path fill="none" stroke="black" d="M2849.35,-450.52C2797.54,-436.05 2735.17,-418.62 2682.15,-403.81"/>
<polygon fill="black" stroke="black" points="2682.93,-400.39 2672.36,-401.07 2681.05,-407.13 2682.93,-400.39"/>
</g>
<!-- n18 -->
<g id="node19" class="node">
<title>n18</title>
<ellipse fill="#98D2A5" stroke="black" cx="2955.92" cy="-370.34" rx="185.94" ry="37.45"/>
<text text-anchor="middle" x="2955.92" y="-381.64" font-family="Times,serif" font-size="14.00">de</text>
<text text-anchor="middle" x="2955.92" y="-366.64" font-family="Times,serif" font-size="14.00">sps00 (prepv)</text>
<text text-anchor="middle" x="2955.92" y="-351.64" font-family="Times,serif" font-size="14.00">rep=no, t=no, r=no, m=yes, c=no</text>
</g>
<!-- n17&#45;&gt;n18 -->
<g id="edge18" class="edge">
<title>n17&#45;&gt;n18</title>
<path fill="none" stroke="black" d="M2955.92,-443.71C2955.92,-435.53 2955.92,-426.75 2955.92,-418.23"/>
<polygon fill="black" stroke="black" points="2959.42,-418.01 2955.92,-408.01 2952.42,-418.01 2959.42,-418.01"/>
</g>
<!-- n20 -->
<g id="node20" class="node">
<title>n20</title>
<ellipse fill="#98D2A5" stroke="black" cx="3345.92" cy="-370.34" rx="185.94" ry="37.45"/>
<text text-anchor="middle" x="3345.92" y="-381.64" font-family="Times,serif" font-size="14.00">en</text>
<text text-anchor="middle" x="3345.92" y="-366.64" font-family="Times,serif" font-size="14.00">sps00 (prepv)</text>
<text text-anchor="middle" x="3345.92" y="-351.64" font-family="Times,serif" font-size="14.00">rep=no, t=no, r=no, m=yes, c=no</text>
</g>
<!-- n17&#45;&gt;n20 -->
<g id="edge19" class="edge">
<title>n17&#45;&gt;n20</title>
<path fill="none" stroke="black" d="M3062.49,-450.52C3114.29,-436.05 3176.66,-418.62 3229.69,-403.81"/>
<polygon fill="black" stroke="black" points="3230.79,-407.13 3239.48,-401.07 3228.91,-400.39 3230.79,-407.13"/>
</g>
<!-- n19 -->
<g id="node21" class="node">
<title>n19</title>
<ellipse fill="#98D2A5" stroke="black" cx="2955.92" cy="-259.38" rx="185.94" ry="37.45"/>
<text text-anchor="middle" x="2955.92" y="-270.68" font-family="Times,serif" font-size="14.00">ascensorista</text>
<text text-anchor="middle" x="2955.92" y="-255.68" font-family="Times,serif" font-size="14.00">nccs000 (pobj)</text>
<text text-anchor="middle" x="2955.92" y="-240.68" font-family="Times,serif" font-size="14.00">rep=no, t=no, r=no, m=yes, c=no</text>
</g>
<!-- n18&#45;&gt;n19 -->
<g id="edge20" class="edge">
<title>n18&#45;&gt;n19</title>
<path fill="none" stroke="black" d="M2955.92,-332.75C2955.92,-324.58 2955.92,-315.8 2955.92,-307.27"/>
<polygon fill="black" stroke="black" points="2959.42,-307.06 2955.92,-297.06 2952.42,-307.06 2959.42,-307.06"/>
</g>
<!-- n22 -->
<g id="node22" class="node">
<title>n22</title>
<ellipse fill="#98D2A5" stroke="black" cx="3345.92" cy="-259.38" rx="185.94" ry="37.45"/>
<text text-anchor="middle" x="3345.92" y="-270.68" font-family="Times,serif" font-size="14.00">diario</text>
<text text-anchor="middle" x="3345.92" y="-255.68" font-family="Times,serif" font-size="14.00">ncms000 (pobj)</text>
<text text-anchor="middle" x="3345.92" y="-240.68" font-family="Times,serif" font-size="14.00">rep=no, t=no, r=no, m=yes, c=no</text>
</g>
<!-- n20&#45;&gt;n22 -->
<g id="edge21" class="edge">
<title>n20&#45;&gt;n22</title>
<path fill="none" stroke="black" d="M3345.92,-332.75C3345.92,-324.58 3345.92,-315.8 3345.92,-307.27"/>
<polygon fill="black" stroke="black" points="3349.42,-307.06 3345.92,-297.06 3342.42,-307.06 3349.42,-307.06"/>
</g>
<!-- n21 -->
<g id="node23" class="node">
<title>n21</title>
<ellipse fill="#98D2A5" stroke="black" cx="3150.92" cy="-148.43" rx="185.94" ry="37.45"/>
<text text-anchor="middle" x="3150.92" y="-159.73" font-family="Times,serif" font-size="14.00">el</text>
<text text-anchor="middle" x="3150.92" y="-144.73" font-family="Times,serif" font-size="14.00">da0ms0 (det)</text>
<text text-anchor="middle" x="3150.92" y="-129.73" font-family="Times,serif" font-size="14.00">rep=no, t=no, r=no, m=yes, c=no</text>
</g>
<!-- n22&#45;&gt;n21 -->
<g id="edge22" class="edge">
<title>n22&#45;&gt;n21</title>
<path fill="none" stroke="black" d="M3284.22,-223.91C3264.29,-212.78 3242.05,-200.35 3221.53,-188.89"/>
<polygon fill="black" stroke="black" points="3222.99,-185.69 3212.55,-183.87 3219.57,-191.8 3222.99,-185.69"/>
</g>
<!-- n23 -->
<g id="node24" class="node">
<title>n23</title>
<ellipse fill="#98D2A5" stroke="black" cx="3540.92" cy="-148.43" rx="185.94" ry="37.45"/>
<text text-anchor="middle" x="3540.92" y="-159.73" font-family="Times,serif" font-size="14.00">France</text>
<text text-anchor="middle" x="3540.92" y="-144.73" font-family="Times,serif" font-size="14.00">np0000l (appos)</text>
<text text-anchor="middle" x="3540.92" y="-129.73" font-family="Times,serif" font-size="14.00">rep=no, t=no, r=no, m=yes, c=no</text>
</g>
<!-- n22&#45;&gt;n23 -->
<g id="edge23" class="edge">
<title>n22&#45;&gt;n23</title>
<path fill="none" stroke="black" d="M3407.62,-223.91C3427.54,-212.78 3449.79,-200.35 3470.3,-188.89"/>
<polygon fill="black" stroke="black" points="3472.26,-191.8 3479.29,-183.87 3468.85,-185.69 3472.26,-191.8"/>
</g>
<!-- n24 -->
<g id="node25" class="node">
<title>n24</title>
<ellipse fill="#98D2A5" stroke="black" cx="3540.92" cy="-37.48" rx="185.94" ry="37.45"/>
<text text-anchor="middle" x="3540.92" y="-48.78" font-family="Times,serif" font-size="14.00">Soir</text>
<text text-anchor="middle" x="3540.92" y="-33.78" font-family="Times,serif" font-size="14.00">np0000l (appos)</text>
<text text-anchor="middle" x="3540.92" y="-18.78" font-family="Times,serif" font-size="14.00">rep=no, t=no, r=no, m=yes, c=no</text>
</g>
<!-- n23&#45;&gt;n24 -->
<g id="edge24" class="edge">
<title>n23&#45;&gt;n24</title>
<path fill="none" stroke="black" d="M3540.92,-110.85C3540.92,-102.67 3540.92,-93.89 3540.92,-85.37"/>
<polygon fill="black" stroke="black" points="3544.42,-85.15 3540.92,-75.15 3537.42,-85.15 3544.42,-85.15"/>
</g>
</g>
</svg>
