<?xml version="1.0" encoding="UTF-8" standalone="no"?>
<!DOCTYPE svg PUBLIC "-//W3C//DTD SVG 1.1//EN"
 "http://www.w3.org/Graphics/SVG/1.1/DTD/svg11.dtd">
<!-- Generated by graphviz version 2.43.0 (0)
 -->
<!-- Title: tree Pages: 1 -->
<svg width="1859pt" height="749pt"
 viewBox="0.00 0.00 1858.89 748.67" xmlns="http://www.w3.org/2000/svg" xmlns:xlink="http://www.w3.org/1999/xlink">
<g id="graph0" class="graph" transform="scale(1 1) rotate(0) translate(4 744.67)">
<title>tree</title>
<polygon fill="white" stroke="transparent" points="-4,4 -4,-744.67 1854.89,-744.67 1854.89,4 -4,4"/>
<!-- n12 -->
<g id="node1" class="node">
<title>n12</title>
<ellipse fill="#98D2A5" stroke="black" cx="965.97" cy="-703.2" rx="185.94" ry="37.45"/>
<text text-anchor="middle" x="965.97" y="-714.5" font-family="Times,serif" font-size="14.00">pero</text>
<text text-anchor="middle" x="965.97" y="-699.5" font-family="Times,serif" font-size="14.00">cc (root)</text>
<text text-anchor="middle" x="965.97" y="-684.5" font-family="Times,serif" font-size="14.00">rep=no, t=no, r=no, m=yes, c=no</text>
</g>
<!-- n2 -->
<g id="node2" class="node">
<title>n2</title>
<ellipse fill="#98D2A5" stroke="black" cx="575.97" cy="-592.24" rx="185.94" ry="37.45"/>
<text text-anchor="middle" x="575.97" y="-603.54" font-family="Times,serif" font-size="14.00">disculpa</text>
<text text-anchor="middle" x="575.97" y="-588.54" font-family="Times,serif" font-size="14.00">vmm02s0 (coord)</text>
<text text-anchor="middle" x="575.97" y="-573.54" font-family="Times,serif" font-size="14.00">rep=no, t=no, r=no, m=yes, c=no</text>
</g>
<!-- n12&#45;&gt;n2 -->
<g id="edge1" class="edge">
<title>n12&#45;&gt;n2</title>
<path fill="none" stroke="black" d="M859.4,-672.42C807.59,-657.95 745.23,-640.53 692.2,-625.71"/>
<polygon fill="black" stroke="black" points="692.98,-622.3 682.41,-622.98 691.1,-629.04 692.98,-622.3"/>
</g>
<!-- n13 -->
<g id="node3" class="node">
<title>n13</title>
<ellipse fill="#98D2A5" stroke="black" cx="965.97" cy="-592.24" rx="185.94" ry="37.45"/>
<text text-anchor="middle" x="965.97" y="-603.54" font-family="Times,serif" font-size="14.00">es</text>
<text text-anchor="middle" x="965.97" y="-588.54" font-family="Times,serif" font-size="14.00">vsip3s0 (coord)</text>
<text text-anchor="middle" x="965.97" y="-573.54" font-family="Times,serif" font-size="14.00">rep=no, t=no, r=no, m=yes, c=no</text>
</g>
<!-- n12&#45;&gt;n13 -->
<g id="edge2" class="edge">
<title>n12&#45;&gt;n13</title>
<path fill="none" stroke="black" d="M965.97,-665.61C965.97,-657.44 965.97,-648.66 965.97,-640.13"/>
<polygon fill="black" stroke="black" points="969.47,-639.92 965.97,-629.92 962.47,-639.92 969.47,-639.92"/>
</g>
<!-- n19 -->
<g id="node4" class="node">
<title>n19</title>
<ellipse fill="none" stroke="black" cx="1351.97" cy="-592.24" rx="181.95" ry="37.45"/>
<text text-anchor="middle" x="1351.97" y="-603.54" font-family="Times,serif" font-size="14.00">.</text>
<text text-anchor="middle" x="1351.97" y="-588.54" font-family="Times,serif" font-size="14.00">fp (punct)</text>
<text text-anchor="middle" x="1351.97" y="-573.54" font-family="Times,serif" font-size="14.00">rep=no, t=no, r=no, m=no, c=no</text>
</g>
<!-- n12&#45;&gt;n19 -->
<g id="edge3" class="edge">
<title>n12&#45;&gt;n19</title>
<path fill="none" stroke="black" d="M1071.7,-672.35C1122.97,-657.88 1184.65,-640.47 1237.08,-625.67"/>
<polygon fill="black" stroke="black" points="1238.08,-629.03 1246.75,-622.94 1236.18,-622.29 1238.08,-629.03"/>
</g>
<!-- n1 -->
<g id="node5" class="node">
<title>n1</title>
<ellipse fill="#98D2A5" stroke="black" cx="185.97" cy="-481.29" rx="185.94" ry="37.45"/>
<text text-anchor="middle" x="185.97" y="-492.59" font-family="Times,serif" font-size="14.00">Y</text>
<text text-anchor="middle" x="185.97" y="-477.59" font-family="Times,serif" font-size="14.00">cc (coord_fixed)</text>
<text text-anchor="middle" x="185.97" y="-462.59" font-family="Times,serif" font-size="14.00">rep=no, t=no, r=no, m=yes, c=no</text>
</g>
<!-- n2&#45;&gt;n1 -->
<g id="edge4" class="edge">
<title>n2&#45;&gt;n1</title>
<path fill="none" stroke="black" d="M469.4,-561.47C417.59,-547 355.23,-529.57 302.2,-514.76"/>
<polygon fill="black" stroke="black" points="302.98,-511.35 292.41,-512.03 301.1,-518.09 302.98,-511.35"/>
</g>
<!-- n3 -->
<g id="node6" class="node">
<title>n3</title>
<ellipse fill="#98D2A5" stroke="black" cx="575.97" cy="-481.29" rx="185.94" ry="37.45"/>
<text text-anchor="middle" x="575.97" y="-492.59" font-family="Times,serif" font-size="14.00">si</text>
<text text-anchor="middle" x="575.97" y="-477.59" font-family="Times,serif" font-size="14.00">cs (dobj)</text>
<text text-anchor="middle" x="575.97" y="-462.59" font-family="Times,serif" font-size="14.00">rep=no, t=no, r=no, m=yes, c=no</text>
</g>
<!-- n2&#45;&gt;n3 -->
<g id="edge5" class="edge">
<title>n2&#45;&gt;n3</title>
<path fill="none" stroke="black" d="M575.97,-554.66C575.97,-546.49 575.97,-537.71 575.97,-529.18"/>
<polygon fill="black" stroke="black" points="579.47,-528.96 575.97,-518.96 572.47,-528.96 579.47,-528.96"/>
</g>
<!-- n11 -->
<g id="node14" class="node">
<title>n11</title>
<ellipse fill="#98D2A5" stroke="black" cx="965.97" cy="-481.29" rx="185.94" ry="37.45"/>
<text text-anchor="middle" x="965.97" y="-492.59" font-family="Times,serif" font-size="14.00">,</text>
<text text-anchor="middle" x="965.97" y="-477.59" font-family="Times,serif" font-size="14.00">fc (punct)</text>
<text text-anchor="middle" x="965.97" y="-462.59" font-family="Times,serif" font-size="14.00">rep=no, t=no, r=no, m=yes, c=no</text>
</g>
<!-- n13&#45;&gt;n11 -->
<g id="edge13" class="edge">
<title>n13&#45;&gt;n11</title>
<path fill="none" stroke="black" d="M965.97,-554.66C965.97,-546.49 965.97,-537.71 965.97,-529.18"/>
<polygon fill="black" stroke="black" points="969.47,-528.96 965.97,-518.96 962.47,-528.96 969.47,-528.96"/>
</g>
<!-- n14 -->
<g id="node15" class="node">
<title>n14</title>
<ellipse fill="#98D2A5" stroke="black" cx="1355.97" cy="-481.29" rx="185.94" ry="37.45"/>
<text text-anchor="middle" x="1355.97" y="-492.59" font-family="Times,serif" font-size="14.00">que</text>
<text text-anchor="middle" x="1355.97" y="-477.59" font-family="Times,serif" font-size="14.00">cs (attr)</text>
<text text-anchor="middle" x="1355.97" y="-462.59" font-family="Times,serif" font-size="14.00">rep=no, t=no, r=no, m=yes, c=no</text>
</g>
<!-- n13&#45;&gt;n14 -->
<g id="edge14" class="edge">
<title>n13&#45;&gt;n14</title>
<path fill="none" stroke="black" d="M1072.54,-561.47C1124.34,-547 1186.71,-529.57 1239.74,-514.76"/>
<polygon fill="black" stroke="black" points="1240.84,-518.09 1249.53,-512.03 1238.96,-511.35 1240.84,-518.09"/>
</g>
<!-- n5 -->
<g id="node7" class="node">
<title>n5</title>
<ellipse fill="#98D2A5" stroke="black" cx="575.97" cy="-370.34" rx="185.94" ry="37.45"/>
<text text-anchor="middle" x="575.97" y="-381.64" font-family="Times,serif" font-size="14.00">hablo</text>
<text text-anchor="middle" x="575.97" y="-366.64" font-family="Times,serif" font-size="14.00">vmip1s0 (cobj)</text>
<text text-anchor="middle" x="575.97" y="-351.64" font-family="Times,serif" font-size="14.00">rep=no, t=no, r=no, m=yes, c=no</text>
</g>
<!-- n3&#45;&gt;n5 -->
<g id="edge6" class="edge">
<title>n3&#45;&gt;n5</title>
<path fill="none" stroke="black" d="M575.97,-443.71C575.97,-435.53 575.97,-426.75 575.97,-418.23"/>
<polygon fill="black" stroke="black" points="579.47,-418.01 575.97,-408.01 572.47,-418.01 579.47,-418.01"/>
</g>
<!-- n4 -->
<g id="node8" class="node">
<title>n4</title>
<ellipse fill="#98D2A5" stroke="black" cx="282.97" cy="-259.38" rx="185.94" ry="37.45"/>
<text text-anchor="middle" x="282.97" y="-270.68" font-family="Times,serif" font-size="14.00">te</text>
<text text-anchor="middle" x="282.97" y="-255.68" font-family="Times,serif" font-size="14.00">pp2cs000 (iobj)</text>
<text text-anchor="middle" x="282.97" y="-240.68" font-family="Times,serif" font-size="14.00">rep=no, t=no, r=no, m=yes, c=no</text>
</g>
<!-- n5&#45;&gt;n4 -->
<g id="edge7" class="edge">
<title>n5&#45;&gt;n4</title>
<path fill="none" stroke="black" d="M489.25,-337.09C454.63,-324.22 414.63,-309.34 379.12,-296.14"/>
<polygon fill="black" stroke="black" points="380.31,-292.85 369.72,-292.64 377.87,-299.41 380.31,-292.85"/>
</g>
<!-- n6 -->
<g id="node9" class="node">
<title>n6</title>
<ellipse fill="#98D2A5" stroke="black" cx="672.97" cy="-259.38" rx="185.94" ry="37.45"/>
<text text-anchor="middle" x="672.97" y="-270.68" font-family="Times,serif" font-size="14.00">de</text>
<text text-anchor="middle" x="672.97" y="-255.68" font-family="Times,serif" font-size="14.00">sps00 (oobj)</text>
<text text-anchor="middle" x="672.97" y="-240.68" font-family="Times,serif" font-size="14.00">rep=no, t=no, r=no, m=yes, c=no</text>
</g>
<!-- n5&#45;&gt;n6 -->
<g id="edge8" class="edge">
<title>n5&#45;&gt;n6</title>
<path fill="none" stroke="black" d="M608,-333.36C616.36,-323.97 625.46,-313.75 634.13,-304.01"/>
<polygon fill="black" stroke="black" points="636.94,-306.12 640.97,-296.32 631.71,-301.46 636.94,-306.12"/>
</g>
<!-- n9 -->
<g id="node10" class="node">
<title>n9</title>
<ellipse fill="#98D2A5" stroke="black" cx="672.97" cy="-148.43" rx="185.94" ry="37.45"/>
<text text-anchor="middle" x="672.97" y="-159.73" font-family="Times,serif" font-size="14.00">guerra</text>
<text text-anchor="middle" x="672.97" y="-144.73" font-family="Times,serif" font-size="14.00">ncfs000 (pobj)</text>
<text text-anchor="middle" x="672.97" y="-129.73" font-family="Times,serif" font-size="14.00">rep=no, t=no, r=no, m=yes, c=no</text>
</g>
<!-- n6&#45;&gt;n9 -->
<g id="edge9" class="edge">
<title>n6&#45;&gt;n9</title>
<path fill="none" stroke="black" d="M672.97,-221.8C672.97,-213.63 672.97,-204.85 672.97,-196.32"/>
<polygon fill="black" stroke="black" points="676.47,-196.1 672.97,-186.1 669.47,-196.1 676.47,-196.1"/>
</g>
<!-- n7 -->
<g id="node11" class="node">
<title>n7</title>
<ellipse fill="#98D2A5" stroke="black" cx="282.97" cy="-37.48" rx="185.94" ry="37.45"/>
<text text-anchor="middle" x="282.97" y="-48.78" font-family="Times,serif" font-size="14.00">la</text>
<text text-anchor="middle" x="282.97" y="-33.78" font-family="Times,serif" font-size="14.00">da0fs0 (det)</text>
<text text-anchor="middle" x="282.97" y="-18.78" font-family="Times,serif" font-size="14.00">rep=no, t=no, r=no, m=yes, c=no</text>
</g>
<!-- n9&#45;&gt;n7 -->
<g id="edge10" class="edge">
<title>n9&#45;&gt;n7</title>
<path fill="none" stroke="black" d="M566.4,-117.66C514.59,-103.19 452.23,-85.76 399.2,-70.95"/>
<polygon fill="black" stroke="black" points="399.98,-67.53 389.41,-68.21 398.1,-74.27 399.98,-67.53"/>
</g>
<!-- n8 -->
<g id="node12" class="node">
<title>n8</title>
<ellipse fill="#98D2A5" stroke="black" cx="672.97" cy="-37.48" rx="185.94" ry="37.45"/>
<text text-anchor="middle" x="672.97" y="-48.78" font-family="Times,serif" font-size="14.00">Segunda</text>
<text text-anchor="middle" x="672.97" y="-33.78" font-family="Times,serif" font-size="14.00">ao0fs0 (amod)</text>
<text text-anchor="middle" x="672.97" y="-18.78" font-family="Times,serif" font-size="14.00">rep=no, t=no, r=no, m=yes, c=no</text>
</g>
<!-- n9&#45;&gt;n8 -->
<g id="edge11" class="edge">
<title>n9&#45;&gt;n8</title>
<path fill="none" stroke="black" d="M672.97,-110.85C672.97,-102.67 672.97,-93.89 672.97,-85.37"/>
<polygon fill="black" stroke="black" points="676.47,-85.15 672.97,-75.15 669.47,-85.15 676.47,-85.15"/>
</g>
<!-- n10 -->
<g id="node13" class="node">
<title>n10</title>
<ellipse fill="#98D2A5" stroke="black" cx="1062.97" cy="-37.48" rx="185.94" ry="37.45"/>
<text text-anchor="middle" x="1062.97" y="-48.78" font-family="Times,serif" font-size="14.00">mundial</text>
<text text-anchor="middle" x="1062.97" y="-33.78" font-family="Times,serif" font-size="14.00">aq0cs0 (amod)</text>
<text text-anchor="middle" x="1062.97" y="-18.78" font-family="Times,serif" font-size="14.00">rep=no, t=no, r=no, m=yes, c=no</text>
</g>
<!-- n9&#45;&gt;n10 -->
<g id="edge12" class="edge">
<title>n9&#45;&gt;n10</title>
<path fill="none" stroke="black" d="M779.54,-117.66C831.34,-103.19 893.71,-85.76 946.74,-70.95"/>
<polygon fill="black" stroke="black" points="947.84,-74.27 956.53,-68.21 945.96,-67.53 947.84,-74.27"/>
</g>
<!-- n16 -->
<g id="node16" class="node">
<title>n16</title>
<ellipse fill="#98D2A5" stroke="black" cx="1355.97" cy="-370.34" rx="190.84" ry="37.45"/>
<text text-anchor="middle" x="1355.97" y="-381.64" font-family="Times,serif" font-size="14.00">fue</text>
<text text-anchor="middle" x="1355.97" y="-366.64" font-family="Times,serif" font-size="14.00">vsis3s0 (cobj)</text>
<text text-anchor="middle" x="1355.97" y="-351.64" font-family="Times,serif" font-size="14.00">rep=no, t=no, r=yes, m=yes, c=no</text>
</g>
<!-- n14&#45;&gt;n16 -->
<g id="edge15" class="edge">
<title>n14&#45;&gt;n16</title>
<path fill="none" stroke="black" d="M1355.97,-443.71C1355.97,-435.53 1355.97,-426.75 1355.97,-418.23"/>
<polygon fill="black" stroke="black" points="1359.47,-418.01 1355.97,-408.01 1352.47,-418.01 1359.47,-418.01"/>
</g>
<!-- n15 -->
<g id="node17" class="node">
<title>n15</title>
<ellipse fill="#98D2A5" stroke="black" cx="1259.97" cy="-259.38" rx="190.84" ry="37.45"/>
<text text-anchor="middle" x="1259.97" y="-270.68" font-family="Times,serif" font-size="14.00">ésa</text>
<text text-anchor="middle" x="1259.97" y="-255.68" font-family="Times,serif" font-size="14.00">pd0fs000 (nsubj)</text>
<text text-anchor="middle" x="1259.97" y="-240.68" font-family="Times,serif" font-size="14.00">rep=no, t=yes, r=no, m=yes, c=no</text>
</g>
<!-- n16&#45;&gt;n15 -->
<g id="edge16" class="edge">
<title>n16&#45;&gt;n15</title>
<path fill="none" stroke="black" d="M1324.27,-333.36C1316.08,-324.07 1307.18,-313.96 1298.67,-304.31"/>
<polygon fill="black" stroke="black" points="1301.2,-301.88 1291.96,-296.7 1295.95,-306.51 1301.2,-301.88"/>
</g>
<!-- n18 -->
<g id="node18" class="node">
<title>n18</title>
<ellipse fill="#98D2A5" stroke="black" cx="1659.97" cy="-259.38" rx="190.84" ry="37.45"/>
<text text-anchor="middle" x="1659.97" y="-270.68" font-family="Times,serif" font-size="14.00">guerra</text>
<text text-anchor="middle" x="1659.97" y="-255.68" font-family="Times,serif" font-size="14.00">ncfs000 (attr)</text>
<text text-anchor="middle" x="1659.97" y="-240.68" font-family="Times,serif" font-size="14.00">rep=no, t=no, r=yes, m=yes, c=no</text>
</g>
<!-- n16&#45;&gt;n18 -->
<g id="edge17" class="edge">
<title>n16&#45;&gt;n18</title>
<path fill="none" stroke="black" d="M1445.53,-337.24C1481.63,-324.3 1523.41,-309.33 1560.45,-296.05"/>
<polygon fill="black" stroke="black" points="1562.02,-299.21 1570.26,-292.54 1559.66,-292.62 1562.02,-299.21"/>
</g>
<!-- n17 -->
<g id="node19" class="node">
<title>n17</title>
<ellipse fill="#98D2A5" stroke="black" cx="1659.97" cy="-148.43" rx="190.84" ry="37.45"/>
<text text-anchor="middle" x="1659.97" y="-159.73" font-family="Times,serif" font-size="14.00">mi</text>
<text text-anchor="middle" x="1659.97" y="-144.73" font-family="Times,serif" font-size="14.00">dp1css (poss)</text>
<text text-anchor="middle" x="1659.97" y="-129.73" font-family="Times,serif" font-size="14.00">rep=no, t=no, r=yes, m=yes, c=no</text>
</g>
<!-- n18&#45;&gt;n17 -->
<g id="edge18" class="edge">
<title>n18&#45;&gt;n17</title>
<path fill="none" stroke="black" d="M1659.97,-221.8C1659.97,-213.63 1659.97,-204.85 1659.97,-196.32"/>
<polygon fill="black" stroke="black" points="1663.47,-196.1 1659.97,-186.1 1656.47,-196.1 1663.47,-196.1"/>
</g>
</g>
</svg>
