<?xml version="1.0" encoding="UTF-8" standalone="no"?>
<!DOCTYPE svg PUBLIC "-//W3C//DTD SVG 1.1//EN"
 "http://www.w3.org/Graphics/SVG/1.1/DTD/svg11.dtd">
<!-- Generated by graphviz version 2.43.0 (0)
 -->
<!-- Title: tree Pages: 1 -->
<svg width="4044pt" height="971pt"
 viewBox="0.00 0.00 4043.65 970.58" xmlns="http://www.w3.org/2000/svg" xmlns:xlink="http://www.w3.org/1999/xlink">
<g id="graph0" class="graph" transform="scale(1 1) rotate(0) translate(4 966.58)">
<title>tree</title>
<polygon fill="white" stroke="transparent" points="-4,4 -4,-966.58 4039.65,-966.58 4039.65,4 -4,4"/>
<!-- n2 -->
<g id="node1" class="node">
<title>n2</title>
<ellipse fill="#98D2A5" stroke="black" cx="1552.92" cy="-925.1" rx="190.84" ry="37.45"/>
<text text-anchor="middle" x="1552.92" y="-936.4" font-family="Times,serif" font-size="14.00">aprendió</text>
<text text-anchor="middle" x="1552.92" y="-921.4" font-family="Times,serif" font-size="14.00">vmis3s0 (root)</text>
<text text-anchor="middle" x="1552.92" y="-906.4" font-family="Times,serif" font-size="14.00">rep=no, t=no, r=yes, m=yes, c=no</text>
</g>
<!-- n1 -->
<g id="node2" class="node">
<title>n1</title>
<ellipse fill="#98D2A5" stroke="black" cx="190.92" cy="-814.15" rx="190.84" ry="37.45"/>
<text text-anchor="middle" x="190.92" y="-825.45" font-family="Times,serif" font-size="14.00">Churchill</text>
<text text-anchor="middle" x="190.92" y="-810.45" font-family="Times,serif" font-size="14.00">np00000 (nsubj)</text>
<text text-anchor="middle" x="190.92" y="-795.45" font-family="Times,serif" font-size="14.00">rep=no, t=yes, r=no, m=yes, c=no</text>
</g>
<!-- n2&#45;&gt;n1 -->
<g id="edge1" class="edge">
<title>n2&#45;&gt;n1</title>
<path fill="none" stroke="black" d="M1364.37,-919.18C1133.98,-911.6 732.64,-893.3 390.92,-851.63 371.89,-849.31 351.93,-846.33 332.29,-843.08"/>
<polygon fill="black" stroke="black" points="332.81,-839.61 322.37,-841.4 331.65,-846.52 332.81,-839.61"/>
</g>
<!-- n4 -->
<g id="node3" class="node">
<title>n4</title>
<ellipse fill="#98D2A5" stroke="black" cx="590.92" cy="-814.15" rx="190.84" ry="37.45"/>
<text text-anchor="middle" x="590.92" y="-825.45" font-family="Times,serif" font-size="14.00">bondades</text>
<text text-anchor="middle" x="590.92" y="-810.45" font-family="Times,serif" font-size="14.00">ncfp000 (dobj)</text>
<text text-anchor="middle" x="590.92" y="-795.45" font-family="Times,serif" font-size="14.00">rep=no, t=no, r=yes, m=yes, c=no</text>
</g>
<!-- n2&#45;&gt;n4 -->
<g id="edge2" class="edge">
<title>n2&#45;&gt;n4</title>
<path fill="none" stroke="black" d="M1374.97,-911.51C1220.22,-899.52 990.18,-879.22 790.92,-851.63 772.46,-849.07 753.11,-846.02 734.02,-842.78"/>
<polygon fill="black" stroke="black" points="734.51,-839.31 724.06,-841.07 733.33,-846.21 734.51,-839.31"/>
</g>
<!-- n8 -->
<g id="node4" class="node">
<title>n8</title>
<ellipse fill="none" stroke="black" cx="981.92" cy="-814.15" rx="181.95" ry="37.45"/>
<text text-anchor="middle" x="981.92" y="-825.45" font-family="Times,serif" font-size="14.00">en</text>
<text text-anchor="middle" x="981.92" y="-810.45" font-family="Times,serif" font-size="14.00">sps00 (prepv)</text>
<text text-anchor="middle" x="981.92" y="-795.45" font-family="Times,serif" font-size="14.00">rep=no, t=no, r=no, m=no, c=no</text>
</g>
<!-- n2&#45;&gt;n8 -->
<g id="edge3" class="edge">
<title>n2&#45;&gt;n8</title>
<path fill="none" stroke="black" d="M1418.02,-898.5C1345.14,-884.65 1253.6,-867.24 1171.92,-851.63 1155.85,-848.56 1139.03,-845.33 1122.31,-842.13"/>
<polygon fill="black" stroke="black" points="1122.96,-838.69 1112.48,-840.25 1121.65,-845.57 1122.96,-838.69"/>
</g>
<!-- n10 -->
<g id="node5" class="node">
<title>n10</title>
<ellipse fill="none" stroke="black" cx="1362.92" cy="-814.15" rx="181.95" ry="37.45"/>
<text text-anchor="middle" x="1362.92" y="-825.45" font-family="Times,serif" font-size="14.00">,</text>
<text text-anchor="middle" x="1362.92" y="-810.45" font-family="Times,serif" font-size="14.00">fc (punct)</text>
<text text-anchor="middle" x="1362.92" y="-795.45" font-family="Times,serif" font-size="14.00">rep=no, t=no, r=no, m=no, c=no</text>
</g>
<!-- n2&#45;&gt;n10 -->
<g id="edge4" class="edge">
<title>n2&#45;&gt;n10</title>
<path fill="none" stroke="black" d="M1492.54,-889.48C1473.23,-878.41 1451.71,-866.07 1431.84,-854.67"/>
<polygon fill="black" stroke="black" points="1433.56,-851.62 1423.14,-849.68 1430.07,-857.69 1433.56,-851.62"/>
</g>
<!-- n11 -->
<g id="node6" class="node">
<title>n11</title>
<ellipse fill="none" stroke="black" cx="1743.92" cy="-814.15" rx="181.95" ry="37.45"/>
<text text-anchor="middle" x="1743.92" y="-825.45" font-family="Times,serif" font-size="14.00">cuando</text>
<text text-anchor="middle" x="1743.92" y="-810.45" font-family="Times,serif" font-size="14.00">cs (advcl)</text>
<text text-anchor="middle" x="1743.92" y="-795.45" font-family="Times,serif" font-size="14.00">rep=no, t=no, r=no, m=no, c=no</text>
</g>
<!-- n2&#45;&gt;n11 -->
<g id="edge5" class="edge">
<title>n2&#45;&gt;n11</title>
<path fill="none" stroke="black" d="M1613.61,-889.48C1633.03,-878.41 1654.66,-866.07 1674.63,-854.67"/>
<polygon fill="black" stroke="black" points="1676.43,-857.68 1683.38,-849.68 1672.96,-851.6 1676.43,-857.68"/>
</g>
<!-- n18 -->
<g id="node7" class="node">
<title>n18</title>
<ellipse fill="none" stroke="black" cx="2124.92" cy="-814.15" rx="181.95" ry="37.45"/>
<text text-anchor="middle" x="2124.92" y="-825.45" font-family="Times,serif" font-size="14.00">,</text>
<text text-anchor="middle" x="2124.92" y="-810.45" font-family="Times,serif" font-size="14.00">fc (punct)</text>
<text text-anchor="middle" x="2124.92" y="-795.45" font-family="Times,serif" font-size="14.00">rep=no, t=no, r=no, m=no, c=no</text>
</g>
<!-- n2&#45;&gt;n18 -->
<g id="edge6" class="edge">
<title>n2&#45;&gt;n18</title>
<path fill="none" stroke="black" d="M1688.18,-898.51C1761.25,-884.67 1853.03,-867.26 1934.92,-851.63 1950.98,-848.56 1967.81,-845.34 1984.53,-842.14"/>
<polygon fill="black" stroke="black" points="1985.19,-845.57 1994.36,-840.25 1983.88,-838.7 1985.19,-845.57"/>
</g>
<!-- n19 -->
<g id="node8" class="node">
<title>n19</title>
<ellipse fill="none" stroke="black" cx="2505.92" cy="-814.15" rx="181.95" ry="37.45"/>
<text text-anchor="middle" x="2505.92" y="-825.45" font-family="Times,serif" font-size="14.00">porque</text>
<text text-anchor="middle" x="2505.92" y="-810.45" font-family="Times,serif" font-size="14.00">cs (advcl)</text>
<text text-anchor="middle" x="2505.92" y="-795.45" font-family="Times,serif" font-size="14.00">rep=no, t=no, r=no, m=no, c=no</text>
</g>
<!-- n2&#45;&gt;n19 -->
<g id="edge7" class="edge">
<title>n2&#45;&gt;n19</title>
<path fill="none" stroke="black" d="M1731.94,-911.93C1886.92,-900.23 2116.86,-880.12 2315.92,-851.63 2333.31,-849.14 2351.53,-846.14 2369.51,-842.95"/>
<polygon fill="black" stroke="black" points="2370.25,-846.37 2379.47,-841.16 2369.01,-839.49 2370.25,-846.37"/>
</g>
<!-- n36 -->
<g id="node9" class="node">
<title>n36</title>
<ellipse fill="none" stroke="black" cx="2886.92" cy="-814.15" rx="181.95" ry="37.45"/>
<text text-anchor="middle" x="2886.92" y="-825.45" font-family="Times,serif" font-size="14.00">.</text>
<text text-anchor="middle" x="2886.92" y="-810.45" font-family="Times,serif" font-size="14.00">fp (punct)</text>
<text text-anchor="middle" x="2886.92" y="-795.45" font-family="Times,serif" font-size="14.00">rep=no, t=no, r=no, m=no, c=no</text>
</g>
<!-- n2&#45;&gt;n36 -->
<g id="edge8" class="edge">
<title>n2&#45;&gt;n36</title>
<path fill="none" stroke="black" d="M1741.87,-919.44C1969.27,-912.15 2362.29,-894.17 2696.92,-851.63 2714.85,-849.35 2733.65,-846.41 2752.14,-843.2"/>
<polygon fill="black" stroke="black" points="2752.84,-846.63 2762.08,-841.44 2751.62,-839.74 2752.84,-846.63"/>
</g>
<!-- n3 -->
<g id="node10" class="node">
<title>n3</title>
<ellipse fill="#98D2A5" stroke="black" cx="190.92" cy="-703.2" rx="190.84" ry="37.45"/>
<text text-anchor="middle" x="190.92" y="-714.5" font-family="Times,serif" font-size="14.00">las</text>
<text text-anchor="middle" x="190.92" y="-699.5" font-family="Times,serif" font-size="14.00">da0fp0 (det)</text>
<text text-anchor="middle" x="190.92" y="-684.5" font-family="Times,serif" font-size="14.00">rep=no, t=no, r=yes, m=yes, c=no</text>
</g>
<!-- n4&#45;&gt;n3 -->
<g id="edge9" class="edge">
<title>n4&#45;&gt;n3</title>
<path fill="none" stroke="black" d="M481.62,-783.38C428.48,-768.9 364.51,-751.48 310.12,-736.67"/>
<polygon fill="black" stroke="black" points="311,-733.28 300.44,-734.03 309.16,-740.03 311,-733.28"/>
</g>
<!-- n5 -->
<g id="node11" class="node">
<title>n5</title>
<ellipse fill="#98D2A5" stroke="black" cx="590.92" cy="-703.2" rx="190.84" ry="37.45"/>
<text text-anchor="middle" x="590.92" y="-714.5" font-family="Times,serif" font-size="14.00">de</text>
<text text-anchor="middle" x="590.92" y="-699.5" font-family="Times,serif" font-size="14.00">sps00 (prepn)</text>
<text text-anchor="middle" x="590.92" y="-684.5" font-family="Times,serif" font-size="14.00">rep=no, t=no, r=yes, m=yes, c=no</text>
</g>
<!-- n4&#45;&gt;n5 -->
<g id="edge10" class="edge">
<title>n4&#45;&gt;n5</title>
<path fill="none" stroke="black" d="M590.92,-776.57C590.92,-768.39 590.92,-759.61 590.92,-751.09"/>
<polygon fill="black" stroke="black" points="594.42,-750.87 590.92,-740.87 587.42,-750.87 594.42,-750.87"/>
</g>
<!-- n9 -->
<g id="node14" class="node">
<title>n9</title>
<ellipse fill="none" stroke="black" cx="981.92" cy="-703.2" rx="181.95" ry="37.45"/>
<text text-anchor="middle" x="981.92" y="-714.5" font-family="Times,serif" font-size="14.00">Cuba</text>
<text text-anchor="middle" x="981.92" y="-699.5" font-family="Times,serif" font-size="14.00">np00000 (pobj)</text>
<text text-anchor="middle" x="981.92" y="-684.5" font-family="Times,serif" font-size="14.00">rep=no, t=no, r=no, m=no, c=no</text>
</g>
<!-- n8&#45;&gt;n9 -->
<g id="edge13" class="edge">
<title>n8&#45;&gt;n9</title>
<path fill="none" stroke="black" d="M981.92,-776.57C981.92,-768.39 981.92,-759.61 981.92,-751.09"/>
<polygon fill="black" stroke="black" points="985.42,-750.87 981.92,-740.87 978.42,-750.87 985.42,-750.87"/>
</g>
<!-- n12 -->
<g id="node15" class="node">
<title>n12</title>
<ellipse fill="none" stroke="black" cx="1738.92" cy="-703.2" rx="181.95" ry="37.45"/>
<text text-anchor="middle" x="1738.92" y="-714.5" font-family="Times,serif" font-size="14.00">estuvo</text>
<text text-anchor="middle" x="1738.92" y="-699.5" font-family="Times,serif" font-size="14.00">vmis3s0 (cobj)</text>
<text text-anchor="middle" x="1738.92" y="-684.5" font-family="Times,serif" font-size="14.00">rep=no, t=no, r=no, m=no, c=no</text>
</g>
<!-- n11&#45;&gt;n12 -->
<g id="edge14" class="edge">
<title>n11&#45;&gt;n12</title>
<path fill="none" stroke="black" d="M1742.24,-776.57C1741.86,-768.39 1741.46,-759.61 1741.07,-751.09"/>
<polygon fill="black" stroke="black" points="1744.56,-750.7 1740.6,-740.87 1737.56,-751.02 1744.56,-750.7"/>
</g>
<!-- n20 -->
<g id="node21" class="node">
<title>n20</title>
<ellipse fill="none" stroke="black" cx="2129.92" cy="-703.2" rx="181.95" ry="37.45"/>
<text text-anchor="middle" x="2129.92" y="-714.5" font-family="Times,serif" font-size="14.00">,</text>
<text text-anchor="middle" x="2129.92" y="-699.5" font-family="Times,serif" font-size="14.00">fc (punct)</text>
<text text-anchor="middle" x="2129.92" y="-684.5" font-family="Times,serif" font-size="14.00">rep=no, t=no, r=no, m=no, c=no</text>
</g>
<!-- n19&#45;&gt;n20 -->
<g id="edge20" class="edge">
<title>n19&#45;&gt;n20</title>
<path fill="none" stroke="black" d="M2402.68,-783.23C2353.15,-768.88 2293.69,-751.65 2242.95,-736.95"/>
<polygon fill="black" stroke="black" points="2243.83,-733.56 2233.26,-734.14 2241.89,-740.29 2243.83,-733.56"/>
</g>
<!-- n21 -->
<g id="node22" class="node">
<title>n21</title>
<ellipse fill="none" stroke="black" cx="2510.92" cy="-703.2" rx="181.95" ry="37.45"/>
<text text-anchor="middle" x="2510.92" y="-714.5" font-family="Times,serif" font-size="14.00">además</text>
<text text-anchor="middle" x="2510.92" y="-699.5" font-family="Times,serif" font-size="14.00">rg (cobj)</text>
<text text-anchor="middle" x="2510.92" y="-684.5" font-family="Times,serif" font-size="14.00">rep=no, t=no, r=no, m=no, c=no</text>
</g>
<!-- n19&#45;&gt;n21 -->
<g id="edge21" class="edge">
<title>n19&#45;&gt;n21</title>
<path fill="none" stroke="black" d="M2507.6,-776.57C2507.97,-768.39 2508.38,-759.61 2508.77,-751.09"/>
<polygon fill="black" stroke="black" points="2512.27,-751.02 2509.24,-740.87 2505.28,-750.7 2512.27,-751.02"/>
</g>
<!-- n26 -->
<g id="node23" class="node">
<title>n26</title>
<ellipse fill="none" stroke="black" cx="2891.92" cy="-703.2" rx="181.95" ry="37.45"/>
<text text-anchor="middle" x="2891.92" y="-714.5" font-family="Times,serif" font-size="14.00">,</text>
<text text-anchor="middle" x="2891.92" y="-699.5" font-family="Times,serif" font-size="14.00">fc (punct)</text>
<text text-anchor="middle" x="2891.92" y="-684.5" font-family="Times,serif" font-size="14.00">rep=no, t=no, r=no, m=no, c=no</text>
</g>
<!-- n19&#45;&gt;n26 -->
<g id="edge22" class="edge">
<title>n19&#45;&gt;n26</title>
<path fill="none" stroke="black" d="M2610.89,-783.52C2662.38,-768.99 2724.51,-751.45 2777.24,-736.57"/>
<polygon fill="black" stroke="black" points="2778.3,-739.9 2786.97,-733.82 2776.4,-733.17 2778.3,-739.9"/>
</g>
<!-- n7 -->
<g id="node12" class="node">
<title>n7</title>
<ellipse fill="#98D2A5" stroke="black" cx="590.92" cy="-592.24" rx="190.84" ry="37.45"/>
<text text-anchor="middle" x="590.92" y="-603.54" font-family="Times,serif" font-size="14.00">siesta</text>
<text text-anchor="middle" x="590.92" y="-588.54" font-family="Times,serif" font-size="14.00">ncfs000 (pobj)</text>
<text text-anchor="middle" x="590.92" y="-573.54" font-family="Times,serif" font-size="14.00">rep=no, t=no, r=yes, m=yes, c=no</text>
</g>
<!-- n5&#45;&gt;n7 -->
<g id="edge11" class="edge">
<title>n5&#45;&gt;n7</title>
<path fill="none" stroke="black" d="M590.92,-665.61C590.92,-657.44 590.92,-648.66 590.92,-640.13"/>
<polygon fill="black" stroke="black" points="594.42,-639.92 590.92,-629.92 587.42,-639.92 594.42,-639.92"/>
</g>
<!-- n6 -->
<g id="node13" class="node">
<title>n6</title>
<ellipse fill="#98D2A5" stroke="black" cx="590.92" cy="-481.29" rx="190.84" ry="37.45"/>
<text text-anchor="middle" x="590.92" y="-492.59" font-family="Times,serif" font-size="14.00">la</text>
<text text-anchor="middle" x="590.92" y="-477.59" font-family="Times,serif" font-size="14.00">da0fs0 (det)</text>
<text text-anchor="middle" x="590.92" y="-462.59" font-family="Times,serif" font-size="14.00">rep=no, t=no, r=yes, m=yes, c=no</text>
</g>
<!-- n7&#45;&gt;n6 -->
<g id="edge12" class="edge">
<title>n7&#45;&gt;n6</title>
<path fill="none" stroke="black" d="M590.92,-554.66C590.92,-546.49 590.92,-537.71 590.92,-529.18"/>
<polygon fill="black" stroke="black" points="594.42,-528.96 590.92,-518.96 587.42,-528.96 594.42,-528.96"/>
</g>
<!-- n13 -->
<g id="node16" class="node">
<title>n13</title>
<ellipse fill="none" stroke="black" cx="1357.92" cy="-592.24" rx="181.95" ry="37.45"/>
<text text-anchor="middle" x="1357.92" y="-603.54" font-family="Times,serif" font-size="14.00">en</text>
<text text-anchor="middle" x="1357.92" y="-588.54" font-family="Times,serif" font-size="14.00">sps00 (prepv)</text>
<text text-anchor="middle" x="1357.92" y="-573.54" font-family="Times,serif" font-size="14.00">rep=no, t=no, r=no, m=no, c=no</text>
</g>
<!-- n12&#45;&gt;n13 -->
<g id="edge15" class="edge">
<title>n12&#45;&gt;n13</title>
<path fill="none" stroke="black" d="M1634.81,-672.42C1584.3,-657.98 1523.52,-640.6 1471.79,-625.81"/>
<polygon fill="black" stroke="black" points="1472.48,-622.36 1461.9,-622.98 1470.56,-629.09 1472.48,-622.36"/>
</g>
<!-- n16 -->
<g id="node17" class="node">
<title>n16</title>
<ellipse fill="none" stroke="black" cx="1738.92" cy="-592.24" rx="181.95" ry="37.45"/>
<text text-anchor="middle" x="1738.92" y="-603.54" font-family="Times,serif" font-size="14.00">como</text>
<text text-anchor="middle" x="1738.92" y="-588.54" font-family="Times,serif" font-size="14.00">cs (cobj)</text>
<text text-anchor="middle" x="1738.92" y="-573.54" font-family="Times,serif" font-size="14.00">rep=no, t=no, r=no, m=no, c=no</text>
</g>
<!-- n12&#45;&gt;n16 -->
<g id="edge16" class="edge">
<title>n12&#45;&gt;n16</title>
<path fill="none" stroke="black" d="M1738.92,-665.61C1738.92,-657.44 1738.92,-648.66 1738.92,-640.13"/>
<polygon fill="black" stroke="black" points="1742.42,-639.92 1738.92,-629.92 1735.42,-639.92 1742.42,-639.92"/>
</g>
<!-- n15 -->
<g id="node18" class="node">
<title>n15</title>
<ellipse fill="none" stroke="black" cx="1357.92" cy="-481.29" rx="181.95" ry="37.45"/>
<text text-anchor="middle" x="1357.92" y="-492.59" font-family="Times,serif" font-size="14.00">isla</text>
<text text-anchor="middle" x="1357.92" y="-477.59" font-family="Times,serif" font-size="14.00">ncfs000 (pobj)</text>
<text text-anchor="middle" x="1357.92" y="-462.59" font-family="Times,serif" font-size="14.00">rep=no, t=no, r=no, m=no, c=no</text>
</g>
<!-- n13&#45;&gt;n15 -->
<g id="edge17" class="edge">
<title>n13&#45;&gt;n15</title>
<path fill="none" stroke="black" d="M1357.92,-554.66C1357.92,-546.49 1357.92,-537.71 1357.92,-529.18"/>
<polygon fill="black" stroke="black" points="1361.42,-528.96 1357.92,-518.96 1354.42,-528.96 1361.42,-528.96"/>
</g>
<!-- n17 -->
<g id="node20" class="node">
<title>n17</title>
<ellipse fill="none" stroke="black" cx="1738.92" cy="-481.29" rx="181.95" ry="37.45"/>
<text text-anchor="middle" x="1738.92" y="-492.59" font-family="Times,serif" font-size="14.00">corresponsal</text>
<text text-anchor="middle" x="1738.92" y="-477.59" font-family="Times,serif" font-size="14.00">nccs000 (cobj)</text>
<text text-anchor="middle" x="1738.92" y="-462.59" font-family="Times,serif" font-size="14.00">rep=no, t=no, r=no, m=no, c=no</text>
</g>
<!-- n16&#45;&gt;n17 -->
<g id="edge19" class="edge">
<title>n16&#45;&gt;n17</title>
<path fill="none" stroke="black" d="M1738.92,-554.66C1738.92,-546.49 1738.92,-537.71 1738.92,-529.18"/>
<polygon fill="black" stroke="black" points="1742.42,-528.96 1738.92,-518.96 1735.42,-528.96 1742.42,-528.96"/>
</g>
<!-- n14 -->
<g id="node19" class="node">
<title>n14</title>
<ellipse fill="none" stroke="black" cx="1357.92" cy="-370.34" rx="181.95" ry="37.45"/>
<text text-anchor="middle" x="1357.92" y="-381.64" font-family="Times,serif" font-size="14.00">la</text>
<text text-anchor="middle" x="1357.92" y="-366.64" font-family="Times,serif" font-size="14.00">da0fs0 (det)</text>
<text text-anchor="middle" x="1357.92" y="-351.64" font-family="Times,serif" font-size="14.00">rep=no, t=no, r=no, m=no, c=no</text>
</g>
<!-- n15&#45;&gt;n14 -->
<g id="edge18" class="edge">
<title>n15&#45;&gt;n14</title>
<path fill="none" stroke="black" d="M1357.92,-443.71C1357.92,-435.53 1357.92,-426.75 1357.92,-418.23"/>
<polygon fill="black" stroke="black" points="1361.42,-418.01 1357.92,-408.01 1354.42,-418.01 1361.42,-418.01"/>
</g>
<!-- n22 -->
<g id="node24" class="node">
<title>n22</title>
<ellipse fill="none" stroke="black" cx="2510.92" cy="-592.24" rx="181.95" ry="37.45"/>
<text text-anchor="middle" x="2510.92" y="-603.54" font-family="Times,serif" font-size="14.00">de</text>
<text text-anchor="middle" x="2510.92" y="-588.54" font-family="Times,serif" font-size="14.00">sps00 (prep)</text>
<text text-anchor="middle" x="2510.92" y="-573.54" font-family="Times,serif" font-size="14.00">rep=no, t=no, r=no, m=no, c=no</text>
</g>
<!-- n21&#45;&gt;n22 -->
<g id="edge23" class="edge">
<title>n21&#45;&gt;n22</title>
<path fill="none" stroke="black" d="M2510.92,-665.61C2510.92,-657.44 2510.92,-648.66 2510.92,-640.13"/>
<polygon fill="black" stroke="black" points="2514.42,-639.92 2510.92,-629.92 2507.42,-639.92 2514.42,-639.92"/>
</g>
<!-- n27 -->
<g id="node25" class="node">
<title>n27</title>
<ellipse fill="none" stroke="black" cx="3086.92" cy="-592.24" rx="181.95" ry="37.45"/>
<text text-anchor="middle" x="3086.92" y="-603.54" font-family="Times,serif" font-size="14.00">fue</text>
<text text-anchor="middle" x="3086.92" y="-588.54" font-family="Times,serif" font-size="14.00">vsis3s0 (cobj)</text>
<text text-anchor="middle" x="3086.92" y="-573.54" font-family="Times,serif" font-size="14.00">rep=no, t=no, r=no, m=no, c=no</text>
</g>
<!-- n21&#45;&gt;n27 -->
<g id="edge24" class="edge">
<title>n21&#45;&gt;n27</title>
<path fill="none" stroke="black" d="M2641.48,-677.06C2661.39,-673.25 2681.7,-669.37 2700.92,-665.72 2781.37,-650.44 2871.29,-633.55 2944.09,-619.92"/>
<polygon fill="black" stroke="black" points="2945.06,-623.3 2954.25,-618.02 2943.78,-616.42 2945.06,-623.3"/>
</g>
<!-- n23 -->
<g id="node26" class="node">
<title>n23</title>
<ellipse fill="none" stroke="black" cx="2124.92" cy="-481.29" rx="185.94" ry="37.45"/>
<text text-anchor="middle" x="2124.92" y="-492.59" font-family="Times,serif" font-size="14.00">militar</text>
<text text-anchor="middle" x="2124.92" y="-477.59" font-family="Times,serif" font-size="14.00">nccs000 (pobj)</text>
<text text-anchor="middle" x="2124.92" y="-462.59" font-family="Times,serif" font-size="14.00">rep=no, t=no, r=no, m=no, c=yes</text>
</g>
<!-- n22&#45;&gt;n23 -->
<g id="edge25" class="edge">
<title>n22&#45;&gt;n23</title>
<path fill="none" stroke="black" d="M2405.95,-561.62C2354.78,-547.17 2293.09,-529.76 2240.57,-514.93"/>
<polygon fill="black" stroke="black" points="2241.44,-511.54 2230.87,-512.2 2239.54,-518.28 2241.44,-511.54"/>
</g>
<!-- n24 -->
<g id="node27" class="node">
<title>n24</title>
<ellipse fill="none" stroke="black" cx="2510.92" cy="-481.29" rx="181.95" ry="37.45"/>
<text text-anchor="middle" x="2510.92" y="-492.59" font-family="Times,serif" font-size="14.00">y</text>
<text text-anchor="middle" x="2510.92" y="-477.59" font-family="Times,serif" font-size="14.00">cc (coord_fixed)</text>
<text text-anchor="middle" x="2510.92" y="-462.59" font-family="Times,serif" font-size="14.00">rep=no, t=no, r=no, m=no, c=no</text>
</g>
<!-- n22&#45;&gt;n24 -->
<g id="edge26" class="edge">
<title>n22&#45;&gt;n24</title>
<path fill="none" stroke="black" d="M2510.92,-554.66C2510.92,-546.49 2510.92,-537.71 2510.92,-529.18"/>
<polygon fill="black" stroke="black" points="2514.42,-528.96 2510.92,-518.96 2507.42,-528.96 2514.42,-528.96"/>
</g>
<!-- n25 -->
<g id="node28" class="node">
<title>n25</title>
<ellipse fill="none" stroke="black" cx="2896.92" cy="-481.29" rx="185.94" ry="37.45"/>
<text text-anchor="middle" x="2896.92" y="-492.59" font-family="Times,serif" font-size="14.00">político</text>
<text text-anchor="middle" x="2896.92" y="-477.59" font-family="Times,serif" font-size="14.00">ncms000 (pobj)</text>
<text text-anchor="middle" x="2896.92" y="-462.59" font-family="Times,serif" font-size="14.00">rep=no, t=no, r=no, m=no, c=yes</text>
</g>
<!-- n22&#45;&gt;n25 -->
<g id="edge27" class="edge">
<title>n22&#45;&gt;n25</title>
<path fill="none" stroke="black" d="M2615.89,-561.62C2667.06,-547.17 2728.75,-529.76 2781.27,-514.93"/>
<polygon fill="black" stroke="black" points="2782.29,-518.28 2790.97,-512.2 2780.39,-511.54 2782.29,-518.28"/>
</g>
<!-- n28 -->
<g id="node29" class="node">
<title>n28</title>
<ellipse fill="none" stroke="black" cx="3282.92" cy="-481.29" rx="181.95" ry="37.45"/>
<text text-anchor="middle" x="3282.92" y="-492.59" font-family="Times,serif" font-size="14.00">periodista</text>
<text text-anchor="middle" x="3282.92" y="-477.59" font-family="Times,serif" font-size="14.00">nccs000 (attr)</text>
<text text-anchor="middle" x="3282.92" y="-462.59" font-family="Times,serif" font-size="14.00">rep=no, t=no, r=no, m=no, c=no</text>
</g>
<!-- n27&#45;&gt;n28 -->
<g id="edge28" class="edge">
<title>n27&#45;&gt;n28</title>
<path fill="none" stroke="black" d="M3148.67,-556.92C3168.89,-545.68 3191.52,-533.1 3212.34,-521.52"/>
<polygon fill="black" stroke="black" points="3214.11,-524.55 3221.15,-516.63 3210.71,-518.43 3214.11,-524.55"/>
</g>
<!-- n31 -->
<g id="node30" class="node">
<title>n31</title>
<ellipse fill="none" stroke="black" cx="3282.92" cy="-370.34" rx="181.95" ry="37.45"/>
<text text-anchor="middle" x="3282.92" y="-381.64" font-family="Times,serif" font-size="14.00">periodista</text>
<text text-anchor="middle" x="3282.92" y="-366.64" font-family="Times,serif" font-size="14.00">nccs000 (appos)</text>
<text text-anchor="middle" x="3282.92" y="-351.64" font-family="Times,serif" font-size="14.00">rep=no, t=no, r=no, m=no, c=no</text>
</g>
<!-- n28&#45;&gt;n31 -->
<g id="edge29" class="edge">
<title>n28&#45;&gt;n31</title>
<path fill="none" stroke="black" d="M3282.92,-443.71C3282.92,-435.53 3282.92,-426.75 3282.92,-418.23"/>
<polygon fill="black" stroke="black" points="3286.42,-418.01 3282.92,-408.01 3279.42,-418.01 3286.42,-418.01"/>
</g>
<!-- n29 -->
<g id="node31" class="node">
<title>n29</title>
<ellipse fill="none" stroke="black" cx="2901.92" cy="-259.38" rx="181.95" ry="37.45"/>
<text text-anchor="middle" x="2901.92" y="-270.68" font-family="Times,serif" font-size="14.00">;</text>
<text text-anchor="middle" x="2901.92" y="-255.68" font-family="Times,serif" font-size="14.00">fx (punct)</text>
<text text-anchor="middle" x="2901.92" y="-240.68" font-family="Times,serif" font-size="14.00">rep=no, t=no, r=no, m=no, c=no</text>
</g>
<!-- n31&#45;&gt;n29 -->
<g id="edge30" class="edge">
<title>n31&#45;&gt;n29</title>
<path fill="none" stroke="black" d="M3178.81,-339.56C3128.3,-325.12 3067.52,-307.74 3015.79,-292.95"/>
<polygon fill="black" stroke="black" points="3016.48,-289.5 3005.9,-290.12 3014.56,-296.23 3016.48,-289.5"/>
</g>
<!-- n30 -->
<g id="node32" class="node">
<title>n30</title>
<ellipse fill="none" stroke="black" cx="3282.92" cy="-259.38" rx="181.95" ry="37.45"/>
<text text-anchor="middle" x="3282.92" y="-270.68" font-family="Times,serif" font-size="14.00">un</text>
<text text-anchor="middle" x="3282.92" y="-255.68" font-family="Times,serif" font-size="14.00">di0ms0 (det)</text>
<text text-anchor="middle" x="3282.92" y="-240.68" font-family="Times,serif" font-size="14.00">rep=no, t=no, r=no, m=no, c=no</text>
</g>
<!-- n31&#45;&gt;n30 -->
<g id="edge31" class="edge">
<title>n31&#45;&gt;n30</title>
<path fill="none" stroke="black" d="M3282.92,-332.75C3282.92,-324.58 3282.92,-315.8 3282.92,-307.27"/>
<polygon fill="black" stroke="black" points="3286.42,-307.06 3282.92,-297.06 3279.42,-307.06 3286.42,-307.06"/>
</g>
<!-- n33 -->
<g id="node33" class="node">
<title>n33</title>
<ellipse fill="none" stroke="black" cx="3663.92" cy="-259.38" rx="181.95" ry="37.45"/>
<text text-anchor="middle" x="3663.92" y="-270.68" font-family="Times,serif" font-size="14.00">amaba</text>
<text text-anchor="middle" x="3663.92" y="-255.68" font-family="Times,serif" font-size="14.00">vmii3s0 (rcmod)</text>
<text text-anchor="middle" x="3663.92" y="-240.68" font-family="Times,serif" font-size="14.00">rep=no, t=no, r=no, m=no, c=no</text>
</g>
<!-- n31&#45;&gt;n33 -->
<g id="edge32" class="edge">
<title>n31&#45;&gt;n33</title>
<path fill="none" stroke="black" d="M3387.03,-339.56C3437.53,-325.12 3498.32,-307.74 3550.05,-292.95"/>
<polygon fill="black" stroke="black" points="3551.28,-296.23 3559.93,-290.12 3549.36,-289.5 3551.28,-296.23"/>
</g>
<!-- n32 -->
<g id="node34" class="node">
<title>n32</title>
<ellipse fill="none" stroke="black" cx="3472.92" cy="-148.43" rx="181.95" ry="37.45"/>
<text text-anchor="middle" x="3472.92" y="-159.73" font-family="Times,serif" font-size="14.00">que</text>
<text text-anchor="middle" x="3472.92" y="-144.73" font-family="Times,serif" font-size="14.00">pr0cn000 (nsubj)</text>
<text text-anchor="middle" x="3472.92" y="-129.73" font-family="Times,serif" font-size="14.00">rep=no, t=no, r=no, m=no, c=no</text>
</g>
<!-- n33&#45;&gt;n32 -->
<g id="edge33" class="edge">
<title>n33&#45;&gt;n32</title>
<path fill="none" stroke="black" d="M3603.49,-223.91C3583.97,-212.78 3562.18,-200.35 3542.09,-188.89"/>
<polygon fill="black" stroke="black" points="3543.71,-185.78 3533.29,-183.87 3540.24,-191.86 3543.71,-185.78"/>
</g>
<!-- n35 -->
<g id="node35" class="node">
<title>n35</title>
<ellipse fill="none" stroke="black" cx="3853.92" cy="-148.43" rx="181.95" ry="37.45"/>
<text text-anchor="middle" x="3853.92" y="-159.73" font-family="Times,serif" font-size="14.00">siesta</text>
<text text-anchor="middle" x="3853.92" y="-144.73" font-family="Times,serif" font-size="14.00">ncfs000 (dobj)</text>
<text text-anchor="middle" x="3853.92" y="-129.73" font-family="Times,serif" font-size="14.00">rep=no, t=no, r=no, m=no, c=no</text>
</g>
<!-- n33&#45;&gt;n35 -->
<g id="edge34" class="edge">
<title>n33&#45;&gt;n35</title>
<path fill="none" stroke="black" d="M3724.04,-223.91C3743.45,-212.78 3765.12,-200.35 3785.11,-188.89"/>
<polygon fill="black" stroke="black" points="3786.93,-191.88 3793.87,-183.87 3783.45,-185.8 3786.93,-191.88"/>
</g>
<!-- n34 -->
<g id="node36" class="node">
<title>n34</title>
<ellipse fill="none" stroke="black" cx="3853.92" cy="-37.48" rx="181.95" ry="37.45"/>
<text text-anchor="middle" x="3853.92" y="-48.78" font-family="Times,serif" font-size="14.00">la</text>
<text text-anchor="middle" x="3853.92" y="-33.78" font-family="Times,serif" font-size="14.00">da0fs0 (det)</text>
<text text-anchor="middle" x="3853.92" y="-18.78" font-family="Times,serif" font-size="14.00">rep=no, t=no, r=no, m=no, c=no</text>
</g>
<!-- n35&#45;&gt;n34 -->
<g id="edge35" class="edge">
<title>n35&#45;&gt;n34</title>
<path fill="none" stroke="black" d="M3853.92,-110.85C3853.92,-102.67 3853.92,-93.89 3853.92,-85.37"/>
<polygon fill="black" stroke="black" points="3857.42,-85.15 3853.92,-75.15 3850.42,-85.15 3857.42,-85.15"/>
</g>
</g>
</svg>
