<?xml version="1.0" encoding="UTF-8" standalone="no"?>
<!DOCTYPE svg PUBLIC "-//W3C//DTD SVG 1.1//EN"
 "http://www.w3.org/Graphics/SVG/1.1/DTD/svg11.dtd">
<!-- Generated by graphviz version 2.43.0 (0)
 -->
<!-- Title: tree Pages: 1 -->
<svg width="7034pt" height="638pt"
 viewBox="0.00 0.00 7033.65 637.72" xmlns="http://www.w3.org/2000/svg" xmlns:xlink="http://www.w3.org/1999/xlink">
<g id="graph0" class="graph" transform="scale(1 1) rotate(0) translate(4 633.72)">
<title>tree</title>
<polygon fill="white" stroke="transparent" points="-4,4 -4,-633.72 7029.65,-633.72 7029.65,4 -4,4"/>
<!-- n10 -->
<g id="node1" class="node">
<title>n10</title>
<ellipse fill="#98D2A5" stroke="black" cx="1336.73" cy="-592.24" rx="185.94" ry="37.45"/>
<text text-anchor="middle" x="1336.73" y="-603.54" font-family="Times,serif" font-size="14.00">encuentra</text>
<text text-anchor="middle" x="1336.73" y="-588.54" font-family="Times,serif" font-size="14.00">vmip3s0 (root)</text>
<text text-anchor="middle" x="1336.73" y="-573.54" font-family="Times,serif" font-size="14.00">rep=no, t=no, r=no, m=yes, c=no</text>
</g>
<!-- n1 -->
<g id="node2" class="node">
<title>n1</title>
<ellipse fill="#98D2A5" stroke="black" cx="557.73" cy="-481.29" rx="185.94" ry="37.45"/>
<text text-anchor="middle" x="557.73" y="-492.59" font-family="Times,serif" font-size="14.00">Y</text>
<text text-anchor="middle" x="557.73" y="-477.59" font-family="Times,serif" font-size="14.00">cc (coord_fixed)</text>
<text text-anchor="middle" x="557.73" y="-462.59" font-family="Times,serif" font-size="14.00">rep=no, t=no, r=no, m=yes, c=no</text>
</g>
<!-- n10&#45;&gt;n1 -->
<g id="edge1" class="edge">
<title>n10&#45;&gt;n1</title>
<path fill="none" stroke="black" d="M1174.61,-573.83C1057.2,-560.56 894.82,-540.85 752.73,-518.77 735.21,-516.04 716.86,-512.94 698.71,-509.72"/>
<polygon fill="black" stroke="black" points="699.11,-506.24 688.65,-507.92 697.88,-513.13 699.11,-506.24"/>
</g>
<!-- n2 -->
<g id="node3" class="node">
<title>n2</title>
<ellipse fill="none" stroke="black" cx="943.73" cy="-481.29" rx="181.95" ry="37.45"/>
<text text-anchor="middle" x="943.73" y="-492.59" font-family="Times,serif" font-size="14.00">así</text>
<text text-anchor="middle" x="943.73" y="-477.59" font-family="Times,serif" font-size="14.00">rg (advmod)</text>
<text text-anchor="middle" x="943.73" y="-462.59" font-family="Times,serif" font-size="14.00">rep=no, t=no, r=no, m=no, c=no</text>
</g>
<!-- n10&#45;&gt;n2 -->
<g id="edge2" class="edge">
<title>n10&#45;&gt;n2</title>
<path fill="none" stroke="black" d="M1229.6,-561.54C1177.07,-546.98 1113.71,-529.42 1060.01,-514.53"/>
<polygon fill="black" stroke="black" points="1060.67,-511.08 1050.1,-511.78 1058.8,-517.82 1060.67,-511.08"/>
</g>
<!-- n9 -->
<g id="node4" class="node">
<title>n9</title>
<ellipse fill="#98D2A5" stroke="black" cx="1336.73" cy="-481.29" rx="185.94" ry="37.45"/>
<text text-anchor="middle" x="1336.73" y="-492.59" font-family="Times,serif" font-size="14.00">lo</text>
<text text-anchor="middle" x="1336.73" y="-477.59" font-family="Times,serif" font-size="14.00">pp3msa00 (dobj)</text>
<text text-anchor="middle" x="1336.73" y="-462.59" font-family="Times,serif" font-size="14.00">rep=no, t=no, r=no, m=yes, c=no</text>
</g>
<!-- n10&#45;&gt;n9 -->
<g id="edge3" class="edge">
<title>n10&#45;&gt;n9</title>
<path fill="none" stroke="black" d="M1336.73,-554.66C1336.73,-546.49 1336.73,-537.71 1336.73,-529.18"/>
<polygon fill="black" stroke="black" points="1340.23,-528.96 1336.73,-518.96 1333.23,-528.96 1340.23,-528.96"/>
</g>
<!-- n11 -->
<g id="node5" class="node">
<title>n11</title>
<ellipse fill="#98D2A5" stroke="black" cx="1934.73" cy="-481.29" rx="185.94" ry="37.45"/>
<text text-anchor="middle" x="1934.73" y="-492.59" font-family="Times,serif" font-size="14.00">todo</text>
<text text-anchor="middle" x="1934.73" y="-477.59" font-family="Times,serif" font-size="14.00">pi0ms000 (dobj)</text>
<text text-anchor="middle" x="1934.73" y="-462.59" font-family="Times,serif" font-size="14.00">rep=no, t=no, r=no, m=yes, c=no</text>
</g>
<!-- n10&#45;&gt;n11 -->
<g id="edge4" class="edge">
<title>n10&#45;&gt;n11</title>
<path fill="none" stroke="black" d="M1472.42,-566.52C1566.87,-549.31 1692.68,-526.39 1789.21,-508.8"/>
<polygon fill="black" stroke="black" points="1789.84,-512.25 1799.05,-507.01 1788.59,-505.36 1789.84,-512.25"/>
</g>
<!-- n40 -->
<g id="node6" class="node">
<title>n40</title>
<ellipse fill="none" stroke="black" cx="2320.73" cy="-481.29" rx="181.95" ry="37.45"/>
<text text-anchor="middle" x="2320.73" y="-492.59" font-family="Times,serif" font-size="14.00">.</text>
<text text-anchor="middle" x="2320.73" y="-477.59" font-family="Times,serif" font-size="14.00">fp (punct)</text>
<text text-anchor="middle" x="2320.73" y="-462.59" font-family="Times,serif" font-size="14.00">rep=no, t=no, r=no, m=no, c=no</text>
</g>
<!-- n10&#45;&gt;n40 -->
<g id="edge5" class="edge">
<title>n10&#45;&gt;n40</title>
<path fill="none" stroke="black" d="M1512.89,-580.09C1673.97,-568.72 1918.56,-548.51 2129.73,-518.77 2147.36,-516.28 2165.83,-513.28 2184.04,-510.06"/>
<polygon fill="black" stroke="black" points="2184.9,-513.47 2194.13,-508.26 2183.67,-506.58 2184.9,-513.47"/>
</g>
<!-- n3 -->
<g id="node7" class="node">
<title>n3</title>
<ellipse fill="none" stroke="black" cx="181.73" cy="-370.34" rx="181.95" ry="37.45"/>
<text text-anchor="middle" x="181.73" y="-381.64" font-family="Times,serif" font-size="14.00">,</text>
<text text-anchor="middle" x="181.73" y="-366.64" font-family="Times,serif" font-size="14.00">fc (punct)</text>
<text text-anchor="middle" x="181.73" y="-351.64" font-family="Times,serif" font-size="14.00">rep=no, t=no, r=no, m=no, c=no</text>
</g>
<!-- n2&#45;&gt;n3 -->
<g id="edge6" class="edge">
<title>n2&#45;&gt;n3</title>
<path fill="none" stroke="black" d="M817.12,-454.37C795.69,-450.48 773.62,-446.79 752.73,-443.81 584.34,-419.83 540.1,-431.87 371.73,-407.81 354.26,-405.32 335.97,-402.31 317.91,-399.11"/>
<polygon fill="black" stroke="black" points="318.38,-395.63 307.92,-397.31 317.14,-402.52 318.38,-395.63"/>
</g>
<!-- n4 -->
<g id="node8" class="node">
<title>n4</title>
<ellipse fill="none" stroke="black" cx="562.73" cy="-370.34" rx="181.95" ry="37.45"/>
<text text-anchor="middle" x="562.73" y="-381.64" font-family="Times,serif" font-size="14.00">con</text>
<text text-anchor="middle" x="562.73" y="-366.64" font-family="Times,serif" font-size="14.00">sps00 (prep)</text>
<text text-anchor="middle" x="562.73" y="-351.64" font-family="Times,serif" font-size="14.00">rep=no, t=no, r=no, m=no, c=no</text>
</g>
<!-- n2&#45;&gt;n4 -->
<g id="edge7" class="edge">
<title>n2&#45;&gt;n4</title>
<path fill="none" stroke="black" d="M839.62,-450.52C789.11,-436.08 728.33,-418.69 676.6,-403.9"/>
<polygon fill="black" stroke="black" points="677.29,-400.46 666.71,-401.07 675.36,-407.19 677.29,-400.46"/>
</g>
<!-- n8 -->
<g id="node9" class="node">
<title>n8</title>
<ellipse fill="none" stroke="black" cx="943.73" cy="-370.34" rx="181.95" ry="37.45"/>
<text text-anchor="middle" x="943.73" y="-381.64" font-family="Times,serif" font-size="14.00">,</text>
<text text-anchor="middle" x="943.73" y="-366.64" font-family="Times,serif" font-size="14.00">fc (punct)</text>
<text text-anchor="middle" x="943.73" y="-351.64" font-family="Times,serif" font-size="14.00">rep=no, t=no, r=no, m=no, c=no</text>
</g>
<!-- n2&#45;&gt;n8 -->
<g id="edge8" class="edge">
<title>n2&#45;&gt;n8</title>
<path fill="none" stroke="black" d="M943.73,-443.71C943.73,-435.53 943.73,-426.75 943.73,-418.23"/>
<polygon fill="black" stroke="black" points="947.23,-418.01 943.73,-408.01 940.23,-418.01 947.23,-418.01"/>
</g>
<!-- n13 -->
<g id="node13" class="node">
<title>n13</title>
<ellipse fill="#98D2A5" stroke="black" cx="1334.73" cy="-370.34" rx="190.84" ry="37.45"/>
<text text-anchor="middle" x="1334.73" y="-381.64" font-family="Times,serif" font-size="14.00">balcones</text>
<text text-anchor="middle" x="1334.73" y="-366.64" font-family="Times,serif" font-size="14.00">ncmp000 (dep)</text>
<text text-anchor="middle" x="1334.73" y="-351.64" font-family="Times,serif" font-size="14.00">rep=no, t=no, r=no, m=yes, c=yes</text>
</g>
<!-- n11&#45;&gt;n13 -->
<g id="edge12" class="edge">
<title>n11&#45;&gt;n13</title>
<path fill="none" stroke="black" d="M1798.64,-455.67C1721.26,-441.67 1622.56,-423.78 1534.73,-407.81 1517.66,-404.71 1499.77,-401.45 1482.01,-398.22"/>
<polygon fill="black" stroke="black" points="1482.63,-394.77 1472.16,-396.42 1481.38,-401.66 1482.63,-394.77"/>
</g>
<!-- n16 -->
<g id="node14" class="node">
<title>n16</title>
<ellipse fill="#98D2A5" stroke="black" cx="1734.73" cy="-370.34" rx="190.84" ry="37.45"/>
<text text-anchor="middle" x="1734.73" y="-381.64" font-family="Times,serif" font-size="14.00">sombreros</text>
<text text-anchor="middle" x="1734.73" y="-366.64" font-family="Times,serif" font-size="14.00">ncmp000 (dep)</text>
<text text-anchor="middle" x="1734.73" y="-351.64" font-family="Times,serif" font-size="14.00">rep=no, t=no, r=no, m=yes, c=yes</text>
</g>
<!-- n11&#45;&gt;n16 -->
<g id="edge13" class="edge">
<title>n11&#45;&gt;n16</title>
<path fill="none" stroke="black" d="M1871.72,-445.97C1851.18,-434.78 1828.22,-422.27 1807.05,-410.74"/>
<polygon fill="black" stroke="black" points="1808.56,-407.57 1798.1,-405.86 1805.21,-413.72 1808.56,-407.57"/>
</g>
<!-- n21 -->
<g id="node15" class="node">
<title>n21</title>
<ellipse fill="#98D2A5" stroke="black" cx="2134.73" cy="-370.34" rx="190.84" ry="37.45"/>
<text text-anchor="middle" x="2134.73" y="-381.64" font-family="Times,serif" font-size="14.00">juicios</text>
<text text-anchor="middle" x="2134.73" y="-366.64" font-family="Times,serif" font-size="14.00">ncmp000 (dep)</text>
<text text-anchor="middle" x="2134.73" y="-351.64" font-family="Times,serif" font-size="14.00">rep=no, t=no, r=no, m=yes, c=yes</text>
</g>
<!-- n11&#45;&gt;n21 -->
<g id="edge14" class="edge">
<title>n11&#45;&gt;n21</title>
<path fill="none" stroke="black" d="M1997.73,-445.97C2018.27,-434.78 2041.23,-422.27 2062.4,-410.74"/>
<polygon fill="black" stroke="black" points="2064.24,-413.72 2071.35,-405.86 2060.89,-407.57 2064.24,-413.72"/>
</g>
<!-- n25 -->
<g id="node16" class="node">
<title>n25</title>
<ellipse fill="#98D2A5" stroke="black" cx="2534.73" cy="-370.34" rx="190.84" ry="37.45"/>
<text text-anchor="middle" x="2534.73" y="-381.64" font-family="Times,serif" font-size="14.00">puertos</text>
<text text-anchor="middle" x="2534.73" y="-366.64" font-family="Times,serif" font-size="14.00">ncmp000 (dep)</text>
<text text-anchor="middle" x="2534.73" y="-351.64" font-family="Times,serif" font-size="14.00">rep=no, t=no, r=no, m=yes, c=yes</text>
</g>
<!-- n11&#45;&gt;n25 -->
<g id="edge15" class="edge">
<title>n11&#45;&gt;n25</title>
<path fill="none" stroke="black" d="M2068.17,-455.12C2088.78,-451.3 2109.82,-447.42 2129.73,-443.81 2220.75,-427.31 2243.67,-424.11 2334.73,-407.81 2351.88,-404.74 2369.85,-401.5 2387.68,-398.27"/>
<polygon fill="black" stroke="black" points="2388.36,-401.7 2397.58,-396.47 2387.11,-394.82 2388.36,-401.7"/>
</g>
<!-- n30 -->
<g id="node17" class="node">
<title>n30</title>
<ellipse fill="#98D2A5" stroke="black" cx="3689.73" cy="-370.34" rx="185.94" ry="37.45"/>
<text text-anchor="middle" x="3689.73" y="-381.64" font-family="Times,serif" font-size="14.00">o</text>
<text text-anchor="middle" x="3689.73" y="-366.64" font-family="Times,serif" font-size="14.00">cc (coord_fixed)</text>
<text text-anchor="middle" x="3689.73" y="-351.64" font-family="Times,serif" font-size="14.00">rep=no, t=no, r=no, m=yes, c=no</text>
</g>
<!-- n11&#45;&gt;n30 -->
<g id="edge16" class="edge">
<title>n11&#45;&gt;n30</title>
<path fill="none" stroke="black" d="M2061.79,-453.9C2084.33,-449.96 2107.66,-446.38 2129.73,-443.81 2262.03,-428.44 3110.41,-393.96 3497.57,-378.77"/>
<polygon fill="black" stroke="black" points="3497.91,-382.26 3507.76,-378.37 3497.63,-375.26 3497.91,-382.26"/>
</g>
<!-- n31 -->
<g id="node18" class="node">
<title>n31</title>
<ellipse fill="#98D2A5" stroke="black" cx="5644.73" cy="-370.34" rx="190.84" ry="37.45"/>
<text text-anchor="middle" x="5644.73" y="-381.64" font-family="Times,serif" font-size="14.00">estadistas</text>
<text text-anchor="middle" x="5644.73" y="-366.64" font-family="Times,serif" font-size="14.00">nccp000 (dep)</text>
<text text-anchor="middle" x="5644.73" y="-351.64" font-family="Times,serif" font-size="14.00">rep=no, t=no, r=no, m=yes, c=yes</text>
</g>
<!-- n11&#45;&gt;n31 -->
<g id="edge17" class="edge">
<title>n11&#45;&gt;n31</title>
<path fill="none" stroke="black" d="M2060.42,-453.64C2083.38,-449.67 2107.2,-446.14 2129.73,-443.81 2517.75,-403.82 3494.73,-415.85 3884.73,-407.81 4450.64,-396.14 5118.9,-382.27 5445.22,-375.49"/>
<polygon fill="black" stroke="black" points="5445.32,-378.98 5455.25,-375.28 5445.18,-371.99 5445.32,-378.98"/>
</g>
<!-- n6 -->
<g id="node10" class="node">
<title>n6</title>
<ellipse fill="none" stroke="black" cx="562.73" cy="-259.38" rx="181.95" ry="37.45"/>
<text text-anchor="middle" x="562.73" y="-270.68" font-family="Times,serif" font-size="14.00">ojos</text>
<text text-anchor="middle" x="562.73" y="-255.68" font-family="Times,serif" font-size="14.00">ncmp000 (pobj)</text>
<text text-anchor="middle" x="562.73" y="-240.68" font-family="Times,serif" font-size="14.00">rep=no, t=no, r=no, m=no, c=no</text>
</g>
<!-- n4&#45;&gt;n6 -->
<g id="edge9" class="edge">
<title>n4&#45;&gt;n6</title>
<path fill="none" stroke="black" d="M562.73,-332.75C562.73,-324.58 562.73,-315.8 562.73,-307.27"/>
<polygon fill="black" stroke="black" points="566.23,-307.06 562.73,-297.06 559.23,-307.06 566.23,-307.06"/>
</g>
<!-- n5 -->
<g id="node11" class="node">
<title>n5</title>
<ellipse fill="none" stroke="black" cx="372.73" cy="-148.43" rx="181.95" ry="37.45"/>
<text text-anchor="middle" x="372.73" y="-159.73" font-family="Times,serif" font-size="14.00">los</text>
<text text-anchor="middle" x="372.73" y="-144.73" font-family="Times,serif" font-size="14.00">da0mp0 (det)</text>
<text text-anchor="middle" x="372.73" y="-129.73" font-family="Times,serif" font-size="14.00">rep=no, t=no, r=no, m=no, c=no</text>
</g>
<!-- n6&#45;&gt;n5 -->
<g id="edge10" class="edge">
<title>n6&#45;&gt;n5</title>
<path fill="none" stroke="black" d="M502.61,-223.91C483.19,-212.78 461.52,-200.35 441.53,-188.89"/>
<polygon fill="black" stroke="black" points="443.19,-185.8 432.78,-183.87 439.71,-191.88 443.19,-185.8"/>
</g>
<!-- n7 -->
<g id="node12" class="node">
<title>n7</title>
<ellipse fill="none" stroke="black" cx="753.73" cy="-148.43" rx="181.95" ry="37.45"/>
<text text-anchor="middle" x="753.73" y="-159.73" font-family="Times,serif" font-size="14.00">cerrados</text>
<text text-anchor="middle" x="753.73" y="-144.73" font-family="Times,serif" font-size="14.00">aq0mpp (amod)</text>
<text text-anchor="middle" x="753.73" y="-129.73" font-family="Times,serif" font-size="14.00">rep=no, t=no, r=no, m=no, c=no</text>
</g>
<!-- n6&#45;&gt;n7 -->
<g id="edge11" class="edge">
<title>n6&#45;&gt;n7</title>
<path fill="none" stroke="black" d="M623.16,-223.91C642.68,-212.78 664.46,-200.35 684.56,-188.89"/>
<polygon fill="black" stroke="black" points="686.41,-191.86 693.36,-183.87 682.94,-185.78 686.41,-191.86"/>
</g>
<!-- n14 -->
<g id="node19" class="node">
<title>n14</title>
<ellipse fill="#98D2A5" stroke="black" cx="959.73" cy="-259.38" rx="185.94" ry="37.45"/>
<text text-anchor="middle" x="959.73" y="-270.68" font-family="Times,serif" font-size="14.00">históricos</text>
<text text-anchor="middle" x="959.73" y="-255.68" font-family="Times,serif" font-size="14.00">aq0mp0 (amod)</text>
<text text-anchor="middle" x="959.73" y="-240.68" font-family="Times,serif" font-size="14.00">rep=no, t=no, r=no, m=yes, c=no</text>
</g>
<!-- n13&#45;&gt;n14 -->
<g id="edge18" class="edge">
<title>n13&#45;&gt;n14</title>
<path fill="none" stroke="black" d="M1229.77,-338.84C1181.12,-324.71 1123.21,-307.88 1073.51,-293.44"/>
<polygon fill="black" stroke="black" points="1074.26,-290.02 1063.68,-290.59 1072.31,-296.74 1074.26,-290.02"/>
</g>
<!-- n17 -->
<g id="node20" class="node">
<title>n17</title>
<ellipse fill="#98D2A5" stroke="black" cx="1349.73" cy="-259.38" rx="185.94" ry="37.45"/>
<text text-anchor="middle" x="1349.73" y="-270.68" font-family="Times,serif" font-size="14.00">absurdos</text>
<text text-anchor="middle" x="1349.73" y="-255.68" font-family="Times,serif" font-size="14.00">aq0mp0 (amod)</text>
<text text-anchor="middle" x="1349.73" y="-240.68" font-family="Times,serif" font-size="14.00">rep=no, t=no, r=no, m=yes, c=no</text>
</g>
<!-- n16&#45;&gt;n17 -->
<g id="edge19" class="edge">
<title>n16&#45;&gt;n17</title>
<path fill="none" stroke="black" d="M1628.25,-339.2C1577.65,-324.89 1517.07,-307.74 1465.35,-293.1"/>
<polygon fill="black" stroke="black" points="1466.04,-289.66 1455.47,-290.31 1464.14,-296.4 1466.04,-289.66"/>
</g>
<!-- n18 -->
<g id="node21" class="node">
<title>n18</title>
<ellipse fill="#98D2A5" stroke="black" cx="1739.73" cy="-259.38" rx="185.94" ry="37.45"/>
<text text-anchor="middle" x="1739.73" y="-270.68" font-family="Times,serif" font-size="14.00">de</text>
<text text-anchor="middle" x="1739.73" y="-255.68" font-family="Times,serif" font-size="14.00">sps00 (prepn)</text>
<text text-anchor="middle" x="1739.73" y="-240.68" font-family="Times,serif" font-size="14.00">rep=no, t=no, r=no, m=yes, c=no</text>
</g>
<!-- n16&#45;&gt;n18 -->
<g id="edge20" class="edge">
<title>n16&#45;&gt;n18</title>
<path fill="none" stroke="black" d="M1736.41,-332.75C1736.78,-324.58 1737.18,-315.8 1737.57,-307.27"/>
<polygon fill="black" stroke="black" points="1741.08,-307.21 1738.04,-297.06 1734.09,-306.88 1741.08,-307.21"/>
</g>
<!-- n22 -->
<g id="node23" class="node">
<title>n22</title>
<ellipse fill="#98D2A5" stroke="black" cx="2129.73" cy="-259.38" rx="185.94" ry="37.45"/>
<text text-anchor="middle" x="2129.73" y="-270.68" font-family="Times,serif" font-size="14.00">de</text>
<text text-anchor="middle" x="2129.73" y="-255.68" font-family="Times,serif" font-size="14.00">sps00 (prepn)</text>
<text text-anchor="middle" x="2129.73" y="-240.68" font-family="Times,serif" font-size="14.00">rep=no, t=no, r=no, m=yes, c=no</text>
</g>
<!-- n21&#45;&gt;n22 -->
<g id="edge22" class="edge">
<title>n21&#45;&gt;n22</title>
<path fill="none" stroke="black" d="M2133.05,-332.75C2132.67,-324.58 2132.27,-315.8 2131.88,-307.27"/>
<polygon fill="black" stroke="black" points="2135.36,-306.88 2131.41,-297.06 2128.37,-307.21 2135.36,-306.88"/>
</g>
<!-- n26 -->
<g id="node25" class="node">
<title>n26</title>
<ellipse fill="#98D2A5" stroke="black" cx="2519.73" cy="-259.38" rx="185.94" ry="37.45"/>
<text text-anchor="middle" x="2519.73" y="-270.68" font-family="Times,serif" font-size="14.00">cosmopolitas</text>
<text text-anchor="middle" x="2519.73" y="-255.68" font-family="Times,serif" font-size="14.00">aq0cp0 (amod)</text>
<text text-anchor="middle" x="2519.73" y="-240.68" font-family="Times,serif" font-size="14.00">rep=no, t=no, r=no, m=yes, c=no</text>
</g>
<!-- n25&#45;&gt;n26 -->
<g id="edge24" class="edge">
<title>n25&#45;&gt;n26</title>
<path fill="none" stroke="black" d="M2529.69,-332.75C2528.55,-324.49 2527.33,-315.61 2526.14,-306.99"/>
<polygon fill="black" stroke="black" points="2529.61,-306.48 2524.78,-297.06 2522.67,-307.44 2529.61,-306.48"/>
</g>
<!-- n27 -->
<g id="node26" class="node">
<title>n27</title>
<ellipse fill="#98D2A5" stroke="black" cx="2909.73" cy="-259.38" rx="185.94" ry="37.45"/>
<text text-anchor="middle" x="2909.73" y="-270.68" font-family="Times,serif" font-size="14.00">en</text>
<text text-anchor="middle" x="2909.73" y="-255.68" font-family="Times,serif" font-size="14.00">sps00 (prepn)</text>
<text text-anchor="middle" x="2909.73" y="-240.68" font-family="Times,serif" font-size="14.00">rep=no, t=no, r=no, m=yes, c=no</text>
</g>
<!-- n25&#45;&gt;n27 -->
<g id="edge25" class="edge">
<title>n25&#45;&gt;n27</title>
<path fill="none" stroke="black" d="M2639.68,-338.84C2688.33,-324.71 2746.25,-307.88 2795.94,-293.44"/>
<polygon fill="black" stroke="black" points="2797.14,-296.74 2805.77,-290.59 2795.19,-290.02 2797.14,-296.74"/>
</g>
<!-- n12 -->
<g id="node29" class="node">
<title>n12</title>
<ellipse fill="#98D2A5" stroke="black" cx="3299.73" cy="-259.38" rx="185.94" ry="37.45"/>
<text text-anchor="middle" x="3299.73" y="-270.68" font-family="Times,serif" font-size="14.00">:</text>
<text text-anchor="middle" x="3299.73" y="-255.68" font-family="Times,serif" font-size="14.00">fd (punct)</text>
<text text-anchor="middle" x="3299.73" y="-240.68" font-family="Times,serif" font-size="14.00">rep=no, t=no, r=no, m=yes, c=no</text>
</g>
<!-- n30&#45;&gt;n12 -->
<g id="edge28" class="edge">
<title>n30&#45;&gt;n12</title>
<path fill="none" stroke="black" d="M3583.16,-339.56C3531.35,-325.09 3468.98,-307.67 3415.95,-292.85"/>
<polygon fill="black" stroke="black" points="3416.74,-289.44 3406.17,-290.12 3414.86,-296.18 3416.74,-289.44"/>
</g>
<!-- n15 -->
<g id="node30" class="node">
<title>n15</title>
<ellipse fill="#98D2A5" stroke="black" cx="3689.73" cy="-259.38" rx="185.94" ry="37.45"/>
<text text-anchor="middle" x="3689.73" y="-270.68" font-family="Times,serif" font-size="14.00">,</text>
<text text-anchor="middle" x="3689.73" y="-255.68" font-family="Times,serif" font-size="14.00">fc (punct)</text>
<text text-anchor="middle" x="3689.73" y="-240.68" font-family="Times,serif" font-size="14.00">rep=no, t=no, r=no, m=yes, c=no</text>
</g>
<!-- n30&#45;&gt;n15 -->
<g id="edge29" class="edge">
<title>n30&#45;&gt;n15</title>
<path fill="none" stroke="black" d="M3689.73,-332.75C3689.73,-324.58 3689.73,-315.8 3689.73,-307.27"/>
<polygon fill="black" stroke="black" points="3693.23,-307.06 3689.73,-297.06 3686.23,-307.06 3693.23,-307.06"/>
</g>
<!-- n20 -->
<g id="node31" class="node">
<title>n20</title>
<ellipse fill="#98D2A5" stroke="black" cx="4079.73" cy="-259.38" rx="185.94" ry="37.45"/>
<text text-anchor="middle" x="4079.73" y="-270.68" font-family="Times,serif" font-size="14.00">,</text>
<text text-anchor="middle" x="4079.73" y="-255.68" font-family="Times,serif" font-size="14.00">fc (punct)</text>
<text text-anchor="middle" x="4079.73" y="-240.68" font-family="Times,serif" font-size="14.00">rep=no, t=no, r=no, m=yes, c=no</text>
</g>
<!-- n30&#45;&gt;n20 -->
<g id="edge30" class="edge">
<title>n30&#45;&gt;n20</title>
<path fill="none" stroke="black" d="M3796.3,-339.56C3848.1,-325.09 3910.47,-307.67 3963.5,-292.85"/>
<polygon fill="black" stroke="black" points="3964.6,-296.18 3973.29,-290.12 3962.71,-289.44 3964.6,-296.18"/>
</g>
<!-- n24 -->
<g id="node32" class="node">
<title>n24</title>
<ellipse fill="#98D2A5" stroke="black" cx="4469.73" cy="-259.38" rx="185.94" ry="37.45"/>
<text text-anchor="middle" x="4469.73" y="-270.68" font-family="Times,serif" font-size="14.00">,</text>
<text text-anchor="middle" x="4469.73" y="-255.68" font-family="Times,serif" font-size="14.00">fc (punct)</text>
<text text-anchor="middle" x="4469.73" y="-240.68" font-family="Times,serif" font-size="14.00">rep=no, t=no, r=no, m=yes, c=no</text>
</g>
<!-- n30&#45;&gt;n24 -->
<g id="edge31" class="edge">
<title>n30&#45;&gt;n24</title>
<path fill="none" stroke="black" d="M3852.12,-351.94C3969.73,-338.67 4132.39,-318.97 4274.73,-296.86 4292.24,-294.14 4310.6,-291.04 4328.75,-287.82"/>
<polygon fill="black" stroke="black" points="4329.57,-291.23 4338.8,-286.02 4328.34,-284.34 4329.57,-291.23"/>
</g>
<!-- n32 -->
<g id="node33" class="node">
<title>n32</title>
<ellipse fill="#98D2A5" stroke="black" cx="4859.73" cy="-259.38" rx="185.94" ry="37.45"/>
<text text-anchor="middle" x="4859.73" y="-270.68" font-family="Times,serif" font-size="14.00">inteligentes</text>
<text text-anchor="middle" x="4859.73" y="-255.68" font-family="Times,serif" font-size="14.00">aq0cp0 (amod)</text>
<text text-anchor="middle" x="4859.73" y="-240.68" font-family="Times,serif" font-size="14.00">rep=no, t=no, r=no, m=yes, c=no</text>
</g>
<!-- n31&#45;&gt;n32 -->
<g id="edge32" class="edge">
<title>n31&#45;&gt;n32</title>
<path fill="none" stroke="black" d="M5478.72,-351.76C5360.28,-338.53 5197.38,-318.94 5054.73,-296.86 5037.21,-294.15 5018.85,-291.05 5000.7,-287.84"/>
<polygon fill="black" stroke="black" points="5001.11,-284.35 4990.65,-286.04 4999.88,-291.24 5001.11,-284.35"/>
</g>
<!-- n33 -->
<g id="node34" class="node">
<title>n33</title>
<ellipse fill="#98D2A5" stroke="black" cx="5249.73" cy="-259.38" rx="185.94" ry="37.45"/>
<text text-anchor="middle" x="5249.73" y="-270.68" font-family="Times,serif" font-size="14.00">,</text>
<text text-anchor="middle" x="5249.73" y="-255.68" font-family="Times,serif" font-size="14.00">fc (punct)</text>
<text text-anchor="middle" x="5249.73" y="-240.68" font-family="Times,serif" font-size="14.00">rep=no, t=no, r=no, m=yes, c=no</text>
</g>
<!-- n31&#45;&gt;n33 -->
<g id="edge33" class="edge">
<title>n31&#45;&gt;n33</title>
<path fill="none" stroke="black" d="M5536.27,-339.42C5483.81,-324.95 5420.74,-307.56 5367.15,-292.77"/>
<polygon fill="black" stroke="black" points="5367.83,-289.33 5357.26,-290.04 5365.97,-296.08 5367.83,-289.33"/>
</g>
<!-- n34 -->
<g id="node35" class="node">
<title>n34</title>
<ellipse fill="#98D2A5" stroke="black" cx="5644.73" cy="-259.38" rx="190.84" ry="37.45"/>
<text text-anchor="middle" x="5644.73" y="-270.68" font-family="Times,serif" font-size="14.00">que</text>
<text text-anchor="middle" x="5644.73" y="-255.68" font-family="Times,serif" font-size="14.00">pr0cn000 (rcmod)</text>
<text text-anchor="middle" x="5644.73" y="-240.68" font-family="Times,serif" font-size="14.00">rep=no, t=no, r=no, m=yes, c=yes</text>
</g>
<!-- n31&#45;&gt;n34 -->
<g id="edge34" class="edge">
<title>n31&#45;&gt;n34</title>
<path fill="none" stroke="black" d="M5644.73,-332.75C5644.73,-324.58 5644.73,-315.8 5644.73,-307.27"/>
<polygon fill="black" stroke="black" points="5648.23,-307.06 5644.73,-297.06 5641.23,-307.06 5648.23,-307.06"/>
</g>
<!-- n37 -->
<g id="node36" class="node">
<title>n37</title>
<ellipse fill="#98D2A5" stroke="black" cx="6044.73" cy="-259.38" rx="190.84" ry="37.45"/>
<text text-anchor="middle" x="6044.73" y="-270.68" font-family="Times,serif" font-size="14.00">hubo</text>
<text text-anchor="middle" x="6044.73" y="-255.68" font-family="Times,serif" font-size="14.00">vais3s0 (rcmod)</text>
<text text-anchor="middle" x="6044.73" y="-240.68" font-family="Times,serif" font-size="14.00">rep=no, t=no, r=no, m=yes, c=yes</text>
</g>
<!-- n31&#45;&gt;n37 -->
<g id="edge35" class="edge">
<title>n31&#45;&gt;n37</title>
<path fill="none" stroke="black" d="M5754.03,-339.56C5807.16,-325.09 5871.13,-307.67 5925.52,-292.85"/>
<polygon fill="black" stroke="black" points="5926.48,-296.22 5935.21,-290.21 5924.64,-289.46 5926.48,-296.22"/>
</g>
<!-- n38 -->
<g id="node37" class="node">
<title>n38</title>
<ellipse fill="#98D2A5" stroke="black" cx="6439.73" cy="-259.38" rx="185.94" ry="37.45"/>
<text text-anchor="middle" x="6439.73" y="-270.68" font-family="Times,serif" font-size="14.00">y</text>
<text text-anchor="middle" x="6439.73" y="-255.68" font-family="Times,serif" font-size="14.00">cc (coord_fixed)</text>
<text text-anchor="middle" x="6439.73" y="-240.68" font-family="Times,serif" font-size="14.00">rep=no, t=no, r=no, m=yes, c=no</text>
</g>
<!-- n31&#45;&gt;n38 -->
<g id="edge36" class="edge">
<title>n31&#45;&gt;n38</title>
<path fill="none" stroke="black" d="M5811.62,-352.11C5932.23,-338.94 6098.89,-319.28 6244.73,-296.86 6262.25,-294.17 6280.6,-291.08 6298.75,-287.87"/>
<polygon fill="black" stroke="black" points="6299.58,-291.28 6308.81,-286.08 6298.35,-284.39 6299.58,-291.28"/>
</g>
<!-- n39 -->
<g id="node38" class="node">
<title>n39</title>
<ellipse fill="#98D2A5" stroke="black" cx="6834.73" cy="-259.38" rx="190.84" ry="37.45"/>
<text text-anchor="middle" x="6834.73" y="-270.68" font-family="Times,serif" font-size="14.00">frecuentó</text>
<text text-anchor="middle" x="6834.73" y="-255.68" font-family="Times,serif" font-size="14.00">vmis3s0 (rcmod)</text>
<text text-anchor="middle" x="6834.73" y="-240.68" font-family="Times,serif" font-size="14.00">rep=no, t=no, r=no, m=yes, c=yes</text>
</g>
<!-- n31&#45;&gt;n39 -->
<g id="edge37" class="edge">
<title>n31&#45;&gt;n39</title>
<path fill="none" stroke="black" d="M5830.52,-361.69C6029.91,-352.1 6355.65,-332.42 6634.73,-296.86 6653.51,-294.47 6673.2,-291.47 6692.6,-288.24"/>
<polygon fill="black" stroke="black" points="6693.44,-291.65 6702.71,-286.53 6692.27,-284.75 6693.44,-291.65"/>
</g>
<!-- n19 -->
<g id="node22" class="node">
<title>n19</title>
<ellipse fill="#98D2A5" stroke="black" cx="1739.73" cy="-148.43" rx="185.94" ry="37.45"/>
<text text-anchor="middle" x="1739.73" y="-159.73" font-family="Times,serif" font-size="14.00">reinas</text>
<text text-anchor="middle" x="1739.73" y="-144.73" font-family="Times,serif" font-size="14.00">ncfp000 (pobj)</text>
<text text-anchor="middle" x="1739.73" y="-129.73" font-family="Times,serif" font-size="14.00">rep=no, t=no, r=no, m=yes, c=no</text>
</g>
<!-- n18&#45;&gt;n19 -->
<g id="edge21" class="edge">
<title>n18&#45;&gt;n19</title>
<path fill="none" stroke="black" d="M1739.73,-221.8C1739.73,-213.63 1739.73,-204.85 1739.73,-196.32"/>
<polygon fill="black" stroke="black" points="1743.23,-196.1 1739.73,-186.1 1736.23,-196.1 1743.23,-196.1"/>
</g>
<!-- n23 -->
<g id="node24" class="node">
<title>n23</title>
<ellipse fill="#98D2A5" stroke="black" cx="2129.73" cy="-148.43" rx="185.94" ry="37.45"/>
<text text-anchor="middle" x="2129.73" y="-159.73" font-family="Times,serif" font-size="14.00">nazis</text>
<text text-anchor="middle" x="2129.73" y="-144.73" font-family="Times,serif" font-size="14.00">nccp000 (pobj)</text>
<text text-anchor="middle" x="2129.73" y="-129.73" font-family="Times,serif" font-size="14.00">rep=no, t=no, r=no, m=yes, c=no</text>
</g>
<!-- n22&#45;&gt;n23 -->
<g id="edge23" class="edge">
<title>n22&#45;&gt;n23</title>
<path fill="none" stroke="black" d="M2129.73,-221.8C2129.73,-213.63 2129.73,-204.85 2129.73,-196.32"/>
<polygon fill="black" stroke="black" points="2133.23,-196.1 2129.73,-186.1 2126.23,-196.1 2133.23,-196.1"/>
</g>
<!-- n28 -->
<g id="node27" class="node">
<title>n28</title>
<ellipse fill="#98D2A5" stroke="black" cx="2909.73" cy="-148.43" rx="185.94" ry="37.45"/>
<text text-anchor="middle" x="2909.73" y="-159.73" font-family="Times,serif" font-size="14.00">tiempos</text>
<text text-anchor="middle" x="2909.73" y="-144.73" font-family="Times,serif" font-size="14.00">ncmp000 (pobj)</text>
<text text-anchor="middle" x="2909.73" y="-129.73" font-family="Times,serif" font-size="14.00">rep=no, t=no, r=no, m=yes, c=no</text>
</g>
<!-- n27&#45;&gt;n28 -->
<g id="edge26" class="edge">
<title>n27&#45;&gt;n28</title>
<path fill="none" stroke="black" d="M2909.73,-221.8C2909.73,-213.63 2909.73,-204.85 2909.73,-196.32"/>
<polygon fill="black" stroke="black" points="2913.23,-196.1 2909.73,-186.1 2906.23,-196.1 2913.23,-196.1"/>
</g>
<!-- n29 -->
<g id="node28" class="node">
<title>n29</title>
<ellipse fill="#98D2A5" stroke="black" cx="2909.73" cy="-37.48" rx="185.94" ry="37.45"/>
<text text-anchor="middle" x="2909.73" y="-48.78" font-family="Times,serif" font-size="14.00">bélicos</text>
<text text-anchor="middle" x="2909.73" y="-33.78" font-family="Times,serif" font-size="14.00">aq0mp0 (amod)</text>
<text text-anchor="middle" x="2909.73" y="-18.78" font-family="Times,serif" font-size="14.00">rep=no, t=no, r=no, m=yes, c=no</text>
</g>
<!-- n28&#45;&gt;n29 -->
<g id="edge27" class="edge">
<title>n28&#45;&gt;n29</title>
<path fill="none" stroke="black" d="M2909.73,-110.85C2909.73,-102.67 2909.73,-93.89 2909.73,-85.37"/>
<polygon fill="black" stroke="black" points="2913.23,-85.15 2909.73,-75.15 2906.23,-85.15 2913.23,-85.15"/>
</g>
<!-- n35 -->
<g id="node39" class="node">
<title>n35</title>
<ellipse fill="#98D2A5" stroke="black" cx="5849.73" cy="-148.43" rx="185.94" ry="37.45"/>
<text text-anchor="middle" x="5849.73" y="-159.73" font-family="Times,serif" font-size="14.00">también</text>
<text text-anchor="middle" x="5849.73" y="-144.73" font-family="Times,serif" font-size="14.00">rg (advmod)</text>
<text text-anchor="middle" x="5849.73" y="-129.73" font-family="Times,serif" font-size="14.00">rep=no, t=no, r=no, m=yes, c=no</text>
</g>
<!-- n37&#45;&gt;n35 -->
<g id="edge38" class="edge">
<title>n37&#45;&gt;n35</title>
<path fill="none" stroke="black" d="M5983.03,-223.91C5963.1,-212.78 5940.86,-200.35 5920.34,-188.89"/>
<polygon fill="black" stroke="black" points="5921.8,-185.69 5911.36,-183.87 5918.38,-191.8 5921.8,-185.69"/>
</g>
<!-- n36 -->
<g id="node40" class="node">
<title>n36</title>
<ellipse fill="#98D2A5" stroke="black" cx="6239.73" cy="-148.43" rx="185.94" ry="37.45"/>
<text text-anchor="middle" x="6239.73" y="-159.73" font-family="Times,serif" font-size="14.00">los</text>
<text text-anchor="middle" x="6239.73" y="-144.73" font-family="Times,serif" font-size="14.00">pp3mpa00 (dobj)</text>
<text text-anchor="middle" x="6239.73" y="-129.73" font-family="Times,serif" font-size="14.00">rep=no, t=no, r=no, m=yes, c=no</text>
</g>
<!-- n37&#45;&gt;n36 -->
<g id="edge39" class="edge">
<title>n37&#45;&gt;n36</title>
<path fill="none" stroke="black" d="M6106.43,-223.91C6126.35,-212.78 6148.59,-200.35 6169.11,-188.89"/>
<polygon fill="black" stroke="black" points="6171.07,-191.8 6178.09,-183.87 6167.66,-185.69 6171.07,-191.8"/>
</g>
</g>
</svg>
