<?xml version="1.0" encoding="UTF-8" standalone="no"?>
<!DOCTYPE svg PUBLIC "-//W3C//DTD SVG 1.1//EN"
 "http://www.w3.org/Graphics/SVG/1.1/DTD/svg11.dtd">
<!-- Generated by graphviz version 2.43.0 (0)
 -->
<!-- Title: tree Pages: 1 -->
<svg width="1770pt" height="638pt"
 viewBox="0.00 0.00 1769.89 637.72" xmlns="http://www.w3.org/2000/svg" xmlns:xlink="http://www.w3.org/1999/xlink">
<g id="graph0" class="graph" transform="scale(1 1) rotate(0) translate(4 633.72)">
<title>tree</title>
<polygon fill="white" stroke="transparent" points="-4,4 -4,-633.72 1765.89,-633.72 1765.89,4 -4,4"/>
<!-- n4 -->
<g id="node1" class="node">
<title>n4</title>
<ellipse fill="none" stroke="black" cx="965.97" cy="-592.24" rx="181.95" ry="37.45"/>
<text text-anchor="middle" x="965.97" y="-603.54" font-family="Times,serif" font-size="14.00">escribió</text>
<text text-anchor="middle" x="965.97" y="-588.54" font-family="Times,serif" font-size="14.00">vmis3s0 (root)</text>
<text text-anchor="middle" x="965.97" y="-573.54" font-family="Times,serif" font-size="14.00">rep=no, t=no, r=no, m=no, c=no</text>
</g>
<!-- n3 -->
<g id="node2" class="node">
<title>n3</title>
<ellipse fill="none" stroke="black" cx="575.97" cy="-481.29" rx="185.94" ry="37.45"/>
<text text-anchor="middle" x="575.97" y="-492.59" font-family="Times,serif" font-size="14.00">poeta</text>
<text text-anchor="middle" x="575.97" y="-477.59" font-family="Times,serif" font-size="14.00">ncms000 (nsubj)</text>
<text text-anchor="middle" x="575.97" y="-462.59" font-family="Times,serif" font-size="14.00">rep=yes, t=no, r=no, m=no, c=no</text>
</g>
<!-- n4&#45;&gt;n3 -->
<g id="edge1" class="edge">
<title>n4&#45;&gt;n3</title>
<path fill="none" stroke="black" d="M860.17,-561.69C808.25,-547.18 745.58,-529.67 692.31,-514.79"/>
<polygon fill="black" stroke="black" points="693.05,-511.36 682.48,-512.04 691.16,-518.11 693.05,-511.36"/>
</g>
<!-- n5 -->
<g id="node3" class="node">
<title>n5</title>
<ellipse fill="none" stroke="black" cx="965.97" cy="-481.29" rx="181.95" ry="37.45"/>
<text text-anchor="middle" x="965.97" y="-492.59" font-family="Times,serif" font-size="14.00">que</text>
<text text-anchor="middle" x="965.97" y="-477.59" font-family="Times,serif" font-size="14.00">cs (dobj)</text>
<text text-anchor="middle" x="965.97" y="-462.59" font-family="Times,serif" font-size="14.00">rep=no, t=no, r=no, m=no, c=no</text>
</g>
<!-- n4&#45;&gt;n5 -->
<g id="edge2" class="edge">
<title>n4&#45;&gt;n5</title>
<path fill="none" stroke="black" d="M965.97,-554.66C965.97,-546.49 965.97,-537.71 965.97,-529.18"/>
<polygon fill="black" stroke="black" points="969.47,-528.96 965.97,-518.96 962.47,-528.96 969.47,-528.96"/>
</g>
<!-- n15 -->
<g id="node4" class="node">
<title>n15</title>
<ellipse fill="none" stroke="black" cx="1346.97" cy="-481.29" rx="181.95" ry="37.45"/>
<text text-anchor="middle" x="1346.97" y="-492.59" font-family="Times,serif" font-size="14.00">.</text>
<text text-anchor="middle" x="1346.97" y="-477.59" font-family="Times,serif" font-size="14.00">fp (punct)</text>
<text text-anchor="middle" x="1346.97" y="-462.59" font-family="Times,serif" font-size="14.00">rep=no, t=no, r=no, m=no, c=no</text>
</g>
<!-- n4&#45;&gt;n15 -->
<g id="edge3" class="edge">
<title>n4&#45;&gt;n15</title>
<path fill="none" stroke="black" d="M1070.08,-561.47C1120.58,-547.03 1181.37,-529.65 1233.1,-514.85"/>
<polygon fill="black" stroke="black" points="1234.33,-518.14 1242.99,-512.03 1232.41,-511.41 1234.33,-518.14"/>
</g>
<!-- n1 -->
<g id="node5" class="node">
<title>n1</title>
<ellipse fill="none" stroke="black" cx="185.97" cy="-370.34" rx="185.94" ry="37.45"/>
<text text-anchor="middle" x="185.97" y="-381.64" font-family="Times,serif" font-size="14.00">Un</text>
<text text-anchor="middle" x="185.97" y="-366.64" font-family="Times,serif" font-size="14.00">di0ms0 (det)</text>
<text text-anchor="middle" x="185.97" y="-351.64" font-family="Times,serif" font-size="14.00">rep=yes, t=no, r=no, m=no, c=no</text>
</g>
<!-- n3&#45;&gt;n1 -->
<g id="edge4" class="edge">
<title>n3&#45;&gt;n1</title>
<path fill="none" stroke="black" d="M469.4,-450.52C417.59,-436.05 355.23,-418.62 302.2,-403.81"/>
<polygon fill="black" stroke="black" points="302.98,-400.39 292.41,-401.07 301.1,-407.13 302.98,-400.39"/>
</g>
<!-- n2 -->
<g id="node6" class="node">
<title>n2</title>
<ellipse fill="none" stroke="black" cx="575.97" cy="-370.34" rx="185.94" ry="37.45"/>
<text text-anchor="middle" x="575.97" y="-381.64" font-family="Times,serif" font-size="14.00">mal</text>
<text text-anchor="middle" x="575.97" y="-366.64" font-family="Times,serif" font-size="14.00">aq0ms0 (amod)</text>
<text text-anchor="middle" x="575.97" y="-351.64" font-family="Times,serif" font-size="14.00">rep=yes, t=no, r=no, m=no, c=no</text>
</g>
<!-- n3&#45;&gt;n2 -->
<g id="edge5" class="edge">
<title>n3&#45;&gt;n2</title>
<path fill="none" stroke="black" d="M575.97,-443.71C575.97,-435.53 575.97,-426.75 575.97,-418.23"/>
<polygon fill="black" stroke="black" points="579.47,-418.01 575.97,-408.01 572.47,-418.01 579.47,-418.01"/>
</g>
<!-- n9 -->
<g id="node7" class="node">
<title>n9</title>
<ellipse fill="#98D2A5" stroke="black" cx="970.97" cy="-370.34" rx="190.84" ry="37.45"/>
<text text-anchor="middle" x="970.97" y="-381.64" font-family="Times,serif" font-size="14.00">es</text>
<text text-anchor="middle" x="970.97" y="-366.64" font-family="Times,serif" font-size="14.00">vsip3s0 (cobj)</text>
<text text-anchor="middle" x="970.97" y="-351.64" font-family="Times,serif" font-size="14.00">rep=no, t=no, r=yes, m=yes, c=no</text>
</g>
<!-- n5&#45;&gt;n9 -->
<g id="edge6" class="edge">
<title>n5&#45;&gt;n9</title>
<path fill="none" stroke="black" d="M967.65,-443.71C968.02,-435.53 968.43,-426.75 968.82,-418.23"/>
<polygon fill="black" stroke="black" points="972.32,-418.16 969.29,-408.01 965.33,-417.84 972.32,-418.16"/>
</g>
<!-- n6 -->
<g id="node8" class="node">
<title>n6</title>
<ellipse fill="#98D2A5" stroke="black" cx="375.97" cy="-259.38" rx="185.94" ry="37.45"/>
<text text-anchor="middle" x="375.97" y="-270.68" font-family="Times,serif" font-size="14.00">&quot;</text>
<text text-anchor="middle" x="375.97" y="-255.68" font-family="Times,serif" font-size="14.00">fe (punct)</text>
<text text-anchor="middle" x="375.97" y="-240.68" font-family="Times,serif" font-size="14.00">rep=no, t=no, r=no, m=yes, c=no</text>
</g>
<!-- n9&#45;&gt;n6 -->
<g id="edge7" class="edge">
<title>n9&#45;&gt;n6</title>
<path fill="none" stroke="black" d="M833.53,-344.23C812.58,-340.41 791.2,-336.53 770.97,-332.86 682.1,-316.76 659.8,-313.16 570.97,-296.86 554.4,-293.82 537.05,-290.61 519.82,-287.41"/>
<polygon fill="black" stroke="black" points="520.16,-283.91 509.69,-285.52 518.88,-290.79 520.16,-283.91"/>
</g>
<!-- n8 -->
<g id="node9" class="node">
<title>n8</title>
<ellipse fill="#98D2A5" stroke="black" cx="770.97" cy="-259.38" rx="190.84" ry="37.45"/>
<text text-anchor="middle" x="770.97" y="-270.68" font-family="Times,serif" font-size="14.00">silencio</text>
<text text-anchor="middle" x="770.97" y="-255.68" font-family="Times,serif" font-size="14.00">ncms000 (nsubj)</text>
<text text-anchor="middle" x="770.97" y="-240.68" font-family="Times,serif" font-size="14.00">rep=no, t=yes, r=no, m=yes, c=no</text>
</g>
<!-- n9&#45;&gt;n8 -->
<g id="edge8" class="edge">
<title>n9&#45;&gt;n8</title>
<path fill="none" stroke="black" d="M907.69,-334.86C887.16,-323.68 864.23,-311.19 843.11,-299.68"/>
<polygon fill="black" stroke="black" points="844.64,-296.53 834.18,-294.82 841.29,-302.68 844.64,-296.53"/>
</g>
<!-- n11 -->
<g id="node10" class="node">
<title>n11</title>
<ellipse fill="#98D2A5" stroke="black" cx="1170.97" cy="-259.38" rx="190.84" ry="37.45"/>
<text text-anchor="middle" x="1170.97" y="-270.68" font-family="Times,serif" font-size="14.00">voz</text>
<text text-anchor="middle" x="1170.97" y="-255.68" font-family="Times,serif" font-size="14.00">ncfs000 (attr)</text>
<text text-anchor="middle" x="1170.97" y="-240.68" font-family="Times,serif" font-size="14.00">rep=no, t=no, r=yes, m=yes, c=no</text>
</g>
<!-- n9&#45;&gt;n11 -->
<g id="edge9" class="edge">
<title>n9&#45;&gt;n11</title>
<path fill="none" stroke="black" d="M1034.25,-334.86C1054.78,-323.68 1077.7,-311.19 1098.83,-299.68"/>
<polygon fill="black" stroke="black" points="1100.65,-302.68 1107.76,-294.82 1097.3,-296.53 1100.65,-302.68"/>
</g>
<!-- n14 -->
<g id="node11" class="node">
<title>n14</title>
<ellipse fill="#98D2A5" stroke="black" cx="1570.97" cy="-259.38" rx="190.84" ry="37.45"/>
<text text-anchor="middle" x="1570.97" y="-270.68" font-family="Times,serif" font-size="14.00">&quot;</text>
<text text-anchor="middle" x="1570.97" y="-255.68" font-family="Times,serif" font-size="14.00">fe (punct)</text>
<text text-anchor="middle" x="1570.97" y="-240.68" font-family="Times,serif" font-size="14.00">rep=no, t=no, r=yes, m=yes, c=no</text>
</g>
<!-- n9&#45;&gt;n14 -->
<g id="edge10" class="edge">
<title>n9&#45;&gt;n14</title>
<path fill="none" stroke="black" d="M1108.89,-344.39C1185.99,-330.43 1283.83,-312.7 1370.97,-296.86 1388.04,-293.76 1405.92,-290.5 1423.68,-287.27"/>
<polygon fill="black" stroke="black" points="1424.32,-290.71 1433.53,-285.47 1423.07,-283.82 1424.32,-290.71"/>
</g>
<!-- n7 -->
<g id="node12" class="node">
<title>n7</title>
<ellipse fill="#98D2A5" stroke="black" cx="770.97" cy="-148.43" rx="190.84" ry="37.45"/>
<text text-anchor="middle" x="770.97" y="-159.73" font-family="Times,serif" font-size="14.00">el</text>
<text text-anchor="middle" x="770.97" y="-144.73" font-family="Times,serif" font-size="14.00">da0ms0 (det)</text>
<text text-anchor="middle" x="770.97" y="-129.73" font-family="Times,serif" font-size="14.00">rep=no, t=yes, r=no, m=yes, c=no</text>
</g>
<!-- n8&#45;&gt;n7 -->
<g id="edge11" class="edge">
<title>n8&#45;&gt;n7</title>
<path fill="none" stroke="black" d="M770.97,-221.8C770.97,-213.63 770.97,-204.85 770.97,-196.32"/>
<polygon fill="black" stroke="black" points="774.47,-196.1 770.97,-186.1 767.47,-196.1 774.47,-196.1"/>
</g>
<!-- n10 -->
<g id="node13" class="node">
<title>n10</title>
<ellipse fill="#98D2A5" stroke="black" cx="1170.97" cy="-148.43" rx="190.84" ry="37.45"/>
<text text-anchor="middle" x="1170.97" y="-159.73" font-family="Times,serif" font-size="14.00">la</text>
<text text-anchor="middle" x="1170.97" y="-144.73" font-family="Times,serif" font-size="14.00">da0fs0 (det)</text>
<text text-anchor="middle" x="1170.97" y="-129.73" font-family="Times,serif" font-size="14.00">rep=no, t=no, r=yes, m=yes, c=no</text>
</g>
<!-- n11&#45;&gt;n10 -->
<g id="edge12" class="edge">
<title>n11&#45;&gt;n10</title>
<path fill="none" stroke="black" d="M1170.97,-221.8C1170.97,-213.63 1170.97,-204.85 1170.97,-196.32"/>
<polygon fill="black" stroke="black" points="1174.47,-196.1 1170.97,-186.1 1167.47,-196.1 1174.47,-196.1"/>
</g>
<!-- n12 -->
<g id="node14" class="node">
<title>n12</title>
<ellipse fill="#98D2A5" stroke="black" cx="1570.97" cy="-148.43" rx="190.84" ry="37.45"/>
<text text-anchor="middle" x="1570.97" y="-159.73" font-family="Times,serif" font-size="14.00">del</text>
<text text-anchor="middle" x="1570.97" y="-144.73" font-family="Times,serif" font-size="14.00">spcms (prepn)</text>
<text text-anchor="middle" x="1570.97" y="-129.73" font-family="Times,serif" font-size="14.00">rep=no, t=no, r=yes, m=yes, c=no</text>
</g>
<!-- n11&#45;&gt;n12 -->
<g id="edge13" class="edge">
<title>n11&#45;&gt;n12</title>
<path fill="none" stroke="black" d="M1280.27,-228.61C1333.41,-214.14 1397.38,-196.71 1451.76,-181.9"/>
<polygon fill="black" stroke="black" points="1452.72,-185.27 1461.45,-179.26 1450.88,-178.51 1452.72,-185.27"/>
</g>
<!-- n13 -->
<g id="node15" class="node">
<title>n13</title>
<ellipse fill="#98D2A5" stroke="black" cx="1570.97" cy="-37.48" rx="190.84" ry="37.45"/>
<text text-anchor="middle" x="1570.97" y="-48.78" font-family="Times,serif" font-size="14.00">alma</text>
<text text-anchor="middle" x="1570.97" y="-33.78" font-family="Times,serif" font-size="14.00">ncfs000 (pobj)</text>
<text text-anchor="middle" x="1570.97" y="-18.78" font-family="Times,serif" font-size="14.00">rep=no, t=no, r=yes, m=yes, c=no</text>
</g>
<!-- n12&#45;&gt;n13 -->
<g id="edge14" class="edge">
<title>n12&#45;&gt;n13</title>
<path fill="none" stroke="black" d="M1570.97,-110.85C1570.97,-102.67 1570.97,-93.89 1570.97,-85.37"/>
<polygon fill="black" stroke="black" points="1574.47,-85.15 1570.97,-75.15 1567.47,-85.15 1574.47,-85.15"/>
</g>
</g>
</svg>
