<?xml version="1.0" encoding="UTF-8" standalone="no"?>
<!DOCTYPE svg PUBLIC "-//W3C//DTD SVG 1.1//EN"
 "http://www.w3.org/Graphics/SVG/1.1/DTD/svg11.dtd">
<!-- Generated by graphviz version 2.43.0 (0)
 -->
<!-- Title: tree Pages: 1 -->
<svg width="3710pt" height="1082pt"
 viewBox="0.00 0.00 3709.94 1081.53" xmlns="http://www.w3.org/2000/svg" xmlns:xlink="http://www.w3.org/1999/xlink">
<g id="graph0" class="graph" transform="scale(1 1) rotate(0) translate(4 1077.53)">
<title>tree</title>
<polygon fill="white" stroke="transparent" points="-4,4 -4,-1077.53 3705.94,-1077.53 3705.94,4 -4,4"/>
<!-- n12 -->
<g id="node1" class="node">
<title>n12</title>
<ellipse fill="#98D2A5" stroke="black" cx="1558.97" cy="-1036.06" rx="185.94" ry="37.45"/>
<text text-anchor="middle" x="1558.97" y="-1047.36" font-family="Times,serif" font-size="14.00">y</text>
<text text-anchor="middle" x="1558.97" y="-1032.36" font-family="Times,serif" font-size="14.00">cc (root)</text>
<text text-anchor="middle" x="1558.97" y="-1017.36" font-family="Times,serif" font-size="14.00">rep=no, t=no, r=no, m=yes, c=no</text>
</g>
<!-- n1 -->
<g id="node2" class="node">
<title>n1</title>
<ellipse fill="#98D2A5" stroke="black" cx="195.97" cy="-925.1" rx="185.94" ry="37.45"/>
<text text-anchor="middle" x="195.97" y="-936.4" font-family="Times,serif" font-size="14.00">Para</text>
<text text-anchor="middle" x="195.97" y="-921.4" font-family="Times,serif" font-size="14.00">sps00 (coord)</text>
<text text-anchor="middle" x="195.97" y="-906.4" font-family="Times,serif" font-size="14.00">rep=no, t=no, r=no, m=yes, c=no</text>
</g>
<!-- n12&#45;&gt;n1 -->
<g id="edge1" class="edge">
<title>n12&#45;&gt;n1</title>
<path fill="none" stroke="black" d="M1375.21,-1030.06C1146.16,-1022.34 743,-1003.84 399.97,-962.58 379.46,-960.11 357.89,-956.92 336.77,-953.45"/>
<polygon fill="black" stroke="black" points="337.22,-949.97 326.78,-951.78 336.06,-956.88 337.22,-949.97"/>
</g>
<!-- n3 -->
<g id="node3" class="node">
<title>n3</title>
<ellipse fill="none" stroke="black" cx="590.97" cy="-925.1" rx="181.95" ry="37.45"/>
<text text-anchor="middle" x="590.97" y="-936.4" font-family="Times,serif" font-size="14.00">,</text>
<text text-anchor="middle" x="590.97" y="-921.4" font-family="Times,serif" font-size="14.00">fc (punct)</text>
<text text-anchor="middle" x="590.97" y="-906.4" font-family="Times,serif" font-size="14.00">rep=no, t=no, r=no, m=no, c=no</text>
</g>
<!-- n12&#45;&gt;n3 -->
<g id="edge2" class="edge">
<title>n12&#45;&gt;n3</title>
<path fill="none" stroke="black" d="M1383.67,-1023.52C1225.82,-1011.98 987.71,-991.75 781.97,-962.58 764.34,-960.08 745.87,-957.06 727.66,-953.85"/>
<polygon fill="black" stroke="black" points="728.03,-950.36 717.57,-952.04 726.8,-957.25 728.03,-950.36"/>
</g>
<!-- n5 -->
<g id="node4" class="node">
<title>n5</title>
<ellipse fill="#98D2A5" stroke="black" cx="976.97" cy="-925.1" rx="185.94" ry="37.45"/>
<text text-anchor="middle" x="976.97" y="-936.4" font-family="Times,serif" font-size="14.00">está</text>
<text text-anchor="middle" x="976.97" y="-921.4" font-family="Times,serif" font-size="14.00">vmip3s0 (coord)</text>
<text text-anchor="middle" x="976.97" y="-906.4" font-family="Times,serif" font-size="14.00">rep=no, t=no, r=no, m=yes, c=no</text>
</g>
<!-- n12&#45;&gt;n5 -->
<g id="edge3" class="edge">
<title>n12&#45;&gt;n5</title>
<path fill="none" stroke="black" d="M1425.08,-1009.99C1334.16,-992.97 1214.02,-970.48 1121.02,-953.07"/>
<polygon fill="black" stroke="black" points="1121.44,-949.59 1110.96,-951.19 1120.15,-956.47 1121.44,-949.59"/>
</g>
<!-- n11 -->
<g id="node5" class="node">
<title>n11</title>
<ellipse fill="none" stroke="black" cx="1363.97" cy="-925.1" rx="181.95" ry="37.45"/>
<text text-anchor="middle" x="1363.97" y="-936.4" font-family="Times,serif" font-size="14.00">,</text>
<text text-anchor="middle" x="1363.97" y="-921.4" font-family="Times,serif" font-size="14.00">fc (punct)</text>
<text text-anchor="middle" x="1363.97" y="-906.4" font-family="Times,serif" font-size="14.00">rep=no, t=no, r=no, m=no, c=no</text>
</g>
<!-- n12&#45;&gt;n11 -->
<g id="edge4" class="edge">
<title>n12&#45;&gt;n11</title>
<path fill="none" stroke="black" d="M1497.27,-1000.58C1477.34,-989.45 1455.1,-977.02 1434.58,-965.56"/>
<polygon fill="black" stroke="black" points="1436.04,-962.36 1425.6,-960.54 1432.62,-968.47 1436.04,-962.36"/>
</g>
<!-- n18 -->
<g id="node6" class="node">
<title>n18</title>
<ellipse fill="#98D2A5" stroke="black" cx="1754.97" cy="-925.1" rx="190.84" ry="37.45"/>
<text text-anchor="middle" x="1754.97" y="-936.4" font-family="Times,serif" font-size="14.00">prometen</text>
<text text-anchor="middle" x="1754.97" y="-921.4" font-family="Times,serif" font-size="14.00">vmip3p0 (conj)</text>
<text text-anchor="middle" x="1754.97" y="-906.4" font-family="Times,serif" font-size="14.00">rep=no, t=no, r=no, m=yes, c=yes</text>
</g>
<!-- n12&#45;&gt;n18 -->
<g id="edge5" class="edge">
<title>n12&#45;&gt;n18</title>
<path fill="none" stroke="black" d="M1620.98,-1000.58C1640.91,-989.5 1663.15,-977.14 1683.69,-965.73"/>
<polygon fill="black" stroke="black" points="1685.64,-968.64 1692.68,-960.73 1682.24,-962.53 1685.64,-968.64"/>
</g>
<!-- n19 -->
<g id="node7" class="node">
<title>n19</title>
<ellipse fill="#98D2A5" stroke="black" cx="2149.97" cy="-925.1" rx="185.94" ry="37.45"/>
<text text-anchor="middle" x="2149.97" y="-936.4" font-family="Times,serif" font-size="14.00">y</text>
<text text-anchor="middle" x="2149.97" y="-921.4" font-family="Times,serif" font-size="14.00">cc (coord_fixed)</text>
<text text-anchor="middle" x="2149.97" y="-906.4" font-family="Times,serif" font-size="14.00">rep=no, t=no, r=no, m=yes, c=no</text>
</g>
<!-- n12&#45;&gt;n19 -->
<g id="edge6" class="edge">
<title>n12&#45;&gt;n19</title>
<path fill="none" stroke="black" d="M1694.62,-1010.36C1771.09,-996.41 1868.38,-978.6 1954.97,-962.58 1971.53,-959.52 1988.88,-956.29 2006.11,-953.08"/>
<polygon fill="black" stroke="black" points="2007.05,-956.46 2016.24,-951.19 2005.77,-949.58 2007.05,-956.46"/>
</g>
<!-- n33 -->
<g id="node8" class="node">
<title>n33</title>
<ellipse fill="none" stroke="black" cx="2535.97" cy="-925.1" rx="181.95" ry="37.45"/>
<text text-anchor="middle" x="2535.97" y="-936.4" font-family="Times,serif" font-size="14.00">&quot;</text>
<text text-anchor="middle" x="2535.97" y="-921.4" font-family="Times,serif" font-size="14.00">fe (punct)</text>
<text text-anchor="middle" x="2535.97" y="-906.4" font-family="Times,serif" font-size="14.00">rep=no, t=no, r=no, m=no, c=no</text>
</g>
<!-- n12&#45;&gt;n33 -->
<g id="edge7" class="edge">
<title>n12&#45;&gt;n33</title>
<path fill="none" stroke="black" d="M1734.74,-1023.74C1894.41,-1012.3 2136.18,-992.07 2344.97,-962.58 2362.6,-960.09 2381.07,-957.08 2399.28,-953.86"/>
<polygon fill="black" stroke="black" points="2400.14,-957.27 2409.37,-952.06 2398.91,-950.38 2400.14,-957.27"/>
</g>
<!-- n34 -->
<g id="node9" class="node">
<title>n34</title>
<ellipse fill="none" stroke="black" cx="2916.97" cy="-925.1" rx="181.95" ry="37.45"/>
<text text-anchor="middle" x="2916.97" y="-936.4" font-family="Times,serif" font-size="14.00">.</text>
<text text-anchor="middle" x="2916.97" y="-921.4" font-family="Times,serif" font-size="14.00">fp (punct)</text>
<text text-anchor="middle" x="2916.97" y="-906.4" font-family="Times,serif" font-size="14.00">rep=no, t=no, r=no, m=no, c=no</text>
</g>
<!-- n12&#45;&gt;n34 -->
<g id="edge8" class="edge">
<title>n12&#45;&gt;n34</title>
<path fill="none" stroke="black" d="M1743.24,-1030.89C1973.98,-1024 2381.04,-1006.34 2726.97,-962.58 2744.91,-960.31 2763.7,-957.38 2782.2,-954.18"/>
<polygon fill="black" stroke="black" points="2782.9,-957.61 2792.13,-952.42 2781.68,-950.71 2782.9,-957.61"/>
</g>
<!-- n2 -->
<g id="node10" class="node">
<title>n2</title>
<ellipse fill="#98D2A5" stroke="black" cx="185.97" cy="-814.15" rx="185.94" ry="37.45"/>
<text text-anchor="middle" x="185.97" y="-825.45" font-family="Times,serif" font-size="14.00">Maradona</text>
<text text-anchor="middle" x="185.97" y="-810.45" font-family="Times,serif" font-size="14.00">np00000 (pobj)</text>
<text text-anchor="middle" x="185.97" y="-795.45" font-family="Times,serif" font-size="14.00">rep=no, t=no, r=no, m=yes, c=no</text>
</g>
<!-- n1&#45;&gt;n2 -->
<g id="edge9" class="edge">
<title>n1&#45;&gt;n2</title>
<path fill="none" stroke="black" d="M192.61,-887.52C191.86,-879.35 191.06,-870.57 190.27,-862.04"/>
<polygon fill="black" stroke="black" points="193.73,-861.46 189.33,-851.82 186.76,-862.1 193.73,-861.46"/>
</g>
<!-- n4 -->
<g id="node11" class="node">
<title>n4</title>
<ellipse fill="#98D2A5" stroke="black" cx="580.97" cy="-814.15" rx="190.84" ry="37.45"/>
<text text-anchor="middle" x="580.97" y="-825.45" font-family="Times,serif" font-size="14.00">Argentina</text>
<text text-anchor="middle" x="580.97" y="-810.45" font-family="Times,serif" font-size="14.00">np00000 (nsubj)</text>
<text text-anchor="middle" x="580.97" y="-795.45" font-family="Times,serif" font-size="14.00">rep=no, t=yes, r=no, m=yes, c=no</text>
</g>
<!-- n5&#45;&gt;n4 -->
<g id="edge10" class="edge">
<title>n5&#45;&gt;n4</title>
<path fill="none" stroke="black" d="M869.28,-894.48C816.78,-880.03 753.5,-862.62 699.61,-847.79"/>
<polygon fill="black" stroke="black" points="700.24,-844.33 689.67,-845.06 698.38,-851.08 700.24,-844.33"/>
</g>
<!-- n7 -->
<g id="node12" class="node">
<title>n7</title>
<ellipse fill="#98D2A5" stroke="black" cx="975.97" cy="-814.15" rx="185.94" ry="37.45"/>
<text text-anchor="middle" x="975.97" y="-825.45" font-family="Times,serif" font-size="14.00">fuera</text>
<text text-anchor="middle" x="975.97" y="-810.45" font-family="Times,serif" font-size="14.00">rg (advmod)</text>
<text text-anchor="middle" x="975.97" y="-795.45" font-family="Times,serif" font-size="14.00">rep=no, t=no, r=no, m=yes, c=no</text>
</g>
<!-- n5&#45;&gt;n7 -->
<g id="edge11" class="edge">
<title>n5&#45;&gt;n7</title>
<path fill="none" stroke="black" d="M976.63,-887.52C976.56,-879.35 976.48,-870.57 976.4,-862.04"/>
<polygon fill="black" stroke="black" points="979.9,-861.79 976.31,-851.82 972.9,-861.85 979.9,-861.79"/>
</g>
<!-- n14 -->
<g id="node17" class="node">
<title>n14</title>
<ellipse fill="#98D2A5" stroke="black" cx="1365.97" cy="-814.15" rx="185.94" ry="37.45"/>
<text text-anchor="middle" x="1365.97" y="-825.45" font-family="Times,serif" font-size="14.00">políticos</text>
<text text-anchor="middle" x="1365.97" y="-810.45" font-family="Times,serif" font-size="14.00">ncmp000 (nsubj)</text>
<text text-anchor="middle" x="1365.97" y="-795.45" font-family="Times,serif" font-size="14.00">rep=no, t=no, r=no, m=yes, c=no</text>
</g>
<!-- n18&#45;&gt;n14 -->
<g id="edge16" class="edge">
<title>n18&#45;&gt;n14</title>
<path fill="none" stroke="black" d="M1647.64,-894.04C1596.2,-879.63 1534.49,-862.35 1481.97,-847.64"/>
<polygon fill="black" stroke="black" points="1482.84,-844.25 1472.27,-844.92 1480.96,-850.99 1482.84,-844.25"/>
</g>
<!-- n15 -->
<g id="node18" class="node">
<title>n15</title>
<ellipse fill="#98D2A5" stroke="black" cx="1755.97" cy="-814.15" rx="185.94" ry="37.45"/>
<text text-anchor="middle" x="1755.97" y="-825.45" font-family="Times,serif" font-size="14.00">,</text>
<text text-anchor="middle" x="1755.97" y="-810.45" font-family="Times,serif" font-size="14.00">fc (punct)</text>
<text text-anchor="middle" x="1755.97" y="-795.45" font-family="Times,serif" font-size="14.00">rep=no, t=no, r=no, m=yes, c=no</text>
</g>
<!-- n18&#45;&gt;n15 -->
<g id="edge17" class="edge">
<title>n18&#45;&gt;n15</title>
<path fill="none" stroke="black" d="M1755.3,-887.52C1755.38,-879.35 1755.46,-870.57 1755.54,-862.04"/>
<polygon fill="black" stroke="black" points="1759.04,-861.85 1755.63,-851.82 1752.04,-861.79 1759.04,-861.85"/>
</g>
<!-- n16 -->
<g id="node19" class="node">
<title>n16</title>
<ellipse fill="#98D2A5" stroke="black" cx="2145.97" cy="-814.15" rx="185.94" ry="37.45"/>
<text text-anchor="middle" x="2145.97" y="-825.45" font-family="Times,serif" font-size="14.00">&quot;</text>
<text text-anchor="middle" x="2145.97" y="-810.45" font-family="Times,serif" font-size="14.00">fe (punct)</text>
<text text-anchor="middle" x="2145.97" y="-795.45" font-family="Times,serif" font-size="14.00">rep=no, t=no, r=no, m=yes, c=no</text>
</g>
<!-- n18&#45;&gt;n16 -->
<g id="edge18" class="edge">
<title>n18&#45;&gt;n16</title>
<path fill="none" stroke="black" d="M1862.59,-894.11C1914.41,-879.68 1976.63,-862.34 2029.55,-847.59"/>
<polygon fill="black" stroke="black" points="2030.63,-850.92 2039.32,-844.87 2028.75,-844.18 2030.63,-850.92"/>
</g>
<!-- n17 -->
<g id="node20" class="node">
<title>n17</title>
<ellipse fill="#98D2A5" stroke="black" cx="2535.97" cy="-814.15" rx="185.94" ry="37.45"/>
<text text-anchor="middle" x="2535.97" y="-825.45" font-family="Times,serif" font-size="14.00">primero</text>
<text text-anchor="middle" x="2535.97" y="-810.45" font-family="Times,serif" font-size="14.00">rg (advmod)</text>
<text text-anchor="middle" x="2535.97" y="-795.45" font-family="Times,serif" font-size="14.00">rep=no, t=no, r=no, m=yes, c=no</text>
</g>
<!-- n18&#45;&gt;n17 -->
<g id="edge19" class="edge">
<title>n18&#45;&gt;n17</title>
<path fill="none" stroke="black" d="M1888.11,-898.15C1910.38,-894.29 1933.29,-890.61 1954.97,-887.63 2125.66,-864.15 2170.33,-875.49 2340.97,-851.63 2358.97,-849.11 2377.83,-846.08 2396.44,-842.86"/>
<polygon fill="black" stroke="black" points="2397.19,-846.28 2406.44,-841.1 2395.98,-839.38 2397.19,-846.28"/>
</g>
<!-- n20 -->
<g id="node22" class="node">
<title>n20</title>
<ellipse fill="#98D2A5" stroke="black" cx="2925.97" cy="-814.15" rx="185.94" ry="37.45"/>
<text text-anchor="middle" x="2925.97" y="-825.45" font-family="Times,serif" font-size="14.00">después</text>
<text text-anchor="middle" x="2925.97" y="-810.45" font-family="Times,serif" font-size="14.00">rg (advmod)</text>
<text text-anchor="middle" x="2925.97" y="-795.45" font-family="Times,serif" font-size="14.00">rep=no, t=no, r=no, m=yes, c=no</text>
</g>
<!-- n19&#45;&gt;n20 -->
<g id="edge21" class="edge">
<title>n19&#45;&gt;n20</title>
<path fill="none" stroke="black" d="M2279.5,-898.15C2301.3,-894.28 2323.74,-890.6 2344.97,-887.63 2515.61,-863.76 2560.33,-875.49 2730.97,-851.63 2748.97,-849.11 2767.83,-846.08 2786.44,-842.86"/>
<polygon fill="black" stroke="black" points="2787.19,-846.28 2796.44,-841.1 2785.98,-839.38 2787.19,-846.28"/>
</g>
<!-- n6 -->
<g id="node13" class="node">
<title>n6</title>
<ellipse fill="#98D2A5" stroke="black" cx="390.97" cy="-703.2" rx="185.94" ry="37.45"/>
<text text-anchor="middle" x="390.97" y="-714.5" font-family="Times,serif" font-size="14.00">&quot;</text>
<text text-anchor="middle" x="390.97" y="-699.5" font-family="Times,serif" font-size="14.00">fe (punct)</text>
<text text-anchor="middle" x="390.97" y="-684.5" font-family="Times,serif" font-size="14.00">rep=no, t=no, r=no, m=yes, c=no</text>
</g>
<!-- n7&#45;&gt;n6 -->
<g id="edge12" class="edge">
<title>n7&#45;&gt;n6</title>
<path fill="none" stroke="black" d="M842.23,-788.09C821.72,-784.26 800.78,-780.35 780.97,-776.67 694.32,-760.57 672.62,-756.78 585.97,-740.67 569.41,-737.6 552.06,-734.36 534.83,-731.15"/>
<polygon fill="black" stroke="black" points="535.18,-727.65 524.7,-729.26 533.89,-734.53 535.18,-727.65"/>
</g>
<!-- n8 -->
<g id="node14" class="node">
<title>n8</title>
<ellipse fill="#98D2A5" stroke="black" cx="780.97" cy="-703.2" rx="185.94" ry="37.45"/>
<text text-anchor="middle" x="780.97" y="-714.5" font-family="Times,serif" font-size="14.00">de</text>
<text text-anchor="middle" x="780.97" y="-699.5" font-family="Times,serif" font-size="14.00">sps00 (prep)</text>
<text text-anchor="middle" x="780.97" y="-684.5" font-family="Times,serif" font-size="14.00">rep=no, t=no, r=no, m=yes, c=no</text>
</g>
<!-- n7&#45;&gt;n8 -->
<g id="edge13" class="edge">
<title>n7&#45;&gt;n8</title>
<path fill="none" stroke="black" d="M914.27,-778.68C894.34,-767.54 872.1,-755.12 851.58,-743.65"/>
<polygon fill="black" stroke="black" points="853.04,-740.45 842.6,-738.63 849.62,-746.57 853.04,-740.45"/>
</g>
<!-- n10 -->
<g id="node15" class="node">
<title>n10</title>
<ellipse fill="#98D2A5" stroke="black" cx="1170.97" cy="-703.2" rx="185.94" ry="37.45"/>
<text text-anchor="middle" x="1170.97" y="-714.5" font-family="Times,serif" font-size="14.00">&quot;</text>
<text text-anchor="middle" x="1170.97" y="-699.5" font-family="Times,serif" font-size="14.00">fe (punct)</text>
<text text-anchor="middle" x="1170.97" y="-684.5" font-family="Times,serif" font-size="14.00">rep=no, t=no, r=no, m=yes, c=no</text>
</g>
<!-- n7&#45;&gt;n10 -->
<g id="edge14" class="edge">
<title>n7&#45;&gt;n10</title>
<path fill="none" stroke="black" d="M1037.67,-778.68C1057.59,-767.54 1079.84,-755.12 1100.35,-743.65"/>
<polygon fill="black" stroke="black" points="1102.31,-746.57 1109.34,-738.63 1098.9,-740.45 1102.31,-746.57"/>
</g>
<!-- n9 -->
<g id="node16" class="node">
<title>n9</title>
<ellipse fill="#98D2A5" stroke="black" cx="780.97" cy="-592.24" rx="185.94" ry="37.45"/>
<text text-anchor="middle" x="780.97" y="-603.54" font-family="Times,serif" font-size="14.00">control</text>
<text text-anchor="middle" x="780.97" y="-588.54" font-family="Times,serif" font-size="14.00">ncms000 (pobj)</text>
<text text-anchor="middle" x="780.97" y="-573.54" font-family="Times,serif" font-size="14.00">rep=no, t=no, r=no, m=yes, c=no</text>
</g>
<!-- n8&#45;&gt;n9 -->
<g id="edge15" class="edge">
<title>n8&#45;&gt;n9</title>
<path fill="none" stroke="black" d="M780.97,-665.61C780.97,-657.44 780.97,-648.66 780.97,-640.13"/>
<polygon fill="black" stroke="black" points="784.47,-639.92 780.97,-629.92 777.47,-639.92 784.47,-639.92"/>
</g>
<!-- n13 -->
<g id="node21" class="node">
<title>n13</title>
<ellipse fill="#98D2A5" stroke="black" cx="1560.97" cy="-703.2" rx="185.94" ry="37.45"/>
<text text-anchor="middle" x="1560.97" y="-714.5" font-family="Times,serif" font-size="14.00">los</text>
<text text-anchor="middle" x="1560.97" y="-699.5" font-family="Times,serif" font-size="14.00">da0mp0 (det)</text>
<text text-anchor="middle" x="1560.97" y="-684.5" font-family="Times,serif" font-size="14.00">rep=no, t=no, r=no, m=yes, c=no</text>
</g>
<!-- n14&#45;&gt;n13 -->
<g id="edge20" class="edge">
<title>n14&#45;&gt;n13</title>
<path fill="none" stroke="black" d="M1427.67,-778.68C1447.59,-767.54 1469.84,-755.12 1490.35,-743.65"/>
<polygon fill="black" stroke="black" points="1492.31,-746.57 1499.34,-738.63 1488.9,-740.45 1492.31,-746.57"/>
</g>
<!-- n21 -->
<g id="node23" class="node">
<title>n21</title>
<ellipse fill="#98D2A5" stroke="black" cx="2530.97" cy="-703.2" rx="190.84" ry="37.45"/>
<text text-anchor="middle" x="2530.97" y="-714.5" font-family="Times,serif" font-size="14.00">van</text>
<text text-anchor="middle" x="2530.97" y="-699.5" font-family="Times,serif" font-size="14.00">vmip3p0 (dep)</text>
<text text-anchor="middle" x="2530.97" y="-684.5" font-family="Times,serif" font-size="14.00">rep=no, t=no, r=no, m=yes, c=yes</text>
</g>
<!-- n20&#45;&gt;n21 -->
<g id="edge22" class="edge">
<title>n20&#45;&gt;n21</title>
<path fill="none" stroke="black" d="M2818.56,-783.52C2766.19,-769.08 2703.06,-751.67 2649.31,-736.84"/>
<polygon fill="black" stroke="black" points="2649.96,-733.39 2639.39,-734.1 2648.1,-740.14 2649.96,-733.39"/>
</g>
<!-- n24 -->
<g id="node24" class="node">
<title>n24</title>
<ellipse fill="#98D2A5" stroke="black" cx="2925.97" cy="-703.2" rx="185.94" ry="37.45"/>
<text text-anchor="middle" x="2925.97" y="-714.5" font-family="Times,serif" font-size="14.00">y</text>
<text text-anchor="middle" x="2925.97" y="-699.5" font-family="Times,serif" font-size="14.00">cc (coord_fixed)</text>
<text text-anchor="middle" x="2925.97" y="-684.5" font-family="Times,serif" font-size="14.00">rep=no, t=no, r=no, m=yes, c=no</text>
</g>
<!-- n20&#45;&gt;n24 -->
<g id="edge23" class="edge">
<title>n20&#45;&gt;n24</title>
<path fill="none" stroke="black" d="M2925.97,-776.57C2925.97,-768.39 2925.97,-759.61 2925.97,-751.09"/>
<polygon fill="black" stroke="black" points="2929.47,-750.87 2925.97,-740.87 2922.47,-750.87 2929.47,-750.87"/>
</g>
<!-- n25 -->
<g id="node25" class="node">
<title>n25</title>
<ellipse fill="#98D2A5" stroke="black" cx="3320.97" cy="-703.2" rx="190.84" ry="37.45"/>
<text text-anchor="middle" x="3320.97" y="-714.5" font-family="Times,serif" font-size="14.00">pelean</text>
<text text-anchor="middle" x="3320.97" y="-699.5" font-family="Times,serif" font-size="14.00">vmip3p0 (dep)</text>
<text text-anchor="middle" x="3320.97" y="-684.5" font-family="Times,serif" font-size="14.00">rep=no, t=no, r=no, m=yes, c=yes</text>
</g>
<!-- n20&#45;&gt;n25 -->
<g id="edge24" class="edge">
<title>n20&#45;&gt;n25</title>
<path fill="none" stroke="black" d="M3033.38,-783.52C3085.75,-769.08 3148.87,-751.67 3202.62,-736.84"/>
<polygon fill="black" stroke="black" points="3203.84,-740.14 3212.55,-734.1 3201.98,-733.39 3203.84,-740.14"/>
</g>
<!-- n22 -->
<g id="node26" class="node">
<title>n22</title>
<ellipse fill="#98D2A5" stroke="black" cx="2530.97" cy="-592.24" rx="185.94" ry="37.45"/>
<text text-anchor="middle" x="2530.97" y="-603.54" font-family="Times,serif" font-size="14.00">al</text>
<text text-anchor="middle" x="2530.97" y="-588.54" font-family="Times,serif" font-size="14.00">spcms (prepv)</text>
<text text-anchor="middle" x="2530.97" y="-573.54" font-family="Times,serif" font-size="14.00">rep=no, t=no, r=no, m=yes, c=no</text>
</g>
<!-- n21&#45;&gt;n22 -->
<g id="edge25" class="edge">
<title>n21&#45;&gt;n22</title>
<path fill="none" stroke="black" d="M2530.97,-665.61C2530.97,-657.44 2530.97,-648.66 2530.97,-640.13"/>
<polygon fill="black" stroke="black" points="2534.47,-639.92 2530.97,-629.92 2527.47,-639.92 2534.47,-639.92"/>
</g>
<!-- n26 -->
<g id="node28" class="node">
<title>n26</title>
<ellipse fill="#98D2A5" stroke="black" cx="3320.97" cy="-592.24" rx="185.94" ry="37.45"/>
<text text-anchor="middle" x="3320.97" y="-603.54" font-family="Times,serif" font-size="14.00">por</text>
<text text-anchor="middle" x="3320.97" y="-588.54" font-family="Times,serif" font-size="14.00">sps00 (oobj)</text>
<text text-anchor="middle" x="3320.97" y="-573.54" font-family="Times,serif" font-size="14.00">rep=no, t=no, r=no, m=yes, c=no</text>
</g>
<!-- n25&#45;&gt;n26 -->
<g id="edge27" class="edge">
<title>n25&#45;&gt;n26</title>
<path fill="none" stroke="black" d="M3320.97,-665.61C3320.97,-657.44 3320.97,-648.66 3320.97,-640.13"/>
<polygon fill="black" stroke="black" points="3324.47,-639.92 3320.97,-629.92 3317.47,-639.92 3324.47,-639.92"/>
</g>
<!-- n23 -->
<g id="node27" class="node">
<title>n23</title>
<ellipse fill="#98D2A5" stroke="black" cx="2530.97" cy="-481.29" rx="185.94" ry="37.45"/>
<text text-anchor="middle" x="2530.97" y="-492.59" font-family="Times,serif" font-size="14.00">Congreso</text>
<text text-anchor="middle" x="2530.97" y="-477.59" font-family="Times,serif" font-size="14.00">np00000 (pobj)</text>
<text text-anchor="middle" x="2530.97" y="-462.59" font-family="Times,serif" font-size="14.00">rep=no, t=no, r=no, m=yes, c=no</text>
</g>
<!-- n22&#45;&gt;n23 -->
<g id="edge26" class="edge">
<title>n22&#45;&gt;n23</title>
<path fill="none" stroke="black" d="M2530.97,-554.66C2530.97,-546.49 2530.97,-537.71 2530.97,-529.18"/>
<polygon fill="black" stroke="black" points="2534.47,-528.96 2530.97,-518.96 2527.47,-528.96 2534.47,-528.96"/>
</g>
<!-- n27 -->
<g id="node29" class="node">
<title>n27</title>
<ellipse fill="#98D2A5" stroke="black" cx="3320.97" cy="-481.29" rx="185.94" ry="37.45"/>
<text text-anchor="middle" x="3320.97" y="-492.59" font-family="Times,serif" font-size="14.00">estar</text>
<text text-anchor="middle" x="3320.97" y="-477.59" font-family="Times,serif" font-size="14.00">vmn0000 (pobj)</text>
<text text-anchor="middle" x="3320.97" y="-462.59" font-family="Times,serif" font-size="14.00">rep=no, t=no, r=no, m=yes, c=no</text>
</g>
<!-- n26&#45;&gt;n27 -->
<g id="edge28" class="edge">
<title>n26&#45;&gt;n27</title>
<path fill="none" stroke="black" d="M3320.97,-554.66C3320.97,-546.49 3320.97,-537.71 3320.97,-529.18"/>
<polygon fill="black" stroke="black" points="3324.47,-528.96 3320.97,-518.96 3317.47,-528.96 3324.47,-528.96"/>
</g>
<!-- n28 -->
<g id="node30" class="node">
<title>n28</title>
<ellipse fill="#98D2A5" stroke="black" cx="3125.97" cy="-370.34" rx="185.94" ry="37.45"/>
<text text-anchor="middle" x="3125.97" y="-381.64" font-family="Times,serif" font-size="14.00">calculando</text>
<text text-anchor="middle" x="3125.97" y="-366.64" font-family="Times,serif" font-size="14.00">vmg0000 (attr)</text>
<text text-anchor="middle" x="3125.97" y="-351.64" font-family="Times,serif" font-size="14.00">rep=no, t=no, r=no, m=yes, c=no</text>
</g>
<!-- n27&#45;&gt;n28 -->
<g id="edge29" class="edge">
<title>n27&#45;&gt;n28</title>
<path fill="none" stroke="black" d="M3259.27,-445.82C3239.34,-434.68 3217.1,-422.26 3196.58,-410.79"/>
<polygon fill="black" stroke="black" points="3198.04,-407.59 3187.6,-405.77 3194.62,-413.71 3198.04,-407.59"/>
</g>
<!-- n31 -->
<g id="node31" class="node">
<title>n31</title>
<ellipse fill="#98D2A5" stroke="black" cx="3515.97" cy="-370.34" rx="185.94" ry="37.45"/>
<text text-anchor="middle" x="3515.97" y="-381.64" font-family="Times,serif" font-size="14.00">pueden</text>
<text text-anchor="middle" x="3515.97" y="-366.64" font-family="Times,serif" font-size="14.00">vmip3p0 (attr)</text>
<text text-anchor="middle" x="3515.97" y="-351.64" font-family="Times,serif" font-size="14.00">rep=no, t=no, r=no, m=yes, c=no</text>
</g>
<!-- n27&#45;&gt;n31 -->
<g id="edge30" class="edge">
<title>n27&#45;&gt;n31</title>
<path fill="none" stroke="black" d="M3382.67,-445.82C3402.59,-434.68 3424.84,-422.26 3445.35,-410.79"/>
<polygon fill="black" stroke="black" points="3447.31,-413.71 3454.34,-405.77 3443.9,-407.59 3447.31,-413.71"/>
</g>
<!-- n32 -->
<g id="node32" class="node">
<title>n32</title>
<ellipse fill="#98D2A5" stroke="black" cx="3515.97" cy="-259.38" rx="185.94" ry="37.45"/>
<text text-anchor="middle" x="3515.97" y="-270.68" font-family="Times,serif" font-size="14.00">robar</text>
<text text-anchor="middle" x="3515.97" y="-255.68" font-family="Times,serif" font-size="14.00">vmn0000 (cobj)</text>
<text text-anchor="middle" x="3515.97" y="-240.68" font-family="Times,serif" font-size="14.00">rep=no, t=no, r=no, m=yes, c=no</text>
</g>
<!-- n31&#45;&gt;n32 -->
<g id="edge31" class="edge">
<title>n31&#45;&gt;n32</title>
<path fill="none" stroke="black" d="M3515.97,-332.75C3515.97,-324.58 3515.97,-315.8 3515.97,-307.27"/>
<polygon fill="black" stroke="black" points="3519.47,-307.06 3515.97,-297.06 3512.47,-307.06 3519.47,-307.06"/>
</g>
<!-- n29 -->
<g id="node33" class="node">
<title>n29</title>
<ellipse fill="#98D2A5" stroke="black" cx="3515.97" cy="-148.43" rx="185.94" ry="37.45"/>
<text text-anchor="middle" x="3515.97" y="-159.73" font-family="Times,serif" font-size="14.00">qué</text>
<text text-anchor="middle" x="3515.97" y="-144.73" font-family="Times,serif" font-size="14.00">pt0cs000 (dobj)</text>
<text text-anchor="middle" x="3515.97" y="-129.73" font-family="Times,serif" font-size="14.00">rep=no, t=no, r=no, m=yes, c=no</text>
</g>
<!-- n32&#45;&gt;n29 -->
<g id="edge32" class="edge">
<title>n32&#45;&gt;n29</title>
<path fill="none" stroke="black" d="M3515.97,-221.8C3515.97,-213.63 3515.97,-204.85 3515.97,-196.32"/>
<polygon fill="black" stroke="black" points="3519.47,-196.1 3515.97,-186.1 3512.47,-196.1 3519.47,-196.1"/>
</g>
<!-- n30 -->
<g id="node34" class="node">
<title>n30</title>
<ellipse fill="#98D2A5" stroke="black" cx="3515.97" cy="-37.48" rx="185.94" ry="37.45"/>
<text text-anchor="middle" x="3515.97" y="-48.78" font-family="Times,serif" font-size="14.00">más</text>
<text text-anchor="middle" x="3515.97" y="-33.78" font-family="Times,serif" font-size="14.00">rg (advmod)</text>
<text text-anchor="middle" x="3515.97" y="-18.78" font-family="Times,serif" font-size="14.00">rep=no, t=no, r=no, m=yes, c=no</text>
</g>
<!-- n29&#45;&gt;n30 -->
<g id="edge33" class="edge">
<title>n29&#45;&gt;n30</title>
<path fill="none" stroke="black" d="M3515.97,-110.85C3515.97,-102.67 3515.97,-93.89 3515.97,-85.37"/>
<polygon fill="black" stroke="black" points="3519.47,-85.15 3515.97,-75.15 3512.47,-85.15 3519.47,-85.15"/>
</g>
</g>
</svg>
