<?xml version="1.0" encoding="UTF-8" standalone="no"?>
<!DOCTYPE svg PUBLIC "-//W3C//DTD SVG 1.1//EN"
 "http://www.w3.org/Graphics/SVG/1.1/DTD/svg11.dtd">
<!-- Generated by graphviz version 2.43.0 (0)
 -->
<!-- Title: tree Pages: 1 -->
<svg width="2753pt" height="860pt"
 viewBox="0.00 0.00 2752.65 859.63" xmlns="http://www.w3.org/2000/svg" xmlns:xlink="http://www.w3.org/1999/xlink">
<g id="graph0" class="graph" transform="scale(1 1) rotate(0) translate(4 855.63)">
<title>tree</title>
<polygon fill="white" stroke="transparent" points="-4,4 -4,-855.63 2748.65,-855.63 2748.65,4 -4,4"/>
<!-- n8 -->
<g id="node1" class="node">
<title>n8</title>
<ellipse fill="#98D2A5" stroke="black" cx="1390.92" cy="-814.15" rx="190.84" ry="37.45"/>
<text text-anchor="middle" x="1390.92" y="-825.45" font-family="Times,serif" font-size="14.00">efectuó</text>
<text text-anchor="middle" x="1390.92" y="-810.45" font-family="Times,serif" font-size="14.00">vmis3s0 (root)</text>
<text text-anchor="middle" x="1390.92" y="-795.45" font-family="Times,serif" font-size="14.00">rep=no, t=no, r=yes, m=yes, c=no</text>
</g>
<!-- n1 -->
<g id="node2" class="node">
<title>n1</title>
<ellipse fill="#98D2A5" stroke="black" cx="590.92" cy="-703.2" rx="190.84" ry="37.45"/>
<text text-anchor="middle" x="590.92" y="-714.5" font-family="Times,serif" font-size="14.00">Bush</text>
<text text-anchor="middle" x="590.92" y="-699.5" font-family="Times,serif" font-size="14.00">np00000 (nsubj)</text>
<text text-anchor="middle" x="590.92" y="-684.5" font-family="Times,serif" font-size="14.00">rep=no, t=yes, r=no, m=yes, c=no</text>
</g>
<!-- n8&#45;&gt;n1 -->
<g id="edge1" class="edge">
<title>n8&#45;&gt;n1</title>
<path fill="none" stroke="black" d="M1224.38,-795.75C1103.76,-782.49 936.93,-762.79 790.92,-740.67 772.87,-737.94 753.96,-734.82 735.26,-731.59"/>
<polygon fill="black" stroke="black" points="735.66,-728.11 725.21,-729.84 734.46,-735 735.66,-728.11"/>
</g>
<!-- n3 -->
<g id="node3" class="node">
<title>n3</title>
<ellipse fill="#98D2A5" stroke="black" cx="990.92" cy="-703.2" rx="190.84" ry="37.45"/>
<text text-anchor="middle" x="990.92" y="-714.5" font-family="Times,serif" font-size="14.00">foto</text>
<text text-anchor="middle" x="990.92" y="-699.5" font-family="Times,serif" font-size="14.00">ncfs000 (dobj)</text>
<text text-anchor="middle" x="990.92" y="-684.5" font-family="Times,serif" font-size="14.00">rep=no, t=no, r=yes, m=yes, c=no</text>
</g>
<!-- n8&#45;&gt;n3 -->
<g id="edge2" class="edge">
<title>n8&#45;&gt;n3</title>
<path fill="none" stroke="black" d="M1281.62,-783.38C1228.48,-768.9 1164.51,-751.48 1110.12,-736.67"/>
<polygon fill="black" stroke="black" points="1111,-733.28 1100.44,-734.03 1109.16,-740.03 1111,-733.28"/>
</g>
<!-- n11 -->
<g id="node4" class="node">
<title>n11</title>
<ellipse fill="#98D2A5" stroke="black" cx="1390.92" cy="-703.2" rx="190.84" ry="37.45"/>
<text text-anchor="middle" x="1390.92" y="-714.5" font-family="Times,serif" font-size="14.00">lanzamiento</text>
<text text-anchor="middle" x="1390.92" y="-699.5" font-family="Times,serif" font-size="14.00">ncms000 (dobj)</text>
<text text-anchor="middle" x="1390.92" y="-684.5" font-family="Times,serif" font-size="14.00">rep=no, t=no, r=yes, m=yes, c=no</text>
</g>
<!-- n8&#45;&gt;n11 -->
<g id="edge3" class="edge">
<title>n8&#45;&gt;n11</title>
<path fill="none" stroke="black" d="M1390.92,-776.57C1390.92,-768.39 1390.92,-759.61 1390.92,-751.09"/>
<polygon fill="black" stroke="black" points="1394.42,-750.87 1390.92,-740.87 1387.42,-750.87 1394.42,-750.87"/>
</g>
<!-- n12 -->
<g id="node5" class="node">
<title>n12</title>
<ellipse fill="none" stroke="black" cx="1781.92" cy="-703.2" rx="181.95" ry="37.45"/>
<text text-anchor="middle" x="1781.92" y="-714.5" font-family="Times,serif" font-size="14.00">luciendo</text>
<text text-anchor="middle" x="1781.92" y="-699.5" font-family="Times,serif" font-size="14.00">vmg0000 (advcl)</text>
<text text-anchor="middle" x="1781.92" y="-684.5" font-family="Times,serif" font-size="14.00">rep=no, t=no, r=no, m=no, c=no</text>
</g>
<!-- n8&#45;&gt;n12 -->
<g id="edge4" class="edge">
<title>n8&#45;&gt;n12</title>
<path fill="none" stroke="black" d="M1498.54,-783.16C1550.57,-768.66 1613.09,-751.24 1666.16,-736.45"/>
<polygon fill="black" stroke="black" points="1667.26,-739.78 1675.95,-733.73 1665.38,-733.04 1667.26,-739.78"/>
</g>
<!-- n21 -->
<g id="node6" class="node">
<title>n21</title>
<ellipse fill="none" stroke="black" cx="2162.92" cy="-703.2" rx="181.95" ry="37.45"/>
<text text-anchor="middle" x="2162.92" y="-714.5" font-family="Times,serif" font-size="14.00">.</text>
<text text-anchor="middle" x="2162.92" y="-699.5" font-family="Times,serif" font-size="14.00">fp (punct)</text>
<text text-anchor="middle" x="2162.92" y="-684.5" font-family="Times,serif" font-size="14.00">rep=no, t=no, r=no, m=no, c=no</text>
</g>
<!-- n8&#45;&gt;n21 -->
<g id="edge5" class="edge">
<title>n8&#45;&gt;n21</title>
<path fill="none" stroke="black" d="M1556.58,-795.46C1673.27,-782.28 1833,-762.79 1972.92,-740.67 1989.77,-738.01 2007.41,-734.97 2024.86,-731.8"/>
<polygon fill="black" stroke="black" points="2025.91,-735.17 2035.11,-729.93 2024.64,-728.28 2025.91,-735.17"/>
</g>
<!-- n2 -->
<g id="node7" class="node">
<title>n2</title>
<ellipse fill="#98D2A5" stroke="black" cx="190.92" cy="-592.24" rx="190.84" ry="37.45"/>
<text text-anchor="middle" x="190.92" y="-603.54" font-family="Times,serif" font-size="14.00">(</text>
<text text-anchor="middle" x="190.92" y="-588.54" font-family="Times,serif" font-size="14.00">fpa (punct)</text>
<text text-anchor="middle" x="190.92" y="-573.54" font-family="Times,serif" font-size="14.00">rep=no, t=no, r=yes, m=yes, c=no</text>
</g>
<!-- n3&#45;&gt;n2 -->
<g id="edge6" class="edge">
<title>n3&#45;&gt;n2</title>
<path fill="none" stroke="black" d="M858.06,-676.23C835.7,-672.36 812.69,-668.68 790.92,-665.72 614.05,-641.68 567.79,-653.76 390.92,-629.72 372.38,-627.2 352.94,-624.16 333.77,-620.92"/>
<polygon fill="black" stroke="black" points="334.23,-617.45 323.78,-619.21 333.05,-624.35 334.23,-617.45"/>
</g>
<!-- n4 -->
<g id="node8" class="node">
<title>n4</title>
<ellipse fill="#98D2A5" stroke="black" cx="590.92" cy="-592.24" rx="190.84" ry="37.45"/>
<text text-anchor="middle" x="590.92" y="-603.54" font-family="Times,serif" font-size="14.00">de</text>
<text text-anchor="middle" x="590.92" y="-588.54" font-family="Times,serif" font-size="14.00">sps00 (prepn)</text>
<text text-anchor="middle" x="590.92" y="-573.54" font-family="Times,serif" font-size="14.00">rep=no, t=no, r=yes, m=yes, c=no</text>
</g>
<!-- n3&#45;&gt;n4 -->
<g id="edge7" class="edge">
<title>n3&#45;&gt;n4</title>
<path fill="none" stroke="black" d="M881.62,-672.42C828.48,-657.95 764.51,-640.53 710.12,-625.71"/>
<polygon fill="black" stroke="black" points="711,-622.32 700.44,-623.07 709.16,-629.08 711,-622.32"/>
</g>
<!-- n7 -->
<g id="node9" class="node">
<title>n7</title>
<ellipse fill="#98D2A5" stroke="black" cx="990.92" cy="-592.24" rx="190.84" ry="37.45"/>
<text text-anchor="middle" x="990.92" y="-603.54" font-family="Times,serif" font-size="14.00">)</text>
<text text-anchor="middle" x="990.92" y="-588.54" font-family="Times,serif" font-size="14.00">fpt (punct)</text>
<text text-anchor="middle" x="990.92" y="-573.54" font-family="Times,serif" font-size="14.00">rep=no, t=no, r=yes, m=yes, c=no</text>
</g>
<!-- n3&#45;&gt;n7 -->
<g id="edge8" class="edge">
<title>n3&#45;&gt;n7</title>
<path fill="none" stroke="black" d="M990.92,-665.61C990.92,-657.44 990.92,-648.66 990.92,-640.13"/>
<polygon fill="black" stroke="black" points="994.42,-639.92 990.92,-629.92 987.42,-639.92 994.42,-639.92"/>
</g>
<!-- n9 -->
<g id="node12" class="node">
<title>n9</title>
<ellipse fill="#98D2A5" stroke="black" cx="1390.92" cy="-592.24" rx="190.84" ry="37.45"/>
<text text-anchor="middle" x="1390.92" y="-603.54" font-family="Times,serif" font-size="14.00">el</text>
<text text-anchor="middle" x="1390.92" y="-588.54" font-family="Times,serif" font-size="14.00">da0ms0 (det)</text>
<text text-anchor="middle" x="1390.92" y="-573.54" font-family="Times,serif" font-size="14.00">rep=no, t=no, r=yes, m=yes, c=no</text>
</g>
<!-- n11&#45;&gt;n9 -->
<g id="edge11" class="edge">
<title>n11&#45;&gt;n9</title>
<path fill="none" stroke="black" d="M1390.92,-665.61C1390.92,-657.44 1390.92,-648.66 1390.92,-640.13"/>
<polygon fill="black" stroke="black" points="1394.42,-639.92 1390.92,-629.92 1387.42,-639.92 1394.42,-639.92"/>
</g>
<!-- n10 -->
<g id="node13" class="node">
<title>n10</title>
<ellipse fill="#98D2A5" stroke="black" cx="1790.92" cy="-592.24" rx="190.84" ry="37.45"/>
<text text-anchor="middle" x="1790.92" y="-603.54" font-family="Times,serif" font-size="14.00">primer</text>
<text text-anchor="middle" x="1790.92" y="-588.54" font-family="Times,serif" font-size="14.00">ao0ms0 (amod)</text>
<text text-anchor="middle" x="1790.92" y="-573.54" font-family="Times,serif" font-size="14.00">rep=no, t=no, r=yes, m=yes, c=no</text>
</g>
<!-- n11&#45;&gt;n10 -->
<g id="edge12" class="edge">
<title>n11&#45;&gt;n10</title>
<path fill="none" stroke="black" d="M1500.22,-672.42C1553.36,-657.95 1617.33,-640.53 1671.71,-625.71"/>
<polygon fill="black" stroke="black" points="1672.67,-629.08 1681.4,-623.07 1670.83,-622.32 1672.67,-629.08"/>
</g>
<!-- n14 -->
<g id="node14" class="node">
<title>n14</title>
<ellipse fill="none" stroke="black" cx="2181.92" cy="-592.24" rx="181.95" ry="37.45"/>
<text text-anchor="middle" x="2181.92" y="-603.54" font-family="Times,serif" font-size="14.00">chaqueta</text>
<text text-anchor="middle" x="2181.92" y="-588.54" font-family="Times,serif" font-size="14.00">ncfs000 (dobj)</text>
<text text-anchor="middle" x="2181.92" y="-573.54" font-family="Times,serif" font-size="14.00">rep=no, t=no, r=no, m=no, c=no</text>
</g>
<!-- n12&#45;&gt;n14 -->
<g id="edge13" class="edge">
<title>n12&#45;&gt;n14</title>
<path fill="none" stroke="black" d="M1889.37,-672.93C1943.51,-658.18 2009.26,-640.27 2064.7,-625.17"/>
<polygon fill="black" stroke="black" points="2065.84,-628.49 2074.57,-622.48 2064,-621.74 2065.84,-628.49"/>
</g>
<!-- n6 -->
<g id="node10" class="node">
<title>n6</title>
<ellipse fill="#98D2A5" stroke="black" cx="590.92" cy="-481.29" rx="190.84" ry="37.45"/>
<text text-anchor="middle" x="590.92" y="-492.59" font-family="Times,serif" font-size="14.00">derecha</text>
<text text-anchor="middle" x="590.92" y="-477.59" font-family="Times,serif" font-size="14.00">ncfs000 (pobj)</text>
<text text-anchor="middle" x="590.92" y="-462.59" font-family="Times,serif" font-size="14.00">rep=no, t=no, r=yes, m=yes, c=no</text>
</g>
<!-- n4&#45;&gt;n6 -->
<g id="edge9" class="edge">
<title>n4&#45;&gt;n6</title>
<path fill="none" stroke="black" d="M590.92,-554.66C590.92,-546.49 590.92,-537.71 590.92,-529.18"/>
<polygon fill="black" stroke="black" points="594.42,-528.96 590.92,-518.96 587.42,-528.96 594.42,-528.96"/>
</g>
<!-- n5 -->
<g id="node11" class="node">
<title>n5</title>
<ellipse fill="#98D2A5" stroke="black" cx="590.92" cy="-370.34" rx="190.84" ry="37.45"/>
<text text-anchor="middle" x="590.92" y="-381.64" font-family="Times,serif" font-size="14.00">la</text>
<text text-anchor="middle" x="590.92" y="-366.64" font-family="Times,serif" font-size="14.00">da0fs0 (det)</text>
<text text-anchor="middle" x="590.92" y="-351.64" font-family="Times,serif" font-size="14.00">rep=no, t=no, r=yes, m=yes, c=no</text>
</g>
<!-- n6&#45;&gt;n5 -->
<g id="edge10" class="edge">
<title>n6&#45;&gt;n5</title>
<path fill="none" stroke="black" d="M590.92,-443.71C590.92,-435.53 590.92,-426.75 590.92,-418.23"/>
<polygon fill="black" stroke="black" points="594.42,-418.01 590.92,-408.01 587.42,-418.01 594.42,-418.01"/>
</g>
<!-- n13 -->
<g id="node15" class="node">
<title>n13</title>
<ellipse fill="none" stroke="black" cx="1990.92" cy="-481.29" rx="181.95" ry="37.45"/>
<text text-anchor="middle" x="1990.92" y="-492.59" font-family="Times,serif" font-size="14.00">una</text>
<text text-anchor="middle" x="1990.92" y="-477.59" font-family="Times,serif" font-size="14.00">di0fs0 (det)</text>
<text text-anchor="middle" x="1990.92" y="-462.59" font-family="Times,serif" font-size="14.00">rep=no, t=no, r=no, m=no, c=no</text>
</g>
<!-- n14&#45;&gt;n13 -->
<g id="edge14" class="edge">
<title>n14&#45;&gt;n13</title>
<path fill="none" stroke="black" d="M2121.49,-556.77C2101.97,-545.64 2080.18,-533.21 2060.09,-521.75"/>
<polygon fill="black" stroke="black" points="2061.71,-518.64 2051.29,-516.73 2058.24,-524.72 2061.71,-518.64"/>
</g>
<!-- n15 -->
<g id="node16" class="node">
<title>n15</title>
<ellipse fill="none" stroke="black" cx="2371.92" cy="-481.29" rx="181.95" ry="37.45"/>
<text text-anchor="middle" x="2371.92" y="-492.59" font-family="Times,serif" font-size="14.00">de</text>
<text text-anchor="middle" x="2371.92" y="-477.59" font-family="Times,serif" font-size="14.00">sps00 (prepn)</text>
<text text-anchor="middle" x="2371.92" y="-462.59" font-family="Times,serif" font-size="14.00">rep=no, t=no, r=no, m=no, c=no</text>
</g>
<!-- n14&#45;&gt;n15 -->
<g id="edge15" class="edge">
<title>n14&#45;&gt;n15</title>
<path fill="none" stroke="black" d="M2242.04,-556.77C2261.45,-545.64 2283.12,-533.21 2303.11,-521.75"/>
<polygon fill="black" stroke="black" points="2304.93,-524.74 2311.87,-516.73 2301.45,-518.66 2304.93,-524.74"/>
</g>
<!-- n17 -->
<g id="node17" class="node">
<title>n17</title>
<ellipse fill="none" stroke="black" cx="2371.92" cy="-370.34" rx="181.95" ry="37.45"/>
<text text-anchor="middle" x="2371.92" y="-381.64" font-family="Times,serif" font-size="14.00">bomberos</text>
<text text-anchor="middle" x="2371.92" y="-366.64" font-family="Times,serif" font-size="14.00">ncmp000 (pobj)</text>
<text text-anchor="middle" x="2371.92" y="-351.64" font-family="Times,serif" font-size="14.00">rep=no, t=no, r=no, m=no, c=no</text>
</g>
<!-- n15&#45;&gt;n17 -->
<g id="edge16" class="edge">
<title>n15&#45;&gt;n17</title>
<path fill="none" stroke="black" d="M2371.92,-443.71C2371.92,-435.53 2371.92,-426.75 2371.92,-418.23"/>
<polygon fill="black" stroke="black" points="2375.42,-418.01 2371.92,-408.01 2368.42,-418.01 2375.42,-418.01"/>
</g>
<!-- n16 -->
<g id="node18" class="node">
<title>n16</title>
<ellipse fill="none" stroke="black" cx="2181.92" cy="-259.38" rx="181.95" ry="37.45"/>
<text text-anchor="middle" x="2181.92" y="-270.68" font-family="Times,serif" font-size="14.00">los</text>
<text text-anchor="middle" x="2181.92" y="-255.68" font-family="Times,serif" font-size="14.00">da0mp0 (det)</text>
<text text-anchor="middle" x="2181.92" y="-240.68" font-family="Times,serif" font-size="14.00">rep=no, t=no, r=no, m=no, c=no</text>
</g>
<!-- n17&#45;&gt;n16 -->
<g id="edge17" class="edge">
<title>n17&#45;&gt;n16</title>
<path fill="none" stroke="black" d="M2311.8,-334.86C2292.39,-323.73 2270.72,-311.3 2250.72,-299.84"/>
<polygon fill="black" stroke="black" points="2252.39,-296.76 2241.97,-294.82 2248.9,-302.83 2252.39,-296.76"/>
</g>
<!-- n18 -->
<g id="node19" class="node">
<title>n18</title>
<ellipse fill="none" stroke="black" cx="2562.92" cy="-259.38" rx="181.95" ry="37.45"/>
<text text-anchor="middle" x="2562.92" y="-270.68" font-family="Times,serif" font-size="14.00">de</text>
<text text-anchor="middle" x="2562.92" y="-255.68" font-family="Times,serif" font-size="14.00">sps00 (prepn)</text>
<text text-anchor="middle" x="2562.92" y="-240.68" font-family="Times,serif" font-size="14.00">rep=no, t=no, r=no, m=no, c=no</text>
</g>
<!-- n17&#45;&gt;n18 -->
<g id="edge18" class="edge">
<title>n17&#45;&gt;n18</title>
<path fill="none" stroke="black" d="M2432.35,-334.86C2451.87,-323.73 2473.65,-311.3 2493.75,-299.84"/>
<polygon fill="black" stroke="black" points="2495.6,-302.81 2502.55,-294.82 2492.13,-296.73 2495.6,-302.81"/>
</g>
<!-- n19 -->
<g id="node20" class="node">
<title>n19</title>
<ellipse fill="none" stroke="black" cx="2562.92" cy="-148.43" rx="181.95" ry="37.45"/>
<text text-anchor="middle" x="2562.92" y="-159.73" font-family="Times,serif" font-size="14.00">Nueva</text>
<text text-anchor="middle" x="2562.92" y="-144.73" font-family="Times,serif" font-size="14.00">ncms000 (pobj)</text>
<text text-anchor="middle" x="2562.92" y="-129.73" font-family="Times,serif" font-size="14.00">rep=no, t=no, r=no, m=no, c=no</text>
</g>
<!-- n18&#45;&gt;n19 -->
<g id="edge19" class="edge">
<title>n18&#45;&gt;n19</title>
<path fill="none" stroke="black" d="M2562.92,-221.8C2562.92,-213.63 2562.92,-204.85 2562.92,-196.32"/>
<polygon fill="black" stroke="black" points="2566.42,-196.1 2562.92,-186.1 2559.42,-196.1 2566.42,-196.1"/>
</g>
<!-- n20 -->
<g id="node21" class="node">
<title>n20</title>
<ellipse fill="none" stroke="black" cx="2562.92" cy="-37.48" rx="181.95" ry="37.45"/>
<text text-anchor="middle" x="2562.92" y="-48.78" font-family="Times,serif" font-size="14.00">York</text>
<text text-anchor="middle" x="2562.92" y="-33.78" font-family="Times,serif" font-size="14.00">np00000 (appos)</text>
<text text-anchor="middle" x="2562.92" y="-18.78" font-family="Times,serif" font-size="14.00">rep=no, t=no, r=no, m=no, c=no</text>
</g>
<!-- n19&#45;&gt;n20 -->
<g id="edge20" class="edge">
<title>n19&#45;&gt;n20</title>
<path fill="none" stroke="black" d="M2562.92,-110.85C2562.92,-102.67 2562.92,-93.89 2562.92,-85.37"/>
<polygon fill="black" stroke="black" points="2566.42,-85.15 2562.92,-75.15 2559.42,-85.15 2566.42,-85.15"/>
</g>
</g>
</svg>
