<?xml version="1.0" encoding="UTF-8" standalone="no"?>
<!DOCTYPE svg PUBLIC "-//W3C//DTD SVG 1.1//EN"
 "http://www.w3.org/Graphics/SVG/1.1/DTD/svg11.dtd">
<!-- Generated by graphviz version 2.43.0 (0)
 -->
<!-- Title: tree Pages: 1 -->
<svg width="2295pt" height="527pt"
 viewBox="0.00 0.00 2295.45 526.77" xmlns="http://www.w3.org/2000/svg" xmlns:xlink="http://www.w3.org/1999/xlink">
<g id="graph0" class="graph" transform="scale(1 1) rotate(0) translate(4 522.77)">
<title>tree</title>
<polygon fill="white" stroke="transparent" points="-4,4 -4,-522.77 2291.45,-522.77 2291.45,4 -4,4"/>
<!-- n6 -->
<g id="node1" class="node">
<title>n6</title>
<ellipse fill="#98D2A5" stroke="black" cx="1136.73" cy="-481.29" rx="185.94" ry="37.45"/>
<text text-anchor="middle" x="1136.73" y="-492.59" font-family="Times,serif" font-size="14.00">terminaron</text>
<text text-anchor="middle" x="1136.73" y="-477.59" font-family="Times,serif" font-size="14.00">vmis3p0 (root)</text>
<text text-anchor="middle" x="1136.73" y="-462.59" font-family="Times,serif" font-size="14.00">rep=no, t=no, r=no, m=yes, c=no</text>
</g>
<!-- n1 -->
<g id="node2" class="node">
<title>n1</title>
<ellipse fill="none" stroke="black" cx="181.73" cy="-370.34" rx="181.95" ry="37.45"/>
<text text-anchor="middle" x="181.73" y="-381.64" font-family="Times,serif" font-size="14.00">Sin</text>
<text text-anchor="middle" x="181.73" y="-366.64" font-family="Times,serif" font-size="14.00">sps00 (advmod)</text>
<text text-anchor="middle" x="181.73" y="-351.64" font-family="Times,serif" font-size="14.00">rep=no, t=no, r=no, m=no, c=no</text>
</g>
<!-- n6&#45;&gt;n1 -->
<g id="edge1" class="edge">
<title>n6&#45;&gt;n1</title>
<path fill="none" stroke="black" d="M961.84,-468.48C806.43,-456.86 573.29,-436.64 371.73,-407.81 354.26,-405.32 335.97,-402.31 317.92,-399.1"/>
<polygon fill="black" stroke="black" points="318.38,-395.63 307.92,-397.3 317.14,-402.52 318.38,-395.63"/>
</g>
<!-- n3 -->
<g id="node3" class="node">
<title>n3</title>
<ellipse fill="none" stroke="black" cx="562.73" cy="-370.34" rx="181.95" ry="37.45"/>
<text text-anchor="middle" x="562.73" y="-381.64" font-family="Times,serif" font-size="14.00">,</text>
<text text-anchor="middle" x="562.73" y="-366.64" font-family="Times,serif" font-size="14.00">fc (punct)</text>
<text text-anchor="middle" x="562.73" y="-351.64" font-family="Times,serif" font-size="14.00">rep=no, t=no, r=no, m=no, c=no</text>
</g>
<!-- n6&#45;&gt;n3 -->
<g id="edge2" class="edge">
<title>n6&#45;&gt;n3</title>
<path fill="none" stroke="black" d="M1002.98,-455.15C929.17,-441.25 835.87,-423.64 752.73,-407.81 736.66,-404.75 719.83,-401.54 703.11,-398.34"/>
<polygon fill="black" stroke="black" points="703.77,-394.9 693.29,-396.46 702.45,-401.78 703.77,-394.9"/>
</g>
<!-- n4 -->
<g id="node4" class="node">
<title>n4</title>
<ellipse fill="none" stroke="black" cx="943.73" cy="-370.34" rx="181.95" ry="37.45"/>
<text text-anchor="middle" x="943.73" y="-381.64" font-family="Times,serif" font-size="14.00">ahí</text>
<text text-anchor="middle" x="943.73" y="-366.64" font-family="Times,serif" font-size="14.00">rg (advmod)</text>
<text text-anchor="middle" x="943.73" y="-351.64" font-family="Times,serif" font-size="14.00">rep=no, t=no, r=no, m=no, c=no</text>
</g>
<!-- n6&#45;&gt;n4 -->
<g id="edge3" class="edge">
<title>n6&#45;&gt;n4</title>
<path fill="none" stroke="black" d="M1075.66,-445.82C1055.94,-434.68 1033.93,-422.26 1013.62,-410.79"/>
<polygon fill="black" stroke="black" points="1015.16,-407.64 1004.73,-405.77 1011.71,-413.74 1015.16,-407.64"/>
</g>
<!-- n5 -->
<g id="node5" class="node">
<title>n5</title>
<ellipse fill="#98D2A5" stroke="black" cx="1329.73" cy="-370.34" rx="185.94" ry="37.45"/>
<text text-anchor="middle" x="1329.73" y="-381.64" font-family="Times,serif" font-size="14.00">no</text>
<text text-anchor="middle" x="1329.73" y="-366.64" font-family="Times,serif" font-size="14.00">rn (neg)</text>
<text text-anchor="middle" x="1329.73" y="-351.64" font-family="Times,serif" font-size="14.00">rep=no, t=no, r=no, m=yes, c=no</text>
</g>
<!-- n6&#45;&gt;n5 -->
<g id="edge4" class="edge">
<title>n6&#45;&gt;n5</title>
<path fill="none" stroke="black" d="M1197.79,-445.82C1217.51,-434.68 1239.53,-422.26 1259.84,-410.79"/>
<polygon fill="black" stroke="black" points="1261.74,-413.74 1268.73,-405.77 1258.3,-407.64 1261.74,-413.74"/>
</g>
<!-- n8 -->
<g id="node6" class="node">
<title>n8</title>
<ellipse fill="#98D2A5" stroke="black" cx="1719.73" cy="-370.34" rx="185.94" ry="37.45"/>
<text text-anchor="middle" x="1719.73" y="-381.64" font-family="Times,serif" font-size="14.00">acuerdos</text>
<text text-anchor="middle" x="1719.73" y="-366.64" font-family="Times,serif" font-size="14.00">ncmp000 (nsubj)</text>
<text text-anchor="middle" x="1719.73" y="-351.64" font-family="Times,serif" font-size="14.00">rep=no, t=no, r=no, m=yes, c=no</text>
</g>
<!-- n6&#45;&gt;n8 -->
<g id="edge5" class="edge">
<title>n6&#45;&gt;n8</title>
<path fill="none" stroke="black" d="M1270.95,-455.23C1345.67,-441.27 1440.36,-423.58 1524.73,-407.81 1541.21,-404.73 1558.48,-401.5 1575.64,-398.29"/>
<polygon fill="black" stroke="black" points="1576.54,-401.69 1585.72,-396.41 1575.25,-394.81 1576.54,-401.69"/>
</g>
<!-- n12 -->
<g id="node7" class="node">
<title>n12</title>
<ellipse fill="none" stroke="black" cx="2105.73" cy="-370.34" rx="181.95" ry="37.45"/>
<text text-anchor="middle" x="2105.73" y="-381.64" font-family="Times,serif" font-size="14.00">.</text>
<text text-anchor="middle" x="2105.73" y="-366.64" font-family="Times,serif" font-size="14.00">fp (punct)</text>
<text text-anchor="middle" x="2105.73" y="-351.64" font-family="Times,serif" font-size="14.00">rep=no, t=no, r=no, m=no, c=no</text>
</g>
<!-- n6&#45;&gt;n12 -->
<g id="edge6" class="edge">
<title>n6&#45;&gt;n12</title>
<path fill="none" stroke="black" d="M1312.25,-468.76C1470.3,-457.24 1708.73,-437.01 1914.73,-407.81 1932.35,-405.31 1950.82,-402.3 1969.04,-399.08"/>
<polygon fill="black" stroke="black" points="1969.9,-402.48 1979.13,-397.28 1968.67,-395.59 1969.9,-402.48"/>
</g>
<!-- n2 -->
<g id="node8" class="node">
<title>n2</title>
<ellipse fill="none" stroke="black" cx="181.73" cy="-259.38" rx="181.95" ry="37.45"/>
<text text-anchor="middle" x="181.73" y="-270.68" font-family="Times,serif" font-size="14.00">embargo</text>
<text text-anchor="middle" x="181.73" y="-255.68" font-family="Times,serif" font-size="14.00">ncmp000 (pobj)</text>
<text text-anchor="middle" x="181.73" y="-240.68" font-family="Times,serif" font-size="14.00">rep=no, t=no, r=no, m=no, c=no</text>
</g>
<!-- n1&#45;&gt;n2 -->
<g id="edge7" class="edge">
<title>n1&#45;&gt;n2</title>
<path fill="none" stroke="black" d="M181.73,-332.75C181.73,-324.58 181.73,-315.8 181.73,-307.27"/>
<polygon fill="black" stroke="black" points="185.23,-307.06 181.73,-297.06 178.23,-307.06 185.23,-307.06"/>
</g>
<!-- n7 -->
<g id="node9" class="node">
<title>n7</title>
<ellipse fill="#98D2A5" stroke="black" cx="1524.73" cy="-259.38" rx="185.94" ry="37.45"/>
<text text-anchor="middle" x="1524.73" y="-270.68" font-family="Times,serif" font-size="14.00">los</text>
<text text-anchor="middle" x="1524.73" y="-255.68" font-family="Times,serif" font-size="14.00">da0mp0 (det)</text>
<text text-anchor="middle" x="1524.73" y="-240.68" font-family="Times,serif" font-size="14.00">rep=no, t=no, r=no, m=yes, c=no</text>
</g>
<!-- n8&#45;&gt;n7 -->
<g id="edge8" class="edge">
<title>n8&#45;&gt;n7</title>
<path fill="none" stroke="black" d="M1658.03,-334.86C1638.1,-323.73 1615.86,-311.3 1595.34,-299.84"/>
<polygon fill="black" stroke="black" points="1596.8,-296.64 1586.36,-294.82 1593.38,-302.75 1596.8,-296.64"/>
</g>
<!-- n9 -->
<g id="node10" class="node">
<title>n9</title>
<ellipse fill="#98D2A5" stroke="black" cx="1914.73" cy="-259.38" rx="185.94" ry="37.45"/>
<text text-anchor="middle" x="1914.73" y="-270.68" font-family="Times,serif" font-size="14.00">entre</text>
<text text-anchor="middle" x="1914.73" y="-255.68" font-family="Times,serif" font-size="14.00">sps00 (prepn)</text>
<text text-anchor="middle" x="1914.73" y="-240.68" font-family="Times,serif" font-size="14.00">rep=no, t=no, r=no, m=yes, c=no</text>
</g>
<!-- n8&#45;&gt;n9 -->
<g id="edge9" class="edge">
<title>n8&#45;&gt;n9</title>
<path fill="none" stroke="black" d="M1781.43,-334.86C1801.35,-323.73 1823.59,-311.3 1844.11,-299.84"/>
<polygon fill="black" stroke="black" points="1846.07,-302.75 1853.09,-294.82 1842.66,-296.64 1846.07,-302.75"/>
</g>
<!-- n11 -->
<g id="node11" class="node">
<title>n11</title>
<ellipse fill="#98D2A5" stroke="black" cx="1914.73" cy="-148.43" rx="185.94" ry="37.45"/>
<text text-anchor="middle" x="1914.73" y="-159.73" font-family="Times,serif" font-size="14.00">empresas</text>
<text text-anchor="middle" x="1914.73" y="-144.73" font-family="Times,serif" font-size="14.00">ncfp000 (pobj)</text>
<text text-anchor="middle" x="1914.73" y="-129.73" font-family="Times,serif" font-size="14.00">rep=no, t=no, r=no, m=yes, c=no</text>
</g>
<!-- n9&#45;&gt;n11 -->
<g id="edge10" class="edge">
<title>n9&#45;&gt;n11</title>
<path fill="none" stroke="black" d="M1914.73,-221.8C1914.73,-213.63 1914.73,-204.85 1914.73,-196.32"/>
<polygon fill="black" stroke="black" points="1918.23,-196.1 1914.73,-186.1 1911.23,-196.1 1918.23,-196.1"/>
</g>
<!-- n10 -->
<g id="node12" class="node">
<title>n10</title>
<ellipse fill="#98D2A5" stroke="black" cx="1914.73" cy="-37.48" rx="185.94" ry="37.45"/>
<text text-anchor="middle" x="1914.73" y="-48.78" font-family="Times,serif" font-size="14.00">las</text>
<text text-anchor="middle" x="1914.73" y="-33.78" font-family="Times,serif" font-size="14.00">da0fp0 (det)</text>
<text text-anchor="middle" x="1914.73" y="-18.78" font-family="Times,serif" font-size="14.00">rep=no, t=no, r=no, m=yes, c=no</text>
</g>
<!-- n11&#45;&gt;n10 -->
<g id="edge11" class="edge">
<title>n11&#45;&gt;n10</title>
<path fill="none" stroke="black" d="M1914.73,-110.85C1914.73,-102.67 1914.73,-93.89 1914.73,-85.37"/>
<polygon fill="black" stroke="black" points="1918.23,-85.15 1914.73,-75.15 1911.23,-85.15 1918.23,-85.15"/>
</g>
</g>
</svg>
