<?xml version="1.0" encoding="UTF-8" standalone="no"?>
<!DOCTYPE svg PUBLIC "-//W3C//DTD SVG 1.1//EN"
 "http://www.w3.org/Graphics/SVG/1.1/DTD/svg11.dtd">
<!-- Generated by graphviz version 2.43.0 (0)
 -->
<!-- Title: tree Pages: 1 -->
<svg width="2792pt" height="527pt"
 viewBox="0.00 0.00 2791.65 526.77" xmlns="http://www.w3.org/2000/svg" xmlns:xlink="http://www.w3.org/1999/xlink">
<g id="graph0" class="graph" transform="scale(1 1) rotate(0) translate(4 522.77)">
<title>tree</title>
<polygon fill="white" stroke="transparent" points="-4,4 -4,-522.77 2787.65,-522.77 2787.65,4 -4,4"/>
<!-- n5 -->
<g id="node1" class="node">
<title>n5</title>
<ellipse fill="#98D2A5" stroke="black" cx="977.73" cy="-481.29" rx="190.84" ry="37.45"/>
<text text-anchor="middle" x="977.73" y="-492.59" font-family="Times,serif" font-size="14.00">es</text>
<text text-anchor="middle" x="977.73" y="-477.59" font-family="Times,serif" font-size="14.00">vsip3s0 (root)</text>
<text text-anchor="middle" x="977.73" y="-462.59" font-family="Times,serif" font-size="14.00">rep=no, t=no, r=yes, m=yes, c=no</text>
</g>
<!-- n1 -->
<g id="node2" class="node">
<title>n1</title>
<ellipse fill="none" stroke="black" cx="193.73" cy="-370.34" rx="181.95" ry="37.45"/>
<text text-anchor="middle" x="193.73" y="-381.64" font-family="Times,serif" font-size="14.00">Para</text>
<text text-anchor="middle" x="193.73" y="-366.64" font-family="Times,serif" font-size="14.00">sps00 (advcl)</text>
<text text-anchor="middle" x="193.73" y="-351.64" font-family="Times,serif" font-size="14.00">rep=no, t=no, r=no, m=no, c=no</text>
</g>
<!-- n5&#45;&gt;n1 -->
<g id="edge1" class="edge">
<title>n5&#45;&gt;n1</title>
<path fill="none" stroke="black" d="M813.08,-462.22C696.35,-448.82 536.15,-429.22 395.73,-407.81 376.2,-404.84 355.66,-401.44 335.46,-397.94"/>
<polygon fill="black" stroke="black" points="336.03,-394.49 325.57,-396.22 334.82,-401.38 336.03,-394.49"/>
</g>
<!-- n3 -->
<g id="node3" class="node">
<title>n3</title>
<ellipse fill="none" stroke="black" cx="586.73" cy="-370.34" rx="181.95" ry="37.45"/>
<text text-anchor="middle" x="586.73" y="-381.64" font-family="Times,serif" font-size="14.00">,</text>
<text text-anchor="middle" x="586.73" y="-366.64" font-family="Times,serif" font-size="14.00">fc (punct)</text>
<text text-anchor="middle" x="586.73" y="-351.64" font-family="Times,serif" font-size="14.00">rep=no, t=no, r=no, m=no, c=no</text>
</g>
<!-- n5&#45;&gt;n3 -->
<g id="edge2" class="edge">
<title>n5&#45;&gt;n3</title>
<path fill="none" stroke="black" d="M870.11,-450.3C818.07,-435.8 755.55,-418.38 702.49,-403.59"/>
<polygon fill="black" stroke="black" points="703.27,-400.18 692.7,-400.87 701.39,-406.92 703.27,-400.18"/>
</g>
<!-- n4 -->
<g id="node4" class="node">
<title>n4</title>
<ellipse fill="#98D2A5" stroke="black" cx="977.73" cy="-370.34" rx="190.84" ry="37.45"/>
<text text-anchor="middle" x="977.73" y="-381.64" font-family="Times,serif" font-size="14.00">esto</text>
<text text-anchor="middle" x="977.73" y="-366.64" font-family="Times,serif" font-size="14.00">pd0ns000 (nsubj)</text>
<text text-anchor="middle" x="977.73" y="-351.64" font-family="Times,serif" font-size="14.00">rep=no, t=yes, r=no, m=yes, c=no</text>
</g>
<!-- n5&#45;&gt;n4 -->
<g id="edge3" class="edge">
<title>n5&#45;&gt;n4</title>
<path fill="none" stroke="black" d="M977.73,-443.71C977.73,-435.53 977.73,-426.75 977.73,-418.23"/>
<polygon fill="black" stroke="black" points="981.23,-418.01 977.73,-408.01 974.23,-418.01 981.23,-418.01"/>
</g>
<!-- n8 -->
<g id="node5" class="node">
<title>n8</title>
<ellipse fill="#98D2A5" stroke="black" cx="1377.73" cy="-370.34" rx="190.84" ry="37.45"/>
<text text-anchor="middle" x="1377.73" y="-381.64" font-family="Times,serif" font-size="14.00">tendencia</text>
<text text-anchor="middle" x="1377.73" y="-366.64" font-family="Times,serif" font-size="14.00">ncfs000 (attr)</text>
<text text-anchor="middle" x="1377.73" y="-351.64" font-family="Times,serif" font-size="14.00">rep=no, t=no, r=yes, m=yes, c=no</text>
</g>
<!-- n5&#45;&gt;n8 -->
<g id="edge4" class="edge">
<title>n5&#45;&gt;n8</title>
<path fill="none" stroke="black" d="M1087.03,-450.52C1140.16,-436.04 1204.13,-418.62 1258.52,-403.81"/>
<polygon fill="black" stroke="black" points="1259.48,-407.17 1268.21,-401.17 1257.64,-400.42 1259.48,-407.17"/>
</g>
<!-- n18 -->
<g id="node6" class="node">
<title>n18</title>
<ellipse fill="none" stroke="black" cx="1768.73" cy="-370.34" rx="181.95" ry="37.45"/>
<text text-anchor="middle" x="1768.73" y="-381.64" font-family="Times,serif" font-size="14.00">.</text>
<text text-anchor="middle" x="1768.73" y="-366.64" font-family="Times,serif" font-size="14.00">fp (punct)</text>
<text text-anchor="middle" x="1768.73" y="-351.64" font-family="Times,serif" font-size="14.00">rep=no, t=no, r=no, m=no, c=no</text>
</g>
<!-- n5&#45;&gt;n18 -->
<g id="edge5" class="edge">
<title>n5&#45;&gt;n18</title>
<path fill="none" stroke="black" d="M1144.97,-463.19C1265.56,-450.11 1432.06,-430.49 1577.73,-407.81 1594.97,-405.13 1613.03,-402.04 1630.88,-398.82"/>
<polygon fill="black" stroke="black" points="1631.56,-402.26 1640.77,-397.03 1630.3,-395.37 1631.56,-402.26"/>
</g>
<!-- n2 -->
<g id="node7" class="node">
<title>n2</title>
<ellipse fill="none" stroke="black" cx="181.73" cy="-259.38" rx="181.95" ry="37.45"/>
<text text-anchor="middle" x="181.73" y="-270.68" font-family="Times,serif" font-size="14.00">Wallander</text>
<text text-anchor="middle" x="181.73" y="-255.68" font-family="Times,serif" font-size="14.00">np00000 (pobj)</text>
<text text-anchor="middle" x="181.73" y="-240.68" font-family="Times,serif" font-size="14.00">rep=no, t=no, r=no, m=no, c=no</text>
</g>
<!-- n1&#45;&gt;n2 -->
<g id="edge6" class="edge">
<title>n1&#45;&gt;n2</title>
<path fill="none" stroke="black" d="M189.7,-332.75C188.8,-324.58 187.83,-315.8 186.89,-307.27"/>
<polygon fill="black" stroke="black" points="190.34,-306.61 185.77,-297.06 183.38,-307.38 190.34,-306.61"/>
</g>
<!-- n6 -->
<g id="node8" class="node">
<title>n6</title>
<ellipse fill="#98D2A5" stroke="black" cx="572.73" cy="-259.38" rx="190.84" ry="37.45"/>
<text text-anchor="middle" x="572.73" y="-270.68" font-family="Times,serif" font-size="14.00">&quot;</text>
<text text-anchor="middle" x="572.73" y="-255.68" font-family="Times,serif" font-size="14.00">fe (punct)</text>
<text text-anchor="middle" x="572.73" y="-240.68" font-family="Times,serif" font-size="14.00">rep=no, t=no, r=yes, m=yes, c=no</text>
</g>
<!-- n8&#45;&gt;n6 -->
<g id="edge7" class="edge">
<title>n8&#45;&gt;n6</title>
<path fill="none" stroke="black" d="M1244.87,-343.35C1222.51,-339.48 1199.5,-335.81 1177.73,-332.86 998.65,-308.62 951.8,-321.1 772.73,-296.86 754.19,-294.35 734.75,-291.32 715.58,-288.08"/>
<polygon fill="black" stroke="black" points="716.03,-284.61 705.59,-286.37 714.85,-291.51 716.03,-284.61"/>
</g>
<!-- n7 -->
<g id="node9" class="node">
<title>n7</title>
<ellipse fill="#98D2A5" stroke="black" cx="972.73" cy="-259.38" rx="190.84" ry="37.45"/>
<text text-anchor="middle" x="972.73" y="-270.68" font-family="Times,serif" font-size="14.00">una</text>
<text text-anchor="middle" x="972.73" y="-255.68" font-family="Times,serif" font-size="14.00">di0fs0 (det)</text>
<text text-anchor="middle" x="972.73" y="-240.68" font-family="Times,serif" font-size="14.00">rep=no, t=no, r=yes, m=yes, c=no</text>
</g>
<!-- n8&#45;&gt;n7 -->
<g id="edge8" class="edge">
<title>n8&#45;&gt;n7</title>
<path fill="none" stroke="black" d="M1267.59,-339.71C1213.46,-325.14 1148.11,-307.56 1092.71,-292.66"/>
<polygon fill="black" stroke="black" points="1093.4,-289.22 1082.84,-290.01 1091.58,-295.98 1093.4,-289.22"/>
</g>
<!-- n9 -->
<g id="node10" class="node">
<title>n9</title>
<ellipse fill="#98D2A5" stroke="black" cx="1377.73" cy="-259.38" rx="195.74" ry="37.45"/>
<text text-anchor="middle" x="1377.73" y="-270.68" font-family="Times,serif" font-size="14.00">a</text>
<text text-anchor="middle" x="1377.73" y="-255.68" font-family="Times,serif" font-size="14.00">sps00 (prepn)</text>
<text text-anchor="middle" x="1377.73" y="-240.68" font-family="Times,serif" font-size="14.00">rep=no, t=no, r=yes, m=yes, c=yes</text>
</g>
<!-- n8&#45;&gt;n9 -->
<g id="edge9" class="edge">
<title>n8&#45;&gt;n9</title>
<path fill="none" stroke="black" d="M1377.73,-332.75C1377.73,-324.58 1377.73,-315.8 1377.73,-307.27"/>
<polygon fill="black" stroke="black" points="1381.23,-307.06 1377.73,-297.06 1374.23,-307.06 1381.23,-307.06"/>
</g>
<!-- n12 -->
<g id="node11" class="node">
<title>n12</title>
<ellipse fill="#98D2A5" stroke="black" cx="1782.73" cy="-259.38" rx="190.84" ry="37.45"/>
<text text-anchor="middle" x="1782.73" y="-270.68" font-family="Times,serif" font-size="14.00">y</text>
<text text-anchor="middle" x="1782.73" y="-255.68" font-family="Times,serif" font-size="14.00">cc (coord_fixed)</text>
<text text-anchor="middle" x="1782.73" y="-240.68" font-family="Times,serif" font-size="14.00">rep=no, t=no, r=yes, m=yes, c=no</text>
</g>
<!-- n8&#45;&gt;n12 -->
<g id="edge10" class="edge">
<title>n8&#45;&gt;n12</title>
<path fill="none" stroke="black" d="M1487.86,-339.71C1542,-325.14 1607.34,-307.56 1662.75,-292.66"/>
<polygon fill="black" stroke="black" points="1663.87,-295.98 1672.62,-290.01 1662.05,-289.22 1663.87,-295.98"/>
</g>
<!-- n13 -->
<g id="node12" class="node">
<title>n13</title>
<ellipse fill="#98D2A5" stroke="black" cx="2187.73" cy="-259.38" rx="195.74" ry="37.45"/>
<text text-anchor="middle" x="2187.73" y="-270.68" font-family="Times,serif" font-size="14.00">en</text>
<text text-anchor="middle" x="2187.73" y="-255.68" font-family="Times,serif" font-size="14.00">sps00 (prepn)</text>
<text text-anchor="middle" x="2187.73" y="-240.68" font-family="Times,serif" font-size="14.00">rep=no, t=no, r=yes, m=yes, c=yes</text>
</g>
<!-- n8&#45;&gt;n13 -->
<g id="edge11" class="edge">
<title>n8&#45;&gt;n13</title>
<path fill="none" stroke="black" d="M1510.59,-343.35C1532.94,-339.48 1555.95,-335.81 1577.73,-332.86 1756.8,-308.62 1803.6,-320.71 1982.73,-296.86 2001.81,-294.32 2021.82,-291.26 2041.56,-288"/>
<polygon fill="black" stroke="black" points="2042.24,-291.43 2051.53,-286.33 2041.09,-284.53 2042.24,-291.43"/>
</g>
<!-- n17 -->
<g id="node13" class="node">
<title>n17</title>
<ellipse fill="#98D2A5" stroke="black" cx="2592.73" cy="-259.38" rx="190.84" ry="37.45"/>
<text text-anchor="middle" x="2592.73" y="-270.68" font-family="Times,serif" font-size="14.00">&quot;</text>
<text text-anchor="middle" x="2592.73" y="-255.68" font-family="Times,serif" font-size="14.00">fe (punct)</text>
<text text-anchor="middle" x="2592.73" y="-240.68" font-family="Times,serif" font-size="14.00">rep=no, t=no, r=yes, m=yes, c=no</text>
</g>
<!-- n8&#45;&gt;n17 -->
<g id="edge12" class="edge">
<title>n8&#45;&gt;n17</title>
<path fill="none" stroke="black" d="M1508.06,-342.92C1531.19,-338.99 1555.1,-335.41 1577.73,-332.86 1938.02,-292.24 2032.43,-337.48 2392.73,-296.86 2412.08,-294.68 2432.38,-291.74 2452.32,-288.48"/>
<polygon fill="black" stroke="black" points="2453.11,-291.9 2462.39,-286.8 2451.95,-284.99 2453.11,-291.9"/>
</g>
<!-- n11 -->
<g id="node14" class="node">
<title>n11</title>
<ellipse fill="#98D2A5" stroke="black" cx="1377.73" cy="-148.43" rx="190.84" ry="37.45"/>
<text text-anchor="middle" x="1377.73" y="-159.73" font-family="Times,serif" font-size="14.00">plazo</text>
<text text-anchor="middle" x="1377.73" y="-144.73" font-family="Times,serif" font-size="14.00">ncms000 (pobj)</text>
<text text-anchor="middle" x="1377.73" y="-129.73" font-family="Times,serif" font-size="14.00">rep=no, t=no, r=yes, m=yes, c=no</text>
</g>
<!-- n9&#45;&gt;n11 -->
<g id="edge13" class="edge">
<title>n9&#45;&gt;n11</title>
<path fill="none" stroke="black" d="M1377.73,-221.8C1377.73,-213.63 1377.73,-204.85 1377.73,-196.32"/>
<polygon fill="black" stroke="black" points="1381.23,-196.1 1377.73,-186.1 1374.23,-196.1 1381.23,-196.1"/>
</g>
<!-- n16 -->
<g id="node16" class="node">
<title>n16</title>
<ellipse fill="#98D2A5" stroke="black" cx="2187.73" cy="-148.43" rx="190.84" ry="37.45"/>
<text text-anchor="middle" x="2187.73" y="-159.73" font-family="Times,serif" font-size="14.00">direcciones</text>
<text text-anchor="middle" x="2187.73" y="-144.73" font-family="Times,serif" font-size="14.00">ncfp000 (pobj)</text>
<text text-anchor="middle" x="2187.73" y="-129.73" font-family="Times,serif" font-size="14.00">rep=no, t=no, r=yes, m=yes, c=no</text>
</g>
<!-- n13&#45;&gt;n16 -->
<g id="edge15" class="edge">
<title>n13&#45;&gt;n16</title>
<path fill="none" stroke="black" d="M2187.73,-221.8C2187.73,-213.63 2187.73,-204.85 2187.73,-196.32"/>
<polygon fill="black" stroke="black" points="2191.23,-196.1 2187.73,-186.1 2184.23,-196.1 2191.23,-196.1"/>
</g>
<!-- n10 -->
<g id="node15" class="node">
<title>n10</title>
<ellipse fill="#98D2A5" stroke="black" cx="1377.73" cy="-37.48" rx="190.84" ry="37.45"/>
<text text-anchor="middle" x="1377.73" y="-48.78" font-family="Times,serif" font-size="14.00">largo</text>
<text text-anchor="middle" x="1377.73" y="-33.78" font-family="Times,serif" font-size="14.00">aq0ms0 (amod)</text>
<text text-anchor="middle" x="1377.73" y="-18.78" font-family="Times,serif" font-size="14.00">rep=no, t=no, r=yes, m=yes, c=no</text>
</g>
<!-- n11&#45;&gt;n10 -->
<g id="edge14" class="edge">
<title>n11&#45;&gt;n10</title>
<path fill="none" stroke="black" d="M1377.73,-110.85C1377.73,-102.67 1377.73,-93.89 1377.73,-85.37"/>
<polygon fill="black" stroke="black" points="1381.23,-85.15 1377.73,-75.15 1374.23,-85.15 1381.23,-85.15"/>
</g>
<!-- n14 -->
<g id="node17" class="node">
<title>n14</title>
<ellipse fill="#98D2A5" stroke="black" cx="1987.73" cy="-37.48" rx="190.84" ry="37.45"/>
<text text-anchor="middle" x="1987.73" y="-48.78" font-family="Times,serif" font-size="14.00">todas</text>
<text text-anchor="middle" x="1987.73" y="-33.78" font-family="Times,serif" font-size="14.00">di0fp0 (det)</text>
<text text-anchor="middle" x="1987.73" y="-18.78" font-family="Times,serif" font-size="14.00">rep=no, t=no, r=yes, m=yes, c=no</text>
</g>
<!-- n16&#45;&gt;n14 -->
<g id="edge16" class="edge">
<title>n16&#45;&gt;n14</title>
<path fill="none" stroke="black" d="M2124.45,-112.96C2103.92,-101.77 2080.99,-89.28 2059.87,-77.78"/>
<polygon fill="black" stroke="black" points="2061.39,-74.62 2050.94,-72.91 2058.05,-80.77 2061.39,-74.62"/>
</g>
<!-- n15 -->
<g id="node18" class="node">
<title>n15</title>
<ellipse fill="#98D2A5" stroke="black" cx="2387.73" cy="-37.48" rx="190.84" ry="37.45"/>
<text text-anchor="middle" x="2387.73" y="-48.78" font-family="Times,serif" font-size="14.00">las</text>
<text text-anchor="middle" x="2387.73" y="-33.78" font-family="Times,serif" font-size="14.00">da0fp0 (det)</text>
<text text-anchor="middle" x="2387.73" y="-18.78" font-family="Times,serif" font-size="14.00">rep=no, t=no, r=yes, m=yes, c=no</text>
</g>
<!-- n16&#45;&gt;n15 -->
<g id="edge17" class="edge">
<title>n16&#45;&gt;n15</title>
<path fill="none" stroke="black" d="M2251.01,-112.96C2271.54,-101.77 2294.46,-89.28 2315.58,-77.78"/>
<polygon fill="black" stroke="black" points="2317.41,-80.77 2324.51,-72.91 2314.06,-74.62 2317.41,-80.77"/>
</g>
</g>
</svg>
