<?xml version="1.0" encoding="UTF-8" standalone="no"?>
<!DOCTYPE svg PUBLIC "-//W3C//DTD SVG 1.1//EN"
 "http://www.w3.org/Graphics/SVG/1.1/DTD/svg11.dtd">
<!-- Generated by graphviz version 2.43.0 (0)
 -->
<!-- Title: tree Pages: 1 -->
<svg width="5340pt" height="1414pt"
 viewBox="0.00 0.00 5339.94 1414.39" xmlns="http://www.w3.org/2000/svg" xmlns:xlink="http://www.w3.org/1999/xlink">
<g id="graph0" class="graph" transform="scale(1 1) rotate(0) translate(4 1410.39)">
<title>tree</title>
<polygon fill="white" stroke="transparent" points="-4,4 -4,-1410.39 5335.94,-1410.39 5335.94,4 -4,4"/>
<!-- n9 -->
<g id="node1" class="node">
<title>n9</title>
<ellipse fill="#98D2A5" stroke="black" cx="2135.97" cy="-1368.92" rx="185.94" ry="37.45"/>
<text text-anchor="middle" x="2135.97" y="-1380.22" font-family="Times,serif" font-size="14.00">pero</text>
<text text-anchor="middle" x="2135.97" y="-1365.22" font-family="Times,serif" font-size="14.00">cc (root)</text>
<text text-anchor="middle" x="2135.97" y="-1350.22" font-family="Times,serif" font-size="14.00">rep=no, t=no, r=no, m=yes, c=no</text>
</g>
<!-- n3 -->
<g id="node2" class="node">
<title>n3</title>
<ellipse fill="#98D2A5" stroke="black" cx="770.97" cy="-1257.96" rx="185.94" ry="37.45"/>
<text text-anchor="middle" x="770.97" y="-1269.26" font-family="Times,serif" font-size="14.00">sabe</text>
<text text-anchor="middle" x="770.97" y="-1254.26" font-family="Times,serif" font-size="14.00">vmip3s0 (coord)</text>
<text text-anchor="middle" x="770.97" y="-1239.26" font-family="Times,serif" font-size="14.00">rep=no, t=no, r=no, m=yes, c=no</text>
</g>
<!-- n9&#45;&gt;n3 -->
<g id="edge1" class="edge">
<title>n9&#45;&gt;n3</title>
<path fill="none" stroke="black" d="M1964.82,-1354.26C1705.93,-1333.59 1216.96,-1294.56 952.23,-1273.43"/>
<polygon fill="black" stroke="black" points="952.38,-1269.93 942.13,-1272.63 951.82,-1276.91 952.38,-1269.93"/>
</g>
<!-- n20 -->
<g id="node3" class="node">
<title>n20</title>
<ellipse fill="#98D2A5" stroke="black" cx="2135.97" cy="-1257.96" rx="190.84" ry="37.45"/>
<text text-anchor="middle" x="2135.97" y="-1269.26" font-family="Times,serif" font-size="14.00">especula</text>
<text text-anchor="middle" x="2135.97" y="-1254.26" font-family="Times,serif" font-size="14.00">vmip3s0 (coord)</text>
<text text-anchor="middle" x="2135.97" y="-1239.26" font-family="Times,serif" font-size="14.00">rep=no, t=no, r=yes, m=yes, c=no</text>
</g>
<!-- n9&#45;&gt;n20 -->
<g id="edge2" class="edge">
<title>n9&#45;&gt;n20</title>
<path fill="none" stroke="black" d="M2135.97,-1331.33C2135.97,-1323.16 2135.97,-1314.38 2135.97,-1305.85"/>
<polygon fill="black" stroke="black" points="2139.47,-1305.64 2135.97,-1295.64 2132.47,-1305.64 2139.47,-1305.64"/>
</g>
<!-- n55 -->
<g id="node4" class="node">
<title>n55</title>
<ellipse fill="none" stroke="black" cx="2526.97" cy="-1257.96" rx="181.95" ry="37.45"/>
<text text-anchor="middle" x="2526.97" y="-1269.26" font-family="Times,serif" font-size="14.00">.</text>
<text text-anchor="middle" x="2526.97" y="-1254.26" font-family="Times,serif" font-size="14.00">fp (punct)</text>
<text text-anchor="middle" x="2526.97" y="-1239.26" font-family="Times,serif" font-size="14.00">rep=no, t=no, r=no, m=no, c=no</text>
</g>
<!-- n9&#45;&gt;n55 -->
<g id="edge3" class="edge">
<title>n9&#45;&gt;n55</title>
<path fill="none" stroke="black" d="M2242.81,-1338.14C2294.96,-1323.61 2357.79,-1306.1 2411.1,-1291.25"/>
<polygon fill="black" stroke="black" points="2412.24,-1294.57 2420.93,-1288.51 2410.36,-1287.82 2412.24,-1294.57"/>
</g>
<!-- n1 -->
<g id="node5" class="node">
<title>n1</title>
<ellipse fill="#98D2A5" stroke="black" cx="185.97" cy="-1147.01" rx="185.94" ry="37.45"/>
<text text-anchor="middle" x="185.97" y="-1158.31" font-family="Times,serif" font-size="14.00">No</text>
<text text-anchor="middle" x="185.97" y="-1143.31" font-family="Times,serif" font-size="14.00">rn (neg)</text>
<text text-anchor="middle" x="185.97" y="-1128.31" font-family="Times,serif" font-size="14.00">rep=no, t=no, r=no, m=yes, c=no</text>
</g>
<!-- n3&#45;&gt;n1 -->
<g id="edge4" class="edge">
<title>n3&#45;&gt;n1</title>
<path fill="none" stroke="black" d="M636.49,-1232.01C561.32,-1218.06 465.93,-1200.33 380.97,-1184.49 364.48,-1181.41 347.21,-1178.19 330.05,-1174.98"/>
<polygon fill="black" stroke="black" points="330.44,-1171.49 319.97,-1173.1 329.16,-1178.38 330.44,-1171.49"/>
</g>
<!-- n2 -->
<g id="node6" class="node">
<title>n2</title>
<ellipse fill="#98D2A5" stroke="black" cx="575.97" cy="-1147.01" rx="185.94" ry="37.45"/>
<text text-anchor="middle" x="575.97" y="-1158.31" font-family="Times,serif" font-size="14.00">se</text>
<text text-anchor="middle" x="575.97" y="-1143.31" font-family="Times,serif" font-size="14.00">p0000000 (reflec)</text>
<text text-anchor="middle" x="575.97" y="-1128.31" font-family="Times,serif" font-size="14.00">rep=no, t=no, r=no, m=yes, c=no</text>
</g>
<!-- n3&#45;&gt;n2 -->
<g id="edge5" class="edge">
<title>n3&#45;&gt;n2</title>
<path fill="none" stroke="black" d="M709.27,-1222.49C689.34,-1211.36 667.1,-1198.93 646.58,-1187.46"/>
<polygon fill="black" stroke="black" points="648.04,-1184.27 637.6,-1182.45 644.62,-1190.38 648.04,-1184.27"/>
</g>
<!-- n5 -->
<g id="node7" class="node">
<title>n5</title>
<ellipse fill="#98D2A5" stroke="black" cx="965.97" cy="-1147.01" rx="185.94" ry="37.45"/>
<text text-anchor="middle" x="965.97" y="-1158.31" font-family="Times,serif" font-size="14.00">cruzaron</text>
<text text-anchor="middle" x="965.97" y="-1143.31" font-family="Times,serif" font-size="14.00">vmis3p0 (dobj)</text>
<text text-anchor="middle" x="965.97" y="-1128.31" font-family="Times,serif" font-size="14.00">rep=no, t=no, r=no, m=yes, c=no</text>
</g>
<!-- n3&#45;&gt;n5 -->
<g id="edge6" class="edge">
<title>n3&#45;&gt;n5</title>
<path fill="none" stroke="black" d="M832.67,-1222.49C852.59,-1211.36 874.84,-1198.93 895.35,-1187.46"/>
<polygon fill="black" stroke="black" points="897.31,-1190.38 904.34,-1182.45 893.9,-1184.27 897.31,-1190.38"/>
</g>
<!-- n8 -->
<g id="node11" class="node">
<title>n8</title>
<ellipse fill="#98D2A5" stroke="black" cx="1355.97" cy="-1147.01" rx="185.94" ry="37.45"/>
<text text-anchor="middle" x="1355.97" y="-1158.31" font-family="Times,serif" font-size="14.00">,</text>
<text text-anchor="middle" x="1355.97" y="-1143.31" font-family="Times,serif" font-size="14.00">fc (punct)</text>
<text text-anchor="middle" x="1355.97" y="-1128.31" font-family="Times,serif" font-size="14.00">rep=no, t=no, r=no, m=yes, c=no</text>
</g>
<!-- n20&#45;&gt;n8 -->
<g id="edge10" class="edge">
<title>n20&#45;&gt;n8</title>
<path fill="none" stroke="black" d="M1970.43,-1239.21C1853.08,-1225.95 1692.04,-1206.4 1550.97,-1184.49 1533.45,-1181.77 1515.1,-1178.66 1496.95,-1175.45"/>
<polygon fill="black" stroke="black" points="1497.35,-1171.96 1486.89,-1173.65 1496.12,-1178.85 1497.35,-1171.96"/>
</g>
<!-- n10 -->
<g id="node12" class="node">
<title>n10</title>
<ellipse fill="#98D2A5" stroke="black" cx="1745.97" cy="-1147.01" rx="185.94" ry="37.45"/>
<text text-anchor="middle" x="1745.97" y="-1158.31" font-family="Times,serif" font-size="14.00">según</text>
<text text-anchor="middle" x="1745.97" y="-1143.31" font-family="Times,serif" font-size="14.00">sps00 (advcl)</text>
<text text-anchor="middle" x="1745.97" y="-1128.31" font-family="Times,serif" font-size="14.00">rep=no, t=no, r=no, m=yes, c=no</text>
</g>
<!-- n20&#45;&gt;n10 -->
<g id="edge11" class="edge">
<title>n20&#45;&gt;n10</title>
<path fill="none" stroke="black" d="M2028.37,-1226.9C1976.79,-1212.49 1914.93,-1195.21 1862.27,-1180.5"/>
<polygon fill="black" stroke="black" points="1863.12,-1177.1 1852.54,-1177.78 1861.23,-1183.85 1863.12,-1177.1"/>
</g>
<!-- n18 -->
<g id="node13" class="node">
<title>n18</title>
<ellipse fill="#98D2A5" stroke="black" cx="2135.97" cy="-1147.01" rx="185.94" ry="37.45"/>
<text text-anchor="middle" x="2135.97" y="-1158.31" font-family="Times,serif" font-size="14.00">,</text>
<text text-anchor="middle" x="2135.97" y="-1143.31" font-family="Times,serif" font-size="14.00">fc (punct)</text>
<text text-anchor="middle" x="2135.97" y="-1128.31" font-family="Times,serif" font-size="14.00">rep=no, t=no, r=no, m=yes, c=no</text>
</g>
<!-- n20&#45;&gt;n18 -->
<g id="edge12" class="edge">
<title>n20&#45;&gt;n18</title>
<path fill="none" stroke="black" d="M2135.97,-1220.38C2135.97,-1212.21 2135.97,-1203.43 2135.97,-1194.9"/>
<polygon fill="black" stroke="black" points="2139.47,-1194.68 2135.97,-1184.68 2132.47,-1194.68 2139.47,-1194.68"/>
</g>
<!-- n19 -->
<g id="node14" class="node">
<title>n19</title>
<ellipse fill="#98D2A5" stroke="black" cx="2530.97" cy="-1147.01" rx="190.84" ry="37.45"/>
<text text-anchor="middle" x="2530.97" y="-1158.31" font-family="Times,serif" font-size="14.00">Stanford</text>
<text text-anchor="middle" x="2530.97" y="-1143.31" font-family="Times,serif" font-size="14.00">np00000 (nsubj)</text>
<text text-anchor="middle" x="2530.97" y="-1128.31" font-family="Times,serif" font-size="14.00">rep=no, t=yes, r=no, m=yes, c=no</text>
</g>
<!-- n20&#45;&gt;n19 -->
<g id="edge13" class="edge">
<title>n20&#45;&gt;n19</title>
<path fill="none" stroke="black" d="M2244.43,-1227.05C2296.57,-1212.67 2359.18,-1195.4 2412.56,-1180.67"/>
<polygon fill="black" stroke="black" points="2413.7,-1183.99 2422.41,-1177.95 2411.84,-1177.24 2413.7,-1183.99"/>
</g>
<!-- n21 -->
<g id="node15" class="node">
<title>n21</title>
<ellipse fill="#98D2A5" stroke="black" cx="2930.97" cy="-1147.01" rx="190.84" ry="37.45"/>
<text text-anchor="middle" x="2930.97" y="-1158.31" font-family="Times,serif" font-size="14.00">con</text>
<text text-anchor="middle" x="2930.97" y="-1143.31" font-family="Times,serif" font-size="14.00">sps00 (prepv)</text>
<text text-anchor="middle" x="2930.97" y="-1128.31" font-family="Times,serif" font-size="14.00">rep=no, t=no, r=yes, m=yes, c=no</text>
</g>
<!-- n20&#45;&gt;n21 -->
<g id="edge14" class="edge">
<title>n20&#45;&gt;n21</title>
<path fill="none" stroke="black" d="M2268.83,-1231.01C2291.19,-1227.14 2314.2,-1223.46 2335.97,-1220.49 2510.63,-1196.65 2556.31,-1208.33 2730.97,-1184.49 2749.51,-1181.96 2768.94,-1178.91 2788.11,-1175.67"/>
<polygon fill="black" stroke="black" points="2788.84,-1179.1 2798.1,-1173.96 2787.66,-1172.2 2788.84,-1179.1"/>
</g>
<!-- n36 -->
<g id="node16" class="node">
<title>n36</title>
<ellipse fill="#98D2A5" stroke="black" cx="3521.97" cy="-1147.01" rx="185.94" ry="37.45"/>
<text text-anchor="middle" x="3521.97" y="-1158.31" font-family="Times,serif" font-size="14.00">porque</text>
<text text-anchor="middle" x="3521.97" y="-1143.31" font-family="Times,serif" font-size="14.00">cs (advcl)</text>
<text text-anchor="middle" x="3521.97" y="-1128.31" font-family="Times,serif" font-size="14.00">rep=no, t=no, r=no, m=yes, c=no</text>
</g>
<!-- n20&#45;&gt;n36 -->
<g id="edge15" class="edge">
<title>n20&#45;&gt;n36</title>
<path fill="none" stroke="black" d="M2266.3,-1230.57C2289.43,-1226.64 2313.35,-1223.05 2335.97,-1220.49 2687.42,-1180.66 2778.12,-1208.92 3130.97,-1184.49 3202.13,-1179.56 3280.44,-1172.57 3348.16,-1166.02"/>
<polygon fill="black" stroke="black" points="3348.89,-1169.46 3358.5,-1165.01 3348.21,-1162.5 3348.89,-1169.46"/>
</g>
<!-- n4 -->
<g id="node8" class="node">
<title>n4</title>
<ellipse fill="#98D2A5" stroke="black" cx="581.97" cy="-1036.06" rx="185.94" ry="37.45"/>
<text text-anchor="middle" x="581.97" y="-1047.36" font-family="Times,serif" font-size="14.00">cómo</text>
<text text-anchor="middle" x="581.97" y="-1032.36" font-family="Times,serif" font-size="14.00">pt000000 (dobj)</text>
<text text-anchor="middle" x="581.97" y="-1017.36" font-family="Times,serif" font-size="14.00">rep=no, t=no, r=no, m=yes, c=no</text>
</g>
<!-- n5&#45;&gt;n4 -->
<g id="edge7" class="edge">
<title>n5&#45;&gt;n4</title>
<path fill="none" stroke="black" d="M860.53,-1116.09C809.95,-1101.74 749.23,-1084.51 697.41,-1069.81"/>
<polygon fill="black" stroke="black" points="698.08,-1066.36 687.5,-1067 696.17,-1073.1 698.08,-1066.36"/>
</g>
<!-- n7 -->
<g id="node9" class="node">
<title>n7</title>
<ellipse fill="#98D2A5" stroke="black" cx="971.97" cy="-1036.06" rx="185.94" ry="37.45"/>
<text text-anchor="middle" x="971.97" y="-1047.36" font-family="Times,serif" font-size="14.00">Atlántico</text>
<text text-anchor="middle" x="971.97" y="-1032.36" font-family="Times,serif" font-size="14.00">np00000 (dobj)</text>
<text text-anchor="middle" x="971.97" y="-1017.36" font-family="Times,serif" font-size="14.00">rep=no, t=no, r=no, m=yes, c=no</text>
</g>
<!-- n5&#45;&gt;n7 -->
<g id="edge8" class="edge">
<title>n5&#45;&gt;n7</title>
<path fill="none" stroke="black" d="M967.98,-1109.43C968.43,-1101.25 968.92,-1092.47 969.39,-1083.95"/>
<polygon fill="black" stroke="black" points="972.89,-1083.91 969.95,-1073.73 965.9,-1083.52 972.89,-1083.91"/>
</g>
<!-- n6 -->
<g id="node10" class="node">
<title>n6</title>
<ellipse fill="#98D2A5" stroke="black" cx="971.97" cy="-925.1" rx="185.94" ry="37.45"/>
<text text-anchor="middle" x="971.97" y="-936.4" font-family="Times,serif" font-size="14.00">el</text>
<text text-anchor="middle" x="971.97" y="-921.4" font-family="Times,serif" font-size="14.00">da0ms0 (det)</text>
<text text-anchor="middle" x="971.97" y="-906.4" font-family="Times,serif" font-size="14.00">rep=no, t=no, r=no, m=yes, c=no</text>
</g>
<!-- n7&#45;&gt;n6 -->
<g id="edge9" class="edge">
<title>n7&#45;&gt;n6</title>
<path fill="none" stroke="black" d="M971.97,-998.47C971.97,-990.3 971.97,-981.52 971.97,-972.99"/>
<polygon fill="black" stroke="black" points="975.47,-972.78 971.97,-962.78 968.47,-972.78 975.47,-972.78"/>
</g>
<!-- n12 -->
<g id="node17" class="node">
<title>n12</title>
<ellipse fill="#98D2A5" stroke="black" cx="1745.97" cy="-1036.06" rx="190.84" ry="37.45"/>
<text text-anchor="middle" x="1745.97" y="-1047.36" font-family="Times,serif" font-size="14.00">conocimiento</text>
<text text-anchor="middle" x="1745.97" y="-1032.36" font-family="Times,serif" font-size="14.00">ncms000 (pobj)</text>
<text text-anchor="middle" x="1745.97" y="-1017.36" font-family="Times,serif" font-size="14.00">rep=yes, t=no, r=no, m=yes, c=no</text>
</g>
<!-- n10&#45;&gt;n12 -->
<g id="edge16" class="edge">
<title>n10&#45;&gt;n12</title>
<path fill="none" stroke="black" d="M1745.97,-1109.43C1745.97,-1101.25 1745.97,-1092.47 1745.97,-1083.95"/>
<polygon fill="black" stroke="black" points="1749.47,-1083.73 1745.97,-1073.73 1742.47,-1083.73 1749.47,-1083.73"/>
</g>
<!-- n22 -->
<g id="node24" class="node">
<title>n22</title>
<ellipse fill="#98D2A5" stroke="black" cx="2887.97" cy="-1036.06" rx="190.84" ry="37.45"/>
<text text-anchor="middle" x="2887.97" y="-1047.36" font-family="Times,serif" font-size="14.00">que</text>
<text text-anchor="middle" x="2887.97" y="-1032.36" font-family="Times,serif" font-size="14.00">cs (pobj)</text>
<text text-anchor="middle" x="2887.97" y="-1017.36" font-family="Times,serif" font-size="14.00">rep=no, t=no, r=yes, m=yes, c=no</text>
</g>
<!-- n21&#45;&gt;n22 -->
<g id="edge23" class="edge">
<title>n21&#45;&gt;n22</title>
<path fill="none" stroke="black" d="M2916.53,-1109.43C2913.2,-1100.98 2909.61,-1091.89 2906.14,-1083.1"/>
<polygon fill="black" stroke="black" points="2909.37,-1081.75 2902.44,-1073.73 2902.86,-1084.32 2909.37,-1081.75"/>
</g>
<!-- n37 -->
<g id="node38" class="node">
<title>n37</title>
<ellipse fill="#98D2A5" stroke="black" cx="3326.97" cy="-1036.06" rx="185.94" ry="37.45"/>
<text text-anchor="middle" x="3326.97" y="-1047.36" font-family="Times,serif" font-size="14.00">,</text>
<text text-anchor="middle" x="3326.97" y="-1032.36" font-family="Times,serif" font-size="14.00">fc (punct)</text>
<text text-anchor="middle" x="3326.97" y="-1017.36" font-family="Times,serif" font-size="14.00">rep=no, t=no, r=no, m=yes, c=no</text>
</g>
<!-- n36&#45;&gt;n37 -->
<g id="edge37" class="edge">
<title>n36&#45;&gt;n37</title>
<path fill="none" stroke="black" d="M3460.27,-1111.54C3440.34,-1100.4 3418.1,-1087.98 3397.58,-1076.51"/>
<polygon fill="black" stroke="black" points="3399.04,-1073.31 3388.6,-1071.49 3395.62,-1079.43 3399.04,-1073.31"/>
</g>
<!-- n45 -->
<g id="node39" class="node">
<title>n45</title>
<ellipse fill="#98D2A5" stroke="black" cx="3716.97" cy="-1036.06" rx="185.94" ry="37.45"/>
<text text-anchor="middle" x="3716.97" y="-1047.36" font-family="Times,serif" font-size="14.00">,</text>
<text text-anchor="middle" x="3716.97" y="-1032.36" font-family="Times,serif" font-size="14.00">fc (punct)</text>
<text text-anchor="middle" x="3716.97" y="-1017.36" font-family="Times,serif" font-size="14.00">rep=no, t=no, r=no, m=yes, c=no</text>
</g>
<!-- n36&#45;&gt;n45 -->
<g id="edge38" class="edge">
<title>n36&#45;&gt;n45</title>
<path fill="none" stroke="black" d="M3583.67,-1111.54C3603.59,-1100.4 3625.84,-1087.98 3646.35,-1076.51"/>
<polygon fill="black" stroke="black" points="3648.31,-1079.43 3655.34,-1071.49 3644.9,-1073.31 3648.31,-1079.43"/>
</g>
<!-- n48 -->
<g id="node40" class="node">
<title>n48</title>
<ellipse fill="#98D2A5" stroke="black" cx="4205.97" cy="-1036.06" rx="185.94" ry="37.45"/>
<text text-anchor="middle" x="4205.97" y="-1047.36" font-family="Times,serif" font-size="14.00">hubiera</text>
<text text-anchor="middle" x="4205.97" y="-1032.36" font-family="Times,serif" font-size="14.00">vasi3s0 (cobj)</text>
<text text-anchor="middle" x="4205.97" y="-1017.36" font-family="Times,serif" font-size="14.00">rep=no, t=no, r=no, m=yes, c=no</text>
</g>
<!-- n36&#45;&gt;n48 -->
<g id="edge39" class="edge">
<title>n36&#45;&gt;n48</title>
<path fill="none" stroke="black" d="M3665.77,-1123.1C3779.05,-1105.06 3936.61,-1079.96 4052.35,-1061.53"/>
<polygon fill="black" stroke="black" points="4053.03,-1064.96 4062.36,-1059.93 4051.93,-1058.05 4053.03,-1064.96"/>
</g>
<!-- n11 -->
<g id="node18" class="node">
<title>n11</title>
<ellipse fill="#98D2A5" stroke="black" cx="1387.97" cy="-925.1" rx="190.84" ry="37.45"/>
<text text-anchor="middle" x="1387.97" y="-936.4" font-family="Times,serif" font-size="14.00">su</text>
<text text-anchor="middle" x="1387.97" y="-921.4" font-family="Times,serif" font-size="14.00">dp3cs0 (poss)</text>
<text text-anchor="middle" x="1387.97" y="-906.4" font-family="Times,serif" font-size="14.00">rep=yes, t=no, r=no, m=yes, c=no</text>
</g>
<!-- n12&#45;&gt;n11 -->
<g id="edge17" class="edge">
<title>n12&#45;&gt;n11</title>
<path fill="none" stroke="black" d="M1644.82,-1004.27C1599.36,-990.44 1545.58,-974.07 1499.01,-959.9"/>
<polygon fill="black" stroke="black" points="1499.77,-956.47 1489.18,-956.91 1497.73,-963.17 1499.77,-956.47"/>
</g>
<!-- n13 -->
<g id="node19" class="node">
<title>n13</title>
<ellipse fill="#98D2A5" stroke="black" cx="1787.97" cy="-925.1" rx="190.84" ry="37.45"/>
<text text-anchor="middle" x="1787.97" y="-936.4" font-family="Times,serif" font-size="14.00">de</text>
<text text-anchor="middle" x="1787.97" y="-921.4" font-family="Times,serif" font-size="14.00">sps00 (prepn)</text>
<text text-anchor="middle" x="1787.97" y="-906.4" font-family="Times,serif" font-size="14.00">rep=yes, t=no, r=no, m=yes, c=no</text>
</g>
<!-- n12&#45;&gt;n13 -->
<g id="edge18" class="edge">
<title>n12&#45;&gt;n13</title>
<path fill="none" stroke="black" d="M1760.07,-998.47C1763.33,-990.03 1766.83,-980.94 1770.22,-972.15"/>
<polygon fill="black" stroke="black" points="1773.5,-973.36 1773.83,-962.78 1766.97,-970.85 1773.5,-973.36"/>
</g>
<!-- n14 -->
<g id="node20" class="node">
<title>n14</title>
<ellipse fill="#98D2A5" stroke="black" cx="1787.97" cy="-814.15" rx="190.84" ry="37.45"/>
<text text-anchor="middle" x="1787.97" y="-825.45" font-family="Times,serif" font-size="14.00">culturas</text>
<text text-anchor="middle" x="1787.97" y="-810.45" font-family="Times,serif" font-size="14.00">ncfp000 (pobj)</text>
<text text-anchor="middle" x="1787.97" y="-795.45" font-family="Times,serif" font-size="14.00">rep=yes, t=no, r=no, m=yes, c=no</text>
</g>
<!-- n13&#45;&gt;n14 -->
<g id="edge19" class="edge">
<title>n13&#45;&gt;n14</title>
<path fill="none" stroke="black" d="M1787.97,-887.52C1787.97,-879.35 1787.97,-870.57 1787.97,-862.04"/>
<polygon fill="black" stroke="black" points="1791.47,-861.82 1787.97,-851.82 1784.47,-861.82 1791.47,-861.82"/>
</g>
<!-- n15 -->
<g id="node21" class="node">
<title>n15</title>
<ellipse fill="#98D2A5" stroke="black" cx="1479.97" cy="-703.2" rx="190.84" ry="37.45"/>
<text text-anchor="middle" x="1479.97" y="-714.5" font-family="Times,serif" font-size="14.00">nativas</text>
<text text-anchor="middle" x="1479.97" y="-699.5" font-family="Times,serif" font-size="14.00">aq0fp0 (amod)</text>
<text text-anchor="middle" x="1479.97" y="-684.5" font-family="Times,serif" font-size="14.00">rep=yes, t=no, r=no, m=yes, c=no</text>
</g>
<!-- n14&#45;&gt;n15 -->
<g id="edge20" class="edge">
<title>n14&#45;&gt;n15</title>
<path fill="none" stroke="black" d="M1697.22,-781.05C1660.42,-768.03 1617.78,-752.95 1580.07,-739.61"/>
<polygon fill="black" stroke="black" points="1581.19,-736.29 1570.6,-736.26 1578.86,-742.89 1581.19,-736.29"/>
</g>
<!-- n16 -->
<g id="node22" class="node">
<title>n16</title>
<ellipse fill="#98D2A5" stroke="black" cx="1879.97" cy="-703.2" rx="190.84" ry="37.45"/>
<text text-anchor="middle" x="1879.97" y="-714.5" font-family="Times,serif" font-size="14.00">del</text>
<text text-anchor="middle" x="1879.97" y="-699.5" font-family="Times,serif" font-size="14.00">spcms (prepn)</text>
<text text-anchor="middle" x="1879.97" y="-684.5" font-family="Times,serif" font-size="14.00">rep=yes, t=no, r=no, m=yes, c=no</text>
</g>
<!-- n14&#45;&gt;n16 -->
<g id="edge21" class="edge">
<title>n14&#45;&gt;n16</title>
<path fill="none" stroke="black" d="M1818.6,-776.87C1826.36,-767.68 1834.78,-757.71 1842.82,-748.19"/>
<polygon fill="black" stroke="black" points="1845.69,-750.22 1849.47,-740.32 1840.34,-745.7 1845.69,-750.22"/>
</g>
<!-- n17 -->
<g id="node23" class="node">
<title>n17</title>
<ellipse fill="#98D2A5" stroke="black" cx="1879.97" cy="-592.24" rx="190.84" ry="37.45"/>
<text text-anchor="middle" x="1879.97" y="-603.54" font-family="Times,serif" font-size="14.00">Artico</text>
<text text-anchor="middle" x="1879.97" y="-588.54" font-family="Times,serif" font-size="14.00">np00000 (pobj)</text>
<text text-anchor="middle" x="1879.97" y="-573.54" font-family="Times,serif" font-size="14.00">rep=yes, t=no, r=no, m=yes, c=no</text>
</g>
<!-- n16&#45;&gt;n17 -->
<g id="edge22" class="edge">
<title>n16&#45;&gt;n17</title>
<path fill="none" stroke="black" d="M1879.97,-665.61C1879.97,-657.44 1879.97,-648.66 1879.97,-640.13"/>
<polygon fill="black" stroke="black" points="1883.47,-639.92 1879.97,-629.92 1876.47,-639.92 1883.47,-639.92"/>
</g>
<!-- n25 -->
<g id="node25" class="node">
<title>n25</title>
<ellipse fill="#98D2A5" stroke="black" cx="2876.97" cy="-925.1" rx="190.84" ry="37.45"/>
<text text-anchor="middle" x="2876.97" y="-936.4" font-family="Times,serif" font-size="14.00">pudieron</text>
<text text-anchor="middle" x="2876.97" y="-921.4" font-family="Times,serif" font-size="14.00">vmis3p0 (cobj)</text>
<text text-anchor="middle" x="2876.97" y="-906.4" font-family="Times,serif" font-size="14.00">rep=no, t=no, r=yes, m=yes, c=no</text>
</g>
<!-- n22&#45;&gt;n25 -->
<g id="edge24" class="edge">
<title>n22&#45;&gt;n25</title>
<path fill="none" stroke="black" d="M2884.28,-998.47C2883.45,-990.3 2882.56,-981.52 2881.7,-972.99"/>
<polygon fill="black" stroke="black" points="2885.16,-972.37 2880.67,-962.78 2878.19,-973.08 2885.16,-972.37"/>
</g>
<!-- n24 -->
<g id="node26" class="node">
<title>n24</title>
<ellipse fill="#98D2A5" stroke="black" cx="2469.97" cy="-814.15" rx="190.84" ry="37.45"/>
<text text-anchor="middle" x="2469.97" y="-825.45" font-family="Times,serif" font-size="14.00">solutrenses</text>
<text text-anchor="middle" x="2469.97" y="-810.45" font-family="Times,serif" font-size="14.00">ncmp000 (nsubj)</text>
<text text-anchor="middle" x="2469.97" y="-795.45" font-family="Times,serif" font-size="14.00">rep=no, t=no, r=yes, m=yes, c=no</text>
</g>
<!-- n25&#45;&gt;n24 -->
<g id="edge25" class="edge">
<title>n25&#45;&gt;n24</title>
<path fill="none" stroke="black" d="M2766.29,-894.48C2711.89,-879.91 2646.22,-862.33 2590.54,-847.43"/>
<polygon fill="black" stroke="black" points="2591.19,-843.98 2580.62,-844.77 2589.38,-850.74 2591.19,-843.98"/>
</g>
<!-- n26 -->
<g id="node27" class="node">
<title>n26</title>
<ellipse fill="#98D2A5" stroke="black" cx="2876.97" cy="-814.15" rx="190.84" ry="37.45"/>
<text text-anchor="middle" x="2876.97" y="-825.45" font-family="Times,serif" font-size="14.00">hacer</text>
<text text-anchor="middle" x="2876.97" y="-810.45" font-family="Times,serif" font-size="14.00">vmn0000 (dobj)</text>
<text text-anchor="middle" x="2876.97" y="-795.45" font-family="Times,serif" font-size="14.00">rep=no, t=no, r=yes, m=yes, c=no</text>
</g>
<!-- n25&#45;&gt;n26 -->
<g id="edge26" class="edge">
<title>n25&#45;&gt;n26</title>
<path fill="none" stroke="black" d="M2876.97,-887.52C2876.97,-879.35 2876.97,-870.57 2876.97,-862.04"/>
<polygon fill="black" stroke="black" points="2880.47,-861.82 2876.97,-851.82 2873.47,-861.82 2880.47,-861.82"/>
</g>
<!-- n23 -->
<g id="node28" class="node">
<title>n23</title>
<ellipse fill="#98D2A5" stroke="black" cx="2464.97" cy="-703.2" rx="190.84" ry="37.45"/>
<text text-anchor="middle" x="2464.97" y="-714.5" font-family="Times,serif" font-size="14.00">los</text>
<text text-anchor="middle" x="2464.97" y="-699.5" font-family="Times,serif" font-size="14.00">da0mp0 (det)</text>
<text text-anchor="middle" x="2464.97" y="-684.5" font-family="Times,serif" font-size="14.00">rep=no, t=no, r=yes, m=yes, c=no</text>
</g>
<!-- n24&#45;&gt;n23 -->
<g id="edge27" class="edge">
<title>n24&#45;&gt;n23</title>
<path fill="none" stroke="black" d="M2468.29,-776.57C2467.92,-768.39 2467.51,-759.61 2467.12,-751.09"/>
<polygon fill="black" stroke="black" points="2470.61,-750.7 2466.65,-740.87 2463.61,-751.02 2470.61,-750.7"/>
</g>
<!-- n28 -->
<g id="node29" class="node">
<title>n28</title>
<ellipse fill="#98D2A5" stroke="black" cx="2864.97" cy="-703.2" rx="190.84" ry="37.45"/>
<text text-anchor="middle" x="2864.97" y="-714.5" font-family="Times,serif" font-size="14.00">travesía</text>
<text text-anchor="middle" x="2864.97" y="-699.5" font-family="Times,serif" font-size="14.00">ncfs000 (dobj)</text>
<text text-anchor="middle" x="2864.97" y="-684.5" font-family="Times,serif" font-size="14.00">rep=no, t=no, r=yes, m=yes, c=no</text>
</g>
<!-- n26&#45;&gt;n28 -->
<g id="edge28" class="edge">
<title>n26&#45;&gt;n28</title>
<path fill="none" stroke="black" d="M2872.94,-776.57C2872.04,-768.39 2871.07,-759.61 2870.13,-751.09"/>
<polygon fill="black" stroke="black" points="2873.58,-750.43 2869.01,-740.87 2866.62,-751.19 2873.58,-750.43"/>
</g>
<!-- n29 -->
<g id="node30" class="node">
<title>n29</title>
<ellipse fill="#98D2A5" stroke="black" cx="3264.97" cy="-703.2" rx="190.84" ry="37.45"/>
<text text-anchor="middle" x="3264.97" y="-714.5" font-family="Times,serif" font-size="14.00">en</text>
<text text-anchor="middle" x="3264.97" y="-699.5" font-family="Times,serif" font-size="14.00">sps00 (prepv)</text>
<text text-anchor="middle" x="3264.97" y="-684.5" font-family="Times,serif" font-size="14.00">rep=no, t=no, r=yes, m=yes, c=no</text>
</g>
<!-- n26&#45;&gt;n29 -->
<g id="edge29" class="edge">
<title>n26&#45;&gt;n29</title>
<path fill="none" stroke="black" d="M2984.02,-783.09C3035.02,-768.77 3096.12,-751.61 3148.3,-736.96"/>
<polygon fill="black" stroke="black" points="3149.25,-740.33 3157.93,-734.25 3147.36,-733.59 3149.25,-740.33"/>
</g>
<!-- n27 -->
<g id="node31" class="node">
<title>n27</title>
<ellipse fill="#98D2A5" stroke="black" cx="2864.97" cy="-592.24" rx="190.84" ry="37.45"/>
<text text-anchor="middle" x="2864.97" y="-603.54" font-family="Times,serif" font-size="14.00">la</text>
<text text-anchor="middle" x="2864.97" y="-588.54" font-family="Times,serif" font-size="14.00">da0fs0 (det)</text>
<text text-anchor="middle" x="2864.97" y="-573.54" font-family="Times,serif" font-size="14.00">rep=no, t=no, r=yes, m=yes, c=no</text>
</g>
<!-- n28&#45;&gt;n27 -->
<g id="edge30" class="edge">
<title>n28&#45;&gt;n27</title>
<path fill="none" stroke="black" d="M2864.97,-665.61C2864.97,-657.44 2864.97,-648.66 2864.97,-640.13"/>
<polygon fill="black" stroke="black" points="2868.47,-639.92 2864.97,-629.92 2861.47,-639.92 2868.47,-639.92"/>
</g>
<!-- n30 -->
<g id="node32" class="node">
<title>n30</title>
<ellipse fill="#98D2A5" stroke="black" cx="3264.97" cy="-592.24" rx="190.84" ry="37.45"/>
<text text-anchor="middle" x="3264.97" y="-603.54" font-family="Times,serif" font-size="14.00">balsas</text>
<text text-anchor="middle" x="3264.97" y="-588.54" font-family="Times,serif" font-size="14.00">ncfp000 (pobj)</text>
<text text-anchor="middle" x="3264.97" y="-573.54" font-family="Times,serif" font-size="14.00">rep=no, t=no, r=yes, m=yes, c=no</text>
</g>
<!-- n29&#45;&gt;n30 -->
<g id="edge31" class="edge">
<title>n29&#45;&gt;n30</title>
<path fill="none" stroke="black" d="M3264.97,-665.61C3264.97,-657.44 3264.97,-648.66 3264.97,-640.13"/>
<polygon fill="black" stroke="black" points="3268.47,-639.92 3264.97,-629.92 3261.47,-639.92 3268.47,-639.92"/>
</g>
<!-- n31 -->
<g id="node33" class="node">
<title>n31</title>
<ellipse fill="#98D2A5" stroke="black" cx="3264.97" cy="-481.29" rx="190.84" ry="37.45"/>
<text text-anchor="middle" x="3264.97" y="-492.59" font-family="Times,serif" font-size="14.00">fabricadas</text>
<text text-anchor="middle" x="3264.97" y="-477.59" font-family="Times,serif" font-size="14.00">aq0fpp (amod)</text>
<text text-anchor="middle" x="3264.97" y="-462.59" font-family="Times,serif" font-size="14.00">rep=no, t=no, r=yes, m=yes, c=no</text>
</g>
<!-- n30&#45;&gt;n31 -->
<g id="edge32" class="edge">
<title>n30&#45;&gt;n31</title>
<path fill="none" stroke="black" d="M3264.97,-554.66C3264.97,-546.49 3264.97,-537.71 3264.97,-529.18"/>
<polygon fill="black" stroke="black" points="3268.47,-528.96 3264.97,-518.96 3261.47,-528.96 3268.47,-528.96"/>
</g>
<!-- n32 -->
<g id="node34" class="node">
<title>n32</title>
<ellipse fill="#98D2A5" stroke="black" cx="3264.97" cy="-370.34" rx="190.84" ry="37.45"/>
<text text-anchor="middle" x="3264.97" y="-381.64" font-family="Times,serif" font-size="14.00">con</text>
<text text-anchor="middle" x="3264.97" y="-366.64" font-family="Times,serif" font-size="14.00">sps00 (prepa)</text>
<text text-anchor="middle" x="3264.97" y="-351.64" font-family="Times,serif" font-size="14.00">rep=no, t=no, r=yes, m=yes, c=no</text>
</g>
<!-- n31&#45;&gt;n32 -->
<g id="edge33" class="edge">
<title>n31&#45;&gt;n32</title>
<path fill="none" stroke="black" d="M3264.97,-443.71C3264.97,-435.53 3264.97,-426.75 3264.97,-418.23"/>
<polygon fill="black" stroke="black" points="3268.47,-418.01 3264.97,-408.01 3261.47,-418.01 3268.47,-418.01"/>
</g>
<!-- n33 -->
<g id="node35" class="node">
<title>n33</title>
<ellipse fill="#98D2A5" stroke="black" cx="3264.97" cy="-259.38" rx="190.84" ry="37.45"/>
<text text-anchor="middle" x="3264.97" y="-270.68" font-family="Times,serif" font-size="14.00">pieles</text>
<text text-anchor="middle" x="3264.97" y="-255.68" font-family="Times,serif" font-size="14.00">ncfp000 (pobj)</text>
<text text-anchor="middle" x="3264.97" y="-240.68" font-family="Times,serif" font-size="14.00">rep=no, t=no, r=yes, m=yes, c=no</text>
</g>
<!-- n32&#45;&gt;n33 -->
<g id="edge34" class="edge">
<title>n32&#45;&gt;n33</title>
<path fill="none" stroke="black" d="M3264.97,-332.75C3264.97,-324.58 3264.97,-315.8 3264.97,-307.27"/>
<polygon fill="black" stroke="black" points="3268.47,-307.06 3264.97,-297.06 3261.47,-307.06 3268.47,-307.06"/>
</g>
<!-- n34 -->
<g id="node36" class="node">
<title>n34</title>
<ellipse fill="#98D2A5" stroke="black" cx="3264.97" cy="-148.43" rx="190.84" ry="37.45"/>
<text text-anchor="middle" x="3264.97" y="-159.73" font-family="Times,serif" font-size="14.00">de</text>
<text text-anchor="middle" x="3264.97" y="-144.73" font-family="Times,serif" font-size="14.00">sps00 (prepn)</text>
<text text-anchor="middle" x="3264.97" y="-129.73" font-family="Times,serif" font-size="14.00">rep=no, t=no, r=yes, m=yes, c=no</text>
</g>
<!-- n33&#45;&gt;n34 -->
<g id="edge35" class="edge">
<title>n33&#45;&gt;n34</title>
<path fill="none" stroke="black" d="M3264.97,-221.8C3264.97,-213.63 3264.97,-204.85 3264.97,-196.32"/>
<polygon fill="black" stroke="black" points="3268.47,-196.1 3264.97,-186.1 3261.47,-196.1 3268.47,-196.1"/>
</g>
<!-- n35 -->
<g id="node37" class="node">
<title>n35</title>
<ellipse fill="#98D2A5" stroke="black" cx="3264.97" cy="-37.48" rx="190.84" ry="37.45"/>
<text text-anchor="middle" x="3264.97" y="-48.78" font-family="Times,serif" font-size="14.00">animales</text>
<text text-anchor="middle" x="3264.97" y="-33.78" font-family="Times,serif" font-size="14.00">ncmp000 (pobj)</text>
<text text-anchor="middle" x="3264.97" y="-18.78" font-family="Times,serif" font-size="14.00">rep=no, t=no, r=yes, m=yes, c=no</text>
</g>
<!-- n34&#45;&gt;n35 -->
<g id="edge36" class="edge">
<title>n34&#45;&gt;n35</title>
<path fill="none" stroke="black" d="M3264.97,-110.85C3264.97,-102.67 3264.97,-93.89 3264.97,-85.37"/>
<polygon fill="black" stroke="black" points="3268.47,-85.15 3264.97,-75.15 3261.47,-85.15 3268.47,-85.15"/>
</g>
<!-- n38 -->
<g id="node41" class="node">
<title>n38</title>
<ellipse fill="#98D2A5" stroke="black" cx="4015.97" cy="-925.1" rx="185.94" ry="37.45"/>
<text text-anchor="middle" x="4015.97" y="-936.4" font-family="Times,serif" font-size="14.00">con</text>
<text text-anchor="middle" x="4015.97" y="-921.4" font-family="Times,serif" font-size="14.00">sps00 (prepv)</text>
<text text-anchor="middle" x="4015.97" y="-906.4" font-family="Times,serif" font-size="14.00">rep=no, t=no, r=no, m=yes, c=no</text>
</g>
<!-- n48&#45;&gt;n38 -->
<g id="edge40" class="edge">
<title>n48&#45;&gt;n38</title>
<path fill="none" stroke="black" d="M4145.85,-1000.58C4126.53,-989.5 4104.98,-977.14 4085.07,-965.73"/>
<polygon fill="black" stroke="black" points="4086.76,-962.66 4076.35,-960.73 4083.28,-968.74 4086.76,-962.66"/>
</g>
<!-- n47 -->
<g id="node42" class="node">
<title>n47</title>
<ellipse fill="#98D2A5" stroke="black" cx="4605.97" cy="-925.1" rx="185.94" ry="37.45"/>
<text text-anchor="middle" x="4605.97" y="-936.4" font-family="Times,serif" font-size="14.00">travesía</text>
<text text-anchor="middle" x="4605.97" y="-921.4" font-family="Times,serif" font-size="14.00">ncfs000 (nsubj)</text>
<text text-anchor="middle" x="4605.97" y="-906.4" font-family="Times,serif" font-size="14.00">rep=no, t=no, r=no, m=yes, c=no</text>
</g>
<!-- n48&#45;&gt;n47 -->
<g id="edge41" class="edge">
<title>n48&#45;&gt;n47</title>
<path fill="none" stroke="black" d="M4314.21,-1005.57C4367.91,-990.95 4432.87,-973.25 4487.85,-958.28"/>
<polygon fill="black" stroke="black" points="4488.91,-961.62 4497.64,-955.61 4487.07,-954.86 4488.91,-961.62"/>
</g>
<!-- n49 -->
<g id="node43" class="node">
<title>n49</title>
<ellipse fill="#98D2A5" stroke="black" cx="5095.97" cy="-925.1" rx="185.94" ry="37.45"/>
<text text-anchor="middle" x="5095.97" y="-936.4" font-family="Times,serif" font-size="14.00">podido</text>
<text text-anchor="middle" x="5095.97" y="-921.4" font-family="Times,serif" font-size="14.00">vmp00sm (vobj)</text>
<text text-anchor="middle" x="5095.97" y="-906.4" font-family="Times,serif" font-size="14.00">rep=no, t=no, r=no, m=yes, c=no</text>
</g>
<!-- n48&#45;&gt;n49 -->
<g id="edge42" class="edge">
<title>n48&#45;&gt;n49</title>
<path fill="none" stroke="black" d="M4363.2,-1015.98C4483.15,-1001.41 4652.49,-980.8 4800.97,-962.58 4842.7,-957.46 4887.74,-951.9 4929.77,-946.71"/>
<polygon fill="black" stroke="black" points="4930.32,-950.17 4939.82,-945.47 4929.46,-943.22 4930.32,-950.17"/>
</g>
<!-- n40 -->
<g id="node44" class="node">
<title>n40</title>
<ellipse fill="#98D2A5" stroke="black" cx="3570.97" cy="-814.15" rx="190.84" ry="37.45"/>
<text text-anchor="middle" x="3570.97" y="-825.45" font-family="Times,serif" font-size="14.00">tiempo</text>
<text text-anchor="middle" x="3570.97" y="-810.45" font-family="Times,serif" font-size="14.00">ncms000 (pobj)</text>
<text text-anchor="middle" x="3570.97" y="-795.45" font-family="Times,serif" font-size="14.00">rep=no, t=no, r=no, m=yes, c=yes</text>
</g>
<!-- n38&#45;&gt;n40 -->
<g id="edge43" class="edge">
<title>n38&#45;&gt;n40</title>
<path fill="none" stroke="black" d="M3900.21,-895.76C3838.25,-880.59 3761.8,-861.87 3698.18,-846.3"/>
<polygon fill="black" stroke="black" points="3698.63,-842.8 3688.08,-843.82 3696.96,-849.6 3698.63,-842.8"/>
</g>
<!-- n41 -->
<g id="node45" class="node">
<title>n41</title>
<ellipse fill="#98D2A5" stroke="black" cx="3965.97" cy="-814.15" rx="185.94" ry="37.45"/>
<text text-anchor="middle" x="3965.97" y="-825.45" font-family="Times,serif" font-size="14.00">y</text>
<text text-anchor="middle" x="3965.97" y="-810.45" font-family="Times,serif" font-size="14.00">cc (coord_fixed)</text>
<text text-anchor="middle" x="3965.97" y="-795.45" font-family="Times,serif" font-size="14.00">rep=no, t=no, r=no, m=yes, c=no</text>
</g>
<!-- n38&#45;&gt;n41 -->
<g id="edge44" class="edge">
<title>n38&#45;&gt;n41</title>
<path fill="none" stroke="black" d="M3999.18,-887.52C3995.26,-878.99 3991.05,-869.79 3986.97,-860.92"/>
<polygon fill="black" stroke="black" points="3990.15,-859.45 3982.8,-851.82 3983.79,-862.37 3990.15,-859.45"/>
</g>
<!-- n43 -->
<g id="node46" class="node">
<title>n43</title>
<ellipse fill="#98D2A5" stroke="black" cx="4360.97" cy="-814.15" rx="190.84" ry="37.45"/>
<text text-anchor="middle" x="4360.97" y="-825.45" font-family="Times,serif" font-size="14.00">corriente</text>
<text text-anchor="middle" x="4360.97" y="-810.45" font-family="Times,serif" font-size="14.00">ncfs000 (pobj)</text>
<text text-anchor="middle" x="4360.97" y="-795.45" font-family="Times,serif" font-size="14.00">rep=no, t=no, r=no, m=yes, c=yes</text>
</g>
<!-- n38&#45;&gt;n43 -->
<g id="edge45" class="edge">
<title>n38&#45;&gt;n43</title>
<path fill="none" stroke="black" d="M4113.91,-893.17C4157.15,-879.52 4208.14,-863.42 4252.53,-849.4"/>
<polygon fill="black" stroke="black" points="4253.7,-852.7 4262.19,-846.35 4251.6,-846.02 4253.7,-852.7"/>
</g>
<!-- n46 -->
<g id="node50" class="node">
<title>n46</title>
<ellipse fill="#98D2A5" stroke="black" cx="4755.97" cy="-814.15" rx="185.94" ry="37.45"/>
<text text-anchor="middle" x="4755.97" y="-825.45" font-family="Times,serif" font-size="14.00">la</text>
<text text-anchor="middle" x="4755.97" y="-810.45" font-family="Times,serif" font-size="14.00">da0fs0 (det)</text>
<text text-anchor="middle" x="4755.97" y="-795.45" font-family="Times,serif" font-size="14.00">rep=no, t=no, r=no, m=yes, c=no</text>
</g>
<!-- n47&#45;&gt;n46 -->
<g id="edge49" class="edge">
<title>n47&#45;&gt;n46</title>
<path fill="none" stroke="black" d="M4654.67,-888.73C4668.83,-878.44 4684.42,-867.12 4699.04,-856.5"/>
<polygon fill="black" stroke="black" points="4701.48,-859.06 4707.51,-850.35 4697.36,-853.39 4701.48,-859.06"/>
</g>
<!-- n50 -->
<g id="node51" class="node">
<title>n50</title>
<ellipse fill="#98D2A5" stroke="black" cx="5145.97" cy="-814.15" rx="185.94" ry="37.45"/>
<text text-anchor="middle" x="5145.97" y="-825.45" font-family="Times,serif" font-size="14.00">hacerse</text>
<text text-anchor="middle" x="5145.97" y="-810.45" font-family="Times,serif" font-size="14.00">vmn0000 (vobj)</text>
<text text-anchor="middle" x="5145.97" y="-795.45" font-family="Times,serif" font-size="14.00">rep=no, t=no, r=no, m=yes, c=no</text>
</g>
<!-- n49&#45;&gt;n50 -->
<g id="edge50" class="edge">
<title>n49&#45;&gt;n50</title>
<path fill="none" stroke="black" d="M5112.76,-887.52C5116.67,-878.99 5120.89,-869.79 5124.97,-860.92"/>
<polygon fill="black" stroke="black" points="5128.15,-862.37 5129.14,-851.82 5121.79,-859.45 5128.15,-862.37"/>
</g>
<!-- n39 -->
<g id="node47" class="node">
<title>n39</title>
<ellipse fill="#98D2A5" stroke="black" cx="3659.97" cy="-703.2" rx="185.94" ry="37.45"/>
<text text-anchor="middle" x="3659.97" y="-714.5" font-family="Times,serif" font-size="14.00">buen</text>
<text text-anchor="middle" x="3659.97" y="-699.5" font-family="Times,serif" font-size="14.00">aq0ms0 (amod)</text>
<text text-anchor="middle" x="3659.97" y="-684.5" font-family="Times,serif" font-size="14.00">rep=no, t=no, r=no, m=yes, c=no</text>
</g>
<!-- n40&#45;&gt;n39 -->
<g id="edge46" class="edge">
<title>n40&#45;&gt;n39</title>
<path fill="none" stroke="black" d="M3600.6,-776.87C3608.11,-767.68 3616.25,-757.71 3624.03,-748.19"/>
<polygon fill="black" stroke="black" points="3626.85,-750.28 3630.46,-740.32 3621.43,-745.85 3626.85,-750.28"/>
</g>
<!-- n42 -->
<g id="node48" class="node">
<title>n42</title>
<ellipse fill="#98D2A5" stroke="black" cx="4205.97" cy="-703.2" rx="185.94" ry="37.45"/>
<text text-anchor="middle" x="4205.97" y="-714.5" font-family="Times,serif" font-size="14.00">una</text>
<text text-anchor="middle" x="4205.97" y="-699.5" font-family="Times,serif" font-size="14.00">di0fs0 (det)</text>
<text text-anchor="middle" x="4205.97" y="-684.5" font-family="Times,serif" font-size="14.00">rep=no, t=no, r=no, m=yes, c=no</text>
</g>
<!-- n43&#45;&gt;n42 -->
<g id="edge47" class="edge">
<title>n43&#45;&gt;n42</title>
<path fill="none" stroke="black" d="M4310.65,-777.78C4295.88,-767.4 4279.6,-755.96 4264.38,-745.25"/>
<polygon fill="black" stroke="black" points="4266.23,-742.28 4256.04,-739.39 4262.21,-748.01 4266.23,-742.28"/>
</g>
<!-- n44 -->
<g id="node49" class="node">
<title>n44</title>
<ellipse fill="#98D2A5" stroke="black" cx="4595.97" cy="-703.2" rx="185.94" ry="37.45"/>
<text text-anchor="middle" x="4595.97" y="-714.5" font-family="Times,serif" font-size="14.00">fuerte</text>
<text text-anchor="middle" x="4595.97" y="-699.5" font-family="Times,serif" font-size="14.00">aq0cs0 (amod)</text>
<text text-anchor="middle" x="4595.97" y="-684.5" font-family="Times,serif" font-size="14.00">rep=no, t=no, r=no, m=yes, c=no</text>
</g>
<!-- n43&#45;&gt;n44 -->
<g id="edge48" class="edge">
<title>n43&#45;&gt;n44</title>
<path fill="none" stroke="black" d="M4433.72,-779.42C4459.28,-767.57 4488.16,-754.18 4514.4,-742.01"/>
<polygon fill="black" stroke="black" points="4515.97,-745.15 4523.57,-737.76 4513.02,-738.8 4515.97,-745.15"/>
</g>
<!-- n51 -->
<g id="node52" class="node">
<title>n51</title>
<ellipse fill="#98D2A5" stroke="black" cx="5145.97" cy="-703.2" rx="185.94" ry="37.45"/>
<text text-anchor="middle" x="5145.97" y="-714.5" font-family="Times,serif" font-size="14.00">en</text>
<text text-anchor="middle" x="5145.97" y="-699.5" font-family="Times,serif" font-size="14.00">sps00 (cobj)</text>
<text text-anchor="middle" x="5145.97" y="-684.5" font-family="Times,serif" font-size="14.00">rep=no, t=no, r=no, m=yes, c=no</text>
</g>
<!-- n50&#45;&gt;n51 -->
<g id="edge51" class="edge">
<title>n50&#45;&gt;n51</title>
<path fill="none" stroke="black" d="M5145.97,-776.57C5145.97,-768.39 5145.97,-759.61 5145.97,-751.09"/>
<polygon fill="black" stroke="black" points="5149.47,-750.87 5145.97,-740.87 5142.47,-750.87 5149.47,-750.87"/>
</g>
<!-- n54 -->
<g id="node53" class="node">
<title>n54</title>
<ellipse fill="#98D2A5" stroke="black" cx="5145.97" cy="-592.24" rx="185.94" ry="37.45"/>
<text text-anchor="middle" x="5145.97" y="-603.54" font-family="Times,serif" font-size="14.00">mes</text>
<text text-anchor="middle" x="5145.97" y="-588.54" font-family="Times,serif" font-size="14.00">ncms000 (pobj)</text>
<text text-anchor="middle" x="5145.97" y="-573.54" font-family="Times,serif" font-size="14.00">rep=no, t=no, r=no, m=yes, c=no</text>
</g>
<!-- n51&#45;&gt;n54 -->
<g id="edge52" class="edge">
<title>n51&#45;&gt;n54</title>
<path fill="none" stroke="black" d="M5145.97,-665.61C5145.97,-657.44 5145.97,-648.66 5145.97,-640.13"/>
<polygon fill="black" stroke="black" points="5149.47,-639.92 5145.97,-629.92 5142.47,-639.92 5149.47,-639.92"/>
</g>
<!-- n53 -->
<g id="node54" class="node">
<title>n53</title>
<ellipse fill="#98D2A5" stroke="black" cx="5145.97" cy="-481.29" rx="185.94" ry="37.45"/>
<text text-anchor="middle" x="5145.97" y="-492.59" font-family="Times,serif" font-size="14.00">un</text>
<text text-anchor="middle" x="5145.97" y="-477.59" font-family="Times,serif" font-size="14.00">di0ms0 (det)</text>
<text text-anchor="middle" x="5145.97" y="-462.59" font-family="Times,serif" font-size="14.00">rep=no, t=no, r=no, m=yes, c=no</text>
</g>
<!-- n54&#45;&gt;n53 -->
<g id="edge53" class="edge">
<title>n54&#45;&gt;n53</title>
<path fill="none" stroke="black" d="M5145.97,-554.66C5145.97,-546.49 5145.97,-537.71 5145.97,-529.18"/>
<polygon fill="black" stroke="black" points="5149.47,-528.96 5145.97,-518.96 5142.47,-528.96 5149.47,-528.96"/>
</g>
<!-- n52 -->
<g id="node55" class="node">
<title>n52</title>
<ellipse fill="#98D2A5" stroke="black" cx="5145.97" cy="-370.34" rx="185.94" ry="37.45"/>
<text text-anchor="middle" x="5145.97" y="-381.64" font-family="Times,serif" font-size="14.00">apenas</text>
<text text-anchor="middle" x="5145.97" y="-366.64" font-family="Times,serif" font-size="14.00">rg (advmod)</text>
<text text-anchor="middle" x="5145.97" y="-351.64" font-family="Times,serif" font-size="14.00">rep=no, t=no, r=no, m=yes, c=no</text>
</g>
<!-- n53&#45;&gt;n52 -->
<g id="edge54" class="edge">
<title>n53&#45;&gt;n52</title>
<path fill="none" stroke="black" d="M5145.97,-443.71C5145.97,-435.53 5145.97,-426.75 5145.97,-418.23"/>
<polygon fill="black" stroke="black" points="5149.47,-418.01 5145.97,-408.01 5142.47,-418.01 5149.47,-418.01"/>
</g>
</g>
</svg>
