<?xml version="1.0" encoding="UTF-8" standalone="no"?>
<!DOCTYPE svg PUBLIC "-//W3C//DTD SVG 1.1//EN"
 "http://www.w3.org/Graphics/SVG/1.1/DTD/svg11.dtd">
<!-- Generated by graphviz version 2.43.0 (0)
 -->
<!-- Title: tree Pages: 1 -->
<svg width="3104pt" height="749pt"
 viewBox="0.00 0.00 3103.70 748.67" xmlns="http://www.w3.org/2000/svg" xmlns:xlink="http://www.w3.org/1999/xlink">
<g id="graph0" class="graph" transform="scale(1 1) rotate(0) translate(4 744.67)">
<title>tree</title>
<polygon fill="white" stroke="transparent" points="-4,4 -4,-744.67 3099.7,-744.67 3099.7,4 -4,4"/>
<!-- n12 -->
<g id="node1" class="node">
<title>n12</title>
<ellipse fill="#DA79E8" stroke="black" cx="1334.73" cy="-703.2" rx="190.84" ry="37.45"/>
<text text-anchor="middle" x="1334.73" y="-714.5" font-family="Times,serif" font-size="14.00">dibujó</text>
<text text-anchor="middle" x="1334.73" y="-699.5" font-family="Times,serif" font-size="14.00">vmis3s0 (root)</text>
<text text-anchor="middle" x="1334.73" y="-684.5" font-family="Times,serif" font-size="14.00">rep=no, t=no, r=yes, m=yes, c=no</text>
</g>
<!-- n1 -->
<g id="node2" class="node">
<title>n1</title>
<ellipse fill="none" stroke="black" cx="562.73" cy="-592.24" rx="181.95" ry="37.45"/>
<text text-anchor="middle" x="562.73" y="-603.54" font-family="Times,serif" font-size="14.00">Encima</text>
<text text-anchor="middle" x="562.73" y="-588.54" font-family="Times,serif" font-size="14.00">rg (advmod)</text>
<text text-anchor="middle" x="562.73" y="-573.54" font-family="Times,serif" font-size="14.00">rep=no, t=no, r=no, m=no, c=no</text>
</g>
<!-- n12&#45;&gt;n1 -->
<g id="edge1" class="edge">
<title>n12&#45;&gt;n1</title>
<path fill="none" stroke="black" d="M1169.06,-684.5C1052.38,-671.32 892.65,-651.84 752.73,-629.72 735.88,-627.06 718.24,-624.01 700.78,-620.85"/>
<polygon fill="black" stroke="black" points="701,-617.33 690.53,-618.97 699.74,-624.22 701,-617.33"/>
</g>
<!-- n10 -->
<g id="node3" class="node">
<title>n10</title>
<ellipse fill="none" stroke="black" cx="943.73" cy="-592.24" rx="181.95" ry="37.45"/>
<text text-anchor="middle" x="943.73" y="-603.54" font-family="Times,serif" font-size="14.00">,</text>
<text text-anchor="middle" x="943.73" y="-588.54" font-family="Times,serif" font-size="14.00">fc (punct)</text>
<text text-anchor="middle" x="943.73" y="-573.54" font-family="Times,serif" font-size="14.00">rep=no, t=no, r=no, m=no, c=no</text>
</g>
<!-- n12&#45;&gt;n10 -->
<g id="edge2" class="edge">
<title>n12&#45;&gt;n10</title>
<path fill="none" stroke="black" d="M1227.11,-672.21C1175.07,-657.71 1112.55,-640.29 1059.49,-625.5"/>
<polygon fill="black" stroke="black" points="1060.27,-622.08 1049.7,-622.77 1058.39,-628.83 1060.27,-622.08"/>
</g>
<!-- n11 -->
<g id="node4" class="node">
<title>n11</title>
<ellipse fill="#BEDA48" stroke="black" cx="1334.73" cy="-592.24" rx="190.84" ry="37.45"/>
<text text-anchor="middle" x="1334.73" y="-603.54" font-family="Times,serif" font-size="14.00">Cuixart</text>
<text text-anchor="middle" x="1334.73" y="-588.54" font-family="Times,serif" font-size="14.00">np00000 (nsubj)</text>
<text text-anchor="middle" x="1334.73" y="-573.54" font-family="Times,serif" font-size="14.00">rep=no, t=yes, r=no, m=yes, c=no</text>
</g>
<!-- n12&#45;&gt;n11 -->
<g id="edge3" class="edge">
<title>n12&#45;&gt;n11</title>
<path fill="none" stroke="black" d="M1334.73,-665.61C1334.73,-657.44 1334.73,-648.66 1334.73,-640.13"/>
<polygon fill="black" stroke="black" points="1338.23,-639.92 1334.73,-629.92 1331.23,-639.92 1338.23,-639.92"/>
</g>
<!-- n14 -->
<g id="node5" class="node">
<title>n14</title>
<ellipse fill="#DA79E8" stroke="black" cx="1734.73" cy="-592.24" rx="190.84" ry="37.45"/>
<text text-anchor="middle" x="1734.73" y="-603.54" font-family="Times,serif" font-size="14.00">grafismos</text>
<text text-anchor="middle" x="1734.73" y="-588.54" font-family="Times,serif" font-size="14.00">ncmp000 (dobj)</text>
<text text-anchor="middle" x="1734.73" y="-573.54" font-family="Times,serif" font-size="14.00">rep=no, t=no, r=yes, m=yes, c=no</text>
</g>
<!-- n12&#45;&gt;n14 -->
<g id="edge4" class="edge">
<title>n12&#45;&gt;n14</title>
<path fill="none" stroke="black" d="M1444.03,-672.42C1497.16,-657.95 1561.13,-640.53 1615.52,-625.71"/>
<polygon fill="black" stroke="black" points="1616.48,-629.08 1625.21,-623.07 1614.64,-622.32 1616.48,-629.08"/>
</g>
<!-- n26 -->
<g id="node6" class="node">
<title>n26</title>
<ellipse fill="none" stroke="black" cx="2125.73" cy="-592.24" rx="181.95" ry="37.45"/>
<text text-anchor="middle" x="2125.73" y="-603.54" font-family="Times,serif" font-size="14.00">.</text>
<text text-anchor="middle" x="2125.73" y="-588.54" font-family="Times,serif" font-size="14.00">fp (punct)</text>
<text text-anchor="middle" x="2125.73" y="-573.54" font-family="Times,serif" font-size="14.00">rep=no, t=no, r=no, m=no, c=no</text>
</g>
<!-- n12&#45;&gt;n26 -->
<g id="edge5" class="edge">
<title>n12&#45;&gt;n26</title>
<path fill="none" stroke="black" d="M1501.97,-685.1C1622.56,-672.02 1789.06,-652.4 1934.73,-629.72 1951.97,-627.04 1970.03,-623.95 1987.88,-620.73"/>
<polygon fill="black" stroke="black" points="1988.56,-624.17 1997.77,-618.93 1987.3,-617.28 1988.56,-624.17"/>
</g>
<!-- n2 -->
<g id="node7" class="node">
<title>n2</title>
<ellipse fill="none" stroke="black" cx="562.73" cy="-481.29" rx="181.95" ry="37.45"/>
<text text-anchor="middle" x="562.73" y="-492.59" font-family="Times,serif" font-size="14.00">de</text>
<text text-anchor="middle" x="562.73" y="-477.59" font-family="Times,serif" font-size="14.00">sps00 (prep)</text>
<text text-anchor="middle" x="562.73" y="-462.59" font-family="Times,serif" font-size="14.00">rep=no, t=no, r=no, m=no, c=no</text>
</g>
<!-- n1&#45;&gt;n2 -->
<g id="edge6" class="edge">
<title>n1&#45;&gt;n2</title>
<path fill="none" stroke="black" d="M562.73,-554.66C562.73,-546.49 562.73,-537.71 562.73,-529.18"/>
<polygon fill="black" stroke="black" points="566.23,-528.96 562.73,-518.96 559.23,-528.96 566.23,-528.96"/>
</g>
<!-- n13 -->
<g id="node15" class="node">
<title>n13</title>
<ellipse fill="#DA79E8" stroke="black" cx="1334.73" cy="-481.29" rx="190.84" ry="37.45"/>
<text text-anchor="middle" x="1334.73" y="-492.59" font-family="Times,serif" font-size="14.00">unos</text>
<text text-anchor="middle" x="1334.73" y="-477.59" font-family="Times,serif" font-size="14.00">di0mp0 (det)</text>
<text text-anchor="middle" x="1334.73" y="-462.59" font-family="Times,serif" font-size="14.00">rep=no, t=no, r=yes, m=yes, c=no</text>
</g>
<!-- n14&#45;&gt;n13 -->
<g id="edge14" class="edge">
<title>n14&#45;&gt;n13</title>
<path fill="none" stroke="black" d="M1625.42,-561.47C1572.29,-547 1508.32,-529.57 1453.93,-514.76"/>
<polygon fill="black" stroke="black" points="1454.81,-511.37 1444.24,-512.12 1452.97,-518.13 1454.81,-511.37"/>
</g>
<!-- n15 -->
<g id="node16" class="node">
<title>n15</title>
<ellipse fill="#DA79E8" stroke="black" cx="1734.73" cy="-481.29" rx="190.84" ry="37.45"/>
<text text-anchor="middle" x="1734.73" y="-492.59" font-family="Times,serif" font-size="14.00">en</text>
<text text-anchor="middle" x="1734.73" y="-477.59" font-family="Times,serif" font-size="14.00">sps00 (prepn)</text>
<text text-anchor="middle" x="1734.73" y="-462.59" font-family="Times,serif" font-size="14.00">rep=no, t=no, r=yes, m=yes, c=no</text>
</g>
<!-- n14&#45;&gt;n15 -->
<g id="edge15" class="edge">
<title>n14&#45;&gt;n15</title>
<path fill="none" stroke="black" d="M1734.73,-554.66C1734.73,-546.49 1734.73,-537.71 1734.73,-529.18"/>
<polygon fill="black" stroke="black" points="1738.23,-528.96 1734.73,-518.96 1731.23,-528.96 1738.23,-528.96"/>
</g>
<!-- n19 -->
<g id="node17" class="node">
<title>n19</title>
<ellipse fill="none" stroke="black" cx="2129.73" cy="-481.29" rx="185.94" ry="37.45"/>
<text text-anchor="middle" x="2129.73" y="-492.59" font-family="Times,serif" font-size="14.00">potenciaban</text>
<text text-anchor="middle" x="2129.73" y="-477.59" font-family="Times,serif" font-size="14.00">vmii3p0 (rcmod)</text>
<text text-anchor="middle" x="2129.73" y="-462.59" font-family="Times,serif" font-size="14.00">rep=no, t=no, r=no, m=yes, c=no</text>
</g>
<!-- n14&#45;&gt;n19 -->
<g id="edge16" class="edge">
<title>n14&#45;&gt;n19</title>
<path fill="none" stroke="black" d="M1843.18,-561.33C1895.65,-546.86 1958.71,-529.46 2012.3,-514.68"/>
<polygon fill="black" stroke="black" points="2013.49,-517.98 2022.19,-511.95 2011.62,-511.24 2013.49,-517.98"/>
</g>
<!-- n4 -->
<g id="node8" class="node">
<title>n4</title>
<ellipse fill="none" stroke="black" cx="562.73" cy="-370.34" rx="181.95" ry="37.45"/>
<text text-anchor="middle" x="562.73" y="-381.64" font-family="Times,serif" font-size="14.00">fotografías</text>
<text text-anchor="middle" x="562.73" y="-366.64" font-family="Times,serif" font-size="14.00">ncfp000 (pobj)</text>
<text text-anchor="middle" x="562.73" y="-351.64" font-family="Times,serif" font-size="14.00">rep=no, t=no, r=no, m=no, c=no</text>
</g>
<!-- n2&#45;&gt;n4 -->
<g id="edge7" class="edge">
<title>n2&#45;&gt;n4</title>
<path fill="none" stroke="black" d="M562.73,-443.71C562.73,-435.53 562.73,-426.75 562.73,-418.23"/>
<polygon fill="black" stroke="black" points="566.23,-418.01 562.73,-408.01 559.23,-418.01 566.23,-418.01"/>
</g>
<!-- n3 -->
<g id="node9" class="node">
<title>n3</title>
<ellipse fill="none" stroke="black" cx="181.73" cy="-259.38" rx="181.95" ry="37.45"/>
<text text-anchor="middle" x="181.73" y="-270.68" font-family="Times,serif" font-size="14.00">las</text>
<text text-anchor="middle" x="181.73" y="-255.68" font-family="Times,serif" font-size="14.00">da0fp0 (det)</text>
<text text-anchor="middle" x="181.73" y="-240.68" font-family="Times,serif" font-size="14.00">rep=no, t=no, r=no, m=no, c=no</text>
</g>
<!-- n4&#45;&gt;n3 -->
<g id="edge8" class="edge">
<title>n4&#45;&gt;n3</title>
<path fill="none" stroke="black" d="M458.62,-339.56C408.11,-325.12 347.33,-307.74 295.6,-292.95"/>
<polygon fill="black" stroke="black" points="296.29,-289.5 285.71,-290.12 294.36,-296.23 296.29,-289.5"/>
</g>
<!-- n5 -->
<g id="node10" class="node">
<title>n5</title>
<ellipse fill="none" stroke="black" cx="562.73" cy="-259.38" rx="181.95" ry="37.45"/>
<text text-anchor="middle" x="562.73" y="-270.68" font-family="Times,serif" font-size="14.00">ampliadas</text>
<text text-anchor="middle" x="562.73" y="-255.68" font-family="Times,serif" font-size="14.00">aq0fpp (amod)</text>
<text text-anchor="middle" x="562.73" y="-240.68" font-family="Times,serif" font-size="14.00">rep=no, t=no, r=no, m=no, c=no</text>
</g>
<!-- n4&#45;&gt;n5 -->
<g id="edge9" class="edge">
<title>n4&#45;&gt;n5</title>
<path fill="none" stroke="black" d="M562.73,-332.75C562.73,-324.58 562.73,-315.8 562.73,-307.27"/>
<polygon fill="black" stroke="black" points="566.23,-307.06 562.73,-297.06 559.23,-307.06 566.23,-307.06"/>
</g>
<!-- n6 -->
<g id="node11" class="node">
<title>n6</title>
<ellipse fill="none" stroke="black" cx="943.73" cy="-259.38" rx="181.95" ry="37.45"/>
<text text-anchor="middle" x="943.73" y="-270.68" font-family="Times,serif" font-size="14.00">de</text>
<text text-anchor="middle" x="943.73" y="-255.68" font-family="Times,serif" font-size="14.00">sps00 (prepn)</text>
<text text-anchor="middle" x="943.73" y="-240.68" font-family="Times,serif" font-size="14.00">rep=no, t=no, r=no, m=no, c=no</text>
</g>
<!-- n4&#45;&gt;n6 -->
<g id="edge10" class="edge">
<title>n4&#45;&gt;n6</title>
<path fill="none" stroke="black" d="M666.84,-339.56C717.34,-325.12 778.12,-307.74 829.86,-292.95"/>
<polygon fill="black" stroke="black" points="831.09,-296.23 839.74,-290.12 829.17,-289.5 831.09,-296.23"/>
</g>
<!-- n9 -->
<g id="node12" class="node">
<title>n9</title>
<ellipse fill="none" stroke="black" cx="943.73" cy="-148.43" rx="181.95" ry="37.45"/>
<text text-anchor="middle" x="943.73" y="-159.73" font-family="Times,serif" font-size="14.00">caras</text>
<text text-anchor="middle" x="943.73" y="-144.73" font-family="Times,serif" font-size="14.00">ncfp000 (pobj)</text>
<text text-anchor="middle" x="943.73" y="-129.73" font-family="Times,serif" font-size="14.00">rep=no, t=no, r=no, m=no, c=no</text>
</g>
<!-- n6&#45;&gt;n9 -->
<g id="edge11" class="edge">
<title>n6&#45;&gt;n9</title>
<path fill="none" stroke="black" d="M943.73,-221.8C943.73,-213.63 943.73,-204.85 943.73,-196.32"/>
<polygon fill="black" stroke="black" points="947.23,-196.1 943.73,-186.1 940.23,-196.1 947.23,-196.1"/>
</g>
<!-- n7 -->
<g id="node13" class="node">
<title>n7</title>
<ellipse fill="none" stroke="black" cx="753.73" cy="-37.48" rx="181.95" ry="37.45"/>
<text text-anchor="middle" x="753.73" y="-48.78" font-family="Times,serif" font-size="14.00">las</text>
<text text-anchor="middle" x="753.73" y="-33.78" font-family="Times,serif" font-size="14.00">da0fp0 (det)</text>
<text text-anchor="middle" x="753.73" y="-18.78" font-family="Times,serif" font-size="14.00">rep=no, t=no, r=no, m=no, c=no</text>
</g>
<!-- n9&#45;&gt;n7 -->
<g id="edge12" class="edge">
<title>n9&#45;&gt;n7</title>
<path fill="none" stroke="black" d="M883.61,-112.96C864.19,-101.82 842.52,-89.4 822.53,-77.93"/>
<polygon fill="black" stroke="black" points="824.19,-74.85 813.78,-72.91 820.71,-80.92 824.19,-74.85"/>
</g>
<!-- n8 -->
<g id="node14" class="node">
<title>n8</title>
<ellipse fill="none" stroke="black" cx="1134.73" cy="-37.48" rx="181.95" ry="37.45"/>
<text text-anchor="middle" x="1134.73" y="-48.78" font-family="Times,serif" font-size="14.00">cuatro</text>
<text text-anchor="middle" x="1134.73" y="-33.78" font-family="Times,serif" font-size="14.00">dn0cp0 (det)</text>
<text text-anchor="middle" x="1134.73" y="-18.78" font-family="Times,serif" font-size="14.00">rep=no, t=no, r=no, m=no, c=no</text>
</g>
<!-- n9&#45;&gt;n8 -->
<g id="edge13" class="edge">
<title>n9&#45;&gt;n8</title>
<path fill="none" stroke="black" d="M1004.16,-112.96C1023.68,-101.82 1045.46,-89.4 1065.56,-77.93"/>
<polygon fill="black" stroke="black" points="1067.41,-80.91 1074.36,-72.91 1063.94,-74.83 1067.41,-80.91"/>
</g>
<!-- n16 -->
<g id="node18" class="node">
<title>n16</title>
<ellipse fill="#DA79E8" stroke="black" cx="1734.73" cy="-370.34" rx="190.84" ry="37.45"/>
<text text-anchor="middle" x="1734.73" y="-381.64" font-family="Times,serif" font-size="14.00">tinta</text>
<text text-anchor="middle" x="1734.73" y="-366.64" font-family="Times,serif" font-size="14.00">ncfs000 (pobj)</text>
<text text-anchor="middle" x="1734.73" y="-351.64" font-family="Times,serif" font-size="14.00">rep=no, t=no, r=yes, m=yes, c=no</text>
</g>
<!-- n15&#45;&gt;n16 -->
<g id="edge17" class="edge">
<title>n15&#45;&gt;n16</title>
<path fill="none" stroke="black" d="M1734.73,-443.71C1734.73,-435.53 1734.73,-426.75 1734.73,-418.23"/>
<polygon fill="black" stroke="black" points="1738.23,-418.01 1734.73,-408.01 1731.23,-418.01 1738.23,-418.01"/>
</g>
<!-- n18 -->
<g id="node20" class="node">
<title>n18</title>
<ellipse fill="none" stroke="black" cx="2129.73" cy="-370.34" rx="185.94" ry="37.45"/>
<text text-anchor="middle" x="2129.73" y="-381.64" font-family="Times,serif" font-size="14.00">que</text>
<text text-anchor="middle" x="2129.73" y="-366.64" font-family="Times,serif" font-size="14.00">pr0cn000 (nsubj)</text>
<text text-anchor="middle" x="2129.73" y="-351.64" font-family="Times,serif" font-size="14.00">rep=no, t=no, r=no, m=yes, c=no</text>
</g>
<!-- n19&#45;&gt;n18 -->
<g id="edge19" class="edge">
<title>n19&#45;&gt;n18</title>
<path fill="none" stroke="black" d="M2129.73,-443.71C2129.73,-435.53 2129.73,-426.75 2129.73,-418.23"/>
<polygon fill="black" stroke="black" points="2133.23,-418.01 2129.73,-408.01 2126.23,-418.01 2133.23,-418.01"/>
</g>
<!-- n21 -->
<g id="node21" class="node">
<title>n21</title>
<ellipse fill="none" stroke="black" cx="2519.73" cy="-370.34" rx="185.94" ry="37.45"/>
<text text-anchor="middle" x="2519.73" y="-381.64" font-family="Times,serif" font-size="14.00">mensaje</text>
<text text-anchor="middle" x="2519.73" y="-366.64" font-family="Times,serif" font-size="14.00">ncms000 (dobj)</text>
<text text-anchor="middle" x="2519.73" y="-351.64" font-family="Times,serif" font-size="14.00">rep=no, t=no, r=no, m=yes, c=no</text>
</g>
<!-- n19&#45;&gt;n21 -->
<g id="edge20" class="edge">
<title>n19&#45;&gt;n21</title>
<path fill="none" stroke="black" d="M2236.3,-450.52C2288.1,-436.05 2350.47,-418.62 2403.5,-403.81"/>
<polygon fill="black" stroke="black" points="2404.6,-407.13 2413.29,-401.07 2402.71,-400.39 2404.6,-407.13"/>
</g>
<!-- n17 -->
<g id="node19" class="node">
<title>n17</title>
<ellipse fill="#DA79E8" stroke="black" cx="1734.73" cy="-259.38" rx="190.84" ry="37.45"/>
<text text-anchor="middle" x="1734.73" y="-270.68" font-family="Times,serif" font-size="14.00">china</text>
<text text-anchor="middle" x="1734.73" y="-255.68" font-family="Times,serif" font-size="14.00">aq0fs0 (amod)</text>
<text text-anchor="middle" x="1734.73" y="-240.68" font-family="Times,serif" font-size="14.00">rep=no, t=no, r=yes, m=yes, c=no</text>
</g>
<!-- n16&#45;&gt;n17 -->
<g id="edge18" class="edge">
<title>n16&#45;&gt;n17</title>
<path fill="none" stroke="black" d="M1734.73,-332.75C1734.73,-324.58 1734.73,-315.8 1734.73,-307.27"/>
<polygon fill="black" stroke="black" points="1738.23,-307.06 1734.73,-297.06 1731.23,-307.06 1738.23,-307.06"/>
</g>
<!-- n20 -->
<g id="node22" class="node">
<title>n20</title>
<ellipse fill="none" stroke="black" cx="2129.73" cy="-259.38" rx="185.94" ry="37.45"/>
<text text-anchor="middle" x="2129.73" y="-270.68" font-family="Times,serif" font-size="14.00">el</text>
<text text-anchor="middle" x="2129.73" y="-255.68" font-family="Times,serif" font-size="14.00">da0ms0 (det)</text>
<text text-anchor="middle" x="2129.73" y="-240.68" font-family="Times,serif" font-size="14.00">rep=no, t=no, r=no, m=yes, c=no</text>
</g>
<!-- n21&#45;&gt;n20 -->
<g id="edge21" class="edge">
<title>n21&#45;&gt;n20</title>
<path fill="none" stroke="black" d="M2413.16,-339.56C2361.35,-325.09 2298.98,-307.67 2245.95,-292.85"/>
<polygon fill="black" stroke="black" points="2246.74,-289.44 2236.17,-290.12 2244.86,-296.18 2246.74,-289.44"/>
</g>
<!-- n22 -->
<g id="node23" class="node">
<title>n22</title>
<ellipse fill="none" stroke="black" cx="2519.73" cy="-259.38" rx="185.94" ry="37.45"/>
<text text-anchor="middle" x="2519.73" y="-270.68" font-family="Times,serif" font-size="14.00">vanguardista</text>
<text text-anchor="middle" x="2519.73" y="-255.68" font-family="Times,serif" font-size="14.00">aq0cs0 (amod)</text>
<text text-anchor="middle" x="2519.73" y="-240.68" font-family="Times,serif" font-size="14.00">rep=no, t=no, r=no, m=yes, c=no</text>
</g>
<!-- n21&#45;&gt;n22 -->
<g id="edge22" class="edge">
<title>n21&#45;&gt;n22</title>
<path fill="none" stroke="black" d="M2519.73,-332.75C2519.73,-324.58 2519.73,-315.8 2519.73,-307.27"/>
<polygon fill="black" stroke="black" points="2523.23,-307.06 2519.73,-297.06 2516.23,-307.06 2523.23,-307.06"/>
</g>
<!-- n23 -->
<g id="node24" class="node">
<title>n23</title>
<ellipse fill="none" stroke="black" cx="2909.73" cy="-259.38" rx="185.94" ry="37.45"/>
<text text-anchor="middle" x="2909.73" y="-270.68" font-family="Times,serif" font-size="14.00">de</text>
<text text-anchor="middle" x="2909.73" y="-255.68" font-family="Times,serif" font-size="14.00">sps00 (prepn)</text>
<text text-anchor="middle" x="2909.73" y="-240.68" font-family="Times,serif" font-size="14.00">rep=no, t=no, r=no, m=yes, c=no</text>
</g>
<!-- n21&#45;&gt;n23 -->
<g id="edge23" class="edge">
<title>n21&#45;&gt;n23</title>
<path fill="none" stroke="black" d="M2626.3,-339.56C2678.1,-325.09 2740.47,-307.67 2793.5,-292.85"/>
<polygon fill="black" stroke="black" points="2794.6,-296.18 2803.29,-290.12 2792.71,-289.44 2794.6,-296.18"/>
</g>
<!-- n25 -->
<g id="node25" class="node">
<title>n25</title>
<ellipse fill="none" stroke="black" cx="2909.73" cy="-148.43" rx="185.94" ry="37.45"/>
<text text-anchor="middle" x="2909.73" y="-159.73" font-family="Times,serif" font-size="14.00">publicación</text>
<text text-anchor="middle" x="2909.73" y="-144.73" font-family="Times,serif" font-size="14.00">ncfs000 (pobj)</text>
<text text-anchor="middle" x="2909.73" y="-129.73" font-family="Times,serif" font-size="14.00">rep=no, t=no, r=no, m=yes, c=no</text>
</g>
<!-- n23&#45;&gt;n25 -->
<g id="edge24" class="edge">
<title>n23&#45;&gt;n25</title>
<path fill="none" stroke="black" d="M2909.73,-221.8C2909.73,-213.63 2909.73,-204.85 2909.73,-196.32"/>
<polygon fill="black" stroke="black" points="2913.23,-196.1 2909.73,-186.1 2906.23,-196.1 2913.23,-196.1"/>
</g>
<!-- n24 -->
<g id="node26" class="node">
<title>n24</title>
<ellipse fill="none" stroke="black" cx="2909.73" cy="-37.48" rx="185.94" ry="37.45"/>
<text text-anchor="middle" x="2909.73" y="-48.78" font-family="Times,serif" font-size="14.00">la</text>
<text text-anchor="middle" x="2909.73" y="-33.78" font-family="Times,serif" font-size="14.00">da0fs0 (det)</text>
<text text-anchor="middle" x="2909.73" y="-18.78" font-family="Times,serif" font-size="14.00">rep=no, t=no, r=no, m=yes, c=no</text>
</g>
<!-- n25&#45;&gt;n24 -->
<g id="edge25" class="edge">
<title>n25&#45;&gt;n24</title>
<path fill="none" stroke="black" d="M2909.73,-110.85C2909.73,-102.67 2909.73,-93.89 2909.73,-85.37"/>
<polygon fill="black" stroke="black" points="2913.23,-85.15 2909.73,-75.15 2906.23,-85.15 2913.23,-85.15"/>
</g>
</g>
</svg>
