<?xml version="1.0" encoding="UTF-8" standalone="no"?>
<!DOCTYPE svg PUBLIC "-//W3C//DTD SVG 1.1//EN"
 "http://www.w3.org/Graphics/SVG/1.1/DTD/svg11.dtd">
<!-- Generated by graphviz version 2.43.0 (0)
 -->
<!-- Title: tree Pages: 1 -->
<svg width="3603pt" height="1303pt"
 viewBox="0.00 0.00 3602.94 1303.44" xmlns="http://www.w3.org/2000/svg" xmlns:xlink="http://www.w3.org/1999/xlink">
<g id="graph0" class="graph" transform="scale(1 1) rotate(0) translate(4 1299.44)">
<title>tree</title>
<polygon fill="white" stroke="transparent" points="-4,4 -4,-1299.44 3598.94,-1299.44 3598.94,4 -4,4"/>
<!-- n6 -->
<g id="node1" class="node">
<title>n6</title>
<ellipse fill="none" stroke="black" cx="965.97" cy="-1257.96" rx="185.94" ry="37.45"/>
<text text-anchor="middle" x="965.97" y="-1269.26" font-family="Times,serif" font-size="14.00">y</text>
<text text-anchor="middle" x="965.97" y="-1254.26" font-family="Times,serif" font-size="14.00">cc (root)</text>
<text text-anchor="middle" x="965.97" y="-1239.26" font-family="Times,serif" font-size="14.00">rep=no, t=no, r=no, m=yes, c=no</text>
</g>
<!-- n1 -->
<g id="node2" class="node">
<title>n1</title>
<ellipse fill="none" stroke="black" cx="575.97" cy="-1147.01" rx="185.94" ry="37.45"/>
<text text-anchor="middle" x="575.97" y="-1158.31" font-family="Times,serif" font-size="14.00">Era</text>
<text text-anchor="middle" x="575.97" y="-1143.31" font-family="Times,serif" font-size="14.00">vsii3s0 (coord)</text>
<text text-anchor="middle" x="575.97" y="-1128.31" font-family="Times,serif" font-size="14.00">rep=no, t=no, r=no, m=yes, c=no</text>
</g>
<!-- n6&#45;&gt;n1 -->
<g id="edge1" class="edge">
<title>n6&#45;&gt;n1</title>
<path fill="none" stroke="black" d="M859.4,-1227.19C807.59,-1212.72 745.23,-1195.29 692.2,-1180.48"/>
<polygon fill="black" stroke="black" points="692.98,-1177.07 682.41,-1177.75 691.1,-1183.81 692.98,-1177.07"/>
</g>
<!-- n7 -->
<g id="node3" class="node">
<title>n7</title>
<ellipse fill="none" stroke="black" cx="965.97" cy="-1147.01" rx="185.94" ry="37.45"/>
<text text-anchor="middle" x="965.97" y="-1158.31" font-family="Times,serif" font-size="14.00">tiene</text>
<text text-anchor="middle" x="965.97" y="-1143.31" font-family="Times,serif" font-size="14.00">vmip3s0 (coord)</text>
<text text-anchor="middle" x="965.97" y="-1128.31" font-family="Times,serif" font-size="14.00">rep=no, t=no, r=no, m=yes, c=no</text>
</g>
<!-- n6&#45;&gt;n7 -->
<g id="edge2" class="edge">
<title>n6&#45;&gt;n7</title>
<path fill="none" stroke="black" d="M965.97,-1220.38C965.97,-1212.21 965.97,-1203.43 965.97,-1194.9"/>
<polygon fill="black" stroke="black" points="969.47,-1194.68 965.97,-1184.68 962.47,-1194.68 969.47,-1194.68"/>
</g>
<!-- n37 -->
<g id="node4" class="node">
<title>n37</title>
<ellipse fill="none" stroke="black" cx="1351.97" cy="-1147.01" rx="181.95" ry="37.45"/>
<text text-anchor="middle" x="1351.97" y="-1158.31" font-family="Times,serif" font-size="14.00">.</text>
<text text-anchor="middle" x="1351.97" y="-1143.31" font-family="Times,serif" font-size="14.00">fp (punct)</text>
<text text-anchor="middle" x="1351.97" y="-1128.31" font-family="Times,serif" font-size="14.00">rep=no, t=no, r=no, m=no, c=no</text>
</g>
<!-- n6&#45;&gt;n37 -->
<g id="edge3" class="edge">
<title>n6&#45;&gt;n37</title>
<path fill="none" stroke="black" d="M1071.7,-1227.12C1122.97,-1212.65 1184.65,-1195.24 1237.08,-1180.44"/>
<polygon fill="black" stroke="black" points="1238.08,-1183.79 1246.75,-1177.71 1236.18,-1177.06 1238.08,-1183.79"/>
</g>
<!-- n2 -->
<g id="node5" class="node">
<title>n2</title>
<ellipse fill="none" stroke="black" cx="575.97" cy="-1036.06" rx="185.94" ry="37.45"/>
<text text-anchor="middle" x="575.97" y="-1047.36" font-family="Times,serif" font-size="14.00">miembro</text>
<text text-anchor="middle" x="575.97" y="-1032.36" font-family="Times,serif" font-size="14.00">ncms000 (attr)</text>
<text text-anchor="middle" x="575.97" y="-1017.36" font-family="Times,serif" font-size="14.00">rep=no, t=no, r=no, m=yes, c=no</text>
</g>
<!-- n1&#45;&gt;n2 -->
<g id="edge4" class="edge">
<title>n1&#45;&gt;n2</title>
<path fill="none" stroke="black" d="M575.97,-1109.43C575.97,-1101.25 575.97,-1092.47 575.97,-1083.95"/>
<polygon fill="black" stroke="black" points="579.47,-1083.73 575.97,-1073.73 572.47,-1083.73 579.47,-1083.73"/>
</g>
<!-- n9 -->
<g id="node9" class="node">
<title>n9</title>
<ellipse fill="none" stroke="black" cx="1160.97" cy="-1036.06" rx="185.94" ry="37.45"/>
<text text-anchor="middle" x="1160.97" y="-1047.36" font-family="Times,serif" font-size="14.00">sala</text>
<text text-anchor="middle" x="1160.97" y="-1032.36" font-family="Times,serif" font-size="14.00">ncfs000 (dobj)</text>
<text text-anchor="middle" x="1160.97" y="-1017.36" font-family="Times,serif" font-size="14.00">rep=no, t=no, r=no, m=yes, c=no</text>
</g>
<!-- n7&#45;&gt;n9 -->
<g id="edge8" class="edge">
<title>n7&#45;&gt;n9</title>
<path fill="none" stroke="black" d="M1027.67,-1111.54C1047.59,-1100.4 1069.84,-1087.98 1090.35,-1076.51"/>
<polygon fill="black" stroke="black" points="1092.31,-1079.43 1099.34,-1071.49 1088.9,-1073.31 1092.31,-1079.43"/>
</g>
<!-- n3 -->
<g id="node6" class="node">
<title>n3</title>
<ellipse fill="none" stroke="black" cx="185.97" cy="-925.1" rx="185.94" ry="37.45"/>
<text text-anchor="middle" x="185.97" y="-936.4" font-family="Times,serif" font-size="14.00">de</text>
<text text-anchor="middle" x="185.97" y="-921.4" font-family="Times,serif" font-size="14.00">sps00 (prepn)</text>
<text text-anchor="middle" x="185.97" y="-906.4" font-family="Times,serif" font-size="14.00">rep=no, t=no, r=no, m=yes, c=no</text>
</g>
<!-- n2&#45;&gt;n3 -->
<g id="edge5" class="edge">
<title>n2&#45;&gt;n3</title>
<path fill="none" stroke="black" d="M469.4,-1005.28C417.59,-990.81 355.23,-973.39 302.2,-958.57"/>
<polygon fill="black" stroke="black" points="302.98,-955.16 292.41,-955.84 301.1,-961.9 302.98,-955.16"/>
</g>
<!-- n5 -->
<g id="node7" class="node">
<title>n5</title>
<ellipse fill="none" stroke="black" cx="185.97" cy="-814.15" rx="185.94" ry="37.45"/>
<text text-anchor="middle" x="185.97" y="-825.45" font-family="Times,serif" font-size="14.00">patronato</text>
<text text-anchor="middle" x="185.97" y="-810.45" font-family="Times,serif" font-size="14.00">ncms000 (pobj)</text>
<text text-anchor="middle" x="185.97" y="-795.45" font-family="Times,serif" font-size="14.00">rep=no, t=no, r=no, m=yes, c=no</text>
</g>
<!-- n3&#45;&gt;n5 -->
<g id="edge6" class="edge">
<title>n3&#45;&gt;n5</title>
<path fill="none" stroke="black" d="M185.97,-887.52C185.97,-879.35 185.97,-870.57 185.97,-862.04"/>
<polygon fill="black" stroke="black" points="189.47,-861.82 185.97,-851.82 182.47,-861.82 189.47,-861.82"/>
</g>
<!-- n4 -->
<g id="node8" class="node">
<title>n4</title>
<ellipse fill="none" stroke="black" cx="185.97" cy="-703.2" rx="185.94" ry="37.45"/>
<text text-anchor="middle" x="185.97" y="-714.5" font-family="Times,serif" font-size="14.00">su</text>
<text text-anchor="middle" x="185.97" y="-699.5" font-family="Times,serif" font-size="14.00">dp3cs0 (poss)</text>
<text text-anchor="middle" x="185.97" y="-684.5" font-family="Times,serif" font-size="14.00">rep=no, t=no, r=no, m=yes, c=no</text>
</g>
<!-- n5&#45;&gt;n4 -->
<g id="edge7" class="edge">
<title>n5&#45;&gt;n4</title>
<path fill="none" stroke="black" d="M185.97,-776.57C185.97,-768.39 185.97,-759.61 185.97,-751.09"/>
<polygon fill="black" stroke="black" points="189.47,-750.87 185.97,-740.87 182.47,-750.87 189.47,-750.87"/>
</g>
<!-- n8 -->
<g id="node10" class="node">
<title>n8</title>
<ellipse fill="none" stroke="black" cx="575.97" cy="-925.1" rx="185.94" ry="37.45"/>
<text text-anchor="middle" x="575.97" y="-936.4" font-family="Times,serif" font-size="14.00">una</text>
<text text-anchor="middle" x="575.97" y="-921.4" font-family="Times,serif" font-size="14.00">di0fs0 (det)</text>
<text text-anchor="middle" x="575.97" y="-906.4" font-family="Times,serif" font-size="14.00">rep=no, t=no, r=no, m=yes, c=no</text>
</g>
<!-- n9&#45;&gt;n8 -->
<g id="edge9" class="edge">
<title>n9&#45;&gt;n8</title>
<path fill="none" stroke="black" d="M1026.49,-1010.11C951.32,-996.15 855.93,-978.42 770.97,-962.58 754.48,-959.51 737.21,-956.28 720.05,-953.08"/>
<polygon fill="black" stroke="black" points="720.44,-949.59 709.97,-951.19 719.16,-956.47 720.44,-949.59"/>
</g>
<!-- n10 -->
<g id="node11" class="node">
<title>n10</title>
<ellipse fill="none" stroke="black" cx="965.97" cy="-925.1" rx="185.94" ry="37.45"/>
<text text-anchor="middle" x="965.97" y="-936.4" font-family="Times,serif" font-size="14.00">,</text>
<text text-anchor="middle" x="965.97" y="-921.4" font-family="Times,serif" font-size="14.00">fc (punct)</text>
<text text-anchor="middle" x="965.97" y="-906.4" font-family="Times,serif" font-size="14.00">rep=no, t=no, r=no, m=yes, c=no</text>
</g>
<!-- n9&#45;&gt;n10 -->
<g id="edge10" class="edge">
<title>n9&#45;&gt;n10</title>
<path fill="none" stroke="black" d="M1099.27,-1000.58C1079.34,-989.45 1057.1,-977.02 1036.58,-965.56"/>
<polygon fill="black" stroke="black" points="1038.04,-962.36 1027.6,-960.54 1034.62,-968.47 1038.04,-962.36"/>
</g>
<!-- n12 -->
<g id="node12" class="node">
<title>n12</title>
<ellipse fill="none" stroke="black" cx="1355.97" cy="-925.1" rx="185.94" ry="37.45"/>
<text text-anchor="middle" x="1355.97" y="-936.4" font-family="Times,serif" font-size="14.00">Brossa&#45;Frégoli</text>
<text text-anchor="middle" x="1355.97" y="-921.4" font-family="Times,serif" font-size="14.00">np00000 (appos)</text>
<text text-anchor="middle" x="1355.97" y="-906.4" font-family="Times,serif" font-size="14.00">rep=no, t=no, r=no, m=yes, c=no</text>
</g>
<!-- n9&#45;&gt;n12 -->
<g id="edge11" class="edge">
<title>n9&#45;&gt;n12</title>
<path fill="none" stroke="black" d="M1222.67,-1000.58C1242.59,-989.45 1264.84,-977.02 1285.35,-965.56"/>
<polygon fill="black" stroke="black" points="1287.31,-968.47 1294.34,-960.54 1283.9,-962.36 1287.31,-968.47"/>
</g>
<!-- n13 -->
<g id="node13" class="node">
<title>n13</title>
<ellipse fill="none" stroke="black" cx="1745.97" cy="-925.1" rx="185.94" ry="37.45"/>
<text text-anchor="middle" x="1745.97" y="-936.4" font-family="Times,serif" font-size="14.00">,</text>
<text text-anchor="middle" x="1745.97" y="-921.4" font-family="Times,serif" font-size="14.00">fc (punct)</text>
<text text-anchor="middle" x="1745.97" y="-906.4" font-family="Times,serif" font-size="14.00">rep=no, t=no, r=no, m=yes, c=no</text>
</g>
<!-- n9&#45;&gt;n13 -->
<g id="edge12" class="edge">
<title>n9&#45;&gt;n13</title>
<path fill="none" stroke="black" d="M1295.44,-1010.11C1370.62,-996.15 1466,-978.42 1550.97,-962.58 1567.46,-959.51 1584.73,-956.28 1601.88,-953.08"/>
<polygon fill="black" stroke="black" points="1602.78,-956.47 1611.97,-951.19 1601.49,-949.59 1602.78,-956.47"/>
</g>
<!-- n15 -->
<g id="node14" class="node">
<title>n15</title>
<ellipse fill="none" stroke="black" cx="2135.97" cy="-925.1" rx="185.94" ry="37.45"/>
<text text-anchor="middle" x="2135.97" y="-936.4" font-family="Times,serif" font-size="14.00">está</text>
<text text-anchor="middle" x="2135.97" y="-921.4" font-family="Times,serif" font-size="14.00">vmip3s0 (rcmod)</text>
<text text-anchor="middle" x="2135.97" y="-906.4" font-family="Times,serif" font-size="14.00">rep=no, t=no, r=no, m=yes, c=no</text>
</g>
<!-- n9&#45;&gt;n15 -->
<g id="edge13" class="edge">
<title>n9&#45;&gt;n15</title>
<path fill="none" stroke="black" d="M1336.15,-1023.42C1494.58,-1011.8 1734.05,-991.48 1940.97,-962.58 1958.97,-960.07 1977.83,-957.04 1996.44,-953.82"/>
<polygon fill="black" stroke="black" points="1997.2,-957.24 2006.44,-952.06 1995.99,-950.34 1997.2,-957.24"/>
</g>
<!-- n11 -->
<g id="node15" class="node">
<title>n11</title>
<ellipse fill="none" stroke="black" cx="1355.97" cy="-814.15" rx="185.94" ry="37.45"/>
<text text-anchor="middle" x="1355.97" y="-825.45" font-family="Times,serif" font-size="14.00">la</text>
<text text-anchor="middle" x="1355.97" y="-810.45" font-family="Times,serif" font-size="14.00">da0fs0 (det)</text>
<text text-anchor="middle" x="1355.97" y="-795.45" font-family="Times,serif" font-size="14.00">rep=no, t=no, r=no, m=yes, c=no</text>
</g>
<!-- n12&#45;&gt;n11 -->
<g id="edge14" class="edge">
<title>n12&#45;&gt;n11</title>
<path fill="none" stroke="black" d="M1355.97,-887.52C1355.97,-879.35 1355.97,-870.57 1355.97,-862.04"/>
<polygon fill="black" stroke="black" points="1359.47,-861.82 1355.97,-851.82 1352.47,-861.82 1359.47,-861.82"/>
</g>
<!-- n14 -->
<g id="node16" class="node">
<title>n14</title>
<ellipse fill="none" stroke="black" cx="1745.97" cy="-814.15" rx="185.94" ry="37.45"/>
<text text-anchor="middle" x="1745.97" y="-825.45" font-family="Times,serif" font-size="14.00">donde</text>
<text text-anchor="middle" x="1745.97" y="-810.45" font-family="Times,serif" font-size="14.00">pr000000 (dobj)</text>
<text text-anchor="middle" x="1745.97" y="-795.45" font-family="Times,serif" font-size="14.00">rep=no, t=no, r=no, m=yes, c=no</text>
</g>
<!-- n15&#45;&gt;n14 -->
<g id="edge15" class="edge">
<title>n15&#45;&gt;n14</title>
<path fill="none" stroke="black" d="M2029.4,-894.33C1977.59,-879.86 1915.23,-862.43 1862.2,-847.62"/>
<polygon fill="black" stroke="black" points="1862.98,-844.21 1852.41,-844.89 1861.1,-850.95 1862.98,-844.21"/>
</g>
<!-- n16 -->
<g id="node17" class="node">
<title>n16</title>
<ellipse fill="none" stroke="black" cx="2135.97" cy="-814.15" rx="185.94" ry="37.45"/>
<text text-anchor="middle" x="2135.97" y="-825.45" font-family="Times,serif" font-size="14.00">expuesta</text>
<text text-anchor="middle" x="2135.97" y="-810.45" font-family="Times,serif" font-size="14.00">aq0fsp (attr)</text>
<text text-anchor="middle" x="2135.97" y="-795.45" font-family="Times,serif" font-size="14.00">rep=no, t=no, r=no, m=yes, c=no</text>
</g>
<!-- n15&#45;&gt;n16 -->
<g id="edge16" class="edge">
<title>n15&#45;&gt;n16</title>
<path fill="none" stroke="black" d="M2135.97,-887.52C2135.97,-879.35 2135.97,-870.57 2135.97,-862.04"/>
<polygon fill="black" stroke="black" points="2139.47,-861.82 2135.97,-851.82 2132.47,-861.82 2139.47,-861.82"/>
</g>
<!-- n18 -->
<g id="node18" class="node">
<title>n18</title>
<ellipse fill="none" stroke="black" cx="2525.97" cy="-814.15" rx="185.94" ry="37.45"/>
<text text-anchor="middle" x="2525.97" y="-825.45" font-family="Times,serif" font-size="14.00">colección</text>
<text text-anchor="middle" x="2525.97" y="-810.45" font-family="Times,serif" font-size="14.00">ncfs000 (nsubj)</text>
<text text-anchor="middle" x="2525.97" y="-795.45" font-family="Times,serif" font-size="14.00">rep=no, t=no, r=no, m=yes, c=no</text>
</g>
<!-- n15&#45;&gt;n18 -->
<g id="edge17" class="edge">
<title>n15&#45;&gt;n18</title>
<path fill="none" stroke="black" d="M2242.54,-894.33C2294.34,-879.86 2356.71,-862.43 2409.74,-847.62"/>
<polygon fill="black" stroke="black" points="2410.84,-850.95 2419.53,-844.89 2408.96,-844.21 2410.84,-850.95"/>
</g>
<!-- n17 -->
<g id="node19" class="node">
<title>n17</title>
<ellipse fill="none" stroke="black" cx="2330.97" cy="-703.2" rx="185.94" ry="37.45"/>
<text text-anchor="middle" x="2330.97" y="-714.5" font-family="Times,serif" font-size="14.00">la</text>
<text text-anchor="middle" x="2330.97" y="-699.5" font-family="Times,serif" font-size="14.00">da0fs0 (det)</text>
<text text-anchor="middle" x="2330.97" y="-684.5" font-family="Times,serif" font-size="14.00">rep=no, t=no, r=no, m=yes, c=no</text>
</g>
<!-- n18&#45;&gt;n17 -->
<g id="edge18" class="edge">
<title>n18&#45;&gt;n17</title>
<path fill="none" stroke="black" d="M2464.27,-778.68C2444.34,-767.54 2422.1,-755.12 2401.58,-743.65"/>
<polygon fill="black" stroke="black" points="2403.04,-740.45 2392.6,-738.63 2399.62,-746.57 2403.04,-740.45"/>
</g>
<!-- n32 -->
<g id="node20" class="node">
<title>n32</title>
<ellipse fill="none" stroke="black" cx="2720.97" cy="-703.2" rx="185.94" ry="37.45"/>
<text text-anchor="middle" x="2720.97" y="-714.5" font-family="Times,serif" font-size="14.00">y</text>
<text text-anchor="middle" x="2720.97" y="-699.5" font-family="Times,serif" font-size="14.00">cc (coord_fixed)</text>
<text text-anchor="middle" x="2720.97" y="-684.5" font-family="Times,serif" font-size="14.00">rep=no, t=no, r=no, m=yes, c=no</text>
</g>
<!-- n18&#45;&gt;n32 -->
<g id="edge19" class="edge">
<title>n18&#45;&gt;n32</title>
<path fill="none" stroke="black" d="M2587.67,-778.68C2607.59,-767.54 2629.84,-755.12 2650.35,-743.65"/>
<polygon fill="black" stroke="black" points="2652.31,-746.57 2659.34,-738.63 2648.9,-740.45 2652.31,-746.57"/>
</g>
<!-- n26 -->
<g id="node21" class="node">
<title>n26</title>
<ellipse fill="#DA79E8" stroke="black" cx="2423.97" cy="-592.24" rx="190.84" ry="37.45"/>
<text text-anchor="middle" x="2423.97" y="-603.54" font-family="Times,serif" font-size="14.00">hizo</text>
<text text-anchor="middle" x="2423.97" y="-588.54" font-family="Times,serif" font-size="14.00">vmis3s0 (rcmod)</text>
<text text-anchor="middle" x="2423.97" y="-573.54" font-family="Times,serif" font-size="14.00">rep=no, t=no, r=yes, m=yes, c=no</text>
</g>
<!-- n32&#45;&gt;n26 -->
<g id="edge20" class="edge">
<title>n32&#45;&gt;n26</title>
<path fill="none" stroke="black" d="M2633.47,-670.1C2598.36,-657.22 2557.75,-642.32 2521.68,-629.09"/>
<polygon fill="black" stroke="black" points="2522.72,-625.74 2512.13,-625.58 2520.31,-632.31 2522.72,-625.74"/>
</g>
<!-- n34 -->
<g id="node22" class="node">
<title>n34</title>
<ellipse fill="none" stroke="black" cx="3018.97" cy="-592.24" rx="185.94" ry="37.45"/>
<text text-anchor="middle" x="3018.97" y="-603.54" font-family="Times,serif" font-size="14.00">cedió</text>
<text text-anchor="middle" x="3018.97" y="-588.54" font-family="Times,serif" font-size="14.00">vmis3s0 (rcmod)</text>
<text text-anchor="middle" x="3018.97" y="-573.54" font-family="Times,serif" font-size="14.00">rep=no, t=no, r=no, m=yes, c=no</text>
</g>
<!-- n32&#45;&gt;n34 -->
<g id="edge21" class="edge">
<title>n32&#45;&gt;n34</title>
<path fill="none" stroke="black" d="M2808.77,-670.1C2844.23,-657.13 2885.29,-642.12 2921.65,-628.82"/>
<polygon fill="black" stroke="black" points="2923.09,-632.02 2931.28,-625.3 2920.69,-625.45 2923.09,-632.02"/>
</g>
<!-- n19 -->
<g id="node23" class="node">
<title>n19</title>
<ellipse fill="none" stroke="black" cx="1828.97" cy="-481.29" rx="185.94" ry="37.45"/>
<text text-anchor="middle" x="1828.97" y="-492.59" font-family="Times,serif" font-size="14.00">que</text>
<text text-anchor="middle" x="1828.97" y="-477.59" font-family="Times,serif" font-size="14.00">pr0cn000 (dobj)</text>
<text text-anchor="middle" x="1828.97" y="-462.59" font-family="Times,serif" font-size="14.00">rep=no, t=no, r=no, m=yes, c=no</text>
</g>
<!-- n26&#45;&gt;n19 -->
<g id="edge22" class="edge">
<title>n26&#45;&gt;n19</title>
<path fill="none" stroke="black" d="M2285.56,-566.36C2208.52,-552.47 2110.9,-534.77 2023.97,-518.77 2007.4,-515.72 1990.05,-512.5 1972.82,-509.29"/>
<polygon fill="black" stroke="black" points="1973.17,-505.8 1962.69,-507.41 1971.88,-512.68 1973.17,-505.8"/>
</g>
<!-- n21 -->
<g id="node24" class="node">
<title>n21</title>
<ellipse fill="#BEDA48" stroke="black" cx="2223.97" cy="-481.29" rx="190.84" ry="37.45"/>
<text text-anchor="middle" x="2223.97" y="-492.59" font-family="Times,serif" font-size="14.00">poeta</text>
<text text-anchor="middle" x="2223.97" y="-477.59" font-family="Times,serif" font-size="14.00">ncms000 (nsubj)</text>
<text text-anchor="middle" x="2223.97" y="-462.59" font-family="Times,serif" font-size="14.00">rep=no, t=yes, r=no, m=yes, c=no</text>
</g>
<!-- n26&#45;&gt;n21 -->
<g id="edge23" class="edge">
<title>n26&#45;&gt;n21</title>
<path fill="none" stroke="black" d="M2360.69,-556.77C2340.16,-545.59 2317.23,-533.1 2296.11,-521.59"/>
<polygon fill="black" stroke="black" points="2297.64,-518.44 2287.18,-516.73 2294.29,-524.58 2297.64,-518.44"/>
</g>
<!-- n27 -->
<g id="node25" class="node">
<title>n27</title>
<ellipse fill="#DA79E8" stroke="black" cx="2623.97" cy="-481.29" rx="190.84" ry="37.45"/>
<text text-anchor="middle" x="2623.97" y="-492.59" font-family="Times,serif" font-size="14.00">sobre</text>
<text text-anchor="middle" x="2623.97" y="-477.59" font-family="Times,serif" font-size="14.00">sps00 (prepv)</text>
<text text-anchor="middle" x="2623.97" y="-462.59" font-family="Times,serif" font-size="14.00">rep=no, t=no, r=yes, m=yes, c=no</text>
</g>
<!-- n26&#45;&gt;n27 -->
<g id="edge24" class="edge">
<title>n26&#45;&gt;n27</title>
<path fill="none" stroke="black" d="M2487.25,-556.77C2507.78,-545.59 2530.7,-533.1 2551.83,-521.59"/>
<polygon fill="black" stroke="black" points="2553.65,-524.58 2560.76,-516.73 2550.3,-518.44 2553.65,-524.58"/>
</g>
<!-- n33 -->
<g id="node35" class="node">
<title>n33</title>
<ellipse fill="none" stroke="black" cx="3018.97" cy="-481.29" rx="185.94" ry="37.45"/>
<text text-anchor="middle" x="3018.97" y="-492.59" font-family="Times,serif" font-size="14.00">que</text>
<text text-anchor="middle" x="3018.97" y="-477.59" font-family="Times,serif" font-size="14.00">pr0cn000 (dobj)</text>
<text text-anchor="middle" x="3018.97" y="-462.59" font-family="Times,serif" font-size="14.00">rep=no, t=no, r=no, m=yes, c=no</text>
</g>
<!-- n34&#45;&gt;n33 -->
<g id="edge34" class="edge">
<title>n34&#45;&gt;n33</title>
<path fill="none" stroke="black" d="M3018.97,-554.66C3018.97,-546.49 3018.97,-537.71 3018.97,-529.18"/>
<polygon fill="black" stroke="black" points="3022.47,-528.96 3018.97,-518.96 3015.47,-528.96 3022.47,-528.96"/>
</g>
<!-- n35 -->
<g id="node36" class="node">
<title>n35</title>
<ellipse fill="none" stroke="black" cx="3408.97" cy="-481.29" rx="185.94" ry="37.45"/>
<text text-anchor="middle" x="3408.97" y="-492.59" font-family="Times,serif" font-size="14.00">al</text>
<text text-anchor="middle" x="3408.97" y="-477.59" font-family="Times,serif" font-size="14.00">spcms (iobj)</text>
<text text-anchor="middle" x="3408.97" y="-462.59" font-family="Times,serif" font-size="14.00">rep=no, t=no, r=no, m=yes, c=no</text>
</g>
<!-- n34&#45;&gt;n35 -->
<g id="edge35" class="edge">
<title>n34&#45;&gt;n35</title>
<path fill="none" stroke="black" d="M3125.54,-561.47C3177.34,-547 3239.71,-529.57 3292.74,-514.76"/>
<polygon fill="black" stroke="black" points="3293.84,-518.09 3302.53,-512.03 3291.96,-511.35 3293.84,-518.09"/>
</g>
<!-- n20 -->
<g id="node26" class="node">
<title>n20</title>
<ellipse fill="#BEDA48" stroke="black" cx="1823.97" cy="-370.34" rx="190.84" ry="37.45"/>
<text text-anchor="middle" x="1823.97" y="-381.64" font-family="Times,serif" font-size="14.00">el</text>
<text text-anchor="middle" x="1823.97" y="-366.64" font-family="Times,serif" font-size="14.00">da0ms0 (det)</text>
<text text-anchor="middle" x="1823.97" y="-351.64" font-family="Times,serif" font-size="14.00">rep=no, t=yes, r=no, m=yes, c=no</text>
</g>
<!-- n21&#45;&gt;n20 -->
<g id="edge25" class="edge">
<title>n21&#45;&gt;n20</title>
<path fill="none" stroke="black" d="M2114.67,-450.52C2061.53,-436.04 1997.56,-418.62 1943.17,-403.81"/>
<polygon fill="black" stroke="black" points="1944.05,-400.42 1933.49,-401.17 1942.21,-407.17 1944.05,-400.42"/>
</g>
<!-- n22 -->
<g id="node27" class="node">
<title>n22</title>
<ellipse fill="#BEDA48" stroke="black" cx="2223.97" cy="-370.34" rx="190.84" ry="37.45"/>
<text text-anchor="middle" x="2223.97" y="-381.64" font-family="Times,serif" font-size="14.00">enamorado</text>
<text text-anchor="middle" x="2223.97" y="-366.64" font-family="Times,serif" font-size="14.00">aq0msp (amod)</text>
<text text-anchor="middle" x="2223.97" y="-351.64" font-family="Times,serif" font-size="14.00">rep=no, t=yes, r=no, m=yes, c=no</text>
</g>
<!-- n21&#45;&gt;n22 -->
<g id="edge26" class="edge">
<title>n21&#45;&gt;n22</title>
<path fill="none" stroke="black" d="M2223.97,-443.71C2223.97,-435.53 2223.97,-426.75 2223.97,-418.23"/>
<polygon fill="black" stroke="black" points="2227.47,-418.01 2223.97,-408.01 2220.47,-418.01 2227.47,-418.01"/>
</g>
<!-- n29 -->
<g id="node31" class="node">
<title>n29</title>
<ellipse fill="#DA79E8" stroke="black" cx="2623.97" cy="-370.34" rx="190.84" ry="37.45"/>
<text text-anchor="middle" x="2623.97" y="-381.64" font-family="Times,serif" font-size="14.00">transformista</text>
<text text-anchor="middle" x="2623.97" y="-366.64" font-family="Times,serif" font-size="14.00">nccs000 (pobj)</text>
<text text-anchor="middle" x="2623.97" y="-351.64" font-family="Times,serif" font-size="14.00">rep=no, t=no, r=yes, m=yes, c=no</text>
</g>
<!-- n27&#45;&gt;n29 -->
<g id="edge30" class="edge">
<title>n27&#45;&gt;n29</title>
<path fill="none" stroke="black" d="M2623.97,-443.71C2623.97,-435.53 2623.97,-426.75 2623.97,-418.23"/>
<polygon fill="black" stroke="black" points="2627.47,-418.01 2623.97,-408.01 2620.47,-418.01 2627.47,-418.01"/>
</g>
<!-- n23 -->
<g id="node28" class="node">
<title>n23</title>
<ellipse fill="#BEDA48" stroke="black" cx="2223.97" cy="-259.38" rx="190.84" ry="37.45"/>
<text text-anchor="middle" x="2223.97" y="-270.68" font-family="Times,serif" font-size="14.00">de</text>
<text text-anchor="middle" x="2223.97" y="-255.68" font-family="Times,serif" font-size="14.00">sps00 (prepa)</text>
<text text-anchor="middle" x="2223.97" y="-240.68" font-family="Times,serif" font-size="14.00">rep=no, t=yes, r=no, m=yes, c=no</text>
</g>
<!-- n22&#45;&gt;n23 -->
<g id="edge27" class="edge">
<title>n22&#45;&gt;n23</title>
<path fill="none" stroke="black" d="M2223.97,-332.75C2223.97,-324.58 2223.97,-315.8 2223.97,-307.27"/>
<polygon fill="black" stroke="black" points="2227.47,-307.06 2223.97,-297.06 2220.47,-307.06 2227.47,-307.06"/>
</g>
<!-- n25 -->
<g id="node29" class="node">
<title>n25</title>
<ellipse fill="#BEDA48" stroke="black" cx="2223.97" cy="-148.43" rx="190.84" ry="37.45"/>
<text text-anchor="middle" x="2223.97" y="-159.73" font-family="Times,serif" font-size="14.00">magia</text>
<text text-anchor="middle" x="2223.97" y="-144.73" font-family="Times,serif" font-size="14.00">ncfs000 (pobj)</text>
<text text-anchor="middle" x="2223.97" y="-129.73" font-family="Times,serif" font-size="14.00">rep=no, t=yes, r=no, m=yes, c=no</text>
</g>
<!-- n23&#45;&gt;n25 -->
<g id="edge28" class="edge">
<title>n23&#45;&gt;n25</title>
<path fill="none" stroke="black" d="M2223.97,-221.8C2223.97,-213.63 2223.97,-204.85 2223.97,-196.32"/>
<polygon fill="black" stroke="black" points="2227.47,-196.1 2223.97,-186.1 2220.47,-196.1 2227.47,-196.1"/>
</g>
<!-- n24 -->
<g id="node30" class="node">
<title>n24</title>
<ellipse fill="#BEDA48" stroke="black" cx="2223.97" cy="-37.48" rx="190.84" ry="37.45"/>
<text text-anchor="middle" x="2223.97" y="-48.78" font-family="Times,serif" font-size="14.00">la</text>
<text text-anchor="middle" x="2223.97" y="-33.78" font-family="Times,serif" font-size="14.00">da0fs0 (det)</text>
<text text-anchor="middle" x="2223.97" y="-18.78" font-family="Times,serif" font-size="14.00">rep=no, t=yes, r=no, m=yes, c=no</text>
</g>
<!-- n25&#45;&gt;n24 -->
<g id="edge29" class="edge">
<title>n25&#45;&gt;n24</title>
<path fill="none" stroke="black" d="M2223.97,-110.85C2223.97,-102.67 2223.97,-93.89 2223.97,-85.37"/>
<polygon fill="black" stroke="black" points="2227.47,-85.15 2223.97,-75.15 2220.47,-85.15 2227.47,-85.15"/>
</g>
<!-- n28 -->
<g id="node32" class="node">
<title>n28</title>
<ellipse fill="#DA79E8" stroke="black" cx="2623.97" cy="-259.38" rx="190.84" ry="37.45"/>
<text text-anchor="middle" x="2623.97" y="-270.68" font-family="Times,serif" font-size="14.00">el</text>
<text text-anchor="middle" x="2623.97" y="-255.68" font-family="Times,serif" font-size="14.00">da0ms0 (det)</text>
<text text-anchor="middle" x="2623.97" y="-240.68" font-family="Times,serif" font-size="14.00">rep=no, t=no, r=yes, m=yes, c=no</text>
</g>
<!-- n29&#45;&gt;n28 -->
<g id="edge31" class="edge">
<title>n29&#45;&gt;n28</title>
<path fill="none" stroke="black" d="M2623.97,-332.75C2623.97,-324.58 2623.97,-315.8 2623.97,-307.27"/>
<polygon fill="black" stroke="black" points="2627.47,-307.06 2623.97,-297.06 2620.47,-307.06 2627.47,-307.06"/>
</g>
<!-- n30 -->
<g id="node33" class="node">
<title>n30</title>
<ellipse fill="#DA79E8" stroke="black" cx="3023.97" cy="-259.38" rx="190.84" ry="37.45"/>
<text text-anchor="middle" x="3023.97" y="-270.68" font-family="Times,serif" font-size="14.00">Leopold</text>
<text text-anchor="middle" x="3023.97" y="-255.68" font-family="Times,serif" font-size="14.00">np0000l (appos)</text>
<text text-anchor="middle" x="3023.97" y="-240.68" font-family="Times,serif" font-size="14.00">rep=no, t=no, r=yes, m=yes, c=no</text>
</g>
<!-- n29&#45;&gt;n30 -->
<g id="edge32" class="edge">
<title>n29&#45;&gt;n30</title>
<path fill="none" stroke="black" d="M2733.27,-339.56C2786.41,-325.09 2850.38,-307.67 2904.76,-292.85"/>
<polygon fill="black" stroke="black" points="2905.72,-296.22 2914.45,-290.21 2903.88,-289.46 2905.72,-296.22"/>
</g>
<!-- n31 -->
<g id="node34" class="node">
<title>n31</title>
<ellipse fill="#DA79E8" stroke="black" cx="3023.97" cy="-148.43" rx="190.84" ry="37.45"/>
<text text-anchor="middle" x="3023.97" y="-159.73" font-family="Times,serif" font-size="14.00">Frégoli</text>
<text text-anchor="middle" x="3023.97" y="-144.73" font-family="Times,serif" font-size="14.00">np0000l (appos)</text>
<text text-anchor="middle" x="3023.97" y="-129.73" font-family="Times,serif" font-size="14.00">rep=no, t=no, r=yes, m=yes, c=no</text>
</g>
<!-- n30&#45;&gt;n31 -->
<g id="edge33" class="edge">
<title>n30&#45;&gt;n31</title>
<path fill="none" stroke="black" d="M3023.97,-221.8C3023.97,-213.63 3023.97,-204.85 3023.97,-196.32"/>
<polygon fill="black" stroke="black" points="3027.47,-196.1 3023.97,-186.1 3020.47,-196.1 3027.47,-196.1"/>
</g>
<!-- n36 -->
<g id="node37" class="node">
<title>n36</title>
<ellipse fill="none" stroke="black" cx="3408.97" cy="-370.34" rx="185.94" ry="37.45"/>
<text text-anchor="middle" x="3408.97" y="-381.64" font-family="Times,serif" font-size="14.00">museo</text>
<text text-anchor="middle" x="3408.97" y="-366.64" font-family="Times,serif" font-size="14.00">ncms000 (pobj)</text>
<text text-anchor="middle" x="3408.97" y="-351.64" font-family="Times,serif" font-size="14.00">rep=no, t=no, r=no, m=yes, c=no</text>
</g>
<!-- n35&#45;&gt;n36 -->
<g id="edge36" class="edge">
<title>n35&#45;&gt;n36</title>
<path fill="none" stroke="black" d="M3408.97,-443.71C3408.97,-435.53 3408.97,-426.75 3408.97,-418.23"/>
<polygon fill="black" stroke="black" points="3412.47,-418.01 3408.97,-408.01 3405.47,-418.01 3412.47,-418.01"/>
</g>
</g>
</svg>
