<?xml version="1.0" encoding="UTF-8" standalone="no"?>
<!DOCTYPE svg PUBLIC "-//W3C//DTD SVG 1.1//EN"
 "http://www.w3.org/Graphics/SVG/1.1/DTD/svg11.dtd">
<!-- Generated by graphviz version 2.43.0 (0)
 -->
<!-- Title: tree Pages: 1 -->
<svg width="3190pt" height="1082pt"
 viewBox="0.00 0.00 3189.84 1081.53" xmlns="http://www.w3.org/2000/svg" xmlns:xlink="http://www.w3.org/1999/xlink">
<g id="graph0" class="graph" transform="scale(1 1) rotate(0) translate(4 1077.53)">
<title>tree</title>
<polygon fill="white" stroke="transparent" points="-4,4 -4,-1077.53 3185.84,-1077.53 3185.84,4 -4,4"/>
<!-- n5 -->
<g id="node1" class="node">
<title>n5</title>
<ellipse fill="#98D2A5" stroke="black" cx="1085.92" cy="-1036.06" rx="185.94" ry="37.45"/>
<text text-anchor="middle" x="1085.92" y="-1047.36" font-family="Times,serif" font-size="14.00">reveló</text>
<text text-anchor="middle" x="1085.92" y="-1032.36" font-family="Times,serif" font-size="14.00">vmis3s0 (root)</text>
<text text-anchor="middle" x="1085.92" y="-1017.36" font-family="Times,serif" font-size="14.00">rep=no, t=no, r=no, m=yes, c=no</text>
</g>
<!-- n2 -->
<g id="node2" class="node">
<title>n2</title>
<ellipse fill="none" stroke="black" cx="499.92" cy="-925.1" rx="181.95" ry="37.45"/>
<text text-anchor="middle" x="499.92" y="-936.4" font-family="Times,serif" font-size="14.00">,</text>
<text text-anchor="middle" x="499.92" y="-921.4" font-family="Times,serif" font-size="14.00">fc (punct)</text>
<text text-anchor="middle" x="499.92" y="-906.4" font-family="Times,serif" font-size="14.00">rep=no, t=no, r=no, m=no, c=no</text>
</g>
<!-- n5&#45;&gt;n2 -->
<g id="edge1" class="edge">
<title>n5&#45;&gt;n2</title>
<path fill="none" stroke="black" d="M950.14,-1010.39C873.92,-996.49 777.1,-978.71 690.92,-962.58 674.62,-959.53 657.55,-956.31 640.6,-953.09"/>
<polygon fill="black" stroke="black" points="641.11,-949.63 630.64,-951.2 639.81,-956.5 641.11,-949.63"/>
</g>
<!-- n6 -->
<g id="node3" class="node">
<title>n6</title>
<ellipse fill="#98D2A5" stroke="black" cx="890.92" cy="-925.1" rx="190.84" ry="37.45"/>
<text text-anchor="middle" x="890.92" y="-936.4" font-family="Times,serif" font-size="14.00">haber</text>
<text text-anchor="middle" x="890.92" y="-921.4" font-family="Times,serif" font-size="14.00">van0000 (dobj)</text>
<text text-anchor="middle" x="890.92" y="-906.4" font-family="Times,serif" font-size="14.00">rep=no, t=no, r=yes, m=yes, c=no</text>
</g>
<!-- n5&#45;&gt;n6 -->
<g id="edge2" class="edge">
<title>n5&#45;&gt;n6</title>
<path fill="none" stroke="black" d="M1024.22,-1000.58C1004.39,-989.5 982.27,-977.14 961.83,-965.73"/>
<polygon fill="black" stroke="black" points="963.32,-962.55 952.89,-960.73 959.91,-968.66 963.32,-962.55"/>
</g>
<!-- n20 -->
<g id="node4" class="node">
<title>n20</title>
<ellipse fill="none" stroke="black" cx="1281.92" cy="-925.1" rx="181.95" ry="37.45"/>
<text text-anchor="middle" x="1281.92" y="-936.4" font-family="Times,serif" font-size="14.00">,</text>
<text text-anchor="middle" x="1281.92" y="-921.4" font-family="Times,serif" font-size="14.00">fc (punct)</text>
<text text-anchor="middle" x="1281.92" y="-906.4" font-family="Times,serif" font-size="14.00">rep=no, t=no, r=no, m=no, c=no</text>
</g>
<!-- n5&#45;&gt;n20 -->
<g id="edge3" class="edge">
<title>n5&#45;&gt;n20</title>
<path fill="none" stroke="black" d="M1147.93,-1000.58C1168.05,-989.4 1190.52,-976.91 1211.22,-965.4"/>
<polygon fill="black" stroke="black" points="1212.93,-968.46 1219.97,-960.54 1209.53,-962.34 1212.93,-968.46"/>
</g>
<!-- n31 -->
<g id="node5" class="node">
<title>n31</title>
<ellipse fill="none" stroke="black" cx="1662.92" cy="-925.1" rx="181.95" ry="37.45"/>
<text text-anchor="middle" x="1662.92" y="-936.4" font-family="Times,serif" font-size="14.00">.</text>
<text text-anchor="middle" x="1662.92" y="-921.4" font-family="Times,serif" font-size="14.00">fp (punct)</text>
<text text-anchor="middle" x="1662.92" y="-906.4" font-family="Times,serif" font-size="14.00">rep=no, t=no, r=no, m=no, c=no</text>
</g>
<!-- n5&#45;&gt;n31 -->
<g id="edge4" class="edge">
<title>n5&#45;&gt;n31</title>
<path fill="none" stroke="black" d="M1220.27,-1010.05C1294.73,-996.15 1388.97,-978.5 1472.92,-962.58 1488.99,-959.53 1505.82,-956.33 1522.54,-953.13"/>
<polygon fill="black" stroke="black" points="1523.2,-956.57 1532.36,-951.25 1521.88,-949.69 1523.2,-956.57"/>
</g>
<!-- n4 -->
<g id="node6" class="node">
<title>n4</title>
<ellipse fill="#98D2A5" stroke="black" cx="690.92" cy="-814.15" rx="190.84" ry="37.45"/>
<text text-anchor="middle" x="690.92" y="-825.45" font-family="Times,serif" font-size="14.00">OTAN</text>
<text text-anchor="middle" x="690.92" y="-810.45" font-family="Times,serif" font-size="14.00">np00000 (nsubj)</text>
<text text-anchor="middle" x="690.92" y="-795.45" font-family="Times,serif" font-size="14.00">rep=no, t=yes, r=no, m=yes, c=no</text>
</g>
<!-- n6&#45;&gt;n4 -->
<g id="edge5" class="edge">
<title>n6&#45;&gt;n4</title>
<path fill="none" stroke="black" d="M827.64,-889.63C807.11,-878.45 784.18,-865.96 763.06,-854.45"/>
<polygon fill="black" stroke="black" points="764.59,-851.3 754.13,-849.59 761.24,-857.44 764.59,-851.3"/>
</g>
<!-- n7 -->
<g id="node7" class="node">
<title>n7</title>
<ellipse fill="#98D2A5" stroke="black" cx="1090.92" cy="-814.15" rx="190.84" ry="37.45"/>
<text text-anchor="middle" x="1090.92" y="-825.45" font-family="Times,serif" font-size="14.00">tenido</text>
<text text-anchor="middle" x="1090.92" y="-810.45" font-family="Times,serif" font-size="14.00">vmp00sm (cobj)</text>
<text text-anchor="middle" x="1090.92" y="-795.45" font-family="Times,serif" font-size="14.00">rep=no, t=no, r=yes, m=yes, c=no</text>
</g>
<!-- n6&#45;&gt;n7 -->
<g id="edge6" class="edge">
<title>n6&#45;&gt;n7</title>
<path fill="none" stroke="black" d="M954.2,-889.63C974.73,-878.45 997.65,-865.96 1018.78,-854.45"/>
<polygon fill="black" stroke="black" points="1020.6,-857.44 1027.71,-849.59 1017.25,-851.3 1020.6,-857.44"/>
</g>
<!-- n3 -->
<g id="node8" class="node">
<title>n3</title>
<ellipse fill="#98D2A5" stroke="black" cx="490.92" cy="-703.2" rx="190.84" ry="37.45"/>
<text text-anchor="middle" x="490.92" y="-714.5" font-family="Times,serif" font-size="14.00">la</text>
<text text-anchor="middle" x="490.92" y="-699.5" font-family="Times,serif" font-size="14.00">da0fs0 (det)</text>
<text text-anchor="middle" x="490.92" y="-684.5" font-family="Times,serif" font-size="14.00">rep=no, t=yes, r=no, m=yes, c=no</text>
</g>
<!-- n4&#45;&gt;n3 -->
<g id="edge7" class="edge">
<title>n4&#45;&gt;n3</title>
<path fill="none" stroke="black" d="M627.64,-778.68C607.11,-767.49 584.18,-755 563.06,-743.5"/>
<polygon fill="black" stroke="black" points="564.59,-740.34 554.13,-738.63 561.24,-746.49 564.59,-740.34"/>
</g>
<!-- n1 -->
<g id="node9" class="node">
<title>n1</title>
<ellipse fill="#98D2A5" stroke="black" cx="890.92" cy="-703.2" rx="190.84" ry="37.45"/>
<text text-anchor="middle" x="890.92" y="-714.5" font-family="Times,serif" font-size="14.00">Asimismo</text>
<text text-anchor="middle" x="890.92" y="-699.5" font-family="Times,serif" font-size="14.00">rg (advmod)</text>
<text text-anchor="middle" x="890.92" y="-684.5" font-family="Times,serif" font-size="14.00">rep=no, t=no, r=yes, m=yes, c=no</text>
</g>
<!-- n7&#45;&gt;n1 -->
<g id="edge8" class="edge">
<title>n7&#45;&gt;n1</title>
<path fill="none" stroke="black" d="M1027.64,-778.68C1007.11,-767.49 984.18,-755 963.06,-743.5"/>
<polygon fill="black" stroke="black" points="964.59,-740.34 954.13,-738.63 961.24,-746.49 964.59,-740.34"/>
</g>
<!-- n8 -->
<g id="node10" class="node">
<title>n8</title>
<ellipse fill="#98D2A5" stroke="black" cx="1290.92" cy="-703.2" rx="190.84" ry="37.45"/>
<text text-anchor="middle" x="1290.92" y="-714.5" font-family="Times,serif" font-size="14.00">conocimiento</text>
<text text-anchor="middle" x="1290.92" y="-699.5" font-family="Times,serif" font-size="14.00">ncms000 (dobj)</text>
<text text-anchor="middle" x="1290.92" y="-684.5" font-family="Times,serif" font-size="14.00">rep=no, t=no, r=yes, m=yes, c=no</text>
</g>
<!-- n7&#45;&gt;n8 -->
<g id="edge9" class="edge">
<title>n7&#45;&gt;n8</title>
<path fill="none" stroke="black" d="M1154.2,-778.68C1174.73,-767.49 1197.65,-755 1218.78,-743.5"/>
<polygon fill="black" stroke="black" points="1220.6,-746.49 1227.71,-738.63 1217.25,-740.34 1220.6,-746.49"/>
</g>
<!-- n21 -->
<g id="node11" class="node">
<title>n21</title>
<ellipse fill="#98D2A5" stroke="black" cx="1890.92" cy="-703.2" rx="190.84" ry="37.45"/>
<text text-anchor="middle" x="1890.92" y="-714.5" font-family="Times,serif" font-size="14.00">Según</text>
<text text-anchor="middle" x="1890.92" y="-699.5" font-family="Times,serif" font-size="14.00">cs (advcl)</text>
<text text-anchor="middle" x="1890.92" y="-684.5" font-family="Times,serif" font-size="14.00">rep=no, t=no, r=yes, m=yes, c=no</text>
</g>
<!-- n7&#45;&gt;n21 -->
<g id="edge10" class="edge">
<title>n7&#45;&gt;n21</title>
<path fill="none" stroke="black" d="M1245.64,-792.08C1383.7,-773.28 1585.26,-745.83 1726.26,-726.62"/>
<polygon fill="black" stroke="black" points="1726.87,-730.07 1736.31,-725.25 1725.93,-723.13 1726.87,-730.07"/>
</g>
<!-- n9 -->
<g id="node12" class="node">
<title>n9</title>
<ellipse fill="#98D2A5" stroke="black" cx="1190.92" cy="-592.24" rx="190.84" ry="37.45"/>
<text text-anchor="middle" x="1190.92" y="-603.54" font-family="Times,serif" font-size="14.00">de</text>
<text text-anchor="middle" x="1190.92" y="-588.54" font-family="Times,serif" font-size="14.00">sps00 (prepn)</text>
<text text-anchor="middle" x="1190.92" y="-573.54" font-family="Times,serif" font-size="14.00">rep=no, t=no, r=yes, m=yes, c=no</text>
</g>
<!-- n8&#45;&gt;n9 -->
<g id="edge11" class="edge">
<title>n8&#45;&gt;n9</title>
<path fill="none" stroke="black" d="M1257.9,-666.22C1249.19,-656.74 1239.71,-646.4 1230.69,-636.58"/>
<polygon fill="black" stroke="black" points="1233.25,-634.18 1223.91,-629.18 1228.09,-638.92 1233.25,-634.18"/>
</g>
<!-- n22 -->
<g id="node23" class="node">
<title>n22</title>
<ellipse fill="#98D2A5" stroke="black" cx="1990.92" cy="-592.24" rx="190.84" ry="37.45"/>
<text text-anchor="middle" x="1990.92" y="-603.54" font-family="Times,serif" font-size="14.00">informó</text>
<text text-anchor="middle" x="1990.92" y="-588.54" font-family="Times,serif" font-size="14.00">vmis3s0 (cobj)</text>
<text text-anchor="middle" x="1990.92" y="-573.54" font-family="Times,serif" font-size="14.00">rep=no, t=no, r=yes, m=yes, c=no</text>
</g>
<!-- n21&#45;&gt;n22 -->
<g id="edge22" class="edge">
<title>n21&#45;&gt;n22</title>
<path fill="none" stroke="black" d="M1923.94,-666.22C1932.64,-656.74 1942.13,-646.4 1951.15,-636.58"/>
<polygon fill="black" stroke="black" points="1953.75,-638.92 1957.93,-629.18 1948.59,-634.18 1953.75,-638.92"/>
</g>
<!-- n12 -->
<g id="node13" class="node">
<title>n12</title>
<ellipse fill="#98D2A5" stroke="black" cx="990.92" cy="-481.29" rx="190.84" ry="37.45"/>
<text text-anchor="middle" x="990.92" y="-492.59" font-family="Times,serif" font-size="14.00">masacre</text>
<text text-anchor="middle" x="990.92" y="-477.59" font-family="Times,serif" font-size="14.00">ncfs000 (pobj)</text>
<text text-anchor="middle" x="990.92" y="-462.59" font-family="Times,serif" font-size="14.00">rep=no, t=no, r=yes, m=yes, c=no</text>
</g>
<!-- n9&#45;&gt;n12 -->
<g id="edge12" class="edge">
<title>n9&#45;&gt;n12</title>
<path fill="none" stroke="black" d="M1127.64,-556.77C1107.11,-545.59 1084.18,-533.1 1063.06,-521.59"/>
<polygon fill="black" stroke="black" points="1064.59,-518.44 1054.13,-516.73 1061.24,-524.58 1064.59,-518.44"/>
</g>
<!-- n10 -->
<g id="node14" class="node">
<title>n10</title>
<ellipse fill="#98D2A5" stroke="black" cx="190.92" cy="-370.34" rx="190.84" ry="37.45"/>
<text text-anchor="middle" x="190.92" y="-381.64" font-family="Times,serif" font-size="14.00">una</text>
<text text-anchor="middle" x="190.92" y="-366.64" font-family="Times,serif" font-size="14.00">di0fs0 (det)</text>
<text text-anchor="middle" x="190.92" y="-351.64" font-family="Times,serif" font-size="14.00">rep=no, t=no, r=yes, m=yes, c=no</text>
</g>
<!-- n12&#45;&gt;n10 -->
<g id="edge13" class="edge">
<title>n12&#45;&gt;n10</title>
<path fill="none" stroke="black" d="M824.38,-462.89C703.76,-449.63 536.93,-429.93 390.92,-407.81 372.87,-405.08 353.96,-401.96 335.26,-398.73"/>
<polygon fill="black" stroke="black" points="335.66,-395.25 325.21,-396.98 334.46,-402.14 335.66,-395.25"/>
</g>
<!-- n11 -->
<g id="node15" class="node">
<title>n11</title>
<ellipse fill="#98D2A5" stroke="black" cx="590.92" cy="-370.34" rx="190.84" ry="37.45"/>
<text text-anchor="middle" x="590.92" y="-381.64" font-family="Times,serif" font-size="14.00">nueva</text>
<text text-anchor="middle" x="590.92" y="-366.64" font-family="Times,serif" font-size="14.00">aq0fs0 (amod)</text>
<text text-anchor="middle" x="590.92" y="-351.64" font-family="Times,serif" font-size="14.00">rep=no, t=no, r=yes, m=yes, c=no</text>
</g>
<!-- n12&#45;&gt;n11 -->
<g id="edge14" class="edge">
<title>n12&#45;&gt;n11</title>
<path fill="none" stroke="black" d="M881.62,-450.52C828.48,-436.04 764.51,-418.62 710.12,-403.81"/>
<polygon fill="black" stroke="black" points="711,-400.42 700.44,-401.17 709.16,-407.17 711,-400.42"/>
</g>
<!-- n13 -->
<g id="node16" class="node">
<title>n13</title>
<ellipse fill="#98D2A5" stroke="black" cx="990.92" cy="-370.34" rx="190.84" ry="37.45"/>
<text text-anchor="middle" x="990.92" y="-381.64" font-family="Times,serif" font-size="14.00">de</text>
<text text-anchor="middle" x="990.92" y="-366.64" font-family="Times,serif" font-size="14.00">sps00 (prepn)</text>
<text text-anchor="middle" x="990.92" y="-351.64" font-family="Times,serif" font-size="14.00">rep=no, t=no, r=yes, m=yes, c=no</text>
</g>
<!-- n12&#45;&gt;n13 -->
<g id="edge15" class="edge">
<title>n12&#45;&gt;n13</title>
<path fill="none" stroke="black" d="M990.92,-443.71C990.92,-435.53 990.92,-426.75 990.92,-418.23"/>
<polygon fill="black" stroke="black" points="994.42,-418.01 990.92,-408.01 987.42,-418.01 994.42,-418.01"/>
</g>
<!-- n15 -->
<g id="node17" class="node">
<title>n15</title>
<ellipse fill="#98D2A5" stroke="black" cx="1390.92" cy="-370.34" rx="190.84" ry="37.45"/>
<text text-anchor="middle" x="1390.92" y="-381.64" font-family="Times,serif" font-size="14.00">en</text>
<text text-anchor="middle" x="1390.92" y="-366.64" font-family="Times,serif" font-size="14.00">sps00 (prepn)</text>
<text text-anchor="middle" x="1390.92" y="-351.64" font-family="Times,serif" font-size="14.00">rep=no, t=no, r=yes, m=yes, c=no</text>
</g>
<!-- n12&#45;&gt;n15 -->
<g id="edge16" class="edge">
<title>n12&#45;&gt;n15</title>
<path fill="none" stroke="black" d="M1100.22,-450.52C1153.36,-436.04 1217.33,-418.62 1271.71,-403.81"/>
<polygon fill="black" stroke="black" points="1272.67,-407.17 1281.4,-401.17 1270.83,-400.42 1272.67,-407.17"/>
</g>
<!-- n14 -->
<g id="node18" class="node">
<title>n14</title>
<ellipse fill="#98D2A5" stroke="black" cx="990.92" cy="-259.38" rx="190.84" ry="37.45"/>
<text text-anchor="middle" x="990.92" y="-270.68" font-family="Times,serif" font-size="14.00">refugiados</text>
<text text-anchor="middle" x="990.92" y="-255.68" font-family="Times,serif" font-size="14.00">ncmp000 (pobj)</text>
<text text-anchor="middle" x="990.92" y="-240.68" font-family="Times,serif" font-size="14.00">rep=no, t=no, r=yes, m=yes, c=no</text>
</g>
<!-- n13&#45;&gt;n14 -->
<g id="edge17" class="edge">
<title>n13&#45;&gt;n14</title>
<path fill="none" stroke="black" d="M990.92,-332.75C990.92,-324.58 990.92,-315.8 990.92,-307.27"/>
<polygon fill="black" stroke="black" points="994.42,-307.06 990.92,-297.06 987.42,-307.06 994.42,-307.06"/>
</g>
<!-- n17 -->
<g id="node19" class="node">
<title>n17</title>
<ellipse fill="#98D2A5" stroke="black" cx="1390.92" cy="-259.38" rx="190.84" ry="37.45"/>
<text text-anchor="middle" x="1390.92" y="-270.68" font-family="Times,serif" font-size="14.00">localidad</text>
<text text-anchor="middle" x="1390.92" y="-255.68" font-family="Times,serif" font-size="14.00">ncfs000 (pobj)</text>
<text text-anchor="middle" x="1390.92" y="-240.68" font-family="Times,serif" font-size="14.00">rep=no, t=no, r=yes, m=yes, c=no</text>
</g>
<!-- n15&#45;&gt;n17 -->
<g id="edge18" class="edge">
<title>n15&#45;&gt;n17</title>
<path fill="none" stroke="black" d="M1390.92,-332.75C1390.92,-324.58 1390.92,-315.8 1390.92,-307.27"/>
<polygon fill="black" stroke="black" points="1394.42,-307.06 1390.92,-297.06 1387.42,-307.06 1394.42,-307.06"/>
</g>
<!-- n16 -->
<g id="node20" class="node">
<title>n16</title>
<ellipse fill="#98D2A5" stroke="black" cx="1190.92" cy="-148.43" rx="190.84" ry="37.45"/>
<text text-anchor="middle" x="1190.92" y="-159.73" font-family="Times,serif" font-size="14.00">la</text>
<text text-anchor="middle" x="1190.92" y="-144.73" font-family="Times,serif" font-size="14.00">da0fs0 (det)</text>
<text text-anchor="middle" x="1190.92" y="-129.73" font-family="Times,serif" font-size="14.00">rep=no, t=no, r=yes, m=yes, c=no</text>
</g>
<!-- n17&#45;&gt;n16 -->
<g id="edge19" class="edge">
<title>n17&#45;&gt;n16</title>
<path fill="none" stroke="black" d="M1327.64,-223.91C1307.11,-212.73 1284.18,-200.24 1263.06,-188.73"/>
<polygon fill="black" stroke="black" points="1264.59,-185.58 1254.13,-183.87 1261.24,-191.72 1264.59,-185.58"/>
</g>
<!-- n18 -->
<g id="node21" class="node">
<title>n18</title>
<ellipse fill="#98D2A5" stroke="black" cx="1590.92" cy="-148.43" rx="190.84" ry="37.45"/>
<text text-anchor="middle" x="1590.92" y="-159.73" font-family="Times,serif" font-size="14.00">de</text>
<text text-anchor="middle" x="1590.92" y="-144.73" font-family="Times,serif" font-size="14.00">sps00 (prepn)</text>
<text text-anchor="middle" x="1590.92" y="-129.73" font-family="Times,serif" font-size="14.00">rep=no, t=no, r=yes, m=yes, c=no</text>
</g>
<!-- n17&#45;&gt;n18 -->
<g id="edge20" class="edge">
<title>n17&#45;&gt;n18</title>
<path fill="none" stroke="black" d="M1454.2,-223.91C1474.73,-212.73 1497.65,-200.24 1518.78,-188.73"/>
<polygon fill="black" stroke="black" points="1520.6,-191.72 1527.71,-183.87 1517.25,-185.58 1520.6,-191.72"/>
</g>
<!-- n19 -->
<g id="node22" class="node">
<title>n19</title>
<ellipse fill="#98D2A5" stroke="black" cx="1590.92" cy="-37.48" rx="190.84" ry="37.45"/>
<text text-anchor="middle" x="1590.92" y="-48.78" font-family="Times,serif" font-size="14.00">Mega</text>
<text text-anchor="middle" x="1590.92" y="-33.78" font-family="Times,serif" font-size="14.00">np00000 (pobj)</text>
<text text-anchor="middle" x="1590.92" y="-18.78" font-family="Times,serif" font-size="14.00">rep=no, t=no, r=yes, m=yes, c=no</text>
</g>
<!-- n18&#45;&gt;n19 -->
<g id="edge21" class="edge">
<title>n18&#45;&gt;n19</title>
<path fill="none" stroke="black" d="M1590.92,-110.85C1590.92,-102.67 1590.92,-93.89 1590.92,-85.37"/>
<polygon fill="black" stroke="black" points="1594.42,-85.15 1590.92,-75.15 1587.42,-85.15 1594.42,-85.15"/>
</g>
<!-- n24 -->
<g id="node24" class="node">
<title>n24</title>
<ellipse fill="#98D2A5" stroke="black" cx="2190.92" cy="-481.29" rx="190.84" ry="37.45"/>
<text text-anchor="middle" x="2190.92" y="-492.59" font-family="Times,serif" font-size="14.00">portavoz</text>
<text text-anchor="middle" x="2190.92" y="-477.59" font-family="Times,serif" font-size="14.00">nccs000 (nsubj)</text>
<text text-anchor="middle" x="2190.92" y="-462.59" font-family="Times,serif" font-size="14.00">rep=no, t=no, r=yes, m=yes, c=no</text>
</g>
<!-- n22&#45;&gt;n24 -->
<g id="edge23" class="edge">
<title>n22&#45;&gt;n24</title>
<path fill="none" stroke="black" d="M2054.2,-556.77C2074.73,-545.59 2097.65,-533.1 2118.78,-521.59"/>
<polygon fill="black" stroke="black" points="2120.6,-524.58 2127.71,-516.73 2117.25,-518.44 2120.6,-524.58"/>
</g>
<!-- n23 -->
<g id="node25" class="node">
<title>n23</title>
<ellipse fill="#98D2A5" stroke="black" cx="1790.92" cy="-370.34" rx="190.84" ry="37.45"/>
<text text-anchor="middle" x="1790.92" y="-381.64" font-family="Times,serif" font-size="14.00">el</text>
<text text-anchor="middle" x="1790.92" y="-366.64" font-family="Times,serif" font-size="14.00">da0ms0 (det)</text>
<text text-anchor="middle" x="1790.92" y="-351.64" font-family="Times,serif" font-size="14.00">rep=no, t=no, r=yes, m=yes, c=no</text>
</g>
<!-- n24&#45;&gt;n23 -->
<g id="edge24" class="edge">
<title>n24&#45;&gt;n23</title>
<path fill="none" stroke="black" d="M2081.62,-450.52C2028.48,-436.04 1964.51,-418.62 1910.12,-403.81"/>
<polygon fill="black" stroke="black" points="1911,-400.42 1900.44,-401.17 1909.16,-407.17 1911,-400.42"/>
</g>
<!-- n25 -->
<g id="node26" class="node">
<title>n25</title>
<ellipse fill="#98D2A5" stroke="black" cx="2190.92" cy="-370.34" rx="190.84" ry="37.45"/>
<text text-anchor="middle" x="2190.92" y="-381.64" font-family="Times,serif" font-size="14.00">de</text>
<text text-anchor="middle" x="2190.92" y="-366.64" font-family="Times,serif" font-size="14.00">sps00 (prepn)</text>
<text text-anchor="middle" x="2190.92" y="-351.64" font-family="Times,serif" font-size="14.00">rep=no, t=no, r=yes, m=yes, c=no</text>
</g>
<!-- n24&#45;&gt;n25 -->
<g id="edge25" class="edge">
<title>n24&#45;&gt;n25</title>
<path fill="none" stroke="black" d="M2190.92,-443.71C2190.92,-435.53 2190.92,-426.75 2190.92,-418.23"/>
<polygon fill="black" stroke="black" points="2194.42,-418.01 2190.92,-408.01 2187.42,-418.01 2194.42,-418.01"/>
</g>
<!-- n28 -->
<g id="node27" class="node">
<title>n28</title>
<ellipse fill="#98D2A5" stroke="black" cx="2590.92" cy="-370.34" rx="190.84" ry="37.45"/>
<text text-anchor="middle" x="2590.92" y="-381.64" font-family="Times,serif" font-size="14.00">,</text>
<text text-anchor="middle" x="2590.92" y="-366.64" font-family="Times,serif" font-size="14.00">fc (punct)</text>
<text text-anchor="middle" x="2590.92" y="-351.64" font-family="Times,serif" font-size="14.00">rep=no, t=no, r=yes, m=yes, c=no</text>
</g>
<!-- n24&#45;&gt;n28 -->
<g id="edge26" class="edge">
<title>n24&#45;&gt;n28</title>
<path fill="none" stroke="black" d="M2300.22,-450.52C2353.36,-436.04 2417.33,-418.62 2471.71,-403.81"/>
<polygon fill="black" stroke="black" points="2472.67,-407.17 2481.4,-401.17 2470.83,-400.42 2472.67,-407.17"/>
</g>
<!-- n29 -->
<g id="node28" class="node">
<title>n29</title>
<ellipse fill="#98D2A5" stroke="black" cx="2990.92" cy="-370.34" rx="190.84" ry="37.45"/>
<text text-anchor="middle" x="2990.92" y="-381.64" font-family="Times,serif" font-size="14.00">Jamie</text>
<text text-anchor="middle" x="2990.92" y="-366.64" font-family="Times,serif" font-size="14.00">np0000l (appos)</text>
<text text-anchor="middle" x="2990.92" y="-351.64" font-family="Times,serif" font-size="14.00">rep=no, t=no, r=yes, m=yes, c=no</text>
</g>
<!-- n24&#45;&gt;n29 -->
<g id="edge27" class="edge">
<title>n24&#45;&gt;n29</title>
<path fill="none" stroke="black" d="M2357.46,-462.89C2478.08,-449.63 2644.9,-429.93 2790.92,-407.81 2808.96,-405.08 2827.88,-401.96 2846.57,-398.73"/>
<polygon fill="black" stroke="black" points="2847.38,-402.14 2856.63,-396.98 2846.17,-395.25 2847.38,-402.14"/>
</g>
<!-- n27 -->
<g id="node29" class="node">
<title>n27</title>
<ellipse fill="#98D2A5" stroke="black" cx="2190.92" cy="-259.38" rx="190.84" ry="37.45"/>
<text text-anchor="middle" x="2190.92" y="-270.68" font-family="Times,serif" font-size="14.00">OTAN</text>
<text text-anchor="middle" x="2190.92" y="-255.68" font-family="Times,serif" font-size="14.00">np00000 (pobj)</text>
<text text-anchor="middle" x="2190.92" y="-240.68" font-family="Times,serif" font-size="14.00">rep=no, t=no, r=yes, m=yes, c=no</text>
</g>
<!-- n25&#45;&gt;n27 -->
<g id="edge28" class="edge">
<title>n25&#45;&gt;n27</title>
<path fill="none" stroke="black" d="M2190.92,-332.75C2190.92,-324.58 2190.92,-315.8 2190.92,-307.27"/>
<polygon fill="black" stroke="black" points="2194.42,-307.06 2190.92,-297.06 2187.42,-307.06 2194.42,-307.06"/>
</g>
<!-- n30 -->
<g id="node31" class="node">
<title>n30</title>
<ellipse fill="#98D2A5" stroke="black" cx="2990.92" cy="-259.38" rx="190.84" ry="37.45"/>
<text text-anchor="middle" x="2990.92" y="-270.68" font-family="Times,serif" font-size="14.00">Shea</text>
<text text-anchor="middle" x="2990.92" y="-255.68" font-family="Times,serif" font-size="14.00">np0000l (appos)</text>
<text text-anchor="middle" x="2990.92" y="-240.68" font-family="Times,serif" font-size="14.00">rep=no, t=no, r=yes, m=yes, c=no</text>
</g>
<!-- n29&#45;&gt;n30 -->
<g id="edge30" class="edge">
<title>n29&#45;&gt;n30</title>
<path fill="none" stroke="black" d="M2990.92,-332.75C2990.92,-324.58 2990.92,-315.8 2990.92,-307.27"/>
<polygon fill="black" stroke="black" points="2994.42,-307.06 2990.92,-297.06 2987.42,-307.06 2994.42,-307.06"/>
</g>
<!-- n26 -->
<g id="node30" class="node">
<title>n26</title>
<ellipse fill="#98D2A5" stroke="black" cx="2190.92" cy="-148.43" rx="190.84" ry="37.45"/>
<text text-anchor="middle" x="2190.92" y="-159.73" font-family="Times,serif" font-size="14.00">la</text>
<text text-anchor="middle" x="2190.92" y="-144.73" font-family="Times,serif" font-size="14.00">da0fs0 (det)</text>
<text text-anchor="middle" x="2190.92" y="-129.73" font-family="Times,serif" font-size="14.00">rep=no, t=no, r=yes, m=yes, c=no</text>
</g>
<!-- n27&#45;&gt;n26 -->
<g id="edge29" class="edge">
<title>n27&#45;&gt;n26</title>
<path fill="none" stroke="black" d="M2190.92,-221.8C2190.92,-213.63 2190.92,-204.85 2190.92,-196.32"/>
<polygon fill="black" stroke="black" points="2194.42,-196.1 2190.92,-186.1 2187.42,-196.1 2194.42,-196.1"/>
</g>
</g>
</svg>
