<?xml version="1.0" encoding="UTF-8" standalone="no"?>
<!DOCTYPE svg PUBLIC "-//W3C//DTD SVG 1.1//EN"
 "http://www.w3.org/Graphics/SVG/1.1/DTD/svg11.dtd">
<!-- Generated by graphviz version 2.43.0 (0)
 -->
<!-- Title: tree Pages: 1 -->
<svg width="2411pt" height="1192pt"
 viewBox="0.00 0.00 2410.65 1192.49" xmlns="http://www.w3.org/2000/svg" xmlns:xlink="http://www.w3.org/1999/xlink">
<g id="graph0" class="graph" transform="scale(1 1) rotate(0) translate(4 1188.49)">
<title>tree</title>
<polygon fill="white" stroke="transparent" points="-4,4 -4,-1188.49 2406.65,-1188.49 2406.65,4 -4,4"/>
<!-- n10 -->
<g id="node1" class="node">
<title>n10</title>
<ellipse fill="none" stroke="black" cx="1646.92" cy="-1147.01" rx="181.95" ry="37.45"/>
<text text-anchor="middle" x="1646.92" y="-1158.31" font-family="Times,serif" font-size="14.00">señaló</text>
<text text-anchor="middle" x="1646.92" y="-1143.31" font-family="Times,serif" font-size="14.00">vmis3s0 (root)</text>
<text text-anchor="middle" x="1646.92" y="-1128.31" font-family="Times,serif" font-size="14.00">rep=no, t=no, r=no, m=no, c=no</text>
</g>
<!-- n3 -->
<g id="node2" class="node">
<title>n3</title>
<ellipse fill="none" stroke="black" cx="1265.92" cy="-1036.06" rx="181.95" ry="37.45"/>
<text text-anchor="middle" x="1265.92" y="-1047.36" font-family="Times,serif" font-size="14.00">está</text>
<text text-anchor="middle" x="1265.92" y="-1032.36" font-family="Times,serif" font-size="14.00">vmip3s0 (dobj)</text>
<text text-anchor="middle" x="1265.92" y="-1017.36" font-family="Times,serif" font-size="14.00">rep=no, t=no, r=no, m=no, c=no</text>
</g>
<!-- n10&#45;&gt;n3 -->
<g id="edge1" class="edge">
<title>n10&#45;&gt;n3</title>
<path fill="none" stroke="black" d="M1542.81,-1116.24C1492.3,-1101.8 1431.52,-1084.41 1379.79,-1069.62"/>
<polygon fill="black" stroke="black" points="1380.48,-1066.18 1369.9,-1066.79 1378.56,-1072.91 1380.48,-1066.18"/>
</g>
<!-- n9 -->
<g id="node3" class="node">
<title>n9</title>
<ellipse fill="none" stroke="black" cx="1646.92" cy="-1036.06" rx="181.95" ry="37.45"/>
<text text-anchor="middle" x="1646.92" y="-1047.36" font-family="Times,serif" font-size="14.00">,</text>
<text text-anchor="middle" x="1646.92" y="-1032.36" font-family="Times,serif" font-size="14.00">fc (punct)</text>
<text text-anchor="middle" x="1646.92" y="-1017.36" font-family="Times,serif" font-size="14.00">rep=no, t=no, r=no, m=no, c=no</text>
</g>
<!-- n10&#45;&gt;n9 -->
<g id="edge2" class="edge">
<title>n10&#45;&gt;n9</title>
<path fill="none" stroke="black" d="M1646.92,-1109.43C1646.92,-1101.25 1646.92,-1092.47 1646.92,-1083.95"/>
<polygon fill="black" stroke="black" points="1650.42,-1083.73 1646.92,-1073.73 1643.42,-1083.73 1650.42,-1083.73"/>
</g>
<!-- n33 -->
<g id="node4" class="node">
<title>n33</title>
<ellipse fill="none" stroke="black" cx="2027.92" cy="-1036.06" rx="181.95" ry="37.45"/>
<text text-anchor="middle" x="2027.92" y="-1047.36" font-family="Times,serif" font-size="14.00">.</text>
<text text-anchor="middle" x="2027.92" y="-1032.36" font-family="Times,serif" font-size="14.00">fp (punct)</text>
<text text-anchor="middle" x="2027.92" y="-1017.36" font-family="Times,serif" font-size="14.00">rep=no, t=no, r=no, m=no, c=no</text>
</g>
<!-- n10&#45;&gt;n33 -->
<g id="edge3" class="edge">
<title>n10&#45;&gt;n33</title>
<path fill="none" stroke="black" d="M1751.03,-1116.24C1801.53,-1101.8 1862.32,-1084.41 1914.05,-1069.62"/>
<polygon fill="black" stroke="black" points="1915.28,-1072.91 1923.93,-1066.79 1913.36,-1066.18 1915.28,-1072.91"/>
</g>
<!-- n1 -->
<g id="node5" class="node">
<title>n1</title>
<ellipse fill="none" stroke="black" cx="305.92" cy="-925.1" rx="181.95" ry="37.45"/>
<text text-anchor="middle" x="305.92" y="-936.4" font-family="Times,serif" font-size="14.00">&quot;</text>
<text text-anchor="middle" x="305.92" y="-921.4" font-family="Times,serif" font-size="14.00">fe (punct)</text>
<text text-anchor="middle" x="305.92" y="-906.4" font-family="Times,serif" font-size="14.00">rep=no, t=no, r=no, m=no, c=no</text>
</g>
<!-- n3&#45;&gt;n1 -->
<g id="edge4" class="edge">
<title>n3&#45;&gt;n1</title>
<path fill="none" stroke="black" d="M1094.1,-1023.62C937.69,-1012.09 700.62,-991.8 495.92,-962.58 478.45,-960.09 460.16,-957.08 442.11,-953.88"/>
<polygon fill="black" stroke="black" points="442.57,-950.41 432.11,-952.08 441.33,-957.3 442.57,-950.41"/>
</g>
<!-- n2 -->
<g id="node6" class="node">
<title>n2</title>
<ellipse fill="none" stroke="black" cx="686.92" cy="-925.1" rx="181.95" ry="37.45"/>
<text text-anchor="middle" x="686.92" y="-936.4" font-family="Times,serif" font-size="14.00">Milosevic</text>
<text text-anchor="middle" x="686.92" y="-921.4" font-family="Times,serif" font-size="14.00">np00000 (nsubj)</text>
<text text-anchor="middle" x="686.92" y="-906.4" font-family="Times,serif" font-size="14.00">rep=no, t=no, r=no, m=no, c=no</text>
</g>
<!-- n3&#45;&gt;n2 -->
<g id="edge5" class="edge">
<title>n3&#45;&gt;n2</title>
<path fill="none" stroke="black" d="M1133.01,-1010.37C1058.08,-996.41 962.76,-978.61 877.92,-962.58 861.63,-959.5 844.56,-956.26 827.61,-953.04"/>
<polygon fill="black" stroke="black" points="828.13,-949.57 817.65,-951.14 826.82,-956.45 828.13,-949.57"/>
</g>
<!-- n4 -->
<g id="node7" class="node">
<title>n4</title>
<ellipse fill="#98D2A5" stroke="black" cx="1072.92" cy="-925.1" rx="185.94" ry="37.45"/>
<text text-anchor="middle" x="1072.92" y="-936.4" font-family="Times,serif" font-size="14.00">cambiando</text>
<text text-anchor="middle" x="1072.92" y="-921.4" font-family="Times,serif" font-size="14.00">vmg0000 (cobj)</text>
<text text-anchor="middle" x="1072.92" y="-906.4" font-family="Times,serif" font-size="14.00">rep=no, t=no, r=no, m=yes, c=no</text>
</g>
<!-- n3&#45;&gt;n4 -->
<g id="edge6" class="edge">
<title>n3&#45;&gt;n4</title>
<path fill="none" stroke="black" d="M1205.12,-1000.73C1185.39,-989.59 1163.34,-977.15 1142.99,-965.66"/>
<polygon fill="black" stroke="black" points="1144.51,-962.5 1134.08,-960.63 1141.07,-968.59 1144.51,-962.5"/>
</g>
<!-- n5 -->
<g id="node8" class="node">
<title>n5</title>
<ellipse fill="none" stroke="black" cx="1458.92" cy="-925.1" rx="181.95" ry="37.45"/>
<text text-anchor="middle" x="1458.92" y="-936.4" font-family="Times,serif" font-size="14.00">constantemente</text>
<text text-anchor="middle" x="1458.92" y="-921.4" font-family="Times,serif" font-size="14.00">rg (advmod)</text>
<text text-anchor="middle" x="1458.92" y="-906.4" font-family="Times,serif" font-size="14.00">rep=no, t=no, r=no, m=no, c=no</text>
</g>
<!-- n3&#45;&gt;n5 -->
<g id="edge7" class="edge">
<title>n3&#45;&gt;n5</title>
<path fill="none" stroke="black" d="M1326.72,-1000.73C1346.55,-989.54 1368.72,-977.03 1389.15,-965.49"/>
<polygon fill="black" stroke="black" points="1391.1,-968.41 1398.09,-960.44 1387.66,-962.31 1391.1,-968.41"/>
</g>
<!-- n6 -->
<g id="node9" class="node">
<title>n6</title>
<ellipse fill="none" stroke="black" cx="1839.92" cy="-925.1" rx="181.95" ry="37.45"/>
<text text-anchor="middle" x="1839.92" y="-936.4" font-family="Times,serif" font-size="14.00">de</text>
<text text-anchor="middle" x="1839.92" y="-921.4" font-family="Times,serif" font-size="14.00">sps00 (oobj)</text>
<text text-anchor="middle" x="1839.92" y="-906.4" font-family="Times,serif" font-size="14.00">rep=no, t=no, r=no, m=no, c=no</text>
</g>
<!-- n3&#45;&gt;n6 -->
<g id="edge8" class="edge">
<title>n3&#45;&gt;n6</title>
<path fill="none" stroke="black" d="M1396.47,-1009.88C1416.38,-1006.08 1436.69,-1002.21 1455.92,-998.58 1542.09,-982.31 1563.75,-978.85 1649.92,-962.58 1665.99,-959.55 1682.82,-956.35 1699.54,-953.15"/>
<polygon fill="black" stroke="black" points="1700.2,-956.59 1709.37,-951.28 1698.89,-949.72 1700.2,-956.59"/>
</g>
<!-- n8 -->
<g id="node10" class="node">
<title>n8</title>
<ellipse fill="none" stroke="black" cx="2220.92" cy="-925.1" rx="181.95" ry="37.45"/>
<text text-anchor="middle" x="2220.92" y="-936.4" font-family="Times,serif" font-size="14.00">&quot;</text>
<text text-anchor="middle" x="2220.92" y="-921.4" font-family="Times,serif" font-size="14.00">fe (punct)</text>
<text text-anchor="middle" x="2220.92" y="-906.4" font-family="Times,serif" font-size="14.00">rep=no, t=no, r=no, m=no, c=no</text>
</g>
<!-- n3&#45;&gt;n8 -->
<g id="edge9" class="edge">
<title>n3&#45;&gt;n8</title>
<path fill="none" stroke="black" d="M1390.76,-1008.75C1412.41,-1004.86 1434.76,-1001.26 1455.92,-998.58 1709.94,-966.38 1776.9,-994.78 2030.92,-962.58 2048.85,-960.31 2067.65,-957.38 2086.14,-954.17"/>
<polygon fill="black" stroke="black" points="2086.84,-957.6 2096.08,-952.41 2085.63,-950.7 2086.84,-957.6"/>
</g>
<!-- n11 -->
<g id="node11" class="node">
<title>n11</title>
<ellipse fill="#98D2A5" stroke="black" cx="1072.92" cy="-814.15" rx="185.94" ry="37.45"/>
<text text-anchor="middle" x="1072.92" y="-825.45" font-family="Times,serif" font-size="14.00">Shea</text>
<text text-anchor="middle" x="1072.92" y="-810.45" font-family="Times,serif" font-size="14.00">np00000 (nsubj)</text>
<text text-anchor="middle" x="1072.92" y="-795.45" font-family="Times,serif" font-size="14.00">rep=no, t=no, r=no, m=yes, c=no</text>
</g>
<!-- n4&#45;&gt;n11 -->
<g id="edge10" class="edge">
<title>n4&#45;&gt;n11</title>
<path fill="none" stroke="black" d="M1072.92,-887.52C1072.92,-879.35 1072.92,-870.57 1072.92,-862.04"/>
<polygon fill="black" stroke="black" points="1076.42,-861.82 1072.92,-851.82 1069.42,-861.82 1076.42,-861.82"/>
</g>
<!-- n7 -->
<g id="node33" class="node">
<title>n7</title>
<ellipse fill="none" stroke="black" cx="1839.92" cy="-814.15" rx="181.95" ry="37.45"/>
<text text-anchor="middle" x="1839.92" y="-825.45" font-family="Times,serif" font-size="14.00">generales</text>
<text text-anchor="middle" x="1839.92" y="-810.45" font-family="Times,serif" font-size="14.00">ncmp000 (pobj)</text>
<text text-anchor="middle" x="1839.92" y="-795.45" font-family="Times,serif" font-size="14.00">rep=no, t=no, r=no, m=no, c=no</text>
</g>
<!-- n6&#45;&gt;n7 -->
<g id="edge32" class="edge">
<title>n6&#45;&gt;n7</title>
<path fill="none" stroke="black" d="M1839.92,-887.52C1839.92,-879.35 1839.92,-870.57 1839.92,-862.04"/>
<polygon fill="black" stroke="black" points="1843.42,-861.82 1839.92,-851.82 1836.42,-861.82 1843.42,-861.82"/>
</g>
<!-- n12 -->
<g id="node12" class="node">
<title>n12</title>
<ellipse fill="#98D2A5" stroke="black" cx="875.92" cy="-703.2" rx="185.94" ry="37.45"/>
<text text-anchor="middle" x="875.92" y="-714.5" font-family="Times,serif" font-size="14.00">,</text>
<text text-anchor="middle" x="875.92" y="-699.5" font-family="Times,serif" font-size="14.00">fc (punct)</text>
<text text-anchor="middle" x="875.92" y="-684.5" font-family="Times,serif" font-size="14.00">rep=no, t=no, r=no, m=yes, c=no</text>
</g>
<!-- n11&#45;&gt;n12 -->
<g id="edge11" class="edge">
<title>n11&#45;&gt;n12</title>
<path fill="none" stroke="black" d="M1010.59,-778.68C990.37,-767.49 967.79,-755 946.98,-743.5"/>
<polygon fill="black" stroke="black" points="948.63,-740.41 938.18,-738.63 945.24,-746.54 948.63,-740.41"/>
</g>
<!-- n14 -->
<g id="node13" class="node">
<title>n14</title>
<ellipse fill="#98D2A5" stroke="black" cx="1270.92" cy="-703.2" rx="190.84" ry="37.45"/>
<text text-anchor="middle" x="1270.92" y="-714.5" font-family="Times,serif" font-size="14.00">señaló</text>
<text text-anchor="middle" x="1270.92" y="-699.5" font-family="Times,serif" font-size="14.00">vmis3s0 (rcmod)</text>
<text text-anchor="middle" x="1270.92" y="-684.5" font-family="Times,serif" font-size="14.00">rep=no, t=no, r=yes, m=yes, c=no</text>
</g>
<!-- n11&#45;&gt;n14 -->
<g id="edge12" class="edge">
<title>n11&#45;&gt;n14</title>
<path fill="none" stroke="black" d="M1135.3,-778.83C1155.63,-767.64 1178.36,-755.13 1199.32,-743.6"/>
<polygon fill="black" stroke="black" points="1201.1,-746.61 1208.18,-738.72 1197.73,-740.48 1201.1,-746.61"/>
</g>
<!-- n13 -->
<g id="node14" class="node">
<title>n13</title>
<ellipse fill="#98D2A5" stroke="black" cx="1070.92" cy="-592.24" rx="190.84" ry="37.45"/>
<text text-anchor="middle" x="1070.92" y="-603.54" font-family="Times,serif" font-size="14.00">quien</text>
<text text-anchor="middle" x="1070.92" y="-588.54" font-family="Times,serif" font-size="14.00">pr0cs000 (nsubj)</text>
<text text-anchor="middle" x="1070.92" y="-573.54" font-family="Times,serif" font-size="14.00">rep=no, t=yes, r=no, m=yes, c=no</text>
</g>
<!-- n14&#45;&gt;n13 -->
<g id="edge13" class="edge">
<title>n14&#45;&gt;n13</title>
<path fill="none" stroke="black" d="M1207.64,-667.72C1187.11,-656.54 1164.18,-644.05 1143.06,-632.54"/>
<polygon fill="black" stroke="black" points="1144.59,-629.39 1134.13,-627.68 1141.24,-635.54 1144.59,-629.39"/>
</g>
<!-- n15 -->
<g id="node15" class="node">
<title>n15</title>
<ellipse fill="#98D2A5" stroke="black" cx="1470.92" cy="-592.24" rx="190.84" ry="37.45"/>
<text text-anchor="middle" x="1470.92" y="-603.54" font-family="Times,serif" font-size="14.00">que</text>
<text text-anchor="middle" x="1470.92" y="-588.54" font-family="Times,serif" font-size="14.00">cs (dobj)</text>
<text text-anchor="middle" x="1470.92" y="-573.54" font-family="Times,serif" font-size="14.00">rep=no, t=no, r=yes, m=yes, c=no</text>
</g>
<!-- n14&#45;&gt;n15 -->
<g id="edge14" class="edge">
<title>n14&#45;&gt;n15</title>
<path fill="none" stroke="black" d="M1334.2,-667.72C1354.73,-656.54 1377.65,-644.05 1398.78,-632.54"/>
<polygon fill="black" stroke="black" points="1400.6,-635.54 1407.71,-627.68 1397.25,-629.39 1400.6,-635.54"/>
</g>
<!-- n19 -->
<g id="node16" class="node">
<title>n19</title>
<ellipse fill="#98D2A5" stroke="black" cx="809.92" cy="-481.29" rx="195.74" ry="37.45"/>
<text text-anchor="middle" x="809.92" y="-492.59" font-family="Times,serif" font-size="14.00">hay</text>
<text text-anchor="middle" x="809.92" y="-477.59" font-family="Times,serif" font-size="14.00">vaip3s0 (cobj)</text>
<text text-anchor="middle" x="809.92" y="-462.59" font-family="Times,serif" font-size="14.00">rep=no, t=no, r=yes, m=yes, c=yes</text>
</g>
<!-- n15&#45;&gt;n19 -->
<g id="edge15" class="edge">
<title>n15&#45;&gt;n19</title>
<path fill="none" stroke="black" d="M1334.63,-565.93C1313.32,-562.1 1291.54,-558.27 1270.92,-554.77 1171.61,-537.91 1060.02,-520.33 971.51,-506.7"/>
<polygon fill="black" stroke="black" points="971.8,-503.21 961.38,-505.15 970.73,-510.13 971.8,-503.21"/>
</g>
<!-- n23 -->
<g id="node17" class="node">
<title>n23</title>
<ellipse fill="#98D2A5" stroke="black" cx="1268.92" cy="-481.29" rx="195.74" ry="37.45"/>
<text text-anchor="middle" x="1268.92" y="-492.59" font-family="Times,serif" font-size="14.00">en</text>
<text text-anchor="middle" x="1268.92" y="-477.59" font-family="Times,serif" font-size="14.00">sps00 (cobj)</text>
<text text-anchor="middle" x="1268.92" y="-462.59" font-family="Times,serif" font-size="14.00">rep=no, t=no, r=yes, m=yes, c=yes</text>
</g>
<!-- n15&#45;&gt;n23 -->
<g id="edge16" class="edge">
<title>n15&#45;&gt;n23</title>
<path fill="none" stroke="black" d="M1407,-556.77C1386.27,-545.59 1363.12,-533.1 1341.78,-521.59"/>
<polygon fill="black" stroke="black" points="1343.23,-518.39 1332.76,-516.73 1339.9,-524.55 1343.23,-518.39"/>
</g>
<!-- n28 -->
<g id="node18" class="node">
<title>n28</title>
<ellipse fill="#98D2A5" stroke="black" cx="1673.92" cy="-481.29" rx="190.84" ry="37.45"/>
<text text-anchor="middle" x="1673.92" y="-492.59" font-family="Times,serif" font-size="14.00">o</text>
<text text-anchor="middle" x="1673.92" y="-477.59" font-family="Times,serif" font-size="14.00">cc (coord_fixed)</text>
<text text-anchor="middle" x="1673.92" y="-462.59" font-family="Times,serif" font-size="14.00">rep=no, t=no, r=yes, m=yes, c=no</text>
</g>
<!-- n15&#45;&gt;n28 -->
<g id="edge17" class="edge">
<title>n15&#45;&gt;n28</title>
<path fill="none" stroke="black" d="M1534.87,-556.92C1555.91,-545.63 1579.46,-532.99 1601.11,-521.37"/>
<polygon fill="black" stroke="black" points="1602.78,-524.44 1609.94,-516.63 1599.47,-518.27 1602.78,-524.44"/>
</g>
<!-- n29 -->
<g id="node19" class="node">
<title>n29</title>
<ellipse fill="#98D2A5" stroke="black" cx="2078.92" cy="-481.29" rx="195.74" ry="37.45"/>
<text text-anchor="middle" x="2078.92" y="-492.59" font-family="Times,serif" font-size="14.00">bajo</text>
<text text-anchor="middle" x="2078.92" y="-477.59" font-family="Times,serif" font-size="14.00">sps00 (cobj)</text>
<text text-anchor="middle" x="2078.92" y="-462.59" font-family="Times,serif" font-size="14.00">rep=no, t=no, r=yes, m=yes, c=yes</text>
</g>
<!-- n15&#45;&gt;n29 -->
<g id="edge18" class="edge">
<title>n15&#45;&gt;n29</title>
<path fill="none" stroke="black" d="M1609.64,-566.38C1704.77,-549.34 1830.93,-526.73 1928.47,-509.25"/>
<polygon fill="black" stroke="black" points="1929.19,-512.68 1938.42,-507.47 1927.96,-505.79 1929.19,-512.68"/>
</g>
<!-- n16 -->
<g id="node20" class="node">
<title>n16</title>
<ellipse fill="#98D2A5" stroke="black" cx="385.92" cy="-370.34" rx="190.84" ry="37.45"/>
<text text-anchor="middle" x="385.92" y="-381.64" font-family="Times,serif" font-size="14.00">en</text>
<text text-anchor="middle" x="385.92" y="-366.64" font-family="Times,serif" font-size="14.00">sps00 (prepv)</text>
<text text-anchor="middle" x="385.92" y="-351.64" font-family="Times,serif" font-size="14.00">rep=no, t=no, r=yes, m=yes, c=no</text>
</g>
<!-- n19&#45;&gt;n16 -->
<g id="edge19" class="edge">
<title>n19&#45;&gt;n16</title>
<path fill="none" stroke="black" d="M695.46,-450.88C637.84,-436.07 567.93,-418.11 509.14,-403"/>
<polygon fill="black" stroke="black" points="509.98,-399.6 499.43,-400.5 508.24,-406.38 509.98,-399.6"/>
</g>
<!-- n21 -->
<g id="node21" class="node">
<title>n21</title>
<ellipse fill="#98D2A5" stroke="black" cx="809.92" cy="-370.34" rx="190.84" ry="37.45"/>
<text text-anchor="middle" x="809.92" y="-381.64" font-family="Times,serif" font-size="14.00">exgenerales</text>
<text text-anchor="middle" x="809.92" y="-366.64" font-family="Times,serif" font-size="14.00">nccp000 (dobj)</text>
<text text-anchor="middle" x="809.92" y="-351.64" font-family="Times,serif" font-size="14.00">rep=no, t=no, r=yes, m=yes, c=no</text>
</g>
<!-- n19&#45;&gt;n21 -->
<g id="edge20" class="edge">
<title>n19&#45;&gt;n21</title>
<path fill="none" stroke="black" d="M809.92,-443.71C809.92,-435.53 809.92,-426.75 809.92,-418.23"/>
<polygon fill="black" stroke="black" points="813.42,-418.01 809.92,-408.01 806.42,-418.01 813.42,-418.01"/>
</g>
<!-- n24 -->
<g id="node26" class="node">
<title>n24</title>
<ellipse fill="#98D2A5" stroke="black" cx="1293.92" cy="-370.34" rx="190.84" ry="37.45"/>
<text text-anchor="middle" x="1293.92" y="-381.64" font-family="Times,serif" font-size="14.00">situación</text>
<text text-anchor="middle" x="1293.92" y="-366.64" font-family="Times,serif" font-size="14.00">ncfs000 (pobj)</text>
<text text-anchor="middle" x="1293.92" y="-351.64" font-family="Times,serif" font-size="14.00">rep=no, t=no, r=yes, m=yes, c=no</text>
</g>
<!-- n23&#45;&gt;n24 -->
<g id="edge25" class="edge">
<title>n23&#45;&gt;n24</title>
<path fill="none" stroke="black" d="M1277.31,-443.71C1279.21,-435.44 1281.25,-426.56 1283.22,-417.95"/>
<polygon fill="black" stroke="black" points="1286.68,-418.54 1285.5,-408.01 1279.86,-416.97 1286.68,-418.54"/>
</g>
<!-- n30 -->
<g id="node30" class="node">
<title>n30</title>
<ellipse fill="#98D2A5" stroke="black" cx="2078.92" cy="-370.34" rx="190.84" ry="37.45"/>
<text text-anchor="middle" x="2078.92" y="-381.64" font-family="Times,serif" font-size="14.00">control</text>
<text text-anchor="middle" x="2078.92" y="-366.64" font-family="Times,serif" font-size="14.00">ncms000 (pobj)</text>
<text text-anchor="middle" x="2078.92" y="-351.64" font-family="Times,serif" font-size="14.00">rep=no, t=no, r=yes, m=yes, c=no</text>
</g>
<!-- n29&#45;&gt;n30 -->
<g id="edge29" class="edge">
<title>n29&#45;&gt;n30</title>
<path fill="none" stroke="black" d="M2078.92,-443.71C2078.92,-435.53 2078.92,-426.75 2078.92,-418.23"/>
<polygon fill="black" stroke="black" points="2082.42,-418.01 2078.92,-408.01 2075.42,-418.01 2082.42,-418.01"/>
</g>
<!-- n18 -->
<g id="node22" class="node">
<title>n18</title>
<ellipse fill="#98D2A5" stroke="black" cx="190.92" cy="-259.38" rx="190.84" ry="37.45"/>
<text text-anchor="middle" x="190.92" y="-270.68" font-family="Times,serif" font-size="14.00">actualidad</text>
<text text-anchor="middle" x="190.92" y="-255.68" font-family="Times,serif" font-size="14.00">ncfs000 (pobj)</text>
<text text-anchor="middle" x="190.92" y="-240.68" font-family="Times,serif" font-size="14.00">rep=no, t=no, r=yes, m=yes, c=no</text>
</g>
<!-- n16&#45;&gt;n18 -->
<g id="edge21" class="edge">
<title>n16&#45;&gt;n18</title>
<path fill="none" stroke="black" d="M324.22,-334.86C304.39,-323.78 282.27,-311.42 261.83,-300.01"/>
<polygon fill="black" stroke="black" points="263.32,-296.83 252.89,-295.01 259.91,-302.94 263.32,-296.83"/>
</g>
<!-- n20 -->
<g id="node24" class="node">
<title>n20</title>
<ellipse fill="#98D2A5" stroke="black" cx="590.92" cy="-259.38" rx="190.84" ry="37.45"/>
<text text-anchor="middle" x="590.92" y="-270.68" font-family="Times,serif" font-size="14.00">nueve</text>
<text text-anchor="middle" x="590.92" y="-255.68" font-family="Times,serif" font-size="14.00">dn0cp0 (det)</text>
<text text-anchor="middle" x="590.92" y="-240.68" font-family="Times,serif" font-size="14.00">rep=no, t=no, r=yes, m=yes, c=no</text>
</g>
<!-- n21&#45;&gt;n20 -->
<g id="edge23" class="edge">
<title>n21&#45;&gt;n20</title>
<path fill="none" stroke="black" d="M741.53,-335.31C718.38,-323.8 692.37,-310.85 668.55,-299.01"/>
<polygon fill="black" stroke="black" points="670.06,-295.85 659.55,-294.53 666.94,-302.11 670.06,-295.85"/>
</g>
<!-- n22 -->
<g id="node25" class="node">
<title>n22</title>
<ellipse fill="#98D2A5" stroke="black" cx="990.92" cy="-259.38" rx="190.84" ry="37.45"/>
<text text-anchor="middle" x="990.92" y="-270.68" font-family="Times,serif" font-size="14.00">yugoslavos</text>
<text text-anchor="middle" x="990.92" y="-255.68" font-family="Times,serif" font-size="14.00">aq0mp0 (amod)</text>
<text text-anchor="middle" x="990.92" y="-240.68" font-family="Times,serif" font-size="14.00">rep=no, t=no, r=yes, m=yes, c=no</text>
</g>
<!-- n21&#45;&gt;n22 -->
<g id="edge24" class="edge">
<title>n21&#45;&gt;n22</title>
<path fill="none" stroke="black" d="M867.69,-334.56C885.73,-323.7 905.77,-311.64 924.37,-300.44"/>
<polygon fill="black" stroke="black" points="926.32,-303.36 933.08,-295.2 922.71,-297.36 926.32,-303.36"/>
</g>
<!-- n17 -->
<g id="node23" class="node">
<title>n17</title>
<ellipse fill="#98D2A5" stroke="black" cx="190.92" cy="-148.43" rx="190.84" ry="37.45"/>
<text text-anchor="middle" x="190.92" y="-159.73" font-family="Times,serif" font-size="14.00">la</text>
<text text-anchor="middle" x="190.92" y="-144.73" font-family="Times,serif" font-size="14.00">da0fs0 (det)</text>
<text text-anchor="middle" x="190.92" y="-129.73" font-family="Times,serif" font-size="14.00">rep=no, t=no, r=yes, m=yes, c=no</text>
</g>
<!-- n18&#45;&gt;n17 -->
<g id="edge22" class="edge">
<title>n18&#45;&gt;n17</title>
<path fill="none" stroke="black" d="M190.92,-221.8C190.92,-213.63 190.92,-204.85 190.92,-196.32"/>
<polygon fill="black" stroke="black" points="194.42,-196.1 190.92,-186.1 187.42,-196.1 194.42,-196.1"/>
</g>
<!-- n25 -->
<g id="node27" class="node">
<title>n25</title>
<ellipse fill="#98D2A5" stroke="black" cx="1390.92" cy="-259.38" rx="190.84" ry="37.45"/>
<text text-anchor="middle" x="1390.92" y="-270.68" font-family="Times,serif" font-size="14.00">de</text>
<text text-anchor="middle" x="1390.92" y="-255.68" font-family="Times,serif" font-size="14.00">sps00 (prepn)</text>
<text text-anchor="middle" x="1390.92" y="-240.68" font-family="Times,serif" font-size="14.00">rep=no, t=no, r=yes, m=yes, c=no</text>
</g>
<!-- n24&#45;&gt;n25 -->
<g id="edge26" class="edge">
<title>n24&#45;&gt;n25</title>
<path fill="none" stroke="black" d="M1325.95,-333.36C1334.22,-324.07 1343.22,-313.96 1351.81,-304.31"/>
<polygon fill="black" stroke="black" points="1354.56,-306.49 1358.59,-296.7 1349.33,-301.84 1354.56,-306.49"/>
</g>
<!-- n26 -->
<g id="node28" class="node">
<title>n26</title>
<ellipse fill="#98D2A5" stroke="black" cx="1390.92" cy="-148.43" rx="190.84" ry="37.45"/>
<text text-anchor="middle" x="1390.92" y="-159.73" font-family="Times,serif" font-size="14.00">arresto</text>
<text text-anchor="middle" x="1390.92" y="-144.73" font-family="Times,serif" font-size="14.00">ncms000 (pobj)</text>
<text text-anchor="middle" x="1390.92" y="-129.73" font-family="Times,serif" font-size="14.00">rep=no, t=no, r=yes, m=yes, c=no</text>
</g>
<!-- n25&#45;&gt;n26 -->
<g id="edge27" class="edge">
<title>n25&#45;&gt;n26</title>
<path fill="none" stroke="black" d="M1390.92,-221.8C1390.92,-213.63 1390.92,-204.85 1390.92,-196.32"/>
<polygon fill="black" stroke="black" points="1394.42,-196.1 1390.92,-186.1 1387.42,-196.1 1394.42,-196.1"/>
</g>
<!-- n27 -->
<g id="node29" class="node">
<title>n27</title>
<ellipse fill="#98D2A5" stroke="black" cx="1390.92" cy="-37.48" rx="190.84" ry="37.45"/>
<text text-anchor="middle" x="1390.92" y="-48.78" font-family="Times,serif" font-size="14.00">domiciliario</text>
<text text-anchor="middle" x="1390.92" y="-33.78" font-family="Times,serif" font-size="14.00">aq0ms0 (amod)</text>
<text text-anchor="middle" x="1390.92" y="-18.78" font-family="Times,serif" font-size="14.00">rep=no, t=no, r=yes, m=yes, c=no</text>
</g>
<!-- n26&#45;&gt;n27 -->
<g id="edge28" class="edge">
<title>n26&#45;&gt;n27</title>
<path fill="none" stroke="black" d="M1390.92,-110.85C1390.92,-102.67 1390.92,-93.89 1390.92,-85.37"/>
<polygon fill="black" stroke="black" points="1394.42,-85.15 1390.92,-75.15 1387.42,-85.15 1394.42,-85.15"/>
</g>
<!-- n31 -->
<g id="node31" class="node">
<title>n31</title>
<ellipse fill="#98D2A5" stroke="black" cx="2078.92" cy="-259.38" rx="190.84" ry="37.45"/>
<text text-anchor="middle" x="2078.92" y="-270.68" font-family="Times,serif" font-size="14.00">de</text>
<text text-anchor="middle" x="2078.92" y="-255.68" font-family="Times,serif" font-size="14.00">sps00 (prepn)</text>
<text text-anchor="middle" x="2078.92" y="-240.68" font-family="Times,serif" font-size="14.00">rep=no, t=no, r=yes, m=yes, c=no</text>
</g>
<!-- n30&#45;&gt;n31 -->
<g id="edge30" class="edge">
<title>n30&#45;&gt;n31</title>
<path fill="none" stroke="black" d="M2078.92,-332.75C2078.92,-324.58 2078.92,-315.8 2078.92,-307.27"/>
<polygon fill="black" stroke="black" points="2082.42,-307.06 2078.92,-297.06 2075.42,-307.06 2082.42,-307.06"/>
</g>
<!-- n32 -->
<g id="node32" class="node">
<title>n32</title>
<ellipse fill="#98D2A5" stroke="black" cx="2078.92" cy="-148.43" rx="190.84" ry="37.45"/>
<text text-anchor="middle" x="2078.92" y="-159.73" font-family="Times,serif" font-size="14.00">movimientos</text>
<text text-anchor="middle" x="2078.92" y="-144.73" font-family="Times,serif" font-size="14.00">ncmp000 (pobj)</text>
<text text-anchor="middle" x="2078.92" y="-129.73" font-family="Times,serif" font-size="14.00">rep=no, t=no, r=yes, m=yes, c=no</text>
</g>
<!-- n31&#45;&gt;n32 -->
<g id="edge31" class="edge">
<title>n31&#45;&gt;n32</title>
<path fill="none" stroke="black" d="M2078.92,-221.8C2078.92,-213.63 2078.92,-204.85 2078.92,-196.32"/>
<polygon fill="black" stroke="black" points="2082.42,-196.1 2078.92,-186.1 2075.42,-196.1 2082.42,-196.1"/>
</g>
</g>
</svg>
