<?xml version="1.0" encoding="UTF-8" standalone="no"?>
<!DOCTYPE svg PUBLIC "-//W3C//DTD SVG 1.1//EN"
 "http://www.w3.org/Graphics/SVG/1.1/DTD/svg11.dtd">
<!-- Generated by graphviz version 2.43.0 (0)
 -->
<!-- Title: tree Pages: 1 -->
<svg width="1947pt" height="971pt"
 viewBox="0.00 0.00 1946.89 970.58" xmlns="http://www.w3.org/2000/svg" xmlns:xlink="http://www.w3.org/1999/xlink">
<g id="graph0" class="graph" transform="scale(1 1) rotate(0) translate(4 966.58)">
<title>tree</title>
<polygon fill="white" stroke="transparent" points="-4,4 -4,-966.58 1942.89,-966.58 1942.89,4 -4,4"/>
<!-- n4 -->
<g id="node1" class="node">
<title>n4</title>
<ellipse fill="#98D2A5" stroke="black" cx="957.97" cy="-925.1" rx="185.94" ry="37.45"/>
<text text-anchor="middle" x="957.97" y="-936.4" font-family="Times,serif" font-size="14.00">sería</text>
<text text-anchor="middle" x="957.97" y="-921.4" font-family="Times,serif" font-size="14.00">vsic3s0 (root)</text>
<text text-anchor="middle" x="957.97" y="-906.4" font-family="Times,serif" font-size="14.00">rep=no, t=no, r=no, m=yes, c=no</text>
</g>
<!-- n1 -->
<g id="node2" class="node">
<title>n1</title>
<ellipse fill="#98D2A5" stroke="black" cx="185.97" cy="-814.15" rx="185.94" ry="37.45"/>
<text text-anchor="middle" x="185.97" y="-825.45" font-family="Times,serif" font-size="14.00">Por</text>
<text text-anchor="middle" x="185.97" y="-810.45" font-family="Times,serif" font-size="14.00">sps00 (prepv)</text>
<text text-anchor="middle" x="185.97" y="-795.45" font-family="Times,serif" font-size="14.00">rep=no, t=no, r=no, m=yes, c=no</text>
</g>
<!-- n4&#45;&gt;n1 -->
<g id="edge1" class="edge">
<title>n4&#45;&gt;n1</title>
<path fill="none" stroke="black" d="M796.56,-906.45C680.66,-893.14 520.87,-873.48 380.97,-851.63 363.53,-848.9 345.25,-845.81 327.18,-842.6"/>
<polygon fill="black" stroke="black" points="327.62,-839.12 317.16,-840.8 326.39,-846.01 327.62,-839.12"/>
</g>
<!-- n3 -->
<g id="node3" class="node">
<title>n3</title>
<ellipse fill="none" stroke="black" cx="571.97" cy="-814.15" rx="181.95" ry="37.45"/>
<text text-anchor="middle" x="571.97" y="-825.45" font-family="Times,serif" font-size="14.00">,</text>
<text text-anchor="middle" x="571.97" y="-810.45" font-family="Times,serif" font-size="14.00">fc (punct)</text>
<text text-anchor="middle" x="571.97" y="-795.45" font-family="Times,serif" font-size="14.00">rep=no, t=no, r=no, m=no, c=no</text>
</g>
<!-- n4&#45;&gt;n3 -->
<g id="edge2" class="edge">
<title>n4&#45;&gt;n3</title>
<path fill="none" stroke="black" d="M852.24,-894.26C800.97,-879.79 739.29,-862.38 686.86,-847.58"/>
<polygon fill="black" stroke="black" points="687.76,-844.2 677.18,-844.85 685.86,-850.93 687.76,-844.2"/>
</g>
<!-- n5 -->
<g id="node4" class="node">
<title>n5</title>
<ellipse fill="#98D2A5" stroke="black" cx="957.97" cy="-814.15" rx="185.94" ry="37.45"/>
<text text-anchor="middle" x="957.97" y="-825.45" font-family="Times,serif" font-size="14.00">bueno</text>
<text text-anchor="middle" x="957.97" y="-810.45" font-family="Times,serif" font-size="14.00">aq0ms0 (attr)</text>
<text text-anchor="middle" x="957.97" y="-795.45" font-family="Times,serif" font-size="14.00">rep=no, t=no, r=no, m=yes, c=no</text>
</g>
<!-- n4&#45;&gt;n5 -->
<g id="edge3" class="edge">
<title>n4&#45;&gt;n5</title>
<path fill="none" stroke="black" d="M957.97,-887.52C957.97,-879.35 957.97,-870.57 957.97,-862.04"/>
<polygon fill="black" stroke="black" points="961.47,-861.82 957.97,-851.82 954.47,-861.82 961.47,-861.82"/>
</g>
<!-- n6 -->
<g id="node5" class="node">
<title>n6</title>
<ellipse fill="#98D2A5" stroke="black" cx="1347.97" cy="-814.15" rx="185.94" ry="37.45"/>
<text text-anchor="middle" x="1347.97" y="-825.45" font-family="Times,serif" font-size="14.00">que</text>
<text text-anchor="middle" x="1347.97" y="-810.45" font-family="Times,serif" font-size="14.00">cs (csubj)</text>
<text text-anchor="middle" x="1347.97" y="-795.45" font-family="Times,serif" font-size="14.00">rep=no, t=no, r=no, m=yes, c=no</text>
</g>
<!-- n4&#45;&gt;n6 -->
<g id="edge4" class="edge">
<title>n4&#45;&gt;n6</title>
<path fill="none" stroke="black" d="M1064.54,-894.33C1116.34,-879.86 1178.71,-862.43 1231.74,-847.62"/>
<polygon fill="black" stroke="black" points="1232.84,-850.95 1241.53,-844.89 1230.96,-844.21 1232.84,-850.95"/>
</g>
<!-- n20 -->
<g id="node6" class="node">
<title>n20</title>
<ellipse fill="none" stroke="black" cx="1733.97" cy="-814.15" rx="181.95" ry="37.45"/>
<text text-anchor="middle" x="1733.97" y="-825.45" font-family="Times,serif" font-size="14.00">.</text>
<text text-anchor="middle" x="1733.97" y="-810.45" font-family="Times,serif" font-size="14.00">fp (punct)</text>
<text text-anchor="middle" x="1733.97" y="-795.45" font-family="Times,serif" font-size="14.00">rep=no, t=no, r=no, m=no, c=no</text>
</g>
<!-- n4&#45;&gt;n20 -->
<g id="edge5" class="edge">
<title>n4&#45;&gt;n20</title>
<path fill="none" stroke="black" d="M1120.71,-906.83C1238.3,-893.65 1400.8,-873.98 1542.97,-851.63 1560.2,-848.92 1578.26,-845.81 1596.11,-842.59"/>
<polygon fill="black" stroke="black" points="1596.79,-846.02 1606,-840.78 1595.54,-839.14 1596.79,-846.02"/>
</g>
<!-- n2 -->
<g id="node7" class="node">
<title>n2</title>
<ellipse fill="#98D2A5" stroke="black" cx="185.97" cy="-703.2" rx="185.94" ry="37.45"/>
<text text-anchor="middle" x="185.97" y="-714.5" font-family="Times,serif" font-size="14.00">eso</text>
<text text-anchor="middle" x="185.97" y="-699.5" font-family="Times,serif" font-size="14.00">pd0ns000 (pobj)</text>
<text text-anchor="middle" x="185.97" y="-684.5" font-family="Times,serif" font-size="14.00">rep=no, t=no, r=no, m=yes, c=no</text>
</g>
<!-- n1&#45;&gt;n2 -->
<g id="edge6" class="edge">
<title>n1&#45;&gt;n2</title>
<path fill="none" stroke="black" d="M185.97,-776.57C185.97,-768.39 185.97,-759.61 185.97,-751.09"/>
<polygon fill="black" stroke="black" points="189.47,-750.87 185.97,-740.87 182.47,-750.87 189.47,-750.87"/>
</g>
<!-- n8 -->
<g id="node8" class="node">
<title>n8</title>
<ellipse fill="#98D2A5" stroke="black" cx="1347.97" cy="-703.2" rx="190.84" ry="37.45"/>
<text text-anchor="middle" x="1347.97" y="-714.5" font-family="Times,serif" font-size="14.00">rectificara</text>
<text text-anchor="middle" x="1347.97" y="-699.5" font-family="Times,serif" font-size="14.00">vmsi3s0 (cobj)</text>
<text text-anchor="middle" x="1347.97" y="-684.5" font-family="Times,serif" font-size="14.00">rep=no, t=no, r=yes, m=yes, c=no</text>
</g>
<!-- n6&#45;&gt;n8 -->
<g id="edge7" class="edge">
<title>n6&#45;&gt;n8</title>
<path fill="none" stroke="black" d="M1347.97,-776.57C1347.97,-768.39 1347.97,-759.61 1347.97,-751.09"/>
<polygon fill="black" stroke="black" points="1351.47,-750.87 1347.97,-740.87 1344.47,-750.87 1351.47,-750.87"/>
</g>
<!-- n7 -->
<g id="node9" class="node">
<title>n7</title>
<ellipse fill="#98D2A5" stroke="black" cx="947.97" cy="-592.24" rx="190.84" ry="37.45"/>
<text text-anchor="middle" x="947.97" y="-603.54" font-family="Times,serif" font-size="14.00">CiU</text>
<text text-anchor="middle" x="947.97" y="-588.54" font-family="Times,serif" font-size="14.00">np00000 (nsubj)</text>
<text text-anchor="middle" x="947.97" y="-573.54" font-family="Times,serif" font-size="14.00">rep=no, t=yes, r=no, m=yes, c=no</text>
</g>
<!-- n8&#45;&gt;n7 -->
<g id="edge8" class="edge">
<title>n8&#45;&gt;n7</title>
<path fill="none" stroke="black" d="M1238.67,-672.42C1185.53,-657.95 1121.56,-640.53 1067.17,-625.71"/>
<polygon fill="black" stroke="black" points="1068.05,-622.32 1057.49,-623.07 1066.21,-629.08 1068.05,-622.32"/>
</g>
<!-- n10 -->
<g id="node10" class="node">
<title>n10</title>
<ellipse fill="#98D2A5" stroke="black" cx="1347.97" cy="-592.24" rx="190.84" ry="37.45"/>
<text text-anchor="middle" x="1347.97" y="-603.54" font-family="Times,serif" font-size="14.00">propuesta</text>
<text text-anchor="middle" x="1347.97" y="-588.54" font-family="Times,serif" font-size="14.00">ncfs000 (dobj)</text>
<text text-anchor="middle" x="1347.97" y="-573.54" font-family="Times,serif" font-size="14.00">rep=no, t=no, r=yes, m=yes, c=no</text>
</g>
<!-- n8&#45;&gt;n10 -->
<g id="edge9" class="edge">
<title>n8&#45;&gt;n10</title>
<path fill="none" stroke="black" d="M1347.97,-665.61C1347.97,-657.44 1347.97,-648.66 1347.97,-640.13"/>
<polygon fill="black" stroke="black" points="1351.47,-639.92 1347.97,-629.92 1344.47,-639.92 1351.47,-639.92"/>
</g>
<!-- n14 -->
<g id="node11" class="node">
<title>n14</title>
<ellipse fill="#98D2A5" stroke="black" cx="1747.97" cy="-592.24" rx="190.84" ry="37.45"/>
<text text-anchor="middle" x="1747.97" y="-603.54" font-family="Times,serif" font-size="14.00">para</text>
<text text-anchor="middle" x="1747.97" y="-588.54" font-family="Times,serif" font-size="14.00">sps00 (prepv)</text>
<text text-anchor="middle" x="1747.97" y="-573.54" font-family="Times,serif" font-size="14.00">rep=no, t=no, r=yes, m=yes, c=no</text>
</g>
<!-- n8&#45;&gt;n14 -->
<g id="edge10" class="edge">
<title>n8&#45;&gt;n14</title>
<path fill="none" stroke="black" d="M1457.27,-672.42C1510.41,-657.95 1574.38,-640.53 1628.76,-625.71"/>
<polygon fill="black" stroke="black" points="1629.72,-629.08 1638.45,-623.07 1627.88,-622.32 1629.72,-629.08"/>
</g>
<!-- n9 -->
<g id="node12" class="node">
<title>n9</title>
<ellipse fill="#98D2A5" stroke="black" cx="947.97" cy="-481.29" rx="190.84" ry="37.45"/>
<text text-anchor="middle" x="947.97" y="-492.59" font-family="Times,serif" font-size="14.00">su</text>
<text text-anchor="middle" x="947.97" y="-477.59" font-family="Times,serif" font-size="14.00">dp3cs0 (poss)</text>
<text text-anchor="middle" x="947.97" y="-462.59" font-family="Times,serif" font-size="14.00">rep=no, t=no, r=yes, m=yes, c=no</text>
</g>
<!-- n10&#45;&gt;n9 -->
<g id="edge11" class="edge">
<title>n10&#45;&gt;n9</title>
<path fill="none" stroke="black" d="M1238.67,-561.47C1185.53,-547 1121.56,-529.57 1067.17,-514.76"/>
<polygon fill="black" stroke="black" points="1068.05,-511.37 1057.49,-512.12 1066.21,-518.13 1068.05,-511.37"/>
</g>
<!-- n11 -->
<g id="node13" class="node">
<title>n11</title>
<ellipse fill="#98D2A5" stroke="black" cx="1347.97" cy="-481.29" rx="190.84" ry="37.45"/>
<text text-anchor="middle" x="1347.97" y="-492.59" font-family="Times,serif" font-size="14.00">de</text>
<text text-anchor="middle" x="1347.97" y="-477.59" font-family="Times,serif" font-size="14.00">sps00 (prepn)</text>
<text text-anchor="middle" x="1347.97" y="-462.59" font-family="Times,serif" font-size="14.00">rep=no, t=no, r=yes, m=yes, c=no</text>
</g>
<!-- n10&#45;&gt;n11 -->
<g id="edge12" class="edge">
<title>n10&#45;&gt;n11</title>
<path fill="none" stroke="black" d="M1347.97,-554.66C1347.97,-546.49 1347.97,-537.71 1347.97,-529.18"/>
<polygon fill="black" stroke="black" points="1351.47,-528.96 1347.97,-518.96 1344.47,-528.96 1351.47,-528.96"/>
</g>
<!-- n15 -->
<g id="node16" class="node">
<title>n15</title>
<ellipse fill="#98D2A5" stroke="black" cx="1747.97" cy="-481.29" rx="190.84" ry="37.45"/>
<text text-anchor="middle" x="1747.97" y="-492.59" font-family="Times,serif" font-size="14.00">adaptarla</text>
<text text-anchor="middle" x="1747.97" y="-477.59" font-family="Times,serif" font-size="14.00">vmn0000 (pobj)</text>
<text text-anchor="middle" x="1747.97" y="-462.59" font-family="Times,serif" font-size="14.00">rep=no, t=no, r=yes, m=yes, c=no</text>
</g>
<!-- n14&#45;&gt;n15 -->
<g id="edge15" class="edge">
<title>n14&#45;&gt;n15</title>
<path fill="none" stroke="black" d="M1747.97,-554.66C1747.97,-546.49 1747.97,-537.71 1747.97,-529.18"/>
<polygon fill="black" stroke="black" points="1751.47,-528.96 1747.97,-518.96 1744.47,-528.96 1751.47,-528.96"/>
</g>
<!-- n12 -->
<g id="node14" class="node">
<title>n12</title>
<ellipse fill="#98D2A5" stroke="black" cx="1347.97" cy="-370.34" rx="190.84" ry="37.45"/>
<text text-anchor="middle" x="1347.97" y="-381.64" font-family="Times,serif" font-size="14.00">pacto</text>
<text text-anchor="middle" x="1347.97" y="-366.64" font-family="Times,serif" font-size="14.00">ncms000 (pobj)</text>
<text text-anchor="middle" x="1347.97" y="-351.64" font-family="Times,serif" font-size="14.00">rep=no, t=no, r=yes, m=yes, c=no</text>
</g>
<!-- n11&#45;&gt;n12 -->
<g id="edge13" class="edge">
<title>n11&#45;&gt;n12</title>
<path fill="none" stroke="black" d="M1347.97,-443.71C1347.97,-435.53 1347.97,-426.75 1347.97,-418.23"/>
<polygon fill="black" stroke="black" points="1351.47,-418.01 1347.97,-408.01 1344.47,-418.01 1351.47,-418.01"/>
</g>
<!-- n13 -->
<g id="node15" class="node">
<title>n13</title>
<ellipse fill="#98D2A5" stroke="black" cx="1347.97" cy="-259.38" rx="190.84" ry="37.45"/>
<text text-anchor="middle" x="1347.97" y="-270.68" font-family="Times,serif" font-size="14.00">fiscal</text>
<text text-anchor="middle" x="1347.97" y="-255.68" font-family="Times,serif" font-size="14.00">aq0cs0 (amod)</text>
<text text-anchor="middle" x="1347.97" y="-240.68" font-family="Times,serif" font-size="14.00">rep=no, t=no, r=yes, m=yes, c=no</text>
</g>
<!-- n12&#45;&gt;n13 -->
<g id="edge14" class="edge">
<title>n12&#45;&gt;n13</title>
<path fill="none" stroke="black" d="M1347.97,-332.75C1347.97,-324.58 1347.97,-315.8 1347.97,-307.27"/>
<polygon fill="black" stroke="black" points="1351.47,-307.06 1347.97,-297.06 1344.47,-307.06 1351.47,-307.06"/>
</g>
<!-- n16 -->
<g id="node17" class="node">
<title>n16</title>
<ellipse fill="#98D2A5" stroke="black" cx="1747.97" cy="-370.34" rx="190.84" ry="37.45"/>
<text text-anchor="middle" x="1747.97" y="-381.64" font-family="Times,serif" font-size="14.00">a</text>
<text text-anchor="middle" x="1747.97" y="-366.64" font-family="Times,serif" font-size="14.00">sps00 (oobj)</text>
<text text-anchor="middle" x="1747.97" y="-351.64" font-family="Times,serif" font-size="14.00">rep=no, t=no, r=yes, m=yes, c=no</text>
</g>
<!-- n15&#45;&gt;n16 -->
<g id="edge16" class="edge">
<title>n15&#45;&gt;n16</title>
<path fill="none" stroke="black" d="M1747.97,-443.71C1747.97,-435.53 1747.97,-426.75 1747.97,-418.23"/>
<polygon fill="black" stroke="black" points="1751.47,-418.01 1747.97,-408.01 1744.47,-418.01 1751.47,-418.01"/>
</g>
<!-- n17 -->
<g id="node18" class="node">
<title>n17</title>
<ellipse fill="#98D2A5" stroke="black" cx="1747.97" cy="-259.38" rx="190.84" ry="37.45"/>
<text text-anchor="middle" x="1747.97" y="-270.68" font-family="Times,serif" font-size="14.00">planteamientos</text>
<text text-anchor="middle" x="1747.97" y="-255.68" font-family="Times,serif" font-size="14.00">ncmp000 (pobj)</text>
<text text-anchor="middle" x="1747.97" y="-240.68" font-family="Times,serif" font-size="14.00">rep=no, t=no, r=yes, m=yes, c=no</text>
</g>
<!-- n16&#45;&gt;n17 -->
<g id="edge17" class="edge">
<title>n16&#45;&gt;n17</title>
<path fill="none" stroke="black" d="M1747.97,-332.75C1747.97,-324.58 1747.97,-315.8 1747.97,-307.27"/>
<polygon fill="black" stroke="black" points="1751.47,-307.06 1747.97,-297.06 1744.47,-307.06 1751.47,-307.06"/>
</g>
<!-- n19 -->
<g id="node19" class="node">
<title>n19</title>
<ellipse fill="#98D2A5" stroke="black" cx="1747.97" cy="-148.43" rx="190.84" ry="37.45"/>
<text text-anchor="middle" x="1747.97" y="-159.73" font-family="Times,serif" font-size="14.00">rigurosos</text>
<text text-anchor="middle" x="1747.97" y="-144.73" font-family="Times,serif" font-size="14.00">aq0mp0 (amod)</text>
<text text-anchor="middle" x="1747.97" y="-129.73" font-family="Times,serif" font-size="14.00">rep=no, t=no, r=yes, m=yes, c=no</text>
</g>
<!-- n17&#45;&gt;n19 -->
<g id="edge18" class="edge">
<title>n17&#45;&gt;n19</title>
<path fill="none" stroke="black" d="M1747.97,-221.8C1747.97,-213.63 1747.97,-204.85 1747.97,-196.32"/>
<polygon fill="black" stroke="black" points="1751.47,-196.1 1747.97,-186.1 1744.47,-196.1 1751.47,-196.1"/>
</g>
<!-- n18 -->
<g id="node20" class="node">
<title>n18</title>
<ellipse fill="#98D2A5" stroke="black" cx="1747.97" cy="-37.48" rx="190.84" ry="37.45"/>
<text text-anchor="middle" x="1747.97" y="-48.78" font-family="Times,serif" font-size="14.00">más</text>
<text text-anchor="middle" x="1747.97" y="-33.78" font-family="Times,serif" font-size="14.00">rg (advmod)</text>
<text text-anchor="middle" x="1747.97" y="-18.78" font-family="Times,serif" font-size="14.00">rep=no, t=no, r=yes, m=yes, c=no</text>
</g>
<!-- n19&#45;&gt;n18 -->
<g id="edge19" class="edge">
<title>n19&#45;&gt;n18</title>
<path fill="none" stroke="black" d="M1747.97,-110.85C1747.97,-102.67 1747.97,-93.89 1747.97,-85.37"/>
<polygon fill="black" stroke="black" points="1751.47,-85.15 1747.97,-75.15 1744.47,-85.15 1751.47,-85.15"/>
</g>
</g>
</svg>
