<?xml version="1.0" encoding="UTF-8" standalone="no"?>
<!DOCTYPE svg PUBLIC "-//W3C//DTD SVG 1.1//EN"
 "http://www.w3.org/Graphics/SVG/1.1/DTD/svg11.dtd">
<!-- Generated by graphviz version 2.43.0 (0)
 -->
<!-- Title: tree Pages: 1 -->
<svg width="2509pt" height="416pt"
 viewBox="0.00 0.00 2508.70 415.81" xmlns="http://www.w3.org/2000/svg" xmlns:xlink="http://www.w3.org/1999/xlink">
<g id="graph0" class="graph" transform="scale(1 1) rotate(0) translate(4 411.81)">
<title>tree</title>
<polygon fill="white" stroke="transparent" points="-4,4 -4,-411.81 2504.7,-411.81 2504.7,4 -4,4"/>
<!-- n6 -->
<g id="node1" class="node">
<title>n6</title>
<ellipse fill="#98D2A5" stroke="black" cx="1349.97" cy="-370.34" rx="185.94" ry="37.45"/>
<text text-anchor="middle" x="1349.97" y="-381.64" font-family="Times,serif" font-size="14.00">tiene</text>
<text text-anchor="middle" x="1349.97" y="-366.64" font-family="Times,serif" font-size="14.00">vmip3s0 (root)</text>
<text text-anchor="middle" x="1349.97" y="-351.64" font-family="Times,serif" font-size="14.00">rep=no, t=no, r=no, m=yes, c=no</text>
</g>
<!-- n1 -->
<g id="node2" class="node">
<title>n1</title>
<ellipse fill="#98D2A5" stroke="black" cx="380.97" cy="-259.38" rx="185.94" ry="37.45"/>
<text text-anchor="middle" x="380.97" y="-270.68" font-family="Times,serif" font-size="14.00">Ampliar</text>
<text text-anchor="middle" x="380.97" y="-255.68" font-family="Times,serif" font-size="14.00">vmn0000 (dobj)</text>
<text text-anchor="middle" x="380.97" y="-240.68" font-family="Times,serif" font-size="14.00">rep=no, t=no, r=no, m=yes, c=no</text>
</g>
<!-- n6&#45;&gt;n1 -->
<g id="edge1" class="edge">
<title>n6&#45;&gt;n1</title>
<path fill="none" stroke="black" d="M1174.99,-357.55C1017.77,-345.86 780.8,-325.55 575.97,-296.86 557.97,-294.34 539.11,-291.31 520.5,-288.08"/>
<polygon fill="black" stroke="black" points="520.95,-284.61 510.5,-286.33 519.74,-291.5 520.95,-284.61"/>
</g>
<!-- n5 -->
<g id="node3" class="node">
<title>n5</title>
<ellipse fill="#98D2A5" stroke="black" cx="770.97" cy="-259.38" rx="185.94" ry="37.45"/>
<text text-anchor="middle" x="770.97" y="-270.68" font-family="Times,serif" font-size="14.00">no</text>
<text text-anchor="middle" x="770.97" y="-255.68" font-family="Times,serif" font-size="14.00">rn (neg)</text>
<text text-anchor="middle" x="770.97" y="-240.68" font-family="Times,serif" font-size="14.00">rep=no, t=no, r=no, m=yes, c=no</text>
</g>
<!-- n6&#45;&gt;n5 -->
<g id="edge2" class="edge">
<title>n6&#45;&gt;n5</title>
<path fill="none" stroke="black" d="M1216.41,-344.2C1126.1,-327.21 1006.94,-304.79 914.59,-287.41"/>
<polygon fill="black" stroke="black" points="915.08,-283.94 904.61,-285.53 913.79,-290.82 915.08,-283.94"/>
</g>
<!-- n7 -->
<g id="node4" class="node">
<title>n7</title>
<ellipse fill="none" stroke="black" cx="1156.97" cy="-259.38" rx="181.95" ry="37.45"/>
<text text-anchor="middle" x="1156.97" y="-270.68" font-family="Times,serif" font-size="14.00">por</text>
<text text-anchor="middle" x="1156.97" y="-255.68" font-family="Times,serif" font-size="14.00">sps00 (prepv)</text>
<text text-anchor="middle" x="1156.97" y="-240.68" font-family="Times,serif" font-size="14.00">rep=no, t=no, r=no, m=no, c=no</text>
</g>
<!-- n6&#45;&gt;n7 -->
<g id="edge3" class="edge">
<title>n6&#45;&gt;n7</title>
<path fill="none" stroke="black" d="M1288.9,-334.86C1269.18,-323.73 1247.17,-311.3 1226.86,-299.84"/>
<polygon fill="black" stroke="black" points="1228.4,-296.69 1217.97,-294.82 1224.96,-302.78 1228.4,-296.69"/>
</g>
<!-- n9 -->
<g id="node5" class="node">
<title>n9</title>
<ellipse fill="#98D2A5" stroke="black" cx="1542.97" cy="-259.38" rx="185.94" ry="37.45"/>
<text text-anchor="middle" x="1542.97" y="-270.68" font-family="Times,serif" font-size="14.00">implicar</text>
<text text-anchor="middle" x="1542.97" y="-255.68" font-family="Times,serif" font-size="14.00">vmn0000 (dobj)</text>
<text text-anchor="middle" x="1542.97" y="-240.68" font-family="Times,serif" font-size="14.00">rep=no, t=no, r=no, m=yes, c=no</text>
</g>
<!-- n6&#45;&gt;n9 -->
<g id="edge4" class="edge">
<title>n6&#45;&gt;n9</title>
<path fill="none" stroke="black" d="M1411.04,-334.86C1430.76,-323.73 1452.77,-311.3 1473.08,-299.84"/>
<polygon fill="black" stroke="black" points="1474.98,-302.78 1481.97,-294.82 1471.54,-296.69 1474.98,-302.78"/>
</g>
<!-- n11 -->
<g id="node6" class="node">
<title>n11</title>
<ellipse fill="#98D2A5" stroke="black" cx="1932.97" cy="-259.38" rx="185.94" ry="37.45"/>
<text text-anchor="middle" x="1932.97" y="-270.68" font-family="Times,serif" font-size="14.00">cambio</text>
<text text-anchor="middle" x="1932.97" y="-255.68" font-family="Times,serif" font-size="14.00">ncms000 (dobj)</text>
<text text-anchor="middle" x="1932.97" y="-240.68" font-family="Times,serif" font-size="14.00">rep=no, t=no, r=no, m=yes, c=no</text>
</g>
<!-- n6&#45;&gt;n11 -->
<g id="edge5" class="edge">
<title>n6&#45;&gt;n11</title>
<path fill="none" stroke="black" d="M1484.2,-344.27C1558.91,-330.32 1653.6,-312.63 1737.97,-296.86 1754.45,-293.78 1771.72,-290.55 1788.88,-287.34"/>
<polygon fill="black" stroke="black" points="1789.78,-290.73 1798.96,-285.45 1788.49,-283.85 1789.78,-290.73"/>
</g>
<!-- n14 -->
<g id="node7" class="node">
<title>n14</title>
<ellipse fill="none" stroke="black" cx="2318.97" cy="-259.38" rx="181.95" ry="37.45"/>
<text text-anchor="middle" x="2318.97" y="-270.68" font-family="Times,serif" font-size="14.00">.</text>
<text text-anchor="middle" x="2318.97" y="-255.68" font-family="Times,serif" font-size="14.00">fp (punct)</text>
<text text-anchor="middle" x="2318.97" y="-240.68" font-family="Times,serif" font-size="14.00">rep=no, t=no, r=no, m=no, c=no</text>
</g>
<!-- n6&#45;&gt;n14 -->
<g id="edge6" class="edge">
<title>n6&#45;&gt;n14</title>
<path fill="none" stroke="black" d="M1525.49,-357.81C1683.55,-346.28 1921.97,-326.06 2127.97,-296.86 2145.6,-294.36 2164.06,-291.34 2182.28,-288.13"/>
<polygon fill="black" stroke="black" points="2183.14,-291.53 2192.37,-286.32 2181.91,-284.64 2183.14,-291.53"/>
</g>
<!-- n3 -->
<g id="node8" class="node">
<title>n3</title>
<ellipse fill="#98D2A5" stroke="black" cx="380.97" cy="-148.43" rx="185.94" ry="37.45"/>
<text text-anchor="middle" x="380.97" y="-159.73" font-family="Times,serif" font-size="14.00">base</text>
<text text-anchor="middle" x="380.97" y="-144.73" font-family="Times,serif" font-size="14.00">nccs000 (dobj)</text>
<text text-anchor="middle" x="380.97" y="-129.73" font-family="Times,serif" font-size="14.00">rep=no, t=no, r=no, m=yes, c=no</text>
</g>
<!-- n1&#45;&gt;n3 -->
<g id="edge7" class="edge">
<title>n1&#45;&gt;n3</title>
<path fill="none" stroke="black" d="M380.97,-221.8C380.97,-213.63 380.97,-204.85 380.97,-196.32"/>
<polygon fill="black" stroke="black" points="384.47,-196.1 380.97,-186.1 377.47,-196.1 384.47,-196.1"/>
</g>
<!-- n8 -->
<g id="node11" class="node">
<title>n8</title>
<ellipse fill="none" stroke="black" cx="1156.97" cy="-148.43" rx="181.95" ry="37.45"/>
<text text-anchor="middle" x="1156.97" y="-159.73" font-family="Times,serif" font-size="14.00">qué</text>
<text text-anchor="middle" x="1156.97" y="-144.73" font-family="Times,serif" font-size="14.00">pt0cs000 (pobj)</text>
<text text-anchor="middle" x="1156.97" y="-129.73" font-family="Times,serif" font-size="14.00">rep=no, t=no, r=no, m=no, c=no</text>
</g>
<!-- n7&#45;&gt;n8 -->
<g id="edge10" class="edge">
<title>n7&#45;&gt;n8</title>
<path fill="none" stroke="black" d="M1156.97,-221.8C1156.97,-213.63 1156.97,-204.85 1156.97,-196.32"/>
<polygon fill="black" stroke="black" points="1160.47,-196.1 1156.97,-186.1 1153.47,-196.1 1160.47,-196.1"/>
</g>
<!-- n10 -->
<g id="node12" class="node">
<title>n10</title>
<ellipse fill="#98D2A5" stroke="black" cx="1737.97" cy="-148.43" rx="185.94" ry="37.45"/>
<text text-anchor="middle" x="1737.97" y="-159.73" font-family="Times,serif" font-size="14.00">un</text>
<text text-anchor="middle" x="1737.97" y="-144.73" font-family="Times,serif" font-size="14.00">di0ms0 (det)</text>
<text text-anchor="middle" x="1737.97" y="-129.73" font-family="Times,serif" font-size="14.00">rep=no, t=no, r=no, m=yes, c=no</text>
</g>
<!-- n11&#45;&gt;n10 -->
<g id="edge11" class="edge">
<title>n11&#45;&gt;n10</title>
<path fill="none" stroke="black" d="M1871.27,-223.91C1851.34,-212.78 1829.1,-200.35 1808.58,-188.89"/>
<polygon fill="black" stroke="black" points="1810.04,-185.69 1799.6,-183.87 1806.62,-191.8 1810.04,-185.69"/>
</g>
<!-- n12 -->
<g id="node13" class="node">
<title>n12</title>
<ellipse fill="#98D2A5" stroke="black" cx="2127.97" cy="-148.43" rx="185.94" ry="37.45"/>
<text text-anchor="middle" x="2127.97" y="-159.73" font-family="Times,serif" font-size="14.00">de</text>
<text text-anchor="middle" x="2127.97" y="-144.73" font-family="Times,serif" font-size="14.00">sps00 (prepn)</text>
<text text-anchor="middle" x="2127.97" y="-129.73" font-family="Times,serif" font-size="14.00">rep=no, t=no, r=no, m=yes, c=no</text>
</g>
<!-- n11&#45;&gt;n12 -->
<g id="edge12" class="edge">
<title>n11&#45;&gt;n12</title>
<path fill="none" stroke="black" d="M1994.67,-223.91C2014.59,-212.78 2036.84,-200.35 2057.35,-188.89"/>
<polygon fill="black" stroke="black" points="2059.31,-191.8 2066.34,-183.87 2055.9,-185.69 2059.31,-191.8"/>
</g>
<!-- n2 -->
<g id="node9" class="node">
<title>n2</title>
<ellipse fill="#98D2A5" stroke="black" cx="185.97" cy="-37.48" rx="185.94" ry="37.45"/>
<text text-anchor="middle" x="185.97" y="-48.78" font-family="Times,serif" font-size="14.00">la</text>
<text text-anchor="middle" x="185.97" y="-33.78" font-family="Times,serif" font-size="14.00">da0fs0 (det)</text>
<text text-anchor="middle" x="185.97" y="-18.78" font-family="Times,serif" font-size="14.00">rep=no, t=no, r=no, m=yes, c=no</text>
</g>
<!-- n3&#45;&gt;n2 -->
<g id="edge8" class="edge">
<title>n3&#45;&gt;n2</title>
<path fill="none" stroke="black" d="M319.27,-112.96C299.34,-101.82 277.1,-89.4 256.58,-77.93"/>
<polygon fill="black" stroke="black" points="258.04,-74.74 247.6,-72.91 254.62,-80.85 258.04,-74.74"/>
</g>
<!-- n4 -->
<g id="node10" class="node">
<title>n4</title>
<ellipse fill="#98D2A5" stroke="black" cx="575.97" cy="-37.48" rx="185.94" ry="37.45"/>
<text text-anchor="middle" x="575.97" y="-48.78" font-family="Times,serif" font-size="14.00">social</text>
<text text-anchor="middle" x="575.97" y="-33.78" font-family="Times,serif" font-size="14.00">aq0cs0 (amod)</text>
<text text-anchor="middle" x="575.97" y="-18.78" font-family="Times,serif" font-size="14.00">rep=no, t=no, r=no, m=yes, c=no</text>
</g>
<!-- n3&#45;&gt;n4 -->
<g id="edge9" class="edge">
<title>n3&#45;&gt;n4</title>
<path fill="none" stroke="black" d="M442.67,-112.96C462.59,-101.82 484.84,-89.4 505.35,-77.93"/>
<polygon fill="black" stroke="black" points="507.31,-80.85 514.34,-72.91 503.9,-74.74 507.31,-80.85"/>
</g>
<!-- n13 -->
<g id="node14" class="node">
<title>n13</title>
<ellipse fill="#98D2A5" stroke="black" cx="2127.97" cy="-37.48" rx="185.94" ry="37.45"/>
<text text-anchor="middle" x="2127.97" y="-48.78" font-family="Times,serif" font-size="14.00">siglas</text>
<text text-anchor="middle" x="2127.97" y="-33.78" font-family="Times,serif" font-size="14.00">ncfp000 (pobj)</text>
<text text-anchor="middle" x="2127.97" y="-18.78" font-family="Times,serif" font-size="14.00">rep=no, t=no, r=no, m=yes, c=no</text>
</g>
<!-- n12&#45;&gt;n13 -->
<g id="edge13" class="edge">
<title>n12&#45;&gt;n13</title>
<path fill="none" stroke="black" d="M2127.97,-110.85C2127.97,-102.67 2127.97,-93.89 2127.97,-85.37"/>
<polygon fill="black" stroke="black" points="2131.47,-85.15 2127.97,-75.15 2124.47,-85.15 2131.47,-85.15"/>
</g>
</g>
</svg>
