<?xml version="1.0" encoding="UTF-8" standalone="no"?>
<!DOCTYPE svg PUBLIC "-//W3C//DTD SVG 1.1//EN"
 "http://www.w3.org/Graphics/SVG/1.1/DTD/svg11.dtd">
<!-- Generated by graphviz version 2.43.0 (0)
 -->
<!-- Title: tree Pages: 1 -->
<svg width="2871pt" height="971pt"
 viewBox="0.00 0.00 2870.89 970.58" xmlns="http://www.w3.org/2000/svg" xmlns:xlink="http://www.w3.org/1999/xlink">
<g id="graph0" class="graph" transform="scale(1 1) rotate(0) translate(4 966.58)">
<title>tree</title>
<polygon fill="white" stroke="transparent" points="-4,4 -4,-966.58 2866.89,-966.58 2866.89,4 -4,4"/>
<!-- n2 -->
<g id="node1" class="node">
<title>n2</title>
<ellipse fill="#98D2A5" stroke="black" cx="995.92" cy="-925.1" rx="190.84" ry="37.45"/>
<text text-anchor="middle" x="995.92" y="-936.4" font-family="Times,serif" font-size="14.00">es</text>
<text text-anchor="middle" x="995.92" y="-921.4" font-family="Times,serif" font-size="14.00">vsip3s0 (root)</text>
<text text-anchor="middle" x="995.92" y="-906.4" font-family="Times,serif" font-size="14.00">rep=no, t=no, r=yes, m=yes, c=no</text>
</g>
<!-- n1 -->
<g id="node2" class="node">
<title>n1</title>
<ellipse fill="#98D2A5" stroke="black" cx="595.92" cy="-814.15" rx="190.84" ry="37.45"/>
<text text-anchor="middle" x="595.92" y="-825.45" font-family="Times,serif" font-size="14.00">Piqué</text>
<text text-anchor="middle" x="595.92" y="-810.45" font-family="Times,serif" font-size="14.00">np00000 (nsubj)</text>
<text text-anchor="middle" x="595.92" y="-795.45" font-family="Times,serif" font-size="14.00">rep=no, t=yes, r=no, m=yes, c=no</text>
</g>
<!-- n2&#45;&gt;n1 -->
<g id="edge1" class="edge">
<title>n2&#45;&gt;n1</title>
<path fill="none" stroke="black" d="M886.62,-894.33C833.48,-879.86 769.51,-862.43 715.12,-847.62"/>
<polygon fill="black" stroke="black" points="716,-844.23 705.44,-844.98 714.16,-850.99 716,-844.23"/>
</g>
<!-- n4 -->
<g id="node3" class="node">
<title>n4</title>
<ellipse fill="#98D2A5" stroke="black" cx="995.92" cy="-814.15" rx="190.84" ry="37.45"/>
<text text-anchor="middle" x="995.92" y="-825.45" font-family="Times,serif" font-size="14.00">exponente</text>
<text text-anchor="middle" x="995.92" y="-810.45" font-family="Times,serif" font-size="14.00">nccs000 (attr)</text>
<text text-anchor="middle" x="995.92" y="-795.45" font-family="Times,serif" font-size="14.00">rep=no, t=no, r=yes, m=yes, c=no</text>
</g>
<!-- n2&#45;&gt;n4 -->
<g id="edge2" class="edge">
<title>n2&#45;&gt;n4</title>
<path fill="none" stroke="black" d="M995.92,-887.52C995.92,-879.35 995.92,-870.57 995.92,-862.04"/>
<polygon fill="black" stroke="black" points="999.42,-861.82 995.92,-851.82 992.42,-861.82 999.42,-861.82"/>
</g>
<!-- n27 -->
<g id="node4" class="node">
<title>n27</title>
<ellipse fill="none" stroke="black" cx="1386.92" cy="-814.15" rx="181.95" ry="37.45"/>
<text text-anchor="middle" x="1386.92" y="-825.45" font-family="Times,serif" font-size="14.00">.</text>
<text text-anchor="middle" x="1386.92" y="-810.45" font-family="Times,serif" font-size="14.00">fp (punct)</text>
<text text-anchor="middle" x="1386.92" y="-795.45" font-family="Times,serif" font-size="14.00">rep=no, t=no, r=no, m=no, c=no</text>
</g>
<!-- n2&#45;&gt;n27 -->
<g id="edge3" class="edge">
<title>n2&#45;&gt;n27</title>
<path fill="none" stroke="black" d="M1103.54,-894.11C1155.57,-879.62 1218.09,-862.19 1271.16,-847.41"/>
<polygon fill="black" stroke="black" points="1272.26,-850.73 1280.95,-844.68 1270.38,-843.99 1272.26,-850.73"/>
</g>
<!-- n3 -->
<g id="node5" class="node">
<title>n3</title>
<ellipse fill="#98D2A5" stroke="black" cx="190.92" cy="-703.2" rx="190.84" ry="37.45"/>
<text text-anchor="middle" x="190.92" y="-714.5" font-family="Times,serif" font-size="14.00">un</text>
<text text-anchor="middle" x="190.92" y="-699.5" font-family="Times,serif" font-size="14.00">di0ms0 (det)</text>
<text text-anchor="middle" x="190.92" y="-684.5" font-family="Times,serif" font-size="14.00">rep=no, t=no, r=yes, m=yes, c=no</text>
</g>
<!-- n4&#45;&gt;n3 -->
<g id="edge4" class="edge">
<title>n4&#45;&gt;n3</title>
<path fill="none" stroke="black" d="M863.06,-787.16C840.7,-783.29 817.69,-779.62 795.92,-776.67 616.84,-752.44 570,-764.91 390.92,-740.67 372.38,-738.16 352.94,-735.13 333.77,-731.9"/>
<polygon fill="black" stroke="black" points="334.23,-728.42 323.78,-730.19 333.05,-735.32 334.23,-728.42"/>
</g>
<!-- n5 -->
<g id="node6" class="node">
<title>n5</title>
<ellipse fill="#98D2A5" stroke="black" cx="590.92" cy="-703.2" rx="190.84" ry="37.45"/>
<text text-anchor="middle" x="590.92" y="-714.5" font-family="Times,serif" font-size="14.00">significativo</text>
<text text-anchor="middle" x="590.92" y="-699.5" font-family="Times,serif" font-size="14.00">aq0ms0 (amod)</text>
<text text-anchor="middle" x="590.92" y="-684.5" font-family="Times,serif" font-size="14.00">rep=no, t=no, r=yes, m=yes, c=no</text>
</g>
<!-- n4&#45;&gt;n5 -->
<g id="edge5" class="edge">
<title>n4&#45;&gt;n5</title>
<path fill="none" stroke="black" d="M885.79,-783.52C831.65,-768.96 766.3,-751.38 710.9,-736.47"/>
<polygon fill="black" stroke="black" points="711.6,-733.04 701.03,-733.82 709.78,-739.8 711.6,-733.04"/>
</g>
<!-- n6 -->
<g id="node7" class="node">
<title>n6</title>
<ellipse fill="#98D2A5" stroke="black" cx="995.92" cy="-703.2" rx="195.74" ry="37.45"/>
<text text-anchor="middle" x="995.92" y="-714.5" font-family="Times,serif" font-size="14.00">del</text>
<text text-anchor="middle" x="995.92" y="-699.5" font-family="Times,serif" font-size="14.00">spcms (dep)</text>
<text text-anchor="middle" x="995.92" y="-684.5" font-family="Times,serif" font-size="14.00">rep=no, t=no, r=yes, m=yes, c=yes</text>
</g>
<!-- n4&#45;&gt;n6 -->
<g id="edge6" class="edge">
<title>n4&#45;&gt;n6</title>
<path fill="none" stroke="black" d="M995.92,-776.57C995.92,-768.39 995.92,-759.61 995.92,-751.09"/>
<polygon fill="black" stroke="black" points="999.42,-750.87 995.92,-740.87 992.42,-750.87 999.42,-750.87"/>
</g>
<!-- n15 -->
<g id="node8" class="node">
<title>n15</title>
<ellipse fill="#98D2A5" stroke="black" cx="1400.92" cy="-703.2" rx="190.84" ry="37.45"/>
<text text-anchor="middle" x="1400.92" y="-714.5" font-family="Times,serif" font-size="14.00">y</text>
<text text-anchor="middle" x="1400.92" y="-699.5" font-family="Times,serif" font-size="14.00">cc (coord_fixed)</text>
<text text-anchor="middle" x="1400.92" y="-684.5" font-family="Times,serif" font-size="14.00">rep=no, t=no, r=yes, m=yes, c=no</text>
</g>
<!-- n4&#45;&gt;n15 -->
<g id="edge7" class="edge">
<title>n4&#45;&gt;n15</title>
<path fill="none" stroke="black" d="M1106.05,-783.52C1160.19,-768.96 1225.54,-751.38 1280.94,-736.47"/>
<polygon fill="black" stroke="black" points="1282.06,-739.8 1290.81,-733.82 1280.24,-733.04 1282.06,-739.8"/>
</g>
<!-- n16 -->
<g id="node9" class="node">
<title>n16</title>
<ellipse fill="#98D2A5" stroke="black" cx="1805.92" cy="-703.2" rx="195.74" ry="37.45"/>
<text text-anchor="middle" x="1805.92" y="-714.5" font-family="Times,serif" font-size="14.00">del</text>
<text text-anchor="middle" x="1805.92" y="-699.5" font-family="Times,serif" font-size="14.00">spcms (dep)</text>
<text text-anchor="middle" x="1805.92" y="-684.5" font-family="Times,serif" font-size="14.00">rep=no, t=no, r=yes, m=yes, c=yes</text>
</g>
<!-- n4&#45;&gt;n16 -->
<g id="edge8" class="edge">
<title>n4&#45;&gt;n16</title>
<path fill="none" stroke="black" d="M1128.78,-787.16C1151.14,-783.29 1174.15,-779.62 1195.92,-776.67 1375,-752.44 1421.79,-764.52 1600.92,-740.67 1620,-738.13 1640.01,-735.07 1659.75,-731.81"/>
<polygon fill="black" stroke="black" points="1660.43,-735.25 1669.72,-730.15 1659.28,-728.34 1660.43,-735.25"/>
</g>
<!-- n7 -->
<g id="node10" class="node">
<title>n7</title>
<ellipse fill="#98D2A5" stroke="black" cx="995.92" cy="-592.24" rx="190.84" ry="37.45"/>
<text text-anchor="middle" x="995.92" y="-603.54" font-family="Times,serif" font-size="14.00">protagonismo</text>
<text text-anchor="middle" x="995.92" y="-588.54" font-family="Times,serif" font-size="14.00">ncms000 (pobj)</text>
<text text-anchor="middle" x="995.92" y="-573.54" font-family="Times,serif" font-size="14.00">rep=no, t=no, r=yes, m=yes, c=no</text>
</g>
<!-- n6&#45;&gt;n7 -->
<g id="edge9" class="edge">
<title>n6&#45;&gt;n7</title>
<path fill="none" stroke="black" d="M995.92,-665.61C995.92,-657.44 995.92,-648.66 995.92,-640.13"/>
<polygon fill="black" stroke="black" points="999.42,-639.92 995.92,-629.92 992.42,-639.92 999.42,-639.92"/>
</g>
<!-- n17 -->
<g id="node18" class="node">
<title>n17</title>
<ellipse fill="#98D2A5" stroke="black" cx="1805.92" cy="-592.24" rx="190.84" ry="37.45"/>
<text text-anchor="middle" x="1805.92" y="-603.54" font-family="Times,serif" font-size="14.00">papel</text>
<text text-anchor="middle" x="1805.92" y="-588.54" font-family="Times,serif" font-size="14.00">ncms000 (pobj)</text>
<text text-anchor="middle" x="1805.92" y="-573.54" font-family="Times,serif" font-size="14.00">rep=no, t=no, r=yes, m=yes, c=no</text>
</g>
<!-- n16&#45;&gt;n17 -->
<g id="edge17" class="edge">
<title>n16&#45;&gt;n17</title>
<path fill="none" stroke="black" d="M1805.92,-665.61C1805.92,-657.44 1805.92,-648.66 1805.92,-640.13"/>
<polygon fill="black" stroke="black" points="1809.42,-639.92 1805.92,-629.92 1802.42,-639.92 1809.42,-639.92"/>
</g>
<!-- n8 -->
<g id="node11" class="node">
<title>n8</title>
<ellipse fill="#98D2A5" stroke="black" cx="795.92" cy="-481.29" rx="190.84" ry="37.45"/>
<text text-anchor="middle" x="795.92" y="-492.59" font-family="Times,serif" font-size="14.00">del</text>
<text text-anchor="middle" x="795.92" y="-477.59" font-family="Times,serif" font-size="14.00">spcms (prepn)</text>
<text text-anchor="middle" x="795.92" y="-462.59" font-family="Times,serif" font-size="14.00">rep=no, t=no, r=yes, m=yes, c=no</text>
</g>
<!-- n7&#45;&gt;n8 -->
<g id="edge10" class="edge">
<title>n7&#45;&gt;n8</title>
<path fill="none" stroke="black" d="M932.64,-556.77C912.11,-545.59 889.18,-533.1 868.06,-521.59"/>
<polygon fill="black" stroke="black" points="869.59,-518.44 859.13,-516.73 866.24,-524.58 869.59,-518.44"/>
</g>
<!-- n10 -->
<g id="node12" class="node">
<title>n10</title>
<ellipse fill="#98D2A5" stroke="black" cx="1195.92" cy="-481.29" rx="190.84" ry="37.45"/>
<text text-anchor="middle" x="1195.92" y="-492.59" font-family="Times,serif" font-size="14.00">en</text>
<text text-anchor="middle" x="1195.92" y="-477.59" font-family="Times,serif" font-size="14.00">sps00 (prepn)</text>
<text text-anchor="middle" x="1195.92" y="-462.59" font-family="Times,serif" font-size="14.00">rep=no, t=no, r=yes, m=yes, c=no</text>
</g>
<!-- n7&#45;&gt;n10 -->
<g id="edge11" class="edge">
<title>n7&#45;&gt;n10</title>
<path fill="none" stroke="black" d="M1059.2,-556.77C1079.73,-545.59 1102.65,-533.1 1123.78,-521.59"/>
<polygon fill="black" stroke="black" points="1125.6,-524.58 1132.71,-516.73 1122.25,-518.44 1125.6,-524.58"/>
</g>
<!-- n9 -->
<g id="node13" class="node">
<title>n9</title>
<ellipse fill="#98D2A5" stroke="black" cx="795.92" cy="-370.34" rx="190.84" ry="37.45"/>
<text text-anchor="middle" x="795.92" y="-381.64" font-family="Times,serif" font-size="14.00">PP</text>
<text text-anchor="middle" x="795.92" y="-366.64" font-family="Times,serif" font-size="14.00">np00000 (pobj)</text>
<text text-anchor="middle" x="795.92" y="-351.64" font-family="Times,serif" font-size="14.00">rep=no, t=no, r=yes, m=yes, c=no</text>
</g>
<!-- n8&#45;&gt;n9 -->
<g id="edge12" class="edge">
<title>n8&#45;&gt;n9</title>
<path fill="none" stroke="black" d="M795.92,-443.71C795.92,-435.53 795.92,-426.75 795.92,-418.23"/>
<polygon fill="black" stroke="black" points="799.42,-418.01 795.92,-408.01 792.42,-418.01 799.42,-418.01"/>
</g>
<!-- n12 -->
<g id="node14" class="node">
<title>n12</title>
<ellipse fill="#98D2A5" stroke="black" cx="1195.92" cy="-370.34" rx="190.84" ry="37.45"/>
<text text-anchor="middle" x="1195.92" y="-381.64" font-family="Times,serif" font-size="14.00">conjunto</text>
<text text-anchor="middle" x="1195.92" y="-366.64" font-family="Times,serif" font-size="14.00">ncms000 (pobj)</text>
<text text-anchor="middle" x="1195.92" y="-351.64" font-family="Times,serif" font-size="14.00">rep=no, t=no, r=yes, m=yes, c=no</text>
</g>
<!-- n10&#45;&gt;n12 -->
<g id="edge13" class="edge">
<title>n10&#45;&gt;n12</title>
<path fill="none" stroke="black" d="M1195.92,-443.71C1195.92,-435.53 1195.92,-426.75 1195.92,-418.23"/>
<polygon fill="black" stroke="black" points="1199.42,-418.01 1195.92,-408.01 1192.42,-418.01 1199.42,-418.01"/>
</g>
<!-- n11 -->
<g id="node15" class="node">
<title>n11</title>
<ellipse fill="#98D2A5" stroke="black" cx="802.92" cy="-259.38" rx="190.84" ry="37.45"/>
<text text-anchor="middle" x="802.92" y="-270.68" font-family="Times,serif" font-size="14.00">el</text>
<text text-anchor="middle" x="802.92" y="-255.68" font-family="Times,serif" font-size="14.00">da0ms0 (det)</text>
<text text-anchor="middle" x="802.92" y="-240.68" font-family="Times,serif" font-size="14.00">rep=no, t=no, r=yes, m=yes, c=no</text>
</g>
<!-- n12&#45;&gt;n11 -->
<g id="edge14" class="edge">
<title>n12&#45;&gt;n11</title>
<path fill="none" stroke="black" d="M1087.75,-339.35C1035.99,-325 973.89,-307.78 920.91,-293.1"/>
<polygon fill="black" stroke="black" points="921.7,-289.68 911.13,-290.38 919.83,-296.43 921.7,-289.68"/>
</g>
<!-- n13 -->
<g id="node16" class="node">
<title>n13</title>
<ellipse fill="#98D2A5" stroke="black" cx="1202.92" cy="-259.38" rx="190.84" ry="37.45"/>
<text text-anchor="middle" x="1202.92" y="-270.68" font-family="Times,serif" font-size="14.00">del</text>
<text text-anchor="middle" x="1202.92" y="-255.68" font-family="Times,serif" font-size="14.00">spcms (prepn)</text>
<text text-anchor="middle" x="1202.92" y="-240.68" font-family="Times,serif" font-size="14.00">rep=no, t=no, r=yes, m=yes, c=no</text>
</g>
<!-- n12&#45;&gt;n13 -->
<g id="edge15" class="edge">
<title>n12&#45;&gt;n13</title>
<path fill="none" stroke="black" d="M1198.27,-332.75C1198.79,-324.58 1199.36,-315.8 1199.91,-307.27"/>
<polygon fill="black" stroke="black" points="1203.41,-307.26 1200.56,-297.06 1196.43,-306.81 1203.41,-307.26"/>
</g>
<!-- n14 -->
<g id="node17" class="node">
<title>n14</title>
<ellipse fill="#98D2A5" stroke="black" cx="1202.92" cy="-148.43" rx="190.84" ry="37.45"/>
<text text-anchor="middle" x="1202.92" y="-159.73" font-family="Times,serif" font-size="14.00">Estado</text>
<text text-anchor="middle" x="1202.92" y="-144.73" font-family="Times,serif" font-size="14.00">np00000 (pobj)</text>
<text text-anchor="middle" x="1202.92" y="-129.73" font-family="Times,serif" font-size="14.00">rep=no, t=no, r=yes, m=yes, c=no</text>
</g>
<!-- n13&#45;&gt;n14 -->
<g id="edge16" class="edge">
<title>n13&#45;&gt;n14</title>
<path fill="none" stroke="black" d="M1202.92,-221.8C1202.92,-213.63 1202.92,-204.85 1202.92,-196.32"/>
<polygon fill="black" stroke="black" points="1206.42,-196.1 1202.92,-186.1 1199.42,-196.1 1206.42,-196.1"/>
</g>
<!-- n21 -->
<g id="node19" class="node">
<title>n21</title>
<ellipse fill="#98D2A5" stroke="black" cx="1805.92" cy="-481.29" rx="185.94" ry="37.45"/>
<text text-anchor="middle" x="1805.92" y="-492.59" font-family="Times,serif" font-size="14.00">debe</text>
<text text-anchor="middle" x="1805.92" y="-477.59" font-family="Times,serif" font-size="14.00">vmip3s0 (rcmod)</text>
<text text-anchor="middle" x="1805.92" y="-462.59" font-family="Times,serif" font-size="14.00">rep=no, t=no, r=no, m=yes, c=no</text>
</g>
<!-- n17&#45;&gt;n21 -->
<g id="edge18" class="edge">
<title>n17&#45;&gt;n21</title>
<path fill="none" stroke="black" d="M1805.92,-554.66C1805.92,-546.49 1805.92,-537.71 1805.92,-529.18"/>
<polygon fill="black" stroke="black" points="1809.42,-528.96 1805.92,-518.96 1802.42,-528.96 1809.42,-528.96"/>
</g>
<!-- n20 -->
<g id="node20" class="node">
<title>n20</title>
<ellipse fill="#98D2A5" stroke="black" cx="1701.92" cy="-370.34" rx="185.94" ry="37.45"/>
<text text-anchor="middle" x="1701.92" y="-381.64" font-family="Times,serif" font-size="14.00">partido</text>
<text text-anchor="middle" x="1701.92" y="-366.64" font-family="Times,serif" font-size="14.00">ncms000 (nsubj)</text>
<text text-anchor="middle" x="1701.92" y="-351.64" font-family="Times,serif" font-size="14.00">rep=no, t=no, r=no, m=yes, c=no</text>
</g>
<!-- n21&#45;&gt;n20 -->
<g id="edge19" class="edge">
<title>n21&#45;&gt;n20</title>
<path fill="none" stroke="black" d="M1771.58,-444.31C1762.52,-434.83 1752.66,-424.5 1743.28,-414.67"/>
<polygon fill="black" stroke="black" points="1745.66,-412.09 1736.22,-407.28 1740.6,-416.93 1745.66,-412.09"/>
</g>
<!-- n22 -->
<g id="node21" class="node">
<title>n22</title>
<ellipse fill="#98D2A5" stroke="black" cx="2091.92" cy="-370.34" rx="185.94" ry="37.45"/>
<text text-anchor="middle" x="2091.92" y="-381.64" font-family="Times,serif" font-size="14.00">jugar</text>
<text text-anchor="middle" x="2091.92" y="-366.64" font-family="Times,serif" font-size="14.00">vmn0000 (dobj)</text>
<text text-anchor="middle" x="2091.92" y="-351.64" font-family="Times,serif" font-size="14.00">rep=no, t=no, r=no, m=yes, c=no</text>
</g>
<!-- n21&#45;&gt;n22 -->
<g id="edge20" class="edge">
<title>n21&#45;&gt;n22</title>
<path fill="none" stroke="black" d="M1890.95,-447.9C1924.37,-435.17 1962.86,-420.5 1997.16,-407.43"/>
<polygon fill="black" stroke="black" points="1998.62,-410.63 2006.72,-403.79 1996.13,-404.08 1998.62,-410.63"/>
</g>
<!-- n19 -->
<g id="node22" class="node">
<title>n19</title>
<ellipse fill="#98D2A5" stroke="black" cx="1701.92" cy="-259.38" rx="185.94" ry="37.45"/>
<text text-anchor="middle" x="1701.92" y="-270.68" font-family="Times,serif" font-size="14.00">el</text>
<text text-anchor="middle" x="1701.92" y="-255.68" font-family="Times,serif" font-size="14.00">da0ms0 (det)</text>
<text text-anchor="middle" x="1701.92" y="-240.68" font-family="Times,serif" font-size="14.00">rep=no, t=no, r=no, m=yes, c=no</text>
</g>
<!-- n20&#45;&gt;n19 -->
<g id="edge21" class="edge">
<title>n20&#45;&gt;n19</title>
<path fill="none" stroke="black" d="M1701.92,-332.75C1701.92,-324.58 1701.92,-315.8 1701.92,-307.27"/>
<polygon fill="black" stroke="black" points="1705.42,-307.06 1701.92,-297.06 1698.42,-307.06 1705.42,-307.06"/>
</g>
<!-- n18 -->
<g id="node23" class="node">
<title>n18</title>
<ellipse fill="#98D2A5" stroke="black" cx="2091.92" cy="-259.38" rx="185.94" ry="37.45"/>
<text text-anchor="middle" x="2091.92" y="-270.68" font-family="Times,serif" font-size="14.00">que</text>
<text text-anchor="middle" x="2091.92" y="-255.68" font-family="Times,serif" font-size="14.00">pr0cn000 (dobj)</text>
<text text-anchor="middle" x="2091.92" y="-240.68" font-family="Times,serif" font-size="14.00">rep=no, t=no, r=no, m=yes, c=no</text>
</g>
<!-- n22&#45;&gt;n18 -->
<g id="edge22" class="edge">
<title>n22&#45;&gt;n18</title>
<path fill="none" stroke="black" d="M2091.92,-332.75C2091.92,-324.58 2091.92,-315.8 2091.92,-307.27"/>
<polygon fill="black" stroke="black" points="2095.42,-307.06 2091.92,-297.06 2088.42,-307.06 2095.42,-307.06"/>
</g>
<!-- n23 -->
<g id="node24" class="node">
<title>n23</title>
<ellipse fill="#98D2A5" stroke="black" cx="2481.92" cy="-259.38" rx="185.94" ry="37.45"/>
<text text-anchor="middle" x="2481.92" y="-270.68" font-family="Times,serif" font-size="14.00">ante</text>
<text text-anchor="middle" x="2481.92" y="-255.68" font-family="Times,serif" font-size="14.00">sps00 (prepv)</text>
<text text-anchor="middle" x="2481.92" y="-240.68" font-family="Times,serif" font-size="14.00">rep=no, t=no, r=no, m=yes, c=no</text>
</g>
<!-- n22&#45;&gt;n23 -->
<g id="edge23" class="edge">
<title>n22&#45;&gt;n23</title>
<path fill="none" stroke="black" d="M2198.49,-339.56C2250.29,-325.09 2312.66,-307.67 2365.69,-292.85"/>
<polygon fill="black" stroke="black" points="2366.79,-296.18 2375.48,-290.12 2364.91,-289.44 2366.79,-296.18"/>
</g>
<!-- n25 -->
<g id="node25" class="node">
<title>n25</title>
<ellipse fill="#98D2A5" stroke="black" cx="2481.92" cy="-148.43" rx="185.94" ry="37.45"/>
<text text-anchor="middle" x="2481.92" y="-159.73" font-family="Times,serif" font-size="14.00">sociedad</text>
<text text-anchor="middle" x="2481.92" y="-144.73" font-family="Times,serif" font-size="14.00">ncfs000 (pobj)</text>
<text text-anchor="middle" x="2481.92" y="-129.73" font-family="Times,serif" font-size="14.00">rep=no, t=no, r=no, m=yes, c=no</text>
</g>
<!-- n23&#45;&gt;n25 -->
<g id="edge24" class="edge">
<title>n23&#45;&gt;n25</title>
<path fill="none" stroke="black" d="M2481.92,-221.8C2481.92,-213.63 2481.92,-204.85 2481.92,-196.32"/>
<polygon fill="black" stroke="black" points="2485.42,-196.1 2481.92,-186.1 2478.42,-196.1 2485.42,-196.1"/>
</g>
<!-- n24 -->
<g id="node26" class="node">
<title>n24</title>
<ellipse fill="#98D2A5" stroke="black" cx="2286.92" cy="-37.48" rx="185.94" ry="37.45"/>
<text text-anchor="middle" x="2286.92" y="-48.78" font-family="Times,serif" font-size="14.00">la</text>
<text text-anchor="middle" x="2286.92" y="-33.78" font-family="Times,serif" font-size="14.00">da0fs0 (det)</text>
<text text-anchor="middle" x="2286.92" y="-18.78" font-family="Times,serif" font-size="14.00">rep=no, t=no, r=no, m=yes, c=no</text>
</g>
<!-- n25&#45;&gt;n24 -->
<g id="edge25" class="edge">
<title>n25&#45;&gt;n24</title>
<path fill="none" stroke="black" d="M2420.22,-112.96C2400.29,-101.82 2378.05,-89.4 2357.53,-77.93"/>
<polygon fill="black" stroke="black" points="2358.99,-74.74 2348.55,-72.91 2355.57,-80.85 2358.99,-74.74"/>
</g>
<!-- n26 -->
<g id="node27" class="node">
<title>n26</title>
<ellipse fill="#98D2A5" stroke="black" cx="2676.92" cy="-37.48" rx="185.94" ry="37.45"/>
<text text-anchor="middle" x="2676.92" y="-48.78" font-family="Times,serif" font-size="14.00">catalana</text>
<text text-anchor="middle" x="2676.92" y="-33.78" font-family="Times,serif" font-size="14.00">aq0fs0 (amod)</text>
<text text-anchor="middle" x="2676.92" y="-18.78" font-family="Times,serif" font-size="14.00">rep=no, t=no, r=no, m=yes, c=no</text>
</g>
<!-- n25&#45;&gt;n26 -->
<g id="edge26" class="edge">
<title>n25&#45;&gt;n26</title>
<path fill="none" stroke="black" d="M2543.62,-112.96C2563.54,-101.82 2585.79,-89.4 2606.3,-77.93"/>
<polygon fill="black" stroke="black" points="2608.26,-80.85 2615.29,-72.91 2604.85,-74.74 2608.26,-80.85"/>
</g>
</g>
</svg>
