<?xml version="1.0" encoding="UTF-8" standalone="no"?>
<!DOCTYPE svg PUBLIC "-//W3C//DTD SVG 1.1//EN"
 "http://www.w3.org/Graphics/SVG/1.1/DTD/svg11.dtd">
<!-- Generated by graphviz version 2.43.0 (0)
 -->
<!-- Title: tree Pages: 1 -->
<svg width="3333pt" height="1082pt"
 viewBox="0.00 0.00 3332.89 1081.53" xmlns="http://www.w3.org/2000/svg" xmlns:xlink="http://www.w3.org/1999/xlink">
<g id="graph0" class="graph" transform="scale(1 1) rotate(0) translate(4 1077.53)">
<title>tree</title>
<polygon fill="white" stroke="transparent" points="-4,4 -4,-1077.53 3328.89,-1077.53 3328.89,4 -4,4"/>
<!-- n5 -->
<g id="node1" class="node">
<title>n5</title>
<ellipse fill="none" stroke="black" cx="1537.97" cy="-1036.06" rx="181.95" ry="37.45"/>
<text text-anchor="middle" x="1537.97" y="-1047.36" font-family="Times,serif" font-size="14.00">aseguró</text>
<text text-anchor="middle" x="1537.97" y="-1032.36" font-family="Times,serif" font-size="14.00">vmis3s0 (root)</text>
<text text-anchor="middle" x="1537.97" y="-1017.36" font-family="Times,serif" font-size="14.00">rep=no, t=no, r=no, m=no, c=no</text>
</g>
<!-- n2 -->
<g id="node2" class="node">
<title>n2</title>
<ellipse fill="none" stroke="black" cx="575.97" cy="-925.1" rx="185.94" ry="37.45"/>
<text text-anchor="middle" x="575.97" y="-936.4" font-family="Times,serif" font-size="14.00">diputado</text>
<text text-anchor="middle" x="575.97" y="-921.4" font-family="Times,serif" font-size="14.00">ncms000 (nsubj)</text>
<text text-anchor="middle" x="575.97" y="-906.4" font-family="Times,serif" font-size="14.00">rep=yes, t=no, r=no, m=no, c=no</text>
</g>
<!-- n5&#45;&gt;n2 -->
<g id="edge1" class="edge">
<title>n5&#45;&gt;n2</title>
<path fill="none" stroke="black" d="M1380.73,-1017.25C1206.23,-997.48 925.62,-965.7 746.1,-945.37"/>
<polygon fill="black" stroke="black" points="746.36,-941.88 736.02,-944.23 745.57,-948.83 746.36,-941.88"/>
</g>
<!-- n13 -->
<g id="node3" class="node">
<title>n13</title>
<ellipse fill="none" stroke="black" cx="1537.97" cy="-925.1" rx="181.95" ry="37.45"/>
<text text-anchor="middle" x="1537.97" y="-936.4" font-family="Times,serif" font-size="14.00">y</text>
<text text-anchor="middle" x="1537.97" y="-921.4" font-family="Times,serif" font-size="14.00">cc (coord_fixed)</text>
<text text-anchor="middle" x="1537.97" y="-906.4" font-family="Times,serif" font-size="14.00">rep=no, t=no, r=no, m=no, c=no</text>
</g>
<!-- n5&#45;&gt;n13 -->
<g id="edge2" class="edge">
<title>n5&#45;&gt;n13</title>
<path fill="none" stroke="black" d="M1537.97,-998.47C1537.97,-990.3 1537.97,-981.52 1537.97,-972.99"/>
<polygon fill="black" stroke="black" points="1541.47,-972.78 1537.97,-962.78 1534.47,-972.78 1541.47,-972.78"/>
</g>
<!-- n31 -->
<g id="node4" class="node">
<title>n31</title>
<ellipse fill="none" stroke="black" cx="1918.97" cy="-925.1" rx="181.95" ry="37.45"/>
<text text-anchor="middle" x="1918.97" y="-936.4" font-family="Times,serif" font-size="14.00">.</text>
<text text-anchor="middle" x="1918.97" y="-921.4" font-family="Times,serif" font-size="14.00">fp (punct)</text>
<text text-anchor="middle" x="1918.97" y="-906.4" font-family="Times,serif" font-size="14.00">rep=no, t=no, r=no, m=no, c=no</text>
</g>
<!-- n5&#45;&gt;n31 -->
<g id="edge3" class="edge">
<title>n5&#45;&gt;n31</title>
<path fill="none" stroke="black" d="M1642.08,-1005.28C1692.58,-990.84 1753.37,-973.46 1805.1,-958.67"/>
<polygon fill="black" stroke="black" points="1806.33,-961.95 1814.99,-955.84 1804.41,-955.22 1806.33,-961.95"/>
</g>
<!-- n1 -->
<g id="node5" class="node">
<title>n1</title>
<ellipse fill="none" stroke="black" cx="185.97" cy="-814.15" rx="185.94" ry="37.45"/>
<text text-anchor="middle" x="185.97" y="-825.45" font-family="Times,serif" font-size="14.00">El</text>
<text text-anchor="middle" x="185.97" y="-810.45" font-family="Times,serif" font-size="14.00">da0ms0 (det)</text>
<text text-anchor="middle" x="185.97" y="-795.45" font-family="Times,serif" font-size="14.00">rep=yes, t=no, r=no, m=no, c=no</text>
</g>
<!-- n2&#45;&gt;n1 -->
<g id="edge4" class="edge">
<title>n2&#45;&gt;n1</title>
<path fill="none" stroke="black" d="M469.4,-894.33C417.59,-879.86 355.23,-862.43 302.2,-847.62"/>
<polygon fill="black" stroke="black" points="302.98,-844.21 292.41,-844.89 301.1,-850.95 302.98,-844.21"/>
</g>
<!-- n3 -->
<g id="node6" class="node">
<title>n3</title>
<ellipse fill="none" stroke="black" cx="575.97" cy="-814.15" rx="185.94" ry="37.45"/>
<text text-anchor="middle" x="575.97" y="-825.45" font-family="Times,serif" font-size="14.00">Roberto</text>
<text text-anchor="middle" x="575.97" y="-810.45" font-family="Times,serif" font-size="14.00">np00000 (appos)</text>
<text text-anchor="middle" x="575.97" y="-795.45" font-family="Times,serif" font-size="14.00">rep=yes, t=no, r=no, m=no, c=no</text>
</g>
<!-- n2&#45;&gt;n3 -->
<g id="edge5" class="edge">
<title>n2&#45;&gt;n3</title>
<path fill="none" stroke="black" d="M575.97,-887.52C575.97,-879.35 575.97,-870.57 575.97,-862.04"/>
<polygon fill="black" stroke="black" points="579.47,-861.82 575.97,-851.82 572.47,-861.82 579.47,-861.82"/>
</g>
<!-- n6 -->
<g id="node8" class="node">
<title>n6</title>
<ellipse fill="none" stroke="black" cx="961.97" cy="-814.15" rx="181.95" ry="37.45"/>
<text text-anchor="middle" x="961.97" y="-825.45" font-family="Times,serif" font-size="14.00">:</text>
<text text-anchor="middle" x="961.97" y="-810.45" font-family="Times,serif" font-size="14.00">fd (punct)</text>
<text text-anchor="middle" x="961.97" y="-795.45" font-family="Times,serif" font-size="14.00">rep=no, t=no, r=no, m=no, c=no</text>
</g>
<!-- n13&#45;&gt;n6 -->
<g id="edge7" class="edge">
<title>n13&#45;&gt;n6</title>
<path fill="none" stroke="black" d="M1405.3,-899.33C1330.82,-885.39 1236.21,-867.62 1151.97,-851.63 1135.9,-848.58 1119.07,-845.37 1102.35,-842.17"/>
<polygon fill="black" stroke="black" points="1103.01,-838.73 1092.53,-840.29 1101.69,-845.6 1103.01,-838.73"/>
</g>
<!-- n7 -->
<g id="node9" class="node">
<title>n7</title>
<ellipse fill="none" stroke="black" cx="1342.97" cy="-814.15" rx="181.95" ry="37.45"/>
<text text-anchor="middle" x="1342.97" y="-825.45" font-family="Times,serif" font-size="14.00">&quot;</text>
<text text-anchor="middle" x="1342.97" y="-810.45" font-family="Times,serif" font-size="14.00">fe (punct)</text>
<text text-anchor="middle" x="1342.97" y="-795.45" font-family="Times,serif" font-size="14.00">rep=no, t=no, r=no, m=no, c=no</text>
</g>
<!-- n13&#45;&gt;n7 -->
<g id="edge8" class="edge">
<title>n13&#45;&gt;n7</title>
<path fill="none" stroke="black" d="M1476.54,-889.78C1456.41,-878.54 1433.91,-865.96 1413.19,-854.38"/>
<polygon fill="black" stroke="black" points="1414.86,-851.31 1404.43,-849.49 1411.45,-857.42 1414.86,-851.31"/>
</g>
<!-- n11 -->
<g id="node10" class="node">
<title>n11</title>
<ellipse fill="#DA79E8" stroke="black" cx="1733.97" cy="-814.15" rx="190.84" ry="37.45"/>
<text text-anchor="middle" x="1733.97" y="-825.45" font-family="Times,serif" font-size="14.00">son</text>
<text text-anchor="middle" x="1733.97" y="-810.45" font-family="Times,serif" font-size="14.00">vsip3p0 (cobj)</text>
<text text-anchor="middle" x="1733.97" y="-795.45" font-family="Times,serif" font-size="14.00">rep=no, t=no, r=yes, m=yes, c=no</text>
</g>
<!-- n13&#45;&gt;n11 -->
<g id="edge9" class="edge">
<title>n13&#45;&gt;n11</title>
<path fill="none" stroke="black" d="M1599.72,-889.78C1619.84,-878.59 1642.35,-866.08 1663.09,-854.55"/>
<polygon fill="black" stroke="black" points="1664.82,-857.59 1671.86,-849.68 1661.42,-851.48 1664.82,-857.59"/>
</g>
<!-- n14 -->
<g id="node11" class="node">
<title>n14</title>
<ellipse fill="none" stroke="black" cx="2124.97" cy="-814.15" rx="181.95" ry="37.45"/>
<text text-anchor="middle" x="2124.97" y="-825.45" font-family="Times,serif" font-size="14.00">,</text>
<text text-anchor="middle" x="2124.97" y="-810.45" font-family="Times,serif" font-size="14.00">fc (punct)</text>
<text text-anchor="middle" x="2124.97" y="-795.45" font-family="Times,serif" font-size="14.00">rep=no, t=no, r=no, m=no, c=no</text>
</g>
<!-- n13&#45;&gt;n14 -->
<g id="edge10" class="edge">
<title>n13&#45;&gt;n14</title>
<path fill="none" stroke="black" d="M1667.97,-898.85C1688.05,-895.03 1708.56,-891.19 1727.97,-887.63 1819.39,-870.86 1842.54,-868.34 1933.97,-851.63 1950.35,-848.63 1967.5,-845.44 1984.53,-842.23"/>
<polygon fill="black" stroke="black" points="1985.36,-845.64 1994.54,-840.34 1984.06,-838.76 1985.36,-845.64"/>
</g>
<!-- n30 -->
<g id="node12" class="node">
<title>n30</title>
<ellipse fill="none" stroke="black" cx="2505.97" cy="-814.15" rx="181.95" ry="37.45"/>
<text text-anchor="middle" x="2505.97" y="-825.45" font-family="Times,serif" font-size="14.00">&quot;</text>
<text text-anchor="middle" x="2505.97" y="-810.45" font-family="Times,serif" font-size="14.00">fe (punct)</text>
<text text-anchor="middle" x="2505.97" y="-795.45" font-family="Times,serif" font-size="14.00">rep=no, t=no, r=no, m=no, c=no</text>
</g>
<!-- n13&#45;&gt;n30 -->
<g id="edge11" class="edge">
<title>n13&#45;&gt;n30</title>
<path fill="none" stroke="black" d="M1662.55,-897.82C1684.28,-893.91 1706.72,-890.3 1727.97,-887.63 1987.74,-854.88 2056.2,-884.38 2315.97,-851.63 2333.98,-849.36 2352.85,-846.42 2371.42,-843.2"/>
<polygon fill="black" stroke="black" points="2372.15,-846.62 2381.39,-841.44 2370.94,-839.73 2372.15,-846.62"/>
</g>
<!-- n4 -->
<g id="node7" class="node">
<title>n4</title>
<ellipse fill="none" stroke="black" cx="575.97" cy="-703.2" rx="185.94" ry="37.45"/>
<text text-anchor="middle" x="575.97" y="-714.5" font-family="Times,serif" font-size="14.00">Fuentes</text>
<text text-anchor="middle" x="575.97" y="-699.5" font-family="Times,serif" font-size="14.00">ncms000 (appos)</text>
<text text-anchor="middle" x="575.97" y="-684.5" font-family="Times,serif" font-size="14.00">rep=yes, t=no, r=no, m=no, c=no</text>
</g>
<!-- n3&#45;&gt;n4 -->
<g id="edge6" class="edge">
<title>n3&#45;&gt;n4</title>
<path fill="none" stroke="black" d="M575.97,-776.57C575.97,-768.39 575.97,-759.61 575.97,-751.09"/>
<polygon fill="black" stroke="black" points="579.47,-750.87 575.97,-740.87 572.47,-750.87 579.47,-750.87"/>
</g>
<!-- n10 -->
<g id="node13" class="node">
<title>n10</title>
<ellipse fill="#BEDA48" stroke="black" cx="1333.97" cy="-703.2" rx="190.84" ry="37.45"/>
<text text-anchor="middle" x="1333.97" y="-714.5" font-family="Times,serif" font-size="14.00">leyes</text>
<text text-anchor="middle" x="1333.97" y="-699.5" font-family="Times,serif" font-size="14.00">ncfp000 (nsubj)</text>
<text text-anchor="middle" x="1333.97" y="-684.5" font-family="Times,serif" font-size="14.00">rep=no, t=yes, r=no, m=yes, c=no</text>
</g>
<!-- n11&#45;&gt;n10 -->
<g id="edge12" class="edge">
<title>n11&#45;&gt;n10</title>
<path fill="none" stroke="black" d="M1624.67,-783.38C1571.53,-768.9 1507.56,-751.48 1453.17,-736.67"/>
<polygon fill="black" stroke="black" points="1454.05,-733.28 1443.49,-734.03 1452.21,-740.03 1454.05,-733.28"/>
</g>
<!-- n12 -->
<g id="node14" class="node">
<title>n12</title>
<ellipse fill="#DA79E8" stroke="black" cx="1733.97" cy="-703.2" rx="190.84" ry="37.45"/>
<text text-anchor="middle" x="1733.97" y="-714.5" font-family="Times,serif" font-size="14.00">perfeccionables</text>
<text text-anchor="middle" x="1733.97" y="-699.5" font-family="Times,serif" font-size="14.00">aq0cp0 (attr)</text>
<text text-anchor="middle" x="1733.97" y="-684.5" font-family="Times,serif" font-size="14.00">rep=no, t=no, r=yes, m=yes, c=no</text>
</g>
<!-- n11&#45;&gt;n12 -->
<g id="edge13" class="edge">
<title>n11&#45;&gt;n12</title>
<path fill="none" stroke="black" d="M1733.97,-776.57C1733.97,-768.39 1733.97,-759.61 1733.97,-751.09"/>
<polygon fill="black" stroke="black" points="1737.47,-750.87 1733.97,-740.87 1730.47,-750.87 1737.47,-750.87"/>
</g>
<!-- n20 -->
<g id="node15" class="node">
<title>n20</title>
<ellipse fill="#DA79E8" stroke="black" cx="2133.97" cy="-703.2" rx="190.84" ry="37.45"/>
<text text-anchor="middle" x="2133.97" y="-714.5" font-family="Times,serif" font-size="14.00">estaremos</text>
<text text-anchor="middle" x="2133.97" y="-699.5" font-family="Times,serif" font-size="14.00">vmif1p0 (cobj)</text>
<text text-anchor="middle" x="2133.97" y="-684.5" font-family="Times,serif" font-size="14.00">rep=no, t=no, r=yes, m=yes, c=no</text>
</g>
<!-- n11&#45;&gt;n20 -->
<g id="edge14" class="edge">
<title>n11&#45;&gt;n20</title>
<path fill="none" stroke="black" d="M1843.27,-783.38C1896.41,-768.9 1960.38,-751.48 2014.76,-736.67"/>
<polygon fill="black" stroke="black" points="2015.72,-740.03 2024.45,-734.03 2013.88,-733.28 2015.72,-740.03"/>
</g>
<!-- n8 -->
<g id="node16" class="node">
<title>n8</title>
<ellipse fill="#BEDA48" stroke="black" cx="933.97" cy="-592.24" rx="190.84" ry="37.45"/>
<text text-anchor="middle" x="933.97" y="-603.54" font-family="Times,serif" font-size="14.00">todas</text>
<text text-anchor="middle" x="933.97" y="-588.54" font-family="Times,serif" font-size="14.00">di0fp0 (det)</text>
<text text-anchor="middle" x="933.97" y="-573.54" font-family="Times,serif" font-size="14.00">rep=no, t=yes, r=no, m=yes, c=no</text>
</g>
<!-- n10&#45;&gt;n8 -->
<g id="edge15" class="edge">
<title>n10&#45;&gt;n8</title>
<path fill="none" stroke="black" d="M1224.67,-672.42C1171.53,-657.95 1107.56,-640.53 1053.17,-625.71"/>
<polygon fill="black" stroke="black" points="1054.05,-622.32 1043.49,-623.07 1052.21,-629.08 1054.05,-622.32"/>
</g>
<!-- n9 -->
<g id="node17" class="node">
<title>n9</title>
<ellipse fill="#BEDA48" stroke="black" cx="1333.97" cy="-592.24" rx="190.84" ry="37.45"/>
<text text-anchor="middle" x="1333.97" y="-603.54" font-family="Times,serif" font-size="14.00">las</text>
<text text-anchor="middle" x="1333.97" y="-588.54" font-family="Times,serif" font-size="14.00">da0fp0 (det)</text>
<text text-anchor="middle" x="1333.97" y="-573.54" font-family="Times,serif" font-size="14.00">rep=no, t=yes, r=no, m=yes, c=no</text>
</g>
<!-- n10&#45;&gt;n9 -->
<g id="edge16" class="edge">
<title>n10&#45;&gt;n9</title>
<path fill="none" stroke="black" d="M1333.97,-665.61C1333.97,-657.44 1333.97,-648.66 1333.97,-640.13"/>
<polygon fill="black" stroke="black" points="1337.47,-639.92 1333.97,-629.92 1330.47,-639.92 1337.47,-639.92"/>
</g>
<!-- n15 -->
<g id="node18" class="node">
<title>n15</title>
<ellipse fill="#DA79E8" stroke="black" cx="1733.97" cy="-592.24" rx="190.84" ry="37.45"/>
<text text-anchor="middle" x="1733.97" y="-603.54" font-family="Times,serif" font-size="14.00">si</text>
<text text-anchor="middle" x="1733.97" y="-588.54" font-family="Times,serif" font-size="14.00">cs (advcl)</text>
<text text-anchor="middle" x="1733.97" y="-573.54" font-family="Times,serif" font-size="14.00">rep=no, t=no, r=yes, m=yes, c=no</text>
</g>
<!-- n20&#45;&gt;n15 -->
<g id="edge17" class="edge">
<title>n20&#45;&gt;n15</title>
<path fill="none" stroke="black" d="M2024.67,-672.42C1971.53,-657.95 1907.56,-640.53 1853.17,-625.71"/>
<polygon fill="black" stroke="black" points="1854.05,-622.32 1843.49,-623.07 1852.21,-629.08 1854.05,-622.32"/>
</g>
<!-- n19 -->
<g id="node19" class="node">
<title>n19</title>
<ellipse fill="#DA79E8" stroke="black" cx="2133.97" cy="-592.24" rx="190.84" ry="37.45"/>
<text text-anchor="middle" x="2133.97" y="-603.54" font-family="Times,serif" font-size="14.00">,</text>
<text text-anchor="middle" x="2133.97" y="-588.54" font-family="Times,serif" font-size="14.00">fc (punct)</text>
<text text-anchor="middle" x="2133.97" y="-573.54" font-family="Times,serif" font-size="14.00">rep=no, t=no, r=yes, m=yes, c=no</text>
</g>
<!-- n20&#45;&gt;n19 -->
<g id="edge18" class="edge">
<title>n20&#45;&gt;n19</title>
<path fill="none" stroke="black" d="M2133.97,-665.61C2133.97,-657.44 2133.97,-648.66 2133.97,-640.13"/>
<polygon fill="black" stroke="black" points="2137.47,-639.92 2133.97,-629.92 2130.47,-639.92 2137.47,-639.92"/>
</g>
<!-- n21 -->
<g id="node20" class="node">
<title>n21</title>
<ellipse fill="#DA79E8" stroke="black" cx="2533.97" cy="-592.24" rx="190.84" ry="37.45"/>
<text text-anchor="middle" x="2533.97" y="-603.54" font-family="Times,serif" font-size="14.00">en</text>
<text text-anchor="middle" x="2533.97" y="-588.54" font-family="Times,serif" font-size="14.00">sps00 (prepv)</text>
<text text-anchor="middle" x="2533.97" y="-573.54" font-family="Times,serif" font-size="14.00">rep=no, t=no, r=yes, m=yes, c=no</text>
</g>
<!-- n20&#45;&gt;n21 -->
<g id="edge19" class="edge">
<title>n20&#45;&gt;n21</title>
<path fill="none" stroke="black" d="M2243.27,-672.42C2296.41,-657.95 2360.38,-640.53 2414.76,-625.71"/>
<polygon fill="black" stroke="black" points="2415.72,-629.08 2424.45,-623.07 2413.88,-622.32 2415.72,-629.08"/>
</g>
<!-- n16 -->
<g id="node21" class="node">
<title>n16</title>
<ellipse fill="#DA79E8" stroke="black" cx="1733.97" cy="-481.29" rx="190.84" ry="37.45"/>
<text text-anchor="middle" x="1733.97" y="-492.59" font-family="Times,serif" font-size="14.00">hay</text>
<text text-anchor="middle" x="1733.97" y="-477.59" font-family="Times,serif" font-size="14.00">vaip3s0 (cobj)</text>
<text text-anchor="middle" x="1733.97" y="-462.59" font-family="Times,serif" font-size="14.00">rep=no, t=no, r=yes, m=yes, c=no</text>
</g>
<!-- n15&#45;&gt;n16 -->
<g id="edge20" class="edge">
<title>n15&#45;&gt;n16</title>
<path fill="none" stroke="black" d="M1733.97,-554.66C1733.97,-546.49 1733.97,-537.71 1733.97,-529.18"/>
<polygon fill="black" stroke="black" points="1737.47,-528.96 1733.97,-518.96 1730.47,-528.96 1737.47,-528.96"/>
</g>
<!-- n24 -->
<g id="node24" class="node">
<title>n24</title>
<ellipse fill="#DA79E8" stroke="black" cx="2533.97" cy="-481.29" rx="190.84" ry="37.45"/>
<text text-anchor="middle" x="2533.97" y="-492.59" font-family="Times,serif" font-size="14.00">disposición</text>
<text text-anchor="middle" x="2533.97" y="-477.59" font-family="Times,serif" font-size="14.00">ncfs000 (pobj)</text>
<text text-anchor="middle" x="2533.97" y="-462.59" font-family="Times,serif" font-size="14.00">rep=no, t=no, r=yes, m=yes, c=no</text>
</g>
<!-- n21&#45;&gt;n24 -->
<g id="edge23" class="edge">
<title>n21&#45;&gt;n24</title>
<path fill="none" stroke="black" d="M2533.97,-554.66C2533.97,-546.49 2533.97,-537.71 2533.97,-529.18"/>
<polygon fill="black" stroke="black" points="2537.47,-528.96 2533.97,-518.96 2530.47,-528.96 2537.47,-528.96"/>
</g>
<!-- n18 -->
<g id="node22" class="node">
<title>n18</title>
<ellipse fill="#DA79E8" stroke="black" cx="1733.97" cy="-370.34" rx="190.84" ry="37.45"/>
<text text-anchor="middle" x="1733.97" y="-381.64" font-family="Times,serif" font-size="14.00">vacío</text>
<text text-anchor="middle" x="1733.97" y="-366.64" font-family="Times,serif" font-size="14.00">ncms000 (dobj)</text>
<text text-anchor="middle" x="1733.97" y="-351.64" font-family="Times,serif" font-size="14.00">rep=no, t=no, r=yes, m=yes, c=no</text>
</g>
<!-- n16&#45;&gt;n18 -->
<g id="edge21" class="edge">
<title>n16&#45;&gt;n18</title>
<path fill="none" stroke="black" d="M1733.97,-443.71C1733.97,-435.53 1733.97,-426.75 1733.97,-418.23"/>
<polygon fill="black" stroke="black" points="1737.47,-418.01 1733.97,-408.01 1730.47,-418.01 1737.47,-418.01"/>
</g>
<!-- n17 -->
<g id="node23" class="node">
<title>n17</title>
<ellipse fill="#DA79E8" stroke="black" cx="1733.97" cy="-259.38" rx="190.84" ry="37.45"/>
<text text-anchor="middle" x="1733.97" y="-270.68" font-family="Times,serif" font-size="14.00">algún</text>
<text text-anchor="middle" x="1733.97" y="-255.68" font-family="Times,serif" font-size="14.00">di0ms0 (det)</text>
<text text-anchor="middle" x="1733.97" y="-240.68" font-family="Times,serif" font-size="14.00">rep=no, t=no, r=yes, m=yes, c=no</text>
</g>
<!-- n18&#45;&gt;n17 -->
<g id="edge22" class="edge">
<title>n18&#45;&gt;n17</title>
<path fill="none" stroke="black" d="M1733.97,-332.75C1733.97,-324.58 1733.97,-315.8 1733.97,-307.27"/>
<polygon fill="black" stroke="black" points="1737.47,-307.06 1733.97,-297.06 1730.47,-307.06 1737.47,-307.06"/>
</g>
<!-- n22 -->
<g id="node25" class="node">
<title>n22</title>
<ellipse fill="#DA79E8" stroke="black" cx="2133.97" cy="-370.34" rx="190.84" ry="37.45"/>
<text text-anchor="middle" x="2133.97" y="-381.64" font-family="Times,serif" font-size="14.00">la</text>
<text text-anchor="middle" x="2133.97" y="-366.64" font-family="Times,serif" font-size="14.00">da0fs0 (det)</text>
<text text-anchor="middle" x="2133.97" y="-351.64" font-family="Times,serif" font-size="14.00">rep=no, t=no, r=yes, m=yes, c=no</text>
</g>
<!-- n24&#45;&gt;n22 -->
<g id="edge24" class="edge">
<title>n24&#45;&gt;n22</title>
<path fill="none" stroke="black" d="M2424.67,-450.52C2371.53,-436.04 2307.56,-418.62 2253.17,-403.81"/>
<polygon fill="black" stroke="black" points="2254.05,-400.42 2243.49,-401.17 2252.21,-407.17 2254.05,-400.42"/>
</g>
<!-- n23 -->
<g id="node26" class="node">
<title>n23</title>
<ellipse fill="#DA79E8" stroke="black" cx="2533.97" cy="-370.34" rx="190.84" ry="37.45"/>
<text text-anchor="middle" x="2533.97" y="-381.64" font-family="Times,serif" font-size="14.00">Mejor</text>
<text text-anchor="middle" x="2533.97" y="-366.64" font-family="Times,serif" font-size="14.00">aq0cs0 (amod)</text>
<text text-anchor="middle" x="2533.97" y="-351.64" font-family="Times,serif" font-size="14.00">rep=no, t=no, r=yes, m=yes, c=no</text>
</g>
<!-- n24&#45;&gt;n23 -->
<g id="edge25" class="edge">
<title>n24&#45;&gt;n23</title>
<path fill="none" stroke="black" d="M2533.97,-443.71C2533.97,-435.53 2533.97,-426.75 2533.97,-418.23"/>
<polygon fill="black" stroke="black" points="2537.47,-418.01 2533.97,-408.01 2530.47,-418.01 2537.47,-418.01"/>
</g>
<!-- n25 -->
<g id="node27" class="node">
<title>n25</title>
<ellipse fill="#DA79E8" stroke="black" cx="2933.97" cy="-370.34" rx="190.84" ry="37.45"/>
<text text-anchor="middle" x="2933.97" y="-381.64" font-family="Times,serif" font-size="14.00">para</text>
<text text-anchor="middle" x="2933.97" y="-366.64" font-family="Times,serif" font-size="14.00">sps00 (prepn)</text>
<text text-anchor="middle" x="2933.97" y="-351.64" font-family="Times,serif" font-size="14.00">rep=no, t=no, r=yes, m=yes, c=no</text>
</g>
<!-- n24&#45;&gt;n25 -->
<g id="edge26" class="edge">
<title>n24&#45;&gt;n25</title>
<path fill="none" stroke="black" d="M2643.27,-450.52C2696.41,-436.04 2760.38,-418.62 2814.76,-403.81"/>
<polygon fill="black" stroke="black" points="2815.72,-407.17 2824.45,-401.17 2813.88,-400.42 2815.72,-407.17"/>
</g>
<!-- n26 -->
<g id="node28" class="node">
<title>n26</title>
<ellipse fill="#DA79E8" stroke="black" cx="2933.97" cy="-259.38" rx="190.84" ry="37.45"/>
<text text-anchor="middle" x="2933.97" y="-270.68" font-family="Times,serif" font-size="14.00">hacer</text>
<text text-anchor="middle" x="2933.97" y="-255.68" font-family="Times,serif" font-size="14.00">vmn0000 (pobj)</text>
<text text-anchor="middle" x="2933.97" y="-240.68" font-family="Times,serif" font-size="14.00">rep=no, t=no, r=yes, m=yes, c=no</text>
</g>
<!-- n25&#45;&gt;n26 -->
<g id="edge27" class="edge">
<title>n25&#45;&gt;n26</title>
<path fill="none" stroke="black" d="M2933.97,-332.75C2933.97,-324.58 2933.97,-315.8 2933.97,-307.27"/>
<polygon fill="black" stroke="black" points="2937.47,-307.06 2933.97,-297.06 2930.47,-307.06 2937.47,-307.06"/>
</g>
<!-- n28 -->
<g id="node29" class="node">
<title>n28</title>
<ellipse fill="#DA79E8" stroke="black" cx="2933.97" cy="-148.43" rx="190.84" ry="37.45"/>
<text text-anchor="middle" x="2933.97" y="-159.73" font-family="Times,serif" font-size="14.00">cambios</text>
<text text-anchor="middle" x="2933.97" y="-144.73" font-family="Times,serif" font-size="14.00">ncmp000 (dobj)</text>
<text text-anchor="middle" x="2933.97" y="-129.73" font-family="Times,serif" font-size="14.00">rep=no, t=no, r=yes, m=yes, c=no</text>
</g>
<!-- n26&#45;&gt;n28 -->
<g id="edge28" class="edge">
<title>n26&#45;&gt;n28</title>
<path fill="none" stroke="black" d="M2933.97,-221.8C2933.97,-213.63 2933.97,-204.85 2933.97,-196.32"/>
<polygon fill="black" stroke="black" points="2937.47,-196.1 2933.97,-186.1 2930.47,-196.1 2937.47,-196.1"/>
</g>
<!-- n27 -->
<g id="node30" class="node">
<title>n27</title>
<ellipse fill="#DA79E8" stroke="black" cx="2733.97" cy="-37.48" rx="190.84" ry="37.45"/>
<text text-anchor="middle" x="2733.97" y="-48.78" font-family="Times,serif" font-size="14.00">los</text>
<text text-anchor="middle" x="2733.97" y="-33.78" font-family="Times,serif" font-size="14.00">da0mp0 (det)</text>
<text text-anchor="middle" x="2733.97" y="-18.78" font-family="Times,serif" font-size="14.00">rep=no, t=no, r=yes, m=yes, c=no</text>
</g>
<!-- n28&#45;&gt;n27 -->
<g id="edge29" class="edge">
<title>n28&#45;&gt;n27</title>
<path fill="none" stroke="black" d="M2870.69,-112.96C2850.16,-101.77 2827.23,-89.28 2806.11,-77.78"/>
<polygon fill="black" stroke="black" points="2807.64,-74.62 2797.18,-72.91 2804.29,-80.77 2807.64,-74.62"/>
</g>
<!-- n29 -->
<g id="node31" class="node">
<title>n29</title>
<ellipse fill="#DA79E8" stroke="black" cx="3133.97" cy="-37.48" rx="190.84" ry="37.45"/>
<text text-anchor="middle" x="3133.97" y="-48.78" font-family="Times,serif" font-size="14.00">necesarios</text>
<text text-anchor="middle" x="3133.97" y="-33.78" font-family="Times,serif" font-size="14.00">aq0mp0 (amod)</text>
<text text-anchor="middle" x="3133.97" y="-18.78" font-family="Times,serif" font-size="14.00">rep=no, t=no, r=yes, m=yes, c=no</text>
</g>
<!-- n28&#45;&gt;n29 -->
<g id="edge30" class="edge">
<title>n28&#45;&gt;n29</title>
<path fill="none" stroke="black" d="M2997.25,-112.96C3017.78,-101.77 3040.7,-89.28 3061.83,-77.78"/>
<polygon fill="black" stroke="black" points="3063.65,-80.77 3070.76,-72.91 3060.3,-74.62 3063.65,-80.77"/>
</g>
</g>
</svg>
