<?xml version="1.0" encoding="UTF-8" standalone="no"?>
<!DOCTYPE svg PUBLIC "-//W3C//DTD SVG 1.1//EN"
 "http://www.w3.org/Graphics/SVG/1.1/DTD/svg11.dtd">
<!-- Generated by graphviz version 2.43.0 (0)
 -->
<!-- Title: tree Pages: 1 -->
<svg width="3590pt" height="1192pt"
 viewBox="0.00 0.00 3589.84 1192.49" xmlns="http://www.w3.org/2000/svg" xmlns:xlink="http://www.w3.org/1999/xlink">
<g id="graph0" class="graph" transform="scale(1 1) rotate(0) translate(4 1188.49)">
<title>tree</title>
<polygon fill="white" stroke="transparent" points="-4,4 -4,-1188.49 3585.84,-1188.49 3585.84,4 -4,4"/>
<!-- n10 -->
<g id="node1" class="node">
<title>n10</title>
<ellipse fill="#98D2A5" stroke="black" cx="1781.92" cy="-1147.01" rx="190.84" ry="37.45"/>
<text text-anchor="middle" x="1781.92" y="-1158.31" font-family="Times,serif" font-size="14.00">fue</text>
<text text-anchor="middle" x="1781.92" y="-1143.31" font-family="Times,serif" font-size="14.00">vsis3s0 (root)</text>
<text text-anchor="middle" x="1781.92" y="-1128.31" font-family="Times,serif" font-size="14.00">rep=no, t=no, r=yes, m=yes, c=no</text>
</g>
<!-- n2 -->
<g id="node2" class="node">
<title>n2</title>
<ellipse fill="#98D2A5" stroke="black" cx="590.92" cy="-1036.06" rx="190.84" ry="37.45"/>
<text text-anchor="middle" x="590.92" y="-1047.36" font-family="Times,serif" font-size="14.00">hecho</text>
<text text-anchor="middle" x="590.92" y="-1032.36" font-family="Times,serif" font-size="14.00">ncms000 (nsubj)</text>
<text text-anchor="middle" x="590.92" y="-1017.36" font-family="Times,serif" font-size="14.00">rep=no, t=yes, r=no, m=yes, c=no</text>
</g>
<!-- n10&#45;&gt;n2 -->
<g id="edge1" class="edge">
<title>n10&#45;&gt;n2</title>
<path fill="none" stroke="black" d="M1610.64,-1130.34C1387.7,-1109.95 999.75,-1074.46 772.06,-1053.63"/>
<polygon fill="black" stroke="black" points="772.29,-1050.13 762.01,-1052.71 771.65,-1057.1 772.29,-1050.13"/>
</g>
<!-- n12 -->
<g id="node3" class="node">
<title>n12</title>
<ellipse fill="#98D2A5" stroke="black" cx="1390.92" cy="-1036.06" rx="190.84" ry="37.45"/>
<text text-anchor="middle" x="1390.92" y="-1047.36" font-family="Times,serif" font-size="14.00">colocación</text>
<text text-anchor="middle" x="1390.92" y="-1032.36" font-family="Times,serif" font-size="14.00">ncfs000 (attr)</text>
<text text-anchor="middle" x="1390.92" y="-1017.36" font-family="Times,serif" font-size="14.00">rep=no, t=no, r=yes, m=yes, c=no</text>
</g>
<!-- n10&#45;&gt;n12 -->
<g id="edge2" class="edge">
<title>n10&#45;&gt;n12</title>
<path fill="none" stroke="black" d="M1674.3,-1116.02C1622.8,-1101.67 1561.02,-1084.46 1508.31,-1069.77"/>
<polygon fill="black" stroke="black" points="1509.15,-1066.37 1498.58,-1067.06 1507.27,-1073.11 1509.15,-1066.37"/>
</g>
<!-- n29 -->
<g id="node4" class="node">
<title>n29</title>
<ellipse fill="none" stroke="black" cx="1781.92" cy="-1036.06" rx="181.95" ry="37.45"/>
<text text-anchor="middle" x="1781.92" y="-1047.36" font-family="Times,serif" font-size="14.00">,</text>
<text text-anchor="middle" x="1781.92" y="-1032.36" font-family="Times,serif" font-size="14.00">fc (punct)</text>
<text text-anchor="middle" x="1781.92" y="-1017.36" font-family="Times,serif" font-size="14.00">rep=no, t=no, r=no, m=no, c=no</text>
</g>
<!-- n10&#45;&gt;n29 -->
<g id="edge3" class="edge">
<title>n10&#45;&gt;n29</title>
<path fill="none" stroke="black" d="M1781.92,-1109.43C1781.92,-1101.25 1781.92,-1092.47 1781.92,-1083.95"/>
<polygon fill="black" stroke="black" points="1785.42,-1083.73 1781.92,-1073.73 1778.42,-1083.73 1785.42,-1083.73"/>
</g>
<!-- n30 -->
<g id="node5" class="node">
<title>n30</title>
<ellipse fill="#98D2A5" stroke="black" cx="2172.92" cy="-1036.06" rx="190.84" ry="37.45"/>
<text text-anchor="middle" x="2172.92" y="-1047.36" font-family="Times,serif" font-size="14.00">construida</text>
<text text-anchor="middle" x="2172.92" y="-1032.36" font-family="Times,serif" font-size="14.00">aq0fsp (attr)</text>
<text text-anchor="middle" x="2172.92" y="-1017.36" font-family="Times,serif" font-size="14.00">rep=no, t=no, r=yes, m=yes, c=no</text>
</g>
<!-- n10&#45;&gt;n30 -->
<g id="edge4" class="edge">
<title>n10&#45;&gt;n30</title>
<path fill="none" stroke="black" d="M1889.54,-1116.02C1941.04,-1101.67 2002.81,-1084.46 2055.52,-1069.77"/>
<polygon fill="black" stroke="black" points="2056.56,-1073.11 2065.26,-1067.06 2054.68,-1066.37 2056.56,-1073.11"/>
</g>
<!-- n40 -->
<g id="node6" class="node">
<title>n40</title>
<ellipse fill="none" stroke="black" cx="2563.92" cy="-1036.06" rx="181.95" ry="37.45"/>
<text text-anchor="middle" x="2563.92" y="-1047.36" font-family="Times,serif" font-size="14.00">.</text>
<text text-anchor="middle" x="2563.92" y="-1032.36" font-family="Times,serif" font-size="14.00">fp (punct)</text>
<text text-anchor="middle" x="2563.92" y="-1017.36" font-family="Times,serif" font-size="14.00">rep=no, t=no, r=no, m=no, c=no</text>
</g>
<!-- n10&#45;&gt;n40 -->
<g id="edge5" class="edge">
<title>n10&#45;&gt;n40</title>
<path fill="none" stroke="black" d="M1948.55,-1128.58C2067.18,-1115.43 2230.2,-1095.89 2372.92,-1073.53 2390.16,-1070.83 2408.22,-1067.74 2426.07,-1064.51"/>
<polygon fill="black" stroke="black" points="2426.74,-1067.95 2435.96,-1062.71 2425.49,-1061.06 2426.74,-1067.95"/>
</g>
<!-- n1 -->
<g id="node7" class="node">
<title>n1</title>
<ellipse fill="#98D2A5" stroke="black" cx="190.92" cy="-925.1" rx="190.84" ry="37.45"/>
<text text-anchor="middle" x="190.92" y="-936.4" font-family="Times,serif" font-size="14.00">El</text>
<text text-anchor="middle" x="190.92" y="-921.4" font-family="Times,serif" font-size="14.00">da0ms0 (det)</text>
<text text-anchor="middle" x="190.92" y="-906.4" font-family="Times,serif" font-size="14.00">rep=no, t=yes, r=no, m=yes, c=no</text>
</g>
<!-- n2&#45;&gt;n1 -->
<g id="edge6" class="edge">
<title>n2&#45;&gt;n1</title>
<path fill="none" stroke="black" d="M481.62,-1005.28C428.48,-990.81 364.51,-973.39 310.12,-958.57"/>
<polygon fill="black" stroke="black" points="311,-955.18 300.44,-955.93 309.16,-961.94 311,-955.18"/>
</g>
<!-- n5 -->
<g id="node8" class="node">
<title>n5</title>
<ellipse fill="#98D2A5" stroke="black" cx="590.92" cy="-925.1" rx="190.84" ry="37.45"/>
<text text-anchor="middle" x="590.92" y="-936.4" font-family="Times,serif" font-size="14.00">ha</text>
<text text-anchor="middle" x="590.92" y="-921.4" font-family="Times,serif" font-size="14.00">vaip3s0 (rcmod)</text>
<text text-anchor="middle" x="590.92" y="-906.4" font-family="Times,serif" font-size="14.00">rep=no, t=yes, r=no, m=yes, c=no</text>
</g>
<!-- n2&#45;&gt;n5 -->
<g id="edge7" class="edge">
<title>n2&#45;&gt;n5</title>
<path fill="none" stroke="black" d="M590.92,-998.47C590.92,-990.3 590.92,-981.52 590.92,-972.99"/>
<polygon fill="black" stroke="black" points="594.42,-972.78 590.92,-962.78 587.42,-972.78 594.42,-972.78"/>
</g>
<!-- n11 -->
<g id="node15" class="node">
<title>n11</title>
<ellipse fill="#98D2A5" stroke="black" cx="990.92" cy="-925.1" rx="190.84" ry="37.45"/>
<text text-anchor="middle" x="990.92" y="-936.4" font-family="Times,serif" font-size="14.00">la</text>
<text text-anchor="middle" x="990.92" y="-921.4" font-family="Times,serif" font-size="14.00">da0fs0 (det)</text>
<text text-anchor="middle" x="990.92" y="-906.4" font-family="Times,serif" font-size="14.00">rep=no, t=no, r=yes, m=yes, c=no</text>
</g>
<!-- n12&#45;&gt;n11 -->
<g id="edge14" class="edge">
<title>n12&#45;&gt;n11</title>
<path fill="none" stroke="black" d="M1281.62,-1005.28C1228.48,-990.81 1164.51,-973.39 1110.12,-958.57"/>
<polygon fill="black" stroke="black" points="1111,-955.18 1100.44,-955.93 1109.16,-961.94 1111,-955.18"/>
</g>
<!-- n13 -->
<g id="node16" class="node">
<title>n13</title>
<ellipse fill="#98D2A5" stroke="black" cx="1390.92" cy="-925.1" rx="190.84" ry="37.45"/>
<text text-anchor="middle" x="1390.92" y="-936.4" font-family="Times,serif" font-size="14.00">de</text>
<text text-anchor="middle" x="1390.92" y="-921.4" font-family="Times,serif" font-size="14.00">sps00 (prepn)</text>
<text text-anchor="middle" x="1390.92" y="-906.4" font-family="Times,serif" font-size="14.00">rep=no, t=no, r=yes, m=yes, c=no</text>
</g>
<!-- n12&#45;&gt;n13 -->
<g id="edge15" class="edge">
<title>n12&#45;&gt;n13</title>
<path fill="none" stroke="black" d="M1390.92,-998.47C1390.92,-990.3 1390.92,-981.52 1390.92,-972.99"/>
<polygon fill="black" stroke="black" points="1394.42,-972.78 1390.92,-962.78 1387.42,-972.78 1394.42,-972.78"/>
</g>
<!-- n17 -->
<g id="node17" class="node">
<title>n17</title>
<ellipse fill="#98D2A5" stroke="black" cx="1790.92" cy="-925.1" rx="190.84" ry="37.45"/>
<text text-anchor="middle" x="1790.92" y="-936.4" font-family="Times,serif" font-size="14.00">en</text>
<text text-anchor="middle" x="1790.92" y="-921.4" font-family="Times,serif" font-size="14.00">sps00 (prepn)</text>
<text text-anchor="middle" x="1790.92" y="-906.4" font-family="Times,serif" font-size="14.00">rep=no, t=no, r=yes, m=yes, c=no</text>
</g>
<!-- n12&#45;&gt;n17 -->
<g id="edge16" class="edge">
<title>n12&#45;&gt;n17</title>
<path fill="none" stroke="black" d="M1500.22,-1005.28C1553.36,-990.81 1617.33,-973.39 1671.71,-958.57"/>
<polygon fill="black" stroke="black" points="1672.67,-961.94 1681.4,-955.93 1670.83,-955.18 1672.67,-961.94"/>
</g>
<!-- n31 -->
<g id="node32" class="node">
<title>n31</title>
<ellipse fill="#98D2A5" stroke="black" cx="2390.92" cy="-925.1" rx="190.84" ry="37.45"/>
<text text-anchor="middle" x="2390.92" y="-936.4" font-family="Times,serif" font-size="14.00">de</text>
<text text-anchor="middle" x="2390.92" y="-921.4" font-family="Times,serif" font-size="14.00">sps00 (advcl)</text>
<text text-anchor="middle" x="2390.92" y="-906.4" font-family="Times,serif" font-size="14.00">rep=no, t=no, r=yes, m=yes, c=no</text>
</g>
<!-- n30&#45;&gt;n31 -->
<g id="edge31" class="edge">
<title>n30&#45;&gt;n31</title>
<path fill="none" stroke="black" d="M2241,-1001.03C2264.04,-989.52 2289.94,-976.57 2313.64,-964.73"/>
<polygon fill="black" stroke="black" points="2315.23,-967.85 2322.61,-960.25 2312.1,-961.59 2315.23,-967.85"/>
</g>
<!-- n3 -->
<g id="node9" class="node">
<title>n3</title>
<ellipse fill="#98D2A5" stroke="black" cx="190.92" cy="-814.15" rx="190.84" ry="37.45"/>
<text text-anchor="middle" x="190.92" y="-825.45" font-family="Times,serif" font-size="14.00">que</text>
<text text-anchor="middle" x="190.92" y="-810.45" font-family="Times,serif" font-size="14.00">pr0cn000 (nsubj)</text>
<text text-anchor="middle" x="190.92" y="-795.45" font-family="Times,serif" font-size="14.00">rep=no, t=yes, r=no, m=yes, c=no</text>
</g>
<!-- n5&#45;&gt;n3 -->
<g id="edge8" class="edge">
<title>n5&#45;&gt;n3</title>
<path fill="none" stroke="black" d="M481.62,-894.33C428.48,-879.86 364.51,-862.43 310.12,-847.62"/>
<polygon fill="black" stroke="black" points="311,-844.23 300.44,-844.98 309.16,-850.99 311,-844.23"/>
</g>
<!-- n6 -->
<g id="node10" class="node">
<title>n6</title>
<ellipse fill="#98D2A5" stroke="black" cx="590.92" cy="-814.15" rx="190.84" ry="37.45"/>
<text text-anchor="middle" x="590.92" y="-825.45" font-family="Times,serif" font-size="14.00">preocupado</text>
<text text-anchor="middle" x="590.92" y="-810.45" font-family="Times,serif" font-size="14.00">vmp00sm (vobj)</text>
<text text-anchor="middle" x="590.92" y="-795.45" font-family="Times,serif" font-size="14.00">rep=no, t=yes, r=no, m=yes, c=no</text>
</g>
<!-- n5&#45;&gt;n6 -->
<g id="edge9" class="edge">
<title>n5&#45;&gt;n6</title>
<path fill="none" stroke="black" d="M590.92,-887.52C590.92,-879.35 590.92,-870.57 590.92,-862.04"/>
<polygon fill="black" stroke="black" points="594.42,-861.82 590.92,-851.82 587.42,-861.82 594.42,-861.82"/>
</g>
<!-- n4 -->
<g id="node11" class="node">
<title>n4</title>
<ellipse fill="#98D2A5" stroke="black" cx="190.92" cy="-703.2" rx="190.84" ry="37.45"/>
<text text-anchor="middle" x="190.92" y="-714.5" font-family="Times,serif" font-size="14.00">más</text>
<text text-anchor="middle" x="190.92" y="-699.5" font-family="Times,serif" font-size="14.00">rg (advmod)</text>
<text text-anchor="middle" x="190.92" y="-684.5" font-family="Times,serif" font-size="14.00">rep=no, t=yes, r=no, m=yes, c=no</text>
</g>
<!-- n6&#45;&gt;n4 -->
<g id="edge10" class="edge">
<title>n6&#45;&gt;n4</title>
<path fill="none" stroke="black" d="M481.62,-783.38C428.48,-768.9 364.51,-751.48 310.12,-736.67"/>
<polygon fill="black" stroke="black" points="311,-733.28 300.44,-734.03 309.16,-740.03 311,-733.28"/>
</g>
<!-- n7 -->
<g id="node12" class="node">
<title>n7</title>
<ellipse fill="#98D2A5" stroke="black" cx="590.92" cy="-703.2" rx="190.84" ry="37.45"/>
<text text-anchor="middle" x="590.92" y="-714.5" font-family="Times,serif" font-size="14.00">a</text>
<text text-anchor="middle" x="590.92" y="-699.5" font-family="Times,serif" font-size="14.00">sps00 (dobj)</text>
<text text-anchor="middle" x="590.92" y="-684.5" font-family="Times,serif" font-size="14.00">rep=no, t=yes, r=no, m=yes, c=no</text>
</g>
<!-- n6&#45;&gt;n7 -->
<g id="edge11" class="edge">
<title>n6&#45;&gt;n7</title>
<path fill="none" stroke="black" d="M590.92,-776.57C590.92,-768.39 590.92,-759.61 590.92,-751.09"/>
<polygon fill="black" stroke="black" points="594.42,-750.87 590.92,-740.87 587.42,-750.87 594.42,-750.87"/>
</g>
<!-- n9 -->
<g id="node13" class="node">
<title>n9</title>
<ellipse fill="#98D2A5" stroke="black" cx="590.92" cy="-592.24" rx="190.84" ry="37.45"/>
<text text-anchor="middle" x="590.92" y="-603.54" font-family="Times,serif" font-size="14.00">autoridades</text>
<text text-anchor="middle" x="590.92" y="-588.54" font-family="Times,serif" font-size="14.00">ncfp000 (pobj)</text>
<text text-anchor="middle" x="590.92" y="-573.54" font-family="Times,serif" font-size="14.00">rep=no, t=yes, r=no, m=yes, c=no</text>
</g>
<!-- n7&#45;&gt;n9 -->
<g id="edge12" class="edge">
<title>n7&#45;&gt;n9</title>
<path fill="none" stroke="black" d="M590.92,-665.61C590.92,-657.44 590.92,-648.66 590.92,-640.13"/>
<polygon fill="black" stroke="black" points="594.42,-639.92 590.92,-629.92 587.42,-639.92 594.42,-639.92"/>
</g>
<!-- n8 -->
<g id="node14" class="node">
<title>n8</title>
<ellipse fill="#98D2A5" stroke="black" cx="590.92" cy="-481.29" rx="190.84" ry="37.45"/>
<text text-anchor="middle" x="590.92" y="-492.59" font-family="Times,serif" font-size="14.00">las</text>
<text text-anchor="middle" x="590.92" y="-477.59" font-family="Times,serif" font-size="14.00">da0fp0 (det)</text>
<text text-anchor="middle" x="590.92" y="-462.59" font-family="Times,serif" font-size="14.00">rep=no, t=yes, r=no, m=yes, c=no</text>
</g>
<!-- n9&#45;&gt;n8 -->
<g id="edge13" class="edge">
<title>n9&#45;&gt;n8</title>
<path fill="none" stroke="black" d="M590.92,-554.66C590.92,-546.49 590.92,-537.71 590.92,-529.18"/>
<polygon fill="black" stroke="black" points="594.42,-528.96 590.92,-518.96 587.42,-528.96 594.42,-528.96"/>
</g>
<!-- n16 -->
<g id="node18" class="node">
<title>n16</title>
<ellipse fill="#98D2A5" stroke="black" cx="1390.92" cy="-814.15" rx="190.84" ry="37.45"/>
<text text-anchor="middle" x="1390.92" y="-825.45" font-family="Times,serif" font-size="14.00">bomba</text>
<text text-anchor="middle" x="1390.92" y="-810.45" font-family="Times,serif" font-size="14.00">ncfs000 (pobj)</text>
<text text-anchor="middle" x="1390.92" y="-795.45" font-family="Times,serif" font-size="14.00">rep=no, t=no, r=yes, m=yes, c=no</text>
</g>
<!-- n13&#45;&gt;n16 -->
<g id="edge17" class="edge">
<title>n13&#45;&gt;n16</title>
<path fill="none" stroke="black" d="M1390.92,-887.52C1390.92,-879.35 1390.92,-870.57 1390.92,-862.04"/>
<polygon fill="black" stroke="black" points="1394.42,-861.82 1390.92,-851.82 1387.42,-861.82 1394.42,-861.82"/>
</g>
<!-- n19 -->
<g id="node21" class="node">
<title>n19</title>
<ellipse fill="#98D2A5" stroke="black" cx="1790.92" cy="-814.15" rx="190.84" ry="37.45"/>
<text text-anchor="middle" x="1790.92" y="-825.45" font-family="Times,serif" font-size="14.00">bajos</text>
<text text-anchor="middle" x="1790.92" y="-810.45" font-family="Times,serif" font-size="14.00">ncmp000 (pobj)</text>
<text text-anchor="middle" x="1790.92" y="-795.45" font-family="Times,serif" font-size="14.00">rep=no, t=no, r=yes, m=yes, c=no</text>
</g>
<!-- n17&#45;&gt;n19 -->
<g id="edge20" class="edge">
<title>n17&#45;&gt;n19</title>
<path fill="none" stroke="black" d="M1790.92,-887.52C1790.92,-879.35 1790.92,-870.57 1790.92,-862.04"/>
<polygon fill="black" stroke="black" points="1794.42,-861.82 1790.92,-851.82 1787.42,-861.82 1794.42,-861.82"/>
</g>
<!-- n14 -->
<g id="node19" class="node">
<title>n14</title>
<ellipse fill="#98D2A5" stroke="black" cx="990.92" cy="-703.2" rx="190.84" ry="37.45"/>
<text text-anchor="middle" x="990.92" y="-714.5" font-family="Times,serif" font-size="14.00">una</text>
<text text-anchor="middle" x="990.92" y="-699.5" font-family="Times,serif" font-size="14.00">di0fs0 (det)</text>
<text text-anchor="middle" x="990.92" y="-684.5" font-family="Times,serif" font-size="14.00">rep=no, t=no, r=yes, m=yes, c=no</text>
</g>
<!-- n16&#45;&gt;n14 -->
<g id="edge18" class="edge">
<title>n16&#45;&gt;n14</title>
<path fill="none" stroke="black" d="M1281.62,-783.38C1228.48,-768.9 1164.51,-751.48 1110.12,-736.67"/>
<polygon fill="black" stroke="black" points="1111,-733.28 1100.44,-734.03 1109.16,-740.03 1111,-733.28"/>
</g>
<!-- n15 -->
<g id="node20" class="node">
<title>n15</title>
<ellipse fill="#98D2A5" stroke="black" cx="1390.92" cy="-703.2" rx="190.84" ry="37.45"/>
<text text-anchor="middle" x="1390.92" y="-714.5" font-family="Times,serif" font-size="14.00">falsa</text>
<text text-anchor="middle" x="1390.92" y="-699.5" font-family="Times,serif" font-size="14.00">aq0fs0 (amod)</text>
<text text-anchor="middle" x="1390.92" y="-684.5" font-family="Times,serif" font-size="14.00">rep=no, t=no, r=yes, m=yes, c=no</text>
</g>
<!-- n16&#45;&gt;n15 -->
<g id="edge19" class="edge">
<title>n16&#45;&gt;n15</title>
<path fill="none" stroke="black" d="M1390.92,-776.57C1390.92,-768.39 1390.92,-759.61 1390.92,-751.09"/>
<polygon fill="black" stroke="black" points="1394.42,-750.87 1390.92,-740.87 1387.42,-750.87 1394.42,-750.87"/>
</g>
<!-- n18 -->
<g id="node22" class="node">
<title>n18</title>
<ellipse fill="#98D2A5" stroke="black" cx="1790.92" cy="-703.2" rx="190.84" ry="37.45"/>
<text text-anchor="middle" x="1790.92" y="-714.5" font-family="Times,serif" font-size="14.00">los</text>
<text text-anchor="middle" x="1790.92" y="-699.5" font-family="Times,serif" font-size="14.00">da0mp0 (det)</text>
<text text-anchor="middle" x="1790.92" y="-684.5" font-family="Times,serif" font-size="14.00">rep=no, t=no, r=yes, m=yes, c=no</text>
</g>
<!-- n19&#45;&gt;n18 -->
<g id="edge21" class="edge">
<title>n19&#45;&gt;n18</title>
<path fill="none" stroke="black" d="M1790.92,-776.57C1790.92,-768.39 1790.92,-759.61 1790.92,-751.09"/>
<polygon fill="black" stroke="black" points="1794.42,-750.87 1790.92,-740.87 1787.42,-750.87 1794.42,-750.87"/>
</g>
<!-- n20 -->
<g id="node23" class="node">
<title>n20</title>
<ellipse fill="#98D2A5" stroke="black" cx="2190.92" cy="-703.2" rx="190.84" ry="37.45"/>
<text text-anchor="middle" x="2190.92" y="-714.5" font-family="Times,serif" font-size="14.00">del</text>
<text text-anchor="middle" x="2190.92" y="-699.5" font-family="Times,serif" font-size="14.00">spcms (prepn)</text>
<text text-anchor="middle" x="2190.92" y="-684.5" font-family="Times,serif" font-size="14.00">rep=no, t=no, r=yes, m=yes, c=no</text>
</g>
<!-- n19&#45;&gt;n20 -->
<g id="edge22" class="edge">
<title>n19&#45;&gt;n20</title>
<path fill="none" stroke="black" d="M1900.22,-783.38C1953.36,-768.9 2017.33,-751.48 2071.71,-736.67"/>
<polygon fill="black" stroke="black" points="2072.67,-740.03 2081.4,-734.03 2070.83,-733.28 2072.67,-740.03"/>
</g>
<!-- n21 -->
<g id="node24" class="node">
<title>n21</title>
<ellipse fill="#98D2A5" stroke="black" cx="2190.92" cy="-592.24" rx="190.84" ry="37.45"/>
<text text-anchor="middle" x="2190.92" y="-603.54" font-family="Times,serif" font-size="14.00">automóvil</text>
<text text-anchor="middle" x="2190.92" y="-588.54" font-family="Times,serif" font-size="14.00">ncms000 (pobj)</text>
<text text-anchor="middle" x="2190.92" y="-573.54" font-family="Times,serif" font-size="14.00">rep=no, t=no, r=yes, m=yes, c=no</text>
</g>
<!-- n20&#45;&gt;n21 -->
<g id="edge23" class="edge">
<title>n20&#45;&gt;n21</title>
<path fill="none" stroke="black" d="M2190.92,-665.61C2190.92,-657.44 2190.92,-648.66 2190.92,-640.13"/>
<polygon fill="black" stroke="black" points="2194.42,-639.92 2190.92,-629.92 2187.42,-639.92 2194.42,-639.92"/>
</g>
<!-- n22 -->
<g id="node25" class="node">
<title>n22</title>
<ellipse fill="#98D2A5" stroke="black" cx="2190.92" cy="-481.29" rx="190.84" ry="37.45"/>
<text text-anchor="middle" x="2190.92" y="-492.59" font-family="Times,serif" font-size="14.00">de</text>
<text text-anchor="middle" x="2190.92" y="-477.59" font-family="Times,serif" font-size="14.00">sps00 (prepn)</text>
<text text-anchor="middle" x="2190.92" y="-462.59" font-family="Times,serif" font-size="14.00">rep=no, t=no, r=yes, m=yes, c=no</text>
</g>
<!-- n21&#45;&gt;n22 -->
<g id="edge24" class="edge">
<title>n21&#45;&gt;n22</title>
<path fill="none" stroke="black" d="M2190.92,-554.66C2190.92,-546.49 2190.92,-537.71 2190.92,-529.18"/>
<polygon fill="black" stroke="black" points="2194.42,-528.96 2190.92,-518.96 2187.42,-528.96 2194.42,-528.96"/>
</g>
<!-- n24 -->
<g id="node26" class="node">
<title>n24</title>
<ellipse fill="#98D2A5" stroke="black" cx="2190.92" cy="-370.34" rx="190.84" ry="37.45"/>
<text text-anchor="middle" x="2190.92" y="-381.64" font-family="Times,serif" font-size="14.00">empleada</text>
<text text-anchor="middle" x="2190.92" y="-366.64" font-family="Times,serif" font-size="14.00">ncfs000 (pobj)</text>
<text text-anchor="middle" x="2190.92" y="-351.64" font-family="Times,serif" font-size="14.00">rep=no, t=no, r=yes, m=yes, c=no</text>
</g>
<!-- n22&#45;&gt;n24 -->
<g id="edge25" class="edge">
<title>n22&#45;&gt;n24</title>
<path fill="none" stroke="black" d="M2190.92,-443.71C2190.92,-435.53 2190.92,-426.75 2190.92,-418.23"/>
<polygon fill="black" stroke="black" points="2194.42,-418.01 2190.92,-408.01 2187.42,-418.01 2194.42,-418.01"/>
</g>
<!-- n23 -->
<g id="node27" class="node">
<title>n23</title>
<ellipse fill="#98D2A5" stroke="black" cx="1990.92" cy="-259.38" rx="190.84" ry="37.45"/>
<text text-anchor="middle" x="1990.92" y="-270.68" font-family="Times,serif" font-size="14.00">una</text>
<text text-anchor="middle" x="1990.92" y="-255.68" font-family="Times,serif" font-size="14.00">di0fs0 (det)</text>
<text text-anchor="middle" x="1990.92" y="-240.68" font-family="Times,serif" font-size="14.00">rep=no, t=no, r=yes, m=yes, c=no</text>
</g>
<!-- n24&#45;&gt;n23 -->
<g id="edge26" class="edge">
<title>n24&#45;&gt;n23</title>
<path fill="none" stroke="black" d="M2127.64,-334.86C2107.11,-323.68 2084.18,-311.19 2063.06,-299.68"/>
<polygon fill="black" stroke="black" points="2064.59,-296.53 2054.13,-294.82 2061.24,-302.68 2064.59,-296.53"/>
</g>
<!-- n25 -->
<g id="node28" class="node">
<title>n25</title>
<ellipse fill="#98D2A5" stroke="black" cx="2390.92" cy="-259.38" rx="190.84" ry="37.45"/>
<text text-anchor="middle" x="2390.92" y="-270.68" font-family="Times,serif" font-size="14.00">de</text>
<text text-anchor="middle" x="2390.92" y="-255.68" font-family="Times,serif" font-size="14.00">sps00 (prepn)</text>
<text text-anchor="middle" x="2390.92" y="-240.68" font-family="Times,serif" font-size="14.00">rep=no, t=no, r=yes, m=yes, c=no</text>
</g>
<!-- n24&#45;&gt;n25 -->
<g id="edge27" class="edge">
<title>n24&#45;&gt;n25</title>
<path fill="none" stroke="black" d="M2254.2,-334.86C2274.73,-323.68 2297.65,-311.19 2318.78,-299.68"/>
<polygon fill="black" stroke="black" points="2320.6,-302.68 2327.71,-294.82 2317.25,-296.53 2320.6,-302.68"/>
</g>
<!-- n27 -->
<g id="node29" class="node">
<title>n27</title>
<ellipse fill="#98D2A5" stroke="black" cx="2390.92" cy="-148.43" rx="190.84" ry="37.45"/>
<text text-anchor="middle" x="2390.92" y="-159.73" font-family="Times,serif" font-size="14.00">embajada</text>
<text text-anchor="middle" x="2390.92" y="-144.73" font-family="Times,serif" font-size="14.00">ncfs000 (pobj)</text>
<text text-anchor="middle" x="2390.92" y="-129.73" font-family="Times,serif" font-size="14.00">rep=no, t=no, r=yes, m=yes, c=no</text>
</g>
<!-- n25&#45;&gt;n27 -->
<g id="edge28" class="edge">
<title>n25&#45;&gt;n27</title>
<path fill="none" stroke="black" d="M2390.92,-221.8C2390.92,-213.63 2390.92,-204.85 2390.92,-196.32"/>
<polygon fill="black" stroke="black" points="2394.42,-196.1 2390.92,-186.1 2387.42,-196.1 2394.42,-196.1"/>
</g>
<!-- n26 -->
<g id="node30" class="node">
<title>n26</title>
<ellipse fill="#98D2A5" stroke="black" cx="2190.92" cy="-37.48" rx="190.84" ry="37.45"/>
<text text-anchor="middle" x="2190.92" y="-48.78" font-family="Times,serif" font-size="14.00">la</text>
<text text-anchor="middle" x="2190.92" y="-33.78" font-family="Times,serif" font-size="14.00">da0fs0 (det)</text>
<text text-anchor="middle" x="2190.92" y="-18.78" font-family="Times,serif" font-size="14.00">rep=no, t=no, r=yes, m=yes, c=no</text>
</g>
<!-- n27&#45;&gt;n26 -->
<g id="edge29" class="edge">
<title>n27&#45;&gt;n26</title>
<path fill="none" stroke="black" d="M2327.64,-112.96C2307.11,-101.77 2284.18,-89.28 2263.06,-77.78"/>
<polygon fill="black" stroke="black" points="2264.59,-74.62 2254.13,-72.91 2261.24,-80.77 2264.59,-74.62"/>
</g>
<!-- n28 -->
<g id="node31" class="node">
<title>n28</title>
<ellipse fill="#98D2A5" stroke="black" cx="2590.92" cy="-37.48" rx="190.84" ry="37.45"/>
<text text-anchor="middle" x="2590.92" y="-48.78" font-family="Times,serif" font-size="14.00">británica</text>
<text text-anchor="middle" x="2590.92" y="-33.78" font-family="Times,serif" font-size="14.00">aq0fs0 (amod)</text>
<text text-anchor="middle" x="2590.92" y="-18.78" font-family="Times,serif" font-size="14.00">rep=no, t=no, r=yes, m=yes, c=no</text>
</g>
<!-- n27&#45;&gt;n28 -->
<g id="edge30" class="edge">
<title>n27&#45;&gt;n28</title>
<path fill="none" stroke="black" d="M2454.2,-112.96C2474.73,-101.77 2497.65,-89.28 2518.78,-77.78"/>
<polygon fill="black" stroke="black" points="2520.6,-80.77 2527.71,-72.91 2517.25,-74.62 2520.6,-80.77"/>
</g>
<!-- n33 -->
<g id="node33" class="node">
<title>n33</title>
<ellipse fill="#98D2A5" stroke="black" cx="2590.92" cy="-814.15" rx="190.84" ry="37.45"/>
<text text-anchor="middle" x="2590.92" y="-825.45" font-family="Times,serif" font-size="14.00">forma</text>
<text text-anchor="middle" x="2590.92" y="-810.45" font-family="Times,serif" font-size="14.00">ncms000 (pobj)</text>
<text text-anchor="middle" x="2590.92" y="-795.45" font-family="Times,serif" font-size="14.00">rep=no, t=no, r=yes, m=yes, c=no</text>
</g>
<!-- n31&#45;&gt;n33 -->
<g id="edge32" class="edge">
<title>n31&#45;&gt;n33</title>
<path fill="none" stroke="black" d="M2454.2,-889.63C2474.73,-878.45 2497.65,-865.96 2518.78,-854.45"/>
<polygon fill="black" stroke="black" points="2520.6,-857.44 2527.71,-849.59 2517.25,-851.3 2520.6,-857.44"/>
</g>
<!-- n32 -->
<g id="node34" class="node">
<title>n32</title>
<ellipse fill="#98D2A5" stroke="black" cx="2590.92" cy="-703.2" rx="190.84" ry="37.45"/>
<text text-anchor="middle" x="2590.92" y="-714.5" font-family="Times,serif" font-size="14.00">tal</text>
<text text-anchor="middle" x="2590.92" y="-699.5" font-family="Times,serif" font-size="14.00">di0ms0 (det)</text>
<text text-anchor="middle" x="2590.92" y="-684.5" font-family="Times,serif" font-size="14.00">rep=no, t=no, r=yes, m=yes, c=no</text>
</g>
<!-- n33&#45;&gt;n32 -->
<g id="edge33" class="edge">
<title>n33&#45;&gt;n32</title>
<path fill="none" stroke="black" d="M2590.92,-776.57C2590.92,-768.39 2590.92,-759.61 2590.92,-751.09"/>
<polygon fill="black" stroke="black" points="2594.42,-750.87 2590.92,-740.87 2587.42,-750.87 2594.42,-750.87"/>
</g>
<!-- n34 -->
<g id="node35" class="node">
<title>n34</title>
<ellipse fill="#98D2A5" stroke="black" cx="2990.92" cy="-703.2" rx="190.84" ry="37.45"/>
<text text-anchor="middle" x="2990.92" y="-714.5" font-family="Times,serif" font-size="14.00">que</text>
<text text-anchor="middle" x="2990.92" y="-699.5" font-family="Times,serif" font-size="14.00">px3ms000 (poss)</text>
<text text-anchor="middle" x="2990.92" y="-684.5" font-family="Times,serif" font-size="14.00">rep=no, t=no, r=yes, m=yes, c=no</text>
</g>
<!-- n33&#45;&gt;n34 -->
<g id="edge34" class="edge">
<title>n33&#45;&gt;n34</title>
<path fill="none" stroke="black" d="M2700.22,-783.38C2753.36,-768.9 2817.33,-751.48 2871.71,-736.67"/>
<polygon fill="black" stroke="black" points="2872.67,-740.03 2881.4,-734.03 2870.83,-733.28 2872.67,-740.03"/>
</g>
<!-- n35 -->
<g id="node36" class="node">
<title>n35</title>
<ellipse fill="#98D2A5" stroke="black" cx="2590.92" cy="-592.24" rx="190.84" ry="37.45"/>
<text text-anchor="middle" x="2590.92" y="-603.54" font-family="Times,serif" font-size="14.00">sólo</text>
<text text-anchor="middle" x="2590.92" y="-588.54" font-family="Times,serif" font-size="14.00">rg (advmod)</text>
<text text-anchor="middle" x="2590.92" y="-573.54" font-family="Times,serif" font-size="14.00">rep=no, t=no, r=yes, m=yes, c=no</text>
</g>
<!-- n34&#45;&gt;n35 -->
<g id="edge35" class="edge">
<title>n34&#45;&gt;n35</title>
<path fill="none" stroke="black" d="M2881.62,-672.42C2828.48,-657.95 2764.51,-640.53 2710.12,-625.71"/>
<polygon fill="black" stroke="black" points="2711,-622.32 2700.44,-623.07 2709.16,-629.08 2711,-622.32"/>
</g>
<!-- n36 -->
<g id="node37" class="node">
<title>n36</title>
<ellipse fill="#98D2A5" stroke="black" cx="2990.92" cy="-592.24" rx="190.84" ry="37.45"/>
<text text-anchor="middle" x="2990.92" y="-603.54" font-family="Times,serif" font-size="14.00">le</text>
<text text-anchor="middle" x="2990.92" y="-588.54" font-family="Times,serif" font-size="14.00">pp3csd00 (iobj)</text>
<text text-anchor="middle" x="2990.92" y="-573.54" font-family="Times,serif" font-size="14.00">rep=no, t=no, r=yes, m=yes, c=no</text>
</g>
<!-- n34&#45;&gt;n36 -->
<g id="edge36" class="edge">
<title>n34&#45;&gt;n36</title>
<path fill="none" stroke="black" d="M2990.92,-665.61C2990.92,-657.44 2990.92,-648.66 2990.92,-640.13"/>
<polygon fill="black" stroke="black" points="2994.42,-639.92 2990.92,-629.92 2987.42,-639.92 2994.42,-639.92"/>
</g>
<!-- n37 -->
<g id="node38" class="node">
<title>n37</title>
<ellipse fill="#98D2A5" stroke="black" cx="3390.92" cy="-592.24" rx="190.84" ry="37.45"/>
<text text-anchor="middle" x="3390.92" y="-603.54" font-family="Times,serif" font-size="14.00">faltaba</text>
<text text-anchor="middle" x="3390.92" y="-588.54" font-family="Times,serif" font-size="14.00">vmii3s0 (cobj)</text>
<text text-anchor="middle" x="3390.92" y="-573.54" font-family="Times,serif" font-size="14.00">rep=no, t=no, r=yes, m=yes, c=no</text>
</g>
<!-- n34&#45;&gt;n37 -->
<g id="edge37" class="edge">
<title>n34&#45;&gt;n37</title>
<path fill="none" stroke="black" d="M3100.22,-672.42C3153.36,-657.95 3217.33,-640.53 3271.71,-625.71"/>
<polygon fill="black" stroke="black" points="3272.67,-629.08 3281.4,-623.07 3270.83,-622.32 3272.67,-629.08"/>
</g>
<!-- n39 -->
<g id="node39" class="node">
<title>n39</title>
<ellipse fill="#98D2A5" stroke="black" cx="3390.92" cy="-481.29" rx="190.84" ry="37.45"/>
<text text-anchor="middle" x="3390.92" y="-492.59" font-family="Times,serif" font-size="14.00">explosivo</text>
<text text-anchor="middle" x="3390.92" y="-477.59" font-family="Times,serif" font-size="14.00">ncms000 (cobj)</text>
<text text-anchor="middle" x="3390.92" y="-462.59" font-family="Times,serif" font-size="14.00">rep=no, t=no, r=yes, m=yes, c=no</text>
</g>
<!-- n37&#45;&gt;n39 -->
<g id="edge38" class="edge">
<title>n37&#45;&gt;n39</title>
<path fill="none" stroke="black" d="M3390.92,-554.66C3390.92,-546.49 3390.92,-537.71 3390.92,-529.18"/>
<polygon fill="black" stroke="black" points="3394.42,-528.96 3390.92,-518.96 3387.42,-528.96 3394.42,-528.96"/>
</g>
<!-- n38 -->
<g id="node40" class="node">
<title>n38</title>
<ellipse fill="#98D2A5" stroke="black" cx="3390.92" cy="-370.34" rx="190.84" ry="37.45"/>
<text text-anchor="middle" x="3390.92" y="-381.64" font-family="Times,serif" font-size="14.00">el</text>
<text text-anchor="middle" x="3390.92" y="-366.64" font-family="Times,serif" font-size="14.00">da0ms0 (det)</text>
<text text-anchor="middle" x="3390.92" y="-351.64" font-family="Times,serif" font-size="14.00">rep=no, t=no, r=yes, m=yes, c=no</text>
</g>
<!-- n39&#45;&gt;n38 -->
<g id="edge39" class="edge">
<title>n39&#45;&gt;n38</title>
<path fill="none" stroke="black" d="M3390.92,-443.71C3390.92,-435.53 3390.92,-426.75 3390.92,-418.23"/>
<polygon fill="black" stroke="black" points="3394.42,-418.01 3390.92,-408.01 3387.42,-418.01 3394.42,-418.01"/>
</g>
</g>
</svg>
