<?xml version="1.0" encoding="UTF-8" standalone="no"?>
<!DOCTYPE svg PUBLIC "-//W3C//DTD SVG 1.1//EN"
 "http://www.w3.org/Graphics/SVG/1.1/DTD/svg11.dtd">
<!-- Generated by graphviz version 2.43.0 (0)
 -->
<!-- Title: tree Pages: 1 -->
<svg width="3972pt" height="860pt"
 viewBox="0.00 0.00 3971.84 859.63" xmlns="http://www.w3.org/2000/svg" xmlns:xlink="http://www.w3.org/1999/xlink">
<g id="graph0" class="graph" transform="scale(1 1) rotate(0) translate(4 855.63)">
<title>tree</title>
<polygon fill="white" stroke="transparent" points="-4,4 -4,-855.63 3967.84,-855.63 3967.84,4 -4,4"/>
<!-- n5 -->
<g id="node1" class="node">
<title>n5</title>
<ellipse fill="#98D2A5" stroke="black" cx="1176.92" cy="-814.15" rx="190.84" ry="37.45"/>
<text text-anchor="middle" x="1176.92" y="-825.45" font-family="Times,serif" font-size="14.00">manifestaron</text>
<text text-anchor="middle" x="1176.92" y="-810.45" font-family="Times,serif" font-size="14.00">vmis3p0 (root)</text>
<text text-anchor="middle" x="1176.92" y="-795.45" font-family="Times,serif" font-size="14.00">rep=no, t=no, r=yes, m=yes, c=no</text>
</g>
<!-- n1 -->
<g id="node2" class="node">
<title>n1</title>
<ellipse fill="#98D2A5" stroke="black" cx="190.92" cy="-703.2" rx="190.84" ry="37.45"/>
<text text-anchor="middle" x="190.92" y="-714.5" font-family="Times,serif" font-size="14.00">Miles</text>
<text text-anchor="middle" x="190.92" y="-699.5" font-family="Times,serif" font-size="14.00">pn0cp000 (nsubj)</text>
<text text-anchor="middle" x="190.92" y="-684.5" font-family="Times,serif" font-size="14.00">rep=no, t=yes, r=no, m=yes, c=no</text>
</g>
<!-- n5&#45;&gt;n1 -->
<g id="edge1" class="edge">
<title>n5&#45;&gt;n1</title>
<path fill="none" stroke="black" d="M997.69,-801.16C838.04,-789.4 598.31,-769.09 390.92,-740.67 372.38,-738.13 352.95,-735.08 333.78,-731.84"/>
<polygon fill="black" stroke="black" points="334.23,-728.36 323.79,-730.13 333.05,-735.26 334.23,-728.36"/>
</g>
<!-- n4 -->
<g id="node3" class="node">
<title>n4</title>
<ellipse fill="#98D2A5" stroke="black" cx="590.92" cy="-703.2" rx="190.84" ry="37.45"/>
<text text-anchor="middle" x="590.92" y="-714.5" font-family="Times,serif" font-size="14.00">se</text>
<text text-anchor="middle" x="590.92" y="-699.5" font-family="Times,serif" font-size="14.00">p0300000 (reflec)</text>
<text text-anchor="middle" x="590.92" y="-684.5" font-family="Times,serif" font-size="14.00">rep=no, t=no, r=yes, m=yes, c=no</text>
</g>
<!-- n5&#45;&gt;n4 -->
<g id="edge2" class="edge">
<title>n5&#45;&gt;n4</title>
<path fill="none" stroke="black" d="M1040.64,-787.81C949.69,-770.9 830.2,-748.69 737.25,-731.4"/>
<polygon fill="black" stroke="black" points="737.67,-727.92 727.19,-729.53 736.39,-734.8 737.67,-727.92"/>
</g>
<!-- n6 -->
<g id="node4" class="node">
<title>n6</title>
<ellipse fill="none" stroke="black" cx="981.92" cy="-703.2" rx="181.95" ry="37.45"/>
<text text-anchor="middle" x="981.92" y="-714.5" font-family="Times,serif" font-size="14.00">ayer</text>
<text text-anchor="middle" x="981.92" y="-699.5" font-family="Times,serif" font-size="14.00">rg (advmod)</text>
<text text-anchor="middle" x="981.92" y="-684.5" font-family="Times,serif" font-size="14.00">rep=no, t=no, r=no, m=no, c=no</text>
</g>
<!-- n5&#45;&gt;n6 -->
<g id="edge3" class="edge">
<title>n5&#45;&gt;n6</title>
<path fill="none" stroke="black" d="M1115.22,-778.68C1095.29,-767.54 1073.05,-755.12 1052.53,-743.65"/>
<polygon fill="black" stroke="black" points="1053.99,-740.45 1043.55,-738.63 1050.57,-746.57 1053.99,-740.45"/>
</g>
<!-- n7 -->
<g id="node5" class="node">
<title>n7</title>
<ellipse fill="#98D2A5" stroke="black" cx="1372.92" cy="-703.2" rx="190.84" ry="37.45"/>
<text text-anchor="middle" x="1372.92" y="-714.5" font-family="Times,serif" font-size="14.00">en</text>
<text text-anchor="middle" x="1372.92" y="-699.5" font-family="Times,serif" font-size="14.00">sps00 (prepv)</text>
<text text-anchor="middle" x="1372.92" y="-684.5" font-family="Times,serif" font-size="14.00">rep=no, t=no, r=yes, m=yes, c=no</text>
</g>
<!-- n5&#45;&gt;n7 -->
<g id="edge4" class="edge">
<title>n5&#45;&gt;n7</title>
<path fill="none" stroke="black" d="M1238.93,-778.68C1258.86,-767.6 1281.1,-755.24 1301.64,-743.82"/>
<polygon fill="black" stroke="black" points="1303.59,-746.74 1310.63,-738.82 1300.19,-740.62 1303.59,-746.74"/>
</g>
<!-- n10 -->
<g id="node6" class="node">
<title>n10</title>
<ellipse fill="#98D2A5" stroke="black" cx="1772.92" cy="-703.2" rx="190.84" ry="37.45"/>
<text text-anchor="middle" x="1772.92" y="-714.5" font-family="Times,serif" font-size="14.00">para</text>
<text text-anchor="middle" x="1772.92" y="-699.5" font-family="Times,serif" font-size="14.00">sps00 (prepv)</text>
<text text-anchor="middle" x="1772.92" y="-684.5" font-family="Times,serif" font-size="14.00">rep=no, t=no, r=yes, m=yes, c=no</text>
</g>
<!-- n5&#45;&gt;n10 -->
<g id="edge5" class="edge">
<title>n5&#45;&gt;n10</title>
<path fill="none" stroke="black" d="M1314.4,-788.02C1407.53,-770.99 1530.48,-748.52 1625.62,-731.12"/>
<polygon fill="black" stroke="black" points="1626.4,-734.54 1635.61,-729.3 1625.15,-727.65 1626.4,-734.54"/>
</g>
<!-- n29 -->
<g id="node7" class="node">
<title>n29</title>
<ellipse fill="none" stroke="black" cx="2163.92" cy="-703.2" rx="181.95" ry="37.45"/>
<text text-anchor="middle" x="2163.92" y="-714.5" font-family="Times,serif" font-size="14.00">.</text>
<text text-anchor="middle" x="2163.92" y="-699.5" font-family="Times,serif" font-size="14.00">fp (punct)</text>
<text text-anchor="middle" x="2163.92" y="-684.5" font-family="Times,serif" font-size="14.00">rep=no, t=no, r=no, m=no, c=no</text>
</g>
<!-- n5&#45;&gt;n29 -->
<g id="edge6" class="edge">
<title>n5&#45;&gt;n29</title>
<path fill="none" stroke="black" d="M1357.3,-801.78C1519.02,-790.39 1762.5,-770.27 1972.92,-740.67 1990.55,-738.19 2009.02,-735.19 2027.24,-731.98"/>
<polygon fill="black" stroke="black" points="2028.1,-735.38 2037.32,-730.17 2026.86,-728.49 2028.1,-735.38"/>
</g>
<!-- n2 -->
<g id="node8" class="node">
<title>n2</title>
<ellipse fill="#98D2A5" stroke="black" cx="190.92" cy="-592.24" rx="190.84" ry="37.45"/>
<text text-anchor="middle" x="190.92" y="-603.54" font-family="Times,serif" font-size="14.00">de</text>
<text text-anchor="middle" x="190.92" y="-588.54" font-family="Times,serif" font-size="14.00">sps00 (prepn)</text>
<text text-anchor="middle" x="190.92" y="-573.54" font-family="Times,serif" font-size="14.00">rep=no, t=yes, r=no, m=yes, c=no</text>
</g>
<!-- n1&#45;&gt;n2 -->
<g id="edge7" class="edge">
<title>n1&#45;&gt;n2</title>
<path fill="none" stroke="black" d="M190.92,-665.61C190.92,-657.44 190.92,-648.66 190.92,-640.13"/>
<polygon fill="black" stroke="black" points="194.42,-639.92 190.92,-629.92 187.42,-639.92 194.42,-639.92"/>
</g>
<!-- n9 -->
<g id="node10" class="node">
<title>n9</title>
<ellipse fill="#98D2A5" stroke="black" cx="1372.92" cy="-592.24" rx="190.84" ry="37.45"/>
<text text-anchor="middle" x="1372.92" y="-603.54" font-family="Times,serif" font-size="14.00">España</text>
<text text-anchor="middle" x="1372.92" y="-588.54" font-family="Times,serif" font-size="14.00">np00000 (pobj)</text>
<text text-anchor="middle" x="1372.92" y="-573.54" font-family="Times,serif" font-size="14.00">rep=no, t=no, r=yes, m=yes, c=no</text>
</g>
<!-- n7&#45;&gt;n9 -->
<g id="edge9" class="edge">
<title>n7&#45;&gt;n9</title>
<path fill="none" stroke="black" d="M1372.92,-665.61C1372.92,-657.44 1372.92,-648.66 1372.92,-640.13"/>
<polygon fill="black" stroke="black" points="1376.42,-639.92 1372.92,-629.92 1369.42,-639.92 1376.42,-639.92"/>
</g>
<!-- n11 -->
<g id="node12" class="node">
<title>n11</title>
<ellipse fill="#98D2A5" stroke="black" cx="1772.92" cy="-592.24" rx="190.84" ry="37.45"/>
<text text-anchor="middle" x="1772.92" y="-603.54" font-family="Times,serif" font-size="14.00">condenar</text>
<text text-anchor="middle" x="1772.92" y="-588.54" font-family="Times,serif" font-size="14.00">vmn0000 (pobj)</text>
<text text-anchor="middle" x="1772.92" y="-573.54" font-family="Times,serif" font-size="14.00">rep=no, t=no, r=yes, m=yes, c=no</text>
</g>
<!-- n10&#45;&gt;n11 -->
<g id="edge11" class="edge">
<title>n10&#45;&gt;n11</title>
<path fill="none" stroke="black" d="M1772.92,-665.61C1772.92,-657.44 1772.92,-648.66 1772.92,-640.13"/>
<polygon fill="black" stroke="black" points="1776.42,-639.92 1772.92,-629.92 1769.42,-639.92 1776.42,-639.92"/>
</g>
<!-- n3 -->
<g id="node9" class="node">
<title>n3</title>
<ellipse fill="#98D2A5" stroke="black" cx="190.92" cy="-481.29" rx="190.84" ry="37.45"/>
<text text-anchor="middle" x="190.92" y="-492.59" font-family="Times,serif" font-size="14.00">ciudadanos</text>
<text text-anchor="middle" x="190.92" y="-477.59" font-family="Times,serif" font-size="14.00">ncmp000 (pobj)</text>
<text text-anchor="middle" x="190.92" y="-462.59" font-family="Times,serif" font-size="14.00">rep=no, t=yes, r=no, m=yes, c=no</text>
</g>
<!-- n2&#45;&gt;n3 -->
<g id="edge8" class="edge">
<title>n2&#45;&gt;n3</title>
<path fill="none" stroke="black" d="M190.92,-554.66C190.92,-546.49 190.92,-537.71 190.92,-529.18"/>
<polygon fill="black" stroke="black" points="194.42,-528.96 190.92,-518.96 187.42,-528.96 194.42,-528.96"/>
</g>
<!-- n8 -->
<g id="node11" class="node">
<title>n8</title>
<ellipse fill="#98D2A5" stroke="black" cx="1372.92" cy="-481.29" rx="190.84" ry="37.45"/>
<text text-anchor="middle" x="1372.92" y="-492.59" font-family="Times,serif" font-size="14.00">toda</text>
<text text-anchor="middle" x="1372.92" y="-477.59" font-family="Times,serif" font-size="14.00">di0fs0 (det)</text>
<text text-anchor="middle" x="1372.92" y="-462.59" font-family="Times,serif" font-size="14.00">rep=no, t=no, r=yes, m=yes, c=no</text>
</g>
<!-- n9&#45;&gt;n8 -->
<g id="edge10" class="edge">
<title>n9&#45;&gt;n8</title>
<path fill="none" stroke="black" d="M1372.92,-554.66C1372.92,-546.49 1372.92,-537.71 1372.92,-529.18"/>
<polygon fill="black" stroke="black" points="1376.42,-528.96 1372.92,-518.96 1369.42,-528.96 1376.42,-528.96"/>
</g>
<!-- n13 -->
<g id="node13" class="node">
<title>n13</title>
<ellipse fill="#98D2A5" stroke="black" cx="1772.92" cy="-481.29" rx="190.84" ry="37.45"/>
<text text-anchor="middle" x="1772.92" y="-492.59" font-family="Times,serif" font-size="14.00">asesinato</text>
<text text-anchor="middle" x="1772.92" y="-477.59" font-family="Times,serif" font-size="14.00">ncms000 (dobj)</text>
<text text-anchor="middle" x="1772.92" y="-462.59" font-family="Times,serif" font-size="14.00">rep=no, t=no, r=yes, m=yes, c=no</text>
</g>
<!-- n11&#45;&gt;n13 -->
<g id="edge12" class="edge">
<title>n11&#45;&gt;n13</title>
<path fill="none" stroke="black" d="M1772.92,-554.66C1772.92,-546.49 1772.92,-537.71 1772.92,-529.18"/>
<polygon fill="black" stroke="black" points="1776.42,-528.96 1772.92,-518.96 1769.42,-528.96 1776.42,-528.96"/>
</g>
<!-- n12 -->
<g id="node14" class="node">
<title>n12</title>
<ellipse fill="#98D2A5" stroke="black" cx="972.92" cy="-370.34" rx="190.84" ry="37.45"/>
<text text-anchor="middle" x="972.92" y="-381.64" font-family="Times,serif" font-size="14.00">el</text>
<text text-anchor="middle" x="972.92" y="-366.64" font-family="Times,serif" font-size="14.00">da0ms0 (det)</text>
<text text-anchor="middle" x="972.92" y="-351.64" font-family="Times,serif" font-size="14.00">rep=no, t=no, r=yes, m=yes, c=no</text>
</g>
<!-- n13&#45;&gt;n12 -->
<g id="edge13" class="edge">
<title>n13&#45;&gt;n12</title>
<path fill="none" stroke="black" d="M1640.06,-454.32C1617.7,-450.45 1594.69,-446.77 1572.92,-443.81 1396.05,-419.78 1349.79,-431.85 1172.92,-407.81 1154.38,-405.29 1134.94,-402.25 1115.77,-399.02"/>
<polygon fill="black" stroke="black" points="1116.23,-395.54 1105.78,-397.31 1115.05,-402.44 1116.23,-395.54"/>
</g>
<!-- n14 -->
<g id="node15" class="node">
<title>n14</title>
<ellipse fill="#98D2A5" stroke="black" cx="1372.92" cy="-370.34" rx="190.84" ry="37.45"/>
<text text-anchor="middle" x="1372.92" y="-381.64" font-family="Times,serif" font-size="14.00">,</text>
<text text-anchor="middle" x="1372.92" y="-366.64" font-family="Times,serif" font-size="14.00">fc (punct)</text>
<text text-anchor="middle" x="1372.92" y="-351.64" font-family="Times,serif" font-size="14.00">rep=no, t=no, r=yes, m=yes, c=no</text>
</g>
<!-- n13&#45;&gt;n14 -->
<g id="edge14" class="edge">
<title>n13&#45;&gt;n14</title>
<path fill="none" stroke="black" d="M1663.62,-450.52C1610.48,-436.04 1546.51,-418.62 1492.12,-403.81"/>
<polygon fill="black" stroke="black" points="1493,-400.42 1482.44,-401.17 1491.16,-407.17 1493,-400.42"/>
</g>
<!-- n15 -->
<g id="node16" class="node">
<title>n15</title>
<ellipse fill="#98D2A5" stroke="black" cx="1772.92" cy="-370.34" rx="190.84" ry="37.45"/>
<text text-anchor="middle" x="1772.92" y="-381.64" font-family="Times,serif" font-size="14.00">a</text>
<text text-anchor="middle" x="1772.92" y="-366.64" font-family="Times,serif" font-size="14.00">sps00 (prepn)</text>
<text text-anchor="middle" x="1772.92" y="-351.64" font-family="Times,serif" font-size="14.00">rep=no, t=no, r=yes, m=yes, c=no</text>
</g>
<!-- n13&#45;&gt;n15 -->
<g id="edge15" class="edge">
<title>n13&#45;&gt;n15</title>
<path fill="none" stroke="black" d="M1772.92,-443.71C1772.92,-435.53 1772.92,-426.75 1772.92,-418.23"/>
<polygon fill="black" stroke="black" points="1776.42,-418.01 1772.92,-408.01 1769.42,-418.01 1776.42,-418.01"/>
</g>
<!-- n19 -->
<g id="node17" class="node">
<title>n19</title>
<ellipse fill="#98D2A5" stroke="black" cx="2172.92" cy="-370.34" rx="190.84" ry="37.45"/>
<text text-anchor="middle" x="2172.92" y="-381.64" font-family="Times,serif" font-size="14.00">,</text>
<text text-anchor="middle" x="2172.92" y="-366.64" font-family="Times,serif" font-size="14.00">fc (punct)</text>
<text text-anchor="middle" x="2172.92" y="-351.64" font-family="Times,serif" font-size="14.00">rep=no, t=no, r=yes, m=yes, c=no</text>
</g>
<!-- n13&#45;&gt;n19 -->
<g id="edge16" class="edge">
<title>n13&#45;&gt;n19</title>
<path fill="none" stroke="black" d="M1882.22,-450.52C1935.36,-436.04 1999.33,-418.62 2053.71,-403.81"/>
<polygon fill="black" stroke="black" points="2054.67,-407.17 2063.4,-401.17 2052.83,-400.42 2054.67,-407.17"/>
</g>
<!-- n20 -->
<g id="node18" class="node">
<title>n20</title>
<ellipse fill="#98D2A5" stroke="black" cx="2572.92" cy="-370.34" rx="190.84" ry="37.45"/>
<text text-anchor="middle" x="2572.92" y="-381.64" font-family="Times,serif" font-size="14.00">del</text>
<text text-anchor="middle" x="2572.92" y="-366.64" font-family="Times,serif" font-size="14.00">spcms (prepn)</text>
<text text-anchor="middle" x="2572.92" y="-351.64" font-family="Times,serif" font-size="14.00">rep=no, t=no, r=yes, m=yes, c=no</text>
</g>
<!-- n13&#45;&gt;n20 -->
<g id="edge17" class="edge">
<title>n13&#45;&gt;n20</title>
<path fill="none" stroke="black" d="M1939.46,-462.89C2060.08,-449.63 2226.9,-429.93 2372.92,-407.81 2390.96,-405.08 2409.88,-401.96 2428.57,-398.73"/>
<polygon fill="black" stroke="black" points="2429.38,-402.14 2438.63,-396.98 2428.17,-395.25 2429.38,-402.14"/>
</g>
<!-- n16 -->
<g id="node19" class="node">
<title>n16</title>
<ellipse fill="#98D2A5" stroke="black" cx="1772.92" cy="-259.38" rx="190.84" ry="37.45"/>
<text text-anchor="middle" x="1772.92" y="-270.68" font-family="Times,serif" font-size="14.00">manos</text>
<text text-anchor="middle" x="1772.92" y="-255.68" font-family="Times,serif" font-size="14.00">ncfp000 (pobj)</text>
<text text-anchor="middle" x="1772.92" y="-240.68" font-family="Times,serif" font-size="14.00">rep=no, t=no, r=yes, m=yes, c=no</text>
</g>
<!-- n15&#45;&gt;n16 -->
<g id="edge18" class="edge">
<title>n15&#45;&gt;n16</title>
<path fill="none" stroke="black" d="M1772.92,-332.75C1772.92,-324.58 1772.92,-315.8 1772.92,-307.27"/>
<polygon fill="black" stroke="black" points="1776.42,-307.06 1772.92,-297.06 1769.42,-307.06 1776.42,-307.06"/>
</g>
<!-- n22 -->
<g id="node22" class="node">
<title>n22</title>
<ellipse fill="#98D2A5" stroke="black" cx="2572.92" cy="-259.38" rx="190.84" ry="37.45"/>
<text text-anchor="middle" x="2572.92" y="-270.68" font-family="Times,serif" font-size="14.00">gobernador</text>
<text text-anchor="middle" x="2572.92" y="-255.68" font-family="Times,serif" font-size="14.00">ncms000 (pobj)</text>
<text text-anchor="middle" x="2572.92" y="-240.68" font-family="Times,serif" font-size="14.00">rep=no, t=no, r=yes, m=yes, c=no</text>
</g>
<!-- n20&#45;&gt;n22 -->
<g id="edge21" class="edge">
<title>n20&#45;&gt;n22</title>
<path fill="none" stroke="black" d="M2572.92,-332.75C2572.92,-324.58 2572.92,-315.8 2572.92,-307.27"/>
<polygon fill="black" stroke="black" points="2576.42,-307.06 2572.92,-297.06 2569.42,-307.06 2576.42,-307.06"/>
</g>
<!-- n17 -->
<g id="node20" class="node">
<title>n17</title>
<ellipse fill="#98D2A5" stroke="black" cx="1772.92" cy="-148.43" rx="190.84" ry="37.45"/>
<text text-anchor="middle" x="1772.92" y="-159.73" font-family="Times,serif" font-size="14.00">de</text>
<text text-anchor="middle" x="1772.92" y="-144.73" font-family="Times,serif" font-size="14.00">sps00 (prepn)</text>
<text text-anchor="middle" x="1772.92" y="-129.73" font-family="Times,serif" font-size="14.00">rep=no, t=no, r=yes, m=yes, c=no</text>
</g>
<!-- n16&#45;&gt;n17 -->
<g id="edge19" class="edge">
<title>n16&#45;&gt;n17</title>
<path fill="none" stroke="black" d="M1772.92,-221.8C1772.92,-213.63 1772.92,-204.85 1772.92,-196.32"/>
<polygon fill="black" stroke="black" points="1776.42,-196.1 1772.92,-186.1 1769.42,-196.1 1776.42,-196.1"/>
</g>
<!-- n18 -->
<g id="node21" class="node">
<title>n18</title>
<ellipse fill="#98D2A5" stroke="black" cx="1772.92" cy="-37.48" rx="190.84" ry="37.45"/>
<text text-anchor="middle" x="1772.92" y="-48.78" font-family="Times,serif" font-size="14.00">ETA</text>
<text text-anchor="middle" x="1772.92" y="-33.78" font-family="Times,serif" font-size="14.00">np00000 (pobj)</text>
<text text-anchor="middle" x="1772.92" y="-18.78" font-family="Times,serif" font-size="14.00">rep=no, t=no, r=yes, m=yes, c=no</text>
</g>
<!-- n17&#45;&gt;n18 -->
<g id="edge20" class="edge">
<title>n17&#45;&gt;n18</title>
<path fill="none" stroke="black" d="M1772.92,-110.85C1772.92,-102.67 1772.92,-93.89 1772.92,-85.37"/>
<polygon fill="black" stroke="black" points="1776.42,-85.15 1772.92,-75.15 1769.42,-85.15 1776.42,-85.15"/>
</g>
<!-- n21 -->
<g id="node23" class="node">
<title>n21</title>
<ellipse fill="#98D2A5" stroke="black" cx="2172.92" cy="-148.43" rx="190.84" ry="37.45"/>
<text text-anchor="middle" x="2172.92" y="-159.73" font-family="Times,serif" font-size="14.00">ex</text>
<text text-anchor="middle" x="2172.92" y="-144.73" font-family="Times,serif" font-size="14.00">aq0cn0 (amod)</text>
<text text-anchor="middle" x="2172.92" y="-129.73" font-family="Times,serif" font-size="14.00">rep=no, t=no, r=yes, m=yes, c=no</text>
</g>
<!-- n22&#45;&gt;n21 -->
<g id="edge22" class="edge">
<title>n22&#45;&gt;n21</title>
<path fill="none" stroke="black" d="M2463.62,-228.61C2410.48,-214.14 2346.51,-196.71 2292.12,-181.9"/>
<polygon fill="black" stroke="black" points="2293,-178.51 2282.44,-179.26 2291.16,-185.27 2293,-178.51"/>
</g>
<!-- n23 -->
<g id="node24" class="node">
<title>n23</title>
<ellipse fill="#98D2A5" stroke="black" cx="2572.92" cy="-148.43" rx="190.84" ry="37.45"/>
<text text-anchor="middle" x="2572.92" y="-159.73" font-family="Times,serif" font-size="14.00">civil</text>
<text text-anchor="middle" x="2572.92" y="-144.73" font-family="Times,serif" font-size="14.00">aq0cs0 (amod)</text>
<text text-anchor="middle" x="2572.92" y="-129.73" font-family="Times,serif" font-size="14.00">rep=no, t=no, r=yes, m=yes, c=no</text>
</g>
<!-- n22&#45;&gt;n23 -->
<g id="edge23" class="edge">
<title>n22&#45;&gt;n23</title>
<path fill="none" stroke="black" d="M2572.92,-221.8C2572.92,-213.63 2572.92,-204.85 2572.92,-196.32"/>
<polygon fill="black" stroke="black" points="2576.42,-196.1 2572.92,-186.1 2569.42,-196.1 2576.42,-196.1"/>
</g>
<!-- n24 -->
<g id="node25" class="node">
<title>n24</title>
<ellipse fill="#98D2A5" stroke="black" cx="2972.92" cy="-148.43" rx="190.84" ry="37.45"/>
<text text-anchor="middle" x="2972.92" y="-159.73" font-family="Times,serif" font-size="14.00">de</text>
<text text-anchor="middle" x="2972.92" y="-144.73" font-family="Times,serif" font-size="14.00">sps00 (prepn)</text>
<text text-anchor="middle" x="2972.92" y="-129.73" font-family="Times,serif" font-size="14.00">rep=no, t=no, r=yes, m=yes, c=no</text>
</g>
<!-- n22&#45;&gt;n24 -->
<g id="edge24" class="edge">
<title>n22&#45;&gt;n24</title>
<path fill="none" stroke="black" d="M2682.22,-228.61C2735.36,-214.14 2799.33,-196.71 2853.71,-181.9"/>
<polygon fill="black" stroke="black" points="2854.67,-185.27 2863.4,-179.26 2852.83,-178.51 2854.67,-185.27"/>
</g>
<!-- n26 -->
<g id="node26" class="node">
<title>n26</title>
<ellipse fill="#98D2A5" stroke="black" cx="3372.92" cy="-148.43" rx="190.84" ry="37.45"/>
<text text-anchor="middle" x="3372.92" y="-159.73" font-family="Times,serif" font-size="14.00">Juan</text>
<text text-anchor="middle" x="3372.92" y="-144.73" font-family="Times,serif" font-size="14.00">ncfs000 (appos)</text>
<text text-anchor="middle" x="3372.92" y="-129.73" font-family="Times,serif" font-size="14.00">rep=no, t=no, r=yes, m=yes, c=no</text>
</g>
<!-- n22&#45;&gt;n26 -->
<g id="edge25" class="edge">
<title>n22&#45;&gt;n26</title>
<path fill="none" stroke="black" d="M2739.46,-240.99C2860.08,-227.73 3026.9,-208.02 3172.92,-185.91 3190.96,-183.17 3209.88,-180.06 3228.57,-176.82"/>
<polygon fill="black" stroke="black" points="3229.38,-180.24 3238.63,-175.07 3228.17,-173.34 3229.38,-180.24"/>
</g>
<!-- n25 -->
<g id="node27" class="node">
<title>n25</title>
<ellipse fill="#98D2A5" stroke="black" cx="2972.92" cy="-37.48" rx="190.84" ry="37.45"/>
<text text-anchor="middle" x="2972.92" y="-48.78" font-family="Times,serif" font-size="14.00">Guipúzcoa</text>
<text text-anchor="middle" x="2972.92" y="-33.78" font-family="Times,serif" font-size="14.00">np00000 (pobj)</text>
<text text-anchor="middle" x="2972.92" y="-18.78" font-family="Times,serif" font-size="14.00">rep=no, t=no, r=yes, m=yes, c=no</text>
</g>
<!-- n24&#45;&gt;n25 -->
<g id="edge26" class="edge">
<title>n24&#45;&gt;n25</title>
<path fill="none" stroke="black" d="M2972.92,-110.85C2972.92,-102.67 2972.92,-93.89 2972.92,-85.37"/>
<polygon fill="black" stroke="black" points="2976.42,-85.15 2972.92,-75.15 2969.42,-85.15 2976.42,-85.15"/>
</g>
<!-- n27 -->
<g id="node28" class="node">
<title>n27</title>
<ellipse fill="#98D2A5" stroke="black" cx="3372.92" cy="-37.48" rx="190.84" ry="37.45"/>
<text text-anchor="middle" x="3372.92" y="-48.78" font-family="Times,serif" font-size="14.00">María</text>
<text text-anchor="middle" x="3372.92" y="-33.78" font-family="Times,serif" font-size="14.00">np0000l (appos)</text>
<text text-anchor="middle" x="3372.92" y="-18.78" font-family="Times,serif" font-size="14.00">rep=no, t=no, r=yes, m=yes, c=no</text>
</g>
<!-- n26&#45;&gt;n27 -->
<g id="edge27" class="edge">
<title>n26&#45;&gt;n27</title>
<path fill="none" stroke="black" d="M3372.92,-110.85C3372.92,-102.67 3372.92,-93.89 3372.92,-85.37"/>
<polygon fill="black" stroke="black" points="3376.42,-85.15 3372.92,-75.15 3369.42,-85.15 3376.42,-85.15"/>
</g>
<!-- n28 -->
<g id="node29" class="node">
<title>n28</title>
<ellipse fill="#98D2A5" stroke="black" cx="3772.92" cy="-37.48" rx="190.84" ry="37.45"/>
<text text-anchor="middle" x="3772.92" y="-48.78" font-family="Times,serif" font-size="14.00">Jáuregui</text>
<text text-anchor="middle" x="3772.92" y="-33.78" font-family="Times,serif" font-size="14.00">np0000l (appos)</text>
<text text-anchor="middle" x="3772.92" y="-18.78" font-family="Times,serif" font-size="14.00">rep=no, t=no, r=yes, m=yes, c=no</text>
</g>
<!-- n26&#45;&gt;n28 -->
<g id="edge28" class="edge">
<title>n26&#45;&gt;n28</title>
<path fill="none" stroke="black" d="M3482.22,-117.66C3535.36,-103.19 3599.33,-85.76 3653.71,-70.95"/>
<polygon fill="black" stroke="black" points="3654.67,-74.31 3663.4,-68.31 3652.83,-67.56 3654.67,-74.31"/>
</g>
</g>
</svg>
