<?xml version="1.0" encoding="UTF-8" standalone="no"?>
<!DOCTYPE svg PUBLIC "-//W3C//DTD SVG 1.1//EN"
 "http://www.w3.org/Graphics/SVG/1.1/DTD/svg11.dtd">
<!-- Generated by graphviz version 2.43.0 (0)
 -->
<!-- Title: tree Pages: 1 -->
<svg width="2925pt" height="971pt"
 viewBox="0.00 0.00 2925.45 970.58" xmlns="http://www.w3.org/2000/svg" xmlns:xlink="http://www.w3.org/1999/xlink">
<g id="graph0" class="graph" transform="scale(1 1) rotate(0) translate(4 966.58)">
<title>tree</title>
<polygon fill="white" stroke="transparent" points="-4,4 -4,-966.58 2921.45,-966.58 2921.45,4 -4,4"/>
<!-- n7 -->
<g id="node1" class="node">
<title>n7</title>
<ellipse fill="#98D2A5" stroke="black" cx="1172.73" cy="-925.1" rx="190.84" ry="37.45"/>
<text text-anchor="middle" x="1172.73" y="-936.4" font-family="Times,serif" font-size="14.00">guardaron</text>
<text text-anchor="middle" x="1172.73" y="-921.4" font-family="Times,serif" font-size="14.00">vmis3p0 (root)</text>
<text text-anchor="middle" x="1172.73" y="-906.4" font-family="Times,serif" font-size="14.00">rep=no, t=no, r=yes, m=yes, c=no</text>
</g>
<!-- n1 -->
<g id="node2" class="node">
<title>n1</title>
<ellipse fill="none" stroke="black" cx="191.73" cy="-814.15" rx="181.95" ry="37.45"/>
<text text-anchor="middle" x="191.73" y="-825.45" font-family="Times,serif" font-size="14.00">En</text>
<text text-anchor="middle" x="191.73" y="-810.45" font-family="Times,serif" font-size="14.00">sps00 (prepv)</text>
<text text-anchor="middle" x="191.73" y="-795.45" font-family="Times,serif" font-size="14.00">rep=no, t=no, r=no, m=no, c=no</text>
</g>
<!-- n7&#45;&gt;n1 -->
<g id="edge1" class="edge">
<title>n7&#45;&gt;n1</title>
<path fill="none" stroke="black" d="M993.62,-912.05C834.79,-900.28 596.71,-879.99 390.73,-851.63 371.38,-848.96 351.05,-845.73 331.07,-842.31"/>
<polygon fill="black" stroke="black" points="331.43,-838.82 320.98,-840.56 330.24,-845.72 331.43,-838.82"/>
</g>
<!-- n3 -->
<g id="node3" class="node">
<title>n3</title>
<ellipse fill="none" stroke="black" cx="581.73" cy="-814.15" rx="181.95" ry="37.45"/>
<text text-anchor="middle" x="581.73" y="-825.45" font-family="Times,serif" font-size="14.00">,</text>
<text text-anchor="middle" x="581.73" y="-810.45" font-family="Times,serif" font-size="14.00">fc (punct)</text>
<text text-anchor="middle" x="581.73" y="-795.45" font-family="Times,serif" font-size="14.00">rep=no, t=no, r=no, m=no, c=no</text>
</g>
<!-- n7&#45;&gt;n3 -->
<g id="edge2" class="edge">
<title>n7&#45;&gt;n3</title>
<path fill="none" stroke="black" d="M1033.83,-899.27C956.86,-885.42 859.46,-867.77 772.73,-851.63 756.43,-848.59 739.35,-845.38 722.4,-842.17"/>
<polygon fill="black" stroke="black" points="722.91,-838.71 712.44,-840.28 721.61,-845.58 722.91,-838.71"/>
</g>
<!-- n5 -->
<g id="node4" class="node">
<title>n5</title>
<ellipse fill="#98D2A5" stroke="black" cx="972.73" cy="-814.15" rx="190.84" ry="37.45"/>
<text text-anchor="middle" x="972.73" y="-825.45" font-family="Times,serif" font-size="14.00">eurofuncionarios</text>
<text text-anchor="middle" x="972.73" y="-810.45" font-family="Times,serif" font-size="14.00">ncmp000 (nsubj)</text>
<text text-anchor="middle" x="972.73" y="-795.45" font-family="Times,serif" font-size="14.00">rep=no, t=yes, r=no, m=yes, c=no</text>
</g>
<!-- n7&#45;&gt;n5 -->
<g id="edge3" class="edge">
<title>n7&#45;&gt;n5</title>
<path fill="none" stroke="black" d="M1109.45,-889.63C1088.92,-878.45 1065.99,-865.96 1044.87,-854.45"/>
<polygon fill="black" stroke="black" points="1046.39,-851.3 1035.94,-849.59 1043.05,-857.44 1046.39,-851.3"/>
</g>
<!-- n9 -->
<g id="node5" class="node">
<title>n9</title>
<ellipse fill="#98D2A5" stroke="black" cx="1372.73" cy="-814.15" rx="190.84" ry="37.45"/>
<text text-anchor="middle" x="1372.73" y="-825.45" font-family="Times,serif" font-size="14.00">minutos</text>
<text text-anchor="middle" x="1372.73" y="-810.45" font-family="Times,serif" font-size="14.00">ncmp000 (dobj)</text>
<text text-anchor="middle" x="1372.73" y="-795.45" font-family="Times,serif" font-size="14.00">rep=no, t=no, r=yes, m=yes, c=no</text>
</g>
<!-- n7&#45;&gt;n9 -->
<g id="edge4" class="edge">
<title>n7&#45;&gt;n9</title>
<path fill="none" stroke="black" d="M1236.01,-889.63C1256.54,-878.45 1279.46,-865.96 1300.58,-854.45"/>
<polygon fill="black" stroke="black" points="1302.41,-857.44 1309.51,-849.59 1299.06,-851.3 1302.41,-857.44"/>
</g>
<!-- n12 -->
<g id="node6" class="node">
<title>n12</title>
<ellipse fill="none" stroke="black" cx="1763.73" cy="-814.15" rx="181.95" ry="37.45"/>
<text text-anchor="middle" x="1763.73" y="-825.45" font-family="Times,serif" font-size="14.00">en</text>
<text text-anchor="middle" x="1763.73" y="-810.45" font-family="Times,serif" font-size="14.00">sps00 (prepv)</text>
<text text-anchor="middle" x="1763.73" y="-795.45" font-family="Times,serif" font-size="14.00">rep=no, t=no, r=no, m=no, c=no</text>
</g>
<!-- n7&#45;&gt;n12 -->
<g id="edge5" class="edge">
<title>n7&#45;&gt;n12</title>
<path fill="none" stroke="black" d="M1311.62,-899.27C1388.6,-885.42 1486,-867.77 1572.73,-851.63 1589.03,-848.59 1606.1,-845.38 1623.05,-842.17"/>
<polygon fill="black" stroke="black" points="1623.84,-845.58 1633.02,-840.28 1622.54,-838.71 1623.84,-845.58"/>
</g>
<!-- n22 -->
<g id="node7" class="node">
<title>n22</title>
<ellipse fill="none" stroke="black" cx="2144.73" cy="-814.15" rx="181.95" ry="37.45"/>
<text text-anchor="middle" x="2144.73" y="-825.45" font-family="Times,serif" font-size="14.00">.</text>
<text text-anchor="middle" x="2144.73" y="-810.45" font-family="Times,serif" font-size="14.00">fp (punct)</text>
<text text-anchor="middle" x="2144.73" y="-795.45" font-family="Times,serif" font-size="14.00">rep=no, t=no, r=no, m=no, c=no</text>
</g>
<!-- n7&#45;&gt;n22 -->
<g id="edge6" class="edge">
<title>n7&#45;&gt;n22</title>
<path fill="none" stroke="black" d="M1352.67,-912.42C1511.55,-900.92 1749.2,-880.81 1954.73,-851.63 1972.19,-849.15 1990.49,-846.15 2008.54,-842.95"/>
<polygon fill="black" stroke="black" points="2009.32,-846.37 2018.54,-841.15 2008.08,-839.48 2009.32,-846.37"/>
</g>
<!-- n2 -->
<g id="node8" class="node">
<title>n2</title>
<ellipse fill="none" stroke="black" cx="181.73" cy="-703.2" rx="181.95" ry="37.45"/>
<text text-anchor="middle" x="181.73" y="-714.5" font-family="Times,serif" font-size="14.00">Bruselas</text>
<text text-anchor="middle" x="181.73" y="-699.5" font-family="Times,serif" font-size="14.00">np00000 (pobj)</text>
<text text-anchor="middle" x="181.73" y="-684.5" font-family="Times,serif" font-size="14.00">rep=no, t=no, r=no, m=no, c=no</text>
</g>
<!-- n1&#45;&gt;n2 -->
<g id="edge7" class="edge">
<title>n1&#45;&gt;n2</title>
<path fill="none" stroke="black" d="M188.37,-776.57C187.62,-768.39 186.81,-759.61 186.03,-751.09"/>
<polygon fill="black" stroke="black" points="189.49,-750.51 185.09,-740.87 182.52,-751.15 189.49,-750.51"/>
</g>
<!-- n4 -->
<g id="node9" class="node">
<title>n4</title>
<ellipse fill="#98D2A5" stroke="black" cx="572.73" cy="-703.2" rx="190.84" ry="37.45"/>
<text text-anchor="middle" x="572.73" y="-714.5" font-family="Times,serif" font-size="14.00">los</text>
<text text-anchor="middle" x="572.73" y="-699.5" font-family="Times,serif" font-size="14.00">da0mp0 (det)</text>
<text text-anchor="middle" x="572.73" y="-684.5" font-family="Times,serif" font-size="14.00">rep=no, t=yes, r=no, m=yes, c=no</text>
</g>
<!-- n5&#45;&gt;n4 -->
<g id="edge8" class="edge">
<title>n5&#45;&gt;n4</title>
<path fill="none" stroke="black" d="M863.42,-783.38C810.29,-768.9 746.32,-751.48 691.93,-736.67"/>
<polygon fill="black" stroke="black" points="692.81,-733.28 682.24,-734.03 690.97,-740.03 692.81,-733.28"/>
</g>
<!-- n6 -->
<g id="node10" class="node">
<title>n6</title>
<ellipse fill="#98D2A5" stroke="black" cx="972.73" cy="-703.2" rx="190.84" ry="37.45"/>
<text text-anchor="middle" x="972.73" y="-714.5" font-family="Times,serif" font-size="14.00">españoles</text>
<text text-anchor="middle" x="972.73" y="-699.5" font-family="Times,serif" font-size="14.00">aq0mp0 (amod)</text>
<text text-anchor="middle" x="972.73" y="-684.5" font-family="Times,serif" font-size="14.00">rep=no, t=yes, r=no, m=yes, c=no</text>
</g>
<!-- n5&#45;&gt;n6 -->
<g id="edge9" class="edge">
<title>n5&#45;&gt;n6</title>
<path fill="none" stroke="black" d="M972.73,-776.57C972.73,-768.39 972.73,-759.61 972.73,-751.09"/>
<polygon fill="black" stroke="black" points="976.23,-750.87 972.73,-740.87 969.23,-750.87 976.23,-750.87"/>
</g>
<!-- n8 -->
<g id="node11" class="node">
<title>n8</title>
<ellipse fill="#98D2A5" stroke="black" cx="1372.73" cy="-703.2" rx="190.84" ry="37.45"/>
<text text-anchor="middle" x="1372.73" y="-714.5" font-family="Times,serif" font-size="14.00">diez</text>
<text text-anchor="middle" x="1372.73" y="-699.5" font-family="Times,serif" font-size="14.00">dn0cp0 (det)</text>
<text text-anchor="middle" x="1372.73" y="-684.5" font-family="Times,serif" font-size="14.00">rep=no, t=no, r=yes, m=yes, c=no</text>
</g>
<!-- n9&#45;&gt;n8 -->
<g id="edge10" class="edge">
<title>n9&#45;&gt;n8</title>
<path fill="none" stroke="black" d="M1372.73,-776.57C1372.73,-768.39 1372.73,-759.61 1372.73,-751.09"/>
<polygon fill="black" stroke="black" points="1376.23,-750.87 1372.73,-740.87 1369.23,-750.87 1376.23,-750.87"/>
</g>
<!-- n10 -->
<g id="node12" class="node">
<title>n10</title>
<ellipse fill="#98D2A5" stroke="black" cx="1772.73" cy="-703.2" rx="190.84" ry="37.45"/>
<text text-anchor="middle" x="1772.73" y="-714.5" font-family="Times,serif" font-size="14.00">de</text>
<text text-anchor="middle" x="1772.73" y="-699.5" font-family="Times,serif" font-size="14.00">sps00 (prepn)</text>
<text text-anchor="middle" x="1772.73" y="-684.5" font-family="Times,serif" font-size="14.00">rep=no, t=no, r=yes, m=yes, c=no</text>
</g>
<!-- n9&#45;&gt;n10 -->
<g id="edge11" class="edge">
<title>n9&#45;&gt;n10</title>
<path fill="none" stroke="black" d="M1482.03,-783.38C1535.16,-768.9 1599.13,-751.48 1653.52,-736.67"/>
<polygon fill="black" stroke="black" points="1654.48,-740.03 1663.21,-734.03 1652.64,-733.28 1654.48,-740.03"/>
</g>
<!-- n14 -->
<g id="node14" class="node">
<title>n14</title>
<ellipse fill="none" stroke="black" cx="2163.73" cy="-703.2" rx="181.95" ry="37.45"/>
<text text-anchor="middle" x="2163.73" y="-714.5" font-family="Times,serif" font-size="14.00">acto</text>
<text text-anchor="middle" x="2163.73" y="-699.5" font-family="Times,serif" font-size="14.00">ncms000 (pobj)</text>
<text text-anchor="middle" x="2163.73" y="-684.5" font-family="Times,serif" font-size="14.00">rep=no, t=no, r=no, m=no, c=no</text>
</g>
<!-- n12&#45;&gt;n14 -->
<g id="edge13" class="edge">
<title>n12&#45;&gt;n14</title>
<path fill="none" stroke="black" d="M1871.18,-783.88C1925.32,-769.13 1991.06,-751.23 2046.5,-736.13"/>
<polygon fill="black" stroke="black" points="2047.64,-739.44 2056.37,-733.44 2045.81,-732.69 2047.64,-739.44"/>
</g>
<!-- n11 -->
<g id="node13" class="node">
<title>n11</title>
<ellipse fill="#98D2A5" stroke="black" cx="1772.73" cy="-592.24" rx="190.84" ry="37.45"/>
<text text-anchor="middle" x="1772.73" y="-603.54" font-family="Times,serif" font-size="14.00">silencio</text>
<text text-anchor="middle" x="1772.73" y="-588.54" font-family="Times,serif" font-size="14.00">ncms000 (pobj)</text>
<text text-anchor="middle" x="1772.73" y="-573.54" font-family="Times,serif" font-size="14.00">rep=no, t=no, r=yes, m=yes, c=no</text>
</g>
<!-- n10&#45;&gt;n11 -->
<g id="edge12" class="edge">
<title>n10&#45;&gt;n11</title>
<path fill="none" stroke="black" d="M1772.73,-665.61C1772.73,-657.44 1772.73,-648.66 1772.73,-640.13"/>
<polygon fill="black" stroke="black" points="1776.23,-639.92 1772.73,-629.92 1769.23,-639.92 1776.23,-639.92"/>
</g>
<!-- n13 -->
<g id="node15" class="node">
<title>n13</title>
<ellipse fill="none" stroke="black" cx="2163.73" cy="-592.24" rx="181.95" ry="37.45"/>
<text text-anchor="middle" x="2163.73" y="-603.54" font-family="Times,serif" font-size="14.00">un</text>
<text text-anchor="middle" x="2163.73" y="-588.54" font-family="Times,serif" font-size="14.00">di0ms0 (det)</text>
<text text-anchor="middle" x="2163.73" y="-573.54" font-family="Times,serif" font-size="14.00">rep=no, t=no, r=no, m=no, c=no</text>
</g>
<!-- n14&#45;&gt;n13 -->
<g id="edge14" class="edge">
<title>n14&#45;&gt;n13</title>
<path fill="none" stroke="black" d="M2163.73,-665.61C2163.73,-657.44 2163.73,-648.66 2163.73,-640.13"/>
<polygon fill="black" stroke="black" points="2167.23,-639.92 2163.73,-629.92 2160.23,-639.92 2167.23,-639.92"/>
</g>
<!-- n15 -->
<g id="node16" class="node">
<title>n15</title>
<ellipse fill="none" stroke="black" cx="2544.73" cy="-592.24" rx="181.95" ry="37.45"/>
<text text-anchor="middle" x="2544.73" y="-603.54" font-family="Times,serif" font-size="14.00">convocado</text>
<text text-anchor="middle" x="2544.73" y="-588.54" font-family="Times,serif" font-size="14.00">aq0msp (amod)</text>
<text text-anchor="middle" x="2544.73" y="-573.54" font-family="Times,serif" font-size="14.00">rep=no, t=no, r=no, m=no, c=no</text>
</g>
<!-- n14&#45;&gt;n15 -->
<g id="edge15" class="edge">
<title>n14&#45;&gt;n15</title>
<path fill="none" stroke="black" d="M2267.84,-672.42C2318.34,-657.98 2379.12,-640.6 2430.86,-625.81"/>
<polygon fill="black" stroke="black" points="2432.09,-629.09 2440.74,-622.98 2430.17,-622.36 2432.09,-629.09"/>
</g>
<!-- n16 -->
<g id="node17" class="node">
<title>n16</title>
<ellipse fill="none" stroke="black" cx="2544.73" cy="-481.29" rx="181.95" ry="37.45"/>
<text text-anchor="middle" x="2544.73" y="-492.59" font-family="Times,serif" font-size="14.00">por</text>
<text text-anchor="middle" x="2544.73" y="-477.59" font-family="Times,serif" font-size="14.00">sps00 (agent)</text>
<text text-anchor="middle" x="2544.73" y="-462.59" font-family="Times,serif" font-size="14.00">rep=no, t=no, r=no, m=no, c=no</text>
</g>
<!-- n15&#45;&gt;n16 -->
<g id="edge16" class="edge">
<title>n15&#45;&gt;n16</title>
<path fill="none" stroke="black" d="M2544.73,-554.66C2544.73,-546.49 2544.73,-537.71 2544.73,-529.18"/>
<polygon fill="black" stroke="black" points="2548.23,-528.96 2544.73,-518.96 2541.23,-528.96 2548.23,-528.96"/>
</g>
<!-- n18 -->
<g id="node18" class="node">
<title>n18</title>
<ellipse fill="none" stroke="black" cx="2544.73" cy="-370.34" rx="181.95" ry="37.45"/>
<text text-anchor="middle" x="2544.73" y="-381.64" font-family="Times,serif" font-size="14.00">Coordinadora</text>
<text text-anchor="middle" x="2544.73" y="-366.64" font-family="Times,serif" font-size="14.00">ncms000 (pobj)</text>
<text text-anchor="middle" x="2544.73" y="-351.64" font-family="Times,serif" font-size="14.00">rep=no, t=no, r=no, m=no, c=no</text>
</g>
<!-- n16&#45;&gt;n18 -->
<g id="edge17" class="edge">
<title>n16&#45;&gt;n18</title>
<path fill="none" stroke="black" d="M2544.73,-443.71C2544.73,-435.53 2544.73,-426.75 2544.73,-418.23"/>
<polygon fill="black" stroke="black" points="2548.23,-418.01 2544.73,-408.01 2541.23,-418.01 2548.23,-418.01"/>
</g>
<!-- n17 -->
<g id="node19" class="node">
<title>n17</title>
<ellipse fill="none" stroke="black" cx="2354.73" cy="-259.38" rx="181.95" ry="37.45"/>
<text text-anchor="middle" x="2354.73" y="-270.68" font-family="Times,serif" font-size="14.00">la</text>
<text text-anchor="middle" x="2354.73" y="-255.68" font-family="Times,serif" font-size="14.00">da0fs0 (det)</text>
<text text-anchor="middle" x="2354.73" y="-240.68" font-family="Times,serif" font-size="14.00">rep=no, t=no, r=no, m=no, c=no</text>
</g>
<!-- n18&#45;&gt;n17 -->
<g id="edge18" class="edge">
<title>n18&#45;&gt;n17</title>
<path fill="none" stroke="black" d="M2484.61,-334.86C2465.19,-323.73 2443.52,-311.3 2423.53,-299.84"/>
<polygon fill="black" stroke="black" points="2425.19,-296.76 2414.78,-294.82 2421.71,-302.83 2425.19,-296.76"/>
</g>
<!-- n19 -->
<g id="node20" class="node">
<title>n19</title>
<ellipse fill="none" stroke="black" cx="2735.73" cy="-259.38" rx="181.95" ry="37.45"/>
<text text-anchor="middle" x="2735.73" y="-270.68" font-family="Times,serif" font-size="14.00">por</text>
<text text-anchor="middle" x="2735.73" y="-255.68" font-family="Times,serif" font-size="14.00">sps00 (prepn)</text>
<text text-anchor="middle" x="2735.73" y="-240.68" font-family="Times,serif" font-size="14.00">rep=no, t=no, r=no, m=no, c=no</text>
</g>
<!-- n18&#45;&gt;n19 -->
<g id="edge19" class="edge">
<title>n18&#45;&gt;n19</title>
<path fill="none" stroke="black" d="M2605.16,-334.86C2624.68,-323.73 2646.46,-311.3 2666.56,-299.84"/>
<polygon fill="black" stroke="black" points="2668.41,-302.81 2675.36,-294.82 2664.94,-296.73 2668.41,-302.81"/>
</g>
<!-- n21 -->
<g id="node21" class="node">
<title>n21</title>
<ellipse fill="none" stroke="black" cx="2735.73" cy="-148.43" rx="181.95" ry="37.45"/>
<text text-anchor="middle" x="2735.73" y="-159.73" font-family="Times,serif" font-size="14.00">Paz</text>
<text text-anchor="middle" x="2735.73" y="-144.73" font-family="Times,serif" font-size="14.00">ncfs000 (pobj)</text>
<text text-anchor="middle" x="2735.73" y="-129.73" font-family="Times,serif" font-size="14.00">rep=no, t=no, r=no, m=no, c=no</text>
</g>
<!-- n19&#45;&gt;n21 -->
<g id="edge20" class="edge">
<title>n19&#45;&gt;n21</title>
<path fill="none" stroke="black" d="M2735.73,-221.8C2735.73,-213.63 2735.73,-204.85 2735.73,-196.32"/>
<polygon fill="black" stroke="black" points="2739.23,-196.1 2735.73,-186.1 2732.23,-196.1 2739.23,-196.1"/>
</g>
<!-- n20 -->
<g id="node22" class="node">
<title>n20</title>
<ellipse fill="none" stroke="black" cx="2735.73" cy="-37.48" rx="181.95" ry="37.45"/>
<text text-anchor="middle" x="2735.73" y="-48.78" font-family="Times,serif" font-size="14.00">la</text>
<text text-anchor="middle" x="2735.73" y="-33.78" font-family="Times,serif" font-size="14.00">da0fs0 (det)</text>
<text text-anchor="middle" x="2735.73" y="-18.78" font-family="Times,serif" font-size="14.00">rep=no, t=no, r=no, m=no, c=no</text>
</g>
<!-- n21&#45;&gt;n20 -->
<g id="edge21" class="edge">
<title>n21&#45;&gt;n20</title>
<path fill="none" stroke="black" d="M2735.73,-110.85C2735.73,-102.67 2735.73,-93.89 2735.73,-85.37"/>
<polygon fill="black" stroke="black" points="2739.23,-85.15 2735.73,-75.15 2732.23,-85.15 2739.23,-85.15"/>
</g>
</g>
</svg>
