<?xml version="1.0" encoding="UTF-8" standalone="no"?>
<!DOCTYPE svg PUBLIC "-//W3C//DTD SVG 1.1//EN"
 "http://www.w3.org/Graphics/SVG/1.1/DTD/svg11.dtd">
<!-- Generated by graphviz version 2.43.0 (0)
 -->
<!-- Title: tree Pages: 1 -->
<svg width="1770pt" height="749pt"
 viewBox="0.00 0.00 1769.89 748.67" xmlns="http://www.w3.org/2000/svg" xmlns:xlink="http://www.w3.org/1999/xlink">
<g id="graph0" class="graph" transform="scale(1 1) rotate(0) translate(4 744.67)">
<title>tree</title>
<polygon fill="white" stroke="transparent" points="-4,4 -4,-744.67 1765.89,-744.67 1765.89,4 -4,4"/>
<!-- n4 -->
<g id="node1" class="node">
<title>n4</title>
<ellipse fill="none" stroke="black" cx="965.97" cy="-703.2" rx="181.95" ry="37.45"/>
<text text-anchor="middle" x="965.97" y="-714.5" font-family="Times,serif" font-size="14.00">reconoció</text>
<text text-anchor="middle" x="965.97" y="-699.5" font-family="Times,serif" font-size="14.00">vmis3s0 (root)</text>
<text text-anchor="middle" x="965.97" y="-684.5" font-family="Times,serif" font-size="14.00">rep=no, t=no, r=no, m=no, c=no</text>
</g>
<!-- n2 -->
<g id="node2" class="node">
<title>n2</title>
<ellipse fill="none" stroke="black" cx="575.97" cy="-592.24" rx="185.94" ry="37.45"/>
<text text-anchor="middle" x="575.97" y="-603.54" font-family="Times,serif" font-size="14.00">Gobierno</text>
<text text-anchor="middle" x="575.97" y="-588.54" font-family="Times,serif" font-size="14.00">np00000 (nsubj)</text>
<text text-anchor="middle" x="575.97" y="-573.54" font-family="Times,serif" font-size="14.00">rep=yes, t=no, r=no, m=no, c=no</text>
</g>
<!-- n4&#45;&gt;n2 -->
<g id="edge1" class="edge">
<title>n4&#45;&gt;n2</title>
<path fill="none" stroke="black" d="M860.17,-672.64C808.25,-658.14 745.58,-640.63 692.31,-625.74"/>
<polygon fill="black" stroke="black" points="693.05,-622.32 682.48,-623 691.16,-629.06 693.05,-622.32"/>
</g>
<!-- n5 -->
<g id="node3" class="node">
<title>n5</title>
<ellipse fill="none" stroke="black" cx="965.97" cy="-592.24" rx="181.95" ry="37.45"/>
<text text-anchor="middle" x="965.97" y="-603.54" font-family="Times,serif" font-size="14.00">que</text>
<text text-anchor="middle" x="965.97" y="-588.54" font-family="Times,serif" font-size="14.00">cs (dobj)</text>
<text text-anchor="middle" x="965.97" y="-573.54" font-family="Times,serif" font-size="14.00">rep=no, t=no, r=no, m=no, c=no</text>
</g>
<!-- n4&#45;&gt;n5 -->
<g id="edge2" class="edge">
<title>n4&#45;&gt;n5</title>
<path fill="none" stroke="black" d="M965.97,-665.61C965.97,-657.44 965.97,-648.66 965.97,-640.13"/>
<polygon fill="black" stroke="black" points="969.47,-639.92 965.97,-629.92 962.47,-639.92 969.47,-639.92"/>
</g>
<!-- n18 -->
<g id="node4" class="node">
<title>n18</title>
<ellipse fill="none" stroke="black" cx="1346.97" cy="-592.24" rx="181.95" ry="37.45"/>
<text text-anchor="middle" x="1346.97" y="-603.54" font-family="Times,serif" font-size="14.00">.</text>
<text text-anchor="middle" x="1346.97" y="-588.54" font-family="Times,serif" font-size="14.00">fp (punct)</text>
<text text-anchor="middle" x="1346.97" y="-573.54" font-family="Times,serif" font-size="14.00">rep=no, t=no, r=no, m=no, c=no</text>
</g>
<!-- n4&#45;&gt;n18 -->
<g id="edge3" class="edge">
<title>n4&#45;&gt;n18</title>
<path fill="none" stroke="black" d="M1070.08,-672.42C1120.58,-657.98 1181.37,-640.6 1233.1,-625.81"/>
<polygon fill="black" stroke="black" points="1234.33,-629.09 1242.99,-622.98 1232.41,-622.36 1234.33,-629.09"/>
</g>
<!-- n1 -->
<g id="node5" class="node">
<title>n1</title>
<ellipse fill="none" stroke="black" cx="185.97" cy="-481.29" rx="185.94" ry="37.45"/>
<text text-anchor="middle" x="185.97" y="-492.59" font-family="Times,serif" font-size="14.00">El</text>
<text text-anchor="middle" x="185.97" y="-477.59" font-family="Times,serif" font-size="14.00">da0ms0 (det)</text>
<text text-anchor="middle" x="185.97" y="-462.59" font-family="Times,serif" font-size="14.00">rep=yes, t=no, r=no, m=no, c=no</text>
</g>
<!-- n2&#45;&gt;n1 -->
<g id="edge4" class="edge">
<title>n2&#45;&gt;n1</title>
<path fill="none" stroke="black" d="M469.4,-561.47C417.59,-547 355.23,-529.57 302.2,-514.76"/>
<polygon fill="black" stroke="black" points="302.98,-511.35 292.41,-512.03 301.1,-518.09 302.98,-511.35"/>
</g>
<!-- n3 -->
<g id="node6" class="node">
<title>n3</title>
<ellipse fill="none" stroke="black" cx="575.97" cy="-481.29" rx="185.94" ry="37.45"/>
<text text-anchor="middle" x="575.97" y="-492.59" font-family="Times,serif" font-size="14.00">británico</text>
<text text-anchor="middle" x="575.97" y="-477.59" font-family="Times,serif" font-size="14.00">aq0ms0 (amod)</text>
<text text-anchor="middle" x="575.97" y="-462.59" font-family="Times,serif" font-size="14.00">rep=yes, t=no, r=no, m=no, c=no</text>
</g>
<!-- n2&#45;&gt;n3 -->
<g id="edge5" class="edge">
<title>n2&#45;&gt;n3</title>
<path fill="none" stroke="black" d="M575.97,-554.66C575.97,-546.49 575.97,-537.71 575.97,-529.18"/>
<polygon fill="black" stroke="black" points="579.47,-528.96 575.97,-518.96 572.47,-528.96 579.47,-528.96"/>
</g>
<!-- n12 -->
<g id="node7" class="node">
<title>n12</title>
<ellipse fill="#98D2A5" stroke="black" cx="970.97" cy="-481.29" rx="190.84" ry="37.45"/>
<text text-anchor="middle" x="970.97" y="-492.59" font-family="Times,serif" font-size="14.00">podía</text>
<text text-anchor="middle" x="970.97" y="-477.59" font-family="Times,serif" font-size="14.00">vmii3s0 (cobj)</text>
<text text-anchor="middle" x="970.97" y="-462.59" font-family="Times,serif" font-size="14.00">rep=no, t=no, r=yes, m=yes, c=no</text>
</g>
<!-- n5&#45;&gt;n12 -->
<g id="edge6" class="edge">
<title>n5&#45;&gt;n12</title>
<path fill="none" stroke="black" d="M967.65,-554.66C968.02,-546.49 968.43,-537.71 968.82,-529.18"/>
<polygon fill="black" stroke="black" points="972.32,-529.11 969.29,-518.96 965.33,-528.79 972.32,-529.11"/>
</g>
<!-- n7 -->
<g id="node8" class="node">
<title>n7</title>
<ellipse fill="#98D2A5" stroke="black" cx="770.97" cy="-370.34" rx="190.84" ry="37.45"/>
<text text-anchor="middle" x="770.97" y="-381.64" font-family="Times,serif" font-size="14.00">mal</text>
<text text-anchor="middle" x="770.97" y="-366.64" font-family="Times,serif" font-size="14.00">ncms000 (nsubj)</text>
<text text-anchor="middle" x="770.97" y="-351.64" font-family="Times,serif" font-size="14.00">rep=no, t=yes, r=no, m=yes, c=no</text>
</g>
<!-- n12&#45;&gt;n7 -->
<g id="edge7" class="edge">
<title>n12&#45;&gt;n7</title>
<path fill="none" stroke="black" d="M907.69,-445.82C887.16,-434.63 864.23,-422.14 843.11,-410.64"/>
<polygon fill="black" stroke="black" points="844.64,-407.48 834.18,-405.77 841.29,-413.63 844.64,-407.48"/>
</g>
<!-- n13 -->
<g id="node9" class="node">
<title>n13</title>
<ellipse fill="#98D2A5" stroke="black" cx="1170.97" cy="-370.34" rx="190.84" ry="37.45"/>
<text text-anchor="middle" x="1170.97" y="-381.64" font-family="Times,serif" font-size="14.00">afectar</text>
<text text-anchor="middle" x="1170.97" y="-366.64" font-family="Times,serif" font-size="14.00">vmn0000 (dobj)</text>
<text text-anchor="middle" x="1170.97" y="-351.64" font-family="Times,serif" font-size="14.00">rep=no, t=no, r=yes, m=yes, c=no</text>
</g>
<!-- n12&#45;&gt;n13 -->
<g id="edge8" class="edge">
<title>n12&#45;&gt;n13</title>
<path fill="none" stroke="black" d="M1034.25,-445.82C1054.78,-434.63 1077.7,-422.14 1098.83,-410.64"/>
<polygon fill="black" stroke="black" points="1100.65,-413.63 1107.76,-405.77 1097.3,-407.48 1100.65,-413.63"/>
</g>
<!-- n6 -->
<g id="node10" class="node">
<title>n6</title>
<ellipse fill="#98D2A5" stroke="black" cx="370.97" cy="-259.38" rx="190.84" ry="37.45"/>
<text text-anchor="middle" x="370.97" y="-270.68" font-family="Times,serif" font-size="14.00">el</text>
<text text-anchor="middle" x="370.97" y="-255.68" font-family="Times,serif" font-size="14.00">da0ms0 (det)</text>
<text text-anchor="middle" x="370.97" y="-240.68" font-family="Times,serif" font-size="14.00">rep=no, t=yes, r=no, m=yes, c=no</text>
</g>
<!-- n7&#45;&gt;n6 -->
<g id="edge9" class="edge">
<title>n7&#45;&gt;n6</title>
<path fill="none" stroke="black" d="M661.67,-339.56C608.53,-325.09 544.56,-307.67 490.17,-292.85"/>
<polygon fill="black" stroke="black" points="491.05,-289.46 480.49,-290.21 489.21,-296.22 491.05,-289.46"/>
</g>
<!-- n8 -->
<g id="node11" class="node">
<title>n8</title>
<ellipse fill="#98D2A5" stroke="black" cx="770.97" cy="-259.38" rx="190.84" ry="37.45"/>
<text text-anchor="middle" x="770.97" y="-270.68" font-family="Times,serif" font-size="14.00">de</text>
<text text-anchor="middle" x="770.97" y="-255.68" font-family="Times,serif" font-size="14.00">sps00 (prepn)</text>
<text text-anchor="middle" x="770.97" y="-240.68" font-family="Times,serif" font-size="14.00">rep=no, t=yes, r=no, m=yes, c=no</text>
</g>
<!-- n7&#45;&gt;n8 -->
<g id="edge10" class="edge">
<title>n7&#45;&gt;n8</title>
<path fill="none" stroke="black" d="M770.97,-332.75C770.97,-324.58 770.97,-315.8 770.97,-307.27"/>
<polygon fill="black" stroke="black" points="774.47,-307.06 770.97,-297.06 767.47,-307.06 774.47,-307.06"/>
</g>
<!-- n14 -->
<g id="node15" class="node">
<title>n14</title>
<ellipse fill="#98D2A5" stroke="black" cx="1170.97" cy="-259.38" rx="190.84" ry="37.45"/>
<text text-anchor="middle" x="1170.97" y="-270.68" font-family="Times,serif" font-size="14.00">a</text>
<text text-anchor="middle" x="1170.97" y="-255.68" font-family="Times,serif" font-size="14.00">sps00 (dobj)</text>
<text text-anchor="middle" x="1170.97" y="-240.68" font-family="Times,serif" font-size="14.00">rep=no, t=no, r=yes, m=yes, c=no</text>
</g>
<!-- n13&#45;&gt;n14 -->
<g id="edge14" class="edge">
<title>n13&#45;&gt;n14</title>
<path fill="none" stroke="black" d="M1170.97,-332.75C1170.97,-324.58 1170.97,-315.8 1170.97,-307.27"/>
<polygon fill="black" stroke="black" points="1174.47,-307.06 1170.97,-297.06 1167.47,-307.06 1174.47,-307.06"/>
</g>
<!-- n10 -->
<g id="node12" class="node">
<title>n10</title>
<ellipse fill="#98D2A5" stroke="black" cx="770.97" cy="-148.43" rx="190.84" ry="37.45"/>
<text text-anchor="middle" x="770.97" y="-159.73" font-family="Times,serif" font-size="14.00">vacas</text>
<text text-anchor="middle" x="770.97" y="-144.73" font-family="Times,serif" font-size="14.00">ncfp000 (pobj)</text>
<text text-anchor="middle" x="770.97" y="-129.73" font-family="Times,serif" font-size="14.00">rep=no, t=yes, r=no, m=yes, c=no</text>
</g>
<!-- n8&#45;&gt;n10 -->
<g id="edge11" class="edge">
<title>n8&#45;&gt;n10</title>
<path fill="none" stroke="black" d="M770.97,-221.8C770.97,-213.63 770.97,-204.85 770.97,-196.32"/>
<polygon fill="black" stroke="black" points="774.47,-196.1 770.97,-186.1 767.47,-196.1 774.47,-196.1"/>
</g>
<!-- n9 -->
<g id="node13" class="node">
<title>n9</title>
<ellipse fill="#98D2A5" stroke="black" cx="370.97" cy="-37.48" rx="190.84" ry="37.45"/>
<text text-anchor="middle" x="370.97" y="-48.78" font-family="Times,serif" font-size="14.00">las</text>
<text text-anchor="middle" x="370.97" y="-33.78" font-family="Times,serif" font-size="14.00">da0fp0 (det)</text>
<text text-anchor="middle" x="370.97" y="-18.78" font-family="Times,serif" font-size="14.00">rep=no, t=yes, r=no, m=yes, c=no</text>
</g>
<!-- n10&#45;&gt;n9 -->
<g id="edge12" class="edge">
<title>n10&#45;&gt;n9</title>
<path fill="none" stroke="black" d="M661.67,-117.66C608.53,-103.19 544.56,-85.76 490.17,-70.95"/>
<polygon fill="black" stroke="black" points="491.05,-67.56 480.49,-68.31 489.21,-74.31 491.05,-67.56"/>
</g>
<!-- n11 -->
<g id="node14" class="node">
<title>n11</title>
<ellipse fill="#98D2A5" stroke="black" cx="770.97" cy="-37.48" rx="190.84" ry="37.45"/>
<text text-anchor="middle" x="770.97" y="-48.78" font-family="Times,serif" font-size="14.00">locas</text>
<text text-anchor="middle" x="770.97" y="-33.78" font-family="Times,serif" font-size="14.00">aq0fp0 (amod)</text>
<text text-anchor="middle" x="770.97" y="-18.78" font-family="Times,serif" font-size="14.00">rep=no, t=yes, r=no, m=yes, c=no</text>
</g>
<!-- n10&#45;&gt;n11 -->
<g id="edge13" class="edge">
<title>n10&#45;&gt;n11</title>
<path fill="none" stroke="black" d="M770.97,-110.85C770.97,-102.67 770.97,-93.89 770.97,-85.37"/>
<polygon fill="black" stroke="black" points="774.47,-85.15 770.97,-75.15 767.47,-85.15 774.47,-85.15"/>
</g>
<!-- n16 -->
<g id="node16" class="node">
<title>n16</title>
<ellipse fill="#98D2A5" stroke="black" cx="1170.97" cy="-148.43" rx="190.84" ry="37.45"/>
<text text-anchor="middle" x="1170.97" y="-159.73" font-family="Times,serif" font-size="14.00">salud</text>
<text text-anchor="middle" x="1170.97" y="-144.73" font-family="Times,serif" font-size="14.00">ncfs000 (pobj)</text>
<text text-anchor="middle" x="1170.97" y="-129.73" font-family="Times,serif" font-size="14.00">rep=no, t=no, r=yes, m=yes, c=no</text>
</g>
<!-- n14&#45;&gt;n16 -->
<g id="edge15" class="edge">
<title>n14&#45;&gt;n16</title>
<path fill="none" stroke="black" d="M1170.97,-221.8C1170.97,-213.63 1170.97,-204.85 1170.97,-196.32"/>
<polygon fill="black" stroke="black" points="1174.47,-196.1 1170.97,-186.1 1167.47,-196.1 1174.47,-196.1"/>
</g>
<!-- n15 -->
<g id="node17" class="node">
<title>n15</title>
<ellipse fill="#98D2A5" stroke="black" cx="1170.97" cy="-37.48" rx="190.84" ry="37.45"/>
<text text-anchor="middle" x="1170.97" y="-48.78" font-family="Times,serif" font-size="14.00">la</text>
<text text-anchor="middle" x="1170.97" y="-33.78" font-family="Times,serif" font-size="14.00">da0fs0 (det)</text>
<text text-anchor="middle" x="1170.97" y="-18.78" font-family="Times,serif" font-size="14.00">rep=no, t=no, r=yes, m=yes, c=no</text>
</g>
<!-- n16&#45;&gt;n15 -->
<g id="edge16" class="edge">
<title>n16&#45;&gt;n15</title>
<path fill="none" stroke="black" d="M1170.97,-110.85C1170.97,-102.67 1170.97,-93.89 1170.97,-85.37"/>
<polygon fill="black" stroke="black" points="1174.47,-85.15 1170.97,-75.15 1167.47,-85.15 1174.47,-85.15"/>
</g>
<!-- n17 -->
<g id="node18" class="node">
<title>n17</title>
<ellipse fill="#98D2A5" stroke="black" cx="1570.97" cy="-37.48" rx="190.84" ry="37.45"/>
<text text-anchor="middle" x="1570.97" y="-48.78" font-family="Times,serif" font-size="14.00">humana</text>
<text text-anchor="middle" x="1570.97" y="-33.78" font-family="Times,serif" font-size="14.00">aq0fs0 (amod)</text>
<text text-anchor="middle" x="1570.97" y="-18.78" font-family="Times,serif" font-size="14.00">rep=no, t=no, r=yes, m=yes, c=no</text>
</g>
<!-- n16&#45;&gt;n17 -->
<g id="edge17" class="edge">
<title>n16&#45;&gt;n17</title>
<path fill="none" stroke="black" d="M1280.27,-117.66C1333.41,-103.19 1397.38,-85.76 1451.76,-70.95"/>
<polygon fill="black" stroke="black" points="1452.72,-74.31 1461.45,-68.31 1450.88,-67.56 1452.72,-74.31"/>
</g>
</g>
</svg>
