<?xml version="1.0" encoding="UTF-8" standalone="no"?>
<!DOCTYPE svg PUBLIC "-//W3C//DTD SVG 1.1//EN"
 "http://www.w3.org/Graphics/SVG/1.1/DTD/svg11.dtd">
<!-- Generated by graphviz version 2.43.0 (0)
 -->
<!-- Title: tree Pages: 1 -->
<svg width="2760pt" height="2191pt"
 viewBox="0.00 0.00 2759.89 2191.07" xmlns="http://www.w3.org/2000/svg" xmlns:xlink="http://www.w3.org/1999/xlink">
<g id="graph0" class="graph" transform="scale(1 1) rotate(0) translate(4 2187.07)">
<title>tree</title>
<polygon fill="white" stroke="transparent" points="-4,4 -4,-2187.07 2755.89,-2187.07 2755.89,4 -4,4"/>
<!-- n3 -->
<g id="node1" class="node">
<title>n3</title>
<ellipse fill="#98D2A5" stroke="black" cx="790.92" cy="-2145.59" rx="190.84" ry="37.45"/>
<text text-anchor="middle" x="790.92" y="-2156.89" font-family="Times,serif" font-size="14.00">fue</text>
<text text-anchor="middle" x="790.92" y="-2141.89" font-family="Times,serif" font-size="14.00">vsis3s0 (root)</text>
<text text-anchor="middle" x="790.92" y="-2126.89" font-family="Times,serif" font-size="14.00">rep=no, t=no, r=yes, m=yes, c=no</text>
</g>
<!-- n2 -->
<g id="node2" class="node">
<title>n2</title>
<ellipse fill="#98D2A5" stroke="black" cx="390.92" cy="-2034.64" rx="190.84" ry="37.45"/>
<text text-anchor="middle" x="390.92" y="-2045.94" font-family="Times,serif" font-size="14.00">embargo</text>
<text text-anchor="middle" x="390.92" y="-2030.94" font-family="Times,serif" font-size="14.00">ncms000 (nsubj)</text>
<text text-anchor="middle" x="390.92" y="-2015.94" font-family="Times,serif" font-size="14.00">rep=no, t=yes, r=no, m=yes, c=no</text>
</g>
<!-- n3&#45;&gt;n2 -->
<g id="edge1" class="edge">
<title>n3&#45;&gt;n2</title>
<path fill="none" stroke="black" d="M681.62,-2114.82C628.48,-2100.34 564.51,-2082.92 510.12,-2068.11"/>
<polygon fill="black" stroke="black" points="511,-2064.72 500.44,-2065.47 509.16,-2071.47 511,-2064.72"/>
</g>
<!-- n4 -->
<g id="node3" class="node">
<title>n4</title>
<ellipse fill="#98D2A5" stroke="black" cx="790.92" cy="-2034.64" rx="190.84" ry="37.45"/>
<text text-anchor="middle" x="790.92" y="-2045.94" font-family="Times,serif" font-size="14.00">decretado</text>
<text text-anchor="middle" x="790.92" y="-2030.94" font-family="Times,serif" font-size="14.00">vmp00sm (attr)</text>
<text text-anchor="middle" x="790.92" y="-2015.94" font-family="Times,serif" font-size="14.00">rep=no, t=no, r=yes, m=yes, c=no</text>
</g>
<!-- n3&#45;&gt;n4 -->
<g id="edge2" class="edge">
<title>n3&#45;&gt;n4</title>
<path fill="none" stroke="black" d="M790.92,-2108.01C790.92,-2099.83 790.92,-2091.05 790.92,-2082.53"/>
<polygon fill="black" stroke="black" points="794.42,-2082.31 790.92,-2072.31 787.42,-2082.31 794.42,-2082.31"/>
</g>
<!-- n35 -->
<g id="node4" class="node">
<title>n35</title>
<ellipse fill="none" stroke="black" cx="1181.92" cy="-2034.64" rx="181.95" ry="37.45"/>
<text text-anchor="middle" x="1181.92" y="-2045.94" font-family="Times,serif" font-size="14.00">.</text>
<text text-anchor="middle" x="1181.92" y="-2030.94" font-family="Times,serif" font-size="14.00">fp (punct)</text>
<text text-anchor="middle" x="1181.92" y="-2015.94" font-family="Times,serif" font-size="14.00">rep=no, t=no, r=no, m=no, c=no</text>
</g>
<!-- n3&#45;&gt;n35 -->
<g id="edge3" class="edge">
<title>n3&#45;&gt;n35</title>
<path fill="none" stroke="black" d="M898.54,-2114.6C950.57,-2100.1 1013.09,-2082.68 1066.16,-2067.89"/>
<polygon fill="black" stroke="black" points="1067.26,-2071.22 1075.95,-2065.17 1065.38,-2064.48 1067.26,-2071.22"/>
</g>
<!-- n1 -->
<g id="node5" class="node">
<title>n1</title>
<ellipse fill="#98D2A5" stroke="black" cx="390.92" cy="-1923.68" rx="190.84" ry="37.45"/>
<text text-anchor="middle" x="390.92" y="-1934.98" font-family="Times,serif" font-size="14.00">El</text>
<text text-anchor="middle" x="390.92" y="-1919.98" font-family="Times,serif" font-size="14.00">da0ms0 (det)</text>
<text text-anchor="middle" x="390.92" y="-1904.98" font-family="Times,serif" font-size="14.00">rep=no, t=yes, r=no, m=yes, c=no</text>
</g>
<!-- n2&#45;&gt;n1 -->
<g id="edge4" class="edge">
<title>n2&#45;&gt;n1</title>
<path fill="none" stroke="black" d="M390.92,-1997.05C390.92,-1988.88 390.92,-1980.1 390.92,-1971.57"/>
<polygon fill="black" stroke="black" points="394.42,-1971.35 390.92,-1961.35 387.42,-1971.35 394.42,-1971.35"/>
</g>
<!-- n5 -->
<g id="node6" class="node">
<title>n5</title>
<ellipse fill="#98D2A5" stroke="black" cx="790.92" cy="-1923.68" rx="190.84" ry="37.45"/>
<text text-anchor="middle" x="790.92" y="-1934.98" font-family="Times,serif" font-size="14.00">tras</text>
<text text-anchor="middle" x="790.92" y="-1919.98" font-family="Times,serif" font-size="14.00">sps00 (prepv)</text>
<text text-anchor="middle" x="790.92" y="-1904.98" font-family="Times,serif" font-size="14.00">rep=no, t=no, r=yes, m=yes, c=no</text>
</g>
<!-- n4&#45;&gt;n5 -->
<g id="edge5" class="edge">
<title>n4&#45;&gt;n5</title>
<path fill="none" stroke="black" d="M790.92,-1997.05C790.92,-1988.88 790.92,-1980.1 790.92,-1971.57"/>
<polygon fill="black" stroke="black" points="794.42,-1971.35 790.92,-1961.35 787.42,-1971.35 794.42,-1971.35"/>
</g>
<!-- n7 -->
<g id="node7" class="node">
<title>n7</title>
<ellipse fill="#98D2A5" stroke="black" cx="790.92" cy="-1812.73" rx="190.84" ry="37.45"/>
<text text-anchor="middle" x="790.92" y="-1824.03" font-family="Times,serif" font-size="14.00">detección</text>
<text text-anchor="middle" x="790.92" y="-1809.03" font-family="Times,serif" font-size="14.00">ncfs000 (pobj)</text>
<text text-anchor="middle" x="790.92" y="-1794.03" font-family="Times,serif" font-size="14.00">rep=no, t=no, r=yes, m=yes, c=no</text>
</g>
<!-- n5&#45;&gt;n7 -->
<g id="edge6" class="edge">
<title>n5&#45;&gt;n7</title>
<path fill="none" stroke="black" d="M790.92,-1886.1C790.92,-1877.93 790.92,-1869.15 790.92,-1860.62"/>
<polygon fill="black" stroke="black" points="794.42,-1860.4 790.92,-1850.4 787.42,-1860.4 794.42,-1860.4"/>
</g>
<!-- n6 -->
<g id="node8" class="node">
<title>n6</title>
<ellipse fill="#98D2A5" stroke="black" cx="590.92" cy="-1701.78" rx="190.84" ry="37.45"/>
<text text-anchor="middle" x="590.92" y="-1713.08" font-family="Times,serif" font-size="14.00">la</text>
<text text-anchor="middle" x="590.92" y="-1698.08" font-family="Times,serif" font-size="14.00">da0fs0 (det)</text>
<text text-anchor="middle" x="590.92" y="-1683.08" font-family="Times,serif" font-size="14.00">rep=no, t=no, r=yes, m=yes, c=no</text>
</g>
<!-- n7&#45;&gt;n6 -->
<g id="edge7" class="edge">
<title>n7&#45;&gt;n6</title>
<path fill="none" stroke="black" d="M727.64,-1777.26C707.11,-1766.07 684.18,-1753.58 663.06,-1742.08"/>
<polygon fill="black" stroke="black" points="664.59,-1738.92 654.13,-1737.21 661.24,-1745.07 664.59,-1738.92"/>
</g>
<!-- n8 -->
<g id="node9" class="node">
<title>n8</title>
<ellipse fill="#98D2A5" stroke="black" cx="990.92" cy="-1701.78" rx="190.84" ry="37.45"/>
<text text-anchor="middle" x="990.92" y="-1713.08" font-family="Times,serif" font-size="14.00">de</text>
<text text-anchor="middle" x="990.92" y="-1698.08" font-family="Times,serif" font-size="14.00">sps00 (prepn)</text>
<text text-anchor="middle" x="990.92" y="-1683.08" font-family="Times,serif" font-size="14.00">rep=no, t=no, r=yes, m=yes, c=no</text>
</g>
<!-- n7&#45;&gt;n8 -->
<g id="edge8" class="edge">
<title>n7&#45;&gt;n8</title>
<path fill="none" stroke="black" d="M854.2,-1777.26C874.73,-1766.07 897.65,-1753.58 918.78,-1742.08"/>
<polygon fill="black" stroke="black" points="920.6,-1745.07 927.71,-1737.21 917.25,-1738.92 920.6,-1745.07"/>
</g>
<!-- n10 -->
<g id="node10" class="node">
<title>n10</title>
<ellipse fill="#98D2A5" stroke="black" cx="990.92" cy="-1590.82" rx="190.84" ry="37.45"/>
<text text-anchor="middle" x="990.92" y="-1602.12" font-family="Times,serif" font-size="14.00">enfermedad</text>
<text text-anchor="middle" x="990.92" y="-1587.12" font-family="Times,serif" font-size="14.00">ncfs000 (pobj)</text>
<text text-anchor="middle" x="990.92" y="-1572.12" font-family="Times,serif" font-size="14.00">rep=no, t=no, r=yes, m=yes, c=no</text>
</g>
<!-- n8&#45;&gt;n10 -->
<g id="edge9" class="edge">
<title>n8&#45;&gt;n10</title>
<path fill="none" stroke="black" d="M990.92,-1664.19C990.92,-1656.02 990.92,-1647.24 990.92,-1638.71"/>
<polygon fill="black" stroke="black" points="994.42,-1638.49 990.92,-1628.49 987.42,-1638.5 994.42,-1638.49"/>
</g>
<!-- n9 -->
<g id="node11" class="node">
<title>n9</title>
<ellipse fill="#98D2A5" stroke="black" cx="190.92" cy="-1479.87" rx="190.84" ry="37.45"/>
<text text-anchor="middle" x="190.92" y="-1491.17" font-family="Times,serif" font-size="14.00">la</text>
<text text-anchor="middle" x="190.92" y="-1476.17" font-family="Times,serif" font-size="14.00">da0fs0 (det)</text>
<text text-anchor="middle" x="190.92" y="-1461.17" font-family="Times,serif" font-size="14.00">rep=no, t=no, r=yes, m=yes, c=no</text>
</g>
<!-- n10&#45;&gt;n9 -->
<g id="edge10" class="edge">
<title>n10&#45;&gt;n9</title>
<path fill="none" stroke="black" d="M824.38,-1572.43C703.76,-1559.17 536.93,-1539.46 390.92,-1517.35 372.87,-1514.61 353.96,-1511.5 335.26,-1508.26"/>
<polygon fill="black" stroke="black" points="335.66,-1504.78 325.21,-1506.51 334.46,-1511.68 335.66,-1504.78"/>
</g>
<!-- n11 -->
<g id="node12" class="node">
<title>n11</title>
<ellipse fill="#98D2A5" stroke="black" cx="590.92" cy="-1479.87" rx="190.84" ry="37.45"/>
<text text-anchor="middle" x="590.92" y="-1491.17" font-family="Times,serif" font-size="14.00">,</text>
<text text-anchor="middle" x="590.92" y="-1476.17" font-family="Times,serif" font-size="14.00">fc (punct)</text>
<text text-anchor="middle" x="590.92" y="-1461.17" font-family="Times,serif" font-size="14.00">rep=no, t=no, r=yes, m=yes, c=no</text>
</g>
<!-- n10&#45;&gt;n11 -->
<g id="edge11" class="edge">
<title>n10&#45;&gt;n11</title>
<path fill="none" stroke="black" d="M881.62,-1560.05C828.48,-1545.58 764.51,-1528.15 710.12,-1513.34"/>
<polygon fill="black" stroke="black" points="711,-1509.95 700.44,-1510.7 709.16,-1516.71 711,-1509.95"/>
</g>
<!-- n12 -->
<g id="node13" class="node">
<title>n12</title>
<ellipse fill="#98D2A5" stroke="black" cx="990.92" cy="-1479.87" rx="190.84" ry="37.45"/>
<text text-anchor="middle" x="990.92" y="-1491.17" font-family="Times,serif" font-size="14.00">denominada</text>
<text text-anchor="middle" x="990.92" y="-1476.17" font-family="Times,serif" font-size="14.00">aq0fsp (amod)</text>
<text text-anchor="middle" x="990.92" y="-1461.17" font-family="Times,serif" font-size="14.00">rep=no, t=no, r=yes, m=yes, c=no</text>
</g>
<!-- n10&#45;&gt;n12 -->
<g id="edge12" class="edge">
<title>n10&#45;&gt;n12</title>
<path fill="none" stroke="black" d="M990.92,-1553.24C990.92,-1545.07 990.92,-1536.29 990.92,-1527.76"/>
<polygon fill="black" stroke="black" points="994.42,-1527.54 990.92,-1517.54 987.42,-1527.54 994.42,-1527.54"/>
</g>
<!-- n16 -->
<g id="node14" class="node">
<title>n16</title>
<ellipse fill="#98D2A5" stroke="black" cx="1390.92" cy="-1479.87" rx="190.84" ry="37.45"/>
<text text-anchor="middle" x="1390.92" y="-1491.17" font-family="Times,serif" font-size="14.00">,</text>
<text text-anchor="middle" x="1390.92" y="-1476.17" font-family="Times,serif" font-size="14.00">fc (punct)</text>
<text text-anchor="middle" x="1390.92" y="-1461.17" font-family="Times,serif" font-size="14.00">rep=no, t=no, r=yes, m=yes, c=no</text>
</g>
<!-- n10&#45;&gt;n16 -->
<g id="edge13" class="edge">
<title>n10&#45;&gt;n16</title>
<path fill="none" stroke="black" d="M1100.22,-1560.05C1153.36,-1545.58 1217.33,-1528.15 1271.71,-1513.34"/>
<polygon fill="black" stroke="black" points="1272.67,-1516.71 1281.4,-1510.7 1270.83,-1509.95 1272.67,-1516.71"/>
</g>
<!-- n20 -->
<g id="node15" class="node">
<title>n20</title>
<ellipse fill="#98D2A5" stroke="black" cx="1785.92" cy="-1479.87" rx="185.94" ry="37.45"/>
<text text-anchor="middle" x="1785.92" y="-1491.17" font-family="Times,serif" font-size="14.00">habría</text>
<text text-anchor="middle" x="1785.92" y="-1476.17" font-family="Times,serif" font-size="14.00">vaic3s0 (rcmod)</text>
<text text-anchor="middle" x="1785.92" y="-1461.17" font-family="Times,serif" font-size="14.00">rep=no, t=no, r=no, m=yes, c=no</text>
</g>
<!-- n10&#45;&gt;n20 -->
<g id="edge14" class="edge">
<title>n10&#45;&gt;n20</title>
<path fill="none" stroke="black" d="M1157.81,-1572.59C1278.42,-1559.43 1445.08,-1539.77 1590.92,-1517.35 1608.44,-1514.65 1626.8,-1511.57 1644.95,-1508.36"/>
<polygon fill="black" stroke="black" points="1645.77,-1511.77 1655,-1506.56 1644.54,-1504.87 1645.77,-1511.77"/>
</g>
<!-- n13 -->
<g id="node16" class="node">
<title>n13</title>
<ellipse fill="#98D2A5" stroke="black" cx="990.92" cy="-1368.92" rx="190.84" ry="37.45"/>
<text text-anchor="middle" x="990.92" y="-1380.22" font-family="Times,serif" font-size="14.00">encefalopatía</text>
<text text-anchor="middle" x="990.92" y="-1365.22" font-family="Times,serif" font-size="14.00">ncfs000 (cpred)</text>
<text text-anchor="middle" x="990.92" y="-1350.22" font-family="Times,serif" font-size="14.00">rep=no, t=no, r=yes, m=yes, c=no</text>
</g>
<!-- n12&#45;&gt;n13 -->
<g id="edge15" class="edge">
<title>n12&#45;&gt;n13</title>
<path fill="none" stroke="black" d="M990.92,-1442.29C990.92,-1434.11 990.92,-1425.33 990.92,-1416.81"/>
<polygon fill="black" stroke="black" points="994.42,-1416.59 990.92,-1406.59 987.42,-1416.59 994.42,-1416.59"/>
</g>
<!-- n19 -->
<g id="node19" class="node">
<title>n19</title>
<ellipse fill="#98D2A5" stroke="black" cx="1590.92" cy="-1368.92" rx="185.94" ry="37.45"/>
<text text-anchor="middle" x="1590.92" y="-1380.22" font-family="Times,serif" font-size="14.00">ganado</text>
<text text-anchor="middle" x="1590.92" y="-1365.22" font-family="Times,serif" font-size="14.00">ncms000 (nsubj)</text>
<text text-anchor="middle" x="1590.92" y="-1350.22" font-family="Times,serif" font-size="14.00">rep=no, t=no, r=no, m=yes, c=no</text>
</g>
<!-- n20&#45;&gt;n19 -->
<g id="edge18" class="edge">
<title>n20&#45;&gt;n19</title>
<path fill="none" stroke="black" d="M1724.22,-1444.4C1704.29,-1433.26 1682.05,-1420.84 1661.53,-1409.37"/>
<polygon fill="black" stroke="black" points="1662.99,-1406.17 1652.55,-1404.35 1659.57,-1412.29 1662.99,-1406.17"/>
</g>
<!-- n21 -->
<g id="node20" class="node">
<title>n21</title>
<ellipse fill="#98D2A5" stroke="black" cx="1980.92" cy="-1368.92" rx="185.94" ry="37.45"/>
<text text-anchor="middle" x="1980.92" y="-1380.22" font-family="Times,serif" font-size="14.00">contraído</text>
<text text-anchor="middle" x="1980.92" y="-1365.22" font-family="Times,serif" font-size="14.00">vmp00sm (vobj)</text>
<text text-anchor="middle" x="1980.92" y="-1350.22" font-family="Times,serif" font-size="14.00">rep=no, t=no, r=no, m=yes, c=no</text>
</g>
<!-- n20&#45;&gt;n21 -->
<g id="edge19" class="edge">
<title>n20&#45;&gt;n21</title>
<path fill="none" stroke="black" d="M1847.62,-1444.4C1867.54,-1433.26 1889.79,-1420.84 1910.3,-1409.37"/>
<polygon fill="black" stroke="black" points="1912.26,-1412.29 1919.29,-1404.35 1908.85,-1406.17 1912.26,-1412.29"/>
</g>
<!-- n14 -->
<g id="node17" class="node">
<title>n14</title>
<ellipse fill="#98D2A5" stroke="black" cx="790.92" cy="-1257.96" rx="190.84" ry="37.45"/>
<text text-anchor="middle" x="790.92" y="-1269.26" font-family="Times,serif" font-size="14.00">espongiforme</text>
<text text-anchor="middle" x="790.92" y="-1254.26" font-family="Times,serif" font-size="14.00">ncms000 (amod)</text>
<text text-anchor="middle" x="790.92" y="-1239.26" font-family="Times,serif" font-size="14.00">rep=no, t=no, r=yes, m=yes, c=no</text>
</g>
<!-- n13&#45;&gt;n14 -->
<g id="edge16" class="edge">
<title>n13&#45;&gt;n14</title>
<path fill="none" stroke="black" d="M927.64,-1333.44C907.11,-1322.26 884.18,-1309.77 863.06,-1298.26"/>
<polygon fill="black" stroke="black" points="864.59,-1295.11 854.13,-1293.4 861.24,-1301.26 864.59,-1295.11"/>
</g>
<!-- n15 -->
<g id="node18" class="node">
<title>n15</title>
<ellipse fill="#98D2A5" stroke="black" cx="1190.92" cy="-1257.96" rx="190.84" ry="37.45"/>
<text text-anchor="middle" x="1190.92" y="-1269.26" font-family="Times,serif" font-size="14.00">bovina</text>
<text text-anchor="middle" x="1190.92" y="-1254.26" font-family="Times,serif" font-size="14.00">aq0fs0 (amod)</text>
<text text-anchor="middle" x="1190.92" y="-1239.26" font-family="Times,serif" font-size="14.00">rep=no, t=no, r=yes, m=yes, c=no</text>
</g>
<!-- n13&#45;&gt;n15 -->
<g id="edge17" class="edge">
<title>n13&#45;&gt;n15</title>
<path fill="none" stroke="black" d="M1054.2,-1333.44C1074.73,-1322.26 1097.65,-1309.77 1118.78,-1298.26"/>
<polygon fill="black" stroke="black" points="1120.6,-1301.26 1127.71,-1293.4 1117.25,-1295.11 1120.6,-1301.26"/>
</g>
<!-- n18 -->
<g id="node21" class="node">
<title>n18</title>
<ellipse fill="#98D2A5" stroke="black" cx="1590.92" cy="-1257.96" rx="185.94" ry="37.45"/>
<text text-anchor="middle" x="1590.92" y="-1269.26" font-family="Times,serif" font-size="14.00">el</text>
<text text-anchor="middle" x="1590.92" y="-1254.26" font-family="Times,serif" font-size="14.00">da0ms0 (det)</text>
<text text-anchor="middle" x="1590.92" y="-1239.26" font-family="Times,serif" font-size="14.00">rep=no, t=no, r=no, m=yes, c=no</text>
</g>
<!-- n19&#45;&gt;n18 -->
<g id="edge20" class="edge">
<title>n19&#45;&gt;n18</title>
<path fill="none" stroke="black" d="M1590.92,-1331.33C1590.92,-1323.16 1590.92,-1314.38 1590.92,-1305.85"/>
<polygon fill="black" stroke="black" points="1594.42,-1305.64 1590.92,-1295.64 1587.42,-1305.64 1594.42,-1305.64"/>
</g>
<!-- n17 -->
<g id="node22" class="node">
<title>n17</title>
<ellipse fill="#98D2A5" stroke="black" cx="1980.92" cy="-1257.96" rx="185.94" ry="37.45"/>
<text text-anchor="middle" x="1980.92" y="-1269.26" font-family="Times,serif" font-size="14.00">que</text>
<text text-anchor="middle" x="1980.92" y="-1254.26" font-family="Times,serif" font-size="14.00">pr0cn000 (dobj)</text>
<text text-anchor="middle" x="1980.92" y="-1239.26" font-family="Times,serif" font-size="14.00">rep=no, t=no, r=no, m=yes, c=no</text>
</g>
<!-- n21&#45;&gt;n17 -->
<g id="edge21" class="edge">
<title>n21&#45;&gt;n17</title>
<path fill="none" stroke="black" d="M1980.92,-1331.33C1980.92,-1323.16 1980.92,-1314.38 1980.92,-1305.85"/>
<polygon fill="black" stroke="black" points="1984.42,-1305.64 1980.92,-1295.64 1977.42,-1305.64 1984.42,-1305.64"/>
</g>
<!-- n22 -->
<g id="node23" class="node">
<title>n22</title>
<ellipse fill="#98D2A5" stroke="black" cx="2370.92" cy="-1257.96" rx="185.94" ry="37.45"/>
<text text-anchor="middle" x="2370.92" y="-1269.26" font-family="Times,serif" font-size="14.00">al</text>
<text text-anchor="middle" x="2370.92" y="-1254.26" font-family="Times,serif" font-size="14.00">spcms (prepv)</text>
<text text-anchor="middle" x="2370.92" y="-1239.26" font-family="Times,serif" font-size="14.00">rep=no, t=no, r=no, m=yes, c=no</text>
</g>
<!-- n21&#45;&gt;n22 -->
<g id="edge22" class="edge">
<title>n21&#45;&gt;n22</title>
<path fill="none" stroke="black" d="M2087.49,-1338.14C2139.29,-1323.67 2201.66,-1306.25 2254.69,-1291.43"/>
<polygon fill="black" stroke="black" points="2255.79,-1294.76 2264.48,-1288.7 2253.91,-1288.02 2255.79,-1294.76"/>
</g>
<!-- n23 -->
<g id="node24" class="node">
<title>n23</title>
<ellipse fill="#98D2A5" stroke="black" cx="2370.92" cy="-1147.01" rx="185.94" ry="37.45"/>
<text text-anchor="middle" x="2370.92" y="-1158.31" font-family="Times,serif" font-size="14.00">ingerir</text>
<text text-anchor="middle" x="2370.92" y="-1143.31" font-family="Times,serif" font-size="14.00">vmn0000 (pobj)</text>
<text text-anchor="middle" x="2370.92" y="-1128.31" font-family="Times,serif" font-size="14.00">rep=no, t=no, r=no, m=yes, c=no</text>
</g>
<!-- n22&#45;&gt;n23 -->
<g id="edge23" class="edge">
<title>n22&#45;&gt;n23</title>
<path fill="none" stroke="black" d="M2370.92,-1220.38C2370.92,-1212.21 2370.92,-1203.43 2370.92,-1194.9"/>
<polygon fill="black" stroke="black" points="2374.42,-1194.68 2370.92,-1184.68 2367.42,-1194.68 2374.42,-1194.68"/>
</g>
<!-- n24 -->
<g id="node25" class="node">
<title>n24</title>
<ellipse fill="#98D2A5" stroke="black" cx="2370.92" cy="-1036.06" rx="185.94" ry="37.45"/>
<text text-anchor="middle" x="2370.92" y="-1047.36" font-family="Times,serif" font-size="14.00">harinas</text>
<text text-anchor="middle" x="2370.92" y="-1032.36" font-family="Times,serif" font-size="14.00">ncfp000 (dobj)</text>
<text text-anchor="middle" x="2370.92" y="-1017.36" font-family="Times,serif" font-size="14.00">rep=no, t=no, r=no, m=yes, c=no</text>
</g>
<!-- n23&#45;&gt;n24 -->
<g id="edge24" class="edge">
<title>n23&#45;&gt;n24</title>
<path fill="none" stroke="black" d="M2370.92,-1109.43C2370.92,-1101.25 2370.92,-1092.47 2370.92,-1083.95"/>
<polygon fill="black" stroke="black" points="2374.42,-1083.73 2370.92,-1073.73 2367.42,-1083.73 2374.42,-1083.73"/>
</g>
<!-- n25 -->
<g id="node26" class="node">
<title>n25</title>
<ellipse fill="#98D2A5" stroke="black" cx="2370.92" cy="-925.1" rx="185.94" ry="37.45"/>
<text text-anchor="middle" x="2370.92" y="-936.4" font-family="Times,serif" font-size="14.00">elaboradas</text>
<text text-anchor="middle" x="2370.92" y="-921.4" font-family="Times,serif" font-size="14.00">aq0fpp (amod)</text>
<text text-anchor="middle" x="2370.92" y="-906.4" font-family="Times,serif" font-size="14.00">rep=no, t=no, r=no, m=yes, c=no</text>
</g>
<!-- n24&#45;&gt;n25 -->
<g id="edge25" class="edge">
<title>n24&#45;&gt;n25</title>
<path fill="none" stroke="black" d="M2370.92,-998.47C2370.92,-990.3 2370.92,-981.52 2370.92,-972.99"/>
<polygon fill="black" stroke="black" points="2374.42,-972.78 2370.92,-962.78 2367.42,-972.78 2374.42,-972.78"/>
</g>
<!-- n26 -->
<g id="node27" class="node">
<title>n26</title>
<ellipse fill="#98D2A5" stroke="black" cx="2370.92" cy="-814.15" rx="185.94" ry="37.45"/>
<text text-anchor="middle" x="2370.92" y="-825.45" font-family="Times,serif" font-size="14.00">con</text>
<text text-anchor="middle" x="2370.92" y="-810.45" font-family="Times,serif" font-size="14.00">sps00 (prepa)</text>
<text text-anchor="middle" x="2370.92" y="-795.45" font-family="Times,serif" font-size="14.00">rep=no, t=no, r=no, m=yes, c=no</text>
</g>
<!-- n25&#45;&gt;n26 -->
<g id="edge26" class="edge">
<title>n25&#45;&gt;n26</title>
<path fill="none" stroke="black" d="M2370.92,-887.52C2370.92,-879.35 2370.92,-870.57 2370.92,-862.04"/>
<polygon fill="black" stroke="black" points="2374.42,-861.82 2370.92,-851.82 2367.42,-861.82 2374.42,-861.82"/>
</g>
<!-- n27 -->
<g id="node28" class="node">
<title>n27</title>
<ellipse fill="#98D2A5" stroke="black" cx="2370.92" cy="-703.2" rx="185.94" ry="37.45"/>
<text text-anchor="middle" x="2370.92" y="-714.5" font-family="Times,serif" font-size="14.00">vísceras</text>
<text text-anchor="middle" x="2370.92" y="-699.5" font-family="Times,serif" font-size="14.00">ncfp000 (pobj)</text>
<text text-anchor="middle" x="2370.92" y="-684.5" font-family="Times,serif" font-size="14.00">rep=no, t=no, r=no, m=yes, c=no</text>
</g>
<!-- n26&#45;&gt;n27 -->
<g id="edge27" class="edge">
<title>n26&#45;&gt;n27</title>
<path fill="none" stroke="black" d="M2370.92,-776.57C2370.92,-768.39 2370.92,-759.61 2370.92,-751.09"/>
<polygon fill="black" stroke="black" points="2374.42,-750.87 2370.92,-740.87 2367.42,-750.87 2374.42,-750.87"/>
</g>
<!-- n28 -->
<g id="node29" class="node">
<title>n28</title>
<ellipse fill="#98D2A5" stroke="black" cx="2370.92" cy="-592.24" rx="185.94" ry="37.45"/>
<text text-anchor="middle" x="2370.92" y="-603.54" font-family="Times,serif" font-size="14.00">de</text>
<text text-anchor="middle" x="2370.92" y="-588.54" font-family="Times,serif" font-size="14.00">sps00 (prepn)</text>
<text text-anchor="middle" x="2370.92" y="-573.54" font-family="Times,serif" font-size="14.00">rep=no, t=no, r=no, m=yes, c=no</text>
</g>
<!-- n27&#45;&gt;n28 -->
<g id="edge28" class="edge">
<title>n27&#45;&gt;n28</title>
<path fill="none" stroke="black" d="M2370.92,-665.61C2370.92,-657.44 2370.92,-648.66 2370.92,-640.13"/>
<polygon fill="black" stroke="black" points="2374.42,-639.92 2370.92,-629.92 2367.42,-639.92 2374.42,-639.92"/>
</g>
<!-- n29 -->
<g id="node30" class="node">
<title>n29</title>
<ellipse fill="#98D2A5" stroke="black" cx="2370.92" cy="-481.29" rx="185.94" ry="37.45"/>
<text text-anchor="middle" x="2370.92" y="-492.59" font-family="Times,serif" font-size="14.00">corderos</text>
<text text-anchor="middle" x="2370.92" y="-477.59" font-family="Times,serif" font-size="14.00">ncmp000 (pobj)</text>
<text text-anchor="middle" x="2370.92" y="-462.59" font-family="Times,serif" font-size="14.00">rep=no, t=no, r=no, m=yes, c=no</text>
</g>
<!-- n28&#45;&gt;n29 -->
<g id="edge29" class="edge">
<title>n28&#45;&gt;n29</title>
<path fill="none" stroke="black" d="M2370.92,-554.66C2370.92,-546.49 2370.92,-537.71 2370.92,-529.18"/>
<polygon fill="black" stroke="black" points="2374.42,-528.96 2370.92,-518.96 2367.42,-528.96 2374.42,-528.96"/>
</g>
<!-- n30 -->
<g id="node31" class="node">
<title>n30</title>
<ellipse fill="#98D2A5" stroke="black" cx="2370.92" cy="-370.34" rx="185.94" ry="37.45"/>
<text text-anchor="middle" x="2370.92" y="-381.64" font-family="Times,serif" font-size="14.00">aquejados</text>
<text text-anchor="middle" x="2370.92" y="-366.64" font-family="Times,serif" font-size="14.00">aq0mpp (amod)</text>
<text text-anchor="middle" x="2370.92" y="-351.64" font-family="Times,serif" font-size="14.00">rep=no, t=no, r=no, m=yes, c=no</text>
</g>
<!-- n29&#45;&gt;n30 -->
<g id="edge30" class="edge">
<title>n29&#45;&gt;n30</title>
<path fill="none" stroke="black" d="M2370.92,-443.71C2370.92,-435.53 2370.92,-426.75 2370.92,-418.23"/>
<polygon fill="black" stroke="black" points="2374.42,-418.01 2370.92,-408.01 2367.42,-418.01 2374.42,-418.01"/>
</g>
<!-- n31 -->
<g id="node32" class="node">
<title>n31</title>
<ellipse fill="#98D2A5" stroke="black" cx="2370.92" cy="-259.38" rx="185.94" ry="37.45"/>
<text text-anchor="middle" x="2370.92" y="-270.68" font-family="Times,serif" font-size="14.00">de</text>
<text text-anchor="middle" x="2370.92" y="-255.68" font-family="Times,serif" font-size="14.00">sps00 (oobj)</text>
<text text-anchor="middle" x="2370.92" y="-240.68" font-family="Times,serif" font-size="14.00">rep=no, t=no, r=no, m=yes, c=no</text>
</g>
<!-- n30&#45;&gt;n31 -->
<g id="edge31" class="edge">
<title>n30&#45;&gt;n31</title>
<path fill="none" stroke="black" d="M2370.92,-332.75C2370.92,-324.58 2370.92,-315.8 2370.92,-307.27"/>
<polygon fill="black" stroke="black" points="2374.42,-307.06 2370.92,-297.06 2367.42,-307.06 2374.42,-307.06"/>
</g>
<!-- n33 -->
<g id="node33" class="node">
<title>n33</title>
<ellipse fill="#98D2A5" stroke="black" cx="2370.92" cy="-148.43" rx="185.94" ry="37.45"/>
<text text-anchor="middle" x="2370.92" y="-159.73" font-family="Times,serif" font-size="14.00">enfermedad</text>
<text text-anchor="middle" x="2370.92" y="-144.73" font-family="Times,serif" font-size="14.00">ncfs000 (pobj)</text>
<text text-anchor="middle" x="2370.92" y="-129.73" font-family="Times,serif" font-size="14.00">rep=no, t=no, r=no, m=yes, c=no</text>
</g>
<!-- n31&#45;&gt;n33 -->
<g id="edge32" class="edge">
<title>n31&#45;&gt;n33</title>
<path fill="none" stroke="black" d="M2370.92,-221.8C2370.92,-213.63 2370.92,-204.85 2370.92,-196.32"/>
<polygon fill="black" stroke="black" points="2374.42,-196.1 2370.92,-186.1 2367.42,-196.1 2374.42,-196.1"/>
</g>
<!-- n32 -->
<g id="node34" class="node">
<title>n32</title>
<ellipse fill="#98D2A5" stroke="black" cx="2175.92" cy="-37.48" rx="185.94" ry="37.45"/>
<text text-anchor="middle" x="2175.92" y="-48.78" font-family="Times,serif" font-size="14.00">una</text>
<text text-anchor="middle" x="2175.92" y="-33.78" font-family="Times,serif" font-size="14.00">di0fs0 (det)</text>
<text text-anchor="middle" x="2175.92" y="-18.78" font-family="Times,serif" font-size="14.00">rep=no, t=no, r=no, m=yes, c=no</text>
</g>
<!-- n33&#45;&gt;n32 -->
<g id="edge33" class="edge">
<title>n33&#45;&gt;n32</title>
<path fill="none" stroke="black" d="M2309.22,-112.96C2289.29,-101.82 2267.05,-89.4 2246.53,-77.93"/>
<polygon fill="black" stroke="black" points="2247.99,-74.74 2237.55,-72.91 2244.57,-80.85 2247.99,-74.74"/>
</g>
<!-- n34 -->
<g id="node35" class="node">
<title>n34</title>
<ellipse fill="#98D2A5" stroke="black" cx="2565.92" cy="-37.48" rx="185.94" ry="37.45"/>
<text text-anchor="middle" x="2565.92" y="-48.78" font-family="Times,serif" font-size="14.00">cerebral</text>
<text text-anchor="middle" x="2565.92" y="-33.78" font-family="Times,serif" font-size="14.00">aq0cs0 (amod)</text>
<text text-anchor="middle" x="2565.92" y="-18.78" font-family="Times,serif" font-size="14.00">rep=no, t=no, r=no, m=yes, c=no</text>
</g>
<!-- n33&#45;&gt;n34 -->
<g id="edge34" class="edge">
<title>n33&#45;&gt;n34</title>
<path fill="none" stroke="black" d="M2432.62,-112.96C2452.54,-101.82 2474.79,-89.4 2495.3,-77.93"/>
<polygon fill="black" stroke="black" points="2497.26,-80.85 2504.29,-72.91 2493.85,-74.74 2497.26,-80.85"/>
</g>
</g>
</svg>
