<?xml version="1.0" encoding="UTF-8" standalone="no"?>
<!DOCTYPE svg PUBLIC "-//W3C//DTD SVG 1.1//EN"
 "http://www.w3.org/Graphics/SVG/1.1/DTD/svg11.dtd">
<!-- Generated by graphviz version 2.43.0 (0)
 -->
<!-- Title: tree Pages: 1 -->
<svg width="3724pt" height="749pt"
 viewBox="0.00 0.00 3723.65 748.67" xmlns="http://www.w3.org/2000/svg" xmlns:xlink="http://www.w3.org/1999/xlink">
<g id="graph0" class="graph" transform="scale(1 1) rotate(0) translate(4 744.67)">
<title>tree</title>
<polygon fill="white" stroke="transparent" points="-4,4 -4,-744.67 3719.65,-744.67 3719.65,4 -4,4"/>
<!-- n10 -->
<g id="node1" class="node">
<title>n10</title>
<ellipse fill="#98D2A5" stroke="black" cx="2385.92" cy="-703.2" rx="190.84" ry="37.45"/>
<text text-anchor="middle" x="2385.92" y="-714.5" font-family="Times,serif" font-size="14.00">defendió</text>
<text text-anchor="middle" x="2385.92" y="-699.5" font-family="Times,serif" font-size="14.00">vmis3s0 (root)</text>
<text text-anchor="middle" x="2385.92" y="-684.5" font-family="Times,serif" font-size="14.00">rep=no, t=no, r=yes, m=yes, c=no</text>
</g>
<!-- n2 -->
<g id="node2" class="node">
<title>n2</title>
<ellipse fill="#98D2A5" stroke="black" cx="1190.92" cy="-592.24" rx="190.84" ry="37.45"/>
<text text-anchor="middle" x="1190.92" y="-603.54" font-family="Times,serif" font-size="14.00">presidente</text>
<text text-anchor="middle" x="1190.92" y="-588.54" font-family="Times,serif" font-size="14.00">ncms000 (nsubj)</text>
<text text-anchor="middle" x="1190.92" y="-573.54" font-family="Times,serif" font-size="14.00">rep=no, t=yes, r=no, m=yes, c=no</text>
</g>
<!-- n10&#45;&gt;n2 -->
<g id="edge1" class="edge">
<title>n10&#45;&gt;n2</title>
<path fill="none" stroke="black" d="M2214.7,-686.59C1991.02,-666.19 1601.02,-630.63 1372.39,-609.79"/>
<polygon fill="black" stroke="black" points="1372.58,-606.29 1362.3,-608.87 1371.94,-613.26 1372.58,-606.29"/>
</g>
<!-- n11 -->
<g id="node3" class="node">
<title>n11</title>
<ellipse fill="#98D2A5" stroke="black" cx="2190.92" cy="-592.24" rx="190.84" ry="37.45"/>
<text text-anchor="middle" x="2190.92" y="-603.54" font-family="Times,serif" font-size="14.00">al</text>
<text text-anchor="middle" x="2190.92" y="-588.54" font-family="Times,serif" font-size="14.00">spcms (dobj)</text>
<text text-anchor="middle" x="2190.92" y="-573.54" font-family="Times,serif" font-size="14.00">rep=no, t=no, r=yes, m=yes, c=no</text>
</g>
<!-- n10&#45;&gt;n11 -->
<g id="edge2" class="edge">
<title>n10&#45;&gt;n11</title>
<path fill="none" stroke="black" d="M2324.22,-667.72C2304.39,-656.64 2282.27,-644.28 2261.83,-632.87"/>
<polygon fill="black" stroke="black" points="2263.32,-629.69 2252.89,-627.87 2259.91,-635.8 2263.32,-629.69"/>
</g>
<!-- n13 -->
<g id="node4" class="node">
<title>n13</title>
<ellipse fill="none" stroke="black" cx="2581.92" cy="-592.24" rx="181.95" ry="37.45"/>
<text text-anchor="middle" x="2581.92" y="-603.54" font-family="Times,serif" font-size="14.00">ante</text>
<text text-anchor="middle" x="2581.92" y="-588.54" font-family="Times,serif" font-size="14.00">sps00 (prepv)</text>
<text text-anchor="middle" x="2581.92" y="-573.54" font-family="Times,serif" font-size="14.00">rep=no, t=no, r=no, m=no, c=no</text>
</g>
<!-- n10&#45;&gt;n13 -->
<g id="edge3" class="edge">
<title>n10&#45;&gt;n13</title>
<path fill="none" stroke="black" d="M2447.93,-667.72C2468.05,-656.54 2490.52,-644.05 2511.22,-632.54"/>
<polygon fill="black" stroke="black" points="2512.93,-635.6 2519.97,-627.68 2509.53,-629.48 2512.93,-635.6"/>
</g>
<!-- n24 -->
<g id="node5" class="node">
<title>n24</title>
<ellipse fill="none" stroke="black" cx="2962.92" cy="-592.24" rx="181.95" ry="37.45"/>
<text text-anchor="middle" x="2962.92" y="-603.54" font-family="Times,serif" font-size="14.00">.</text>
<text text-anchor="middle" x="2962.92" y="-588.54" font-family="Times,serif" font-size="14.00">fp (punct)</text>
<text text-anchor="middle" x="2962.92" y="-573.54" font-family="Times,serif" font-size="14.00">rep=no, t=no, r=no, m=no, c=no</text>
</g>
<!-- n10&#45;&gt;n24 -->
<g id="edge4" class="edge">
<title>n10&#45;&gt;n24</title>
<path fill="none" stroke="black" d="M2522.06,-676.86C2596.24,-663.01 2689.64,-645.51 2772.92,-629.72 2788.99,-626.67 2805.82,-623.47 2822.54,-620.27"/>
<polygon fill="black" stroke="black" points="2823.2,-623.71 2832.36,-618.39 2821.88,-616.83 2823.2,-623.71"/>
</g>
<!-- n1 -->
<g id="node6" class="node">
<title>n1</title>
<ellipse fill="#98D2A5" stroke="black" cx="190.92" cy="-481.29" rx="190.84" ry="37.45"/>
<text text-anchor="middle" x="190.92" y="-492.59" font-family="Times,serif" font-size="14.00">El</text>
<text text-anchor="middle" x="190.92" y="-477.59" font-family="Times,serif" font-size="14.00">da0ms0 (det)</text>
<text text-anchor="middle" x="190.92" y="-462.59" font-family="Times,serif" font-size="14.00">rep=no, t=yes, r=no, m=yes, c=no</text>
</g>
<!-- n2&#45;&gt;n1 -->
<g id="edge5" class="edge">
<title>n2&#45;&gt;n1</title>
<path fill="none" stroke="black" d="M1010.88,-579.59C848.4,-567.96 603.03,-547.66 390.92,-518.77 372.38,-516.24 352.94,-513.2 333.78,-509.96"/>
<polygon fill="black" stroke="black" points="334.23,-506.49 323.78,-508.25 333.05,-513.39 334.23,-506.49"/>
</g>
<!-- n3 -->
<g id="node7" class="node">
<title>n3</title>
<ellipse fill="#98D2A5" stroke="black" cx="590.92" cy="-481.29" rx="190.84" ry="37.45"/>
<text text-anchor="middle" x="590.92" y="-492.59" font-family="Times,serif" font-size="14.00">de</text>
<text text-anchor="middle" x="590.92" y="-477.59" font-family="Times,serif" font-size="14.00">sps00 (prepn)</text>
<text text-anchor="middle" x="590.92" y="-462.59" font-family="Times,serif" font-size="14.00">rep=no, t=yes, r=no, m=yes, c=no</text>
</g>
<!-- n2&#45;&gt;n3 -->
<g id="edge6" class="edge">
<title>n2&#45;&gt;n3</title>
<path fill="none" stroke="black" d="M1053,-566.29C975.9,-552.34 878.06,-534.61 790.92,-518.77 773.85,-515.66 755.97,-512.41 738.21,-509.17"/>
<polygon fill="black" stroke="black" points="738.82,-505.73 728.36,-507.38 737.57,-512.61 738.82,-505.73"/>
</g>
<!-- n6 -->
<g id="node8" class="node">
<title>n6</title>
<ellipse fill="#98D2A5" stroke="black" cx="990.92" cy="-481.29" rx="190.84" ry="37.45"/>
<text text-anchor="middle" x="990.92" y="-492.59" font-family="Times,serif" font-size="14.00">,</text>
<text text-anchor="middle" x="990.92" y="-477.59" font-family="Times,serif" font-size="14.00">fc (punct)</text>
<text text-anchor="middle" x="990.92" y="-462.59" font-family="Times,serif" font-size="14.00">rep=no, t=yes, r=no, m=yes, c=no</text>
</g>
<!-- n2&#45;&gt;n6 -->
<g id="edge7" class="edge">
<title>n2&#45;&gt;n6</title>
<path fill="none" stroke="black" d="M1127.64,-556.77C1107.11,-545.59 1084.18,-533.1 1063.06,-521.59"/>
<polygon fill="black" stroke="black" points="1064.59,-518.44 1054.13,-516.73 1061.24,-524.58 1064.59,-518.44"/>
</g>
<!-- n7 -->
<g id="node9" class="node">
<title>n7</title>
<ellipse fill="#98D2A5" stroke="black" cx="1390.92" cy="-481.29" rx="190.84" ry="37.45"/>
<text text-anchor="middle" x="1390.92" y="-492.59" font-family="Times,serif" font-size="14.00">Carlos</text>
<text text-anchor="middle" x="1390.92" y="-477.59" font-family="Times,serif" font-size="14.00">np0000l (appos)</text>
<text text-anchor="middle" x="1390.92" y="-462.59" font-family="Times,serif" font-size="14.00">rep=no, t=yes, r=no, m=yes, c=no</text>
</g>
<!-- n2&#45;&gt;n7 -->
<g id="edge8" class="edge">
<title>n2&#45;&gt;n7</title>
<path fill="none" stroke="black" d="M1254.2,-556.77C1274.73,-545.59 1297.65,-533.1 1318.78,-521.59"/>
<polygon fill="black" stroke="black" points="1320.6,-524.58 1327.71,-516.73 1317.25,-518.44 1320.6,-524.58"/>
</g>
<!-- n9 -->
<g id="node10" class="node">
<title>n9</title>
<ellipse fill="#98D2A5" stroke="black" cx="1790.92" cy="-481.29" rx="190.84" ry="37.45"/>
<text text-anchor="middle" x="1790.92" y="-492.59" font-family="Times,serif" font-size="14.00">,</text>
<text text-anchor="middle" x="1790.92" y="-477.59" font-family="Times,serif" font-size="14.00">fc (punct)</text>
<text text-anchor="middle" x="1790.92" y="-462.59" font-family="Times,serif" font-size="14.00">rep=no, t=yes, r=no, m=yes, c=no</text>
</g>
<!-- n2&#45;&gt;n9 -->
<g id="edge9" class="edge">
<title>n2&#45;&gt;n9</title>
<path fill="none" stroke="black" d="M1328.84,-566.29C1405.94,-552.34 1503.78,-534.61 1590.92,-518.77 1607.99,-515.66 1625.87,-512.41 1643.63,-509.17"/>
<polygon fill="black" stroke="black" points="1644.27,-512.61 1653.48,-507.38 1643.02,-505.73 1644.27,-512.61"/>
</g>
<!-- n12 -->
<g id="node14" class="node">
<title>n12</title>
<ellipse fill="#98D2A5" stroke="black" cx="2190.92" cy="-481.29" rx="190.84" ry="37.45"/>
<text text-anchor="middle" x="2190.92" y="-492.59" font-family="Times,serif" font-size="14.00">PNV</text>
<text text-anchor="middle" x="2190.92" y="-477.59" font-family="Times,serif" font-size="14.00">np00000 (pobj)</text>
<text text-anchor="middle" x="2190.92" y="-462.59" font-family="Times,serif" font-size="14.00">rep=no, t=no, r=yes, m=yes, c=no</text>
</g>
<!-- n11&#45;&gt;n12 -->
<g id="edge13" class="edge">
<title>n11&#45;&gt;n12</title>
<path fill="none" stroke="black" d="M2190.92,-554.66C2190.92,-546.49 2190.92,-537.71 2190.92,-529.18"/>
<polygon fill="black" stroke="black" points="2194.42,-528.96 2190.92,-518.96 2187.42,-528.96 2194.42,-528.96"/>
</g>
<!-- n15 -->
<g id="node15" class="node">
<title>n15</title>
<ellipse fill="none" stroke="black" cx="2581.92" cy="-481.29" rx="181.95" ry="37.45"/>
<text text-anchor="middle" x="2581.92" y="-492.59" font-family="Times,serif" font-size="14.00">reproches</text>
<text text-anchor="middle" x="2581.92" y="-477.59" font-family="Times,serif" font-size="14.00">ncmp000 (pobj)</text>
<text text-anchor="middle" x="2581.92" y="-462.59" font-family="Times,serif" font-size="14.00">rep=no, t=no, r=no, m=no, c=no</text>
</g>
<!-- n13&#45;&gt;n15 -->
<g id="edge14" class="edge">
<title>n13&#45;&gt;n15</title>
<path fill="none" stroke="black" d="M2581.92,-554.66C2581.92,-546.49 2581.92,-537.71 2581.92,-529.18"/>
<polygon fill="black" stroke="black" points="2585.42,-528.96 2581.92,-518.96 2578.42,-528.96 2585.42,-528.96"/>
</g>
<!-- n4 -->
<g id="node11" class="node">
<title>n4</title>
<ellipse fill="#98D2A5" stroke="black" cx="590.92" cy="-370.34" rx="190.84" ry="37.45"/>
<text text-anchor="middle" x="590.92" y="-381.64" font-family="Times,serif" font-size="14.00">Eusko</text>
<text text-anchor="middle" x="590.92" y="-366.64" font-family="Times,serif" font-size="14.00">np0000l (pobj)</text>
<text text-anchor="middle" x="590.92" y="-351.64" font-family="Times,serif" font-size="14.00">rep=no, t=yes, r=no, m=yes, c=no</text>
</g>
<!-- n3&#45;&gt;n4 -->
<g id="edge10" class="edge">
<title>n3&#45;&gt;n4</title>
<path fill="none" stroke="black" d="M590.92,-443.71C590.92,-435.53 590.92,-426.75 590.92,-418.23"/>
<polygon fill="black" stroke="black" points="594.42,-418.01 590.92,-408.01 587.42,-418.01 594.42,-418.01"/>
</g>
<!-- n8 -->
<g id="node13" class="node">
<title>n8</title>
<ellipse fill="#98D2A5" stroke="black" cx="1390.92" cy="-370.34" rx="190.84" ry="37.45"/>
<text text-anchor="middle" x="1390.92" y="-381.64" font-family="Times,serif" font-size="14.00">Garaikoetxea</text>
<text text-anchor="middle" x="1390.92" y="-366.64" font-family="Times,serif" font-size="14.00">np0000l (appos)</text>
<text text-anchor="middle" x="1390.92" y="-351.64" font-family="Times,serif" font-size="14.00">rep=no, t=yes, r=no, m=yes, c=no</text>
</g>
<!-- n7&#45;&gt;n8 -->
<g id="edge12" class="edge">
<title>n7&#45;&gt;n8</title>
<path fill="none" stroke="black" d="M1390.92,-443.71C1390.92,-435.53 1390.92,-426.75 1390.92,-418.23"/>
<polygon fill="black" stroke="black" points="1394.42,-418.01 1390.92,-408.01 1387.42,-418.01 1394.42,-418.01"/>
</g>
<!-- n5 -->
<g id="node12" class="node">
<title>n5</title>
<ellipse fill="#98D2A5" stroke="black" cx="590.92" cy="-259.38" rx="190.84" ry="37.45"/>
<text text-anchor="middle" x="590.92" y="-270.68" font-family="Times,serif" font-size="14.00">Alkartasuna</text>
<text text-anchor="middle" x="590.92" y="-255.68" font-family="Times,serif" font-size="14.00">np0000l (appos)</text>
<text text-anchor="middle" x="590.92" y="-240.68" font-family="Times,serif" font-size="14.00">rep=no, t=yes, r=no, m=yes, c=no</text>
</g>
<!-- n4&#45;&gt;n5 -->
<g id="edge11" class="edge">
<title>n4&#45;&gt;n5</title>
<path fill="none" stroke="black" d="M590.92,-332.75C590.92,-324.58 590.92,-315.8 590.92,-307.27"/>
<polygon fill="black" stroke="black" points="594.42,-307.06 590.92,-297.06 587.42,-307.06 594.42,-307.06"/>
</g>
<!-- n14 -->
<g id="node16" class="node">
<title>n14</title>
<ellipse fill="none" stroke="black" cx="2390.92" cy="-370.34" rx="181.95" ry="37.45"/>
<text text-anchor="middle" x="2390.92" y="-381.64" font-family="Times,serif" font-size="14.00">los</text>
<text text-anchor="middle" x="2390.92" y="-366.64" font-family="Times,serif" font-size="14.00">da0mp0 (det)</text>
<text text-anchor="middle" x="2390.92" y="-351.64" font-family="Times,serif" font-size="14.00">rep=no, t=no, r=no, m=no, c=no</text>
</g>
<!-- n15&#45;&gt;n14 -->
<g id="edge15" class="edge">
<title>n15&#45;&gt;n14</title>
<path fill="none" stroke="black" d="M2521.49,-445.82C2501.97,-434.68 2480.18,-422.26 2460.09,-410.79"/>
<polygon fill="black" stroke="black" points="2461.71,-407.69 2451.29,-405.77 2458.24,-413.77 2461.71,-407.69"/>
</g>
<!-- n18 -->
<g id="node17" class="node">
<title>n18</title>
<ellipse fill="none" stroke="black" cx="2771.92" cy="-370.34" rx="181.95" ry="37.45"/>
<text text-anchor="middle" x="2771.92" y="-381.64" font-family="Times,serif" font-size="14.00">hizo</text>
<text text-anchor="middle" x="2771.92" y="-366.64" font-family="Times,serif" font-size="14.00">vmis3s0 (rcmod)</text>
<text text-anchor="middle" x="2771.92" y="-351.64" font-family="Times,serif" font-size="14.00">rep=no, t=no, r=no, m=no, c=no</text>
</g>
<!-- n15&#45;&gt;n18 -->
<g id="edge16" class="edge">
<title>n15&#45;&gt;n18</title>
<path fill="none" stroke="black" d="M2642.04,-445.82C2661.45,-434.68 2683.12,-422.26 2703.11,-410.79"/>
<polygon fill="black" stroke="black" points="2704.93,-413.78 2711.87,-405.77 2701.45,-407.71 2704.93,-413.78"/>
</g>
<!-- n16 -->
<g id="node18" class="node">
<title>n16</title>
<ellipse fill="none" stroke="black" cx="2199.92" cy="-259.38" rx="181.95" ry="37.45"/>
<text text-anchor="middle" x="2199.92" y="-270.68" font-family="Times,serif" font-size="14.00">que</text>
<text text-anchor="middle" x="2199.92" y="-255.68" font-family="Times,serif" font-size="14.00">pr0cn000 (dobj)</text>
<text text-anchor="middle" x="2199.92" y="-240.68" font-family="Times,serif" font-size="14.00">rep=no, t=no, r=no, m=no, c=no</text>
</g>
<!-- n18&#45;&gt;n16 -->
<g id="edge17" class="edge">
<title>n18&#45;&gt;n16</title>
<path fill="none" stroke="black" d="M2641.36,-344.2C2621.45,-340.38 2601.14,-336.51 2581.92,-332.86 2496.62,-316.68 2475.22,-313.04 2389.92,-296.86 2373.85,-293.81 2357.02,-290.6 2340.3,-287.4"/>
<polygon fill="black" stroke="black" points="2340.95,-283.97 2330.47,-285.52 2339.64,-290.84 2340.95,-283.97"/>
</g>
<!-- n17 -->
<g id="node19" class="node">
<title>n17</title>
<ellipse fill="none" stroke="black" cx="2580.92" cy="-259.38" rx="181.95" ry="37.45"/>
<text text-anchor="middle" x="2580.92" y="-270.68" font-family="Times,serif" font-size="14.00">le</text>
<text text-anchor="middle" x="2580.92" y="-255.68" font-family="Times,serif" font-size="14.00">pp3csd00 (iobj)</text>
<text text-anchor="middle" x="2580.92" y="-240.68" font-family="Times,serif" font-size="14.00">rep=no, t=no, r=no, m=no, c=no</text>
</g>
<!-- n18&#45;&gt;n17 -->
<g id="edge18" class="edge">
<title>n18&#45;&gt;n17</title>
<path fill="none" stroke="black" d="M2711.49,-334.86C2691.97,-323.73 2670.18,-311.3 2650.09,-299.84"/>
<polygon fill="black" stroke="black" points="2651.71,-296.73 2641.29,-294.82 2648.24,-302.81 2651.71,-296.73"/>
</g>
<!-- n19 -->
<g id="node20" class="node">
<title>n19</title>
<ellipse fill="none" stroke="black" cx="2961.92" cy="-259.38" rx="181.95" ry="37.45"/>
<text text-anchor="middle" x="2961.92" y="-270.68" font-family="Times,serif" font-size="14.00">ETA</text>
<text text-anchor="middle" x="2961.92" y="-255.68" font-family="Times,serif" font-size="14.00">np00000 (nsubj)</text>
<text text-anchor="middle" x="2961.92" y="-240.68" font-family="Times,serif" font-size="14.00">rep=no, t=no, r=no, m=no, c=no</text>
</g>
<!-- n18&#45;&gt;n19 -->
<g id="edge19" class="edge">
<title>n18&#45;&gt;n19</title>
<path fill="none" stroke="black" d="M2832.04,-334.86C2851.45,-323.73 2873.12,-311.3 2893.11,-299.84"/>
<polygon fill="black" stroke="black" points="2894.93,-302.83 2901.87,-294.82 2891.45,-296.76 2894.93,-302.83"/>
</g>
<!-- n20 -->
<g id="node21" class="node">
<title>n20</title>
<ellipse fill="none" stroke="black" cx="3342.92" cy="-259.38" rx="181.95" ry="37.45"/>
<text text-anchor="middle" x="3342.92" y="-270.68" font-family="Times,serif" font-size="14.00">en</text>
<text text-anchor="middle" x="3342.92" y="-255.68" font-family="Times,serif" font-size="14.00">sps00 (prepv)</text>
<text text-anchor="middle" x="3342.92" y="-240.68" font-family="Times,serif" font-size="14.00">rep=no, t=no, r=no, m=no, c=no</text>
</g>
<!-- n18&#45;&gt;n20 -->
<g id="edge20" class="edge">
<title>n18&#45;&gt;n20</title>
<path fill="none" stroke="black" d="M2903.29,-344.4C2976.73,-330.45 3069.92,-312.72 3152.92,-296.86 3168.98,-293.79 3185.81,-290.57 3202.53,-287.36"/>
<polygon fill="black" stroke="black" points="3203.19,-290.8 3212.35,-285.48 3201.87,-283.93 3203.19,-290.8"/>
</g>
<!-- n23 -->
<g id="node22" class="node">
<title>n23</title>
<ellipse fill="none" stroke="black" cx="3342.92" cy="-148.43" rx="181.95" ry="37.45"/>
<text text-anchor="middle" x="3342.92" y="-159.73" font-family="Times,serif" font-size="14.00">comunicado</text>
<text text-anchor="middle" x="3342.92" y="-144.73" font-family="Times,serif" font-size="14.00">ncms000 (pobj)</text>
<text text-anchor="middle" x="3342.92" y="-129.73" font-family="Times,serif" font-size="14.00">rep=no, t=no, r=no, m=no, c=no</text>
</g>
<!-- n20&#45;&gt;n23 -->
<g id="edge21" class="edge">
<title>n20&#45;&gt;n23</title>
<path fill="none" stroke="black" d="M3342.92,-221.8C3342.92,-213.63 3342.92,-204.85 3342.92,-196.32"/>
<polygon fill="black" stroke="black" points="3346.42,-196.1 3342.92,-186.1 3339.42,-196.1 3346.42,-196.1"/>
</g>
<!-- n21 -->
<g id="node23" class="node">
<title>n21</title>
<ellipse fill="none" stroke="black" cx="3152.92" cy="-37.48" rx="181.95" ry="37.45"/>
<text text-anchor="middle" x="3152.92" y="-48.78" font-family="Times,serif" font-size="14.00">su</text>
<text text-anchor="middle" x="3152.92" y="-33.78" font-family="Times,serif" font-size="14.00">dp3cs0 (poss)</text>
<text text-anchor="middle" x="3152.92" y="-18.78" font-family="Times,serif" font-size="14.00">rep=no, t=no, r=no, m=no, c=no</text>
</g>
<!-- n23&#45;&gt;n21 -->
<g id="edge22" class="edge">
<title>n23&#45;&gt;n21</title>
<path fill="none" stroke="black" d="M3282.8,-112.96C3263.39,-101.82 3241.72,-89.4 3221.72,-77.93"/>
<polygon fill="black" stroke="black" points="3223.39,-74.85 3212.97,-72.91 3219.9,-80.92 3223.39,-74.85"/>
</g>
<!-- n22 -->
<g id="node24" class="node">
<title>n22</title>
<ellipse fill="none" stroke="black" cx="3533.92" cy="-37.48" rx="181.95" ry="37.45"/>
<text text-anchor="middle" x="3533.92" y="-48.78" font-family="Times,serif" font-size="14.00">último</text>
<text text-anchor="middle" x="3533.92" y="-33.78" font-family="Times,serif" font-size="14.00">ao0ms0 (amod)</text>
<text text-anchor="middle" x="3533.92" y="-18.78" font-family="Times,serif" font-size="14.00">rep=no, t=no, r=no, m=no, c=no</text>
</g>
<!-- n23&#45;&gt;n22 -->
<g id="edge23" class="edge">
<title>n23&#45;&gt;n22</title>
<path fill="none" stroke="black" d="M3403.35,-112.96C3422.87,-101.82 3444.65,-89.4 3464.75,-77.93"/>
<polygon fill="black" stroke="black" points="3466.6,-80.91 3473.55,-72.91 3463.13,-74.83 3466.6,-80.91"/>
</g>
</g>
</svg>
