<?xml version="1.0" encoding="UTF-8" standalone="no"?>
<!DOCTYPE svg PUBLIC "-//W3C//DTD SVG 1.1//EN"
 "http://www.w3.org/Graphics/SVG/1.1/DTD/svg11.dtd">
<!-- Generated by graphviz version 2.43.0 (0)
 -->
<!-- Title: tree Pages: 1 -->
<svg width="1552pt" height="860pt"
 viewBox="0.00 0.00 1551.89 859.63" xmlns="http://www.w3.org/2000/svg" xmlns:xlink="http://www.w3.org/1999/xlink">
<g id="graph0" class="graph" transform="scale(1 1) rotate(0) translate(4 855.63)">
<title>tree</title>
<polygon fill="white" stroke="transparent" points="-4,4 -4,-855.63 1547.89,-855.63 1547.89,4 -4,4"/>
<!-- n2 -->
<g id="node1" class="node">
<title>n2</title>
<ellipse fill="none" stroke="black" cx="761.97" cy="-814.15" rx="181.95" ry="37.45"/>
<text text-anchor="middle" x="761.97" y="-825.45" font-family="Times,serif" font-size="14.00">inquirió</text>
<text text-anchor="middle" x="761.97" y="-810.45" font-family="Times,serif" font-size="14.00">vmis3s0 (root)</text>
<text text-anchor="middle" x="761.97" y="-795.45" font-family="Times,serif" font-size="14.00">rep=no, t=no, r=no, m=no, c=no</text>
</g>
<!-- n1 -->
<g id="node2" class="node">
<title>n1</title>
<ellipse fill="none" stroke="black" cx="185.97" cy="-703.2" rx="185.94" ry="37.45"/>
<text text-anchor="middle" x="185.97" y="-714.5" font-family="Times,serif" font-size="14.00">Atutxa</text>
<text text-anchor="middle" x="185.97" y="-699.5" font-family="Times,serif" font-size="14.00">np00000 (nsubj)</text>
<text text-anchor="middle" x="185.97" y="-684.5" font-family="Times,serif" font-size="14.00">rep=yes, t=no, r=no, m=no, c=no</text>
</g>
<!-- n2&#45;&gt;n1 -->
<g id="edge1" class="edge">
<title>n2&#45;&gt;n1</title>
<path fill="none" stroke="black" d="M630.18,-788.22C540.31,-771.22 421.33,-748.72 329.13,-731.28"/>
<polygon fill="black" stroke="black" points="329.64,-727.81 319.16,-729.39 328.33,-734.69 329.64,-727.81"/>
</g>
<!-- n3 -->
<g id="node3" class="node">
<title>n3</title>
<ellipse fill="none" stroke="black" cx="571.97" cy="-703.2" rx="181.95" ry="37.45"/>
<text text-anchor="middle" x="571.97" y="-714.5" font-family="Times,serif" font-size="14.00">al</text>
<text text-anchor="middle" x="571.97" y="-699.5" font-family="Times,serif" font-size="14.00">spcms (iobj)</text>
<text text-anchor="middle" x="571.97" y="-684.5" font-family="Times,serif" font-size="14.00">rep=no, t=no, r=no, m=no, c=no</text>
</g>
<!-- n2&#45;&gt;n3 -->
<g id="edge2" class="edge">
<title>n2&#45;&gt;n3</title>
<path fill="none" stroke="black" d="M701.85,-778.68C682.44,-767.54 660.77,-755.12 640.77,-743.65"/>
<polygon fill="black" stroke="black" points="642.44,-740.57 632.02,-738.63 638.95,-746.64 642.44,-740.57"/>
</g>
<!-- n5 -->
<g id="node4" class="node">
<title>n5</title>
<ellipse fill="none" stroke="black" cx="952.97" cy="-703.2" rx="181.95" ry="37.45"/>
<text text-anchor="middle" x="952.97" y="-714.5" font-family="Times,serif" font-size="14.00">si</text>
<text text-anchor="middle" x="952.97" y="-699.5" font-family="Times,serif" font-size="14.00">cs (dobj)</text>
<text text-anchor="middle" x="952.97" y="-684.5" font-family="Times,serif" font-size="14.00">rep=no, t=no, r=no, m=no, c=no</text>
</g>
<!-- n2&#45;&gt;n5 -->
<g id="edge3" class="edge">
<title>n2&#45;&gt;n5</title>
<path fill="none" stroke="black" d="M822.4,-778.68C841.92,-767.54 863.7,-755.12 883.8,-743.65"/>
<polygon fill="black" stroke="black" points="885.65,-746.63 892.6,-738.63 882.18,-740.55 885.65,-746.63"/>
</g>
<!-- n15 -->
<g id="node5" class="node">
<title>n15</title>
<ellipse fill="none" stroke="black" cx="1333.97" cy="-703.2" rx="181.95" ry="37.45"/>
<text text-anchor="middle" x="1333.97" y="-714.5" font-family="Times,serif" font-size="14.00">.</text>
<text text-anchor="middle" x="1333.97" y="-699.5" font-family="Times,serif" font-size="14.00">fp (punct)</text>
<text text-anchor="middle" x="1333.97" y="-684.5" font-family="Times,serif" font-size="14.00">rep=no, t=no, r=no, m=no, c=no</text>
</g>
<!-- n2&#45;&gt;n15 -->
<g id="edge4" class="edge">
<title>n2&#45;&gt;n15</title>
<path fill="none" stroke="black" d="M893.69,-788.23C967.32,-774.28 1060.76,-756.56 1143.97,-740.67 1160.03,-737.61 1176.86,-734.39 1193.58,-731.18"/>
<polygon fill="black" stroke="black" points="1194.24,-734.62 1203.41,-729.3 1192.93,-727.75 1194.24,-734.62"/>
</g>
<!-- n4 -->
<g id="node6" class="node">
<title>n4</title>
<ellipse fill="none" stroke="black" cx="566.97" cy="-592.24" rx="181.95" ry="37.45"/>
<text text-anchor="middle" x="566.97" y="-603.54" font-family="Times,serif" font-size="14.00">ministro</text>
<text text-anchor="middle" x="566.97" y="-588.54" font-family="Times,serif" font-size="14.00">ncms000 (pobj)</text>
<text text-anchor="middle" x="566.97" y="-573.54" font-family="Times,serif" font-size="14.00">rep=no, t=no, r=no, m=no, c=no</text>
</g>
<!-- n3&#45;&gt;n4 -->
<g id="edge5" class="edge">
<title>n3&#45;&gt;n4</title>
<path fill="none" stroke="black" d="M570.29,-665.61C569.92,-657.44 569.51,-648.66 569.12,-640.13"/>
<polygon fill="black" stroke="black" points="572.61,-639.74 568.65,-629.92 565.61,-640.07 572.61,-639.74"/>
</g>
<!-- n8 -->
<g id="node7" class="node">
<title>n8</title>
<ellipse fill="#98D2A5" stroke="black" cx="957.97" cy="-592.24" rx="190.84" ry="37.45"/>
<text text-anchor="middle" x="957.97" y="-603.54" font-family="Times,serif" font-size="14.00">estaba</text>
<text text-anchor="middle" x="957.97" y="-588.54" font-family="Times,serif" font-size="14.00">vmii3s0 (cobj)</text>
<text text-anchor="middle" x="957.97" y="-573.54" font-family="Times,serif" font-size="14.00">rep=no, t=no, r=yes, m=yes, c=no</text>
</g>
<!-- n5&#45;&gt;n8 -->
<g id="edge6" class="edge">
<title>n5&#45;&gt;n8</title>
<path fill="none" stroke="black" d="M954.65,-665.61C955.02,-657.44 955.43,-648.66 955.82,-640.13"/>
<polygon fill="black" stroke="black" points="959.32,-640.07 956.29,-629.92 952.33,-639.74 959.32,-640.07"/>
</g>
<!-- n7 -->
<g id="node8" class="node">
<title>n7</title>
<ellipse fill="#98D2A5" stroke="black" cx="562.97" cy="-481.29" rx="190.84" ry="37.45"/>
<text text-anchor="middle" x="562.97" y="-492.59" font-family="Times,serif" font-size="14.00">información</text>
<text text-anchor="middle" x="562.97" y="-477.59" font-family="Times,serif" font-size="14.00">ncfs000 (nsubj)</text>
<text text-anchor="middle" x="562.97" y="-462.59" font-family="Times,serif" font-size="14.00">rep=no, t=yes, r=no, m=yes, c=no</text>
</g>
<!-- n8&#45;&gt;n7 -->
<g id="edge7" class="edge">
<title>n8&#45;&gt;n7</title>
<path fill="none" stroke="black" d="M849.51,-561.33C797.37,-546.95 734.76,-529.68 681.38,-514.95"/>
<polygon fill="black" stroke="black" points="682.1,-511.52 671.53,-512.23 680.24,-518.27 682.1,-511.52"/>
</g>
<!-- n9 -->
<g id="node9" class="node">
<title>n9</title>
<ellipse fill="#98D2A5" stroke="black" cx="957.97" cy="-481.29" rx="185.94" ry="37.45"/>
<text text-anchor="middle" x="957.97" y="-492.59" font-family="Times,serif" font-size="14.00">ya</text>
<text text-anchor="middle" x="957.97" y="-477.59" font-family="Times,serif" font-size="14.00">rg (advmod)</text>
<text text-anchor="middle" x="957.97" y="-462.59" font-family="Times,serif" font-size="14.00">rep=no, t=no, r=no, m=yes, c=no</text>
</g>
<!-- n8&#45;&gt;n9 -->
<g id="edge8" class="edge">
<title>n8&#45;&gt;n9</title>
<path fill="none" stroke="black" d="M957.97,-554.66C957.97,-546.49 957.97,-537.71 957.97,-529.18"/>
<polygon fill="black" stroke="black" points="961.47,-528.96 957.97,-518.96 954.47,-528.96 961.47,-528.96"/>
</g>
<!-- n10 -->
<g id="node10" class="node">
<title>n10</title>
<ellipse fill="#98D2A5" stroke="black" cx="1352.97" cy="-481.29" rx="190.84" ry="37.45"/>
<text text-anchor="middle" x="1352.97" y="-492.59" font-family="Times,serif" font-size="14.00">en</text>
<text text-anchor="middle" x="1352.97" y="-477.59" font-family="Times,serif" font-size="14.00">sps00 (prepv)</text>
<text text-anchor="middle" x="1352.97" y="-462.59" font-family="Times,serif" font-size="14.00">rep=no, t=no, r=yes, m=yes, c=no</text>
</g>
<!-- n8&#45;&gt;n10 -->
<g id="edge9" class="edge">
<title>n8&#45;&gt;n10</title>
<path fill="none" stroke="black" d="M1066.43,-561.33C1118.57,-546.95 1181.18,-529.68 1234.56,-514.95"/>
<polygon fill="black" stroke="black" points="1235.7,-518.27 1244.41,-512.23 1233.84,-511.52 1235.7,-518.27"/>
</g>
<!-- n6 -->
<g id="node11" class="node">
<title>n6</title>
<ellipse fill="#98D2A5" stroke="black" cx="562.97" cy="-370.34" rx="190.84" ry="37.45"/>
<text text-anchor="middle" x="562.97" y="-381.64" font-family="Times,serif" font-size="14.00">esa</text>
<text text-anchor="middle" x="562.97" y="-366.64" font-family="Times,serif" font-size="14.00">dd0fs0 (det)</text>
<text text-anchor="middle" x="562.97" y="-351.64" font-family="Times,serif" font-size="14.00">rep=no, t=yes, r=no, m=yes, c=no</text>
</g>
<!-- n7&#45;&gt;n6 -->
<g id="edge10" class="edge">
<title>n7&#45;&gt;n6</title>
<path fill="none" stroke="black" d="M562.97,-443.71C562.97,-435.53 562.97,-426.75 562.97,-418.23"/>
<polygon fill="black" stroke="black" points="566.47,-418.01 562.97,-408.01 559.47,-418.01 566.47,-418.01"/>
</g>
<!-- n11 -->
<g id="node12" class="node">
<title>n11</title>
<ellipse fill="#98D2A5" stroke="black" cx="1352.97" cy="-370.34" rx="190.84" ry="37.45"/>
<text text-anchor="middle" x="1352.97" y="-381.64" font-family="Times,serif" font-size="14.00">poder</text>
<text text-anchor="middle" x="1352.97" y="-366.64" font-family="Times,serif" font-size="14.00">ncms000 (pobj)</text>
<text text-anchor="middle" x="1352.97" y="-351.64" font-family="Times,serif" font-size="14.00">rep=no, t=no, r=yes, m=yes, c=no</text>
</g>
<!-- n10&#45;&gt;n11 -->
<g id="edge11" class="edge">
<title>n10&#45;&gt;n11</title>
<path fill="none" stroke="black" d="M1352.97,-443.71C1352.97,-435.53 1352.97,-426.75 1352.97,-418.23"/>
<polygon fill="black" stroke="black" points="1356.47,-418.01 1352.97,-408.01 1349.47,-418.01 1356.47,-418.01"/>
</g>
<!-- n12 -->
<g id="node13" class="node">
<title>n12</title>
<ellipse fill="#98D2A5" stroke="black" cx="1352.97" cy="-259.38" rx="190.84" ry="37.45"/>
<text text-anchor="middle" x="1352.97" y="-270.68" font-family="Times,serif" font-size="14.00">de</text>
<text text-anchor="middle" x="1352.97" y="-255.68" font-family="Times,serif" font-size="14.00">sps00 (prepn)</text>
<text text-anchor="middle" x="1352.97" y="-240.68" font-family="Times,serif" font-size="14.00">rep=no, t=no, r=yes, m=yes, c=no</text>
</g>
<!-- n11&#45;&gt;n12 -->
<g id="edge12" class="edge">
<title>n11&#45;&gt;n12</title>
<path fill="none" stroke="black" d="M1352.97,-332.75C1352.97,-324.58 1352.97,-315.8 1352.97,-307.27"/>
<polygon fill="black" stroke="black" points="1356.47,-307.06 1352.97,-297.06 1349.47,-307.06 1356.47,-307.06"/>
</g>
<!-- n14 -->
<g id="node14" class="node">
<title>n14</title>
<ellipse fill="#98D2A5" stroke="black" cx="1352.97" cy="-148.43" rx="190.84" ry="37.45"/>
<text text-anchor="middle" x="1352.97" y="-159.73" font-family="Times,serif" font-size="14.00">Ertzaintza</text>
<text text-anchor="middle" x="1352.97" y="-144.73" font-family="Times,serif" font-size="14.00">np00000 (pobj)</text>
<text text-anchor="middle" x="1352.97" y="-129.73" font-family="Times,serif" font-size="14.00">rep=no, t=no, r=yes, m=yes, c=no</text>
</g>
<!-- n12&#45;&gt;n14 -->
<g id="edge13" class="edge">
<title>n12&#45;&gt;n14</title>
<path fill="none" stroke="black" d="M1352.97,-221.8C1352.97,-213.63 1352.97,-204.85 1352.97,-196.32"/>
<polygon fill="black" stroke="black" points="1356.47,-196.1 1352.97,-186.1 1349.47,-196.1 1356.47,-196.1"/>
</g>
<!-- n13 -->
<g id="node15" class="node">
<title>n13</title>
<ellipse fill="#98D2A5" stroke="black" cx="1352.97" cy="-37.48" rx="190.84" ry="37.45"/>
<text text-anchor="middle" x="1352.97" y="-48.78" font-family="Times,serif" font-size="14.00">la</text>
<text text-anchor="middle" x="1352.97" y="-33.78" font-family="Times,serif" font-size="14.00">da0fs0 (det)</text>
<text text-anchor="middle" x="1352.97" y="-18.78" font-family="Times,serif" font-size="14.00">rep=no, t=no, r=yes, m=yes, c=no</text>
</g>
<!-- n14&#45;&gt;n13 -->
<g id="edge14" class="edge">
<title>n14&#45;&gt;n13</title>
<path fill="none" stroke="black" d="M1352.97,-110.85C1352.97,-102.67 1352.97,-93.89 1352.97,-85.37"/>
<polygon fill="black" stroke="black" points="1356.47,-85.15 1352.97,-75.15 1349.47,-85.15 1356.47,-85.15"/>
</g>
</g>
</svg>
