<?xml version="1.0" encoding="UTF-8" standalone="no"?>
<!DOCTYPE svg PUBLIC "-//W3C//DTD SVG 1.1//EN"
 "http://www.w3.org/Graphics/SVG/1.1/DTD/svg11.dtd">
<!-- Generated by graphviz version 2.43.0 (0)
 -->
<!-- Title: tree Pages: 1 -->
<svg width="4510pt" height="971pt"
 viewBox="0.00 0.00 4509.89 970.58" xmlns="http://www.w3.org/2000/svg" xmlns:xlink="http://www.w3.org/1999/xlink">
<g id="graph0" class="graph" transform="scale(1 1) rotate(0) translate(4 966.58)">
<title>tree</title>
<polygon fill="white" stroke="transparent" points="-4,4 -4,-966.58 4505.89,-966.58 4505.89,4 -4,4"/>
<!-- n22 -->
<g id="node1" class="node">
<title>n22</title>
<ellipse fill="#98D2A5" stroke="black" cx="2552.92" cy="-925.1" rx="185.94" ry="37.45"/>
<text text-anchor="middle" x="2552.92" y="-936.4" font-family="Times,serif" font-size="14.00">y</text>
<text text-anchor="middle" x="2552.92" y="-921.4" font-family="Times,serif" font-size="14.00">cc (root)</text>
<text text-anchor="middle" x="2552.92" y="-906.4" font-family="Times,serif" font-size="14.00">rep=no, t=no, r=no, m=yes, c=no</text>
</g>
<!-- n3 -->
<g id="node2" class="node">
<title>n3</title>
<ellipse fill="#98D2A5" stroke="black" cx="790.92" cy="-814.15" rx="190.84" ry="37.45"/>
<text text-anchor="middle" x="790.92" y="-825.45" font-family="Times,serif" font-size="14.00">calificaron</text>
<text text-anchor="middle" x="790.92" y="-810.45" font-family="Times,serif" font-size="14.00">vmis3p0 (coord)</text>
<text text-anchor="middle" x="790.92" y="-795.45" font-family="Times,serif" font-size="14.00">rep=no, t=no, r=yes, m=yes, c=no</text>
</g>
<!-- n22&#45;&gt;n3 -->
<g id="edge1" class="edge">
<title>n22&#45;&gt;n3</title>
<path fill="none" stroke="black" d="M2376.31,-913.18C2043.28,-892.59 1325.14,-848.18 981.59,-826.94"/>
<polygon fill="black" stroke="black" points="981.73,-823.44 971.53,-826.32 981.3,-830.43 981.73,-823.44"/>
</g>
<!-- n21 -->
<g id="node3" class="node">
<title>n21</title>
<ellipse fill="none" stroke="black" cx="1964.92" cy="-814.15" rx="181.95" ry="37.45"/>
<text text-anchor="middle" x="1964.92" y="-825.45" font-family="Times,serif" font-size="14.00">,</text>
<text text-anchor="middle" x="1964.92" y="-810.45" font-family="Times,serif" font-size="14.00">fc (punct)</text>
<text text-anchor="middle" x="1964.92" y="-795.45" font-family="Times,serif" font-size="14.00">rep=no, t=no, r=no, m=no, c=no</text>
</g>
<!-- n22&#45;&gt;n21 -->
<g id="edge2" class="edge">
<title>n22&#45;&gt;n21</title>
<path fill="none" stroke="black" d="M2416.44,-899.47C2339.84,-885.57 2242.53,-867.8 2155.92,-851.63 2139.62,-848.58 2122.55,-845.36 2105.59,-842.15"/>
<polygon fill="black" stroke="black" points="2106.11,-838.69 2095.63,-840.26 2104.81,-845.56 2106.11,-838.69"/>
</g>
<!-- n25 -->
<g id="node4" class="node">
<title>n25</title>
<ellipse fill="#98D2A5" stroke="black" cx="2355.92" cy="-814.15" rx="190.84" ry="37.45"/>
<text text-anchor="middle" x="2355.92" y="-825.45" font-family="Times,serif" font-size="14.00">volvió</text>
<text text-anchor="middle" x="2355.92" y="-810.45" font-family="Times,serif" font-size="14.00">vmis3s0 (conj)</text>
<text text-anchor="middle" x="2355.92" y="-795.45" font-family="Times,serif" font-size="14.00">rep=no, t=no, r=no, m=yes, c=yes</text>
</g>
<!-- n22&#45;&gt;n25 -->
<g id="edge3" class="edge">
<title>n22&#45;&gt;n25</title>
<path fill="none" stroke="black" d="M2490.59,-889.63C2470.37,-878.45 2447.79,-865.96 2426.98,-854.45"/>
<polygon fill="black" stroke="black" points="2428.63,-851.36 2418.18,-849.59 2425.24,-857.49 2428.63,-851.36"/>
</g>
<!-- n30 -->
<g id="node5" class="node">
<title>n30</title>
<ellipse fill="#98D2A5" stroke="black" cx="2750.92" cy="-814.15" rx="185.94" ry="37.45"/>
<text text-anchor="middle" x="2750.92" y="-825.45" font-family="Times,serif" font-size="14.00">y</text>
<text text-anchor="middle" x="2750.92" y="-810.45" font-family="Times,serif" font-size="14.00">cc (coord_fixed)</text>
<text text-anchor="middle" x="2750.92" y="-795.45" font-family="Times,serif" font-size="14.00">rep=no, t=no, r=no, m=yes, c=no</text>
</g>
<!-- n22&#45;&gt;n30 -->
<g id="edge4" class="edge">
<title>n22&#45;&gt;n30</title>
<path fill="none" stroke="black" d="M2615.3,-889.78C2635.73,-878.54 2658.58,-865.96 2679.62,-854.38"/>
<polygon fill="black" stroke="black" points="2681.44,-857.38 2688.52,-849.49 2678.07,-851.24 2681.44,-857.38"/>
</g>
<!-- n32 -->
<g id="node6" class="node">
<title>n32</title>
<ellipse fill="#98D2A5" stroke="black" cx="3145.92" cy="-814.15" rx="190.84" ry="37.45"/>
<text text-anchor="middle" x="3145.92" y="-825.45" font-family="Times,serif" font-size="14.00">acusó</text>
<text text-anchor="middle" x="3145.92" y="-810.45" font-family="Times,serif" font-size="14.00">vmis3s0 (conj)</text>
<text text-anchor="middle" x="3145.92" y="-795.45" font-family="Times,serif" font-size="14.00">rep=no, t=no, r=no, m=yes, c=yes</text>
</g>
<!-- n22&#45;&gt;n32 -->
<g id="edge5" class="edge">
<title>n22&#45;&gt;n32</title>
<path fill="none" stroke="black" d="M2687.85,-899.31C2780.61,-882.27 2903.73,-859.65 2998.97,-842.15"/>
<polygon fill="black" stroke="black" points="2999.77,-845.56 3008.98,-840.31 2998.51,-838.68 2999.77,-845.56"/>
</g>
<!-- n41 -->
<g id="node7" class="node">
<title>n41</title>
<ellipse fill="none" stroke="black" cx="3536.92" cy="-814.15" rx="181.95" ry="37.45"/>
<text text-anchor="middle" x="3536.92" y="-825.45" font-family="Times,serif" font-size="14.00">.</text>
<text text-anchor="middle" x="3536.92" y="-810.45" font-family="Times,serif" font-size="14.00">fp (punct)</text>
<text text-anchor="middle" x="3536.92" y="-795.45" font-family="Times,serif" font-size="14.00">rep=no, t=no, r=no, m=no, c=no</text>
</g>
<!-- n22&#45;&gt;n41 -->
<g id="edge6" class="edge">
<title>n22&#45;&gt;n41</title>
<path fill="none" stroke="black" d="M2729.08,-912.95C2890.16,-901.58 3134.76,-881.37 3345.92,-851.63 3363.55,-849.14 3382.02,-846.14 3400.24,-842.92"/>
<polygon fill="black" stroke="black" points="3401.1,-846.33 3410.32,-841.12 3399.86,-839.44 3401.1,-846.33"/>
</g>
<!-- n2 -->
<g id="node8" class="node">
<title>n2</title>
<ellipse fill="#98D2A5" stroke="black" cx="190.92" cy="-703.2" rx="190.84" ry="37.45"/>
<text text-anchor="middle" x="190.92" y="-714.5" font-family="Times,serif" font-size="14.00">socialistas</text>
<text text-anchor="middle" x="190.92" y="-699.5" font-family="Times,serif" font-size="14.00">nccp000 (nsubj)</text>
<text text-anchor="middle" x="190.92" y="-684.5" font-family="Times,serif" font-size="14.00">rep=no, t=yes, r=no, m=yes, c=no</text>
</g>
<!-- n3&#45;&gt;n2 -->
<g id="edge7" class="edge">
<title>n3&#45;&gt;n2</title>
<path fill="none" stroke="black" d="M653,-788.2C575.9,-774.24 478.06,-756.51 390.92,-740.67 373.85,-737.57 355.97,-734.31 338.21,-731.08"/>
<polygon fill="black" stroke="black" points="338.82,-727.63 328.36,-729.28 337.57,-734.52 338.82,-727.63"/>
</g>
<!-- n4 -->
<g id="node9" class="node">
<title>n4</title>
<ellipse fill="#98D2A5" stroke="black" cx="590.92" cy="-703.2" rx="190.84" ry="37.45"/>
<text text-anchor="middle" x="590.92" y="-714.5" font-family="Times,serif" font-size="14.00">de</text>
<text text-anchor="middle" x="590.92" y="-699.5" font-family="Times,serif" font-size="14.00">sps00 (prepv)</text>
<text text-anchor="middle" x="590.92" y="-684.5" font-family="Times,serif" font-size="14.00">rep=no, t=no, r=yes, m=yes, c=no</text>
</g>
<!-- n3&#45;&gt;n4 -->
<g id="edge8" class="edge">
<title>n3&#45;&gt;n4</title>
<path fill="none" stroke="black" d="M727.64,-778.68C707.11,-767.49 684.18,-755 663.06,-743.5"/>
<polygon fill="black" stroke="black" points="664.59,-740.34 654.13,-738.63 661.24,-746.49 664.59,-740.34"/>
</g>
<!-- n9 -->
<g id="node10" class="node">
<title>n9</title>
<ellipse fill="#98D2A5" stroke="black" cx="990.92" cy="-703.2" rx="190.84" ry="37.45"/>
<text text-anchor="middle" x="990.92" y="-714.5" font-family="Times,serif" font-size="14.00">falta</text>
<text text-anchor="middle" x="990.92" y="-699.5" font-family="Times,serif" font-size="14.00">ncfs000 (dobj)</text>
<text text-anchor="middle" x="990.92" y="-684.5" font-family="Times,serif" font-size="14.00">rep=no, t=no, r=yes, m=yes, c=no</text>
</g>
<!-- n3&#45;&gt;n9 -->
<g id="edge9" class="edge">
<title>n3&#45;&gt;n9</title>
<path fill="none" stroke="black" d="M854.2,-778.68C874.73,-767.49 897.65,-755 918.78,-743.5"/>
<polygon fill="black" stroke="black" points="920.6,-746.49 927.71,-738.63 917.25,-740.34 920.6,-746.49"/>
</g>
<!-- n23 -->
<g id="node27" class="node">
<title>n23</title>
<ellipse fill="#98D2A5" stroke="black" cx="1585.92" cy="-703.2" rx="185.94" ry="37.45"/>
<text text-anchor="middle" x="1585.92" y="-714.5" font-family="Times,serif" font-size="14.00">Jaime</text>
<text text-anchor="middle" x="1585.92" y="-699.5" font-family="Times,serif" font-size="14.00">ncms000 (nsubj)</text>
<text text-anchor="middle" x="1585.92" y="-684.5" font-family="Times,serif" font-size="14.00">rep=no, t=no, r=no, m=yes, c=no</text>
</g>
<!-- n25&#45;&gt;n23 -->
<g id="edge26" class="edge">
<title>n25&#45;&gt;n23</title>
<path fill="none" stroke="black" d="M2222.77,-787.24C2200.5,-783.38 2177.59,-779.68 2155.92,-776.67 1990.08,-753.63 1946.71,-764.09 1780.92,-740.67 1762.92,-738.13 1744.06,-735.09 1725.46,-731.86"/>
<polygon fill="black" stroke="black" points="1725.91,-728.38 1715.46,-730.1 1724.7,-735.28 1725.91,-728.38"/>
</g>
<!-- n26 -->
<g id="node28" class="node">
<title>n26</title>
<ellipse fill="#98D2A5" stroke="black" cx="1975.92" cy="-703.2" rx="185.94" ry="37.45"/>
<text text-anchor="middle" x="1975.92" y="-714.5" font-family="Times,serif" font-size="14.00">a</text>
<text text-anchor="middle" x="1975.92" y="-699.5" font-family="Times,serif" font-size="14.00">sps00 (prepv)</text>
<text text-anchor="middle" x="1975.92" y="-684.5" font-family="Times,serif" font-size="14.00">rep=no, t=no, r=no, m=yes, c=no</text>
</g>
<!-- n25&#45;&gt;n26 -->
<g id="edge27" class="edge">
<title>n25&#45;&gt;n26</title>
<path fill="none" stroke="black" d="M2250.32,-782.87C2200.59,-768.62 2141.19,-751.58 2090.39,-737.02"/>
<polygon fill="black" stroke="black" points="2091.26,-733.62 2080.68,-734.23 2089.33,-740.35 2091.26,-733.62"/>
</g>
<!-- n27 -->
<g id="node29" class="node">
<title>n27</title>
<ellipse fill="#98D2A5" stroke="black" cx="2365.92" cy="-703.2" rx="185.94" ry="37.45"/>
<text text-anchor="middle" x="2365.92" y="-714.5" font-family="Times,serif" font-size="14.00">atacar</text>
<text text-anchor="middle" x="2365.92" y="-699.5" font-family="Times,serif" font-size="14.00">vmn0000 (dobj)</text>
<text text-anchor="middle" x="2365.92" y="-684.5" font-family="Times,serif" font-size="14.00">rep=no, t=no, r=no, m=yes, c=no</text>
</g>
<!-- n25&#45;&gt;n27 -->
<g id="edge28" class="edge">
<title>n25&#45;&gt;n27</title>
<path fill="none" stroke="black" d="M2359.28,-776.57C2360.03,-768.39 2360.83,-759.61 2361.62,-751.09"/>
<polygon fill="black" stroke="black" points="2365.12,-751.15 2362.55,-740.87 2358.15,-750.51 2365.12,-751.15"/>
</g>
<!-- n28 -->
<g id="node30" class="node">
<title>n28</title>
<ellipse fill="#98D2A5" stroke="black" cx="2755.92" cy="-703.2" rx="185.94" ry="37.45"/>
<text text-anchor="middle" x="2755.92" y="-714.5" font-family="Times,serif" font-size="14.00">al</text>
<text text-anchor="middle" x="2755.92" y="-699.5" font-family="Times,serif" font-size="14.00">spcms (dobj)</text>
<text text-anchor="middle" x="2755.92" y="-684.5" font-family="Times,serif" font-size="14.00">rep=no, t=no, r=no, m=yes, c=no</text>
</g>
<!-- n25&#45;&gt;n28 -->
<g id="edge29" class="edge">
<title>n25&#45;&gt;n28</title>
<path fill="none" stroke="black" d="M2465.22,-783.38C2518.68,-768.82 2583.11,-751.27 2637.72,-736.39"/>
<polygon fill="black" stroke="black" points="2638.71,-739.75 2647.44,-733.74 2636.87,-732.99 2638.71,-739.75"/>
</g>
<!-- n31 -->
<g id="node33" class="node">
<title>n31</title>
<ellipse fill="#98D2A5" stroke="black" cx="3145.92" cy="-703.2" rx="185.94" ry="37.45"/>
<text text-anchor="middle" x="3145.92" y="-714.5" font-family="Times,serif" font-size="14.00">lo</text>
<text text-anchor="middle" x="3145.92" y="-699.5" font-family="Times,serif" font-size="14.00">pp3msa00 (dobj)</text>
<text text-anchor="middle" x="3145.92" y="-684.5" font-family="Times,serif" font-size="14.00">rep=no, t=no, r=no, m=yes, c=no</text>
</g>
<!-- n32&#45;&gt;n31 -->
<g id="edge32" class="edge">
<title>n32&#45;&gt;n31</title>
<path fill="none" stroke="black" d="M3145.92,-776.57C3145.92,-768.39 3145.92,-759.61 3145.92,-751.09"/>
<polygon fill="black" stroke="black" points="3149.42,-750.87 3145.92,-740.87 3142.42,-750.87 3149.42,-750.87"/>
</g>
<!-- n33 -->
<g id="node34" class="node">
<title>n33</title>
<ellipse fill="#98D2A5" stroke="black" cx="3535.92" cy="-703.2" rx="185.94" ry="37.45"/>
<text text-anchor="middle" x="3535.92" y="-714.5" font-family="Times,serif" font-size="14.00">de</text>
<text text-anchor="middle" x="3535.92" y="-699.5" font-family="Times,serif" font-size="14.00">sps00 (oobj)</text>
<text text-anchor="middle" x="3535.92" y="-684.5" font-family="Times,serif" font-size="14.00">rep=no, t=no, r=no, m=yes, c=no</text>
</g>
<!-- n32&#45;&gt;n33 -->
<g id="edge33" class="edge">
<title>n32&#45;&gt;n33</title>
<path fill="none" stroke="black" d="M3253.52,-783.09C3305.1,-768.68 3366.96,-751.4 3419.62,-736.69"/>
<polygon fill="black" stroke="black" points="3420.65,-740.03 3429.34,-733.97 3418.77,-733.29 3420.65,-740.03"/>
</g>
<!-- n1 -->
<g id="node11" class="node">
<title>n1</title>
<ellipse fill="#98D2A5" stroke="black" cx="190.92" cy="-592.24" rx="190.84" ry="37.45"/>
<text text-anchor="middle" x="190.92" y="-603.54" font-family="Times,serif" font-size="14.00">Los</text>
<text text-anchor="middle" x="190.92" y="-588.54" font-family="Times,serif" font-size="14.00">da0mp0 (det)</text>
<text text-anchor="middle" x="190.92" y="-573.54" font-family="Times,serif" font-size="14.00">rep=no, t=yes, r=no, m=yes, c=no</text>
</g>
<!-- n2&#45;&gt;n1 -->
<g id="edge10" class="edge">
<title>n2&#45;&gt;n1</title>
<path fill="none" stroke="black" d="M190.92,-665.61C190.92,-657.44 190.92,-648.66 190.92,-640.13"/>
<polygon fill="black" stroke="black" points="194.42,-639.92 190.92,-629.92 187.42,-639.92 194.42,-639.92"/>
</g>
<!-- n6 -->
<g id="node12" class="node">
<title>n6</title>
<ellipse fill="#98D2A5" stroke="black" cx="590.92" cy="-592.24" rx="190.84" ry="37.45"/>
<text text-anchor="middle" x="590.92" y="-603.54" font-family="Times,serif" font-size="14.00">escándalo</text>
<text text-anchor="middle" x="590.92" y="-588.54" font-family="Times,serif" font-size="14.00">ncms000 (pobj)</text>
<text text-anchor="middle" x="590.92" y="-573.54" font-family="Times,serif" font-size="14.00">rep=no, t=no, r=yes, m=yes, c=no</text>
</g>
<!-- n4&#45;&gt;n6 -->
<g id="edge11" class="edge">
<title>n4&#45;&gt;n6</title>
<path fill="none" stroke="black" d="M590.92,-665.61C590.92,-657.44 590.92,-648.66 590.92,-640.13"/>
<polygon fill="black" stroke="black" points="594.42,-639.92 590.92,-629.92 587.42,-639.92 594.42,-639.92"/>
</g>
<!-- n8 -->
<g id="node15" class="node">
<title>n8</title>
<ellipse fill="#98D2A5" stroke="black" cx="990.92" cy="-592.24" rx="190.84" ry="37.45"/>
<text text-anchor="middle" x="990.92" y="-603.54" font-family="Times,serif" font-size="14.00">la</text>
<text text-anchor="middle" x="990.92" y="-588.54" font-family="Times,serif" font-size="14.00">da0fs0 (det)</text>
<text text-anchor="middle" x="990.92" y="-573.54" font-family="Times,serif" font-size="14.00">rep=no, t=no, r=yes, m=yes, c=no</text>
</g>
<!-- n9&#45;&gt;n8 -->
<g id="edge14" class="edge">
<title>n9&#45;&gt;n8</title>
<path fill="none" stroke="black" d="M990.92,-665.61C990.92,-657.44 990.92,-648.66 990.92,-640.13"/>
<polygon fill="black" stroke="black" points="994.42,-639.92 990.92,-629.92 987.42,-639.92 994.42,-639.92"/>
</g>
<!-- n10 -->
<g id="node16" class="node">
<title>n10</title>
<ellipse fill="#98D2A5" stroke="black" cx="1390.92" cy="-592.24" rx="190.84" ry="37.45"/>
<text text-anchor="middle" x="1390.92" y="-603.54" font-family="Times,serif" font-size="14.00">de</text>
<text text-anchor="middle" x="1390.92" y="-588.54" font-family="Times,serif" font-size="14.00">sps00 (prepn)</text>
<text text-anchor="middle" x="1390.92" y="-573.54" font-family="Times,serif" font-size="14.00">rep=no, t=no, r=yes, m=yes, c=no</text>
</g>
<!-- n9&#45;&gt;n10 -->
<g id="edge15" class="edge">
<title>n9&#45;&gt;n10</title>
<path fill="none" stroke="black" d="M1100.22,-672.42C1153.36,-657.95 1217.33,-640.53 1271.71,-625.71"/>
<polygon fill="black" stroke="black" points="1272.67,-629.08 1281.4,-623.07 1270.83,-622.32 1272.67,-629.08"/>
</g>
<!-- n5 -->
<g id="node13" class="node">
<title>n5</title>
<ellipse fill="#98D2A5" stroke="black" cx="390.92" cy="-481.29" rx="190.84" ry="37.45"/>
<text text-anchor="middle" x="390.92" y="-492.59" font-family="Times,serif" font-size="14.00">&quot;</text>
<text text-anchor="middle" x="390.92" y="-477.59" font-family="Times,serif" font-size="14.00">fe (punct)</text>
<text text-anchor="middle" x="390.92" y="-462.59" font-family="Times,serif" font-size="14.00">rep=no, t=no, r=yes, m=yes, c=no</text>
</g>
<!-- n6&#45;&gt;n5 -->
<g id="edge12" class="edge">
<title>n6&#45;&gt;n5</title>
<path fill="none" stroke="black" d="M527.64,-556.77C507.11,-545.59 484.18,-533.1 463.06,-521.59"/>
<polygon fill="black" stroke="black" points="464.59,-518.44 454.13,-516.73 461.24,-524.58 464.59,-518.44"/>
</g>
<!-- n7 -->
<g id="node14" class="node">
<title>n7</title>
<ellipse fill="#98D2A5" stroke="black" cx="790.92" cy="-481.29" rx="190.84" ry="37.45"/>
<text text-anchor="middle" x="790.92" y="-492.59" font-family="Times,serif" font-size="14.00">&quot;</text>
<text text-anchor="middle" x="790.92" y="-477.59" font-family="Times,serif" font-size="14.00">fe (punct)</text>
<text text-anchor="middle" x="790.92" y="-462.59" font-family="Times,serif" font-size="14.00">rep=no, t=no, r=yes, m=yes, c=no</text>
</g>
<!-- n6&#45;&gt;n7 -->
<g id="edge13" class="edge">
<title>n6&#45;&gt;n7</title>
<path fill="none" stroke="black" d="M654.2,-556.77C674.73,-545.59 697.65,-533.1 718.78,-521.59"/>
<polygon fill="black" stroke="black" points="720.6,-524.58 727.71,-516.73 717.25,-518.44 720.6,-524.58"/>
</g>
<!-- n11 -->
<g id="node17" class="node">
<title>n11</title>
<ellipse fill="#98D2A5" stroke="black" cx="1390.92" cy="-481.29" rx="190.84" ry="37.45"/>
<text text-anchor="middle" x="1390.92" y="-492.59" font-family="Times,serif" font-size="14.00">relación</text>
<text text-anchor="middle" x="1390.92" y="-477.59" font-family="Times,serif" font-size="14.00">ncfs000 (pobj)</text>
<text text-anchor="middle" x="1390.92" y="-462.59" font-family="Times,serif" font-size="14.00">rep=no, t=no, r=yes, m=yes, c=no</text>
</g>
<!-- n10&#45;&gt;n11 -->
<g id="edge16" class="edge">
<title>n10&#45;&gt;n11</title>
<path fill="none" stroke="black" d="M1390.92,-554.66C1390.92,-546.49 1390.92,-537.71 1390.92,-529.18"/>
<polygon fill="black" stroke="black" points="1394.42,-528.96 1390.92,-518.96 1387.42,-528.96 1394.42,-528.96"/>
</g>
<!-- n12 -->
<g id="node18" class="node">
<title>n12</title>
<ellipse fill="#98D2A5" stroke="black" cx="1190.92" cy="-370.34" rx="190.84" ry="37.45"/>
<text text-anchor="middle" x="1190.92" y="-381.64" font-family="Times,serif" font-size="14.00">institucional</text>
<text text-anchor="middle" x="1190.92" y="-366.64" font-family="Times,serif" font-size="14.00">aq0cs0 (amod)</text>
<text text-anchor="middle" x="1190.92" y="-351.64" font-family="Times,serif" font-size="14.00">rep=no, t=no, r=yes, m=yes, c=no</text>
</g>
<!-- n11&#45;&gt;n12 -->
<g id="edge17" class="edge">
<title>n11&#45;&gt;n12</title>
<path fill="none" stroke="black" d="M1327.64,-445.82C1307.11,-434.63 1284.18,-422.14 1263.06,-410.64"/>
<polygon fill="black" stroke="black" points="1264.59,-407.48 1254.13,-405.77 1261.24,-413.63 1264.59,-407.48"/>
</g>
<!-- n13 -->
<g id="node19" class="node">
<title>n13</title>
<ellipse fill="#98D2A5" stroke="black" cx="1590.92" cy="-370.34" rx="190.84" ry="37.45"/>
<text text-anchor="middle" x="1590.92" y="-381.64" font-family="Times,serif" font-size="14.00">entre</text>
<text text-anchor="middle" x="1590.92" y="-366.64" font-family="Times,serif" font-size="14.00">sps00 (prepn)</text>
<text text-anchor="middle" x="1590.92" y="-351.64" font-family="Times,serif" font-size="14.00">rep=no, t=no, r=yes, m=yes, c=no</text>
</g>
<!-- n11&#45;&gt;n13 -->
<g id="edge18" class="edge">
<title>n11&#45;&gt;n13</title>
<path fill="none" stroke="black" d="M1454.2,-445.82C1474.73,-434.63 1497.65,-422.14 1518.78,-410.64"/>
<polygon fill="black" stroke="black" points="1520.6,-413.63 1527.71,-405.77 1517.25,-407.48 1520.6,-413.63"/>
</g>
<!-- n15 -->
<g id="node20" class="node">
<title>n15</title>
<ellipse fill="#98D2A5" stroke="black" cx="1590.92" cy="-259.38" rx="190.84" ry="37.45"/>
<text text-anchor="middle" x="1590.92" y="-270.68" font-family="Times,serif" font-size="14.00">responsables</text>
<text text-anchor="middle" x="1590.92" y="-255.68" font-family="Times,serif" font-size="14.00">nccp000 (pobj)</text>
<text text-anchor="middle" x="1590.92" y="-240.68" font-family="Times,serif" font-size="14.00">rep=no, t=no, r=yes, m=yes, c=no</text>
</g>
<!-- n13&#45;&gt;n15 -->
<g id="edge19" class="edge">
<title>n13&#45;&gt;n15</title>
<path fill="none" stroke="black" d="M1590.92,-332.75C1590.92,-324.58 1590.92,-315.8 1590.92,-307.27"/>
<polygon fill="black" stroke="black" points="1594.42,-307.06 1590.92,-297.06 1587.42,-307.06 1594.42,-307.06"/>
</g>
<!-- n14 -->
<g id="node21" class="node">
<title>n14</title>
<ellipse fill="#98D2A5" stroke="black" cx="785.92" cy="-148.43" rx="190.84" ry="37.45"/>
<text text-anchor="middle" x="785.92" y="-159.73" font-family="Times,serif" font-size="14.00">los</text>
<text text-anchor="middle" x="785.92" y="-144.73" font-family="Times,serif" font-size="14.00">da0mp0 (det)</text>
<text text-anchor="middle" x="785.92" y="-129.73" font-family="Times,serif" font-size="14.00">rep=no, t=no, r=yes, m=yes, c=no</text>
</g>
<!-- n15&#45;&gt;n14 -->
<g id="edge20" class="edge">
<title>n15&#45;&gt;n14</title>
<path fill="none" stroke="black" d="M1423.96,-241.16C1302.26,-227.93 1133.54,-208.19 985.92,-185.91 967.87,-183.18 948.96,-180.07 930.26,-176.84"/>
<polygon fill="black" stroke="black" points="930.66,-173.36 920.21,-175.09 929.46,-180.25 930.66,-173.36"/>
</g>
<!-- n16 -->
<g id="node22" class="node">
<title>n16</title>
<ellipse fill="#98D2A5" stroke="black" cx="1185.92" cy="-148.43" rx="190.84" ry="37.45"/>
<text text-anchor="middle" x="1185.92" y="-159.73" font-family="Times,serif" font-size="14.00">de</text>
<text text-anchor="middle" x="1185.92" y="-144.73" font-family="Times,serif" font-size="14.00">sps00 (prepn)</text>
<text text-anchor="middle" x="1185.92" y="-129.73" font-family="Times,serif" font-size="14.00">rep=no, t=no, r=yes, m=yes, c=no</text>
</g>
<!-- n15&#45;&gt;n16 -->
<g id="edge21" class="edge">
<title>n15&#45;&gt;n16</title>
<path fill="none" stroke="black" d="M1480.79,-228.76C1426.65,-214.19 1361.3,-196.61 1305.9,-181.71"/>
<polygon fill="black" stroke="black" points="1306.6,-178.27 1296.03,-179.05 1304.78,-185.03 1306.6,-178.27"/>
</g>
<!-- n18 -->
<g id="node23" class="node">
<title>n18</title>
<ellipse fill="#98D2A5" stroke="black" cx="1590.92" cy="-148.43" rx="195.74" ry="37.45"/>
<text text-anchor="middle" x="1590.92" y="-159.73" font-family="Times,serif" font-size="14.00">español</text>
<text text-anchor="middle" x="1590.92" y="-144.73" font-family="Times,serif" font-size="14.00">aq0ms0 (dep)</text>
<text text-anchor="middle" x="1590.92" y="-129.73" font-family="Times,serif" font-size="14.00">rep=no, t=no, r=yes, m=yes, c=yes</text>
</g>
<!-- n15&#45;&gt;n18 -->
<g id="edge22" class="edge">
<title>n15&#45;&gt;n18</title>
<path fill="none" stroke="black" d="M1590.92,-221.8C1590.92,-213.63 1590.92,-204.85 1590.92,-196.32"/>
<polygon fill="black" stroke="black" points="1594.42,-196.1 1590.92,-186.1 1587.42,-196.1 1594.42,-196.1"/>
</g>
<!-- n19 -->
<g id="node24" class="node">
<title>n19</title>
<ellipse fill="#98D2A5" stroke="black" cx="1995.92" cy="-148.43" rx="190.84" ry="37.45"/>
<text text-anchor="middle" x="1995.92" y="-159.73" font-family="Times,serif" font-size="14.00">y</text>
<text text-anchor="middle" x="1995.92" y="-144.73" font-family="Times,serif" font-size="14.00">cc (coord_fixed)</text>
<text text-anchor="middle" x="1995.92" y="-129.73" font-family="Times,serif" font-size="14.00">rep=no, t=no, r=yes, m=yes, c=no</text>
</g>
<!-- n15&#45;&gt;n19 -->
<g id="edge23" class="edge">
<title>n15&#45;&gt;n19</title>
<path fill="none" stroke="black" d="M1701.05,-228.76C1755.19,-214.19 1820.54,-196.61 1875.94,-181.71"/>
<polygon fill="black" stroke="black" points="1877.06,-185.03 1885.81,-179.05 1875.24,-178.27 1877.06,-185.03"/>
</g>
<!-- n20 -->
<g id="node25" class="node">
<title>n20</title>
<ellipse fill="#98D2A5" stroke="black" cx="2400.92" cy="-148.43" rx="195.74" ry="37.45"/>
<text text-anchor="middle" x="2400.92" y="-159.73" font-family="Times,serif" font-size="14.00">vasco</text>
<text text-anchor="middle" x="2400.92" y="-144.73" font-family="Times,serif" font-size="14.00">aq0ms0 (dep)</text>
<text text-anchor="middle" x="2400.92" y="-129.73" font-family="Times,serif" font-size="14.00">rep=no, t=no, r=yes, m=yes, c=yes</text>
</g>
<!-- n15&#45;&gt;n20 -->
<g id="edge24" class="edge">
<title>n15&#45;&gt;n20</title>
<path fill="none" stroke="black" d="M1757.53,-241C1879.24,-227.68 2048.12,-207.89 2195.92,-185.91 2214.42,-183.16 2233.81,-180.03 2252.98,-176.78"/>
<polygon fill="black" stroke="black" points="2253.71,-180.21 2262.98,-175.08 2252.53,-173.31 2253.71,-180.21"/>
</g>
<!-- n17 -->
<g id="node26" class="node">
<title>n17</title>
<ellipse fill="#98D2A5" stroke="black" cx="1185.92" cy="-37.48" rx="190.84" ry="37.45"/>
<text text-anchor="middle" x="1185.92" y="-48.78" font-family="Times,serif" font-size="14.00">Interior</text>
<text text-anchor="middle" x="1185.92" y="-33.78" font-family="Times,serif" font-size="14.00">np00000 (pobj)</text>
<text text-anchor="middle" x="1185.92" y="-18.78" font-family="Times,serif" font-size="14.00">rep=no, t=no, r=yes, m=yes, c=no</text>
</g>
<!-- n16&#45;&gt;n17 -->
<g id="edge25" class="edge">
<title>n16&#45;&gt;n17</title>
<path fill="none" stroke="black" d="M1185.92,-110.85C1185.92,-102.67 1185.92,-93.89 1185.92,-85.37"/>
<polygon fill="black" stroke="black" points="1189.42,-85.15 1185.92,-75.15 1182.42,-85.15 1189.42,-85.15"/>
</g>
<!-- n24 -->
<g id="node31" class="node">
<title>n24</title>
<ellipse fill="#98D2A5" stroke="black" cx="1785.92" cy="-592.24" rx="185.94" ry="37.45"/>
<text text-anchor="middle" x="1785.92" y="-603.54" font-family="Times,serif" font-size="14.00">Mayor</text>
<text text-anchor="middle" x="1785.92" y="-588.54" font-family="Times,serif" font-size="14.00">aq0ms0 (amod)</text>
<text text-anchor="middle" x="1785.92" y="-573.54" font-family="Times,serif" font-size="14.00">rep=no, t=no, r=no, m=yes, c=no</text>
</g>
<!-- n23&#45;&gt;n24 -->
<g id="edge30" class="edge">
<title>n23&#45;&gt;n24</title>
<path fill="none" stroke="black" d="M1648.93,-667.87C1669.56,-656.63 1692.65,-644.05 1713.9,-632.48"/>
<polygon fill="black" stroke="black" points="1715.78,-635.44 1722.89,-627.58 1712.43,-629.29 1715.78,-635.44"/>
</g>
<!-- n29 -->
<g id="node32" class="node">
<title>n29</title>
<ellipse fill="#98D2A5" stroke="black" cx="2755.92" cy="-592.24" rx="185.94" ry="37.45"/>
<text text-anchor="middle" x="2755.92" y="-603.54" font-family="Times,serif" font-size="14.00">PNV</text>
<text text-anchor="middle" x="2755.92" y="-588.54" font-family="Times,serif" font-size="14.00">np00000 (pobj)</text>
<text text-anchor="middle" x="2755.92" y="-573.54" font-family="Times,serif" font-size="14.00">rep=no, t=no, r=no, m=yes, c=no</text>
</g>
<!-- n28&#45;&gt;n29 -->
<g id="edge31" class="edge">
<title>n28&#45;&gt;n29</title>
<path fill="none" stroke="black" d="M2755.92,-665.61C2755.92,-657.44 2755.92,-648.66 2755.92,-640.13"/>
<polygon fill="black" stroke="black" points="2759.42,-639.92 2755.92,-629.92 2752.42,-639.92 2759.42,-639.92"/>
</g>
<!-- n34 -->
<g id="node35" class="node">
<title>n34</title>
<ellipse fill="#98D2A5" stroke="black" cx="3535.92" cy="-592.24" rx="185.94" ry="37.45"/>
<text text-anchor="middle" x="3535.92" y="-603.54" font-family="Times,serif" font-size="14.00">orquestar</text>
<text text-anchor="middle" x="3535.92" y="-588.54" font-family="Times,serif" font-size="14.00">vmn0000 (pobj)</text>
<text text-anchor="middle" x="3535.92" y="-573.54" font-family="Times,serif" font-size="14.00">rep=no, t=no, r=no, m=yes, c=no</text>
</g>
<!-- n33&#45;&gt;n34 -->
<g id="edge34" class="edge">
<title>n33&#45;&gt;n34</title>
<path fill="none" stroke="black" d="M3535.92,-665.61C3535.92,-657.44 3535.92,-648.66 3535.92,-640.13"/>
<polygon fill="black" stroke="black" points="3539.42,-639.92 3535.92,-629.92 3532.42,-639.92 3539.42,-639.92"/>
</g>
<!-- n37 -->
<g id="node36" class="node">
<title>n37</title>
<ellipse fill="#98D2A5" stroke="black" cx="3535.92" cy="-481.29" rx="185.94" ry="37.45"/>
<text text-anchor="middle" x="3535.92" y="-492.59" font-family="Times,serif" font-size="14.00">campaña</text>
<text text-anchor="middle" x="3535.92" y="-477.59" font-family="Times,serif" font-size="14.00">ncfs000 (dobj)</text>
<text text-anchor="middle" x="3535.92" y="-462.59" font-family="Times,serif" font-size="14.00">rep=no, t=no, r=no, m=yes, c=no</text>
</g>
<!-- n34&#45;&gt;n37 -->
<g id="edge35" class="edge">
<title>n34&#45;&gt;n37</title>
<path fill="none" stroke="black" d="M3535.92,-554.66C3535.92,-546.49 3535.92,-537.71 3535.92,-529.18"/>
<polygon fill="black" stroke="black" points="3539.42,-528.96 3535.92,-518.96 3532.42,-528.96 3539.42,-528.96"/>
</g>
<!-- n35 -->
<g id="node37" class="node">
<title>n35</title>
<ellipse fill="#98D2A5" stroke="black" cx="2755.92" cy="-370.34" rx="185.94" ry="37.45"/>
<text text-anchor="middle" x="2755.92" y="-381.64" font-family="Times,serif" font-size="14.00">una</text>
<text text-anchor="middle" x="2755.92" y="-366.64" font-family="Times,serif" font-size="14.00">di0fs0 (det)</text>
<text text-anchor="middle" x="2755.92" y="-351.64" font-family="Times,serif" font-size="14.00">rep=no, t=no, r=no, m=yes, c=no</text>
</g>
<!-- n37&#45;&gt;n35 -->
<g id="edge36" class="edge">
<title>n37&#45;&gt;n35</title>
<path fill="none" stroke="black" d="M3373.52,-462.89C3255.91,-449.63 3093.25,-429.92 2950.92,-407.81 2933.4,-405.09 2915.05,-401.99 2896.9,-398.77"/>
<polygon fill="black" stroke="black" points="2897.3,-395.29 2886.84,-396.97 2896.07,-402.18 2897.3,-395.29"/>
</g>
<!-- n36 -->
<g id="node38" class="node">
<title>n36</title>
<ellipse fill="#98D2A5" stroke="black" cx="3145.92" cy="-370.34" rx="185.94" ry="37.45"/>
<text text-anchor="middle" x="3145.92" y="-381.64" font-family="Times,serif" font-size="14.00">&quot;</text>
<text text-anchor="middle" x="3145.92" y="-366.64" font-family="Times,serif" font-size="14.00">fe (punct)</text>
<text text-anchor="middle" x="3145.92" y="-351.64" font-family="Times,serif" font-size="14.00">rep=no, t=no, r=no, m=yes, c=no</text>
</g>
<!-- n37&#45;&gt;n36 -->
<g id="edge37" class="edge">
<title>n37&#45;&gt;n36</title>
<path fill="none" stroke="black" d="M3429.35,-450.52C3377.54,-436.05 3315.17,-418.62 3262.15,-403.81"/>
<polygon fill="black" stroke="black" points="3262.93,-400.39 3252.36,-401.07 3261.05,-407.13 3262.93,-400.39"/>
</g>
<!-- n38 -->
<g id="node39" class="node">
<title>n38</title>
<ellipse fill="#98D2A5" stroke="black" cx="3535.92" cy="-370.34" rx="185.94" ry="37.45"/>
<text text-anchor="middle" x="3535.92" y="-381.64" font-family="Times,serif" font-size="14.00">política</text>
<text text-anchor="middle" x="3535.92" y="-366.64" font-family="Times,serif" font-size="14.00">aq0fs0 (amod)</text>
<text text-anchor="middle" x="3535.92" y="-351.64" font-family="Times,serif" font-size="14.00">rep=no, t=no, r=no, m=yes, c=no</text>
</g>
<!-- n37&#45;&gt;n38 -->
<g id="edge38" class="edge">
<title>n37&#45;&gt;n38</title>
<path fill="none" stroke="black" d="M3535.92,-443.71C3535.92,-435.53 3535.92,-426.75 3535.92,-418.23"/>
<polygon fill="black" stroke="black" points="3539.42,-418.01 3535.92,-408.01 3532.42,-418.01 3539.42,-418.01"/>
</g>
<!-- n39 -->
<g id="node40" class="node">
<title>n39</title>
<ellipse fill="#98D2A5" stroke="black" cx="3925.92" cy="-370.34" rx="185.94" ry="37.45"/>
<text text-anchor="middle" x="3925.92" y="-381.64" font-family="Times,serif" font-size="14.00">infame</text>
<text text-anchor="middle" x="3925.92" y="-366.64" font-family="Times,serif" font-size="14.00">aq0cs0 (amod)</text>
<text text-anchor="middle" x="3925.92" y="-351.64" font-family="Times,serif" font-size="14.00">rep=no, t=no, r=no, m=yes, c=no</text>
</g>
<!-- n37&#45;&gt;n39 -->
<g id="edge39" class="edge">
<title>n37&#45;&gt;n39</title>
<path fill="none" stroke="black" d="M3642.49,-450.52C3694.29,-436.05 3756.66,-418.62 3809.69,-403.81"/>
<polygon fill="black" stroke="black" points="3810.79,-407.13 3819.48,-401.07 3808.91,-400.39 3810.79,-407.13"/>
</g>
<!-- n40 -->
<g id="node41" class="node">
<title>n40</title>
<ellipse fill="#98D2A5" stroke="black" cx="4315.92" cy="-370.34" rx="185.94" ry="37.45"/>
<text text-anchor="middle" x="4315.92" y="-381.64" font-family="Times,serif" font-size="14.00">&quot;</text>
<text text-anchor="middle" x="4315.92" y="-366.64" font-family="Times,serif" font-size="14.00">fe (punct)</text>
<text text-anchor="middle" x="4315.92" y="-351.64" font-family="Times,serif" font-size="14.00">rep=no, t=no, r=no, m=yes, c=no</text>
</g>
<!-- n37&#45;&gt;n40 -->
<g id="edge40" class="edge">
<title>n37&#45;&gt;n40</title>
<path fill="none" stroke="black" d="M3698.32,-462.89C3815.92,-449.63 3978.58,-429.92 4120.92,-407.81 4138.44,-405.09 4156.79,-401.99 4174.94,-398.77"/>
<polygon fill="black" stroke="black" points="4175.77,-402.18 4184.99,-396.97 4174.53,-395.29 4175.77,-402.18"/>
</g>
</g>
</svg>
