<?xml version="1.0" encoding="UTF-8" standalone="no"?>
<!DOCTYPE svg PUBLIC "-//W3C//DTD SVG 1.1//EN"
 "http://www.w3.org/Graphics/SVG/1.1/DTD/svg11.dtd">
<!-- Generated by graphviz version 2.43.0 (0)
 -->
<!-- Title: tree Pages: 1 -->
<svg width="2380pt" height="638pt"
 viewBox="0.00 0.00 2379.84 637.72" xmlns="http://www.w3.org/2000/svg" xmlns:xlink="http://www.w3.org/1999/xlink">
<g id="graph0" class="graph" transform="scale(1 1) rotate(0) translate(4 633.72)">
<title>tree</title>
<polygon fill="white" stroke="transparent" points="-4,4 -4,-633.72 2375.84,-633.72 2375.84,4 -4,4"/>
<!-- n8 -->
<g id="node1" class="node">
<title>n8</title>
<ellipse fill="#98D2A5" stroke="black" cx="990.92" cy="-592.24" rx="185.94" ry="37.45"/>
<text text-anchor="middle" x="990.92" y="-603.54" font-family="Times,serif" font-size="14.00">y</text>
<text text-anchor="middle" x="990.92" y="-588.54" font-family="Times,serif" font-size="14.00">cc (root)</text>
<text text-anchor="middle" x="990.92" y="-573.54" font-family="Times,serif" font-size="14.00">rep=no, t=no, r=no, m=yes, c=no</text>
</g>
<!-- n3 -->
<g id="node2" class="node">
<title>n3</title>
<ellipse fill="#98D2A5" stroke="black" cx="590.92" cy="-481.29" rx="190.84" ry="37.45"/>
<text text-anchor="middle" x="590.92" y="-492.59" font-family="Times,serif" font-size="14.00">estuvo</text>
<text text-anchor="middle" x="590.92" y="-477.59" font-family="Times,serif" font-size="14.00">vmis3s0 (coord)</text>
<text text-anchor="middle" x="590.92" y="-462.59" font-family="Times,serif" font-size="14.00">rep=no, t=no, r=yes, m=yes, c=no</text>
</g>
<!-- n8&#45;&gt;n3 -->
<g id="edge1" class="edge">
<title>n8&#45;&gt;n3</title>
<path fill="none" stroke="black" d="M882.67,-561.76C829.31,-547.22 764.81,-529.66 710.05,-514.74"/>
<polygon fill="black" stroke="black" points="710.86,-511.33 700.29,-512.08 709.02,-518.09 710.86,-511.33"/>
</g>
<!-- n10 -->
<g id="node3" class="node">
<title>n10</title>
<ellipse fill="#98D2A5" stroke="black" cx="990.92" cy="-481.29" rx="185.94" ry="37.45"/>
<text text-anchor="middle" x="990.92" y="-492.59" font-family="Times,serif" font-size="14.00">desarrolló</text>
<text text-anchor="middle" x="990.92" y="-477.59" font-family="Times,serif" font-size="14.00">vmis3s0 (coord)</text>
<text text-anchor="middle" x="990.92" y="-462.59" font-family="Times,serif" font-size="14.00">rep=no, t=no, r=no, m=yes, c=no</text>
</g>
<!-- n8&#45;&gt;n10 -->
<g id="edge2" class="edge">
<title>n8&#45;&gt;n10</title>
<path fill="none" stroke="black" d="M990.92,-554.66C990.92,-546.49 990.92,-537.71 990.92,-529.18"/>
<polygon fill="black" stroke="black" points="994.42,-528.96 990.92,-518.96 987.42,-528.96 994.42,-528.96"/>
</g>
<!-- n20 -->
<g id="node4" class="node">
<title>n20</title>
<ellipse fill="none" stroke="black" cx="1376.92" cy="-481.29" rx="181.95" ry="37.45"/>
<text text-anchor="middle" x="1376.92" y="-492.59" font-family="Times,serif" font-size="14.00">.</text>
<text text-anchor="middle" x="1376.92" y="-477.59" font-family="Times,serif" font-size="14.00">fp (punct)</text>
<text text-anchor="middle" x="1376.92" y="-462.59" font-family="Times,serif" font-size="14.00">rep=no, t=no, r=no, m=no, c=no</text>
</g>
<!-- n8&#45;&gt;n20 -->
<g id="edge3" class="edge">
<title>n8&#45;&gt;n20</title>
<path fill="none" stroke="black" d="M1096.65,-561.4C1147.92,-546.93 1209.6,-529.52 1262.03,-514.72"/>
<polygon fill="black" stroke="black" points="1263.03,-518.07 1271.7,-511.99 1261.13,-511.34 1263.03,-518.07"/>
</g>
<!-- n2 -->
<g id="node5" class="node">
<title>n2</title>
<ellipse fill="#98D2A5" stroke="black" cx="190.92" cy="-370.34" rx="190.84" ry="37.45"/>
<text text-anchor="middle" x="190.92" y="-381.64" font-family="Times,serif" font-size="14.00">encuentro</text>
<text text-anchor="middle" x="190.92" y="-366.64" font-family="Times,serif" font-size="14.00">ncms000 (nsubj)</text>
<text text-anchor="middle" x="190.92" y="-351.64" font-family="Times,serif" font-size="14.00">rep=no, t=yes, r=no, m=yes, c=no</text>
</g>
<!-- n3&#45;&gt;n2 -->
<g id="edge4" class="edge">
<title>n3&#45;&gt;n2</title>
<path fill="none" stroke="black" d="M481.62,-450.52C428.48,-436.04 364.51,-418.62 310.12,-403.81"/>
<polygon fill="black" stroke="black" points="311,-400.42 300.44,-401.17 309.16,-407.17 311,-400.42"/>
</g>
<!-- n4 -->
<g id="node6" class="node">
<title>n4</title>
<ellipse fill="#98D2A5" stroke="black" cx="590.92" cy="-370.34" rx="190.84" ry="37.45"/>
<text text-anchor="middle" x="590.92" y="-381.64" font-family="Times,serif" font-size="14.00">rodeado</text>
<text text-anchor="middle" x="590.92" y="-366.64" font-family="Times,serif" font-size="14.00">aq0msp (attr)</text>
<text text-anchor="middle" x="590.92" y="-351.64" font-family="Times,serif" font-size="14.00">rep=no, t=no, r=yes, m=yes, c=no</text>
</g>
<!-- n3&#45;&gt;n4 -->
<g id="edge5" class="edge">
<title>n3&#45;&gt;n4</title>
<path fill="none" stroke="black" d="M590.92,-443.71C590.92,-435.53 590.92,-426.75 590.92,-418.23"/>
<polygon fill="black" stroke="black" points="594.42,-418.01 590.92,-408.01 587.42,-418.01 594.42,-418.01"/>
</g>
<!-- n9 -->
<g id="node11" class="node">
<title>n9</title>
<ellipse fill="#98D2A5" stroke="black" cx="990.92" cy="-370.34" rx="185.94" ry="37.45"/>
<text text-anchor="middle" x="990.92" y="-381.64" font-family="Times,serif" font-size="14.00">se</text>
<text text-anchor="middle" x="990.92" y="-366.64" font-family="Times,serif" font-size="14.00">p0300000 (reflec)</text>
<text text-anchor="middle" x="990.92" y="-351.64" font-family="Times,serif" font-size="14.00">rep=no, t=no, r=no, m=yes, c=no</text>
</g>
<!-- n10&#45;&gt;n9 -->
<g id="edge10" class="edge">
<title>n10&#45;&gt;n9</title>
<path fill="none" stroke="black" d="M990.92,-443.71C990.92,-435.53 990.92,-426.75 990.92,-418.23"/>
<polygon fill="black" stroke="black" points="994.42,-418.01 990.92,-408.01 987.42,-418.01 994.42,-418.01"/>
</g>
<!-- n11 -->
<g id="node12" class="node">
<title>n11</title>
<ellipse fill="#98D2A5" stroke="black" cx="1385.92" cy="-370.34" rx="185.94" ry="37.45"/>
<text text-anchor="middle" x="1385.92" y="-381.64" font-family="Times,serif" font-size="14.00">entre</text>
<text text-anchor="middle" x="1385.92" y="-366.64" font-family="Times,serif" font-size="14.00">sps00 (prepv)</text>
<text text-anchor="middle" x="1385.92" y="-351.64" font-family="Times,serif" font-size="14.00">rep=no, t=no, r=no, m=yes, c=no</text>
</g>
<!-- n10&#45;&gt;n11 -->
<g id="edge11" class="edge">
<title>n10&#45;&gt;n11</title>
<path fill="none" stroke="black" d="M1098.33,-450.66C1151.02,-436.13 1214.6,-418.59 1268.57,-403.71"/>
<polygon fill="black" stroke="black" points="1269.82,-406.99 1278.53,-400.96 1267.96,-400.24 1269.82,-406.99"/>
</g>
<!-- n1 -->
<g id="node7" class="node">
<title>n1</title>
<ellipse fill="#98D2A5" stroke="black" cx="190.92" cy="-259.38" rx="190.84" ry="37.45"/>
<text text-anchor="middle" x="190.92" y="-270.68" font-family="Times,serif" font-size="14.00">El</text>
<text text-anchor="middle" x="190.92" y="-255.68" font-family="Times,serif" font-size="14.00">da0ms0 (det)</text>
<text text-anchor="middle" x="190.92" y="-240.68" font-family="Times,serif" font-size="14.00">rep=no, t=yes, r=no, m=yes, c=no</text>
</g>
<!-- n2&#45;&gt;n1 -->
<g id="edge6" class="edge">
<title>n2&#45;&gt;n1</title>
<path fill="none" stroke="black" d="M190.92,-332.75C190.92,-324.58 190.92,-315.8 190.92,-307.27"/>
<polygon fill="black" stroke="black" points="194.42,-307.06 190.92,-297.06 187.42,-307.06 194.42,-307.06"/>
</g>
<!-- n5 -->
<g id="node8" class="node">
<title>n5</title>
<ellipse fill="#98D2A5" stroke="black" cx="590.92" cy="-259.38" rx="190.84" ry="37.45"/>
<text text-anchor="middle" x="590.92" y="-270.68" font-family="Times,serif" font-size="14.00">de</text>
<text text-anchor="middle" x="590.92" y="-255.68" font-family="Times,serif" font-size="14.00">sps00 (agent)</text>
<text text-anchor="middle" x="590.92" y="-240.68" font-family="Times,serif" font-size="14.00">rep=no, t=no, r=yes, m=yes, c=no</text>
</g>
<!-- n4&#45;&gt;n5 -->
<g id="edge7" class="edge">
<title>n4&#45;&gt;n5</title>
<path fill="none" stroke="black" d="M590.92,-332.75C590.92,-324.58 590.92,-315.8 590.92,-307.27"/>
<polygon fill="black" stroke="black" points="594.42,-307.06 590.92,-297.06 587.42,-307.06 594.42,-307.06"/>
</g>
<!-- n7 -->
<g id="node9" class="node">
<title>n7</title>
<ellipse fill="#98D2A5" stroke="black" cx="590.92" cy="-148.43" rx="190.84" ry="37.45"/>
<text text-anchor="middle" x="590.92" y="-159.73" font-family="Times,serif" font-size="14.00">discreción</text>
<text text-anchor="middle" x="590.92" y="-144.73" font-family="Times,serif" font-size="14.00">ncfs000 (pobj)</text>
<text text-anchor="middle" x="590.92" y="-129.73" font-family="Times,serif" font-size="14.00">rep=no, t=no, r=yes, m=yes, c=no</text>
</g>
<!-- n5&#45;&gt;n7 -->
<g id="edge8" class="edge">
<title>n5&#45;&gt;n7</title>
<path fill="none" stroke="black" d="M590.92,-221.8C590.92,-213.63 590.92,-204.85 590.92,-196.32"/>
<polygon fill="black" stroke="black" points="594.42,-196.1 590.92,-186.1 587.42,-196.1 594.42,-196.1"/>
</g>
<!-- n6 -->
<g id="node10" class="node">
<title>n6</title>
<ellipse fill="#98D2A5" stroke="black" cx="590.92" cy="-37.48" rx="190.84" ry="37.45"/>
<text text-anchor="middle" x="590.92" y="-48.78" font-family="Times,serif" font-size="14.00">gran</text>
<text text-anchor="middle" x="590.92" y="-33.78" font-family="Times,serif" font-size="14.00">aq0cs0 (amod)</text>
<text text-anchor="middle" x="590.92" y="-18.78" font-family="Times,serif" font-size="14.00">rep=no, t=no, r=yes, m=yes, c=no</text>
</g>
<!-- n7&#45;&gt;n6 -->
<g id="edge9" class="edge">
<title>n7&#45;&gt;n6</title>
<path fill="none" stroke="black" d="M590.92,-110.85C590.92,-102.67 590.92,-93.89 590.92,-85.37"/>
<polygon fill="black" stroke="black" points="594.42,-85.15 590.92,-75.15 587.42,-85.15 594.42,-85.15"/>
</g>
<!-- n13 -->
<g id="node13" class="node">
<title>n13</title>
<ellipse fill="#98D2A5" stroke="black" cx="990.92" cy="-259.38" rx="190.84" ry="37.45"/>
<text text-anchor="middle" x="990.92" y="-270.68" font-family="Times,serif" font-size="14.00">tres</text>
<text text-anchor="middle" x="990.92" y="-255.68" font-family="Times,serif" font-size="14.00">pn0cp000 (pobj)</text>
<text text-anchor="middle" x="990.92" y="-240.68" font-family="Times,serif" font-size="14.00">rep=no, t=no, r=no, m=yes, c=yes</text>
</g>
<!-- n11&#45;&gt;n13 -->
<g id="edge12" class="edge">
<title>n11&#45;&gt;n13</title>
<path fill="none" stroke="black" d="M1278.51,-339.71C1226.14,-325.26 1163.01,-307.85 1109.26,-293.03"/>
<polygon fill="black" stroke="black" points="1109.91,-289.57 1099.34,-290.29 1108.05,-296.32 1109.91,-289.57"/>
</g>
<!-- n14 -->
<g id="node14" class="node">
<title>n14</title>
<ellipse fill="#98D2A5" stroke="black" cx="1385.92" cy="-259.38" rx="185.94" ry="37.45"/>
<text text-anchor="middle" x="1385.92" y="-270.68" font-family="Times,serif" font-size="14.00">y</text>
<text text-anchor="middle" x="1385.92" y="-255.68" font-family="Times,serif" font-size="14.00">cc (coord_fixed)</text>
<text text-anchor="middle" x="1385.92" y="-240.68" font-family="Times,serif" font-size="14.00">rep=no, t=no, r=no, m=yes, c=no</text>
</g>
<!-- n11&#45;&gt;n14 -->
<g id="edge13" class="edge">
<title>n11&#45;&gt;n14</title>
<path fill="none" stroke="black" d="M1385.92,-332.75C1385.92,-324.58 1385.92,-315.8 1385.92,-307.27"/>
<polygon fill="black" stroke="black" points="1389.42,-307.06 1385.92,-297.06 1382.42,-307.06 1389.42,-307.06"/>
</g>
<!-- n16 -->
<g id="node15" class="node">
<title>n16</title>
<ellipse fill="#98D2A5" stroke="black" cx="1780.92" cy="-259.38" rx="190.84" ry="37.45"/>
<text text-anchor="middle" x="1780.92" y="-270.68" font-family="Times,serif" font-size="14.00">cinco</text>
<text text-anchor="middle" x="1780.92" y="-255.68" font-family="Times,serif" font-size="14.00">pn0cp000 (pobj)</text>
<text text-anchor="middle" x="1780.92" y="-240.68" font-family="Times,serif" font-size="14.00">rep=no, t=no, r=no, m=yes, c=yes</text>
</g>
<!-- n11&#45;&gt;n16 -->
<g id="edge14" class="edge">
<title>n11&#45;&gt;n16</title>
<path fill="none" stroke="black" d="M1493.33,-339.71C1545.7,-325.26 1608.82,-307.85 1662.57,-293.03"/>
<polygon fill="black" stroke="black" points="1663.79,-296.32 1672.5,-290.29 1661.93,-289.57 1663.79,-296.32"/>
</g>
<!-- n17 -->
<g id="node16" class="node">
<title>n17</title>
<ellipse fill="#98D2A5" stroke="black" cx="2180.92" cy="-259.38" rx="190.84" ry="37.45"/>
<text text-anchor="middle" x="2180.92" y="-270.68" font-family="Times,serif" font-size="14.00">de</text>
<text text-anchor="middle" x="2180.92" y="-255.68" font-family="Times,serif" font-size="14.00">sps00 (pobj)</text>
<text text-anchor="middle" x="2180.92" y="-240.68" font-family="Times,serif" font-size="14.00">rep=no, t=no, r=no, m=yes, c=yes</text>
</g>
<!-- n11&#45;&gt;n17 -->
<g id="edge15" class="edge">
<title>n11&#45;&gt;n17</title>
<path fill="none" stroke="black" d="M1548.84,-352.12C1668.62,-338.83 1835.21,-319 1980.92,-296.86 1998.89,-294.13 2017.72,-291.02 2036.34,-287.8"/>
<polygon fill="black" stroke="black" points="2037.11,-291.22 2046.36,-286.05 2035.9,-284.32 2037.11,-291.22"/>
</g>
<!-- n12 -->
<g id="node17" class="node">
<title>n12</title>
<ellipse fill="#98D2A5" stroke="black" cx="990.92" cy="-148.43" rx="185.94" ry="37.45"/>
<text text-anchor="middle" x="990.92" y="-159.73" font-family="Times,serif" font-size="14.00">las</text>
<text text-anchor="middle" x="990.92" y="-144.73" font-family="Times,serif" font-size="14.00">da0fp0 (det)</text>
<text text-anchor="middle" x="990.92" y="-129.73" font-family="Times,serif" font-size="14.00">rep=no, t=no, r=no, m=yes, c=no</text>
</g>
<!-- n13&#45;&gt;n12 -->
<g id="edge16" class="edge">
<title>n13&#45;&gt;n12</title>
<path fill="none" stroke="black" d="M990.92,-221.8C990.92,-213.63 990.92,-204.85 990.92,-196.32"/>
<polygon fill="black" stroke="black" points="994.42,-196.1 990.92,-186.1 987.42,-196.1 994.42,-196.1"/>
</g>
<!-- n15 -->
<g id="node18" class="node">
<title>n15</title>
<ellipse fill="#98D2A5" stroke="black" cx="1780.92" cy="-148.43" rx="185.94" ry="37.45"/>
<text text-anchor="middle" x="1780.92" y="-159.73" font-family="Times,serif" font-size="14.00">las</text>
<text text-anchor="middle" x="1780.92" y="-144.73" font-family="Times,serif" font-size="14.00">da0fp0 (det)</text>
<text text-anchor="middle" x="1780.92" y="-129.73" font-family="Times,serif" font-size="14.00">rep=no, t=no, r=no, m=yes, c=no</text>
</g>
<!-- n16&#45;&gt;n15 -->
<g id="edge17" class="edge">
<title>n16&#45;&gt;n15</title>
<path fill="none" stroke="black" d="M1780.92,-221.8C1780.92,-213.63 1780.92,-204.85 1780.92,-196.32"/>
<polygon fill="black" stroke="black" points="1784.42,-196.1 1780.92,-186.1 1777.42,-196.1 1784.42,-196.1"/>
</g>
<!-- n19 -->
<g id="node19" class="node">
<title>n19</title>
<ellipse fill="#98D2A5" stroke="black" cx="2180.92" cy="-148.43" rx="185.94" ry="37.45"/>
<text text-anchor="middle" x="2180.92" y="-159.73" font-family="Times,serif" font-size="14.00">tarde</text>
<text text-anchor="middle" x="2180.92" y="-144.73" font-family="Times,serif" font-size="14.00">ncfs000 (pobj)</text>
<text text-anchor="middle" x="2180.92" y="-129.73" font-family="Times,serif" font-size="14.00">rep=no, t=no, r=no, m=yes, c=no</text>
</g>
<!-- n17&#45;&gt;n19 -->
<g id="edge18" class="edge">
<title>n17&#45;&gt;n19</title>
<path fill="none" stroke="black" d="M2180.92,-221.8C2180.92,-213.63 2180.92,-204.85 2180.92,-196.32"/>
<polygon fill="black" stroke="black" points="2184.42,-196.1 2180.92,-186.1 2177.42,-196.1 2184.42,-196.1"/>
</g>
<!-- n18 -->
<g id="node20" class="node">
<title>n18</title>
<ellipse fill="#98D2A5" stroke="black" cx="2180.92" cy="-37.48" rx="185.94" ry="37.45"/>
<text text-anchor="middle" x="2180.92" y="-48.78" font-family="Times,serif" font-size="14.00">la</text>
<text text-anchor="middle" x="2180.92" y="-33.78" font-family="Times,serif" font-size="14.00">da0fs0 (det)</text>
<text text-anchor="middle" x="2180.92" y="-18.78" font-family="Times,serif" font-size="14.00">rep=no, t=no, r=no, m=yes, c=no</text>
</g>
<!-- n19&#45;&gt;n18 -->
<g id="edge19" class="edge">
<title>n19&#45;&gt;n18</title>
<path fill="none" stroke="black" d="M2180.92,-110.85C2180.92,-102.67 2180.92,-93.89 2180.92,-85.37"/>
<polygon fill="black" stroke="black" points="2184.42,-85.15 2180.92,-75.15 2177.42,-85.15 2184.42,-85.15"/>
</g>
</g>
</svg>
