<?xml version="1.0" encoding="UTF-8" standalone="no"?>
<!DOCTYPE svg PUBLIC "-//W3C//DTD SVG 1.1//EN"
 "http://www.w3.org/Graphics/SVG/1.1/DTD/svg11.dtd">
<!-- Generated by graphviz version 2.43.0 (0)
 -->
<!-- Title: tree Pages: 1 -->
<svg width="3547pt" height="1192pt"
 viewBox="0.00 0.00 3546.89 1192.49" xmlns="http://www.w3.org/2000/svg" xmlns:xlink="http://www.w3.org/1999/xlink">
<g id="graph0" class="graph" transform="scale(1 1) rotate(0) translate(4 1188.49)">
<title>tree</title>
<polygon fill="white" stroke="transparent" points="-4,4 -4,-1188.49 3542.89,-1188.49 3542.89,4 -4,4"/>
<!-- n2 -->
<g id="node1" class="node">
<title>n2</title>
<ellipse fill="#DA79E8" stroke="black" cx="790.92" cy="-1147.01" rx="190.84" ry="37.45"/>
<text text-anchor="middle" x="790.92" y="-1158.31" font-family="Times,serif" font-size="14.00">ha</text>
<text text-anchor="middle" x="790.92" y="-1143.31" font-family="Times,serif" font-size="14.00">vaip3s0 (root)</text>
<text text-anchor="middle" x="790.92" y="-1128.31" font-family="Times,serif" font-size="14.00">rep=no, t=no, r=yes, m=yes, c=no</text>
</g>
<!-- n1 -->
<g id="node2" class="node">
<title>n1</title>
<ellipse fill="#BEDA48" stroke="black" cx="390.92" cy="-1036.06" rx="190.84" ry="37.45"/>
<text text-anchor="middle" x="390.92" y="-1047.36" font-family="Times,serif" font-size="14.00">Rius</text>
<text text-anchor="middle" x="390.92" y="-1032.36" font-family="Times,serif" font-size="14.00">np00000 (nsubj)</text>
<text text-anchor="middle" x="390.92" y="-1017.36" font-family="Times,serif" font-size="14.00">rep=no, t=yes, r=no, m=yes, c=no</text>
</g>
<!-- n2&#45;&gt;n1 -->
<g id="edge1" class="edge">
<title>n2&#45;&gt;n1</title>
<path fill="none" stroke="black" d="M681.62,-1116.24C628.48,-1101.76 564.51,-1084.34 510.12,-1069.53"/>
<polygon fill="black" stroke="black" points="511,-1066.14 500.44,-1066.89 509.16,-1072.89 511,-1066.14"/>
</g>
<!-- n3 -->
<g id="node3" class="node">
<title>n3</title>
<ellipse fill="#DA79E8" stroke="black" cx="790.92" cy="-1036.06" rx="190.84" ry="37.45"/>
<text text-anchor="middle" x="790.92" y="-1047.36" font-family="Times,serif" font-size="14.00">pedido</text>
<text text-anchor="middle" x="790.92" y="-1032.36" font-family="Times,serif" font-size="14.00">vmp00sm (vobj)</text>
<text text-anchor="middle" x="790.92" y="-1017.36" font-family="Times,serif" font-size="14.00">rep=no, t=no, r=yes, m=yes, c=no</text>
</g>
<!-- n2&#45;&gt;n3 -->
<g id="edge2" class="edge">
<title>n2&#45;&gt;n3</title>
<path fill="none" stroke="black" d="M790.92,-1109.43C790.92,-1101.25 790.92,-1092.47 790.92,-1083.95"/>
<polygon fill="black" stroke="black" points="794.42,-1083.73 790.92,-1073.73 787.42,-1083.73 794.42,-1083.73"/>
</g>
<!-- n33 -->
<g id="node4" class="node">
<title>n33</title>
<ellipse fill="none" stroke="black" cx="1181.92" cy="-1036.06" rx="181.95" ry="37.45"/>
<text text-anchor="middle" x="1181.92" y="-1047.36" font-family="Times,serif" font-size="14.00">.</text>
<text text-anchor="middle" x="1181.92" y="-1032.36" font-family="Times,serif" font-size="14.00">fp (punct)</text>
<text text-anchor="middle" x="1181.92" y="-1017.36" font-family="Times,serif" font-size="14.00">rep=no, t=no, r=no, m=no, c=no</text>
</g>
<!-- n2&#45;&gt;n33 -->
<g id="edge3" class="edge">
<title>n2&#45;&gt;n33</title>
<path fill="none" stroke="black" d="M898.54,-1116.02C950.57,-1101.52 1013.09,-1084.1 1066.16,-1069.31"/>
<polygon fill="black" stroke="black" points="1067.26,-1072.64 1075.95,-1066.59 1065.38,-1065.9 1067.26,-1072.64"/>
</g>
<!-- n4 -->
<g id="node5" class="node">
<title>n4</title>
<ellipse fill="#DA79E8" stroke="black" cx="590.92" cy="-925.1" rx="190.84" ry="37.45"/>
<text text-anchor="middle" x="590.92" y="-936.4" font-family="Times,serif" font-size="14.00">a</text>
<text text-anchor="middle" x="590.92" y="-921.4" font-family="Times,serif" font-size="14.00">sps00 (iobj)</text>
<text text-anchor="middle" x="590.92" y="-906.4" font-family="Times,serif" font-size="14.00">rep=no, t=no, r=yes, m=yes, c=no</text>
</g>
<!-- n3&#45;&gt;n4 -->
<g id="edge4" class="edge">
<title>n3&#45;&gt;n4</title>
<path fill="none" stroke="black" d="M727.64,-1000.58C707.11,-989.4 684.18,-976.91 663.06,-965.4"/>
<polygon fill="black" stroke="black" points="664.59,-962.25 654.13,-960.54 661.24,-968.4 664.59,-962.25"/>
</g>
<!-- n8 -->
<g id="node6" class="node">
<title>n8</title>
<ellipse fill="#DA79E8" stroke="black" cx="990.92" cy="-925.1" rx="190.84" ry="37.45"/>
<text text-anchor="middle" x="990.92" y="-936.4" font-family="Times,serif" font-size="14.00">que</text>
<text text-anchor="middle" x="990.92" y="-921.4" font-family="Times,serif" font-size="14.00">cs (dobj)</text>
<text text-anchor="middle" x="990.92" y="-906.4" font-family="Times,serif" font-size="14.00">rep=no, t=no, r=yes, m=yes, c=no</text>
</g>
<!-- n3&#45;&gt;n8 -->
<g id="edge5" class="edge">
<title>n3&#45;&gt;n8</title>
<path fill="none" stroke="black" d="M854.2,-1000.58C874.73,-989.4 897.65,-976.91 918.78,-965.4"/>
<polygon fill="black" stroke="black" points="920.6,-968.4 927.71,-960.54 917.25,-962.25 920.6,-968.4"/>
</g>
<!-- n7 -->
<g id="node7" class="node">
<title>n7</title>
<ellipse fill="#DA79E8" stroke="black" cx="590.92" cy="-814.15" rx="190.84" ry="37.45"/>
<text text-anchor="middle" x="590.92" y="-825.45" font-family="Times,serif" font-size="14.00">hospitales</text>
<text text-anchor="middle" x="590.92" y="-810.45" font-family="Times,serif" font-size="14.00">ncmp000 (pobj)</text>
<text text-anchor="middle" x="590.92" y="-795.45" font-family="Times,serif" font-size="14.00">rep=no, t=no, r=yes, m=yes, c=no</text>
</g>
<!-- n4&#45;&gt;n7 -->
<g id="edge6" class="edge">
<title>n4&#45;&gt;n7</title>
<path fill="none" stroke="black" d="M590.92,-887.52C590.92,-879.35 590.92,-870.57 590.92,-862.04"/>
<polygon fill="black" stroke="black" points="594.42,-861.82 590.92,-851.82 587.42,-861.82 594.42,-861.82"/>
</g>
<!-- n9 -->
<g id="node10" class="node">
<title>n9</title>
<ellipse fill="#DA79E8" stroke="black" cx="990.92" cy="-814.15" rx="190.84" ry="37.45"/>
<text text-anchor="middle" x="990.92" y="-825.45" font-family="Times,serif" font-size="14.00">establezcan</text>
<text text-anchor="middle" x="990.92" y="-810.45" font-family="Times,serif" font-size="14.00">vmsp3p0 (cobj)</text>
<text text-anchor="middle" x="990.92" y="-795.45" font-family="Times,serif" font-size="14.00">rep=no, t=no, r=yes, m=yes, c=no</text>
</g>
<!-- n8&#45;&gt;n9 -->
<g id="edge9" class="edge">
<title>n8&#45;&gt;n9</title>
<path fill="none" stroke="black" d="M990.92,-887.52C990.92,-879.35 990.92,-870.57 990.92,-862.04"/>
<polygon fill="black" stroke="black" points="994.42,-861.82 990.92,-851.82 987.42,-861.82 994.42,-861.82"/>
</g>
<!-- n5 -->
<g id="node8" class="node">
<title>n5</title>
<ellipse fill="#DA79E8" stroke="black" cx="190.92" cy="-703.2" rx="190.84" ry="37.45"/>
<text text-anchor="middle" x="190.92" y="-714.5" font-family="Times,serif" font-size="14.00">todos</text>
<text text-anchor="middle" x="190.92" y="-699.5" font-family="Times,serif" font-size="14.00">di0mp0 (det)</text>
<text text-anchor="middle" x="190.92" y="-684.5" font-family="Times,serif" font-size="14.00">rep=no, t=no, r=yes, m=yes, c=no</text>
</g>
<!-- n7&#45;&gt;n5 -->
<g id="edge7" class="edge">
<title>n7&#45;&gt;n5</title>
<path fill="none" stroke="black" d="M481.62,-783.38C428.48,-768.9 364.51,-751.48 310.12,-736.67"/>
<polygon fill="black" stroke="black" points="311,-733.28 300.44,-734.03 309.16,-740.03 311,-733.28"/>
</g>
<!-- n6 -->
<g id="node9" class="node">
<title>n6</title>
<ellipse fill="#DA79E8" stroke="black" cx="590.92" cy="-703.2" rx="190.84" ry="37.45"/>
<text text-anchor="middle" x="590.92" y="-714.5" font-family="Times,serif" font-size="14.00">los</text>
<text text-anchor="middle" x="590.92" y="-699.5" font-family="Times,serif" font-size="14.00">da0mp0 (det)</text>
<text text-anchor="middle" x="590.92" y="-684.5" font-family="Times,serif" font-size="14.00">rep=no, t=no, r=yes, m=yes, c=no</text>
</g>
<!-- n7&#45;&gt;n6 -->
<g id="edge8" class="edge">
<title>n7&#45;&gt;n6</title>
<path fill="none" stroke="black" d="M590.92,-776.57C590.92,-768.39 590.92,-759.61 590.92,-751.09"/>
<polygon fill="black" stroke="black" points="594.42,-750.87 590.92,-740.87 587.42,-750.87 594.42,-750.87"/>
</g>
<!-- n10 -->
<g id="node11" class="node">
<title>n10</title>
<ellipse fill="#DA79E8" stroke="black" cx="990.92" cy="-703.2" rx="190.84" ry="37.45"/>
<text text-anchor="middle" x="990.92" y="-714.5" font-family="Times,serif" font-size="14.00">junto</text>
<text text-anchor="middle" x="990.92" y="-699.5" font-family="Times,serif" font-size="14.00">rg (prepv)</text>
<text text-anchor="middle" x="990.92" y="-684.5" font-family="Times,serif" font-size="14.00">rep=no, t=no, r=yes, m=yes, c=no</text>
</g>
<!-- n9&#45;&gt;n10 -->
<g id="edge10" class="edge">
<title>n9&#45;&gt;n10</title>
<path fill="none" stroke="black" d="M990.92,-776.57C990.92,-768.39 990.92,-759.61 990.92,-751.09"/>
<polygon fill="black" stroke="black" points="994.42,-750.87 990.92,-740.87 987.42,-750.87 994.42,-750.87"/>
</g>
<!-- n17 -->
<g id="node12" class="node">
<title>n17</title>
<ellipse fill="#DA79E8" stroke="black" cx="1390.92" cy="-703.2" rx="190.84" ry="37.45"/>
<text text-anchor="middle" x="1390.92" y="-714.5" font-family="Times,serif" font-size="14.00">consultas</text>
<text text-anchor="middle" x="1390.92" y="-699.5" font-family="Times,serif" font-size="14.00">ncfp000 (dobj)</text>
<text text-anchor="middle" x="1390.92" y="-684.5" font-family="Times,serif" font-size="14.00">rep=no, t=no, r=yes, m=yes, c=no</text>
</g>
<!-- n9&#45;&gt;n17 -->
<g id="edge11" class="edge">
<title>n9&#45;&gt;n17</title>
<path fill="none" stroke="black" d="M1100.22,-783.38C1153.36,-768.9 1217.33,-751.48 1271.71,-736.67"/>
<polygon fill="black" stroke="black" points="1272.67,-740.03 1281.4,-734.03 1270.83,-733.28 1272.67,-740.03"/>
</g>
<!-- n11 -->
<g id="node13" class="node">
<title>n11</title>
<ellipse fill="#DA79E8" stroke="black" cx="990.92" cy="-592.24" rx="190.84" ry="37.45"/>
<text text-anchor="middle" x="990.92" y="-603.54" font-family="Times,serif" font-size="14.00">a</text>
<text text-anchor="middle" x="990.92" y="-588.54" font-family="Times,serif" font-size="14.00">sps00 (prep)</text>
<text text-anchor="middle" x="990.92" y="-573.54" font-family="Times,serif" font-size="14.00">rep=no, t=no, r=yes, m=yes, c=no</text>
</g>
<!-- n10&#45;&gt;n11 -->
<g id="edge12" class="edge">
<title>n10&#45;&gt;n11</title>
<path fill="none" stroke="black" d="M990.92,-665.61C990.92,-657.44 990.92,-648.66 990.92,-640.13"/>
<polygon fill="black" stroke="black" points="994.42,-639.92 990.92,-629.92 987.42,-639.92 994.42,-639.92"/>
</g>
<!-- n16 -->
<g id="node18" class="node">
<title>n16</title>
<ellipse fill="#DA79E8" stroke="black" cx="1390.92" cy="-592.24" rx="190.84" ry="37.45"/>
<text text-anchor="middle" x="1390.92" y="-603.54" font-family="Times,serif" font-size="14.00">unas</text>
<text text-anchor="middle" x="1390.92" y="-588.54" font-family="Times,serif" font-size="14.00">di0fp0 (det)</text>
<text text-anchor="middle" x="1390.92" y="-573.54" font-family="Times,serif" font-size="14.00">rep=no, t=no, r=yes, m=yes, c=no</text>
</g>
<!-- n17&#45;&gt;n16 -->
<g id="edge17" class="edge">
<title>n17&#45;&gt;n16</title>
<path fill="none" stroke="black" d="M1390.92,-665.61C1390.92,-657.44 1390.92,-648.66 1390.92,-640.13"/>
<polygon fill="black" stroke="black" points="1394.42,-639.92 1390.92,-629.92 1387.42,-639.92 1394.42,-639.92"/>
</g>
<!-- n19 -->
<g id="node19" class="node">
<title>n19</title>
<ellipse fill="none" stroke="black" cx="1785.92" cy="-592.24" rx="185.94" ry="37.45"/>
<text text-anchor="middle" x="1785.92" y="-603.54" font-family="Times,serif" font-size="14.00">atiendan</text>
<text text-anchor="middle" x="1785.92" y="-588.54" font-family="Times,serif" font-size="14.00">vmsp3p0 (rcmod)</text>
<text text-anchor="middle" x="1785.92" y="-573.54" font-family="Times,serif" font-size="14.00">rep=no, t=no, r=no, m=yes, c=no</text>
</g>
<!-- n17&#45;&gt;n19 -->
<g id="edge18" class="edge">
<title>n17&#45;&gt;n19</title>
<path fill="none" stroke="black" d="M1499.38,-672.28C1551.84,-657.81 1614.9,-640.42 1668.49,-625.63"/>
<polygon fill="black" stroke="black" points="1669.68,-628.94 1678.39,-622.9 1667.82,-622.19 1669.68,-628.94"/>
</g>
<!-- n13 -->
<g id="node14" class="node">
<title>n13</title>
<ellipse fill="#DA79E8" stroke="black" cx="990.92" cy="-481.29" rx="190.84" ry="37.45"/>
<text text-anchor="middle" x="990.92" y="-492.59" font-family="Times,serif" font-size="14.00">áreas</text>
<text text-anchor="middle" x="990.92" y="-477.59" font-family="Times,serif" font-size="14.00">ncfp000 (pobj)</text>
<text text-anchor="middle" x="990.92" y="-462.59" font-family="Times,serif" font-size="14.00">rep=no, t=no, r=yes, m=yes, c=no</text>
</g>
<!-- n11&#45;&gt;n13 -->
<g id="edge13" class="edge">
<title>n11&#45;&gt;n13</title>
<path fill="none" stroke="black" d="M990.92,-554.66C990.92,-546.49 990.92,-537.71 990.92,-529.18"/>
<polygon fill="black" stroke="black" points="994.42,-528.96 990.92,-518.96 987.42,-528.96 994.42,-528.96"/>
</g>
<!-- n12 -->
<g id="node15" class="node">
<title>n12</title>
<ellipse fill="#DA79E8" stroke="black" cx="790.92" cy="-370.34" rx="190.84" ry="37.45"/>
<text text-anchor="middle" x="790.92" y="-381.64" font-family="Times,serif" font-size="14.00">las</text>
<text text-anchor="middle" x="790.92" y="-366.64" font-family="Times,serif" font-size="14.00">da0fp0 (det)</text>
<text text-anchor="middle" x="790.92" y="-351.64" font-family="Times,serif" font-size="14.00">rep=no, t=no, r=yes, m=yes, c=no</text>
</g>
<!-- n13&#45;&gt;n12 -->
<g id="edge14" class="edge">
<title>n13&#45;&gt;n12</title>
<path fill="none" stroke="black" d="M927.64,-445.82C907.11,-434.63 884.18,-422.14 863.06,-410.64"/>
<polygon fill="black" stroke="black" points="864.59,-407.48 854.13,-405.77 861.24,-413.63 864.59,-407.48"/>
</g>
<!-- n14 -->
<g id="node16" class="node">
<title>n14</title>
<ellipse fill="#DA79E8" stroke="black" cx="1190.92" cy="-370.34" rx="190.84" ry="37.45"/>
<text text-anchor="middle" x="1190.92" y="-381.64" font-family="Times,serif" font-size="14.00">de</text>
<text text-anchor="middle" x="1190.92" y="-366.64" font-family="Times,serif" font-size="14.00">sps00 (prepn)</text>
<text text-anchor="middle" x="1190.92" y="-351.64" font-family="Times,serif" font-size="14.00">rep=no, t=no, r=yes, m=yes, c=no</text>
</g>
<!-- n13&#45;&gt;n14 -->
<g id="edge15" class="edge">
<title>n13&#45;&gt;n14</title>
<path fill="none" stroke="black" d="M1054.2,-445.82C1074.73,-434.63 1097.65,-422.14 1118.78,-410.64"/>
<polygon fill="black" stroke="black" points="1120.6,-413.63 1127.71,-405.77 1117.25,-407.48 1120.6,-413.63"/>
</g>
<!-- n15 -->
<g id="node17" class="node">
<title>n15</title>
<ellipse fill="#DA79E8" stroke="black" cx="1190.92" cy="-259.38" rx="190.84" ry="37.45"/>
<text text-anchor="middle" x="1190.92" y="-270.68" font-family="Times,serif" font-size="14.00">urgencias</text>
<text text-anchor="middle" x="1190.92" y="-255.68" font-family="Times,serif" font-size="14.00">ncfp000 (pobj)</text>
<text text-anchor="middle" x="1190.92" y="-240.68" font-family="Times,serif" font-size="14.00">rep=no, t=no, r=yes, m=yes, c=no</text>
</g>
<!-- n14&#45;&gt;n15 -->
<g id="edge16" class="edge">
<title>n14&#45;&gt;n15</title>
<path fill="none" stroke="black" d="M1190.92,-332.75C1190.92,-324.58 1190.92,-315.8 1190.92,-307.27"/>
<polygon fill="black" stroke="black" points="1194.42,-307.06 1190.92,-297.06 1187.42,-307.06 1194.42,-307.06"/>
</g>
<!-- n18 -->
<g id="node20" class="node">
<title>n18</title>
<ellipse fill="none" stroke="black" cx="1395.92" cy="-481.29" rx="185.94" ry="37.45"/>
<text text-anchor="middle" x="1395.92" y="-492.59" font-family="Times,serif" font-size="14.00">que</text>
<text text-anchor="middle" x="1395.92" y="-477.59" font-family="Times,serif" font-size="14.00">pr0cn000 (nsubj)</text>
<text text-anchor="middle" x="1395.92" y="-462.59" font-family="Times,serif" font-size="14.00">rep=no, t=no, r=no, m=yes, c=no</text>
</g>
<!-- n19&#45;&gt;n18 -->
<g id="edge19" class="edge">
<title>n19&#45;&gt;n18</title>
<path fill="none" stroke="black" d="M1679.35,-561.47C1627.54,-547 1565.17,-529.57 1512.15,-514.76"/>
<polygon fill="black" stroke="black" points="1512.93,-511.35 1502.36,-512.03 1511.05,-518.09 1512.93,-511.35"/>
</g>
<!-- n20 -->
<g id="node21" class="node">
<title>n20</title>
<ellipse fill="none" stroke="black" cx="1785.92" cy="-481.29" rx="185.94" ry="37.45"/>
<text text-anchor="middle" x="1785.92" y="-492.59" font-family="Times,serif" font-size="14.00">de</text>
<text text-anchor="middle" x="1785.92" y="-477.59" font-family="Times,serif" font-size="14.00">sps00 (prepv)</text>
<text text-anchor="middle" x="1785.92" y="-462.59" font-family="Times,serif" font-size="14.00">rep=no, t=no, r=no, m=yes, c=no</text>
</g>
<!-- n19&#45;&gt;n20 -->
<g id="edge20" class="edge">
<title>n19&#45;&gt;n20</title>
<path fill="none" stroke="black" d="M1785.92,-554.66C1785.92,-546.49 1785.92,-537.71 1785.92,-529.18"/>
<polygon fill="black" stroke="black" points="1789.42,-528.96 1785.92,-518.96 1782.42,-528.96 1789.42,-528.96"/>
</g>
<!-- n23 -->
<g id="node22" class="node">
<title>n23</title>
<ellipse fill="none" stroke="black" cx="2175.92" cy="-481.29" rx="185.94" ry="37.45"/>
<text text-anchor="middle" x="2175.92" y="-492.59" font-family="Times,serif" font-size="14.00">a</text>
<text text-anchor="middle" x="2175.92" y="-477.59" font-family="Times,serif" font-size="14.00">sps00 (dobj)</text>
<text text-anchor="middle" x="2175.92" y="-462.59" font-family="Times,serif" font-size="14.00">rep=no, t=no, r=no, m=yes, c=no</text>
</g>
<!-- n19&#45;&gt;n23 -->
<g id="edge21" class="edge">
<title>n19&#45;&gt;n23</title>
<path fill="none" stroke="black" d="M1892.49,-561.47C1944.29,-547 2006.66,-529.57 2059.69,-514.76"/>
<polygon fill="black" stroke="black" points="2060.79,-518.09 2069.48,-512.03 2058.91,-511.35 2060.79,-518.09"/>
</g>
<!-- n21 -->
<g id="node23" class="node">
<title>n21</title>
<ellipse fill="none" stroke="black" cx="1785.92" cy="-370.34" rx="185.94" ry="37.45"/>
<text text-anchor="middle" x="1785.92" y="-381.64" font-family="Times,serif" font-size="14.00">forma</text>
<text text-anchor="middle" x="1785.92" y="-366.64" font-family="Times,serif" font-size="14.00">ncfs000 (pobj)</text>
<text text-anchor="middle" x="1785.92" y="-351.64" font-family="Times,serif" font-size="14.00">rep=no, t=no, r=no, m=yes, c=no</text>
</g>
<!-- n20&#45;&gt;n21 -->
<g id="edge22" class="edge">
<title>n20&#45;&gt;n21</title>
<path fill="none" stroke="black" d="M1785.92,-443.71C1785.92,-435.53 1785.92,-426.75 1785.92,-418.23"/>
<polygon fill="black" stroke="black" points="1789.42,-418.01 1785.92,-408.01 1782.42,-418.01 1789.42,-418.01"/>
</g>
<!-- n25 -->
<g id="node25" class="node">
<title>n25</title>
<ellipse fill="none" stroke="black" cx="2175.92" cy="-370.34" rx="185.94" ry="37.45"/>
<text text-anchor="middle" x="2175.92" y="-381.64" font-family="Times,serif" font-size="14.00">personas</text>
<text text-anchor="middle" x="2175.92" y="-366.64" font-family="Times,serif" font-size="14.00">ncfp000 (pobj)</text>
<text text-anchor="middle" x="2175.92" y="-351.64" font-family="Times,serif" font-size="14.00">rep=no, t=no, r=no, m=yes, c=no</text>
</g>
<!-- n23&#45;&gt;n25 -->
<g id="edge24" class="edge">
<title>n23&#45;&gt;n25</title>
<path fill="none" stroke="black" d="M2175.92,-443.71C2175.92,-435.53 2175.92,-426.75 2175.92,-418.23"/>
<polygon fill="black" stroke="black" points="2179.42,-418.01 2175.92,-408.01 2172.42,-418.01 2179.42,-418.01"/>
</g>
<!-- n22 -->
<g id="node24" class="node">
<title>n22</title>
<ellipse fill="none" stroke="black" cx="1785.92" cy="-259.38" rx="185.94" ry="37.45"/>
<text text-anchor="middle" x="1785.92" y="-270.68" font-family="Times,serif" font-size="14.00">inmediata</text>
<text text-anchor="middle" x="1785.92" y="-255.68" font-family="Times,serif" font-size="14.00">aq0fs0 (amod)</text>
<text text-anchor="middle" x="1785.92" y="-240.68" font-family="Times,serif" font-size="14.00">rep=no, t=no, r=no, m=yes, c=no</text>
</g>
<!-- n21&#45;&gt;n22 -->
<g id="edge23" class="edge">
<title>n21&#45;&gt;n22</title>
<path fill="none" stroke="black" d="M1785.92,-332.75C1785.92,-324.58 1785.92,-315.8 1785.92,-307.27"/>
<polygon fill="black" stroke="black" points="1789.42,-307.06 1785.92,-297.06 1782.42,-307.06 1789.42,-307.06"/>
</g>
<!-- n24 -->
<g id="node26" class="node">
<title>n24</title>
<ellipse fill="none" stroke="black" cx="2175.92" cy="-259.38" rx="185.94" ry="37.45"/>
<text text-anchor="middle" x="2175.92" y="-270.68" font-family="Times,serif" font-size="14.00">las</text>
<text text-anchor="middle" x="2175.92" y="-255.68" font-family="Times,serif" font-size="14.00">da0fp0 (det)</text>
<text text-anchor="middle" x="2175.92" y="-240.68" font-family="Times,serif" font-size="14.00">rep=no, t=no, r=no, m=yes, c=no</text>
</g>
<!-- n25&#45;&gt;n24 -->
<g id="edge25" class="edge">
<title>n25&#45;&gt;n24</title>
<path fill="none" stroke="black" d="M2175.92,-332.75C2175.92,-324.58 2175.92,-315.8 2175.92,-307.27"/>
<polygon fill="black" stroke="black" points="2179.42,-307.06 2175.92,-297.06 2172.42,-307.06 2179.42,-307.06"/>
</g>
<!-- n27 -->
<g id="node27" class="node">
<title>n27</title>
<ellipse fill="none" stroke="black" cx="2565.92" cy="-259.38" rx="185.94" ry="37.45"/>
<text text-anchor="middle" x="2565.92" y="-270.68" font-family="Times,serif" font-size="14.00">sufran</text>
<text text-anchor="middle" x="2565.92" y="-255.68" font-family="Times,serif" font-size="14.00">vmsp3p0 (rcmod)</text>
<text text-anchor="middle" x="2565.92" y="-240.68" font-family="Times,serif" font-size="14.00">rep=no, t=no, r=no, m=yes, c=no</text>
</g>
<!-- n25&#45;&gt;n27 -->
<g id="edge26" class="edge">
<title>n25&#45;&gt;n27</title>
<path fill="none" stroke="black" d="M2282.49,-339.56C2334.29,-325.09 2396.66,-307.67 2449.69,-292.85"/>
<polygon fill="black" stroke="black" points="2450.79,-296.18 2459.48,-290.12 2448.91,-289.44 2450.79,-296.18"/>
</g>
<!-- n26 -->
<g id="node28" class="node">
<title>n26</title>
<ellipse fill="none" stroke="black" cx="1972.92" cy="-148.43" rx="185.94" ry="37.45"/>
<text text-anchor="middle" x="1972.92" y="-159.73" font-family="Times,serif" font-size="14.00">que</text>
<text text-anchor="middle" x="1972.92" y="-144.73" font-family="Times,serif" font-size="14.00">pr0cn000 (nsubj)</text>
<text text-anchor="middle" x="1972.92" y="-129.73" font-family="Times,serif" font-size="14.00">rep=no, t=no, r=no, m=yes, c=no</text>
</g>
<!-- n27&#45;&gt;n26 -->
<g id="edge27" class="edge">
<title>n27&#45;&gt;n26</title>
<path fill="none" stroke="black" d="M2432.47,-233.25C2411.87,-229.42 2390.83,-225.53 2370.92,-221.91 2280.77,-205.48 2258.06,-202.33 2167.92,-185.91 2151.28,-182.87 2133.85,-179.66 2116.54,-176.45"/>
<polygon fill="black" stroke="black" points="2116.84,-172.95 2106.37,-174.57 2115.56,-179.83 2116.84,-172.95"/>
</g>
<!-- n28 -->
<g id="node29" class="node">
<title>n28</title>
<ellipse fill="none" stroke="black" cx="2367.92" cy="-148.43" rx="190.84" ry="37.45"/>
<text text-anchor="middle" x="2367.92" y="-159.73" font-family="Times,serif" font-size="14.00">gripe</text>
<text text-anchor="middle" x="2367.92" y="-144.73" font-family="Times,serif" font-size="14.00">ncfs000 (dobj)</text>
<text text-anchor="middle" x="2367.92" y="-129.73" font-family="Times,serif" font-size="14.00">rep=no, t=no, r=no, m=yes, c=yes</text>
</g>
<!-- n27&#45;&gt;n28 -->
<g id="edge28" class="edge">
<title>n27&#45;&gt;n28</title>
<path fill="none" stroke="black" d="M2503.54,-224.06C2483.21,-212.87 2460.48,-200.36 2439.52,-188.83"/>
<polygon fill="black" stroke="black" points="2441.11,-185.71 2430.66,-183.96 2437.74,-191.84 2441.11,-185.71"/>
</g>
<!-- n29 -->
<g id="node30" class="node">
<title>n29</title>
<ellipse fill="none" stroke="black" cx="2762.92" cy="-148.43" rx="185.94" ry="37.45"/>
<text text-anchor="middle" x="2762.92" y="-159.73" font-family="Times,serif" font-size="14.00">u</text>
<text text-anchor="middle" x="2762.92" y="-144.73" font-family="Times,serif" font-size="14.00">cc (coord_fixed)</text>
<text text-anchor="middle" x="2762.92" y="-129.73" font-family="Times,serif" font-size="14.00">rep=no, t=no, r=no, m=yes, c=no</text>
</g>
<!-- n27&#45;&gt;n29 -->
<g id="edge29" class="edge">
<title>n27&#45;&gt;n29</title>
<path fill="none" stroke="black" d="M2628.25,-223.91C2648.47,-212.73 2671.05,-200.24 2691.86,-188.73"/>
<polygon fill="black" stroke="black" points="2693.6,-191.77 2700.65,-183.87 2690.21,-185.64 2693.6,-191.77"/>
</g>
<!-- n31 -->
<g id="node31" class="node">
<title>n31</title>
<ellipse fill="none" stroke="black" cx="3157.92" cy="-148.43" rx="190.84" ry="37.45"/>
<text text-anchor="middle" x="3157.92" y="-159.73" font-family="Times,serif" font-size="14.00">procesos</text>
<text text-anchor="middle" x="3157.92" y="-144.73" font-family="Times,serif" font-size="14.00">ncmp000 (dobj)</text>
<text text-anchor="middle" x="3157.92" y="-129.73" font-family="Times,serif" font-size="14.00">rep=no, t=no, r=no, m=yes, c=yes</text>
</g>
<!-- n27&#45;&gt;n31 -->
<g id="edge30" class="edge">
<title>n27&#45;&gt;n31</title>
<path fill="none" stroke="black" d="M2700.99,-233.52C2793.53,-216.49 2916.2,-193.92 3011.14,-176.44"/>
<polygon fill="black" stroke="black" points="3011.92,-179.86 3021.12,-174.61 3010.65,-172.98 3011.92,-179.86"/>
</g>
<!-- n30 -->
<g id="node32" class="node">
<title>n30</title>
<ellipse fill="none" stroke="black" cx="2962.92" cy="-37.48" rx="185.94" ry="37.45"/>
<text text-anchor="middle" x="2962.92" y="-48.78" font-family="Times,serif" font-size="14.00">otros</text>
<text text-anchor="middle" x="2962.92" y="-33.78" font-family="Times,serif" font-size="14.00">di0mp0 (det)</text>
<text text-anchor="middle" x="2962.92" y="-18.78" font-family="Times,serif" font-size="14.00">rep=no, t=no, r=no, m=yes, c=no</text>
</g>
<!-- n31&#45;&gt;n30 -->
<g id="edge31" class="edge">
<title>n31&#45;&gt;n30</title>
<path fill="none" stroke="black" d="M3096.22,-112.96C3076.29,-101.82 3054.05,-89.4 3033.53,-77.93"/>
<polygon fill="black" stroke="black" points="3034.99,-74.74 3024.55,-72.91 3031.57,-80.85 3034.99,-74.74"/>
</g>
<!-- n32 -->
<g id="node33" class="node">
<title>n32</title>
<ellipse fill="none" stroke="black" cx="3352.92" cy="-37.48" rx="185.94" ry="37.45"/>
<text text-anchor="middle" x="3352.92" y="-48.78" font-family="Times,serif" font-size="14.00">leves</text>
<text text-anchor="middle" x="3352.92" y="-33.78" font-family="Times,serif" font-size="14.00">aq0cp0 (amod)</text>
<text text-anchor="middle" x="3352.92" y="-18.78" font-family="Times,serif" font-size="14.00">rep=no, t=no, r=no, m=yes, c=no</text>
</g>
<!-- n31&#45;&gt;n32 -->
<g id="edge32" class="edge">
<title>n31&#45;&gt;n32</title>
<path fill="none" stroke="black" d="M3219.62,-112.96C3239.54,-101.82 3261.79,-89.4 3282.3,-77.93"/>
<polygon fill="black" stroke="black" points="3284.26,-80.85 3291.29,-72.91 3280.85,-74.74 3284.26,-80.85"/>
</g>
</g>
</svg>
