<?xml version="1.0" encoding="UTF-8" standalone="no"?>
<!DOCTYPE svg PUBLIC "-//W3C//DTD SVG 1.1//EN"
 "http://www.w3.org/Graphics/SVG/1.1/DTD/svg11.dtd">
<!-- Generated by graphviz version 2.43.0 (0)
 -->
<!-- Title: tree Pages: 1 -->
<svg width="7880pt" height="1414pt"
 viewBox="0.00 0.00 7879.89 1414.39" xmlns="http://www.w3.org/2000/svg" xmlns:xlink="http://www.w3.org/1999/xlink">
<g id="graph0" class="graph" transform="scale(1 1) rotate(0) translate(4 1410.39)">
<title>tree</title>
<polygon fill="white" stroke="transparent" points="-4,4 -4,-1410.39 7875.89,-1410.39 7875.89,4 -4,4"/>
<!-- n21 -->
<g id="node1" class="node">
<title>n21</title>
<ellipse fill="none" stroke="black" cx="3185.92" cy="-1368.92" rx="185.94" ry="37.45"/>
<text text-anchor="middle" x="3185.92" y="-1380.22" font-family="Times,serif" font-size="14.00">y</text>
<text text-anchor="middle" x="3185.92" y="-1365.22" font-family="Times,serif" font-size="14.00">cc (root)</text>
<text text-anchor="middle" x="3185.92" y="-1350.22" font-family="Times,serif" font-size="14.00">rep=no, t=no, r=no, m=yes, c=no</text>
</g>
<!-- n17 -->
<g id="node2" class="node">
<title>n17</title>
<ellipse fill="#DA79E8" stroke="black" cx="2390.92" cy="-1257.96" rx="190.84" ry="37.45"/>
<text text-anchor="middle" x="2390.92" y="-1269.26" font-family="Times,serif" font-size="14.00">han</text>
<text text-anchor="middle" x="2390.92" y="-1254.26" font-family="Times,serif" font-size="14.00">vaip3p0 (coord)</text>
<text text-anchor="middle" x="2390.92" y="-1239.26" font-family="Times,serif" font-size="14.00">rep=no, t=no, r=yes, m=yes, c=no</text>
</g>
<!-- n21&#45;&gt;n17 -->
<g id="edge1" class="edge">
<title>n21&#45;&gt;n17</title>
<path fill="none" stroke="black" d="M3034.05,-1347.1C2897.06,-1328.33 2696.06,-1300.78 2555.33,-1281.5"/>
<polygon fill="black" stroke="black" points="2555.69,-1278.01 2545.3,-1280.12 2554.73,-1284.95 2555.69,-1278.01"/>
</g>
<!-- n22 -->
<g id="node3" class="node">
<title>n22</title>
<ellipse fill="none" stroke="black" cx="3185.92" cy="-1257.96" rx="185.94" ry="37.45"/>
<text text-anchor="middle" x="3185.92" y="-1269.26" font-family="Times,serif" font-size="14.00">han</text>
<text text-anchor="middle" x="3185.92" y="-1254.26" font-family="Times,serif" font-size="14.00">vaip3p0 (coord)</text>
<text text-anchor="middle" x="3185.92" y="-1239.26" font-family="Times,serif" font-size="14.00">rep=no, t=no, r=no, m=yes, c=no</text>
</g>
<!-- n21&#45;&gt;n22 -->
<g id="edge2" class="edge">
<title>n21&#45;&gt;n22</title>
<path fill="none" stroke="black" d="M3185.92,-1331.33C3185.92,-1323.16 3185.92,-1314.38 3185.92,-1305.85"/>
<polygon fill="black" stroke="black" points="3189.42,-1305.64 3185.92,-1295.64 3182.42,-1305.64 3189.42,-1305.64"/>
</g>
<!-- n58 -->
<g id="node4" class="node">
<title>n58</title>
<ellipse fill="none" stroke="black" cx="3571.92" cy="-1257.96" rx="181.95" ry="37.45"/>
<text text-anchor="middle" x="3571.92" y="-1269.26" font-family="Times,serif" font-size="14.00">.</text>
<text text-anchor="middle" x="3571.92" y="-1254.26" font-family="Times,serif" font-size="14.00">fp (punct)</text>
<text text-anchor="middle" x="3571.92" y="-1239.26" font-family="Times,serif" font-size="14.00">rep=no, t=no, r=no, m=no, c=no</text>
</g>
<!-- n21&#45;&gt;n58 -->
<g id="edge3" class="edge">
<title>n21&#45;&gt;n58</title>
<path fill="none" stroke="black" d="M3291.65,-1338.07C3342.92,-1323.6 3404.6,-1306.19 3457.03,-1291.39"/>
<polygon fill="black" stroke="black" points="3458.03,-1294.75 3466.7,-1288.66 3456.13,-1288.01 3458.03,-1294.75"/>
</g>
<!-- n3 -->
<g id="node5" class="node">
<title>n3</title>
<ellipse fill="none" stroke="black" cx="1395.92" cy="-1147.01" rx="185.94" ry="37.45"/>
<text text-anchor="middle" x="1395.92" y="-1158.31" font-family="Times,serif" font-size="14.00">,</text>
<text text-anchor="middle" x="1395.92" y="-1143.31" font-family="Times,serif" font-size="14.00">fc (punct)</text>
<text text-anchor="middle" x="1395.92" y="-1128.31" font-family="Times,serif" font-size="14.00">rep=no, t=no, r=no, m=yes, c=no</text>
</g>
<!-- n17&#45;&gt;n3 -->
<g id="edge4" class="edge">
<title>n17&#45;&gt;n3</title>
<path fill="none" stroke="black" d="M2210.45,-1245.51C2047.94,-1234.03 1802.79,-1213.83 1590.92,-1184.49 1572.84,-1181.98 1553.9,-1178.95 1535.22,-1175.72"/>
<polygon fill="black" stroke="black" points="1535.63,-1172.24 1525.18,-1173.96 1534.43,-1179.14 1535.63,-1172.24"/>
</g>
<!-- n5 -->
<g id="node6" class="node">
<title>n5</title>
<ellipse fill="#BEDA48" stroke="black" cx="1790.92" cy="-1147.01" rx="190.84" ry="37.45"/>
<text text-anchor="middle" x="1790.92" y="-1158.31" font-family="Times,serif" font-size="14.00">hospitales</text>
<text text-anchor="middle" x="1790.92" y="-1143.31" font-family="Times,serif" font-size="14.00">ncmp000 (nsubj)</text>
<text text-anchor="middle" x="1790.92" y="-1128.31" font-family="Times,serif" font-size="14.00">rep=no, t=yes, r=no, m=yes, c=no</text>
</g>
<!-- n17&#45;&gt;n5 -->
<g id="edge5" class="edge">
<title>n17&#45;&gt;n5</title>
<path fill="none" stroke="black" d="M2253.27,-1231.97C2159.29,-1214.9 2034.89,-1192.31 1938.8,-1174.86"/>
<polygon fill="black" stroke="black" points="1939.17,-1171.37 1928.71,-1173.03 1937.92,-1178.26 1939.17,-1171.37"/>
</g>
<!-- n18 -->
<g id="node7" class="node">
<title>n18</title>
<ellipse fill="#DA79E8" stroke="black" cx="2990.92" cy="-1147.01" rx="190.84" ry="37.45"/>
<text text-anchor="middle" x="2990.92" y="-1158.31" font-family="Times,serif" font-size="14.00">recogido</text>
<text text-anchor="middle" x="2990.92" y="-1143.31" font-family="Times,serif" font-size="14.00">vmp00sm (vobj)</text>
<text text-anchor="middle" x="2990.92" y="-1128.31" font-family="Times,serif" font-size="14.00">rep=no, t=no, r=yes, m=yes, c=no</text>
</g>
<!-- n17&#45;&gt;n18 -->
<g id="edge6" class="edge">
<title>n17&#45;&gt;n18</title>
<path fill="none" stroke="black" d="M2528.57,-1231.97C2622.55,-1214.9 2746.95,-1192.31 2843.04,-1174.86"/>
<polygon fill="black" stroke="black" points="2843.92,-1178.26 2853.13,-1173.03 2842.66,-1171.37 2843.92,-1178.26"/>
</g>
<!-- n23 -->
<g id="node24" class="node">
<title>n23</title>
<ellipse fill="none" stroke="black" cx="3585.92" cy="-1147.01" rx="185.94" ry="37.45"/>
<text text-anchor="middle" x="3585.92" y="-1158.31" font-family="Times,serif" font-size="14.00">establecido</text>
<text text-anchor="middle" x="3585.92" y="-1143.31" font-family="Times,serif" font-size="14.00">vmp00sm (vobj)</text>
<text text-anchor="middle" x="3585.92" y="-1128.31" font-family="Times,serif" font-size="14.00">rep=no, t=no, r=no, m=yes, c=no</text>
</g>
<!-- n22&#45;&gt;n23 -->
<g id="edge23" class="edge">
<title>n22&#45;&gt;n23</title>
<path fill="none" stroke="black" d="M3294.16,-1227.48C3347.86,-1212.85 3412.82,-1195.16 3467.8,-1180.18"/>
<polygon fill="black" stroke="black" points="3468.86,-1183.52 3477.59,-1177.52 3467.02,-1176.77 3468.86,-1183.52"/>
</g>
<!-- n4 -->
<g id="node8" class="node">
<title>n4</title>
<ellipse fill="#BEDA48" stroke="black" cx="580.92" cy="-1036.06" rx="190.84" ry="37.45"/>
<text text-anchor="middle" x="580.92" y="-1047.36" font-family="Times,serif" font-size="14.00">dos</text>
<text text-anchor="middle" x="580.92" y="-1032.36" font-family="Times,serif" font-size="14.00">dn0cp0 (det)</text>
<text text-anchor="middle" x="580.92" y="-1017.36" font-family="Times,serif" font-size="14.00">rep=no, t=yes, r=no, m=yes, c=no</text>
</g>
<!-- n5&#45;&gt;n4 -->
<g id="edge7" class="edge">
<title>n5&#45;&gt;n4</title>
<path fill="none" stroke="black" d="M1660.58,-1119.6C1637.46,-1115.67 1613.54,-1112.09 1590.92,-1109.53 1232.84,-1069.11 1139,-1113.95 780.92,-1073.53 761.57,-1071.35 741.27,-1068.41 721.32,-1065.15"/>
<polygon fill="black" stroke="black" points="721.69,-1061.66 711.25,-1063.47 720.54,-1068.56 721.69,-1061.66"/>
</g>
<!-- n6 -->
<g id="node9" class="node">
<title>n6</title>
<ellipse fill="#BEDA48" stroke="black" cx="980.92" cy="-1036.06" rx="190.84" ry="37.45"/>
<text text-anchor="middle" x="980.92" y="-1047.36" font-family="Times,serif" font-size="14.00">de</text>
<text text-anchor="middle" x="980.92" y="-1032.36" font-family="Times,serif" font-size="14.00">sps00 (prepn)</text>
<text text-anchor="middle" x="980.92" y="-1017.36" font-family="Times,serif" font-size="14.00">rep=no, t=yes, r=no, m=yes, c=no</text>
</g>
<!-- n5&#45;&gt;n6 -->
<g id="edge8" class="edge">
<title>n5&#45;&gt;n6</title>
<path fill="none" stroke="black" d="M1658.06,-1120C1635.7,-1116.13 1612.69,-1112.47 1590.92,-1109.53 1409.64,-1085.1 1362.2,-1097.97 1180.92,-1073.53 1162.38,-1071.03 1142.94,-1068.01 1123.77,-1064.77"/>
<polygon fill="black" stroke="black" points="1124.22,-1061.3 1113.78,-1063.07 1123.04,-1068.2 1124.22,-1061.3"/>
</g>
<!-- n10 -->
<g id="node10" class="node">
<title>n10</title>
<ellipse fill="#BEDA48" stroke="black" cx="1385.92" cy="-1036.06" rx="195.74" ry="37.45"/>
<text text-anchor="middle" x="1385.92" y="-1047.36" font-family="Times,serif" font-size="14.00">Sant</text>
<text text-anchor="middle" x="1385.92" y="-1032.36" font-family="Times,serif" font-size="14.00">np0000l (dep)</text>
<text text-anchor="middle" x="1385.92" y="-1017.36" font-family="Times,serif" font-size="14.00">rep=no, t=yes, r=no, m=yes, c=yes</text>
</g>
<!-- n5&#45;&gt;n10 -->
<g id="edge9" class="edge">
<title>n5&#45;&gt;n10</title>
<path fill="none" stroke="black" d="M1680.79,-1116.38C1626.98,-1101.91 1562.1,-1084.45 1506.92,-1069.61"/>
<polygon fill="black" stroke="black" points="1507.65,-1066.18 1497.09,-1066.96 1505.83,-1072.94 1507.65,-1066.18"/>
</g>
<!-- n12 -->
<g id="node11" class="node">
<title>n12</title>
<ellipse fill="#BEDA48" stroke="black" cx="1790.92" cy="-1036.06" rx="190.84" ry="37.45"/>
<text text-anchor="middle" x="1790.92" y="-1047.36" font-family="Times,serif" font-size="14.00">y</text>
<text text-anchor="middle" x="1790.92" y="-1032.36" font-family="Times,serif" font-size="14.00">cc (coord_fixed)</text>
<text text-anchor="middle" x="1790.92" y="-1017.36" font-family="Times,serif" font-size="14.00">rep=no, t=yes, r=no, m=yes, c=no</text>
</g>
<!-- n5&#45;&gt;n12 -->
<g id="edge10" class="edge">
<title>n5&#45;&gt;n12</title>
<path fill="none" stroke="black" d="M1790.92,-1109.43C1790.92,-1101.25 1790.92,-1092.47 1790.92,-1083.95"/>
<polygon fill="black" stroke="black" points="1794.42,-1083.73 1790.92,-1073.73 1787.42,-1083.73 1794.42,-1083.73"/>
</g>
<!-- n14 -->
<g id="node12" class="node">
<title>n14</title>
<ellipse fill="#BEDA48" stroke="black" cx="2390.92" cy="-1036.06" rx="195.74" ry="37.45"/>
<text text-anchor="middle" x="2390.92" y="-1047.36" font-family="Times,serif" font-size="14.00">d&#39;Hebron</text>
<text text-anchor="middle" x="2390.92" y="-1032.36" font-family="Times,serif" font-size="14.00">vmip3s0 (dep)</text>
<text text-anchor="middle" x="2390.92" y="-1017.36" font-family="Times,serif" font-size="14.00">rep=no, t=yes, r=no, m=yes, c=yes</text>
</g>
<!-- n5&#45;&gt;n14 -->
<g id="edge11" class="edge">
<title>n5&#45;&gt;n14</title>
<path fill="none" stroke="black" d="M1928.57,-1121.01C2021.97,-1104.05 2145.4,-1081.64 2241.24,-1064.24"/>
<polygon fill="black" stroke="black" points="2242.09,-1067.64 2251.31,-1062.41 2240.84,-1060.75 2242.09,-1067.64"/>
</g>
<!-- n1 -->
<g id="node20" class="node">
<title>n1</title>
<ellipse fill="#DA79E8" stroke="black" cx="2990.92" cy="-1036.06" rx="190.84" ry="37.45"/>
<text text-anchor="middle" x="2990.92" y="-1047.36" font-family="Times,serif" font-size="14.00">De</text>
<text text-anchor="middle" x="2990.92" y="-1032.36" font-family="Times,serif" font-size="14.00">sps00 (advmod)</text>
<text text-anchor="middle" x="2990.92" y="-1017.36" font-family="Times,serif" font-size="14.00">rep=no, t=no, r=yes, m=yes, c=no</text>
</g>
<!-- n18&#45;&gt;n1 -->
<g id="edge19" class="edge">
<title>n18&#45;&gt;n1</title>
<path fill="none" stroke="black" d="M2990.92,-1109.43C2990.92,-1101.25 2990.92,-1092.47 2990.92,-1083.95"/>
<polygon fill="black" stroke="black" points="2994.42,-1083.73 2990.92,-1073.73 2987.42,-1083.73 2994.42,-1083.73"/>
</g>
<!-- n20 -->
<g id="node21" class="node">
<title>n20</title>
<ellipse fill="#DA79E8" stroke="black" cx="3390.92" cy="-1036.06" rx="190.84" ry="37.45"/>
<text text-anchor="middle" x="3390.92" y="-1047.36" font-family="Times,serif" font-size="14.00">mensaje</text>
<text text-anchor="middle" x="3390.92" y="-1032.36" font-family="Times,serif" font-size="14.00">ncms000 (dobj)</text>
<text text-anchor="middle" x="3390.92" y="-1017.36" font-family="Times,serif" font-size="14.00">rep=no, t=no, r=yes, m=yes, c=no</text>
</g>
<!-- n18&#45;&gt;n20 -->
<g id="edge20" class="edge">
<title>n18&#45;&gt;n20</title>
<path fill="none" stroke="black" d="M3100.22,-1116.24C3153.36,-1101.76 3217.33,-1084.34 3271.71,-1069.53"/>
<polygon fill="black" stroke="black" points="3272.67,-1072.89 3281.4,-1066.89 3270.83,-1066.14 3272.67,-1072.89"/>
</g>
<!-- n7 -->
<g id="node13" class="node">
<title>n7</title>
<ellipse fill="#BEDA48" stroke="black" cx="190.92" cy="-925.1" rx="190.84" ry="37.45"/>
<text text-anchor="middle" x="190.92" y="-936.4" font-family="Times,serif" font-size="14.00">Barcelona</text>
<text text-anchor="middle" x="190.92" y="-921.4" font-family="Times,serif" font-size="14.00">np00000 (pobj)</text>
<text text-anchor="middle" x="190.92" y="-906.4" font-family="Times,serif" font-size="14.00">rep=no, t=yes, r=no, m=yes, c=no</text>
</g>
<!-- n6&#45;&gt;n7 -->
<g id="edge12" class="edge">
<title>n6&#45;&gt;n7</title>
<path fill="none" stroke="black" d="M848.05,-1009.13C825.69,-1005.25 802.69,-1001.56 780.92,-998.58 608.46,-974.94 563.38,-986.22 390.92,-962.58 372.38,-960.04 352.95,-956.99 333.78,-953.74"/>
<polygon fill="black" stroke="black" points="334.23,-950.27 323.79,-952.03 333.05,-957.17 334.23,-950.27"/>
</g>
<!-- n11 -->
<g id="node14" class="node">
<title>n11</title>
<ellipse fill="#BEDA48" stroke="black" cx="590.92" cy="-925.1" rx="190.84" ry="37.45"/>
<text text-anchor="middle" x="590.92" y="-936.4" font-family="Times,serif" font-size="14.00">Pau</text>
<text text-anchor="middle" x="590.92" y="-921.4" font-family="Times,serif" font-size="14.00">np0000l (appos)</text>
<text text-anchor="middle" x="590.92" y="-906.4" font-family="Times,serif" font-size="14.00">rep=no, t=yes, r=no, m=yes, c=no</text>
</g>
<!-- n10&#45;&gt;n11 -->
<g id="edge13" class="edge">
<title>n10&#45;&gt;n11</title>
<path fill="none" stroke="black" d="M1249.43,-1009.12C1226.61,-1005.26 1203.13,-1001.58 1180.92,-998.58 1008.41,-975.31 963.38,-986.22 790.92,-962.58 772.38,-960.04 752.95,-956.99 733.78,-953.74"/>
<polygon fill="black" stroke="black" points="734.23,-950.27 723.79,-952.03 733.05,-957.17 734.23,-950.27"/>
</g>
<!-- n8 -->
<g id="node15" class="node">
<title>n8</title>
<ellipse fill="#BEDA48" stroke="black" cx="990.92" cy="-925.1" rx="190.84" ry="37.45"/>
<text text-anchor="middle" x="990.92" y="-936.4" font-family="Times,serif" font-size="14.00">&#45;</text>
<text text-anchor="middle" x="990.92" y="-921.4" font-family="Times,serif" font-size="14.00">fg (punct)</text>
<text text-anchor="middle" x="990.92" y="-906.4" font-family="Times,serif" font-size="14.00">rep=no, t=yes, r=no, m=yes, c=no</text>
</g>
<!-- n12&#45;&gt;n8 -->
<g id="edge14" class="edge">
<title>n12&#45;&gt;n8</title>
<path fill="none" stroke="black" d="M1658.06,-1009.09C1635.7,-1005.22 1612.69,-1001.54 1590.92,-998.58 1414.05,-974.54 1367.79,-986.62 1190.92,-962.58 1172.38,-960.06 1152.94,-957.02 1133.77,-953.78"/>
<polygon fill="black" stroke="black" points="1134.23,-950.31 1123.78,-952.07 1133.05,-957.21 1134.23,-950.31"/>
</g>
<!-- n9 -->
<g id="node16" class="node">
<title>n9</title>
<ellipse fill="#BEDA48" stroke="black" cx="1390.92" cy="-925.1" rx="190.84" ry="37.45"/>
<text text-anchor="middle" x="1390.92" y="-936.4" font-family="Times,serif" font-size="14.00">&#45;</text>
<text text-anchor="middle" x="1390.92" y="-921.4" font-family="Times,serif" font-size="14.00">fg (punct)</text>
<text text-anchor="middle" x="1390.92" y="-906.4" font-family="Times,serif" font-size="14.00">rep=no, t=yes, r=no, m=yes, c=no</text>
</g>
<!-- n12&#45;&gt;n9 -->
<g id="edge15" class="edge">
<title>n12&#45;&gt;n9</title>
<path fill="none" stroke="black" d="M1681.62,-1005.28C1628.48,-990.81 1564.51,-973.39 1510.12,-958.57"/>
<polygon fill="black" stroke="black" points="1511,-955.18 1500.44,-955.93 1509.16,-961.94 1511,-955.18"/>
</g>
<!-- n15 -->
<g id="node17" class="node">
<title>n15</title>
<ellipse fill="#BEDA48" stroke="black" cx="1790.92" cy="-925.1" rx="190.84" ry="37.45"/>
<text text-anchor="middle" x="1790.92" y="-936.4" font-family="Times,serif" font-size="14.00">&#45;</text>
<text text-anchor="middle" x="1790.92" y="-921.4" font-family="Times,serif" font-size="14.00">fg (punct)</text>
<text text-anchor="middle" x="1790.92" y="-906.4" font-family="Times,serif" font-size="14.00">rep=no, t=yes, r=no, m=yes, c=no</text>
</g>
<!-- n12&#45;&gt;n15 -->
<g id="edge16" class="edge">
<title>n12&#45;&gt;n15</title>
<path fill="none" stroke="black" d="M1790.92,-998.47C1790.92,-990.3 1790.92,-981.52 1790.92,-972.99"/>
<polygon fill="black" stroke="black" points="1794.42,-972.78 1790.92,-962.78 1787.42,-972.78 1794.42,-972.78"/>
</g>
<!-- n16 -->
<g id="node18" class="node">
<title>n16</title>
<ellipse fill="#BEDA48" stroke="black" cx="2190.92" cy="-925.1" rx="190.84" ry="37.45"/>
<text text-anchor="middle" x="2190.92" y="-936.4" font-family="Times,serif" font-size="14.00">&#45;</text>
<text text-anchor="middle" x="2190.92" y="-921.4" font-family="Times,serif" font-size="14.00">fg (punct)</text>
<text text-anchor="middle" x="2190.92" y="-906.4" font-family="Times,serif" font-size="14.00">rep=no, t=yes, r=no, m=yes, c=no</text>
</g>
<!-- n12&#45;&gt;n16 -->
<g id="edge17" class="edge">
<title>n12&#45;&gt;n16</title>
<path fill="none" stroke="black" d="M1900.22,-1005.28C1953.36,-990.81 2017.33,-973.39 2071.71,-958.57"/>
<polygon fill="black" stroke="black" points="2072.67,-961.94 2081.4,-955.93 2070.83,-955.18 2072.67,-961.94"/>
</g>
<!-- n13 -->
<g id="node19" class="node">
<title>n13</title>
<ellipse fill="#BEDA48" stroke="black" cx="2590.92" cy="-925.1" rx="190.84" ry="37.45"/>
<text text-anchor="middle" x="2590.92" y="-936.4" font-family="Times,serif" font-size="14.00">Vall</text>
<text text-anchor="middle" x="2590.92" y="-921.4" font-family="Times,serif" font-size="14.00">np0000o (nsubj)</text>
<text text-anchor="middle" x="2590.92" y="-906.4" font-family="Times,serif" font-size="14.00">rep=no, t=yes, r=no, m=yes, c=no</text>
</g>
<!-- n14&#45;&gt;n13 -->
<g id="edge18" class="edge">
<title>n14&#45;&gt;n13</title>
<path fill="none" stroke="black" d="M2454.2,-1000.58C2474.73,-989.4 2497.65,-976.91 2518.78,-965.4"/>
<polygon fill="black" stroke="black" points="2520.6,-968.4 2527.71,-960.54 2517.25,-962.25 2520.6,-968.4"/>
</g>
<!-- n2 -->
<g id="node22" class="node">
<title>n2</title>
<ellipse fill="#DA79E8" stroke="black" cx="2990.92" cy="-925.1" rx="190.84" ry="37.45"/>
<text text-anchor="middle" x="2990.92" y="-936.4" font-family="Times,serif" font-size="14.00">momento</text>
<text text-anchor="middle" x="2990.92" y="-921.4" font-family="Times,serif" font-size="14.00">vmn0000 (pobj)</text>
<text text-anchor="middle" x="2990.92" y="-906.4" font-family="Times,serif" font-size="14.00">rep=no, t=no, r=yes, m=yes, c=no</text>
</g>
<!-- n1&#45;&gt;n2 -->
<g id="edge21" class="edge">
<title>n1&#45;&gt;n2</title>
<path fill="none" stroke="black" d="M2990.92,-998.47C2990.92,-990.3 2990.92,-981.52 2990.92,-972.99"/>
<polygon fill="black" stroke="black" points="2994.42,-972.78 2990.92,-962.78 2987.42,-972.78 2994.42,-972.78"/>
</g>
<!-- n19 -->
<g id="node23" class="node">
<title>n19</title>
<ellipse fill="#DA79E8" stroke="black" cx="3390.92" cy="-925.1" rx="190.84" ry="37.45"/>
<text text-anchor="middle" x="3390.92" y="-936.4" font-family="Times,serif" font-size="14.00">ese</text>
<text text-anchor="middle" x="3390.92" y="-921.4" font-family="Times,serif" font-size="14.00">dd0ms0 (det)</text>
<text text-anchor="middle" x="3390.92" y="-906.4" font-family="Times,serif" font-size="14.00">rep=no, t=no, r=yes, m=yes, c=no</text>
</g>
<!-- n20&#45;&gt;n19 -->
<g id="edge22" class="edge">
<title>n20&#45;&gt;n19</title>
<path fill="none" stroke="black" d="M3390.92,-998.47C3390.92,-990.3 3390.92,-981.52 3390.92,-972.99"/>
<polygon fill="black" stroke="black" points="3394.42,-972.78 3390.92,-962.78 3387.42,-972.78 3394.42,-972.78"/>
</g>
<!-- n24 -->
<g id="node25" class="node">
<title>n24</title>
<ellipse fill="none" stroke="black" cx="3785.92" cy="-1036.06" rx="185.94" ry="37.45"/>
<text text-anchor="middle" x="3785.92" y="-1047.36" font-family="Times,serif" font-size="14.00">consultorios</text>
<text text-anchor="middle" x="3785.92" y="-1032.36" font-family="Times,serif" font-size="14.00">ncmp000 (dobj)</text>
<text text-anchor="middle" x="3785.92" y="-1017.36" font-family="Times,serif" font-size="14.00">rep=no, t=no, r=no, m=yes, c=no</text>
</g>
<!-- n23&#45;&gt;n24 -->
<g id="edge24" class="edge">
<title>n23&#45;&gt;n24</title>
<path fill="none" stroke="black" d="M3648.93,-1111.69C3669.56,-1100.44 3692.65,-1087.87 3713.9,-1076.29"/>
<polygon fill="black" stroke="black" points="3715.78,-1079.25 3722.89,-1071.4 3712.43,-1073.11 3715.78,-1079.25"/>
</g>
<!-- n25 -->
<g id="node26" class="node">
<title>n25</title>
<ellipse fill="none" stroke="black" cx="3785.92" cy="-925.1" rx="185.94" ry="37.45"/>
<text text-anchor="middle" x="3785.92" y="-936.4" font-family="Times,serif" font-size="14.00">adosados</text>
<text text-anchor="middle" x="3785.92" y="-921.4" font-family="Times,serif" font-size="14.00">aq0mpp (amod)</text>
<text text-anchor="middle" x="3785.92" y="-906.4" font-family="Times,serif" font-size="14.00">rep=no, t=no, r=no, m=yes, c=no</text>
</g>
<!-- n24&#45;&gt;n25 -->
<g id="edge25" class="edge">
<title>n24&#45;&gt;n25</title>
<path fill="none" stroke="black" d="M3785.92,-998.47C3785.92,-990.3 3785.92,-981.52 3785.92,-972.99"/>
<polygon fill="black" stroke="black" points="3789.42,-972.78 3785.92,-962.78 3782.42,-972.78 3789.42,-972.78"/>
</g>
<!-- n31 -->
<g id="node27" class="node">
<title>n31</title>
<ellipse fill="none" stroke="black" cx="4565.92" cy="-925.1" rx="185.94" ry="37.45"/>
<text text-anchor="middle" x="4565.92" y="-936.4" font-family="Times,serif" font-size="14.00">atienden</text>
<text text-anchor="middle" x="4565.92" y="-921.4" font-family="Times,serif" font-size="14.00">vmip3p0 (dep)</text>
<text text-anchor="middle" x="4565.92" y="-906.4" font-family="Times,serif" font-size="14.00">rep=no, t=no, r=no, m=yes, c=no</text>
</g>
<!-- n24&#45;&gt;n31 -->
<g id="edge26" class="edge">
<title>n24&#45;&gt;n31</title>
<path fill="none" stroke="black" d="M3936.77,-1013.98C4071.25,-995.2 4267.51,-967.79 4404.97,-948.59"/>
<polygon fill="black" stroke="black" points="4405.75,-952.01 4415.17,-947.16 4404.79,-945.08 4405.75,-952.01"/>
</g>
<!-- n26 -->
<g id="node28" class="node">
<title>n26</title>
<ellipse fill="none" stroke="black" cx="3590.92" cy="-814.15" rx="185.94" ry="37.45"/>
<text text-anchor="middle" x="3590.92" y="-825.45" font-family="Times,serif" font-size="14.00">a</text>
<text text-anchor="middle" x="3590.92" y="-810.45" font-family="Times,serif" font-size="14.00">sps00 (oobj)</text>
<text text-anchor="middle" x="3590.92" y="-795.45" font-family="Times,serif" font-size="14.00">rep=no, t=no, r=no, m=yes, c=no</text>
</g>
<!-- n25&#45;&gt;n26 -->
<g id="edge27" class="edge">
<title>n25&#45;&gt;n26</title>
<path fill="none" stroke="black" d="M3724.22,-889.63C3704.29,-878.5 3682.05,-866.07 3661.53,-854.61"/>
<polygon fill="black" stroke="black" points="3662.99,-851.41 3652.55,-849.59 3659.57,-857.52 3662.99,-851.41"/>
</g>
<!-- n28 -->
<g id="node30" class="node">
<title>n28</title>
<ellipse fill="none" stroke="black" cx="3980.92" cy="-814.15" rx="185.94" ry="37.45"/>
<text text-anchor="middle" x="3980.92" y="-825.45" font-family="Times,serif" font-size="14.00">en</text>
<text text-anchor="middle" x="3980.92" y="-810.45" font-family="Times,serif" font-size="14.00">sps00 (prepv)</text>
<text text-anchor="middle" x="3980.92" y="-795.45" font-family="Times,serif" font-size="14.00">rep=no, t=no, r=no, m=yes, c=no</text>
</g>
<!-- n31&#45;&gt;n28 -->
<g id="edge29" class="edge">
<title>n31&#45;&gt;n28</title>
<path fill="none" stroke="black" d="M4431.44,-899.15C4356.27,-885.2 4260.88,-867.47 4175.92,-851.63 4159.43,-848.55 4142.16,-845.33 4125,-842.12"/>
<polygon fill="black" stroke="black" points="4125.39,-838.63 4114.92,-840.24 4124.11,-845.52 4125.39,-838.63"/>
</g>
<!-- n32 -->
<g id="node31" class="node">
<title>n32</title>
<ellipse fill="none" stroke="black" cx="4370.92" cy="-814.15" rx="185.94" ry="37.45"/>
<text text-anchor="middle" x="4370.92" y="-825.45" font-family="Times,serif" font-size="14.00">de</text>
<text text-anchor="middle" x="4370.92" y="-810.45" font-family="Times,serif" font-size="14.00">sps00 (advmod)</text>
<text text-anchor="middle" x="4370.92" y="-795.45" font-family="Times,serif" font-size="14.00">rep=no, t=no, r=no, m=yes, c=no</text>
</g>
<!-- n31&#45;&gt;n32 -->
<g id="edge30" class="edge">
<title>n31&#45;&gt;n32</title>
<path fill="none" stroke="black" d="M4504.22,-889.63C4484.29,-878.5 4462.05,-866.07 4441.53,-854.61"/>
<polygon fill="black" stroke="black" points="4442.99,-851.41 4432.55,-849.59 4439.57,-857.52 4442.99,-851.41"/>
</g>
<!-- n36 -->
<g id="node32" class="node">
<title>n36</title>
<ellipse fill="none" stroke="black" cx="4760.92" cy="-814.15" rx="185.94" ry="37.45"/>
<text text-anchor="middle" x="4760.92" y="-825.45" font-family="Times,serif" font-size="14.00">antes</text>
<text text-anchor="middle" x="4760.92" y="-810.45" font-family="Times,serif" font-size="14.00">rg (advmod)</text>
<text text-anchor="middle" x="4760.92" y="-795.45" font-family="Times,serif" font-size="14.00">rep=no, t=no, r=no, m=yes, c=no</text>
</g>
<!-- n31&#45;&gt;n36 -->
<g id="edge31" class="edge">
<title>n31&#45;&gt;n36</title>
<path fill="none" stroke="black" d="M4627.62,-889.63C4647.54,-878.5 4669.79,-866.07 4690.3,-854.61"/>
<polygon fill="black" stroke="black" points="4692.26,-857.52 4699.29,-849.59 4688.85,-851.41 4692.26,-857.52"/>
</g>
<!-- n40 -->
<g id="node33" class="node">
<title>n40</title>
<ellipse fill="none" stroke="black" cx="5150.92" cy="-814.15" rx="185.94" ry="37.45"/>
<text text-anchor="middle" x="5150.92" y="-825.45" font-family="Times,serif" font-size="14.00">,</text>
<text text-anchor="middle" x="5150.92" y="-810.45" font-family="Times,serif" font-size="14.00">fc (punct)</text>
<text text-anchor="middle" x="5150.92" y="-795.45" font-family="Times,serif" font-size="14.00">rep=no, t=no, r=no, m=yes, c=no</text>
</g>
<!-- n31&#45;&gt;n40 -->
<g id="edge32" class="edge">
<title>n31&#45;&gt;n40</title>
<path fill="none" stroke="black" d="M4700.39,-899.15C4775.57,-885.2 4870.95,-867.47 4955.92,-851.63 4972.41,-848.55 4989.68,-845.33 5006.83,-842.12"/>
<polygon fill="black" stroke="black" points="5007.73,-845.52 5016.92,-840.24 5006.44,-838.63 5007.73,-845.52"/>
</g>
<!-- n41 -->
<g id="node34" class="node">
<title>n41</title>
<ellipse fill="none" stroke="black" cx="5735.92" cy="-814.15" rx="185.94" ry="37.45"/>
<text text-anchor="middle" x="5735.92" y="-825.45" font-family="Times,serif" font-size="14.00">a</text>
<text text-anchor="middle" x="5735.92" y="-810.45" font-family="Times,serif" font-size="14.00">sps00 (dobj)</text>
<text text-anchor="middle" x="5735.92" y="-795.45" font-family="Times,serif" font-size="14.00">rep=no, t=no, r=no, m=yes, c=no</text>
</g>
<!-- n31&#45;&gt;n41 -->
<g id="edge33" class="edge">
<title>n31&#45;&gt;n41</title>
<path fill="none" stroke="black" d="M4733.29,-908.58C4891.24,-893.93 5134.67,-871.32 5345.92,-851.63 5415.48,-845.14 5492.01,-837.99 5558.72,-831.75"/>
<polygon fill="black" stroke="black" points="5559.28,-835.21 5568.91,-830.79 5558.63,-828.24 5559.28,-835.21"/>
</g>
<!-- n27 -->
<g id="node29" class="node">
<title>n27</title>
<ellipse fill="none" stroke="black" cx="3590.92" cy="-703.2" rx="185.94" ry="37.45"/>
<text text-anchor="middle" x="3590.92" y="-714.5" font-family="Times,serif" font-size="14.00">urgencias</text>
<text text-anchor="middle" x="3590.92" y="-699.5" font-family="Times,serif" font-size="14.00">ncfp000 (pobj)</text>
<text text-anchor="middle" x="3590.92" y="-684.5" font-family="Times,serif" font-size="14.00">rep=no, t=no, r=no, m=yes, c=no</text>
</g>
<!-- n26&#45;&gt;n27 -->
<g id="edge28" class="edge">
<title>n26&#45;&gt;n27</title>
<path fill="none" stroke="black" d="M3590.92,-776.57C3590.92,-768.39 3590.92,-759.61 3590.92,-751.09"/>
<polygon fill="black" stroke="black" points="3594.42,-750.87 3590.92,-740.87 3587.42,-750.87 3594.42,-750.87"/>
</g>
<!-- n30 -->
<g id="node35" class="node">
<title>n30</title>
<ellipse fill="none" stroke="black" cx="3980.92" cy="-703.2" rx="185.94" ry="37.45"/>
<text text-anchor="middle" x="3980.92" y="-714.5" font-family="Times,serif" font-size="14.00">que</text>
<text text-anchor="middle" x="3980.92" y="-699.5" font-family="Times,serif" font-size="14.00">pr0cn000 (pobj)</text>
<text text-anchor="middle" x="3980.92" y="-684.5" font-family="Times,serif" font-size="14.00">rep=no, t=no, r=no, m=yes, c=no</text>
</g>
<!-- n28&#45;&gt;n30 -->
<g id="edge34" class="edge">
<title>n28&#45;&gt;n30</title>
<path fill="none" stroke="black" d="M3980.92,-776.57C3980.92,-768.39 3980.92,-759.61 3980.92,-751.09"/>
<polygon fill="black" stroke="black" points="3984.42,-750.87 3980.92,-740.87 3977.42,-750.87 3984.42,-750.87"/>
</g>
<!-- n33 -->
<g id="node37" class="node">
<title>n33</title>
<ellipse fill="none" stroke="black" cx="4370.92" cy="-703.2" rx="185.94" ry="37.45"/>
<text text-anchor="middle" x="4370.92" y="-714.5" font-family="Times,serif" font-size="14.00">inmediato</text>
<text text-anchor="middle" x="4370.92" y="-699.5" font-family="Times,serif" font-size="14.00">aq0msp (pobj)</text>
<text text-anchor="middle" x="4370.92" y="-684.5" font-family="Times,serif" font-size="14.00">rep=no, t=no, r=no, m=yes, c=no</text>
</g>
<!-- n32&#45;&gt;n33 -->
<g id="edge36" class="edge">
<title>n32&#45;&gt;n33</title>
<path fill="none" stroke="black" d="M4370.92,-776.57C4370.92,-768.39 4370.92,-759.61 4370.92,-751.09"/>
<polygon fill="black" stroke="black" points="4374.42,-750.87 4370.92,-740.87 4367.42,-750.87 4374.42,-750.87"/>
</g>
<!-- n34 -->
<g id="node38" class="node">
<title>n34</title>
<ellipse fill="none" stroke="black" cx="4760.92" cy="-703.2" rx="185.94" ry="37.45"/>
<text text-anchor="middle" x="4760.92" y="-714.5" font-family="Times,serif" font-size="14.00">,</text>
<text text-anchor="middle" x="4760.92" y="-699.5" font-family="Times,serif" font-size="14.00">fc (punct)</text>
<text text-anchor="middle" x="4760.92" y="-684.5" font-family="Times,serif" font-size="14.00">rep=no, t=no, r=no, m=yes, c=no</text>
</g>
<!-- n36&#45;&gt;n34 -->
<g id="edge37" class="edge">
<title>n36&#45;&gt;n34</title>
<path fill="none" stroke="black" d="M4760.92,-776.57C4760.92,-768.39 4760.92,-759.61 4760.92,-751.09"/>
<polygon fill="black" stroke="black" points="4764.42,-750.87 4760.92,-740.87 4757.42,-750.87 4764.42,-750.87"/>
</g>
<!-- n35 -->
<g id="node39" class="node">
<title>n35</title>
<ellipse fill="none" stroke="black" cx="5150.92" cy="-703.2" rx="185.94" ry="37.45"/>
<text text-anchor="middle" x="5150.92" y="-714.5" font-family="Times,serif" font-size="14.00">o</text>
<text text-anchor="middle" x="5150.92" y="-699.5" font-family="Times,serif" font-size="14.00">cc (coord_fixed)</text>
<text text-anchor="middle" x="5150.92" y="-684.5" font-family="Times,serif" font-size="14.00">rep=no, t=no, r=no, m=yes, c=no</text>
</g>
<!-- n36&#45;&gt;n35 -->
<g id="edge38" class="edge">
<title>n36&#45;&gt;n35</title>
<path fill="none" stroke="black" d="M4867.49,-783.38C4919.29,-768.91 4981.66,-751.48 5034.69,-736.67"/>
<polygon fill="black" stroke="black" points="5035.79,-739.99 5044.48,-733.93 5033.91,-733.25 5035.79,-739.99"/>
</g>
<!-- n37 -->
<g id="node40" class="node">
<title>n37</title>
<ellipse fill="none" stroke="black" cx="5540.92" cy="-703.2" rx="185.94" ry="37.45"/>
<text text-anchor="middle" x="5540.92" y="-714.5" font-family="Times,serif" font-size="14.00">de</text>
<text text-anchor="middle" x="5540.92" y="-699.5" font-family="Times,serif" font-size="14.00">sps00 (prep)</text>
<text text-anchor="middle" x="5540.92" y="-684.5" font-family="Times,serif" font-size="14.00">rep=no, t=no, r=no, m=yes, c=no</text>
</g>
<!-- n36&#45;&gt;n37 -->
<g id="edge39" class="edge">
<title>n36&#45;&gt;n37</title>
<path fill="none" stroke="black" d="M4890.45,-787.18C4912.25,-783.31 4934.68,-779.63 4955.92,-776.67 5128.32,-752.64 5173.52,-764.7 5345.92,-740.67 5363.92,-738.16 5382.78,-735.14 5401.39,-731.92"/>
<polygon fill="black" stroke="black" points="5402.15,-735.34 5411.39,-730.17 5400.94,-728.45 5402.15,-735.34"/>
</g>
<!-- n43 -->
<g id="node43" class="node">
<title>n43</title>
<ellipse fill="none" stroke="black" cx="6125.92" cy="-703.2" rx="185.94" ry="37.45"/>
<text text-anchor="middle" x="6125.92" y="-714.5" font-family="Times,serif" font-size="14.00">personas</text>
<text text-anchor="middle" x="6125.92" y="-699.5" font-family="Times,serif" font-size="14.00">ncfp000 (pobj)</text>
<text text-anchor="middle" x="6125.92" y="-684.5" font-family="Times,serif" font-size="14.00">rep=no, t=no, r=no, m=yes, c=no</text>
</g>
<!-- n41&#45;&gt;n43 -->
<g id="edge42" class="edge">
<title>n41&#45;&gt;n43</title>
<path fill="none" stroke="black" d="M5842.49,-783.38C5894.29,-768.91 5956.66,-751.48 6009.69,-736.67"/>
<polygon fill="black" stroke="black" points="6010.79,-739.99 6019.48,-733.93 6008.91,-733.25 6010.79,-739.99"/>
</g>
<!-- n29 -->
<g id="node36" class="node">
<title>n29</title>
<ellipse fill="none" stroke="black" cx="3980.92" cy="-592.24" rx="185.94" ry="37.45"/>
<text text-anchor="middle" x="3980.92" y="-603.54" font-family="Times,serif" font-size="14.00">los</text>
<text text-anchor="middle" x="3980.92" y="-588.54" font-family="Times,serif" font-size="14.00">da0mp0 (det)</text>
<text text-anchor="middle" x="3980.92" y="-573.54" font-family="Times,serif" font-size="14.00">rep=no, t=no, r=no, m=yes, c=no</text>
</g>
<!-- n30&#45;&gt;n29 -->
<g id="edge35" class="edge">
<title>n30&#45;&gt;n29</title>
<path fill="none" stroke="black" d="M3980.92,-665.61C3980.92,-657.44 3980.92,-648.66 3980.92,-640.13"/>
<polygon fill="black" stroke="black" points="3984.42,-639.92 3980.92,-629.92 3977.42,-639.92 3984.42,-639.92"/>
</g>
<!-- n39 -->
<g id="node41" class="node">
<title>n39</title>
<ellipse fill="none" stroke="black" cx="5345.92" cy="-592.24" rx="185.94" ry="37.45"/>
<text text-anchor="middle" x="5345.92" y="-603.54" font-family="Times,serif" font-size="14.00">horas</text>
<text text-anchor="middle" x="5345.92" y="-588.54" font-family="Times,serif" font-size="14.00">ncfp000 (pobj)</text>
<text text-anchor="middle" x="5345.92" y="-573.54" font-family="Times,serif" font-size="14.00">rep=no, t=no, r=no, m=yes, c=no</text>
</g>
<!-- n37&#45;&gt;n39 -->
<g id="edge40" class="edge">
<title>n37&#45;&gt;n39</title>
<path fill="none" stroke="black" d="M5479.22,-667.72C5459.29,-656.59 5437.05,-644.16 5416.53,-632.7"/>
<polygon fill="black" stroke="black" points="5417.99,-629.5 5407.55,-627.68 5414.57,-635.61 5417.99,-629.5"/>
</g>
<!-- n38 -->
<g id="node42" class="node">
<title>n38</title>
<ellipse fill="none" stroke="black" cx="5345.92" cy="-481.29" rx="185.94" ry="37.45"/>
<text text-anchor="middle" x="5345.92" y="-492.59" font-family="Times,serif" font-size="14.00">24</text>
<text text-anchor="middle" x="5345.92" y="-477.59" font-family="Times,serif" font-size="14.00">z (num)</text>
<text text-anchor="middle" x="5345.92" y="-462.59" font-family="Times,serif" font-size="14.00">rep=no, t=no, r=no, m=yes, c=no</text>
</g>
<!-- n39&#45;&gt;n38 -->
<g id="edge41" class="edge">
<title>n39&#45;&gt;n38</title>
<path fill="none" stroke="black" d="M5345.92,-554.66C5345.92,-546.49 5345.92,-537.71 5345.92,-529.18"/>
<polygon fill="black" stroke="black" points="5349.42,-528.96 5345.92,-518.96 5342.42,-528.96 5349.42,-528.96"/>
</g>
<!-- n42 -->
<g id="node44" class="node">
<title>n42</title>
<ellipse fill="none" stroke="black" cx="5735.92" cy="-592.24" rx="185.94" ry="37.45"/>
<text text-anchor="middle" x="5735.92" y="-603.54" font-family="Times,serif" font-size="14.00">las</text>
<text text-anchor="middle" x="5735.92" y="-588.54" font-family="Times,serif" font-size="14.00">da0fp0 (det)</text>
<text text-anchor="middle" x="5735.92" y="-573.54" font-family="Times,serif" font-size="14.00">rep=no, t=no, r=no, m=yes, c=no</text>
</g>
<!-- n43&#45;&gt;n42 -->
<g id="edge43" class="edge">
<title>n43&#45;&gt;n42</title>
<path fill="none" stroke="black" d="M6019.35,-672.42C5967.54,-657.95 5905.17,-640.53 5852.15,-625.71"/>
<polygon fill="black" stroke="black" points="5852.93,-622.3 5842.36,-622.98 5851.05,-629.04 5852.93,-622.3"/>
</g>
<!-- n44 -->
<g id="node45" class="node">
<title>n44</title>
<ellipse fill="none" stroke="black" cx="6125.92" cy="-592.24" rx="185.94" ry="37.45"/>
<text text-anchor="middle" x="6125.92" y="-603.54" font-family="Times,serif" font-size="14.00">con</text>
<text text-anchor="middle" x="6125.92" y="-588.54" font-family="Times,serif" font-size="14.00">sps00 (prepn)</text>
<text text-anchor="middle" x="6125.92" y="-573.54" font-family="Times,serif" font-size="14.00">rep=no, t=no, r=no, m=yes, c=no</text>
</g>
<!-- n43&#45;&gt;n44 -->
<g id="edge44" class="edge">
<title>n43&#45;&gt;n44</title>
<path fill="none" stroke="black" d="M6125.92,-665.61C6125.92,-657.44 6125.92,-648.66 6125.92,-640.13"/>
<polygon fill="black" stroke="black" points="6129.42,-639.92 6125.92,-629.92 6122.42,-639.92 6129.42,-639.92"/>
</g>
<!-- n47 -->
<g id="node46" class="node">
<title>n47</title>
<ellipse fill="none" stroke="black" cx="6515.92" cy="-592.24" rx="185.94" ry="37.45"/>
<text text-anchor="middle" x="6515.92" y="-603.54" font-family="Times,serif" font-size="14.00">,</text>
<text text-anchor="middle" x="6515.92" y="-588.54" font-family="Times,serif" font-size="14.00">fc (punct)</text>
<text text-anchor="middle" x="6515.92" y="-573.54" font-family="Times,serif" font-size="14.00">rep=no, t=no, r=no, m=yes, c=no</text>
</g>
<!-- n43&#45;&gt;n47 -->
<g id="edge45" class="edge">
<title>n43&#45;&gt;n47</title>
<path fill="none" stroke="black" d="M6232.49,-672.42C6284.29,-657.95 6346.66,-640.53 6399.69,-625.71"/>
<polygon fill="black" stroke="black" points="6400.79,-629.04 6409.48,-622.98 6398.91,-622.3 6400.79,-629.04"/>
</g>
<!-- n49 -->
<g id="node47" class="node">
<title>n49</title>
<ellipse fill="none" stroke="black" cx="6905.92" cy="-592.24" rx="185.94" ry="37.45"/>
<text text-anchor="middle" x="6905.92" y="-603.54" font-family="Times,serif" font-size="14.00">suponen</text>
<text text-anchor="middle" x="6905.92" y="-588.54" font-family="Times,serif" font-size="14.00">vmip3p0 (rcmod)</text>
<text text-anchor="middle" x="6905.92" y="-573.54" font-family="Times,serif" font-size="14.00">rep=no, t=no, r=no, m=yes, c=no</text>
</g>
<!-- n43&#45;&gt;n49 -->
<g id="edge46" class="edge">
<title>n43&#45;&gt;n49</title>
<path fill="none" stroke="black" d="M6288.32,-684.8C6405.92,-671.53 6568.58,-651.83 6710.92,-629.72 6728.44,-627 6746.79,-623.9 6764.94,-620.68"/>
<polygon fill="black" stroke="black" points="6765.77,-624.09 6774.99,-618.88 6764.53,-617.2 6765.77,-624.09"/>
</g>
<!-- n45 -->
<g id="node48" class="node">
<title>n45</title>
<ellipse fill="none" stroke="black" cx="6125.92" cy="-481.29" rx="185.94" ry="37.45"/>
<text text-anchor="middle" x="6125.92" y="-492.59" font-family="Times,serif" font-size="14.00">patologías</text>
<text text-anchor="middle" x="6125.92" y="-477.59" font-family="Times,serif" font-size="14.00">ncfp000 (pobj)</text>
<text text-anchor="middle" x="6125.92" y="-462.59" font-family="Times,serif" font-size="14.00">rep=no, t=no, r=no, m=yes, c=no</text>
</g>
<!-- n44&#45;&gt;n45 -->
<g id="edge47" class="edge">
<title>n44&#45;&gt;n45</title>
<path fill="none" stroke="black" d="M6125.92,-554.66C6125.92,-546.49 6125.92,-537.71 6125.92,-529.18"/>
<polygon fill="black" stroke="black" points="6129.42,-528.96 6125.92,-518.96 6122.42,-528.96 6129.42,-528.96"/>
</g>
<!-- n48 -->
<g id="node50" class="node">
<title>n48</title>
<ellipse fill="none" stroke="black" cx="6710.92" cy="-481.29" rx="185.94" ry="37.45"/>
<text text-anchor="middle" x="6710.92" y="-492.59" font-family="Times,serif" font-size="14.00">que</text>
<text text-anchor="middle" x="6710.92" y="-477.59" font-family="Times,serif" font-size="14.00">pr0cn000 (nsubj)</text>
<text text-anchor="middle" x="6710.92" y="-462.59" font-family="Times,serif" font-size="14.00">rep=no, t=no, r=no, m=yes, c=no</text>
</g>
<!-- n49&#45;&gt;n48 -->
<g id="edge49" class="edge">
<title>n49&#45;&gt;n48</title>
<path fill="none" stroke="black" d="M6844.22,-556.77C6824.29,-545.64 6802.05,-533.21 6781.53,-521.75"/>
<polygon fill="black" stroke="black" points="6782.99,-518.55 6772.55,-516.73 6779.57,-524.66 6782.99,-518.55"/>
</g>
<!-- n52 -->
<g id="node51" class="node">
<title>n52</title>
<ellipse fill="none" stroke="black" cx="7100.92" cy="-481.29" rx="185.94" ry="37.45"/>
<text text-anchor="middle" x="7100.92" y="-492.59" font-family="Times,serif" font-size="14.00">20%</text>
<text text-anchor="middle" x="7100.92" y="-477.59" font-family="Times,serif" font-size="14.00">z (dobj)</text>
<text text-anchor="middle" x="7100.92" y="-462.59" font-family="Times,serif" font-size="14.00">rep=no, t=no, r=no, m=yes, c=no</text>
</g>
<!-- n49&#45;&gt;n52 -->
<g id="edge50" class="edge">
<title>n49&#45;&gt;n52</title>
<path fill="none" stroke="black" d="M6967.62,-556.77C6987.54,-545.64 7009.79,-533.21 7030.3,-521.75"/>
<polygon fill="black" stroke="black" points="7032.26,-524.66 7039.29,-516.73 7028.85,-518.55 7032.26,-524.66"/>
</g>
<!-- n46 -->
<g id="node49" class="node">
<title>n46</title>
<ellipse fill="none" stroke="black" cx="6125.92" cy="-370.34" rx="185.94" ry="37.45"/>
<text text-anchor="middle" x="6125.92" y="-381.64" font-family="Times,serif" font-size="14.00">leves</text>
<text text-anchor="middle" x="6125.92" y="-366.64" font-family="Times,serif" font-size="14.00">aq0cp0 (amod)</text>
<text text-anchor="middle" x="6125.92" y="-351.64" font-family="Times,serif" font-size="14.00">rep=no, t=no, r=no, m=yes, c=no</text>
</g>
<!-- n45&#45;&gt;n46 -->
<g id="edge48" class="edge">
<title>n45&#45;&gt;n46</title>
<path fill="none" stroke="black" d="M6125.92,-443.71C6125.92,-435.53 6125.92,-426.75 6125.92,-418.23"/>
<polygon fill="black" stroke="black" points="6129.42,-418.01 6125.92,-408.01 6122.42,-418.01 6129.42,-418.01"/>
</g>
<!-- n50 -->
<g id="node52" class="node">
<title>n50</title>
<ellipse fill="none" stroke="black" cx="6710.92" cy="-370.34" rx="185.94" ry="37.45"/>
<text text-anchor="middle" x="6710.92" y="-381.64" font-family="Times,serif" font-size="14.00">casi</text>
<text text-anchor="middle" x="6710.92" y="-366.64" font-family="Times,serif" font-size="14.00">rg (advmod)</text>
<text text-anchor="middle" x="6710.92" y="-351.64" font-family="Times,serif" font-size="14.00">rep=no, t=no, r=no, m=yes, c=no</text>
</g>
<!-- n52&#45;&gt;n50 -->
<g id="edge51" class="edge">
<title>n52&#45;&gt;n50</title>
<path fill="none" stroke="black" d="M6994.35,-450.52C6942.54,-436.05 6880.17,-418.62 6827.15,-403.81"/>
<polygon fill="black" stroke="black" points="6827.93,-400.39 6817.36,-401.07 6826.05,-407.13 6827.93,-400.39"/>
</g>
<!-- n51 -->
<g id="node53" class="node">
<title>n51</title>
<ellipse fill="none" stroke="black" cx="7100.92" cy="-370.34" rx="185.94" ry="37.45"/>
<text text-anchor="middle" x="7100.92" y="-381.64" font-family="Times,serif" font-size="14.00">un</text>
<text text-anchor="middle" x="7100.92" y="-366.64" font-family="Times,serif" font-size="14.00">di0ms0 (det)</text>
<text text-anchor="middle" x="7100.92" y="-351.64" font-family="Times,serif" font-size="14.00">rep=no, t=no, r=no, m=yes, c=no</text>
</g>
<!-- n52&#45;&gt;n51 -->
<g id="edge52" class="edge">
<title>n52&#45;&gt;n51</title>
<path fill="none" stroke="black" d="M7100.92,-443.71C7100.92,-435.53 7100.92,-426.75 7100.92,-418.23"/>
<polygon fill="black" stroke="black" points="7104.42,-418.01 7100.92,-408.01 7097.42,-418.01 7104.42,-418.01"/>
</g>
<!-- n53 -->
<g id="node54" class="node">
<title>n53</title>
<ellipse fill="none" stroke="black" cx="7490.92" cy="-370.34" rx="185.94" ry="37.45"/>
<text text-anchor="middle" x="7490.92" y="-381.64" font-family="Times,serif" font-size="14.00">de</text>
<text text-anchor="middle" x="7490.92" y="-366.64" font-family="Times,serif" font-size="14.00">sps00 (prep)</text>
<text text-anchor="middle" x="7490.92" y="-351.64" font-family="Times,serif" font-size="14.00">rep=no, t=no, r=no, m=yes, c=no</text>
</g>
<!-- n52&#45;&gt;n53 -->
<g id="edge53" class="edge">
<title>n52&#45;&gt;n53</title>
<path fill="none" stroke="black" d="M7207.49,-450.52C7259.29,-436.05 7321.66,-418.62 7374.69,-403.81"/>
<polygon fill="black" stroke="black" points="7375.79,-407.13 7384.48,-401.07 7373.91,-400.39 7375.79,-407.13"/>
</g>
<!-- n55 -->
<g id="node55" class="node">
<title>n55</title>
<ellipse fill="none" stroke="black" cx="7490.92" cy="-259.38" rx="185.94" ry="37.45"/>
<text text-anchor="middle" x="7490.92" y="-270.68" font-family="Times,serif" font-size="14.00">demanda</text>
<text text-anchor="middle" x="7490.92" y="-255.68" font-family="Times,serif" font-size="14.00">ncfs000 (pobj)</text>
<text text-anchor="middle" x="7490.92" y="-240.68" font-family="Times,serif" font-size="14.00">rep=no, t=no, r=no, m=yes, c=no</text>
</g>
<!-- n53&#45;&gt;n55 -->
<g id="edge54" class="edge">
<title>n53&#45;&gt;n55</title>
<path fill="none" stroke="black" d="M7490.92,-332.75C7490.92,-324.58 7490.92,-315.8 7490.92,-307.27"/>
<polygon fill="black" stroke="black" points="7494.42,-307.06 7490.92,-297.06 7487.42,-307.06 7494.42,-307.06"/>
</g>
<!-- n54 -->
<g id="node56" class="node">
<title>n54</title>
<ellipse fill="none" stroke="black" cx="7295.92" cy="-148.43" rx="185.94" ry="37.45"/>
<text text-anchor="middle" x="7295.92" y="-159.73" font-family="Times,serif" font-size="14.00">la</text>
<text text-anchor="middle" x="7295.92" y="-144.73" font-family="Times,serif" font-size="14.00">da0fs0 (det)</text>
<text text-anchor="middle" x="7295.92" y="-129.73" font-family="Times,serif" font-size="14.00">rep=no, t=no, r=no, m=yes, c=no</text>
</g>
<!-- n55&#45;&gt;n54 -->
<g id="edge55" class="edge">
<title>n55&#45;&gt;n54</title>
<path fill="none" stroke="black" d="M7429.22,-223.91C7409.29,-212.78 7387.05,-200.35 7366.53,-188.89"/>
<polygon fill="black" stroke="black" points="7367.99,-185.69 7357.55,-183.87 7364.57,-191.8 7367.99,-185.69"/>
</g>
<!-- n56 -->
<g id="node57" class="node">
<title>n56</title>
<ellipse fill="none" stroke="black" cx="7685.92" cy="-148.43" rx="185.94" ry="37.45"/>
<text text-anchor="middle" x="7685.92" y="-159.73" font-family="Times,serif" font-size="14.00">de</text>
<text text-anchor="middle" x="7685.92" y="-144.73" font-family="Times,serif" font-size="14.00">sps00 (prepn)</text>
<text text-anchor="middle" x="7685.92" y="-129.73" font-family="Times,serif" font-size="14.00">rep=no, t=no, r=no, m=yes, c=no</text>
</g>
<!-- n55&#45;&gt;n56 -->
<g id="edge56" class="edge">
<title>n55&#45;&gt;n56</title>
<path fill="none" stroke="black" d="M7552.62,-223.91C7572.54,-212.78 7594.79,-200.35 7615.3,-188.89"/>
<polygon fill="black" stroke="black" points="7617.26,-191.8 7624.29,-183.87 7613.85,-185.69 7617.26,-191.8"/>
</g>
<!-- n57 -->
<g id="node58" class="node">
<title>n57</title>
<ellipse fill="none" stroke="black" cx="7685.92" cy="-37.48" rx="185.94" ry="37.45"/>
<text text-anchor="middle" x="7685.92" y="-48.78" font-family="Times,serif" font-size="14.00">urgencias</text>
<text text-anchor="middle" x="7685.92" y="-33.78" font-family="Times,serif" font-size="14.00">ncfp000 (pobj)</text>
<text text-anchor="middle" x="7685.92" y="-18.78" font-family="Times,serif" font-size="14.00">rep=no, t=no, r=no, m=yes, c=no</text>
</g>
<!-- n56&#45;&gt;n57 -->
<g id="edge57" class="edge">
<title>n56&#45;&gt;n57</title>
<path fill="none" stroke="black" d="M7685.92,-110.85C7685.92,-102.67 7685.92,-93.89 7685.92,-85.37"/>
<polygon fill="black" stroke="black" points="7689.42,-85.15 7685.92,-75.15 7682.42,-85.15 7689.42,-85.15"/>
</g>
</g>
</svg>
