<?xml version="1.0" encoding="UTF-8" standalone="no"?>
<!DOCTYPE svg PUBLIC "-//W3C//DTD SVG 1.1//EN"
 "http://www.w3.org/Graphics/SVG/1.1/DTD/svg11.dtd">
<!-- Generated by graphviz version 2.43.0 (0)
 -->
<!-- Title: tree Pages: 1 -->
<svg width="3840pt" height="1082pt"
 viewBox="0.00 0.00 3839.84 1081.53" xmlns="http://www.w3.org/2000/svg" xmlns:xlink="http://www.w3.org/1999/xlink">
<g id="graph0" class="graph" transform="scale(1 1) rotate(0) translate(4 1077.53)">
<title>tree</title>
<polygon fill="white" stroke="transparent" points="-4,4 -4,-1077.53 3835.84,-1077.53 3835.84,4 -4,4"/>
<!-- n14 -->
<g id="node1" class="node">
<title>n14</title>
<ellipse fill="#DA79E8" stroke="black" cx="1610.92" cy="-1036.06" rx="190.84" ry="37.45"/>
<text text-anchor="middle" x="1610.92" y="-1047.36" font-family="Times,serif" font-size="14.00">participaron</text>
<text text-anchor="middle" x="1610.92" y="-1032.36" font-family="Times,serif" font-size="14.00">vmis3p0 (root)</text>
<text text-anchor="middle" x="1610.92" y="-1017.36" font-family="Times,serif" font-size="14.00">rep=no, t=no, r=yes, m=yes, c=no</text>
</g>
<!-- n2 -->
<g id="node2" class="node">
<title>n2</title>
<ellipse fill="#BEDA48" stroke="black" cx="390.92" cy="-925.1" rx="195.74" ry="37.45"/>
<text text-anchor="middle" x="390.92" y="-936.4" font-family="Times,serif" font-size="14.00">millar</text>
<text text-anchor="middle" x="390.92" y="-921.4" font-family="Times,serif" font-size="14.00">ncms000 (nsubj)</text>
<text text-anchor="middle" x="390.92" y="-906.4" font-family="Times,serif" font-size="14.00">rep=no, t=yes, r=no, m=yes, c=yes</text>
</g>
<!-- n14&#45;&gt;n2 -->
<g id="edge1" class="edge">
<title>n14&#45;&gt;n2</title>
<path fill="none" stroke="black" d="M1424.67,-1027.62C1220.66,-1018.11 884.09,-998.41 595.92,-962.58 576.59,-960.18 556.31,-957.17 536.34,-953.92"/>
<polygon fill="black" stroke="black" points="536.68,-950.43 526.25,-952.25 535.54,-957.33 536.68,-950.43"/>
</g>
<!-- n5 -->
<g id="node3" class="node">
<title>n5</title>
<ellipse fill="#BEDA48" stroke="black" cx="795.92" cy="-925.1" rx="190.84" ry="37.45"/>
<text text-anchor="middle" x="795.92" y="-936.4" font-family="Times,serif" font-size="14.00">y</text>
<text text-anchor="middle" x="795.92" y="-921.4" font-family="Times,serif" font-size="14.00">cc (coord_fixed)</text>
<text text-anchor="middle" x="795.92" y="-906.4" font-family="Times,serif" font-size="14.00">rep=no, t=yes, r=no, m=yes, c=no</text>
</g>
<!-- n14&#45;&gt;n5 -->
<g id="edge2" class="edge">
<title>n14&#45;&gt;n5</title>
<path fill="none" stroke="black" d="M1442.83,-1018.14C1319,-1004.97 1146.63,-985.18 995.92,-962.58 977.87,-959.87 958.95,-956.77 940.26,-953.55"/>
<polygon fill="black" stroke="black" points="940.65,-950.06 930.2,-951.8 939.45,-956.96 940.65,-950.06"/>
</g>
<!-- n6 -->
<g id="node4" class="node">
<title>n6</title>
<ellipse fill="#BEDA48" stroke="black" cx="1200.92" cy="-925.1" rx="195.74" ry="37.45"/>
<text text-anchor="middle" x="1200.92" y="-936.4" font-family="Times,serif" font-size="14.00">niños</text>
<text text-anchor="middle" x="1200.92" y="-921.4" font-family="Times,serif" font-size="14.00">ncmp000 (nsubj)</text>
<text text-anchor="middle" x="1200.92" y="-906.4" font-family="Times,serif" font-size="14.00">rep=no, t=yes, r=no, m=yes, c=yes</text>
</g>
<!-- n14&#45;&gt;n6 -->
<g id="edge3" class="edge">
<title>n14&#45;&gt;n6</title>
<path fill="none" stroke="black" d="M1499.7,-1005.5C1445,-990.97 1378.95,-973.41 1322.87,-958.51"/>
<polygon fill="black" stroke="black" points="1323.45,-955.04 1312.89,-955.86 1321.65,-961.81 1323.45,-955.04"/>
</g>
<!-- n7 -->
<g id="node5" class="node">
<title>n7</title>
<ellipse fill="#BEDA48" stroke="black" cx="1610.92" cy="-925.1" rx="195.74" ry="37.45"/>
<text text-anchor="middle" x="1610.92" y="-936.4" font-family="Times,serif" font-size="14.00">procedentes</text>
<text text-anchor="middle" x="1610.92" y="-921.4" font-family="Times,serif" font-size="14.00">aq0cp0 (nsubj)</text>
<text text-anchor="middle" x="1610.92" y="-906.4" font-family="Times,serif" font-size="14.00">rep=no, t=yes, r=no, m=yes, c=yes</text>
</g>
<!-- n14&#45;&gt;n7 -->
<g id="edge4" class="edge">
<title>n14&#45;&gt;n7</title>
<path fill="none" stroke="black" d="M1610.92,-998.47C1610.92,-990.3 1610.92,-981.52 1610.92,-972.99"/>
<polygon fill="black" stroke="black" points="1614.42,-972.78 1610.92,-962.78 1607.42,-972.78 1614.42,-972.78"/>
</g>
<!-- n15 -->
<g id="node6" class="node">
<title>n15</title>
<ellipse fill="none" stroke="black" cx="2006.92" cy="-925.1" rx="181.95" ry="37.45"/>
<text text-anchor="middle" x="2006.92" y="-936.4" font-family="Times,serif" font-size="14.00">ayer</text>
<text text-anchor="middle" x="2006.92" y="-921.4" font-family="Times,serif" font-size="14.00">rg (advmod)</text>
<text text-anchor="middle" x="2006.92" y="-906.4" font-family="Times,serif" font-size="14.00">rep=no, t=no, r=no, m=no, c=no</text>
</g>
<!-- n14&#45;&gt;n15 -->
<g id="edge5" class="edge">
<title>n14&#45;&gt;n15</title>
<path fill="none" stroke="black" d="M1719.39,-1005.21C1772.31,-990.65 1836.04,-973.12 1890.04,-958.26"/>
<polygon fill="black" stroke="black" points="1891.29,-961.55 1900.01,-955.52 1889.44,-954.8 1891.29,-961.55"/>
</g>
<!-- n16 -->
<g id="node7" class="node">
<title>n16</title>
<ellipse fill="#DA79E8" stroke="black" cx="2397.92" cy="-925.1" rx="190.84" ry="37.45"/>
<text text-anchor="middle" x="2397.92" y="-936.4" font-family="Times,serif" font-size="14.00">en</text>
<text text-anchor="middle" x="2397.92" y="-921.4" font-family="Times,serif" font-size="14.00">sps00 (oobj)</text>
<text text-anchor="middle" x="2397.92" y="-906.4" font-family="Times,serif" font-size="14.00">rep=no, t=no, r=yes, m=yes, c=no</text>
</g>
<!-- n14&#45;&gt;n16 -->
<g id="edge6" class="edge">
<title>n14&#45;&gt;n16</title>
<path fill="none" stroke="black" d="M1776.05,-1017.24C1893.87,-1003.9 2055.94,-984.27 2197.92,-962.58 2215.89,-959.83 2234.72,-956.72 2253.34,-953.49"/>
<polygon fill="black" stroke="black" points="2254.1,-956.91 2263.35,-951.74 2252.9,-950.01 2254.1,-956.91"/>
</g>
<!-- n37 -->
<g id="node8" class="node">
<title>n37</title>
<ellipse fill="none" stroke="black" cx="2788.92" cy="-925.1" rx="181.95" ry="37.45"/>
<text text-anchor="middle" x="2788.92" y="-936.4" font-family="Times,serif" font-size="14.00">.</text>
<text text-anchor="middle" x="2788.92" y="-921.4" font-family="Times,serif" font-size="14.00">fp (punct)</text>
<text text-anchor="middle" x="2788.92" y="-906.4" font-family="Times,serif" font-size="14.00">rep=no, t=no, r=no, m=no, c=no</text>
</g>
<!-- n14&#45;&gt;n37 -->
<g id="edge7" class="edge">
<title>n14&#45;&gt;n37</title>
<path fill="none" stroke="black" d="M1797.58,-1027.77C1996.54,-1018.51 2320.47,-999.14 2597.92,-962.58 2615.93,-960.21 2634.82,-957.22 2653.41,-953.98"/>
<polygon fill="black" stroke="black" points="2654.16,-957.4 2663.4,-952.21 2652.94,-950.51 2654.16,-957.4"/>
</g>
<!-- n1 -->
<g id="node9" class="node">
<title>n1</title>
<ellipse fill="#BEDA48" stroke="black" cx="190.92" cy="-814.15" rx="190.84" ry="37.45"/>
<text text-anchor="middle" x="190.92" y="-825.45" font-family="Times,serif" font-size="14.00">Un</text>
<text text-anchor="middle" x="190.92" y="-810.45" font-family="Times,serif" font-size="14.00">di0ms0 (det)</text>
<text text-anchor="middle" x="190.92" y="-795.45" font-family="Times,serif" font-size="14.00">rep=no, t=yes, r=no, m=yes, c=no</text>
</g>
<!-- n2&#45;&gt;n1 -->
<g id="edge8" class="edge">
<title>n2&#45;&gt;n1</title>
<path fill="none" stroke="black" d="M327.64,-889.63C307.11,-878.45 284.18,-865.96 263.06,-854.45"/>
<polygon fill="black" stroke="black" points="264.59,-851.3 254.13,-849.59 261.24,-857.44 264.59,-851.3"/>
</g>
<!-- n3 -->
<g id="node10" class="node">
<title>n3</title>
<ellipse fill="#BEDA48" stroke="black" cx="590.92" cy="-814.15" rx="190.84" ry="37.45"/>
<text text-anchor="middle" x="590.92" y="-825.45" font-family="Times,serif" font-size="14.00">de</text>
<text text-anchor="middle" x="590.92" y="-810.45" font-family="Times,serif" font-size="14.00">sps00 (prepn)</text>
<text text-anchor="middle" x="590.92" y="-795.45" font-family="Times,serif" font-size="14.00">rep=no, t=yes, r=no, m=yes, c=no</text>
</g>
<!-- n2&#45;&gt;n3 -->
<g id="edge9" class="edge">
<title>n2&#45;&gt;n3</title>
<path fill="none" stroke="black" d="M454.2,-889.63C474.73,-878.45 497.65,-865.96 518.78,-854.45"/>
<polygon fill="black" stroke="black" points="520.6,-857.44 527.71,-849.59 517.25,-851.3 520.6,-857.44"/>
</g>
<!-- n8 -->
<g id="node12" class="node">
<title>n8</title>
<ellipse fill="#BEDA48" stroke="black" cx="1610.92" cy="-814.15" rx="190.84" ry="37.45"/>
<text text-anchor="middle" x="1610.92" y="-825.45" font-family="Times,serif" font-size="14.00">de</text>
<text text-anchor="middle" x="1610.92" y="-810.45" font-family="Times,serif" font-size="14.00">sps00 (prepa)</text>
<text text-anchor="middle" x="1610.92" y="-795.45" font-family="Times,serif" font-size="14.00">rep=no, t=yes, r=no, m=yes, c=no</text>
</g>
<!-- n7&#45;&gt;n8 -->
<g id="edge11" class="edge">
<title>n7&#45;&gt;n8</title>
<path fill="none" stroke="black" d="M1610.92,-887.52C1610.92,-879.35 1610.92,-870.57 1610.92,-862.04"/>
<polygon fill="black" stroke="black" points="1614.42,-861.82 1610.92,-851.82 1607.42,-861.82 1614.42,-861.82"/>
</g>
<!-- n18 -->
<g id="node18" class="node">
<title>n18</title>
<ellipse fill="#DA79E8" stroke="black" cx="2397.92" cy="-814.15" rx="190.84" ry="37.45"/>
<text text-anchor="middle" x="2397.92" y="-825.45" font-family="Times,serif" font-size="14.00">fiesta</text>
<text text-anchor="middle" x="2397.92" y="-810.45" font-family="Times,serif" font-size="14.00">ncfs000 (pobj)</text>
<text text-anchor="middle" x="2397.92" y="-795.45" font-family="Times,serif" font-size="14.00">rep=no, t=no, r=yes, m=yes, c=no</text>
</g>
<!-- n16&#45;&gt;n18 -->
<g id="edge17" class="edge">
<title>n16&#45;&gt;n18</title>
<path fill="none" stroke="black" d="M2397.92,-887.52C2397.92,-879.35 2397.92,-870.57 2397.92,-862.04"/>
<polygon fill="black" stroke="black" points="2401.42,-861.82 2397.92,-851.82 2394.42,-861.82 2401.42,-861.82"/>
</g>
<!-- n4 -->
<g id="node11" class="node">
<title>n4</title>
<ellipse fill="#BEDA48" stroke="black" cx="590.92" cy="-703.2" rx="190.84" ry="37.45"/>
<text text-anchor="middle" x="590.92" y="-714.5" font-family="Times,serif" font-size="14.00">padres</text>
<text text-anchor="middle" x="590.92" y="-699.5" font-family="Times,serif" font-size="14.00">ncmp000 (pobj)</text>
<text text-anchor="middle" x="590.92" y="-684.5" font-family="Times,serif" font-size="14.00">rep=no, t=yes, r=no, m=yes, c=no</text>
</g>
<!-- n3&#45;&gt;n4 -->
<g id="edge10" class="edge">
<title>n3&#45;&gt;n4</title>
<path fill="none" stroke="black" d="M590.92,-776.57C590.92,-768.39 590.92,-759.61 590.92,-751.09"/>
<polygon fill="black" stroke="black" points="594.42,-750.87 590.92,-740.87 587.42,-750.87 594.42,-750.87"/>
</g>
<!-- n10 -->
<g id="node13" class="node">
<title>n10</title>
<ellipse fill="#BEDA48" stroke="black" cx="1610.92" cy="-703.2" rx="190.84" ry="37.45"/>
<text text-anchor="middle" x="1610.92" y="-714.5" font-family="Times,serif" font-size="14.00">escuelas</text>
<text text-anchor="middle" x="1610.92" y="-699.5" font-family="Times,serif" font-size="14.00">ncfp000 (pobj)</text>
<text text-anchor="middle" x="1610.92" y="-684.5" font-family="Times,serif" font-size="14.00">rep=no, t=yes, r=no, m=yes, c=no</text>
</g>
<!-- n8&#45;&gt;n10 -->
<g id="edge12" class="edge">
<title>n8&#45;&gt;n10</title>
<path fill="none" stroke="black" d="M1610.92,-776.57C1610.92,-768.39 1610.92,-759.61 1610.92,-751.09"/>
<polygon fill="black" stroke="black" points="1614.42,-750.87 1610.92,-740.87 1607.42,-750.87 1614.42,-750.87"/>
</g>
<!-- n9 -->
<g id="node14" class="node">
<title>n9</title>
<ellipse fill="#BEDA48" stroke="black" cx="1210.92" cy="-592.24" rx="190.84" ry="37.45"/>
<text text-anchor="middle" x="1210.92" y="-603.54" font-family="Times,serif" font-size="14.00">30</text>
<text text-anchor="middle" x="1210.92" y="-588.54" font-family="Times,serif" font-size="14.00">z (num)</text>
<text text-anchor="middle" x="1210.92" y="-573.54" font-family="Times,serif" font-size="14.00">rep=no, t=yes, r=no, m=yes, c=no</text>
</g>
<!-- n10&#45;&gt;n9 -->
<g id="edge13" class="edge">
<title>n10&#45;&gt;n9</title>
<path fill="none" stroke="black" d="M1501.62,-672.42C1448.48,-657.95 1384.51,-640.53 1330.12,-625.71"/>
<polygon fill="black" stroke="black" points="1331,-622.32 1320.44,-623.07 1329.16,-629.08 1331,-622.32"/>
</g>
<!-- n11 -->
<g id="node15" class="node">
<title>n11</title>
<ellipse fill="#BEDA48" stroke="black" cx="1610.92" cy="-592.24" rx="190.84" ry="37.45"/>
<text text-anchor="middle" x="1610.92" y="-603.54" font-family="Times,serif" font-size="14.00">públicas</text>
<text text-anchor="middle" x="1610.92" y="-588.54" font-family="Times,serif" font-size="14.00">aq0fp0 (amod)</text>
<text text-anchor="middle" x="1610.92" y="-573.54" font-family="Times,serif" font-size="14.00">rep=no, t=yes, r=no, m=yes, c=no</text>
</g>
<!-- n10&#45;&gt;n11 -->
<g id="edge14" class="edge">
<title>n10&#45;&gt;n11</title>
<path fill="none" stroke="black" d="M1610.92,-665.61C1610.92,-657.44 1610.92,-648.66 1610.92,-640.13"/>
<polygon fill="black" stroke="black" points="1614.42,-639.92 1610.92,-629.92 1607.42,-639.92 1614.42,-639.92"/>
</g>
<!-- n12 -->
<g id="node16" class="node">
<title>n12</title>
<ellipse fill="#BEDA48" stroke="black" cx="2010.92" cy="-592.24" rx="190.84" ry="37.45"/>
<text text-anchor="middle" x="2010.92" y="-603.54" font-family="Times,serif" font-size="14.00">de</text>
<text text-anchor="middle" x="2010.92" y="-588.54" font-family="Times,serif" font-size="14.00">sps00 (prepn)</text>
<text text-anchor="middle" x="2010.92" y="-573.54" font-family="Times,serif" font-size="14.00">rep=no, t=yes, r=no, m=yes, c=no</text>
</g>
<!-- n10&#45;&gt;n12 -->
<g id="edge15" class="edge">
<title>n10&#45;&gt;n12</title>
<path fill="none" stroke="black" d="M1720.22,-672.42C1773.36,-657.95 1837.33,-640.53 1891.71,-625.71"/>
<polygon fill="black" stroke="black" points="1892.67,-629.08 1901.4,-623.07 1890.83,-622.32 1892.67,-629.08"/>
</g>
<!-- n13 -->
<g id="node17" class="node">
<title>n13</title>
<ellipse fill="#BEDA48" stroke="black" cx="2010.92" cy="-481.29" rx="190.84" ry="37.45"/>
<text text-anchor="middle" x="2010.92" y="-492.59" font-family="Times,serif" font-size="14.00">Barcelona</text>
<text text-anchor="middle" x="2010.92" y="-477.59" font-family="Times,serif" font-size="14.00">np00000 (pobj)</text>
<text text-anchor="middle" x="2010.92" y="-462.59" font-family="Times,serif" font-size="14.00">rep=no, t=yes, r=no, m=yes, c=no</text>
</g>
<!-- n12&#45;&gt;n13 -->
<g id="edge16" class="edge">
<title>n12&#45;&gt;n13</title>
<path fill="none" stroke="black" d="M2010.92,-554.66C2010.92,-546.49 2010.92,-537.71 2010.92,-529.18"/>
<polygon fill="black" stroke="black" points="2014.42,-528.96 2010.92,-518.96 2007.42,-528.96 2014.42,-528.96"/>
</g>
<!-- n17 -->
<g id="node19" class="node">
<title>n17</title>
<ellipse fill="#DA79E8" stroke="black" cx="2203.92" cy="-703.2" rx="190.84" ry="37.45"/>
<text text-anchor="middle" x="2203.92" y="-714.5" font-family="Times,serif" font-size="14.00">la</text>
<text text-anchor="middle" x="2203.92" y="-699.5" font-family="Times,serif" font-size="14.00">da0fs0 (det)</text>
<text text-anchor="middle" x="2203.92" y="-684.5" font-family="Times,serif" font-size="14.00">rep=no, t=no, r=yes, m=yes, c=no</text>
</g>
<!-- n18&#45;&gt;n17 -->
<g id="edge18" class="edge">
<title>n18&#45;&gt;n17</title>
<path fill="none" stroke="black" d="M2336.27,-778.53C2316.55,-767.45 2294.58,-755.11 2274.29,-743.72"/>
<polygon fill="black" stroke="black" points="2275.84,-740.57 2265.41,-738.73 2272.41,-746.68 2275.84,-740.57"/>
</g>
<!-- n19 -->
<g id="node20" class="node">
<title>n19</title>
<ellipse fill="#DA79E8" stroke="black" cx="2603.92" cy="-703.2" rx="190.84" ry="37.45"/>
<text text-anchor="middle" x="2603.92" y="-714.5" font-family="Times,serif" font-size="14.00">celebrada</text>
<text text-anchor="middle" x="2603.92" y="-699.5" font-family="Times,serif" font-size="14.00">aq0fsp (amod)</text>
<text text-anchor="middle" x="2603.92" y="-684.5" font-family="Times,serif" font-size="14.00">rep=no, t=no, r=yes, m=yes, c=no</text>
</g>
<!-- n18&#45;&gt;n19 -->
<g id="edge19" class="edge">
<title>n18&#45;&gt;n19</title>
<path fill="none" stroke="black" d="M2462.82,-778.83C2484.17,-767.53 2508.06,-754.89 2530.03,-743.27"/>
<polygon fill="black" stroke="black" points="2531.79,-746.3 2538.99,-738.54 2528.52,-740.12 2531.79,-746.3"/>
</g>
<!-- n20 -->
<g id="node21" class="node">
<title>n20</title>
<ellipse fill="#DA79E8" stroke="black" cx="2507.92" cy="-592.24" rx="190.84" ry="37.45"/>
<text text-anchor="middle" x="2507.92" y="-603.54" font-family="Times,serif" font-size="14.00">en</text>
<text text-anchor="middle" x="2507.92" y="-588.54" font-family="Times,serif" font-size="14.00">sps00 (prepa)</text>
<text text-anchor="middle" x="2507.92" y="-573.54" font-family="Times,serif" font-size="14.00">rep=no, t=no, r=yes, m=yes, c=no</text>
</g>
<!-- n19&#45;&gt;n20 -->
<g id="edge20" class="edge">
<title>n19&#45;&gt;n20</title>
<path fill="none" stroke="black" d="M2572.22,-666.22C2564.03,-656.93 2555.12,-646.82 2546.62,-637.17"/>
<polygon fill="black" stroke="black" points="2549.15,-634.74 2539.91,-629.56 2543.9,-639.37 2549.15,-634.74"/>
</g>
<!-- n27 -->
<g id="node22" class="node">
<title>n27</title>
<ellipse fill="#DA79E8" stroke="black" cx="3107.92" cy="-592.24" rx="190.84" ry="37.45"/>
<text text-anchor="middle" x="3107.92" y="-603.54" font-family="Times,serif" font-size="14.00">para</text>
<text text-anchor="middle" x="3107.92" y="-588.54" font-family="Times,serif" font-size="14.00">sps00 (prepa)</text>
<text text-anchor="middle" x="3107.92" y="-573.54" font-family="Times,serif" font-size="14.00">rep=no, t=no, r=yes, m=yes, c=no</text>
</g>
<!-- n19&#45;&gt;n27 -->
<g id="edge21" class="edge">
<title>n19&#45;&gt;n27</title>
<path fill="none" stroke="black" d="M2729.8,-674.98C2803.46,-659.06 2896.5,-638.95 2971.86,-622.66"/>
<polygon fill="black" stroke="black" points="2972.86,-626.02 2981.9,-620.49 2971.38,-619.18 2972.86,-626.02"/>
</g>
<!-- n22 -->
<g id="node23" class="node">
<title>n22</title>
<ellipse fill="#DA79E8" stroke="black" cx="2459.92" cy="-481.29" rx="190.84" ry="37.45"/>
<text text-anchor="middle" x="2459.92" y="-492.59" font-family="Times,serif" font-size="14.00">parque</text>
<text text-anchor="middle" x="2459.92" y="-477.59" font-family="Times,serif" font-size="14.00">ncms000 (pobj)</text>
<text text-anchor="middle" x="2459.92" y="-462.59" font-family="Times,serif" font-size="14.00">rep=no, t=no, r=yes, m=yes, c=no</text>
</g>
<!-- n20&#45;&gt;n22 -->
<g id="edge22" class="edge">
<title>n20&#45;&gt;n22</title>
<path fill="none" stroke="black" d="M2491.8,-554.66C2488.08,-546.22 2484.08,-537.13 2480.21,-528.34"/>
<polygon fill="black" stroke="black" points="2483.31,-526.7 2476.07,-518.96 2476.9,-529.52 2483.31,-526.7"/>
</g>
<!-- n28 -->
<g id="node29" class="node">
<title>n28</title>
<ellipse fill="#DA79E8" stroke="black" cx="3145.92" cy="-481.29" rx="190.84" ry="37.45"/>
<text text-anchor="middle" x="3145.92" y="-492.59" font-family="Times,serif" font-size="14.00">reclamar</text>
<text text-anchor="middle" x="3145.92" y="-477.59" font-family="Times,serif" font-size="14.00">vmn0000 (pobj)</text>
<text text-anchor="middle" x="3145.92" y="-462.59" font-family="Times,serif" font-size="14.00">rep=no, t=no, r=yes, m=yes, c=no</text>
</g>
<!-- n27&#45;&gt;n28 -->
<g id="edge28" class="edge">
<title>n27&#45;&gt;n28</title>
<path fill="none" stroke="black" d="M3120.68,-554.66C3123.59,-546.31 3126.73,-537.32 3129.76,-528.62"/>
<polygon fill="black" stroke="black" points="3133.14,-529.56 3133.13,-518.96 3126.53,-527.25 3133.14,-529.56"/>
</g>
<!-- n21 -->
<g id="node24" class="node">
<title>n21</title>
<ellipse fill="#DA79E8" stroke="black" cx="2059.92" cy="-370.34" rx="190.84" ry="37.45"/>
<text text-anchor="middle" x="2059.92" y="-381.64" font-family="Times,serif" font-size="14.00">el</text>
<text text-anchor="middle" x="2059.92" y="-366.64" font-family="Times,serif" font-size="14.00">da0ms0 (det)</text>
<text text-anchor="middle" x="2059.92" y="-351.64" font-family="Times,serif" font-size="14.00">rep=no, t=no, r=yes, m=yes, c=no</text>
</g>
<!-- n22&#45;&gt;n21 -->
<g id="edge23" class="edge">
<title>n22&#45;&gt;n21</title>
<path fill="none" stroke="black" d="M2350.62,-450.52C2297.48,-436.04 2233.51,-418.62 2179.12,-403.81"/>
<polygon fill="black" stroke="black" points="2180,-400.42 2169.44,-401.17 2178.16,-407.17 2180,-400.42"/>
</g>
<!-- n23 -->
<g id="node25" class="node">
<title>n23</title>
<ellipse fill="#DA79E8" stroke="black" cx="2459.92" cy="-370.34" rx="190.84" ry="37.45"/>
<text text-anchor="middle" x="2459.92" y="-381.64" font-family="Times,serif" font-size="14.00">de</text>
<text text-anchor="middle" x="2459.92" y="-366.64" font-family="Times,serif" font-size="14.00">sps00 (prepn)</text>
<text text-anchor="middle" x="2459.92" y="-351.64" font-family="Times,serif" font-size="14.00">rep=no, t=no, r=yes, m=yes, c=no</text>
</g>
<!-- n22&#45;&gt;n23 -->
<g id="edge24" class="edge">
<title>n22&#45;&gt;n23</title>
<path fill="none" stroke="black" d="M2459.92,-443.71C2459.92,-435.53 2459.92,-426.75 2459.92,-418.23"/>
<polygon fill="black" stroke="black" points="2463.42,-418.01 2459.92,-408.01 2456.42,-418.01 2463.42,-418.01"/>
</g>
<!-- n25 -->
<g id="node26" class="node">
<title>n25</title>
<ellipse fill="#DA79E8" stroke="black" cx="2440.92" cy="-259.38" rx="190.84" ry="37.45"/>
<text text-anchor="middle" x="2440.92" y="-270.68" font-family="Times,serif" font-size="14.00">Espanya</text>
<text text-anchor="middle" x="2440.92" y="-255.68" font-family="Times,serif" font-size="14.00">np00000 (pobj)</text>
<text text-anchor="middle" x="2440.92" y="-240.68" font-family="Times,serif" font-size="14.00">rep=no, t=no, r=yes, m=yes, c=no</text>
</g>
<!-- n23&#45;&gt;n25 -->
<g id="edge25" class="edge">
<title>n23&#45;&gt;n25</title>
<path fill="none" stroke="black" d="M2453.54,-332.75C2452.1,-324.49 2450.55,-315.61 2449.05,-306.99"/>
<polygon fill="black" stroke="black" points="2452.48,-306.31 2447.31,-297.06 2445.58,-307.51 2452.48,-306.31"/>
</g>
<!-- n24 -->
<g id="node27" class="node">
<title>n24</title>
<ellipse fill="#DA79E8" stroke="black" cx="2240.92" cy="-148.43" rx="190.84" ry="37.45"/>
<text text-anchor="middle" x="2240.92" y="-159.73" font-family="Times,serif" font-size="14.00">la</text>
<text text-anchor="middle" x="2240.92" y="-144.73" font-family="Times,serif" font-size="14.00">da0fs0 (det)</text>
<text text-anchor="middle" x="2240.92" y="-129.73" font-family="Times,serif" font-size="14.00">rep=no, t=no, r=yes, m=yes, c=no</text>
</g>
<!-- n25&#45;&gt;n24 -->
<g id="edge26" class="edge">
<title>n25&#45;&gt;n24</title>
<path fill="none" stroke="black" d="M2377.64,-223.91C2357.11,-212.73 2334.18,-200.24 2313.06,-188.73"/>
<polygon fill="black" stroke="black" points="2314.59,-185.58 2304.13,-183.87 2311.24,-191.72 2314.59,-185.58"/>
</g>
<!-- n26 -->
<g id="node28" class="node">
<title>n26</title>
<ellipse fill="#DA79E8" stroke="black" cx="2640.92" cy="-148.43" rx="190.84" ry="37.45"/>
<text text-anchor="middle" x="2640.92" y="-159.73" font-family="Times,serif" font-size="14.00">Industrial</text>
<text text-anchor="middle" x="2640.92" y="-144.73" font-family="Times,serif" font-size="14.00">ncms000 (appos)</text>
<text text-anchor="middle" x="2640.92" y="-129.73" font-family="Times,serif" font-size="14.00">rep=no, t=no, r=yes, m=yes, c=no</text>
</g>
<!-- n25&#45;&gt;n26 -->
<g id="edge27" class="edge">
<title>n25&#45;&gt;n26</title>
<path fill="none" stroke="black" d="M2504.2,-223.91C2524.73,-212.73 2547.65,-200.24 2568.78,-188.73"/>
<polygon fill="black" stroke="black" points="2570.6,-191.72 2577.71,-183.87 2567.25,-185.58 2570.6,-191.72"/>
</g>
<!-- n30 -->
<g id="node30" class="node">
<title>n30</title>
<ellipse fill="#DA79E8" stroke="black" cx="3221.92" cy="-370.34" rx="190.84" ry="37.45"/>
<text text-anchor="middle" x="3221.92" y="-381.64" font-family="Times,serif" font-size="14.00">apoyo</text>
<text text-anchor="middle" x="3221.92" y="-366.64" font-family="Times,serif" font-size="14.00">ncms000 (dobj)</text>
<text text-anchor="middle" x="3221.92" y="-351.64" font-family="Times,serif" font-size="14.00">rep=no, t=no, r=yes, m=yes, c=no</text>
</g>
<!-- n28&#45;&gt;n30 -->
<g id="edge29" class="edge">
<title>n28&#45;&gt;n30</title>
<path fill="none" stroke="black" d="M3171.23,-444.01C3177.44,-435.1 3184.17,-425.46 3190.63,-416.19"/>
<polygon fill="black" stroke="black" points="3193.61,-418.03 3196.46,-407.83 3187.87,-414.03 3193.61,-418.03"/>
</g>
<!-- n29 -->
<g id="node31" class="node">
<title>n29</title>
<ellipse fill="#DA79E8" stroke="black" cx="2840.92" cy="-259.38" rx="190.84" ry="37.45"/>
<text text-anchor="middle" x="2840.92" y="-270.68" font-family="Times,serif" font-size="14.00">el</text>
<text text-anchor="middle" x="2840.92" y="-255.68" font-family="Times,serif" font-size="14.00">da0ms0 (det)</text>
<text text-anchor="middle" x="2840.92" y="-240.68" font-family="Times,serif" font-size="14.00">rep=no, t=no, r=yes, m=yes, c=no</text>
</g>
<!-- n30&#45;&gt;n29 -->
<g id="edge30" class="edge">
<title>n30&#45;&gt;n29</title>
<path fill="none" stroke="black" d="M3116.04,-339.06C3066.39,-324.86 3007.12,-307.91 2956.32,-293.39"/>
<polygon fill="black" stroke="black" points="2957.19,-289.99 2946.61,-290.61 2955.27,-296.72 2957.19,-289.99"/>
</g>
<!-- n31 -->
<g id="node32" class="node">
<title>n31</title>
<ellipse fill="#DA79E8" stroke="black" cx="3240.92" cy="-259.38" rx="190.84" ry="37.45"/>
<text text-anchor="middle" x="3240.92" y="-270.68" font-family="Times,serif" font-size="14.00">de</text>
<text text-anchor="middle" x="3240.92" y="-255.68" font-family="Times,serif" font-size="14.00">sps00 (prepn)</text>
<text text-anchor="middle" x="3240.92" y="-240.68" font-family="Times,serif" font-size="14.00">rep=no, t=no, r=yes, m=yes, c=no</text>
</g>
<!-- n30&#45;&gt;n31 -->
<g id="edge31" class="edge">
<title>n30&#45;&gt;n31</title>
<path fill="none" stroke="black" d="M3228.3,-332.75C3229.74,-324.49 3231.29,-315.61 3232.79,-306.99"/>
<polygon fill="black" stroke="black" points="3236.25,-307.51 3234.52,-297.06 3229.36,-306.31 3236.25,-307.51"/>
</g>
<!-- n34 -->
<g id="node33" class="node">
<title>n34</title>
<ellipse fill="#DA79E8" stroke="black" cx="3640.92" cy="-259.38" rx="190.84" ry="37.45"/>
<text text-anchor="middle" x="3640.92" y="-270.68" font-family="Times,serif" font-size="14.00">a</text>
<text text-anchor="middle" x="3640.92" y="-255.68" font-family="Times,serif" font-size="14.00">sps00 (prepn)</text>
<text text-anchor="middle" x="3640.92" y="-240.68" font-family="Times,serif" font-size="14.00">rep=no, t=no, r=yes, m=yes, c=no</text>
</g>
<!-- n30&#45;&gt;n34 -->
<g id="edge32" class="edge">
<title>n30&#45;&gt;n34</title>
<path fill="none" stroke="black" d="M3334.75,-340C3391.46,-325.25 3460.28,-307.36 3518.29,-292.27"/>
<polygon fill="black" stroke="black" points="3519.45,-295.59 3528.25,-289.68 3517.69,-288.81 3519.45,-295.59"/>
</g>
<!-- n33 -->
<g id="node34" class="node">
<title>n33</title>
<ellipse fill="#DA79E8" stroke="black" cx="3240.92" cy="-148.43" rx="190.84" ry="37.45"/>
<text text-anchor="middle" x="3240.92" y="-159.73" font-family="Times,serif" font-size="14.00">Administración</text>
<text text-anchor="middle" x="3240.92" y="-144.73" font-family="Times,serif" font-size="14.00">np00000 (pobj)</text>
<text text-anchor="middle" x="3240.92" y="-129.73" font-family="Times,serif" font-size="14.00">rep=no, t=no, r=yes, m=yes, c=no</text>
</g>
<!-- n31&#45;&gt;n33 -->
<g id="edge33" class="edge">
<title>n31&#45;&gt;n33</title>
<path fill="none" stroke="black" d="M3240.92,-221.8C3240.92,-213.63 3240.92,-204.85 3240.92,-196.32"/>
<polygon fill="black" stroke="black" points="3244.42,-196.1 3240.92,-186.1 3237.42,-196.1 3244.42,-196.1"/>
</g>
<!-- n36 -->
<g id="node36" class="node">
<title>n36</title>
<ellipse fill="#DA79E8" stroke="black" cx="3640.92" cy="-148.43" rx="190.84" ry="37.45"/>
<text text-anchor="middle" x="3640.92" y="-159.73" font-family="Times,serif" font-size="14.00">centros</text>
<text text-anchor="middle" x="3640.92" y="-144.73" font-family="Times,serif" font-size="14.00">ncmp000 (pobj)</text>
<text text-anchor="middle" x="3640.92" y="-129.73" font-family="Times,serif" font-size="14.00">rep=no, t=no, r=yes, m=yes, c=no</text>
</g>
<!-- n34&#45;&gt;n36 -->
<g id="edge35" class="edge">
<title>n34&#45;&gt;n36</title>
<path fill="none" stroke="black" d="M3640.92,-221.8C3640.92,-213.63 3640.92,-204.85 3640.92,-196.32"/>
<polygon fill="black" stroke="black" points="3644.42,-196.1 3640.92,-186.1 3637.42,-196.1 3644.42,-196.1"/>
</g>
<!-- n32 -->
<g id="node35" class="node">
<title>n32</title>
<ellipse fill="#DA79E8" stroke="black" cx="3240.92" cy="-37.48" rx="190.84" ry="37.45"/>
<text text-anchor="middle" x="3240.92" y="-48.78" font-family="Times,serif" font-size="14.00">la</text>
<text text-anchor="middle" x="3240.92" y="-33.78" font-family="Times,serif" font-size="14.00">da0fs0 (det)</text>
<text text-anchor="middle" x="3240.92" y="-18.78" font-family="Times,serif" font-size="14.00">rep=no, t=no, r=yes, m=yes, c=no</text>
</g>
<!-- n33&#45;&gt;n32 -->
<g id="edge34" class="edge">
<title>n33&#45;&gt;n32</title>
<path fill="none" stroke="black" d="M3240.92,-110.85C3240.92,-102.67 3240.92,-93.89 3240.92,-85.37"/>
<polygon fill="black" stroke="black" points="3244.42,-85.15 3240.92,-75.15 3237.42,-85.15 3244.42,-85.15"/>
</g>
<!-- n35 -->
<g id="node37" class="node">
<title>n35</title>
<ellipse fill="#DA79E8" stroke="black" cx="3640.92" cy="-37.48" rx="190.84" ry="37.45"/>
<text text-anchor="middle" x="3640.92" y="-48.78" font-family="Times,serif" font-size="14.00">estos</text>
<text text-anchor="middle" x="3640.92" y="-33.78" font-family="Times,serif" font-size="14.00">dd0mp0 (det)</text>
<text text-anchor="middle" x="3640.92" y="-18.78" font-family="Times,serif" font-size="14.00">rep=no, t=no, r=yes, m=yes, c=no</text>
</g>
<!-- n36&#45;&gt;n35 -->
<g id="edge36" class="edge">
<title>n36&#45;&gt;n35</title>
<path fill="none" stroke="black" d="M3640.92,-110.85C3640.92,-102.67 3640.92,-93.89 3640.92,-85.37"/>
<polygon fill="black" stroke="black" points="3644.42,-85.15 3640.92,-75.15 3637.42,-85.15 3644.42,-85.15"/>
</g>
</g>
</svg>
