<?xml version="1.0" encoding="UTF-8" standalone="no"?>
<!DOCTYPE svg PUBLIC "-//W3C//DTD SVG 1.1//EN"
 "http://www.w3.org/Graphics/SVG/1.1/DTD/svg11.dtd">
<!-- Generated by graphviz version 2.43.0 (0)
 -->
<!-- Title: tree Pages: 1 -->
<svg width="4034pt" height="860pt"
 viewBox="0.00 0.00 4033.70 859.63" xmlns="http://www.w3.org/2000/svg" xmlns:xlink="http://www.w3.org/1999/xlink">
<g id="graph0" class="graph" transform="scale(1 1) rotate(0) translate(4 855.63)">
<title>tree</title>
<polygon fill="white" stroke="transparent" points="-4,4 -4,-855.63 4029.7,-855.63 4029.7,4 -4,4"/>
<!-- n3 -->
<g id="node1" class="node">
<title>n3</title>
<ellipse fill="none" stroke="black" cx="847.73" cy="-814.15" rx="181.95" ry="37.45"/>
<text text-anchor="middle" x="847.73" y="-825.45" font-family="Times,serif" font-size="14.00">describía</text>
<text text-anchor="middle" x="847.73" y="-810.45" font-family="Times,serif" font-size="14.00">vmii3s0 (root)</text>
<text text-anchor="middle" x="847.73" y="-795.45" font-family="Times,serif" font-size="14.00">rep=no, t=no, r=no, m=no, c=no</text>
</g>
<!-- n1 -->
<g id="node2" class="node">
<title>n1</title>
<ellipse fill="none" stroke="black" cx="276.73" cy="-703.2" rx="181.95" ry="37.45"/>
<text text-anchor="middle" x="276.73" y="-714.5" font-family="Times,serif" font-size="14.00">Elsa</text>
<text text-anchor="middle" x="276.73" y="-699.5" font-family="Times,serif" font-size="14.00">np0000l (nsubj)</text>
<text text-anchor="middle" x="276.73" y="-684.5" font-family="Times,serif" font-size="14.00">rep=no, t=no, r=no, m=no, c=no</text>
</g>
<!-- n3&#45;&gt;n1 -->
<g id="edge1" class="edge">
<title>n3&#45;&gt;n1</title>
<path fill="none" stroke="black" d="M716.35,-788.22C642.91,-774.26 549.73,-756.53 466.73,-740.67 450.66,-737.6 433.83,-734.38 417.12,-731.18"/>
<polygon fill="black" stroke="black" points="417.77,-727.74 407.29,-729.29 416.45,-734.61 417.77,-727.74"/>
</g>
<!-- n4 -->
<g id="node3" class="node">
<title>n4</title>
<ellipse fill="none" stroke="black" cx="657.73" cy="-703.2" rx="181.95" ry="37.45"/>
<text text-anchor="middle" x="657.73" y="-714.5" font-family="Times,serif" font-size="14.00">en</text>
<text text-anchor="middle" x="657.73" y="-699.5" font-family="Times,serif" font-size="14.00">sps00 (prepv)</text>
<text text-anchor="middle" x="657.73" y="-684.5" font-family="Times,serif" font-size="14.00">rep=no, t=no, r=no, m=no, c=no</text>
</g>
<!-- n3&#45;&gt;n4 -->
<g id="edge2" class="edge">
<title>n3&#45;&gt;n4</title>
<path fill="none" stroke="black" d="M787.61,-778.68C768.19,-767.54 746.52,-755.12 726.53,-743.65"/>
<polygon fill="black" stroke="black" points="728.19,-740.57 717.78,-738.63 724.71,-746.64 728.19,-740.57"/>
</g>
<!-- n9 -->
<g id="node4" class="node">
<title>n9</title>
<ellipse fill="none" stroke="black" cx="1228.73" cy="-703.2" rx="181.95" ry="37.45"/>
<text text-anchor="middle" x="1228.73" y="-714.5" font-family="Times,serif" font-size="14.00">característica</text>
<text text-anchor="middle" x="1228.73" y="-699.5" font-family="Times,serif" font-size="14.00">ncfs000 (dobj)</text>
<text text-anchor="middle" x="1228.73" y="-684.5" font-family="Times,serif" font-size="14.00">rep=no, t=no, r=no, m=no, c=no</text>
</g>
<!-- n3&#45;&gt;n9 -->
<g id="edge3" class="edge">
<title>n3&#45;&gt;n9</title>
<path fill="none" stroke="black" d="M951.84,-783.38C1002.34,-768.94 1063.12,-751.55 1114.86,-736.76"/>
<polygon fill="black" stroke="black" points="1116.09,-740.05 1124.74,-733.93 1114.17,-733.32 1116.09,-740.05"/>
</g>
<!-- n30 -->
<g id="node5" class="node">
<title>n30</title>
<ellipse fill="none" stroke="black" cx="1609.73" cy="-703.2" rx="181.95" ry="37.45"/>
<text text-anchor="middle" x="1609.73" y="-714.5" font-family="Times,serif" font-size="14.00">.</text>
<text text-anchor="middle" x="1609.73" y="-699.5" font-family="Times,serif" font-size="14.00">fp (punct)</text>
<text text-anchor="middle" x="1609.73" y="-684.5" font-family="Times,serif" font-size="14.00">rep=no, t=no, r=no, m=no, c=no</text>
</g>
<!-- n3&#45;&gt;n30 -->
<g id="edge4" class="edge">
<title>n3&#45;&gt;n30</title>
<path fill="none" stroke="black" d="M1006.23,-795.81C1121.26,-782.56 1280.46,-762.84 1419.73,-740.67 1436.57,-737.99 1454.21,-734.94 1471.67,-731.77"/>
<polygon fill="black" stroke="black" points="1472.71,-735.13 1481.91,-729.89 1471.45,-728.25 1472.71,-735.13"/>
</g>
<!-- n2 -->
<g id="node6" class="node">
<title>n2</title>
<ellipse fill="none" stroke="black" cx="181.73" cy="-592.24" rx="181.95" ry="37.45"/>
<text text-anchor="middle" x="181.73" y="-603.54" font-family="Times,serif" font-size="14.00">Fernández&#45;Santos</text>
<text text-anchor="middle" x="181.73" y="-588.54" font-family="Times,serif" font-size="14.00">np0000l (appos)</text>
<text text-anchor="middle" x="181.73" y="-573.54" font-family="Times,serif" font-size="14.00">rep=no, t=no, r=no, m=no, c=no</text>
</g>
<!-- n1&#45;&gt;n2 -->
<g id="edge5" class="edge">
<title>n1&#45;&gt;n2</title>
<path fill="none" stroke="black" d="M245.36,-666.22C237.17,-656.83 228.26,-646.61 219.76,-636.87"/>
<polygon fill="black" stroke="black" points="222.27,-634.42 213.06,-629.18 217,-639.02 222.27,-634.42"/>
</g>
<!-- n6 -->
<g id="node7" class="node">
<title>n6</title>
<ellipse fill="none" stroke="black" cx="562.73" cy="-592.24" rx="181.95" ry="37.45"/>
<text text-anchor="middle" x="562.73" y="-603.54" font-family="Times,serif" font-size="14.00">País</text>
<text text-anchor="middle" x="562.73" y="-588.54" font-family="Times,serif" font-size="14.00">np0000o (pobj)</text>
<text text-anchor="middle" x="562.73" y="-573.54" font-family="Times,serif" font-size="14.00">rep=no, t=no, r=no, m=no, c=no</text>
</g>
<!-- n4&#45;&gt;n6 -->
<g id="edge6" class="edge">
<title>n4&#45;&gt;n6</title>
<path fill="none" stroke="black" d="M626.36,-666.22C618.17,-656.83 609.26,-646.61 600.76,-636.87"/>
<polygon fill="black" stroke="black" points="603.27,-634.42 594.06,-629.18 598,-639.02 603.27,-634.42"/>
</g>
<!-- n7 -->
<g id="node9" class="node">
<title>n7</title>
<ellipse fill="none" stroke="black" cx="943.73" cy="-592.24" rx="181.95" ry="37.45"/>
<text text-anchor="middle" x="943.73" y="-603.54" font-family="Times,serif" font-size="14.00">esa</text>
<text text-anchor="middle" x="943.73" y="-588.54" font-family="Times,serif" font-size="14.00">dd0fs0 (det)</text>
<text text-anchor="middle" x="943.73" y="-573.54" font-family="Times,serif" font-size="14.00">rep=no, t=no, r=no, m=no, c=no</text>
</g>
<!-- n9&#45;&gt;n7 -->
<g id="edge8" class="edge">
<title>n9&#45;&gt;n7</title>
<path fill="none" stroke="black" d="M1144.37,-669.95C1110.92,-657.16 1072.3,-642.39 1037.93,-629.26"/>
<polygon fill="black" stroke="black" points="1038.95,-625.9 1028.36,-625.6 1036.45,-632.44 1038.95,-625.9"/>
</g>
<!-- n8 -->
<g id="node10" class="node">
<title>n8</title>
<ellipse fill="none" stroke="black" cx="1324.73" cy="-592.24" rx="181.95" ry="37.45"/>
<text text-anchor="middle" x="1324.73" y="-603.54" font-family="Times,serif" font-size="14.00">inquietante</text>
<text text-anchor="middle" x="1324.73" y="-588.54" font-family="Times,serif" font-size="14.00">aq0cs0 (amod)</text>
<text text-anchor="middle" x="1324.73" y="-573.54" font-family="Times,serif" font-size="14.00">rep=no, t=no, r=no, m=no, c=no</text>
</g>
<!-- n9&#45;&gt;n8 -->
<g id="edge9" class="edge">
<title>n9&#45;&gt;n8</title>
<path fill="none" stroke="black" d="M1260.43,-666.22C1268.7,-656.83 1277.71,-646.61 1286.29,-636.87"/>
<polygon fill="black" stroke="black" points="1289.07,-639 1293.06,-629.18 1283.82,-634.37 1289.07,-639"/>
</g>
<!-- n10 -->
<g id="node11" class="node">
<title>n10</title>
<ellipse fill="none" stroke="black" cx="1705.73" cy="-592.24" rx="181.95" ry="37.45"/>
<text text-anchor="middle" x="1705.73" y="-603.54" font-family="Times,serif" font-size="14.00">de</text>
<text text-anchor="middle" x="1705.73" y="-588.54" font-family="Times,serif" font-size="14.00">sps00 (prepn)</text>
<text text-anchor="middle" x="1705.73" y="-573.54" font-family="Times,serif" font-size="14.00">rep=no, t=no, r=no, m=no, c=no</text>
</g>
<!-- n9&#45;&gt;n10 -->
<g id="edge10" class="edge">
<title>n9&#45;&gt;n10</title>
<path fill="none" stroke="black" d="M1348.17,-674.91C1417.62,-659.05 1505.18,-639.05 1576.27,-622.81"/>
<polygon fill="black" stroke="black" points="1577.22,-626.19 1586.19,-620.55 1575.66,-619.36 1577.22,-626.19"/>
</g>
<!-- n14 -->
<g id="node12" class="node">
<title>n14</title>
<ellipse fill="none" stroke="black" cx="2088.73" cy="-592.24" rx="181.95" ry="37.45"/>
<text text-anchor="middle" x="2088.73" y="-603.54" font-family="Times,serif" font-size="14.00">hace</text>
<text text-anchor="middle" x="2088.73" y="-588.54" font-family="Times,serif" font-size="14.00">vmip3s0 (rcmod)</text>
<text text-anchor="middle" x="2088.73" y="-573.54" font-family="Times,serif" font-size="14.00">rep=no, t=no, r=no, m=no, c=no</text>
</g>
<!-- n9&#45;&gt;n14 -->
<g id="edge11" class="edge">
<title>n9&#45;&gt;n14</title>
<path fill="none" stroke="black" d="M1354.1,-676.02C1375.59,-672.14 1397.75,-668.51 1418.73,-665.72 1629.91,-637.59 1685.52,-657.65 1896.73,-629.72 1914.9,-627.32 1933.96,-624.3 1952.72,-621.04"/>
<polygon fill="black" stroke="black" points="1953.56,-624.45 1962.8,-619.26 1952.34,-617.56 1953.56,-624.45"/>
</g>
<!-- n5 -->
<g id="node8" class="node">
<title>n5</title>
<ellipse fill="none" stroke="black" cx="562.73" cy="-481.29" rx="181.95" ry="37.45"/>
<text text-anchor="middle" x="562.73" y="-492.59" font-family="Times,serif" font-size="14.00">El</text>
<text text-anchor="middle" x="562.73" y="-477.59" font-family="Times,serif" font-size="14.00">da0ms0 (det)</text>
<text text-anchor="middle" x="562.73" y="-462.59" font-family="Times,serif" font-size="14.00">rep=no, t=no, r=no, m=no, c=no</text>
</g>
<!-- n6&#45;&gt;n5 -->
<g id="edge7" class="edge">
<title>n6&#45;&gt;n5</title>
<path fill="none" stroke="black" d="M562.73,-554.66C562.73,-546.49 562.73,-537.71 562.73,-529.18"/>
<polygon fill="black" stroke="black" points="566.23,-528.96 562.73,-518.96 559.23,-528.96 566.23,-528.96"/>
</g>
<!-- n12 -->
<g id="node13" class="node">
<title>n12</title>
<ellipse fill="none" stroke="black" cx="1702.73" cy="-481.29" rx="181.95" ry="37.45"/>
<text text-anchor="middle" x="1702.73" y="-492.59" font-family="Times,serif" font-size="14.00">bestia</text>
<text text-anchor="middle" x="1702.73" y="-477.59" font-family="Times,serif" font-size="14.00">ncfs000 (pobj)</text>
<text text-anchor="middle" x="1702.73" y="-462.59" font-family="Times,serif" font-size="14.00">rep=no, t=no, r=no, m=no, c=no</text>
</g>
<!-- n10&#45;&gt;n12 -->
<g id="edge12" class="edge">
<title>n10&#45;&gt;n12</title>
<path fill="none" stroke="black" d="M1704.72,-554.66C1704.49,-546.49 1704.25,-537.71 1704.02,-529.18"/>
<polygon fill="black" stroke="black" points="1707.51,-528.86 1703.74,-518.96 1700.51,-529.05 1707.51,-528.86"/>
</g>
<!-- n13 -->
<g id="node15" class="node">
<title>n13</title>
<ellipse fill="none" stroke="black" cx="2088.73" cy="-481.29" rx="185.94" ry="37.45"/>
<text text-anchor="middle" x="2088.73" y="-492.59" font-family="Times,serif" font-size="14.00">que</text>
<text text-anchor="middle" x="2088.73" y="-477.59" font-family="Times,serif" font-size="14.00">pr0cn000 (nsubj)</text>
<text text-anchor="middle" x="2088.73" y="-462.59" font-family="Times,serif" font-size="14.00">rep=yes, t=no, r=no, m=no, c=no</text>
</g>
<!-- n14&#45;&gt;n13 -->
<g id="edge14" class="edge">
<title>n14&#45;&gt;n13</title>
<path fill="none" stroke="black" d="M2088.73,-554.66C2088.73,-546.49 2088.73,-537.71 2088.73,-529.18"/>
<polygon fill="black" stroke="black" points="2092.23,-528.96 2088.73,-518.96 2085.23,-528.96 2092.23,-528.96"/>
</g>
<!-- n15 -->
<g id="node16" class="node">
<title>n15</title>
<ellipse fill="none" stroke="black" cx="2474.73" cy="-481.29" rx="181.95" ry="37.45"/>
<text text-anchor="middle" x="2474.73" y="-492.59" font-family="Times,serif" font-size="14.00">que</text>
<text text-anchor="middle" x="2474.73" y="-477.59" font-family="Times,serif" font-size="14.00">cs (dobj)</text>
<text text-anchor="middle" x="2474.73" y="-462.59" font-family="Times,serif" font-size="14.00">rep=no, t=no, r=no, m=no, c=no</text>
</g>
<!-- n14&#45;&gt;n15 -->
<g id="edge15" class="edge">
<title>n14&#45;&gt;n15</title>
<path fill="none" stroke="black" d="M2193.69,-561.62C2245.18,-547.08 2307.31,-529.54 2360.05,-514.66"/>
<polygon fill="black" stroke="black" points="2361.11,-518 2369.78,-511.91 2359.21,-511.26 2361.11,-518"/>
</g>
<!-- n11 -->
<g id="node14" class="node">
<title>n11</title>
<ellipse fill="none" stroke="black" cx="1702.73" cy="-370.34" rx="181.95" ry="37.45"/>
<text text-anchor="middle" x="1702.73" y="-381.64" font-family="Times,serif" font-size="14.00">la</text>
<text text-anchor="middle" x="1702.73" y="-366.64" font-family="Times,serif" font-size="14.00">da0fs0 (det)</text>
<text text-anchor="middle" x="1702.73" y="-351.64" font-family="Times,serif" font-size="14.00">rep=no, t=no, r=no, m=no, c=no</text>
</g>
<!-- n12&#45;&gt;n11 -->
<g id="edge13" class="edge">
<title>n12&#45;&gt;n11</title>
<path fill="none" stroke="black" d="M1702.73,-443.71C1702.73,-435.53 1702.73,-426.75 1702.73,-418.23"/>
<polygon fill="black" stroke="black" points="1706.23,-418.01 1702.73,-408.01 1699.23,-418.01 1706.23,-418.01"/>
</g>
<!-- n23 -->
<g id="node17" class="node">
<title>n23</title>
<ellipse fill="none" stroke="black" cx="2474.73" cy="-370.34" rx="185.94" ry="37.45"/>
<text text-anchor="middle" x="2474.73" y="-381.64" font-family="Times,serif" font-size="14.00">asomen</text>
<text text-anchor="middle" x="2474.73" y="-366.64" font-family="Times,serif" font-size="14.00">vmsp3p0 (cobj)</text>
<text text-anchor="middle" x="2474.73" y="-351.64" font-family="Times,serif" font-size="14.00">rep=no, t=no, r=no, m=yes, c=no</text>
</g>
<!-- n15&#45;&gt;n23 -->
<g id="edge16" class="edge">
<title>n15&#45;&gt;n23</title>
<path fill="none" stroke="black" d="M2474.73,-443.71C2474.73,-435.53 2474.73,-426.75 2474.73,-418.23"/>
<polygon fill="black" stroke="black" points="2478.23,-418.01 2474.73,-408.01 2471.23,-418.01 2478.23,-418.01"/>
</g>
<!-- n16 -->
<g id="node18" class="node">
<title>n16</title>
<ellipse fill="none" stroke="black" cx="1109.73" cy="-259.38" rx="185.94" ry="37.45"/>
<text text-anchor="middle" x="1109.73" y="-270.68" font-family="Times,serif" font-size="14.00">&quot;</text>
<text text-anchor="middle" x="1109.73" y="-255.68" font-family="Times,serif" font-size="14.00">fe (punct)</text>
<text text-anchor="middle" x="1109.73" y="-240.68" font-family="Times,serif" font-size="14.00">rep=no, t=no, r=no, m=yes, c=no</text>
</g>
<!-- n23&#45;&gt;n16 -->
<g id="edge17" class="edge">
<title>n23&#45;&gt;n16</title>
<path fill="none" stroke="black" d="M2298.66,-358.21C2183.46,-350.94 2029.65,-341.28 1893.73,-332.86 1631.96,-316.64 1565.01,-329.03 1304.73,-296.86 1286.17,-294.57 1266.72,-291.61 1247.58,-288.36"/>
<polygon fill="black" stroke="black" points="1248.05,-284.89 1237.6,-286.64 1246.86,-291.79 1248.05,-284.89"/>
</g>
<!-- n17 -->
<g id="node19" class="node">
<title>n17</title>
<ellipse fill="none" stroke="black" cx="1499.73" cy="-259.38" rx="185.94" ry="37.45"/>
<text text-anchor="middle" x="1499.73" y="-270.68" font-family="Times,serif" font-size="14.00">por</text>
<text text-anchor="middle" x="1499.73" y="-255.68" font-family="Times,serif" font-size="14.00">sps00 (prepv)</text>
<text text-anchor="middle" x="1499.73" y="-240.68" font-family="Times,serif" font-size="14.00">rep=no, t=no, r=no, m=yes, c=no</text>
</g>
<!-- n23&#45;&gt;n17 -->
<g id="edge18" class="edge">
<title>n23&#45;&gt;n17</title>
<path fill="none" stroke="black" d="M2299.55,-357.7C2141.11,-346.08 1901.65,-325.76 1694.73,-296.86 1676.73,-294.35 1657.86,-291.32 1639.26,-288.1"/>
<polygon fill="black" stroke="black" points="1639.71,-284.62 1629.26,-286.34 1638.5,-291.52 1639.71,-284.62"/>
</g>
<!-- n21 -->
<g id="node20" class="node">
<title>n21</title>
<ellipse fill="none" stroke="black" cx="1889.73" cy="-259.38" rx="185.94" ry="37.45"/>
<text text-anchor="middle" x="1889.73" y="-270.68" font-family="Times,serif" font-size="14.00">nunca</text>
<text text-anchor="middle" x="1889.73" y="-255.68" font-family="Times,serif" font-size="14.00">rg (neg)</text>
<text text-anchor="middle" x="1889.73" y="-240.68" font-family="Times,serif" font-size="14.00">rep=no, t=no, r=no, m=yes, c=no</text>
</g>
<!-- n23&#45;&gt;n21 -->
<g id="edge19" class="edge">
<title>n23&#45;&gt;n21</title>
<path fill="none" stroke="black" d="M2340.25,-344.39C2265.08,-330.43 2169.69,-312.7 2084.73,-296.86 2068.24,-293.79 2050.97,-290.56 2033.81,-287.36"/>
<polygon fill="black" stroke="black" points="2034.2,-283.87 2023.73,-285.47 2032.92,-290.75 2034.2,-283.87"/>
</g>
<!-- n22 -->
<g id="node21" class="node">
<title>n22</title>
<ellipse fill="none" stroke="black" cx="2279.73" cy="-259.38" rx="185.94" ry="37.45"/>
<text text-anchor="middle" x="2279.73" y="-270.68" font-family="Times,serif" font-size="14.00">le</text>
<text text-anchor="middle" x="2279.73" y="-255.68" font-family="Times,serif" font-size="14.00">pp3csd00 (iobj)</text>
<text text-anchor="middle" x="2279.73" y="-240.68" font-family="Times,serif" font-size="14.00">rep=no, t=no, r=no, m=yes, c=no</text>
</g>
<!-- n23&#45;&gt;n22 -->
<g id="edge20" class="edge">
<title>n23&#45;&gt;n22</title>
<path fill="none" stroke="black" d="M2413.03,-334.86C2393.1,-323.73 2370.86,-311.3 2350.34,-299.84"/>
<polygon fill="black" stroke="black" points="2351.8,-296.64 2341.36,-294.82 2348.38,-302.75 2351.8,-296.64"/>
</g>
<!-- n25 -->
<g id="node22" class="node">
<title>n25</title>
<ellipse fill="none" stroke="black" cx="2669.73" cy="-259.38" rx="185.94" ry="37.45"/>
<text text-anchor="middle" x="2669.73" y="-270.68" font-family="Times,serif" font-size="14.00">dientes</text>
<text text-anchor="middle" x="2669.73" y="-255.68" font-family="Times,serif" font-size="14.00">ncmp000 (nsubj)</text>
<text text-anchor="middle" x="2669.73" y="-240.68" font-family="Times,serif" font-size="14.00">rep=no, t=no, r=no, m=yes, c=no</text>
</g>
<!-- n23&#45;&gt;n25 -->
<g id="edge21" class="edge">
<title>n23&#45;&gt;n25</title>
<path fill="none" stroke="black" d="M2536.43,-334.86C2556.35,-323.73 2578.59,-311.3 2599.11,-299.84"/>
<polygon fill="black" stroke="black" points="2601.07,-302.75 2608.09,-294.82 2597.66,-296.64 2601.07,-302.75"/>
</g>
<!-- n26 -->
<g id="node23" class="node">
<title>n26</title>
<ellipse fill="none" stroke="black" cx="3059.73" cy="-259.38" rx="185.94" ry="37.45"/>
<text text-anchor="middle" x="3059.73" y="-270.68" font-family="Times,serif" font-size="14.00">,</text>
<text text-anchor="middle" x="3059.73" y="-255.68" font-family="Times,serif" font-size="14.00">fc (punct)</text>
<text text-anchor="middle" x="3059.73" y="-240.68" font-family="Times,serif" font-size="14.00">rep=no, t=no, r=no, m=yes, c=no</text>
</g>
<!-- n23&#45;&gt;n26 -->
<g id="edge22" class="edge">
<title>n23&#45;&gt;n26</title>
<path fill="none" stroke="black" d="M2609.2,-344.39C2684.37,-330.43 2779.76,-312.7 2864.73,-296.86 2881.21,-293.79 2898.48,-290.56 2915.64,-287.36"/>
<polygon fill="black" stroke="black" points="2916.54,-290.75 2925.72,-285.47 2915.25,-283.87 2916.54,-290.75"/>
</g>
<!-- n27 -->
<g id="node24" class="node">
<title>n27</title>
<ellipse fill="none" stroke="black" cx="3449.73" cy="-259.38" rx="185.94" ry="37.45"/>
<text text-anchor="middle" x="3449.73" y="-270.68" font-family="Times,serif" font-size="14.00">aunque</text>
<text text-anchor="middle" x="3449.73" y="-255.68" font-family="Times,serif" font-size="14.00">cs (advcl)</text>
<text text-anchor="middle" x="3449.73" y="-240.68" font-family="Times,serif" font-size="14.00">rep=no, t=no, r=no, m=yes, c=no</text>
</g>
<!-- n23&#45;&gt;n27 -->
<g id="edge23" class="edge">
<title>n23&#45;&gt;n27</title>
<path fill="none" stroke="black" d="M2649.9,-357.7C2808.34,-346.08 3047.81,-325.76 3254.73,-296.86 3272.73,-294.35 3291.59,-291.32 3310.2,-288.1"/>
<polygon fill="black" stroke="black" points="3310.95,-291.52 3320.2,-286.34 3309.74,-284.62 3310.95,-291.52"/>
</g>
<!-- n29 -->
<g id="node25" class="node">
<title>n29</title>
<ellipse fill="none" stroke="black" cx="3839.73" cy="-259.38" rx="185.94" ry="37.45"/>
<text text-anchor="middle" x="3839.73" y="-270.68" font-family="Times,serif" font-size="14.00">&quot;</text>
<text text-anchor="middle" x="3839.73" y="-255.68" font-family="Times,serif" font-size="14.00">fe (punct)</text>
<text text-anchor="middle" x="3839.73" y="-240.68" font-family="Times,serif" font-size="14.00">rep=no, t=no, r=no, m=yes, c=no</text>
</g>
<!-- n23&#45;&gt;n29 -->
<g id="edge24" class="edge">
<title>n23&#45;&gt;n29</title>
<path fill="none" stroke="black" d="M2658.77,-364.93C2889.79,-357.8 3297.85,-339.88 3644.73,-296.86 3663.28,-294.56 3682.74,-291.59 3701.87,-288.35"/>
<polygon fill="black" stroke="black" points="3702.59,-291.78 3711.85,-286.63 3701.4,-284.88 3702.59,-291.78"/>
</g>
<!-- n20 -->
<g id="node26" class="node">
<title>n20</title>
<ellipse fill="none" stroke="black" cx="1499.73" cy="-148.43" rx="185.94" ry="37.45"/>
<text text-anchor="middle" x="1499.73" y="-159.73" font-family="Times,serif" font-size="14.00">motivo</text>
<text text-anchor="middle" x="1499.73" y="-144.73" font-family="Times,serif" font-size="14.00">ncms000 (pobj)</text>
<text text-anchor="middle" x="1499.73" y="-129.73" font-family="Times,serif" font-size="14.00">rep=no, t=no, r=no, m=yes, c=no</text>
</g>
<!-- n17&#45;&gt;n20 -->
<g id="edge25" class="edge">
<title>n17&#45;&gt;n20</title>
<path fill="none" stroke="black" d="M1499.73,-221.8C1499.73,-213.63 1499.73,-204.85 1499.73,-196.32"/>
<polygon fill="black" stroke="black" points="1503.23,-196.1 1499.73,-186.1 1496.23,-196.1 1503.23,-196.1"/>
</g>
<!-- n24 -->
<g id="node29" class="node">
<title>n24</title>
<ellipse fill="none" stroke="black" cx="2669.73" cy="-148.43" rx="185.94" ry="37.45"/>
<text text-anchor="middle" x="2669.73" y="-159.73" font-family="Times,serif" font-size="14.00">los</text>
<text text-anchor="middle" x="2669.73" y="-144.73" font-family="Times,serif" font-size="14.00">da0mp0 (det)</text>
<text text-anchor="middle" x="2669.73" y="-129.73" font-family="Times,serif" font-size="14.00">rep=no, t=no, r=no, m=yes, c=no</text>
</g>
<!-- n25&#45;&gt;n24 -->
<g id="edge28" class="edge">
<title>n25&#45;&gt;n24</title>
<path fill="none" stroke="black" d="M2669.73,-221.8C2669.73,-213.63 2669.73,-204.85 2669.73,-196.32"/>
<polygon fill="black" stroke="black" points="2673.23,-196.1 2669.73,-186.1 2666.23,-196.1 2673.23,-196.1"/>
</g>
<!-- n28 -->
<g id="node30" class="node">
<title>n28</title>
<ellipse fill="none" stroke="black" cx="3449.73" cy="-148.43" rx="185.94" ry="37.45"/>
<text text-anchor="middle" x="3449.73" y="-159.73" font-family="Times,serif" font-size="14.00">sonría</text>
<text text-anchor="middle" x="3449.73" y="-144.73" font-family="Times,serif" font-size="14.00">vmsp3s0 (cobj)</text>
<text text-anchor="middle" x="3449.73" y="-129.73" font-family="Times,serif" font-size="14.00">rep=no, t=no, r=no, m=yes, c=no</text>
</g>
<!-- n27&#45;&gt;n28 -->
<g id="edge29" class="edge">
<title>n27&#45;&gt;n28</title>
<path fill="none" stroke="black" d="M3449.73,-221.8C3449.73,-213.63 3449.73,-204.85 3449.73,-196.32"/>
<polygon fill="black" stroke="black" points="3453.23,-196.1 3449.73,-186.1 3446.23,-196.1 3453.23,-196.1"/>
</g>
<!-- n18 -->
<g id="node27" class="node">
<title>n18</title>
<ellipse fill="none" stroke="black" cx="1304.73" cy="-37.48" rx="185.94" ry="37.45"/>
<text text-anchor="middle" x="1304.73" y="-48.78" font-family="Times,serif" font-size="14.00">algún</text>
<text text-anchor="middle" x="1304.73" y="-33.78" font-family="Times,serif" font-size="14.00">di0ms0 (det)</text>
<text text-anchor="middle" x="1304.73" y="-18.78" font-family="Times,serif" font-size="14.00">rep=no, t=no, r=no, m=yes, c=no</text>
</g>
<!-- n20&#45;&gt;n18 -->
<g id="edge26" class="edge">
<title>n20&#45;&gt;n18</title>
<path fill="none" stroke="black" d="M1438.03,-112.96C1418.1,-101.82 1395.86,-89.4 1375.34,-77.93"/>
<polygon fill="black" stroke="black" points="1376.8,-74.74 1366.36,-72.91 1373.38,-80.85 1376.8,-74.74"/>
</g>
<!-- n19 -->
<g id="node28" class="node">
<title>n19</title>
<ellipse fill="none" stroke="black" cx="1694.73" cy="-37.48" rx="185.94" ry="37.45"/>
<text text-anchor="middle" x="1694.73" y="-48.78" font-family="Times,serif" font-size="14.00">extraño</text>
<text text-anchor="middle" x="1694.73" y="-33.78" font-family="Times,serif" font-size="14.00">aq0ms0 (amod)</text>
<text text-anchor="middle" x="1694.73" y="-18.78" font-family="Times,serif" font-size="14.00">rep=no, t=no, r=no, m=yes, c=no</text>
</g>
<!-- n20&#45;&gt;n19 -->
<g id="edge27" class="edge">
<title>n20&#45;&gt;n19</title>
<path fill="none" stroke="black" d="M1561.43,-112.96C1581.35,-101.82 1603.59,-89.4 1624.11,-77.93"/>
<polygon fill="black" stroke="black" points="1626.07,-80.85 1633.09,-72.91 1622.66,-74.74 1626.07,-80.85"/>
</g>
</g>
</svg>
