<?xml version="1.0" encoding="UTF-8" standalone="no"?>
<!DOCTYPE svg PUBLIC "-//W3C//DTD SVG 1.1//EN"
 "http://www.w3.org/Graphics/SVG/1.1/DTD/svg11.dtd">
<!-- Generated by graphviz version 2.43.0 (0)
 -->
<!-- Title: tree Pages: 1 -->
<svg width="1390pt" height="416pt"
 viewBox="0.00 0.00 1389.84 415.81" xmlns="http://www.w3.org/2000/svg" xmlns:xlink="http://www.w3.org/1999/xlink">
<g id="graph0" class="graph" transform="scale(1 1) rotate(0) translate(4 411.81)">
<title>tree</title>
<polygon fill="white" stroke="transparent" points="-4,4 -4,-411.81 1385.84,-411.81 1385.84,4 -4,4"/>
<!-- n2 -->
<g id="node1" class="node">
<title>n2</title>
<ellipse fill="none" stroke="black" cx="790.92" cy="-370.34" rx="185.94" ry="37.45"/>
<text text-anchor="middle" x="790.92" y="-381.64" font-family="Times,serif" font-size="14.00">porque</text>
<text text-anchor="middle" x="790.92" y="-366.64" font-family="Times,serif" font-size="14.00">cs (root)</text>
<text text-anchor="middle" x="790.92" y="-351.64" font-family="Times,serif" font-size="14.00">rep=no, t=no, r=no, m=yes, c=no</text>
</g>
<!-- n1 -->
<g id="node2" class="node">
<title>n1</title>
<ellipse fill="none" stroke="black" cx="399.92" cy="-259.38" rx="181.95" ry="37.45"/>
<text text-anchor="middle" x="399.92" y="-270.68" font-family="Times,serif" font-size="14.00">Quizá</text>
<text text-anchor="middle" x="399.92" y="-255.68" font-family="Times,serif" font-size="14.00">rg (advmod)</text>
<text text-anchor="middle" x="399.92" y="-240.68" font-family="Times,serif" font-size="14.00">rep=no, t=no, r=no, m=no, c=no</text>
</g>
<!-- n2&#45;&gt;n1 -->
<g id="edge1" class="edge">
<title>n2&#45;&gt;n1</title>
<path fill="none" stroke="black" d="M684.08,-339.56C631.93,-325.03 569.1,-307.53 515.79,-292.67"/>
<polygon fill="black" stroke="black" points="516.53,-289.24 505.95,-289.93 514.65,-295.99 516.53,-289.24"/>
</g>
<!-- n7 -->
<g id="node3" class="node">
<title>n7</title>
<ellipse fill="#DA79E8" stroke="black" cx="790.92" cy="-259.38" rx="190.84" ry="37.45"/>
<text text-anchor="middle" x="790.92" y="-270.68" font-family="Times,serif" font-size="14.00">reconocen</text>
<text text-anchor="middle" x="790.92" y="-255.68" font-family="Times,serif" font-size="14.00">vmip3p0 (cobj)</text>
<text text-anchor="middle" x="790.92" y="-240.68" font-family="Times,serif" font-size="14.00">rep=no, t=no, r=yes, m=yes, c=no</text>
</g>
<!-- n2&#45;&gt;n7 -->
<g id="edge2" class="edge">
<title>n2&#45;&gt;n7</title>
<path fill="none" stroke="black" d="M790.92,-332.75C790.92,-324.58 790.92,-315.8 790.92,-307.27"/>
<polygon fill="black" stroke="black" points="794.42,-307.06 790.92,-297.06 787.42,-307.06 794.42,-307.06"/>
</g>
<!-- n10 -->
<g id="node4" class="node">
<title>n10</title>
<ellipse fill="none" stroke="black" cx="1181.92" cy="-259.38" rx="181.95" ry="37.45"/>
<text text-anchor="middle" x="1181.92" y="-270.68" font-family="Times,serif" font-size="14.00">.</text>
<text text-anchor="middle" x="1181.92" y="-255.68" font-family="Times,serif" font-size="14.00">fp (punct)</text>
<text text-anchor="middle" x="1181.92" y="-240.68" font-family="Times,serif" font-size="14.00">rep=no, t=no, r=no, m=no, c=no</text>
</g>
<!-- n2&#45;&gt;n10 -->
<g id="edge3" class="edge">
<title>n2&#45;&gt;n10</title>
<path fill="none" stroke="black" d="M897.76,-339.56C949.91,-325.03 1012.74,-307.53 1066.05,-292.67"/>
<polygon fill="black" stroke="black" points="1067.19,-295.99 1075.88,-289.93 1065.31,-289.24 1067.19,-295.99"/>
</g>
<!-- n4 -->
<g id="node5" class="node">
<title>n4</title>
<ellipse fill="#BEDA48" stroke="black" cx="390.92" cy="-148.43" rx="190.84" ry="37.45"/>
<text text-anchor="middle" x="390.92" y="-159.73" font-family="Times,serif" font-size="14.00">reses</text>
<text text-anchor="middle" x="390.92" y="-144.73" font-family="Times,serif" font-size="14.00">ncfp000 (nsubj)</text>
<text text-anchor="middle" x="390.92" y="-129.73" font-family="Times,serif" font-size="14.00">rep=no, t=yes, r=no, m=yes, c=no</text>
</g>
<!-- n7&#45;&gt;n4 -->
<g id="edge4" class="edge">
<title>n7&#45;&gt;n4</title>
<path fill="none" stroke="black" d="M681.62,-228.61C628.48,-214.14 564.51,-196.71 510.12,-181.9"/>
<polygon fill="black" stroke="black" points="511,-178.51 500.44,-179.26 509.16,-185.27 511,-178.51"/>
</g>
<!-- n6 -->
<g id="node6" class="node">
<title>n6</title>
<ellipse fill="#DA79E8" stroke="black" cx="790.92" cy="-148.43" rx="190.84" ry="37.45"/>
<text text-anchor="middle" x="790.92" y="-159.73" font-family="Times,serif" font-size="14.00">se</text>
<text text-anchor="middle" x="790.92" y="-144.73" font-family="Times,serif" font-size="14.00">pp3cn000 (reflec)</text>
<text text-anchor="middle" x="790.92" y="-129.73" font-family="Times,serif" font-size="14.00">rep=no, t=no, r=yes, m=yes, c=no</text>
</g>
<!-- n7&#45;&gt;n6 -->
<g id="edge5" class="edge">
<title>n7&#45;&gt;n6</title>
<path fill="none" stroke="black" d="M790.92,-221.8C790.92,-213.63 790.92,-204.85 790.92,-196.32"/>
<polygon fill="black" stroke="black" points="794.42,-196.1 790.92,-186.1 787.42,-196.1 794.42,-196.1"/>
</g>
<!-- n8 -->
<g id="node7" class="node">
<title>n8</title>
<ellipse fill="#DA79E8" stroke="black" cx="1190.92" cy="-148.43" rx="190.84" ry="37.45"/>
<text text-anchor="middle" x="1190.92" y="-159.73" font-family="Times,serif" font-size="14.00">entre</text>
<text text-anchor="middle" x="1190.92" y="-144.73" font-family="Times,serif" font-size="14.00">sps00 (prepv)</text>
<text text-anchor="middle" x="1190.92" y="-129.73" font-family="Times,serif" font-size="14.00">rep=no, t=no, r=yes, m=yes, c=no</text>
</g>
<!-- n7&#45;&gt;n8 -->
<g id="edge6" class="edge">
<title>n7&#45;&gt;n8</title>
<path fill="none" stroke="black" d="M900.22,-228.61C953.36,-214.14 1017.33,-196.71 1071.71,-181.9"/>
<polygon fill="black" stroke="black" points="1072.67,-185.27 1081.4,-179.26 1070.83,-178.51 1072.67,-185.27"/>
</g>
<!-- n3 -->
<g id="node8" class="node">
<title>n3</title>
<ellipse fill="#BEDA48" stroke="black" cx="190.92" cy="-37.48" rx="190.84" ry="37.45"/>
<text text-anchor="middle" x="190.92" y="-48.78" font-family="Times,serif" font-size="14.00">las</text>
<text text-anchor="middle" x="190.92" y="-33.78" font-family="Times,serif" font-size="14.00">da0fp0 (det)</text>
<text text-anchor="middle" x="190.92" y="-18.78" font-family="Times,serif" font-size="14.00">rep=no, t=yes, r=no, m=yes, c=no</text>
</g>
<!-- n4&#45;&gt;n3 -->
<g id="edge7" class="edge">
<title>n4&#45;&gt;n3</title>
<path fill="none" stroke="black" d="M327.64,-112.96C307.11,-101.77 284.18,-89.28 263.06,-77.78"/>
<polygon fill="black" stroke="black" points="264.59,-74.62 254.13,-72.91 261.24,-80.77 264.59,-74.62"/>
</g>
<!-- n5 -->
<g id="node9" class="node">
<title>n5</title>
<ellipse fill="#BEDA48" stroke="black" cx="590.92" cy="-37.48" rx="190.84" ry="37.45"/>
<text text-anchor="middle" x="590.92" y="-48.78" font-family="Times,serif" font-size="14.00">bravas</text>
<text text-anchor="middle" x="590.92" y="-33.78" font-family="Times,serif" font-size="14.00">aq0fp0 (amod)</text>
<text text-anchor="middle" x="590.92" y="-18.78" font-family="Times,serif" font-size="14.00">rep=no, t=yes, r=no, m=yes, c=no</text>
</g>
<!-- n4&#45;&gt;n5 -->
<g id="edge8" class="edge">
<title>n4&#45;&gt;n5</title>
<path fill="none" stroke="black" d="M454.2,-112.96C474.73,-101.77 497.65,-89.28 518.78,-77.78"/>
<polygon fill="black" stroke="black" points="520.6,-80.77 527.71,-72.91 517.25,-74.62 520.6,-80.77"/>
</g>
<!-- n9 -->
<g id="node10" class="node">
<title>n9</title>
<ellipse fill="#DA79E8" stroke="black" cx="1190.92" cy="-37.48" rx="190.84" ry="37.45"/>
<text text-anchor="middle" x="1190.92" y="-48.78" font-family="Times,serif" font-size="14.00">ellas</text>
<text text-anchor="middle" x="1190.92" y="-33.78" font-family="Times,serif" font-size="14.00">pp3fp000 (pobj)</text>
<text text-anchor="middle" x="1190.92" y="-18.78" font-family="Times,serif" font-size="14.00">rep=no, t=no, r=yes, m=yes, c=no</text>
</g>
<!-- n8&#45;&gt;n9 -->
<g id="edge9" class="edge">
<title>n8&#45;&gt;n9</title>
<path fill="none" stroke="black" d="M1190.92,-110.85C1190.92,-102.67 1190.92,-93.89 1190.92,-85.37"/>
<polygon fill="black" stroke="black" points="1194.42,-85.15 1190.92,-75.15 1187.42,-85.15 1194.42,-85.15"/>
</g>
</g>
</svg>
