<?xml version="1.0" encoding="UTF-8" standalone="no"?>
<!DOCTYPE svg PUBLIC "-//W3C//DTD SVG 1.1//EN"
 "http://www.w3.org/Graphics/SVG/1.1/DTD/svg11.dtd">
<!-- Generated by graphviz version 2.43.0 (0)
 -->
<!-- Title: tree Pages: 1 -->
<svg width="4295pt" height="1858pt"
 viewBox="0.00 0.00 4294.74 1858.21" xmlns="http://www.w3.org/2000/svg" xmlns:xlink="http://www.w3.org/1999/xlink">
<g id="graph0" class="graph" transform="scale(1 1) rotate(0) translate(4 1854.21)">
<title>tree</title>
<polygon fill="white" stroke="transparent" points="-4,4 -4,-1854.21 4290.74,-1854.21 4290.74,4 -4,4"/>
<!-- n5 -->
<g id="node1" class="node">
<title>n5</title>
<ellipse fill="#98D2A5" stroke="black" cx="1025.87" cy="-1812.73" rx="190.84" ry="37.45"/>
<text text-anchor="middle" x="1025.87" y="-1824.03" font-family="Times,serif" font-size="14.00">ha</text>
<text text-anchor="middle" x="1025.87" y="-1809.03" font-family="Times,serif" font-size="14.00">vaip3s0 (root)</text>
<text text-anchor="middle" x="1025.87" y="-1794.03" font-family="Times,serif" font-size="14.00">rep=no, t=no, r=yes, m=yes, c=no</text>
</g>
<!-- n2 -->
<g id="node2" class="node">
<title>n2</title>
<ellipse fill="none" stroke="black" cx="234.87" cy="-1701.78" rx="181.95" ry="37.45"/>
<text text-anchor="middle" x="234.87" y="-1713.08" font-family="Times,serif" font-size="14.00">,</text>
<text text-anchor="middle" x="234.87" y="-1698.08" font-family="Times,serif" font-size="14.00">fc (punct)</text>
<text text-anchor="middle" x="234.87" y="-1683.08" font-family="Times,serif" font-size="14.00">rep=no, t=no, r=no, m=no, c=no</text>
</g>
<!-- n5&#45;&gt;n2 -->
<g id="edge1" class="edge">
<title>n5&#45;&gt;n2</title>
<path fill="none" stroke="black" d="M858.63,-1794.63C738.03,-1781.55 571.53,-1761.93 425.87,-1739.25 408.63,-1736.57 390.57,-1733.48 372.72,-1730.26"/>
<polygon fill="black" stroke="black" points="373.29,-1726.81 362.83,-1728.47 372.04,-1733.7 373.29,-1726.81"/>
</g>
<!-- n4 -->
<g id="node3" class="node">
<title>n4</title>
<ellipse fill="#98D2A5" stroke="black" cx="625.87" cy="-1701.78" rx="190.84" ry="37.45"/>
<text text-anchor="middle" x="625.87" y="-1713.08" font-family="Times,serif" font-size="14.00">tempestad</text>
<text text-anchor="middle" x="625.87" y="-1698.08" font-family="Times,serif" font-size="14.00">ncfs000 (nsubj)</text>
<text text-anchor="middle" x="625.87" y="-1683.08" font-family="Times,serif" font-size="14.00">rep=no, t=yes, r=no, m=yes, c=no</text>
</g>
<!-- n5&#45;&gt;n4 -->
<g id="edge2" class="edge">
<title>n5&#45;&gt;n4</title>
<path fill="none" stroke="black" d="M916.57,-1781.96C863.43,-1767.48 799.46,-1750.06 745.07,-1735.25"/>
<polygon fill="black" stroke="black" points="745.95,-1731.86 735.39,-1732.61 744.11,-1738.61 745.95,-1731.86"/>
</g>
<!-- n6 -->
<g id="node4" class="node">
<title>n6</title>
<ellipse fill="#98D2A5" stroke="black" cx="1025.87" cy="-1701.78" rx="190.84" ry="37.45"/>
<text text-anchor="middle" x="1025.87" y="-1713.08" font-family="Times,serif" font-size="14.00">pasado</text>
<text text-anchor="middle" x="1025.87" y="-1698.08" font-family="Times,serif" font-size="14.00">vmp00sm (vobj)</text>
<text text-anchor="middle" x="1025.87" y="-1683.08" font-family="Times,serif" font-size="14.00">rep=no, t=no, r=yes, m=yes, c=no</text>
</g>
<!-- n5&#45;&gt;n6 -->
<g id="edge3" class="edge">
<title>n5&#45;&gt;n6</title>
<path fill="none" stroke="black" d="M1025.87,-1775.15C1025.87,-1766.97 1025.87,-1758.19 1025.87,-1749.67"/>
<polygon fill="black" stroke="black" points="1029.37,-1749.45 1025.87,-1739.45 1022.37,-1749.45 1029.37,-1749.45"/>
</g>
<!-- n7 -->
<g id="node5" class="node">
<title>n7</title>
<ellipse fill="none" stroke="black" cx="1416.87" cy="-1701.78" rx="181.95" ry="37.45"/>
<text text-anchor="middle" x="1416.87" y="-1713.08" font-family="Times,serif" font-size="14.00">,</text>
<text text-anchor="middle" x="1416.87" y="-1698.08" font-family="Times,serif" font-size="14.00">fc (punct)</text>
<text text-anchor="middle" x="1416.87" y="-1683.08" font-family="Times,serif" font-size="14.00">rep=no, t=no, r=no, m=no, c=no</text>
</g>
<!-- n5&#45;&gt;n7 -->
<g id="edge4" class="edge">
<title>n5&#45;&gt;n7</title>
<path fill="none" stroke="black" d="M1133.49,-1781.74C1185.52,-1767.24 1248.04,-1749.82 1301.11,-1735.03"/>
<polygon fill="black" stroke="black" points="1302.21,-1738.36 1310.9,-1732.31 1300.33,-1731.62 1302.21,-1738.36"/>
</g>
<!-- n41 -->
<g id="node6" class="node">
<title>n41</title>
<ellipse fill="none" stroke="black" cx="1797.87" cy="-1701.78" rx="181.95" ry="37.45"/>
<text text-anchor="middle" x="1797.87" y="-1713.08" font-family="Times,serif" font-size="14.00">.</text>
<text text-anchor="middle" x="1797.87" y="-1698.08" font-family="Times,serif" font-size="14.00">fp (punct)</text>
<text text-anchor="middle" x="1797.87" y="-1683.08" font-family="Times,serif" font-size="14.00">rep=no, t=no, r=no, m=no, c=no</text>
</g>
<!-- n5&#45;&gt;n41 -->
<g id="edge5" class="edge">
<title>n5&#45;&gt;n41</title>
<path fill="none" stroke="black" d="M1191.53,-1794.03C1308.22,-1780.86 1467.95,-1761.37 1607.87,-1739.25 1624.72,-1736.59 1642.36,-1733.55 1659.81,-1730.38"/>
<polygon fill="black" stroke="black" points="1660.86,-1733.75 1670.06,-1728.51 1659.59,-1726.86 1660.86,-1733.75"/>
</g>
<!-- n3 -->
<g id="node7" class="node">
<title>n3</title>
<ellipse fill="#98D2A5" stroke="black" cx="625.87" cy="-1590.82" rx="190.84" ry="37.45"/>
<text text-anchor="middle" x="625.87" y="-1602.12" font-family="Times,serif" font-size="14.00">la</text>
<text text-anchor="middle" x="625.87" y="-1587.12" font-family="Times,serif" font-size="14.00">da0fs0 (det)</text>
<text text-anchor="middle" x="625.87" y="-1572.12" font-family="Times,serif" font-size="14.00">rep=no, t=yes, r=no, m=yes, c=no</text>
</g>
<!-- n4&#45;&gt;n3 -->
<g id="edge6" class="edge">
<title>n4&#45;&gt;n3</title>
<path fill="none" stroke="black" d="M625.87,-1664.19C625.87,-1656.02 625.87,-1647.24 625.87,-1638.71"/>
<polygon fill="black" stroke="black" points="629.37,-1638.49 625.87,-1628.49 622.37,-1638.5 629.37,-1638.49"/>
</g>
<!-- n1 -->
<g id="node8" class="node">
<title>n1</title>
<ellipse fill="#98D2A5" stroke="black" cx="1025.87" cy="-1590.82" rx="190.84" ry="37.45"/>
<text text-anchor="middle" x="1025.87" y="-1602.12" font-family="Times,serif" font-size="14.00">Ahora</text>
<text text-anchor="middle" x="1025.87" y="-1587.12" font-family="Times,serif" font-size="14.00">rg (advmod)</text>
<text text-anchor="middle" x="1025.87" y="-1572.12" font-family="Times,serif" font-size="14.00">rep=no, t=no, r=yes, m=yes, c=no</text>
</g>
<!-- n6&#45;&gt;n1 -->
<g id="edge7" class="edge">
<title>n6&#45;&gt;n1</title>
<path fill="none" stroke="black" d="M1025.87,-1664.19C1025.87,-1656.02 1025.87,-1647.24 1025.87,-1638.71"/>
<polygon fill="black" stroke="black" points="1029.37,-1638.49 1025.87,-1628.49 1022.37,-1638.5 1029.37,-1638.49"/>
</g>
<!-- n8 -->
<g id="node9" class="node">
<title>n8</title>
<ellipse fill="#98D2A5" stroke="black" cx="1425.87" cy="-1590.82" rx="190.84" ry="37.45"/>
<text text-anchor="middle" x="1425.87" y="-1602.12" font-family="Times,serif" font-size="14.00">según</text>
<text text-anchor="middle" x="1425.87" y="-1587.12" font-family="Times,serif" font-size="14.00">sps00 (advcl)</text>
<text text-anchor="middle" x="1425.87" y="-1572.12" font-family="Times,serif" font-size="14.00">rep=no, t=no, r=yes, m=yes, c=no</text>
</g>
<!-- n6&#45;&gt;n8 -->
<g id="edge8" class="edge">
<title>n6&#45;&gt;n8</title>
<path fill="none" stroke="black" d="M1135.17,-1671C1188.3,-1656.53 1252.28,-1639.11 1306.66,-1624.29"/>
<polygon fill="black" stroke="black" points="1307.62,-1627.66 1316.35,-1621.65 1305.78,-1620.9 1307.62,-1627.66"/>
</g>
<!-- n10 -->
<g id="node10" class="node">
<title>n10</title>
<ellipse fill="#98D2A5" stroke="black" cx="1425.87" cy="-1479.87" rx="195.74" ry="37.45"/>
<text text-anchor="middle" x="1425.87" y="-1491.17" font-family="Times,serif" font-size="14.00">delegado</text>
<text text-anchor="middle" x="1425.87" y="-1476.17" font-family="Times,serif" font-size="14.00">ncms000 (pobj)</text>
<text text-anchor="middle" x="1425.87" y="-1461.17" font-family="Times,serif" font-size="14.00">rep=yes, t=no, r=yes, m=yes, c=no</text>
</g>
<!-- n8&#45;&gt;n10 -->
<g id="edge9" class="edge">
<title>n8&#45;&gt;n10</title>
<path fill="none" stroke="black" d="M1425.87,-1553.24C1425.87,-1545.07 1425.87,-1536.29 1425.87,-1527.76"/>
<polygon fill="black" stroke="black" points="1429.37,-1527.54 1425.87,-1517.54 1422.37,-1527.54 1429.37,-1527.54"/>
</g>
<!-- n9 -->
<g id="node11" class="node">
<title>n9</title>
<ellipse fill="#98D2A5" stroke="black" cx="195.87" cy="-1368.92" rx="195.74" ry="37.45"/>
<text text-anchor="middle" x="195.87" y="-1380.22" font-family="Times,serif" font-size="14.00">el</text>
<text text-anchor="middle" x="195.87" y="-1365.22" font-family="Times,serif" font-size="14.00">da0ms0 (det)</text>
<text text-anchor="middle" x="195.87" y="-1350.22" font-family="Times,serif" font-size="14.00">rep=yes, t=no, r=yes, m=yes, c=no</text>
</g>
<!-- n10&#45;&gt;n9 -->
<g id="edge10" class="edge">
<title>n10&#45;&gt;n9</title>
<path fill="none" stroke="black" d="M1234.96,-1471.4C1028.67,-1461.92 690.55,-1442.31 400.87,-1406.39 381.53,-1404 361.25,-1400.99 341.28,-1397.74"/>
<polygon fill="black" stroke="black" points="341.63,-1394.25 331.2,-1396.08 340.49,-1401.16 341.63,-1394.25"/>
</g>
<!-- n11 -->
<g id="node12" class="node">
<title>n11</title>
<ellipse fill="#98D2A5" stroke="black" cx="605.87" cy="-1368.92" rx="195.74" ry="37.45"/>
<text text-anchor="middle" x="605.87" y="-1380.22" font-family="Times,serif" font-size="14.00">del</text>
<text text-anchor="middle" x="605.87" y="-1365.22" font-family="Times,serif" font-size="14.00">spcms (prepn)</text>
<text text-anchor="middle" x="605.87" y="-1350.22" font-family="Times,serif" font-size="14.00">rep=yes, t=no, r=yes, m=yes, c=no</text>
</g>
<!-- n10&#45;&gt;n11 -->
<g id="edge11" class="edge">
<title>n10&#45;&gt;n11</title>
<path fill="none" stroke="black" d="M1255.18,-1461.48C1131.56,-1448.22 960.56,-1428.51 810.87,-1406.39 792.37,-1403.66 772.97,-1400.54 753.8,-1397.31"/>
<polygon fill="black" stroke="black" points="754.25,-1393.83 743.8,-1395.6 753.07,-1400.73 754.25,-1393.83"/>
</g>
<!-- n13 -->
<g id="node13" class="node">
<title>n13</title>
<ellipse fill="#98D2A5" stroke="black" cx="1015.87" cy="-1368.92" rx="195.74" ry="37.45"/>
<text text-anchor="middle" x="1015.87" y="-1380.22" font-family="Times,serif" font-size="14.00">en</text>
<text text-anchor="middle" x="1015.87" y="-1365.22" font-family="Times,serif" font-size="14.00">sps00 (prepn)</text>
<text text-anchor="middle" x="1015.87" y="-1350.22" font-family="Times,serif" font-size="14.00">rep=yes, t=no, r=yes, m=yes, c=no</text>
</g>
<!-- n10&#45;&gt;n13 -->
<g id="edge12" class="edge">
<title>n10&#45;&gt;n13</title>
<path fill="none" stroke="black" d="M1313.83,-1449.1C1259.37,-1434.62 1193.8,-1417.2 1138.05,-1402.39"/>
<polygon fill="black" stroke="black" points="1138.69,-1398.93 1128.12,-1399.75 1136.89,-1405.7 1138.69,-1398.93"/>
</g>
<!-- n15 -->
<g id="node14" class="node">
<title>n15</title>
<ellipse fill="#98D2A5" stroke="black" cx="1425.87" cy="-1368.92" rx="195.74" ry="37.45"/>
<text text-anchor="middle" x="1425.87" y="-1380.22" font-family="Times,serif" font-size="14.00">,</text>
<text text-anchor="middle" x="1425.87" y="-1365.22" font-family="Times,serif" font-size="14.00">fc (punct)</text>
<text text-anchor="middle" x="1425.87" y="-1350.22" font-family="Times,serif" font-size="14.00">rep=yes, t=no, r=yes, m=yes, c=no</text>
</g>
<!-- n10&#45;&gt;n15 -->
<g id="edge13" class="edge">
<title>n10&#45;&gt;n15</title>
<path fill="none" stroke="black" d="M1425.87,-1442.29C1425.87,-1434.11 1425.87,-1425.33 1425.87,-1416.81"/>
<polygon fill="black" stroke="black" points="1429.37,-1416.59 1425.87,-1406.59 1422.37,-1416.59 1429.37,-1416.59"/>
</g>
<!-- n16 -->
<g id="node15" class="node">
<title>n16</title>
<ellipse fill="#98D2A5" stroke="black" cx="1835.87" cy="-1368.92" rx="195.74" ry="37.45"/>
<text text-anchor="middle" x="1835.87" y="-1380.22" font-family="Times,serif" font-size="14.00">Xavier</text>
<text text-anchor="middle" x="1835.87" y="-1365.22" font-family="Times,serif" font-size="14.00">np0000l (appos)</text>
<text text-anchor="middle" x="1835.87" y="-1350.22" font-family="Times,serif" font-size="14.00">rep=yes, t=no, r=yes, m=yes, c=no</text>
</g>
<!-- n10&#45;&gt;n16 -->
<g id="edge14" class="edge">
<title>n10&#45;&gt;n16</title>
<path fill="none" stroke="black" d="M1537.9,-1449.1C1592.37,-1434.62 1657.94,-1417.2 1713.68,-1402.39"/>
<polygon fill="black" stroke="black" points="1714.85,-1405.7 1723.61,-1399.75 1713.05,-1398.93 1714.85,-1405.7"/>
</g>
<!-- n18 -->
<g id="node16" class="node">
<title>n18</title>
<ellipse fill="#98D2A5" stroke="black" cx="2245.87" cy="-1368.92" rx="195.74" ry="37.45"/>
<text text-anchor="middle" x="2245.87" y="-1380.22" font-family="Times,serif" font-size="14.00">,</text>
<text text-anchor="middle" x="2245.87" y="-1365.22" font-family="Times,serif" font-size="14.00">fc (punct)</text>
<text text-anchor="middle" x="2245.87" y="-1350.22" font-family="Times,serif" font-size="14.00">rep=yes, t=no, r=yes, m=yes, c=no</text>
</g>
<!-- n10&#45;&gt;n18 -->
<g id="edge15" class="edge">
<title>n10&#45;&gt;n18</title>
<path fill="none" stroke="black" d="M1596.56,-1461.48C1720.18,-1448.22 1891.17,-1428.51 2040.87,-1406.39 2059.37,-1403.66 2078.76,-1400.54 2097.94,-1397.31"/>
<polygon fill="black" stroke="black" points="2098.66,-1400.73 2107.93,-1395.6 2097.49,-1393.83 2098.66,-1400.73"/>
</g>
<!-- n20 -->
<g id="node17" class="node">
<title>n20</title>
<ellipse fill="#98D2A5" stroke="black" cx="2655.87" cy="-1368.92" rx="195.74" ry="37.45"/>
<text text-anchor="middle" x="2655.87" y="-1380.22" font-family="Times,serif" font-size="14.00">subraya</text>
<text text-anchor="middle" x="2655.87" y="-1365.22" font-family="Times,serif" font-size="14.00">vmip3s0 (rcmod)</text>
<text text-anchor="middle" x="2655.87" y="-1350.22" font-family="Times,serif" font-size="14.00">rep=yes, t=no, r=yes, m=yes, c=no</text>
</g>
<!-- n10&#45;&gt;n20 -->
<g id="edge16" class="edge">
<title>n10&#45;&gt;n20</title>
<path fill="none" stroke="black" d="M1616.78,-1471.4C1823.07,-1461.92 2161.19,-1442.31 2450.87,-1406.39 2470.2,-1404 2490.48,-1400.99 2510.45,-1397.74"/>
<polygon fill="black" stroke="black" points="2511.25,-1401.16 2520.54,-1396.08 2510.1,-1394.25 2511.25,-1401.16"/>
</g>
<!-- n12 -->
<g id="node18" class="node">
<title>n12</title>
<ellipse fill="#98D2A5" stroke="black" cx="605.87" cy="-1257.96" rx="195.74" ry="37.45"/>
<text text-anchor="middle" x="605.87" y="-1269.26" font-family="Times,serif" font-size="14.00">Govern</text>
<text text-anchor="middle" x="605.87" y="-1254.26" font-family="Times,serif" font-size="14.00">np00000 (pobj)</text>
<text text-anchor="middle" x="605.87" y="-1239.26" font-family="Times,serif" font-size="14.00">rep=yes, t=no, r=yes, m=yes, c=no</text>
</g>
<!-- n11&#45;&gt;n12 -->
<g id="edge17" class="edge">
<title>n11&#45;&gt;n12</title>
<path fill="none" stroke="black" d="M605.87,-1331.33C605.87,-1323.16 605.87,-1314.38 605.87,-1305.85"/>
<polygon fill="black" stroke="black" points="609.37,-1305.64 605.87,-1295.64 602.37,-1305.64 609.37,-1305.64"/>
</g>
<!-- n14 -->
<g id="node19" class="node">
<title>n14</title>
<ellipse fill="#98D2A5" stroke="black" cx="1015.87" cy="-1257.96" rx="195.74" ry="37.45"/>
<text text-anchor="middle" x="1015.87" y="-1269.26" font-family="Times,serif" font-size="14.00">Girona</text>
<text text-anchor="middle" x="1015.87" y="-1254.26" font-family="Times,serif" font-size="14.00">np00000 (pobj)</text>
<text text-anchor="middle" x="1015.87" y="-1239.26" font-family="Times,serif" font-size="14.00">rep=yes, t=no, r=yes, m=yes, c=no</text>
</g>
<!-- n13&#45;&gt;n14 -->
<g id="edge18" class="edge">
<title>n13&#45;&gt;n14</title>
<path fill="none" stroke="black" d="M1015.87,-1331.33C1015.87,-1323.16 1015.87,-1314.38 1015.87,-1305.85"/>
<polygon fill="black" stroke="black" points="1019.37,-1305.64 1015.87,-1295.64 1012.37,-1305.64 1019.37,-1305.64"/>
</g>
<!-- n17 -->
<g id="node20" class="node">
<title>n17</title>
<ellipse fill="#98D2A5" stroke="black" cx="1835.87" cy="-1257.96" rx="195.74" ry="37.45"/>
<text text-anchor="middle" x="1835.87" y="-1269.26" font-family="Times,serif" font-size="14.00">Soy</text>
<text text-anchor="middle" x="1835.87" y="-1254.26" font-family="Times,serif" font-size="14.00">np0000l (appos)</text>
<text text-anchor="middle" x="1835.87" y="-1239.26" font-family="Times,serif" font-size="14.00">rep=yes, t=no, r=yes, m=yes, c=no</text>
</g>
<!-- n16&#45;&gt;n17 -->
<g id="edge19" class="edge">
<title>n16&#45;&gt;n17</title>
<path fill="none" stroke="black" d="M1835.87,-1331.33C1835.87,-1323.16 1835.87,-1314.38 1835.87,-1305.85"/>
<polygon fill="black" stroke="black" points="1839.37,-1305.64 1835.87,-1295.64 1832.37,-1305.64 1839.37,-1305.64"/>
</g>
<!-- n19 -->
<g id="node21" class="node">
<title>n19</title>
<ellipse fill="#98D2A5" stroke="black" cx="2450.87" cy="-1257.96" rx="195.74" ry="37.45"/>
<text text-anchor="middle" x="2450.87" y="-1269.26" font-family="Times,serif" font-size="14.00">que</text>
<text text-anchor="middle" x="2450.87" y="-1254.26" font-family="Times,serif" font-size="14.00">pr0cn000 (nsubj)</text>
<text text-anchor="middle" x="2450.87" y="-1239.26" font-family="Times,serif" font-size="14.00">rep=yes, t=no, r=yes, m=yes, c=no</text>
</g>
<!-- n20&#45;&gt;n19 -->
<g id="edge20" class="edge">
<title>n20&#45;&gt;n19</title>
<path fill="none" stroke="black" d="M2591.01,-1333.44C2569.87,-1322.21 2546.26,-1309.66 2524.53,-1298.11"/>
<polygon fill="black" stroke="black" points="2526.13,-1295 2515.66,-1293.4 2522.85,-1301.18 2526.13,-1295"/>
</g>
<!-- n22 -->
<g id="node22" class="node">
<title>n22</title>
<ellipse fill="#98D2A5" stroke="black" cx="2860.87" cy="-1257.96" rx="195.74" ry="37.45"/>
<text text-anchor="middle" x="2860.87" y="-1269.26" font-family="Times,serif" font-size="14.00">respaldo</text>
<text text-anchor="middle" x="2860.87" y="-1254.26" font-family="Times,serif" font-size="14.00">ncms000 (dobj)</text>
<text text-anchor="middle" x="2860.87" y="-1239.26" font-family="Times,serif" font-size="14.00">rep=yes, t=no, r=yes, m=yes, c=no</text>
</g>
<!-- n20&#45;&gt;n22 -->
<g id="edge21" class="edge">
<title>n20&#45;&gt;n22</title>
<path fill="none" stroke="black" d="M2720.73,-1333.44C2741.87,-1322.21 2765.48,-1309.66 2787.21,-1298.11"/>
<polygon fill="black" stroke="black" points="2788.89,-1301.18 2796.08,-1293.4 2785.6,-1295 2788.89,-1301.18"/>
</g>
<!-- n21 -->
<g id="node23" class="node">
<title>n21</title>
<ellipse fill="#98D2A5" stroke="black" cx="2655.87" cy="-1147.01" rx="195.74" ry="37.45"/>
<text text-anchor="middle" x="2655.87" y="-1158.31" font-family="Times,serif" font-size="14.00">el</text>
<text text-anchor="middle" x="2655.87" y="-1143.31" font-family="Times,serif" font-size="14.00">da0ms0 (det)</text>
<text text-anchor="middle" x="2655.87" y="-1128.31" font-family="Times,serif" font-size="14.00">rep=yes, t=no, r=yes, m=yes, c=no</text>
</g>
<!-- n22&#45;&gt;n21 -->
<g id="edge22" class="edge">
<title>n22&#45;&gt;n21</title>
<path fill="none" stroke="black" d="M2796.01,-1222.49C2774.87,-1211.26 2751.26,-1198.71 2729.53,-1187.16"/>
<polygon fill="black" stroke="black" points="2731.13,-1184.05 2720.66,-1182.45 2727.85,-1190.23 2731.13,-1184.05"/>
</g>
<!-- n24 -->
<g id="node24" class="node">
<title>n24</title>
<ellipse fill="#98D2A5" stroke="black" cx="3065.87" cy="-1147.01" rx="195.74" ry="37.45"/>
<text text-anchor="middle" x="3065.87" y="-1158.31" font-family="Times,serif" font-size="14.00">reciben</text>
<text text-anchor="middle" x="3065.87" y="-1143.31" font-family="Times,serif" font-size="14.00">vmip3p0 (rcmod)</text>
<text text-anchor="middle" x="3065.87" y="-1128.31" font-family="Times,serif" font-size="14.00">rep=yes, t=no, r=yes, m=yes, c=no</text>
</g>
<!-- n22&#45;&gt;n24 -->
<g id="edge23" class="edge">
<title>n22&#45;&gt;n24</title>
<path fill="none" stroke="black" d="M2925.73,-1222.49C2946.87,-1211.26 2970.48,-1198.71 2992.21,-1187.16"/>
<polygon fill="black" stroke="black" points="2993.89,-1190.23 3001.08,-1182.45 2990.6,-1184.05 2993.89,-1190.23"/>
</g>
<!-- n23 -->
<g id="node25" class="node">
<title>n23</title>
<ellipse fill="#98D2A5" stroke="black" cx="2655.87" cy="-1036.06" rx="195.74" ry="37.45"/>
<text text-anchor="middle" x="2655.87" y="-1047.36" font-family="Times,serif" font-size="14.00">que</text>
<text text-anchor="middle" x="2655.87" y="-1032.36" font-family="Times,serif" font-size="14.00">pr0cn000 (dobj)</text>
<text text-anchor="middle" x="2655.87" y="-1017.36" font-family="Times,serif" font-size="14.00">rep=yes, t=no, r=yes, m=yes, c=no</text>
</g>
<!-- n24&#45;&gt;n23 -->
<g id="edge24" class="edge">
<title>n24&#45;&gt;n23</title>
<path fill="none" stroke="black" d="M2953.83,-1116.24C2899.37,-1101.76 2833.8,-1084.34 2778.05,-1069.53"/>
<polygon fill="black" stroke="black" points="2778.69,-1066.07 2768.12,-1066.89 2776.89,-1072.84 2778.69,-1066.07"/>
</g>
<!-- n26 -->
<g id="node26" class="node">
<title>n26</title>
<ellipse fill="#98D2A5" stroke="black" cx="3065.87" cy="-1036.06" rx="195.74" ry="37.45"/>
<text text-anchor="middle" x="3065.87" y="-1047.36" font-family="Times,serif" font-size="14.00">Mossos</text>
<text text-anchor="middle" x="3065.87" y="-1032.36" font-family="Times,serif" font-size="14.00">np00000 (nsubj)</text>
<text text-anchor="middle" x="3065.87" y="-1017.36" font-family="Times,serif" font-size="14.00">rep=yes, t=no, r=yes, m=yes, c=no</text>
</g>
<!-- n24&#45;&gt;n26 -->
<g id="edge25" class="edge">
<title>n24&#45;&gt;n26</title>
<path fill="none" stroke="black" d="M3065.87,-1109.43C3065.87,-1101.25 3065.87,-1092.47 3065.87,-1083.95"/>
<polygon fill="black" stroke="black" points="3069.37,-1083.73 3065.87,-1073.73 3062.37,-1083.73 3069.37,-1083.73"/>
</g>
<!-- n27 -->
<g id="node27" class="node">
<title>n27</title>
<ellipse fill="#98D2A5" stroke="black" cx="3475.87" cy="-1036.06" rx="195.74" ry="37.45"/>
<text text-anchor="middle" x="3475.87" y="-1047.36" font-family="Times,serif" font-size="14.00">por</text>
<text text-anchor="middle" x="3475.87" y="-1032.36" font-family="Times,serif" font-size="14.00">sps00 (prepv)</text>
<text text-anchor="middle" x="3475.87" y="-1017.36" font-family="Times,serif" font-size="14.00">rep=yes, t=no, r=yes, m=yes, c=no</text>
</g>
<!-- n24&#45;&gt;n27 -->
<g id="edge26" class="edge">
<title>n24&#45;&gt;n27</title>
<path fill="none" stroke="black" d="M3177.9,-1116.24C3232.37,-1101.76 3297.94,-1084.34 3353.68,-1069.53"/>
<polygon fill="black" stroke="black" points="3354.85,-1072.84 3363.61,-1066.89 3353.05,-1066.07 3354.85,-1072.84"/>
</g>
<!-- n25 -->
<g id="node28" class="node">
<title>n25</title>
<ellipse fill="#98D2A5" stroke="black" cx="3065.87" cy="-925.1" rx="195.74" ry="37.45"/>
<text text-anchor="middle" x="3065.87" y="-936.4" font-family="Times,serif" font-size="14.00">los</text>
<text text-anchor="middle" x="3065.87" y="-921.4" font-family="Times,serif" font-size="14.00">da0mp0 (det)</text>
<text text-anchor="middle" x="3065.87" y="-906.4" font-family="Times,serif" font-size="14.00">rep=yes, t=no, r=yes, m=yes, c=no</text>
</g>
<!-- n26&#45;&gt;n25 -->
<g id="edge27" class="edge">
<title>n26&#45;&gt;n25</title>
<path fill="none" stroke="black" d="M3065.87,-998.47C3065.87,-990.3 3065.87,-981.52 3065.87,-972.99"/>
<polygon fill="black" stroke="black" points="3069.37,-972.78 3065.87,-962.78 3062.37,-972.78 3069.37,-972.78"/>
</g>
<!-- n28 -->
<g id="node29" class="node">
<title>n28</title>
<ellipse fill="#98D2A5" stroke="black" cx="3475.87" cy="-925.1" rx="195.74" ry="37.45"/>
<text text-anchor="middle" x="3475.87" y="-936.4" font-family="Times,serif" font-size="14.00">parte</text>
<text text-anchor="middle" x="3475.87" y="-921.4" font-family="Times,serif" font-size="14.00">ncfs000 (pobj)</text>
<text text-anchor="middle" x="3475.87" y="-906.4" font-family="Times,serif" font-size="14.00">rep=yes, t=no, r=yes, m=yes, c=no</text>
</g>
<!-- n27&#45;&gt;n28 -->
<g id="edge28" class="edge">
<title>n27&#45;&gt;n28</title>
<path fill="none" stroke="black" d="M3475.87,-998.47C3475.87,-990.3 3475.87,-981.52 3475.87,-972.99"/>
<polygon fill="black" stroke="black" points="3479.37,-972.78 3475.87,-962.78 3472.37,-972.78 3479.37,-972.78"/>
</g>
<!-- n29 -->
<g id="node30" class="node">
<title>n29</title>
<ellipse fill="#98D2A5" stroke="black" cx="3475.87" cy="-814.15" rx="195.74" ry="37.45"/>
<text text-anchor="middle" x="3475.87" y="-825.45" font-family="Times,serif" font-size="14.00">de</text>
<text text-anchor="middle" x="3475.87" y="-810.45" font-family="Times,serif" font-size="14.00">sps00 (prepn)</text>
<text text-anchor="middle" x="3475.87" y="-795.45" font-family="Times,serif" font-size="14.00">rep=yes, t=no, r=yes, m=yes, c=no</text>
</g>
<!-- n28&#45;&gt;n29 -->
<g id="edge29" class="edge">
<title>n28&#45;&gt;n29</title>
<path fill="none" stroke="black" d="M3475.87,-887.52C3475.87,-879.35 3475.87,-870.57 3475.87,-862.04"/>
<polygon fill="black" stroke="black" points="3479.37,-861.82 3475.87,-851.82 3472.37,-861.82 3479.37,-861.82"/>
</g>
<!-- n32 -->
<g id="node31" class="node">
<title>n32</title>
<ellipse fill="#98D2A5" stroke="black" cx="3475.87" cy="-703.2" rx="195.74" ry="37.45"/>
<text text-anchor="middle" x="3475.87" y="-714.5" font-family="Times,serif" font-size="14.00">ayuntamientos</text>
<text text-anchor="middle" x="3475.87" y="-699.5" font-family="Times,serif" font-size="14.00">ncmp000 (pobj)</text>
<text text-anchor="middle" x="3475.87" y="-684.5" font-family="Times,serif" font-size="14.00">rep=yes, t=no, r=yes, m=yes, c=no</text>
</g>
<!-- n29&#45;&gt;n32 -->
<g id="edge30" class="edge">
<title>n29&#45;&gt;n32</title>
<path fill="none" stroke="black" d="M3475.87,-776.57C3475.87,-768.39 3475.87,-759.61 3475.87,-751.09"/>
<polygon fill="black" stroke="black" points="3479.37,-750.87 3475.87,-740.87 3472.37,-750.87 3479.37,-750.87"/>
</g>
<!-- n30 -->
<g id="node32" class="node">
<title>n30</title>
<ellipse fill="#98D2A5" stroke="black" cx="2860.87" cy="-592.24" rx="195.74" ry="37.45"/>
<text text-anchor="middle" x="2860.87" y="-603.54" font-family="Times,serif" font-size="14.00">&quot;</text>
<text text-anchor="middle" x="2860.87" y="-588.54" font-family="Times,serif" font-size="14.00">fe (punct)</text>
<text text-anchor="middle" x="2860.87" y="-573.54" font-family="Times,serif" font-size="14.00">rep=yes, t=no, r=yes, m=yes, c=no</text>
</g>
<!-- n32&#45;&gt;n30 -->
<g id="edge31" class="edge">
<title>n32&#45;&gt;n30</title>
<path fill="none" stroke="black" d="M3334.5,-677.25C3255.47,-663.29 3155.19,-645.56 3065.87,-629.72 3048.37,-626.62 3030.04,-623.36 3011.84,-620.13"/>
<polygon fill="black" stroke="black" points="3012.2,-616.64 3001.74,-618.33 3010.98,-623.53 3012.2,-616.64"/>
</g>
<!-- n31 -->
<g id="node33" class="node">
<title>n31</title>
<ellipse fill="#98D2A5" stroke="black" cx="3270.87" cy="-592.24" rx="195.74" ry="37.45"/>
<text text-anchor="middle" x="3270.87" y="-603.54" font-family="Times,serif" font-size="14.00">algunos</text>
<text text-anchor="middle" x="3270.87" y="-588.54" font-family="Times,serif" font-size="14.00">di0mp0 (det)</text>
<text text-anchor="middle" x="3270.87" y="-573.54" font-family="Times,serif" font-size="14.00">rep=yes, t=no, r=yes, m=yes, c=no</text>
</g>
<!-- n32&#45;&gt;n31 -->
<g id="edge32" class="edge">
<title>n32&#45;&gt;n31</title>
<path fill="none" stroke="black" d="M3411.01,-667.72C3389.87,-656.49 3366.26,-643.94 3344.53,-632.39"/>
<polygon fill="black" stroke="black" points="3346.13,-629.28 3335.66,-627.68 3342.85,-635.46 3346.13,-629.28"/>
</g>
<!-- n33 -->
<g id="node34" class="node">
<title>n33</title>
<ellipse fill="#98D2A5" stroke="black" cx="3680.87" cy="-592.24" rx="195.74" ry="37.45"/>
<text text-anchor="middle" x="3680.87" y="-603.54" font-family="Times,serif" font-size="14.00">con</text>
<text text-anchor="middle" x="3680.87" y="-588.54" font-family="Times,serif" font-size="14.00">sps00 (prepn)</text>
<text text-anchor="middle" x="3680.87" y="-573.54" font-family="Times,serif" font-size="14.00">rep=yes, t=no, r=yes, m=yes, c=no</text>
</g>
<!-- n32&#45;&gt;n33 -->
<g id="edge33" class="edge">
<title>n32&#45;&gt;n33</title>
<path fill="none" stroke="black" d="M3540.73,-667.72C3561.87,-656.49 3585.48,-643.94 3607.21,-632.39"/>
<polygon fill="black" stroke="black" points="3608.89,-635.46 3616.08,-627.68 3605.6,-629.28 3608.89,-635.46"/>
</g>
<!-- n40 -->
<g id="node35" class="node">
<title>n40</title>
<ellipse fill="#98D2A5" stroke="black" cx="4090.87" cy="-592.24" rx="195.74" ry="37.45"/>
<text text-anchor="middle" x="4090.87" y="-603.54" font-family="Times,serif" font-size="14.00">&quot;</text>
<text text-anchor="middle" x="4090.87" y="-588.54" font-family="Times,serif" font-size="14.00">fe (punct)</text>
<text text-anchor="middle" x="4090.87" y="-573.54" font-family="Times,serif" font-size="14.00">rep=yes, t=no, r=yes, m=yes, c=no</text>
</g>
<!-- n32&#45;&gt;n40 -->
<g id="edge34" class="edge">
<title>n32&#45;&gt;n40</title>
<path fill="none" stroke="black" d="M3617.24,-677.25C3696.27,-663.29 3796.55,-645.56 3885.87,-629.72 3903.36,-626.62 3921.7,-623.36 3939.9,-620.13"/>
<polygon fill="black" stroke="black" points="3940.76,-623.53 3949.99,-618.33 3939.54,-616.64 3940.76,-623.53"/>
</g>
<!-- n34 -->
<g id="node36" class="node">
<title>n34</title>
<ellipse fill="#98D2A5" stroke="black" cx="3680.87" cy="-481.29" rx="195.74" ry="37.45"/>
<text text-anchor="middle" x="3680.87" y="-492.59" font-family="Times,serif" font-size="14.00">colores</text>
<text text-anchor="middle" x="3680.87" y="-477.59" font-family="Times,serif" font-size="14.00">ncmp000 (pobj)</text>
<text text-anchor="middle" x="3680.87" y="-462.59" font-family="Times,serif" font-size="14.00">rep=yes, t=no, r=yes, m=yes, c=no</text>
</g>
<!-- n33&#45;&gt;n34 -->
<g id="edge35" class="edge">
<title>n33&#45;&gt;n34</title>
<path fill="none" stroke="black" d="M3680.87,-554.66C3680.87,-546.49 3680.87,-537.71 3680.87,-529.18"/>
<polygon fill="black" stroke="black" points="3684.37,-528.96 3680.87,-518.96 3677.37,-528.96 3684.37,-528.96"/>
</g>
<!-- n35 -->
<g id="node37" class="node">
<title>n35</title>
<ellipse fill="#98D2A5" stroke="black" cx="3475.87" cy="-370.34" rx="195.74" ry="37.45"/>
<text text-anchor="middle" x="3475.87" y="-381.64" font-family="Times,serif" font-size="14.00">políticos</text>
<text text-anchor="middle" x="3475.87" y="-366.64" font-family="Times,serif" font-size="14.00">aq0mp0 (amod)</text>
<text text-anchor="middle" x="3475.87" y="-351.64" font-family="Times,serif" font-size="14.00">rep=yes, t=no, r=yes, m=yes, c=no</text>
</g>
<!-- n34&#45;&gt;n35 -->
<g id="edge36" class="edge">
<title>n34&#45;&gt;n35</title>
<path fill="none" stroke="black" d="M3616.01,-445.82C3594.87,-434.58 3571.26,-422.03 3549.53,-410.48"/>
<polygon fill="black" stroke="black" points="3551.13,-407.38 3540.66,-405.77 3547.85,-413.56 3551.13,-407.38"/>
</g>
<!-- n36 -->
<g id="node38" class="node">
<title>n36</title>
<ellipse fill="#98D2A5" stroke="black" cx="3885.87" cy="-370.34" rx="195.74" ry="37.45"/>
<text text-anchor="middle" x="3885.87" y="-381.64" font-family="Times,serif" font-size="14.00">distintos</text>
<text text-anchor="middle" x="3885.87" y="-366.64" font-family="Times,serif" font-size="14.00">aq0mp0 (amod)</text>
<text text-anchor="middle" x="3885.87" y="-351.64" font-family="Times,serif" font-size="14.00">rep=yes, t=no, r=yes, m=yes, c=no</text>
</g>
<!-- n34&#45;&gt;n36 -->
<g id="edge37" class="edge">
<title>n34&#45;&gt;n36</title>
<path fill="none" stroke="black" d="M3745.73,-445.82C3766.87,-434.58 3790.48,-422.03 3812.21,-410.48"/>
<polygon fill="black" stroke="black" points="3813.89,-413.56 3821.08,-405.77 3810.6,-407.38 3813.89,-413.56"/>
</g>
<!-- n37 -->
<g id="node39" class="node">
<title>n37</title>
<ellipse fill="#98D2A5" stroke="black" cx="3885.87" cy="-259.38" rx="195.74" ry="37.45"/>
<text text-anchor="middle" x="3885.87" y="-270.68" font-family="Times,serif" font-size="14.00">al</text>
<text text-anchor="middle" x="3885.87" y="-255.68" font-family="Times,serif" font-size="14.00">spcms (prepa)</text>
<text text-anchor="middle" x="3885.87" y="-240.68" font-family="Times,serif" font-size="14.00">rep=yes, t=no, r=yes, m=yes, c=no</text>
</g>
<!-- n36&#45;&gt;n37 -->
<g id="edge38" class="edge">
<title>n36&#45;&gt;n37</title>
<path fill="none" stroke="black" d="M3885.87,-332.75C3885.87,-324.58 3885.87,-315.8 3885.87,-307.27"/>
<polygon fill="black" stroke="black" points="3889.37,-307.06 3885.87,-297.06 3882.37,-307.06 3889.37,-307.06"/>
</g>
<!-- n38 -->
<g id="node40" class="node">
<title>n38</title>
<ellipse fill="#98D2A5" stroke="black" cx="3885.87" cy="-148.43" rx="195.74" ry="37.45"/>
<text text-anchor="middle" x="3885.87" y="-159.73" font-family="Times,serif" font-size="14.00">del</text>
<text text-anchor="middle" x="3885.87" y="-144.73" font-family="Times,serif" font-size="14.00">spcms (pobj)</text>
<text text-anchor="middle" x="3885.87" y="-129.73" font-family="Times,serif" font-size="14.00">rep=yes, t=no, r=yes, m=yes, c=no</text>
</g>
<!-- n37&#45;&gt;n38 -->
<g id="edge39" class="edge">
<title>n37&#45;&gt;n38</title>
<path fill="none" stroke="black" d="M3885.87,-221.8C3885.87,-213.63 3885.87,-204.85 3885.87,-196.32"/>
<polygon fill="black" stroke="black" points="3889.37,-196.1 3885.87,-186.1 3882.37,-196.1 3889.37,-196.1"/>
</g>
<!-- n39 -->
<g id="node41" class="node">
<title>n39</title>
<ellipse fill="#98D2A5" stroke="black" cx="3885.87" cy="-37.48" rx="195.74" ry="37.45"/>
<text text-anchor="middle" x="3885.87" y="-48.78" font-family="Times,serif" font-size="14.00">Govern</text>
<text text-anchor="middle" x="3885.87" y="-33.78" font-family="Times,serif" font-size="14.00">np00000 (pobj)</text>
<text text-anchor="middle" x="3885.87" y="-18.78" font-family="Times,serif" font-size="14.00">rep=yes, t=no, r=yes, m=yes, c=no</text>
</g>
<!-- n38&#45;&gt;n39 -->
<g id="edge40" class="edge">
<title>n38&#45;&gt;n39</title>
<path fill="none" stroke="black" d="M3885.87,-110.85C3885.87,-102.67 3885.87,-93.89 3885.87,-85.37"/>
<polygon fill="black" stroke="black" points="3889.37,-85.15 3885.87,-75.15 3882.37,-85.15 3889.37,-85.15"/>
</g>
</g>
</svg>
