<?xml version="1.0" encoding="UTF-8" standalone="no"?>
<!DOCTYPE svg PUBLIC "-//W3C//DTD SVG 1.1//EN"
 "http://www.w3.org/Graphics/SVG/1.1/DTD/svg11.dtd">
<!-- Generated by graphviz version 2.43.0 (0)
 -->
<!-- Title: tree Pages: 1 -->
<svg width="2747pt" height="1192pt"
 viewBox="0.00 0.00 2746.89 1192.49" xmlns="http://www.w3.org/2000/svg" xmlns:xlink="http://www.w3.org/1999/xlink">
<g id="graph0" class="graph" transform="scale(1 1) rotate(0) translate(4 1188.49)">
<title>tree</title>
<polygon fill="white" stroke="transparent" points="-4,4 -4,-1188.49 2742.89,-1188.49 2742.89,4 -4,4"/>
<!-- n3 -->
<g id="node1" class="node">
<title>n3</title>
<ellipse fill="none" stroke="black" cx="790.92" cy="-1147.01" rx="181.95" ry="37.45"/>
<text text-anchor="middle" x="790.92" y="-1158.31" font-family="Times,serif" font-size="14.00">admitió</text>
<text text-anchor="middle" x="790.92" y="-1143.31" font-family="Times,serif" font-size="14.00">vmis3s0 (root)</text>
<text text-anchor="middle" x="790.92" y="-1128.31" font-family="Times,serif" font-size="14.00">rep=no, t=no, r=no, m=no, c=no</text>
</g>
<!-- n2 -->
<g id="node2" class="node">
<title>n2</title>
<ellipse fill="none" stroke="black" cx="397.92" cy="-1036.06" rx="185.94" ry="37.45"/>
<text text-anchor="middle" x="397.92" y="-1047.36" font-family="Times,serif" font-size="14.00">viuda</text>
<text text-anchor="middle" x="397.92" y="-1032.36" font-family="Times,serif" font-size="14.00">ncfs000 (nsubj)</text>
<text text-anchor="middle" x="397.92" y="-1017.36" font-family="Times,serif" font-size="14.00">rep=yes, t=no, r=no, m=no, c=no</text>
</g>
<!-- n3&#45;&gt;n2 -->
<g id="edge1" class="edge">
<title>n3&#45;&gt;n2</title>
<path fill="none" stroke="black" d="M684.57,-1116.53C632.14,-1101.99 568.77,-1084.42 514.97,-1069.51"/>
<polygon fill="black" stroke="black" points="515.61,-1066.05 505.04,-1066.75 513.74,-1072.8 515.61,-1066.05"/>
</g>
<!-- n4 -->
<g id="node3" class="node">
<title>n4</title>
<ellipse fill="none" stroke="black" cx="790.92" cy="-1036.06" rx="181.95" ry="37.45"/>
<text text-anchor="middle" x="790.92" y="-1047.36" font-family="Times,serif" font-size="14.00">que</text>
<text text-anchor="middle" x="790.92" y="-1032.36" font-family="Times,serif" font-size="14.00">cs (dobj)</text>
<text text-anchor="middle" x="790.92" y="-1017.36" font-family="Times,serif" font-size="14.00">rep=no, t=no, r=no, m=no, c=no</text>
</g>
<!-- n3&#45;&gt;n4 -->
<g id="edge2" class="edge">
<title>n3&#45;&gt;n4</title>
<path fill="none" stroke="black" d="M790.92,-1109.43C790.92,-1101.25 790.92,-1092.47 790.92,-1083.95"/>
<polygon fill="black" stroke="black" points="794.42,-1083.73 790.92,-1073.73 787.42,-1083.73 794.42,-1083.73"/>
</g>
<!-- n35 -->
<g id="node4" class="node">
<title>n35</title>
<ellipse fill="none" stroke="black" cx="1171.92" cy="-1036.06" rx="181.95" ry="37.45"/>
<text text-anchor="middle" x="1171.92" y="-1047.36" font-family="Times,serif" font-size="14.00">.</text>
<text text-anchor="middle" x="1171.92" y="-1032.36" font-family="Times,serif" font-size="14.00">fp (punct)</text>
<text text-anchor="middle" x="1171.92" y="-1017.36" font-family="Times,serif" font-size="14.00">rep=no, t=no, r=no, m=no, c=no</text>
</g>
<!-- n3&#45;&gt;n35 -->
<g id="edge3" class="edge">
<title>n3&#45;&gt;n35</title>
<path fill="none" stroke="black" d="M895.03,-1116.24C945.53,-1101.8 1006.32,-1084.41 1058.05,-1069.62"/>
<polygon fill="black" stroke="black" points="1059.28,-1072.91 1067.93,-1066.79 1057.36,-1066.18 1059.28,-1072.91"/>
</g>
<!-- n1 -->
<g id="node5" class="node">
<title>n1</title>
<ellipse fill="none" stroke="black" cx="190.92" cy="-925.1" rx="185.94" ry="37.45"/>
<text text-anchor="middle" x="190.92" y="-936.4" font-family="Times,serif" font-size="14.00">La</text>
<text text-anchor="middle" x="190.92" y="-921.4" font-family="Times,serif" font-size="14.00">da0fs0 (det)</text>
<text text-anchor="middle" x="190.92" y="-906.4" font-family="Times,serif" font-size="14.00">rep=yes, t=no, r=no, m=no, c=no</text>
</g>
<!-- n2&#45;&gt;n1 -->
<g id="edge4" class="edge">
<title>n2&#45;&gt;n1</title>
<path fill="none" stroke="black" d="M332.99,-1000.88C311.42,-989.53 287.24,-976.8 265.03,-965.11"/>
<polygon fill="black" stroke="black" points="266.45,-961.9 255.97,-960.34 263.19,-968.1 266.45,-961.9"/>
</g>
<!-- n8 -->
<g id="node6" class="node">
<title>n8</title>
<ellipse fill="#DA79E8" stroke="black" cx="590.92" cy="-925.1" rx="195.74" ry="37.45"/>
<text text-anchor="middle" x="590.92" y="-936.4" font-family="Times,serif" font-size="14.00">preocupó</text>
<text text-anchor="middle" x="590.92" y="-921.4" font-family="Times,serif" font-size="14.00">vmis3s0 (cobj)</text>
<text text-anchor="middle" x="590.92" y="-906.4" font-family="Times,serif" font-size="14.00">rep=no, t=no, r=yes, m=yes, c=yes</text>
</g>
<!-- n4&#45;&gt;n8 -->
<g id="edge5" class="edge">
<title>n4&#45;&gt;n8</title>
<path fill="none" stroke="black" d="M728.19,-1000.88C707.64,-989.69 684.64,-977.16 663.43,-965.6"/>
<polygon fill="black" stroke="black" points="664.92,-962.43 654.46,-960.72 661.57,-968.58 664.92,-962.43"/>
</g>
<!-- n18 -->
<g id="node7" class="node">
<title>n18</title>
<ellipse fill="none" stroke="black" cx="990.92" cy="-925.1" rx="185.94" ry="37.45"/>
<text text-anchor="middle" x="990.92" y="-936.4" font-family="Times,serif" font-size="14.00">y</text>
<text text-anchor="middle" x="990.92" y="-921.4" font-family="Times,serif" font-size="14.00">cc (coord_fixed)</text>
<text text-anchor="middle" x="990.92" y="-906.4" font-family="Times,serif" font-size="14.00">rep=no, t=no, r=no, m=yes, c=no</text>
</g>
<!-- n4&#45;&gt;n18 -->
<g id="edge6" class="edge">
<title>n4&#45;&gt;n18</title>
<path fill="none" stroke="black" d="M853.65,-1000.88C874.3,-989.63 897.42,-977.04 918.72,-965.44"/>
<polygon fill="black" stroke="black" points="920.61,-968.39 927.72,-960.53 917.27,-962.24 920.61,-968.39"/>
</g>
<!-- n19 -->
<g id="node8" class="node">
<title>n19</title>
<ellipse fill="none" stroke="black" cx="1385.92" cy="-925.1" rx="190.84" ry="37.45"/>
<text text-anchor="middle" x="1385.92" y="-936.4" font-family="Times,serif" font-size="14.00">adoptó</text>
<text text-anchor="middle" x="1385.92" y="-921.4" font-family="Times,serif" font-size="14.00">vmis3s0 (cobj)</text>
<text text-anchor="middle" x="1385.92" y="-906.4" font-family="Times,serif" font-size="14.00">rep=no, t=no, r=no, m=yes, c=yes</text>
</g>
<!-- n4&#45;&gt;n19 -->
<g id="edge7" class="edge">
<title>n4&#45;&gt;n19</title>
<path fill="none" stroke="black" d="M920.92,-1009.81C941,-1006 961.51,-1002.15 980.92,-998.58 1071.9,-981.86 1094.86,-978.88 1185.92,-962.58 1203.07,-959.51 1221.04,-956.27 1238.88,-953.03"/>
<polygon fill="black" stroke="black" points="1239.55,-956.47 1248.77,-951.24 1238.3,-949.58 1239.55,-956.47"/>
</g>
<!-- n6 -->
<g id="node9" class="node">
<title>n6</title>
<ellipse fill="#BEDA48" stroke="black" cx="190.92" cy="-814.15" rx="190.84" ry="37.45"/>
<text text-anchor="middle" x="190.92" y="-825.45" font-family="Times,serif" font-size="14.00">marido</text>
<text text-anchor="middle" x="190.92" y="-810.45" font-family="Times,serif" font-size="14.00">ncms000 (nsubj)</text>
<text text-anchor="middle" x="190.92" y="-795.45" font-family="Times,serif" font-size="14.00">rep=no, t=yes, r=no, m=yes, c=no</text>
</g>
<!-- n8&#45;&gt;n6 -->
<g id="edge8" class="edge">
<title>n8&#45;&gt;n6</title>
<path fill="none" stroke="black" d="M480.56,-894.04C427.66,-879.63 364.21,-862.35 310.2,-847.64"/>
<polygon fill="black" stroke="black" points="310.8,-844.17 300.23,-844.92 308.96,-850.93 310.8,-844.17"/>
</g>
<!-- n7 -->
<g id="node10" class="node">
<title>n7</title>
<ellipse fill="#DA79E8" stroke="black" cx="590.92" cy="-814.15" rx="190.84" ry="37.45"/>
<text text-anchor="middle" x="590.92" y="-825.45" font-family="Times,serif" font-size="14.00">se</text>
<text text-anchor="middle" x="590.92" y="-810.45" font-family="Times,serif" font-size="14.00">p0300000 (reflec)</text>
<text text-anchor="middle" x="590.92" y="-795.45" font-family="Times,serif" font-size="14.00">rep=no, t=no, r=yes, m=yes, c=no</text>
</g>
<!-- n8&#45;&gt;n7 -->
<g id="edge9" class="edge">
<title>n8&#45;&gt;n7</title>
<path fill="none" stroke="black" d="M590.92,-887.52C590.92,-879.35 590.92,-870.57 590.92,-862.04"/>
<polygon fill="black" stroke="black" points="594.42,-861.82 590.92,-851.82 587.42,-861.82 594.42,-861.82"/>
</g>
<!-- n9 -->
<g id="node11" class="node">
<title>n9</title>
<ellipse fill="none" stroke="black" cx="985.92" cy="-814.15" rx="185.94" ry="37.45"/>
<text text-anchor="middle" x="985.92" y="-825.45" font-family="Times,serif" font-size="14.00">cuando</text>
<text text-anchor="middle" x="985.92" y="-810.45" font-family="Times,serif" font-size="14.00">cs (advcl)</text>
<text text-anchor="middle" x="985.92" y="-795.45" font-family="Times,serif" font-size="14.00">rep=no, t=no, r=no, m=yes, c=no</text>
</g>
<!-- n8&#45;&gt;n9 -->
<g id="edge10" class="edge">
<title>n8&#45;&gt;n9</title>
<path fill="none" stroke="black" d="M700.16,-893.97C752.5,-879.53 815.26,-862.22 868.61,-847.51"/>
<polygon fill="black" stroke="black" points="869.75,-850.82 878.46,-844.79 867.88,-844.08 869.75,-850.82"/>
</g>
<!-- n20 -->
<g id="node21" class="node">
<title>n20</title>
<ellipse fill="none" stroke="black" cx="1384.92" cy="-814.15" rx="185.94" ry="37.45"/>
<text text-anchor="middle" x="1384.92" y="-825.45" font-family="Times,serif" font-size="14.00">medidas</text>
<text text-anchor="middle" x="1384.92" y="-810.45" font-family="Times,serif" font-size="14.00">ncfp000 (dobj)</text>
<text text-anchor="middle" x="1384.92" y="-795.45" font-family="Times,serif" font-size="14.00">rep=no, t=no, r=no, m=yes, c=no</text>
</g>
<!-- n19&#45;&gt;n20 -->
<g id="edge20" class="edge">
<title>n19&#45;&gt;n20</title>
<path fill="none" stroke="black" d="M1385.58,-887.52C1385.51,-879.35 1385.43,-870.57 1385.35,-862.04"/>
<polygon fill="black" stroke="black" points="1388.85,-861.79 1385.26,-851.82 1381.85,-861.85 1388.85,-861.79"/>
</g>
<!-- n23 -->
<g id="node22" class="node">
<title>n23</title>
<ellipse fill="none" stroke="black" cx="1774.92" cy="-814.15" rx="185.94" ry="37.45"/>
<text text-anchor="middle" x="1774.92" y="-825.45" font-family="Times,serif" font-size="14.00">después</text>
<text text-anchor="middle" x="1774.92" y="-810.45" font-family="Times,serif" font-size="14.00">rg (advmod)</text>
<text text-anchor="middle" x="1774.92" y="-795.45" font-family="Times,serif" font-size="14.00">rep=no, t=no, r=no, m=yes, c=no</text>
</g>
<!-- n19&#45;&gt;n23 -->
<g id="edge21" class="edge">
<title>n19&#45;&gt;n23</title>
<path fill="none" stroke="black" d="M1493.24,-894.04C1544.69,-879.63 1606.39,-862.35 1658.92,-847.64"/>
<polygon fill="black" stroke="black" points="1659.93,-850.99 1668.62,-844.92 1658.04,-844.25 1659.93,-850.99"/>
</g>
<!-- n5 -->
<g id="node12" class="node">
<title>n5</title>
<ellipse fill="#BEDA48" stroke="black" cx="190.92" cy="-703.2" rx="190.84" ry="37.45"/>
<text text-anchor="middle" x="190.92" y="-714.5" font-family="Times,serif" font-size="14.00">su</text>
<text text-anchor="middle" x="190.92" y="-699.5" font-family="Times,serif" font-size="14.00">dp3cs0 (poss)</text>
<text text-anchor="middle" x="190.92" y="-684.5" font-family="Times,serif" font-size="14.00">rep=no, t=yes, r=no, m=yes, c=no</text>
</g>
<!-- n6&#45;&gt;n5 -->
<g id="edge11" class="edge">
<title>n6&#45;&gt;n5</title>
<path fill="none" stroke="black" d="M190.92,-776.57C190.92,-768.39 190.92,-759.61 190.92,-751.09"/>
<polygon fill="black" stroke="black" points="194.42,-750.87 190.92,-740.87 187.42,-750.87 194.42,-750.87"/>
</g>
<!-- n11 -->
<g id="node13" class="node">
<title>n11</title>
<ellipse fill="none" stroke="black" cx="985.92" cy="-703.2" rx="185.94" ry="37.45"/>
<text text-anchor="middle" x="985.92" y="-714.5" font-family="Times,serif" font-size="14.00">enteró</text>
<text text-anchor="middle" x="985.92" y="-699.5" font-family="Times,serif" font-size="14.00">vmis3s0 (cobj)</text>
<text text-anchor="middle" x="985.92" y="-684.5" font-family="Times,serif" font-size="14.00">rep=no, t=no, r=no, m=yes, c=no</text>
</g>
<!-- n9&#45;&gt;n11 -->
<g id="edge12" class="edge">
<title>n9&#45;&gt;n11</title>
<path fill="none" stroke="black" d="M985.92,-776.57C985.92,-768.39 985.92,-759.61 985.92,-751.09"/>
<polygon fill="black" stroke="black" points="989.42,-750.87 985.92,-740.87 982.42,-750.87 989.42,-750.87"/>
</g>
<!-- n10 -->
<g id="node14" class="node">
<title>n10</title>
<ellipse fill="none" stroke="black" cx="596.92" cy="-592.24" rx="185.94" ry="37.45"/>
<text text-anchor="middle" x="596.92" y="-603.54" font-family="Times,serif" font-size="14.00">se</text>
<text text-anchor="middle" x="596.92" y="-588.54" font-family="Times,serif" font-size="14.00">p0300000 (reflec)</text>
<text text-anchor="middle" x="596.92" y="-573.54" font-family="Times,serif" font-size="14.00">rep=no, t=no, r=no, m=yes, c=no</text>
</g>
<!-- n11&#45;&gt;n10 -->
<g id="edge13" class="edge">
<title>n11&#45;&gt;n10</title>
<path fill="none" stroke="black" d="M879.62,-672.42C828.06,-657.98 766,-640.6 713.17,-625.8"/>
<polygon fill="black" stroke="black" points="714,-622.4 703.42,-623.07 712.11,-629.14 714,-622.4"/>
</g>
<!-- n12 -->
<g id="node15" class="node">
<title>n12</title>
<ellipse fill="none" stroke="black" cx="986.92" cy="-592.24" rx="185.94" ry="37.45"/>
<text text-anchor="middle" x="986.92" y="-603.54" font-family="Times,serif" font-size="14.00">de</text>
<text text-anchor="middle" x="986.92" y="-588.54" font-family="Times,serif" font-size="14.00">sps00 (prepv)</text>
<text text-anchor="middle" x="986.92" y="-573.54" font-family="Times,serif" font-size="14.00">rep=no, t=no, r=no, m=yes, c=no</text>
</g>
<!-- n11&#45;&gt;n12 -->
<g id="edge14" class="edge">
<title>n11&#45;&gt;n12</title>
<path fill="none" stroke="black" d="M986.25,-665.61C986.33,-657.44 986.41,-648.66 986.49,-640.13"/>
<polygon fill="black" stroke="black" points="989.99,-639.95 986.58,-629.92 982.99,-639.88 989.99,-639.95"/>
</g>
<!-- n14 -->
<g id="node16" class="node">
<title>n14</title>
<ellipse fill="none" stroke="black" cx="986.92" cy="-481.29" rx="185.94" ry="37.45"/>
<text text-anchor="middle" x="986.92" y="-492.59" font-family="Times,serif" font-size="14.00">desaparición</text>
<text text-anchor="middle" x="986.92" y="-477.59" font-family="Times,serif" font-size="14.00">ncfs000 (pobj)</text>
<text text-anchor="middle" x="986.92" y="-462.59" font-family="Times,serif" font-size="14.00">rep=no, t=no, r=no, m=yes, c=no</text>
</g>
<!-- n12&#45;&gt;n14 -->
<g id="edge15" class="edge">
<title>n12&#45;&gt;n14</title>
<path fill="none" stroke="black" d="M986.92,-554.66C986.92,-546.49 986.92,-537.71 986.92,-529.18"/>
<polygon fill="black" stroke="black" points="990.42,-528.96 986.92,-518.96 983.42,-528.96 990.42,-528.96"/>
</g>
<!-- n13 -->
<g id="node17" class="node">
<title>n13</title>
<ellipse fill="none" stroke="black" cx="597.92" cy="-370.34" rx="185.94" ry="37.45"/>
<text text-anchor="middle" x="597.92" y="-381.64" font-family="Times,serif" font-size="14.00">la</text>
<text text-anchor="middle" x="597.92" y="-366.64" font-family="Times,serif" font-size="14.00">da0fs0 (det)</text>
<text text-anchor="middle" x="597.92" y="-351.64" font-family="Times,serif" font-size="14.00">rep=no, t=no, r=no, m=yes, c=no</text>
</g>
<!-- n14&#45;&gt;n13 -->
<g id="edge16" class="edge">
<title>n14&#45;&gt;n13</title>
<path fill="none" stroke="black" d="M880.62,-450.52C829.06,-436.07 767,-418.69 714.17,-403.9"/>
<polygon fill="black" stroke="black" points="715,-400.49 704.42,-401.17 713.11,-407.23 715,-400.49"/>
</g>
<!-- n15 -->
<g id="node18" class="node">
<title>n15</title>
<ellipse fill="none" stroke="black" cx="987.92" cy="-370.34" rx="185.94" ry="37.45"/>
<text text-anchor="middle" x="987.92" y="-381.64" font-family="Times,serif" font-size="14.00">de</text>
<text text-anchor="middle" x="987.92" y="-366.64" font-family="Times,serif" font-size="14.00">sps00 (prepn)</text>
<text text-anchor="middle" x="987.92" y="-351.64" font-family="Times,serif" font-size="14.00">rep=no, t=no, r=no, m=yes, c=no</text>
</g>
<!-- n14&#45;&gt;n15 -->
<g id="edge17" class="edge">
<title>n14&#45;&gt;n15</title>
<path fill="none" stroke="black" d="M987.25,-443.71C987.33,-435.53 987.41,-426.75 987.49,-418.23"/>
<polygon fill="black" stroke="black" points="990.99,-418.04 987.58,-408.01 983.99,-417.98 990.99,-418.04"/>
</g>
<!-- n17 -->
<g id="node19" class="node">
<title>n17</title>
<ellipse fill="none" stroke="black" cx="987.92" cy="-259.38" rx="185.94" ry="37.45"/>
<text text-anchor="middle" x="987.92" y="-270.68" font-family="Times,serif" font-size="14.00">jóvenes</text>
<text text-anchor="middle" x="987.92" y="-255.68" font-family="Times,serif" font-size="14.00">nccp000 (pobj)</text>
<text text-anchor="middle" x="987.92" y="-240.68" font-family="Times,serif" font-size="14.00">rep=no, t=no, r=no, m=yes, c=no</text>
</g>
<!-- n15&#45;&gt;n17 -->
<g id="edge18" class="edge">
<title>n15&#45;&gt;n17</title>
<path fill="none" stroke="black" d="M987.92,-332.75C987.92,-324.58 987.92,-315.8 987.92,-307.27"/>
<polygon fill="black" stroke="black" points="991.42,-307.06 987.92,-297.06 984.42,-307.06 991.42,-307.06"/>
</g>
<!-- n16 -->
<g id="node20" class="node">
<title>n16</title>
<ellipse fill="none" stroke="black" cx="987.92" cy="-148.43" rx="185.94" ry="37.45"/>
<text text-anchor="middle" x="987.92" y="-159.73" font-family="Times,serif" font-size="14.00">los</text>
<text text-anchor="middle" x="987.92" y="-144.73" font-family="Times,serif" font-size="14.00">da0mp0 (det)</text>
<text text-anchor="middle" x="987.92" y="-129.73" font-family="Times,serif" font-size="14.00">rep=no, t=no, r=no, m=yes, c=no</text>
</g>
<!-- n17&#45;&gt;n16 -->
<g id="edge19" class="edge">
<title>n17&#45;&gt;n16</title>
<path fill="none" stroke="black" d="M987.92,-221.8C987.92,-213.63 987.92,-204.85 987.92,-196.32"/>
<polygon fill="black" stroke="black" points="991.42,-196.1 987.92,-186.1 984.42,-196.1 991.42,-196.1"/>
</g>
<!-- n21 -->
<g id="node23" class="node">
<title>n21</title>
<ellipse fill="none" stroke="black" cx="1384.92" cy="-703.2" rx="185.94" ry="37.45"/>
<text text-anchor="middle" x="1384.92" y="-714.5" font-family="Times,serif" font-size="14.00">de</text>
<text text-anchor="middle" x="1384.92" y="-699.5" font-family="Times,serif" font-size="14.00">sps00 (prepn)</text>
<text text-anchor="middle" x="1384.92" y="-684.5" font-family="Times,serif" font-size="14.00">rep=no, t=no, r=no, m=yes, c=no</text>
</g>
<!-- n20&#45;&gt;n21 -->
<g id="edge22" class="edge">
<title>n20&#45;&gt;n21</title>
<path fill="none" stroke="black" d="M1384.92,-776.57C1384.92,-768.39 1384.92,-759.61 1384.92,-751.09"/>
<polygon fill="black" stroke="black" points="1388.42,-750.87 1384.92,-740.87 1381.42,-750.87 1388.42,-750.87"/>
</g>
<!-- n24 -->
<g id="node25" class="node">
<title>n24</title>
<ellipse fill="none" stroke="black" cx="1774.92" cy="-703.2" rx="185.94" ry="37.45"/>
<text text-anchor="middle" x="1774.92" y="-714.5" font-family="Times,serif" font-size="14.00">de</text>
<text text-anchor="middle" x="1774.92" y="-699.5" font-family="Times,serif" font-size="14.00">sps00 (prep)</text>
<text text-anchor="middle" x="1774.92" y="-684.5" font-family="Times,serif" font-size="14.00">rep=no, t=no, r=no, m=yes, c=no</text>
</g>
<!-- n23&#45;&gt;n24 -->
<g id="edge24" class="edge">
<title>n23&#45;&gt;n24</title>
<path fill="none" stroke="black" d="M1774.92,-776.57C1774.92,-768.39 1774.92,-759.61 1774.92,-751.09"/>
<polygon fill="black" stroke="black" points="1778.42,-750.87 1774.92,-740.87 1771.42,-750.87 1778.42,-750.87"/>
</g>
<!-- n22 -->
<g id="node24" class="node">
<title>n22</title>
<ellipse fill="none" stroke="black" cx="1384.92" cy="-592.24" rx="185.94" ry="37.45"/>
<text text-anchor="middle" x="1384.92" y="-603.54" font-family="Times,serif" font-size="14.00">seguridad</text>
<text text-anchor="middle" x="1384.92" y="-588.54" font-family="Times,serif" font-size="14.00">ncfs000 (pobj)</text>
<text text-anchor="middle" x="1384.92" y="-573.54" font-family="Times,serif" font-size="14.00">rep=no, t=no, r=no, m=yes, c=no</text>
</g>
<!-- n21&#45;&gt;n22 -->
<g id="edge23" class="edge">
<title>n21&#45;&gt;n22</title>
<path fill="none" stroke="black" d="M1384.92,-665.61C1384.92,-657.44 1384.92,-648.66 1384.92,-640.13"/>
<polygon fill="black" stroke="black" points="1388.42,-639.92 1384.92,-629.92 1381.42,-639.92 1388.42,-639.92"/>
</g>
<!-- n25 -->
<g id="node26" class="node">
<title>n25</title>
<ellipse fill="none" stroke="black" cx="1774.92" cy="-592.24" rx="185.94" ry="37.45"/>
<text text-anchor="middle" x="1774.92" y="-603.54" font-family="Times,serif" font-size="14.00">observar</text>
<text text-anchor="middle" x="1774.92" y="-588.54" font-family="Times,serif" font-size="14.00">vmn0000 (pobj)</text>
<text text-anchor="middle" x="1774.92" y="-573.54" font-family="Times,serif" font-size="14.00">rep=no, t=no, r=no, m=yes, c=no</text>
</g>
<!-- n24&#45;&gt;n25 -->
<g id="edge25" class="edge">
<title>n24&#45;&gt;n25</title>
<path fill="none" stroke="black" d="M1774.92,-665.61C1774.92,-657.44 1774.92,-648.66 1774.92,-640.13"/>
<polygon fill="black" stroke="black" points="1778.42,-639.92 1774.92,-629.92 1771.42,-639.92 1778.42,-639.92"/>
</g>
<!-- n27 -->
<g id="node27" class="node">
<title>n27</title>
<ellipse fill="none" stroke="black" cx="1772.92" cy="-481.29" rx="185.94" ry="37.45"/>
<text text-anchor="middle" x="1772.92" y="-492.59" font-family="Times,serif" font-size="14.00">movimientos</text>
<text text-anchor="middle" x="1772.92" y="-477.59" font-family="Times,serif" font-size="14.00">ncmp000 (dobj)</text>
<text text-anchor="middle" x="1772.92" y="-462.59" font-family="Times,serif" font-size="14.00">rep=no, t=no, r=no, m=yes, c=no</text>
</g>
<!-- n25&#45;&gt;n27 -->
<g id="edge26" class="edge">
<title>n25&#45;&gt;n27</title>
<path fill="none" stroke="black" d="M1774.25,-554.66C1774.1,-546.49 1773.94,-537.71 1773.78,-529.18"/>
<polygon fill="black" stroke="black" points="1777.28,-528.9 1773.59,-518.96 1770.28,-529.02 1777.28,-528.9"/>
</g>
<!-- n30 -->
<g id="node28" class="node">
<title>n30</title>
<ellipse fill="none" stroke="black" cx="2357.92" cy="-481.29" rx="185.94" ry="37.45"/>
<text text-anchor="middle" x="2357.92" y="-492.59" font-family="Times,serif" font-size="14.00">en</text>
<text text-anchor="middle" x="2357.92" y="-477.59" font-family="Times,serif" font-size="14.00">sps00 (prepv)</text>
<text text-anchor="middle" x="2357.92" y="-462.59" font-family="Times,serif" font-size="14.00">rep=no, t=no, r=no, m=yes, c=no</text>
</g>
<!-- n25&#45;&gt;n30 -->
<g id="edge27" class="edge">
<title>n25&#45;&gt;n30</title>
<path fill="none" stroke="black" d="M1909.04,-566.18C2000.19,-549.14 2120.68,-526.63 2213.87,-509.21"/>
<polygon fill="black" stroke="black" points="2214.76,-512.6 2223.95,-507.33 2213.47,-505.72 2214.76,-512.6"/>
</g>
<!-- n26 -->
<g id="node29" class="node">
<title>n26</title>
<ellipse fill="none" stroke="black" cx="1382.92" cy="-370.34" rx="185.94" ry="37.45"/>
<text text-anchor="middle" x="1382.92" y="-381.64" font-family="Times,serif" font-size="14.00">&quot;</text>
<text text-anchor="middle" x="1382.92" y="-366.64" font-family="Times,serif" font-size="14.00">fe (punct)</text>
<text text-anchor="middle" x="1382.92" y="-351.64" font-family="Times,serif" font-size="14.00">rep=no, t=no, r=no, m=yes, c=no</text>
</g>
<!-- n27&#45;&gt;n26 -->
<g id="edge28" class="edge">
<title>n27&#45;&gt;n26</title>
<path fill="none" stroke="black" d="M1666.35,-450.52C1614.54,-436.05 1552.17,-418.62 1499.15,-403.81"/>
<polygon fill="black" stroke="black" points="1499.93,-400.39 1489.36,-401.07 1498.05,-407.13 1499.93,-400.39"/>
</g>
<!-- n28 -->
<g id="node30" class="node">
<title>n28</title>
<ellipse fill="none" stroke="black" cx="1772.92" cy="-370.34" rx="185.94" ry="37.45"/>
<text text-anchor="middle" x="1772.92" y="-381.64" font-family="Times,serif" font-size="14.00">extraños</text>
<text text-anchor="middle" x="1772.92" y="-366.64" font-family="Times,serif" font-size="14.00">aq0mp0 (amod)</text>
<text text-anchor="middle" x="1772.92" y="-351.64" font-family="Times,serif" font-size="14.00">rep=no, t=no, r=no, m=yes, c=no</text>
</g>
<!-- n27&#45;&gt;n28 -->
<g id="edge29" class="edge">
<title>n27&#45;&gt;n28</title>
<path fill="none" stroke="black" d="M1772.92,-443.71C1772.92,-435.53 1772.92,-426.75 1772.92,-418.23"/>
<polygon fill="black" stroke="black" points="1776.42,-418.01 1772.92,-408.01 1769.42,-418.01 1776.42,-418.01"/>
</g>
<!-- n29 -->
<g id="node31" class="node">
<title>n29</title>
<ellipse fill="none" stroke="black" cx="2162.92" cy="-370.34" rx="185.94" ry="37.45"/>
<text text-anchor="middle" x="2162.92" y="-381.64" font-family="Times,serif" font-size="14.00">&quot;</text>
<text text-anchor="middle" x="2162.92" y="-366.64" font-family="Times,serif" font-size="14.00">fe (punct)</text>
<text text-anchor="middle" x="2162.92" y="-351.64" font-family="Times,serif" font-size="14.00">rep=no, t=no, r=no, m=yes, c=no</text>
</g>
<!-- n27&#45;&gt;n29 -->
<g id="edge30" class="edge">
<title>n27&#45;&gt;n29</title>
<path fill="none" stroke="black" d="M1879.49,-450.52C1931.29,-436.05 1993.66,-418.62 2046.69,-403.81"/>
<polygon fill="black" stroke="black" points="2047.79,-407.13 2056.48,-401.07 2045.91,-400.39 2047.79,-407.13"/>
</g>
<!-- n31 -->
<g id="node32" class="node">
<title>n31</title>
<ellipse fill="none" stroke="black" cx="2552.92" cy="-370.34" rx="185.94" ry="37.45"/>
<text text-anchor="middle" x="2552.92" y="-381.64" font-family="Times,serif" font-size="14.00">torno</text>
<text text-anchor="middle" x="2552.92" y="-366.64" font-family="Times,serif" font-size="14.00">ncfs000 (pobj)</text>
<text text-anchor="middle" x="2552.92" y="-351.64" font-family="Times,serif" font-size="14.00">rep=no, t=no, r=no, m=yes, c=no</text>
</g>
<!-- n30&#45;&gt;n31 -->
<g id="edge31" class="edge">
<title>n30&#45;&gt;n31</title>
<path fill="none" stroke="black" d="M2419.62,-445.82C2439.54,-434.68 2461.79,-422.26 2482.3,-410.79"/>
<polygon fill="black" stroke="black" points="2484.26,-413.71 2491.29,-405.77 2480.85,-407.59 2484.26,-413.71"/>
</g>
<!-- n32 -->
<g id="node33" class="node">
<title>n32</title>
<ellipse fill="none" stroke="black" cx="2552.92" cy="-259.38" rx="185.94" ry="37.45"/>
<text text-anchor="middle" x="2552.92" y="-270.68" font-family="Times,serif" font-size="14.00">a</text>
<text text-anchor="middle" x="2552.92" y="-255.68" font-family="Times,serif" font-size="14.00">sps00 (prepn)</text>
<text text-anchor="middle" x="2552.92" y="-240.68" font-family="Times,serif" font-size="14.00">rep=no, t=no, r=no, m=yes, c=no</text>
</g>
<!-- n31&#45;&gt;n32 -->
<g id="edge32" class="edge">
<title>n31&#45;&gt;n32</title>
<path fill="none" stroke="black" d="M2552.92,-332.75C2552.92,-324.58 2552.92,-315.8 2552.92,-307.27"/>
<polygon fill="black" stroke="black" points="2556.42,-307.06 2552.92,-297.06 2549.42,-307.06 2556.42,-307.06"/>
</g>
<!-- n34 -->
<g id="node34" class="node">
<title>n34</title>
<ellipse fill="none" stroke="black" cx="2552.92" cy="-148.43" rx="185.94" ry="37.45"/>
<text text-anchor="middle" x="2552.92" y="-159.73" font-family="Times,serif" font-size="14.00">domicilio</text>
<text text-anchor="middle" x="2552.92" y="-144.73" font-family="Times,serif" font-size="14.00">ncms000 (pobj)</text>
<text text-anchor="middle" x="2552.92" y="-129.73" font-family="Times,serif" font-size="14.00">rep=no, t=no, r=no, m=yes, c=no</text>
</g>
<!-- n32&#45;&gt;n34 -->
<g id="edge33" class="edge">
<title>n32&#45;&gt;n34</title>
<path fill="none" stroke="black" d="M2552.92,-221.8C2552.92,-213.63 2552.92,-204.85 2552.92,-196.32"/>
<polygon fill="black" stroke="black" points="2556.42,-196.1 2552.92,-186.1 2549.42,-196.1 2556.42,-196.1"/>
</g>
<!-- n33 -->
<g id="node35" class="node">
<title>n33</title>
<ellipse fill="none" stroke="black" cx="2552.92" cy="-37.48" rx="185.94" ry="37.45"/>
<text text-anchor="middle" x="2552.92" y="-48.78" font-family="Times,serif" font-size="14.00">su</text>
<text text-anchor="middle" x="2552.92" y="-33.78" font-family="Times,serif" font-size="14.00">dp3cs0 (poss)</text>
<text text-anchor="middle" x="2552.92" y="-18.78" font-family="Times,serif" font-size="14.00">rep=no, t=no, r=no, m=yes, c=no</text>
</g>
<!-- n34&#45;&gt;n33 -->
<g id="edge34" class="edge">
<title>n34&#45;&gt;n33</title>
<path fill="none" stroke="black" d="M2552.92,-110.85C2552.92,-102.67 2552.92,-93.89 2552.92,-85.37"/>
<polygon fill="black" stroke="black" points="2556.42,-85.15 2552.92,-75.15 2549.42,-85.15 2556.42,-85.15"/>
</g>
</g>
</svg>
