<?xml version="1.0" encoding="UTF-8" standalone="no"?>
<!DOCTYPE svg PUBLIC "-//W3C//DTD SVG 1.1//EN"
 "http://www.w3.org/Graphics/SVG/1.1/DTD/svg11.dtd">
<!-- Generated by graphviz version 2.43.0 (0)
 -->
<!-- Title: tree Pages: 1 -->
<svg width="1852pt" height="527pt"
 viewBox="0.00 0.00 1851.70 526.77" xmlns="http://www.w3.org/2000/svg" xmlns:xlink="http://www.w3.org/1999/xlink">
<g id="graph0" class="graph" transform="scale(1 1) rotate(0) translate(4 522.77)">
<title>tree</title>
<polygon fill="white" stroke="transparent" points="-4,4 -4,-522.77 1847.7,-522.77 1847.7,4 -4,4"/>
<!-- n11 -->
<g id="node1" class="node">
<title>n11</title>
<ellipse fill="none" stroke="black" cx="1275.97" cy="-481.29" rx="185.94" ry="37.45"/>
<text text-anchor="middle" x="1275.97" y="-492.59" font-family="Times,serif" font-size="14.00">y</text>
<text text-anchor="middle" x="1275.97" y="-477.59" font-family="Times,serif" font-size="14.00">cc (root)</text>
<text text-anchor="middle" x="1275.97" y="-462.59" font-family="Times,serif" font-size="14.00">rep=no, t=no, r=no, m=yes, c=no</text>
</g>
<!-- n7 -->
<g id="node2" class="node">
<title>n7</title>
<ellipse fill="#DA79E8" stroke="black" cx="780.97" cy="-370.34" rx="190.84" ry="37.45"/>
<text text-anchor="middle" x="780.97" y="-381.64" font-family="Times,serif" font-size="14.00">habían</text>
<text text-anchor="middle" x="780.97" y="-366.64" font-family="Times,serif" font-size="14.00">vaii3p0 (coord)</text>
<text text-anchor="middle" x="780.97" y="-351.64" font-family="Times,serif" font-size="14.00">rep=no, t=no, r=yes, m=yes, c=no</text>
</g>
<!-- n11&#45;&gt;n7 -->
<g id="edge1" class="edge">
<title>n11&#45;&gt;n7</title>
<path fill="none" stroke="black" d="M1152.66,-453.15C1080.58,-437.28 989.55,-417.25 915.61,-400.97"/>
<polygon fill="black" stroke="black" points="916.28,-397.53 905.76,-398.8 914.77,-404.37 916.28,-397.53"/>
</g>
<!-- n12 -->
<g id="node3" class="node">
<title>n12</title>
<ellipse fill="none" stroke="black" cx="1275.97" cy="-370.34" rx="185.94" ry="37.45"/>
<text text-anchor="middle" x="1275.97" y="-381.64" font-family="Times,serif" font-size="14.00">jugaban</text>
<text text-anchor="middle" x="1275.97" y="-366.64" font-family="Times,serif" font-size="14.00">vmii3p0 (coord)</text>
<text text-anchor="middle" x="1275.97" y="-351.64" font-family="Times,serif" font-size="14.00">rep=no, t=no, r=no, m=yes, c=no</text>
</g>
<!-- n11&#45;&gt;n12 -->
<g id="edge2" class="edge">
<title>n11&#45;&gt;n12</title>
<path fill="none" stroke="black" d="M1275.97,-443.71C1275.97,-435.53 1275.97,-426.75 1275.97,-418.23"/>
<polygon fill="black" stroke="black" points="1279.47,-418.01 1275.97,-408.01 1272.47,-418.01 1279.47,-418.01"/>
</g>
<!-- n14 -->
<g id="node4" class="node">
<title>n14</title>
<ellipse fill="none" stroke="black" cx="1661.97" cy="-370.34" rx="181.95" ry="37.45"/>
<text text-anchor="middle" x="1661.97" y="-381.64" font-family="Times,serif" font-size="14.00">.</text>
<text text-anchor="middle" x="1661.97" y="-366.64" font-family="Times,serif" font-size="14.00">fp (punct)</text>
<text text-anchor="middle" x="1661.97" y="-351.64" font-family="Times,serif" font-size="14.00">rep=no, t=no, r=no, m=no, c=no</text>
</g>
<!-- n11&#45;&gt;n14 -->
<g id="edge3" class="edge">
<title>n11&#45;&gt;n14</title>
<path fill="none" stroke="black" d="M1381.7,-450.45C1432.97,-435.97 1494.65,-418.56 1547.08,-403.77"/>
<polygon fill="black" stroke="black" points="1548.08,-407.12 1556.75,-401.03 1546.18,-400.38 1548.08,-407.12"/>
</g>
<!-- n3 -->
<g id="node5" class="node">
<title>n3</title>
<ellipse fill="none" stroke="black" cx="185.97" cy="-259.38" rx="185.94" ry="37.45"/>
<text text-anchor="middle" x="185.97" y="-270.68" font-family="Times,serif" font-size="14.00">,</text>
<text text-anchor="middle" x="185.97" y="-255.68" font-family="Times,serif" font-size="14.00">fc (punct)</text>
<text text-anchor="middle" x="185.97" y="-240.68" font-family="Times,serif" font-size="14.00">rep=no, t=no, r=no, m=yes, c=no</text>
</g>
<!-- n7&#45;&gt;n3 -->
<g id="edge4" class="edge">
<title>n7&#45;&gt;n3</title>
<path fill="none" stroke="black" d="M642.56,-344.46C565.52,-330.56 467.9,-312.87 380.97,-296.86 364.4,-293.81 347.05,-290.59 329.82,-287.39"/>
<polygon fill="black" stroke="black" points="330.17,-283.89 319.69,-285.5 328.88,-290.77 330.17,-283.89"/>
</g>
<!-- n5 -->
<g id="node6" class="node">
<title>n5</title>
<ellipse fill="#BEDA48" stroke="black" cx="580.97" cy="-259.38" rx="190.84" ry="37.45"/>
<text text-anchor="middle" x="580.97" y="-270.68" font-family="Times,serif" font-size="14.00">niños</text>
<text text-anchor="middle" x="580.97" y="-255.68" font-family="Times,serif" font-size="14.00">ncmp000 (nsubj)</text>
<text text-anchor="middle" x="580.97" y="-240.68" font-family="Times,serif" font-size="14.00">rep=no, t=yes, r=no, m=yes, c=no</text>
</g>
<!-- n7&#45;&gt;n5 -->
<g id="edge5" class="edge">
<title>n7&#45;&gt;n5</title>
<path fill="none" stroke="black" d="M717.69,-334.86C697.16,-323.68 674.23,-311.19 653.11,-299.68"/>
<polygon fill="black" stroke="black" points="654.64,-296.53 644.18,-294.82 651.29,-302.68 654.64,-296.53"/>
</g>
<!-- n8 -->
<g id="node7" class="node">
<title>n8</title>
<ellipse fill="#DA79E8" stroke="black" cx="980.97" cy="-259.38" rx="190.84" ry="37.45"/>
<text text-anchor="middle" x="980.97" y="-270.68" font-family="Times,serif" font-size="14.00">escapado</text>
<text text-anchor="middle" x="980.97" y="-255.68" font-family="Times,serif" font-size="14.00">vmp00sm (vobj)</text>
<text text-anchor="middle" x="980.97" y="-240.68" font-family="Times,serif" font-size="14.00">rep=no, t=no, r=yes, m=yes, c=no</text>
</g>
<!-- n7&#45;&gt;n8 -->
<g id="edge6" class="edge">
<title>n7&#45;&gt;n8</title>
<path fill="none" stroke="black" d="M844.25,-334.86C864.78,-323.68 887.7,-311.19 908.83,-299.68"/>
<polygon fill="black" stroke="black" points="910.65,-302.68 917.76,-294.82 907.3,-296.53 910.65,-302.68"/>
</g>
<!-- n13 -->
<g id="node14" class="node">
<title>n13</title>
<ellipse fill="none" stroke="black" cx="1375.97" cy="-259.38" rx="185.94" ry="37.45"/>
<text text-anchor="middle" x="1375.97" y="-270.68" font-family="Times,serif" font-size="14.00">cerca</text>
<text text-anchor="middle" x="1375.97" y="-255.68" font-family="Times,serif" font-size="14.00">rg (advmod)</text>
<text text-anchor="middle" x="1375.97" y="-240.68" font-family="Times,serif" font-size="14.00">rep=no, t=no, r=no, m=yes, c=no</text>
</g>
<!-- n12&#45;&gt;n13 -->
<g id="edge13" class="edge">
<title>n12&#45;&gt;n13</title>
<path fill="none" stroke="black" d="M1308.99,-333.36C1317.69,-323.88 1327.18,-313.54 1336.2,-303.72"/>
<polygon fill="black" stroke="black" points="1338.8,-306.06 1342.98,-296.32 1333.64,-301.32 1338.8,-306.06"/>
</g>
<!-- n4 -->
<g id="node8" class="node">
<title>n4</title>
<ellipse fill="#BEDA48" stroke="black" cx="380.97" cy="-148.43" rx="190.84" ry="37.45"/>
<text text-anchor="middle" x="380.97" y="-159.73" font-family="Times,serif" font-size="14.00">los</text>
<text text-anchor="middle" x="380.97" y="-144.73" font-family="Times,serif" font-size="14.00">da0mp0 (det)</text>
<text text-anchor="middle" x="380.97" y="-129.73" font-family="Times,serif" font-size="14.00">rep=no, t=yes, r=no, m=yes, c=no</text>
</g>
<!-- n5&#45;&gt;n4 -->
<g id="edge7" class="edge">
<title>n5&#45;&gt;n4</title>
<path fill="none" stroke="black" d="M517.69,-223.91C497.16,-212.73 474.23,-200.24 453.11,-188.73"/>
<polygon fill="black" stroke="black" points="454.64,-185.58 444.18,-183.87 451.29,-191.72 454.64,-185.58"/>
</g>
<!-- n1 -->
<g id="node9" class="node">
<title>n1</title>
<ellipse fill="#DA79E8" stroke="black" cx="780.97" cy="-148.43" rx="190.84" ry="37.45"/>
<text text-anchor="middle" x="780.97" y="-159.73" font-family="Times,serif" font-size="14.00">Al</text>
<text text-anchor="middle" x="780.97" y="-144.73" font-family="Times,serif" font-size="14.00">sps00 (advmod)</text>
<text text-anchor="middle" x="780.97" y="-129.73" font-family="Times,serif" font-size="14.00">rep=no, t=no, r=yes, m=yes, c=no</text>
</g>
<!-- n8&#45;&gt;n1 -->
<g id="edge8" class="edge">
<title>n8&#45;&gt;n1</title>
<path fill="none" stroke="black" d="M917.69,-223.91C897.16,-212.73 874.23,-200.24 853.11,-188.73"/>
<polygon fill="black" stroke="black" points="854.64,-185.58 844.18,-183.87 851.29,-191.72 854.64,-185.58"/>
</g>
<!-- n6 -->
<g id="node10" class="node">
<title>n6</title>
<ellipse fill="#DA79E8" stroke="black" cx="1180.97" cy="-148.43" rx="190.84" ry="37.45"/>
<text text-anchor="middle" x="1180.97" y="-159.73" font-family="Times,serif" font-size="14.00">se</text>
<text text-anchor="middle" x="1180.97" y="-144.73" font-family="Times,serif" font-size="14.00">p0300000 (reflec)</text>
<text text-anchor="middle" x="1180.97" y="-129.73" font-family="Times,serif" font-size="14.00">rep=no, t=no, r=yes, m=yes, c=no</text>
</g>
<!-- n8&#45;&gt;n6 -->
<g id="edge9" class="edge">
<title>n8&#45;&gt;n6</title>
<path fill="none" stroke="black" d="M1044.25,-223.91C1064.78,-212.73 1087.7,-200.24 1108.83,-188.73"/>
<polygon fill="black" stroke="black" points="1110.65,-191.72 1117.76,-183.87 1107.3,-185.58 1110.65,-191.72"/>
</g>
<!-- n9 -->
<g id="node11" class="node">
<title>n9</title>
<ellipse fill="#DA79E8" stroke="black" cx="1580.97" cy="-148.43" rx="190.84" ry="37.45"/>
<text text-anchor="middle" x="1580.97" y="-159.73" font-family="Times,serif" font-size="14.00">de</text>
<text text-anchor="middle" x="1580.97" y="-144.73" font-family="Times,serif" font-size="14.00">sps00 (prepv)</text>
<text text-anchor="middle" x="1580.97" y="-129.73" font-family="Times,serif" font-size="14.00">rep=no, t=no, r=yes, m=yes, c=no</text>
</g>
<!-- n8&#45;&gt;n9 -->
<g id="edge10" class="edge">
<title>n8&#45;&gt;n9</title>
<path fill="none" stroke="black" d="M1118.4,-233.27C1139.36,-229.46 1160.74,-225.57 1180.97,-221.91 1269.84,-205.8 1292.1,-202.01 1380.97,-185.91 1398.04,-182.81 1415.92,-179.56 1433.69,-176.33"/>
<polygon fill="black" stroke="black" points="1434.32,-179.77 1443.53,-174.54 1433.07,-172.89 1434.32,-179.77"/>
</g>
<!-- n2 -->
<g id="node12" class="node">
<title>n2</title>
<ellipse fill="#DA79E8" stroke="black" cx="780.97" cy="-37.48" rx="190.84" ry="37.45"/>
<text text-anchor="middle" x="780.97" y="-48.78" font-family="Times,serif" font-size="14.00">parecer</text>
<text text-anchor="middle" x="780.97" y="-33.78" font-family="Times,serif" font-size="14.00">vmn0000 (pobj)</text>
<text text-anchor="middle" x="780.97" y="-18.78" font-family="Times,serif" font-size="14.00">rep=no, t=no, r=yes, m=yes, c=no</text>
</g>
<!-- n1&#45;&gt;n2 -->
<g id="edge11" class="edge">
<title>n1&#45;&gt;n2</title>
<path fill="none" stroke="black" d="M780.97,-110.85C780.97,-102.67 780.97,-93.89 780.97,-85.37"/>
<polygon fill="black" stroke="black" points="784.47,-85.15 780.97,-75.15 777.47,-85.15 784.47,-85.15"/>
</g>
<!-- n10 -->
<g id="node13" class="node">
<title>n10</title>
<ellipse fill="#DA79E8" stroke="black" cx="1580.97" cy="-37.48" rx="190.84" ry="37.45"/>
<text text-anchor="middle" x="1580.97" y="-48.78" font-family="Times,serif" font-size="14.00">casa</text>
<text text-anchor="middle" x="1580.97" y="-33.78" font-family="Times,serif" font-size="14.00">ncfs000 (pobj)</text>
<text text-anchor="middle" x="1580.97" y="-18.78" font-family="Times,serif" font-size="14.00">rep=no, t=no, r=yes, m=yes, c=no</text>
</g>
<!-- n9&#45;&gt;n10 -->
<g id="edge12" class="edge">
<title>n9&#45;&gt;n10</title>
<path fill="none" stroke="black" d="M1580.97,-110.85C1580.97,-102.67 1580.97,-93.89 1580.97,-85.37"/>
<polygon fill="black" stroke="black" points="1584.47,-85.15 1580.97,-75.15 1577.47,-85.15 1584.47,-85.15"/>
</g>
</g>
</svg>
