<?xml version="1.0" encoding="UTF-8" standalone="no"?>
<!DOCTYPE svg PUBLIC "-//W3C//DTD SVG 1.1//EN"
 "http://www.w3.org/Graphics/SVG/1.1/DTD/svg11.dtd">
<!-- Generated by graphviz version 2.43.0 (0)
 -->
<!-- Title: tree Pages: 1 -->
<svg width="2157pt" height="638pt"
 viewBox="0.00 0.00 2156.89 637.72" xmlns="http://www.w3.org/2000/svg" xmlns:xlink="http://www.w3.org/1999/xlink">
<g id="graph0" class="graph" transform="scale(1 1) rotate(0) translate(4 633.72)">
<title>tree</title>
<polygon fill="white" stroke="transparent" points="-4,4 -4,-633.72 2152.89,-633.72 2152.89,4 -4,4"/>
<!-- n3 -->
<g id="node1" class="node">
<title>n3</title>
<ellipse fill="#98D2A5" stroke="black" cx="972.92" cy="-592.24" rx="190.84" ry="37.45"/>
<text text-anchor="middle" x="972.92" y="-603.54" font-family="Times,serif" font-size="14.00">volvieron</text>
<text text-anchor="middle" x="972.92" y="-588.54" font-family="Times,serif" font-size="14.00">vmis3p0 (root)</text>
<text text-anchor="middle" x="972.92" y="-573.54" font-family="Times,serif" font-size="14.00">rep=no, t=no, r=yes, m=yes, c=no</text>
</g>
<!-- n2 -->
<g id="node2" class="node">
<title>n2</title>
<ellipse fill="#98D2A5" stroke="black" cx="190.92" cy="-481.29" rx="190.84" ry="37.45"/>
<text text-anchor="middle" x="190.92" y="-492.59" font-family="Times,serif" font-size="14.00">afectados</text>
<text text-anchor="middle" x="190.92" y="-477.59" font-family="Times,serif" font-size="14.00">ncmp000 (nsubj)</text>
<text text-anchor="middle" x="190.92" y="-462.59" font-family="Times,serif" font-size="14.00">rep=no, t=yes, r=no, m=yes, c=no</text>
</g>
<!-- n3&#45;&gt;n2 -->
<g id="edge1" class="edge">
<title>n3&#45;&gt;n2</title>
<path fill="none" stroke="black" d="M808.26,-573.25C691.52,-559.88 531.32,-540.29 390.92,-518.77 372.95,-516.01 354.12,-512.89 335.5,-509.66"/>
<polygon fill="black" stroke="black" points="335.94,-506.18 325.49,-507.91 334.74,-513.08 335.94,-506.18"/>
</g>
<!-- n4 -->
<g id="node3" class="node">
<title>n4</title>
<ellipse fill="none" stroke="black" cx="581.92" cy="-481.29" rx="181.95" ry="37.45"/>
<text text-anchor="middle" x="581.92" y="-492.59" font-family="Times,serif" font-size="14.00">a</text>
<text text-anchor="middle" x="581.92" y="-477.59" font-family="Times,serif" font-size="14.00">sps00 (prepv)</text>
<text text-anchor="middle" x="581.92" y="-462.59" font-family="Times,serif" font-size="14.00">rep=no, t=no, r=no, m=no, c=no</text>
</g>
<!-- n3&#45;&gt;n4 -->
<g id="edge2" class="edge">
<title>n3&#45;&gt;n4</title>
<path fill="none" stroke="black" d="M865.3,-561.26C813.27,-546.76 750.75,-529.33 697.68,-514.55"/>
<polygon fill="black" stroke="black" points="698.46,-511.13 687.89,-511.82 696.58,-517.87 698.46,-511.13"/>
</g>
<!-- n5 -->
<g id="node4" class="node">
<title>n5</title>
<ellipse fill="#98D2A5" stroke="black" cx="972.92" cy="-481.29" rx="190.84" ry="37.45"/>
<text text-anchor="middle" x="972.92" y="-492.59" font-family="Times,serif" font-size="14.00">quejarse</text>
<text text-anchor="middle" x="972.92" y="-477.59" font-family="Times,serif" font-size="14.00">vmn0000 (dobj)</text>
<text text-anchor="middle" x="972.92" y="-462.59" font-family="Times,serif" font-size="14.00">rep=no, t=no, r=yes, m=yes, c=no</text>
</g>
<!-- n3&#45;&gt;n5 -->
<g id="edge3" class="edge">
<title>n3&#45;&gt;n5</title>
<path fill="none" stroke="black" d="M972.92,-554.66C972.92,-546.49 972.92,-537.71 972.92,-529.18"/>
<polygon fill="black" stroke="black" points="976.42,-528.96 972.92,-518.96 969.42,-528.96 976.42,-528.96"/>
</g>
<!-- n6 -->
<g id="node5" class="node">
<title>n6</title>
<ellipse fill="#98D2A5" stroke="black" cx="1372.92" cy="-481.29" rx="190.84" ry="37.45"/>
<text text-anchor="middle" x="1372.92" y="-492.59" font-family="Times,serif" font-size="14.00">de</text>
<text text-anchor="middle" x="1372.92" y="-477.59" font-family="Times,serif" font-size="14.00">sps00 (oobj)</text>
<text text-anchor="middle" x="1372.92" y="-462.59" font-family="Times,serif" font-size="14.00">rep=no, t=no, r=yes, m=yes, c=no</text>
</g>
<!-- n3&#45;&gt;n6 -->
<g id="edge4" class="edge">
<title>n3&#45;&gt;n6</title>
<path fill="none" stroke="black" d="M1082.22,-561.47C1135.36,-547 1199.33,-529.57 1253.71,-514.76"/>
<polygon fill="black" stroke="black" points="1254.67,-518.13 1263.4,-512.12 1252.83,-511.37 1254.67,-518.13"/>
</g>
<!-- n14 -->
<g id="node6" class="node">
<title>n14</title>
<ellipse fill="none" stroke="black" cx="1763.92" cy="-481.29" rx="181.95" ry="37.45"/>
<text text-anchor="middle" x="1763.92" y="-492.59" font-family="Times,serif" font-size="14.00">.</text>
<text text-anchor="middle" x="1763.92" y="-477.59" font-family="Times,serif" font-size="14.00">fp (punct)</text>
<text text-anchor="middle" x="1763.92" y="-462.59" font-family="Times,serif" font-size="14.00">rep=no, t=no, r=no, m=no, c=no</text>
</g>
<!-- n3&#45;&gt;n14 -->
<g id="edge5" class="edge">
<title>n3&#45;&gt;n14</title>
<path fill="none" stroke="black" d="M1140.16,-574.15C1260.75,-561.06 1427.26,-541.45 1572.92,-518.77 1590.16,-516.08 1608.22,-513 1626.07,-509.78"/>
<polygon fill="black" stroke="black" points="1626.75,-513.21 1635.96,-507.98 1625.5,-506.33 1626.75,-513.21"/>
</g>
<!-- n1 -->
<g id="node7" class="node">
<title>n1</title>
<ellipse fill="#98D2A5" stroke="black" cx="190.92" cy="-370.34" rx="190.84" ry="37.45"/>
<text text-anchor="middle" x="190.92" y="-381.64" font-family="Times,serif" font-size="14.00">Los</text>
<text text-anchor="middle" x="190.92" y="-366.64" font-family="Times,serif" font-size="14.00">da0mp0 (det)</text>
<text text-anchor="middle" x="190.92" y="-351.64" font-family="Times,serif" font-size="14.00">rep=no, t=yes, r=no, m=yes, c=no</text>
</g>
<!-- n2&#45;&gt;n1 -->
<g id="edge6" class="edge">
<title>n2&#45;&gt;n1</title>
<path fill="none" stroke="black" d="M190.92,-443.71C190.92,-435.53 190.92,-426.75 190.92,-418.23"/>
<polygon fill="black" stroke="black" points="194.42,-418.01 190.92,-408.01 187.42,-418.01 194.42,-418.01"/>
</g>
<!-- n9 -->
<g id="node8" class="node">
<title>n9</title>
<ellipse fill="#98D2A5" stroke="black" cx="1372.92" cy="-370.34" rx="190.84" ry="37.45"/>
<text text-anchor="middle" x="1372.92" y="-381.64" font-family="Times,serif" font-size="14.00">atención</text>
<text text-anchor="middle" x="1372.92" y="-366.64" font-family="Times,serif" font-size="14.00">ncfs000 (pobj)</text>
<text text-anchor="middle" x="1372.92" y="-351.64" font-family="Times,serif" font-size="14.00">rep=no, t=no, r=yes, m=yes, c=no</text>
</g>
<!-- n6&#45;&gt;n9 -->
<g id="edge7" class="edge">
<title>n6&#45;&gt;n9</title>
<path fill="none" stroke="black" d="M1372.92,-443.71C1372.92,-435.53 1372.92,-426.75 1372.92,-418.23"/>
<polygon fill="black" stroke="black" points="1376.42,-418.01 1372.92,-408.01 1369.42,-418.01 1376.42,-418.01"/>
</g>
<!-- n7 -->
<g id="node9" class="node">
<title>n7</title>
<ellipse fill="#98D2A5" stroke="black" cx="972.92" cy="-259.38" rx="190.84" ry="37.45"/>
<text text-anchor="middle" x="972.92" y="-270.68" font-family="Times,serif" font-size="14.00">la</text>
<text text-anchor="middle" x="972.92" y="-255.68" font-family="Times,serif" font-size="14.00">da0fs0 (det)</text>
<text text-anchor="middle" x="972.92" y="-240.68" font-family="Times,serif" font-size="14.00">rep=no, t=no, r=yes, m=yes, c=no</text>
</g>
<!-- n9&#45;&gt;n7 -->
<g id="edge8" class="edge">
<title>n9&#45;&gt;n7</title>
<path fill="none" stroke="black" d="M1263.62,-339.56C1210.48,-325.09 1146.51,-307.67 1092.12,-292.85"/>
<polygon fill="black" stroke="black" points="1093,-289.46 1082.44,-290.21 1091.16,-296.22 1093,-289.46"/>
</g>
<!-- n8 -->
<g id="node10" class="node">
<title>n8</title>
<ellipse fill="#98D2A5" stroke="black" cx="1372.92" cy="-259.38" rx="190.84" ry="37.45"/>
<text text-anchor="middle" x="1372.92" y="-270.68" font-family="Times,serif" font-size="14.00">mala</text>
<text text-anchor="middle" x="1372.92" y="-255.68" font-family="Times,serif" font-size="14.00">aq0fs0 (amod)</text>
<text text-anchor="middle" x="1372.92" y="-240.68" font-family="Times,serif" font-size="14.00">rep=no, t=no, r=yes, m=yes, c=no</text>
</g>
<!-- n9&#45;&gt;n8 -->
<g id="edge9" class="edge">
<title>n9&#45;&gt;n8</title>
<path fill="none" stroke="black" d="M1372.92,-332.75C1372.92,-324.58 1372.92,-315.8 1372.92,-307.27"/>
<polygon fill="black" stroke="black" points="1376.42,-307.06 1372.92,-297.06 1369.42,-307.06 1376.42,-307.06"/>
</g>
<!-- n11 -->
<g id="node11" class="node">
<title>n11</title>
<ellipse fill="#98D2A5" stroke="black" cx="1767.92" cy="-259.38" rx="185.94" ry="37.45"/>
<text text-anchor="middle" x="1767.92" y="-270.68" font-family="Times,serif" font-size="14.00">reciben</text>
<text text-anchor="middle" x="1767.92" y="-255.68" font-family="Times,serif" font-size="14.00">vmip3p0 (rcmod)</text>
<text text-anchor="middle" x="1767.92" y="-240.68" font-family="Times,serif" font-size="14.00">rep=no, t=no, r=no, m=yes, c=no</text>
</g>
<!-- n9&#45;&gt;n11 -->
<g id="edge10" class="edge">
<title>n9&#45;&gt;n11</title>
<path fill="none" stroke="black" d="M1481.38,-339.42C1533.84,-324.95 1596.9,-307.56 1650.49,-292.77"/>
<polygon fill="black" stroke="black" points="1651.68,-296.08 1660.39,-290.04 1649.82,-289.33 1651.68,-296.08"/>
</g>
<!-- n10 -->
<g id="node12" class="node">
<title>n10</title>
<ellipse fill="#98D2A5" stroke="black" cx="1572.92" cy="-148.43" rx="185.94" ry="37.45"/>
<text text-anchor="middle" x="1572.92" y="-159.73" font-family="Times,serif" font-size="14.00">que</text>
<text text-anchor="middle" x="1572.92" y="-144.73" font-family="Times,serif" font-size="14.00">pr0cn000 (dobj)</text>
<text text-anchor="middle" x="1572.92" y="-129.73" font-family="Times,serif" font-size="14.00">rep=no, t=no, r=no, m=yes, c=no</text>
</g>
<!-- n11&#45;&gt;n10 -->
<g id="edge11" class="edge">
<title>n11&#45;&gt;n10</title>
<path fill="none" stroke="black" d="M1706.22,-223.91C1686.29,-212.78 1664.05,-200.35 1643.53,-188.89"/>
<polygon fill="black" stroke="black" points="1644.99,-185.69 1634.55,-183.87 1641.57,-191.8 1644.99,-185.69"/>
</g>
<!-- n12 -->
<g id="node13" class="node">
<title>n12</title>
<ellipse fill="#98D2A5" stroke="black" cx="1962.92" cy="-148.43" rx="185.94" ry="37.45"/>
<text text-anchor="middle" x="1962.92" y="-159.73" font-family="Times,serif" font-size="14.00">de</text>
<text text-anchor="middle" x="1962.92" y="-144.73" font-family="Times,serif" font-size="14.00">sps00 (prepv)</text>
<text text-anchor="middle" x="1962.92" y="-129.73" font-family="Times,serif" font-size="14.00">rep=no, t=no, r=no, m=yes, c=no</text>
</g>
<!-- n11&#45;&gt;n12 -->
<g id="edge12" class="edge">
<title>n11&#45;&gt;n12</title>
<path fill="none" stroke="black" d="M1829.62,-223.91C1849.54,-212.78 1871.79,-200.35 1892.3,-188.89"/>
<polygon fill="black" stroke="black" points="1894.26,-191.8 1901.29,-183.87 1890.85,-185.69 1894.26,-191.8"/>
</g>
<!-- n13 -->
<g id="node14" class="node">
<title>n13</title>
<ellipse fill="#98D2A5" stroke="black" cx="1962.92" cy="-37.48" rx="185.94" ry="37.45"/>
<text text-anchor="middle" x="1962.92" y="-48.78" font-family="Times,serif" font-size="14.00">Turbocat</text>
<text text-anchor="middle" x="1962.92" y="-33.78" font-family="Times,serif" font-size="14.00">np00000 (pobj)</text>
<text text-anchor="middle" x="1962.92" y="-18.78" font-family="Times,serif" font-size="14.00">rep=no, t=no, r=no, m=yes, c=no</text>
</g>
<!-- n12&#45;&gt;n13 -->
<g id="edge13" class="edge">
<title>n12&#45;&gt;n13</title>
<path fill="none" stroke="black" d="M1962.92,-110.85C1962.92,-102.67 1962.92,-93.89 1962.92,-85.37"/>
<polygon fill="black" stroke="black" points="1966.42,-85.15 1962.92,-75.15 1959.42,-85.15 1966.42,-85.15"/>
</g>
</g>
</svg>
