<?xml version="1.0" encoding="UTF-8" standalone="no"?>
<!DOCTYPE svg PUBLIC "-//W3C//DTD SVG 1.1//EN"
 "http://www.w3.org/Graphics/SVG/1.1/DTD/svg11.dtd">
<!-- Generated by graphviz version 2.43.0 (0)
 -->
<!-- Title: tree Pages: 1 -->
<svg width="4946pt" height="1303pt"
 viewBox="0.00 0.00 4945.89 1303.44" xmlns="http://www.w3.org/2000/svg" xmlns:xlink="http://www.w3.org/1999/xlink">
<g id="graph0" class="graph" transform="scale(1 1) rotate(0) translate(4 1299.44)">
<title>tree</title>
<polygon fill="white" stroke="transparent" points="-4,4 -4,-1299.44 4941.89,-1299.44 4941.89,4 -4,4"/>
<!-- n16 -->
<g id="node1" class="node">
<title>n16</title>
<ellipse fill="none" stroke="black" cx="2138.97" cy="-1257.96" rx="181.95" ry="37.45"/>
<text text-anchor="middle" x="2138.97" y="-1269.26" font-family="Times,serif" font-size="14.00">considera</text>
<text text-anchor="middle" x="2138.97" y="-1254.26" font-family="Times,serif" font-size="14.00">vmip3s0 (root)</text>
<text text-anchor="middle" x="2138.97" y="-1239.26" font-family="Times,serif" font-size="14.00">rep=no, t=no, r=no, m=no, c=no</text>
</g>
<!-- n2 -->
<g id="node2" class="node">
<title>n2</title>
<ellipse fill="none" stroke="black" cx="1355.97" cy="-1147.01" rx="185.94" ry="37.45"/>
<text text-anchor="middle" x="1355.97" y="-1158.31" font-family="Times,serif" font-size="14.00">escritor</text>
<text text-anchor="middle" x="1355.97" y="-1143.31" font-family="Times,serif" font-size="14.00">ncms000 (nsubj)</text>
<text text-anchor="middle" x="1355.97" y="-1128.31" font-family="Times,serif" font-size="14.00">rep=yes, t=no, r=no, m=no, c=no</text>
</g>
<!-- n16&#45;&gt;n2 -->
<g id="edge1" class="edge">
<title>n16&#45;&gt;n2</title>
<path fill="none" stroke="black" d="M1990.31,-1236.28C1855.09,-1217.46 1655.99,-1189.76 1517.03,-1170.42"/>
<polygon fill="black" stroke="black" points="1517.1,-1166.9 1506.71,-1168.99 1516.13,-1173.83 1517.1,-1166.9"/>
</g>
<!-- n17 -->
<g id="node3" class="node">
<title>n17</title>
<ellipse fill="none" stroke="black" cx="2138.97" cy="-1147.01" rx="181.95" ry="37.45"/>
<text text-anchor="middle" x="2138.97" y="-1158.31" font-family="Times,serif" font-size="14.00">que</text>
<text text-anchor="middle" x="2138.97" y="-1143.31" font-family="Times,serif" font-size="14.00">cs (dobj)</text>
<text text-anchor="middle" x="2138.97" y="-1128.31" font-family="Times,serif" font-size="14.00">rep=no, t=no, r=no, m=no, c=no</text>
</g>
<!-- n16&#45;&gt;n17 -->
<g id="edge2" class="edge">
<title>n16&#45;&gt;n17</title>
<path fill="none" stroke="black" d="M2138.97,-1220.38C2138.97,-1212.21 2138.97,-1203.43 2138.97,-1194.9"/>
<polygon fill="black" stroke="black" points="2142.47,-1194.68 2138.97,-1184.68 2135.47,-1194.68 2142.47,-1194.68"/>
</g>
<!-- n50 -->
<g id="node4" class="node">
<title>n50</title>
<ellipse fill="none" stroke="black" cx="2519.97" cy="-1147.01" rx="181.95" ry="37.45"/>
<text text-anchor="middle" x="2519.97" y="-1158.31" font-family="Times,serif" font-size="14.00">.</text>
<text text-anchor="middle" x="2519.97" y="-1143.31" font-family="Times,serif" font-size="14.00">fp (punct)</text>
<text text-anchor="middle" x="2519.97" y="-1128.31" font-family="Times,serif" font-size="14.00">rep=no, t=no, r=no, m=no, c=no</text>
</g>
<!-- n16&#45;&gt;n50 -->
<g id="edge3" class="edge">
<title>n16&#45;&gt;n50</title>
<path fill="none" stroke="black" d="M2243.08,-1227.19C2293.58,-1212.75 2354.37,-1195.37 2406.1,-1180.57"/>
<polygon fill="black" stroke="black" points="2407.33,-1183.86 2415.99,-1177.75 2405.41,-1177.13 2407.33,-1183.86"/>
</g>
<!-- n1 -->
<g id="node5" class="node">
<title>n1</title>
<ellipse fill="none" stroke="black" cx="185.97" cy="-1036.06" rx="185.94" ry="37.45"/>
<text text-anchor="middle" x="185.97" y="-1047.36" font-family="Times,serif" font-size="14.00">El</text>
<text text-anchor="middle" x="185.97" y="-1032.36" font-family="Times,serif" font-size="14.00">da0ms0 (det)</text>
<text text-anchor="middle" x="185.97" y="-1017.36" font-family="Times,serif" font-size="14.00">rep=yes, t=no, r=no, m=no, c=no</text>
</g>
<!-- n2&#45;&gt;n1 -->
<g id="edge4" class="edge">
<title>n2&#45;&gt;n1</title>
<path fill="none" stroke="black" d="M1174.76,-1138.55C978.53,-1129.07 656.59,-1109.44 380.97,-1073.53 362.57,-1071.14 343.29,-1068.13 324.3,-1064.89"/>
<polygon fill="black" stroke="black" points="324.85,-1061.43 314.4,-1063.17 323.66,-1068.33 324.85,-1061.43"/>
</g>
<!-- n3 -->
<g id="node6" class="node">
<title>n3</title>
<ellipse fill="none" stroke="black" cx="575.97" cy="-1036.06" rx="185.94" ry="37.45"/>
<text text-anchor="middle" x="575.97" y="-1047.36" font-family="Times,serif" font-size="14.00">israelí</text>
<text text-anchor="middle" x="575.97" y="-1032.36" font-family="Times,serif" font-size="14.00">aq0cs0 (amod)</text>
<text text-anchor="middle" x="575.97" y="-1017.36" font-family="Times,serif" font-size="14.00">rep=yes, t=no, r=no, m=no, c=no</text>
</g>
<!-- n2&#45;&gt;n3 -->
<g id="edge5" class="edge">
<title>n2&#45;&gt;n3</title>
<path fill="none" stroke="black" d="M1193.57,-1128.61C1075.96,-1115.35 913.3,-1095.64 770.97,-1073.53 753.45,-1070.81 735.1,-1067.71 716.95,-1064.49"/>
<polygon fill="black" stroke="black" points="717.35,-1061.01 706.89,-1062.69 716.12,-1067.9 717.35,-1061.01"/>
</g>
<!-- n4 -->
<g id="node7" class="node">
<title>n4</title>
<ellipse fill="none" stroke="black" cx="965.97" cy="-1036.06" rx="185.94" ry="37.45"/>
<text text-anchor="middle" x="965.97" y="-1047.36" font-family="Times,serif" font-size="14.00">Amos</text>
<text text-anchor="middle" x="965.97" y="-1032.36" font-family="Times,serif" font-size="14.00">ncms000 (appos)</text>
<text text-anchor="middle" x="965.97" y="-1017.36" font-family="Times,serif" font-size="14.00">rep=yes, t=no, r=no, m=no, c=no</text>
</g>
<!-- n2&#45;&gt;n4 -->
<g id="edge6" class="edge">
<title>n2&#45;&gt;n4</title>
<path fill="none" stroke="black" d="M1249.4,-1116.24C1197.59,-1101.77 1135.23,-1084.34 1082.2,-1069.53"/>
<polygon fill="black" stroke="black" points="1082.98,-1066.11 1072.41,-1066.79 1081.1,-1072.85 1082.98,-1066.11"/>
</g>
<!-- n6 -->
<g id="node8" class="node">
<title>n6</title>
<ellipse fill="none" stroke="black" cx="1355.97" cy="-1036.06" rx="185.94" ry="37.45"/>
<text text-anchor="middle" x="1355.97" y="-1047.36" font-family="Times,serif" font-size="14.00">,</text>
<text text-anchor="middle" x="1355.97" y="-1032.36" font-family="Times,serif" font-size="14.00">fc (punct)</text>
<text text-anchor="middle" x="1355.97" y="-1017.36" font-family="Times,serif" font-size="14.00">rep=yes, t=no, r=no, m=no, c=no</text>
</g>
<!-- n2&#45;&gt;n6 -->
<g id="edge7" class="edge">
<title>n2&#45;&gt;n6</title>
<path fill="none" stroke="black" d="M1355.97,-1109.43C1355.97,-1101.25 1355.97,-1092.47 1355.97,-1083.95"/>
<polygon fill="black" stroke="black" points="1359.47,-1083.73 1355.97,-1073.73 1352.47,-1083.73 1359.47,-1083.73"/>
</g>
<!-- n7 -->
<g id="node9" class="node">
<title>n7</title>
<ellipse fill="none" stroke="black" cx="1745.97" cy="-1036.06" rx="185.94" ry="37.45"/>
<text text-anchor="middle" x="1745.97" y="-1047.36" font-family="Times,serif" font-size="14.00">partidario</text>
<text text-anchor="middle" x="1745.97" y="-1032.36" font-family="Times,serif" font-size="14.00">aq0ms0 (amod)</text>
<text text-anchor="middle" x="1745.97" y="-1017.36" font-family="Times,serif" font-size="14.00">rep=yes, t=no, r=no, m=no, c=no</text>
</g>
<!-- n2&#45;&gt;n7 -->
<g id="edge8" class="edge">
<title>n2&#45;&gt;n7</title>
<path fill="none" stroke="black" d="M1462.54,-1116.24C1514.34,-1101.77 1576.71,-1084.34 1629.74,-1069.53"/>
<polygon fill="black" stroke="black" points="1630.84,-1072.85 1639.53,-1066.79 1628.96,-1066.11 1630.84,-1072.85"/>
</g>
<!-- n15 -->
<g id="node10" class="node">
<title>n15</title>
<ellipse fill="none" stroke="black" cx="2135.97" cy="-1036.06" rx="185.94" ry="37.45"/>
<text text-anchor="middle" x="2135.97" y="-1047.36" font-family="Times,serif" font-size="14.00">,</text>
<text text-anchor="middle" x="2135.97" y="-1032.36" font-family="Times,serif" font-size="14.00">fc (punct)</text>
<text text-anchor="middle" x="2135.97" y="-1017.36" font-family="Times,serif" font-size="14.00">rep=yes, t=no, r=no, m=no, c=no</text>
</g>
<!-- n2&#45;&gt;n15 -->
<g id="edge9" class="edge">
<title>n2&#45;&gt;n15</title>
<path fill="none" stroke="black" d="M1518.37,-1128.61C1635.97,-1115.35 1798.63,-1095.64 1940.97,-1073.53 1958.49,-1070.81 1976.84,-1067.71 1994.99,-1064.49"/>
<polygon fill="black" stroke="black" points="1995.82,-1067.9 2005.04,-1062.69 1994.58,-1061.01 1995.82,-1067.9"/>
</g>
<!-- n21 -->
<g id="node19" class="node">
<title>n21</title>
<ellipse fill="#DA79E8" stroke="black" cx="2535.97" cy="-1036.06" rx="190.84" ry="37.45"/>
<text text-anchor="middle" x="2535.97" y="-1047.36" font-family="Times,serif" font-size="14.00">mantienen</text>
<text text-anchor="middle" x="2535.97" y="-1032.36" font-family="Times,serif" font-size="14.00">vmip3p0 (cobj)</text>
<text text-anchor="middle" x="2535.97" y="-1017.36" font-family="Times,serif" font-size="14.00">rep=no, t=no, r=yes, m=yes, c=no</text>
</g>
<!-- n17&#45;&gt;n21 -->
<g id="edge18" class="edge">
<title>n17&#45;&gt;n21</title>
<path fill="none" stroke="black" d="M2245.88,-1116.67C2298.85,-1102.13 2362.97,-1084.54 2417.44,-1069.59"/>
<polygon fill="black" stroke="black" points="2418.42,-1072.95 2427.14,-1066.92 2416.57,-1066.2 2418.42,-1072.95"/>
</g>
<!-- n5 -->
<g id="node11" class="node">
<title>n5</title>
<ellipse fill="none" stroke="black" cx="965.97" cy="-925.1" rx="185.94" ry="37.45"/>
<text text-anchor="middle" x="965.97" y="-936.4" font-family="Times,serif" font-size="14.00">Oz</text>
<text text-anchor="middle" x="965.97" y="-921.4" font-family="Times,serif" font-size="14.00">np00000 (appos)</text>
<text text-anchor="middle" x="965.97" y="-906.4" font-family="Times,serif" font-size="14.00">rep=yes, t=no, r=no, m=no, c=no</text>
</g>
<!-- n4&#45;&gt;n5 -->
<g id="edge10" class="edge">
<title>n4&#45;&gt;n5</title>
<path fill="none" stroke="black" d="M965.97,-998.47C965.97,-990.3 965.97,-981.52 965.97,-972.99"/>
<polygon fill="black" stroke="black" points="969.47,-972.78 965.97,-962.78 962.47,-972.78 969.47,-972.78"/>
</g>
<!-- n8 -->
<g id="node12" class="node">
<title>n8</title>
<ellipse fill="none" stroke="black" cx="1740.97" cy="-925.1" rx="185.94" ry="37.45"/>
<text text-anchor="middle" x="1740.97" y="-936.4" font-family="Times,serif" font-size="14.00">del</text>
<text text-anchor="middle" x="1740.97" y="-921.4" font-family="Times,serif" font-size="14.00">spcms (prepa)</text>
<text text-anchor="middle" x="1740.97" y="-906.4" font-family="Times,serif" font-size="14.00">rep=yes, t=no, r=no, m=no, c=no</text>
</g>
<!-- n7&#45;&gt;n8 -->
<g id="edge11" class="edge">
<title>n7&#45;&gt;n8</title>
<path fill="none" stroke="black" d="M1744.29,-998.47C1743.92,-990.3 1743.51,-981.52 1743.12,-972.99"/>
<polygon fill="black" stroke="black" points="1746.61,-972.6 1742.65,-962.78 1739.61,-972.93 1746.61,-972.6"/>
</g>
<!-- n9 -->
<g id="node13" class="node">
<title>n9</title>
<ellipse fill="none" stroke="black" cx="1740.97" cy="-814.15" rx="185.94" ry="37.45"/>
<text text-anchor="middle" x="1740.97" y="-825.45" font-family="Times,serif" font-size="14.00">establecimiento</text>
<text text-anchor="middle" x="1740.97" y="-810.45" font-family="Times,serif" font-size="14.00">ncms000 (pobj)</text>
<text text-anchor="middle" x="1740.97" y="-795.45" font-family="Times,serif" font-size="14.00">rep=yes, t=no, r=no, m=no, c=no</text>
</g>
<!-- n8&#45;&gt;n9 -->
<g id="edge12" class="edge">
<title>n8&#45;&gt;n9</title>
<path fill="none" stroke="black" d="M1740.97,-887.52C1740.97,-879.35 1740.97,-870.57 1740.97,-862.04"/>
<polygon fill="black" stroke="black" points="1744.47,-861.82 1740.97,-851.82 1737.47,-861.82 1744.47,-861.82"/>
</g>
<!-- n10 -->
<g id="node14" class="node">
<title>n10</title>
<ellipse fill="none" stroke="black" cx="1740.97" cy="-703.2" rx="185.94" ry="37.45"/>
<text text-anchor="middle" x="1740.97" y="-714.5" font-family="Times,serif" font-size="14.00">de</text>
<text text-anchor="middle" x="1740.97" y="-699.5" font-family="Times,serif" font-size="14.00">sps00 (prepn)</text>
<text text-anchor="middle" x="1740.97" y="-684.5" font-family="Times,serif" font-size="14.00">rep=yes, t=no, r=no, m=no, c=no</text>
</g>
<!-- n9&#45;&gt;n10 -->
<g id="edge13" class="edge">
<title>n9&#45;&gt;n10</title>
<path fill="none" stroke="black" d="M1740.97,-776.57C1740.97,-768.39 1740.97,-759.61 1740.97,-751.09"/>
<polygon fill="black" stroke="black" points="1744.47,-750.87 1740.97,-740.87 1737.47,-750.87 1744.47,-750.87"/>
</g>
<!-- n12 -->
<g id="node15" class="node">
<title>n12</title>
<ellipse fill="none" stroke="black" cx="1740.97" cy="-592.24" rx="185.94" ry="37.45"/>
<text text-anchor="middle" x="1740.97" y="-603.54" font-family="Times,serif" font-size="14.00">Estado</text>
<text text-anchor="middle" x="1740.97" y="-588.54" font-family="Times,serif" font-size="14.00">np00000 (pobj)</text>
<text text-anchor="middle" x="1740.97" y="-573.54" font-family="Times,serif" font-size="14.00">rep=yes, t=no, r=no, m=no, c=no</text>
</g>
<!-- n10&#45;&gt;n12 -->
<g id="edge14" class="edge">
<title>n10&#45;&gt;n12</title>
<path fill="none" stroke="black" d="M1740.97,-665.61C1740.97,-657.44 1740.97,-648.66 1740.97,-640.13"/>
<polygon fill="black" stroke="black" points="1744.47,-639.92 1740.97,-629.92 1737.47,-639.92 1744.47,-639.92"/>
</g>
<!-- n11 -->
<g id="node16" class="node">
<title>n11</title>
<ellipse fill="none" stroke="black" cx="1350.97" cy="-481.29" rx="185.94" ry="37.45"/>
<text text-anchor="middle" x="1350.97" y="-492.59" font-family="Times,serif" font-size="14.00">un</text>
<text text-anchor="middle" x="1350.97" y="-477.59" font-family="Times,serif" font-size="14.00">di0ms0 (det)</text>
<text text-anchor="middle" x="1350.97" y="-462.59" font-family="Times,serif" font-size="14.00">rep=yes, t=no, r=no, m=no, c=no</text>
</g>
<!-- n12&#45;&gt;n11 -->
<g id="edge15" class="edge">
<title>n12&#45;&gt;n11</title>
<path fill="none" stroke="black" d="M1634.4,-561.47C1582.59,-547 1520.23,-529.57 1467.2,-514.76"/>
<polygon fill="black" stroke="black" points="1467.98,-511.35 1457.41,-512.03 1466.1,-518.09 1467.98,-511.35"/>
</g>
<!-- n13 -->
<g id="node17" class="node">
<title>n13</title>
<ellipse fill="none" stroke="black" cx="1740.97" cy="-481.29" rx="185.94" ry="37.45"/>
<text text-anchor="middle" x="1740.97" y="-492.59" font-family="Times,serif" font-size="14.00">palestino</text>
<text text-anchor="middle" x="1740.97" y="-477.59" font-family="Times,serif" font-size="14.00">aq0ms0 (amod)</text>
<text text-anchor="middle" x="1740.97" y="-462.59" font-family="Times,serif" font-size="14.00">rep=yes, t=no, r=no, m=no, c=no</text>
</g>
<!-- n12&#45;&gt;n13 -->
<g id="edge16" class="edge">
<title>n12&#45;&gt;n13</title>
<path fill="none" stroke="black" d="M1740.97,-554.66C1740.97,-546.49 1740.97,-537.71 1740.97,-529.18"/>
<polygon fill="black" stroke="black" points="1744.47,-528.96 1740.97,-518.96 1737.47,-528.96 1744.47,-528.96"/>
</g>
<!-- n14 -->
<g id="node18" class="node">
<title>n14</title>
<ellipse fill="none" stroke="black" cx="2130.97" cy="-481.29" rx="185.94" ry="37.45"/>
<text text-anchor="middle" x="2130.97" y="-492.59" font-family="Times,serif" font-size="14.00">independiente</text>
<text text-anchor="middle" x="2130.97" y="-477.59" font-family="Times,serif" font-size="14.00">aq0cs0 (amod)</text>
<text text-anchor="middle" x="2130.97" y="-462.59" font-family="Times,serif" font-size="14.00">rep=yes, t=no, r=no, m=no, c=no</text>
</g>
<!-- n12&#45;&gt;n14 -->
<g id="edge17" class="edge">
<title>n12&#45;&gt;n14</title>
<path fill="none" stroke="black" d="M1847.54,-561.47C1899.34,-547 1961.71,-529.57 2014.74,-514.76"/>
<polygon fill="black" stroke="black" points="2015.84,-518.09 2024.53,-512.03 2013.96,-511.35 2015.84,-518.09"/>
</g>
<!-- n19 -->
<g id="node20" class="node">
<title>n19</title>
<ellipse fill="#BEDA48" stroke="black" cx="2135.97" cy="-925.1" rx="190.84" ry="37.45"/>
<text text-anchor="middle" x="2135.97" y="-936.4" font-family="Times,serif" font-size="14.00">palestinos</text>
<text text-anchor="middle" x="2135.97" y="-921.4" font-family="Times,serif" font-size="14.00">ncmp000 (nsubj)</text>
<text text-anchor="middle" x="2135.97" y="-906.4" font-family="Times,serif" font-size="14.00">rep=no, t=yes, r=no, m=yes, c=no</text>
</g>
<!-- n21&#45;&gt;n19 -->
<g id="edge19" class="edge">
<title>n21&#45;&gt;n19</title>
<path fill="none" stroke="black" d="M2426.67,-1005.28C2373.53,-990.81 2309.56,-973.39 2255.17,-958.57"/>
<polygon fill="black" stroke="black" points="2256.05,-955.18 2245.49,-955.93 2254.21,-961.94 2256.05,-955.18"/>
</g>
<!-- n20 -->
<g id="node21" class="node">
<title>n20</title>
<ellipse fill="#DA79E8" stroke="black" cx="2535.97" cy="-925.1" rx="190.84" ry="37.45"/>
<text text-anchor="middle" x="2535.97" y="-936.4" font-family="Times,serif" font-size="14.00">&quot;</text>
<text text-anchor="middle" x="2535.97" y="-921.4" font-family="Times,serif" font-size="14.00">fe (punct)</text>
<text text-anchor="middle" x="2535.97" y="-906.4" font-family="Times,serif" font-size="14.00">rep=no, t=no, r=yes, m=yes, c=no</text>
</g>
<!-- n21&#45;&gt;n20 -->
<g id="edge20" class="edge">
<title>n21&#45;&gt;n20</title>
<path fill="none" stroke="black" d="M2535.97,-998.47C2535.97,-990.3 2535.97,-981.52 2535.97,-972.99"/>
<polygon fill="black" stroke="black" points="2539.47,-972.78 2535.97,-962.78 2532.47,-972.78 2539.47,-972.78"/>
</g>
<!-- n25 -->
<g id="node22" class="node">
<title>n25</title>
<ellipse fill="#DA79E8" stroke="black" cx="2935.97" cy="-925.1" rx="190.84" ry="37.45"/>
<text text-anchor="middle" x="2935.97" y="-936.4" font-family="Times,serif" font-size="14.00">guerras</text>
<text text-anchor="middle" x="2935.97" y="-921.4" font-family="Times,serif" font-size="14.00">ncfp000 (dobj)</text>
<text text-anchor="middle" x="2935.97" y="-906.4" font-family="Times,serif" font-size="14.00">rep=no, t=no, r=yes, m=yes, c=no</text>
</g>
<!-- n21&#45;&gt;n25 -->
<g id="edge21" class="edge">
<title>n21&#45;&gt;n25</title>
<path fill="none" stroke="black" d="M2645.27,-1005.28C2698.41,-990.81 2762.38,-973.39 2816.76,-958.57"/>
<polygon fill="black" stroke="black" points="2817.72,-961.94 2826.45,-955.93 2815.88,-955.18 2817.72,-961.94"/>
</g>
<!-- n49 -->
<g id="node23" class="node">
<title>n49</title>
<ellipse fill="#DA79E8" stroke="black" cx="3335.97" cy="-925.1" rx="190.84" ry="37.45"/>
<text text-anchor="middle" x="3335.97" y="-936.4" font-family="Times,serif" font-size="14.00">&quot;</text>
<text text-anchor="middle" x="3335.97" y="-921.4" font-family="Times,serif" font-size="14.00">fe (punct)</text>
<text text-anchor="middle" x="3335.97" y="-906.4" font-family="Times,serif" font-size="14.00">rep=no, t=no, r=yes, m=yes, c=no</text>
</g>
<!-- n21&#45;&gt;n49 -->
<g id="edge22" class="edge">
<title>n21&#45;&gt;n49</title>
<path fill="none" stroke="black" d="M2702.51,-1017.66C2823.13,-1004.4 2989.95,-984.69 3135.97,-962.58 3154.01,-959.85 3172.93,-956.73 3191.62,-953.5"/>
<polygon fill="black" stroke="black" points="3192.43,-956.91 3201.68,-951.74 3191.22,-950.01 3192.43,-956.91"/>
</g>
<!-- n18 -->
<g id="node24" class="node">
<title>n18</title>
<ellipse fill="#BEDA48" stroke="black" cx="2135.97" cy="-814.15" rx="190.84" ry="37.45"/>
<text text-anchor="middle" x="2135.97" y="-825.45" font-family="Times,serif" font-size="14.00">los</text>
<text text-anchor="middle" x="2135.97" y="-810.45" font-family="Times,serif" font-size="14.00">da0mp0 (det)</text>
<text text-anchor="middle" x="2135.97" y="-795.45" font-family="Times,serif" font-size="14.00">rep=no, t=yes, r=no, m=yes, c=no</text>
</g>
<!-- n19&#45;&gt;n18 -->
<g id="edge23" class="edge">
<title>n19&#45;&gt;n18</title>
<path fill="none" stroke="black" d="M2135.97,-887.52C2135.97,-879.35 2135.97,-870.57 2135.97,-862.04"/>
<polygon fill="black" stroke="black" points="2139.47,-861.82 2135.97,-851.82 2132.47,-861.82 2139.47,-861.82"/>
</g>
<!-- n24 -->
<g id="node25" class="node">
<title>n24</title>
<ellipse fill="#DA79E8" stroke="black" cx="2535.97" cy="-814.15" rx="190.84" ry="37.45"/>
<text text-anchor="middle" x="2535.97" y="-825.45" font-family="Times,serif" font-size="14.00">dos</text>
<text text-anchor="middle" x="2535.97" y="-810.45" font-family="Times,serif" font-size="14.00">dn0cp0 (det)</text>
<text text-anchor="middle" x="2535.97" y="-795.45" font-family="Times,serif" font-size="14.00">rep=no, t=no, r=yes, m=yes, c=no</text>
</g>
<!-- n25&#45;&gt;n24 -->
<g id="edge24" class="edge">
<title>n25&#45;&gt;n24</title>
<path fill="none" stroke="black" d="M2826.67,-894.33C2773.53,-879.86 2709.56,-862.43 2655.17,-847.62"/>
<polygon fill="black" stroke="black" points="2656.05,-844.23 2645.49,-844.98 2654.21,-850.99 2656.05,-844.23"/>
</g>
<!-- n26 -->
<g id="node26" class="node">
<title>n26</title>
<ellipse fill="#DA79E8" stroke="black" cx="2935.97" cy="-814.15" rx="190.84" ry="37.45"/>
<text text-anchor="middle" x="2935.97" y="-825.45" font-family="Times,serif" font-size="14.00">,</text>
<text text-anchor="middle" x="2935.97" y="-810.45" font-family="Times,serif" font-size="14.00">fc (punct)</text>
<text text-anchor="middle" x="2935.97" y="-795.45" font-family="Times,serif" font-size="14.00">rep=no, t=no, r=yes, m=yes, c=no</text>
</g>
<!-- n25&#45;&gt;n26 -->
<g id="edge25" class="edge">
<title>n25&#45;&gt;n26</title>
<path fill="none" stroke="black" d="M2935.97,-887.52C2935.97,-879.35 2935.97,-870.57 2935.97,-862.04"/>
<polygon fill="black" stroke="black" points="2939.47,-861.82 2935.97,-851.82 2932.47,-861.82 2939.47,-861.82"/>
</g>
<!-- n27 -->
<g id="node27" class="node">
<title>n27</title>
<ellipse fill="#DA79E8" stroke="black" cx="3340.97" cy="-814.15" rx="195.74" ry="37.45"/>
<text text-anchor="middle" x="3340.97" y="-825.45" font-family="Times,serif" font-size="14.00">una</text>
<text text-anchor="middle" x="3340.97" y="-810.45" font-family="Times,serif" font-size="14.00">pi0fs000 (dep)</text>
<text text-anchor="middle" x="3340.97" y="-795.45" font-family="Times,serif" font-size="14.00">rep=no, t=no, r=yes, m=yes, c=yes</text>
</g>
<!-- n25&#45;&gt;n27 -->
<g id="edge26" class="edge">
<title>n25&#45;&gt;n27</title>
<path fill="none" stroke="black" d="M3046.1,-894.48C3099.91,-880 3164.79,-862.55 3219.97,-847.7"/>
<polygon fill="black" stroke="black" points="3221.06,-851.03 3229.8,-845.06 3219.24,-844.27 3221.06,-851.03"/>
</g>
<!-- n38 -->
<g id="node28" class="node">
<title>n38</title>
<ellipse fill="#DA79E8" stroke="black" cx="3745.97" cy="-814.15" rx="190.84" ry="37.45"/>
<text text-anchor="middle" x="3745.97" y="-825.45" font-family="Times,serif" font-size="14.00">y</text>
<text text-anchor="middle" x="3745.97" y="-810.45" font-family="Times,serif" font-size="14.00">cc (coord_fixed)</text>
<text text-anchor="middle" x="3745.97" y="-795.45" font-family="Times,serif" font-size="14.00">rep=no, t=no, r=yes, m=yes, c=no</text>
</g>
<!-- n25&#45;&gt;n38 -->
<g id="edge27" class="edge">
<title>n25&#45;&gt;n38</title>
<path fill="none" stroke="black" d="M3068.83,-898.09C3091.18,-894.23 3114.19,-890.56 3135.97,-887.63 3317.25,-863.19 3364.69,-876.06 3545.97,-851.63 3564.51,-849.13 3583.95,-846.1 3603.12,-842.87"/>
<polygon fill="black" stroke="black" points="3603.84,-846.29 3613.11,-841.16 3602.67,-839.39 3603.84,-846.29"/>
</g>
<!-- n39 -->
<g id="node29" class="node">
<title>n39</title>
<ellipse fill="#DA79E8" stroke="black" cx="4150.97" cy="-814.15" rx="195.74" ry="37.45"/>
<text text-anchor="middle" x="4150.97" y="-825.45" font-family="Times,serif" font-size="14.00">otra</text>
<text text-anchor="middle" x="4150.97" y="-810.45" font-family="Times,serif" font-size="14.00">pi0fs000 (dep)</text>
<text text-anchor="middle" x="4150.97" y="-795.45" font-family="Times,serif" font-size="14.00">rep=no, t=no, r=yes, m=yes, c=yes</text>
</g>
<!-- n25&#45;&gt;n39 -->
<g id="edge28" class="edge">
<title>n25&#45;&gt;n39</title>
<path fill="none" stroke="black" d="M3066.3,-897.69C3089.43,-893.76 3113.35,-890.18 3135.97,-887.63 3494.05,-847.21 3587.8,-891.28 3945.97,-851.63 3965.81,-849.43 3986.62,-846.48 4007.08,-843.21"/>
<polygon fill="black" stroke="black" points="4007.77,-846.65 4017.08,-841.59 4006.65,-839.74 4007.77,-846.65"/>
</g>
<!-- n22 -->
<g id="node30" class="node">
<title>n22</title>
<ellipse fill="#DA79E8" stroke="black" cx="2535.97" cy="-703.2" rx="190.84" ry="37.45"/>
<text text-anchor="middle" x="2535.97" y="-714.5" font-family="Times,serif" font-size="14.00">en</text>
<text text-anchor="middle" x="2535.97" y="-699.5" font-family="Times,serif" font-size="14.00">sps00 (advmod)</text>
<text text-anchor="middle" x="2535.97" y="-684.5" font-family="Times,serif" font-size="14.00">rep=no, t=no, r=yes, m=yes, c=no</text>
</g>
<!-- n24&#45;&gt;n22 -->
<g id="edge29" class="edge">
<title>n24&#45;&gt;n22</title>
<path fill="none" stroke="black" d="M2535.97,-776.57C2535.97,-768.39 2535.97,-759.61 2535.97,-751.09"/>
<polygon fill="black" stroke="black" points="2539.47,-750.87 2535.97,-740.87 2532.47,-750.87 2539.47,-750.87"/>
</g>
<!-- n28 -->
<g id="node32" class="node">
<title>n28</title>
<ellipse fill="#DA79E8" stroke="black" cx="3340.97" cy="-703.2" rx="190.84" ry="37.45"/>
<text text-anchor="middle" x="3340.97" y="-714.5" font-family="Times,serif" font-size="14.00">por</text>
<text text-anchor="middle" x="3340.97" y="-699.5" font-family="Times,serif" font-size="14.00">sps00 (prepn)</text>
<text text-anchor="middle" x="3340.97" y="-684.5" font-family="Times,serif" font-size="14.00">rep=no, t=no, r=yes, m=yes, c=no</text>
</g>
<!-- n27&#45;&gt;n28 -->
<g id="edge31" class="edge">
<title>n27&#45;&gt;n28</title>
<path fill="none" stroke="black" d="M3340.97,-776.57C3340.97,-768.39 3340.97,-759.61 3340.97,-751.09"/>
<polygon fill="black" stroke="black" points="3344.47,-750.87 3340.97,-740.87 3337.47,-750.87 3344.47,-750.87"/>
</g>
<!-- n40 -->
<g id="node42" class="node">
<title>n40</title>
<ellipse fill="#DA79E8" stroke="black" cx="4150.97" cy="-703.2" rx="190.84" ry="37.45"/>
<text text-anchor="middle" x="4150.97" y="-714.5" font-family="Times,serif" font-size="14.00">para</text>
<text text-anchor="middle" x="4150.97" y="-699.5" font-family="Times,serif" font-size="14.00">sps00 (prepn)</text>
<text text-anchor="middle" x="4150.97" y="-684.5" font-family="Times,serif" font-size="14.00">rep=no, t=no, r=yes, m=yes, c=no</text>
</g>
<!-- n39&#45;&gt;n40 -->
<g id="edge41" class="edge">
<title>n39&#45;&gt;n40</title>
<path fill="none" stroke="black" d="M4150.97,-776.57C4150.97,-768.39 4150.97,-759.61 4150.97,-751.09"/>
<polygon fill="black" stroke="black" points="4154.47,-750.87 4150.97,-740.87 4147.47,-750.87 4154.47,-750.87"/>
</g>
<!-- n23 -->
<g id="node31" class="node">
<title>n23</title>
<ellipse fill="#DA79E8" stroke="black" cx="2535.97" cy="-592.24" rx="190.84" ry="37.45"/>
<text text-anchor="middle" x="2535.97" y="-603.54" font-family="Times,serif" font-size="14.00">paralelo</text>
<text text-anchor="middle" x="2535.97" y="-588.54" font-family="Times,serif" font-size="14.00">aq0msp (pobj)</text>
<text text-anchor="middle" x="2535.97" y="-573.54" font-family="Times,serif" font-size="14.00">rep=no, t=no, r=yes, m=yes, c=no</text>
</g>
<!-- n22&#45;&gt;n23 -->
<g id="edge30" class="edge">
<title>n22&#45;&gt;n23</title>
<path fill="none" stroke="black" d="M2535.97,-665.61C2535.97,-657.44 2535.97,-648.66 2535.97,-640.13"/>
<polygon fill="black" stroke="black" points="2539.47,-639.92 2535.97,-629.92 2532.47,-639.92 2539.47,-639.92"/>
</g>
<!-- n30 -->
<g id="node33" class="node">
<title>n30</title>
<ellipse fill="#DA79E8" stroke="black" cx="3340.97" cy="-592.24" rx="190.84" ry="37.45"/>
<text text-anchor="middle" x="3340.97" y="-603.54" font-family="Times,serif" font-size="14.00">independencia</text>
<text text-anchor="middle" x="3340.97" y="-588.54" font-family="Times,serif" font-size="14.00">ncfs000 (pobj)</text>
<text text-anchor="middle" x="3340.97" y="-573.54" font-family="Times,serif" font-size="14.00">rep=no, t=no, r=yes, m=yes, c=no</text>
</g>
<!-- n28&#45;&gt;n30 -->
<g id="edge32" class="edge">
<title>n28&#45;&gt;n30</title>
<path fill="none" stroke="black" d="M3340.97,-665.61C3340.97,-657.44 3340.97,-648.66 3340.97,-640.13"/>
<polygon fill="black" stroke="black" points="3344.47,-639.92 3340.97,-629.92 3337.47,-639.92 3344.47,-639.92"/>
</g>
<!-- n29 -->
<g id="node34" class="node">
<title>n29</title>
<ellipse fill="#DA79E8" stroke="black" cx="2549.97" cy="-481.29" rx="190.84" ry="37.45"/>
<text text-anchor="middle" x="2549.97" y="-492.59" font-family="Times,serif" font-size="14.00">su</text>
<text text-anchor="middle" x="2549.97" y="-477.59" font-family="Times,serif" font-size="14.00">dp3cs0 (poss)</text>
<text text-anchor="middle" x="2549.97" y="-462.59" font-family="Times,serif" font-size="14.00">rep=no, t=no, r=yes, m=yes, c=no</text>
</g>
<!-- n30&#45;&gt;n29 -->
<g id="edge33" class="edge">
<title>n30&#45;&gt;n29</title>
<path fill="none" stroke="black" d="M3175.35,-573.55C3056.67,-560.23 2893.17,-540.59 2749.97,-518.77 2732,-516.03 2713.17,-512.92 2694.55,-509.69"/>
<polygon fill="black" stroke="black" points="2694.99,-506.21 2684.54,-507.94 2693.78,-513.11 2694.99,-506.21"/>
</g>
<!-- n31 -->
<g id="node35" class="node">
<title>n31</title>
<ellipse fill="#DA79E8" stroke="black" cx="2949.97" cy="-481.29" rx="190.84" ry="37.45"/>
<text text-anchor="middle" x="2949.97" y="-492.59" font-family="Times,serif" font-size="14.00">,</text>
<text text-anchor="middle" x="2949.97" y="-477.59" font-family="Times,serif" font-size="14.00">fc (punct)</text>
<text text-anchor="middle" x="2949.97" y="-462.59" font-family="Times,serif" font-size="14.00">rep=no, t=no, r=yes, m=yes, c=no</text>
</g>
<!-- n30&#45;&gt;n31 -->
<g id="edge34" class="edge">
<title>n30&#45;&gt;n31</title>
<path fill="none" stroke="black" d="M3233.35,-561.26C3181.85,-546.9 3120.07,-529.69 3067.36,-515"/>
<polygon fill="black" stroke="black" points="3068.2,-511.6 3057.63,-512.29 3066.32,-518.35 3068.2,-511.6"/>
</g>
<!-- n36 -->
<g id="node36" class="node">
<title>n36</title>
<ellipse fill="none" stroke="black" cx="3344.97" cy="-481.29" rx="185.94" ry="37.45"/>
<text text-anchor="middle" x="3344.97" y="-492.59" font-family="Times,serif" font-size="14.00">sostiene</text>
<text text-anchor="middle" x="3344.97" y="-477.59" font-family="Times,serif" font-size="14.00">vmip3s0 (rcmod)</text>
<text text-anchor="middle" x="3344.97" y="-462.59" font-family="Times,serif" font-size="14.00">rep=no, t=no, r=no, m=yes, c=no</text>
</g>
<!-- n30&#45;&gt;n36 -->
<g id="edge35" class="edge">
<title>n30&#45;&gt;n36</title>
<path fill="none" stroke="black" d="M3342.31,-554.66C3342.61,-546.49 3342.93,-537.71 3343.25,-529.18"/>
<polygon fill="black" stroke="black" points="3346.75,-529.08 3343.62,-518.96 3339.76,-528.83 3346.75,-529.08"/>
</g>
<!-- n37 -->
<g id="node37" class="node">
<title>n37</title>
<ellipse fill="#DA79E8" stroke="black" cx="3739.97" cy="-481.29" rx="190.84" ry="37.45"/>
<text text-anchor="middle" x="3739.97" y="-492.59" font-family="Times,serif" font-size="14.00">,</text>
<text text-anchor="middle" x="3739.97" y="-477.59" font-family="Times,serif" font-size="14.00">fc (punct)</text>
<text text-anchor="middle" x="3739.97" y="-462.59" font-family="Times,serif" font-size="14.00">rep=no, t=no, r=yes, m=yes, c=no</text>
</g>
<!-- n30&#45;&gt;n37 -->
<g id="edge36" class="edge">
<title>n30&#45;&gt;n37</title>
<path fill="none" stroke="black" d="M3450,-561.47C3503,-547 3566.81,-529.57 3621.06,-514.76"/>
<polygon fill="black" stroke="black" points="3622,-518.13 3630.73,-512.12 3620.16,-511.38 3622,-518.13"/>
</g>
<!-- n32 -->
<g id="node38" class="node">
<title>n32</title>
<ellipse fill="none" stroke="black" cx="3149.97" cy="-370.34" rx="185.94" ry="37.45"/>
<text text-anchor="middle" x="3149.97" y="-381.64" font-family="Times,serif" font-size="14.00">que</text>
<text text-anchor="middle" x="3149.97" y="-366.64" font-family="Times,serif" font-size="14.00">pr0cn000 (dobj)</text>
<text text-anchor="middle" x="3149.97" y="-351.64" font-family="Times,serif" font-size="14.00">rep=no, t=no, r=no, m=yes, c=no</text>
</g>
<!-- n36&#45;&gt;n32 -->
<g id="edge37" class="edge">
<title>n36&#45;&gt;n32</title>
<path fill="none" stroke="black" d="M3283.27,-445.82C3263.34,-434.68 3241.1,-422.26 3220.58,-410.79"/>
<polygon fill="black" stroke="black" points="3222.04,-407.59 3211.6,-405.77 3218.62,-413.71 3222.04,-407.59"/>
</g>
<!-- n34 -->
<g id="node39" class="node">
<title>n34</title>
<ellipse fill="none" stroke="black" cx="3539.97" cy="-370.34" rx="185.94" ry="37.45"/>
<text text-anchor="middle" x="3539.97" y="-381.64" font-family="Times,serif" font-size="14.00">persona</text>
<text text-anchor="middle" x="3539.97" y="-366.64" font-family="Times,serif" font-size="14.00">ncfs000 (nsubj)</text>
<text text-anchor="middle" x="3539.97" y="-351.64" font-family="Times,serif" font-size="14.00">rep=no, t=no, r=no, m=yes, c=no</text>
</g>
<!-- n36&#45;&gt;n34 -->
<g id="edge38" class="edge">
<title>n36&#45;&gt;n34</title>
<path fill="none" stroke="black" d="M3406.67,-445.82C3426.59,-434.68 3448.84,-422.26 3469.35,-410.79"/>
<polygon fill="black" stroke="black" points="3471.31,-413.71 3478.34,-405.77 3467.9,-407.59 3471.31,-413.71"/>
</g>
<!-- n33 -->
<g id="node40" class="node">
<title>n33</title>
<ellipse fill="none" stroke="black" cx="3344.97" cy="-259.38" rx="185.94" ry="37.45"/>
<text text-anchor="middle" x="3344.97" y="-270.68" font-family="Times,serif" font-size="14.00">toda</text>
<text text-anchor="middle" x="3344.97" y="-255.68" font-family="Times,serif" font-size="14.00">di0fs0 (det)</text>
<text text-anchor="middle" x="3344.97" y="-240.68" font-family="Times,serif" font-size="14.00">rep=no, t=no, r=no, m=yes, c=no</text>
</g>
<!-- n34&#45;&gt;n33 -->
<g id="edge39" class="edge">
<title>n34&#45;&gt;n33</title>
<path fill="none" stroke="black" d="M3478.27,-334.86C3458.34,-323.73 3436.1,-311.3 3415.58,-299.84"/>
<polygon fill="black" stroke="black" points="3417.04,-296.64 3406.6,-294.82 3413.62,-302.75 3417.04,-296.64"/>
</g>
<!-- n35 -->
<g id="node41" class="node">
<title>n35</title>
<ellipse fill="none" stroke="black" cx="3734.97" cy="-259.38" rx="185.94" ry="37.45"/>
<text text-anchor="middle" x="3734.97" y="-270.68" font-family="Times,serif" font-size="14.00">sensata</text>
<text text-anchor="middle" x="3734.97" y="-255.68" font-family="Times,serif" font-size="14.00">aq0fs0 (amod)</text>
<text text-anchor="middle" x="3734.97" y="-240.68" font-family="Times,serif" font-size="14.00">rep=no, t=no, r=no, m=yes, c=no</text>
</g>
<!-- n34&#45;&gt;n35 -->
<g id="edge40" class="edge">
<title>n34&#45;&gt;n35</title>
<path fill="none" stroke="black" d="M3601.67,-334.86C3621.59,-323.73 3643.84,-311.3 3664.35,-299.84"/>
<polygon fill="black" stroke="black" points="3666.31,-302.75 3673.34,-294.82 3662.9,-296.64 3666.31,-302.75"/>
</g>
<!-- n41 -->
<g id="node43" class="node">
<title>n41</title>
<ellipse fill="#DA79E8" stroke="black" cx="4150.97" cy="-592.24" rx="190.84" ry="37.45"/>
<text text-anchor="middle" x="4150.97" y="-603.54" font-family="Times,serif" font-size="14.00">destruir</text>
<text text-anchor="middle" x="4150.97" y="-588.54" font-family="Times,serif" font-size="14.00">vmn0000 (pobj)</text>
<text text-anchor="middle" x="4150.97" y="-573.54" font-family="Times,serif" font-size="14.00">rep=no, t=no, r=yes, m=yes, c=no</text>
</g>
<!-- n40&#45;&gt;n41 -->
<g id="edge42" class="edge">
<title>n40&#45;&gt;n41</title>
<path fill="none" stroke="black" d="M4150.97,-665.61C4150.97,-657.44 4150.97,-648.66 4150.97,-640.13"/>
<polygon fill="black" stroke="black" points="4154.47,-639.92 4150.97,-629.92 4147.47,-639.92 4154.47,-639.92"/>
</g>
<!-- n42 -->
<g id="node44" class="node">
<title>n42</title>
<ellipse fill="#DA79E8" stroke="black" cx="4146.97" cy="-481.29" rx="190.84" ry="37.45"/>
<text text-anchor="middle" x="4146.97" y="-492.59" font-family="Times,serif" font-size="14.00">Israel</text>
<text text-anchor="middle" x="4146.97" y="-477.59" font-family="Times,serif" font-size="14.00">np00000 (dobj)</text>
<text text-anchor="middle" x="4146.97" y="-462.59" font-family="Times,serif" font-size="14.00">rep=no, t=no, r=yes, m=yes, c=no</text>
</g>
<!-- n41&#45;&gt;n42 -->
<g id="edge43" class="edge">
<title>n41&#45;&gt;n42</title>
<path fill="none" stroke="black" d="M4149.63,-554.66C4149.33,-546.49 4149,-537.71 4148.69,-529.18"/>
<polygon fill="black" stroke="black" points="4152.18,-528.83 4148.32,-518.96 4145.18,-529.08 4152.18,-528.83"/>
</g>
<!-- n43 -->
<g id="node45" class="node">
<title>n43</title>
<ellipse fill="#DA79E8" stroke="black" cx="4546.97" cy="-481.29" rx="190.84" ry="37.45"/>
<text text-anchor="middle" x="4546.97" y="-492.59" font-family="Times,serif" font-size="14.00">en</text>
<text text-anchor="middle" x="4546.97" y="-477.59" font-family="Times,serif" font-size="14.00">sps00 (prepv)</text>
<text text-anchor="middle" x="4546.97" y="-462.59" font-family="Times,serif" font-size="14.00">rep=no, t=no, r=yes, m=yes, c=no</text>
</g>
<!-- n41&#45;&gt;n43 -->
<g id="edge44" class="edge">
<title>n41&#45;&gt;n43</title>
<path fill="none" stroke="black" d="M4259.44,-561.4C4311.82,-546.99 4374.8,-529.66 4428.44,-514.9"/>
<polygon fill="black" stroke="black" points="4429.63,-518.2 4438.34,-512.18 4427.77,-511.46 4429.63,-518.2"/>
</g>
<!-- n44 -->
<g id="node46" class="node">
<title>n44</title>
<ellipse fill="#DA79E8" stroke="black" cx="4546.97" cy="-370.34" rx="190.84" ry="37.45"/>
<text text-anchor="middle" x="4546.97" y="-381.64" font-family="Times,serif" font-size="14.00">nombre</text>
<text text-anchor="middle" x="4546.97" y="-366.64" font-family="Times,serif" font-size="14.00">ncfs000 (pobj)</text>
<text text-anchor="middle" x="4546.97" y="-351.64" font-family="Times,serif" font-size="14.00">rep=no, t=no, r=yes, m=yes, c=no</text>
</g>
<!-- n43&#45;&gt;n44 -->
<g id="edge45" class="edge">
<title>n43&#45;&gt;n44</title>
<path fill="none" stroke="black" d="M4546.97,-443.71C4546.97,-435.53 4546.97,-426.75 4546.97,-418.23"/>
<polygon fill="black" stroke="black" points="4550.47,-418.01 4546.97,-408.01 4543.47,-418.01 4550.47,-418.01"/>
</g>
<!-- n45 -->
<g id="node47" class="node">
<title>n45</title>
<ellipse fill="#DA79E8" stroke="black" cx="4546.97" cy="-259.38" rx="190.84" ry="37.45"/>
<text text-anchor="middle" x="4546.97" y="-270.68" font-family="Times,serif" font-size="14.00">de</text>
<text text-anchor="middle" x="4546.97" y="-255.68" font-family="Times,serif" font-size="14.00">sps00 (prepn)</text>
<text text-anchor="middle" x="4546.97" y="-240.68" font-family="Times,serif" font-size="14.00">rep=no, t=no, r=yes, m=yes, c=no</text>
</g>
<!-- n44&#45;&gt;n45 -->
<g id="edge46" class="edge">
<title>n44&#45;&gt;n45</title>
<path fill="none" stroke="black" d="M4546.97,-332.75C4546.97,-324.58 4546.97,-315.8 4546.97,-307.27"/>
<polygon fill="black" stroke="black" points="4550.47,-307.06 4546.97,-297.06 4543.47,-307.06 4550.47,-307.06"/>
</g>
<!-- n47 -->
<g id="node48" class="node">
<title>n47</title>
<ellipse fill="#DA79E8" stroke="black" cx="4546.97" cy="-148.43" rx="190.84" ry="37.45"/>
<text text-anchor="middle" x="4546.97" y="-159.73" font-family="Times,serif" font-size="14.00">islam</text>
<text text-anchor="middle" x="4546.97" y="-144.73" font-family="Times,serif" font-size="14.00">ncmn000 (pobj)</text>
<text text-anchor="middle" x="4546.97" y="-129.73" font-family="Times,serif" font-size="14.00">rep=no, t=no, r=yes, m=yes, c=no</text>
</g>
<!-- n45&#45;&gt;n47 -->
<g id="edge47" class="edge">
<title>n45&#45;&gt;n47</title>
<path fill="none" stroke="black" d="M4546.97,-221.8C4546.97,-213.63 4546.97,-204.85 4546.97,-196.32"/>
<polygon fill="black" stroke="black" points="4550.47,-196.1 4546.97,-186.1 4543.47,-196.1 4550.47,-196.1"/>
</g>
<!-- n46 -->
<g id="node49" class="node">
<title>n46</title>
<ellipse fill="#DA79E8" stroke="black" cx="4346.97" cy="-37.48" rx="190.84" ry="37.45"/>
<text text-anchor="middle" x="4346.97" y="-48.78" font-family="Times,serif" font-size="14.00">un</text>
<text text-anchor="middle" x="4346.97" y="-33.78" font-family="Times,serif" font-size="14.00">di0ms0 (det)</text>
<text text-anchor="middle" x="4346.97" y="-18.78" font-family="Times,serif" font-size="14.00">rep=no, t=no, r=yes, m=yes, c=no</text>
</g>
<!-- n47&#45;&gt;n46 -->
<g id="edge48" class="edge">
<title>n47&#45;&gt;n46</title>
<path fill="none" stroke="black" d="M4483.69,-112.96C4463.16,-101.77 4440.23,-89.28 4419.11,-77.78"/>
<polygon fill="black" stroke="black" points="4420.64,-74.62 4410.18,-72.91 4417.29,-80.77 4420.64,-74.62"/>
</g>
<!-- n48 -->
<g id="node50" class="node">
<title>n48</title>
<ellipse fill="#DA79E8" stroke="black" cx="4746.97" cy="-37.48" rx="190.84" ry="37.45"/>
<text text-anchor="middle" x="4746.97" y="-48.78" font-family="Times,serif" font-size="14.00">fanático</text>
<text text-anchor="middle" x="4746.97" y="-33.78" font-family="Times,serif" font-size="14.00">aq0ms0 (amod)</text>
<text text-anchor="middle" x="4746.97" y="-18.78" font-family="Times,serif" font-size="14.00">rep=no, t=no, r=yes, m=yes, c=no</text>
</g>
<!-- n47&#45;&gt;n48 -->
<g id="edge49" class="edge">
<title>n47&#45;&gt;n48</title>
<path fill="none" stroke="black" d="M4610.25,-112.96C4630.78,-101.77 4653.7,-89.28 4674.83,-77.78"/>
<polygon fill="black" stroke="black" points="4676.65,-80.77 4683.76,-72.91 4673.3,-74.62 4676.65,-80.77"/>
</g>
</g>
</svg>
