<?xml version="1.0" encoding="UTF-8" standalone="no"?>
<!DOCTYPE svg PUBLIC "-//W3C//DTD SVG 1.1//EN"
 "http://www.w3.org/Graphics/SVG/1.1/DTD/svg11.dtd">
<!-- Generated by graphviz version 2.43.0 (0)
 -->
<!-- Title: tree Pages: 1 -->
<svg width="2381pt" height="527pt"
 viewBox="0.00 0.00 2380.65 526.77" xmlns="http://www.w3.org/2000/svg" xmlns:xlink="http://www.w3.org/1999/xlink">
<g id="graph0" class="graph" transform="scale(1 1) rotate(0) translate(4 522.77)">
<title>tree</title>
<polygon fill="white" stroke="transparent" points="-4,4 -4,-522.77 2376.65,-522.77 2376.65,4 -4,4"/>
<!-- n10 -->
<g id="node1" class="node">
<title>n10</title>
<ellipse fill="#DA79E8" stroke="black" cx="1394.92" cy="-481.29" rx="190.84" ry="37.45"/>
<text text-anchor="middle" x="1394.92" y="-492.59" font-family="Times,serif" font-size="14.00">centraron</text>
<text text-anchor="middle" x="1394.92" y="-477.59" font-family="Times,serif" font-size="14.00">vmis3p0 (root)</text>
<text text-anchor="middle" x="1394.92" y="-462.59" font-family="Times,serif" font-size="14.00">rep=no, t=no, r=yes, m=yes, c=no</text>
</g>
<!-- n2 -->
<g id="node2" class="node">
<title>n2</title>
<ellipse fill="#BEDA48" stroke="black" cx="584.92" cy="-370.34" rx="195.74" ry="37.45"/>
<text text-anchor="middle" x="584.92" y="-381.64" font-family="Times,serif" font-size="14.00">Cumbre</text>
<text text-anchor="middle" x="584.92" y="-366.64" font-family="Times,serif" font-size="14.00">np00000 (nsubj)</text>
<text text-anchor="middle" x="584.92" y="-351.64" font-family="Times,serif" font-size="14.00">rep=no, t=yes, r=no, m=yes, c=yes</text>
</g>
<!-- n10&#45;&gt;n2 -->
<g id="edge1" class="edge">
<title>n10&#45;&gt;n2</title>
<path fill="none" stroke="black" d="M1228.31,-462.91C1106.6,-449.59 937.72,-429.8 789.92,-407.81 771.42,-405.06 752.03,-401.93 732.86,-398.69"/>
<polygon fill="black" stroke="black" points="733.3,-395.22 722.86,-396.99 732.13,-402.12 733.3,-395.22"/>
</g>
<!-- n6 -->
<g id="node3" class="node">
<title>n6</title>
<ellipse fill="#BEDA48" stroke="black" cx="989.92" cy="-370.34" rx="190.84" ry="37.45"/>
<text text-anchor="middle" x="989.92" y="-381.64" font-family="Times,serif" font-size="14.00">y</text>
<text text-anchor="middle" x="989.92" y="-366.64" font-family="Times,serif" font-size="14.00">cc (coord_fixed)</text>
<text text-anchor="middle" x="989.92" y="-351.64" font-family="Times,serif" font-size="14.00">rep=no, t=yes, r=no, m=yes, c=no</text>
</g>
<!-- n10&#45;&gt;n6 -->
<g id="edge2" class="edge">
<title>n10&#45;&gt;n6</title>
<path fill="none" stroke="black" d="M1284.79,-450.66C1230.65,-436.1 1165.3,-418.52 1109.9,-403.61"/>
<polygon fill="black" stroke="black" points="1110.6,-400.18 1100.03,-400.96 1108.78,-406.94 1110.6,-400.18"/>
</g>
<!-- n8 -->
<g id="node4" class="node">
<title>n8</title>
<ellipse fill="#BEDA48" stroke="black" cx="1394.92" cy="-370.34" rx="195.74" ry="37.45"/>
<text text-anchor="middle" x="1394.92" y="-381.64" font-family="Times,serif" font-size="14.00">elecciones</text>
<text text-anchor="middle" x="1394.92" y="-366.64" font-family="Times,serif" font-size="14.00">ncfp000 (nsubj)</text>
<text text-anchor="middle" x="1394.92" y="-351.64" font-family="Times,serif" font-size="14.00">rep=no, t=yes, r=no, m=yes, c=yes</text>
</g>
<!-- n10&#45;&gt;n8 -->
<g id="edge3" class="edge">
<title>n10&#45;&gt;n8</title>
<path fill="none" stroke="black" d="M1394.92,-443.71C1394.92,-435.53 1394.92,-426.75 1394.92,-418.23"/>
<polygon fill="black" stroke="black" points="1398.42,-418.01 1394.92,-408.01 1391.42,-418.01 1398.42,-418.01"/>
</g>
<!-- n12 -->
<g id="node5" class="node">
<title>n12</title>
<ellipse fill="#DA79E8" stroke="black" cx="1799.92" cy="-370.34" rx="190.84" ry="37.45"/>
<text text-anchor="middle" x="1799.92" y="-381.64" font-family="Times,serif" font-size="14.00">cita</text>
<text text-anchor="middle" x="1799.92" y="-366.64" font-family="Times,serif" font-size="14.00">ncfs000 (dobj)</text>
<text text-anchor="middle" x="1799.92" y="-351.64" font-family="Times,serif" font-size="14.00">rep=no, t=no, r=yes, m=yes, c=no</text>
</g>
<!-- n10&#45;&gt;n12 -->
<g id="edge4" class="edge">
<title>n10&#45;&gt;n12</title>
<path fill="none" stroke="black" d="M1505.05,-450.66C1559.19,-436.1 1624.54,-418.52 1679.94,-403.61"/>
<polygon fill="black" stroke="black" points="1681.06,-406.94 1689.81,-400.96 1679.24,-400.18 1681.06,-406.94"/>
</g>
<!-- n13 -->
<g id="node6" class="node">
<title>n13</title>
<ellipse fill="none" stroke="black" cx="2190.92" cy="-370.34" rx="181.95" ry="37.45"/>
<text text-anchor="middle" x="2190.92" y="-381.64" font-family="Times,serif" font-size="14.00">.</text>
<text text-anchor="middle" x="2190.92" y="-366.64" font-family="Times,serif" font-size="14.00">fp (punct)</text>
<text text-anchor="middle" x="2190.92" y="-351.64" font-family="Times,serif" font-size="14.00">rep=no, t=no, r=no, m=no, c=no</text>
</g>
<!-- n10&#45;&gt;n13 -->
<g id="edge5" class="edge">
<title>n10&#45;&gt;n13</title>
<path fill="none" stroke="black" d="M1562.91,-463.33C1684.56,-450.28 1852.79,-430.65 1999.92,-407.81 2017.16,-405.14 2035.22,-402.06 2053.07,-398.84"/>
<polygon fill="black" stroke="black" points="2053.75,-402.28 2062.96,-397.04 2052.5,-395.39 2053.75,-402.28"/>
</g>
<!-- n1 -->
<g id="node7" class="node">
<title>n1</title>
<ellipse fill="#BEDA48" stroke="black" cx="190.92" cy="-259.38" rx="190.84" ry="37.45"/>
<text text-anchor="middle" x="190.92" y="-270.68" font-family="Times,serif" font-size="14.00">La</text>
<text text-anchor="middle" x="190.92" y="-255.68" font-family="Times,serif" font-size="14.00">da0fs0 (det)</text>
<text text-anchor="middle" x="190.92" y="-240.68" font-family="Times,serif" font-size="14.00">rep=no, t=yes, r=no, m=yes, c=no</text>
</g>
<!-- n2&#45;&gt;n1 -->
<g id="edge6" class="edge">
<title>n2&#45;&gt;n1</title>
<path fill="none" stroke="black" d="M475.69,-339.13C423.91,-324.81 361.97,-307.68 309.1,-293.06"/>
<polygon fill="black" stroke="black" points="309.91,-289.66 299.34,-290.36 308.04,-296.4 309.91,-289.66"/>
</g>
<!-- n3 -->
<g id="node8" class="node">
<title>n3</title>
<ellipse fill="#BEDA48" stroke="black" cx="590.92" cy="-259.38" rx="190.84" ry="37.45"/>
<text text-anchor="middle" x="590.92" y="-270.68" font-family="Times,serif" font-size="14.00">de</text>
<text text-anchor="middle" x="590.92" y="-255.68" font-family="Times,serif" font-size="14.00">sps00 (prepn)</text>
<text text-anchor="middle" x="590.92" y="-240.68" font-family="Times,serif" font-size="14.00">rep=no, t=yes, r=no, m=yes, c=no</text>
</g>
<!-- n2&#45;&gt;n3 -->
<g id="edge7" class="edge">
<title>n2&#45;&gt;n3</title>
<path fill="none" stroke="black" d="M586.93,-332.75C587.38,-324.58 587.87,-315.8 588.34,-307.27"/>
<polygon fill="black" stroke="black" points="591.84,-307.23 588.9,-297.06 584.85,-306.85 591.84,-307.23"/>
</g>
<!-- n7 -->
<g id="node11" class="node">
<title>n7</title>
<ellipse fill="#BEDA48" stroke="black" cx="997.92" cy="-259.38" rx="190.84" ry="37.45"/>
<text text-anchor="middle" x="997.92" y="-270.68" font-family="Times,serif" font-size="14.00">las</text>
<text text-anchor="middle" x="997.92" y="-255.68" font-family="Times,serif" font-size="14.00">da0fp0 (det)</text>
<text text-anchor="middle" x="997.92" y="-240.68" font-family="Times,serif" font-size="14.00">rep=no, t=yes, r=no, m=yes, c=no</text>
</g>
<!-- n8&#45;&gt;n7 -->
<g id="edge10" class="edge">
<title>n8&#45;&gt;n7</title>
<path fill="none" stroke="black" d="M1285.12,-339.2C1232.73,-324.83 1169.96,-307.6 1116.48,-292.92"/>
<polygon fill="black" stroke="black" points="1117.18,-289.48 1106.61,-290.21 1115.33,-296.24 1117.18,-289.48"/>
</g>
<!-- n9 -->
<g id="node12" class="node">
<title>n9</title>
<ellipse fill="#BEDA48" stroke="black" cx="1397.92" cy="-259.38" rx="190.84" ry="37.45"/>
<text text-anchor="middle" x="1397.92" y="-270.68" font-family="Times,serif" font-size="14.00">catalanas</text>
<text text-anchor="middle" x="1397.92" y="-255.68" font-family="Times,serif" font-size="14.00">aq0fp0 (amod)</text>
<text text-anchor="middle" x="1397.92" y="-240.68" font-family="Times,serif" font-size="14.00">rep=no, t=yes, r=no, m=yes, c=no</text>
</g>
<!-- n8&#45;&gt;n9 -->
<g id="edge11" class="edge">
<title>n8&#45;&gt;n9</title>
<path fill="none" stroke="black" d="M1395.93,-332.75C1396.15,-324.58 1396.39,-315.8 1396.63,-307.27"/>
<polygon fill="black" stroke="black" points="1400.13,-307.15 1396.91,-297.06 1393.14,-306.96 1400.13,-307.15"/>
</g>
<!-- n11 -->
<g id="node13" class="node">
<title>n11</title>
<ellipse fill="#DA79E8" stroke="black" cx="1799.92" cy="-259.38" rx="190.84" ry="37.45"/>
<text text-anchor="middle" x="1799.92" y="-270.68" font-family="Times,serif" font-size="14.00">la</text>
<text text-anchor="middle" x="1799.92" y="-255.68" font-family="Times,serif" font-size="14.00">da0fs0 (det)</text>
<text text-anchor="middle" x="1799.92" y="-240.68" font-family="Times,serif" font-size="14.00">rep=no, t=no, r=yes, m=yes, c=no</text>
</g>
<!-- n12&#45;&gt;n11 -->
<g id="edge12" class="edge">
<title>n12&#45;&gt;n11</title>
<path fill="none" stroke="black" d="M1799.92,-332.75C1799.92,-324.58 1799.92,-315.8 1799.92,-307.27"/>
<polygon fill="black" stroke="black" points="1803.42,-307.06 1799.92,-297.06 1796.42,-307.06 1803.42,-307.06"/>
</g>
<!-- n5 -->
<g id="node9" class="node">
<title>n5</title>
<ellipse fill="#BEDA48" stroke="black" cx="590.92" cy="-148.43" rx="190.84" ry="37.45"/>
<text text-anchor="middle" x="590.92" y="-159.73" font-family="Times,serif" font-size="14.00">Habana</text>
<text text-anchor="middle" x="590.92" y="-144.73" font-family="Times,serif" font-size="14.00">np00000 (pobj)</text>
<text text-anchor="middle" x="590.92" y="-129.73" font-family="Times,serif" font-size="14.00">rep=no, t=yes, r=no, m=yes, c=no</text>
</g>
<!-- n3&#45;&gt;n5 -->
<g id="edge8" class="edge">
<title>n3&#45;&gt;n5</title>
<path fill="none" stroke="black" d="M590.92,-221.8C590.92,-213.63 590.92,-204.85 590.92,-196.32"/>
<polygon fill="black" stroke="black" points="594.42,-196.1 590.92,-186.1 587.42,-196.1 594.42,-196.1"/>
</g>
<!-- n4 -->
<g id="node10" class="node">
<title>n4</title>
<ellipse fill="#BEDA48" stroke="black" cx="590.92" cy="-37.48" rx="190.84" ry="37.45"/>
<text text-anchor="middle" x="590.92" y="-48.78" font-family="Times,serif" font-size="14.00">La</text>
<text text-anchor="middle" x="590.92" y="-33.78" font-family="Times,serif" font-size="14.00">da0fs0 (det)</text>
<text text-anchor="middle" x="590.92" y="-18.78" font-family="Times,serif" font-size="14.00">rep=no, t=yes, r=no, m=yes, c=no</text>
</g>
<!-- n5&#45;&gt;n4 -->
<g id="edge9" class="edge">
<title>n5&#45;&gt;n4</title>
<path fill="none" stroke="black" d="M590.92,-110.85C590.92,-102.67 590.92,-93.89 590.92,-85.37"/>
<polygon fill="black" stroke="black" points="594.42,-85.15 590.92,-75.15 587.42,-85.15 594.42,-85.15"/>
</g>
</g>
</svg>
