<?xml version="1.0" encoding="UTF-8" standalone="no"?>
<!DOCTYPE svg PUBLIC "-//W3C//DTD SVG 1.1//EN"
 "http://www.w3.org/Graphics/SVG/1.1/DTD/svg11.dtd">
<!-- Generated by graphviz version 2.43.0 (0)
 -->
<!-- Title: tree Pages: 1 -->
<svg width="3325pt" height="416pt"
 viewBox="0.00 0.00 3324.65 415.81" xmlns="http://www.w3.org/2000/svg" xmlns:xlink="http://www.w3.org/1999/xlink">
<g id="graph0" class="graph" transform="scale(1 1) rotate(0) translate(4 411.81)">
<title>tree</title>
<polygon fill="white" stroke="transparent" points="-4,4 -4,-411.81 3320.65,-411.81 3320.65,4 -4,4"/>
<!-- n12 -->
<g id="node1" class="node">
<title>n12</title>
<ellipse fill="#DA79E8" stroke="black" cx="1747.92" cy="-370.34" rx="190.84" ry="37.45"/>
<text text-anchor="middle" x="1747.92" y="-381.64" font-family="Times,serif" font-size="14.00">hizo</text>
<text text-anchor="middle" x="1747.92" y="-366.64" font-family="Times,serif" font-size="14.00">vmis3s0 (root)</text>
<text text-anchor="middle" x="1747.92" y="-351.64" font-family="Times,serif" font-size="14.00">rep=no, t=no, r=yes, m=yes, c=no</text>
</g>
<!-- n2 -->
<g id="node2" class="node">
<title>n2</title>
<ellipse fill="#BEDA48" stroke="black" cx="399.92" cy="-259.38" rx="190.84" ry="37.45"/>
<text text-anchor="middle" x="399.92" y="-270.68" font-family="Times,serif" font-size="14.00">contenido</text>
<text text-anchor="middle" x="399.92" y="-255.68" font-family="Times,serif" font-size="14.00">ncms000 (nsubj)</text>
<text text-anchor="middle" x="399.92" y="-240.68" font-family="Times,serif" font-size="14.00">rep=no, t=yes, r=no, m=yes, c=no</text>
</g>
<!-- n12&#45;&gt;n2 -->
<g id="edge1" class="edge">
<title>n12&#45;&gt;n2</title>
<path fill="none" stroke="black" d="M1559.38,-364.22C1331.41,-356.46 936.41,-338.02 599.92,-296.86 580.89,-294.53 560.93,-291.55 541.29,-288.3"/>
<polygon fill="black" stroke="black" points="541.81,-284.83 531.37,-286.62 540.65,-291.74 541.81,-284.83"/>
</g>
<!-- n5 -->
<g id="node3" class="node">
<title>n5</title>
<ellipse fill="none" stroke="black" cx="790.92" cy="-259.38" rx="181.95" ry="37.45"/>
<text text-anchor="middle" x="790.92" y="-270.68" font-family="Times,serif" font-size="14.00">,</text>
<text text-anchor="middle" x="790.92" y="-255.68" font-family="Times,serif" font-size="14.00">fc (punct)</text>
<text text-anchor="middle" x="790.92" y="-240.68" font-family="Times,serif" font-size="14.00">rep=no, t=no, r=no, m=no, c=no</text>
</g>
<!-- n12&#45;&gt;n5 -->
<g id="edge2" class="edge">
<title>n12&#45;&gt;n5</title>
<path fill="none" stroke="black" d="M1568.74,-357.27C1412.93,-345.61 1181.35,-325.5 980.92,-296.86 963.45,-294.36 945.16,-291.36 927.11,-288.15"/>
<polygon fill="black" stroke="black" points="927.57,-284.68 917.11,-286.36 926.33,-291.57 927.57,-284.68"/>
</g>
<!-- n6 -->
<g id="node4" class="node">
<title>n6</title>
<ellipse fill="none" stroke="black" cx="1171.92" cy="-259.38" rx="181.95" ry="37.45"/>
<text text-anchor="middle" x="1171.92" y="-270.68" font-family="Times,serif" font-size="14.00">como</text>
<text text-anchor="middle" x="1171.92" y="-255.68" font-family="Times,serif" font-size="14.00">cs (advcl)</text>
<text text-anchor="middle" x="1171.92" y="-240.68" font-family="Times,serif" font-size="14.00">rep=no, t=no, r=no, m=no, c=no</text>
</g>
<!-- n12&#45;&gt;n6 -->
<g id="edge3" class="edge">
<title>n12&#45;&gt;n6</title>
<path fill="none" stroke="black" d="M1612.13,-343.98C1538.14,-330.13 1444.98,-312.63 1361.92,-296.86 1345.85,-293.81 1329.02,-290.6 1312.3,-287.4"/>
<polygon fill="black" stroke="black" points="1312.96,-283.96 1302.48,-285.52 1311.64,-290.84 1312.96,-283.96"/>
</g>
<!-- n9 -->
<g id="node5" class="node">
<title>n9</title>
<ellipse fill="none" stroke="black" cx="1552.92" cy="-259.38" rx="181.95" ry="37.45"/>
<text text-anchor="middle" x="1552.92" y="-270.68" font-family="Times,serif" font-size="14.00">,</text>
<text text-anchor="middle" x="1552.92" y="-255.68" font-family="Times,serif" font-size="14.00">fc (punct)</text>
<text text-anchor="middle" x="1552.92" y="-240.68" font-family="Times,serif" font-size="14.00">rep=no, t=no, r=no, m=no, c=no</text>
</g>
<!-- n12&#45;&gt;n9 -->
<g id="edge4" class="edge">
<title>n12&#45;&gt;n9</title>
<path fill="none" stroke="black" d="M1686.22,-334.86C1666.29,-323.73 1644.05,-311.3 1623.53,-299.84"/>
<polygon fill="black" stroke="black" points="1624.99,-296.64 1614.55,-294.82 1621.57,-302.75 1624.99,-296.64"/>
</g>
<!-- n10 -->
<g id="node6" class="node">
<title>n10</title>
<ellipse fill="#DA79E8" stroke="black" cx="1943.92" cy="-259.38" rx="190.84" ry="37.45"/>
<text text-anchor="middle" x="1943.92" y="-270.68" font-family="Times,serif" font-size="14.00">no</text>
<text text-anchor="middle" x="1943.92" y="-255.68" font-family="Times,serif" font-size="14.00">rn (neg)</text>
<text text-anchor="middle" x="1943.92" y="-240.68" font-family="Times,serif" font-size="14.00">rep=no, t=no, r=yes, m=yes, c=no</text>
</g>
<!-- n12&#45;&gt;n10 -->
<g id="edge5" class="edge">
<title>n12&#45;&gt;n10</title>
<path fill="none" stroke="black" d="M1809.93,-334.86C1829.86,-323.78 1852.1,-311.42 1872.64,-300.01"/>
<polygon fill="black" stroke="black" points="1874.59,-302.92 1881.63,-295.01 1871.19,-296.81 1874.59,-302.92"/>
</g>
<!-- n11 -->
<g id="node7" class="node">
<title>n11</title>
<ellipse fill="#DA79E8" stroke="black" cx="2343.92" cy="-259.38" rx="190.84" ry="37.45"/>
<text text-anchor="middle" x="2343.92" y="-270.68" font-family="Times,serif" font-size="14.00">se</text>
<text text-anchor="middle" x="2343.92" y="-255.68" font-family="Times,serif" font-size="14.00">p0000000 (reflec)</text>
<text text-anchor="middle" x="2343.92" y="-240.68" font-family="Times,serif" font-size="14.00">rep=no, t=no, r=yes, m=yes, c=no</text>
</g>
<!-- n12&#45;&gt;n11 -->
<g id="edge6" class="edge">
<title>n12&#45;&gt;n11</title>
<path fill="none" stroke="black" d="M1885.4,-344.2C1978.53,-327.18 2101.48,-304.7 2196.62,-287.31"/>
<polygon fill="black" stroke="black" points="2197.4,-290.73 2206.61,-285.48 2196.15,-283.84 2197.4,-290.73"/>
</g>
<!-- n13 -->
<g id="node8" class="node">
<title>n13</title>
<ellipse fill="#DA79E8" stroke="black" cx="2743.92" cy="-259.38" rx="190.84" ry="37.45"/>
<text text-anchor="middle" x="2743.92" y="-270.68" font-family="Times,serif" font-size="14.00">público</text>
<text text-anchor="middle" x="2743.92" y="-255.68" font-family="Times,serif" font-size="14.00">aq0ms0 (cpred)</text>
<text text-anchor="middle" x="2743.92" y="-240.68" font-family="Times,serif" font-size="14.00">rep=no, t=no, r=yes, m=yes, c=no</text>
</g>
<!-- n12&#45;&gt;n13 -->
<g id="edge7" class="edge">
<title>n12&#45;&gt;n13</title>
<path fill="none" stroke="black" d="M1927.85,-357.58C2089.52,-345.91 2333.21,-325.61 2543.92,-296.86 2562.46,-294.33 2581.89,-291.28 2601.06,-288.04"/>
<polygon fill="black" stroke="black" points="2601.79,-291.47 2611.05,-286.33 2600.61,-284.57 2601.79,-291.47"/>
</g>
<!-- n14 -->
<g id="node9" class="node">
<title>n14</title>
<ellipse fill="none" stroke="black" cx="3134.92" cy="-259.38" rx="181.95" ry="37.45"/>
<text text-anchor="middle" x="3134.92" y="-270.68" font-family="Times,serif" font-size="14.00">.</text>
<text text-anchor="middle" x="3134.92" y="-255.68" font-family="Times,serif" font-size="14.00">fp (punct)</text>
<text text-anchor="middle" x="3134.92" y="-240.68" font-family="Times,serif" font-size="14.00">rep=no, t=no, r=no, m=no, c=no</text>
</g>
<!-- n12&#45;&gt;n14 -->
<g id="edge8" class="edge">
<title>n12&#45;&gt;n14</title>
<path fill="none" stroke="black" d="M1937.37,-365.35C2173.78,-358.65 2590.06,-341.19 2943.92,-296.86 2962.09,-294.58 2981.14,-291.63 2999.87,-288.4"/>
<polygon fill="black" stroke="black" points="3000.7,-291.81 3009.94,-286.63 2999.48,-284.91 3000.7,-291.81"/>
</g>
<!-- n1 -->
<g id="node10" class="node">
<title>n1</title>
<ellipse fill="#BEDA48" stroke="black" cx="190.92" cy="-148.43" rx="190.84" ry="37.45"/>
<text text-anchor="middle" x="190.92" y="-159.73" font-family="Times,serif" font-size="14.00">El</text>
<text text-anchor="middle" x="190.92" y="-144.73" font-family="Times,serif" font-size="14.00">da0ms0 (det)</text>
<text text-anchor="middle" x="190.92" y="-129.73" font-family="Times,serif" font-size="14.00">rep=no, t=yes, r=no, m=yes, c=no</text>
</g>
<!-- n2&#45;&gt;n1 -->
<g id="edge9" class="edge">
<title>n2&#45;&gt;n1</title>
<path fill="none" stroke="black" d="M334.08,-224.06C312.41,-212.77 288.17,-200.13 265.88,-188.51"/>
<polygon fill="black" stroke="black" points="267.27,-185.29 256.79,-183.77 264.04,-191.49 267.27,-185.29"/>
</g>
<!-- n3 -->
<g id="node11" class="node">
<title>n3</title>
<ellipse fill="#BEDA48" stroke="black" cx="590.92" cy="-148.43" rx="190.84" ry="37.45"/>
<text text-anchor="middle" x="590.92" y="-159.73" font-family="Times,serif" font-size="14.00">del</text>
<text text-anchor="middle" x="590.92" y="-144.73" font-family="Times,serif" font-size="14.00">spcms (prepn)</text>
<text text-anchor="middle" x="590.92" y="-129.73" font-family="Times,serif" font-size="14.00">rep=no, t=yes, r=no, m=yes, c=no</text>
</g>
<!-- n2&#45;&gt;n3 -->
<g id="edge10" class="edge">
<title>n2&#45;&gt;n3</title>
<path fill="none" stroke="black" d="M460.61,-223.76C479.93,-212.74 501.45,-200.47 521.34,-189.12"/>
<polygon fill="black" stroke="black" points="523.1,-192.15 530.05,-184.15 519.63,-186.06 523.1,-192.15"/>
</g>
<!-- n7 -->
<g id="node13" class="node">
<title>n7</title>
<ellipse fill="none" stroke="black" cx="1171.92" cy="-148.43" rx="181.95" ry="37.45"/>
<text text-anchor="middle" x="1171.92" y="-159.73" font-family="Times,serif" font-size="14.00">es</text>
<text text-anchor="middle" x="1171.92" y="-144.73" font-family="Times,serif" font-size="14.00">vsip3s0 (cobj)</text>
<text text-anchor="middle" x="1171.92" y="-129.73" font-family="Times,serif" font-size="14.00">rep=no, t=no, r=no, m=no, c=no</text>
</g>
<!-- n6&#45;&gt;n7 -->
<g id="edge12" class="edge">
<title>n6&#45;&gt;n7</title>
<path fill="none" stroke="black" d="M1171.92,-221.8C1171.92,-213.63 1171.92,-204.85 1171.92,-196.32"/>
<polygon fill="black" stroke="black" points="1175.42,-196.1 1171.92,-186.1 1168.42,-196.1 1175.42,-196.1"/>
</g>
<!-- n4 -->
<g id="node12" class="node">
<title>n4</title>
<ellipse fill="#BEDA48" stroke="black" cx="590.92" cy="-37.48" rx="190.84" ry="37.45"/>
<text text-anchor="middle" x="590.92" y="-48.78" font-family="Times,serif" font-size="14.00">despacho</text>
<text text-anchor="middle" x="590.92" y="-33.78" font-family="Times,serif" font-size="14.00">ncms000 (pobj)</text>
<text text-anchor="middle" x="590.92" y="-18.78" font-family="Times,serif" font-size="14.00">rep=no, t=yes, r=no, m=yes, c=no</text>
</g>
<!-- n3&#45;&gt;n4 -->
<g id="edge11" class="edge">
<title>n3&#45;&gt;n4</title>
<path fill="none" stroke="black" d="M590.92,-110.85C590.92,-102.67 590.92,-93.89 590.92,-85.37"/>
<polygon fill="black" stroke="black" points="594.42,-85.15 590.92,-75.15 587.42,-85.15 594.42,-85.15"/>
</g>
<!-- n8 -->
<g id="node14" class="node">
<title>n8</title>
<ellipse fill="none" stroke="black" cx="1171.92" cy="-37.48" rx="181.95" ry="37.45"/>
<text text-anchor="middle" x="1171.92" y="-48.78" font-family="Times,serif" font-size="14.00">habitual</text>
<text text-anchor="middle" x="1171.92" y="-33.78" font-family="Times,serif" font-size="14.00">aq0cs0 (attr)</text>
<text text-anchor="middle" x="1171.92" y="-18.78" font-family="Times,serif" font-size="14.00">rep=no, t=no, r=no, m=no, c=no</text>
</g>
<!-- n7&#45;&gt;n8 -->
<g id="edge13" class="edge">
<title>n7&#45;&gt;n8</title>
<path fill="none" stroke="black" d="M1171.92,-110.85C1171.92,-102.67 1171.92,-93.89 1171.92,-85.37"/>
<polygon fill="black" stroke="black" points="1175.42,-85.15 1171.92,-75.15 1168.42,-85.15 1175.42,-85.15"/>
</g>
</g>
</svg>
