<?xml version="1.0" encoding="UTF-8" standalone="no"?>
<!DOCTYPE svg PUBLIC "-//W3C//DTD SVG 1.1//EN"
 "http://www.w3.org/Graphics/SVG/1.1/DTD/svg11.dtd">
<!-- Generated by graphviz version 2.43.0 (0)
 -->
<!-- Title: tree Pages: 1 -->
<svg width="2096pt" height="638pt"
 viewBox="0.00 0.00 2096.45 637.72" xmlns="http://www.w3.org/2000/svg" xmlns:xlink="http://www.w3.org/1999/xlink">
<g id="graph0" class="graph" transform="scale(1 1) rotate(0) translate(4 633.72)">
<title>tree</title>
<polygon fill="white" stroke="transparent" points="-4,4 -4,-633.72 2092.45,-633.72 2092.45,4 -4,4"/>
<!-- n4 -->
<g id="node1" class="node">
<title>n4</title>
<ellipse fill="none" stroke="black" cx="948.73" cy="-592.24" rx="185.94" ry="37.45"/>
<text text-anchor="middle" x="948.73" y="-603.54" font-family="Times,serif" font-size="14.00">fui</text>
<text text-anchor="middle" x="948.73" y="-588.54" font-family="Times,serif" font-size="14.00">vsis1s0 (root)</text>
<text text-anchor="middle" x="948.73" y="-573.54" font-family="Times,serif" font-size="14.00">rep=no, t=no, r=no, m=yes, c=no</text>
</g>
<!-- n1 -->
<g id="node2" class="node">
<title>n1</title>
<ellipse fill="none" stroke="black" cx="181.73" cy="-481.29" rx="181.95" ry="37.45"/>
<text text-anchor="middle" x="181.73" y="-492.59" font-family="Times,serif" font-size="14.00">&#45;</text>
<text text-anchor="middle" x="181.73" y="-477.59" font-family="Times,serif" font-size="14.00">fg (punct)</text>
<text text-anchor="middle" x="181.73" y="-462.59" font-family="Times,serif" font-size="14.00">rep=no, t=no, r=no, m=no, c=no</text>
</g>
<!-- n4&#45;&gt;n1 -->
<g id="edge1" class="edge">
<title>n4&#45;&gt;n1</title>
<path fill="none" stroke="black" d="M786.67,-573.73C670.8,-560.51 511.33,-540.91 371.73,-518.77 354.88,-516.09 337.24,-513.05 319.79,-509.88"/>
<polygon fill="black" stroke="black" points="320,-506.36 309.54,-508 318.74,-513.25 320,-506.36"/>
</g>
<!-- n2 -->
<g id="node3" class="node">
<title>n2</title>
<ellipse fill="none" stroke="black" cx="562.73" cy="-481.29" rx="181.95" ry="37.45"/>
<text text-anchor="middle" x="562.73" y="-492.59" font-family="Times,serif" font-size="14.00">&#45;</text>
<text text-anchor="middle" x="562.73" y="-477.59" font-family="Times,serif" font-size="14.00">fg (punct)</text>
<text text-anchor="middle" x="562.73" y="-462.59" font-family="Times,serif" font-size="14.00">rep=no, t=no, r=no, m=no, c=no</text>
</g>
<!-- n4&#45;&gt;n2 -->
<g id="edge2" class="edge">
<title>n4&#45;&gt;n2</title>
<path fill="none" stroke="black" d="M843,-561.4C791.72,-546.93 730.05,-529.52 677.62,-514.72"/>
<polygon fill="black" stroke="black" points="678.52,-511.34 667.94,-511.99 676.61,-518.07 678.52,-511.34"/>
</g>
<!-- n3 -->
<g id="node4" class="node">
<title>n3</title>
<ellipse fill="none" stroke="black" cx="948.73" cy="-481.29" rx="185.94" ry="37.45"/>
<text text-anchor="middle" x="948.73" y="-492.59" font-family="Times,serif" font-size="14.00">Lo</text>
<text text-anchor="middle" x="948.73" y="-477.59" font-family="Times,serif" font-size="14.00">pp3msa00 (attr)</text>
<text text-anchor="middle" x="948.73" y="-462.59" font-family="Times,serif" font-size="14.00">rep=no, t=no, r=no, m=yes, c=no</text>
</g>
<!-- n4&#45;&gt;n3 -->
<g id="edge3" class="edge">
<title>n4&#45;&gt;n3</title>
<path fill="none" stroke="black" d="M948.73,-554.66C948.73,-546.49 948.73,-537.71 948.73,-529.18"/>
<polygon fill="black" stroke="black" points="952.23,-528.96 948.73,-518.96 945.23,-528.96 952.23,-528.96"/>
</g>
<!-- n5 -->
<g id="node5" class="node">
<title>n5</title>
<ellipse fill="none" stroke="black" cx="1334.73" cy="-481.29" rx="181.95" ry="37.45"/>
<text text-anchor="middle" x="1334.73" y="-492.59" font-family="Times,serif" font-size="14.00">cuando</text>
<text text-anchor="middle" x="1334.73" y="-477.59" font-family="Times,serif" font-size="14.00">cs (advcl)</text>
<text text-anchor="middle" x="1334.73" y="-462.59" font-family="Times,serif" font-size="14.00">rep=no, t=no, r=no, m=no, c=no</text>
</g>
<!-- n4&#45;&gt;n5 -->
<g id="edge4" class="edge">
<title>n4&#45;&gt;n5</title>
<path fill="none" stroke="black" d="M1054.46,-561.4C1105.73,-546.93 1167.41,-529.52 1219.83,-514.72"/>
<polygon fill="black" stroke="black" points="1220.84,-518.07 1229.51,-511.99 1218.94,-511.34 1220.84,-518.07"/>
</g>
<!-- n13 -->
<g id="node6" class="node">
<title>n13</title>
<ellipse fill="none" stroke="black" cx="1715.73" cy="-481.29" rx="181.95" ry="37.45"/>
<text text-anchor="middle" x="1715.73" y="-492.59" font-family="Times,serif" font-size="14.00">.</text>
<text text-anchor="middle" x="1715.73" y="-477.59" font-family="Times,serif" font-size="14.00">fp (punct)</text>
<text text-anchor="middle" x="1715.73" y="-462.59" font-family="Times,serif" font-size="14.00">rep=no, t=no, r=no, m=no, c=no</text>
</g>
<!-- n4&#45;&gt;n13 -->
<g id="edge5" class="edge">
<title>n4&#45;&gt;n13</title>
<path fill="none" stroke="black" d="M1110.79,-573.73C1226.65,-560.51 1386.13,-540.91 1525.73,-518.77 1542.57,-516.09 1560.21,-513.05 1577.67,-509.88"/>
<polygon fill="black" stroke="black" points="1578.71,-513.25 1587.92,-508 1577.45,-506.36 1578.71,-513.25"/>
</g>
<!-- n6 -->
<g id="node7" class="node">
<title>n6</title>
<ellipse fill="none" stroke="black" cx="1334.73" cy="-370.34" rx="181.95" ry="37.45"/>
<text text-anchor="middle" x="1334.73" y="-381.64" font-family="Times,serif" font-size="14.00">estuve</text>
<text text-anchor="middle" x="1334.73" y="-366.64" font-family="Times,serif" font-size="14.00">vmis1s0 (cobj)</text>
<text text-anchor="middle" x="1334.73" y="-351.64" font-family="Times,serif" font-size="14.00">rep=no, t=no, r=no, m=no, c=no</text>
</g>
<!-- n5&#45;&gt;n6 -->
<g id="edge6" class="edge">
<title>n5&#45;&gt;n6</title>
<path fill="none" stroke="black" d="M1334.73,-443.71C1334.73,-435.53 1334.73,-426.75 1334.73,-418.23"/>
<polygon fill="black" stroke="black" points="1338.23,-418.01 1334.73,-408.01 1331.23,-418.01 1338.23,-418.01"/>
</g>
<!-- n7 -->
<g id="node8" class="node">
<title>n7</title>
<ellipse fill="none" stroke="black" cx="1144.73" cy="-259.38" rx="181.95" ry="37.45"/>
<text text-anchor="middle" x="1144.73" y="-270.68" font-family="Times,serif" font-size="14.00">en</text>
<text text-anchor="middle" x="1144.73" y="-255.68" font-family="Times,serif" font-size="14.00">sps00 (prepv)</text>
<text text-anchor="middle" x="1144.73" y="-240.68" font-family="Times,serif" font-size="14.00">rep=no, t=no, r=no, m=no, c=no</text>
</g>
<!-- n6&#45;&gt;n7 -->
<g id="edge7" class="edge">
<title>n6&#45;&gt;n7</title>
<path fill="none" stroke="black" d="M1274.61,-334.86C1255.19,-323.73 1233.52,-311.3 1213.53,-299.84"/>
<polygon fill="black" stroke="black" points="1215.19,-296.76 1204.78,-294.82 1211.71,-302.83 1215.19,-296.76"/>
</g>
<!-- n10 -->
<g id="node9" class="node">
<title>n10</title>
<ellipse fill="none" stroke="black" cx="1525.73" cy="-259.38" rx="181.95" ry="37.45"/>
<text text-anchor="middle" x="1525.73" y="-270.68" font-family="Times,serif" font-size="14.00">en</text>
<text text-anchor="middle" x="1525.73" y="-255.68" font-family="Times,serif" font-size="14.00">sps00 (cobj)</text>
<text text-anchor="middle" x="1525.73" y="-240.68" font-family="Times,serif" font-size="14.00">rep=no, t=no, r=no, m=no, c=no</text>
</g>
<!-- n6&#45;&gt;n10 -->
<g id="edge8" class="edge">
<title>n6&#45;&gt;n10</title>
<path fill="none" stroke="black" d="M1395.16,-334.86C1414.68,-323.73 1436.46,-311.3 1456.56,-299.84"/>
<polygon fill="black" stroke="black" points="1458.41,-302.81 1465.36,-294.82 1454.94,-296.73 1458.41,-302.81"/>
</g>
<!-- n8 -->
<g id="node10" class="node">
<title>n8</title>
<ellipse fill="none" stroke="black" cx="1144.73" cy="-148.43" rx="181.95" ry="37.45"/>
<text text-anchor="middle" x="1144.73" y="-159.73" font-family="Times,serif" font-size="14.00">ella</text>
<text text-anchor="middle" x="1144.73" y="-144.73" font-family="Times,serif" font-size="14.00">pp3fs000 (pobj)</text>
<text text-anchor="middle" x="1144.73" y="-129.73" font-family="Times,serif" font-size="14.00">rep=no, t=no, r=no, m=no, c=no</text>
</g>
<!-- n7&#45;&gt;n8 -->
<g id="edge9" class="edge">
<title>n7&#45;&gt;n8</title>
<path fill="none" stroke="black" d="M1144.73,-221.8C1144.73,-213.63 1144.73,-204.85 1144.73,-196.32"/>
<polygon fill="black" stroke="black" points="1148.23,-196.1 1144.73,-186.1 1141.23,-196.1 1148.23,-196.1"/>
</g>
<!-- n9 -->
<g id="node11" class="node">
<title>n9</title>
<ellipse fill="none" stroke="black" cx="1525.73" cy="-148.43" rx="181.95" ry="37.45"/>
<text text-anchor="middle" x="1525.73" y="-159.73" font-family="Times,serif" font-size="14.00">,</text>
<text text-anchor="middle" x="1525.73" y="-144.73" font-family="Times,serif" font-size="14.00">fc (punct)</text>
<text text-anchor="middle" x="1525.73" y="-129.73" font-family="Times,serif" font-size="14.00">rep=no, t=no, r=no, m=no, c=no</text>
</g>
<!-- n10&#45;&gt;n9 -->
<g id="edge10" class="edge">
<title>n10&#45;&gt;n9</title>
<path fill="none" stroke="black" d="M1525.73,-221.8C1525.73,-213.63 1525.73,-204.85 1525.73,-196.32"/>
<polygon fill="black" stroke="black" points="1529.23,-196.1 1525.73,-186.1 1522.23,-196.1 1529.23,-196.1"/>
</g>
<!-- n12 -->
<g id="node12" class="node">
<title>n12</title>
<ellipse fill="none" stroke="black" cx="1906.73" cy="-148.43" rx="181.95" ry="37.45"/>
<text text-anchor="middle" x="1906.73" y="-159.73" font-family="Times,serif" font-size="14.00">política</text>
<text text-anchor="middle" x="1906.73" y="-144.73" font-family="Times,serif" font-size="14.00">ncfs000 (pobj)</text>
<text text-anchor="middle" x="1906.73" y="-129.73" font-family="Times,serif" font-size="14.00">rep=no, t=no, r=no, m=no, c=no</text>
</g>
<!-- n10&#45;&gt;n12 -->
<g id="edge11" class="edge">
<title>n10&#45;&gt;n12</title>
<path fill="none" stroke="black" d="M1629.84,-228.61C1680.34,-214.17 1741.12,-196.79 1792.86,-181.99"/>
<polygon fill="black" stroke="black" points="1794.09,-185.28 1802.74,-179.17 1792.17,-178.55 1794.09,-185.28"/>
</g>
<!-- n11 -->
<g id="node13" class="node">
<title>n11</title>
<ellipse fill="none" stroke="black" cx="1906.73" cy="-37.48" rx="181.95" ry="37.45"/>
<text text-anchor="middle" x="1906.73" y="-48.78" font-family="Times,serif" font-size="14.00">la</text>
<text text-anchor="middle" x="1906.73" y="-33.78" font-family="Times,serif" font-size="14.00">da0fs0 (det)</text>
<text text-anchor="middle" x="1906.73" y="-18.78" font-family="Times,serif" font-size="14.00">rep=no, t=no, r=no, m=no, c=no</text>
</g>
<!-- n12&#45;&gt;n11 -->
<g id="edge12" class="edge">
<title>n12&#45;&gt;n11</title>
<path fill="none" stroke="black" d="M1906.73,-110.85C1906.73,-102.67 1906.73,-93.89 1906.73,-85.37"/>
<polygon fill="black" stroke="black" points="1910.23,-85.15 1906.73,-75.15 1903.23,-85.15 1910.23,-85.15"/>
</g>
</g>
</svg>
