<?xml version="1.0" encoding="UTF-8" standalone="no"?>
<!DOCTYPE svg PUBLIC "-//W3C//DTD SVG 1.1//EN"
 "http://www.w3.org/Graphics/SVG/1.1/DTD/svg11.dtd">
<!-- Generated by graphviz version 2.43.0 (0)
 -->
<!-- Title: tree Pages: 1 -->
<svg width="1914pt" height="194pt"
 viewBox="0.00 0.00 1914.45 193.91" xmlns="http://www.w3.org/2000/svg" xmlns:xlink="http://www.w3.org/1999/xlink">
<g id="graph0" class="graph" transform="scale(1 1) rotate(0) translate(4 189.91)">
<title>tree</title>
<polygon fill="white" stroke="transparent" points="-4,4 -4,-189.91 1910.45,-189.91 1910.45,4 -4,4"/>
<!-- n4 -->
<g id="node1" class="node">
<title>n4</title>
<ellipse fill="none" stroke="black" cx="948.73" cy="-148.43" rx="185.94" ry="37.45"/>
<text text-anchor="middle" x="948.73" y="-159.73" font-family="Times,serif" font-size="14.00">,</text>
<text text-anchor="middle" x="948.73" y="-144.73" font-family="Times,serif" font-size="14.00">fc (root)</text>
<text text-anchor="middle" x="948.73" y="-129.73" font-family="Times,serif" font-size="14.00">rep=no, t=no, r=no, m=yes, c=no</text>
</g>
<!-- n1 -->
<g id="node2" class="node">
<title>n1</title>
<ellipse fill="none" stroke="black" cx="181.73" cy="-37.48" rx="181.95" ry="37.45"/>
<text text-anchor="middle" x="181.73" y="-48.78" font-family="Times,serif" font-size="14.00">&#45;</text>
<text text-anchor="middle" x="181.73" y="-33.78" font-family="Times,serif" font-size="14.00">fg (punct)</text>
<text text-anchor="middle" x="181.73" y="-18.78" font-family="Times,serif" font-size="14.00">rep=no, t=no, r=no, m=no, c=no</text>
</g>
<!-- n4&#45;&gt;n1 -->
<g id="edge1" class="edge">
<title>n4&#45;&gt;n1</title>
<path fill="none" stroke="black" d="M786.67,-129.91C670.8,-116.7 511.33,-97.1 371.73,-74.95 354.88,-72.28 337.24,-69.23 319.79,-66.06"/>
<polygon fill="black" stroke="black" points="320,-62.55 309.54,-64.19 318.74,-69.43 320,-62.55"/>
</g>
<!-- n2 -->
<g id="node3" class="node">
<title>n2</title>
<ellipse fill="none" stroke="black" cx="562.73" cy="-37.48" rx="181.95" ry="37.45"/>
<text text-anchor="middle" x="562.73" y="-48.78" font-family="Times,serif" font-size="14.00">&#45;</text>
<text text-anchor="middle" x="562.73" y="-33.78" font-family="Times,serif" font-size="14.00">fg (punct)</text>
<text text-anchor="middle" x="562.73" y="-18.78" font-family="Times,serif" font-size="14.00">rep=no, t=no, r=no, m=no, c=no</text>
</g>
<!-- n4&#45;&gt;n2 -->
<g id="edge2" class="edge">
<title>n4&#45;&gt;n2</title>
<path fill="none" stroke="black" d="M843,-117.59C791.72,-103.11 730.05,-85.7 677.62,-70.91"/>
<polygon fill="black" stroke="black" points="678.52,-67.52 667.94,-68.17 676.61,-74.26 678.52,-67.52"/>
</g>
<!-- n3 -->
<g id="node4" class="node">
<title>n3</title>
<ellipse fill="none" stroke="black" cx="948.73" cy="-37.48" rx="185.94" ry="37.45"/>
<text text-anchor="middle" x="948.73" y="-48.78" font-family="Times,serif" font-size="14.00">No</text>
<text text-anchor="middle" x="948.73" y="-33.78" font-family="Times,serif" font-size="14.00">rn (coord)</text>
<text text-anchor="middle" x="948.73" y="-18.78" font-family="Times,serif" font-size="14.00">rep=no, t=no, r=no, m=yes, c=no</text>
</g>
<!-- n4&#45;&gt;n3 -->
<g id="edge3" class="edge">
<title>n4&#45;&gt;n3</title>
<path fill="none" stroke="black" d="M948.73,-110.85C948.73,-102.67 948.73,-93.89 948.73,-85.37"/>
<polygon fill="black" stroke="black" points="952.23,-85.15 948.73,-75.15 945.23,-85.15 952.23,-85.15"/>
</g>
<!-- n5 -->
<g id="node5" class="node">
<title>n5</title>
<ellipse fill="none" stroke="black" cx="1338.73" cy="-37.48" rx="185.94" ry="37.45"/>
<text text-anchor="middle" x="1338.73" y="-48.78" font-family="Times,serif" font-size="14.00">no</text>
<text text-anchor="middle" x="1338.73" y="-33.78" font-family="Times,serif" font-size="14.00">rn (coord)</text>
<text text-anchor="middle" x="1338.73" y="-18.78" font-family="Times,serif" font-size="14.00">rep=no, t=no, r=no, m=yes, c=no</text>
</g>
<!-- n4&#45;&gt;n5 -->
<g id="edge4" class="edge">
<title>n4&#45;&gt;n5</title>
<path fill="none" stroke="black" d="M1055.3,-117.66C1107.1,-103.19 1169.47,-85.76 1222.5,-70.95"/>
<polygon fill="black" stroke="black" points="1223.6,-74.27 1232.29,-68.21 1221.71,-67.53 1223.6,-74.27"/>
</g>
<!-- n6 -->
<g id="node6" class="node">
<title>n6</title>
<ellipse fill="none" stroke="black" cx="1724.73" cy="-37.48" rx="181.95" ry="37.45"/>
<text text-anchor="middle" x="1724.73" y="-48.78" font-family="Times,serif" font-size="14.00">.</text>
<text text-anchor="middle" x="1724.73" y="-33.78" font-family="Times,serif" font-size="14.00">fp (punct)</text>
<text text-anchor="middle" x="1724.73" y="-18.78" font-family="Times,serif" font-size="14.00">rep=no, t=no, r=no, m=no, c=no</text>
</g>
<!-- n4&#45;&gt;n6 -->
<g id="edge5" class="edge">
<title>n4&#45;&gt;n6</title>
<path fill="none" stroke="black" d="M1111.46,-130.16C1229.06,-116.98 1391.56,-97.31 1533.73,-74.95 1550.96,-72.24 1569.02,-69.14 1586.87,-65.91"/>
<polygon fill="black" stroke="black" points="1587.55,-69.35 1596.76,-64.11 1586.29,-62.46 1587.55,-69.35"/>
</g>
</g>
</svg>
