<?xml version="1.0" encoding="UTF-8" standalone="no"?>
<!DOCTYPE svg PUBLIC "-//W3C//DTD SVG 1.1//EN"
 "http://www.w3.org/Graphics/SVG/1.1/DTD/svg11.dtd">
<!-- Generated by graphviz version 2.43.0 (0)
 -->
<!-- Title: tree Pages: 1 -->
<svg width="5850pt" height="1082pt"
 viewBox="0.00 0.00 5849.89 1081.53" xmlns="http://www.w3.org/2000/svg" xmlns:xlink="http://www.w3.org/1999/xlink">
<g id="graph0" class="graph" transform="scale(1 1) rotate(0) translate(4 1077.53)">
<title>tree</title>
<polygon fill="white" stroke="transparent" points="-4,4 -4,-1077.53 5845.89,-1077.53 5845.89,4 -4,4"/>
<!-- n30 -->
<g id="node1" class="node">
<title>n30</title>
<ellipse fill="none" stroke="black" cx="3490.92" cy="-1036.06" rx="185.94" ry="37.45"/>
<text text-anchor="middle" x="3490.92" y="-1047.36" font-family="Times,serif" font-size="14.00">a</text>
<text text-anchor="middle" x="3490.92" y="-1032.36" font-family="Times,serif" font-size="14.00">sps00 (root)</text>
<text text-anchor="middle" x="3490.92" y="-1017.36" font-family="Times,serif" font-size="14.00">rep=no, t=no, r=no, m=yes, c=no</text>
</g>
<!-- n19 -->
<g id="node2" class="node">
<title>n19</title>
<ellipse fill="#DA79E8" stroke="black" cx="2590.92" cy="-925.1" rx="190.84" ry="37.45"/>
<text text-anchor="middle" x="2590.92" y="-936.4" font-family="Times,serif" font-size="14.00">califican</text>
<text text-anchor="middle" x="2590.92" y="-921.4" font-family="Times,serif" font-size="14.00">vmip3p0 (cobj)</text>
<text text-anchor="middle" x="2590.92" y="-906.4" font-family="Times,serif" font-size="14.00">rep=no, t=no, r=yes, m=yes, c=no</text>
</g>
<!-- n30&#45;&gt;n19 -->
<g id="edge1" class="edge">
<title>n30&#45;&gt;n19</title>
<path fill="none" stroke="black" d="M3333.64,-1016.02C3173.6,-996.64 2926.32,-966.71 2761.61,-946.77"/>
<polygon fill="black" stroke="black" points="2761.73,-943.26 2751.38,-945.53 2760.89,-950.2 2761.73,-943.26"/>
</g>
<!-- n32 -->
<g id="node3" class="node">
<title>n32</title>
<ellipse fill="none" stroke="black" cx="3490.92" cy="-925.1" rx="185.94" ry="37.45"/>
<text text-anchor="middle" x="3490.92" y="-936.4" font-family="Times,serif" font-size="14.00">vez</text>
<text text-anchor="middle" x="3490.92" y="-921.4" font-family="Times,serif" font-size="14.00">ncms000 (pobj)</text>
<text text-anchor="middle" x="3490.92" y="-906.4" font-family="Times,serif" font-size="14.00">rep=no, t=no, r=no, m=yes, c=no</text>
</g>
<!-- n30&#45;&gt;n32 -->
<g id="edge2" class="edge">
<title>n30&#45;&gt;n32</title>
<path fill="none" stroke="black" d="M3490.92,-998.47C3490.92,-990.3 3490.92,-981.52 3490.92,-972.99"/>
<polygon fill="black" stroke="black" points="3494.42,-972.78 3490.92,-962.78 3487.42,-972.78 3494.42,-972.78"/>
</g>
<!-- n55 -->
<g id="node4" class="node">
<title>n55</title>
<ellipse fill="none" stroke="black" cx="3876.92" cy="-925.1" rx="181.95" ry="37.45"/>
<text text-anchor="middle" x="3876.92" y="-936.4" font-family="Times,serif" font-size="14.00">.</text>
<text text-anchor="middle" x="3876.92" y="-921.4" font-family="Times,serif" font-size="14.00">fp (punct)</text>
<text text-anchor="middle" x="3876.92" y="-906.4" font-family="Times,serif" font-size="14.00">rep=no, t=no, r=no, m=no, c=no</text>
</g>
<!-- n30&#45;&gt;n55 -->
<g id="edge3" class="edge">
<title>n30&#45;&gt;n55</title>
<path fill="none" stroke="black" d="M3596.65,-1005.21C3647.92,-990.74 3709.6,-973.33 3762.03,-958.53"/>
<polygon fill="black" stroke="black" points="3763.03,-961.89 3771.7,-955.8 3761.13,-955.15 3763.03,-961.89"/>
</g>
<!-- n3 -->
<g id="node5" class="node">
<title>n3</title>
<ellipse fill="#BEDA48" stroke="black" cx="1190.92" cy="-814.15" rx="190.84" ry="37.45"/>
<text text-anchor="middle" x="1190.92" y="-825.45" font-family="Times,serif" font-size="14.00">españoles</text>
<text text-anchor="middle" x="1190.92" y="-810.45" font-family="Times,serif" font-size="14.00">ncmp000 (nsubj)</text>
<text text-anchor="middle" x="1190.92" y="-795.45" font-family="Times,serif" font-size="14.00">rep=no, t=yes, r=no, m=yes, c=no</text>
</g>
<!-- n19&#45;&gt;n3 -->
<g id="edge4" class="edge">
<title>n19&#45;&gt;n3</title>
<path fill="none" stroke="black" d="M2415.03,-910.41C2149.47,-889.75 1648.44,-850.76 1377,-829.63"/>
<polygon fill="black" stroke="black" points="1376.88,-826.11 1366.64,-828.83 1376.34,-833.09 1376.88,-826.11"/>
</g>
<!-- n20 -->
<g id="node6" class="node">
<title>n20</title>
<ellipse fill="#DA79E8" stroke="black" cx="2190.92" cy="-814.15" rx="190.84" ry="37.45"/>
<text text-anchor="middle" x="2190.92" y="-825.45" font-family="Times,serif" font-size="14.00">de</text>
<text text-anchor="middle" x="2190.92" y="-810.45" font-family="Times,serif" font-size="14.00">sps00 (prepv)</text>
<text text-anchor="middle" x="2190.92" y="-795.45" font-family="Times,serif" font-size="14.00">rep=no, t=no, r=yes, m=yes, c=no</text>
</g>
<!-- n19&#45;&gt;n20 -->
<g id="edge5" class="edge">
<title>n19&#45;&gt;n20</title>
<path fill="none" stroke="black" d="M2481.62,-894.33C2428.48,-879.86 2364.51,-862.43 2310.12,-847.62"/>
<polygon fill="black" stroke="black" points="2311,-844.23 2300.44,-844.98 2309.16,-850.99 2311,-844.23"/>
</g>
<!-- n22 -->
<g id="node7" class="node">
<title>n22</title>
<ellipse fill="#DA79E8" stroke="black" cx="2590.92" cy="-814.15" rx="190.84" ry="37.45"/>
<text text-anchor="middle" x="2590.92" y="-825.45" font-family="Times,serif" font-size="14.00">&quot;</text>
<text text-anchor="middle" x="2590.92" y="-810.45" font-family="Times,serif" font-size="14.00">fe (punct)</text>
<text text-anchor="middle" x="2590.92" y="-795.45" font-family="Times,serif" font-size="14.00">rep=no, t=no, r=yes, m=yes, c=no</text>
</g>
<!-- n19&#45;&gt;n22 -->
<g id="edge6" class="edge">
<title>n19&#45;&gt;n22</title>
<path fill="none" stroke="black" d="M2590.92,-887.52C2590.92,-879.35 2590.92,-870.57 2590.92,-862.04"/>
<polygon fill="black" stroke="black" points="2594.42,-861.82 2590.92,-851.82 2587.42,-861.82 2594.42,-861.82"/>
</g>
<!-- n24 -->
<g id="node8" class="node">
<title>n24</title>
<ellipse fill="#DA79E8" stroke="black" cx="2990.92" cy="-814.15" rx="190.84" ry="37.45"/>
<text text-anchor="middle" x="2990.92" y="-825.45" font-family="Times,serif" font-size="14.00">postura</text>
<text text-anchor="middle" x="2990.92" y="-810.45" font-family="Times,serif" font-size="14.00">ncfs000 (dobj)</text>
<text text-anchor="middle" x="2990.92" y="-795.45" font-family="Times,serif" font-size="14.00">rep=no, t=no, r=yes, m=yes, c=no</text>
</g>
<!-- n19&#45;&gt;n24 -->
<g id="edge7" class="edge">
<title>n19&#45;&gt;n24</title>
<path fill="none" stroke="black" d="M2700.22,-894.33C2753.36,-879.86 2817.33,-862.43 2871.71,-847.62"/>
<polygon fill="black" stroke="black" points="2872.67,-850.99 2881.4,-844.98 2870.83,-844.23 2872.67,-850.99"/>
</g>
<!-- n31 -->
<g id="node33" class="node">
<title>n31</title>
<ellipse fill="none" stroke="black" cx="3490.92" cy="-814.15" rx="185.94" ry="37.45"/>
<text text-anchor="middle" x="3490.92" y="-825.45" font-family="Times,serif" font-size="14.00">la</text>
<text text-anchor="middle" x="3490.92" y="-810.45" font-family="Times,serif" font-size="14.00">di0ms0 (det)</text>
<text text-anchor="middle" x="3490.92" y="-795.45" font-family="Times,serif" font-size="14.00">rep=no, t=no, r=no, m=yes, c=no</text>
</g>
<!-- n32&#45;&gt;n31 -->
<g id="edge32" class="edge">
<title>n32&#45;&gt;n31</title>
<path fill="none" stroke="black" d="M3490.92,-887.52C3490.92,-879.35 3490.92,-870.57 3490.92,-862.04"/>
<polygon fill="black" stroke="black" points="3494.42,-861.82 3490.92,-851.82 3487.42,-861.82 3494.42,-861.82"/>
</g>
<!-- n33 -->
<g id="node34" class="node">
<title>n33</title>
<ellipse fill="none" stroke="black" cx="3984.92" cy="-814.15" rx="185.94" ry="37.45"/>
<text text-anchor="middle" x="3984.92" y="-825.45" font-family="Times,serif" font-size="14.00">que</text>
<text text-anchor="middle" x="3984.92" y="-810.45" font-family="Times,serif" font-size="14.00">px3ms000 (poss)</text>
<text text-anchor="middle" x="3984.92" y="-795.45" font-family="Times,serif" font-size="14.00">rep=no, t=no, r=no, m=yes, c=no</text>
</g>
<!-- n32&#45;&gt;n33 -->
<g id="edge33" class="edge">
<title>n32&#45;&gt;n33</title>
<path fill="none" stroke="black" d="M3613.98,-896.96C3686.32,-881.01 3777.8,-860.83 3851.81,-844.51"/>
<polygon fill="black" stroke="black" points="3852.66,-847.9 3861.67,-842.33 3851.15,-841.07 3852.66,-847.9"/>
</g>
<!-- n1 -->
<g id="node9" class="node">
<title>n1</title>
<ellipse fill="#BEDA48" stroke="black" cx="190.92" cy="-703.2" rx="190.84" ry="37.45"/>
<text text-anchor="middle" x="190.92" y="-714.5" font-family="Times,serif" font-size="14.00">Los</text>
<text text-anchor="middle" x="190.92" y="-699.5" font-family="Times,serif" font-size="14.00">da0mp0 (det)</text>
<text text-anchor="middle" x="190.92" y="-684.5" font-family="Times,serif" font-size="14.00">rep=no, t=yes, r=no, m=yes, c=no</text>
</g>
<!-- n3&#45;&gt;n1 -->
<g id="edge8" class="edge">
<title>n3&#45;&gt;n1</title>
<path fill="none" stroke="black" d="M1010.88,-801.49C848.4,-789.87 603.03,-769.56 390.92,-740.67 372.38,-738.15 352.94,-735.1 333.78,-731.87"/>
<polygon fill="black" stroke="black" points="334.23,-728.39 323.78,-730.16 333.05,-735.29 334.23,-728.39"/>
</g>
<!-- n2 -->
<g id="node10" class="node">
<title>n2</title>
<ellipse fill="#BEDA48" stroke="black" cx="590.92" cy="-703.2" rx="190.84" ry="37.45"/>
<text text-anchor="middle" x="590.92" y="-714.5" font-family="Times,serif" font-size="14.00">evangélicos</text>
<text text-anchor="middle" x="590.92" y="-699.5" font-family="Times,serif" font-size="14.00">aq0mp0 (amod)</text>
<text text-anchor="middle" x="590.92" y="-684.5" font-family="Times,serif" font-size="14.00">rep=no, t=yes, r=no, m=yes, c=no</text>
</g>
<!-- n3&#45;&gt;n2 -->
<g id="edge9" class="edge">
<title>n3&#45;&gt;n2</title>
<path fill="none" stroke="black" d="M1053,-788.2C975.9,-774.24 878.06,-756.51 790.92,-740.67 773.85,-737.57 755.97,-734.31 738.21,-731.08"/>
<polygon fill="black" stroke="black" points="738.82,-727.63 728.36,-729.28 737.57,-734.52 738.82,-727.63"/>
</g>
<!-- n4 -->
<g id="node11" class="node">
<title>n4</title>
<ellipse fill="#BEDA48" stroke="black" cx="990.92" cy="-703.2" rx="190.84" ry="37.45"/>
<text text-anchor="middle" x="990.92" y="-714.5" font-family="Times,serif" font-size="14.00">,</text>
<text text-anchor="middle" x="990.92" y="-699.5" font-family="Times,serif" font-size="14.00">fc (punct)</text>
<text text-anchor="middle" x="990.92" y="-684.5" font-family="Times,serif" font-size="14.00">rep=no, t=yes, r=no, m=yes, c=no</text>
</g>
<!-- n3&#45;&gt;n4 -->
<g id="edge10" class="edge">
<title>n3&#45;&gt;n4</title>
<path fill="none" stroke="black" d="M1127.64,-778.68C1107.11,-767.49 1084.18,-755 1063.06,-743.5"/>
<polygon fill="black" stroke="black" points="1064.59,-740.34 1054.13,-738.63 1061.24,-746.49 1064.59,-740.34"/>
</g>
<!-- n9 -->
<g id="node12" class="node">
<title>n9</title>
<ellipse fill="#BEDA48" stroke="black" cx="1390.92" cy="-703.2" rx="190.84" ry="37.45"/>
<text text-anchor="middle" x="1390.92" y="-714.5" font-family="Times,serif" font-size="14.00">insisten</text>
<text text-anchor="middle" x="1390.92" y="-699.5" font-family="Times,serif" font-size="14.00">vmip3p0 (rcmod)</text>
<text text-anchor="middle" x="1390.92" y="-684.5" font-family="Times,serif" font-size="14.00">rep=no, t=yes, r=no, m=yes, c=no</text>
</g>
<!-- n3&#45;&gt;n9 -->
<g id="edge11" class="edge">
<title>n3&#45;&gt;n9</title>
<path fill="none" stroke="black" d="M1254.2,-778.68C1274.73,-767.49 1297.65,-755 1318.78,-743.5"/>
<polygon fill="black" stroke="black" points="1320.6,-746.49 1327.71,-738.63 1317.25,-740.34 1320.6,-746.49"/>
</g>
<!-- n18 -->
<g id="node13" class="node">
<title>n18</title>
<ellipse fill="#BEDA48" stroke="black" cx="1790.92" cy="-703.2" rx="190.84" ry="37.45"/>
<text text-anchor="middle" x="1790.92" y="-714.5" font-family="Times,serif" font-size="14.00">,</text>
<text text-anchor="middle" x="1790.92" y="-699.5" font-family="Times,serif" font-size="14.00">fc (punct)</text>
<text text-anchor="middle" x="1790.92" y="-684.5" font-family="Times,serif" font-size="14.00">rep=no, t=yes, r=no, m=yes, c=no</text>
</g>
<!-- n3&#45;&gt;n18 -->
<g id="edge12" class="edge">
<title>n3&#45;&gt;n18</title>
<path fill="none" stroke="black" d="M1328.84,-788.2C1405.94,-774.24 1503.78,-756.51 1590.92,-740.67 1607.99,-737.57 1625.87,-734.31 1643.63,-731.08"/>
<polygon fill="black" stroke="black" points="1644.27,-734.52 1653.48,-729.28 1643.02,-727.63 1644.27,-734.52"/>
</g>
<!-- n21 -->
<g id="node26" class="node">
<title>n21</title>
<ellipse fill="#DA79E8" stroke="black" cx="2190.92" cy="-703.2" rx="190.84" ry="37.45"/>
<text text-anchor="middle" x="2190.92" y="-714.5" font-family="Times,serif" font-size="14.00">incoherente</text>
<text text-anchor="middle" x="2190.92" y="-699.5" font-family="Times,serif" font-size="14.00">aq0cs0 (pobj)</text>
<text text-anchor="middle" x="2190.92" y="-684.5" font-family="Times,serif" font-size="14.00">rep=no, t=no, r=yes, m=yes, c=no</text>
</g>
<!-- n20&#45;&gt;n21 -->
<g id="edge25" class="edge">
<title>n20&#45;&gt;n21</title>
<path fill="none" stroke="black" d="M2190.92,-776.57C2190.92,-768.39 2190.92,-759.61 2190.92,-751.09"/>
<polygon fill="black" stroke="black" points="2194.42,-750.87 2190.92,-740.87 2187.42,-750.87 2194.42,-750.87"/>
</g>
<!-- n23 -->
<g id="node27" class="node">
<title>n23</title>
<ellipse fill="#DA79E8" stroke="black" cx="2590.92" cy="-703.2" rx="190.84" ry="37.45"/>
<text text-anchor="middle" x="2590.92" y="-714.5" font-family="Times,serif" font-size="14.00">la</text>
<text text-anchor="middle" x="2590.92" y="-699.5" font-family="Times,serif" font-size="14.00">da0fs0 (det)</text>
<text text-anchor="middle" x="2590.92" y="-684.5" font-family="Times,serif" font-size="14.00">rep=no, t=no, r=yes, m=yes, c=no</text>
</g>
<!-- n24&#45;&gt;n23 -->
<g id="edge26" class="edge">
<title>n24&#45;&gt;n23</title>
<path fill="none" stroke="black" d="M2881.62,-783.38C2828.48,-768.9 2764.51,-751.48 2710.12,-736.67"/>
<polygon fill="black" stroke="black" points="2711,-733.28 2700.44,-734.03 2709.16,-740.03 2711,-733.28"/>
</g>
<!-- n25 -->
<g id="node28" class="node">
<title>n25</title>
<ellipse fill="#DA79E8" stroke="black" cx="2990.92" cy="-703.2" rx="190.84" ry="37.45"/>
<text text-anchor="middle" x="2990.92" y="-714.5" font-family="Times,serif" font-size="14.00">papal</text>
<text text-anchor="middle" x="2990.92" y="-699.5" font-family="Times,serif" font-size="14.00">aq0cs0 (amod)</text>
<text text-anchor="middle" x="2990.92" y="-684.5" font-family="Times,serif" font-size="14.00">rep=no, t=no, r=yes, m=yes, c=no</text>
</g>
<!-- n24&#45;&gt;n25 -->
<g id="edge27" class="edge">
<title>n24&#45;&gt;n25</title>
<path fill="none" stroke="black" d="M2990.92,-776.57C2990.92,-768.39 2990.92,-759.61 2990.92,-751.09"/>
<polygon fill="black" stroke="black" points="2994.42,-750.87 2990.92,-740.87 2987.42,-750.87 2994.42,-750.87"/>
</g>
<!-- n26 -->
<g id="node29" class="node">
<title>n26</title>
<ellipse fill="#DA79E8" stroke="black" cx="3390.92" cy="-703.2" rx="190.84" ry="37.45"/>
<text text-anchor="middle" x="3390.92" y="-714.5" font-family="Times,serif" font-size="14.00">de</text>
<text text-anchor="middle" x="3390.92" y="-699.5" font-family="Times,serif" font-size="14.00">sps00 (prepn)</text>
<text text-anchor="middle" x="3390.92" y="-684.5" font-family="Times,serif" font-size="14.00">rep=no, t=no, r=yes, m=yes, c=no</text>
</g>
<!-- n24&#45;&gt;n26 -->
<g id="edge28" class="edge">
<title>n24&#45;&gt;n26</title>
<path fill="none" stroke="black" d="M3100.22,-783.38C3153.36,-768.9 3217.33,-751.48 3271.71,-736.67"/>
<polygon fill="black" stroke="black" points="3272.67,-740.03 3281.4,-734.03 3270.83,-733.28 3272.67,-740.03"/>
</g>
<!-- n5 -->
<g id="node14" class="node">
<title>n5</title>
<ellipse fill="#BEDA48" stroke="black" cx="990.92" cy="-592.24" rx="190.84" ry="37.45"/>
<text text-anchor="middle" x="990.92" y="-603.54" font-family="Times,serif" font-size="14.00">que</text>
<text text-anchor="middle" x="990.92" y="-588.54" font-family="Times,serif" font-size="14.00">pr0cn000 (nsubj)</text>
<text text-anchor="middle" x="990.92" y="-573.54" font-family="Times,serif" font-size="14.00">rep=no, t=yes, r=no, m=yes, c=no</text>
</g>
<!-- n9&#45;&gt;n5 -->
<g id="edge13" class="edge">
<title>n9&#45;&gt;n5</title>
<path fill="none" stroke="black" d="M1281.62,-672.42C1228.48,-657.95 1164.51,-640.53 1110.12,-625.71"/>
<polygon fill="black" stroke="black" points="1111,-622.32 1100.44,-623.07 1109.16,-629.08 1111,-622.32"/>
</g>
<!-- n6 -->
<g id="node15" class="node">
<title>n6</title>
<ellipse fill="#BEDA48" stroke="black" cx="1390.92" cy="-592.24" rx="190.84" ry="37.45"/>
<text text-anchor="middle" x="1390.92" y="-603.54" font-family="Times,serif" font-size="14.00">en</text>
<text text-anchor="middle" x="1390.92" y="-588.54" font-family="Times,serif" font-size="14.00">sps00 (prepv)</text>
<text text-anchor="middle" x="1390.92" y="-573.54" font-family="Times,serif" font-size="14.00">rep=no, t=yes, r=no, m=yes, c=no</text>
</g>
<!-- n9&#45;&gt;n6 -->
<g id="edge14" class="edge">
<title>n9&#45;&gt;n6</title>
<path fill="none" stroke="black" d="M1390.92,-665.61C1390.92,-657.44 1390.92,-648.66 1390.92,-640.13"/>
<polygon fill="black" stroke="black" points="1394.42,-639.92 1390.92,-629.92 1387.42,-639.92 1394.42,-639.92"/>
</g>
<!-- n10 -->
<g id="node16" class="node">
<title>n10</title>
<ellipse fill="#BEDA48" stroke="black" cx="1791.92" cy="-592.24" rx="190.84" ry="37.45"/>
<text text-anchor="middle" x="1791.92" y="-603.54" font-family="Times,serif" font-size="14.00">en</text>
<text text-anchor="middle" x="1791.92" y="-588.54" font-family="Times,serif" font-size="14.00">sps00 (oobj)</text>
<text text-anchor="middle" x="1791.92" y="-573.54" font-family="Times,serif" font-size="14.00">rep=no, t=yes, r=no, m=yes, c=no</text>
</g>
<!-- n9&#45;&gt;n10 -->
<g id="edge15" class="edge">
<title>n9&#45;&gt;n10</title>
<path fill="none" stroke="black" d="M1500.49,-672.42C1553.87,-657.92 1618.16,-640.46 1672.75,-625.62"/>
<polygon fill="black" stroke="black" points="1673.74,-628.98 1682.48,-622.98 1671.91,-622.22 1673.74,-628.98"/>
</g>
<!-- n8 -->
<g id="node17" class="node">
<title>n8</title>
<ellipse fill="#BEDA48" stroke="black" cx="1290.92" cy="-481.29" rx="190.84" ry="37.45"/>
<text text-anchor="middle" x="1290.92" y="-492.59" font-family="Times,serif" font-size="14.00">comunicado</text>
<text text-anchor="middle" x="1290.92" y="-477.59" font-family="Times,serif" font-size="14.00">ncms000 (pobj)</text>
<text text-anchor="middle" x="1290.92" y="-462.59" font-family="Times,serif" font-size="14.00">rep=no, t=yes, r=no, m=yes, c=no</text>
</g>
<!-- n6&#45;&gt;n8 -->
<g id="edge16" class="edge">
<title>n6&#45;&gt;n8</title>
<path fill="none" stroke="black" d="M1357.9,-555.27C1349.19,-545.78 1339.71,-535.45 1330.69,-525.62"/>
<polygon fill="black" stroke="black" points="1333.25,-523.23 1323.91,-518.23 1328.09,-527.96 1333.25,-523.23"/>
</g>
<!-- n13 -->
<g id="node19" class="node">
<title>n13</title>
<ellipse fill="#BEDA48" stroke="black" cx="1890.92" cy="-481.29" rx="190.84" ry="37.45"/>
<text text-anchor="middle" x="1890.92" y="-492.59" font-family="Times,serif" font-size="14.00">diferencias</text>
<text text-anchor="middle" x="1890.92" y="-477.59" font-family="Times,serif" font-size="14.00">ncfp000 (pobj)</text>
<text text-anchor="middle" x="1890.92" y="-462.59" font-family="Times,serif" font-size="14.00">rep=no, t=yes, r=no, m=yes, c=no</text>
</g>
<!-- n10&#45;&gt;n13 -->
<g id="edge18" class="edge">
<title>n10&#45;&gt;n13</title>
<path fill="none" stroke="black" d="M1824.61,-555.27C1833.14,-545.88 1842.43,-535.65 1851.28,-525.91"/>
<polygon fill="black" stroke="black" points="1854.13,-527.98 1858.26,-518.23 1848.95,-523.28 1854.13,-527.98"/>
</g>
<!-- n7 -->
<g id="node18" class="node">
<title>n7</title>
<ellipse fill="#BEDA48" stroke="black" cx="1090.92" cy="-370.34" rx="190.84" ry="37.45"/>
<text text-anchor="middle" x="1090.92" y="-381.64" font-family="Times,serif" font-size="14.00">el</text>
<text text-anchor="middle" x="1090.92" y="-366.64" font-family="Times,serif" font-size="14.00">da0ms0 (det)</text>
<text text-anchor="middle" x="1090.92" y="-351.64" font-family="Times,serif" font-size="14.00">rep=no, t=yes, r=no, m=yes, c=no</text>
</g>
<!-- n8&#45;&gt;n7 -->
<g id="edge17" class="edge">
<title>n8&#45;&gt;n7</title>
<path fill="none" stroke="black" d="M1227.64,-445.82C1207.11,-434.63 1184.18,-422.14 1163.06,-410.64"/>
<polygon fill="black" stroke="black" points="1164.59,-407.48 1154.13,-405.77 1161.24,-413.63 1164.59,-407.48"/>
</g>
<!-- n11 -->
<g id="node20" class="node">
<title>n11</title>
<ellipse fill="#BEDA48" stroke="black" cx="1490.92" cy="-370.34" rx="190.84" ry="37.45"/>
<text text-anchor="middle" x="1490.92" y="-381.64" font-family="Times,serif" font-size="14.00">las</text>
<text text-anchor="middle" x="1490.92" y="-366.64" font-family="Times,serif" font-size="14.00">da0fp0 (det)</text>
<text text-anchor="middle" x="1490.92" y="-351.64" font-family="Times,serif" font-size="14.00">rep=no, t=yes, r=no, m=yes, c=no</text>
</g>
<!-- n13&#45;&gt;n11 -->
<g id="edge19" class="edge">
<title>n13&#45;&gt;n11</title>
<path fill="none" stroke="black" d="M1781.62,-450.52C1728.48,-436.04 1664.51,-418.62 1610.12,-403.81"/>
<polygon fill="black" stroke="black" points="1611,-400.42 1600.44,-401.17 1609.16,-407.17 1611,-400.42"/>
</g>
<!-- n12 -->
<g id="node21" class="node">
<title>n12</title>
<ellipse fill="#BEDA48" stroke="black" cx="1890.92" cy="-370.34" rx="190.84" ry="37.45"/>
<text text-anchor="middle" x="1890.92" y="-381.64" font-family="Times,serif" font-size="14.00">enormes</text>
<text text-anchor="middle" x="1890.92" y="-366.64" font-family="Times,serif" font-size="14.00">aq0cp0 (amod)</text>
<text text-anchor="middle" x="1890.92" y="-351.64" font-family="Times,serif" font-size="14.00">rep=no, t=yes, r=no, m=yes, c=no</text>
</g>
<!-- n13&#45;&gt;n12 -->
<g id="edge20" class="edge">
<title>n13&#45;&gt;n12</title>
<path fill="none" stroke="black" d="M1890.92,-443.71C1890.92,-435.53 1890.92,-426.75 1890.92,-418.23"/>
<polygon fill="black" stroke="black" points="1894.42,-418.01 1890.92,-408.01 1887.42,-418.01 1894.42,-418.01"/>
</g>
<!-- n14 -->
<g id="node22" class="node">
<title>n14</title>
<ellipse fill="#BEDA48" stroke="black" cx="2290.92" cy="-370.34" rx="190.84" ry="37.45"/>
<text text-anchor="middle" x="2290.92" y="-381.64" font-family="Times,serif" font-size="14.00">existentes</text>
<text text-anchor="middle" x="2290.92" y="-366.64" font-family="Times,serif" font-size="14.00">aq0cp0 (amod)</text>
<text text-anchor="middle" x="2290.92" y="-351.64" font-family="Times,serif" font-size="14.00">rep=no, t=yes, r=no, m=yes, c=no</text>
</g>
<!-- n13&#45;&gt;n14 -->
<g id="edge21" class="edge">
<title>n13&#45;&gt;n14</title>
<path fill="none" stroke="black" d="M2000.22,-450.52C2053.36,-436.04 2117.33,-418.62 2171.71,-403.81"/>
<polygon fill="black" stroke="black" points="2172.67,-407.17 2181.4,-401.17 2170.83,-400.42 2172.67,-407.17"/>
</g>
<!-- n15 -->
<g id="node23" class="node">
<title>n15</title>
<ellipse fill="#BEDA48" stroke="black" cx="2690.92" cy="-370.34" rx="190.84" ry="37.45"/>
<text text-anchor="middle" x="2690.92" y="-381.64" font-family="Times,serif" font-size="14.00">entre</text>
<text text-anchor="middle" x="2690.92" y="-366.64" font-family="Times,serif" font-size="14.00">sps00 (prepn)</text>
<text text-anchor="middle" x="2690.92" y="-351.64" font-family="Times,serif" font-size="14.00">rep=no, t=yes, r=no, m=yes, c=no</text>
</g>
<!-- n13&#45;&gt;n15 -->
<g id="edge22" class="edge">
<title>n13&#45;&gt;n15</title>
<path fill="none" stroke="black" d="M2057.46,-462.89C2178.08,-449.63 2344.9,-429.93 2490.92,-407.81 2508.96,-405.08 2527.88,-401.96 2546.57,-398.73"/>
<polygon fill="black" stroke="black" points="2547.38,-402.14 2556.63,-396.98 2546.17,-395.25 2547.38,-402.14"/>
</g>
<!-- n17 -->
<g id="node24" class="node">
<title>n17</title>
<ellipse fill="#BEDA48" stroke="black" cx="2690.92" cy="-259.38" rx="190.84" ry="37.45"/>
<text text-anchor="middle" x="2690.92" y="-270.68" font-family="Times,serif" font-size="14.00">iglesias</text>
<text text-anchor="middle" x="2690.92" y="-255.68" font-family="Times,serif" font-size="14.00">ncfp000 (pobj)</text>
<text text-anchor="middle" x="2690.92" y="-240.68" font-family="Times,serif" font-size="14.00">rep=no, t=yes, r=no, m=yes, c=no</text>
</g>
<!-- n15&#45;&gt;n17 -->
<g id="edge23" class="edge">
<title>n15&#45;&gt;n17</title>
<path fill="none" stroke="black" d="M2690.92,-332.75C2690.92,-324.58 2690.92,-315.8 2690.92,-307.27"/>
<polygon fill="black" stroke="black" points="2694.42,-307.06 2690.92,-297.06 2687.42,-307.06 2694.42,-307.06"/>
</g>
<!-- n16 -->
<g id="node25" class="node">
<title>n16</title>
<ellipse fill="#BEDA48" stroke="black" cx="2690.92" cy="-148.43" rx="190.84" ry="37.45"/>
<text text-anchor="middle" x="2690.92" y="-159.73" font-family="Times,serif" font-size="14.00">ambas</text>
<text text-anchor="middle" x="2690.92" y="-144.73" font-family="Times,serif" font-size="14.00">dn0fp0 (det)</text>
<text text-anchor="middle" x="2690.92" y="-129.73" font-family="Times,serif" font-size="14.00">rep=no, t=yes, r=no, m=yes, c=no</text>
</g>
<!-- n17&#45;&gt;n16 -->
<g id="edge24" class="edge">
<title>n17&#45;&gt;n16</title>
<path fill="none" stroke="black" d="M2690.92,-221.8C2690.92,-213.63 2690.92,-204.85 2690.92,-196.32"/>
<polygon fill="black" stroke="black" points="2694.42,-196.1 2690.92,-186.1 2687.42,-196.1 2694.42,-196.1"/>
</g>
<!-- n27 -->
<g id="node30" class="node">
<title>n27</title>
<ellipse fill="#DA79E8" stroke="black" cx="3092.92" cy="-592.24" rx="190.84" ry="37.45"/>
<text text-anchor="middle" x="3092.92" y="-603.54" font-family="Times,serif" font-size="14.00">firmar</text>
<text text-anchor="middle" x="3092.92" y="-588.54" font-family="Times,serif" font-size="14.00">vmn0000 (pobj)</text>
<text text-anchor="middle" x="3092.92" y="-573.54" font-family="Times,serif" font-size="14.00">rep=no, t=no, r=yes, m=yes, c=no</text>
</g>
<!-- n26&#45;&gt;n27 -->
<g id="edge29" class="edge">
<title>n26&#45;&gt;n27</title>
<path fill="none" stroke="black" d="M3302.72,-669.95C3267.51,-657.08 3226.83,-642.2 3190.71,-629"/>
<polygon fill="black" stroke="black" points="3191.74,-625.65 3181.15,-625.5 3189.34,-632.22 3191.74,-625.65"/>
</g>
<!-- n29 -->
<g id="node31" class="node">
<title>n29</title>
<ellipse fill="#DA79E8" stroke="black" cx="3092.92" cy="-481.29" rx="190.84" ry="37.45"/>
<text text-anchor="middle" x="3092.92" y="-492.59" font-family="Times,serif" font-size="14.00">declaración</text>
<text text-anchor="middle" x="3092.92" y="-477.59" font-family="Times,serif" font-size="14.00">ncfs000 (dobj)</text>
<text text-anchor="middle" x="3092.92" y="-462.59" font-family="Times,serif" font-size="14.00">rep=no, t=no, r=yes, m=yes, c=no</text>
</g>
<!-- n27&#45;&gt;n29 -->
<g id="edge30" class="edge">
<title>n27&#45;&gt;n29</title>
<path fill="none" stroke="black" d="M3092.92,-554.66C3092.92,-546.49 3092.92,-537.71 3092.92,-529.18"/>
<polygon fill="black" stroke="black" points="3096.42,-528.96 3092.92,-518.96 3089.42,-528.96 3096.42,-528.96"/>
</g>
<!-- n28 -->
<g id="node32" class="node">
<title>n28</title>
<ellipse fill="#DA79E8" stroke="black" cx="3092.92" cy="-370.34" rx="190.84" ry="37.45"/>
<text text-anchor="middle" x="3092.92" y="-381.64" font-family="Times,serif" font-size="14.00">esta</text>
<text text-anchor="middle" x="3092.92" y="-366.64" font-family="Times,serif" font-size="14.00">dd0fs0 (det)</text>
<text text-anchor="middle" x="3092.92" y="-351.64" font-family="Times,serif" font-size="14.00">rep=no, t=no, r=yes, m=yes, c=no</text>
</g>
<!-- n29&#45;&gt;n28 -->
<g id="edge31" class="edge">
<title>n29&#45;&gt;n28</title>
<path fill="none" stroke="black" d="M3092.92,-443.71C3092.92,-435.53 3092.92,-426.75 3092.92,-418.23"/>
<polygon fill="black" stroke="black" points="3096.42,-418.01 3092.92,-408.01 3089.42,-418.01 3096.42,-418.01"/>
</g>
<!-- n35 -->
<g id="node35" class="node">
<title>n35</title>
<ellipse fill="none" stroke="black" cx="3984.92" cy="-703.2" rx="185.94" ry="37.45"/>
<text text-anchor="middle" x="3984.92" y="-714.5" font-family="Times,serif" font-size="14.00">anuncian</text>
<text text-anchor="middle" x="3984.92" y="-699.5" font-family="Times,serif" font-size="14.00">vmip3p0 (cobj)</text>
<text text-anchor="middle" x="3984.92" y="-684.5" font-family="Times,serif" font-size="14.00">rep=no, t=no, r=no, m=yes, c=no</text>
</g>
<!-- n33&#45;&gt;n35 -->
<g id="edge34" class="edge">
<title>n33&#45;&gt;n35</title>
<path fill="none" stroke="black" d="M3984.92,-776.57C3984.92,-768.39 3984.92,-759.61 3984.92,-751.09"/>
<polygon fill="black" stroke="black" points="3988.42,-750.87 3984.92,-740.87 3981.42,-750.87 3988.42,-750.87"/>
</g>
<!-- n54 -->
<g id="node36" class="node">
<title>n54</title>
<ellipse fill="none" stroke="black" cx="4374.92" cy="-703.2" rx="185.94" ry="37.45"/>
<text text-anchor="middle" x="4374.92" y="-714.5" font-family="Times,serif" font-size="14.00">&quot;</text>
<text text-anchor="middle" x="4374.92" y="-699.5" font-family="Times,serif" font-size="14.00">fe (punct)</text>
<text text-anchor="middle" x="4374.92" y="-684.5" font-family="Times,serif" font-size="14.00">rep=no, t=no, r=no, m=yes, c=no</text>
</g>
<!-- n33&#45;&gt;n54 -->
<g id="edge35" class="edge">
<title>n33&#45;&gt;n54</title>
<path fill="none" stroke="black" d="M4091.49,-783.38C4143.29,-768.91 4205.66,-751.48 4258.69,-736.67"/>
<polygon fill="black" stroke="black" points="4259.79,-739.99 4268.48,-733.93 4257.91,-733.25 4259.79,-739.99"/>
</g>
<!-- n34 -->
<g id="node37" class="node">
<title>n34</title>
<ellipse fill="none" stroke="black" cx="3487.92" cy="-592.24" rx="185.94" ry="37.45"/>
<text text-anchor="middle" x="3487.92" y="-603.54" font-family="Times,serif" font-size="14.00">se</text>
<text text-anchor="middle" x="3487.92" y="-588.54" font-family="Times,serif" font-size="14.00">p0000000 (reflec)</text>
<text text-anchor="middle" x="3487.92" y="-573.54" font-family="Times,serif" font-size="14.00">rep=no, t=no, r=no, m=yes, c=no</text>
</g>
<!-- n35&#45;&gt;n34 -->
<g id="edge36" class="edge">
<title>n35&#45;&gt;n34</title>
<path fill="none" stroke="black" d="M3861.43,-675.12C3788.52,-659.14 3696.19,-638.9 3621.58,-622.54"/>
<polygon fill="black" stroke="black" points="3622.15,-619.09 3611.64,-620.37 3620.66,-625.93 3622.15,-619.09"/>
</g>
<!-- n36 -->
<g id="node38" class="node">
<title>n36</title>
<ellipse fill="none" stroke="black" cx="3882.92" cy="-592.24" rx="190.84" ry="37.45"/>
<text text-anchor="middle" x="3882.92" y="-603.54" font-family="Times,serif" font-size="14.00">indulgencias</text>
<text text-anchor="middle" x="3882.92" y="-588.54" font-family="Times,serif" font-size="14.00">ncfp000 (nsubj)</text>
<text text-anchor="middle" x="3882.92" y="-573.54" font-family="Times,serif" font-size="14.00">rep=no, t=no, r=no, m=yes, c=yes</text>
</g>
<!-- n35&#45;&gt;n36 -->
<g id="edge37" class="edge">
<title>n35&#45;&gt;n36</title>
<path fill="none" stroke="black" d="M3951.24,-666.22C3942.36,-656.74 3932.69,-646.4 3923.49,-636.58"/>
<polygon fill="black" stroke="black" points="3925.95,-634.09 3916.56,-629.18 3920.84,-638.88 3925.95,-634.09"/>
</g>
<!-- n44 -->
<g id="node39" class="node">
<title>n44</title>
<ellipse fill="none" stroke="black" cx="4282.92" cy="-592.24" rx="190.84" ry="37.45"/>
<text text-anchor="middle" x="4282.92" y="-603.54" font-family="Times,serif" font-size="14.00">visita</text>
<text text-anchor="middle" x="4282.92" y="-588.54" font-family="Times,serif" font-size="14.00">ncfs000 (nsubj)</text>
<text text-anchor="middle" x="4282.92" y="-573.54" font-family="Times,serif" font-size="14.00">rep=no, t=no, r=no, m=yes, c=yes</text>
</g>
<!-- n35&#45;&gt;n44 -->
<g id="edge38" class="edge">
<title>n35&#45;&gt;n44</title>
<path fill="none" stroke="black" d="M4072.72,-670.1C4108.02,-657.19 4148.87,-642.25 4185.12,-629"/>
<polygon fill="black" stroke="black" points="4186.53,-632.21 4194.72,-625.49 4184.12,-625.64 4186.53,-632.21"/>
</g>
<!-- n47 -->
<g id="node40" class="node">
<title>n47</title>
<ellipse fill="none" stroke="black" cx="4677.92" cy="-592.24" rx="185.94" ry="37.45"/>
<text text-anchor="middle" x="4677.92" y="-603.54" font-family="Times,serif" font-size="14.00">y</text>
<text text-anchor="middle" x="4677.92" y="-588.54" font-family="Times,serif" font-size="14.00">cc (coord_fixed)</text>
<text text-anchor="middle" x="4677.92" y="-573.54" font-family="Times,serif" font-size="14.00">rep=no, t=no, r=no, m=yes, c=no</text>
</g>
<!-- n35&#45;&gt;n47 -->
<g id="edge39" class="edge">
<title>n35&#45;&gt;n47</title>
<path fill="none" stroke="black" d="M4115.57,-676.52C4137.03,-672.65 4159.07,-668.91 4179.92,-665.72 4313.98,-645.24 4348.86,-650.2 4482.92,-629.72 4500.51,-627.03 4518.95,-623.94 4537.18,-620.72"/>
<polygon fill="black" stroke="black" points="4538.04,-624.13 4547.27,-618.92 4536.81,-617.23 4538.04,-624.13"/>
</g>
<!-- n49 -->
<g id="node41" class="node">
<title>n49</title>
<ellipse fill="none" stroke="black" cx="5072.92" cy="-592.24" rx="190.84" ry="37.45"/>
<text text-anchor="middle" x="5072.92" y="-603.54" font-family="Times,serif" font-size="14.00">limosnas</text>
<text text-anchor="middle" x="5072.92" y="-588.54" font-family="Times,serif" font-size="14.00">ncfp000 (nsubj)</text>
<text text-anchor="middle" x="5072.92" y="-573.54" font-family="Times,serif" font-size="14.00">rep=no, t=no, r=no, m=yes, c=yes</text>
</g>
<!-- n35&#45;&gt;n49 -->
<g id="edge40" class="edge">
<title>n35&#45;&gt;n49</title>
<path fill="none" stroke="black" d="M4112.25,-675.86C4134.72,-671.93 4157.95,-668.33 4179.92,-665.72 4486.17,-629.29 4566.58,-665.46 4872.92,-629.72 4892.11,-627.48 4912.24,-624.53 4932.04,-621.28"/>
<polygon fill="black" stroke="black" points="4932.75,-624.71 4942.03,-619.6 4931.59,-617.8 4932.75,-624.71"/>
</g>
<!-- n37 -->
<g id="node42" class="node">
<title>n37</title>
<ellipse fill="none" stroke="black" cx="3508.92" cy="-481.29" rx="185.94" ry="37.45"/>
<text text-anchor="middle" x="3508.92" y="-492.59" font-family="Times,serif" font-size="14.00">a</text>
<text text-anchor="middle" x="3508.92" y="-477.59" font-family="Times,serif" font-size="14.00">sps00 (prepn)</text>
<text text-anchor="middle" x="3508.92" y="-462.59" font-family="Times,serif" font-size="14.00">rep=no, t=no, r=no, m=yes, c=no</text>
</g>
<!-- n36&#45;&gt;n37 -->
<g id="edge41" class="edge">
<title>n36&#45;&gt;n37</title>
<path fill="none" stroke="black" d="M3778.24,-560.75C3729.72,-546.61 3671.96,-529.79 3622.4,-515.35"/>
<polygon fill="black" stroke="black" points="3623.18,-511.93 3612.6,-512.49 3621.22,-518.65 3623.18,-511.93"/>
</g>
<!-- n43 -->
<g id="node47" class="node">
<title>n43</title>
<ellipse fill="none" stroke="black" cx="3898.92" cy="-481.29" rx="185.94" ry="37.45"/>
<text text-anchor="middle" x="3898.92" y="-492.59" font-family="Times,serif" font-size="14.00">la</text>
<text text-anchor="middle" x="3898.92" y="-477.59" font-family="Times,serif" font-size="14.00">da0fs0 (det)</text>
<text text-anchor="middle" x="3898.92" y="-462.59" font-family="Times,serif" font-size="14.00">rep=no, t=no, r=no, m=yes, c=no</text>
</g>
<!-- n44&#45;&gt;n43 -->
<g id="edge46" class="edge">
<title>n44&#45;&gt;n43</title>
<path fill="none" stroke="black" d="M4176.46,-561.04C4126,-546.72 4065.63,-529.59 4014.1,-514.97"/>
<polygon fill="black" stroke="black" points="4014.83,-511.54 4004.25,-512.18 4012.92,-518.27 4014.83,-511.54"/>
</g>
<!-- n45 -->
<g id="node48" class="node">
<title>n45</title>
<ellipse fill="none" stroke="black" cx="4288.92" cy="-481.29" rx="185.94" ry="37.45"/>
<text text-anchor="middle" x="4288.92" y="-492.59" font-family="Times,serif" font-size="14.00">a</text>
<text text-anchor="middle" x="4288.92" y="-477.59" font-family="Times,serif" font-size="14.00">sps00 (prepn)</text>
<text text-anchor="middle" x="4288.92" y="-462.59" font-family="Times,serif" font-size="14.00">rep=no, t=no, r=no, m=yes, c=no</text>
</g>
<!-- n44&#45;&gt;n45 -->
<g id="edge47" class="edge">
<title>n44&#45;&gt;n45</title>
<path fill="none" stroke="black" d="M4284.93,-554.66C4285.38,-546.49 4285.87,-537.71 4286.34,-529.18"/>
<polygon fill="black" stroke="black" points="4289.84,-529.14 4286.9,-518.96 4282.85,-528.75 4289.84,-529.14"/>
</g>
<!-- n42 -->
<g id="node50" class="node">
<title>n42</title>
<ellipse fill="none" stroke="black" cx="4678.92" cy="-481.29" rx="185.94" ry="37.45"/>
<text text-anchor="middle" x="4678.92" y="-492.59" font-family="Times,serif" font-size="14.00">,</text>
<text text-anchor="middle" x="4678.92" y="-477.59" font-family="Times,serif" font-size="14.00">fc (punct)</text>
<text text-anchor="middle" x="4678.92" y="-462.59" font-family="Times,serif" font-size="14.00">rep=no, t=no, r=no, m=yes, c=no</text>
</g>
<!-- n47&#45;&gt;n42 -->
<g id="edge49" class="edge">
<title>n47&#45;&gt;n42</title>
<path fill="none" stroke="black" d="M4678.25,-554.66C4678.33,-546.49 4678.41,-537.71 4678.49,-529.18"/>
<polygon fill="black" stroke="black" points="4681.99,-528.99 4678.58,-518.96 4674.99,-528.93 4681.99,-528.99"/>
</g>
<!-- n48 -->
<g id="node51" class="node">
<title>n48</title>
<ellipse fill="none" stroke="black" cx="5070.92" cy="-481.29" rx="185.94" ry="37.45"/>
<text text-anchor="middle" x="5070.92" y="-492.59" font-family="Times,serif" font-size="14.00">las</text>
<text text-anchor="middle" x="5070.92" y="-477.59" font-family="Times,serif" font-size="14.00">da0fp0 (det)</text>
<text text-anchor="middle" x="5070.92" y="-462.59" font-family="Times,serif" font-size="14.00">rep=no, t=no, r=no, m=yes, c=no</text>
</g>
<!-- n49&#45;&gt;n48 -->
<g id="edge50" class="edge">
<title>n49&#45;&gt;n48</title>
<path fill="none" stroke="black" d="M5072.25,-554.66C5072.1,-546.49 5071.94,-537.71 5071.78,-529.18"/>
<polygon fill="black" stroke="black" points="5075.28,-528.9 5071.59,-518.96 5068.28,-529.02 5075.28,-528.9"/>
</g>
<!-- n50 -->
<g id="node52" class="node">
<title>n50</title>
<ellipse fill="none" stroke="black" cx="5460.92" cy="-481.29" rx="185.94" ry="37.45"/>
<text text-anchor="middle" x="5460.92" y="-492.59" font-family="Times,serif" font-size="14.00">para</text>
<text text-anchor="middle" x="5460.92" y="-477.59" font-family="Times,serif" font-size="14.00">sps00 (prepn)</text>
<text text-anchor="middle" x="5460.92" y="-462.59" font-family="Times,serif" font-size="14.00">rep=no, t=no, r=no, m=yes, c=no</text>
</g>
<!-- n49&#45;&gt;n50 -->
<g id="edge51" class="edge">
<title>n49&#45;&gt;n50</title>
<path fill="none" stroke="black" d="M5179.97,-561.18C5231.18,-546.8 5292.57,-529.56 5344.9,-514.87"/>
<polygon fill="black" stroke="black" points="5345.87,-518.23 5354.55,-512.16 5343.98,-511.49 5345.87,-518.23"/>
</g>
<!-- n38 -->
<g id="node43" class="node">
<title>n38</title>
<ellipse fill="none" stroke="black" cx="3508.92" cy="-370.34" rx="185.94" ry="37.45"/>
<text text-anchor="middle" x="3508.92" y="-381.64" font-family="Times,serif" font-size="14.00">través</text>
<text text-anchor="middle" x="3508.92" y="-366.64" font-family="Times,serif" font-size="14.00">ncfs000 (pobj)</text>
<text text-anchor="middle" x="3508.92" y="-351.64" font-family="Times,serif" font-size="14.00">rep=no, t=no, r=no, m=yes, c=no</text>
</g>
<!-- n37&#45;&gt;n38 -->
<g id="edge42" class="edge">
<title>n37&#45;&gt;n38</title>
<path fill="none" stroke="black" d="M3508.92,-443.71C3508.92,-435.53 3508.92,-426.75 3508.92,-418.23"/>
<polygon fill="black" stroke="black" points="3512.42,-418.01 3508.92,-408.01 3505.42,-418.01 3512.42,-418.01"/>
</g>
<!-- n39 -->
<g id="node44" class="node">
<title>n39</title>
<ellipse fill="none" stroke="black" cx="3508.92" cy="-259.38" rx="185.94" ry="37.45"/>
<text text-anchor="middle" x="3508.92" y="-270.68" font-family="Times,serif" font-size="14.00">de</text>
<text text-anchor="middle" x="3508.92" y="-255.68" font-family="Times,serif" font-size="14.00">sps00 (prepn)</text>
<text text-anchor="middle" x="3508.92" y="-240.68" font-family="Times,serif" font-size="14.00">rep=no, t=no, r=no, m=yes, c=no</text>
</g>
<!-- n38&#45;&gt;n39 -->
<g id="edge43" class="edge">
<title>n38&#45;&gt;n39</title>
<path fill="none" stroke="black" d="M3508.92,-332.75C3508.92,-324.58 3508.92,-315.8 3508.92,-307.27"/>
<polygon fill="black" stroke="black" points="3512.42,-307.06 3508.92,-297.06 3505.42,-307.06 3512.42,-307.06"/>
</g>
<!-- n41 -->
<g id="node45" class="node">
<title>n41</title>
<ellipse fill="none" stroke="black" cx="3508.92" cy="-148.43" rx="185.94" ry="37.45"/>
<text text-anchor="middle" x="3508.92" y="-159.73" font-family="Times,serif" font-size="14.00">confesión</text>
<text text-anchor="middle" x="3508.92" y="-144.73" font-family="Times,serif" font-size="14.00">ncfs000 (pobj)</text>
<text text-anchor="middle" x="3508.92" y="-129.73" font-family="Times,serif" font-size="14.00">rep=no, t=no, r=no, m=yes, c=no</text>
</g>
<!-- n39&#45;&gt;n41 -->
<g id="edge44" class="edge">
<title>n39&#45;&gt;n41</title>
<path fill="none" stroke="black" d="M3508.92,-221.8C3508.92,-213.63 3508.92,-204.85 3508.92,-196.32"/>
<polygon fill="black" stroke="black" points="3512.42,-196.1 3508.92,-186.1 3505.42,-196.1 3512.42,-196.1"/>
</g>
<!-- n40 -->
<g id="node46" class="node">
<title>n40</title>
<ellipse fill="none" stroke="black" cx="3508.92" cy="-37.48" rx="185.94" ry="37.45"/>
<text text-anchor="middle" x="3508.92" y="-48.78" font-family="Times,serif" font-size="14.00">la</text>
<text text-anchor="middle" x="3508.92" y="-33.78" font-family="Times,serif" font-size="14.00">da0fs0 (det)</text>
<text text-anchor="middle" x="3508.92" y="-18.78" font-family="Times,serif" font-size="14.00">rep=no, t=no, r=no, m=yes, c=no</text>
</g>
<!-- n41&#45;&gt;n40 -->
<g id="edge45" class="edge">
<title>n41&#45;&gt;n40</title>
<path fill="none" stroke="black" d="M3508.92,-110.85C3508.92,-102.67 3508.92,-93.89 3508.92,-85.37"/>
<polygon fill="black" stroke="black" points="3512.42,-85.15 3508.92,-75.15 3505.42,-85.15 3512.42,-85.15"/>
</g>
<!-- n46 -->
<g id="node49" class="node">
<title>n46</title>
<ellipse fill="none" stroke="black" cx="4288.92" cy="-370.34" rx="185.94" ry="37.45"/>
<text text-anchor="middle" x="4288.92" y="-381.64" font-family="Times,serif" font-size="14.00">Roma</text>
<text text-anchor="middle" x="4288.92" y="-366.64" font-family="Times,serif" font-size="14.00">np00000 (pobj)</text>
<text text-anchor="middle" x="4288.92" y="-351.64" font-family="Times,serif" font-size="14.00">rep=no, t=no, r=no, m=yes, c=no</text>
</g>
<!-- n45&#45;&gt;n46 -->
<g id="edge48" class="edge">
<title>n45&#45;&gt;n46</title>
<path fill="none" stroke="black" d="M4288.92,-443.71C4288.92,-435.53 4288.92,-426.75 4288.92,-418.23"/>
<polygon fill="black" stroke="black" points="4292.42,-418.01 4288.92,-408.01 4285.42,-418.01 4292.42,-418.01"/>
</g>
<!-- n52 -->
<g id="node53" class="node">
<title>n52</title>
<ellipse fill="none" stroke="black" cx="5460.92" cy="-370.34" rx="185.94" ry="37.45"/>
<text text-anchor="middle" x="5460.92" y="-381.64" font-family="Times,serif" font-size="14.00">año</text>
<text text-anchor="middle" x="5460.92" y="-366.64" font-family="Times,serif" font-size="14.00">ncmp000 (pobj)</text>
<text text-anchor="middle" x="5460.92" y="-351.64" font-family="Times,serif" font-size="14.00">rep=no, t=no, r=no, m=yes, c=no</text>
</g>
<!-- n50&#45;&gt;n52 -->
<g id="edge52" class="edge">
<title>n50&#45;&gt;n52</title>
<path fill="none" stroke="black" d="M5460.92,-443.71C5460.92,-435.53 5460.92,-426.75 5460.92,-418.23"/>
<polygon fill="black" stroke="black" points="5464.42,-418.01 5460.92,-408.01 5457.42,-418.01 5464.42,-418.01"/>
</g>
<!-- n51 -->
<g id="node54" class="node">
<title>n51</title>
<ellipse fill="none" stroke="black" cx="5265.92" cy="-259.38" rx="185.94" ry="37.45"/>
<text text-anchor="middle" x="5265.92" y="-270.68" font-family="Times,serif" font-size="14.00">el</text>
<text text-anchor="middle" x="5265.92" y="-255.68" font-family="Times,serif" font-size="14.00">da0ms0 (det)</text>
<text text-anchor="middle" x="5265.92" y="-240.68" font-family="Times,serif" font-size="14.00">rep=no, t=no, r=no, m=yes, c=no</text>
</g>
<!-- n52&#45;&gt;n51 -->
<g id="edge53" class="edge">
<title>n52&#45;&gt;n51</title>
<path fill="none" stroke="black" d="M5399.22,-334.86C5379.29,-323.73 5357.05,-311.3 5336.53,-299.84"/>
<polygon fill="black" stroke="black" points="5337.99,-296.64 5327.55,-294.82 5334.57,-302.75 5337.99,-296.64"/>
</g>
<!-- n53 -->
<g id="node55" class="node">
<title>n53</title>
<ellipse fill="none" stroke="black" cx="5655.92" cy="-259.38" rx="185.94" ry="37.45"/>
<text text-anchor="middle" x="5655.92" y="-270.68" font-family="Times,serif" font-size="14.00">2000</text>
<text text-anchor="middle" x="5655.92" y="-255.68" font-family="Times,serif" font-size="14.00">zm (num)</text>
<text text-anchor="middle" x="5655.92" y="-240.68" font-family="Times,serif" font-size="14.00">rep=no, t=no, r=no, m=yes, c=no</text>
</g>
<!-- n52&#45;&gt;n53 -->
<g id="edge54" class="edge">
<title>n52&#45;&gt;n53</title>
<path fill="none" stroke="black" d="M5522.62,-334.86C5542.54,-323.73 5564.79,-311.3 5585.3,-299.84"/>
<polygon fill="black" stroke="black" points="5587.26,-302.75 5594.29,-294.82 5583.85,-296.64 5587.26,-302.75"/>
</g>
</g>
</svg>
