<?xml version="1.0" encoding="UTF-8" standalone="no"?>
<!DOCTYPE svg PUBLIC "-//W3C//DTD SVG 1.1//EN"
 "http://www.w3.org/Graphics/SVG/1.1/DTD/svg11.dtd">
<!-- Generated by graphviz version 2.43.0 (0)
 -->
<!-- Title: tree Pages: 1 -->
<svg width="4715pt" height="1082pt"
 viewBox="0.00 0.00 4714.70 1081.53" xmlns="http://www.w3.org/2000/svg" xmlns:xlink="http://www.w3.org/1999/xlink">
<g id="graph0" class="graph" transform="scale(1 1) rotate(0) translate(4 1077.53)">
<title>tree</title>
<polygon fill="white" stroke="transparent" points="-4,4 -4,-1077.53 4710.7,-1077.53 4710.7,4 -4,4"/>
<!-- n3 -->
<g id="node1" class="node">
<title>n3</title>
<ellipse fill="none" stroke="black" cx="752.73" cy="-1036.06" rx="181.95" ry="37.45"/>
<text text-anchor="middle" x="752.73" y="-1047.36" font-family="Times,serif" font-size="14.00">fue</text>
<text text-anchor="middle" x="752.73" y="-1032.36" font-family="Times,serif" font-size="14.00">vsis3s0 (root)</text>
<text text-anchor="middle" x="752.73" y="-1017.36" font-family="Times,serif" font-size="14.00">rep=no, t=no, r=no, m=no, c=no</text>
</g>
<!-- n2 -->
<g id="node2" class="node">
<title>n2</title>
<ellipse fill="none" stroke="black" cx="371.73" cy="-925.1" rx="181.95" ry="37.45"/>
<text text-anchor="middle" x="371.73" y="-936.4" font-family="Times,serif" font-size="14.00">información</text>
<text text-anchor="middle" x="371.73" y="-921.4" font-family="Times,serif" font-size="14.00">ncfs000 (nsubj)</text>
<text text-anchor="middle" x="371.73" y="-906.4" font-family="Times,serif" font-size="14.00">rep=no, t=no, r=no, m=no, c=no</text>
</g>
<!-- n3&#45;&gt;n2 -->
<g id="edge1" class="edge">
<title>n3&#45;&gt;n2</title>
<path fill="none" stroke="black" d="M648.62,-1005.28C598.11,-990.84 537.33,-973.46 485.6,-958.67"/>
<polygon fill="black" stroke="black" points="486.29,-955.22 475.71,-955.84 484.36,-961.95 486.29,-955.22"/>
</g>
<!-- n4 -->
<g id="node3" class="node">
<title>n4</title>
<ellipse fill="none" stroke="black" cx="752.73" cy="-925.1" rx="181.95" ry="37.45"/>
<text text-anchor="middle" x="752.73" y="-936.4" font-family="Times,serif" font-size="14.00">proporcionada</text>
<text text-anchor="middle" x="752.73" y="-921.4" font-family="Times,serif" font-size="14.00">vmp00sf (attr)</text>
<text text-anchor="middle" x="752.73" y="-906.4" font-family="Times,serif" font-size="14.00">rep=no, t=no, r=no, m=no, c=no</text>
</g>
<!-- n3&#45;&gt;n4 -->
<g id="edge2" class="edge">
<title>n3&#45;&gt;n4</title>
<path fill="none" stroke="black" d="M752.73,-998.47C752.73,-990.3 752.73,-981.52 752.73,-972.99"/>
<polygon fill="black" stroke="black" points="756.23,-972.78 752.73,-962.78 749.23,-972.78 756.23,-972.78"/>
</g>
<!-- n38 -->
<g id="node4" class="node">
<title>n38</title>
<ellipse fill="none" stroke="black" cx="1133.73" cy="-925.1" rx="181.95" ry="37.45"/>
<text text-anchor="middle" x="1133.73" y="-936.4" font-family="Times,serif" font-size="14.00">.</text>
<text text-anchor="middle" x="1133.73" y="-921.4" font-family="Times,serif" font-size="14.00">fp (punct)</text>
<text text-anchor="middle" x="1133.73" y="-906.4" font-family="Times,serif" font-size="14.00">rep=no, t=no, r=no, m=no, c=no</text>
</g>
<!-- n3&#45;&gt;n38 -->
<g id="edge3" class="edge">
<title>n3&#45;&gt;n38</title>
<path fill="none" stroke="black" d="M856.84,-1005.28C907.34,-990.84 968.12,-973.46 1019.86,-958.67"/>
<polygon fill="black" stroke="black" points="1021.09,-961.95 1029.74,-955.84 1019.17,-955.22 1021.09,-961.95"/>
</g>
<!-- n1 -->
<g id="node5" class="node">
<title>n1</title>
<ellipse fill="none" stroke="black" cx="371.73" cy="-814.15" rx="181.95" ry="37.45"/>
<text text-anchor="middle" x="371.73" y="-825.45" font-family="Times,serif" font-size="14.00">La</text>
<text text-anchor="middle" x="371.73" y="-810.45" font-family="Times,serif" font-size="14.00">da0fs0 (det)</text>
<text text-anchor="middle" x="371.73" y="-795.45" font-family="Times,serif" font-size="14.00">rep=no, t=no, r=no, m=no, c=no</text>
</g>
<!-- n2&#45;&gt;n1 -->
<g id="edge4" class="edge">
<title>n2&#45;&gt;n1</title>
<path fill="none" stroke="black" d="M371.73,-887.52C371.73,-879.35 371.73,-870.57 371.73,-862.04"/>
<polygon fill="black" stroke="black" points="375.23,-861.82 371.73,-851.82 368.23,-861.82 375.23,-861.82"/>
</g>
<!-- n5 -->
<g id="node6" class="node">
<title>n5</title>
<ellipse fill="none" stroke="black" cx="752.73" cy="-814.15" rx="181.95" ry="37.45"/>
<text text-anchor="middle" x="752.73" y="-825.45" font-family="Times,serif" font-size="14.00">ayer</text>
<text text-anchor="middle" x="752.73" y="-810.45" font-family="Times,serif" font-size="14.00">rg (advmod)</text>
<text text-anchor="middle" x="752.73" y="-795.45" font-family="Times,serif" font-size="14.00">rep=no, t=no, r=no, m=no, c=no</text>
</g>
<!-- n4&#45;&gt;n5 -->
<g id="edge5" class="edge">
<title>n4&#45;&gt;n5</title>
<path fill="none" stroke="black" d="M752.73,-887.52C752.73,-879.35 752.73,-870.57 752.73,-862.04"/>
<polygon fill="black" stroke="black" points="756.23,-861.82 752.73,-851.82 749.23,-861.82 756.23,-861.82"/>
</g>
<!-- n6 -->
<g id="node7" class="node">
<title>n6</title>
<ellipse fill="none" stroke="black" cx="1133.73" cy="-814.15" rx="181.95" ry="37.45"/>
<text text-anchor="middle" x="1133.73" y="-825.45" font-family="Times,serif" font-size="14.00">por</text>
<text text-anchor="middle" x="1133.73" y="-810.45" font-family="Times,serif" font-size="14.00">sps00 (agent)</text>
<text text-anchor="middle" x="1133.73" y="-795.45" font-family="Times,serif" font-size="14.00">rep=no, t=no, r=no, m=no, c=no</text>
</g>
<!-- n4&#45;&gt;n6 -->
<g id="edge6" class="edge">
<title>n4&#45;&gt;n6</title>
<path fill="none" stroke="black" d="M856.84,-894.33C907.34,-879.89 968.12,-862.51 1019.86,-847.71"/>
<polygon fill="black" stroke="black" points="1021.09,-851 1029.74,-844.89 1019.17,-844.27 1021.09,-851"/>
</g>
<!-- n9 -->
<g id="node8" class="node">
<title>n9</title>
<ellipse fill="none" stroke="black" cx="1133.73" cy="-703.2" rx="181.95" ry="37.45"/>
<text text-anchor="middle" x="1133.73" y="-714.5" font-family="Times,serif" font-size="14.00">cadena</text>
<text text-anchor="middle" x="1133.73" y="-699.5" font-family="Times,serif" font-size="14.00">ncfs000 (pobj)</text>
<text text-anchor="middle" x="1133.73" y="-684.5" font-family="Times,serif" font-size="14.00">rep=no, t=no, r=no, m=no, c=no</text>
</g>
<!-- n6&#45;&gt;n9 -->
<g id="edge7" class="edge">
<title>n6&#45;&gt;n9</title>
<path fill="none" stroke="black" d="M1133.73,-776.57C1133.73,-768.39 1133.73,-759.61 1133.73,-751.09"/>
<polygon fill="black" stroke="black" points="1137.23,-750.87 1133.73,-740.87 1130.23,-750.87 1137.23,-750.87"/>
</g>
<!-- n7 -->
<g id="node9" class="node">
<title>n7</title>
<ellipse fill="none" stroke="black" cx="181.73" cy="-592.24" rx="181.95" ry="37.45"/>
<text text-anchor="middle" x="181.73" y="-603.54" font-family="Times,serif" font-size="14.00">la</text>
<text text-anchor="middle" x="181.73" y="-588.54" font-family="Times,serif" font-size="14.00">da0fs0 (det)</text>
<text text-anchor="middle" x="181.73" y="-573.54" font-family="Times,serif" font-size="14.00">rep=no, t=no, r=no, m=no, c=no</text>
</g>
<!-- n9&#45;&gt;n7 -->
<g id="edge8" class="edge">
<title>n9&#45;&gt;n7</title>
<path fill="none" stroke="black" d="M962.56,-690.58C807.77,-678.97 573.81,-658.66 371.73,-629.72 354.33,-627.23 336.11,-624.23 318.13,-621.04"/>
<polygon fill="black" stroke="black" points="318.64,-617.58 308.18,-619.25 317.4,-624.47 318.64,-617.58"/>
</g>
<!-- n8 -->
<g id="node10" class="node">
<title>n8</title>
<ellipse fill="none" stroke="black" cx="562.73" cy="-592.24" rx="181.95" ry="37.45"/>
<text text-anchor="middle" x="562.73" y="-603.54" font-family="Times,serif" font-size="14.00">segunda</text>
<text text-anchor="middle" x="562.73" y="-588.54" font-family="Times,serif" font-size="14.00">ao0fs0 (amod)</text>
<text text-anchor="middle" x="562.73" y="-573.54" font-family="Times,serif" font-size="14.00">rep=no, t=no, r=no, m=no, c=no</text>
</g>
<!-- n9&#45;&gt;n8 -->
<g id="edge9" class="edge">
<title>n9&#45;&gt;n8</title>
<path fill="none" stroke="black" d="M1002.35,-677.26C928.91,-663.31 835.73,-645.58 752.73,-629.72 736.66,-626.65 719.83,-623.43 703.12,-620.22"/>
<polygon fill="black" stroke="black" points="703.77,-616.79 693.29,-618.34 702.45,-623.66 703.77,-616.79"/>
</g>
<!-- n10 -->
<g id="node11" class="node">
<title>n10</title>
<ellipse fill="none" stroke="black" cx="943.73" cy="-592.24" rx="181.95" ry="37.45"/>
<text text-anchor="middle" x="943.73" y="-603.54" font-family="Times,serif" font-size="14.00">de</text>
<text text-anchor="middle" x="943.73" y="-588.54" font-family="Times,serif" font-size="14.00">sps00 (prepn)</text>
<text text-anchor="middle" x="943.73" y="-573.54" font-family="Times,serif" font-size="14.00">rep=no, t=no, r=no, m=no, c=no</text>
</g>
<!-- n9&#45;&gt;n10 -->
<g id="edge10" class="edge">
<title>n9&#45;&gt;n10</title>
<path fill="none" stroke="black" d="M1073.61,-667.72C1054.19,-656.59 1032.52,-644.16 1012.53,-632.7"/>
<polygon fill="black" stroke="black" points="1014.19,-629.62 1003.78,-627.68 1010.71,-635.69 1014.19,-629.62"/>
</g>
<!-- n14 -->
<g id="node12" class="node">
<title>n14</title>
<ellipse fill="none" stroke="black" cx="1324.73" cy="-592.24" rx="181.95" ry="37.45"/>
<text text-anchor="middle" x="1324.73" y="-603.54" font-family="Times,serif" font-size="14.00">ZDF</text>
<text text-anchor="middle" x="1324.73" y="-588.54" font-family="Times,serif" font-size="14.00">np00000 (appos)</text>
<text text-anchor="middle" x="1324.73" y="-573.54" font-family="Times,serif" font-size="14.00">rep=no, t=no, r=no, m=no, c=no</text>
</g>
<!-- n9&#45;&gt;n14 -->
<g id="edge11" class="edge">
<title>n9&#45;&gt;n14</title>
<path fill="none" stroke="black" d="M1194.16,-667.72C1213.68,-656.59 1235.46,-644.16 1255.56,-632.7"/>
<polygon fill="black" stroke="black" points="1257.41,-635.67 1264.36,-627.68 1253.94,-629.59 1257.41,-635.67"/>
</g>
<!-- n16 -->
<g id="node13" class="node">
<title>n16</title>
<ellipse fill="none" stroke="black" cx="1705.73" cy="-592.24" rx="181.95" ry="37.45"/>
<text text-anchor="middle" x="1705.73" y="-603.54" font-family="Times,serif" font-size="14.00">,</text>
<text text-anchor="middle" x="1705.73" y="-588.54" font-family="Times,serif" font-size="14.00">fc (punct)</text>
<text text-anchor="middle" x="1705.73" y="-573.54" font-family="Times,serif" font-size="14.00">rep=no, t=no, r=no, m=no, c=no</text>
</g>
<!-- n9&#45;&gt;n16 -->
<g id="edge12" class="edge">
<title>n9&#45;&gt;n16</title>
<path fill="none" stroke="black" d="M1265.45,-677.28C1339.08,-663.33 1432.51,-645.6 1515.73,-629.72 1531.79,-626.65 1548.62,-623.43 1565.34,-620.23"/>
<polygon fill="black" stroke="black" points="1566,-623.67 1575.16,-618.35 1564.68,-616.79 1566,-623.67"/>
</g>
<!-- n21 -->
<g id="node14" class="node">
<title>n21</title>
<ellipse fill="none" stroke="black" cx="2184.73" cy="-592.24" rx="181.95" ry="37.45"/>
<text text-anchor="middle" x="2184.73" y="-603.54" font-family="Times,serif" font-size="14.00">dijo</text>
<text text-anchor="middle" x="2184.73" y="-588.54" font-family="Times,serif" font-size="14.00">vmis3s0 (dep)</text>
<text text-anchor="middle" x="2184.73" y="-573.54" font-family="Times,serif" font-size="14.00">rep=no, t=no, r=no, m=no, c=no</text>
</g>
<!-- n9&#45;&gt;n21 -->
<g id="edge13" class="edge">
<title>n9&#45;&gt;n21</title>
<path fill="none" stroke="black" d="M1299.84,-687.93C1454.5,-674.28 1691.4,-652.47 1896.73,-629.72 1937.91,-625.16 1982.35,-619.76 2023.7,-614.54"/>
<polygon fill="black" stroke="black" points="2024.39,-617.98 2033.87,-613.25 2023.51,-611.04 2024.39,-617.98"/>
</g>
<!-- n11 -->
<g id="node15" class="node">
<title>n11</title>
<ellipse fill="none" stroke="black" cx="752.73" cy="-481.29" rx="181.95" ry="37.45"/>
<text text-anchor="middle" x="752.73" y="-492.59" font-family="Times,serif" font-size="14.00">televisión</text>
<text text-anchor="middle" x="752.73" y="-477.59" font-family="Times,serif" font-size="14.00">ncfs000 (pobj)</text>
<text text-anchor="middle" x="752.73" y="-462.59" font-family="Times,serif" font-size="14.00">rep=no, t=no, r=no, m=no, c=no</text>
</g>
<!-- n10&#45;&gt;n11 -->
<g id="edge14" class="edge">
<title>n10&#45;&gt;n11</title>
<path fill="none" stroke="black" d="M883.29,-556.77C863.78,-545.64 841.99,-533.21 821.89,-521.75"/>
<polygon fill="black" stroke="black" points="823.51,-518.64 813.09,-516.73 820.05,-524.72 823.51,-518.64"/>
</g>
<!-- n13 -->
<g id="node17" class="node">
<title>n13</title>
<ellipse fill="none" stroke="black" cx="1133.73" cy="-481.29" rx="181.95" ry="37.45"/>
<text text-anchor="middle" x="1133.73" y="-492.59" font-family="Times,serif" font-size="14.00">(</text>
<text text-anchor="middle" x="1133.73" y="-477.59" font-family="Times,serif" font-size="14.00">fpa (punct)</text>
<text text-anchor="middle" x="1133.73" y="-462.59" font-family="Times,serif" font-size="14.00">rep=no, t=no, r=no, m=no, c=no</text>
</g>
<!-- n14&#45;&gt;n13 -->
<g id="edge16" class="edge">
<title>n14&#45;&gt;n13</title>
<path fill="none" stroke="black" d="M1264.29,-556.77C1244.78,-545.64 1222.99,-533.21 1202.89,-521.75"/>
<polygon fill="black" stroke="black" points="1204.51,-518.64 1194.09,-516.73 1201.05,-524.72 1204.51,-518.64"/>
</g>
<!-- n15 -->
<g id="node18" class="node">
<title>n15</title>
<ellipse fill="none" stroke="black" cx="1514.73" cy="-481.29" rx="181.95" ry="37.45"/>
<text text-anchor="middle" x="1514.73" y="-492.59" font-family="Times,serif" font-size="14.00">)</text>
<text text-anchor="middle" x="1514.73" y="-477.59" font-family="Times,serif" font-size="14.00">fpt (punct)</text>
<text text-anchor="middle" x="1514.73" y="-462.59" font-family="Times,serif" font-size="14.00">rep=no, t=no, r=no, m=no, c=no</text>
</g>
<!-- n14&#45;&gt;n15 -->
<g id="edge17" class="edge">
<title>n14&#45;&gt;n15</title>
<path fill="none" stroke="black" d="M1384.84,-556.77C1404.26,-545.64 1425.93,-533.21 1445.92,-521.75"/>
<polygon fill="black" stroke="black" points="1447.74,-524.74 1454.67,-516.73 1444.26,-518.66 1447.74,-524.74"/>
</g>
<!-- n17 -->
<g id="node19" class="node">
<title>n17</title>
<ellipse fill="none" stroke="black" cx="1895.73" cy="-481.29" rx="181.95" ry="37.45"/>
<text text-anchor="middle" x="1895.73" y="-492.59" font-family="Times,serif" font-size="14.00">a</text>
<text text-anchor="middle" x="1895.73" y="-477.59" font-family="Times,serif" font-size="14.00">sps00 (iobj)</text>
<text text-anchor="middle" x="1895.73" y="-462.59" font-family="Times,serif" font-size="14.00">rep=no, t=no, r=no, m=no, c=no</text>
</g>
<!-- n21&#45;&gt;n17 -->
<g id="edge18" class="edge">
<title>n21&#45;&gt;n17</title>
<path fill="none" stroke="black" d="M2099.19,-559C2065.11,-546.15 2025.75,-531.31 1990.78,-518.13"/>
<polygon fill="black" stroke="black" points="1991.64,-514.71 1981.04,-514.45 1989.17,-521.26 1991.64,-514.71"/>
</g>
<!-- n20 -->
<g id="node20" class="node">
<title>n20</title>
<ellipse fill="none" stroke="black" cx="2281.73" cy="-481.29" rx="185.94" ry="37.45"/>
<text text-anchor="middle" x="2281.73" y="-492.59" font-family="Times,serif" font-size="14.00">Weyrauch</text>
<text text-anchor="middle" x="2281.73" y="-477.59" font-family="Times,serif" font-size="14.00">np00000 (nsubj)</text>
<text text-anchor="middle" x="2281.73" y="-462.59" font-family="Times,serif" font-size="14.00">rep=yes, t=no, r=no, m=no, c=no</text>
</g>
<!-- n21&#45;&gt;n20 -->
<g id="edge19" class="edge">
<title>n21&#45;&gt;n20</title>
<path fill="none" stroke="black" d="M2216.76,-555.27C2225.12,-545.88 2234.22,-535.65 2242.89,-525.91"/>
<polygon fill="black" stroke="black" points="2245.69,-528.03 2249.73,-518.23 2240.47,-523.37 2245.69,-528.03"/>
</g>
<!-- n30 -->
<g id="node21" class="node">
<title>n30</title>
<ellipse fill="none" stroke="black" cx="2671.73" cy="-481.29" rx="181.95" ry="37.45"/>
<text text-anchor="middle" x="2671.73" y="-492.59" font-family="Times,serif" font-size="14.00">y</text>
<text text-anchor="middle" x="2671.73" y="-477.59" font-family="Times,serif" font-size="14.00">cc (coord_fixed)</text>
<text text-anchor="middle" x="2671.73" y="-462.59" font-family="Times,serif" font-size="14.00">rep=no, t=no, r=no, m=no, c=no</text>
</g>
<!-- n21&#45;&gt;n30 -->
<g id="edge20" class="edge">
<title>n21&#45;&gt;n30</title>
<path fill="none" stroke="black" d="M2305.73,-564.17C2377.17,-548.19 2467.61,-527.95 2540.72,-511.6"/>
<polygon fill="black" stroke="black" points="2541.93,-514.92 2550.92,-509.32 2540.4,-508.08 2541.93,-514.92"/>
</g>
<!-- n12 -->
<g id="node16" class="node">
<title>n12</title>
<ellipse fill="none" stroke="black" cx="752.73" cy="-370.34" rx="181.95" ry="37.45"/>
<text text-anchor="middle" x="752.73" y="-381.64" font-family="Times,serif" font-size="14.00">pública</text>
<text text-anchor="middle" x="752.73" y="-366.64" font-family="Times,serif" font-size="14.00">aq0fs0 (amod)</text>
<text text-anchor="middle" x="752.73" y="-351.64" font-family="Times,serif" font-size="14.00">rep=no, t=no, r=no, m=no, c=no</text>
</g>
<!-- n11&#45;&gt;n12 -->
<g id="edge15" class="edge">
<title>n11&#45;&gt;n12</title>
<path fill="none" stroke="black" d="M752.73,-443.71C752.73,-435.53 752.73,-426.75 752.73,-418.23"/>
<polygon fill="black" stroke="black" points="756.23,-418.01 752.73,-408.01 749.23,-418.01 756.23,-418.01"/>
</g>
<!-- n19 -->
<g id="node22" class="node">
<title>n19</title>
<ellipse fill="none" stroke="black" cx="1894.73" cy="-370.34" rx="181.95" ry="37.45"/>
<text text-anchor="middle" x="1894.73" y="-381.64" font-family="Times,serif" font-size="14.00">que</text>
<text text-anchor="middle" x="1894.73" y="-366.64" font-family="Times,serif" font-size="14.00">pr0cn000 (pobj)</text>
<text text-anchor="middle" x="1894.73" y="-351.64" font-family="Times,serif" font-size="14.00">rep=no, t=no, r=no, m=no, c=no</text>
</g>
<!-- n17&#45;&gt;n19 -->
<g id="edge21" class="edge">
<title>n17&#45;&gt;n19</title>
<path fill="none" stroke="black" d="M1895.39,-443.71C1895.32,-435.53 1895.24,-426.75 1895.16,-418.23"/>
<polygon fill="black" stroke="black" points="1898.65,-417.98 1895.06,-408.01 1891.66,-418.04 1898.65,-417.98"/>
</g>
<!-- n22 -->
<g id="node24" class="node">
<title>n22</title>
<ellipse fill="none" stroke="black" cx="2290.73" cy="-370.34" rx="181.95" ry="37.45"/>
<text text-anchor="middle" x="2290.73" y="-381.64" font-family="Times,serif" font-size="14.00">:</text>
<text text-anchor="middle" x="2290.73" y="-366.64" font-family="Times,serif" font-size="14.00">fd (punct)</text>
<text text-anchor="middle" x="2290.73" y="-351.64" font-family="Times,serif" font-size="14.00">rep=no, t=no, r=no, m=no, c=no</text>
</g>
<!-- n30&#45;&gt;n22 -->
<g id="edge23" class="edge">
<title>n30&#45;&gt;n22</title>
<path fill="none" stroke="black" d="M2567.62,-450.52C2517.11,-436.08 2456.33,-418.69 2404.6,-403.9"/>
<polygon fill="black" stroke="black" points="2405.29,-400.46 2394.71,-401.07 2403.36,-407.19 2405.29,-400.46"/>
</g>
<!-- n23 -->
<g id="node25" class="node">
<title>n23</title>
<ellipse fill="none" stroke="black" cx="2671.73" cy="-370.34" rx="181.95" ry="37.45"/>
<text text-anchor="middle" x="2671.73" y="-381.64" font-family="Times,serif" font-size="14.00">&quot;</text>
<text text-anchor="middle" x="2671.73" y="-366.64" font-family="Times,serif" font-size="14.00">fe (punct)</text>
<text text-anchor="middle" x="2671.73" y="-351.64" font-family="Times,serif" font-size="14.00">rep=no, t=no, r=no, m=no, c=no</text>
</g>
<!-- n30&#45;&gt;n23 -->
<g id="edge24" class="edge">
<title>n30&#45;&gt;n23</title>
<path fill="none" stroke="black" d="M2671.73,-443.71C2671.73,-435.53 2671.73,-426.75 2671.73,-418.23"/>
<polygon fill="black" stroke="black" points="2675.23,-418.01 2671.73,-408.01 2668.23,-418.01 2675.23,-418.01"/>
</g>
<!-- n26 -->
<g id="node26" class="node">
<title>n26</title>
<ellipse fill="none" stroke="black" cx="3057.73" cy="-370.34" rx="185.94" ry="37.45"/>
<text text-anchor="middle" x="3057.73" y="-381.64" font-family="Times,serif" font-size="14.00">verá</text>
<text text-anchor="middle" x="3057.73" y="-366.64" font-family="Times,serif" font-size="14.00">vmif3s0 (cobj)</text>
<text text-anchor="middle" x="3057.73" y="-351.64" font-family="Times,serif" font-size="14.00">rep=no, t=no, r=no, m=yes, c=no</text>
</g>
<!-- n30&#45;&gt;n26 -->
<g id="edge25" class="edge">
<title>n30&#45;&gt;n26</title>
<path fill="none" stroke="black" d="M2776.69,-450.66C2827.87,-436.22 2889.55,-418.81 2942.08,-403.98"/>
<polygon fill="black" stroke="black" points="2943.1,-407.33 2951.78,-401.24 2941.2,-400.59 2943.1,-407.33"/>
</g>
<!-- n37 -->
<g id="node27" class="node">
<title>n37</title>
<ellipse fill="none" stroke="black" cx="3443.73" cy="-370.34" rx="181.95" ry="37.45"/>
<text text-anchor="middle" x="3443.73" y="-381.64" font-family="Times,serif" font-size="14.00">&quot;</text>
<text text-anchor="middle" x="3443.73" y="-366.64" font-family="Times,serif" font-size="14.00">fe (punct)</text>
<text text-anchor="middle" x="3443.73" y="-351.64" font-family="Times,serif" font-size="14.00">rep=no, t=no, r=no, m=no, c=no</text>
</g>
<!-- n30&#45;&gt;n37 -->
<g id="edge26" class="edge">
<title>n30&#45;&gt;n37</title>
<path fill="none" stroke="black" d="M2831.17,-463.21C2948.13,-450 3110.65,-430.22 3252.73,-407.81 3269.96,-405.1 3288.02,-401.99 3305.87,-398.76"/>
<polygon fill="black" stroke="black" points="3306.55,-402.19 3315.76,-396.96 3305.29,-395.31 3306.55,-402.19"/>
</g>
<!-- n18 -->
<g id="node23" class="node">
<title>n18</title>
<ellipse fill="none" stroke="black" cx="1892.73" cy="-259.38" rx="181.95" ry="37.45"/>
<text text-anchor="middle" x="1892.73" y="-270.68" font-family="Times,serif" font-size="14.00">la</text>
<text text-anchor="middle" x="1892.73" y="-255.68" font-family="Times,serif" font-size="14.00">da0fs0 (det)</text>
<text text-anchor="middle" x="1892.73" y="-240.68" font-family="Times,serif" font-size="14.00">rep=no, t=no, r=no, m=no, c=no</text>
</g>
<!-- n19&#45;&gt;n18 -->
<g id="edge22" class="edge">
<title>n19&#45;&gt;n18</title>
<path fill="none" stroke="black" d="M1894.05,-332.75C1893.9,-324.58 1893.74,-315.8 1893.59,-307.27"/>
<polygon fill="black" stroke="black" points="1897.08,-306.99 1893.4,-297.06 1890.08,-307.12 1897.08,-306.99"/>
</g>
<!-- n24 -->
<g id="node28" class="node">
<title>n24</title>
<ellipse fill="none" stroke="black" cx="2278.73" cy="-259.38" rx="185.94" ry="37.45"/>
<text text-anchor="middle" x="2278.73" y="-270.68" font-family="Times,serif" font-size="14.00">Ahora</text>
<text text-anchor="middle" x="2278.73" y="-255.68" font-family="Times,serif" font-size="14.00">rg (advmod)</text>
<text text-anchor="middle" x="2278.73" y="-240.68" font-family="Times,serif" font-size="14.00">rep=no, t=no, r=no, m=yes, c=no</text>
</g>
<!-- n26&#45;&gt;n24 -->
<g id="edge27" class="edge">
<title>n26&#45;&gt;n24</title>
<path fill="none" stroke="black" d="M2928.2,-343.37C2906.4,-339.5 2883.96,-335.82 2862.73,-332.86 2690.76,-308.87 2645.69,-320.85 2473.73,-296.86 2455.73,-294.35 2436.86,-291.32 2418.26,-288.1"/>
<polygon fill="black" stroke="black" points="2418.71,-284.63 2408.25,-286.35 2417.5,-291.52 2418.71,-284.63"/>
</g>
<!-- n25 -->
<g id="node29" class="node">
<title>n25</title>
<ellipse fill="none" stroke="black" cx="2668.73" cy="-259.38" rx="185.94" ry="37.45"/>
<text text-anchor="middle" x="2668.73" y="-270.68" font-family="Times,serif" font-size="14.00">se</text>
<text text-anchor="middle" x="2668.73" y="-255.68" font-family="Times,serif" font-size="14.00">p0300000 (reflec)</text>
<text text-anchor="middle" x="2668.73" y="-240.68" font-family="Times,serif" font-size="14.00">rep=no, t=no, r=no, m=yes, c=no</text>
</g>
<!-- n26&#45;&gt;n25 -->
<g id="edge28" class="edge">
<title>n26&#45;&gt;n25</title>
<path fill="none" stroke="black" d="M2951.43,-339.56C2899.86,-325.12 2837.8,-307.74 2784.98,-292.94"/>
<polygon fill="black" stroke="black" points="2785.8,-289.54 2775.23,-290.21 2783.92,-296.28 2785.8,-289.54"/>
</g>
<!-- n27 -->
<g id="node30" class="node">
<title>n27</title>
<ellipse fill="none" stroke="black" cx="3058.73" cy="-259.38" rx="185.94" ry="37.45"/>
<text text-anchor="middle" x="3058.73" y="-270.68" font-family="Times,serif" font-size="14.00">sacudida</text>
<text text-anchor="middle" x="3058.73" y="-255.68" font-family="Times,serif" font-size="14.00">aq0fsp (cpred)</text>
<text text-anchor="middle" x="3058.73" y="-240.68" font-family="Times,serif" font-size="14.00">rep=no, t=no, r=no, m=yes, c=no</text>
</g>
<!-- n26&#45;&gt;n27 -->
<g id="edge29" class="edge">
<title>n26&#45;&gt;n27</title>
<path fill="none" stroke="black" d="M3058.06,-332.75C3058.14,-324.58 3058.22,-315.8 3058.3,-307.27"/>
<polygon fill="black" stroke="black" points="3061.8,-307.09 3058.39,-297.06 3054.8,-307.02 3061.8,-307.09"/>
</g>
<!-- n29 -->
<g id="node31" class="node">
<title>n29</title>
<ellipse fill="none" stroke="black" cx="3448.73" cy="-259.38" rx="185.94" ry="37.45"/>
<text text-anchor="middle" x="3448.73" y="-270.68" font-family="Times,serif" font-size="14.00">república</text>
<text text-anchor="middle" x="3448.73" y="-255.68" font-family="Times,serif" font-size="14.00">ncfs000 (nsubj)</text>
<text text-anchor="middle" x="3448.73" y="-240.68" font-family="Times,serif" font-size="14.00">rep=no, t=no, r=no, m=yes, c=no</text>
</g>
<!-- n26&#45;&gt;n29 -->
<g id="edge30" class="edge">
<title>n26&#45;&gt;n29</title>
<path fill="none" stroke="black" d="M3164.57,-339.56C3216.51,-325.09 3279.04,-307.67 3332.2,-292.85"/>
<polygon fill="black" stroke="black" points="3333.32,-296.18 3342.01,-290.12 3331.44,-289.43 3333.32,-296.18"/>
</g>
<!-- n32 -->
<g id="node32" class="node">
<title>n32</title>
<ellipse fill="none" stroke="black" cx="4033.73" cy="-259.38" rx="185.94" ry="37.45"/>
<text text-anchor="middle" x="4033.73" y="-270.68" font-family="Times,serif" font-size="14.00">sucederá</text>
<text text-anchor="middle" x="4033.73" y="-255.68" font-family="Times,serif" font-size="14.00">vmif3s0 (cobj)</text>
<text text-anchor="middle" x="4033.73" y="-240.68" font-family="Times,serif" font-size="14.00">rep=no, t=no, r=no, m=yes, c=no</text>
</g>
<!-- n26&#45;&gt;n32 -->
<g id="edge31" class="edge">
<title>n26&#45;&gt;n32</title>
<path fill="none" stroke="black" d="M3187.25,-343.36C3209.05,-339.49 3231.49,-335.82 3252.73,-332.86 3425.57,-308.79 3469.96,-312.99 3643.73,-296.86 3713.29,-290.4 3789.82,-283.26 3856.53,-277.01"/>
<polygon fill="black" stroke="black" points="3857.09,-280.47 3866.72,-276.06 3856.44,-273.5 3857.09,-280.47"/>
</g>
<!-- n28 -->
<g id="node33" class="node">
<title>n28</title>
<ellipse fill="none" stroke="black" cx="3350.73" cy="-148.43" rx="185.94" ry="37.45"/>
<text text-anchor="middle" x="3350.73" y="-159.73" font-family="Times,serif" font-size="14.00">la</text>
<text text-anchor="middle" x="3350.73" y="-144.73" font-family="Times,serif" font-size="14.00">da0fs0 (det)</text>
<text text-anchor="middle" x="3350.73" y="-129.73" font-family="Times,serif" font-size="14.00">rep=no, t=no, r=no, m=yes, c=no</text>
</g>
<!-- n29&#45;&gt;n28 -->
<g id="edge32" class="edge">
<title>n29&#45;&gt;n28</title>
<path fill="none" stroke="black" d="M3416.37,-222.41C3407.92,-213.02 3398.72,-202.79 3389.96,-193.05"/>
<polygon fill="black" stroke="black" points="3392.34,-190.46 3383.05,-185.37 3387.14,-195.15 3392.34,-190.46"/>
</g>
<!-- n31 -->
<g id="node34" class="node">
<title>n31</title>
<ellipse fill="none" stroke="black" cx="3740.73" cy="-148.43" rx="185.94" ry="37.45"/>
<text text-anchor="middle" x="3740.73" y="-159.73" font-family="Times,serif" font-size="14.00">luego</text>
<text text-anchor="middle" x="3740.73" y="-144.73" font-family="Times,serif" font-size="14.00">rg (advmod)</text>
<text text-anchor="middle" x="3740.73" y="-129.73" font-family="Times,serif" font-size="14.00">rep=no, t=no, r=no, m=yes, c=no</text>
</g>
<!-- n32&#45;&gt;n31 -->
<g id="edge33" class="edge">
<title>n32&#45;&gt;n31</title>
<path fill="none" stroke="black" d="M3947.01,-226.14C3912.38,-213.26 3872.39,-198.39 3836.88,-185.19"/>
<polygon fill="black" stroke="black" points="3838.07,-181.89 3827.48,-181.69 3835.63,-188.45 3838.07,-181.89"/>
</g>
<!-- n34 -->
<g id="node35" class="node">
<title>n34</title>
<ellipse fill="none" stroke="black" cx="4130.73" cy="-148.43" rx="185.94" ry="37.45"/>
<text text-anchor="middle" x="4130.73" y="-159.73" font-family="Times,serif" font-size="14.00">mismo</text>
<text text-anchor="middle" x="4130.73" y="-144.73" font-family="Times,serif" font-size="14.00">ncms000 (cpred)</text>
<text text-anchor="middle" x="4130.73" y="-129.73" font-family="Times,serif" font-size="14.00">rep=no, t=no, r=no, m=yes, c=no</text>
</g>
<!-- n32&#45;&gt;n34 -->
<g id="edge34" class="edge">
<title>n32&#45;&gt;n34</title>
<path fill="none" stroke="black" d="M4065.76,-222.41C4074.12,-213.02 4083.22,-202.79 4091.89,-193.05"/>
<polygon fill="black" stroke="black" points="4094.69,-195.17 4098.73,-185.37 4089.47,-190.51 4094.69,-195.17"/>
</g>
<!-- n35 -->
<g id="node36" class="node">
<title>n35</title>
<ellipse fill="none" stroke="black" cx="4520.73" cy="-148.43" rx="185.94" ry="37.45"/>
<text text-anchor="middle" x="4520.73" y="-159.73" font-family="Times,serif" font-size="14.00">con</text>
<text text-anchor="middle" x="4520.73" y="-144.73" font-family="Times,serif" font-size="14.00">sps00 (prepv)</text>
<text text-anchor="middle" x="4520.73" y="-129.73" font-family="Times,serif" font-size="14.00">rep=no, t=no, r=no, m=yes, c=no</text>
</g>
<!-- n32&#45;&gt;n35 -->
<g id="edge35" class="edge">
<title>n32&#45;&gt;n35</title>
<path fill="none" stroke="black" d="M4155.99,-231.03C4226.76,-215.2 4315.88,-195.26 4388.31,-179.05"/>
<polygon fill="black" stroke="black" points="4389.42,-182.39 4398.41,-176.79 4387.89,-175.56 4389.42,-182.39"/>
</g>
<!-- n33 -->
<g id="node37" class="node">
<title>n33</title>
<ellipse fill="none" stroke="black" cx="4130.73" cy="-37.48" rx="185.94" ry="37.45"/>
<text text-anchor="middle" x="4130.73" y="-48.78" font-family="Times,serif" font-size="14.00">lo</text>
<text text-anchor="middle" x="4130.73" y="-33.78" font-family="Times,serif" font-size="14.00">da0ns0 (det)</text>
<text text-anchor="middle" x="4130.73" y="-18.78" font-family="Times,serif" font-size="14.00">rep=no, t=no, r=no, m=yes, c=no</text>
</g>
<!-- n34&#45;&gt;n33 -->
<g id="edge36" class="edge">
<title>n34&#45;&gt;n33</title>
<path fill="none" stroke="black" d="M4130.73,-110.85C4130.73,-102.67 4130.73,-93.89 4130.73,-85.37"/>
<polygon fill="black" stroke="black" points="4134.23,-85.15 4130.73,-75.15 4127.23,-85.15 4134.23,-85.15"/>
</g>
<!-- n36 -->
<g id="node38" class="node">
<title>n36</title>
<ellipse fill="none" stroke="black" cx="4520.73" cy="-37.48" rx="185.94" ry="37.45"/>
<text text-anchor="middle" x="4520.73" y="-48.78" font-family="Times,serif" font-size="14.00">Europa</text>
<text text-anchor="middle" x="4520.73" y="-33.78" font-family="Times,serif" font-size="14.00">np00000 (pobj)</text>
<text text-anchor="middle" x="4520.73" y="-18.78" font-family="Times,serif" font-size="14.00">rep=no, t=no, r=no, m=yes, c=no</text>
</g>
<!-- n35&#45;&gt;n36 -->
<g id="edge37" class="edge">
<title>n35&#45;&gt;n36</title>
<path fill="none" stroke="black" d="M4520.73,-110.85C4520.73,-102.67 4520.73,-93.89 4520.73,-85.37"/>
<polygon fill="black" stroke="black" points="4524.23,-85.15 4520.73,-75.15 4517.23,-85.15 4524.23,-85.15"/>
</g>
</g>
</svg>
