<?xml version="1.0" encoding="UTF-8" standalone="no"?>
<!DOCTYPE svg PUBLIC "-//W3C//DTD SVG 1.1//EN"
 "http://www.w3.org/Graphics/SVG/1.1/DTD/svg11.dtd">
<!-- Generated by graphviz version 2.43.0 (0)
 -->
<!-- Title: tree Pages: 1 -->
<svg width="3770pt" height="860pt"
 viewBox="0.00 0.00 3769.89 859.63" xmlns="http://www.w3.org/2000/svg" xmlns:xlink="http://www.w3.org/1999/xlink">
<g id="graph0" class="graph" transform="scale(1 1) rotate(0) translate(4 855.63)">
<title>tree</title>
<polygon fill="white" stroke="transparent" points="-4,4 -4,-855.63 3765.89,-855.63 3765.89,4 -4,4"/>
<!-- n13 -->
<g id="node1" class="node">
<title>n13</title>
<ellipse fill="none" stroke="black" cx="1365.97" cy="-814.15" rx="185.94" ry="37.45"/>
<text text-anchor="middle" x="1365.97" y="-825.45" font-family="Times,serif" font-size="14.00">sino</text>
<text text-anchor="middle" x="1365.97" y="-810.45" font-family="Times,serif" font-size="14.00">cc (root)</text>
<text text-anchor="middle" x="1365.97" y="-795.45" font-family="Times,serif" font-size="14.00">rep=no, t=no, r=no, m=yes, c=no</text>
</g>
<!-- n8 -->
<g id="node2" class="node">
<title>n8</title>
<ellipse fill="#DA79E8" stroke="black" cx="1170.97" cy="-703.2" rx="190.84" ry="37.45"/>
<text text-anchor="middle" x="1170.97" y="-714.5" font-family="Times,serif" font-size="14.00">implica</text>
<text text-anchor="middle" x="1170.97" y="-699.5" font-family="Times,serif" font-size="14.00">vmip3s0 (cobj)</text>
<text text-anchor="middle" x="1170.97" y="-684.5" font-family="Times,serif" font-size="14.00">rep=no, t=no, r=yes, m=yes, c=no</text>
</g>
<!-- n13&#45;&gt;n8 -->
<g id="edge1" class="edge">
<title>n13&#45;&gt;n8</title>
<path fill="none" stroke="black" d="M1304.27,-778.68C1284.44,-767.6 1262.32,-755.24 1241.88,-743.82"/>
<polygon fill="black" stroke="black" points="1243.37,-740.64 1232.94,-738.82 1239.96,-746.75 1243.37,-740.64"/>
</g>
<!-- n24 -->
<g id="node3" class="node">
<title>n24</title>
<ellipse fill="none" stroke="black" cx="1561.97" cy="-703.2" rx="181.95" ry="37.45"/>
<text text-anchor="middle" x="1561.97" y="-714.5" font-family="Times,serif" font-size="14.00">.</text>
<text text-anchor="middle" x="1561.97" y="-699.5" font-family="Times,serif" font-size="14.00">fp (punct)</text>
<text text-anchor="middle" x="1561.97" y="-684.5" font-family="Times,serif" font-size="14.00">rep=no, t=no, r=no, m=no, c=no</text>
</g>
<!-- n13&#45;&gt;n24 -->
<g id="edge2" class="edge">
<title>n13&#45;&gt;n24</title>
<path fill="none" stroke="black" d="M1427.98,-778.68C1448.1,-767.49 1470.57,-755 1491.27,-743.5"/>
<polygon fill="black" stroke="black" points="1492.98,-746.55 1500.02,-738.63 1489.58,-740.43 1492.98,-746.55"/>
</g>
<!-- n1 -->
<g id="node4" class="node">
<title>n1</title>
<ellipse fill="none" stroke="black" cx="185.97" cy="-592.24" rx="185.94" ry="37.45"/>
<text text-anchor="middle" x="185.97" y="-603.54" font-family="Times,serif" font-size="14.00">En</text>
<text text-anchor="middle" x="185.97" y="-588.54" font-family="Times,serif" font-size="14.00">sps00 (prepv)</text>
<text text-anchor="middle" x="185.97" y="-573.54" font-family="Times,serif" font-size="14.00">rep=no, t=no, r=no, m=yes, c=no</text>
</g>
<!-- n8&#45;&gt;n1 -->
<g id="edge3" class="edge">
<title>n8&#45;&gt;n1</title>
<path fill="none" stroke="black" d="M991.19,-690.51C830.71,-678.94 589.51,-658.73 380.97,-629.72 362.97,-627.22 344.1,-624.19 325.5,-620.98"/>
<polygon fill="black" stroke="black" points="325.95,-617.5 315.5,-619.22 324.74,-624.4 325.95,-617.5"/>
</g>
<!-- n4 -->
<g id="node5" class="node">
<title>n4</title>
<ellipse fill="none" stroke="black" cx="575.97" cy="-592.24" rx="185.94" ry="37.45"/>
<text text-anchor="middle" x="575.97" y="-603.54" font-family="Times,serif" font-size="14.00">,</text>
<text text-anchor="middle" x="575.97" y="-588.54" font-family="Times,serif" font-size="14.00">fc (punct)</text>
<text text-anchor="middle" x="575.97" y="-573.54" font-family="Times,serif" font-size="14.00">rep=no, t=no, r=no, m=yes, c=no</text>
</g>
<!-- n8&#45;&gt;n4 -->
<g id="edge4" class="edge">
<title>n8&#45;&gt;n4</title>
<path fill="none" stroke="black" d="M1032.56,-677.32C955.52,-663.42 857.9,-645.73 770.97,-629.72 754.4,-626.67 737.05,-623.45 719.82,-620.25"/>
<polygon fill="black" stroke="black" points="720.17,-616.75 709.69,-618.36 718.88,-623.63 720.17,-616.75"/>
</g>
<!-- n6 -->
<g id="node6" class="node">
<title>n6</title>
<ellipse fill="#BEDA48" stroke="black" cx="970.97" cy="-592.24" rx="190.84" ry="37.45"/>
<text text-anchor="middle" x="970.97" y="-603.54" font-family="Times,serif" font-size="14.00">mundialización</text>
<text text-anchor="middle" x="970.97" y="-588.54" font-family="Times,serif" font-size="14.00">ncfs000 (nsubj)</text>
<text text-anchor="middle" x="970.97" y="-573.54" font-family="Times,serif" font-size="14.00">rep=no, t=yes, r=no, m=yes, c=no</text>
</g>
<!-- n8&#45;&gt;n6 -->
<g id="edge5" class="edge">
<title>n8&#45;&gt;n6</title>
<path fill="none" stroke="black" d="M1107.69,-667.72C1087.16,-656.54 1064.23,-644.05 1043.11,-632.54"/>
<polygon fill="black" stroke="black" points="1044.64,-629.39 1034.18,-627.68 1041.29,-635.54 1044.64,-629.39"/>
</g>
<!-- n7 -->
<g id="node7" class="node">
<title>n7</title>
<ellipse fill="#DA79E8" stroke="black" cx="1370.97" cy="-592.24" rx="190.84" ry="37.45"/>
<text text-anchor="middle" x="1370.97" y="-603.54" font-family="Times,serif" font-size="14.00">no</text>
<text text-anchor="middle" x="1370.97" y="-588.54" font-family="Times,serif" font-size="14.00">rn (neg)</text>
<text text-anchor="middle" x="1370.97" y="-573.54" font-family="Times,serif" font-size="14.00">rep=no, t=no, r=yes, m=yes, c=no</text>
</g>
<!-- n8&#45;&gt;n7 -->
<g id="edge6" class="edge">
<title>n8&#45;&gt;n7</title>
<path fill="none" stroke="black" d="M1234.25,-667.72C1254.78,-656.54 1277.7,-644.05 1298.83,-632.54"/>
<polygon fill="black" stroke="black" points="1300.65,-635.54 1307.76,-627.68 1297.3,-629.39 1300.65,-635.54"/>
</g>
<!-- n11 -->
<g id="node8" class="node">
<title>n11</title>
<ellipse fill="#DA79E8" stroke="black" cx="1770.97" cy="-592.24" rx="190.84" ry="37.45"/>
<text text-anchor="middle" x="1770.97" y="-603.54" font-family="Times,serif" font-size="14.00">interconexión</text>
<text text-anchor="middle" x="1770.97" y="-588.54" font-family="Times,serif" font-size="14.00">ncfs000 (dobj)</text>
<text text-anchor="middle" x="1770.97" y="-573.54" font-family="Times,serif" font-size="14.00">rep=no, t=no, r=yes, m=yes, c=no</text>
</g>
<!-- n8&#45;&gt;n11 -->
<g id="edge7" class="edge">
<title>n8&#45;&gt;n11</title>
<path fill="none" stroke="black" d="M1308.4,-677.09C1329.36,-673.27 1350.74,-669.39 1370.97,-665.72 1459.84,-649.62 1482.1,-645.82 1570.97,-629.72 1588.04,-626.63 1605.92,-623.38 1623.69,-620.15"/>
<polygon fill="black" stroke="black" points="1624.32,-623.59 1633.53,-618.35 1623.07,-616.7 1624.32,-623.59"/>
</g>
<!-- n17 -->
<g id="node9" class="node">
<title>n17</title>
<ellipse fill="#DA79E8" stroke="black" cx="2770.97" cy="-592.24" rx="190.84" ry="37.45"/>
<text text-anchor="middle" x="2770.97" y="-603.54" font-family="Times,serif" font-size="14.00">modificación</text>
<text text-anchor="middle" x="2770.97" y="-588.54" font-family="Times,serif" font-size="14.00">ncfs000 (cobj)</text>
<text text-anchor="middle" x="2770.97" y="-573.54" font-family="Times,serif" font-size="14.00">rep=no, t=no, r=yes, m=yes, c=no</text>
</g>
<!-- n8&#45;&gt;n17 -->
<g id="edge8" class="edge">
<title>n8&#45;&gt;n17</title>
<path fill="none" stroke="black" d="M1301.86,-675.83C1324.81,-671.92 1348.53,-668.34 1370.97,-665.72 1487.17,-652.17 2218.59,-618.09 2575.52,-601.96"/>
<polygon fill="black" stroke="black" points="2575.88,-605.45 2585.71,-601.5 2575.56,-598.46 2575.88,-605.45"/>
</g>
<!-- n3 -->
<g id="node10" class="node">
<title>n3</title>
<ellipse fill="none" stroke="black" cx="185.97" cy="-481.29" rx="185.94" ry="37.45"/>
<text text-anchor="middle" x="185.97" y="-492.59" font-family="Times,serif" font-size="14.00">lugar</text>
<text text-anchor="middle" x="185.97" y="-477.59" font-family="Times,serif" font-size="14.00">ncms000 (pobj)</text>
<text text-anchor="middle" x="185.97" y="-462.59" font-family="Times,serif" font-size="14.00">rep=no, t=no, r=no, m=yes, c=no</text>
</g>
<!-- n1&#45;&gt;n3 -->
<g id="edge9" class="edge">
<title>n1&#45;&gt;n3</title>
<path fill="none" stroke="black" d="M185.97,-554.66C185.97,-546.49 185.97,-537.71 185.97,-529.18"/>
<polygon fill="black" stroke="black" points="189.47,-528.96 185.97,-518.96 182.47,-528.96 189.47,-528.96"/>
</g>
<!-- n5 -->
<g id="node12" class="node">
<title>n5</title>
<ellipse fill="#BEDA48" stroke="black" cx="970.97" cy="-481.29" rx="190.84" ry="37.45"/>
<text text-anchor="middle" x="970.97" y="-492.59" font-family="Times,serif" font-size="14.00">la</text>
<text text-anchor="middle" x="970.97" y="-477.59" font-family="Times,serif" font-size="14.00">da0fs0 (det)</text>
<text text-anchor="middle" x="970.97" y="-462.59" font-family="Times,serif" font-size="14.00">rep=no, t=yes, r=no, m=yes, c=no</text>
</g>
<!-- n6&#45;&gt;n5 -->
<g id="edge11" class="edge">
<title>n6&#45;&gt;n5</title>
<path fill="none" stroke="black" d="M970.97,-554.66C970.97,-546.49 970.97,-537.71 970.97,-529.18"/>
<polygon fill="black" stroke="black" points="974.47,-528.96 970.97,-518.96 967.47,-528.96 974.47,-528.96"/>
</g>
<!-- n9 -->
<g id="node13" class="node">
<title>n9</title>
<ellipse fill="#DA79E8" stroke="black" cx="1370.97" cy="-481.29" rx="190.84" ry="37.45"/>
<text text-anchor="middle" x="1370.97" y="-492.59" font-family="Times,serif" font-size="14.00">sólo</text>
<text text-anchor="middle" x="1370.97" y="-477.59" font-family="Times,serif" font-size="14.00">rg (advmod)</text>
<text text-anchor="middle" x="1370.97" y="-462.59" font-family="Times,serif" font-size="14.00">rep=no, t=no, r=yes, m=yes, c=no</text>
</g>
<!-- n11&#45;&gt;n9 -->
<g id="edge12" class="edge">
<title>n11&#45;&gt;n9</title>
<path fill="none" stroke="black" d="M1661.67,-561.47C1608.53,-547 1544.56,-529.57 1490.17,-514.76"/>
<polygon fill="black" stroke="black" points="1491.05,-511.37 1480.49,-512.12 1489.21,-518.13 1491.05,-511.37"/>
</g>
<!-- n10 -->
<g id="node14" class="node">
<title>n10</title>
<ellipse fill="#DA79E8" stroke="black" cx="1770.97" cy="-481.29" rx="190.84" ry="37.45"/>
<text text-anchor="middle" x="1770.97" y="-492.59" font-family="Times,serif" font-size="14.00">la</text>
<text text-anchor="middle" x="1770.97" y="-477.59" font-family="Times,serif" font-size="14.00">da0fs0 (det)</text>
<text text-anchor="middle" x="1770.97" y="-462.59" font-family="Times,serif" font-size="14.00">rep=no, t=no, r=yes, m=yes, c=no</text>
</g>
<!-- n11&#45;&gt;n10 -->
<g id="edge13" class="edge">
<title>n11&#45;&gt;n10</title>
<path fill="none" stroke="black" d="M1770.97,-554.66C1770.97,-546.49 1770.97,-537.71 1770.97,-529.18"/>
<polygon fill="black" stroke="black" points="1774.47,-528.96 1770.97,-518.96 1767.47,-528.96 1774.47,-528.96"/>
</g>
<!-- n12 -->
<g id="node15" class="node">
<title>n12</title>
<ellipse fill="#DA79E8" stroke="black" cx="2170.97" cy="-481.29" rx="190.84" ry="37.45"/>
<text text-anchor="middle" x="2170.97" y="-492.59" font-family="Times,serif" font-size="14.00">económica</text>
<text text-anchor="middle" x="2170.97" y="-477.59" font-family="Times,serif" font-size="14.00">aq0fs0 (amod)</text>
<text text-anchor="middle" x="2170.97" y="-462.59" font-family="Times,serif" font-size="14.00">rep=no, t=no, r=yes, m=yes, c=no</text>
</g>
<!-- n11&#45;&gt;n12 -->
<g id="edge14" class="edge">
<title>n11&#45;&gt;n12</title>
<path fill="none" stroke="black" d="M1880.27,-561.47C1933.41,-547 1997.38,-529.57 2051.76,-514.76"/>
<polygon fill="black" stroke="black" points="2052.72,-518.13 2061.45,-512.12 2050.88,-511.37 2052.72,-518.13"/>
</g>
<!-- n15 -->
<g id="node16" class="node">
<title>n15</title>
<ellipse fill="#DA79E8" stroke="black" cx="2570.97" cy="-481.29" rx="190.84" ry="37.45"/>
<text text-anchor="middle" x="2570.97" y="-492.59" font-family="Times,serif" font-size="14.00">bien</text>
<text text-anchor="middle" x="2570.97" y="-477.59" font-family="Times,serif" font-size="14.00">rg (advmod)</text>
<text text-anchor="middle" x="2570.97" y="-462.59" font-family="Times,serif" font-size="14.00">rep=no, t=no, r=yes, m=yes, c=no</text>
</g>
<!-- n17&#45;&gt;n15 -->
<g id="edge15" class="edge">
<title>n17&#45;&gt;n15</title>
<path fill="none" stroke="black" d="M2707.69,-556.77C2687.16,-545.59 2664.23,-533.1 2643.11,-521.59"/>
<polygon fill="black" stroke="black" points="2644.64,-518.44 2634.18,-516.73 2641.29,-524.58 2644.64,-518.44"/>
</g>
<!-- n16 -->
<g id="node17" class="node">
<title>n16</title>
<ellipse fill="#DA79E8" stroke="black" cx="2970.97" cy="-481.29" rx="190.84" ry="37.45"/>
<text text-anchor="middle" x="2970.97" y="-492.59" font-family="Times,serif" font-size="14.00">la</text>
<text text-anchor="middle" x="2970.97" y="-477.59" font-family="Times,serif" font-size="14.00">da0fs0 (det)</text>
<text text-anchor="middle" x="2970.97" y="-462.59" font-family="Times,serif" font-size="14.00">rep=no, t=no, r=yes, m=yes, c=no</text>
</g>
<!-- n17&#45;&gt;n16 -->
<g id="edge16" class="edge">
<title>n17&#45;&gt;n16</title>
<path fill="none" stroke="black" d="M2834.25,-556.77C2854.78,-545.59 2877.7,-533.1 2898.83,-521.59"/>
<polygon fill="black" stroke="black" points="2900.65,-524.58 2907.76,-516.73 2897.3,-518.44 2900.65,-524.58"/>
</g>
<!-- n18 -->
<g id="node18" class="node">
<title>n18</title>
<ellipse fill="#DA79E8" stroke="black" cx="3370.97" cy="-481.29" rx="190.84" ry="37.45"/>
<text text-anchor="middle" x="3370.97" y="-492.59" font-family="Times,serif" font-size="14.00">de</text>
<text text-anchor="middle" x="3370.97" y="-477.59" font-family="Times,serif" font-size="14.00">sps00 (prepn)</text>
<text text-anchor="middle" x="3370.97" y="-462.59" font-family="Times,serif" font-size="14.00">rep=no, t=no, r=yes, m=yes, c=no</text>
</g>
<!-- n17&#45;&gt;n18 -->
<g id="edge17" class="edge">
<title>n17&#45;&gt;n18</title>
<path fill="none" stroke="black" d="M2908.89,-566.29C2985.99,-552.34 3083.83,-534.61 3170.97,-518.77 3188.04,-515.66 3205.92,-512.41 3223.68,-509.17"/>
<polygon fill="black" stroke="black" points="3224.32,-512.61 3233.53,-507.38 3223.07,-505.73 3224.32,-512.61"/>
</g>
<!-- n2 -->
<g id="node11" class="node">
<title>n2</title>
<ellipse fill="none" stroke="black" cx="185.97" cy="-370.34" rx="185.94" ry="37.45"/>
<text text-anchor="middle" x="185.97" y="-381.64" font-family="Times,serif" font-size="14.00">primer</text>
<text text-anchor="middle" x="185.97" y="-366.64" font-family="Times,serif" font-size="14.00">ao0ms0 (amod)</text>
<text text-anchor="middle" x="185.97" y="-351.64" font-family="Times,serif" font-size="14.00">rep=no, t=no, r=no, m=yes, c=no</text>
</g>
<!-- n3&#45;&gt;n2 -->
<g id="edge10" class="edge">
<title>n3&#45;&gt;n2</title>
<path fill="none" stroke="black" d="M185.97,-443.71C185.97,-435.53 185.97,-426.75 185.97,-418.23"/>
<polygon fill="black" stroke="black" points="189.47,-418.01 185.97,-408.01 182.47,-418.01 189.47,-418.01"/>
</g>
<!-- n14 -->
<g id="node19" class="node">
<title>n14</title>
<ellipse fill="#DA79E8" stroke="black" cx="2570.97" cy="-370.34" rx="190.84" ry="37.45"/>
<text text-anchor="middle" x="2570.97" y="-381.64" font-family="Times,serif" font-size="14.00">más</text>
<text text-anchor="middle" x="2570.97" y="-366.64" font-family="Times,serif" font-size="14.00">rg (advmod)</text>
<text text-anchor="middle" x="2570.97" y="-351.64" font-family="Times,serif" font-size="14.00">rep=no, t=no, r=yes, m=yes, c=no</text>
</g>
<!-- n15&#45;&gt;n14 -->
<g id="edge18" class="edge">
<title>n15&#45;&gt;n14</title>
<path fill="none" stroke="black" d="M2570.97,-443.71C2570.97,-435.53 2570.97,-426.75 2570.97,-418.23"/>
<polygon fill="black" stroke="black" points="2574.47,-418.01 2570.97,-408.01 2567.47,-418.01 2574.47,-418.01"/>
</g>
<!-- n20 -->
<g id="node20" class="node">
<title>n20</title>
<ellipse fill="#DA79E8" stroke="black" cx="3370.97" cy="-370.34" rx="190.84" ry="37.45"/>
<text text-anchor="middle" x="3370.97" y="-381.64" font-family="Times,serif" font-size="14.00">escala</text>
<text text-anchor="middle" x="3370.97" y="-366.64" font-family="Times,serif" font-size="14.00">ncfs000 (pobj)</text>
<text text-anchor="middle" x="3370.97" y="-351.64" font-family="Times,serif" font-size="14.00">rep=no, t=no, r=yes, m=yes, c=no</text>
</g>
<!-- n18&#45;&gt;n20 -->
<g id="edge19" class="edge">
<title>n18&#45;&gt;n20</title>
<path fill="none" stroke="black" d="M3370.97,-443.71C3370.97,-435.53 3370.97,-426.75 3370.97,-418.23"/>
<polygon fill="black" stroke="black" points="3374.47,-418.01 3370.97,-408.01 3367.47,-418.01 3374.47,-418.01"/>
</g>
<!-- n19 -->
<g id="node21" class="node">
<title>n19</title>
<ellipse fill="#DA79E8" stroke="black" cx="3170.97" cy="-259.38" rx="190.84" ry="37.45"/>
<text text-anchor="middle" x="3170.97" y="-270.68" font-family="Times,serif" font-size="14.00">la</text>
<text text-anchor="middle" x="3170.97" y="-255.68" font-family="Times,serif" font-size="14.00">da0fs0 (det)</text>
<text text-anchor="middle" x="3170.97" y="-240.68" font-family="Times,serif" font-size="14.00">rep=no, t=no, r=yes, m=yes, c=no</text>
</g>
<!-- n20&#45;&gt;n19 -->
<g id="edge20" class="edge">
<title>n20&#45;&gt;n19</title>
<path fill="none" stroke="black" d="M3307.69,-334.86C3287.16,-323.68 3264.23,-311.19 3243.11,-299.68"/>
<polygon fill="black" stroke="black" points="3244.64,-296.53 3234.18,-294.82 3241.29,-302.68 3244.64,-296.53"/>
</g>
<!-- n21 -->
<g id="node22" class="node">
<title>n21</title>
<ellipse fill="#DA79E8" stroke="black" cx="3570.97" cy="-259.38" rx="190.84" ry="37.45"/>
<text text-anchor="middle" x="3570.97" y="-270.68" font-family="Times,serif" font-size="14.00">de</text>
<text text-anchor="middle" x="3570.97" y="-255.68" font-family="Times,serif" font-size="14.00">sps00 (prepn)</text>
<text text-anchor="middle" x="3570.97" y="-240.68" font-family="Times,serif" font-size="14.00">rep=no, t=no, r=yes, m=yes, c=no</text>
</g>
<!-- n20&#45;&gt;n21 -->
<g id="edge21" class="edge">
<title>n20&#45;&gt;n21</title>
<path fill="none" stroke="black" d="M3434.25,-334.86C3454.78,-323.68 3477.7,-311.19 3498.83,-299.68"/>
<polygon fill="black" stroke="black" points="3500.65,-302.68 3507.76,-294.82 3497.3,-296.53 3500.65,-302.68"/>
</g>
<!-- n23 -->
<g id="node23" class="node">
<title>n23</title>
<ellipse fill="#DA79E8" stroke="black" cx="3570.97" cy="-148.43" rx="190.84" ry="37.45"/>
<text text-anchor="middle" x="3570.97" y="-159.73" font-family="Times,serif" font-size="14.00">problemas</text>
<text text-anchor="middle" x="3570.97" y="-144.73" font-family="Times,serif" font-size="14.00">ncmp000 (pobj)</text>
<text text-anchor="middle" x="3570.97" y="-129.73" font-family="Times,serif" font-size="14.00">rep=no, t=no, r=yes, m=yes, c=no</text>
</g>
<!-- n21&#45;&gt;n23 -->
<g id="edge22" class="edge">
<title>n21&#45;&gt;n23</title>
<path fill="none" stroke="black" d="M3570.97,-221.8C3570.97,-213.63 3570.97,-204.85 3570.97,-196.32"/>
<polygon fill="black" stroke="black" points="3574.47,-196.1 3570.97,-186.1 3567.47,-196.1 3574.47,-196.1"/>
</g>
<!-- n22 -->
<g id="node24" class="node">
<title>n22</title>
<ellipse fill="#DA79E8" stroke="black" cx="3570.97" cy="-37.48" rx="190.84" ry="37.45"/>
<text text-anchor="middle" x="3570.97" y="-48.78" font-family="Times,serif" font-size="14.00">los</text>
<text text-anchor="middle" x="3570.97" y="-33.78" font-family="Times,serif" font-size="14.00">da0mp0 (det)</text>
<text text-anchor="middle" x="3570.97" y="-18.78" font-family="Times,serif" font-size="14.00">rep=no, t=no, r=yes, m=yes, c=no</text>
</g>
<!-- n23&#45;&gt;n22 -->
<g id="edge23" class="edge">
<title>n23&#45;&gt;n22</title>
<path fill="none" stroke="black" d="M3570.97,-110.85C3570.97,-102.67 3570.97,-93.89 3570.97,-85.37"/>
<polygon fill="black" stroke="black" points="3574.47,-85.15 3570.97,-75.15 3567.47,-85.15 3574.47,-85.15"/>
</g>
</g>
</svg>
