<?xml version="1.0" encoding="UTF-8" standalone="no"?>
<!DOCTYPE svg PUBLIC "-//W3C//DTD SVG 1.1//EN"
 "http://www.w3.org/Graphics/SVG/1.1/DTD/svg11.dtd">
<!-- Generated by graphviz version 2.43.0 (0)
 -->
<!-- Title: tree Pages: 1 -->
<svg width="5910pt" height="638pt"
 viewBox="0.00 0.00 5909.89 637.72" xmlns="http://www.w3.org/2000/svg" xmlns:xlink="http://www.w3.org/1999/xlink">
<g id="graph0" class="graph" transform="scale(1 1) rotate(0) translate(4 633.72)">
<title>tree</title>
<polygon fill="white" stroke="transparent" points="-4,4 -4,-633.72 5905.89,-633.72 5905.89,4 -4,4"/>
<!-- n19 -->
<g id="node1" class="node">
<title>n19</title>
<ellipse fill="#98D2A5" stroke="black" cx="4352.92" cy="-592.24" rx="185.94" ry="37.45"/>
<text text-anchor="middle" x="4352.92" y="-603.54" font-family="Times,serif" font-size="14.00">y</text>
<text text-anchor="middle" x="4352.92" y="-588.54" font-family="Times,serif" font-size="14.00">cc (root)</text>
<text text-anchor="middle" x="4352.92" y="-573.54" font-family="Times,serif" font-size="14.00">rep=no, t=no, r=no, m=yes, c=no</text>
</g>
<!-- n12 -->
<g id="node2" class="node">
<title>n12</title>
<ellipse fill="#98D2A5" stroke="black" cx="2390.92" cy="-481.29" rx="190.84" ry="37.45"/>
<text text-anchor="middle" x="2390.92" y="-492.59" font-family="Times,serif" font-size="14.00">encuentra</text>
<text text-anchor="middle" x="2390.92" y="-477.59" font-family="Times,serif" font-size="14.00">vmip3s0 (coord)</text>
<text text-anchor="middle" x="2390.92" y="-462.59" font-family="Times,serif" font-size="14.00">rep=no, t=no, r=yes, m=yes, c=no</text>
</g>
<!-- n19&#45;&gt;n12 -->
<g id="edge1" class="edge">
<title>n19&#45;&gt;n12</title>
<path fill="none" stroke="black" d="M4174.91,-581.36C3806.61,-560.91 2963.65,-514.09 2583.33,-492.97"/>
<polygon fill="black" stroke="black" points="2583.5,-489.48 2573.32,-492.42 2583.11,-496.47 2583.5,-489.48"/>
</g>
<!-- n18 -->
<g id="node3" class="node">
<title>n18</title>
<ellipse fill="none" stroke="black" cx="4159.92" cy="-481.29" rx="181.95" ry="37.45"/>
<text text-anchor="middle" x="4159.92" y="-492.59" font-family="Times,serif" font-size="14.00">,</text>
<text text-anchor="middle" x="4159.92" y="-477.59" font-family="Times,serif" font-size="14.00">fc (punct)</text>
<text text-anchor="middle" x="4159.92" y="-462.59" font-family="Times,serif" font-size="14.00">rep=no, t=no, r=no, m=no, c=no</text>
</g>
<!-- n19&#45;&gt;n18 -->
<g id="edge2" class="edge">
<title>n19&#45;&gt;n18</title>
<path fill="none" stroke="black" d="M4291.85,-556.77C4272.13,-545.64 4250.12,-533.21 4229.81,-521.75"/>
<polygon fill="black" stroke="black" points="4231.35,-518.59 4220.92,-516.73 4227.91,-524.69 4231.35,-518.59"/>
</g>
<!-- n31 -->
<g id="node4" class="node">
<title>n31</title>
<ellipse fill="#98D2A5" stroke="black" cx="4545.92" cy="-481.29" rx="185.94" ry="37.45"/>
<text text-anchor="middle" x="4545.92" y="-492.59" font-family="Times,serif" font-size="14.00">está</text>
<text text-anchor="middle" x="4545.92" y="-477.59" font-family="Times,serif" font-size="14.00">vmip3s0 (coord)</text>
<text text-anchor="middle" x="4545.92" y="-462.59" font-family="Times,serif" font-size="14.00">rep=no, t=no, r=no, m=yes, c=no</text>
</g>
<!-- n19&#45;&gt;n31 -->
<g id="edge3" class="edge">
<title>n19&#45;&gt;n31</title>
<path fill="none" stroke="black" d="M4413.99,-556.77C4433.71,-545.64 4455.72,-533.21 4476.03,-521.75"/>
<polygon fill="black" stroke="black" points="4477.93,-524.69 4484.92,-516.73 4474.49,-518.59 4477.93,-524.69"/>
</g>
<!-- n37 -->
<g id="node5" class="node">
<title>n37</title>
<ellipse fill="none" stroke="black" cx="4931.92" cy="-481.29" rx="181.95" ry="37.45"/>
<text text-anchor="middle" x="4931.92" y="-492.59" font-family="Times,serif" font-size="14.00">.</text>
<text text-anchor="middle" x="4931.92" y="-477.59" font-family="Times,serif" font-size="14.00">fp (punct)</text>
<text text-anchor="middle" x="4931.92" y="-462.59" font-family="Times,serif" font-size="14.00">rep=no, t=no, r=no, m=no, c=no</text>
</g>
<!-- n19&#45;&gt;n37 -->
<g id="edge4" class="edge">
<title>n19&#45;&gt;n37</title>
<path fill="none" stroke="black" d="M4487.17,-566.3C4561.89,-552.39 4656.58,-534.7 4740.92,-518.77 4757.21,-515.69 4774.28,-512.45 4791.23,-509.22"/>
<polygon fill="black" stroke="black" points="4792.02,-512.64 4801.19,-507.33 4790.71,-505.76 4792.02,-512.64"/>
</g>
<!-- n2 -->
<g id="node6" class="node">
<title>n2</title>
<ellipse fill="#98D2A5" stroke="black" cx="1390.92" cy="-370.34" rx="190.84" ry="37.45"/>
<text text-anchor="middle" x="1390.92" y="-381.64" font-family="Times,serif" font-size="14.00">número</text>
<text text-anchor="middle" x="1390.92" y="-366.64" font-family="Times,serif" font-size="14.00">ncms000 (nsubj)</text>
<text text-anchor="middle" x="1390.92" y="-351.64" font-family="Times,serif" font-size="14.00">rep=no, t=yes, r=no, m=yes, c=no</text>
</g>
<!-- n12&#45;&gt;n2 -->
<g id="edge5" class="edge">
<title>n12&#45;&gt;n2</title>
<path fill="none" stroke="black" d="M2226.07,-462.33C2044.05,-442.5 1752.2,-410.7 1566.14,-390.43"/>
<polygon fill="black" stroke="black" points="1566.3,-386.92 1555.98,-389.32 1565.54,-393.88 1566.3,-386.92"/>
</g>
<!-- n11 -->
<g id="node7" class="node">
<title>n11</title>
<ellipse fill="#98D2A5" stroke="black" cx="2190.92" cy="-370.34" rx="190.84" ry="37.45"/>
<text text-anchor="middle" x="2190.92" y="-381.64" font-family="Times,serif" font-size="14.00">se</text>
<text text-anchor="middle" x="2190.92" y="-366.64" font-family="Times,serif" font-size="14.00">p0300000 (reflec)</text>
<text text-anchor="middle" x="2190.92" y="-351.64" font-family="Times,serif" font-size="14.00">rep=no, t=no, r=yes, m=yes, c=no</text>
</g>
<!-- n12&#45;&gt;n11 -->
<g id="edge6" class="edge">
<title>n12&#45;&gt;n11</title>
<path fill="none" stroke="black" d="M2327.64,-445.82C2307.11,-434.63 2284.18,-422.14 2263.06,-410.64"/>
<polygon fill="black" stroke="black" points="2264.59,-407.48 2254.13,-405.77 2261.24,-413.63 2264.59,-407.48"/>
</g>
<!-- n13 -->
<g id="node8" class="node">
<title>n13</title>
<ellipse fill="#98D2A5" stroke="black" cx="2590.92" cy="-370.34" rx="190.84" ry="37.45"/>
<text text-anchor="middle" x="2590.92" y="-381.64" font-family="Times,serif" font-size="14.00">convaleciente</text>
<text text-anchor="middle" x="2590.92" y="-366.64" font-family="Times,serif" font-size="14.00">aq0cs0 (cpred)</text>
<text text-anchor="middle" x="2590.92" y="-351.64" font-family="Times,serif" font-size="14.00">rep=no, t=no, r=yes, m=yes, c=no</text>
</g>
<!-- n12&#45;&gt;n13 -->
<g id="edge7" class="edge">
<title>n12&#45;&gt;n13</title>
<path fill="none" stroke="black" d="M2454.2,-445.82C2474.73,-434.63 2497.65,-422.14 2518.78,-410.64"/>
<polygon fill="black" stroke="black" points="2520.6,-413.63 2527.71,-405.77 2517.25,-407.48 2520.6,-413.63"/>
</g>
<!-- n21 -->
<g id="node22" class="node">
<title>n21</title>
<ellipse fill="#98D2A5" stroke="black" cx="4155.92" cy="-370.34" rx="185.94" ry="37.45"/>
<text text-anchor="middle" x="4155.92" y="-381.64" font-family="Times,serif" font-size="14.00">número</text>
<text text-anchor="middle" x="4155.92" y="-366.64" font-family="Times,serif" font-size="14.00">ncms000 (nsubj)</text>
<text text-anchor="middle" x="4155.92" y="-351.64" font-family="Times,serif" font-size="14.00">rep=no, t=no, r=no, m=yes, c=no</text>
</g>
<!-- n31&#45;&gt;n21 -->
<g id="edge21" class="edge">
<title>n31&#45;&gt;n21</title>
<path fill="none" stroke="black" d="M4439.35,-450.52C4387.54,-436.05 4325.17,-418.62 4272.15,-403.81"/>
<polygon fill="black" stroke="black" points="4272.93,-400.39 4262.36,-401.07 4271.05,-407.13 4272.93,-400.39"/>
</g>
<!-- n32 -->
<g id="node23" class="node">
<title>n32</title>
<ellipse fill="#98D2A5" stroke="black" cx="4935.92" cy="-370.34" rx="185.94" ry="37.45"/>
<text text-anchor="middle" x="4935.92" y="-381.64" font-family="Times,serif" font-size="14.00">de</text>
<text text-anchor="middle" x="4935.92" y="-366.64" font-family="Times,serif" font-size="14.00">sps00 (prepv)</text>
<text text-anchor="middle" x="4935.92" y="-351.64" font-family="Times,serif" font-size="14.00">rep=no, t=no, r=no, m=yes, c=no</text>
</g>
<!-- n31&#45;&gt;n32 -->
<g id="edge22" class="edge">
<title>n31&#45;&gt;n32</title>
<path fill="none" stroke="black" d="M4652.49,-450.52C4704.29,-436.05 4766.66,-418.62 4819.69,-403.81"/>
<polygon fill="black" stroke="black" points="4820.79,-407.13 4829.48,-401.07 4818.91,-400.39 4820.79,-407.13"/>
</g>
<!-- n34 -->
<g id="node24" class="node">
<title>n34</title>
<ellipse fill="#98D2A5" stroke="black" cx="5520.92" cy="-370.34" rx="185.94" ry="37.45"/>
<text text-anchor="middle" x="5520.92" y="-381.64" font-family="Times,serif" font-size="14.00">desde</text>
<text text-anchor="middle" x="5520.92" y="-366.64" font-family="Times,serif" font-size="14.00">sps00 (prepv)</text>
<text text-anchor="middle" x="5520.92" y="-351.64" font-family="Times,serif" font-size="14.00">rep=no, t=no, r=no, m=yes, c=no</text>
</g>
<!-- n31&#45;&gt;n34 -->
<g id="edge23" class="edge">
<title>n31&#45;&gt;n34</title>
<path fill="none" stroke="black" d="M4675.45,-454.32C4697.25,-450.45 4719.68,-446.77 4740.92,-443.81 4913.32,-419.78 4957.6,-423.92 5130.92,-407.81 5200.48,-401.35 5277.01,-394.2 5343.72,-387.96"/>
<polygon fill="black" stroke="black" points="5344.28,-391.42 5353.91,-387 5343.63,-384.45 5344.28,-391.42"/>
</g>
<!-- n1 -->
<g id="node9" class="node">
<title>n1</title>
<ellipse fill="#98D2A5" stroke="black" cx="190.92" cy="-259.38" rx="190.84" ry="37.45"/>
<text text-anchor="middle" x="190.92" y="-270.68" font-family="Times,serif" font-size="14.00">La</text>
<text text-anchor="middle" x="190.92" y="-255.68" font-family="Times,serif" font-size="14.00">da0fs0 (det)</text>
<text text-anchor="middle" x="190.92" y="-240.68" font-family="Times,serif" font-size="14.00">rep=no, t=yes, r=no, m=yes, c=no</text>
</g>
<!-- n2&#45;&gt;n1 -->
<g id="edge8" class="edge">
<title>n2&#45;&gt;n1</title>
<path fill="none" stroke="black" d="M1204.64,-361.86C1003.35,-352.38 673.46,-332.76 390.92,-296.86 372.13,-294.47 352.44,-291.49 333.04,-288.25"/>
<polygon fill="black" stroke="black" points="333.37,-284.76 322.93,-286.54 332.21,-291.66 333.37,-284.76"/>
</g>
<!-- n3 -->
<g id="node10" class="node">
<title>n3</title>
<ellipse fill="#98D2A5" stroke="black" cx="590.92" cy="-259.38" rx="190.84" ry="37.45"/>
<text text-anchor="middle" x="590.92" y="-270.68" font-family="Times,serif" font-size="14.00">dos</text>
<text text-anchor="middle" x="590.92" y="-255.68" font-family="Times,serif" font-size="14.00">pn0cp000 (dep)</text>
<text text-anchor="middle" x="590.92" y="-240.68" font-family="Times,serif" font-size="14.00">rep=no, t=yes, r=no, m=yes, c=no</text>
</g>
<!-- n2&#45;&gt;n3 -->
<g id="edge9" class="edge">
<title>n2&#45;&gt;n3</title>
<path fill="none" stroke="black" d="M1224.38,-351.94C1103.76,-338.68 936.93,-318.97 790.92,-296.86 772.87,-294.13 753.96,-291.01 735.26,-287.78"/>
<polygon fill="black" stroke="black" points="735.66,-284.29 725.21,-286.02 734.46,-291.19 735.66,-284.29"/>
</g>
<!-- n4 -->
<g id="node11" class="node">
<title>n4</title>
<ellipse fill="#98D2A5" stroke="black" cx="990.92" cy="-259.38" rx="190.84" ry="37.45"/>
<text text-anchor="middle" x="990.92" y="-270.68" font-family="Times,serif" font-size="14.00">de</text>
<text text-anchor="middle" x="990.92" y="-255.68" font-family="Times,serif" font-size="14.00">sps00 (prepn)</text>
<text text-anchor="middle" x="990.92" y="-240.68" font-family="Times,serif" font-size="14.00">rep=no, t=yes, r=no, m=yes, c=no</text>
</g>
<!-- n2&#45;&gt;n4 -->
<g id="edge10" class="edge">
<title>n2&#45;&gt;n4</title>
<path fill="none" stroke="black" d="M1281.62,-339.56C1228.48,-325.09 1164.51,-307.67 1110.12,-292.85"/>
<polygon fill="black" stroke="black" points="1111,-289.46 1100.44,-290.21 1109.16,-296.22 1111,-289.46"/>
</g>
<!-- n7 -->
<g id="node12" class="node">
<title>n7</title>
<ellipse fill="#98D2A5" stroke="black" cx="1390.92" cy="-259.38" rx="190.84" ry="37.45"/>
<text text-anchor="middle" x="1390.92" y="-270.68" font-family="Times,serif" font-size="14.00">,</text>
<text text-anchor="middle" x="1390.92" y="-255.68" font-family="Times,serif" font-size="14.00">fc (punct)</text>
<text text-anchor="middle" x="1390.92" y="-240.68" font-family="Times,serif" font-size="14.00">rep=no, t=yes, r=no, m=yes, c=no</text>
</g>
<!-- n2&#45;&gt;n7 -->
<g id="edge11" class="edge">
<title>n2&#45;&gt;n7</title>
<path fill="none" stroke="black" d="M1390.92,-332.75C1390.92,-324.58 1390.92,-315.8 1390.92,-307.27"/>
<polygon fill="black" stroke="black" points="1394.42,-307.06 1390.92,-297.06 1387.42,-307.06 1394.42,-307.06"/>
</g>
<!-- n8 -->
<g id="node13" class="node">
<title>n8</title>
<ellipse fill="#98D2A5" stroke="black" cx="1790.92" cy="-259.38" rx="190.84" ry="37.45"/>
<text text-anchor="middle" x="1790.92" y="-270.68" font-family="Times,serif" font-size="14.00">Magda</text>
<text text-anchor="middle" x="1790.92" y="-255.68" font-family="Times,serif" font-size="14.00">np0000l (appos)</text>
<text text-anchor="middle" x="1790.92" y="-240.68" font-family="Times,serif" font-size="14.00">rep=no, t=yes, r=no, m=yes, c=no</text>
</g>
<!-- n2&#45;&gt;n8 -->
<g id="edge12" class="edge">
<title>n2&#45;&gt;n8</title>
<path fill="none" stroke="black" d="M1500.22,-339.56C1553.36,-325.09 1617.33,-307.67 1671.71,-292.85"/>
<polygon fill="black" stroke="black" points="1672.67,-296.22 1681.4,-290.21 1670.83,-289.46 1672.67,-296.22"/>
</g>
<!-- n10 -->
<g id="node14" class="node">
<title>n10</title>
<ellipse fill="#98D2A5" stroke="black" cx="2190.92" cy="-259.38" rx="190.84" ry="37.45"/>
<text text-anchor="middle" x="2190.92" y="-270.68" font-family="Times,serif" font-size="14.00">,</text>
<text text-anchor="middle" x="2190.92" y="-255.68" font-family="Times,serif" font-size="14.00">fc (punct)</text>
<text text-anchor="middle" x="2190.92" y="-240.68" font-family="Times,serif" font-size="14.00">rep=no, t=yes, r=no, m=yes, c=no</text>
</g>
<!-- n2&#45;&gt;n10 -->
<g id="edge13" class="edge">
<title>n2&#45;&gt;n10</title>
<path fill="none" stroke="black" d="M1557.46,-351.94C1678.08,-338.68 1844.9,-318.97 1990.92,-296.86 2008.96,-294.13 2027.88,-291.01 2046.57,-287.78"/>
<polygon fill="black" stroke="black" points="2047.38,-291.19 2056.63,-286.02 2046.17,-284.29 2047.38,-291.19"/>
</g>
<!-- n14 -->
<g id="node18" class="node">
<title>n14</title>
<ellipse fill="#98D2A5" stroke="black" cx="2590.92" cy="-259.38" rx="190.84" ry="37.45"/>
<text text-anchor="middle" x="2590.92" y="-270.68" font-family="Times,serif" font-size="14.00">de</text>
<text text-anchor="middle" x="2590.92" y="-255.68" font-family="Times,serif" font-size="14.00">sps00 (prepa)</text>
<text text-anchor="middle" x="2590.92" y="-240.68" font-family="Times,serif" font-size="14.00">rep=no, t=no, r=yes, m=yes, c=no</text>
</g>
<!-- n13&#45;&gt;n14 -->
<g id="edge17" class="edge">
<title>n13&#45;&gt;n14</title>
<path fill="none" stroke="black" d="M2590.92,-332.75C2590.92,-324.58 2590.92,-315.8 2590.92,-307.27"/>
<polygon fill="black" stroke="black" points="2594.42,-307.06 2590.92,-297.06 2587.42,-307.06 2594.42,-307.06"/>
</g>
<!-- n6 -->
<g id="node15" class="node">
<title>n6</title>
<ellipse fill="#98D2A5" stroke="black" cx="990.92" cy="-148.43" rx="190.84" ry="37.45"/>
<text text-anchor="middle" x="990.92" y="-159.73" font-family="Times,serif" font-size="14.00">lista</text>
<text text-anchor="middle" x="990.92" y="-144.73" font-family="Times,serif" font-size="14.00">ncfs000 (pobj)</text>
<text text-anchor="middle" x="990.92" y="-129.73" font-family="Times,serif" font-size="14.00">rep=no, t=yes, r=no, m=yes, c=no</text>
</g>
<!-- n4&#45;&gt;n6 -->
<g id="edge14" class="edge">
<title>n4&#45;&gt;n6</title>
<path fill="none" stroke="black" d="M990.92,-221.8C990.92,-213.63 990.92,-204.85 990.92,-196.32"/>
<polygon fill="black" stroke="black" points="994.42,-196.1 990.92,-186.1 987.42,-196.1 994.42,-196.1"/>
</g>
<!-- n9 -->
<g id="node17" class="node">
<title>n9</title>
<ellipse fill="#98D2A5" stroke="black" cx="1790.92" cy="-148.43" rx="190.84" ry="37.45"/>
<text text-anchor="middle" x="1790.92" y="-159.73" font-family="Times,serif" font-size="14.00">Oranich</text>
<text text-anchor="middle" x="1790.92" y="-144.73" font-family="Times,serif" font-size="14.00">np0000l (appos)</text>
<text text-anchor="middle" x="1790.92" y="-129.73" font-family="Times,serif" font-size="14.00">rep=no, t=yes, r=no, m=yes, c=no</text>
</g>
<!-- n8&#45;&gt;n9 -->
<g id="edge16" class="edge">
<title>n8&#45;&gt;n9</title>
<path fill="none" stroke="black" d="M1790.92,-221.8C1790.92,-213.63 1790.92,-204.85 1790.92,-196.32"/>
<polygon fill="black" stroke="black" points="1794.42,-196.1 1790.92,-186.1 1787.42,-196.1 1794.42,-196.1"/>
</g>
<!-- n5 -->
<g id="node16" class="node">
<title>n5</title>
<ellipse fill="#98D2A5" stroke="black" cx="990.92" cy="-37.48" rx="190.84" ry="37.45"/>
<text text-anchor="middle" x="990.92" y="-48.78" font-family="Times,serif" font-size="14.00">la</text>
<text text-anchor="middle" x="990.92" y="-33.78" font-family="Times,serif" font-size="14.00">da0fs0 (det)</text>
<text text-anchor="middle" x="990.92" y="-18.78" font-family="Times,serif" font-size="14.00">rep=no, t=yes, r=no, m=yes, c=no</text>
</g>
<!-- n6&#45;&gt;n5 -->
<g id="edge15" class="edge">
<title>n6&#45;&gt;n5</title>
<path fill="none" stroke="black" d="M990.92,-110.85C990.92,-102.67 990.92,-93.89 990.92,-85.37"/>
<polygon fill="black" stroke="black" points="994.42,-85.15 990.92,-75.15 987.42,-85.15 994.42,-85.15"/>
</g>
<!-- n17 -->
<g id="node19" class="node">
<title>n17</title>
<ellipse fill="#98D2A5" stroke="black" cx="2590.92" cy="-148.43" rx="190.84" ry="37.45"/>
<text text-anchor="middle" x="2590.92" y="-159.73" font-family="Times,serif" font-size="14.00">enfermedad</text>
<text text-anchor="middle" x="2590.92" y="-144.73" font-family="Times,serif" font-size="14.00">ncfs000 (pobj)</text>
<text text-anchor="middle" x="2590.92" y="-129.73" font-family="Times,serif" font-size="14.00">rep=no, t=no, r=yes, m=yes, c=no</text>
</g>
<!-- n14&#45;&gt;n17 -->
<g id="edge18" class="edge">
<title>n14&#45;&gt;n17</title>
<path fill="none" stroke="black" d="M2590.92,-221.8C2590.92,-213.63 2590.92,-204.85 2590.92,-196.32"/>
<polygon fill="black" stroke="black" points="2594.42,-196.1 2590.92,-186.1 2587.42,-196.1 2594.42,-196.1"/>
</g>
<!-- n15 -->
<g id="node20" class="node">
<title>n15</title>
<ellipse fill="#98D2A5" stroke="black" cx="2390.92" cy="-37.48" rx="190.84" ry="37.45"/>
<text text-anchor="middle" x="2390.92" y="-48.78" font-family="Times,serif" font-size="14.00">una</text>
<text text-anchor="middle" x="2390.92" y="-33.78" font-family="Times,serif" font-size="14.00">di0fs0 (det)</text>
<text text-anchor="middle" x="2390.92" y="-18.78" font-family="Times,serif" font-size="14.00">rep=no, t=no, r=yes, m=yes, c=no</text>
</g>
<!-- n17&#45;&gt;n15 -->
<g id="edge19" class="edge">
<title>n17&#45;&gt;n15</title>
<path fill="none" stroke="black" d="M2527.64,-112.96C2507.11,-101.77 2484.18,-89.28 2463.06,-77.78"/>
<polygon fill="black" stroke="black" points="2464.59,-74.62 2454.13,-72.91 2461.24,-80.77 2464.59,-74.62"/>
</g>
<!-- n16 -->
<g id="node21" class="node">
<title>n16</title>
<ellipse fill="#98D2A5" stroke="black" cx="2790.92" cy="-37.48" rx="190.84" ry="37.45"/>
<text text-anchor="middle" x="2790.92" y="-48.78" font-family="Times,serif" font-size="14.00">reciente</text>
<text text-anchor="middle" x="2790.92" y="-33.78" font-family="Times,serif" font-size="14.00">aq0cs0 (amod)</text>
<text text-anchor="middle" x="2790.92" y="-18.78" font-family="Times,serif" font-size="14.00">rep=no, t=no, r=yes, m=yes, c=no</text>
</g>
<!-- n17&#45;&gt;n16 -->
<g id="edge20" class="edge">
<title>n17&#45;&gt;n16</title>
<path fill="none" stroke="black" d="M2654.2,-112.96C2674.73,-101.77 2697.65,-89.28 2718.78,-77.78"/>
<polygon fill="black" stroke="black" points="2720.6,-80.77 2727.71,-72.91 2717.25,-74.62 2720.6,-80.77"/>
</g>
<!-- n20 -->
<g id="node25" class="node">
<title>n20</title>
<ellipse fill="#98D2A5" stroke="black" cx="2985.92" cy="-259.38" rx="185.94" ry="37.45"/>
<text text-anchor="middle" x="2985.92" y="-270.68" font-family="Times,serif" font-size="14.00">el</text>
<text text-anchor="middle" x="2985.92" y="-255.68" font-family="Times,serif" font-size="14.00">da0ms0 (det)</text>
<text text-anchor="middle" x="2985.92" y="-240.68" font-family="Times,serif" font-size="14.00">rep=no, t=no, r=no, m=yes, c=no</text>
</g>
<!-- n21&#45;&gt;n20 -->
<g id="edge24" class="edge">
<title>n21&#45;&gt;n20</title>
<path fill="none" stroke="black" d="M3974.71,-361.87C3778.48,-352.39 3456.54,-332.77 3180.92,-296.86 3162.52,-294.46 3143.24,-291.46 3124.25,-288.21"/>
<polygon fill="black" stroke="black" points="3124.8,-284.76 3114.35,-286.49 3123.61,-291.65 3124.8,-284.76"/>
</g>
<!-- n22 -->
<g id="node26" class="node">
<title>n22</title>
<ellipse fill="#98D2A5" stroke="black" cx="3375.92" cy="-259.38" rx="185.94" ry="37.45"/>
<text text-anchor="middle" x="3375.92" y="-270.68" font-family="Times,serif" font-size="14.00">dos</text>
<text text-anchor="middle" x="3375.92" y="-255.68" font-family="Times,serif" font-size="14.00">pn0cp000 (dep)</text>
<text text-anchor="middle" x="3375.92" y="-240.68" font-family="Times,serif" font-size="14.00">rep=no, t=no, r=no, m=yes, c=no</text>
</g>
<!-- n21&#45;&gt;n22 -->
<g id="edge25" class="edge">
<title>n21&#45;&gt;n22</title>
<path fill="none" stroke="black" d="M3993.52,-351.94C3875.91,-338.67 3713.25,-318.97 3570.92,-296.86 3553.4,-294.14 3535.05,-291.04 3516.9,-287.82"/>
<polygon fill="black" stroke="black" points="3517.3,-284.34 3506.84,-286.02 3516.07,-291.23 3517.3,-284.34"/>
</g>
<!-- n23 -->
<g id="node27" class="node">
<title>n23</title>
<ellipse fill="#98D2A5" stroke="black" cx="3765.92" cy="-259.38" rx="185.94" ry="37.45"/>
<text text-anchor="middle" x="3765.92" y="-270.68" font-family="Times,serif" font-size="14.00">a</text>
<text text-anchor="middle" x="3765.92" y="-255.68" font-family="Times,serif" font-size="14.00">sps00 (prepn)</text>
<text text-anchor="middle" x="3765.92" y="-240.68" font-family="Times,serif" font-size="14.00">rep=no, t=no, r=no, m=yes, c=no</text>
</g>
<!-- n21&#45;&gt;n23 -->
<g id="edge26" class="edge">
<title>n21&#45;&gt;n23</title>
<path fill="none" stroke="black" d="M4049.35,-339.56C3997.54,-325.09 3935.17,-307.67 3882.15,-292.85"/>
<polygon fill="black" stroke="black" points="3882.93,-289.44 3872.36,-290.12 3881.05,-296.18 3882.93,-289.44"/>
</g>
<!-- n26 -->
<g id="node28" class="node">
<title>n26</title>
<ellipse fill="#98D2A5" stroke="black" cx="4155.92" cy="-259.38" rx="185.94" ry="37.45"/>
<text text-anchor="middle" x="4155.92" y="-270.68" font-family="Times,serif" font-size="14.00">,</text>
<text text-anchor="middle" x="4155.92" y="-255.68" font-family="Times,serif" font-size="14.00">fc (punct)</text>
<text text-anchor="middle" x="4155.92" y="-240.68" font-family="Times,serif" font-size="14.00">rep=no, t=no, r=no, m=yes, c=no</text>
</g>
<!-- n21&#45;&gt;n26 -->
<g id="edge27" class="edge">
<title>n21&#45;&gt;n26</title>
<path fill="none" stroke="black" d="M4155.92,-332.75C4155.92,-324.58 4155.92,-315.8 4155.92,-307.27"/>
<polygon fill="black" stroke="black" points="4159.42,-307.06 4155.92,-297.06 4152.42,-307.06 4159.42,-307.06"/>
</g>
<!-- n27 -->
<g id="node29" class="node">
<title>n27</title>
<ellipse fill="#98D2A5" stroke="black" cx="4545.92" cy="-259.38" rx="185.94" ry="37.45"/>
<text text-anchor="middle" x="4545.92" y="-270.68" font-family="Times,serif" font-size="14.00">Josep</text>
<text text-anchor="middle" x="4545.92" y="-255.68" font-family="Times,serif" font-size="14.00">ncfs000 (appos)</text>
<text text-anchor="middle" x="4545.92" y="-240.68" font-family="Times,serif" font-size="14.00">rep=no, t=no, r=no, m=yes, c=no</text>
</g>
<!-- n21&#45;&gt;n27 -->
<g id="edge28" class="edge">
<title>n21&#45;&gt;n27</title>
<path fill="none" stroke="black" d="M4262.49,-339.56C4314.29,-325.09 4376.66,-307.67 4429.69,-292.85"/>
<polygon fill="black" stroke="black" points="4430.79,-296.18 4439.48,-290.12 4428.91,-289.44 4430.79,-296.18"/>
</g>
<!-- n30 -->
<g id="node30" class="node">
<title>n30</title>
<ellipse fill="#98D2A5" stroke="black" cx="4935.92" cy="-259.38" rx="185.94" ry="37.45"/>
<text text-anchor="middle" x="4935.92" y="-270.68" font-family="Times,serif" font-size="14.00">,</text>
<text text-anchor="middle" x="4935.92" y="-255.68" font-family="Times,serif" font-size="14.00">fc (punct)</text>
<text text-anchor="middle" x="4935.92" y="-240.68" font-family="Times,serif" font-size="14.00">rep=no, t=no, r=no, m=yes, c=no</text>
</g>
<!-- n21&#45;&gt;n30 -->
<g id="edge29" class="edge">
<title>n21&#45;&gt;n30</title>
<path fill="none" stroke="black" d="M4318.32,-351.94C4435.92,-338.67 4598.58,-318.97 4740.92,-296.86 4758.44,-294.14 4776.79,-291.04 4794.94,-287.82"/>
<polygon fill="black" stroke="black" points="4795.77,-291.23 4804.99,-286.02 4794.53,-284.34 4795.77,-291.23"/>
</g>
<!-- n33 -->
<g id="node35" class="node">
<title>n33</title>
<ellipse fill="#98D2A5" stroke="black" cx="5325.92" cy="-259.38" rx="185.94" ry="37.45"/>
<text text-anchor="middle" x="5325.92" y="-270.68" font-family="Times,serif" font-size="14.00">baja</text>
<text text-anchor="middle" x="5325.92" y="-255.68" font-family="Times,serif" font-size="14.00">ncfs000 (pobj)</text>
<text text-anchor="middle" x="5325.92" y="-240.68" font-family="Times,serif" font-size="14.00">rep=no, t=no, r=no, m=yes, c=no</text>
</g>
<!-- n32&#45;&gt;n33 -->
<g id="edge34" class="edge">
<title>n32&#45;&gt;n33</title>
<path fill="none" stroke="black" d="M5042.49,-339.56C5094.29,-325.09 5156.66,-307.67 5209.69,-292.85"/>
<polygon fill="black" stroke="black" points="5210.79,-296.18 5219.48,-290.12 5208.91,-289.44 5210.79,-296.18"/>
</g>
<!-- n35 -->
<g id="node36" class="node">
<title>n35</title>
<ellipse fill="#98D2A5" stroke="black" cx="5715.92" cy="-259.38" rx="185.94" ry="37.45"/>
<text text-anchor="middle" x="5715.92" y="-270.68" font-family="Times,serif" font-size="14.00">hace</text>
<text text-anchor="middle" x="5715.92" y="-255.68" font-family="Times,serif" font-size="14.00">vmip3s0 (pobj)</text>
<text text-anchor="middle" x="5715.92" y="-240.68" font-family="Times,serif" font-size="14.00">rep=no, t=no, r=no, m=yes, c=no</text>
</g>
<!-- n34&#45;&gt;n35 -->
<g id="edge35" class="edge">
<title>n34&#45;&gt;n35</title>
<path fill="none" stroke="black" d="M5582.62,-334.86C5602.54,-323.73 5624.79,-311.3 5645.3,-299.84"/>
<polygon fill="black" stroke="black" points="5647.26,-302.75 5654.29,-294.82 5643.85,-296.64 5647.26,-302.75"/>
</g>
<!-- n24 -->
<g id="node31" class="node">
<title>n24</title>
<ellipse fill="#98D2A5" stroke="black" cx="3765.92" cy="-148.43" rx="185.94" ry="37.45"/>
<text text-anchor="middle" x="3765.92" y="-159.73" font-family="Times,serif" font-size="14.00">efectos</text>
<text text-anchor="middle" x="3765.92" y="-144.73" font-family="Times,serif" font-size="14.00">ncmp000 (pobj)</text>
<text text-anchor="middle" x="3765.92" y="-129.73" font-family="Times,serif" font-size="14.00">rep=no, t=no, r=no, m=yes, c=no</text>
</g>
<!-- n23&#45;&gt;n24 -->
<g id="edge30" class="edge">
<title>n23&#45;&gt;n24</title>
<path fill="none" stroke="black" d="M3765.92,-221.8C3765.92,-213.63 3765.92,-204.85 3765.92,-196.32"/>
<polygon fill="black" stroke="black" points="3769.42,-196.1 3765.92,-186.1 3762.42,-196.1 3769.42,-196.1"/>
</g>
<!-- n28 -->
<g id="node33" class="node">
<title>n28</title>
<ellipse fill="#98D2A5" stroke="black" cx="4545.92" cy="-148.43" rx="185.94" ry="37.45"/>
<text text-anchor="middle" x="4545.92" y="-159.73" font-family="Times,serif" font-size="14.00">Miró</text>
<text text-anchor="middle" x="4545.92" y="-144.73" font-family="Times,serif" font-size="14.00">ncms000 (appos)</text>
<text text-anchor="middle" x="4545.92" y="-129.73" font-family="Times,serif" font-size="14.00">rep=no, t=no, r=no, m=yes, c=no</text>
</g>
<!-- n27&#45;&gt;n28 -->
<g id="edge32" class="edge">
<title>n27&#45;&gt;n28</title>
<path fill="none" stroke="black" d="M4545.92,-221.8C4545.92,-213.63 4545.92,-204.85 4545.92,-196.32"/>
<polygon fill="black" stroke="black" points="4549.42,-196.1 4545.92,-186.1 4542.42,-196.1 4549.42,-196.1"/>
</g>
<!-- n25 -->
<g id="node32" class="node">
<title>n25</title>
<ellipse fill="#98D2A5" stroke="black" cx="3765.92" cy="-37.48" rx="185.94" ry="37.45"/>
<text text-anchor="middle" x="3765.92" y="-48.78" font-family="Times,serif" font-size="14.00">prácticos</text>
<text text-anchor="middle" x="3765.92" y="-33.78" font-family="Times,serif" font-size="14.00">aq0mp0 (amod)</text>
<text text-anchor="middle" x="3765.92" y="-18.78" font-family="Times,serif" font-size="14.00">rep=no, t=no, r=no, m=yes, c=no</text>
</g>
<!-- n24&#45;&gt;n25 -->
<g id="edge31" class="edge">
<title>n24&#45;&gt;n25</title>
<path fill="none" stroke="black" d="M3765.92,-110.85C3765.92,-102.67 3765.92,-93.89 3765.92,-85.37"/>
<polygon fill="black" stroke="black" points="3769.42,-85.15 3765.92,-75.15 3762.42,-85.15 3769.42,-85.15"/>
</g>
<!-- n29 -->
<g id="node34" class="node">
<title>n29</title>
<ellipse fill="#98D2A5" stroke="black" cx="4545.92" cy="-37.48" rx="185.94" ry="37.45"/>
<text text-anchor="middle" x="4545.92" y="-48.78" font-family="Times,serif" font-size="14.00">Ardèvol</text>
<text text-anchor="middle" x="4545.92" y="-33.78" font-family="Times,serif" font-size="14.00">np00000 (appos)</text>
<text text-anchor="middle" x="4545.92" y="-18.78" font-family="Times,serif" font-size="14.00">rep=no, t=no, r=no, m=yes, c=no</text>
</g>
<!-- n28&#45;&gt;n29 -->
<g id="edge33" class="edge">
<title>n28&#45;&gt;n29</title>
<path fill="none" stroke="black" d="M4545.92,-110.85C4545.92,-102.67 4545.92,-93.89 4545.92,-85.37"/>
<polygon fill="black" stroke="black" points="4549.42,-85.15 4545.92,-75.15 4542.42,-85.15 4549.42,-85.15"/>
</g>
<!-- n36 -->
<g id="node37" class="node">
<title>n36</title>
<ellipse fill="#98D2A5" stroke="black" cx="5715.92" cy="-148.43" rx="185.94" ry="37.45"/>
<text text-anchor="middle" x="5715.92" y="-159.73" font-family="Times,serif" font-size="14.00">semanas</text>
<text text-anchor="middle" x="5715.92" y="-144.73" font-family="Times,serif" font-size="14.00">ncfp000 (dobj)</text>
<text text-anchor="middle" x="5715.92" y="-129.73" font-family="Times,serif" font-size="14.00">rep=no, t=no, r=no, m=yes, c=no</text>
</g>
<!-- n35&#45;&gt;n36 -->
<g id="edge36" class="edge">
<title>n35&#45;&gt;n36</title>
<path fill="none" stroke="black" d="M5715.92,-221.8C5715.92,-213.63 5715.92,-204.85 5715.92,-196.32"/>
<polygon fill="black" stroke="black" points="5719.42,-196.1 5715.92,-186.1 5712.42,-196.1 5719.42,-196.1"/>
</g>
</g>
</svg>
