<?xml version="1.0" encoding="UTF-8" standalone="no"?>
<!DOCTYPE svg PUBLIC "-//W3C//DTD SVG 1.1//EN"
 "http://www.w3.org/Graphics/SVG/1.1/DTD/svg11.dtd">
<!-- Generated by graphviz version 2.43.0 (0)
 -->
<!-- Title: tree Pages: 1 -->
<svg width="1772pt" height="1082pt"
 viewBox="0.00 0.00 1771.84 1081.53" xmlns="http://www.w3.org/2000/svg" xmlns:xlink="http://www.w3.org/1999/xlink">
<g id="graph0" class="graph" transform="scale(1 1) rotate(0) translate(4 1077.53)">
<title>tree</title>
<polygon fill="white" stroke="transparent" points="-4,4 -4,-1077.53 1767.84,-1077.53 1767.84,4 -4,4"/>
<!-- n4 -->
<g id="node1" class="node">
<title>n4</title>
<ellipse fill="#98D2A5" stroke="black" cx="776.92" cy="-1036.06" rx="190.84" ry="37.45"/>
<text text-anchor="middle" x="776.92" y="-1047.36" font-family="Times,serif" font-size="14.00">advirtieron</text>
<text text-anchor="middle" x="776.92" y="-1032.36" font-family="Times,serif" font-size="14.00">vmis3p0 (root)</text>
<text text-anchor="middle" x="776.92" y="-1017.36" font-family="Times,serif" font-size="14.00">rep=no, t=no, r=yes, m=yes, c=no</text>
</g>
<!-- n1 -->
<g id="node2" class="node">
<title>n1</title>
<ellipse fill="#98D2A5" stroke="black" cx="190.92" cy="-925.1" rx="190.84" ry="37.45"/>
<text text-anchor="middle" x="190.92" y="-936.4" font-family="Times,serif" font-size="14.00">Fuentes</text>
<text text-anchor="middle" x="190.92" y="-921.4" font-family="Times,serif" font-size="14.00">ncfp000 (nsubj)</text>
<text text-anchor="middle" x="190.92" y="-906.4" font-family="Times,serif" font-size="14.00">rep=no, t=yes, r=no, m=yes, c=no</text>
</g>
<!-- n4&#45;&gt;n1 -->
<g id="edge1" class="edge">
<title>n4&#45;&gt;n1</title>
<path fill="none" stroke="black" d="M640.64,-1009.72C549.69,-992.81 430.2,-970.59 337.25,-953.31"/>
<polygon fill="black" stroke="black" points="337.67,-949.83 327.19,-951.44 336.39,-956.71 337.67,-949.83"/>
</g>
<!-- n5 -->
<g id="node3" class="node">
<title>n5</title>
<ellipse fill="none" stroke="black" cx="581.92" cy="-925.1" rx="181.95" ry="37.45"/>
<text text-anchor="middle" x="581.92" y="-936.4" font-family="Times,serif" font-size="14.00">ayer</text>
<text text-anchor="middle" x="581.92" y="-921.4" font-family="Times,serif" font-size="14.00">rg (advmod)</text>
<text text-anchor="middle" x="581.92" y="-906.4" font-family="Times,serif" font-size="14.00">rep=no, t=no, r=no, m=no, c=no</text>
</g>
<!-- n4&#45;&gt;n5 -->
<g id="edge2" class="edge">
<title>n4&#45;&gt;n5</title>
<path fill="none" stroke="black" d="M715.22,-1000.58C695.29,-989.45 673.05,-977.02 652.53,-965.56"/>
<polygon fill="black" stroke="black" points="653.99,-962.36 643.55,-960.54 650.57,-968.47 653.99,-962.36"/>
</g>
<!-- n6 -->
<g id="node4" class="node">
<title>n6</title>
<ellipse fill="#98D2A5" stroke="black" cx="972.92" cy="-925.1" rx="190.84" ry="37.45"/>
<text text-anchor="middle" x="972.92" y="-936.4" font-family="Times,serif" font-size="14.00">de</text>
<text text-anchor="middle" x="972.92" y="-921.4" font-family="Times,serif" font-size="14.00">sps00 (oobj)</text>
<text text-anchor="middle" x="972.92" y="-906.4" font-family="Times,serif" font-size="14.00">rep=no, t=no, r=yes, m=yes, c=no</text>
</g>
<!-- n4&#45;&gt;n6 -->
<g id="edge3" class="edge">
<title>n4&#45;&gt;n6</title>
<path fill="none" stroke="black" d="M838.93,-1000.58C858.86,-989.5 881.1,-977.14 901.64,-965.73"/>
<polygon fill="black" stroke="black" points="903.59,-968.64 910.63,-960.73 900.19,-962.53 903.59,-968.64"/>
</g>
<!-- n19 -->
<g id="node5" class="node">
<title>n19</title>
<ellipse fill="none" stroke="black" cx="1363.92" cy="-925.1" rx="181.95" ry="37.45"/>
<text text-anchor="middle" x="1363.92" y="-936.4" font-family="Times,serif" font-size="14.00">.</text>
<text text-anchor="middle" x="1363.92" y="-921.4" font-family="Times,serif" font-size="14.00">fp (punct)</text>
<text text-anchor="middle" x="1363.92" y="-906.4" font-family="Times,serif" font-size="14.00">rep=no, t=no, r=no, m=no, c=no</text>
</g>
<!-- n4&#45;&gt;n19 -->
<g id="edge4" class="edge">
<title>n4&#45;&gt;n19</title>
<path fill="none" stroke="black" d="M914.87,-1010.08C991,-996.22 1087.21,-978.61 1172.92,-962.58 1189.22,-959.53 1206.29,-956.31 1223.24,-953.1"/>
<polygon fill="black" stroke="black" points="1224.03,-956.51 1233.2,-951.21 1222.72,-949.63 1224.03,-956.51"/>
</g>
<!-- n2 -->
<g id="node6" class="node">
<title>n2</title>
<ellipse fill="#98D2A5" stroke="black" cx="190.92" cy="-814.15" rx="190.84" ry="37.45"/>
<text text-anchor="middle" x="190.92" y="-825.45" font-family="Times,serif" font-size="14.00">de</text>
<text text-anchor="middle" x="190.92" y="-810.45" font-family="Times,serif" font-size="14.00">sps00 (prepn)</text>
<text text-anchor="middle" x="190.92" y="-795.45" font-family="Times,serif" font-size="14.00">rep=no, t=yes, r=no, m=yes, c=no</text>
</g>
<!-- n1&#45;&gt;n2 -->
<g id="edge5" class="edge">
<title>n1&#45;&gt;n2</title>
<path fill="none" stroke="black" d="M190.92,-887.52C190.92,-879.35 190.92,-870.57 190.92,-862.04"/>
<polygon fill="black" stroke="black" points="194.42,-861.82 190.92,-851.82 187.42,-861.82 194.42,-861.82"/>
</g>
<!-- n7 -->
<g id="node8" class="node">
<title>n7</title>
<ellipse fill="#98D2A5" stroke="black" cx="972.92" cy="-814.15" rx="190.84" ry="37.45"/>
<text text-anchor="middle" x="972.92" y="-825.45" font-family="Times,serif" font-size="14.00">que</text>
<text text-anchor="middle" x="972.92" y="-810.45" font-family="Times,serif" font-size="14.00">cs (pobj)</text>
<text text-anchor="middle" x="972.92" y="-795.45" font-family="Times,serif" font-size="14.00">rep=no, t=no, r=yes, m=yes, c=no</text>
</g>
<!-- n6&#45;&gt;n7 -->
<g id="edge7" class="edge">
<title>n6&#45;&gt;n7</title>
<path fill="none" stroke="black" d="M972.92,-887.52C972.92,-879.35 972.92,-870.57 972.92,-862.04"/>
<polygon fill="black" stroke="black" points="976.42,-861.82 972.92,-851.82 969.42,-861.82 976.42,-861.82"/>
</g>
<!-- n3 -->
<g id="node7" class="node">
<title>n3</title>
<ellipse fill="#98D2A5" stroke="black" cx="190.92" cy="-703.2" rx="190.84" ry="37.45"/>
<text text-anchor="middle" x="190.92" y="-714.5" font-family="Times,serif" font-size="14.00">Unió</text>
<text text-anchor="middle" x="190.92" y="-699.5" font-family="Times,serif" font-size="14.00">np00000 (pobj)</text>
<text text-anchor="middle" x="190.92" y="-684.5" font-family="Times,serif" font-size="14.00">rep=no, t=yes, r=no, m=yes, c=no</text>
</g>
<!-- n2&#45;&gt;n3 -->
<g id="edge6" class="edge">
<title>n2&#45;&gt;n3</title>
<path fill="none" stroke="black" d="M190.92,-776.57C190.92,-768.39 190.92,-759.61 190.92,-751.09"/>
<polygon fill="black" stroke="black" points="194.42,-750.87 190.92,-740.87 187.42,-750.87 194.42,-750.87"/>
</g>
<!-- n8 -->
<g id="node9" class="node">
<title>n8</title>
<ellipse fill="#98D2A5" stroke="black" cx="972.92" cy="-703.2" rx="190.84" ry="37.45"/>
<text text-anchor="middle" x="972.92" y="-714.5" font-family="Times,serif" font-size="14.00">si</text>
<text text-anchor="middle" x="972.92" y="-699.5" font-family="Times,serif" font-size="14.00">cs (cobj)</text>
<text text-anchor="middle" x="972.92" y="-684.5" font-family="Times,serif" font-size="14.00">rep=no, t=no, r=yes, m=yes, c=no</text>
</g>
<!-- n7&#45;&gt;n8 -->
<g id="edge8" class="edge">
<title>n7&#45;&gt;n8</title>
<path fill="none" stroke="black" d="M972.92,-776.57C972.92,-768.39 972.92,-759.61 972.92,-751.09"/>
<polygon fill="black" stroke="black" points="976.42,-750.87 972.92,-740.87 969.42,-750.87 976.42,-750.87"/>
</g>
<!-- n10 -->
<g id="node10" class="node">
<title>n10</title>
<ellipse fill="#98D2A5" stroke="black" cx="972.92" cy="-592.24" rx="190.84" ry="37.45"/>
<text text-anchor="middle" x="972.92" y="-603.54" font-family="Times,serif" font-size="14.00">tirara</text>
<text text-anchor="middle" x="972.92" y="-588.54" font-family="Times,serif" font-size="14.00">vmsi3s0 (cobj)</text>
<text text-anchor="middle" x="972.92" y="-573.54" font-family="Times,serif" font-size="14.00">rep=no, t=no, r=yes, m=yes, c=no</text>
</g>
<!-- n8&#45;&gt;n10 -->
<g id="edge9" class="edge">
<title>n8&#45;&gt;n10</title>
<path fill="none" stroke="black" d="M972.92,-665.61C972.92,-657.44 972.92,-648.66 972.92,-640.13"/>
<polygon fill="black" stroke="black" points="976.42,-639.92 972.92,-629.92 969.42,-639.92 976.42,-639.92"/>
</g>
<!-- n9 -->
<g id="node11" class="node">
<title>n9</title>
<ellipse fill="#98D2A5" stroke="black" cx="572.92" cy="-481.29" rx="190.84" ry="37.45"/>
<text text-anchor="middle" x="572.92" y="-492.59" font-family="Times,serif" font-size="14.00">Molins</text>
<text text-anchor="middle" x="572.92" y="-477.59" font-family="Times,serif" font-size="14.00">np00000 (nsubj)</text>
<text text-anchor="middle" x="572.92" y="-462.59" font-family="Times,serif" font-size="14.00">rep=no, t=no, r=yes, m=yes, c=no</text>
</g>
<!-- n10&#45;&gt;n9 -->
<g id="edge10" class="edge">
<title>n10&#45;&gt;n9</title>
<path fill="none" stroke="black" d="M863.62,-561.47C810.48,-547 746.51,-529.57 692.12,-514.76"/>
<polygon fill="black" stroke="black" points="693,-511.37 682.44,-512.12 691.16,-518.13 693,-511.37"/>
</g>
<!-- n12 -->
<g id="node12" class="node">
<title>n12</title>
<ellipse fill="#98D2A5" stroke="black" cx="972.92" cy="-481.29" rx="190.84" ry="37.45"/>
<text text-anchor="middle" x="972.92" y="-492.59" font-family="Times,serif" font-size="14.00">toalla</text>
<text text-anchor="middle" x="972.92" y="-477.59" font-family="Times,serif" font-size="14.00">ncfs000 (dobj)</text>
<text text-anchor="middle" x="972.92" y="-462.59" font-family="Times,serif" font-size="14.00">rep=no, t=no, r=yes, m=yes, c=no</text>
</g>
<!-- n10&#45;&gt;n12 -->
<g id="edge11" class="edge">
<title>n10&#45;&gt;n12</title>
<path fill="none" stroke="black" d="M972.92,-554.66C972.92,-546.49 972.92,-537.71 972.92,-529.18"/>
<polygon fill="black" stroke="black" points="976.42,-528.96 972.92,-518.96 969.42,-528.96 976.42,-528.96"/>
</g>
<!-- n13 -->
<g id="node13" class="node">
<title>n13</title>
<ellipse fill="#98D2A5" stroke="black" cx="1372.92" cy="-481.29" rx="190.84" ry="37.45"/>
<text text-anchor="middle" x="1372.92" y="-492.59" font-family="Times,serif" font-size="14.00">podrían</text>
<text text-anchor="middle" x="1372.92" y="-477.59" font-family="Times,serif" font-size="14.00">vmic3p0 (cobj)</text>
<text text-anchor="middle" x="1372.92" y="-462.59" font-family="Times,serif" font-size="14.00">rep=no, t=no, r=yes, m=yes, c=no</text>
</g>
<!-- n10&#45;&gt;n13 -->
<g id="edge12" class="edge">
<title>n10&#45;&gt;n13</title>
<path fill="none" stroke="black" d="M1082.22,-561.47C1135.36,-547 1199.33,-529.57 1253.71,-514.76"/>
<polygon fill="black" stroke="black" points="1254.67,-518.13 1263.4,-512.12 1252.83,-511.37 1254.67,-518.13"/>
</g>
<!-- n11 -->
<g id="node14" class="node">
<title>n11</title>
<ellipse fill="#98D2A5" stroke="black" cx="972.92" cy="-370.34" rx="190.84" ry="37.45"/>
<text text-anchor="middle" x="972.92" y="-381.64" font-family="Times,serif" font-size="14.00">la</text>
<text text-anchor="middle" x="972.92" y="-366.64" font-family="Times,serif" font-size="14.00">da0fs0 (det)</text>
<text text-anchor="middle" x="972.92" y="-351.64" font-family="Times,serif" font-size="14.00">rep=no, t=no, r=yes, m=yes, c=no</text>
</g>
<!-- n12&#45;&gt;n11 -->
<g id="edge13" class="edge">
<title>n12&#45;&gt;n11</title>
<path fill="none" stroke="black" d="M972.92,-443.71C972.92,-435.53 972.92,-426.75 972.92,-418.23"/>
<polygon fill="black" stroke="black" points="976.42,-418.01 972.92,-408.01 969.42,-418.01 976.42,-418.01"/>
</g>
<!-- n14 -->
<g id="node15" class="node">
<title>n14</title>
<ellipse fill="#98D2A5" stroke="black" cx="1372.92" cy="-370.34" rx="190.84" ry="37.45"/>
<text text-anchor="middle" x="1372.92" y="-381.64" font-family="Times,serif" font-size="14.00">vetar</text>
<text text-anchor="middle" x="1372.92" y="-366.64" font-family="Times,serif" font-size="14.00">vmn0000 (dobj)</text>
<text text-anchor="middle" x="1372.92" y="-351.64" font-family="Times,serif" font-size="14.00">rep=no, t=no, r=yes, m=yes, c=no</text>
</g>
<!-- n13&#45;&gt;n14 -->
<g id="edge14" class="edge">
<title>n13&#45;&gt;n14</title>
<path fill="none" stroke="black" d="M1372.92,-443.71C1372.92,-435.53 1372.92,-426.75 1372.92,-418.23"/>
<polygon fill="black" stroke="black" points="1376.42,-418.01 1372.92,-408.01 1369.42,-418.01 1376.42,-418.01"/>
</g>
<!-- n16 -->
<g id="node16" class="node">
<title>n16</title>
<ellipse fill="#98D2A5" stroke="black" cx="1372.92" cy="-259.38" rx="190.84" ry="37.45"/>
<text text-anchor="middle" x="1372.92" y="-270.68" font-family="Times,serif" font-size="14.00">nombres</text>
<text text-anchor="middle" x="1372.92" y="-255.68" font-family="Times,serif" font-size="14.00">ncmp000 (dobj)</text>
<text text-anchor="middle" x="1372.92" y="-240.68" font-family="Times,serif" font-size="14.00">rep=no, t=no, r=yes, m=yes, c=no</text>
</g>
<!-- n14&#45;&gt;n16 -->
<g id="edge15" class="edge">
<title>n14&#45;&gt;n16</title>
<path fill="none" stroke="black" d="M1372.92,-332.75C1372.92,-324.58 1372.92,-315.8 1372.92,-307.27"/>
<polygon fill="black" stroke="black" points="1376.42,-307.06 1372.92,-297.06 1369.42,-307.06 1376.42,-307.06"/>
</g>
<!-- n15 -->
<g id="node17" class="node">
<title>n15</title>
<ellipse fill="#98D2A5" stroke="black" cx="1172.92" cy="-148.43" rx="190.84" ry="37.45"/>
<text text-anchor="middle" x="1172.92" y="-159.73" font-family="Times,serif" font-size="14.00">algunos</text>
<text text-anchor="middle" x="1172.92" y="-144.73" font-family="Times,serif" font-size="14.00">di0mp0 (det)</text>
<text text-anchor="middle" x="1172.92" y="-129.73" font-family="Times,serif" font-size="14.00">rep=no, t=no, r=yes, m=yes, c=no</text>
</g>
<!-- n16&#45;&gt;n15 -->
<g id="edge16" class="edge">
<title>n16&#45;&gt;n15</title>
<path fill="none" stroke="black" d="M1309.64,-223.91C1289.11,-212.73 1266.18,-200.24 1245.06,-188.73"/>
<polygon fill="black" stroke="black" points="1246.59,-185.58 1236.13,-183.87 1243.24,-191.72 1246.59,-185.58"/>
</g>
<!-- n17 -->
<g id="node18" class="node">
<title>n17</title>
<ellipse fill="#98D2A5" stroke="black" cx="1572.92" cy="-148.43" rx="190.84" ry="37.45"/>
<text text-anchor="middle" x="1572.92" y="-159.73" font-family="Times,serif" font-size="14.00">para</text>
<text text-anchor="middle" x="1572.92" y="-144.73" font-family="Times,serif" font-size="14.00">sps00 (prepn)</text>
<text text-anchor="middle" x="1572.92" y="-129.73" font-family="Times,serif" font-size="14.00">rep=no, t=no, r=yes, m=yes, c=no</text>
</g>
<!-- n16&#45;&gt;n17 -->
<g id="edge17" class="edge">
<title>n16&#45;&gt;n17</title>
<path fill="none" stroke="black" d="M1436.2,-223.91C1456.73,-212.73 1479.65,-200.24 1500.78,-188.73"/>
<polygon fill="black" stroke="black" points="1502.6,-191.72 1509.71,-183.87 1499.25,-185.58 1502.6,-191.72"/>
</g>
<!-- n18 -->
<g id="node19" class="node">
<title>n18</title>
<ellipse fill="#98D2A5" stroke="black" cx="1572.92" cy="-37.48" rx="190.84" ry="37.45"/>
<text text-anchor="middle" x="1572.92" y="-48.78" font-family="Times,serif" font-size="14.00">sucederle</text>
<text text-anchor="middle" x="1572.92" y="-33.78" font-family="Times,serif" font-size="14.00">vmn0000 (pobj)</text>
<text text-anchor="middle" x="1572.92" y="-18.78" font-family="Times,serif" font-size="14.00">rep=no, t=no, r=yes, m=yes, c=no</text>
</g>
<!-- n17&#45;&gt;n18 -->
<g id="edge18" class="edge">
<title>n17&#45;&gt;n18</title>
<path fill="none" stroke="black" d="M1572.92,-110.85C1572.92,-102.67 1572.92,-93.89 1572.92,-85.37"/>
<polygon fill="black" stroke="black" points="1576.42,-85.15 1572.92,-75.15 1569.42,-85.15 1576.42,-85.15"/>
</g>
</g>
</svg>
