<?xml version="1.0" encoding="UTF-8" standalone="no"?>
<!DOCTYPE svg PUBLIC "-//W3C//DTD SVG 1.1//EN"
 "http://www.w3.org/Graphics/SVG/1.1/DTD/svg11.dtd">
<!-- Generated by graphviz version 2.43.0 (0)
 -->
<!-- Title: tree Pages: 1 -->
<svg width="6243pt" height="1414pt"
 viewBox="0.00 0.00 6242.94 1414.39" xmlns="http://www.w3.org/2000/svg" xmlns:xlink="http://www.w3.org/1999/xlink">
<g id="graph0" class="graph" transform="scale(1 1) rotate(0) translate(4 1410.39)">
<title>tree</title>
<polygon fill="white" stroke="transparent" points="-4,4 -4,-1410.39 6238.94,-1410.39 6238.94,4 -4,4"/>
<!-- n21 -->
<g id="node1" class="node">
<title>n21</title>
<ellipse fill="none" stroke="black" cx="1175.97" cy="-1368.92" rx="185.94" ry="37.45"/>
<text text-anchor="middle" x="1175.97" y="-1380.22" font-family="Times,serif" font-size="14.00">pero</text>
<text text-anchor="middle" x="1175.97" y="-1365.22" font-family="Times,serif" font-size="14.00">cc (root)</text>
<text text-anchor="middle" x="1175.97" y="-1350.22" font-family="Times,serif" font-size="14.00">rep=no, t=no, r=no, m=yes, c=no</text>
</g>
<!-- n11 -->
<g id="node2" class="node">
<title>n11</title>
<ellipse fill="#DA79E8" stroke="black" cx="980.97" cy="-1257.96" rx="190.84" ry="37.45"/>
<text text-anchor="middle" x="980.97" y="-1269.26" font-family="Times,serif" font-size="14.00">ha</text>
<text text-anchor="middle" x="980.97" y="-1254.26" font-family="Times,serif" font-size="14.00">vaip3s0 (cobj)</text>
<text text-anchor="middle" x="980.97" y="-1239.26" font-family="Times,serif" font-size="14.00">rep=no, t=no, r=yes, m=yes, c=no</text>
</g>
<!-- n21&#45;&gt;n11 -->
<g id="edge1" class="edge">
<title>n21&#45;&gt;n11</title>
<path fill="none" stroke="black" d="M1114.27,-1333.44C1094.44,-1322.36 1072.32,-1310 1051.88,-1298.59"/>
<polygon fill="black" stroke="black" points="1053.37,-1295.41 1042.94,-1293.59 1049.96,-1301.52 1053.37,-1295.41"/>
</g>
<!-- n54 -->
<g id="node3" class="node">
<title>n54</title>
<ellipse fill="none" stroke="black" cx="1371.97" cy="-1257.96" rx="181.95" ry="37.45"/>
<text text-anchor="middle" x="1371.97" y="-1269.26" font-family="Times,serif" font-size="14.00">.</text>
<text text-anchor="middle" x="1371.97" y="-1254.26" font-family="Times,serif" font-size="14.00">fp (punct)</text>
<text text-anchor="middle" x="1371.97" y="-1239.26" font-family="Times,serif" font-size="14.00">rep=no, t=no, r=no, m=no, c=no</text>
</g>
<!-- n21&#45;&gt;n54 -->
<g id="edge2" class="edge">
<title>n21&#45;&gt;n54</title>
<path fill="none" stroke="black" d="M1237.98,-1333.44C1258.1,-1322.26 1280.57,-1309.77 1301.27,-1298.26"/>
<polygon fill="black" stroke="black" points="1302.98,-1301.32 1310.02,-1293.4 1299.58,-1295.2 1302.98,-1301.32"/>
</g>
<!-- n8 -->
<g id="node4" class="node">
<title>n8</title>
<ellipse fill="none" stroke="black" cx="185.97" cy="-1147.01" rx="185.94" ry="37.45"/>
<text text-anchor="middle" x="185.97" y="-1158.31" font-family="Times,serif" font-size="14.00">,</text>
<text text-anchor="middle" x="185.97" y="-1143.31" font-family="Times,serif" font-size="14.00">fc (punct)</text>
<text text-anchor="middle" x="185.97" y="-1128.31" font-family="Times,serif" font-size="14.00">rep=no, t=no, r=no, m=yes, c=no</text>
</g>
<!-- n11&#45;&gt;n8 -->
<g id="edge3" class="edge">
<title>n11&#45;&gt;n8</title>
<path fill="none" stroke="black" d="M814.07,-1239.73C693.47,-1226.57 526.8,-1206.91 380.97,-1184.49 363.45,-1181.79 345.09,-1178.71 326.94,-1175.5"/>
<polygon fill="black" stroke="black" points="327.34,-1172.01 316.89,-1173.7 326.11,-1178.91 327.34,-1172.01"/>
</g>
<!-- n10 -->
<g id="node5" class="node">
<title>n10</title>
<ellipse fill="#BEDA48" stroke="black" cx="580.97" cy="-1147.01" rx="190.84" ry="37.45"/>
<text text-anchor="middle" x="580.97" y="-1158.31" font-family="Times,serif" font-size="14.00">asesinato</text>
<text text-anchor="middle" x="580.97" y="-1143.31" font-family="Times,serif" font-size="14.00">ncms000 (nsubj)</text>
<text text-anchor="middle" x="580.97" y="-1128.31" font-family="Times,serif" font-size="14.00">rep=no, t=yes, r=no, m=yes, c=no</text>
</g>
<!-- n11&#45;&gt;n10 -->
<g id="edge4" class="edge">
<title>n11&#45;&gt;n10</title>
<path fill="none" stroke="black" d="M871.67,-1227.19C818.53,-1212.72 754.56,-1195.29 700.17,-1180.48"/>
<polygon fill="black" stroke="black" points="701.05,-1177.09 690.49,-1177.84 699.21,-1183.85 701.05,-1177.09"/>
</g>
<!-- n12 -->
<g id="node6" class="node">
<title>n12</title>
<ellipse fill="#DA79E8" stroke="black" cx="980.97" cy="-1147.01" rx="190.84" ry="37.45"/>
<text text-anchor="middle" x="980.97" y="-1158.31" font-family="Times,serif" font-size="14.00">ido</text>
<text text-anchor="middle" x="980.97" y="-1143.31" font-family="Times,serif" font-size="14.00">vmp00sm (vobj)</text>
<text text-anchor="middle" x="980.97" y="-1128.31" font-family="Times,serif" font-size="14.00">rep=no, t=no, r=yes, m=yes, c=no</text>
</g>
<!-- n11&#45;&gt;n12 -->
<g id="edge5" class="edge">
<title>n11&#45;&gt;n12</title>
<path fill="none" stroke="black" d="M980.97,-1220.38C980.97,-1212.21 980.97,-1203.43 980.97,-1194.9"/>
<polygon fill="black" stroke="black" points="984.47,-1194.68 980.97,-1184.68 977.47,-1194.68 984.47,-1194.68"/>
</g>
<!-- n20 -->
<g id="node7" class="node">
<title>n20</title>
<ellipse fill="#DA79E8" stroke="black" cx="1380.97" cy="-1147.01" rx="190.84" ry="37.45"/>
<text text-anchor="middle" x="1380.97" y="-1158.31" font-family="Times,serif" font-size="14.00">,</text>
<text text-anchor="middle" x="1380.97" y="-1143.31" font-family="Times,serif" font-size="14.00">fc (punct)</text>
<text text-anchor="middle" x="1380.97" y="-1128.31" font-family="Times,serif" font-size="14.00">rep=no, t=no, r=yes, m=yes, c=no</text>
</g>
<!-- n11&#45;&gt;n20 -->
<g id="edge6" class="edge">
<title>n11&#45;&gt;n20</title>
<path fill="none" stroke="black" d="M1090.27,-1227.19C1143.41,-1212.72 1207.38,-1195.29 1261.76,-1180.48"/>
<polygon fill="black" stroke="black" points="1262.72,-1183.85 1271.45,-1177.84 1260.88,-1177.09 1262.72,-1183.85"/>
</g>
<!-- n22 -->
<g id="node8" class="node">
<title>n22</title>
<ellipse fill="none" stroke="black" cx="1872.97" cy="-1147.01" rx="185.94" ry="37.45"/>
<text text-anchor="middle" x="1872.97" y="-1158.31" font-family="Times,serif" font-size="14.00">también</text>
<text text-anchor="middle" x="1872.97" y="-1143.31" font-family="Times,serif" font-size="14.00">rg (advmod)</text>
<text text-anchor="middle" x="1872.97" y="-1128.31" font-family="Times,serif" font-size="14.00">rep=no, t=no, r=no, m=yes, c=no</text>
</g>
<!-- n11&#45;&gt;n22 -->
<g id="edge7" class="edge">
<title>n11&#45;&gt;n22</title>
<path fill="none" stroke="black" d="M1113.83,-1230.99C1136.19,-1227.12 1159.2,-1223.45 1180.97,-1220.49 1357.84,-1196.45 1403.49,-1203.55 1580.97,-1184.49 1622.59,-1180.02 1667.48,-1174.67 1709.28,-1169.47"/>
<polygon fill="black" stroke="black" points="1709.78,-1172.93 1719.27,-1168.22 1708.91,-1165.99 1709.78,-1172.93"/>
</g>
<!-- n9 -->
<g id="node9" class="node">
<title>n9</title>
<ellipse fill="#BEDA48" stroke="black" cx="556.97" cy="-1036.06" rx="190.84" ry="37.45"/>
<text text-anchor="middle" x="556.97" y="-1047.36" font-family="Times,serif" font-size="14.00">cada</text>
<text text-anchor="middle" x="556.97" y="-1032.36" font-family="Times,serif" font-size="14.00">di0cs0 (det)</text>
<text text-anchor="middle" x="556.97" y="-1017.36" font-family="Times,serif" font-size="14.00">rep=no, t=yes, r=no, m=yes, c=no</text>
</g>
<!-- n10&#45;&gt;n9 -->
<g id="edge8" class="edge">
<title>n10&#45;&gt;n9</title>
<path fill="none" stroke="black" d="M572.91,-1109.43C571.09,-1101.16 569.13,-1092.28 567.24,-1083.66"/>
<polygon fill="black" stroke="black" points="570.62,-1082.74 565.05,-1073.73 563.78,-1084.25 570.62,-1082.74"/>
</g>
<!-- n1 -->
<g id="node10" class="node">
<title>n1</title>
<ellipse fill="#DA79E8" stroke="black" cx="956.97" cy="-1036.06" rx="190.84" ry="37.45"/>
<text text-anchor="middle" x="956.97" y="-1047.36" font-family="Times,serif" font-size="14.00">Como</text>
<text text-anchor="middle" x="956.97" y="-1032.36" font-family="Times,serif" font-size="14.00">cs (dep)</text>
<text text-anchor="middle" x="956.97" y="-1017.36" font-family="Times,serif" font-size="14.00">rep=no, t=no, r=yes, m=yes, c=no</text>
</g>
<!-- n12&#45;&gt;n1 -->
<g id="edge9" class="edge">
<title>n12&#45;&gt;n1</title>
<path fill="none" stroke="black" d="M972.91,-1109.43C971.09,-1101.16 969.13,-1092.28 967.24,-1083.66"/>
<polygon fill="black" stroke="black" points="970.62,-1082.74 965.05,-1073.73 963.78,-1084.25 970.62,-1082.74"/>
</g>
<!-- n13 -->
<g id="node11" class="node">
<title>n13</title>
<ellipse fill="#DA79E8" stroke="black" cx="1356.97" cy="-1036.06" rx="190.84" ry="37.45"/>
<text text-anchor="middle" x="1356.97" y="-1047.36" font-family="Times,serif" font-size="14.00">acompañado</text>
<text text-anchor="middle" x="1356.97" y="-1032.36" font-family="Times,serif" font-size="14.00">aq0msp (cpred)</text>
<text text-anchor="middle" x="1356.97" y="-1017.36" font-family="Times,serif" font-size="14.00">rep=no, t=no, r=yes, m=yes, c=no</text>
</g>
<!-- n12&#45;&gt;n13 -->
<g id="edge10" class="edge">
<title>n12&#45;&gt;n13</title>
<path fill="none" stroke="black" d="M1085.71,-1115.66C1134.39,-1101.55 1192.42,-1084.74 1242.28,-1070.29"/>
<polygon fill="black" stroke="black" points="1243.51,-1073.58 1252.14,-1067.43 1241.56,-1066.85 1243.51,-1073.58"/>
</g>
<!-- n23 -->
<g id="node24" class="node">
<title>n23</title>
<ellipse fill="none" stroke="black" cx="1921.97" cy="-1036.06" rx="185.94" ry="37.45"/>
<text text-anchor="middle" x="1921.97" y="-1047.36" font-family="Times,serif" font-size="14.00">del</text>
<text text-anchor="middle" x="1921.97" y="-1032.36" font-family="Times,serif" font-size="14.00">spcms (prep)</text>
<text text-anchor="middle" x="1921.97" y="-1017.36" font-family="Times,serif" font-size="14.00">rep=no, t=no, r=no, m=yes, c=no</text>
</g>
<!-- n22&#45;&gt;n23 -->
<g id="edge23" class="edge">
<title>n22&#45;&gt;n23</title>
<path fill="none" stroke="black" d="M1889.42,-1109.43C1893.22,-1100.98 1897.31,-1091.89 1901.26,-1083.1"/>
<polygon fill="black" stroke="black" points="1904.57,-1084.28 1905.48,-1073.73 1898.18,-1081.41 1904.57,-1084.28"/>
</g>
<!-- n2 -->
<g id="node12" class="node">
<title>n2</title>
<ellipse fill="#DA79E8" stroke="black" cx="856.97" cy="-925.1" rx="190.84" ry="37.45"/>
<text text-anchor="middle" x="856.97" y="-936.4" font-family="Times,serif" font-size="14.00">antes</text>
<text text-anchor="middle" x="856.97" y="-921.4" font-family="Times,serif" font-size="14.00">rg (advmod)</text>
<text text-anchor="middle" x="856.97" y="-906.4" font-family="Times,serif" font-size="14.00">rep=no, t=no, r=yes, m=yes, c=no</text>
</g>
<!-- n1&#45;&gt;n2 -->
<g id="edge11" class="edge">
<title>n1&#45;&gt;n2</title>
<path fill="none" stroke="black" d="M923.95,-999.08C915.24,-989.6 905.76,-979.26 896.74,-969.44"/>
<polygon fill="black" stroke="black" points="899.3,-967.04 889.96,-962.04 894.14,-971.78 899.3,-967.04"/>
</g>
<!-- n14 -->
<g id="node18" class="node">
<title>n14</title>
<ellipse fill="#DA79E8" stroke="black" cx="1356.97" cy="-925.1" rx="190.84" ry="37.45"/>
<text text-anchor="middle" x="1356.97" y="-936.4" font-family="Times,serif" font-size="14.00">de</text>
<text text-anchor="middle" x="1356.97" y="-921.4" font-family="Times,serif" font-size="14.00">sps00 (agent)</text>
<text text-anchor="middle" x="1356.97" y="-906.4" font-family="Times,serif" font-size="14.00">rep=no, t=no, r=yes, m=yes, c=no</text>
</g>
<!-- n13&#45;&gt;n14 -->
<g id="edge17" class="edge">
<title>n13&#45;&gt;n14</title>
<path fill="none" stroke="black" d="M1356.97,-998.47C1356.97,-990.3 1356.97,-981.52 1356.97,-972.99"/>
<polygon fill="black" stroke="black" points="1360.47,-972.78 1356.97,-962.78 1353.47,-972.78 1360.47,-972.78"/>
</g>
<!-- n3 -->
<g id="node13" class="node">
<title>n3</title>
<ellipse fill="#DA79E8" stroke="black" cx="756.97" cy="-814.15" rx="190.84" ry="37.45"/>
<text text-anchor="middle" x="756.97" y="-825.45" font-family="Times,serif" font-size="14.00">de</text>
<text text-anchor="middle" x="756.97" y="-810.45" font-family="Times,serif" font-size="14.00">sps00 (prep)</text>
<text text-anchor="middle" x="756.97" y="-795.45" font-family="Times,serif" font-size="14.00">rep=no, t=no, r=yes, m=yes, c=no</text>
</g>
<!-- n2&#45;&gt;n3 -->
<g id="edge12" class="edge">
<title>n2&#45;&gt;n3</title>
<path fill="none" stroke="black" d="M823.95,-888.13C815.24,-878.64 805.76,-868.31 796.74,-858.48"/>
<polygon fill="black" stroke="black" points="799.3,-856.09 789.96,-851.09 794.14,-860.82 799.3,-856.09"/>
</g>
<!-- n7 -->
<g id="node14" class="node">
<title>n7</title>
<ellipse fill="#DA79E8" stroke="black" cx="556.97" cy="-703.2" rx="190.84" ry="37.45"/>
<text text-anchor="middle" x="556.97" y="-714.5" font-family="Times,serif" font-size="14.00">tregua</text>
<text text-anchor="middle" x="556.97" y="-699.5" font-family="Times,serif" font-size="14.00">ncfs000 (pobj)</text>
<text text-anchor="middle" x="556.97" y="-684.5" font-family="Times,serif" font-size="14.00">rep=no, t=no, r=yes, m=yes, c=no</text>
</g>
<!-- n3&#45;&gt;n7 -->
<g id="edge13" class="edge">
<title>n3&#45;&gt;n7</title>
<path fill="none" stroke="black" d="M693.69,-778.68C673.16,-767.49 650.23,-755 629.11,-743.5"/>
<polygon fill="black" stroke="black" points="630.64,-740.34 620.18,-738.63 627.29,-746.49 630.64,-740.34"/>
</g>
<!-- n4 -->
<g id="node15" class="node">
<title>n4</title>
<ellipse fill="#DA79E8" stroke="black" cx="356.97" cy="-592.24" rx="190.84" ry="37.45"/>
<text text-anchor="middle" x="356.97" y="-603.54" font-family="Times,serif" font-size="14.00">la</text>
<text text-anchor="middle" x="356.97" y="-588.54" font-family="Times,serif" font-size="14.00">da0fs0 (det)</text>
<text text-anchor="middle" x="356.97" y="-573.54" font-family="Times,serif" font-size="14.00">rep=no, t=no, r=yes, m=yes, c=no</text>
</g>
<!-- n7&#45;&gt;n4 -->
<g id="edge14" class="edge">
<title>n7&#45;&gt;n4</title>
<path fill="none" stroke="black" d="M493.69,-667.72C473.16,-656.54 450.23,-644.05 429.11,-632.54"/>
<polygon fill="black" stroke="black" points="430.64,-629.39 420.18,-627.68 427.29,-635.54 430.64,-629.39"/>
</g>
<!-- n6 -->
<g id="node16" class="node">
<title>n6</title>
<ellipse fill="#DA79E8" stroke="black" cx="756.97" cy="-592.24" rx="190.84" ry="37.45"/>
<text text-anchor="middle" x="756.97" y="-603.54" font-family="Times,serif" font-size="14.00">olvidada</text>
<text text-anchor="middle" x="756.97" y="-588.54" font-family="Times,serif" font-size="14.00">aq0fsp (amod)</text>
<text text-anchor="middle" x="756.97" y="-573.54" font-family="Times,serif" font-size="14.00">rep=no, t=no, r=yes, m=yes, c=no</text>
</g>
<!-- n7&#45;&gt;n6 -->
<g id="edge15" class="edge">
<title>n7&#45;&gt;n6</title>
<path fill="none" stroke="black" d="M620.25,-667.72C640.78,-656.54 663.7,-644.05 684.83,-632.54"/>
<polygon fill="black" stroke="black" points="686.65,-635.54 693.76,-627.68 683.3,-629.39 686.65,-635.54"/>
</g>
<!-- n5 -->
<g id="node17" class="node">
<title>n5</title>
<ellipse fill="#DA79E8" stroke="black" cx="756.97" cy="-481.29" rx="190.84" ry="37.45"/>
<text text-anchor="middle" x="756.97" y="-492.59" font-family="Times,serif" font-size="14.00">ya</text>
<text text-anchor="middle" x="756.97" y="-477.59" font-family="Times,serif" font-size="14.00">rg (advmod)</text>
<text text-anchor="middle" x="756.97" y="-462.59" font-family="Times,serif" font-size="14.00">rep=no, t=no, r=yes, m=yes, c=no</text>
</g>
<!-- n6&#45;&gt;n5 -->
<g id="edge16" class="edge">
<title>n6&#45;&gt;n5</title>
<path fill="none" stroke="black" d="M756.97,-554.66C756.97,-546.49 756.97,-537.71 756.97,-529.18"/>
<polygon fill="black" stroke="black" points="760.47,-528.96 756.97,-518.96 753.47,-528.96 760.47,-528.96"/>
</g>
<!-- n17 -->
<g id="node19" class="node">
<title>n17</title>
<ellipse fill="#DA79E8" stroke="black" cx="1356.97" cy="-814.15" rx="190.84" ry="37.45"/>
<text text-anchor="middle" x="1356.97" y="-825.45" font-family="Times,serif" font-size="14.00">rosario</text>
<text text-anchor="middle" x="1356.97" y="-810.45" font-family="Times,serif" font-size="14.00">ncms000 (pobj)</text>
<text text-anchor="middle" x="1356.97" y="-795.45" font-family="Times,serif" font-size="14.00">rep=no, t=no, r=yes, m=yes, c=no</text>
</g>
<!-- n14&#45;&gt;n17 -->
<g id="edge18" class="edge">
<title>n14&#45;&gt;n17</title>
<path fill="none" stroke="black" d="M1356.97,-887.52C1356.97,-879.35 1356.97,-870.57 1356.97,-862.04"/>
<polygon fill="black" stroke="black" points="1360.47,-861.82 1356.97,-851.82 1353.47,-861.82 1360.47,-861.82"/>
</g>
<!-- n15 -->
<g id="node20" class="node">
<title>n15</title>
<ellipse fill="#DA79E8" stroke="black" cx="956.97" cy="-703.2" rx="190.84" ry="37.45"/>
<text text-anchor="middle" x="956.97" y="-714.5" font-family="Times,serif" font-size="14.00">un</text>
<text text-anchor="middle" x="956.97" y="-699.5" font-family="Times,serif" font-size="14.00">di0ms0 (det)</text>
<text text-anchor="middle" x="956.97" y="-684.5" font-family="Times,serif" font-size="14.00">rep=no, t=no, r=yes, m=yes, c=no</text>
</g>
<!-- n17&#45;&gt;n15 -->
<g id="edge19" class="edge">
<title>n17&#45;&gt;n15</title>
<path fill="none" stroke="black" d="M1247.67,-783.38C1194.53,-768.9 1130.56,-751.48 1076.17,-736.67"/>
<polygon fill="black" stroke="black" points="1077.05,-733.28 1066.49,-734.03 1075.21,-740.03 1077.05,-733.28"/>
</g>
<!-- n16 -->
<g id="node21" class="node">
<title>n16</title>
<ellipse fill="#DA79E8" stroke="black" cx="1356.97" cy="-703.2" rx="190.84" ry="37.45"/>
<text text-anchor="middle" x="1356.97" y="-714.5" font-family="Times,serif" font-size="14.00">cansino</text>
<text text-anchor="middle" x="1356.97" y="-699.5" font-family="Times,serif" font-size="14.00">aq0ms0 (amod)</text>
<text text-anchor="middle" x="1356.97" y="-684.5" font-family="Times,serif" font-size="14.00">rep=no, t=no, r=yes, m=yes, c=no</text>
</g>
<!-- n17&#45;&gt;n16 -->
<g id="edge20" class="edge">
<title>n17&#45;&gt;n16</title>
<path fill="none" stroke="black" d="M1356.97,-776.57C1356.97,-768.39 1356.97,-759.61 1356.97,-751.09"/>
<polygon fill="black" stroke="black" points="1360.47,-750.87 1356.97,-740.87 1353.47,-750.87 1360.47,-750.87"/>
</g>
<!-- n18 -->
<g id="node22" class="node">
<title>n18</title>
<ellipse fill="#DA79E8" stroke="black" cx="1756.97" cy="-703.2" rx="190.84" ry="37.45"/>
<text text-anchor="middle" x="1756.97" y="-714.5" font-family="Times,serif" font-size="14.00">de</text>
<text text-anchor="middle" x="1756.97" y="-699.5" font-family="Times,serif" font-size="14.00">sps00 (prepn)</text>
<text text-anchor="middle" x="1756.97" y="-684.5" font-family="Times,serif" font-size="14.00">rep=no, t=no, r=yes, m=yes, c=no</text>
</g>
<!-- n17&#45;&gt;n18 -->
<g id="edge21" class="edge">
<title>n17&#45;&gt;n18</title>
<path fill="none" stroke="black" d="M1466.27,-783.38C1519.41,-768.9 1583.38,-751.48 1637.76,-736.67"/>
<polygon fill="black" stroke="black" points="1638.72,-740.03 1647.45,-734.03 1636.88,-733.28 1638.72,-740.03"/>
</g>
<!-- n19 -->
<g id="node23" class="node">
<title>n19</title>
<ellipse fill="#DA79E8" stroke="black" cx="1753.97" cy="-592.24" rx="190.84" ry="37.45"/>
<text text-anchor="middle" x="1753.97" y="-603.54" font-family="Times,serif" font-size="14.00">condenas</text>
<text text-anchor="middle" x="1753.97" y="-588.54" font-family="Times,serif" font-size="14.00">ncfp000 (pobj)</text>
<text text-anchor="middle" x="1753.97" y="-573.54" font-family="Times,serif" font-size="14.00">rep=no, t=no, r=yes, m=yes, c=no</text>
</g>
<!-- n18&#45;&gt;n19 -->
<g id="edge22" class="edge">
<title>n18&#45;&gt;n19</title>
<path fill="none" stroke="black" d="M1755.96,-665.61C1755.74,-657.44 1755.49,-648.66 1755.26,-640.13"/>
<polygon fill="black" stroke="black" points="1758.75,-639.81 1754.98,-629.92 1751.76,-640.01 1758.75,-639.81"/>
</g>
<!-- n25 -->
<g id="node25" class="node">
<title>n25</title>
<ellipse fill="none" stroke="black" cx="2116.97" cy="-925.1" rx="185.94" ry="37.45"/>
<text text-anchor="middle" x="2116.97" y="-936.4" font-family="Times,serif" font-size="14.00">hostigamiento</text>
<text text-anchor="middle" x="2116.97" y="-921.4" font-family="Times,serif" font-size="14.00">ncms000 (pobj)</text>
<text text-anchor="middle" x="2116.97" y="-906.4" font-family="Times,serif" font-size="14.00">rep=no, t=no, r=no, m=yes, c=no</text>
</g>
<!-- n23&#45;&gt;n25 -->
<g id="edge24" class="edge">
<title>n23&#45;&gt;n25</title>
<path fill="none" stroke="black" d="M1983.67,-1000.58C2003.59,-989.45 2025.84,-977.02 2046.35,-965.56"/>
<polygon fill="black" stroke="black" points="2048.31,-968.47 2055.34,-960.54 2044.9,-962.36 2048.31,-968.47"/>
</g>
<!-- n24 -->
<g id="node26" class="node">
<title>n24</title>
<ellipse fill="none" stroke="black" cx="1751.97" cy="-814.15" rx="185.94" ry="37.45"/>
<text text-anchor="middle" x="1751.97" y="-825.45" font-family="Times,serif" font-size="14.00">creciente</text>
<text text-anchor="middle" x="1751.97" y="-810.45" font-family="Times,serif" font-size="14.00">aq0cs0 (amod)</text>
<text text-anchor="middle" x="1751.97" y="-795.45" font-family="Times,serif" font-size="14.00">rep=no, t=no, r=no, m=yes, c=no</text>
</g>
<!-- n25&#45;&gt;n24 -->
<g id="edge25" class="edge">
<title>n25&#45;&gt;n24</title>
<path fill="none" stroke="black" d="M2014.81,-893.61C1967.75,-879.56 1911.79,-862.86 1863.63,-848.48"/>
<polygon fill="black" stroke="black" points="1864.37,-845.05 1853.79,-845.54 1862.37,-851.76 1864.37,-845.05"/>
</g>
<!-- n26 -->
<g id="node27" class="node">
<title>n26</title>
<ellipse fill="none" stroke="black" cx="2141.97" cy="-814.15" rx="185.94" ry="37.45"/>
<text text-anchor="middle" x="2141.97" y="-825.45" font-family="Times,serif" font-size="14.00">político</text>
<text text-anchor="middle" x="2141.97" y="-810.45" font-family="Times,serif" font-size="14.00">aq0ms0 (amod)</text>
<text text-anchor="middle" x="2141.97" y="-795.45" font-family="Times,serif" font-size="14.00">rep=no, t=no, r=no, m=yes, c=no</text>
</g>
<!-- n25&#45;&gt;n26 -->
<g id="edge26" class="edge">
<title>n25&#45;&gt;n26</title>
<path fill="none" stroke="black" d="M2125.36,-887.52C2127.26,-879.26 2129.3,-870.37 2131.27,-861.76"/>
<polygon fill="black" stroke="black" points="2134.73,-862.35 2133.55,-851.82 2127.91,-860.79 2134.73,-862.35"/>
</g>
<!-- n27 -->
<g id="node28" class="node">
<title>n27</title>
<ellipse fill="none" stroke="black" cx="2533.97" cy="-814.15" rx="185.94" ry="37.45"/>
<text text-anchor="middle" x="2533.97" y="-825.45" font-family="Times,serif" font-size="14.00">a</text>
<text text-anchor="middle" x="2533.97" y="-810.45" font-family="Times,serif" font-size="14.00">sps00 (prepn)</text>
<text text-anchor="middle" x="2533.97" y="-795.45" font-family="Times,serif" font-size="14.00">rep=no, t=no, r=no, m=yes, c=no</text>
</g>
<!-- n25&#45;&gt;n27 -->
<g id="edge27" class="edge">
<title>n25&#45;&gt;n27</title>
<path fill="none" stroke="black" d="M2228.17,-895.05C2285.07,-880.18 2354.44,-862.06 2412.72,-846.83"/>
<polygon fill="black" stroke="black" points="2413.93,-850.13 2422.72,-844.22 2412.16,-843.36 2413.93,-850.13"/>
</g>
<!-- n29 -->
<g id="node29" class="node">
<title>n29</title>
<ellipse fill="none" stroke="black" cx="2538.97" cy="-703.2" rx="185.94" ry="37.45"/>
<text text-anchor="middle" x="2538.97" y="-714.5" font-family="Times,serif" font-size="14.00">Partido</text>
<text text-anchor="middle" x="2538.97" y="-699.5" font-family="Times,serif" font-size="14.00">ncms000 (pobj)</text>
<text text-anchor="middle" x="2538.97" y="-684.5" font-family="Times,serif" font-size="14.00">rep=no, t=no, r=no, m=yes, c=no</text>
</g>
<!-- n27&#45;&gt;n29 -->
<g id="edge28" class="edge">
<title>n27&#45;&gt;n29</title>
<path fill="none" stroke="black" d="M2535.65,-776.57C2536.02,-768.39 2536.43,-759.61 2536.82,-751.09"/>
<polygon fill="black" stroke="black" points="2540.32,-751.02 2537.29,-740.87 2533.33,-750.7 2540.32,-751.02"/>
</g>
<!-- n28 -->
<g id="node30" class="node">
<title>n28</title>
<ellipse fill="none" stroke="black" cx="2148.97" cy="-592.24" rx="185.94" ry="37.45"/>
<text text-anchor="middle" x="2148.97" y="-603.54" font-family="Times,serif" font-size="14.00">un</text>
<text text-anchor="middle" x="2148.97" y="-588.54" font-family="Times,serif" font-size="14.00">di0ms0 (det)</text>
<text text-anchor="middle" x="2148.97" y="-573.54" font-family="Times,serif" font-size="14.00">rep=no, t=no, r=no, m=yes, c=no</text>
</g>
<!-- n29&#45;&gt;n28 -->
<g id="edge29" class="edge">
<title>n29&#45;&gt;n28</title>
<path fill="none" stroke="black" d="M2432.4,-672.42C2380.59,-657.95 2318.23,-640.53 2265.2,-625.71"/>
<polygon fill="black" stroke="black" points="2265.98,-622.3 2255.41,-622.98 2264.1,-629.04 2265.98,-622.3"/>
</g>
<!-- n30 -->
<g id="node31" class="node">
<title>n30</title>
<ellipse fill="none" stroke="black" cx="2538.97" cy="-592.24" rx="185.94" ry="37.45"/>
<text text-anchor="middle" x="2538.97" y="-603.54" font-family="Times,serif" font-size="14.00">Nacionalista</text>
<text text-anchor="middle" x="2538.97" y="-588.54" font-family="Times,serif" font-size="14.00">ncms000 (appos)</text>
<text text-anchor="middle" x="2538.97" y="-573.54" font-family="Times,serif" font-size="14.00">rep=no, t=no, r=no, m=yes, c=no</text>
</g>
<!-- n29&#45;&gt;n30 -->
<g id="edge30" class="edge">
<title>n29&#45;&gt;n30</title>
<path fill="none" stroke="black" d="M2538.97,-665.61C2538.97,-657.44 2538.97,-648.66 2538.97,-640.13"/>
<polygon fill="black" stroke="black" points="2542.47,-639.92 2538.97,-629.92 2535.47,-639.92 2542.47,-639.92"/>
</g>
<!-- n33 -->
<g id="node32" class="node">
<title>n33</title>
<ellipse fill="none" stroke="black" cx="2928.97" cy="-592.24" rx="185.94" ry="37.45"/>
<text text-anchor="middle" x="2928.97" y="-603.54" font-family="Times,serif" font-size="14.00">PNV</text>
<text text-anchor="middle" x="2928.97" y="-588.54" font-family="Times,serif" font-size="14.00">np00000 (appos)</text>
<text text-anchor="middle" x="2928.97" y="-573.54" font-family="Times,serif" font-size="14.00">rep=no, t=no, r=no, m=yes, c=no</text>
</g>
<!-- n29&#45;&gt;n33 -->
<g id="edge31" class="edge">
<title>n29&#45;&gt;n33</title>
<path fill="none" stroke="black" d="M2645.54,-672.42C2697.34,-657.95 2759.71,-640.53 2812.74,-625.71"/>
<polygon fill="black" stroke="black" points="2813.84,-629.04 2822.53,-622.98 2811.96,-622.3 2813.84,-629.04"/>
</g>
<!-- n45 -->
<g id="node33" class="node">
<title>n45</title>
<ellipse fill="none" stroke="black" cx="4293.97" cy="-592.24" rx="185.94" ry="37.45"/>
<text text-anchor="middle" x="4293.97" y="-603.54" font-family="Times,serif" font-size="14.00">pagará</text>
<text text-anchor="middle" x="4293.97" y="-588.54" font-family="Times,serif" font-size="14.00">vmif3s0 (rcmod)</text>
<text text-anchor="middle" x="4293.97" y="-573.54" font-family="Times,serif" font-size="14.00">rep=no, t=no, r=no, m=yes, c=no</text>
</g>
<!-- n29&#45;&gt;n45 -->
<g id="edge32" class="edge">
<title>n29&#45;&gt;n45</title>
<path fill="none" stroke="black" d="M2715.28,-691.25C3048.2,-670.58 3766.44,-625.99 4107.23,-604.84"/>
<polygon fill="black" stroke="black" points="4107.68,-608.31 4117.45,-604.2 4107.25,-601.33 4107.68,-608.31"/>
</g>
<!-- n31 -->
<g id="node34" class="node">
<title>n31</title>
<ellipse fill="none" stroke="black" cx="2343.97" cy="-481.29" rx="185.94" ry="37.45"/>
<text text-anchor="middle" x="2343.97" y="-492.59" font-family="Times,serif" font-size="14.00">Vasco</text>
<text text-anchor="middle" x="2343.97" y="-477.59" font-family="Times,serif" font-size="14.00">ncfs000 (appos)</text>
<text text-anchor="middle" x="2343.97" y="-462.59" font-family="Times,serif" font-size="14.00">rep=no, t=no, r=no, m=yes, c=no</text>
</g>
<!-- n30&#45;&gt;n31 -->
<g id="edge33" class="edge">
<title>n30&#45;&gt;n31</title>
<path fill="none" stroke="black" d="M2477.27,-556.77C2457.34,-545.64 2435.1,-533.21 2414.58,-521.75"/>
<polygon fill="black" stroke="black" points="2416.04,-518.55 2405.6,-516.73 2412.62,-524.66 2416.04,-518.55"/>
</g>
<!-- n32 -->
<g id="node35" class="node">
<title>n32</title>
<ellipse fill="none" stroke="black" cx="2733.97" cy="-481.29" rx="185.94" ry="37.45"/>
<text text-anchor="middle" x="2733.97" y="-492.59" font-family="Times,serif" font-size="14.00">(</text>
<text text-anchor="middle" x="2733.97" y="-477.59" font-family="Times,serif" font-size="14.00">fpa (punct)</text>
<text text-anchor="middle" x="2733.97" y="-462.59" font-family="Times,serif" font-size="14.00">rep=no, t=no, r=no, m=yes, c=no</text>
</g>
<!-- n33&#45;&gt;n32 -->
<g id="edge34" class="edge">
<title>n33&#45;&gt;n32</title>
<path fill="none" stroke="black" d="M2867.27,-556.77C2847.34,-545.64 2825.1,-533.21 2804.58,-521.75"/>
<polygon fill="black" stroke="black" points="2806.04,-518.55 2795.6,-516.73 2802.62,-524.66 2806.04,-518.55"/>
</g>
<!-- n34 -->
<g id="node36" class="node">
<title>n34</title>
<ellipse fill="none" stroke="black" cx="3123.97" cy="-481.29" rx="185.94" ry="37.45"/>
<text text-anchor="middle" x="3123.97" y="-492.59" font-family="Times,serif" font-size="14.00">)</text>
<text text-anchor="middle" x="3123.97" y="-477.59" font-family="Times,serif" font-size="14.00">fpt (punct)</text>
<text text-anchor="middle" x="3123.97" y="-462.59" font-family="Times,serif" font-size="14.00">rep=no, t=no, r=no, m=yes, c=no</text>
</g>
<!-- n33&#45;&gt;n34 -->
<g id="edge35" class="edge">
<title>n33&#45;&gt;n34</title>
<path fill="none" stroke="black" d="M2990.67,-556.77C3010.59,-545.64 3032.84,-533.21 3053.35,-521.75"/>
<polygon fill="black" stroke="black" points="3055.31,-524.66 3062.34,-516.73 3051.9,-518.55 3055.31,-524.66"/>
</g>
<!-- n35 -->
<g id="node37" class="node">
<title>n35</title>
<ellipse fill="none" stroke="black" cx="3513.97" cy="-481.29" rx="185.94" ry="37.45"/>
<text text-anchor="middle" x="3513.97" y="-492.59" font-family="Times,serif" font-size="14.00">que</text>
<text text-anchor="middle" x="3513.97" y="-477.59" font-family="Times,serif" font-size="14.00">pr0cn000 (nsubj)</text>
<text text-anchor="middle" x="3513.97" y="-462.59" font-family="Times,serif" font-size="14.00">rep=no, t=no, r=no, m=yes, c=no</text>
</g>
<!-- n45&#45;&gt;n35 -->
<g id="edge36" class="edge">
<title>n45&#45;&gt;n35</title>
<path fill="none" stroke="black" d="M4131.57,-573.84C4013.96,-560.58 3851.3,-540.87 3708.97,-518.77 3691.45,-516.05 3673.1,-512.94 3654.95,-509.73"/>
<polygon fill="black" stroke="black" points="3655.35,-506.24 3644.89,-507.93 3654.12,-513.13 3655.35,-506.24"/>
</g>
<!-- n36 -->
<g id="node38" class="node">
<title>n36</title>
<ellipse fill="none" stroke="black" cx="3903.97" cy="-481.29" rx="185.94" ry="37.45"/>
<text text-anchor="middle" x="3903.97" y="-492.59" font-family="Times,serif" font-size="14.00">,</text>
<text text-anchor="middle" x="3903.97" y="-477.59" font-family="Times,serif" font-size="14.00">fc (punct)</text>
<text text-anchor="middle" x="3903.97" y="-462.59" font-family="Times,serif" font-size="14.00">rep=no, t=no, r=no, m=yes, c=no</text>
</g>
<!-- n45&#45;&gt;n36 -->
<g id="edge37" class="edge">
<title>n45&#45;&gt;n36</title>
<path fill="none" stroke="black" d="M4187.4,-561.47C4135.59,-547 4073.23,-529.57 4020.2,-514.76"/>
<polygon fill="black" stroke="black" points="4020.98,-511.35 4010.41,-512.03 4019.1,-518.09 4020.98,-511.35"/>
</g>
<!-- n37 -->
<g id="node39" class="node">
<title>n37</title>
<ellipse fill="none" stroke="black" cx="4293.97" cy="-481.29" rx="185.94" ry="37.45"/>
<text text-anchor="middle" x="4293.97" y="-492.59" font-family="Times,serif" font-size="14.00">si</text>
<text text-anchor="middle" x="4293.97" y="-477.59" font-family="Times,serif" font-size="14.00">cs (advcl)</text>
<text text-anchor="middle" x="4293.97" y="-462.59" font-family="Times,serif" font-size="14.00">rep=no, t=no, r=no, m=yes, c=no</text>
</g>
<!-- n45&#45;&gt;n37 -->
<g id="edge38" class="edge">
<title>n45&#45;&gt;n37</title>
<path fill="none" stroke="black" d="M4293.97,-554.66C4293.97,-546.49 4293.97,-537.71 4293.97,-529.18"/>
<polygon fill="black" stroke="black" points="4297.47,-528.96 4293.97,-518.96 4290.47,-528.96 4297.47,-528.96"/>
</g>
<!-- n44 -->
<g id="node40" class="node">
<title>n44</title>
<ellipse fill="none" stroke="black" cx="4683.97" cy="-481.29" rx="185.94" ry="37.45"/>
<text text-anchor="middle" x="4683.97" y="-492.59" font-family="Times,serif" font-size="14.00">,</text>
<text text-anchor="middle" x="4683.97" y="-477.59" font-family="Times,serif" font-size="14.00">fc (punct)</text>
<text text-anchor="middle" x="4683.97" y="-462.59" font-family="Times,serif" font-size="14.00">rep=no, t=no, r=no, m=yes, c=no</text>
</g>
<!-- n45&#45;&gt;n44 -->
<g id="edge39" class="edge">
<title>n45&#45;&gt;n44</title>
<path fill="none" stroke="black" d="M4400.54,-561.47C4452.34,-547 4514.71,-529.57 4567.74,-514.76"/>
<polygon fill="black" stroke="black" points="4568.84,-518.09 4577.53,-512.03 4566.96,-511.35 4568.84,-518.09"/>
</g>
<!-- n47 -->
<g id="node41" class="node">
<title>n47</title>
<ellipse fill="none" stroke="black" cx="5073.97" cy="-481.29" rx="185.94" ry="37.45"/>
<text text-anchor="middle" x="5073.97" y="-492.59" font-family="Times,serif" font-size="14.00">cara</text>
<text text-anchor="middle" x="5073.97" y="-477.59" font-family="Times,serif" font-size="14.00">aq0fs0 (cpred)</text>
<text text-anchor="middle" x="5073.97" y="-462.59" font-family="Times,serif" font-size="14.00">rep=no, t=no, r=no, m=yes, c=no</text>
</g>
<!-- n45&#45;&gt;n47 -->
<g id="edge40" class="edge">
<title>n45&#45;&gt;n47</title>
<path fill="none" stroke="black" d="M4456.37,-573.84C4573.97,-560.58 4736.63,-540.87 4878.97,-518.77 4896.49,-516.05 4914.84,-512.94 4932.99,-509.73"/>
<polygon fill="black" stroke="black" points="4933.82,-513.13 4943.04,-507.93 4932.58,-506.24 4933.82,-513.13"/>
</g>
<!-- n49 -->
<g id="node42" class="node">
<title>n49</title>
<ellipse fill="none" stroke="black" cx="5463.97" cy="-481.29" rx="185.94" ry="37.45"/>
<text text-anchor="middle" x="5463.97" y="-492.59" font-family="Times,serif" font-size="14.00">firma</text>
<text text-anchor="middle" x="5463.97" y="-477.59" font-family="Times,serif" font-size="14.00">ncfs000 (dobj)</text>
<text text-anchor="middle" x="5463.97" y="-462.59" font-family="Times,serif" font-size="14.00">rep=no, t=no, r=no, m=yes, c=no</text>
</g>
<!-- n45&#45;&gt;n49 -->
<g id="edge41" class="edge">
<title>n45&#45;&gt;n49</title>
<path fill="none" stroke="black" d="M4475.17,-583.78C4671.41,-574.3 4993.35,-554.68 5268.97,-518.77 5287.36,-516.37 5306.65,-513.37 5325.64,-510.12"/>
<polygon fill="black" stroke="black" points="5326.28,-513.56 5335.54,-508.4 5325.08,-506.66 5326.28,-513.56"/>
</g>
<!-- n38 -->
<g id="node43" class="node">
<title>n38</title>
<ellipse fill="none" stroke="black" cx="4293.97" cy="-370.34" rx="185.94" ry="37.45"/>
<text text-anchor="middle" x="4293.97" y="-381.64" font-family="Times,serif" font-size="14.00">surte</text>
<text text-anchor="middle" x="4293.97" y="-366.64" font-family="Times,serif" font-size="14.00">vmip3s0 (cobj)</text>
<text text-anchor="middle" x="4293.97" y="-351.64" font-family="Times,serif" font-size="14.00">rep=no, t=no, r=no, m=yes, c=no</text>
</g>
<!-- n37&#45;&gt;n38 -->
<g id="edge42" class="edge">
<title>n37&#45;&gt;n38</title>
<path fill="none" stroke="black" d="M4293.97,-443.71C4293.97,-435.53 4293.97,-426.75 4293.97,-418.23"/>
<polygon fill="black" stroke="black" points="4297.47,-418.01 4293.97,-408.01 4290.47,-418.01 4297.47,-418.01"/>
</g>
<!-- n46 -->
<g id="node49" class="node">
<title>n46</title>
<ellipse fill="none" stroke="black" cx="5073.97" cy="-370.34" rx="185.94" ry="37.45"/>
<text text-anchor="middle" x="5073.97" y="-381.64" font-family="Times,serif" font-size="14.00">muy</text>
<text text-anchor="middle" x="5073.97" y="-366.64" font-family="Times,serif" font-size="14.00">rg (advmod)</text>
<text text-anchor="middle" x="5073.97" y="-351.64" font-family="Times,serif" font-size="14.00">rep=no, t=no, r=no, m=yes, c=no</text>
</g>
<!-- n47&#45;&gt;n46 -->
<g id="edge48" class="edge">
<title>n47&#45;&gt;n46</title>
<path fill="none" stroke="black" d="M5073.97,-443.71C5073.97,-435.53 5073.97,-426.75 5073.97,-418.23"/>
<polygon fill="black" stroke="black" points="5077.47,-418.01 5073.97,-408.01 5070.47,-418.01 5077.47,-418.01"/>
</g>
<!-- n48 -->
<g id="node50" class="node">
<title>n48</title>
<ellipse fill="none" stroke="black" cx="5463.97" cy="-370.34" rx="185.94" ry="37.45"/>
<text text-anchor="middle" x="5463.97" y="-381.64" font-family="Times,serif" font-size="14.00">la</text>
<text text-anchor="middle" x="5463.97" y="-366.64" font-family="Times,serif" font-size="14.00">da0fs0 (det)</text>
<text text-anchor="middle" x="5463.97" y="-351.64" font-family="Times,serif" font-size="14.00">rep=no, t=no, r=no, m=yes, c=no</text>
</g>
<!-- n49&#45;&gt;n48 -->
<g id="edge49" class="edge">
<title>n49&#45;&gt;n48</title>
<path fill="none" stroke="black" d="M5463.97,-443.71C5463.97,-435.53 5463.97,-426.75 5463.97,-418.23"/>
<polygon fill="black" stroke="black" points="5467.47,-418.01 5463.97,-408.01 5460.47,-418.01 5467.47,-418.01"/>
</g>
<!-- n51 -->
<g id="node51" class="node">
<title>n51</title>
<ellipse fill="none" stroke="black" cx="5853.97" cy="-370.34" rx="185.94" ry="37.45"/>
<text text-anchor="middle" x="5853.97" y="-381.64" font-family="Times,serif" font-size="14.00">estampó</text>
<text text-anchor="middle" x="5853.97" y="-366.64" font-family="Times,serif" font-size="14.00">vmis3s0 (rcmod)</text>
<text text-anchor="middle" x="5853.97" y="-351.64" font-family="Times,serif" font-size="14.00">rep=no, t=no, r=no, m=yes, c=no</text>
</g>
<!-- n49&#45;&gt;n51 -->
<g id="edge50" class="edge">
<title>n49&#45;&gt;n51</title>
<path fill="none" stroke="black" d="M5570.54,-450.52C5622.34,-436.05 5684.71,-418.62 5737.74,-403.81"/>
<polygon fill="black" stroke="black" points="5738.84,-407.13 5747.53,-401.07 5736.96,-400.39 5738.84,-407.13"/>
</g>
<!-- n39 -->
<g id="node44" class="node">
<title>n39</title>
<ellipse fill="none" stroke="black" cx="4098.97" cy="-259.38" rx="185.94" ry="37.45"/>
<text text-anchor="middle" x="4098.97" y="-270.68" font-family="Times,serif" font-size="14.00">efectos</text>
<text text-anchor="middle" x="4098.97" y="-255.68" font-family="Times,serif" font-size="14.00">ncmp000 (dobj)</text>
<text text-anchor="middle" x="4098.97" y="-240.68" font-family="Times,serif" font-size="14.00">rep=no, t=no, r=no, m=yes, c=no</text>
</g>
<!-- n38&#45;&gt;n39 -->
<g id="edge43" class="edge">
<title>n38&#45;&gt;n39</title>
<path fill="none" stroke="black" d="M4232.27,-334.86C4212.34,-323.73 4190.1,-311.3 4169.58,-299.84"/>
<polygon fill="black" stroke="black" points="4171.04,-296.64 4160.6,-294.82 4167.62,-302.75 4171.04,-296.64"/>
</g>
<!-- n41 -->
<g id="node45" class="node">
<title>n41</title>
<ellipse fill="none" stroke="black" cx="4488.97" cy="-259.38" rx="185.94" ry="37.45"/>
<text text-anchor="middle" x="4488.97" y="-270.68" font-family="Times,serif" font-size="14.00">estrategia</text>
<text text-anchor="middle" x="4488.97" y="-255.68" font-family="Times,serif" font-size="14.00">ncfs000 (nsubj)</text>
<text text-anchor="middle" x="4488.97" y="-240.68" font-family="Times,serif" font-size="14.00">rep=no, t=no, r=no, m=yes, c=no</text>
</g>
<!-- n38&#45;&gt;n41 -->
<g id="edge44" class="edge">
<title>n38&#45;&gt;n41</title>
<path fill="none" stroke="black" d="M4355.67,-334.86C4375.59,-323.73 4397.84,-311.3 4418.35,-299.84"/>
<polygon fill="black" stroke="black" points="4420.31,-302.75 4427.34,-294.82 4416.9,-296.64 4420.31,-302.75"/>
</g>
<!-- n40 -->
<g id="node46" class="node">
<title>n40</title>
<ellipse fill="none" stroke="black" cx="4293.97" cy="-148.43" rx="185.94" ry="37.45"/>
<text text-anchor="middle" x="4293.97" y="-159.73" font-family="Times,serif" font-size="14.00">la</text>
<text text-anchor="middle" x="4293.97" y="-144.73" font-family="Times,serif" font-size="14.00">da0fs0 (det)</text>
<text text-anchor="middle" x="4293.97" y="-129.73" font-family="Times,serif" font-size="14.00">rep=no, t=no, r=no, m=yes, c=no</text>
</g>
<!-- n41&#45;&gt;n40 -->
<g id="edge45" class="edge">
<title>n41&#45;&gt;n40</title>
<path fill="none" stroke="black" d="M4427.27,-223.91C4407.34,-212.78 4385.1,-200.35 4364.58,-188.89"/>
<polygon fill="black" stroke="black" points="4366.04,-185.69 4355.6,-183.87 4362.62,-191.8 4366.04,-185.69"/>
</g>
<!-- n42 -->
<g id="node47" class="node">
<title>n42</title>
<ellipse fill="none" stroke="black" cx="4683.97" cy="-148.43" rx="185.94" ry="37.45"/>
<text text-anchor="middle" x="4683.97" y="-159.73" font-family="Times,serif" font-size="14.00">del</text>
<text text-anchor="middle" x="4683.97" y="-144.73" font-family="Times,serif" font-size="14.00">spcms (prepn)</text>
<text text-anchor="middle" x="4683.97" y="-129.73" font-family="Times,serif" font-size="14.00">rep=no, t=no, r=no, m=yes, c=no</text>
</g>
<!-- n41&#45;&gt;n42 -->
<g id="edge46" class="edge">
<title>n41&#45;&gt;n42</title>
<path fill="none" stroke="black" d="M4550.67,-223.91C4570.59,-212.78 4592.84,-200.35 4613.35,-188.89"/>
<polygon fill="black" stroke="black" points="4615.31,-191.8 4622.34,-183.87 4611.9,-185.69 4615.31,-191.8"/>
</g>
<!-- n43 -->
<g id="node48" class="node">
<title>n43</title>
<ellipse fill="none" stroke="black" cx="4683.97" cy="-37.48" rx="185.94" ry="37.45"/>
<text text-anchor="middle" x="4683.97" y="-48.78" font-family="Times,serif" font-size="14.00">Gobierno</text>
<text text-anchor="middle" x="4683.97" y="-33.78" font-family="Times,serif" font-size="14.00">np00000 (pobj)</text>
<text text-anchor="middle" x="4683.97" y="-18.78" font-family="Times,serif" font-size="14.00">rep=no, t=no, r=no, m=yes, c=no</text>
</g>
<!-- n42&#45;&gt;n43 -->
<g id="edge47" class="edge">
<title>n42&#45;&gt;n43</title>
<path fill="none" stroke="black" d="M4683.97,-110.85C4683.97,-102.67 4683.97,-93.89 4683.97,-85.37"/>
<polygon fill="black" stroke="black" points="4687.47,-85.15 4683.97,-75.15 4680.47,-85.15 4687.47,-85.15"/>
</g>
<!-- n50 -->
<g id="node52" class="node">
<title>n50</title>
<ellipse fill="none" stroke="black" cx="5658.97" cy="-259.38" rx="185.94" ry="37.45"/>
<text text-anchor="middle" x="5658.97" y="-270.68" font-family="Times,serif" font-size="14.00">que</text>
<text text-anchor="middle" x="5658.97" y="-255.68" font-family="Times,serif" font-size="14.00">pr0cn000 (dobj)</text>
<text text-anchor="middle" x="5658.97" y="-240.68" font-family="Times,serif" font-size="14.00">rep=no, t=no, r=no, m=yes, c=no</text>
</g>
<!-- n51&#45;&gt;n50 -->
<g id="edge51" class="edge">
<title>n51&#45;&gt;n50</title>
<path fill="none" stroke="black" d="M5792.27,-334.86C5772.34,-323.73 5750.1,-311.3 5729.58,-299.84"/>
<polygon fill="black" stroke="black" points="5731.04,-296.64 5720.6,-294.82 5727.62,-302.75 5731.04,-296.64"/>
</g>
<!-- n52 -->
<g id="node53" class="node">
<title>n52</title>
<ellipse fill="none" stroke="black" cx="6048.97" cy="-259.38" rx="185.94" ry="37.45"/>
<text text-anchor="middle" x="6048.97" y="-270.68" font-family="Times,serif" font-size="14.00">en</text>
<text text-anchor="middle" x="6048.97" y="-255.68" font-family="Times,serif" font-size="14.00">sps00 (prepv)</text>
<text text-anchor="middle" x="6048.97" y="-240.68" font-family="Times,serif" font-size="14.00">rep=no, t=no, r=no, m=yes, c=no</text>
</g>
<!-- n51&#45;&gt;n52 -->
<g id="edge52" class="edge">
<title>n51&#45;&gt;n52</title>
<path fill="none" stroke="black" d="M5915.67,-334.86C5935.59,-323.73 5957.84,-311.3 5978.35,-299.84"/>
<polygon fill="black" stroke="black" points="5980.31,-302.75 5987.34,-294.82 5976.9,-296.64 5980.31,-302.75"/>
</g>
<!-- n53 -->
<g id="node54" class="node">
<title>n53</title>
<ellipse fill="none" stroke="black" cx="6048.97" cy="-148.43" rx="185.94" ry="37.45"/>
<text text-anchor="middle" x="6048.97" y="-159.73" font-family="Times,serif" font-size="14.00">Lizarra</text>
<text text-anchor="middle" x="6048.97" y="-144.73" font-family="Times,serif" font-size="14.00">np00000 (pobj)</text>
<text text-anchor="middle" x="6048.97" y="-129.73" font-family="Times,serif" font-size="14.00">rep=no, t=no, r=no, m=yes, c=no</text>
</g>
<!-- n52&#45;&gt;n53 -->
<g id="edge53" class="edge">
<title>n52&#45;&gt;n53</title>
<path fill="none" stroke="black" d="M6048.97,-221.8C6048.97,-213.63 6048.97,-204.85 6048.97,-196.32"/>
<polygon fill="black" stroke="black" points="6052.47,-196.1 6048.97,-186.1 6045.47,-196.1 6052.47,-196.1"/>
</g>
</g>
</svg>
