<?xml version="1.0" encoding="UTF-8" standalone="no"?>
<!DOCTYPE svg PUBLIC "-//W3C//DTD SVG 1.1//EN"
 "http://www.w3.org/Graphics/SVG/1.1/DTD/svg11.dtd">
<!-- Generated by graphviz version 2.43.0 (0)
 -->
<!-- Title: tree Pages: 1 -->
<svg width="1590pt" height="638pt"
 viewBox="0.00 0.00 1589.84 637.72" xmlns="http://www.w3.org/2000/svg" xmlns:xlink="http://www.w3.org/1999/xlink">
<g id="graph0" class="graph" transform="scale(1 1) rotate(0) translate(4 633.72)">
<title>tree</title>
<polygon fill="white" stroke="transparent" points="-4,4 -4,-633.72 1585.84,-633.72 1585.84,4 -4,4"/>
<!-- n2 -->
<g id="node1" class="node">
<title>n2</title>
<ellipse fill="none" stroke="black" cx="790.92" cy="-592.24" rx="185.94" ry="37.45"/>
<text text-anchor="middle" x="790.92" y="-603.54" font-family="Times,serif" font-size="14.00">operación</text>
<text text-anchor="middle" x="790.92" y="-588.54" font-family="Times,serif" font-size="14.00">ncfs000 (root)</text>
<text text-anchor="middle" x="790.92" y="-573.54" font-family="Times,serif" font-size="14.00">rep=no, t=no, r=no, m=yes, c=no</text>
</g>
<!-- n1 -->
<g id="node2" class="node">
<title>n1</title>
<ellipse fill="none" stroke="black" cx="395.92" cy="-481.29" rx="185.94" ry="37.45"/>
<text text-anchor="middle" x="395.92" y="-492.59" font-family="Times,serif" font-size="14.00">Una</text>
<text text-anchor="middle" x="395.92" y="-477.59" font-family="Times,serif" font-size="14.00">di0fs0 (det)</text>
<text text-anchor="middle" x="395.92" y="-462.59" font-family="Times,serif" font-size="14.00">rep=no, t=no, r=no, m=yes, c=no</text>
</g>
<!-- n2&#45;&gt;n1 -->
<g id="edge1" class="edge">
<title>n2&#45;&gt;n1</title>
<path fill="none" stroke="black" d="M683.51,-561.62C630.81,-547.08 567.24,-529.54 513.27,-514.66"/>
<polygon fill="black" stroke="black" points="513.88,-511.2 503.31,-511.91 512.02,-517.95 513.88,-511.2"/>
</g>
<!-- n6 -->
<g id="node3" class="node">
<title>n6</title>
<ellipse fill="#DA79E8" stroke="black" cx="790.92" cy="-481.29" rx="190.84" ry="37.45"/>
<text text-anchor="middle" x="790.92" y="-492.59" font-family="Times,serif" font-size="14.00">es</text>
<text text-anchor="middle" x="790.92" y="-477.59" font-family="Times,serif" font-size="14.00">vsip3s0 (prepn)</text>
<text text-anchor="middle" x="790.92" y="-462.59" font-family="Times,serif" font-size="14.00">rep=no, t=no, r=yes, m=yes, c=no</text>
</g>
<!-- n2&#45;&gt;n6 -->
<g id="edge2" class="edge">
<title>n2&#45;&gt;n6</title>
<path fill="none" stroke="black" d="M790.92,-554.66C790.92,-546.49 790.92,-537.71 790.92,-529.18"/>
<polygon fill="black" stroke="black" points="794.42,-528.96 790.92,-518.96 787.42,-528.96 794.42,-528.96"/>
</g>
<!-- n13 -->
<g id="node4" class="node">
<title>n13</title>
<ellipse fill="none" stroke="black" cx="1181.92" cy="-481.29" rx="181.95" ry="37.45"/>
<text text-anchor="middle" x="1181.92" y="-492.59" font-family="Times,serif" font-size="14.00">.</text>
<text text-anchor="middle" x="1181.92" y="-477.59" font-family="Times,serif" font-size="14.00">fp (punct)</text>
<text text-anchor="middle" x="1181.92" y="-462.59" font-family="Times,serif" font-size="14.00">rep=no, t=no, r=no, m=no, c=no</text>
</g>
<!-- n2&#45;&gt;n13 -->
<g id="edge3" class="edge">
<title>n2&#45;&gt;n13</title>
<path fill="none" stroke="black" d="M897.76,-561.47C949.91,-546.94 1012.74,-529.43 1066.05,-514.58"/>
<polygon fill="black" stroke="black" points="1067.19,-517.89 1075.88,-511.84 1065.31,-511.15 1067.19,-517.89"/>
</g>
<!-- n4 -->
<g id="node5" class="node">
<title>n4</title>
<ellipse fill="#BEDA48" stroke="black" cx="590.92" cy="-370.34" rx="190.84" ry="37.45"/>
<text text-anchor="middle" x="590.92" y="-381.64" font-family="Times,serif" font-size="14.00">objetivo</text>
<text text-anchor="middle" x="590.92" y="-366.64" font-family="Times,serif" font-size="14.00">ncms000 (nsubj)</text>
<text text-anchor="middle" x="590.92" y="-351.64" font-family="Times,serif" font-size="14.00">rep=no, t=yes, r=no, m=yes, c=no</text>
</g>
<!-- n6&#45;&gt;n4 -->
<g id="edge4" class="edge">
<title>n6&#45;&gt;n4</title>
<path fill="none" stroke="black" d="M727.64,-445.82C707.11,-434.63 684.18,-422.14 663.06,-410.64"/>
<polygon fill="black" stroke="black" points="664.59,-407.48 654.13,-405.77 661.24,-413.63 664.59,-407.48"/>
</g>
<!-- n7 -->
<g id="node6" class="node">
<title>n7</title>
<ellipse fill="#DA79E8" stroke="black" cx="990.92" cy="-370.34" rx="190.84" ry="37.45"/>
<text text-anchor="middle" x="990.92" y="-381.64" font-family="Times,serif" font-size="14.00">derrotar</text>
<text text-anchor="middle" x="990.92" y="-366.64" font-family="Times,serif" font-size="14.00">vmn0000 (attr)</text>
<text text-anchor="middle" x="990.92" y="-351.64" font-family="Times,serif" font-size="14.00">rep=no, t=no, r=yes, m=yes, c=no</text>
</g>
<!-- n6&#45;&gt;n7 -->
<g id="edge5" class="edge">
<title>n6&#45;&gt;n7</title>
<path fill="none" stroke="black" d="M854.2,-445.82C874.73,-434.63 897.65,-422.14 918.78,-410.64"/>
<polygon fill="black" stroke="black" points="920.6,-413.63 927.71,-405.77 917.25,-407.48 920.6,-413.63"/>
</g>
<!-- n3 -->
<g id="node7" class="node">
<title>n3</title>
<ellipse fill="#BEDA48" stroke="black" cx="190.92" cy="-259.38" rx="190.84" ry="37.45"/>
<text text-anchor="middle" x="190.92" y="-270.68" font-family="Times,serif" font-size="14.00">cuyo</text>
<text text-anchor="middle" x="190.92" y="-255.68" font-family="Times,serif" font-size="14.00">pr0ms000 (det)</text>
<text text-anchor="middle" x="190.92" y="-240.68" font-family="Times,serif" font-size="14.00">rep=no, t=yes, r=no, m=yes, c=no</text>
</g>
<!-- n4&#45;&gt;n3 -->
<g id="edge6" class="edge">
<title>n4&#45;&gt;n3</title>
<path fill="none" stroke="black" d="M481.62,-339.56C428.48,-325.09 364.51,-307.67 310.12,-292.85"/>
<polygon fill="black" stroke="black" points="311,-289.46 300.44,-290.21 309.16,-296.22 311,-289.46"/>
</g>
<!-- n5 -->
<g id="node8" class="node">
<title>n5</title>
<ellipse fill="#BEDA48" stroke="black" cx="590.92" cy="-259.38" rx="190.84" ry="37.45"/>
<text text-anchor="middle" x="590.92" y="-270.68" font-family="Times,serif" font-size="14.00">último</text>
<text text-anchor="middle" x="590.92" y="-255.68" font-family="Times,serif" font-size="14.00">ao0ms0 (amod)</text>
<text text-anchor="middle" x="590.92" y="-240.68" font-family="Times,serif" font-size="14.00">rep=no, t=yes, r=no, m=yes, c=no</text>
</g>
<!-- n4&#45;&gt;n5 -->
<g id="edge7" class="edge">
<title>n4&#45;&gt;n5</title>
<path fill="none" stroke="black" d="M590.92,-332.75C590.92,-324.58 590.92,-315.8 590.92,-307.27"/>
<polygon fill="black" stroke="black" points="594.42,-307.06 590.92,-297.06 587.42,-307.06 594.42,-307.06"/>
</g>
<!-- n8 -->
<g id="node9" class="node">
<title>n8</title>
<ellipse fill="#DA79E8" stroke="black" cx="990.92" cy="-259.38" rx="190.84" ry="37.45"/>
<text text-anchor="middle" x="990.92" y="-270.68" font-family="Times,serif" font-size="14.00">al</text>
<text text-anchor="middle" x="990.92" y="-255.68" font-family="Times,serif" font-size="14.00">spcms (dobj)</text>
<text text-anchor="middle" x="990.92" y="-240.68" font-family="Times,serif" font-size="14.00">rep=no, t=no, r=yes, m=yes, c=no</text>
</g>
<!-- n7&#45;&gt;n8 -->
<g id="edge8" class="edge">
<title>n7&#45;&gt;n8</title>
<path fill="none" stroke="black" d="M990.92,-332.75C990.92,-324.58 990.92,-315.8 990.92,-307.27"/>
<polygon fill="black" stroke="black" points="994.42,-307.06 990.92,-297.06 987.42,-307.06 994.42,-307.06"/>
</g>
<!-- n10 -->
<g id="node10" class="node">
<title>n10</title>
<ellipse fill="#DA79E8" stroke="black" cx="1390.92" cy="-259.38" rx="190.84" ry="37.45"/>
<text text-anchor="middle" x="1390.92" y="-270.68" font-family="Times,serif" font-size="14.00">en</text>
<text text-anchor="middle" x="1390.92" y="-255.68" font-family="Times,serif" font-size="14.00">sps00 (prepv)</text>
<text text-anchor="middle" x="1390.92" y="-240.68" font-family="Times,serif" font-size="14.00">rep=no, t=no, r=yes, m=yes, c=no</text>
</g>
<!-- n7&#45;&gt;n10 -->
<g id="edge9" class="edge">
<title>n7&#45;&gt;n10</title>
<path fill="none" stroke="black" d="M1100.22,-339.56C1153.36,-325.09 1217.33,-307.67 1271.71,-292.85"/>
<polygon fill="black" stroke="black" points="1272.67,-296.22 1281.4,-290.21 1270.83,-289.46 1272.67,-296.22"/>
</g>
<!-- n9 -->
<g id="node11" class="node">
<title>n9</title>
<ellipse fill="#DA79E8" stroke="black" cx="990.92" cy="-148.43" rx="190.84" ry="37.45"/>
<text text-anchor="middle" x="990.92" y="-159.73" font-family="Times,serif" font-size="14.00">nacionalismo</text>
<text text-anchor="middle" x="990.92" y="-144.73" font-family="Times,serif" font-size="14.00">ncms000 (pobj)</text>
<text text-anchor="middle" x="990.92" y="-129.73" font-family="Times,serif" font-size="14.00">rep=no, t=no, r=yes, m=yes, c=no</text>
</g>
<!-- n8&#45;&gt;n9 -->
<g id="edge10" class="edge">
<title>n8&#45;&gt;n9</title>
<path fill="none" stroke="black" d="M990.92,-221.8C990.92,-213.63 990.92,-204.85 990.92,-196.32"/>
<polygon fill="black" stroke="black" points="994.42,-196.1 990.92,-186.1 987.42,-196.1 994.42,-196.1"/>
</g>
<!-- n12 -->
<g id="node12" class="node">
<title>n12</title>
<ellipse fill="#DA79E8" stroke="black" cx="1390.92" cy="-148.43" rx="190.84" ry="37.45"/>
<text text-anchor="middle" x="1390.92" y="-159.73" font-family="Times,serif" font-size="14.00">urnas</text>
<text text-anchor="middle" x="1390.92" y="-144.73" font-family="Times,serif" font-size="14.00">ncfp000 (pobj)</text>
<text text-anchor="middle" x="1390.92" y="-129.73" font-family="Times,serif" font-size="14.00">rep=no, t=no, r=yes, m=yes, c=no</text>
</g>
<!-- n10&#45;&gt;n12 -->
<g id="edge11" class="edge">
<title>n10&#45;&gt;n12</title>
<path fill="none" stroke="black" d="M1390.92,-221.8C1390.92,-213.63 1390.92,-204.85 1390.92,-196.32"/>
<polygon fill="black" stroke="black" points="1394.42,-196.1 1390.92,-186.1 1387.42,-196.1 1394.42,-196.1"/>
</g>
<!-- n11 -->
<g id="node13" class="node">
<title>n11</title>
<ellipse fill="#DA79E8" stroke="black" cx="1390.92" cy="-37.48" rx="190.84" ry="37.45"/>
<text text-anchor="middle" x="1390.92" y="-48.78" font-family="Times,serif" font-size="14.00">las</text>
<text text-anchor="middle" x="1390.92" y="-33.78" font-family="Times,serif" font-size="14.00">da0fp0 (det)</text>
<text text-anchor="middle" x="1390.92" y="-18.78" font-family="Times,serif" font-size="14.00">rep=no, t=no, r=yes, m=yes, c=no</text>
</g>
<!-- n12&#45;&gt;n11 -->
<g id="edge12" class="edge">
<title>n12&#45;&gt;n11</title>
<path fill="none" stroke="black" d="M1390.92,-110.85C1390.92,-102.67 1390.92,-93.89 1390.92,-85.37"/>
<polygon fill="black" stroke="black" points="1394.42,-85.15 1390.92,-75.15 1387.42,-85.15 1394.42,-85.15"/>
</g>
</g>
</svg>
