<?xml version="1.0" encoding="UTF-8" standalone="no"?>
<!DOCTYPE svg PUBLIC "-//W3C//DTD SVG 1.1//EN"
 "http://www.w3.org/Graphics/SVG/1.1/DTD/svg11.dtd">
<!-- Generated by graphviz version 2.43.0 (0)
 -->
<!-- Title: tree Pages: 1 -->
<svg width="4609pt" height="749pt"
 viewBox="0.00 0.00 4608.84 748.67" xmlns="http://www.w3.org/2000/svg" xmlns:xlink="http://www.w3.org/1999/xlink">
<g id="graph0" class="graph" transform="scale(1 1) rotate(0) translate(4 744.67)">
<title>tree</title>
<polygon fill="white" stroke="transparent" points="-4,4 -4,-744.67 4604.84,-744.67 4604.84,4 -4,4"/>
<!-- n28 -->
<g id="node1" class="node">
<title>n28</title>
<ellipse fill="#98D2A5" stroke="black" cx="2898.92" cy="-703.2" rx="190.84" ry="37.45"/>
<text text-anchor="middle" x="2898.92" y="-714.5" font-family="Times,serif" font-size="14.00">podía</text>
<text text-anchor="middle" x="2898.92" y="-699.5" font-family="Times,serif" font-size="14.00">vmii3s0 (root)</text>
<text text-anchor="middle" x="2898.92" y="-684.5" font-family="Times,serif" font-size="14.00">rep=no, t=no, r=yes, m=yes, c=no</text>
</g>
<!-- n4 -->
<g id="node2" class="node">
<title>n4</title>
<ellipse fill="#98D2A5" stroke="black" cx="1590.92" cy="-592.24" rx="190.84" ry="37.45"/>
<text text-anchor="middle" x="1590.92" y="-603.54" font-family="Times,serif" font-size="14.00">Javier</text>
<text text-anchor="middle" x="1590.92" y="-588.54" font-family="Times,serif" font-size="14.00">np0000l (nsubj)</text>
<text text-anchor="middle" x="1590.92" y="-573.54" font-family="Times,serif" font-size="14.00">rep=no, t=yes, r=no, m=yes, c=no</text>
</g>
<!-- n28&#45;&gt;n4 -->
<g id="edge1" class="edge">
<title>n28&#45;&gt;n4</title>
<path fill="none" stroke="black" d="M2724.89,-687.7C2477.82,-667.12 2027.42,-629.6 1774.98,-608.58"/>
<polygon fill="black" stroke="black" points="1775.22,-605.08 1764.97,-607.74 1774.64,-612.06 1775.22,-605.08"/>
</g>
<!-- n29 -->
<g id="node3" class="node">
<title>n29</title>
<ellipse fill="#98D2A5" stroke="black" cx="2898.92" cy="-592.24" rx="190.84" ry="37.45"/>
<text text-anchor="middle" x="2898.92" y="-603.54" font-family="Times,serif" font-size="14.00">dar</text>
<text text-anchor="middle" x="2898.92" y="-588.54" font-family="Times,serif" font-size="14.00">vmn0000 (dobj)</text>
<text text-anchor="middle" x="2898.92" y="-573.54" font-family="Times,serif" font-size="14.00">rep=no, t=no, r=yes, m=yes, c=no</text>
</g>
<!-- n28&#45;&gt;n29 -->
<g id="edge2" class="edge">
<title>n28&#45;&gt;n29</title>
<path fill="none" stroke="black" d="M2898.92,-665.61C2898.92,-657.44 2898.92,-648.66 2898.92,-640.13"/>
<polygon fill="black" stroke="black" points="2902.42,-639.92 2898.92,-629.92 2895.42,-639.92 2902.42,-639.92"/>
</g>
<!-- n35 -->
<g id="node4" class="node">
<title>n35</title>
<ellipse fill="none" stroke="black" cx="3289.92" cy="-592.24" rx="181.95" ry="37.45"/>
<text text-anchor="middle" x="3289.92" y="-603.54" font-family="Times,serif" font-size="14.00">.</text>
<text text-anchor="middle" x="3289.92" y="-588.54" font-family="Times,serif" font-size="14.00">fp (punct)</text>
<text text-anchor="middle" x="3289.92" y="-573.54" font-family="Times,serif" font-size="14.00">rep=no, t=no, r=no, m=no, c=no</text>
</g>
<!-- n28&#45;&gt;n35 -->
<g id="edge3" class="edge">
<title>n28&#45;&gt;n35</title>
<path fill="none" stroke="black" d="M3006.54,-672.21C3058.57,-657.71 3121.09,-640.29 3174.16,-625.5"/>
<polygon fill="black" stroke="black" points="3175.26,-628.83 3183.95,-622.77 3173.38,-622.08 3175.26,-628.83"/>
</g>
<!-- n1 -->
<g id="node5" class="node">
<title>n1</title>
<ellipse fill="#98D2A5" stroke="black" cx="190.92" cy="-481.29" rx="190.84" ry="37.45"/>
<text text-anchor="middle" x="190.92" y="-492.59" font-family="Times,serif" font-size="14.00">Sólo</text>
<text text-anchor="middle" x="190.92" y="-477.59" font-family="Times,serif" font-size="14.00">rg (advmod)</text>
<text text-anchor="middle" x="190.92" y="-462.59" font-family="Times,serif" font-size="14.00">rep=no, t=yes, r=no, m=yes, c=no</text>
</g>
<!-- n4&#45;&gt;n1 -->
<g id="edge4" class="edge">
<title>n4&#45;&gt;n1</title>
<path fill="none" stroke="black" d="M1401.93,-586.84C1164.98,-579.71 746.66,-561.79 390.92,-518.77 371.81,-516.46 351.77,-513.47 332.05,-510.21"/>
<polygon fill="black" stroke="black" points="332.54,-506.74 322.1,-508.54 331.38,-513.65 332.54,-506.74"/>
</g>
<!-- n2 -->
<g id="node6" class="node">
<title>n2</title>
<ellipse fill="#98D2A5" stroke="black" cx="590.92" cy="-481.29" rx="190.84" ry="37.45"/>
<text text-anchor="middle" x="590.92" y="-492.59" font-family="Times,serif" font-size="14.00">el</text>
<text text-anchor="middle" x="590.92" y="-477.59" font-family="Times,serif" font-size="14.00">da0ms0 (det)</text>
<text text-anchor="middle" x="590.92" y="-462.59" font-family="Times,serif" font-size="14.00">rep=no, t=yes, r=no, m=yes, c=no</text>
</g>
<!-- n4&#45;&gt;n2 -->
<g id="edge5" class="edge">
<title>n4&#45;&gt;n2</title>
<path fill="none" stroke="black" d="M1410.88,-579.59C1248.4,-567.96 1003.03,-547.66 790.92,-518.77 772.38,-516.24 752.94,-513.2 733.78,-509.96"/>
<polygon fill="black" stroke="black" points="734.23,-506.49 723.78,-508.25 733.05,-513.39 734.23,-506.49"/>
</g>
<!-- n3 -->
<g id="node7" class="node">
<title>n3</title>
<ellipse fill="#98D2A5" stroke="black" cx="990.92" cy="-481.29" rx="190.84" ry="37.45"/>
<text text-anchor="middle" x="990.92" y="-492.59" font-family="Times,serif" font-size="14.00">emocionado</text>
<text text-anchor="middle" x="990.92" y="-477.59" font-family="Times,serif" font-size="14.00">aq0msp (amod)</text>
<text text-anchor="middle" x="990.92" y="-462.59" font-family="Times,serif" font-size="14.00">rep=no, t=yes, r=no, m=yes, c=no</text>
</g>
<!-- n4&#45;&gt;n3 -->
<g id="edge6" class="edge">
<title>n4&#45;&gt;n3</title>
<path fill="none" stroke="black" d="M1453,-566.29C1375.9,-552.34 1278.06,-534.61 1190.92,-518.77 1173.85,-515.66 1155.97,-512.41 1138.21,-509.17"/>
<polygon fill="black" stroke="black" points="1138.82,-505.73 1128.36,-507.38 1137.57,-512.61 1138.82,-505.73"/>
</g>
<!-- n5 -->
<g id="node8" class="node">
<title>n5</title>
<ellipse fill="#98D2A5" stroke="black" cx="1390.92" cy="-481.29" rx="190.84" ry="37.45"/>
<text text-anchor="middle" x="1390.92" y="-492.59" font-family="Times,serif" font-size="14.00">Bardem</text>
<text text-anchor="middle" x="1390.92" y="-477.59" font-family="Times,serif" font-size="14.00">np0000l (appos)</text>
<text text-anchor="middle" x="1390.92" y="-462.59" font-family="Times,serif" font-size="14.00">rep=no, t=yes, r=no, m=yes, c=no</text>
</g>
<!-- n4&#45;&gt;n5 -->
<g id="edge7" class="edge">
<title>n4&#45;&gt;n5</title>
<path fill="none" stroke="black" d="M1527.64,-556.77C1507.11,-545.59 1484.18,-533.1 1463.06,-521.59"/>
<polygon fill="black" stroke="black" points="1464.59,-518.44 1454.13,-516.73 1461.24,-524.58 1464.59,-518.44"/>
</g>
<!-- n6 -->
<g id="node9" class="node">
<title>n6</title>
<ellipse fill="#98D2A5" stroke="black" cx="1790.92" cy="-481.29" rx="190.84" ry="37.45"/>
<text text-anchor="middle" x="1790.92" y="-492.59" font-family="Times,serif" font-size="14.00">,</text>
<text text-anchor="middle" x="1790.92" y="-477.59" font-family="Times,serif" font-size="14.00">fc (punct)</text>
<text text-anchor="middle" x="1790.92" y="-462.59" font-family="Times,serif" font-size="14.00">rep=no, t=yes, r=no, m=yes, c=no</text>
</g>
<!-- n4&#45;&gt;n6 -->
<g id="edge8" class="edge">
<title>n4&#45;&gt;n6</title>
<path fill="none" stroke="black" d="M1654.2,-556.77C1674.73,-545.59 1697.65,-533.1 1718.78,-521.59"/>
<polygon fill="black" stroke="black" points="1720.6,-524.58 1727.71,-516.73 1717.25,-518.44 1720.6,-524.58"/>
</g>
<!-- n9 -->
<g id="node10" class="node">
<title>n9</title>
<ellipse fill="#98D2A5" stroke="black" cx="2190.92" cy="-481.29" rx="190.84" ry="37.45"/>
<text text-anchor="middle" x="2190.92" y="-492.59" font-family="Times,serif" font-size="14.00">dio</text>
<text text-anchor="middle" x="2190.92" y="-477.59" font-family="Times,serif" font-size="14.00">vmis3s0 (rcmod)</text>
<text text-anchor="middle" x="2190.92" y="-462.59" font-family="Times,serif" font-size="14.00">rep=no, t=yes, r=no, m=yes, c=no</text>
</g>
<!-- n4&#45;&gt;n9 -->
<g id="edge9" class="edge">
<title>n4&#45;&gt;n9</title>
<path fill="none" stroke="black" d="M1728.84,-566.29C1805.94,-552.34 1903.78,-534.61 1990.92,-518.77 2007.99,-515.66 2025.87,-512.41 2043.63,-509.17"/>
<polygon fill="black" stroke="black" points="2044.27,-512.61 2053.48,-507.38 2043.02,-505.73 2044.27,-512.61"/>
</g>
<!-- n27 -->
<g id="node11" class="node">
<title>n27</title>
<ellipse fill="#98D2A5" stroke="black" cx="2590.92" cy="-481.29" rx="190.84" ry="37.45"/>
<text text-anchor="middle" x="2590.92" y="-492.59" font-family="Times,serif" font-size="14.00">,</text>
<text text-anchor="middle" x="2590.92" y="-477.59" font-family="Times,serif" font-size="14.00">fc (punct)</text>
<text text-anchor="middle" x="2590.92" y="-462.59" font-family="Times,serif" font-size="14.00">rep=no, t=yes, r=no, m=yes, c=no</text>
</g>
<!-- n4&#45;&gt;n27 -->
<g id="edge10" class="edge">
<title>n4&#45;&gt;n27</title>
<path fill="none" stroke="black" d="M1770.96,-579.59C1933.44,-567.96 2178.81,-547.66 2390.92,-518.77 2409.46,-516.24 2428.89,-513.2 2448.06,-509.96"/>
<polygon fill="black" stroke="black" points="2448.79,-513.39 2458.05,-508.25 2447.61,-506.49 2448.79,-513.39"/>
</g>
<!-- n30 -->
<g id="node31" class="node">
<title>n30</title>
<ellipse fill="#98D2A5" stroke="black" cx="3348.92" cy="-481.29" rx="190.84" ry="37.45"/>
<text text-anchor="middle" x="3348.92" y="-492.59" font-family="Times,serif" font-size="14.00">fe</text>
<text text-anchor="middle" x="3348.92" y="-477.59" font-family="Times,serif" font-size="14.00">ncfs000 (dobj)</text>
<text text-anchor="middle" x="3348.92" y="-462.59" font-family="Times,serif" font-size="14.00">rep=no, t=no, r=yes, m=yes, c=no</text>
</g>
<!-- n29&#45;&gt;n30 -->
<g id="edge30" class="edge">
<title>n29&#45;&gt;n30</title>
<path fill="none" stroke="black" d="M3016.86,-562.69C3079.65,-547.49 3156.94,-528.77 3221.16,-513.22"/>
<polygon fill="black" stroke="black" points="3222.04,-516.61 3230.94,-510.86 3220.4,-509.81 3222.04,-516.61"/>
</g>
<!-- n7 -->
<g id="node12" class="node">
<title>n7</title>
<ellipse fill="#98D2A5" stroke="black" cx="980.92" cy="-370.34" rx="190.84" ry="37.45"/>
<text text-anchor="middle" x="980.92" y="-381.64" font-family="Times,serif" font-size="14.00">que</text>
<text text-anchor="middle" x="980.92" y="-366.64" font-family="Times,serif" font-size="14.00">pr0cn000 (nsubj)</text>
<text text-anchor="middle" x="980.92" y="-351.64" font-family="Times,serif" font-size="14.00">rep=no, t=yes, r=no, m=yes, c=no</text>
</g>
<!-- n9&#45;&gt;n7 -->
<g id="edge11" class="edge">
<title>n9&#45;&gt;n7</title>
<path fill="none" stroke="black" d="M2060.58,-453.88C2037.46,-449.95 2013.54,-446.37 1990.92,-443.81 1632.84,-403.39 1539,-448.23 1180.92,-407.81 1161.57,-405.63 1141.27,-402.69 1121.32,-399.43"/>
<polygon fill="black" stroke="black" points="1121.69,-395.94 1111.25,-397.75 1120.54,-402.84 1121.69,-395.94"/>
</g>
<!-- n8 -->
<g id="node13" class="node">
<title>n8</title>
<ellipse fill="#98D2A5" stroke="black" cx="1380.92" cy="-370.34" rx="190.84" ry="37.45"/>
<text text-anchor="middle" x="1380.92" y="-381.64" font-family="Times,serif" font-size="14.00">le</text>
<text text-anchor="middle" x="1380.92" y="-366.64" font-family="Times,serif" font-size="14.00">pp3csd00 (iobj)</text>
<text text-anchor="middle" x="1380.92" y="-351.64" font-family="Times,serif" font-size="14.00">rep=no, t=yes, r=no, m=yes, c=no</text>
</g>
<!-- n9&#45;&gt;n8 -->
<g id="edge12" class="edge">
<title>n9&#45;&gt;n8</title>
<path fill="none" stroke="black" d="M2058.06,-454.28C2035.7,-450.41 2012.69,-446.75 1990.92,-443.81 1809.64,-419.38 1762.2,-432.25 1580.92,-407.81 1562.38,-405.31 1542.94,-402.29 1523.77,-399.05"/>
<polygon fill="black" stroke="black" points="1524.22,-395.58 1513.78,-397.35 1523.04,-402.48 1524.22,-395.58"/>
</g>
<!-- n11 -->
<g id="node14" class="node">
<title>n11</title>
<ellipse fill="#98D2A5" stroke="black" cx="1785.92" cy="-370.34" rx="195.74" ry="37.45"/>
<text text-anchor="middle" x="1785.92" y="-381.64" font-family="Times,serif" font-size="14.00">mano</text>
<text text-anchor="middle" x="1785.92" y="-366.64" font-family="Times,serif" font-size="14.00">ncfs000 (dobj)</text>
<text text-anchor="middle" x="1785.92" y="-351.64" font-family="Times,serif" font-size="14.00">rep=no, t=yes, r=no, m=yes, c=yes</text>
</g>
<!-- n9&#45;&gt;n11 -->
<g id="edge13" class="edge">
<title>n9&#45;&gt;n11</title>
<path fill="none" stroke="black" d="M2080.79,-450.66C2026.98,-436.19 1962.1,-418.73 1906.92,-403.89"/>
<polygon fill="black" stroke="black" points="1907.65,-400.46 1897.09,-401.24 1905.83,-407.22 1907.65,-400.46"/>
</g>
<!-- n12 -->
<g id="node15" class="node">
<title>n12</title>
<ellipse fill="#98D2A5" stroke="black" cx="2190.92" cy="-370.34" rx="190.84" ry="37.45"/>
<text text-anchor="middle" x="2190.92" y="-381.64" font-family="Times,serif" font-size="14.00">y</text>
<text text-anchor="middle" x="2190.92" y="-366.64" font-family="Times,serif" font-size="14.00">cc (coord_fixed)</text>
<text text-anchor="middle" x="2190.92" y="-351.64" font-family="Times,serif" font-size="14.00">rep=no, t=yes, r=no, m=yes, c=no</text>
</g>
<!-- n9&#45;&gt;n12 -->
<g id="edge14" class="edge">
<title>n9&#45;&gt;n12</title>
<path fill="none" stroke="black" d="M2190.92,-443.71C2190.92,-435.53 2190.92,-426.75 2190.92,-418.23"/>
<polygon fill="black" stroke="black" points="2194.42,-418.01 2190.92,-408.01 2187.42,-418.01 2194.42,-418.01"/>
</g>
<!-- n14 -->
<g id="node16" class="node">
<title>n14</title>
<ellipse fill="#98D2A5" stroke="black" cx="2595.92" cy="-370.34" rx="195.74" ry="37.45"/>
<text text-anchor="middle" x="2595.92" y="-381.64" font-family="Times,serif" font-size="14.00">premio</text>
<text text-anchor="middle" x="2595.92" y="-366.64" font-family="Times,serif" font-size="14.00">ncms000 (dobj)</text>
<text text-anchor="middle" x="2595.92" y="-351.64" font-family="Times,serif" font-size="14.00">rep=no, t=yes, r=no, m=yes, c=yes</text>
</g>
<!-- n9&#45;&gt;n14 -->
<g id="edge15" class="edge">
<title>n9&#45;&gt;n14</title>
<path fill="none" stroke="black" d="M2301.05,-450.66C2354.86,-436.19 2419.74,-418.73 2474.92,-403.89"/>
<polygon fill="black" stroke="black" points="2476,-407.22 2484.75,-401.24 2474.19,-400.46 2476,-407.22"/>
</g>
<!-- n15 -->
<g id="node17" class="node">
<title>n15</title>
<ellipse fill="#98D2A5" stroke="black" cx="3000.92" cy="-370.34" rx="190.84" ry="37.45"/>
<text text-anchor="middle" x="3000.92" y="-381.64" font-family="Times,serif" font-size="14.00">a</text>
<text text-anchor="middle" x="3000.92" y="-366.64" font-family="Times,serif" font-size="14.00">sps00 (iobj)</text>
<text text-anchor="middle" x="3000.92" y="-351.64" font-family="Times,serif" font-size="14.00">rep=no, t=yes, r=no, m=yes, c=no</text>
</g>
<!-- n9&#45;&gt;n15 -->
<g id="edge16" class="edge">
<title>n9&#45;&gt;n15</title>
<path fill="none" stroke="black" d="M2323.78,-454.28C2346.13,-450.41 2369.14,-446.75 2390.92,-443.81 2572.2,-419.38 2619.64,-432.25 2800.92,-407.81 2819.46,-405.31 2838.9,-402.29 2858.07,-399.05"/>
<polygon fill="black" stroke="black" points="2858.79,-402.48 2868.06,-397.35 2857.62,-395.58 2858.79,-402.48"/>
</g>
<!-- n10 -->
<g id="node18" class="node">
<title>n10</title>
<ellipse fill="#98D2A5" stroke="black" cx="1785.92" cy="-259.38" rx="190.84" ry="37.45"/>
<text text-anchor="middle" x="1785.92" y="-270.68" font-family="Times,serif" font-size="14.00">la</text>
<text text-anchor="middle" x="1785.92" y="-255.68" font-family="Times,serif" font-size="14.00">da0fs0 (det)</text>
<text text-anchor="middle" x="1785.92" y="-240.68" font-family="Times,serif" font-size="14.00">rep=no, t=yes, r=no, m=yes, c=no</text>
</g>
<!-- n11&#45;&gt;n10 -->
<g id="edge17" class="edge">
<title>n11&#45;&gt;n10</title>
<path fill="none" stroke="black" d="M1785.92,-332.75C1785.92,-324.58 1785.92,-315.8 1785.92,-307.27"/>
<polygon fill="black" stroke="black" points="1789.42,-307.06 1785.92,-297.06 1782.42,-307.06 1789.42,-307.06"/>
</g>
<!-- n13 -->
<g id="node19" class="node">
<title>n13</title>
<ellipse fill="#98D2A5" stroke="black" cx="2595.92" cy="-259.38" rx="190.84" ry="37.45"/>
<text text-anchor="middle" x="2595.92" y="-270.68" font-family="Times,serif" font-size="14.00">el</text>
<text text-anchor="middle" x="2595.92" y="-255.68" font-family="Times,serif" font-size="14.00">da0ms0 (det)</text>
<text text-anchor="middle" x="2595.92" y="-240.68" font-family="Times,serif" font-size="14.00">rep=no, t=yes, r=no, m=yes, c=no</text>
</g>
<!-- n14&#45;&gt;n13 -->
<g id="edge18" class="edge">
<title>n14&#45;&gt;n13</title>
<path fill="none" stroke="black" d="M2595.92,-332.75C2595.92,-324.58 2595.92,-315.8 2595.92,-307.27"/>
<polygon fill="black" stroke="black" points="2599.42,-307.06 2595.92,-297.06 2592.42,-307.06 2599.42,-307.06"/>
</g>
<!-- n19 -->
<g id="node20" class="node">
<title>n19</title>
<ellipse fill="#98D2A5" stroke="black" cx="2997.92" cy="-259.38" rx="190.84" ry="37.45"/>
<text text-anchor="middle" x="2997.92" y="-270.68" font-family="Times,serif" font-size="14.00">es</text>
<text text-anchor="middle" x="2997.92" y="-255.68" font-family="Times,serif" font-size="14.00">vsip3s0 (rcmod)</text>
<text text-anchor="middle" x="2997.92" y="-240.68" font-family="Times,serif" font-size="14.00">rep=no, t=yes, r=no, m=yes, c=no</text>
</g>
<!-- n15&#45;&gt;n19 -->
<g id="edge19" class="edge">
<title>n15&#45;&gt;n19</title>
<path fill="none" stroke="black" d="M2999.91,-332.75C2999.69,-324.58 2999.44,-315.8 2999.21,-307.27"/>
<polygon fill="black" stroke="black" points="3002.7,-306.96 2998.93,-297.06 2995.71,-307.15 3002.7,-306.96"/>
</g>
<!-- n16 -->
<g id="node21" class="node">
<title>n16</title>
<ellipse fill="#98D2A5" stroke="black" cx="1989.92" cy="-148.43" rx="190.84" ry="37.45"/>
<text text-anchor="middle" x="1989.92" y="-159.73" font-family="Times,serif" font-size="14.00">quien</text>
<text text-anchor="middle" x="1989.92" y="-144.73" font-family="Times,serif" font-size="14.00">pr0cs000 (nsubj)</text>
<text text-anchor="middle" x="1989.92" y="-129.73" font-family="Times,serif" font-size="14.00">rep=no, t=yes, r=no, m=yes, c=no</text>
</g>
<!-- n19&#45;&gt;n16 -->
<g id="edge20" class="edge">
<title>n19&#45;&gt;n16</title>
<path fill="none" stroke="black" d="M2865.97,-232.22C2842.7,-228.28 2818.65,-224.62 2795.92,-221.91 2528.02,-189.88 2457.79,-218.17 2189.92,-185.91 2170.81,-183.6 2150.76,-180.63 2131.05,-177.37"/>
<polygon fill="black" stroke="black" points="2131.53,-173.9 2121.09,-175.69 2130.37,-180.8 2131.53,-173.9"/>
</g>
<!-- n17 -->
<g id="node22" class="node">
<title>n17</title>
<ellipse fill="#98D2A5" stroke="black" cx="2389.92" cy="-148.43" rx="190.84" ry="37.45"/>
<text text-anchor="middle" x="2389.92" y="-159.73" font-family="Times,serif" font-size="14.00">para</text>
<text text-anchor="middle" x="2389.92" y="-144.73" font-family="Times,serif" font-size="14.00">sps00 (iobj)</text>
<text text-anchor="middle" x="2389.92" y="-129.73" font-family="Times,serif" font-size="14.00">rep=no, t=yes, r=no, m=yes, c=no</text>
</g>
<!-- n19&#45;&gt;n17 -->
<g id="edge21" class="edge">
<title>n19&#45;&gt;n17</title>
<path fill="none" stroke="black" d="M2860.21,-233.41C2838.69,-229.54 2816.71,-225.6 2795.92,-221.91 2704.41,-205.65 2681.41,-202.24 2589.92,-185.91 2572.77,-182.84 2554.8,-179.61 2536.96,-176.38"/>
<polygon fill="black" stroke="black" points="2537.53,-172.92 2527.07,-174.58 2536.28,-179.81 2537.53,-172.92"/>
</g>
<!-- n22 -->
<g id="node23" class="node">
<title>n22</title>
<ellipse fill="#98D2A5" stroke="black" cx="2794.92" cy="-148.43" rx="195.74" ry="37.45"/>
<text text-anchor="middle" x="2794.92" y="-159.73" font-family="Times,serif" font-size="14.00">maestro</text>
<text text-anchor="middle" x="2794.92" y="-144.73" font-family="Times,serif" font-size="14.00">ncms000 (attr)</text>
<text text-anchor="middle" x="2794.92" y="-129.73" font-family="Times,serif" font-size="14.00">rep=no, t=yes, r=no, m=yes, c=yes</text>
</g>
<!-- n19&#45;&gt;n22 -->
<g id="edge22" class="edge">
<title>n19&#45;&gt;n22</title>
<path fill="none" stroke="black" d="M2933.97,-224.06C2913.12,-212.87 2889.81,-200.36 2868.33,-188.83"/>
<polygon fill="black" stroke="black" points="2869.71,-185.6 2859.25,-183.96 2866.4,-191.77 2869.71,-185.6"/>
</g>
<!-- n23 -->
<g id="node24" class="node">
<title>n23</title>
<ellipse fill="#98D2A5" stroke="black" cx="3199.92" cy="-148.43" rx="190.84" ry="37.45"/>
<text text-anchor="middle" x="3199.92" y="-159.73" font-family="Times,serif" font-size="14.00">y</text>
<text text-anchor="middle" x="3199.92" y="-144.73" font-family="Times,serif" font-size="14.00">cc (coord_fixed)</text>
<text text-anchor="middle" x="3199.92" y="-129.73" font-family="Times,serif" font-size="14.00">rep=no, t=yes, r=no, m=yes, c=no</text>
</g>
<!-- n19&#45;&gt;n23 -->
<g id="edge23" class="edge">
<title>n19&#45;&gt;n23</title>
<path fill="none" stroke="black" d="M3061.83,-223.91C3082.57,-212.73 3105.72,-200.24 3127.05,-188.73"/>
<polygon fill="black" stroke="black" points="3128.93,-191.69 3136.07,-183.87 3125.61,-185.53 3128.93,-191.69"/>
</g>
<!-- n25 -->
<g id="node25" class="node">
<title>n25</title>
<ellipse fill="#98D2A5" stroke="black" cx="3604.92" cy="-148.43" rx="195.74" ry="37.45"/>
<text text-anchor="middle" x="3604.92" y="-159.73" font-family="Times,serif" font-size="14.00">escuela</text>
<text text-anchor="middle" x="3604.92" y="-144.73" font-family="Times,serif" font-size="14.00">ncfs000 (attr)</text>
<text text-anchor="middle" x="3604.92" y="-129.73" font-family="Times,serif" font-size="14.00">rep=no, t=yes, r=no, m=yes, c=yes</text>
</g>
<!-- n19&#45;&gt;n25 -->
<g id="edge24" class="edge">
<title>n19&#45;&gt;n25</title>
<path fill="none" stroke="black" d="M3136.42,-233.52C3231.39,-216.48 3357.33,-193.87 3454.72,-176.39"/>
<polygon fill="black" stroke="black" points="3455.43,-179.82 3464.65,-174.61 3454.19,-172.93 3455.43,-179.82"/>
</g>
<!-- n18 -->
<g id="node26" class="node">
<title>n18</title>
<ellipse fill="#98D2A5" stroke="black" cx="2389.92" cy="-37.48" rx="190.84" ry="37.45"/>
<text text-anchor="middle" x="2389.92" y="-48.78" font-family="Times,serif" font-size="14.00">él</text>
<text text-anchor="middle" x="2389.92" y="-33.78" font-family="Times,serif" font-size="14.00">pp3ms000 (pobj)</text>
<text text-anchor="middle" x="2389.92" y="-18.78" font-family="Times,serif" font-size="14.00">rep=no, t=yes, r=no, m=yes, c=no</text>
</g>
<!-- n17&#45;&gt;n18 -->
<g id="edge25" class="edge">
<title>n17&#45;&gt;n18</title>
<path fill="none" stroke="black" d="M2389.92,-110.85C2389.92,-102.67 2389.92,-93.89 2389.92,-85.37"/>
<polygon fill="black" stroke="black" points="2393.42,-85.15 2389.92,-75.15 2386.42,-85.15 2393.42,-85.15"/>
</g>
<!-- n21 -->
<g id="node27" class="node">
<title>n21</title>
<ellipse fill="#98D2A5" stroke="black" cx="2791.92" cy="-37.48" rx="190.84" ry="37.45"/>
<text text-anchor="middle" x="2791.92" y="-48.78" font-family="Times,serif" font-size="14.00">un</text>
<text text-anchor="middle" x="2791.92" y="-33.78" font-family="Times,serif" font-size="14.00">di0ms0 (det)</text>
<text text-anchor="middle" x="2791.92" y="-18.78" font-family="Times,serif" font-size="14.00">rep=no, t=yes, r=no, m=yes, c=no</text>
</g>
<!-- n22&#45;&gt;n21 -->
<g id="edge26" class="edge">
<title>n22&#45;&gt;n21</title>
<path fill="none" stroke="black" d="M2793.91,-110.85C2793.69,-102.67 2793.44,-93.89 2793.21,-85.37"/>
<polygon fill="black" stroke="black" points="2796.7,-85.05 2792.93,-75.15 2789.71,-85.24 2796.7,-85.05"/>
</g>
<!-- n20 -->
<g id="node28" class="node">
<title>n20</title>
<ellipse fill="#98D2A5" stroke="black" cx="3191.92" cy="-37.48" rx="190.84" ry="37.45"/>
<text text-anchor="middle" x="3191.92" y="-48.78" font-family="Times,serif" font-size="14.00">&quot;</text>
<text text-anchor="middle" x="3191.92" y="-33.78" font-family="Times,serif" font-size="14.00">fe (punct)</text>
<text text-anchor="middle" x="3191.92" y="-18.78" font-family="Times,serif" font-size="14.00">rep=no, t=yes, r=no, m=yes, c=no</text>
</g>
<!-- n23&#45;&gt;n20 -->
<g id="edge27" class="edge">
<title>n23&#45;&gt;n20</title>
<path fill="none" stroke="black" d="M3197.23,-110.85C3196.63,-102.67 3195.99,-93.89 3195.36,-85.37"/>
<polygon fill="black" stroke="black" points="3198.83,-84.87 3194.61,-75.15 3191.85,-85.38 3198.83,-84.87"/>
</g>
<!-- n26 -->
<g id="node29" class="node">
<title>n26</title>
<ellipse fill="#98D2A5" stroke="black" cx="3591.92" cy="-37.48" rx="190.84" ry="37.45"/>
<text text-anchor="middle" x="3591.92" y="-48.78" font-family="Times,serif" font-size="14.00">&quot;</text>
<text text-anchor="middle" x="3591.92" y="-33.78" font-family="Times,serif" font-size="14.00">fe (punct)</text>
<text text-anchor="middle" x="3591.92" y="-18.78" font-family="Times,serif" font-size="14.00">rep=no, t=yes, r=no, m=yes, c=no</text>
</g>
<!-- n23&#45;&gt;n26 -->
<g id="edge28" class="edge">
<title>n23&#45;&gt;n26</title>
<path fill="none" stroke="black" d="M3307.81,-117.44C3359.45,-103.09 3421.38,-85.88 3474.22,-71.19"/>
<polygon fill="black" stroke="black" points="3475.28,-74.53 3483.98,-68.48 3473.41,-67.78 3475.28,-74.53"/>
</g>
<!-- n24 -->
<g id="node30" class="node">
<title>n24</title>
<ellipse fill="#98D2A5" stroke="black" cx="3991.92" cy="-37.48" rx="190.84" ry="37.45"/>
<text text-anchor="middle" x="3991.92" y="-48.78" font-family="Times,serif" font-size="14.00">una</text>
<text text-anchor="middle" x="3991.92" y="-33.78" font-family="Times,serif" font-size="14.00">di0fs0 (det)</text>
<text text-anchor="middle" x="3991.92" y="-18.78" font-family="Times,serif" font-size="14.00">rep=no, t=yes, r=no, m=yes, c=no</text>
</g>
<!-- n25&#45;&gt;n24 -->
<g id="edge29" class="edge">
<title>n25&#45;&gt;n24</title>
<path fill="none" stroke="black" d="M3712.72,-117.08C3763.25,-102.85 3823.55,-85.88 3875.17,-71.35"/>
<polygon fill="black" stroke="black" points="3876.35,-74.65 3885.03,-68.57 3874.46,-67.91 3876.35,-74.65"/>
</g>
<!-- n31 -->
<g id="node32" class="node">
<title>n31</title>
<ellipse fill="#98D2A5" stroke="black" cx="3705.92" cy="-370.34" rx="190.84" ry="37.45"/>
<text text-anchor="middle" x="3705.92" y="-381.64" font-family="Times,serif" font-size="14.00">de</text>
<text text-anchor="middle" x="3705.92" y="-366.64" font-family="Times,serif" font-size="14.00">sps00 (prepn)</text>
<text text-anchor="middle" x="3705.92" y="-351.64" font-family="Times,serif" font-size="14.00">rep=no, t=no, r=yes, m=yes, c=no</text>
</g>
<!-- n30&#45;&gt;n31 -->
<g id="edge31" class="edge">
<title>n30&#45;&gt;n31</title>
<path fill="none" stroke="black" d="M3450.27,-449.36C3495.49,-435.56 3548.9,-419.26 3595.18,-405.13"/>
<polygon fill="black" stroke="black" points="3596.39,-408.42 3604.94,-402.16 3594.35,-401.73 3596.39,-408.42"/>
</g>
<!-- n34 -->
<g id="node33" class="node">
<title>n34</title>
<ellipse fill="#98D2A5" stroke="black" cx="4009.92" cy="-259.38" rx="190.84" ry="37.45"/>
<text text-anchor="middle" x="4009.92" y="-270.68" font-family="Times,serif" font-size="14.00">presencia</text>
<text text-anchor="middle" x="4009.92" y="-255.68" font-family="Times,serif" font-size="14.00">ncfs000 (pobj)</text>
<text text-anchor="middle" x="4009.92" y="-240.68" font-family="Times,serif" font-size="14.00">rep=no, t=no, r=yes, m=yes, c=no</text>
</g>
<!-- n31&#45;&gt;n34 -->
<g id="edge32" class="edge">
<title>n31&#45;&gt;n34</title>
<path fill="none" stroke="black" d="M3795.48,-337.24C3831.58,-324.3 3873.36,-309.33 3910.4,-296.05"/>
<polygon fill="black" stroke="black" points="3911.97,-299.21 3920.21,-292.54 3909.61,-292.62 3911.97,-299.21"/>
</g>
<!-- n32 -->
<g id="node34" class="node">
<title>n32</title>
<ellipse fill="#98D2A5" stroke="black" cx="4009.92" cy="-148.43" rx="190.84" ry="37.45"/>
<text text-anchor="middle" x="4009.92" y="-159.73" font-family="Times,serif" font-size="14.00">su</text>
<text text-anchor="middle" x="4009.92" y="-144.73" font-family="Times,serif" font-size="14.00">dp3cs0 (poss)</text>
<text text-anchor="middle" x="4009.92" y="-129.73" font-family="Times,serif" font-size="14.00">rep=no, t=no, r=yes, m=yes, c=no</text>
</g>
<!-- n34&#45;&gt;n32 -->
<g id="edge33" class="edge">
<title>n34&#45;&gt;n32</title>
<path fill="none" stroke="black" d="M4009.92,-221.8C4009.92,-213.63 4009.92,-204.85 4009.92,-196.32"/>
<polygon fill="black" stroke="black" points="4013.42,-196.1 4009.92,-186.1 4006.42,-196.1 4013.42,-196.1"/>
</g>
<!-- n33 -->
<g id="node35" class="node">
<title>n33</title>
<ellipse fill="#98D2A5" stroke="black" cx="4409.92" cy="-148.43" rx="190.84" ry="37.45"/>
<text text-anchor="middle" x="4409.92" y="-159.73" font-family="Times,serif" font-size="14.00">fugaz</text>
<text text-anchor="middle" x="4409.92" y="-144.73" font-family="Times,serif" font-size="14.00">aq0cs0 (amod)</text>
<text text-anchor="middle" x="4409.92" y="-129.73" font-family="Times,serif" font-size="14.00">rep=no, t=no, r=yes, m=yes, c=no</text>
</g>
<!-- n34&#45;&gt;n33 -->
<g id="edge34" class="edge">
<title>n34&#45;&gt;n33</title>
<path fill="none" stroke="black" d="M4119.22,-228.61C4172.36,-214.14 4236.33,-196.71 4290.71,-181.9"/>
<polygon fill="black" stroke="black" points="4291.67,-185.27 4300.4,-179.26 4289.83,-178.51 4291.67,-185.27"/>
</g>
</g>
</svg>
