<?xml version="1.0" encoding="UTF-8" standalone="no"?>
<!DOCTYPE svg PUBLIC "-//W3C//DTD SVG 1.1//EN"
 "http://www.w3.org/Graphics/SVG/1.1/DTD/svg11.dtd">
<!-- Generated by graphviz version 2.43.0 (0)
 -->
<!-- Title: tree Pages: 1 -->
<svg width="3048pt" height="194pt"
 viewBox="0.00 0.00 3048.45 193.91" xmlns="http://www.w3.org/2000/svg" xmlns:xlink="http://www.w3.org/1999/xlink">
<g id="graph0" class="graph" transform="scale(1 1) rotate(0) translate(4 189.91)">
<title>tree</title>
<polygon fill="white" stroke="transparent" points="-4,4 -4,-189.91 3044.45,-189.91 3044.45,4 -4,4"/>
<!-- n5 -->
<g id="node1" class="node">
<title>n5</title>
<ellipse fill="none" stroke="black" cx="1522.73" cy="-148.43" rx="185.94" ry="37.45"/>
<text text-anchor="middle" x="1522.73" y="-159.73" font-family="Times,serif" font-size="14.00">debut</text>
<text text-anchor="middle" x="1522.73" y="-144.73" font-family="Times,serif" font-size="14.00">ncms000 (root)</text>
<text text-anchor="middle" x="1522.73" y="-129.73" font-family="Times,serif" font-size="14.00">rep=no, t=no, r=no, m=yes, c=no</text>
</g>
<!-- n1 -->
<g id="node2" class="node">
<title>n1</title>
<ellipse fill="none" stroke="black" cx="181.73" cy="-37.48" rx="181.95" ry="37.45"/>
<text text-anchor="middle" x="181.73" y="-48.78" font-family="Times,serif" font-size="14.00">&#45;</text>
<text text-anchor="middle" x="181.73" y="-33.78" font-family="Times,serif" font-size="14.00">fg (punct)</text>
<text text-anchor="middle" x="181.73" y="-18.78" font-family="Times,serif" font-size="14.00">rep=no, t=no, r=no, m=no, c=no</text>
</g>
<!-- n5&#45;&gt;n1 -->
<g id="edge1" class="edge">
<title>n5&#45;&gt;n1</title>
<path fill="none" stroke="black" d="M1338.65,-143.03C1110.83,-135.93 711.38,-118.07 371.73,-74.95 353.79,-72.68 335,-69.74 316.5,-66.53"/>
<polygon fill="black" stroke="black" points="317.02,-63.07 306.56,-64.78 315.8,-69.96 317.02,-63.07"/>
</g>
<!-- n2 -->
<g id="node3" class="node">
<title>n2</title>
<ellipse fill="none" stroke="black" cx="562.73" cy="-37.48" rx="181.95" ry="37.45"/>
<text text-anchor="middle" x="562.73" y="-48.78" font-family="Times,serif" font-size="14.00">&#45;</text>
<text text-anchor="middle" x="562.73" y="-33.78" font-family="Times,serif" font-size="14.00">fg (punct)</text>
<text text-anchor="middle" x="562.73" y="-18.78" font-family="Times,serif" font-size="14.00">rep=no, t=no, r=no, m=no, c=no</text>
</g>
<!-- n5&#45;&gt;n2 -->
<g id="edge2" class="edge">
<title>n5&#45;&gt;n2</title>
<path fill="none" stroke="black" d="M1347.47,-135.74C1191.03,-124.16 955.93,-103.96 752.73,-74.95 735.26,-72.46 716.97,-69.46 698.91,-66.25"/>
<polygon fill="black" stroke="black" points="699.38,-62.78 688.92,-64.46 698.14,-69.67 699.38,-62.78"/>
</g>
<!-- n3 -->
<g id="node4" class="node">
<title>n3</title>
<ellipse fill="none" stroke="black" cx="943.73" cy="-37.48" rx="181.95" ry="37.45"/>
<text text-anchor="middle" x="943.73" y="-48.78" font-family="Times,serif" font-size="14.00">ยก</text>
<text text-anchor="middle" x="943.73" y="-33.78" font-family="Times,serif" font-size="14.00">faa (punct)</text>
<text text-anchor="middle" x="943.73" y="-18.78" font-family="Times,serif" font-size="14.00">rep=no, t=no, r=no, m=no, c=no</text>
</g>
<!-- n5&#45;&gt;n3 -->
<g id="edge3" class="edge">
<title>n5&#45;&gt;n3</title>
<path fill="none" stroke="black" d="M1388.48,-122.49C1313.75,-108.57 1219.06,-90.88 1134.73,-74.95 1118.44,-71.88 1101.36,-68.64 1084.41,-65.41"/>
<polygon fill="black" stroke="black" points="1084.93,-61.95 1074.46,-63.52 1083.62,-68.82 1084.93,-61.95"/>
</g>
<!-- n4 -->
<g id="node5" class="node">
<title>n4</title>
<ellipse fill="none" stroke="black" cx="1329.73" cy="-37.48" rx="185.94" ry="37.45"/>
<text text-anchor="middle" x="1329.73" y="-48.78" font-family="Times,serif" font-size="14.00">Vaya</text>
<text text-anchor="middle" x="1329.73" y="-33.78" font-family="Times,serif" font-size="14.00">vmip3s0 (dep)</text>
<text text-anchor="middle" x="1329.73" y="-18.78" font-family="Times,serif" font-size="14.00">rep=no, t=no, r=no, m=yes, c=no</text>
</g>
<!-- n5&#45;&gt;n4 -->
<g id="edge4" class="edge">
<title>n5&#45;&gt;n4</title>
<path fill="none" stroke="black" d="M1461.66,-112.96C1441.94,-101.82 1419.93,-89.4 1399.62,-77.93"/>
<polygon fill="black" stroke="black" points="1401.16,-74.78 1390.73,-72.91 1397.71,-80.88 1401.16,-74.78"/>
</g>
<!-- n6 -->
<g id="node6" class="node">
<title>n6</title>
<ellipse fill="none" stroke="black" cx="1715.73" cy="-37.48" rx="181.95" ry="37.45"/>
<text text-anchor="middle" x="1715.73" y="-48.78" font-family="Times,serif" font-size="14.00">!</text>
<text text-anchor="middle" x="1715.73" y="-33.78" font-family="Times,serif" font-size="14.00">fat (punct)</text>
<text text-anchor="middle" x="1715.73" y="-18.78" font-family="Times,serif" font-size="14.00">rep=no, t=no, r=no, m=no, c=no</text>
</g>
<!-- n5&#45;&gt;n6 -->
<g id="edge5" class="edge">
<title>n5&#45;&gt;n6</title>
<path fill="none" stroke="black" d="M1583.79,-112.96C1603.51,-101.82 1625.53,-89.4 1645.84,-77.93"/>
<polygon fill="black" stroke="black" points="1647.74,-80.88 1654.73,-72.91 1644.3,-74.78 1647.74,-80.88"/>
</g>
<!-- n7 -->
<g id="node7" class="node">
<title>n7</title>
<ellipse fill="none" stroke="black" cx="2096.73" cy="-37.48" rx="181.95" ry="37.45"/>
<text text-anchor="middle" x="2096.73" y="-48.78" font-family="Times,serif" font-size="14.00">&#45;</text>
<text text-anchor="middle" x="2096.73" y="-33.78" font-family="Times,serif" font-size="14.00">fg (punct)</text>
<text text-anchor="middle" x="2096.73" y="-18.78" font-family="Times,serif" font-size="14.00">rep=no, t=no, r=no, m=no, c=no</text>
</g>
<!-- n5&#45;&gt;n7 -->
<g id="edge6" class="edge">
<title>n5&#45;&gt;n7</title>
<path fill="none" stroke="black" d="M1656.47,-122.29C1730.29,-108.39 1823.58,-90.78 1906.73,-74.95 1922.79,-71.89 1939.62,-68.68 1956.34,-65.48"/>
<polygon fill="black" stroke="black" points="1957,-68.92 1966.17,-63.6 1955.69,-62.04 1957,-68.92"/>
</g>
<!-- n8 -->
<g id="node8" class="node">
<title>n8</title>
<ellipse fill="none" stroke="black" cx="2477.73" cy="-37.48" rx="181.95" ry="37.45"/>
<text text-anchor="middle" x="2477.73" y="-48.78" font-family="Times,serif" font-size="14.00">&#45;</text>
<text text-anchor="middle" x="2477.73" y="-33.78" font-family="Times,serif" font-size="14.00">fg (punct)</text>
<text text-anchor="middle" x="2477.73" y="-18.78" font-family="Times,serif" font-size="14.00">rep=no, t=no, r=no, m=no, c=no</text>
</g>
<!-- n5&#45;&gt;n8 -->
<g id="edge7" class="edge">
<title>n5&#45;&gt;n8</title>
<path fill="none" stroke="black" d="M1697.61,-135.62C1853.03,-124 2086.16,-103.78 2287.73,-74.95 2305.19,-72.46 2323.49,-69.45 2341.54,-66.24"/>
<polygon fill="black" stroke="black" points="2342.31,-69.66 2351.53,-64.44 2341.07,-62.77 2342.31,-69.66"/>
</g>
<!-- n9 -->
<g id="node9" class="node">
<title>n9</title>
<ellipse fill="none" stroke="black" cx="2858.73" cy="-37.48" rx="181.95" ry="37.45"/>
<text text-anchor="middle" x="2858.73" y="-48.78" font-family="Times,serif" font-size="14.00">.</text>
<text text-anchor="middle" x="2858.73" y="-33.78" font-family="Times,serif" font-size="14.00">fp (punct)</text>
<text text-anchor="middle" x="2858.73" y="-18.78" font-family="Times,serif" font-size="14.00">rep=no, t=no, r=no, m=no, c=no</text>
</g>
<!-- n5&#45;&gt;n9 -->
<g id="edge8" class="edge">
<title>n5&#45;&gt;n9</title>
<path fill="none" stroke="black" d="M1707,-142.95C1933.99,-135.78 2331.04,-117.87 2668.73,-74.95 2686.66,-72.67 2705.45,-69.74 2723.95,-66.53"/>
<polygon fill="black" stroke="black" points="2724.65,-69.96 2733.89,-64.77 2723.43,-63.07 2724.65,-69.96"/>
</g>
</g>
</svg>
