<?xml version="1.0" encoding="UTF-8" standalone="no"?>
<!DOCTYPE svg PUBLIC "-//W3C//DTD SVG 1.1//EN"
 "http://www.w3.org/Graphics/SVG/1.1/DTD/svg11.dtd">
<!-- Generated by graphviz version 2.43.0 (0)
 -->
<!-- Title: tree Pages: 1 -->
<svg width="2540pt" height="971pt"
 viewBox="0.00 0.00 2539.84 970.58" xmlns="http://www.w3.org/2000/svg" xmlns:xlink="http://www.w3.org/1999/xlink">
<g id="graph0" class="graph" transform="scale(1 1) rotate(0) translate(4 966.58)">
<title>tree</title>
<polygon fill="white" stroke="transparent" points="-4,4 -4,-966.58 2535.84,-966.58 2535.84,4 -4,4"/>
<!-- n4 -->
<g id="node1" class="node">
<title>n4</title>
<ellipse fill="#DA79E8" stroke="black" cx="990.92" cy="-925.1" rx="190.84" ry="37.45"/>
<text text-anchor="middle" x="990.92" y="-936.4" font-family="Times,serif" font-size="14.00">ha</text>
<text text-anchor="middle" x="990.92" y="-921.4" font-family="Times,serif" font-size="14.00">vaip3s0 (root)</text>
<text text-anchor="middle" x="990.92" y="-906.4" font-family="Times,serif" font-size="14.00">rep=no, t=no, r=yes, m=yes, c=no</text>
</g>
<!-- n2 -->
<g id="node2" class="node">
<title>n2</title>
<ellipse fill="#BEDA48" stroke="black" cx="590.92" cy="-814.15" rx="190.84" ry="37.45"/>
<text text-anchor="middle" x="590.92" y="-825.45" font-family="Times,serif" font-size="14.00">policía</text>
<text text-anchor="middle" x="590.92" y="-810.45" font-family="Times,serif" font-size="14.00">nccs000 (nsubj)</text>
<text text-anchor="middle" x="590.92" y="-795.45" font-family="Times,serif" font-size="14.00">rep=no, t=yes, r=no, m=yes, c=no</text>
</g>
<!-- n4&#45;&gt;n2 -->
<g id="edge1" class="edge">
<title>n4&#45;&gt;n2</title>
<path fill="none" stroke="black" d="M881.62,-894.33C828.48,-879.86 764.51,-862.43 710.12,-847.62"/>
<polygon fill="black" stroke="black" points="711,-844.23 700.44,-844.98 709.16,-850.99 711,-844.23"/>
</g>
<!-- n5 -->
<g id="node3" class="node">
<title>n5</title>
<ellipse fill="#DA79E8" stroke="black" cx="990.92" cy="-814.15" rx="190.84" ry="37.45"/>
<text text-anchor="middle" x="990.92" y="-825.45" font-family="Times,serif" font-size="14.00">firmado</text>
<text text-anchor="middle" x="990.92" y="-810.45" font-family="Times,serif" font-size="14.00">vmp00sm (vobj)</text>
<text text-anchor="middle" x="990.92" y="-795.45" font-family="Times,serif" font-size="14.00">rep=no, t=no, r=yes, m=yes, c=no</text>
</g>
<!-- n4&#45;&gt;n5 -->
<g id="edge2" class="edge">
<title>n4&#45;&gt;n5</title>
<path fill="none" stroke="black" d="M990.92,-887.52C990.92,-879.35 990.92,-870.57 990.92,-862.04"/>
<polygon fill="black" stroke="black" points="994.42,-861.82 990.92,-851.82 987.42,-861.82 994.42,-861.82"/>
</g>
<!-- n23 -->
<g id="node4" class="node">
<title>n23</title>
<ellipse fill="none" stroke="black" cx="1381.92" cy="-814.15" rx="181.95" ry="37.45"/>
<text text-anchor="middle" x="1381.92" y="-825.45" font-family="Times,serif" font-size="14.00">.</text>
<text text-anchor="middle" x="1381.92" y="-810.45" font-family="Times,serif" font-size="14.00">fp (punct)</text>
<text text-anchor="middle" x="1381.92" y="-795.45" font-family="Times,serif" font-size="14.00">rep=no, t=no, r=no, m=no, c=no</text>
</g>
<!-- n4&#45;&gt;n23 -->
<g id="edge3" class="edge">
<title>n4&#45;&gt;n23</title>
<path fill="none" stroke="black" d="M1098.54,-894.11C1150.57,-879.62 1213.09,-862.19 1266.16,-847.41"/>
<polygon fill="black" stroke="black" points="1267.26,-850.73 1275.95,-844.68 1265.38,-843.99 1267.26,-850.73"/>
</g>
<!-- n1 -->
<g id="node5" class="node">
<title>n1</title>
<ellipse fill="#BEDA48" stroke="black" cx="190.92" cy="-703.2" rx="190.84" ry="37.45"/>
<text text-anchor="middle" x="190.92" y="-714.5" font-family="Times,serif" font-size="14.00">La</text>
<text text-anchor="middle" x="190.92" y="-699.5" font-family="Times,serif" font-size="14.00">da0fs0 (det)</text>
<text text-anchor="middle" x="190.92" y="-684.5" font-family="Times,serif" font-size="14.00">rep=no, t=yes, r=no, m=yes, c=no</text>
</g>
<!-- n2&#45;&gt;n1 -->
<g id="edge4" class="edge">
<title>n2&#45;&gt;n1</title>
<path fill="none" stroke="black" d="M481.62,-783.38C428.48,-768.9 364.51,-751.48 310.12,-736.67"/>
<polygon fill="black" stroke="black" points="311,-733.28 300.44,-734.03 309.16,-740.03 311,-733.28"/>
</g>
<!-- n3 -->
<g id="node6" class="node">
<title>n3</title>
<ellipse fill="#BEDA48" stroke="black" cx="590.92" cy="-703.2" rx="190.84" ry="37.45"/>
<text text-anchor="middle" x="590.92" y="-714.5" font-family="Times,serif" font-size="14.00">autonómica</text>
<text text-anchor="middle" x="590.92" y="-699.5" font-family="Times,serif" font-size="14.00">aq0fs0 (amod)</text>
<text text-anchor="middle" x="590.92" y="-684.5" font-family="Times,serif" font-size="14.00">rep=no, t=yes, r=no, m=yes, c=no</text>
</g>
<!-- n2&#45;&gt;n3 -->
<g id="edge5" class="edge">
<title>n2&#45;&gt;n3</title>
<path fill="none" stroke="black" d="M590.92,-776.57C590.92,-768.39 590.92,-759.61 590.92,-751.09"/>
<polygon fill="black" stroke="black" points="594.42,-750.87 590.92,-740.87 587.42,-750.87 594.42,-750.87"/>
</g>
<!-- n6 -->
<g id="node7" class="node">
<title>n6</title>
<ellipse fill="#DA79E8" stroke="black" cx="990.92" cy="-703.2" rx="190.84" ry="37.45"/>
<text text-anchor="middle" x="990.92" y="-714.5" font-family="Times,serif" font-size="14.00">convenios</text>
<text text-anchor="middle" x="990.92" y="-699.5" font-family="Times,serif" font-size="14.00">ncmp000 (dobj)</text>
<text text-anchor="middle" x="990.92" y="-684.5" font-family="Times,serif" font-size="14.00">rep=no, t=no, r=yes, m=yes, c=no</text>
</g>
<!-- n5&#45;&gt;n6 -->
<g id="edge6" class="edge">
<title>n5&#45;&gt;n6</title>
<path fill="none" stroke="black" d="M990.92,-776.57C990.92,-768.39 990.92,-759.61 990.92,-751.09"/>
<polygon fill="black" stroke="black" points="994.42,-750.87 990.92,-740.87 987.42,-750.87 994.42,-750.87"/>
</g>
<!-- n9 -->
<g id="node8" class="node">
<title>n9</title>
<ellipse fill="#DA79E8" stroke="black" cx="1490.92" cy="-703.2" rx="190.84" ry="37.45"/>
<text text-anchor="middle" x="1490.92" y="-714.5" font-family="Times,serif" font-size="14.00">con</text>
<text text-anchor="middle" x="1490.92" y="-699.5" font-family="Times,serif" font-size="14.00">sps00 (prepv)</text>
<text text-anchor="middle" x="1490.92" y="-684.5" font-family="Times,serif" font-size="14.00">rep=no, t=no, r=yes, m=yes, c=no</text>
</g>
<!-- n5&#45;&gt;n9 -->
<g id="edge7" class="edge">
<title>n5&#45;&gt;n9</title>
<path fill="none" stroke="black" d="M1116.44,-785.8C1189.26,-769.93 1280.98,-749.94 1355.42,-733.72"/>
<polygon fill="black" stroke="black" points="1356.32,-737.11 1365.34,-731.56 1354.83,-730.27 1356.32,-737.11"/>
</g>
<!-- n7 -->
<g id="node9" class="node">
<title>n7</title>
<ellipse fill="#DA79E8" stroke="black" cx="940.92" cy="-592.24" rx="190.84" ry="37.45"/>
<text text-anchor="middle" x="940.92" y="-603.54" font-family="Times,serif" font-size="14.00">de</text>
<text text-anchor="middle" x="940.92" y="-588.54" font-family="Times,serif" font-size="14.00">sps00 (prepn)</text>
<text text-anchor="middle" x="940.92" y="-573.54" font-family="Times,serif" font-size="14.00">rep=no, t=no, r=yes, m=yes, c=no</text>
</g>
<!-- n6&#45;&gt;n7 -->
<g id="edge8" class="edge">
<title>n6&#45;&gt;n7</title>
<path fill="none" stroke="black" d="M974.13,-665.61C970.21,-657.08 966,-647.89 961.92,-639.01"/>
<polygon fill="black" stroke="black" points="965.1,-637.54 957.75,-629.92 958.74,-640.46 965.1,-637.54"/>
</g>
<!-- n11 -->
<g id="node11" class="node">
<title>n11</title>
<ellipse fill="#DA79E8" stroke="black" cx="1515.92" cy="-592.24" rx="190.84" ry="37.45"/>
<text text-anchor="middle" x="1515.92" y="-603.54" font-family="Times,serif" font-size="14.00">90%</text>
<text text-anchor="middle" x="1515.92" y="-588.54" font-family="Times,serif" font-size="14.00">zp (pobj)</text>
<text text-anchor="middle" x="1515.92" y="-573.54" font-family="Times,serif" font-size="14.00">rep=no, t=no, r=yes, m=yes, c=no</text>
</g>
<!-- n9&#45;&gt;n11 -->
<g id="edge10" class="edge">
<title>n9&#45;&gt;n11</title>
<path fill="none" stroke="black" d="M1499.31,-665.61C1501.21,-657.35 1503.25,-648.47 1505.22,-639.85"/>
<polygon fill="black" stroke="black" points="1508.68,-640.44 1507.5,-629.92 1501.86,-638.88 1508.68,-640.44"/>
</g>
<!-- n8 -->
<g id="node10" class="node">
<title>n8</title>
<ellipse fill="#DA79E8" stroke="black" cx="740.92" cy="-481.29" rx="190.84" ry="37.45"/>
<text text-anchor="middle" x="740.92" y="-492.59" font-family="Times,serif" font-size="14.00">colaboración</text>
<text text-anchor="middle" x="740.92" y="-477.59" font-family="Times,serif" font-size="14.00">ncfs000 (pobj)</text>
<text text-anchor="middle" x="740.92" y="-462.59" font-family="Times,serif" font-size="14.00">rep=no, t=no, r=yes, m=yes, c=no</text>
</g>
<!-- n7&#45;&gt;n8 -->
<g id="edge9" class="edge">
<title>n7&#45;&gt;n8</title>
<path fill="none" stroke="black" d="M877.64,-556.77C857.11,-545.59 834.18,-533.1 813.06,-521.59"/>
<polygon fill="black" stroke="black" points="814.59,-518.44 804.13,-516.73 811.24,-524.58 814.59,-518.44"/>
</g>
<!-- n10 -->
<g id="node12" class="node">
<title>n10</title>
<ellipse fill="#DA79E8" stroke="black" cx="1140.92" cy="-481.29" rx="190.84" ry="37.45"/>
<text text-anchor="middle" x="1140.92" y="-492.59" font-family="Times,serif" font-size="14.00">el</text>
<text text-anchor="middle" x="1140.92" y="-477.59" font-family="Times,serif" font-size="14.00">da0ms0 (det)</text>
<text text-anchor="middle" x="1140.92" y="-462.59" font-family="Times,serif" font-size="14.00">rep=no, t=no, r=yes, m=yes, c=no</text>
</g>
<!-- n11&#45;&gt;n10 -->
<g id="edge11" class="edge">
<title>n11&#45;&gt;n10</title>
<path fill="none" stroke="black" d="M1410.96,-560.75C1362.51,-546.67 1304.88,-529.93 1255.32,-515.53"/>
<polygon fill="black" stroke="black" points="1256.11,-512.11 1245.53,-512.68 1254.15,-518.83 1256.11,-512.11"/>
</g>
<!-- n12 -->
<g id="node13" class="node">
<title>n12</title>
<ellipse fill="#DA79E8" stroke="black" cx="1540.92" cy="-481.29" rx="190.84" ry="37.45"/>
<text text-anchor="middle" x="1540.92" y="-492.59" font-family="Times,serif" font-size="14.00">de</text>
<text text-anchor="middle" x="1540.92" y="-477.59" font-family="Times,serif" font-size="14.00">sps00 (prep)</text>
<text text-anchor="middle" x="1540.92" y="-462.59" font-family="Times,serif" font-size="14.00">rep=no, t=no, r=yes, m=yes, c=no</text>
</g>
<!-- n11&#45;&gt;n12 -->
<g id="edge12" class="edge">
<title>n11&#45;&gt;n12</title>
<path fill="none" stroke="black" d="M1524.31,-554.66C1526.21,-546.4 1528.25,-537.51 1530.22,-528.9"/>
<polygon fill="black" stroke="black" points="1533.68,-529.49 1532.5,-518.96 1526.86,-527.93 1533.68,-529.49"/>
</g>
<!-- n18 -->
<g id="node14" class="node">
<title>n18</title>
<ellipse fill="#DA79E8" stroke="black" cx="1940.92" cy="-481.29" rx="190.84" ry="37.45"/>
<text text-anchor="middle" x="1940.92" y="-492.59" font-family="Times,serif" font-size="14.00">de</text>
<text text-anchor="middle" x="1940.92" y="-477.59" font-family="Times,serif" font-size="14.00">sps00 (prep)</text>
<text text-anchor="middle" x="1940.92" y="-462.59" font-family="Times,serif" font-size="14.00">rep=no, t=no, r=yes, m=yes, c=no</text>
</g>
<!-- n11&#45;&gt;n18 -->
<g id="edge13" class="edge">
<title>n11&#45;&gt;n18</title>
<path fill="none" stroke="black" d="M1629.53,-562.12C1687.53,-547.25 1758.18,-529.14 1817.51,-513.93"/>
<polygon fill="black" stroke="black" points="1818.49,-517.29 1827.31,-511.42 1816.75,-510.51 1818.49,-517.29"/>
</g>
<!-- n14 -->
<g id="node15" class="node">
<title>n14</title>
<ellipse fill="#DA79E8" stroke="black" cx="1540.92" cy="-370.34" rx="190.84" ry="37.45"/>
<text text-anchor="middle" x="1540.92" y="-381.64" font-family="Times,serif" font-size="14.00">cuerpos</text>
<text text-anchor="middle" x="1540.92" y="-366.64" font-family="Times,serif" font-size="14.00">ncmp000 (pobj)</text>
<text text-anchor="middle" x="1540.92" y="-351.64" font-family="Times,serif" font-size="14.00">rep=no, t=no, r=yes, m=yes, c=no</text>
</g>
<!-- n12&#45;&gt;n14 -->
<g id="edge14" class="edge">
<title>n12&#45;&gt;n14</title>
<path fill="none" stroke="black" d="M1540.92,-443.71C1540.92,-435.53 1540.92,-426.75 1540.92,-418.23"/>
<polygon fill="black" stroke="black" points="1544.42,-418.01 1540.92,-408.01 1537.42,-418.01 1544.42,-418.01"/>
</g>
<!-- n20 -->
<g id="node20" class="node">
<title>n20</title>
<ellipse fill="#DA79E8" stroke="black" cx="1940.92" cy="-370.34" rx="190.84" ry="37.45"/>
<text text-anchor="middle" x="1940.92" y="-381.64" font-family="Times,serif" font-size="14.00">comarcas</text>
<text text-anchor="middle" x="1940.92" y="-366.64" font-family="Times,serif" font-size="14.00">ncfp000 (pobj)</text>
<text text-anchor="middle" x="1940.92" y="-351.64" font-family="Times,serif" font-size="14.00">rep=no, t=no, r=yes, m=yes, c=no</text>
</g>
<!-- n18&#45;&gt;n20 -->
<g id="edge19" class="edge">
<title>n18&#45;&gt;n20</title>
<path fill="none" stroke="black" d="M1940.92,-443.71C1940.92,-435.53 1940.92,-426.75 1940.92,-418.23"/>
<polygon fill="black" stroke="black" points="1944.42,-418.01 1940.92,-408.01 1937.42,-418.01 1944.42,-418.01"/>
</g>
<!-- n13 -->
<g id="node16" class="node">
<title>n13</title>
<ellipse fill="#DA79E8" stroke="black" cx="1140.92" cy="-259.38" rx="190.84" ry="37.45"/>
<text text-anchor="middle" x="1140.92" y="-270.68" font-family="Times,serif" font-size="14.00">los</text>
<text text-anchor="middle" x="1140.92" y="-255.68" font-family="Times,serif" font-size="14.00">da0mp0 (det)</text>
<text text-anchor="middle" x="1140.92" y="-240.68" font-family="Times,serif" font-size="14.00">rep=no, t=no, r=yes, m=yes, c=no</text>
</g>
<!-- n14&#45;&gt;n13 -->
<g id="edge15" class="edge">
<title>n14&#45;&gt;n13</title>
<path fill="none" stroke="black" d="M1431.62,-339.56C1378.48,-325.09 1314.51,-307.67 1260.12,-292.85"/>
<polygon fill="black" stroke="black" points="1261,-289.46 1250.44,-290.21 1259.16,-296.22 1261,-289.46"/>
</g>
<!-- n15 -->
<g id="node17" class="node">
<title>n15</title>
<ellipse fill="#DA79E8" stroke="black" cx="1540.92" cy="-259.38" rx="190.84" ry="37.45"/>
<text text-anchor="middle" x="1540.92" y="-270.68" font-family="Times,serif" font-size="14.00">de</text>
<text text-anchor="middle" x="1540.92" y="-255.68" font-family="Times,serif" font-size="14.00">sps00 (prepn)</text>
<text text-anchor="middle" x="1540.92" y="-240.68" font-family="Times,serif" font-size="14.00">rep=no, t=no, r=yes, m=yes, c=no</text>
</g>
<!-- n14&#45;&gt;n15 -->
<g id="edge16" class="edge">
<title>n14&#45;&gt;n15</title>
<path fill="none" stroke="black" d="M1540.92,-332.75C1540.92,-324.58 1540.92,-315.8 1540.92,-307.27"/>
<polygon fill="black" stroke="black" points="1544.42,-307.06 1540.92,-297.06 1537.42,-307.06 1544.42,-307.06"/>
</g>
<!-- n16 -->
<g id="node18" class="node">
<title>n16</title>
<ellipse fill="#DA79E8" stroke="black" cx="1540.92" cy="-148.43" rx="190.84" ry="37.45"/>
<text text-anchor="middle" x="1540.92" y="-159.73" font-family="Times,serif" font-size="14.00">policía</text>
<text text-anchor="middle" x="1540.92" y="-144.73" font-family="Times,serif" font-size="14.00">nccs000 (pobj)</text>
<text text-anchor="middle" x="1540.92" y="-129.73" font-family="Times,serif" font-size="14.00">rep=no, t=no, r=yes, m=yes, c=no</text>
</g>
<!-- n15&#45;&gt;n16 -->
<g id="edge17" class="edge">
<title>n15&#45;&gt;n16</title>
<path fill="none" stroke="black" d="M1540.92,-221.8C1540.92,-213.63 1540.92,-204.85 1540.92,-196.32"/>
<polygon fill="black" stroke="black" points="1544.42,-196.1 1540.92,-186.1 1537.42,-196.1 1544.42,-196.1"/>
</g>
<!-- n17 -->
<g id="node19" class="node">
<title>n17</title>
<ellipse fill="#DA79E8" stroke="black" cx="1540.92" cy="-37.48" rx="190.84" ry="37.45"/>
<text text-anchor="middle" x="1540.92" y="-48.78" font-family="Times,serif" font-size="14.00">municipal</text>
<text text-anchor="middle" x="1540.92" y="-33.78" font-family="Times,serif" font-size="14.00">aq0cs0 (amod)</text>
<text text-anchor="middle" x="1540.92" y="-18.78" font-family="Times,serif" font-size="14.00">rep=no, t=no, r=yes, m=yes, c=no</text>
</g>
<!-- n16&#45;&gt;n17 -->
<g id="edge18" class="edge">
<title>n16&#45;&gt;n17</title>
<path fill="none" stroke="black" d="M1540.92,-110.85C1540.92,-102.67 1540.92,-93.89 1540.92,-85.37"/>
<polygon fill="black" stroke="black" points="1544.42,-85.15 1540.92,-75.15 1537.42,-85.15 1544.42,-85.15"/>
</g>
<!-- n19 -->
<g id="node21" class="node">
<title>n19</title>
<ellipse fill="#DA79E8" stroke="black" cx="1940.92" cy="-259.38" rx="190.84" ry="37.45"/>
<text text-anchor="middle" x="1940.92" y="-270.68" font-family="Times,serif" font-size="14.00">las</text>
<text text-anchor="middle" x="1940.92" y="-255.68" font-family="Times,serif" font-size="14.00">da0fp0 (det)</text>
<text text-anchor="middle" x="1940.92" y="-240.68" font-family="Times,serif" font-size="14.00">rep=no, t=no, r=yes, m=yes, c=no</text>
</g>
<!-- n20&#45;&gt;n19 -->
<g id="edge20" class="edge">
<title>n20&#45;&gt;n19</title>
<path fill="none" stroke="black" d="M1940.92,-332.75C1940.92,-324.58 1940.92,-315.8 1940.92,-307.27"/>
<polygon fill="black" stroke="black" points="1944.42,-307.06 1940.92,-297.06 1937.42,-307.06 1944.42,-307.06"/>
</g>
<!-- n21 -->
<g id="node22" class="node">
<title>n21</title>
<ellipse fill="#DA79E8" stroke="black" cx="2340.92" cy="-259.38" rx="190.84" ry="37.45"/>
<text text-anchor="middle" x="2340.92" y="-270.68" font-family="Times,serif" font-size="14.00">de</text>
<text text-anchor="middle" x="2340.92" y="-255.68" font-family="Times,serif" font-size="14.00">sps00 (prepn)</text>
<text text-anchor="middle" x="2340.92" y="-240.68" font-family="Times,serif" font-size="14.00">rep=no, t=no, r=yes, m=yes, c=no</text>
</g>
<!-- n20&#45;&gt;n21 -->
<g id="edge21" class="edge">
<title>n20&#45;&gt;n21</title>
<path fill="none" stroke="black" d="M2050.22,-339.56C2103.36,-325.09 2167.33,-307.67 2221.71,-292.85"/>
<polygon fill="black" stroke="black" points="2222.67,-296.22 2231.4,-290.21 2220.83,-289.46 2222.67,-296.22"/>
</g>
<!-- n22 -->
<g id="node23" class="node">
<title>n22</title>
<ellipse fill="#DA79E8" stroke="black" cx="2340.92" cy="-148.43" rx="190.84" ry="37.45"/>
<text text-anchor="middle" x="2340.92" y="-159.73" font-family="Times,serif" font-size="14.00">Girona</text>
<text text-anchor="middle" x="2340.92" y="-144.73" font-family="Times,serif" font-size="14.00">np00000 (pobj)</text>
<text text-anchor="middle" x="2340.92" y="-129.73" font-family="Times,serif" font-size="14.00">rep=no, t=no, r=yes, m=yes, c=no</text>
</g>
<!-- n21&#45;&gt;n22 -->
<g id="edge22" class="edge">
<title>n21&#45;&gt;n22</title>
<path fill="none" stroke="black" d="M2340.92,-221.8C2340.92,-213.63 2340.92,-204.85 2340.92,-196.32"/>
<polygon fill="black" stroke="black" points="2344.42,-196.1 2340.92,-186.1 2337.42,-196.1 2344.42,-196.1"/>
</g>
</g>
</svg>
