<?xml version="1.0" encoding="UTF-8" standalone="no"?>
<!DOCTYPE svg PUBLIC "-//W3C//DTD SVG 1.1//EN"
 "http://www.w3.org/Graphics/SVG/1.1/DTD/svg11.dtd">
<!-- Generated by graphviz version 2.43.0 (0)
 -->
<!-- Title: tree Pages: 1 -->
<svg width="4299pt" height="1082pt"
 viewBox="0.00 0.00 4298.89 1081.53" xmlns="http://www.w3.org/2000/svg" xmlns:xlink="http://www.w3.org/1999/xlink">
<g id="graph0" class="graph" transform="scale(1 1) rotate(0) translate(4 1077.53)">
<title>tree</title>
<polygon fill="white" stroke="transparent" points="-4,4 -4,-1077.53 4294.89,-1077.53 4294.89,4 -4,4"/>
<!-- n17 -->
<g id="node1" class="node">
<title>n17</title>
<ellipse fill="#DA79E8" stroke="black" cx="1720.97" cy="-1036.06" rx="190.84" ry="37.45"/>
<text text-anchor="middle" x="1720.97" y="-1047.36" font-family="Times,serif" font-size="14.00">obligó</text>
<text text-anchor="middle" x="1720.97" y="-1032.36" font-family="Times,serif" font-size="14.00">vmis3s0 (root)</text>
<text text-anchor="middle" x="1720.97" y="-1017.36" font-family="Times,serif" font-size="14.00">rep=no, t=no, r=yes, m=yes, c=no</text>
</g>
<!-- n3 -->
<g id="node2" class="node">
<title>n3</title>
<ellipse fill="none" stroke="black" cx="552.97" cy="-925.1" rx="185.94" ry="37.45"/>
<text text-anchor="middle" x="552.97" y="-936.4" font-family="Times,serif" font-size="14.00">agosto</text>
<text text-anchor="middle" x="552.97" y="-921.4" font-family="Times,serif" font-size="14.00">ncms000 (dobj)</text>
<text text-anchor="middle" x="552.97" y="-906.4" font-family="Times,serif" font-size="14.00">rep=no, t=no, r=no, m=yes, c=no</text>
</g>
<!-- n17&#45;&gt;n3 -->
<g id="edge1" class="edge">
<title>n17&#45;&gt;n3</title>
<path fill="none" stroke="black" d="M1535.18,-1027.33C1338.91,-1017.75 1020.71,-998.14 747.97,-962.58 729.57,-960.18 710.29,-957.18 691.3,-953.93"/>
<polygon fill="black" stroke="black" points="691.85,-950.47 681.4,-952.21 690.66,-957.37 691.85,-950.47"/>
</g>
<!-- n4 -->
<g id="node3" class="node">
<title>n4</title>
<ellipse fill="none" stroke="black" cx="938.97" cy="-925.1" rx="181.95" ry="37.45"/>
<text text-anchor="middle" x="938.97" y="-936.4" font-family="Times,serif" font-size="14.00">,</text>
<text text-anchor="middle" x="938.97" y="-921.4" font-family="Times,serif" font-size="14.00">fc (punct)</text>
<text text-anchor="middle" x="938.97" y="-906.4" font-family="Times,serif" font-size="14.00">rep=no, t=no, r=no, m=no, c=no</text>
</g>
<!-- n17&#45;&gt;n4 -->
<g id="edge2" class="edge">
<title>n17&#45;&gt;n4</title>
<path fill="none" stroke="black" d="M1554.34,-1017.62C1435.71,-1004.48 1272.69,-984.93 1129.97,-962.58 1112.73,-959.88 1094.67,-956.78 1076.82,-953.56"/>
<polygon fill="black" stroke="black" points="1077.4,-950.11 1066.93,-951.76 1076.14,-957 1077.4,-950.11"/>
</g>
<!-- n6 -->
<g id="node4" class="node">
<title>n6</title>
<ellipse fill="#BEDA48" stroke="black" cx="1329.97" cy="-925.1" rx="190.84" ry="37.45"/>
<text text-anchor="middle" x="1329.97" y="-936.4" font-family="Times,serif" font-size="14.00">incidente</text>
<text text-anchor="middle" x="1329.97" y="-921.4" font-family="Times,serif" font-size="14.00">nccs000 (nsubj)</text>
<text text-anchor="middle" x="1329.97" y="-906.4" font-family="Times,serif" font-size="14.00">rep=no, t=yes, r=no, m=yes, c=no</text>
</g>
<!-- n17&#45;&gt;n6 -->
<g id="edge3" class="edge">
<title>n17&#45;&gt;n6</title>
<path fill="none" stroke="black" d="M1613.35,-1005.07C1561.85,-990.72 1500.07,-973.5 1447.36,-958.82"/>
<polygon fill="black" stroke="black" points="1448.2,-955.42 1437.63,-956.1 1446.32,-962.16 1448.2,-955.42"/>
</g>
<!-- n16 -->
<g id="node5" class="node">
<title>n16</title>
<ellipse fill="none" stroke="black" cx="1720.97" cy="-925.1" rx="181.95" ry="37.45"/>
<text text-anchor="middle" x="1720.97" y="-936.4" font-family="Times,serif" font-size="14.00">,</text>
<text text-anchor="middle" x="1720.97" y="-921.4" font-family="Times,serif" font-size="14.00">fc (punct)</text>
<text text-anchor="middle" x="1720.97" y="-906.4" font-family="Times,serif" font-size="14.00">rep=no, t=no, r=no, m=no, c=no</text>
</g>
<!-- n17&#45;&gt;n16 -->
<g id="edge4" class="edge">
<title>n17&#45;&gt;n16</title>
<path fill="none" stroke="black" d="M1720.97,-998.47C1720.97,-990.3 1720.97,-981.52 1720.97,-972.99"/>
<polygon fill="black" stroke="black" points="1724.47,-972.78 1720.97,-962.78 1717.47,-972.78 1724.47,-972.78"/>
</g>
<!-- n18 -->
<g id="node6" class="node">
<title>n18</title>
<ellipse fill="#DA79E8" stroke="black" cx="2111.97" cy="-925.1" rx="190.84" ry="37.45"/>
<text text-anchor="middle" x="2111.97" y="-936.4" font-family="Times,serif" font-size="14.00">a</text>
<text text-anchor="middle" x="2111.97" y="-921.4" font-family="Times,serif" font-size="14.00">sps00 (dobj)</text>
<text text-anchor="middle" x="2111.97" y="-906.4" font-family="Times,serif" font-size="14.00">rep=no, t=no, r=yes, m=yes, c=no</text>
</g>
<!-- n17&#45;&gt;n18 -->
<g id="edge5" class="edge">
<title>n17&#45;&gt;n18</title>
<path fill="none" stroke="black" d="M1828.59,-1005.07C1880.09,-990.72 1941.86,-973.5 1994.57,-958.82"/>
<polygon fill="black" stroke="black" points="1995.61,-962.16 2004.31,-956.1 1993.73,-955.42 1995.61,-962.16"/>
</g>
<!-- n21 -->
<g id="node7" class="node">
<title>n21</title>
<ellipse fill="#DA79E8" stroke="black" cx="2511.97" cy="-925.1" rx="190.84" ry="37.45"/>
<text text-anchor="middle" x="2511.97" y="-936.4" font-family="Times,serif" font-size="14.00">a</text>
<text text-anchor="middle" x="2511.97" y="-921.4" font-family="Times,serif" font-size="14.00">sps00 (oobj)</text>
<text text-anchor="middle" x="2511.97" y="-906.4" font-family="Times,serif" font-size="14.00">rep=no, t=no, r=yes, m=yes, c=no</text>
</g>
<!-- n17&#45;&gt;n21 -->
<g id="edge6" class="edge">
<title>n17&#45;&gt;n21</title>
<path fill="none" stroke="black" d="M1886.59,-1017.36C2005.27,-1004.05 2168.77,-984.4 2311.97,-962.58 2329.94,-959.84 2348.77,-956.73 2367.39,-953.5"/>
<polygon fill="black" stroke="black" points="2368.15,-956.92 2377.4,-951.76 2366.95,-950.03 2368.15,-956.92"/>
</g>
<!-- n39 -->
<g id="node8" class="node">
<title>n39</title>
<ellipse fill="none" stroke="black" cx="2902.97" cy="-925.1" rx="181.95" ry="37.45"/>
<text text-anchor="middle" x="2902.97" y="-936.4" font-family="Times,serif" font-size="14.00">.</text>
<text text-anchor="middle" x="2902.97" y="-921.4" font-family="Times,serif" font-size="14.00">fp (punct)</text>
<text text-anchor="middle" x="2902.97" y="-906.4" font-family="Times,serif" font-size="14.00">rep=no, t=no, r=no, m=no, c=no</text>
</g>
<!-- n17&#45;&gt;n39 -->
<g id="edge7" class="edge">
<title>n17&#45;&gt;n39</title>
<path fill="none" stroke="black" d="M1907.47,-1027.86C2107.15,-1018.65 2432.97,-999.3 2711.97,-962.58 2729.98,-960.21 2748.87,-957.22 2767.46,-953.98"/>
<polygon fill="black" stroke="black" points="2768.21,-957.41 2777.45,-952.22 2766.99,-950.51 2768.21,-957.41"/>
</g>
<!-- n1 -->
<g id="node9" class="node">
<title>n1</title>
<ellipse fill="none" stroke="black" cx="185.97" cy="-814.15" rx="185.94" ry="37.45"/>
<text text-anchor="middle" x="185.97" y="-825.45" font-family="Times,serif" font-size="14.00">El</text>
<text text-anchor="middle" x="185.97" y="-810.45" font-family="Times,serif" font-size="14.00">da0ms0 (det)</text>
<text text-anchor="middle" x="185.97" y="-795.45" font-family="Times,serif" font-size="14.00">rep=no, t=no, r=no, m=yes, c=no</text>
</g>
<!-- n3&#45;&gt;n1 -->
<g id="edge8" class="edge">
<title>n3&#45;&gt;n1</title>
<path fill="none" stroke="black" d="M450.74,-893.75C403.22,-879.65 346.58,-862.83 297.91,-848.38"/>
<polygon fill="black" stroke="black" points="298.87,-845.02 288.29,-845.53 296.88,-851.73 298.87,-845.02"/>
</g>
<!-- n2 -->
<g id="node10" class="node">
<title>n2</title>
<ellipse fill="none" stroke="black" cx="575.97" cy="-814.15" rx="185.94" ry="37.45"/>
<text text-anchor="middle" x="575.97" y="-825.45" font-family="Times,serif" font-size="14.00">pasado</text>
<text text-anchor="middle" x="575.97" y="-810.45" font-family="Times,serif" font-size="14.00">aq0msp (amod)</text>
<text text-anchor="middle" x="575.97" y="-795.45" font-family="Times,serif" font-size="14.00">rep=no, t=no, r=no, m=yes, c=no</text>
</g>
<!-- n3&#45;&gt;n2 -->
<g id="edge9" class="edge">
<title>n3&#45;&gt;n2</title>
<path fill="none" stroke="black" d="M560.69,-887.52C562.44,-879.26 564.31,-870.37 566.13,-861.76"/>
<polygon fill="black" stroke="black" points="569.59,-862.33 568.23,-851.82 562.74,-860.88 569.59,-862.33"/>
</g>
<!-- n5 -->
<g id="node11" class="node">
<title>n5</title>
<ellipse fill="#BEDA48" stroke="black" cx="1058.97" cy="-814.15" rx="190.84" ry="37.45"/>
<text text-anchor="middle" x="1058.97" y="-825.45" font-family="Times,serif" font-size="14.00">un</text>
<text text-anchor="middle" x="1058.97" y="-810.45" font-family="Times,serif" font-size="14.00">di0ms0 (det)</text>
<text text-anchor="middle" x="1058.97" y="-795.45" font-family="Times,serif" font-size="14.00">rep=no, t=yes, r=no, m=yes, c=no</text>
</g>
<!-- n6&#45;&gt;n5 -->
<g id="edge10" class="edge">
<title>n6&#45;&gt;n5</title>
<path fill="none" stroke="black" d="M1247.92,-891.12C1217.15,-878.74 1181.99,-864.61 1150.41,-851.91"/>
<polygon fill="black" stroke="black" points="1151.32,-848.51 1140.73,-848.02 1148.71,-855 1151.32,-848.51"/>
</g>
<!-- n7 -->
<g id="node12" class="node">
<title>n7</title>
<ellipse fill="#BEDA48" stroke="black" cx="1458.97" cy="-814.15" rx="190.84" ry="37.45"/>
<text text-anchor="middle" x="1458.97" y="-825.45" font-family="Times,serif" font-size="14.00">en</text>
<text text-anchor="middle" x="1458.97" y="-810.45" font-family="Times,serif" font-size="14.00">sps00 (prepn)</text>
<text text-anchor="middle" x="1458.97" y="-795.45" font-family="Times,serif" font-size="14.00">rep=no, t=yes, r=no, m=yes, c=no</text>
</g>
<!-- n6&#45;&gt;n7 -->
<g id="edge11" class="edge">
<title>n6&#45;&gt;n7</title>
<path fill="none" stroke="black" d="M1372.21,-888.43C1383.9,-878.55 1396.71,-867.74 1408.81,-857.52"/>
<polygon fill="black" stroke="black" points="1411.25,-860.03 1416.63,-850.91 1406.74,-854.68 1411.25,-860.03"/>
</g>
<!-- n20 -->
<g id="node21" class="node">
<title>n20</title>
<ellipse fill="#DA79E8" stroke="black" cx="2111.97" cy="-814.15" rx="190.84" ry="37.45"/>
<text text-anchor="middle" x="2111.97" y="-825.45" font-family="Times,serif" font-size="14.00">Generalitat</text>
<text text-anchor="middle" x="2111.97" y="-810.45" font-family="Times,serif" font-size="14.00">np00000 (pobj)</text>
<text text-anchor="middle" x="2111.97" y="-795.45" font-family="Times,serif" font-size="14.00">rep=no, t=no, r=yes, m=yes, c=no</text>
</g>
<!-- n18&#45;&gt;n20 -->
<g id="edge20" class="edge">
<title>n18&#45;&gt;n20</title>
<path fill="none" stroke="black" d="M2111.97,-887.52C2111.97,-879.35 2111.97,-870.57 2111.97,-862.04"/>
<polygon fill="black" stroke="black" points="2115.47,-861.82 2111.97,-851.82 2108.47,-861.82 2115.47,-861.82"/>
</g>
<!-- n22 -->
<g id="node23" class="node">
<title>n22</title>
<ellipse fill="#DA79E8" stroke="black" cx="2511.97" cy="-814.15" rx="190.84" ry="37.45"/>
<text text-anchor="middle" x="2511.97" y="-825.45" font-family="Times,serif" font-size="14.00">suspender</text>
<text text-anchor="middle" x="2511.97" y="-810.45" font-family="Times,serif" font-size="14.00">vmn0000 (pobj)</text>
<text text-anchor="middle" x="2511.97" y="-795.45" font-family="Times,serif" font-size="14.00">rep=no, t=no, r=yes, m=yes, c=no</text>
</g>
<!-- n21&#45;&gt;n22 -->
<g id="edge22" class="edge">
<title>n21&#45;&gt;n22</title>
<path fill="none" stroke="black" d="M2511.97,-887.52C2511.97,-879.35 2511.97,-870.57 2511.97,-862.04"/>
<polygon fill="black" stroke="black" points="2515.47,-861.82 2511.97,-851.82 2508.47,-861.82 2515.47,-861.82"/>
</g>
<!-- n9 -->
<g id="node13" class="node">
<title>n9</title>
<ellipse fill="#BEDA48" stroke="black" cx="1458.97" cy="-703.2" rx="190.84" ry="37.45"/>
<text text-anchor="middle" x="1458.97" y="-714.5" font-family="Times,serif" font-size="14.00">comisaría</text>
<text text-anchor="middle" x="1458.97" y="-699.5" font-family="Times,serif" font-size="14.00">ncfs000 (pobj)</text>
<text text-anchor="middle" x="1458.97" y="-684.5" font-family="Times,serif" font-size="14.00">rep=no, t=yes, r=no, m=yes, c=no</text>
</g>
<!-- n7&#45;&gt;n9 -->
<g id="edge12" class="edge">
<title>n7&#45;&gt;n9</title>
<path fill="none" stroke="black" d="M1458.97,-776.57C1458.97,-768.39 1458.97,-759.61 1458.97,-751.09"/>
<polygon fill="black" stroke="black" points="1462.47,-750.87 1458.97,-740.87 1455.47,-750.87 1462.47,-750.87"/>
</g>
<!-- n8 -->
<g id="node14" class="node">
<title>n8</title>
<ellipse fill="#BEDA48" stroke="black" cx="1102.97" cy="-592.24" rx="190.84" ry="37.45"/>
<text text-anchor="middle" x="1102.97" y="-603.54" font-family="Times,serif" font-size="14.00">la</text>
<text text-anchor="middle" x="1102.97" y="-588.54" font-family="Times,serif" font-size="14.00">da0fs0 (det)</text>
<text text-anchor="middle" x="1102.97" y="-573.54" font-family="Times,serif" font-size="14.00">rep=no, t=yes, r=no, m=yes, c=no</text>
</g>
<!-- n9&#45;&gt;n8 -->
<g id="edge13" class="edge">
<title>n9&#45;&gt;n8</title>
<path fill="none" stroke="black" d="M1357.91,-671.27C1312.9,-657.49 1259.77,-641.23 1213.7,-627.13"/>
<polygon fill="black" stroke="black" points="1214.56,-623.74 1203.98,-624.16 1212.51,-630.43 1214.56,-623.74"/>
</g>
<!-- n10 -->
<g id="node15" class="node">
<title>n10</title>
<ellipse fill="#BEDA48" stroke="black" cx="1502.97" cy="-592.24" rx="190.84" ry="37.45"/>
<text text-anchor="middle" x="1502.97" y="-603.54" font-family="Times,serif" font-size="14.00">de</text>
<text text-anchor="middle" x="1502.97" y="-588.54" font-family="Times,serif" font-size="14.00">sps00 (prepn)</text>
<text text-anchor="middle" x="1502.97" y="-573.54" font-family="Times,serif" font-size="14.00">rep=no, t=yes, r=no, m=yes, c=no</text>
</g>
<!-- n9&#45;&gt;n10 -->
<g id="edge14" class="edge">
<title>n9&#45;&gt;n10</title>
<path fill="none" stroke="black" d="M1473.74,-665.61C1477.15,-657.17 1480.82,-648.08 1484.37,-639.29"/>
<polygon fill="black" stroke="black" points="1487.66,-640.5 1488.16,-629.92 1481.17,-637.88 1487.66,-640.5"/>
</g>
<!-- n11 -->
<g id="node16" class="node">
<title>n11</title>
<ellipse fill="#BEDA48" stroke="black" cx="1302.97" cy="-481.29" rx="190.84" ry="37.45"/>
<text text-anchor="middle" x="1302.97" y="-492.59" font-family="Times,serif" font-size="14.00">Roses</text>
<text text-anchor="middle" x="1302.97" y="-477.59" font-family="Times,serif" font-size="14.00">np00000 (pobj)</text>
<text text-anchor="middle" x="1302.97" y="-462.59" font-family="Times,serif" font-size="14.00">rep=no, t=yes, r=no, m=yes, c=no</text>
</g>
<!-- n10&#45;&gt;n11 -->
<g id="edge15" class="edge">
<title>n10&#45;&gt;n11</title>
<path fill="none" stroke="black" d="M1439.69,-556.77C1419.16,-545.59 1396.23,-533.1 1375.11,-521.59"/>
<polygon fill="black" stroke="black" points="1376.64,-518.44 1366.18,-516.73 1373.29,-524.58 1376.64,-518.44"/>
</g>
<!-- n13 -->
<g id="node17" class="node">
<title>n13</title>
<ellipse fill="#BEDA48" stroke="black" cx="1702.97" cy="-481.29" rx="190.84" ry="37.45"/>
<text text-anchor="middle" x="1702.97" y="-492.59" font-family="Times,serif" font-size="14.00">Alt</text>
<text text-anchor="middle" x="1702.97" y="-477.59" font-family="Times,serif" font-size="14.00">y (pobj)</text>
<text text-anchor="middle" x="1702.97" y="-462.59" font-family="Times,serif" font-size="14.00">rep=no, t=yes, r=no, m=yes, c=no</text>
</g>
<!-- n10&#45;&gt;n13 -->
<g id="edge16" class="edge">
<title>n10&#45;&gt;n13</title>
<path fill="none" stroke="black" d="M1566.25,-556.77C1586.78,-545.59 1609.7,-533.1 1630.83,-521.59"/>
<polygon fill="black" stroke="black" points="1632.65,-524.58 1639.76,-516.73 1629.3,-518.44 1632.65,-524.58"/>
</g>
<!-- n12 -->
<g id="node18" class="node">
<title>n12</title>
<ellipse fill="#BEDA48" stroke="black" cx="1302.97" cy="-370.34" rx="190.84" ry="37.45"/>
<text text-anchor="middle" x="1302.97" y="-381.64" font-family="Times,serif" font-size="14.00">(</text>
<text text-anchor="middle" x="1302.97" y="-366.64" font-family="Times,serif" font-size="14.00">fpa (punct)</text>
<text text-anchor="middle" x="1302.97" y="-351.64" font-family="Times,serif" font-size="14.00">rep=no, t=yes, r=no, m=yes, c=no</text>
</g>
<!-- n13&#45;&gt;n12 -->
<g id="edge17" class="edge">
<title>n13&#45;&gt;n12</title>
<path fill="none" stroke="black" d="M1593.67,-450.52C1540.53,-436.04 1476.56,-418.62 1422.17,-403.81"/>
<polygon fill="black" stroke="black" points="1423.05,-400.42 1412.49,-401.17 1421.21,-407.17 1423.05,-400.42"/>
</g>
<!-- n14 -->
<g id="node19" class="node">
<title>n14</title>
<ellipse fill="#BEDA48" stroke="black" cx="1702.97" cy="-370.34" rx="190.84" ry="37.45"/>
<text text-anchor="middle" x="1702.97" y="-381.64" font-family="Times,serif" font-size="14.00">Empordà</text>
<text text-anchor="middle" x="1702.97" y="-366.64" font-family="Times,serif" font-size="14.00">np00000 (dep)</text>
<text text-anchor="middle" x="1702.97" y="-351.64" font-family="Times,serif" font-size="14.00">rep=no, t=yes, r=no, m=yes, c=no</text>
</g>
<!-- n13&#45;&gt;n14 -->
<g id="edge18" class="edge">
<title>n13&#45;&gt;n14</title>
<path fill="none" stroke="black" d="M1702.97,-443.71C1702.97,-435.53 1702.97,-426.75 1702.97,-418.23"/>
<polygon fill="black" stroke="black" points="1706.47,-418.01 1702.97,-408.01 1699.47,-418.01 1706.47,-418.01"/>
</g>
<!-- n15 -->
<g id="node20" class="node">
<title>n15</title>
<ellipse fill="#BEDA48" stroke="black" cx="2102.97" cy="-370.34" rx="190.84" ry="37.45"/>
<text text-anchor="middle" x="2102.97" y="-381.64" font-family="Times,serif" font-size="14.00">)</text>
<text text-anchor="middle" x="2102.97" y="-366.64" font-family="Times,serif" font-size="14.00">fpt (punct)</text>
<text text-anchor="middle" x="2102.97" y="-351.64" font-family="Times,serif" font-size="14.00">rep=no, t=yes, r=no, m=yes, c=no</text>
</g>
<!-- n13&#45;&gt;n15 -->
<g id="edge19" class="edge">
<title>n13&#45;&gt;n15</title>
<path fill="none" stroke="black" d="M1812.27,-450.52C1865.41,-436.04 1929.38,-418.62 1983.76,-403.81"/>
<polygon fill="black" stroke="black" points="1984.72,-407.17 1993.45,-401.17 1982.88,-400.42 1984.72,-407.17"/>
</g>
<!-- n19 -->
<g id="node22" class="node">
<title>n19</title>
<ellipse fill="#DA79E8" stroke="black" cx="2111.97" cy="-703.2" rx="190.84" ry="37.45"/>
<text text-anchor="middle" x="2111.97" y="-714.5" font-family="Times,serif" font-size="14.00">la</text>
<text text-anchor="middle" x="2111.97" y="-699.5" font-family="Times,serif" font-size="14.00">da0fs0 (det)</text>
<text text-anchor="middle" x="2111.97" y="-684.5" font-family="Times,serif" font-size="14.00">rep=no, t=no, r=yes, m=yes, c=no</text>
</g>
<!-- n20&#45;&gt;n19 -->
<g id="edge21" class="edge">
<title>n20&#45;&gt;n19</title>
<path fill="none" stroke="black" d="M2111.97,-776.57C2111.97,-768.39 2111.97,-759.61 2111.97,-751.09"/>
<polygon fill="black" stroke="black" points="2115.47,-750.87 2111.97,-740.87 2108.47,-750.87 2115.47,-750.87"/>
</g>
<!-- n23 -->
<g id="node24" class="node">
<title>n23</title>
<ellipse fill="#DA79E8" stroke="black" cx="2511.97" cy="-703.2" rx="190.84" ry="37.45"/>
<text text-anchor="middle" x="2511.97" y="-714.5" font-family="Times,serif" font-size="14.00">de</text>
<text text-anchor="middle" x="2511.97" y="-699.5" font-family="Times,serif" font-size="14.00">sps00 (prepv)</text>
<text text-anchor="middle" x="2511.97" y="-684.5" font-family="Times,serif" font-size="14.00">rep=no, t=no, r=yes, m=yes, c=no</text>
</g>
<!-- n22&#45;&gt;n23 -->
<g id="edge23" class="edge">
<title>n22&#45;&gt;n23</title>
<path fill="none" stroke="black" d="M2511.97,-776.57C2511.97,-768.39 2511.97,-759.61 2511.97,-751.09"/>
<polygon fill="black" stroke="black" points="2515.47,-750.87 2511.97,-740.87 2508.47,-750.87 2515.47,-750.87"/>
</g>
<!-- n27 -->
<g id="node25" class="node">
<title>n27</title>
<ellipse fill="#DA79E8" stroke="black" cx="3116.97" cy="-703.2" rx="190.84" ry="37.45"/>
<text text-anchor="middle" x="3116.97" y="-714.5" font-family="Times,serif" font-size="14.00">a</text>
<text text-anchor="middle" x="3116.97" y="-699.5" font-family="Times,serif" font-size="14.00">sps00 (dobj)</text>
<text text-anchor="middle" x="3116.97" y="-684.5" font-family="Times,serif" font-size="14.00">rep=no, t=no, r=yes, m=yes, c=no</text>
</g>
<!-- n22&#45;&gt;n27 -->
<g id="edge24" class="edge">
<title>n22&#45;&gt;n27</title>
<path fill="none" stroke="black" d="M2650.39,-788.22C2745.49,-771.1 2871.6,-748.38 2968.74,-730.89"/>
<polygon fill="black" stroke="black" points="2969.42,-734.32 2978.65,-729.11 2968.18,-727.43 2969.42,-734.32"/>
</g>
<!-- n24 -->
<g id="node26" class="node">
<title>n24</title>
<ellipse fill="#DA79E8" stroke="black" cx="2084.97" cy="-592.24" rx="195.74" ry="37.45"/>
<text text-anchor="middle" x="2084.97" y="-603.54" font-family="Times,serif" font-size="14.00">trabajo</text>
<text text-anchor="middle" x="2084.97" y="-588.54" font-family="Times,serif" font-size="14.00">ncms000 (pobj)</text>
<text text-anchor="middle" x="2084.97" y="-573.54" font-family="Times,serif" font-size="14.00">rep=no, t=no, r=yes, m=yes, c=yes</text>
</g>
<!-- n23&#45;&gt;n24 -->
<g id="edge25" class="edge">
<title>n23&#45;&gt;n24</title>
<path fill="none" stroke="black" d="M2397.82,-673.07C2339.9,-658.29 2269.43,-640.31 2210.04,-625.16"/>
<polygon fill="black" stroke="black" points="2210.78,-621.73 2200.23,-622.65 2209.05,-628.52 2210.78,-621.73"/>
</g>
<!-- n25 -->
<g id="node27" class="node">
<title>n25</title>
<ellipse fill="#DA79E8" stroke="black" cx="2489.97" cy="-592.24" rx="190.84" ry="37.45"/>
<text text-anchor="middle" x="2489.97" y="-603.54" font-family="Times,serif" font-size="14.00">y</text>
<text text-anchor="middle" x="2489.97" y="-588.54" font-family="Times,serif" font-size="14.00">cc (coord_fixed)</text>
<text text-anchor="middle" x="2489.97" y="-573.54" font-family="Times,serif" font-size="14.00">rep=no, t=no, r=yes, m=yes, c=no</text>
</g>
<!-- n23&#45;&gt;n25 -->
<g id="edge26" class="edge">
<title>n23&#45;&gt;n25</title>
<path fill="none" stroke="black" d="M2504.58,-665.61C2502.91,-657.35 2501.12,-648.47 2499.38,-639.85"/>
<polygon fill="black" stroke="black" points="2502.78,-639.02 2497.37,-629.92 2495.92,-640.41 2502.78,-639.02"/>
</g>
<!-- n26 -->
<g id="node28" class="node">
<title>n26</title>
<ellipse fill="#DA79E8" stroke="black" cx="2894.97" cy="-592.24" rx="195.74" ry="37.45"/>
<text text-anchor="middle" x="2894.97" y="-603.54" font-family="Times,serif" font-size="14.00">sueldo</text>
<text text-anchor="middle" x="2894.97" y="-588.54" font-family="Times,serif" font-size="14.00">ncms000 (pobj)</text>
<text text-anchor="middle" x="2894.97" y="-573.54" font-family="Times,serif" font-size="14.00">rep=no, t=no, r=yes, m=yes, c=yes</text>
</g>
<!-- n23&#45;&gt;n26 -->
<g id="edge27" class="edge">
<title>n23&#45;&gt;n26</title>
<path fill="none" stroke="black" d="M2618.15,-671.99C2667.85,-657.85 2727.2,-640.97 2778.17,-626.47"/>
<polygon fill="black" stroke="black" points="2779.26,-629.8 2787.92,-623.7 2777.34,-623.07 2779.26,-629.8"/>
</g>
<!-- n29 -->
<g id="node29" class="node">
<title>n29</title>
<ellipse fill="#DA79E8" stroke="black" cx="3299.97" cy="-592.24" rx="190.84" ry="37.45"/>
<text text-anchor="middle" x="3299.97" y="-603.54" font-family="Times,serif" font-size="14.00">agentes</text>
<text text-anchor="middle" x="3299.97" y="-588.54" font-family="Times,serif" font-size="14.00">nccp000 (pobj)</text>
<text text-anchor="middle" x="3299.97" y="-573.54" font-family="Times,serif" font-size="14.00">rep=no, t=no, r=yes, m=yes, c=no</text>
</g>
<!-- n27&#45;&gt;n29 -->
<g id="edge28" class="edge">
<title>n27&#45;&gt;n29</title>
<path fill="none" stroke="black" d="M3175.37,-667.42C3193.62,-656.56 3213.88,-644.5 3232.68,-633.3"/>
<polygon fill="black" stroke="black" points="3234.69,-636.18 3241.49,-628.06 3231.11,-630.17 3234.69,-636.18"/>
</g>
<!-- n28 -->
<g id="node30" class="node">
<title>n28</title>
<ellipse fill="#DA79E8" stroke="black" cx="2899.97" cy="-481.29" rx="190.84" ry="37.45"/>
<text text-anchor="middle" x="2899.97" y="-492.59" font-family="Times,serif" font-size="14.00">ocho</text>
<text text-anchor="middle" x="2899.97" y="-477.59" font-family="Times,serif" font-size="14.00">dn0cp0 (det)</text>
<text text-anchor="middle" x="2899.97" y="-462.59" font-family="Times,serif" font-size="14.00">rep=no, t=no, r=yes, m=yes, c=no</text>
</g>
<!-- n29&#45;&gt;n28 -->
<g id="edge29" class="edge">
<title>n29&#45;&gt;n28</title>
<path fill="none" stroke="black" d="M3190.67,-561.47C3137.53,-547 3073.56,-529.57 3019.17,-514.76"/>
<polygon fill="black" stroke="black" points="3020.05,-511.37 3009.49,-512.12 3018.21,-518.13 3020.05,-511.37"/>
</g>
<!-- n30 -->
<g id="node31" class="node">
<title>n30</title>
<ellipse fill="#DA79E8" stroke="black" cx="3299.97" cy="-481.29" rx="190.84" ry="37.45"/>
<text text-anchor="middle" x="3299.97" y="-492.59" font-family="Times,serif" font-size="14.00">,</text>
<text text-anchor="middle" x="3299.97" y="-477.59" font-family="Times,serif" font-size="14.00">fc (punct)</text>
<text text-anchor="middle" x="3299.97" y="-462.59" font-family="Times,serif" font-size="14.00">rep=no, t=no, r=yes, m=yes, c=no</text>
</g>
<!-- n29&#45;&gt;n30 -->
<g id="edge30" class="edge">
<title>n29&#45;&gt;n30</title>
<path fill="none" stroke="black" d="M3299.97,-554.66C3299.97,-546.49 3299.97,-537.71 3299.97,-529.18"/>
<polygon fill="black" stroke="black" points="3303.47,-528.96 3299.97,-518.96 3296.47,-528.96 3303.47,-528.96"/>
</g>
<!-- n36 -->
<g id="node32" class="node">
<title>n36</title>
<ellipse fill="#DA79E8" stroke="black" cx="3699.97" cy="-481.29" rx="190.84" ry="37.45"/>
<text text-anchor="middle" x="3699.97" y="-492.59" font-family="Times,serif" font-size="14.00">reincorporaron</text>
<text text-anchor="middle" x="3699.97" y="-477.59" font-family="Times,serif" font-size="14.00">vmis3p0 (dep)</text>
<text text-anchor="middle" x="3699.97" y="-462.59" font-family="Times,serif" font-size="14.00">rep=no, t=no, r=yes, m=yes, c=no</text>
</g>
<!-- n29&#45;&gt;n36 -->
<g id="edge31" class="edge">
<title>n29&#45;&gt;n36</title>
<path fill="none" stroke="black" d="M3409.27,-561.47C3462.41,-547 3526.38,-529.57 3580.76,-514.76"/>
<polygon fill="black" stroke="black" points="3581.72,-518.13 3590.45,-512.12 3579.88,-511.37 3581.72,-518.13"/>
</g>
<!-- n31 -->
<g id="node33" class="node">
<title>n31</title>
<ellipse fill="#DA79E8" stroke="black" cx="3299.97" cy="-370.34" rx="190.84" ry="37.45"/>
<text text-anchor="middle" x="3299.97" y="-381.64" font-family="Times,serif" font-size="14.00">siete</text>
<text text-anchor="middle" x="3299.97" y="-366.64" font-family="Times,serif" font-size="14.00">pn0cp000 (nsubj)</text>
<text text-anchor="middle" x="3299.97" y="-351.64" font-family="Times,serif" font-size="14.00">rep=no, t=no, r=yes, m=yes, c=no</text>
</g>
<!-- n36&#45;&gt;n31 -->
<g id="edge32" class="edge">
<title>n36&#45;&gt;n31</title>
<path fill="none" stroke="black" d="M3590.67,-450.52C3537.53,-436.04 3473.56,-418.62 3419.17,-403.81"/>
<polygon fill="black" stroke="black" points="3420.05,-400.42 3409.49,-401.17 3418.21,-407.17 3420.05,-400.42"/>
</g>
<!-- n35 -->
<g id="node34" class="node">
<title>n35</title>
<ellipse fill="#DA79E8" stroke="black" cx="3699.97" cy="-370.34" rx="190.84" ry="37.45"/>
<text text-anchor="middle" x="3699.97" y="-381.64" font-family="Times,serif" font-size="14.00">se</text>
<text text-anchor="middle" x="3699.97" y="-366.64" font-family="Times,serif" font-size="14.00">p0300000 (reflec)</text>
<text text-anchor="middle" x="3699.97" y="-351.64" font-family="Times,serif" font-size="14.00">rep=no, t=no, r=yes, m=yes, c=no</text>
</g>
<!-- n36&#45;&gt;n35 -->
<g id="edge33" class="edge">
<title>n36&#45;&gt;n35</title>
<path fill="none" stroke="black" d="M3699.97,-443.71C3699.97,-435.53 3699.97,-426.75 3699.97,-418.23"/>
<polygon fill="black" stroke="black" points="3703.47,-418.01 3699.97,-408.01 3696.47,-418.01 3703.47,-418.01"/>
</g>
<!-- n37 -->
<g id="node35" class="node">
<title>n37</title>
<ellipse fill="#DA79E8" stroke="black" cx="4099.97" cy="-370.34" rx="190.84" ry="37.45"/>
<text text-anchor="middle" x="4099.97" y="-381.64" font-family="Times,serif" font-size="14.00">días</text>
<text text-anchor="middle" x="4099.97" y="-366.64" font-family="Times,serif" font-size="14.00">ncmp000 (tmod)</text>
<text text-anchor="middle" x="4099.97" y="-351.64" font-family="Times,serif" font-size="14.00">rep=no, t=no, r=yes, m=yes, c=no</text>
</g>
<!-- n36&#45;&gt;n37 -->
<g id="edge34" class="edge">
<title>n36&#45;&gt;n37</title>
<path fill="none" stroke="black" d="M3809.27,-450.52C3862.41,-436.04 3926.38,-418.62 3980.76,-403.81"/>
<polygon fill="black" stroke="black" points="3981.72,-407.17 3990.45,-401.17 3979.88,-400.42 3981.72,-407.17"/>
</g>
<!-- n32 -->
<g id="node36" class="node">
<title>n32</title>
<ellipse fill="#DA79E8" stroke="black" cx="3299.97" cy="-259.38" rx="190.84" ry="37.45"/>
<text text-anchor="middle" x="3299.97" y="-270.68" font-family="Times,serif" font-size="14.00">de</text>
<text text-anchor="middle" x="3299.97" y="-255.68" font-family="Times,serif" font-size="14.00">sps00 (prepn)</text>
<text text-anchor="middle" x="3299.97" y="-240.68" font-family="Times,serif" font-size="14.00">rep=no, t=no, r=yes, m=yes, c=no</text>
</g>
<!-- n31&#45;&gt;n32 -->
<g id="edge35" class="edge">
<title>n31&#45;&gt;n32</title>
<path fill="none" stroke="black" d="M3299.97,-332.75C3299.97,-324.58 3299.97,-315.8 3299.97,-307.27"/>
<polygon fill="black" stroke="black" points="3303.47,-307.06 3299.97,-297.06 3296.47,-307.06 3303.47,-307.06"/>
</g>
<!-- n38 -->
<g id="node39" class="node">
<title>n38</title>
<ellipse fill="#DA79E8" stroke="black" cx="4099.97" cy="-259.38" rx="190.84" ry="37.45"/>
<text text-anchor="middle" x="4099.97" y="-270.68" font-family="Times,serif" font-size="14.00">después</text>
<text text-anchor="middle" x="4099.97" y="-255.68" font-family="Times,serif" font-size="14.00">rg (advmod)</text>
<text text-anchor="middle" x="4099.97" y="-240.68" font-family="Times,serif" font-size="14.00">rep=no, t=no, r=yes, m=yes, c=no</text>
</g>
<!-- n37&#45;&gt;n38 -->
<g id="edge38" class="edge">
<title>n37&#45;&gt;n38</title>
<path fill="none" stroke="black" d="M4099.97,-332.75C4099.97,-324.58 4099.97,-315.8 4099.97,-307.27"/>
<polygon fill="black" stroke="black" points="4103.47,-307.06 4099.97,-297.06 4096.47,-307.06 4103.47,-307.06"/>
</g>
<!-- n34 -->
<g id="node37" class="node">
<title>n34</title>
<ellipse fill="#DA79E8" stroke="black" cx="3299.97" cy="-148.43" rx="190.84" ry="37.45"/>
<text text-anchor="middle" x="3299.97" y="-159.73" font-family="Times,serif" font-size="14.00">cuales</text>
<text text-anchor="middle" x="3299.97" y="-144.73" font-family="Times,serif" font-size="14.00">pr0cp000 (pobj)</text>
<text text-anchor="middle" x="3299.97" y="-129.73" font-family="Times,serif" font-size="14.00">rep=no, t=no, r=yes, m=yes, c=no</text>
</g>
<!-- n32&#45;&gt;n34 -->
<g id="edge36" class="edge">
<title>n32&#45;&gt;n34</title>
<path fill="none" stroke="black" d="M3299.97,-221.8C3299.97,-213.63 3299.97,-204.85 3299.97,-196.32"/>
<polygon fill="black" stroke="black" points="3303.47,-196.1 3299.97,-186.1 3296.47,-196.1 3303.47,-196.1"/>
</g>
<!-- n33 -->
<g id="node38" class="node">
<title>n33</title>
<ellipse fill="#DA79E8" stroke="black" cx="3299.97" cy="-37.48" rx="190.84" ry="37.45"/>
<text text-anchor="middle" x="3299.97" y="-48.78" font-family="Times,serif" font-size="14.00">los</text>
<text text-anchor="middle" x="3299.97" y="-33.78" font-family="Times,serif" font-size="14.00">da0mp0 (det)</text>
<text text-anchor="middle" x="3299.97" y="-18.78" font-family="Times,serif" font-size="14.00">rep=no, t=no, r=yes, m=yes, c=no</text>
</g>
<!-- n34&#45;&gt;n33 -->
<g id="edge37" class="edge">
<title>n34&#45;&gt;n33</title>
<path fill="none" stroke="black" d="M3299.97,-110.85C3299.97,-102.67 3299.97,-93.89 3299.97,-85.37"/>
<polygon fill="black" stroke="black" points="3303.47,-85.15 3299.97,-75.15 3296.47,-85.15 3303.47,-85.15"/>
</g>
</g>
</svg>
