<?xml version="1.0" encoding="UTF-8" standalone="no"?>
<!DOCTYPE svg PUBLIC "-//W3C//DTD SVG 1.1//EN"
 "http://www.w3.org/Graphics/SVG/1.1/DTD/svg11.dtd">
<!-- Generated by graphviz version 2.43.0 (0)
 -->
<!-- Title: tree Pages: 1 -->
<svg width="3910pt" height="638pt"
 viewBox="0.00 0.00 3909.94 637.72" xmlns="http://www.w3.org/2000/svg" xmlns:xlink="http://www.w3.org/1999/xlink">
<g id="graph0" class="graph" transform="scale(1 1) rotate(0) translate(4 633.72)">
<title>tree</title>
<polygon fill="white" stroke="transparent" points="-4,4 -4,-633.72 3905.94,-633.72 3905.94,4 -4,4"/>
<!-- n11 -->
<g id="node1" class="node">
<title>n11</title>
<ellipse fill="none" stroke="black" cx="967.97" cy="-592.24" rx="181.95" ry="37.45"/>
<text text-anchor="middle" x="967.97" y="-603.54" font-family="Times,serif" font-size="14.00">señala</text>
<text text-anchor="middle" x="967.97" y="-588.54" font-family="Times,serif" font-size="14.00">vmip3s0 (root)</text>
<text text-anchor="middle" x="967.97" y="-573.54" font-family="Times,serif" font-size="14.00">rep=no, t=no, r=no, m=no, c=no</text>
</g>
<!-- n1 -->
<g id="node2" class="node">
<title>n1</title>
<ellipse fill="none" stroke="black" cx="196.97" cy="-481.29" rx="181.95" ry="37.45"/>
<text text-anchor="middle" x="196.97" y="-492.59" font-family="Times,serif" font-size="14.00">En</text>
<text text-anchor="middle" x="196.97" y="-477.59" font-family="Times,serif" font-size="14.00">sps00 (prepv)</text>
<text text-anchor="middle" x="196.97" y="-462.59" font-family="Times,serif" font-size="14.00">rep=no, t=no, r=no, m=no, c=no</text>
</g>
<!-- n11&#45;&gt;n1 -->
<g id="edge1" class="edge">
<title>n11&#45;&gt;n1</title>
<path fill="none" stroke="black" d="M809.34,-573.95C693.22,-560.65 531.98,-540.86 390.97,-518.77 373.18,-515.98 354.51,-512.8 336.08,-509.5"/>
<polygon fill="black" stroke="black" points="336.64,-506.05 326.18,-507.72 335.4,-512.94 336.64,-506.05"/>
</g>
<!-- n4 -->
<g id="node3" class="node">
<title>n4</title>
<ellipse fill="none" stroke="black" cx="581.97" cy="-481.29" rx="181.95" ry="37.45"/>
<text text-anchor="middle" x="581.97" y="-492.59" font-family="Times,serif" font-size="14.00">,</text>
<text text-anchor="middle" x="581.97" y="-477.59" font-family="Times,serif" font-size="14.00">fc (punct)</text>
<text text-anchor="middle" x="581.97" y="-462.59" font-family="Times,serif" font-size="14.00">rep=no, t=no, r=no, m=no, c=no</text>
</g>
<!-- n11&#45;&gt;n4 -->
<g id="edge2" class="edge">
<title>n11&#45;&gt;n4</title>
<path fill="none" stroke="black" d="M863,-561.62C811.51,-547.08 749.38,-529.54 696.65,-514.66"/>
<polygon fill="black" stroke="black" points="697.49,-511.26 686.91,-511.91 695.59,-518 697.49,-511.26"/>
</g>
<!-- n6 -->
<g id="node4" class="node">
<title>n6</title>
<ellipse fill="none" stroke="black" cx="967.97" cy="-481.29" rx="185.94" ry="37.45"/>
<text text-anchor="middle" x="967.97" y="-492.59" font-family="Times,serif" font-size="14.00">magistrado</text>
<text text-anchor="middle" x="967.97" y="-477.59" font-family="Times,serif" font-size="14.00">ncms000 (nsubj)</text>
<text text-anchor="middle" x="967.97" y="-462.59" font-family="Times,serif" font-size="14.00">rep=yes, t=no, r=no, m=no, c=no</text>
</g>
<!-- n11&#45;&gt;n6 -->
<g id="edge3" class="edge">
<title>n11&#45;&gt;n6</title>
<path fill="none" stroke="black" d="M967.97,-554.66C967.97,-546.49 967.97,-537.71 967.97,-529.18"/>
<polygon fill="black" stroke="black" points="971.47,-528.96 967.97,-518.96 964.47,-528.96 971.47,-528.96"/>
</g>
<!-- n12 -->
<g id="node5" class="node">
<title>n12</title>
<ellipse fill="none" stroke="black" cx="1570.97" cy="-481.29" rx="181.95" ry="37.45"/>
<text text-anchor="middle" x="1570.97" y="-492.59" font-family="Times,serif" font-size="14.00">que</text>
<text text-anchor="middle" x="1570.97" y="-477.59" font-family="Times,serif" font-size="14.00">cs (dobj)</text>
<text text-anchor="middle" x="1570.97" y="-462.59" font-family="Times,serif" font-size="14.00">rep=no, t=no, r=no, m=no, c=no</text>
</g>
<!-- n11&#45;&gt;n12 -->
<g id="edge4" class="edge">
<title>n11&#45;&gt;n12</title>
<path fill="none" stroke="black" d="M1102.54,-566.93C1198.77,-549.54 1328.13,-526.17 1426.52,-508.39"/>
<polygon fill="black" stroke="black" points="1427.33,-511.8 1436.55,-506.58 1426.08,-504.91 1427.33,-511.8"/>
</g>
<!-- n32 -->
<g id="node6" class="node">
<title>n32</title>
<ellipse fill="none" stroke="black" cx="1951.97" cy="-481.29" rx="181.95" ry="37.45"/>
<text text-anchor="middle" x="1951.97" y="-492.59" font-family="Times,serif" font-size="14.00">.</text>
<text text-anchor="middle" x="1951.97" y="-477.59" font-family="Times,serif" font-size="14.00">fp (punct)</text>
<text text-anchor="middle" x="1951.97" y="-462.59" font-family="Times,serif" font-size="14.00">rep=no, t=no, r=no, m=no, c=no</text>
</g>
<!-- n11&#45;&gt;n32 -->
<g id="edge5" class="edge">
<title>n11&#45;&gt;n32</title>
<path fill="none" stroke="black" d="M1140.46,-580.43C1301.68,-569.15 1548.84,-548.88 1761.97,-518.77 1779.44,-516.3 1797.74,-513.31 1815.79,-510.11"/>
<polygon fill="black" stroke="black" points="1816.56,-513.53 1825.79,-508.32 1815.32,-506.64 1816.56,-513.53"/>
</g>
<!-- n3 -->
<g id="node7" class="node">
<title>n3</title>
<ellipse fill="none" stroke="black" cx="190.97" cy="-370.34" rx="181.95" ry="37.45"/>
<text text-anchor="middle" x="190.97" y="-381.64" font-family="Times,serif" font-size="14.00">justificación</text>
<text text-anchor="middle" x="190.97" y="-366.64" font-family="Times,serif" font-size="14.00">ncfs000 (pobj)</text>
<text text-anchor="middle" x="190.97" y="-351.64" font-family="Times,serif" font-size="14.00">rep=no, t=no, r=no, m=no, c=no</text>
</g>
<!-- n1&#45;&gt;n3 -->
<g id="edge6" class="edge">
<title>n1&#45;&gt;n3</title>
<path fill="none" stroke="black" d="M194.95,-443.71C194.5,-435.53 194.02,-426.75 193.55,-418.23"/>
<polygon fill="black" stroke="black" points="197.03,-417.8 192.99,-408.01 190.04,-418.19 197.03,-417.8"/>
</g>
<!-- n5 -->
<g id="node9" class="node">
<title>n5</title>
<ellipse fill="none" stroke="black" cx="577.97" cy="-370.34" rx="185.94" ry="37.45"/>
<text text-anchor="middle" x="577.97" y="-381.64" font-family="Times,serif" font-size="14.00">el</text>
<text text-anchor="middle" x="577.97" y="-366.64" font-family="Times,serif" font-size="14.00">da0ms0 (det)</text>
<text text-anchor="middle" x="577.97" y="-351.64" font-family="Times,serif" font-size="14.00">rep=yes, t=no, r=no, m=no, c=no</text>
</g>
<!-- n6&#45;&gt;n5 -->
<g id="edge8" class="edge">
<title>n6&#45;&gt;n5</title>
<path fill="none" stroke="black" d="M861.4,-450.52C809.59,-436.05 747.23,-418.62 694.2,-403.81"/>
<polygon fill="black" stroke="black" points="694.98,-400.39 684.41,-401.07 693.1,-407.13 694.98,-400.39"/>
</g>
<!-- n7 -->
<g id="node10" class="node">
<title>n7</title>
<ellipse fill="none" stroke="black" cx="967.97" cy="-370.34" rx="185.94" ry="37.45"/>
<text text-anchor="middle" x="967.97" y="-381.64" font-family="Times,serif" font-size="14.00">de</text>
<text text-anchor="middle" x="967.97" y="-366.64" font-family="Times,serif" font-size="14.00">sps00 (prepn)</text>
<text text-anchor="middle" x="967.97" y="-351.64" font-family="Times,serif" font-size="14.00">rep=yes, t=no, r=no, m=no, c=no</text>
</g>
<!-- n6&#45;&gt;n7 -->
<g id="edge9" class="edge">
<title>n6&#45;&gt;n7</title>
<path fill="none" stroke="black" d="M967.97,-443.71C967.97,-435.53 967.97,-426.75 967.97,-418.23"/>
<polygon fill="black" stroke="black" points="971.47,-418.01 967.97,-408.01 964.47,-418.01 971.47,-418.01"/>
</g>
<!-- n18 -->
<g id="node14" class="node">
<title>n18</title>
<ellipse fill="#98D2A5" stroke="black" cx="1368.97" cy="-370.34" rx="195.74" ry="37.45"/>
<text text-anchor="middle" x="1368.97" y="-381.64" font-family="Times,serif" font-size="14.00">especifica</text>
<text text-anchor="middle" x="1368.97" y="-366.64" font-family="Times,serif" font-size="14.00">vmip3s0 (cobj)</text>
<text text-anchor="middle" x="1368.97" y="-351.64" font-family="Times,serif" font-size="14.00">rep=no, t=no, r=yes, m=yes, c=yes</text>
</g>
<!-- n12&#45;&gt;n18 -->
<g id="edge13" class="edge">
<title>n12&#45;&gt;n18</title>
<path fill="none" stroke="black" d="M1507.61,-446.12C1486.86,-434.92 1463.63,-422.39 1442.2,-410.84"/>
<polygon fill="black" stroke="black" points="1443.61,-407.62 1433.15,-405.95 1440.29,-413.78 1443.61,-407.62"/>
</g>
<!-- n21 -->
<g id="node15" class="node">
<title>n21</title>
<ellipse fill="#98D2A5" stroke="black" cx="1773.97" cy="-370.34" rx="190.84" ry="37.45"/>
<text text-anchor="middle" x="1773.97" y="-381.64" font-family="Times,serif" font-size="14.00">delito</text>
<text text-anchor="middle" x="1773.97" y="-366.64" font-family="Times,serif" font-size="14.00">ncms000 (cobj)</text>
<text text-anchor="middle" x="1773.97" y="-351.64" font-family="Times,serif" font-size="14.00">rep=no, t=no, r=no, m=yes, c=yes</text>
</g>
<!-- n12&#45;&gt;n21 -->
<g id="edge14" class="edge">
<title>n12&#45;&gt;n21</title>
<path fill="none" stroke="black" d="M1634.64,-446.12C1655.69,-434.82 1679.28,-422.16 1700.98,-410.51"/>
<polygon fill="black" stroke="black" points="1702.67,-413.58 1709.82,-405.76 1699.36,-407.41 1702.67,-413.58"/>
</g>
<!-- n24 -->
<g id="node16" class="node">
<title>n24</title>
<ellipse fill="#98D2A5" stroke="black" cx="2354.97" cy="-370.34" rx="185.94" ry="37.45"/>
<text text-anchor="middle" x="2354.97" y="-381.64" font-family="Times,serif" font-size="14.00">ni</text>
<text text-anchor="middle" x="2354.97" y="-366.64" font-family="Times,serif" font-size="14.00">cc (coord_fixed)</text>
<text text-anchor="middle" x="2354.97" y="-351.64" font-family="Times,serif" font-size="14.00">rep=no, t=no, r=no, m=yes, c=no</text>
</g>
<!-- n12&#45;&gt;n24 -->
<g id="edge15" class="edge">
<title>n12&#45;&gt;n24</title>
<path fill="none" stroke="black" d="M1698.51,-454.56C1719.34,-450.72 1740.73,-446.99 1760.97,-443.81 1901.84,-421.72 2062.39,-402.49 2181.04,-389.39"/>
<polygon fill="black" stroke="black" points="2181.75,-392.84 2191.3,-388.27 2180.98,-385.88 2181.75,-392.84"/>
</g>
<!-- n26 -->
<g id="node17" class="node">
<title>n26</title>
<ellipse fill="#98D2A5" stroke="black" cx="2935.97" cy="-370.34" rx="190.84" ry="37.45"/>
<text text-anchor="middle" x="2935.97" y="-381.64" font-family="Times,serif" font-size="14.00">indicios</text>
<text text-anchor="middle" x="2935.97" y="-366.64" font-family="Times,serif" font-size="14.00">ncmp000 (cobj)</text>
<text text-anchor="middle" x="2935.97" y="-351.64" font-family="Times,serif" font-size="14.00">rep=no, t=no, r=no, m=yes, c=yes</text>
</g>
<!-- n12&#45;&gt;n26 -->
<g id="edge16" class="edge">
<title>n12&#45;&gt;n26</title>
<path fill="none" stroke="black" d="M1695,-453.82C1716.9,-449.91 1739.54,-446.35 1760.97,-443.81 2109.57,-402.61 2199.79,-432.33 2549.97,-407.81 2618.63,-403.01 2694.02,-396.22 2759.81,-389.8"/>
<polygon fill="black" stroke="black" points="2760.26,-393.28 2769.87,-388.82 2759.57,-386.31 2760.26,-393.28"/>
</g>
<!-- n2 -->
<g id="node8" class="node">
<title>n2</title>
<ellipse fill="none" stroke="black" cx="189.97" cy="-259.38" rx="181.95" ry="37.45"/>
<text text-anchor="middle" x="189.97" y="-270.68" font-family="Times,serif" font-size="14.00">su</text>
<text text-anchor="middle" x="189.97" y="-255.68" font-family="Times,serif" font-size="14.00">dp3cs0 (poss)</text>
<text text-anchor="middle" x="189.97" y="-240.68" font-family="Times,serif" font-size="14.00">rep=no, t=no, r=no, m=no, c=no</text>
</g>
<!-- n3&#45;&gt;n2 -->
<g id="edge7" class="edge">
<title>n3&#45;&gt;n2</title>
<path fill="none" stroke="black" d="M190.63,-332.75C190.56,-324.58 190.48,-315.8 190.4,-307.27"/>
<polygon fill="black" stroke="black" points="193.9,-307.02 190.31,-297.06 186.9,-307.09 193.9,-307.02"/>
</g>
<!-- n9 -->
<g id="node11" class="node">
<title>n9</title>
<ellipse fill="none" stroke="black" cx="575.97" cy="-259.38" rx="185.94" ry="37.45"/>
<text text-anchor="middle" x="575.97" y="-270.68" font-family="Times,serif" font-size="14.00">Audiencia</text>
<text text-anchor="middle" x="575.97" y="-255.68" font-family="Times,serif" font-size="14.00">ncms000 (pobj)</text>
<text text-anchor="middle" x="575.97" y="-240.68" font-family="Times,serif" font-size="14.00">rep=yes, t=no, r=no, m=no, c=no</text>
</g>
<!-- n7&#45;&gt;n9 -->
<g id="edge10" class="edge">
<title>n7&#45;&gt;n9</title>
<path fill="none" stroke="black" d="M861.11,-339.64C809.04,-325.16 746.3,-307.72 692.94,-292.89"/>
<polygon fill="black" stroke="black" points="693.66,-289.46 683.09,-290.16 691.79,-296.21 693.66,-289.46"/>
</g>
<!-- n8 -->
<g id="node12" class="node">
<title>n8</title>
<ellipse fill="none" stroke="black" cx="185.97" cy="-148.43" rx="185.94" ry="37.45"/>
<text text-anchor="middle" x="185.97" y="-159.73" font-family="Times,serif" font-size="14.00">la</text>
<text text-anchor="middle" x="185.97" y="-144.73" font-family="Times,serif" font-size="14.00">da0fs0 (det)</text>
<text text-anchor="middle" x="185.97" y="-129.73" font-family="Times,serif" font-size="14.00">rep=yes, t=no, r=no, m=no, c=no</text>
</g>
<!-- n9&#45;&gt;n8 -->
<g id="edge11" class="edge">
<title>n9&#45;&gt;n8</title>
<path fill="none" stroke="black" d="M469.4,-228.61C417.59,-214.14 355.23,-196.71 302.2,-181.9"/>
<polygon fill="black" stroke="black" points="302.98,-178.49 292.41,-179.17 301.1,-185.23 302.98,-178.49"/>
</g>
<!-- n10 -->
<g id="node13" class="node">
<title>n10</title>
<ellipse fill="none" stroke="black" cx="575.97" cy="-148.43" rx="185.94" ry="37.45"/>
<text text-anchor="middle" x="575.97" y="-159.73" font-family="Times,serif" font-size="14.00">Nacional</text>
<text text-anchor="middle" x="575.97" y="-144.73" font-family="Times,serif" font-size="14.00">aq0ms0 (amod)</text>
<text text-anchor="middle" x="575.97" y="-129.73" font-family="Times,serif" font-size="14.00">rep=yes, t=no, r=no, m=no, c=no</text>
</g>
<!-- n9&#45;&gt;n10 -->
<g id="edge12" class="edge">
<title>n9&#45;&gt;n10</title>
<path fill="none" stroke="black" d="M575.97,-221.8C575.97,-213.63 575.97,-204.85 575.97,-196.32"/>
<polygon fill="black" stroke="black" points="579.47,-196.1 575.97,-186.1 572.47,-196.1 579.47,-196.1"/>
</g>
<!-- n14 -->
<g id="node18" class="node">
<title>n14</title>
<ellipse fill="#98D2A5" stroke="black" cx="970.97" cy="-259.38" rx="190.84" ry="37.45"/>
<text text-anchor="middle" x="970.97" y="-270.68" font-family="Times,serif" font-size="14.00">auto</text>
<text text-anchor="middle" x="970.97" y="-255.68" font-family="Times,serif" font-size="14.00">ncms000 (nsubj)</text>
<text text-anchor="middle" x="970.97" y="-240.68" font-family="Times,serif" font-size="14.00">rep=no, t=yes, r=no, m=yes, c=no</text>
</g>
<!-- n18&#45;&gt;n14 -->
<g id="edge17" class="edge">
<title>n18&#45;&gt;n14</title>
<path fill="none" stroke="black" d="M1259.16,-339.28C1206.63,-324.9 1143.65,-307.66 1089.98,-292.96"/>
<polygon fill="black" stroke="black" points="1090.64,-289.52 1080.07,-290.25 1088.8,-296.27 1090.64,-289.52"/>
</g>
<!-- n17 -->
<g id="node19" class="node">
<title>n17</title>
<ellipse fill="#98D2A5" stroke="black" cx="1370.97" cy="-259.38" rx="190.84" ry="37.45"/>
<text text-anchor="middle" x="1370.97" y="-270.68" font-family="Times,serif" font-size="14.00">no</text>
<text text-anchor="middle" x="1370.97" y="-255.68" font-family="Times,serif" font-size="14.00">rn (neg)</text>
<text text-anchor="middle" x="1370.97" y="-240.68" font-family="Times,serif" font-size="14.00">rep=no, t=no, r=yes, m=yes, c=no</text>
</g>
<!-- n18&#45;&gt;n17 -->
<g id="edge18" class="edge">
<title>n18&#45;&gt;n17</title>
<path fill="none" stroke="black" d="M1369.64,-332.75C1369.79,-324.58 1369.95,-315.8 1370.11,-307.27"/>
<polygon fill="black" stroke="black" points="1373.61,-307.12 1370.3,-297.06 1366.61,-306.99 1373.61,-307.12"/>
</g>
<!-- n20 -->
<g id="node23" class="node">
<title>n20</title>
<ellipse fill="#98D2A5" stroke="black" cx="1765.97" cy="-259.38" rx="185.94" ry="37.45"/>
<text text-anchor="middle" x="1765.97" y="-270.68" font-family="Times,serif" font-size="14.00">el</text>
<text text-anchor="middle" x="1765.97" y="-255.68" font-family="Times,serif" font-size="14.00">da0ms0 (det)</text>
<text text-anchor="middle" x="1765.97" y="-240.68" font-family="Times,serif" font-size="14.00">rep=no, t=no, r=no, m=yes, c=no</text>
</g>
<!-- n21&#45;&gt;n20 -->
<g id="edge22" class="edge">
<title>n21&#45;&gt;n20</title>
<path fill="none" stroke="black" d="M1771.28,-332.75C1770.68,-324.58 1770.04,-315.8 1769.41,-307.27"/>
<polygon fill="black" stroke="black" points="1772.88,-306.77 1768.66,-297.06 1765.9,-307.28 1772.88,-306.77"/>
</g>
<!-- n23 -->
<g id="node24" class="node">
<title>n23</title>
<ellipse fill="#98D2A5" stroke="black" cx="2155.97" cy="-259.38" rx="185.94" ry="37.45"/>
<text text-anchor="middle" x="2155.97" y="-270.68" font-family="Times,serif" font-size="14.00">perseguía</text>
<text text-anchor="middle" x="2155.97" y="-255.68" font-family="Times,serif" font-size="14.00">vmii3s0 (rcmod)</text>
<text text-anchor="middle" x="2155.97" y="-240.68" font-family="Times,serif" font-size="14.00">rep=no, t=no, r=no, m=yes, c=no</text>
</g>
<!-- n21&#45;&gt;n23 -->
<g id="edge23" class="edge">
<title>n21&#45;&gt;n23</title>
<path fill="none" stroke="black" d="M1879.87,-339.13C1929.97,-324.84 1989.88,-307.76 2041.07,-293.15"/>
<polygon fill="black" stroke="black" points="2042.2,-296.47 2050.85,-290.36 2040.28,-289.74 2042.2,-296.47"/>
</g>
<!-- n19 -->
<g id="node26" class="node">
<title>n19</title>
<ellipse fill="#98D2A5" stroke="black" cx="2545.97" cy="-259.38" rx="185.94" ry="37.45"/>
<text text-anchor="middle" x="2545.97" y="-270.68" font-family="Times,serif" font-size="14.00">ni</text>
<text text-anchor="middle" x="2545.97" y="-255.68" font-family="Times,serif" font-size="14.00">cc (coord_fixed)</text>
<text text-anchor="middle" x="2545.97" y="-240.68" font-family="Times,serif" font-size="14.00">rep=no, t=no, r=no, m=yes, c=no</text>
</g>
<!-- n24&#45;&gt;n19 -->
<g id="edge25" class="edge">
<title>n24&#45;&gt;n19</title>
<path fill="none" stroke="black" d="M2415.4,-334.86C2434.82,-323.78 2456.49,-311.42 2476.51,-300.01"/>
<polygon fill="black" stroke="black" points="2478.32,-303 2485.27,-295.01 2474.85,-296.92 2478.32,-303"/>
</g>
<!-- n25 -->
<g id="node27" class="node">
<title>n25</title>
<ellipse fill="#98D2A5" stroke="black" cx="2935.97" cy="-259.38" rx="185.94" ry="37.45"/>
<text text-anchor="middle" x="2935.97" y="-270.68" font-family="Times,serif" font-size="14.00">los</text>
<text text-anchor="middle" x="2935.97" y="-255.68" font-family="Times,serif" font-size="14.00">da0mp0 (det)</text>
<text text-anchor="middle" x="2935.97" y="-240.68" font-family="Times,serif" font-size="14.00">rep=no, t=no, r=no, m=yes, c=no</text>
</g>
<!-- n26&#45;&gt;n25 -->
<g id="edge26" class="edge">
<title>n26&#45;&gt;n25</title>
<path fill="none" stroke="black" d="M2935.97,-332.75C2935.97,-324.58 2935.97,-315.8 2935.97,-307.27"/>
<polygon fill="black" stroke="black" points="2939.47,-307.06 2935.97,-297.06 2932.47,-307.06 2939.47,-307.06"/>
</g>
<!-- n28 -->
<g id="node28" class="node">
<title>n28</title>
<ellipse fill="#98D2A5" stroke="black" cx="3325.97" cy="-259.38" rx="185.94" ry="37.45"/>
<text text-anchor="middle" x="3325.97" y="-270.68" font-family="Times,serif" font-size="14.00">motivaron</text>
<text text-anchor="middle" x="3325.97" y="-255.68" font-family="Times,serif" font-size="14.00">vmis3p0 (rcmod)</text>
<text text-anchor="middle" x="3325.97" y="-240.68" font-family="Times,serif" font-size="14.00">rep=no, t=no, r=no, m=yes, c=no</text>
</g>
<!-- n26&#45;&gt;n28 -->
<g id="edge27" class="edge">
<title>n26&#45;&gt;n28</title>
<path fill="none" stroke="black" d="M3043.57,-339.28C3095.15,-324.87 3157.01,-307.58 3209.67,-292.87"/>
<polygon fill="black" stroke="black" points="3210.7,-296.22 3219.39,-290.16 3208.82,-289.48 3210.7,-296.22"/>
</g>
<!-- n13 -->
<g id="node20" class="node">
<title>n13</title>
<ellipse fill="#98D2A5" stroke="black" cx="970.97" cy="-148.43" rx="190.84" ry="37.45"/>
<text text-anchor="middle" x="970.97" y="-159.73" font-family="Times,serif" font-size="14.00">el</text>
<text text-anchor="middle" x="970.97" y="-144.73" font-family="Times,serif" font-size="14.00">da0ms0 (det)</text>
<text text-anchor="middle" x="970.97" y="-129.73" font-family="Times,serif" font-size="14.00">rep=no, t=yes, r=no, m=yes, c=no</text>
</g>
<!-- n14&#45;&gt;n13 -->
<g id="edge19" class="edge">
<title>n14&#45;&gt;n13</title>
<path fill="none" stroke="black" d="M970.97,-221.8C970.97,-213.63 970.97,-204.85 970.97,-196.32"/>
<polygon fill="black" stroke="black" points="974.47,-196.1 970.97,-186.1 967.47,-196.1 974.47,-196.1"/>
</g>
<!-- n15 -->
<g id="node21" class="node">
<title>n15</title>
<ellipse fill="#98D2A5" stroke="black" cx="1370.97" cy="-148.43" rx="190.84" ry="37.45"/>
<text text-anchor="middle" x="1370.97" y="-159.73" font-family="Times,serif" font-size="14.00">de</text>
<text text-anchor="middle" x="1370.97" y="-144.73" font-family="Times,serif" font-size="14.00">sps00 (prepn)</text>
<text text-anchor="middle" x="1370.97" y="-129.73" font-family="Times,serif" font-size="14.00">rep=no, t=yes, r=no, m=yes, c=no</text>
</g>
<!-- n14&#45;&gt;n15 -->
<g id="edge20" class="edge">
<title>n14&#45;&gt;n15</title>
<path fill="none" stroke="black" d="M1080.27,-228.61C1133.41,-214.14 1197.38,-196.71 1251.76,-181.9"/>
<polygon fill="black" stroke="black" points="1252.72,-185.27 1261.45,-179.26 1250.88,-178.51 1252.72,-185.27"/>
</g>
<!-- n16 -->
<g id="node22" class="node">
<title>n16</title>
<ellipse fill="#98D2A5" stroke="black" cx="1370.97" cy="-37.48" rx="190.84" ry="37.45"/>
<text text-anchor="middle" x="1370.97" y="-48.78" font-family="Times,serif" font-size="14.00">Palacios</text>
<text text-anchor="middle" x="1370.97" y="-33.78" font-family="Times,serif" font-size="14.00">np00000 (pobj)</text>
<text text-anchor="middle" x="1370.97" y="-18.78" font-family="Times,serif" font-size="14.00">rep=no, t=yes, r=no, m=yes, c=no</text>
</g>
<!-- n15&#45;&gt;n16 -->
<g id="edge21" class="edge">
<title>n15&#45;&gt;n16</title>
<path fill="none" stroke="black" d="M1370.97,-110.85C1370.97,-102.67 1370.97,-93.89 1370.97,-85.37"/>
<polygon fill="black" stroke="black" points="1374.47,-85.15 1370.97,-75.15 1367.47,-85.15 1374.47,-85.15"/>
</g>
<!-- n22 -->
<g id="node25" class="node">
<title>n22</title>
<ellipse fill="#98D2A5" stroke="black" cx="2155.97" cy="-148.43" rx="185.94" ry="37.45"/>
<text text-anchor="middle" x="2155.97" y="-159.73" font-family="Times,serif" font-size="14.00">que</text>
<text text-anchor="middle" x="2155.97" y="-144.73" font-family="Times,serif" font-size="14.00">pr0cn000 (dobj)</text>
<text text-anchor="middle" x="2155.97" y="-129.73" font-family="Times,serif" font-size="14.00">rep=no, t=no, r=no, m=yes, c=no</text>
</g>
<!-- n23&#45;&gt;n22 -->
<g id="edge24" class="edge">
<title>n23&#45;&gt;n22</title>
<path fill="none" stroke="black" d="M2155.97,-221.8C2155.97,-213.63 2155.97,-204.85 2155.97,-196.32"/>
<polygon fill="black" stroke="black" points="2159.47,-196.1 2155.97,-186.1 2152.47,-196.1 2159.47,-196.1"/>
</g>
<!-- n27 -->
<g id="node29" class="node">
<title>n27</title>
<ellipse fill="#98D2A5" stroke="black" cx="3130.97" cy="-148.43" rx="185.94" ry="37.45"/>
<text text-anchor="middle" x="3130.97" y="-159.73" font-family="Times,serif" font-size="14.00">que</text>
<text text-anchor="middle" x="3130.97" y="-144.73" font-family="Times,serif" font-size="14.00">pr0cn000 (nsubj)</text>
<text text-anchor="middle" x="3130.97" y="-129.73" font-family="Times,serif" font-size="14.00">rep=no, t=no, r=no, m=yes, c=no</text>
</g>
<!-- n28&#45;&gt;n27 -->
<g id="edge28" class="edge">
<title>n28&#45;&gt;n27</title>
<path fill="none" stroke="black" d="M3264.27,-223.91C3244.34,-212.78 3222.1,-200.35 3201.58,-188.89"/>
<polygon fill="black" stroke="black" points="3203.04,-185.69 3192.6,-183.87 3199.62,-191.8 3203.04,-185.69"/>
</g>
<!-- n30 -->
<g id="node30" class="node">
<title>n30</title>
<ellipse fill="#98D2A5" stroke="black" cx="3520.97" cy="-148.43" rx="185.94" ry="37.45"/>
<text text-anchor="middle" x="3520.97" y="-159.73" font-family="Times,serif" font-size="14.00">intervención</text>
<text text-anchor="middle" x="3520.97" y="-144.73" font-family="Times,serif" font-size="14.00">ncfs000 (dobj)</text>
<text text-anchor="middle" x="3520.97" y="-129.73" font-family="Times,serif" font-size="14.00">rep=no, t=no, r=no, m=yes, c=no</text>
</g>
<!-- n28&#45;&gt;n30 -->
<g id="edge29" class="edge">
<title>n28&#45;&gt;n30</title>
<path fill="none" stroke="black" d="M3387.67,-223.91C3407.59,-212.78 3429.84,-200.35 3450.35,-188.89"/>
<polygon fill="black" stroke="black" points="3452.31,-191.8 3459.34,-183.87 3448.9,-185.69 3452.31,-191.8"/>
</g>
<!-- n29 -->
<g id="node31" class="node">
<title>n29</title>
<ellipse fill="#98D2A5" stroke="black" cx="3325.97" cy="-37.48" rx="185.94" ry="37.45"/>
<text text-anchor="middle" x="3325.97" y="-48.78" font-family="Times,serif" font-size="14.00">la</text>
<text text-anchor="middle" x="3325.97" y="-33.78" font-family="Times,serif" font-size="14.00">da0fs0 (det)</text>
<text text-anchor="middle" x="3325.97" y="-18.78" font-family="Times,serif" font-size="14.00">rep=no, t=no, r=no, m=yes, c=no</text>
</g>
<!-- n30&#45;&gt;n29 -->
<g id="edge30" class="edge">
<title>n30&#45;&gt;n29</title>
<path fill="none" stroke="black" d="M3459.27,-112.96C3439.34,-101.82 3417.1,-89.4 3396.58,-77.93"/>
<polygon fill="black" stroke="black" points="3398.04,-74.74 3387.6,-72.91 3394.62,-80.85 3398.04,-74.74"/>
</g>
<!-- n31 -->
<g id="node32" class="node">
<title>n31</title>
<ellipse fill="#98D2A5" stroke="black" cx="3715.97" cy="-37.48" rx="185.94" ry="37.45"/>
<text text-anchor="middle" x="3715.97" y="-48.78" font-family="Times,serif" font-size="14.00">policial</text>
<text text-anchor="middle" x="3715.97" y="-33.78" font-family="Times,serif" font-size="14.00">aq0cs0 (amod)</text>
<text text-anchor="middle" x="3715.97" y="-18.78" font-family="Times,serif" font-size="14.00">rep=no, t=no, r=no, m=yes, c=no</text>
</g>
<!-- n30&#45;&gt;n31 -->
<g id="edge31" class="edge">
<title>n30&#45;&gt;n31</title>
<path fill="none" stroke="black" d="M3582.67,-112.96C3602.59,-101.82 3624.84,-89.4 3645.35,-77.93"/>
<polygon fill="black" stroke="black" points="3647.31,-80.85 3654.34,-72.91 3643.9,-74.74 3647.31,-80.85"/>
</g>
</g>
</svg>
