<?xml version="1.0" encoding="UTF-8" standalone="no"?>
<!DOCTYPE svg PUBLIC "-//W3C//DTD SVG 1.1//EN"
 "http://www.w3.org/Graphics/SVG/1.1/DTD/svg11.dtd">
<!-- Generated by graphviz version 2.43.0 (0)
 -->
<!-- Title: tree Pages: 1 -->
<svg width="3572pt" height="1192pt"
 viewBox="0.00 0.00 3571.84 1192.49" xmlns="http://www.w3.org/2000/svg" xmlns:xlink="http://www.w3.org/1999/xlink">
<g id="graph0" class="graph" transform="scale(1 1) rotate(0) translate(4 1188.49)">
<title>tree</title>
<polygon fill="white" stroke="transparent" points="-4,4 -4,-1188.49 3567.84,-1188.49 3567.84,4 -4,4"/>
<!-- n11 -->
<g id="node1" class="node">
<title>n11</title>
<ellipse fill="#DA79E8" stroke="black" cx="2376.92" cy="-1147.01" rx="190.84" ry="37.45"/>
<text text-anchor="middle" x="2376.92" y="-1158.31" font-family="Times,serif" font-size="14.00">fue</text>
<text text-anchor="middle" x="2376.92" y="-1143.31" font-family="Times,serif" font-size="14.00">vsis3s0 (root)</text>
<text text-anchor="middle" x="2376.92" y="-1128.31" font-family="Times,serif" font-size="14.00">rep=no, t=no, r=yes, m=yes, c=no</text>
</g>
<!-- n2 -->
<g id="node2" class="node">
<title>n2</title>
<ellipse fill="#BEDA48" stroke="black" cx="1190.92" cy="-1036.06" rx="190.84" ry="37.45"/>
<text text-anchor="middle" x="1190.92" y="-1047.36" font-family="Times,serif" font-size="14.00">líder</text>
<text text-anchor="middle" x="1190.92" y="-1032.36" font-family="Times,serif" font-size="14.00">nccs000 (nsubj)</text>
<text text-anchor="middle" x="1190.92" y="-1017.36" font-family="Times,serif" font-size="14.00">rep=no, t=yes, r=no, m=yes, c=no</text>
</g>
<!-- n11&#45;&gt;n2 -->
<g id="edge1" class="edge">
<title>n11&#45;&gt;n2</title>
<path fill="none" stroke="black" d="M2205.73,-1130.28C1983.87,-1109.9 1598.68,-1074.52 1372.06,-1053.7"/>
<polygon fill="black" stroke="black" points="1372.33,-1050.21 1362.05,-1052.78 1371.69,-1057.18 1372.33,-1050.21"/>
</g>
<!-- n13 -->
<g id="node3" class="node">
<title>n13</title>
<ellipse fill="none" stroke="black" cx="2181.92" cy="-1036.06" rx="181.95" ry="37.45"/>
<text text-anchor="middle" x="2181.92" y="-1047.36" font-family="Times,serif" font-size="14.00">lejos</text>
<text text-anchor="middle" x="2181.92" y="-1032.36" font-family="Times,serif" font-size="14.00">rg (advmod)</text>
<text text-anchor="middle" x="2181.92" y="-1017.36" font-family="Times,serif" font-size="14.00">rep=no, t=no, r=no, m=no, c=no</text>
</g>
<!-- n11&#45;&gt;n13 -->
<g id="edge2" class="edge">
<title>n11&#45;&gt;n13</title>
<path fill="none" stroke="black" d="M2315.22,-1111.54C2295.29,-1100.4 2273.05,-1087.98 2252.53,-1076.51"/>
<polygon fill="black" stroke="black" points="2253.99,-1073.31 2243.55,-1071.49 2250.57,-1079.43 2253.99,-1073.31"/>
</g>
<!-- n14 -->
<g id="node4" class="node">
<title>n14</title>
<ellipse fill="#DA79E8" stroke="black" cx="2572.92" cy="-1036.06" rx="190.84" ry="37.45"/>
<text text-anchor="middle" x="2572.92" y="-1047.36" font-family="Times,serif" font-size="14.00">al</text>
<text text-anchor="middle" x="2572.92" y="-1032.36" font-family="Times,serif" font-size="14.00">spcms (prepv)</text>
<text text-anchor="middle" x="2572.92" y="-1017.36" font-family="Times,serif" font-size="14.00">rep=no, t=no, r=yes, m=yes, c=no</text>
</g>
<!-- n11&#45;&gt;n14 -->
<g id="edge3" class="edge">
<title>n11&#45;&gt;n14</title>
<path fill="none" stroke="black" d="M2438.93,-1111.54C2458.86,-1100.46 2481.1,-1088.1 2501.64,-1076.68"/>
<polygon fill="black" stroke="black" points="2503.59,-1079.6 2510.63,-1071.68 2500.19,-1073.48 2503.59,-1079.6"/>
</g>
<!-- n39 -->
<g id="node5" class="node">
<title>n39</title>
<ellipse fill="none" stroke="black" cx="2963.92" cy="-1036.06" rx="181.95" ry="37.45"/>
<text text-anchor="middle" x="2963.92" y="-1047.36" font-family="Times,serif" font-size="14.00">.</text>
<text text-anchor="middle" x="2963.92" y="-1032.36" font-family="Times,serif" font-size="14.00">fp (punct)</text>
<text text-anchor="middle" x="2963.92" y="-1017.36" font-family="Times,serif" font-size="14.00">rep=no, t=no, r=no, m=no, c=no</text>
</g>
<!-- n11&#45;&gt;n39 -->
<g id="edge4" class="edge">
<title>n11&#45;&gt;n39</title>
<path fill="none" stroke="black" d="M2514.87,-1121.03C2591,-1107.18 2687.21,-1089.56 2772.92,-1073.53 2789.22,-1070.49 2806.29,-1067.27 2823.24,-1064.05"/>
<polygon fill="black" stroke="black" points="2824.03,-1067.46 2833.2,-1062.16 2822.72,-1060.59 2824.03,-1067.46"/>
</g>
<!-- n1 -->
<g id="node6" class="node">
<title>n1</title>
<ellipse fill="#BEDA48" stroke="black" cx="190.92" cy="-925.1" rx="190.84" ry="37.45"/>
<text text-anchor="middle" x="190.92" y="-936.4" font-family="Times,serif" font-size="14.00">El</text>
<text text-anchor="middle" x="190.92" y="-921.4" font-family="Times,serif" font-size="14.00">da0ms0 (det)</text>
<text text-anchor="middle" x="190.92" y="-906.4" font-family="Times,serif" font-size="14.00">rep=no, t=yes, r=no, m=yes, c=no</text>
</g>
<!-- n2&#45;&gt;n1 -->
<g id="edge5" class="edge">
<title>n2&#45;&gt;n1</title>
<path fill="none" stroke="black" d="M1010.88,-1023.4C848.4,-1011.77 603.03,-991.47 390.92,-962.58 372.38,-960.05 352.94,-957.01 333.78,-953.77"/>
<polygon fill="black" stroke="black" points="334.23,-950.3 323.78,-952.06 333.05,-957.2 334.23,-950.3"/>
</g>
<!-- n3 -->
<g id="node7" class="node">
<title>n3</title>
<ellipse fill="#BEDA48" stroke="black" cx="590.92" cy="-925.1" rx="190.84" ry="37.45"/>
<text text-anchor="middle" x="590.92" y="-936.4" font-family="Times,serif" font-size="14.00">de</text>
<text text-anchor="middle" x="590.92" y="-921.4" font-family="Times,serif" font-size="14.00">sps00 (prepn)</text>
<text text-anchor="middle" x="590.92" y="-906.4" font-family="Times,serif" font-size="14.00">rep=no, t=yes, r=no, m=yes, c=no</text>
</g>
<!-- n2&#45;&gt;n3 -->
<g id="edge6" class="edge">
<title>n2&#45;&gt;n3</title>
<path fill="none" stroke="black" d="M1053,-1010.11C975.9,-996.15 878.06,-978.42 790.92,-962.58 773.85,-959.48 755.97,-956.22 738.21,-952.99"/>
<polygon fill="black" stroke="black" points="738.82,-949.54 728.36,-951.19 737.57,-956.43 738.82,-949.54"/>
</g>
<!-- n7 -->
<g id="node8" class="node">
<title>n7</title>
<ellipse fill="#BEDA48" stroke="black" cx="990.92" cy="-925.1" rx="190.84" ry="37.45"/>
<text text-anchor="middle" x="990.92" y="-936.4" font-family="Times,serif" font-size="14.00">,</text>
<text text-anchor="middle" x="990.92" y="-921.4" font-family="Times,serif" font-size="14.00">fc (punct)</text>
<text text-anchor="middle" x="990.92" y="-906.4" font-family="Times,serif" font-size="14.00">rep=no, t=yes, r=no, m=yes, c=no</text>
</g>
<!-- n2&#45;&gt;n7 -->
<g id="edge7" class="edge">
<title>n2&#45;&gt;n7</title>
<path fill="none" stroke="black" d="M1127.64,-1000.58C1107.11,-989.4 1084.18,-976.91 1063.06,-965.4"/>
<polygon fill="black" stroke="black" points="1064.59,-962.25 1054.13,-960.54 1061.24,-968.4 1064.59,-962.25"/>
</g>
<!-- n8 -->
<g id="node9" class="node">
<title>n8</title>
<ellipse fill="#BEDA48" stroke="black" cx="1390.92" cy="-925.1" rx="190.84" ry="37.45"/>
<text text-anchor="middle" x="1390.92" y="-936.4" font-family="Times,serif" font-size="14.00">Nicolás</text>
<text text-anchor="middle" x="1390.92" y="-921.4" font-family="Times,serif" font-size="14.00">np00000 (appos)</text>
<text text-anchor="middle" x="1390.92" y="-906.4" font-family="Times,serif" font-size="14.00">rep=no, t=yes, r=no, m=yes, c=no</text>
</g>
<!-- n2&#45;&gt;n8 -->
<g id="edge8" class="edge">
<title>n2&#45;&gt;n8</title>
<path fill="none" stroke="black" d="M1254.2,-1000.58C1274.73,-989.4 1297.65,-976.91 1318.78,-965.4"/>
<polygon fill="black" stroke="black" points="1320.6,-968.4 1327.71,-960.54 1317.25,-962.25 1320.6,-968.4"/>
</g>
<!-- n10 -->
<g id="node10" class="node">
<title>n10</title>
<ellipse fill="#BEDA48" stroke="black" cx="1790.92" cy="-925.1" rx="190.84" ry="37.45"/>
<text text-anchor="middle" x="1790.92" y="-936.4" font-family="Times,serif" font-size="14.00">,</text>
<text text-anchor="middle" x="1790.92" y="-921.4" font-family="Times,serif" font-size="14.00">fc (punct)</text>
<text text-anchor="middle" x="1790.92" y="-906.4" font-family="Times,serif" font-size="14.00">rep=no, t=yes, r=no, m=yes, c=no</text>
</g>
<!-- n2&#45;&gt;n10 -->
<g id="edge9" class="edge">
<title>n2&#45;&gt;n10</title>
<path fill="none" stroke="black" d="M1328.84,-1010.11C1405.94,-996.15 1503.78,-978.42 1590.92,-962.58 1607.99,-959.48 1625.87,-956.22 1643.63,-952.99"/>
<polygon fill="black" stroke="black" points="1644.27,-956.43 1653.48,-951.19 1643.02,-949.54 1644.27,-956.43"/>
</g>
<!-- n12 -->
<g id="node15" class="node">
<title>n12</title>
<ellipse fill="none" stroke="black" cx="2181.92" cy="-925.1" rx="181.95" ry="37.45"/>
<text text-anchor="middle" x="2181.92" y="-936.4" font-family="Times,serif" font-size="14.00">más</text>
<text text-anchor="middle" x="2181.92" y="-921.4" font-family="Times,serif" font-size="14.00">rg (advmod)</text>
<text text-anchor="middle" x="2181.92" y="-906.4" font-family="Times,serif" font-size="14.00">rep=no, t=no, r=no, m=no, c=no</text>
</g>
<!-- n13&#45;&gt;n12 -->
<g id="edge14" class="edge">
<title>n13&#45;&gt;n12</title>
<path fill="none" stroke="black" d="M2181.92,-998.47C2181.92,-990.3 2181.92,-981.52 2181.92,-972.99"/>
<polygon fill="black" stroke="black" points="2185.42,-972.78 2181.92,-962.78 2178.42,-972.78 2185.42,-972.78"/>
</g>
<!-- n15 -->
<g id="node16" class="node">
<title>n15</title>
<ellipse fill="#DA79E8" stroke="black" cx="2572.92" cy="-925.1" rx="190.84" ry="37.45"/>
<text text-anchor="middle" x="2572.92" y="-936.4" font-family="Times,serif" font-size="14.00">precisar</text>
<text text-anchor="middle" x="2572.92" y="-921.4" font-family="Times,serif" font-size="14.00">vmn0000 (pobj)</text>
<text text-anchor="middle" x="2572.92" y="-906.4" font-family="Times,serif" font-size="14.00">rep=no, t=no, r=yes, m=yes, c=no</text>
</g>
<!-- n14&#45;&gt;n15 -->
<g id="edge15" class="edge">
<title>n14&#45;&gt;n15</title>
<path fill="none" stroke="black" d="M2572.92,-998.47C2572.92,-990.3 2572.92,-981.52 2572.92,-972.99"/>
<polygon fill="black" stroke="black" points="2576.42,-972.78 2572.92,-962.78 2569.42,-972.78 2576.42,-972.78"/>
</g>
<!-- n5 -->
<g id="node11" class="node">
<title>n5</title>
<ellipse fill="#BEDA48" stroke="black" cx="590.92" cy="-814.15" rx="190.84" ry="37.45"/>
<text text-anchor="middle" x="590.92" y="-825.45" font-family="Times,serif" font-size="14.00">socialistas</text>
<text text-anchor="middle" x="590.92" y="-810.45" font-family="Times,serif" font-size="14.00">nccp000 (pobj)</text>
<text text-anchor="middle" x="590.92" y="-795.45" font-family="Times,serif" font-size="14.00">rep=no, t=yes, r=no, m=yes, c=no</text>
</g>
<!-- n3&#45;&gt;n5 -->
<g id="edge10" class="edge">
<title>n3&#45;&gt;n5</title>
<path fill="none" stroke="black" d="M590.92,-887.52C590.92,-879.35 590.92,-870.57 590.92,-862.04"/>
<polygon fill="black" stroke="black" points="594.42,-861.82 590.92,-851.82 587.42,-861.82 594.42,-861.82"/>
</g>
<!-- n9 -->
<g id="node14" class="node">
<title>n9</title>
<ellipse fill="#BEDA48" stroke="black" cx="1390.92" cy="-814.15" rx="190.84" ry="37.45"/>
<text text-anchor="middle" x="1390.92" y="-825.45" font-family="Times,serif" font-size="14.00">Redondo</text>
<text text-anchor="middle" x="1390.92" y="-810.45" font-family="Times,serif" font-size="14.00">aq0ms0 (amod)</text>
<text text-anchor="middle" x="1390.92" y="-795.45" font-family="Times,serif" font-size="14.00">rep=no, t=yes, r=no, m=yes, c=no</text>
</g>
<!-- n8&#45;&gt;n9 -->
<g id="edge13" class="edge">
<title>n8&#45;&gt;n9</title>
<path fill="none" stroke="black" d="M1390.92,-887.52C1390.92,-879.35 1390.92,-870.57 1390.92,-862.04"/>
<polygon fill="black" stroke="black" points="1394.42,-861.82 1390.92,-851.82 1387.42,-861.82 1394.42,-861.82"/>
</g>
<!-- n4 -->
<g id="node12" class="node">
<title>n4</title>
<ellipse fill="#BEDA48" stroke="black" cx="390.92" cy="-703.2" rx="190.84" ry="37.45"/>
<text text-anchor="middle" x="390.92" y="-714.5" font-family="Times,serif" font-size="14.00">los</text>
<text text-anchor="middle" x="390.92" y="-699.5" font-family="Times,serif" font-size="14.00">da0mp0 (det)</text>
<text text-anchor="middle" x="390.92" y="-684.5" font-family="Times,serif" font-size="14.00">rep=no, t=yes, r=no, m=yes, c=no</text>
</g>
<!-- n5&#45;&gt;n4 -->
<g id="edge11" class="edge">
<title>n5&#45;&gt;n4</title>
<path fill="none" stroke="black" d="M527.64,-778.68C507.11,-767.49 484.18,-755 463.06,-743.5"/>
<polygon fill="black" stroke="black" points="464.59,-740.34 454.13,-738.63 461.24,-746.49 464.59,-740.34"/>
</g>
<!-- n6 -->
<g id="node13" class="node">
<title>n6</title>
<ellipse fill="#BEDA48" stroke="black" cx="790.92" cy="-703.2" rx="190.84" ry="37.45"/>
<text text-anchor="middle" x="790.92" y="-714.5" font-family="Times,serif" font-size="14.00">vascos</text>
<text text-anchor="middle" x="790.92" y="-699.5" font-family="Times,serif" font-size="14.00">aq0mp0 (amod)</text>
<text text-anchor="middle" x="790.92" y="-684.5" font-family="Times,serif" font-size="14.00">rep=no, t=yes, r=no, m=yes, c=no</text>
</g>
<!-- n5&#45;&gt;n6 -->
<g id="edge12" class="edge">
<title>n5&#45;&gt;n6</title>
<path fill="none" stroke="black" d="M654.2,-778.68C674.73,-767.49 697.65,-755 718.78,-743.5"/>
<polygon fill="black" stroke="black" points="720.6,-746.49 727.71,-738.63 717.25,-740.34 720.6,-746.49"/>
</g>
<!-- n16 -->
<g id="node17" class="node">
<title>n16</title>
<ellipse fill="#DA79E8" stroke="black" cx="2572.92" cy="-814.15" rx="190.84" ry="37.45"/>
<text text-anchor="middle" x="2572.92" y="-825.45" font-family="Times,serif" font-size="14.00">que</text>
<text text-anchor="middle" x="2572.92" y="-810.45" font-family="Times,serif" font-size="14.00">cs (dobj)</text>
<text text-anchor="middle" x="2572.92" y="-795.45" font-family="Times,serif" font-size="14.00">rep=no, t=no, r=yes, m=yes, c=no</text>
</g>
<!-- n15&#45;&gt;n16 -->
<g id="edge16" class="edge">
<title>n15&#45;&gt;n16</title>
<path fill="none" stroke="black" d="M2572.92,-887.52C2572.92,-879.35 2572.92,-870.57 2572.92,-862.04"/>
<polygon fill="black" stroke="black" points="2576.42,-861.82 2572.92,-851.82 2569.42,-861.82 2576.42,-861.82"/>
</g>
<!-- n31 -->
<g id="node18" class="node">
<title>n31</title>
<ellipse fill="#DA79E8" stroke="black" cx="2572.92" cy="-703.2" rx="190.84" ry="37.45"/>
<text text-anchor="middle" x="2572.92" y="-714.5" font-family="Times,serif" font-size="14.00">es</text>
<text text-anchor="middle" x="2572.92" y="-699.5" font-family="Times,serif" font-size="14.00">vsip3s0 (cobj)</text>
<text text-anchor="middle" x="2572.92" y="-684.5" font-family="Times,serif" font-size="14.00">rep=no, t=no, r=yes, m=yes, c=no</text>
</g>
<!-- n16&#45;&gt;n31 -->
<g id="edge17" class="edge">
<title>n16&#45;&gt;n31</title>
<path fill="none" stroke="black" d="M2572.92,-776.57C2572.92,-768.39 2572.92,-759.61 2572.92,-751.09"/>
<polygon fill="black" stroke="black" points="2576.42,-750.87 2572.92,-740.87 2569.42,-750.87 2576.42,-750.87"/>
</g>
<!-- n35 -->
<g id="node19" class="node">
<title>n35</title>
<ellipse fill="#DA79E8" stroke="black" cx="2572.92" cy="-592.24" rx="190.84" ry="37.45"/>
<text text-anchor="middle" x="2572.92" y="-603.54" font-family="Times,serif" font-size="14.00">diferencia</text>
<text text-anchor="middle" x="2572.92" y="-588.54" font-family="Times,serif" font-size="14.00">vmip3s0 (cobj)</text>
<text text-anchor="middle" x="2572.92" y="-573.54" font-family="Times,serif" font-size="14.00">rep=no, t=no, r=yes, m=yes, c=no</text>
</g>
<!-- n31&#45;&gt;n35 -->
<g id="edge18" class="edge">
<title>n31&#45;&gt;n35</title>
<path fill="none" stroke="black" d="M2572.92,-665.61C2572.92,-657.44 2572.92,-648.66 2572.92,-640.13"/>
<polygon fill="black" stroke="black" points="2576.42,-639.92 2572.92,-629.92 2569.42,-639.92 2576.42,-639.92"/>
</g>
<!-- n18 -->
<g id="node20" class="node">
<title>n18</title>
<ellipse fill="#DA79E8" stroke="black" cx="1772.92" cy="-481.29" rx="190.84" ry="37.45"/>
<text text-anchor="middle" x="1772.92" y="-492.59" font-family="Times,serif" font-size="14.00">actitud</text>
<text text-anchor="middle" x="1772.92" y="-477.59" font-family="Times,serif" font-size="14.00">ncfs000 (nsubj)</text>
<text text-anchor="middle" x="1772.92" y="-462.59" font-family="Times,serif" font-size="14.00">rep=no, t=no, r=yes, m=yes, c=no</text>
</g>
<!-- n35&#45;&gt;n18 -->
<g id="edge19" class="edge">
<title>n35&#45;&gt;n18</title>
<path fill="none" stroke="black" d="M2406.38,-573.85C2285.76,-560.59 2118.93,-540.88 1972.92,-518.77 1954.87,-516.03 1935.96,-512.92 1917.26,-509.68"/>
<polygon fill="black" stroke="black" points="1917.66,-506.2 1907.21,-507.93 1916.46,-513.1 1917.66,-506.2"/>
</g>
<!-- n32 -->
<g id="node21" class="node">
<title>n32</title>
<ellipse fill="#DA79E8" stroke="black" cx="2172.92" cy="-481.29" rx="190.84" ry="37.45"/>
<text text-anchor="middle" x="2172.92" y="-492.59" font-family="Times,serif" font-size="14.00">la</text>
<text text-anchor="middle" x="2172.92" y="-477.59" font-family="Times,serif" font-size="14.00">da0fs0 (det)</text>
<text text-anchor="middle" x="2172.92" y="-462.59" font-family="Times,serif" font-size="14.00">rep=no, t=no, r=yes, m=yes, c=no</text>
</g>
<!-- n35&#45;&gt;n32 -->
<g id="edge20" class="edge">
<title>n35&#45;&gt;n32</title>
<path fill="none" stroke="black" d="M2463.62,-561.47C2410.48,-547 2346.51,-529.57 2292.12,-514.76"/>
<polygon fill="black" stroke="black" points="2293,-511.37 2282.44,-512.12 2291.16,-518.13 2293,-511.37"/>
</g>
<!-- n33 -->
<g id="node22" class="node">
<title>n33</title>
<ellipse fill="#DA79E8" stroke="black" cx="2572.92" cy="-481.29" rx="190.84" ry="37.45"/>
<text text-anchor="middle" x="2572.92" y="-492.59" font-family="Times,serif" font-size="14.00">que</text>
<text text-anchor="middle" x="2572.92" y="-477.59" font-family="Times,serif" font-size="14.00">pr0cn000 (nsubj)</text>
<text text-anchor="middle" x="2572.92" y="-462.59" font-family="Times,serif" font-size="14.00">rep=no, t=no, r=yes, m=yes, c=no</text>
</g>
<!-- n35&#45;&gt;n33 -->
<g id="edge21" class="edge">
<title>n35&#45;&gt;n33</title>
<path fill="none" stroke="black" d="M2572.92,-554.66C2572.92,-546.49 2572.92,-537.71 2572.92,-529.18"/>
<polygon fill="black" stroke="black" points="2576.42,-528.96 2572.92,-518.96 2569.42,-528.96 2576.42,-528.96"/>
</g>
<!-- n34 -->
<g id="node23" class="node">
<title>n34</title>
<ellipse fill="#DA79E8" stroke="black" cx="2972.92" cy="-481.29" rx="190.84" ry="37.45"/>
<text text-anchor="middle" x="2972.92" y="-492.59" font-family="Times,serif" font-size="14.00">les</text>
<text text-anchor="middle" x="2972.92" y="-477.59" font-family="Times,serif" font-size="14.00">pp3cpd00 (dobj)</text>
<text text-anchor="middle" x="2972.92" y="-462.59" font-family="Times,serif" font-size="14.00">rep=no, t=no, r=yes, m=yes, c=no</text>
</g>
<!-- n35&#45;&gt;n34 -->
<g id="edge22" class="edge">
<title>n35&#45;&gt;n34</title>
<path fill="none" stroke="black" d="M2682.22,-561.47C2735.36,-547 2799.33,-529.57 2853.71,-514.76"/>
<polygon fill="black" stroke="black" points="2854.67,-518.13 2863.4,-512.12 2852.83,-511.37 2854.67,-518.13"/>
</g>
<!-- n36 -->
<g id="node24" class="node">
<title>n36</title>
<ellipse fill="#DA79E8" stroke="black" cx="3372.92" cy="-481.29" rx="190.84" ry="37.45"/>
<text text-anchor="middle" x="3372.92" y="-492.59" font-family="Times,serif" font-size="14.00">de</text>
<text text-anchor="middle" x="3372.92" y="-477.59" font-family="Times,serif" font-size="14.00">sps00 (oobj)</text>
<text text-anchor="middle" x="3372.92" y="-462.59" font-family="Times,serif" font-size="14.00">rep=no, t=no, r=yes, m=yes, c=no</text>
</g>
<!-- n35&#45;&gt;n36 -->
<g id="edge23" class="edge">
<title>n35&#45;&gt;n36</title>
<path fill="none" stroke="black" d="M2739.46,-573.85C2860.08,-560.59 3026.9,-540.88 3172.92,-518.77 3190.96,-516.03 3209.88,-512.92 3228.57,-509.68"/>
<polygon fill="black" stroke="black" points="3229.38,-513.1 3238.63,-507.93 3228.17,-506.2 3229.38,-513.1"/>
</g>
<!-- n17 -->
<g id="node25" class="node">
<title>n17</title>
<ellipse fill="#DA79E8" stroke="black" cx="1175.92" cy="-370.34" rx="190.84" ry="37.45"/>
<text text-anchor="middle" x="1175.92" y="-381.64" font-family="Times,serif" font-size="14.00">esa</text>
<text text-anchor="middle" x="1175.92" y="-366.64" font-family="Times,serif" font-size="14.00">dd0fs0 (det)</text>
<text text-anchor="middle" x="1175.92" y="-351.64" font-family="Times,serif" font-size="14.00">rep=no, t=no, r=yes, m=yes, c=no</text>
</g>
<!-- n18&#45;&gt;n17 -->
<g id="edge24" class="edge">
<title>n18&#45;&gt;n17</title>
<path fill="none" stroke="black" d="M1635.58,-455.23C1542.22,-438.19 1418.83,-415.67 1323.39,-398.25"/>
<polygon fill="black" stroke="black" points="1323.83,-394.77 1313.37,-396.42 1322.58,-401.66 1323.83,-394.77"/>
</g>
<!-- n19 -->
<g id="node26" class="node">
<title>n19</title>
<ellipse fill="#DA79E8" stroke="black" cx="1575.92" cy="-370.34" rx="190.84" ry="37.45"/>
<text text-anchor="middle" x="1575.92" y="-381.64" font-family="Times,serif" font-size="14.00">,</text>
<text text-anchor="middle" x="1575.92" y="-366.64" font-family="Times,serif" font-size="14.00">fc (punct)</text>
<text text-anchor="middle" x="1575.92" y="-351.64" font-family="Times,serif" font-size="14.00">rep=no, t=no, r=yes, m=yes, c=no</text>
</g>
<!-- n18&#45;&gt;n19 -->
<g id="edge25" class="edge">
<title>n18&#45;&gt;n19</title>
<path fill="none" stroke="black" d="M1710.59,-445.82C1690.37,-434.63 1667.79,-422.14 1646.98,-410.64"/>
<polygon fill="black" stroke="black" points="1648.63,-407.55 1638.18,-405.77 1645.24,-413.68 1648.63,-407.55"/>
</g>
<!-- n23 -->
<g id="node27" class="node">
<title>n23</title>
<ellipse fill="none" stroke="black" cx="1970.92" cy="-370.34" rx="185.94" ry="37.45"/>
<text text-anchor="middle" x="1970.92" y="-381.64" font-family="Times,serif" font-size="14.00">tuvo</text>
<text text-anchor="middle" x="1970.92" y="-366.64" font-family="Times,serif" font-size="14.00">vmis3s0 (rcmod)</text>
<text text-anchor="middle" x="1970.92" y="-351.64" font-family="Times,serif" font-size="14.00">rep=no, t=no, r=no, m=yes, c=no</text>
</g>
<!-- n18&#45;&gt;n23 -->
<g id="edge26" class="edge">
<title>n18&#45;&gt;n23</title>
<path fill="none" stroke="black" d="M1835.57,-445.82C1855.89,-434.63 1878.59,-422.14 1899.5,-410.64"/>
<polygon fill="black" stroke="black" points="1901.26,-413.66 1908.34,-405.77 1897.89,-407.53 1901.26,-413.66"/>
</g>
<!-- n30 -->
<g id="node28" class="node">
<title>n30</title>
<ellipse fill="#DA79E8" stroke="black" cx="2365.92" cy="-370.34" rx="190.84" ry="37.45"/>
<text text-anchor="middle" x="2365.92" y="-381.64" font-family="Times,serif" font-size="14.00">,</text>
<text text-anchor="middle" x="2365.92" y="-366.64" font-family="Times,serif" font-size="14.00">fc (punct)</text>
<text text-anchor="middle" x="2365.92" y="-351.64" font-family="Times,serif" font-size="14.00">rep=no, t=no, r=yes, m=yes, c=no</text>
</g>
<!-- n18&#45;&gt;n30 -->
<g id="edge27" class="edge">
<title>n18&#45;&gt;n30</title>
<path fill="none" stroke="black" d="M1910.08,-455.09C2002.6,-438.09 2124.55,-415.68 2219.03,-398.32"/>
<polygon fill="black" stroke="black" points="2219.76,-401.75 2228.96,-396.5 2218.49,-394.87 2219.76,-401.75"/>
</g>
<!-- n38 -->
<g id="node38" class="node">
<title>n38</title>
<ellipse fill="#DA79E8" stroke="black" cx="3372.92" cy="-370.34" rx="190.84" ry="37.45"/>
<text text-anchor="middle" x="3372.92" y="-381.64" font-family="Times,serif" font-size="14.00">conservadores</text>
<text text-anchor="middle" x="3372.92" y="-366.64" font-family="Times,serif" font-size="14.00">ncmp000 (pobj)</text>
<text text-anchor="middle" x="3372.92" y="-351.64" font-family="Times,serif" font-size="14.00">rep=no, t=no, r=yes, m=yes, c=no</text>
</g>
<!-- n36&#45;&gt;n38 -->
<g id="edge37" class="edge">
<title>n36&#45;&gt;n38</title>
<path fill="none" stroke="black" d="M3372.92,-443.71C3372.92,-435.53 3372.92,-426.75 3372.92,-418.23"/>
<polygon fill="black" stroke="black" points="3376.42,-418.01 3372.92,-408.01 3369.42,-418.01 3376.42,-418.01"/>
</g>
<!-- n20 -->
<g id="node29" class="node">
<title>n20</title>
<ellipse fill="none" stroke="black" cx="913.92" cy="-259.38" rx="185.94" ry="37.45"/>
<text text-anchor="middle" x="913.92" y="-270.68" font-family="Times,serif" font-size="14.00">&quot;</text>
<text text-anchor="middle" x="913.92" y="-255.68" font-family="Times,serif" font-size="14.00">fe (punct)</text>
<text text-anchor="middle" x="913.92" y="-240.68" font-family="Times,serif" font-size="14.00">rep=no, t=no, r=no, m=yes, c=no</text>
</g>
<!-- n23&#45;&gt;n20 -->
<g id="edge28" class="edge">
<title>n23&#45;&gt;n20</title>
<path fill="none" stroke="black" d="M1843.32,-342.99C1820.93,-339.08 1797.8,-335.49 1775.92,-332.86 1481.16,-297.49 1403.68,-332.23 1108.92,-296.86 1090.28,-294.62 1070.74,-291.69 1051.53,-288.45"/>
<polygon fill="black" stroke="black" points="1051.97,-284.97 1041.52,-286.73 1050.78,-291.87 1051.97,-284.97"/>
</g>
<!-- n21 -->
<g id="node30" class="node">
<title>n21</title>
<ellipse fill="none" stroke="black" cx="1303.92" cy="-259.38" rx="185.94" ry="37.45"/>
<text text-anchor="middle" x="1303.92" y="-270.68" font-family="Times,serif" font-size="14.00">que</text>
<text text-anchor="middle" x="1303.92" y="-255.68" font-family="Times,serif" font-size="14.00">pr0cn000 (dobj)</text>
<text text-anchor="middle" x="1303.92" y="-240.68" font-family="Times,serif" font-size="14.00">rep=no, t=no, r=no, m=yes, c=no</text>
</g>
<!-- n23&#45;&gt;n21 -->
<g id="edge29" class="edge">
<title>n23&#45;&gt;n21</title>
<path fill="none" stroke="black" d="M1839.71,-343.76C1818.42,-339.91 1796.58,-336.13 1775.92,-332.86 1653.3,-313.44 1621.54,-316.28 1498.92,-296.86 1481.48,-294.1 1463.21,-290.98 1445.14,-287.76"/>
<polygon fill="black" stroke="black" points="1445.58,-284.28 1435.12,-285.96 1444.35,-291.17 1445.58,-284.28"/>
</g>
<!-- n22 -->
<g id="node31" class="node">
<title>n22</title>
<ellipse fill="none" stroke="black" cx="1693.92" cy="-259.38" rx="185.94" ry="37.45"/>
<text text-anchor="middle" x="1693.92" y="-270.68" font-family="Times,serif" font-size="14.00">no</text>
<text text-anchor="middle" x="1693.92" y="-255.68" font-family="Times,serif" font-size="14.00">rn (neg)</text>
<text text-anchor="middle" x="1693.92" y="-240.68" font-family="Times,serif" font-size="14.00">rep=no, t=no, r=no, m=yes, c=no</text>
</g>
<!-- n23&#45;&gt;n22 -->
<g id="edge30" class="edge">
<title>n23&#45;&gt;n22</title>
<path fill="none" stroke="black" d="M1887.81,-336.65C1855.9,-324.1 1819.29,-309.7 1786.55,-296.82"/>
<polygon fill="black" stroke="black" points="1787.56,-293.45 1776.97,-293.05 1784.99,-299.97 1787.56,-293.45"/>
</g>
<!-- n25 -->
<g id="node32" class="node">
<title>n25</title>
<ellipse fill="none" stroke="black" cx="2083.92" cy="-259.38" rx="185.94" ry="37.45"/>
<text text-anchor="middle" x="2083.92" y="-270.68" font-family="Times,serif" font-size="14.00">PP</text>
<text text-anchor="middle" x="2083.92" y="-255.68" font-family="Times,serif" font-size="14.00">np00000 (nsubj)</text>
<text text-anchor="middle" x="2083.92" y="-240.68" font-family="Times,serif" font-size="14.00">rep=no, t=no, r=no, m=yes, c=no</text>
</g>
<!-- n23&#45;&gt;n25 -->
<g id="edge31" class="edge">
<title>n23&#45;&gt;n25</title>
<path fill="none" stroke="black" d="M2008.23,-333.36C2018.16,-323.78 2028.99,-313.34 2039.28,-303.43"/>
<polygon fill="black" stroke="black" points="2041.87,-305.78 2046.64,-296.32 2037.02,-300.74 2041.87,-305.78"/>
</g>
<!-- n26 -->
<g id="node33" class="node">
<title>n26</title>
<ellipse fill="none" stroke="black" cx="2473.92" cy="-259.38" rx="185.94" ry="37.45"/>
<text text-anchor="middle" x="2473.92" y="-270.68" font-family="Times,serif" font-size="14.00">en</text>
<text text-anchor="middle" x="2473.92" y="-255.68" font-family="Times,serif" font-size="14.00">sps00 (prepv)</text>
<text text-anchor="middle" x="2473.92" y="-240.68" font-family="Times,serif" font-size="14.00">rep=no, t=no, r=no, m=yes, c=no</text>
</g>
<!-- n23&#45;&gt;n26 -->
<g id="edge32" class="edge">
<title>n23&#45;&gt;n26</title>
<path fill="none" stroke="black" d="M2095.26,-342.4C2169.46,-326.33 2263.69,-305.92 2339.6,-289.48"/>
<polygon fill="black" stroke="black" points="2340.67,-292.83 2349.71,-287.29 2339.19,-285.99 2340.67,-292.83"/>
</g>
<!-- n29 -->
<g id="node34" class="node">
<title>n29</title>
<ellipse fill="none" stroke="black" cx="2863.92" cy="-259.38" rx="185.94" ry="37.45"/>
<text text-anchor="middle" x="2863.92" y="-270.68" font-family="Times,serif" font-size="14.00">&quot;</text>
<text text-anchor="middle" x="2863.92" y="-255.68" font-family="Times,serif" font-size="14.00">fe (punct)</text>
<text text-anchor="middle" x="2863.92" y="-240.68" font-family="Times,serif" font-size="14.00">rep=no, t=no, r=no, m=yes, c=no</text>
</g>
<!-- n23&#45;&gt;n29 -->
<g id="edge33" class="edge">
<title>n23&#45;&gt;n29</title>
<path fill="none" stroke="black" d="M2099.35,-343.18C2121.48,-339.28 2144.31,-335.64 2165.92,-332.86 2388.21,-304.21 2446.63,-325.51 2668.92,-296.86 2687.32,-294.49 2706.61,-291.5 2725.6,-288.26"/>
<polygon fill="black" stroke="black" points="2726.24,-291.7 2735.49,-286.54 2725.04,-284.8 2726.24,-291.7"/>
</g>
<!-- n24 -->
<g id="node35" class="node">
<title>n24</title>
<ellipse fill="none" stroke="black" cx="2083.92" cy="-148.43" rx="185.94" ry="37.45"/>
<text text-anchor="middle" x="2083.92" y="-159.73" font-family="Times,serif" font-size="14.00">el</text>
<text text-anchor="middle" x="2083.92" y="-144.73" font-family="Times,serif" font-size="14.00">da0ms0 (det)</text>
<text text-anchor="middle" x="2083.92" y="-129.73" font-family="Times,serif" font-size="14.00">rep=no, t=no, r=no, m=yes, c=no</text>
</g>
<!-- n25&#45;&gt;n24 -->
<g id="edge34" class="edge">
<title>n25&#45;&gt;n24</title>
<path fill="none" stroke="black" d="M2083.92,-221.8C2083.92,-213.63 2083.92,-204.85 2083.92,-196.32"/>
<polygon fill="black" stroke="black" points="2087.42,-196.1 2083.92,-186.1 2080.42,-196.1 2087.42,-196.1"/>
</g>
<!-- n28 -->
<g id="node36" class="node">
<title>n28</title>
<ellipse fill="none" stroke="black" cx="2473.92" cy="-148.43" rx="185.94" ry="37.45"/>
<text text-anchor="middle" x="2473.92" y="-159.73" font-family="Times,serif" font-size="14.00">día</text>
<text text-anchor="middle" x="2473.92" y="-144.73" font-family="Times,serif" font-size="14.00">ncms000 (pobj)</text>
<text text-anchor="middle" x="2473.92" y="-129.73" font-family="Times,serif" font-size="14.00">rep=no, t=no, r=no, m=yes, c=no</text>
</g>
<!-- n26&#45;&gt;n28 -->
<g id="edge35" class="edge">
<title>n26&#45;&gt;n28</title>
<path fill="none" stroke="black" d="M2473.92,-221.8C2473.92,-213.63 2473.92,-204.85 2473.92,-196.32"/>
<polygon fill="black" stroke="black" points="2477.42,-196.1 2473.92,-186.1 2470.42,-196.1 2477.42,-196.1"/>
</g>
<!-- n27 -->
<g id="node37" class="node">
<title>n27</title>
<ellipse fill="none" stroke="black" cx="2473.92" cy="-37.48" rx="185.94" ry="37.45"/>
<text text-anchor="middle" x="2473.92" y="-48.78" font-family="Times,serif" font-size="14.00">su</text>
<text text-anchor="middle" x="2473.92" y="-33.78" font-family="Times,serif" font-size="14.00">dp3cs0 (poss)</text>
<text text-anchor="middle" x="2473.92" y="-18.78" font-family="Times,serif" font-size="14.00">rep=no, t=no, r=no, m=yes, c=no</text>
</g>
<!-- n28&#45;&gt;n27 -->
<g id="edge36" class="edge">
<title>n28&#45;&gt;n27</title>
<path fill="none" stroke="black" d="M2473.92,-110.85C2473.92,-102.67 2473.92,-93.89 2473.92,-85.37"/>
<polygon fill="black" stroke="black" points="2477.42,-85.15 2473.92,-75.15 2470.42,-85.15 2477.42,-85.15"/>
</g>
<!-- n37 -->
<g id="node39" class="node">
<title>n37</title>
<ellipse fill="#DA79E8" stroke="black" cx="3372.92" cy="-259.38" rx="190.84" ry="37.45"/>
<text text-anchor="middle" x="3372.92" y="-270.68" font-family="Times,serif" font-size="14.00">los</text>
<text text-anchor="middle" x="3372.92" y="-255.68" font-family="Times,serif" font-size="14.00">da0mp0 (det)</text>
<text text-anchor="middle" x="3372.92" y="-240.68" font-family="Times,serif" font-size="14.00">rep=no, t=no, r=yes, m=yes, c=no</text>
</g>
<!-- n38&#45;&gt;n37 -->
<g id="edge38" class="edge">
<title>n38&#45;&gt;n37</title>
<path fill="none" stroke="black" d="M3372.92,-332.75C3372.92,-324.58 3372.92,-315.8 3372.92,-307.27"/>
<polygon fill="black" stroke="black" points="3376.42,-307.06 3372.92,-297.06 3369.42,-307.06 3376.42,-307.06"/>
</g>
</g>
</svg>
