<?xml version="1.0" encoding="UTF-8" standalone="no"?>
<!DOCTYPE svg PUBLIC "-//W3C//DTD SVG 1.1//EN"
 "http://www.w3.org/Graphics/SVG/1.1/DTD/svg11.dtd">
<!-- Generated by graphviz version 2.43.0 (0)
 -->
<!-- Title: tree Pages: 1 -->
<svg width="3138pt" height="860pt"
 viewBox="0.00 0.00 3138.45 859.63" xmlns="http://www.w3.org/2000/svg" xmlns:xlink="http://www.w3.org/1999/xlink">
<g id="graph0" class="graph" transform="scale(1 1) rotate(0) translate(4 855.63)">
<title>tree</title>
<polygon fill="white" stroke="transparent" points="-4,4 -4,-855.63 3134.45,-855.63 3134.45,4 -4,4"/>
<!-- n23 -->
<g id="node1" class="node">
<title>n23</title>
<ellipse fill="#98D2A5" stroke="black" cx="1742.73" cy="-814.15" rx="190.84" ry="37.45"/>
<text text-anchor="middle" x="1742.73" y="-825.45" font-family="Times,serif" font-size="14.00">causó</text>
<text text-anchor="middle" x="1742.73" y="-810.45" font-family="Times,serif" font-size="14.00">vmis3s0 (root)</text>
<text text-anchor="middle" x="1742.73" y="-795.45" font-family="Times,serif" font-size="14.00">rep=no, t=no, r=yes, m=yes, c=no</text>
</g>
<!-- n1 -->
<g id="node2" class="node">
<title>n1</title>
<ellipse fill="none" stroke="black" cx="564.73" cy="-703.2" rx="181.95" ry="37.45"/>
<text text-anchor="middle" x="564.73" y="-714.5" font-family="Times,serif" font-size="14.00">Al</text>
<text text-anchor="middle" x="564.73" y="-699.5" font-family="Times,serif" font-size="14.00">sps00 (advcl)</text>
<text text-anchor="middle" x="564.73" y="-684.5" font-family="Times,serif" font-size="14.00">rep=no, t=no, r=no, m=no, c=no</text>
</g>
<!-- n23&#45;&gt;n1 -->
<g id="edge1" class="edge">
<title>n23&#45;&gt;n1</title>
<path fill="none" stroke="black" d="M1556.07,-805.87C1357.11,-796.61 1033.17,-777.23 755.73,-740.67 737.71,-738.3 718.83,-735.31 700.24,-732.07"/>
<polygon fill="black" stroke="black" points="700.71,-728.6 690.25,-730.3 699.49,-735.49 700.71,-728.6"/>
</g>
<!-- n11 -->
<g id="node3" class="node">
<title>n11</title>
<ellipse fill="none" stroke="black" cx="946.73" cy="-703.2" rx="181.95" ry="37.45"/>
<text text-anchor="middle" x="946.73" y="-714.5" font-family="Times,serif" font-size="14.00">,</text>
<text text-anchor="middle" x="946.73" y="-699.5" font-family="Times,serif" font-size="14.00">fc (punct)</text>
<text text-anchor="middle" x="946.73" y="-684.5" font-family="Times,serif" font-size="14.00">rep=no, t=no, r=no, m=no, c=no</text>
</g>
<!-- n23&#45;&gt;n11 -->
<g id="edge2" class="edge">
<title>n23&#45;&gt;n11</title>
<path fill="none" stroke="black" d="M1574.74,-796.19C1453.09,-783.14 1284.86,-763.51 1137.73,-740.67 1120.49,-738 1102.42,-734.92 1084.57,-731.7"/>
<polygon fill="black" stroke="black" points="1085.15,-728.25 1074.68,-729.9 1083.89,-735.14 1085.15,-728.25"/>
</g>
<!-- n13 -->
<g id="node4" class="node">
<title>n13</title>
<ellipse fill="#98D2A5" stroke="black" cx="1337.73" cy="-703.2" rx="190.84" ry="37.45"/>
<text text-anchor="middle" x="1337.73" y="-714.5" font-family="Times,serif" font-size="14.00">atentado</text>
<text text-anchor="middle" x="1337.73" y="-699.5" font-family="Times,serif" font-size="14.00">ncms000 (nsubj)</text>
<text text-anchor="middle" x="1337.73" y="-684.5" font-family="Times,serif" font-size="14.00">rep=no, t=yes, r=no, m=yes, c=no</text>
</g>
<!-- n23&#45;&gt;n13 -->
<g id="edge3" class="edge">
<title>n23&#45;&gt;n13</title>
<path fill="none" stroke="black" d="M1632.59,-783.52C1578.46,-768.96 1513.11,-751.38 1457.71,-736.47"/>
<polygon fill="black" stroke="black" points="1458.4,-733.04 1447.84,-733.82 1456.58,-739.8 1458.4,-733.04"/>
</g>
<!-- n25 -->
<g id="node5" class="node">
<title>n25</title>
<ellipse fill="#98D2A5" stroke="black" cx="1742.73" cy="-703.2" rx="195.74" ry="37.45"/>
<text text-anchor="middle" x="1742.73" y="-714.5" font-family="Times,serif" font-size="14.00">muerto</text>
<text text-anchor="middle" x="1742.73" y="-699.5" font-family="Times,serif" font-size="14.00">ncms000 (dobj)</text>
<text text-anchor="middle" x="1742.73" y="-684.5" font-family="Times,serif" font-size="14.00">rep=no, t=no, r=yes, m=yes, c=yes</text>
</g>
<!-- n23&#45;&gt;n25 -->
<g id="edge4" class="edge">
<title>n23&#45;&gt;n25</title>
<path fill="none" stroke="black" d="M1742.73,-776.57C1742.73,-768.39 1742.73,-759.61 1742.73,-751.09"/>
<polygon fill="black" stroke="black" points="1746.23,-750.87 1742.73,-740.87 1739.23,-750.87 1746.23,-750.87"/>
</g>
<!-- n26 -->
<g id="node6" class="node">
<title>n26</title>
<ellipse fill="#98D2A5" stroke="black" cx="2147.73" cy="-703.2" rx="190.84" ry="37.45"/>
<text text-anchor="middle" x="2147.73" y="-714.5" font-family="Times,serif" font-size="14.00">y</text>
<text text-anchor="middle" x="2147.73" y="-699.5" font-family="Times,serif" font-size="14.00">cc (coord_fixed)</text>
<text text-anchor="middle" x="2147.73" y="-684.5" font-family="Times,serif" font-size="14.00">rep=no, t=no, r=yes, m=yes, c=no</text>
</g>
<!-- n23&#45;&gt;n26 -->
<g id="edge5" class="edge">
<title>n23&#45;&gt;n26</title>
<path fill="none" stroke="black" d="M1852.86,-783.52C1907,-768.96 1972.34,-751.38 2027.75,-736.47"/>
<polygon fill="black" stroke="black" points="2028.87,-739.8 2037.62,-733.82 2027.05,-733.04 2028.87,-739.8"/>
</g>
<!-- n28 -->
<g id="node7" class="node">
<title>n28</title>
<ellipse fill="#98D2A5" stroke="black" cx="2552.73" cy="-703.2" rx="195.74" ry="37.45"/>
<text text-anchor="middle" x="2552.73" y="-714.5" font-family="Times,serif" font-size="14.00">veintena</text>
<text text-anchor="middle" x="2552.73" y="-699.5" font-family="Times,serif" font-size="14.00">ncfs000 (dobj)</text>
<text text-anchor="middle" x="2552.73" y="-684.5" font-family="Times,serif" font-size="14.00">rep=no, t=no, r=yes, m=yes, c=yes</text>
</g>
<!-- n23&#45;&gt;n28 -->
<g id="edge6" class="edge">
<title>n23&#45;&gt;n28</title>
<path fill="none" stroke="black" d="M1909.34,-795.77C2031.05,-782.45 2199.93,-762.66 2347.73,-740.67 2366.22,-737.92 2385.62,-734.79 2404.79,-731.55"/>
<polygon fill="black" stroke="black" points="2405.52,-734.98 2414.79,-729.85 2404.34,-728.08 2405.52,-734.98"/>
</g>
<!-- n31 -->
<g id="node8" class="node">
<title>n31</title>
<ellipse fill="none" stroke="black" cx="2948.73" cy="-703.2" rx="181.95" ry="37.45"/>
<text text-anchor="middle" x="2948.73" y="-714.5" font-family="Times,serif" font-size="14.00">.</text>
<text text-anchor="middle" x="2948.73" y="-699.5" font-family="Times,serif" font-size="14.00">fp (punct)</text>
<text text-anchor="middle" x="2948.73" y="-684.5" font-family="Times,serif" font-size="14.00">rep=no, t=no, r=no, m=no, c=no</text>
</g>
<!-- n23&#45;&gt;n31 -->
<g id="edge7" class="edge">
<title>n23&#45;&gt;n31</title>
<path fill="none" stroke="black" d="M1929.53,-806.39C2133.66,-797.47 2470,-778.29 2757.73,-740.67 2775.74,-738.32 2794.63,-735.34 2813.22,-732.11"/>
<polygon fill="black" stroke="black" points="2813.97,-735.53 2823.21,-730.34 2812.75,-728.63 2813.97,-735.53"/>
</g>
<!-- n3 -->
<g id="node9" class="node">
<title>n3</title>
<ellipse fill="none" stroke="black" cx="562.73" cy="-592.24" rx="181.95" ry="37.45"/>
<text text-anchor="middle" x="562.73" y="-603.54" font-family="Times,serif" font-size="14.00">tiempo</text>
<text text-anchor="middle" x="562.73" y="-588.54" font-family="Times,serif" font-size="14.00">ncms000 (pobj)</text>
<text text-anchor="middle" x="562.73" y="-573.54" font-family="Times,serif" font-size="14.00">rep=no, t=no, r=no, m=no, c=no</text>
</g>
<!-- n1&#45;&gt;n3 -->
<g id="edge8" class="edge">
<title>n1&#45;&gt;n3</title>
<path fill="none" stroke="black" d="M564.05,-665.61C563.9,-657.44 563.74,-648.66 563.59,-640.13"/>
<polygon fill="black" stroke="black" points="567.08,-639.85 563.4,-629.92 560.08,-639.98 567.08,-639.85"/>
</g>
<!-- n12 -->
<g id="node18" class="node">
<title>n12</title>
<ellipse fill="#98D2A5" stroke="black" cx="953.73" cy="-592.24" rx="190.84" ry="37.45"/>
<text text-anchor="middle" x="953.73" y="-603.54" font-family="Times,serif" font-size="14.00">un</text>
<text text-anchor="middle" x="953.73" y="-588.54" font-family="Times,serif" font-size="14.00">di0ms0 (det)</text>
<text text-anchor="middle" x="953.73" y="-573.54" font-family="Times,serif" font-size="14.00">rep=no, t=yes, r=no, m=yes, c=no</text>
</g>
<!-- n13&#45;&gt;n12 -->
<g id="edge17" class="edge">
<title>n13&#45;&gt;n12</title>
<path fill="none" stroke="black" d="M1231.27,-671.99C1181.12,-657.76 1121.19,-640.76 1069.87,-626.2"/>
<polygon fill="black" stroke="black" points="1070.63,-622.77 1060.06,-623.41 1068.72,-629.51 1070.63,-622.77"/>
</g>
<!-- n14 -->
<g id="node19" class="node">
<title>n14</title>
<ellipse fill="#98D2A5" stroke="black" cx="1353.73" cy="-592.24" rx="190.84" ry="37.45"/>
<text text-anchor="middle" x="1353.73" y="-603.54" font-family="Times,serif" font-size="14.00">en</text>
<text text-anchor="middle" x="1353.73" y="-588.54" font-family="Times,serif" font-size="14.00">sps00 (prepn)</text>
<text text-anchor="middle" x="1353.73" y="-573.54" font-family="Times,serif" font-size="14.00">rep=no, t=yes, r=no, m=yes, c=no</text>
</g>
<!-- n13&#45;&gt;n14 -->
<g id="edge18" class="edge">
<title>n13&#45;&gt;n14</title>
<path fill="none" stroke="black" d="M1343.1,-665.61C1344.31,-657.35 1345.62,-648.47 1346.88,-639.85"/>
<polygon fill="black" stroke="black" points="1350.35,-640.32 1348.34,-629.92 1343.43,-639.3 1350.35,-640.32"/>
</g>
<!-- n24 -->
<g id="node28" class="node">
<title>n24</title>
<ellipse fill="#98D2A5" stroke="black" cx="1753.73" cy="-592.24" rx="190.84" ry="37.45"/>
<text text-anchor="middle" x="1753.73" y="-603.54" font-family="Times,serif" font-size="14.00">un</text>
<text text-anchor="middle" x="1753.73" y="-588.54" font-family="Times,serif" font-size="14.00">di0ms0 (det)</text>
<text text-anchor="middle" x="1753.73" y="-573.54" font-family="Times,serif" font-size="14.00">rep=no, t=no, r=yes, m=yes, c=no</text>
</g>
<!-- n25&#45;&gt;n24 -->
<g id="edge27" class="edge">
<title>n25&#45;&gt;n24</title>
<path fill="none" stroke="black" d="M1746.42,-665.61C1747.25,-657.44 1748.13,-648.66 1748.99,-640.13"/>
<polygon fill="black" stroke="black" points="1752.5,-640.22 1750.02,-629.92 1745.54,-639.51 1752.5,-640.22"/>
</g>
<!-- n27 -->
<g id="node29" class="node">
<title>n27</title>
<ellipse fill="#98D2A5" stroke="black" cx="2352.73" cy="-592.24" rx="190.84" ry="37.45"/>
<text text-anchor="middle" x="2352.73" y="-603.54" font-family="Times,serif" font-size="14.00">una</text>
<text text-anchor="middle" x="2352.73" y="-588.54" font-family="Times,serif" font-size="14.00">di0fs0 (det)</text>
<text text-anchor="middle" x="2352.73" y="-573.54" font-family="Times,serif" font-size="14.00">rep=no, t=no, r=yes, m=yes, c=no</text>
</g>
<!-- n28&#45;&gt;n27 -->
<g id="edge28" class="edge">
<title>n28&#45;&gt;n27</title>
<path fill="none" stroke="black" d="M2489.45,-667.72C2468.92,-656.54 2445.99,-644.05 2424.87,-632.54"/>
<polygon fill="black" stroke="black" points="2426.39,-629.39 2415.94,-627.68 2423.05,-635.54 2426.39,-629.39"/>
</g>
<!-- n29 -->
<g id="node30" class="node">
<title>n29</title>
<ellipse fill="#98D2A5" stroke="black" cx="2752.73" cy="-592.24" rx="190.84" ry="37.45"/>
<text text-anchor="middle" x="2752.73" y="-603.54" font-family="Times,serif" font-size="14.00">de</text>
<text text-anchor="middle" x="2752.73" y="-588.54" font-family="Times,serif" font-size="14.00">sps00 (prepn)</text>
<text text-anchor="middle" x="2752.73" y="-573.54" font-family="Times,serif" font-size="14.00">rep=no, t=no, r=yes, m=yes, c=no</text>
</g>
<!-- n28&#45;&gt;n29 -->
<g id="edge29" class="edge">
<title>n28&#45;&gt;n29</title>
<path fill="none" stroke="black" d="M2616.01,-667.72C2636.54,-656.54 2659.46,-644.05 2680.58,-632.54"/>
<polygon fill="black" stroke="black" points="2682.41,-635.54 2689.51,-627.68 2679.06,-629.39 2682.41,-635.54"/>
</g>
<!-- n2 -->
<g id="node10" class="node">
<title>n2</title>
<ellipse fill="none" stroke="black" cx="181.73" cy="-481.29" rx="181.95" ry="37.45"/>
<text text-anchor="middle" x="181.73" y="-492.59" font-family="Times,serif" font-size="14.00">mismo</text>
<text text-anchor="middle" x="181.73" y="-477.59" font-family="Times,serif" font-size="14.00">di0ms0 (det)</text>
<text text-anchor="middle" x="181.73" y="-462.59" font-family="Times,serif" font-size="14.00">rep=no, t=no, r=no, m=no, c=no</text>
</g>
<!-- n3&#45;&gt;n2 -->
<g id="edge9" class="edge">
<title>n3&#45;&gt;n2</title>
<path fill="none" stroke="black" d="M458.62,-561.47C408.11,-547.03 347.33,-529.65 295.6,-514.85"/>
<polygon fill="black" stroke="black" points="296.29,-511.41 285.71,-512.03 294.36,-518.14 296.29,-511.41"/>
</g>
<!-- n4 -->
<g id="node11" class="node">
<title>n4</title>
<ellipse fill="none" stroke="black" cx="562.73" cy="-481.29" rx="181.95" ry="37.45"/>
<text text-anchor="middle" x="562.73" y="-492.59" font-family="Times,serif" font-size="14.00">que</text>
<text text-anchor="middle" x="562.73" y="-477.59" font-family="Times,serif" font-size="14.00">pr0cn000 (nsubj)</text>
<text text-anchor="middle" x="562.73" y="-462.59" font-family="Times,serif" font-size="14.00">rep=no, t=no, r=no, m=no, c=no</text>
</g>
<!-- n3&#45;&gt;n4 -->
<g id="edge10" class="edge">
<title>n3&#45;&gt;n4</title>
<path fill="none" stroke="black" d="M562.73,-554.66C562.73,-546.49 562.73,-537.71 562.73,-529.18"/>
<polygon fill="black" stroke="black" points="566.23,-528.96 562.73,-518.96 559.23,-528.96 566.23,-528.96"/>
</g>
<!-- n5 -->
<g id="node12" class="node">
<title>n5</title>
<ellipse fill="none" stroke="black" cx="181.73" cy="-370.34" rx="181.95" ry="37.45"/>
<text text-anchor="middle" x="181.73" y="-381.64" font-family="Times,serif" font-size="14.00">se</text>
<text text-anchor="middle" x="181.73" y="-366.64" font-family="Times,serif" font-size="14.00">p0000000 (reflec)</text>
<text text-anchor="middle" x="181.73" y="-351.64" font-family="Times,serif" font-size="14.00">rep=no, t=no, r=no, m=no, c=no</text>
</g>
<!-- n4&#45;&gt;n5 -->
<g id="edge11" class="edge">
<title>n4&#45;&gt;n5</title>
<path fill="none" stroke="black" d="M458.62,-450.52C408.11,-436.08 347.33,-418.69 295.6,-403.9"/>
<polygon fill="black" stroke="black" points="296.29,-400.46 285.71,-401.07 294.36,-407.19 296.29,-400.46"/>
</g>
<!-- n6 -->
<g id="node13" class="node">
<title>n6</title>
<ellipse fill="none" stroke="black" cx="562.73" cy="-370.34" rx="181.95" ry="37.45"/>
<text text-anchor="middle" x="562.73" y="-381.64" font-family="Times,serif" font-size="14.00">registraban</text>
<text text-anchor="middle" x="562.73" y="-366.64" font-family="Times,serif" font-size="14.00">vmii3p0 (cobj)</text>
<text text-anchor="middle" x="562.73" y="-351.64" font-family="Times,serif" font-size="14.00">rep=no, t=no, r=no, m=no, c=no</text>
</g>
<!-- n4&#45;&gt;n6 -->
<g id="edge12" class="edge">
<title>n4&#45;&gt;n6</title>
<path fill="none" stroke="black" d="M562.73,-443.71C562.73,-435.53 562.73,-426.75 562.73,-418.23"/>
<polygon fill="black" stroke="black" points="566.23,-418.01 562.73,-408.01 559.23,-418.01 566.23,-418.01"/>
</g>
<!-- n8 -->
<g id="node14" class="node">
<title>n8</title>
<ellipse fill="none" stroke="black" cx="562.73" cy="-259.38" rx="181.95" ry="37.45"/>
<text text-anchor="middle" x="562.73" y="-270.68" font-family="Times,serif" font-size="14.00">gestos</text>
<text text-anchor="middle" x="562.73" y="-255.68" font-family="Times,serif" font-size="14.00">ncmp000 (cobj)</text>
<text text-anchor="middle" x="562.73" y="-240.68" font-family="Times,serif" font-size="14.00">rep=no, t=no, r=no, m=no, c=no</text>
</g>
<!-- n6&#45;&gt;n8 -->
<g id="edge13" class="edge">
<title>n6&#45;&gt;n8</title>
<path fill="none" stroke="black" d="M562.73,-332.75C562.73,-324.58 562.73,-315.8 562.73,-307.27"/>
<polygon fill="black" stroke="black" points="566.23,-307.06 562.73,-297.06 559.23,-307.06 566.23,-307.06"/>
</g>
<!-- n7 -->
<g id="node15" class="node">
<title>n7</title>
<ellipse fill="none" stroke="black" cx="372.73" cy="-148.43" rx="181.95" ry="37.45"/>
<text text-anchor="middle" x="372.73" y="-159.73" font-family="Times,serif" font-size="14.00">esos</text>
<text text-anchor="middle" x="372.73" y="-144.73" font-family="Times,serif" font-size="14.00">dd0mp0 (det)</text>
<text text-anchor="middle" x="372.73" y="-129.73" font-family="Times,serif" font-size="14.00">rep=no, t=no, r=no, m=no, c=no</text>
</g>
<!-- n8&#45;&gt;n7 -->
<g id="edge14" class="edge">
<title>n8&#45;&gt;n7</title>
<path fill="none" stroke="black" d="M502.61,-223.91C483.19,-212.78 461.52,-200.35 441.53,-188.89"/>
<polygon fill="black" stroke="black" points="443.19,-185.8 432.78,-183.87 439.71,-191.88 443.19,-185.8"/>
</g>
<!-- n9 -->
<g id="node16" class="node">
<title>n9</title>
<ellipse fill="none" stroke="black" cx="753.73" cy="-148.43" rx="181.95" ry="37.45"/>
<text text-anchor="middle" x="753.73" y="-159.73" font-family="Times,serif" font-size="14.00">de</text>
<text text-anchor="middle" x="753.73" y="-144.73" font-family="Times,serif" font-size="14.00">sps00 (prepn)</text>
<text text-anchor="middle" x="753.73" y="-129.73" font-family="Times,serif" font-size="14.00">rep=no, t=no, r=no, m=no, c=no</text>
</g>
<!-- n8&#45;&gt;n9 -->
<g id="edge15" class="edge">
<title>n8&#45;&gt;n9</title>
<path fill="none" stroke="black" d="M623.16,-223.91C642.68,-212.78 664.46,-200.35 684.56,-188.89"/>
<polygon fill="black" stroke="black" points="686.41,-191.86 693.36,-183.87 682.94,-185.78 686.41,-191.86"/>
</g>
<!-- n10 -->
<g id="node17" class="node">
<title>n10</title>
<ellipse fill="none" stroke="black" cx="753.73" cy="-37.48" rx="181.95" ry="37.45"/>
<text text-anchor="middle" x="753.73" y="-48.78" font-family="Times,serif" font-size="14.00">cordialidad</text>
<text text-anchor="middle" x="753.73" y="-33.78" font-family="Times,serif" font-size="14.00">ncfs000 (pobj)</text>
<text text-anchor="middle" x="753.73" y="-18.78" font-family="Times,serif" font-size="14.00">rep=no, t=no, r=no, m=no, c=no</text>
</g>
<!-- n9&#45;&gt;n10 -->
<g id="edge16" class="edge">
<title>n9&#45;&gt;n10</title>
<path fill="none" stroke="black" d="M753.73,-110.85C753.73,-102.67 753.73,-93.89 753.73,-85.37"/>
<polygon fill="black" stroke="black" points="757.23,-85.15 753.73,-75.15 750.23,-85.15 757.23,-85.15"/>
</g>
<!-- n16 -->
<g id="node20" class="node">
<title>n16</title>
<ellipse fill="#98D2A5" stroke="black" cx="1353.73" cy="-481.29" rx="190.84" ry="37.45"/>
<text text-anchor="middle" x="1353.73" y="-492.59" font-family="Times,serif" font-size="14.00">parte</text>
<text text-anchor="middle" x="1353.73" y="-477.59" font-family="Times,serif" font-size="14.00">ncfs000 (pobj)</text>
<text text-anchor="middle" x="1353.73" y="-462.59" font-family="Times,serif" font-size="14.00">rep=no, t=yes, r=no, m=yes, c=no</text>
</g>
<!-- n14&#45;&gt;n16 -->
<g id="edge19" class="edge">
<title>n14&#45;&gt;n16</title>
<path fill="none" stroke="black" d="M1353.73,-554.66C1353.73,-546.49 1353.73,-537.71 1353.73,-529.18"/>
<polygon fill="black" stroke="black" points="1357.23,-528.96 1353.73,-518.96 1350.23,-528.96 1357.23,-528.96"/>
</g>
<!-- n15 -->
<g id="node21" class="node">
<title>n15</title>
<ellipse fill="#98D2A5" stroke="black" cx="953.73" cy="-370.34" rx="190.84" ry="37.45"/>
<text text-anchor="middle" x="953.73" y="-381.64" font-family="Times,serif" font-size="14.00">la</text>
<text text-anchor="middle" x="953.73" y="-366.64" font-family="Times,serif" font-size="14.00">da0fs0 (det)</text>
<text text-anchor="middle" x="953.73" y="-351.64" font-family="Times,serif" font-size="14.00">rep=no, t=yes, r=no, m=yes, c=no</text>
</g>
<!-- n16&#45;&gt;n15 -->
<g id="edge20" class="edge">
<title>n16&#45;&gt;n15</title>
<path fill="none" stroke="black" d="M1244.42,-450.52C1191.29,-436.04 1127.32,-418.62 1072.93,-403.81"/>
<polygon fill="black" stroke="black" points="1073.81,-400.42 1063.24,-401.17 1071.97,-407.17 1073.81,-400.42"/>
</g>
<!-- n17 -->
<g id="node22" class="node">
<title>n17</title>
<ellipse fill="#98D2A5" stroke="black" cx="1353.73" cy="-370.34" rx="190.84" ry="37.45"/>
<text text-anchor="middle" x="1353.73" y="-381.64" font-family="Times,serif" font-size="14.00">de</text>
<text text-anchor="middle" x="1353.73" y="-366.64" font-family="Times,serif" font-size="14.00">sps00 (prepn)</text>
<text text-anchor="middle" x="1353.73" y="-351.64" font-family="Times,serif" font-size="14.00">rep=no, t=yes, r=no, m=yes, c=no</text>
</g>
<!-- n16&#45;&gt;n17 -->
<g id="edge21" class="edge">
<title>n16&#45;&gt;n17</title>
<path fill="none" stroke="black" d="M1353.73,-443.71C1353.73,-435.53 1353.73,-426.75 1353.73,-418.23"/>
<polygon fill="black" stroke="black" points="1357.23,-418.01 1353.73,-408.01 1350.23,-418.01 1357.23,-418.01"/>
</g>
<!-- n19 -->
<g id="node23" class="node">
<title>n19</title>
<ellipse fill="#98D2A5" stroke="black" cx="1753.73" cy="-370.34" rx="190.84" ry="37.45"/>
<text text-anchor="middle" x="1753.73" y="-381.64" font-family="Times,serif" font-size="14.00">administrada</text>
<text text-anchor="middle" x="1753.73" y="-366.64" font-family="Times,serif" font-size="14.00">aq0fsp (amod)</text>
<text text-anchor="middle" x="1753.73" y="-351.64" font-family="Times,serif" font-size="14.00">rep=no, t=yes, r=no, m=yes, c=no</text>
</g>
<!-- n16&#45;&gt;n19 -->
<g id="edge22" class="edge">
<title>n16&#45;&gt;n19</title>
<path fill="none" stroke="black" d="M1463.03,-450.52C1516.16,-436.04 1580.13,-418.62 1634.52,-403.81"/>
<polygon fill="black" stroke="black" points="1635.48,-407.17 1644.21,-401.17 1633.64,-400.42 1635.48,-407.17"/>
</g>
<!-- n18 -->
<g id="node24" class="node">
<title>n18</title>
<ellipse fill="#98D2A5" stroke="black" cx="1353.73" cy="-259.38" rx="190.84" ry="37.45"/>
<text text-anchor="middle" x="1353.73" y="-270.68" font-family="Times,serif" font-size="14.00">Cachemira</text>
<text text-anchor="middle" x="1353.73" y="-255.68" font-family="Times,serif" font-size="14.00">np00000 (pobj)</text>
<text text-anchor="middle" x="1353.73" y="-240.68" font-family="Times,serif" font-size="14.00">rep=no, t=yes, r=no, m=yes, c=no</text>
</g>
<!-- n17&#45;&gt;n18 -->
<g id="edge23" class="edge">
<title>n17&#45;&gt;n18</title>
<path fill="none" stroke="black" d="M1353.73,-332.75C1353.73,-324.58 1353.73,-315.8 1353.73,-307.27"/>
<polygon fill="black" stroke="black" points="1357.23,-307.06 1353.73,-297.06 1350.23,-307.06 1357.23,-307.06"/>
</g>
<!-- n20 -->
<g id="node25" class="node">
<title>n20</title>
<ellipse fill="#98D2A5" stroke="black" cx="1753.73" cy="-259.38" rx="190.84" ry="37.45"/>
<text text-anchor="middle" x="1753.73" y="-270.68" font-family="Times,serif" font-size="14.00">por</text>
<text text-anchor="middle" x="1753.73" y="-255.68" font-family="Times,serif" font-size="14.00">sps00 (agent)</text>
<text text-anchor="middle" x="1753.73" y="-240.68" font-family="Times,serif" font-size="14.00">rep=no, t=yes, r=no, m=yes, c=no</text>
</g>
<!-- n19&#45;&gt;n20 -->
<g id="edge24" class="edge">
<title>n19&#45;&gt;n20</title>
<path fill="none" stroke="black" d="M1753.73,-332.75C1753.73,-324.58 1753.73,-315.8 1753.73,-307.27"/>
<polygon fill="black" stroke="black" points="1757.23,-307.06 1753.73,-297.06 1750.23,-307.06 1757.23,-307.06"/>
</g>
<!-- n22 -->
<g id="node26" class="node">
<title>n22</title>
<ellipse fill="#98D2A5" stroke="black" cx="1753.73" cy="-148.43" rx="190.84" ry="37.45"/>
<text text-anchor="middle" x="1753.73" y="-159.73" font-family="Times,serif" font-size="14.00">India</text>
<text text-anchor="middle" x="1753.73" y="-144.73" font-family="Times,serif" font-size="14.00">np00000 (pobj)</text>
<text text-anchor="middle" x="1753.73" y="-129.73" font-family="Times,serif" font-size="14.00">rep=no, t=yes, r=no, m=yes, c=no</text>
</g>
<!-- n20&#45;&gt;n22 -->
<g id="edge25" class="edge">
<title>n20&#45;&gt;n22</title>
<path fill="none" stroke="black" d="M1753.73,-221.8C1753.73,-213.63 1753.73,-204.85 1753.73,-196.32"/>
<polygon fill="black" stroke="black" points="1757.23,-196.1 1753.73,-186.1 1750.23,-196.1 1757.23,-196.1"/>
</g>
<!-- n21 -->
<g id="node27" class="node">
<title>n21</title>
<ellipse fill="#98D2A5" stroke="black" cx="1753.73" cy="-37.48" rx="190.84" ry="37.45"/>
<text text-anchor="middle" x="1753.73" y="-48.78" font-family="Times,serif" font-size="14.00">la</text>
<text text-anchor="middle" x="1753.73" y="-33.78" font-family="Times,serif" font-size="14.00">da0fs0 (det)</text>
<text text-anchor="middle" x="1753.73" y="-18.78" font-family="Times,serif" font-size="14.00">rep=no, t=yes, r=no, m=yes, c=no</text>
</g>
<!-- n22&#45;&gt;n21 -->
<g id="edge26" class="edge">
<title>n22&#45;&gt;n21</title>
<path fill="none" stroke="black" d="M1753.73,-110.85C1753.73,-102.67 1753.73,-93.89 1753.73,-85.37"/>
<polygon fill="black" stroke="black" points="1757.23,-85.15 1753.73,-75.15 1750.23,-85.15 1757.23,-85.15"/>
</g>
<!-- n30 -->
<g id="node31" class="node">
<title>n30</title>
<ellipse fill="#98D2A5" stroke="black" cx="2752.73" cy="-481.29" rx="190.84" ry="37.45"/>
<text text-anchor="middle" x="2752.73" y="-492.59" font-family="Times,serif" font-size="14.00">heridos</text>
<text text-anchor="middle" x="2752.73" y="-477.59" font-family="Times,serif" font-size="14.00">ncmp000 (pobj)</text>
<text text-anchor="middle" x="2752.73" y="-462.59" font-family="Times,serif" font-size="14.00">rep=no, t=no, r=yes, m=yes, c=no</text>
</g>
<!-- n29&#45;&gt;n30 -->
<g id="edge30" class="edge">
<title>n29&#45;&gt;n30</title>
<path fill="none" stroke="black" d="M2752.73,-554.66C2752.73,-546.49 2752.73,-537.71 2752.73,-529.18"/>
<polygon fill="black" stroke="black" points="2756.23,-528.96 2752.73,-518.96 2749.23,-528.96 2756.23,-528.96"/>
</g>
</g>
</svg>
