<?xml version="1.0" encoding="UTF-8" standalone="no"?>
<!DOCTYPE svg PUBLIC "-//W3C//DTD SVG 1.1//EN"
 "http://www.w3.org/Graphics/SVG/1.1/DTD/svg11.dtd">
<!-- Generated by graphviz version 2.43.0 (0)
 -->
<!-- Title: tree Pages: 1 -->
<svg width="2925pt" height="749pt"
 viewBox="0.00 0.00 2924.89 748.67" xmlns="http://www.w3.org/2000/svg" xmlns:xlink="http://www.w3.org/1999/xlink">
<g id="graph0" class="graph" transform="scale(1 1) rotate(0) translate(4 744.67)">
<title>tree</title>
<polygon fill="white" stroke="transparent" points="-4,4 -4,-744.67 2920.89,-744.67 2920.89,4 -4,4"/>
<!-- n14 -->
<g id="node1" class="node">
<title>n14</title>
<ellipse fill="#98D2A5" stroke="black" cx="1558.92" cy="-703.2" rx="185.94" ry="37.45"/>
<text text-anchor="middle" x="1558.92" y="-714.5" font-family="Times,serif" font-size="14.00">y</text>
<text text-anchor="middle" x="1558.92" y="-699.5" font-family="Times,serif" font-size="14.00">cc (root)</text>
<text text-anchor="middle" x="1558.92" y="-684.5" font-family="Times,serif" font-size="14.00">rep=no, t=no, r=no, m=yes, c=no</text>
</g>
<!-- n4 -->
<g id="node2" class="node">
<title>n4</title>
<ellipse fill="#98D2A5" stroke="black" cx="975.92" cy="-592.24" rx="185.94" ry="37.45"/>
<text text-anchor="middle" x="975.92" y="-603.54" font-family="Times,serif" font-size="14.00">es</text>
<text text-anchor="middle" x="975.92" y="-588.54" font-family="Times,serif" font-size="14.00">vsip3s0 (coord)</text>
<text text-anchor="middle" x="975.92" y="-573.54" font-family="Times,serif" font-size="14.00">rep=no, t=no, r=no, m=yes, c=no</text>
</g>
<!-- n14&#45;&gt;n4 -->
<g id="edge1" class="edge">
<title>n14&#45;&gt;n4</title>
<path fill="none" stroke="black" d="M1424.8,-677.13C1333.64,-660.1 1213.16,-637.58 1119.97,-620.16"/>
<polygon fill="black" stroke="black" points="1120.36,-616.68 1109.89,-618.28 1119.08,-623.56 1120.36,-616.68"/>
</g>
<!-- n13 -->
<g id="node3" class="node">
<title>n13</title>
<ellipse fill="none" stroke="black" cx="1365.92" cy="-592.24" rx="181.95" ry="37.45"/>
<text text-anchor="middle" x="1365.92" y="-603.54" font-family="Times,serif" font-size="14.00">,</text>
<text text-anchor="middle" x="1365.92" y="-588.54" font-family="Times,serif" font-size="14.00">fc (punct)</text>
<text text-anchor="middle" x="1365.92" y="-573.54" font-family="Times,serif" font-size="14.00">rep=no, t=no, r=no, m=no, c=no</text>
</g>
<!-- n14&#45;&gt;n13 -->
<g id="edge2" class="edge">
<title>n14&#45;&gt;n13</title>
<path fill="none" stroke="black" d="M1497.85,-667.72C1478.13,-656.59 1456.12,-644.16 1435.81,-632.7"/>
<polygon fill="black" stroke="black" points="1437.35,-629.55 1426.92,-627.68 1433.91,-635.64 1437.35,-629.55"/>
</g>
<!-- n16 -->
<g id="node4" class="node">
<title>n16</title>
<ellipse fill="#98D2A5" stroke="black" cx="1751.92" cy="-592.24" rx="185.94" ry="37.45"/>
<text text-anchor="middle" x="1751.92" y="-603.54" font-family="Times,serif" font-size="14.00">demuestra</text>
<text text-anchor="middle" x="1751.92" y="-588.54" font-family="Times,serif" font-size="14.00">vmip3s0 (coord)</text>
<text text-anchor="middle" x="1751.92" y="-573.54" font-family="Times,serif" font-size="14.00">rep=no, t=no, r=no, m=yes, c=no</text>
</g>
<!-- n14&#45;&gt;n16 -->
<g id="edge3" class="edge">
<title>n14&#45;&gt;n16</title>
<path fill="none" stroke="black" d="M1619.99,-667.72C1639.71,-656.59 1661.72,-644.16 1682.03,-632.7"/>
<polygon fill="black" stroke="black" points="1683.93,-635.64 1690.92,-627.68 1680.49,-629.55 1683.93,-635.64"/>
</g>
<!-- n26 -->
<g id="node5" class="node">
<title>n26</title>
<ellipse fill="none" stroke="black" cx="2137.92" cy="-592.24" rx="181.95" ry="37.45"/>
<text text-anchor="middle" x="2137.92" y="-603.54" font-family="Times,serif" font-size="14.00">.</text>
<text text-anchor="middle" x="2137.92" y="-588.54" font-family="Times,serif" font-size="14.00">fp (punct)</text>
<text text-anchor="middle" x="2137.92" y="-573.54" font-family="Times,serif" font-size="14.00">rep=no, t=no, r=no, m=no, c=no</text>
</g>
<!-- n14&#45;&gt;n26 -->
<g id="edge4" class="edge">
<title>n14&#45;&gt;n26</title>
<path fill="none" stroke="black" d="M1693.17,-677.26C1767.89,-663.34 1862.58,-645.65 1946.92,-629.72 1963.21,-626.64 1980.28,-623.4 1997.23,-620.18"/>
<polygon fill="black" stroke="black" points="1998.02,-623.59 2007.19,-618.28 1996.71,-616.71 1998.02,-623.59"/>
</g>
<!-- n3 -->
<g id="node6" class="node">
<title>n3</title>
<ellipse fill="#98D2A5" stroke="black" cx="485.92" cy="-481.29" rx="185.94" ry="37.45"/>
<text text-anchor="middle" x="485.92" y="-492.59" font-family="Times,serif" font-size="14.00">ocurre</text>
<text text-anchor="middle" x="485.92" y="-477.59" font-family="Times,serif" font-size="14.00">vmip3s0 (attr)</text>
<text text-anchor="middle" x="485.92" y="-462.59" font-family="Times,serif" font-size="14.00">rep=no, t=no, r=no, m=yes, c=no</text>
</g>
<!-- n4&#45;&gt;n3 -->
<g id="edge5" class="edge">
<title>n4&#45;&gt;n3</title>
<path fill="none" stroke="black" d="M853.22,-563.96C781.88,-548.1 691.93,-528.1 618.9,-511.86"/>
<polygon fill="black" stroke="black" points="619.23,-508.35 608.71,-509.59 617.71,-515.18 619.23,-508.35"/>
</g>
<!-- n5 -->
<g id="node7" class="node">
<title>n5</title>
<ellipse fill="#98D2A5" stroke="black" cx="975.92" cy="-481.29" rx="185.94" ry="37.45"/>
<text text-anchor="middle" x="975.92" y="-492.59" font-family="Times,serif" font-size="14.00">que</text>
<text text-anchor="middle" x="975.92" y="-477.59" font-family="Times,serif" font-size="14.00">cs (attr)</text>
<text text-anchor="middle" x="975.92" y="-462.59" font-family="Times,serif" font-size="14.00">rep=no, t=no, r=no, m=yes, c=no</text>
</g>
<!-- n4&#45;&gt;n5 -->
<g id="edge6" class="edge">
<title>n4&#45;&gt;n5</title>
<path fill="none" stroke="black" d="M975.92,-554.66C975.92,-546.49 975.92,-537.71 975.92,-529.18"/>
<polygon fill="black" stroke="black" points="979.42,-528.96 975.92,-518.96 972.42,-528.96 979.42,-528.96"/>
</g>
<!-- n15 -->
<g id="node17" class="node">
<title>n15</title>
<ellipse fill="#98D2A5" stroke="black" cx="1751.92" cy="-481.29" rx="185.94" ry="37.45"/>
<text text-anchor="middle" x="1751.92" y="-492.59" font-family="Times,serif" font-size="14.00">eso</text>
<text text-anchor="middle" x="1751.92" y="-477.59" font-family="Times,serif" font-size="14.00">pd0ns000 (nsubj)</text>
<text text-anchor="middle" x="1751.92" y="-462.59" font-family="Times,serif" font-size="14.00">rep=no, t=no, r=no, m=yes, c=no</text>
</g>
<!-- n16&#45;&gt;n15 -->
<g id="edge16" class="edge">
<title>n16&#45;&gt;n15</title>
<path fill="none" stroke="black" d="M1751.92,-554.66C1751.92,-546.49 1751.92,-537.71 1751.92,-529.18"/>
<polygon fill="black" stroke="black" points="1755.42,-528.96 1751.92,-518.96 1748.42,-528.96 1755.42,-528.96"/>
</g>
<!-- n17 -->
<g id="node18" class="node">
<title>n17</title>
<ellipse fill="#98D2A5" stroke="black" cx="2143.92" cy="-481.29" rx="185.94" ry="37.45"/>
<text text-anchor="middle" x="2143.92" y="-492.59" font-family="Times,serif" font-size="14.00">hasta</text>
<text text-anchor="middle" x="2143.92" y="-477.59" font-family="Times,serif" font-size="14.00">sps00 (dobj)</text>
<text text-anchor="middle" x="2143.92" y="-462.59" font-family="Times,serif" font-size="14.00">rep=no, t=no, r=no, m=yes, c=no</text>
</g>
<!-- n16&#45;&gt;n17 -->
<g id="edge17" class="edge">
<title>n16&#45;&gt;n17</title>
<path fill="none" stroke="black" d="M1858.78,-561.54C1910.85,-547.07 1973.59,-529.63 2026.95,-514.8"/>
<polygon fill="black" stroke="black" points="2028.1,-518.11 2036.8,-512.06 2026.22,-511.37 2028.1,-518.11"/>
</g>
<!-- n2 -->
<g id="node8" class="node">
<title>n2</title>
<ellipse fill="#98D2A5" stroke="black" cx="385.92" cy="-370.34" rx="190.84" ry="37.45"/>
<text text-anchor="middle" x="385.92" y="-381.64" font-family="Times,serif" font-size="14.00">que</text>
<text text-anchor="middle" x="385.92" y="-366.64" font-family="Times,serif" font-size="14.00">pr0cn000 (nsubj)</text>
<text text-anchor="middle" x="385.92" y="-351.64" font-family="Times,serif" font-size="14.00">rep=no, t=yes, r=no, m=yes, c=no</text>
</g>
<!-- n3&#45;&gt;n2 -->
<g id="edge7" class="edge">
<title>n3&#45;&gt;n2</title>
<path fill="none" stroke="black" d="M452.9,-444.31C444.19,-434.83 434.71,-424.5 425.69,-414.67"/>
<polygon fill="black" stroke="black" points="428.25,-412.28 418.91,-407.28 423.09,-417.01 428.25,-412.28"/>
</g>
<!-- n9 -->
<g id="node10" class="node">
<title>n9</title>
<ellipse fill="#98D2A5" stroke="black" cx="975.92" cy="-370.34" rx="185.94" ry="37.45"/>
<text text-anchor="middle" x="975.92" y="-381.64" font-family="Times,serif" font-size="14.00">somos</text>
<text text-anchor="middle" x="975.92" y="-366.64" font-family="Times,serif" font-size="14.00">vsip1p0 (cobj)</text>
<text text-anchor="middle" x="975.92" y="-351.64" font-family="Times,serif" font-size="14.00">rep=no, t=no, r=no, m=yes, c=no</text>
</g>
<!-- n5&#45;&gt;n9 -->
<g id="edge9" class="edge">
<title>n5&#45;&gt;n9</title>
<path fill="none" stroke="black" d="M975.92,-443.71C975.92,-435.53 975.92,-426.75 975.92,-418.23"/>
<polygon fill="black" stroke="black" points="979.42,-418.01 975.92,-408.01 972.42,-418.01 979.42,-418.01"/>
</g>
<!-- n1 -->
<g id="node9" class="node">
<title>n1</title>
<ellipse fill="#98D2A5" stroke="black" cx="190.92" cy="-259.38" rx="190.84" ry="37.45"/>
<text text-anchor="middle" x="190.92" y="-270.68" font-family="Times,serif" font-size="14.00">Lo</text>
<text text-anchor="middle" x="190.92" y="-255.68" font-family="Times,serif" font-size="14.00">da0ns0 (det)</text>
<text text-anchor="middle" x="190.92" y="-240.68" font-family="Times,serif" font-size="14.00">rep=no, t=yes, r=no, m=yes, c=no</text>
</g>
<!-- n2&#45;&gt;n1 -->
<g id="edge8" class="edge">
<title>n2&#45;&gt;n1</title>
<path fill="none" stroke="black" d="M324.22,-334.86C304.39,-323.78 282.27,-311.42 261.83,-300.01"/>
<polygon fill="black" stroke="black" points="263.32,-296.83 252.89,-295.01 259.91,-302.94 263.32,-296.83"/>
</g>
<!-- n6 -->
<g id="node11" class="node">
<title>n6</title>
<ellipse fill="#98D2A5" stroke="black" cx="585.92" cy="-259.38" rx="185.94" ry="37.45"/>
<text text-anchor="middle" x="585.92" y="-270.68" font-family="Times,serif" font-size="14.00">a</text>
<text text-anchor="middle" x="585.92" y="-255.68" font-family="Times,serif" font-size="14.00">sps00 (advmod)</text>
<text text-anchor="middle" x="585.92" y="-240.68" font-family="Times,serif" font-size="14.00">rep=no, t=no, r=no, m=yes, c=no</text>
</g>
<!-- n9&#45;&gt;n6 -->
<g id="edge10" class="edge">
<title>n9&#45;&gt;n6</title>
<path fill="none" stroke="black" d="M869.35,-339.56C817.54,-325.09 755.17,-307.67 702.15,-292.85"/>
<polygon fill="black" stroke="black" points="702.93,-289.44 692.36,-290.12 701.05,-296.18 702.93,-289.44"/>
</g>
<!-- n8 -->
<g id="node12" class="node">
<title>n8</title>
<ellipse fill="#98D2A5" stroke="black" cx="975.92" cy="-259.38" rx="185.94" ry="37.45"/>
<text text-anchor="middle" x="975.92" y="-270.68" font-family="Times,serif" font-size="14.00">no</text>
<text text-anchor="middle" x="975.92" y="-255.68" font-family="Times,serif" font-size="14.00">rn (neg)</text>
<text text-anchor="middle" x="975.92" y="-240.68" font-family="Times,serif" font-size="14.00">rep=no, t=no, r=no, m=yes, c=no</text>
</g>
<!-- n9&#45;&gt;n8 -->
<g id="edge11" class="edge">
<title>n9&#45;&gt;n8</title>
<path fill="none" stroke="black" d="M975.92,-332.75C975.92,-324.58 975.92,-315.8 975.92,-307.27"/>
<polygon fill="black" stroke="black" points="979.42,-307.06 975.92,-297.06 972.42,-307.06 979.42,-307.06"/>
</g>
<!-- n10 -->
<g id="node13" class="node">
<title>n10</title>
<ellipse fill="#98D2A5" stroke="black" cx="1365.92" cy="-259.38" rx="185.94" ry="37.45"/>
<text text-anchor="middle" x="1365.92" y="-270.68" font-family="Times,serif" font-size="14.00">conscientes</text>
<text text-anchor="middle" x="1365.92" y="-255.68" font-family="Times,serif" font-size="14.00">aq0cp0 (attr)</text>
<text text-anchor="middle" x="1365.92" y="-240.68" font-family="Times,serif" font-size="14.00">rep=no, t=no, r=no, m=yes, c=no</text>
</g>
<!-- n9&#45;&gt;n10 -->
<g id="edge12" class="edge">
<title>n9&#45;&gt;n10</title>
<path fill="none" stroke="black" d="M1082.49,-339.56C1134.29,-325.09 1196.66,-307.67 1249.69,-292.85"/>
<polygon fill="black" stroke="black" points="1250.79,-296.18 1259.48,-290.12 1248.91,-289.44 1250.79,-296.18"/>
</g>
<!-- n7 -->
<g id="node14" class="node">
<title>n7</title>
<ellipse fill="#98D2A5" stroke="black" cx="585.92" cy="-148.43" rx="185.94" ry="37.45"/>
<text text-anchor="middle" x="585.92" y="-159.73" font-family="Times,serif" font-size="14.00">menudo</text>
<text text-anchor="middle" x="585.92" y="-144.73" font-family="Times,serif" font-size="14.00">aq0msp (pobj)</text>
<text text-anchor="middle" x="585.92" y="-129.73" font-family="Times,serif" font-size="14.00">rep=no, t=no, r=no, m=yes, c=no</text>
</g>
<!-- n6&#45;&gt;n7 -->
<g id="edge13" class="edge">
<title>n6&#45;&gt;n7</title>
<path fill="none" stroke="black" d="M585.92,-221.8C585.92,-213.63 585.92,-204.85 585.92,-196.32"/>
<polygon fill="black" stroke="black" points="589.42,-196.1 585.92,-186.1 582.42,-196.1 589.42,-196.1"/>
</g>
<!-- n11 -->
<g id="node15" class="node">
<title>n11</title>
<ellipse fill="#98D2A5" stroke="black" cx="1365.92" cy="-148.43" rx="185.94" ry="37.45"/>
<text text-anchor="middle" x="1365.92" y="-159.73" font-family="Times,serif" font-size="14.00">de</text>
<text text-anchor="middle" x="1365.92" y="-144.73" font-family="Times,serif" font-size="14.00">sps00 (prepa)</text>
<text text-anchor="middle" x="1365.92" y="-129.73" font-family="Times,serif" font-size="14.00">rep=no, t=no, r=no, m=yes, c=no</text>
</g>
<!-- n10&#45;&gt;n11 -->
<g id="edge14" class="edge">
<title>n10&#45;&gt;n11</title>
<path fill="none" stroke="black" d="M1365.92,-221.8C1365.92,-213.63 1365.92,-204.85 1365.92,-196.32"/>
<polygon fill="black" stroke="black" points="1369.42,-196.1 1365.92,-186.1 1362.42,-196.1 1369.42,-196.1"/>
</g>
<!-- n12 -->
<g id="node16" class="node">
<title>n12</title>
<ellipse fill="#98D2A5" stroke="black" cx="1365.92" cy="-37.48" rx="185.94" ry="37.45"/>
<text text-anchor="middle" x="1365.92" y="-48.78" font-family="Times,serif" font-size="14.00">ello</text>
<text text-anchor="middle" x="1365.92" y="-33.78" font-family="Times,serif" font-size="14.00">pp3ns000 (pobj)</text>
<text text-anchor="middle" x="1365.92" y="-18.78" font-family="Times,serif" font-size="14.00">rep=no, t=no, r=no, m=yes, c=no</text>
</g>
<!-- n11&#45;&gt;n12 -->
<g id="edge15" class="edge">
<title>n11&#45;&gt;n12</title>
<path fill="none" stroke="black" d="M1365.92,-110.85C1365.92,-102.67 1365.92,-93.89 1365.92,-85.37"/>
<polygon fill="black" stroke="black" points="1369.42,-85.15 1365.92,-75.15 1362.42,-85.15 1369.42,-85.15"/>
</g>
<!-- n21 -->
<g id="node19" class="node">
<title>n21</title>
<ellipse fill="#98D2A5" stroke="black" cx="2144.92" cy="-370.34" rx="185.94" ry="37.45"/>
<text text-anchor="middle" x="2144.92" y="-381.64" font-family="Times,serif" font-size="14.00">habita</text>
<text text-anchor="middle" x="2144.92" y="-366.64" font-family="Times,serif" font-size="14.00">vmip3s0 (pobj)</text>
<text text-anchor="middle" x="2144.92" y="-351.64" font-family="Times,serif" font-size="14.00">rep=no, t=no, r=no, m=yes, c=no</text>
</g>
<!-- n17&#45;&gt;n21 -->
<g id="edge18" class="edge">
<title>n17&#45;&gt;n21</title>
<path fill="none" stroke="black" d="M2144.25,-443.71C2144.33,-435.53 2144.41,-426.75 2144.49,-418.23"/>
<polygon fill="black" stroke="black" points="2147.99,-418.04 2144.58,-408.01 2140.99,-417.98 2147.99,-418.04"/>
</g>
<!-- n19 -->
<g id="node20" class="node">
<title>n19</title>
<ellipse fill="#98D2A5" stroke="black" cx="1755.92" cy="-259.38" rx="185.94" ry="37.45"/>
<text text-anchor="middle" x="1755.92" y="-270.68" font-family="Times,serif" font-size="14.00">punto</text>
<text text-anchor="middle" x="1755.92" y="-255.68" font-family="Times,serif" font-size="14.00">ncms000 (dobj)</text>
<text text-anchor="middle" x="1755.92" y="-240.68" font-family="Times,serif" font-size="14.00">rep=no, t=no, r=no, m=yes, c=no</text>
</g>
<!-- n21&#45;&gt;n19 -->
<g id="edge19" class="edge">
<title>n21&#45;&gt;n19</title>
<path fill="none" stroke="black" d="M2038.62,-339.56C1987.06,-325.12 1925,-307.74 1872.17,-292.94"/>
<polygon fill="black" stroke="black" points="1873,-289.54 1862.42,-290.21 1871.11,-296.28 1873,-289.54"/>
</g>
<!-- n20 -->
<g id="node21" class="node">
<title>n20</title>
<ellipse fill="#98D2A5" stroke="black" cx="2145.92" cy="-259.38" rx="185.94" ry="37.45"/>
<text text-anchor="middle" x="2145.92" y="-270.68" font-family="Times,serif" font-size="14.00">Miró</text>
<text text-anchor="middle" x="2145.92" y="-255.68" font-family="Times,serif" font-size="14.00">np00000 (nsubj)</text>
<text text-anchor="middle" x="2145.92" y="-240.68" font-family="Times,serif" font-size="14.00">rep=no, t=no, r=no, m=yes, c=no</text>
</g>
<!-- n21&#45;&gt;n20 -->
<g id="edge20" class="edge">
<title>n21&#45;&gt;n20</title>
<path fill="none" stroke="black" d="M2145.25,-332.75C2145.33,-324.58 2145.41,-315.8 2145.49,-307.27"/>
<polygon fill="black" stroke="black" points="2148.99,-307.09 2145.58,-297.06 2141.99,-307.02 2148.99,-307.09"/>
</g>
<!-- n22 -->
<g id="node22" class="node">
<title>n22</title>
<ellipse fill="#98D2A5" stroke="black" cx="2535.92" cy="-259.38" rx="185.94" ry="37.45"/>
<text text-anchor="middle" x="2535.92" y="-270.68" font-family="Times,serif" font-size="14.00">en</text>
<text text-anchor="middle" x="2535.92" y="-255.68" font-family="Times,serif" font-size="14.00">sps00 (prepv)</text>
<text text-anchor="middle" x="2535.92" y="-240.68" font-family="Times,serif" font-size="14.00">rep=no, t=no, r=no, m=yes, c=no</text>
</g>
<!-- n21&#45;&gt;n22 -->
<g id="edge21" class="edge">
<title>n21&#45;&gt;n22</title>
<path fill="none" stroke="black" d="M2251.76,-339.56C2303.7,-325.09 2366.23,-307.67 2419.39,-292.85"/>
<polygon fill="black" stroke="black" points="2420.51,-296.18 2429.21,-290.12 2418.63,-289.43 2420.51,-296.18"/>
</g>
<!-- n18 -->
<g id="node23" class="node">
<title>n18</title>
<ellipse fill="#98D2A5" stroke="black" cx="1755.92" cy="-148.43" rx="185.94" ry="37.45"/>
<text text-anchor="middle" x="1755.92" y="-159.73" font-family="Times,serif" font-size="14.00">qué</text>
<text text-anchor="middle" x="1755.92" y="-144.73" font-family="Times,serif" font-size="14.00">dt0cn0 (det)</text>
<text text-anchor="middle" x="1755.92" y="-129.73" font-family="Times,serif" font-size="14.00">rep=no, t=no, r=no, m=yes, c=no</text>
</g>
<!-- n19&#45;&gt;n18 -->
<g id="edge22" class="edge">
<title>n19&#45;&gt;n18</title>
<path fill="none" stroke="black" d="M1755.92,-221.8C1755.92,-213.63 1755.92,-204.85 1755.92,-196.32"/>
<polygon fill="black" stroke="black" points="1759.42,-196.1 1755.92,-186.1 1752.42,-196.1 1759.42,-196.1"/>
</g>
<!-- n24 -->
<g id="node24" class="node">
<title>n24</title>
<ellipse fill="#98D2A5" stroke="black" cx="2535.92" cy="-148.43" rx="185.94" ry="37.45"/>
<text text-anchor="middle" x="2535.92" y="-159.73" font-family="Times,serif" font-size="14.00">mundo</text>
<text text-anchor="middle" x="2535.92" y="-144.73" font-family="Times,serif" font-size="14.00">ncms000 (pobj)</text>
<text text-anchor="middle" x="2535.92" y="-129.73" font-family="Times,serif" font-size="14.00">rep=no, t=no, r=no, m=yes, c=no</text>
</g>
<!-- n22&#45;&gt;n24 -->
<g id="edge23" class="edge">
<title>n22&#45;&gt;n24</title>
<path fill="none" stroke="black" d="M2535.92,-221.8C2535.92,-213.63 2535.92,-204.85 2535.92,-196.32"/>
<polygon fill="black" stroke="black" points="2539.42,-196.1 2535.92,-186.1 2532.42,-196.1 2539.42,-196.1"/>
</g>
<!-- n23 -->
<g id="node25" class="node">
<title>n23</title>
<ellipse fill="#98D2A5" stroke="black" cx="2340.92" cy="-37.48" rx="185.94" ry="37.45"/>
<text text-anchor="middle" x="2340.92" y="-48.78" font-family="Times,serif" font-size="14.00">nuestro</text>
<text text-anchor="middle" x="2340.92" y="-33.78" font-family="Times,serif" font-size="14.00">dp1msp (poss)</text>
<text text-anchor="middle" x="2340.92" y="-18.78" font-family="Times,serif" font-size="14.00">rep=no, t=no, r=no, m=yes, c=no</text>
</g>
<!-- n24&#45;&gt;n23 -->
<g id="edge24" class="edge">
<title>n24&#45;&gt;n23</title>
<path fill="none" stroke="black" d="M2474.22,-112.96C2454.29,-101.82 2432.05,-89.4 2411.53,-77.93"/>
<polygon fill="black" stroke="black" points="2412.99,-74.74 2402.55,-72.91 2409.57,-80.85 2412.99,-74.74"/>
</g>
<!-- n25 -->
<g id="node26" class="node">
<title>n25</title>
<ellipse fill="#98D2A5" stroke="black" cx="2730.92" cy="-37.48" rx="185.94" ry="37.45"/>
<text text-anchor="middle" x="2730.92" y="-48.78" font-family="Times,serif" font-size="14.00">visual</text>
<text text-anchor="middle" x="2730.92" y="-33.78" font-family="Times,serif" font-size="14.00">aq0cs0 (amod)</text>
<text text-anchor="middle" x="2730.92" y="-18.78" font-family="Times,serif" font-size="14.00">rep=no, t=no, r=no, m=yes, c=no</text>
</g>
<!-- n24&#45;&gt;n25 -->
<g id="edge25" class="edge">
<title>n24&#45;&gt;n25</title>
<path fill="none" stroke="black" d="M2597.62,-112.96C2617.54,-101.82 2639.79,-89.4 2660.3,-77.93"/>
<polygon fill="black" stroke="black" points="2662.26,-80.85 2669.29,-72.91 2658.85,-74.74 2662.26,-80.85"/>
</g>
</g>
</svg>
