<?xml version="1.0" encoding="UTF-8" standalone="no"?>
<!DOCTYPE svg PUBLIC "-//W3C//DTD SVG 1.1//EN"
 "http://www.w3.org/Graphics/SVG/1.1/DTD/svg11.dtd">
<!-- Generated by graphviz version 2.43.0 (0)
 -->
<!-- Title: tree Pages: 1 -->
<svg width="5052pt" height="971pt"
 viewBox="0.00 0.00 5051.65 970.58" xmlns="http://www.w3.org/2000/svg" xmlns:xlink="http://www.w3.org/1999/xlink">
<g id="graph0" class="graph" transform="scale(1 1) rotate(0) translate(4 966.58)">
<title>tree</title>
<polygon fill="white" stroke="transparent" points="-4,4 -4,-966.58 5047.65,-966.58 5047.65,4 -4,4"/>
<!-- n17 -->
<g id="node1" class="node">
<title>n17</title>
<ellipse fill="#DA79E8" stroke="black" cx="1962.73" cy="-925.1" rx="190.84" ry="37.45"/>
<text text-anchor="middle" x="1962.73" y="-936.4" font-family="Times,serif" font-size="14.00">anunció</text>
<text text-anchor="middle" x="1962.73" y="-921.4" font-family="Times,serif" font-size="14.00">vmis3s0 (root)</text>
<text text-anchor="middle" x="1962.73" y="-906.4" font-family="Times,serif" font-size="14.00">rep=no, t=no, r=yes, m=yes, c=no</text>
</g>
<!-- n1 -->
<g id="node2" class="node">
<title>n1</title>
<ellipse fill="none" stroke="black" cx="781.73" cy="-814.15" rx="181.95" ry="37.45"/>
<text text-anchor="middle" x="781.73" y="-825.45" font-family="Times,serif" font-size="14.00">Tras</text>
<text text-anchor="middle" x="781.73" y="-810.45" font-family="Times,serif" font-size="14.00">sps00 (prepv)</text>
<text text-anchor="middle" x="781.73" y="-795.45" font-family="Times,serif" font-size="14.00">rep=no, t=no, r=no, m=no, c=no</text>
</g>
<!-- n17&#45;&gt;n1 -->
<g id="edge1" class="edge">
<title>n17&#45;&gt;n1</title>
<path fill="none" stroke="black" d="M1791.95,-908.35C1569,-887.78 1180.81,-851.97 956.11,-831.24"/>
<polygon fill="black" stroke="black" points="956.14,-827.73 945.86,-830.29 955.5,-834.7 956.14,-827.73"/>
</g>
<!-- n6 -->
<g id="node3" class="node">
<title>n6</title>
<ellipse fill="none" stroke="black" cx="1571.73" cy="-814.15" rx="181.95" ry="37.45"/>
<text text-anchor="middle" x="1571.73" y="-825.45" font-family="Times,serif" font-size="14.00">,</text>
<text text-anchor="middle" x="1571.73" y="-810.45" font-family="Times,serif" font-size="14.00">fc (punct)</text>
<text text-anchor="middle" x="1571.73" y="-795.45" font-family="Times,serif" font-size="14.00">rep=no, t=no, r=no, m=no, c=no</text>
</g>
<!-- n17&#45;&gt;n6 -->
<g id="edge2" class="edge">
<title>n17&#45;&gt;n6</title>
<path fill="none" stroke="black" d="M1855.11,-894.11C1803.07,-879.62 1740.55,-862.19 1687.49,-847.41"/>
<polygon fill="black" stroke="black" points="1688.27,-843.99 1677.7,-844.68 1686.39,-850.73 1688.27,-843.99"/>
</g>
<!-- n8 -->
<g id="node4" class="node">
<title>n8</title>
<ellipse fill="#BEDA48" stroke="black" cx="1962.73" cy="-814.15" rx="190.84" ry="37.45"/>
<text text-anchor="middle" x="1962.73" y="-825.45" font-family="Times,serif" font-size="14.00">secretario</text>
<text text-anchor="middle" x="1962.73" y="-810.45" font-family="Times,serif" font-size="14.00">ncms000 (nsubj)</text>
<text text-anchor="middle" x="1962.73" y="-795.45" font-family="Times,serif" font-size="14.00">rep=no, t=yes, r=no, m=yes, c=no</text>
</g>
<!-- n17&#45;&gt;n8 -->
<g id="edge3" class="edge">
<title>n17&#45;&gt;n8</title>
<path fill="none" stroke="black" d="M1962.73,-887.52C1962.73,-879.35 1962.73,-870.57 1962.73,-862.04"/>
<polygon fill="black" stroke="black" points="1966.23,-861.82 1962.73,-851.82 1959.23,-861.82 1966.23,-861.82"/>
</g>
<!-- n19 -->
<g id="node5" class="node">
<title>n19</title>
<ellipse fill="#DA79E8" stroke="black" cx="2762.73" cy="-814.15" rx="190.84" ry="37.45"/>
<text text-anchor="middle" x="2762.73" y="-825.45" font-family="Times,serif" font-size="14.00">conclusión</text>
<text text-anchor="middle" x="2762.73" y="-810.45" font-family="Times,serif" font-size="14.00">ncfs000 (dobj)</text>
<text text-anchor="middle" x="2762.73" y="-795.45" font-family="Times,serif" font-size="14.00">rep=no, t=no, r=yes, m=yes, c=no</text>
</g>
<!-- n17&#45;&gt;n19 -->
<g id="edge4" class="edge">
<title>n17&#45;&gt;n19</title>
<path fill="none" stroke="black" d="M2117.45,-903.03C2255.51,-884.23 2457.07,-856.78 2598.07,-837.57"/>
<polygon fill="black" stroke="black" points="2598.68,-841.02 2608.12,-836.21 2597.74,-834.09 2598.68,-841.02"/>
</g>
<!-- n38 -->
<g id="node6" class="node">
<title>n38</title>
<ellipse fill="none" stroke="black" cx="3153.73" cy="-814.15" rx="181.95" ry="37.45"/>
<text text-anchor="middle" x="3153.73" y="-825.45" font-family="Times,serif" font-size="14.00">.</text>
<text text-anchor="middle" x="3153.73" y="-810.45" font-family="Times,serif" font-size="14.00">fp (punct)</text>
<text text-anchor="middle" x="3153.73" y="-795.45" font-family="Times,serif" font-size="14.00">rep=no, t=no, r=no, m=no, c=no</text>
</g>
<!-- n17&#45;&gt;n38 -->
<g id="edge5" class="edge">
<title>n17&#45;&gt;n38</title>
<path fill="none" stroke="black" d="M2149.53,-917.06C2350.91,-907.96 2680.55,-888.67 2962.73,-851.63 2980.74,-849.26 2999.63,-846.28 3018.22,-843.04"/>
<polygon fill="black" stroke="black" points="3018.97,-846.46 3028.21,-841.27 3017.75,-839.57 3018.97,-846.46"/>
</g>
<!-- n3 -->
<g id="node7" class="node">
<title>n3</title>
<ellipse fill="none" stroke="black" cx="371.73" cy="-703.2" rx="181.95" ry="37.45"/>
<text text-anchor="middle" x="371.73" y="-714.5" font-family="Times,serif" font-size="14.00">firma</text>
<text text-anchor="middle" x="371.73" y="-699.5" font-family="Times,serif" font-size="14.00">ncfs000 (pobj)</text>
<text text-anchor="middle" x="371.73" y="-684.5" font-family="Times,serif" font-size="14.00">rep=no, t=no, r=no, m=no, c=no</text>
</g>
<!-- n1&#45;&gt;n3 -->
<g id="edge6" class="edge">
<title>n1&#45;&gt;n3</title>
<path fill="none" stroke="black" d="M672.66,-784.17C616.6,-769.27 548.17,-751.09 490.75,-735.82"/>
<polygon fill="black" stroke="black" points="491.46,-732.39 480.89,-733.21 489.66,-739.16 491.46,-732.39"/>
</g>
<!-- n7 -->
<g id="node11" class="node">
<title>n7</title>
<ellipse fill="#BEDA48" stroke="black" cx="762.73" cy="-703.2" rx="190.84" ry="37.45"/>
<text text-anchor="middle" x="762.73" y="-714.5" font-family="Times,serif" font-size="14.00">el</text>
<text text-anchor="middle" x="762.73" y="-699.5" font-family="Times,serif" font-size="14.00">da0ms0 (det)</text>
<text text-anchor="middle" x="762.73" y="-684.5" font-family="Times,serif" font-size="14.00">rep=no, t=yes, r=no, m=yes, c=no</text>
</g>
<!-- n8&#45;&gt;n7 -->
<g id="edge10" class="edge">
<title>n8&#45;&gt;n7</title>
<path fill="none" stroke="black" d="M1832.39,-786.75C1809.27,-782.82 1785.35,-779.23 1762.73,-776.67 1409.07,-736.65 1316.38,-780.69 962.73,-740.67 943.37,-738.48 923.07,-735.54 903.13,-732.28"/>
<polygon fill="black" stroke="black" points="903.5,-728.79 893.06,-730.6 902.35,-735.69 903.5,-728.79"/>
</g>
<!-- n9 -->
<g id="node12" class="node">
<title>n9</title>
<ellipse fill="#BEDA48" stroke="black" cx="1162.73" cy="-703.2" rx="190.84" ry="37.45"/>
<text text-anchor="middle" x="1162.73" y="-714.5" font-family="Times,serif" font-size="14.00">de</text>
<text text-anchor="middle" x="1162.73" y="-699.5" font-family="Times,serif" font-size="14.00">sps00 (prepn)</text>
<text text-anchor="middle" x="1162.73" y="-684.5" font-family="Times,serif" font-size="14.00">rep=no, t=yes, r=no, m=yes, c=no</text>
</g>
<!-- n8&#45;&gt;n9 -->
<g id="edge11" class="edge">
<title>n8&#45;&gt;n9</title>
<path fill="none" stroke="black" d="M1829.86,-787.18C1807.51,-783.31 1784.5,-779.63 1762.73,-776.67 1585.86,-752.64 1539.6,-764.71 1362.73,-740.67 1344.19,-738.15 1324.75,-735.11 1305.58,-731.88"/>
<polygon fill="black" stroke="black" points="1306.04,-728.4 1295.59,-730.17 1304.86,-735.3 1306.04,-728.4"/>
</g>
<!-- n11 -->
<g id="node13" class="node">
<title>n11</title>
<ellipse fill="#BEDA48" stroke="black" cx="1562.73" cy="-703.2" rx="190.84" ry="37.45"/>
<text text-anchor="middle" x="1562.73" y="-714.5" font-family="Times,serif" font-size="14.00">de</text>
<text text-anchor="middle" x="1562.73" y="-699.5" font-family="Times,serif" font-size="14.00">sps00 (prepn)</text>
<text text-anchor="middle" x="1562.73" y="-684.5" font-family="Times,serif" font-size="14.00">rep=no, t=yes, r=no, m=yes, c=no</text>
</g>
<!-- n8&#45;&gt;n11 -->
<g id="edge12" class="edge">
<title>n8&#45;&gt;n11</title>
<path fill="none" stroke="black" d="M1853.42,-783.38C1800.29,-768.9 1736.32,-751.48 1681.93,-736.67"/>
<polygon fill="black" stroke="black" points="1682.81,-733.28 1672.24,-734.03 1680.97,-740.03 1682.81,-733.28"/>
</g>
<!-- n13 -->
<g id="node14" class="node">
<title>n13</title>
<ellipse fill="#BEDA48" stroke="black" cx="1962.73" cy="-703.2" rx="190.84" ry="37.45"/>
<text text-anchor="middle" x="1962.73" y="-714.5" font-family="Times,serif" font-size="14.00">,</text>
<text text-anchor="middle" x="1962.73" y="-699.5" font-family="Times,serif" font-size="14.00">fc (punct)</text>
<text text-anchor="middle" x="1962.73" y="-684.5" font-family="Times,serif" font-size="14.00">rep=no, t=yes, r=no, m=yes, c=no</text>
</g>
<!-- n8&#45;&gt;n13 -->
<g id="edge13" class="edge">
<title>n8&#45;&gt;n13</title>
<path fill="none" stroke="black" d="M1962.73,-776.57C1962.73,-768.39 1962.73,-759.61 1962.73,-751.09"/>
<polygon fill="black" stroke="black" points="1966.23,-750.87 1962.73,-740.87 1959.23,-750.87 1966.23,-750.87"/>
</g>
<!-- n14 -->
<g id="node15" class="node">
<title>n14</title>
<ellipse fill="#BEDA48" stroke="black" cx="2362.73" cy="-703.2" rx="190.84" ry="37.45"/>
<text text-anchor="middle" x="2362.73" y="-714.5" font-family="Times,serif" font-size="14.00">Benigno</text>
<text text-anchor="middle" x="2362.73" y="-699.5" font-family="Times,serif" font-size="14.00">np0000l (appos)</text>
<text text-anchor="middle" x="2362.73" y="-684.5" font-family="Times,serif" font-size="14.00">rep=no, t=yes, r=no, m=yes, c=no</text>
</g>
<!-- n8&#45;&gt;n14 -->
<g id="edge14" class="edge">
<title>n8&#45;&gt;n14</title>
<path fill="none" stroke="black" d="M2072.03,-783.38C2125.16,-768.9 2189.13,-751.48 2243.52,-736.67"/>
<polygon fill="black" stroke="black" points="2244.48,-740.03 2253.21,-734.03 2242.64,-733.28 2244.48,-740.03"/>
</g>
<!-- n16 -->
<g id="node16" class="node">
<title>n16</title>
<ellipse fill="#BEDA48" stroke="black" cx="2762.73" cy="-703.2" rx="190.84" ry="37.45"/>
<text text-anchor="middle" x="2762.73" y="-714.5" font-family="Times,serif" font-size="14.00">,</text>
<text text-anchor="middle" x="2762.73" y="-699.5" font-family="Times,serif" font-size="14.00">fc (punct)</text>
<text text-anchor="middle" x="2762.73" y="-684.5" font-family="Times,serif" font-size="14.00">rep=no, t=yes, r=no, m=yes, c=no</text>
</g>
<!-- n8&#45;&gt;n16 -->
<g id="edge15" class="edge">
<title>n8&#45;&gt;n16</title>
<path fill="none" stroke="black" d="M2129.27,-795.75C2249.88,-782.49 2416.71,-762.79 2562.73,-740.67 2580.77,-737.94 2599.68,-734.82 2618.38,-731.59"/>
<polygon fill="black" stroke="black" points="2619.19,-735 2628.44,-729.84 2617.98,-728.11 2619.19,-735"/>
</g>
<!-- n18 -->
<g id="node20" class="node">
<title>n18</title>
<ellipse fill="#DA79E8" stroke="black" cx="3162.73" cy="-703.2" rx="190.84" ry="37.45"/>
<text text-anchor="middle" x="3162.73" y="-714.5" font-family="Times,serif" font-size="14.00">la</text>
<text text-anchor="middle" x="3162.73" y="-699.5" font-family="Times,serif" font-size="14.00">da0fs0 (det)</text>
<text text-anchor="middle" x="3162.73" y="-684.5" font-family="Times,serif" font-size="14.00">rep=no, t=no, r=yes, m=yes, c=no</text>
</g>
<!-- n19&#45;&gt;n18 -->
<g id="edge19" class="edge">
<title>n19&#45;&gt;n18</title>
<path fill="none" stroke="black" d="M2872.03,-783.38C2925.16,-768.9 2989.13,-751.48 3043.52,-736.67"/>
<polygon fill="black" stroke="black" points="3044.48,-740.03 3053.21,-734.03 3042.64,-733.28 3044.48,-740.03"/>
</g>
<!-- n20 -->
<g id="node21" class="node">
<title>n20</title>
<ellipse fill="#DA79E8" stroke="black" cx="3562.73" cy="-703.2" rx="190.84" ry="37.45"/>
<text text-anchor="middle" x="3562.73" y="-714.5" font-family="Times,serif" font-size="14.00">de</text>
<text text-anchor="middle" x="3562.73" y="-699.5" font-family="Times,serif" font-size="14.00">sps00 (prepn)</text>
<text text-anchor="middle" x="3562.73" y="-684.5" font-family="Times,serif" font-size="14.00">rep=no, t=no, r=yes, m=yes, c=no</text>
</g>
<!-- n19&#45;&gt;n20 -->
<g id="edge20" class="edge">
<title>n19&#45;&gt;n20</title>
<path fill="none" stroke="black" d="M2895.59,-787.18C2917.95,-783.31 2940.96,-779.63 2962.73,-776.67 3139.6,-752.64 3185.86,-764.71 3362.73,-740.67 3381.27,-738.15 3400.7,-735.11 3419.87,-731.88"/>
<polygon fill="black" stroke="black" points="3420.6,-735.3 3429.86,-730.17 3419.42,-728.4 3420.6,-735.3"/>
</g>
<!-- n2 -->
<g id="node8" class="node">
<title>n2</title>
<ellipse fill="none" stroke="black" cx="181.73" cy="-592.24" rx="181.95" ry="37.45"/>
<text text-anchor="middle" x="181.73" y="-603.54" font-family="Times,serif" font-size="14.00">la</text>
<text text-anchor="middle" x="181.73" y="-588.54" font-family="Times,serif" font-size="14.00">da0fs0 (det)</text>
<text text-anchor="middle" x="181.73" y="-573.54" font-family="Times,serif" font-size="14.00">rep=no, t=no, r=no, m=no, c=no</text>
</g>
<!-- n3&#45;&gt;n2 -->
<g id="edge7" class="edge">
<title>n3&#45;&gt;n2</title>
<path fill="none" stroke="black" d="M311.61,-667.72C292.19,-656.59 270.52,-644.16 250.53,-632.7"/>
<polygon fill="black" stroke="black" points="252.19,-629.62 241.78,-627.68 248.71,-635.69 252.19,-629.62"/>
</g>
<!-- n4 -->
<g id="node9" class="node">
<title>n4</title>
<ellipse fill="none" stroke="black" cx="562.73" cy="-592.24" rx="181.95" ry="37.45"/>
<text text-anchor="middle" x="562.73" y="-603.54" font-family="Times,serif" font-size="14.00">del</text>
<text text-anchor="middle" x="562.73" y="-588.54" font-family="Times,serif" font-size="14.00">spcms (prepn)</text>
<text text-anchor="middle" x="562.73" y="-573.54" font-family="Times,serif" font-size="14.00">rep=no, t=no, r=no, m=no, c=no</text>
</g>
<!-- n3&#45;&gt;n4 -->
<g id="edge8" class="edge">
<title>n3&#45;&gt;n4</title>
<path fill="none" stroke="black" d="M432.16,-667.72C451.68,-656.59 473.46,-644.16 493.56,-632.7"/>
<polygon fill="black" stroke="black" points="495.41,-635.67 502.36,-627.68 491.94,-629.59 495.41,-635.67"/>
</g>
<!-- n5 -->
<g id="node10" class="node">
<title>n5</title>
<ellipse fill="none" stroke="black" cx="562.73" cy="-481.29" rx="181.95" ry="37.45"/>
<text text-anchor="middle" x="562.73" y="-492.59" font-family="Times,serif" font-size="14.00">convenio</text>
<text text-anchor="middle" x="562.73" y="-477.59" font-family="Times,serif" font-size="14.00">ncms000 (pobj)</text>
<text text-anchor="middle" x="562.73" y="-462.59" font-family="Times,serif" font-size="14.00">rep=no, t=no, r=no, m=no, c=no</text>
</g>
<!-- n4&#45;&gt;n5 -->
<g id="edge9" class="edge">
<title>n4&#45;&gt;n5</title>
<path fill="none" stroke="black" d="M562.73,-554.66C562.73,-546.49 562.73,-537.71 562.73,-529.18"/>
<polygon fill="black" stroke="black" points="566.23,-528.96 562.73,-518.96 559.23,-528.96 566.23,-528.96"/>
</g>
<!-- n10 -->
<g id="node17" class="node">
<title>n10</title>
<ellipse fill="#BEDA48" stroke="black" cx="1162.73" cy="-592.24" rx="190.84" ry="37.45"/>
<text text-anchor="middle" x="1162.73" y="-603.54" font-family="Times,serif" font-size="14.00">Estado</text>
<text text-anchor="middle" x="1162.73" y="-588.54" font-family="Times,serif" font-size="14.00">np00000 (pobj)</text>
<text text-anchor="middle" x="1162.73" y="-573.54" font-family="Times,serif" font-size="14.00">rep=no, t=yes, r=no, m=yes, c=no</text>
</g>
<!-- n9&#45;&gt;n10 -->
<g id="edge16" class="edge">
<title>n9&#45;&gt;n10</title>
<path fill="none" stroke="black" d="M1162.73,-665.61C1162.73,-657.44 1162.73,-648.66 1162.73,-640.13"/>
<polygon fill="black" stroke="black" points="1166.23,-639.92 1162.73,-629.92 1159.23,-639.92 1166.23,-639.92"/>
</g>
<!-- n12 -->
<g id="node18" class="node">
<title>n12</title>
<ellipse fill="#BEDA48" stroke="black" cx="1562.73" cy="-592.24" rx="190.84" ry="37.45"/>
<text text-anchor="middle" x="1562.73" y="-603.54" font-family="Times,serif" font-size="14.00">Infraestructuras</text>
<text text-anchor="middle" x="1562.73" y="-588.54" font-family="Times,serif" font-size="14.00">np00000 (pobj)</text>
<text text-anchor="middle" x="1562.73" y="-573.54" font-family="Times,serif" font-size="14.00">rep=no, t=yes, r=no, m=yes, c=no</text>
</g>
<!-- n11&#45;&gt;n12 -->
<g id="edge17" class="edge">
<title>n11&#45;&gt;n12</title>
<path fill="none" stroke="black" d="M1562.73,-665.61C1562.73,-657.44 1562.73,-648.66 1562.73,-640.13"/>
<polygon fill="black" stroke="black" points="1566.23,-639.92 1562.73,-629.92 1559.23,-639.92 1566.23,-639.92"/>
</g>
<!-- n15 -->
<g id="node19" class="node">
<title>n15</title>
<ellipse fill="#BEDA48" stroke="black" cx="2362.73" cy="-592.24" rx="190.84" ry="37.45"/>
<text text-anchor="middle" x="2362.73" y="-603.54" font-family="Times,serif" font-size="14.00">Blanco</text>
<text text-anchor="middle" x="2362.73" y="-588.54" font-family="Times,serif" font-size="14.00">np0000l (appos)</text>
<text text-anchor="middle" x="2362.73" y="-573.54" font-family="Times,serif" font-size="14.00">rep=no, t=yes, r=no, m=yes, c=no</text>
</g>
<!-- n14&#45;&gt;n15 -->
<g id="edge18" class="edge">
<title>n14&#45;&gt;n15</title>
<path fill="none" stroke="black" d="M2362.73,-665.61C2362.73,-657.44 2362.73,-648.66 2362.73,-640.13"/>
<polygon fill="black" stroke="black" points="2366.23,-639.92 2362.73,-629.92 2359.23,-639.92 2366.23,-639.92"/>
</g>
<!-- n22 -->
<g id="node22" class="node">
<title>n22</title>
<ellipse fill="#DA79E8" stroke="black" cx="3562.73" cy="-592.24" rx="190.84" ry="37.45"/>
<text text-anchor="middle" x="3562.73" y="-603.54" font-family="Times,serif" font-size="14.00">negociación</text>
<text text-anchor="middle" x="3562.73" y="-588.54" font-family="Times,serif" font-size="14.00">ncfs000 (pobj)</text>
<text text-anchor="middle" x="3562.73" y="-573.54" font-family="Times,serif" font-size="14.00">rep=no, t=no, r=yes, m=yes, c=no</text>
</g>
<!-- n20&#45;&gt;n22 -->
<g id="edge21" class="edge">
<title>n20&#45;&gt;n22</title>
<path fill="none" stroke="black" d="M3562.73,-665.61C3562.73,-657.44 3562.73,-648.66 3562.73,-640.13"/>
<polygon fill="black" stroke="black" points="3566.23,-639.92 3562.73,-629.92 3559.23,-639.92 3566.23,-639.92"/>
</g>
<!-- n21 -->
<g id="node23" class="node">
<title>n21</title>
<ellipse fill="#DA79E8" stroke="black" cx="3167.73" cy="-481.29" rx="190.84" ry="37.45"/>
<text text-anchor="middle" x="3167.73" y="-492.59" font-family="Times,serif" font-size="14.00">la</text>
<text text-anchor="middle" x="3167.73" y="-477.59" font-family="Times,serif" font-size="14.00">da0fs0 (det)</text>
<text text-anchor="middle" x="3167.73" y="-462.59" font-family="Times,serif" font-size="14.00">rep=no, t=no, r=yes, m=yes, c=no</text>
</g>
<!-- n22&#45;&gt;n21 -->
<g id="edge22" class="edge">
<title>n22&#45;&gt;n21</title>
<path fill="none" stroke="black" d="M3454.27,-561.33C3402.13,-546.95 3339.52,-529.68 3286.14,-514.95"/>
<polygon fill="black" stroke="black" points="3286.86,-511.52 3276.28,-512.23 3284.99,-518.27 3286.86,-511.52"/>
</g>
<!-- n24 -->
<g id="node24" class="node">
<title>n24</title>
<ellipse fill="none" stroke="black" cx="3562.73" cy="-481.29" rx="185.94" ry="37.45"/>
<text text-anchor="middle" x="3562.73" y="-492.59" font-family="Times,serif" font-size="14.00">mantenía</text>
<text text-anchor="middle" x="3562.73" y="-477.59" font-family="Times,serif" font-size="14.00">vmii3s0 (rcmod)</text>
<text text-anchor="middle" x="3562.73" y="-462.59" font-family="Times,serif" font-size="14.00">rep=no, t=no, r=no, m=yes, c=no</text>
</g>
<!-- n22&#45;&gt;n24 -->
<g id="edge23" class="edge">
<title>n22&#45;&gt;n24</title>
<path fill="none" stroke="black" d="M3562.73,-554.66C3562.73,-546.49 3562.73,-537.71 3562.73,-529.18"/>
<polygon fill="black" stroke="black" points="3566.23,-528.96 3562.73,-518.96 3559.23,-528.96 3566.23,-528.96"/>
</g>
<!-- n30 -->
<g id="node25" class="node">
<title>n30</title>
<ellipse fill="#DA79E8" stroke="black" cx="4080.73" cy="-481.29" rx="190.84" ry="37.45"/>
<text text-anchor="middle" x="4080.73" y="-492.59" font-family="Times,serif" font-size="14.00">para</text>
<text text-anchor="middle" x="4080.73" y="-477.59" font-family="Times,serif" font-size="14.00">sps00 (prepn)</text>
<text text-anchor="middle" x="4080.73" y="-462.59" font-family="Times,serif" font-size="14.00">rep=no, t=no, r=yes, m=yes, c=no</text>
</g>
<!-- n22&#45;&gt;n30 -->
<g id="edge24" class="edge">
<title>n22&#45;&gt;n30</title>
<path fill="none" stroke="black" d="M3690.44,-564.38C3767,-548.28 3864.38,-527.8 3942.71,-511.32"/>
<polygon fill="black" stroke="black" points="3943.58,-514.71 3952.65,-509.23 3942.14,-507.86 3943.58,-514.71"/>
</g>
<!-- n23 -->
<g id="node26" class="node">
<title>n23</title>
<ellipse fill="none" stroke="black" cx="2977.73" cy="-370.34" rx="185.94" ry="37.45"/>
<text text-anchor="middle" x="2977.73" y="-381.64" font-family="Times,serif" font-size="14.00">que</text>
<text text-anchor="middle" x="2977.73" y="-366.64" font-family="Times,serif" font-size="14.00">pr0cn000 (dobj)</text>
<text text-anchor="middle" x="2977.73" y="-351.64" font-family="Times,serif" font-size="14.00">rep=no, t=no, r=no, m=yes, c=no</text>
</g>
<!-- n24&#45;&gt;n23 -->
<g id="edge25" class="edge">
<title>n24&#45;&gt;n23</title>
<path fill="none" stroke="black" d="M3428.99,-455.23C3408.47,-451.4 3387.54,-447.49 3367.73,-443.81 3281.08,-427.71 3259.37,-423.92 3172.73,-407.81 3156.17,-404.74 3138.82,-401.5 3121.59,-398.29"/>
<polygon fill="black" stroke="black" points="3121.93,-394.79 3111.46,-396.4 3120.65,-401.67 3121.93,-394.79"/>
</g>
<!-- n25 -->
<g id="node27" class="node">
<title>n25</title>
<ellipse fill="none" stroke="black" cx="3367.73" cy="-370.34" rx="185.94" ry="37.45"/>
<text text-anchor="middle" x="3367.73" y="-381.64" font-family="Times,serif" font-size="14.00">Renfe</text>
<text text-anchor="middle" x="3367.73" y="-366.64" font-family="Times,serif" font-size="14.00">np00000 (nsubj)</text>
<text text-anchor="middle" x="3367.73" y="-351.64" font-family="Times,serif" font-size="14.00">rep=no, t=no, r=no, m=yes, c=no</text>
</g>
<!-- n24&#45;&gt;n25 -->
<g id="edge26" class="edge">
<title>n24&#45;&gt;n25</title>
<path fill="none" stroke="black" d="M3501.03,-445.82C3481.1,-434.68 3458.86,-422.26 3438.34,-410.79"/>
<polygon fill="black" stroke="black" points="3439.8,-407.59 3429.36,-405.77 3436.38,-413.71 3439.8,-407.59"/>
</g>
<!-- n26 -->
<g id="node28" class="node">
<title>n26</title>
<ellipse fill="none" stroke="black" cx="3757.73" cy="-370.34" rx="185.94" ry="37.45"/>
<text text-anchor="middle" x="3757.73" y="-381.64" font-family="Times,serif" font-size="14.00">con</text>
<text text-anchor="middle" x="3757.73" y="-366.64" font-family="Times,serif" font-size="14.00">sps00 (prepv)</text>
<text text-anchor="middle" x="3757.73" y="-351.64" font-family="Times,serif" font-size="14.00">rep=no, t=no, r=no, m=yes, c=no</text>
</g>
<!-- n24&#45;&gt;n26 -->
<g id="edge27" class="edge">
<title>n24&#45;&gt;n26</title>
<path fill="none" stroke="black" d="M3624.43,-445.82C3644.35,-434.68 3666.59,-422.26 3687.11,-410.79"/>
<polygon fill="black" stroke="black" points="3689.07,-413.71 3696.09,-405.77 3685.66,-407.59 3689.07,-413.71"/>
</g>
<!-- n31 -->
<g id="node32" class="node">
<title>n31</title>
<ellipse fill="#DA79E8" stroke="black" cx="4202.73" cy="-370.34" rx="190.84" ry="37.45"/>
<text text-anchor="middle" x="4202.73" y="-381.64" font-family="Times,serif" font-size="14.00">alquilar</text>
<text text-anchor="middle" x="4202.73" y="-366.64" font-family="Times,serif" font-size="14.00">vmn0000 (pobj)</text>
<text text-anchor="middle" x="4202.73" y="-351.64" font-family="Times,serif" font-size="14.00">rep=no, t=no, r=yes, m=yes, c=no</text>
</g>
<!-- n30&#45;&gt;n31 -->
<g id="edge31" class="edge">
<title>n30&#45;&gt;n31</title>
<path fill="none" stroke="black" d="M4120.67,-444.61C4131.63,-434.83 4143.61,-424.13 4154.96,-414"/>
<polygon fill="black" stroke="black" points="4157.56,-416.36 4162.69,-407.09 4152.9,-411.14 4157.56,-416.36"/>
</g>
<!-- n28 -->
<g id="node29" class="node">
<title>n28</title>
<ellipse fill="none" stroke="black" cx="3657.73" cy="-259.38" rx="185.94" ry="37.45"/>
<text text-anchor="middle" x="3657.73" y="-270.68" font-family="Times,serif" font-size="14.00">homóloga</text>
<text text-anchor="middle" x="3657.73" y="-255.68" font-family="Times,serif" font-size="14.00">ncfs000 (pobj)</text>
<text text-anchor="middle" x="3657.73" y="-240.68" font-family="Times,serif" font-size="14.00">rep=no, t=no, r=no, m=yes, c=no</text>
</g>
<!-- n26&#45;&gt;n28 -->
<g id="edge28" class="edge">
<title>n26&#45;&gt;n28</title>
<path fill="none" stroke="black" d="M3724.71,-333.36C3716,-323.88 3706.52,-313.54 3697.5,-303.72"/>
<polygon fill="black" stroke="black" points="3700.05,-301.32 3690.71,-296.32 3694.9,-306.06 3700.05,-301.32"/>
</g>
<!-- n27 -->
<g id="node30" class="node">
<title>n27</title>
<ellipse fill="none" stroke="black" cx="3267.73" cy="-148.43" rx="185.94" ry="37.45"/>
<text text-anchor="middle" x="3267.73" y="-159.73" font-family="Times,serif" font-size="14.00">su</text>
<text text-anchor="middle" x="3267.73" y="-144.73" font-family="Times,serif" font-size="14.00">dp3cs0 (poss)</text>
<text text-anchor="middle" x="3267.73" y="-129.73" font-family="Times,serif" font-size="14.00">rep=no, t=no, r=no, m=yes, c=no</text>
</g>
<!-- n28&#45;&gt;n27 -->
<g id="edge29" class="edge">
<title>n28&#45;&gt;n27</title>
<path fill="none" stroke="black" d="M3551.16,-228.61C3499.35,-214.14 3436.98,-196.71 3383.95,-181.9"/>
<polygon fill="black" stroke="black" points="3384.74,-178.49 3374.17,-179.17 3382.86,-185.23 3384.74,-178.49"/>
</g>
<!-- n29 -->
<g id="node31" class="node">
<title>n29</title>
<ellipse fill="none" stroke="black" cx="3657.73" cy="-148.43" rx="185.94" ry="37.45"/>
<text text-anchor="middle" x="3657.73" y="-159.73" font-family="Times,serif" font-size="14.00">alemana</text>
<text text-anchor="middle" x="3657.73" y="-144.73" font-family="Times,serif" font-size="14.00">aq0fs0 (amod)</text>
<text text-anchor="middle" x="3657.73" y="-129.73" font-family="Times,serif" font-size="14.00">rep=no, t=no, r=no, m=yes, c=no</text>
</g>
<!-- n28&#45;&gt;n29 -->
<g id="edge30" class="edge">
<title>n28&#45;&gt;n29</title>
<path fill="none" stroke="black" d="M3657.73,-221.8C3657.73,-213.63 3657.73,-204.85 3657.73,-196.32"/>
<polygon fill="black" stroke="black" points="3661.23,-196.1 3657.73,-186.1 3654.23,-196.1 3661.23,-196.1"/>
</g>
<!-- n33 -->
<g id="node33" class="node">
<title>n33</title>
<ellipse fill="#DA79E8" stroke="black" cx="4252.73" cy="-259.38" rx="190.84" ry="37.45"/>
<text text-anchor="middle" x="4252.73" y="-270.68" font-family="Times,serif" font-size="14.00">trenes</text>
<text text-anchor="middle" x="4252.73" y="-255.68" font-family="Times,serif" font-size="14.00">ncmp000 (dobj)</text>
<text text-anchor="middle" x="4252.73" y="-240.68" font-family="Times,serif" font-size="14.00">rep=no, t=no, r=yes, m=yes, c=no</text>
</g>
<!-- n31&#45;&gt;n33 -->
<g id="edge32" class="edge">
<title>n31&#45;&gt;n33</title>
<path fill="none" stroke="black" d="M4219.51,-332.75C4223.43,-324.22 4227.65,-315.03 4231.72,-306.15"/>
<polygon fill="black" stroke="black" points="4234.91,-307.6 4235.9,-297.06 4228.55,-304.68 4234.91,-307.6"/>
</g>
<!-- n32 -->
<g id="node34" class="node">
<title>n32</title>
<ellipse fill="#DA79E8" stroke="black" cx="4052.73" cy="-148.43" rx="190.84" ry="37.45"/>
<text text-anchor="middle" x="4052.73" y="-159.73" font-family="Times,serif" font-size="14.00">dos</text>
<text text-anchor="middle" x="4052.73" y="-144.73" font-family="Times,serif" font-size="14.00">dn0cp0 (det)</text>
<text text-anchor="middle" x="4052.73" y="-129.73" font-family="Times,serif" font-size="14.00">rep=no, t=no, r=yes, m=yes, c=no</text>
</g>
<!-- n33&#45;&gt;n32 -->
<g id="edge33" class="edge">
<title>n33&#45;&gt;n32</title>
<path fill="none" stroke="black" d="M4189.45,-223.91C4168.92,-212.73 4145.99,-200.24 4124.87,-188.73"/>
<polygon fill="black" stroke="black" points="4126.39,-185.58 4115.94,-183.87 4123.05,-191.72 4126.39,-185.58"/>
</g>
<!-- n34 -->
<g id="node35" class="node">
<title>n34</title>
<ellipse fill="#DA79E8" stroke="black" cx="4452.73" cy="-148.43" rx="190.84" ry="37.45"/>
<text text-anchor="middle" x="4452.73" y="-159.73" font-family="Times,serif" font-size="14.00">AVE</text>
<text text-anchor="middle" x="4452.73" y="-144.73" font-family="Times,serif" font-size="14.00">np0000l (appos)</text>
<text text-anchor="middle" x="4452.73" y="-129.73" font-family="Times,serif" font-size="14.00">rep=no, t=no, r=yes, m=yes, c=no</text>
</g>
<!-- n33&#45;&gt;n34 -->
<g id="edge34" class="edge">
<title>n33&#45;&gt;n34</title>
<path fill="none" stroke="black" d="M4316.01,-223.91C4336.54,-212.73 4359.46,-200.24 4380.58,-188.73"/>
<polygon fill="black" stroke="black" points="4382.41,-191.72 4389.51,-183.87 4379.06,-185.58 4382.41,-191.72"/>
</g>
<!-- n36 -->
<g id="node36" class="node">
<title>n36</title>
<ellipse fill="#DA79E8" stroke="black" cx="4852.73" cy="-148.43" rx="190.84" ry="37.45"/>
<text text-anchor="middle" x="4852.73" y="-159.73" font-family="Times,serif" font-size="14.00">de</text>
<text text-anchor="middle" x="4852.73" y="-144.73" font-family="Times,serif" font-size="14.00">sps00 (prepn)</text>
<text text-anchor="middle" x="4852.73" y="-129.73" font-family="Times,serif" font-size="14.00">rep=no, t=no, r=yes, m=yes, c=no</text>
</g>
<!-- n33&#45;&gt;n36 -->
<g id="edge35" class="edge">
<title>n33&#45;&gt;n36</title>
<path fill="none" stroke="black" d="M4390.65,-233.43C4467.75,-219.48 4565.58,-201.75 4652.73,-185.91 4669.79,-182.8 4687.68,-179.55 4705.44,-176.31"/>
<polygon fill="black" stroke="black" points="4706.08,-179.75 4715.29,-174.52 4704.82,-172.87 4706.08,-179.75"/>
</g>
<!-- n35 -->
<g id="node37" class="node">
<title>n35</title>
<ellipse fill="#DA79E8" stroke="black" cx="4452.73" cy="-37.48" rx="190.84" ry="37.45"/>
<text text-anchor="middle" x="4452.73" y="-48.78" font-family="Times,serif" font-size="14.00">IC3</text>
<text text-anchor="middle" x="4452.73" y="-33.78" font-family="Times,serif" font-size="14.00">np0000l (appos)</text>
<text text-anchor="middle" x="4452.73" y="-18.78" font-family="Times,serif" font-size="14.00">rep=no, t=no, r=yes, m=yes, c=no</text>
</g>
<!-- n34&#45;&gt;n35 -->
<g id="edge36" class="edge">
<title>n34&#45;&gt;n35</title>
<path fill="none" stroke="black" d="M4452.73,-110.85C4452.73,-102.67 4452.73,-93.89 4452.73,-85.37"/>
<polygon fill="black" stroke="black" points="4456.23,-85.15 4452.73,-75.15 4449.23,-85.15 4456.23,-85.15"/>
</g>
<!-- n37 -->
<g id="node38" class="node">
<title>n37</title>
<ellipse fill="#DA79E8" stroke="black" cx="4852.73" cy="-37.48" rx="190.84" ry="37.45"/>
<text text-anchor="middle" x="4852.73" y="-48.78" font-family="Times,serif" font-size="14.00">Siemens</text>
<text text-anchor="middle" x="4852.73" y="-33.78" font-family="Times,serif" font-size="14.00">np00000 (pobj)</text>
<text text-anchor="middle" x="4852.73" y="-18.78" font-family="Times,serif" font-size="14.00">rep=no, t=no, r=yes, m=yes, c=no</text>
</g>
<!-- n36&#45;&gt;n37 -->
<g id="edge37" class="edge">
<title>n36&#45;&gt;n37</title>
<path fill="none" stroke="black" d="M4852.73,-110.85C4852.73,-102.67 4852.73,-93.89 4852.73,-85.37"/>
<polygon fill="black" stroke="black" points="4856.23,-85.15 4852.73,-75.15 4849.23,-85.15 4856.23,-85.15"/>
</g>
</g>
</svg>
