<?xml version="1.0" encoding="UTF-8" standalone="no"?>
<!DOCTYPE svg PUBLIC "-//W3C//DTD SVG 1.1//EN"
 "http://www.w3.org/Graphics/SVG/1.1/DTD/svg11.dtd">
<!-- Generated by graphviz version 2.43.0 (0)
 -->
<!-- Title: tree Pages: 1 -->
<svg width="1712pt" height="971pt"
 viewBox="0.00 0.00 1712.45 970.58" xmlns="http://www.w3.org/2000/svg" xmlns:xlink="http://www.w3.org/1999/xlink">
<g id="graph0" class="graph" transform="scale(1 1) rotate(0) translate(4 966.58)">
<title>tree</title>
<polygon fill="white" stroke="transparent" points="-4,4 -4,-966.58 1708.45,-966.58 1708.45,4 -4,4"/>
<!-- n12 -->
<g id="node1" class="node">
<title>n12</title>
<ellipse fill="none" stroke="black" cx="1141.73" cy="-925.1" rx="181.95" ry="37.45"/>
<text text-anchor="middle" x="1141.73" y="-936.4" font-family="Times,serif" font-size="14.00">dijo</text>
<text text-anchor="middle" x="1141.73" y="-921.4" font-family="Times,serif" font-size="14.00">vmis3s0 (root)</text>
<text text-anchor="middle" x="1141.73" y="-906.4" font-family="Times,serif" font-size="14.00">rep=no, t=no, r=no, m=no, c=no</text>
</g>
<!-- n2 -->
<g id="node2" class="node">
<title>n2</title>
<ellipse fill="none" stroke="black" cx="760.73" cy="-814.15" rx="181.95" ry="37.45"/>
<text text-anchor="middle" x="760.73" y="-825.45" font-family="Times,serif" font-size="14.00">He</text>
<text text-anchor="middle" x="760.73" y="-810.45" font-family="Times,serif" font-size="14.00">vaip1s0 (dobj)</text>
<text text-anchor="middle" x="760.73" y="-795.45" font-family="Times,serif" font-size="14.00">rep=no, t=no, r=no, m=no, c=no</text>
</g>
<!-- n12&#45;&gt;n2 -->
<g id="edge1" class="edge">
<title>n12&#45;&gt;n2</title>
<path fill="none" stroke="black" d="M1037.62,-894.33C987.11,-879.89 926.33,-862.51 874.6,-847.71"/>
<polygon fill="black" stroke="black" points="875.29,-844.27 864.71,-844.89 873.36,-851 875.29,-844.27"/>
</g>
<!-- n13 -->
<g id="node3" class="node">
<title>n13</title>
<ellipse fill="none" stroke="black" cx="1141.73" cy="-814.15" rx="181.95" ry="37.45"/>
<text text-anchor="middle" x="1141.73" y="-825.45" font-family="Times,serif" font-size="14.00">triunfante</text>
<text text-anchor="middle" x="1141.73" y="-810.45" font-family="Times,serif" font-size="14.00">aq0cs0 (cpred)</text>
<text text-anchor="middle" x="1141.73" y="-795.45" font-family="Times,serif" font-size="14.00">rep=no, t=no, r=no, m=no, c=no</text>
</g>
<!-- n12&#45;&gt;n13 -->
<g id="edge2" class="edge">
<title>n12&#45;&gt;n13</title>
<path fill="none" stroke="black" d="M1141.73,-887.52C1141.73,-879.35 1141.73,-870.57 1141.73,-862.04"/>
<polygon fill="black" stroke="black" points="1145.23,-861.82 1141.73,-851.82 1138.23,-861.82 1145.23,-861.82"/>
</g>
<!-- n18 -->
<g id="node4" class="node">
<title>n18</title>
<ellipse fill="none" stroke="black" cx="1522.73" cy="-814.15" rx="181.95" ry="37.45"/>
<text text-anchor="middle" x="1522.73" y="-825.45" font-family="Times,serif" font-size="14.00">.</text>
<text text-anchor="middle" x="1522.73" y="-810.45" font-family="Times,serif" font-size="14.00">fp (punct)</text>
<text text-anchor="middle" x="1522.73" y="-795.45" font-family="Times,serif" font-size="14.00">rep=no, t=no, r=no, m=no, c=no</text>
</g>
<!-- n12&#45;&gt;n18 -->
<g id="edge3" class="edge">
<title>n12&#45;&gt;n18</title>
<path fill="none" stroke="black" d="M1245.84,-894.33C1296.34,-879.89 1357.12,-862.51 1408.86,-847.71"/>
<polygon fill="black" stroke="black" points="1410.09,-851 1418.74,-844.89 1408.17,-844.27 1410.09,-851"/>
</g>
<!-- n1 -->
<g id="node5" class="node">
<title>n1</title>
<ellipse fill="none" stroke="black" cx="181.73" cy="-703.2" rx="181.95" ry="37.45"/>
<text text-anchor="middle" x="181.73" y="-714.5" font-family="Times,serif" font-size="14.00">&quot;</text>
<text text-anchor="middle" x="181.73" y="-699.5" font-family="Times,serif" font-size="14.00">fe (punct)</text>
<text text-anchor="middle" x="181.73" y="-684.5" font-family="Times,serif" font-size="14.00">rep=no, t=no, r=no, m=no, c=no</text>
</g>
<!-- n2&#45;&gt;n1 -->
<g id="edge4" class="edge">
<title>n2&#45;&gt;n1</title>
<path fill="none" stroke="black" d="M627.82,-788.46C552.89,-774.51 457.57,-756.7 372.73,-740.67 356.44,-737.6 339.36,-734.36 322.41,-731.13"/>
<polygon fill="black" stroke="black" points="322.93,-727.67 312.46,-729.24 321.62,-734.54 322.93,-727.67"/>
</g>
<!-- n3 -->
<g id="node6" class="node">
<title>n3</title>
<ellipse fill="#98D2A5" stroke="black" cx="567.73" cy="-703.2" rx="185.94" ry="37.45"/>
<text text-anchor="middle" x="567.73" y="-714.5" font-family="Times,serif" font-size="14.00">comprobado</text>
<text text-anchor="middle" x="567.73" y="-699.5" font-family="Times,serif" font-size="14.00">vmp00sm (cobj)</text>
<text text-anchor="middle" x="567.73" y="-684.5" font-family="Times,serif" font-size="14.00">rep=no, t=no, r=no, m=yes, c=no</text>
</g>
<!-- n2&#45;&gt;n3 -->
<g id="edge5" class="edge">
<title>n2&#45;&gt;n3</title>
<path fill="none" stroke="black" d="M699.92,-778.83C680.19,-767.69 658.14,-755.24 637.8,-743.75"/>
<polygon fill="black" stroke="black" points="639.31,-740.59 628.89,-738.72 635.87,-746.69 639.31,-740.59"/>
</g>
<!-- n10 -->
<g id="node7" class="node">
<title>n10</title>
<ellipse fill="none" stroke="black" cx="953.73" cy="-703.2" rx="181.95" ry="37.45"/>
<text text-anchor="middle" x="953.73" y="-714.5" font-family="Times,serif" font-size="14.00">&quot;</text>
<text text-anchor="middle" x="953.73" y="-699.5" font-family="Times,serif" font-size="14.00">fe (punct)</text>
<text text-anchor="middle" x="953.73" y="-684.5" font-family="Times,serif" font-size="14.00">rep=no, t=no, r=no, m=no, c=no</text>
</g>
<!-- n2&#45;&gt;n10 -->
<g id="edge6" class="edge">
<title>n2&#45;&gt;n10</title>
<path fill="none" stroke="black" d="M821.53,-778.83C841.36,-767.63 863.52,-755.12 883.96,-743.58"/>
<polygon fill="black" stroke="black" points="885.91,-746.5 892.9,-738.54 882.47,-740.4 885.91,-746.5"/>
</g>
<!-- n11 -->
<g id="node8" class="node">
<title>n11</title>
<ellipse fill="none" stroke="black" cx="1334.73" cy="-703.2" rx="181.95" ry="37.45"/>
<text text-anchor="middle" x="1334.73" y="-714.5" font-family="Times,serif" font-size="14.00">,</text>
<text text-anchor="middle" x="1334.73" y="-699.5" font-family="Times,serif" font-size="14.00">fc (punct)</text>
<text text-anchor="middle" x="1334.73" y="-684.5" font-family="Times,serif" font-size="14.00">rep=no, t=no, r=no, m=no, c=no</text>
</g>
<!-- n2&#45;&gt;n11 -->
<g id="edge7" class="edge">
<title>n2&#45;&gt;n11</title>
<path fill="none" stroke="black" d="M891.28,-787.98C911.19,-784.17 931.5,-780.3 950.73,-776.67 1036.9,-760.41 1058.55,-756.94 1144.73,-740.67 1160.8,-737.64 1177.63,-734.44 1194.35,-731.25"/>
<polygon fill="black" stroke="black" points="1195.01,-734.68 1204.18,-729.37 1193.7,-727.81 1195.01,-734.68"/>
</g>
<!-- n4 -->
<g id="node9" class="node">
<title>n4</title>
<ellipse fill="#98D2A5" stroke="black" cx="372.73" cy="-592.24" rx="185.94" ry="37.45"/>
<text text-anchor="middle" x="372.73" y="-603.54" font-family="Times,serif" font-size="14.00">que</text>
<text text-anchor="middle" x="372.73" y="-588.54" font-family="Times,serif" font-size="14.00">cs (dobj)</text>
<text text-anchor="middle" x="372.73" y="-573.54" font-family="Times,serif" font-size="14.00">rep=no, t=no, r=no, m=yes, c=no</text>
</g>
<!-- n3&#45;&gt;n4 -->
<g id="edge8" class="edge">
<title>n3&#45;&gt;n4</title>
<path fill="none" stroke="black" d="M506.03,-667.72C486.1,-656.59 463.86,-644.16 443.34,-632.7"/>
<polygon fill="black" stroke="black" points="444.8,-629.5 434.36,-627.68 441.38,-635.61 444.8,-629.5"/>
</g>
<!-- n15 -->
<g id="node10" class="node">
<title>n15</title>
<ellipse fill="#98D2A5" stroke="black" cx="762.73" cy="-592.24" rx="185.94" ry="37.45"/>
<text text-anchor="middle" x="762.73" y="-603.54" font-family="Times,serif" font-size="14.00">gobernador</text>
<text text-anchor="middle" x="762.73" y="-588.54" font-family="Times,serif" font-size="14.00">ncms000 (nsubj)</text>
<text text-anchor="middle" x="762.73" y="-573.54" font-family="Times,serif" font-size="14.00">rep=no, t=no, r=no, m=yes, c=no</text>
</g>
<!-- n3&#45;&gt;n15 -->
<g id="edge9" class="edge">
<title>n3&#45;&gt;n15</title>
<path fill="none" stroke="black" d="M629.43,-667.72C649.35,-656.59 671.59,-644.16 692.11,-632.7"/>
<polygon fill="black" stroke="black" points="694.07,-635.61 701.09,-627.68 690.66,-629.5 694.07,-635.61"/>
</g>
<!-- n5 -->
<g id="node11" class="node">
<title>n5</title>
<ellipse fill="#98D2A5" stroke="black" cx="372.73" cy="-481.29" rx="185.94" ry="37.45"/>
<text text-anchor="middle" x="372.73" y="-492.59" font-family="Times,serif" font-size="14.00">puedo</text>
<text text-anchor="middle" x="372.73" y="-477.59" font-family="Times,serif" font-size="14.00">vmip1s0 (cobj)</text>
<text text-anchor="middle" x="372.73" y="-462.59" font-family="Times,serif" font-size="14.00">rep=no, t=no, r=no, m=yes, c=no</text>
</g>
<!-- n4&#45;&gt;n5 -->
<g id="edge10" class="edge">
<title>n4&#45;&gt;n5</title>
<path fill="none" stroke="black" d="M372.73,-554.66C372.73,-546.49 372.73,-537.71 372.73,-529.18"/>
<polygon fill="black" stroke="black" points="376.23,-528.96 372.73,-518.96 369.23,-528.96 376.23,-528.96"/>
</g>
<!-- n14 -->
<g id="node16" class="node">
<title>n14</title>
<ellipse fill="#98D2A5" stroke="black" cx="762.73" cy="-481.29" rx="185.94" ry="37.45"/>
<text text-anchor="middle" x="762.73" y="-492.59" font-family="Times,serif" font-size="14.00">el</text>
<text text-anchor="middle" x="762.73" y="-477.59" font-family="Times,serif" font-size="14.00">da0ms0 (det)</text>
<text text-anchor="middle" x="762.73" y="-462.59" font-family="Times,serif" font-size="14.00">rep=no, t=no, r=no, m=yes, c=no</text>
</g>
<!-- n15&#45;&gt;n14 -->
<g id="edge15" class="edge">
<title>n15&#45;&gt;n14</title>
<path fill="none" stroke="black" d="M762.73,-554.66C762.73,-546.49 762.73,-537.71 762.73,-529.18"/>
<polygon fill="black" stroke="black" points="766.23,-528.96 762.73,-518.96 759.23,-528.96 766.23,-528.96"/>
</g>
<!-- n16 -->
<g id="node17" class="node">
<title>n16</title>
<ellipse fill="#98D2A5" stroke="black" cx="1152.73" cy="-481.29" rx="185.94" ry="37.45"/>
<text text-anchor="middle" x="1152.73" y="-492.59" font-family="Times,serif" font-size="14.00">de</text>
<text text-anchor="middle" x="1152.73" y="-477.59" font-family="Times,serif" font-size="14.00">sps00 (prepn)</text>
<text text-anchor="middle" x="1152.73" y="-462.59" font-family="Times,serif" font-size="14.00">rep=no, t=no, r=no, m=yes, c=no</text>
</g>
<!-- n15&#45;&gt;n16 -->
<g id="edge16" class="edge">
<title>n15&#45;&gt;n16</title>
<path fill="none" stroke="black" d="M869.3,-561.47C921.1,-547 983.47,-529.57 1036.5,-514.76"/>
<polygon fill="black" stroke="black" points="1037.6,-518.09 1046.29,-512.03 1035.71,-511.35 1037.6,-518.09"/>
</g>
<!-- n6 -->
<g id="node12" class="node">
<title>n6</title>
<ellipse fill="#98D2A5" stroke="black" cx="372.73" cy="-370.34" rx="185.94" ry="37.45"/>
<text text-anchor="middle" x="372.73" y="-381.64" font-family="Times,serif" font-size="14.00">movilizar</text>
<text text-anchor="middle" x="372.73" y="-366.64" font-family="Times,serif" font-size="14.00">vmn0000 (dobj)</text>
<text text-anchor="middle" x="372.73" y="-351.64" font-family="Times,serif" font-size="14.00">rep=no, t=no, r=no, m=yes, c=no</text>
</g>
<!-- n5&#45;&gt;n6 -->
<g id="edge11" class="edge">
<title>n5&#45;&gt;n6</title>
<path fill="none" stroke="black" d="M372.73,-443.71C372.73,-435.53 372.73,-426.75 372.73,-418.23"/>
<polygon fill="black" stroke="black" points="376.23,-418.01 372.73,-408.01 369.23,-418.01 376.23,-418.01"/>
</g>
<!-- n7 -->
<g id="node13" class="node">
<title>n7</title>
<ellipse fill="#98D2A5" stroke="black" cx="372.73" cy="-259.38" rx="185.94" ry="37.45"/>
<text text-anchor="middle" x="372.73" y="-270.68" font-family="Times,serif" font-size="14.00">a</text>
<text text-anchor="middle" x="372.73" y="-255.68" font-family="Times,serif" font-size="14.00">sps00 (dobj)</text>
<text text-anchor="middle" x="372.73" y="-240.68" font-family="Times,serif" font-size="14.00">rep=no, t=no, r=no, m=yes, c=no</text>
</g>
<!-- n6&#45;&gt;n7 -->
<g id="edge12" class="edge">
<title>n6&#45;&gt;n7</title>
<path fill="none" stroke="black" d="M372.73,-332.75C372.73,-324.58 372.73,-315.8 372.73,-307.27"/>
<polygon fill="black" stroke="black" points="376.23,-307.06 372.73,-297.06 369.23,-307.06 376.23,-307.06"/>
</g>
<!-- n9 -->
<g id="node14" class="node">
<title>n9</title>
<ellipse fill="#98D2A5" stroke="black" cx="372.73" cy="-148.43" rx="185.94" ry="37.45"/>
<text text-anchor="middle" x="372.73" y="-159.73" font-family="Times,serif" font-size="14.00">republicanos</text>
<text text-anchor="middle" x="372.73" y="-144.73" font-family="Times,serif" font-size="14.00">ncmp000 (pobj)</text>
<text text-anchor="middle" x="372.73" y="-129.73" font-family="Times,serif" font-size="14.00">rep=no, t=no, r=no, m=yes, c=no</text>
</g>
<!-- n7&#45;&gt;n9 -->
<g id="edge13" class="edge">
<title>n7&#45;&gt;n9</title>
<path fill="none" stroke="black" d="M372.73,-221.8C372.73,-213.63 372.73,-204.85 372.73,-196.32"/>
<polygon fill="black" stroke="black" points="376.23,-196.1 372.73,-186.1 369.23,-196.1 376.23,-196.1"/>
</g>
<!-- n8 -->
<g id="node15" class="node">
<title>n8</title>
<ellipse fill="#98D2A5" stroke="black" cx="372.73" cy="-37.48" rx="185.94" ry="37.45"/>
<text text-anchor="middle" x="372.73" y="-48.78" font-family="Times,serif" font-size="14.00">muchos</text>
<text text-anchor="middle" x="372.73" y="-33.78" font-family="Times,serif" font-size="14.00">di0mp0 (det)</text>
<text text-anchor="middle" x="372.73" y="-18.78" font-family="Times,serif" font-size="14.00">rep=no, t=no, r=no, m=yes, c=no</text>
</g>
<!-- n9&#45;&gt;n8 -->
<g id="edge14" class="edge">
<title>n9&#45;&gt;n8</title>
<path fill="none" stroke="black" d="M372.73,-110.85C372.73,-102.67 372.73,-93.89 372.73,-85.37"/>
<polygon fill="black" stroke="black" points="376.23,-85.15 372.73,-75.15 369.23,-85.15 376.23,-85.15"/>
</g>
<!-- n17 -->
<g id="node18" class="node">
<title>n17</title>
<ellipse fill="#98D2A5" stroke="black" cx="1152.73" cy="-370.34" rx="185.94" ry="37.45"/>
<text text-anchor="middle" x="1152.73" y="-381.64" font-family="Times,serif" font-size="14.00">Tejas</text>
<text text-anchor="middle" x="1152.73" y="-366.64" font-family="Times,serif" font-size="14.00">np00000 (pobj)</text>
<text text-anchor="middle" x="1152.73" y="-351.64" font-family="Times,serif" font-size="14.00">rep=no, t=no, r=no, m=yes, c=no</text>
</g>
<!-- n16&#45;&gt;n17 -->
<g id="edge17" class="edge">
<title>n16&#45;&gt;n17</title>
<path fill="none" stroke="black" d="M1152.73,-443.71C1152.73,-435.53 1152.73,-426.75 1152.73,-418.23"/>
<polygon fill="black" stroke="black" points="1156.23,-418.01 1152.73,-408.01 1149.23,-418.01 1156.23,-418.01"/>
</g>
</g>
</svg>
