<?xml version="1.0" encoding="UTF-8" standalone="no"?>
<!DOCTYPE svg PUBLIC "-//W3C//DTD SVG 1.1//EN"
 "http://www.w3.org/Graphics/SVG/1.1/DTD/svg11.dtd">
<!-- Generated by graphviz version 2.43.0 (0)
 -->
<!-- Title: tree Pages: 1 -->
<svg width="1753pt" height="527pt"
 viewBox="0.00 0.00 1752.65 526.77" xmlns="http://www.w3.org/2000/svg" xmlns:xlink="http://www.w3.org/1999/xlink">
<g id="graph0" class="graph" transform="scale(1 1) rotate(0) translate(4 522.77)">
<title>tree</title>
<polygon fill="white" stroke="transparent" points="-4,4 -4,-522.77 1748.65,-522.77 1748.65,4 -4,4"/>
<!-- n6 -->
<g id="node1" class="node">
<title>n6</title>
<ellipse fill="none" stroke="black" cx="983.92" cy="-481.29" rx="185.94" ry="37.45"/>
<text text-anchor="middle" x="983.92" y="-492.59" font-family="Times,serif" font-size="14.00">y</text>
<text text-anchor="middle" x="983.92" y="-477.59" font-family="Times,serif" font-size="14.00">cc (root)</text>
<text text-anchor="middle" x="983.92" y="-462.59" font-family="Times,serif" font-size="14.00">rep=no, t=no, r=no, m=yes, c=no</text>
</g>
<!-- n3 -->
<g id="node2" class="node">
<title>n3</title>
<ellipse fill="#DA79E8" stroke="black" cx="399.92" cy="-370.34" rx="190.84" ry="37.45"/>
<text text-anchor="middle" x="399.92" y="-381.64" font-family="Times,serif" font-size="14.00">tiene</text>
<text text-anchor="middle" x="399.92" y="-366.64" font-family="Times,serif" font-size="14.00">vmip3s0 (coord)</text>
<text text-anchor="middle" x="399.92" y="-351.64" font-family="Times,serif" font-size="14.00">rep=no, t=no, r=yes, m=yes, c=no</text>
</g>
<!-- n6&#45;&gt;n3 -->
<g id="edge1" class="edge">
<title>n6&#45;&gt;n3</title>
<path fill="none" stroke="black" d="M849.94,-455.29C759.12,-438.35 639.13,-415.96 545.89,-398.57"/>
<polygon fill="black" stroke="black" points="546.28,-395.08 535.81,-396.69 544.99,-401.96 546.28,-395.08"/>
</g>
<!-- n5 -->
<g id="node3" class="node">
<title>n5</title>
<ellipse fill="none" stroke="black" cx="790.92" cy="-370.34" rx="181.95" ry="37.45"/>
<text text-anchor="middle" x="790.92" y="-381.64" font-family="Times,serif" font-size="14.00">,</text>
<text text-anchor="middle" x="790.92" y="-366.64" font-family="Times,serif" font-size="14.00">fc (punct)</text>
<text text-anchor="middle" x="790.92" y="-351.64" font-family="Times,serif" font-size="14.00">rep=no, t=no, r=no, m=no, c=no</text>
</g>
<!-- n6&#45;&gt;n5 -->
<g id="edge2" class="edge">
<title>n6&#45;&gt;n5</title>
<path fill="none" stroke="black" d="M922.85,-445.82C903.13,-434.68 881.12,-422.26 860.81,-410.79"/>
<polygon fill="black" stroke="black" points="862.35,-407.64 851.92,-405.77 858.91,-413.74 862.35,-407.64"/>
</g>
<!-- n7 -->
<g id="node4" class="node">
<title>n7</title>
<ellipse fill="none" stroke="black" cx="1176.92" cy="-370.34" rx="185.94" ry="37.45"/>
<text text-anchor="middle" x="1176.92" y="-381.64" font-family="Times,serif" font-size="14.00">tendrá</text>
<text text-anchor="middle" x="1176.92" y="-366.64" font-family="Times,serif" font-size="14.00">vmif3s0 (coord)</text>
<text text-anchor="middle" x="1176.92" y="-351.64" font-family="Times,serif" font-size="14.00">rep=no, t=no, r=no, m=yes, c=no</text>
</g>
<!-- n6&#45;&gt;n7 -->
<g id="edge3" class="edge">
<title>n6&#45;&gt;n7</title>
<path fill="none" stroke="black" d="M1044.99,-445.82C1064.71,-434.68 1086.72,-422.26 1107.03,-410.79"/>
<polygon fill="black" stroke="black" points="1108.93,-413.74 1115.92,-405.77 1105.49,-407.64 1108.93,-413.74"/>
</g>
<!-- n11 -->
<g id="node5" class="node">
<title>n11</title>
<ellipse fill="none" stroke="black" cx="1562.92" cy="-370.34" rx="181.95" ry="37.45"/>
<text text-anchor="middle" x="1562.92" y="-381.64" font-family="Times,serif" font-size="14.00">.</text>
<text text-anchor="middle" x="1562.92" y="-366.64" font-family="Times,serif" font-size="14.00">fp (punct)</text>
<text text-anchor="middle" x="1562.92" y="-351.64" font-family="Times,serif" font-size="14.00">rep=no, t=no, r=no, m=no, c=no</text>
</g>
<!-- n6&#45;&gt;n11 -->
<g id="edge4" class="edge">
<title>n6&#45;&gt;n11</title>
<path fill="none" stroke="black" d="M1118.17,-455.35C1192.89,-441.43 1287.58,-423.74 1371.92,-407.81 1388.21,-404.74 1405.28,-401.5 1422.23,-398.27"/>
<polygon fill="black" stroke="black" points="1423.02,-401.68 1432.19,-396.38 1421.71,-394.81 1423.02,-401.68"/>
</g>
<!-- n2 -->
<g id="node6" class="node">
<title>n2</title>
<ellipse fill="#BEDA48" stroke="black" cx="190.92" cy="-259.38" rx="190.84" ry="37.45"/>
<text text-anchor="middle" x="190.92" y="-270.68" font-family="Times,serif" font-size="14.00">tierra</text>
<text text-anchor="middle" x="190.92" y="-255.68" font-family="Times,serif" font-size="14.00">ncfs000 (nsubj)</text>
<text text-anchor="middle" x="190.92" y="-240.68" font-family="Times,serif" font-size="14.00">rep=no, t=yes, r=no, m=yes, c=no</text>
</g>
<!-- n3&#45;&gt;n2 -->
<g id="edge5" class="edge">
<title>n3&#45;&gt;n2</title>
<path fill="none" stroke="black" d="M334.08,-335.01C312.41,-323.72 288.17,-311.08 265.88,-299.46"/>
<polygon fill="black" stroke="black" points="267.27,-296.24 256.79,-294.72 264.04,-302.45 267.27,-296.24"/>
</g>
<!-- n4 -->
<g id="node7" class="node">
<title>n4</title>
<ellipse fill="#DA79E8" stroke="black" cx="590.92" cy="-259.38" rx="190.84" ry="37.45"/>
<text text-anchor="middle" x="590.92" y="-270.68" font-family="Times,serif" font-size="14.00">sed</text>
<text text-anchor="middle" x="590.92" y="-255.68" font-family="Times,serif" font-size="14.00">ncfs000 (dobj)</text>
<text text-anchor="middle" x="590.92" y="-240.68" font-family="Times,serif" font-size="14.00">rep=no, t=no, r=yes, m=yes, c=no</text>
</g>
<!-- n3&#45;&gt;n4 -->
<g id="edge6" class="edge">
<title>n3&#45;&gt;n4</title>
<path fill="none" stroke="black" d="M460.61,-334.71C479.93,-323.69 501.45,-311.42 521.34,-300.07"/>
<polygon fill="black" stroke="black" points="523.1,-303.1 530.05,-295.1 519.63,-297.02 523.1,-303.1"/>
</g>
<!-- n10 -->
<g id="node9" class="node">
<title>n10</title>
<ellipse fill="none" stroke="black" cx="1176.92" cy="-259.38" rx="185.94" ry="37.45"/>
<text text-anchor="middle" x="1176.92" y="-270.68" font-family="Times,serif" font-size="14.00">año</text>
<text text-anchor="middle" x="1176.92" y="-255.68" font-family="Times,serif" font-size="14.00">ncms000 (tmod)</text>
<text text-anchor="middle" x="1176.92" y="-240.68" font-family="Times,serif" font-size="14.00">rep=no, t=no, r=no, m=yes, c=no</text>
</g>
<!-- n7&#45;&gt;n10 -->
<g id="edge8" class="edge">
<title>n7&#45;&gt;n10</title>
<path fill="none" stroke="black" d="M1176.92,-332.75C1176.92,-324.58 1176.92,-315.8 1176.92,-307.27"/>
<polygon fill="black" stroke="black" points="1180.42,-307.06 1176.92,-297.06 1173.42,-307.06 1180.42,-307.06"/>
</g>
<!-- n1 -->
<g id="node8" class="node">
<title>n1</title>
<ellipse fill="#BEDA48" stroke="black" cx="190.92" cy="-148.43" rx="190.84" ry="37.45"/>
<text text-anchor="middle" x="190.92" y="-159.73" font-family="Times,serif" font-size="14.00">La</text>
<text text-anchor="middle" x="190.92" y="-144.73" font-family="Times,serif" font-size="14.00">da0fs0 (det)</text>
<text text-anchor="middle" x="190.92" y="-129.73" font-family="Times,serif" font-size="14.00">rep=no, t=yes, r=no, m=yes, c=no</text>
</g>
<!-- n2&#45;&gt;n1 -->
<g id="edge7" class="edge">
<title>n2&#45;&gt;n1</title>
<path fill="none" stroke="black" d="M190.92,-221.8C190.92,-213.63 190.92,-204.85 190.92,-196.32"/>
<polygon fill="black" stroke="black" points="194.42,-196.1 190.92,-186.1 187.42,-196.1 194.42,-196.1"/>
</g>
<!-- n9 -->
<g id="node10" class="node">
<title>n9</title>
<ellipse fill="none" stroke="black" cx="1176.92" cy="-148.43" rx="185.94" ry="37.45"/>
<text text-anchor="middle" x="1176.92" y="-159.73" font-family="Times,serif" font-size="14.00">cada</text>
<text text-anchor="middle" x="1176.92" y="-144.73" font-family="Times,serif" font-size="14.00">di0cs0 (det)</text>
<text text-anchor="middle" x="1176.92" y="-129.73" font-family="Times,serif" font-size="14.00">rep=no, t=no, r=no, m=yes, c=no</text>
</g>
<!-- n10&#45;&gt;n9 -->
<g id="edge9" class="edge">
<title>n10&#45;&gt;n9</title>
<path fill="none" stroke="black" d="M1176.92,-221.8C1176.92,-213.63 1176.92,-204.85 1176.92,-196.32"/>
<polygon fill="black" stroke="black" points="1180.42,-196.1 1176.92,-186.1 1173.42,-196.1 1180.42,-196.1"/>
</g>
<!-- n8 -->
<g id="node11" class="node">
<title>n8</title>
<ellipse fill="none" stroke="black" cx="1176.92" cy="-37.48" rx="185.94" ry="37.45"/>
<text text-anchor="middle" x="1176.92" y="-48.78" font-family="Times,serif" font-size="14.00">más</text>
<text text-anchor="middle" x="1176.92" y="-33.78" font-family="Times,serif" font-size="14.00">rg (advmod)</text>
<text text-anchor="middle" x="1176.92" y="-18.78" font-family="Times,serif" font-size="14.00">rep=no, t=no, r=no, m=yes, c=no</text>
</g>
<!-- n9&#45;&gt;n8 -->
<g id="edge10" class="edge">
<title>n9&#45;&gt;n8</title>
<path fill="none" stroke="black" d="M1176.92,-110.85C1176.92,-102.67 1176.92,-93.89 1176.92,-85.37"/>
<polygon fill="black" stroke="black" points="1180.42,-85.15 1176.92,-75.15 1173.42,-85.15 1180.42,-85.15"/>
</g>
</g>
</svg>
