<?xml version="1.0" encoding="UTF-8" standalone="no"?>
<!DOCTYPE svg PUBLIC "-//W3C//DTD SVG 1.1//EN"
 "http://www.w3.org/Graphics/SVG/1.1/DTD/svg11.dtd">
<!-- Generated by graphviz version 2.43.0 (0)
 -->
<!-- Title: tree Pages: 1 -->
<svg width="4300pt" height="749pt"
 viewBox="0.00 0.00 4299.94 748.67" xmlns="http://www.w3.org/2000/svg" xmlns:xlink="http://www.w3.org/1999/xlink">
<g id="graph0" class="graph" transform="scale(1 1) rotate(0) translate(4 744.67)">
<title>tree</title>
<polygon fill="white" stroke="transparent" points="-4,4 -4,-744.67 4295.94,-744.67 4295.94,4 -4,4"/>
<!-- n22 -->
<g id="node1" class="node">
<title>n22</title>
<ellipse fill="none" stroke="black" cx="2545.97" cy="-703.2" rx="185.94" ry="37.45"/>
<text text-anchor="middle" x="2545.97" y="-714.5" font-family="Times,serif" font-size="14.00">sentaría</text>
<text text-anchor="middle" x="2545.97" y="-699.5" font-family="Times,serif" font-size="14.00">vmic3s0 (root)</text>
<text text-anchor="middle" x="2545.97" y="-684.5" font-family="Times,serif" font-size="14.00">rep=no, t=no, r=no, m=yes, c=no</text>
</g>
<!-- n1 -->
<g id="node2" class="node">
<title>n1</title>
<ellipse fill="none" stroke="black" cx="2155.97" cy="-592.24" rx="185.94" ry="37.45"/>
<text text-anchor="middle" x="2155.97" y="-603.54" font-family="Times,serif" font-size="14.00">Solventar</text>
<text text-anchor="middle" x="2155.97" y="-588.54" font-family="Times,serif" font-size="14.00">vmn0000 (dobj)</text>
<text text-anchor="middle" x="2155.97" y="-573.54" font-family="Times,serif" font-size="14.00">rep=no, t=no, r=no, m=yes, c=no</text>
</g>
<!-- n22&#45;&gt;n1 -->
<g id="edge1" class="edge">
<title>n22&#45;&gt;n1</title>
<path fill="none" stroke="black" d="M2439.4,-672.42C2387.59,-657.95 2325.23,-640.53 2272.2,-625.71"/>
<polygon fill="black" stroke="black" points="2272.98,-622.3 2262.41,-622.98 2271.1,-629.04 2272.98,-622.3"/>
</g>
<!-- n25 -->
<g id="node3" class="node">
<title>n25</title>
<ellipse fill="none" stroke="black" cx="2545.97" cy="-592.24" rx="185.94" ry="37.45"/>
<text text-anchor="middle" x="2545.97" y="-603.54" font-family="Times,serif" font-size="14.00">precedente</text>
<text text-anchor="middle" x="2545.97" y="-588.54" font-family="Times,serif" font-size="14.00">ncms000 (dobj)</text>
<text text-anchor="middle" x="2545.97" y="-573.54" font-family="Times,serif" font-size="14.00">rep=no, t=no, r=no, m=yes, c=no</text>
</g>
<!-- n22&#45;&gt;n25 -->
<g id="edge2" class="edge">
<title>n22&#45;&gt;n25</title>
<path fill="none" stroke="black" d="M2545.97,-665.61C2545.97,-657.44 2545.97,-648.66 2545.97,-640.13"/>
<polygon fill="black" stroke="black" points="2549.47,-639.92 2545.97,-629.92 2542.47,-639.92 2549.47,-639.92"/>
</g>
<!-- n26 -->
<g id="node4" class="node">
<title>n26</title>
<ellipse fill="none" stroke="black" cx="2931.97" cy="-592.24" rx="181.95" ry="37.45"/>
<text text-anchor="middle" x="2931.97" y="-603.54" font-family="Times,serif" font-size="14.00">.</text>
<text text-anchor="middle" x="2931.97" y="-588.54" font-family="Times,serif" font-size="14.00">fp (punct)</text>
<text text-anchor="middle" x="2931.97" y="-573.54" font-family="Times,serif" font-size="14.00">rep=no, t=no, r=no, m=no, c=no</text>
</g>
<!-- n22&#45;&gt;n26 -->
<g id="edge3" class="edge">
<title>n22&#45;&gt;n26</title>
<path fill="none" stroke="black" d="M2651.7,-672.35C2702.97,-657.88 2764.65,-640.47 2817.08,-625.67"/>
<polygon fill="black" stroke="black" points="2818.08,-629.03 2826.75,-622.94 2816.18,-622.29 2818.08,-629.03"/>
</g>
<!-- n3 -->
<g id="node5" class="node">
<title>n3</title>
<ellipse fill="none" stroke="black" cx="1765.97" cy="-481.29" rx="185.94" ry="37.45"/>
<text text-anchor="middle" x="1765.97" y="-492.59" font-family="Times,serif" font-size="14.00">problema</text>
<text text-anchor="middle" x="1765.97" y="-477.59" font-family="Times,serif" font-size="14.00">ncms000 (dobj)</text>
<text text-anchor="middle" x="1765.97" y="-462.59" font-family="Times,serif" font-size="14.00">rep=no, t=no, r=no, m=yes, c=no</text>
</g>
<!-- n1&#45;&gt;n3 -->
<g id="edge4" class="edge">
<title>n1&#45;&gt;n3</title>
<path fill="none" stroke="black" d="M2049.4,-561.47C1997.59,-547 1935.23,-529.57 1882.2,-514.76"/>
<polygon fill="black" stroke="black" points="1882.98,-511.35 1872.41,-512.03 1881.1,-518.09 1882.98,-511.35"/>
</g>
<!-- n4 -->
<g id="node6" class="node">
<title>n4</title>
<ellipse fill="none" stroke="black" cx="2155.97" cy="-481.29" rx="185.94" ry="37.45"/>
<text text-anchor="middle" x="2155.97" y="-492.59" font-family="Times,serif" font-size="14.00">pagando</text>
<text text-anchor="middle" x="2155.97" y="-477.59" font-family="Times,serif" font-size="14.00">vmg0000 (advcl)</text>
<text text-anchor="middle" x="2155.97" y="-462.59" font-family="Times,serif" font-size="14.00">rep=no, t=no, r=no, m=yes, c=no</text>
</g>
<!-- n1&#45;&gt;n4 -->
<g id="edge5" class="edge">
<title>n1&#45;&gt;n4</title>
<path fill="none" stroke="black" d="M2155.97,-554.66C2155.97,-546.49 2155.97,-537.71 2155.97,-529.18"/>
<polygon fill="black" stroke="black" points="2159.47,-528.96 2155.97,-518.96 2152.47,-528.96 2159.47,-528.96"/>
</g>
<!-- n23 -->
<g id="node25" class="node">
<title>n23</title>
<ellipse fill="none" stroke="black" cx="2545.97" cy="-481.29" rx="185.94" ry="37.45"/>
<text text-anchor="middle" x="2545.97" y="-492.59" font-family="Times,serif" font-size="14.00">un</text>
<text text-anchor="middle" x="2545.97" y="-477.59" font-family="Times,serif" font-size="14.00">di0ms0 (det)</text>
<text text-anchor="middle" x="2545.97" y="-462.59" font-family="Times,serif" font-size="14.00">rep=no, t=no, r=no, m=yes, c=no</text>
</g>
<!-- n25&#45;&gt;n23 -->
<g id="edge24" class="edge">
<title>n25&#45;&gt;n23</title>
<path fill="none" stroke="black" d="M2545.97,-554.66C2545.97,-546.49 2545.97,-537.71 2545.97,-529.18"/>
<polygon fill="black" stroke="black" points="2549.47,-528.96 2545.97,-518.96 2542.47,-528.96 2549.47,-528.96"/>
</g>
<!-- n24 -->
<g id="node26" class="node">
<title>n24</title>
<ellipse fill="none" stroke="black" cx="2935.97" cy="-481.29" rx="185.94" ry="37.45"/>
<text text-anchor="middle" x="2935.97" y="-492.59" font-family="Times,serif" font-size="14.00">pésimo</text>
<text text-anchor="middle" x="2935.97" y="-477.59" font-family="Times,serif" font-size="14.00">aq0ms0 (amod)</text>
<text text-anchor="middle" x="2935.97" y="-462.59" font-family="Times,serif" font-size="14.00">rep=no, t=no, r=no, m=yes, c=no</text>
</g>
<!-- n25&#45;&gt;n24 -->
<g id="edge25" class="edge">
<title>n25&#45;&gt;n24</title>
<path fill="none" stroke="black" d="M2652.54,-561.47C2704.34,-547 2766.71,-529.57 2819.74,-514.76"/>
<polygon fill="black" stroke="black" points="2820.84,-518.09 2829.53,-512.03 2818.96,-511.35 2820.84,-518.09"/>
</g>
<!-- n2 -->
<g id="node7" class="node">
<title>n2</title>
<ellipse fill="none" stroke="black" cx="1765.97" cy="-370.34" rx="185.94" ry="37.45"/>
<text text-anchor="middle" x="1765.97" y="-381.64" font-family="Times,serif" font-size="14.00">el</text>
<text text-anchor="middle" x="1765.97" y="-366.64" font-family="Times,serif" font-size="14.00">da0ms0 (det)</text>
<text text-anchor="middle" x="1765.97" y="-351.64" font-family="Times,serif" font-size="14.00">rep=no, t=no, r=no, m=yes, c=no</text>
</g>
<!-- n3&#45;&gt;n2 -->
<g id="edge6" class="edge">
<title>n3&#45;&gt;n2</title>
<path fill="none" stroke="black" d="M1765.97,-443.71C1765.97,-435.53 1765.97,-426.75 1765.97,-418.23"/>
<polygon fill="black" stroke="black" points="1769.47,-418.01 1765.97,-408.01 1762.47,-418.01 1769.47,-418.01"/>
</g>
<!-- n15 -->
<g id="node8" class="node">
<title>n15</title>
<ellipse fill="none" stroke="black" cx="2155.97" cy="-370.34" rx="185.94" ry="37.45"/>
<text text-anchor="middle" x="2155.97" y="-381.64" font-family="Times,serif" font-size="14.00">metro</text>
<text text-anchor="middle" x="2155.97" y="-366.64" font-family="Times,serif" font-size="14.00">ncms000 (dobj)</text>
<text text-anchor="middle" x="2155.97" y="-351.64" font-family="Times,serif" font-size="14.00">rep=no, t=no, r=no, m=yes, c=no</text>
</g>
<!-- n4&#45;&gt;n15 -->
<g id="edge7" class="edge">
<title>n4&#45;&gt;n15</title>
<path fill="none" stroke="black" d="M2155.97,-443.71C2155.97,-435.53 2155.97,-426.75 2155.97,-418.23"/>
<polygon fill="black" stroke="black" points="2159.47,-418.01 2155.97,-408.01 2152.47,-418.01 2159.47,-418.01"/>
</g>
<!-- n5 -->
<g id="node9" class="node">
<title>n5</title>
<ellipse fill="none" stroke="black" cx="185.97" cy="-259.38" rx="185.94" ry="37.45"/>
<text text-anchor="middle" x="185.97" y="-270.68" font-family="Times,serif" font-size="14.00">&#45;</text>
<text text-anchor="middle" x="185.97" y="-255.68" font-family="Times,serif" font-size="14.00">fg (punct)</text>
<text text-anchor="middle" x="185.97" y="-240.68" font-family="Times,serif" font-size="14.00">rep=no, t=no, r=no, m=yes, c=no</text>
</g>
<!-- n15&#45;&gt;n5 -->
<g id="edge8" class="edge">
<title>n15&#45;&gt;n5</title>
<path fill="none" stroke="black" d="M2030.01,-342.69C2007.13,-338.73 1983.41,-335.2 1960.97,-332.86 1262.35,-260.05 1079.59,-369.67 380.97,-296.86 361.77,-294.86 341.64,-291.99 321.9,-288.72"/>
<polygon fill="black" stroke="black" points="322.37,-285.25 311.93,-287.03 321.21,-292.15 322.37,-285.25"/>
</g>
<!-- n6 -->
<g id="node10" class="node">
<title>n6</title>
<ellipse fill="none" stroke="black" cx="575.97" cy="-259.38" rx="185.94" ry="37.45"/>
<text text-anchor="middle" x="575.97" y="-270.68" font-family="Times,serif" font-size="14.00">&#45;</text>
<text text-anchor="middle" x="575.97" y="-255.68" font-family="Times,serif" font-size="14.00">fg (punct)</text>
<text text-anchor="middle" x="575.97" y="-240.68" font-family="Times,serif" font-size="14.00">rep=no, t=no, r=no, m=yes, c=no</text>
</g>
<!-- n15&#45;&gt;n6 -->
<g id="edge9" class="edge">
<title>n15&#45;&gt;n6</title>
<path fill="none" stroke="black" d="M2029.73,-342.78C2006.93,-338.83 1983.31,-335.27 1960.97,-332.86 1434.9,-276.04 1297.04,-353.68 770.97,-296.86 751.86,-294.8 731.81,-291.9 712.14,-288.63"/>
<polygon fill="black" stroke="black" points="712.65,-285.16 702.21,-286.94 711.48,-292.07 712.65,-285.16"/>
</g>
<!-- n7 -->
<g id="node11" class="node">
<title>n7</title>
<ellipse fill="none" stroke="black" cx="970.97" cy="-259.38" rx="190.84" ry="37.45"/>
<text text-anchor="middle" x="970.97" y="-270.68" font-family="Times,serif" font-size="14.00">a</text>
<text text-anchor="middle" x="970.97" y="-255.68" font-family="Times,serif" font-size="14.00">sps00 (dep)</text>
<text text-anchor="middle" x="970.97" y="-240.68" font-family="Times,serif" font-size="14.00">rep=no, t=no, r=no, m=yes, c=yes</text>
</g>
<!-- n15&#45;&gt;n7 -->
<g id="edge10" class="edge">
<title>n15&#45;&gt;n7</title>
<path fill="none" stroke="black" d="M2028.91,-342.93C2006.36,-339 1983.04,-335.41 1960.97,-332.86 1611.82,-292.45 1520.2,-336.48 1170.97,-296.86 1151.62,-294.66 1131.32,-291.72 1111.38,-288.45"/>
<polygon fill="black" stroke="black" points="1111.75,-284.97 1101.31,-286.77 1110.59,-291.87 1111.75,-284.97"/>
</g>
<!-- n10 -->
<g id="node12" class="node">
<title>n10</title>
<ellipse fill="none" stroke="black" cx="1365.97" cy="-259.38" rx="185.94" ry="37.45"/>
<text text-anchor="middle" x="1365.97" y="-270.68" font-family="Times,serif" font-size="14.00">o</text>
<text text-anchor="middle" x="1365.97" y="-255.68" font-family="Times,serif" font-size="14.00">cc (coord_fixed)</text>
<text text-anchor="middle" x="1365.97" y="-240.68" font-family="Times,serif" font-size="14.00">rep=no, t=no, r=no, m=yes, c=no</text>
</g>
<!-- n15&#45;&gt;n10 -->
<g id="edge11" class="edge">
<title>n15&#45;&gt;n10</title>
<path fill="none" stroke="black" d="M2026.71,-343.37C2004.83,-339.49 1982.29,-335.81 1960.97,-332.86 1784.15,-308.42 1737.78,-321.3 1560.97,-296.86 1542.89,-294.36 1523.95,-291.34 1505.27,-288.11"/>
<polygon fill="black" stroke="black" points="1505.68,-284.63 1495.23,-286.35 1504.47,-291.52 1505.68,-284.63"/>
</g>
<!-- n11 -->
<g id="node13" class="node">
<title>n11</title>
<ellipse fill="none" stroke="black" cx="1760.97" cy="-259.38" rx="190.84" ry="37.45"/>
<text text-anchor="middle" x="1760.97" y="-270.68" font-family="Times,serif" font-size="14.00">a</text>
<text text-anchor="middle" x="1760.97" y="-255.68" font-family="Times,serif" font-size="14.00">sps00 (dep)</text>
<text text-anchor="middle" x="1760.97" y="-240.68" font-family="Times,serif" font-size="14.00">rep=no, t=no, r=no, m=yes, c=yes</text>
</g>
<!-- n15&#45;&gt;n11 -->
<g id="edge12" class="edge">
<title>n15&#45;&gt;n11</title>
<path fill="none" stroke="black" d="M2048.56,-339.71C1996.19,-325.26 1933.06,-307.85 1879.31,-293.03"/>
<polygon fill="black" stroke="black" points="1879.96,-289.57 1869.39,-290.29 1878.1,-296.32 1879.96,-289.57"/>
</g>
<!-- n14 -->
<g id="node14" class="node">
<title>n14</title>
<ellipse fill="none" stroke="black" cx="2155.97" cy="-259.38" rx="185.94" ry="37.45"/>
<text text-anchor="middle" x="2155.97" y="-270.68" font-family="Times,serif" font-size="14.00">el</text>
<text text-anchor="middle" x="2155.97" y="-255.68" font-family="Times,serif" font-size="14.00">da0ms0 (det)</text>
<text text-anchor="middle" x="2155.97" y="-240.68" font-family="Times,serif" font-size="14.00">rep=no, t=no, r=no, m=yes, c=no</text>
</g>
<!-- n15&#45;&gt;n14 -->
<g id="edge13" class="edge">
<title>n15&#45;&gt;n14</title>
<path fill="none" stroke="black" d="M2155.97,-332.75C2155.97,-324.58 2155.97,-315.8 2155.97,-307.27"/>
<polygon fill="black" stroke="black" points="2159.47,-307.06 2155.97,-297.06 2152.47,-307.06 2159.47,-307.06"/>
</g>
<!-- n16 -->
<g id="node15" class="node">
<title>n16</title>
<ellipse fill="none" stroke="black" cx="2545.97" cy="-259.38" rx="185.94" ry="37.45"/>
<text text-anchor="middle" x="2545.97" y="-270.68" font-family="Times,serif" font-size="14.00">cúbico</text>
<text text-anchor="middle" x="2545.97" y="-255.68" font-family="Times,serif" font-size="14.00">aq0ms0 (amod)</text>
<text text-anchor="middle" x="2545.97" y="-240.68" font-family="Times,serif" font-size="14.00">rep=no, t=no, r=no, m=yes, c=no</text>
</g>
<!-- n15&#45;&gt;n16 -->
<g id="edge14" class="edge">
<title>n15&#45;&gt;n16</title>
<path fill="none" stroke="black" d="M2262.54,-339.56C2314.34,-325.09 2376.71,-307.67 2429.74,-292.85"/>
<polygon fill="black" stroke="black" points="2430.84,-296.18 2439.53,-290.12 2428.96,-289.44 2430.84,-296.18"/>
</g>
<!-- n17 -->
<g id="node16" class="node">
<title>n17</title>
<ellipse fill="none" stroke="black" cx="2935.97" cy="-259.38" rx="185.94" ry="37.45"/>
<text text-anchor="middle" x="2935.97" y="-270.68" font-family="Times,serif" font-size="14.00">,</text>
<text text-anchor="middle" x="2935.97" y="-255.68" font-family="Times,serif" font-size="14.00">fc (punct)</text>
<text text-anchor="middle" x="2935.97" y="-240.68" font-family="Times,serif" font-size="14.00">rep=no, t=no, r=no, m=yes, c=no</text>
</g>
<!-- n15&#45;&gt;n17 -->
<g id="edge15" class="edge">
<title>n15&#45;&gt;n17</title>
<path fill="none" stroke="black" d="M2318.37,-351.94C2435.97,-338.67 2598.63,-318.97 2740.97,-296.86 2758.49,-294.14 2776.84,-291.04 2794.99,-287.82"/>
<polygon fill="black" stroke="black" points="2795.82,-291.23 2805.04,-286.02 2794.58,-284.34 2795.82,-291.23"/>
</g>
<!-- n18 -->
<g id="node17" class="node">
<title>n18</title>
<ellipse fill="none" stroke="black" cx="3325.97" cy="-259.38" rx="185.94" ry="37.45"/>
<text text-anchor="middle" x="3325.97" y="-270.68" font-family="Times,serif" font-size="14.00">da</text>
<text text-anchor="middle" x="3325.97" y="-255.68" font-family="Times,serif" font-size="14.00">vmip3s0 (dep)</text>
<text text-anchor="middle" x="3325.97" y="-240.68" font-family="Times,serif" font-size="14.00">rep=no, t=no, r=no, m=yes, c=no</text>
</g>
<!-- n15&#45;&gt;n18 -->
<g id="edge16" class="edge">
<title>n15&#45;&gt;n18</title>
<path fill="none" stroke="black" d="M2337.17,-361.87C2533.41,-352.39 2855.35,-332.77 3130.97,-296.86 3149.36,-294.46 3168.65,-291.46 3187.64,-288.21"/>
<polygon fill="black" stroke="black" points="3188.28,-291.65 3197.54,-286.49 3187.08,-284.76 3188.28,-291.65"/>
</g>
<!-- n20 -->
<g id="node18" class="node">
<title>n20</title>
<ellipse fill="none" stroke="black" cx="3715.97" cy="-259.38" rx="185.94" ry="37.45"/>
<text text-anchor="middle" x="3715.97" y="-270.68" font-family="Times,serif" font-size="14.00">&#45;</text>
<text text-anchor="middle" x="3715.97" y="-255.68" font-family="Times,serif" font-size="14.00">fg (punct)</text>
<text text-anchor="middle" x="3715.97" y="-240.68" font-family="Times,serif" font-size="14.00">rep=no, t=no, r=no, m=yes, c=no</text>
</g>
<!-- n15&#45;&gt;n20 -->
<g id="edge17" class="edge">
<title>n15&#45;&gt;n20</title>
<path fill="none" stroke="black" d="M2341.54,-367.23C2604.76,-362.48 3101.24,-347.04 3520.97,-296.86 3539.68,-294.62 3559.3,-291.68 3578.59,-288.43"/>
<polygon fill="black" stroke="black" points="3579.37,-291.84 3588.63,-286.7 3578.19,-284.94 3579.37,-291.84"/>
</g>
<!-- n21 -->
<g id="node19" class="node">
<title>n21</title>
<ellipse fill="none" stroke="black" cx="4105.97" cy="-259.38" rx="185.94" ry="37.45"/>
<text text-anchor="middle" x="4105.97" y="-270.68" font-family="Times,serif" font-size="14.00">&#45;</text>
<text text-anchor="middle" x="4105.97" y="-255.68" font-family="Times,serif" font-size="14.00">fg (punct)</text>
<text text-anchor="middle" x="4105.97" y="-240.68" font-family="Times,serif" font-size="14.00">rep=no, t=no, r=no, m=yes, c=no</text>
</g>
<!-- n15&#45;&gt;n21 -->
<g id="edge18" class="edge">
<title>n15&#45;&gt;n21</title>
<path fill="none" stroke="black" d="M2340.31,-365.08C2726.87,-355.61 3611.28,-330.9 3910.97,-296.86 3929.84,-294.72 3949.63,-291.8 3969.06,-288.55"/>
<polygon fill="black" stroke="black" points="3969.92,-291.96 3979.18,-286.83 3968.74,-285.06 3969.92,-291.96"/>
</g>
<!-- n9 -->
<g id="node20" class="node">
<title>n9</title>
<ellipse fill="none" stroke="black" cx="970.97" cy="-148.43" rx="185.94" ry="37.45"/>
<text text-anchor="middle" x="970.97" y="-159.73" font-family="Times,serif" font-size="14.00">pesetas</text>
<text text-anchor="middle" x="970.97" y="-144.73" font-family="Times,serif" font-size="14.00">zm (pobj)</text>
<text text-anchor="middle" x="970.97" y="-129.73" font-family="Times,serif" font-size="14.00">rep=no, t=no, r=no, m=yes, c=no</text>
</g>
<!-- n7&#45;&gt;n9 -->
<g id="edge19" class="edge">
<title>n7&#45;&gt;n9</title>
<path fill="none" stroke="black" d="M970.97,-221.8C970.97,-213.63 970.97,-204.85 970.97,-196.32"/>
<polygon fill="black" stroke="black" points="974.47,-196.1 970.97,-186.1 967.47,-196.1 974.47,-196.1"/>
</g>
<!-- n13 -->
<g id="node22" class="node">
<title>n13</title>
<ellipse fill="none" stroke="black" cx="1760.97" cy="-148.43" rx="185.94" ry="37.45"/>
<text text-anchor="middle" x="1760.97" y="-159.73" font-family="Times,serif" font-size="14.00">céntimos</text>
<text text-anchor="middle" x="1760.97" y="-144.73" font-family="Times,serif" font-size="14.00">ncmp000 (pobj)</text>
<text text-anchor="middle" x="1760.97" y="-129.73" font-family="Times,serif" font-size="14.00">rep=no, t=no, r=no, m=yes, c=no</text>
</g>
<!-- n11&#45;&gt;n13 -->
<g id="edge21" class="edge">
<title>n11&#45;&gt;n13</title>
<path fill="none" stroke="black" d="M1760.97,-221.8C1760.97,-213.63 1760.97,-204.85 1760.97,-196.32"/>
<polygon fill="black" stroke="black" points="1764.47,-196.1 1760.97,-186.1 1757.47,-196.1 1764.47,-196.1"/>
</g>
<!-- n19 -->
<g id="node24" class="node">
<title>n19</title>
<ellipse fill="none" stroke="black" cx="3325.97" cy="-148.43" rx="185.94" ry="37.45"/>
<text text-anchor="middle" x="3325.97" y="-159.73" font-family="Times,serif" font-size="14.00">igual</text>
<text text-anchor="middle" x="3325.97" y="-144.73" font-family="Times,serif" font-size="14.00">rg (advmod)</text>
<text text-anchor="middle" x="3325.97" y="-129.73" font-family="Times,serif" font-size="14.00">rep=no, t=no, r=no, m=yes, c=no</text>
</g>
<!-- n18&#45;&gt;n19 -->
<g id="edge23" class="edge">
<title>n18&#45;&gt;n19</title>
<path fill="none" stroke="black" d="M3325.97,-221.8C3325.97,-213.63 3325.97,-204.85 3325.97,-196.32"/>
<polygon fill="black" stroke="black" points="3329.47,-196.1 3325.97,-186.1 3322.47,-196.1 3329.47,-196.1"/>
</g>
<!-- n8 -->
<g id="node21" class="node">
<title>n8</title>
<ellipse fill="none" stroke="black" cx="970.97" cy="-37.48" rx="185.94" ry="37.45"/>
<text text-anchor="middle" x="970.97" y="-48.78" font-family="Times,serif" font-size="14.00">cinco</text>
<text text-anchor="middle" x="970.97" y="-33.78" font-family="Times,serif" font-size="14.00">ncms000 (num)</text>
<text text-anchor="middle" x="970.97" y="-18.78" font-family="Times,serif" font-size="14.00">rep=no, t=no, r=no, m=yes, c=no</text>
</g>
<!-- n9&#45;&gt;n8 -->
<g id="edge20" class="edge">
<title>n9&#45;&gt;n8</title>
<path fill="none" stroke="black" d="M970.97,-110.85C970.97,-102.67 970.97,-93.89 970.97,-85.37"/>
<polygon fill="black" stroke="black" points="974.47,-85.15 970.97,-75.15 967.47,-85.15 974.47,-85.15"/>
</g>
<!-- n12 -->
<g id="node23" class="node">
<title>n12</title>
<ellipse fill="none" stroke="black" cx="1760.97" cy="-37.48" rx="185.94" ry="37.45"/>
<text text-anchor="middle" x="1760.97" y="-48.78" font-family="Times,serif" font-size="14.00">cinco</text>
<text text-anchor="middle" x="1760.97" y="-33.78" font-family="Times,serif" font-size="14.00">dn0cp0 (det)</text>
<text text-anchor="middle" x="1760.97" y="-18.78" font-family="Times,serif" font-size="14.00">rep=no, t=no, r=no, m=yes, c=no</text>
</g>
<!-- n13&#45;&gt;n12 -->
<g id="edge22" class="edge">
<title>n13&#45;&gt;n12</title>
<path fill="none" stroke="black" d="M1760.97,-110.85C1760.97,-102.67 1760.97,-93.89 1760.97,-85.37"/>
<polygon fill="black" stroke="black" points="1764.47,-85.15 1760.97,-75.15 1757.47,-85.15 1764.47,-85.15"/>
</g>
</g>
</svg>
