<?xml version="1.0" encoding="UTF-8" standalone="no"?>
<!DOCTYPE svg PUBLIC "-//W3C//DTD SVG 1.1//EN"
 "http://www.w3.org/Graphics/SVG/1.1/DTD/svg11.dtd">
<!-- Generated by graphviz version 2.43.0 (0)
 -->
<!-- Title: tree Pages: 1 -->
<svg width="2220pt" height="860pt"
 viewBox="0.00 0.00 2219.74 859.63" xmlns="http://www.w3.org/2000/svg" xmlns:xlink="http://www.w3.org/1999/xlink">
<g id="graph0" class="graph" transform="scale(1 1) rotate(0) translate(4 855.63)">
<title>tree</title>
<polygon fill="white" stroke="transparent" points="-4,4 -4,-855.63 2215.74,-855.63 2215.74,4 -4,4"/>
<!-- n6 -->
<g id="node1" class="node">
<title>n6</title>
<ellipse fill="#DA79E8" stroke="black" cx="1005.87" cy="-814.15" rx="190.84" ry="37.45"/>
<text text-anchor="middle" x="1005.87" y="-825.45" font-family="Times,serif" font-size="14.00">han</text>
<text text-anchor="middle" x="1005.87" y="-810.45" font-family="Times,serif" font-size="14.00">vaip3p0 (root)</text>
<text text-anchor="middle" x="1005.87" y="-795.45" font-family="Times,serif" font-size="14.00">rep=no, t=no, r=yes, m=yes, c=no</text>
</g>
<!-- n2 -->
<g id="node2" class="node">
<title>n2</title>
<ellipse fill="#BEDA48" stroke="black" cx="195.87" cy="-703.2" rx="195.74" ry="37.45"/>
<text text-anchor="middle" x="195.87" y="-714.5" font-family="Times,serif" font-size="14.00">personas</text>
<text text-anchor="middle" x="195.87" y="-699.5" font-family="Times,serif" font-size="14.00">ncfp000 (nsubj)</text>
<text text-anchor="middle" x="195.87" y="-684.5" font-family="Times,serif" font-size="14.00">rep=no, t=yes, r=no, m=yes, c=yes</text>
</g>
<!-- n6&#45;&gt;n2 -->
<g id="edge1" class="edge">
<title>n6&#45;&gt;n2</title>
<path fill="none" stroke="black" d="M839.26,-795.77C717.55,-782.45 548.66,-762.66 400.87,-740.67 382.37,-737.92 362.98,-734.79 343.81,-731.55"/>
<polygon fill="black" stroke="black" points="344.25,-728.08 333.81,-729.85 343.08,-734.98 344.25,-728.08"/>
</g>
<!-- n3 -->
<g id="node3" class="node">
<title>n3</title>
<ellipse fill="#BEDA48" stroke="black" cx="600.87" cy="-703.2" rx="190.84" ry="37.45"/>
<text text-anchor="middle" x="600.87" y="-714.5" font-family="Times,serif" font-size="14.00">y</text>
<text text-anchor="middle" x="600.87" y="-699.5" font-family="Times,serif" font-size="14.00">cc (coord_fixed)</text>
<text text-anchor="middle" x="600.87" y="-684.5" font-family="Times,serif" font-size="14.00">rep=no, t=yes, r=no, m=yes, c=no</text>
</g>
<!-- n6&#45;&gt;n3 -->
<g id="edge2" class="edge">
<title>n6&#45;&gt;n3</title>
<path fill="none" stroke="black" d="M895.74,-783.52C841.6,-768.96 776.25,-751.38 720.85,-736.47"/>
<polygon fill="black" stroke="black" points="721.55,-733.04 710.98,-733.82 719.73,-739.8 721.55,-733.04"/>
</g>
<!-- n5 -->
<g id="node4" class="node">
<title>n5</title>
<ellipse fill="#BEDA48" stroke="black" cx="1005.87" cy="-703.2" rx="195.74" ry="37.45"/>
<text text-anchor="middle" x="1005.87" y="-714.5" font-family="Times,serif" font-size="14.00">naciones</text>
<text text-anchor="middle" x="1005.87" y="-699.5" font-family="Times,serif" font-size="14.00">ncfp000 (nsubj)</text>
<text text-anchor="middle" x="1005.87" y="-684.5" font-family="Times,serif" font-size="14.00">rep=no, t=yes, r=no, m=yes, c=yes</text>
</g>
<!-- n6&#45;&gt;n5 -->
<g id="edge3" class="edge">
<title>n6&#45;&gt;n5</title>
<path fill="none" stroke="black" d="M1005.87,-776.57C1005.87,-768.39 1005.87,-759.61 1005.87,-751.09"/>
<polygon fill="black" stroke="black" points="1009.37,-750.87 1005.87,-740.87 1002.37,-750.87 1009.37,-750.87"/>
</g>
<!-- n7 -->
<g id="node5" class="node">
<title>n7</title>
<ellipse fill="#DA79E8" stroke="black" cx="1410.87" cy="-703.2" rx="190.84" ry="37.45"/>
<text text-anchor="middle" x="1410.87" y="-714.5" font-family="Times,serif" font-size="14.00">hecho</text>
<text text-anchor="middle" x="1410.87" y="-699.5" font-family="Times,serif" font-size="14.00">vmp00sm (vobj)</text>
<text text-anchor="middle" x="1410.87" y="-684.5" font-family="Times,serif" font-size="14.00">rep=no, t=no, r=yes, m=yes, c=no</text>
</g>
<!-- n6&#45;&gt;n7 -->
<g id="edge4" class="edge">
<title>n6&#45;&gt;n7</title>
<path fill="none" stroke="black" d="M1116,-783.52C1170.14,-768.96 1235.49,-751.38 1290.89,-736.47"/>
<polygon fill="black" stroke="black" points="1292.01,-739.8 1300.76,-733.82 1290.19,-733.04 1292.01,-739.8"/>
</g>
<!-- n18 -->
<g id="node6" class="node">
<title>n18</title>
<ellipse fill="none" stroke="black" cx="1801.87" cy="-703.2" rx="181.95" ry="37.45"/>
<text text-anchor="middle" x="1801.87" y="-714.5" font-family="Times,serif" font-size="14.00">.</text>
<text text-anchor="middle" x="1801.87" y="-699.5" font-family="Times,serif" font-size="14.00">fp (punct)</text>
<text text-anchor="middle" x="1801.87" y="-684.5" font-family="Times,serif" font-size="14.00">rep=no, t=no, r=no, m=no, c=no</text>
</g>
<!-- n6&#45;&gt;n18 -->
<g id="edge5" class="edge">
<title>n6&#45;&gt;n18</title>
<path fill="none" stroke="black" d="M1173.86,-796.19C1295.51,-783.14 1463.74,-763.51 1610.87,-740.67 1628.11,-738 1646.17,-734.92 1664.02,-731.7"/>
<polygon fill="black" stroke="black" points="1664.7,-735.14 1673.91,-729.9 1663.45,-728.25 1664.7,-735.14"/>
</g>
<!-- n1 -->
<g id="node7" class="node">
<title>n1</title>
<ellipse fill="#BEDA48" stroke="black" cx="195.87" cy="-592.24" rx="190.84" ry="37.45"/>
<text text-anchor="middle" x="195.87" y="-603.54" font-family="Times,serif" font-size="14.00">Muchas</text>
<text text-anchor="middle" x="195.87" y="-588.54" font-family="Times,serif" font-size="14.00">di0fp0 (det)</text>
<text text-anchor="middle" x="195.87" y="-573.54" font-family="Times,serif" font-size="14.00">rep=no, t=yes, r=no, m=yes, c=no</text>
</g>
<!-- n2&#45;&gt;n1 -->
<g id="edge6" class="edge">
<title>n2&#45;&gt;n1</title>
<path fill="none" stroke="black" d="M195.87,-665.61C195.87,-657.44 195.87,-648.66 195.87,-640.13"/>
<polygon fill="black" stroke="black" points="199.37,-639.92 195.87,-629.92 192.37,-639.92 199.37,-639.92"/>
</g>
<!-- n4 -->
<g id="node8" class="node">
<title>n4</title>
<ellipse fill="#BEDA48" stroke="black" cx="1005.87" cy="-592.24" rx="190.84" ry="37.45"/>
<text text-anchor="middle" x="1005.87" y="-603.54" font-family="Times,serif" font-size="14.00">muchas</text>
<text text-anchor="middle" x="1005.87" y="-588.54" font-family="Times,serif" font-size="14.00">di0fp0 (det)</text>
<text text-anchor="middle" x="1005.87" y="-573.54" font-family="Times,serif" font-size="14.00">rep=no, t=yes, r=no, m=yes, c=no</text>
</g>
<!-- n5&#45;&gt;n4 -->
<g id="edge7" class="edge">
<title>n5&#45;&gt;n4</title>
<path fill="none" stroke="black" d="M1005.87,-665.61C1005.87,-657.44 1005.87,-648.66 1005.87,-640.13"/>
<polygon fill="black" stroke="black" points="1009.37,-639.92 1005.87,-629.92 1002.37,-639.92 1009.37,-639.92"/>
</g>
<!-- n8 -->
<g id="node9" class="node">
<title>n8</title>
<ellipse fill="#DA79E8" stroke="black" cx="1410.87" cy="-592.24" rx="190.84" ry="37.45"/>
<text text-anchor="middle" x="1410.87" y="-603.54" font-family="Times,serif" font-size="14.00">guerras</text>
<text text-anchor="middle" x="1410.87" y="-588.54" font-family="Times,serif" font-size="14.00">ncfp000 (dobj)</text>
<text text-anchor="middle" x="1410.87" y="-573.54" font-family="Times,serif" font-size="14.00">rep=no, t=no, r=yes, m=yes, c=no</text>
</g>
<!-- n7&#45;&gt;n8 -->
<g id="edge8" class="edge">
<title>n7&#45;&gt;n8</title>
<path fill="none" stroke="black" d="M1410.87,-665.61C1410.87,-657.44 1410.87,-648.66 1410.87,-640.13"/>
<polygon fill="black" stroke="black" points="1414.37,-639.92 1410.87,-629.92 1407.37,-639.92 1414.37,-639.92"/>
</g>
<!-- n9 -->
<g id="node10" class="node">
<title>n9</title>
<ellipse fill="#DA79E8" stroke="black" cx="1410.87" cy="-481.29" rx="190.84" ry="37.45"/>
<text text-anchor="middle" x="1410.87" y="-492.59" font-family="Times,serif" font-size="14.00">por</text>
<text text-anchor="middle" x="1410.87" y="-477.59" font-family="Times,serif" font-size="14.00">sps00 (prepn)</text>
<text text-anchor="middle" x="1410.87" y="-462.59" font-family="Times,serif" font-size="14.00">rep=no, t=no, r=yes, m=yes, c=no</text>
</g>
<!-- n8&#45;&gt;n9 -->
<g id="edge9" class="edge">
<title>n8&#45;&gt;n9</title>
<path fill="none" stroke="black" d="M1410.87,-554.66C1410.87,-546.49 1410.87,-537.71 1410.87,-529.18"/>
<polygon fill="black" stroke="black" points="1414.37,-528.96 1410.87,-518.96 1407.37,-528.96 1414.37,-528.96"/>
</g>
<!-- n11 -->
<g id="node11" class="node">
<title>n11</title>
<ellipse fill="#DA79E8" stroke="black" cx="1410.87" cy="-370.34" rx="190.84" ry="37.45"/>
<text text-anchor="middle" x="1410.87" y="-381.64" font-family="Times,serif" font-size="14.00">control</text>
<text text-anchor="middle" x="1410.87" y="-366.64" font-family="Times,serif" font-size="14.00">ncms000 (pobj)</text>
<text text-anchor="middle" x="1410.87" y="-351.64" font-family="Times,serif" font-size="14.00">rep=no, t=no, r=yes, m=yes, c=no</text>
</g>
<!-- n9&#45;&gt;n11 -->
<g id="edge10" class="edge">
<title>n9&#45;&gt;n11</title>
<path fill="none" stroke="black" d="M1410.87,-443.71C1410.87,-435.53 1410.87,-426.75 1410.87,-418.23"/>
<polygon fill="black" stroke="black" points="1414.37,-418.01 1410.87,-408.01 1407.37,-418.01 1414.37,-418.01"/>
</g>
<!-- n10 -->
<g id="node12" class="node">
<title>n10</title>
<ellipse fill="#DA79E8" stroke="black" cx="1210.87" cy="-259.38" rx="190.84" ry="37.45"/>
<text text-anchor="middle" x="1210.87" y="-270.68" font-family="Times,serif" font-size="14.00">el</text>
<text text-anchor="middle" x="1210.87" y="-255.68" font-family="Times,serif" font-size="14.00">da0ms0 (det)</text>
<text text-anchor="middle" x="1210.87" y="-240.68" font-family="Times,serif" font-size="14.00">rep=no, t=no, r=yes, m=yes, c=no</text>
</g>
<!-- n11&#45;&gt;n10 -->
<g id="edge11" class="edge">
<title>n11&#45;&gt;n10</title>
<path fill="none" stroke="black" d="M1347.59,-334.86C1327.06,-323.68 1304.13,-311.19 1283.01,-299.68"/>
<polygon fill="black" stroke="black" points="1284.54,-296.53 1274.08,-294.82 1281.19,-302.68 1284.54,-296.53"/>
</g>
<!-- n12 -->
<g id="node13" class="node">
<title>n12</title>
<ellipse fill="#DA79E8" stroke="black" cx="1610.87" cy="-259.38" rx="190.84" ry="37.45"/>
<text text-anchor="middle" x="1610.87" y="-270.68" font-family="Times,serif" font-size="14.00">de</text>
<text text-anchor="middle" x="1610.87" y="-255.68" font-family="Times,serif" font-size="14.00">sps00 (prepn)</text>
<text text-anchor="middle" x="1610.87" y="-240.68" font-family="Times,serif" font-size="14.00">rep=no, t=no, r=yes, m=yes, c=no</text>
</g>
<!-- n11&#45;&gt;n12 -->
<g id="edge12" class="edge">
<title>n11&#45;&gt;n12</title>
<path fill="none" stroke="black" d="M1474.15,-334.86C1494.68,-323.68 1517.6,-311.19 1538.73,-299.68"/>
<polygon fill="black" stroke="black" points="1540.55,-302.68 1547.66,-294.82 1537.2,-296.53 1540.55,-302.68"/>
</g>
<!-- n14 -->
<g id="node14" class="node">
<title>n14</title>
<ellipse fill="#DA79E8" stroke="black" cx="1205.87" cy="-148.43" rx="195.74" ry="37.45"/>
<text text-anchor="middle" x="1205.87" y="-159.73" font-family="Times,serif" font-size="14.00">ríos</text>
<text text-anchor="middle" x="1205.87" y="-144.73" font-family="Times,serif" font-size="14.00">ncmp000 (pobj)</text>
<text text-anchor="middle" x="1205.87" y="-129.73" font-family="Times,serif" font-size="14.00">rep=no, t=no, r=yes, m=yes, c=yes</text>
</g>
<!-- n12&#45;&gt;n14 -->
<g id="edge13" class="edge">
<title>n12&#45;&gt;n14</title>
<path fill="none" stroke="black" d="M1500.74,-228.76C1446.93,-214.28 1382.05,-196.83 1326.87,-181.98"/>
<polygon fill="black" stroke="black" points="1327.6,-178.55 1317.04,-179.34 1325.78,-185.31 1327.6,-178.55"/>
</g>
<!-- n15 -->
<g id="node15" class="node">
<title>n15</title>
<ellipse fill="#DA79E8" stroke="black" cx="1610.87" cy="-148.43" rx="190.84" ry="37.45"/>
<text text-anchor="middle" x="1610.87" y="-159.73" font-family="Times,serif" font-size="14.00">y</text>
<text text-anchor="middle" x="1610.87" y="-144.73" font-family="Times,serif" font-size="14.00">cc (coord_fixed)</text>
<text text-anchor="middle" x="1610.87" y="-129.73" font-family="Times,serif" font-size="14.00">rep=no, t=no, r=yes, m=yes, c=no</text>
</g>
<!-- n12&#45;&gt;n15 -->
<g id="edge14" class="edge">
<title>n12&#45;&gt;n15</title>
<path fill="none" stroke="black" d="M1610.87,-221.8C1610.87,-213.63 1610.87,-204.85 1610.87,-196.32"/>
<polygon fill="black" stroke="black" points="1614.37,-196.1 1610.87,-186.1 1607.37,-196.1 1614.37,-196.1"/>
</g>
<!-- n17 -->
<g id="node16" class="node">
<title>n17</title>
<ellipse fill="#DA79E8" stroke="black" cx="2015.87" cy="-148.43" rx="195.74" ry="37.45"/>
<text text-anchor="middle" x="2015.87" y="-159.73" font-family="Times,serif" font-size="14.00">acuíferos</text>
<text text-anchor="middle" x="2015.87" y="-144.73" font-family="Times,serif" font-size="14.00">ncmp000 (pobj)</text>
<text text-anchor="middle" x="2015.87" y="-129.73" font-family="Times,serif" font-size="14.00">rep=no, t=no, r=yes, m=yes, c=yes</text>
</g>
<!-- n12&#45;&gt;n17 -->
<g id="edge15" class="edge">
<title>n12&#45;&gt;n17</title>
<path fill="none" stroke="black" d="M1721,-228.76C1774.81,-214.28 1839.69,-196.83 1894.87,-181.98"/>
<polygon fill="black" stroke="black" points="1895.95,-185.31 1904.7,-179.34 1894.14,-178.55 1895.95,-185.31"/>
</g>
<!-- n13 -->
<g id="node17" class="node">
<title>n13</title>
<ellipse fill="#DA79E8" stroke="black" cx="1205.87" cy="-37.48" rx="190.84" ry="37.45"/>
<text text-anchor="middle" x="1205.87" y="-48.78" font-family="Times,serif" font-size="14.00">los</text>
<text text-anchor="middle" x="1205.87" y="-33.78" font-family="Times,serif" font-size="14.00">da0mp0 (det)</text>
<text text-anchor="middle" x="1205.87" y="-18.78" font-family="Times,serif" font-size="14.00">rep=no, t=no, r=yes, m=yes, c=no</text>
</g>
<!-- n14&#45;&gt;n13 -->
<g id="edge16" class="edge">
<title>n14&#45;&gt;n13</title>
<path fill="none" stroke="black" d="M1205.87,-110.85C1205.87,-102.67 1205.87,-93.89 1205.87,-85.37"/>
<polygon fill="black" stroke="black" points="1209.37,-85.15 1205.87,-75.15 1202.37,-85.15 1209.37,-85.15"/>
</g>
<!-- n16 -->
<g id="node18" class="node">
<title>n16</title>
<ellipse fill="#DA79E8" stroke="black" cx="2015.87" cy="-37.48" rx="190.84" ry="37.45"/>
<text text-anchor="middle" x="2015.87" y="-48.78" font-family="Times,serif" font-size="14.00">los</text>
<text text-anchor="middle" x="2015.87" y="-33.78" font-family="Times,serif" font-size="14.00">da0mp0 (det)</text>
<text text-anchor="middle" x="2015.87" y="-18.78" font-family="Times,serif" font-size="14.00">rep=no, t=no, r=yes, m=yes, c=no</text>
</g>
<!-- n17&#45;&gt;n16 -->
<g id="edge17" class="edge">
<title>n17&#45;&gt;n16</title>
<path fill="none" stroke="black" d="M2015.87,-110.85C2015.87,-102.67 2015.87,-93.89 2015.87,-85.37"/>
<polygon fill="black" stroke="black" points="2019.37,-85.15 2015.87,-75.15 2012.37,-85.15 2019.37,-85.15"/>
</g>
</g>
</svg>
