<?xml version="1.0" encoding="UTF-8" standalone="no"?>
<!DOCTYPE svg PUBLIC "-//W3C//DTD SVG 1.1//EN"
 "http://www.w3.org/Graphics/SVG/1.1/DTD/svg11.dtd">
<!-- Generated by graphviz version 2.43.0 (0)
 -->
<!-- Title: tree Pages: 1 -->
<svg width="2970pt" height="749pt"
 viewBox="0.00 0.00 2969.89 748.67" xmlns="http://www.w3.org/2000/svg" xmlns:xlink="http://www.w3.org/1999/xlink">
<g id="graph0" class="graph" transform="scale(1 1) rotate(0) translate(4 744.67)">
<title>tree</title>
<polygon fill="white" stroke="transparent" points="-4,4 -4,-744.67 2965.89,-744.67 2965.89,4 -4,4"/>
<!-- n7 -->
<g id="node1" class="node">
<title>n7</title>
<ellipse fill="#98D2A5" stroke="black" cx="1390.92" cy="-703.2" rx="190.84" ry="37.45"/>
<text text-anchor="middle" x="1390.92" y="-714.5" font-family="Times,serif" font-size="14.00">olvidó</text>
<text text-anchor="middle" x="1390.92" y="-699.5" font-family="Times,serif" font-size="14.00">vmis3s0 (root)</text>
<text text-anchor="middle" x="1390.92" y="-684.5" font-family="Times,serif" font-size="14.00">rep=no, t=no, r=yes, m=yes, c=no</text>
</g>
<!-- n3 -->
<g id="node2" class="node">
<title>n3</title>
<ellipse fill="#98D2A5" stroke="black" cx="590.92" cy="-592.24" rx="190.84" ry="37.45"/>
<text text-anchor="middle" x="590.92" y="-603.54" font-family="Times,serif" font-size="14.00">secretario</text>
<text text-anchor="middle" x="590.92" y="-588.54" font-family="Times,serif" font-size="14.00">ncms000 (nsubj)</text>
<text text-anchor="middle" x="590.92" y="-573.54" font-family="Times,serif" font-size="14.00">rep=no, t=yes, r=no, m=yes, c=no</text>
</g>
<!-- n7&#45;&gt;n3 -->
<g id="edge1" class="edge">
<title>n7&#45;&gt;n3</title>
<path fill="none" stroke="black" d="M1224.38,-684.8C1103.76,-671.54 936.93,-651.83 790.92,-629.72 772.87,-626.99 753.96,-623.87 735.26,-620.64"/>
<polygon fill="black" stroke="black" points="735.66,-617.15 725.21,-618.88 734.46,-624.05 735.66,-617.15"/>
</g>
<!-- n5 -->
<g id="node3" class="node">
<title>n5</title>
<ellipse fill="#98D2A5" stroke="black" cx="990.92" cy="-592.24" rx="190.84" ry="37.45"/>
<text text-anchor="middle" x="990.92" y="-603.54" font-family="Times,serif" font-size="14.00">no</text>
<text text-anchor="middle" x="990.92" y="-588.54" font-family="Times,serif" font-size="14.00">rn (neg)</text>
<text text-anchor="middle" x="990.92" y="-573.54" font-family="Times,serif" font-size="14.00">rep=no, t=no, r=yes, m=yes, c=no</text>
</g>
<!-- n7&#45;&gt;n5 -->
<g id="edge2" class="edge">
<title>n7&#45;&gt;n5</title>
<path fill="none" stroke="black" d="M1281.62,-672.42C1228.48,-657.95 1164.51,-640.53 1110.12,-625.71"/>
<polygon fill="black" stroke="black" points="1111,-622.32 1100.44,-623.07 1109.16,-629.08 1111,-622.32"/>
</g>
<!-- n6 -->
<g id="node4" class="node">
<title>n6</title>
<ellipse fill="#98D2A5" stroke="black" cx="1390.92" cy="-592.24" rx="190.84" ry="37.45"/>
<text text-anchor="middle" x="1390.92" y="-603.54" font-family="Times,serif" font-size="14.00">se</text>
<text text-anchor="middle" x="1390.92" y="-588.54" font-family="Times,serif" font-size="14.00">p0300000 (reflec)</text>
<text text-anchor="middle" x="1390.92" y="-573.54" font-family="Times,serif" font-size="14.00">rep=no, t=no, r=yes, m=yes, c=no</text>
</g>
<!-- n7&#45;&gt;n6 -->
<g id="edge3" class="edge">
<title>n7&#45;&gt;n6</title>
<path fill="none" stroke="black" d="M1390.92,-665.61C1390.92,-657.44 1390.92,-648.66 1390.92,-640.13"/>
<polygon fill="black" stroke="black" points="1394.42,-639.92 1390.92,-629.92 1387.42,-639.92 1394.42,-639.92"/>
</g>
<!-- n8 -->
<g id="node5" class="node">
<title>n8</title>
<ellipse fill="#98D2A5" stroke="black" cx="1790.92" cy="-592.24" rx="190.84" ry="37.45"/>
<text text-anchor="middle" x="1790.92" y="-603.54" font-family="Times,serif" font-size="14.00">de</text>
<text text-anchor="middle" x="1790.92" y="-588.54" font-family="Times,serif" font-size="14.00">sps00 (oobj)</text>
<text text-anchor="middle" x="1790.92" y="-573.54" font-family="Times,serif" font-size="14.00">rep=no, t=no, r=yes, m=yes, c=no</text>
</g>
<!-- n7&#45;&gt;n8 -->
<g id="edge4" class="edge">
<title>n7&#45;&gt;n8</title>
<path fill="none" stroke="black" d="M1500.22,-672.42C1553.36,-657.95 1617.33,-640.53 1671.71,-625.71"/>
<polygon fill="black" stroke="black" points="1672.67,-629.08 1681.4,-623.07 1670.83,-622.32 1672.67,-629.08"/>
</g>
<!-- n20 -->
<g id="node6" class="node">
<title>n20</title>
<ellipse fill="none" stroke="black" cx="2181.92" cy="-592.24" rx="181.95" ry="37.45"/>
<text text-anchor="middle" x="2181.92" y="-603.54" font-family="Times,serif" font-size="14.00">.</text>
<text text-anchor="middle" x="2181.92" y="-588.54" font-family="Times,serif" font-size="14.00">fp (punct)</text>
<text text-anchor="middle" x="2181.92" y="-573.54" font-family="Times,serif" font-size="14.00">rep=no, t=no, r=no, m=no, c=no</text>
</g>
<!-- n7&#45;&gt;n20 -->
<g id="edge5" class="edge">
<title>n7&#45;&gt;n20</title>
<path fill="none" stroke="black" d="M1558.16,-685.1C1678.75,-672.02 1845.26,-652.4 1990.92,-629.72 2008.16,-627.04 2026.22,-623.95 2044.07,-620.73"/>
<polygon fill="black" stroke="black" points="2044.75,-624.17 2053.96,-618.93 2043.5,-617.28 2044.75,-624.17"/>
</g>
<!-- n1 -->
<g id="node7" class="node">
<title>n1</title>
<ellipse fill="#98D2A5" stroke="black" cx="190.92" cy="-481.29" rx="190.84" ry="37.45"/>
<text text-anchor="middle" x="190.92" y="-492.59" font-family="Times,serif" font-size="14.00">El</text>
<text text-anchor="middle" x="190.92" y="-477.59" font-family="Times,serif" font-size="14.00">da0ms0 (det)</text>
<text text-anchor="middle" x="190.92" y="-462.59" font-family="Times,serif" font-size="14.00">rep=no, t=yes, r=no, m=yes, c=no</text>
</g>
<!-- n3&#45;&gt;n1 -->
<g id="edge6" class="edge">
<title>n3&#45;&gt;n1</title>
<path fill="none" stroke="black" d="M481.62,-561.47C428.48,-547 364.51,-529.57 310.12,-514.76"/>
<polygon fill="black" stroke="black" points="311,-511.37 300.44,-512.12 309.16,-518.13 311,-511.37"/>
</g>
<!-- n2 -->
<g id="node8" class="node">
<title>n2</title>
<ellipse fill="#98D2A5" stroke="black" cx="590.92" cy="-481.29" rx="190.84" ry="37.45"/>
<text text-anchor="middle" x="590.92" y="-492.59" font-family="Times,serif" font-size="14.00">nuevo</text>
<text text-anchor="middle" x="590.92" y="-477.59" font-family="Times,serif" font-size="14.00">aq0ms0 (amod)</text>
<text text-anchor="middle" x="590.92" y="-462.59" font-family="Times,serif" font-size="14.00">rep=no, t=yes, r=no, m=yes, c=no</text>
</g>
<!-- n3&#45;&gt;n2 -->
<g id="edge7" class="edge">
<title>n3&#45;&gt;n2</title>
<path fill="none" stroke="black" d="M590.92,-554.66C590.92,-546.49 590.92,-537.71 590.92,-529.18"/>
<polygon fill="black" stroke="black" points="594.42,-528.96 590.92,-518.96 587.42,-528.96 594.42,-528.96"/>
</g>
<!-- n4 -->
<g id="node9" class="node">
<title>n4</title>
<ellipse fill="#98D2A5" stroke="black" cx="990.92" cy="-481.29" rx="190.84" ry="37.45"/>
<text text-anchor="middle" x="990.92" y="-492.59" font-family="Times,serif" font-size="14.00">general</text>
<text text-anchor="middle" x="990.92" y="-477.59" font-family="Times,serif" font-size="14.00">aq0cs0 (amod)</text>
<text text-anchor="middle" x="990.92" y="-462.59" font-family="Times,serif" font-size="14.00">rep=no, t=yes, r=no, m=yes, c=no</text>
</g>
<!-- n3&#45;&gt;n4 -->
<g id="edge8" class="edge">
<title>n3&#45;&gt;n4</title>
<path fill="none" stroke="black" d="M700.22,-561.47C753.36,-547 817.33,-529.57 871.71,-514.76"/>
<polygon fill="black" stroke="black" points="872.67,-518.13 881.4,-512.12 870.83,-511.37 872.67,-518.13"/>
</g>
<!-- n10 -->
<g id="node10" class="node">
<title>n10</title>
<ellipse fill="#98D2A5" stroke="black" cx="1790.92" cy="-481.29" rx="190.84" ry="37.45"/>
<text text-anchor="middle" x="1790.92" y="-492.59" font-family="Times,serif" font-size="14.00">ataques</text>
<text text-anchor="middle" x="1790.92" y="-477.59" font-family="Times,serif" font-size="14.00">ncmp000 (pobj)</text>
<text text-anchor="middle" x="1790.92" y="-462.59" font-family="Times,serif" font-size="14.00">rep=no, t=no, r=yes, m=yes, c=no</text>
</g>
<!-- n8&#45;&gt;n10 -->
<g id="edge9" class="edge">
<title>n8&#45;&gt;n10</title>
<path fill="none" stroke="black" d="M1790.92,-554.66C1790.92,-546.49 1790.92,-537.71 1790.92,-529.18"/>
<polygon fill="black" stroke="black" points="1794.42,-528.96 1790.92,-518.96 1787.42,-528.96 1794.42,-528.96"/>
</g>
<!-- n9 -->
<g id="node11" class="node">
<title>n9</title>
<ellipse fill="#98D2A5" stroke="black" cx="1190.92" cy="-370.34" rx="190.84" ry="37.45"/>
<text text-anchor="middle" x="1190.92" y="-381.64" font-family="Times,serif" font-size="14.00">los</text>
<text text-anchor="middle" x="1190.92" y="-366.64" font-family="Times,serif" font-size="14.00">da0mp0 (det)</text>
<text text-anchor="middle" x="1190.92" y="-351.64" font-family="Times,serif" font-size="14.00">rep=no, t=no, r=yes, m=yes, c=no</text>
</g>
<!-- n10&#45;&gt;n9 -->
<g id="edge10" class="edge">
<title>n10&#45;&gt;n9</title>
<path fill="none" stroke="black" d="M1653,-455.34C1575.9,-441.38 1478.06,-423.65 1390.92,-407.81 1373.85,-404.71 1355.97,-401.45 1338.21,-398.22"/>
<polygon fill="black" stroke="black" points="1338.82,-394.77 1328.36,-396.42 1337.57,-401.66 1338.82,-394.77"/>
</g>
<!-- n11 -->
<g id="node12" class="node">
<title>n11</title>
<ellipse fill="#98D2A5" stroke="black" cx="1590.92" cy="-370.34" rx="190.84" ry="37.45"/>
<text text-anchor="middle" x="1590.92" y="-381.64" font-family="Times,serif" font-size="14.00">al</text>
<text text-anchor="middle" x="1590.92" y="-366.64" font-family="Times,serif" font-size="14.00">spcms (prepn)</text>
<text text-anchor="middle" x="1590.92" y="-351.64" font-family="Times,serif" font-size="14.00">rep=no, t=no, r=yes, m=yes, c=no</text>
</g>
<!-- n10&#45;&gt;n11 -->
<g id="edge11" class="edge">
<title>n10&#45;&gt;n11</title>
<path fill="none" stroke="black" d="M1727.64,-445.82C1707.11,-434.63 1684.18,-422.14 1663.06,-410.64"/>
<polygon fill="black" stroke="black" points="1664.59,-407.48 1654.13,-405.77 1661.24,-413.63 1664.59,-407.48"/>
</g>
<!-- n13 -->
<g id="node13" class="node">
<title>n13</title>
<ellipse fill="#98D2A5" stroke="black" cx="1990.92" cy="-370.34" rx="190.84" ry="37.45"/>
<text text-anchor="middle" x="1990.92" y="-381.64" font-family="Times,serif" font-size="14.00">,</text>
<text text-anchor="middle" x="1990.92" y="-366.64" font-family="Times,serif" font-size="14.00">fc (punct)</text>
<text text-anchor="middle" x="1990.92" y="-351.64" font-family="Times,serif" font-size="14.00">rep=no, t=no, r=yes, m=yes, c=no</text>
</g>
<!-- n10&#45;&gt;n13 -->
<g id="edge12" class="edge">
<title>n10&#45;&gt;n13</title>
<path fill="none" stroke="black" d="M1854.2,-445.82C1874.73,-434.63 1897.65,-422.14 1918.78,-410.64"/>
<polygon fill="black" stroke="black" points="1920.6,-413.63 1927.71,-405.77 1917.25,-407.48 1920.6,-413.63"/>
</g>
<!-- n15 -->
<g id="node14" class="node">
<title>n15</title>
<ellipse fill="#98D2A5" stroke="black" cx="2385.92" cy="-370.34" rx="185.94" ry="37.45"/>
<text text-anchor="middle" x="2385.92" y="-381.64" font-family="Times,serif" font-size="14.00">arrancaron</text>
<text text-anchor="middle" x="2385.92" y="-366.64" font-family="Times,serif" font-size="14.00">vmis3p0 (rcmod)</text>
<text text-anchor="middle" x="2385.92" y="-351.64" font-family="Times,serif" font-size="14.00">rep=no, t=no, r=no, m=yes, c=no</text>
</g>
<!-- n10&#45;&gt;n15 -->
<g id="edge13" class="edge">
<title>n10&#45;&gt;n15</title>
<path fill="none" stroke="black" d="M1929.33,-455.41C2006.37,-441.51 2103.98,-423.82 2190.92,-407.81 2207.48,-404.76 2224.83,-401.55 2242.07,-398.34"/>
<polygon fill="black" stroke="black" points="2243,-401.73 2252.19,-396.45 2241.72,-394.84 2243,-401.73"/>
</g>
<!-- n12 -->
<g id="node15" class="node">
<title>n12</title>
<ellipse fill="#98D2A5" stroke="black" cx="1590.92" cy="-259.38" rx="190.84" ry="37.45"/>
<text text-anchor="middle" x="1590.92" y="-270.68" font-family="Times,serif" font-size="14.00">PSOE</text>
<text text-anchor="middle" x="1590.92" y="-255.68" font-family="Times,serif" font-size="14.00">np00000 (pobj)</text>
<text text-anchor="middle" x="1590.92" y="-240.68" font-family="Times,serif" font-size="14.00">rep=no, t=no, r=yes, m=yes, c=no</text>
</g>
<!-- n11&#45;&gt;n12 -->
<g id="edge14" class="edge">
<title>n11&#45;&gt;n12</title>
<path fill="none" stroke="black" d="M1590.92,-332.75C1590.92,-324.58 1590.92,-315.8 1590.92,-307.27"/>
<polygon fill="black" stroke="black" points="1594.42,-307.06 1590.92,-297.06 1587.42,-307.06 1594.42,-307.06"/>
</g>
<!-- n14 -->
<g id="node16" class="node">
<title>n14</title>
<ellipse fill="#98D2A5" stroke="black" cx="2190.92" cy="-259.38" rx="185.94" ry="37.45"/>
<text text-anchor="middle" x="2190.92" y="-270.68" font-family="Times,serif" font-size="14.00">que</text>
<text text-anchor="middle" x="2190.92" y="-255.68" font-family="Times,serif" font-size="14.00">pr0cn000 (nsubj)</text>
<text text-anchor="middle" x="2190.92" y="-240.68" font-family="Times,serif" font-size="14.00">rep=no, t=no, r=no, m=yes, c=no</text>
</g>
<!-- n15&#45;&gt;n14 -->
<g id="edge15" class="edge">
<title>n15&#45;&gt;n14</title>
<path fill="none" stroke="black" d="M2324.22,-334.86C2304.29,-323.73 2282.05,-311.3 2261.53,-299.84"/>
<polygon fill="black" stroke="black" points="2262.99,-296.64 2252.55,-294.82 2259.57,-302.75 2262.99,-296.64"/>
</g>
<!-- n17 -->
<g id="node17" class="node">
<title>n17</title>
<ellipse fill="#98D2A5" stroke="black" cx="2580.92" cy="-259.38" rx="185.94" ry="37.45"/>
<text text-anchor="middle" x="2580.92" y="-270.68" font-family="Times,serif" font-size="14.00">aplausos</text>
<text text-anchor="middle" x="2580.92" y="-255.68" font-family="Times,serif" font-size="14.00">ncmp000 (dobj)</text>
<text text-anchor="middle" x="2580.92" y="-240.68" font-family="Times,serif" font-size="14.00">rep=no, t=no, r=no, m=yes, c=no</text>
</g>
<!-- n15&#45;&gt;n17 -->
<g id="edge16" class="edge">
<title>n15&#45;&gt;n17</title>
<path fill="none" stroke="black" d="M2447.62,-334.86C2467.54,-323.73 2489.79,-311.3 2510.3,-299.84"/>
<polygon fill="black" stroke="black" points="2512.26,-302.75 2519.29,-294.82 2508.85,-296.64 2512.26,-302.75"/>
</g>
<!-- n16 -->
<g id="node18" class="node">
<title>n16</title>
<ellipse fill="#98D2A5" stroke="black" cx="2385.92" cy="-148.43" rx="185.94" ry="37.45"/>
<text text-anchor="middle" x="2385.92" y="-159.73" font-family="Times,serif" font-size="14.00">los</text>
<text text-anchor="middle" x="2385.92" y="-144.73" font-family="Times,serif" font-size="14.00">da0mp0 (det)</text>
<text text-anchor="middle" x="2385.92" y="-129.73" font-family="Times,serif" font-size="14.00">rep=no, t=no, r=no, m=yes, c=no</text>
</g>
<!-- n17&#45;&gt;n16 -->
<g id="edge17" class="edge">
<title>n17&#45;&gt;n16</title>
<path fill="none" stroke="black" d="M2519.22,-223.91C2499.29,-212.78 2477.05,-200.35 2456.53,-188.89"/>
<polygon fill="black" stroke="black" points="2457.99,-185.69 2447.55,-183.87 2454.57,-191.8 2457.99,-185.69"/>
</g>
<!-- n18 -->
<g id="node19" class="node">
<title>n18</title>
<ellipse fill="#98D2A5" stroke="black" cx="2775.92" cy="-148.43" rx="185.94" ry="37.45"/>
<text text-anchor="middle" x="2775.92" y="-159.73" font-family="Times,serif" font-size="14.00">del</text>
<text text-anchor="middle" x="2775.92" y="-144.73" font-family="Times,serif" font-size="14.00">spcms (prepn)</text>
<text text-anchor="middle" x="2775.92" y="-129.73" font-family="Times,serif" font-size="14.00">rep=no, t=no, r=no, m=yes, c=no</text>
</g>
<!-- n17&#45;&gt;n18 -->
<g id="edge18" class="edge">
<title>n17&#45;&gt;n18</title>
<path fill="none" stroke="black" d="M2642.62,-223.91C2662.54,-212.78 2684.79,-200.35 2705.3,-188.89"/>
<polygon fill="black" stroke="black" points="2707.26,-191.8 2714.29,-183.87 2703.85,-185.69 2707.26,-191.8"/>
</g>
<!-- n19 -->
<g id="node20" class="node">
<title>n19</title>
<ellipse fill="#98D2A5" stroke="black" cx="2775.92" cy="-37.48" rx="185.94" ry="37.45"/>
<text text-anchor="middle" x="2775.92" y="-48.78" font-family="Times,serif" font-size="14.00">auditorio</text>
<text text-anchor="middle" x="2775.92" y="-33.78" font-family="Times,serif" font-size="14.00">ncms000 (pobj)</text>
<text text-anchor="middle" x="2775.92" y="-18.78" font-family="Times,serif" font-size="14.00">rep=no, t=no, r=no, m=yes, c=no</text>
</g>
<!-- n18&#45;&gt;n19 -->
<g id="edge19" class="edge">
<title>n18&#45;&gt;n19</title>
<path fill="none" stroke="black" d="M2775.92,-110.85C2775.92,-102.67 2775.92,-93.89 2775.92,-85.37"/>
<polygon fill="black" stroke="black" points="2779.42,-85.15 2775.92,-75.15 2772.42,-85.15 2779.42,-85.15"/>
</g>
</g>
</svg>
