<?xml version="1.0" encoding="UTF-8" standalone="no"?>
<!DOCTYPE svg PUBLIC "-//W3C//DTD SVG 1.1//EN"
 "http://www.w3.org/Graphics/SVG/1.1/DTD/svg11.dtd">
<!-- Generated by graphviz version 2.43.0 (0)
 -->
<!-- Title: tree Pages: 1 -->
<svg width="3080pt" height="527pt"
 viewBox="0.00 0.00 3080.45 526.77" xmlns="http://www.w3.org/2000/svg" xmlns:xlink="http://www.w3.org/1999/xlink">
<g id="graph0" class="graph" transform="scale(1 1) rotate(0) translate(4 522.77)">
<title>tree</title>
<polygon fill="white" stroke="transparent" points="-4,4 -4,-522.77 3076.45,-522.77 3076.45,4 -4,4"/>
<!-- n4 -->
<g id="node1" class="node">
<title>n4</title>
<ellipse fill="#98D2A5" stroke="black" cx="1536.73" cy="-481.29" rx="185.94" ry="37.45"/>
<text text-anchor="middle" x="1536.73" y="-492.59" font-family="Times,serif" font-size="14.00">iré</text>
<text text-anchor="middle" x="1536.73" y="-477.59" font-family="Times,serif" font-size="14.00">vmif1s0 (root)</text>
<text text-anchor="middle" x="1536.73" y="-462.59" font-family="Times,serif" font-size="14.00">rep=no, t=no, r=no, m=yes, c=no</text>
</g>
<!-- n1 -->
<g id="node2" class="node">
<title>n1</title>
<ellipse fill="none" stroke="black" cx="181.73" cy="-370.34" rx="181.95" ry="37.45"/>
<text text-anchor="middle" x="181.73" y="-381.64" font-family="Times,serif" font-size="14.00">&quot;</text>
<text text-anchor="middle" x="181.73" y="-366.64" font-family="Times,serif" font-size="14.00">fe (punct)</text>
<text text-anchor="middle" x="181.73" y="-351.64" font-family="Times,serif" font-size="14.00">rep=no, t=no, r=no, m=no, c=no</text>
</g>
<!-- n4&#45;&gt;n1 -->
<g id="edge1" class="edge">
<title>n4&#45;&gt;n1</title>
<path fill="none" stroke="black" d="M1352.59,-476.01C1122.56,-469.02 717.24,-451.26 372.73,-407.81 354.56,-405.52 335.51,-402.56 316.77,-399.32"/>
<polygon fill="black" stroke="black" points="317.16,-395.84 306.71,-397.55 315.95,-402.73 317.16,-395.84"/>
</g>
<!-- n2 -->
<g id="node3" class="node">
<title>n2</title>
<ellipse fill="#98D2A5" stroke="black" cx="567.73" cy="-370.34" rx="185.94" ry="37.45"/>
<text text-anchor="middle" x="567.73" y="-381.64" font-family="Times,serif" font-size="14.00">Nunca</text>
<text text-anchor="middle" x="567.73" y="-366.64" font-family="Times,serif" font-size="14.00">rg (neg)</text>
<text text-anchor="middle" x="567.73" y="-351.64" font-family="Times,serif" font-size="14.00">rep=no, t=no, r=no, m=yes, c=no</text>
</g>
<!-- n4&#45;&gt;n2 -->
<g id="edge2" class="edge">
<title>n4&#45;&gt;n2</title>
<path fill="none" stroke="black" d="M1361.75,-468.5C1204.52,-456.81 967.56,-436.5 762.73,-407.81 744.73,-405.29 725.87,-402.26 707.26,-399.04"/>
<polygon fill="black" stroke="black" points="707.71,-395.56 697.26,-397.28 706.5,-402.46 707.71,-395.56"/>
</g>
<!-- n3 -->
<g id="node4" class="node">
<title>n3</title>
<ellipse fill="#98D2A5" stroke="black" cx="957.73" cy="-370.34" rx="185.94" ry="37.45"/>
<text text-anchor="middle" x="957.73" y="-381.64" font-family="Times,serif" font-size="14.00">me</text>
<text text-anchor="middle" x="957.73" y="-366.64" font-family="Times,serif" font-size="14.00">p010s000 (dobj)</text>
<text text-anchor="middle" x="957.73" y="-351.64" font-family="Times,serif" font-size="14.00">rep=no, t=no, r=no, m=yes, c=no</text>
</g>
<!-- n4&#45;&gt;n3 -->
<g id="edge3" class="edge">
<title>n4&#45;&gt;n3</title>
<path fill="none" stroke="black" d="M1403.17,-455.16C1312.86,-438.16 1193.7,-415.74 1101.35,-398.36"/>
<polygon fill="black" stroke="black" points="1101.84,-394.89 1091.37,-396.48 1100.55,-401.77 1101.84,-394.89"/>
</g>
<!-- n5 -->
<g id="node5" class="node">
<title>n5</title>
<ellipse fill="none" stroke="black" cx="1343.73" cy="-370.34" rx="181.95" ry="37.45"/>
<text text-anchor="middle" x="1343.73" y="-381.64" font-family="Times,serif" font-size="14.00">de</text>
<text text-anchor="middle" x="1343.73" y="-366.64" font-family="Times,serif" font-size="14.00">sps00 (prepv)</text>
<text text-anchor="middle" x="1343.73" y="-351.64" font-family="Times,serif" font-size="14.00">rep=no, t=no, r=no, m=no, c=no</text>
</g>
<!-- n4&#45;&gt;n5 -->
<g id="edge4" class="edge">
<title>n4&#45;&gt;n5</title>
<path fill="none" stroke="black" d="M1475.66,-445.82C1455.94,-434.68 1433.93,-422.26 1413.62,-410.79"/>
<polygon fill="black" stroke="black" points="1415.16,-407.64 1404.73,-405.77 1411.71,-413.74 1415.16,-407.64"/>
</g>
<!-- n9 -->
<g id="node6" class="node">
<title>n9</title>
<ellipse fill="#98D2A5" stroke="black" cx="1729.73" cy="-370.34" rx="185.94" ry="37.45"/>
<text text-anchor="middle" x="1729.73" y="-381.64" font-family="Times,serif" font-size="14.00">dijo</text>
<text text-anchor="middle" x="1729.73" y="-366.64" font-family="Times,serif" font-size="14.00">vmis3s0 (dobj)</text>
<text text-anchor="middle" x="1729.73" y="-351.64" font-family="Times,serif" font-size="14.00">rep=no, t=no, r=no, m=yes, c=no</text>
</g>
<!-- n4&#45;&gt;n9 -->
<g id="edge5" class="edge">
<title>n4&#45;&gt;n9</title>
<path fill="none" stroke="black" d="M1597.79,-445.82C1617.51,-434.68 1639.53,-422.26 1659.84,-410.79"/>
<polygon fill="black" stroke="black" points="1661.74,-413.74 1668.73,-405.77 1658.3,-407.64 1661.74,-413.74"/>
</g>
<!-- n12 -->
<g id="node7" class="node">
<title>n12</title>
<ellipse fill="none" stroke="black" cx="2115.73" cy="-370.34" rx="181.95" ry="37.45"/>
<text text-anchor="middle" x="2115.73" y="-381.64" font-family="Times,serif" font-size="14.00">porque</text>
<text text-anchor="middle" x="2115.73" y="-366.64" font-family="Times,serif" font-size="14.00">cs (advcl)</text>
<text text-anchor="middle" x="2115.73" y="-351.64" font-family="Times,serif" font-size="14.00">rep=no, t=no, r=no, m=no, c=no</text>
</g>
<!-- n4&#45;&gt;n12 -->
<g id="edge6" class="edge">
<title>n4&#45;&gt;n12</title>
<path fill="none" stroke="black" d="M1670.98,-455.35C1745.7,-441.43 1840.39,-423.74 1924.73,-407.81 1941.02,-404.74 1958.09,-401.5 1975.04,-398.27"/>
<polygon fill="black" stroke="black" points="1975.83,-401.68 1985,-396.38 1974.52,-394.81 1975.83,-401.68"/>
</g>
<!-- n18 -->
<g id="node8" class="node">
<title>n18</title>
<ellipse fill="none" stroke="black" cx="2496.73" cy="-370.34" rx="181.95" ry="37.45"/>
<text text-anchor="middle" x="2496.73" y="-381.64" font-family="Times,serif" font-size="14.00">&quot;</text>
<text text-anchor="middle" x="2496.73" y="-366.64" font-family="Times,serif" font-size="14.00">fe (punct)</text>
<text text-anchor="middle" x="2496.73" y="-351.64" font-family="Times,serif" font-size="14.00">rep=no, t=no, r=no, m=no, c=no</text>
</g>
<!-- n4&#45;&gt;n18 -->
<g id="edge7" class="edge">
<title>n4&#45;&gt;n18</title>
<path fill="none" stroke="black" d="M1711.98,-468.6C1868.42,-457.02 2103.52,-436.81 2306.73,-407.81 2324.19,-405.32 2342.49,-402.32 2360.54,-399.11"/>
<polygon fill="black" stroke="black" points="2361.31,-402.53 2370.54,-397.32 2360.07,-395.64 2361.31,-402.53"/>
</g>
<!-- n19 -->
<g id="node9" class="node">
<title>n19</title>
<ellipse fill="none" stroke="black" cx="2877.73" cy="-370.34" rx="181.95" ry="37.45"/>
<text text-anchor="middle" x="2877.73" y="-381.64" font-family="Times,serif" font-size="14.00">.</text>
<text text-anchor="middle" x="2877.73" y="-366.64" font-family="Times,serif" font-size="14.00">fp (punct)</text>
<text text-anchor="middle" x="2877.73" y="-351.64" font-family="Times,serif" font-size="14.00">rep=no, t=no, r=no, m=no, c=no</text>
</g>
<!-- n4&#45;&gt;n19 -->
<g id="edge8" class="edge">
<title>n4&#45;&gt;n19</title>
<path fill="none" stroke="black" d="M1720.8,-475.89C1948.62,-468.79 2348.07,-450.93 2687.73,-407.81 2705.66,-405.54 2724.45,-402.6 2742.95,-399.39"/>
<polygon fill="black" stroke="black" points="2743.65,-402.82 2752.89,-397.64 2742.43,-395.93 2743.65,-402.82"/>
</g>
<!-- n6 -->
<g id="node10" class="node">
<title>n6</title>
<ellipse fill="none" stroke="black" cx="758.73" cy="-259.38" rx="181.95" ry="37.45"/>
<text text-anchor="middle" x="758.73" y="-270.68" font-family="Times,serif" font-size="14.00">Andalucía</text>
<text text-anchor="middle" x="758.73" y="-255.68" font-family="Times,serif" font-size="14.00">np00000 (pobj)</text>
<text text-anchor="middle" x="758.73" y="-240.68" font-family="Times,serif" font-size="14.00">rep=no, t=no, r=no, m=no, c=no</text>
</g>
<!-- n5&#45;&gt;n6 -->
<g id="edge9" class="edge">
<title>n5&#45;&gt;n6</title>
<path fill="none" stroke="black" d="M1213.29,-344.19C1193.02,-340.35 1172.31,-336.47 1152.73,-332.86 1062.61,-316.27 1039.84,-313.45 949.73,-296.86 933.35,-293.84 916.2,-290.64 899.17,-287.42"/>
<polygon fill="black" stroke="black" points="899.64,-283.95 889.17,-285.53 898.34,-290.83 899.64,-283.95"/>
</g>
<!-- n7 -->
<g id="node11" class="node">
<title>n7</title>
<ellipse fill="#98D2A5" stroke="black" cx="1144.73" cy="-259.38" rx="185.94" ry="37.45"/>
<text text-anchor="middle" x="1144.73" y="-270.68" font-family="Times,serif" font-size="14.00">&#45;</text>
<text text-anchor="middle" x="1144.73" y="-255.68" font-family="Times,serif" font-size="14.00">fg (punct)</text>
<text text-anchor="middle" x="1144.73" y="-240.68" font-family="Times,serif" font-size="14.00">rep=no, t=no, r=no, m=yes, c=no</text>
</g>
<!-- n9&#45;&gt;n7 -->
<g id="edge10" class="edge">
<title>n9&#45;&gt;n7</title>
<path fill="none" stroke="black" d="M1595.99,-344.28C1575.47,-340.44 1554.54,-336.54 1534.73,-332.86 1448.08,-316.76 1426.37,-312.96 1339.73,-296.86 1323.17,-293.78 1305.82,-290.55 1288.59,-287.33"/>
<polygon fill="black" stroke="black" points="1288.93,-283.84 1278.46,-285.44 1287.65,-290.72 1288.93,-283.84"/>
</g>
<!-- n8 -->
<g id="node12" class="node">
<title>n8</title>
<ellipse fill="#98D2A5" stroke="black" cx="1534.73" cy="-259.38" rx="185.94" ry="37.45"/>
<text text-anchor="middle" x="1534.73" y="-270.68" font-family="Times,serif" font-size="14.00">&#45;</text>
<text text-anchor="middle" x="1534.73" y="-255.68" font-family="Times,serif" font-size="14.00">fg (punct)</text>
<text text-anchor="middle" x="1534.73" y="-240.68" font-family="Times,serif" font-size="14.00">rep=no, t=no, r=no, m=yes, c=no</text>
</g>
<!-- n9&#45;&gt;n8 -->
<g id="edge11" class="edge">
<title>n9&#45;&gt;n8</title>
<path fill="none" stroke="black" d="M1668.03,-334.86C1648.1,-323.73 1625.86,-311.3 1605.34,-299.84"/>
<polygon fill="black" stroke="black" points="1606.8,-296.64 1596.36,-294.82 1603.38,-302.75 1606.8,-296.64"/>
</g>
<!-- n10 -->
<g id="node13" class="node">
<title>n10</title>
<ellipse fill="#98D2A5" stroke="black" cx="1924.73" cy="-259.38" rx="185.94" ry="37.45"/>
<text text-anchor="middle" x="1924.73" y="-270.68" font-family="Times,serif" font-size="14.00">&#45;</text>
<text text-anchor="middle" x="1924.73" y="-255.68" font-family="Times,serif" font-size="14.00">fg (punct)</text>
<text text-anchor="middle" x="1924.73" y="-240.68" font-family="Times,serif" font-size="14.00">rep=no, t=no, r=no, m=yes, c=no</text>
</g>
<!-- n9&#45;&gt;n10 -->
<g id="edge12" class="edge">
<title>n9&#45;&gt;n10</title>
<path fill="none" stroke="black" d="M1791.43,-334.86C1811.35,-323.73 1833.59,-311.3 1854.11,-299.84"/>
<polygon fill="black" stroke="black" points="1856.07,-302.75 1863.09,-294.82 1852.66,-296.64 1856.07,-302.75"/>
</g>
<!-- n11 -->
<g id="node14" class="node">
<title>n11</title>
<ellipse fill="#98D2A5" stroke="black" cx="2314.73" cy="-259.38" rx="185.94" ry="37.45"/>
<text text-anchor="middle" x="2314.73" y="-270.68" font-family="Times,serif" font-size="14.00">&#45;</text>
<text text-anchor="middle" x="2314.73" y="-255.68" font-family="Times,serif" font-size="14.00">fg (punct)</text>
<text text-anchor="middle" x="2314.73" y="-240.68" font-family="Times,serif" font-size="14.00">rep=no, t=no, r=no, m=yes, c=no</text>
</g>
<!-- n9&#45;&gt;n11 -->
<g id="edge13" class="edge">
<title>n9&#45;&gt;n11</title>
<path fill="none" stroke="black" d="M1863.46,-344.28C1883.98,-340.44 1904.92,-336.54 1924.73,-332.86 2011.37,-316.76 2033.08,-312.96 2119.73,-296.86 2136.29,-293.78 2153.63,-290.55 2170.87,-287.33"/>
<polygon fill="black" stroke="black" points="2171.8,-290.72 2180.99,-285.44 2170.52,-283.84 2171.8,-290.72"/>
</g>
<!-- n13 -->
<g id="node15" class="node">
<title>n13</title>
<ellipse fill="none" stroke="black" cx="2700.73" cy="-259.38" rx="181.95" ry="37.45"/>
<text text-anchor="middle" x="2700.73" y="-270.68" font-family="Times,serif" font-size="14.00">es</text>
<text text-anchor="middle" x="2700.73" y="-255.68" font-family="Times,serif" font-size="14.00">vsip3s0 (cobj)</text>
<text text-anchor="middle" x="2700.73" y="-240.68" font-family="Times,serif" font-size="14.00">rep=no, t=no, r=no, m=no, c=no</text>
</g>
<!-- n12&#45;&gt;n13 -->
<g id="edge14" class="edge">
<title>n12&#45;&gt;n13</title>
<path fill="none" stroke="black" d="M2245.74,-344.11C2265.81,-340.29 2286.32,-336.43 2305.73,-332.86 2396.27,-316.18 2419.17,-313.5 2509.73,-296.86 2526.1,-293.85 2543.26,-290.65 2560.28,-287.44"/>
<polygon fill="black" stroke="black" points="2561.11,-290.84 2570.29,-285.55 2559.81,-283.96 2561.11,-290.84"/>
</g>
<!-- n14 -->
<g id="node16" class="node">
<title>n14</title>
<ellipse fill="none" stroke="black" cx="2509.73" cy="-148.43" rx="181.95" ry="37.45"/>
<text text-anchor="middle" x="2509.73" y="-159.73" font-family="Times,serif" font-size="14.00">para</text>
<text text-anchor="middle" x="2509.73" y="-144.73" font-family="Times,serif" font-size="14.00">sps00 (prepv)</text>
<text text-anchor="middle" x="2509.73" y="-129.73" font-family="Times,serif" font-size="14.00">rep=no, t=no, r=no, m=no, c=no</text>
</g>
<!-- n13&#45;&gt;n14 -->
<g id="edge15" class="edge">
<title>n13&#45;&gt;n14</title>
<path fill="none" stroke="black" d="M2640.29,-223.91C2620.78,-212.78 2598.99,-200.35 2578.89,-188.89"/>
<polygon fill="black" stroke="black" points="2580.51,-185.78 2570.09,-183.87 2577.05,-191.86 2580.51,-185.78"/>
</g>
<!-- n17 -->
<g id="node17" class="node">
<title>n17</title>
<ellipse fill="none" stroke="black" cx="2890.73" cy="-148.43" rx="181.95" ry="37.45"/>
<text text-anchor="middle" x="2890.73" y="-159.73" font-family="Times,serif" font-size="14.00">proyecto</text>
<text text-anchor="middle" x="2890.73" y="-144.73" font-family="Times,serif" font-size="14.00">ncms000 (attr)</text>
<text text-anchor="middle" x="2890.73" y="-129.73" font-family="Times,serif" font-size="14.00">rep=no, t=no, r=no, m=no, c=no</text>
</g>
<!-- n13&#45;&gt;n17 -->
<g id="edge16" class="edge">
<title>n13&#45;&gt;n17</title>
<path fill="none" stroke="black" d="M2760.84,-223.91C2780.26,-212.78 2801.93,-200.35 2821.92,-188.89"/>
<polygon fill="black" stroke="black" points="2823.74,-191.88 2830.67,-183.87 2820.26,-185.8 2823.74,-191.88"/>
</g>
<!-- n15 -->
<g id="node18" class="node">
<title>n15</title>
<ellipse fill="none" stroke="black" cx="2509.73" cy="-37.48" rx="181.95" ry="37.45"/>
<text text-anchor="middle" x="2509.73" y="-48.78" font-family="Times,serif" font-size="14.00">mí</text>
<text text-anchor="middle" x="2509.73" y="-33.78" font-family="Times,serif" font-size="14.00">pp1cso00 (pobj)</text>
<text text-anchor="middle" x="2509.73" y="-18.78" font-family="Times,serif" font-size="14.00">rep=no, t=no, r=no, m=no, c=no</text>
</g>
<!-- n14&#45;&gt;n15 -->
<g id="edge17" class="edge">
<title>n14&#45;&gt;n15</title>
<path fill="none" stroke="black" d="M2509.73,-110.85C2509.73,-102.67 2509.73,-93.89 2509.73,-85.37"/>
<polygon fill="black" stroke="black" points="2513.23,-85.15 2509.73,-75.15 2506.23,-85.15 2513.23,-85.15"/>
</g>
<!-- n16 -->
<g id="node19" class="node">
<title>n16</title>
<ellipse fill="none" stroke="black" cx="2890.73" cy="-37.48" rx="181.95" ry="37.45"/>
<text text-anchor="middle" x="2890.73" y="-48.78" font-family="Times,serif" font-size="14.00">un</text>
<text text-anchor="middle" x="2890.73" y="-33.78" font-family="Times,serif" font-size="14.00">di0ms0 (det)</text>
<text text-anchor="middle" x="2890.73" y="-18.78" font-family="Times,serif" font-size="14.00">rep=no, t=no, r=no, m=no, c=no</text>
</g>
<!-- n17&#45;&gt;n16 -->
<g id="edge18" class="edge">
<title>n17&#45;&gt;n16</title>
<path fill="none" stroke="black" d="M2890.73,-110.85C2890.73,-102.67 2890.73,-93.89 2890.73,-85.37"/>
<polygon fill="black" stroke="black" points="2894.23,-85.15 2890.73,-75.15 2887.23,-85.15 2894.23,-85.15"/>
</g>
</g>
</svg>
