<?xml version="1.0" encoding="UTF-8" standalone="no"?>
<!DOCTYPE svg PUBLIC "-//W3C//DTD SVG 1.1//EN"
 "http://www.w3.org/Graphics/SVG/1.1/DTD/svg11.dtd">
<!-- Generated by graphviz version 2.43.0 (0)
 -->
<!-- Title: tree Pages: 1 -->
<svg width="3107pt" height="638pt"
 viewBox="0.00 0.00 3106.89 637.72" xmlns="http://www.w3.org/2000/svg" xmlns:xlink="http://www.w3.org/1999/xlink">
<g id="graph0" class="graph" transform="scale(1 1) rotate(0) translate(4 633.72)">
<title>tree</title>
<polygon fill="white" stroke="transparent" points="-4,4 -4,-633.72 3102.89,-633.72 3102.89,4 -4,4"/>
<!-- n9 -->
<g id="node1" class="node">
<title>n9</title>
<ellipse fill="#98D2A5" stroke="black" cx="1145.97" cy="-592.24" rx="185.94" ry="37.45"/>
<text text-anchor="middle" x="1145.97" y="-603.54" font-family="Times,serif" font-size="14.00">pudo</text>
<text text-anchor="middle" x="1145.97" y="-588.54" font-family="Times,serif" font-size="14.00">vmis3s0 (root)</text>
<text text-anchor="middle" x="1145.97" y="-573.54" font-family="Times,serif" font-size="14.00">rep=no, t=no, r=no, m=yes, c=no</text>
</g>
<!-- n1 -->
<g id="node2" class="node">
<title>n1</title>
<ellipse fill="#98D2A5" stroke="black" cx="185.97" cy="-481.29" rx="185.94" ry="37.45"/>
<text text-anchor="middle" x="185.97" y="-492.59" font-family="Times,serif" font-size="14.00">Pero</text>
<text text-anchor="middle" x="185.97" y="-477.59" font-family="Times,serif" font-size="14.00">cc (coord_fixed)</text>
<text text-anchor="middle" x="185.97" y="-462.59" font-family="Times,serif" font-size="14.00">rep=no, t=no, r=no, m=yes, c=no</text>
</g>
<!-- n9&#45;&gt;n1 -->
<g id="edge1" class="edge">
<title>n9&#45;&gt;n1</title>
<path fill="none" stroke="black" d="M971.5,-579.23C816.11,-567.46 582.76,-547.14 380.97,-518.77 362.97,-516.24 344.11,-513.2 325.5,-509.97"/>
<polygon fill="black" stroke="black" points="325.96,-506.5 315.5,-508.22 324.75,-513.39 325.96,-506.5"/>
</g>
<!-- n3 -->
<g id="node3" class="node">
<title>n3</title>
<ellipse fill="none" stroke="black" cx="571.97" cy="-481.29" rx="181.95" ry="37.45"/>
<text text-anchor="middle" x="571.97" y="-492.59" font-family="Times,serif" font-size="14.00">,</text>
<text text-anchor="middle" x="571.97" y="-477.59" font-family="Times,serif" font-size="14.00">fc (punct)</text>
<text text-anchor="middle" x="571.97" y="-462.59" font-family="Times,serif" font-size="14.00">rep=no, t=no, r=no, m=no, c=no</text>
</g>
<!-- n9&#45;&gt;n3 -->
<g id="edge2" class="edge">
<title>n9&#45;&gt;n3</title>
<path fill="none" stroke="black" d="M1012.22,-566.11C938.41,-552.21 845.11,-534.59 761.97,-518.77 745.9,-515.71 729.07,-512.49 712.35,-509.29"/>
<polygon fill="black" stroke="black" points="713.01,-505.85 702.53,-507.41 711.69,-512.73 713.01,-505.85"/>
</g>
<!-- n7 -->
<g id="node4" class="node">
<title>n7</title>
<ellipse fill="none" stroke="black" cx="952.97" cy="-481.29" rx="181.95" ry="37.45"/>
<text text-anchor="middle" x="952.97" y="-492.59" font-family="Times,serif" font-size="14.00">,</text>
<text text-anchor="middle" x="952.97" y="-477.59" font-family="Times,serif" font-size="14.00">fc (punct)</text>
<text text-anchor="middle" x="952.97" y="-462.59" font-family="Times,serif" font-size="14.00">rep=no, t=no, r=no, m=no, c=no</text>
</g>
<!-- n9&#45;&gt;n7 -->
<g id="edge3" class="edge">
<title>n9&#45;&gt;n7</title>
<path fill="none" stroke="black" d="M1084.9,-556.77C1065.18,-545.64 1043.17,-533.21 1022.86,-521.75"/>
<polygon fill="black" stroke="black" points="1024.4,-518.59 1013.97,-516.73 1020.96,-524.69 1024.4,-518.59"/>
</g>
<!-- n8 -->
<g id="node5" class="node">
<title>n8</title>
<ellipse fill="#98D2A5" stroke="black" cx="1338.97" cy="-481.29" rx="185.94" ry="37.45"/>
<text text-anchor="middle" x="1338.97" y="-492.59" font-family="Times,serif" font-size="14.00">no</text>
<text text-anchor="middle" x="1338.97" y="-477.59" font-family="Times,serif" font-size="14.00">rn (neg)</text>
<text text-anchor="middle" x="1338.97" y="-462.59" font-family="Times,serif" font-size="14.00">rep=no, t=no, r=no, m=yes, c=no</text>
</g>
<!-- n9&#45;&gt;n8 -->
<g id="edge4" class="edge">
<title>n9&#45;&gt;n8</title>
<path fill="none" stroke="black" d="M1207.04,-556.77C1226.76,-545.64 1248.77,-533.21 1269.08,-521.75"/>
<polygon fill="black" stroke="black" points="1270.98,-524.69 1277.97,-516.73 1267.54,-518.59 1270.98,-524.69"/>
</g>
<!-- n10 -->
<g id="node6" class="node">
<title>n10</title>
<ellipse fill="#98D2A5" stroke="black" cx="1728.97" cy="-481.29" rx="185.94" ry="37.45"/>
<text text-anchor="middle" x="1728.97" y="-492.59" font-family="Times,serif" font-size="14.00">evitar</text>
<text text-anchor="middle" x="1728.97" y="-477.59" font-family="Times,serif" font-size="14.00">vmn0000 (dobj)</text>
<text text-anchor="middle" x="1728.97" y="-462.59" font-family="Times,serif" font-size="14.00">rep=no, t=no, r=no, m=yes, c=no</text>
</g>
<!-- n9&#45;&gt;n10 -->
<g id="edge5" class="edge">
<title>n9&#45;&gt;n10</title>
<path fill="none" stroke="black" d="M1280.2,-566.18C1354.91,-552.23 1449.6,-534.54 1533.97,-518.77 1550.45,-515.69 1567.72,-512.46 1584.88,-509.25"/>
<polygon fill="black" stroke="black" points="1585.78,-512.64 1594.96,-507.36 1584.49,-505.76 1585.78,-512.64"/>
</g>
<!-- n20 -->
<g id="node7" class="node">
<title>n20</title>
<ellipse fill="none" stroke="black" cx="2114.97" cy="-481.29" rx="181.95" ry="37.45"/>
<text text-anchor="middle" x="2114.97" y="-492.59" font-family="Times,serif" font-size="14.00">.</text>
<text text-anchor="middle" x="2114.97" y="-477.59" font-family="Times,serif" font-size="14.00">fp (punct)</text>
<text text-anchor="middle" x="2114.97" y="-462.59" font-family="Times,serif" font-size="14.00">rep=no, t=no, r=no, m=no, c=no</text>
</g>
<!-- n9&#45;&gt;n20 -->
<g id="edge6" class="edge">
<title>n9&#45;&gt;n20</title>
<path fill="none" stroke="black" d="M1321.49,-579.72C1479.55,-568.19 1717.97,-547.96 1923.97,-518.77 1941.6,-516.27 1960.06,-513.25 1978.28,-510.04"/>
<polygon fill="black" stroke="black" points="1979.14,-513.44 1988.37,-508.23 1977.91,-506.55 1979.14,-513.44"/>
</g>
<!-- n2 -->
<g id="node8" class="node">
<title>n2</title>
<ellipse fill="#98D2A5" stroke="black" cx="1338.97" cy="-370.34" rx="185.94" ry="37.45"/>
<text text-anchor="middle" x="1338.97" y="-381.64" font-family="Times,serif" font-size="14.00">ayer</text>
<text text-anchor="middle" x="1338.97" y="-366.64" font-family="Times,serif" font-size="14.00">rg (advmod)</text>
<text text-anchor="middle" x="1338.97" y="-351.64" font-family="Times,serif" font-size="14.00">rep=no, t=no, r=no, m=yes, c=no</text>
</g>
<!-- n10&#45;&gt;n2 -->
<g id="edge7" class="edge">
<title>n10&#45;&gt;n2</title>
<path fill="none" stroke="black" d="M1622.4,-450.52C1570.59,-436.05 1508.23,-418.62 1455.2,-403.81"/>
<polygon fill="black" stroke="black" points="1455.98,-400.39 1445.41,-401.07 1454.1,-407.13 1455.98,-400.39"/>
</g>
<!-- n4 -->
<g id="node9" class="node">
<title>n4</title>
<ellipse fill="#98D2A5" stroke="black" cx="1728.97" cy="-370.34" rx="185.94" ry="37.45"/>
<text text-anchor="middle" x="1728.97" y="-381.64" font-family="Times,serif" font-size="14.00">ante</text>
<text text-anchor="middle" x="1728.97" y="-366.64" font-family="Times,serif" font-size="14.00">sps00 (prepv)</text>
<text text-anchor="middle" x="1728.97" y="-351.64" font-family="Times,serif" font-size="14.00">rep=no, t=no, r=no, m=yes, c=no</text>
</g>
<!-- n10&#45;&gt;n4 -->
<g id="edge8" class="edge">
<title>n10&#45;&gt;n4</title>
<path fill="none" stroke="black" d="M1728.97,-443.71C1728.97,-435.53 1728.97,-426.75 1728.97,-418.23"/>
<polygon fill="black" stroke="black" points="1732.47,-418.01 1728.97,-408.01 1725.47,-418.01 1732.47,-418.01"/>
</g>
<!-- n12 -->
<g id="node10" class="node">
<title>n12</title>
<ellipse fill="#98D2A5" stroke="black" cx="2119.97" cy="-370.34" rx="185.94" ry="37.45"/>
<text text-anchor="middle" x="2119.97" y="-381.64" font-family="Times,serif" font-size="14.00">referencia</text>
<text text-anchor="middle" x="2119.97" y="-366.64" font-family="Times,serif" font-size="14.00">ncfs000 (dobj)</text>
<text text-anchor="middle" x="2119.97" y="-351.64" font-family="Times,serif" font-size="14.00">rep=no, t=no, r=no, m=yes, c=no</text>
</g>
<!-- n10&#45;&gt;n12 -->
<g id="edge9" class="edge">
<title>n10&#45;&gt;n12</title>
<path fill="none" stroke="black" d="M1835.81,-450.52C1887.75,-436.05 1950.28,-418.62 2003.44,-403.81"/>
<polygon fill="black" stroke="black" points="2004.56,-407.13 2013.26,-401.07 2002.68,-400.39 2004.56,-407.13"/>
</g>
<!-- n6 -->
<g id="node11" class="node">
<title>n6</title>
<ellipse fill="#98D2A5" stroke="black" cx="1727.97" cy="-259.38" rx="185.94" ry="37.45"/>
<text text-anchor="middle" x="1727.97" y="-270.68" font-family="Times,serif" font-size="14.00">auditorio</text>
<text text-anchor="middle" x="1727.97" y="-255.68" font-family="Times,serif" font-size="14.00">ncms000 (pobj)</text>
<text text-anchor="middle" x="1727.97" y="-240.68" font-family="Times,serif" font-size="14.00">rep=no, t=no, r=no, m=yes, c=no</text>
</g>
<!-- n4&#45;&gt;n6 -->
<g id="edge10" class="edge">
<title>n4&#45;&gt;n6</title>
<path fill="none" stroke="black" d="M1728.63,-332.75C1728.56,-324.58 1728.48,-315.8 1728.4,-307.27"/>
<polygon fill="black" stroke="black" points="1731.9,-307.02 1728.31,-297.06 1724.9,-307.09 1731.9,-307.02"/>
</g>
<!-- n11 -->
<g id="node13" class="node">
<title>n11</title>
<ellipse fill="#98D2A5" stroke="black" cx="2119.97" cy="-259.38" rx="185.94" ry="37.45"/>
<text text-anchor="middle" x="2119.97" y="-270.68" font-family="Times,serif" font-size="14.00">una</text>
<text text-anchor="middle" x="2119.97" y="-255.68" font-family="Times,serif" font-size="14.00">di0fs0 (det)</text>
<text text-anchor="middle" x="2119.97" y="-240.68" font-family="Times,serif" font-size="14.00">rep=no, t=no, r=no, m=yes, c=no</text>
</g>
<!-- n12&#45;&gt;n11 -->
<g id="edge12" class="edge">
<title>n12&#45;&gt;n11</title>
<path fill="none" stroke="black" d="M2119.97,-332.75C2119.97,-324.58 2119.97,-315.8 2119.97,-307.27"/>
<polygon fill="black" stroke="black" points="2123.47,-307.06 2119.97,-297.06 2116.47,-307.06 2123.47,-307.06"/>
</g>
<!-- n13 -->
<g id="node14" class="node">
<title>n13</title>
<ellipse fill="#98D2A5" stroke="black" cx="2511.97" cy="-259.38" rx="185.94" ry="37.45"/>
<text text-anchor="middle" x="2511.97" y="-270.68" font-family="Times,serif" font-size="14.00">a</text>
<text text-anchor="middle" x="2511.97" y="-255.68" font-family="Times,serif" font-size="14.00">sps00 (prepn)</text>
<text text-anchor="middle" x="2511.97" y="-240.68" font-family="Times,serif" font-size="14.00">rep=no, t=no, r=no, m=yes, c=no</text>
</g>
<!-- n12&#45;&gt;n13 -->
<g id="edge13" class="edge">
<title>n12&#45;&gt;n13</title>
<path fill="none" stroke="black" d="M2226.83,-339.64C2278.9,-325.16 2341.64,-307.72 2395,-292.89"/>
<polygon fill="black" stroke="black" points="2396.15,-296.21 2404.85,-290.16 2394.28,-289.46 2396.15,-296.21"/>
</g>
<!-- n5 -->
<g id="node12" class="node">
<title>n5</title>
<ellipse fill="#98D2A5" stroke="black" cx="1722.97" cy="-148.43" rx="185.94" ry="37.45"/>
<text text-anchor="middle" x="1722.97" y="-159.73" font-family="Times,serif" font-size="14.00">el</text>
<text text-anchor="middle" x="1722.97" y="-144.73" font-family="Times,serif" font-size="14.00">da0ms0 (det)</text>
<text text-anchor="middle" x="1722.97" y="-129.73" font-family="Times,serif" font-size="14.00">rep=no, t=no, r=no, m=yes, c=no</text>
</g>
<!-- n6&#45;&gt;n5 -->
<g id="edge11" class="edge">
<title>n6&#45;&gt;n5</title>
<path fill="none" stroke="black" d="M1726.29,-221.8C1725.92,-213.63 1725.51,-204.85 1725.12,-196.32"/>
<polygon fill="black" stroke="black" points="1728.61,-195.93 1724.65,-186.1 1721.61,-196.25 1728.61,-195.93"/>
</g>
<!-- n15 -->
<g id="node15" class="node">
<title>n15</title>
<ellipse fill="#98D2A5" stroke="black" cx="2117.97" cy="-148.43" rx="190.84" ry="37.45"/>
<text text-anchor="middle" x="2117.97" y="-159.73" font-family="Times,serif" font-size="14.00">tierra</text>
<text text-anchor="middle" x="2117.97" y="-144.73" font-family="Times,serif" font-size="14.00">ncfs000 (pobj)</text>
<text text-anchor="middle" x="2117.97" y="-129.73" font-family="Times,serif" font-size="14.00">rep=no, t=no, r=no, m=yes, c=yes</text>
</g>
<!-- n13&#45;&gt;n15 -->
<g id="edge14" class="edge">
<title>n13&#45;&gt;n15</title>
<path fill="none" stroke="black" d="M2404.57,-228.68C2352.44,-214.27 2289.68,-196.91 2236.2,-182.12"/>
<polygon fill="black" stroke="black" points="2236.89,-178.68 2226.32,-179.39 2235.03,-185.43 2236.89,-178.68"/>
</g>
<!-- n17 -->
<g id="node16" class="node">
<title>n17</title>
<ellipse fill="#98D2A5" stroke="black" cx="2512.97" cy="-148.43" rx="185.94" ry="37.45"/>
<text text-anchor="middle" x="2512.97" y="-159.73" font-family="Times,serif" font-size="14.00">y</text>
<text text-anchor="middle" x="2512.97" y="-144.73" font-family="Times,serif" font-size="14.00">cc (coord_fixed)</text>
<text text-anchor="middle" x="2512.97" y="-129.73" font-family="Times,serif" font-size="14.00">rep=no, t=no, r=no, m=yes, c=no</text>
</g>
<!-- n13&#45;&gt;n17 -->
<g id="edge15" class="edge">
<title>n13&#45;&gt;n17</title>
<path fill="none" stroke="black" d="M2512.3,-221.8C2512.38,-213.63 2512.46,-204.85 2512.54,-196.32"/>
<polygon fill="black" stroke="black" points="2516.04,-196.13 2512.63,-186.1 2509.04,-196.07 2516.04,-196.13"/>
</g>
<!-- n18 -->
<g id="node17" class="node">
<title>n18</title>
<ellipse fill="#98D2A5" stroke="black" cx="2907.97" cy="-148.43" rx="190.84" ry="37.45"/>
<text text-anchor="middle" x="2907.97" y="-159.73" font-family="Times,serif" font-size="14.00">cuna</text>
<text text-anchor="middle" x="2907.97" y="-144.73" font-family="Times,serif" font-size="14.00">nccs000 (pobj)</text>
<text text-anchor="middle" x="2907.97" y="-129.73" font-family="Times,serif" font-size="14.00">rep=no, t=no, r=no, m=yes, c=yes</text>
</g>
<!-- n13&#45;&gt;n18 -->
<g id="edge16" class="edge">
<title>n13&#45;&gt;n18</title>
<path fill="none" stroke="black" d="M2619.65,-228.76C2672.16,-214.31 2735.44,-196.9 2789.33,-182.07"/>
<polygon fill="black" stroke="black" points="2790.56,-185.36 2799.27,-179.34 2788.7,-178.61 2790.56,-185.36"/>
</g>
<!-- n16 -->
<g id="node18" class="node">
<title>n16</title>
<ellipse fill="#98D2A5" stroke="black" cx="2117.97" cy="-37.48" rx="185.94" ry="37.45"/>
<text text-anchor="middle" x="2117.97" y="-48.78" font-family="Times,serif" font-size="14.00">natal</text>
<text text-anchor="middle" x="2117.97" y="-33.78" font-family="Times,serif" font-size="14.00">aq0cs0 (amod)</text>
<text text-anchor="middle" x="2117.97" y="-18.78" font-family="Times,serif" font-size="14.00">rep=no, t=no, r=no, m=yes, c=no</text>
</g>
<!-- n15&#45;&gt;n16 -->
<g id="edge17" class="edge">
<title>n15&#45;&gt;n16</title>
<path fill="none" stroke="black" d="M2117.97,-110.85C2117.97,-102.67 2117.97,-93.89 2117.97,-85.37"/>
<polygon fill="black" stroke="black" points="2121.47,-85.15 2117.97,-75.15 2114.47,-85.15 2121.47,-85.15"/>
</g>
<!-- n14 -->
<g id="node19" class="node">
<title>n14</title>
<ellipse fill="#98D2A5" stroke="black" cx="2512.97" cy="-37.48" rx="185.94" ry="37.45"/>
<text text-anchor="middle" x="2512.97" y="-48.78" font-family="Times,serif" font-size="14.00">su</text>
<text text-anchor="middle" x="2512.97" y="-33.78" font-family="Times,serif" font-size="14.00">dp3cs0 (poss)</text>
<text text-anchor="middle" x="2512.97" y="-18.78" font-family="Times,serif" font-size="14.00">rep=no, t=no, r=no, m=yes, c=no</text>
</g>
<!-- n17&#45;&gt;n14 -->
<g id="edge18" class="edge">
<title>n17&#45;&gt;n14</title>
<path fill="none" stroke="black" d="M2512.97,-110.85C2512.97,-102.67 2512.97,-93.89 2512.97,-85.37"/>
<polygon fill="black" stroke="black" points="2516.47,-85.15 2512.97,-75.15 2509.47,-85.15 2516.47,-85.15"/>
</g>
<!-- n19 -->
<g id="node20" class="node">
<title>n19</title>
<ellipse fill="#98D2A5" stroke="black" cx="2907.97" cy="-37.48" rx="185.94" ry="37.45"/>
<text text-anchor="middle" x="2907.97" y="-48.78" font-family="Times,serif" font-size="14.00">política</text>
<text text-anchor="middle" x="2907.97" y="-33.78" font-family="Times,serif" font-size="14.00">aq0fs0 (amod)</text>
<text text-anchor="middle" x="2907.97" y="-18.78" font-family="Times,serif" font-size="14.00">rep=no, t=no, r=no, m=yes, c=no</text>
</g>
<!-- n18&#45;&gt;n19 -->
<g id="edge19" class="edge">
<title>n18&#45;&gt;n19</title>
<path fill="none" stroke="black" d="M2907.97,-110.85C2907.97,-102.67 2907.97,-93.89 2907.97,-85.37"/>
<polygon fill="black" stroke="black" points="2911.47,-85.15 2907.97,-75.15 2904.47,-85.15 2911.47,-85.15"/>
</g>
</g>
</svg>
