<?xml version="1.0" encoding="UTF-8" standalone="no"?>
<!DOCTYPE svg PUBLIC "-//W3C//DTD SVG 1.1//EN"
 "http://www.w3.org/Graphics/SVG/1.1/DTD/svg11.dtd">
<!-- Generated by graphviz version 2.43.0 (0)
 -->
<!-- Title: tree Pages: 1 -->
<svg width="3180pt" height="1636pt"
 viewBox="0.00 0.00 3179.84 1636.30" xmlns="http://www.w3.org/2000/svg" xmlns:xlink="http://www.w3.org/1999/xlink">
<g id="graph0" class="graph" transform="scale(1 1) rotate(0) translate(4 1632.3)">
<title>tree</title>
<polygon fill="white" stroke="transparent" points="-4,4 -4,-1632.3 3175.84,-1632.3 3175.84,4 -4,4"/>
<!-- n35 -->
<g id="node1" class="node">
<title>n35</title>
<ellipse fill="none" stroke="black" cx="2400.87" cy="-1590.82" rx="185.94" ry="37.45"/>
<text text-anchor="middle" x="2400.87" y="-1602.12" font-family="Times,serif" font-size="14.00">pero</text>
<text text-anchor="middle" x="2400.87" y="-1587.12" font-family="Times,serif" font-size="14.00">cc (root)</text>
<text text-anchor="middle" x="2400.87" y="-1572.12" font-family="Times,serif" font-size="14.00">rep=no, t=no, r=no, m=yes, c=no</text>
</g>
<!-- n4 -->
<g id="node2" class="node">
<title>n4</title>
<ellipse fill="#DA79E8" stroke="black" cx="1208.87" cy="-1479.87" rx="190.84" ry="37.45"/>
<text text-anchor="middle" x="1208.87" y="-1491.17" font-family="Times,serif" font-size="14.00">escribieron</text>
<text text-anchor="middle" x="1208.87" y="-1476.17" font-family="Times,serif" font-size="14.00">vmis3p0 (coord)</text>
<text text-anchor="middle" x="1208.87" y="-1461.17" font-family="Times,serif" font-size="14.00">rep=no, t=no, r=yes, m=yes, c=no</text>
</g>
<!-- n35&#45;&gt;n4 -->
<g id="edge1" class="edge">
<title>n35&#45;&gt;n4</title>
<path fill="none" stroke="black" d="M2233.24,-1574.5C2010.83,-1554.17 1619.66,-1518.42 1390.44,-1497.47"/>
<polygon fill="black" stroke="black" points="1390.6,-1493.97 1380.33,-1496.54 1389.97,-1500.94 1390.6,-1493.97"/>
</g>
<!-- n38 -->
<g id="node3" class="node">
<title>n38</title>
<ellipse fill="none" stroke="black" cx="2400.87" cy="-1479.87" rx="185.94" ry="37.45"/>
<text text-anchor="middle" x="2400.87" y="-1491.17" font-family="Times,serif" font-size="14.00">fue</text>
<text text-anchor="middle" x="2400.87" y="-1476.17" font-family="Times,serif" font-size="14.00">vsis3s0 (coord)</text>
<text text-anchor="middle" x="2400.87" y="-1461.17" font-family="Times,serif" font-size="14.00">rep=no, t=no, r=no, m=yes, c=no</text>
</g>
<!-- n35&#45;&gt;n38 -->
<g id="edge2" class="edge">
<title>n35&#45;&gt;n38</title>
<path fill="none" stroke="black" d="M2400.87,-1553.24C2400.87,-1545.07 2400.87,-1536.29 2400.87,-1527.76"/>
<polygon fill="black" stroke="black" points="2404.37,-1527.54 2400.87,-1517.54 2397.37,-1527.54 2404.37,-1527.54"/>
</g>
<!-- n40 -->
<g id="node4" class="node">
<title>n40</title>
<ellipse fill="none" stroke="black" cx="2786.87" cy="-1479.87" rx="181.95" ry="37.45"/>
<text text-anchor="middle" x="2786.87" y="-1491.17" font-family="Times,serif" font-size="14.00">.</text>
<text text-anchor="middle" x="2786.87" y="-1476.17" font-family="Times,serif" font-size="14.00">fp (punct)</text>
<text text-anchor="middle" x="2786.87" y="-1461.17" font-family="Times,serif" font-size="14.00">rep=no, t=no, r=no, m=no, c=no</text>
</g>
<!-- n35&#45;&gt;n40 -->
<g id="edge3" class="edge">
<title>n35&#45;&gt;n40</title>
<path fill="none" stroke="black" d="M2506.6,-1559.98C2557.87,-1545.51 2619.55,-1528.1 2671.98,-1513.3"/>
<polygon fill="black" stroke="black" points="2672.98,-1516.65 2681.65,-1510.57 2671.08,-1509.92 2672.98,-1516.65"/>
</g>
<!-- n1 -->
<g id="node5" class="node">
<title>n1</title>
<ellipse fill="#BEDA48" stroke="black" cx="195.87" cy="-1368.92" rx="195.74" ry="37.45"/>
<text text-anchor="middle" x="195.87" y="-1380.22" font-family="Times,serif" font-size="14.00">Freeh</text>
<text text-anchor="middle" x="195.87" y="-1365.22" font-family="Times,serif" font-size="14.00">np00000 (nsubj)</text>
<text text-anchor="middle" x="195.87" y="-1350.22" font-family="Times,serif" font-size="14.00">rep=no, t=yes, r=no, m=yes, c=yes</text>
</g>
<!-- n4&#45;&gt;n1 -->
<g id="edge4" class="edge">
<title>n4&#45;&gt;n1</title>
<path fill="none" stroke="black" d="M1029.06,-1467.22C864.99,-1455.54 616.03,-1435.13 400.87,-1406.39 381.79,-1403.84 361.77,-1400.78 342.04,-1397.52"/>
<polygon fill="black" stroke="black" points="342.51,-1394.05 332.07,-1395.85 341.36,-1400.95 342.51,-1394.05"/>
</g>
<!-- n2 -->
<g id="node6" class="node">
<title>n2</title>
<ellipse fill="#BEDA48" stroke="black" cx="600.87" cy="-1368.92" rx="190.84" ry="37.45"/>
<text text-anchor="middle" x="600.87" y="-1380.22" font-family="Times,serif" font-size="14.00">y</text>
<text text-anchor="middle" x="600.87" y="-1365.22" font-family="Times,serif" font-size="14.00">cc (coord_fixed)</text>
<text text-anchor="middle" x="600.87" y="-1350.22" font-family="Times,serif" font-size="14.00">rep=no, t=yes, r=no, m=yes, c=no</text>
</g>
<!-- n4&#45;&gt;n2 -->
<g id="edge5" class="edge">
<title>n4&#45;&gt;n2</title>
<path fill="none" stroke="black" d="M1069.1,-1454.21C990.31,-1440.26 890.08,-1422.45 800.87,-1406.39 783.72,-1403.31 765.75,-1400.05 747.92,-1396.82"/>
<polygon fill="black" stroke="black" points="748.49,-1393.36 738.03,-1395.02 747.24,-1400.25 748.49,-1393.36"/>
</g>
<!-- n3 -->
<g id="node7" class="node">
<title>n3</title>
<ellipse fill="#BEDA48" stroke="black" cx="1005.87" cy="-1368.92" rx="195.74" ry="37.45"/>
<text text-anchor="middle" x="1005.87" y="-1380.22" font-family="Times,serif" font-size="14.00">LaBella</text>
<text text-anchor="middle" x="1005.87" y="-1365.22" font-family="Times,serif" font-size="14.00">np00000 (nsubj)</text>
<text text-anchor="middle" x="1005.87" y="-1350.22" font-family="Times,serif" font-size="14.00">rep=no, t=yes, r=no, m=yes, c=yes</text>
</g>
<!-- n4&#45;&gt;n3 -->
<g id="edge6" class="edge">
<title>n4&#45;&gt;n3</title>
<path fill="none" stroke="black" d="M1144.92,-1444.55C1124.07,-1433.36 1100.76,-1420.85 1079.28,-1409.32"/>
<polygon fill="black" stroke="black" points="1080.66,-1406.09 1070.2,-1404.44 1077.35,-1412.26 1080.66,-1406.09"/>
</g>
<!-- n5 -->
<g id="node8" class="node">
<title>n5</title>
<ellipse fill="#DA79E8" stroke="black" cx="1410.87" cy="-1368.92" rx="190.84" ry="37.45"/>
<text text-anchor="middle" x="1410.87" y="-1380.22" font-family="Times,serif" font-size="14.00">a</text>
<text text-anchor="middle" x="1410.87" y="-1365.22" font-family="Times,serif" font-size="14.00">sps00 (iobj)</text>
<text text-anchor="middle" x="1410.87" y="-1350.22" font-family="Times,serif" font-size="14.00">rep=no, t=no, r=yes, m=yes, c=no</text>
</g>
<!-- n4&#45;&gt;n5 -->
<g id="edge7" class="edge">
<title>n4&#45;&gt;n5</title>
<path fill="none" stroke="black" d="M1272.78,-1444.4C1293.52,-1433.21 1316.67,-1420.72 1338,-1409.22"/>
<polygon fill="black" stroke="black" points="1339.88,-1412.18 1347.02,-1404.35 1336.56,-1406.02 1339.88,-1412.18"/>
</g>
<!-- n14 -->
<g id="node9" class="node">
<title>n14</title>
<ellipse fill="#DA79E8" stroke="black" cx="1810.87" cy="-1368.92" rx="190.84" ry="37.45"/>
<text text-anchor="middle" x="1810.87" y="-1380.22" font-family="Times,serif" font-size="14.00">pidiéndole</text>
<text text-anchor="middle" x="1810.87" y="-1365.22" font-family="Times,serif" font-size="14.00">vmg0000 (dobj)</text>
<text text-anchor="middle" x="1810.87" y="-1350.22" font-family="Times,serif" font-size="14.00">rep=no, t=no, r=yes, m=yes, c=no</text>
</g>
<!-- n4&#45;&gt;n14 -->
<g id="edge8" class="edge">
<title>n4&#45;&gt;n14</title>
<path fill="none" stroke="black" d="M1347.49,-1453.95C1424.97,-1440 1523.3,-1422.27 1610.87,-1406.39 1627.94,-1403.3 1645.82,-1400.05 1663.58,-1396.81"/>
<polygon fill="black" stroke="black" points="1664.22,-1400.26 1673.43,-1395.02 1662.97,-1393.37 1664.22,-1400.26"/>
</g>
<!-- n34 -->
<g id="node37" class="node">
<title>n34</title>
<ellipse fill="none" stroke="black" cx="2205.87" cy="-1368.92" rx="185.94" ry="37.45"/>
<text text-anchor="middle" x="2205.87" y="-1380.22" font-family="Times,serif" font-size="14.00">,</text>
<text text-anchor="middle" x="2205.87" y="-1365.22" font-family="Times,serif" font-size="14.00">fc (punct)</text>
<text text-anchor="middle" x="2205.87" y="-1350.22" font-family="Times,serif" font-size="14.00">rep=no, t=no, r=no, m=yes, c=no</text>
</g>
<!-- n38&#45;&gt;n34 -->
<g id="edge36" class="edge">
<title>n38&#45;&gt;n34</title>
<path fill="none" stroke="black" d="M2339.17,-1444.4C2319.24,-1433.26 2297,-1420.84 2276.48,-1409.37"/>
<polygon fill="black" stroke="black" points="2277.94,-1406.17 2267.5,-1404.35 2274.52,-1412.29 2277.94,-1406.17"/>
</g>
<!-- n37 -->
<g id="node38" class="node">
<title>n37</title>
<ellipse fill="none" stroke="black" cx="2595.87" cy="-1368.92" rx="185.94" ry="37.45"/>
<text text-anchor="middle" x="2595.87" y="-1380.22" font-family="Times,serif" font-size="14.00">solicitud</text>
<text text-anchor="middle" x="2595.87" y="-1365.22" font-family="Times,serif" font-size="14.00">ncfs000 (nsubj)</text>
<text text-anchor="middle" x="2595.87" y="-1350.22" font-family="Times,serif" font-size="14.00">rep=no, t=no, r=no, m=yes, c=no</text>
</g>
<!-- n38&#45;&gt;n37 -->
<g id="edge37" class="edge">
<title>n38&#45;&gt;n37</title>
<path fill="none" stroke="black" d="M2462.57,-1444.4C2482.49,-1433.26 2504.73,-1420.84 2525.25,-1409.37"/>
<polygon fill="black" stroke="black" points="2527.21,-1412.29 2534.24,-1404.35 2523.8,-1406.17 2527.21,-1412.29"/>
</g>
<!-- n39 -->
<g id="node39" class="node">
<title>n39</title>
<ellipse fill="none" stroke="black" cx="2985.87" cy="-1368.92" rx="185.94" ry="37.45"/>
<text text-anchor="middle" x="2985.87" y="-1380.22" font-family="Times,serif" font-size="14.00">rechazada</text>
<text text-anchor="middle" x="2985.87" y="-1365.22" font-family="Times,serif" font-size="14.00">vmp00sf (attr)</text>
<text text-anchor="middle" x="2985.87" y="-1350.22" font-family="Times,serif" font-size="14.00">rep=no, t=no, r=no, m=yes, c=no</text>
</g>
<!-- n38&#45;&gt;n39 -->
<g id="edge38" class="edge">
<title>n38&#45;&gt;n39</title>
<path fill="none" stroke="black" d="M2534.6,-1453.81C2555.12,-1449.98 2576.06,-1446.07 2595.87,-1442.39 2682.52,-1426.29 2704.22,-1422.5 2790.87,-1406.39 2807.43,-1403.32 2824.78,-1400.08 2842.01,-1396.87"/>
<polygon fill="black" stroke="black" points="2842.95,-1400.25 2852.13,-1394.98 2841.66,-1393.37 2842.95,-1400.25"/>
</g>
<!-- n7 -->
<g id="node10" class="node">
<title>n7</title>
<ellipse fill="#DA79E8" stroke="black" cx="1260.87" cy="-1257.96" rx="190.84" ry="37.45"/>
<text text-anchor="middle" x="1260.87" y="-1269.26" font-family="Times,serif" font-size="14.00">ministra</text>
<text text-anchor="middle" x="1260.87" y="-1254.26" font-family="Times,serif" font-size="14.00">ncfs000 (pobj)</text>
<text text-anchor="middle" x="1260.87" y="-1239.26" font-family="Times,serif" font-size="14.00">rep=no, t=no, r=yes, m=yes, c=no</text>
</g>
<!-- n5&#45;&gt;n7 -->
<g id="edge9" class="edge">
<title>n5&#45;&gt;n7</title>
<path fill="none" stroke="black" d="M1362.17,-1332.54C1348.08,-1322.31 1332.58,-1311.05 1318.02,-1300.48"/>
<polygon fill="black" stroke="black" points="1319.73,-1297.39 1309.58,-1294.35 1315.62,-1303.05 1319.73,-1297.39"/>
</g>
<!-- n15 -->
<g id="node18" class="node">
<title>n15</title>
<ellipse fill="#DA79E8" stroke="black" cx="1960.87" cy="-1257.96" rx="190.84" ry="37.45"/>
<text text-anchor="middle" x="1960.87" y="-1269.26" font-family="Times,serif" font-size="14.00">que</text>
<text text-anchor="middle" x="1960.87" y="-1254.26" font-family="Times,serif" font-size="14.00">cs (dobj)</text>
<text text-anchor="middle" x="1960.87" y="-1239.26" font-family="Times,serif" font-size="14.00">rep=no, t=no, r=yes, m=yes, c=no</text>
</g>
<!-- n14&#45;&gt;n15 -->
<g id="edge17" class="edge">
<title>n14&#45;&gt;n15</title>
<path fill="none" stroke="black" d="M1859.57,-1332.54C1873.66,-1322.31 1889.16,-1311.05 1903.71,-1300.48"/>
<polygon fill="black" stroke="black" points="1906.12,-1303.05 1912.16,-1294.35 1902.01,-1297.39 1906.12,-1303.05"/>
</g>
<!-- n6 -->
<g id="node11" class="node">
<title>n6</title>
<ellipse fill="#DA79E8" stroke="black" cx="260.87" cy="-1147.01" rx="190.84" ry="37.45"/>
<text text-anchor="middle" x="260.87" y="-1158.31" font-family="Times,serif" font-size="14.00">la</text>
<text text-anchor="middle" x="260.87" y="-1143.31" font-family="Times,serif" font-size="14.00">da0fs0 (det)</text>
<text text-anchor="middle" x="260.87" y="-1128.31" font-family="Times,serif" font-size="14.00">rep=no, t=no, r=yes, m=yes, c=no</text>
</g>
<!-- n7&#45;&gt;n6 -->
<g id="edge10" class="edge">
<title>n7&#45;&gt;n6</title>
<path fill="none" stroke="black" d="M1080.83,-1245.31C918.35,-1233.68 672.98,-1213.38 460.87,-1184.49 442.33,-1181.96 422.89,-1178.92 403.73,-1175.68"/>
<polygon fill="black" stroke="black" points="404.18,-1172.21 393.73,-1173.97 403,-1179.11 404.18,-1172.21"/>
</g>
<!-- n8 -->
<g id="node12" class="node">
<title>n8</title>
<ellipse fill="#DA79E8" stroke="black" cx="660.87" cy="-1147.01" rx="190.84" ry="37.45"/>
<text text-anchor="middle" x="660.87" y="-1158.31" font-family="Times,serif" font-size="14.00">de</text>
<text text-anchor="middle" x="660.87" y="-1143.31" font-family="Times,serif" font-size="14.00">sps00 (prepn)</text>
<text text-anchor="middle" x="660.87" y="-1128.31" font-family="Times,serif" font-size="14.00">rep=no, t=no, r=yes, m=yes, c=no</text>
</g>
<!-- n7&#45;&gt;n8 -->
<g id="edge11" class="edge">
<title>n7&#45;&gt;n8</title>
<path fill="none" stroke="black" d="M1122.95,-1232.01C1045.85,-1218.06 948.01,-1200.33 860.87,-1184.49 843.8,-1181.38 825.92,-1178.13 808.16,-1174.89"/>
<polygon fill="black" stroke="black" points="808.77,-1171.45 798.31,-1173.1 807.52,-1178.33 808.77,-1171.45"/>
</g>
<!-- n10 -->
<g id="node13" class="node">
<title>n10</title>
<ellipse fill="#DA79E8" stroke="black" cx="1060.87" cy="-1147.01" rx="190.84" ry="37.45"/>
<text text-anchor="middle" x="1060.87" y="-1158.31" font-family="Times,serif" font-size="14.00">,</text>
<text text-anchor="middle" x="1060.87" y="-1143.31" font-family="Times,serif" font-size="14.00">fc (punct)</text>
<text text-anchor="middle" x="1060.87" y="-1128.31" font-family="Times,serif" font-size="14.00">rep=no, t=no, r=yes, m=yes, c=no</text>
</g>
<!-- n7&#45;&gt;n10 -->
<g id="edge12" class="edge">
<title>n7&#45;&gt;n10</title>
<path fill="none" stroke="black" d="M1197.59,-1222.49C1177.06,-1211.31 1154.13,-1198.82 1133.01,-1187.31"/>
<polygon fill="black" stroke="black" points="1134.54,-1184.16 1124.08,-1182.45 1131.19,-1190.3 1134.54,-1184.16"/>
</g>
<!-- n11 -->
<g id="node14" class="node">
<title>n11</title>
<ellipse fill="#DA79E8" stroke="black" cx="1460.87" cy="-1147.01" rx="190.84" ry="37.45"/>
<text text-anchor="middle" x="1460.87" y="-1158.31" font-family="Times,serif" font-size="14.00">Janet</text>
<text text-anchor="middle" x="1460.87" y="-1143.31" font-family="Times,serif" font-size="14.00">np0000l (appos)</text>
<text text-anchor="middle" x="1460.87" y="-1128.31" font-family="Times,serif" font-size="14.00">rep=no, t=no, r=yes, m=yes, c=no</text>
</g>
<!-- n7&#45;&gt;n11 -->
<g id="edge13" class="edge">
<title>n7&#45;&gt;n11</title>
<path fill="none" stroke="black" d="M1324.15,-1222.49C1344.68,-1211.31 1367.6,-1198.82 1388.73,-1187.31"/>
<polygon fill="black" stroke="black" points="1390.55,-1190.3 1397.66,-1182.45 1387.2,-1184.16 1390.55,-1190.3"/>
</g>
<!-- n13 -->
<g id="node15" class="node">
<title>n13</title>
<ellipse fill="#DA79E8" stroke="black" cx="1860.87" cy="-1147.01" rx="190.84" ry="37.45"/>
<text text-anchor="middle" x="1860.87" y="-1158.31" font-family="Times,serif" font-size="14.00">,</text>
<text text-anchor="middle" x="1860.87" y="-1143.31" font-family="Times,serif" font-size="14.00">fc (punct)</text>
<text text-anchor="middle" x="1860.87" y="-1128.31" font-family="Times,serif" font-size="14.00">rep=no, t=no, r=yes, m=yes, c=no</text>
</g>
<!-- n7&#45;&gt;n13 -->
<g id="edge14" class="edge">
<title>n7&#45;&gt;n13</title>
<path fill="none" stroke="black" d="M1398.79,-1232.01C1475.89,-1218.06 1573.72,-1200.33 1660.87,-1184.49 1677.94,-1181.38 1695.82,-1178.13 1713.58,-1174.89"/>
<polygon fill="black" stroke="black" points="1714.22,-1178.33 1723.43,-1173.1 1712.96,-1171.45 1714.22,-1178.33"/>
</g>
<!-- n9 -->
<g id="node16" class="node">
<title>n9</title>
<ellipse fill="#DA79E8" stroke="black" cx="660.87" cy="-1036.06" rx="190.84" ry="37.45"/>
<text text-anchor="middle" x="660.87" y="-1047.36" font-family="Times,serif" font-size="14.00">Justicia</text>
<text text-anchor="middle" x="660.87" y="-1032.36" font-family="Times,serif" font-size="14.00">np00000 (pobj)</text>
<text text-anchor="middle" x="660.87" y="-1017.36" font-family="Times,serif" font-size="14.00">rep=no, t=no, r=yes, m=yes, c=no</text>
</g>
<!-- n8&#45;&gt;n9 -->
<g id="edge15" class="edge">
<title>n8&#45;&gt;n9</title>
<path fill="none" stroke="black" d="M660.87,-1109.43C660.87,-1101.25 660.87,-1092.47 660.87,-1083.95"/>
<polygon fill="black" stroke="black" points="664.37,-1083.73 660.87,-1073.73 657.37,-1083.73 664.37,-1083.73"/>
</g>
<!-- n12 -->
<g id="node17" class="node">
<title>n12</title>
<ellipse fill="#DA79E8" stroke="black" cx="1460.87" cy="-1036.06" rx="190.84" ry="37.45"/>
<text text-anchor="middle" x="1460.87" y="-1047.36" font-family="Times,serif" font-size="14.00">Reno</text>
<text text-anchor="middle" x="1460.87" y="-1032.36" font-family="Times,serif" font-size="14.00">np0000l (appos)</text>
<text text-anchor="middle" x="1460.87" y="-1017.36" font-family="Times,serif" font-size="14.00">rep=no, t=no, r=yes, m=yes, c=no</text>
</g>
<!-- n11&#45;&gt;n12 -->
<g id="edge16" class="edge">
<title>n11&#45;&gt;n12</title>
<path fill="none" stroke="black" d="M1460.87,-1109.43C1460.87,-1101.25 1460.87,-1092.47 1460.87,-1083.95"/>
<polygon fill="black" stroke="black" points="1464.37,-1083.73 1460.87,-1073.73 1457.37,-1083.73 1464.37,-1083.73"/>
</g>
<!-- n16 -->
<g id="node19" class="node">
<title>n16</title>
<ellipse fill="#DA79E8" stroke="black" cx="2260.87" cy="-1147.01" rx="190.84" ry="37.45"/>
<text text-anchor="middle" x="2260.87" y="-1158.31" font-family="Times,serif" font-size="14.00">designara</text>
<text text-anchor="middle" x="2260.87" y="-1143.31" font-family="Times,serif" font-size="14.00">vmsi3s0 (cobj)</text>
<text text-anchor="middle" x="2260.87" y="-1128.31" font-family="Times,serif" font-size="14.00">rep=no, t=no, r=yes, m=yes, c=no</text>
</g>
<!-- n15&#45;&gt;n16 -->
<g id="edge18" class="edge">
<title>n15&#45;&gt;n16</title>
<path fill="none" stroke="black" d="M2049.66,-1224.72C2085.11,-1211.84 2126.06,-1196.97 2162.42,-1183.77"/>
<polygon fill="black" stroke="black" points="2163.84,-1186.97 2172.05,-1180.27 2161.45,-1180.39 2163.84,-1186.97"/>
</g>
<!-- n17 -->
<g id="node20" class="node">
<title>n17</title>
<ellipse fill="#DA79E8" stroke="black" cx="2060.87" cy="-1036.06" rx="190.84" ry="37.45"/>
<text text-anchor="middle" x="2060.87" y="-1047.36" font-family="Times,serif" font-size="14.00">a</text>
<text text-anchor="middle" x="2060.87" y="-1032.36" font-family="Times,serif" font-size="14.00">sps00 (dobj)</text>
<text text-anchor="middle" x="2060.87" y="-1017.36" font-family="Times,serif" font-size="14.00">rep=no, t=no, r=yes, m=yes, c=no</text>
</g>
<!-- n16&#45;&gt;n17 -->
<g id="edge19" class="edge">
<title>n16&#45;&gt;n17</title>
<path fill="none" stroke="black" d="M2197.59,-1111.54C2177.06,-1100.35 2154.13,-1087.86 2133.01,-1076.36"/>
<polygon fill="black" stroke="black" points="2134.54,-1073.2 2124.08,-1071.49 2131.19,-1079.35 2134.54,-1073.2"/>
</g>
<!-- n21 -->
<g id="node21" class="node">
<title>n21</title>
<ellipse fill="#DA79E8" stroke="black" cx="2460.87" cy="-1036.06" rx="190.84" ry="37.45"/>
<text text-anchor="middle" x="2460.87" y="-1047.36" font-family="Times,serif" font-size="14.00">para</text>
<text text-anchor="middle" x="2460.87" y="-1032.36" font-family="Times,serif" font-size="14.00">sps00 (prepv)</text>
<text text-anchor="middle" x="2460.87" y="-1017.36" font-family="Times,serif" font-size="14.00">rep=no, t=no, r=yes, m=yes, c=no</text>
</g>
<!-- n16&#45;&gt;n21 -->
<g id="edge20" class="edge">
<title>n16&#45;&gt;n21</title>
<path fill="none" stroke="black" d="M2324.15,-1111.54C2344.68,-1100.35 2367.6,-1087.86 2388.73,-1076.36"/>
<polygon fill="black" stroke="black" points="2390.55,-1079.35 2397.66,-1071.49 2387.2,-1073.2 2390.55,-1079.35"/>
</g>
<!-- n19 -->
<g id="node22" class="node">
<title>n19</title>
<ellipse fill="#DA79E8" stroke="black" cx="2060.87" cy="-925.1" rx="190.84" ry="37.45"/>
<text text-anchor="middle" x="2060.87" y="-936.4" font-family="Times,serif" font-size="14.00">fiscal</text>
<text text-anchor="middle" x="2060.87" y="-921.4" font-family="Times,serif" font-size="14.00">nccs000 (pobj)</text>
<text text-anchor="middle" x="2060.87" y="-906.4" font-family="Times,serif" font-size="14.00">rep=no, t=no, r=yes, m=yes, c=no</text>
</g>
<!-- n17&#45;&gt;n19 -->
<g id="edge21" class="edge">
<title>n17&#45;&gt;n19</title>
<path fill="none" stroke="black" d="M2060.87,-998.47C2060.87,-990.3 2060.87,-981.52 2060.87,-972.99"/>
<polygon fill="black" stroke="black" points="2064.37,-972.78 2060.87,-962.78 2057.37,-972.78 2064.37,-972.78"/>
</g>
<!-- n22 -->
<g id="node25" class="node">
<title>n22</title>
<ellipse fill="#DA79E8" stroke="black" cx="2460.87" cy="-925.1" rx="190.84" ry="37.45"/>
<text text-anchor="middle" x="2460.87" y="-936.4" font-family="Times,serif" font-size="14.00">investigar</text>
<text text-anchor="middle" x="2460.87" y="-921.4" font-family="Times,serif" font-size="14.00">vmn0000 (pobj)</text>
<text text-anchor="middle" x="2460.87" y="-906.4" font-family="Times,serif" font-size="14.00">rep=no, t=no, r=yes, m=yes, c=no</text>
</g>
<!-- n21&#45;&gt;n22 -->
<g id="edge24" class="edge">
<title>n21&#45;&gt;n22</title>
<path fill="none" stroke="black" d="M2460.87,-998.47C2460.87,-990.3 2460.87,-981.52 2460.87,-972.99"/>
<polygon fill="black" stroke="black" points="2464.37,-972.78 2460.87,-962.78 2457.37,-972.78 2464.37,-972.78"/>
</g>
<!-- n18 -->
<g id="node23" class="node">
<title>n18</title>
<ellipse fill="#DA79E8" stroke="black" cx="1660.87" cy="-814.15" rx="190.84" ry="37.45"/>
<text text-anchor="middle" x="1660.87" y="-825.45" font-family="Times,serif" font-size="14.00">un</text>
<text text-anchor="middle" x="1660.87" y="-810.45" font-family="Times,serif" font-size="14.00">di0ms0 (det)</text>
<text text-anchor="middle" x="1660.87" y="-795.45" font-family="Times,serif" font-size="14.00">rep=no, t=no, r=yes, m=yes, c=no</text>
</g>
<!-- n19&#45;&gt;n18 -->
<g id="edge22" class="edge">
<title>n19&#45;&gt;n18</title>
<path fill="none" stroke="black" d="M1951.57,-894.33C1898.43,-879.86 1834.46,-862.43 1780.07,-847.62"/>
<polygon fill="black" stroke="black" points="1780.95,-844.23 1770.39,-844.98 1779.11,-850.99 1780.95,-844.23"/>
</g>
<!-- n20 -->
<g id="node24" class="node">
<title>n20</title>
<ellipse fill="#DA79E8" stroke="black" cx="2060.87" cy="-814.15" rx="190.84" ry="37.45"/>
<text text-anchor="middle" x="2060.87" y="-825.45" font-family="Times,serif" font-size="14.00">independiente</text>
<text text-anchor="middle" x="2060.87" y="-810.45" font-family="Times,serif" font-size="14.00">aq0cs0 (amod)</text>
<text text-anchor="middle" x="2060.87" y="-795.45" font-family="Times,serif" font-size="14.00">rep=no, t=no, r=yes, m=yes, c=no</text>
</g>
<!-- n19&#45;&gt;n20 -->
<g id="edge23" class="edge">
<title>n19&#45;&gt;n20</title>
<path fill="none" stroke="black" d="M2060.87,-887.52C2060.87,-879.35 2060.87,-870.57 2060.87,-862.04"/>
<polygon fill="black" stroke="black" points="2064.37,-861.82 2060.87,-851.82 2057.37,-861.82 2064.37,-861.82"/>
</g>
<!-- n24 -->
<g id="node26" class="node">
<title>n24</title>
<ellipse fill="#DA79E8" stroke="black" cx="2460.87" cy="-814.15" rx="190.84" ry="37.45"/>
<text text-anchor="middle" x="2460.87" y="-825.45" font-family="Times,serif" font-size="14.00">actividades</text>
<text text-anchor="middle" x="2460.87" y="-810.45" font-family="Times,serif" font-size="14.00">ncfp000 (dobj)</text>
<text text-anchor="middle" x="2460.87" y="-795.45" font-family="Times,serif" font-size="14.00">rep=no, t=no, r=yes, m=yes, c=no</text>
</g>
<!-- n22&#45;&gt;n24 -->
<g id="edge25" class="edge">
<title>n22&#45;&gt;n24</title>
<path fill="none" stroke="black" d="M2460.87,-887.52C2460.87,-879.35 2460.87,-870.57 2460.87,-862.04"/>
<polygon fill="black" stroke="black" points="2464.37,-861.82 2460.87,-851.82 2457.37,-861.82 2464.37,-861.82"/>
</g>
<!-- n23 -->
<g id="node27" class="node">
<title>n23</title>
<ellipse fill="#DA79E8" stroke="black" cx="2060.87" cy="-703.2" rx="190.84" ry="37.45"/>
<text text-anchor="middle" x="2060.87" y="-714.5" font-family="Times,serif" font-size="14.00">las</text>
<text text-anchor="middle" x="2060.87" y="-699.5" font-family="Times,serif" font-size="14.00">da0fp0 (det)</text>
<text text-anchor="middle" x="2060.87" y="-684.5" font-family="Times,serif" font-size="14.00">rep=no, t=no, r=yes, m=yes, c=no</text>
</g>
<!-- n24&#45;&gt;n23 -->
<g id="edge26" class="edge">
<title>n24&#45;&gt;n23</title>
<path fill="none" stroke="black" d="M2351.57,-783.38C2298.43,-768.9 2234.46,-751.48 2180.07,-736.67"/>
<polygon fill="black" stroke="black" points="2180.95,-733.28 2170.39,-734.03 2179.11,-740.03 2180.95,-733.28"/>
</g>
<!-- n25 -->
<g id="node28" class="node">
<title>n25</title>
<ellipse fill="#DA79E8" stroke="black" cx="2460.87" cy="-703.2" rx="190.84" ry="37.45"/>
<text text-anchor="middle" x="2460.87" y="-714.5" font-family="Times,serif" font-size="14.00">de</text>
<text text-anchor="middle" x="2460.87" y="-699.5" font-family="Times,serif" font-size="14.00">sps00 (prepn)</text>
<text text-anchor="middle" x="2460.87" y="-684.5" font-family="Times,serif" font-size="14.00">rep=no, t=no, r=yes, m=yes, c=no</text>
</g>
<!-- n24&#45;&gt;n25 -->
<g id="edge27" class="edge">
<title>n24&#45;&gt;n25</title>
<path fill="none" stroke="black" d="M2460.87,-776.57C2460.87,-768.39 2460.87,-759.61 2460.87,-751.09"/>
<polygon fill="black" stroke="black" points="2464.37,-750.87 2460.87,-740.87 2457.37,-750.87 2464.37,-750.87"/>
</g>
<!-- n27 -->
<g id="node29" class="node">
<title>n27</title>
<ellipse fill="#DA79E8" stroke="black" cx="2860.87" cy="-703.2" rx="190.84" ry="37.45"/>
<text text-anchor="middle" x="2860.87" y="-714.5" font-family="Times,serif" font-size="14.00">en</text>
<text text-anchor="middle" x="2860.87" y="-699.5" font-family="Times,serif" font-size="14.00">sps00 (prepn)</text>
<text text-anchor="middle" x="2860.87" y="-684.5" font-family="Times,serif" font-size="14.00">rep=no, t=no, r=yes, m=yes, c=no</text>
</g>
<!-- n24&#45;&gt;n27 -->
<g id="edge28" class="edge">
<title>n24&#45;&gt;n27</title>
<path fill="none" stroke="black" d="M2570.17,-783.38C2623.3,-768.9 2687.28,-751.48 2741.66,-736.67"/>
<polygon fill="black" stroke="black" points="2742.62,-740.03 2751.35,-734.03 2740.78,-733.28 2742.62,-740.03"/>
</g>
<!-- n26 -->
<g id="node30" class="node">
<title>n26</title>
<ellipse fill="#DA79E8" stroke="black" cx="2460.87" cy="-592.24" rx="190.84" ry="37.45"/>
<text text-anchor="middle" x="2460.87" y="-603.54" font-family="Times,serif" font-size="14.00">Clinton</text>
<text text-anchor="middle" x="2460.87" y="-588.54" font-family="Times,serif" font-size="14.00">np00000 (pobj)</text>
<text text-anchor="middle" x="2460.87" y="-573.54" font-family="Times,serif" font-size="14.00">rep=no, t=no, r=yes, m=yes, c=no</text>
</g>
<!-- n25&#45;&gt;n26 -->
<g id="edge29" class="edge">
<title>n25&#45;&gt;n26</title>
<path fill="none" stroke="black" d="M2460.87,-665.61C2460.87,-657.44 2460.87,-648.66 2460.87,-640.13"/>
<polygon fill="black" stroke="black" points="2464.37,-639.92 2460.87,-629.92 2457.37,-639.92 2464.37,-639.92"/>
</g>
<!-- n28 -->
<g id="node31" class="node">
<title>n28</title>
<ellipse fill="#DA79E8" stroke="black" cx="2860.87" cy="-592.24" rx="190.84" ry="37.45"/>
<text text-anchor="middle" x="2860.87" y="-603.54" font-family="Times,serif" font-size="14.00">materia</text>
<text text-anchor="middle" x="2860.87" y="-588.54" font-family="Times,serif" font-size="14.00">ncfs000 (pobj)</text>
<text text-anchor="middle" x="2860.87" y="-573.54" font-family="Times,serif" font-size="14.00">rep=no, t=no, r=yes, m=yes, c=no</text>
</g>
<!-- n27&#45;&gt;n28 -->
<g id="edge30" class="edge">
<title>n27&#45;&gt;n28</title>
<path fill="none" stroke="black" d="M2860.87,-665.61C2860.87,-657.44 2860.87,-648.66 2860.87,-640.13"/>
<polygon fill="black" stroke="black" points="2864.37,-639.92 2860.87,-629.92 2857.37,-639.92 2864.37,-639.92"/>
</g>
<!-- n29 -->
<g id="node32" class="node">
<title>n29</title>
<ellipse fill="#DA79E8" stroke="black" cx="2860.87" cy="-481.29" rx="190.84" ry="37.45"/>
<text text-anchor="middle" x="2860.87" y="-492.59" font-family="Times,serif" font-size="14.00">de</text>
<text text-anchor="middle" x="2860.87" y="-477.59" font-family="Times,serif" font-size="14.00">sps00 (prepn)</text>
<text text-anchor="middle" x="2860.87" y="-462.59" font-family="Times,serif" font-size="14.00">rep=no, t=no, r=yes, m=yes, c=no</text>
</g>
<!-- n28&#45;&gt;n29 -->
<g id="edge31" class="edge">
<title>n28&#45;&gt;n29</title>
<path fill="none" stroke="black" d="M2860.87,-554.66C2860.87,-546.49 2860.87,-537.71 2860.87,-529.18"/>
<polygon fill="black" stroke="black" points="2864.37,-528.96 2860.87,-518.96 2857.37,-528.96 2864.37,-528.96"/>
</g>
<!-- n30 -->
<g id="node33" class="node">
<title>n30</title>
<ellipse fill="#DA79E8" stroke="black" cx="2860.87" cy="-370.34" rx="190.84" ry="37.45"/>
<text text-anchor="middle" x="2860.87" y="-381.64" font-family="Times,serif" font-size="14.00">recaudación</text>
<text text-anchor="middle" x="2860.87" y="-366.64" font-family="Times,serif" font-size="14.00">ncfs000 (pobj)</text>
<text text-anchor="middle" x="2860.87" y="-351.64" font-family="Times,serif" font-size="14.00">rep=no, t=no, r=yes, m=yes, c=no</text>
</g>
<!-- n29&#45;&gt;n30 -->
<g id="edge32" class="edge">
<title>n29&#45;&gt;n30</title>
<path fill="none" stroke="black" d="M2860.87,-443.71C2860.87,-435.53 2860.87,-426.75 2860.87,-418.23"/>
<polygon fill="black" stroke="black" points="2864.37,-418.01 2860.87,-408.01 2857.37,-418.01 2864.37,-418.01"/>
</g>
<!-- n31 -->
<g id="node34" class="node">
<title>n31</title>
<ellipse fill="#DA79E8" stroke="black" cx="2860.87" cy="-259.38" rx="190.84" ry="37.45"/>
<text text-anchor="middle" x="2860.87" y="-270.68" font-family="Times,serif" font-size="14.00">de</text>
<text text-anchor="middle" x="2860.87" y="-255.68" font-family="Times,serif" font-size="14.00">sps00 (prepn)</text>
<text text-anchor="middle" x="2860.87" y="-240.68" font-family="Times,serif" font-size="14.00">rep=no, t=no, r=yes, m=yes, c=no</text>
</g>
<!-- n30&#45;&gt;n31 -->
<g id="edge33" class="edge">
<title>n30&#45;&gt;n31</title>
<path fill="none" stroke="black" d="M2860.87,-332.75C2860.87,-324.58 2860.87,-315.8 2860.87,-307.27"/>
<polygon fill="black" stroke="black" points="2864.37,-307.06 2860.87,-297.06 2857.37,-307.06 2864.37,-307.06"/>
</g>
<!-- n32 -->
<g id="node35" class="node">
<title>n32</title>
<ellipse fill="#DA79E8" stroke="black" cx="2860.87" cy="-148.43" rx="190.84" ry="37.45"/>
<text text-anchor="middle" x="2860.87" y="-159.73" font-family="Times,serif" font-size="14.00">fondos</text>
<text text-anchor="middle" x="2860.87" y="-144.73" font-family="Times,serif" font-size="14.00">ncmp000 (pobj)</text>
<text text-anchor="middle" x="2860.87" y="-129.73" font-family="Times,serif" font-size="14.00">rep=no, t=no, r=yes, m=yes, c=no</text>
</g>
<!-- n31&#45;&gt;n32 -->
<g id="edge34" class="edge">
<title>n31&#45;&gt;n32</title>
<path fill="none" stroke="black" d="M2860.87,-221.8C2860.87,-213.63 2860.87,-204.85 2860.87,-196.32"/>
<polygon fill="black" stroke="black" points="2864.37,-196.1 2860.87,-186.1 2857.37,-196.1 2864.37,-196.1"/>
</g>
<!-- n33 -->
<g id="node36" class="node">
<title>n33</title>
<ellipse fill="#DA79E8" stroke="black" cx="2860.87" cy="-37.48" rx="190.84" ry="37.45"/>
<text text-anchor="middle" x="2860.87" y="-48.78" font-family="Times,serif" font-size="14.00">electorales</text>
<text text-anchor="middle" x="2860.87" y="-33.78" font-family="Times,serif" font-size="14.00">aq0cp0 (amod)</text>
<text text-anchor="middle" x="2860.87" y="-18.78" font-family="Times,serif" font-size="14.00">rep=no, t=no, r=yes, m=yes, c=no</text>
</g>
<!-- n32&#45;&gt;n33 -->
<g id="edge35" class="edge">
<title>n32&#45;&gt;n33</title>
<path fill="none" stroke="black" d="M2860.87,-110.85C2860.87,-102.67 2860.87,-93.89 2860.87,-85.37"/>
<polygon fill="black" stroke="black" points="2864.37,-85.15 2860.87,-75.15 2857.37,-85.15 2864.37,-85.15"/>
</g>
<!-- n36 -->
<g id="node40" class="node">
<title>n36</title>
<ellipse fill="none" stroke="black" cx="2595.87" cy="-1257.96" rx="185.94" ry="37.45"/>
<text text-anchor="middle" x="2595.87" y="-1269.26" font-family="Times,serif" font-size="14.00">su</text>
<text text-anchor="middle" x="2595.87" y="-1254.26" font-family="Times,serif" font-size="14.00">dp3cs0 (poss)</text>
<text text-anchor="middle" x="2595.87" y="-1239.26" font-family="Times,serif" font-size="14.00">rep=no, t=no, r=no, m=yes, c=no</text>
</g>
<!-- n37&#45;&gt;n36 -->
<g id="edge39" class="edge">
<title>n37&#45;&gt;n36</title>
<path fill="none" stroke="black" d="M2595.87,-1331.33C2595.87,-1323.16 2595.87,-1314.38 2595.87,-1305.85"/>
<polygon fill="black" stroke="black" points="2599.37,-1305.64 2595.87,-1295.64 2592.37,-1305.64 2599.37,-1305.64"/>
</g>
</g>
</svg>
