<?xml version="1.0" encoding="UTF-8" standalone="no"?>
<!DOCTYPE svg PUBLIC "-//W3C//DTD SVG 1.1//EN"
 "http://www.w3.org/Graphics/SVG/1.1/DTD/svg11.dtd">
<!-- Generated by graphviz version 2.43.0 (0)
 -->
<!-- Title: tree Pages: 1 -->
<svg width="2790pt" height="860pt"
 viewBox="0.00 0.00 2789.84 859.63" xmlns="http://www.w3.org/2000/svg" xmlns:xlink="http://www.w3.org/1999/xlink">
<g id="graph0" class="graph" transform="scale(1 1) rotate(0) translate(4 855.63)">
<title>tree</title>
<polygon fill="white" stroke="transparent" points="-4,4 -4,-855.63 2785.84,-855.63 2785.84,4 -4,4"/>
<!-- n3 -->
<g id="node1" class="node">
<title>n3</title>
<ellipse fill="none" stroke="black" cx="899.92" cy="-814.15" rx="181.95" ry="37.45"/>
<text text-anchor="middle" x="899.92" y="-825.45" font-family="Times,serif" font-size="14.00">anunció</text>
<text text-anchor="middle" x="899.92" y="-810.45" font-family="Times,serif" font-size="14.00">vmis3s0 (root)</text>
<text text-anchor="middle" x="899.92" y="-795.45" font-family="Times,serif" font-size="14.00">rep=no, t=no, r=no, m=no, c=no</text>
</g>
<!-- n2 -->
<g id="node2" class="node">
<title>n2</title>
<ellipse fill="none" stroke="black" cx="323.92" cy="-703.2" rx="185.94" ry="37.45"/>
<text text-anchor="middle" x="323.92" y="-714.5" font-family="Times,serif" font-size="14.00">Pentágono</text>
<text text-anchor="middle" x="323.92" y="-699.5" font-family="Times,serif" font-size="14.00">np00000 (nsubj)</text>
<text text-anchor="middle" x="323.92" y="-684.5" font-family="Times,serif" font-size="14.00">rep=yes, t=no, r=no, m=no, c=no</text>
</g>
<!-- n3&#45;&gt;n2 -->
<g id="edge1" class="edge">
<title>n3&#45;&gt;n2</title>
<path fill="none" stroke="black" d="M768.13,-788.22C678.26,-771.22 559.28,-748.72 467.08,-731.28"/>
<polygon fill="black" stroke="black" points="467.59,-727.81 457.11,-729.39 466.28,-734.69 467.59,-727.81"/>
</g>
<!-- n4 -->
<g id="node3" class="node">
<title>n4</title>
<ellipse fill="none" stroke="black" cx="709.92" cy="-703.2" rx="181.95" ry="37.45"/>
<text text-anchor="middle" x="709.92" y="-714.5" font-family="Times,serif" font-size="14.00">ayer</text>
<text text-anchor="middle" x="709.92" y="-699.5" font-family="Times,serif" font-size="14.00">rg (advmod)</text>
<text text-anchor="middle" x="709.92" y="-684.5" font-family="Times,serif" font-size="14.00">rep=no, t=no, r=no, m=no, c=no</text>
</g>
<!-- n3&#45;&gt;n4 -->
<g id="edge2" class="edge">
<title>n3&#45;&gt;n4</title>
<path fill="none" stroke="black" d="M839.8,-778.68C820.39,-767.54 798.72,-755.12 778.72,-743.65"/>
<polygon fill="black" stroke="black" points="780.39,-740.57 769.97,-738.63 776.9,-746.64 780.39,-740.57"/>
</g>
<!-- n5 -->
<g id="node4" class="node">
<title>n5</title>
<ellipse fill="none" stroke="black" cx="1090.92" cy="-703.2" rx="181.95" ry="37.45"/>
<text text-anchor="middle" x="1090.92" y="-714.5" font-family="Times,serif" font-size="14.00">que</text>
<text text-anchor="middle" x="1090.92" y="-699.5" font-family="Times,serif" font-size="14.00">cs (dobj)</text>
<text text-anchor="middle" x="1090.92" y="-684.5" font-family="Times,serif" font-size="14.00">rep=no, t=no, r=no, m=no, c=no</text>
</g>
<!-- n3&#45;&gt;n5 -->
<g id="edge3" class="edge">
<title>n3&#45;&gt;n5</title>
<path fill="none" stroke="black" d="M960.35,-778.68C979.87,-767.54 1001.65,-755.12 1021.75,-743.65"/>
<polygon fill="black" stroke="black" points="1023.6,-746.63 1030.55,-738.63 1020.13,-740.55 1023.6,-746.63"/>
</g>
<!-- n22 -->
<g id="node5" class="node">
<title>n22</title>
<ellipse fill="none" stroke="black" cx="1471.92" cy="-703.2" rx="181.95" ry="37.45"/>
<text text-anchor="middle" x="1471.92" y="-714.5" font-family="Times,serif" font-size="14.00">.</text>
<text text-anchor="middle" x="1471.92" y="-699.5" font-family="Times,serif" font-size="14.00">fp (punct)</text>
<text text-anchor="middle" x="1471.92" y="-684.5" font-family="Times,serif" font-size="14.00">rep=no, t=no, r=no, m=no, c=no</text>
</g>
<!-- n3&#45;&gt;n22 -->
<g id="edge4" class="edge">
<title>n3&#45;&gt;n22</title>
<path fill="none" stroke="black" d="M1031.64,-788.23C1105.27,-774.28 1198.71,-756.56 1281.92,-740.67 1297.98,-737.61 1314.81,-734.39 1331.53,-731.18"/>
<polygon fill="black" stroke="black" points="1332.19,-734.62 1341.36,-729.3 1330.88,-727.75 1332.19,-734.62"/>
</g>
<!-- n1 -->
<g id="node6" class="node">
<title>n1</title>
<ellipse fill="none" stroke="black" cx="323.92" cy="-592.24" rx="185.94" ry="37.45"/>
<text text-anchor="middle" x="323.92" y="-603.54" font-family="Times,serif" font-size="14.00">El</text>
<text text-anchor="middle" x="323.92" y="-588.54" font-family="Times,serif" font-size="14.00">da0ms0 (det)</text>
<text text-anchor="middle" x="323.92" y="-573.54" font-family="Times,serif" font-size="14.00">rep=yes, t=no, r=no, m=no, c=no</text>
</g>
<!-- n2&#45;&gt;n1 -->
<g id="edge5" class="edge">
<title>n2&#45;&gt;n1</title>
<path fill="none" stroke="black" d="M323.92,-665.61C323.92,-657.44 323.92,-648.66 323.92,-640.13"/>
<polygon fill="black" stroke="black" points="327.42,-639.92 323.92,-629.92 320.42,-639.92 327.42,-639.92"/>
</g>
<!-- n11 -->
<g id="node7" class="node">
<title>n11</title>
<ellipse fill="#DA79E8" stroke="black" cx="1090.92" cy="-592.24" rx="190.84" ry="37.45"/>
<text text-anchor="middle" x="1090.92" y="-603.54" font-family="Times,serif" font-size="14.00">pueden</text>
<text text-anchor="middle" x="1090.92" y="-588.54" font-family="Times,serif" font-size="14.00">vmip3p0 (cobj)</text>
<text text-anchor="middle" x="1090.92" y="-573.54" font-family="Times,serif" font-size="14.00">rep=no, t=no, r=yes, m=yes, c=no</text>
</g>
<!-- n5&#45;&gt;n11 -->
<g id="edge6" class="edge">
<title>n5&#45;&gt;n11</title>
<path fill="none" stroke="black" d="M1090.92,-665.61C1090.92,-657.44 1090.92,-648.66 1090.92,-640.13"/>
<polygon fill="black" stroke="black" points="1094.42,-639.92 1090.92,-629.92 1087.42,-639.92 1094.42,-639.92"/>
</g>
<!-- n7 -->
<g id="node8" class="node">
<title>n7</title>
<ellipse fill="#BEDA48" stroke="black" cx="790.92" cy="-481.29" rx="190.84" ry="37.45"/>
<text text-anchor="middle" x="790.92" y="-492.59" font-family="Times,serif" font-size="14.00">helicópteros</text>
<text text-anchor="middle" x="790.92" y="-477.59" font-family="Times,serif" font-size="14.00">ncmp000 (nsubj)</text>
<text text-anchor="middle" x="790.92" y="-462.59" font-family="Times,serif" font-size="14.00">rep=no, t=yes, r=no, m=yes, c=no</text>
</g>
<!-- n11&#45;&gt;n7 -->
<g id="edge7" class="edge">
<title>n11&#45;&gt;n7</title>
<path fill="none" stroke="black" d="M1002.13,-559C966.68,-546.12 925.73,-531.25 889.37,-518.05"/>
<polygon fill="black" stroke="black" points="890.34,-514.67 879.74,-514.55 887.95,-521.25 890.34,-514.67"/>
</g>
<!-- n12 -->
<g id="node9" class="node">
<title>n12</title>
<ellipse fill="#DA79E8" stroke="black" cx="1390.92" cy="-481.29" rx="190.84" ry="37.45"/>
<text text-anchor="middle" x="1390.92" y="-492.59" font-family="Times,serif" font-size="14.00">lanzar</text>
<text text-anchor="middle" x="1390.92" y="-477.59" font-family="Times,serif" font-size="14.00">vmn0000 (dobj)</text>
<text text-anchor="middle" x="1390.92" y="-462.59" font-family="Times,serif" font-size="14.00">rep=no, t=no, r=yes, m=yes, c=no</text>
</g>
<!-- n11&#45;&gt;n12 -->
<g id="edge8" class="edge">
<title>n11&#45;&gt;n12</title>
<path fill="none" stroke="black" d="M1179.71,-559C1215.16,-546.12 1256.11,-531.25 1292.47,-518.05"/>
<polygon fill="black" stroke="black" points="1293.89,-521.25 1302.1,-514.55 1291.5,-514.67 1293.89,-521.25"/>
</g>
<!-- n6 -->
<g id="node10" class="node">
<title>n6</title>
<ellipse fill="#BEDA48" stroke="black" cx="190.92" cy="-370.34" rx="190.84" ry="37.45"/>
<text text-anchor="middle" x="190.92" y="-381.64" font-family="Times,serif" font-size="14.00">los</text>
<text text-anchor="middle" x="190.92" y="-366.64" font-family="Times,serif" font-size="14.00">da0mp0 (det)</text>
<text text-anchor="middle" x="190.92" y="-351.64" font-family="Times,serif" font-size="14.00">rep=no, t=yes, r=no, m=yes, c=no</text>
</g>
<!-- n7&#45;&gt;n6 -->
<g id="edge9" class="edge">
<title>n7&#45;&gt;n6</title>
<path fill="none" stroke="black" d="M653,-455.34C575.9,-441.38 478.06,-423.65 390.92,-407.81 373.85,-404.71 355.97,-401.45 338.21,-398.22"/>
<polygon fill="black" stroke="black" points="338.82,-394.77 328.36,-396.42 337.57,-401.66 338.82,-394.77"/>
</g>
<!-- n8 -->
<g id="node11" class="node">
<title>n8</title>
<ellipse fill="#BEDA48" stroke="black" cx="590.92" cy="-370.34" rx="190.84" ry="37.45"/>
<text text-anchor="middle" x="590.92" y="-381.64" font-family="Times,serif" font-size="14.00">de</text>
<text text-anchor="middle" x="590.92" y="-366.64" font-family="Times,serif" font-size="14.00">sps00 (prepn)</text>
<text text-anchor="middle" x="590.92" y="-351.64" font-family="Times,serif" font-size="14.00">rep=no, t=yes, r=no, m=yes, c=no</text>
</g>
<!-- n7&#45;&gt;n8 -->
<g id="edge10" class="edge">
<title>n7&#45;&gt;n8</title>
<path fill="none" stroke="black" d="M727.64,-445.82C707.11,-434.63 684.18,-422.14 663.06,-410.64"/>
<polygon fill="black" stroke="black" points="664.59,-407.48 654.13,-405.77 661.24,-413.63 664.59,-407.48"/>
</g>
<!-- n10 -->
<g id="node12" class="node">
<title>n10</title>
<ellipse fill="#BEDA48" stroke="black" cx="990.92" cy="-370.34" rx="190.84" ry="37.45"/>
<text text-anchor="middle" x="990.92" y="-381.64" font-family="Times,serif" font-size="14.00">Apache</text>
<text text-anchor="middle" x="990.92" y="-366.64" font-family="Times,serif" font-size="14.00">np00000 (appos)</text>
<text text-anchor="middle" x="990.92" y="-351.64" font-family="Times,serif" font-size="14.00">rep=no, t=yes, r=no, m=yes, c=no</text>
</g>
<!-- n7&#45;&gt;n10 -->
<g id="edge11" class="edge">
<title>n7&#45;&gt;n10</title>
<path fill="none" stroke="black" d="M854.2,-445.82C874.73,-434.63 897.65,-422.14 918.78,-410.64"/>
<polygon fill="black" stroke="black" points="920.6,-413.63 927.71,-405.77 917.25,-407.48 920.6,-413.63"/>
</g>
<!-- n13 -->
<g id="node14" class="node">
<title>n13</title>
<ellipse fill="#DA79E8" stroke="black" cx="1390.92" cy="-370.34" rx="190.84" ry="37.45"/>
<text text-anchor="middle" x="1390.92" y="-381.64" font-family="Times,serif" font-size="14.00">pronto</text>
<text text-anchor="middle" x="1390.92" y="-366.64" font-family="Times,serif" font-size="14.00">rg (advmod)</text>
<text text-anchor="middle" x="1390.92" y="-351.64" font-family="Times,serif" font-size="14.00">rep=no, t=no, r=yes, m=yes, c=no</text>
</g>
<!-- n12&#45;&gt;n13 -->
<g id="edge13" class="edge">
<title>n12&#45;&gt;n13</title>
<path fill="none" stroke="black" d="M1390.92,-443.71C1390.92,-435.53 1390.92,-426.75 1390.92,-418.23"/>
<polygon fill="black" stroke="black" points="1394.42,-418.01 1390.92,-408.01 1387.42,-418.01 1394.42,-418.01"/>
</g>
<!-- n16 -->
<g id="node15" class="node">
<title>n16</title>
<ellipse fill="#DA79E8" stroke="black" cx="1790.92" cy="-370.34" rx="190.84" ry="37.45"/>
<text text-anchor="middle" x="1790.92" y="-381.64" font-family="Times,serif" font-size="14.00">ataque</text>
<text text-anchor="middle" x="1790.92" y="-366.64" font-family="Times,serif" font-size="14.00">ncms000 (dobj)</text>
<text text-anchor="middle" x="1790.92" y="-351.64" font-family="Times,serif" font-size="14.00">rep=no, t=no, r=yes, m=yes, c=no</text>
</g>
<!-- n12&#45;&gt;n16 -->
<g id="edge14" class="edge">
<title>n12&#45;&gt;n16</title>
<path fill="none" stroke="black" d="M1500.22,-450.52C1553.36,-436.04 1617.33,-418.62 1671.71,-403.81"/>
<polygon fill="black" stroke="black" points="1672.67,-407.17 1681.4,-401.17 1670.83,-400.42 1672.67,-407.17"/>
</g>
<!-- n9 -->
<g id="node13" class="node">
<title>n9</title>
<ellipse fill="#BEDA48" stroke="black" cx="590.92" cy="-259.38" rx="190.84" ry="37.45"/>
<text text-anchor="middle" x="590.92" y="-270.68" font-family="Times,serif" font-size="14.00">combate</text>
<text text-anchor="middle" x="590.92" y="-255.68" font-family="Times,serif" font-size="14.00">ncms000 (pobj)</text>
<text text-anchor="middle" x="590.92" y="-240.68" font-family="Times,serif" font-size="14.00">rep=no, t=yes, r=no, m=yes, c=no</text>
</g>
<!-- n8&#45;&gt;n9 -->
<g id="edge12" class="edge">
<title>n8&#45;&gt;n9</title>
<path fill="none" stroke="black" d="M590.92,-332.75C590.92,-324.58 590.92,-315.8 590.92,-307.27"/>
<polygon fill="black" stroke="black" points="594.42,-307.06 590.92,-297.06 587.42,-307.06 594.42,-307.06"/>
</g>
<!-- n14 -->
<g id="node16" class="node">
<title>n14</title>
<ellipse fill="#DA79E8" stroke="black" cx="990.92" cy="-259.38" rx="190.84" ry="37.45"/>
<text text-anchor="middle" x="990.92" y="-270.68" font-family="Times,serif" font-size="14.00">&quot;</text>
<text text-anchor="middle" x="990.92" y="-255.68" font-family="Times,serif" font-size="14.00">fe (punct)</text>
<text text-anchor="middle" x="990.92" y="-240.68" font-family="Times,serif" font-size="14.00">rep=no, t=no, r=yes, m=yes, c=no</text>
</g>
<!-- n16&#45;&gt;n14 -->
<g id="edge15" class="edge">
<title>n16&#45;&gt;n14</title>
<path fill="none" stroke="black" d="M1658.06,-343.37C1635.7,-339.5 1612.69,-335.82 1590.92,-332.86 1414.05,-308.82 1367.79,-320.9 1190.92,-296.86 1172.38,-294.34 1152.94,-291.3 1133.77,-288.06"/>
<polygon fill="black" stroke="black" points="1134.23,-284.59 1123.78,-286.35 1133.05,-291.49 1134.23,-284.59"/>
</g>
<!-- n15 -->
<g id="node17" class="node">
<title>n15</title>
<ellipse fill="#DA79E8" stroke="black" cx="1390.92" cy="-259.38" rx="190.84" ry="37.45"/>
<text text-anchor="middle" x="1390.92" y="-270.68" font-family="Times,serif" font-size="14.00">un</text>
<text text-anchor="middle" x="1390.92" y="-255.68" font-family="Times,serif" font-size="14.00">di0ms0 (det)</text>
<text text-anchor="middle" x="1390.92" y="-240.68" font-family="Times,serif" font-size="14.00">rep=no, t=no, r=yes, m=yes, c=no</text>
</g>
<!-- n16&#45;&gt;n15 -->
<g id="edge16" class="edge">
<title>n16&#45;&gt;n15</title>
<path fill="none" stroke="black" d="M1681.62,-339.56C1628.48,-325.09 1564.51,-307.67 1510.12,-292.85"/>
<polygon fill="black" stroke="black" points="1511,-289.46 1500.44,-290.21 1509.16,-296.22 1511,-289.46"/>
</g>
<!-- n17 -->
<g id="node18" class="node">
<title>n17</title>
<ellipse fill="#DA79E8" stroke="black" cx="1790.92" cy="-259.38" rx="190.84" ry="37.45"/>
<text text-anchor="middle" x="1790.92" y="-270.68" font-family="Times,serif" font-size="14.00">intenso</text>
<text text-anchor="middle" x="1790.92" y="-255.68" font-family="Times,serif" font-size="14.00">aq0ms0 (amod)</text>
<text text-anchor="middle" x="1790.92" y="-240.68" font-family="Times,serif" font-size="14.00">rep=no, t=no, r=yes, m=yes, c=no</text>
</g>
<!-- n16&#45;&gt;n17 -->
<g id="edge17" class="edge">
<title>n16&#45;&gt;n17</title>
<path fill="none" stroke="black" d="M1790.92,-332.75C1790.92,-324.58 1790.92,-315.8 1790.92,-307.27"/>
<polygon fill="black" stroke="black" points="1794.42,-307.06 1790.92,-297.06 1787.42,-307.06 1794.42,-307.06"/>
</g>
<!-- n18 -->
<g id="node19" class="node">
<title>n18</title>
<ellipse fill="#DA79E8" stroke="black" cx="2190.92" cy="-259.38" rx="190.84" ry="37.45"/>
<text text-anchor="middle" x="2190.92" y="-270.68" font-family="Times,serif" font-size="14.00">&quot;</text>
<text text-anchor="middle" x="2190.92" y="-255.68" font-family="Times,serif" font-size="14.00">fe (punct)</text>
<text text-anchor="middle" x="2190.92" y="-240.68" font-family="Times,serif" font-size="14.00">rep=no, t=no, r=yes, m=yes, c=no</text>
</g>
<!-- n16&#45;&gt;n18 -->
<g id="edge18" class="edge">
<title>n16&#45;&gt;n18</title>
<path fill="none" stroke="black" d="M1900.22,-339.56C1953.36,-325.09 2017.33,-307.67 2071.71,-292.85"/>
<polygon fill="black" stroke="black" points="2072.67,-296.22 2081.4,-290.21 2070.83,-289.46 2072.67,-296.22"/>
</g>
<!-- n19 -->
<g id="node20" class="node">
<title>n19</title>
<ellipse fill="#DA79E8" stroke="black" cx="2590.92" cy="-259.38" rx="190.84" ry="37.45"/>
<text text-anchor="middle" x="2590.92" y="-270.68" font-family="Times,serif" font-size="14.00">contra</text>
<text text-anchor="middle" x="2590.92" y="-255.68" font-family="Times,serif" font-size="14.00">sps00 (prepn)</text>
<text text-anchor="middle" x="2590.92" y="-240.68" font-family="Times,serif" font-size="14.00">rep=no, t=no, r=yes, m=yes, c=no</text>
</g>
<!-- n16&#45;&gt;n19 -->
<g id="edge19" class="edge">
<title>n16&#45;&gt;n19</title>
<path fill="none" stroke="black" d="M1957.46,-351.94C2078.08,-338.68 2244.9,-318.97 2390.92,-296.86 2408.96,-294.13 2427.88,-291.01 2446.57,-287.78"/>
<polygon fill="black" stroke="black" points="2447.38,-291.19 2456.63,-286.02 2446.17,-284.29 2447.38,-291.19"/>
</g>
<!-- n20 -->
<g id="node21" class="node">
<title>n20</title>
<ellipse fill="#DA79E8" stroke="black" cx="2590.92" cy="-148.43" rx="190.84" ry="37.45"/>
<text text-anchor="middle" x="2590.92" y="-159.73" font-family="Times,serif" font-size="14.00">fuerzas</text>
<text text-anchor="middle" x="2590.92" y="-144.73" font-family="Times,serif" font-size="14.00">ncfp000 (pobj)</text>
<text text-anchor="middle" x="2590.92" y="-129.73" font-family="Times,serif" font-size="14.00">rep=no, t=no, r=yes, m=yes, c=no</text>
</g>
<!-- n19&#45;&gt;n20 -->
<g id="edge20" class="edge">
<title>n19&#45;&gt;n20</title>
<path fill="none" stroke="black" d="M2590.92,-221.8C2590.92,-213.63 2590.92,-204.85 2590.92,-196.32"/>
<polygon fill="black" stroke="black" points="2594.42,-196.1 2590.92,-186.1 2587.42,-196.1 2594.42,-196.1"/>
</g>
<!-- n21 -->
<g id="node22" class="node">
<title>n21</title>
<ellipse fill="#DA79E8" stroke="black" cx="2590.92" cy="-37.48" rx="190.84" ry="37.45"/>
<text text-anchor="middle" x="2590.92" y="-48.78" font-family="Times,serif" font-size="14.00">serbias</text>
<text text-anchor="middle" x="2590.92" y="-33.78" font-family="Times,serif" font-size="14.00">aq0fp0 (amod)</text>
<text text-anchor="middle" x="2590.92" y="-18.78" font-family="Times,serif" font-size="14.00">rep=no, t=no, r=yes, m=yes, c=no</text>
</g>
<!-- n20&#45;&gt;n21 -->
<g id="edge21" class="edge">
<title>n20&#45;&gt;n21</title>
<path fill="none" stroke="black" d="M2590.92,-110.85C2590.92,-102.67 2590.92,-93.89 2590.92,-85.37"/>
<polygon fill="black" stroke="black" points="2594.42,-85.15 2590.92,-75.15 2587.42,-85.15 2594.42,-85.15"/>
</g>
</g>
</svg>
