<?xml version="1.0" encoding="UTF-8" standalone="no"?>
<!DOCTYPE svg PUBLIC "-//W3C//DTD SVG 1.1//EN"
 "http://www.w3.org/Graphics/SVG/1.1/DTD/svg11.dtd">
<!-- Generated by graphviz version 2.43.0 (0)
 -->
<!-- Title: tree Pages: 1 -->
<svg width="1355pt" height="860pt"
 viewBox="0.00 0.00 1354.94 859.63" xmlns="http://www.w3.org/2000/svg" xmlns:xlink="http://www.w3.org/1999/xlink">
<g id="graph0" class="graph" transform="scale(1 1) rotate(0) translate(4 855.63)">
<title>tree</title>
<polygon fill="white" stroke="transparent" points="-4,4 -4,-855.63 1350.94,-855.63 1350.94,4 -4,4"/>
<!-- n5 -->
<g id="node1" class="node">
<title>n5</title>
<ellipse fill="none" stroke="black" cx="575.97" cy="-814.15" rx="185.94" ry="37.45"/>
<text text-anchor="middle" x="575.97" y="-825.45" font-family="Times,serif" font-size="14.00">parece</text>
<text text-anchor="middle" x="575.97" y="-810.45" font-family="Times,serif" font-size="14.00">vmip3s0 (root)</text>
<text text-anchor="middle" x="575.97" y="-795.45" font-family="Times,serif" font-size="14.00">rep=no, t=no, r=no, m=yes, c=no</text>
</g>
<!-- n1 -->
<g id="node2" class="node">
<title>n1</title>
<ellipse fill="none" stroke="black" cx="185.97" cy="-703.2" rx="185.94" ry="37.45"/>
<text text-anchor="middle" x="185.97" y="-714.5" font-family="Times,serif" font-size="14.00">Ser</text>
<text text-anchor="middle" x="185.97" y="-699.5" font-family="Times,serif" font-size="14.00">vsn0000 (attr)</text>
<text text-anchor="middle" x="185.97" y="-684.5" font-family="Times,serif" font-size="14.00">rep=no, t=no, r=no, m=yes, c=no</text>
</g>
<!-- n5&#45;&gt;n1 -->
<g id="edge1" class="edge">
<title>n5&#45;&gt;n1</title>
<path fill="none" stroke="black" d="M469.4,-783.38C417.59,-768.91 355.23,-751.48 302.2,-736.67"/>
<polygon fill="black" stroke="black" points="302.98,-733.25 292.41,-733.93 301.1,-739.99 302.98,-733.25"/>
</g>
<!-- n7 -->
<g id="node3" class="node">
<title>n7</title>
<ellipse fill="none" stroke="black" cx="575.97" cy="-703.2" rx="185.94" ry="37.45"/>
<text text-anchor="middle" x="575.97" y="-714.5" font-family="Times,serif" font-size="14.00">aval</text>
<text text-anchor="middle" x="575.97" y="-699.5" font-family="Times,serif" font-size="14.00">ncms000 (dobj)</text>
<text text-anchor="middle" x="575.97" y="-684.5" font-family="Times,serif" font-size="14.00">rep=no, t=no, r=no, m=yes, c=no</text>
</g>
<!-- n5&#45;&gt;n7 -->
<g id="edge2" class="edge">
<title>n5&#45;&gt;n7</title>
<path fill="none" stroke="black" d="M575.97,-776.57C575.97,-768.39 575.97,-759.61 575.97,-751.09"/>
<polygon fill="black" stroke="black" points="579.47,-750.87 575.97,-740.87 572.47,-750.87 579.47,-750.87"/>
</g>
<!-- n15 -->
<g id="node4" class="node">
<title>n15</title>
<ellipse fill="none" stroke="black" cx="961.97" cy="-703.2" rx="181.95" ry="37.45"/>
<text text-anchor="middle" x="961.97" y="-714.5" font-family="Times,serif" font-size="14.00">.</text>
<text text-anchor="middle" x="961.97" y="-699.5" font-family="Times,serif" font-size="14.00">fp (punct)</text>
<text text-anchor="middle" x="961.97" y="-684.5" font-family="Times,serif" font-size="14.00">rep=no, t=no, r=no, m=no, c=no</text>
</g>
<!-- n5&#45;&gt;n15 -->
<g id="edge3" class="edge">
<title>n5&#45;&gt;n15</title>
<path fill="none" stroke="black" d="M681.7,-783.31C732.97,-768.83 794.65,-751.42 847.08,-736.63"/>
<polygon fill="black" stroke="black" points="848.08,-739.98 856.75,-733.89 846.18,-733.24 848.08,-739.98"/>
</g>
<!-- n2 -->
<g id="node5" class="node">
<title>n2</title>
<ellipse fill="none" stroke="black" cx="185.97" cy="-592.24" rx="185.94" ry="37.45"/>
<text text-anchor="middle" x="185.97" y="-603.54" font-family="Times,serif" font-size="14.00">exministro</text>
<text text-anchor="middle" x="185.97" y="-588.54" font-family="Times,serif" font-size="14.00">ncms000 (attr)</text>
<text text-anchor="middle" x="185.97" y="-573.54" font-family="Times,serif" font-size="14.00">rep=no, t=no, r=no, m=yes, c=no</text>
</g>
<!-- n1&#45;&gt;n2 -->
<g id="edge4" class="edge">
<title>n1&#45;&gt;n2</title>
<path fill="none" stroke="black" d="M185.97,-665.61C185.97,-657.44 185.97,-648.66 185.97,-640.13"/>
<polygon fill="black" stroke="black" points="189.47,-639.92 185.97,-629.92 182.47,-639.92 189.47,-639.92"/>
</g>
<!-- n6 -->
<g id="node8" class="node">
<title>n6</title>
<ellipse fill="none" stroke="black" cx="575.97" cy="-592.24" rx="185.94" ry="37.45"/>
<text text-anchor="middle" x="575.97" y="-603.54" font-family="Times,serif" font-size="14.00">un</text>
<text text-anchor="middle" x="575.97" y="-588.54" font-family="Times,serif" font-size="14.00">di0ms0 (det)</text>
<text text-anchor="middle" x="575.97" y="-573.54" font-family="Times,serif" font-size="14.00">rep=no, t=no, r=no, m=yes, c=no</text>
</g>
<!-- n7&#45;&gt;n6 -->
<g id="edge7" class="edge">
<title>n7&#45;&gt;n6</title>
<path fill="none" stroke="black" d="M575.97,-665.61C575.97,-657.44 575.97,-648.66 575.97,-640.13"/>
<polygon fill="black" stroke="black" points="579.47,-639.92 575.97,-629.92 572.47,-639.92 579.47,-639.92"/>
</g>
<!-- n8 -->
<g id="node9" class="node">
<title>n8</title>
<ellipse fill="none" stroke="black" cx="965.97" cy="-592.24" rx="185.94" ry="37.45"/>
<text text-anchor="middle" x="965.97" y="-603.54" font-family="Times,serif" font-size="14.00">para</text>
<text text-anchor="middle" x="965.97" y="-588.54" font-family="Times,serif" font-size="14.00">sps00 (prepn)</text>
<text text-anchor="middle" x="965.97" y="-573.54" font-family="Times,serif" font-size="14.00">rep=no, t=no, r=no, m=yes, c=no</text>
</g>
<!-- n7&#45;&gt;n8 -->
<g id="edge8" class="edge">
<title>n7&#45;&gt;n8</title>
<path fill="none" stroke="black" d="M682.54,-672.42C734.34,-657.95 796.71,-640.53 849.74,-625.71"/>
<polygon fill="black" stroke="black" points="850.84,-629.04 859.53,-622.98 848.96,-622.3 850.84,-629.04"/>
</g>
<!-- n3 -->
<g id="node6" class="node">
<title>n3</title>
<ellipse fill="none" stroke="black" cx="185.97" cy="-481.29" rx="185.94" ry="37.45"/>
<text text-anchor="middle" x="185.97" y="-492.59" font-family="Times,serif" font-size="14.00">de</text>
<text text-anchor="middle" x="185.97" y="-477.59" font-family="Times,serif" font-size="14.00">sps00 (prepn)</text>
<text text-anchor="middle" x="185.97" y="-462.59" font-family="Times,serif" font-size="14.00">rep=no, t=no, r=no, m=yes, c=no</text>
</g>
<!-- n2&#45;&gt;n3 -->
<g id="edge5" class="edge">
<title>n2&#45;&gt;n3</title>
<path fill="none" stroke="black" d="M185.97,-554.66C185.97,-546.49 185.97,-537.71 185.97,-529.18"/>
<polygon fill="black" stroke="black" points="189.47,-528.96 185.97,-518.96 182.47,-528.96 189.47,-528.96"/>
</g>
<!-- n4 -->
<g id="node7" class="node">
<title>n4</title>
<ellipse fill="none" stroke="black" cx="185.97" cy="-370.34" rx="185.94" ry="37.45"/>
<text text-anchor="middle" x="185.97" y="-381.64" font-family="Times,serif" font-size="14.00">Trabajo</text>
<text text-anchor="middle" x="185.97" y="-366.64" font-family="Times,serif" font-size="14.00">np00000 (pobj)</text>
<text text-anchor="middle" x="185.97" y="-351.64" font-family="Times,serif" font-size="14.00">rep=no, t=no, r=no, m=yes, c=no</text>
</g>
<!-- n3&#45;&gt;n4 -->
<g id="edge6" class="edge">
<title>n3&#45;&gt;n4</title>
<path fill="none" stroke="black" d="M185.97,-443.71C185.97,-435.53 185.97,-426.75 185.97,-418.23"/>
<polygon fill="black" stroke="black" points="189.47,-418.01 185.97,-408.01 182.47,-418.01 189.47,-418.01"/>
</g>
<!-- n9 -->
<g id="node10" class="node">
<title>n9</title>
<ellipse fill="none" stroke="black" cx="965.97" cy="-481.29" rx="185.94" ry="37.45"/>
<text text-anchor="middle" x="965.97" y="-492.59" font-family="Times,serif" font-size="14.00">presentarse</text>
<text text-anchor="middle" x="965.97" y="-477.59" font-family="Times,serif" font-size="14.00">vmn0000 (pobj)</text>
<text text-anchor="middle" x="965.97" y="-462.59" font-family="Times,serif" font-size="14.00">rep=no, t=no, r=no, m=yes, c=no</text>
</g>
<!-- n8&#45;&gt;n9 -->
<g id="edge9" class="edge">
<title>n8&#45;&gt;n9</title>
<path fill="none" stroke="black" d="M965.97,-554.66C965.97,-546.49 965.97,-537.71 965.97,-529.18"/>
<polygon fill="black" stroke="black" points="969.47,-528.96 965.97,-518.96 962.47,-528.96 969.47,-528.96"/>
</g>
<!-- n10 -->
<g id="node11" class="node">
<title>n10</title>
<ellipse fill="none" stroke="black" cx="965.97" cy="-370.34" rx="185.94" ry="37.45"/>
<text text-anchor="middle" x="965.97" y="-381.64" font-family="Times,serif" font-size="14.00">a</text>
<text text-anchor="middle" x="965.97" y="-366.64" font-family="Times,serif" font-size="14.00">sps00 (prepv)</text>
<text text-anchor="middle" x="965.97" y="-351.64" font-family="Times,serif" font-size="14.00">rep=no, t=no, r=no, m=yes, c=no</text>
</g>
<!-- n9&#45;&gt;n10 -->
<g id="edge10" class="edge">
<title>n9&#45;&gt;n10</title>
<path fill="none" stroke="black" d="M965.97,-443.71C965.97,-435.53 965.97,-426.75 965.97,-418.23"/>
<polygon fill="black" stroke="black" points="969.47,-418.01 965.97,-408.01 962.47,-418.01 969.47,-418.01"/>
</g>
<!-- n12 -->
<g id="node12" class="node">
<title>n12</title>
<ellipse fill="none" stroke="black" cx="965.97" cy="-259.38" rx="185.94" ry="37.45"/>
<text text-anchor="middle" x="965.97" y="-270.68" font-family="Times,serif" font-size="14.00">elecciones</text>
<text text-anchor="middle" x="965.97" y="-255.68" font-family="Times,serif" font-size="14.00">ncfp000 (pobj)</text>
<text text-anchor="middle" x="965.97" y="-240.68" font-family="Times,serif" font-size="14.00">rep=no, t=no, r=no, m=yes, c=no</text>
</g>
<!-- n10&#45;&gt;n12 -->
<g id="edge11" class="edge">
<title>n10&#45;&gt;n12</title>
<path fill="none" stroke="black" d="M965.97,-332.75C965.97,-324.58 965.97,-315.8 965.97,-307.27"/>
<polygon fill="black" stroke="black" points="969.47,-307.06 965.97,-297.06 962.47,-307.06 969.47,-307.06"/>
</g>
<!-- n11 -->
<g id="node13" class="node">
<title>n11</title>
<ellipse fill="none" stroke="black" cx="770.97" cy="-148.43" rx="185.94" ry="37.45"/>
<text text-anchor="middle" x="770.97" y="-159.73" font-family="Times,serif" font-size="14.00">las</text>
<text text-anchor="middle" x="770.97" y="-144.73" font-family="Times,serif" font-size="14.00">da0fp0 (det)</text>
<text text-anchor="middle" x="770.97" y="-129.73" font-family="Times,serif" font-size="14.00">rep=no, t=no, r=no, m=yes, c=no</text>
</g>
<!-- n12&#45;&gt;n11 -->
<g id="edge12" class="edge">
<title>n12&#45;&gt;n11</title>
<path fill="none" stroke="black" d="M904.27,-223.91C884.34,-212.78 862.1,-200.35 841.58,-188.89"/>
<polygon fill="black" stroke="black" points="843.04,-185.69 832.6,-183.87 839.62,-191.8 843.04,-185.69"/>
</g>
<!-- n13 -->
<g id="node14" class="node">
<title>n13</title>
<ellipse fill="none" stroke="black" cx="1160.97" cy="-148.43" rx="185.94" ry="37.45"/>
<text text-anchor="middle" x="1160.97" y="-159.73" font-family="Times,serif" font-size="14.00">en</text>
<text text-anchor="middle" x="1160.97" y="-144.73" font-family="Times,serif" font-size="14.00">sps00 (prepn)</text>
<text text-anchor="middle" x="1160.97" y="-129.73" font-family="Times,serif" font-size="14.00">rep=no, t=no, r=no, m=yes, c=no</text>
</g>
<!-- n12&#45;&gt;n13 -->
<g id="edge13" class="edge">
<title>n12&#45;&gt;n13</title>
<path fill="none" stroke="black" d="M1027.67,-223.91C1047.59,-212.78 1069.84,-200.35 1090.35,-188.89"/>
<polygon fill="black" stroke="black" points="1092.31,-191.8 1099.34,-183.87 1088.9,-185.69 1092.31,-191.8"/>
</g>
<!-- n14 -->
<g id="node15" class="node">
<title>n14</title>
<ellipse fill="none" stroke="black" cx="1160.97" cy="-37.48" rx="185.94" ry="37.45"/>
<text text-anchor="middle" x="1160.97" y="-48.78" font-family="Times,serif" font-size="14.00">Andalucía</text>
<text text-anchor="middle" x="1160.97" y="-33.78" font-family="Times,serif" font-size="14.00">np00000 (pobj)</text>
<text text-anchor="middle" x="1160.97" y="-18.78" font-family="Times,serif" font-size="14.00">rep=no, t=no, r=no, m=yes, c=no</text>
</g>
<!-- n13&#45;&gt;n14 -->
<g id="edge14" class="edge">
<title>n13&#45;&gt;n14</title>
<path fill="none" stroke="black" d="M1160.97,-110.85C1160.97,-102.67 1160.97,-93.89 1160.97,-85.37"/>
<polygon fill="black" stroke="black" points="1164.47,-85.15 1160.97,-75.15 1157.47,-85.15 1164.47,-85.15"/>
</g>
</g>
</svg>
