<?xml version="1.0" encoding="UTF-8" standalone="no"?>
<!DOCTYPE svg PUBLIC "-//W3C//DTD SVG 1.1//EN"
 "http://www.w3.org/Graphics/SVG/1.1/DTD/svg11.dtd">
<!-- Generated by graphviz version 2.43.0 (0)
 -->
<!-- Title: tree Pages: 1 -->
<svg width="2713pt" height="638pt"
 viewBox="0.00 0.00 2712.70 637.72" xmlns="http://www.w3.org/2000/svg" xmlns:xlink="http://www.w3.org/1999/xlink">
<g id="graph0" class="graph" transform="scale(1 1) rotate(0) translate(4 633.72)">
<title>tree</title>
<polygon fill="white" stroke="transparent" points="-4,4 -4,-633.72 2708.7,-633.72 2708.7,4 -4,4"/>
<!-- n5 -->
<g id="node1" class="node">
<title>n5</title>
<ellipse fill="#DA79E8" stroke="black" cx="1148.73" cy="-592.24" rx="190.84" ry="37.45"/>
<text text-anchor="middle" x="1148.73" y="-603.54" font-family="Times,serif" font-size="14.00">ficha</text>
<text text-anchor="middle" x="1148.73" y="-588.54" font-family="Times,serif" font-size="14.00">vmip3s0 (root)</text>
<text text-anchor="middle" x="1148.73" y="-573.54" font-family="Times,serif" font-size="14.00">rep=no, t=no, r=yes, m=yes, c=no</text>
</g>
<!-- n1 -->
<g id="node2" class="node">
<title>n1</title>
<ellipse fill="none" stroke="black" cx="181.73" cy="-481.29" rx="181.95" ry="37.45"/>
<text text-anchor="middle" x="181.73" y="-492.59" font-family="Times,serif" font-size="14.00">&#45;</text>
<text text-anchor="middle" x="181.73" y="-477.59" font-family="Times,serif" font-size="14.00">fg (punct)</text>
<text text-anchor="middle" x="181.73" y="-462.59" font-family="Times,serif" font-size="14.00">rep=no, t=no, r=no, m=no, c=no</text>
</g>
<!-- n5&#45;&gt;n1 -->
<g id="edge1" class="edge">
<title>n5&#45;&gt;n1</title>
<path fill="none" stroke="black" d="M969.16,-579.44C811.3,-567.89 575.6,-547.78 371.73,-518.77 354.26,-516.28 335.96,-513.28 317.91,-510.08"/>
<polygon fill="black" stroke="black" points="318.38,-506.61 307.92,-508.28 317.14,-513.5 318.38,-506.61"/>
</g>
<!-- n2 -->
<g id="node3" class="node">
<title>n2</title>
<ellipse fill="none" stroke="black" cx="562.73" cy="-481.29" rx="181.95" ry="37.45"/>
<text text-anchor="middle" x="562.73" y="-492.59" font-family="Times,serif" font-size="14.00">&#45;</text>
<text text-anchor="middle" x="562.73" y="-477.59" font-family="Times,serif" font-size="14.00">fg (punct)</text>
<text text-anchor="middle" x="562.73" y="-462.59" font-family="Times,serif" font-size="14.00">rep=no, t=no, r=no, m=no, c=no</text>
</g>
<!-- n5&#45;&gt;n2 -->
<g id="edge2" class="edge">
<title>n5&#45;&gt;n2</title>
<path fill="none" stroke="black" d="M1011.12,-566.25C935.19,-552.39 839.22,-534.77 753.73,-518.77 737.43,-515.72 720.36,-512.49 703.4,-509.28"/>
<polygon fill="black" stroke="black" points="703.92,-505.81 693.44,-507.38 702.62,-512.69 703.92,-505.81"/>
</g>
<!-- n3 -->
<g id="node4" class="node">
<title>n3</title>
<ellipse fill="#BEDA48" stroke="black" cx="953.73" cy="-481.29" rx="190.84" ry="37.45"/>
<text text-anchor="middle" x="953.73" y="-492.59" font-family="Times,serif" font-size="14.00">Aznar</text>
<text text-anchor="middle" x="953.73" y="-477.59" font-family="Times,serif" font-size="14.00">np00000 (nsubj)</text>
<text text-anchor="middle" x="953.73" y="-462.59" font-family="Times,serif" font-size="14.00">rep=no, t=yes, r=no, m=yes, c=no</text>
</g>
<!-- n5&#45;&gt;n3 -->
<g id="edge3" class="edge">
<title>n5&#45;&gt;n3</title>
<path fill="none" stroke="black" d="M1087.03,-556.77C1067.2,-545.69 1045.08,-533.33 1024.64,-521.91"/>
<polygon fill="black" stroke="black" points="1026.13,-518.74 1015.69,-516.91 1022.72,-524.85 1026.13,-518.74"/>
</g>
<!-- n4 -->
<g id="node5" class="node">
<title>n4</title>
<ellipse fill="none" stroke="black" cx="1344.73" cy="-481.29" rx="181.95" ry="37.45"/>
<text text-anchor="middle" x="1344.73" y="-492.59" font-family="Times,serif" font-size="14.00">sólo</text>
<text text-anchor="middle" x="1344.73" y="-477.59" font-family="Times,serif" font-size="14.00">rg (advmod)</text>
<text text-anchor="middle" x="1344.73" y="-462.59" font-family="Times,serif" font-size="14.00">rep=no, t=no, r=no, m=no, c=no</text>
</g>
<!-- n5&#45;&gt;n4 -->
<g id="edge4" class="edge">
<title>n5&#45;&gt;n4</title>
<path fill="none" stroke="black" d="M1210.74,-556.77C1230.86,-545.59 1253.33,-533.1 1274.03,-521.59"/>
<polygon fill="black" stroke="black" points="1275.74,-524.64 1282.78,-516.73 1272.34,-518.53 1275.74,-524.64"/>
</g>
<!-- n6 -->
<g id="node6" class="node">
<title>n6</title>
<ellipse fill="#DA79E8" stroke="black" cx="1735.73" cy="-481.29" rx="190.84" ry="37.45"/>
<text text-anchor="middle" x="1735.73" y="-492.59" font-family="Times,serif" font-size="14.00">ministros</text>
<text text-anchor="middle" x="1735.73" y="-477.59" font-family="Times,serif" font-size="14.00">ncmp000 (dobj)</text>
<text text-anchor="middle" x="1735.73" y="-462.59" font-family="Times,serif" font-size="14.00">rep=no, t=no, r=yes, m=yes, c=no</text>
</g>
<!-- n5&#45;&gt;n6 -->
<g id="edge5" class="edge">
<title>n5&#45;&gt;n6</title>
<path fill="none" stroke="black" d="M1285.24,-565.9C1376.42,-548.98 1496.25,-526.74 1589.4,-509.45"/>
<polygon fill="black" stroke="black" points="1590.28,-512.85 1599.47,-507.58 1589,-505.96 1590.28,-512.85"/>
</g>
<!-- n15 -->
<g id="node7" class="node">
<title>n15</title>
<ellipse fill="none" stroke="black" cx="2126.73" cy="-481.29" rx="181.95" ry="37.45"/>
<text text-anchor="middle" x="2126.73" y="-492.59" font-family="Times,serif" font-size="14.00">.</text>
<text text-anchor="middle" x="2126.73" y="-477.59" font-family="Times,serif" font-size="14.00">fp (punct)</text>
<text text-anchor="middle" x="2126.73" y="-462.59" font-family="Times,serif" font-size="14.00">rep=no, t=no, r=no, m=no, c=no</text>
</g>
<!-- n5&#45;&gt;n15 -->
<g id="edge6" class="edge">
<title>n5&#45;&gt;n15</title>
<path fill="none" stroke="black" d="M1328.64,-579.66C1488.52,-568.17 1728.37,-548.05 1935.73,-518.77 1953.35,-516.28 1971.82,-513.27 1990.04,-510.05"/>
<polygon fill="black" stroke="black" points="1990.9,-513.46 2000.13,-508.25 1989.67,-506.56 1990.9,-513.46"/>
</g>
<!-- n7 -->
<g id="node8" class="node">
<title>n7</title>
<ellipse fill="#DA79E8" stroke="black" cx="1538.73" cy="-370.34" rx="190.84" ry="37.45"/>
<text text-anchor="middle" x="1538.73" y="-381.64" font-family="Times,serif" font-size="14.00">catalanes</text>
<text text-anchor="middle" x="1538.73" y="-366.64" font-family="Times,serif" font-size="14.00">aq0mp0 (amod)</text>
<text text-anchor="middle" x="1538.73" y="-351.64" font-family="Times,serif" font-size="14.00">rep=no, t=no, r=yes, m=yes, c=no</text>
</g>
<!-- n6&#45;&gt;n7 -->
<g id="edge7" class="edge">
<title>n6&#45;&gt;n7</title>
<path fill="none" stroke="black" d="M1673.39,-445.82C1653.17,-434.63 1630.59,-422.14 1609.79,-410.64"/>
<polygon fill="black" stroke="black" points="1611.44,-407.55 1600.99,-405.77 1608.05,-413.68 1611.44,-407.55"/>
</g>
<!-- n10 -->
<g id="node9" class="node">
<title>n10</title>
<ellipse fill="none" stroke="black" cx="1933.73" cy="-370.34" rx="185.94" ry="37.45"/>
<text text-anchor="middle" x="1933.73" y="-381.64" font-family="Times,serif" font-size="14.00">militan</text>
<text text-anchor="middle" x="1933.73" y="-366.64" font-family="Times,serif" font-size="14.00">vmip3p0 (rcmod)</text>
<text text-anchor="middle" x="1933.73" y="-351.64" font-family="Times,serif" font-size="14.00">rep=no, t=no, r=no, m=yes, c=no</text>
</g>
<!-- n6&#45;&gt;n10 -->
<g id="edge8" class="edge">
<title>n6&#45;&gt;n10</title>
<path fill="none" stroke="black" d="M1798.37,-445.82C1818.7,-434.63 1841.39,-422.14 1862.31,-410.64"/>
<polygon fill="black" stroke="black" points="1864.07,-413.66 1871.15,-405.77 1860.7,-407.53 1864.07,-413.66"/>
</g>
<!-- n8 -->
<g id="node10" class="node">
<title>n8</title>
<ellipse fill="none" stroke="black" cx="1543.73" cy="-259.38" rx="185.94" ry="37.45"/>
<text text-anchor="middle" x="1543.73" y="-270.68" font-family="Times,serif" font-size="14.00">que</text>
<text text-anchor="middle" x="1543.73" y="-255.68" font-family="Times,serif" font-size="14.00">pr0cn000 (nsubj)</text>
<text text-anchor="middle" x="1543.73" y="-240.68" font-family="Times,serif" font-size="14.00">rep=no, t=no, r=no, m=yes, c=no</text>
</g>
<!-- n10&#45;&gt;n8 -->
<g id="edge9" class="edge">
<title>n10&#45;&gt;n8</title>
<path fill="none" stroke="black" d="M1827.16,-339.56C1775.35,-325.09 1712.98,-307.67 1659.95,-292.85"/>
<polygon fill="black" stroke="black" points="1660.74,-289.44 1650.17,-290.12 1658.86,-296.18 1660.74,-289.44"/>
</g>
<!-- n9 -->
<g id="node11" class="node">
<title>n9</title>
<ellipse fill="none" stroke="black" cx="1933.73" cy="-259.38" rx="185.94" ry="37.45"/>
<text text-anchor="middle" x="1933.73" y="-270.68" font-family="Times,serif" font-size="14.00">no</text>
<text text-anchor="middle" x="1933.73" y="-255.68" font-family="Times,serif" font-size="14.00">rn (neg)</text>
<text text-anchor="middle" x="1933.73" y="-240.68" font-family="Times,serif" font-size="14.00">rep=no, t=no, r=no, m=yes, c=no</text>
</g>
<!-- n10&#45;&gt;n9 -->
<g id="edge10" class="edge">
<title>n10&#45;&gt;n9</title>
<path fill="none" stroke="black" d="M1933.73,-332.75C1933.73,-324.58 1933.73,-315.8 1933.73,-307.27"/>
<polygon fill="black" stroke="black" points="1937.23,-307.06 1933.73,-297.06 1930.23,-307.06 1937.23,-307.06"/>
</g>
<!-- n11 -->
<g id="node12" class="node">
<title>n11</title>
<ellipse fill="none" stroke="black" cx="2323.73" cy="-259.38" rx="185.94" ry="37.45"/>
<text text-anchor="middle" x="2323.73" y="-270.68" font-family="Times,serif" font-size="14.00">en</text>
<text text-anchor="middle" x="2323.73" y="-255.68" font-family="Times,serif" font-size="14.00">sps00 (prepv)</text>
<text text-anchor="middle" x="2323.73" y="-240.68" font-family="Times,serif" font-size="14.00">rep=no, t=no, r=no, m=yes, c=no</text>
</g>
<!-- n10&#45;&gt;n11 -->
<g id="edge11" class="edge">
<title>n10&#45;&gt;n11</title>
<path fill="none" stroke="black" d="M2040.3,-339.56C2092.1,-325.09 2154.47,-307.67 2207.5,-292.85"/>
<polygon fill="black" stroke="black" points="2208.6,-296.18 2217.29,-290.12 2206.71,-289.44 2208.6,-296.18"/>
</g>
<!-- n13 -->
<g id="node13" class="node">
<title>n13</title>
<ellipse fill="none" stroke="black" cx="2323.73" cy="-148.43" rx="185.94" ry="37.45"/>
<text text-anchor="middle" x="2323.73" y="-159.73" font-family="Times,serif" font-size="14.00">PP</text>
<text text-anchor="middle" x="2323.73" y="-144.73" font-family="Times,serif" font-size="14.00">np00000 (pobj)</text>
<text text-anchor="middle" x="2323.73" y="-129.73" font-family="Times,serif" font-size="14.00">rep=no, t=no, r=no, m=yes, c=no</text>
</g>
<!-- n11&#45;&gt;n13 -->
<g id="edge12" class="edge">
<title>n11&#45;&gt;n13</title>
<path fill="none" stroke="black" d="M2323.73,-221.8C2323.73,-213.63 2323.73,-204.85 2323.73,-196.32"/>
<polygon fill="black" stroke="black" points="2327.23,-196.1 2323.73,-186.1 2320.23,-196.1 2327.23,-196.1"/>
</g>
<!-- n12 -->
<g id="node14" class="node">
<title>n12</title>
<ellipse fill="none" stroke="black" cx="2128.73" cy="-37.48" rx="185.94" ry="37.45"/>
<text text-anchor="middle" x="2128.73" y="-48.78" font-family="Times,serif" font-size="14.00">el</text>
<text text-anchor="middle" x="2128.73" y="-33.78" font-family="Times,serif" font-size="14.00">da0ms0 (det)</text>
<text text-anchor="middle" x="2128.73" y="-18.78" font-family="Times,serif" font-size="14.00">rep=no, t=no, r=no, m=yes, c=no</text>
</g>
<!-- n13&#45;&gt;n12 -->
<g id="edge13" class="edge">
<title>n13&#45;&gt;n12</title>
<path fill="none" stroke="black" d="M2262.03,-112.96C2242.1,-101.82 2219.86,-89.4 2199.34,-77.93"/>
<polygon fill="black" stroke="black" points="2200.8,-74.74 2190.36,-72.91 2197.38,-80.85 2200.8,-74.74"/>
</g>
<!-- n14 -->
<g id="node15" class="node">
<title>n14</title>
<ellipse fill="none" stroke="black" cx="2518.73" cy="-37.48" rx="185.94" ry="37.45"/>
<text text-anchor="middle" x="2518.73" y="-48.78" font-family="Times,serif" font-size="14.00">catalán</text>
<text text-anchor="middle" x="2518.73" y="-33.78" font-family="Times,serif" font-size="14.00">aq0ms0 (amod)</text>
<text text-anchor="middle" x="2518.73" y="-18.78" font-family="Times,serif" font-size="14.00">rep=no, t=no, r=no, m=yes, c=no</text>
</g>
<!-- n13&#45;&gt;n14 -->
<g id="edge14" class="edge">
<title>n13&#45;&gt;n14</title>
<path fill="none" stroke="black" d="M2385.43,-112.96C2405.35,-101.82 2427.59,-89.4 2448.11,-77.93"/>
<polygon fill="black" stroke="black" points="2450.07,-80.85 2457.09,-72.91 2446.66,-74.74 2450.07,-80.85"/>
</g>
</g>
</svg>
