<?xml version="1.0" encoding="UTF-8" standalone="no"?>
<!DOCTYPE svg PUBLIC "-//W3C//DTD SVG 1.1//EN"
 "http://www.w3.org/Graphics/SVG/1.1/DTD/svg11.dtd">
<!-- Generated by graphviz version 2.43.0 (0)
 -->
<!-- Title: tree Pages: 1 -->
<svg width="1934pt" height="971pt"
 viewBox="0.00 0.00 1933.65 970.58" xmlns="http://www.w3.org/2000/svg" xmlns:xlink="http://www.w3.org/1999/xlink">
<g id="graph0" class="graph" transform="scale(1 1) rotate(0) translate(4 966.58)">
<title>tree</title>
<polygon fill="white" stroke="transparent" points="-4,4 -4,-966.58 1929.65,-966.58 1929.65,4 -4,4"/>
<!-- n2 -->
<g id="node1" class="node">
<title>n2</title>
<ellipse fill="#DA79E8" stroke="black" cx="981.92" cy="-925.1" rx="190.84" ry="37.45"/>
<text text-anchor="middle" x="981.92" y="-936.4" font-family="Times,serif" font-size="14.00">reiteramos</text>
<text text-anchor="middle" x="981.92" y="-921.4" font-family="Times,serif" font-size="14.00">vmip1p0 (root)</text>
<text text-anchor="middle" x="981.92" y="-906.4" font-family="Times,serif" font-size="14.00">rep=no, t=no, r=yes, m=yes, c=no</text>
</g>
<!-- n1 -->
<g id="node2" class="node">
<title>n1</title>
<ellipse fill="#BEDA48" stroke="black" cx="190.92" cy="-814.15" rx="190.84" ry="37.45"/>
<text text-anchor="middle" x="190.92" y="-825.45" font-family="Times,serif" font-size="14.00">Nosotros</text>
<text text-anchor="middle" x="190.92" y="-810.45" font-family="Times,serif" font-size="14.00">pp1mp000 (nsubj)</text>
<text text-anchor="middle" x="190.92" y="-795.45" font-family="Times,serif" font-size="14.00">rep=no, t=yes, r=no, m=yes, c=no</text>
</g>
<!-- n2&#45;&gt;n1 -->
<g id="edge1" class="edge">
<title>n2&#45;&gt;n1</title>
<path fill="none" stroke="black" d="M816.3,-906.41C697.62,-893.09 534.12,-873.45 390.92,-851.63 372.95,-848.89 354.12,-845.78 335.5,-842.55"/>
<polygon fill="black" stroke="black" points="335.94,-839.07 325.48,-840.8 334.73,-845.97 335.94,-839.07"/>
</g>
<!-- n4 -->
<g id="node3" class="node">
<title>n4</title>
<ellipse fill="#DA79E8" stroke="black" cx="590.92" cy="-814.15" rx="190.84" ry="37.45"/>
<text text-anchor="middle" x="590.92" y="-825.45" font-family="Times,serif" font-size="14.00">apuesta</text>
<text text-anchor="middle" x="590.92" y="-810.45" font-family="Times,serif" font-size="14.00">ncfs000 (dobj)</text>
<text text-anchor="middle" x="590.92" y="-795.45" font-family="Times,serif" font-size="14.00">rep=no, t=no, r=yes, m=yes, c=no</text>
</g>
<!-- n2&#45;&gt;n4 -->
<g id="edge2" class="edge">
<title>n2&#45;&gt;n4</title>
<path fill="none" stroke="black" d="M874.3,-894.11C822.8,-879.76 761.02,-862.55 708.31,-847.86"/>
<polygon fill="black" stroke="black" points="709.15,-844.46 698.58,-845.15 707.27,-851.21 709.15,-844.46"/>
</g>
<!-- n8 -->
<g id="node4" class="node">
<title>n8</title>
<ellipse fill="none" stroke="black" cx="981.92" cy="-814.15" rx="181.95" ry="37.45"/>
<text text-anchor="middle" x="981.92" y="-825.45" font-family="Times,serif" font-size="14.00">,</text>
<text text-anchor="middle" x="981.92" y="-810.45" font-family="Times,serif" font-size="14.00">fc (punct)</text>
<text text-anchor="middle" x="981.92" y="-795.45" font-family="Times,serif" font-size="14.00">rep=no, t=no, r=no, m=no, c=no</text>
</g>
<!-- n2&#45;&gt;n8 -->
<g id="edge3" class="edge">
<title>n2&#45;&gt;n8</title>
<path fill="none" stroke="black" d="M981.92,-887.52C981.92,-879.35 981.92,-870.57 981.92,-862.04"/>
<polygon fill="black" stroke="black" points="985.42,-861.82 981.92,-851.82 978.42,-861.82 985.42,-861.82"/>
</g>
<!-- n9 -->
<g id="node5" class="node">
<title>n9</title>
<ellipse fill="none" stroke="black" cx="1362.92" cy="-814.15" rx="181.95" ry="37.45"/>
<text text-anchor="middle" x="1362.92" y="-825.45" font-family="Times,serif" font-size="14.00">a</text>
<text text-anchor="middle" x="1362.92" y="-810.45" font-family="Times,serif" font-size="14.00">sps00 (prepv)</text>
<text text-anchor="middle" x="1362.92" y="-795.45" font-family="Times,serif" font-size="14.00">rep=no, t=no, r=no, m=no, c=no</text>
</g>
<!-- n2&#45;&gt;n9 -->
<g id="edge4" class="edge">
<title>n2&#45;&gt;n9</title>
<path fill="none" stroke="black" d="M1087.8,-893.83C1137.96,-879.48 1197.96,-862.32 1249.1,-847.7"/>
<polygon fill="black" stroke="black" points="1250.22,-851.02 1258.87,-844.9 1248.29,-844.29 1250.22,-851.02"/>
</g>
<!-- n18 -->
<g id="node6" class="node">
<title>n18</title>
<ellipse fill="none" stroke="black" cx="1743.92" cy="-814.15" rx="181.95" ry="37.45"/>
<text text-anchor="middle" x="1743.92" y="-825.45" font-family="Times,serif" font-size="14.00">.</text>
<text text-anchor="middle" x="1743.92" y="-810.45" font-family="Times,serif" font-size="14.00">fp (punct)</text>
<text text-anchor="middle" x="1743.92" y="-795.45" font-family="Times,serif" font-size="14.00">rep=no, t=no, r=no, m=no, c=no</text>
</g>
<!-- n2&#45;&gt;n18 -->
<g id="edge5" class="edge">
<title>n2&#45;&gt;n18</title>
<path fill="none" stroke="black" d="M1146.59,-906.05C1261.09,-892.81 1417.13,-873.4 1553.92,-851.63 1570.76,-848.95 1588.4,-845.89 1605.86,-842.72"/>
<polygon fill="black" stroke="black" points="1606.9,-846.09 1616.11,-840.84 1605.64,-839.2 1606.9,-846.09"/>
</g>
<!-- n3 -->
<g id="node7" class="node">
<title>n3</title>
<ellipse fill="#DA79E8" stroke="black" cx="380.92" cy="-703.2" rx="190.84" ry="37.45"/>
<text text-anchor="middle" x="380.92" y="-714.5" font-family="Times,serif" font-size="14.00">nuestra</text>
<text text-anchor="middle" x="380.92" y="-699.5" font-family="Times,serif" font-size="14.00">dp1fsp (poss)</text>
<text text-anchor="middle" x="380.92" y="-684.5" font-family="Times,serif" font-size="14.00">rep=no, t=no, r=yes, m=yes, c=no</text>
</g>
<!-- n4&#45;&gt;n3 -->
<g id="edge6" class="edge">
<title>n4&#45;&gt;n3</title>
<path fill="none" stroke="black" d="M524.76,-778.83C502.99,-767.53 478.63,-754.89 456.24,-743.27"/>
<polygon fill="black" stroke="black" points="457.59,-740.03 447.1,-738.54 454.37,-746.25 457.59,-740.03"/>
</g>
<!-- n5 -->
<g id="node8" class="node">
<title>n5</title>
<ellipse fill="#DA79E8" stroke="black" cx="780.92" cy="-703.2" rx="190.84" ry="37.45"/>
<text text-anchor="middle" x="780.92" y="-714.5" font-family="Times,serif" font-size="14.00">por</text>
<text text-anchor="middle" x="780.92" y="-699.5" font-family="Times,serif" font-size="14.00">sps00 (prepn)</text>
<text text-anchor="middle" x="780.92" y="-684.5" font-family="Times,serif" font-size="14.00">rep=no, t=no, r=yes, m=yes, c=no</text>
</g>
<!-- n4&#45;&gt;n5 -->
<g id="edge7" class="edge">
<title>n4&#45;&gt;n5</title>
<path fill="none" stroke="black" d="M651.3,-778.53C670.43,-767.56 691.72,-755.34 711.44,-744.04"/>
<polygon fill="black" stroke="black" points="713.44,-746.93 720.37,-738.92 709.96,-740.86 713.44,-746.93"/>
</g>
<!-- n10 -->
<g id="node11" class="node">
<title>n10</title>
<ellipse fill="none" stroke="black" cx="1362.92" cy="-703.2" rx="181.95" ry="37.45"/>
<text text-anchor="middle" x="1362.92" y="-714.5" font-family="Times,serif" font-size="14.00">partir</text>
<text text-anchor="middle" x="1362.92" y="-699.5" font-family="Times,serif" font-size="14.00">vmn0000 (pobj)</text>
<text text-anchor="middle" x="1362.92" y="-684.5" font-family="Times,serif" font-size="14.00">rep=no, t=no, r=no, m=no, c=no</text>
</g>
<!-- n9&#45;&gt;n10 -->
<g id="edge10" class="edge">
<title>n9&#45;&gt;n10</title>
<path fill="none" stroke="black" d="M1362.92,-776.57C1362.92,-768.39 1362.92,-759.61 1362.92,-751.09"/>
<polygon fill="black" stroke="black" points="1366.42,-750.87 1362.92,-740.87 1359.42,-750.87 1366.42,-750.87"/>
</g>
<!-- n7 -->
<g id="node9" class="node">
<title>n7</title>
<ellipse fill="#DA79E8" stroke="black" cx="780.92" cy="-592.24" rx="190.84" ry="37.45"/>
<text text-anchor="middle" x="780.92" y="-603.54" font-family="Times,serif" font-size="14.00">estabilidad</text>
<text text-anchor="middle" x="780.92" y="-588.54" font-family="Times,serif" font-size="14.00">ncfs000 (pobj)</text>
<text text-anchor="middle" x="780.92" y="-573.54" font-family="Times,serif" font-size="14.00">rep=no, t=no, r=yes, m=yes, c=no</text>
</g>
<!-- n5&#45;&gt;n7 -->
<g id="edge8" class="edge">
<title>n5&#45;&gt;n7</title>
<path fill="none" stroke="black" d="M780.92,-665.61C780.92,-657.44 780.92,-648.66 780.92,-640.13"/>
<polygon fill="black" stroke="black" points="784.42,-639.92 780.92,-629.92 777.42,-639.92 784.42,-639.92"/>
</g>
<!-- n6 -->
<g id="node10" class="node">
<title>n6</title>
<ellipse fill="#DA79E8" stroke="black" cx="780.92" cy="-481.29" rx="190.84" ry="37.45"/>
<text text-anchor="middle" x="780.92" y="-492.59" font-family="Times,serif" font-size="14.00">la</text>
<text text-anchor="middle" x="780.92" y="-477.59" font-family="Times,serif" font-size="14.00">da0fs0 (det)</text>
<text text-anchor="middle" x="780.92" y="-462.59" font-family="Times,serif" font-size="14.00">rep=no, t=no, r=yes, m=yes, c=no</text>
</g>
<!-- n7&#45;&gt;n6 -->
<g id="edge9" class="edge">
<title>n7&#45;&gt;n6</title>
<path fill="none" stroke="black" d="M780.92,-554.66C780.92,-546.49 780.92,-537.71 780.92,-529.18"/>
<polygon fill="black" stroke="black" points="784.42,-528.96 780.92,-518.96 777.42,-528.96 784.42,-528.96"/>
</g>
<!-- n11 -->
<g id="node12" class="node">
<title>n11</title>
<ellipse fill="none" stroke="black" cx="1362.92" cy="-592.24" rx="181.95" ry="37.45"/>
<text text-anchor="middle" x="1362.92" y="-603.54" font-family="Times,serif" font-size="14.00">del</text>
<text text-anchor="middle" x="1362.92" y="-588.54" font-family="Times,serif" font-size="14.00">sps00 (iobj)</text>
<text text-anchor="middle" x="1362.92" y="-573.54" font-family="Times,serif" font-size="14.00">rep=no, t=no, r=no, m=no, c=no</text>
</g>
<!-- n10&#45;&gt;n11 -->
<g id="edge11" class="edge">
<title>n10&#45;&gt;n11</title>
<path fill="none" stroke="black" d="M1362.92,-665.61C1362.92,-657.44 1362.92,-648.66 1362.92,-640.13"/>
<polygon fill="black" stroke="black" points="1366.42,-639.92 1362.92,-629.92 1359.42,-639.92 1366.42,-639.92"/>
</g>
<!-- n12 -->
<g id="node13" class="node">
<title>n12</title>
<ellipse fill="none" stroke="black" cx="1362.92" cy="-481.29" rx="181.95" ry="37.45"/>
<text text-anchor="middle" x="1362.92" y="-492.59" font-family="Times,serif" font-size="14.00">reconocimiento</text>
<text text-anchor="middle" x="1362.92" y="-477.59" font-family="Times,serif" font-size="14.00">ncms000 (pobj)</text>
<text text-anchor="middle" x="1362.92" y="-462.59" font-family="Times,serif" font-size="14.00">rep=no, t=no, r=no, m=no, c=no</text>
</g>
<!-- n11&#45;&gt;n12 -->
<g id="edge12" class="edge">
<title>n11&#45;&gt;n12</title>
<path fill="none" stroke="black" d="M1362.92,-554.66C1362.92,-546.49 1362.92,-537.71 1362.92,-529.18"/>
<polygon fill="black" stroke="black" points="1366.42,-528.96 1362.92,-518.96 1359.42,-528.96 1366.42,-528.96"/>
</g>
<!-- n13 -->
<g id="node14" class="node">
<title>n13</title>
<ellipse fill="none" stroke="black" cx="1362.92" cy="-370.34" rx="181.95" ry="37.45"/>
<text text-anchor="middle" x="1362.92" y="-381.64" font-family="Times,serif" font-size="14.00">de</text>
<text text-anchor="middle" x="1362.92" y="-366.64" font-family="Times,serif" font-size="14.00">sps00 (prepn)</text>
<text text-anchor="middle" x="1362.92" y="-351.64" font-family="Times,serif" font-size="14.00">rep=no, t=no, r=no, m=no, c=no</text>
</g>
<!-- n12&#45;&gt;n13 -->
<g id="edge13" class="edge">
<title>n12&#45;&gt;n13</title>
<path fill="none" stroke="black" d="M1362.92,-443.71C1362.92,-435.53 1362.92,-426.75 1362.92,-418.23"/>
<polygon fill="black" stroke="black" points="1366.42,-418.01 1362.92,-408.01 1359.42,-418.01 1366.42,-418.01"/>
</g>
<!-- n15 -->
<g id="node15" class="node">
<title>n15</title>
<ellipse fill="none" stroke="black" cx="1362.92" cy="-259.38" rx="181.95" ry="37.45"/>
<text text-anchor="middle" x="1362.92" y="-270.68" font-family="Times,serif" font-size="14.00">capacidad</text>
<text text-anchor="middle" x="1362.92" y="-255.68" font-family="Times,serif" font-size="14.00">ncfs000 (pobj)</text>
<text text-anchor="middle" x="1362.92" y="-240.68" font-family="Times,serif" font-size="14.00">rep=no, t=no, r=no, m=no, c=no</text>
</g>
<!-- n13&#45;&gt;n15 -->
<g id="edge14" class="edge">
<title>n13&#45;&gt;n15</title>
<path fill="none" stroke="black" d="M1362.92,-332.75C1362.92,-324.58 1362.92,-315.8 1362.92,-307.27"/>
<polygon fill="black" stroke="black" points="1366.42,-307.06 1362.92,-297.06 1359.42,-307.06 1366.42,-307.06"/>
</g>
<!-- n14 -->
<g id="node16" class="node">
<title>n14</title>
<ellipse fill="none" stroke="black" cx="1172.92" cy="-148.43" rx="181.95" ry="37.45"/>
<text text-anchor="middle" x="1172.92" y="-159.73" font-family="Times,serif" font-size="14.00">nuestra</text>
<text text-anchor="middle" x="1172.92" y="-144.73" font-family="Times,serif" font-size="14.00">dp1fsp (poss)</text>
<text text-anchor="middle" x="1172.92" y="-129.73" font-family="Times,serif" font-size="14.00">rep=no, t=no, r=no, m=no, c=no</text>
</g>
<!-- n15&#45;&gt;n14 -->
<g id="edge15" class="edge">
<title>n15&#45;&gt;n14</title>
<path fill="none" stroke="black" d="M1302.8,-223.91C1283.39,-212.78 1261.72,-200.35 1241.72,-188.89"/>
<polygon fill="black" stroke="black" points="1243.39,-185.8 1232.97,-183.87 1239.9,-191.88 1243.39,-185.8"/>
</g>
<!-- n16 -->
<g id="node17" class="node">
<title>n16</title>
<ellipse fill="none" stroke="black" cx="1553.92" cy="-148.43" rx="181.95" ry="37.45"/>
<text text-anchor="middle" x="1553.92" y="-159.73" font-family="Times,serif" font-size="14.00">de</text>
<text text-anchor="middle" x="1553.92" y="-144.73" font-family="Times,serif" font-size="14.00">sps00 (prepn)</text>
<text text-anchor="middle" x="1553.92" y="-129.73" font-family="Times,serif" font-size="14.00">rep=no, t=no, r=no, m=no, c=no</text>
</g>
<!-- n15&#45;&gt;n16 -->
<g id="edge16" class="edge">
<title>n15&#45;&gt;n16</title>
<path fill="none" stroke="black" d="M1423.35,-223.91C1442.87,-212.78 1464.65,-200.35 1484.75,-188.89"/>
<polygon fill="black" stroke="black" points="1486.6,-191.86 1493.55,-183.87 1483.13,-185.78 1486.6,-191.86"/>
</g>
<!-- n17 -->
<g id="node18" class="node">
<title>n17</title>
<ellipse fill="none" stroke="black" cx="1553.92" cy="-37.48" rx="181.95" ry="37.45"/>
<text text-anchor="middle" x="1553.92" y="-48.78" font-family="Times,serif" font-size="14.00">influencia</text>
<text text-anchor="middle" x="1553.92" y="-33.78" font-family="Times,serif" font-size="14.00">ncfs000 (pobj)</text>
<text text-anchor="middle" x="1553.92" y="-18.78" font-family="Times,serif" font-size="14.00">rep=no, t=no, r=no, m=no, c=no</text>
</g>
<!-- n16&#45;&gt;n17 -->
<g id="edge17" class="edge">
<title>n16&#45;&gt;n17</title>
<path fill="none" stroke="black" d="M1553.92,-110.85C1553.92,-102.67 1553.92,-93.89 1553.92,-85.37"/>
<polygon fill="black" stroke="black" points="1557.42,-85.15 1553.92,-75.15 1550.42,-85.15 1557.42,-85.15"/>
</g>
</g>
</svg>
