<?xml version="1.0" encoding="UTF-8" standalone="no"?>
<!DOCTYPE svg PUBLIC "-//W3C//DTD SVG 1.1//EN"
 "http://www.w3.org/Graphics/SVG/1.1/DTD/svg11.dtd">
<!-- Generated by graphviz version 2.43.0 (0)
 -->
<!-- Title: tree Pages: 1 -->
<svg width="2298pt" height="1082pt"
 viewBox="0.00 0.00 2297.70 1081.53" xmlns="http://www.w3.org/2000/svg" xmlns:xlink="http://www.w3.org/1999/xlink">
<g id="graph0" class="graph" transform="scale(1 1) rotate(0) translate(4 1077.53)">
<title>tree</title>
<polygon fill="white" stroke="transparent" points="-4,4 -4,-1077.53 2293.7,-1077.53 2293.7,4 -4,4"/>
<!-- n14 -->
<g id="node1" class="node">
<title>n14</title>
<ellipse fill="none" stroke="black" cx="1345.97" cy="-1036.06" rx="185.94" ry="37.45"/>
<text text-anchor="middle" x="1345.97" y="-1047.36" font-family="Times,serif" font-size="14.00">sino</text>
<text text-anchor="middle" x="1345.97" y="-1032.36" font-family="Times,serif" font-size="14.00">cc (root)</text>
<text text-anchor="middle" x="1345.97" y="-1017.36" font-family="Times,serif" font-size="14.00">rep=no, t=no, r=no, m=yes, c=no</text>
</g>
<!-- n3 -->
<g id="node2" class="node">
<title>n3</title>
<ellipse fill="none" stroke="black" cx="576.97" cy="-925.1" rx="185.94" ry="37.45"/>
<text text-anchor="middle" x="576.97" y="-936.4" font-family="Times,serif" font-size="14.00">somos</text>
<text text-anchor="middle" x="576.97" y="-921.4" font-family="Times,serif" font-size="14.00">vsip1p0 (cobj)</text>
<text text-anchor="middle" x="576.97" y="-906.4" font-family="Times,serif" font-size="14.00">rep=no, t=no, r=no, m=yes, c=no</text>
</g>
<!-- n14&#45;&gt;n3 -->
<g id="edge1" class="edge">
<title>n14&#45;&gt;n3</title>
<path fill="none" stroke="black" d="M1185.05,-1017.15C1070.24,-1003.77 912.31,-984.13 773.97,-962.58 756.05,-959.79 737.26,-956.62 718.7,-953.35"/>
<polygon fill="black" stroke="black" points="719.18,-949.88 708.72,-951.57 717.95,-956.77 719.18,-949.88"/>
</g>
<!-- n15 -->
<g id="node3" class="node">
<title>n15</title>
<ellipse fill="none" stroke="black" cx="964.97" cy="-925.1" rx="181.95" ry="37.45"/>
<text text-anchor="middle" x="964.97" y="-936.4" font-family="Times,serif" font-size="14.00">,</text>
<text text-anchor="middle" x="964.97" y="-921.4" font-family="Times,serif" font-size="14.00">fc (punct)</text>
<text text-anchor="middle" x="964.97" y="-906.4" font-family="Times,serif" font-size="14.00">rep=no, t=no, r=no, m=no, c=no</text>
</g>
<!-- n14&#45;&gt;n15 -->
<g id="edge2" class="edge">
<title>n14&#45;&gt;n15</title>
<path fill="none" stroke="black" d="M1241.1,-1005.07C1190.82,-990.69 1130.48,-973.43 1079.05,-958.73"/>
<polygon fill="black" stroke="black" points="1079.79,-955.3 1069.22,-955.91 1077.87,-962.03 1079.79,-955.3"/>
</g>
<!-- n16 -->
<g id="node4" class="node">
<title>n16</title>
<ellipse fill="none" stroke="black" cx="1345.97" cy="-925.1" rx="181.95" ry="37.45"/>
<text text-anchor="middle" x="1345.97" y="-936.4" font-family="Times,serif" font-size="14.00">fundamentalmente</text>
<text text-anchor="middle" x="1345.97" y="-921.4" font-family="Times,serif" font-size="14.00">rg (advmod)</text>
<text text-anchor="middle" x="1345.97" y="-906.4" font-family="Times,serif" font-size="14.00">rep=no, t=no, r=no, m=no, c=no</text>
</g>
<!-- n14&#45;&gt;n16 -->
<g id="edge3" class="edge">
<title>n14&#45;&gt;n16</title>
<path fill="none" stroke="black" d="M1345.97,-998.47C1345.97,-990.3 1345.97,-981.52 1345.97,-972.99"/>
<polygon fill="black" stroke="black" points="1349.47,-972.78 1345.97,-962.78 1342.47,-972.78 1349.47,-972.78"/>
</g>
<!-- n17 -->
<g id="node5" class="node">
<title>n17</title>
<ellipse fill="none" stroke="black" cx="1726.97" cy="-925.1" rx="181.95" ry="37.45"/>
<text text-anchor="middle" x="1726.97" y="-936.4" font-family="Times,serif" font-size="14.00">,</text>
<text text-anchor="middle" x="1726.97" y="-921.4" font-family="Times,serif" font-size="14.00">fc (punct)</text>
<text text-anchor="middle" x="1726.97" y="-906.4" font-family="Times,serif" font-size="14.00">rep=no, t=no, r=no, m=no, c=no</text>
</g>
<!-- n14&#45;&gt;n17 -->
<g id="edge4" class="edge">
<title>n14&#45;&gt;n17</title>
<path fill="none" stroke="black" d="M1450.84,-1005.07C1501.12,-990.69 1561.46,-973.43 1612.89,-958.73"/>
<polygon fill="black" stroke="black" points="1614.07,-962.03 1622.72,-955.91 1612.14,-955.3 1614.07,-962.03"/>
</g>
<!-- n25 -->
<g id="node6" class="node">
<title>n25</title>
<ellipse fill="none" stroke="black" cx="2107.97" cy="-925.1" rx="181.95" ry="37.45"/>
<text text-anchor="middle" x="2107.97" y="-936.4" font-family="Times,serif" font-size="14.00">.</text>
<text text-anchor="middle" x="2107.97" y="-921.4" font-family="Times,serif" font-size="14.00">fp (punct)</text>
<text text-anchor="middle" x="2107.97" y="-906.4" font-family="Times,serif" font-size="14.00">rep=no, t=no, r=no, m=no, c=no</text>
</g>
<!-- n14&#45;&gt;n25 -->
<g id="edge5" class="edge">
<title>n14&#45;&gt;n25</title>
<path fill="none" stroke="black" d="M1507.54,-1017.36C1622.32,-1004.12 1779.94,-984.55 1917.97,-962.58 1934.81,-959.9 1952.45,-956.85 1969.91,-953.67"/>
<polygon fill="black" stroke="black" points="1970.95,-957.04 1980.16,-951.79 1969.69,-950.16 1970.95,-957.04"/>
</g>
<!-- n2 -->
<g id="node7" class="node">
<title>n2</title>
<ellipse fill="none" stroke="black" cx="186.97" cy="-814.15" rx="185.94" ry="37.45"/>
<text text-anchor="middle" x="186.97" y="-825.45" font-family="Times,serif" font-size="14.00">sólo</text>
<text text-anchor="middle" x="186.97" y="-810.45" font-family="Times,serif" font-size="14.00">rg (advmod)</text>
<text text-anchor="middle" x="186.97" y="-795.45" font-family="Times,serif" font-size="14.00">rep=no, t=no, r=no, m=yes, c=no</text>
</g>
<!-- n3&#45;&gt;n2 -->
<g id="edge6" class="edge">
<title>n3&#45;&gt;n2</title>
<path fill="none" stroke="black" d="M470.4,-894.33C418.59,-879.86 356.23,-862.43 303.2,-847.62"/>
<polygon fill="black" stroke="black" points="303.98,-844.21 293.41,-844.89 302.1,-850.95 303.98,-844.21"/>
</g>
<!-- n5 -->
<g id="node8" class="node">
<title>n5</title>
<ellipse fill="none" stroke="black" cx="576.97" cy="-814.15" rx="185.94" ry="37.45"/>
<text text-anchor="middle" x="576.97" y="-825.45" font-family="Times,serif" font-size="14.00">proyecto</text>
<text text-anchor="middle" x="576.97" y="-810.45" font-family="Times,serif" font-size="14.00">ncms000 (attr)</text>
<text text-anchor="middle" x="576.97" y="-795.45" font-family="Times,serif" font-size="14.00">rep=no, t=no, r=no, m=yes, c=no</text>
</g>
<!-- n3&#45;&gt;n5 -->
<g id="edge7" class="edge">
<title>n3&#45;&gt;n5</title>
<path fill="none" stroke="black" d="M576.97,-887.52C576.97,-879.35 576.97,-870.57 576.97,-862.04"/>
<polygon fill="black" stroke="black" points="580.47,-861.82 576.97,-851.82 573.47,-861.82 580.47,-861.82"/>
</g>
<!-- n18 -->
<g id="node19" class="node">
<title>n18</title>
<ellipse fill="none" stroke="black" cx="1349.97" cy="-814.15" rx="181.95" ry="37.45"/>
<text text-anchor="middle" x="1349.97" y="-825.45" font-family="Times,serif" font-size="14.00">a</text>
<text text-anchor="middle" x="1349.97" y="-810.45" font-family="Times,serif" font-size="14.00">sps00 (prep)</text>
<text text-anchor="middle" x="1349.97" y="-795.45" font-family="Times,serif" font-size="14.00">rep=no, t=no, r=no, m=no, c=no</text>
</g>
<!-- n16&#45;&gt;n18 -->
<g id="edge18" class="edge">
<title>n16&#45;&gt;n18</title>
<path fill="none" stroke="black" d="M1347.31,-887.52C1347.61,-879.35 1347.93,-870.57 1348.25,-862.04"/>
<polygon fill="black" stroke="black" points="1351.75,-861.94 1348.62,-851.82 1344.76,-861.69 1351.75,-861.94"/>
</g>
<!-- n1 -->
<g id="node9" class="node">
<title>n1</title>
<ellipse fill="none" stroke="black" cx="185.97" cy="-703.2" rx="185.94" ry="37.45"/>
<text text-anchor="middle" x="185.97" y="-714.5" font-family="Times,serif" font-size="14.00">No</text>
<text text-anchor="middle" x="185.97" y="-699.5" font-family="Times,serif" font-size="14.00">rn (neg)</text>
<text text-anchor="middle" x="185.97" y="-684.5" font-family="Times,serif" font-size="14.00">rep=no, t=no, r=no, m=yes, c=no</text>
</g>
<!-- n2&#45;&gt;n1 -->
<g id="edge8" class="edge">
<title>n2&#45;&gt;n1</title>
<path fill="none" stroke="black" d="M186.63,-776.57C186.56,-768.39 186.48,-759.61 186.4,-751.09"/>
<polygon fill="black" stroke="black" points="189.9,-750.84 186.31,-740.87 182.9,-750.9 189.9,-750.84"/>
</g>
<!-- n4 -->
<g id="node10" class="node">
<title>n4</title>
<ellipse fill="none" stroke="black" cx="575.97" cy="-703.2" rx="185.94" ry="37.45"/>
<text text-anchor="middle" x="575.97" y="-714.5" font-family="Times,serif" font-size="14.00">un</text>
<text text-anchor="middle" x="575.97" y="-699.5" font-family="Times,serif" font-size="14.00">di0ms0 (det)</text>
<text text-anchor="middle" x="575.97" y="-684.5" font-family="Times,serif" font-size="14.00">rep=no, t=no, r=no, m=yes, c=no</text>
</g>
<!-- n5&#45;&gt;n4 -->
<g id="edge9" class="edge">
<title>n5&#45;&gt;n4</title>
<path fill="none" stroke="black" d="M576.63,-776.57C576.56,-768.39 576.48,-759.61 576.4,-751.09"/>
<polygon fill="black" stroke="black" points="579.9,-750.84 576.31,-740.87 572.9,-750.9 579.9,-750.84"/>
</g>
<!-- n6 -->
<g id="node11" class="node">
<title>n6</title>
<ellipse fill="none" stroke="black" cx="965.97" cy="-703.2" rx="185.94" ry="37.45"/>
<text text-anchor="middle" x="965.97" y="-714.5" font-family="Times,serif" font-size="14.00">abierto</text>
<text text-anchor="middle" x="965.97" y="-699.5" font-family="Times,serif" font-size="14.00">aq0msp (amod)</text>
<text text-anchor="middle" x="965.97" y="-684.5" font-family="Times,serif" font-size="14.00">rep=no, t=no, r=no, m=yes, c=no</text>
</g>
<!-- n5&#45;&gt;n6 -->
<g id="edge10" class="edge">
<title>n5&#45;&gt;n6</title>
<path fill="none" stroke="black" d="M683.27,-783.38C734.83,-768.93 796.89,-751.55 849.71,-736.76"/>
<polygon fill="black" stroke="black" points="850.78,-740.09 859.46,-734.03 848.89,-733.35 850.78,-740.09"/>
</g>
<!-- n7 -->
<g id="node12" class="node">
<title>n7</title>
<ellipse fill="none" stroke="black" cx="965.97" cy="-592.24" rx="185.94" ry="37.45"/>
<text text-anchor="middle" x="965.97" y="-603.54" font-family="Times,serif" font-size="14.00">a</text>
<text text-anchor="middle" x="965.97" y="-588.54" font-family="Times,serif" font-size="14.00">sps00 (iobj)</text>
<text text-anchor="middle" x="965.97" y="-573.54" font-family="Times,serif" font-size="14.00">rep=no, t=no, r=no, m=yes, c=no</text>
</g>
<!-- n6&#45;&gt;n7 -->
<g id="edge11" class="edge">
<title>n6&#45;&gt;n7</title>
<path fill="none" stroke="black" d="M965.97,-665.61C965.97,-657.44 965.97,-648.66 965.97,-640.13"/>
<polygon fill="black" stroke="black" points="969.47,-639.92 965.97,-629.92 962.47,-639.92 969.47,-639.92"/>
</g>
<!-- n8 -->
<g id="node13" class="node">
<title>n8</title>
<ellipse fill="none" stroke="black" cx="965.97" cy="-481.29" rx="185.94" ry="37.45"/>
<text text-anchor="middle" x="965.97" y="-492.59" font-family="Times,serif" font-size="14.00">sectores</text>
<text text-anchor="middle" x="965.97" y="-477.59" font-family="Times,serif" font-size="14.00">ncmp000 (pobj)</text>
<text text-anchor="middle" x="965.97" y="-462.59" font-family="Times,serif" font-size="14.00">rep=no, t=no, r=no, m=yes, c=no</text>
</g>
<!-- n7&#45;&gt;n8 -->
<g id="edge12" class="edge">
<title>n7&#45;&gt;n8</title>
<path fill="none" stroke="black" d="M965.97,-554.66C965.97,-546.49 965.97,-537.71 965.97,-529.18"/>
<polygon fill="black" stroke="black" points="969.47,-528.96 965.97,-518.96 962.47,-528.96 969.47,-528.96"/>
</g>
<!-- n10 -->
<g id="node14" class="node">
<title>n10</title>
<ellipse fill="#DA79E8" stroke="black" cx="965.97" cy="-370.34" rx="190.84" ry="37.45"/>
<text text-anchor="middle" x="965.97" y="-381.64" font-family="Times,serif" font-size="14.00">habían</text>
<text text-anchor="middle" x="965.97" y="-366.64" font-family="Times,serif" font-size="14.00">vaii3p0 (rcmod)</text>
<text text-anchor="middle" x="965.97" y="-351.64" font-family="Times,serif" font-size="14.00">rep=no, t=no, r=yes, m=yes, c=no</text>
</g>
<!-- n8&#45;&gt;n10 -->
<g id="edge13" class="edge">
<title>n8&#45;&gt;n10</title>
<path fill="none" stroke="black" d="M965.97,-443.71C965.97,-435.53 965.97,-426.75 965.97,-418.23"/>
<polygon fill="black" stroke="black" points="969.47,-418.01 965.97,-408.01 962.47,-418.01 969.47,-418.01"/>
</g>
<!-- n9 -->
<g id="node15" class="node">
<title>n9</title>
<ellipse fill="#BEDA48" stroke="black" cx="753.97" cy="-259.38" rx="190.84" ry="37.45"/>
<text text-anchor="middle" x="753.97" y="-270.68" font-family="Times,serif" font-size="14.00">que</text>
<text text-anchor="middle" x="753.97" y="-255.68" font-family="Times,serif" font-size="14.00">pr0cn000 (nsubj)</text>
<text text-anchor="middle" x="753.97" y="-240.68" font-family="Times,serif" font-size="14.00">rep=no, t=yes, r=no, m=yes, c=no</text>
</g>
<!-- n10&#45;&gt;n9 -->
<g id="edge14" class="edge">
<title>n10&#45;&gt;n9</title>
<path fill="none" stroke="black" d="M899.47,-335.16C877.28,-323.76 852.4,-310.97 829.57,-299.23"/>
<polygon fill="black" stroke="black" points="831.09,-296.08 820.59,-294.62 827.89,-302.31 831.09,-296.08"/>
</g>
<!-- n11 -->
<g id="node16" class="node">
<title>n11</title>
<ellipse fill="#DA79E8" stroke="black" cx="1153.97" cy="-259.38" rx="190.84" ry="37.45"/>
<text text-anchor="middle" x="1153.97" y="-270.68" font-family="Times,serif" font-size="14.00">respaldado</text>
<text text-anchor="middle" x="1153.97" y="-255.68" font-family="Times,serif" font-size="14.00">vmp00sm (vobj)</text>
<text text-anchor="middle" x="1153.97" y="-240.68" font-family="Times,serif" font-size="14.00">rep=no, t=no, r=yes, m=yes, c=no</text>
</g>
<!-- n10&#45;&gt;n11 -->
<g id="edge15" class="edge">
<title>n10&#45;&gt;n11</title>
<path fill="none" stroke="black" d="M1025.71,-334.71C1044.64,-323.74 1065.71,-311.53 1085.22,-300.23"/>
<polygon fill="black" stroke="black" points="1087.16,-303.15 1094.06,-295.1 1083.65,-297.09 1087.16,-303.15"/>
</g>
<!-- n12 -->
<g id="node17" class="node">
<title>n12</title>
<ellipse fill="#DA79E8" stroke="black" cx="1153.97" cy="-148.43" rx="190.84" ry="37.45"/>
<text text-anchor="middle" x="1153.97" y="-159.73" font-family="Times,serif" font-size="14.00">a</text>
<text text-anchor="middle" x="1153.97" y="-144.73" font-family="Times,serif" font-size="14.00">sps00 (dobj)</text>
<text text-anchor="middle" x="1153.97" y="-129.73" font-family="Times,serif" font-size="14.00">rep=no, t=no, r=yes, m=yes, c=no</text>
</g>
<!-- n11&#45;&gt;n12 -->
<g id="edge16" class="edge">
<title>n11&#45;&gt;n12</title>
<path fill="none" stroke="black" d="M1153.97,-221.8C1153.97,-213.63 1153.97,-204.85 1153.97,-196.32"/>
<polygon fill="black" stroke="black" points="1157.47,-196.1 1153.97,-186.1 1150.47,-196.1 1157.47,-196.1"/>
</g>
<!-- n13 -->
<g id="node18" class="node">
<title>n13</title>
<ellipse fill="#DA79E8" stroke="black" cx="1153.97" cy="-37.48" rx="190.84" ry="37.45"/>
<text text-anchor="middle" x="1153.97" y="-48.78" font-family="Times,serif" font-size="14.00">CiU</text>
<text text-anchor="middle" x="1153.97" y="-33.78" font-family="Times,serif" font-size="14.00">np00000 (pobj)</text>
<text text-anchor="middle" x="1153.97" y="-18.78" font-family="Times,serif" font-size="14.00">rep=no, t=no, r=yes, m=yes, c=no</text>
</g>
<!-- n12&#45;&gt;n13 -->
<g id="edge17" class="edge">
<title>n12&#45;&gt;n13</title>
<path fill="none" stroke="black" d="M1153.97,-110.85C1153.97,-102.67 1153.97,-93.89 1153.97,-85.37"/>
<polygon fill="black" stroke="black" points="1157.47,-85.15 1153.97,-75.15 1150.47,-85.15 1157.47,-85.15"/>
</g>
<!-- n20 -->
<g id="node20" class="node">
<title>n20</title>
<ellipse fill="none" stroke="black" cx="1351.97" cy="-703.2" rx="181.95" ry="37.45"/>
<text text-anchor="middle" x="1351.97" y="-714.5" font-family="Times,serif" font-size="14.00">han</text>
<text text-anchor="middle" x="1351.97" y="-699.5" font-family="Times,serif" font-size="14.00">vaip3p0 (rcmod)</text>
<text text-anchor="middle" x="1351.97" y="-684.5" font-family="Times,serif" font-size="14.00">rep=no, t=no, r=no, m=no, c=no</text>
</g>
<!-- n18&#45;&gt;n20 -->
<g id="edge19" class="edge">
<title>n18&#45;&gt;n20</title>
<path fill="none" stroke="black" d="M1350.64,-776.57C1350.79,-768.39 1350.95,-759.61 1351.11,-751.09"/>
<polygon fill="black" stroke="black" points="1354.61,-750.93 1351.3,-740.87 1347.61,-750.8 1354.61,-750.93"/>
</g>
<!-- n19 -->
<g id="node21" class="node">
<title>n19</title>
<ellipse fill="none" stroke="black" cx="1351.97" cy="-592.24" rx="181.95" ry="37.45"/>
<text text-anchor="middle" x="1351.97" y="-603.54" font-family="Times,serif" font-size="14.00">quienes</text>
<text text-anchor="middle" x="1351.97" y="-588.54" font-family="Times,serif" font-size="14.00">pr0cp000 (nsubj)</text>
<text text-anchor="middle" x="1351.97" y="-573.54" font-family="Times,serif" font-size="14.00">rep=no, t=no, r=no, m=no, c=no</text>
</g>
<!-- n20&#45;&gt;n19 -->
<g id="edge20" class="edge">
<title>n20&#45;&gt;n19</title>
<path fill="none" stroke="black" d="M1351.97,-665.61C1351.97,-657.44 1351.97,-648.66 1351.97,-640.13"/>
<polygon fill="black" stroke="black" points="1355.47,-639.92 1351.97,-629.92 1348.47,-639.92 1355.47,-639.92"/>
</g>
<!-- n21 -->
<g id="node22" class="node">
<title>n21</title>
<ellipse fill="none" stroke="black" cx="1732.97" cy="-592.24" rx="181.95" ry="37.45"/>
<text text-anchor="middle" x="1732.97" y="-603.54" font-family="Times,serif" font-size="14.00">respaldado</text>
<text text-anchor="middle" x="1732.97" y="-588.54" font-family="Times,serif" font-size="14.00">vmp00sm (vobj)</text>
<text text-anchor="middle" x="1732.97" y="-573.54" font-family="Times,serif" font-size="14.00">rep=no, t=no, r=no, m=no, c=no</text>
</g>
<!-- n20&#45;&gt;n21 -->
<g id="edge21" class="edge">
<title>n20&#45;&gt;n21</title>
<path fill="none" stroke="black" d="M1456.08,-672.42C1506.58,-657.98 1567.37,-640.6 1619.1,-625.81"/>
<polygon fill="black" stroke="black" points="1620.33,-629.09 1628.99,-622.98 1618.41,-622.36 1620.33,-629.09"/>
</g>
<!-- n22 -->
<g id="node23" class="node">
<title>n22</title>
<ellipse fill="none" stroke="black" cx="1732.97" cy="-481.29" rx="181.95" ry="37.45"/>
<text text-anchor="middle" x="1732.97" y="-492.59" font-family="Times,serif" font-size="14.00">al</text>
<text text-anchor="middle" x="1732.97" y="-477.59" font-family="Times,serif" font-size="14.00">spcms (dobj)</text>
<text text-anchor="middle" x="1732.97" y="-462.59" font-family="Times,serif" font-size="14.00">rep=no, t=no, r=no, m=no, c=no</text>
</g>
<!-- n21&#45;&gt;n22 -->
<g id="edge22" class="edge">
<title>n21&#45;&gt;n22</title>
<path fill="none" stroke="black" d="M1732.97,-554.66C1732.97,-546.49 1732.97,-537.71 1732.97,-529.18"/>
<polygon fill="black" stroke="black" points="1736.47,-528.96 1732.97,-518.96 1729.47,-528.96 1736.47,-528.96"/>
</g>
<!-- n23 -->
<g id="node24" class="node">
<title>n23</title>
<ellipse fill="none" stroke="black" cx="1732.97" cy="-370.34" rx="181.95" ry="37.45"/>
<text text-anchor="middle" x="1732.97" y="-381.64" font-family="Times,serif" font-size="14.00">partido</text>
<text text-anchor="middle" x="1732.97" y="-366.64" font-family="Times,serif" font-size="14.00">ncms000 (pobj)</text>
<text text-anchor="middle" x="1732.97" y="-351.64" font-family="Times,serif" font-size="14.00">rep=no, t=no, r=no, m=no, c=no</text>
</g>
<!-- n22&#45;&gt;n23 -->
<g id="edge23" class="edge">
<title>n22&#45;&gt;n23</title>
<path fill="none" stroke="black" d="M1732.97,-443.71C1732.97,-435.53 1732.97,-426.75 1732.97,-418.23"/>
<polygon fill="black" stroke="black" points="1736.47,-418.01 1732.97,-408.01 1729.47,-418.01 1736.47,-418.01"/>
</g>
<!-- n24 -->
<g id="node25" class="node">
<title>n24</title>
<ellipse fill="none" stroke="black" cx="1732.97" cy="-259.38" rx="181.95" ry="37.45"/>
<text text-anchor="middle" x="1732.97" y="-270.68" font-family="Times,serif" font-size="14.00">socialista</text>
<text text-anchor="middle" x="1732.97" y="-255.68" font-family="Times,serif" font-size="14.00">aq0cs0 (amod)</text>
<text text-anchor="middle" x="1732.97" y="-240.68" font-family="Times,serif" font-size="14.00">rep=no, t=no, r=no, m=no, c=no</text>
</g>
<!-- n23&#45;&gt;n24 -->
<g id="edge24" class="edge">
<title>n23&#45;&gt;n24</title>
<path fill="none" stroke="black" d="M1732.97,-332.75C1732.97,-324.58 1732.97,-315.8 1732.97,-307.27"/>
<polygon fill="black" stroke="black" points="1736.47,-307.06 1732.97,-297.06 1729.47,-307.06 1736.47,-307.06"/>
</g>
</g>
</svg>
