<?xml version="1.0" encoding="UTF-8" standalone="no"?>
<!DOCTYPE svg PUBLIC "-//W3C//DTD SVG 1.1//EN"
 "http://www.w3.org/Graphics/SVG/1.1/DTD/svg11.dtd">
<!-- Generated by graphviz version 2.43.0 (0)
 -->
<!-- Title: tree Pages: 1 -->
<svg width="1712pt" height="860pt"
 viewBox="0.00 0.00 1711.70 859.63" xmlns="http://www.w3.org/2000/svg" xmlns:xlink="http://www.w3.org/1999/xlink">
<g id="graph0" class="graph" transform="scale(1 1) rotate(0) translate(4 855.63)">
<title>tree</title>
<polygon fill="white" stroke="transparent" points="-4,4 -4,-855.63 1707.7,-855.63 1707.7,4 -4,4"/>
<!-- n3 -->
<g id="node1" class="node">
<title>n3</title>
<ellipse fill="none" stroke="black" cx="943.73" cy="-814.15" rx="181.95" ry="37.45"/>
<text text-anchor="middle" x="943.73" y="-825.45" font-family="Times,serif" font-size="14.00">ha</text>
<text text-anchor="middle" x="943.73" y="-810.45" font-family="Times,serif" font-size="14.00">vaip3s0 (root)</text>
<text text-anchor="middle" x="943.73" y="-795.45" font-family="Times,serif" font-size="14.00">rep=no, t=no, r=no, m=no, c=no</text>
</g>
<!-- n4 -->
<g id="node2" class="node">
<title>n4</title>
<ellipse fill="none" stroke="black" cx="562.73" cy="-703.2" rx="181.95" ry="37.45"/>
<text text-anchor="middle" x="562.73" y="-714.5" font-family="Times,serif" font-size="14.00">roto</text>
<text text-anchor="middle" x="562.73" y="-699.5" font-family="Times,serif" font-size="14.00">vmp00sm (vobj)</text>
<text text-anchor="middle" x="562.73" y="-684.5" font-family="Times,serif" font-size="14.00">rep=no, t=no, r=no, m=no, c=no</text>
</g>
<!-- n3&#45;&gt;n4 -->
<g id="edge1" class="edge">
<title>n3&#45;&gt;n4</title>
<path fill="none" stroke="black" d="M839.62,-783.38C789.11,-768.94 728.33,-751.55 676.6,-736.76"/>
<polygon fill="black" stroke="black" points="677.29,-733.32 666.71,-733.93 675.36,-740.05 677.29,-733.32"/>
</g>
<!-- n6 -->
<g id="node3" class="node">
<title>n6</title>
<ellipse fill="none" stroke="black" cx="943.73" cy="-703.2" rx="181.95" ry="37.45"/>
<text text-anchor="middle" x="943.73" y="-714.5" font-family="Times,serif" font-size="14.00">tabú</text>
<text text-anchor="middle" x="943.73" y="-699.5" font-family="Times,serif" font-size="14.00">ncms000 (nsubj)</text>
<text text-anchor="middle" x="943.73" y="-684.5" font-family="Times,serif" font-size="14.00">rep=no, t=no, r=no, m=no, c=no</text>
</g>
<!-- n3&#45;&gt;n6 -->
<g id="edge2" class="edge">
<title>n3&#45;&gt;n6</title>
<path fill="none" stroke="black" d="M943.73,-776.57C943.73,-768.39 943.73,-759.61 943.73,-751.09"/>
<polygon fill="black" stroke="black" points="947.23,-750.87 943.73,-740.87 940.23,-750.87 947.23,-750.87"/>
</g>
<!-- n14 -->
<g id="node4" class="node">
<title>n14</title>
<ellipse fill="none" stroke="black" cx="1324.73" cy="-703.2" rx="181.95" ry="37.45"/>
<text text-anchor="middle" x="1324.73" y="-714.5" font-family="Times,serif" font-size="14.00">.</text>
<text text-anchor="middle" x="1324.73" y="-699.5" font-family="Times,serif" font-size="14.00">fp (punct)</text>
<text text-anchor="middle" x="1324.73" y="-684.5" font-family="Times,serif" font-size="14.00">rep=no, t=no, r=no, m=no, c=no</text>
</g>
<!-- n3&#45;&gt;n14 -->
<g id="edge3" class="edge">
<title>n3&#45;&gt;n14</title>
<path fill="none" stroke="black" d="M1047.84,-783.38C1098.34,-768.94 1159.12,-751.55 1210.86,-736.76"/>
<polygon fill="black" stroke="black" points="1212.09,-740.05 1220.74,-733.93 1210.17,-733.32 1212.09,-740.05"/>
</g>
<!-- n1 -->
<g id="node5" class="node">
<title>n1</title>
<ellipse fill="none" stroke="black" cx="181.73" cy="-592.24" rx="181.95" ry="37.45"/>
<text text-anchor="middle" x="181.73" y="-603.54" font-family="Times,serif" font-size="14.00">Ahora</text>
<text text-anchor="middle" x="181.73" y="-588.54" font-family="Times,serif" font-size="14.00">rg (advmod)</text>
<text text-anchor="middle" x="181.73" y="-573.54" font-family="Times,serif" font-size="14.00">rep=no, t=no, r=no, m=no, c=no</text>
</g>
<!-- n4&#45;&gt;n1 -->
<g id="edge4" class="edge">
<title>n4&#45;&gt;n1</title>
<path fill="none" stroke="black" d="M458.62,-672.42C408.11,-657.98 347.33,-640.6 295.6,-625.81"/>
<polygon fill="black" stroke="black" points="296.29,-622.36 285.71,-622.98 294.36,-629.09 296.29,-622.36"/>
</g>
<!-- n2 -->
<g id="node6" class="node">
<title>n2</title>
<ellipse fill="none" stroke="black" cx="562.73" cy="-592.24" rx="181.95" ry="37.45"/>
<text text-anchor="middle" x="562.73" y="-603.54" font-family="Times,serif" font-size="14.00">se</text>
<text text-anchor="middle" x="562.73" y="-588.54" font-family="Times,serif" font-size="14.00">p0300000 (reflec)</text>
<text text-anchor="middle" x="562.73" y="-573.54" font-family="Times,serif" font-size="14.00">rep=no, t=no, r=no, m=no, c=no</text>
</g>
<!-- n4&#45;&gt;n2 -->
<g id="edge5" class="edge">
<title>n4&#45;&gt;n2</title>
<path fill="none" stroke="black" d="M562.73,-665.61C562.73,-657.44 562.73,-648.66 562.73,-640.13"/>
<polygon fill="black" stroke="black" points="566.23,-639.92 562.73,-629.92 559.23,-639.92 566.23,-639.92"/>
</g>
<!-- n5 -->
<g id="node7" class="node">
<title>n5</title>
<ellipse fill="none" stroke="black" cx="943.73" cy="-592.24" rx="181.95" ry="37.45"/>
<text text-anchor="middle" x="943.73" y="-603.54" font-family="Times,serif" font-size="14.00">el</text>
<text text-anchor="middle" x="943.73" y="-588.54" font-family="Times,serif" font-size="14.00">da0ms0 (det)</text>
<text text-anchor="middle" x="943.73" y="-573.54" font-family="Times,serif" font-size="14.00">rep=no, t=no, r=no, m=no, c=no</text>
</g>
<!-- n6&#45;&gt;n5 -->
<g id="edge6" class="edge">
<title>n6&#45;&gt;n5</title>
<path fill="none" stroke="black" d="M943.73,-665.61C943.73,-657.44 943.73,-648.66 943.73,-640.13"/>
<polygon fill="black" stroke="black" points="947.23,-639.92 943.73,-629.92 940.23,-639.92 947.23,-639.92"/>
</g>
<!-- n8 -->
<g id="node8" class="node">
<title>n8</title>
<ellipse fill="none" stroke="black" cx="1324.73" cy="-592.24" rx="181.95" ry="37.45"/>
<text text-anchor="middle" x="1324.73" y="-603.54" font-family="Times,serif" font-size="14.00">impedía</text>
<text text-anchor="middle" x="1324.73" y="-588.54" font-family="Times,serif" font-size="14.00">vmii3s0 (rcmod)</text>
<text text-anchor="middle" x="1324.73" y="-573.54" font-family="Times,serif" font-size="14.00">rep=no, t=no, r=no, m=no, c=no</text>
</g>
<!-- n6&#45;&gt;n8 -->
<g id="edge7" class="edge">
<title>n6&#45;&gt;n8</title>
<path fill="none" stroke="black" d="M1047.84,-672.42C1098.34,-657.98 1159.12,-640.6 1210.86,-625.81"/>
<polygon fill="black" stroke="black" points="1212.09,-629.09 1220.74,-622.98 1210.17,-622.36 1212.09,-629.09"/>
</g>
<!-- n7 -->
<g id="node9" class="node">
<title>n7</title>
<ellipse fill="none" stroke="black" cx="1131.73" cy="-481.29" rx="185.94" ry="37.45"/>
<text text-anchor="middle" x="1131.73" y="-492.59" font-family="Times,serif" font-size="14.00">que</text>
<text text-anchor="middle" x="1131.73" y="-477.59" font-family="Times,serif" font-size="14.00">pr0cn000 (nsubj)</text>
<text text-anchor="middle" x="1131.73" y="-462.59" font-family="Times,serif" font-size="14.00">rep=yes, t=no, r=no, m=no, c=no</text>
</g>
<!-- n8&#45;&gt;n7 -->
<g id="edge8" class="edge">
<title>n8&#45;&gt;n7</title>
<path fill="none" stroke="black" d="M1263.92,-556.92C1244.19,-545.78 1222.14,-533.33 1201.8,-521.85"/>
<polygon fill="black" stroke="black" points="1203.31,-518.68 1192.89,-516.82 1199.87,-524.78 1203.31,-518.68"/>
</g>
<!-- n9 -->
<g id="node10" class="node">
<title>n9</title>
<ellipse fill="none" stroke="black" cx="1517.73" cy="-481.29" rx="181.95" ry="37.45"/>
<text text-anchor="middle" x="1517.73" y="-492.59" font-family="Times,serif" font-size="14.00">que</text>
<text text-anchor="middle" x="1517.73" y="-477.59" font-family="Times,serif" font-size="14.00">cs (dobj)</text>
<text text-anchor="middle" x="1517.73" y="-462.59" font-family="Times,serif" font-size="14.00">rep=no, t=no, r=no, m=no, c=no</text>
</g>
<!-- n8&#45;&gt;n9 -->
<g id="edge9" class="edge">
<title>n8&#45;&gt;n9</title>
<path fill="none" stroke="black" d="M1385.53,-556.92C1405.36,-545.73 1427.52,-533.21 1447.96,-521.68"/>
<polygon fill="black" stroke="black" points="1449.91,-524.59 1456.9,-516.63 1446.47,-518.5 1449.91,-524.59"/>
</g>
<!-- n10 -->
<g id="node11" class="node">
<title>n10</title>
<ellipse fill="none" stroke="black" cx="1517.73" cy="-370.34" rx="185.94" ry="37.45"/>
<text text-anchor="middle" x="1517.73" y="-381.64" font-family="Times,serif" font-size="14.00">tuviese</text>
<text text-anchor="middle" x="1517.73" y="-366.64" font-family="Times,serif" font-size="14.00">vmsi3s0 (cobj)</text>
<text text-anchor="middle" x="1517.73" y="-351.64" font-family="Times,serif" font-size="14.00">rep=no, t=no, r=no, m=yes, c=no</text>
</g>
<!-- n9&#45;&gt;n10 -->
<g id="edge10" class="edge">
<title>n9&#45;&gt;n10</title>
<path fill="none" stroke="black" d="M1517.73,-443.71C1517.73,-435.53 1517.73,-426.75 1517.73,-418.23"/>
<polygon fill="black" stroke="black" points="1521.23,-418.01 1517.73,-408.01 1514.23,-418.01 1521.23,-418.01"/>
</g>
<!-- n11 -->
<g id="node12" class="node">
<title>n11</title>
<ellipse fill="none" stroke="black" cx="1517.73" cy="-259.38" rx="185.94" ry="37.45"/>
<text text-anchor="middle" x="1517.73" y="-270.68" font-family="Times,serif" font-size="14.00">capacidad</text>
<text text-anchor="middle" x="1517.73" y="-255.68" font-family="Times,serif" font-size="14.00">ncfs000 (dobj)</text>
<text text-anchor="middle" x="1517.73" y="-240.68" font-family="Times,serif" font-size="14.00">rep=no, t=no, r=no, m=yes, c=no</text>
</g>
<!-- n10&#45;&gt;n11 -->
<g id="edge11" class="edge">
<title>n10&#45;&gt;n11</title>
<path fill="none" stroke="black" d="M1517.73,-332.75C1517.73,-324.58 1517.73,-315.8 1517.73,-307.27"/>
<polygon fill="black" stroke="black" points="1521.23,-307.06 1517.73,-297.06 1514.23,-307.06 1521.23,-307.06"/>
</g>
<!-- n12 -->
<g id="node13" class="node">
<title>n12</title>
<ellipse fill="none" stroke="black" cx="1517.73" cy="-148.43" rx="185.94" ry="37.45"/>
<text text-anchor="middle" x="1517.73" y="-159.73" font-family="Times,serif" font-size="14.00">de</text>
<text text-anchor="middle" x="1517.73" y="-144.73" font-family="Times,serif" font-size="14.00">sps00 (prepn)</text>
<text text-anchor="middle" x="1517.73" y="-129.73" font-family="Times,serif" font-size="14.00">rep=no, t=no, r=no, m=yes, c=no</text>
</g>
<!-- n11&#45;&gt;n12 -->
<g id="edge12" class="edge">
<title>n11&#45;&gt;n12</title>
<path fill="none" stroke="black" d="M1517.73,-221.8C1517.73,-213.63 1517.73,-204.85 1517.73,-196.32"/>
<polygon fill="black" stroke="black" points="1521.23,-196.1 1517.73,-186.1 1514.23,-196.1 1521.23,-196.1"/>
</g>
<!-- n13 -->
<g id="node14" class="node">
<title>n13</title>
<ellipse fill="none" stroke="black" cx="1517.73" cy="-37.48" rx="185.94" ry="37.45"/>
<text text-anchor="middle" x="1517.73" y="-48.78" font-family="Times,serif" font-size="14.00">influencia</text>
<text text-anchor="middle" x="1517.73" y="-33.78" font-family="Times,serif" font-size="14.00">ncfs000 (pobj)</text>
<text text-anchor="middle" x="1517.73" y="-18.78" font-family="Times,serif" font-size="14.00">rep=no, t=no, r=no, m=yes, c=no</text>
</g>
<!-- n12&#45;&gt;n13 -->
<g id="edge13" class="edge">
<title>n12&#45;&gt;n13</title>
<path fill="none" stroke="black" d="M1517.73,-110.85C1517.73,-102.67 1517.73,-93.89 1517.73,-85.37"/>
<polygon fill="black" stroke="black" points="1521.23,-85.15 1517.73,-75.15 1514.23,-85.15 1521.23,-85.15"/>
</g>
</g>
</svg>
