<?xml version="1.0" encoding="UTF-8" standalone="no"?>
<!DOCTYPE svg PUBLIC "-//W3C//DTD SVG 1.1//EN"
 "http://www.w3.org/Graphics/SVG/1.1/DTD/svg11.dtd">
<!-- Generated by graphviz version 2.43.0 (0)
 -->
<!-- Title: tree Pages: 1 -->
<svg width="1914pt" height="416pt"
 viewBox="0.00 0.00 1913.70 415.81" xmlns="http://www.w3.org/2000/svg" xmlns:xlink="http://www.w3.org/1999/xlink">
<g id="graph0" class="graph" transform="scale(1 1) rotate(0) translate(4 411.81)">
<title>tree</title>
<polygon fill="white" stroke="transparent" points="-4,4 -4,-411.81 1909.7,-411.81 1909.7,4 -4,4"/>
<!-- n5 -->
<g id="node1" class="node">
<title>n5</title>
<ellipse fill="none" stroke="black" cx="943.73" cy="-370.34" rx="185.94" ry="37.45"/>
<text text-anchor="middle" x="943.73" y="-381.64" font-family="Times,serif" font-size="14.00">habrá</text>
<text text-anchor="middle" x="943.73" y="-366.64" font-family="Times,serif" font-size="14.00">vaif3s0 (root)</text>
<text text-anchor="middle" x="943.73" y="-351.64" font-family="Times,serif" font-size="14.00">rep=no, t=no, r=no, m=yes, c=no</text>
</g>
<!-- n1 -->
<g id="node2" class="node">
<title>n1</title>
<ellipse fill="none" stroke="black" cx="181.73" cy="-259.38" rx="181.95" ry="37.45"/>
<text text-anchor="middle" x="181.73" y="-270.68" font-family="Times,serif" font-size="14.00">&#45;</text>
<text text-anchor="middle" x="181.73" y="-255.68" font-family="Times,serif" font-size="14.00">fg (punct)</text>
<text text-anchor="middle" x="181.73" y="-240.68" font-family="Times,serif" font-size="14.00">rep=no, t=no, r=no, m=no, c=no</text>
</g>
<!-- n5&#45;&gt;n1 -->
<g id="edge1" class="edge">
<title>n5&#45;&gt;n1</title>
<path fill="none" stroke="black" d="M782.15,-351.64C667.37,-338.4 509.75,-318.83 371.73,-296.86 354.88,-294.18 337.24,-291.13 319.79,-287.95"/>
<polygon fill="black" stroke="black" points="320.01,-284.44 309.54,-286.07 318.74,-291.32 320.01,-284.44"/>
</g>
<!-- n2 -->
<g id="node3" class="node">
<title>n2</title>
<ellipse fill="none" stroke="black" cx="562.73" cy="-259.38" rx="181.95" ry="37.45"/>
<text text-anchor="middle" x="562.73" y="-270.68" font-family="Times,serif" font-size="14.00">&#45;</text>
<text text-anchor="middle" x="562.73" y="-255.68" font-family="Times,serif" font-size="14.00">fg (punct)</text>
<text text-anchor="middle" x="562.73" y="-240.68" font-family="Times,serif" font-size="14.00">rep=no, t=no, r=no, m=no, c=no</text>
</g>
<!-- n5&#45;&gt;n2 -->
<g id="edge2" class="edge">
<title>n5&#45;&gt;n2</title>
<path fill="none" stroke="black" d="M838.86,-339.35C788.57,-324.97 728.23,-307.71 676.8,-293.01"/>
<polygon fill="black" stroke="black" points="677.55,-289.58 666.97,-290.19 675.63,-296.31 677.55,-289.58"/>
</g>
<!-- n3 -->
<g id="node4" class="node">
<title>n3</title>
<ellipse fill="none" stroke="black" cx="943.73" cy="-259.38" rx="181.95" ry="37.45"/>
<text text-anchor="middle" x="943.73" y="-270.68" font-family="Times,serif" font-size="14.00">En</text>
<text text-anchor="middle" x="943.73" y="-255.68" font-family="Times,serif" font-size="14.00">sps00 (prepv)</text>
<text text-anchor="middle" x="943.73" y="-240.68" font-family="Times,serif" font-size="14.00">rep=no, t=no, r=no, m=no, c=no</text>
</g>
<!-- n5&#45;&gt;n3 -->
<g id="edge3" class="edge">
<title>n5&#45;&gt;n3</title>
<path fill="none" stroke="black" d="M943.73,-332.75C943.73,-324.58 943.73,-315.8 943.73,-307.27"/>
<polygon fill="black" stroke="black" points="947.23,-307.06 943.73,-297.06 940.23,-307.06 947.23,-307.06"/>
</g>
<!-- n6 -->
<g id="node5" class="node">
<title>n6</title>
<ellipse fill="none" stroke="black" cx="1329.73" cy="-259.38" rx="185.94" ry="37.45"/>
<text text-anchor="middle" x="1329.73" y="-270.68" font-family="Times,serif" font-size="14.00">congreso</text>
<text text-anchor="middle" x="1329.73" y="-255.68" font-family="Times,serif" font-size="14.00">ncms000 (dobj)</text>
<text text-anchor="middle" x="1329.73" y="-240.68" font-family="Times,serif" font-size="14.00">rep=no, t=no, r=no, m=yes, c=no</text>
</g>
<!-- n5&#45;&gt;n6 -->
<g id="edge4" class="edge">
<title>n5&#45;&gt;n6</title>
<path fill="none" stroke="black" d="M1049.46,-339.49C1100.52,-325.08 1161.9,-307.75 1214.19,-293"/>
<polygon fill="black" stroke="black" points="1215.17,-296.36 1223.84,-290.27 1213.27,-289.62 1215.17,-296.36"/>
</g>
<!-- n10 -->
<g id="node6" class="node">
<title>n10</title>
<ellipse fill="none" stroke="black" cx="1715.73" cy="-259.38" rx="181.95" ry="37.45"/>
<text text-anchor="middle" x="1715.73" y="-270.68" font-family="Times,serif" font-size="14.00">.</text>
<text text-anchor="middle" x="1715.73" y="-255.68" font-family="Times,serif" font-size="14.00">fp (punct)</text>
<text text-anchor="middle" x="1715.73" y="-240.68" font-family="Times,serif" font-size="14.00">rep=no, t=no, r=no, m=no, c=no</text>
</g>
<!-- n5&#45;&gt;n10 -->
<g id="edge5" class="edge">
<title>n5&#45;&gt;n10</title>
<path fill="none" stroke="black" d="M1105.97,-351.94C1222.71,-338.73 1383.78,-319.09 1524.73,-296.86 1541.96,-294.14 1560.02,-291.04 1577.87,-287.81"/>
<polygon fill="black" stroke="black" points="1578.55,-291.24 1587.76,-286 1577.29,-284.35 1578.55,-291.24"/>
</g>
<!-- n4 -->
<g id="node7" class="node">
<title>n4</title>
<ellipse fill="none" stroke="black" cx="943.73" cy="-148.43" rx="181.95" ry="37.45"/>
<text text-anchor="middle" x="943.73" y="-159.73" font-family="Times,serif" font-size="14.00">septiembre</text>
<text text-anchor="middle" x="943.73" y="-144.73" font-family="Times,serif" font-size="14.00">ncms000 (pobj)</text>
<text text-anchor="middle" x="943.73" y="-129.73" font-family="Times,serif" font-size="14.00">rep=no, t=no, r=no, m=no, c=no</text>
</g>
<!-- n3&#45;&gt;n4 -->
<g id="edge6" class="edge">
<title>n3&#45;&gt;n4</title>
<path fill="none" stroke="black" d="M943.73,-221.8C943.73,-213.63 943.73,-204.85 943.73,-196.32"/>
<polygon fill="black" stroke="black" points="947.23,-196.1 943.73,-186.1 940.23,-196.1 947.23,-196.1"/>
</g>
<!-- n7 -->
<g id="node8" class="node">
<title>n7</title>
<ellipse fill="none" stroke="black" cx="1329.73" cy="-148.43" rx="185.94" ry="37.45"/>
<text text-anchor="middle" x="1329.73" y="-159.73" font-family="Times,serif" font-size="14.00">regional</text>
<text text-anchor="middle" x="1329.73" y="-144.73" font-family="Times,serif" font-size="14.00">aq0cs0 (amod)</text>
<text text-anchor="middle" x="1329.73" y="-129.73" font-family="Times,serif" font-size="14.00">rep=no, t=no, r=no, m=yes, c=no</text>
</g>
<!-- n6&#45;&gt;n7 -->
<g id="edge7" class="edge">
<title>n6&#45;&gt;n7</title>
<path fill="none" stroke="black" d="M1329.73,-221.8C1329.73,-213.63 1329.73,-204.85 1329.73,-196.32"/>
<polygon fill="black" stroke="black" points="1333.23,-196.1 1329.73,-186.1 1326.23,-196.1 1333.23,-196.1"/>
</g>
<!-- n8 -->
<g id="node9" class="node">
<title>n8</title>
<ellipse fill="none" stroke="black" cx="1719.73" cy="-148.43" rx="185.94" ry="37.45"/>
<text text-anchor="middle" x="1719.73" y="-159.73" font-family="Times,serif" font-size="14.00">del</text>
<text text-anchor="middle" x="1719.73" y="-144.73" font-family="Times,serif" font-size="14.00">spcms (prepn)</text>
<text text-anchor="middle" x="1719.73" y="-129.73" font-family="Times,serif" font-size="14.00">rep=no, t=no, r=no, m=yes, c=no</text>
</g>
<!-- n6&#45;&gt;n8 -->
<g id="edge8" class="edge">
<title>n6&#45;&gt;n8</title>
<path fill="none" stroke="black" d="M1436.3,-228.61C1488.1,-214.14 1550.47,-196.71 1603.5,-181.9"/>
<polygon fill="black" stroke="black" points="1604.6,-185.23 1613.29,-179.17 1602.71,-178.49 1604.6,-185.23"/>
</g>
<!-- n9 -->
<g id="node10" class="node">
<title>n9</title>
<ellipse fill="none" stroke="black" cx="1719.73" cy="-37.48" rx="185.94" ry="37.45"/>
<text text-anchor="middle" x="1719.73" y="-48.78" font-family="Times,serif" font-size="14.00">partido</text>
<text text-anchor="middle" x="1719.73" y="-33.78" font-family="Times,serif" font-size="14.00">ncms000 (pobj)</text>
<text text-anchor="middle" x="1719.73" y="-18.78" font-family="Times,serif" font-size="14.00">rep=no, t=no, r=no, m=yes, c=no</text>
</g>
<!-- n8&#45;&gt;n9 -->
<g id="edge9" class="edge">
<title>n8&#45;&gt;n9</title>
<path fill="none" stroke="black" d="M1719.73,-110.85C1719.73,-102.67 1719.73,-93.89 1719.73,-85.37"/>
<polygon fill="black" stroke="black" points="1723.23,-85.15 1719.73,-75.15 1716.23,-85.15 1723.23,-85.15"/>
</g>
</g>
</svg>
