<?xml version="1.0" encoding="UTF-8" standalone="no"?>
<!DOCTYPE svg PUBLIC "-//W3C//DTD SVG 1.1//EN"
 "http://www.w3.org/Graphics/SVG/1.1/DTD/svg11.dtd">
<!-- Generated by graphviz version 2.43.0 (0)
 -->
<!-- Title: tree Pages: 1 -->
<svg width="2765pt" height="638pt"
 viewBox="0.00 0.00 2764.89 637.72" xmlns="http://www.w3.org/2000/svg" xmlns:xlink="http://www.w3.org/1999/xlink">
<g id="graph0" class="graph" transform="scale(1 1) rotate(0) translate(4 633.72)">
<title>tree</title>
<polygon fill="white" stroke="transparent" points="-4,4 -4,-633.72 2760.89,-633.72 2760.89,4 -4,4"/>
<!-- n16 -->
<g id="node1" class="node">
<title>n16</title>
<ellipse fill="none" stroke="black" cx="1595.92" cy="-592.24" rx="185.94" ry="37.45"/>
<text text-anchor="middle" x="1595.92" y="-603.54" font-family="Times,serif" font-size="14.00">deben</text>
<text text-anchor="middle" x="1595.92" y="-588.54" font-family="Times,serif" font-size="14.00">vmip3p0 (root)</text>
<text text-anchor="middle" x="1595.92" y="-573.54" font-family="Times,serif" font-size="14.00">rep=no, t=no, r=no, m=yes, c=no</text>
</g>
<!-- n4 -->
<g id="node2" class="node">
<title>n4</title>
<ellipse fill="none" stroke="black" cx="809.92" cy="-481.29" rx="181.95" ry="37.45"/>
<text text-anchor="middle" x="809.92" y="-492.59" font-family="Times,serif" font-size="14.00">,</text>
<text text-anchor="middle" x="809.92" y="-477.59" font-family="Times,serif" font-size="14.00">fc (punct)</text>
<text text-anchor="middle" x="809.92" y="-462.59" font-family="Times,serif" font-size="14.00">rep=no, t=no, r=no, m=no, c=no</text>
</g>
<!-- n16&#45;&gt;n4 -->
<g id="edge1" class="edge">
<title>n16&#45;&gt;n4</title>
<path fill="none" stroke="black" d="M1432.3,-574.32C1312.55,-561.2 1146.27,-541.47 1000.92,-518.77 983.68,-516.07 965.62,-512.98 947.77,-509.76"/>
<polygon fill="black" stroke="black" points="948.35,-506.31 937.88,-507.96 947.09,-513.2 948.35,-506.31"/>
</g>
<!-- n9 -->
<g id="node3" class="node">
<title>n9</title>
<ellipse fill="none" stroke="black" cx="1200.92" cy="-481.29" rx="190.84" ry="37.45"/>
<text text-anchor="middle" x="1200.92" y="-492.59" font-family="Times,serif" font-size="14.00">pueden</text>
<text text-anchor="middle" x="1200.92" y="-477.59" font-family="Times,serif" font-size="14.00">vmip3p0 (neg)</text>
<text text-anchor="middle" x="1200.92" y="-462.59" font-family="Times,serif" font-size="14.00">rep=no, t=no, r=no, m=yes, c=yes</text>
</g>
<!-- n16&#45;&gt;n9 -->
<g id="edge2" class="edge">
<title>n16&#45;&gt;n9</title>
<path fill="none" stroke="black" d="M1488.51,-561.62C1436.14,-547.17 1373.01,-529.76 1319.26,-514.93"/>
<polygon fill="black" stroke="black" points="1319.91,-511.48 1309.34,-512.2 1318.05,-518.23 1319.91,-511.48"/>
</g>
<!-- n15 -->
<g id="node4" class="node">
<title>n15</title>
<ellipse fill="none" stroke="black" cx="1595.92" cy="-481.29" rx="185.94" ry="37.45"/>
<text text-anchor="middle" x="1595.92" y="-492.59" font-family="Times,serif" font-size="14.00">ni</text>
<text text-anchor="middle" x="1595.92" y="-477.59" font-family="Times,serif" font-size="14.00">cc (coord_fixed)</text>
<text text-anchor="middle" x="1595.92" y="-462.59" font-family="Times,serif" font-size="14.00">rep=no, t=no, r=no, m=yes, c=no</text>
</g>
<!-- n16&#45;&gt;n15 -->
<g id="edge3" class="edge">
<title>n16&#45;&gt;n15</title>
<path fill="none" stroke="black" d="M1595.92,-554.66C1595.92,-546.49 1595.92,-537.71 1595.92,-529.18"/>
<polygon fill="black" stroke="black" points="1599.42,-528.96 1595.92,-518.96 1592.42,-528.96 1599.42,-528.96"/>
</g>
<!-- n17 -->
<g id="node5" class="node">
<title>n17</title>
<ellipse fill="none" stroke="black" cx="1985.92" cy="-481.29" rx="185.94" ry="37.45"/>
<text text-anchor="middle" x="1985.92" y="-492.59" font-family="Times,serif" font-size="14.00">estar</text>
<text text-anchor="middle" x="1985.92" y="-477.59" font-family="Times,serif" font-size="14.00">vmn0000 (dobj)</text>
<text text-anchor="middle" x="1985.92" y="-462.59" font-family="Times,serif" font-size="14.00">rep=no, t=no, r=no, m=yes, c=no</text>
</g>
<!-- n16&#45;&gt;n17 -->
<g id="edge4" class="edge">
<title>n16&#45;&gt;n17</title>
<path fill="none" stroke="black" d="M1702.49,-561.47C1754.29,-547 1816.66,-529.57 1869.69,-514.76"/>
<polygon fill="black" stroke="black" points="1870.79,-518.09 1879.48,-512.03 1868.91,-511.35 1870.79,-518.09"/>
</g>
<!-- n23 -->
<g id="node6" class="node">
<title>n23</title>
<ellipse fill="none" stroke="black" cx="2371.92" cy="-481.29" rx="181.95" ry="37.45"/>
<text text-anchor="middle" x="2371.92" y="-492.59" font-family="Times,serif" font-size="14.00">.</text>
<text text-anchor="middle" x="2371.92" y="-477.59" font-family="Times,serif" font-size="14.00">fp (punct)</text>
<text text-anchor="middle" x="2371.92" y="-462.59" font-family="Times,serif" font-size="14.00">rep=no, t=no, r=no, m=no, c=no</text>
</g>
<!-- n16&#45;&gt;n23 -->
<g id="edge5" class="edge">
<title>n16&#45;&gt;n23</title>
<path fill="none" stroke="black" d="M1758.66,-573.97C1876.25,-560.79 2038.75,-541.12 2180.92,-518.77 2198.15,-516.06 2216.21,-512.95 2234.06,-509.73"/>
<polygon fill="black" stroke="black" points="2234.74,-513.16 2243.95,-507.92 2233.49,-506.28 2234.74,-513.16"/>
</g>
<!-- n10 -->
<g id="node7" class="node">
<title>n10</title>
<ellipse fill="#DA79E8" stroke="black" cx="1190.92" cy="-370.34" rx="190.84" ry="37.45"/>
<text text-anchor="middle" x="1190.92" y="-381.64" font-family="Times,serif" font-size="14.00">ser</text>
<text text-anchor="middle" x="1190.92" y="-366.64" font-family="Times,serif" font-size="14.00">vsn0000 (dobj)</text>
<text text-anchor="middle" x="1190.92" y="-351.64" font-family="Times,serif" font-size="14.00">rep=no, t=no, r=yes, m=yes, c=no</text>
</g>
<!-- n9&#45;&gt;n10 -->
<g id="edge6" class="edge">
<title>n9&#45;&gt;n10</title>
<path fill="none" stroke="black" d="M1197.56,-443.71C1196.81,-435.53 1196.01,-426.75 1195.22,-418.23"/>
<polygon fill="black" stroke="black" points="1198.68,-417.65 1194.28,-408.01 1191.71,-418.29 1198.68,-417.65"/>
</g>
<!-- n1 -->
<g id="node16" class="node">
<title>n1</title>
<ellipse fill="none" stroke="black" cx="1985.92" cy="-370.34" rx="185.94" ry="37.45"/>
<text text-anchor="middle" x="1985.92" y="-381.64" font-family="Times,serif" font-size="14.00">En</text>
<text text-anchor="middle" x="1985.92" y="-366.64" font-family="Times,serif" font-size="14.00">sps00 (advcl)</text>
<text text-anchor="middle" x="1985.92" y="-351.64" font-family="Times,serif" font-size="14.00">rep=no, t=no, r=no, m=yes, c=no</text>
</g>
<!-- n17&#45;&gt;n1 -->
<g id="edge15" class="edge">
<title>n17&#45;&gt;n1</title>
<path fill="none" stroke="black" d="M1985.92,-443.71C1985.92,-435.53 1985.92,-426.75 1985.92,-418.23"/>
<polygon fill="black" stroke="black" points="1989.42,-418.01 1985.92,-408.01 1982.42,-418.01 1989.42,-418.01"/>
</g>
<!-- n18 -->
<g id="node17" class="node">
<title>n18</title>
<ellipse fill="none" stroke="black" cx="2375.92" cy="-370.34" rx="185.94" ry="37.45"/>
<text text-anchor="middle" x="2375.92" y="-381.64" font-family="Times,serif" font-size="14.00">reñidos</text>
<text text-anchor="middle" x="2375.92" y="-366.64" font-family="Times,serif" font-size="14.00">aq0mpp (cpred)</text>
<text text-anchor="middle" x="2375.92" y="-351.64" font-family="Times,serif" font-size="14.00">rep=no, t=no, r=no, m=yes, c=no</text>
</g>
<!-- n17&#45;&gt;n18 -->
<g id="edge16" class="edge">
<title>n17&#45;&gt;n18</title>
<path fill="none" stroke="black" d="M2092.49,-450.52C2144.29,-436.05 2206.66,-418.62 2259.69,-403.81"/>
<polygon fill="black" stroke="black" points="2260.79,-407.13 2269.48,-401.07 2258.91,-400.39 2260.79,-407.13"/>
</g>
<!-- n6 -->
<g id="node8" class="node">
<title>n6</title>
<ellipse fill="#BEDA48" stroke="black" cx="390.92" cy="-259.38" rx="190.84" ry="37.45"/>
<text text-anchor="middle" x="390.92" y="-270.68" font-family="Times,serif" font-size="14.00">elementos</text>
<text text-anchor="middle" x="390.92" y="-255.68" font-family="Times,serif" font-size="14.00">ncmp000 (nsubj)</text>
<text text-anchor="middle" x="390.92" y="-240.68" font-family="Times,serif" font-size="14.00">rep=no, t=yes, r=no, m=yes, c=no</text>
</g>
<!-- n10&#45;&gt;n6 -->
<g id="edge7" class="edge">
<title>n10&#45;&gt;n6</title>
<path fill="none" stroke="black" d="M1024.38,-351.94C903.76,-338.68 736.93,-318.97 590.92,-296.86 572.87,-294.13 553.96,-291.01 535.26,-287.78"/>
<polygon fill="black" stroke="black" points="535.66,-284.29 525.21,-286.02 534.46,-291.19 535.66,-284.29"/>
</g>
<!-- n8 -->
<g id="node9" class="node">
<title>n8</title>
<ellipse fill="#DA79E8" stroke="black" cx="790.92" cy="-259.38" rx="190.84" ry="37.45"/>
<text text-anchor="middle" x="790.92" y="-270.68" font-family="Times,serif" font-size="14.00">no</text>
<text text-anchor="middle" x="790.92" y="-255.68" font-family="Times,serif" font-size="14.00">rn (neg)</text>
<text text-anchor="middle" x="790.92" y="-240.68" font-family="Times,serif" font-size="14.00">rep=no, t=no, r=yes, m=yes, c=no</text>
</g>
<!-- n10&#45;&gt;n8 -->
<g id="edge8" class="edge">
<title>n10&#45;&gt;n8</title>
<path fill="none" stroke="black" d="M1081.62,-339.56C1028.48,-325.09 964.51,-307.67 910.12,-292.85"/>
<polygon fill="black" stroke="black" points="911,-289.46 900.44,-290.21 909.16,-296.22 911,-289.46"/>
</g>
<!-- n11 -->
<g id="node10" class="node">
<title>n11</title>
<ellipse fill="#DA79E8" stroke="black" cx="1190.92" cy="-259.38" rx="190.84" ry="37.45"/>
<text text-anchor="middle" x="1190.92" y="-270.68" font-family="Times,serif" font-size="14.00">dejados</text>
<text text-anchor="middle" x="1190.92" y="-255.68" font-family="Times,serif" font-size="14.00">vmp00pm (attr)</text>
<text text-anchor="middle" x="1190.92" y="-240.68" font-family="Times,serif" font-size="14.00">rep=no, t=no, r=yes, m=yes, c=no</text>
</g>
<!-- n10&#45;&gt;n11 -->
<g id="edge9" class="edge">
<title>n10&#45;&gt;n11</title>
<path fill="none" stroke="black" d="M1190.92,-332.75C1190.92,-324.58 1190.92,-315.8 1190.92,-307.27"/>
<polygon fill="black" stroke="black" points="1194.42,-307.06 1190.92,-297.06 1187.42,-307.06 1194.42,-307.06"/>
</g>
<!-- n14 -->
<g id="node11" class="node">
<title>n14</title>
<ellipse fill="#DA79E8" stroke="black" cx="1590.92" cy="-259.38" rx="190.84" ry="37.45"/>
<text text-anchor="middle" x="1590.92" y="-270.68" font-family="Times,serif" font-size="14.00">,</text>
<text text-anchor="middle" x="1590.92" y="-255.68" font-family="Times,serif" font-size="14.00">fc (punct)</text>
<text text-anchor="middle" x="1590.92" y="-240.68" font-family="Times,serif" font-size="14.00">rep=no, t=no, r=yes, m=yes, c=no</text>
</g>
<!-- n10&#45;&gt;n14 -->
<g id="edge10" class="edge">
<title>n10&#45;&gt;n14</title>
<path fill="none" stroke="black" d="M1300.22,-339.56C1353.36,-325.09 1417.33,-307.67 1471.71,-292.85"/>
<polygon fill="black" stroke="black" points="1472.67,-296.22 1481.4,-290.21 1470.83,-289.46 1472.67,-296.22"/>
</g>
<!-- n5 -->
<g id="node12" class="node">
<title>n5</title>
<ellipse fill="#BEDA48" stroke="black" cx="190.92" cy="-148.43" rx="190.84" ry="37.45"/>
<text text-anchor="middle" x="190.92" y="-159.73" font-family="Times,serif" font-size="14.00">los</text>
<text text-anchor="middle" x="190.92" y="-144.73" font-family="Times,serif" font-size="14.00">da0mp0 (det)</text>
<text text-anchor="middle" x="190.92" y="-129.73" font-family="Times,serif" font-size="14.00">rep=no, t=yes, r=no, m=yes, c=no</text>
</g>
<!-- n6&#45;&gt;n5 -->
<g id="edge11" class="edge">
<title>n6&#45;&gt;n5</title>
<path fill="none" stroke="black" d="M327.64,-223.91C307.11,-212.73 284.18,-200.24 263.06,-188.73"/>
<polygon fill="black" stroke="black" points="264.59,-185.58 254.13,-183.87 261.24,-191.72 264.59,-185.58"/>
</g>
<!-- n7 -->
<g id="node13" class="node">
<title>n7</title>
<ellipse fill="#BEDA48" stroke="black" cx="590.92" cy="-148.43" rx="190.84" ry="37.45"/>
<text text-anchor="middle" x="590.92" y="-159.73" font-family="Times,serif" font-size="14.00">políticos</text>
<text text-anchor="middle" x="590.92" y="-144.73" font-family="Times,serif" font-size="14.00">aq0mp0 (amod)</text>
<text text-anchor="middle" x="590.92" y="-129.73" font-family="Times,serif" font-size="14.00">rep=no, t=yes, r=no, m=yes, c=no</text>
</g>
<!-- n6&#45;&gt;n7 -->
<g id="edge12" class="edge">
<title>n6&#45;&gt;n7</title>
<path fill="none" stroke="black" d="M454.2,-223.91C474.73,-212.73 497.65,-200.24 518.78,-188.73"/>
<polygon fill="black" stroke="black" points="520.6,-191.72 527.71,-183.87 517.25,-185.58 520.6,-191.72"/>
</g>
<!-- n12 -->
<g id="node14" class="node">
<title>n12</title>
<ellipse fill="#DA79E8" stroke="black" cx="1190.92" cy="-148.43" rx="190.84" ry="37.45"/>
<text text-anchor="middle" x="1190.92" y="-159.73" font-family="Times,serif" font-size="14.00">de</text>
<text text-anchor="middle" x="1190.92" y="-144.73" font-family="Times,serif" font-size="14.00">sps00 (prepv)</text>
<text text-anchor="middle" x="1190.92" y="-129.73" font-family="Times,serif" font-size="14.00">rep=no, t=no, r=yes, m=yes, c=no</text>
</g>
<!-- n11&#45;&gt;n12 -->
<g id="edge13" class="edge">
<title>n11&#45;&gt;n12</title>
<path fill="none" stroke="black" d="M1190.92,-221.8C1190.92,-213.63 1190.92,-204.85 1190.92,-196.32"/>
<polygon fill="black" stroke="black" points="1194.42,-196.1 1190.92,-186.1 1187.42,-196.1 1194.42,-196.1"/>
</g>
<!-- n13 -->
<g id="node15" class="node">
<title>n13</title>
<ellipse fill="#DA79E8" stroke="black" cx="1190.92" cy="-37.48" rx="190.84" ry="37.45"/>
<text text-anchor="middle" x="1190.92" y="-48.78" font-family="Times,serif" font-size="14.00">lado</text>
<text text-anchor="middle" x="1190.92" y="-33.78" font-family="Times,serif" font-size="14.00">ncms000 (pobj)</text>
<text text-anchor="middle" x="1190.92" y="-18.78" font-family="Times,serif" font-size="14.00">rep=no, t=no, r=yes, m=yes, c=no</text>
</g>
<!-- n12&#45;&gt;n13 -->
<g id="edge14" class="edge">
<title>n12&#45;&gt;n13</title>
<path fill="none" stroke="black" d="M1190.92,-110.85C1190.92,-102.67 1190.92,-93.89 1190.92,-85.37"/>
<polygon fill="black" stroke="black" points="1194.42,-85.15 1190.92,-75.15 1187.42,-85.15 1194.42,-85.15"/>
</g>
<!-- n3 -->
<g id="node18" class="node">
<title>n3</title>
<ellipse fill="none" stroke="black" cx="1985.92" cy="-259.38" rx="185.94" ry="37.45"/>
<text text-anchor="middle" x="1985.92" y="-270.68" font-family="Times,serif" font-size="14.00">opinión</text>
<text text-anchor="middle" x="1985.92" y="-255.68" font-family="Times,serif" font-size="14.00">ncfs000 (pobj)</text>
<text text-anchor="middle" x="1985.92" y="-240.68" font-family="Times,serif" font-size="14.00">rep=no, t=no, r=no, m=yes, c=no</text>
</g>
<!-- n1&#45;&gt;n3 -->
<g id="edge17" class="edge">
<title>n1&#45;&gt;n3</title>
<path fill="none" stroke="black" d="M1985.92,-332.75C1985.92,-324.58 1985.92,-315.8 1985.92,-307.27"/>
<polygon fill="black" stroke="black" points="1989.42,-307.06 1985.92,-297.06 1982.42,-307.06 1989.42,-307.06"/>
</g>
<!-- n19 -->
<g id="node20" class="node">
<title>n19</title>
<ellipse fill="none" stroke="black" cx="2375.92" cy="-259.38" rx="185.94" ry="37.45"/>
<text text-anchor="middle" x="2375.92" y="-270.68" font-family="Times,serif" font-size="14.00">con</text>
<text text-anchor="middle" x="2375.92" y="-255.68" font-family="Times,serif" font-size="14.00">sps00 (oobj)</text>
<text text-anchor="middle" x="2375.92" y="-240.68" font-family="Times,serif" font-size="14.00">rep=no, t=no, r=no, m=yes, c=no</text>
</g>
<!-- n18&#45;&gt;n19 -->
<g id="edge19" class="edge">
<title>n18&#45;&gt;n19</title>
<path fill="none" stroke="black" d="M2375.92,-332.75C2375.92,-324.58 2375.92,-315.8 2375.92,-307.27"/>
<polygon fill="black" stroke="black" points="2379.42,-307.06 2375.92,-297.06 2372.42,-307.06 2379.42,-307.06"/>
</g>
<!-- n2 -->
<g id="node19" class="node">
<title>n2</title>
<ellipse fill="none" stroke="black" cx="1985.92" cy="-148.43" rx="185.94" ry="37.45"/>
<text text-anchor="middle" x="1985.92" y="-159.73" font-family="Times,serif" font-size="14.00">su</text>
<text text-anchor="middle" x="1985.92" y="-144.73" font-family="Times,serif" font-size="14.00">dp3cs0 (poss)</text>
<text text-anchor="middle" x="1985.92" y="-129.73" font-family="Times,serif" font-size="14.00">rep=no, t=no, r=no, m=yes, c=no</text>
</g>
<!-- n3&#45;&gt;n2 -->
<g id="edge18" class="edge">
<title>n3&#45;&gt;n2</title>
<path fill="none" stroke="black" d="M1985.92,-221.8C1985.92,-213.63 1985.92,-204.85 1985.92,-196.32"/>
<polygon fill="black" stroke="black" points="1989.42,-196.1 1985.92,-186.1 1982.42,-196.1 1989.42,-196.1"/>
</g>
<!-- n21 -->
<g id="node21" class="node">
<title>n21</title>
<ellipse fill="none" stroke="black" cx="2375.92" cy="-148.43" rx="185.94" ry="37.45"/>
<text text-anchor="middle" x="2375.92" y="-159.73" font-family="Times,serif" font-size="14.00">aspectos</text>
<text text-anchor="middle" x="2375.92" y="-144.73" font-family="Times,serif" font-size="14.00">ncmp000 (pobj)</text>
<text text-anchor="middle" x="2375.92" y="-129.73" font-family="Times,serif" font-size="14.00">rep=no, t=no, r=no, m=yes, c=no</text>
</g>
<!-- n19&#45;&gt;n21 -->
<g id="edge20" class="edge">
<title>n19&#45;&gt;n21</title>
<path fill="none" stroke="black" d="M2375.92,-221.8C2375.92,-213.63 2375.92,-204.85 2375.92,-196.32"/>
<polygon fill="black" stroke="black" points="2379.42,-196.1 2375.92,-186.1 2372.42,-196.1 2379.42,-196.1"/>
</g>
<!-- n20 -->
<g id="node22" class="node">
<title>n20</title>
<ellipse fill="none" stroke="black" cx="2180.92" cy="-37.48" rx="185.94" ry="37.45"/>
<text text-anchor="middle" x="2180.92" y="-48.78" font-family="Times,serif" font-size="14.00">los</text>
<text text-anchor="middle" x="2180.92" y="-33.78" font-family="Times,serif" font-size="14.00">da0mp0 (det)</text>
<text text-anchor="middle" x="2180.92" y="-18.78" font-family="Times,serif" font-size="14.00">rep=no, t=no, r=no, m=yes, c=no</text>
</g>
<!-- n21&#45;&gt;n20 -->
<g id="edge21" class="edge">
<title>n21&#45;&gt;n20</title>
<path fill="none" stroke="black" d="M2314.22,-112.96C2294.29,-101.82 2272.05,-89.4 2251.53,-77.93"/>
<polygon fill="black" stroke="black" points="2252.99,-74.74 2242.55,-72.91 2249.57,-80.85 2252.99,-74.74"/>
</g>
<!-- n22 -->
<g id="node23" class="node">
<title>n22</title>
<ellipse fill="none" stroke="black" cx="2570.92" cy="-37.48" rx="185.94" ry="37.45"/>
<text text-anchor="middle" x="2570.92" y="-48.78" font-family="Times,serif" font-size="14.00">judiciales</text>
<text text-anchor="middle" x="2570.92" y="-33.78" font-family="Times,serif" font-size="14.00">aq0cp0 (amod)</text>
<text text-anchor="middle" x="2570.92" y="-18.78" font-family="Times,serif" font-size="14.00">rep=no, t=no, r=no, m=yes, c=no</text>
</g>
<!-- n21&#45;&gt;n22 -->
<g id="edge22" class="edge">
<title>n21&#45;&gt;n22</title>
<path fill="none" stroke="black" d="M2437.62,-112.96C2457.54,-101.82 2479.79,-89.4 2500.3,-77.93"/>
<polygon fill="black" stroke="black" points="2502.26,-80.85 2509.29,-72.91 2498.85,-74.74 2502.26,-80.85"/>
</g>
</g>
</svg>
