<?xml version="1.0" encoding="UTF-8" standalone="no"?>
<!DOCTYPE svg PUBLIC "-//W3C//DTD SVG 1.1//EN"
 "http://www.w3.org/Graphics/SVG/1.1/DTD/svg11.dtd">
<!-- Generated by graphviz version 2.43.0 (0)
 -->
<!-- Title: tree Pages: 1 -->
<svg width="6390pt" height="1414pt"
 viewBox="0.00 0.00 6389.84 1414.39" xmlns="http://www.w3.org/2000/svg" xmlns:xlink="http://www.w3.org/1999/xlink">
<g id="graph0" class="graph" transform="scale(1 1) rotate(0) translate(4 1410.39)">
<title>tree</title>
<polygon fill="white" stroke="transparent" points="-4,4 -4,-1410.39 6385.84,-1410.39 6385.84,4 -4,4"/>
<!-- n3 -->
<g id="node1" class="node">
<title>n3</title>
<ellipse fill="#98D2A5" stroke="black" cx="1184.92" cy="-1368.92" rx="190.84" ry="37.45"/>
<text text-anchor="middle" x="1184.92" y="-1380.22" font-family="Times,serif" font-size="14.00">situaban</text>
<text text-anchor="middle" x="1184.92" y="-1365.22" font-family="Times,serif" font-size="14.00">vmii3p0 (root)</text>
<text text-anchor="middle" x="1184.92" y="-1350.22" font-family="Times,serif" font-size="14.00">rep=no, t=no, r=yes, m=yes, c=no</text>
</g>
<!-- n2 -->
<g id="node2" class="node">
<title>n2</title>
<ellipse fill="#98D2A5" stroke="black" cx="582.92" cy="-1257.96" rx="190.84" ry="37.45"/>
<text text-anchor="middle" x="582.92" y="-1269.26" font-family="Times,serif" font-size="14.00">pronósticos</text>
<text text-anchor="middle" x="582.92" y="-1254.26" font-family="Times,serif" font-size="14.00">ncmp000 (nsubj)</text>
<text text-anchor="middle" x="582.92" y="-1239.26" font-family="Times,serif" font-size="14.00">rep=no, t=yes, r=no, m=yes, c=no</text>
</g>
<!-- n3&#45;&gt;n2 -->
<g id="edge1" class="edge">
<title>n3&#45;&gt;n2</title>
<path fill="none" stroke="black" d="M1046.3,-1343C968.81,-1329.05 870.49,-1311.32 782.92,-1295.44 765.85,-1292.34 747.96,-1289.09 730.2,-1285.86"/>
<polygon fill="black" stroke="black" points="730.82,-1282.42 720.35,-1284.07 729.57,-1289.3 730.82,-1282.42"/>
</g>
<!-- n4 -->
<g id="node3" class="node">
<title>n4</title>
<ellipse fill="#98D2A5" stroke="black" cx="982.92" cy="-1257.96" rx="190.84" ry="37.45"/>
<text text-anchor="middle" x="982.92" y="-1269.26" font-family="Times,serif" font-size="14.00">como</text>
<text text-anchor="middle" x="982.92" y="-1254.26" font-family="Times,serif" font-size="14.00">cs (cpred)</text>
<text text-anchor="middle" x="982.92" y="-1239.26" font-family="Times,serif" font-size="14.00">rep=no, t=no, r=yes, m=yes, c=no</text>
</g>
<!-- n3&#45;&gt;n4 -->
<g id="edge2" class="edge">
<title>n3&#45;&gt;n4</title>
<path fill="none" stroke="black" d="M1121,-1333.44C1100.27,-1322.26 1077.12,-1309.77 1055.78,-1298.26"/>
<polygon fill="black" stroke="black" points="1057.23,-1295.07 1046.76,-1293.4 1053.9,-1301.23 1057.23,-1295.07"/>
</g>
<!-- n7 -->
<g id="node4" class="node">
<title>n7</title>
<ellipse fill="#98D2A5" stroke="black" cx="1590.92" cy="-1257.96" rx="190.84" ry="37.45"/>
<text text-anchor="middle" x="1590.92" y="-1269.26" font-family="Times,serif" font-size="14.00">a</text>
<text text-anchor="middle" x="1590.92" y="-1254.26" font-family="Times,serif" font-size="14.00">sps00 (dobj)</text>
<text text-anchor="middle" x="1590.92" y="-1239.26" font-family="Times,serif" font-size="14.00">rep=no, t=no, r=yes, m=yes, c=no</text>
</g>
<!-- n3&#45;&gt;n7 -->
<g id="edge3" class="edge">
<title>n3&#45;&gt;n7</title>
<path fill="none" stroke="black" d="M1295.32,-1338.29C1349.59,-1323.72 1415.1,-1306.14 1470.64,-1291.24"/>
<polygon fill="black" stroke="black" points="1471.78,-1294.56 1480.54,-1288.59 1469.97,-1287.8 1471.78,-1294.56"/>
</g>
<!-- n49 -->
<g id="node5" class="node">
<title>n49</title>
<ellipse fill="none" stroke="black" cx="1981.92" cy="-1257.96" rx="181.95" ry="37.45"/>
<text text-anchor="middle" x="1981.92" y="-1269.26" font-family="Times,serif" font-size="14.00">.</text>
<text text-anchor="middle" x="1981.92" y="-1254.26" font-family="Times,serif" font-size="14.00">fp (punct)</text>
<text text-anchor="middle" x="1981.92" y="-1239.26" font-family="Times,serif" font-size="14.00">rep=no, t=no, r=no, m=no, c=no</text>
</g>
<!-- n3&#45;&gt;n49 -->
<g id="edge4" class="edge">
<title>n3&#45;&gt;n49</title>
<path fill="none" stroke="black" d="M1352.86,-1351.01C1474.74,-1337.96 1643.41,-1318.32 1790.92,-1295.44 1808.16,-1292.77 1826.22,-1289.69 1844.07,-1286.47"/>
<polygon fill="black" stroke="black" points="1844.75,-1289.9 1853.96,-1284.67 1843.5,-1283.02 1844.75,-1289.9"/>
</g>
<!-- n1 -->
<g id="node6" class="node">
<title>n1</title>
<ellipse fill="#98D2A5" stroke="black" cx="580.92" cy="-1147.01" rx="190.84" ry="37.45"/>
<text text-anchor="middle" x="580.92" y="-1158.31" font-family="Times,serif" font-size="14.00">Los</text>
<text text-anchor="middle" x="580.92" y="-1143.31" font-family="Times,serif" font-size="14.00">da0mp0 (det)</text>
<text text-anchor="middle" x="580.92" y="-1128.31" font-family="Times,serif" font-size="14.00">rep=no, t=yes, r=no, m=yes, c=no</text>
</g>
<!-- n2&#45;&gt;n1 -->
<g id="edge5" class="edge">
<title>n2&#45;&gt;n1</title>
<path fill="none" stroke="black" d="M582.25,-1220.38C582.1,-1212.21 581.94,-1203.43 581.78,-1194.9"/>
<polygon fill="black" stroke="black" points="585.28,-1194.62 581.59,-1184.68 578.28,-1194.74 585.28,-1194.62"/>
</g>
<!-- n6 -->
<g id="node7" class="node">
<title>n6</title>
<ellipse fill="#98D2A5" stroke="black" cx="980.92" cy="-1147.01" rx="190.84" ry="37.45"/>
<text text-anchor="middle" x="980.92" y="-1158.31" font-family="Times,serif" font-size="14.00">favoritos</text>
<text text-anchor="middle" x="980.92" y="-1143.31" font-family="Times,serif" font-size="14.00">ncmp000 (cobj)</text>
<text text-anchor="middle" x="980.92" y="-1128.31" font-family="Times,serif" font-size="14.00">rep=no, t=no, r=yes, m=yes, c=no</text>
</g>
<!-- n4&#45;&gt;n6 -->
<g id="edge6" class="edge">
<title>n4&#45;&gt;n6</title>
<path fill="none" stroke="black" d="M982.25,-1220.38C982.1,-1212.21 981.94,-1203.43 981.78,-1194.9"/>
<polygon fill="black" stroke="black" points="985.28,-1194.62 981.59,-1184.68 978.28,-1194.74 985.28,-1194.62"/>
</g>
<!-- n9 -->
<g id="node9" class="node">
<title>n9</title>
<ellipse fill="#98D2A5" stroke="black" cx="1385.92" cy="-1147.01" rx="195.74" ry="37.45"/>
<text text-anchor="middle" x="1385.92" y="-1158.31" font-family="Times,serif" font-size="14.00">Unión</text>
<text text-anchor="middle" x="1385.92" y="-1143.31" font-family="Times,serif" font-size="14.00">np00000 (pobj)</text>
<text text-anchor="middle" x="1385.92" y="-1128.31" font-family="Times,serif" font-size="14.00">rep=no, t=no, r=yes, m=yes, c=yes</text>
</g>
<!-- n7&#45;&gt;n9 -->
<g id="edge8" class="edge">
<title>n7&#45;&gt;n9</title>
<path fill="none" stroke="black" d="M1526.34,-1222.64C1505.19,-1211.4 1481.54,-1198.83 1459.76,-1187.26"/>
<polygon fill="black" stroke="black" points="1461.35,-1184.14 1450.88,-1182.54 1458.07,-1190.32 1461.35,-1184.14"/>
</g>
<!-- n16 -->
<g id="node10" class="node">
<title>n16</title>
<ellipse fill="#98D2A5" stroke="black" cx="1795.92" cy="-1147.01" rx="195.74" ry="37.45"/>
<text text-anchor="middle" x="1795.92" y="-1158.31" font-family="Times,serif" font-size="14.00">partido</text>
<text text-anchor="middle" x="1795.92" y="-1143.31" font-family="Times,serif" font-size="14.00">ncms000 (pobj)</text>
<text text-anchor="middle" x="1795.92" y="-1128.31" font-family="Times,serif" font-size="14.00">rep=no, t=no, r=yes, m=yes, c=yes</text>
</g>
<!-- n7&#45;&gt;n16 -->
<g id="edge9" class="edge">
<title>n7&#45;&gt;n16</title>
<path fill="none" stroke="black" d="M1655.5,-1222.64C1676.65,-1211.4 1700.3,-1198.83 1722.07,-1187.26"/>
<polygon fill="black" stroke="black" points="1723.77,-1190.32 1730.96,-1182.54 1720.48,-1184.14 1723.77,-1190.32"/>
</g>
<!-- n20 -->
<g id="node11" class="node">
<title>n20</title>
<ellipse fill="#98D2A5" stroke="black" cx="2590.92" cy="-1147.01" rx="190.84" ry="37.45"/>
<text text-anchor="middle" x="2590.92" y="-1158.31" font-family="Times,serif" font-size="14.00">y</text>
<text text-anchor="middle" x="2590.92" y="-1143.31" font-family="Times,serif" font-size="14.00">cc (coord_fixed)</text>
<text text-anchor="middle" x="2590.92" y="-1128.31" font-family="Times,serif" font-size="14.00">rep=no, t=no, r=yes, m=yes, c=no</text>
</g>
<!-- n7&#45;&gt;n20 -->
<g id="edge10" class="edge">
<title>n7&#45;&gt;n20</title>
<path fill="none" stroke="black" d="M1723.78,-1231C1746.14,-1227.13 1769.15,-1223.45 1790.92,-1220.49 1998.68,-1192.19 2238.35,-1172.13 2400.78,-1160.39"/>
<polygon fill="black" stroke="black" points="2401.16,-1163.88 2410.88,-1159.67 2400.65,-1156.89 2401.16,-1163.88"/>
</g>
<!-- n22 -->
<g id="node12" class="node">
<title>n22</title>
<ellipse fill="#98D2A5" stroke="black" cx="3790.92" cy="-1147.01" rx="195.74" ry="37.45"/>
<text text-anchor="middle" x="3790.92" y="-1158.31" font-family="Times,serif" font-size="14.00">bloque</text>
<text text-anchor="middle" x="3790.92" y="-1143.31" font-family="Times,serif" font-size="14.00">ncms000 (pobj)</text>
<text text-anchor="middle" x="3790.92" y="-1128.31" font-family="Times,serif" font-size="14.00">rep=no, t=no, r=yes, m=yes, c=yes</text>
</g>
<!-- n7&#45;&gt;n22 -->
<g id="edge11" class="edge">
<title>n7&#45;&gt;n22</title>
<path fill="none" stroke="black" d="M1720.97,-1230.44C1744.18,-1226.51 1768.2,-1222.95 1790.92,-1220.49 2233.05,-1172.46 2346.48,-1200.59 2790.92,-1184.49 3067.5,-1174.46 3387.11,-1162.79 3589.09,-1155.4"/>
<polygon fill="black" stroke="black" points="3589.35,-1158.89 3599.21,-1155.03 3589.09,-1151.9 3589.35,-1158.89"/>
</g>
<!-- n5 -->
<g id="node8" class="node">
<title>n5</title>
<ellipse fill="#98D2A5" stroke="black" cx="190.92" cy="-1036.06" rx="190.84" ry="37.45"/>
<text text-anchor="middle" x="190.92" y="-1047.36" font-family="Times,serif" font-size="14.00">principales</text>
<text text-anchor="middle" x="190.92" y="-1032.36" font-family="Times,serif" font-size="14.00">aq0cp0 (amod)</text>
<text text-anchor="middle" x="190.92" y="-1017.36" font-family="Times,serif" font-size="14.00">rep=no, t=no, r=yes, m=yes, c=no</text>
</g>
<!-- n6&#45;&gt;n5 -->
<g id="edge7" class="edge">
<title>n6&#45;&gt;n5</title>
<path fill="none" stroke="black" d="M848.05,-1120.08C825.69,-1116.21 802.69,-1112.52 780.92,-1109.53 608.46,-1085.89 563.38,-1097.17 390.92,-1073.53 372.38,-1070.99 352.95,-1067.94 333.78,-1064.7"/>
<polygon fill="black" stroke="black" points="334.23,-1061.22 323.79,-1062.98 333.05,-1068.12 334.23,-1061.22"/>
</g>
<!-- n8 -->
<g id="node13" class="node">
<title>n8</title>
<ellipse fill="#98D2A5" stroke="black" cx="590.92" cy="-1036.06" rx="190.84" ry="37.45"/>
<text text-anchor="middle" x="590.92" y="-1047.36" font-family="Times,serif" font-size="14.00">la</text>
<text text-anchor="middle" x="590.92" y="-1032.36" font-family="Times,serif" font-size="14.00">da0fs0 (det)</text>
<text text-anchor="middle" x="590.92" y="-1017.36" font-family="Times,serif" font-size="14.00">rep=no, t=no, r=yes, m=yes, c=no</text>
</g>
<!-- n9&#45;&gt;n8 -->
<g id="edge12" class="edge">
<title>n9&#45;&gt;n8</title>
<path fill="none" stroke="black" d="M1249.43,-1120.08C1226.61,-1116.21 1203.13,-1112.53 1180.92,-1109.53 1008.41,-1086.27 963.38,-1097.17 790.92,-1073.53 772.38,-1070.99 752.95,-1067.94 733.78,-1064.7"/>
<polygon fill="black" stroke="black" points="734.23,-1061.22 723.79,-1062.98 733.05,-1068.12 734.23,-1061.22"/>
</g>
<!-- n10 -->
<g id="node14" class="node">
<title>n10</title>
<ellipse fill="#98D2A5" stroke="black" cx="990.92" cy="-1036.06" rx="190.84" ry="37.45"/>
<text text-anchor="middle" x="990.92" y="-1047.36" font-family="Times,serif" font-size="14.00">de</text>
<text text-anchor="middle" x="990.92" y="-1032.36" font-family="Times,serif" font-size="14.00">sps00 (prepn)</text>
<text text-anchor="middle" x="990.92" y="-1017.36" font-family="Times,serif" font-size="14.00">rep=no, t=no, r=yes, m=yes, c=no</text>
</g>
<!-- n9&#45;&gt;n10 -->
<g id="edge13" class="edge">
<title>n9&#45;&gt;n10</title>
<path fill="none" stroke="black" d="M1276.68,-1115.88C1224.66,-1101.53 1162.35,-1084.34 1109.22,-1069.69"/>
<polygon fill="black" stroke="black" points="1109.98,-1066.27 1099.41,-1066.98 1108.12,-1073.01 1109.98,-1066.27"/>
</g>
<!-- n12 -->
<g id="node15" class="node">
<title>n12</title>
<ellipse fill="#98D2A5" stroke="black" cx="1390.92" cy="-1036.06" rx="190.84" ry="37.45"/>
<text text-anchor="middle" x="1390.92" y="-1047.36" font-family="Times,serif" font-size="14.00">de</text>
<text text-anchor="middle" x="1390.92" y="-1032.36" font-family="Times,serif" font-size="14.00">sps00 (prepn)</text>
<text text-anchor="middle" x="1390.92" y="-1017.36" font-family="Times,serif" font-size="14.00">rep=no, t=no, r=yes, m=yes, c=no</text>
</g>
<!-- n9&#45;&gt;n12 -->
<g id="edge14" class="edge">
<title>n9&#45;&gt;n12</title>
<path fill="none" stroke="black" d="M1387.6,-1109.43C1387.97,-1101.25 1388.38,-1092.47 1388.77,-1083.95"/>
<polygon fill="black" stroke="black" points="1392.27,-1083.88 1389.24,-1073.73 1385.28,-1083.56 1392.27,-1083.88"/>
</g>
<!-- n15 -->
<g id="node18" class="node">
<title>n15</title>
<ellipse fill="#98D2A5" stroke="black" cx="1790.92" cy="-1036.06" rx="190.84" ry="37.45"/>
<text text-anchor="middle" x="1790.92" y="-1047.36" font-family="Times,serif" font-size="14.00">el</text>
<text text-anchor="middle" x="1790.92" y="-1032.36" font-family="Times,serif" font-size="14.00">da0ms0 (det)</text>
<text text-anchor="middle" x="1790.92" y="-1017.36" font-family="Times,serif" font-size="14.00">rep=no, t=no, r=yes, m=yes, c=no</text>
</g>
<!-- n16&#45;&gt;n15 -->
<g id="edge17" class="edge">
<title>n16&#45;&gt;n15</title>
<path fill="none" stroke="black" d="M1794.24,-1109.43C1793.86,-1101.25 1793.46,-1092.47 1793.07,-1083.95"/>
<polygon fill="black" stroke="black" points="1796.56,-1083.56 1792.6,-1073.73 1789.56,-1083.88 1796.56,-1083.56"/>
</g>
<!-- n17 -->
<g id="node19" class="node">
<title>n17</title>
<ellipse fill="#98D2A5" stroke="black" cx="2190.92" cy="-1036.06" rx="190.84" ry="37.45"/>
<text text-anchor="middle" x="2190.92" y="-1047.36" font-family="Times,serif" font-size="14.00">de</text>
<text text-anchor="middle" x="2190.92" y="-1032.36" font-family="Times,serif" font-size="14.00">sps00 (prepn)</text>
<text text-anchor="middle" x="2190.92" y="-1017.36" font-family="Times,serif" font-size="14.00">rep=no, t=no, r=yes, m=yes, c=no</text>
</g>
<!-- n16&#45;&gt;n17 -->
<g id="edge18" class="edge">
<title>n16&#45;&gt;n17</title>
<path fill="none" stroke="black" d="M1905.16,-1115.88C1957.18,-1101.53 2019.48,-1084.34 2072.62,-1069.69"/>
<polygon fill="black" stroke="black" points="2073.72,-1073.01 2082.43,-1066.98 2071.86,-1066.27 2073.72,-1073.01"/>
</g>
<!-- n14 -->
<g id="node21" class="node">
<title>n14</title>
<ellipse fill="#98D2A5" stroke="black" cx="2590.92" cy="-1036.06" rx="190.84" ry="37.45"/>
<text text-anchor="middle" x="2590.92" y="-1047.36" font-family="Times,serif" font-size="14.00">,</text>
<text text-anchor="middle" x="2590.92" y="-1032.36" font-family="Times,serif" font-size="14.00">fc (punct)</text>
<text text-anchor="middle" x="2590.92" y="-1017.36" font-family="Times,serif" font-size="14.00">rep=no, t=no, r=yes, m=yes, c=no</text>
</g>
<!-- n20&#45;&gt;n14 -->
<g id="edge20" class="edge">
<title>n20&#45;&gt;n14</title>
<path fill="none" stroke="black" d="M2590.92,-1109.43C2590.92,-1101.25 2590.92,-1092.47 2590.92,-1083.95"/>
<polygon fill="black" stroke="black" points="2594.42,-1083.73 2590.92,-1073.73 2587.42,-1083.73 2594.42,-1083.73"/>
</g>
<!-- n19 -->
<g id="node22" class="node">
<title>n19</title>
<ellipse fill="#98D2A5" stroke="black" cx="2990.92" cy="-1036.06" rx="190.84" ry="37.45"/>
<text text-anchor="middle" x="2990.92" y="-1047.36" font-family="Times,serif" font-size="14.00">,</text>
<text text-anchor="middle" x="2990.92" y="-1032.36" font-family="Times,serif" font-size="14.00">fc (punct)</text>
<text text-anchor="middle" x="2990.92" y="-1017.36" font-family="Times,serif" font-size="14.00">rep=no, t=no, r=yes, m=yes, c=no</text>
</g>
<!-- n20&#45;&gt;n19 -->
<g id="edge21" class="edge">
<title>n20&#45;&gt;n19</title>
<path fill="none" stroke="black" d="M2700.22,-1116.24C2753.36,-1101.76 2817.33,-1084.34 2871.71,-1069.53"/>
<polygon fill="black" stroke="black" points="2872.67,-1072.89 2881.4,-1066.89 2870.83,-1066.14 2872.67,-1072.89"/>
</g>
<!-- n21 -->
<g id="node23" class="node">
<title>n21</title>
<ellipse fill="#98D2A5" stroke="black" cx="3390.92" cy="-1036.06" rx="190.84" ry="37.45"/>
<text text-anchor="middle" x="3390.92" y="-1047.36" font-family="Times,serif" font-size="14.00">el</text>
<text text-anchor="middle" x="3390.92" y="-1032.36" font-family="Times,serif" font-size="14.00">da0ms0 (det)</text>
<text text-anchor="middle" x="3390.92" y="-1017.36" font-family="Times,serif" font-size="14.00">rep=no, t=no, r=yes, m=yes, c=no</text>
</g>
<!-- n22&#45;&gt;n21 -->
<g id="edge22" class="edge">
<title>n22&#45;&gt;n21</title>
<path fill="none" stroke="black" d="M3680.56,-1115.95C3627.66,-1101.54 3564.21,-1084.26 3510.2,-1069.55"/>
<polygon fill="black" stroke="black" points="3510.8,-1066.08 3500.23,-1066.83 3508.96,-1072.84 3510.8,-1066.08"/>
</g>
<!-- n23 -->
<g id="node24" class="node">
<title>n23</title>
<ellipse fill="#98D2A5" stroke="black" cx="3790.92" cy="-1036.06" rx="190.84" ry="37.45"/>
<text text-anchor="middle" x="3790.92" y="-1047.36" font-family="Times,serif" font-size="14.00">Renovación</text>
<text text-anchor="middle" x="3790.92" y="-1032.36" font-family="Times,serif" font-size="14.00">np00000 (appos)</text>
<text text-anchor="middle" x="3790.92" y="-1017.36" font-family="Times,serif" font-size="14.00">rep=no, t=no, r=yes, m=yes, c=no</text>
</g>
<!-- n22&#45;&gt;n23 -->
<g id="edge23" class="edge">
<title>n22&#45;&gt;n23</title>
<path fill="none" stroke="black" d="M3790.92,-1109.43C3790.92,-1101.25 3790.92,-1092.47 3790.92,-1083.95"/>
<polygon fill="black" stroke="black" points="3794.42,-1083.73 3790.92,-1073.73 3787.42,-1083.73 3794.42,-1083.73"/>
</g>
<!-- n24 -->
<g id="node25" class="node">
<title>n24</title>
<ellipse fill="#98D2A5" stroke="black" cx="4190.92" cy="-1036.06" rx="190.84" ry="37.45"/>
<text text-anchor="middle" x="4190.92" y="-1047.36" font-family="Times,serif" font-size="14.00">,</text>
<text text-anchor="middle" x="4190.92" y="-1032.36" font-family="Times,serif" font-size="14.00">fc (punct)</text>
<text text-anchor="middle" x="4190.92" y="-1017.36" font-family="Times,serif" font-size="14.00">rep=no, t=no, r=yes, m=yes, c=no</text>
</g>
<!-- n22&#45;&gt;n24 -->
<g id="edge24" class="edge">
<title>n22&#45;&gt;n24</title>
<path fill="none" stroke="black" d="M3901.28,-1115.95C3954.18,-1101.54 4017.63,-1084.26 4071.64,-1069.55"/>
<polygon fill="black" stroke="black" points="4072.88,-1072.84 4081.61,-1066.83 4071.04,-1066.08 4072.88,-1072.84"/>
</g>
<!-- n25 -->
<g id="node26" class="node">
<title>n25</title>
<ellipse fill="#98D2A5" stroke="black" cx="4590.92" cy="-1036.06" rx="190.84" ry="37.45"/>
<text text-anchor="middle" x="4590.92" y="-1047.36" font-family="Times,serif" font-size="14.00">del</text>
<text text-anchor="middle" x="4590.92" y="-1032.36" font-family="Times,serif" font-size="14.00">spcms (prepn)</text>
<text text-anchor="middle" x="4590.92" y="-1017.36" font-family="Times,serif" font-size="14.00">rep=no, t=no, r=yes, m=yes, c=no</text>
</g>
<!-- n22&#45;&gt;n25 -->
<g id="edge25" class="edge">
<title>n22&#45;&gt;n25</title>
<path fill="none" stroke="black" d="M3960.69,-1128.26C4081.04,-1115 4246.2,-1095.45 4390.92,-1073.53 4408.96,-1070.8 4427.88,-1067.68 4446.57,-1064.45"/>
<polygon fill="black" stroke="black" points="4447.38,-1067.86 4456.63,-1062.7 4446.17,-1060.97 4447.38,-1067.86"/>
</g>
<!-- n11 -->
<g id="node16" class="node">
<title>n11</title>
<ellipse fill="#98D2A5" stroke="black" cx="990.92" cy="-925.1" rx="190.84" ry="37.45"/>
<text text-anchor="middle" x="990.92" y="-936.4" font-family="Times,serif" font-size="14.00">Ciudadanos</text>
<text text-anchor="middle" x="990.92" y="-921.4" font-family="Times,serif" font-size="14.00">ncfs000 (pobj)</text>
<text text-anchor="middle" x="990.92" y="-906.4" font-family="Times,serif" font-size="14.00">rep=no, t=no, r=yes, m=yes, c=no</text>
</g>
<!-- n10&#45;&gt;n11 -->
<g id="edge15" class="edge">
<title>n10&#45;&gt;n11</title>
<path fill="none" stroke="black" d="M990.92,-998.47C990.92,-990.3 990.92,-981.52 990.92,-972.99"/>
<polygon fill="black" stroke="black" points="994.42,-972.78 990.92,-962.78 987.42,-972.78 994.42,-972.78"/>
</g>
<!-- n13 -->
<g id="node17" class="node">
<title>n13</title>
<ellipse fill="#98D2A5" stroke="black" cx="1390.92" cy="-925.1" rx="190.84" ry="37.45"/>
<text text-anchor="middle" x="1390.92" y="-936.4" font-family="Times,serif" font-size="14.00">Georgia</text>
<text text-anchor="middle" x="1390.92" y="-921.4" font-family="Times,serif" font-size="14.00">np00000 (pobj)</text>
<text text-anchor="middle" x="1390.92" y="-906.4" font-family="Times,serif" font-size="14.00">rep=no, t=no, r=yes, m=yes, c=no</text>
</g>
<!-- n12&#45;&gt;n13 -->
<g id="edge16" class="edge">
<title>n12&#45;&gt;n13</title>
<path fill="none" stroke="black" d="M1390.92,-998.47C1390.92,-990.3 1390.92,-981.52 1390.92,-972.99"/>
<polygon fill="black" stroke="black" points="1394.42,-972.78 1390.92,-962.78 1387.42,-972.78 1394.42,-972.78"/>
</g>
<!-- n18 -->
<g id="node20" class="node">
<title>n18</title>
<ellipse fill="#98D2A5" stroke="black" cx="2190.92" cy="-925.1" rx="190.84" ry="37.45"/>
<text text-anchor="middle" x="2190.92" y="-936.4" font-family="Times,serif" font-size="14.00">Shevardnadze</text>
<text text-anchor="middle" x="2190.92" y="-921.4" font-family="Times,serif" font-size="14.00">np00000 (pobj)</text>
<text text-anchor="middle" x="2190.92" y="-906.4" font-family="Times,serif" font-size="14.00">rep=no, t=no, r=yes, m=yes, c=no</text>
</g>
<!-- n17&#45;&gt;n18 -->
<g id="edge19" class="edge">
<title>n17&#45;&gt;n18</title>
<path fill="none" stroke="black" d="M2190.92,-998.47C2190.92,-990.3 2190.92,-981.52 2190.92,-972.99"/>
<polygon fill="black" stroke="black" points="2194.42,-972.78 2190.92,-962.78 2187.42,-972.78 2194.42,-972.78"/>
</g>
<!-- n27 -->
<g id="node27" class="node">
<title>n27</title>
<ellipse fill="#98D2A5" stroke="black" cx="4590.92" cy="-925.1" rx="190.84" ry="37.45"/>
<text text-anchor="middle" x="4590.92" y="-936.4" font-family="Times,serif" font-size="14.00">presidente</text>
<text text-anchor="middle" x="4590.92" y="-921.4" font-family="Times,serif" font-size="14.00">ncms000 (pobj)</text>
<text text-anchor="middle" x="4590.92" y="-906.4" font-family="Times,serif" font-size="14.00">rep=no, t=no, r=yes, m=yes, c=no</text>
</g>
<!-- n25&#45;&gt;n27 -->
<g id="edge26" class="edge">
<title>n25&#45;&gt;n27</title>
<path fill="none" stroke="black" d="M4590.92,-998.47C4590.92,-990.3 4590.92,-981.52 4590.92,-972.99"/>
<polygon fill="black" stroke="black" points="4594.42,-972.78 4590.92,-962.78 4587.42,-972.78 4594.42,-972.78"/>
</g>
<!-- n26 -->
<g id="node28" class="node">
<title>n26</title>
<ellipse fill="#98D2A5" stroke="black" cx="3590.92" cy="-814.15" rx="190.84" ry="37.45"/>
<text text-anchor="middle" x="3590.92" y="-825.45" font-family="Times,serif" font-size="14.00">actual</text>
<text text-anchor="middle" x="3590.92" y="-810.45" font-family="Times,serif" font-size="14.00">aq0cs0 (amod)</text>
<text text-anchor="middle" x="3590.92" y="-795.45" font-family="Times,serif" font-size="14.00">rep=no, t=no, r=yes, m=yes, c=no</text>
</g>
<!-- n27&#45;&gt;n26 -->
<g id="edge27" class="edge">
<title>n27&#45;&gt;n26</title>
<path fill="none" stroke="black" d="M4410.88,-912.45C4248.4,-900.82 4003.03,-880.52 3790.92,-851.63 3772.38,-849.1 3752.94,-846.06 3733.78,-842.82"/>
<polygon fill="black" stroke="black" points="3734.23,-839.35 3723.78,-841.11 3733.05,-846.25 3734.23,-839.35"/>
</g>
<!-- n28 -->
<g id="node29" class="node">
<title>n28</title>
<ellipse fill="#98D2A5" stroke="black" cx="3990.92" cy="-814.15" rx="190.84" ry="37.45"/>
<text text-anchor="middle" x="3990.92" y="-825.45" font-family="Times,serif" font-size="14.00">de</text>
<text text-anchor="middle" x="3990.92" y="-810.45" font-family="Times,serif" font-size="14.00">sps00 (prepn)</text>
<text text-anchor="middle" x="3990.92" y="-795.45" font-family="Times,serif" font-size="14.00">rep=no, t=no, r=yes, m=yes, c=no</text>
</g>
<!-- n27&#45;&gt;n28 -->
<g id="edge28" class="edge">
<title>n27&#45;&gt;n28</title>
<path fill="none" stroke="black" d="M4453,-899.15C4375.9,-885.2 4278.06,-867.47 4190.92,-851.63 4173.85,-848.52 4155.97,-845.27 4138.21,-842.03"/>
<polygon fill="black" stroke="black" points="4138.82,-838.59 4128.36,-840.24 4137.57,-845.47 4138.82,-838.59"/>
</g>
<!-- n34 -->
<g id="node30" class="node">
<title>n34</title>
<ellipse fill="#98D2A5" stroke="black" cx="4390.92" cy="-814.15" rx="190.84" ry="37.45"/>
<text text-anchor="middle" x="4390.92" y="-825.45" font-family="Times,serif" font-size="14.00">,</text>
<text text-anchor="middle" x="4390.92" y="-810.45" font-family="Times,serif" font-size="14.00">fc (punct)</text>
<text text-anchor="middle" x="4390.92" y="-795.45" font-family="Times,serif" font-size="14.00">rep=no, t=no, r=yes, m=yes, c=no</text>
</g>
<!-- n27&#45;&gt;n34 -->
<g id="edge29" class="edge">
<title>n27&#45;&gt;n34</title>
<path fill="none" stroke="black" d="M4527.64,-889.63C4507.11,-878.45 4484.18,-865.96 4463.06,-854.45"/>
<polygon fill="black" stroke="black" points="4464.59,-851.3 4454.13,-849.59 4461.24,-857.44 4464.59,-851.3"/>
</g>
<!-- n35 -->
<g id="node31" class="node">
<title>n35</title>
<ellipse fill="#98D2A5" stroke="black" cx="4790.92" cy="-814.15" rx="190.84" ry="37.45"/>
<text text-anchor="middle" x="4790.92" y="-825.45" font-family="Times,serif" font-size="14.00">Aslan</text>
<text text-anchor="middle" x="4790.92" y="-810.45" font-family="Times,serif" font-size="14.00">np0000l (appos)</text>
<text text-anchor="middle" x="4790.92" y="-795.45" font-family="Times,serif" font-size="14.00">rep=no, t=no, r=yes, m=yes, c=no</text>
</g>
<!-- n27&#45;&gt;n35 -->
<g id="edge30" class="edge">
<title>n27&#45;&gt;n35</title>
<path fill="none" stroke="black" d="M4654.2,-889.63C4674.73,-878.45 4697.65,-865.96 4718.78,-854.45"/>
<polygon fill="black" stroke="black" points="4720.6,-857.44 4727.71,-849.59 4717.25,-851.3 4720.6,-857.44"/>
</g>
<!-- n37 -->
<g id="node32" class="node">
<title>n37</title>
<ellipse fill="#98D2A5" stroke="black" cx="5190.92" cy="-814.15" rx="190.84" ry="37.45"/>
<text text-anchor="middle" x="5190.92" y="-825.45" font-family="Times,serif" font-size="14.00">,</text>
<text text-anchor="middle" x="5190.92" y="-810.45" font-family="Times,serif" font-size="14.00">fc (punct)</text>
<text text-anchor="middle" x="5190.92" y="-795.45" font-family="Times,serif" font-size="14.00">rep=no, t=no, r=yes, m=yes, c=no</text>
</g>
<!-- n27&#45;&gt;n37 -->
<g id="edge31" class="edge">
<title>n27&#45;&gt;n37</title>
<path fill="none" stroke="black" d="M4728.84,-899.15C4805.94,-885.2 4903.78,-867.47 4990.92,-851.63 5007.99,-848.52 5025.87,-845.27 5043.63,-842.03"/>
<polygon fill="black" stroke="black" points="5044.27,-845.47 5053.48,-840.24 5043.02,-838.59 5044.27,-845.47"/>
</g>
<!-- n40 -->
<g id="node33" class="node">
<title>n40</title>
<ellipse fill="#98D2A5" stroke="black" cx="5590.92" cy="-814.15" rx="190.84" ry="37.45"/>
<text text-anchor="middle" x="5590.92" y="-825.45" font-family="Times,serif" font-size="14.00">líder</text>
<text text-anchor="middle" x="5590.92" y="-810.45" font-family="Times,serif" font-size="14.00">nccs000 (appos)</text>
<text text-anchor="middle" x="5590.92" y="-795.45" font-family="Times,serif" font-size="14.00">rep=no, t=no, r=yes, m=yes, c=no</text>
</g>
<!-- n27&#45;&gt;n40 -->
<g id="edge32" class="edge">
<title>n27&#45;&gt;n40</title>
<path fill="none" stroke="black" d="M4770.96,-912.45C4933.44,-900.82 5178.81,-880.52 5390.92,-851.63 5409.46,-849.1 5428.89,-846.06 5448.06,-842.82"/>
<polygon fill="black" stroke="black" points="5448.79,-846.25 5458.05,-841.11 5447.61,-839.35 5448.79,-846.25"/>
</g>
<!-- n30 -->
<g id="node34" class="node">
<title>n30</title>
<ellipse fill="#98D2A5" stroke="black" cx="3990.92" cy="-703.2" rx="190.84" ry="37.45"/>
<text text-anchor="middle" x="3990.92" y="-714.5" font-family="Times,serif" font-size="14.00">región</text>
<text text-anchor="middle" x="3990.92" y="-699.5" font-family="Times,serif" font-size="14.00">ncfs000 (pobj)</text>
<text text-anchor="middle" x="3990.92" y="-684.5" font-family="Times,serif" font-size="14.00">rep=no, t=no, r=yes, m=yes, c=no</text>
</g>
<!-- n28&#45;&gt;n30 -->
<g id="edge33" class="edge">
<title>n28&#45;&gt;n30</title>
<path fill="none" stroke="black" d="M3990.92,-776.57C3990.92,-768.39 3990.92,-759.61 3990.92,-751.09"/>
<polygon fill="black" stroke="black" points="3994.42,-750.87 3990.92,-740.87 3987.42,-750.87 3994.42,-750.87"/>
</g>
<!-- n36 -->
<g id="node39" class="node">
<title>n36</title>
<ellipse fill="#98D2A5" stroke="black" cx="4790.92" cy="-703.2" rx="190.84" ry="37.45"/>
<text text-anchor="middle" x="4790.92" y="-714.5" font-family="Times,serif" font-size="14.00">Abachidze</text>
<text text-anchor="middle" x="4790.92" y="-699.5" font-family="Times,serif" font-size="14.00">np0000l (appos)</text>
<text text-anchor="middle" x="4790.92" y="-684.5" font-family="Times,serif" font-size="14.00">rep=no, t=no, r=yes, m=yes, c=no</text>
</g>
<!-- n35&#45;&gt;n36 -->
<g id="edge38" class="edge">
<title>n35&#45;&gt;n36</title>
<path fill="none" stroke="black" d="M4790.92,-776.57C4790.92,-768.39 4790.92,-759.61 4790.92,-751.09"/>
<polygon fill="black" stroke="black" points="4794.42,-750.87 4790.92,-740.87 4787.42,-750.87 4794.42,-750.87"/>
</g>
<!-- n38 -->
<g id="node40" class="node">
<title>n38</title>
<ellipse fill="#98D2A5" stroke="black" cx="5190.92" cy="-703.2" rx="190.84" ry="37.45"/>
<text text-anchor="middle" x="5190.92" y="-714.5" font-family="Times,serif" font-size="14.00">el</text>
<text text-anchor="middle" x="5190.92" y="-699.5" font-family="Times,serif" font-size="14.00">da0ms0 (det)</text>
<text text-anchor="middle" x="5190.92" y="-684.5" font-family="Times,serif" font-size="14.00">rep=no, t=no, r=yes, m=yes, c=no</text>
</g>
<!-- n40&#45;&gt;n38 -->
<g id="edge39" class="edge">
<title>n40&#45;&gt;n38</title>
<path fill="none" stroke="black" d="M5481.62,-783.38C5428.48,-768.9 5364.51,-751.48 5310.12,-736.67"/>
<polygon fill="black" stroke="black" points="5311,-733.28 5300.44,-734.03 5309.16,-740.03 5311,-733.28"/>
</g>
<!-- n39 -->
<g id="node41" class="node">
<title>n39</title>
<ellipse fill="#98D2A5" stroke="black" cx="5590.92" cy="-703.2" rx="190.84" ry="37.45"/>
<text text-anchor="middle" x="5590.92" y="-714.5" font-family="Times,serif" font-size="14.00">único</text>
<text text-anchor="middle" x="5590.92" y="-699.5" font-family="Times,serif" font-size="14.00">aq0ms0 (amod)</text>
<text text-anchor="middle" x="5590.92" y="-684.5" font-family="Times,serif" font-size="14.00">rep=no, t=no, r=yes, m=yes, c=no</text>
</g>
<!-- n40&#45;&gt;n39 -->
<g id="edge40" class="edge">
<title>n40&#45;&gt;n39</title>
<path fill="none" stroke="black" d="M5590.92,-776.57C5590.92,-768.39 5590.92,-759.61 5590.92,-751.09"/>
<polygon fill="black" stroke="black" points="5594.42,-750.87 5590.92,-740.87 5587.42,-750.87 5594.42,-750.87"/>
</g>
<!-- n41 -->
<g id="node42" class="node">
<title>n41</title>
<ellipse fill="#98D2A5" stroke="black" cx="5990.92" cy="-703.2" rx="190.84" ry="37.45"/>
<text text-anchor="middle" x="5990.92" y="-714.5" font-family="Times,serif" font-size="14.00">capaz</text>
<text text-anchor="middle" x="5990.92" y="-699.5" font-family="Times,serif" font-size="14.00">aq0cs0 (amod)</text>
<text text-anchor="middle" x="5990.92" y="-684.5" font-family="Times,serif" font-size="14.00">rep=no, t=no, r=yes, m=yes, c=no</text>
</g>
<!-- n40&#45;&gt;n41 -->
<g id="edge41" class="edge">
<title>n40&#45;&gt;n41</title>
<path fill="none" stroke="black" d="M5700.22,-783.38C5753.36,-768.9 5817.33,-751.48 5871.71,-736.67"/>
<polygon fill="black" stroke="black" points="5872.67,-740.03 5881.4,-734.03 5870.83,-733.28 5872.67,-740.03"/>
</g>
<!-- n29 -->
<g id="node35" class="node">
<title>n29</title>
<ellipse fill="#98D2A5" stroke="black" cx="3590.92" cy="-592.24" rx="190.84" ry="37.45"/>
<text text-anchor="middle" x="3590.92" y="-603.54" font-family="Times,serif" font-size="14.00">la</text>
<text text-anchor="middle" x="3590.92" y="-588.54" font-family="Times,serif" font-size="14.00">da0fs0 (det)</text>
<text text-anchor="middle" x="3590.92" y="-573.54" font-family="Times,serif" font-size="14.00">rep=no, t=no, r=yes, m=yes, c=no</text>
</g>
<!-- n30&#45;&gt;n29 -->
<g id="edge34" class="edge">
<title>n30&#45;&gt;n29</title>
<path fill="none" stroke="black" d="M3881.62,-672.42C3828.48,-657.95 3764.51,-640.53 3710.12,-625.71"/>
<polygon fill="black" stroke="black" points="3711,-622.32 3700.44,-623.07 3709.16,-629.08 3711,-622.32"/>
</g>
<!-- n31 -->
<g id="node36" class="node">
<title>n31</title>
<ellipse fill="#98D2A5" stroke="black" cx="3990.92" cy="-592.24" rx="190.84" ry="37.45"/>
<text text-anchor="middle" x="3990.92" y="-603.54" font-family="Times,serif" font-size="14.00">autónoma</text>
<text text-anchor="middle" x="3990.92" y="-588.54" font-family="Times,serif" font-size="14.00">aq0fs0 (amod)</text>
<text text-anchor="middle" x="3990.92" y="-573.54" font-family="Times,serif" font-size="14.00">rep=no, t=no, r=yes, m=yes, c=no</text>
</g>
<!-- n30&#45;&gt;n31 -->
<g id="edge35" class="edge">
<title>n30&#45;&gt;n31</title>
<path fill="none" stroke="black" d="M3990.92,-665.61C3990.92,-657.44 3990.92,-648.66 3990.92,-640.13"/>
<polygon fill="black" stroke="black" points="3994.42,-639.92 3990.92,-629.92 3987.42,-639.92 3994.42,-639.92"/>
</g>
<!-- n32 -->
<g id="node37" class="node">
<title>n32</title>
<ellipse fill="#98D2A5" stroke="black" cx="4390.92" cy="-592.24" rx="190.84" ry="37.45"/>
<text text-anchor="middle" x="4390.92" y="-603.54" font-family="Times,serif" font-size="14.00">de</text>
<text text-anchor="middle" x="4390.92" y="-588.54" font-family="Times,serif" font-size="14.00">sps00 (prepn)</text>
<text text-anchor="middle" x="4390.92" y="-573.54" font-family="Times,serif" font-size="14.00">rep=no, t=no, r=yes, m=yes, c=no</text>
</g>
<!-- n30&#45;&gt;n32 -->
<g id="edge36" class="edge">
<title>n30&#45;&gt;n32</title>
<path fill="none" stroke="black" d="M4100.22,-672.42C4153.36,-657.95 4217.33,-640.53 4271.71,-625.71"/>
<polygon fill="black" stroke="black" points="4272.67,-629.08 4281.4,-623.07 4270.83,-622.32 4272.67,-629.08"/>
</g>
<!-- n33 -->
<g id="node38" class="node">
<title>n33</title>
<ellipse fill="#98D2A5" stroke="black" cx="4390.92" cy="-481.29" rx="190.84" ry="37.45"/>
<text text-anchor="middle" x="4390.92" y="-492.59" font-family="Times,serif" font-size="14.00">Adjaria</text>
<text text-anchor="middle" x="4390.92" y="-477.59" font-family="Times,serif" font-size="14.00">np00000 (pobj)</text>
<text text-anchor="middle" x="4390.92" y="-462.59" font-family="Times,serif" font-size="14.00">rep=no, t=no, r=yes, m=yes, c=no</text>
</g>
<!-- n32&#45;&gt;n33 -->
<g id="edge37" class="edge">
<title>n32&#45;&gt;n33</title>
<path fill="none" stroke="black" d="M4390.92,-554.66C4390.92,-546.49 4390.92,-537.71 4390.92,-529.18"/>
<polygon fill="black" stroke="black" points="4394.42,-528.96 4390.92,-518.96 4387.42,-528.96 4394.42,-528.96"/>
</g>
<!-- n42 -->
<g id="node43" class="node">
<title>n42</title>
<ellipse fill="#98D2A5" stroke="black" cx="5990.92" cy="-592.24" rx="190.84" ry="37.45"/>
<text text-anchor="middle" x="5990.92" y="-603.54" font-family="Times,serif" font-size="14.00">de</text>
<text text-anchor="middle" x="5990.92" y="-588.54" font-family="Times,serif" font-size="14.00">sps00 (prepa)</text>
<text text-anchor="middle" x="5990.92" y="-573.54" font-family="Times,serif" font-size="14.00">rep=no, t=no, r=yes, m=yes, c=no</text>
</g>
<!-- n41&#45;&gt;n42 -->
<g id="edge42" class="edge">
<title>n41&#45;&gt;n42</title>
<path fill="none" stroke="black" d="M5990.92,-665.61C5990.92,-657.44 5990.92,-648.66 5990.92,-640.13"/>
<polygon fill="black" stroke="black" points="5994.42,-639.92 5990.92,-629.92 5987.42,-639.92 5994.42,-639.92"/>
</g>
<!-- n43 -->
<g id="node44" class="node">
<title>n43</title>
<ellipse fill="#98D2A5" stroke="black" cx="5990.92" cy="-481.29" rx="190.84" ry="37.45"/>
<text text-anchor="middle" x="5990.92" y="-492.59" font-family="Times,serif" font-size="14.00">hacer</text>
<text text-anchor="middle" x="5990.92" y="-477.59" font-family="Times,serif" font-size="14.00">vmn0000 (pobj)</text>
<text text-anchor="middle" x="5990.92" y="-462.59" font-family="Times,serif" font-size="14.00">rep=no, t=no, r=yes, m=yes, c=no</text>
</g>
<!-- n42&#45;&gt;n43 -->
<g id="edge43" class="edge">
<title>n42&#45;&gt;n43</title>
<path fill="none" stroke="black" d="M5990.92,-554.66C5990.92,-546.49 5990.92,-537.71 5990.92,-529.18"/>
<polygon fill="black" stroke="black" points="5994.42,-528.96 5990.92,-518.96 5987.42,-528.96 5994.42,-528.96"/>
</g>
<!-- n44 -->
<g id="node45" class="node">
<title>n44</title>
<ellipse fill="#98D2A5" stroke="black" cx="5790.92" cy="-370.34" rx="190.84" ry="37.45"/>
<text text-anchor="middle" x="5790.92" y="-381.64" font-family="Times,serif" font-size="14.00">sombra</text>
<text text-anchor="middle" x="5790.92" y="-366.64" font-family="Times,serif" font-size="14.00">ncfs000 (dobj)</text>
<text text-anchor="middle" x="5790.92" y="-351.64" font-family="Times,serif" font-size="14.00">rep=no, t=no, r=yes, m=yes, c=no</text>
</g>
<!-- n43&#45;&gt;n44 -->
<g id="edge44" class="edge">
<title>n43&#45;&gt;n44</title>
<path fill="none" stroke="black" d="M5927.64,-445.82C5907.11,-434.63 5884.18,-422.14 5863.06,-410.64"/>
<polygon fill="black" stroke="black" points="5864.59,-407.48 5854.13,-405.77 5861.24,-413.63 5864.59,-407.48"/>
</g>
<!-- n45 -->
<g id="node46" class="node">
<title>n45</title>
<ellipse fill="#98D2A5" stroke="black" cx="6190.92" cy="-370.34" rx="190.84" ry="37.45"/>
<text text-anchor="middle" x="6190.92" y="-381.64" font-family="Times,serif" font-size="14.00">al</text>
<text text-anchor="middle" x="6190.92" y="-366.64" font-family="Times,serif" font-size="14.00">spcms (iobj)</text>
<text text-anchor="middle" x="6190.92" y="-351.64" font-family="Times,serif" font-size="14.00">rep=no, t=no, r=yes, m=yes, c=no</text>
</g>
<!-- n43&#45;&gt;n45 -->
<g id="edge45" class="edge">
<title>n43&#45;&gt;n45</title>
<path fill="none" stroke="black" d="M6054.2,-445.82C6074.73,-434.63 6097.65,-422.14 6118.78,-410.64"/>
<polygon fill="black" stroke="black" points="6120.6,-413.63 6127.71,-405.77 6117.25,-407.48 6120.6,-413.63"/>
</g>
<!-- n46 -->
<g id="node47" class="node">
<title>n46</title>
<ellipse fill="#98D2A5" stroke="black" cx="6190.92" cy="-259.38" rx="190.84" ry="37.45"/>
<text text-anchor="middle" x="6190.92" y="-270.68" font-family="Times,serif" font-size="14.00">jefe</text>
<text text-anchor="middle" x="6190.92" y="-255.68" font-family="Times,serif" font-size="14.00">ncms000 (pobj)</text>
<text text-anchor="middle" x="6190.92" y="-240.68" font-family="Times,serif" font-size="14.00">rep=no, t=no, r=yes, m=yes, c=no</text>
</g>
<!-- n45&#45;&gt;n46 -->
<g id="edge46" class="edge">
<title>n45&#45;&gt;n46</title>
<path fill="none" stroke="black" d="M6190.92,-332.75C6190.92,-324.58 6190.92,-315.8 6190.92,-307.27"/>
<polygon fill="black" stroke="black" points="6194.42,-307.06 6190.92,-297.06 6187.42,-307.06 6194.42,-307.06"/>
</g>
<!-- n47 -->
<g id="node48" class="node">
<title>n47</title>
<ellipse fill="#98D2A5" stroke="black" cx="6190.92" cy="-148.43" rx="190.84" ry="37.45"/>
<text text-anchor="middle" x="6190.92" y="-159.73" font-family="Times,serif" font-size="14.00">del</text>
<text text-anchor="middle" x="6190.92" y="-144.73" font-family="Times,serif" font-size="14.00">spcms (prepn)</text>
<text text-anchor="middle" x="6190.92" y="-129.73" font-family="Times,serif" font-size="14.00">rep=no, t=no, r=yes, m=yes, c=no</text>
</g>
<!-- n46&#45;&gt;n47 -->
<g id="edge47" class="edge">
<title>n46&#45;&gt;n47</title>
<path fill="none" stroke="black" d="M6190.92,-221.8C6190.92,-213.63 6190.92,-204.85 6190.92,-196.32"/>
<polygon fill="black" stroke="black" points="6194.42,-196.1 6190.92,-186.1 6187.42,-196.1 6194.42,-196.1"/>
</g>
<!-- n48 -->
<g id="node49" class="node">
<title>n48</title>
<ellipse fill="#98D2A5" stroke="black" cx="6190.92" cy="-37.48" rx="190.84" ry="37.45"/>
<text text-anchor="middle" x="6190.92" y="-48.78" font-family="Times,serif" font-size="14.00">Estado</text>
<text text-anchor="middle" x="6190.92" y="-33.78" font-family="Times,serif" font-size="14.00">np00000 (pobj)</text>
<text text-anchor="middle" x="6190.92" y="-18.78" font-family="Times,serif" font-size="14.00">rep=no, t=no, r=yes, m=yes, c=no</text>
</g>
<!-- n47&#45;&gt;n48 -->
<g id="edge48" class="edge">
<title>n47&#45;&gt;n48</title>
<path fill="none" stroke="black" d="M6190.92,-110.85C6190.92,-102.67 6190.92,-93.89 6190.92,-85.37"/>
<polygon fill="black" stroke="black" points="6194.42,-85.15 6190.92,-75.15 6187.42,-85.15 6194.42,-85.15"/>
</g>
</g>
</svg>
