<?xml version="1.0" encoding="UTF-8" standalone="no"?>
<!DOCTYPE svg PUBLIC "-//W3C//DTD SVG 1.1//EN"
 "http://www.w3.org/Graphics/SVG/1.1/DTD/svg11.dtd">
<!-- Generated by graphviz version 2.43.0 (0)
 -->
<!-- Title: tree Pages: 1 -->
<svg width="2144pt" height="860pt"
 viewBox="0.00 0.00 2143.65 859.63" xmlns="http://www.w3.org/2000/svg" xmlns:xlink="http://www.w3.org/1999/xlink">
<g id="graph0" class="graph" transform="scale(1 1) rotate(0) translate(4 855.63)">
<title>tree</title>
<polygon fill="white" stroke="transparent" points="-4,4 -4,-855.63 2139.65,-855.63 2139.65,4 -4,4"/>
<!-- n3 -->
<g id="node1" class="node">
<title>n3</title>
<ellipse fill="#DA79E8" stroke="black" cx="990.92" cy="-814.15" rx="190.84" ry="37.45"/>
<text text-anchor="middle" x="990.92" y="-825.45" font-family="Times,serif" font-size="14.00">support</text>
<text text-anchor="middle" x="990.92" y="-810.45" font-family="Times,serif" font-size="14.00">VBP (root)</text>
<text text-anchor="middle" x="990.92" y="-795.45" font-family="Times,serif" font-size="14.00">rep=no, t=no, r=yes, m=yes, c=no</text>
</g>
<!-- n2 -->
<g id="node2" class="node">
<title>n2</title>
<ellipse fill="#BEDA48" stroke="black" cx="190.92" cy="-703.2" rx="190.84" ry="37.45"/>
<text text-anchor="middle" x="190.92" y="-714.5" font-family="Times,serif" font-size="14.00">machines</text>
<text text-anchor="middle" x="190.92" y="-699.5" font-family="Times,serif" font-size="14.00">NNS (SBJ)</text>
<text text-anchor="middle" x="190.92" y="-684.5" font-family="Times,serif" font-size="14.00">rep=no, t=yes, r=no, m=yes, c=no</text>
</g>
<!-- n3&#45;&gt;n2 -->
<g id="edge1" class="edge">
<title>n3&#45;&gt;n2</title>
<path fill="none" stroke="black" d="M824.38,-795.75C703.76,-782.49 536.93,-762.79 390.92,-740.67 372.87,-737.94 353.96,-734.82 335.26,-731.59"/>
<polygon fill="black" stroke="black" points="335.66,-728.11 325.21,-729.84 334.46,-735 335.66,-728.11"/>
</g>
<!-- n5 -->
<g id="node3" class="node">
<title>n5</title>
<ellipse fill="#DA79E8" stroke="black" cx="590.92" cy="-703.2" rx="190.84" ry="37.45"/>
<text text-anchor="middle" x="590.92" y="-714.5" font-family="Times,serif" font-size="14.00">applications</text>
<text text-anchor="middle" x="590.92" y="-699.5" font-family="Times,serif" font-size="14.00">NNS (OBJ)</text>
<text text-anchor="middle" x="590.92" y="-684.5" font-family="Times,serif" font-size="14.00">rep=no, t=no, r=yes, m=yes, c=no</text>
</g>
<!-- n3&#45;&gt;n5 -->
<g id="edge2" class="edge">
<title>n3&#45;&gt;n5</title>
<path fill="none" stroke="black" d="M881.62,-783.38C828.48,-768.9 764.51,-751.48 710.12,-736.67"/>
<polygon fill="black" stroke="black" points="711,-733.28 700.44,-734.03 709.16,-740.03 711,-733.28"/>
</g>
<!-- n6 -->
<g id="node4" class="node">
<title>n6</title>
<ellipse fill="#DA79E8" stroke="black" cx="990.92" cy="-703.2" rx="190.84" ry="37.45"/>
<text text-anchor="middle" x="990.92" y="-714.5" font-family="Times,serif" font-size="14.00">,</text>
<text text-anchor="middle" x="990.92" y="-699.5" font-family="Times,serif" font-size="14.00">Fc (P)</text>
<text text-anchor="middle" x="990.92" y="-684.5" font-family="Times,serif" font-size="14.00">rep=no, t=no, r=yes, m=yes, c=no</text>
</g>
<!-- n3&#45;&gt;n6 -->
<g id="edge3" class="edge">
<title>n3&#45;&gt;n6</title>
<path fill="none" stroke="black" d="M990.92,-776.57C990.92,-768.39 990.92,-759.61 990.92,-751.09"/>
<polygon fill="black" stroke="black" points="994.42,-750.87 990.92,-740.87 987.42,-750.87 994.42,-750.87"/>
</g>
<!-- n7 -->
<g id="node5" class="node">
<title>n7</title>
<ellipse fill="none" stroke="black" cx="1381.92" cy="-703.2" rx="181.95" ry="37.45"/>
<text text-anchor="middle" x="1381.92" y="-714.5" font-family="Times,serif" font-size="14.00">reducing</text>
<text text-anchor="middle" x="1381.92" y="-699.5" font-family="Times,serif" font-size="14.00">VBG (ADV)</text>
<text text-anchor="middle" x="1381.92" y="-684.5" font-family="Times,serif" font-size="14.00">rep=no, t=no, r=no, m=no, c=no</text>
</g>
<!-- n3&#45;&gt;n7 -->
<g id="edge4" class="edge">
<title>n3&#45;&gt;n7</title>
<path fill="none" stroke="black" d="M1098.54,-783.16C1150.57,-768.66 1213.09,-751.24 1266.16,-736.45"/>
<polygon fill="black" stroke="black" points="1267.26,-739.78 1275.95,-733.73 1265.38,-733.04 1267.26,-739.78"/>
</g>
<!-- n17 -->
<g id="node6" class="node">
<title>n17</title>
<ellipse fill="#DA79E8" stroke="black" cx="1772.92" cy="-703.2" rx="190.84" ry="37.45"/>
<text text-anchor="middle" x="1772.92" y="-714.5" font-family="Times,serif" font-size="14.00">.</text>
<text text-anchor="middle" x="1772.92" y="-699.5" font-family="Times,serif" font-size="14.00">Fp (P)</text>
<text text-anchor="middle" x="1772.92" y="-684.5" font-family="Times,serif" font-size="14.00">rep=no, t=no, r=yes, m=yes, c=no</text>
</g>
<!-- n3&#45;&gt;n17 -->
<g id="edge5" class="edge">
<title>n3&#45;&gt;n17</title>
<path fill="none" stroke="black" d="M1155.58,-795.16C1272.31,-781.79 1432.52,-762.2 1572.92,-740.67 1590.88,-737.92 1609.71,-734.8 1628.33,-731.57"/>
<polygon fill="black" stroke="black" points="1629.1,-734.98 1638.35,-729.81 1627.89,-728.09 1629.1,-734.98"/>
</g>
<!-- n1 -->
<g id="node7" class="node">
<title>n1</title>
<ellipse fill="#BEDA48" stroke="black" cx="190.92" cy="-592.24" rx="190.84" ry="37.45"/>
<text text-anchor="middle" x="190.92" y="-603.54" font-family="Times,serif" font-size="14.00">Virtual</text>
<text text-anchor="middle" x="190.92" y="-588.54" font-family="Times,serif" font-size="14.00">JJ (NMOD)</text>
<text text-anchor="middle" x="190.92" y="-573.54" font-family="Times,serif" font-size="14.00">rep=no, t=yes, r=no, m=yes, c=no</text>
</g>
<!-- n2&#45;&gt;n1 -->
<g id="edge6" class="edge">
<title>n2&#45;&gt;n1</title>
<path fill="none" stroke="black" d="M190.92,-665.61C190.92,-657.44 190.92,-648.66 190.92,-640.13"/>
<polygon fill="black" stroke="black" points="194.42,-639.92 190.92,-629.92 187.42,-639.92 194.42,-639.92"/>
</g>
<!-- n4 -->
<g id="node8" class="node">
<title>n4</title>
<ellipse fill="#DA79E8" stroke="black" cx="590.92" cy="-592.24" rx="190.84" ry="37.45"/>
<text text-anchor="middle" x="590.92" y="-603.54" font-family="Times,serif" font-size="14.00">legacy</text>
<text text-anchor="middle" x="590.92" y="-588.54" font-family="Times,serif" font-size="14.00">NN (NMOD)</text>
<text text-anchor="middle" x="590.92" y="-573.54" font-family="Times,serif" font-size="14.00">rep=no, t=no, r=yes, m=yes, c=no</text>
</g>
<!-- n5&#45;&gt;n4 -->
<g id="edge7" class="edge">
<title>n5&#45;&gt;n4</title>
<path fill="none" stroke="black" d="M590.92,-665.61C590.92,-657.44 590.92,-648.66 590.92,-640.13"/>
<polygon fill="black" stroke="black" points="594.42,-639.92 590.92,-629.92 587.42,-639.92 594.42,-639.92"/>
</g>
<!-- n9 -->
<g id="node9" class="node">
<title>n9</title>
<ellipse fill="none" stroke="black" cx="1381.92" cy="-592.24" rx="181.95" ry="37.45"/>
<text text-anchor="middle" x="1381.92" y="-603.54" font-family="Times,serif" font-size="14.00">cost</text>
<text text-anchor="middle" x="1381.92" y="-588.54" font-family="Times,serif" font-size="14.00">NN (OBJ)</text>
<text text-anchor="middle" x="1381.92" y="-573.54" font-family="Times,serif" font-size="14.00">rep=no, t=no, r=no, m=no, c=no</text>
</g>
<!-- n7&#45;&gt;n9 -->
<g id="edge8" class="edge">
<title>n7&#45;&gt;n9</title>
<path fill="none" stroke="black" d="M1381.92,-665.61C1381.92,-657.44 1381.92,-648.66 1381.92,-640.13"/>
<polygon fill="black" stroke="black" points="1385.42,-639.92 1381.92,-629.92 1378.42,-639.92 1385.42,-639.92"/>
</g>
<!-- n8 -->
<g id="node10" class="node">
<title>n8</title>
<ellipse fill="none" stroke="black" cx="1191.92" cy="-481.29" rx="181.95" ry="37.45"/>
<text text-anchor="middle" x="1191.92" y="-492.59" font-family="Times,serif" font-size="14.00">the</text>
<text text-anchor="middle" x="1191.92" y="-477.59" font-family="Times,serif" font-size="14.00">DT (NMOD)</text>
<text text-anchor="middle" x="1191.92" y="-462.59" font-family="Times,serif" font-size="14.00">rep=no, t=no, r=no, m=no, c=no</text>
</g>
<!-- n9&#45;&gt;n8 -->
<g id="edge9" class="edge">
<title>n9&#45;&gt;n8</title>
<path fill="none" stroke="black" d="M1321.8,-556.77C1302.39,-545.64 1280.72,-533.21 1260.72,-521.75"/>
<polygon fill="black" stroke="black" points="1262.39,-518.66 1251.97,-516.73 1258.9,-524.74 1262.39,-518.66"/>
</g>
<!-- n10 -->
<g id="node11" class="node">
<title>n10</title>
<ellipse fill="none" stroke="black" cx="1572.92" cy="-481.29" rx="181.95" ry="37.45"/>
<text text-anchor="middle" x="1572.92" y="-492.59" font-family="Times,serif" font-size="14.00">of</text>
<text text-anchor="middle" x="1572.92" y="-477.59" font-family="Times,serif" font-size="14.00">IN (NMOD)</text>
<text text-anchor="middle" x="1572.92" y="-462.59" font-family="Times,serif" font-size="14.00">rep=no, t=no, r=no, m=no, c=no</text>
</g>
<!-- n9&#45;&gt;n10 -->
<g id="edge10" class="edge">
<title>n9&#45;&gt;n10</title>
<path fill="none" stroke="black" d="M1442.35,-556.77C1461.87,-545.64 1483.65,-533.21 1503.75,-521.75"/>
<polygon fill="black" stroke="black" points="1505.6,-524.72 1512.55,-516.73 1502.13,-518.64 1505.6,-524.72"/>
</g>
<!-- n11 -->
<g id="node12" class="node">
<title>n11</title>
<ellipse fill="none" stroke="black" cx="1572.92" cy="-370.34" rx="181.95" ry="37.45"/>
<text text-anchor="middle" x="1572.92" y="-381.64" font-family="Times,serif" font-size="14.00">migrating</text>
<text text-anchor="middle" x="1572.92" y="-366.64" font-family="Times,serif" font-size="14.00">VBG (PMOD)</text>
<text text-anchor="middle" x="1572.92" y="-351.64" font-family="Times,serif" font-size="14.00">rep=no, t=no, r=no, m=no, c=no</text>
</g>
<!-- n10&#45;&gt;n11 -->
<g id="edge11" class="edge">
<title>n10&#45;&gt;n11</title>
<path fill="none" stroke="black" d="M1572.92,-443.71C1572.92,-435.53 1572.92,-426.75 1572.92,-418.23"/>
<polygon fill="black" stroke="black" points="1576.42,-418.01 1572.92,-408.01 1569.42,-418.01 1576.42,-418.01"/>
</g>
<!-- n12 -->
<g id="node13" class="node">
<title>n12</title>
<ellipse fill="none" stroke="black" cx="1572.92" cy="-259.38" rx="181.95" ry="37.45"/>
<text text-anchor="middle" x="1572.92" y="-270.68" font-family="Times,serif" font-size="14.00">to</text>
<text text-anchor="middle" x="1572.92" y="-255.68" font-family="Times,serif" font-size="14.00">TO (ADV)</text>
<text text-anchor="middle" x="1572.92" y="-240.68" font-family="Times,serif" font-size="14.00">rep=no, t=no, r=no, m=no, c=no</text>
</g>
<!-- n11&#45;&gt;n12 -->
<g id="edge12" class="edge">
<title>n11&#45;&gt;n12</title>
<path fill="none" stroke="black" d="M1572.92,-332.75C1572.92,-324.58 1572.92,-315.8 1572.92,-307.27"/>
<polygon fill="black" stroke="black" points="1576.42,-307.06 1572.92,-297.06 1569.42,-307.06 1576.42,-307.06"/>
</g>
<!-- n16 -->
<g id="node14" class="node">
<title>n16</title>
<ellipse fill="none" stroke="black" cx="1572.92" cy="-148.43" rx="181.95" ry="37.45"/>
<text text-anchor="middle" x="1572.92" y="-159.73" font-family="Times,serif" font-size="14.00">system</text>
<text text-anchor="middle" x="1572.92" y="-144.73" font-family="Times,serif" font-size="14.00">NN (PMOD)</text>
<text text-anchor="middle" x="1572.92" y="-129.73" font-family="Times,serif" font-size="14.00">rep=no, t=no, r=no, m=no, c=no</text>
</g>
<!-- n12&#45;&gt;n16 -->
<g id="edge13" class="edge">
<title>n12&#45;&gt;n16</title>
<path fill="none" stroke="black" d="M1572.92,-221.8C1572.92,-213.63 1572.92,-204.85 1572.92,-196.32"/>
<polygon fill="black" stroke="black" points="1576.42,-196.1 1572.92,-186.1 1569.42,-196.1 1576.42,-196.1"/>
</g>
<!-- n13 -->
<g id="node15" class="node">
<title>n13</title>
<ellipse fill="none" stroke="black" cx="1191.92" cy="-37.48" rx="181.95" ry="37.45"/>
<text text-anchor="middle" x="1191.92" y="-48.78" font-family="Times,serif" font-size="14.00">a</text>
<text text-anchor="middle" x="1191.92" y="-33.78" font-family="Times,serif" font-size="14.00">DT (NMOD)</text>
<text text-anchor="middle" x="1191.92" y="-18.78" font-family="Times,serif" font-size="14.00">rep=no, t=no, r=no, m=no, c=no</text>
</g>
<!-- n16&#45;&gt;n13 -->
<g id="edge14" class="edge">
<title>n16&#45;&gt;n13</title>
<path fill="none" stroke="black" d="M1468.81,-117.66C1418.3,-103.22 1357.52,-85.83 1305.79,-71.04"/>
<polygon fill="black" stroke="black" points="1306.48,-67.6 1295.9,-68.21 1304.56,-74.33 1306.48,-67.6"/>
</g>
<!-- n14 -->
<g id="node16" class="node">
<title>n14</title>
<ellipse fill="none" stroke="black" cx="1572.92" cy="-37.48" rx="181.95" ry="37.45"/>
<text text-anchor="middle" x="1572.92" y="-48.78" font-family="Times,serif" font-size="14.00">new</text>
<text text-anchor="middle" x="1572.92" y="-33.78" font-family="Times,serif" font-size="14.00">JJ (NMOD)</text>
<text text-anchor="middle" x="1572.92" y="-18.78" font-family="Times,serif" font-size="14.00">rep=no, t=no, r=no, m=no, c=no</text>
</g>
<!-- n16&#45;&gt;n14 -->
<g id="edge15" class="edge">
<title>n16&#45;&gt;n14</title>
<path fill="none" stroke="black" d="M1572.92,-110.85C1572.92,-102.67 1572.92,-93.89 1572.92,-85.37"/>
<polygon fill="black" stroke="black" points="1576.42,-85.15 1572.92,-75.15 1569.42,-85.15 1576.42,-85.15"/>
</g>
<!-- n15 -->
<g id="node17" class="node">
<title>n15</title>
<ellipse fill="none" stroke="black" cx="1953.92" cy="-37.48" rx="181.95" ry="37.45"/>
<text text-anchor="middle" x="1953.92" y="-48.78" font-family="Times,serif" font-size="14.00">operating</text>
<text text-anchor="middle" x="1953.92" y="-33.78" font-family="Times,serif" font-size="14.00">VBG (NMOD)</text>
<text text-anchor="middle" x="1953.92" y="-18.78" font-family="Times,serif" font-size="14.00">rep=no, t=no, r=no, m=no, c=no</text>
</g>
<!-- n16&#45;&gt;n15 -->
<g id="edge16" class="edge">
<title>n16&#45;&gt;n15</title>
<path fill="none" stroke="black" d="M1677.03,-117.66C1727.53,-103.22 1788.32,-85.83 1840.05,-71.04"/>
<polygon fill="black" stroke="black" points="1841.28,-74.33 1849.93,-68.21 1839.36,-67.6 1841.28,-74.33"/>
</g>
</g>
</svg>
