<?xml version="1.0" encoding="UTF-8" standalone="no"?>
<!DOCTYPE svg PUBLIC "-//W3C//DTD SVG 1.1//EN"
 "http://www.w3.org/Graphics/SVG/1.1/DTD/svg11.dtd">
<!-- Generated by graphviz version 2.43.0 (0)
 -->
<!-- Title: tree Pages: 1 -->
<svg width="1572pt" height="527pt"
 viewBox="0.00 0.00 1571.84 526.77" xmlns="http://www.w3.org/2000/svg" xmlns:xlink="http://www.w3.org/1999/xlink">
<g id="graph0" class="graph" transform="scale(1 1) rotate(0) translate(4 522.77)">
<title>tree</title>
<polygon fill="white" stroke="transparent" points="-4,4 -4,-522.77 1567.84,-522.77 1567.84,4 -4,4"/>
<!-- n5 -->
<g id="node1" class="node">
<title>n5</title>
<ellipse fill="#DA79E8" stroke="black" cx="776.92" cy="-481.29" rx="190.84" ry="37.45"/>
<text text-anchor="middle" x="776.92" y="-492.59" font-family="Times,serif" font-size="14.00">may</text>
<text text-anchor="middle" x="776.92" y="-477.59" font-family="Times,serif" font-size="14.00">MD (root)</text>
<text text-anchor="middle" x="776.92" y="-462.59" font-family="Times,serif" font-size="14.00">rep=no, t=no, r=yes, m=yes, c=no</text>
</g>
<!-- n1 -->
<g id="node2" class="node">
<title>n1</title>
<ellipse fill="#BEDA48" stroke="black" cx="190.92" cy="-370.34" rx="190.84" ry="37.45"/>
<text text-anchor="middle" x="190.92" y="-381.64" font-family="Times,serif" font-size="14.00">Containers</text>
<text text-anchor="middle" x="190.92" y="-366.64" font-family="Times,serif" font-size="14.00">NNS (SBJ)</text>
<text text-anchor="middle" x="190.92" y="-351.64" font-family="Times,serif" font-size="14.00">rep=no, t=yes, r=no, m=yes, c=no</text>
</g>
<!-- n5&#45;&gt;n1 -->
<g id="edge1" class="edge">
<title>n5&#45;&gt;n1</title>
<path fill="none" stroke="black" d="M640.64,-454.95C549.69,-438.04 430.2,-415.83 337.25,-398.54"/>
<polygon fill="black" stroke="black" points="337.67,-395.06 327.19,-396.67 336.39,-401.94 337.67,-395.06"/>
</g>
<!-- n6 -->
<g id="node3" class="node">
<title>n6</title>
<ellipse fill="none" stroke="black" cx="581.92" cy="-370.34" rx="181.95" ry="37.45"/>
<text text-anchor="middle" x="581.92" y="-381.64" font-family="Times,serif" font-size="14.00">also</text>
<text text-anchor="middle" x="581.92" y="-366.64" font-family="Times,serif" font-size="14.00">RB (ADV)</text>
<text text-anchor="middle" x="581.92" y="-351.64" font-family="Times,serif" font-size="14.00">rep=no, t=no, r=no, m=no, c=no</text>
</g>
<!-- n5&#45;&gt;n6 -->
<g id="edge2" class="edge">
<title>n5&#45;&gt;n6</title>
<path fill="none" stroke="black" d="M715.22,-445.82C695.29,-434.68 673.05,-422.26 652.53,-410.79"/>
<polygon fill="black" stroke="black" points="653.99,-407.59 643.55,-405.77 650.57,-413.71 653.99,-407.59"/>
</g>
<!-- n7 -->
<g id="node4" class="node">
<title>n7</title>
<ellipse fill="#DA79E8" stroke="black" cx="972.92" cy="-370.34" rx="190.84" ry="37.45"/>
<text text-anchor="middle" x="972.92" y="-381.64" font-family="Times,serif" font-size="14.00">be</text>
<text text-anchor="middle" x="972.92" y="-366.64" font-family="Times,serif" font-size="14.00">VB (VC)</text>
<text text-anchor="middle" x="972.92" y="-351.64" font-family="Times,serif" font-size="14.00">rep=no, t=no, r=yes, m=yes, c=no</text>
</g>
<!-- n5&#45;&gt;n7 -->
<g id="edge3" class="edge">
<title>n5&#45;&gt;n7</title>
<path fill="none" stroke="black" d="M838.93,-445.82C858.86,-434.74 881.1,-422.38 901.64,-410.96"/>
<polygon fill="black" stroke="black" points="903.59,-413.88 910.63,-405.96 900.19,-407.76 903.59,-413.88"/>
</g>
<!-- n10 -->
<g id="node5" class="node">
<title>n10</title>
<ellipse fill="#DA79E8" stroke="black" cx="1372.92" cy="-370.34" rx="190.84" ry="37.45"/>
<text text-anchor="middle" x="1372.92" y="-381.64" font-family="Times,serif" font-size="14.00">.</text>
<text text-anchor="middle" x="1372.92" y="-366.64" font-family="Times,serif" font-size="14.00">Fp (P)</text>
<text text-anchor="middle" x="1372.92" y="-351.64" font-family="Times,serif" font-size="14.00">rep=no, t=no, r=yes, m=yes, c=no</text>
</g>
<!-- n5&#45;&gt;n10 -->
<g id="edge4" class="edge">
<title>n5&#45;&gt;n10</title>
<path fill="none" stroke="black" d="M914.4,-455.16C1007.53,-438.13 1130.48,-415.66 1225.62,-398.26"/>
<polygon fill="black" stroke="black" points="1226.4,-401.68 1235.61,-396.44 1225.15,-394.79 1226.4,-401.68"/>
</g>
<!-- n2 -->
<g id="node6" class="node">
<title>n2</title>
<ellipse fill="#BEDA48" stroke="black" cx="190.92" cy="-259.38" rx="190.84" ry="37.45"/>
<text text-anchor="middle" x="190.92" y="-270.68" font-family="Times,serif" font-size="14.00">and</text>
<text text-anchor="middle" x="190.92" y="-255.68" font-family="Times,serif" font-size="14.00">CC (COORD)</text>
<text text-anchor="middle" x="190.92" y="-240.68" font-family="Times,serif" font-size="14.00">rep=no, t=yes, r=no, m=yes, c=no</text>
</g>
<!-- n1&#45;&gt;n2 -->
<g id="edge5" class="edge">
<title>n1&#45;&gt;n2</title>
<path fill="none" stroke="black" d="M190.92,-332.75C190.92,-324.58 190.92,-315.8 190.92,-307.27"/>
<polygon fill="black" stroke="black" points="194.42,-307.06 190.92,-297.06 187.42,-307.06 194.42,-307.06"/>
</g>
<!-- n8 -->
<g id="node9" class="node">
<title>n8</title>
<ellipse fill="#DA79E8" stroke="black" cx="972.92" cy="-259.38" rx="190.84" ry="37.45"/>
<text text-anchor="middle" x="972.92" y="-270.68" font-family="Times,serif" font-size="14.00">used</text>
<text text-anchor="middle" x="972.92" y="-255.68" font-family="Times,serif" font-size="14.00">VBN (VC)</text>
<text text-anchor="middle" x="972.92" y="-240.68" font-family="Times,serif" font-size="14.00">rep=no, t=no, r=yes, m=yes, c=no</text>
</g>
<!-- n7&#45;&gt;n8 -->
<g id="edge8" class="edge">
<title>n7&#45;&gt;n8</title>
<path fill="none" stroke="black" d="M972.92,-332.75C972.92,-324.58 972.92,-315.8 972.92,-307.27"/>
<polygon fill="black" stroke="black" points="976.42,-307.06 972.92,-297.06 969.42,-307.06 976.42,-307.06"/>
</g>
<!-- n4 -->
<g id="node7" class="node">
<title>n4</title>
<ellipse fill="#BEDA48" stroke="black" cx="190.92" cy="-148.43" rx="190.84" ry="37.45"/>
<text text-anchor="middle" x="190.92" y="-159.73" font-family="Times,serif" font-size="14.00">machines</text>
<text text-anchor="middle" x="190.92" y="-144.73" font-family="Times,serif" font-size="14.00">NNS (CONJ)</text>
<text text-anchor="middle" x="190.92" y="-129.73" font-family="Times,serif" font-size="14.00">rep=no, t=yes, r=no, m=yes, c=no</text>
</g>
<!-- n2&#45;&gt;n4 -->
<g id="edge6" class="edge">
<title>n2&#45;&gt;n4</title>
<path fill="none" stroke="black" d="M190.92,-221.8C190.92,-213.63 190.92,-204.85 190.92,-196.32"/>
<polygon fill="black" stroke="black" points="194.42,-196.1 190.92,-186.1 187.42,-196.1 194.42,-196.1"/>
</g>
<!-- n3 -->
<g id="node8" class="node">
<title>n3</title>
<ellipse fill="#BEDA48" stroke="black" cx="190.92" cy="-37.48" rx="190.84" ry="37.45"/>
<text text-anchor="middle" x="190.92" y="-48.78" font-family="Times,serif" font-size="14.00">virtual</text>
<text text-anchor="middle" x="190.92" y="-33.78" font-family="Times,serif" font-size="14.00">JJ (NMOD)</text>
<text text-anchor="middle" x="190.92" y="-18.78" font-family="Times,serif" font-size="14.00">rep=no, t=yes, r=no, m=yes, c=no</text>
</g>
<!-- n4&#45;&gt;n3 -->
<g id="edge7" class="edge">
<title>n4&#45;&gt;n3</title>
<path fill="none" stroke="black" d="M190.92,-110.85C190.92,-102.67 190.92,-93.89 190.92,-85.37"/>
<polygon fill="black" stroke="black" points="194.42,-85.15 190.92,-75.15 187.42,-85.15 194.42,-85.15"/>
</g>
<!-- n9 -->
<g id="node10" class="node">
<title>n9</title>
<ellipse fill="#DA79E8" stroke="black" cx="972.92" cy="-148.43" rx="190.84" ry="37.45"/>
<text text-anchor="middle" x="972.92" y="-159.73" font-family="Times,serif" font-size="14.00">together</text>
<text text-anchor="middle" x="972.92" y="-144.73" font-family="Times,serif" font-size="14.00">RB (MNR)</text>
<text text-anchor="middle" x="972.92" y="-129.73" font-family="Times,serif" font-size="14.00">rep=no, t=no, r=yes, m=yes, c=no</text>
</g>
<!-- n8&#45;&gt;n9 -->
<g id="edge9" class="edge">
<title>n8&#45;&gt;n9</title>
<path fill="none" stroke="black" d="M972.92,-221.8C972.92,-213.63 972.92,-204.85 972.92,-196.32"/>
<polygon fill="black" stroke="black" points="976.42,-196.1 972.92,-186.1 969.42,-196.1 976.42,-196.1"/>
</g>
</g>
</svg>
