<?xml version="1.0" encoding="UTF-8" standalone="no"?>
<!DOCTYPE svg PUBLIC "-//W3C//DTD SVG 1.1//EN"
 "http://www.w3.org/Graphics/SVG/1.1/DTD/svg11.dtd">
<!-- Generated by graphviz version 2.43.0 (0)
 -->
<!-- Title: tree Pages: 1 -->
<svg width="3162pt" height="1192pt"
 viewBox="0.00 0.00 3161.65 1192.49" xmlns="http://www.w3.org/2000/svg" xmlns:xlink="http://www.w3.org/1999/xlink">
<g id="graph0" class="graph" transform="scale(1 1) rotate(0) translate(4 1188.49)">
<title>tree</title>
<polygon fill="white" stroke="transparent" points="-4,4 -4,-1188.49 3157.65,-1188.49 3157.65,4 -4,4"/>
<!-- n5 -->
<g id="node1" class="node">
<title>n5</title>
<ellipse fill="#DA79E8" stroke="black" cx="962.73" cy="-1147.01" rx="190.84" ry="37.45"/>
<text text-anchor="middle" x="962.73" y="-1158.31" font-family="Times,serif" font-size="14.00">can</text>
<text text-anchor="middle" x="962.73" y="-1143.31" font-family="Times,serif" font-size="14.00">MD (root)</text>
<text text-anchor="middle" x="962.73" y="-1128.31" font-family="Times,serif" font-size="14.00">rep=no, t=no, r=yes, m=yes, c=no</text>
</g>
<!-- n1 -->
<g id="node2" class="node">
<title>n1</title>
<ellipse fill="none" stroke="black" cx="181.73" cy="-1036.06" rx="181.95" ry="37.45"/>
<text text-anchor="middle" x="181.73" y="-1047.36" font-family="Times,serif" font-size="14.00">For_example</text>
<text text-anchor="middle" x="181.73" y="-1032.36" font-family="Times,serif" font-size="14.00">RB (ADV)</text>
<text text-anchor="middle" x="181.73" y="-1017.36" font-family="Times,serif" font-size="14.00">rep=no, t=no, r=no, m=no, c=no</text>
</g>
<!-- n5&#45;&gt;n1 -->
<g id="edge1" class="edge">
<title>n5&#45;&gt;n1</title>
<path fill="none" stroke="black" d="M796.38,-1128.56C677.95,-1115.41 515.21,-1095.86 372.73,-1073.53 355.49,-1070.83 337.43,-1067.73 319.58,-1064.51"/>
<polygon fill="black" stroke="black" points="320.16,-1061.06 309.69,-1062.71 318.9,-1067.95 320.16,-1061.06"/>
</g>
<!-- n2 -->
<g id="node3" class="node">
<title>n2</title>
<ellipse fill="none" stroke="black" cx="567.73" cy="-1036.06" rx="185.94" ry="37.45"/>
<text text-anchor="middle" x="567.73" y="-1047.36" font-family="Times,serif" font-size="14.00">,</text>
<text text-anchor="middle" x="567.73" y="-1032.36" font-family="Times,serif" font-size="14.00">Fc (P)</text>
<text text-anchor="middle" x="567.73" y="-1017.36" font-family="Times,serif" font-size="14.00">rep=no, t=no, r=no, m=yes, c=no</text>
</g>
<!-- n5&#45;&gt;n2 -->
<g id="edge2" class="edge">
<title>n5&#45;&gt;n2</title>
<path fill="none" stroke="black" d="M854.27,-1116.09C801.81,-1101.62 738.74,-1084.23 685.15,-1069.45"/>
<polygon fill="black" stroke="black" points="685.83,-1066 675.26,-1066.72 683.97,-1072.75 685.83,-1066"/>
</g>
<!-- n4 -->
<g id="node4" class="node">
<title>n4</title>
<ellipse fill="#BEDA48" stroke="black" cx="962.73" cy="-1036.06" rx="190.84" ry="37.45"/>
<text text-anchor="middle" x="962.73" y="-1047.36" font-family="Times,serif" font-size="14.00">OS</text>
<text text-anchor="middle" x="962.73" y="-1032.36" font-family="Times,serif" font-size="14.00">NNS (SBJ)</text>
<text text-anchor="middle" x="962.73" y="-1017.36" font-family="Times,serif" font-size="14.00">rep=no, t=yes, r=no, m=yes, c=no</text>
</g>
<!-- n5&#45;&gt;n4 -->
<g id="edge3" class="edge">
<title>n5&#45;&gt;n4</title>
<path fill="none" stroke="black" d="M962.73,-1109.43C962.73,-1101.25 962.73,-1092.47 962.73,-1083.95"/>
<polygon fill="black" stroke="black" points="966.23,-1083.73 962.73,-1073.73 959.23,-1083.73 966.23,-1083.73"/>
</g>
<!-- n6 -->
<g id="node5" class="node">
<title>n6</title>
<ellipse fill="#DA79E8" stroke="black" cx="1362.73" cy="-1036.06" rx="190.84" ry="37.45"/>
<text text-anchor="middle" x="1362.73" y="-1047.36" font-family="Times,serif" font-size="14.00">run</text>
<text text-anchor="middle" x="1362.73" y="-1032.36" font-family="Times,serif" font-size="14.00">VB (VC)</text>
<text text-anchor="middle" x="1362.73" y="-1017.36" font-family="Times,serif" font-size="14.00">rep=no, t=no, r=yes, m=yes, c=no</text>
</g>
<!-- n5&#45;&gt;n6 -->
<g id="edge4" class="edge">
<title>n5&#45;&gt;n6</title>
<path fill="none" stroke="black" d="M1072.03,-1116.24C1125.16,-1101.76 1189.13,-1084.34 1243.52,-1069.53"/>
<polygon fill="black" stroke="black" points="1244.48,-1072.89 1253.21,-1066.89 1242.64,-1066.14 1244.48,-1072.89"/>
</g>
<!-- n27 -->
<g id="node6" class="node">
<title>n27</title>
<ellipse fill="#DA79E8" stroke="black" cx="1762.73" cy="-1036.06" rx="190.84" ry="37.45"/>
<text text-anchor="middle" x="1762.73" y="-1047.36" font-family="Times,serif" font-size="14.00">.</text>
<text text-anchor="middle" x="1762.73" y="-1032.36" font-family="Times,serif" font-size="14.00">Fp (P)</text>
<text text-anchor="middle" x="1762.73" y="-1017.36" font-family="Times,serif" font-size="14.00">rep=no, t=no, r=yes, m=yes, c=no</text>
</g>
<!-- n5&#45;&gt;n27 -->
<g id="edge5" class="edge">
<title>n5&#45;&gt;n27</title>
<path fill="none" stroke="black" d="M1129.27,-1128.61C1249.88,-1115.35 1416.71,-1095.65 1562.73,-1073.53 1580.77,-1070.8 1599.68,-1067.68 1618.38,-1064.45"/>
<polygon fill="black" stroke="black" points="1619.19,-1067.86 1628.44,-1062.7 1617.98,-1060.97 1619.19,-1067.86"/>
</g>
<!-- n3 -->
<g id="node7" class="node">
<title>n3</title>
<ellipse fill="#BEDA48" stroke="black" cx="962.73" cy="-925.1" rx="190.84" ry="37.45"/>
<text text-anchor="middle" x="962.73" y="-936.4" font-family="Times,serif" font-size="14.00">Android</text>
<text text-anchor="middle" x="962.73" y="-921.4" font-family="Times,serif" font-size="14.00">JJ (NMOD)</text>
<text text-anchor="middle" x="962.73" y="-906.4" font-family="Times,serif" font-size="14.00">rep=no, t=yes, r=no, m=yes, c=no</text>
</g>
<!-- n4&#45;&gt;n3 -->
<g id="edge6" class="edge">
<title>n4&#45;&gt;n3</title>
<path fill="none" stroke="black" d="M962.73,-998.47C962.73,-990.3 962.73,-981.52 962.73,-972.99"/>
<polygon fill="black" stroke="black" points="966.23,-972.78 962.73,-962.78 959.23,-972.78 966.23,-972.78"/>
</g>
<!-- n7 -->
<g id="node8" class="node">
<title>n7</title>
<ellipse fill="#DA79E8" stroke="black" cx="1362.73" cy="-925.1" rx="190.84" ry="37.45"/>
<text text-anchor="middle" x="1362.73" y="-936.4" font-family="Times,serif" font-size="14.00">on</text>
<text text-anchor="middle" x="1362.73" y="-921.4" font-family="Times,serif" font-size="14.00">IN (ADV)</text>
<text text-anchor="middle" x="1362.73" y="-906.4" font-family="Times,serif" font-size="14.00">rep=no, t=no, r=yes, m=yes, c=no</text>
</g>
<!-- n6&#45;&gt;n7 -->
<g id="edge7" class="edge">
<title>n6&#45;&gt;n7</title>
<path fill="none" stroke="black" d="M1362.73,-998.47C1362.73,-990.3 1362.73,-981.52 1362.73,-972.99"/>
<polygon fill="black" stroke="black" points="1366.23,-972.78 1362.73,-962.78 1359.23,-972.78 1366.23,-972.78"/>
</g>
<!-- n10 -->
<g id="node9" class="node">
<title>n10</title>
<ellipse fill="#DA79E8" stroke="black" cx="1362.73" cy="-814.15" rx="190.84" ry="37.45"/>
<text text-anchor="middle" x="1362.73" y="-825.45" font-family="Times,serif" font-size="14.00">machine</text>
<text text-anchor="middle" x="1362.73" y="-810.45" font-family="Times,serif" font-size="14.00">NN (PMOD)</text>
<text text-anchor="middle" x="1362.73" y="-795.45" font-family="Times,serif" font-size="14.00">rep=no, t=no, r=yes, m=yes, c=no</text>
</g>
<!-- n7&#45;&gt;n10 -->
<g id="edge8" class="edge">
<title>n7&#45;&gt;n10</title>
<path fill="none" stroke="black" d="M1362.73,-887.52C1362.73,-879.35 1362.73,-870.57 1362.73,-862.04"/>
<polygon fill="black" stroke="black" points="1366.23,-861.82 1362.73,-851.82 1359.23,-861.82 1366.23,-861.82"/>
</g>
<!-- n8 -->
<g id="node10" class="node">
<title>n8</title>
<ellipse fill="#DA79E8" stroke="black" cx="962.73" cy="-703.2" rx="190.84" ry="37.45"/>
<text text-anchor="middle" x="962.73" y="-714.5" font-family="Times,serif" font-size="14.00">a</text>
<text text-anchor="middle" x="962.73" y="-699.5" font-family="Times,serif" font-size="14.00">DT (NMOD)</text>
<text text-anchor="middle" x="962.73" y="-684.5" font-family="Times,serif" font-size="14.00">rep=no, t=no, r=yes, m=yes, c=no</text>
</g>
<!-- n10&#45;&gt;n8 -->
<g id="edge9" class="edge">
<title>n10&#45;&gt;n8</title>
<path fill="none" stroke="black" d="M1253.42,-783.38C1200.29,-768.9 1136.32,-751.48 1081.93,-736.67"/>
<polygon fill="black" stroke="black" points="1082.81,-733.28 1072.24,-734.03 1080.97,-740.03 1082.81,-733.28"/>
</g>
<!-- n9 -->
<g id="node11" class="node">
<title>n9</title>
<ellipse fill="#DA79E8" stroke="black" cx="1362.73" cy="-703.2" rx="190.84" ry="37.45"/>
<text text-anchor="middle" x="1362.73" y="-714.5" font-family="Times,serif" font-size="14.00">host</text>
<text text-anchor="middle" x="1362.73" y="-699.5" font-family="Times,serif" font-size="14.00">NN (NMOD)</text>
<text text-anchor="middle" x="1362.73" y="-684.5" font-family="Times,serif" font-size="14.00">rep=no, t=no, r=yes, m=yes, c=no</text>
</g>
<!-- n10&#45;&gt;n9 -->
<g id="edge10" class="edge">
<title>n10&#45;&gt;n9</title>
<path fill="none" stroke="black" d="M1362.73,-776.57C1362.73,-768.39 1362.73,-759.61 1362.73,-751.09"/>
<polygon fill="black" stroke="black" points="1366.23,-750.87 1362.73,-740.87 1359.23,-750.87 1366.23,-750.87"/>
</g>
<!-- n12 -->
<g id="node12" class="node">
<title>n12</title>
<ellipse fill="#DA79E8" stroke="black" cx="1762.73" cy="-703.2" rx="190.84" ry="37.45"/>
<text text-anchor="middle" x="1762.73" y="-714.5" font-family="Times,serif" font-size="14.00">is</text>
<text text-anchor="middle" x="1762.73" y="-699.5" font-family="Times,serif" font-size="14.00">VBZ (NMOD)</text>
<text text-anchor="middle" x="1762.73" y="-684.5" font-family="Times,serif" font-size="14.00">rep=no, t=no, r=yes, m=yes, c=no</text>
</g>
<!-- n10&#45;&gt;n12 -->
<g id="edge11" class="edge">
<title>n10&#45;&gt;n12</title>
<path fill="none" stroke="black" d="M1472.03,-783.38C1525.16,-768.9 1589.13,-751.48 1643.52,-736.67"/>
<polygon fill="black" stroke="black" points="1644.48,-740.03 1653.21,-734.03 1642.64,-733.28 1644.48,-740.03"/>
</g>
<!-- n11 -->
<g id="node13" class="node">
<title>n11</title>
<ellipse fill="#DA79E8" stroke="black" cx="1362.73" cy="-592.24" rx="190.84" ry="37.45"/>
<text text-anchor="middle" x="1362.73" y="-603.54" font-family="Times,serif" font-size="14.00">that</text>
<text text-anchor="middle" x="1362.73" y="-588.54" font-family="Times,serif" font-size="14.00">WDT (SBJ)</text>
<text text-anchor="middle" x="1362.73" y="-573.54" font-family="Times,serif" font-size="14.00">rep=no, t=no, r=yes, m=yes, c=no</text>
</g>
<!-- n12&#45;&gt;n11 -->
<g id="edge12" class="edge">
<title>n12&#45;&gt;n11</title>
<path fill="none" stroke="black" d="M1653.42,-672.42C1600.29,-657.95 1536.32,-640.53 1481.93,-625.71"/>
<polygon fill="black" stroke="black" points="1482.81,-622.32 1472.24,-623.07 1480.97,-629.08 1482.81,-622.32"/>
</g>
<!-- n13 -->
<g id="node14" class="node">
<title>n13</title>
<ellipse fill="#DA79E8" stroke="black" cx="1762.73" cy="-592.24" rx="190.84" ry="37.45"/>
<text text-anchor="middle" x="1762.73" y="-603.54" font-family="Times,serif" font-size="14.00">natively</text>
<text text-anchor="middle" x="1762.73" y="-588.54" font-family="Times,serif" font-size="14.00">RB (TMP)</text>
<text text-anchor="middle" x="1762.73" y="-573.54" font-family="Times,serif" font-size="14.00">rep=no, t=no, r=yes, m=yes, c=no</text>
</g>
<!-- n12&#45;&gt;n13 -->
<g id="edge13" class="edge">
<title>n12&#45;&gt;n13</title>
<path fill="none" stroke="black" d="M1762.73,-665.61C1762.73,-657.44 1762.73,-648.66 1762.73,-640.13"/>
<polygon fill="black" stroke="black" points="1766.23,-639.92 1762.73,-629.92 1759.23,-639.92 1766.23,-639.92"/>
</g>
<!-- n14 -->
<g id="node15" class="node">
<title>n14</title>
<ellipse fill="#DA79E8" stroke="black" cx="2162.73" cy="-592.24" rx="190.84" ry="37.45"/>
<text text-anchor="middle" x="2162.73" y="-603.54" font-family="Times,serif" font-size="14.00">using</text>
<text text-anchor="middle" x="2162.73" y="-588.54" font-family="Times,serif" font-size="14.00">VBG (VC)</text>
<text text-anchor="middle" x="2162.73" y="-573.54" font-family="Times,serif" font-size="14.00">rep=no, t=no, r=yes, m=yes, c=no</text>
</g>
<!-- n12&#45;&gt;n14 -->
<g id="edge14" class="edge">
<title>n12&#45;&gt;n14</title>
<path fill="none" stroke="black" d="M1872.03,-672.42C1925.16,-657.95 1989.13,-640.53 2043.52,-625.71"/>
<polygon fill="black" stroke="black" points="2044.48,-629.08 2053.21,-623.07 2042.64,-622.32 2044.48,-629.08"/>
</g>
<!-- n16 -->
<g id="node16" class="node">
<title>n16</title>
<ellipse fill="#DA79E8" stroke="black" cx="1762.73" cy="-481.29" rx="190.84" ry="37.45"/>
<text text-anchor="middle" x="1762.73" y="-492.59" font-family="Times,serif" font-size="14.00">Microsoft_Windows_OS</text>
<text text-anchor="middle" x="1762.73" y="-477.59" font-family="Times,serif" font-size="14.00">NP00O00 (OBJ)</text>
<text text-anchor="middle" x="1762.73" y="-462.59" font-family="Times,serif" font-size="14.00">rep=no, t=no, r=yes, m=yes, c=no</text>
</g>
<!-- n14&#45;&gt;n16 -->
<g id="edge15" class="edge">
<title>n14&#45;&gt;n16</title>
<path fill="none" stroke="black" d="M2053.42,-561.47C2000.29,-547 1936.32,-529.57 1881.93,-514.76"/>
<polygon fill="black" stroke="black" points="1882.81,-511.37 1872.24,-512.12 1880.97,-518.13 1882.81,-511.37"/>
</g>
<!-- n17 -->
<g id="node17" class="node">
<title>n17</title>
<ellipse fill="#DA79E8" stroke="black" cx="2162.73" cy="-481.29" rx="190.84" ry="37.45"/>
<text text-anchor="middle" x="2162.73" y="-492.59" font-family="Times,serif" font-size="14.00">,</text>
<text text-anchor="middle" x="2162.73" y="-477.59" font-family="Times,serif" font-size="14.00">Fc (P)</text>
<text text-anchor="middle" x="2162.73" y="-462.59" font-family="Times,serif" font-size="14.00">rep=no, t=no, r=yes, m=yes, c=no</text>
</g>
<!-- n14&#45;&gt;n17 -->
<g id="edge16" class="edge">
<title>n14&#45;&gt;n17</title>
<path fill="none" stroke="black" d="M2162.73,-554.66C2162.73,-546.49 2162.73,-537.71 2162.73,-529.18"/>
<polygon fill="black" stroke="black" points="2166.23,-528.96 2162.73,-518.96 2159.23,-528.96 2166.23,-528.96"/>
</g>
<!-- n18 -->
<g id="node18" class="node">
<title>n18</title>
<ellipse fill="#DA79E8" stroke="black" cx="2562.73" cy="-481.29" rx="190.84" ry="37.45"/>
<text text-anchor="middle" x="2562.73" y="-492.59" font-family="Times,serif" font-size="14.00">utilizing</text>
<text text-anchor="middle" x="2562.73" y="-477.59" font-family="Times,serif" font-size="14.00">VBG (ADV)</text>
<text text-anchor="middle" x="2562.73" y="-462.59" font-family="Times,serif" font-size="14.00">rep=no, t=no, r=yes, m=yes, c=no</text>
</g>
<!-- n14&#45;&gt;n18 -->
<g id="edge17" class="edge">
<title>n14&#45;&gt;n18</title>
<path fill="none" stroke="black" d="M2272.03,-561.47C2325.16,-547 2389.13,-529.57 2443.52,-514.76"/>
<polygon fill="black" stroke="black" points="2444.48,-518.13 2453.21,-512.12 2442.64,-511.37 2444.48,-518.13"/>
</g>
<!-- n15 -->
<g id="node19" class="node">
<title>n15</title>
<ellipse fill="#DA79E8" stroke="black" cx="1762.73" cy="-370.34" rx="190.84" ry="37.45"/>
<text text-anchor="middle" x="1762.73" y="-381.64" font-family="Times,serif" font-size="14.00">a</text>
<text text-anchor="middle" x="1762.73" y="-366.64" font-family="Times,serif" font-size="14.00">DT (NMOD)</text>
<text text-anchor="middle" x="1762.73" y="-351.64" font-family="Times,serif" font-size="14.00">rep=no, t=no, r=yes, m=yes, c=no</text>
</g>
<!-- n16&#45;&gt;n15 -->
<g id="edge18" class="edge">
<title>n16&#45;&gt;n15</title>
<path fill="none" stroke="black" d="M1762.73,-443.71C1762.73,-435.53 1762.73,-426.75 1762.73,-418.23"/>
<polygon fill="black" stroke="black" points="1766.23,-418.01 1762.73,-408.01 1759.23,-418.01 1766.23,-418.01"/>
</g>
<!-- n21 -->
<g id="node20" class="node">
<title>n21</title>
<ellipse fill="#DA79E8" stroke="black" cx="2362.73" cy="-370.34" rx="190.84" ry="37.45"/>
<text text-anchor="middle" x="2362.73" y="-381.64" font-family="Times,serif" font-size="14.00">hardware</text>
<text text-anchor="middle" x="2362.73" y="-366.64" font-family="Times,serif" font-size="14.00">NN (OBJ)</text>
<text text-anchor="middle" x="2362.73" y="-351.64" font-family="Times,serif" font-size="14.00">rep=no, t=no, r=yes, m=yes, c=no</text>
</g>
<!-- n18&#45;&gt;n21 -->
<g id="edge19" class="edge">
<title>n18&#45;&gt;n21</title>
<path fill="none" stroke="black" d="M2499.45,-445.82C2478.92,-434.63 2455.99,-422.14 2434.87,-410.64"/>
<polygon fill="black" stroke="black" points="2436.39,-407.48 2425.94,-405.77 2433.05,-413.63 2436.39,-407.48"/>
</g>
<!-- n22 -->
<g id="node21" class="node">
<title>n22</title>
<ellipse fill="#DA79E8" stroke="black" cx="2762.73" cy="-370.34" rx="190.84" ry="37.45"/>
<text text-anchor="middle" x="2762.73" y="-381.64" font-family="Times,serif" font-size="14.00">as</text>
<text text-anchor="middle" x="2762.73" y="-366.64" font-family="Times,serif" font-size="14.00">IN (TMP)</text>
<text text-anchor="middle" x="2762.73" y="-351.64" font-family="Times,serif" font-size="14.00">rep=no, t=no, r=yes, m=yes, c=no</text>
</g>
<!-- n18&#45;&gt;n22 -->
<g id="edge20" class="edge">
<title>n18&#45;&gt;n22</title>
<path fill="none" stroke="black" d="M2626.01,-445.82C2646.54,-434.63 2669.46,-422.14 2690.58,-410.64"/>
<polygon fill="black" stroke="black" points="2692.41,-413.63 2699.51,-405.77 2689.06,-407.48 2692.41,-413.63"/>
</g>
<!-- n19 -->
<g id="node22" class="node">
<title>n19</title>
<ellipse fill="#DA79E8" stroke="black" cx="1962.73" cy="-259.38" rx="190.84" ry="37.45"/>
<text text-anchor="middle" x="1962.73" y="-270.68" font-family="Times,serif" font-size="14.00">the</text>
<text text-anchor="middle" x="1962.73" y="-255.68" font-family="Times,serif" font-size="14.00">DT (NMOD)</text>
<text text-anchor="middle" x="1962.73" y="-240.68" font-family="Times,serif" font-size="14.00">rep=no, t=no, r=yes, m=yes, c=no</text>
</g>
<!-- n21&#45;&gt;n19 -->
<g id="edge21" class="edge">
<title>n21&#45;&gt;n19</title>
<path fill="none" stroke="black" d="M2253.42,-339.56C2200.29,-325.09 2136.32,-307.67 2081.93,-292.85"/>
<polygon fill="black" stroke="black" points="2082.81,-289.46 2072.24,-290.21 2080.97,-296.22 2082.81,-289.46"/>
</g>
<!-- n20 -->
<g id="node23" class="node">
<title>n20</title>
<ellipse fill="#DA79E8" stroke="black" cx="2362.73" cy="-259.38" rx="190.84" ry="37.45"/>
<text text-anchor="middle" x="2362.73" y="-270.68" font-family="Times,serif" font-size="14.00">same</text>
<text text-anchor="middle" x="2362.73" y="-255.68" font-family="Times,serif" font-size="14.00">JJ (NMOD)</text>
<text text-anchor="middle" x="2362.73" y="-240.68" font-family="Times,serif" font-size="14.00">rep=no, t=no, r=yes, m=yes, c=no</text>
</g>
<!-- n21&#45;&gt;n20 -->
<g id="edge22" class="edge">
<title>n21&#45;&gt;n20</title>
<path fill="none" stroke="black" d="M2362.73,-332.75C2362.73,-324.58 2362.73,-315.8 2362.73,-307.27"/>
<polygon fill="black" stroke="black" points="2366.23,-307.06 2362.73,-297.06 2359.23,-307.06 2366.23,-307.06"/>
</g>
<!-- n26 -->
<g id="node24" class="node">
<title>n26</title>
<ellipse fill="#DA79E8" stroke="black" cx="2762.73" cy="-259.38" rx="190.84" ry="37.45"/>
<text text-anchor="middle" x="2762.73" y="-270.68" font-family="Times,serif" font-size="14.00">does</text>
<text text-anchor="middle" x="2762.73" y="-255.68" font-family="Times,serif" font-size="14.00">VBZ (SUB)</text>
<text text-anchor="middle" x="2762.73" y="-240.68" font-family="Times,serif" font-size="14.00">rep=no, t=no, r=yes, m=yes, c=no</text>
</g>
<!-- n22&#45;&gt;n26 -->
<g id="edge23" class="edge">
<title>n22&#45;&gt;n26</title>
<path fill="none" stroke="black" d="M2762.73,-332.75C2762.73,-324.58 2762.73,-315.8 2762.73,-307.27"/>
<polygon fill="black" stroke="black" points="2766.23,-307.06 2762.73,-297.06 2759.23,-307.06 2766.23,-307.06"/>
</g>
<!-- n25 -->
<g id="node25" class="node">
<title>n25</title>
<ellipse fill="#DA79E8" stroke="black" cx="2762.73" cy="-148.43" rx="190.84" ry="37.45"/>
<text text-anchor="middle" x="2762.73" y="-159.73" font-family="Times,serif" font-size="14.00">machine</text>
<text text-anchor="middle" x="2762.73" y="-144.73" font-family="Times,serif" font-size="14.00">NN (SBJ)</text>
<text text-anchor="middle" x="2762.73" y="-129.73" font-family="Times,serif" font-size="14.00">rep=no, t=no, r=yes, m=yes, c=no</text>
</g>
<!-- n26&#45;&gt;n25 -->
<g id="edge24" class="edge">
<title>n26&#45;&gt;n25</title>
<path fill="none" stroke="black" d="M2762.73,-221.8C2762.73,-213.63 2762.73,-204.85 2762.73,-196.32"/>
<polygon fill="black" stroke="black" points="2766.23,-196.1 2762.73,-186.1 2759.23,-196.1 2766.23,-196.1"/>
</g>
<!-- n23 -->
<g id="node26" class="node">
<title>n23</title>
<ellipse fill="#DA79E8" stroke="black" cx="2562.73" cy="-37.48" rx="190.84" ry="37.45"/>
<text text-anchor="middle" x="2562.73" y="-48.78" font-family="Times,serif" font-size="14.00">the</text>
<text text-anchor="middle" x="2562.73" y="-33.78" font-family="Times,serif" font-size="14.00">DT (NMOD)</text>
<text text-anchor="middle" x="2562.73" y="-18.78" font-family="Times,serif" font-size="14.00">rep=no, t=no, r=yes, m=yes, c=no</text>
</g>
<!-- n25&#45;&gt;n23 -->
<g id="edge25" class="edge">
<title>n25&#45;&gt;n23</title>
<path fill="none" stroke="black" d="M2699.45,-112.96C2678.92,-101.77 2655.99,-89.28 2634.87,-77.78"/>
<polygon fill="black" stroke="black" points="2636.39,-74.62 2625.94,-72.91 2633.05,-80.77 2636.39,-74.62"/>
</g>
<!-- n24 -->
<g id="node27" class="node">
<title>n24</title>
<ellipse fill="#DA79E8" stroke="black" cx="2962.73" cy="-37.48" rx="190.84" ry="37.45"/>
<text text-anchor="middle" x="2962.73" y="-48.78" font-family="Times,serif" font-size="14.00">host</text>
<text text-anchor="middle" x="2962.73" y="-33.78" font-family="Times,serif" font-size="14.00">NN (NMOD)</text>
<text text-anchor="middle" x="2962.73" y="-18.78" font-family="Times,serif" font-size="14.00">rep=no, t=no, r=yes, m=yes, c=no</text>
</g>
<!-- n25&#45;&gt;n24 -->
<g id="edge26" class="edge">
<title>n25&#45;&gt;n24</title>
<path fill="none" stroke="black" d="M2826.01,-112.96C2846.54,-101.77 2869.46,-89.28 2890.58,-77.78"/>
<polygon fill="black" stroke="black" points="2892.41,-80.77 2899.51,-72.91 2889.06,-74.62 2892.41,-80.77"/>
</g>
</g>
</svg>
