<?xml version="1.0" encoding="UTF-8" standalone="no"?>
<!DOCTYPE svg PUBLIC "-//W3C//DTD SVG 1.1//EN"
 "http://www.w3.org/Graphics/SVG/1.1/DTD/svg11.dtd">
<!-- Generated by graphviz version 2.43.0 (0)
 -->
<!-- Title: tree Pages: 1 -->
<svg width="2600pt" height="860pt"
 viewBox="0.00 0.00 2599.79 859.63" xmlns="http://www.w3.org/2000/svg" xmlns:xlink="http://www.w3.org/1999/xlink">
<g id="graph0" class="graph" transform="scale(1 1) rotate(0) translate(4 855.63)">
<title>tree</title>
<polygon fill="white" stroke="transparent" points="-4,4 -4,-855.63 2595.79,-855.63 2595.79,4 -4,4"/>
<!-- n2 -->
<g id="node1" class="node">
<title>n2</title>
<ellipse fill="#98D2A5" stroke="black" cx="590.92" cy="-814.15" rx="190.84" ry="37.45"/>
<text text-anchor="middle" x="590.92" y="-825.45" font-family="Times,serif" font-size="14.00">ha</text>
<text text-anchor="middle" x="590.92" y="-810.45" font-family="Times,serif" font-size="14.00">vaip3s0 (root)</text>
<text text-anchor="middle" x="590.92" y="-795.45" font-family="Times,serif" font-size="14.00">rep=no, t=no, r=yes, m=yes, c=no</text>
</g>
<!-- n1 -->
<g id="node2" class="node">
<title>n1</title>
<ellipse fill="#98D2A5" stroke="black" cx="190.92" cy="-703.2" rx="190.84" ry="37.45"/>
<text text-anchor="middle" x="190.92" y="-714.5" font-family="Times,serif" font-size="14.00">Marruecos</text>
<text text-anchor="middle" x="190.92" y="-699.5" font-family="Times,serif" font-size="14.00">np00000 (nsubj)</text>
<text text-anchor="middle" x="190.92" y="-684.5" font-family="Times,serif" font-size="14.00">rep=no, t=yes, r=no, m=yes, c=no</text>
</g>
<!-- n2&#45;&gt;n1 -->
<g id="edge1" class="edge">
<title>n2&#45;&gt;n1</title>
<path fill="none" stroke="black" d="M481.62,-783.38C428.48,-768.9 364.51,-751.48 310.12,-736.67"/>
<polygon fill="black" stroke="black" points="311,-733.28 300.44,-734.03 309.16,-740.03 311,-733.28"/>
</g>
<!-- n3 -->
<g id="node3" class="node">
<title>n3</title>
<ellipse fill="#98D2A5" stroke="black" cx="590.92" cy="-703.2" rx="190.84" ry="37.45"/>
<text text-anchor="middle" x="590.92" y="-714.5" font-family="Times,serif" font-size="14.00">vuelto</text>
<text text-anchor="middle" x="590.92" y="-699.5" font-family="Times,serif" font-size="14.00">vmp00sm (vobj)</text>
<text text-anchor="middle" x="590.92" y="-684.5" font-family="Times,serif" font-size="14.00">rep=no, t=no, r=yes, m=yes, c=no</text>
</g>
<!-- n2&#45;&gt;n3 -->
<g id="edge2" class="edge">
<title>n2&#45;&gt;n3</title>
<path fill="none" stroke="black" d="M590.92,-776.57C590.92,-768.39 590.92,-759.61 590.92,-751.09"/>
<polygon fill="black" stroke="black" points="594.42,-750.87 590.92,-740.87 587.42,-750.87 594.42,-750.87"/>
</g>
<!-- n22 -->
<g id="node4" class="node">
<title>n22</title>
<ellipse fill="none" stroke="black" cx="981.92" cy="-703.2" rx="181.95" ry="37.45"/>
<text text-anchor="middle" x="981.92" y="-714.5" font-family="Times,serif" font-size="14.00">.</text>
<text text-anchor="middle" x="981.92" y="-699.5" font-family="Times,serif" font-size="14.00">fp (punct)</text>
<text text-anchor="middle" x="981.92" y="-684.5" font-family="Times,serif" font-size="14.00">rep=no, t=no, r=no, m=no, c=no</text>
</g>
<!-- n2&#45;&gt;n22 -->
<g id="edge3" class="edge">
<title>n2&#45;&gt;n22</title>
<path fill="none" stroke="black" d="M698.54,-783.16C750.57,-768.66 813.09,-751.24 866.16,-736.45"/>
<polygon fill="black" stroke="black" points="867.26,-739.78 875.95,-733.73 865.38,-733.04 867.26,-739.78"/>
</g>
<!-- n4 -->
<g id="node5" class="node">
<title>n4</title>
<ellipse fill="#98D2A5" stroke="black" cx="390.92" cy="-592.24" rx="190.84" ry="37.45"/>
<text text-anchor="middle" x="390.92" y="-603.54" font-family="Times,serif" font-size="14.00">a</text>
<text text-anchor="middle" x="390.92" y="-588.54" font-family="Times,serif" font-size="14.00">sps00 (prepv)</text>
<text text-anchor="middle" x="390.92" y="-573.54" font-family="Times,serif" font-size="14.00">rep=no, t=no, r=yes, m=yes, c=no</text>
</g>
<!-- n3&#45;&gt;n4 -->
<g id="edge4" class="edge">
<title>n3&#45;&gt;n4</title>
<path fill="none" stroke="black" d="M527.64,-667.72C507.11,-656.54 484.18,-644.05 463.06,-632.54"/>
<polygon fill="black" stroke="black" points="464.59,-629.39 454.13,-627.68 461.24,-635.54 464.59,-629.39"/>
</g>
<!-- n11 -->
<g id="node6" class="node">
<title>n11</title>
<ellipse fill="#98D2A5" stroke="black" cx="790.92" cy="-592.24" rx="190.84" ry="37.45"/>
<text text-anchor="middle" x="790.92" y="-603.54" font-family="Times,serif" font-size="14.00">reclamación</text>
<text text-anchor="middle" x="790.92" y="-588.54" font-family="Times,serif" font-size="14.00">ncfs000 (dobj)</text>
<text text-anchor="middle" x="790.92" y="-573.54" font-family="Times,serif" font-size="14.00">rep=no, t=no, r=yes, m=yes, c=no</text>
</g>
<!-- n3&#45;&gt;n11 -->
<g id="edge5" class="edge">
<title>n3&#45;&gt;n11</title>
<path fill="none" stroke="black" d="M654.2,-667.72C674.73,-656.54 697.65,-644.05 718.78,-632.54"/>
<polygon fill="black" stroke="black" points="720.6,-635.54 727.71,-627.68 717.25,-629.39 720.6,-635.54"/>
</g>
<!-- n5 -->
<g id="node7" class="node">
<title>n5</title>
<ellipse fill="#98D2A5" stroke="black" cx="190.92" cy="-481.29" rx="190.84" ry="37.45"/>
<text text-anchor="middle" x="190.92" y="-492.59" font-family="Times,serif" font-size="14.00">poner</text>
<text text-anchor="middle" x="190.92" y="-477.59" font-family="Times,serif" font-size="14.00">vmn0000 (pobj)</text>
<text text-anchor="middle" x="190.92" y="-462.59" font-family="Times,serif" font-size="14.00">rep=no, t=no, r=yes, m=yes, c=no</text>
</g>
<!-- n4&#45;&gt;n5 -->
<g id="edge6" class="edge">
<title>n4&#45;&gt;n5</title>
<path fill="none" stroke="black" d="M327.64,-556.77C307.11,-545.59 284.18,-533.1 263.06,-521.59"/>
<polygon fill="black" stroke="black" points="264.59,-518.44 254.13,-516.73 261.24,-524.58 264.59,-518.44"/>
</g>
<!-- n9 -->
<g id="node11" class="node">
<title>n9</title>
<ellipse fill="#98D2A5" stroke="black" cx="590.92" cy="-481.29" rx="190.84" ry="37.45"/>
<text text-anchor="middle" x="590.92" y="-492.59" font-family="Times,serif" font-size="14.00">su</text>
<text text-anchor="middle" x="590.92" y="-477.59" font-family="Times,serif" font-size="14.00">dp3cs0 (poss)</text>
<text text-anchor="middle" x="590.92" y="-462.59" font-family="Times,serif" font-size="14.00">rep=no, t=no, r=yes, m=yes, c=no</text>
</g>
<!-- n11&#45;&gt;n9 -->
<g id="edge10" class="edge">
<title>n11&#45;&gt;n9</title>
<path fill="none" stroke="black" d="M727.64,-556.77C707.11,-545.59 684.18,-533.1 663.06,-521.59"/>
<polygon fill="black" stroke="black" points="664.59,-518.44 654.13,-516.73 661.24,-524.58 664.59,-518.44"/>
</g>
<!-- n10 -->
<g id="node12" class="node">
<title>n10</title>
<ellipse fill="#98D2A5" stroke="black" cx="990.92" cy="-481.29" rx="190.84" ry="37.45"/>
<text text-anchor="middle" x="990.92" y="-492.59" font-family="Times,serif" font-size="14.00">vieja</text>
<text text-anchor="middle" x="990.92" y="-477.59" font-family="Times,serif" font-size="14.00">aq0fs0 (amod)</text>
<text text-anchor="middle" x="990.92" y="-462.59" font-family="Times,serif" font-size="14.00">rep=no, t=no, r=yes, m=yes, c=no</text>
</g>
<!-- n11&#45;&gt;n10 -->
<g id="edge11" class="edge">
<title>n11&#45;&gt;n10</title>
<path fill="none" stroke="black" d="M854.2,-556.77C874.73,-545.59 897.65,-533.1 918.78,-521.59"/>
<polygon fill="black" stroke="black" points="920.6,-524.58 927.71,-516.73 917.25,-518.44 920.6,-524.58"/>
</g>
<!-- n12 -->
<g id="node13" class="node">
<title>n12</title>
<ellipse fill="#98D2A5" stroke="black" cx="1390.92" cy="-481.29" rx="190.84" ry="37.45"/>
<text text-anchor="middle" x="1390.92" y="-492.59" font-family="Times,serif" font-size="14.00">de</text>
<text text-anchor="middle" x="1390.92" y="-477.59" font-family="Times,serif" font-size="14.00">sps00 (prepn)</text>
<text text-anchor="middle" x="1390.92" y="-462.59" font-family="Times,serif" font-size="14.00">rep=no, t=no, r=yes, m=yes, c=no</text>
</g>
<!-- n11&#45;&gt;n12 -->
<g id="edge12" class="edge">
<title>n11&#45;&gt;n12</title>
<path fill="none" stroke="black" d="M928.84,-566.29C1005.94,-552.34 1103.78,-534.61 1190.92,-518.77 1207.99,-515.66 1225.87,-512.41 1243.63,-509.17"/>
<polygon fill="black" stroke="black" points="1244.27,-512.61 1253.48,-507.38 1243.02,-505.73 1244.27,-512.61"/>
</g>
<!-- n6 -->
<g id="node8" class="node">
<title>n6</title>
<ellipse fill="#98D2A5" stroke="black" cx="190.92" cy="-370.34" rx="190.84" ry="37.45"/>
<text text-anchor="middle" x="190.92" y="-381.64" font-family="Times,serif" font-size="14.00">sobre</text>
<text text-anchor="middle" x="190.92" y="-366.64" font-family="Times,serif" font-size="14.00">sps00 (prepv)</text>
<text text-anchor="middle" x="190.92" y="-351.64" font-family="Times,serif" font-size="14.00">rep=no, t=no, r=yes, m=yes, c=no</text>
</g>
<!-- n5&#45;&gt;n6 -->
<g id="edge7" class="edge">
<title>n5&#45;&gt;n6</title>
<path fill="none" stroke="black" d="M190.92,-443.71C190.92,-435.53 190.92,-426.75 190.92,-418.23"/>
<polygon fill="black" stroke="black" points="194.42,-418.01 190.92,-408.01 187.42,-418.01 194.42,-418.01"/>
</g>
<!-- n8 -->
<g id="node9" class="node">
<title>n8</title>
<ellipse fill="#98D2A5" stroke="black" cx="190.92" cy="-259.38" rx="190.84" ry="37.45"/>
<text text-anchor="middle" x="190.92" y="-270.68" font-family="Times,serif" font-size="14.00">mesa</text>
<text text-anchor="middle" x="190.92" y="-255.68" font-family="Times,serif" font-size="14.00">ncfs000 (pobj)</text>
<text text-anchor="middle" x="190.92" y="-240.68" font-family="Times,serif" font-size="14.00">rep=no, t=no, r=yes, m=yes, c=no</text>
</g>
<!-- n6&#45;&gt;n8 -->
<g id="edge8" class="edge">
<title>n6&#45;&gt;n8</title>
<path fill="none" stroke="black" d="M190.92,-332.75C190.92,-324.58 190.92,-315.8 190.92,-307.27"/>
<polygon fill="black" stroke="black" points="194.42,-307.06 190.92,-297.06 187.42,-307.06 194.42,-307.06"/>
</g>
<!-- n7 -->
<g id="node10" class="node">
<title>n7</title>
<ellipse fill="#98D2A5" stroke="black" cx="190.92" cy="-148.43" rx="190.84" ry="37.45"/>
<text text-anchor="middle" x="190.92" y="-159.73" font-family="Times,serif" font-size="14.00">la</text>
<text text-anchor="middle" x="190.92" y="-144.73" font-family="Times,serif" font-size="14.00">da0fs0 (det)</text>
<text text-anchor="middle" x="190.92" y="-129.73" font-family="Times,serif" font-size="14.00">rep=no, t=no, r=yes, m=yes, c=no</text>
</g>
<!-- n8&#45;&gt;n7 -->
<g id="edge9" class="edge">
<title>n8&#45;&gt;n7</title>
<path fill="none" stroke="black" d="M190.92,-221.8C190.92,-213.63 190.92,-204.85 190.92,-196.32"/>
<polygon fill="black" stroke="black" points="194.42,-196.1 190.92,-186.1 187.42,-196.1 194.42,-196.1"/>
</g>
<!-- n13 -->
<g id="node14" class="node">
<title>n13</title>
<ellipse fill="#98D2A5" stroke="black" cx="1390.92" cy="-370.34" rx="190.84" ry="37.45"/>
<text text-anchor="middle" x="1390.92" y="-381.64" font-family="Times,serif" font-size="14.00">discutir</text>
<text text-anchor="middle" x="1390.92" y="-366.64" font-family="Times,serif" font-size="14.00">vmn0000 (pobj)</text>
<text text-anchor="middle" x="1390.92" y="-351.64" font-family="Times,serif" font-size="14.00">rep=no, t=no, r=yes, m=yes, c=no</text>
</g>
<!-- n12&#45;&gt;n13 -->
<g id="edge13" class="edge">
<title>n12&#45;&gt;n13</title>
<path fill="none" stroke="black" d="M1390.92,-443.71C1390.92,-435.53 1390.92,-426.75 1390.92,-418.23"/>
<polygon fill="black" stroke="black" points="1394.42,-418.01 1390.92,-408.01 1387.42,-418.01 1394.42,-418.01"/>
</g>
<!-- n14 -->
<g id="node15" class="node">
<title>n14</title>
<ellipse fill="#98D2A5" stroke="black" cx="1190.92" cy="-259.38" rx="190.84" ry="37.45"/>
<text text-anchor="middle" x="1190.92" y="-270.68" font-family="Times,serif" font-size="14.00">con</text>
<text text-anchor="middle" x="1190.92" y="-255.68" font-family="Times,serif" font-size="14.00">sps00 (prepv)</text>
<text text-anchor="middle" x="1190.92" y="-240.68" font-family="Times,serif" font-size="14.00">rep=no, t=no, r=yes, m=yes, c=no</text>
</g>
<!-- n13&#45;&gt;n14 -->
<g id="edge14" class="edge">
<title>n13&#45;&gt;n14</title>
<path fill="none" stroke="black" d="M1327.64,-334.86C1307.11,-323.68 1284.18,-311.19 1263.06,-299.68"/>
<polygon fill="black" stroke="black" points="1264.59,-296.53 1254.13,-294.82 1261.24,-302.68 1264.59,-296.53"/>
</g>
<!-- n17 -->
<g id="node16" class="node">
<title>n17</title>
<ellipse fill="#98D2A5" stroke="black" cx="1590.92" cy="-259.38" rx="190.84" ry="37.45"/>
<text text-anchor="middle" x="1590.92" y="-270.68" font-family="Times,serif" font-size="14.00">soberanía</text>
<text text-anchor="middle" x="1590.92" y="-255.68" font-family="Times,serif" font-size="14.00">ncfs000 (dobj)</text>
<text text-anchor="middle" x="1590.92" y="-240.68" font-family="Times,serif" font-size="14.00">rep=no, t=no, r=yes, m=yes, c=no</text>
</g>
<!-- n13&#45;&gt;n17 -->
<g id="edge15" class="edge">
<title>n13&#45;&gt;n17</title>
<path fill="none" stroke="black" d="M1454.2,-334.86C1474.73,-323.68 1497.65,-311.19 1518.78,-299.68"/>
<polygon fill="black" stroke="black" points="1520.6,-302.68 1527.71,-294.82 1517.25,-296.53 1520.6,-302.68"/>
</g>
<!-- n15 -->
<g id="node17" class="node">
<title>n15</title>
<ellipse fill="#98D2A5" stroke="black" cx="1190.92" cy="-148.43" rx="190.84" ry="37.45"/>
<text text-anchor="middle" x="1190.92" y="-159.73" font-family="Times,serif" font-size="14.00">España</text>
<text text-anchor="middle" x="1190.92" y="-144.73" font-family="Times,serif" font-size="14.00">np00000 (pobj)</text>
<text text-anchor="middle" x="1190.92" y="-129.73" font-family="Times,serif" font-size="14.00">rep=no, t=no, r=yes, m=yes, c=no</text>
</g>
<!-- n14&#45;&gt;n15 -->
<g id="edge16" class="edge">
<title>n14&#45;&gt;n15</title>
<path fill="none" stroke="black" d="M1190.92,-221.8C1190.92,-213.63 1190.92,-204.85 1190.92,-196.32"/>
<polygon fill="black" stroke="black" points="1194.42,-196.1 1190.92,-186.1 1187.42,-196.1 1194.42,-196.1"/>
</g>
<!-- n16 -->
<g id="node18" class="node">
<title>n16</title>
<ellipse fill="#98D2A5" stroke="black" cx="1590.92" cy="-148.43" rx="190.84" ry="37.45"/>
<text text-anchor="middle" x="1590.92" y="-159.73" font-family="Times,serif" font-size="14.00">la</text>
<text text-anchor="middle" x="1590.92" y="-144.73" font-family="Times,serif" font-size="14.00">da0fs0 (det)</text>
<text text-anchor="middle" x="1590.92" y="-129.73" font-family="Times,serif" font-size="14.00">rep=no, t=no, r=yes, m=yes, c=no</text>
</g>
<!-- n17&#45;&gt;n16 -->
<g id="edge17" class="edge">
<title>n17&#45;&gt;n16</title>
<path fill="none" stroke="black" d="M1590.92,-221.8C1590.92,-213.63 1590.92,-204.85 1590.92,-196.32"/>
<polygon fill="black" stroke="black" points="1594.42,-196.1 1590.92,-186.1 1587.42,-196.1 1594.42,-196.1"/>
</g>
<!-- n18 -->
<g id="node19" class="node">
<title>n18</title>
<ellipse fill="#98D2A5" stroke="black" cx="1990.92" cy="-148.43" rx="190.84" ry="37.45"/>
<text text-anchor="middle" x="1990.92" y="-159.73" font-family="Times,serif" font-size="14.00">de</text>
<text text-anchor="middle" x="1990.92" y="-144.73" font-family="Times,serif" font-size="14.00">sps00 (prepn)</text>
<text text-anchor="middle" x="1990.92" y="-129.73" font-family="Times,serif" font-size="14.00">rep=no, t=no, r=yes, m=yes, c=no</text>
</g>
<!-- n17&#45;&gt;n18 -->
<g id="edge18" class="edge">
<title>n17&#45;&gt;n18</title>
<path fill="none" stroke="black" d="M1700.22,-228.61C1753.36,-214.14 1817.33,-196.71 1871.71,-181.9"/>
<polygon fill="black" stroke="black" points="1872.67,-185.27 1881.4,-179.26 1870.83,-178.51 1872.67,-185.27"/>
</g>
<!-- n19 -->
<g id="node20" class="node">
<title>n19</title>
<ellipse fill="#98D2A5" stroke="black" cx="1590.92" cy="-37.48" rx="190.84" ry="37.45"/>
<text text-anchor="middle" x="1590.92" y="-48.78" font-family="Times,serif" font-size="14.00">Ceuta</text>
<text text-anchor="middle" x="1590.92" y="-33.78" font-family="Times,serif" font-size="14.00">np00000 (pobj)</text>
<text text-anchor="middle" x="1590.92" y="-18.78" font-family="Times,serif" font-size="14.00">rep=no, t=no, r=yes, m=yes, c=no</text>
</g>
<!-- n18&#45;&gt;n19 -->
<g id="edge19" class="edge">
<title>n18&#45;&gt;n19</title>
<path fill="none" stroke="black" d="M1881.62,-117.66C1828.48,-103.19 1764.51,-85.76 1710.12,-70.95"/>
<polygon fill="black" stroke="black" points="1711,-67.56 1700.44,-68.31 1709.16,-74.31 1711,-67.56"/>
</g>
<!-- n20 -->
<g id="node21" class="node">
<title>n20</title>
<ellipse fill="#98D2A5" stroke="black" cx="1990.92" cy="-37.48" rx="190.84" ry="37.45"/>
<text text-anchor="middle" x="1990.92" y="-48.78" font-family="Times,serif" font-size="14.00">y</text>
<text text-anchor="middle" x="1990.92" y="-33.78" font-family="Times,serif" font-size="14.00">cc (coord_fixed)</text>
<text text-anchor="middle" x="1990.92" y="-18.78" font-family="Times,serif" font-size="14.00">rep=no, t=no, r=yes, m=yes, c=no</text>
</g>
<!-- n18&#45;&gt;n20 -->
<g id="edge20" class="edge">
<title>n18&#45;&gt;n20</title>
<path fill="none" stroke="black" d="M1990.92,-110.85C1990.92,-102.67 1990.92,-93.89 1990.92,-85.37"/>
<polygon fill="black" stroke="black" points="1994.42,-85.15 1990.92,-75.15 1987.42,-85.15 1994.42,-85.15"/>
</g>
<!-- n21 -->
<g id="node22" class="node">
<title>n21</title>
<ellipse fill="#98D2A5" stroke="black" cx="2395.92" cy="-37.48" rx="195.74" ry="37.45"/>
<text text-anchor="middle" x="2395.92" y="-48.78" font-family="Times,serif" font-size="14.00">Melilla</text>
<text text-anchor="middle" x="2395.92" y="-33.78" font-family="Times,serif" font-size="14.00">np00000 (pobj)</text>
<text text-anchor="middle" x="2395.92" y="-18.78" font-family="Times,serif" font-size="14.00">rep=no, t=no, r=yes, m=yes, c=yes</text>
</g>
<!-- n18&#45;&gt;n21 -->
<g id="edge21" class="edge">
<title>n18&#45;&gt;n21</title>
<path fill="none" stroke="black" d="M2101.05,-117.8C2154.86,-103.33 2219.74,-85.87 2274.92,-71.03"/>
<polygon fill="black" stroke="black" points="2276,-74.36 2284.75,-68.38 2274.19,-67.6 2276,-74.36"/>
</g>
</g>
</svg>
