<?xml version="1.0" encoding="UTF-8" standalone="no"?>
<!DOCTYPE svg PUBLIC "-//W3C//DTD SVG 1.1//EN"
 "http://www.w3.org/Graphics/SVG/1.1/DTD/svg11.dtd">
<!-- Generated by graphviz version 2.43.0 (0)
 -->
<!-- Title: tree Pages: 1 -->
<svg width="2355pt" height="749pt"
 viewBox="0.00 0.00 2354.94 748.67" xmlns="http://www.w3.org/2000/svg" xmlns:xlink="http://www.w3.org/1999/xlink">
<g id="graph0" class="graph" transform="scale(1 1) rotate(0) translate(4 744.67)">
<title>tree</title>
<polygon fill="white" stroke="transparent" points="-4,4 -4,-744.67 2350.94,-744.67 2350.94,4 -4,4"/>
<!-- n16 -->
<g id="node1" class="node">
<title>n16</title>
<ellipse fill="#98D2A5" stroke="black" cx="1361.97" cy="-703.2" rx="185.94" ry="37.45"/>
<text text-anchor="middle" x="1361.97" y="-714.5" font-family="Times,serif" font-size="14.00">añadió</text>
<text text-anchor="middle" x="1361.97" y="-699.5" font-family="Times,serif" font-size="14.00">vmis3s0 (root)</text>
<text text-anchor="middle" x="1361.97" y="-684.5" font-family="Times,serif" font-size="14.00">rep=no, t=no, r=no, m=yes, c=no</text>
</g>
<!-- n6 -->
<g id="node2" class="node">
<title>n6</title>
<ellipse fill="#98D2A5" stroke="black" cx="970.97" cy="-592.24" rx="190.84" ry="37.45"/>
<text text-anchor="middle" x="970.97" y="-603.54" font-family="Times,serif" font-size="14.00">debe</text>
<text text-anchor="middle" x="970.97" y="-588.54" font-family="Times,serif" font-size="14.00">vmip3s0 (dobj)</text>
<text text-anchor="middle" x="970.97" y="-573.54" font-family="Times,serif" font-size="14.00">rep=no, t=no, r=yes, m=yes, c=no</text>
</g>
<!-- n16&#45;&gt;n6 -->
<g id="edge1" class="edge">
<title>n16&#45;&gt;n6</title>
<path fill="none" stroke="black" d="M1255.13,-672.42C1203.51,-658.04 1141.43,-640.74 1088.48,-625.99"/>
<polygon fill="black" stroke="black" points="1089.27,-622.58 1078.7,-623.26 1087.39,-629.32 1089.27,-622.58"/>
</g>
<!-- n15 -->
<g id="node3" class="node">
<title>n15</title>
<ellipse fill="none" stroke="black" cx="1361.97" cy="-592.24" rx="181.95" ry="37.45"/>
<text text-anchor="middle" x="1361.97" y="-603.54" font-family="Times,serif" font-size="14.00">,</text>
<text text-anchor="middle" x="1361.97" y="-588.54" font-family="Times,serif" font-size="14.00">fc (punct)</text>
<text text-anchor="middle" x="1361.97" y="-573.54" font-family="Times,serif" font-size="14.00">rep=no, t=no, r=no, m=no, c=no</text>
</g>
<!-- n16&#45;&gt;n15 -->
<g id="edge2" class="edge">
<title>n16&#45;&gt;n15</title>
<path fill="none" stroke="black" d="M1361.97,-665.61C1361.97,-657.44 1361.97,-648.66 1361.97,-640.13"/>
<polygon fill="black" stroke="black" points="1365.47,-639.92 1361.97,-629.92 1358.47,-639.92 1365.47,-639.92"/>
</g>
<!-- n17 -->
<g id="node4" class="node">
<title>n17</title>
<ellipse fill="none" stroke="black" cx="1742.97" cy="-592.24" rx="181.95" ry="37.45"/>
<text text-anchor="middle" x="1742.97" y="-603.54" font-family="Times,serif" font-size="14.00">.</text>
<text text-anchor="middle" x="1742.97" y="-588.54" font-family="Times,serif" font-size="14.00">fp (punct)</text>
<text text-anchor="middle" x="1742.97" y="-573.54" font-family="Times,serif" font-size="14.00">rep=no, t=no, r=no, m=no, c=no</text>
</g>
<!-- n16&#45;&gt;n17 -->
<g id="edge3" class="edge">
<title>n16&#45;&gt;n17</title>
<path fill="none" stroke="black" d="M1466.84,-672.21C1517.12,-657.83 1577.46,-640.57 1628.89,-625.87"/>
<polygon fill="black" stroke="black" points="1630.07,-629.17 1638.72,-623.05 1628.14,-622.44 1630.07,-629.17"/>
</g>
<!-- n1 -->
<g id="node5" class="node">
<title>n1</title>
<ellipse fill="#98D2A5" stroke="black" cx="185.97" cy="-481.29" rx="185.94" ry="37.45"/>
<text text-anchor="middle" x="185.97" y="-492.59" font-family="Times,serif" font-size="14.00">&quot;</text>
<text text-anchor="middle" x="185.97" y="-477.59" font-family="Times,serif" font-size="14.00">fe (punct)</text>
<text text-anchor="middle" x="185.97" y="-462.59" font-family="Times,serif" font-size="14.00">rep=no, t=no, r=no, m=yes, c=no</text>
</g>
<!-- n6&#45;&gt;n1 -->
<g id="edge4" class="edge">
<title>n6&#45;&gt;n1</title>
<path fill="none" stroke="black" d="M804.96,-573.66C686.53,-560.44 523.62,-540.85 380.97,-518.77 363.45,-516.05 345.1,-512.96 326.95,-509.74"/>
<polygon fill="black" stroke="black" points="327.35,-506.26 316.89,-507.95 326.12,-513.15 327.35,-506.26"/>
</g>
<!-- n4 -->
<g id="node6" class="node">
<title>n4</title>
<ellipse fill="#98D2A5" stroke="black" cx="575.97" cy="-481.29" rx="185.94" ry="37.45"/>
<text text-anchor="middle" x="575.97" y="-492.59" font-family="Times,serif" font-size="14.00">,</text>
<text text-anchor="middle" x="575.97" y="-477.59" font-family="Times,serif" font-size="14.00">fc (punct)</text>
<text text-anchor="middle" x="575.97" y="-462.59" font-family="Times,serif" font-size="14.00">rep=no, t=no, r=no, m=yes, c=no</text>
</g>
<!-- n6&#45;&gt;n4 -->
<g id="edge5" class="edge">
<title>n6&#45;&gt;n4</title>
<path fill="none" stroke="black" d="M862.51,-561.33C810.05,-546.86 746.99,-529.46 693.39,-514.68"/>
<polygon fill="black" stroke="black" points="694.07,-511.24 683.5,-511.95 692.21,-517.98 694.07,-511.24"/>
</g>
<!-- n5 -->
<g id="node7" class="node">
<title>n5</title>
<ellipse fill="#98D2A5" stroke="black" cx="970.97" cy="-481.29" rx="190.84" ry="37.45"/>
<text text-anchor="middle" x="970.97" y="-492.59" font-family="Times,serif" font-size="14.00">Milosevic</text>
<text text-anchor="middle" x="970.97" y="-477.59" font-family="Times,serif" font-size="14.00">np00000 (nsubj)</text>
<text text-anchor="middle" x="970.97" y="-462.59" font-family="Times,serif" font-size="14.00">rep=no, t=yes, r=no, m=yes, c=no</text>
</g>
<!-- n6&#45;&gt;n5 -->
<g id="edge6" class="edge">
<title>n6&#45;&gt;n5</title>
<path fill="none" stroke="black" d="M970.97,-554.66C970.97,-546.49 970.97,-537.71 970.97,-529.18"/>
<polygon fill="black" stroke="black" points="974.47,-528.96 970.97,-518.96 967.47,-528.96 974.47,-528.96"/>
</g>
<!-- n7 -->
<g id="node8" class="node">
<title>n7</title>
<ellipse fill="#98D2A5" stroke="black" cx="1370.97" cy="-481.29" rx="190.84" ry="37.45"/>
<text text-anchor="middle" x="1370.97" y="-492.59" font-family="Times,serif" font-size="14.00">recibir</text>
<text text-anchor="middle" x="1370.97" y="-477.59" font-family="Times,serif" font-size="14.00">vmn0000 (cobj)</text>
<text text-anchor="middle" x="1370.97" y="-462.59" font-family="Times,serif" font-size="14.00">rep=no, t=no, r=yes, m=yes, c=no</text>
</g>
<!-- n6&#45;&gt;n7 -->
<g id="edge7" class="edge">
<title>n6&#45;&gt;n7</title>
<path fill="none" stroke="black" d="M1080.27,-561.47C1133.41,-547 1197.38,-529.57 1251.76,-514.76"/>
<polygon fill="black" stroke="black" points="1252.72,-518.13 1261.45,-512.12 1250.88,-511.37 1252.72,-518.13"/>
</g>
<!-- n14 -->
<g id="node9" class="node">
<title>n14</title>
<ellipse fill="#98D2A5" stroke="black" cx="1770.97" cy="-481.29" rx="190.84" ry="37.45"/>
<text text-anchor="middle" x="1770.97" y="-492.59" font-family="Times,serif" font-size="14.00">&quot;</text>
<text text-anchor="middle" x="1770.97" y="-477.59" font-family="Times,serif" font-size="14.00">fe (punct)</text>
<text text-anchor="middle" x="1770.97" y="-462.59" font-family="Times,serif" font-size="14.00">rep=no, t=no, r=yes, m=yes, c=no</text>
</g>
<!-- n6&#45;&gt;n14 -->
<g id="edge8" class="edge">
<title>n6&#45;&gt;n14</title>
<path fill="none" stroke="black" d="M1103.83,-565.27C1126.19,-561.4 1149.2,-557.73 1170.97,-554.77 1347.84,-530.73 1394.1,-542.8 1570.97,-518.77 1589.51,-516.25 1608.95,-513.21 1628.11,-509.97"/>
<polygon fill="black" stroke="black" points="1628.84,-513.4 1638.11,-508.26 1627.66,-506.5 1628.84,-513.4"/>
</g>
<!-- n2 -->
<g id="node10" class="node">
<title>n2</title>
<ellipse fill="#98D2A5" stroke="black" cx="1170.97" cy="-370.34" rx="190.84" ry="37.45"/>
<text text-anchor="middle" x="1170.97" y="-381.64" font-family="Times,serif" font-size="14.00">Por</text>
<text text-anchor="middle" x="1170.97" y="-366.64" font-family="Times,serif" font-size="14.00">sps00 (advmod)</text>
<text text-anchor="middle" x="1170.97" y="-351.64" font-family="Times,serif" font-size="14.00">rep=no, t=no, r=yes, m=yes, c=no</text>
</g>
<!-- n7&#45;&gt;n2 -->
<g id="edge9" class="edge">
<title>n7&#45;&gt;n2</title>
<path fill="none" stroke="black" d="M1307.69,-445.82C1287.16,-434.63 1264.23,-422.14 1243.11,-410.64"/>
<polygon fill="black" stroke="black" points="1244.64,-407.48 1234.18,-405.77 1241.29,-413.63 1244.64,-407.48"/>
</g>
<!-- n9 -->
<g id="node11" class="node">
<title>n9</title>
<ellipse fill="#98D2A5" stroke="black" cx="1570.97" cy="-370.34" rx="190.84" ry="37.45"/>
<text text-anchor="middle" x="1570.97" y="-381.64" font-family="Times,serif" font-size="14.00">castigo</text>
<text text-anchor="middle" x="1570.97" y="-366.64" font-family="Times,serif" font-size="14.00">ncms000 (dobj)</text>
<text text-anchor="middle" x="1570.97" y="-351.64" font-family="Times,serif" font-size="14.00">rep=no, t=no, r=yes, m=yes, c=no</text>
</g>
<!-- n7&#45;&gt;n9 -->
<g id="edge10" class="edge">
<title>n7&#45;&gt;n9</title>
<path fill="none" stroke="black" d="M1434.25,-445.82C1454.78,-434.63 1477.7,-422.14 1498.83,-410.64"/>
<polygon fill="black" stroke="black" points="1500.65,-413.63 1507.76,-405.77 1497.3,-407.48 1500.65,-413.63"/>
</g>
<!-- n3 -->
<g id="node12" class="node">
<title>n3</title>
<ellipse fill="#98D2A5" stroke="black" cx="1170.97" cy="-259.38" rx="190.84" ry="37.45"/>
<text text-anchor="middle" x="1170.97" y="-270.68" font-family="Times,serif" font-size="14.00">supuesto</text>
<text text-anchor="middle" x="1170.97" y="-255.68" font-family="Times,serif" font-size="14.00">ncmp000 (pobj)</text>
<text text-anchor="middle" x="1170.97" y="-240.68" font-family="Times,serif" font-size="14.00">rep=no, t=no, r=yes, m=yes, c=no</text>
</g>
<!-- n2&#45;&gt;n3 -->
<g id="edge11" class="edge">
<title>n2&#45;&gt;n3</title>
<path fill="none" stroke="black" d="M1170.97,-332.75C1170.97,-324.58 1170.97,-315.8 1170.97,-307.27"/>
<polygon fill="black" stroke="black" points="1174.47,-307.06 1170.97,-297.06 1167.47,-307.06 1174.47,-307.06"/>
</g>
<!-- n8 -->
<g id="node13" class="node">
<title>n8</title>
<ellipse fill="#98D2A5" stroke="black" cx="1570.97" cy="-259.38" rx="190.84" ry="37.45"/>
<text text-anchor="middle" x="1570.97" y="-270.68" font-family="Times,serif" font-size="14.00">el</text>
<text text-anchor="middle" x="1570.97" y="-255.68" font-family="Times,serif" font-size="14.00">da0ms0 (det)</text>
<text text-anchor="middle" x="1570.97" y="-240.68" font-family="Times,serif" font-size="14.00">rep=no, t=no, r=yes, m=yes, c=no</text>
</g>
<!-- n9&#45;&gt;n8 -->
<g id="edge12" class="edge">
<title>n9&#45;&gt;n8</title>
<path fill="none" stroke="black" d="M1570.97,-332.75C1570.97,-324.58 1570.97,-315.8 1570.97,-307.27"/>
<polygon fill="black" stroke="black" points="1574.47,-307.06 1570.97,-297.06 1567.47,-307.06 1574.47,-307.06"/>
</g>
<!-- n12 -->
<g id="node14" class="node">
<title>n12</title>
<ellipse fill="#98D2A5" stroke="black" cx="1965.97" cy="-259.38" rx="185.94" ry="37.45"/>
<text text-anchor="middle" x="1965.97" y="-270.68" font-family="Times,serif" font-size="14.00">pueda</text>
<text text-anchor="middle" x="1965.97" y="-255.68" font-family="Times,serif" font-size="14.00">vmsp3s0 (rcmod)</text>
<text text-anchor="middle" x="1965.97" y="-240.68" font-family="Times,serif" font-size="14.00">rep=no, t=no, r=no, m=yes, c=no</text>
</g>
<!-- n9&#45;&gt;n12 -->
<g id="edge13" class="edge">
<title>n9&#45;&gt;n12</title>
<path fill="none" stroke="black" d="M1679.43,-339.42C1731.89,-324.95 1794.95,-307.56 1848.55,-292.77"/>
<polygon fill="black" stroke="black" points="1849.73,-296.08 1858.44,-290.04 1847.87,-289.33 1849.73,-296.08"/>
</g>
<!-- n13 -->
<g id="node15" class="node">
<title>n13</title>
<ellipse fill="#98D2A5" stroke="black" cx="1965.97" cy="-148.43" rx="185.94" ry="37.45"/>
<text text-anchor="middle" x="1965.97" y="-159.73" font-family="Times,serif" font-size="14.00">merecer</text>
<text text-anchor="middle" x="1965.97" y="-144.73" font-family="Times,serif" font-size="14.00">vmn0000 (dobj)</text>
<text text-anchor="middle" x="1965.97" y="-129.73" font-family="Times,serif" font-size="14.00">rep=no, t=no, r=no, m=yes, c=no</text>
</g>
<!-- n12&#45;&gt;n13 -->
<g id="edge14" class="edge">
<title>n12&#45;&gt;n13</title>
<path fill="none" stroke="black" d="M1965.97,-221.8C1965.97,-213.63 1965.97,-204.85 1965.97,-196.32"/>
<polygon fill="black" stroke="black" points="1969.47,-196.1 1965.97,-186.1 1962.47,-196.1 1969.47,-196.1"/>
</g>
<!-- n10 -->
<g id="node16" class="node">
<title>n10</title>
<ellipse fill="#98D2A5" stroke="black" cx="1770.97" cy="-37.48" rx="185.94" ry="37.45"/>
<text text-anchor="middle" x="1770.97" y="-48.78" font-family="Times,serif" font-size="14.00">que</text>
<text text-anchor="middle" x="1770.97" y="-33.78" font-family="Times,serif" font-size="14.00">pr0cn000 (dobj)</text>
<text text-anchor="middle" x="1770.97" y="-18.78" font-family="Times,serif" font-size="14.00">rep=no, t=no, r=no, m=yes, c=no</text>
</g>
<!-- n13&#45;&gt;n10 -->
<g id="edge15" class="edge">
<title>n13&#45;&gt;n10</title>
<path fill="none" stroke="black" d="M1904.27,-112.96C1884.34,-101.82 1862.1,-89.4 1841.58,-77.93"/>
<polygon fill="black" stroke="black" points="1843.04,-74.74 1832.6,-72.91 1839.62,-80.85 1843.04,-74.74"/>
</g>
<!-- n11 -->
<g id="node17" class="node">
<title>n11</title>
<ellipse fill="#98D2A5" stroke="black" cx="2160.97" cy="-37.48" rx="185.94" ry="37.45"/>
<text text-anchor="middle" x="2160.97" y="-48.78" font-family="Times,serif" font-size="14.00">se</text>
<text text-anchor="middle" x="2160.97" y="-33.78" font-family="Times,serif" font-size="14.00">p0300000 (reflec)</text>
<text text-anchor="middle" x="2160.97" y="-18.78" font-family="Times,serif" font-size="14.00">rep=no, t=no, r=no, m=yes, c=no</text>
</g>
<!-- n13&#45;&gt;n11 -->
<g id="edge16" class="edge">
<title>n13&#45;&gt;n11</title>
<path fill="none" stroke="black" d="M2027.67,-112.96C2047.59,-101.82 2069.84,-89.4 2090.35,-77.93"/>
<polygon fill="black" stroke="black" points="2092.31,-80.85 2099.34,-72.91 2088.9,-74.74 2092.31,-80.85"/>
</g>
</g>
</svg>
