<?xml version="1.0" encoding="UTF-8" standalone="no"?>
<!DOCTYPE svg PUBLIC "-//W3C//DTD SVG 1.1//EN"
 "http://www.w3.org/Graphics/SVG/1.1/DTD/svg11.dtd">
<!-- Generated by graphviz version 2.43.0 (0)
 -->
<!-- Title: tree Pages: 1 -->
<svg width="6426pt" height="1192pt"
 viewBox="0.00 0.00 6425.70 1192.49" xmlns="http://www.w3.org/2000/svg" xmlns:xlink="http://www.w3.org/1999/xlink">
<g id="graph0" class="graph" transform="scale(1 1) rotate(0) translate(4 1188.49)">
<title>tree</title>
<polygon fill="white" stroke="transparent" points="-4,4 -4,-1188.49 6421.7,-1188.49 6421.7,4 -4,4"/>
<!-- n19 -->
<g id="node1" class="node">
<title>n19</title>
<ellipse fill="#98D2A5" stroke="black" cx="2292.73" cy="-1147.01" rx="185.94" ry="37.45"/>
<text text-anchor="middle" x="2292.73" y="-1158.31" font-family="Times,serif" font-size="14.00">encontrará</text>
<text text-anchor="middle" x="2292.73" y="-1143.31" font-family="Times,serif" font-size="14.00">vmif3s0 (root)</text>
<text text-anchor="middle" x="2292.73" y="-1128.31" font-family="Times,serif" font-size="14.00">rep=no, t=no, r=no, m=yes, c=no</text>
</g>
<!-- n1 -->
<g id="node2" class="node">
<title>n1</title>
<ellipse fill="none" stroke="black" cx="1528.73" cy="-1036.06" rx="181.95" ry="37.45"/>
<text text-anchor="middle" x="1528.73" y="-1047.36" font-family="Times,serif" font-size="14.00">Si</text>
<text text-anchor="middle" x="1528.73" y="-1032.36" font-family="Times,serif" font-size="14.00">cs (advcl)</text>
<text text-anchor="middle" x="1528.73" y="-1017.36" font-family="Times,serif" font-size="14.00">rep=no, t=no, r=no, m=no, c=no</text>
</g>
<!-- n19&#45;&gt;n1 -->
<g id="edge1" class="edge">
<title>n19&#45;&gt;n1</title>
<path fill="none" stroke="black" d="M2143.15,-1124.68C2011.35,-1105.88 1819.99,-1078.59 1685.95,-1059.48"/>
<polygon fill="black" stroke="black" points="1686.39,-1056.01 1675.99,-1058.06 1685.4,-1062.93 1686.39,-1056.01"/>
</g>
<!-- n20 -->
<g id="node3" class="node">
<title>n20</title>
<ellipse fill="none" stroke="black" cx="2099.73" cy="-1036.06" rx="181.95" ry="37.45"/>
<text text-anchor="middle" x="2099.73" y="-1047.36" font-family="Times,serif" font-size="14.00">a</text>
<text text-anchor="middle" x="2099.73" y="-1032.36" font-family="Times,serif" font-size="14.00">sps00 (prepv)</text>
<text text-anchor="middle" x="2099.73" y="-1017.36" font-family="Times,serif" font-size="14.00">rep=no, t=no, r=no, m=no, c=no</text>
</g>
<!-- n19&#45;&gt;n20 -->
<g id="edge2" class="edge">
<title>n19&#45;&gt;n20</title>
<path fill="none" stroke="black" d="M2231.66,-1111.54C2211.94,-1100.4 2189.93,-1087.98 2169.62,-1076.51"/>
<polygon fill="black" stroke="black" points="2171.16,-1073.36 2160.73,-1071.49 2167.71,-1079.46 2171.16,-1073.36"/>
</g>
<!-- n24 -->
<g id="node4" class="node">
<title>n24</title>
<ellipse fill="#98D2A5" stroke="black" cx="2485.73" cy="-1036.06" rx="185.94" ry="37.45"/>
<text text-anchor="middle" x="2485.73" y="-1047.36" font-family="Times,serif" font-size="14.00">capilla</text>
<text text-anchor="middle" x="2485.73" y="-1032.36" font-family="Times,serif" font-size="14.00">ncfs000 (dobj)</text>
<text text-anchor="middle" x="2485.73" y="-1017.36" font-family="Times,serif" font-size="14.00">rep=no, t=no, r=no, m=yes, c=no</text>
</g>
<!-- n19&#45;&gt;n24 -->
<g id="edge3" class="edge">
<title>n19&#45;&gt;n24</title>
<path fill="none" stroke="black" d="M2353.79,-1111.54C2373.51,-1100.4 2395.53,-1087.98 2415.84,-1076.51"/>
<polygon fill="black" stroke="black" points="2417.74,-1079.46 2424.73,-1071.49 2414.3,-1073.36 2417.74,-1079.46"/>
</g>
<!-- n56 -->
<g id="node5" class="node">
<title>n56</title>
<ellipse fill="none" stroke="black" cx="2871.73" cy="-1036.06" rx="181.95" ry="37.45"/>
<text text-anchor="middle" x="2871.73" y="-1047.36" font-family="Times,serif" font-size="14.00">.</text>
<text text-anchor="middle" x="2871.73" y="-1032.36" font-family="Times,serif" font-size="14.00">fp (punct)</text>
<text text-anchor="middle" x="2871.73" y="-1017.36" font-family="Times,serif" font-size="14.00">rep=no, t=no, r=no, m=no, c=no</text>
</g>
<!-- n19&#45;&gt;n56 -->
<g id="edge4" class="edge">
<title>n19&#45;&gt;n56</title>
<path fill="none" stroke="black" d="M2426.98,-1121.07C2501.7,-1107.15 2596.39,-1089.46 2680.73,-1073.53 2697.02,-1070.46 2714.09,-1067.22 2731.04,-1063.99"/>
<polygon fill="black" stroke="black" points="2731.83,-1067.4 2741,-1062.1 2730.52,-1060.53 2731.83,-1067.4"/>
</g>
<!-- n6 -->
<g id="node6" class="node">
<title>n6</title>
<ellipse fill="none" stroke="black" cx="1135.73" cy="-925.1" rx="181.95" ry="37.45"/>
<text text-anchor="middle" x="1135.73" y="-936.4" font-family="Times,serif" font-size="14.00">introduce</text>
<text text-anchor="middle" x="1135.73" y="-921.4" font-family="Times,serif" font-size="14.00">vmip3s0 (cobj)</text>
<text text-anchor="middle" x="1135.73" y="-906.4" font-family="Times,serif" font-size="14.00">rep=no, t=no, r=no, m=no, c=no</text>
</g>
<!-- n1&#45;&gt;n6 -->
<g id="edge5" class="edge">
<title>n1&#45;&gt;n6</title>
<path fill="none" stroke="black" d="M1422.37,-1005.57C1369.73,-990.98 1306.06,-973.33 1252.12,-958.37"/>
<polygon fill="black" stroke="black" points="1252.73,-954.91 1242.16,-955.61 1250.86,-961.66 1252.73,-954.91"/>
</g>
<!-- n22 -->
<g id="node23" class="node">
<title>n22</title>
<ellipse fill="none" stroke="black" cx="1904.73" cy="-925.1" rx="181.95" ry="37.45"/>
<text text-anchor="middle" x="1904.73" y="-936.4" font-family="Times,serif" font-size="14.00">derecha</text>
<text text-anchor="middle" x="1904.73" y="-921.4" font-family="Times,serif" font-size="14.00">ncfs000 (pobj)</text>
<text text-anchor="middle" x="1904.73" y="-906.4" font-family="Times,serif" font-size="14.00">rep=no, t=no, r=no, m=no, c=no</text>
</g>
<!-- n20&#45;&gt;n22 -->
<g id="edge22" class="edge">
<title>n20&#45;&gt;n22</title>
<path fill="none" stroke="black" d="M2038.29,-1000.73C2018.17,-989.49 1995.66,-976.91 1974.94,-965.34"/>
<polygon fill="black" stroke="black" points="1976.62,-962.26 1966.18,-960.44 1973.21,-968.37 1976.62,-962.26"/>
</g>
<!-- n23 -->
<g id="node25" class="node">
<title>n23</title>
<ellipse fill="#98D2A5" stroke="black" cx="2290.73" cy="-925.1" rx="185.94" ry="37.45"/>
<text text-anchor="middle" x="2290.73" y="-936.4" font-family="Times,serif" font-size="14.00">la</text>
<text text-anchor="middle" x="2290.73" y="-921.4" font-family="Times,serif" font-size="14.00">da0fs0 (det)</text>
<text text-anchor="middle" x="2290.73" y="-906.4" font-family="Times,serif" font-size="14.00">rep=no, t=no, r=no, m=yes, c=no</text>
</g>
<!-- n24&#45;&gt;n23 -->
<g id="edge24" class="edge">
<title>n24&#45;&gt;n23</title>
<path fill="none" stroke="black" d="M2424.03,-1000.58C2404.1,-989.45 2381.86,-977.02 2361.34,-965.56"/>
<polygon fill="black" stroke="black" points="2362.8,-962.36 2352.36,-960.54 2359.38,-968.47 2362.8,-962.36"/>
</g>
<!-- n25 -->
<g id="node26" class="node">
<title>n25</title>
<ellipse fill="#98D2A5" stroke="black" cx="2680.73" cy="-925.1" rx="185.94" ry="37.45"/>
<text text-anchor="middle" x="2680.73" y="-936.4" font-family="Times,serif" font-size="14.00">de</text>
<text text-anchor="middle" x="2680.73" y="-921.4" font-family="Times,serif" font-size="14.00">sps00 (prepn)</text>
<text text-anchor="middle" x="2680.73" y="-906.4" font-family="Times,serif" font-size="14.00">rep=no, t=no, r=no, m=yes, c=no</text>
</g>
<!-- n24&#45;&gt;n25 -->
<g id="edge25" class="edge">
<title>n24&#45;&gt;n25</title>
<path fill="none" stroke="black" d="M2547.43,-1000.58C2567.35,-989.45 2589.59,-977.02 2610.11,-965.56"/>
<polygon fill="black" stroke="black" points="2612.07,-968.47 2619.09,-960.54 2608.66,-962.36 2612.07,-968.47"/>
</g>
<!-- n27 -->
<g id="node27" class="node">
<title>n27</title>
<ellipse fill="#98D2A5" stroke="black" cx="3070.73" cy="-925.1" rx="185.94" ry="37.45"/>
<text text-anchor="middle" x="3070.73" y="-936.4" font-family="Times,serif" font-size="14.00">,</text>
<text text-anchor="middle" x="3070.73" y="-921.4" font-family="Times,serif" font-size="14.00">fc (punct)</text>
<text text-anchor="middle" x="3070.73" y="-906.4" font-family="Times,serif" font-size="14.00">rep=no, t=no, r=no, m=yes, c=no</text>
</g>
<!-- n24&#45;&gt;n27 -->
<g id="edge26" class="edge">
<title>n24&#45;&gt;n27</title>
<path fill="none" stroke="black" d="M2619.46,-1010C2639.98,-1006.16 2660.92,-1002.26 2680.73,-998.58 2767.37,-982.48 2789.08,-978.68 2875.73,-962.58 2892.29,-959.5 2909.63,-956.27 2926.87,-953.05"/>
<polygon fill="black" stroke="black" points="2927.8,-956.44 2936.99,-951.16 2926.52,-949.56 2927.8,-956.44"/>
</g>
<!-- n29 -->
<g id="node28" class="node">
<title>n29</title>
<ellipse fill="#98D2A5" stroke="black" cx="3662.73" cy="-925.1" rx="185.94" ry="37.45"/>
<text text-anchor="middle" x="3662.73" y="-936.4" font-family="Times,serif" font-size="14.00">lugar</text>
<text text-anchor="middle" x="3662.73" y="-921.4" font-family="Times,serif" font-size="14.00">ncms000 (appos)</text>
<text text-anchor="middle" x="3662.73" y="-906.4" font-family="Times,serif" font-size="14.00">rep=no, t=no, r=no, m=yes, c=no</text>
</g>
<!-- n24&#45;&gt;n29 -->
<g id="edge27" class="edge">
<title>n24&#45;&gt;n29</title>
<path fill="none" stroke="black" d="M2613.61,-1008.8C2635.91,-1004.89 2658.94,-1001.28 2680.73,-998.58 2939.24,-966.57 3006,-982.5 3265.73,-962.58 3338.41,-957.01 3418.48,-949.84 3487.56,-943.34"/>
<polygon fill="black" stroke="black" points="3488.05,-946.81 3497.67,-942.39 3487.39,-939.85 3488.05,-946.81"/>
</g>
<!-- n3 -->
<g id="node7" class="node">
<title>n3</title>
<ellipse fill="none" stroke="black" cx="373.73" cy="-814.15" rx="181.95" ry="37.45"/>
<text text-anchor="middle" x="373.73" y="-825.45" font-family="Times,serif" font-size="14.00">paseante</text>
<text text-anchor="middle" x="373.73" y="-810.45" font-family="Times,serif" font-size="14.00">nccs000 (nsubj)</text>
<text text-anchor="middle" x="373.73" y="-795.45" font-family="Times,serif" font-size="14.00">rep=no, t=no, r=no, m=no, c=no</text>
</g>
<!-- n6&#45;&gt;n3 -->
<g id="edge6" class="edge">
<title>n6&#45;&gt;n3</title>
<path fill="none" stroke="black" d="M977.22,-906.76C862.19,-893.51 702.99,-873.79 563.73,-851.63 546.88,-848.95 529.24,-845.89 511.79,-842.72"/>
<polygon fill="black" stroke="black" points="512.01,-839.2 501.54,-840.84 510.74,-846.09 512.01,-839.2"/>
</g>
<!-- n5 -->
<g id="node8" class="node">
<title>n5</title>
<ellipse fill="none" stroke="black" cx="754.73" cy="-814.15" rx="181.95" ry="37.45"/>
<text text-anchor="middle" x="754.73" y="-825.45" font-family="Times,serif" font-size="14.00">se</text>
<text text-anchor="middle" x="754.73" y="-810.45" font-family="Times,serif" font-size="14.00">p0300000 (reflec)</text>
<text text-anchor="middle" x="754.73" y="-795.45" font-family="Times,serif" font-size="14.00">rep=no, t=no, r=no, m=no, c=no</text>
</g>
<!-- n6&#45;&gt;n5 -->
<g id="edge7" class="edge">
<title>n6&#45;&gt;n5</title>
<path fill="none" stroke="black" d="M1031.62,-894.33C981.11,-879.89 920.33,-862.51 868.6,-847.71"/>
<polygon fill="black" stroke="black" points="869.29,-844.27 858.71,-844.89 867.36,-851 869.29,-844.27"/>
</g>
<!-- n7 -->
<g id="node9" class="node">
<title>n7</title>
<ellipse fill="none" stroke="black" cx="1135.73" cy="-814.15" rx="181.95" ry="37.45"/>
<text text-anchor="middle" x="1135.73" y="-825.45" font-family="Times,serif" font-size="14.00">desde</text>
<text text-anchor="middle" x="1135.73" y="-810.45" font-family="Times,serif" font-size="14.00">sps00 (prepv)</text>
<text text-anchor="middle" x="1135.73" y="-795.45" font-family="Times,serif" font-size="14.00">rep=no, t=no, r=no, m=no, c=no</text>
</g>
<!-- n6&#45;&gt;n7 -->
<g id="edge8" class="edge">
<title>n6&#45;&gt;n7</title>
<path fill="none" stroke="black" d="M1135.73,-887.52C1135.73,-879.35 1135.73,-870.57 1135.73,-862.04"/>
<polygon fill="black" stroke="black" points="1139.23,-861.82 1135.73,-851.82 1132.23,-861.82 1139.23,-861.82"/>
</g>
<!-- n11 -->
<g id="node10" class="node">
<title>n11</title>
<ellipse fill="none" stroke="black" cx="1516.73" cy="-814.15" rx="181.95" ry="37.45"/>
<text text-anchor="middle" x="1516.73" y="-825.45" font-family="Times,serif" font-size="14.00">en</text>
<text text-anchor="middle" x="1516.73" y="-810.45" font-family="Times,serif" font-size="14.00">sps00 (prepv)</text>
<text text-anchor="middle" x="1516.73" y="-795.45" font-family="Times,serif" font-size="14.00">rep=no, t=no, r=no, m=no, c=no</text>
</g>
<!-- n6&#45;&gt;n11 -->
<g id="edge9" class="edge">
<title>n6&#45;&gt;n11</title>
<path fill="none" stroke="black" d="M1239.84,-894.33C1290.34,-879.89 1351.12,-862.51 1402.86,-847.71"/>
<polygon fill="black" stroke="black" points="1404.09,-851 1412.74,-844.89 1402.17,-844.27 1404.09,-851"/>
</g>
<!-- n2 -->
<g id="node11" class="node">
<title>n2</title>
<ellipse fill="none" stroke="black" cx="181.73" cy="-703.2" rx="181.95" ry="37.45"/>
<text text-anchor="middle" x="181.73" y="-714.5" font-family="Times,serif" font-size="14.00">el</text>
<text text-anchor="middle" x="181.73" y="-699.5" font-family="Times,serif" font-size="14.00">da0ms0 (det)</text>
<text text-anchor="middle" x="181.73" y="-684.5" font-family="Times,serif" font-size="14.00">rep=no, t=no, r=no, m=no, c=no</text>
</g>
<!-- n3&#45;&gt;n2 -->
<g id="edge10" class="edge">
<title>n3&#45;&gt;n2</title>
<path fill="none" stroke="black" d="M312.98,-778.68C293.36,-767.54 271.46,-755.12 251.26,-743.65"/>
<polygon fill="black" stroke="black" points="252.84,-740.52 242.41,-738.63 249.38,-746.61 252.84,-740.52"/>
</g>
<!-- n4 -->
<g id="node12" class="node">
<title>n4</title>
<ellipse fill="none" stroke="black" cx="562.73" cy="-703.2" rx="181.95" ry="37.45"/>
<text text-anchor="middle" x="562.73" y="-714.5" font-family="Times,serif" font-size="14.00">barcelonés</text>
<text text-anchor="middle" x="562.73" y="-699.5" font-family="Times,serif" font-size="14.00">aq0ms0 (amod)</text>
<text text-anchor="middle" x="562.73" y="-684.5" font-family="Times,serif" font-size="14.00">rep=no, t=no, r=no, m=no, c=no</text>
</g>
<!-- n3&#45;&gt;n4 -->
<g id="edge11" class="edge">
<title>n3&#45;&gt;n4</title>
<path fill="none" stroke="black" d="M433.53,-778.68C452.84,-767.54 474.4,-755.12 494.28,-743.65"/>
<polygon fill="black" stroke="black" points="496.08,-746.66 502.99,-738.63 492.58,-740.59 496.08,-746.66"/>
</g>
<!-- n9 -->
<g id="node13" class="node">
<title>n9</title>
<ellipse fill="none" stroke="black" cx="1133.73" cy="-703.2" rx="181.95" ry="37.45"/>
<text text-anchor="middle" x="1133.73" y="-714.5" font-family="Times,serif" font-size="14.00">Via</text>
<text text-anchor="middle" x="1133.73" y="-699.5" font-family="Times,serif" font-size="14.00">np0000l (pobj)</text>
<text text-anchor="middle" x="1133.73" y="-684.5" font-family="Times,serif" font-size="14.00">rep=no, t=no, r=no, m=no, c=no</text>
</g>
<!-- n7&#45;&gt;n9 -->
<g id="edge12" class="edge">
<title>n7&#45;&gt;n9</title>
<path fill="none" stroke="black" d="M1135.05,-776.57C1134.9,-768.39 1134.74,-759.61 1134.59,-751.09"/>
<polygon fill="black" stroke="black" points="1138.08,-750.8 1134.4,-740.87 1131.08,-750.93 1138.08,-750.8"/>
</g>
<!-- n13 -->
<g id="node16" class="node">
<title>n13</title>
<ellipse fill="none" stroke="black" cx="1516.73" cy="-703.2" rx="181.95" ry="37.45"/>
<text text-anchor="middle" x="1516.73" y="-714.5" font-family="Times,serif" font-size="14.00">calle</text>
<text text-anchor="middle" x="1516.73" y="-699.5" font-family="Times,serif" font-size="14.00">ncfs000 (pobj)</text>
<text text-anchor="middle" x="1516.73" y="-684.5" font-family="Times,serif" font-size="14.00">rep=no, t=no, r=no, m=no, c=no</text>
</g>
<!-- n11&#45;&gt;n13 -->
<g id="edge15" class="edge">
<title>n11&#45;&gt;n13</title>
<path fill="none" stroke="black" d="M1516.73,-776.57C1516.73,-768.39 1516.73,-759.61 1516.73,-751.09"/>
<polygon fill="black" stroke="black" points="1520.23,-750.87 1516.73,-740.87 1513.23,-750.87 1520.23,-750.87"/>
</g>
<!-- n8 -->
<g id="node14" class="node">
<title>n8</title>
<ellipse fill="none" stroke="black" cx="752.73" cy="-592.24" rx="181.95" ry="37.45"/>
<text text-anchor="middle" x="752.73" y="-603.54" font-family="Times,serif" font-size="14.00">la</text>
<text text-anchor="middle" x="752.73" y="-588.54" font-family="Times,serif" font-size="14.00">da0fs0 (det)</text>
<text text-anchor="middle" x="752.73" y="-573.54" font-family="Times,serif" font-size="14.00">rep=no, t=no, r=no, m=no, c=no</text>
</g>
<!-- n9&#45;&gt;n8 -->
<g id="edge13" class="edge">
<title>n9&#45;&gt;n8</title>
<path fill="none" stroke="black" d="M1029.62,-672.42C979.11,-657.98 918.33,-640.6 866.6,-625.81"/>
<polygon fill="black" stroke="black" points="867.29,-622.36 856.71,-622.98 865.36,-629.09 867.29,-622.36"/>
</g>
<!-- n10 -->
<g id="node15" class="node">
<title>n10</title>
<ellipse fill="none" stroke="black" cx="1133.73" cy="-592.24" rx="181.95" ry="37.45"/>
<text text-anchor="middle" x="1133.73" y="-603.54" font-family="Times,serif" font-size="14.00">Laietana</text>
<text text-anchor="middle" x="1133.73" y="-588.54" font-family="Times,serif" font-size="14.00">np0000l (appos)</text>
<text text-anchor="middle" x="1133.73" y="-573.54" font-family="Times,serif" font-size="14.00">rep=no, t=no, r=no, m=no, c=no</text>
</g>
<!-- n9&#45;&gt;n10 -->
<g id="edge14" class="edge">
<title>n9&#45;&gt;n10</title>
<path fill="none" stroke="black" d="M1133.73,-665.61C1133.73,-657.44 1133.73,-648.66 1133.73,-640.13"/>
<polygon fill="black" stroke="black" points="1137.23,-639.92 1133.73,-629.92 1130.23,-639.92 1137.23,-639.92"/>
</g>
<!-- n12 -->
<g id="node17" class="node">
<title>n12</title>
<ellipse fill="none" stroke="black" cx="1514.73" cy="-592.24" rx="181.95" ry="37.45"/>
<text text-anchor="middle" x="1514.73" y="-603.54" font-family="Times,serif" font-size="14.00">la</text>
<text text-anchor="middle" x="1514.73" y="-588.54" font-family="Times,serif" font-size="14.00">da0fs0 (det)</text>
<text text-anchor="middle" x="1514.73" y="-573.54" font-family="Times,serif" font-size="14.00">rep=no, t=no, r=no, m=no, c=no</text>
</g>
<!-- n13&#45;&gt;n12 -->
<g id="edge16" class="edge">
<title>n13&#45;&gt;n12</title>
<path fill="none" stroke="black" d="M1516.05,-665.61C1515.9,-657.44 1515.74,-648.66 1515.59,-640.13"/>
<polygon fill="black" stroke="black" points="1519.08,-639.85 1515.4,-629.92 1512.08,-639.98 1519.08,-639.85"/>
</g>
<!-- n14 -->
<g id="node18" class="node">
<title>n14</title>
<ellipse fill="none" stroke="black" cx="1895.73" cy="-592.24" rx="181.95" ry="37.45"/>
<text text-anchor="middle" x="1895.73" y="-603.54" font-family="Times,serif" font-size="14.00">de</text>
<text text-anchor="middle" x="1895.73" y="-588.54" font-family="Times,serif" font-size="14.00">sps00 (prepn)</text>
<text text-anchor="middle" x="1895.73" y="-573.54" font-family="Times,serif" font-size="14.00">rep=no, t=no, r=no, m=no, c=no</text>
</g>
<!-- n13&#45;&gt;n14 -->
<g id="edge17" class="edge">
<title>n13&#45;&gt;n14</title>
<path fill="none" stroke="black" d="M1620.54,-672.35C1670.67,-657.94 1730.94,-640.61 1782.28,-625.86"/>
<polygon fill="black" stroke="black" points="1783.45,-629.16 1792.09,-623.04 1781.51,-622.44 1783.45,-629.16"/>
</g>
<!-- n15 -->
<g id="node19" class="node">
<title>n15</title>
<ellipse fill="none" stroke="black" cx="1895.73" cy="-481.29" rx="181.95" ry="37.45"/>
<text text-anchor="middle" x="1895.73" y="-492.59" font-family="Times,serif" font-size="14.00">Sant</text>
<text text-anchor="middle" x="1895.73" y="-477.59" font-family="Times,serif" font-size="14.00">ncms000 (pobj)</text>
<text text-anchor="middle" x="1895.73" y="-462.59" font-family="Times,serif" font-size="14.00">rep=no, t=no, r=no, m=no, c=no</text>
</g>
<!-- n14&#45;&gt;n15 -->
<g id="edge18" class="edge">
<title>n14&#45;&gt;n15</title>
<path fill="none" stroke="black" d="M1895.73,-554.66C1895.73,-546.49 1895.73,-537.71 1895.73,-529.18"/>
<polygon fill="black" stroke="black" points="1899.23,-528.96 1895.73,-518.96 1892.23,-528.96 1899.23,-528.96"/>
</g>
<!-- n16 -->
<g id="node20" class="node">
<title>n16</title>
<ellipse fill="none" stroke="black" cx="1705.73" cy="-370.34" rx="181.95" ry="37.45"/>
<text text-anchor="middle" x="1705.73" y="-381.64" font-family="Times,serif" font-size="14.00">Pere</text>
<text text-anchor="middle" x="1705.73" y="-366.64" font-family="Times,serif" font-size="14.00">np0000o (appos)</text>
<text text-anchor="middle" x="1705.73" y="-351.64" font-family="Times,serif" font-size="14.00">rep=no, t=no, r=no, m=no, c=no</text>
</g>
<!-- n15&#45;&gt;n16 -->
<g id="edge19" class="edge">
<title>n15&#45;&gt;n16</title>
<path fill="none" stroke="black" d="M1835.61,-445.82C1816.19,-434.68 1794.52,-422.26 1774.53,-410.79"/>
<polygon fill="black" stroke="black" points="1776.19,-407.71 1765.78,-405.77 1772.71,-413.78 1776.19,-407.71"/>
</g>
<!-- n17 -->
<g id="node21" class="node">
<title>n17</title>
<ellipse fill="none" stroke="black" cx="2086.73" cy="-370.34" rx="181.95" ry="37.45"/>
<text text-anchor="middle" x="2086.73" y="-381.64" font-family="Times,serif" font-size="14.00">mes</text>
<text text-anchor="middle" x="2086.73" y="-366.64" font-family="Times,serif" font-size="14.00">ncms000 (appos)</text>
<text text-anchor="middle" x="2086.73" y="-351.64" font-family="Times,serif" font-size="14.00">rep=no, t=no, r=no, m=no, c=no</text>
</g>
<!-- n15&#45;&gt;n17 -->
<g id="edge20" class="edge">
<title>n15&#45;&gt;n17</title>
<path fill="none" stroke="black" d="M1956.16,-445.82C1975.68,-434.68 1997.46,-422.26 2017.56,-410.79"/>
<polygon fill="black" stroke="black" points="2019.41,-413.77 2026.36,-405.77 2015.94,-407.69 2019.41,-413.77"/>
</g>
<!-- n18 -->
<g id="node22" class="node">
<title>n18</title>
<ellipse fill="none" stroke="black" cx="2086.73" cy="-259.38" rx="181.95" ry="37.45"/>
<text text-anchor="middle" x="2086.73" y="-270.68" font-family="Times,serif" font-size="14.00">Baix</text>
<text text-anchor="middle" x="2086.73" y="-255.68" font-family="Times,serif" font-size="14.00">np0000a (appos)</text>
<text text-anchor="middle" x="2086.73" y="-240.68" font-family="Times,serif" font-size="14.00">rep=no, t=no, r=no, m=no, c=no</text>
</g>
<!-- n17&#45;&gt;n18 -->
<g id="edge21" class="edge">
<title>n17&#45;&gt;n18</title>
<path fill="none" stroke="black" d="M2086.73,-332.75C2086.73,-324.58 2086.73,-315.8 2086.73,-307.27"/>
<polygon fill="black" stroke="black" points="2090.23,-307.06 2086.73,-297.06 2083.23,-307.06 2090.23,-307.06"/>
</g>
<!-- n21 -->
<g id="node24" class="node">
<title>n21</title>
<ellipse fill="none" stroke="black" cx="1904.73" cy="-814.15" rx="181.95" ry="37.45"/>
<text text-anchor="middle" x="1904.73" y="-825.45" font-family="Times,serif" font-size="14.00">su</text>
<text text-anchor="middle" x="1904.73" y="-810.45" font-family="Times,serif" font-size="14.00">dp3cs0 (poss)</text>
<text text-anchor="middle" x="1904.73" y="-795.45" font-family="Times,serif" font-size="14.00">rep=no, t=no, r=no, m=no, c=no</text>
</g>
<!-- n22&#45;&gt;n21 -->
<g id="edge23" class="edge">
<title>n22&#45;&gt;n21</title>
<path fill="none" stroke="black" d="M1904.73,-887.52C1904.73,-879.35 1904.73,-870.57 1904.73,-862.04"/>
<polygon fill="black" stroke="black" points="1908.23,-861.82 1904.73,-851.82 1901.23,-861.82 1908.23,-861.82"/>
</g>
<!-- n26 -->
<g id="node29" class="node">
<title>n26</title>
<ellipse fill="#98D2A5" stroke="black" cx="2680.73" cy="-814.15" rx="185.94" ry="37.45"/>
<text text-anchor="middle" x="2680.73" y="-825.45" font-family="Times,serif" font-size="14.00">Marcús</text>
<text text-anchor="middle" x="2680.73" y="-810.45" font-family="Times,serif" font-size="14.00">np00000 (pobj)</text>
<text text-anchor="middle" x="2680.73" y="-795.45" font-family="Times,serif" font-size="14.00">rep=no, t=no, r=no, m=yes, c=no</text>
</g>
<!-- n25&#45;&gt;n26 -->
<g id="edge28" class="edge">
<title>n25&#45;&gt;n26</title>
<path fill="none" stroke="black" d="M2680.73,-887.52C2680.73,-879.35 2680.73,-870.57 2680.73,-862.04"/>
<polygon fill="black" stroke="black" points="2684.23,-861.82 2680.73,-851.82 2677.23,-861.82 2684.23,-861.82"/>
</g>
<!-- n28 -->
<g id="node30" class="node">
<title>n28</title>
<ellipse fill="#98D2A5" stroke="black" cx="3662.73" cy="-814.15" rx="185.94" ry="37.45"/>
<text text-anchor="middle" x="3662.73" y="-825.45" font-family="Times,serif" font-size="14.00">un</text>
<text text-anchor="middle" x="3662.73" y="-810.45" font-family="Times,serif" font-size="14.00">di0ms0 (det)</text>
<text text-anchor="middle" x="3662.73" y="-795.45" font-family="Times,serif" font-size="14.00">rep=no, t=no, r=no, m=yes, c=no</text>
</g>
<!-- n29&#45;&gt;n28 -->
<g id="edge29" class="edge">
<title>n29&#45;&gt;n28</title>
<path fill="none" stroke="black" d="M3662.73,-887.52C3662.73,-879.35 3662.73,-870.57 3662.73,-862.04"/>
<polygon fill="black" stroke="black" points="3666.23,-861.82 3662.73,-851.82 3659.23,-861.82 3666.23,-861.82"/>
</g>
<!-- n48 -->
<g id="node31" class="node">
<title>n48</title>
<ellipse fill="#98D2A5" stroke="black" cx="4056.73" cy="-814.15" rx="185.94" ry="37.45"/>
<text text-anchor="middle" x="4056.73" y="-825.45" font-family="Times,serif" font-size="14.00">detenían</text>
<text text-anchor="middle" x="4056.73" y="-810.45" font-family="Times,serif" font-size="14.00">vmii3p0 (rcmod)</text>
<text text-anchor="middle" x="4056.73" y="-795.45" font-family="Times,serif" font-size="14.00">rep=no, t=no, r=no, m=yes, c=no</text>
</g>
<!-- n29&#45;&gt;n48 -->
<g id="edge30" class="edge">
<title>n29&#45;&gt;n48</title>
<path fill="none" stroke="black" d="M3770.13,-894.4C3822.58,-879.9 3885.79,-862.42 3939.49,-847.57"/>
<polygon fill="black" stroke="black" points="3940.69,-850.87 3949.4,-844.83 3938.83,-844.12 3940.69,-850.87"/>
</g>
<!-- n30 -->
<g id="node32" class="node">
<title>n30</title>
<ellipse fill="#98D2A5" stroke="black" cx="3666.73" cy="-703.2" rx="185.94" ry="37.45"/>
<text text-anchor="middle" x="3666.73" y="-714.5" font-family="Times,serif" font-size="14.00">donde</text>
<text text-anchor="middle" x="3666.73" y="-699.5" font-family="Times,serif" font-size="14.00">pr000000 (dobj)</text>
<text text-anchor="middle" x="3666.73" y="-684.5" font-family="Times,serif" font-size="14.00">rep=no, t=no, r=no, m=yes, c=no</text>
</g>
<!-- n48&#45;&gt;n30 -->
<g id="edge31" class="edge">
<title>n48&#45;&gt;n30</title>
<path fill="none" stroke="black" d="M3950.16,-783.38C3898.35,-768.91 3835.98,-751.48 3782.95,-736.67"/>
<polygon fill="black" stroke="black" points="3783.74,-733.25 3773.17,-733.93 3781.86,-739.99 3783.74,-733.25"/>
</g>
<!-- n32 -->
<g id="node33" class="node">
<title>n32</title>
<ellipse fill="#98D2A5" stroke="black" cx="4056.73" cy="-703.2" rx="185.94" ry="37.45"/>
<text text-anchor="middle" x="4056.73" y="-714.5" font-family="Times,serif" font-size="14.00">transportistas</text>
<text text-anchor="middle" x="4056.73" y="-699.5" font-family="Times,serif" font-size="14.00">nccp000 (nsubj)</text>
<text text-anchor="middle" x="4056.73" y="-684.5" font-family="Times,serif" font-size="14.00">rep=no, t=no, r=no, m=yes, c=no</text>
</g>
<!-- n48&#45;&gt;n32 -->
<g id="edge32" class="edge">
<title>n48&#45;&gt;n32</title>
<path fill="none" stroke="black" d="M4056.73,-776.57C4056.73,-768.39 4056.73,-759.61 4056.73,-751.09"/>
<polygon fill="black" stroke="black" points="4060.23,-750.87 4056.73,-740.87 4053.23,-750.87 4060.23,-750.87"/>
</g>
<!-- n47 -->
<g id="node34" class="node">
<title>n47</title>
<ellipse fill="#98D2A5" stroke="black" cx="4446.73" cy="-703.2" rx="185.94" ry="37.45"/>
<text text-anchor="middle" x="4446.73" y="-714.5" font-family="Times,serif" font-size="14.00">se</text>
<text text-anchor="middle" x="4446.73" y="-699.5" font-family="Times,serif" font-size="14.00">p0300000 (reflec)</text>
<text text-anchor="middle" x="4446.73" y="-684.5" font-family="Times,serif" font-size="14.00">rep=no, t=no, r=no, m=yes, c=no</text>
</g>
<!-- n48&#45;&gt;n47 -->
<g id="edge33" class="edge">
<title>n48&#45;&gt;n47</title>
<path fill="none" stroke="black" d="M4163.3,-783.38C4215.1,-768.91 4277.47,-751.48 4330.5,-736.67"/>
<polygon fill="black" stroke="black" points="4331.6,-739.99 4340.29,-733.93 4329.71,-733.25 4331.6,-739.99"/>
</g>
<!-- n49 -->
<g id="node35" class="node">
<title>n49</title>
<ellipse fill="#98D2A5" stroke="black" cx="5633.73" cy="-703.2" rx="185.94" ry="37.45"/>
<text text-anchor="middle" x="5633.73" y="-714.5" font-family="Times,serif" font-size="14.00">para</text>
<text text-anchor="middle" x="5633.73" y="-699.5" font-family="Times,serif" font-size="14.00">sps00 (prepv)</text>
<text text-anchor="middle" x="5633.73" y="-684.5" font-family="Times,serif" font-size="14.00">rep=no, t=no, r=no, m=yes, c=no</text>
</g>
<!-- n48&#45;&gt;n49 -->
<g id="edge34" class="edge">
<title>n48&#45;&gt;n49</title>
<path fill="none" stroke="black" d="M4231.14,-801.1C4531.09,-780.38 5141.94,-738.17 5448.91,-716.97"/>
<polygon fill="black" stroke="black" points="5449.52,-720.43 5459.26,-716.25 5449.04,-713.45 5449.52,-720.43"/>
</g>
<!-- n31 -->
<g id="node36" class="node">
<title>n31</title>
<ellipse fill="#98D2A5" stroke="black" cx="2281.73" cy="-592.24" rx="185.94" ry="37.45"/>
<text text-anchor="middle" x="2281.73" y="-603.54" font-family="Times,serif" font-size="14.00">los</text>
<text text-anchor="middle" x="2281.73" y="-588.54" font-family="Times,serif" font-size="14.00">da0mp0 (det)</text>
<text text-anchor="middle" x="2281.73" y="-573.54" font-family="Times,serif" font-size="14.00">rep=no, t=no, r=no, m=yes, c=no</text>
</g>
<!-- n32&#45;&gt;n31 -->
<g id="edge35" class="edge">
<title>n32&#45;&gt;n31</title>
<path fill="none" stroke="black" d="M3930.76,-675.61C3907.88,-671.64 3884.16,-668.09 3861.73,-665.72 3249.38,-600.9 3089.07,-694.53 2476.73,-629.72 2457.54,-627.69 2437.4,-624.8 2417.66,-621.52"/>
<polygon fill="black" stroke="black" points="2418.14,-618.06 2407.69,-619.83 2416.97,-624.96 2418.14,-618.06"/>
</g>
<!-- n33 -->
<g id="node37" class="node">
<title>n33</title>
<ellipse fill="#98D2A5" stroke="black" cx="2671.73" cy="-592.24" rx="185.94" ry="37.45"/>
<text text-anchor="middle" x="2671.73" y="-603.54" font-family="Times,serif" font-size="14.00">de</text>
<text text-anchor="middle" x="2671.73" y="-588.54" font-family="Times,serif" font-size="14.00">sps00 (prepn)</text>
<text text-anchor="middle" x="2671.73" y="-573.54" font-family="Times,serif" font-size="14.00">rep=no, t=no, r=no, m=yes, c=no</text>
</g>
<!-- n32&#45;&gt;n33 -->
<g id="edge36" class="edge">
<title>n32&#45;&gt;n33</title>
<path fill="none" stroke="black" d="M3930.21,-675.7C3907.5,-671.76 3883.98,-668.19 3861.73,-665.72 3421.92,-616.9 3306.54,-678.54 2866.73,-629.72 2847.69,-627.61 2827.73,-624.69 2808.13,-621.42"/>
<polygon fill="black" stroke="black" points="2808.68,-617.96 2798.24,-619.73 2807.51,-624.87 2808.68,-617.96"/>
</g>
<!-- n35 -->
<g id="node38" class="node">
<title>n35</title>
<ellipse fill="#98D2A5" stroke="black" cx="3061.73" cy="-592.24" rx="185.94" ry="37.45"/>
<text text-anchor="middle" x="3061.73" y="-603.54" font-family="Times,serif" font-size="14.00">,</text>
<text text-anchor="middle" x="3061.73" y="-588.54" font-family="Times,serif" font-size="14.00">fc (punct)</text>
<text text-anchor="middle" x="3061.73" y="-573.54" font-family="Times,serif" font-size="14.00">rep=no, t=no, r=no, m=yes, c=no</text>
</g>
<!-- n32&#45;&gt;n35 -->
<g id="edge37" class="edge">
<title>n32&#45;&gt;n35</title>
<path fill="none" stroke="black" d="M3928.85,-675.91C3906.55,-672 3883.52,-668.4 3861.73,-665.72 3594.37,-632.89 3524.08,-662.55 3256.73,-629.72 3238.17,-627.44 3218.71,-624.49 3199.57,-621.25"/>
<polygon fill="black" stroke="black" points="3200.05,-617.78 3189.6,-619.53 3198.86,-624.68 3200.05,-617.78"/>
</g>
<!-- n36 -->
<g id="node39" class="node">
<title>n36</title>
<ellipse fill="#98D2A5" stroke="black" cx="3456.73" cy="-592.24" rx="190.84" ry="37.45"/>
<text text-anchor="middle" x="3456.73" y="-603.54" font-family="Times,serif" font-size="14.00">los</text>
<text text-anchor="middle" x="3456.73" y="-588.54" font-family="Times,serif" font-size="14.00">da0mp0 (dep)</text>
<text text-anchor="middle" x="3456.73" y="-573.54" font-family="Times,serif" font-size="14.00">rep=no, t=no, r=no, m=yes, c=yes</text>
</g>
<!-- n32&#45;&gt;n36 -->
<g id="edge38" class="edge">
<title>n32&#45;&gt;n36</title>
<path fill="none" stroke="black" d="M3923.28,-677.03C3902.68,-673.2 3881.64,-669.33 3861.73,-665.72 3770.71,-649.22 3747.78,-646.02 3656.73,-629.72 3639.58,-626.65 3621.61,-623.41 3603.77,-620.17"/>
<polygon fill="black" stroke="black" points="3604.34,-616.72 3593.88,-618.38 3603.09,-623.61 3604.34,-616.72"/>
</g>
<!-- n37 -->
<g id="node40" class="node">
<title>n37</title>
<ellipse fill="#98D2A5" stroke="black" cx="3856.73" cy="-592.24" rx="190.84" ry="37.45"/>
<text text-anchor="middle" x="3856.73" y="-603.54" font-family="Times,serif" font-size="14.00">famosos</text>
<text text-anchor="middle" x="3856.73" y="-588.54" font-family="Times,serif" font-size="14.00">aq0mp0 (dep)</text>
<text text-anchor="middle" x="3856.73" y="-573.54" font-family="Times,serif" font-size="14.00">rep=no, t=no, r=no, m=yes, c=yes</text>
</g>
<!-- n32&#45;&gt;n37 -->
<g id="edge39" class="edge">
<title>n32&#45;&gt;n37</title>
<path fill="none" stroke="black" d="M3993.72,-667.87C3973.18,-656.68 3950.22,-644.18 3929.05,-632.64"/>
<polygon fill="black" stroke="black" points="3930.56,-629.48 3920.1,-627.77 3927.21,-635.63 3930.56,-629.48"/>
</g>
<!-- n38 -->
<g id="node41" class="node">
<title>n38</title>
<ellipse fill="#98D2A5" stroke="black" cx="4256.73" cy="-592.24" rx="190.84" ry="37.45"/>
<text text-anchor="middle" x="4256.73" y="-603.54" font-family="Times,serif" font-size="14.00">bastaixos</text>
<text text-anchor="middle" x="4256.73" y="-588.54" font-family="Times,serif" font-size="14.00">ncmp000 (dep)</text>
<text text-anchor="middle" x="4256.73" y="-573.54" font-family="Times,serif" font-size="14.00">rep=no, t=no, r=no, m=yes, c=yes</text>
</g>
<!-- n32&#45;&gt;n38 -->
<g id="edge40" class="edge">
<title>n32&#45;&gt;n38</title>
<path fill="none" stroke="black" d="M4119.73,-667.87C4140.27,-656.68 4163.23,-644.18 4184.4,-632.64"/>
<polygon fill="black" stroke="black" points="4186.24,-635.63 4193.35,-627.77 4182.89,-629.48 4186.24,-635.63"/>
</g>
<!-- n39 -->
<g id="node42" class="node">
<title>n39</title>
<ellipse fill="#98D2A5" stroke="black" cx="4651.73" cy="-592.24" rx="185.94" ry="37.45"/>
<text text-anchor="middle" x="4651.73" y="-603.54" font-family="Times,serif" font-size="14.00">y</text>
<text text-anchor="middle" x="4651.73" y="-588.54" font-family="Times,serif" font-size="14.00">cc (coord_fixed)</text>
<text text-anchor="middle" x="4651.73" y="-573.54" font-family="Times,serif" font-size="14.00">rep=no, t=no, r=no, m=yes, c=no</text>
</g>
<!-- n32&#45;&gt;n39 -->
<g id="edge41" class="edge">
<title>n32&#45;&gt;n39</title>
<path fill="none" stroke="black" d="M4190.17,-677.03C4210.78,-673.2 4231.82,-669.33 4251.73,-665.72 4342.75,-649.22 4365.71,-646.22 4456.73,-629.72 4473.37,-626.7 4490.8,-623.5 4508.11,-620.29"/>
<polygon fill="black" stroke="black" points="4509.09,-623.67 4518.28,-618.41 4507.81,-616.79 4509.09,-623.67"/>
</g>
<!-- n40 -->
<g id="node43" class="node">
<title>n40</title>
<ellipse fill="#98D2A5" stroke="black" cx="5046.73" cy="-592.24" rx="190.84" ry="37.45"/>
<text text-anchor="middle" x="5046.73" y="-603.54" font-family="Times,serif" font-size="14.00">macips</text>
<text text-anchor="middle" x="5046.73" y="-588.54" font-family="Times,serif" font-size="14.00">ncmp000 (dep)</text>
<text text-anchor="middle" x="5046.73" y="-573.54" font-family="Times,serif" font-size="14.00">rep=no, t=no, r=no, m=yes, c=yes</text>
</g>
<!-- n32&#45;&gt;n40 -->
<g id="edge42" class="edge">
<title>n32&#45;&gt;n40</title>
<path fill="none" stroke="black" d="M4184.6,-675.93C4206.9,-672.02 4229.94,-668.41 4251.73,-665.72 4514.66,-633.3 4583.72,-661.54 4846.73,-629.72 4865.84,-627.41 4885.88,-624.43 4905.59,-621.16"/>
<polygon fill="black" stroke="black" points="4906.27,-624.6 4915.55,-619.49 4905.11,-617.7 4906.27,-624.6"/>
</g>
<!-- n41 -->
<g id="node44" class="node">
<title>n41</title>
<ellipse fill="#98D2A5" stroke="black" cx="5446.73" cy="-592.24" rx="190.84" ry="37.45"/>
<text text-anchor="middle" x="5446.73" y="-603.54" font-family="Times,serif" font-size="14.00">del</text>
<text text-anchor="middle" x="5446.73" y="-588.54" font-family="Times,serif" font-size="14.00">spcms (dep)</text>
<text text-anchor="middle" x="5446.73" y="-573.54" font-family="Times,serif" font-size="14.00">rep=no, t=no, r=no, m=yes, c=yes</text>
</g>
<!-- n32&#45;&gt;n41 -->
<g id="edge43" class="edge">
<title>n32&#45;&gt;n41</title>
<path fill="none" stroke="black" d="M4183.24,-675.7C4205.95,-671.76 4229.48,-668.19 4251.73,-665.72 4691.54,-616.9 4806.81,-677.54 5246.73,-629.72 5266.16,-627.61 5286.55,-624.7 5306.57,-621.44"/>
<polygon fill="black" stroke="black" points="5307.39,-624.86 5316.68,-619.76 5306.24,-617.95 5307.39,-624.86"/>
</g>
<!-- n46 -->
<g id="node45" class="node">
<title>n46</title>
<ellipse fill="#98D2A5" stroke="black" cx="5841.73" cy="-592.24" rx="185.94" ry="37.45"/>
<text text-anchor="middle" x="5841.73" y="-603.54" font-family="Times,serif" font-size="14.00">,</text>
<text text-anchor="middle" x="5841.73" y="-588.54" font-family="Times,serif" font-size="14.00">fc (punct)</text>
<text text-anchor="middle" x="5841.73" y="-573.54" font-family="Times,serif" font-size="14.00">rep=no, t=no, r=no, m=yes, c=no</text>
</g>
<!-- n32&#45;&gt;n46 -->
<g id="edge44" class="edge">
<title>n32&#45;&gt;n46</title>
<path fill="none" stroke="black" d="M4182.69,-675.6C4205.57,-671.64 4229.29,-668.09 4251.73,-665.72 4868.49,-600.49 5029.96,-694.95 5646.73,-629.72 5665.92,-627.69 5686.05,-624.8 5705.79,-621.53"/>
<polygon fill="black" stroke="black" points="5706.48,-624.96 5715.76,-619.84 5705.31,-618.06 5706.48,-624.96"/>
</g>
<!-- n50 -->
<g id="node51" class="node">
<title>n50</title>
<ellipse fill="#98D2A5" stroke="black" cx="6231.73" cy="-592.24" rx="185.94" ry="37.45"/>
<text text-anchor="middle" x="6231.73" y="-603.54" font-family="Times,serif" font-size="14.00">rezar</text>
<text text-anchor="middle" x="6231.73" y="-588.54" font-family="Times,serif" font-size="14.00">vmn0000 (pobj)</text>
<text text-anchor="middle" x="6231.73" y="-573.54" font-family="Times,serif" font-size="14.00">rep=no, t=no, r=no, m=yes, c=no</text>
</g>
<!-- n49&#45;&gt;n50 -->
<g id="edge50" class="edge">
<title>n49&#45;&gt;n50</title>
<path fill="none" stroke="black" d="M5770.87,-677.78C5848.84,-663.83 5948.28,-645.95 6036.73,-629.72 6053.29,-626.68 6070.65,-623.47 6087.88,-620.27"/>
<polygon fill="black" stroke="black" points="6088.82,-623.65 6098.01,-618.38 6087.53,-616.77 6088.82,-623.65"/>
</g>
<!-- n34 -->
<g id="node46" class="node">
<title>n34</title>
<ellipse fill="#98D2A5" stroke="black" cx="2671.73" cy="-481.29" rx="185.94" ry="37.45"/>
<text text-anchor="middle" x="2671.73" y="-492.59" font-family="Times,serif" font-size="14.00">entonces</text>
<text text-anchor="middle" x="2671.73" y="-477.59" font-family="Times,serif" font-size="14.00">rg (advmod)</text>
<text text-anchor="middle" x="2671.73" y="-462.59" font-family="Times,serif" font-size="14.00">rep=no, t=no, r=no, m=yes, c=no</text>
</g>
<!-- n33&#45;&gt;n34 -->
<g id="edge45" class="edge">
<title>n33&#45;&gt;n34</title>
<path fill="none" stroke="black" d="M2671.73,-554.66C2671.73,-546.49 2671.73,-537.71 2671.73,-529.18"/>
<polygon fill="black" stroke="black" points="2675.23,-528.96 2671.73,-518.96 2668.23,-528.96 2675.23,-528.96"/>
</g>
<!-- n42 -->
<g id="node47" class="node">
<title>n42</title>
<ellipse fill="#98D2A5" stroke="black" cx="5446.73" cy="-481.29" rx="185.94" ry="37.45"/>
<text text-anchor="middle" x="5446.73" y="-492.59" font-family="Times,serif" font-size="14.00">barrio</text>
<text text-anchor="middle" x="5446.73" y="-477.59" font-family="Times,serif" font-size="14.00">ncms000 (pobj)</text>
<text text-anchor="middle" x="5446.73" y="-462.59" font-family="Times,serif" font-size="14.00">rep=no, t=no, r=no, m=yes, c=no</text>
</g>
<!-- n41&#45;&gt;n42 -->
<g id="edge46" class="edge">
<title>n41&#45;&gt;n42</title>
<path fill="none" stroke="black" d="M5446.73,-554.66C5446.73,-546.49 5446.73,-537.71 5446.73,-529.18"/>
<polygon fill="black" stroke="black" points="5450.23,-528.96 5446.73,-518.96 5443.23,-528.96 5450.23,-528.96"/>
</g>
<!-- n43 -->
<g id="node48" class="node">
<title>n43</title>
<ellipse fill="#98D2A5" stroke="black" cx="5446.73" cy="-370.34" rx="185.94" ry="37.45"/>
<text text-anchor="middle" x="5446.73" y="-381.64" font-family="Times,serif" font-size="14.00">de</text>
<text text-anchor="middle" x="5446.73" y="-366.64" font-family="Times,serif" font-size="14.00">sps00 (prepn)</text>
<text text-anchor="middle" x="5446.73" y="-351.64" font-family="Times,serif" font-size="14.00">rep=no, t=no, r=no, m=yes, c=no</text>
</g>
<!-- n42&#45;&gt;n43 -->
<g id="edge47" class="edge">
<title>n42&#45;&gt;n43</title>
<path fill="none" stroke="black" d="M5446.73,-443.71C5446.73,-435.53 5446.73,-426.75 5446.73,-418.23"/>
<polygon fill="black" stroke="black" points="5450.23,-418.01 5446.73,-408.01 5443.23,-418.01 5450.23,-418.01"/>
</g>
<!-- n45 -->
<g id="node49" class="node">
<title>n45</title>
<ellipse fill="#98D2A5" stroke="black" cx="5446.73" cy="-259.38" rx="185.94" ry="37.45"/>
<text text-anchor="middle" x="5446.73" y="-270.68" font-family="Times,serif" font-size="14.00">Ribera</text>
<text text-anchor="middle" x="5446.73" y="-255.68" font-family="Times,serif" font-size="14.00">np00000 (pobj)</text>
<text text-anchor="middle" x="5446.73" y="-240.68" font-family="Times,serif" font-size="14.00">rep=no, t=no, r=no, m=yes, c=no</text>
</g>
<!-- n43&#45;&gt;n45 -->
<g id="edge48" class="edge">
<title>n43&#45;&gt;n45</title>
<path fill="none" stroke="black" d="M5446.73,-332.75C5446.73,-324.58 5446.73,-315.8 5446.73,-307.27"/>
<polygon fill="black" stroke="black" points="5450.23,-307.06 5446.73,-297.06 5443.23,-307.06 5450.23,-307.06"/>
</g>
<!-- n44 -->
<g id="node50" class="node">
<title>n44</title>
<ellipse fill="#98D2A5" stroke="black" cx="5446.73" cy="-148.43" rx="185.94" ry="37.45"/>
<text text-anchor="middle" x="5446.73" y="-159.73" font-family="Times,serif" font-size="14.00">la</text>
<text text-anchor="middle" x="5446.73" y="-144.73" font-family="Times,serif" font-size="14.00">da0fs0 (det)</text>
<text text-anchor="middle" x="5446.73" y="-129.73" font-family="Times,serif" font-size="14.00">rep=no, t=no, r=no, m=yes, c=no</text>
</g>
<!-- n45&#45;&gt;n44 -->
<g id="edge49" class="edge">
<title>n45&#45;&gt;n44</title>
<path fill="none" stroke="black" d="M5446.73,-221.8C5446.73,-213.63 5446.73,-204.85 5446.73,-196.32"/>
<polygon fill="black" stroke="black" points="5450.23,-196.1 5446.73,-186.1 5443.23,-196.1 5450.23,-196.1"/>
</g>
<!-- n51 -->
<g id="node52" class="node">
<title>n51</title>
<ellipse fill="#98D2A5" stroke="black" cx="6231.73" cy="-481.29" rx="185.94" ry="37.45"/>
<text text-anchor="middle" x="6231.73" y="-492.59" font-family="Times,serif" font-size="14.00">antes</text>
<text text-anchor="middle" x="6231.73" y="-477.59" font-family="Times,serif" font-size="14.00">rg (advmod)</text>
<text text-anchor="middle" x="6231.73" y="-462.59" font-family="Times,serif" font-size="14.00">rep=no, t=no, r=no, m=yes, c=no</text>
</g>
<!-- n50&#45;&gt;n51 -->
<g id="edge51" class="edge">
<title>n50&#45;&gt;n51</title>
<path fill="none" stroke="black" d="M6231.73,-554.66C6231.73,-546.49 6231.73,-537.71 6231.73,-529.18"/>
<polygon fill="black" stroke="black" points="6235.23,-528.96 6231.73,-518.96 6228.23,-528.96 6235.23,-528.96"/>
</g>
<!-- n52 -->
<g id="node53" class="node">
<title>n52</title>
<ellipse fill="#98D2A5" stroke="black" cx="6231.73" cy="-370.34" rx="185.94" ry="37.45"/>
<text text-anchor="middle" x="6231.73" y="-381.64" font-family="Times,serif" font-size="14.00">de</text>
<text text-anchor="middle" x="6231.73" y="-366.64" font-family="Times,serif" font-size="14.00">sps00 (prep)</text>
<text text-anchor="middle" x="6231.73" y="-351.64" font-family="Times,serif" font-size="14.00">rep=no, t=no, r=no, m=yes, c=no</text>
</g>
<!-- n51&#45;&gt;n52 -->
<g id="edge52" class="edge">
<title>n51&#45;&gt;n52</title>
<path fill="none" stroke="black" d="M6231.73,-443.71C6231.73,-435.53 6231.73,-426.75 6231.73,-418.23"/>
<polygon fill="black" stroke="black" points="6235.23,-418.01 6231.73,-408.01 6228.23,-418.01 6235.23,-418.01"/>
</g>
<!-- n53 -->
<g id="node54" class="node">
<title>n53</title>
<ellipse fill="#98D2A5" stroke="black" cx="6231.73" cy="-259.38" rx="185.94" ry="37.45"/>
<text text-anchor="middle" x="6231.73" y="-270.68" font-family="Times,serif" font-size="14.00">emprender</text>
<text text-anchor="middle" x="6231.73" y="-255.68" font-family="Times,serif" font-size="14.00">vmn0000 (pobj)</text>
<text text-anchor="middle" x="6231.73" y="-240.68" font-family="Times,serif" font-size="14.00">rep=no, t=no, r=no, m=yes, c=no</text>
</g>
<!-- n52&#45;&gt;n53 -->
<g id="edge53" class="edge">
<title>n52&#45;&gt;n53</title>
<path fill="none" stroke="black" d="M6231.73,-332.75C6231.73,-324.58 6231.73,-315.8 6231.73,-307.27"/>
<polygon fill="black" stroke="black" points="6235.23,-307.06 6231.73,-297.06 6228.23,-307.06 6235.23,-307.06"/>
</g>
<!-- n55 -->
<g id="node55" class="node">
<title>n55</title>
<ellipse fill="#98D2A5" stroke="black" cx="6231.73" cy="-148.43" rx="185.94" ry="37.45"/>
<text text-anchor="middle" x="6231.73" y="-159.73" font-family="Times,serif" font-size="14.00">viaje</text>
<text text-anchor="middle" x="6231.73" y="-144.73" font-family="Times,serif" font-size="14.00">ncms000 (dobj)</text>
<text text-anchor="middle" x="6231.73" y="-129.73" font-family="Times,serif" font-size="14.00">rep=no, t=no, r=no, m=yes, c=no</text>
</g>
<!-- n53&#45;&gt;n55 -->
<g id="edge54" class="edge">
<title>n53&#45;&gt;n55</title>
<path fill="none" stroke="black" d="M6231.73,-221.8C6231.73,-213.63 6231.73,-204.85 6231.73,-196.32"/>
<polygon fill="black" stroke="black" points="6235.23,-196.1 6231.73,-186.1 6228.23,-196.1 6235.23,-196.1"/>
</g>
<!-- n54 -->
<g id="node56" class="node">
<title>n54</title>
<ellipse fill="#98D2A5" stroke="black" cx="6231.73" cy="-37.48" rx="185.94" ry="37.45"/>
<text text-anchor="middle" x="6231.73" y="-48.78" font-family="Times,serif" font-size="14.00">su</text>
<text text-anchor="middle" x="6231.73" y="-33.78" font-family="Times,serif" font-size="14.00">dp3cs0 (poss)</text>
<text text-anchor="middle" x="6231.73" y="-18.78" font-family="Times,serif" font-size="14.00">rep=no, t=no, r=no, m=yes, c=no</text>
</g>
<!-- n55&#45;&gt;n54 -->
<g id="edge55" class="edge">
<title>n55&#45;&gt;n54</title>
<path fill="none" stroke="black" d="M6231.73,-110.85C6231.73,-102.67 6231.73,-93.89 6231.73,-85.37"/>
<polygon fill="black" stroke="black" points="6235.23,-85.15 6231.73,-75.15 6228.23,-85.15 6235.23,-85.15"/>
</g>
</g>
</svg>
