<?xml version="1.0" encoding="UTF-8" standalone="no"?>
<!DOCTYPE svg PUBLIC "-//W3C//DTD SVG 1.1//EN"
 "http://www.w3.org/Graphics/SVG/1.1/DTD/svg11.dtd">
<!-- Generated by graphviz version 2.43.0 (0)
 -->
<!-- Title: tree Pages: 1 -->
<svg width="3340pt" height="860pt"
 viewBox="0.00 0.00 3339.89 859.63" xmlns="http://www.w3.org/2000/svg" xmlns:xlink="http://www.w3.org/1999/xlink">
<g id="graph0" class="graph" transform="scale(1 1) rotate(0) translate(4 855.63)">
<title>tree</title>
<polygon fill="white" stroke="transparent" points="-4,4 -4,-855.63 3335.89,-855.63 3335.89,4 -4,4"/>
<!-- n11 -->
<g id="node1" class="node">
<title>n11</title>
<ellipse fill="#98D2A5" stroke="black" cx="1780.92" cy="-814.15" rx="185.94" ry="37.45"/>
<text text-anchor="middle" x="1780.92" y="-825.45" font-family="Times,serif" font-size="14.00">y</text>
<text text-anchor="middle" x="1780.92" y="-810.45" font-family="Times,serif" font-size="14.00">cc (root)</text>
<text text-anchor="middle" x="1780.92" y="-795.45" font-family="Times,serif" font-size="14.00">rep=no, t=no, r=no, m=yes, c=no</text>
</g>
<!-- n3 -->
<g id="node2" class="node">
<title>n3</title>
<ellipse fill="#98D2A5" stroke="black" cx="990.92" cy="-703.2" rx="190.84" ry="37.45"/>
<text text-anchor="middle" x="990.92" y="-714.5" font-family="Times,serif" font-size="14.00">cita</text>
<text text-anchor="middle" x="990.92" y="-699.5" font-family="Times,serif" font-size="14.00">vmip3s0 (coord)</text>
<text text-anchor="middle" x="990.92" y="-684.5" font-family="Times,serif" font-size="14.00">rep=no, t=no, r=yes, m=yes, c=no</text>
</g>
<!-- n11&#45;&gt;n3 -->
<g id="edge1" class="edge">
<title>n11&#45;&gt;n3</title>
<path fill="none" stroke="black" d="M1629.53,-792.27C1493.57,-773.52 1294.43,-746.06 1154.77,-726.79"/>
<polygon fill="black" stroke="black" points="1155.21,-723.32 1144.82,-725.42 1154.25,-730.26 1155.21,-723.32"/>
</g>
<!-- n13 -->
<g id="node3" class="node">
<title>n13</title>
<ellipse fill="#98D2A5" stroke="black" cx="1780.92" cy="-703.2" rx="185.94" ry="37.45"/>
<text text-anchor="middle" x="1780.92" y="-714.5" font-family="Times,serif" font-size="14.00">presenta</text>
<text text-anchor="middle" x="1780.92" y="-699.5" font-family="Times,serif" font-size="14.00">vmip3s0 (coord)</text>
<text text-anchor="middle" x="1780.92" y="-684.5" font-family="Times,serif" font-size="14.00">rep=no, t=no, r=no, m=yes, c=no</text>
</g>
<!-- n11&#45;&gt;n13 -->
<g id="edge2" class="edge">
<title>n11&#45;&gt;n13</title>
<path fill="none" stroke="black" d="M1780.92,-776.57C1780.92,-768.39 1780.92,-759.61 1780.92,-751.09"/>
<polygon fill="black" stroke="black" points="1784.42,-750.87 1780.92,-740.87 1777.42,-750.87 1784.42,-750.87"/>
</g>
<!-- n31 -->
<g id="node4" class="node">
<title>n31</title>
<ellipse fill="none" stroke="black" cx="2166.92" cy="-703.2" rx="181.95" ry="37.45"/>
<text text-anchor="middle" x="2166.92" y="-714.5" font-family="Times,serif" font-size="14.00">.</text>
<text text-anchor="middle" x="2166.92" y="-699.5" font-family="Times,serif" font-size="14.00">fp (punct)</text>
<text text-anchor="middle" x="2166.92" y="-684.5" font-family="Times,serif" font-size="14.00">rep=no, t=no, r=no, m=no, c=no</text>
</g>
<!-- n11&#45;&gt;n31 -->
<g id="edge3" class="edge">
<title>n11&#45;&gt;n31</title>
<path fill="none" stroke="black" d="M1886.65,-783.31C1937.92,-768.83 1999.6,-751.42 2052.03,-736.63"/>
<polygon fill="black" stroke="black" points="2053.03,-739.98 2061.7,-733.89 2051.13,-733.24 2053.03,-739.98"/>
</g>
<!-- n1 -->
<g id="node5" class="node">
<title>n1</title>
<ellipse fill="#98D2A5" stroke="black" cx="390.92" cy="-592.24" rx="190.84" ry="37.45"/>
<text text-anchor="middle" x="390.92" y="-603.54" font-family="Times,serif" font-size="14.00">Josu</text>
<text text-anchor="middle" x="390.92" y="-588.54" font-family="Times,serif" font-size="14.00">np00000 (nsubj)</text>
<text text-anchor="middle" x="390.92" y="-573.54" font-family="Times,serif" font-size="14.00">rep=no, t=yes, r=no, m=yes, c=no</text>
</g>
<!-- n3&#45;&gt;n1 -->
<g id="edge4" class="edge">
<title>n3&#45;&gt;n1</title>
<path fill="none" stroke="black" d="M853.27,-677.2C759.29,-660.13 634.89,-637.55 538.8,-620.1"/>
<polygon fill="black" stroke="black" points="539.17,-616.61 528.71,-618.26 537.92,-623.49 539.17,-616.61"/>
</g>
<!-- n5 -->
<g id="node6" class="node">
<title>n5</title>
<ellipse fill="#98D2A5" stroke="black" cx="990.92" cy="-592.24" rx="190.84" ry="37.45"/>
<text text-anchor="middle" x="990.92" y="-603.54" font-family="Times,serif" font-size="14.00">historial</text>
<text text-anchor="middle" x="990.92" y="-588.54" font-family="Times,serif" font-size="14.00">ncms000 (dobj)</text>
<text text-anchor="middle" x="990.92" y="-573.54" font-family="Times,serif" font-size="14.00">rep=no, t=no, r=yes, m=yes, c=no</text>
</g>
<!-- n3&#45;&gt;n5 -->
<g id="edge5" class="edge">
<title>n3&#45;&gt;n5</title>
<path fill="none" stroke="black" d="M990.92,-665.61C990.92,-657.44 990.92,-648.66 990.92,-640.13"/>
<polygon fill="black" stroke="black" points="994.42,-639.92 990.92,-629.92 987.42,-639.92 994.42,-639.92"/>
</g>
<!-- n12 -->
<g id="node14" class="node">
<title>n12</title>
<ellipse fill="#98D2A5" stroke="black" cx="1390.92" cy="-592.24" rx="185.94" ry="37.45"/>
<text text-anchor="middle" x="1390.92" y="-603.54" font-family="Times,serif" font-size="14.00">lo</text>
<text text-anchor="middle" x="1390.92" y="-588.54" font-family="Times,serif" font-size="14.00">pp3msa00 (dobj)</text>
<text text-anchor="middle" x="1390.92" y="-573.54" font-family="Times,serif" font-size="14.00">rep=no, t=no, r=no, m=yes, c=no</text>
</g>
<!-- n13&#45;&gt;n12 -->
<g id="edge13" class="edge">
<title>n13&#45;&gt;n12</title>
<path fill="none" stroke="black" d="M1674.35,-672.42C1622.54,-657.95 1560.17,-640.53 1507.15,-625.71"/>
<polygon fill="black" stroke="black" points="1507.93,-622.3 1497.36,-622.98 1506.05,-629.04 1507.93,-622.3"/>
</g>
<!-- n14 -->
<g id="node15" class="node">
<title>n14</title>
<ellipse fill="#98D2A5" stroke="black" cx="1780.92" cy="-592.24" rx="185.94" ry="37.45"/>
<text text-anchor="middle" x="1780.92" y="-603.54" font-family="Times,serif" font-size="14.00">como</text>
<text text-anchor="middle" x="1780.92" y="-588.54" font-family="Times,serif" font-size="14.00">cs (cpred)</text>
<text text-anchor="middle" x="1780.92" y="-573.54" font-family="Times,serif" font-size="14.00">rep=no, t=no, r=no, m=yes, c=no</text>
</g>
<!-- n13&#45;&gt;n14 -->
<g id="edge14" class="edge">
<title>n13&#45;&gt;n14</title>
<path fill="none" stroke="black" d="M1780.92,-665.61C1780.92,-657.44 1780.92,-648.66 1780.92,-640.13"/>
<polygon fill="black" stroke="black" points="1784.42,-639.92 1780.92,-629.92 1777.42,-639.92 1784.42,-639.92"/>
</g>
<!-- n24 -->
<g id="node16" class="node">
<title>n24</title>
<ellipse fill="#98D2A5" stroke="black" cx="2170.92" cy="-592.24" rx="185.94" ry="37.45"/>
<text text-anchor="middle" x="2170.92" y="-603.54" font-family="Times,serif" font-size="14.00">,</text>
<text text-anchor="middle" x="2170.92" y="-588.54" font-family="Times,serif" font-size="14.00">fc (punct)</text>
<text text-anchor="middle" x="2170.92" y="-573.54" font-family="Times,serif" font-size="14.00">rep=no, t=no, r=no, m=yes, c=no</text>
</g>
<!-- n13&#45;&gt;n24 -->
<g id="edge15" class="edge">
<title>n13&#45;&gt;n24</title>
<path fill="none" stroke="black" d="M1887.49,-672.42C1939.29,-657.95 2001.66,-640.53 2054.69,-625.71"/>
<polygon fill="black" stroke="black" points="2055.79,-629.04 2064.48,-622.98 2053.91,-622.3 2055.79,-629.04"/>
</g>
<!-- n25 -->
<g id="node17" class="node">
<title>n25</title>
<ellipse fill="#98D2A5" stroke="black" cx="2560.92" cy="-592.24" rx="185.94" ry="37.45"/>
<text text-anchor="middle" x="2560.92" y="-603.54" font-family="Times,serif" font-size="14.00">haciendo</text>
<text text-anchor="middle" x="2560.92" y="-588.54" font-family="Times,serif" font-size="14.00">vmg0000 (advcl)</text>
<text text-anchor="middle" x="2560.92" y="-573.54" font-family="Times,serif" font-size="14.00">rep=no, t=no, r=no, m=yes, c=no</text>
</g>
<!-- n13&#45;&gt;n25 -->
<g id="edge16" class="edge">
<title>n13&#45;&gt;n25</title>
<path fill="none" stroke="black" d="M1910.45,-676.23C1932.25,-672.36 1954.68,-668.68 1975.92,-665.72 2148.32,-641.69 2193.52,-653.75 2365.92,-629.72 2383.92,-627.21 2402.78,-624.19 2421.39,-620.97"/>
<polygon fill="black" stroke="black" points="2422.15,-624.39 2431.39,-619.21 2420.94,-617.49 2422.15,-624.39"/>
</g>
<!-- n2 -->
<g id="node7" class="node">
<title>n2</title>
<ellipse fill="#98D2A5" stroke="black" cx="190.92" cy="-481.29" rx="190.84" ry="37.45"/>
<text text-anchor="middle" x="190.92" y="-492.59" font-family="Times,serif" font-size="14.00">Ternera</text>
<text text-anchor="middle" x="190.92" y="-477.59" font-family="Times,serif" font-size="14.00">ncms000 (appos)</text>
<text text-anchor="middle" x="190.92" y="-462.59" font-family="Times,serif" font-size="14.00">rep=no, t=yes, r=no, m=yes, c=no</text>
</g>
<!-- n1&#45;&gt;n2 -->
<g id="edge6" class="edge">
<title>n1&#45;&gt;n2</title>
<path fill="none" stroke="black" d="M327.64,-556.77C307.11,-545.59 284.18,-533.1 263.06,-521.59"/>
<polygon fill="black" stroke="black" points="264.59,-518.44 254.13,-516.73 261.24,-524.58 264.59,-518.44"/>
</g>
<!-- n4 -->
<g id="node8" class="node">
<title>n4</title>
<ellipse fill="#98D2A5" stroke="black" cx="590.92" cy="-481.29" rx="190.84" ry="37.45"/>
<text text-anchor="middle" x="590.92" y="-492.59" font-family="Times,serif" font-size="14.00">su</text>
<text text-anchor="middle" x="590.92" y="-477.59" font-family="Times,serif" font-size="14.00">dp3cs0 (poss)</text>
<text text-anchor="middle" x="590.92" y="-462.59" font-family="Times,serif" font-size="14.00">rep=no, t=no, r=yes, m=yes, c=no</text>
</g>
<!-- n5&#45;&gt;n4 -->
<g id="edge7" class="edge">
<title>n5&#45;&gt;n4</title>
<path fill="none" stroke="black" d="M881.62,-561.47C828.48,-547 764.51,-529.57 710.12,-514.76"/>
<polygon fill="black" stroke="black" points="711,-511.37 700.44,-512.12 709.16,-518.13 711,-511.37"/>
</g>
<!-- n6 -->
<g id="node9" class="node">
<title>n6</title>
<ellipse fill="#98D2A5" stroke="black" cx="990.92" cy="-481.29" rx="190.84" ry="37.45"/>
<text text-anchor="middle" x="990.92" y="-492.59" font-family="Times,serif" font-size="14.00">de</text>
<text text-anchor="middle" x="990.92" y="-477.59" font-family="Times,serif" font-size="14.00">sps00 (prepn)</text>
<text text-anchor="middle" x="990.92" y="-462.59" font-family="Times,serif" font-size="14.00">rep=no, t=no, r=yes, m=yes, c=no</text>
</g>
<!-- n5&#45;&gt;n6 -->
<g id="edge8" class="edge">
<title>n5&#45;&gt;n6</title>
<path fill="none" stroke="black" d="M990.92,-554.66C990.92,-546.49 990.92,-537.71 990.92,-529.18"/>
<polygon fill="black" stroke="black" points="994.42,-528.96 990.92,-518.96 987.42,-528.96 994.42,-528.96"/>
</g>
<!-- n9 -->
<g id="node10" class="node">
<title>n9</title>
<ellipse fill="#98D2A5" stroke="black" cx="1390.92" cy="-481.29" rx="190.84" ry="37.45"/>
<text text-anchor="middle" x="1390.92" y="-492.59" font-family="Times,serif" font-size="14.00">desde</text>
<text text-anchor="middle" x="1390.92" y="-477.59" font-family="Times,serif" font-size="14.00">sps00 (prepn)</text>
<text text-anchor="middle" x="1390.92" y="-462.59" font-family="Times,serif" font-size="14.00">rep=no, t=no, r=yes, m=yes, c=no</text>
</g>
<!-- n5&#45;&gt;n9 -->
<g id="edge9" class="edge">
<title>n5&#45;&gt;n9</title>
<path fill="none" stroke="black" d="M1100.22,-561.47C1153.36,-547 1217.33,-529.57 1271.71,-514.76"/>
<polygon fill="black" stroke="black" points="1272.67,-518.13 1281.4,-512.12 1270.83,-511.37 1272.67,-518.13"/>
</g>
<!-- n7 -->
<g id="node11" class="node">
<title>n7</title>
<ellipse fill="#98D2A5" stroke="black" cx="990.92" cy="-370.34" rx="190.84" ry="37.45"/>
<text text-anchor="middle" x="990.92" y="-381.64" font-family="Times,serif" font-size="14.00">activista</text>
<text text-anchor="middle" x="990.92" y="-366.64" font-family="Times,serif" font-size="14.00">nccs000 (pobj)</text>
<text text-anchor="middle" x="990.92" y="-351.64" font-family="Times,serif" font-size="14.00">rep=no, t=no, r=yes, m=yes, c=no</text>
</g>
<!-- n6&#45;&gt;n7 -->
<g id="edge10" class="edge">
<title>n6&#45;&gt;n7</title>
<path fill="none" stroke="black" d="M990.92,-443.71C990.92,-435.53 990.92,-426.75 990.92,-418.23"/>
<polygon fill="black" stroke="black" points="994.42,-418.01 990.92,-408.01 987.42,-418.01 994.42,-418.01"/>
</g>
<!-- n10 -->
<g id="node13" class="node">
<title>n10</title>
<ellipse fill="#98D2A5" stroke="black" cx="1390.92" cy="-370.34" rx="190.84" ry="37.45"/>
<text text-anchor="middle" x="1390.92" y="-381.64" font-family="Times,serif" font-size="14.00">1973</text>
<text text-anchor="middle" x="1390.92" y="-366.64" font-family="Times,serif" font-size="14.00">z (pobj)</text>
<text text-anchor="middle" x="1390.92" y="-351.64" font-family="Times,serif" font-size="14.00">rep=no, t=no, r=yes, m=yes, c=no</text>
</g>
<!-- n9&#45;&gt;n10 -->
<g id="edge12" class="edge">
<title>n9&#45;&gt;n10</title>
<path fill="none" stroke="black" d="M1390.92,-443.71C1390.92,-435.53 1390.92,-426.75 1390.92,-418.23"/>
<polygon fill="black" stroke="black" points="1394.42,-418.01 1390.92,-408.01 1387.42,-418.01 1394.42,-418.01"/>
</g>
<!-- n8 -->
<g id="node12" class="node">
<title>n8</title>
<ellipse fill="#98D2A5" stroke="black" cx="990.92" cy="-259.38" rx="190.84" ry="37.45"/>
<text text-anchor="middle" x="990.92" y="-270.68" font-family="Times,serif" font-size="14.00">etarra</text>
<text text-anchor="middle" x="990.92" y="-255.68" font-family="Times,serif" font-size="14.00">aq0cs0 (amod)</text>
<text text-anchor="middle" x="990.92" y="-240.68" font-family="Times,serif" font-size="14.00">rep=no, t=no, r=yes, m=yes, c=no</text>
</g>
<!-- n7&#45;&gt;n8 -->
<g id="edge11" class="edge">
<title>n7&#45;&gt;n8</title>
<path fill="none" stroke="black" d="M990.92,-332.75C990.92,-324.58 990.92,-315.8 990.92,-307.27"/>
<polygon fill="black" stroke="black" points="994.42,-307.06 990.92,-297.06 987.42,-307.06 994.42,-307.06"/>
</g>
<!-- n16 -->
<g id="node18" class="node">
<title>n16</title>
<ellipse fill="#98D2A5" stroke="black" cx="1785.92" cy="-481.29" rx="185.94" ry="37.45"/>
<text text-anchor="middle" x="1785.92" y="-492.59" font-family="Times,serif" font-size="14.00">asiduo</text>
<text text-anchor="middle" x="1785.92" y="-477.59" font-family="Times,serif" font-size="14.00">aq0ms0 (cobj)</text>
<text text-anchor="middle" x="1785.92" y="-462.59" font-family="Times,serif" font-size="14.00">rep=no, t=no, r=no, m=yes, c=no</text>
</g>
<!-- n14&#45;&gt;n16 -->
<g id="edge17" class="edge">
<title>n14&#45;&gt;n16</title>
<path fill="none" stroke="black" d="M1782.6,-554.66C1782.97,-546.49 1783.38,-537.71 1783.77,-529.18"/>
<polygon fill="black" stroke="black" points="1787.27,-529.11 1784.24,-518.96 1780.28,-528.79 1787.27,-529.11"/>
</g>
<!-- n26 -->
<g id="node27" class="node">
<title>n26</title>
<ellipse fill="#98D2A5" stroke="black" cx="2463.92" cy="-481.29" rx="185.94" ry="37.45"/>
<text text-anchor="middle" x="2463.92" y="-492.59" font-family="Times,serif" font-size="14.00">prevaler</text>
<text text-anchor="middle" x="2463.92" y="-477.59" font-family="Times,serif" font-size="14.00">vmn0000 (dobj)</text>
<text text-anchor="middle" x="2463.92" y="-462.59" font-family="Times,serif" font-size="14.00">rep=no, t=no, r=no, m=yes, c=no</text>
</g>
<!-- n25&#45;&gt;n26 -->
<g id="edge26" class="edge">
<title>n25&#45;&gt;n26</title>
<path fill="none" stroke="black" d="M2528.89,-555.27C2520.53,-545.88 2511.43,-535.65 2502.76,-525.91"/>
<polygon fill="black" stroke="black" points="2505.18,-523.37 2495.92,-518.23 2499.95,-528.03 2505.18,-523.37"/>
</g>
<!-- n28 -->
<g id="node28" class="node">
<title>n28</title>
<ellipse fill="#98D2A5" stroke="black" cx="2853.92" cy="-481.29" rx="185.94" ry="37.45"/>
<text text-anchor="middle" x="2853.92" y="-492.59" font-family="Times,serif" font-size="14.00">condición</text>
<text text-anchor="middle" x="2853.92" y="-477.59" font-family="Times,serif" font-size="14.00">ncfs000 (dobj)</text>
<text text-anchor="middle" x="2853.92" y="-462.59" font-family="Times,serif" font-size="14.00">rep=no, t=no, r=no, m=yes, c=no</text>
</g>
<!-- n25&#45;&gt;n28 -->
<g id="edge27" class="edge">
<title>n25&#45;&gt;n28</title>
<path fill="none" stroke="black" d="M2647.64,-559C2682.26,-546.12 2722.26,-531.25 2757.76,-518.05"/>
<polygon fill="black" stroke="black" points="2759.01,-521.31 2767.17,-514.55 2756.58,-514.75 2759.01,-521.31"/>
</g>
<!-- n15 -->
<g id="node19" class="node">
<title>n15</title>
<ellipse fill="#98D2A5" stroke="black" cx="1785.92" cy="-370.34" rx="185.94" ry="37.45"/>
<text text-anchor="middle" x="1785.92" y="-381.64" font-family="Times,serif" font-size="14.00">un</text>
<text text-anchor="middle" x="1785.92" y="-366.64" font-family="Times,serif" font-size="14.00">di0ms0 (det)</text>
<text text-anchor="middle" x="1785.92" y="-351.64" font-family="Times,serif" font-size="14.00">rep=no, t=no, r=no, m=yes, c=no</text>
</g>
<!-- n16&#45;&gt;n15 -->
<g id="edge18" class="edge">
<title>n16&#45;&gt;n15</title>
<path fill="none" stroke="black" d="M1785.92,-443.71C1785.92,-435.53 1785.92,-426.75 1785.92,-418.23"/>
<polygon fill="black" stroke="black" points="1789.42,-418.01 1785.92,-408.01 1782.42,-418.01 1789.42,-418.01"/>
</g>
<!-- n17 -->
<g id="node20" class="node">
<title>n17</title>
<ellipse fill="#98D2A5" stroke="black" cx="2175.92" cy="-370.34" rx="185.94" ry="37.45"/>
<text text-anchor="middle" x="2175.92" y="-381.64" font-family="Times,serif" font-size="14.00">a</text>
<text text-anchor="middle" x="2175.92" y="-366.64" font-family="Times,serif" font-size="14.00">sps00 (prepa)</text>
<text text-anchor="middle" x="2175.92" y="-351.64" font-family="Times,serif" font-size="14.00">rep=no, t=no, r=no, m=yes, c=no</text>
</g>
<!-- n16&#45;&gt;n17 -->
<g id="edge19" class="edge">
<title>n16&#45;&gt;n17</title>
<path fill="none" stroke="black" d="M1892.49,-450.52C1944.29,-436.05 2006.66,-418.62 2059.69,-403.81"/>
<polygon fill="black" stroke="black" points="2060.79,-407.13 2069.48,-401.07 2058.91,-400.39 2060.79,-407.13"/>
</g>
<!-- n19 -->
<g id="node21" class="node">
<title>n19</title>
<ellipse fill="#98D2A5" stroke="black" cx="2175.92" cy="-259.38" rx="185.94" ry="37.45"/>
<text text-anchor="middle" x="2175.92" y="-270.68" font-family="Times,serif" font-size="14.00">reuniones</text>
<text text-anchor="middle" x="2175.92" y="-255.68" font-family="Times,serif" font-size="14.00">ncfp000 (pobj)</text>
<text text-anchor="middle" x="2175.92" y="-240.68" font-family="Times,serif" font-size="14.00">rep=no, t=no, r=no, m=yes, c=no</text>
</g>
<!-- n17&#45;&gt;n19 -->
<g id="edge20" class="edge">
<title>n17&#45;&gt;n19</title>
<path fill="none" stroke="black" d="M2175.92,-332.75C2175.92,-324.58 2175.92,-315.8 2175.92,-307.27"/>
<polygon fill="black" stroke="black" points="2179.42,-307.06 2175.92,-297.06 2172.42,-307.06 2179.42,-307.06"/>
</g>
<!-- n18 -->
<g id="node22" class="node">
<title>n18</title>
<ellipse fill="#98D2A5" stroke="black" cx="1980.92" cy="-148.43" rx="185.94" ry="37.45"/>
<text text-anchor="middle" x="1980.92" y="-159.73" font-family="Times,serif" font-size="14.00">las</text>
<text text-anchor="middle" x="1980.92" y="-144.73" font-family="Times,serif" font-size="14.00">da0fp0 (det)</text>
<text text-anchor="middle" x="1980.92" y="-129.73" font-family="Times,serif" font-size="14.00">rep=no, t=no, r=no, m=yes, c=no</text>
</g>
<!-- n19&#45;&gt;n18 -->
<g id="edge21" class="edge">
<title>n19&#45;&gt;n18</title>
<path fill="none" stroke="black" d="M2114.22,-223.91C2094.29,-212.78 2072.05,-200.35 2051.53,-188.89"/>
<polygon fill="black" stroke="black" points="2052.99,-185.69 2042.55,-183.87 2049.57,-191.8 2052.99,-185.69"/>
</g>
<!-- n20 -->
<g id="node23" class="node">
<title>n20</title>
<ellipse fill="#98D2A5" stroke="black" cx="2370.92" cy="-148.43" rx="185.94" ry="37.45"/>
<text text-anchor="middle" x="2370.92" y="-159.73" font-family="Times,serif" font-size="14.00">de</text>
<text text-anchor="middle" x="2370.92" y="-144.73" font-family="Times,serif" font-size="14.00">sps00 (prepn)</text>
<text text-anchor="middle" x="2370.92" y="-129.73" font-family="Times,serif" font-size="14.00">rep=no, t=no, r=no, m=yes, c=no</text>
</g>
<!-- n19&#45;&gt;n20 -->
<g id="edge22" class="edge">
<title>n19&#45;&gt;n20</title>
<path fill="none" stroke="black" d="M2237.62,-223.91C2257.54,-212.78 2279.79,-200.35 2300.3,-188.89"/>
<polygon fill="black" stroke="black" points="2302.26,-191.8 2309.29,-183.87 2298.85,-185.69 2302.26,-191.8"/>
</g>
<!-- n21 -->
<g id="node24" class="node">
<title>n21</title>
<ellipse fill="#98D2A5" stroke="black" cx="1980.92" cy="-37.48" rx="185.94" ry="37.45"/>
<text text-anchor="middle" x="1980.92" y="-48.78" font-family="Times,serif" font-size="14.00">Ekin</text>
<text text-anchor="middle" x="1980.92" y="-33.78" font-family="Times,serif" font-size="14.00">np00000 (pobj)</text>
<text text-anchor="middle" x="1980.92" y="-18.78" font-family="Times,serif" font-size="14.00">rep=no, t=no, r=no, m=yes, c=no</text>
</g>
<!-- n20&#45;&gt;n21 -->
<g id="edge23" class="edge">
<title>n20&#45;&gt;n21</title>
<path fill="none" stroke="black" d="M2264.35,-117.66C2212.54,-103.19 2150.17,-85.76 2097.15,-70.95"/>
<polygon fill="black" stroke="black" points="2097.93,-67.53 2087.36,-68.21 2096.05,-74.27 2097.93,-67.53"/>
</g>
<!-- n22 -->
<g id="node25" class="node">
<title>n22</title>
<ellipse fill="#98D2A5" stroke="black" cx="2370.92" cy="-37.48" rx="185.94" ry="37.45"/>
<text text-anchor="middle" x="2370.92" y="-48.78" font-family="Times,serif" font-size="14.00">y</text>
<text text-anchor="middle" x="2370.92" y="-33.78" font-family="Times,serif" font-size="14.00">cc (coord_fixed)</text>
<text text-anchor="middle" x="2370.92" y="-18.78" font-family="Times,serif" font-size="14.00">rep=no, t=no, r=no, m=yes, c=no</text>
</g>
<!-- n20&#45;&gt;n22 -->
<g id="edge24" class="edge">
<title>n20&#45;&gt;n22</title>
<path fill="none" stroke="black" d="M2370.92,-110.85C2370.92,-102.67 2370.92,-93.89 2370.92,-85.37"/>
<polygon fill="black" stroke="black" points="2374.42,-85.15 2370.92,-75.15 2367.42,-85.15 2374.42,-85.15"/>
</g>
<!-- n23 -->
<g id="node26" class="node">
<title>n23</title>
<ellipse fill="#98D2A5" stroke="black" cx="2765.92" cy="-37.48" rx="190.84" ry="37.45"/>
<text text-anchor="middle" x="2765.92" y="-48.78" font-family="Times,serif" font-size="14.00">Jarrai</text>
<text text-anchor="middle" x="2765.92" y="-33.78" font-family="Times,serif" font-size="14.00">np00000 (pobj)</text>
<text text-anchor="middle" x="2765.92" y="-18.78" font-family="Times,serif" font-size="14.00">rep=no, t=no, r=no, m=yes, c=yes</text>
</g>
<!-- n20&#45;&gt;n23 -->
<g id="edge25" class="edge">
<title>n20&#45;&gt;n23</title>
<path fill="none" stroke="black" d="M2478.33,-117.8C2530.7,-103.36 2593.82,-85.95 2647.57,-71.12"/>
<polygon fill="black" stroke="black" points="2648.79,-74.42 2657.5,-68.38 2646.93,-67.67 2648.79,-74.42"/>
</g>
<!-- n27 -->
<g id="node29" class="node">
<title>n27</title>
<ellipse fill="#98D2A5" stroke="black" cx="2755.92" cy="-370.34" rx="185.94" ry="37.45"/>
<text text-anchor="middle" x="2755.92" y="-381.64" font-family="Times,serif" font-size="14.00">su</text>
<text text-anchor="middle" x="2755.92" y="-366.64" font-family="Times,serif" font-size="14.00">dp3cs0 (poss)</text>
<text text-anchor="middle" x="2755.92" y="-351.64" font-family="Times,serif" font-size="14.00">rep=no, t=no, r=no, m=yes, c=no</text>
</g>
<!-- n28&#45;&gt;n27 -->
<g id="edge28" class="edge">
<title>n28&#45;&gt;n27</title>
<path fill="none" stroke="black" d="M2821.56,-444.31C2813.11,-434.92 2803.92,-424.7 2795.16,-414.96"/>
<polygon fill="black" stroke="black" points="2797.54,-412.37 2788.25,-407.28 2792.33,-417.05 2797.54,-412.37"/>
</g>
<!-- n29 -->
<g id="node30" class="node">
<title>n29</title>
<ellipse fill="#98D2A5" stroke="black" cx="3145.92" cy="-370.34" rx="185.94" ry="37.45"/>
<text text-anchor="middle" x="3145.92" y="-381.64" font-family="Times,serif" font-size="14.00">de</text>
<text text-anchor="middle" x="3145.92" y="-366.64" font-family="Times,serif" font-size="14.00">sps00 (prepn)</text>
<text text-anchor="middle" x="3145.92" y="-351.64" font-family="Times,serif" font-size="14.00">rep=no, t=no, r=no, m=yes, c=no</text>
</g>
<!-- n28&#45;&gt;n29 -->
<g id="edge29" class="edge">
<title>n28&#45;&gt;n29</title>
<path fill="none" stroke="black" d="M2940.34,-448.04C2974.85,-435.17 3014.71,-420.3 3050.09,-407.09"/>
<polygon fill="black" stroke="black" points="3051.32,-410.37 3059.46,-403.6 3048.87,-403.81 3051.32,-410.37"/>
</g>
<!-- n30 -->
<g id="node31" class="node">
<title>n30</title>
<ellipse fill="#98D2A5" stroke="black" cx="3145.92" cy="-259.38" rx="185.94" ry="37.45"/>
<text text-anchor="middle" x="3145.92" y="-270.68" font-family="Times,serif" font-size="14.00">aforado</text>
<text text-anchor="middle" x="3145.92" y="-255.68" font-family="Times,serif" font-size="14.00">aq0msp (pobj)</text>
<text text-anchor="middle" x="3145.92" y="-240.68" font-family="Times,serif" font-size="14.00">rep=no, t=no, r=no, m=yes, c=no</text>
</g>
<!-- n29&#45;&gt;n30 -->
<g id="edge30" class="edge">
<title>n29&#45;&gt;n30</title>
<path fill="none" stroke="black" d="M3145.92,-332.75C3145.92,-324.58 3145.92,-315.8 3145.92,-307.27"/>
<polygon fill="black" stroke="black" points="3149.42,-307.06 3145.92,-297.06 3142.42,-307.06 3149.42,-307.06"/>
</g>
</g>
</svg>
