<?xml version="1.0" encoding="UTF-8" standalone="no"?>
<!DOCTYPE svg PUBLIC "-//W3C//DTD SVG 1.1//EN"
 "http://www.w3.org/Graphics/SVG/1.1/DTD/svg11.dtd">
<!-- Generated by graphviz version 2.43.0 (0)
 -->
<!-- Title: tree Pages: 1 -->
<svg width="2935pt" height="971pt"
 viewBox="0.00 0.00 2934.89 970.58" xmlns="http://www.w3.org/2000/svg" xmlns:xlink="http://www.w3.org/1999/xlink">
<g id="graph0" class="graph" transform="scale(1 1) rotate(0) translate(4 966.58)">
<title>tree</title>
<polygon fill="white" stroke="transparent" points="-4,4 -4,-966.58 2930.89,-966.58 2930.89,4 -4,4"/>
<!-- n6 -->
<g id="node1" class="node">
<title>n6</title>
<ellipse fill="#98D2A5" stroke="black" cx="1747.97" cy="-925.1" rx="185.94" ry="37.45"/>
<text text-anchor="middle" x="1747.97" y="-936.4" font-family="Times,serif" font-size="14.00">figuran</text>
<text text-anchor="middle" x="1747.97" y="-921.4" font-family="Times,serif" font-size="14.00">vmip3p0 (root)</text>
<text text-anchor="middle" x="1747.97" y="-906.4" font-family="Times,serif" font-size="14.00">rep=no, t=no, r=no, m=yes, c=no</text>
</g>
<!-- n1 -->
<g id="node2" class="node">
<title>n1</title>
<ellipse fill="#98D2A5" stroke="black" cx="1162.97" cy="-814.15" rx="185.94" ry="37.45"/>
<text text-anchor="middle" x="1162.97" y="-825.45" font-family="Times,serif" font-size="14.00">En</text>
<text text-anchor="middle" x="1162.97" y="-810.45" font-family="Times,serif" font-size="14.00">sps00 (prepv)</text>
<text text-anchor="middle" x="1162.97" y="-795.45" font-family="Times,serif" font-size="14.00">rep=no, t=no, r=no, m=yes, c=no</text>
</g>
<!-- n6&#45;&gt;n1 -->
<g id="edge1" class="edge">
<title>n6&#45;&gt;n1</title>
<path fill="none" stroke="black" d="M1613.76,-899.11C1522.05,-882.03 1400.62,-859.41 1306.9,-841.96"/>
<polygon fill="black" stroke="black" points="1307.53,-838.51 1297.06,-840.12 1306.25,-845.4 1307.53,-838.51"/>
</g>
<!-- n8 -->
<g id="node3" class="node">
<title>n8</title>
<ellipse fill="#98D2A5" stroke="black" cx="1747.97" cy="-814.15" rx="185.94" ry="37.45"/>
<text text-anchor="middle" x="1747.97" y="-825.45" font-family="Times,serif" font-size="14.00">abogados</text>
<text text-anchor="middle" x="1747.97" y="-810.45" font-family="Times,serif" font-size="14.00">ncmp000 (nsubj)</text>
<text text-anchor="middle" x="1747.97" y="-795.45" font-family="Times,serif" font-size="14.00">rep=no, t=no, r=no, m=yes, c=no</text>
</g>
<!-- n6&#45;&gt;n8 -->
<g id="edge2" class="edge">
<title>n6&#45;&gt;n8</title>
<path fill="none" stroke="black" d="M1747.97,-887.52C1747.97,-879.35 1747.97,-870.57 1747.97,-862.04"/>
<polygon fill="black" stroke="black" points="1751.47,-861.82 1747.97,-851.82 1744.47,-861.82 1751.47,-861.82"/>
</g>
<!-- n28 -->
<g id="node4" class="node">
<title>n28</title>
<ellipse fill="none" stroke="black" cx="2133.97" cy="-814.15" rx="181.95" ry="37.45"/>
<text text-anchor="middle" x="2133.97" y="-825.45" font-family="Times,serif" font-size="14.00">.</text>
<text text-anchor="middle" x="2133.97" y="-810.45" font-family="Times,serif" font-size="14.00">fp (punct)</text>
<text text-anchor="middle" x="2133.97" y="-795.45" font-family="Times,serif" font-size="14.00">rep=no, t=no, r=no, m=no, c=no</text>
</g>
<!-- n6&#45;&gt;n28 -->
<g id="edge3" class="edge">
<title>n6&#45;&gt;n28</title>
<path fill="none" stroke="black" d="M1853.7,-894.26C1904.97,-879.79 1966.65,-862.38 2019.08,-847.58"/>
<polygon fill="black" stroke="black" points="2020.08,-850.93 2028.75,-844.85 2018.18,-844.2 2020.08,-850.93"/>
</g>
<!-- n3 -->
<g id="node5" class="node">
<title>n3</title>
<ellipse fill="#98D2A5" stroke="black" cx="575.97" cy="-703.2" rx="185.94" ry="37.45"/>
<text text-anchor="middle" x="575.97" y="-714.5" font-family="Times,serif" font-size="14.00">lista</text>
<text text-anchor="middle" x="575.97" y="-699.5" font-family="Times,serif" font-size="14.00">ncfs000 (pobj)</text>
<text text-anchor="middle" x="575.97" y="-684.5" font-family="Times,serif" font-size="14.00">rep=no, t=no, r=no, m=yes, c=no</text>
</g>
<!-- n1&#45;&gt;n3 -->
<g id="edge4" class="edge">
<title>n1&#45;&gt;n3</title>
<path fill="none" stroke="black" d="M1028.67,-788.22C936.57,-771.13 814.5,-748.47 720.32,-730.99"/>
<polygon fill="black" stroke="black" points="720.9,-727.54 710.43,-729.15 719.62,-734.42 720.9,-727.54"/>
</g>
<!-- n7 -->
<g id="node9" class="node">
<title>n7</title>
<ellipse fill="#98D2A5" stroke="black" cx="1160.97" cy="-703.2" rx="185.94" ry="37.45"/>
<text text-anchor="middle" x="1160.97" y="-714.5" font-family="Times,serif" font-size="14.00">los</text>
<text text-anchor="middle" x="1160.97" y="-699.5" font-family="Times,serif" font-size="14.00">da0mp0 (det)</text>
<text text-anchor="middle" x="1160.97" y="-684.5" font-family="Times,serif" font-size="14.00">rep=no, t=no, r=no, m=yes, c=no</text>
</g>
<!-- n8&#45;&gt;n7 -->
<g id="edge8" class="edge">
<title>n8&#45;&gt;n7</title>
<path fill="none" stroke="black" d="M1613.25,-788.31C1537.62,-774.35 1441.53,-756.59 1355.97,-740.67 1339.41,-737.59 1322.06,-734.36 1304.83,-731.14"/>
<polygon fill="black" stroke="black" points="1305.18,-727.65 1294.71,-729.25 1303.89,-734.53 1305.18,-727.65"/>
</g>
<!-- n9 -->
<g id="node10" class="node">
<title>n9</title>
<ellipse fill="#98D2A5" stroke="black" cx="1550.97" cy="-703.2" rx="185.94" ry="37.45"/>
<text text-anchor="middle" x="1550.97" y="-714.5" font-family="Times,serif" font-size="14.00">de</text>
<text text-anchor="middle" x="1550.97" y="-699.5" font-family="Times,serif" font-size="14.00">sps00 (prepn)</text>
<text text-anchor="middle" x="1550.97" y="-684.5" font-family="Times,serif" font-size="14.00">rep=no, t=no, r=no, m=yes, c=no</text>
</g>
<!-- n8&#45;&gt;n9 -->
<g id="edge9" class="edge">
<title>n8&#45;&gt;n9</title>
<path fill="none" stroke="black" d="M1685.64,-778.68C1665.42,-767.49 1642.84,-755 1622.03,-743.5"/>
<polygon fill="black" stroke="black" points="1623.68,-740.41 1613.23,-738.63 1620.29,-746.54 1623.68,-740.41"/>
</g>
<!-- n13 -->
<g id="node11" class="node">
<title>n13</title>
<ellipse fill="#98D2A5" stroke="black" cx="1945.97" cy="-703.2" rx="190.84" ry="37.45"/>
<text text-anchor="middle" x="1945.97" y="-714.5" font-family="Times,serif" font-size="14.00">José</text>
<text text-anchor="middle" x="1945.97" y="-699.5" font-family="Times,serif" font-size="14.00">ncfs000 (dep)</text>
<text text-anchor="middle" x="1945.97" y="-684.5" font-family="Times,serif" font-size="14.00">rep=no, t=no, r=no, m=yes, c=yes</text>
</g>
<!-- n8&#45;&gt;n13 -->
<g id="edge10" class="edge">
<title>n8&#45;&gt;n13</title>
<path fill="none" stroke="black" d="M1810.35,-778.83C1830.68,-767.64 1853.41,-755.13 1874.37,-743.6"/>
<polygon fill="black" stroke="black" points="1876.15,-746.61 1883.23,-738.72 1872.78,-740.48 1876.15,-746.61"/>
</g>
<!-- n25 -->
<g id="node12" class="node">
<title>n25</title>
<ellipse fill="#98D2A5" stroke="black" cx="2340.97" cy="-703.2" rx="185.94" ry="37.45"/>
<text text-anchor="middle" x="2340.97" y="-714.5" font-family="Times,serif" font-size="14.00">y</text>
<text text-anchor="middle" x="2340.97" y="-699.5" font-family="Times,serif" font-size="14.00">cc (coord_fixed)</text>
<text text-anchor="middle" x="2340.97" y="-684.5" font-family="Times,serif" font-size="14.00">rep=no, t=no, r=no, m=yes, c=no</text>
</g>
<!-- n8&#45;&gt;n25 -->
<g id="edge11" class="edge">
<title>n8&#45;&gt;n25</title>
<path fill="none" stroke="black" d="M1881.42,-788.01C1902.02,-784.18 1923.06,-780.3 1942.97,-776.67 2033.12,-760.25 2055.82,-757.1 2145.97,-740.67 2162.61,-737.64 2180.04,-734.43 2197.35,-731.22"/>
<polygon fill="black" stroke="black" points="2198.33,-734.6 2207.52,-729.33 2197.05,-727.72 2198.33,-734.6"/>
</g>
<!-- n26 -->
<g id="node13" class="node">
<title>n26</title>
<ellipse fill="#98D2A5" stroke="black" cx="2735.97" cy="-703.2" rx="190.84" ry="37.45"/>
<text text-anchor="middle" x="2735.97" y="-714.5" font-family="Times,serif" font-size="14.00">Natale</text>
<text text-anchor="middle" x="2735.97" y="-699.5" font-family="Times,serif" font-size="14.00">np00000 (dep)</text>
<text text-anchor="middle" x="2735.97" y="-684.5" font-family="Times,serif" font-size="14.00">rep=no, t=no, r=no, m=yes, c=yes</text>
</g>
<!-- n8&#45;&gt;n26 -->
<g id="edge12" class="edge">
<title>n8&#45;&gt;n26</title>
<path fill="none" stroke="black" d="M1875.85,-786.88C1898.15,-782.97 1921.18,-779.36 1942.97,-776.67 2205.02,-744.34 2273.84,-772.42 2535.97,-740.67 2555.08,-738.36 2575.12,-735.38 2594.83,-732.11"/>
<polygon fill="black" stroke="black" points="2595.51,-735.55 2604.79,-730.44 2594.35,-728.65 2595.51,-735.55"/>
</g>
<!-- n2 -->
<g id="node6" class="node">
<title>n2</title>
<ellipse fill="#98D2A5" stroke="black" cx="185.97" cy="-592.24" rx="185.94" ry="37.45"/>
<text text-anchor="middle" x="185.97" y="-603.54" font-family="Times,serif" font-size="14.00">la</text>
<text text-anchor="middle" x="185.97" y="-588.54" font-family="Times,serif" font-size="14.00">da0fs0 (det)</text>
<text text-anchor="middle" x="185.97" y="-573.54" font-family="Times,serif" font-size="14.00">rep=no, t=no, r=no, m=yes, c=no</text>
</g>
<!-- n3&#45;&gt;n2 -->
<g id="edge5" class="edge">
<title>n3&#45;&gt;n2</title>
<path fill="none" stroke="black" d="M469.4,-672.42C417.59,-657.95 355.23,-640.53 302.2,-625.71"/>
<polygon fill="black" stroke="black" points="302.98,-622.3 292.41,-622.98 301.1,-629.04 302.98,-622.3"/>
</g>
<!-- n4 -->
<g id="node7" class="node">
<title>n4</title>
<ellipse fill="#98D2A5" stroke="black" cx="575.97" cy="-592.24" rx="185.94" ry="37.45"/>
<text text-anchor="middle" x="575.97" y="-603.54" font-family="Times,serif" font-size="14.00">de</text>
<text text-anchor="middle" x="575.97" y="-588.54" font-family="Times,serif" font-size="14.00">sps00 (prepn)</text>
<text text-anchor="middle" x="575.97" y="-573.54" font-family="Times,serif" font-size="14.00">rep=no, t=no, r=no, m=yes, c=no</text>
</g>
<!-- n3&#45;&gt;n4 -->
<g id="edge6" class="edge">
<title>n3&#45;&gt;n4</title>
<path fill="none" stroke="black" d="M575.97,-665.61C575.97,-657.44 575.97,-648.66 575.97,-640.13"/>
<polygon fill="black" stroke="black" points="579.47,-639.92 575.97,-629.92 572.47,-639.92 579.47,-639.92"/>
</g>
<!-- n5 -->
<g id="node8" class="node">
<title>n5</title>
<ellipse fill="#98D2A5" stroke="black" cx="478.97" cy="-481.29" rx="185.94" ry="37.45"/>
<text text-anchor="middle" x="478.97" y="-492.59" font-family="Times,serif" font-size="14.00">procesados</text>
<text text-anchor="middle" x="478.97" y="-477.59" font-family="Times,serif" font-size="14.00">ncmp000 (pobj)</text>
<text text-anchor="middle" x="478.97" y="-462.59" font-family="Times,serif" font-size="14.00">rep=no, t=no, r=no, m=yes, c=no</text>
</g>
<!-- n4&#45;&gt;n5 -->
<g id="edge7" class="edge">
<title>n4&#45;&gt;n5</title>
<path fill="none" stroke="black" d="M543.94,-555.27C535.58,-545.88 526.48,-535.65 517.81,-525.91"/>
<polygon fill="black" stroke="black" points="520.23,-523.37 510.97,-518.23 515,-528.03 520.23,-523.37"/>
</g>
<!-- n10 -->
<g id="node14" class="node">
<title>n10</title>
<ellipse fill="#98D2A5" stroke="black" cx="1550.97" cy="-592.24" rx="185.94" ry="37.45"/>
<text text-anchor="middle" x="1550.97" y="-603.54" font-family="Times,serif" font-size="14.00">Gestoras</text>
<text text-anchor="middle" x="1550.97" y="-588.54" font-family="Times,serif" font-size="14.00">ncfs000 (pobj)</text>
<text text-anchor="middle" x="1550.97" y="-573.54" font-family="Times,serif" font-size="14.00">rep=no, t=no, r=no, m=yes, c=no</text>
</g>
<!-- n9&#45;&gt;n10 -->
<g id="edge13" class="edge">
<title>n9&#45;&gt;n10</title>
<path fill="none" stroke="black" d="M1550.97,-665.61C1550.97,-657.44 1550.97,-648.66 1550.97,-640.13"/>
<polygon fill="black" stroke="black" points="1554.47,-639.92 1550.97,-629.92 1547.47,-639.92 1554.47,-639.92"/>
</g>
<!-- n14 -->
<g id="node26" class="node">
<title>n14</title>
<ellipse fill="#98D2A5" stroke="black" cx="2145.97" cy="-592.24" rx="185.94" ry="37.45"/>
<text text-anchor="middle" x="2145.97" y="-603.54" font-family="Times,serif" font-size="14.00">María</text>
<text text-anchor="middle" x="2145.97" y="-588.54" font-family="Times,serif" font-size="14.00">ncms000 (appos)</text>
<text text-anchor="middle" x="2145.97" y="-573.54" font-family="Times,serif" font-size="14.00">rep=no, t=no, r=no, m=yes, c=no</text>
</g>
<!-- n13&#45;&gt;n14 -->
<g id="edge25" class="edge">
<title>n13&#45;&gt;n14</title>
<path fill="none" stroke="black" d="M2009.25,-667.72C2029.78,-656.54 2052.7,-644.05 2073.83,-632.54"/>
<polygon fill="black" stroke="black" points="2075.65,-635.54 2082.76,-627.68 2072.3,-629.39 2075.65,-635.54"/>
</g>
<!-- n27 -->
<g id="node28" class="node">
<title>n27</title>
<ellipse fill="#98D2A5" stroke="black" cx="2735.97" cy="-592.24" rx="185.94" ry="37.45"/>
<text text-anchor="middle" x="2735.97" y="-603.54" font-family="Times,serif" font-size="14.00">Landa</text>
<text text-anchor="middle" x="2735.97" y="-588.54" font-family="Times,serif" font-size="14.00">ncms000 (appos)</text>
<text text-anchor="middle" x="2735.97" y="-573.54" font-family="Times,serif" font-size="14.00">rep=no, t=no, r=no, m=yes, c=no</text>
</g>
<!-- n26&#45;&gt;n27 -->
<g id="edge27" class="edge">
<title>n26&#45;&gt;n27</title>
<path fill="none" stroke="black" d="M2735.97,-665.61C2735.97,-657.44 2735.97,-648.66 2735.97,-640.13"/>
<polygon fill="black" stroke="black" points="2739.47,-639.92 2735.97,-629.92 2732.47,-639.92 2739.47,-639.92"/>
</g>
<!-- n11 -->
<g id="node15" class="node">
<title>n11</title>
<ellipse fill="#98D2A5" stroke="black" cx="868.97" cy="-481.29" rx="185.94" ry="37.45"/>
<text text-anchor="middle" x="868.97" y="-492.59" font-family="Times,serif" font-size="14.00">pro</text>
<text text-anchor="middle" x="868.97" y="-477.59" font-family="Times,serif" font-size="14.00">sps00 (prepn)</text>
<text text-anchor="middle" x="868.97" y="-462.59" font-family="Times,serif" font-size="14.00">rep=no, t=no, r=no, m=yes, c=no</text>
</g>
<!-- n10&#45;&gt;n11 -->
<g id="edge14" class="edge">
<title>n10&#45;&gt;n11</title>
<path fill="none" stroke="black" d="M1400.19,-570.28C1303.87,-556.52 1176.4,-537.64 1063.97,-518.77 1046.85,-515.89 1028.9,-512.73 1011.13,-509.52"/>
<polygon fill="black" stroke="black" points="1011.74,-506.07 1001.28,-507.73 1010.49,-512.96 1011.74,-506.07"/>
</g>
<!-- n16 -->
<g id="node16" class="node">
<title>n16</title>
<ellipse fill="#98D2A5" stroke="black" cx="1258.97" cy="-481.29" rx="185.94" ry="37.45"/>
<text text-anchor="middle" x="1258.97" y="-492.59" font-family="Times,serif" font-size="14.00">,</text>
<text text-anchor="middle" x="1258.97" y="-477.59" font-family="Times,serif" font-size="14.00">fc (punct)</text>
<text text-anchor="middle" x="1258.97" y="-462.59" font-family="Times,serif" font-size="14.00">rep=no, t=no, r=no, m=yes, c=no</text>
</g>
<!-- n10&#45;&gt;n16 -->
<g id="edge15" class="edge">
<title>n10&#45;&gt;n16</title>
<path fill="none" stroke="black" d="M1464.54,-559C1430.04,-546.12 1390.18,-531.25 1354.8,-518.05"/>
<polygon fill="black" stroke="black" points="1356.02,-514.77 1345.42,-514.55 1353.57,-521.32 1356.02,-514.77"/>
</g>
<!-- n17 -->
<g id="node17" class="node">
<title>n17</title>
<ellipse fill="#98D2A5" stroke="black" cx="1648.97" cy="-481.29" rx="185.94" ry="37.45"/>
<text text-anchor="middle" x="1648.97" y="-492.59" font-family="Times,serif" font-size="14.00">como</text>
<text text-anchor="middle" x="1648.97" y="-477.59" font-family="Times,serif" font-size="14.00">cs (dep)</text>
<text text-anchor="middle" x="1648.97" y="-462.59" font-family="Times,serif" font-size="14.00">rep=no, t=no, r=no, m=yes, c=no</text>
</g>
<!-- n10&#45;&gt;n17 -->
<g id="edge16" class="edge">
<title>n10&#45;&gt;n17</title>
<path fill="none" stroke="black" d="M1583.33,-555.27C1591.78,-545.88 1600.97,-535.65 1609.73,-525.91"/>
<polygon fill="black" stroke="black" points="1612.56,-528.01 1616.64,-518.23 1607.35,-523.32 1612.56,-528.01"/>
</g>
<!-- n24 -->
<g id="node18" class="node">
<title>n24</title>
<ellipse fill="#98D2A5" stroke="black" cx="2038.97" cy="-481.29" rx="185.94" ry="37.45"/>
<text text-anchor="middle" x="2038.97" y="-492.59" font-family="Times,serif" font-size="14.00">,</text>
<text text-anchor="middle" x="2038.97" y="-477.59" font-family="Times,serif" font-size="14.00">fc (punct)</text>
<text text-anchor="middle" x="2038.97" y="-462.59" font-family="Times,serif" font-size="14.00">rep=no, t=no, r=no, m=yes, c=no</text>
</g>
<!-- n10&#45;&gt;n24 -->
<g id="edge17" class="edge">
<title>n10&#45;&gt;n24</title>
<path fill="none" stroke="black" d="M1673.17,-563.96C1744.22,-548.1 1833.8,-528.1 1906.53,-511.86"/>
<polygon fill="black" stroke="black" points="1907.68,-515.19 1916.68,-509.59 1906.15,-508.36 1907.68,-515.19"/>
</g>
<!-- n12 -->
<g id="node19" class="node">
<title>n12</title>
<ellipse fill="#98D2A5" stroke="black" cx="868.97" cy="-370.34" rx="185.94" ry="37.45"/>
<text text-anchor="middle" x="868.97" y="-381.64" font-family="Times,serif" font-size="14.00">Amnistía</text>
<text text-anchor="middle" x="868.97" y="-366.64" font-family="Times,serif" font-size="14.00">np00000 (pobj)</text>
<text text-anchor="middle" x="868.97" y="-351.64" font-family="Times,serif" font-size="14.00">rep=no, t=no, r=no, m=yes, c=no</text>
</g>
<!-- n11&#45;&gt;n12 -->
<g id="edge18" class="edge">
<title>n11&#45;&gt;n12</title>
<path fill="none" stroke="black" d="M868.97,-443.71C868.97,-435.53 868.97,-426.75 868.97,-418.23"/>
<polygon fill="black" stroke="black" points="872.47,-418.01 868.97,-408.01 865.47,-418.01 872.47,-418.01"/>
</g>
<!-- n19 -->
<g id="node20" class="node">
<title>n19</title>
<ellipse fill="#98D2A5" stroke="black" cx="1648.97" cy="-370.34" rx="185.94" ry="37.45"/>
<text text-anchor="middle" x="1648.97" y="-381.64" font-family="Times,serif" font-size="14.00">coordinador</text>
<text text-anchor="middle" x="1648.97" y="-366.64" font-family="Times,serif" font-size="14.00">ncms000 (cobj)</text>
<text text-anchor="middle" x="1648.97" y="-351.64" font-family="Times,serif" font-size="14.00">rep=no, t=no, r=no, m=yes, c=no</text>
</g>
<!-- n17&#45;&gt;n19 -->
<g id="edge19" class="edge">
<title>n17&#45;&gt;n19</title>
<path fill="none" stroke="black" d="M1648.97,-443.71C1648.97,-435.53 1648.97,-426.75 1648.97,-418.23"/>
<polygon fill="black" stroke="black" points="1652.47,-418.01 1648.97,-408.01 1645.47,-418.01 1652.47,-418.01"/>
</g>
<!-- n18 -->
<g id="node21" class="node">
<title>n18</title>
<ellipse fill="#98D2A5" stroke="black" cx="1453.97" cy="-259.38" rx="185.94" ry="37.45"/>
<text text-anchor="middle" x="1453.97" y="-270.68" font-family="Times,serif" font-size="14.00">presunto</text>
<text text-anchor="middle" x="1453.97" y="-255.68" font-family="Times,serif" font-size="14.00">aq0ms0 (amod)</text>
<text text-anchor="middle" x="1453.97" y="-240.68" font-family="Times,serif" font-size="14.00">rep=no, t=no, r=no, m=yes, c=no</text>
</g>
<!-- n19&#45;&gt;n18 -->
<g id="edge20" class="edge">
<title>n19&#45;&gt;n18</title>
<path fill="none" stroke="black" d="M1587.27,-334.86C1567.34,-323.73 1545.1,-311.3 1524.58,-299.84"/>
<polygon fill="black" stroke="black" points="1526.04,-296.64 1515.6,-294.82 1522.62,-302.75 1526.04,-296.64"/>
</g>
<!-- n20 -->
<g id="node22" class="node">
<title>n20</title>
<ellipse fill="#98D2A5" stroke="black" cx="1843.97" cy="-259.38" rx="185.94" ry="37.45"/>
<text text-anchor="middle" x="1843.97" y="-270.68" font-family="Times,serif" font-size="14.00">de</text>
<text text-anchor="middle" x="1843.97" y="-255.68" font-family="Times,serif" font-size="14.00">sps00 (prepn)</text>
<text text-anchor="middle" x="1843.97" y="-240.68" font-family="Times,serif" font-size="14.00">rep=no, t=no, r=no, m=yes, c=no</text>
</g>
<!-- n19&#45;&gt;n20 -->
<g id="edge21" class="edge">
<title>n19&#45;&gt;n20</title>
<path fill="none" stroke="black" d="M1710.67,-334.86C1730.59,-323.73 1752.84,-311.3 1773.35,-299.84"/>
<polygon fill="black" stroke="black" points="1775.31,-302.75 1782.34,-294.82 1771.9,-296.64 1775.31,-302.75"/>
</g>
<!-- n22 -->
<g id="node23" class="node">
<title>n22</title>
<ellipse fill="#98D2A5" stroke="black" cx="1843.97" cy="-148.43" rx="185.94" ry="37.45"/>
<text text-anchor="middle" x="1843.97" y="-159.73" font-family="Times,serif" font-size="14.00">presos</text>
<text text-anchor="middle" x="1843.97" y="-144.73" font-family="Times,serif" font-size="14.00">ncmp000 (pobj)</text>
<text text-anchor="middle" x="1843.97" y="-129.73" font-family="Times,serif" font-size="14.00">rep=no, t=no, r=no, m=yes, c=no</text>
</g>
<!-- n20&#45;&gt;n22 -->
<g id="edge22" class="edge">
<title>n20&#45;&gt;n22</title>
<path fill="none" stroke="black" d="M1843.97,-221.8C1843.97,-213.63 1843.97,-204.85 1843.97,-196.32"/>
<polygon fill="black" stroke="black" points="1847.47,-196.1 1843.97,-186.1 1840.47,-196.1 1847.47,-196.1"/>
</g>
<!-- n21 -->
<g id="node24" class="node">
<title>n21</title>
<ellipse fill="#98D2A5" stroke="black" cx="1648.97" cy="-37.48" rx="185.94" ry="37.45"/>
<text text-anchor="middle" x="1648.97" y="-48.78" font-family="Times,serif" font-size="14.00">los</text>
<text text-anchor="middle" x="1648.97" y="-33.78" font-family="Times,serif" font-size="14.00">da0mp0 (det)</text>
<text text-anchor="middle" x="1648.97" y="-18.78" font-family="Times,serif" font-size="14.00">rep=no, t=no, r=no, m=yes, c=no</text>
</g>
<!-- n22&#45;&gt;n21 -->
<g id="edge23" class="edge">
<title>n22&#45;&gt;n21</title>
<path fill="none" stroke="black" d="M1782.27,-112.96C1762.34,-101.82 1740.1,-89.4 1719.58,-77.93"/>
<polygon fill="black" stroke="black" points="1721.04,-74.74 1710.6,-72.91 1717.62,-80.85 1721.04,-74.74"/>
</g>
<!-- n23 -->
<g id="node25" class="node">
<title>n23</title>
<ellipse fill="#98D2A5" stroke="black" cx="2038.97" cy="-37.48" rx="185.94" ry="37.45"/>
<text text-anchor="middle" x="2038.97" y="-48.78" font-family="Times,serif" font-size="14.00">etarras</text>
<text text-anchor="middle" x="2038.97" y="-33.78" font-family="Times,serif" font-size="14.00">aq0cp0 (amod)</text>
<text text-anchor="middle" x="2038.97" y="-18.78" font-family="Times,serif" font-size="14.00">rep=no, t=no, r=no, m=yes, c=no</text>
</g>
<!-- n22&#45;&gt;n23 -->
<g id="edge24" class="edge">
<title>n22&#45;&gt;n23</title>
<path fill="none" stroke="black" d="M1905.67,-112.96C1925.59,-101.82 1947.84,-89.4 1968.35,-77.93"/>
<polygon fill="black" stroke="black" points="1970.31,-80.85 1977.34,-72.91 1966.9,-74.74 1970.31,-80.85"/>
</g>
<!-- n15 -->
<g id="node27" class="node">
<title>n15</title>
<ellipse fill="#98D2A5" stroke="black" cx="2428.97" cy="-481.29" rx="185.94" ry="37.45"/>
<text text-anchor="middle" x="2428.97" y="-492.59" font-family="Times,serif" font-size="14.00">Matanzas</text>
<text text-anchor="middle" x="2428.97" y="-477.59" font-family="Times,serif" font-size="14.00">np00000 (appos)</text>
<text text-anchor="middle" x="2428.97" y="-462.59" font-family="Times,serif" font-size="14.00">rep=no, t=no, r=no, m=yes, c=no</text>
</g>
<!-- n14&#45;&gt;n15 -->
<g id="edge26" class="edge">
<title>n14&#45;&gt;n15</title>
<path fill="none" stroke="black" d="M2230.5,-558.7C2263.4,-546.03 2301.23,-531.47 2334.99,-518.47"/>
<polygon fill="black" stroke="black" points="2336.32,-521.71 2344.39,-514.85 2333.8,-515.18 2336.32,-521.71"/>
</g>
</g>
</svg>
