<?xml version="1.0" encoding="UTF-8" standalone="no"?>
<!DOCTYPE svg PUBLIC "-//W3C//DTD SVG 1.1//EN"
 "http://www.w3.org/Graphics/SVG/1.1/DTD/svg11.dtd">
<!-- Generated by graphviz version 2.43.0 (0)
 -->
<!-- Title: tree Pages: 1 -->
<svg width="4822pt" height="1525pt"
 viewBox="0.00 0.00 4821.65 1525.35" xmlns="http://www.w3.org/2000/svg" xmlns:xlink="http://www.w3.org/1999/xlink">
<g id="graph0" class="graph" transform="scale(1 1) rotate(0) translate(4 1521.35)">
<title>tree</title>
<polygon fill="white" stroke="transparent" points="-4,4 -4,-1521.35 4817.65,-1521.35 4817.65,4 -4,4"/>
<!-- n6 -->
<g id="node1" class="node">
<title>n6</title>
<ellipse fill="#98D2A5" stroke="black" cx="1344.73" cy="-1479.87" rx="190.84" ry="37.45"/>
<text text-anchor="middle" x="1344.73" y="-1491.17" font-family="Times,serif" font-size="14.00">exhorta</text>
<text text-anchor="middle" x="1344.73" y="-1476.17" font-family="Times,serif" font-size="14.00">vmip3s0 (root)</text>
<text text-anchor="middle" x="1344.73" y="-1461.17" font-family="Times,serif" font-size="14.00">rep=no, t=no, r=yes, m=yes, c=no</text>
</g>
<!-- n1 -->
<g id="node2" class="node">
<title>n1</title>
<ellipse fill="none" stroke="black" cx="181.73" cy="-1368.92" rx="181.95" ry="37.45"/>
<text text-anchor="middle" x="181.73" y="-1380.22" font-family="Times,serif" font-size="14.00">En</text>
<text text-anchor="middle" x="181.73" y="-1365.22" font-family="Times,serif" font-size="14.00">sps00 (prepv)</text>
<text text-anchor="middle" x="181.73" y="-1350.22" font-family="Times,serif" font-size="14.00">rep=no, t=no, r=no, m=no, c=no</text>
</g>
<!-- n6&#45;&gt;n1 -->
<g id="edge1" class="edge">
<title>n6&#45;&gt;n1</title>
<path fill="none" stroke="black" d="M1158.45,-1471.38C962.12,-1462 644.17,-1442.57 371.73,-1406.39 353.95,-1404.03 335.31,-1401.07 316.96,-1397.86"/>
<polygon fill="black" stroke="black" points="317.56,-1394.41 307.1,-1396.1 316.33,-1401.3 317.56,-1394.41"/>
</g>
<!-- n4 -->
<g id="node3" class="node">
<title>n4</title>
<ellipse fill="none" stroke="black" cx="562.73" cy="-1368.92" rx="181.95" ry="37.45"/>
<text text-anchor="middle" x="562.73" y="-1380.22" font-family="Times,serif" font-size="14.00">,</text>
<text text-anchor="middle" x="562.73" y="-1365.22" font-family="Times,serif" font-size="14.00">fc (punct)</text>
<text text-anchor="middle" x="562.73" y="-1350.22" font-family="Times,serif" font-size="14.00">rep=no, t=no, r=no, m=no, c=no</text>
</g>
<!-- n6&#45;&gt;n4 -->
<g id="edge2" class="edge">
<title>n6&#45;&gt;n4</title>
<path fill="none" stroke="black" d="M1178.09,-1461.44C1059.47,-1448.29 896.45,-1428.75 753.73,-1406.39 736.49,-1403.69 718.43,-1400.6 700.58,-1397.37"/>
<polygon fill="black" stroke="black" points="701.16,-1393.92 690.69,-1395.57 699.9,-1400.81 701.16,-1393.92"/>
</g>
<!-- n5 -->
<g id="node4" class="node">
<title>n5</title>
<ellipse fill="#98D2A5" stroke="black" cx="953.73" cy="-1368.92" rx="190.84" ry="37.45"/>
<text text-anchor="middle" x="953.73" y="-1380.22" font-family="Times,serif" font-size="14.00">Garzón</text>
<text text-anchor="middle" x="953.73" y="-1365.22" font-family="Times,serif" font-size="14.00">np00000 (nsubj)</text>
<text text-anchor="middle" x="953.73" y="-1350.22" font-family="Times,serif" font-size="14.00">rep=no, t=yes, r=no, m=yes, c=no</text>
</g>
<!-- n6&#45;&gt;n5 -->
<g id="edge3" class="edge">
<title>n6&#45;&gt;n5</title>
<path fill="none" stroke="black" d="M1237.11,-1448.88C1185.61,-1434.53 1123.83,-1417.32 1071.12,-1402.63"/>
<polygon fill="black" stroke="black" points="1071.96,-1399.23 1061.39,-1399.92 1070.08,-1405.97 1071.96,-1399.23"/>
</g>
<!-- n7 -->
<g id="node5" class="node">
<title>n7</title>
<ellipse fill="none" stroke="black" cx="1344.73" cy="-1368.92" rx="181.95" ry="37.45"/>
<text text-anchor="middle" x="1344.73" y="-1380.22" font-family="Times,serif" font-size="14.00">además</text>
<text text-anchor="middle" x="1344.73" y="-1365.22" font-family="Times,serif" font-size="14.00">rg (advmod)</text>
<text text-anchor="middle" x="1344.73" y="-1350.22" font-family="Times,serif" font-size="14.00">rep=no, t=no, r=no, m=no, c=no</text>
</g>
<!-- n6&#45;&gt;n7 -->
<g id="edge4" class="edge">
<title>n6&#45;&gt;n7</title>
<path fill="none" stroke="black" d="M1344.73,-1442.29C1344.73,-1434.11 1344.73,-1425.33 1344.73,-1416.81"/>
<polygon fill="black" stroke="black" points="1348.23,-1416.59 1344.73,-1406.59 1341.23,-1416.59 1348.23,-1416.59"/>
</g>
<!-- n8 -->
<g id="node6" class="node">
<title>n8</title>
<ellipse fill="#98D2A5" stroke="black" cx="1735.73" cy="-1368.92" rx="190.84" ry="37.45"/>
<text text-anchor="middle" x="1735.73" y="-1380.22" font-family="Times,serif" font-size="14.00">al</text>
<text text-anchor="middle" x="1735.73" y="-1365.22" font-family="Times,serif" font-size="14.00">spcms (dobj)</text>
<text text-anchor="middle" x="1735.73" y="-1350.22" font-family="Times,serif" font-size="14.00">rep=no, t=no, r=yes, m=yes, c=no</text>
</g>
<!-- n6&#45;&gt;n8 -->
<g id="edge5" class="edge">
<title>n6&#45;&gt;n8</title>
<path fill="none" stroke="black" d="M1452.34,-1448.88C1503.85,-1434.53 1565.62,-1417.32 1618.33,-1402.63"/>
<polygon fill="black" stroke="black" points="1619.37,-1405.97 1628.06,-1399.92 1617.49,-1399.23 1619.37,-1405.97"/>
</g>
<!-- n15 -->
<g id="node7" class="node">
<title>n15</title>
<ellipse fill="#98D2A5" stroke="black" cx="2135.73" cy="-1368.92" rx="190.84" ry="37.45"/>
<text text-anchor="middle" x="2135.73" y="-1380.22" font-family="Times,serif" font-size="14.00">a</text>
<text text-anchor="middle" x="2135.73" y="-1365.22" font-family="Times,serif" font-size="14.00">sps00 (oobj)</text>
<text text-anchor="middle" x="2135.73" y="-1350.22" font-family="Times,serif" font-size="14.00">rep=no, t=no, r=yes, m=yes, c=no</text>
</g>
<!-- n6&#45;&gt;n15 -->
<g id="edge6" class="edge">
<title>n6&#45;&gt;n15</title>
<path fill="none" stroke="black" d="M1510.35,-1461.18C1629.03,-1447.86 1792.53,-1428.21 1935.73,-1406.39 1953.69,-1403.66 1972.53,-1400.54 1991.15,-1397.32"/>
<polygon fill="black" stroke="black" points="1991.91,-1400.74 2001.16,-1395.57 1990.71,-1393.84 1991.91,-1400.74"/>
</g>
<!-- n58 -->
<g id="node8" class="node">
<title>n58</title>
<ellipse fill="none" stroke="black" cx="2526.73" cy="-1368.92" rx="181.95" ry="37.45"/>
<text text-anchor="middle" x="2526.73" y="-1380.22" font-family="Times,serif" font-size="14.00">.</text>
<text text-anchor="middle" x="2526.73" y="-1365.22" font-family="Times,serif" font-size="14.00">fp (punct)</text>
<text text-anchor="middle" x="2526.73" y="-1350.22" font-family="Times,serif" font-size="14.00">rep=no, t=no, r=no, m=no, c=no</text>
</g>
<!-- n6&#45;&gt;n58 -->
<g id="edge7" class="edge">
<title>n6&#45;&gt;n58</title>
<path fill="none" stroke="black" d="M1531.22,-1471.67C1730.91,-1462.46 2056.73,-1443.11 2335.73,-1406.39 2353.74,-1404.02 2372.63,-1401.04 2391.22,-1397.8"/>
<polygon fill="black" stroke="black" points="2391.97,-1401.22 2401.2,-1396.03 2390.75,-1394.33 2391.97,-1401.22"/>
</g>
<!-- n3 -->
<g id="node9" class="node">
<title>n3</title>
<ellipse fill="none" stroke="black" cx="181.73" cy="-1257.96" rx="181.95" ry="37.45"/>
<text text-anchor="middle" x="181.73" y="-1269.26" font-family="Times,serif" font-size="14.00">auto</text>
<text text-anchor="middle" x="181.73" y="-1254.26" font-family="Times,serif" font-size="14.00">ncms000 (pobj)</text>
<text text-anchor="middle" x="181.73" y="-1239.26" font-family="Times,serif" font-size="14.00">rep=no, t=no, r=no, m=no, c=no</text>
</g>
<!-- n1&#45;&gt;n3 -->
<g id="edge8" class="edge">
<title>n1&#45;&gt;n3</title>
<path fill="none" stroke="black" d="M181.73,-1331.33C181.73,-1323.16 181.73,-1314.38 181.73,-1305.85"/>
<polygon fill="black" stroke="black" points="185.23,-1305.64 181.73,-1295.64 178.23,-1305.64 185.23,-1305.64"/>
</g>
<!-- n9 -->
<g id="node11" class="node">
<title>n9</title>
<ellipse fill="#98D2A5" stroke="black" cx="1735.73" cy="-1257.96" rx="190.84" ry="37.45"/>
<text text-anchor="middle" x="1735.73" y="-1269.26" font-family="Times,serif" font-size="14.00">Tribunal</text>
<text text-anchor="middle" x="1735.73" y="-1254.26" font-family="Times,serif" font-size="14.00">ncfp000 (pobj)</text>
<text text-anchor="middle" x="1735.73" y="-1239.26" font-family="Times,serif" font-size="14.00">rep=no, t=no, r=yes, m=yes, c=no</text>
</g>
<!-- n8&#45;&gt;n9 -->
<g id="edge10" class="edge">
<title>n8&#45;&gt;n9</title>
<path fill="none" stroke="black" d="M1735.73,-1331.33C1735.73,-1323.16 1735.73,-1314.38 1735.73,-1305.85"/>
<polygon fill="black" stroke="black" points="1739.23,-1305.64 1735.73,-1295.64 1732.23,-1305.64 1739.23,-1305.64"/>
</g>
<!-- n16 -->
<g id="node17" class="node">
<title>n16</title>
<ellipse fill="#98D2A5" stroke="black" cx="2135.73" cy="-1257.96" rx="190.84" ry="37.45"/>
<text text-anchor="middle" x="2135.73" y="-1269.26" font-family="Times,serif" font-size="14.00">que</text>
<text text-anchor="middle" x="2135.73" y="-1254.26" font-family="Times,serif" font-size="14.00">cs (pobj)</text>
<text text-anchor="middle" x="2135.73" y="-1239.26" font-family="Times,serif" font-size="14.00">rep=no, t=no, r=yes, m=yes, c=no</text>
</g>
<!-- n15&#45;&gt;n16 -->
<g id="edge16" class="edge">
<title>n15&#45;&gt;n16</title>
<path fill="none" stroke="black" d="M2135.73,-1331.33C2135.73,-1323.16 2135.73,-1314.38 2135.73,-1305.85"/>
<polygon fill="black" stroke="black" points="2139.23,-1305.64 2135.73,-1295.64 2132.23,-1305.64 2139.23,-1305.64"/>
</g>
<!-- n2 -->
<g id="node10" class="node">
<title>n2</title>
<ellipse fill="none" stroke="black" cx="181.73" cy="-1147.01" rx="181.95" ry="37.45"/>
<text text-anchor="middle" x="181.73" y="-1158.31" font-family="Times,serif" font-size="14.00">el</text>
<text text-anchor="middle" x="181.73" y="-1143.31" font-family="Times,serif" font-size="14.00">da0ms0 (det)</text>
<text text-anchor="middle" x="181.73" y="-1128.31" font-family="Times,serif" font-size="14.00">rep=no, t=no, r=no, m=no, c=no</text>
</g>
<!-- n3&#45;&gt;n2 -->
<g id="edge9" class="edge">
<title>n3&#45;&gt;n2</title>
<path fill="none" stroke="black" d="M181.73,-1220.38C181.73,-1212.21 181.73,-1203.43 181.73,-1194.9"/>
<polygon fill="black" stroke="black" points="185.23,-1194.68 181.73,-1184.68 178.23,-1194.68 185.23,-1194.68"/>
</g>
<!-- n10 -->
<g id="node12" class="node">
<title>n10</title>
<ellipse fill="#98D2A5" stroke="black" cx="1335.73" cy="-1147.01" rx="190.84" ry="37.45"/>
<text text-anchor="middle" x="1335.73" y="-1158.31" font-family="Times,serif" font-size="14.00">Superior</text>
<text text-anchor="middle" x="1335.73" y="-1143.31" font-family="Times,serif" font-size="14.00">ncfp000 (appos)</text>
<text text-anchor="middle" x="1335.73" y="-1128.31" font-family="Times,serif" font-size="14.00">rep=no, t=no, r=yes, m=yes, c=no</text>
</g>
<!-- n9&#45;&gt;n10 -->
<g id="edge11" class="edge">
<title>n9&#45;&gt;n10</title>
<path fill="none" stroke="black" d="M1626.42,-1227.19C1573.29,-1212.72 1509.32,-1195.29 1454.93,-1180.48"/>
<polygon fill="black" stroke="black" points="1455.81,-1177.09 1445.24,-1177.84 1453.97,-1183.85 1455.81,-1177.09"/>
</g>
<!-- n13 -->
<g id="node13" class="node">
<title>n13</title>
<ellipse fill="#98D2A5" stroke="black" cx="1735.73" cy="-1147.01" rx="190.84" ry="37.45"/>
<text text-anchor="middle" x="1735.73" y="-1158.31" font-family="Times,serif" font-size="14.00">de</text>
<text text-anchor="middle" x="1735.73" y="-1143.31" font-family="Times,serif" font-size="14.00">sps00 (prepn)</text>
<text text-anchor="middle" x="1735.73" y="-1128.31" font-family="Times,serif" font-size="14.00">rep=no, t=no, r=yes, m=yes, c=no</text>
</g>
<!-- n9&#45;&gt;n13 -->
<g id="edge12" class="edge">
<title>n9&#45;&gt;n13</title>
<path fill="none" stroke="black" d="M1735.73,-1220.38C1735.73,-1212.21 1735.73,-1203.43 1735.73,-1194.9"/>
<polygon fill="black" stroke="black" points="1739.23,-1194.68 1735.73,-1184.68 1732.23,-1194.68 1739.23,-1194.68"/>
</g>
<!-- n11 -->
<g id="node14" class="node">
<title>n11</title>
<ellipse fill="#98D2A5" stroke="black" cx="1335.73" cy="-1036.06" rx="190.84" ry="37.45"/>
<text text-anchor="middle" x="1335.73" y="-1047.36" font-family="Times,serif" font-size="14.00">de</text>
<text text-anchor="middle" x="1335.73" y="-1032.36" font-family="Times,serif" font-size="14.00">sps00 (prepn)</text>
<text text-anchor="middle" x="1335.73" y="-1017.36" font-family="Times,serif" font-size="14.00">rep=no, t=no, r=yes, m=yes, c=no</text>
</g>
<!-- n10&#45;&gt;n11 -->
<g id="edge13" class="edge">
<title>n10&#45;&gt;n11</title>
<path fill="none" stroke="black" d="M1335.73,-1109.43C1335.73,-1101.25 1335.73,-1092.47 1335.73,-1083.95"/>
<polygon fill="black" stroke="black" points="1339.23,-1083.73 1335.73,-1073.73 1332.23,-1083.73 1339.23,-1083.73"/>
</g>
<!-- n14 -->
<g id="node16" class="node">
<title>n14</title>
<ellipse fill="#98D2A5" stroke="black" cx="1735.73" cy="-1036.06" rx="190.84" ry="37.45"/>
<text text-anchor="middle" x="1735.73" y="-1047.36" font-family="Times,serif" font-size="14.00">Euskadi</text>
<text text-anchor="middle" x="1735.73" y="-1032.36" font-family="Times,serif" font-size="14.00">np00000 (pobj)</text>
<text text-anchor="middle" x="1735.73" y="-1017.36" font-family="Times,serif" font-size="14.00">rep=no, t=no, r=yes, m=yes, c=no</text>
</g>
<!-- n13&#45;&gt;n14 -->
<g id="edge15" class="edge">
<title>n13&#45;&gt;n14</title>
<path fill="none" stroke="black" d="M1735.73,-1109.43C1735.73,-1101.25 1735.73,-1092.47 1735.73,-1083.95"/>
<polygon fill="black" stroke="black" points="1739.23,-1083.73 1735.73,-1073.73 1732.23,-1083.73 1739.23,-1083.73"/>
</g>
<!-- n12 -->
<g id="node15" class="node">
<title>n12</title>
<ellipse fill="#98D2A5" stroke="black" cx="1335.73" cy="-925.1" rx="190.84" ry="37.45"/>
<text text-anchor="middle" x="1335.73" y="-936.4" font-family="Times,serif" font-size="14.00">Justicia</text>
<text text-anchor="middle" x="1335.73" y="-921.4" font-family="Times,serif" font-size="14.00">ncms000 (pobj)</text>
<text text-anchor="middle" x="1335.73" y="-906.4" font-family="Times,serif" font-size="14.00">rep=no, t=no, r=yes, m=yes, c=no</text>
</g>
<!-- n11&#45;&gt;n12 -->
<g id="edge14" class="edge">
<title>n11&#45;&gt;n12</title>
<path fill="none" stroke="black" d="M1335.73,-998.47C1335.73,-990.3 1335.73,-981.52 1335.73,-972.99"/>
<polygon fill="black" stroke="black" points="1339.23,-972.78 1335.73,-962.78 1332.23,-972.78 1339.23,-972.78"/>
</g>
<!-- n17 -->
<g id="node18" class="node">
<title>n17</title>
<ellipse fill="#98D2A5" stroke="black" cx="2135.73" cy="-1147.01" rx="190.84" ry="37.45"/>
<text text-anchor="middle" x="2135.73" y="-1158.31" font-family="Times,serif" font-size="14.00">emprenda</text>
<text text-anchor="middle" x="2135.73" y="-1143.31" font-family="Times,serif" font-size="14.00">vmsp3s0 (cobj)</text>
<text text-anchor="middle" x="2135.73" y="-1128.31" font-family="Times,serif" font-size="14.00">rep=no, t=no, r=yes, m=yes, c=no</text>
</g>
<!-- n16&#45;&gt;n17 -->
<g id="edge17" class="edge">
<title>n16&#45;&gt;n17</title>
<path fill="none" stroke="black" d="M2135.73,-1220.38C2135.73,-1212.21 2135.73,-1203.43 2135.73,-1194.9"/>
<polygon fill="black" stroke="black" points="2139.23,-1194.68 2135.73,-1184.68 2132.23,-1194.68 2139.23,-1194.68"/>
</g>
<!-- n18 -->
<g id="node19" class="node">
<title>n18</title>
<ellipse fill="#98D2A5" stroke="black" cx="2135.73" cy="-1036.06" rx="190.84" ry="37.45"/>
<text text-anchor="middle" x="2135.73" y="-1047.36" font-family="Times,serif" font-size="14.00">acciones</text>
<text text-anchor="middle" x="2135.73" y="-1032.36" font-family="Times,serif" font-size="14.00">ncfp000 (dobj)</text>
<text text-anchor="middle" x="2135.73" y="-1017.36" font-family="Times,serif" font-size="14.00">rep=no, t=no, r=yes, m=yes, c=no</text>
</g>
<!-- n17&#45;&gt;n18 -->
<g id="edge18" class="edge">
<title>n17&#45;&gt;n18</title>
<path fill="none" stroke="black" d="M2135.73,-1109.43C2135.73,-1101.25 2135.73,-1092.47 2135.73,-1083.95"/>
<polygon fill="black" stroke="black" points="2139.23,-1083.73 2135.73,-1073.73 2132.23,-1083.73 2139.23,-1083.73"/>
</g>
<!-- n19 -->
<g id="node20" class="node">
<title>n19</title>
<ellipse fill="#98D2A5" stroke="black" cx="2135.73" cy="-925.1" rx="190.84" ry="37.45"/>
<text text-anchor="middle" x="2135.73" y="-936.4" font-family="Times,serif" font-size="14.00">contra</text>
<text text-anchor="middle" x="2135.73" y="-921.4" font-family="Times,serif" font-size="14.00">sps00 (prepn)</text>
<text text-anchor="middle" x="2135.73" y="-906.4" font-family="Times,serif" font-size="14.00">rep=no, t=no, r=yes, m=yes, c=no</text>
</g>
<!-- n18&#45;&gt;n19 -->
<g id="edge19" class="edge">
<title>n18&#45;&gt;n19</title>
<path fill="none" stroke="black" d="M2135.73,-998.47C2135.73,-990.3 2135.73,-981.52 2135.73,-972.99"/>
<polygon fill="black" stroke="black" points="2139.23,-972.78 2135.73,-962.78 2132.23,-972.78 2139.23,-972.78"/>
</g>
<!-- n21 -->
<g id="node21" class="node">
<title>n21</title>
<ellipse fill="#98D2A5" stroke="black" cx="2135.73" cy="-814.15" rx="190.84" ry="37.45"/>
<text text-anchor="middle" x="2135.73" y="-825.45" font-family="Times,serif" font-size="14.00">parlamentarios</text>
<text text-anchor="middle" x="2135.73" y="-810.45" font-family="Times,serif" font-size="14.00">ncmp000 (pobj)</text>
<text text-anchor="middle" x="2135.73" y="-795.45" font-family="Times,serif" font-size="14.00">rep=no, t=no, r=yes, m=yes, c=no</text>
</g>
<!-- n19&#45;&gt;n21 -->
<g id="edge20" class="edge">
<title>n19&#45;&gt;n21</title>
<path fill="none" stroke="black" d="M2135.73,-887.52C2135.73,-879.35 2135.73,-870.57 2135.73,-862.04"/>
<polygon fill="black" stroke="black" points="2139.23,-861.82 2135.73,-851.82 2132.23,-861.82 2139.23,-861.82"/>
</g>
<!-- n20 -->
<g id="node22" class="node">
<title>n20</title>
<ellipse fill="#98D2A5" stroke="black" cx="1330.73" cy="-703.2" rx="190.84" ry="37.45"/>
<text text-anchor="middle" x="1330.73" y="-714.5" font-family="Times,serif" font-size="14.00">los</text>
<text text-anchor="middle" x="1330.73" y="-699.5" font-family="Times,serif" font-size="14.00">da0mp0 (det)</text>
<text text-anchor="middle" x="1330.73" y="-684.5" font-family="Times,serif" font-size="14.00">rep=no, t=no, r=yes, m=yes, c=no</text>
</g>
<!-- n21&#45;&gt;n20 -->
<g id="edge21" class="edge">
<title>n21&#45;&gt;n20</title>
<path fill="none" stroke="black" d="M1968.76,-795.93C1847.07,-782.7 1678.34,-762.96 1530.73,-740.67 1512.68,-737.95 1493.77,-734.84 1475.07,-731.61"/>
<polygon fill="black" stroke="black" points="1475.47,-728.12 1465.02,-729.85 1474.27,-735.02 1475.47,-728.12"/>
</g>
<!-- n22 -->
<g id="node23" class="node">
<title>n22</title>
<ellipse fill="#98D2A5" stroke="black" cx="1730.73" cy="-703.2" rx="190.84" ry="37.45"/>
<text text-anchor="middle" x="1730.73" y="-714.5" font-family="Times,serif" font-size="14.00">vascos</text>
<text text-anchor="middle" x="1730.73" y="-699.5" font-family="Times,serif" font-size="14.00">aq0mp0 (amod)</text>
<text text-anchor="middle" x="1730.73" y="-684.5" font-family="Times,serif" font-size="14.00">rep=no, t=no, r=yes, m=yes, c=no</text>
</g>
<!-- n21&#45;&gt;n22 -->
<g id="edge22" class="edge">
<title>n21&#45;&gt;n22</title>
<path fill="none" stroke="black" d="M2025.59,-783.52C1971.46,-768.96 1906.11,-751.38 1850.71,-736.47"/>
<polygon fill="black" stroke="black" points="1851.4,-733.04 1840.84,-733.82 1849.58,-739.8 1851.4,-733.04"/>
</g>
<!-- n23 -->
<g id="node24" class="node">
<title>n23</title>
<ellipse fill="#98D2A5" stroke="black" cx="2135.73" cy="-703.2" rx="195.74" ry="37.45"/>
<text text-anchor="middle" x="2135.73" y="-714.5" font-family="Times,serif" font-size="14.00">José</text>
<text text-anchor="middle" x="2135.73" y="-699.5" font-family="Times,serif" font-size="14.00">ncfs000 (dep)</text>
<text text-anchor="middle" x="2135.73" y="-684.5" font-family="Times,serif" font-size="14.00">rep=no, t=no, r=yes, m=yes, c=yes</text>
</g>
<!-- n21&#45;&gt;n23 -->
<g id="edge23" class="edge">
<title>n21&#45;&gt;n23</title>
<path fill="none" stroke="black" d="M2135.73,-776.57C2135.73,-768.39 2135.73,-759.61 2135.73,-751.09"/>
<polygon fill="black" stroke="black" points="2139.23,-750.87 2135.73,-740.87 2132.23,-750.87 2139.23,-750.87"/>
</g>
<!-- n44 -->
<g id="node25" class="node">
<title>n44</title>
<ellipse fill="#98D2A5" stroke="black" cx="2835.73" cy="-703.2" rx="190.84" ry="37.45"/>
<text text-anchor="middle" x="2835.73" y="-714.5" font-family="Times,serif" font-size="14.00">y</text>
<text text-anchor="middle" x="2835.73" y="-699.5" font-family="Times,serif" font-size="14.00">cc (coord_fixed)</text>
<text text-anchor="middle" x="2835.73" y="-684.5" font-family="Times,serif" font-size="14.00">rep=no, t=no, r=yes, m=yes, c=no</text>
</g>
<!-- n21&#45;&gt;n44 -->
<g id="edge24" class="edge">
<title>n21&#45;&gt;n44</title>
<path fill="none" stroke="black" d="M2282.9,-790.24C2398.84,-772.2 2560.12,-747.09 2678.57,-728.66"/>
<polygon fill="black" stroke="black" points="2679.11,-732.12 2688.45,-727.12 2678.03,-725.2 2679.11,-732.12"/>
</g>
<!-- n45 -->
<g id="node26" class="node">
<title>n45</title>
<ellipse fill="#98D2A5" stroke="black" cx="3435.73" cy="-703.2" rx="195.74" ry="37.45"/>
<text text-anchor="middle" x="3435.73" y="-714.5" font-family="Times,serif" font-size="14.00">Jon</text>
<text text-anchor="middle" x="3435.73" y="-699.5" font-family="Times,serif" font-size="14.00">np0000l (dep)</text>
<text text-anchor="middle" x="3435.73" y="-684.5" font-family="Times,serif" font-size="14.00">rep=no, t=no, r=yes, m=yes, c=yes</text>
</g>
<!-- n21&#45;&gt;n45 -->
<g id="edge25" class="edge">
<title>n21&#45;&gt;n45</title>
<path fill="none" stroke="black" d="M2311.68,-799.53C2493.13,-785.36 2784.27,-762.26 3035.73,-740.67 3106.11,-734.63 3183.42,-727.66 3251.16,-721.44"/>
<polygon fill="black" stroke="black" points="3251.88,-724.89 3261.51,-720.49 3251.23,-717.92 3251.88,-724.89"/>
</g>
<!-- n24 -->
<g id="node27" class="node">
<title>n24</title>
<ellipse fill="#98D2A5" stroke="black" cx="935.73" cy="-592.24" rx="190.84" ry="37.45"/>
<text text-anchor="middle" x="935.73" y="-603.54" font-family="Times,serif" font-size="14.00">Antonio</text>
<text text-anchor="middle" x="935.73" y="-588.54" font-family="Times,serif" font-size="14.00">ncms000 (appos)</text>
<text text-anchor="middle" x="935.73" y="-573.54" font-family="Times,serif" font-size="14.00">rep=no, t=no, r=yes, m=yes, c=no</text>
</g>
<!-- n23&#45;&gt;n24 -->
<g id="edge26" class="edge">
<title>n23&#45;&gt;n24</title>
<path fill="none" stroke="black" d="M2001.84,-675.78C1978.22,-671.86 1953.81,-668.29 1930.73,-665.72 1579.19,-626.66 1487.17,-669.54 1135.73,-629.72 1116.38,-627.53 1096.07,-624.59 1076.13,-621.32"/>
<polygon fill="black" stroke="black" points="1076.5,-617.83 1066.06,-619.64 1075.35,-624.74 1076.5,-617.83"/>
</g>
<!-- n26 -->
<g id="node28" class="node">
<title>n26</title>
<ellipse fill="#98D2A5" stroke="black" cx="1335.73" cy="-592.24" rx="190.84" ry="37.45"/>
<text text-anchor="middle" x="1335.73" y="-603.54" font-family="Times,serif" font-size="14.00">,</text>
<text text-anchor="middle" x="1335.73" y="-588.54" font-family="Times,serif" font-size="14.00">fc (punct)</text>
<text text-anchor="middle" x="1335.73" y="-573.54" font-family="Times,serif" font-size="14.00">rep=no, t=no, r=yes, m=yes, c=no</text>
</g>
<!-- n23&#45;&gt;n26 -->
<g id="edge27" class="edge">
<title>n23&#45;&gt;n26</title>
<path fill="none" stroke="black" d="M1999.24,-676.24C1976.42,-672.38 1952.94,-668.7 1930.73,-665.72 1756.01,-642.26 1710.39,-653.56 1535.73,-629.72 1517.19,-627.19 1497.75,-624.14 1478.58,-620.9"/>
<polygon fill="black" stroke="black" points="1479.04,-617.43 1468.59,-619.19 1477.86,-624.33 1479.04,-617.43"/>
</g>
<!-- n27 -->
<g id="node29" class="node">
<title>n27</title>
<ellipse fill="#98D2A5" stroke="black" cx="1735.73" cy="-592.24" rx="190.84" ry="37.45"/>
<text text-anchor="middle" x="1735.73" y="-603.54" font-family="Times,serif" font-size="14.00">Josu</text>
<text text-anchor="middle" x="1735.73" y="-588.54" font-family="Times,serif" font-size="14.00">np00000 (appos)</text>
<text text-anchor="middle" x="1735.73" y="-573.54" font-family="Times,serif" font-size="14.00">rep=no, t=no, r=yes, m=yes, c=no</text>
</g>
<!-- n23&#45;&gt;n27 -->
<g id="edge28" class="edge">
<title>n23&#45;&gt;n27</title>
<path fill="none" stroke="black" d="M2025.37,-672.14C1972.47,-657.73 1909.02,-640.44 1855,-625.73"/>
<polygon fill="black" stroke="black" points="1855.6,-622.27 1845.03,-623.02 1853.76,-629.02 1855.6,-622.27"/>
</g>
<!-- n29 -->
<g id="node30" class="node">
<title>n29</title>
<ellipse fill="#98D2A5" stroke="black" cx="2135.73" cy="-592.24" rx="190.84" ry="37.45"/>
<text text-anchor="middle" x="2135.73" y="-603.54" font-family="Times,serif" font-size="14.00">,</text>
<text text-anchor="middle" x="2135.73" y="-588.54" font-family="Times,serif" font-size="14.00">fc (punct)</text>
<text text-anchor="middle" x="2135.73" y="-573.54" font-family="Times,serif" font-size="14.00">rep=no, t=no, r=yes, m=yes, c=no</text>
</g>
<!-- n23&#45;&gt;n29 -->
<g id="edge29" class="edge">
<title>n23&#45;&gt;n29</title>
<path fill="none" stroke="black" d="M2135.73,-665.61C2135.73,-657.44 2135.73,-648.66 2135.73,-640.13"/>
<polygon fill="black" stroke="black" points="2139.23,-639.92 2135.73,-629.92 2132.23,-639.92 2139.23,-639.92"/>
</g>
<!-- n32 -->
<g id="node31" class="node">
<title>n32</title>
<ellipse fill="#98D2A5" stroke="black" cx="2535.73" cy="-592.24" rx="190.84" ry="37.45"/>
<text text-anchor="middle" x="2535.73" y="-603.54" font-family="Times,serif" font-size="14.00">considera</text>
<text text-anchor="middle" x="2535.73" y="-588.54" font-family="Times,serif" font-size="14.00">vmip3s0 (dep)</text>
<text text-anchor="middle" x="2535.73" y="-573.54" font-family="Times,serif" font-size="14.00">rep=no, t=no, r=yes, m=yes, c=no</text>
</g>
<!-- n23&#45;&gt;n32 -->
<g id="edge30" class="edge">
<title>n23&#45;&gt;n32</title>
<path fill="none" stroke="black" d="M2246.09,-672.14C2298.99,-657.73 2362.44,-640.44 2416.45,-625.73"/>
<polygon fill="black" stroke="black" points="2417.69,-629.02 2426.42,-623.02 2415.85,-622.27 2417.69,-629.02"/>
</g>
<!-- n43 -->
<g id="node46" class="node">
<title>n43</title>
<ellipse fill="#98D2A5" stroke="black" cx="2935.73" cy="-592.24" rx="190.84" ry="37.45"/>
<text text-anchor="middle" x="2935.73" y="-603.54" font-family="Times,serif" font-size="14.00">,</text>
<text text-anchor="middle" x="2935.73" y="-588.54" font-family="Times,serif" font-size="14.00">fc (punct)</text>
<text text-anchor="middle" x="2935.73" y="-573.54" font-family="Times,serif" font-size="14.00">rep=no, t=no, r=yes, m=yes, c=no</text>
</g>
<!-- n44&#45;&gt;n43 -->
<g id="edge45" class="edge">
<title>n44&#45;&gt;n43</title>
<path fill="none" stroke="black" d="M2868.75,-666.22C2877.45,-656.74 2886.93,-646.4 2895.95,-636.58"/>
<polygon fill="black" stroke="black" points="2898.56,-638.92 2902.74,-629.18 2893.4,-634.18 2898.56,-638.92"/>
</g>
<!-- n46 -->
<g id="node47" class="node">
<title>n46</title>
<ellipse fill="#98D2A5" stroke="black" cx="3335.73" cy="-592.24" rx="190.84" ry="37.45"/>
<text text-anchor="middle" x="3335.73" y="-603.54" font-family="Times,serif" font-size="14.00">Salaberria</text>
<text text-anchor="middle" x="3335.73" y="-588.54" font-family="Times,serif" font-size="14.00">np0000l (appos)</text>
<text text-anchor="middle" x="3335.73" y="-573.54" font-family="Times,serif" font-size="14.00">rep=no, t=no, r=yes, m=yes, c=no</text>
</g>
<!-- n45&#45;&gt;n46 -->
<g id="edge46" class="edge">
<title>n45&#45;&gt;n46</title>
<path fill="none" stroke="black" d="M3402.71,-666.22C3394,-656.74 3384.52,-646.4 3375.5,-636.58"/>
<polygon fill="black" stroke="black" points="3378.05,-634.18 3368.71,-629.18 3372.9,-638.92 3378.05,-634.18"/>
</g>
<!-- n47 -->
<g id="node48" class="node">
<title>n47</title>
<ellipse fill="#98D2A5" stroke="black" cx="3735.73" cy="-592.24" rx="190.84" ry="37.45"/>
<text text-anchor="middle" x="3735.73" y="-603.54" font-family="Times,serif" font-size="14.00">,</text>
<text text-anchor="middle" x="3735.73" y="-588.54" font-family="Times,serif" font-size="14.00">fc (punct)</text>
<text text-anchor="middle" x="3735.73" y="-573.54" font-family="Times,serif" font-size="14.00">rep=no, t=no, r=yes, m=yes, c=no</text>
</g>
<!-- n45&#45;&gt;n47 -->
<g id="edge47" class="edge">
<title>n45&#45;&gt;n47</title>
<path fill="none" stroke="black" d="M3524.92,-669.8C3560.28,-656.96 3601.06,-642.15 3637.28,-629"/>
<polygon fill="black" stroke="black" points="3638.67,-632.22 3646.87,-625.51 3636.28,-625.64 3638.67,-632.22"/>
</g>
<!-- n50 -->
<g id="node49" class="node">
<title>n50</title>
<ellipse fill="#98D2A5" stroke="black" cx="4135.73" cy="-592.24" rx="190.84" ry="37.45"/>
<text text-anchor="middle" x="4135.73" y="-603.54" font-family="Times,serif" font-size="14.00">señala</text>
<text text-anchor="middle" x="4135.73" y="-588.54" font-family="Times,serif" font-size="14.00">vmip3s0 (dep)</text>
<text text-anchor="middle" x="4135.73" y="-573.54" font-family="Times,serif" font-size="14.00">rep=no, t=no, r=yes, m=yes, c=no</text>
</g>
<!-- n45&#45;&gt;n50 -->
<g id="edge48" class="edge">
<title>n45&#45;&gt;n50</title>
<path fill="none" stroke="black" d="M3593.31,-680.85C3691.86,-667.14 3821.36,-648.43 3935.73,-629.72 3953.37,-626.83 3971.86,-623.66 3990.17,-620.43"/>
<polygon fill="black" stroke="black" points="3990.78,-623.88 4000.02,-618.68 3989.56,-616.98 3990.78,-623.88"/>
</g>
<!-- n25 -->
<g id="node32" class="node">
<title>n25</title>
<ellipse fill="#98D2A5" stroke="black" cx="935.73" cy="-481.29" rx="190.84" ry="37.45"/>
<text text-anchor="middle" x="935.73" y="-492.59" font-family="Times,serif" font-size="14.00">Urrutikoetxea</text>
<text text-anchor="middle" x="935.73" y="-477.59" font-family="Times,serif" font-size="14.00">np00000 (appos)</text>
<text text-anchor="middle" x="935.73" y="-462.59" font-family="Times,serif" font-size="14.00">rep=no, t=no, r=yes, m=yes, c=no</text>
</g>
<!-- n24&#45;&gt;n25 -->
<g id="edge31" class="edge">
<title>n24&#45;&gt;n25</title>
<path fill="none" stroke="black" d="M935.73,-554.66C935.73,-546.49 935.73,-537.71 935.73,-529.18"/>
<polygon fill="black" stroke="black" points="939.23,-528.96 935.73,-518.96 932.23,-528.96 939.23,-528.96"/>
</g>
<!-- n28 -->
<g id="node33" class="node">
<title>n28</title>
<ellipse fill="#98D2A5" stroke="black" cx="1735.73" cy="-481.29" rx="190.84" ry="37.45"/>
<text text-anchor="middle" x="1735.73" y="-492.59" font-family="Times,serif" font-size="14.00">Ternera</text>
<text text-anchor="middle" x="1735.73" y="-477.59" font-family="Times,serif" font-size="14.00">ncms000 (appos)</text>
<text text-anchor="middle" x="1735.73" y="-462.59" font-family="Times,serif" font-size="14.00">rep=no, t=no, r=yes, m=yes, c=no</text>
</g>
<!-- n27&#45;&gt;n28 -->
<g id="edge32" class="edge">
<title>n27&#45;&gt;n28</title>
<path fill="none" stroke="black" d="M1735.73,-554.66C1735.73,-546.49 1735.73,-537.71 1735.73,-529.18"/>
<polygon fill="black" stroke="black" points="1739.23,-528.96 1735.73,-518.96 1732.23,-528.96 1739.23,-528.96"/>
</g>
<!-- n30 -->
<g id="node34" class="node">
<title>n30</title>
<ellipse fill="#98D2A5" stroke="black" cx="2197.73" cy="-481.29" rx="190.84" ry="37.45"/>
<text text-anchor="middle" x="2197.73" y="-492.59" font-family="Times,serif" font-size="14.00">a</text>
<text text-anchor="middle" x="2197.73" y="-477.59" font-family="Times,serif" font-size="14.00">sps00 (dobj)</text>
<text text-anchor="middle" x="2197.73" y="-462.59" font-family="Times,serif" font-size="14.00">rep=no, t=no, r=yes, m=yes, c=no</text>
</g>
<!-- n32&#45;&gt;n30 -->
<g id="edge33" class="edge">
<title>n32&#45;&gt;n30</title>
<path fill="none" stroke="black" d="M2438.42,-559.88C2396.53,-546.37 2347.44,-530.55 2304.55,-516.73"/>
<polygon fill="black" stroke="black" points="2305.53,-513.36 2294.93,-513.62 2303.38,-520.02 2305.53,-513.36"/>
</g>
<!-- n35 -->
<g id="node35" class="node">
<title>n35</title>
<ellipse fill="#98D2A5" stroke="black" cx="2722.73" cy="-481.29" rx="190.84" ry="37.45"/>
<text text-anchor="middle" x="2722.73" y="-492.59" font-family="Times,serif" font-size="14.00">cargo</text>
<text text-anchor="middle" x="2722.73" y="-477.59" font-family="Times,serif" font-size="14.00">ncms000 (dobj)</text>
<text text-anchor="middle" x="2722.73" y="-462.59" font-family="Times,serif" font-size="14.00">rep=no, t=no, r=yes, m=yes, c=no</text>
</g>
<!-- n32&#45;&gt;n35 -->
<g id="edge34" class="edge">
<title>n32&#45;&gt;n35</title>
<path fill="none" stroke="black" d="M2595.15,-556.62C2613.98,-545.65 2634.94,-533.44 2654.34,-522.13"/>
<polygon fill="black" stroke="black" points="2656.26,-525.07 2663.14,-517.01 2652.73,-519.02 2656.26,-525.07"/>
</g>
<!-- n31 -->
<g id="node36" class="node">
<title>n31</title>
<ellipse fill="#98D2A5" stroke="black" cx="1922.73" cy="-370.34" rx="190.84" ry="37.45"/>
<text text-anchor="middle" x="1922.73" y="-381.64" font-family="Times,serif" font-size="14.00">quien</text>
<text text-anchor="middle" x="1922.73" y="-366.64" font-family="Times,serif" font-size="14.00">pr0cs000 (pobj)</text>
<text text-anchor="middle" x="1922.73" y="-351.64" font-family="Times,serif" font-size="14.00">rep=no, t=no, r=yes, m=yes, c=no</text>
</g>
<!-- n30&#45;&gt;n31 -->
<g id="edge35" class="edge">
<title>n30&#45;&gt;n31</title>
<path fill="none" stroke="black" d="M2114.84,-447.45C2083.47,-435.02 2047.56,-420.79 2015.34,-408.03"/>
<polygon fill="black" stroke="black" points="2016.5,-404.72 2005.91,-404.29 2013.92,-411.23 2016.5,-404.72"/>
</g>
<!-- n33 -->
<g id="node37" class="node">
<title>n33</title>
<ellipse fill="#98D2A5" stroke="black" cx="2322.73" cy="-370.34" rx="190.84" ry="37.45"/>
<text text-anchor="middle" x="2322.73" y="-381.64" font-family="Times,serif" font-size="14.00">el</text>
<text text-anchor="middle" x="2322.73" y="-366.64" font-family="Times,serif" font-size="14.00">da0ms0 (det)</text>
<text text-anchor="middle" x="2322.73" y="-351.64" font-family="Times,serif" font-size="14.00">rep=no, t=no, r=yes, m=yes, c=no</text>
</g>
<!-- n35&#45;&gt;n33 -->
<g id="edge36" class="edge">
<title>n35&#45;&gt;n33</title>
<path fill="none" stroke="black" d="M2613.42,-450.52C2560.29,-436.04 2496.32,-418.62 2441.93,-403.81"/>
<polygon fill="black" stroke="black" points="2442.81,-400.42 2432.24,-401.17 2440.97,-407.17 2442.81,-400.42"/>
</g>
<!-- n34 -->
<g id="node38" class="node">
<title>n34</title>
<ellipse fill="#98D2A5" stroke="black" cx="2722.73" cy="-370.34" rx="190.84" ry="37.45"/>
<text text-anchor="middle" x="2722.73" y="-381.64" font-family="Times,serif" font-size="14.00">máximo</text>
<text text-anchor="middle" x="2722.73" y="-366.64" font-family="Times,serif" font-size="14.00">aq0ms0 (amod)</text>
<text text-anchor="middle" x="2722.73" y="-351.64" font-family="Times,serif" font-size="14.00">rep=no, t=no, r=yes, m=yes, c=no</text>
</g>
<!-- n35&#45;&gt;n34 -->
<g id="edge37" class="edge">
<title>n35&#45;&gt;n34</title>
<path fill="none" stroke="black" d="M2722.73,-443.71C2722.73,-435.53 2722.73,-426.75 2722.73,-418.23"/>
<polygon fill="black" stroke="black" points="2726.23,-418.01 2722.73,-408.01 2719.23,-418.01 2726.23,-418.01"/>
</g>
<!-- n36 -->
<g id="node39" class="node">
<title>n36</title>
<ellipse fill="#98D2A5" stroke="black" cx="3122.73" cy="-370.34" rx="190.84" ry="37.45"/>
<text text-anchor="middle" x="3122.73" y="-381.64" font-family="Times,serif" font-size="14.00">de</text>
<text text-anchor="middle" x="3122.73" y="-366.64" font-family="Times,serif" font-size="14.00">sps00 (prepn)</text>
<text text-anchor="middle" x="3122.73" y="-351.64" font-family="Times,serif" font-size="14.00">rep=no, t=no, r=yes, m=yes, c=no</text>
</g>
<!-- n35&#45;&gt;n36 -->
<g id="edge38" class="edge">
<title>n35&#45;&gt;n36</title>
<path fill="none" stroke="black" d="M2832.03,-450.52C2885.16,-436.04 2949.13,-418.62 3003.52,-403.81"/>
<polygon fill="black" stroke="black" points="3004.48,-407.17 3013.21,-401.17 3002.64,-400.42 3004.48,-407.17"/>
</g>
<!-- n38 -->
<g id="node40" class="node">
<title>n38</title>
<ellipse fill="#98D2A5" stroke="black" cx="3522.73" cy="-370.34" rx="190.84" ry="37.45"/>
<text text-anchor="middle" x="3522.73" y="-381.64" font-family="Times,serif" font-size="14.00">en</text>
<text text-anchor="middle" x="3522.73" y="-366.64" font-family="Times,serif" font-size="14.00">sps00 (prepn)</text>
<text text-anchor="middle" x="3522.73" y="-351.64" font-family="Times,serif" font-size="14.00">rep=no, t=no, r=yes, m=yes, c=no</text>
</g>
<!-- n35&#45;&gt;n38 -->
<g id="edge39" class="edge">
<title>n35&#45;&gt;n38</title>
<path fill="none" stroke="black" d="M2889.27,-462.89C3009.88,-449.63 3176.71,-429.93 3322.73,-407.81 3340.77,-405.08 3359.68,-401.96 3378.38,-398.73"/>
<polygon fill="black" stroke="black" points="3379.19,-402.14 3388.44,-396.98 3377.98,-395.25 3379.19,-402.14"/>
</g>
<!-- n37 -->
<g id="node41" class="node">
<title>n37</title>
<ellipse fill="#98D2A5" stroke="black" cx="3122.73" cy="-259.38" rx="190.84" ry="37.45"/>
<text text-anchor="middle" x="3122.73" y="-270.68" font-family="Times,serif" font-size="14.00">Ekin</text>
<text text-anchor="middle" x="3122.73" y="-255.68" font-family="Times,serif" font-size="14.00">np00000 (pobj)</text>
<text text-anchor="middle" x="3122.73" y="-240.68" font-family="Times,serif" font-size="14.00">rep=no, t=no, r=yes, m=yes, c=no</text>
</g>
<!-- n36&#45;&gt;n37 -->
<g id="edge40" class="edge">
<title>n36&#45;&gt;n37</title>
<path fill="none" stroke="black" d="M3122.73,-332.75C3122.73,-324.58 3122.73,-315.8 3122.73,-307.27"/>
<polygon fill="black" stroke="black" points="3126.23,-307.06 3122.73,-297.06 3119.23,-307.06 3126.23,-307.06"/>
</g>
<!-- n40 -->
<g id="node42" class="node">
<title>n40</title>
<ellipse fill="#98D2A5" stroke="black" cx="3522.73" cy="-259.38" rx="190.84" ry="37.45"/>
<text text-anchor="middle" x="3522.73" y="-270.68" font-family="Times,serif" font-size="14.00">interior</text>
<text text-anchor="middle" x="3522.73" y="-255.68" font-family="Times,serif" font-size="14.00">ncms000 (pobj)</text>
<text text-anchor="middle" x="3522.73" y="-240.68" font-family="Times,serif" font-size="14.00">rep=no, t=no, r=yes, m=yes, c=no</text>
</g>
<!-- n38&#45;&gt;n40 -->
<g id="edge41" class="edge">
<title>n38&#45;&gt;n40</title>
<path fill="none" stroke="black" d="M3522.73,-332.75C3522.73,-324.58 3522.73,-315.8 3522.73,-307.27"/>
<polygon fill="black" stroke="black" points="3526.23,-307.06 3522.73,-297.06 3519.23,-307.06 3526.23,-307.06"/>
</g>
<!-- n39 -->
<g id="node43" class="node">
<title>n39</title>
<ellipse fill="#98D2A5" stroke="black" cx="3222.73" cy="-148.43" rx="190.84" ry="37.45"/>
<text text-anchor="middle" x="3222.73" y="-159.73" font-family="Times,serif" font-size="14.00">el</text>
<text text-anchor="middle" x="3222.73" y="-144.73" font-family="Times,serif" font-size="14.00">da0ms0 (det)</text>
<text text-anchor="middle" x="3222.73" y="-129.73" font-family="Times,serif" font-size="14.00">rep=no, t=no, r=yes, m=yes, c=no</text>
</g>
<!-- n40&#45;&gt;n39 -->
<g id="edge42" class="edge">
<title>n40&#45;&gt;n39</title>
<path fill="none" stroke="black" d="M3433.93,-226.14C3398.49,-213.26 3357.53,-198.39 3321.18,-185.19"/>
<polygon fill="black" stroke="black" points="3322.14,-181.81 3311.55,-181.69 3319.75,-188.39 3322.14,-181.81"/>
</g>
<!-- n41 -->
<g id="node44" class="node">
<title>n41</title>
<ellipse fill="#98D2A5" stroke="black" cx="3622.73" cy="-148.43" rx="190.84" ry="37.45"/>
<text text-anchor="middle" x="3622.73" y="-159.73" font-family="Times,serif" font-size="14.00">de</text>
<text text-anchor="middle" x="3622.73" y="-144.73" font-family="Times,serif" font-size="14.00">sps00 (prepn)</text>
<text text-anchor="middle" x="3622.73" y="-129.73" font-family="Times,serif" font-size="14.00">rep=no, t=no, r=yes, m=yes, c=no</text>
</g>
<!-- n40&#45;&gt;n41 -->
<g id="edge43" class="edge">
<title>n40&#45;&gt;n41</title>
<path fill="none" stroke="black" d="M3555.75,-222.41C3564.45,-212.92 3573.93,-202.59 3582.95,-192.76"/>
<polygon fill="black" stroke="black" points="3585.56,-195.1 3589.74,-185.37 3580.4,-190.37 3585.56,-195.1"/>
</g>
<!-- n42 -->
<g id="node45" class="node">
<title>n42</title>
<ellipse fill="#98D2A5" stroke="black" cx="3622.73" cy="-37.48" rx="190.84" ry="37.45"/>
<text text-anchor="middle" x="3622.73" y="-48.78" font-family="Times,serif" font-size="14.00">España</text>
<text text-anchor="middle" x="3622.73" y="-33.78" font-family="Times,serif" font-size="14.00">np00000 (pobj)</text>
<text text-anchor="middle" x="3622.73" y="-18.78" font-family="Times,serif" font-size="14.00">rep=no, t=no, r=yes, m=yes, c=no</text>
</g>
<!-- n41&#45;&gt;n42 -->
<g id="edge44" class="edge">
<title>n41&#45;&gt;n42</title>
<path fill="none" stroke="black" d="M3622.73,-110.85C3622.73,-102.67 3622.73,-93.89 3622.73,-85.37"/>
<polygon fill="black" stroke="black" points="3626.23,-85.15 3622.73,-75.15 3619.23,-85.15 3626.23,-85.15"/>
</g>
<!-- n48 -->
<g id="node50" class="node">
<title>n48</title>
<ellipse fill="#98D2A5" stroke="black" cx="4072.73" cy="-481.29" rx="190.84" ry="37.45"/>
<text text-anchor="middle" x="4072.73" y="-492.59" font-family="Times,serif" font-size="14.00">al</text>
<text text-anchor="middle" x="4072.73" y="-477.59" font-family="Times,serif" font-size="14.00">spcms (dobj)</text>
<text text-anchor="middle" x="4072.73" y="-462.59" font-family="Times,serif" font-size="14.00">rep=no, t=no, r=yes, m=yes, c=no</text>
</g>
<!-- n50&#45;&gt;n48 -->
<g id="edge49" class="edge">
<title>n50&#45;&gt;n48</title>
<path fill="none" stroke="black" d="M4114.75,-554.96C4109.7,-546.23 4104.25,-536.8 4098.99,-527.72"/>
<polygon fill="black" stroke="black" points="4101.86,-525.69 4093.83,-518.78 4095.8,-529.19 4101.86,-525.69"/>
</g>
<!-- n51 -->
<g id="node51" class="node">
<title>n51</title>
<ellipse fill="#98D2A5" stroke="black" cx="4472.73" cy="-481.29" rx="190.84" ry="37.45"/>
<text text-anchor="middle" x="4472.73" y="-492.59" font-family="Times,serif" font-size="14.00">como</text>
<text text-anchor="middle" x="4472.73" y="-477.59" font-family="Times,serif" font-size="14.00">cs (cpred)</text>
<text text-anchor="middle" x="4472.73" y="-462.59" font-family="Times,serif" font-size="14.00">rep=no, t=no, r=yes, m=yes, c=no</text>
</g>
<!-- n50&#45;&gt;n51 -->
<g id="edge50" class="edge">
<title>n50&#45;&gt;n51</title>
<path fill="none" stroke="black" d="M4232.75,-559.88C4274.51,-546.37 4323.46,-530.55 4366.22,-516.73"/>
<polygon fill="black" stroke="black" points="4367.37,-520.03 4375.81,-513.62 4365.21,-513.37 4367.37,-520.03"/>
</g>
<!-- n49 -->
<g id="node52" class="node">
<title>n49</title>
<ellipse fill="#98D2A5" stroke="black" cx="4072.73" cy="-370.34" rx="190.84" ry="37.45"/>
<text text-anchor="middle" x="4072.73" y="-381.64" font-family="Times,serif" font-size="14.00">que</text>
<text text-anchor="middle" x="4072.73" y="-366.64" font-family="Times,serif" font-size="14.00">pr0cn000 (pobj)</text>
<text text-anchor="middle" x="4072.73" y="-351.64" font-family="Times,serif" font-size="14.00">rep=no, t=no, r=yes, m=yes, c=no</text>
</g>
<!-- n48&#45;&gt;n49 -->
<g id="edge51" class="edge">
<title>n48&#45;&gt;n49</title>
<path fill="none" stroke="black" d="M4072.73,-443.71C4072.73,-435.53 4072.73,-426.75 4072.73,-418.23"/>
<polygon fill="black" stroke="black" points="4076.23,-418.01 4072.73,-408.01 4069.23,-418.01 4076.23,-418.01"/>
</g>
<!-- n52 -->
<g id="node53" class="node">
<title>n52</title>
<ellipse fill="#98D2A5" stroke="black" cx="4472.73" cy="-370.34" rx="190.84" ry="37.45"/>
<text text-anchor="middle" x="4472.73" y="-381.64" font-family="Times,serif" font-size="14.00">responsable</text>
<text text-anchor="middle" x="4472.73" y="-366.64" font-family="Times,serif" font-size="14.00">nccs000 (cobj)</text>
<text text-anchor="middle" x="4472.73" y="-351.64" font-family="Times,serif" font-size="14.00">rep=no, t=no, r=yes, m=yes, c=no</text>
</g>
<!-- n51&#45;&gt;n52 -->
<g id="edge52" class="edge">
<title>n51&#45;&gt;n52</title>
<path fill="none" stroke="black" d="M4472.73,-443.71C4472.73,-435.53 4472.73,-426.75 4472.73,-418.23"/>
<polygon fill="black" stroke="black" points="4476.23,-418.01 4472.73,-408.01 4469.23,-418.01 4476.23,-418.01"/>
</g>
<!-- n53 -->
<g id="node54" class="node">
<title>n53</title>
<ellipse fill="#98D2A5" stroke="black" cx="4222.73" cy="-259.38" rx="190.84" ry="37.45"/>
<text text-anchor="middle" x="4222.73" y="-270.68" font-family="Times,serif" font-size="14.00">de</text>
<text text-anchor="middle" x="4222.73" y="-255.68" font-family="Times,serif" font-size="14.00">sps00 (prepn)</text>
<text text-anchor="middle" x="4222.73" y="-240.68" font-family="Times,serif" font-size="14.00">rep=no, t=no, r=yes, m=yes, c=no</text>
</g>
<!-- n52&#45;&gt;n53 -->
<g id="edge53" class="edge">
<title>n52&#45;&gt;n53</title>
<path fill="none" stroke="black" d="M4396.02,-335.91C4368.42,-323.88 4337.12,-310.24 4308.78,-297.88"/>
<polygon fill="black" stroke="black" points="4309.85,-294.54 4299.29,-293.75 4307.06,-300.95 4309.85,-294.54"/>
</g>
<!-- n56 -->
<g id="node55" class="node">
<title>n56</title>
<ellipse fill="#98D2A5" stroke="black" cx="4622.73" cy="-259.38" rx="190.84" ry="37.45"/>
<text text-anchor="middle" x="4622.73" y="-270.68" font-family="Times,serif" font-size="14.00">en</text>
<text text-anchor="middle" x="4622.73" y="-255.68" font-family="Times,serif" font-size="14.00">sps00 (prepn)</text>
<text text-anchor="middle" x="4622.73" y="-240.68" font-family="Times,serif" font-size="14.00">rep=no, t=no, r=yes, m=yes, c=no</text>
</g>
<!-- n52&#45;&gt;n56 -->
<g id="edge54" class="edge">
<title>n52&#45;&gt;n56</title>
<path fill="none" stroke="black" d="M4521.43,-333.96C4535.51,-323.73 4551.02,-312.47 4565.57,-301.9"/>
<polygon fill="black" stroke="black" points="4567.98,-304.47 4574.01,-295.77 4563.87,-298.81 4567.98,-304.47"/>
</g>
<!-- n55 -->
<g id="node56" class="node">
<title>n55</title>
<ellipse fill="#98D2A5" stroke="black" cx="4222.73" cy="-148.43" rx="190.84" ry="37.45"/>
<text text-anchor="middle" x="4222.73" y="-159.73" font-family="Times,serif" font-size="14.00">organización</text>
<text text-anchor="middle" x="4222.73" y="-144.73" font-family="Times,serif" font-size="14.00">ncfs000 (pobj)</text>
<text text-anchor="middle" x="4222.73" y="-129.73" font-family="Times,serif" font-size="14.00">rep=no, t=no, r=yes, m=yes, c=no</text>
</g>
<!-- n53&#45;&gt;n55 -->
<g id="edge55" class="edge">
<title>n53&#45;&gt;n55</title>
<path fill="none" stroke="black" d="M4222.73,-221.8C4222.73,-213.63 4222.73,-204.85 4222.73,-196.32"/>
<polygon fill="black" stroke="black" points="4226.23,-196.1 4222.73,-186.1 4219.23,-196.1 4226.23,-196.1"/>
</g>
<!-- n57 -->
<g id="node58" class="node">
<title>n57</title>
<ellipse fill="#98D2A5" stroke="black" cx="4622.73" cy="-148.43" rx="190.84" ry="37.45"/>
<text text-anchor="middle" x="4622.73" y="-159.73" font-family="Times,serif" font-size="14.00">Guipúzcoa</text>
<text text-anchor="middle" x="4622.73" y="-144.73" font-family="Times,serif" font-size="14.00">np00000 (pobj)</text>
<text text-anchor="middle" x="4622.73" y="-129.73" font-family="Times,serif" font-size="14.00">rep=no, t=no, r=yes, m=yes, c=no</text>
</g>
<!-- n56&#45;&gt;n57 -->
<g id="edge57" class="edge">
<title>n56&#45;&gt;n57</title>
<path fill="none" stroke="black" d="M4622.73,-221.8C4622.73,-213.63 4622.73,-204.85 4622.73,-196.32"/>
<polygon fill="black" stroke="black" points="4626.23,-196.1 4622.73,-186.1 4619.23,-196.1 4626.23,-196.1"/>
</g>
<!-- n54 -->
<g id="node57" class="node">
<title>n54</title>
<ellipse fill="#98D2A5" stroke="black" cx="4222.73" cy="-37.48" rx="190.84" ry="37.45"/>
<text text-anchor="middle" x="4222.73" y="-48.78" font-family="Times,serif" font-size="14.00">la</text>
<text text-anchor="middle" x="4222.73" y="-33.78" font-family="Times,serif" font-size="14.00">da0fs0 (det)</text>
<text text-anchor="middle" x="4222.73" y="-18.78" font-family="Times,serif" font-size="14.00">rep=no, t=no, r=yes, m=yes, c=no</text>
</g>
<!-- n55&#45;&gt;n54 -->
<g id="edge56" class="edge">
<title>n55&#45;&gt;n54</title>
<path fill="none" stroke="black" d="M4222.73,-110.85C4222.73,-102.67 4222.73,-93.89 4222.73,-85.37"/>
<polygon fill="black" stroke="black" points="4226.23,-85.15 4222.73,-75.15 4219.23,-85.15 4226.23,-85.15"/>
</g>
</g>
</svg>
