<?xml version="1.0" encoding="UTF-8" standalone="no"?>
<!DOCTYPE svg PUBLIC "-//W3C//DTD SVG 1.1//EN"
 "http://www.w3.org/Graphics/SVG/1.1/DTD/svg11.dtd">
<!-- Generated by graphviz version 2.43.0 (0)
 -->
<!-- Title: tree Pages: 1 -->
<svg width="4862pt" height="860pt"
 viewBox="0.00 0.00 4861.70 859.63" xmlns="http://www.w3.org/2000/svg" xmlns:xlink="http://www.w3.org/1999/xlink">
<g id="graph0" class="graph" transform="scale(1 1) rotate(0) translate(4 855.63)">
<title>tree</title>
<polygon fill="white" stroke="transparent" points="-4,4 -4,-855.63 4857.7,-855.63 4857.7,4 -4,4"/>
<!-- n17 -->
<g id="node1" class="node">
<title>n17</title>
<ellipse fill="#98D2A5" stroke="black" cx="1632.73" cy="-814.15" rx="185.94" ry="37.45"/>
<text text-anchor="middle" x="1632.73" y="-825.45" font-family="Times,serif" font-size="14.00">decidi贸</text>
<text text-anchor="middle" x="1632.73" y="-810.45" font-family="Times,serif" font-size="14.00">vmis3s0 (root)</text>
<text text-anchor="middle" x="1632.73" y="-795.45" font-family="Times,serif" font-size="14.00">rep=no, t=no, r=no, m=yes, c=no</text>
</g>
<!-- n1 -->
<g id="node2" class="node">
<title>n1</title>
<ellipse fill="none" stroke="black" cx="666.73" cy="-703.2" rx="181.95" ry="37.45"/>
<text text-anchor="middle" x="666.73" y="-714.5" font-family="Times,serif" font-size="14.00">De</text>
<text text-anchor="middle" x="666.73" y="-699.5" font-family="Times,serif" font-size="14.00">sps00 (prepv)</text>
<text text-anchor="middle" x="666.73" y="-684.5" font-family="Times,serif" font-size="14.00">rep=no, t=no, r=no, m=no, c=no</text>
</g>
<!-- n17&#45;&gt;n1 -->
<g id="edge1" class="edge">
<title>n17&#45;&gt;n1</title>
<path fill="none" stroke="black" d="M1472.4,-795.07C1295.93,-775.16 1013.54,-743.31 834.25,-723.09"/>
<polygon fill="black" stroke="black" points="834.52,-719.6 824.19,-721.96 833.74,-726.56 834.52,-719.6"/>
</g>
<!-- n14 -->
<g id="node3" class="node">
<title>n14</title>
<ellipse fill="none" stroke="black" cx="1246.73" cy="-703.2" rx="181.95" ry="37.45"/>
<text text-anchor="middle" x="1246.73" y="-714.5" font-family="Times,serif" font-size="14.00">,</text>
<text text-anchor="middle" x="1246.73" y="-699.5" font-family="Times,serif" font-size="14.00">fc (punct)</text>
<text text-anchor="middle" x="1246.73" y="-684.5" font-family="Times,serif" font-size="14.00">rep=no, t=no, r=no, m=no, c=no</text>
</g>
<!-- n17&#45;&gt;n14 -->
<g id="edge2" class="edge">
<title>n17&#45;&gt;n14</title>
<path fill="none" stroke="black" d="M1527,-783.31C1475.72,-768.83 1414.05,-751.42 1361.62,-736.63"/>
<polygon fill="black" stroke="black" points="1362.52,-733.24 1351.94,-733.89 1360.61,-739.98 1362.52,-733.24"/>
</g>
<!-- n16 -->
<g id="node4" class="node">
<title>n16</title>
<ellipse fill="#98D2A5" stroke="black" cx="1632.73" cy="-703.2" rx="185.94" ry="37.45"/>
<text text-anchor="middle" x="1632.73" y="-714.5" font-family="Times,serif" font-size="14.00">juez</text>
<text text-anchor="middle" x="1632.73" y="-699.5" font-family="Times,serif" font-size="14.00">nccs000 (nsubj)</text>
<text text-anchor="middle" x="1632.73" y="-684.5" font-family="Times,serif" font-size="14.00">rep=no, t=no, r=no, m=yes, c=no</text>
</g>
<!-- n17&#45;&gt;n16 -->
<g id="edge3" class="edge">
<title>n17&#45;&gt;n16</title>
<path fill="none" stroke="black" d="M1632.73,-776.57C1632.73,-768.39 1632.73,-759.61 1632.73,-751.09"/>
<polygon fill="black" stroke="black" points="1636.23,-750.87 1632.73,-740.87 1629.23,-750.87 1636.23,-750.87"/>
</g>
<!-- n18 -->
<g id="node5" class="node">
<title>n18</title>
<ellipse fill="#98D2A5" stroke="black" cx="2122.73" cy="-703.2" rx="185.94" ry="37.45"/>
<text text-anchor="middle" x="2122.73" y="-714.5" font-family="Times,serif" font-size="14.00">excluir</text>
<text text-anchor="middle" x="2122.73" y="-699.5" font-family="Times,serif" font-size="14.00">vmn0000 (dobj)</text>
<text text-anchor="middle" x="2122.73" y="-684.5" font-family="Times,serif" font-size="14.00">rep=no, t=no, r=no, m=yes, c=no</text>
</g>
<!-- n17&#45;&gt;n18 -->
<g id="edge4" class="edge">
<title>n17&#45;&gt;n18</title>
<path fill="none" stroke="black" d="M1755.43,-785.87C1826.77,-770 1916.72,-750 1989.74,-733.77"/>
<polygon fill="black" stroke="black" points="1990.93,-737.09 1999.93,-731.5 1989.41,-730.25 1990.93,-737.09"/>
</g>
<!-- n47 -->
<g id="node6" class="node">
<title>n47</title>
<ellipse fill="none" stroke="black" cx="2508.73" cy="-703.2" rx="181.95" ry="37.45"/>
<text text-anchor="middle" x="2508.73" y="-714.5" font-family="Times,serif" font-size="14.00">.</text>
<text text-anchor="middle" x="2508.73" y="-699.5" font-family="Times,serif" font-size="14.00">fp (punct)</text>
<text text-anchor="middle" x="2508.73" y="-684.5" font-family="Times,serif" font-size="14.00">rep=no, t=no, r=no, m=no, c=no</text>
</g>
<!-- n17&#45;&gt;n47 -->
<g id="edge5" class="edge">
<title>n17&#45;&gt;n47</title>
<path fill="none" stroke="black" d="M1803.18,-799.09C1942.08,-786.68 2143.09,-766.54 2317.73,-740.67 2335.2,-738.09 2353.5,-735.03 2371.57,-731.81"/>
<polygon fill="black" stroke="black" points="2372.36,-735.23 2381.58,-730.01 2371.12,-728.34 2372.36,-735.23"/>
</g>
<!-- n4 -->
<g id="node7" class="node">
<title>n4</title>
<ellipse fill="none" stroke="black" cx="371.73" cy="-592.24" rx="181.95" ry="37.45"/>
<text text-anchor="middle" x="371.73" y="-603.54" font-family="Times,serif" font-size="14.00">personas</text>
<text text-anchor="middle" x="371.73" y="-588.54" font-family="Times,serif" font-size="14.00">ncfp000 (pobj)</text>
<text text-anchor="middle" x="371.73" y="-573.54" font-family="Times,serif" font-size="14.00">rep=no, t=no, r=no, m=no, c=no</text>
</g>
<!-- n1&#45;&gt;n4 -->
<g id="edge6" class="edge">
<title>n1&#45;&gt;n4</title>
<path fill="none" stroke="black" d="M579.81,-670.1C544.63,-657.1 503.88,-642.05 467.82,-628.73"/>
<polygon fill="black" stroke="black" points="468.87,-625.39 458.27,-625.21 466.44,-631.96 468.87,-625.39"/>
</g>
<!-- n15 -->
<g id="node19" class="node">
<title>n15</title>
<ellipse fill="#98D2A5" stroke="black" cx="757.73" cy="-592.24" rx="185.94" ry="37.45"/>
<text text-anchor="middle" x="757.73" y="-603.54" font-family="Times,serif" font-size="14.00">el</text>
<text text-anchor="middle" x="757.73" y="-588.54" font-family="Times,serif" font-size="14.00">da0ms0 (det)</text>
<text text-anchor="middle" x="757.73" y="-573.54" font-family="Times,serif" font-size="14.00">rep=no, t=no, r=no, m=yes, c=no</text>
</g>
<!-- n16&#45;&gt;n15 -->
<g id="edge18" class="edge">
<title>n16&#45;&gt;n15</title>
<path fill="none" stroke="black" d="M1504.29,-676.08C1482.16,-672.18 1459.33,-668.53 1437.73,-665.72 1223.39,-637.81 1167.06,-657.63 952.73,-629.72 934.33,-627.32 915.04,-624.32 896.06,-621.07"/>
<polygon fill="black" stroke="black" points="896.61,-617.62 886.16,-619.36 895.41,-624.52 896.61,-617.62"/>
</g>
<!-- n19 -->
<g id="node20" class="node">
<title>n19</title>
<ellipse fill="#98D2A5" stroke="black" cx="1147.73" cy="-592.24" rx="185.94" ry="37.45"/>
<text text-anchor="middle" x="1147.73" y="-603.54" font-family="Times,serif" font-size="14.00">&quot;</text>
<text text-anchor="middle" x="1147.73" y="-588.54" font-family="Times,serif" font-size="14.00">fe (punct)</text>
<text text-anchor="middle" x="1147.73" y="-573.54" font-family="Times,serif" font-size="14.00">rep=no, t=no, r=no, m=yes, c=no</text>
</g>
<!-- n18&#45;&gt;n19 -->
<g id="edge19" class="edge">
<title>n18&#45;&gt;n19</title>
<path fill="none" stroke="black" d="M1969.77,-681.84C1924.13,-676.16 1873.95,-670.29 1827.73,-665.72 1612.63,-644.45 1557.06,-657.63 1342.73,-629.72 1324.33,-627.32 1305.04,-624.32 1286.06,-621.07"/>
<polygon fill="black" stroke="black" points="1286.61,-617.62 1276.16,-619.36 1285.41,-624.52 1286.61,-617.62"/>
</g>
<!-- n20 -->
<g id="node21" class="node">
<title>n20</title>
<ellipse fill="#98D2A5" stroke="black" cx="1537.73" cy="-592.24" rx="185.94" ry="37.45"/>
<text text-anchor="middle" x="1537.73" y="-603.54" font-family="Times,serif" font-size="14.00">de</text>
<text text-anchor="middle" x="1537.73" y="-588.54" font-family="Times,serif" font-size="14.00">sps00 (advmod)</text>
<text text-anchor="middle" x="1537.73" y="-573.54" font-family="Times,serif" font-size="14.00">rep=no, t=no, r=no, m=yes, c=no</text>
</g>
<!-- n18&#45;&gt;n20 -->
<g id="edge20" class="edge">
<title>n18&#45;&gt;n20</title>
<path fill="none" stroke="black" d="M1988.25,-677.25C1913.08,-663.29 1817.69,-645.56 1732.73,-629.72 1716.24,-626.65 1698.97,-623.42 1681.81,-620.22"/>
<polygon fill="black" stroke="black" points="1682.2,-616.73 1671.73,-618.33 1680.92,-623.61 1682.2,-616.73"/>
</g>
<!-- n22 -->
<g id="node22" class="node">
<title>n22</title>
<ellipse fill="#98D2A5" stroke="black" cx="1927.73" cy="-592.24" rx="185.94" ry="37.45"/>
<text text-anchor="middle" x="1927.73" y="-603.54" font-family="Times,serif" font-size="14.00">y</text>
<text text-anchor="middle" x="1927.73" y="-588.54" font-family="Times,serif" font-size="14.00">cc (coord_fixed)</text>
<text text-anchor="middle" x="1927.73" y="-573.54" font-family="Times,serif" font-size="14.00">rep=no, t=no, r=no, m=yes, c=no</text>
</g>
<!-- n18&#45;&gt;n22 -->
<g id="edge21" class="edge">
<title>n18&#45;&gt;n22</title>
<path fill="none" stroke="black" d="M2061.03,-667.72C2041.1,-656.59 2018.86,-644.16 1998.34,-632.7"/>
<polygon fill="black" stroke="black" points="1999.8,-629.5 1989.36,-627.68 1996.38,-635.61 1999.8,-629.5"/>
</g>
<!-- n23 -->
<g id="node23" class="node">
<title>n23</title>
<ellipse fill="#98D2A5" stroke="black" cx="2317.73" cy="-592.24" rx="185.94" ry="37.45"/>
<text text-anchor="middle" x="2317.73" y="-603.54" font-family="Times,serif" font-size="14.00">a</text>
<text text-anchor="middle" x="2317.73" y="-588.54" font-family="Times,serif" font-size="14.00">sps00 (prepv)</text>
<text text-anchor="middle" x="2317.73" y="-573.54" font-family="Times,serif" font-size="14.00">rep=no, t=no, r=no, m=yes, c=no</text>
</g>
<!-- n18&#45;&gt;n23 -->
<g id="edge22" class="edge">
<title>n18&#45;&gt;n23</title>
<path fill="none" stroke="black" d="M2184.43,-667.72C2204.35,-656.59 2226.59,-644.16 2247.11,-632.7"/>
<polygon fill="black" stroke="black" points="2249.07,-635.61 2256.09,-627.68 2245.66,-629.5 2249.07,-635.61"/>
</g>
<!-- n29 -->
<g id="node24" class="node">
<title>n29</title>
<ellipse fill="#98D2A5" stroke="black" cx="2707.73" cy="-592.24" rx="185.94" ry="37.45"/>
<text text-anchor="middle" x="2707.73" y="-603.54" font-family="Times,serif" font-size="14.00">&quot;</text>
<text text-anchor="middle" x="2707.73" y="-588.54" font-family="Times,serif" font-size="14.00">fe (punct)</text>
<text text-anchor="middle" x="2707.73" y="-573.54" font-family="Times,serif" font-size="14.00">rep=no, t=no, r=no, m=yes, c=no</text>
</g>
<!-- n18&#45;&gt;n29 -->
<g id="edge23" class="edge">
<title>n18&#45;&gt;n29</title>
<path fill="none" stroke="black" d="M2256.46,-677.14C2276.98,-673.3 2297.92,-669.4 2317.73,-665.72 2404.37,-649.62 2426.08,-645.82 2512.73,-629.72 2529.29,-626.64 2546.63,-623.41 2563.87,-620.19"/>
<polygon fill="black" stroke="black" points="2564.8,-623.58 2573.99,-618.3 2563.52,-616.7 2564.8,-623.58"/>
</g>
<!-- n30 -->
<g id="node25" class="node">
<title>n30</title>
<ellipse fill="#98D2A5" stroke="black" cx="3097.73" cy="-592.24" rx="185.94" ry="37.45"/>
<text text-anchor="middle" x="3097.73" y="-603.54" font-family="Times,serif" font-size="14.00">a</text>
<text text-anchor="middle" x="3097.73" y="-588.54" font-family="Times,serif" font-size="14.00">sps00 (dobj)</text>
<text text-anchor="middle" x="3097.73" y="-573.54" font-family="Times,serif" font-size="14.00">rep=no, t=no, r=no, m=yes, c=no</text>
</g>
<!-- n18&#45;&gt;n30 -->
<g id="edge24" class="edge">
<title>n18&#45;&gt;n30</title>
<path fill="none" stroke="black" d="M2250.61,-675.94C2272.91,-672.03 2295.94,-668.42 2317.73,-665.72 2576.24,-633.71 2644.21,-661.73 2902.73,-629.72 2921.28,-627.42 2940.74,-624.46 2959.87,-621.22"/>
<polygon fill="black" stroke="black" points="2960.59,-624.64 2969.85,-619.5 2959.4,-617.75 2960.59,-624.64"/>
</g>
<!-- n36 -->
<g id="node26" class="node">
<title>n36</title>
<ellipse fill="#98D2A5" stroke="black" cx="3487.73" cy="-592.24" rx="185.94" ry="37.45"/>
<text text-anchor="middle" x="3487.73" y="-603.54" font-family="Times,serif" font-size="14.00">,</text>
<text text-anchor="middle" x="3487.73" y="-588.54" font-family="Times,serif" font-size="14.00">fc (punct)</text>
<text text-anchor="middle" x="3487.73" y="-573.54" font-family="Times,serif" font-size="14.00">rep=no, t=no, r=no, m=yes, c=no</text>
</g>
<!-- n18&#45;&gt;n36 -->
<g id="edge25" class="edge">
<title>n18&#45;&gt;n36</title>
<path fill="none" stroke="black" d="M2249.24,-675.72C2271.95,-671.77 2295.48,-668.2 2317.73,-665.72 2748.69,-617.72 2861.76,-677.72 3292.73,-629.72 3311.76,-627.6 3331.73,-624.68 3351.32,-621.41"/>
<polygon fill="black" stroke="black" points="3351.94,-624.85 3361.21,-619.72 3350.77,-617.95 3351.94,-624.85"/>
</g>
<!-- n37 -->
<g id="node27" class="node">
<title>n37</title>
<ellipse fill="#98D2A5" stroke="black" cx="3882.73" cy="-592.24" rx="185.94" ry="37.45"/>
<text text-anchor="middle" x="3882.73" y="-603.54" font-family="Times,serif" font-size="14.00">hasta</text>
<text text-anchor="middle" x="3882.73" y="-588.54" font-family="Times,serif" font-size="14.00">sps00 (prepv)</text>
<text text-anchor="middle" x="3882.73" y="-573.54" font-family="Times,serif" font-size="14.00">rep=no, t=no, r=no, m=yes, c=no</text>
</g>
<!-- n18&#45;&gt;n37 -->
<g id="edge26" class="edge">
<title>n18&#45;&gt;n37</title>
<path fill="none" stroke="black" d="M2248.7,-675.61C2271.57,-671.65 2295.29,-668.1 2317.73,-665.72 2921.22,-601.73 3079.09,-692.35 3682.73,-629.72 3703.03,-627.61 3724.37,-624.6 3745.24,-621.19"/>
<polygon fill="black" stroke="black" points="3745.83,-624.64 3755.12,-619.54 3744.68,-617.73 3745.83,-624.64"/>
</g>
<!-- n2 -->
<g id="node8" class="node">
<title>n2</title>
<ellipse fill="none" stroke="black" cx="181.73" cy="-481.29" rx="181.95" ry="37.45"/>
<text text-anchor="middle" x="181.73" y="-492.59" font-family="Times,serif" font-size="14.00">las</text>
<text text-anchor="middle" x="181.73" y="-477.59" font-family="Times,serif" font-size="14.00">da0fp0 (det)</text>
<text text-anchor="middle" x="181.73" y="-462.59" font-family="Times,serif" font-size="14.00">rep=no, t=no, r=no, m=no, c=no</text>
</g>
<!-- n4&#45;&gt;n2 -->
<g id="edge7" class="edge">
<title>n4&#45;&gt;n2</title>
<path fill="none" stroke="black" d="M311.61,-556.77C292.19,-545.64 270.52,-533.21 250.53,-521.75"/>
<polygon fill="black" stroke="black" points="252.19,-518.66 241.78,-516.73 248.71,-524.74 252.19,-518.66"/>
</g>
<!-- n11 -->
<g id="node9" class="node">
<title>n11</title>
<ellipse fill="none" stroke="black" cx="752.73" cy="-481.29" rx="181.95" ry="37.45"/>
<text text-anchor="middle" x="752.73" y="-492.59" font-family="Times,serif" font-size="14.00">solicit贸</text>
<text text-anchor="middle" x="752.73" y="-477.59" font-family="Times,serif" font-size="14.00">vmis3s0 (dep)</text>
<text text-anchor="middle" x="752.73" y="-462.59" font-family="Times,serif" font-size="14.00">rep=no, t=no, r=no, m=no, c=no</text>
</g>
<!-- n4&#45;&gt;n11 -->
<g id="edge8" class="edge">
<title>n4&#45;&gt;n11</title>
<path fill="none" stroke="black" d="M475.84,-561.47C526.34,-547.03 587.12,-529.65 638.86,-514.85"/>
<polygon fill="black" stroke="black" points="640.09,-518.14 648.74,-512.03 638.17,-511.41 640.09,-518.14"/>
</g>
<!-- n3 -->
<g id="node10" class="node">
<title>n3</title>
<ellipse fill="none" stroke="black" cx="181.73" cy="-370.34" rx="181.95" ry="37.45"/>
<text text-anchor="middle" x="181.73" y="-381.64" font-family="Times,serif" font-size="14.00">33</text>
<text text-anchor="middle" x="181.73" y="-366.64" font-family="Times,serif" font-size="14.00">z (num)</text>
<text text-anchor="middle" x="181.73" y="-351.64" font-family="Times,serif" font-size="14.00">rep=no, t=no, r=no, m=no, c=no</text>
</g>
<!-- n2&#45;&gt;n3 -->
<g id="edge9" class="edge">
<title>n2&#45;&gt;n3</title>
<path fill="none" stroke="black" d="M181.73,-443.71C181.73,-435.53 181.73,-426.75 181.73,-418.23"/>
<polygon fill="black" stroke="black" points="185.23,-418.01 181.73,-408.01 178.23,-418.01 185.23,-418.01"/>
</g>
<!-- n5 -->
<g id="node11" class="node">
<title>n5</title>
<ellipse fill="none" stroke="black" cx="562.73" cy="-370.34" rx="181.95" ry="37.45"/>
<text text-anchor="middle" x="562.73" y="-381.64" font-family="Times,serif" font-size="14.00">para</text>
<text text-anchor="middle" x="562.73" y="-366.64" font-family="Times,serif" font-size="14.00">sps00 (prepv)</text>
<text text-anchor="middle" x="562.73" y="-351.64" font-family="Times,serif" font-size="14.00">rep=no, t=no, r=no, m=no, c=no</text>
</g>
<!-- n11&#45;&gt;n5 -->
<g id="edge10" class="edge">
<title>n11&#45;&gt;n5</title>
<path fill="none" stroke="black" d="M692.61,-445.82C673.19,-434.68 651.52,-422.26 631.53,-410.79"/>
<polygon fill="black" stroke="black" points="633.19,-407.71 622.78,-405.77 629.71,-413.78 633.19,-407.71"/>
</g>
<!-- n9 -->
<g id="node12" class="node">
<title>n9</title>
<ellipse fill="none" stroke="black" cx="943.73" cy="-370.34" rx="181.95" ry="37.45"/>
<text text-anchor="middle" x="943.73" y="-381.64" font-family="Times,serif" font-size="14.00">Ministerio</text>
<text text-anchor="middle" x="943.73" y="-366.64" font-family="Times,serif" font-size="14.00">ncfs000 (nsubj)</text>
<text text-anchor="middle" x="943.73" y="-351.64" font-family="Times,serif" font-size="14.00">rep=no, t=no, r=no, m=no, c=no</text>
</g>
<!-- n11&#45;&gt;n9 -->
<g id="edge11" class="edge">
<title>n11&#45;&gt;n9</title>
<path fill="none" stroke="black" d="M813.16,-445.82C832.68,-434.68 854.46,-422.26 874.56,-410.79"/>
<polygon fill="black" stroke="black" points="876.41,-413.77 883.36,-405.77 872.94,-407.69 876.41,-413.77"/>
</g>
<!-- n13 -->
<g id="node13" class="node">
<title>n13</title>
<ellipse fill="none" stroke="black" cx="1420.73" cy="-370.34" rx="181.95" ry="37.45"/>
<text text-anchor="middle" x="1420.73" y="-381.64" font-family="Times,serif" font-size="14.00">procesamiento</text>
<text text-anchor="middle" x="1420.73" y="-366.64" font-family="Times,serif" font-size="14.00">ncms000 (dobj)</text>
<text text-anchor="middle" x="1420.73" y="-351.64" font-family="Times,serif" font-size="14.00">rep=no, t=no, r=no, m=no, c=no</text>
</g>
<!-- n11&#45;&gt;n13 -->
<g id="edge12" class="edge">
<title>n11&#45;&gt;n13</title>
<path fill="none" stroke="black" d="M893.17,-457.38C1003.68,-439.36 1157.36,-414.29 1270.36,-395.86"/>
<polygon fill="black" stroke="black" points="1271.17,-399.28 1280.47,-394.21 1270.04,-392.37 1271.17,-399.28"/>
</g>
<!-- n7 -->
<g id="node14" class="node">
<title>n7</title>
<ellipse fill="none" stroke="black" cx="467.73" cy="-259.38" rx="181.95" ry="37.45"/>
<text text-anchor="middle" x="467.73" y="-270.68" font-family="Times,serif" font-size="14.00">que</text>
<text text-anchor="middle" x="467.73" y="-255.68" font-family="Times,serif" font-size="14.00">pr0cn000 (pobj)</text>
<text text-anchor="middle" x="467.73" y="-240.68" font-family="Times,serif" font-size="14.00">rep=no, t=no, r=no, m=no, c=no</text>
</g>
<!-- n5&#45;&gt;n7 -->
<g id="edge13" class="edge">
<title>n5&#45;&gt;n7</title>
<path fill="none" stroke="black" d="M531.36,-333.36C523.17,-323.97 514.26,-313.75 505.76,-304.01"/>
<polygon fill="black" stroke="black" points="508.27,-301.56 499.06,-296.32 503,-306.16 508.27,-301.56"/>
</g>
<!-- n8 -->
<g id="node16" class="node">
<title>n8</title>
<ellipse fill="none" stroke="black" cx="848.73" cy="-259.38" rx="181.95" ry="37.45"/>
<text text-anchor="middle" x="848.73" y="-270.68" font-family="Times,serif" font-size="14.00">el</text>
<text text-anchor="middle" x="848.73" y="-255.68" font-family="Times,serif" font-size="14.00">da0ms0 (det)</text>
<text text-anchor="middle" x="848.73" y="-240.68" font-family="Times,serif" font-size="14.00">rep=no, t=no, r=no, m=no, c=no</text>
</g>
<!-- n9&#45;&gt;n8 -->
<g id="edge15" class="edge">
<title>n9&#45;&gt;n8</title>
<path fill="none" stroke="black" d="M912.36,-333.36C904.17,-323.97 895.26,-313.75 886.76,-304.01"/>
<polygon fill="black" stroke="black" points="889.27,-301.56 880.06,-296.32 884,-306.16 889.27,-301.56"/>
</g>
<!-- n10 -->
<g id="node17" class="node">
<title>n10</title>
<ellipse fill="none" stroke="black" cx="1229.73" cy="-259.38" rx="181.95" ry="37.45"/>
<text text-anchor="middle" x="1229.73" y="-270.68" font-family="Times,serif" font-size="14.00">Fiscal</text>
<text text-anchor="middle" x="1229.73" y="-255.68" font-family="Times,serif" font-size="14.00">nc00000 (appos)</text>
<text text-anchor="middle" x="1229.73" y="-240.68" font-family="Times,serif" font-size="14.00">rep=no, t=no, r=no, m=no, c=no</text>
</g>
<!-- n9&#45;&gt;n10 -->
<g id="edge16" class="edge">
<title>n9&#45;&gt;n10</title>
<path fill="none" stroke="black" d="M1028.38,-337.09C1061.95,-324.3 1100.71,-309.53 1135.19,-296.4"/>
<polygon fill="black" stroke="black" points="1136.7,-299.57 1144.8,-292.74 1134.21,-293.03 1136.7,-299.57"/>
</g>
<!-- n12 -->
<g id="node18" class="node">
<title>n12</title>
<ellipse fill="none" stroke="black" cx="1610.73" cy="-259.38" rx="181.95" ry="37.45"/>
<text text-anchor="middle" x="1610.73" y="-270.68" font-family="Times,serif" font-size="14.00">el</text>
<text text-anchor="middle" x="1610.73" y="-255.68" font-family="Times,serif" font-size="14.00">da0ms0 (det)</text>
<text text-anchor="middle" x="1610.73" y="-240.68" font-family="Times,serif" font-size="14.00">rep=no, t=no, r=no, m=no, c=no</text>
</g>
<!-- n13&#45;&gt;n12 -->
<g id="edge17" class="edge">
<title>n13&#45;&gt;n12</title>
<path fill="none" stroke="black" d="M1480.84,-334.86C1500.26,-323.73 1521.93,-311.3 1541.92,-299.84"/>
<polygon fill="black" stroke="black" points="1543.74,-302.83 1550.67,-294.82 1540.26,-296.76 1543.74,-302.83"/>
</g>
<!-- n6 -->
<g id="node15" class="node">
<title>n6</title>
<ellipse fill="none" stroke="black" cx="467.73" cy="-148.43" rx="181.95" ry="37.45"/>
<text text-anchor="middle" x="467.73" y="-159.73" font-family="Times,serif" font-size="14.00">las</text>
<text text-anchor="middle" x="467.73" y="-144.73" font-family="Times,serif" font-size="14.00">da0fp0 (det)</text>
<text text-anchor="middle" x="467.73" y="-129.73" font-family="Times,serif" font-size="14.00">rep=no, t=no, r=no, m=no, c=no</text>
</g>
<!-- n7&#45;&gt;n6 -->
<g id="edge14" class="edge">
<title>n7&#45;&gt;n6</title>
<path fill="none" stroke="black" d="M467.73,-221.8C467.73,-213.63 467.73,-204.85 467.73,-196.32"/>
<polygon fill="black" stroke="black" points="471.23,-196.1 467.73,-186.1 464.23,-196.1 471.23,-196.1"/>
</g>
<!-- n21 -->
<g id="node28" class="node">
<title>n21</title>
<ellipse fill="#98D2A5" stroke="black" cx="1537.73" cy="-481.29" rx="185.94" ry="37.45"/>
<text text-anchor="middle" x="1537.73" y="-492.59" font-family="Times,serif" font-size="14.00">momento</text>
<text text-anchor="middle" x="1537.73" y="-477.59" font-family="Times,serif" font-size="14.00">vmn0000 (pobj)</text>
<text text-anchor="middle" x="1537.73" y="-462.59" font-family="Times,serif" font-size="14.00">rep=no, t=no, r=no, m=yes, c=no</text>
</g>
<!-- n20&#45;&gt;n21 -->
<g id="edge27" class="edge">
<title>n20&#45;&gt;n21</title>
<path fill="none" stroke="black" d="M1537.73,-554.66C1537.73,-546.49 1537.73,-537.71 1537.73,-529.18"/>
<polygon fill="black" stroke="black" points="1541.23,-528.96 1537.73,-518.96 1534.23,-528.96 1541.23,-528.96"/>
</g>
<!-- n24 -->
<g id="node29" class="node">
<title>n24</title>
<ellipse fill="#98D2A5" stroke="black" cx="2307.73" cy="-481.29" rx="185.94" ry="37.45"/>
<text text-anchor="middle" x="2307.73" y="-492.59" font-family="Times,serif" font-size="14.00">pesar</text>
<text text-anchor="middle" x="2307.73" y="-477.59" font-family="Times,serif" font-size="14.00">vmn0000 (pobj)</text>
<text text-anchor="middle" x="2307.73" y="-462.59" font-family="Times,serif" font-size="14.00">rep=no, t=no, r=no, m=yes, c=no</text>
</g>
<!-- n23&#45;&gt;n24 -->
<g id="edge28" class="edge">
<title>n23&#45;&gt;n24</title>
<path fill="none" stroke="black" d="M2314.37,-554.66C2313.62,-546.49 2312.81,-537.71 2312.03,-529.18"/>
<polygon fill="black" stroke="black" points="2315.49,-528.6 2311.09,-518.96 2308.52,-529.24 2315.49,-528.6"/>
</g>
<!-- n31 -->
<g id="node34" class="node">
<title>n31</title>
<ellipse fill="#98D2A5" stroke="black" cx="2702.73" cy="-481.29" rx="190.84" ry="37.45"/>
<text text-anchor="middle" x="2702.73" y="-492.59" font-family="Times,serif" font-size="14.00">Alberto</text>
<text text-anchor="middle" x="2702.73" y="-477.59" font-family="Times,serif" font-size="14.00">np0000l (pobj)</text>
<text text-anchor="middle" x="2702.73" y="-462.59" font-family="Times,serif" font-size="14.00">rep=no, t=no, r=no, m=yes, c=yes</text>
</g>
<!-- n30&#45;&gt;n31 -->
<g id="edge33" class="edge">
<title>n30&#45;&gt;n31</title>
<path fill="none" stroke="black" d="M2990.31,-561.62C2937.94,-547.17 2874.82,-529.76 2821.07,-514.93"/>
<polygon fill="black" stroke="black" points="2821.72,-511.48 2811.15,-512.2 2819.86,-518.23 2821.72,-511.48"/>
</g>
<!-- n33 -->
<g id="node35" class="node">
<title>n33</title>
<ellipse fill="#98D2A5" stroke="black" cx="3097.73" cy="-481.29" rx="185.94" ry="37.45"/>
<text text-anchor="middle" x="3097.73" y="-492.59" font-family="Times,serif" font-size="14.00">y</text>
<text text-anchor="middle" x="3097.73" y="-477.59" font-family="Times,serif" font-size="14.00">cc (coord_fixed)</text>
<text text-anchor="middle" x="3097.73" y="-462.59" font-family="Times,serif" font-size="14.00">rep=no, t=no, r=no, m=yes, c=no</text>
</g>
<!-- n30&#45;&gt;n33 -->
<g id="edge34" class="edge">
<title>n30&#45;&gt;n33</title>
<path fill="none" stroke="black" d="M3097.73,-554.66C3097.73,-546.49 3097.73,-537.71 3097.73,-529.18"/>
<polygon fill="black" stroke="black" points="3101.23,-528.96 3097.73,-518.96 3094.23,-528.96 3101.23,-528.96"/>
</g>
<!-- n34 -->
<g id="node36" class="node">
<title>n34</title>
<ellipse fill="#98D2A5" stroke="black" cx="3492.73" cy="-481.29" rx="190.84" ry="37.45"/>
<text text-anchor="middle" x="3492.73" y="-492.59" font-family="Times,serif" font-size="14.00">Mario</text>
<text text-anchor="middle" x="3492.73" y="-477.59" font-family="Times,serif" font-size="14.00">np0000l (pobj)</text>
<text text-anchor="middle" x="3492.73" y="-462.59" font-family="Times,serif" font-size="14.00">rep=no, t=no, r=no, m=yes, c=yes</text>
</g>
<!-- n30&#45;&gt;n34 -->
<g id="edge35" class="edge">
<title>n30&#45;&gt;n34</title>
<path fill="none" stroke="black" d="M3205.14,-561.62C3257.51,-547.17 3320.63,-529.76 3374.38,-514.93"/>
<polygon fill="black" stroke="black" points="3375.6,-518.23 3384.3,-512.2 3373.73,-511.48 3375.6,-518.23"/>
</g>
<!-- n38 -->
<g id="node39" class="node">
<title>n38</title>
<ellipse fill="#98D2A5" stroke="black" cx="3887.73" cy="-481.29" rx="185.94" ry="37.45"/>
<text text-anchor="middle" x="3887.73" y="-492.59" font-family="Times,serif" font-size="14.00">que</text>
<text text-anchor="middle" x="3887.73" y="-477.59" font-family="Times,serif" font-size="14.00">cs (pobj)</text>
<text text-anchor="middle" x="3887.73" y="-462.59" font-family="Times,serif" font-size="14.00">rep=no, t=no, r=no, m=yes, c=no</text>
</g>
<!-- n37&#45;&gt;n38 -->
<g id="edge38" class="edge">
<title>n37&#45;&gt;n38</title>
<path fill="none" stroke="black" d="M3884.41,-554.66C3884.78,-546.49 3885.18,-537.71 3885.57,-529.18"/>
<polygon fill="black" stroke="black" points="3889.08,-529.11 3886.04,-518.96 3882.09,-528.79 3889.08,-529.11"/>
</g>
<!-- n25 -->
<g id="node30" class="node">
<title>n25</title>
<ellipse fill="#98D2A5" stroke="black" cx="2307.73" cy="-370.34" rx="185.94" ry="37.45"/>
<text text-anchor="middle" x="2307.73" y="-381.64" font-family="Times,serif" font-size="14.00">de</text>
<text text-anchor="middle" x="2307.73" y="-366.64" font-family="Times,serif" font-size="14.00">sps00 (iobj)</text>
<text text-anchor="middle" x="2307.73" y="-351.64" font-family="Times,serif" font-size="14.00">rep=no, t=no, r=no, m=yes, c=no</text>
</g>
<!-- n24&#45;&gt;n25 -->
<g id="edge29" class="edge">
<title>n24&#45;&gt;n25</title>
<path fill="none" stroke="black" d="M2307.73,-443.71C2307.73,-435.53 2307.73,-426.75 2307.73,-418.23"/>
<polygon fill="black" stroke="black" points="2311.23,-418.01 2307.73,-408.01 2304.23,-418.01 2311.23,-418.01"/>
</g>
<!-- n27 -->
<g id="node31" class="node">
<title>n27</title>
<ellipse fill="#98D2A5" stroke="black" cx="2307.73" cy="-259.38" rx="185.94" ry="37.45"/>
<text text-anchor="middle" x="2307.73" y="-270.68" font-family="Times,serif" font-size="14.00">indicios</text>
<text text-anchor="middle" x="2307.73" y="-255.68" font-family="Times,serif" font-size="14.00">ncmp000 (pobj)</text>
<text text-anchor="middle" x="2307.73" y="-240.68" font-family="Times,serif" font-size="14.00">rep=no, t=no, r=no, m=yes, c=no</text>
</g>
<!-- n25&#45;&gt;n27 -->
<g id="edge30" class="edge">
<title>n25&#45;&gt;n27</title>
<path fill="none" stroke="black" d="M2307.73,-332.75C2307.73,-324.58 2307.73,-315.8 2307.73,-307.27"/>
<polygon fill="black" stroke="black" points="2311.23,-307.06 2307.73,-297.06 2304.23,-307.06 2311.23,-307.06"/>
</g>
<!-- n26 -->
<g id="node32" class="node">
<title>n26</title>
<ellipse fill="#98D2A5" stroke="black" cx="2112.73" cy="-148.43" rx="185.94" ry="37.45"/>
<text text-anchor="middle" x="2112.73" y="-159.73" font-family="Times,serif" font-size="14.00">los</text>
<text text-anchor="middle" x="2112.73" y="-144.73" font-family="Times,serif" font-size="14.00">da0mp0 (det)</text>
<text text-anchor="middle" x="2112.73" y="-129.73" font-family="Times,serif" font-size="14.00">rep=no, t=no, r=no, m=yes, c=no</text>
</g>
<!-- n27&#45;&gt;n26 -->
<g id="edge31" class="edge">
<title>n27&#45;&gt;n26</title>
<path fill="none" stroke="black" d="M2246.03,-223.91C2226.1,-212.78 2203.86,-200.35 2183.34,-188.89"/>
<polygon fill="black" stroke="black" points="2184.8,-185.69 2174.36,-183.87 2181.38,-191.8 2184.8,-185.69"/>
</g>
<!-- n28 -->
<g id="node33" class="node">
<title>n28</title>
<ellipse fill="#98D2A5" stroke="black" cx="2502.73" cy="-148.43" rx="185.94" ry="37.45"/>
<text text-anchor="middle" x="2502.73" y="-159.73" font-family="Times,serif" font-size="14.00">existentes</text>
<text text-anchor="middle" x="2502.73" y="-144.73" font-family="Times,serif" font-size="14.00">aq0cp0 (amod)</text>
<text text-anchor="middle" x="2502.73" y="-129.73" font-family="Times,serif" font-size="14.00">rep=no, t=no, r=no, m=yes, c=no</text>
</g>
<!-- n27&#45;&gt;n28 -->
<g id="edge32" class="edge">
<title>n27&#45;&gt;n28</title>
<path fill="none" stroke="black" d="M2369.43,-223.91C2389.35,-212.78 2411.59,-200.35 2432.11,-188.89"/>
<polygon fill="black" stroke="black" points="2434.07,-191.8 2441.09,-183.87 2430.66,-185.69 2434.07,-191.8"/>
</g>
<!-- n32 -->
<g id="node37" class="node">
<title>n32</title>
<ellipse fill="#98D2A5" stroke="black" cx="2702.73" cy="-370.34" rx="185.94" ry="37.45"/>
<text text-anchor="middle" x="2702.73" y="-381.64" font-family="Times,serif" font-size="14.00">Frias</text>
<text text-anchor="middle" x="2702.73" y="-366.64" font-family="Times,serif" font-size="14.00">np0000l (appos)</text>
<text text-anchor="middle" x="2702.73" y="-351.64" font-family="Times,serif" font-size="14.00">rep=no, t=no, r=no, m=yes, c=no</text>
</g>
<!-- n31&#45;&gt;n32 -->
<g id="edge36" class="edge">
<title>n31&#45;&gt;n32</title>
<path fill="none" stroke="black" d="M2702.73,-443.71C2702.73,-435.53 2702.73,-426.75 2702.73,-418.23"/>
<polygon fill="black" stroke="black" points="2706.23,-418.01 2702.73,-408.01 2699.23,-418.01 2706.23,-418.01"/>
</g>
<!-- n35 -->
<g id="node38" class="node">
<title>n35</title>
<ellipse fill="#98D2A5" stroke="black" cx="3492.73" cy="-370.34" rx="185.94" ry="37.45"/>
<text text-anchor="middle" x="3492.73" y="-381.64" font-family="Times,serif" font-size="14.00">Zubiaga</text>
<text text-anchor="middle" x="3492.73" y="-366.64" font-family="Times,serif" font-size="14.00">np0000l (appos)</text>
<text text-anchor="middle" x="3492.73" y="-351.64" font-family="Times,serif" font-size="14.00">rep=no, t=no, r=no, m=yes, c=no</text>
</g>
<!-- n34&#45;&gt;n35 -->
<g id="edge37" class="edge">
<title>n34&#45;&gt;n35</title>
<path fill="none" stroke="black" d="M3492.73,-443.71C3492.73,-435.53 3492.73,-426.75 3492.73,-418.23"/>
<polygon fill="black" stroke="black" points="3496.23,-418.01 3492.73,-408.01 3489.23,-418.01 3496.23,-418.01"/>
</g>
<!-- n40 -->
<g id="node40" class="node">
<title>n40</title>
<ellipse fill="#98D2A5" stroke="black" cx="3887.73" cy="-370.34" rx="185.94" ry="37.45"/>
<text text-anchor="middle" x="3887.73" y="-381.64" font-family="Times,serif" font-size="14.00">tome</text>
<text text-anchor="middle" x="3887.73" y="-366.64" font-family="Times,serif" font-size="14.00">vmsp3s0 (cobj)</text>
<text text-anchor="middle" x="3887.73" y="-351.64" font-family="Times,serif" font-size="14.00">rep=no, t=no, r=no, m=yes, c=no</text>
</g>
<!-- n38&#45;&gt;n40 -->
<g id="edge39" class="edge">
<title>n38&#45;&gt;n40</title>
<path fill="none" stroke="black" d="M3887.73,-443.71C3887.73,-435.53 3887.73,-426.75 3887.73,-418.23"/>
<polygon fill="black" stroke="black" points="3891.23,-418.01 3887.73,-408.01 3884.23,-418.01 3891.23,-418.01"/>
</g>
<!-- n39 -->
<g id="node41" class="node">
<title>n39</title>
<ellipse fill="#98D2A5" stroke="black" cx="3497.73" cy="-259.38" rx="185.94" ry="37.45"/>
<text text-anchor="middle" x="3497.73" y="-270.68" font-family="Times,serif" font-size="14.00">les</text>
<text text-anchor="middle" x="3497.73" y="-255.68" font-family="Times,serif" font-size="14.00">pp3cpd00 (iobj)</text>
<text text-anchor="middle" x="3497.73" y="-240.68" font-family="Times,serif" font-size="14.00">rep=no, t=no, r=no, m=yes, c=no</text>
</g>
<!-- n40&#45;&gt;n39 -->
<g id="edge40" class="edge">
<title>n40&#45;&gt;n39</title>
<path fill="none" stroke="black" d="M3781.16,-339.56C3729.35,-325.09 3666.98,-307.67 3613.95,-292.85"/>
<polygon fill="black" stroke="black" points="3614.74,-289.44 3604.17,-290.12 3612.86,-296.18 3614.74,-289.44"/>
</g>
<!-- n41 -->
<g id="node42" class="node">
<title>n41</title>
<ellipse fill="#98D2A5" stroke="black" cx="3887.73" cy="-259.38" rx="185.94" ry="37.45"/>
<text text-anchor="middle" x="3887.73" y="-270.68" font-family="Times,serif" font-size="14.00">declaraci贸n</text>
<text text-anchor="middle" x="3887.73" y="-255.68" font-family="Times,serif" font-size="14.00">ncfs000 (dobj)</text>
<text text-anchor="middle" x="3887.73" y="-240.68" font-family="Times,serif" font-size="14.00">rep=no, t=no, r=no, m=yes, c=no</text>
</g>
<!-- n40&#45;&gt;n41 -->
<g id="edge41" class="edge">
<title>n40&#45;&gt;n41</title>
<path fill="none" stroke="black" d="M3887.73,-332.75C3887.73,-324.58 3887.73,-315.8 3887.73,-307.27"/>
<polygon fill="black" stroke="black" points="3891.23,-307.06 3887.73,-297.06 3884.23,-307.06 3891.23,-307.06"/>
</g>
<!-- n44 -->
<g id="node43" class="node">
<title>n44</title>
<ellipse fill="#98D2A5" stroke="black" cx="4277.73" cy="-259.38" rx="185.94" ry="37.45"/>
<text text-anchor="middle" x="4277.73" y="-270.68" font-family="Times,serif" font-size="14.00">29</text>
<text text-anchor="middle" x="4277.73" y="-255.68" font-family="Times,serif" font-size="14.00">zp (dobj)</text>
<text text-anchor="middle" x="4277.73" y="-240.68" font-family="Times,serif" font-size="14.00">rep=no, t=no, r=no, m=yes, c=no</text>
</g>
<!-- n40&#45;&gt;n44 -->
<g id="edge42" class="edge">
<title>n40&#45;&gt;n44</title>
<path fill="none" stroke="black" d="M3994.3,-339.56C4046.1,-325.09 4108.47,-307.67 4161.5,-292.85"/>
<polygon fill="black" stroke="black" points="4162.6,-296.18 4171.29,-290.12 4160.71,-289.44 4162.6,-296.18"/>
</g>
<!-- n42 -->
<g id="node44" class="node">
<title>n42</title>
<ellipse fill="#98D2A5" stroke="black" cx="3887.73" cy="-148.43" rx="185.94" ry="37.45"/>
<text text-anchor="middle" x="3887.73" y="-159.73" font-family="Times,serif" font-size="14.00">el</text>
<text text-anchor="middle" x="3887.73" y="-144.73" font-family="Times,serif" font-size="14.00">da0ms0 (det)</text>
<text text-anchor="middle" x="3887.73" y="-129.73" font-family="Times,serif" font-size="14.00">rep=no, t=no, r=no, m=yes, c=no</text>
</g>
<!-- n44&#45;&gt;n42 -->
<g id="edge43" class="edge">
<title>n44&#45;&gt;n42</title>
<path fill="none" stroke="black" d="M4171.16,-228.61C4119.35,-214.14 4056.98,-196.71 4003.95,-181.9"/>
<polygon fill="black" stroke="black" points="4004.74,-178.49 3994.17,-179.17 4002.86,-185.23 4004.74,-178.49"/>
</g>
<!-- n43 -->
<g id="node45" class="node">
<title>n43</title>
<ellipse fill="#98D2A5" stroke="black" cx="4277.73" cy="-148.43" rx="185.94" ry="37.45"/>
<text text-anchor="middle" x="4277.73" y="-159.73" font-family="Times,serif" font-size="14.00">pr贸ximo</text>
<text text-anchor="middle" x="4277.73" y="-144.73" font-family="Times,serif" font-size="14.00">aq0ms0 (amod)</text>
<text text-anchor="middle" x="4277.73" y="-129.73" font-family="Times,serif" font-size="14.00">rep=no, t=no, r=no, m=yes, c=no</text>
</g>
<!-- n44&#45;&gt;n43 -->
<g id="edge44" class="edge">
<title>n44&#45;&gt;n43</title>
<path fill="none" stroke="black" d="M4277.73,-221.8C4277.73,-213.63 4277.73,-204.85 4277.73,-196.32"/>
<polygon fill="black" stroke="black" points="4281.23,-196.1 4277.73,-186.1 4274.23,-196.1 4281.23,-196.1"/>
</g>
<!-- n45 -->
<g id="node46" class="node">
<title>n45</title>
<ellipse fill="#98D2A5" stroke="black" cx="4667.73" cy="-148.43" rx="185.94" ry="37.45"/>
<text text-anchor="middle" x="4667.73" y="-159.73" font-family="Times,serif" font-size="14.00">de</text>
<text text-anchor="middle" x="4667.73" y="-144.73" font-family="Times,serif" font-size="14.00">spcms (prep)</text>
<text text-anchor="middle" x="4667.73" y="-129.73" font-family="Times,serif" font-size="14.00">rep=no, t=no, r=no, m=yes, c=no</text>
</g>
<!-- n44&#45;&gt;n45 -->
<g id="edge45" class="edge">
<title>n44&#45;&gt;n45</title>
<path fill="none" stroke="black" d="M4384.3,-228.61C4436.1,-214.14 4498.47,-196.71 4551.5,-181.9"/>
<polygon fill="black" stroke="black" points="4552.6,-185.23 4561.29,-179.17 4550.71,-178.49 4552.6,-185.23"/>
</g>
<!-- n46 -->
<g id="node47" class="node">
<title>n46</title>
<ellipse fill="#98D2A5" stroke="black" cx="4667.73" cy="-37.48" rx="185.94" ry="37.45"/>
<text text-anchor="middle" x="4667.73" y="-48.78" font-family="Times,serif" font-size="14.00">agosto</text>
<text text-anchor="middle" x="4667.73" y="-33.78" font-family="Times,serif" font-size="14.00">ncms000 (pobj)</text>
<text text-anchor="middle" x="4667.73" y="-18.78" font-family="Times,serif" font-size="14.00">rep=no, t=no, r=no, m=yes, c=no</text>
</g>
<!-- n45&#45;&gt;n46 -->
<g id="edge46" class="edge">
<title>n45&#45;&gt;n46</title>
<path fill="none" stroke="black" d="M4667.73,-110.85C4667.73,-102.67 4667.73,-93.89 4667.73,-85.37"/>
<polygon fill="black" stroke="black" points="4671.23,-85.15 4667.73,-75.15 4664.23,-85.15 4671.23,-85.15"/>
</g>
</g>
</svg>
