<?xml version="1.0" encoding="UTF-8" standalone="no"?>
<!DOCTYPE svg PUBLIC "-//W3C//DTD SVG 1.1//EN"
 "http://www.w3.org/Graphics/SVG/1.1/DTD/svg11.dtd">
<!-- Generated by graphviz version 2.43.0 (0)
 -->
<!-- Title: tree Pages: 1 -->
<svg width="1954pt" height="527pt"
 viewBox="0.00 0.00 1953.65 526.77" xmlns="http://www.w3.org/2000/svg" xmlns:xlink="http://www.w3.org/1999/xlink">
<g id="graph0" class="graph" transform="scale(1 1) rotate(0) translate(4 522.77)">
<title>tree</title>
<polygon fill="white" stroke="transparent" points="-4,4 -4,-522.77 1949.65,-522.77 1949.65,4 -4,4"/>
<!-- n2 -->
<g id="node1" class="node">
<title>n2</title>
<ellipse fill="#98D2A5" stroke="black" cx="972.92" cy="-481.29" rx="190.84" ry="37.45"/>
<text text-anchor="middle" x="972.92" y="-492.59" font-family="Times,serif" font-size="14.00">empieza</text>
<text text-anchor="middle" x="972.92" y="-477.59" font-family="Times,serif" font-size="14.00">vmip3s0 (root)</text>
<text text-anchor="middle" x="972.92" y="-462.59" font-family="Times,serif" font-size="14.00">rep=no, t=no, r=yes, m=yes, c=no</text>
</g>
<!-- n1 -->
<g id="node2" class="node">
<title>n1</title>
<ellipse fill="#98D2A5" stroke="black" cx="190.92" cy="-370.34" rx="190.84" ry="37.45"/>
<text text-anchor="middle" x="190.92" y="-381.64" font-family="Times,serif" font-size="14.00">Lituania</text>
<text text-anchor="middle" x="190.92" y="-366.64" font-family="Times,serif" font-size="14.00">np00000 (nsubj)</text>
<text text-anchor="middle" x="190.92" y="-351.64" font-family="Times,serif" font-size="14.00">rep=no, t=yes, r=no, m=yes, c=no</text>
</g>
<!-- n2&#45;&gt;n1 -->
<g id="edge1" class="edge">
<title>n2&#45;&gt;n1</title>
<path fill="none" stroke="black" d="M808.26,-462.3C691.52,-448.93 531.32,-429.34 390.92,-407.81 372.95,-405.06 354.12,-401.94 335.5,-398.71"/>
<polygon fill="black" stroke="black" points="335.94,-395.23 325.49,-396.95 334.74,-402.12 335.94,-395.23"/>
</g>
<!-- n3 -->
<g id="node3" class="node">
<title>n3</title>
<ellipse fill="none" stroke="black" cx="581.92" cy="-370.34" rx="181.95" ry="37.45"/>
<text text-anchor="middle" x="581.92" y="-381.64" font-family="Times,serif" font-size="14.00">a</text>
<text text-anchor="middle" x="581.92" y="-366.64" font-family="Times,serif" font-size="14.00">sps00 (prepv)</text>
<text text-anchor="middle" x="581.92" y="-351.64" font-family="Times,serif" font-size="14.00">rep=no, t=no, r=no, m=no, c=no</text>
</g>
<!-- n2&#45;&gt;n3 -->
<g id="edge2" class="edge">
<title>n2&#45;&gt;n3</title>
<path fill="none" stroke="black" d="M865.3,-450.3C813.27,-435.8 750.75,-418.38 697.68,-403.59"/>
<polygon fill="black" stroke="black" points="698.46,-400.18 687.89,-400.87 696.58,-406.92 698.46,-400.18"/>
</g>
<!-- n5 -->
<g id="node4" class="node">
<title>n5</title>
<ellipse fill="#98D2A5" stroke="black" cx="972.92" cy="-370.34" rx="190.84" ry="37.45"/>
<text text-anchor="middle" x="972.92" y="-381.64" font-family="Times,serif" font-size="14.00">fichar</text>
<text text-anchor="middle" x="972.92" y="-366.64" font-family="Times,serif" font-size="14.00">vmn0000 (dobj)</text>
<text text-anchor="middle" x="972.92" y="-351.64" font-family="Times,serif" font-size="14.00">rep=no, t=no, r=yes, m=yes, c=no</text>
</g>
<!-- n2&#45;&gt;n5 -->
<g id="edge3" class="edge">
<title>n2&#45;&gt;n5</title>
<path fill="none" stroke="black" d="M972.92,-443.71C972.92,-435.53 972.92,-426.75 972.92,-418.23"/>
<polygon fill="black" stroke="black" points="976.42,-418.01 972.92,-408.01 969.42,-418.01 976.42,-418.01"/>
</g>
<!-- n7 -->
<g id="node5" class="node">
<title>n7</title>
<ellipse fill="#98D2A5" stroke="black" cx="1372.92" cy="-370.34" rx="190.84" ry="37.45"/>
<text text-anchor="middle" x="1372.92" y="-381.64" font-family="Times,serif" font-size="14.00">a</text>
<text text-anchor="middle" x="1372.92" y="-366.64" font-family="Times,serif" font-size="14.00">sps00 (dobj)</text>
<text text-anchor="middle" x="1372.92" y="-351.64" font-family="Times,serif" font-size="14.00">rep=no, t=no, r=yes, m=yes, c=no</text>
</g>
<!-- n2&#45;&gt;n7 -->
<g id="edge4" class="edge">
<title>n2&#45;&gt;n7</title>
<path fill="none" stroke="black" d="M1082.22,-450.52C1135.36,-436.04 1199.33,-418.62 1253.71,-403.81"/>
<polygon fill="black" stroke="black" points="1254.67,-407.17 1263.4,-401.17 1252.83,-400.42 1254.67,-407.17"/>
</g>
<!-- n12 -->
<g id="node6" class="node">
<title>n12</title>
<ellipse fill="none" stroke="black" cx="1763.92" cy="-370.34" rx="181.95" ry="37.45"/>
<text text-anchor="middle" x="1763.92" y="-381.64" font-family="Times,serif" font-size="14.00">.</text>
<text text-anchor="middle" x="1763.92" y="-366.64" font-family="Times,serif" font-size="14.00">fp (punct)</text>
<text text-anchor="middle" x="1763.92" y="-351.64" font-family="Times,serif" font-size="14.00">rep=no, t=no, r=no, m=no, c=no</text>
</g>
<!-- n2&#45;&gt;n12 -->
<g id="edge5" class="edge">
<title>n2&#45;&gt;n12</title>
<path fill="none" stroke="black" d="M1140.16,-463.19C1260.75,-450.11 1427.26,-430.49 1572.92,-407.81 1590.16,-405.13 1608.22,-402.04 1626.07,-398.82"/>
<polygon fill="black" stroke="black" points="1626.75,-402.26 1635.96,-397.03 1625.5,-395.37 1626.75,-402.26"/>
</g>
<!-- n4 -->
<g id="node7" class="node">
<title>n4</title>
<ellipse fill="#98D2A5" stroke="black" cx="572.92" cy="-259.38" rx="190.84" ry="37.45"/>
<text text-anchor="middle" x="572.92" y="-270.68" font-family="Times,serif" font-size="14.00">&#39;</text>
<text text-anchor="middle" x="572.92" y="-255.68" font-family="Times,serif" font-size="14.00">fz (punct)</text>
<text text-anchor="middle" x="572.92" y="-240.68" font-family="Times,serif" font-size="14.00">rep=no, t=no, r=yes, m=yes, c=no</text>
</g>
<!-- n5&#45;&gt;n4 -->
<g id="edge6" class="edge">
<title>n5&#45;&gt;n4</title>
<path fill="none" stroke="black" d="M863.62,-339.56C810.48,-325.09 746.51,-307.67 692.12,-292.85"/>
<polygon fill="black" stroke="black" points="693,-289.46 682.44,-290.21 691.16,-296.22 693,-289.46"/>
</g>
<!-- n6 -->
<g id="node8" class="node">
<title>n6</title>
<ellipse fill="#98D2A5" stroke="black" cx="972.92" cy="-259.38" rx="190.84" ry="37.45"/>
<text text-anchor="middle" x="972.92" y="-270.68" font-family="Times,serif" font-size="14.00">&#39;</text>
<text text-anchor="middle" x="972.92" y="-255.68" font-family="Times,serif" font-size="14.00">fz (punct)</text>
<text text-anchor="middle" x="972.92" y="-240.68" font-family="Times,serif" font-size="14.00">rep=no, t=no, r=yes, m=yes, c=no</text>
</g>
<!-- n5&#45;&gt;n6 -->
<g id="edge7" class="edge">
<title>n5&#45;&gt;n6</title>
<path fill="none" stroke="black" d="M972.92,-332.75C972.92,-324.58 972.92,-315.8 972.92,-307.27"/>
<polygon fill="black" stroke="black" points="976.42,-307.06 972.92,-297.06 969.42,-307.06 976.42,-307.06"/>
</g>
<!-- n9 -->
<g id="node9" class="node">
<title>n9</title>
<ellipse fill="#98D2A5" stroke="black" cx="1372.92" cy="-259.38" rx="190.84" ry="37.45"/>
<text text-anchor="middle" x="1372.92" y="-270.68" font-family="Times,serif" font-size="14.00">exagentes</text>
<text text-anchor="middle" x="1372.92" y="-255.68" font-family="Times,serif" font-size="14.00">nccp000 (pobj)</text>
<text text-anchor="middle" x="1372.92" y="-240.68" font-family="Times,serif" font-size="14.00">rep=no, t=no, r=yes, m=yes, c=no</text>
</g>
<!-- n7&#45;&gt;n9 -->
<g id="edge8" class="edge">
<title>n7&#45;&gt;n9</title>
<path fill="none" stroke="black" d="M1372.92,-332.75C1372.92,-324.58 1372.92,-315.8 1372.92,-307.27"/>
<polygon fill="black" stroke="black" points="1376.42,-307.06 1372.92,-297.06 1369.42,-307.06 1376.42,-307.06"/>
</g>
<!-- n8 -->
<g id="node10" class="node">
<title>n8</title>
<ellipse fill="#98D2A5" stroke="black" cx="1172.92" cy="-148.43" rx="190.84" ry="37.45"/>
<text text-anchor="middle" x="1172.92" y="-159.73" font-family="Times,serif" font-size="14.00">los</text>
<text text-anchor="middle" x="1172.92" y="-144.73" font-family="Times,serif" font-size="14.00">da0mp0 (det)</text>
<text text-anchor="middle" x="1172.92" y="-129.73" font-family="Times,serif" font-size="14.00">rep=no, t=no, r=yes, m=yes, c=no</text>
</g>
<!-- n9&#45;&gt;n8 -->
<g id="edge9" class="edge">
<title>n9&#45;&gt;n8</title>
<path fill="none" stroke="black" d="M1309.64,-223.91C1289.11,-212.73 1266.18,-200.24 1245.06,-188.73"/>
<polygon fill="black" stroke="black" points="1246.59,-185.58 1236.13,-183.87 1243.24,-191.72 1246.59,-185.58"/>
</g>
<!-- n10 -->
<g id="node11" class="node">
<title>n10</title>
<ellipse fill="#98D2A5" stroke="black" cx="1572.92" cy="-148.43" rx="190.84" ry="37.45"/>
<text text-anchor="middle" x="1572.92" y="-159.73" font-family="Times,serif" font-size="14.00">del</text>
<text text-anchor="middle" x="1572.92" y="-144.73" font-family="Times,serif" font-size="14.00">spcms (prepn)</text>
<text text-anchor="middle" x="1572.92" y="-129.73" font-family="Times,serif" font-size="14.00">rep=no, t=no, r=yes, m=yes, c=no</text>
</g>
<!-- n9&#45;&gt;n10 -->
<g id="edge10" class="edge">
<title>n9&#45;&gt;n10</title>
<path fill="none" stroke="black" d="M1436.2,-223.91C1456.73,-212.73 1479.65,-200.24 1500.78,-188.73"/>
<polygon fill="black" stroke="black" points="1502.6,-191.72 1509.71,-183.87 1499.25,-185.58 1502.6,-191.72"/>
</g>
<!-- n11 -->
<g id="node12" class="node">
<title>n11</title>
<ellipse fill="#98D2A5" stroke="black" cx="1572.92" cy="-37.48" rx="190.84" ry="37.45"/>
<text text-anchor="middle" x="1572.92" y="-48.78" font-family="Times,serif" font-size="14.00">KGB</text>
<text text-anchor="middle" x="1572.92" y="-33.78" font-family="Times,serif" font-size="14.00">np00000 (pobj)</text>
<text text-anchor="middle" x="1572.92" y="-18.78" font-family="Times,serif" font-size="14.00">rep=no, t=no, r=yes, m=yes, c=no</text>
</g>
<!-- n10&#45;&gt;n11 -->
<g id="edge11" class="edge">
<title>n10&#45;&gt;n11</title>
<path fill="none" stroke="black" d="M1572.92,-110.85C1572.92,-102.67 1572.92,-93.89 1572.92,-85.37"/>
<polygon fill="black" stroke="black" points="1576.42,-85.15 1572.92,-75.15 1569.42,-85.15 1576.42,-85.15"/>
</g>
</g>
</svg>
