<?xml version="1.0" encoding="UTF-8" standalone="no"?>
<!DOCTYPE svg PUBLIC "-//W3C//DTD SVG 1.1//EN"
 "http://www.w3.org/Graphics/SVG/1.1/DTD/svg11.dtd">
<!-- Generated by graphviz version 2.43.0 (0)
 -->
<!-- Title: tree Pages: 1 -->
<svg width="3950pt" height="1082pt"
 viewBox="0.00 0.00 3949.94 1081.53" xmlns="http://www.w3.org/2000/svg" xmlns:xlink="http://www.w3.org/1999/xlink">
<g id="graph0" class="graph" transform="scale(1 1) rotate(0) translate(4 1077.53)">
<title>tree</title>
<polygon fill="white" stroke="transparent" points="-4,4 -4,-1077.53 3945.94,-1077.53 3945.94,4 -4,4"/>
<!-- n32 -->
<g id="node1" class="node">
<title>n32</title>
<ellipse fill="#98D2A5" stroke="black" cx="1950.97" cy="-1036.06" rx="185.94" ry="37.45"/>
<text text-anchor="middle" x="1950.97" y="-1047.36" font-family="Times,serif" font-size="14.00">explicó</text>
<text text-anchor="middle" x="1950.97" y="-1032.36" font-family="Times,serif" font-size="14.00">vmis3s0 (root)</text>
<text text-anchor="middle" x="1950.97" y="-1017.36" font-family="Times,serif" font-size="14.00">rep=no, t=no, r=no, m=yes, c=no</text>
</g>
<!-- n33 -->
<g id="node2" class="node">
<title>n33</title>
<ellipse fill="#98D2A5" stroke="black" cx="1757.97" cy="-925.1" rx="185.94" ry="37.45"/>
<text text-anchor="middle" x="1757.97" y="-936.4" font-family="Times,serif" font-size="14.00">Maria</text>
<text text-anchor="middle" x="1757.97" y="-921.4" font-family="Times,serif" font-size="14.00">ncfs000 (nsubj)</text>
<text text-anchor="middle" x="1757.97" y="-906.4" font-family="Times,serif" font-size="14.00">rep=no, t=no, r=no, m=yes, c=no</text>
</g>
<!-- n32&#45;&gt;n33 -->
<g id="edge1" class="edge">
<title>n32&#45;&gt;n33</title>
<path fill="none" stroke="black" d="M1889.9,-1000.58C1870.18,-989.45 1848.17,-977.02 1827.86,-965.56"/>
<polygon fill="black" stroke="black" points="1829.4,-962.41 1818.97,-960.54 1825.96,-968.5 1829.4,-962.41"/>
</g>
<!-- n45 -->
<g id="node3" class="node">
<title>n45</title>
<ellipse fill="none" stroke="black" cx="2143.97" cy="-925.1" rx="181.95" ry="37.45"/>
<text text-anchor="middle" x="2143.97" y="-936.4" font-family="Times,serif" font-size="14.00">.</text>
<text text-anchor="middle" x="2143.97" y="-921.4" font-family="Times,serif" font-size="14.00">fp (punct)</text>
<text text-anchor="middle" x="2143.97" y="-906.4" font-family="Times,serif" font-size="14.00">rep=no, t=no, r=no, m=no, c=no</text>
</g>
<!-- n32&#45;&gt;n45 -->
<g id="edge2" class="edge">
<title>n32&#45;&gt;n45</title>
<path fill="none" stroke="black" d="M2012.04,-1000.58C2031.76,-989.45 2053.77,-977.02 2074.08,-965.56"/>
<polygon fill="black" stroke="black" points="2075.98,-968.5 2082.97,-960.54 2072.54,-962.41 2075.98,-968.5"/>
</g>
<!-- n1 -->
<g id="node4" class="node">
<title>n1</title>
<ellipse fill="#98D2A5" stroke="black" cx="392.97" cy="-814.15" rx="185.94" ry="37.45"/>
<text text-anchor="middle" x="392.97" y="-825.45" font-family="Times,serif" font-size="14.00">&quot;</text>
<text text-anchor="middle" x="392.97" y="-810.45" font-family="Times,serif" font-size="14.00">fe (punct)</text>
<text text-anchor="middle" x="392.97" y="-795.45" font-family="Times,serif" font-size="14.00">rep=no, t=no, r=no, m=yes, c=no</text>
</g>
<!-- n33&#45;&gt;n1 -->
<g id="edge3" class="edge">
<title>n33&#45;&gt;n1</title>
<path fill="none" stroke="black" d="M1573.93,-919.7C1342.91,-912.57 934.85,-894.65 587.97,-851.63 569.41,-849.33 549.96,-846.36 530.82,-843.12"/>
<polygon fill="black" stroke="black" points="531.3,-839.65 520.85,-841.39 530.11,-846.54 531.3,-839.65"/>
</g>
<!-- n3 -->
<g id="node5" class="node">
<title>n3</title>
<ellipse fill="#98D2A5" stroke="black" cx="782.97" cy="-814.15" rx="185.94" ry="37.45"/>
<text text-anchor="middle" x="782.97" y="-825.45" font-family="Times,serif" font-size="14.00">reivindicamos</text>
<text text-anchor="middle" x="782.97" y="-810.45" font-family="Times,serif" font-size="14.00">vmip1p0 (dep)</text>
<text text-anchor="middle" x="782.97" y="-795.45" font-family="Times,serif" font-size="14.00">rep=no, t=no, r=no, m=yes, c=no</text>
</g>
<!-- n33&#45;&gt;n3 -->
<g id="edge4" class="edge">
<title>n33&#45;&gt;n3</title>
<path fill="none" stroke="black" d="M1582.79,-912.47C1424.36,-900.84 1184.89,-880.53 977.97,-851.63 959.97,-849.11 941.11,-846.08 922.5,-842.86"/>
<polygon fill="black" stroke="black" points="922.95,-839.39 912.5,-841.11 921.74,-846.28 922.95,-839.39"/>
</g>
<!-- n5 -->
<g id="node6" class="node">
<title>n5</title>
<ellipse fill="#98D2A5" stroke="black" cx="1172.97" cy="-814.15" rx="185.94" ry="37.45"/>
<text text-anchor="middle" x="1172.97" y="-825.45" font-family="Times,serif" font-size="14.00">.</text>
<text text-anchor="middle" x="1172.97" y="-810.45" font-family="Times,serif" font-size="14.00">fp (punct)</text>
<text text-anchor="middle" x="1172.97" y="-795.45" font-family="Times,serif" font-size="14.00">rep=no, t=no, r=no, m=yes, c=no</text>
</g>
<!-- n33&#45;&gt;n5 -->
<g id="edge5" class="edge">
<title>n33&#45;&gt;n5</title>
<path fill="none" stroke="black" d="M1623.49,-899.15C1548.32,-885.2 1452.93,-867.47 1367.97,-851.63 1351.48,-848.55 1334.21,-845.33 1317.05,-842.12"/>
<polygon fill="black" stroke="black" points="1317.44,-838.63 1306.97,-840.24 1316.16,-845.52 1317.44,-838.63"/>
</g>
<!-- n6 -->
<g id="node7" class="node">
<title>n6</title>
<ellipse fill="#98D2A5" stroke="black" cx="1562.97" cy="-814.15" rx="185.94" ry="37.45"/>
<text text-anchor="middle" x="1562.97" y="-825.45" font-family="Times,serif" font-size="14.00">Hemos</text>
<text text-anchor="middle" x="1562.97" y="-810.45" font-family="Times,serif" font-size="14.00">vaip1p0 (dep)</text>
<text text-anchor="middle" x="1562.97" y="-795.45" font-family="Times,serif" font-size="14.00">rep=no, t=no, r=no, m=yes, c=no</text>
</g>
<!-- n33&#45;&gt;n6 -->
<g id="edge6" class="edge">
<title>n33&#45;&gt;n6</title>
<path fill="none" stroke="black" d="M1696.27,-889.63C1676.34,-878.5 1654.1,-866.07 1633.58,-854.61"/>
<polygon fill="black" stroke="black" points="1635.04,-851.41 1624.6,-849.59 1631.62,-857.52 1635.04,-851.41"/>
</g>
<!-- n31 -->
<g id="node8" class="node">
<title>n31</title>
<ellipse fill="#98D2A5" stroke="black" cx="1952.97" cy="-814.15" rx="185.94" ry="37.45"/>
<text text-anchor="middle" x="1952.97" y="-825.45" font-family="Times,serif" font-size="14.00">&quot;</text>
<text text-anchor="middle" x="1952.97" y="-810.45" font-family="Times,serif" font-size="14.00">fe (punct)</text>
<text text-anchor="middle" x="1952.97" y="-795.45" font-family="Times,serif" font-size="14.00">rep=no, t=no, r=no, m=yes, c=no</text>
</g>
<!-- n33&#45;&gt;n31 -->
<g id="edge7" class="edge">
<title>n33&#45;&gt;n31</title>
<path fill="none" stroke="black" d="M1819.67,-889.63C1839.59,-878.5 1861.84,-866.07 1882.35,-854.61"/>
<polygon fill="black" stroke="black" points="1884.31,-857.52 1891.34,-849.59 1880.9,-851.41 1884.31,-857.52"/>
</g>
<!-- n34 -->
<g id="node9" class="node">
<title>n34</title>
<ellipse fill="#98D2A5" stroke="black" cx="2342.97" cy="-814.15" rx="185.94" ry="37.45"/>
<text text-anchor="middle" x="2342.97" y="-825.45" font-family="Times,serif" font-size="14.00">Lluïsa</text>
<text text-anchor="middle" x="2342.97" y="-810.45" font-family="Times,serif" font-size="14.00">ncms000 (appos)</text>
<text text-anchor="middle" x="2342.97" y="-795.45" font-family="Times,serif" font-size="14.00">rep=no, t=no, r=no, m=yes, c=no</text>
</g>
<!-- n33&#45;&gt;n34 -->
<g id="edge8" class="edge">
<title>n33&#45;&gt;n34</title>
<path fill="none" stroke="black" d="M1891.7,-899.04C1912.22,-895.21 1933.16,-891.31 1952.97,-887.63 2039.62,-871.52 2061.32,-867.73 2147.97,-851.63 2164.53,-848.55 2181.88,-845.32 2199.11,-842.1"/>
<polygon fill="black" stroke="black" points="2200.05,-845.49 2209.23,-840.21 2198.76,-838.6 2200.05,-845.49"/>
</g>
<!-- n36 -->
<g id="node10" class="node">
<title>n36</title>
<ellipse fill="#98D2A5" stroke="black" cx="2732.97" cy="-814.15" rx="185.94" ry="37.45"/>
<text text-anchor="middle" x="2732.97" y="-825.45" font-family="Times,serif" font-size="14.00">,</text>
<text text-anchor="middle" x="2732.97" y="-810.45" font-family="Times,serif" font-size="14.00">fc (punct)</text>
<text text-anchor="middle" x="2732.97" y="-795.45" font-family="Times,serif" font-size="14.00">rep=no, t=no, r=no, m=yes, c=no</text>
</g>
<!-- n33&#45;&gt;n36 -->
<g id="edge9" class="edge">
<title>n33&#45;&gt;n36</title>
<path fill="none" stroke="black" d="M1885.85,-897.85C1908.15,-893.94 1931.18,-890.32 1952.97,-887.63 2211.49,-855.62 2279.45,-883.64 2537.97,-851.63 2556.52,-849.33 2575.98,-846.37 2595.12,-843.12"/>
<polygon fill="black" stroke="black" points="2595.83,-846.55 2605.09,-841.4 2594.64,-839.65 2595.83,-846.55"/>
</g>
<!-- n37 -->
<g id="node11" class="node">
<title>n37</title>
<ellipse fill="#98D2A5" stroke="black" cx="3122.97" cy="-814.15" rx="185.94" ry="37.45"/>
<text text-anchor="middle" x="3122.97" y="-825.45" font-family="Times,serif" font-size="14.00">miembro</text>
<text text-anchor="middle" x="3122.97" y="-810.45" font-family="Times,serif" font-size="14.00">ncms000 (appos)</text>
<text text-anchor="middle" x="3122.97" y="-795.45" font-family="Times,serif" font-size="14.00">rep=no, t=no, r=no, m=yes, c=no</text>
</g>
<!-- n33&#45;&gt;n37 -->
<g id="edge10" class="edge">
<title>n33&#45;&gt;n37</title>
<path fill="none" stroke="black" d="M1884.48,-897.63C1907.2,-893.68 1930.72,-890.1 1952.97,-887.63 2383.93,-839.63 2497,-899.62 2927.97,-851.63 2947,-849.51 2966.97,-846.59 2986.56,-843.31"/>
<polygon fill="black" stroke="black" points="2987.19,-846.76 2996.45,-841.63 2986.01,-839.86 2987.19,-846.76"/>
</g>
<!-- n2 -->
<g id="node12" class="node">
<title>n2</title>
<ellipse fill="#98D2A5" stroke="black" cx="587.97" cy="-703.2" rx="185.94" ry="37.45"/>
<text text-anchor="middle" x="587.97" y="-714.5" font-family="Times,serif" font-size="14.00">No</text>
<text text-anchor="middle" x="587.97" y="-699.5" font-family="Times,serif" font-size="14.00">rn (neg)</text>
<text text-anchor="middle" x="587.97" y="-684.5" font-family="Times,serif" font-size="14.00">rep=no, t=no, r=no, m=yes, c=no</text>
</g>
<!-- n3&#45;&gt;n2 -->
<g id="edge11" class="edge">
<title>n3&#45;&gt;n2</title>
<path fill="none" stroke="black" d="M721.27,-778.68C701.34,-767.54 679.1,-755.12 658.58,-743.65"/>
<polygon fill="black" stroke="black" points="660.04,-740.45 649.6,-738.63 656.62,-746.57 660.04,-740.45"/>
</g>
<!-- n4 -->
<g id="node13" class="node">
<title>n4</title>
<ellipse fill="#98D2A5" stroke="black" cx="977.97" cy="-703.2" rx="185.94" ry="37.45"/>
<text text-anchor="middle" x="977.97" y="-714.5" font-family="Times,serif" font-size="14.00">nada</text>
<text text-anchor="middle" x="977.97" y="-699.5" font-family="Times,serif" font-size="14.00">pi0cs000 (dobj)</text>
<text text-anchor="middle" x="977.97" y="-684.5" font-family="Times,serif" font-size="14.00">rep=no, t=no, r=no, m=yes, c=no</text>
</g>
<!-- n3&#45;&gt;n4 -->
<g id="edge12" class="edge">
<title>n3&#45;&gt;n4</title>
<path fill="none" stroke="black" d="M844.67,-778.68C864.59,-767.54 886.84,-755.12 907.35,-743.65"/>
<polygon fill="black" stroke="black" points="909.31,-746.57 916.34,-738.63 905.9,-740.45 909.31,-746.57"/>
</g>
<!-- n7 -->
<g id="node14" class="node">
<title>n7</title>
<ellipse fill="#98D2A5" stroke="black" cx="1562.97" cy="-703.2" rx="185.94" ry="37.45"/>
<text text-anchor="middle" x="1562.97" y="-714.5" font-family="Times,serif" font-size="14.00">venido</text>
<text text-anchor="middle" x="1562.97" y="-699.5" font-family="Times,serif" font-size="14.00">vmp00sm (vobj)</text>
<text text-anchor="middle" x="1562.97" y="-684.5" font-family="Times,serif" font-size="14.00">rep=no, t=no, r=no, m=yes, c=no</text>
</g>
<!-- n6&#45;&gt;n7 -->
<g id="edge13" class="edge">
<title>n6&#45;&gt;n7</title>
<path fill="none" stroke="black" d="M1562.97,-776.57C1562.97,-768.39 1562.97,-759.61 1562.97,-751.09"/>
<polygon fill="black" stroke="black" points="1566.47,-750.87 1562.97,-740.87 1559.47,-750.87 1566.47,-750.87"/>
</g>
<!-- n35 -->
<g id="node38" class="node">
<title>n35</title>
<ellipse fill="#98D2A5" stroke="black" cx="2342.97" cy="-703.2" rx="185.94" ry="37.45"/>
<text text-anchor="middle" x="2342.97" y="-714.5" font-family="Times,serif" font-size="14.00">Massip</text>
<text text-anchor="middle" x="2342.97" y="-699.5" font-family="Times,serif" font-size="14.00">np00000 (appos)</text>
<text text-anchor="middle" x="2342.97" y="-684.5" font-family="Times,serif" font-size="14.00">rep=no, t=no, r=no, m=yes, c=no</text>
</g>
<!-- n34&#45;&gt;n35 -->
<g id="edge37" class="edge">
<title>n34&#45;&gt;n35</title>
<path fill="none" stroke="black" d="M2342.97,-776.57C2342.97,-768.39 2342.97,-759.61 2342.97,-751.09"/>
<polygon fill="black" stroke="black" points="2346.47,-750.87 2342.97,-740.87 2339.47,-750.87 2346.47,-750.87"/>
</g>
<!-- n38 -->
<g id="node39" class="node">
<title>n38</title>
<ellipse fill="#98D2A5" stroke="black" cx="3122.97" cy="-703.2" rx="185.94" ry="37.45"/>
<text text-anchor="middle" x="3122.97" y="-714.5" font-family="Times,serif" font-size="14.00">del</text>
<text text-anchor="middle" x="3122.97" y="-699.5" font-family="Times,serif" font-size="14.00">spcms (prepn)</text>
<text text-anchor="middle" x="3122.97" y="-684.5" font-family="Times,serif" font-size="14.00">rep=no, t=no, r=no, m=yes, c=no</text>
</g>
<!-- n37&#45;&gt;n38 -->
<g id="edge38" class="edge">
<title>n37&#45;&gt;n38</title>
<path fill="none" stroke="black" d="M3122.97,-776.57C3122.97,-768.39 3122.97,-759.61 3122.97,-751.09"/>
<polygon fill="black" stroke="black" points="3126.47,-750.87 3122.97,-740.87 3119.47,-750.87 3126.47,-750.87"/>
</g>
<!-- n8 -->
<g id="node15" class="node">
<title>n8</title>
<ellipse fill="#98D2A5" stroke="black" cx="1562.97" cy="-592.24" rx="185.94" ry="37.45"/>
<text text-anchor="middle" x="1562.97" y="-603.54" font-family="Times,serif" font-size="14.00">a</text>
<text text-anchor="middle" x="1562.97" y="-588.54" font-family="Times,serif" font-size="14.00">sps00 (prepv)</text>
<text text-anchor="middle" x="1562.97" y="-573.54" font-family="Times,serif" font-size="14.00">rep=no, t=no, r=no, m=yes, c=no</text>
</g>
<!-- n7&#45;&gt;n8 -->
<g id="edge14" class="edge">
<title>n7&#45;&gt;n8</title>
<path fill="none" stroke="black" d="M1562.97,-665.61C1562.97,-657.44 1562.97,-648.66 1562.97,-640.13"/>
<polygon fill="black" stroke="black" points="1566.47,-639.92 1562.97,-629.92 1559.47,-639.92 1566.47,-639.92"/>
</g>
<!-- n9 -->
<g id="node16" class="node">
<title>n9</title>
<ellipse fill="#98D2A5" stroke="black" cx="1562.97" cy="-481.29" rx="185.94" ry="37.45"/>
<text text-anchor="middle" x="1562.97" y="-492.59" font-family="Times,serif" font-size="14.00">decir</text>
<text text-anchor="middle" x="1562.97" y="-477.59" font-family="Times,serif" font-size="14.00">vmn0000 (pobj)</text>
<text text-anchor="middle" x="1562.97" y="-462.59" font-family="Times,serif" font-size="14.00">rep=no, t=no, r=no, m=yes, c=no</text>
</g>
<!-- n8&#45;&gt;n9 -->
<g id="edge15" class="edge">
<title>n8&#45;&gt;n9</title>
<path fill="none" stroke="black" d="M1562.97,-554.66C1562.97,-546.49 1562.97,-537.71 1562.97,-529.18"/>
<polygon fill="black" stroke="black" points="1566.47,-528.96 1562.97,-518.96 1559.47,-528.96 1566.47,-528.96"/>
</g>
<!-- n10 -->
<g id="node17" class="node">
<title>n10</title>
<ellipse fill="#98D2A5" stroke="black" cx="1562.97" cy="-370.34" rx="185.94" ry="37.45"/>
<text text-anchor="middle" x="1562.97" y="-381.64" font-family="Times,serif" font-size="14.00">que</text>
<text text-anchor="middle" x="1562.97" y="-366.64" font-family="Times,serif" font-size="14.00">cs (dobj)</text>
<text text-anchor="middle" x="1562.97" y="-351.64" font-family="Times,serif" font-size="14.00">rep=no, t=no, r=no, m=yes, c=no</text>
</g>
<!-- n9&#45;&gt;n10 -->
<g id="edge16" class="edge">
<title>n9&#45;&gt;n10</title>
<path fill="none" stroke="black" d="M1562.97,-443.71C1562.97,-435.53 1562.97,-426.75 1562.97,-418.23"/>
<polygon fill="black" stroke="black" points="1566.47,-418.01 1562.97,-408.01 1559.47,-418.01 1566.47,-418.01"/>
</g>
<!-- n15 -->
<g id="node18" class="node">
<title>n15</title>
<ellipse fill="#98D2A5" stroke="black" cx="762.97" cy="-259.38" rx="190.84" ry="37.45"/>
<text text-anchor="middle" x="762.97" y="-270.68" font-family="Times,serif" font-size="14.00">discrimina</text>
<text text-anchor="middle" x="762.97" y="-255.68" font-family="Times,serif" font-size="14.00">vmip3s0 (cobj)</text>
<text text-anchor="middle" x="762.97" y="-240.68" font-family="Times,serif" font-size="14.00">rep=no, t=no, r=no, m=yes, c=yes</text>
</g>
<!-- n10&#45;&gt;n15 -->
<g id="edge17" class="edge">
<title>n10&#45;&gt;n15</title>
<path fill="none" stroke="black" d="M1399.63,-352.29C1278.78,-339.03 1110.28,-319.17 962.97,-296.86 944.92,-294.13 926.01,-291.01 907.31,-287.78"/>
<polygon fill="black" stroke="black" points="907.71,-284.29 897.26,-286.02 906.51,-291.19 907.71,-284.29"/>
</g>
<!-- n17 -->
<g id="node19" class="node">
<title>n17</title>
<ellipse fill="#98D2A5" stroke="black" cx="1162.97" cy="-259.38" rx="190.84" ry="37.45"/>
<text text-anchor="middle" x="1162.97" y="-270.68" font-family="Times,serif" font-size="14.00">por</text>
<text text-anchor="middle" x="1162.97" y="-255.68" font-family="Times,serif" font-size="14.00">sps00 (cobj)</text>
<text text-anchor="middle" x="1162.97" y="-240.68" font-family="Times,serif" font-size="14.00">rep=no, t=no, r=no, m=yes, c=yes</text>
</g>
<!-- n10&#45;&gt;n17 -->
<g id="edge18" class="edge">
<title>n10&#45;&gt;n17</title>
<path fill="none" stroke="black" d="M1454.72,-339.85C1401.36,-325.32 1336.86,-307.75 1282.1,-292.83"/>
<polygon fill="black" stroke="black" points="1282.91,-289.43 1272.34,-290.18 1281.07,-296.18 1282.91,-289.43"/>
</g>
<!-- n22 -->
<g id="node20" class="node">
<title>n22</title>
<ellipse fill="#98D2A5" stroke="black" cx="1562.97" cy="-259.38" rx="190.84" ry="37.45"/>
<text text-anchor="middle" x="1562.97" y="-270.68" font-family="Times,serif" font-size="14.00">por</text>
<text text-anchor="middle" x="1562.97" y="-255.68" font-family="Times,serif" font-size="14.00">sps00 (cobj)</text>
<text text-anchor="middle" x="1562.97" y="-240.68" font-family="Times,serif" font-size="14.00">rep=no, t=no, r=no, m=yes, c=yes</text>
</g>
<!-- n10&#45;&gt;n22 -->
<g id="edge19" class="edge">
<title>n10&#45;&gt;n22</title>
<path fill="none" stroke="black" d="M1562.97,-332.75C1562.97,-324.58 1562.97,-315.8 1562.97,-307.27"/>
<polygon fill="black" stroke="black" points="1566.47,-307.06 1562.97,-297.06 1559.47,-307.06 1566.47,-307.06"/>
</g>
<!-- n26 -->
<g id="node21" class="node">
<title>n26</title>
<ellipse fill="#98D2A5" stroke="black" cx="2330.97" cy="-259.38" rx="185.94" ry="37.45"/>
<text text-anchor="middle" x="2330.97" y="-270.68" font-family="Times,serif" font-size="14.00">ni</text>
<text text-anchor="middle" x="2330.97" y="-255.68" font-family="Times,serif" font-size="14.00">cc (coord_fixed)</text>
<text text-anchor="middle" x="2330.97" y="-240.68" font-family="Times,serif" font-size="14.00">rep=no, t=no, r=no, m=yes, c=no</text>
</g>
<!-- n10&#45;&gt;n26 -->
<g id="edge20" class="edge">
<title>n10&#45;&gt;n26</title>
<path fill="none" stroke="black" d="M1712.87,-348.07C1844.78,-329.36 2036.3,-302.19 2171.11,-283.06"/>
<polygon fill="black" stroke="black" points="2171.71,-286.51 2181.12,-281.64 2170.73,-279.58 2171.71,-286.51"/>
</g>
<!-- n27 -->
<g id="node22" class="node">
<title>n27</title>
<ellipse fill="#98D2A5" stroke="black" cx="2775.97" cy="-259.38" rx="190.84" ry="37.45"/>
<text text-anchor="middle" x="2775.97" y="-270.68" font-family="Times,serif" font-size="14.00">por</text>
<text text-anchor="middle" x="2775.97" y="-255.68" font-family="Times,serif" font-size="14.00">sps00 (cobj)</text>
<text text-anchor="middle" x="2775.97" y="-240.68" font-family="Times,serif" font-size="14.00">rep=no, t=no, r=no, m=yes, c=yes</text>
</g>
<!-- n10&#45;&gt;n27 -->
<g id="edge21" class="edge">
<title>n10&#45;&gt;n27</title>
<path fill="none" stroke="black" d="M1741.24,-359.65C1934.8,-348.27 2252.88,-327.02 2525.97,-296.86 2556.26,-293.51 2588.53,-289.3 2619.46,-284.93"/>
<polygon fill="black" stroke="black" points="2620.05,-288.38 2629.45,-283.51 2619.06,-281.45 2620.05,-288.38"/>
</g>
<!-- n12 -->
<g id="node23" class="node">
<title>n12</title>
<ellipse fill="#98D2A5" stroke="black" cx="375.97" cy="-148.43" rx="185.94" ry="37.45"/>
<text text-anchor="middle" x="375.97" y="-159.73" font-family="Times,serif" font-size="14.00">escuela</text>
<text text-anchor="middle" x="375.97" y="-144.73" font-family="Times,serif" font-size="14.00">ncfs000 (nsubj)</text>
<text text-anchor="middle" x="375.97" y="-129.73" font-family="Times,serif" font-size="14.00">rep=no, t=no, r=no, m=yes, c=no</text>
</g>
<!-- n15&#45;&gt;n12 -->
<g id="edge22" class="edge">
<title>n15&#45;&gt;n12</title>
<path fill="none" stroke="black" d="M655.94,-228.25C604.97,-213.9 543.93,-196.72 491.87,-182.06"/>
<polygon fill="black" stroke="black" points="492.5,-178.6 481.92,-179.26 490.6,-185.34 492.5,-178.6"/>
</g>
<!-- n14 -->
<g id="node24" class="node">
<title>n14</title>
<ellipse fill="#98D2A5" stroke="black" cx="765.97" cy="-148.43" rx="185.94" ry="37.45"/>
<text text-anchor="middle" x="765.97" y="-159.73" font-family="Times,serif" font-size="14.00">no</text>
<text text-anchor="middle" x="765.97" y="-144.73" font-family="Times,serif" font-size="14.00">rn (neg)</text>
<text text-anchor="middle" x="765.97" y="-129.73" font-family="Times,serif" font-size="14.00">rep=no, t=no, r=no, m=yes, c=no</text>
</g>
<!-- n15&#45;&gt;n14 -->
<g id="edge23" class="edge">
<title>n15&#45;&gt;n14</title>
<path fill="none" stroke="black" d="M763.98,-221.8C764.2,-213.63 764.44,-204.85 764.68,-196.32"/>
<polygon fill="black" stroke="black" points="768.18,-196.19 764.96,-186.1 761.19,-196 768.18,-196.19"/>
</g>
<!-- n19 -->
<g id="node27" class="node">
<title>n19</title>
<ellipse fill="#98D2A5" stroke="black" cx="1160.97" cy="-148.43" rx="185.94" ry="37.45"/>
<text text-anchor="middle" x="1160.97" y="-159.73" font-family="Times,serif" font-size="14.00">sexo</text>
<text text-anchor="middle" x="1160.97" y="-144.73" font-family="Times,serif" font-size="14.00">ncms000 (pobj)</text>
<text text-anchor="middle" x="1160.97" y="-129.73" font-family="Times,serif" font-size="14.00">rep=no, t=no, r=no, m=yes, c=no</text>
</g>
<!-- n17&#45;&gt;n19 -->
<g id="edge26" class="edge">
<title>n17&#45;&gt;n19</title>
<path fill="none" stroke="black" d="M1162.3,-221.8C1162.15,-213.63 1161.99,-204.85 1161.83,-196.32"/>
<polygon fill="black" stroke="black" points="1165.33,-196.04 1161.64,-186.1 1158.33,-196.16 1165.33,-196.04"/>
</g>
<!-- n24 -->
<g id="node29" class="node">
<title>n24</title>
<ellipse fill="#98D2A5" stroke="black" cx="1550.97" cy="-148.43" rx="185.94" ry="37.45"/>
<text text-anchor="middle" x="1550.97" y="-159.73" font-family="Times,serif" font-size="14.00">raza</text>
<text text-anchor="middle" x="1550.97" y="-144.73" font-family="Times,serif" font-size="14.00">ncfs000 (pobj)</text>
<text text-anchor="middle" x="1550.97" y="-129.73" font-family="Times,serif" font-size="14.00">rep=no, t=no, r=no, m=yes, c=no</text>
</g>
<!-- n22&#45;&gt;n24 -->
<g id="edge28" class="edge">
<title>n22&#45;&gt;n24</title>
<path fill="none" stroke="black" d="M1558.94,-221.8C1558.04,-213.63 1557.07,-204.85 1556.13,-196.32"/>
<polygon fill="black" stroke="black" points="1559.58,-195.66 1555.01,-186.1 1552.62,-196.42 1559.58,-195.66"/>
</g>
<!-- n16 -->
<g id="node31" class="node">
<title>n16</title>
<ellipse fill="#98D2A5" stroke="black" cx="1940.97" cy="-148.43" rx="185.94" ry="37.45"/>
<text text-anchor="middle" x="1940.97" y="-159.73" font-family="Times,serif" font-size="14.00">ni</text>
<text text-anchor="middle" x="1940.97" y="-144.73" font-family="Times,serif" font-size="14.00">cc (coord_fixed)</text>
<text text-anchor="middle" x="1940.97" y="-129.73" font-family="Times,serif" font-size="14.00">rep=no, t=no, r=no, m=yes, c=no</text>
</g>
<!-- n26&#45;&gt;n16 -->
<g id="edge30" class="edge">
<title>n26&#45;&gt;n16</title>
<path fill="none" stroke="black" d="M2224.4,-228.61C2172.59,-214.14 2110.23,-196.71 2057.2,-181.9"/>
<polygon fill="black" stroke="black" points="2057.98,-178.49 2047.41,-179.17 2056.1,-185.23 2057.98,-178.49"/>
</g>
<!-- n20 -->
<g id="node32" class="node">
<title>n20</title>
<ellipse fill="#98D2A5" stroke="black" cx="2330.97" cy="-148.43" rx="185.94" ry="37.45"/>
<text text-anchor="middle" x="2330.97" y="-159.73" font-family="Times,serif" font-size="14.00">,</text>
<text text-anchor="middle" x="2330.97" y="-144.73" font-family="Times,serif" font-size="14.00">fc (punct)</text>
<text text-anchor="middle" x="2330.97" y="-129.73" font-family="Times,serif" font-size="14.00">rep=no, t=no, r=no, m=yes, c=no</text>
</g>
<!-- n26&#45;&gt;n20 -->
<g id="edge31" class="edge">
<title>n26&#45;&gt;n20</title>
<path fill="none" stroke="black" d="M2330.97,-221.8C2330.97,-213.63 2330.97,-204.85 2330.97,-196.32"/>
<polygon fill="black" stroke="black" points="2334.47,-196.1 2330.97,-186.1 2327.47,-196.1 2334.47,-196.1"/>
</g>
<!-- n21 -->
<g id="node33" class="node">
<title>n21</title>
<ellipse fill="#98D2A5" stroke="black" cx="2720.97" cy="-148.43" rx="185.94" ry="37.45"/>
<text text-anchor="middle" x="2720.97" y="-159.73" font-family="Times,serif" font-size="14.00">ni</text>
<text text-anchor="middle" x="2720.97" y="-144.73" font-family="Times,serif" font-size="14.00">cc (coord_fixed)</text>
<text text-anchor="middle" x="2720.97" y="-129.73" font-family="Times,serif" font-size="14.00">rep=no, t=no, r=no, m=yes, c=no</text>
</g>
<!-- n26&#45;&gt;n21 -->
<g id="edge32" class="edge">
<title>n26&#45;&gt;n21</title>
<path fill="none" stroke="black" d="M2437.54,-228.61C2489.34,-214.14 2551.71,-196.71 2604.74,-181.9"/>
<polygon fill="black" stroke="black" points="2605.84,-185.23 2614.53,-179.17 2603.96,-178.49 2605.84,-185.23"/>
</g>
<!-- n25 -->
<g id="node34" class="node">
<title>n25</title>
<ellipse fill="#98D2A5" stroke="black" cx="3110.97" cy="-148.43" rx="185.94" ry="37.45"/>
<text text-anchor="middle" x="3110.97" y="-159.73" font-family="Times,serif" font-size="14.00">,</text>
<text text-anchor="middle" x="3110.97" y="-144.73" font-family="Times,serif" font-size="14.00">fc (punct)</text>
<text text-anchor="middle" x="3110.97" y="-129.73" font-family="Times,serif" font-size="14.00">rep=no, t=no, r=no, m=yes, c=no</text>
</g>
<!-- n26&#45;&gt;n25 -->
<g id="edge33" class="edge">
<title>n26&#45;&gt;n25</title>
<path fill="none" stroke="black" d="M2475.6,-235.81C2508.56,-230.96 2543.44,-226.05 2575.97,-221.91 2726.71,-202.71 2765.61,-207.89 2915.97,-185.91 2933.81,-183.3 2952.5,-180.23 2970.96,-177"/>
<polygon fill="black" stroke="black" points="2971.64,-180.44 2980.88,-175.25 2970.42,-173.54 2971.64,-180.44"/>
</g>
<!-- n29 -->
<g id="node35" class="node">
<title>n29</title>
<ellipse fill="#98D2A5" stroke="black" cx="3500.97" cy="-148.43" rx="185.94" ry="37.45"/>
<text text-anchor="middle" x="3500.97" y="-159.73" font-family="Times,serif" font-size="14.00">situación</text>
<text text-anchor="middle" x="3500.97" y="-144.73" font-family="Times,serif" font-size="14.00">ncfs000 (pobj)</text>
<text text-anchor="middle" x="3500.97" y="-129.73" font-family="Times,serif" font-size="14.00">rep=no, t=no, r=no, m=yes, c=no</text>
</g>
<!-- n27&#45;&gt;n29 -->
<g id="edge34" class="edge">
<title>n27&#45;&gt;n29</title>
<path fill="none" stroke="black" d="M2935.14,-238.69C3040.54,-225.13 3181.75,-206.01 3305.97,-185.91 3323.32,-183.1 3341.51,-179.96 3359.51,-176.73"/>
<polygon fill="black" stroke="black" points="3360.26,-180.15 3369.48,-174.93 3359.02,-173.27 3360.26,-180.15"/>
</g>
<!-- n11 -->
<g id="node25" class="node">
<title>n11</title>
<ellipse fill="#98D2A5" stroke="black" cx="185.97" cy="-37.48" rx="185.94" ry="37.45"/>
<text text-anchor="middle" x="185.97" y="-48.78" font-family="Times,serif" font-size="14.00">la</text>
<text text-anchor="middle" x="185.97" y="-33.78" font-family="Times,serif" font-size="14.00">da0fs0 (det)</text>
<text text-anchor="middle" x="185.97" y="-18.78" font-family="Times,serif" font-size="14.00">rep=no, t=no, r=no, m=yes, c=no</text>
</g>
<!-- n12&#45;&gt;n11 -->
<g id="edge24" class="edge">
<title>n12&#45;&gt;n11</title>
<path fill="none" stroke="black" d="M315.85,-112.96C296.53,-101.88 274.98,-89.52 255.07,-78.1"/>
<polygon fill="black" stroke="black" points="256.76,-75.04 246.35,-73.1 253.28,-81.11 256.76,-75.04"/>
</g>
<!-- n13 -->
<g id="node26" class="node">
<title>n13</title>
<ellipse fill="#98D2A5" stroke="black" cx="575.97" cy="-37.48" rx="185.94" ry="37.45"/>
<text text-anchor="middle" x="575.97" y="-48.78" font-family="Times,serif" font-size="14.00">pública</text>
<text text-anchor="middle" x="575.97" y="-33.78" font-family="Times,serif" font-size="14.00">aq0fs0 (amod)</text>
<text text-anchor="middle" x="575.97" y="-18.78" font-family="Times,serif" font-size="14.00">rep=no, t=no, r=no, m=yes, c=no</text>
</g>
<!-- n12&#45;&gt;n13 -->
<g id="edge25" class="edge">
<title>n12&#45;&gt;n13</title>
<path fill="none" stroke="black" d="M438.98,-113.11C459.61,-101.86 482.7,-89.29 503.95,-77.71"/>
<polygon fill="black" stroke="black" points="505.83,-80.67 512.94,-72.82 502.48,-74.53 505.83,-80.67"/>
</g>
<!-- n18 -->
<g id="node28" class="node">
<title>n18</title>
<ellipse fill="#98D2A5" stroke="black" cx="1160.97" cy="-37.48" rx="185.94" ry="37.45"/>
<text text-anchor="middle" x="1160.97" y="-48.78" font-family="Times,serif" font-size="14.00">el</text>
<text text-anchor="middle" x="1160.97" y="-33.78" font-family="Times,serif" font-size="14.00">da0ms0 (det)</text>
<text text-anchor="middle" x="1160.97" y="-18.78" font-family="Times,serif" font-size="14.00">rep=no, t=no, r=no, m=yes, c=no</text>
</g>
<!-- n19&#45;&gt;n18 -->
<g id="edge27" class="edge">
<title>n19&#45;&gt;n18</title>
<path fill="none" stroke="black" d="M1160.97,-110.85C1160.97,-102.67 1160.97,-93.89 1160.97,-85.37"/>
<polygon fill="black" stroke="black" points="1164.47,-85.15 1160.97,-75.15 1157.47,-85.15 1164.47,-85.15"/>
</g>
<!-- n23 -->
<g id="node30" class="node">
<title>n23</title>
<ellipse fill="#98D2A5" stroke="black" cx="1550.97" cy="-37.48" rx="185.94" ry="37.45"/>
<text text-anchor="middle" x="1550.97" y="-48.78" font-family="Times,serif" font-size="14.00">la</text>
<text text-anchor="middle" x="1550.97" y="-33.78" font-family="Times,serif" font-size="14.00">da0fs0 (det)</text>
<text text-anchor="middle" x="1550.97" y="-18.78" font-family="Times,serif" font-size="14.00">rep=no, t=no, r=no, m=yes, c=no</text>
</g>
<!-- n24&#45;&gt;n23 -->
<g id="edge29" class="edge">
<title>n24&#45;&gt;n23</title>
<path fill="none" stroke="black" d="M1550.97,-110.85C1550.97,-102.67 1550.97,-93.89 1550.97,-85.37"/>
<polygon fill="black" stroke="black" points="1554.47,-85.15 1550.97,-75.15 1547.47,-85.15 1554.47,-85.15"/>
</g>
<!-- n28 -->
<g id="node36" class="node">
<title>n28</title>
<ellipse fill="#98D2A5" stroke="black" cx="3305.97" cy="-37.48" rx="185.94" ry="37.45"/>
<text text-anchor="middle" x="3305.97" y="-48.78" font-family="Times,serif" font-size="14.00">la</text>
<text text-anchor="middle" x="3305.97" y="-33.78" font-family="Times,serif" font-size="14.00">da0fs0 (det)</text>
<text text-anchor="middle" x="3305.97" y="-18.78" font-family="Times,serif" font-size="14.00">rep=no, t=no, r=no, m=yes, c=no</text>
</g>
<!-- n29&#45;&gt;n28 -->
<g id="edge35" class="edge">
<title>n29&#45;&gt;n28</title>
<path fill="none" stroke="black" d="M3439.27,-112.96C3419.34,-101.82 3397.1,-89.4 3376.58,-77.93"/>
<polygon fill="black" stroke="black" points="3378.04,-74.74 3367.6,-72.91 3374.62,-80.85 3378.04,-74.74"/>
</g>
<!-- n30 -->
<g id="node37" class="node">
<title>n30</title>
<ellipse fill="#98D2A5" stroke="black" cx="3695.97" cy="-37.48" rx="185.94" ry="37.45"/>
<text text-anchor="middle" x="3695.97" y="-48.78" font-family="Times,serif" font-size="14.00">económica</text>
<text text-anchor="middle" x="3695.97" y="-33.78" font-family="Times,serif" font-size="14.00">aq0fs0 (amod)</text>
<text text-anchor="middle" x="3695.97" y="-18.78" font-family="Times,serif" font-size="14.00">rep=no, t=no, r=no, m=yes, c=no</text>
</g>
<!-- n29&#45;&gt;n30 -->
<g id="edge36" class="edge">
<title>n29&#45;&gt;n30</title>
<path fill="none" stroke="black" d="M3562.67,-112.96C3582.59,-101.82 3604.84,-89.4 3625.35,-77.93"/>
<polygon fill="black" stroke="black" points="3627.31,-80.85 3634.34,-72.91 3623.9,-74.74 3627.31,-80.85"/>
</g>
<!-- n39 -->
<g id="node40" class="node">
<title>n39</title>
<ellipse fill="#98D2A5" stroke="black" cx="3122.97" cy="-592.24" rx="185.94" ry="37.45"/>
<text text-anchor="middle" x="3122.97" y="-603.54" font-family="Times,serif" font-size="14.00">Marc</text>
<text text-anchor="middle" x="3122.97" y="-588.54" font-family="Times,serif" font-size="14.00">ncms000 (pobj)</text>
<text text-anchor="middle" x="3122.97" y="-573.54" font-family="Times,serif" font-size="14.00">rep=no, t=no, r=no, m=yes, c=no</text>
</g>
<!-- n38&#45;&gt;n39 -->
<g id="edge39" class="edge">
<title>n38&#45;&gt;n39</title>
<path fill="none" stroke="black" d="M3122.97,-665.61C3122.97,-657.44 3122.97,-648.66 3122.97,-640.13"/>
<polygon fill="black" stroke="black" points="3126.47,-639.92 3122.97,-629.92 3119.47,-639.92 3126.47,-639.92"/>
</g>
<!-- n40 -->
<g id="node41" class="node">
<title>n40</title>
<ellipse fill="#98D2A5" stroke="black" cx="3024.97" cy="-481.29" rx="185.94" ry="37.45"/>
<text text-anchor="middle" x="3024.97" y="-492.59" font-family="Times,serif" font-size="14.00">Unitari</text>
<text text-anchor="middle" x="3024.97" y="-477.59" font-family="Times,serif" font-size="14.00">ncms000 (appos)</text>
<text text-anchor="middle" x="3024.97" y="-462.59" font-family="Times,serif" font-size="14.00">rep=no, t=no, r=no, m=yes, c=no</text>
</g>
<!-- n39&#45;&gt;n40 -->
<g id="edge40" class="edge">
<title>n39&#45;&gt;n40</title>
<path fill="none" stroke="black" d="M3090.61,-555.27C3082.16,-545.88 3072.97,-535.65 3064.21,-525.91"/>
<polygon fill="black" stroke="black" points="3066.59,-523.32 3057.3,-518.23 3061.38,-528.01 3066.59,-523.32"/>
</g>
<!-- n41 -->
<g id="node42" class="node">
<title>n41</title>
<ellipse fill="#98D2A5" stroke="black" cx="3414.97" cy="-481.29" rx="185.94" ry="37.45"/>
<text text-anchor="middle" x="3414.97" y="-492.59" font-family="Times,serif" font-size="14.00">de</text>
<text text-anchor="middle" x="3414.97" y="-477.59" font-family="Times,serif" font-size="14.00">sps00 (prepn)</text>
<text text-anchor="middle" x="3414.97" y="-462.59" font-family="Times,serif" font-size="14.00">rep=no, t=no, r=no, m=yes, c=no</text>
</g>
<!-- n39&#45;&gt;n41 -->
<g id="edge41" class="edge">
<title>n39&#45;&gt;n41</title>
<path fill="none" stroke="black" d="M3209.39,-559C3243.9,-546.12 3283.76,-531.25 3319.14,-518.05"/>
<polygon fill="black" stroke="black" points="3320.37,-521.32 3328.51,-514.55 3317.92,-514.77 3320.37,-521.32"/>
</g>
<!-- n43 -->
<g id="node43" class="node">
<title>n43</title>
<ellipse fill="#98D2A5" stroke="black" cx="3414.97" cy="-370.34" rx="185.94" ry="37.45"/>
<text text-anchor="middle" x="3414.97" y="-381.64" font-family="Times,serif" font-size="14.00">Comunitat</text>
<text text-anchor="middle" x="3414.97" y="-366.64" font-family="Times,serif" font-size="14.00">ncms000 (pobj)</text>
<text text-anchor="middle" x="3414.97" y="-351.64" font-family="Times,serif" font-size="14.00">rep=no, t=no, r=no, m=yes, c=no</text>
</g>
<!-- n41&#45;&gt;n43 -->
<g id="edge42" class="edge">
<title>n41&#45;&gt;n43</title>
<path fill="none" stroke="black" d="M3414.97,-443.71C3414.97,-435.53 3414.97,-426.75 3414.97,-418.23"/>
<polygon fill="black" stroke="black" points="3418.47,-418.01 3414.97,-408.01 3411.47,-418.01 3418.47,-418.01"/>
</g>
<!-- n42 -->
<g id="node44" class="node">
<title>n42</title>
<ellipse fill="#98D2A5" stroke="black" cx="3365.97" cy="-259.38" rx="185.94" ry="37.45"/>
<text text-anchor="middle" x="3365.97" y="-270.68" font-family="Times,serif" font-size="14.00">la</text>
<text text-anchor="middle" x="3365.97" y="-255.68" font-family="Times,serif" font-size="14.00">da0ms0 (det)</text>
<text text-anchor="middle" x="3365.97" y="-240.68" font-family="Times,serif" font-size="14.00">rep=no, t=no, r=no, m=yes, c=no</text>
</g>
<!-- n43&#45;&gt;n42 -->
<g id="edge43" class="edge">
<title>n43&#45;&gt;n42</title>
<path fill="none" stroke="black" d="M3398.52,-332.75C3394.72,-324.31 3390.63,-315.22 3386.68,-306.43"/>
<polygon fill="black" stroke="black" points="3389.76,-304.74 3382.46,-297.06 3383.37,-307.61 3389.76,-304.74"/>
</g>
<!-- n44 -->
<g id="node45" class="node">
<title>n44</title>
<ellipse fill="#98D2A5" stroke="black" cx="3755.97" cy="-259.38" rx="185.94" ry="37.45"/>
<text text-anchor="middle" x="3755.97" y="-270.68" font-family="Times,serif" font-size="14.00">Educativa</text>
<text text-anchor="middle" x="3755.97" y="-255.68" font-family="Times,serif" font-size="14.00">aq0cs0 (amod)</text>
<text text-anchor="middle" x="3755.97" y="-240.68" font-family="Times,serif" font-size="14.00">rep=no, t=no, r=no, m=yes, c=no</text>
</g>
<!-- n43&#45;&gt;n44 -->
<g id="edge44" class="edge">
<title>n43&#45;&gt;n44</title>
<path fill="none" stroke="black" d="M3512.23,-338.26C3555.05,-324.58 3605.49,-308.46 3649.33,-294.45"/>
<polygon fill="black" stroke="black" points="3650.41,-297.78 3658.87,-291.41 3648.28,-291.12 3650.41,-297.78"/>
</g>
</g>
</svg>
