<?xml version="1.0" encoding="UTF-8" standalone="no"?>
<!DOCTYPE svg PUBLIC "-//W3C//DTD SVG 1.1//EN"
 "http://www.w3.org/Graphics/SVG/1.1/DTD/svg11.dtd">
<!-- Generated by graphviz version 2.43.0 (0)
 -->
<!-- Title: tree Pages: 1 -->
<svg width="4107pt" height="971pt"
 viewBox="0.00 0.00 4107.45 970.58" xmlns="http://www.w3.org/2000/svg" xmlns:xlink="http://www.w3.org/1999/xlink">
<g id="graph0" class="graph" transform="scale(1 1) rotate(0) translate(4 966.58)">
<title>tree</title>
<polygon fill="white" stroke="transparent" points="-4,4 -4,-966.58 4103.45,-966.58 4103.45,4 -4,4"/>
<!-- n37 -->
<g id="node1" class="node">
<title>n37</title>
<ellipse fill="none" stroke="black" cx="1136.73" cy="-925.1" rx="185.94" ry="37.45"/>
<text text-anchor="middle" x="1136.73" y="-936.4" font-family="Times,serif" font-size="14.00">dijo</text>
<text text-anchor="middle" x="1136.73" y="-921.4" font-family="Times,serif" font-size="14.00">vmis3s0 (root)</text>
<text text-anchor="middle" x="1136.73" y="-906.4" font-family="Times,serif" font-size="14.00">rep=no, t=no, r=no, m=yes, c=no</text>
</g>
<!-- n3 -->
<g id="node2" class="node">
<title>n3</title>
<ellipse fill="none" stroke="black" cx="562.73" cy="-814.15" rx="185.94" ry="37.45"/>
<text text-anchor="middle" x="562.73" y="-825.45" font-family="Times,serif" font-size="14.00">sabe</text>
<text text-anchor="middle" x="562.73" y="-810.45" font-family="Times,serif" font-size="14.00">vmip3s0 (punct)</text>
<text text-anchor="middle" x="562.73" y="-795.45" font-family="Times,serif" font-size="14.00">rep=no, t=no, r=no, m=no, c=yes</text>
</g>
<!-- n37&#45;&gt;n3 -->
<g id="edge1" class="edge">
<title>n37&#45;&gt;n3</title>
<path fill="none" stroke="black" d="M1003.6,-898.83C914.29,-881.88 796.75,-859.57 705.5,-842.25"/>
<polygon fill="black" stroke="black" points="706.11,-838.8 695.63,-840.38 704.8,-845.68 706.11,-838.8"/>
</g>
<!-- n9 -->
<g id="node3" class="node">
<title>n9</title>
<ellipse fill="none" stroke="black" cx="1136.73" cy="-814.15" rx="181.95" ry="37.45"/>
<text text-anchor="middle" x="1136.73" y="-825.45" font-family="Times,serif" font-size="14.00">.</text>
<text text-anchor="middle" x="1136.73" y="-810.45" font-family="Times,serif" font-size="14.00">fp (punct)</text>
<text text-anchor="middle" x="1136.73" y="-795.45" font-family="Times,serif" font-size="14.00">rep=no, t=no, r=no, m=no, c=no</text>
</g>
<!-- n37&#45;&gt;n9 -->
<g id="edge2" class="edge">
<title>n37&#45;&gt;n9</title>
<path fill="none" stroke="black" d="M1136.73,-887.52C1136.73,-879.35 1136.73,-870.57 1136.73,-862.04"/>
<polygon fill="black" stroke="black" points="1140.23,-861.82 1136.73,-851.82 1133.23,-861.82 1140.23,-861.82"/>
</g>
<!-- n38 -->
<g id="node4" class="node">
<title>n38</title>
<ellipse fill="none" stroke="black" cx="1517.73" cy="-814.15" rx="181.95" ry="37.45"/>
<text text-anchor="middle" x="1517.73" y="-825.45" font-family="Times,serif" font-size="14.00">.</text>
<text text-anchor="middle" x="1517.73" y="-810.45" font-family="Times,serif" font-size="14.00">fp (punct)</text>
<text text-anchor="middle" x="1517.73" y="-795.45" font-family="Times,serif" font-size="14.00">rep=no, t=no, r=no, m=no, c=no</text>
</g>
<!-- n37&#45;&gt;n38 -->
<g id="edge3" class="edge">
<title>n37&#45;&gt;n38</title>
<path fill="none" stroke="black" d="M1241.59,-894.11C1291.88,-879.73 1352.22,-862.48 1403.65,-847.77"/>
<polygon fill="black" stroke="black" points="1404.83,-851.08 1413.48,-844.96 1402.9,-844.35 1404.83,-851.08"/>
</g>
<!-- n2 -->
<g id="node5" class="node">
<title>n2</title>
<ellipse fill="none" stroke="black" cx="181.73" cy="-703.2" rx="181.95" ry="37.45"/>
<text text-anchor="middle" x="181.73" y="-714.5" font-family="Times,serif" font-size="14.00">Se</text>
<text text-anchor="middle" x="181.73" y="-699.5" font-family="Times,serif" font-size="14.00">p0000000 (reflec)</text>
<text text-anchor="middle" x="181.73" y="-684.5" font-family="Times,serif" font-size="14.00">rep=no, t=no, r=no, m=no, c=no</text>
</g>
<!-- n3&#45;&gt;n2 -->
<g id="edge4" class="edge">
<title>n3&#45;&gt;n2</title>
<path fill="none" stroke="black" d="M457.86,-783.16C407.57,-768.78 347.23,-751.53 295.8,-736.82"/>
<polygon fill="black" stroke="black" points="296.55,-733.39 285.97,-734.01 294.63,-740.12 296.55,-733.39"/>
</g>
<!-- n6 -->
<g id="node6" class="node">
<title>n6</title>
<ellipse fill="none" stroke="black" cx="562.73" cy="-703.2" rx="181.95" ry="37.45"/>
<text text-anchor="middle" x="562.73" y="-714.5" font-family="Times,serif" font-size="14.00">hay</text>
<text text-anchor="middle" x="562.73" y="-699.5" font-family="Times,serif" font-size="14.00">vaip3s0 (rcmod)</text>
<text text-anchor="middle" x="562.73" y="-684.5" font-family="Times,serif" font-size="14.00">rep=no, t=no, r=no, m=no, c=no</text>
</g>
<!-- n3&#45;&gt;n6 -->
<g id="edge5" class="edge">
<title>n3&#45;&gt;n6</title>
<path fill="none" stroke="black" d="M562.73,-776.57C562.73,-768.39 562.73,-759.61 562.73,-751.09"/>
<polygon fill="black" stroke="black" points="566.23,-750.87 562.73,-740.87 559.23,-750.87 566.23,-750.87"/>
</g>
<!-- n12 -->
<g id="node11" class="node">
<title>n12</title>
<ellipse fill="none" stroke="black" cx="1136.73" cy="-703.2" rx="185.94" ry="37.45"/>
<text text-anchor="middle" x="1136.73" y="-714.5" font-family="Times,serif" font-size="14.00">es</text>
<text text-anchor="middle" x="1136.73" y="-699.5" font-family="Times,serif" font-size="14.00">vsip3s0 (conj)</text>
<text text-anchor="middle" x="1136.73" y="-684.5" font-family="Times,serif" font-size="14.00">rep=no, t=no, r=no, m=no, c=yes</text>
</g>
<!-- n9&#45;&gt;n12 -->
<g id="edge10" class="edge">
<title>n9&#45;&gt;n12</title>
<path fill="none" stroke="black" d="M1136.73,-776.57C1136.73,-768.39 1136.73,-759.61 1136.73,-751.09"/>
<polygon fill="black" stroke="black" points="1140.23,-750.87 1136.73,-740.87 1133.23,-750.87 1140.23,-750.87"/>
</g>
<!-- n21 -->
<g id="node12" class="node">
<title>n21</title>
<ellipse fill="none" stroke="black" cx="2571.73" cy="-703.2" rx="181.95" ry="37.45"/>
<text text-anchor="middle" x="2571.73" y="-714.5" font-family="Times,serif" font-size="14.00">y</text>
<text text-anchor="middle" x="2571.73" y="-699.5" font-family="Times,serif" font-size="14.00">cc (coord_fixed)</text>
<text text-anchor="middle" x="2571.73" y="-684.5" font-family="Times,serif" font-size="14.00">rep=no, t=no, r=no, m=no, c=no</text>
</g>
<!-- n9&#45;&gt;n21 -->
<g id="edge11" class="edge">
<title>n9&#45;&gt;n21</title>
<path fill="none" stroke="black" d="M1261.3,-786.81C1283.03,-782.91 1305.48,-779.32 1326.73,-776.67 1698.24,-730.4 2135.89,-713.57 2380.83,-707.52"/>
<polygon fill="black" stroke="black" points="2380.99,-711.02 2390.9,-707.28 2380.82,-704.02 2380.99,-711.02"/>
</g>
<!-- n7 -->
<g id="node7" class="node">
<title>n7</title>
<ellipse fill="none" stroke="black" cx="468.73" cy="-592.24" rx="181.95" ry="37.45"/>
<text text-anchor="middle" x="468.73" y="-603.54" font-family="Times,serif" font-size="14.00">que</text>
<text text-anchor="middle" x="468.73" y="-588.54" font-family="Times,serif" font-size="14.00">cs (conj)</text>
<text text-anchor="middle" x="468.73" y="-573.54" font-family="Times,serif" font-size="14.00">rep=no, t=no, r=no, m=no, c=no</text>
</g>
<!-- n6&#45;&gt;n7 -->
<g id="edge6" class="edge">
<title>n6&#45;&gt;n7</title>
<path fill="none" stroke="black" d="M531.69,-666.22C523.59,-656.83 514.77,-646.61 506.36,-636.87"/>
<polygon fill="black" stroke="black" points="508.92,-634.47 499.73,-629.18 503.62,-639.04 508.92,-634.47"/>
</g>
<!-- n8 -->
<g id="node8" class="node">
<title>n8</title>
<ellipse fill="none" stroke="black" cx="468.73" cy="-481.29" rx="181.95" ry="37.45"/>
<text text-anchor="middle" x="468.73" y="-492.59" font-family="Times,serif" font-size="14.00">hacer</text>
<text text-anchor="middle" x="468.73" y="-477.59" font-family="Times,serif" font-size="14.00">vmn0000 (cobj)</text>
<text text-anchor="middle" x="468.73" y="-462.59" font-family="Times,serif" font-size="14.00">rep=no, t=no, r=no, m=no, c=no</text>
</g>
<!-- n7&#45;&gt;n8 -->
<g id="edge7" class="edge">
<title>n7&#45;&gt;n8</title>
<path fill="none" stroke="black" d="M468.73,-554.66C468.73,-546.49 468.73,-537.71 468.73,-529.18"/>
<polygon fill="black" stroke="black" points="472.23,-528.96 468.73,-518.96 465.23,-528.96 472.23,-528.96"/>
</g>
<!-- n5 -->
<g id="node9" class="node">
<title>n5</title>
<ellipse fill="none" stroke="black" cx="468.73" cy="-370.34" rx="181.95" ry="37.45"/>
<text text-anchor="middle" x="468.73" y="-381.64" font-family="Times,serif" font-size="14.00">que</text>
<text text-anchor="middle" x="468.73" y="-366.64" font-family="Times,serif" font-size="14.00">pr0cn000 (dobj)</text>
<text text-anchor="middle" x="468.73" y="-351.64" font-family="Times,serif" font-size="14.00">rep=no, t=no, r=no, m=no, c=no</text>
</g>
<!-- n8&#45;&gt;n5 -->
<g id="edge8" class="edge">
<title>n8&#45;&gt;n5</title>
<path fill="none" stroke="black" d="M468.73,-443.71C468.73,-435.53 468.73,-426.75 468.73,-418.23"/>
<polygon fill="black" stroke="black" points="472.23,-418.01 468.73,-408.01 465.23,-418.01 472.23,-418.01"/>
</g>
<!-- n4 -->
<g id="node10" class="node">
<title>n4</title>
<ellipse fill="none" stroke="black" cx="468.73" cy="-259.38" rx="181.95" ry="37.45"/>
<text text-anchor="middle" x="468.73" y="-270.68" font-family="Times,serif" font-size="14.00">lo</text>
<text text-anchor="middle" x="468.73" y="-255.68" font-family="Times,serif" font-size="14.00">da0ns0 (det)</text>
<text text-anchor="middle" x="468.73" y="-240.68" font-family="Times,serif" font-size="14.00">rep=no, t=no, r=no, m=no, c=no</text>
</g>
<!-- n5&#45;&gt;n4 -->
<g id="edge9" class="edge">
<title>n5&#45;&gt;n4</title>
<path fill="none" stroke="black" d="M468.73,-332.75C468.73,-324.58 468.73,-315.8 468.73,-307.27"/>
<polygon fill="black" stroke="black" points="472.23,-307.06 468.73,-297.06 465.23,-307.06 472.23,-307.06"/>
</g>
<!-- n11 -->
<g id="node13" class="node">
<title>n11</title>
<ellipse fill="none" stroke="black" cx="849.73" cy="-592.24" rx="181.95" ry="37.45"/>
<text text-anchor="middle" x="849.73" y="-603.54" font-family="Times,serif" font-size="14.00">problema</text>
<text text-anchor="middle" x="849.73" y="-588.54" font-family="Times,serif" font-size="14.00">ncms000 (nsubj)</text>
<text text-anchor="middle" x="849.73" y="-573.54" font-family="Times,serif" font-size="14.00">rep=no, t=no, r=no, m=no, c=no</text>
</g>
<!-- n12&#45;&gt;n11 -->
<g id="edge12" class="edge">
<title>n12&#45;&gt;n11</title>
<path fill="none" stroke="black" d="M1051.39,-669.8C1017.71,-657.02 978.89,-642.28 944.35,-629.16"/>
<polygon fill="black" stroke="black" points="945.32,-625.79 934.73,-625.51 942.84,-632.33 945.32,-625.79"/>
</g>
<!-- n13 -->
<g id="node14" class="node">
<title>n13</title>
<ellipse fill="none" stroke="black" cx="1230.73" cy="-592.24" rx="181.95" ry="37.45"/>
<text text-anchor="middle" x="1230.73" y="-603.54" font-family="Times,serif" font-size="14.00">que</text>
<text text-anchor="middle" x="1230.73" y="-588.54" font-family="Times,serif" font-size="14.00">cs (attr)</text>
<text text-anchor="middle" x="1230.73" y="-573.54" font-family="Times,serif" font-size="14.00">rep=no, t=no, r=no, m=no, c=no</text>
</g>
<!-- n12&#45;&gt;n13 -->
<g id="edge13" class="edge">
<title>n12&#45;&gt;n13</title>
<path fill="none" stroke="black" d="M1167.77,-666.22C1175.87,-656.83 1184.69,-646.61 1193.09,-636.87"/>
<polygon fill="black" stroke="black" points="1195.84,-639.04 1199.72,-629.18 1190.54,-634.47 1195.84,-639.04"/>
</g>
<!-- n1 -->
<g id="node22" class="node">
<title>n1</title>
<ellipse fill="none" stroke="black" cx="1611.73" cy="-592.24" rx="181.95" ry="37.45"/>
<text text-anchor="middle" x="1611.73" y="-603.54" font-family="Times,serif" font-size="14.00">&quot;</text>
<text text-anchor="middle" x="1611.73" y="-588.54" font-family="Times,serif" font-size="14.00">fe (punct)</text>
<text text-anchor="middle" x="1611.73" y="-573.54" font-family="Times,serif" font-size="14.00">rep=no, t=no, r=no, m=no, c=no</text>
</g>
<!-- n21&#45;&gt;n1 -->
<g id="edge21" class="edge">
<title>n21&#45;&gt;n1</title>
<path fill="none" stroke="black" d="M2399.91,-690.76C2243.5,-679.23 2006.43,-658.94 1801.73,-629.72 1784.26,-627.23 1765.97,-624.22 1747.91,-621.02"/>
<polygon fill="black" stroke="black" points="1748.38,-617.55 1737.92,-619.22 1747.14,-624.44 1748.38,-617.55"/>
</g>
<!-- n20 -->
<g id="node23" class="node">
<title>n20</title>
<ellipse fill="none" stroke="black" cx="1992.73" cy="-592.24" rx="181.95" ry="37.45"/>
<text text-anchor="middle" x="1992.73" y="-603.54" font-family="Times,serif" font-size="14.00">,</text>
<text text-anchor="middle" x="1992.73" y="-588.54" font-family="Times,serif" font-size="14.00">fc (punct)</text>
<text text-anchor="middle" x="1992.73" y="-573.54" font-family="Times,serif" font-size="14.00">rep=no, t=no, r=no, m=no, c=no</text>
</g>
<!-- n21&#45;&gt;n20 -->
<g id="edge22" class="edge">
<title>n21&#45;&gt;n20</title>
<path fill="none" stroke="black" d="M2438.82,-677.51C2363.89,-663.55 2268.57,-645.75 2183.73,-629.72 2167.44,-626.64 2150.36,-623.4 2133.41,-620.18"/>
<polygon fill="black" stroke="black" points="2133.93,-616.71 2123.46,-618.28 2132.62,-623.59 2133.93,-616.71"/>
</g>
<!-- n24 -->
<g id="node24" class="node">
<title>n24</title>
<ellipse fill="none" stroke="black" cx="2378.73" cy="-592.24" rx="185.94" ry="37.45"/>
<text text-anchor="middle" x="2378.73" y="-603.54" font-family="Times,serif" font-size="14.00">es</text>
<text text-anchor="middle" x="2378.73" y="-588.54" font-family="Times,serif" font-size="14.00">vsip3s0 (conj)</text>
<text text-anchor="middle" x="2378.73" y="-573.54" font-family="Times,serif" font-size="14.00">rep=no, t=no, r=no, m=no, c=yes</text>
</g>
<!-- n21&#45;&gt;n24 -->
<g id="edge23" class="edge">
<title>n21&#45;&gt;n24</title>
<path fill="none" stroke="black" d="M2510.92,-667.87C2491.19,-656.73 2469.14,-644.29 2448.8,-632.8"/>
<polygon fill="black" stroke="black" points="2450.31,-629.64 2439.89,-627.77 2446.87,-635.73 2450.31,-629.64"/>
</g>
<!-- n28 -->
<g id="node25" class="node">
<title>n28</title>
<ellipse fill="none" stroke="black" cx="2764.73" cy="-592.24" rx="181.95" ry="37.45"/>
<text text-anchor="middle" x="2764.73" y="-603.54" font-family="Times,serif" font-size="14.00">y</text>
<text text-anchor="middle" x="2764.73" y="-588.54" font-family="Times,serif" font-size="14.00">cc (coord_fixed)</text>
<text text-anchor="middle" x="2764.73" y="-573.54" font-family="Times,serif" font-size="14.00">rep=no, t=no, r=no, m=no, c=no</text>
</g>
<!-- n21&#45;&gt;n28 -->
<g id="edge24" class="edge">
<title>n21&#45;&gt;n28</title>
<path fill="none" stroke="black" d="M2632.53,-667.87C2652.36,-656.68 2674.52,-644.17 2694.96,-632.63"/>
<polygon fill="black" stroke="black" points="2696.91,-635.55 2703.9,-627.58 2693.47,-629.45 2696.91,-635.55"/>
</g>
<!-- n32 -->
<g id="node26" class="node">
<title>n32</title>
<ellipse fill="none" stroke="black" cx="3150.73" cy="-592.24" rx="185.94" ry="37.45"/>
<text text-anchor="middle" x="3150.73" y="-603.54" font-family="Times,serif" font-size="14.00">interesa</text>
<text text-anchor="middle" x="3150.73" y="-588.54" font-family="Times,serif" font-size="14.00">vmip3s0 (conj)</text>
<text text-anchor="middle" x="3150.73" y="-573.54" font-family="Times,serif" font-size="14.00">rep=no, t=no, r=no, m=no, c=yes</text>
</g>
<!-- n21&#45;&gt;n32 -->
<g id="edge25" class="edge">
<title>n21&#45;&gt;n32</title>
<path fill="none" stroke="black" d="M2703.83,-677.34C2794.32,-660.31 2914.29,-637.73 3007.14,-620.26"/>
<polygon fill="black" stroke="black" points="3008,-623.66 3017.18,-618.37 3006.71,-616.78 3008,-623.66"/>
</g>
<!-- n35 -->
<g id="node27" class="node">
<title>n35</title>
<ellipse fill="none" stroke="black" cx="3536.73" cy="-592.24" rx="181.95" ry="37.45"/>
<text text-anchor="middle" x="3536.73" y="-603.54" font-family="Times,serif" font-size="14.00">&quot;</text>
<text text-anchor="middle" x="3536.73" y="-588.54" font-family="Times,serif" font-size="14.00">fe (punct)</text>
<text text-anchor="middle" x="3536.73" y="-573.54" font-family="Times,serif" font-size="14.00">rep=no, t=no, r=no, m=no, c=no</text>
</g>
<!-- n21&#45;&gt;n35 -->
<g id="edge26" class="edge">
<title>n21&#45;&gt;n35</title>
<path fill="none" stroke="black" d="M2743.67,-690.82C2900.88,-679.3 3139.61,-658.98 3345.73,-629.72 3363.35,-627.22 3381.82,-624.2 3400.04,-620.98"/>
<polygon fill="black" stroke="black" points="3400.9,-624.38 3410.13,-619.18 3399.67,-617.49 3400.9,-624.38"/>
</g>
<!-- n36 -->
<g id="node28" class="node">
<title>n36</title>
<ellipse fill="none" stroke="black" cx="3917.73" cy="-592.24" rx="181.95" ry="37.45"/>
<text text-anchor="middle" x="3917.73" y="-603.54" font-family="Times,serif" font-size="14.00">,</text>
<text text-anchor="middle" x="3917.73" y="-588.54" font-family="Times,serif" font-size="14.00">fc (punct)</text>
<text text-anchor="middle" x="3917.73" y="-573.54" font-family="Times,serif" font-size="14.00">rep=no, t=no, r=no, m=no, c=no</text>
</g>
<!-- n21&#45;&gt;n36 -->
<g id="edge27" class="edge">
<title>n21&#45;&gt;n36</title>
<path fill="none" stroke="black" d="M2752.11,-697.98C2980.13,-691.02 3384.35,-673.27 3727.73,-629.72 3745.66,-627.45 3764.46,-624.51 3782.95,-621.3"/>
<polygon fill="black" stroke="black" points="3783.65,-624.74 3792.89,-619.55 3782.43,-617.84 3783.65,-624.74"/>
</g>
<!-- n10 -->
<g id="node15" class="node">
<title>n10</title>
<ellipse fill="none" stroke="black" cx="849.73" cy="-481.29" rx="181.95" ry="37.45"/>
<text text-anchor="middle" x="849.73" y="-492.59" font-family="Times,serif" font-size="14.00">El</text>
<text text-anchor="middle" x="849.73" y="-477.59" font-family="Times,serif" font-size="14.00">da0ms0 (det)</text>
<text text-anchor="middle" x="849.73" y="-462.59" font-family="Times,serif" font-size="14.00">rep=no, t=no, r=no, m=no, c=no</text>
</g>
<!-- n11&#45;&gt;n10 -->
<g id="edge14" class="edge">
<title>n11&#45;&gt;n10</title>
<path fill="none" stroke="black" d="M849.73,-554.66C849.73,-546.49 849.73,-537.71 849.73,-529.18"/>
<polygon fill="black" stroke="black" points="853.23,-528.96 849.73,-518.96 846.23,-528.96 853.23,-528.96"/>
</g>
<!-- n14 -->
<g id="node16" class="node">
<title>n14</title>
<ellipse fill="none" stroke="black" cx="1230.73" cy="-481.29" rx="181.95" ry="37.45"/>
<text text-anchor="middle" x="1230.73" y="-492.59" font-family="Times,serif" font-size="14.00">llega</text>
<text text-anchor="middle" x="1230.73" y="-477.59" font-family="Times,serif" font-size="14.00">vmip3s0 (cobj)</text>
<text text-anchor="middle" x="1230.73" y="-462.59" font-family="Times,serif" font-size="14.00">rep=no, t=no, r=no, m=no, c=no</text>
</g>
<!-- n13&#45;&gt;n14 -->
<g id="edge15" class="edge">
<title>n13&#45;&gt;n14</title>
<path fill="none" stroke="black" d="M1230.73,-554.66C1230.73,-546.49 1230.73,-537.71 1230.73,-529.18"/>
<polygon fill="black" stroke="black" points="1234.23,-528.96 1230.73,-518.96 1227.23,-528.96 1234.23,-528.96"/>
</g>
<!-- n16 -->
<g id="node17" class="node">
<title>n16</title>
<ellipse fill="none" stroke="black" cx="1230.73" cy="-370.34" rx="181.95" ry="37.45"/>
<text text-anchor="middle" x="1230.73" y="-381.64" font-family="Times,serif" font-size="14.00">momento</text>
<text text-anchor="middle" x="1230.73" y="-366.64" font-family="Times,serif" font-size="14.00">ncms000 (nsubj)</text>
<text text-anchor="middle" x="1230.73" y="-351.64" font-family="Times,serif" font-size="14.00">rep=no, t=no, r=no, m=no, c=no</text>
</g>
<!-- n14&#45;&gt;n16 -->
<g id="edge16" class="edge">
<title>n14&#45;&gt;n16</title>
<path fill="none" stroke="black" d="M1230.73,-443.71C1230.73,-435.53 1230.73,-426.75 1230.73,-418.23"/>
<polygon fill="black" stroke="black" points="1234.23,-418.01 1230.73,-408.01 1227.23,-418.01 1234.23,-418.01"/>
</g>
<!-- n15 -->
<g id="node18" class="node">
<title>n15</title>
<ellipse fill="none" stroke="black" cx="1039.73" cy="-259.38" rx="181.95" ry="37.45"/>
<text text-anchor="middle" x="1039.73" y="-270.68" font-family="Times,serif" font-size="14.00">el</text>
<text text-anchor="middle" x="1039.73" y="-255.68" font-family="Times,serif" font-size="14.00">da0ms0 (det)</text>
<text text-anchor="middle" x="1039.73" y="-240.68" font-family="Times,serif" font-size="14.00">rep=no, t=no, r=no, m=no, c=no</text>
</g>
<!-- n16&#45;&gt;n15 -->
<g id="edge17" class="edge">
<title>n16&#45;&gt;n15</title>
<path fill="none" stroke="black" d="M1170.29,-334.86C1150.78,-323.73 1128.99,-311.3 1108.89,-299.84"/>
<polygon fill="black" stroke="black" points="1110.51,-296.73 1100.09,-294.82 1107.05,-302.81 1110.51,-296.73"/>
</g>
<!-- n17 -->
<g id="node19" class="node">
<title>n17</title>
<ellipse fill="none" stroke="black" cx="1420.73" cy="-259.38" rx="181.95" ry="37.45"/>
<text text-anchor="middle" x="1420.73" y="-270.68" font-family="Times,serif" font-size="14.00">de</text>
<text text-anchor="middle" x="1420.73" y="-255.68" font-family="Times,serif" font-size="14.00">sps00 (prepn)</text>
<text text-anchor="middle" x="1420.73" y="-240.68" font-family="Times,serif" font-size="14.00">rep=no, t=no, r=no, m=no, c=no</text>
</g>
<!-- n16&#45;&gt;n17 -->
<g id="edge18" class="edge">
<title>n16&#45;&gt;n17</title>
<path fill="none" stroke="black" d="M1290.84,-334.86C1310.26,-323.73 1331.93,-311.3 1351.92,-299.84"/>
<polygon fill="black" stroke="black" points="1353.74,-302.83 1360.67,-294.82 1350.26,-296.76 1353.74,-302.83"/>
</g>
<!-- n18 -->
<g id="node20" class="node">
<title>n18</title>
<ellipse fill="none" stroke="black" cx="1420.73" cy="-148.43" rx="181.95" ry="37.45"/>
<text text-anchor="middle" x="1420.73" y="-159.73" font-family="Times,serif" font-size="14.00">tomar</text>
<text text-anchor="middle" x="1420.73" y="-144.73" font-family="Times,serif" font-size="14.00">vmn0000 (pobj)</text>
<text text-anchor="middle" x="1420.73" y="-129.73" font-family="Times,serif" font-size="14.00">rep=no, t=no, r=no, m=no, c=no</text>
</g>
<!-- n17&#45;&gt;n18 -->
<g id="edge19" class="edge">
<title>n17&#45;&gt;n18</title>
<path fill="none" stroke="black" d="M1420.73,-221.8C1420.73,-213.63 1420.73,-204.85 1420.73,-196.32"/>
<polygon fill="black" stroke="black" points="1424.23,-196.1 1420.73,-186.1 1417.23,-196.1 1424.23,-196.1"/>
</g>
<!-- n19 -->
<g id="node21" class="node">
<title>n19</title>
<ellipse fill="none" stroke="black" cx="1420.73" cy="-37.48" rx="181.95" ry="37.45"/>
<text text-anchor="middle" x="1420.73" y="-48.78" font-family="Times,serif" font-size="14.00">decisiones</text>
<text text-anchor="middle" x="1420.73" y="-33.78" font-family="Times,serif" font-size="14.00">ncfp000 (dobj)</text>
<text text-anchor="middle" x="1420.73" y="-18.78" font-family="Times,serif" font-size="14.00">rep=no, t=no, r=no, m=no, c=no</text>
</g>
<!-- n18&#45;&gt;n19 -->
<g id="edge20" class="edge">
<title>n18&#45;&gt;n19</title>
<path fill="none" stroke="black" d="M1420.73,-110.85C1420.73,-102.67 1420.73,-93.89 1420.73,-85.37"/>
<polygon fill="black" stroke="black" points="1424.23,-85.15 1420.73,-75.15 1417.23,-85.15 1424.23,-85.15"/>
</g>
<!-- n23 -->
<g id="node29" class="node">
<title>n23</title>
<ellipse fill="none" stroke="black" cx="1998.73" cy="-481.29" rx="181.95" ry="37.45"/>
<text text-anchor="middle" x="1998.73" y="-492.59" font-family="Times,serif" font-size="14.00">momento</text>
<text text-anchor="middle" x="1998.73" y="-477.59" font-family="Times,serif" font-size="14.00">ncms000 (nsubj)</text>
<text text-anchor="middle" x="1998.73" y="-462.59" font-family="Times,serif" font-size="14.00">rep=no, t=no, r=no, m=no, c=no</text>
</g>
<!-- n24&#45;&gt;n23 -->
<g id="edge28" class="edge">
<title>n24&#45;&gt;n23</title>
<path fill="none" stroke="black" d="M2274.14,-561.26C2223.98,-546.87 2163.8,-529.62 2112.5,-514.91"/>
<polygon fill="black" stroke="black" points="2113.28,-511.49 2102.7,-512.1 2111.35,-518.22 2113.28,-511.49"/>
</g>
<!-- n26 -->
<g id="node30" class="node">
<title>n26</title>
<ellipse fill="none" stroke="black" cx="2379.73" cy="-481.29" rx="181.95" ry="37.45"/>
<text text-anchor="middle" x="2379.73" y="-492.59" font-family="Times,serif" font-size="14.00">duro</text>
<text text-anchor="middle" x="2379.73" y="-477.59" font-family="Times,serif" font-size="14.00">aq0ms0 (attr)</text>
<text text-anchor="middle" x="2379.73" y="-462.59" font-family="Times,serif" font-size="14.00">rep=no, t=no, r=no, m=no, c=no</text>
</g>
<!-- n24&#45;&gt;n26 -->
<g id="edge29" class="edge">
<title>n24&#45;&gt;n26</title>
<path fill="none" stroke="black" d="M2379.06,-554.66C2379.14,-546.49 2379.22,-537.71 2379.3,-529.18"/>
<polygon fill="black" stroke="black" points="2382.8,-528.99 2379.39,-518.96 2375.8,-528.93 2382.8,-528.99"/>
</g>
<!-- n27 -->
<g id="node33" class="node">
<title>n27</title>
<ellipse fill="none" stroke="black" cx="2762.73" cy="-481.29" rx="181.95" ry="37.45"/>
<text text-anchor="middle" x="2762.73" y="-492.59" font-family="Times,serif" font-size="14.00">,</text>
<text text-anchor="middle" x="2762.73" y="-477.59" font-family="Times,serif" font-size="14.00">fc (punct)</text>
<text text-anchor="middle" x="2762.73" y="-462.59" font-family="Times,serif" font-size="14.00">rep=no, t=no, r=no, m=no, c=no</text>
</g>
<!-- n28&#45;&gt;n27 -->
<g id="edge32" class="edge">
<title>n28&#45;&gt;n27</title>
<path fill="none" stroke="black" d="M2764.05,-554.66C2763.9,-546.49 2763.74,-537.71 2763.59,-529.18"/>
<polygon fill="black" stroke="black" points="2767.08,-528.9 2763.4,-518.96 2760.08,-529.02 2767.08,-528.9"/>
</g>
<!-- n29 -->
<g id="node34" class="node">
<title>n29</title>
<ellipse fill="none" stroke="black" cx="3143.73" cy="-481.29" rx="181.95" ry="37.45"/>
<text text-anchor="middle" x="3143.73" y="-492.59" font-family="Times,serif" font-size="14.00">a</text>
<text text-anchor="middle" x="3143.73" y="-477.59" font-family="Times,serif" font-size="14.00">sps00 (advmod)</text>
<text text-anchor="middle" x="3143.73" y="-462.59" font-family="Times,serif" font-size="14.00">rep=no, t=no, r=no, m=no, c=no</text>
</g>
<!-- n32&#45;&gt;n29 -->
<g id="edge33" class="edge">
<title>n32&#45;&gt;n29</title>
<path fill="none" stroke="black" d="M3148.38,-554.66C3147.85,-546.49 3147.29,-537.71 3146.74,-529.18"/>
<polygon fill="black" stroke="black" points="3150.22,-528.72 3146.08,-518.96 3143.23,-529.17 3150.22,-528.72"/>
</g>
<!-- n31 -->
<g id="node35" class="node">
<title>n31</title>
<ellipse fill="none" stroke="black" cx="3524.73" cy="-481.29" rx="181.95" ry="37.45"/>
<text text-anchor="middle" x="3524.73" y="-492.59" font-family="Times,serif" font-size="14.00">no</text>
<text text-anchor="middle" x="3524.73" y="-477.59" font-family="Times,serif" font-size="14.00">rn (neg)</text>
<text text-anchor="middle" x="3524.73" y="-462.59" font-family="Times,serif" font-size="14.00">rep=no, t=no, r=no, m=no, c=no</text>
</g>
<!-- n32&#45;&gt;n31 -->
<g id="edge34" class="edge">
<title>n32&#45;&gt;n31</title>
<path fill="none" stroke="black" d="M3254.41,-561.04C3303.35,-546.78 3361.87,-529.73 3411.92,-515.15"/>
<polygon fill="black" stroke="black" points="3413.19,-518.43 3421.81,-512.27 3411.23,-511.71 3413.19,-518.43"/>
</g>
<!-- n33 -->
<g id="node36" class="node">
<title>n33</title>
<ellipse fill="none" stroke="black" cx="3905.73" cy="-481.29" rx="181.95" ry="37.45"/>
<text text-anchor="middle" x="3905.73" y="-492.59" font-family="Times,serif" font-size="14.00">tomar</text>
<text text-anchor="middle" x="3905.73" y="-477.59" font-family="Times,serif" font-size="14.00">vmn0000 (dobj)</text>
<text text-anchor="middle" x="3905.73" y="-462.59" font-family="Times,serif" font-size="14.00">rep=no, t=no, r=no, m=no, c=no</text>
</g>
<!-- n32&#45;&gt;n33 -->
<g id="edge35" class="edge">
<title>n32&#45;&gt;n33</title>
<path fill="none" stroke="black" d="M3280.53,-565.32C3302.25,-561.45 3324.58,-557.77 3345.73,-554.77 3509.31,-531.55 3552.2,-542.37 3715.73,-518.77 3733.12,-516.26 3751.33,-513.25 3769.31,-510.05"/>
<polygon fill="black" stroke="black" points="3770.05,-513.48 3779.27,-508.26 3768.81,-506.59 3770.05,-513.48"/>
</g>
<!-- n22 -->
<g id="node31" class="node">
<title>n22</title>
<ellipse fill="none" stroke="black" cx="1998.73" cy="-370.34" rx="181.95" ry="37.45"/>
<text text-anchor="middle" x="1998.73" y="-381.64" font-family="Times,serif" font-size="14.00">ese</text>
<text text-anchor="middle" x="1998.73" y="-366.64" font-family="Times,serif" font-size="14.00">dd0ms0 (det)</text>
<text text-anchor="middle" x="1998.73" y="-351.64" font-family="Times,serif" font-size="14.00">rep=no, t=no, r=no, m=no, c=no</text>
</g>
<!-- n23&#45;&gt;n22 -->
<g id="edge30" class="edge">
<title>n23&#45;&gt;n22</title>
<path fill="none" stroke="black" d="M1998.73,-443.71C1998.73,-435.53 1998.73,-426.75 1998.73,-418.23"/>
<polygon fill="black" stroke="black" points="2002.23,-418.01 1998.73,-408.01 1995.23,-418.01 2002.23,-418.01"/>
</g>
<!-- n25 -->
<g id="node32" class="node">
<title>n25</title>
<ellipse fill="none" stroke="black" cx="2379.73" cy="-370.34" rx="181.95" ry="37.45"/>
<text text-anchor="middle" x="2379.73" y="-381.64" font-family="Times,serif" font-size="14.00">muy</text>
<text text-anchor="middle" x="2379.73" y="-366.64" font-family="Times,serif" font-size="14.00">rg (advmod)</text>
<text text-anchor="middle" x="2379.73" y="-351.64" font-family="Times,serif" font-size="14.00">rep=no, t=no, r=no, m=no, c=no</text>
</g>
<!-- n26&#45;&gt;n25 -->
<g id="edge31" class="edge">
<title>n26&#45;&gt;n25</title>
<path fill="none" stroke="black" d="M2379.73,-443.71C2379.73,-435.53 2379.73,-426.75 2379.73,-418.23"/>
<polygon fill="black" stroke="black" points="2383.23,-418.01 2379.73,-408.01 2376.23,-418.01 2383.23,-418.01"/>
</g>
<!-- n30 -->
<g id="node37" class="node">
<title>n30</title>
<ellipse fill="none" stroke="black" cx="3143.73" cy="-370.34" rx="181.95" ry="37.45"/>
<text text-anchor="middle" x="3143.73" y="-381.64" font-family="Times,serif" font-size="14.00">veces</text>
<text text-anchor="middle" x="3143.73" y="-366.64" font-family="Times,serif" font-size="14.00">ncmp000 (pobj)</text>
<text text-anchor="middle" x="3143.73" y="-351.64" font-family="Times,serif" font-size="14.00">rep=no, t=no, r=no, m=no, c=no</text>
</g>
<!-- n29&#45;&gt;n30 -->
<g id="edge36" class="edge">
<title>n29&#45;&gt;n30</title>
<path fill="none" stroke="black" d="M3143.73,-443.71C3143.73,-435.53 3143.73,-426.75 3143.73,-418.23"/>
<polygon fill="black" stroke="black" points="3147.23,-418.01 3143.73,-408.01 3140.23,-418.01 3147.23,-418.01"/>
</g>
<!-- n34 -->
<g id="node38" class="node">
<title>n34</title>
<ellipse fill="none" stroke="black" cx="3905.73" cy="-370.34" rx="181.95" ry="37.45"/>
<text text-anchor="middle" x="3905.73" y="-381.64" font-family="Times,serif" font-size="14.00">decisiones</text>
<text text-anchor="middle" x="3905.73" y="-366.64" font-family="Times,serif" font-size="14.00">ncfp000 (dobj)</text>
<text text-anchor="middle" x="3905.73" y="-351.64" font-family="Times,serif" font-size="14.00">rep=no, t=no, r=no, m=no, c=no</text>
</g>
<!-- n33&#45;&gt;n34 -->
<g id="edge37" class="edge">
<title>n33&#45;&gt;n34</title>
<path fill="none" stroke="black" d="M3905.73,-443.71C3905.73,-435.53 3905.73,-426.75 3905.73,-418.23"/>
<polygon fill="black" stroke="black" points="3909.23,-418.01 3905.73,-408.01 3902.23,-418.01 3909.23,-418.01"/>
</g>
</g>
</svg>
