<?xml version="1.0" encoding="UTF-8" standalone="no"?>
<!DOCTYPE svg PUBLIC "-//W3C//DTD SVG 1.1//EN"
 "http://www.w3.org/Graphics/SVG/1.1/DTD/svg11.dtd">
<!-- Generated by graphviz version 2.43.0 (0)
 -->
<!-- Title: tree Pages: 1 -->
<svg width="7238pt" height="1192pt"
 viewBox="0.00 0.00 7237.65 1192.49" xmlns="http://www.w3.org/2000/svg" xmlns:xlink="http://www.w3.org/1999/xlink">
<g id="graph0" class="graph" transform="scale(1 1) rotate(0) translate(4 1188.49)">
<title>tree</title>
<polygon fill="white" stroke="transparent" points="-4,4 -4,-1188.49 7233.65,-1188.49 7233.65,4 -4,4"/>
<!-- n10 -->
<g id="node1" class="node">
<title>n10</title>
<ellipse fill="#DA79E8" stroke="black" cx="3290.92" cy="-1147.01" rx="190.84" ry="37.45"/>
<text text-anchor="middle" x="3290.92" y="-1158.31" font-family="Times,serif" font-size="14.00">anunció</text>
<text text-anchor="middle" x="3290.92" y="-1143.31" font-family="Times,serif" font-size="14.00">vmis3s0 (root)</text>
<text text-anchor="middle" x="3290.92" y="-1128.31" font-family="Times,serif" font-size="14.00">rep=no, t=no, r=yes, m=yes, c=no</text>
</g>
<!-- n2 -->
<g id="node2" class="node">
<title>n2</title>
<ellipse fill="#BEDA48" stroke="black" cx="1390.92" cy="-1036.06" rx="190.84" ry="37.45"/>
<text text-anchor="middle" x="1390.92" y="-1047.36" font-family="Times,serif" font-size="14.00">ministro</text>
<text text-anchor="middle" x="1390.92" y="-1032.36" font-family="Times,serif" font-size="14.00">ncms000 (nsubj)</text>
<text text-anchor="middle" x="1390.92" y="-1017.36" font-family="Times,serif" font-size="14.00">rep=no, t=yes, r=no, m=yes, c=no</text>
</g>
<!-- n10&#45;&gt;n2 -->
<g id="edge1" class="edge">
<title>n10&#45;&gt;n2</title>
<path fill="none" stroke="black" d="M3108.74,-1135.56C2749.06,-1114.94 1950.77,-1069.16 1583.11,-1048.08"/>
<polygon fill="black" stroke="black" points="1583.08,-1044.57 1572.9,-1047.49 1582.68,-1051.56 1583.08,-1044.57"/>
</g>
<!-- n12 -->
<g id="node3" class="node">
<title>n12</title>
<ellipse fill="#DA79E8" stroke="black" cx="2690.92" cy="-1036.06" rx="190.84" ry="37.45"/>
<text text-anchor="middle" x="2690.92" y="-1047.36" font-family="Times,serif" font-size="14.00">miércoles</text>
<text text-anchor="middle" x="2690.92" y="-1032.36" font-family="Times,serif" font-size="14.00">ncms000 (dobj)</text>
<text text-anchor="middle" x="2690.92" y="-1017.36" font-family="Times,serif" font-size="14.00">rep=no, t=no, r=yes, m=yes, c=no</text>
</g>
<!-- n10&#45;&gt;n12 -->
<g id="edge2" class="edge">
<title>n10&#45;&gt;n12</title>
<path fill="none" stroke="black" d="M3153.27,-1121.01C3059.29,-1103.95 2934.89,-1081.36 2838.8,-1063.91"/>
<polygon fill="black" stroke="black" points="2839.17,-1060.42 2828.71,-1062.08 2837.92,-1067.31 2839.17,-1060.42"/>
</g>
<!-- n14 -->
<g id="node4" class="node">
<title>n14</title>
<ellipse fill="#DA79E8" stroke="black" cx="3290.92" cy="-1036.06" rx="190.84" ry="37.45"/>
<text text-anchor="middle" x="3290.92" y="-1047.36" font-family="Times,serif" font-size="14.00">envío</text>
<text text-anchor="middle" x="3290.92" y="-1032.36" font-family="Times,serif" font-size="14.00">ncms000 (dobj)</text>
<text text-anchor="middle" x="3290.92" y="-1017.36" font-family="Times,serif" font-size="14.00">rep=no, t=no, r=yes, m=yes, c=no</text>
</g>
<!-- n10&#45;&gt;n14 -->
<g id="edge3" class="edge">
<title>n10&#45;&gt;n14</title>
<path fill="none" stroke="black" d="M3290.92,-1109.43C3290.92,-1101.25 3290.92,-1092.47 3290.92,-1083.95"/>
<polygon fill="black" stroke="black" points="3294.42,-1083.73 3290.92,-1073.73 3287.42,-1083.73 3294.42,-1083.73"/>
</g>
<!-- n30 -->
<g id="node5" class="node">
<title>n30</title>
<ellipse fill="none" stroke="black" cx="3681.92" cy="-1036.06" rx="181.95" ry="37.45"/>
<text text-anchor="middle" x="3681.92" y="-1047.36" font-family="Times,serif" font-size="14.00">para</text>
<text text-anchor="middle" x="3681.92" y="-1032.36" font-family="Times,serif" font-size="14.00">sps00 (prepv)</text>
<text text-anchor="middle" x="3681.92" y="-1017.36" font-family="Times,serif" font-size="14.00">rep=no, t=no, r=no, m=no, c=no</text>
</g>
<!-- n10&#45;&gt;n30 -->
<g id="edge4" class="edge">
<title>n10&#45;&gt;n30</title>
<path fill="none" stroke="black" d="M3398.54,-1116.02C3450.57,-1101.52 3513.09,-1084.1 3566.16,-1069.31"/>
<polygon fill="black" stroke="black" points="3567.26,-1072.64 3575.95,-1066.59 3565.38,-1065.9 3567.26,-1072.64"/>
</g>
<!-- n54 -->
<g id="node6" class="node">
<title>n54</title>
<ellipse fill="none" stroke="black" cx="4062.92" cy="-1036.06" rx="181.95" ry="37.45"/>
<text text-anchor="middle" x="4062.92" y="-1047.36" font-family="Times,serif" font-size="14.00">.</text>
<text text-anchor="middle" x="4062.92" y="-1032.36" font-family="Times,serif" font-size="14.00">fp (punct)</text>
<text text-anchor="middle" x="4062.92" y="-1017.36" font-family="Times,serif" font-size="14.00">rep=no, t=no, r=no, m=no, c=no</text>
</g>
<!-- n10&#45;&gt;n54 -->
<g id="edge5" class="edge">
<title>n10&#45;&gt;n54</title>
<path fill="none" stroke="black" d="M3456.58,-1128.31C3573.27,-1115.14 3733,-1095.65 3872.92,-1073.53 3889.77,-1070.87 3907.41,-1067.83 3924.86,-1064.66"/>
<polygon fill="black" stroke="black" points="3925.91,-1068.03 3935.11,-1062.79 3924.64,-1061.14 3925.91,-1068.03"/>
</g>
<!-- n1 -->
<g id="node7" class="node">
<title>n1</title>
<ellipse fill="#BEDA48" stroke="black" cx="190.92" cy="-925.1" rx="190.84" ry="37.45"/>
<text text-anchor="middle" x="190.92" y="-936.4" font-family="Times,serif" font-size="14.00">El</text>
<text text-anchor="middle" x="190.92" y="-921.4" font-family="Times,serif" font-size="14.00">da0ms0 (det)</text>
<text text-anchor="middle" x="190.92" y="-906.4" font-family="Times,serif" font-size="14.00">rep=no, t=yes, r=no, m=yes, c=no</text>
</g>
<!-- n2&#45;&gt;n1 -->
<g id="edge6" class="edge">
<title>n2&#45;&gt;n1</title>
<path fill="none" stroke="black" d="M1204.64,-1027.58C1003.35,-1018.1 673.46,-998.48 390.92,-962.58 372.13,-960.19 352.44,-957.21 333.04,-953.97"/>
<polygon fill="black" stroke="black" points="333.37,-950.48 322.93,-952.26 332.21,-957.38 333.37,-950.48"/>
</g>
<!-- n3 -->
<g id="node8" class="node">
<title>n3</title>
<ellipse fill="#BEDA48" stroke="black" cx="590.92" cy="-925.1" rx="190.84" ry="37.45"/>
<text text-anchor="middle" x="590.92" y="-936.4" font-family="Times,serif" font-size="14.00">de</text>
<text text-anchor="middle" x="590.92" y="-921.4" font-family="Times,serif" font-size="14.00">sps00 (prepn)</text>
<text text-anchor="middle" x="590.92" y="-906.4" font-family="Times,serif" font-size="14.00">rep=no, t=yes, r=no, m=yes, c=no</text>
</g>
<!-- n2&#45;&gt;n3 -->
<g id="edge7" class="edge">
<title>n2&#45;&gt;n3</title>
<path fill="none" stroke="black" d="M1224.38,-1017.66C1103.76,-1004.4 936.93,-984.69 790.92,-962.58 772.87,-959.85 753.96,-956.73 735.26,-953.5"/>
<polygon fill="black" stroke="black" points="735.66,-950.01 725.21,-951.74 734.46,-956.91 735.66,-950.01"/>
</g>
<!-- n5 -->
<g id="node9" class="node">
<title>n5</title>
<ellipse fill="#BEDA48" stroke="black" cx="990.92" cy="-925.1" rx="190.84" ry="37.45"/>
<text text-anchor="middle" x="990.92" y="-936.4" font-family="Times,serif" font-size="14.00">ruso</text>
<text text-anchor="middle" x="990.92" y="-921.4" font-family="Times,serif" font-size="14.00">aq0ms0 (amod)</text>
<text text-anchor="middle" x="990.92" y="-906.4" font-family="Times,serif" font-size="14.00">rep=no, t=yes, r=no, m=yes, c=no</text>
</g>
<!-- n2&#45;&gt;n5 -->
<g id="edge8" class="edge">
<title>n2&#45;&gt;n5</title>
<path fill="none" stroke="black" d="M1281.62,-1005.28C1228.48,-990.81 1164.51,-973.39 1110.12,-958.57"/>
<polygon fill="black" stroke="black" points="1111,-955.18 1100.44,-955.93 1109.16,-961.94 1111,-955.18"/>
</g>
<!-- n6 -->
<g id="node10" class="node">
<title>n6</title>
<ellipse fill="#BEDA48" stroke="black" cx="1390.92" cy="-925.1" rx="190.84" ry="37.45"/>
<text text-anchor="middle" x="1390.92" y="-936.4" font-family="Times,serif" font-size="14.00">,</text>
<text text-anchor="middle" x="1390.92" y="-921.4" font-family="Times,serif" font-size="14.00">fc (punct)</text>
<text text-anchor="middle" x="1390.92" y="-906.4" font-family="Times,serif" font-size="14.00">rep=no, t=yes, r=no, m=yes, c=no</text>
</g>
<!-- n2&#45;&gt;n6 -->
<g id="edge9" class="edge">
<title>n2&#45;&gt;n6</title>
<path fill="none" stroke="black" d="M1390.92,-998.47C1390.92,-990.3 1390.92,-981.52 1390.92,-972.99"/>
<polygon fill="black" stroke="black" points="1394.42,-972.78 1390.92,-962.78 1387.42,-972.78 1394.42,-972.78"/>
</g>
<!-- n7 -->
<g id="node11" class="node">
<title>n7</title>
<ellipse fill="#BEDA48" stroke="black" cx="1790.92" cy="-925.1" rx="190.84" ry="37.45"/>
<text text-anchor="middle" x="1790.92" y="-936.4" font-family="Times,serif" font-size="14.00">Igor</text>
<text text-anchor="middle" x="1790.92" y="-921.4" font-family="Times,serif" font-size="14.00">np0000l (appos)</text>
<text text-anchor="middle" x="1790.92" y="-906.4" font-family="Times,serif" font-size="14.00">rep=no, t=yes, r=no, m=yes, c=no</text>
</g>
<!-- n2&#45;&gt;n7 -->
<g id="edge10" class="edge">
<title>n2&#45;&gt;n7</title>
<path fill="none" stroke="black" d="M1500.22,-1005.28C1553.36,-990.81 1617.33,-973.39 1671.71,-958.57"/>
<polygon fill="black" stroke="black" points="1672.67,-961.94 1681.4,-955.93 1670.83,-955.18 1672.67,-961.94"/>
</g>
<!-- n9 -->
<g id="node12" class="node">
<title>n9</title>
<ellipse fill="#BEDA48" stroke="black" cx="2190.92" cy="-925.1" rx="190.84" ry="37.45"/>
<text text-anchor="middle" x="2190.92" y="-936.4" font-family="Times,serif" font-size="14.00">,</text>
<text text-anchor="middle" x="2190.92" y="-921.4" font-family="Times,serif" font-size="14.00">fc (punct)</text>
<text text-anchor="middle" x="2190.92" y="-906.4" font-family="Times,serif" font-size="14.00">rep=no, t=yes, r=no, m=yes, c=no</text>
</g>
<!-- n2&#45;&gt;n9 -->
<g id="edge11" class="edge">
<title>n2&#45;&gt;n9</title>
<path fill="none" stroke="black" d="M1557.46,-1017.66C1678.08,-1004.4 1844.9,-984.69 1990.92,-962.58 2008.96,-959.85 2027.88,-956.73 2046.57,-953.5"/>
<polygon fill="black" stroke="black" points="2047.38,-956.91 2056.63,-951.74 2046.17,-950.01 2047.38,-956.91"/>
</g>
<!-- n11 -->
<g id="node15" class="node">
<title>n11</title>
<ellipse fill="#DA79E8" stroke="black" cx="2590.92" cy="-925.1" rx="190.84" ry="37.45"/>
<text text-anchor="middle" x="2590.92" y="-936.4" font-family="Times,serif" font-size="14.00">el</text>
<text text-anchor="middle" x="2590.92" y="-921.4" font-family="Times,serif" font-size="14.00">da0ms0 (det)</text>
<text text-anchor="middle" x="2590.92" y="-906.4" font-family="Times,serif" font-size="14.00">rep=no, t=no, r=yes, m=yes, c=no</text>
</g>
<!-- n12&#45;&gt;n11 -->
<g id="edge14" class="edge">
<title>n12&#45;&gt;n11</title>
<path fill="none" stroke="black" d="M2657.9,-999.08C2649.19,-989.6 2639.71,-979.26 2630.69,-969.44"/>
<polygon fill="black" stroke="black" points="2633.25,-967.04 2623.91,-962.04 2628.09,-971.78 2633.25,-967.04"/>
</g>
<!-- n13 -->
<g id="node16" class="node">
<title>n13</title>
<ellipse fill="#DA79E8" stroke="black" cx="2990.92" cy="-925.1" rx="190.84" ry="37.45"/>
<text text-anchor="middle" x="2990.92" y="-936.4" font-family="Times,serif" font-size="14.00">el</text>
<text text-anchor="middle" x="2990.92" y="-921.4" font-family="Times,serif" font-size="14.00">da0ms0 (det)</text>
<text text-anchor="middle" x="2990.92" y="-906.4" font-family="Times,serif" font-size="14.00">rep=no, t=no, r=yes, m=yes, c=no</text>
</g>
<!-- n14&#45;&gt;n13 -->
<g id="edge15" class="edge">
<title>n14&#45;&gt;n13</title>
<path fill="none" stroke="black" d="M3202.13,-1002.81C3166.68,-989.94 3125.73,-975.06 3089.37,-961.86"/>
<polygon fill="black" stroke="black" points="3090.34,-958.49 3079.74,-958.36 3087.95,-965.07 3090.34,-958.49"/>
</g>
<!-- n15 -->
<g id="node17" class="node">
<title>n15</title>
<ellipse fill="#DA79E8" stroke="black" cx="3390.92" cy="-925.1" rx="190.84" ry="37.45"/>
<text text-anchor="middle" x="3390.92" y="-936.4" font-family="Times,serif" font-size="14.00">de</text>
<text text-anchor="middle" x="3390.92" y="-921.4" font-family="Times,serif" font-size="14.00">sps00 (prepn)</text>
<text text-anchor="middle" x="3390.92" y="-906.4" font-family="Times,serif" font-size="14.00">rep=no, t=no, r=yes, m=yes, c=no</text>
</g>
<!-- n14&#45;&gt;n15 -->
<g id="edge16" class="edge">
<title>n14&#45;&gt;n15</title>
<path fill="none" stroke="black" d="M3323.94,-999.08C3332.64,-989.6 3342.13,-979.26 3351.15,-969.44"/>
<polygon fill="black" stroke="black" points="3353.75,-971.78 3357.93,-962.04 3348.59,-967.04 3353.75,-971.78"/>
</g>
<!-- n20 -->
<g id="node18" class="node">
<title>n20</title>
<ellipse fill="#DA79E8" stroke="black" cx="3790.92" cy="-925.1" rx="190.84" ry="37.45"/>
<text text-anchor="middle" x="3790.92" y="-936.4" font-family="Times,serif" font-size="14.00">a</text>
<text text-anchor="middle" x="3790.92" y="-921.4" font-family="Times,serif" font-size="14.00">sps00 (prepn)</text>
<text text-anchor="middle" x="3790.92" y="-906.4" font-family="Times,serif" font-size="14.00">rep=no, t=no, r=yes, m=yes, c=no</text>
</g>
<!-- n14&#45;&gt;n20 -->
<g id="edge17" class="edge">
<title>n14&#45;&gt;n20</title>
<path fill="none" stroke="black" d="M3416.44,-1007.7C3489.26,-991.84 3580.98,-971.85 3655.42,-955.63"/>
<polygon fill="black" stroke="black" points="3656.32,-959.02 3665.34,-953.47 3654.83,-952.18 3656.32,-959.02"/>
</g>
<!-- n32 -->
<g id="node32" class="node">
<title>n32</title>
<ellipse fill="none" stroke="black" cx="4762.92" cy="-925.1" rx="181.95" ry="37.45"/>
<text text-anchor="middle" x="4762.92" y="-936.4" font-family="Times,serif" font-size="14.00">evaluar</text>
<text text-anchor="middle" x="4762.92" y="-921.4" font-family="Times,serif" font-size="14.00">vmn0000 (pobj)</text>
<text text-anchor="middle" x="4762.92" y="-906.4" font-family="Times,serif" font-size="14.00">rep=no, t=no, r=no, m=no, c=no</text>
</g>
<!-- n30&#45;&gt;n32 -->
<g id="edge31" class="edge">
<title>n30&#45;&gt;n32</title>
<path fill="none" stroke="black" d="M3807.57,-1008.94C3828.97,-1005.07 3851.04,-1001.43 3871.92,-998.58 4114.34,-965.55 4396.07,-945.72 4576.77,-935.35"/>
<polygon fill="black" stroke="black" points="4577.12,-938.84 4586.91,-934.77 4576.73,-931.85 4577.12,-938.84"/>
</g>
<!-- n4 -->
<g id="node13" class="node">
<title>n4</title>
<ellipse fill="#BEDA48" stroke="black" cx="590.92" cy="-814.15" rx="190.84" ry="37.45"/>
<text text-anchor="middle" x="590.92" y="-825.45" font-family="Times,serif" font-size="14.00">Defensa</text>
<text text-anchor="middle" x="590.92" y="-810.45" font-family="Times,serif" font-size="14.00">np00000 (pobj)</text>
<text text-anchor="middle" x="590.92" y="-795.45" font-family="Times,serif" font-size="14.00">rep=no, t=yes, r=no, m=yes, c=no</text>
</g>
<!-- n3&#45;&gt;n4 -->
<g id="edge12" class="edge">
<title>n3&#45;&gt;n4</title>
<path fill="none" stroke="black" d="M590.92,-887.52C590.92,-879.35 590.92,-870.57 590.92,-862.04"/>
<polygon fill="black" stroke="black" points="594.42,-861.82 590.92,-851.82 587.42,-861.82 594.42,-861.82"/>
</g>
<!-- n8 -->
<g id="node14" class="node">
<title>n8</title>
<ellipse fill="#BEDA48" stroke="black" cx="1790.92" cy="-814.15" rx="190.84" ry="37.45"/>
<text text-anchor="middle" x="1790.92" y="-825.45" font-family="Times,serif" font-size="14.00">Sergueyev</text>
<text text-anchor="middle" x="1790.92" y="-810.45" font-family="Times,serif" font-size="14.00">np0000l (appos)</text>
<text text-anchor="middle" x="1790.92" y="-795.45" font-family="Times,serif" font-size="14.00">rep=no, t=yes, r=no, m=yes, c=no</text>
</g>
<!-- n7&#45;&gt;n8 -->
<g id="edge13" class="edge">
<title>n7&#45;&gt;n8</title>
<path fill="none" stroke="black" d="M1790.92,-887.52C1790.92,-879.35 1790.92,-870.57 1790.92,-862.04"/>
<polygon fill="black" stroke="black" points="1794.42,-861.82 1790.92,-851.82 1787.42,-861.82 1794.42,-861.82"/>
</g>
<!-- n17 -->
<g id="node19" class="node">
<title>n17</title>
<ellipse fill="#DA79E8" stroke="black" cx="3385.92" cy="-814.15" rx="190.84" ry="37.45"/>
<text text-anchor="middle" x="3385.92" y="-825.45" font-family="Times,serif" font-size="14.00">navíos</text>
<text text-anchor="middle" x="3385.92" y="-810.45" font-family="Times,serif" font-size="14.00">ncmp000 (pobj)</text>
<text text-anchor="middle" x="3385.92" y="-795.45" font-family="Times,serif" font-size="14.00">rep=no, t=no, r=yes, m=yes, c=no</text>
</g>
<!-- n15&#45;&gt;n17 -->
<g id="edge18" class="edge">
<title>n15&#45;&gt;n17</title>
<path fill="none" stroke="black" d="M3389.24,-887.52C3388.86,-879.35 3388.46,-870.57 3388.07,-862.04"/>
<polygon fill="black" stroke="black" points="3391.56,-861.65 3387.6,-851.82 3384.56,-861.97 3391.56,-861.65"/>
</g>
<!-- n22 -->
<g id="node23" class="node">
<title>n22</title>
<ellipse fill="#DA79E8" stroke="black" cx="3790.92" cy="-814.15" rx="190.84" ry="37.45"/>
<text text-anchor="middle" x="3790.92" y="-825.45" font-family="Times,serif" font-size="14.00">proximidades</text>
<text text-anchor="middle" x="3790.92" y="-810.45" font-family="Times,serif" font-size="14.00">ncfp000 (pobj)</text>
<text text-anchor="middle" x="3790.92" y="-795.45" font-family="Times,serif" font-size="14.00">rep=no, t=no, r=yes, m=yes, c=no</text>
</g>
<!-- n20&#45;&gt;n22 -->
<g id="edge22" class="edge">
<title>n20&#45;&gt;n22</title>
<path fill="none" stroke="black" d="M3790.92,-887.52C3790.92,-879.35 3790.92,-870.57 3790.92,-862.04"/>
<polygon fill="black" stroke="black" points="3794.42,-861.82 3790.92,-851.82 3787.42,-861.82 3794.42,-861.82"/>
</g>
<!-- n16 -->
<g id="node20" class="node">
<title>n16</title>
<ellipse fill="#DA79E8" stroke="black" cx="2985.92" cy="-703.2" rx="190.84" ry="37.45"/>
<text text-anchor="middle" x="2985.92" y="-714.5" font-family="Times,serif" font-size="14.00">siete</text>
<text text-anchor="middle" x="2985.92" y="-699.5" font-family="Times,serif" font-size="14.00">dn0cp0 (det)</text>
<text text-anchor="middle" x="2985.92" y="-684.5" font-family="Times,serif" font-size="14.00">rep=no, t=no, r=yes, m=yes, c=no</text>
</g>
<!-- n17&#45;&gt;n16 -->
<g id="edge19" class="edge">
<title>n17&#45;&gt;n16</title>
<path fill="none" stroke="black" d="M3276.62,-783.38C3223.48,-768.9 3159.51,-751.48 3105.12,-736.67"/>
<polygon fill="black" stroke="black" points="3106,-733.28 3095.44,-734.03 3104.16,-740.03 3106,-733.28"/>
</g>
<!-- n18 -->
<g id="node21" class="node">
<title>n18</title>
<ellipse fill="#DA79E8" stroke="black" cx="3385.92" cy="-703.2" rx="190.84" ry="37.45"/>
<text text-anchor="middle" x="3385.92" y="-714.5" font-family="Times,serif" font-size="14.00">de</text>
<text text-anchor="middle" x="3385.92" y="-699.5" font-family="Times,serif" font-size="14.00">sps00 (prepn)</text>
<text text-anchor="middle" x="3385.92" y="-684.5" font-family="Times,serif" font-size="14.00">rep=no, t=no, r=yes, m=yes, c=no</text>
</g>
<!-- n17&#45;&gt;n18 -->
<g id="edge20" class="edge">
<title>n17&#45;&gt;n18</title>
<path fill="none" stroke="black" d="M3385.92,-776.57C3385.92,-768.39 3385.92,-759.61 3385.92,-751.09"/>
<polygon fill="black" stroke="black" points="3389.42,-750.87 3385.92,-740.87 3382.42,-750.87 3389.42,-750.87"/>
</g>
<!-- n19 -->
<g id="node22" class="node">
<title>n19</title>
<ellipse fill="#DA79E8" stroke="black" cx="3385.92" cy="-592.24" rx="190.84" ry="37.45"/>
<text text-anchor="middle" x="3385.92" y="-603.54" font-family="Times,serif" font-size="14.00">guerra</text>
<text text-anchor="middle" x="3385.92" y="-588.54" font-family="Times,serif" font-size="14.00">ncfs000 (pobj)</text>
<text text-anchor="middle" x="3385.92" y="-573.54" font-family="Times,serif" font-size="14.00">rep=no, t=no, r=yes, m=yes, c=no</text>
</g>
<!-- n18&#45;&gt;n19 -->
<g id="edge21" class="edge">
<title>n18&#45;&gt;n19</title>
<path fill="none" stroke="black" d="M3385.92,-665.61C3385.92,-657.44 3385.92,-648.66 3385.92,-640.13"/>
<polygon fill="black" stroke="black" points="3389.42,-639.92 3385.92,-629.92 3382.42,-639.92 3389.42,-639.92"/>
</g>
<!-- n21 -->
<g id="node24" class="node">
<title>n21</title>
<ellipse fill="#DA79E8" stroke="black" cx="3785.92" cy="-703.2" rx="190.84" ry="37.45"/>
<text text-anchor="middle" x="3785.92" y="-714.5" font-family="Times,serif" font-size="14.00">las</text>
<text text-anchor="middle" x="3785.92" y="-699.5" font-family="Times,serif" font-size="14.00">da0fp0 (det)</text>
<text text-anchor="middle" x="3785.92" y="-684.5" font-family="Times,serif" font-size="14.00">rep=no, t=no, r=yes, m=yes, c=no</text>
</g>
<!-- n22&#45;&gt;n21 -->
<g id="edge23" class="edge">
<title>n22&#45;&gt;n21</title>
<path fill="none" stroke="black" d="M3789.24,-776.57C3788.86,-768.39 3788.46,-759.61 3788.07,-751.09"/>
<polygon fill="black" stroke="black" points="3791.56,-750.7 3787.6,-740.87 3784.56,-751.02 3791.56,-750.7"/>
</g>
<!-- n23 -->
<g id="node25" class="node">
<title>n23</title>
<ellipse fill="#DA79E8" stroke="black" cx="4185.92" cy="-703.2" rx="190.84" ry="37.45"/>
<text text-anchor="middle" x="4185.92" y="-714.5" font-family="Times,serif" font-size="14.00">de</text>
<text text-anchor="middle" x="4185.92" y="-699.5" font-family="Times,serif" font-size="14.00">sps00 (prepn)</text>
<text text-anchor="middle" x="4185.92" y="-684.5" font-family="Times,serif" font-size="14.00">rep=no, t=no, r=yes, m=yes, c=no</text>
</g>
<!-- n22&#45;&gt;n23 -->
<g id="edge24" class="edge">
<title>n22&#45;&gt;n23</title>
<path fill="none" stroke="black" d="M3899.38,-783.23C3951.52,-768.85 4014.13,-751.58 4067.51,-736.86"/>
<polygon fill="black" stroke="black" points="4068.65,-740.17 4077.36,-734.14 4066.79,-733.43 4068.65,-740.17"/>
</g>
<!-- n25 -->
<g id="node26" class="node">
<title>n25</title>
<ellipse fill="#DA79E8" stroke="black" cx="4185.92" cy="-592.24" rx="190.84" ry="37.45"/>
<text text-anchor="middle" x="4185.92" y="-603.54" font-family="Times,serif" font-size="14.00">zona</text>
<text text-anchor="middle" x="4185.92" y="-588.54" font-family="Times,serif" font-size="14.00">ncfs000 (pobj)</text>
<text text-anchor="middle" x="4185.92" y="-573.54" font-family="Times,serif" font-size="14.00">rep=no, t=no, r=yes, m=yes, c=no</text>
</g>
<!-- n23&#45;&gt;n25 -->
<g id="edge25" class="edge">
<title>n23&#45;&gt;n25</title>
<path fill="none" stroke="black" d="M4185.92,-665.61C4185.92,-657.44 4185.92,-648.66 4185.92,-640.13"/>
<polygon fill="black" stroke="black" points="4189.42,-639.92 4185.92,-629.92 4182.42,-639.92 4189.42,-639.92"/>
</g>
<!-- n24 -->
<g id="node27" class="node">
<title>n24</title>
<ellipse fill="#DA79E8" stroke="black" cx="3985.92" cy="-481.29" rx="190.84" ry="37.45"/>
<text text-anchor="middle" x="3985.92" y="-492.59" font-family="Times,serif" font-size="14.00">la</text>
<text text-anchor="middle" x="3985.92" y="-477.59" font-family="Times,serif" font-size="14.00">da0fs0 (det)</text>
<text text-anchor="middle" x="3985.92" y="-462.59" font-family="Times,serif" font-size="14.00">rep=no, t=no, r=yes, m=yes, c=no</text>
</g>
<!-- n25&#45;&gt;n24 -->
<g id="edge26" class="edge">
<title>n25&#45;&gt;n24</title>
<path fill="none" stroke="black" d="M4122.64,-556.77C4102.11,-545.59 4079.18,-533.1 4058.06,-521.59"/>
<polygon fill="black" stroke="black" points="4059.59,-518.44 4049.13,-516.73 4056.24,-524.58 4059.59,-518.44"/>
</g>
<!-- n26 -->
<g id="node28" class="node">
<title>n26</title>
<ellipse fill="#DA79E8" stroke="black" cx="4385.92" cy="-481.29" rx="190.84" ry="37.45"/>
<text text-anchor="middle" x="4385.92" y="-492.59" font-family="Times,serif" font-size="14.00">del</text>
<text text-anchor="middle" x="4385.92" y="-477.59" font-family="Times,serif" font-size="14.00">spcms (prepn)</text>
<text text-anchor="middle" x="4385.92" y="-462.59" font-family="Times,serif" font-size="14.00">rep=no, t=no, r=yes, m=yes, c=no</text>
</g>
<!-- n25&#45;&gt;n26 -->
<g id="edge27" class="edge">
<title>n25&#45;&gt;n26</title>
<path fill="none" stroke="black" d="M4249.2,-556.77C4269.73,-545.59 4292.65,-533.1 4313.78,-521.59"/>
<polygon fill="black" stroke="black" points="4315.6,-524.58 4322.71,-516.73 4312.25,-518.44 4315.6,-524.58"/>
</g>
<!-- n27 -->
<g id="node29" class="node">
<title>n27</title>
<ellipse fill="#DA79E8" stroke="black" cx="4385.92" cy="-370.34" rx="190.84" ry="37.45"/>
<text text-anchor="middle" x="4385.92" y="-381.64" font-family="Times,serif" font-size="14.00">conflicto</text>
<text text-anchor="middle" x="4385.92" y="-366.64" font-family="Times,serif" font-size="14.00">ncms000 (pobj)</text>
<text text-anchor="middle" x="4385.92" y="-351.64" font-family="Times,serif" font-size="14.00">rep=no, t=no, r=yes, m=yes, c=no</text>
</g>
<!-- n26&#45;&gt;n27 -->
<g id="edge28" class="edge">
<title>n26&#45;&gt;n27</title>
<path fill="none" stroke="black" d="M4385.92,-443.71C4385.92,-435.53 4385.92,-426.75 4385.92,-418.23"/>
<polygon fill="black" stroke="black" points="4389.42,-418.01 4385.92,-408.01 4382.42,-418.01 4389.42,-418.01"/>
</g>
<!-- n28 -->
<g id="node30" class="node">
<title>n28</title>
<ellipse fill="#DA79E8" stroke="black" cx="4385.92" cy="-259.38" rx="190.84" ry="37.45"/>
<text text-anchor="middle" x="4385.92" y="-270.68" font-family="Times,serif" font-size="14.00">de</text>
<text text-anchor="middle" x="4385.92" y="-255.68" font-family="Times,serif" font-size="14.00">sps00 (prepn)</text>
<text text-anchor="middle" x="4385.92" y="-240.68" font-family="Times,serif" font-size="14.00">rep=no, t=no, r=yes, m=yes, c=no</text>
</g>
<!-- n27&#45;&gt;n28 -->
<g id="edge29" class="edge">
<title>n27&#45;&gt;n28</title>
<path fill="none" stroke="black" d="M4385.92,-332.75C4385.92,-324.58 4385.92,-315.8 4385.92,-307.27"/>
<polygon fill="black" stroke="black" points="4389.42,-307.06 4385.92,-297.06 4382.42,-307.06 4389.42,-307.06"/>
</g>
<!-- n29 -->
<g id="node31" class="node">
<title>n29</title>
<ellipse fill="#DA79E8" stroke="black" cx="4385.92" cy="-148.43" rx="190.84" ry="37.45"/>
<text text-anchor="middle" x="4385.92" y="-159.73" font-family="Times,serif" font-size="14.00">Kosovo</text>
<text text-anchor="middle" x="4385.92" y="-144.73" font-family="Times,serif" font-size="14.00">np00000 (pobj)</text>
<text text-anchor="middle" x="4385.92" y="-129.73" font-family="Times,serif" font-size="14.00">rep=no, t=no, r=yes, m=yes, c=no</text>
</g>
<!-- n28&#45;&gt;n29 -->
<g id="edge30" class="edge">
<title>n28&#45;&gt;n29</title>
<path fill="none" stroke="black" d="M4385.92,-221.8C4385.92,-213.63 4385.92,-204.85 4385.92,-196.32"/>
<polygon fill="black" stroke="black" points="4389.42,-196.1 4385.92,-186.1 4382.42,-196.1 4389.42,-196.1"/>
</g>
<!-- n31 -->
<g id="node33" class="node">
<title>n31</title>
<ellipse fill="none" stroke="black" cx="4190.92" cy="-814.15" rx="181.95" ry="37.45"/>
<text text-anchor="middle" x="4190.92" y="-825.45" font-family="Times,serif" font-size="14.00">&quot;</text>
<text text-anchor="middle" x="4190.92" y="-810.45" font-family="Times,serif" font-size="14.00">fe (punct)</text>
<text text-anchor="middle" x="4190.92" y="-795.45" font-family="Times,serif" font-size="14.00">rep=no, t=no, r=no, m=no, c=no</text>
</g>
<!-- n32&#45;&gt;n31 -->
<g id="edge32" class="edge">
<title>n32&#45;&gt;n31</title>
<path fill="none" stroke="black" d="M4631.2,-899.18C4557.56,-885.24 4464.13,-867.51 4380.92,-851.63 4364.85,-848.56 4348.03,-845.34 4331.31,-842.14"/>
<polygon fill="black" stroke="black" points="4331.96,-838.7 4321.48,-840.25 4330.64,-845.57 4331.96,-838.7"/>
</g>
<!-- n34 -->
<g id="node34" class="node">
<title>n34</title>
<ellipse fill="none" stroke="black" cx="4571.92" cy="-814.15" rx="181.95" ry="37.45"/>
<text text-anchor="middle" x="4571.92" y="-825.45" font-family="Times,serif" font-size="14.00">situación</text>
<text text-anchor="middle" x="4571.92" y="-810.45" font-family="Times,serif" font-size="14.00">ncfs000 (dobj)</text>
<text text-anchor="middle" x="4571.92" y="-795.45" font-family="Times,serif" font-size="14.00">rep=no, t=no, r=no, m=no, c=no</text>
</g>
<!-- n32&#45;&gt;n34 -->
<g id="edge33" class="edge">
<title>n32&#45;&gt;n34</title>
<path fill="none" stroke="black" d="M4702.49,-889.63C4682.97,-878.5 4661.18,-866.07 4641.09,-854.61"/>
<polygon fill="black" stroke="black" points="4642.71,-851.5 4632.29,-849.59 4639.24,-857.58 4642.71,-851.5"/>
</g>
<!-- n35 -->
<g id="node35" class="node">
<title>n35</title>
<ellipse fill="none" stroke="black" cx="4952.92" cy="-814.15" rx="181.95" ry="37.45"/>
<text text-anchor="middle" x="4952.92" y="-825.45" font-family="Times,serif" font-size="14.00">&quot;</text>
<text text-anchor="middle" x="4952.92" y="-810.45" font-family="Times,serif" font-size="14.00">fe (punct)</text>
<text text-anchor="middle" x="4952.92" y="-795.45" font-family="Times,serif" font-size="14.00">rep=no, t=no, r=no, m=no, c=no</text>
</g>
<!-- n32&#45;&gt;n35 -->
<g id="edge34" class="edge">
<title>n32&#45;&gt;n35</title>
<path fill="none" stroke="black" d="M4823.04,-889.63C4842.45,-878.5 4864.12,-866.07 4884.11,-854.61"/>
<polygon fill="black" stroke="black" points="4885.93,-857.6 4892.87,-849.59 4882.45,-851.52 4885.93,-857.6"/>
</g>
<!-- n36 -->
<g id="node36" class="node">
<title>n36</title>
<ellipse fill="none" stroke="black" cx="5333.92" cy="-814.15" rx="181.95" ry="37.45"/>
<text text-anchor="middle" x="5333.92" y="-825.45" font-family="Times,serif" font-size="14.00">,</text>
<text text-anchor="middle" x="5333.92" y="-810.45" font-family="Times,serif" font-size="14.00">fc (punct)</text>
<text text-anchor="middle" x="5333.92" y="-795.45" font-family="Times,serif" font-size="14.00">rep=no, t=no, r=no, m=no, c=no</text>
</g>
<!-- n32&#45;&gt;n36 -->
<g id="edge35" class="edge">
<title>n32&#45;&gt;n36</title>
<path fill="none" stroke="black" d="M4894.29,-899.17C4967.73,-885.22 5060.92,-867.49 5143.92,-851.63 5159.98,-848.56 5176.81,-845.33 5193.53,-842.13"/>
<polygon fill="black" stroke="black" points="5194.19,-845.57 5203.35,-840.25 5192.87,-838.69 5194.19,-845.57"/>
</g>
<!-- n37 -->
<g id="node37" class="node">
<title>n37</title>
<ellipse fill="none" stroke="black" cx="5714.92" cy="-814.15" rx="181.95" ry="37.45"/>
<text text-anchor="middle" x="5714.92" y="-825.45" font-family="Times,serif" font-size="14.00">tras</text>
<text text-anchor="middle" x="5714.92" y="-810.45" font-family="Times,serif" font-size="14.00">sps00 (prepv)</text>
<text text-anchor="middle" x="5714.92" y="-795.45" font-family="Times,serif" font-size="14.00">rep=no, t=no, r=no, m=no, c=no</text>
</g>
<!-- n32&#45;&gt;n37 -->
<g id="edge36" class="edge">
<title>n32&#45;&gt;n37</title>
<path fill="none" stroke="black" d="M4934.08,-912.49C5088.88,-900.88 5322.83,-880.57 5524.92,-851.63 5542.31,-849.14 5560.53,-846.14 5578.51,-842.95"/>
<polygon fill="black" stroke="black" points="5579.25,-846.37 5588.47,-841.16 5578.01,-839.48 5579.25,-846.37"/>
</g>
<!-- n33 -->
<g id="node38" class="node">
<title>n33</title>
<ellipse fill="none" stroke="black" cx="4576.92" cy="-703.2" rx="181.95" ry="37.45"/>
<text text-anchor="middle" x="4576.92" y="-714.5" font-family="Times,serif" font-size="14.00">la</text>
<text text-anchor="middle" x="4576.92" y="-699.5" font-family="Times,serif" font-size="14.00">da0fs0 (det)</text>
<text text-anchor="middle" x="4576.92" y="-684.5" font-family="Times,serif" font-size="14.00">rep=no, t=no, r=no, m=no, c=no</text>
</g>
<!-- n34&#45;&gt;n33 -->
<g id="edge37" class="edge">
<title>n34&#45;&gt;n33</title>
<path fill="none" stroke="black" d="M4573.6,-776.57C4573.97,-768.39 4574.38,-759.61 4574.77,-751.09"/>
<polygon fill="black" stroke="black" points="4578.27,-751.02 4575.24,-740.87 4571.28,-750.7 4578.27,-751.02"/>
</g>
<!-- n39 -->
<g id="node39" class="node">
<title>n39</title>
<ellipse fill="none" stroke="black" cx="5714.92" cy="-703.2" rx="181.95" ry="37.45"/>
<text text-anchor="middle" x="5714.92" y="-714.5" font-family="Times,serif" font-size="14.00">fracaso</text>
<text text-anchor="middle" x="5714.92" y="-699.5" font-family="Times,serif" font-size="14.00">ncms000 (pobj)</text>
<text text-anchor="middle" x="5714.92" y="-684.5" font-family="Times,serif" font-size="14.00">rep=no, t=no, r=no, m=no, c=no</text>
</g>
<!-- n37&#45;&gt;n39 -->
<g id="edge38" class="edge">
<title>n37&#45;&gt;n39</title>
<path fill="none" stroke="black" d="M5714.92,-776.57C5714.92,-768.39 5714.92,-759.61 5714.92,-751.09"/>
<polygon fill="black" stroke="black" points="5718.42,-750.87 5714.92,-740.87 5711.42,-750.87 5718.42,-750.87"/>
</g>
<!-- n38 -->
<g id="node40" class="node">
<title>n38</title>
<ellipse fill="none" stroke="black" cx="4952.92" cy="-592.24" rx="181.95" ry="37.45"/>
<text text-anchor="middle" x="4952.92" y="-603.54" font-family="Times,serif" font-size="14.00">el</text>
<text text-anchor="middle" x="4952.92" y="-588.54" font-family="Times,serif" font-size="14.00">da0ms0 (det)</text>
<text text-anchor="middle" x="4952.92" y="-573.54" font-family="Times,serif" font-size="14.00">rep=no, t=no, r=no, m=no, c=no</text>
</g>
<!-- n39&#45;&gt;n38 -->
<g id="edge39" class="edge">
<title>n39&#45;&gt;n38</title>
<path fill="none" stroke="black" d="M5556.42,-684.86C5441.39,-671.61 5282.18,-651.89 5142.92,-629.72 5126.07,-627.04 5108.43,-623.99 5090.98,-620.81"/>
<polygon fill="black" stroke="black" points="5091.2,-617.3 5080.73,-618.93 5089.94,-624.18 5091.2,-617.3"/>
</g>
<!-- n40 -->
<g id="node41" class="node">
<title>n40</title>
<ellipse fill="none" stroke="black" cx="5333.92" cy="-592.24" rx="181.95" ry="37.45"/>
<text text-anchor="middle" x="5333.92" y="-603.54" font-family="Times,serif" font-size="14.00">,</text>
<text text-anchor="middle" x="5333.92" y="-588.54" font-family="Times,serif" font-size="14.00">fc (punct)</text>
<text text-anchor="middle" x="5333.92" y="-573.54" font-family="Times,serif" font-size="14.00">rep=no, t=no, r=no, m=no, c=no</text>
</g>
<!-- n39&#45;&gt;n40 -->
<g id="edge40" class="edge">
<title>n39&#45;&gt;n40</title>
<path fill="none" stroke="black" d="M5610.81,-672.42C5560.3,-657.98 5499.52,-640.6 5447.79,-625.81"/>
<polygon fill="black" stroke="black" points="5448.48,-622.36 5437.9,-622.98 5446.56,-629.09 5448.48,-622.36"/>
</g>
<!-- n42 -->
<g id="node42" class="node">
<title>n42</title>
<ellipse fill="none" stroke="black" cx="5714.92" cy="-592.24" rx="181.95" ry="37.45"/>
<text text-anchor="middle" x="5714.92" y="-603.54" font-family="Times,serif" font-size="14.00">día</text>
<text text-anchor="middle" x="5714.92" y="-588.54" font-family="Times,serif" font-size="14.00">ncms000 (appos)</text>
<text text-anchor="middle" x="5714.92" y="-573.54" font-family="Times,serif" font-size="14.00">rep=no, t=no, r=no, m=no, c=no</text>
</g>
<!-- n39&#45;&gt;n42 -->
<g id="edge41" class="edge">
<title>n39&#45;&gt;n42</title>
<path fill="none" stroke="black" d="M5714.92,-665.61C5714.92,-657.44 5714.92,-648.66 5714.92,-640.13"/>
<polygon fill="black" stroke="black" points="5718.42,-639.92 5714.92,-629.92 5711.42,-639.92 5718.42,-639.92"/>
</g>
<!-- n44 -->
<g id="node43" class="node">
<title>n44</title>
<ellipse fill="none" stroke="black" cx="6095.92" cy="-592.24" rx="181.95" ry="37.45"/>
<text text-anchor="middle" x="6095.92" y="-603.54" font-family="Times,serif" font-size="14.00">,</text>
<text text-anchor="middle" x="6095.92" y="-588.54" font-family="Times,serif" font-size="14.00">fc (punct)</text>
<text text-anchor="middle" x="6095.92" y="-573.54" font-family="Times,serif" font-size="14.00">rep=no, t=no, r=no, m=no, c=no</text>
</g>
<!-- n39&#45;&gt;n44 -->
<g id="edge42" class="edge">
<title>n39&#45;&gt;n44</title>
<path fill="none" stroke="black" d="M5819.03,-672.42C5869.53,-657.98 5930.32,-640.6 5982.05,-625.81"/>
<polygon fill="black" stroke="black" points="5983.28,-629.09 5991.93,-622.98 5981.36,-622.36 5983.28,-629.09"/>
</g>
<!-- n45 -->
<g id="node44" class="node">
<title>n45</title>
<ellipse fill="none" stroke="black" cx="6476.92" cy="-592.24" rx="181.95" ry="37.45"/>
<text text-anchor="middle" x="6476.92" y="-603.54" font-family="Times,serif" font-size="14.00">de</text>
<text text-anchor="middle" x="6476.92" y="-588.54" font-family="Times,serif" font-size="14.00">sps00 (prepn)</text>
<text text-anchor="middle" x="6476.92" y="-573.54" font-family="Times,serif" font-size="14.00">rep=no, t=no, r=no, m=no, c=no</text>
</g>
<!-- n39&#45;&gt;n45 -->
<g id="edge43" class="edge">
<title>n39&#45;&gt;n45</title>
<path fill="none" stroke="black" d="M5873.42,-684.86C5988.45,-671.61 6147.66,-651.89 6286.92,-629.72 6303.76,-627.04 6321.4,-623.99 6338.86,-620.81"/>
<polygon fill="black" stroke="black" points="6339.9,-624.18 6349.11,-618.93 6338.64,-617.3 6339.9,-624.18"/>
</g>
<!-- n41 -->
<g id="node45" class="node">
<title>n41</title>
<ellipse fill="none" stroke="black" cx="5524.92" cy="-481.29" rx="181.95" ry="37.45"/>
<text text-anchor="middle" x="5524.92" y="-492.59" font-family="Times,serif" font-size="14.00">el</text>
<text text-anchor="middle" x="5524.92" y="-477.59" font-family="Times,serif" font-size="14.00">da0ms0 (det)</text>
<text text-anchor="middle" x="5524.92" y="-462.59" font-family="Times,serif" font-size="14.00">rep=no, t=no, r=no, m=no, c=no</text>
</g>
<!-- n42&#45;&gt;n41 -->
<g id="edge44" class="edge">
<title>n42&#45;&gt;n41</title>
<path fill="none" stroke="black" d="M5654.8,-556.77C5635.39,-545.64 5613.72,-533.21 5593.72,-521.75"/>
<polygon fill="black" stroke="black" points="5595.39,-518.66 5584.97,-516.73 5591.9,-524.74 5595.39,-518.66"/>
</g>
<!-- n43 -->
<g id="node46" class="node">
<title>n43</title>
<ellipse fill="none" stroke="black" cx="5905.92" cy="-481.29" rx="181.95" ry="37.45"/>
<text text-anchor="middle" x="5905.92" y="-492.59" font-family="Times,serif" font-size="14.00">anterior</text>
<text text-anchor="middle" x="5905.92" y="-477.59" font-family="Times,serif" font-size="14.00">aq0cs0 (amod)</text>
<text text-anchor="middle" x="5905.92" y="-462.59" font-family="Times,serif" font-size="14.00">rep=no, t=no, r=no, m=no, c=no</text>
</g>
<!-- n42&#45;&gt;n43 -->
<g id="edge45" class="edge">
<title>n42&#45;&gt;n43</title>
<path fill="none" stroke="black" d="M5775.35,-556.77C5794.87,-545.64 5816.65,-533.21 5836.75,-521.75"/>
<polygon fill="black" stroke="black" points="5838.6,-524.72 5845.55,-516.73 5835.13,-518.64 5838.6,-524.72"/>
</g>
<!-- n47 -->
<g id="node47" class="node">
<title>n47</title>
<ellipse fill="none" stroke="black" cx="6476.92" cy="-481.29" rx="181.95" ry="37.45"/>
<text text-anchor="middle" x="6476.92" y="-492.59" font-family="Times,serif" font-size="14.00">mediación</text>
<text text-anchor="middle" x="6476.92" y="-477.59" font-family="Times,serif" font-size="14.00">ncfs000 (pobj)</text>
<text text-anchor="middle" x="6476.92" y="-462.59" font-family="Times,serif" font-size="14.00">rep=no, t=no, r=no, m=no, c=no</text>
</g>
<!-- n45&#45;&gt;n47 -->
<g id="edge46" class="edge">
<title>n45&#45;&gt;n47</title>
<path fill="none" stroke="black" d="M6476.92,-554.66C6476.92,-546.49 6476.92,-537.71 6476.92,-529.18"/>
<polygon fill="black" stroke="black" points="6480.42,-528.96 6476.92,-518.96 6473.42,-528.96 6480.42,-528.96"/>
</g>
<!-- n46 -->
<g id="node48" class="node">
<title>n46</title>
<ellipse fill="none" stroke="black" cx="6285.92" cy="-370.34" rx="181.95" ry="37.45"/>
<text text-anchor="middle" x="6285.92" y="-381.64" font-family="Times,serif" font-size="14.00">la</text>
<text text-anchor="middle" x="6285.92" y="-366.64" font-family="Times,serif" font-size="14.00">da0fs0 (det)</text>
<text text-anchor="middle" x="6285.92" y="-351.64" font-family="Times,serif" font-size="14.00">rep=no, t=no, r=no, m=no, c=no</text>
</g>
<!-- n47&#45;&gt;n46 -->
<g id="edge47" class="edge">
<title>n47&#45;&gt;n46</title>
<path fill="none" stroke="black" d="M6416.49,-445.82C6396.97,-434.68 6375.18,-422.26 6355.09,-410.79"/>
<polygon fill="black" stroke="black" points="6356.71,-407.69 6346.29,-405.77 6353.24,-413.77 6356.71,-407.69"/>
</g>
<!-- n48 -->
<g id="node49" class="node">
<title>n48</title>
<ellipse fill="none" stroke="black" cx="6666.92" cy="-370.34" rx="181.95" ry="37.45"/>
<text text-anchor="middle" x="6666.92" y="-381.64" font-family="Times,serif" font-size="14.00">del</text>
<text text-anchor="middle" x="6666.92" y="-366.64" font-family="Times,serif" font-size="14.00">spcms (prepn)</text>
<text text-anchor="middle" x="6666.92" y="-351.64" font-family="Times,serif" font-size="14.00">rep=no, t=no, r=no, m=no, c=no</text>
</g>
<!-- n47&#45;&gt;n48 -->
<g id="edge48" class="edge">
<title>n47&#45;&gt;n48</title>
<path fill="none" stroke="black" d="M6537.04,-445.82C6556.45,-434.68 6578.12,-422.26 6598.11,-410.79"/>
<polygon fill="black" stroke="black" points="6599.93,-413.78 6606.87,-405.77 6596.45,-407.71 6599.93,-413.78"/>
</g>
<!-- n50 -->
<g id="node50" class="node">
<title>n50</title>
<ellipse fill="none" stroke="black" cx="6666.92" cy="-259.38" rx="181.95" ry="37.45"/>
<text text-anchor="middle" x="6666.92" y="-270.68" font-family="Times,serif" font-size="14.00">ministro</text>
<text text-anchor="middle" x="6666.92" y="-255.68" font-family="Times,serif" font-size="14.00">ncms000 (pobj)</text>
<text text-anchor="middle" x="6666.92" y="-240.68" font-family="Times,serif" font-size="14.00">rep=no, t=no, r=no, m=no, c=no</text>
</g>
<!-- n48&#45;&gt;n50 -->
<g id="edge49" class="edge">
<title>n48&#45;&gt;n50</title>
<path fill="none" stroke="black" d="M6666.92,-332.75C6666.92,-324.58 6666.92,-315.8 6666.92,-307.27"/>
<polygon fill="black" stroke="black" points="6670.42,-307.06 6666.92,-297.06 6663.42,-307.06 6670.42,-307.06"/>
</g>
<!-- n49 -->
<g id="node51" class="node">
<title>n49</title>
<ellipse fill="none" stroke="black" cx="6285.92" cy="-148.43" rx="181.95" ry="37.45"/>
<text text-anchor="middle" x="6285.92" y="-159.73" font-family="Times,serif" font-size="14.00">primer</text>
<text text-anchor="middle" x="6285.92" y="-144.73" font-family="Times,serif" font-size="14.00">ao0ms0 (amod)</text>
<text text-anchor="middle" x="6285.92" y="-129.73" font-family="Times,serif" font-size="14.00">rep=no, t=no, r=no, m=no, c=no</text>
</g>
<!-- n50&#45;&gt;n49 -->
<g id="edge50" class="edge">
<title>n50&#45;&gt;n49</title>
<path fill="none" stroke="black" d="M6562.81,-228.61C6512.3,-214.17 6451.52,-196.79 6399.79,-181.99"/>
<polygon fill="black" stroke="black" points="6400.48,-178.55 6389.9,-179.17 6398.56,-185.28 6400.48,-178.55"/>
</g>
<!-- n51 -->
<g id="node52" class="node">
<title>n51</title>
<ellipse fill="none" stroke="black" cx="6666.92" cy="-148.43" rx="181.95" ry="37.45"/>
<text text-anchor="middle" x="6666.92" y="-159.73" font-family="Times,serif" font-size="14.00">,</text>
<text text-anchor="middle" x="6666.92" y="-144.73" font-family="Times,serif" font-size="14.00">fc (punct)</text>
<text text-anchor="middle" x="6666.92" y="-129.73" font-family="Times,serif" font-size="14.00">rep=no, t=no, r=no, m=no, c=no</text>
</g>
<!-- n50&#45;&gt;n51 -->
<g id="edge51" class="edge">
<title>n50&#45;&gt;n51</title>
<path fill="none" stroke="black" d="M6666.92,-221.8C6666.92,-213.63 6666.92,-204.85 6666.92,-196.32"/>
<polygon fill="black" stroke="black" points="6670.42,-196.1 6666.92,-186.1 6663.42,-196.1 6670.42,-196.1"/>
</g>
<!-- n52 -->
<g id="node53" class="node">
<title>n52</title>
<ellipse fill="none" stroke="black" cx="7047.92" cy="-148.43" rx="181.95" ry="37.45"/>
<text text-anchor="middle" x="7047.92" y="-159.73" font-family="Times,serif" font-size="14.00">Yevgueni</text>
<text text-anchor="middle" x="7047.92" y="-144.73" font-family="Times,serif" font-size="14.00">np0000l (appos)</text>
<text text-anchor="middle" x="7047.92" y="-129.73" font-family="Times,serif" font-size="14.00">rep=no, t=no, r=no, m=no, c=no</text>
</g>
<!-- n50&#45;&gt;n52 -->
<g id="edge52" class="edge">
<title>n50&#45;&gt;n52</title>
<path fill="none" stroke="black" d="M6771.03,-228.61C6821.53,-214.17 6882.32,-196.79 6934.05,-181.99"/>
<polygon fill="black" stroke="black" points="6935.28,-185.28 6943.93,-179.17 6933.36,-178.55 6935.28,-185.28"/>
</g>
<!-- n53 -->
<g id="node54" class="node">
<title>n53</title>
<ellipse fill="none" stroke="black" cx="7047.92" cy="-37.48" rx="181.95" ry="37.45"/>
<text text-anchor="middle" x="7047.92" y="-48.78" font-family="Times,serif" font-size="14.00">Primakov</text>
<text text-anchor="middle" x="7047.92" y="-33.78" font-family="Times,serif" font-size="14.00">np0000l (appos)</text>
<text text-anchor="middle" x="7047.92" y="-18.78" font-family="Times,serif" font-size="14.00">rep=no, t=no, r=no, m=no, c=no</text>
</g>
<!-- n52&#45;&gt;n53 -->
<g id="edge53" class="edge">
<title>n52&#45;&gt;n53</title>
<path fill="none" stroke="black" d="M7047.92,-110.85C7047.92,-102.67 7047.92,-93.89 7047.92,-85.37"/>
<polygon fill="black" stroke="black" points="7051.42,-85.15 7047.92,-75.15 7044.42,-85.15 7051.42,-85.15"/>
</g>
</g>
</svg>
