<?xml version="1.0" encoding="UTF-8" standalone="no"?>
<!DOCTYPE svg PUBLIC "-//W3C//DTD SVG 1.1//EN"
 "http://www.w3.org/Graphics/SVG/1.1/DTD/svg11.dtd">
<!-- Generated by graphviz version 2.43.0 (0)
 -->
<!-- Title: tree Pages: 1 -->
<svg width="3474pt" height="860pt"
 viewBox="0.00 0.00 3473.70 859.63" xmlns="http://www.w3.org/2000/svg" xmlns:xlink="http://www.w3.org/1999/xlink">
<g id="graph0" class="graph" transform="scale(1 1) rotate(0) translate(4 855.63)">
<title>tree</title>
<polygon fill="white" stroke="transparent" points="-4,4 -4,-855.63 3469.7,-855.63 3469.7,4 -4,4"/>
<!-- n10 -->
<g id="node1" class="node">
<title>n10</title>
<ellipse fill="none" stroke="black" cx="1524.73" cy="-814.15" rx="185.94" ry="37.45"/>
<text text-anchor="middle" x="1524.73" y="-825.45" font-family="Times,serif" font-size="14.00">fichó</text>
<text text-anchor="middle" x="1524.73" y="-810.45" font-family="Times,serif" font-size="14.00">vmis3s0 (root)</text>
<text text-anchor="middle" x="1524.73" y="-795.45" font-family="Times,serif" font-size="14.00">rep=no, t=no, r=no, m=yes, c=no</text>
</g>
<!-- n1 -->
<g id="node2" class="node">
<title>n1</title>
<ellipse fill="none" stroke="black" cx="181.73" cy="-703.2" rx="181.95" ry="37.45"/>
<text text-anchor="middle" x="181.73" y="-714.5" font-family="Times,serif" font-size="14.00">&#45;</text>
<text text-anchor="middle" x="181.73" y="-699.5" font-family="Times,serif" font-size="14.00">fg (punct)</text>
<text text-anchor="middle" x="181.73" y="-684.5" font-family="Times,serif" font-size="14.00">rep=no, t=no, r=no, m=no, c=no</text>
</g>
<!-- n10&#45;&gt;n1 -->
<g id="edge1" class="edge">
<title>n10&#45;&gt;n1</title>
<path fill="none" stroke="black" d="M1340.33,-808.77C1112.12,-801.68 711.97,-783.85 371.73,-740.67 353.79,-738.4 335,-735.47 316.5,-732.25"/>
<polygon fill="black" stroke="black" points="317.02,-728.79 306.56,-730.5 315.8,-735.69 317.02,-728.79"/>
</g>
<!-- n2 -->
<g id="node3" class="node">
<title>n2</title>
<ellipse fill="none" stroke="black" cx="562.73" cy="-703.2" rx="181.95" ry="37.45"/>
<text text-anchor="middle" x="562.73" y="-714.5" font-family="Times,serif" font-size="14.00">&#45;</text>
<text text-anchor="middle" x="562.73" y="-699.5" font-family="Times,serif" font-size="14.00">fg (punct)</text>
<text text-anchor="middle" x="562.73" y="-684.5" font-family="Times,serif" font-size="14.00">rep=no, t=no, r=no, m=no, c=no</text>
</g>
<!-- n10&#45;&gt;n2 -->
<g id="edge2" class="edge">
<title>n10&#45;&gt;n2</title>
<path fill="none" stroke="black" d="M1349.4,-801.51C1192.56,-789.96 956.63,-769.75 752.73,-740.67 735.26,-738.18 716.96,-735.18 698.91,-731.98"/>
<polygon fill="black" stroke="black" points="699.38,-728.5 688.92,-730.18 698.14,-735.39 699.38,-728.5"/>
</g>
<!-- n3 -->
<g id="node4" class="node">
<title>n3</title>
<ellipse fill="none" stroke="black" cx="943.73" cy="-703.2" rx="181.95" ry="37.45"/>
<text text-anchor="middle" x="943.73" y="-714.5" font-family="Times,serif" font-size="14.00">En</text>
<text text-anchor="middle" x="943.73" y="-699.5" font-family="Times,serif" font-size="14.00">sps00 (prepv)</text>
<text text-anchor="middle" x="943.73" y="-684.5" font-family="Times,serif" font-size="14.00">rep=no, t=no, r=no, m=no, c=no</text>
</g>
<!-- n10&#45;&gt;n3 -->
<g id="edge3" class="edge">
<title>n10&#45;&gt;n3</title>
<path fill="none" stroke="black" d="M1389.78,-788.24C1314.67,-774.34 1219.49,-756.64 1134.73,-740.67 1118.43,-737.6 1101.36,-734.37 1084.41,-731.15"/>
<polygon fill="black" stroke="black" points="1084.93,-727.68 1074.45,-729.25 1083.62,-734.56 1084.93,-727.68"/>
</g>
<!-- n9 -->
<g id="node5" class="node">
<title>n9</title>
<ellipse fill="none" stroke="black" cx="1329.73" cy="-703.2" rx="185.94" ry="37.45"/>
<text text-anchor="middle" x="1329.73" y="-714.5" font-family="Times,serif" font-size="14.00">se</text>
<text text-anchor="middle" x="1329.73" y="-699.5" font-family="Times,serif" font-size="14.00">p0000000 (reflec)</text>
<text text-anchor="middle" x="1329.73" y="-684.5" font-family="Times,serif" font-size="14.00">rep=no, t=no, r=no, m=yes, c=no</text>
</g>
<!-- n10&#45;&gt;n9 -->
<g id="edge4" class="edge">
<title>n10&#45;&gt;n9</title>
<path fill="none" stroke="black" d="M1463.03,-778.68C1443.1,-767.54 1420.86,-755.12 1400.34,-743.65"/>
<polygon fill="black" stroke="black" points="1401.8,-740.45 1391.36,-738.63 1398.38,-746.57 1401.8,-740.45"/>
</g>
<!-- n11 -->
<g id="node6" class="node">
<title>n11</title>
<ellipse fill="none" stroke="black" cx="1719.73" cy="-703.2" rx="185.94" ry="37.45"/>
<text text-anchor="middle" x="1719.73" y="-714.5" font-family="Times,serif" font-size="14.00">a</text>
<text text-anchor="middle" x="1719.73" y="-699.5" font-family="Times,serif" font-size="14.00">sps00 (dobj)</text>
<text text-anchor="middle" x="1719.73" y="-684.5" font-family="Times,serif" font-size="14.00">rep=no, t=no, r=no, m=yes, c=no</text>
</g>
<!-- n10&#45;&gt;n11 -->
<g id="edge5" class="edge">
<title>n10&#45;&gt;n11</title>
<path fill="none" stroke="black" d="M1586.43,-778.68C1606.35,-767.54 1628.59,-755.12 1649.11,-743.65"/>
<polygon fill="black" stroke="black" points="1651.07,-746.57 1658.09,-738.63 1647.66,-740.45 1651.07,-746.57"/>
</g>
<!-- n16 -->
<g id="node7" class="node">
<title>n16</title>
<ellipse fill="none" stroke="black" cx="2109.73" cy="-703.2" rx="185.94" ry="37.45"/>
<text text-anchor="middle" x="2109.73" y="-714.5" font-family="Times,serif" font-size="14.00">sería</text>
<text text-anchor="middle" x="2109.73" y="-699.5" font-family="Times,serif" font-size="14.00">vsic3s0 (cobj)</text>
<text text-anchor="middle" x="2109.73" y="-684.5" font-family="Times,serif" font-size="14.00">rep=no, t=no, r=no, m=yes, c=no</text>
</g>
<!-- n10&#45;&gt;n16 -->
<g id="edge6" class="edge">
<title>n10&#45;&gt;n16</title>
<path fill="none" stroke="black" d="M1659.2,-788.2C1734.37,-774.24 1829.76,-756.51 1914.73,-740.67 1931.21,-737.6 1948.48,-734.38 1965.64,-731.17"/>
<polygon fill="black" stroke="black" points="1966.54,-734.56 1975.72,-729.28 1965.25,-727.68 1966.54,-734.56"/>
</g>
<!-- n26 -->
<g id="node8" class="node">
<title>n26</title>
<ellipse fill="none" stroke="black" cx="2495.73" cy="-703.2" rx="181.95" ry="37.45"/>
<text text-anchor="middle" x="2495.73" y="-714.5" font-family="Times,serif" font-size="14.00">&#45;</text>
<text text-anchor="middle" x="2495.73" y="-699.5" font-family="Times,serif" font-size="14.00">fg (punct)</text>
<text text-anchor="middle" x="2495.73" y="-684.5" font-family="Times,serif" font-size="14.00">rep=no, t=no, r=no, m=no, c=no</text>
</g>
<!-- n10&#45;&gt;n26 -->
<g id="edge7" class="edge">
<title>n10&#45;&gt;n26</title>
<path fill="none" stroke="black" d="M1700.32,-801.68C1858.77,-790.17 2098.03,-769.94 2304.73,-740.67 2322.35,-738.18 2340.82,-735.16 2359.04,-731.95"/>
<polygon fill="black" stroke="black" points="2359.9,-735.35 2369.13,-730.14 2358.67,-728.46 2359.9,-735.35"/>
</g>
<!-- n27 -->
<g id="node9" class="node">
<title>n27</title>
<ellipse fill="none" stroke="black" cx="2876.73" cy="-703.2" rx="181.95" ry="37.45"/>
<text text-anchor="middle" x="2876.73" y="-714.5" font-family="Times,serif" font-size="14.00">&#45;</text>
<text text-anchor="middle" x="2876.73" y="-699.5" font-family="Times,serif" font-size="14.00">fg (punct)</text>
<text text-anchor="middle" x="2876.73" y="-684.5" font-family="Times,serif" font-size="14.00">rep=no, t=no, r=no, m=no, c=no</text>
</g>
<!-- n10&#45;&gt;n27 -->
<g id="edge8" class="edge">
<title>n10&#45;&gt;n27</title>
<path fill="none" stroke="black" d="M1709.05,-808.89C1938.79,-801.93 2343.07,-784.2 2686.73,-740.67 2704.66,-738.4 2723.46,-735.47 2741.95,-732.26"/>
<polygon fill="black" stroke="black" points="2742.65,-735.69 2751.89,-730.51 2741.43,-728.8 2742.65,-735.69"/>
</g>
<!-- n5 -->
<g id="node10" class="node">
<title>n5</title>
<ellipse fill="none" stroke="black" cx="943.73" cy="-592.24" rx="181.95" ry="37.45"/>
<text text-anchor="middle" x="943.73" y="-603.54" font-family="Times,serif" font-size="14.00">congreso</text>
<text text-anchor="middle" x="943.73" y="-588.54" font-family="Times,serif" font-size="14.00">ncms000 (pobj)</text>
<text text-anchor="middle" x="943.73" y="-573.54" font-family="Times,serif" font-size="14.00">rep=no, t=no, r=no, m=no, c=no</text>
</g>
<!-- n3&#45;&gt;n5 -->
<g id="edge9" class="edge">
<title>n3&#45;&gt;n5</title>
<path fill="none" stroke="black" d="M943.73,-665.61C943.73,-657.44 943.73,-648.66 943.73,-640.13"/>
<polygon fill="black" stroke="black" points="947.23,-639.92 943.73,-629.92 940.23,-639.92 947.23,-639.92"/>
</g>
<!-- n12 -->
<g id="node15" class="node">
<title>n12</title>
<ellipse fill="none" stroke="black" cx="1329.73" cy="-592.24" rx="185.94" ry="37.45"/>
<text text-anchor="middle" x="1329.73" y="-603.54" font-family="Times,serif" font-size="14.00">Piqué</text>
<text text-anchor="middle" x="1329.73" y="-588.54" font-family="Times,serif" font-size="14.00">np00000 (pobj)</text>
<text text-anchor="middle" x="1329.73" y="-573.54" font-family="Times,serif" font-size="14.00">rep=no, t=no, r=no, m=yes, c=no</text>
</g>
<!-- n11&#45;&gt;n12 -->
<g id="edge14" class="edge">
<title>n11&#45;&gt;n12</title>
<path fill="none" stroke="black" d="M1613.16,-672.42C1561.35,-657.95 1498.98,-640.53 1445.95,-625.71"/>
<polygon fill="black" stroke="black" points="1446.74,-622.3 1436.17,-622.98 1444.86,-629.04 1446.74,-622.3"/>
</g>
<!-- n13 -->
<g id="node16" class="node">
<title>n13</title>
<ellipse fill="none" stroke="black" cx="1719.73" cy="-592.24" rx="185.94" ry="37.45"/>
<text text-anchor="middle" x="1719.73" y="-603.54" font-family="Times,serif" font-size="14.00">,</text>
<text text-anchor="middle" x="1719.73" y="-588.54" font-family="Times,serif" font-size="14.00">fc (punct)</text>
<text text-anchor="middle" x="1719.73" y="-573.54" font-family="Times,serif" font-size="14.00">rep=no, t=no, r=no, m=yes, c=no</text>
</g>
<!-- n16&#45;&gt;n13 -->
<g id="edge15" class="edge">
<title>n16&#45;&gt;n13</title>
<path fill="none" stroke="black" d="M2003.16,-672.42C1951.35,-657.95 1888.98,-640.53 1835.95,-625.71"/>
<polygon fill="black" stroke="black" points="1836.74,-622.3 1826.17,-622.98 1834.86,-629.04 1836.74,-622.3"/>
</g>
<!-- n14 -->
<g id="node17" class="node">
<title>n14</title>
<ellipse fill="none" stroke="black" cx="2109.73" cy="-592.24" rx="185.94" ry="37.45"/>
<text text-anchor="middle" x="2109.73" y="-603.54" font-family="Times,serif" font-size="14.00">¿</text>
<text text-anchor="middle" x="2109.73" y="-588.54" font-family="Times,serif" font-size="14.00">fia (punct)</text>
<text text-anchor="middle" x="2109.73" y="-573.54" font-family="Times,serif" font-size="14.00">rep=no, t=no, r=no, m=yes, c=no</text>
</g>
<!-- n16&#45;&gt;n14 -->
<g id="edge16" class="edge">
<title>n16&#45;&gt;n14</title>
<path fill="none" stroke="black" d="M2109.73,-665.61C2109.73,-657.44 2109.73,-648.66 2109.73,-640.13"/>
<polygon fill="black" stroke="black" points="2113.23,-639.92 2109.73,-629.92 2106.23,-639.92 2113.23,-639.92"/>
</g>
<!-- n15 -->
<g id="node18" class="node">
<title>n15</title>
<ellipse fill="none" stroke="black" cx="2499.73" cy="-592.24" rx="185.94" ry="37.45"/>
<text text-anchor="middle" x="2499.73" y="-603.54" font-family="Times,serif" font-size="14.00">ahora</text>
<text text-anchor="middle" x="2499.73" y="-588.54" font-family="Times,serif" font-size="14.00">rg (advmod)</text>
<text text-anchor="middle" x="2499.73" y="-573.54" font-family="Times,serif" font-size="14.00">rep=no, t=no, r=no, m=yes, c=no</text>
</g>
<!-- n16&#45;&gt;n15 -->
<g id="edge17" class="edge">
<title>n16&#45;&gt;n15</title>
<path fill="none" stroke="black" d="M2216.3,-672.42C2268.1,-657.95 2330.47,-640.53 2383.5,-625.71"/>
<polygon fill="black" stroke="black" points="2384.6,-629.04 2393.29,-622.98 2382.71,-622.3 2384.6,-629.04"/>
</g>
<!-- n19 -->
<g id="node19" class="node">
<title>n19</title>
<ellipse fill="none" stroke="black" cx="2889.73" cy="-592.24" rx="185.94" ry="37.45"/>
<text text-anchor="middle" x="2889.73" y="-603.54" font-family="Times,serif" font-size="14.00">momento</text>
<text text-anchor="middle" x="2889.73" y="-588.54" font-family="Times,serif" font-size="14.00">ncms000 (attr)</text>
<text text-anchor="middle" x="2889.73" y="-573.54" font-family="Times,serif" font-size="14.00">rep=no, t=no, r=no, m=yes, c=no</text>
</g>
<!-- n16&#45;&gt;n19 -->
<g id="edge18" class="edge">
<title>n16&#45;&gt;n19</title>
<path fill="none" stroke="black" d="M2239.25,-676.23C2261.05,-672.36 2283.49,-668.68 2304.73,-665.72 2477.13,-641.69 2522.32,-653.75 2694.73,-629.72 2712.73,-627.21 2731.59,-624.19 2750.2,-620.97"/>
<polygon fill="black" stroke="black" points="2750.95,-624.39 2760.2,-619.21 2749.74,-617.49 2750.95,-624.39"/>
</g>
<!-- n25 -->
<g id="node20" class="node">
<title>n25</title>
<ellipse fill="none" stroke="black" cx="3279.73" cy="-592.24" rx="185.94" ry="37.45"/>
<text text-anchor="middle" x="3279.73" y="-603.54" font-family="Times,serif" font-size="14.00">?</text>
<text text-anchor="middle" x="3279.73" y="-588.54" font-family="Times,serif" font-size="14.00">fit (punct)</text>
<text text-anchor="middle" x="3279.73" y="-573.54" font-family="Times,serif" font-size="14.00">rep=no, t=no, r=no, m=yes, c=no</text>
</g>
<!-- n16&#45;&gt;n25 -->
<g id="edge19" class="edge">
<title>n16&#45;&gt;n25</title>
<path fill="none" stroke="black" d="M2236.78,-675.8C2259.33,-671.87 2282.66,-668.28 2304.73,-665.72 2649.45,-625.72 2740,-669.72 3084.73,-629.72 3103.52,-627.54 3123.22,-624.62 3142.58,-621.37"/>
<polygon fill="black" stroke="black" points="3143.4,-624.78 3152.67,-619.64 3142.22,-617.88 3143.4,-624.78"/>
</g>
<!-- n4 -->
<g id="node11" class="node">
<title>n4</title>
<ellipse fill="none" stroke="black" cx="562.73" cy="-481.29" rx="181.95" ry="37.45"/>
<text text-anchor="middle" x="562.73" y="-492.59" font-family="Times,serif" font-size="14.00">el</text>
<text text-anchor="middle" x="562.73" y="-477.59" font-family="Times,serif" font-size="14.00">da0ms0 (det)</text>
<text text-anchor="middle" x="562.73" y="-462.59" font-family="Times,serif" font-size="14.00">rep=no, t=no, r=no, m=no, c=no</text>
</g>
<!-- n5&#45;&gt;n4 -->
<g id="edge10" class="edge">
<title>n5&#45;&gt;n4</title>
<path fill="none" stroke="black" d="M839.62,-561.47C789.11,-547.03 728.33,-529.65 676.6,-514.85"/>
<polygon fill="black" stroke="black" points="677.29,-511.41 666.71,-512.03 675.36,-518.14 677.29,-511.41"/>
</g>
<!-- n6 -->
<g id="node12" class="node">
<title>n6</title>
<ellipse fill="none" stroke="black" cx="943.73" cy="-481.29" rx="181.95" ry="37.45"/>
<text text-anchor="middle" x="943.73" y="-492.59" font-family="Times,serif" font-size="14.00">nacional</text>
<text text-anchor="middle" x="943.73" y="-477.59" font-family="Times,serif" font-size="14.00">aq0cs0 (amod)</text>
<text text-anchor="middle" x="943.73" y="-462.59" font-family="Times,serif" font-size="14.00">rep=no, t=no, r=no, m=no, c=no</text>
</g>
<!-- n5&#45;&gt;n6 -->
<g id="edge11" class="edge">
<title>n5&#45;&gt;n6</title>
<path fill="none" stroke="black" d="M943.73,-554.66C943.73,-546.49 943.73,-537.71 943.73,-529.18"/>
<polygon fill="black" stroke="black" points="947.23,-528.96 943.73,-518.96 940.23,-528.96 947.23,-528.96"/>
</g>
<!-- n7 -->
<g id="node13" class="node">
<title>n7</title>
<ellipse fill="none" stroke="black" cx="1324.73" cy="-481.29" rx="181.95" ry="37.45"/>
<text text-anchor="middle" x="1324.73" y="-492.59" font-family="Times,serif" font-size="14.00">del</text>
<text text-anchor="middle" x="1324.73" y="-477.59" font-family="Times,serif" font-size="14.00">spcms (prepn)</text>
<text text-anchor="middle" x="1324.73" y="-462.59" font-family="Times,serif" font-size="14.00">rep=no, t=no, r=no, m=no, c=no</text>
</g>
<!-- n5&#45;&gt;n7 -->
<g id="edge12" class="edge">
<title>n5&#45;&gt;n7</title>
<path fill="none" stroke="black" d="M1047.84,-561.47C1098.34,-547.03 1159.12,-529.65 1210.86,-514.85"/>
<polygon fill="black" stroke="black" points="1212.09,-518.14 1220.74,-512.03 1210.17,-511.41 1212.09,-518.14"/>
</g>
<!-- n8 -->
<g id="node14" class="node">
<title>n8</title>
<ellipse fill="none" stroke="black" cx="1324.73" cy="-370.34" rx="181.95" ry="37.45"/>
<text text-anchor="middle" x="1324.73" y="-381.64" font-family="Times,serif" font-size="14.00">PP</text>
<text text-anchor="middle" x="1324.73" y="-366.64" font-family="Times,serif" font-size="14.00">np00000 (pobj)</text>
<text text-anchor="middle" x="1324.73" y="-351.64" font-family="Times,serif" font-size="14.00">rep=no, t=no, r=no, m=no, c=no</text>
</g>
<!-- n7&#45;&gt;n8 -->
<g id="edge13" class="edge">
<title>n7&#45;&gt;n8</title>
<path fill="none" stroke="black" d="M1324.73,-443.71C1324.73,-435.53 1324.73,-426.75 1324.73,-418.23"/>
<polygon fill="black" stroke="black" points="1328.23,-418.01 1324.73,-408.01 1321.23,-418.01 1328.23,-418.01"/>
</g>
<!-- n17 -->
<g id="node21" class="node">
<title>n17</title>
<ellipse fill="none" stroke="black" cx="2499.73" cy="-481.29" rx="185.94" ry="37.45"/>
<text text-anchor="middle" x="2499.73" y="-492.59" font-family="Times,serif" font-size="14.00">un</text>
<text text-anchor="middle" x="2499.73" y="-477.59" font-family="Times,serif" font-size="14.00">di0ms0 (det)</text>
<text text-anchor="middle" x="2499.73" y="-462.59" font-family="Times,serif" font-size="14.00">rep=no, t=no, r=no, m=yes, c=no</text>
</g>
<!-- n19&#45;&gt;n17 -->
<g id="edge20" class="edge">
<title>n19&#45;&gt;n17</title>
<path fill="none" stroke="black" d="M2783.16,-561.47C2731.35,-547 2668.98,-529.57 2615.95,-514.76"/>
<polygon fill="black" stroke="black" points="2616.74,-511.35 2606.17,-512.03 2614.86,-518.09 2616.74,-511.35"/>
</g>
<!-- n18 -->
<g id="node22" class="node">
<title>n18</title>
<ellipse fill="none" stroke="black" cx="2889.73" cy="-481.29" rx="185.94" ry="37.45"/>
<text text-anchor="middle" x="2889.73" y="-492.59" font-family="Times,serif" font-size="14.00">buen</text>
<text text-anchor="middle" x="2889.73" y="-477.59" font-family="Times,serif" font-size="14.00">aq0ms0 (amod)</text>
<text text-anchor="middle" x="2889.73" y="-462.59" font-family="Times,serif" font-size="14.00">rep=no, t=no, r=no, m=yes, c=no</text>
</g>
<!-- n19&#45;&gt;n18 -->
<g id="edge21" class="edge">
<title>n19&#45;&gt;n18</title>
<path fill="none" stroke="black" d="M2889.73,-554.66C2889.73,-546.49 2889.73,-537.71 2889.73,-529.18"/>
<polygon fill="black" stroke="black" points="2893.23,-528.96 2889.73,-518.96 2886.23,-528.96 2893.23,-528.96"/>
</g>
<!-- n20 -->
<g id="node23" class="node">
<title>n20</title>
<ellipse fill="none" stroke="black" cx="3279.73" cy="-481.29" rx="185.94" ry="37.45"/>
<text text-anchor="middle" x="3279.73" y="-492.59" font-family="Times,serif" font-size="14.00">para</text>
<text text-anchor="middle" x="3279.73" y="-477.59" font-family="Times,serif" font-size="14.00">sps00 (prepn)</text>
<text text-anchor="middle" x="3279.73" y="-462.59" font-family="Times,serif" font-size="14.00">rep=no, t=no, r=no, m=yes, c=no</text>
</g>
<!-- n19&#45;&gt;n20 -->
<g id="edge22" class="edge">
<title>n19&#45;&gt;n20</title>
<path fill="none" stroke="black" d="M2996.3,-561.47C3048.1,-547 3110.47,-529.57 3163.5,-514.76"/>
<polygon fill="black" stroke="black" points="3164.6,-518.09 3173.29,-512.03 3162.71,-511.35 3164.6,-518.09"/>
</g>
<!-- n21 -->
<g id="node24" class="node">
<title>n21</title>
<ellipse fill="none" stroke="black" cx="3279.73" cy="-370.34" rx="185.94" ry="37.45"/>
<text text-anchor="middle" x="3279.73" y="-381.64" font-family="Times,serif" font-size="14.00">incorporar</text>
<text text-anchor="middle" x="3279.73" y="-366.64" font-family="Times,serif" font-size="14.00">vmn0000 (pobj)</text>
<text text-anchor="middle" x="3279.73" y="-351.64" font-family="Times,serif" font-size="14.00">rep=no, t=no, r=no, m=yes, c=no</text>
</g>
<!-- n20&#45;&gt;n21 -->
<g id="edge23" class="edge">
<title>n20&#45;&gt;n21</title>
<path fill="none" stroke="black" d="M3279.73,-443.71C3279.73,-435.53 3279.73,-426.75 3279.73,-418.23"/>
<polygon fill="black" stroke="black" points="3283.23,-418.01 3279.73,-408.01 3276.23,-418.01 3283.23,-418.01"/>
</g>
<!-- n22 -->
<g id="node25" class="node">
<title>n22</title>
<ellipse fill="none" stroke="black" cx="3279.73" cy="-259.38" rx="185.94" ry="37.45"/>
<text text-anchor="middle" x="3279.73" y="-270.68" font-family="Times,serif" font-size="14.00">a</text>
<text text-anchor="middle" x="3279.73" y="-255.68" font-family="Times,serif" font-size="14.00">sps00 (dobj)</text>
<text text-anchor="middle" x="3279.73" y="-240.68" font-family="Times,serif" font-size="14.00">rep=no, t=no, r=no, m=yes, c=no</text>
</g>
<!-- n21&#45;&gt;n22 -->
<g id="edge24" class="edge">
<title>n21&#45;&gt;n22</title>
<path fill="none" stroke="black" d="M3279.73,-332.75C3279.73,-324.58 3279.73,-315.8 3279.73,-307.27"/>
<polygon fill="black" stroke="black" points="3283.23,-307.06 3279.73,-297.06 3276.23,-307.06 3283.23,-307.06"/>
</g>
<!-- n23 -->
<g id="node26" class="node">
<title>n23</title>
<ellipse fill="none" stroke="black" cx="3279.73" cy="-148.43" rx="185.94" ry="37.45"/>
<text text-anchor="middle" x="3279.73" y="-159.73" font-family="Times,serif" font-size="14.00">Anna</text>
<text text-anchor="middle" x="3279.73" y="-144.73" font-family="Times,serif" font-size="14.00">np0000l (pobj)</text>
<text text-anchor="middle" x="3279.73" y="-129.73" font-family="Times,serif" font-size="14.00">rep=no, t=no, r=no, m=yes, c=no</text>
</g>
<!-- n22&#45;&gt;n23 -->
<g id="edge25" class="edge">
<title>n22&#45;&gt;n23</title>
<path fill="none" stroke="black" d="M3279.73,-221.8C3279.73,-213.63 3279.73,-204.85 3279.73,-196.32"/>
<polygon fill="black" stroke="black" points="3283.23,-196.1 3279.73,-186.1 3276.23,-196.1 3283.23,-196.1"/>
</g>
<!-- n24 -->
<g id="node27" class="node">
<title>n24</title>
<ellipse fill="none" stroke="black" cx="3279.73" cy="-37.48" rx="185.94" ry="37.45"/>
<text text-anchor="middle" x="3279.73" y="-48.78" font-family="Times,serif" font-size="14.00">Birulés</text>
<text text-anchor="middle" x="3279.73" y="-33.78" font-family="Times,serif" font-size="14.00">np0000l (appos)</text>
<text text-anchor="middle" x="3279.73" y="-18.78" font-family="Times,serif" font-size="14.00">rep=no, t=no, r=no, m=yes, c=no</text>
</g>
<!-- n23&#45;&gt;n24 -->
<g id="edge26" class="edge">
<title>n23&#45;&gt;n24</title>
<path fill="none" stroke="black" d="M3279.73,-110.85C3279.73,-102.67 3279.73,-93.89 3279.73,-85.37"/>
<polygon fill="black" stroke="black" points="3283.23,-85.15 3279.73,-75.15 3276.23,-85.15 3283.23,-85.15"/>
</g>
</g>
</svg>
